ply
format ascii 1.0
element vertex 2507
property float x
property float y
property float z
property uchar red
property uchar green
property uchar blue
end_header
221.7 -545.5 217.4 165 165 165
224.2 -539.3 215.0 162 162 162
247.0 -545.5 217.4 163 163 163
249.2 -539.3 215.0 163 163 163
251.3 -533.3 212.5 163 163 163
256.3 -533.3 212.5 163 163 163
263.2 -527.3 210.2 161 161 161
271.1 -533.3 212.5 161 161 161
279.2 -539.3 215.0 161 161 161
306.1 -551.9 220.0 157 160 159
294.1 -521.6 207.9 157 160 159
97.3 -162.0 64.6 155 158 157
97.8 -160.3 63.9 155 158 157
100.7 -162.5 64.8 155 158 157
102.9 -163.7 65.2 156 159 158
103.7 -162.5 64.8 156 159 158
104.5 -161.4 64.3 156 159 158
137.0 -105.7 42.1 105 105 105
134.4 -103.0 41.0 105 104 102
134.7 -102.5 40.9 105 104 102
134.8 -101.8 40.6 99 101 101
157.7 -470.2 189.2 164 164 164
160.5 -465.6 187.3 164 164 164
161.7 -456.5 183.7 164 164 164
171.9 -461.0 185.5 165 165 165
177.9 -465.6 187.3 165 165 165
191.0 -465.6 187.3 162 162 162
189.7 -452.1 181.9 162 162 162
202.1 -461.0 185.5 163 163 163
210.5 -470.2 189.2 163 163 163
214.9 -470.2 189.2 163 163 163
215.0 -461.0 185.5 163 163 163
221.5 -465.6 187.3 163 163 163
221.4 -456.5 183.7 163 163 163
234.5 -465.6 187.3 161 161 161
95.7 -186.6 75.1 161 161 161
240.8 -461.0 185.5 161 161 161
250.1 -470.2 189.2 161 161 161
251.9 -465.6 187.3 161 161 161
241.9 -439.5 176.8 161 161 161
115.6 -193.5 77.8 158 161 160
111.0 -183.0 73.6 158 161 160
111.4 -178.1 71.7 158 161 160
113.5 -178.8 71.9 159 162 161
113.8 -176.8 71.1 159 162 161
110.9 -169.8 68.3 156 159 158
128.8 -97.8 39.3 105 104 102
128.4 -96.8 38.9 99 101 101
130.6 -97.8 39.3 99 101 101
58.8 -38.4 15.4 212 213 212
58.3 -37.8 15.2 180 183 182
61.1 -180.6 73.3 167 167 167
62.8 -180.6 73.3 167 167 167
64.3 -179.9 73.0 164 164 164
66.5 -181.3 73.6 165 165 165
68.2 -181.3 73.6 165 165 165
69.7 -180.6 73.3 165 165 165
71.4 -180.6 73.3 165 165 165
73.3 -181.3 73.6 162 162 162
75.1 -181.3 73.6 162 162 162
76.8 -181.3 73.6 162 162 162
78.2 -180.6 73.3 162 162 162
79.6 -179.9 73.0 163 163 163
81.3 -179.9 73.0 163 163 163
85.3 -181.3 73.6 163 163 163
86.7 -180.6 73.3 163 163 163
88.4 -180.6 73.3 163 163 163
90.8 -182.0 73.9 163 163 163
92.2 -181.3 73.6 164 164 164
91.7 -177.1 71.9 164 164 164
93.4 -177.1 71.9 164 164 164
95.4 -177.8 72.2 164 164 164
99.0 -181.3 73.6 167 167 167
106.6 -188.6 76.6 161 161 161
105.0 -182.7 74.2 162 162 162
105.4 -180.6 73.3 162 162 162
108.8 -183.4 74.5 162 162 162
109.7 -182.0 73.9 162 162 162
102.2 -167.0 67.8 162 162 162
112.3 -180.6 73.3 162 162 162
113.5 -179.9 73.0 162 162 162
114.3 -178.5 72.5 163 163 163
116.0 -178.5 72.5 163 163 163
112.5 -170.6 69.3 160 163 162
121.0 -91.0 36.9 105 104 102
116.8 -87.2 35.4 105 104 102
59.8 -38.7 15.7 200 202 202
59.3 -38.1 15.5 197 200 199
70.3 -134.5 55.1 164 164 164
70.4 -132.2 54.2 164 164 164
73.5 -135.7 55.6 164 164 164
80.1 -138.2 56.6 164 164 164
78.6 -133.4 54.7 164 164 164
88.3 -142.9 58.6 165 165 165
81.1 -129.3 53.0 165 165 165
111.8 -172.8 70.8 166 166 166
105.5 -160.8 65.9 166 166 166
104.9 -157.5 64.6 164 164 164
91.7 -135.7 55.6 164 164 164
87.8 -128.2 52.5 164 164 164
112.2 -83.0 34.0 105 104 102
108.3 -79.6 32.6 99 101 101
84.8 -61.0 25.0 99 101 101
79.9 -57.1 23.4 99 101 101
62.1 -40.0 16.4 204 204 204
60.8 -38.9 15.9 196 196 196
59.1 -37.6 15.4 216 216 216
20.7 -98.5 40.8 161 161 161
54.0 -98.7 40.9 167 167 167
113.5 -173.8 71.9 169 169 169
113.8 -171.8 71.1 166 166 166
112.1 -166.8 69.0 166 166 166
101.5 -148.9 61.6 167 167 167
79.6 -115.1 47.6 167 167 167
131.1 -97.4 40.3 105 104 102
124.1 -91.6 37.9 106 106 106
103.8 -75.5 31.3 99 101 101
98.5 -71.2 29.5 99 101 101
79.0 -55.9 23.2 96 96 96
76.4 -53.7 22.2 96 96 96
56.2 -36.3 15.0 177 177 177
55.7 -35.8 14.8 209 209 209
56.6 -36.1 14.9 180 183 182
57.9 -36.5 15.1 216 216 216
20.1 -94.7 39.6 164 164 164
20.3 -91.3 38.1 167 167 167
21.2 -91.3 38.1 166 166 166
24.8 -91.6 38.3 168 170 169
25.8 -91.8 38.4 168 170 169
26.6 -91.8 38.4 169 171 170
27.5 -91.6 38.3 167 167 167
28.4 -91.8 38.4 167 167 167
29.1 -91.3 38.1 167 167 167
30.1 -91.4 38.2 167 167 167
31.1 -91.8 38.4 167 167 167
31.9 -91.6 38.3 167 167 167
32.7 -91.3 38.1 164 164 164
33.6 -91.4 38.2 164 164 164
34.5 -91.4 38.2 165 165 165
35.3 -91.3 38.1 165 165 165
36.5 -92.0 38.4 165 165 165
37.3 -91.6 38.3 165 165 165
38.1 -91.4 38.2 165 165 165
39.0 -91.6 38.3 165 165 165
39.9 -91.4 38.2 168 168 168
40.8 -91.6 38.3 168 168 168
43.5 -91.6 38.3 169 169 169
44.5 -91.8 38.4 169 169 169
45.1 -91.3 38.1 169 169 169
46.0 -91.3 38.1 169 169 169
47.3 -92.0 38.4 169 169 169
50.7 -96.9 40.5 170 171 170
48.8 -91.6 38.3 170 171 170
49.5 -91.3 38.1 170 171 170
50.9 -92.2 38.5 170 171 170
52.6 -93.5 39.1 170 171 170
53.8 -94.1 39.3 170 171 170
56.5 -97.1 40.6 170 171 170
56.4 -93.9 39.2 170 171 170
85.4 -133.5 55.8 172 172 172
59.5 -91.6 38.3 172 172 172
111.7 -167.0 69.8 169 169 169
107.8 -158.8 66.4 173 173 173
102.5 -148.9 62.2 170 171 170
128.4 -94.5 39.5 105 104 102
118.2 -86.4 36.1 105 104 102
109.2 -79.3 33.1 105 104 102
93.9 -67.2 28.1 99 101 101
71.7 -49.9 20.9 96 96 96
70.2 -48.5 20.3 93 93 93
53.2 -33.8 14.1 205 205 205
53.2 -33.6 14.0 212 213 212
52.7 -33.1 13.8 219 219 219
53.3 -33.3 13.9 219 219 219
18.5 -82.5 34.8 167 167 167
19.2 -82.1 34.6 168 170 169
20.0 -82.1 34.6 168 170 169
20.8 -81.9 34.6 168 170 169
21.6 -81.8 34.5 168 170 169
22.4 -81.9 34.6 168 170 169
23.2 -81.9 34.6 168 170 169
24.0 -81.9 34.6 169 171 170
24.8 -81.8 34.5 167 167 167
25.7 -82.1 34.6 167 167 167
26.6 -82.4 34.8 167 167 167
27.3 -82.1 34.6 167 167 167
28.0 -81.8 34.5 167 167 167
28.9 -82.1 34.6 167 167 167
29.6 -81.9 34.6 167 167 167
30.3 -81.6 34.5 168 168 168
31.3 -82.1 34.6 168 168 168
32.1 -82.1 34.6 168 168 168
32.8 -81.8 34.5 168 168 168
33.7 -81.9 34.6 170 172 172
34.4 -81.8 34.5 168 168 168
35.5 -82.5 34.8 170 172 172
36.1 -81.9 34.6 170 172 172
36.7 -81.6 34.5 171 173 173
37.6 -81.8 34.5 169 169 169
38.6 -82.1 34.6 171 173 173
39.3 -81.9 34.6 171 173 173
40.0 -81.8 34.5 173 175 175
41.0 -82.1 34.6 171 173 173
41.6 -81.8 34.5 174 176 176
42.3 -81.5 34.4 171 173 173
43.4 -82.1 34.6 171 173 173
44.4 -82.4 34.8 174 176 176
44.8 -81.8 34.5 174 176 176
45.4 -81.3 34.3 174 176 176
46.8 -82.4 34.8 172 174 174
47.8 -82.7 34.9 172 174 174
48.5 -82.5 34.8 174 176 176
49.1 -82.2 34.7 172 174 174
50.0 -82.4 34.8 170 171 170
50.7 -82.2 34.7 173 175 175
53.9 -82.1 34.6 173 175 175
54.9 -82.4 34.8 174 176 176
55.2 -81.6 34.5 173 173 173
29.0 -40.1 16.9 174 174 174
84.3 -59.3 25.0 99 101 101
79.7 -55.7 23.5 96 99 98
67.1 -45.9 19.4 93 93 93
50.1 -31.1 13.1 219 219 219
51.1 -31.6 13.3 219 219 219
20.1 -78.3 33.4 168 170 169
23.2 -78.6 33.5 166 166 166
23.9 -78.3 33.4 167 167 167
24.6 -78.0 33.2 169 171 170
25.6 -78.6 33.5 169 171 170
28.8 -79.0 33.7 169 171 170
29.2 -77.9 33.2 169 171 170
31.5 -77.9 33.2 170 172 172
32.2 -77.7 33.1 170 172 172
37.8 -78.0 33.2 171 173 173
38.3 -77.5 33.0 173 175 175
42.9 -79.0 33.7 181 181 181
42.9 -77.6 33.1 174 176 176
43.4 -77.1 32.8 174 176 176
45.6 -79.5 33.9 174 176 176
46.2 -79.3 33.8 179 179 179
46.8 -79.0 33.7 179 179 179
47.3 -78.4 33.4 175 177 177
48.3 -78.8 33.6 175 177 177
48.9 -78.6 33.5 180 180 180
49.3 -77.9 33.2 173 175 175
51.1 -78.3 33.4 173 175 175
52.5 -79.3 33.8 180 180 180
53.2 -79.1 33.7 181 181 181
53.9 -79.0 33.7 174 176 176
54.2 -78.3 33.4 174 176 176
28.0 -37.8 16.1 176 179 178
45.6 -28.6 12.2 209 209 209
45.6 -28.4 12.1 216 216 216
47.1 -28.8 12.3 219 219 219
47.6 -79.5 34.2 197 197 197
48.1 -78.9 34.0 197 197 197
48.9 -79.0 34.0 194 194 194
49.5 -78.8 33.9 197 197 197
52.8 -78.9 34.0 197 197 197
54.2 -79.8 34.3 202 202 202
54.7 -79.3 34.1 198 198 198
55.0 -78.6 33.8 198 198 198
56.0 -79.0 34.0 199 199 199
27.7 -37.5 16.2 200 200 200
27.7 -37.0 15.9 197 197 197
27.7 -36.5 15.7 200 200 200
123.6 -90.2 38.8 109 109 109
40.6 -25.1 10.8 194 194 194
41.5 -25.2 10.8 219 219 219
48.5 -80.1 34.8 200 200 200
48.8 -79.4 34.5 204 204 204
49.6 -79.4 34.5 204 204 204
50.3 -79.1 34.4 204 204 204
181.0 -271.9 118.2 204 204 204
53.6 -79.2 34.5 204 204 204
55.2 -80.4 35.0 205 205 205
55.7 -80.0 34.8 205 205 205
55.9 -79.1 34.4 205 205 205
173.1 -241.7 105.1 205 205 205
27.6 -36.9 16.1 204 204 204
27.6 -36.5 15.9 204 204 204
27.5 -35.8 15.6 204 204 204
118.7 -85.8 37.3 111 113 112
39.7 -24.3 10.6 183 186 185
40.3 -24.2 10.5 219 219 219
49.4 -80.8 35.5 204 204 204
49.0 -78.9 34.6 204 204 204
49.8 -78.9 34.6 204 204 204
50.3 -78.3 34.4 204 204 204
53.6 -78.4 34.5 204 204 204
55.8 -80.5 35.4 205 205 205
55.9 -79.5 34.9 205 205 205
56.2 -78.7 34.6 205 205 205
57.3 -79.2 34.8 205 205 205
163.7 -223.1 98.0 206 206 206
27.5 -36.9 16.2 206 206 206
27.8 -36.8 16.2 206 206 206
27.7 -36.2 15.9 207 207 207
27.5 -35.4 15.6 207 207 207
115.3 -82.5 36.2 112 114 113
38.2 -23.1 10.2 197 200 199
38.8 -23.1 10.1 219 219 219
30.9 -50.9 22.6 204 204 204
49.5 -80.1 35.6 204 204 204
48.1 -76.5 34.0 204 204 204
47.7 -74.8 33.2 204 204 204
48.0 -74.0 32.8 204 204 204
53.9 -78.1 34.6 204 204 204
56.2 -80.3 35.6 205 205 205
56.0 -78.8 35.0 205 205 205
55.3 -76.7 34.0 205 205 205
57.3 -78.4 34.8 205 205 205
156.4 -211.0 93.6 206 206 206
27.8 -37.0 16.4 206 206 206
27.9 -36.6 16.3 206 206 206
27.9 -36.1 16.0 207 207 207
27.5 -35.1 15.6 207 207 207
27.3 -34.4 15.3 207 207 207
49.2 -78.9 35.4 207 207 207
47.1 -73.0 32.7 207 207 207
44.9 -67.5 30.3 207 207 207
44.7 -66.1 29.6 207 207 207
56.5 -79.9 35.8 207 207 207
55.5 -76.1 34.1 208 208 208
156.4 -208.8 93.6 205 205 205
151.9 -199.9 89.7 206 206 206
28.0 -36.4 16.3 206 206 206
27.9 -35.8 16.1 206 206 206
27.5 -34.8 15.6 207 207 207
27.1 -33.8 15.2 207 207 207
43.9 -66.3 30.0 206 206 206
44.2 -65.7 29.8 206 206 206
44.6 -65.2 29.6 206 206 206
45.1 -65.0 29.5 206 206 206
52.5 -74.5 33.8 206 206 206
56.4 -78.9 35.8 206 206 206
56.4 -77.7 35.2 207 207 207
54.4 -73.9 33.5 207 207 207
56.0 -75.1 34.0 207 207 207
27.9 -35.4 16.1 206 206 206
27.5 -34.5 15.6 206 206 206
27.1 -33.5 15.2 206 206 206
44.0 -65.8 30.1 205 205 205
44.2 -65.0 29.8 205 205 205
44.6 -64.6 29.6 205 205 205
45.3 -64.5 29.6 205 205 205
51.2 -72.0 33.0 206 206 206
53.5 -72.0 33.0 206 206 206
28.0 -35.2 16.1 205 205 205
27.7 -34.3 15.7 205 205 205
27.2 -33.3 15.2 206 206 206
24.2 -27.5 12.6 205 205 205
24.5 -27.4 12.5 207 207 207
-21.1 -22.8 10.6 94 94 94
-15.4 -22.4 10.3 123 123 123
-14.8 -22.2 10.3 118 120 119
43.9 -64.9 30.0 208 208 208
44.2 -64.4 29.8 208 208 208
44.6 -63.9 29.6 205 205 205
45.2 -63.8 29.5 205 205 205
52.0 -72.3 33.5 205 205 205
56.9 -74.6 34.5 206 206 206
62.0 -80.1 37.1 206 206 206
62.0 -79.0 36.6 206 206 206
28.0 -34.8 16.1 204 204 204
27.7 -34.0 15.7 205 205 205
27.3 -33.0 15.3 205 205 205
24.9 -27.9 12.9 207 207 207
24.8 -27.5 12.7 207 207 207
-30.4 -23.0 10.8 46 46 44
-29.8 -23.2 10.9 46 46 44
-29.6 -23.2 10.9 46 46 44
-29.3 -23.2 10.9 48 48 48
-29.1 -23.2 10.9 47 48 47
-28.8 -23.2 10.9 47 48 47
-28.6 -23.2 10.9 46 46 44
-28.3 -23.2 10.9 50 50 50
-28.0 -23.2 10.9 47 48 47
-27.1 -23.1 10.8 47 48 47
-26.5 -23.2 10.9 42 43 42
-26.0 -23.2 10.9 40 40 40
-25.8 -23.2 10.9 40 40 40
-23.0 -23.2 10.9 42 43 42
-22.7 -23.2 10.8 46 45 43
-22.3 -23.3 10.9 52 53 51
-21.9 -23.1 10.8 60 62 60
-21.6 -23.1 10.8 79 81 80
-21.5 -23.2 10.8 85 87 87
-21.2 -23.2 10.9 93 93 93
-10.2 -23.3 10.9 132 135 134
-9.8 -23.0 10.7 135 135 135
-9.6 -23.1 10.8 136 136 136
-9.4 -23.2 10.9 136 138 137
-9.1 -23.2 10.9 138 138 138
34.7 -55.2 25.8 207 207 207
43.8 -65.1 30.5 207 207 207
44.5 -64.1 30.0 207 207 207
44.8 -63.5 29.7 204 204 204
45.3 -63.3 29.6 204 204 204
41.1 -55.7 26.1 205 205 205
55.9 -72.6 34.0 205 205 205
62.3 -79.7 37.3 206 206 206
62.7 -79.1 37.0 206 206 206
27.8 -33.7 15.8 207 207 207
27.7 -33.1 15.5 204 204 204
24.9 -27.6 12.9 206 206 206
25.0 -27.4 12.8 206 206 206
-31.0 -23.3 11.0 47 46 45
-30.8 -23.3 11.0 48 48 48
-30.6 -23.3 11.0 48 48 48
-30.3 -23.3 11.0 48 48 48
-30.1 -23.3 11.0 48 48 48
-29.8 -23.3 11.0 48 48 48
-28.3 -23.4 11.1 48 48 48
-28.0 -23.4 11.1 46 46 44
-27.8 -23.3 11.0 46 46 44
-27.0 -23.3 11.0 43 43 43
-26.7 -23.3 11.0 43 43 43
-26.5 -23.3 11.0 43 43 43
-26.2 -23.3 11.0 43 43 43
-23.6 -23.3 11.0 38 38 38
-23.3 -23.3 11.0 41 41 41
-22.9 -23.4 11.1 42 42 42
-22.6 -23.3 11.0 43 43 43
-22.3 -23.3 11.0 46 46 44
-22.1 -23.4 11.1 47 48 47
-21.9 -23.4 11.0 46 46 44
-10.5 -23.3 11.0 130 130 130
-10.3 -23.3 11.0 131 131 131
-9.9 -23.1 10.9 131 134 133
-9.7 -23.2 11.0 136 136 136
-9.5 -23.3 11.0 136 138 137
-9.2 -23.2 11.0 138 137 136
34.1 -54.6 25.8 207 207 207
37.1 -55.5 26.2 207 207 207
37.2 -54.6 25.8 207 207 207
38.3 -55.4 26.2 207 207 207
40.9 -55.6 26.3 204 204 204
40.9 -54.8 25.9 207 207 207
41.1 -54.3 25.7 204 204 204
61.1 -75.2 35.6 205 205 205
24.8 -27.2 12.9 205 205 205
24.9 -27.0 12.8 205 205 205
-10.7 -23.3 11.2 121 120 119
-10.4 -23.3 11.1 127 127 127
-10.0 -22.9 11.0 121 123 122
-9.8 -23.0 11.0 126 126 126
-9.5 -23.0 11.0 128 130 129
-9.2 -23.0 11.0 132 132 132
7.4 -23.2 11.1 207 207 207
34.2 -54.0 25.8 206 206 206
34.7 -54.0 25.8 206 206 206
37.0 -54.7 26.2 206 206 206
37.1 -54.0 25.8 206 206 206
38.2 -54.6 26.1 206 206 206
38.9 -54.8 26.2 206 206 206
40.8 -54.9 26.3 206 206 206
40.9 -54.2 25.9 206 206 206
41.1 -53.7 25.7 207 207 207
41.7 -53.7 25.7 207 207 207
61.5 -74.9 35.8 205 205 205
24.8 -26.9 12.9 204 204 204
-9.7 -23.2 11.2 101 101 101
-11.6 -28.5 13.8 112 112 112
-7.4 -28.5 13.8 189 189 189
-7.1 -28.5 13.8 193 193 193
-6.8 -28.5 13.8 190 190 190
-6.5 -28.7 13.9 192 192 192
-6.2 -28.7 13.9 193 193 193
-5.8 -28.5 13.8 193 193 193
-5.5 -28.5 13.8 194 194 194
-5.2 -28.5 13.8 193 193 193
-4.9 -28.5 13.8 192 192 192
-4.5 -28.5 13.8 191 191 191
-4.2 -28.5 13.8 191 191 191
-3.9 -28.5 13.8 191 191 191
-3.6 -28.5 13.8 189 189 189
-3.2 -28.5 13.8 189 189 189
-2.9 -28.5 13.8 189 189 189
-2.6 -28.5 13.8 189 189 189
5.4 -28.5 13.8 178 178 178
5.7 -28.5 13.8 177 177 177
7.4 -28.6 13.8 206 206 206
7.7 -28.5 13.8 206 206 206
8.0 -28.6 13.8 206 206 206
8.3 -28.5 13.8 209 209 209
8.6 -28.5 13.8 209 209 209
8.9 -28.5 13.8 209 209 209
9.3 -28.5 13.8 206 206 206
9.6 -28.5 13.8 206 206 206
9.9 -28.5 13.8 206 206 206
10.2 -28.5 13.8 206 206 206
10.5 -28.4 13.7 206 206 206
11.6 -28.7 13.9 206 206 206
11.8 -28.5 13.8 206 206 206
12.2 -28.5 13.8 206 206 206
12.5 -28.5 13.8 209 209 209
12.8 -28.6 13.8 206 206 206
13.1 -28.6 13.8 206 206 206
13.4 -28.5 13.8 206 206 206
14.1 -28.6 13.8 206 206 206
14.4 -28.5 13.8 206 206 206
14.7 -28.5 13.8 206 206 206
15.0 -28.5 13.8 206 206 206
15.4 -28.5 13.8 206 206 206
15.7 -28.5 13.8 206 206 206
17.0 -28.6 13.8 206 206 206
34.2 -54.4 26.3 206 206 206
34.7 -54.3 26.3 206 206 206
35.3 -54.3 26.3 206 206 206
37.4 -54.7 26.5 206 206 206
37.6 -54.1 26.2 206 206 206
39.0 -55.2 26.7 206 206 206
39.9 -55.6 26.9 206 206 206
41.3 -54.1 26.2 206 206 206
41.7 -53.8 26.0 206 206 206
42.0 -53.4 25.8 209 209 209
56.9 -71.4 34.5 206 206 206
58.6 -72.6 35.1 207 207 207
24.8 -26.6 12.9 204 204 204
25.0 -26.5 12.8 204 204 204
-10.4 -23.5 11.5 44 44 44
-10.1 -23.3 11.4 10 15 11
-9.8 -23.3 11.4 20 23 21
-3.8 -23.4 11.5 196 196 196
-3.5 -23.5 11.5 193 193 193
-3.0 -23.5 11.5 195 195 195
-2.7 -23.4 11.5 193 193 193
-2.4 -23.4 11.5 193 193 193
-2.2 -23.4 11.5 193 193 193
-1.9 -23.4 11.5 193 193 193
-1.6 -23.4 11.5 195 195 195
-1.4 -23.4 11.5 193 193 193
-1.1 -23.4 11.5 193 193 193
-0.8 -23.4 11.5 190 190 190
-0.6 -23.4 11.5 190 190 190
-0.3 -23.4 11.5 190 190 190
-0.0 -23.4 11.5 186 186 186
0.2 -23.4 11.4 186 186 186
0.5 -23.4 11.5 183 183 183
0.8 -23.4 11.5 186 186 186
1.0 -23.5 11.5 186 186 186
2.4 -23.4 11.5 183 183 183
2.6 -23.5 11.5 183 183 183
2.9 -23.4 11.5 183 183 183
3.2 -23.4 11.5 183 183 183
3.4 -23.5 11.5 183 183 183
4.0 -23.4 11.5 180 180 180
4.5 -23.5 11.5 177 177 177
5.3 -23.5 11.5 203 203 203
6.4 -23.5 11.5 209 209 209
6.6 -23.4 11.5 206 206 206
8.0 -23.4 11.5 206 206 206
8.2 -23.4 11.5 206 206 206
8.5 -23.4 11.5 206 206 206
8.8 -23.4 11.5 206 206 206
9.6 -23.4 11.5 206 206 206
10.9 -23.5 11.5 205 205 205
11.2 -23.5 11.5 205 205 205
11.4 -23.4 11.5 205 205 205
11.7 -23.4 11.5 205 205 205
12.2 -23.5 11.5 205 205 205
12.5 -23.4 11.5 205 205 205
13.0 -23.5 11.5 205 205 205
13.3 -23.4 11.4 205 205 205
13.5 -23.4 11.5 208 208 208
14.1 -23.4 11.5 205 205 205
38.9 -56.2 27.5 205 205 205
40.5 -56.7 27.7 205 205 205
41.4 -56.9 27.9 205 205 205
42.4 -57.5 28.1 205 205 205
43.2 -57.6 28.2 205 205 205
42.6 -56.0 27.4 205 205 205
41.5 -53.8 26.3 205 205 205
43.5 -54.7 26.8 206 206 206
57.0 -70.7 34.6 206 206 206
58.7 -71.9 35.2 206 206 206
28.0 -32.0 15.7 202 202 202
25.0 -26.6 13.0 206 206 206
25.5 -26.8 13.1 203 203 203
26.0 -26.9 13.2 204 204 204
-44.3 -31.8 15.8 53 53 53
-43.0 -31.9 15.8 55 55 55
-42.6 -31.9 15.8 55 55 55
-42.2 -31.9 15.8 56 56 56
-41.9 -31.9 15.8 58 59 57
-41.5 -31.9 15.8 58 59 57
-41.1 -31.9 15.8 56 56 56
-40.8 -31.9 15.8 53 53 53
-40.4 -31.9 15.8 56 56 56
-40.0 -31.9 15.8 56 56 56
-39.6 -31.8 15.8 53 53 53
-39.2 -31.8 15.8 52 52 52
-38.9 -31.8 15.8 52 52 52
-38.5 -31.8 15.8 50 49 48
-38.2 -31.9 15.8 50 49 48
-37.8 -31.9 15.8 47 47 47
-37.5 -31.9 15.8 47 47 47
-37.1 -31.9 15.8 47 47 47
-36.7 -31.9 15.8 47 47 47
-35.3 -31.9 15.8 47 47 47
-34.8 -31.8 15.8 47 47 47
-34.5 -31.9 15.8 44 44 44
-34.2 -31.9 15.8 45 45 45
-33.7 -31.8 15.8 45 45 45
-33.4 -31.9 15.8 45 45 45
-33.0 -31.9 15.8 45 45 45
-32.7 -31.9 15.8 45 45 45
-31.2 -31.9 15.8 41 41 41
-30.8 -31.9 15.8 41 41 41
-16.5 -31.7 15.7 20 23 21
-16.2 -31.8 15.8 19 23 20
-15.8 -31.9 15.8 26 26 26
-15.1 -31.9 15.8 29 30 28
-13.2 -31.9 15.8 33 33 33
-8.8 -31.9 15.8 210 210 210
-8.5 -31.9 15.8 210 210 210
-8.1 -31.9 15.8 209 209 209
-7.7 -31.8 15.8 207 207 207
-7.4 -31.8 15.8 204 204 204
-7.0 -31.9 15.8 204 204 204
-6.6 -31.9 15.8 203 203 203
-6.3 -31.8 15.8 203 203 203
-5.9 -31.8 15.8 202 202 202
-5.5 -31.8 15.8 200 200 200
-5.2 -31.8 15.8 200 200 200
-4.8 -31.8 15.8 197 197 197
-4.4 -31.8 15.8 197 197 197
-4.1 -31.8 15.8 200 200 200
-3.7 -31.9 15.8 197 197 197
1.1 -31.9 15.8 189 189 189
1.4 -31.8 15.8 189 189 189
3.6 -31.9 15.8 182 182 182
4.0 -31.9 15.8 182 182 182
4.4 -31.9 15.8 182 182 182
4.7 -31.9 15.8 182 182 182
5.1 -31.9 15.8 182 182 182
5.4 -31.8 15.8 182 182 182
5.8 -31.8 15.7 179 179 179
6.2 -31.9 15.8 179 179 179
6.5 -31.8 15.8 176 176 176
7.3 -31.9 15.8 203 203 203
7.6 -31.8 15.8 205 205 205
8.0 -31.8 15.7 205 205 205
8.4 -31.8 15.8 208 208 208
8.7 -31.8 15.7 208 208 208
9.1 -31.8 15.8 208 208 208
9.5 -31.8 15.8 208 208 208
9.8 -31.9 15.8 208 208 208
10.2 -31.9 15.8 208 208 208
10.6 -31.8 15.8 208 208 208
10.9 -31.9 15.8 208 208 208
11.3 -31.9 15.8 208 208 208
11.7 -31.9 15.8 205 205 205
12.1 -31.9 15.8 205 205 205
12.4 -31.8 15.8 205 205 205
12.8 -31.8 15.8 208 208 208
13.1 -31.8 15.8 208 208 208
13.5 -31.9 15.8 208 208 208
13.9 -31.9 15.8 205 205 205
14.2 -31.9 15.8 205 205 205
14.6 -31.8 15.8 205 205 205
15.0 -31.8 15.8 205 205 205
15.3 -31.8 15.7 205 205 205
15.7 -31.8 15.7 205 205 205
16.1 -31.8 15.8 205 205 205
16.4 -31.9 15.8 205 205 205
16.8 -31.8 15.8 205 205 205
17.2 -31.9 15.8 205 205 205
17.5 -31.9 15.8 205 205 205
17.9 -31.9 15.8 205 205 205
18.3 -31.9 15.8 207 207 207
18.6 -31.8 15.7 207 207 207
19.0 -31.8 15.7 205 205 205
19.4 -31.8 15.8 205 205 205
19.7 -31.9 15.8 205 205 205
20.1 -31.9 15.8 207 207 207
20.5 -31.8 15.8 207 207 207
20.8 -31.8 15.8 207 207 207
21.2 -31.9 15.8 207 207 207
21.6 -31.8 15.8 207 207 207
21.9 -31.9 15.8 207 207 207
22.3 -31.9 15.8 207 207 207
22.7 -31.9 15.8 207 207 207
23.0 -31.9 15.8 207 207 207
23.4 -31.9 15.8 207 207 207
43.0 -56.8 28.1 204 204 204
42.6 -55.3 27.4 205 205 205
27.8 -31.9 15.8 208 208 208
28.0 -31.7 15.7 206 206 206
28.5 -31.8 15.7 207 207 207
28.7 -31.7 15.7 204 204 204
29.2 -31.8 15.7 204 204 204
25.8 -26.7 13.2 203 203 203
26.1 -26.8 13.2 203 203 203
26.5 -26.8 13.3 203 203 203
26.8 -26.8 13.3 203 203 203
-44.4 -31.5 15.8 53 53 53
-44.1 -31.5 15.8 56 56 56
-43.0 -31.5 15.8 59 60 58
-42.6 -31.5 15.8 61 61 61
-42.3 -31.5 15.8 56 56 56
-41.9 -31.5 15.8 56 56 56
-41.5 -31.5 15.8 56 56 56
-41.2 -31.5 15.8 59 60 58
-40.8 -31.5 15.8 56 56 56
-40.4 -31.5 15.8 56 56 56
-40.1 -31.5 15.8 56 56 56
-39.7 -31.5 15.8 54 54 54
-39.3 -31.5 15.8 53 52 52
-38.9 -31.5 15.8 53 52 52
-38.6 -31.5 15.8 53 52 52
-38.2 -31.5 15.8 51 50 48
-37.8 -31.5 15.8 47 47 47
-37.5 -31.5 15.8 47 48 47
-37.1 -31.5 15.8 47 48 47
-36.7 -31.5 15.8 47 48 47
-36.4 -31.5 15.8 47 48 47
-35.3 -31.5 15.8 47 48 47
-34.9 -31.5 15.8 47 48 47
-34.5 -31.5 15.8 47 48 47
-34.2 -31.5 15.8 46 46 46
-33.8 -31.5 15.8 46 46 46
-33.4 -31.5 15.8 46 46 46
-33.1 -31.5 15.8 46 46 46
-32.7 -31.5 15.8 46 46 46
-32.0 -31.5 15.8 43 43 43
-30.8 -31.5 15.8 42 43 42
-30.5 -31.5 15.8 42 43 42
-16.5 -31.4 15.7 25 25 25
-16.2 -31.5 15.8 25 25 25
-15.8 -31.5 15.8 27 27 27
-15.5 -31.5 15.8 29 31 29
-15.1 -31.6 15.8 28 28 28
-14.7 -31.5 15.8 27 27 27
-10.0 -23.7 11.9 34 34 34
-12.9 -31.5 15.8 33 33 33
-7.8 -31.5 15.8 211 211 211
-6.3 -31.5 15.8 206 206 206
-5.9 -31.5 15.8 205 205 205
-5.6 -31.5 15.8 205 205 205
-5.2 -31.5 15.8 204 204 204
-4.8 -31.5 15.8 202 202 202
-4.5 -31.5 15.8 202 202 202
5.5 -31.5 15.8 181 181 181
7.6 -31.5 15.8 205 205 205
8.0 -31.5 15.8 208 208 208
8.4 -31.5 15.8 208 208 208
8.8 -31.5 15.8 208 208 208
9.5 -31.5 15.8 208 208 208
9.9 -31.5 15.8 208 208 208
10.2 -31.5 15.8 208 208 208
10.6 -31.5 15.8 208 208 208
12.4 -31.5 15.8 207 207 207
12.8 -31.5 15.8 207 207 207
13.2 -31.5 15.8 207 207 207
13.5 -31.5 15.8 207 207 207
13.9 -31.6 15.8 207 207 207
14.3 -31.5 15.8 204 204 204
14.6 -31.5 15.8 204 204 204
15.0 -31.5 15.8 204 204 204
15.3 -31.5 15.8 204 204 204
15.7 -31.5 15.8 204 204 204
16.1 -31.5 15.8 204 204 204
16.5 -31.5 15.8 204 204 204
16.8 -31.5 15.8 204 204 204
18.3 -31.5 15.8 207 207 207
18.7 -31.5 15.8 207 207 207
19.0 -31.5 15.8 207 207 207
19.4 -31.5 15.8 207 207 207
20.2 -31.6 15.8 207 207 207
20.5 -31.5 15.8 207 207 207
22.4 -31.6 15.8 206 206 206
22.7 -31.6 15.8 206 206 206
23.1 -31.5 15.8 206 206 206
42.4 -56.2 28.1 204 204 204
43.0 -56.1 28.1 206 206 206
42.9 -55.2 27.6 206 206 206
41.4 -52.5 26.3 204 204 204
43.7 -53.8 26.9 204 204 204
43.5 -52.7 26.4 205 205 205
27.9 -31.6 15.8 206 206 206
28.1 -31.4 15.7 206 206 206
29.3 -31.5 15.8 206 206 206
26.2 -26.6 13.3 205 205 205
26.6 -26.6 13.3 205 205 205
26.9 -26.6 13.3 203 203 203
27.1 -26.5 13.3 203 203 203
603.5 -353.2 176.8 176 176 176
537.3 -312.3 156.3 176 176 176
-34.3 -24.1 12.2 54 54 54
-28.1 -24.1 12.2 51 51 49
-26.4 -24.1 12.2 48 48 48
-26.1 -24.1 12.2 48 48 48
-25.8 -24.1 12.2 47 47 47
-25.3 -24.1 12.2 47 47 47
-25.0 -24.1 12.2 47 48 47
-20.9 -24.0 12.2 41 41 39
-16.6 -31.2 15.8 25 25 25
-16.3 -31.4 15.9 27 27 27
-10.0 -23.6 11.9 35 37 36
-9.4 -24.1 12.2 178 181 180
-9.2 -24.2 12.3 186 188 187
-8.8 -24.1 12.2 187 189 189
-5.1 -24.1 12.2 212 214 214
-4.9 -24.1 12.2 208 208 208
-4.6 -24.1 12.2 210 210 210
-4.3 -24.1 12.2 207 207 207
-4.0 -24.1 12.2 207 207 207
-3.7 -24.1 12.2 207 207 207
-3.4 -24.1 12.2 205 205 205
-3.2 -24.1 12.2 203 203 203
-2.9 -24.1 12.2 203 203 203
-2.6 -24.1 12.2 200 200 200
-2.3 -24.1 12.2 197 197 197
-2.0 -24.1 12.2 197 197 197
-1.7 -24.1 12.2 197 197 197
-1.5 -24.1 12.2 197 197 197
1.1 -24.1 12.2 195 195 195
1.4 -24.2 12.2 192 192 192
1.7 -24.1 12.2 192 192 192
2.0 -24.1 12.2 192 192 192
2.2 -24.1 12.2 189 189 189
2.5 -24.1 12.2 189 189 189
3.4 -24.1 12.2 186 186 186
3.6 -24.0 12.2 183 183 183
3.9 -23.9 12.1 183 183 183
4.5 -24.1 12.2 180 180 180
4.8 -24.1 12.2 180 180 180
5.1 -24.1 12.2 180 180 180
5.3 -24.1 12.2 177 177 177
5.6 -24.0 12.2 202 202 202
6.2 -24.2 12.2 207 207 207
6.8 -24.2 12.3 207 207 207
7.0 -24.0 12.2 207 207 207
7.3 -24.1 12.2 207 207 207
7.6 -24.1 12.2 207 207 207
7.9 -24.1 12.2 207 207 207
8.2 -24.1 12.2 207 207 207
8.5 -24.1 12.2 207 207 207
8.8 -24.1 12.2 207 207 207
9.0 -24.1 12.2 207 207 207
9.3 -24.1 12.2 207 207 207
9.6 -24.1 12.2 207 207 207
9.9 -24.1 12.2 207 207 207
10.2 -24.0 12.2 207 207 207
10.4 -24.0 12.2 207 207 207
10.7 -24.1 12.2 208 208 208
11.0 -24.0 12.2 207 207 207
11.3 -24.0 12.2 207 207 207
11.6 -24.0 12.2 204 204 204
11.9 -24.1 12.2 204 204 204
12.2 -24.1 12.2 204 204 204
12.4 -24.1 12.2 204 204 204
12.7 -24.1 12.2 204 204 204
13.0 -24.1 12.2 204 204 204
13.3 -24.1 12.2 204 204 204
13.5 -24.0 12.1 206 206 206
13.7 -23.9 12.1 206 206 206
14.1 -24.1 12.2 206 206 206
14.4 -24.1 12.2 206 206 206
14.7 -24.0 12.2 206 206 206
15.0 -24.1 12.2 206 206 206
15.6 -24.2 12.2 206 206 206
15.9 -24.1 12.2 206 206 206
16.1 -24.1 12.2 206 206 206
16.4 -24.1 12.2 206 206 206
16.8 -24.2 12.3 206 206 206
17.0 -24.1 12.2 206 206 206
22.7 -31.1 15.8 206 206 206
42.4 -55.6 28.1 206 206 206
43.1 -55.6 28.1 206 206 206
42.6 -54.1 27.4 206 206 206
41.2 -51.5 26.1 206 206 206
43.4 -52.8 26.7 204 204 204
43.3 -51.9 26.3 204 204 204
43.3 -51.2 25.9 204 204 204
28.0 -30.9 15.7 205 205 205
29.1 -31.0 15.7 203 203 203
29.1 -30.6 15.5 203 203 203
26.2 -26.2 13.3 204 204 204
26.7 -26.4 13.4 204 204 204
26.9 -26.3 13.3 202 202 202
27.1 -26.2 13.3 202 202 202
-34.5 -23.9 12.3 55 55 55
-34.4 -24.0 12.3 58 58 58
-34.1 -24.0 12.3 55 55 55
-33.8 -24.0 12.3 59 61 59
-33.5 -24.0 12.3 58 58 58
-33.2 -24.0 12.3 58 58 58
-32.9 -24.0 12.3 58 58 58
-32.6 -24.0 12.3 58 58 58
-32.4 -24.0 12.3 58 58 58
-32.1 -24.0 12.3 58 58 58
-31.8 -24.0 12.3 58 58 58
-31.5 -24.0 12.3 58 58 58
-31.2 -24.0 12.3 60 62 60
-30.9 -24.0 12.3 58 58 58
-30.6 -24.0 12.3 60 62 60
-30.4 -24.0 12.3 53 53 53
-30.1 -24.0 12.3 54 54 54
-29.8 -24.0 12.3 52 52 50
-29.5 -24.0 12.3 48 48 48
-29.2 -24.0 12.3 48 48 48
-28.9 -24.0 12.3 48 48 48
-28.6 -24.0 12.3 49 49 49
-28.4 -24.0 12.3 52 52 50
-28.1 -24.0 12.3 54 54 54
-27.8 -24.0 12.3 49 49 49
-27.5 -24.0 12.3 49 49 49
-27.2 -24.0 12.3 49 49 49
-26.9 -24.0 12.3 49 49 49
-26.7 -24.0 12.3 49 49 49
-26.4 -24.0 12.3 49 49 49
-26.1 -24.0 12.3 47 48 47
-25.8 -24.0 12.3 47 48 47
-25.5 -24.0 12.3 48 48 48
-25.2 -24.0 12.3 48 48 48
-24.9 -24.0 12.3 48 48 48
-24.7 -24.0 12.3 46 46 46
-24.3 -24.0 12.3 46 46 46
-24.1 -24.0 12.3 49 49 49
-23.8 -24.0 12.3 46 46 46
-23.5 -24.0 12.3 47 47 47
-23.2 -24.0 12.3 45 45 45
-22.9 -24.0 12.3 41 41 39
-22.6 -24.0 12.3 41 41 39
-22.3 -24.0 12.3 41 41 39
-22.0 -24.0 12.3 39 39 39
-21.8 -24.0 12.3 40 40 40
-21.5 -24.0 12.3 40 40 40
-21.2 -24.0 12.3 40 40 40
-20.9 -24.0 12.3 40 40 40
-11.8 -24.1 12.3 30 31 30
-11.1 -23.8 12.2 32 31 30
-10.9 -24.0 12.3 29 31 29
-10.5 -23.8 12.2 32 32 32
-10.3 -23.8 12.2 36 36 36
-10.0 -24.0 12.3 44 44 44
-9.8 -24.0 12.3 160 160 160
-9.5 -24.0 12.3 184 184 184
-9.2 -24.1 12.3 186 188 187
-8.9 -24.0 12.3 186 188 187
-8.6 -24.1 12.3 227 230 229
-6.9 -24.1 12.3 224 224 224
-6.6 -24.0 12.3 224 224 224
-6.3 -24.0 12.3 221 221 221
-6.0 -24.0 12.3 221 221 221
-5.8 -24.0 12.3 219 219 219
-5.5 -24.0 12.3 217 217 217
-5.2 -24.0 12.3 213 215 215
-4.9 -24.0 12.3 213 215 215
-4.6 -24.0 12.3 212 214 214
-4.3 -24.0 12.3 209 212 211
-4.0 -24.0 12.3 209 212 211
-3.8 -24.0 12.3 209 212 211
-3.5 -24.0 12.3 208 208 208
-3.2 -24.0 12.3 208 208 208
-2.9 -24.0 12.3 206 206 206
-2.6 -24.0 12.3 206 206 206
-2.3 -24.0 12.3 204 204 204
-2.0 -24.0 12.3 204 204 204
-1.8 -24.0 12.3 204 204 204
-1.5 -24.0 12.3 202 202 202
-1.2 -24.0 12.3 199 199 199
-0.9 -24.0 12.3 199 199 199
-0.3 -24.0 12.3 199 199 199
-0.0 -24.0 12.3 199 199 199
0.2 -24.0 12.3 199 199 199
0.5 -24.0 12.3 199 199 199
0.8 -24.1 12.3 197 197 197
1.1 -24.0 12.3 197 197 197
1.4 -24.0 12.3 197 197 197
1.7 -24.0 12.3 194 194 194
2.0 -24.0 12.3 194 194 194
2.3 -24.0 12.3 194 194 194
2.5 -24.0 12.3 191 191 191
3.1 -24.2 12.4 189 189 189
3.4 -24.0 12.3 189 189 189
3.7 -24.0 12.3 185 185 185
4.0 -23.9 12.3 185 185 185
4.3 -24.0 12.3 182 182 182
4.5 -24.0 12.3 183 183 183
4.8 -24.0 12.3 180 180 180
5.1 -24.0 12.3 180 180 180
5.4 -24.0 12.3 177 177 177
5.6 -23.8 12.2 197 197 197
6.0 -24.0 12.3 206 206 206
6.3 -24.0 12.3 206 206 206
6.6 -24.1 12.3 207 207 207
6.8 -24.0 12.3 207 207 207
7.1 -24.0 12.3 207 207 207
7.4 -24.0 12.3 207 207 207
7.7 -24.0 12.3 207 207 207
8.0 -24.0 12.3 207 207 207
8.3 -24.0 12.3 207 207 207
8.6 -24.0 12.3 207 207 207
8.8 -24.0 12.3 207 207 207
9.1 -24.0 12.3 207 207 207
9.4 -24.0 12.3 206 206 206
9.7 -24.0 12.3 206 206 206
10.0 -24.0 12.3 206 206 206
10.2 -24.0 12.3 206 206 206
10.5 -24.0 12.3 206 206 206
10.8 -24.0 12.3 206 206 206
11.1 -24.0 12.3 206 206 206
11.4 -24.0 12.3 206 206 206
11.7 -24.0 12.3 206 206 206
12.0 -24.0 12.3 203 203 203
12.3 -24.0 12.3 203 203 203
12.6 -24.0 12.3 203 203 203
12.8 -24.0 12.3 206 206 206
13.1 -24.0 12.3 206 206 206
13.4 -24.1 12.3 206 206 206
13.7 -24.0 12.3 206 206 206
14.0 -24.0 12.3 206 206 206
14.3 -24.0 12.3 206 206 206
14.6 -24.0 12.3 206 206 206
14.8 -24.0 12.3 206 206 206
15.1 -24.0 12.3 206 206 206
15.4 -24.0 12.3 206 206 206
15.7 -24.0 12.3 206 206 206
16.0 -24.0 12.3 206 206 206
16.3 -24.0 12.3 206 206 206
16.6 -24.0 12.3 206 206 206
16.9 -24.1 12.3 205 205 205
17.1 -24.0 12.3 205 205 205
17.4 -24.0 12.3 205 205 205
17.8 -24.1 12.3 205 205 205
43.6 -55.6 28.5 205 205 205
42.5 -53.3 27.3 205 205 205
41.3 -51.0 26.2 206 206 206
43.7 -52.5 26.9 206 206 206
43.5 -51.5 26.4 206 206 206
43.6 -51.0 26.1 204 204 204
46.3 -53.3 27.3 204 204 204
46.6 -52.3 26.8 204 204 204
27.9 -30.4 15.6 205 205 205
26.8 -26.2 13.4 203 203 203
27.1 -26.2 13.4 204 204 204
-35.2 -24.1 12.5 55 55 55
-35.0 -24.2 12.5 58 58 58
-34.7 -24.2 12.5 58 58 58
-34.4 -24.2 12.5 60 62 60
-34.1 -24.2 12.5 60 62 60
-33.8 -24.2 12.5 60 62 60
-33.5 -24.2 12.5 60 62 60
-33.3 -24.2 12.5 60 62 60
-33.0 -24.2 12.5 58 59 59
-32.7 -24.2 12.5 60 62 60
-32.4 -24.2 12.5 60 62 60
-32.1 -24.2 12.5 60 62 60
-31.8 -24.2 12.5 61 63 61
-31.5 -24.2 12.5 58 59 59
-31.2 -24.2 12.5 58 59 59
-30.9 -24.2 12.5 57 57 57
-30.6 -24.2 12.5 54 54 54
-30.3 -24.2 12.5 53 52 51
-30.0 -24.2 12.5 53 52 51
-29.8 -24.2 12.5 53 52 51
-29.5 -24.2 12.5 49 49 49
-29.2 -24.2 12.5 49 49 49
-28.9 -24.2 12.5 50 50 50
-28.6 -24.2 12.5 53 52 51
-28.3 -24.2 12.5 50 50 50
-28.0 -24.2 12.5 50 50 50
-27.7 -24.2 12.5 50 50 50
-27.4 -24.2 12.5 50 50 50
-27.1 -24.2 12.5 50 50 50
-26.8 -24.2 12.5 50 50 50
-26.5 -24.1 12.5 51 51 51
-26.2 -24.2 12.5 51 51 51
-26.0 -24.2 12.5 51 51 51
-25.7 -24.2 12.5 49 49 49
-25.4 -24.2 12.6 49 49 49
-25.1 -24.2 12.5 49 49 49
-24.8 -24.2 12.5 47 47 47
-24.5 -24.2 12.5 47 47 47
-24.2 -24.2 12.5 45 45 45
-23.9 -24.2 12.5 46 46 46
-23.7 -24.2 12.5 43 43 43
-23.3 -24.2 12.5 43 43 43
-23.1 -24.2 12.5 43 43 43
-22.7 -24.2 12.5 43 42 41
-22.5 -24.2 12.6 43 42 41
-22.3 -24.2 12.6 43 42 41
-21.9 -24.2 12.5 43 42 41
-21.5 -24.1 12.5 41 41 41
-21.3 -24.1 12.5 41 41 41
-12.4 -24.4 12.7 29 29 29
-12.0 -24.2 12.5 29 29 29
-11.7 -24.2 12.5 30 31 30
-11.4 -24.2 12.5 30 31 30
-11.1 -24.1 12.5 29 31 29
-10.7 -24.0 12.4 32 31 30
-10.4 -23.9 12.4 34 34 34
-10.2 -24.2 12.5 41 41 41
-9.7 -24.2 12.6 185 185 185
-9.3 -24.1 12.5 184 187 186
-9.0 -24.1 12.5 184 187 186
-6.2 -24.2 12.5 223 225 225
-5.9 -24.2 12.5 222 222 222
-5.6 -24.2 12.5 220 220 220
-5.0 -24.2 12.6 219 219 219
-4.7 -24.2 12.5 217 217 217
-4.4 -24.2 12.5 215 215 215
-4.1 -24.2 12.5 210 213 212
-3.8 -24.2 12.5 210 213 212
-3.5 -24.2 12.5 210 213 212
-3.2 -24.2 12.5 210 213 212
-3.0 -24.2 12.5 210 213 212
-2.7 -24.2 12.5 208 211 210
-2.4 -24.2 12.5 207 207 207
-2.1 -24.2 12.5 207 207 207
-1.8 -24.2 12.5 205 205 205
-1.5 -24.1 12.5 204 204 204
1.1 -24.2 12.5 198 198 198
1.4 -24.1 12.5 196 196 196
1.7 -24.2 12.5 196 196 196
2.0 -24.2 12.5 196 196 196
2.3 -24.1 12.5 193 193 193
3.5 -24.2 12.6 191 191 191
3.7 -24.1 12.5 188 188 188
4.3 -24.2 12.5 184 184 184
5.2 -24.2 12.5 179 179 179
5.5 -24.1 12.5 179 179 179
6.7 -24.2 12.5 206 206 206
6.9 -24.0 12.5 206 206 206
7.3 -24.2 12.6 206 206 206
7.5 -24.2 12.5 206 206 206
7.8 -24.2 12.5 206 206 206
8.1 -24.2 12.5 206 206 206
8.4 -24.2 12.5 206 206 206
8.7 -24.2 12.6 206 206 206
9.0 -24.2 12.5 206 206 206
9.3 -24.2 12.5 206 206 206
9.6 -24.2 12.5 206 206 206
9.9 -24.2 12.6 206 206 206
10.2 -24.2 12.5 206 206 206
10.4 -24.1 12.5 206 206 206
11.0 -24.2 12.6 206 206 206
11.3 -24.1 12.5 206 206 206
11.6 -24.1 12.5 206 206 206
11.9 -24.2 12.5 206 206 206
12.2 -24.2 12.6 203 203 203
12.5 -24.2 12.6 203 203 203
12.8 -24.2 12.5 203 203 203
13.1 -24.2 12.6 206 206 206
13.4 -24.2 12.6 205 205 205
13.7 -24.2 12.5 205 205 205
13.9 -24.1 12.5 205 205 205
14.3 -24.2 12.6 205 205 205
14.6 -24.2 12.6 205 205 205
14.8 -24.2 12.5 205 205 205
15.1 -24.2 12.5 205 205 205
15.4 -24.2 12.5 205 205 205
15.7 -24.2 12.6 205 205 205
16.0 -24.2 12.6 205 205 205
16.3 -24.2 12.5 205 205 205
16.6 -24.2 12.5 205 205 205
16.9 -24.2 12.6 205 205 205
17.2 -24.2 12.6 205 205 205
17.3 -24.0 12.5 205 205 205
17.7 -24.1 12.5 205 205 205
18.0 -24.2 12.5 205 205 205
18.4 -24.2 12.6 205 205 205
18.6 -24.2 12.5 205 205 205
18.9 -24.2 12.6 205 205 205
42.7 -53.0 27.5 205 205 205
44.4 -52.0 26.9 205 205 205
44.6 -51.4 26.7 203 203 203
46.7 -53.2 27.6 203 203 203
47.1 -52.9 27.4 206 206 206
28.0 -30.2 15.7 204 204 204
28.4 -30.2 15.7 204 204 204
-35.2 -23.8 12.5 58 59 59
-34.9 -23.8 12.5 58 59 59
-34.6 -23.8 12.5 58 59 59
-34.3 -23.8 12.5 61 63 61
-34.0 -23.8 12.5 61 63 61
-33.7 -23.8 12.5 64 64 64
-33.4 -23.8 12.5 64 64 64
-33.2 -23.8 12.5 61 63 61
-32.9 -23.9 12.5 61 63 61
-32.6 -23.8 12.5 61 63 61
-32.3 -23.8 12.5 61 63 61
-32.0 -23.8 12.5 61 63 61
-31.7 -23.8 12.5 59 59 59
-31.4 -23.8 12.5 57 57 57
-31.1 -23.8 12.5 57 57 57
-30.8 -23.8 12.5 58 58 58
-30.6 -23.8 12.5 54 53 52
-30.3 -23.8 12.5 56 56 56
-30.0 -23.8 12.5 54 53 52
-29.7 -23.8 12.5 54 53 52
-29.4 -23.8 12.5 54 53 52
-29.1 -23.8 12.5 50 50 50
-28.8 -23.8 12.5 51 51 51
-28.5 -23.8 12.5 51 51 51
-28.3 -23.8 12.5 51 51 51
-28.0 -23.9 12.5 55 54 53
-27.6 -23.8 12.5 55 54 53
-27.3 -23.8 12.5 55 54 53
-27.0 -23.8 12.5 55 54 53
-26.7 -23.8 12.5 52 52 52
-26.4 -23.8 12.5 52 52 52
-26.2 -23.8 12.5 52 52 52
-25.9 -23.8 12.5 52 52 52
-25.4 -23.9 12.5 50 50 50
-25.1 -23.8 12.5 47 48 47
-24.7 -23.8 12.5 46 46 46
-22.3 -24.0 12.6 45 45 45
-21.9 -23.9 12.5 45 44 43
-21.4 -23.7 12.4 45 44 43
-12.4 -24.1 12.7 31 32 30
-11.9 -23.8 12.5 36 36 36
-11.1 -23.8 12.5 27 27 27
-10.7 -23.7 12.4 28 28 28
-10.4 -23.6 12.4 36 39 38
-10.2 -23.8 12.5 40 40 40
-9.3 -23.8 12.5 183 186 185
6.9 -23.7 12.5 203 203 203
13.7 -23.9 12.5 205 205 205
14.8 -23.8 12.5 205 205 205
17.2 -23.9 12.5 204 204 204
17.3 -23.7 12.4 204 204 204
17.7 -23.8 12.5 204 204 204
18.9 -23.9 12.6 204 204 204
43.6 -53.4 28.0 204 204 204
47.2 -53.8 28.2 205 205 205
47.6 -53.5 28.1 205 205 205
47.9 -53.1 27.9 205 205 205
28.6 -30.1 15.8 206 206 206
28.7 -29.8 15.6 204 204 204
23.1 -20.9 10.9 188 188 188
23.2 -20.7 10.9 188 188 188
536.9 -307.9 161.7 176 176 176
-35.7 -23.8 12.7 61 63 61
-35.5 -23.9 12.7 65 65 65
-35.2 -24.0 12.7 62 64 61
-35.0 -24.0 12.7 62 64 61
-34.7 -24.0 12.7 62 64 61
-34.3 -23.9 12.7 65 65 65
-33.2 -24.0 12.7 62 64 61
-32.9 -24.0 12.7 62 64 61
-32.6 -24.0 12.7 62 64 61
-32.3 -24.0 12.7 60 60 60
-32.0 -24.0 12.7 58 58 58
-31.7 -23.9 12.7 58 58 58
-31.4 -24.0 12.7 58 58 58
-31.1 -24.0 12.7 56 56 56
-29.9 -24.0 12.7 55 54 53
-29.6 -24.0 12.7 55 54 53
-29.3 -24.0 12.7 55 54 53
-29.0 -24.0 12.7 55 54 53
-28.7 -23.9 12.7 55 54 53
-28.4 -23.9 12.7 56 55 54
-28.1 -23.9 12.7 52 52 52
-27.2 -23.9 12.7 53 52 52
-25.4 -23.9 12.7 52 52 52
-25.2 -23.9 12.7 48 48 48
-22.6 -24.0 12.7 47 47 47
-22.2 -23.9 12.7 46 45 43
-12.5 -24.0 12.7 29 29 29
-12.2 -23.9 12.7 39 39 39
-11.2 -23.9 12.7 59 61 59
-11.0 -23.9 12.7 66 68 67
-9.8 -23.9 12.7 184 187 186
-9.5 -23.9 12.7 188 188 188
13.0 -21.0 11.2 204 204 204
55.1 -62.9 33.4 204 204 204
23.1 -20.6 11.0 186 186 186
23.3 -20.5 10.9 186 186 186
23.6 -20.6 10.9 186 186 186
490.8 -278.0 147.8 178 181 180
395.4 -222.4 118.2 178 181 180
-36.0 -23.8 12.8 65 65 65
-23.0 -24.2 13.0 46 46 44
-12.7 -24.1 12.9 87 87 85
-12.2 -23.8 12.8 50 50 50
-11.3 -23.7 12.8 29 29 29
-11.1 -24.6 13.2 27 27 27
-10.7 -24.3 13.1 49 49 49
-10.4 -24.3 13.1 184 184 184
55.0 -62.0 33.4 204 204 204
23.2 -20.4 11.0 185 185 185
23.3 -20.3 10.9 185 185 185
23.7 -20.4 11.0 186 186 186
24.1 -20.5 11.0 186 186 186
24.3 -20.5 11.0 186 186 186
-12.9 -24.1 13.1 22 25 23
-12.5 -24.0 13.1 45 44 43
-11.3 -24.1 13.1 83 82 80
-11.1 -24.3 13.2 34 34 34
-10.7 -24.1 13.1 55 56 54
-10.4 -24.7 13.5 182 185 184
55.0 -61.2 33.4 206 206 206
53.4 -58.6 32.0 206 206 206
53.7 -58.1 31.7 204 204 204
55.0 -58.7 32.0 204 204 204
23.8 -20.2 11.0 185 185 185
24.1 -20.3 11.1 185 185 185
-34.0 -24.1 13.3 67 67 67
-33.7 -24.1 13.3 65 66 64
-33.4 -24.1 13.3 65 66 64
-33.1 -24.1 13.3 63 63 63
-32.8 -24.1 13.3 63 63 63
-32.5 -24.1 13.3 60 60 60
-32.2 -24.1 13.3 61 61 61
-31.8 -24.1 13.3 61 61 61
-31.5 -24.1 13.3 59 59 59
-31.2 -24.1 13.3 59 59 59
-30.9 -24.1 13.3 57 57 55
-30.6 -24.1 13.3 57 57 55
-30.3 -24.1 13.3 57 57 55
-30.0 -24.1 13.3 58 58 56
-29.6 -24.0 13.3 58 58 56
-12.9 -23.9 13.2 27 27 27
-12.6 -23.8 13.1 130 130 130
-11.4 -23.8 13.2 63 64 62
-11.2 -24.1 13.3 49 49 49
-10.8 -24.0 13.2 52 52 52
-10.5 -24.0 13.3 186 188 187
-10.2 -24.1 13.3 181 184 183
55.0 -60.4 33.4 205 205 205
53.4 -57.9 32.0 205 205 205
53.0 -56.6 31.3 203 203 203
54.2 -57.2 31.6 203 203 203
52.8 -55.0 30.4 203 203 203
23.7 -19.9 11.0 184 184 184
-13.0 -23.7 13.2 33 35 33
-11.3 -24.0 13.4 49 49 49
-10.7 -24.2 13.5 182 185 184
-10.4 -24.1 13.5 181 184 183
54.7 -59.4 33.2 205 205 205
52.4 -55.3 30.9 205 205 205
52.4 -53.9 30.1 203 203 203
-11.1 -25.3 14.4 180 183 182
-10.7 -25.2 14.3 178 181 180
52.7 -54.9 31.1 205 205 205
53.1 -54.6 30.9 205 205 205
52.7 -53.4 30.3 205 205 205
53.4 -53.4 30.3 205 205 205
560.9 -298.1 168.9 177 180 179
-11.1 -25.2 14.5 179 182 181
-10.8 -25.2 14.4 180 183 182
-10.6 -25.6 14.7 178 181 180
-2.8 -17.6 10.1 218 221 220
8.0 -17.6 10.1 204 204 204
8.2 -17.5 10.1 204 204 204
8.4 -17.5 10.1 204 204 204
10.4 -17.7 10.2 204 204 204
10.5 -17.5 10.0 204 204 204
11.9 -17.5 10.1 204 204 204
13.4 -17.6 10.1 204 204 204
13.6 -17.6 10.1 204 204 204
13.8 -17.6 10.1 204 204 204
53.1 -54.6 31.4 207 207 207
53.7 -54.5 31.3 207 207 207
53.3 -53.3 30.6 204 204 204
53.7 -53.1 30.5 205 205 205
408.1 -212.6 122.0 178 181 180
-11.2 -25.1 14.6 179 182 181
-10.9 -25.1 14.6 177 180 179
-3.1 -17.3 10.1 215 215 215
-2.8 -17.3 10.0 215 215 215
-2.6 -17.3 10.0 216 216 216
-2.4 -17.2 10.0 216 216 216
-2.1 -17.2 10.0 212 213 212
-1.9 -17.3 10.0 212 213 212
-1.7 -17.2 10.0 211 211 211
-1.4 -17.2 10.0 208 208 208
-1.2 -17.2 10.0 204 207 206
-1.0 -17.2 10.0 209 209 209
-0.7 -17.3 10.0 204 207 206
-0.5 -17.3 10.0 205 208 207
-0.3 -17.2 10.0 205 208 207
-0.0 -17.3 10.1 203 205 205
0.2 -17.3 10.1 203 205 205
0.4 -17.3 10.1 202 202 202
0.7 -17.3 10.0 202 202 202
0.9 -17.2 10.0 196 196 196
1.1 -17.3 10.0 196 196 196
1.4 -17.4 10.1 197 197 197
1.6 -17.3 10.1 194 194 194
1.8 -17.2 10.0 191 191 191
7.7 -17.2 10.0 204 204 204
7.9 -17.2 10.0 207 207 207
8.1 -17.2 10.0 207 207 207
8.4 -17.2 10.0 207 207 207
8.6 -17.3 10.0 207 207 207
8.8 -17.2 10.0 207 207 207
9.1 -17.3 10.0 207 207 207
9.3 -17.2 10.0 207 207 207
10.3 -17.4 10.1 204 204 204
10.4 -17.2 10.0 203 203 203
10.7 -17.2 10.0 203 203 203
11.2 -17.2 10.0 203 203 203
11.6 -17.3 10.0 203 203 203
11.9 -17.2 10.0 203 203 203
12.1 -17.3 10.1 208 211 210
12.4 -17.3 10.1 206 206 206
12.6 -17.2 10.0 203 203 203
13.3 -17.3 10.0 206 206 206
13.5 -17.3 10.1 206 206 206
13.7 -17.3 10.0 206 206 206
55.1 -55.1 32.1 207 207 207
54.0 -53.3 31.0 207 207 207
54.2 -52.9 30.8 207 207 207
38.9 -34.3 20.0 205 205 205
38.2 -33.3 19.4 205 205 205
-12.2 -26.0 15.3 183 186 185
-11.4 -25.1 14.8 180 183 182
-11.1 -26.1 15.4 179 182 181
-10.8 -26.1 15.4 190 190 190
-3.1 -17.0 10.0 208 208 208
-0.5 -17.0 10.0 203 205 205
11.6 -17.0 10.0 206 206 206
12.1 -17.0 10.0 206 206 206
56.7 -56.8 33.5 207 207 207
56.8 -56.1 33.1 207 207 207
56.8 -55.3 32.6 207 207 207
54.9 -52.8 31.1 207 207 207
38.8 -33.8 19.9 205 205 205
38.3 -32.9 19.4 205 205 205
41.9 -35.2 20.7 206 206 206
40.4 -33.5 19.8 203 203 203
40.5 -33.2 19.6 186 186 186
41.3 -33.5 19.8 178 178 178
67.2 -32.7 19.3 176 176 176
-12.3 -26.0 15.5 183 186 185
56.9 -56.2 33.6 208 211 210
57.0 -55.5 33.2 206 206 206
54.1 -51.9 31.1 207 207 207
54.8 -51.9 31.1 207 207 207
55.3 -51.8 31.0 207 207 207
39.3 -33.7 20.1 205 205 205
38.3 -32.4 19.4 205 205 205
42.1 -34.8 20.8 205 205 205
41.1 -33.6 20.1 206 206 206
40.1 -32.5 19.4 197 197 197
67.8 -32.5 19.5 177 177 177
-11.7 -26.7 16.2 176 176 176
54.1 -51.2 31.1 206 206 206
55.0 -51.4 31.2 206 206 206
55.3 -51.1 31.0 207 207 207
39.8 -33.7 20.4 208 208 208
38.9 -32.5 19.7 205 205 205
42.7 -34.9 21.1 205 205 205
42.0 -33.9 20.6 206 206 206
68.7 -32.5 19.7 178 178 178
53.7 -24.1 14.6 159 159 159
-11.9 -26.6 16.4 178 178 178
-11.6 -27.0 16.6 158 161 160
-11.1 -26.7 16.4 155 158 157
-0.7 -16.4 10.1 192 192 192
-0.5 -16.4 10.1 192 192 192
-0.3 -16.4 10.1 192 192 192
-0.0 -16.4 10.1 192 192 192
0.2 -16.4 10.1 192 192 192
0.4 -16.4 10.1 192 192 192
0.7 -16.4 10.1 192 192 192
0.9 -16.4 10.1 190 190 190
1.1 -16.4 10.1 192 192 192
7.7 -16.4 10.1 207 207 207
8.6 -16.4 10.1 208 211 210
8.9 -16.4 10.1 212 214 214
9.1 -16.4 10.1 208 211 210
9.3 -16.4 10.1 203 203 203
10.3 -16.8 10.3 206 206 206
10.3 -16.5 10.1 206 206 206
10.4 -16.3 10.0 206 206 206
10.7 -16.4 10.1 206 206 206
11.7 -16.4 10.1 205 205 205
11.9 -16.3 10.1 205 205 205
13.1 -16.3 10.1 205 205 205
13.3 -16.4 10.1 205 205 205
13.6 -16.4 10.1 205 205 205
13.8 -16.4 10.1 205 205 205
14.0 -16.4 10.1 205 205 205
56.4 -51.3 31.6 206 206 206
58.1 -52.2 32.1 206 206 206
56.1 -49.8 30.6 204 204 204
41.6 -35.1 21.6 207 207 207
40.9 -34.1 21.0 207 207 207
43.7 -35.1 21.6 208 208 208
68.9 -32.2 19.8 179 179 179
54.0 -23.9 14.7 163 163 163
72.5 -31.9 19.6 153 153 153
-10.9 -16.6 10.4 33 35 33
-9.8 -16.1 10.0 75 76 76
-11.7 -25.9 16.2 177 177 177
-11.6 -26.5 16.5 160 163 162
-11.1 -26.2 16.4 156 159 158
7.7 -16.1 10.0 208 211 210
59.4 -52.6 32.8 208 211 210
56.8 -49.6 31.0 206 206 206
41.9 -34.9 21.8 207 207 207
44.1 -35.0 21.8 208 208 208
54.5 -23.8 14.8 161 161 161
71.1 -30.9 19.3 154 154 154
-29.0 -16.3 10.3 51 51 51
-25.7 -16.3 10.3 104 103 101
-25.4 -16.3 10.3 149 149 149
-25.2 -16.3 10.3 157 160 159
-24.9 -16.3 10.3 45 44 43
-24.7 -16.3 10.3 70 70 70
-24.4 -16.3 10.3 72 73 71
-24.2 -16.3 10.3 71 71 71
-24.0 -16.3 10.3 73 74 72
-23.7 -16.3 10.3 71 71 71
-23.5 -16.3 10.3 71 71 71
-23.2 -16.3 10.3 67 69 67
-23.0 -16.3 10.3 67 69 67
-22.8 -16.3 10.3 67 67 67
-22.6 -16.3 10.3 67 67 67
-22.3 -16.3 10.3 67 67 67
-15.7 -16.4 10.4 22 25 23
-15.3 -16.2 10.3 16 16 16
-15.0 -16.1 10.2 63 63 63
-10.8 -16.3 10.3 33 35 33
-10.6 -16.3 10.3 36 37 36
-10.3 -16.2 10.3 128 131 130
-11.9 -25.9 16.4 174 176 176
-11.6 -26.3 16.6 167 167 167
-11.2 -26.1 16.5 163 163 163
61.1 -53.3 33.8 208 211 210
42.0 -34.5 21.8 207 207 207
68.6 -31.1 19.7 181 181 181
56.8 -24.8 15.7 175 175 175
56.4 -24.4 15.5 169 171 170
72.2 -30.9 19.6 153 153 153
-33.2 -18.4 11.8 58 59 59
-30.5 -18.4 11.8 53 52 52
-29.9 -18.4 11.8 131 131 131
-29.7 -18.4 11.8 145 145 144
-29.4 -18.4 11.8 19 23 20
-29.1 -18.4 11.8 16 16 16
-28.8 -18.4 11.8 19 23 20
-28.6 -18.4 11.8 30 31 30
-28.3 -18.4 11.8 40 42 42
-27.5 -18.4 11.8 53 53 53
-25.9 -18.4 11.8 66 66 66
-24.8 -18.4 11.8 62 62 62
-24.5 -18.4 11.8 61 60 59
-21.5 -18.4 11.8 212 213 212
-15.4 -16.1 10.3 28 28 28
-15.0 -15.9 10.2 43 43 43
-10.8 -16.1 10.3 31 31 31
-10.9 -18.2 11.7 40 40 40
-12.3 -26.4 17.0 180 180 180
-12.0 -26.6 17.1 169 169 169
69.7 -60.7 39.0 207 210 209
71.3 -31.6 20.3 184 184 184
69.5 -30.6 19.7 182 182 182
56.4 -24.1 15.5 170 172 172
-12.4 -26.3 17.1 177 180 179
-12.2 -26.6 17.4 174 174 174
77.8 -67.6 44.1 207 210 209
70.7 -60.7 39.6 207 210 209
80.4 -68.1 44.4 207 210 209
288.1 -226.5 147.8 208 211 210
264.7 -205.6 134.2 208 211 210
71.8 -31.4 20.5 185 185 185
70.0 -30.4 19.8 183 183 183
58.1 -24.6 16.0 173 175 175
57.0 -24.0 15.6 169 169 169
70.7 -59.7 39.6 207 210 209
82.5 -68.8 45.6 207 210 209
278.5 -213.1 141.2 208 211 210
72.7 -31.3 20.7 186 186 186
71.1 -30.4 20.1 184 184 184
58.9 -24.5 16.3 174 176 176
58.2 -24.1 15.9 168 168 168
60.0 -24.5 16.3 156 156 156
-13.2 -15.0 10.1 30 29 29
-12.6 -15.1 10.2 23 26 24
-14.0 -30.8 20.7 176 176 176
87.6 -71.9 48.4 206 209 208
519.4 -396.0 266.4 208 211 210
352.0 -265.2 178.5 208 211 210
73.8 -31.3 21.0 185 185 185
73.1 -30.8 20.7 185 185 185
60.2 -24.7 16.6 173 175 175
60.9 -24.7 16.6 161 161 161
60.7 -24.4 16.4 155 155 155
-16.5 -14.8 10.1 124 124 124
-13.2 -14.8 10.1 142 144 143
-14.1 -29.4 20.1 176 176 176
-13.8 -29.8 20.4 175 175 175
-13.3 -29.7 20.3 174 174 174
-12.7 -29.4 20.1 162 165 164
88.0 -72.1 49.3 208 211 210
88.9 -71.9 49.1 209 212 211
552.1 -419.3 286.6 207 210 209
455.3 -341.7 233.5 208 211 210
313.6 -232.6 159.0 208 211 210
317.3 -232.6 159.0 208 211 210
360.3 -261.1 178.5 208 211 210
77.8 -32.7 22.3 186 186 186
75.0 -31.3 21.4 186 186 186
60.9 -24.4 16.7 167 167 167
60.4 -24.1 16.4 160 160 160
60.7 -24.0 16.4 154 154 154
61.7 -24.3 16.6 149 151 151
65.5 -25.2 17.2 131 131 131
-15.4 -14.9 10.3 88 88 88
-15.1 -14.8 10.3 87 87 87
-14.0 -14.9 10.3 89 90 88
-13.7 -14.9 10.3 7 13 9
-14.0 -28.8 20.0 170 172 172
-13.7 -29.1 20.2 172 172 172
-13.3 -29.2 20.3 145 145 144
-12.6 -28.8 20.0 36 36 34
587.7 -439.3 305.1 209 212 211
409.7 -302.6 210.2 210 213 212
311.0 -227.0 157.6 210 213 212
328.3 -236.8 164.5 210 213 212
335.1 -238.9 165.9 210 213 212
77.7 -32.1 22.3 190 190 190
76.4 -31.4 21.8 188 188 188
75.6 -30.8 21.4 188 188 188
75.1 -30.4 21.1 188 188 188
61.4 -24.2 16.8 164 167 166
60.9 -23.9 16.6 160 160 160
61.3 -23.9 16.6 156 156 156
61.9 -24.0 16.7 150 150 150
64.1 -24.7 17.1 146 146 146
64.4 -24.6 17.1 139 141 140
64.8 -24.6 17.1 134 134 134
65.3 -24.7 17.1 133 132 131
-25.3 -14.4 10.2 176 176 176
-25.1 -14.4 10.2 151 151 151
-24.9 -14.4 10.2 180 183 182
-24.5 -14.4 10.1 178 178 178
-24.3 -14.4 10.2 161 161 161
-24.1 -14.4 10.2 137 137 137
-23.9 -14.4 10.2 139 139 139
-23.7 -14.4 10.2 64 64 64
-23.4 -14.4 10.2 68 68 68
-23.2 -14.4 10.2 194 194 194
-23.0 -14.4 10.2 202 202 202
-22.7 -14.4 10.2 164 164 164
-22.5 -14.4 10.2 100 100 100
-21.5 -14.4 10.2 91 91 91
-21.3 -14.4 10.2 60 60 60
-20.6 -14.4 10.2 80 82 79
-20.3 -14.4 10.2 52 52 52
-20.1 -14.4 10.2 18 18 18
-19.9 -14.4 10.2 119 121 120
-19.7 -14.4 10.2 165 165 165
-19.2 -14.4 10.2 176 179 178
-18.5 -14.4 10.2 129 132 131
-18.2 -14.4 10.2 138 138 138
-18.0 -14.4 10.2 148 150 150
-17.8 -14.4 10.2 194 194 194
-17.0 -14.4 10.2 241 241 241
-16.8 -14.4 10.2 214 214 214
-16.6 -14.4 10.2 226 226 226
-16.1 -14.4 10.2 210 210 210
-15.8 -14.4 10.1 134 134 134
-15.6 -14.4 10.2 74 74 74
-15.4 -14.4 10.2 42 43 42
-15.2 -14.4 10.2 28 28 28
-15.0 -14.4 10.2 43 43 43
-14.7 -14.4 10.2 20 23 21
-14.4 -14.4 10.2 117 119 118
-14.2 -14.4 10.2 32 33 31
-14.0 -14.4 10.2 102 101 99
-13.8 -14.5 10.2 29 29 29
-13.5 -14.4 10.2 30 30 30
-13.3 -14.4 10.2 111 111 109
-13.0 -14.4 10.2 131 134 133
-12.8 -14.4 10.1 60 60 60
-12.5 -14.4 10.2 43 43 43
-12.3 -14.4 10.2 63 63 63
-12.1 -14.4 10.2 36 36 36
-11.8 -14.4 10.2 141 143 142
-14.2 -28.7 20.3 169 171 170
-13.8 -28.9 20.4 160 160 160
-13.3 -28.9 20.4 124 126 125
-12.7 -28.5 20.1 42 43 42
324.5 -233.0 164.5 210 213 212
77.3 -31.2 22.0 189 189 189
76.5 -30.7 21.7 189 189 189
61.6 -23.9 16.9 165 165 165
61.1 -23.6 16.7 160 160 160
61.5 -23.6 16.7 153 155 155
62.0 -23.6 16.7 148 148 148
63.8 -24.2 17.1 141 143 142
64.2 -24.2 17.1 136 136 136
64.8 -24.3 17.1 132 135 134
65.3 -24.3 17.1 126 128 127
-14.9 -14.2 10.2 112 112 112
-14.4 -14.1 10.1 82 83 81
-14.1 -14.1 10.1 71 71 71
-14.5 -28.9 20.7 182 185 184
-14.0 -28.7 20.6 182 185 184
-13.6 -28.9 20.7 174 174 174
-13.1 -28.9 20.8 113 114 113
-12.8 -29.4 21.1 25 26 24
35.7 -21.6 15.5 196 196 196
35.4 -21.3 15.3 196 196 196
163.9 -78.7 56.5 202 202 202
77.3 -30.5 21.9 190 190 190
76.2 -29.9 21.4 188 188 188
61.7 -23.4 16.8 154 156 156
61.7 -23.3 16.7 152 152 152
62.6 -23.5 16.9 149 149 149
64.0 -23.8 17.1 137 137 137
64.4 -23.9 17.1 133 133 133
-16.1 -30.6 22.3 182 182 182
-15.1 -29.5 21.5 181 181 181
-14.1 -28.6 20.9 180 180 180
-14.0 -29.4 21.5 182 185 184
-13.7 -29.9 21.8 169 171 170
-13.3 -30.0 21.9 25 26 24
12.0 -13.9 10.2 207 210 209
12.8 -14.0 10.2 207 210 209
190.2 -144.0 105.1 208 211 210
204.4 -148.9 108.7 208 211 210
200.0 -144.0 105.1 209 212 211
35.1 -20.7 15.1 196 196 196
34.9 -20.4 14.9 196 196 196
165.9 -78.3 57.1 203 203 203
-16.9 -30.4 22.6 180 180 180
-16.3 -30.3 22.5 183 183 183
-14.5 -29.9 22.2 174 176 176
-14.0 -29.9 22.2 168 168 168
279.0 -215.9 160.3 207 210 209
252.2 -190.1 141.2 207 210 209
251.8 -187.3 139.1 207 210 209
249.5 -183.3 136.1 208 211 210
260.1 -188.7 140.1 208 211 210
273.5 -196.0 145.5 208 211 210
281.2 -199.0 147.8 208 211 210
308.4 -210.6 156.3 209 212 211
35.2 -20.4 15.2 197 197 197
35.0 -20.1 14.9 199 199 199
167.9 -77.9 57.8 198 198 198
69.9 -25.3 18.8 134 137 136
-17.0 -30.1 22.7 183 183 183
274.3 -208.6 157.6 211 211 211
262.0 -194.1 146.6 211 211 211
246.3 -180.1 136.1 211 211 211
260.7 -188.3 142.2 207 210 209
266.1 -189.7 143.3 208 211 210
280.0 -197.1 148.9 208 211 210
279.1 -194.1 146.6 208 211 210
269.9 -185.5 140.1 208 211 210
329.3 -223.6 168.9 209 212 211
305.9 -205.2 155.1 209 212 211
325.5 -215.8 163.1 209 212 211
35.0 -19.8 14.9 200 200 200
70.7 -25.2 19.0 133 133 133
69.5 -24.5 18.5 131 131 131
74.6 -25.9 19.6 131 131 131
-19.9 -15.9 12.2 206 209 208
-16.1 -32.1 24.7 89 89 89
-15.4 -31.8 24.4 89 89 89
-14.8 -31.8 24.4 56 56 56
281.4 -210.2 161.7 210 210 210
295.2 -217.7 167.4 211 211 211
262.0 -190.7 146.6 211 211 211
246.3 -177.0 136.1 211 211 211
270.9 -192.2 147.8 207 210 209
280.9 -196.8 151.3 207 210 209
277.8 -192.2 147.8 208 211 210
276.9 -189.2 145.5 208 211 210
256.6 -173.2 133.2 208 211 210
329.3 -219.6 168.9 209 212 211
305.9 -201.6 155.1 209 212 211
337.1 -219.6 168.9 209 212 211
335.1 -215.8 165.9 209 212 211
268.3 -170.8 131.4 210 213 212
172.1 -77.1 59.3 190 192 192
71.3 -24.9 19.2 134 134 134
71.0 -24.7 19.0 132 132 132
70.1 -24.2 18.6 132 132 132
75.0 -25.6 19.7 128 131 130
-26.4 -14.2 11.1 52 52 52
-26.1 -14.2 11.1 29 31 29
-25.9 -14.2 11.1 20 23 21
-24.8 -14.2 11.1 181 181 181
-20.1 -15.7 12.3 42 43 42
-18.5 -15.9 12.4 42 43 42
-16.3 -31.7 24.9 90 90 90
-15.6 -31.5 24.7 83 85 85
-14.9 -31.3 24.5 60 60 60
416.4 -309.7 242.5 210 210 210
335.9 -246.5 193.0 210 210 210
311.8 -225.8 176.8 211 211 211
261.4 -184.4 144.4 211 211 211
346.8 -241.6 189.2 211 211 211
341.0 -234.5 183.7 212 213 212
293.9 -199.7 156.3 212 213 212
281.2 -188.7 147.8 212 213 212
439.0 -287.6 225.2 216 216 216
342.4 -221.6 173.5 217 217 217
385.8 -244.0 191.1 217 217 217
429.3 -268.4 210.2 210 213 212
72.3 -24.9 19.5 128 128 128
71.3 -24.4 19.1 128 128 128
70.9 -24.1 18.8 128 128 128
75.1 -25.2 19.7 127 127 127
-37.2 -19.8 15.8 34 34 34
-37.1 -20.0 15.9 20 23 21
-36.2 -20.1 16.0 160 160 160
-35.8 -20.1 16.0 183 183 183
-35.0 -19.9 15.8 189 189 187
-34.5 -19.8 15.8 158 158 158
-34.1 -19.8 15.8 148 150 150
-27.5 -20.0 16.0 54 54 54
-26.8 -19.7 15.8 54 54 54
-23.8 -20.0 16.0 34 34 34
-16.7 -32.1 25.6 95 95 95
-15.8 -31.4 25.0 89 91 90
-15.0 -31.0 24.7 74 76 75
17.1 -14.0 11.1 210 210 210
507.5 -370.6 295.6 210 210 210
347.5 -247.1 197.0 210 210 210
403.2 -275.8 220.0 211 211 211
369.7 -249.7 199.1 212 213 212
320.3 -213.7 170.4 212 213 212
288.0 -189.7 151.3 212 213 212
491.7 -316.2 252.2 214 214 214
429.2 -266.5 212.5 214 214 214
73.5 -24.8 19.8 120 120 120
72.3 -24.3 19.3 121 121 121
72.5 -24.2 19.3 121 121 121
74.2 -24.6 19.6 122 122 122
74.3 -24.5 19.5 128 127 126
-38.2 -19.8 16.1 29 31 29
-37.7 -19.7 16.0 20 23 21
-37.3 -19.7 16.0 18 22 19
-37.1 -19.8 16.1 18 22 19
-36.8 -19.8 16.1 24 24 24
-36.3 -19.8 16.1 141 141 141
-35.9 -19.8 16.1 156 156 156
-35.4 -19.7 16.0 192 192 192
-35.0 -19.7 16.0 148 148 148
-34.6 -19.7 16.0 137 139 138
-34.3 -19.7 16.0 194 197 196
-29.0 -19.9 16.2 54 54 54
-28.5 -19.8 16.1 54 54 54
-28.3 -19.9 16.2 52 52 52
-27.6 -19.7 16.0 54 54 54
-27.1 -19.6 15.9 52 52 52
-26.9 -19.7 16.0 52 52 52
-26.5 -19.7 16.0 47 48 47
-24.4 -19.8 16.1 18 22 19
-23.9 -19.7 16.0 117 117 117
-23.5 -19.7 16.0 71 71 71
-23.2 -19.7 16.0 54 54 54
-18.7 -34.0 27.6 137 139 138
-17.2 -32.4 26.3 91 94 93
-16.2 -31.5 25.6 89 91 90
-15.2 -30.9 25.1 78 78 78
17.3 -14.1 11.5 210 210 210
17.1 -13.8 11.2 210 210 210
17.2 -13.6 11.0 211 211 211
308.9 -215.5 175.2 214 214 214
299.1 -206.0 167.4 211 211 211
368.9 -247.6 201.2 211 211 211
365.8 -242.5 197.0 207 210 209
326.2 -213.6 173.5 212 213 212
290.3 -187.7 152.6 212 213 212
322.5 -206.0 167.4 212 213 212
380.2 -240.0 195.0 216 216 216
406.3 -247.6 201.2 214 214 214
72.8 -24.0 19.5 112 112 112
72.2 -23.6 19.2 112 112 112
73.7 -23.9 19.5 116 118 117
73.7 -23.8 19.3 131 131 131
-38.5 -19.6 16.2 29 31 29
-38.1 -19.6 16.2 24 24 24
-37.7 -19.6 16.2 17 17 17
-37.7 -19.8 16.4 18 22 19
-37.4 -19.8 16.4 20 23 21
-36.8 -19.7 16.3 132 132 132
-36.1 -19.5 16.2 149 151 151
-35.5 -19.4 16.1 132 132 132
-35.3 -19.5 16.1 149 149 149
-34.3 -19.5 16.2 139 141 140
-29.4 -19.8 16.4 53 53 53
-28.7 -19.6 16.2 53 53 53
-28.7 -19.8 16.4 53 53 53
-27.9 -19.5 16.2 53 53 53
-26.8 -19.6 16.2 45 45 45
-24.6 -19.6 16.3 25 25 25
-24.1 -19.5 16.2 27 29 27
-23.8 -19.6 16.2 25 25 25
17.4 -13.9 11.5 210 210 210
17.3 -13.7 11.3 210 210 210
306.1 -209.5 173.5 214 214 214
381.7 -248.3 205.6 215 215 215
335.5 -215.5 178.5 216 216 216
285.7 -181.3 150.1 216 216 216
325.3 -203.9 168.9 216 216 216
372.5 -230.7 191.1 216 216 216
330.2 -202.1 167.4 217 217 217
397.9 -237.9 197.0 214 214 214
74.8 -24.1 20.0 101 103 103
72.7 -23.3 19.3 105 105 105
74.4 -23.7 19.6 90 90 90
74.0 -23.4 19.4 155 155 155
-34.7 -17.5 14.8 26 26 26
-28.0 -19.2 16.2 53 53 53
-21.5 -16.5 14.0 39 41 41
-20.2 -38.0 32.1 94 94 94
-19.9 -38.8 32.8 95 98 97
-18.9 -38.3 32.3 35 34 33
-18.0 -38.0 32.1 30 30 30
17.4 -13.8 11.7 210 210 210
17.5 -13.8 11.6 210 210 210
337.0 -226.3 191.1 214 214 214
362.8 -228.6 193.0 215 215 215
281.2 -175.0 147.8 216 216 216
444.3 -269.9 227.9 216 216 216
-24.1 -16.0 13.8 57 56 55
-23.8 -16.0 13.8 54 54 54
-21.2 -16.0 13.8 50 50 50
-21.0 -38.6 33.2 96 96 96
-20.1 -38.5 33.1 103 105 105
-19.2 -38.1 32.8 90 90 90
-18.7 -38.7 33.4 120 122 121
17.2 -13.5 11.6 210 210 210
17.4 -13.4 11.6 210 210 210
17.4 -13.2 11.4 210 210 210
-11.1 -12.0 10.6 26 27 25
-21.8 -39.4 34.6 95 95 95
-20.6 -38.6 34.0 78 78 78
-19.7 -38.4 33.8 113 114 113
12.1 -11.4 10.0 214 214 214
15.7 -12.9 11.3 211 211 211
15.9 -12.8 11.2 211 211 211
16.2 -12.8 11.3 211 211 211
16.5 -12.8 11.3 211 211 211
17.1 -13.1 11.5 211 211 211
17.3 -13.1 11.5 210 210 210
17.2 -12.8 11.3 210 210 210
-22.9 -40.5 36.3 95 98 97
-21.2 -39.0 35.0 112 112 112
470.9 -151.7 136.1 44 46 46
12.6 -11.0 10.1 212 213 212
326.2 -189.4 173.5 218 218 218
283.4 -162.5 148.9 218 218 218
365.1 -204.4 187.3 218 218 218
44.2 -20.8 19.0 204 204 204
43.4 -20.2 18.5 204 204 204
409.1 -129.0 118.2 47 48 47
374.4 -117.3 107.5 52 52 52
-27.7 -50.6 47.4 11 11 11
279.1 -156.6 146.6 218 218 218
213.7 -106.9 100.1 200 200 200
216.1 -106.9 100.1 202 202 202
44.0 -20.3 19.0 204 204 204
43.0 -19.6 18.3 204 204 204
-23.8 -14.3 13.6 191 191 191
-27.4 -16.6 15.9 85 85 85
-25.5 -15.9 15.2 87 89 88
-14.2 -14.4 13.8 27 28 26
-28.4 -50.8 48.6 23 24 23
-28.7 -53.6 51.3 23 24 23
-26.7 -51.9 49.6 13 17 14
276.9 -152.0 145.5 218 218 218
211.8 -114.9 110.0 218 218 218
146.9 -77.8 74.5 221 221 221
411.6 -205.9 197.0 182 182 182
213.7 -104.6 100.1 200 200 200
212.7 -102.9 98.5 200 200 200
43.3 -19.3 18.5 204 204 204
-24.4 -13.9 13.6 229 229 229
-24.0 -13.9 13.6 224 224 224
-23.7 -13.9 13.6 215 215 215
-23.3 -13.8 13.5 206 206 206
-14.0 -13.9 13.6 31 30 29
-13.5 -13.7 13.4 30 29 28
-29.7 -49.9 48.9 114 116 115
-28.8 -50.3 49.3 13 17 14
-30.0 -54.6 53.4 21 21 21
-27.7 -52.6 51.5 109 111 111
20.9 -12.5 12.2 219 219 219
268.6 -144.2 141.2 218 218 218
146.9 -76.1 74.5 221 221 221
411.6 -201.3 197.0 180 180 180
305.0 -147.5 144.4 194 194 194
223.1 -105.6 103.4 200 200 200
43.4 -18.9 18.5 200 200 200
-24.1 -13.4 13.5 230 230 230
-23.8 -13.4 13.4 226 226 226
-23.6 -13.5 13.5 221 221 221
-23.1 -13.4 13.4 216 216 216
-13.8 -13.5 13.5 31 30 29
-13.3 -13.3 13.3 31 30 29
-32.3 -55.2 55.3 48 50 48
-31.1 -55.4 55.5 19 19 19
-29.3 -54.4 54.5 159 159 159
17.1 -11.7 11.7 218 218 218
17.2 -11.6 11.6 218 218 218
15.7 -10.2 10.2 217 217 217
276.9 -145.2 145.5 221 221 221
293.8 -148.7 148.9 221 221 221
459.5 -219.6 220.0 180 180 180
327.5 -154.8 155.1 193 193 193
290.6 -135.8 136.1 200 200 200
281.6 -130.2 130.5 200 200 200
44.9 -19.3 19.3 203 203 203
43.6 -18.5 18.6 204 204 204
42.3 -17.8 17.9 204 204 204
-24.3 -13.2 13.6 227 227 227
-24.0 -13.2 13.6 225 225 225
-23.6 -13.2 13.5 220 220 220
-23.2 -13.1 13.4 207 210 209
-13.9 -13.2 13.5 27 29 27
-13.3 -13.0 13.3 31 30 29
-36.5 -60.9 62.4 47 48 47
-32.5 -56.6 58.0 14 18 15
-30.7 -55.7 57.1 161 164 163
16.9 -11.3 11.5 218 218 218
17.1 -11.2 11.5 218 218 218
17.3 -11.2 11.5 218 218 218
15.6 -9.9 10.2 217 217 217
378.3 -196.2 201.2 220 220 220
281.2 -144.1 147.8 220 220 220
439.1 -204.9 210.2 184 184 184
366.6 -169.2 173.5 195 195 195
303.7 -138.7 142.2 200 200 200
270.4 -122.1 125.3 200 200 200
43.4 -18.1 18.5 203 203 203
40.2 -16.4 16.8 204 204 204
-24.3 -12.9 13.6 221 221 221
-23.7 -12.9 13.6 215 215 215
-23.3 -12.9 13.5 210 210 210
-13.9 -12.9 13.6 33 33 33
-8.8 -10.6 11.1 199 199 199
-40.7 -63.8 67.1 113 115 114
-38.8 -63.2 66.4 31 31 31
-35.2 -59.8 62.8 23 24 23
-33.2 -58.8 61.8 160 163 162
-33.2 -61.4 64.6 181 181 181
17.0 -10.9 11.5 218 218 218
345.2 -174.8 183.7 220 220 220
274.8 -137.4 144.4 220 220 220
293.8 -141.8 148.9 221 221 221
429.5 -195.7 205.6 182 182 182
344.4 -155.2 163.1 191 191 191
282.5 -125.9 132.3 198 198 198
279.7 -123.3 129.6 200 200 200
43.3 -17.6 18.5 203 203 203
38.6 -15.2 16.0 204 204 204
-23.9 -12.4 13.3 201 203 203
-23.4 -12.3 13.2 206 209 208
-23.5 -12.5 13.4 203 203 203
-23.0 -12.4 13.3 189 191 191
-13.8 -12.5 13.4 35 35 35
-8.8 -10.3 11.1 199 199 199
-44.4 -67.8 73.0 107 107 107
-40.6 -64.6 69.5 26 25 24
-37.0 -61.2 65.9 21 21 21
-35.4 -61.2 65.9 167 167 167
-35.8 -64.6 69.5 180 180 180
259.0 -126.4 136.1 220 220 220
224.9 -108.4 116.8 220 220 220
143.0 -67.3 72.5 221 221 221
300.4 -132.1 142.2 184 184 184
250.9 -109.1 117.5 197 197 197
236.0 -101.5 109.3 200 200 200
-8.8 -10.0 11.0 198 198 198
-8.4 -9.9 10.9 195 195 195
-49.5 -73.8 81.5 108 108 108
-43.3 -67.2 74.2 26 25 24
-39.3 -63.4 70.1 23 24 23
-42.2 -71.1 78.5 165 165 165
145.2 -66.6 73.6 221 221 221
236.2 -100.1 110.6 195 195 195
237.4 -99.6 110.0 200 200 200
-9.2 -9.9 11.2 203 205 205
-8.8 -9.7 11.0 200 200 200
-55.2 -80.2 90.9 97 100 99
152.9 -68.4 77.5 221 221 221
234.5 -87.4 99.0 203 203 203
-44.8 -19.2 22.4 67 67 67
-44.2 -19.2 22.4 56 56 56
-43.3 -19.0 22.1 53 53 53
-42.2 -18.8 21.8 51 51 51
-9.6 -9.8 11.5 36 39 38
-8.8 -9.5 11.0 197 197 197
-61.3 -93.9 109.3 23 24 23
231.0 -84.6 98.5 202 202 202
235.7 -85.5 99.6 203 203 203
-45.4 -18.7 22.4 113 115 114
-44.9 -18.7 22.4 56 56 56
-44.4 -18.7 22.4 63 63 63
-43.4 -18.5 22.2 58 59 59
-42.3 -18.3 21.9 58 59 59
-8.7 -9.2 11.0 196 196 196
-8.4 -9.1 10.9 194 194 194
21.3 -10.5 12.6 219 222 221
21.3 -10.4 12.4 219 222 221
227.5 -81.9 98.0 202 202 202
232.2 -82.7 99.0 202 202 202
234.5 -82.7 99.0 202 202 202
-44.8 -18.2 22.4 36 36 36
-44.3 -18.2 22.4 58 59 59
-43.5 -18.1 22.3 58 59 59
-8.7 -8.9 10.9 196 196 196
416.0 -161.7 199.1 175 175 175
227.5 -79.6 98.0 202 202 202
235.9 -81.7 100.6 202 202 202
232.1 -79.6 98.0 202 202 202
218.5 -74.2 91.4 206 206 206
-40.2 -15.5 19.6 169 169 169
-39.0 -15.2 19.2 112 112 112
-44.8 -17.6 22.4 49 49 49
-44.2 -17.6 22.4 59 59 59
-43.6 -17.6 22.3 59 59 59
-8.7 -8.7 11.0 195 195 195
17.0 -8.6 10.9 218 221 220
434.2 -164.0 207.9 183 183 183
278.6 -102.9 130.5 183 183 183
265.2 -96.9 122.8 186 186 186
249.8 -89.4 113.3 197 197 197
288.8 -100.2 127.0 198 198 198
250.6 -84.3 106.9 202 202 202
240.8 -80.2 101.7 202 202 202
-36.2 -13.0 16.9 152 152 152
-45.3 -16.6 21.6 123 125 124
-43.7 -16.2 21.1 123 125 124
-41.0 -15.3 20.0 139 141 140
-34.6 -13.1 17.1 105 105 105
-44.6 -17.0 22.3 64 64 64
-43.9 -17.0 22.2 59 59 59
-42.3 -16.6 21.6 54 54 54
-41.5 -16.5 21.5 54 54 54
-9.6 -8.8 11.5 48 48 48
-8.8 -8.5 11.0 195 195 195
16.8 -8.3 10.8 219 222 221
305.9 -118.7 155.1 222 224 224
420.4 -154.1 201.2 181 181 181
370.0 -134.1 175.2 133 133 133
284.5 -102.0 133.2 157 157 157
268.6 -95.3 124.4 185 185 185
276.3 -95.9 125.3 197 197 197
376.4 -129.3 168.9 198 198 198
332.8 -113.2 147.8 198 198 198
305.2 -102.7 134.2 198 198 198
275.5 -90.0 117.5 202 202 202
258.9 -83.7 109.3 202 202 202
-36.2 -12.6 16.9 151 151 151
-46.2 -16.4 22.0 121 121 121
-42.3 -15.2 20.4 115 117 116
-41.2 -14.9 20.1 122 124 123
-44.6 -16.5 22.3 63 62 61
-44.0 -16.5 22.2 53 52 52
-42.7 -16.2 21.8 45 45 45
-41.7 -16.0 21.6 49 48 47
-8.8 -8.2 11.0 194 194 194
16.7 -8.0 10.8 219 222 221
30.3 -12.6 16.9 220 223 222
298.5 -112.4 151.3 222 224 224
399.1 -141.9 191.1 188 188 188
335.8 -118.0 159.0 145 145 144
288.5 -100.3 135.1 157 157 157
274.1 -94.3 127.0 185 185 185
285.7 -96.2 129.6 197 197 197
334.6 -111.5 150.1 197 197 197
320.2 -105.6 142.2 198 198 198
305.2 -99.6 134.2 198 198 198
304.0 -98.2 132.3 198 198 198
277.2 -87.8 118.2 200 200 200
-45.0 -15.5 21.5 43 45 44
-42.7 -14.8 20.6 65 65 65
-41.1 -14.4 20.1 49 49 49
-42.1 -15.5 21.5 43 45 45
-41.4 -15.4 21.4 45 45 45
-8.8 -7.9 11.0 194 194 194
16.8 -7.8 10.8 219 222 221
23.4 -9.7 13.4 220 223 222
30.2 -12.2 16.9 220 223 222
411.6 -141.7 197.0 198 198 198
283.6 -94.5 131.4 181 181 181
129.8 -42.8 59.5 192 192 192
363.4 -117.3 163.1 195 195 195
332.8 -106.3 147.8 197 197 197
311.8 -98.6 137.1 198 198 198
-43.1 -14.3 20.6 54 54 54
-42.2 -14.2 20.4 55 55 55
-41.1 -14.0 20.1 55 55 55
-40.5 -14.6 21.0 60 60 60
-39.2 -14.3 20.5 49 48 47
16.9 -7.5 10.8 219 222 221
23.1 -9.2 13.3 220 223 222
30.2 -11.8 16.9 220 223 222
424.9 -141.6 203.4 185 185 185
283.6 -91.4 131.4 182 182 182
131.0 -41.8 60.1 190 190 190
386.7 -120.8 173.5 195 195 195
346.3 -107.0 153.8 195 195 195
321.1 -98.3 141.2 198 198 198
22.1 -8.6 12.8 220 223 222
22.4 -8.7 12.9 220 223 222
22.7 -8.7 12.9 220 223 222
22.9 -8.6 12.8 220 223 222
23.2 -8.6 12.8 220 223 222
23.6 -8.7 12.9 220 223 222
23.8 -8.6 12.8 220 223 222
24.1 -8.6 12.8 220 223 222
434.2 -139.9 207.9 190 190 190
284.5 -89.6 133.2 159 159 159
131.0 -40.4 60.1 190 190 190
247.5 -70.3 104.5 200 200 200
22.6 -8.3 12.8 220 223 222
22.7 -8.3 12.7 220 223 222
22.8 -8.2 12.6 220 223 222
23.1 -8.2 12.6 220 223 222
23.5 -8.2 12.7 222 224 224
23.7 -8.2 12.6 222 224 224
136.2 -40.6 62.4 190 190 190
235.7 -64.7 99.6 200 200 200
-507.2 -150.0 239.4 22 25 23
-460.8 -137.8 220.0 20 23 21
-299.1 -90.4 144.4 25 25 25
22.7 -7.9 12.5 222 224 224
23.0 -7.9 12.5 222 224 224
23.4 -7.9 12.6 222 224 224
230.9 -61.1 97.5 202 202 202
209.9 -52.4 83.7 72 74 74
-641.7 -137.4 227.9 67 67 67
-652.1 -140.8 233.5 67 67 67
-623.5 -135.8 225.2 68 68 68
-633.4 -139.1 230.7 68 68 68
-620.5 -137.4 227.9 69 69 69
-622.7 -139.1 230.7 74 75 73
-595.5 -134.2 222.5 72 72 72
-590.3 -134.2 222.5 71 71 71
-601.2 -139.1 230.7 72 72 72
-595.9 -139.1 230.7 72 72 72
-583.4 -137.4 227.9 77 79 77
-578.1 -137.4 227.9 77 79 77
-579.8 -139.1 230.7 162 162 162
-574.4 -139.1 230.7 192 192 192
-562.2 -137.4 227.9 89 90 88
-556.9 -137.4 227.9 79 81 79
-579.5 -144.4 239.4 68 68 68
-559.8 -140.8 233.5 68 68 68
-544.8 -142.6 236.5 171 173 173
-532.6 -140.8 233.5 143 145 144
-520.8 -139.1 230.7 82 82 82
-469.6 -126.8 210.2 62 62 62
-513.7 -146.3 242.5 56 56 56
-471.7 -135.8 225.2 58 59 59
-430.6 -125.4 207.9 62 61 60
-478.4 -140.8 233.5 92 95 94
-491.1 -146.3 242.5 148 148 148
-479.3 -144.4 239.4 65 65 65
-434.8 -146.3 242.5 66 66 66
-403.3 -137.4 227.9 64 64 62
-393.2 -135.8 225.2 66 66 66
-362.1 -126.8 210.2 67 67 67
-361.3 -128.2 212.5 64 64 62
-406.1 -148.2 245.7 44 44 44
-380.7 -140.8 233.5 30 29 29
-405.2 -152.1 252.2 26 26 26
-369.8 -140.8 233.5 33 35 33
-351.4 -135.8 225.2 42 42 42
22.3 -7.7 12.8 222 224 224
22.7 -7.8 12.9 222 224 224
22.9 -7.7 12.8 222 224 224
23.2 -7.7 12.8 221 221 221
23.6 -7.7 12.7 222 224 224
233.3 -59.4 98.5 202 202 202
204.4 -49.2 81.5 64 64 64
-819.3 -168.7 291.0 67 67 67
-851.9 -176.9 305.1 67 67 67
-818.4 -171.4 295.6 68 68 68
-811.5 -171.4 295.6 68 68 68
-817.4 -174.1 300.3 69 69 69
-823.5 -176.9 305.1 72 72 72
-790.9 -171.4 295.6 70 70 70
-784.1 -171.4 295.6 70 70 70
-770.3 -171.4 295.6 71 71 71
-788.1 -176.9 305.1 72 72 72
-781.0 -176.9 305.1 72 72 72
-773.9 -176.9 305.1 75 75 75
-740.7 -174.1 300.3 78 80 78
-757.7 -179.8 310.1 77 77 77
-750.5 -179.8 310.1 73 73 73
-666.8 -161.3 278.2 74 74 74
-660.3 -161.3 278.2 75 75 75
-691.8 -174.1 300.3 80 80 80
-643.9 -163.7 282.3 77 77 77
-628.0 -161.3 278.2 71 71 71
-595.3 -154.5 266.4 72 72 72
-656.8 -179.8 310.1 67 67 67
-535.5 -148.2 255.6 66 66 66
-798.1 -228.5 394.1 96 96 96
-631.1 -182.8 315.3 73 73 73
-493.0 -163.7 282.3 66 66 66
-521.2 -182.8 315.3 44 44 44
-489.4 -174.1 300.3 26 26 26
-524.0 -189.1 326.1 26 26 26
-398.8 -148.2 255.6 30 29 29
22.4 -7.5 12.9 222 224 224
22.7 -7.5 12.9 221 221 221
22.9 -7.4 12.8 221 221 221
23.2 -7.4 12.8 221 221 221
23.5 -7.4 12.8 221 221 221
23.6 -7.4 12.7 221 221 221
233.3 -57.1 98.5 202 202 202
201.8 -46.7 80.5 67 67 67
210.0 -48.1 83.0 66 66 66
-128.4 -29.8 53.6 74 74 74
-126.8 -29.7 53.4 74 74 74
-125.6 -29.7 53.4 75 75 75
22.9 -7.1 12.8 221 221 221
23.2 -7.1 12.8 221 221 221
23.6 -7.1 12.7 222 222 222
115.5 -27.4 49.3 202 202 202
228.5 -53.7 96.5 202 202 202
208.0 -46.2 83.0 73 75 75
213.7 -47.0 84.4 66 66 66
115.0 -26.4 49.5 199 199 199
115.2 -26.2 49.1 202 202 202
232.1 -52.3 98.0 203 203 203
234.5 -50.5 99.0 203 203 203
117.0 -24.3 49.9 200 200 200
211.3 -43.4 89.2 203 203 203
191.7 -39.0 80.2 203 203 203
20.2 -5.7 13.6 217 217 217
20.1 -5.3 13.3 217 217 217
20.4 -5.2 13.3 220 220 220
20.7 -5.2 13.3 220 220 220
21.1 -5.3 13.4 220 220 220
26.8 -5.3 13.4 224 224 224
27.2 -5.2 13.3 224 224 224
20.1 -4.9 13.3 218 218 218
20.3 -4.9 13.3 218 218 218
20.6 -4.9 13.3 221 221 221
26.6 -4.9 13.3 225 225 225
26.9 -4.9 13.3 225 225 225
27.1 -4.9 13.3 227 227 227
18.5 -3.8 10.9 222 222 222
19.0 -3.8 10.9 222 222 222
19.3 -3.8 10.9 222 222 222
19.6 -3.8 10.9 222 222 222
20.3 -3.9 11.2 222 222 222
21.6 -3.8 10.9 225 225 225
21.7 -3.8 10.9 225 225 225
22.0 -3.8 10.9 225 225 225
17.1 -3.6 11.0 222 222 222
17.3 -3.5 10.9 219 219 219
17.5 -3.5 10.9 222 222 222
18.5 -3.5 10.9 222 222 222
18.8 -3.5 10.9 222 222 222
19.0 -3.5 10.9 222 222 222
19.3 -3.5 10.9 222 222 222
19.5 -3.5 10.9 222 222 222
19.8 -3.5 10.9 222 222 222
20.0 -3.5 10.9 222 222 222
20.3 -3.5 10.9 222 222 222
20.5 -3.5 10.9 222 222 222
20.7 -3.5 10.9 222 222 222
21.1 -3.5 10.9 222 222 222
21.3 -3.5 10.9 222 222 222
21.6 -3.5 10.9 222 222 222
21.7 -3.5 10.9 222 222 222
22.0 -3.5 10.9 222 222 222
22.3 -3.5 10.9 220 220 220
17.2 -3.3 11.0 220 220 220
17.3 -3.3 11.0 220 220 220
18.6 -3.3 11.0 224 224 224
18.8 -3.3 11.0 224 224 224
19.1 -3.3 11.0 224 224 224
19.3 -3.3 11.0 224 224 224
19.6 -3.3 11.0 224 224 224
19.8 -3.3 11.0 224 224 224
20.4 -3.3 11.0 224 224 224
21.1 -3.3 11.0 224 224 224
21.4 -3.3 11.0 224 224 224
21.6 -3.3 11.0 224 224 224
22.4 -3.3 11.0 224 224 224
17.2 -3.1 11.1 221 221 221
17.4 -3.1 11.0 221 221 221
19.4 -3.1 11.0 227 227 227
19.7 -3.1 11.0 225 225 225
19.9 -3.1 11.0 225 225 225
20.5 -3.1 11.0 225 225 225
21.3 -3.1 11.0 225 225 225
21.5 -3.1 11.0 225 225 225
21.7 -3.1 11.0 225 225 225
-99.5 -17.2 67.8 22 25 23
21.6 -2.8 11.1 225 225 225
25.5 -2.9 12.4 218 221 220
-115.6 -16.1 77.5 22 25 23
-100.9 -14.3 68.8 22 25 23
25.3 -2.6 12.5 222 222 222
25.6 -2.6 12.5 222 222 222
25.9 -2.6 12.5 218 221 220
-117.5 -14.6 78.8 22 25 23
-101.3 -12.7 69.0 22 25 23
25.3 -2.3 12.7 224 224 224
25.4 -2.3 12.6 224 224 224
25.7 -2.3 12.6 219 222 221
25.9 -2.3 12.6 219 222 221
330.1 -23.4 127.0 75 76 76
295.4 -20.8 112.6 66 68 67
-121.0 -13.1 81.2 22 25 23
25.4 -2.0 12.6 224 224 224
25.7 -2.0 12.6 227 227 227
25.9 -2.0 12.6 219 222 221
332.4 -20.6 127.8 77 77 77
25.7 -1.8 12.9 228 228 228
25.7 -1.7 12.6 225 225 225
26.0 -1.7 12.6 225 225 225
21.4 -1.3 11.0 225 225 225
21.7 -1.3 11.0 225 225 225
25.8 -1.5 12.9 225 225 225
26.1 -1.5 12.9 220 223 222
25.7 -1.4 12.6 225 225 225
26.0 -1.4 12.6 220 223 222
21.4 -1.0 11.1 222 224 224
21.6 -1.0 11.1 222 224 224
25.7 -1.2 13.0 222 224 224
25.8 -1.2 12.9 222 224 224
26.1 -1.2 12.9 222 224 224
25.7 -1.2 12.6 222 224 224
26.0 -1.2 12.6 222 224 224
25.6 -1.1 12.3 174 176 176
25.7 -0.9 12.9 223 225 225
25.4 -0.9 12.4 222 224 224
25.9 -0.9 12.5 219 222 221
25.7 -0.8 12.3 177 180 179
79.3 0.0 21.6 100 100 100
78.4 0.5 21.5 137 139 138
78.8 0.5 21.5 95 98 97
77.7 1.0 21.2 96 99 98
77.9 1.5 21.2 94 97 96
80.0 1.5 21.1 87 87 87
79.0 2.0 21.5 95 98 97
81.4 2.0 21.5 92 92 92
80.7 2.0 21.2 166 169 168
80.2 2.6 21.8 95 98 97
82.5 2.6 22.1 87 86 84
83.0 2.6 22.0 90 90 90
83.0 2.6 21.9 95 95 95
82.2 2.5 21.6 160 160 160
84.0 3.1 22.3 89 89 89
84.2 3.1 22.3 96 96 96
84.2 3.7 22.4 90 90 90
603.9 44.3 236.5 170 172 172
529.9 38.5 205.6 173 175 175
63.2 3.1 16.8 92 92 92
102.2 19.3 91.8 22 22 22
240.2 20.7 98.5 202 202 202
603.9 49.8 236.5 186 188 187
240.9 19.3 91.8 131 131 131
674.2 62.3 266.4 191 191 191
611.5 56.0 239.4 193 193 193
580.3 52.6 225.2 194 194 194
108.7 6.7 28.5 74 73 71
110.2 6.7 28.7 168 168 168
698.6 73.6 286.6 191 191 191
725.3 73.6 286.6 191 191 191
652.8 65.7 255.6 194 194 194
609.4 60.8 236.5 194 194 194
1345.4 101.3 394.1 74 74 72
109.8 7.4 28.8 180 179 177
110.8 7.4 28.9 168 168 168
107.7 7.9 28.3 129 132 131
109.8 8.7 28.8 141 143 142
110.5 8.7 28.8 155 155 155
111.0 9.5 29.1 150 150 150
-51.5 23.6 46.0 222 222 222
-50.6 24.3 45.3 227 230 229
-47.7 23.4 43.6 156 159 158
-46.8 23.4 43.7 104 104 104
-45.9 23.5 43.8 100 100 100
-29.4 5.8 10.5 48 48 48
-54.1 26.5 47.4 190 190 190
-51.5 25.7 46.0 98 100 100
-88.5 43.4 74.5 125 125 125
256.1 324.0 356.9 20 20 20
282.8 366.9 394.1 18 18 18
27.6 17.4 11.7 188 190 190
27.6 17.2 11.5 207 210 209
27.7 17.1 11.5 211 211 211
28.0 17.1 11.5 214 214 214
40.3 17.2 11.6 105 105 105
40.3 17.1 11.5 108 108 108
41.6 17.1 11.5 109 111 111
43.3 17.3 11.6 141 141 141
27.4 17.4 11.5 207 210 209
27.7 17.3 11.5 217 217 217
40.0 17.4 11.5 105 105 105
40.2 17.3 11.5 105 105 105
41.3 17.4 11.5 109 111 111
41.5 17.3 11.5 109 111 111
41.6 17.2 11.4 109 111 111
42.7 17.4 11.5 136 138 137
42.9 17.3 11.5 133 133 133
43.1 17.3 11.4 79 78 77
24.9 17.1 11.2 183 183 183
25.4 17.1 11.2 202 202 202
25.6 17.1 11.2 212 213 212
27.0 17.1 11.2 170 171 170
32.2 17.1 11.2 99 99 99
