ply
format ascii 1.0
element vertex 2297
property float x
property float y
property float z
property uchar red
property uchar green
property uchar blue
end_header
136.0 -778.1 310.1 161 161 161
143.2 -778.1 310.1 160 160 160
150.5 -778.1 310.1 160 160 160
157.7 -778.1 310.1 163 163 163
164.9 -778.1 310.1 163 163 163
172.1 -778.1 310.1 162 162 162
179.3 -778.1 310.1 162 162 162
186.5 -778.1 310.1 159 159 159
193.7 -778.1 310.1 162 162 162
200.9 -778.1 310.1 164 164 164
208.1 -778.1 310.1 164 164 164
215.3 -778.1 310.1 164 164 164
222.5 -778.1 310.1 164 164 164
229.7 -778.1 310.1 164 164 164
236.9 -778.1 310.1 165 165 165
244.2 -778.1 310.1 165 165 165
251.4 -778.1 310.1 165 165 165
258.6 -778.1 310.1 165 165 165
265.8 -778.1 310.1 165 165 165
273.0 -778.1 310.1 165 165 165
280.2 -778.1 310.1 165 165 165
287.4 -778.1 310.1 163 163 163
294.6 -778.1 310.1 165 165 165
301.8 -778.1 310.1 165 165 165
309.0 -778.1 310.1 165 165 165
316.2 -778.1 310.1 165 165 165
323.4 -778.1 310.1 165 165 165
336.2 -791.0 315.3 166 166 166
337.9 -778.1 310.1 163 163 163
339.5 -765.5 305.1 160 160 160
352.3 -778.1 310.1 163 163 163
359.5 -778.1 310.1 163 163 163
372.8 -791.0 315.3 163 163 163
373.9 -778.1 310.1 166 166 166
381.1 -778.1 310.1 163 163 163
388.3 -778.1 310.1 160 160 160
389.1 -765.5 305.1 160 160 160
396.2 -765.5 305.1 160 160 160
416.8 -791.0 315.3 161 161 161
417.1 -778.1 310.1 161 161 161
431.4 -791.0 315.3 161 161 161
431.6 -778.1 310.1 161 161 161
438.8 -778.1 310.1 157 160 159
453.4 -791.0 315.3 157 160 159
95.2 -153.6 61.2 157 160 159
98.2 -156.1 62.2 155 158 157
53.1 -76.6 30.5 158 161 160
53.6 -76.3 30.4 158 161 160
54.3 -76.2 30.4 158 161 160
55.0 -76.3 30.4 159 162 161
55.7 -76.2 30.4 159 162 161
56.3 -76.1 30.3 160 163 162
57.0 -76.1 30.3 158 158 158
57.8 -76.2 30.4 159 159 159
58.6 -76.3 30.4 159 159 159
59.1 -76.1 30.3 155 155 155
70.1 -50.5 20.1 95 95 95
315.8 -627.0 252.2 163 163 163
206.2 -401.9 161.7 163 163 163
210.0 -401.9 161.7 164 164 164
312.6 -587.8 236.5 164 164 164
292.5 -540.5 217.4 164 164 164
315.7 -573.4 230.7 164 164 164
302.6 -540.5 217.4 164 164 164
118.5 -198.4 79.8 161 161 161
124.6 -199.2 80.2 157 160 159
116.1 -183.0 73.6 162 162 162
118.8 -184.4 74.2 158 161 160
115.1 -176.1 70.8 159 162 161
54.2 -76.3 30.7 158 161 160
54.4 -75.7 30.5 158 161 160
115.3 -86.9 35.0 105 105 105
71.5 -51.4 20.7 95 98 97
58.9 -38.9 15.6 196 199 198
35.7 -190.1 77.2 163 163 163
37.8 -191.7 77.8 160 160 160
42.8 -190.1 77.2 162 162 162
44.6 -190.1 77.2 164 164 164
46.4 -190.1 77.2 164 164 164
48.2 -190.1 77.2 164 164 164
50.0 -190.1 77.2 164 164 164
51.8 -190.1 77.2 167 167 167
53.6 -190.1 77.2 167 167 167
55.4 -190.1 77.2 167 167 167
57.2 -190.1 77.2 167 167 167
59.0 -190.1 77.2 168 168 168
60.8 -190.1 77.2 168 168 168
62.6 -190.1 77.2 165 165 165
64.4 -190.1 77.2 168 168 168
66.2 -190.1 77.2 168 168 168
68.0 -190.1 77.2 168 168 168
69.8 -190.1 77.2 168 168 168
71.6 -190.1 77.2 168 168 168
73.4 -190.1 77.2 165 165 165
75.5 -190.9 77.5 165 165 165
76.9 -190.1 77.2 165 165 165
78.4 -189.4 76.9 165 165 165
80.2 -189.4 76.9 165 165 165
82.3 -190.1 77.2 166 166 166
84.1 -190.1 77.2 163 163 163
86.3 -190.9 77.5 166 166 166
87.7 -190.1 77.2 163 163 163
89.5 -190.1 77.2 163 163 163
90.9 -189.4 76.9 163 163 163
93.1 -190.1 77.2 163 163 163
94.5 -189.4 76.9 163 163 163
97.5 -191.7 77.8 163 163 163
99.3 -191.7 77.8 163 163 163
100.3 -190.1 77.2 164 164 164
101.7 -189.4 76.9 164 164 164
103.0 -188.6 76.6 164 164 164
107.9 -194.1 78.8 164 164 164
111.1 -196.5 79.8 164 164 164
110.6 -192.5 78.2 164 164 164
112.4 -192.5 78.2 164 164 164
115.7 -194.9 79.1 161 161 161
115.1 -190.9 77.5 161 161 161
108.9 -177.8 72.2 161 161 161
119.7 -192.5 78.2 161 161 161
121.0 -191.7 77.8 161 161 161
121.8 -190.1 77.2 165 165 165
125.1 -192.5 78.2 162 162 162
121.0 -183.4 74.5 163 163 163
55.0 -76.9 31.2 161 164 163
55.2 -76.1 30.9 158 161 160
62.0 -78.3 31.8 160 160 160
112.2 -83.8 34.0 104 103 101
70.4 -50.1 20.3 95 98 97
56.9 -38.2 15.5 196 196 196
56.2 -37.5 15.2 196 199 198
58.8 -38.9 15.8 205 205 205
58.4 -38.5 15.6 162 165 164
57.7 -37.8 15.3 159 159 159
57.4 -37.4 15.2 212 213 212
57.8 -37.4 15.2 180 183 182
58.1 -37.3 15.2 191 191 191
29.7 -165.4 67.8 161 161 161
32.0 -160.8 65.9 163 163 163
34.6 -166.0 68.0 163 163 163
34.9 -160.2 65.7 165 165 165
36.4 -160.2 65.7 164 164 164
39.3 -166.0 68.0 167 167 167
40.9 -166.0 68.0 167 167 167
41.0 -160.2 65.7 167 167 167
42.6 -160.2 65.7 167 167 167
44.1 -160.2 65.7 167 167 167
47.1 -165.4 67.8 167 167 167
47.3 -160.8 65.9 169 171 170
48.7 -160.2 65.7 169 171 170
50.2 -160.2 65.7 170 172 172
51.7 -160.2 65.7 170 172 172
53.2 -160.2 65.7 168 168 168
54.8 -160.2 65.7 168 168 168
56.3 -160.2 65.7 168 168 168
59.9 -166.0 68.0 168 168 168
61.3 -165.4 67.8 168 168 168
60.9 -160.2 65.7 168 168 168
64.4 -165.4 67.8 165 165 165
63.9 -160.2 65.7 165 165 165
66.1 -161.9 66.4 165 165 165
67.0 -160.2 65.7 165 165 165
69.2 -161.9 66.4 165 165 165
69.5 -159.1 65.2 166 166 166
71.6 -160.2 65.7 166 166 166
73.1 -160.2 65.7 166 166 166
75.1 -161.3 66.1 166 166 166
76.1 -160.2 65.7 163 163 163
79.6 -164.2 67.3 163 163 163
81.2 -164.2 67.3 166 166 166
80.4 -159.7 65.5 166 166 166
83.1 -161.9 66.4 166 166 166
84.7 -161.9 66.4 166 166 166
85.9 -161.3 66.1 166 166 166
89.3 -164.8 67.6 166 166 166
88.4 -160.2 65.7 166 166 166
90.5 -161.3 66.1 166 166 166
102.0 -178.8 73.3 164 164 164
92.9 -160.2 65.7 164 164 164
97.9 -166.0 68.0 167 167 167
105.9 -176.8 72.5 164 164 164
104.0 -170.9 70.1 164 164 164
98.4 -159.1 65.2 164 164 164
115.7 -178.8 73.3 165 165 165
118.3 -180.2 73.9 165 165 165
112.9 -169.6 69.5 166 166 166
103.5 -153.3 62.8 166 166 166
110.8 -82.0 33.6 104 103 101
94.8 -69.2 28.4 98 100 100
90.5 -65.5 26.9 98 100 100
68.8 -48.5 19.9 95 98 97
66.8 -46.8 19.2 95 95 95
54.9 -36.5 15.0 196 196 196
54.5 -36.0 14.8 196 196 196
56.3 -36.5 15.0 212 213 212
55.9 -36.0 14.8 196 199 198
55.7 -35.7 14.6 193 193 193
55.9 -35.6 14.6 215 215 215
52.5 -119.0 49.3 166 166 166
59.1 -112.0 46.4 166 166 166
58.8 -109.3 45.3 166 166 166
66.3 -121.2 50.2 166 166 166
71.1 -123.5 51.1 170 171 170
72.7 -124.2 51.4 167 167 167
58.6 -91.0 37.7 167 167 167
124.3 -190.4 78.8 168 168 168
128.3 -193.7 80.2 168 168 168
121.9 -181.4 75.1 166 166 166
107.8 -158.1 65.5 166 166 166
108.7 -79.6 33.0 104 103 101
103.5 -75.3 31.2 104 103 101
88.3 -63.4 26.2 98 100 100
68.3 -47.7 19.7 95 95 95
65.6 -45.5 18.8 95 95 95
64.0 -44.1 18.2 90 90 90
53.2 -34.8 14.4 196 196 196
52.1 -33.9 14.0 188 188 188
55.9 -35.9 14.8 209 209 209
54.8 -35.0 14.5 180 183 182
54.1 -34.3 14.2 215 215 215
54.2 -34.2 14.1 215 215 215
34.3 -101.3 42.3 168 168 168
35.3 -101.3 42.3 168 168 168
36.3 -101.3 42.3 168 168 168
37.3 -101.3 42.3 168 168 168
38.2 -101.3 42.3 168 168 168
39.1 -101.0 42.2 168 168 168
40.1 -101.0 42.2 168 168 168
43.4 -101.9 42.6 168 168 168
44.1 -101.3 42.3 168 168 168
45.2 -101.5 42.4 168 168 168
46.0 -101.0 42.2 169 169 169
47.0 -101.0 42.2 169 169 169
49.3 -101.7 42.5 169 169 169
49.9 -101.0 42.2 169 169 169
50.9 -101.0 42.2 169 169 169
52.0 -101.3 42.3 169 169 169
53.7 -102.6 42.9 171 173 173
55.1 -103.3 43.2 171 173 173
55.0 -101.3 42.3 171 173 173
56.2 -101.7 42.5 171 173 173
58.5 -104.1 43.5 169 169 169
59.1 -103.3 43.2 169 169 169
60.1 -103.3 43.2 172 174 174
61.4 -103.8 43.4 172 174 174
133.6 -205.7 86.0 170 171 170
124.3 -188.6 78.8 173 175 175
127.2 -190.2 79.5 172 172 172
122.4 -180.3 75.4 172 172 172
107.0 -77.6 32.4 104 103 101
100.5 -72.4 30.3 104 103 101
85.7 -60.9 25.5 98 100 100
64.1 -44.0 18.4 95 95 95
62.8 -42.9 17.9 92 92 92
61.1 -41.4 17.3 92 92 92
51.7 -33.3 13.9 162 165 164
54.6 -34.5 14.4 215 215 215
53.6 -33.7 14.1 218 218 218
53.9 -33.7 14.1 218 218 218
34.6 -93.2 39.3 170 172 172
35.5 -93.0 39.2 170 172 172
36.5 -93.4 39.4 170 172 172
32.2 -78.4 33.1 168 168 168
32.7 -77.8 32.8 170 172 172
38.3 -78.2 33.0 171 173 173
39.0 -78.2 33.0 171 173 173
39.8 -78.2 33.0 171 173 173
49.0 -94.6 39.9 171 173 173
52.1 -96.8 40.9 174 176 176
51.8 -92.8 39.2 171 173 173
44.2 -77.8 32.8 174 176 176
55.9 -96.8 40.9 171 173 173
54.8 -93.4 39.4 172 174 174
56.8 -95.2 40.2 172 174 174
52.0 -78.1 33.0 176 179 178
124.6 -184.5 77.8 173 175 175
120.0 -175.1 73.9 173 175 175
97.4 -69.5 29.3 104 103 101
79.1 -55.3 23.3 98 100 100
63.8 -43.4 18.3 95 95 95
61.7 -41.7 17.6 92 92 92
60.2 -40.4 17.0 90 90 90
58.9 -39.2 16.6 92 92 92
25.2 -77.5 33.0 170 172 172
27.5 -77.5 33.0 170 172 172
31.4 -77.5 33.0 170 172 172
32.1 -77.3 33.0 173 175 175
32.7 -77.1 32.8 170 172 172
36.0 -77.5 33.0 178 178 178
37.6 -77.6 33.1 174 176 176
38.2 -77.3 33.0 174 176 176
38.9 -77.2 32.9 174 176 176
39.7 -77.2 32.9 174 176 176
44.1 -76.9 32.8 171 173 173
50.6 -86.7 36.9 179 179 179
51.4 -86.7 36.9 179 179 179
53.6 -88.9 37.9 179 179 179
53.1 -86.7 36.9 182 182 182
138.7 -209.4 89.2 179 179 179
129.2 -192.1 81.9 180 180 180
52.6 -77.1 32.8 176 179 178
122.9 -177.5 75.7 173 175 175
73.6 -50.6 21.6 98 100 100
59.9 -39.8 17.0 92 92 92
57.0 -37.6 16.0 92 92 92
55.6 -36.5 15.5 95 95 95
46.1 -28.4 12.1 218 218 218
41.9 -72.4 31.2 203 203 203
42.0 -71.3 30.7 200 200 200
51.0 -85.2 36.7 203 203 203
52.3 -85.8 36.9 200 200 200
50.3 -81.2 35.0 200 200 200
168.4 -255.5 110.0 200 200 200
141.4 -211.3 90.9 200 200 200
132.0 -194.4 83.7 198 198 198
52.5 -76.2 32.8 202 202 202
127.5 -182.3 78.5 198 198 198
162.1 -225.4 97.0 203 203 203
69.0 -46.6 20.1 98 100 100
67.1 -45.0 19.4 98 100 100
39.3 -24.1 10.4 209 209 209
39.5 -24.1 10.4 218 218 218
41.9 -71.6 31.1 203 203 203
42.1 -70.7 30.8 203 203 203
48.2 -79.7 34.6 203 203 203
48.8 -79.4 34.5 203 203 203
45.7 -71.9 31.3 206 206 206
46.0 -71.3 31.0 203 203 203
177.7 -266.9 116.1 203 203 203
149.3 -220.8 96.0 203 203 203
132.6 -193.4 84.1 204 204 204
50.3 -72.3 31.4 204 204 204
53.3 -75.5 32.8 204 204 204
169.9 -233.9 101.7 205 205 205
26.5 -34.5 15.0 204 204 204
26.7 -34.4 15.0 207 207 207
68.4 -45.8 19.9 98 100 100
38.9 -23.6 10.3 176 176 176
38.8 -23.4 10.2 215 215 215
38.7 -23.2 10.1 218 218 218
42.4 -71.8 31.5 206 206 206
40.6 -67.6 29.7 206 206 206
46.5 -72.5 31.8 206 206 206
46.7 -71.5 31.4 206 206 206
181.0 -269.2 118.2 203 203 203
150.0 -219.7 96.5 203 203 203
140.1 -202.2 88.8 204 204 204
50.6 -72.0 31.6 204 204 204
53.0 -74.2 32.6 204 204 204
55.2 -76.2 33.5 205 205 205
172.7 -235.3 103.4 205 205 205
27.7 -36.7 16.1 206 206 206
27.5 -36.0 15.8 206 206 206
26.8 -34.1 15.0 204 204 204
42.0 -70.3 31.2 206 206 206
50.2 -78.6 34.9 206 206 206
47.5 -73.2 32.5 206 206 206
46.1 -70.0 31.1 206 206 206
150.8 -218.6 97.0 206 206 206
140.8 -201.1 89.2 204 204 204
53.2 -73.9 32.8 204 204 204
55.5 -76.0 33.7 205 205 205
168.1 -226.7 100.6 205 205 205
27.8 -36.5 16.2 206 206 206
27.4 -35.0 15.5 206 206 206
27.0 -34.0 15.1 207 207 207
45.5 -76.8 34.5 206 206 206
47.8 -76.6 34.3 209 209 209
52.0 -81.9 36.7 206 206 206
50.6 -78.4 35.2 206 206 206
48.9 -74.7 33.5 206 206 206
45.8 -67.7 30.4 206 206 206
153.1 -219.7 98.5 206 206 206
142.8 -201.8 90.5 206 206 206
53.4 -73.4 32.9 207 207 207
55.9 -75.7 34.0 207 207 207
56.5 -75.5 33.8 207 207 207
27.8 -36.1 16.2 208 208 208
27.1 -34.2 15.4 206 206 206
26.9 -33.6 15.1 206 206 206
23.6 -24.6 11.0 160 160 160
46.8 -78.2 35.4 208 208 208
39.6 -63.8 28.9 208 208 208
53.5 -83.5 37.8 208 208 208
52.6 -80.7 36.6 208 208 208
49.3 -74.4 33.7 208 208 208
48.0 -71.4 32.3 208 208 208
53.5 -72.7 33.0 206 206 206
56.1 -75.2 34.1 206 206 206
57.2 -75.6 34.3 207 207 207
27.1 -33.9 15.3 205 205 205
26.8 -33.1 15.0 206 206 206
41.6 -67.6 31.0 208 208 208
54.0 -83.3 38.1 208 208 208
54.0 -82.0 37.5 208 208 208
50.7 -75.8 34.7 208 208 208
48.3 -71.1 32.6 208 208 208
46.1 -66.7 30.6 208 208 208
55.9 -74.2 34.0 206 206 206
58.0 -75.8 34.7 206 206 206
27.7 -34.8 15.9 207 207 207
27.4 -33.9 15.5 207 207 207
26.9 -32.9 15.0 207 207 207
41.2 -66.1 30.6 207 207 207
39.4 -62.2 28.8 207 207 207
54.2 -81.4 37.7 207 207 207
49.4 -73.0 33.8 207 207 207
45.8 -65.6 30.4 207 207 207
27.7 -34.4 15.9 206 206 206
27.7 -33.9 15.7 206 206 206
27.3 -33.1 15.3 207 207 207
-9.4 -22.8 10.7 138 140 139
-9.3 -23.0 10.8 140 139 138
37.9 -59.2 27.7 210 210 210
53.9 -80.1 37.5 207 207 207
42.1 -58.8 27.5 206 206 206
29.6 -40.7 19.0 207 207 207
29.9 -40.5 19.0 207 207 207
27.9 -34.2 16.0 206 206 206
27.8 -33.7 15.8 206 206 206
27.7 -33.1 15.5 206 206 206
-37.1 -27.9 13.2 48 48 48
-31.9 -27.9 13.2 43 43 43
-23.5 -23.0 10.9 37 38 37
-28.5 -28.1 13.3 37 38 37
-27.9 -27.9 13.2 37 38 37
-27.5 -27.8 13.1 41 41 41
-27.4 -28.0 13.2 43 43 43
-26.9 -27.7 13.1 43 43 43
-26.5 -27.7 13.1 46 46 44
-26.3 -27.8 13.1 46 46 44
-20.6 -23.1 10.9 92 92 92
-24.6 -28.0 13.2 97 100 99
-24.1 -27.7 13.1 98 100 100
-19.3 -23.1 10.9 102 102 102
-18.5 -23.0 10.9 106 106 106
-14.4 -22.9 10.8 119 121 120
-10.3 -23.3 11.0 132 135 134
-9.9 -23.1 10.9 135 135 135
-9.6 -22.9 10.8 136 136 136
-9.4 -23.1 10.9 136 138 137
-11.1 -27.9 13.2 138 137 136
37.9 -58.5 27.7 209 209 209
53.8 -79.0 37.4 206 206 206
43.5 -61.0 28.9 206 206 206
42.1 -58.1 27.5 206 206 206
29.3 -39.9 18.9 206 206 206
29.7 -39.8 18.8 206 206 206
46.6 -59.9 28.3 207 207 207
28.0 -34.0 16.1 205 205 205
28.2 -33.8 16.0 205 205 205
28.3 -33.5 15.8 205 205 205
26.3 -28.8 13.6 205 205 205
-37.0 -27.5 13.1 51 51 51
-36.7 -27.5 13.1 51 51 51
-36.4 -27.5 13.1 51 51 51
-36.1 -27.5 13.1 51 51 51
-35.8 -27.5 13.1 51 51 51
-35.4 -27.4 13.1 49 49 49
-35.2 -27.5 13.1 51 51 51
-34.5 -27.5 13.1 53 53 53
-34.2 -27.5 13.1 51 51 51
-33.9 -27.4 13.1 51 51 51
-33.6 -27.4 13.1 49 49 49
-33.4 -27.5 13.2 49 49 49
-31.8 -27.5 13.1 44 44 44
-31.5 -27.5 13.1 44 44 44
-31.1 -27.4 13.1 44 44 44
-30.9 -27.5 13.1 44 44 44
-29.4 -27.5 13.1 44 44 44
-28.8 -27.5 13.1 42 42 42
-28.3 -27.4 13.1 38 38 38
-27.9 -27.6 13.2 39 39 39
-27.5 -27.5 13.1 39 39 39
-27.6 -27.8 13.3 39 39 39
-26.9 -27.4 13.1 42 43 42
-26.4 -27.3 13.0 42 43 42
-26.3 -27.5 13.1 44 44 44
-25.9 -27.4 13.1 44 44 44
-24.9 -27.6 13.2 80 80 80
-24.5 -27.5 13.1 94 94 94
-24.1 -27.4 13.1 94 94 94
10.3 -27.5 13.1 209 209 209
10.6 -27.5 13.1 209 209 209
10.9 -27.4 13.1 209 209 209
11.4 -27.7 13.2 209 209 209
11.7 -27.8 13.3 209 209 209
11.9 -27.5 13.1 209 209 209
12.2 -27.4 13.1 209 209 209
12.8 -27.5 13.1 209 209 209
13.1 -27.4 13.1 209 209 209
16.8 -28.0 13.4 209 209 209
16.8 -27.5 13.1 209 209 209
17.0 -27.4 13.1 209 209 209
37.4 -57.1 27.3 209 209 209
42.2 -58.5 28.0 205 205 205
41.9 -57.1 27.3 205 205 205
41.1 -53.7 25.7 206 206 206
28.0 -33.6 16.1 204 204 204
28.4 -33.3 15.9 205 205 205
26.2 -28.4 13.6 206 206 206
-30.5 -29.5 14.3 42 43 42
-30.2 -29.5 14.3 40 40 40
-29.8 -29.4 14.2 40 40 40
-29.3 -29.2 14.1 40 40 40
-20.8 -22.8 11.0 46 46 46
10.6 -29.5 14.3 209 209 209
10.9 -29.5 14.3 209 209 209
11.2 -29.4 14.2 209 209 209
11.0 -28.2 13.6 209 209 209
12.2 -29.4 14.2 209 209 209
12.6 -29.5 14.3 209 209 209
12.9 -29.5 14.3 209 209 209
13.5 -29.4 14.2 209 209 209
13.2 -28.1 13.6 209 209 209
14.5 -29.4 14.2 209 209 209
14.8 -29.4 14.2 209 209 209
17.2 -29.5 14.3 208 208 208
17.5 -29.4 14.2 208 208 208
36.8 -54.6 26.4 208 208 208
41.5 -56.8 27.5 208 208 208
41.1 -55.5 26.8 208 208 208
41.1 -53.1 25.7 205 205 205
43.8 -55.8 27.0 206 206 206
44.2 -55.5 26.8 206 206 206
28.1 -32.1 15.5 207 207 207
26.2 -27.7 13.4 206 206 206
26.0 -27.2 13.2 206 206 206
-31.1 -30.0 14.7 44 44 44
-30.2 -29.5 14.4 44 44 44
-19.9 -21.8 10.7 42 43 42
-14.2 -21.9 10.7 112 112 112
-13.9 -29.7 14.5 71 70 69
14.8 -29.6 14.5 208 208 208
17.8 -29.6 14.5 208 208 208
18.0 -29.4 14.4 208 208 208
41.6 -56.4 27.6 207 207 207
41.4 -55.2 27.0 207 207 207
40.4 -51.6 25.2 205 205 205
27.8 -31.8 15.6 206 206 206
27.6 -31.1 15.2 209 209 209
25.8 -27.0 13.2 205 205 205
25.9 -26.8 13.1 205 205 205
38.2 -20.9 10.2 119 119 119
-32.1 -30.6 15.2 45 45 45
-15.2 -30.7 15.2 32 31 30
-14.9 -30.7 15.2 29 30 28
8.4 -30.7 15.2 208 208 208
8.8 -30.7 15.2 208 208 208
9.1 -30.7 15.2 208 208 208
15.9 -30.8 15.2 208 208 208
16.2 -30.6 15.2 208 208 208
16.6 -30.7 15.2 207 207 207
18.0 -31.4 15.5 207 207 207
18.1 -30.9 15.3 207 207 207
18.3 -30.7 15.2 207 207 207
18.6 -30.6 15.1 207 207 207
42.1 -56.4 27.9 207 207 207
41.9 -55.2 27.3 207 207 207
42.0 -54.6 27.0 207 207 207
40.9 -51.6 25.5 207 207 207
44.6 -55.5 27.5 207 207 207
45.9 -56.3 27.9 208 208 208
49.0 -59.3 29.3 208 208 208
27.7 -30.9 15.3 206 206 206
25.9 -26.8 13.3 204 204 204
26.0 -26.6 13.2 205 205 205
38.1 -20.6 10.2 122 122 122
37.7 -20.2 10.0 115 117 116
-37.9 -34.2 17.1 47 48 47
-37.5 -34.2 17.1 47 48 47
-34.2 -31.9 16.0 47 48 47
-33.7 -31.8 15.9 47 48 47
-34.3 -34.3 17.1 43 43 43
-31.1 -34.3 17.1 43 43 43
-30.5 -34.0 17.0 43 43 43
-16.7 -31.9 15.9 27 27 27
-16.3 -31.8 15.9 26 26 26
-16.0 -31.9 16.0 26 26 26
-16.8 -34.2 17.1 27 27 27
7.5 -24.8 12.4 208 208 208
7.8 -24.8 12.4 208 208 208
8.0 -24.8 12.4 208 208 208
8.3 -24.8 12.4 208 208 208
8.6 -24.8 12.4 208 208 208
8.9 -24.8 12.4 208 208 208
9.2 -24.8 12.4 208 208 208
9.5 -24.8 12.4 207 207 207
9.8 -24.8 12.4 207 207 207
10.1 -24.8 12.4 207 207 207
10.3 -24.8 12.4 207 207 207
10.6 -24.8 12.4 207 207 207
10.9 -24.7 12.4 207 207 207
11.2 -24.8 12.4 207 207 207
11.5 -24.9 12.4 207 207 207
11.8 -24.8 12.4 207 207 207
12.1 -24.8 12.4 207 207 207
12.4 -24.8 12.4 207 207 207
12.6 -24.8 12.4 207 207 207
12.9 -24.8 12.4 207 207 207
13.3 -24.9 12.4 207 207 207
13.5 -24.8 12.4 207 207 207
13.9 -24.9 12.5 207 207 207
14.1 -24.9 12.4 207 207 207
15.3 -24.9 12.4 207 207 207
15.6 -24.8 12.4 207 207 207
15.9 -24.9 12.5 207 207 207
16.1 -24.8 12.4 207 207 207
16.3 -24.7 12.4 207 207 207
16.7 -24.8 12.4 207 207 207
17.0 -24.9 12.4 207 207 207
17.3 -24.9 12.4 206 206 206
17.6 -24.8 12.4 206 206 206
17.9 -24.8 12.4 206 206 206
18.2 -24.8 12.4 206 206 206
42.3 -56.0 28.0 206 206 206
41.8 -54.5 27.3 206 206 206
41.1 -51.3 25.7 207 207 207
44.9 -55.2 27.7 207 207 207
46.7 -56.7 28.4 207 207 207
48.4 -57.9 29.0 207 207 207
26.2 -26.6 13.3 204 204 204
26.6 -26.6 13.3 204 204 204
38.1 -20.4 10.2 122 122 122
37.9 -20.1 10.1 119 119 119
-28.1 -24.8 12.6 48 48 48
-27.6 -24.6 12.5 48 48 48
-27.2 -24.8 12.5 48 48 48
-25.3 -24.7 12.5 44 44 44
-25.0 -24.7 12.5 44 44 44
-22.6 -24.6 12.5 41 40 38
-22.4 -24.6 12.5 41 40 38
-22.1 -24.6 12.5 41 41 39
-16.1 -31.1 15.7 29 29 29
-15.9 -31.4 15.9 28 28 28
-12.9 -25.9 13.1 29 31 29
-10.7 -24.5 12.4 32 32 32
-10.5 -24.7 12.5 34 34 34
8.1 -24.6 12.5 209 209 209
9.3 -24.8 12.5 209 209 209
9.6 -24.7 12.5 209 209 209
9.9 -24.8 12.6 209 209 209
10.4 -24.7 12.5 209 209 209
10.7 -24.6 12.5 207 207 207
11.9 -25.9 13.1 207 207 207
12.4 -24.7 12.5 207 207 207
12.7 -24.6 12.5 207 207 207
14.2 -24.7 12.5 206 206 206
14.5 -24.6 12.5 206 206 206
16.5 -26.1 13.2 206 206 206
16.2 -24.7 12.5 206 206 206
16.5 -24.6 12.5 206 206 206
17.7 -24.7 12.5 206 206 206
18.0 -24.7 12.5 206 206 206
42.3 -55.4 28.1 206 206 206
41.7 -53.7 27.2 206 206 206
55.4 -70.3 35.6 206 206 206
41.2 -50.8 25.7 206 206 206
47.5 -56.9 28.8 206 206 206
49.6 -58.6 29.7 207 207 207
27.8 -30.3 15.4 205 205 205
26.2 -26.5 13.4 203 203 203
26.3 -26.3 13.3 203 203 203
26.6 -26.3 13.3 203 203 203
38.2 -20.2 10.2 124 124 124
38.3 -20.1 10.2 118 118 118
-36.6 -25.3 13.0 58 58 58
-36.4 -25.4 13.0 59 61 59
-36.0 -25.4 13.0 59 61 59
-35.7 -25.4 13.0 59 61 59
-35.4 -25.4 13.0 59 61 59
-35.1 -25.4 13.0 59 61 59
-34.8 -25.4 13.0 59 61 59
-34.6 -25.4 13.0 59 61 59
-34.3 -25.4 13.0 59 61 59
-33.9 -25.4 13.0 59 61 59
-33.6 -25.4 13.0 59 61 59
-33.3 -25.4 13.0 63 63 63
-33.0 -25.4 13.0 59 61 59
-32.1 -25.4 13.0 55 55 55
-31.8 -25.4 13.0 56 56 56
-31.3 -25.5 13.0 52 52 50
-30.6 -25.4 13.0 49 49 49
-29.5 -25.5 13.0 49 49 49
-29.0 -25.3 13.0 49 49 49
-28.8 -25.4 13.0 49 49 49
-28.5 -25.4 13.0 49 49 49
-28.0 -25.3 12.9 49 49 49
-27.7 -25.5 13.1 50 50 50
-27.2 -25.4 13.0 47 48 47
-27.1 -25.6 13.1 50 50 50
-26.5 -25.3 12.9 50 50 50
-26.2 -25.3 12.9 45 45 45
-26.1 -25.5 13.1 45 45 45
-24.9 -25.5 13.0 44 44 44
-24.7 -25.5 13.1 42 42 42
-24.2 -25.4 13.0 42 43 42
-23.8 -25.3 12.9 41 41 39
-22.7 -25.4 13.0 42 42 40
-22.4 -25.3 13.0 42 42 40
-22.0 -25.3 13.0 40 40 40
-12.8 -25.5 13.1 29 31 29
-12.5 -25.4 13.0 29 31 29
-11.5 -25.3 13.0 32 31 30
-10.7 -24.9 12.7 35 35 35
16.5 -25.6 13.1 203 203 203
16.5 -25.3 13.0 206 206 206
18.4 -25.4 13.0 205 205 205
41.6 -53.9 27.6 205 205 205
41.7 -53.1 27.2 205 205 205
27.7 -29.9 15.3 204 204 204
26.3 -26.7 13.7 205 205 205
26.2 -26.3 13.5 205 205 205
26.4 -26.1 13.4 205 205 205
39.1 -20.5 10.5 128 131 130
38.4 -20.1 10.3 126 126 126
38.6 -20.0 10.3 121 121 121
-37.1 -25.4 13.2 59 61 59
-36.8 -25.4 13.2 59 61 59
-36.5 -25.4 13.2 59 61 59
-36.2 -25.4 13.2 60 62 60
-35.9 -25.4 13.2 60 62 60
-35.6 -25.4 13.2 60 62 60
-35.3 -25.4 13.2 60 62 60
-35.0 -25.4 13.2 60 62 60
-34.7 -25.4 13.2 60 62 60
-34.4 -25.4 13.2 60 62 60
-34.0 -25.4 13.2 60 62 60
-33.7 -25.4 13.2 60 62 60
-33.4 -25.4 13.2 58 59 59
-33.2 -25.4 13.2 58 59 59
-32.9 -25.5 13.2 58 59 59
-32.5 -25.4 13.2 58 59 59
-32.2 -25.4 13.2 56 56 56
-31.9 -25.4 13.2 57 57 57
-31.6 -25.4 13.2 52 52 50
-31.2 -25.3 13.1 53 52 51
-31.0 -25.4 13.2 50 50 50
-30.8 -25.5 13.2 50 50 50
-30.6 -25.6 13.3 53 52 51
-30.3 -25.6 13.3 55 55 55
-29.8 -25.4 13.2 53 52 51
-29.4 -25.3 13.1 53 52 51
-29.1 -25.4 13.2 50 50 50
-28.8 -25.4 13.2 50 50 50
-28.4 -25.3 13.1 50 50 50
-28.4 -25.6 13.3 54 53 52
-27.9 -25.4 13.2 51 51 51
-27.6 -25.4 13.2 51 51 51
-27.4 -25.5 13.2 51 51 51
-26.9 -25.3 13.1 49 49 49
-26.5 -25.2 13.1 46 46 46
-26.4 -25.4 13.2 49 49 49
-25.5 -25.4 13.2 45 45 45
-25.1 -25.4 13.2 42 43 42
-25.0 -25.5 13.2 43 43 43
-24.6 -25.4 13.2 46 46 46
-24.1 -25.3 13.1 43 43 43
-23.7 -25.5 13.2 43 42 41
-23.3 -25.4 13.2 43 42 41
-23.1 -25.5 13.2 43 42 41
-22.7 -25.4 13.2 41 41 41
-22.3 -25.3 13.1 41 41 41
-14.1 -25.9 13.4 28 28 28
-13.7 -25.7 13.3 30 29 29
-13.3 -25.6 13.3 30 31 30
-12.9 -25.4 13.2 30 31 30
-12.5 -25.3 13.1 29 31 29
-12.0 -25.4 13.2 29 31 29
-11.6 -25.2 13.1 29 30 28
-11.2 -25.0 13.0 32 31 30
-10.5 -25.5 13.2 174 174 174
-10.1 -25.4 13.2 186 188 187
-9.8 -25.3 13.1 184 187 186
16.4 -25.7 13.3 207 207 207
16.6 -25.6 13.3 207 207 207
16.9 -25.6 13.3 207 207 207
18.6 -25.4 13.2 205 205 205
41.6 -53.2 27.6 205 205 205
41.8 -52.6 27.3 205 205 205
41.7 -51.7 26.8 205 205 205
45.3 -53.0 27.5 205 205 205
47.2 -54.5 28.3 205 205 205
54.2 -61.7 32.0 206 206 206
27.9 -30.1 15.6 206 206 206
27.9 -29.7 15.4 206 206 206
26.7 -26.4 13.7 204 204 204
26.7 -25.8 13.4 205 205 205
39.0 -20.2 10.5 132 132 132
38.4 -19.8 10.3 126 126 126
38.6 -19.8 10.3 121 121 121
82.7 -42.1 21.8 115 117 116
78.7 -39.9 20.7 112 114 113
75.5 -38.0 19.7 110 112 111
-36.9 -24.9 13.1 60 62 60
-36.6 -25.0 13.1 60 62 60
-36.3 -25.0 13.1 64 64 64
-36.0 -25.0 13.1 60 62 60
-35.7 -25.0 13.1 60 62 60
-35.4 -25.0 13.1 64 64 64
-35.1 -25.0 13.1 61 63 61
-34.8 -25.0 13.1 59 59 59
-34.5 -25.0 13.1 61 63 61
-34.1 -25.0 13.1 61 63 61
-33.9 -25.0 13.1 61 63 61
-33.5 -24.9 13.1 61 63 61
-33.2 -24.9 13.1 61 63 61
-32.9 -25.0 13.1 59 59 59
-32.8 -25.1 13.2 59 59 59
-32.3 -25.0 13.1 59 59 59
-32.1 -25.0 13.1 57 57 57
-31.8 -25.0 13.1 55 55 55
-31.5 -25.0 13.1 53 52 51
-31.0 -24.9 13.1 54 53 52
-30.8 -24.9 13.1 54 53 52
-30.6 -25.0 13.1 54 53 52
-30.4 -25.1 13.2 54 53 52
-30.1 -25.1 13.2 54 53 52
-29.7 -25.0 13.1 54 53 52
-29.3 -25.0 13.1 54 53 52
-29.0 -25.0 13.1 51 51 51
-28.7 -25.0 13.1 54 53 52
-28.2 -24.8 13.0 55 54 53
-28.2 -25.1 13.2 52 52 52
-27.8 -25.0 13.1 52 52 52
-27.4 -25.0 13.1 52 52 52
-27.3 -25.1 13.2 52 52 52
-26.7 -24.9 13.1 50 50 50
-26.4 -24.8 13.0 53 52 52
-26.3 -25.0 13.1 53 52 52
-25.8 -24.8 13.0 51 51 51
-25.4 -25.0 13.1 46 46 46
-25.0 -25.0 13.1 43 43 43
-24.8 -25.1 13.2 44 44 44
-24.5 -25.0 13.1 44 44 44
-24.1 -24.9 13.1 43 42 41
-23.9 -25.1 13.2 43 42 41
-23.6 -25.1 13.2 44 43 42
-23.2 -25.0 13.1 44 43 42
-23.0 -25.0 13.1 42 42 42
-22.6 -25.0 13.1 42 42 42
-22.2 -24.8 13.0 42 42 42
-20.8 -24.7 13.0 37 38 37
-14.1 -25.6 13.4 26 26 26
-13.6 -25.3 13.3 28 28 28
-13.3 -25.2 13.2 34 33 32
-12.9 -25.1 13.2 30 31 30
-12.5 -25.0 13.1 27 27 27
-12.2 -24.9 13.1 29 31 29
-11.9 -25.0 13.1 34 34 34
-11.6 -24.9 13.1 33 33 33
-11.2 -24.7 13.0 33 33 33
-10.7 -24.4 12.8 34 34 34
-10.4 -25.1 13.2 176 179 178
-10.1 -25.0 13.1 183 183 183
16.6 -25.3 13.3 207 207 207
16.9 -25.2 13.2 207 207 207
42.0 -53.1 27.9 200 200 200
41.9 -52.1 27.4 204 204 204
42.2 -51.7 27.1 204 204 204
46.8 -54.9 28.8 205 205 205
46.3 -53.5 28.1 205 205 205
47.8 -54.5 28.6 202 202 202
48.1 -54.1 28.4 205 205 205
47.9 -53.1 27.9 205 205 205
28.2 -29.6 15.6 206 206 206
26.6 -25.4 13.3 207 207 207
26.8 -25.3 13.3 204 204 204
29.2 -27.2 14.3 204 204 204
83.8 -42.1 22.1 114 116 115
79.0 -39.5 20.7 112 114 113
75.5 -37.5 19.7 109 111 111
-36.6 -24.4 13.0 61 63 61
-36.3 -24.4 13.0 65 65 65
-36.0 -24.4 13.0 65 65 65
-35.7 -24.4 13.0 61 63 61
-35.4 -24.4 13.0 65 65 65
-35.1 -24.4 13.0 65 65 65
-34.8 -24.4 13.0 61 63 61
-34.5 -24.5 13.0 61 63 61
-34.2 -24.5 13.0 62 64 61
-33.9 -24.4 13.0 62 64 61
-33.6 -24.5 13.0 62 64 61
-33.3 -24.4 13.0 62 64 61
-32.9 -24.4 13.0 62 64 61
-32.7 -24.5 13.0 62 64 61
-32.1 -24.5 13.0 62 64 61
-31.5 -24.5 13.0 58 58 58
-30.8 -24.4 13.0 55 54 53
-30.5 -24.4 13.0 55 54 53
-30.3 -24.5 13.0 55 54 53
-30.2 -24.6 13.1 57 57 57
-29.7 -24.5 13.0 55 54 53
-29.4 -24.5 13.0 55 54 53
-29.0 -24.4 13.0 52 52 52
-28.7 -24.4 13.0 55 54 53
-28.5 -24.5 13.0 56 55 54
-28.0 -24.3 12.9 56 55 54
-27.7 -24.6 13.1 53 52 52
-27.2 -24.4 13.0 53 52 52
-27.5 -25.0 13.3 53 53 53
-26.6 -24.4 13.0 53 53 53
-26.0 -24.1 12.8 53 53 53
-26.1 -24.5 13.0 51 51 51
-25.6 -24.4 13.0 52 52 52
-24.9 -24.5 13.0 45 45 45
-24.4 -24.6 13.1 45 45 45
-23.9 -24.5 13.0 44 43 42
-22.9 -24.4 13.0 46 46 46
-22.7 -24.5 13.0 45 44 43
-22.4 -24.4 13.0 42 43 42
-22.0 -24.3 12.9 42 43 42
-21.1 -24.4 13.0 42 42 42
-20.6 -24.1 12.8 36 37 36
-19.9 -23.6 12.6 26 26 26
-13.6 -25.0 13.3 35 34 33
-12.9 -24.7 13.1 34 33 32
-12.5 -24.6 13.1 39 41 41
-12.2 -24.6 13.1 38 40 40
-12.0 -24.8 13.2 45 45 45
-11.5 -24.5 13.0 55 55 55
-11.1 -24.2 12.8 65 67 66
-10.7 -23.9 12.7 33 33 33
-10.4 -23.9 12.7 49 49 49
42.3 -52.7 28.0 204 204 204
42.2 -51.8 27.5 204 204 204
47.2 -54.7 29.1 206 206 206
46.7 -53.4 28.4 207 207 207
48.2 -54.3 28.8 204 204 204
48.8 -54.3 28.8 207 207 207
48.3 -52.9 28.1 205 205 205
48.8 -52.8 28.1 205 205 205
29.5 -27.5 14.6 203 203 203
29.5 -27.2 14.5 204 204 204
29.8 -27.1 14.4 170 171 170
79.1 -39.1 20.8 112 114 113
75.3 -37.0 19.6 109 111 111
-35.1 -23.1 12.5 61 63 61
-34.8 -23.1 12.5 66 66 66
-34.5 -23.1 12.5 66 66 66
-34.2 -23.2 12.5 66 66 66
-33.9 -23.1 12.5 66 66 66
-33.6 -23.1 12.5 62 64 61
-33.3 -23.1 12.5 66 66 66
-33.0 -23.1 12.5 66 66 66
-32.8 -23.2 12.5 66 66 66
-32.5 -23.2 12.5 67 67 67
-32.2 -23.1 12.5 63 64 62
-31.9 -23.2 12.5 63 64 62
-31.6 -23.2 12.5 63 64 62
-31.3 -23.2 12.5 63 64 62
-31.0 -23.2 12.5 63 64 62
-30.8 -23.2 12.5 58 59 59
-30.4 -23.2 12.5 58 59 59
-30.1 -23.1 12.4 58 59 59
-29.9 -23.1 12.5 55 54 53
-29.6 -23.2 12.5 56 55 54
-29.3 -23.1 12.5 56 55 54
-29.0 -23.2 12.5 58 58 58
-28.7 -23.2 12.5 56 55 54
-28.4 -23.2 12.5 56 55 54
-28.1 -23.1 12.4 56 55 54
-27.8 -23.2 12.5 53 52 52
-27.6 -23.2 12.5 56 55 54
-27.2 -23.1 12.5 57 56 55
-27.0 -23.1 12.5 53 53 53
-26.6 -23.1 12.4 53 53 53
-26.4 -23.2 12.5 53 53 53
-26.1 -23.2 12.5 53 53 53
-25.8 -23.1 12.5 54 54 54
-25.7 -23.3 12.6 54 54 54
-25.3 -23.2 12.5 54 54 54
-24.9 -23.2 12.5 54 54 54
-24.7 -23.2 12.5 53 52 52
-24.3 -23.1 12.4 49 49 49
-24.0 -23.1 12.4 48 48 48
-23.6 -23.2 12.5 46 46 46
-23.3 -23.2 12.5 49 49 49
-22.9 -23.2 12.5 47 47 47
-22.6 -23.1 12.4 46 45 43
-22.3 -23.1 12.4 46 45 43
-22.0 -23.1 12.5 46 45 43
-21.8 -23.2 12.5 43 43 43
-21.5 -23.1 12.5 43 43 43
-21.2 -23.2 12.5 43 43 43
-20.8 -23.1 12.4 43 45 44
-20.1 -23.2 12.5 36 35 34
-19.6 -23.0 12.4 27 27 27
-12.4 -18.7 10.0 23 26 24
-13.4 -23.1 12.5 116 118 117
-12.8 -23.1 12.5 107 107 107
-12.5 -23.2 12.5 77 77 77
-12.3 -23.3 12.5 87 87 85
-10.9 -23.4 12.6 89 89 89
-10.5 -23.3 12.6 29 31 29
-10.2 -23.3 12.5 52 53 51
-9.9 -23.2 12.5 186 188 187
-9.6 -23.1 12.4 183 186 185
42.3 -52.2 28.1 206 206 206
42.2 -51.2 27.6 206 206 206
47.6 -54.5 29.3 206 206 206
47.1 -53.1 28.6 206 206 206
48.4 -53.8 29.0 206 206 206
49.4 -54.2 29.1 204 204 204
48.3 -52.3 28.1 204 204 204
48.9 -52.2 28.1 204 204 204
49.1 -51.8 27.9 204 204 204
29.5 -27.2 14.6 203 203 203
29.5 -26.8 14.4 199 199 199
29.7 -26.8 14.4 166 166 166
30.0 -26.7 14.4 181 181 181
-35.3 -23.0 12.5 66 66 66
-35.1 -23.1 12.6 66 66 66
-34.8 -23.1 12.6 66 66 66
-34.5 -23.1 12.6 67 67 67
-34.2 -23.1 12.6 67 67 67
-33.9 -23.1 12.6 68 70 68
-33.6 -23.0 12.6 67 67 67
-33.3 -23.1 12.6 67 67 67
-33.1 -23.1 12.6 67 67 67
-32.8 -23.1 12.6 67 67 67
-32.5 -23.1 12.6 67 67 67
-32.2 -23.1 12.6 67 67 67
-31.9 -23.1 12.6 64 65 63
-31.6 -23.1 12.6 64 65 63
-31.3 -23.1 12.6 64 65 63
-31.0 -23.1 12.6 62 62 62
-30.7 -23.0 12.6 59 59 59
-30.4 -23.0 12.5 59 59 59
-30.1 -23.1 12.6 58 58 58
-29.9 -23.1 12.6 58 58 58
-29.6 -23.1 12.6 58 59 59
-29.3 -23.1 12.6 57 56 55
-29.0 -23.1 12.6 57 56 55
-28.7 -23.1 12.6 57 56 55
-28.4 -23.1 12.6 57 56 55
-28.1 -23.1 12.6 57 56 55
-27.8 -23.0 12.6 57 57 55
-27.5 -23.1 12.6 57 57 55
-27.2 -23.1 12.6 57 57 55
-26.9 -23.0 12.5 57 57 55
-26.7 -23.1 12.6 57 57 55
-26.3 -23.1 12.6 58 58 56
-26.0 -23.0 12.6 55 55 55
-25.8 -23.2 12.6 55 55 55
-25.5 -23.1 12.6 55 55 55
-25.1 -23.0 12.6 53 53 53
-24.9 -23.1 12.6 53 53 53
-24.5 -23.0 12.5 53 53 53
-24.2 -23.0 12.5 51 51 51
-24.1 -23.1 12.6 49 49 49
-23.7 -23.1 12.6 50 50 50
-23.4 -23.1 12.6 50 50 50
-23.1 -23.1 12.6 50 50 50
-22.7 -23.0 12.5 47 48 47
-22.5 -23.0 12.5 47 48 47
-22.3 -23.1 12.6 46 46 44
-22.0 -23.1 12.6 47 46 45
-21.7 -23.2 12.6 44 44 44
-21.4 -23.1 12.6 44 44 44
-21.0 -23.0 12.5 43 45 45
-20.2 -23.1 12.6 36 36 34
-19.7 -22.8 12.4 23 26 24
-12.5 -18.5 10.1 25 28 25
-13.2 -23.1 12.6 36 37 36
-12.9 -23.0 12.6 88 88 88
-12.6 -23.0 12.6 82 81 79
-12.3 -23.1 12.6 20 20 20
-12.2 -23.4 12.7 34 33 32
-11.3 -23.4 12.7 38 40 40
-11.0 -23.3 12.7 77 77 77
-10.6 -23.2 12.6 21 24 22
-10.3 -23.1 12.6 46 46 46
-10.0 -23.0 12.6 184 187 186
-9.7 -23.0 12.5 183 186 185
42.1 -50.5 27.5 205 205 205
49.1 -55.4 30.2 206 206 206
47.4 -52.8 28.7 206 206 206
48.8 -53.6 29.2 206 206 206
49.5 -53.6 29.2 206 206 206
48.6 -51.9 28.3 206 206 206
49.3 -52.0 28.3 204 204 204
48.9 -50.9 27.7 204 204 204
49.5 -50.8 27.7 204 204 204
-36.0 -23.2 12.8 67 67 67
-35.9 -23.3 12.9 67 67 67
-35.6 -23.3 12.9 67 67 67
-35.3 -23.3 12.9 67 67 67
-35.0 -23.3 12.9 67 67 67
-34.7 -23.3 12.9 67 67 67
-34.4 -23.3 12.9 67 67 67
-34.1 -23.3 12.9 67 67 67
-33.8 -23.3 12.9 67 67 67
-33.5 -23.3 12.9 67 67 67
-33.2 -23.3 12.9 67 67 67
-32.9 -23.3 12.9 68 68 68
-32.6 -23.3 12.8 68 68 68
-32.5 -23.4 12.9 65 66 64
-32.0 -23.3 12.9 63 63 63
-31.7 -23.3 12.9 63 63 63
-31.4 -23.3 12.9 63 63 63
-31.1 -23.3 12.9 60 60 60
-30.8 -23.3 12.9 61 61 61
-30.5 -23.3 12.9 58 59 59
-30.2 -23.3 12.9 59 59 59
-29.9 -23.3 12.9 57 57 55
-29.6 -23.3 12.9 59 59 59
-29.3 -23.3 12.9 57 57 55
-29.0 -23.3 12.9 57 57 55
-28.7 -23.3 12.9 58 58 56
-28.4 -23.3 12.8 58 58 56
-28.1 -23.3 12.9 60 60 60
-27.8 -23.3 12.9 58 58 56
-27.6 -23.3 12.9 58 58 56
-27.3 -23.3 12.9 59 59 57
-26.9 -23.3 12.8 61 61 61
-26.6 -23.3 12.9 59 59 57
-26.3 -23.3 12.9 59 59 57
-25.9 -23.2 12.8 57 57 57
-25.7 -23.3 12.8 54 54 54
-25.3 -23.2 12.8 54 54 54
-25.0 -23.2 12.8 52 52 52
-24.8 -23.3 12.9 58 58 58
-24.3 -23.3 12.9 47 48 47
-24.0 -23.3 12.9 51 51 51
-23.7 -23.3 12.9 51 51 51
-23.4 -23.3 12.9 52 52 52
-23.1 -23.3 12.9 49 49 49
-22.7 -23.3 12.8 48 47 46
-22.4 -23.3 12.9 48 47 46
-22.2 -23.3 12.9 48 47 46
-21.8 -23.3 12.9 45 45 45
-21.5 -23.2 12.8 44 46 46
-21.0 -23.3 12.9 42 42 42
-20.5 -23.2 12.8 38 38 38
-13.5 -23.3 12.8 41 41 41
-13.5 -23.8 13.1 99 101 101
-12.8 -23.2 12.8 96 96 96
-12.7 -23.4 12.9 32 33 31
-12.4 -23.4 12.9 131 131 131
-11.5 -23.5 12.9 90 92 91
-11.1 -23.3 12.9 67 67 67
-10.7 -23.2 12.8 49 49 49
-10.4 -23.1 12.7 58 58 58
-10.1 -23.2 12.8 186 188 187
41.9 -49.6 27.4 205 205 205
41.8 -48.7 26.9 205 205 205
47.4 -52.2 28.8 205 205 205
49.7 -53.9 29.7 205 205 205
50.4 -53.9 29.7 205 205 205
48.8 -50.2 27.7 206 206 206
-37.4 -23.8 13.3 67 67 67
-36.7 -23.5 13.2 67 67 67
-36.4 -23.5 13.2 67 67 67
-36.1 -23.5 13.2 67 67 67
-36.2 -23.8 13.3 67 67 67
-35.5 -23.5 13.2 67 67 67
-35.5 -23.7 13.3 68 68 68
-35.3 -23.8 13.3 70 72 69
-34.6 -23.5 13.2 70 72 69
-34.5 -23.7 13.3 68 68 68
-34.4 -23.8 13.3 68 68 68
-33.9 -23.7 13.3 68 68 68
-32.9 -23.9 13.3 66 67 65
-32.1 -23.5 13.1 64 64 64
-31.8 -23.5 13.2 66 67 65
-31.6 -23.6 13.2 67 68 66
-31.2 -23.5 13.1 59 59 59
-30.9 -23.5 13.2 62 62 62
-31.0 -23.8 13.3 60 60 60
-30.5 -23.7 13.2 62 62 62
-30.3 -23.8 13.3 60 60 60
-29.9 -23.7 13.2 60 60 60
-29.4 -23.5 13.1 59 59 57
-28.8 -23.5 13.2 61 61 61
-28.4 -23.4 13.1 61 61 61
-28.0 -23.7 13.2 60 59 58
-27.8 -23.8 13.3 60 59 58
-27.7 -23.9 13.4 60 59 58
-26.9 -23.5 13.1 58 58 58
-26.5 -23.4 13.1 58 58 58
-26.3 -23.5 13.1 58 58 58
-24.7 -23.7 13.2 52 52 52
-24.2 -23.5 13.1 53 52 52
-23.7 -23.7 13.2 53 52 52
-23.4 -23.9 13.4 49 48 47
-22.8 -23.7 13.3 46 46 46
-22.0 -23.8 13.3 45 47 46
-21.3 -23.3 13.0 45 45 45
-20.8 -23.1 12.9 39 39 39
-14.2 -24.3 13.6 117 117 117
-13.8 -24.1 13.5 132 132 132
-12.9 -23.5 13.2 27 27 27
-12.5 -23.5 13.1 134 134 134
-11.6 -23.5 13.1 40 42 42
-11.2 -23.2 13.0 49 49 49
-10.9 -23.2 12.9 50 50 50
-10.5 -23.1 12.9 52 52 52
-10.3 -23.2 13.0 182 185 184
-10.0 -23.3 13.0 181 184 183
50.5 -54.0 30.2 208 208 208
51.1 -54.0 30.2 205 205 205
48.8 -49.5 27.7 205 205 205
-38.3 -24.0 13.6 64 65 63
-38.4 -24.2 13.7 68 68 68
-38.0 -24.2 13.7 68 68 68
-37.7 -24.2 13.7 70 72 69
-37.4 -24.2 13.7 70 72 69
-37.1 -24.2 13.7 70 72 69
-37.0 -24.4 13.8 70 72 69
-36.5 -24.3 13.7 70 72 69
-36.1 -24.3 13.7 71 72 70
-36.0 -24.4 13.8 71 72 70
-35.4 -24.2 13.7 71 72 70
-35.3 -24.4 13.8 69 69 69
-35.0 -24.4 13.8 69 69 69
-34.4 -24.4 13.8 70 70 70
-33.9 -24.3 13.8 70 70 70
-33.5 -24.2 13.7 67 68 66
-33.2 -24.2 13.7 65 65 65
-33.0 -24.3 13.8 65 65 65
-32.5 -24.4 13.8 66 66 66
-32.2 -24.4 13.8 67 69 67
-31.7 -24.3 13.8 66 66 66
-31.4 -24.3 13.7 61 61 61
-30.9 -24.2 13.7 59 59 57
-30.6 -24.2 13.7 62 62 62
-30.3 -24.2 13.7 62 62 62
-29.6 -24.4 13.8 61 60 59
-29.1 -24.2 13.7 61 60 59
-29.0 -24.4 13.8 63 63 63
-28.2 -24.0 13.6 61 60 59
-27.8 -24.0 13.6 58 59 59
-24.5 -24.4 13.8 54 54 54
-24.0 -24.3 13.7 52 52 52
-23.8 -24.3 13.8 47 47 47
-14.6 -24.5 13.9 34 36 34
-14.1 -24.3 13.7 38 38 38
-10.7 -24.5 13.9 180 183 182
-10.4 -24.6 13.9 179 182 181
51.2 -54.1 30.7 207 207 207
52.2 -54.4 30.8 207 207 207
48.8 -48.9 27.7 205 205 205
48.8 -48.2 27.3 205 205 205
-39.1 -24.2 13.9 68 68 68
-31.7 -24.2 13.9 62 62 62
-28.6 -24.1 13.8 63 62 61
-28.2 -24.0 13.8 63 62 61
-14.8 -24.5 14.1 130 130 130
-14.3 -24.2 13.9 115 117 116
-12.1 -23.8 13.7 103 105 105
-10.9 -24.7 14.2 180 183 182
-10.3 -24.9 14.3 177 177 177
51.9 -54.1 31.1 207 207 207
52.7 -54.2 31.1 207 207 207
53.7 -54.5 31.3 207 207 207
48.2 -47.0 27.0 204 204 204
47.2 -45.5 26.1 207 207 207
-14.9 -24.4 14.2 46 48 47
-14.4 -24.2 14.1 122 122 122
-11.4 -24.7 14.4 182 185 184
-11.0 -24.6 14.3 179 182 181
-10.9 -25.1 14.6 179 182 181
-10.6 -25.1 14.6 178 181 180
12.1 -17.3 10.1 206 206 206
12.3 -17.2 10.0 206 206 206
50.6 -52.0 30.3 204 204 204
56.0 -56.1 32.6 207 207 207
52.3 -51.6 30.0 207 207 207
48.7 -46.8 27.3 207 207 207
43.4 -39.2 22.8 205 205 205
29.6 -23.8 13.9 184 184 184
-12.1 -25.1 14.8 53 53 53
-11.6 -24.7 14.6 183 186 185
-11.2 -24.7 14.6 181 184 183
-11.0 -24.9 14.7 179 182 181
-10.6 -24.9 14.7 178 181 180
12.2 -17.1 10.1 206 206 206
56.8 -56.1 33.1 208 211 210
61.7 -59.3 35.0 207 207 207
43.6 -38.8 22.9 207 207 207
43.7 -38.5 22.7 207 207 207
29.4 -23.3 13.8 184 184 184
30.0 -23.5 13.9 184 184 184
-10.6 -16.9 10.1 22 22 22
-12.2 -25.0 15.0 39 41 41
-11.0 -24.7 14.8 180 183 182
-10.7 -24.7 14.8 179 179 179
60.8 -60.0 35.9 208 211 210
62.7 -61.1 36.5 208 211 210
63.8 -61.3 36.7 208 211 210
62.7 -59.5 35.6 206 206 206
47.7 -42.9 25.7 207 207 207
45.4 -40.4 24.2 207 207 207
44.5 -39.1 23.4 207 207 207
44.0 -38.2 22.8 207 207 207
50.3 -42.2 25.2 209 212 211
29.4 -23.0 13.7 186 186 186
29.8 -23.1 13.8 186 186 186
30.3 -23.0 13.7 184 184 184
-26.2 -17.5 10.6 71 71 71
-14.2 -17.7 10.7 66 66 66
-12.5 -16.7 10.1 123 125 124
-10.6 -16.6 10.1 33 35 33
-11.1 -24.4 14.8 182 185 184
-11.9 -27.1 16.4 178 178 178
-11.4 -26.8 16.3 157 160 159
12.1 -16.6 10.1 207 210 209
62.3 -60.7 36.8 207 210 209
64.4 -61.9 37.5 207 210 209
65.6 -62.1 37.7 208 211 210
64.8 -60.6 36.7 208 211 210
48.1 -42.7 25.9 207 207 207
47.0 -41.3 25.0 207 207 207
45.9 -39.8 24.1 207 207 207
50.9 -42.0 25.5 208 208 208
29.4 -22.7 13.8 186 186 186
29.8 -22.7 13.8 186 186 186
30.0 -22.7 13.7 186 186 186
30.0 -22.4 13.6 186 186 186
-11.9 -26.8 16.5 176 176 176
-11.5 -26.6 16.4 158 161 160
-11.1 -26.6 16.4 155 158 157
63.8 -61.3 37.7 207 210 209
65.1 -61.6 37.9 207 210 209
66.1 -61.8 38.0 207 210 209
66.2 -61.0 37.5 207 210 209
49.0 -43.0 26.4 208 211 210
47.9 -41.4 25.5 207 207 207
37.4 -30.8 19.0 207 207 207
37.5 -30.5 18.8 205 205 205
30.0 -22.6 13.9 188 188 188
41.4 -30.8 19.0 188 188 188
41.4 -30.5 18.8 188 188 188
41.8 -30.5 18.7 188 188 188
-11.9 -26.3 16.4 177 177 177
-11.5 -26.3 16.4 159 162 161
64.7 -61.2 38.2 207 210 209
66.2 -61.7 38.5 207 210 209
67.0 -61.7 38.5 207 210 209
67.3 -61.1 38.1 207 210 209
66.7 -59.8 37.3 207 210 209
49.4 -42.1 26.3 208 211 210
37.8 -30.7 19.2 208 211 210
37.6 -30.2 18.9 208 211 210
38.3 -30.4 19.0 207 207 207
39.6 -31.1 19.4 209 212 211
39.4 -30.6 19.1 208 208 208
39.6 -30.4 19.0 180 180 180
40.2 -30.5 19.0 185 185 185
40.8 -30.6 19.1 188 188 188
41.8 -31.0 19.4 188 188 188
41.9 -30.7 19.2 188 188 188
41.8 -30.3 18.9 188 188 188
42.5 -30.6 19.1 188 188 188
43.1 -30.7 19.1 188 188 188
-12.5 -16.0 10.1 48 50 50
-11.8 -25.9 16.4 178 178 178
-11.4 -25.7 16.3 166 166 166
66.7 -61.3 38.8 206 209 208
67.3 -61.1 38.7 207 210 209
68.1 -61.0 38.6 207 210 209
67.3 -59.5 37.7 207 210 209
51.0 -43.4 27.5 207 210 209
39.8 -30.8 19.5 208 208 208
39.0 -29.2 18.5 185 185 185
41.8 -30.6 19.4 188 188 188
42.2 -30.5 19.3 188 188 188
40.9 -29.3 18.5 188 188 188
43.4 -30.4 19.3 188 188 188
-12.6 -15.9 10.2 149 151 151
-12.2 -26.2 16.8 180 180 180
-12.6 -28.0 18.0 169 169 169
-12.1 -27.8 17.9 166 166 166
66.0 -59.8 38.4 206 209 208
67.2 -60.1 38.6 206 209 208
69.5 -61.3 39.4 209 212 211
68.4 -59.6 38.3 207 210 209
258.1 -198.9 127.8 208 211 210
39.4 -29.6 19.0 208 208 208
38.6 -28.7 18.5 184 184 184
39.1 -28.8 18.5 186 186 186
39.3 -28.7 18.4 189 189 189
41.2 -29.4 18.9 189 189 189
41.0 -28.9 18.6 189 189 189
41.6 -29.1 18.7 189 189 189
42.8 -29.6 19.0 189 189 189
42.2 -28.9 18.5 191 191 191
-13.3 -15.6 10.2 34 36 34
-12.6 -15.6 10.2 32 32 32
-10.6 -15.5 10.1 28 28 28
-12.8 -28.0 18.2 174 176 176
-12.3 -27.9 18.2 168 168 168
12.1 -15.4 10.1 208 211 210
66.8 -59.7 38.9 208 211 210
67.9 -59.8 39.0 208 211 210
232.7 -174.7 114.0 207 207 207
204.6 -151.8 99.0 205 205 205
38.8 -28.5 18.6 181 181 181
39.1 -28.4 18.5 184 184 184
39.4 -28.3 18.5 186 186 186
41.0 -28.8 18.8 189 189 189
41.1 -28.6 18.6 189 189 189
41.7 -28.7 18.7 189 189 189
42.9 -29.2 19.0 189 189 189
83.3 -36.9 24.1 185 185 185
80.4 -35.4 23.1 185 185 185
-13.2 -15.3 10.1 33 35 33
-12.9 -15.5 10.3 32 32 32
-12.5 -15.3 10.1 31 31 31
-10.6 -15.2 10.1 28 28 28
-13.0 -28.1 18.6 176 179 178
-12.6 -28.2 18.7 172 172 172
12.2 -15.3 10.1 208 211 210
240.2 -179.6 119.0 208 211 210
222.0 -164.1 108.7 207 207 207
191.5 -140.0 92.7 205 205 205
39.2 -28.0 18.6 186 186 186
51.8 -36.6 24.3 189 189 189
52.4 -36.6 24.3 192 192 192
41.2 -28.2 18.7 189 189 189
83.1 -36.2 24.0 186 186 186
80.2 -34.7 23.0 186 186 186
-25.1 -15.0 10.1 19 23 20
-24.9 -15.0 10.1 21 24 22
-19.2 -15.0 10.1 67 69 67
-18.9 -14.9 10.0 67 69 67
-13.2 -15.0 10.1 33 34 32
-12.5 -15.0 10.1 33 34 32
-10.6 -15.0 10.1 29 29 29
-8.7 -14.9 10.0 37 40 39
-13.3 -28.2 19.0 177 180 179
-13.0 -28.5 19.1 175 175 175
12.3 -14.9 10.0 207 210 209
219.5 -159.7 107.5 207 207 207
194.4 -139.9 94.1 207 207 207
52.6 -36.2 24.3 192 192 192
42.8 -29.2 19.6 194 194 194
83.2 -35.7 24.0 188 188 188
80.2 -34.2 23.0 188 188 188
61.1 -24.7 16.7 160 160 160
61.5 -24.8 16.7 154 154 154
65.6 -26.3 17.7 151 151 151
-13.4 -28.0 19.1 178 178 178
-13.8 -29.8 20.3 175 175 175
257.8 -219.6 150.1 207 210 209
83.9 -35.5 24.3 189 189 189
82.1 -34.5 23.6 189 189 189
81.7 -34.1 23.3 189 189 189
61.1 -24.4 16.7 162 162 162
61.1 -24.2 16.5 154 154 154
61.3 -24.1 16.5 149 151 151
-14.0 -29.8 20.7 169 171 170
-13.6 -29.9 20.7 144 144 144
264.1 -221.4 153.8 207 210 209
148.9 -121.6 84.4 211 211 211
83.6 -34.8 24.2 190 190 190
82.5 -34.1 23.7 190 190 190
82.6 -33.9 23.6 190 190 190
61.1 -23.8 16.5 156 156 156
61.2 -23.7 16.5 151 153 153
61.5 -23.7 16.4 147 147 147
-14.0 -29.3 20.7 164 164 164
-13.6 -29.4 20.8 148 148 148
283.5 -237.1 167.4 206 209 208
268.4 -221.5 156.3 207 210 209
149.6 -120.2 84.8 207 210 209
124.5 -97.4 68.8 207 210 209
69.0 -45.3 32.0 195 195 195
67.4 -43.8 30.9 195 195 195
83.3 -34.1 24.1 191 191 191
82.0 -33.3 23.5 191 191 191
82.0 -33.1 23.4 191 191 191
82.0 -32.9 23.2 191 191 191
80.7 -32.2 22.7 189 189 189
62.6 -24.2 17.1 159 159 159
61.8 -23.7 16.7 153 155 155
61.9 -23.6 16.7 152 152 152
62.3 -23.6 16.7 147 147 147
-14.1 -29.0 20.8 181 184 183
-13.6 -29.1 20.9 170 172 172
13.0 -15.0 10.8 206 209 208
13.1 -14.8 10.6 206 209 208
15.6 -14.9 10.7 205 208 207
15.7 -14.7 10.6 205 208 207
286.1 -235.3 168.9 206 209 208
275.3 -223.4 160.3 206 209 208
164.3 -129.8 93.2 207 210 209
264.0 -198.2 142.2 208 211 210
198.6 -147.2 105.7 208 211 210
70.9 -45.8 32.8 195 195 195
69.0 -44.1 31.6 195 195 195
80.2 -32.1 23.0 192 192 192
81.0 -32.2 23.1 192 192 192
80.7 -31.9 22.9 192 192 192
80.8 -31.7 22.7 190 190 190
81.0 -31.6 22.7 190 190 190
62.5 -23.6 16.9 155 158 157
62.8 -23.6 16.9 151 151 151
-27.3 -15.6 11.4 196 199 198
-27.1 -15.7 11.4 112 112 112
-26.8 -15.6 11.4 57 57 55
-26.5 -15.6 11.4 54 54 54
-15.9 -15.6 11.4 99 99 99
-14.5 -29.3 21.4 180 180 180
-15.5 -32.6 23.8 179 179 179
-14.9 -32.4 23.7 165 165 165
13.0 -14.5 10.6 210 210 210
13.1 -14.3 10.5 206 209 208
15.6 -14.4 10.5 208 208 208
15.6 -14.2 10.4 208 208 208
286.1 -231.4 168.9 206 209 208
284.9 -227.3 165.9 210 210 210
367.4 -281.7 205.6 207 210 209
345.9 -261.8 191.1 207 210 209
306.9 -229.4 167.4 207 210 209
262.1 -193.4 141.2 207 210 209
71.9 -45.6 33.3 195 195 195
80.9 -31.8 23.2 193 193 193
81.3 -31.8 23.2 193 193 193
81.5 -31.6 23.1 193 193 193
81.4 -31.4 22.9 191 191 191
81.6 -31.3 22.8 188 188 188
63.4 -23.5 17.2 153 153 153
63.7 -23.5 17.1 141 140 139
64.7 -23.7 17.3 131 134 133
-27.2 -15.6 11.6 60 60 60
-15.6 -32.2 23.9 177 177 177
-15.0 -32.0 23.8 164 164 164
-14.6 -32.3 24.0 15 15 15
296.7 -235.9 175.2 209 209 209
298.0 -233.7 173.5 209 209 209
427.8 -322.5 239.4 206 209 208
360.4 -268.2 199.1 207 210 209
340.0 -249.8 185.5 207 210 209
308.1 -223.5 165.9 211 211 211
348.6 -249.8 185.5 211 211 211
531.8 -358.8 266.4 209 212 211
72.8 -45.4 33.7 196 196 196
74.5 -46.0 34.1 196 196 196
76.5 -46.7 34.7 196 196 196
83.2 -32.6 24.2 194 194 194
83.3 -32.4 24.1 194 194 194
82.4 -31.8 23.6 195 198 197
82.3 -31.6 23.5 194 194 194
83.1 -31.7 23.5 192 192 192
83.9 -31.8 23.6 192 192 192
83.8 -31.6 23.4 189 189 189
84.8 -31.7 23.6 175 175 175
66.6 -23.8 17.7 136 138 137
-16.8 -31.8 24.0 180 180 180
-15.7 -31.7 23.9 173 173 173
-15.0 -31.5 23.8 158 158 158
-14.6 -31.8 24.0 15 19 16
323.6 -252.9 191.1 209 209 209
324.8 -250.4 189.2 209 209 209
535.0 -391.2 295.6 210 210 210
417.8 -301.7 227.9 211 211 211
365.8 -260.8 197.0 211 211 211
413.5 -291.1 220.0 211 211 211
484.1 -321.0 242.5 214 214 214
78.1 -46.9 35.4 196 196 196
84.3 -32.5 24.5 190 190 190
84.7 -32.4 24.5 188 188 188
83.5 -31.7 24.0 183 186 185
83.0 -31.3 23.7 183 186 185
85.0 -31.5 23.8 176 176 176
85.8 -31.5 23.8 165 165 165
68.9 -24.7 18.7 138 140 139
68.6 -24.4 18.5 136 138 137
-16.5 -31.7 24.4 154 156 156
-15.8 -31.4 24.2 83 85 85
-15.2 -31.3 24.0 87 87 87
-14.7 -31.5 24.2 52 53 51
-14.1 -31.4 24.2 42 43 42
222.0 -141.4 108.7 214 214 214
78.6 -46.3 35.6 197 197 197
87.3 -31.5 24.3 148 148 146
87.9 -31.5 24.3 141 143 142
69.1 -24.2 18.6 136 136 136
69.3 -24.1 18.5 133 133 133
-17.7 -33.5 26.2 143 145 144
-15.3 -31.0 24.3 88 90 89
231.4 -144.7 113.3 209 212 211
196.4 -121.4 95.1 209 212 211
89.1 -31.4 24.6 131 134 133
70.6 -24.3 19.0 128 131 130
69.8 -23.8 18.7 129 129 129
69.5 -23.6 18.5 129 129 129
-18.5 -34.3 27.4 125 125 125
-17.7 -34.0 27.1 90 92 91
488.4 -334.1 266.4 206 209 208
390.2 -263.5 210.2 214 214 214
589.9 -370.6 295.6 212 213 212
203.5 -123.5 98.5 209 212 211
538.6 -316.2 252.2 199 199 199
71.2 -23.9 19.0 122 122 122
43.6 -14.4 11.5 127 127 127
43.8 -14.4 11.5 127 127 127
439.0 -294.7 239.4 214 214 214
365.8 -242.5 197.0 214 214 214
386.5 -253.0 205.6 214 214 214
731.7 -456.5 370.9 216 216 216
490.3 -302.3 245.7 216 216 216
347.2 -211.6 172.0 216 216 216
247.7 -149.2 121.3 208 211 210
209.0 -124.5 101.2 217 217 217
416.0 -245.0 199.1 179 179 179
475.7 -277.1 225.2 197 197 197
469.7 -270.7 220.0 199 199 199
56.3 -31.1 25.3 200 200 200
51.2 -17.3 14.0 112 112 112
51.3 -17.2 14.0 113 114 113
44.3 -14.5 11.8 112 112 112
44.0 -14.3 11.6 116 118 117
44.1 -14.2 11.6 132 132 132
13.2 -13.7 11.4 212 213 212
433.5 -285.5 236.5 214 214 214
377.6 -245.6 203.4 214 214 214
507.5 -296.6 245.7 214 214 214
399.1 -230.7 191.1 181 181 181
411.9 -235.5 195.0 199 199 199
434.4 -245.6 203.4 199 199 199
55.0 -29.5 24.4 202 202 202
56.2 -29.8 24.7 202 202 202
57.8 -30.4 25.2 203 203 203
51.3 -17.0 14.1 109 111 111
51.6 -17.0 14.1 109 111 111
44.6 -14.3 11.9 109 109 109
44.4 -14.2 11.7 91 94 93
44.5 -14.1 11.7 155 155 155
-20.4 -37.0 31.3 96 96 96
-19.6 -36.8 31.1 92 92 92
517.6 -334.3 282.3 214 214 214
413.2 -263.5 222.5 214 214 214
572.1 -339.4 286.6 216 216 216
439.1 -248.9 210.2 180 180 180
492.6 -273.2 230.7 199 199 199
54.6 -28.7 24.3 202 202 202
55.6 -28.9 24.4 202 202 202
51.7 -16.9 14.3 106 106 106
51.6 -16.7 14.1 106 106 106
51.8 -16.7 14.1 106 106 106
44.7 -14.0 11.8 63 63 63
44.6 -13.9 11.7 152 154 154
45.2 -14.0 11.8 121 123 122
-21.5 -38.1 32.8 96 96 96
-20.5 -37.8 32.6 94 94 94
-19.5 -37.3 32.2 104 104 104
13.0 -11.6 10.0 210 210 210
786.6 -457.5 394.1 216 216 216
51.9 -16.5 14.2 101 101 101
45.6 -14.0 12.1 77 77 77
45.1 -13.8 11.9 157 157 157
45.5 -13.8 11.9 125 125 125
-22.4 -39.1 34.3 94 94 94
-21.3 -38.5 33.8 94 94 94
-20.4 -38.3 33.7 82 82 82
-19.9 -38.8 34.1 118 118 118
13.0 -11.4 10.0 210 210 210
52.2 -16.2 14.2 86 86 86
-23.5 -40.0 35.9 96 96 96
-22.1 -39.1 35.1 95 98 97
-21.3 -39.1 35.1 109 109 109
-20.5 -39.1 35.1 30 30 30
23.3 -16.7 15.0 212 213 212
-24.7 -41.2 37.8 96 99 98
-23.3 -40.3 36.9 100 100 100
-22.1 -39.8 36.4 110 110 110
-21.2 -39.7 36.4 14 14 14
23.5 -16.7 15.3 211 211 211
23.2 -16.3 15.0 216 216 216
-23.8 -41.9 39.2 111 111 111
23.2 -15.9 14.9 216 216 216
23.2 -15.6 14.9 216 216 216
22.9 -15.2 14.5 216 216 216
22.9 -14.8 14.5 216 216 216
22.7 -14.1 13.8 217 217 217
237.6 -113.7 111.3 200 200 200
22.4 -13.6 13.6 217 217 217
220.7 -103.2 103.4 200 200 200
-32.7 -59.3 60.8 160 160 160
22.4 -13.2 13.6 218 221 220
22.4 -13.1 13.4 218 221 220
229.5 -104.8 107.5 200 200 200
182.3 -82.3 84.4 200 200 200
-39.3 -61.7 64.8 110 110 108
-37.6 -61.2 64.3 26 26 26
-36.2 -61.4 64.6 20 20 20
-33.7 -59.6 62.6 160 163 162
22.4 -12.9 13.6 218 221 220
22.2 -12.6 13.3 218 221 220
619.0 -295.1 310.1 220 220 220
225.7 -100.6 105.7 200 200 200
184.8 -81.5 85.6 200 200 200
-40.0 -61.2 65.9 107 107 107
-37.8 -60.1 64.8 31 31 31
-35.5 -58.7 63.3 21 21 21
-33.4 -57.8 62.2 157 157 157
139.1 -266.1 286.6 224 224 224
191.2 -247.4 266.4 221 221 221
22.6 -12.8 13.7 218 221 220
210.4 -91.5 98.5 198 198 198
182.3 -78.4 84.4 200 200 200
217.2 -92.1 101.7 197 197 197
177.5 -74.5 82.2 200 200 200
-77.8 -133.5 151.3 181 184 183
651.0 -287.7 326.1 220 223 222
-90.8 -145.0 168.9 168 170 169
-86.9 -145.0 168.9 180 180 180
-99.9 -174.7 203.4 182 185 184
651.0 -280.1 326.1 220 223 222
-9.7 -8.7 10.4 38 40 40
-8.8 -8.5 10.2 38 38 38
-181.1 -259.1 310.1 27 27 27
-158.3 -235.9 282.3 28 28 28
-132.1 -205.3 245.7 176 176 176
-167.7 -272.5 326.1 179 179 179
629.3 -263.4 315.3 220 223 222
-9.8 -8.5 10.5 38 40 40
-8.9 -8.3 10.3 42 42 42
22.2 -11.0 13.5 222 224 224
22.2 -10.8 13.3 222 224 224
-9.8 -8.3 10.5 38 40 40
22.8 -10.9 13.8 222 224 224
21.9 -10.4 13.1 222 224 224
251.3 -93.9 119.0 169 169 169
211.5 -78.1 99.0 183 183 183
-8.6 -7.7 10.0 49 49 49
22.8 -10.6 13.8 218 221 220
262.9 -95.3 124.4 134 137 136
214.9 -77.1 100.6 167 167 167
22.1 -10.0 13.4 218 221 220
21.9 -9.8 13.1 222 224 224
270.0 -94.9 127.8 129 129 129
234.9 -81.7 110.0 158 161 160
186.5 -64.1 86.4 190 190 190
22.0 -9.6 13.3 222 224 224
21.9 -9.4 13.1 222 224 224
25.7 -10.5 14.6 219 222 221
407.4 -140.3 195.0 180 180 180
264.6 -90.1 125.3 91 91 91
236.2 -79.6 110.6 157 157 157
185.6 -61.8 86.0 190 190 190
25.6 -10.1 14.5 219 222 221
25.2 -9.8 14.1 219 222 221
411.6 -137.2 197.0 194 194 194
314.6 -103.7 148.9 111 111 111
228.2 -74.4 106.9 151 151 151
24.9 -9.4 13.9 219 222 221
24.8 -9.2 13.7 219 222 221
555.2 -187.2 278.2 220 223 222
420.4 -135.4 201.2 190 190 190
233.5 -73.6 109.3 157 157 157
-212.8 -58.2 89.7 25 25 25
-190.9 -54.4 83.7 169 169 169
-169.1 -51.8 79.8 35 34 33
-163.7 -50.8 78.2 32 33 31
24.8 -9.0 13.9 219 222 221
24.6 -8.8 13.6 219 222 221
24.8 -8.8 13.5 220 223 222
470.4 -146.3 225.2 188 188 188
244.8 -74.5 114.6 161 161 161
151.7 -40.8 62.8 199 199 199
-416.1 -92.6 147.8 61 63 61
-382.0 -97.9 156.3 63 63 63
-369.2 -95.5 152.6 60 60 60
-326.2 -85.2 136.1 59 59 59
-335.1 -88.4 141.2 53 52 52
-373.6 -99.6 159.0 55 55 55
-349.4 -94.0 150.1 63 63 63
-313.6 -85.2 136.1 158 161 160
-330.2 -92.6 147.8 31 32 30
-309.8 -87.8 140.1 31 32 30
-267.0 -76.4 122.0 29 29 29
-262.5 -75.9 121.3 26 26 26
-310.0 -94.8 151.3 29 29 29
-287.8 -93.3 148.9 17 17 17
26.8 -9.6 15.4 220 223 222
27.1 -9.6 15.3 220 223 222
476.1 -142.7 227.9 176 179 178
241.9 -70.9 113.3 162 165 164
149.3 -38.7 61.8 202 202 202
-475.5 -101.9 168.9 67 67 67
-484.6 -104.7 173.5 67 67 67
-476.2 -103.7 172.0 67 67 67
-476.5 -104.7 173.5 68 68 68
-468.2 -103.7 172.0 68 68 68
-472.8 -105.6 175.2 72 72 72
-473.1 -106.6 176.8 72 72 72
-464.6 -105.6 175.2 73 73 73
-448.1 -102.8 170.4 70 70 70
-456.5 -105.6 175.2 71 71 71
-448.3 -104.7 173.5 72 72 72
-448.3 -105.6 175.2 72 72 72
-444.3 -105.6 175.2 75 76 76
-432.2 -103.7 172.0 176 176 176
-428.2 -103.7 172.0 192 192 192
-444.4 -108.6 180.2 72 72 72
-453.2 -111.8 185.5 73 73 73
-420.0 -104.7 173.5 74 74 74
-401.3 -101.0 167.4 74 74 74
-431.8 -109.7 181.9 71 72 70
-453.7 -116.4 193.0 77 77 77
-419.3 -108.6 180.2 91 94 93
-399.9 -104.7 173.5 171 173 173
-399.5 -105.6 175.2 126 129 128
-388.2 -103.7 172.0 74 75 73
-377.4 -101.9 168.9 67 67 67
-373.4 -101.9 168.9 62 62 62
-383.2 -105.6 175.2 58 58 58
-372.2 -103.7 172.0 58 58 58
-364.9 -102.8 170.4 58 58 58
-357.7 -101.9 168.9 58 58 58
-363.6 -104.7 173.5 53 53 53
-369.7 -107.6 178.5 58 59 59
-369.0 -108.6 180.2 91 91 91
-368.3 -109.7 181.9 152 152 152
-371.3 -111.8 185.5 66 66 66
-345.7 -106.6 176.8 101 101 101
-354.8 -110.8 183.7 57 57 57
-350.6 -110.8 183.7 52 52 52
-324.3 -103.7 172.0 57 57 57
-352.3 -114.1 189.2 65 65 65
-316.3 -103.7 172.0 65 65 65
-319.9 -107.6 178.5 66 66 66
-304.3 -103.7 172.0 64 63 61
-303.0 -104.7 173.5 64 63 61
-291.0 -101.9 168.9 60 60 60
-287.1 -101.9 168.9 64 64 62
-310.9 -111.8 185.5 58 59 59
-292.3 -106.6 176.8 44 46 46
-296.5 -109.7 181.9 29 29 29
-289.5 -108.6 180.2 29 29 29
-272.3 -103.7 172.0 36 35 34
-307.4 -118.8 197.0 42 42 42
-296.7 -116.4 193.0 45 47 46
-278.0 -110.8 183.7 52 52 52
-256.3 -103.7 172.0 59 59 59
23.5 -9.1 15.1 220 223 222
26.5 -9.2 15.2 220 223 222
26.8 -9.1 15.2 220 223 222
420.4 -121.4 201.2 189 189 189
226.9 -64.1 106.3 160 160 160
174.6 -44.0 73.0 206 206 206
150.2 -37.5 62.2 205 205 205
-572.7 -117.9 203.4 67 67 67
-628.8 -130.6 225.2 67 67 67
-609.0 -127.5 220.0 70 70 70
-577.1 -121.9 210.2 70 70 70
-595.5 -129.0 222.5 72 72 72
-611.9 -133.8 230.7 73 73 73
-580.0 -129.0 222.5 74 74 74
-500.4 -115.5 199.1 75 76 76
-567.5 -132.1 227.9 74 74 74
-576.1 -135.4 233.5 77 77 77
-563.7 -133.8 230.7 77 77 77
-526.2 -126.1 217.4 75 75 75
-482.4 -116.7 201.2 74 74 74
-554.4 -135.4 233.5 74 74 74
-555.8 -137.1 236.5 79 79 79
-530.4 -132.1 227.9 86 87 85
-484.3 -121.9 210.2 80 80 80
-454.2 -115.5 199.1 62 62 62
-444.8 -114.3 197.0 77 77 77
-422.7 -109.7 189.2 74 75 73
-486.3 -127.5 220.0 72 72 72
-517.3 -137.1 236.5 69 71 69
-413.1 -113.1 195.0 69 71 69
-466.5 -130.6 225.2 73 73 73
-466.8 -132.1 227.9 67 67 67
-450.7 -129.0 222.5 92 95 94
-461.8 -133.8 230.7 73 73 73
-451.2 -135.4 233.5 66 66 66
-401.2 -121.9 210.2 63 62 61
-383.5 -117.9 203.4 63 62 61
-388.3 -144.3 248.9 29 29 29
-368.0 -138.8 239.4 33 34 32
-325.4 -124.6 215.0 37 38 37
23.5 -8.8 15.1 220 223 222
26.5 -8.8 15.2 222 224 224
26.7 -8.8 15.2 222 224 224
481.9 -133.8 230.7 175 175 175
216.0 -58.7 101.2 149 149 149
228.7 -57.1 98.5 198 198 198
233.3 -57.1 98.5 202 202 202
-457.8 -105.3 189.2 75 75 75
-423.8 -98.4 176.8 75 75 75
40.8 -49.2 88.4 225 225 225
38.4 -44.1 79.1 225 225 225
183.4 -142.3 255.6 220 220 220
23.6 -8.6 15.4 222 224 224
26.0 -8.5 15.4 222 224 224
26.4 -8.6 15.4 222 224 224
26.7 -8.5 15.3 222 224 224
26.9 -8.5 15.3 222 224 224
173.8 -44.8 80.5 173 173 173
179.0 -45.2 81.2 191 191 191
214.2 -51.4 92.3 199 199 199
213.2 -50.6 90.9 202 202 202
214.3 -50.4 90.5 202 202 202
180.2 -41.9 75.4 203 203 203
-572.3 -126.1 236.5 74 74 74
37.0 -40.7 76.3 226 226 226
23.7 -8.3 15.5 221 221 221
192.4 -48.0 90.1 144 146 146
178.3 -44.1 82.6 174 174 174
173.8 -42.0 78.8 189 189 189
175.6 -42.0 78.8 191 191 191
208.0 -48.3 90.5 196 196 196
211.1 -48.5 90.9 199 199 199
197.1 -44.8 84.1 202 202 202
201.8 -45.4 85.2 203 203 203
180.2 -40.2 75.4 203 203 203
202.4 -41.5 77.8 60 63 62
39.5 -43.7 85.6 224 224 224
37.6 -39.5 77.5 226 226 226
23.5 -7.7 15.1 221 221 221
196.1 -46.8 91.8 143 143 142
173.8 -41.1 80.5 170 171 170
175.3 -40.5 79.5 189 189 189
180.1 -41.2 80.8 192 192 192
213.1 -47.3 92.7 197 197 197
213.2 -46.8 91.8 202 202 202
212.2 -46.2 90.5 203 203 203
183.1 -39.1 76.6 203 203 203
205.0 -40.2 78.8 60 63 62
40.8 -43.0 88.4 225 225 225
39.1 -39.2 80.5 224 224 224
23.3 -7.3 15.0 222 222 222
26.5 -7.4 15.2 222 222 222
25.4 -6.6 13.5 224 224 224
204.0 -46.5 95.5 137 139 138
179.1 -40.4 83.0 174 174 174
184.3 -41.1 84.4 183 183 183
182.2 -40.2 82.6 186 186 186
188.2 -41.1 84.4 192 192 192
219.6 -46.5 95.5 197 197 197
217.4 -45.6 93.6 199 199 199
210.2 -43.6 89.7 199 199 199
214.3 -44.1 90.5 203 203 203
188.5 -38.4 78.8 203 203 203
219.6 -41.5 85.2 60 63 62
212.9 -39.9 81.9 61 64 63
117.7 -21.3 43.7 67 69 68
40.6 -40.8 88.0 224 224 224
36.0 -34.4 74.2 225 225 225
23.2 -6.9 14.9 220 220 220
25.2 -6.2 13.4 224 224 224
24.8 -6.0 13.0 224 224 224
233.7 -51.3 110.6 99 99 99
204.0 -44.3 95.5 111 113 112
181.5 -39.0 84.1 149 151 151
178.3 -37.5 80.8 186 186 186
226.4 -45.7 98.5 195 195 195
221.8 -44.3 95.5 197 197 197
211.2 -41.8 90.1 200 200 200
214.3 -42.0 90.5 203 203 203
180.2 -34.9 75.4 203 203 203
199.4 -38.3 82.6 207 207 207
179.4 -34.1 73.6 212 214 214
212.9 -38.0 81.9 61 64 63
194.6 -34.4 74.2 62 64 64
23.2 -6.6 14.9 220 220 220
25.3 -5.9 13.4 225 225 225
224.0 -42.1 95.5 200 200 200
220.6 -37.4 84.8 61 64 63
26.9 -6.1 14.7 221 221 221
27.2 -6.1 14.6 225 225 225
27.5 -6.1 14.6 225 225 225
26.0 -5.8 14.8 222 222 222
26.3 -5.8 14.7 222 222 222
26.6 -5.8 14.7 222 222 222
27.0 -5.8 14.7 222 222 222
27.2 -5.8 14.7 220 220 220
27.5 -5.8 14.6 220 220 220
26.1 -5.5 14.8 224 224 224
26.5 -5.5 14.8 224 224 224
26.8 -5.5 14.8 224 224 224
27.1 -5.5 14.8 224 224 224
27.4 -5.5 14.8 224 224 224
27.8 -5.5 14.8 224 224 224
27.5 -5.1 14.8 224 224 224
29.7 -4.9 15.2 225 225 225
29.9 -4.9 15.2 225 225 225
29.4 -4.6 15.3 225 225 225
29.6 -4.6 15.2 225 225 225
29.3 -4.2 15.2 226 226 226
29.5 -4.2 15.2 224 224 224
29.5 -3.9 15.2 224 224 224
29.8 -3.8 15.1 224 224 224
29.8 -2.8 14.9 222 222 222
29.2 -2.4 15.0 222 222 222
29.5 -2.4 14.9 222 222 222
29.9 -2.4 15.0 222 222 222
258.9 -16.1 99.6 75 76 76
29.5 -2.1 15.3 224 224 224
29.5 -2.1 15.2 224 224 224
29.8 -2.1 15.1 224 224 224
30.1 -2.1 15.1 224 224 224
276.3 -14.7 106.3 72 72 72
29.7 -1.8 15.2 224 224 224
346.9 -15.8 137.1 64 66 66
284.3 -12.6 109.3 66 66 66
439.2 -13.6 147.8 106 108 108
593.4 -9.1 201.2 92 95 94
1153.0 -8.7 394.1 137 137 137
587.2 -4.4 199.1 99 99 99
1118.9 -7.8 356.9 128 130 129
892.6 0.4 305.1 136 136 136
648.6 0.3 220.0 106 106 106
1154.1 0.5 370.9 36 37 35
941.3 0.4 300.3 113 115 114
-747.6 7.4 300.3 61 61 61
892.6 7.5 305.1 131 134 133
557.8 4.6 189.2 106 106 106
1201.3 9.5 386.0 36 38 36
912.3 7.1 291.0 200 200 200
-1036.2 18.8 394.1 58 59 59
-1027.1 18.8 394.1 59 59 59
-999.6 18.8 394.1 59 59 59
-792.4 15.1 315.3 60 60 60
-682.6 13.1 274.1 60 60 60
536.4 8.7 181.9 97 100 99
493.7 11.9 167.4 106 106 106
698.6 33.7 286.6 199 199 199
960.6 55.5 394.1 203 203 203
99.2 3.8 27.2 126 129 128
99.5 3.8 26.9 87 86 84
99.6 3.8 26.8 89 89 89
99.5 4.5 27.3 116 116 116
99.6 4.4 27.0 87 87 85
97.5 4.3 26.2 87 87 85
99.5 5.1 27.3 112 114 113
98.9 5.0 26.9 96 96 96
100.1 5.1 27.1 87 87 85
97.9 4.9 26.3 86 85 83
100.3 5.8 27.5 107 107 107
101.2 5.8 27.6 92 92 92
-40.5 13.0 34.8 65 65 65
-42.1 13.8 34.8 47 47 47
-40.9 13.6 34.4 47 47 47
-40.1 13.6 34.4 54 53 52
-38.8 13.5 34.0 51 51 51
-41.1 14.3 34.0 46 45 43
-40.2 14.2 33.8 48 48 48
-39.4 14.2 33.8 35 35 35
-38.4 14.1 33.6 132 135 134
-39.4 15.0 33.8 214 216 216
-37.6 14.6 33.0 229 232 231
206.8 36.7 78.8 108 108 108
-28.5 5.8 10.3 43 42 41
-16.8 5.7 10.2 111 113 112
-7.3 5.8 10.4 101 101 101
-7.0 5.8 10.4 100 100 100
-6.0 5.7 10.2 156 159 158
-3.1 5.7 10.3 218 218 218
-28.7 5.9 10.2 47 47 47
-28.6 6.0 10.2 44 43 42
-28.3 5.9 10.2 41 41 41
-27.5 5.9 10.2 141 141 141
-27.1 5.9 10.2 141 141 141
-26.8 5.9 10.2 134 134 134
-26.6 5.9 10.2 129 129 129
-26.4 5.9 10.2 126 128 127
-26.1 5.9 10.2 130 130 130
-25.9 5.9 10.2 136 136 136
-25.6 5.9 10.2 138 140 139
-25.4 5.9 10.2 140 142 141
-25.2 5.9 10.2 141 143 142
-24.9 5.9 10.2 140 142 141
-24.7 5.9 10.2 142 144 143
-24.4 5.9 10.2 139 139 139
-24.2 5.9 10.2 128 130 129
-24.0 5.9 10.2 128 131 130
-23.7 5.9 10.2 149 149 149
-23.5 5.9 10.2 143 143 142
-23.2 5.9 10.2 120 122 121
-23.0 5.9 10.2 85 84 82
-22.8 5.9 10.2 85 84 82
-22.5 5.9 10.2 85 85 85
-22.3 5.9 10.2 85 84 82
-22.1 5.9 10.2 87 87 87
-21.8 5.9 10.2 95 94 93
-21.6 5.9 10.2 99 99 99
-16.8 5.9 10.2 128 128 128
-7.3 6.1 10.4 100 100 100
-7.0 6.0 10.3 90 90 90
-6.7 6.0 10.3 88 88 88
-6.4 5.9 10.2 134 134 134
-6.2 6.0 10.2 157 160 159
-6.0 5.9 10.2 158 161 160
-5.6 5.8 10.0 155 158 157
-3.6 5.9 10.2 232 232 232
-3.4 6.0 10.2 236 236 236
-3.1 5.9 10.2 224 224 224
-2.9 5.9 10.2 214 214 214
-22.6 6.2 10.2 89 89 89
-22.3 6.2 10.2 94 93 92
-6.7 6.2 10.3 64 64 64
-6.0 6.2 10.2 162 162 162
-3.1 6.2 10.2 235 235 235
-295.9 68.5 105.1 42 43 42
-293.4 68.5 105.1 38 38 38
-291.0 68.5 105.1 36 37 36
-288.5 68.5 105.1 38 38 38
-286.1 68.5 105.1 30 32 32
-283.7 68.5 105.1 89 89 87
-281.2 68.5 105.1 128 131 130
-278.8 68.5 105.1 125 125 125
-276.3 68.5 105.1 118 120 119
-273.9 68.5 105.1 115 115 115
-271.4 68.5 105.1 115 114 114
-269.0 68.5 105.1 115 114 114
-266.6 68.5 105.1 115 115 115
-264.1 68.5 105.1 118 120 119
-261.7 68.5 105.1 118 120 119
-259.2 68.5 105.1 119 121 120
-256.8 68.5 105.1 121 123 122
-254.3 68.5 105.1 127 127 127
-251.9 68.5 105.1 120 122 121
-249.5 68.5 105.1 117 117 117
-247.0 68.5 105.1 106 106 106
-244.6 68.5 105.1 143 143 142
-242.1 68.5 105.1 165 165 165
-236.1 68.9 105.7 101 103 103
-232.4 68.5 105.1 103 105 105
-229.9 68.5 105.1 109 109 109
-227.5 68.5 105.1 114 116 115
-225.0 68.5 105.1 122 122 122
-222.6 68.5 105.1 120 120 120
-220.1 68.5 105.1 136 138 137
-217.7 68.5 105.1 138 140 139
-215.3 68.5 105.1 150 150 150
-212.8 68.5 105.1 171 170 169
-210.4 68.5 105.1 173 173 173
-209.1 68.9 105.7 168 168 168
-201.7 68.9 105.7 128 128 128
-198.2 68.5 105.1 128 128 128
-196.8 68.9 105.7 123 125 124
-193.3 68.5 105.1 124 127 126
-190.8 68.5 105.1 123 125 124
-188.4 68.5 105.1 120 120 120
-186.0 68.5 105.1 116 116 116
-185.6 69.3 106.3 112 114 113
-184.1 69.7 106.9 112 112 112
-182.7 70.1 107.5 110 110 110
-177.2 68.9 105.7 114 116 115
-172.8 68.1 104.5 130 130 130
-171.3 68.5 105.1 133 133 133
-168.9 68.5 105.1 134 136 135
-166.4 68.5 105.1 134 136 135
-164.0 68.5 105.1 148 148 148
-161.5 68.5 105.1 148 150 150
-159.1 68.5 105.1 170 171 170
-156.6 68.5 105.1 163 163 163
-154.2 68.5 105.1 150 152 152
-146.9 69.7 106.9 116 116 116
-142.0 68.5 105.1 123 125 124
-127.3 68.5 105.1 81 81 81
-123.8 69.3 106.3 33 32 30
-119.3 68.1 104.5 102 104 104
-115.0 67.0 102.8 128 128 128
-113.9 67.8 103.9 127 127 127
-113.3 68.9 105.7 150 150 150
-112.7 70.1 107.5 128 128 128
-109.0 69.3 106.3 128 128 128
-104.2 67.8 103.9 101 101 101
-99.7 69.7 106.9 130 130 130
-95.6 68.5 105.1 128 128 128
-92.1 67.8 103.9 165 168 167
44.9 70.5 108.1 61 63 61
47.1 70.1 107.5 69 69 69
46.7 66.0 101.2 73 73 73
57.4 67.4 103.4 24 24 24
60.1 67.8 103.9 59 60 58
62.2 67.4 103.4 71 72 70
-178.6 71.0 105.1 117 117 117
-167.8 67.6 100.1 122 122 122
-158.7 64.8 96.0 124 126 125
-144.6 65.5 97.0 224 226 226
-142.3 65.5 97.0 235 235 235
-116.0 67.2 99.6 34 34 34
-110.8 65.5 97.0 156 156 156
-101.7 61.4 90.9 137 139 138
-95.3 64.2 95.1 99 99 99
44.7 72.6 107.5 63 64 62
45.6 70.2 103.9 71 71 71
44.4 64.8 96.0 75 75 75
42.9 59.7 88.4 77 79 77
53.6 65.2 96.5 19 23 20
54.1 63.2 93.6 60 62 60
54.2 60.8 90.1 73 74 72
-153.9 64.1 91.8 124 127 126
-146.8 62.0 88.8 123 123 123
-148.2 63.5 90.9 123 123 123
-144.7 62.9 90.1 124 126 125
-142.6 62.9 90.1 123 123 123
-140.5 62.9 90.1 218 221 220
-138.5 62.9 90.1 230 233 232
-136.4 62.9 90.1 236 236 236
-134.3 62.9 90.1 235 235 235
-132.2 62.9 90.1 199 199 199
-123.0 59.5 85.2 224 224 224
-120.0 59.0 84.4 231 231 231
-113.3 62.9 90.1 148 150 150
-106.2 60.1 86.0 143 143 142
-104.7 60.3 86.4 74 74 74
-102.6 60.3 86.4 43 43 43
-105.0 62.9 90.1 22 25 23
-99.1 60.6 86.8 134 134 134
-94.5 59.0 84.4 119 119 119
-98.2 62.6 89.7 107 107 107
-93.9 61.2 87.6 60 62 60
-87.8 61.2 87.6 153 155 155
-82.3 58.7 84.1 154 156 156
42.1 67.1 96.0 73 73 73
42.0 63.5 90.9 74 74 74
40.6 58.5 83.7 77 77 77
51.5 64.8 92.7 25 25 25
52.8 63.8 91.4 60 60 60
51.5 59.8 85.6 75 76 74
52.7 59.0 84.4 75 76 74
-419.3 107.5 148.9 87 86 84
-471.6 121.9 168.9 88 88 86
-415.7 108.4 150.1 88 88 86
-412.2 108.4 150.1 89 89 87
-408.7 108.4 150.1 95 98 97
-405.2 108.4 150.1 113 114 113
-401.7 108.4 150.1 121 123 122
-398.2 108.4 150.1 121 123 122
-394.8 108.4 150.1 120 122 121
-391.3 108.4 150.1 120 122 121
-384.7 107.5 148.9 120 122 121
-381.3 107.5 148.9 121 123 122
-377.8 107.5 148.9 123 125 124
-374.3 107.5 148.9 124 126 125
-370.9 107.5 148.9 127 127 127
-364.5 106.7 147.8 127 127 127
-405.5 119.8 165.9 124 127 126
-363.4 108.4 150.1 124 127 126
-390.9 117.7 163.1 123 125 124
-397.4 120.8 167.4 129 129 129
-397.0 121.9 168.9 134 134 134
-386.2 119.8 165.9 145 145 144
-343.2 107.5 148.9 176 179 178
-381.3 121.9 168.9 125 125 125
-370.7 119.8 165.9 121 121 121
-331.9 108.4 150.1 122 122 122
-328.5 108.4 150.1 126 126 126
-325.0 108.4 150.1 126 129 128
-321.5 108.4 150.1 132 132 132
-318.0 108.4 150.1 132 132 132
-314.5 108.4 150.1 136 136 136
-311.0 108.4 150.1 136 136 136
-305.1 107.5 148.9 140 142 141
-301.6 107.5 148.9 139 141 140
-302.9 109.2 151.3 139 141 140
-297.1 108.4 150.1 139 141 140
-324.5 119.8 165.9 139 141 140
-320.6 119.8 165.9 139 141 140
-248.2 108.4 150.1 116 118 117
-244.7 108.4 150.1 114 116 115
-241.2 108.4 150.1 114 116 115
-237.7 108.4 150.1 103 105 105
-234.2 108.4 150.1 135 135 135
-228.9 107.5 148.9 215 215 215
-227.3 108.4 150.1 231 231 231
-223.8 108.4 150.1 207 207 207
-216.8 106.7 147.8 150 152 152
-191.5 111.9 155.1 157 157 157
-179.1 106.7 147.8 75 76 76
-183.7 113.8 157.6 11 16 13
-188.9 121.9 168.9 21 21 21
-161.9 106.7 147.8 18 18 18
-158.4 106.7 147.8 25 25 25
-155.0 106.7 147.8 33 33 33
46.0 71.9 99.6 75 76 76
47.6 70.7 98.0 77 77 77
82.6 107.5 148.9 25 25 25
85.4 106.7 147.8 64 65 63
100.7 120.8 167.4 77 78 76
-871.4 412.7 394.1 51 51 51
-816.4 412.7 394.1 65 66 64
-724.8 412.7 394.1 33 33 33
-701.0 404.3 386.0 25 25 25
-638.2 404.3 386.0 14 14 14
-495.8 412.7 394.1 88 88 88
-431.7 412.7 394.1 76 78 77
126.3 67.3 49.0 69 69 69
42.9 25.3 18.1 90 90 90
43.5 25.4 18.2 206 209 208
43.8 25.3 18.2 210 210 210
436.5 169.3 121.3 108 110 110
42.8 25.4 17.9 202 202 202
43.1 25.3 17.9 204 207 206
30.4 18.9 13.1 220 223 222
30.7 18.9 13.1 225 225 225
