ply
format ascii 1.0
element vertex 2657
property float x
property float y
property float z
property uchar red
property uchar green
property uchar blue
end_header
103.5 -167.1 66.6 157 160 159
107.7 -171.3 68.3 155 158 157
108.5 -170.1 67.8 155 158 157
107.0 -165.4 65.9 156 159 158
38.0 -185.9 74.8 162 162 162
41.5 -185.9 74.8 161 161 161
43.2 -185.9 74.8 161 161 161
45.0 -185.9 74.8 164 164 164
46.7 -185.9 74.8 164 164 164
48.2 -185.1 74.5 164 164 164
50.2 -185.9 74.8 164 164 164
52.1 -186.6 75.1 161 161 161
53.7 -185.9 74.8 164 164 164
55.4 -185.9 74.8 167 167 167
57.4 -186.6 75.1 168 168 168
59.1 -186.6 75.1 168 168 168
60.8 -186.6 75.1 168 168 168
62.3 -185.9 74.8 168 168 168
64.3 -186.6 75.1 168 168 168
66.1 -186.6 75.1 168 168 168
67.6 -185.9 74.8 165 165 165
69.3 -185.9 74.8 165 165 165
71.3 -186.6 75.1 165 165 165
73.1 -186.6 75.1 165 165 165
74.5 -185.9 74.8 165 165 165
76.2 -185.9 74.8 165 165 165
78.0 -185.9 74.8 165 165 165
79.7 -185.9 74.8 162 162 162
81.5 -185.9 74.8 163 163 163
83.5 -186.6 75.1 163 163 163
85.6 -187.3 75.4 163 163 163
87.0 -186.6 75.1 163 163 163
88.4 -185.9 74.8 163 163 163
90.1 -185.9 74.8 163 163 163
91.9 -185.9 74.8 161 161 161
93.6 -185.9 74.8 163 163 163
95.0 -185.1 74.5 163 163 163
97.1 -185.9 74.8 163 163 163
113.7 -190.4 76.6 157 160 159
111.9 -184.4 74.2 157 160 159
114.5 -185.9 74.8 157 160 159
116.2 -185.9 74.8 157 160 159
117.0 -184.4 74.2 158 161 160
118.8 -184.4 74.2 158 161 160
114.6 -175.5 70.6 159 162 161
58.4 -40.3 16.2 96 96 96
57.5 -39.5 15.9 180 183 182
58.6 -39.7 16.0 200 202 202
59.0 -39.7 16.0 196 196 196
59.4 -39.7 16.0 197 200 199
59.5 -39.6 15.9 149 149 149
61.1 -40.1 16.1 206 206 206
60.3 -39.4 15.8 216 216 216
60.4 -39.2 15.8 194 194 194
28.8 -180.6 73.3 155 158 157
30.3 -179.9 73.0 163 163 163
32.0 -179.9 73.0 160 160 160
33.7 -179.9 73.0 160 160 160
35.4 -179.9 73.0 162 162 162
37.1 -179.9 73.0 162 162 162
38.8 -179.9 73.0 162 162 162
40.5 -179.9 73.0 164 164 164
42.2 -179.9 73.0 164 164 164
43.9 -179.9 73.0 164 164 164
45.6 -179.9 73.0 164 164 164
47.1 -179.2 72.8 164 164 164
49.0 -179.9 73.0 164 164 164
50.9 -180.6 73.3 167 167 167
52.4 -179.9 73.0 167 167 167
54.1 -179.9 73.0 167 167 167
56.0 -180.6 73.3 168 168 168
58.0 -181.3 73.6 168 168 168
59.4 -180.6 73.3 168 168 168
61.1 -180.6 73.3 168 168 168
62.8 -180.6 73.3 168 168 168
64.5 -180.6 73.3 168 168 168
66.0 -179.9 73.0 165 165 165
67.7 -179.9 73.0 165 165 165
69.7 -180.6 73.3 165 165 165
71.9 -182.0 73.9 165 165 165
72.8 -179.9 73.0 165 165 165
74.2 -179.2 72.8 165 165 165
76.2 -179.9 73.0 162 162 162
77.9 -179.9 73.0 162 162 162
79.9 -180.6 73.3 163 163 163
81.9 -181.3 73.6 163 163 163
83.6 -181.3 73.6 163 163 163
85.0 -180.6 73.3 163 163 163
86.7 -180.6 73.3 163 163 163
87.7 -179.2 72.8 163 163 163
89.8 -179.9 73.0 163 163 163
91.1 -179.2 72.8 163 163 163
92.4 -178.5 72.5 163 163 163
94.9 -179.9 73.0 163 163 163
97.3 -181.3 73.6 163 163 163
99.4 -182.0 73.9 163 163 163
101.9 -183.4 74.5 163 163 163
104.5 -182.0 73.9 164 164 164
105.0 -179.9 73.0 162 162 162
110.6 -183.4 74.5 162 162 162
108.5 -177.1 71.9 162 162 162
113.1 -182.0 73.9 162 162 162
115.3 -182.7 74.2 162 162 162
116.6 -182.0 73.9 163 163 163
118.3 -182.0 73.9 163 163 163
116.8 -177.1 71.9 159 162 161
103.3 -76.6 31.1 99 101 101
56.2 -38.7 15.7 91 91 91
56.9 -38.7 15.7 189 189 189
57.2 -38.7 15.7 149 149 149
57.6 -38.6 15.7 200 202 202
58.0 -38.7 15.7 196 196 196
58.4 -38.7 15.7 207 207 207
58.6 -38.6 15.7 170 171 170
58.8 -38.5 15.6 163 166 165
59.8 -38.9 15.8 216 216 216
60.0 -38.8 15.8 191 191 191
59.8 -38.4 15.6 197 200 199
47.4 -172.2 70.6 167 167 167
49.2 -172.8 70.8 167 167 167
50.7 -172.2 70.6 167 167 167
51.7 -170.3 69.8 169 171 170
56.0 -173.5 71.1 168 168 168
60.9 -173.5 71.1 168 168 168
62.6 -173.5 71.1 168 168 168
63.8 -172.2 70.6 165 165 165
65.4 -172.2 70.6 165 165 165
66.8 -171.5 70.3 165 165 165
70.8 -177.5 72.8 165 165 165
69.8 -170.9 70.1 165 165 165
73.1 -170.9 70.1 165 165 165
75.0 -171.5 70.3 162 162 162
76.9 -172.2 70.6 163 163 163
79.7 -174.8 71.7 163 163 163
80.8 -173.5 71.1 163 163 163
82.1 -172.8 70.8 163 163 163
83.5 -172.2 70.6 163 163 163
83.9 -169.6 69.5 163 163 163
86.1 -170.9 70.1 163 163 163
87.1 -169.6 69.5 166 166 166
501.5 -824.0 337.8 164 164 164
56.9 -89.3 36.6 164 164 164
121.8 -188.3 77.2 165 165 165
124.1 -189.1 77.5 165 165 165
117.3 -176.1 72.2 164 164 164
98.5 -72.3 29.6 99 101 101
95.7 -69.8 28.6 99 101 101
56.6 -38.1 15.6 197 200 199
56.9 -38.1 15.6 155 155 155
57.1 -38.0 15.6 197 200 199
57.4 -37.9 15.6 197 200 199
57.9 -38.0 15.6 204 204 204
58.0 -37.8 15.5 207 207 207
58.1 -37.7 15.5 212 213 212
60.0 -38.4 15.8 200 202 202
59.3 -37.8 15.5 218 218 218
45.4 -102.9 42.6 166 166 166
52.1 -104.3 43.2 166 166 166
52.2 -102.7 42.5 166 166 166
53.2 -102.7 42.5 166 166 166
54.0 -102.2 42.3 166 166 166
56.8 -103.9 43.0 166 166 166
122.3 -187.3 77.5 165 165 165
125.1 -188.9 78.2 165 165 165
120.5 -179.2 74.2 166 166 166
91.3 -65.9 27.3 99 101 101
56.1 -36.2 15.0 174 174 174
53.8 -34.3 14.2 189 189 189
58.2 -36.7 15.2 216 216 216
44.8 -100.6 42.0 168 168 168
50.7 -100.6 42.0 169 169 169
51.2 -99.7 41.7 169 169 169
53.0 -99.5 41.6 169 169 169
54.6 -100.6 42.0 169 169 169
55.7 -100.8 42.1 169 169 169
121.4 -192.6 80.5 170 171 170
55.4 -85.2 35.6 170 171 170
119.4 -181.1 75.7 172 172 172
121.6 -181.8 76.0 172 172 172
120.0 -176.8 73.9 172 172 172
84.7 -60.2 25.2 99 101 101
52.2 -33.6 14.0 179 179 179
52.6 -33.7 14.1 189 189 189
52.7 -33.5 14.0 197 200 199
52.6 -33.2 13.9 212 213 212
52.5 -33.0 13.8 216 216 216
15.9 -77.8 32.8 165 165 165
16.8 -78.1 33.0 165 165 165
17.5 -77.8 32.8 168 168 168
18.2 -77.8 32.8 168 170 169
19.0 -77.8 32.8 168 170 169
19.7 -77.7 32.8 171 173 173
20.5 -77.7 32.8 168 170 169
21.2 -77.7 32.8 168 170 169
22.0 -77.7 32.8 168 170 169
22.8 -77.7 32.8 167 167 167
23.5 -77.7 32.8 167 167 167
24.2 -77.5 32.7 167 167 167
25.0 -77.4 32.7 168 168 168
25.8 -77.5 32.7 168 168 168
26.6 -77.8 32.8 168 168 168
27.4 -78.0 32.9 168 168 168
28.1 -77.8 32.8 168 168 168
28.9 -77.7 32.8 168 168 168
29.6 -77.5 32.7 168 168 168
30.4 -77.8 32.8 168 168 168
31.2 -77.8 32.8 169 171 170
31.8 -77.4 32.7 170 172 172
32.6 -77.5 32.7 170 172 172
33.4 -77.5 32.7 170 172 172
34.0 -77.3 32.6 170 172 172
35.0 -77.8 32.8 168 168 168
35.9 -78.1 33.0 169 169 169
36.4 -77.5 32.7 170 172 172
37.0 -77.3 32.6 170 172 172
37.9 -77.5 32.7 170 172 172
38.7 -77.5 32.7 171 173 173
39.6 -77.8 32.8 171 173 173
40.4 -77.8 32.8 171 173 173
41.1 -77.8 32.8 171 173 173
41.8 -77.7 32.8 171 173 173
42.6 -77.7 32.8 171 173 173
43.3 -77.5 32.7 171 173 173
44.3 -78.1 33.0 171 173 173
45.1 -78.1 33.0 171 173 173
45.9 -78.1 33.0 174 176 176
46.6 -78.1 33.0 171 173 173
47.5 -78.2 33.0 172 174 174
48.2 -78.1 33.0 172 174 174
48.8 -78.0 32.9 172 174 174
136.6 -211.4 89.2 172 174 174
53.1 -80.9 34.1 172 174 174
52.2 -78.4 33.1 173 175 175
52.2 -77.3 32.6 173 175 175
118.6 -173.1 73.0 173 175 175
104.6 -150.4 63.5 174 176 176
47.4 -30.4 12.8 204 204 204
46.7 -29.8 12.6 197 200 199
49.4 -30.7 13.0 218 218 218
15.6 -75.6 32.2 168 168 168
16.4 -75.5 32.2 169 171 170
17.0 -75.2 32.1 169 171 170
17.8 -75.4 32.1 168 170 169
18.5 -75.1 32.0 168 170 169
19.2 -75.1 32.0 168 170 169
20.0 -75.1 32.0 168 170 169
20.7 -75.0 32.0 168 170 169
21.4 -75.0 32.0 168 170 169
22.2 -75.0 32.0 168 170 169
22.9 -75.0 32.0 169 171 170
23.7 -75.0 32.0 169 171 170
24.4 -75.0 32.0 169 171 170
25.2 -75.0 32.0 169 171 170
26.0 -75.2 32.1 169 171 170
26.8 -75.4 32.1 169 171 170
27.5 -75.2 32.1 169 171 170
28.2 -75.1 32.0 169 171 170
28.9 -75.0 32.0 169 171 170
29.6 -75.0 32.0 172 174 174
30.4 -75.0 32.0 169 171 170
31.1 -75.0 32.0 170 172 172
31.8 -75.0 32.0 173 175 175
32.6 -75.0 32.0 177 177 177
33.2 -74.7 31.8 173 175 175
34.1 -75.0 32.0 170 172 172
35.0 -75.4 32.1 173 175 175
35.6 -75.1 32.0 178 178 178
36.2 -74.8 31.9 173 175 175
37.0 -75.0 32.0 173 175 175
37.8 -75.0 32.0 171 173 173
38.6 -75.1 32.0 178 178 178
39.4 -75.2 32.1 174 176 176
40.1 -75.1 32.0 178 178 178
40.8 -75.1 32.0 178 178 178
41.6 -75.1 32.0 178 178 178
42.2 -75.0 32.0 181 181 181
43.3 -75.5 32.2 178 178 178
44.2 -75.7 32.3 174 176 176
44.8 -75.5 32.2 179 179 179
45.6 -75.6 32.2 175 177 177
46.3 -75.6 32.2 175 177 177
46.9 -75.4 32.1 182 182 182
47.5 -75.1 32.0 179 179 179
48.3 -75.2 32.1 179 179 179
148.5 -227.6 97.0 179 179 179
140.7 -212.4 90.5 182 182 182
51.5 -76.5 32.6 176 179 178
51.4 -75.4 32.1 173 175 175
52.2 -75.5 32.2 180 180 180
28.1 -37.8 16.1 175 177 177
28.3 -37.6 16.0 174 174 174
45.8 -28.9 12.3 197 200 199
18.0 -72.2 31.1 168 170 169
18.6 -71.8 30.9 168 170 169
19.6 -72.8 31.3 171 173 173
20.1 -72.2 31.1 171 173 173
20.9 -72.5 31.2 168 170 169
21.4 -71.7 30.9 168 170 169
22.1 -71.7 30.9 171 173 173
22.9 -71.7 30.9 169 171 170
23.6 -71.7 30.9 172 174 174
24.5 -72.3 31.1 172 174 174
25.1 -71.8 30.9 172 174 174
25.9 -72.3 31.1 180 180 180
26.8 -72.8 31.3 172 174 174
27.2 -71.7 30.9 172 174 174
28.0 -72.0 31.0 177 177 177
28.6 -71.7 30.9 177 177 177
29.4 -71.9 31.0 177 177 177
30.0 -71.7 30.9 180 180 180
30.9 -72.0 31.0 177 177 177
31.8 -72.4 31.2 189 189 189
32.0 -71.2 30.7 189 189 189
33.2 -72.4 31.2 185 185 185
34.0 -72.4 31.2 191 191 191
34.6 -72.3 31.1 191 191 191
34.9 -71.3 30.7 193 193 193
35.8 -71.7 30.9 193 193 193
37.7 -72.6 31.3 193 193 193
38.4 -72.6 31.3 195 195 195
38.7 -71.8 30.9 197 197 197
39.4 -71.7 30.9 195 195 195
40.5 -72.5 31.2 200 200 200
41.1 -72.3 31.1 197 197 197
42.0 -72.5 31.2 197 197 197
42.7 -72.5 31.2 197 197 197
43.3 -72.3 31.1 197 197 197
44.1 -72.4 31.2 197 197 197
44.9 -72.5 31.2 197 197 197
45.4 -72.2 31.1 200 200 200
45.8 -71.7 30.9 204 204 204
46.1 -71.0 30.6 200 200 200
134.9 -201.6 86.8 200 200 200
50.7 -74.6 32.1 195 195 195
51.0 -74.0 31.8 198 198 198
52.2 -74.6 32.1 198 198 198
27.8 -37.6 16.2 197 197 197
27.9 -37.2 16.0 200 200 200
28.0 -36.8 15.9 200 200 200
67.8 -46.7 20.1 99 101 101
67.1 -46.0 19.8 99 101 101
20.5 -70.2 30.5 196 196 196
21.2 -70.1 30.5 194 194 194
27.5 -70.1 30.5 202 202 202
28.2 -70.1 30.5 202 202 202
31.2 -70.4 30.6 205 205 205
34.1 -70.4 30.6 200 200 200
34.5 -69.8 30.4 204 204 204
38.1 -69.9 30.4 204 204 204
38.7 -69.7 30.3 200 200 200
43.7 -71.0 30.9 204 204 204
44.5 -71.1 30.9 204 204 204
44.6 -70.2 30.5 204 204 204
44.9 -69.5 30.2 204 204 204
131.3 -194.2 84.4 204 204 204
122.3 -178.3 77.5 202 202 202
51.0 -73.2 31.8 202 202 202
52.2 -73.9 32.1 202 202 202
122.2 -170.6 74.2 203 203 203
133.3 -183.6 79.8 206 206 206
27.8 -37.3 16.2 206 206 206
27.9 -36.9 16.0 207 207 207
68.5 -47.1 20.5 105 104 102
66.3 -45.3 19.7 105 104 102
66.0 -44.8 19.5 99 101 101
34.6 -70.7 31.1 204 204 204
44.2 -71.2 31.3 204 204 204
44.8 -70.9 31.2 204 204 204
45.2 -70.5 31.0 204 204 204
41.5 -62.7 27.5 204 204 204
122.8 -177.2 77.8 205 205 205
51.2 -72.7 32.0 205 205 205
52.7 -73.9 32.4 205 205 205
143.6 -195.7 86.0 209 209 209
144.3 -194.0 85.2 206 206 206
64.9 -43.9 19.3 106 106 106
62.6 -42.1 18.5 106 106 106
34.9 -70.7 31.4 207 207 207
41.6 -70.9 31.5 207 207 207
42.3 -70.8 31.4 207 207 207
43.5 -71.6 31.8 207 207 207
43.9 -71.2 31.6 207 207 207
44.6 -71.0 31.5 207 207 207
45.0 -70.6 31.3 207 207 207
45.5 -70.1 31.1 207 207 207
42.6 -63.7 28.3 204 204 204
43.0 -63.2 28.1 204 204 204
122.8 -175.4 77.8 205 205 205
51.2 -72.1 32.0 205 205 205
52.7 -73.1 32.4 205 205 205
54.3 -74.3 33.0 205 205 205
27.9 -36.1 16.0 207 207 207
27.8 -35.5 15.7 207 207 207
27.4 -34.6 15.3 207 207 207
62.0 -41.2 18.3 109 109 109
67.4 -44.5 19.7 106 106 106
44.2 -70.8 31.7 207 207 207
44.8 -70.7 31.7 207 207 207
45.4 -70.4 31.6 207 207 207
43.5 -65.3 29.3 207 207 207
42.6 -63.1 28.3 207 207 207
51.4 -71.6 32.1 207 207 207
52.5 -72.1 32.3 208 208 208
54.2 -73.4 32.9 208 208 208
27.9 -35.8 16.0 206 206 206
27.8 -35.1 15.7 207 207 207
27.1 -33.8 15.1 207 207 207
45.2 -69.3 31.4 206 206 206
43.8 -65.1 29.5 206 206 206
52.9 -71.9 32.6 207 207 207
27.8 -35.3 16.0 206 206 206
27.7 -34.7 15.7 206 206 206
27.1 -33.4 15.1 206 206 206
-28.7 -22.3 10.2 46 45 43
-28.5 -22.3 10.2 46 45 43
-28.3 -22.3 10.2 42 42 42
-28.0 -22.3 10.2 42 42 42
-27.8 -22.3 10.2 45 44 43
-27.6 -22.3 10.2 45 44 43
-27.3 -22.3 10.2 45 44 43
-27.1 -22.3 10.2 45 44 43
-26.8 -22.3 10.2 45 44 43
-26.6 -22.3 10.2 45 44 43
-26.3 -22.3 10.2 45 44 43
-26.1 -22.3 10.2 42 42 42
-25.9 -22.3 10.2 42 42 42
-25.6 -22.3 10.2 42 42 42
-25.4 -22.3 10.2 41 41 41
-25.2 -22.3 10.2 41 41 41
-24.9 -22.3 10.2 41 41 41
-24.7 -22.3 10.2 41 41 41
-24.4 -22.3 10.2 38 38 38
-24.2 -22.2 10.2 41 41 41
-23.9 -22.2 10.2 38 38 38
-23.7 -22.3 10.2 38 38 38
-23.5 -22.3 10.2 38 38 38
-23.4 -22.4 10.2 41 41 41
-23.0 -22.3 10.2 41 41 41
-22.8 -22.3 10.2 41 41 41
-22.5 -22.3 10.2 44 43 42
-22.3 -22.3 10.2 50 50 50
-21.9 -22.3 10.2 73 73 73
-21.4 -22.3 10.2 94 97 96
-21.1 -22.3 10.2 93 96 95
-20.7 -22.3 10.2 99 99 99
-20.4 -22.2 10.2 106 106 106
-20.2 -22.3 10.2 107 109 109
-19.2 -22.3 10.2 105 107 107
-19.0 -22.3 10.2 108 110 110
-18.8 -22.3 10.2 112 112 112
-18.5 -22.3 10.2 112 112 112
-18.3 -22.3 10.2 112 112 112
-18.0 -22.3 10.2 115 115 115
-17.8 -22.3 10.2 115 114 114
-17.6 -22.3 10.2 115 114 114
-17.3 -22.3 10.2 115 114 114
-17.1 -22.3 10.2 116 116 116
-16.9 -22.3 10.2 117 119 118
-16.6 -22.3 10.2 116 118 117
-16.4 -22.2 10.2 118 120 119
-16.1 -22.2 10.2 122 122 122
-15.7 -22.2 10.2 126 126 126
-15.4 -22.3 10.2 125 125 125
-15.2 -22.3 10.2 125 125 125
-15.0 -22.3 10.2 124 124 124
-14.7 -22.3 10.2 127 127 127
-14.5 -22.2 10.2 128 128 128
-14.0 -22.3 10.2 130 130 130
-13.7 -22.2 10.2 130 130 130
-13.5 -22.2 10.2 130 130 130
-13.3 -22.3 10.2 129 129 129
-6.9 -22.3 10.2 137 137 137
-6.2 -22.3 10.2 140 140 140
-6.0 -22.3 10.2 143 143 142
-5.7 -22.3 10.2 140 140 140
-5.5 -22.3 10.2 145 145 144
-5.2 -22.3 10.2 154 154 154
-5.0 -22.3 10.2 155 158 157
-4.8 -22.3 10.2 160 160 160
-4.5 -22.3 10.2 158 158 158
-4.3 -22.3 10.2 159 159 159
-4.1 -22.3 10.2 160 160 160
-3.8 -22.3 10.2 159 159 159
-1.2 -22.3 10.2 168 168 168
-1.0 -22.3 10.2 168 168 168
-0.7 -22.3 10.2 172 172 172
-0.5 -22.3 10.2 172 172 172
-0.3 -22.3 10.2 172 174 174
-0.0 -22.3 10.2 171 173 173
4.7 -22.3 10.2 204 204 204
5.9 -22.3 10.2 209 209 209
6.6 -22.3 10.2 209 209 209
6.8 -22.3 10.2 209 209 209
7.1 -22.2 10.2 209 209 209
7.3 -22.2 10.2 209 209 209
7.8 -22.3 10.2 208 208 208
8.0 -22.3 10.2 208 208 208
8.5 -22.3 10.2 208 208 208
9.7 -22.3 10.2 208 208 208
9.9 -22.3 10.2 208 208 208
10.7 -22.4 10.2 208 208 208
11.3 -22.2 10.2 206 206 206
12.3 -22.3 10.2 208 208 208
44.8 -69.2 31.7 208 208 208
45.3 -68.7 31.5 211 211 211
45.3 -67.7 31.0 208 208 208
44.5 -65.5 30.0 208 208 208
51.8 -70.6 32.3 206 206 206
53.0 -71.2 32.6 206 206 206
54.1 -71.7 32.8 207 207 207
54.1 -70.7 32.4 207 207 207
27.9 -34.9 16.0 205 205 205
27.8 -34.4 15.7 205 205 205
27.4 -33.5 15.3 206 206 206
-29.0 -22.2 10.3 46 45 43
-28.9 -22.3 10.3 46 45 43
-28.6 -22.3 10.3 46 45 43
-28.4 -22.3 10.3 42 43 42
-28.2 -22.3 10.3 42 43 42
-27.9 -22.3 10.3 47 48 47
-27.6 -22.3 10.3 46 45 43
-27.4 -22.3 10.3 46 45 43
-27.2 -22.3 10.3 47 48 47
-27.0 -22.3 10.3 47 48 47
-26.7 -22.3 10.3 46 45 43
-26.5 -22.3 10.3 46 45 43
-26.2 -22.3 10.3 46 45 43
-26.0 -22.3 10.3 46 45 43
-25.7 -22.3 10.3 42 42 42
-25.5 -22.4 10.3 42 42 42
-25.3 -22.3 10.3 42 42 42
-25.0 -22.3 10.3 42 42 42
-24.8 -22.3 10.3 39 39 39
-24.6 -22.3 10.3 39 39 39
-24.3 -22.3 10.3 36 37 36
-24.0 -22.3 10.3 39 39 39
-23.9 -22.4 10.4 39 39 39
-23.6 -22.4 10.4 39 39 39
-23.3 -22.3 10.3 39 39 39
-23.1 -22.3 10.3 39 39 39
-22.8 -22.3 10.3 39 39 39
-22.6 -22.3 10.3 48 48 48
-22.4 -22.4 10.4 45 44 43
-22.2 -22.4 10.4 42 42 42
-21.9 -22.3 10.3 52 53 51
-21.7 -22.3 10.3 57 57 57
-21.4 -22.3 10.3 76 76 74
-21.2 -22.4 10.3 97 100 99
-20.9 -22.3 10.3 93 93 93
-20.7 -22.3 10.3 94 97 96
-19.5 -22.3 10.3 107 109 109
-19.3 -22.3 10.3 107 109 109
-19.0 -22.3 10.3 106 108 108
-18.8 -22.3 10.3 106 108 108
-18.5 -22.3 10.3 108 110 110
-18.3 -22.3 10.3 112 112 112
-18.1 -22.4 10.3 112 112 112
-17.8 -22.4 10.4 112 112 112
-17.6 -22.4 10.3 113 114 113
-17.3 -22.3 10.3 112 112 112
-17.0 -22.3 10.3 112 112 112
-16.8 -22.3 10.3 115 115 115
-16.6 -22.4 10.3 116 116 116
-16.4 -22.3 10.3 116 116 116
-16.1 -22.3 10.3 117 119 118
-15.9 -22.3 10.3 117 119 118
-15.7 -22.4 10.3 119 121 120
-15.4 -22.3 10.3 122 122 122
-15.1 -22.3 10.3 122 122 122
-14.9 -22.2 10.3 122 122 122
-14.6 -22.2 10.3 124 124 124
-14.5 -22.3 10.3 124 124 124
-14.2 -22.3 10.3 125 125 125
-13.9 -22.2 10.3 125 125 125
-13.7 -22.4 10.4 127 127 127
-13.5 -22.3 10.3 127 127 127
-13.2 -22.2 10.3 131 131 131
-9.2 -22.4 10.4 138 140 139
-7.8 -22.4 10.4 136 138 137
-7.5 -22.4 10.4 132 135 134
-7.0 -22.4 10.3 141 141 141
-6.3 -22.4 10.3 147 147 147
-6.0 -22.3 10.3 146 146 146
-5.6 -22.4 10.3 155 158 157
-5.3 -22.4 10.3 159 159 159
-5.1 -22.3 10.3 160 160 160
-4.8 -22.3 10.3 163 163 163
-4.1 -22.4 10.4 161 164 163
-0.0 -22.3 10.3 174 176 176
4.8 -22.4 10.3 204 204 204
5.8 -22.4 10.4 208 208 208
6.0 -22.4 10.3 208 208 208
6.2 -22.3 10.3 208 208 208
6.5 -22.4 10.4 208 208 208
6.7 -22.3 10.3 208 208 208
6.9 -22.2 10.3 208 208 208
7.2 -22.3 10.3 208 208 208
7.4 -22.4 10.4 208 208 208
7.7 -22.4 10.3 208 208 208
7.9 -22.3 10.3 208 208 208
8.1 -22.3 10.3 208 208 208
8.4 -22.4 10.4 208 208 208
8.6 -22.3 10.3 208 208 208
9.6 -22.3 10.3 208 208 208
9.8 -22.3 10.3 208 208 208
10.1 -22.3 10.3 208 208 208
10.3 -22.4 10.3 208 208 208
10.6 -22.4 10.4 208 208 208
10.8 -22.3 10.3 208 208 208
11.1 -22.4 10.4 208 208 208
11.3 -22.4 10.4 208 208 208
11.8 -22.4 10.4 207 207 207
12.0 -22.4 10.3 207 207 207
12.2 -22.4 10.3 207 207 207
12.4 -22.3 10.3 207 207 207
12.7 -22.3 10.3 207 207 207
13.0 -22.4 10.4 207 207 207
44.8 -68.5 31.7 207 207 207
45.3 -68.0 31.5 207 207 207
45.5 -67.2 31.1 207 207 207
45.2 -65.7 30.4 207 207 207
51.2 -69.1 32.0 208 208 208
52.3 -69.6 32.2 206 206 206
53.5 -70.2 32.5 206 206 206
53.2 -68.8 31.8 206 206 206
53.9 -68.8 31.8 206 206 206
27.8 -34.5 16.0 207 207 207
27.8 -34.0 15.7 205 205 205
27.2 -32.9 15.2 205 205 205
-30.0 -22.7 10.6 46 46 44
-29.9 -22.9 10.7 46 46 44
-29.6 -22.9 10.7 42 43 42
-29.4 -22.9 10.7 50 50 50
-29.1 -22.9 10.7 47 48 47
-28.9 -22.9 10.7 47 48 47
-28.6 -22.9 10.7 47 48 47
-28.4 -22.9 10.7 47 48 47
-28.2 -22.9 10.7 47 48 47
-27.9 -22.9 10.7 47 48 47
-27.7 -22.9 10.7 47 48 47
-27.4 -22.8 10.7 46 46 44
-27.2 -22.9 10.7 46 46 44
-26.9 -22.9 10.7 46 46 44
-26.7 -22.9 10.7 42 43 42
-26.4 -22.9 10.7 42 43 42
-26.2 -22.9 10.7 42 43 42
-26.0 -22.9 10.7 42 43 42
-25.7 -22.9 10.7 40 40 40
-25.4 -22.8 10.7 40 40 40
-25.1 -22.9 10.7 37 38 37
-25.0 -22.9 10.7 40 40 40
-24.7 -22.9 10.7 40 40 40
-24.4 -22.8 10.7 37 38 37
-24.1 -22.9 10.7 40 40 40
-23.9 -22.9 10.7 40 40 40
-23.8 -23.0 10.8 40 40 40
-23.4 -22.9 10.7 42 43 42
-23.2 -22.9 10.7 42 43 42
-22.9 -22.9 10.7 42 43 42
-22.7 -22.9 10.7 42 43 42
-22.4 -22.9 10.7 46 45 43
-22.2 -22.9 10.7 49 49 49
-21.9 -22.9 10.7 54 54 54
-21.6 -22.8 10.7 55 56 54
-21.5 -22.9 10.7 85 85 85
-20.2 -22.9 10.7 103 103 103
-19.9 -22.9 10.7 106 106 106
-19.7 -22.9 10.7 107 107 107
-19.5 -22.9 10.7 107 107 107
-19.2 -22.9 10.7 107 107 107
-18.9 -22.9 10.7 107 109 109
-18.7 -22.9 10.7 107 109 109
-18.5 -22.9 10.7 107 109 109
-18.1 -22.8 10.7 107 109 109
-18.0 -22.9 10.7 107 109 109
-17.7 -22.9 10.7 109 111 111
-17.5 -22.9 10.7 112 112 112
-17.2 -22.9 10.7 112 112 112
-17.0 -22.9 10.7 113 114 113
-16.7 -22.9 10.7 113 114 113
-16.5 -22.9 10.7 116 116 116
-16.2 -22.9 10.7 117 117 117
-16.0 -22.9 10.7 119 121 120
-15.6 -22.8 10.7 118 120 119
-15.4 -22.7 10.6 118 120 119
-15.2 -22.9 10.7 120 122 121
-15.0 -22.9 10.7 123 123 123
-14.7 -22.8 10.7 119 121 120
-9.8 -22.9 10.7 135 135 135
-9.5 -22.9 10.7 137 139 138
-9.2 -22.9 10.7 136 138 137
-9.0 -22.8 10.7 138 138 138
-8.8 -23.0 10.8 139 139 139
-8.5 -22.9 10.7 140 142 141
-8.2 -22.8 10.7 138 140 139
-7.9 -22.6 10.6 138 140 139
-7.7 -22.8 10.7 139 139 139
-7.5 -22.9 10.7 144 144 144
-7.1 -23.1 10.8 147 147 147
-6.8 -22.9 10.7 148 148 148
-6.5 -22.9 10.7 150 152 152
-6.0 -23.0 10.8 158 161 160
-5.8 -23.0 10.8 162 162 162
-5.5 -23.0 10.8 165 165 165
-5.3 -23.0 10.8 165 168 167
-5.0 -23.0 10.8 165 168 167
-4.5 -23.0 10.8 163 166 165
-4.3 -23.0 10.8 168 168 168
-3.8 -23.1 10.8 166 166 166
-3.5 -23.0 10.7 170 171 170
-3.3 -22.9 10.7 170 171 170
-3.0 -23.0 10.8 171 173 173
-2.8 -23.0 10.8 171 173 173
-2.0 -22.9 10.7 174 176 176
-1.8 -22.9 10.7 178 178 178
-1.5 -22.9 10.7 177 177 177
-1.3 -22.9 10.7 177 177 177
-1.0 -23.0 10.8 177 177 177
0.7 -23.0 10.8 179 179 179
1.0 -23.0 10.8 182 182 182
1.2 -23.0 10.8 182 182 182
1.7 -23.0 10.7 182 182 182
2.0 -23.0 10.7 181 181 181
2.7 -22.9 10.7 183 183 183
3.0 -23.0 10.8 183 183 183
4.5 -23.0 10.7 182 182 182
4.7 -22.8 10.7 186 186 186
5.7 -22.9 10.7 208 208 208
5.9 -22.9 10.7 208 208 208
6.2 -22.8 10.7 208 208 208
6.5 -22.9 10.7 205 205 205
7.0 -23.0 10.8 208 208 208
7.2 -23.0 10.8 208 208 208
7.5 -23.0 10.7 208 208 208
7.7 -22.9 10.7 208 208 208
7.9 -22.9 10.7 207 207 207
8.2 -22.9 10.7 205 205 205
8.4 -22.8 10.7 207 207 207
8.7 -22.8 10.7 207 207 207
8.9 -22.9 10.7 207 207 207
9.2 -23.0 10.8 207 207 207
9.7 -23.0 10.8 207 207 207
9.9 -22.9 10.7 207 207 207
10.2 -22.9 10.7 207 207 207
10.5 -23.0 10.8 207 207 207
10.7 -23.0 10.7 207 207 207
10.9 -22.8 10.7 207 207 207
11.2 -23.0 10.7 207 207 207
11.4 -22.9 10.7 207 207 207
11.6 -22.8 10.7 207 207 207
11.9 -22.9 10.7 207 207 207
12.2 -22.9 10.7 207 207 207
12.4 -22.9 10.7 207 207 207
12.7 -22.9 10.7 207 207 207
12.9 -22.8 10.7 207 207 207
13.1 -22.9 10.7 207 207 207
13.5 -23.0 10.7 207 207 207
13.7 -23.0 10.7 207 207 207
14.4 -22.9 10.7 207 207 207
14.7 -23.0 10.8 207 207 207
14.9 -22.9 10.7 207 207 207
45.1 -67.0 31.4 207 207 207
45.3 -66.3 31.0 207 207 207
45.0 -64.8 30.3 207 207 207
44.9 -63.7 29.8 206 206 206
51.3 -68.5 32.1 207 207 207
52.3 -68.9 32.2 207 207 207
53.9 -69.9 32.7 205 205 205
52.8 -67.5 31.6 206 206 206
53.9 -67.9 31.8 206 206 206
27.8 -34.2 16.0 206 206 206
27.8 -33.7 15.8 206 206 206
27.2 -32.5 15.2 207 207 207
-30.6 -23.0 10.9 48 48 48
-30.4 -23.0 10.9 51 51 51
-30.1 -23.0 10.9 48 48 48
-29.9 -23.0 10.9 48 48 48
-29.6 -23.0 10.9 48 48 48
-29.4 -23.0 10.9 51 51 51
-29.2 -23.0 10.9 48 48 48
-28.9 -23.0 10.9 48 48 48
-28.6 -23.0 10.9 48 48 48
-28.4 -23.0 10.9 48 48 48
-28.1 -23.0 10.9 51 51 51
-27.8 -23.0 10.9 48 48 48
-27.6 -23.0 10.9 48 48 48
-27.4 -23.0 10.9 47 46 45
-27.1 -23.0 10.9 47 46 45
-26.8 -23.0 10.9 43 43 43
-26.6 -23.0 10.9 43 43 43
-26.4 -23.0 10.9 43 43 43
-26.1 -23.0 10.9 43 43 43
-25.8 -23.0 10.9 41 41 41
-25.6 -23.0 10.9 38 38 38
-25.4 -23.1 10.9 41 41 41
-25.1 -23.0 10.9 41 41 41
-24.8 -23.0 10.9 43 43 43
-24.6 -23.0 10.9 43 43 43
-24.3 -23.0 10.9 43 43 43
-24.1 -23.0 10.9 38 38 38
-23.8 -23.0 10.9 41 41 41
-23.5 -23.0 10.9 41 41 41
-23.3 -23.0 10.9 41 41 41
-23.1 -23.0 10.9 41 41 41
-22.9 -23.1 10.9 41 41 41
-22.6 -23.1 10.9 43 43 43
-22.3 -23.0 10.9 46 46 44
-22.1 -23.0 10.9 48 48 48
-21.8 -23.0 10.9 48 48 48
-20.5 -23.0 10.9 92 92 92
-20.3 -23.0 10.9 97 100 99
-20.0 -23.0 10.9 99 101 101
-19.8 -23.0 10.9 99 101 101
-19.6 -23.1 10.9 102 102 102
-19.3 -23.0 10.9 102 102 102
-19.0 -23.0 10.9 104 104 104
-18.7 -23.0 10.9 104 104 104
-18.5 -23.0 10.9 106 106 106
-18.2 -23.0 10.9 106 106 106
-17.9 -22.9 10.9 108 108 108
-17.7 -23.0 10.9 108 110 110
-17.5 -23.0 10.9 108 110 110
-16.7 -23.0 10.9 110 112 111
-16.5 -23.0 10.9 113 114 113
-16.2 -23.0 10.9 113 114 113
-15.9 -23.0 10.9 115 115 115
-15.7 -23.0 10.9 117 117 117
-15.5 -23.1 10.9 119 119 119
-15.2 -23.0 10.9 118 118 118
-10.2 -23.1 10.9 132 135 134
-9.9 -22.9 10.8 135 135 135
-9.6 -23.0 10.9 134 134 134
-9.4 -23.0 10.9 134 137 136
-9.1 -22.9 10.8 138 137 136
-8.9 -22.9 10.8 138 138 138
-8.6 -22.9 10.8 140 142 141
-8.3 -22.8 10.8 144 144 144
-8.0 -22.7 10.8 146 146 146
-7.9 -22.9 10.9 146 146 146
-7.6 -23.0 10.9 145 147 147
-7.4 -23.0 10.9 146 146 146
-7.1 -23.1 10.9 153 153 153
-6.9 -23.0 10.9 151 153 153
-6.6 -23.0 10.9 158 161 160
-6.4 -23.0 10.9 165 165 165
-6.1 -23.0 10.9 167 167 167
-5.9 -23.0 10.9 168 170 169
-5.6 -23.0 10.9 165 168 167
-5.4 -23.0 10.9 170 171 170
-5.1 -23.0 10.9 174 174 174
-4.8 -23.0 10.9 173 173 173
-4.6 -23.0 10.9 175 177 177
-4.3 -23.0 10.9 173 175 175
-4.1 -23.0 10.9 179 179 179
-3.8 -23.1 10.9 174 176 176
-3.6 -23.0 10.9 180 180 180
-3.3 -23.0 10.9 183 183 183
-3.1 -23.0 10.9 183 183 183
-2.8 -23.0 10.9 183 183 183
-2.6 -23.0 10.9 182 182 182
-2.3 -23.1 10.9 182 182 182
-2.1 -23.1 10.9 182 182 182
-1.8 -23.0 10.9 182 182 182
-1.6 -23.0 10.9 182 182 182
-1.3 -23.0 10.9 182 182 182
-1.0 -23.0 10.9 182 182 182
-0.8 -23.0 10.9 182 182 182
-0.5 -23.0 10.9 182 182 182
-0.3 -23.0 10.9 181 181 181
-0.0 -23.1 10.9 181 181 181
0.2 -23.0 10.9 181 181 181
0.5 -23.0 10.9 181 181 181
0.7 -23.0 10.9 181 181 181
1.0 -23.0 10.9 181 181 181
1.2 -23.0 10.9 181 181 181
1.5 -23.0 10.9 181 181 181
1.7 -23.0 10.9 181 181 181
2.0 -23.1 10.9 186 186 186
2.2 -23.0 10.9 186 186 186
2.5 -23.0 10.9 182 182 182
2.7 -23.0 10.9 182 182 182
3.0 -23.0 10.9 182 182 182
3.3 -23.1 10.9 182 182 182
3.5 -23.1 10.9 182 182 182
3.8 -23.1 10.9 182 182 182
4.0 -23.1 10.9 182 182 182
4.3 -23.1 10.9 182 182 182
4.5 -23.0 10.9 182 182 182
4.8 -22.9 10.8 177 177 177
5.0 -23.1 10.9 203 203 203
5.3 -23.0 10.9 208 208 208
5.6 -23.1 10.9 207 207 207
5.8 -23.0 10.9 207 207 207
6.0 -23.0 10.9 207 207 207
6.3 -23.0 10.9 207 207 207
6.5 -23.0 10.9 207 207 207
6.8 -23.0 10.9 210 210 210
7.0 -23.0 10.9 210 210 210
7.3 -23.0 10.9 210 210 210
7.6 -23.0 10.9 207 207 207
7.8 -23.0 10.9 207 207 207
8.1 -23.0 10.9 207 207 207
8.3 -23.0 10.9 207 207 207
8.6 -23.0 10.9 207 207 207
8.8 -23.0 10.9 207 207 207
9.1 -23.0 10.9 207 207 207
9.3 -23.0 10.9 207 207 207
9.6 -23.0 10.9 207 207 207
9.8 -23.0 10.9 207 207 207
10.1 -23.0 10.9 207 207 207
10.3 -23.0 10.9 207 207 207
10.6 -23.0 10.9 207 207 207
10.9 -23.1 10.9 207 207 207
11.1 -23.1 10.9 207 207 207
11.4 -23.1 10.9 207 207 207
11.6 -23.0 10.9 207 207 207
11.9 -23.0 10.9 207 207 207
12.1 -23.0 10.9 206 206 206
12.4 -23.0 10.9 206 206 206
12.6 -23.0 10.9 206 206 206
12.9 -23.0 10.9 206 206 206
13.1 -23.0 10.9 206 206 206
13.4 -23.1 10.9 206 206 206
13.7 -23.1 10.9 206 206 206
13.9 -23.0 10.9 206 206 206
14.7 -23.0 10.9 206 206 206
14.9 -23.1 10.9 206 206 206
15.1 -23.0 10.9 206 206 206
45.5 -66.9 31.6 206 206 206
45.3 -65.6 31.0 206 206 206
44.8 -63.8 30.2 206 206 206
44.5 -62.4 29.5 206 206 206
51.3 -67.8 32.1 207 207 207
52.1 -67.8 32.1 207 207 207
54.0 -67.4 31.9 205 205 205
62.7 -77.2 36.5 205 205 205
27.8 -33.3 15.7 206 206 206
27.2 -32.2 15.2 206 206 206
-30.7 -22.8 10.9 49 49 49
-30.5 -22.8 10.9 49 49 49
-30.2 -22.8 10.9 49 49 49
-30.0 -22.8 10.9 49 49 49
-29.7 -22.8 10.9 49 49 49
-29.5 -22.8 10.9 49 49 49
-29.0 -22.8 10.9 49 49 49
-28.7 -22.8 10.9 52 52 52
-28.4 -22.8 10.9 52 52 52
-28.1 -22.8 10.9 54 54 54
-27.9 -22.8 10.9 52 52 52
-27.7 -22.8 10.9 49 49 49
-27.4 -22.8 10.9 49 49 49
-26.4 -22.8 10.9 44 44 44
-26.2 -22.8 10.9 44 44 44
-25.4 -22.8 10.9 39 39 39
-25.1 -22.8 10.9 44 44 44
-23.1 -22.8 10.9 40 40 40
-22.9 -22.9 10.9 40 40 40
-22.6 -22.8 10.9 42 43 42
-21.9 -22.8 10.9 44 44 44
-21.6 -22.8 10.9 45 45 45
-20.6 -22.8 10.9 80 80 80
-20.3 -22.8 10.9 94 94 94
-20.1 -22.8 10.9 96 96 96
-19.8 -22.8 10.9 96 96 96
-19.6 -22.9 10.9 94 94 94
-19.3 -22.8 10.9 98 98 98
-19.1 -22.9 10.9 98 100 100
-18.8 -22.8 10.9 100 102 102
-17.7 -22.8 10.9 103 103 103
-16.5 -22.8 10.9 110 112 111
-16.0 -22.7 10.9 110 112 111
-15.2 -22.8 10.9 115 115 115
-9.9 -22.8 10.9 123 125 124
-9.6 -22.7 10.9 125 125 125
-9.4 -22.7 10.9 128 130 129
-9.1 -22.7 10.8 132 132 132
-8.9 -22.7 10.8 138 138 138
-8.6 -22.6 10.8 136 136 136
-8.3 -22.5 10.8 155 155 155
-8.0 -22.5 10.8 149 151 151
-7.8 -22.7 10.8 152 152 152
-7.6 -22.7 10.9 154 154 154
-7.4 -22.8 10.9 154 154 154
-7.2 -22.9 10.9 157 157 157
-6.9 -22.8 10.9 167 167 167
-6.1 -22.8 10.9 176 176 176
-5.9 -22.8 10.9 175 175 175
-5.6 -22.8 10.9 178 178 178
-5.4 -22.8 10.9 177 180 179
-5.1 -22.8 10.9 178 181 180
-4.9 -22.8 10.9 186 186 186
-4.6 -22.8 10.9 188 188 188
-4.3 -22.8 10.9 186 186 186
-4.1 -22.8 10.9 185 185 185
-3.8 -22.9 10.9 188 188 188
-3.6 -22.8 10.9 188 188 188
-3.3 -22.8 10.9 188 188 188
-3.1 -22.8 10.9 186 186 186
-2.8 -22.8 10.9 186 186 186
-2.3 -22.9 10.9 186 186 186
-2.1 -22.9 10.9 183 183 183
-1.8 -22.8 10.9 183 183 183
-1.6 -22.8 10.9 183 183 183
-1.3 -22.8 10.9 183 183 183
-1.0 -22.8 10.9 183 183 183
-0.8 -22.8 10.9 183 183 183
-0.5 -22.8 10.9 183 183 183
-0.0 -22.9 10.9 182 182 182
0.2 -22.8 10.9 182 182 182
0.7 -22.8 10.9 182 182 182
1.0 -22.8 10.9 182 182 182
1.2 -22.8 10.9 182 182 182
1.5 -22.8 10.9 185 185 185
2.3 -22.8 10.9 182 182 182
2.5 -22.8 10.9 179 179 179
2.7 -22.7 10.9 181 181 181
4.5 -22.8 10.9 176 176 176
4.8 -22.7 10.8 174 174 174
5.1 -22.9 10.9 202 202 202
5.3 -22.8 10.9 207 207 207
5.6 -22.9 10.9 204 204 204
5.8 -22.8 10.9 207 207 207
7.3 -22.8 10.9 210 210 210
7.6 -22.8 10.9 210 210 210
7.8 -22.8 10.9 210 210 210
8.1 -22.8 10.9 210 210 210
8.3 -22.8 10.9 209 209 209
8.6 -22.8 10.9 209 209 209
8.9 -22.9 10.9 209 209 209
9.1 -22.8 10.9 209 209 209
9.4 -22.8 10.9 209 209 209
9.6 -22.8 10.9 209 209 209
10.1 -22.8 10.9 209 209 209
10.3 -22.8 10.9 206 206 206
10.9 -22.9 11.0 206 206 206
11.2 -22.9 10.9 206 206 206
11.4 -22.9 11.0 206 206 206
11.6 -22.8 10.9 206 206 206
11.9 -22.8 10.9 206 206 206
12.2 -22.8 10.9 203 203 203
12.4 -22.8 10.9 206 206 206
12.6 -22.8 10.9 209 209 209
12.9 -22.8 10.9 209 209 209
13.1 -22.8 10.9 206 206 206
16.1 -27.4 13.1 206 206 206
13.7 -22.9 11.0 206 206 206
13.9 -22.9 10.9 206 206 206
14.7 -22.8 10.9 209 209 209
15.0 -22.9 10.9 206 206 206
45.2 -64.7 31.0 205 205 205
44.6 -62.9 30.1 205 205 205
44.4 -61.5 29.4 205 205 205
51.0 -66.6 31.8 206 206 206
51.7 -66.6 31.8 206 206 206
63.1 -76.8 36.7 205 205 205
27.8 -32.9 15.7 205 205 205
27.4 -32.1 15.3 205 205 205
-36.0 -30.2 14.6 48 47 46
-30.8 -30.1 14.5 41 41 41
-30.5 -30.1 14.5 41 41 41
-26.2 -30.2 14.6 90 92 91
-25.5 -29.8 14.4 91 94 93
-9.4 -22.6 10.9 110 110 110
1.6 -30.1 14.6 184 184 184
3.4 -30.3 14.6 184 184 184
3.7 -30.3 14.7 184 184 184
7.5 -30.3 14.7 206 206 206
7.7 -30.0 14.5 209 209 209
8.1 -30.0 14.5 209 209 209
8.4 -30.1 14.5 209 209 209
9.4 -30.1 14.5 209 209 209
12.2 -30.2 14.6 209 209 209
13.5 -30.2 14.6 209 209 209
13.8 -30.1 14.6 206 206 206
14.2 -30.1 14.6 206 206 206
14.5 -30.1 14.6 206 206 206
15.5 -30.1 14.6 206 206 206
15.9 -30.2 14.6 206 206 206
16.2 -30.0 14.5 205 205 205
16.9 -30.1 14.6 208 208 208
17.2 -30.1 14.6 208 208 208
17.7 -30.4 14.7 208 208 208
19.6 -30.1 14.6 210 210 210
19.9 -30.1 14.6 208 208 208
20.9 -30.1 14.6 208 208 208
45.1 -63.8 30.9 205 205 205
44.7 -62.3 30.1 205 205 205
44.7 -61.3 29.6 205 205 205
51.0 -65.8 31.8 205 205 205
51.9 -66.1 32.0 206 206 206
53.6 -66.3 32.1 206 206 206
27.7 -32.5 15.7 207 207 207
27.6 -32.0 15.5 205 205 205
28.0 -32.0 15.5 205 205 205
-31.3 -30.2 14.8 42 42 42
-32.1 -31.3 15.3 42 42 42
-27.9 -31.4 15.4 50 49 48
-26.7 -30.5 14.9 47 48 47
-25.9 -30.0 14.7 74 74 74
-15.4 -29.9 14.6 98 98 98
-13.1 -27.3 13.3 73 72 70
-14.1 -30.2 14.8 69 69 69
-14.3 -31.3 15.3 54 56 54
1.7 -30.3 14.8 183 183 183
2.0 -30.2 14.8 183 183 183
2.4 -30.2 14.8 183 183 183
2.7 -30.3 14.8 183 183 183
3.2 -31.3 15.3 183 183 183
3.4 -30.5 14.9 183 183 183
3.7 -30.3 14.8 183 183 183
7.3 -30.6 15.0 206 206 206
7.6 -30.5 14.9 209 209 209
7.9 -30.2 14.8 209 209 209
8.2 -30.3 14.8 209 209 209
8.6 -30.3 14.8 209 209 209
8.9 -30.4 14.9 209 209 209
9.3 -30.3 14.8 209 209 209
9.6 -30.2 14.8 209 209 209
9.9 -30.2 14.8 209 209 209
10.3 -30.2 14.8 209 209 209
10.6 -30.2 14.8 209 209 209
11.0 -30.2 14.8 209 209 209
11.3 -30.2 14.8 208 208 208
11.6 -30.2 14.8 208 208 208
12.4 -31.4 15.4 208 208 208
12.4 -30.3 14.8 208 208 208
13.1 -31.4 15.3 208 208 208
13.5 -31.4 15.4 208 208 208
13.4 -30.4 14.9 208 208 208
13.7 -30.3 14.8 208 208 208
14.1 -30.3 14.8 205 205 205
14.4 -30.3 14.8 205 205 205
14.7 -30.3 14.8 208 208 208
15.1 -30.2 14.8 208 208 208
15.4 -30.2 14.8 208 208 208
16.1 -30.2 14.8 208 208 208
16.4 -30.2 14.8 208 208 208
16.8 -30.2 14.8 208 208 208
17.3 -30.4 14.9 208 208 208
17.6 -30.5 14.9 208 208 208
18.0 -30.5 14.9 208 208 208
18.1 -30.1 14.7 208 208 208
19.2 -31.4 15.4 208 208 208
19.0 -30.4 14.9 208 208 208
19.2 -30.3 14.8 208 208 208
19.6 -30.4 14.8 208 208 208
19.9 -30.3 14.8 208 208 208
20.2 -30.2 14.8 208 208 208
20.6 -30.2 14.8 208 208 208
20.9 -30.2 14.8 208 208 208
21.3 -30.3 14.8 207 207 207
21.7 -30.4 14.9 207 207 207
44.7 -60.6 29.6 207 207 207
52.1 -65.5 32.1 205 205 205
55.0 -68.2 33.4 205 205 205
27.6 -31.6 15.5 206 206 206
28.0 -31.6 15.5 207 207 207
28.1 -31.3 15.3 205 205 205
-43.4 -31.2 15.4 53 53 53
-44.0 -31.9 15.8 56 56 56
-39.1 -31.7 15.7 53 53 53
-38.6 -31.6 15.7 53 53 53
-38.2 -31.6 15.6 52 52 52
-38.1 -31.8 15.7 50 49 48
-37.4 -31.9 15.8 47 47 47
-35.8 -31.7 15.7 47 47 47
-35.4 -31.6 15.7 47 47 47
-35.0 -31.6 15.7 47 47 47
-34.9 -31.9 15.8 47 47 47
-34.5 -31.9 15.8 47 47 47
-33.9 -31.7 15.7 45 45 45
-33.6 -31.7 15.7 45 45 45
-33.2 -31.7 15.7 45 45 45
-32.8 -31.7 15.7 45 45 45
-28.5 -31.8 15.7 48 48 48
-28.1 -31.7 15.7 44 44 44
-27.8 -31.7 15.7 51 51 49
-27.6 -31.9 15.8 59 59 59
-16.3 -31.3 15.5 19 23 20
-15.9 -31.4 15.5 24 24 24
-15.7 -31.7 15.7 29 31 29
-15.1 -31.9 15.8 29 30 28
-14.6 -31.7 15.7 29 30 28
-14.3 -31.9 15.8 27 29 27
7.5 -31.4 15.5 208 208 208
8.2 -31.2 15.4 208 208 208
10.4 -31.2 15.4 208 208 208
12.6 -31.3 15.5 208 208 208
14.0 -31.3 15.5 208 208 208
14.3 -31.2 15.4 208 208 208
14.7 -31.2 15.4 208 208 208
15.0 -31.2 15.4 208 208 208
15.4 -31.2 15.4 208 208 208
10.9 -21.6 10.7 208 208 208
16.1 -31.2 15.5 208 208 208
11.4 -21.6 10.7 208 208 208
11.6 -21.5 10.7 207 207 207
17.2 -31.2 15.4 207 207 207
18.0 -31.4 15.6 207 207 207
18.3 -31.3 15.5 207 207 207
18.5 -31.1 15.4 207 207 207
21.5 -31.2 15.4 207 207 207
22.0 -31.5 15.6 207 207 207
22.4 -31.4 15.6 207 207 207
22.7 -31.4 15.5 207 207 207
44.9 -61.1 30.2 207 207 207
43.5 -58.4 28.9 207 207 207
50.9 -64.2 31.8 204 204 204
51.9 -64.6 32.0 205 205 205
54.1 -66.4 32.8 205 205 205
54.4 -64.9 32.1 205 205 205
64.4 -75.8 37.5 205 205 205
64.3 -74.7 36.9 205 205 205
27.7 -31.3 15.5 206 206 206
28.0 -31.3 15.5 206 206 206
-45.6 -32.3 16.2 56 56 56
-45.2 -32.4 16.2 59 60 58
-40.7 -32.4 16.2 54 54 54
-40.3 -32.4 16.2 54 54 54
-39.9 -32.3 16.2 54 54 54
-39.5 -32.3 16.2 53 52 52
-39.2 -32.4 16.2 51 50 48
-38.9 -32.4 16.2 47 48 47
-38.4 -32.4 16.2 47 48 47
-37.3 -32.4 16.2 47 48 47
-36.9 -32.4 16.2 47 48 47
-36.5 -32.3 16.2 47 48 47
-36.2 -32.4 16.2 47 48 47
-35.8 -32.4 16.2 47 48 47
-35.4 -32.4 16.2 47 48 47
-35.1 -32.4 16.2 48 48 48
-34.7 -32.4 16.2 46 46 46
-34.3 -32.4 16.2 48 48 48
-33.9 -32.4 16.2 48 48 48
-33.6 -32.4 16.2 46 46 46
-29.9 -32.5 16.3 41 41 41
-29.4 -32.3 16.2 42 42 42
-28.9 -32.2 16.1 42 42 42
-28.7 -32.4 16.2 42 42 42
-28.4 -32.4 16.2 46 46 46
-27.9 -32.4 16.2 48 48 48
-27.6 -32.4 16.2 50 50 50
-16.5 -32.2 16.1 26 26 26
-16.2 -32.3 16.2 26 26 26
-15.9 -32.4 16.2 27 27 27
-15.5 -32.4 16.2 27 27 27
-15.1 -32.3 16.2 29 30 28
11.9 -23.8 11.9 207 207 207
14.5 -23.6 11.8 207 207 207
16.6 -23.8 11.9 206 206 206
45.2 -60.8 30.4 206 206 206
43.2 -57.3 28.7 206 206 206
50.6 -63.2 31.6 204 204 204
51.5 -63.3 31.7 204 204 204
53.5 -64.8 32.4 204 204 204
52.1 -62.4 31.2 204 204 204
53.8 -63.4 31.7 205 205 205
28.4 -31.3 15.7 205 205 205
-33.5 -23.5 11.9 57 57 57
-33.4 -23.6 11.9 57 57 57
-33.1 -23.6 11.9 57 57 57
-32.8 -23.6 11.9 57 57 57
-32.5 -23.6 11.9 57 57 57
-32.3 -23.6 11.9 58 58 58
-32.0 -23.6 11.9 58 58 58
-31.7 -23.6 11.9 58 58 58
-31.4 -23.6 11.9 58 58 58
-30.6 -23.6 12.0 55 55 55
-30.3 -23.6 11.9 55 55 55
-30.0 -23.6 11.9 55 55 55
-29.8 -23.6 12.0 55 55 55
-29.2 -23.6 11.9 53 53 53
-28.9 -23.6 11.9 51 51 49
-28.4 -23.6 12.0 48 48 48
-28.1 -23.6 11.9 48 48 48
-27.8 -23.6 11.9 48 48 48
-27.5 -23.6 11.9 48 48 48
-26.7 -23.6 11.9 48 48 48
-26.4 -23.6 11.9 48 48 48
-26.1 -23.6 11.9 49 49 49
-25.8 -23.5 11.9 49 49 49
-25.6 -23.6 11.9 49 49 49
-25.3 -23.6 11.9 49 49 49
-25.0 -23.6 11.9 49 49 49
-23.9 -23.6 11.9 45 45 45
-23.6 -23.6 11.9 45 45 45
-23.1 -23.6 11.9 43 43 43
-22.5 -23.6 11.9 42 42 42
-30.1 -32.4 16.4 42 42 42
-29.4 -32.0 16.2 42 43 42
-21.4 -23.6 11.9 42 43 42
-21.0 -23.5 11.9 41 41 39
-16.6 -31.9 16.2 27 27 27
-10.6 -23.6 11.9 31 30 29
-10.3 -23.6 11.9 33 33 33
-10.0 -23.5 11.9 35 35 35
-9.7 -23.5 11.9 39 39 39
-9.4 -23.4 11.9 151 151 151
-9.2 -23.6 11.9 184 184 184
-7.0 -23.6 11.9 222 222 222
-6.7 -23.6 12.0 221 221 221
-6.4 -23.6 11.9 220 220 220
-6.1 -23.6 11.9 219 219 219
-5.9 -23.6 11.9 215 218 217
-5.6 -23.6 11.9 215 218 217
-5.3 -23.6 11.9 213 215 215
-5.0 -23.6 12.0 211 211 211
-4.5 -23.6 12.0 210 210 210
-4.2 -23.6 11.9 207 207 207
-3.9 -23.6 11.9 207 207 207
-3.6 -23.6 11.9 205 205 205
-3.4 -23.6 11.9 205 205 205
-3.1 -23.6 11.9 203 203 203
-2.8 -23.6 11.9 203 203 203
-2.5 -23.6 11.9 199 199 199
-2.3 -23.6 11.9 200 200 200
-2.0 -23.6 11.9 200 200 200
-1.7 -23.6 11.9 197 197 197
-1.4 -23.6 11.9 197 197 197
6.9 -23.6 12.0 207 207 207
7.5 -23.6 12.0 207 207 207
7.7 -23.6 11.9 207 207 207
8.0 -23.5 11.9 207 207 207
8.3 -23.5 11.9 207 207 207
8.5 -23.5 11.9 207 207 207
8.8 -23.5 11.9 207 207 207
9.1 -23.5 11.9 207 207 207
9.4 -23.5 11.9 207 207 207
9.6 -23.5 11.9 207 207 207
9.9 -23.5 11.9 207 207 207
10.2 -23.5 11.9 207 207 207
10.5 -23.5 11.9 207 207 207
10.8 -23.5 11.9 207 207 207
11.1 -23.6 11.9 207 207 207
11.3 -23.5 11.9 207 207 207
11.6 -23.5 11.9 207 207 207
11.9 -23.5 11.9 207 207 207
12.1 -23.4 11.9 207 207 207
12.4 -23.5 11.9 207 207 207
12.7 -23.5 11.9 206 206 206
13.0 -23.6 11.9 206 206 206
13.2 -23.5 11.9 206 206 206
13.6 -23.6 11.9 206 206 206
14.4 -23.5 11.9 206 206 206
14.6 -23.4 11.9 206 206 206
14.9 -23.6 11.9 206 206 206
15.3 -23.6 12.0 206 206 206
15.5 -23.5 11.9 206 206 206
15.7 -23.5 11.9 206 206 206
16.1 -23.6 12.0 206 206 206
16.3 -23.6 11.9 206 206 206
16.6 -23.5 11.9 206 206 206
16.9 -23.5 11.9 206 206 206
17.1 -23.5 11.9 206 206 206
17.4 -23.5 11.9 206 206 206
17.7 -23.5 11.9 206 206 206
50.9 -61.8 31.3 206 206 206
51.6 -61.0 30.9 207 207 207
52.3 -60.9 30.9 204 204 204
28.5 -31.1 15.7 205 205 205
28.6 -30.8 15.6 205 205 205
29.1 -31.0 15.7 205 205 205
-34.0 -23.5 12.1 58 58 58
-33.9 -23.7 12.1 59 61 59
-33.6 -23.7 12.1 59 61 59
-33.3 -23.6 12.1 59 61 59
-33.0 -23.6 12.1 58 58 58
-32.7 -23.6 12.1 58 58 58
-32.4 -23.6 12.1 58 58 58
-32.1 -23.6 12.1 60 62 60
-31.8 -23.6 12.1 60 62 60
-31.6 -23.6 12.1 60 62 60
-31.3 -23.6 12.1 58 59 59
-31.1 -23.7 12.1 60 62 60
-30.7 -23.6 12.1 58 59 59
-30.4 -23.6 12.1 56 56 56
-30.3 -23.7 12.1 56 56 56
-29.9 -23.7 12.1 54 54 54
-29.6 -23.6 12.1 54 54 54
-29.3 -23.6 12.1 54 54 54
-29.1 -23.7 12.1 52 52 50
-28.8 -23.7 12.1 49 49 49
-28.5 -23.7 12.1 49 49 49
-28.2 -23.6 12.1 53 52 51
-27.9 -23.6 12.1 53 52 51
-27.7 -23.7 12.1 53 52 51
-27.4 -23.7 12.1 49 49 49
-27.0 -23.6 12.1 49 49 49
-26.8 -23.6 12.1 50 50 50
-26.5 -23.7 12.1 50 50 50
-26.3 -23.7 12.1 50 50 50
-25.9 -23.6 12.1 50 50 50
-25.6 -23.6 12.1 47 48 47
-25.4 -23.6 12.1 50 50 50
-25.1 -23.7 12.1 50 50 50
-24.8 -23.6 12.1 48 48 48
-24.5 -23.6 12.1 48 48 48
-24.3 -23.6 12.1 48 48 48
-24.1 -23.8 12.2 46 46 46
-23.3 -23.8 12.2 42 43 42
-23.0 -23.8 12.2 42 43 42
-22.6 -23.6 12.1 42 43 42
-22.3 -23.6 12.1 43 43 43
-22.0 -23.6 12.1 41 41 39
-21.7 -23.6 12.1 41 41 39
-21.4 -23.6 12.1 42 42 40
-21.2 -23.7 12.1 42 42 40
-20.9 -23.6 12.1 40 40 40
-20.6 -23.6 12.1 40 40 40
-11.9 -23.6 12.1 30 31 30
-11.3 -23.6 12.1 29 31 29
-11.0 -23.6 12.1 32 31 30
-10.8 -23.7 12.2 33 33 33
-10.4 -23.5 12.0 33 33 33
-10.1 -23.5 12.0 35 37 36
-9.9 -23.6 12.1 43 43 43
-9.6 -23.5 12.1 157 157 157
-9.3 -23.6 12.1 186 186 186
-9.1 -23.8 12.2 188 190 190
-6.8 -23.8 12.2 225 225 225
-6.5 -23.6 12.1 223 225 225
-6.2 -23.6 12.1 221 221 221
-6.0 -23.8 12.2 220 220 220
-5.7 -23.8 12.2 221 221 221
-4.6 -23.7 12.1 212 214 214
-4.3 -23.8 12.2 212 214 214
-4.0 -23.8 12.2 212 214 214
-3.7 -23.6 12.1 209 212 211
-3.4 -23.6 12.1 208 208 208
-3.2 -23.8 12.2 208 208 208
-2.9 -23.8 12.2 206 206 206
-2.6 -23.6 12.1 206 206 206
7.0 -23.7 12.2 208 208 208
7.3 -23.8 12.2 207 207 207
7.6 -23.7 12.1 204 204 204
7.9 -23.7 12.1 207 207 207
8.1 -23.6 12.1 207 207 207
8.4 -23.6 12.1 207 207 207
8.7 -23.6 12.1 207 207 207
9.0 -23.7 12.1 207 207 207
9.3 -23.6 12.1 206 206 206
9.5 -23.6 12.1 206 206 206
9.8 -23.6 12.1 206 206 206
10.1 -23.6 12.1 206 206 206
10.4 -23.7 12.1 206 206 206
10.7 -23.6 12.1 206 206 206
11.0 -23.7 12.1 206 206 206
11.3 -23.7 12.2 206 206 206
11.5 -23.6 12.1 206 206 206
11.8 -23.7 12.2 206 206 206
12.1 -23.7 12.1 206 206 206
12.4 -23.7 12.1 206 206 206
12.7 -23.7 12.1 206 206 206
13.0 -23.7 12.1 206 206 206
13.2 -23.7 12.1 206 206 206
13.5 -23.6 12.1 206 206 206
13.8 -23.6 12.1 206 206 206
14.4 -23.8 12.2 206 206 206
14.6 -23.7 12.1 206 206 206
14.9 -23.6 12.1 206 206 206
15.3 -23.8 12.2 206 206 206
15.5 -23.7 12.2 206 206 206
15.8 -23.7 12.2 206 206 206
16.0 -23.6 12.1 206 206 206
16.3 -23.7 12.1 206 206 206
16.6 -23.6 12.1 205 205 205
16.8 -23.6 12.1 205 205 205
17.1 -23.6 12.1 205 205 205
17.4 -23.7 12.1 205 205 205
17.7 -23.7 12.1 205 205 205
18.0 -23.6 12.1 205 205 205
18.3 -23.7 12.1 205 205 205
51.4 -60.0 30.8 206 206 206
51.5 -59.3 30.4 203 203 203
28.6 -30.8 15.8 204 204 204
29.4 -30.9 15.9 205 205 205
-35.5 -24.3 12.6 60 62 60
-35.5 -24.5 12.7 60 62 60
-35.2 -24.5 12.7 60 62 60
-34.9 -24.5 12.7 60 62 60
-34.6 -24.5 12.7 58 59 59
-34.2 -24.4 12.7 58 59 59
-34.0 -24.5 12.7 60 62 60
-33.1 -24.5 12.7 59 59 59
-32.8 -24.5 12.7 59 59 59
-32.5 -24.5 12.7 59 59 59
-32.2 -24.5 12.7 59 59 59
-31.9 -24.5 12.7 57 57 57
-31.6 -24.5 12.7 54 54 54
-30.7 -24.5 12.7 55 55 55
-30.5 -24.5 12.7 53 52 51
-30.2 -24.5 12.7 53 52 51
-29.9 -24.5 12.7 54 53 52
-29.3 -24.5 12.7 54 53 52
-28.9 -24.5 12.7 54 53 52
-28.6 -24.4 12.7 50 50 50
-28.4 -24.5 12.7 50 50 50
-28.1 -24.5 12.7 51 51 51
-27.7 -24.4 12.7 51 51 51
-27.4 -24.4 12.7 51 51 51
-27.2 -24.5 12.7 51 51 51
-26.9 -24.5 12.7 51 51 51
-26.6 -24.5 12.7 51 51 51
-26.3 -24.4 12.7 49 49 49
-26.0 -24.5 12.7 49 49 49
-25.7 -24.5 12.7 49 49 49
-25.4 -24.5 12.7 47 47 47
-23.4 -24.5 12.7 44 44 44
-23.0 -24.4 12.7 42 42 40
-22.8 -24.5 12.7 43 42 41
-22.5 -24.5 12.7 43 42 41
-22.2 -24.5 12.7 43 42 41
-21.9 -24.5 12.7 41 41 41
-13.3 -24.5 12.7 30 29 29
-12.8 -24.7 12.8 29 29 29
-12.5 -24.7 12.8 30 31 30
-12.2 -24.6 12.8 30 31 30
-11.6 -24.5 12.7 29 31 29
-11.2 -24.4 12.7 29 31 29
-10.9 -24.2 12.6 32 31 30
-10.4 -23.8 12.4 36 38 37
-10.1 -23.7 12.3 44 44 44
15.6 -24.1 12.5 205 205 205
16.2 -24.0 12.4 205 205 205
18.2 -24.0 12.4 205 205 205
18.5 -24.0 12.5 205 205 205
50.6 -61.0 31.6 205 205 205
51.5 -61.1 31.7 205 205 205
51.3 -59.2 30.7 206 206 206
51.4 -58.5 30.4 206 206 206
48.6 -54.5 28.3 206 206 206
28.3 -30.2 15.6 204 204 204
-35.9 -24.3 12.8 61 63 61
-35.7 -24.3 12.8 61 63 61
-31.9 -24.4 12.8 58 58 58
-31.5 -24.4 12.8 55 55 55
-31.3 -24.4 12.8 56 56 56
-29.2 -24.4 12.8 56 56 56
-28.9 -24.3 12.8 51 51 51
-28.3 -24.4 12.8 52 52 52
-28.0 -24.4 12.8 52 52 52
-25.9 -24.4 12.8 50 50 50
-23.2 -24.4 12.8 45 45 45
-22.4 -24.5 12.8 42 42 42
-12.6 -24.6 12.9 29 29 29
-12.3 -24.5 12.9 35 35 35
-11.3 -24.2 12.7 34 34 34
-10.4 -23.7 12.4 36 36 36
-10.1 -23.5 12.3 36 38 37
50.3 -59.9 31.4 205 205 205
50.9 -59.7 31.3 205 205 205
51.7 -59.8 31.4 205 205 205
51.4 -58.6 30.8 205 205 205
51.3 -57.7 30.3 205 205 205
49.4 -54.8 28.8 205 205 205
-12.7 -24.4 13.0 37 38 37
-12.4 -24.4 12.9 39 39 39
-11.3 -23.9 12.7 55 56 54
-10.9 -23.9 12.7 64 66 66
-10.5 -23.5 12.5 36 37 36
-10.1 -23.3 12.4 46 46 46
50.3 -59.1 31.4 204 204 204
50.8 -58.8 31.3 204 204 204
51.4 -58.7 31.2 204 204 204
51.5 -58.0 30.8 207 207 207
51.4 -57.1 30.4 205 205 205
49.5 -54.3 28.8 205 205 205
-12.7 -24.1 13.0 97 97 97
-12.4 -24.0 12.9 56 56 56
-11.4 -23.9 12.8 25 25 25
-11.0 -23.8 12.8 90 90 90
-10.1 -23.0 12.4 47 47 47
-10.1 -23.7 12.7 184 187 186
50.2 -58.3 31.4 206 206 206
50.7 -58.0 31.2 206 206 206
51.2 -57.7 31.1 206 206 206
51.5 -57.2 30.8 206 206 206
51.4 -56.4 30.4 204 204 204
49.3 -53.3 28.7 204 204 204
50.1 -53.5 28.8 204 204 204
-12.7 -23.8 13.0 21 21 21
-10.4 -22.8 12.4 21 24 22
-10.1 -22.7 12.4 54 54 54
-10.1 -24.1 13.1 182 185 184
50.1 -57.5 31.3 206 206 206
50.5 -57.1 31.1 206 206 206
50.9 -56.7 30.9 206 206 206
50.9 -55.9 30.5 206 206 206
51.3 -55.6 30.3 206 206 206
48.9 -52.3 28.5 206 206 206
49.7 -52.4 28.6 204 204 204
51.1 -53.2 29.0 204 204 204
-12.7 -23.6 13.0 29 29 29
-12.5 -23.6 13.0 136 135 134
-10.4 -22.4 12.4 49 49 49
-10.6 -24.1 13.3 183 186 185
-10.2 -23.9 13.2 181 184 183
50.9 -56.7 31.3 205 205 205
51.1 -56.2 31.0 205 205 205
50.8 -55.1 30.4 205 205 205
50.9 -54.5 30.1 206 206 206
48.8 -51.5 28.4 206 206 206
49.7 -51.8 28.6 206 206 206
50.9 -52.3 28.9 206 206 206
1221.2 -580.9 320.6 112 114 113
1188.4 -561.8 310.1 110 112 111
-12.8 -23.5 13.1 33 34 32
-12.6 -23.5 13.1 135 135 135
-10.6 -23.9 13.3 182 185 184
-10.2 -23.7 13.3 181 184 183
-9.9 -23.7 13.3 181 184 183
51.0 -56.2 31.4 205 205 205
51.3 -55.6 31.1 205 205 205
50.6 -54.2 30.3 205 205 205
50.7 -53.5 29.9 205 205 205
49.3 -51.3 28.7 205 205 205
50.2 -51.6 28.8 205 205 205
51.5 -52.2 29.2 206 206 206
1044.2 -490.3 274.1 112 114 113
852.8 -398.0 222.5 112 114 113
-12.9 -23.2 13.1 37 38 37
-10.7 -23.7 13.4 181 184 183
-10.2 -23.5 13.3 180 183 182
50.9 -55.3 31.3 204 204 204
51.3 -54.9 31.1 204 204 204
50.8 -53.7 30.4 205 205 205
50.9 -53.1 30.1 205 205 205
50.0 -51.5 29.1 205 205 205
51.0 -51.8 29.3 205 205 205
52.4 -52.4 29.7 205 205 205
39.0 -34.9 19.7 203 203 203
30.5 -25.5 14.4 182 182 182
-10.8 -23.7 13.6 181 184 183
-10.4 -23.6 13.6 179 182 181
51.5 -55.2 31.7 207 207 207
52.1 -55.1 31.6 207 207 207
51.6 -53.8 30.9 207 207 207
51.3 -52.8 30.3 207 207 207
50.8 -51.6 29.6 207 207 207
53.0 -53.1 30.5 204 204 204
53.7 -53.1 30.5 205 205 205
40.5 -36.2 20.8 206 206 206
38.9 -34.3 19.7 206 206 206
30.3 -25.0 14.4 182 182 182
30.0 -24.5 14.1 184 184 184
51.7 -54.7 31.8 206 206 206
52.5 -54.7 31.8 207 207 207
52.0 -53.5 31.1 207 207 207
51.8 -52.5 30.6 207 207 207
50.9 -51.0 29.6 207 207 207
54.1 -53.4 31.1 207 207 207
54.7 -53.3 31.0 204 204 204
55.4 -53.3 31.0 207 207 207
40.4 -35.6 20.7 205 205 205
38.9 -33.9 19.7 205 205 205
30.0 -24.2 14.1 181 181 181
52.7 -54.3 32.0 206 206 206
52.1 -52.8 31.2 206 206 206
51.7 -51.7 30.5 207 207 207
54.2 -52.8 31.2 207 207 207
54.8 -52.7 31.1 207 207 207
55.3 -52.5 31.0 207 207 207
38.8 -33.3 19.7 205 205 205
30.0 -23.8 14.0 184 184 184
29.8 -23.4 13.8 184 184 184
51.7 -51.0 30.5 206 206 206
54.1 -52.0 31.1 204 204 204
54.7 -51.9 31.0 207 207 207
54.4 -50.9 30.5 207 207 207
63.2 -58.4 34.9 207 207 207
38.7 -32.8 19.6 208 208 208
37.7 -31.6 18.9 208 208 208
29.9 -23.4 14.0 186 186 186
29.6 -22.9 13.7 186 186 186
-15.7 -17.1 10.4 36 37 35
54.1 -51.3 31.1 206 206 206
55.2 -51.0 30.9 207 207 207
63.1 -57.4 34.8 207 207 207
38.8 -32.4 19.7 208 208 208
30.0 -23.2 14.0 188 188 188
29.7 -22.7 13.8 188 188 188
41.3 -30.9 18.7 188 188 188
55.2 -50.9 31.3 207 210 209
62.9 -56.5 34.8 206 206 206
37.8 -30.8 18.9 208 208 208
30.1 -22.9 14.1 188 188 188
29.9 -22.5 13.8 188 188 188
41.2 -30.4 18.7 188 188 188
56.3 -51.1 31.9 207 210 209
37.8 -30.4 19.0 208 208 208
41.3 -30.0 18.7 188 188 188
-27.3 -17.8 11.3 46 46 46
-18.3 -16.8 10.6 132 132 132
69.8 -61.7 39.1 207 210 209
254.8 -208.9 132.3 208 211 210
40.9 -29.3 18.5 191 191 191
-29.7 -16.6 10.6 63 63 63
-29.5 -16.6 10.6 68 68 68
-29.2 -16.5 10.6 70 72 69
-28.9 -16.5 10.6 69 69 69
-28.7 -16.5 10.6 69 69 69
-28.5 -16.5 10.6 66 67 65
-27.0 -16.5 10.6 129 132 131
-26.7 -16.5 10.6 155 155 155
-22.3 -16.6 10.6 67 67 67
-22.0 -16.5 10.6 65 65 65
-21.5 -16.5 10.6 65 65 65
-21.3 -16.5 10.6 63 63 63
-19.3 -16.6 10.6 209 209 209
-18.3 -16.5 10.6 58 58 58
-18.1 -16.6 10.6 60 60 60
-17.1 -16.5 10.6 31 31 31
-16.8 -16.5 10.6 21 24 22
-16.6 -16.5 10.6 22 25 23
-16.4 -16.6 10.6 104 104 104
-15.8 -16.5 10.6 30 29 29
-15.5 -16.4 10.6 39 39 39
-15.0 -16.1 10.4 90 90 90
-14.6 -16.0 10.3 88 88 88
-14.9 -16.6 10.7 47 49 48
-13.2 -16.0 10.3 41 41 41
256.6 -207.3 133.2 207 210 209
267.2 -213.3 137.1 208 211 210
257.4 -203.0 130.5 208 211 210
40.1 -28.9 18.6 191 191 191
40.4 -28.8 18.5 191 191 191
40.9 -28.9 18.5 192 192 192
-22.3 -16.3 10.7 67 67 67
-22.1 -16.3 10.7 67 67 67
-15.0 -15.9 10.4 99 99 99
-14.5 -15.6 10.2 30 29 29
-15.0 -16.5 10.7 43 43 43
-13.2 -15.8 10.3 34 36 34
-12.7 -15.5 10.1 30 30 30
85.3 -74.2 48.4 206 209 208
40.0 -28.4 18.5 192 192 192
40.9 -28.4 18.5 192 192 192
75.1 -33.1 21.6 185 185 185
73.7 -32.2 21.0 185 185 185
63.3 -26.4 17.2 163 163 163
63.9 -26.5 17.3 158 158 158
-22.5 -16.2 10.7 57 57 57
-17.6 -16.3 10.8 44 46 46
-15.0 -15.6 10.4 31 31 31
-14.5 -15.4 10.2 31 31 31
-13.3 -28.7 19.0 175 175 175
88.3 -75.5 50.0 208 211 210
90.1 -76.1 50.4 208 211 210
49.5 -34.3 22.7 192 192 192
76.6 -33.2 22.0 186 186 186
74.0 -31.9 21.1 186 186 186
71.6 -30.6 20.3 186 186 186
63.7 -26.4 17.5 170 171 170
63.5 -26.1 17.3 160 163 162
63.9 -26.1 17.3 157 157 157
-23.0 -16.2 10.9 30 31 30
-17.7 -16.1 10.8 53 52 52
-13.4 -28.5 19.2 177 180 179
-13.1 -28.8 19.4 173 173 173
-12.7 -28.8 19.4 172 172 172
94.5 -79.6 53.6 208 211 210
95.2 -79.2 53.3 208 211 210
93.0 -76.4 51.4 208 211 210
658.5 -502.1 337.8 210 213 212
548.8 -413.5 278.2 210 213 212
76.3 -32.8 22.0 188 188 188
75.7 -32.3 21.7 188 188 188
73.9 -31.3 21.1 188 188 188
64.2 -26.2 17.6 167 167 167
63.4 -25.7 17.3 161 161 161
63.8 -25.7 17.3 155 155 155
-13.4 -28.1 19.2 177 177 177
-13.2 -28.6 19.5 174 174 174
96.3 -78.8 53.9 208 211 210
557.0 -413.1 282.3 210 213 212
381.4 -279.6 191.1 210 213 212
254.6 -184.5 126.1 207 210 209
78.8 -33.1 22.6 190 190 190
79.4 -33.1 22.7 190 190 190
81.9 -34.0 23.2 185 185 185
82.2 -33.8 23.1 185 185 185
64.7 -26.0 17.7 166 166 166
63.8 -25.4 17.4 162 162 162
63.9 -25.3 17.3 155 155 155
64.5 -25.4 17.4 149 151 151
-29.1 -17.3 12.0 179 182 181
-28.9 -17.3 12.0 131 133 132
-13.6 -28.9 20.1 176 176 176
121.0 -100.1 69.5 207 210 209
121.3 -99.0 68.8 207 210 209
125.9 -100.1 69.5 208 211 210
565.4 -412.7 286.6 209 212 211
397.4 -286.7 199.1 210 213 212
274.8 -195.9 136.1 210 213 212
219.5 -154.8 107.5 210 213 212
78.9 -32.6 22.7 191 191 191
79.7 -32.7 22.7 191 191 191
81.3 -33.2 23.0 191 191 191
82.2 -33.3 23.1 188 188 188
65.3 -25.8 17.9 164 167 166
64.0 -25.1 17.5 160 160 160
63.9 -24.9 17.3 155 155 155
64.3 -24.9 17.3 150 150 150
-29.2 -17.1 12.0 177 176 174
-28.9 -17.1 12.1 163 163 163
-28.6 -17.1 12.1 142 144 143
-28.3 -17.1 12.0 156 155 153
-28.0 -17.0 12.0 73 73 73
-14.0 -29.2 20.6 159 162 161
-13.6 -29.4 20.7 128 128 128
128.4 -105.9 74.8 207 210 209
122.4 -99.6 70.3 207 210 209
120.0 -96.4 68.0 207 210 209
127.3 -99.6 70.3 207 210 209
121.3 -93.7 66.1 208 211 210
592.3 -425.3 300.3 209 212 211
397.4 -282.1 199.1 209 212 211
270.9 -190.0 134.2 210 213 212
222.0 -154.0 108.7 210 213 212
76.1 -31.2 22.0 192 192 192
77.8 -31.6 22.3 192 192 192
78.8 -31.8 22.5 192 192 192
80.7 -32.4 22.9 192 192 192
82.0 -32.7 23.1 189 189 189
79.9 -31.6 22.3 185 185 185
64.3 -24.8 17.5 161 161 161
63.8 -24.5 17.3 157 157 157
63.2 -24.1 17.0 150 150 150
-14.1 -29.1 20.9 181 181 181
-13.7 -29.3 21.0 170 172 172
138.9 -111.2 79.8 206 209 208
162.3 -124.9 89.7 207 210 209
154.1 -117.1 84.1 207 210 209
203.5 -137.3 98.5 207 210 209
73.0 -47.1 33.8 195 195 195
75.0 -30.4 21.8 193 196 195
75.2 -30.3 21.7 193 193 193
82.2 -32.2 23.1 190 190 190
78.5 -30.6 21.9 186 186 186
77.3 -29.9 21.5 179 182 181
64.6 -24.5 17.6 158 158 158
63.8 -24.1 17.3 154 154 154
63.5 -23.8 17.1 150 150 150
63.3 -23.6 16.9 143 145 144
-15.2 -33.1 24.1 168 168 168
157.7 -125.8 91.8 206 209 208
147.6 -116.2 84.8 206 209 208
174.2 -133.6 97.5 207 210 209
176.5 -133.6 97.5 207 210 209
173.4 -129.6 94.6 207 210 209
177.4 -130.9 95.5 207 210 209
176.9 -128.9 94.1 208 211 210
184.6 -132.9 97.0 208 211 210
73.4 -46.6 34.0 196 196 196
83.2 -32.3 23.6 191 191 191
82.8 -31.9 23.3 191 191 191
64.4 -23.7 17.3 139 141 140
-26.4 -15.6 11.6 79 81 79
-17.5 -16.1 11.9 85 85 85
-17.0 -15.9 11.8 126 128 127
-16.5 -32.7 24.3 183 183 183
-15.9 -32.7 24.3 177 177 177
-15.4 -33.0 24.5 161 164 163
-14.7 -32.7 24.3 22 22 22
158.4 -124.3 92.3 210 210 210
173.3 -130.7 97.0 206 209 208
178.3 -132.7 98.5 207 210 209
176.9 -130.0 96.5 207 210 209
179.2 -130.0 96.5 207 210 209
178.7 -128.0 95.1 207 210 209
183.7 -130.0 96.5 208 211 210
190.1 -131.3 97.5 208 211 210
254.6 -169.8 126.1 209 212 211
219.5 -144.8 107.5 207 210 209
74.1 -46.2 34.3 196 196 196
83.8 -32.0 23.7 192 192 192
83.8 -31.8 23.6 192 192 192
-16.6 -15.5 11.7 91 91 91
-16.2 -32.9 24.8 170 171 170
-15.7 -33.0 24.9 162 162 162
-15.0 -32.7 24.7 28 28 28
175.1 -129.7 98.0 211 211 211
183.1 -133.9 101.2 211 211 211
181.6 -131.1 99.0 211 211 211
182.9 -130.4 98.5 207 210 209
183.3 -129.1 97.5 207 210 209
185.6 -129.1 97.5 207 210 209
583.1 -391.2 295.6 208 211 210
254.6 -166.9 126.1 209 212 211
219.5 -142.3 107.5 209 212 211
205.7 -131.8 99.6 209 212 211
78.9 -47.3 35.8 197 197 197
158.1 -71.5 54.0 191 194 193
85.2 -31.9 24.1 182 185 184
85.3 -31.8 24.0 180 183 182
69.7 -24.8 18.8 136 136 136
-15.3 -14.0 10.8 81 81 81
-16.3 -32.5 25.0 90 90 90
-15.8 -32.5 25.0 86 86 86
-15.2 -32.6 25.1 57 58 56
212.7 -152.8 117.5 211 211 211
211.5 -150.0 115.3 211 211 211
316.4 -221.6 170.4 211 211 211
583.1 -384.3 295.6 214 214 214
414.9 -270.3 207.9 214 214 214
287.2 -184.9 142.2 214 214 214
227.3 -144.7 111.3 215 215 215
218.3 -137.4 105.7 207 210 209
78.6 -46.3 35.6 197 197 197
155.9 -69.3 53.3 189 189 189
70.1 -24.5 18.9 134 134 134
69.7 -24.1 18.5 133 133 133
-15.3 -13.7 10.8 37 38 37
-16.4 -32.1 25.2 87 87 87
-15.7 -31.9 25.0 88 88 88
-15.3 -32.1 25.1 57 59 59
-14.4 -31.6 24.7 112 111 110
219.5 -154.9 121.3 211 211 211
220.9 -153.9 120.5 211 211 211
344.3 -236.8 185.5 211 211 211
704.1 -455.8 356.9 214 214 214
510.2 -326.5 255.6 214 214 214
267.1 -168.9 132.3 214 214 214
237.0 -148.2 116.1 209 212 211
74.0 -25.6 20.0 128 131 130
71.1 -24.5 19.1 129 129 129
71.2 -24.3 19.0 128 128 128
-15.3 -12.7 10.1 57 56 55
-16.8 -32.3 25.8 90 90 90
-15.9 -31.6 25.2 89 91 90
-15.3 -31.5 25.2 73 75 75
15.0 -12.8 10.2 207 207 207
240.0 -147.3 117.5 209 212 211
72.9 -24.6 19.6 119 119 119
72.0 -24.1 19.2 120 120 120
71.7 -23.9 19.1 122 122 122
-24.2 -12.5 10.2 29 31 29
-23.9 -12.5 10.2 25 25 25
-23.5 -12.5 10.2 17 21 18
-23.2 -12.5 10.2 25 25 25
-22.3 -12.5 10.2 150 152 152
-21.4 -12.4 10.1 183 183 183
-18.0 -12.5 10.2 53 53 53
-17.6 -12.4 10.1 51 51 51
-16.8 -12.5 10.2 47 48 47
-16.6 -12.5 10.2 38 38 38
-16.3 -12.5 10.1 26 26 26
-16.0 -12.5 10.1 27 29 27
-15.9 -12.5 10.2 84 86 86
-15.6 -12.5 10.2 24 24 24
-15.3 -12.5 10.1 27 29 27
-15.1 -12.5 10.1 110 110 110
-14.9 -12.5 10.1 72 72 72
-11.6 -12.5 10.2 39 39 39
-11.3 -12.5 10.1 116 118 117
-11.1 -12.5 10.1 55 55 55
-10.9 -12.5 10.2 95 94 93
-10.6 -12.4 10.1 29 29 27
-17.8 -33.5 27.3 91 93 92
-16.5 -32.3 26.2 90 92 91
73.1 -24.1 19.6 112 112 112
72.2 -23.6 19.2 115 115 115
-24.4 -12.4 10.3 27 27 27
-24.1 -12.4 10.3 19 23 20
-24.0 -12.4 10.3 17 21 18
-23.7 -12.4 10.3 17 21 18
-23.4 -12.4 10.3 23 23 23
-23.2 -12.4 10.3 126 129 128
-22.9 -12.5 10.3 130 130 130
-22.4 -12.4 10.2 144 144 144
-22.0 -12.4 10.3 185 185 185
-21.6 -12.3 10.2 128 130 129
-18.5 -12.5 10.3 53 52 52
-18.1 -12.3 10.2 51 51 51
-17.9 -12.3 10.2 51 51 51
-16.9 -12.4 10.2 44 44 44
-16.7 -12.4 10.3 38 40 40
-16.4 -12.3 10.2 26 26 26
-16.2 -12.3 10.2 27 29 27
-16.0 -12.4 10.3 83 85 85
-15.8 -12.4 10.3 26 26 26
-15.5 -12.4 10.3 26 26 26
-15.1 -12.4 10.3 24 24 24
-11.7 -12.4 10.3 36 37 36
-11.5 -12.4 10.2 112 112 112
-11.2 -12.4 10.2 141 143 142
-11.0 -12.4 10.2 57 58 56
-10.7 -12.4 10.2 30 30 30
-18.1 -33.5 27.7 96 96 96
51.5 -17.1 14.1 108 108 108
44.7 -14.4 11.9 105 105 105
44.6 -14.2 11.8 87 87 87
-23.7 -12.2 10.3 25 25 25
-23.4 -12.2 10.3 25 25 25
-23.2 -12.2 10.3 116 118 117
-22.8 -12.2 10.3 149 151 151
-22.4 -12.1 10.2 149 149 149
-22.0 -12.2 10.3 149 151 151
-21.6 -12.1 10.2 126 128 127
-18.6 -12.3 10.3 53 52 52
-18.1 -12.1 10.2 53 52 52
-17.0 -12.1 10.3 48 48 48
-16.7 -12.2 10.3 38 40 40
-16.5 -12.1 10.2 27 29 27
-16.2 -12.1 10.2 31 30 29
-16.0 -12.2 10.3 79 79 79
-15.8 -12.2 10.3 38 38 38
-15.5 -12.2 10.3 40 40 40
-15.1 -12.2 10.3 136 136 136
-11.5 -12.1 10.3 23 23 23
-11.2 -12.1 10.3 34 34 34
-11.0 -12.1 10.3 30 30 30
-21.0 -36.7 31.0 127 127 127
-19.9 -36.0 30.4 98 98 98
51.8 -16.8 14.2 106 106 106
51.7 -16.7 14.1 101 103 103
45.0 -14.2 11.9 77 80 79
44.8 -14.0 11.8 67 67 65
44.6 -13.9 11.7 155 155 155
-23.4 -11.9 10.3 25 25 25
-22.8 -12.0 10.3 168 168 168
-22.4 -11.9 10.2 136 138 137
-22.0 -11.9 10.3 128 130 129
-18.5 -12.0 10.3 53 53 53
-18.1 -11.9 10.2 53 53 53
-16.0 -11.9 10.3 38 38 38
-15.8 -11.9 10.3 81 81 81
-21.0 -38.7 33.3 96 96 96
-19.8 -39.3 33.8 90 90 90
-19.1 -39.5 34.0 115 117 116
52.2 -16.6 14.3 99 99 99
51.7 -16.4 14.1 93 96 95
45.2 -13.8 11.9 78 78 78
45.0 -13.7 11.8 149 149 149
-22.3 -11.6 10.2 194 194 194
-21.4 -11.5 10.1 182 182 182
-22.9 -39.8 35.0 97 100 99
-21.9 -39.6 34.8 96 99 98
-21.4 -40.1 35.2 79 82 81
-20.6 -40.1 35.2 115 114 114
-19.6 -39.7 34.9 119 119 119
15.1 -12.8 11.2 211 211 211
15.1 -12.6 11.1 210 210 210
17.5 -12.8 11.3 212 213 212
51.8 -16.1 14.1 81 84 83
51.4 -15.8 13.9 72 72 72
-22.2 -11.3 10.1 28 28 28
-23.0 -40.6 36.4 95 98 97
-22.2 -40.8 36.6 103 105 105
-21.1 -40.3 36.2 20 20 20
-20.1 -40.0 35.9 23 23 22
15.1 -12.5 11.2 215 215 215
15.1 -12.3 11.1 214 214 214
17.5 -12.5 11.2 212 213 212
17.7 -12.5 11.2 214 214 214
17.7 -12.3 11.1 214 214 214
51.8 -15.7 14.1 79 81 80
51.4 -15.5 13.9 72 72 72
51.5 -15.5 13.9 72 72 72
-24.6 -42.6 39.1 100 100 100
-23.3 -42.0 38.4 111 111 111
-23.0 -42.9 39.3 22 22 22
15.1 -12.1 11.1 214 214 214
50.9 -15.0 13.8 75 76 76
51.0 -15.0 13.7 78 78 78
51.0 -14.9 13.6 78 78 78
-26.6 -45.0 42.1 99 99 99
-24.8 -43.5 40.8 111 111 111
-28.8 -54.9 51.4 20 20 20
16.3 -11.2 10.5 217 217 217
50.8 -14.7 13.8 79 82 81
51.0 -14.6 13.7 79 82 81
50.7 -14.5 13.6 79 82 81
-27.5 -45.5 43.6 101 101 101
-34.2 -58.8 56.3 110 110 110
-32.2 -57.6 55.1 7 13 9
-29.1 -54.1 51.8 26 26 26
16.3 -11.1 10.6 216 216 216
16.3 -10.9 10.5 217 217 217
-32.4 -56.7 55.5 22 22 22
-30.1 -54.9 53.7 25 25 23
16.1 -10.8 10.5 216 216 216
17.3 -10.7 10.5 218 218 218
-31.8 -54.4 54.5 48 48 48
-28.7 -51.2 51.3 23 23 22
17.2 -10.4 10.5 218 218 218
580.5 -168.6 168.9 52 52 52
-41.2 -61.5 63.1 93 96 95
-39.2 -60.7 62.2 98 98 98
-35.9 -57.6 59.1 113 115 114
-32.8 -54.7 56.1 48 50 48
-41.3 -71.8 73.6 18 18 18
-38.1 -69.1 70.8 160 160 160
-33.4 -63.4 65.0 181 181 181
-43.4 -63.2 66.4 94 97 96
-41.8 -63.2 66.4 99 99 99
-37.2 -58.3 61.2 107 107 107
-34.1 -55.6 58.4 29 29 29
-43.3 -73.5 77.2 22 22 22
-39.7 -70.3 73.9 171 173 173
-35.5 -65.7 69.0 180 180 180
218.3 -98.4 103.4 192 192 192
181.1 -80.7 84.8 198 198 198
-44.4 -73.5 79.1 22 22 22
-41.2 -71.1 76.6 163 163 163
208.1 -91.5 98.5 192 192 192
180.3 -78.4 84.4 196 196 196
168.0 -72.3 77.8 200 200 200
-45.1 -72.9 80.5 18 18 18
-42.4 -71.3 78.8 171 173 173
201.8 -86.5 95.5 184 184 184
178.0 -75.4 83.3 195 195 195
166.7 -69.9 77.2 200 200 200
-63.5 -95.9 108.7 27 27 27
194.0 -81.0 91.8 170 172 172
177.2 -73.2 83.0 197 197 197
-101.3 -169.2 197.0 179 179 179
-81.5 -142.5 165.9 179 182 181
204.9 -83.3 97.0 173 173 173
186.2 -74.9 87.2 195 195 195
-131.5 -188.1 225.2 29 29 29
-156.0 -232.4 278.2 18 18 18
-127.1 -197.6 236.5 160 160 160
-137.0 -222.6 266.4 179 179 179
-136.6 -232.4 278.2 178 181 180
18.1 -9.7 11.7 217 217 217
18.1 -9.6 11.5 218 221 220
21.6 -10.1 12.1 219 222 221
204.9 -81.0 97.0 186 186 186
181.1 -70.9 84.8 193 193 193
-216.6 -301.3 370.9 26 25 24
-200.2 -289.9 356.9 27 27 27
-191.9 -289.9 356.9 172 172 172
21.9 -9.9 12.2 219 222 221
179.5 -68.3 84.1 191 191 191
22.0 -9.7 12.3 219 222 221
171.9 -63.5 80.5 191 191 191
18.3 -9.0 11.8 218 221 220
18.2 -8.8 11.5 222 224 224
21.9 -9.5 12.4 219 222 221
21.8 -9.3 12.2 219 222 221
18.1 -8.6 11.6 218 221 220
18.1 -8.5 11.5 218 221 220
23.6 -10.4 14.0 219 222 221
24.0 -10.4 14.0 219 222 221
24.7 -10.3 13.8 219 222 221
24.9 -10.2 13.8 219 222 221
218.7 -283.5 394.1 223 225 225
22.2 -9.7 13.5 222 224 224
22.7 -9.8 13.6 222 224 224
23.5 -10.0 13.8 222 224 224
23.5 -9.9 13.7 222 224 224
23.3 -9.6 13.4 219 222 221
24.6 -9.9 13.8 219 222 221
24.8 -9.8 13.7 219 222 221
24.7 -9.7 13.5 219 222 221
-133.2 -43.3 62.2 79 79 79
-7.8 -7.1 10.2 192 192 192
214.2 -268.7 386.0 223 225 225
227.8 -274.3 394.1 223 225 225
17.7 -7.9 11.4 218 221 220
17.9 -7.9 11.4 218 221 220
22.1 -9.4 13.4 222 224 224
22.6 -9.4 13.5 222 224 224
23.4 -9.5 13.6 223 225 225
23.3 -9.3 13.4 219 222 221
24.3 -9.5 13.6 219 222 221
24.6 -9.4 13.6 219 222 221
24.7 -9.4 13.5 219 222 221
25.0 -9.4 13.5 219 222 221
-137.3 -43.1 64.1 65 65 65
-8.1 -6.9 10.2 193 193 193
-7.9 -6.9 10.2 192 192 192
17.9 -7.6 11.4 218 221 220
22.7 -9.1 13.6 219 222 221
23.4 -9.2 13.6 219 222 221
24.7 -9.2 13.6 219 222 221
24.8 -9.1 13.6 219 222 221
178.9 -52.4 77.8 195 195 195
-198.0 -58.8 90.5 29 29 29
-182.8 -54.9 84.4 30 30 30
23.4 -8.8 13.6 219 222 221
24.8 -8.9 13.7 220 223 222
178.9 -50.6 77.8 198 198 198
151.9 -42.5 65.5 200 200 200
190.6 -52.3 80.5 204 204 204
161.1 -42.5 65.5 232 232 232
-93.4 -26.4 42.2 35 34 33
-201.9 -57.8 92.3 30 30 30
-192.2 -55.6 88.8 29 29 29
173.9 -47.4 75.7 198 198 198
153.5 -41.4 66.1 200 200 200
189.8 -50.2 80.2 202 202 202
165.7 -43.4 69.3 204 204 204
161.6 -41.1 65.7 234 236 236
161.5 -40.7 65.0 105 105 105
18.0 -7.0 11.6 219 219 219
23.6 -8.3 13.7 220 223 222
171.2 -44.9 74.5 196 196 196
156.3 -40.6 67.3 198 198 198
161.3 -41.5 68.8 202 202 202
187.4 -47.7 79.1 204 204 204
165.7 -41.8 69.3 206 206 206
172.1 -42.6 70.6 232 232 232
161.6 -39.6 65.7 237 237 237
163.2 -39.6 65.7 101 103 103
18.0 -6.7 11.6 220 223 222
175.3 -44.2 76.3 196 196 196
160.3 -40.0 69.0 198 198 198
189.0 -46.3 79.8 202 202 202
168.1 -40.8 70.3 205 205 205
181.2 -43.5 75.1 196 196 196
176.0 -41.9 72.2 235 235 235
163.3 -38.5 66.4 235 235 235
164.9 -38.5 66.4 107 107 107
17.9 -6.4 11.5 220 220 220
18.1 -6.4 11.5 220 220 220
181.1 -43.9 78.8 196 196 196
167.6 -40.2 72.2 199 199 199
200.0 -47.0 84.4 202 202 202
203.9 -47.0 84.4 190 190 190
179.4 -41.0 73.6 235 235 235
163.9 -37.1 66.6 235 235 235
177.0 -39.3 70.6 72 74 74
194.1 -45.0 84.4 196 196 196
206.3 -46.9 88.0 202 202 202
201.8 -45.4 85.2 202 202 202
202.8 -45.2 84.8 203 203 203
205.7 -45.4 85.2 197 197 197
161.6 -35.0 65.7 231 231 231
301.9 -63.1 118.2 61 64 63
24.0 -6.5 12.8 222 222 222
23.5 -6.3 12.3 222 222 222
209.3 -50.0 98.0 138 140 139
204.5 -44.1 86.4 203 203 203
207.5 -44.3 86.8 207 207 207
209.5 -44.3 86.8 200 200 200
160.5 -33.3 65.2 225 227 227
159.8 -32.8 64.3 111 113 112
301.9 -60.3 118.2 68 68 68
24.0 -6.3 12.9 224 224 224
23.7 -6.1 12.6 224 224 224
23.5 -6.0 12.3 224 224 224
23.4 -5.9 12.1 224 224 224
182.8 -41.7 85.6 143 143 142
198.2 -40.7 83.7 203 203 203
203.9 -41.1 84.4 200 200 200
187.4 -37.4 76.9 219 219 219
160.5 -31.8 65.2 219 219 219
159.8 -31.3 64.3 120 120 120
300.1 -57.2 117.5 67 67 67
233.2 -44.1 90.5 61 64 63
219.6 -41.1 84.4 61 64 63
24.0 -6.0 12.9 224 224 224
23.2 -5.7 12.2 224 224 224
23.2 -5.6 12.1 224 224 224
197.0 -42.8 92.3 118 118 118
197.3 -38.6 83.3 203 203 203
203.9 -39.2 84.4 205 205 205
181.5 -34.5 74.5 212 214 214
162.2 -30.6 65.9 220 220 220
303.8 -55.2 119.0 62 64 64
216.7 -38.6 83.3 62 64 64
23.2 -5.3 12.0 225 225 225
200.0 -37.2 84.4 203 203 203
311.7 -53.7 122.0 60 63 62
343.3 -33.9 133.2 58 59 59
347.5 -31.5 136.1 63 65 65
345.7 -31.0 134.2 58 59 59
330.1 -29.3 127.0 59 59 59
343.3 -27.7 133.2 63 63 63
26.8 -2.5 13.3 222 222 222
26.9 -2.4 13.2 222 222 222
23.7 -2.1 11.5 218 221 220
338.5 -24.3 131.4 67 69 68
26.5 -2.1 13.3 224 224 224
26.7 -2.1 13.2 224 224 224
26.9 -2.1 13.2 224 224 224
338.5 -21.2 131.4 74 74 74
317.3 -19.7 122.0 77 77 77
25.6 -1.7 12.4 219 222 221
25.9 -1.7 12.4 169 169 169
336.2 -18.0 130.5 72 72 72
23.0 -1.4 12.6 220 223 222
23.3 -1.4 12.6 225 225 225
23.8 -1.5 12.7 225 225 225
24.0 -1.4 12.6 225 225 225
24.2 -1.4 12.5 225 225 225
24.3 -1.4 12.5 220 223 222
24.6 -1.4 12.5 225 225 225
25.0 -1.4 12.5 225 225 225
25.3 -1.4 12.5 225 225 225
25.6 -1.4 12.5 219 222 221
25.7 -1.4 12.4 219 222 221
26.0 -1.4 12.4 173 173 173
24.1 -1.2 12.8 220 223 222
24.8 -1.2 12.6 220 223 222
26.2 -1.2 12.8 220 223 222
25.7 -1.1 12.5 220 223 222
26.0 -1.1 12.5 173 173 173
22.3 -1.0 10.6 186 186 186
26.5 -0.9 13.0 222 224 224
22.3 -0.7 10.6 191 191 191
20.8 -0.5 11.0 223 225 225
22.3 -0.5 10.6 192 192 192
20.6 -0.2 11.0 223 225 225
22.2 -0.2 11.0 223 225 225
22.3 -0.2 10.9 220 223 222
22.7 -0.2 10.9 181 181 181
22.3 -0.2 10.6 192 192 192
22.5 0.0 10.8 185 185 185
80.7 2.0 21.6 86 85 83
80.9 2.0 21.5 90 90 90
81.9 2.6 21.9 87 86 84
82.0 2.6 21.8 92 92 92
81.5 2.5 21.5 90 90 90
81.9 2.5 21.5 150 152 152
83.0 3.1 22.2 87 87 85
82.6 3.1 21.9 93 93 93
82.8 3.1 21.9 90 90 90
82.7 3.6 22.0 91 91 91
83.2 3.6 22.0 97 100 99
379.4 76.6 363.8 108 108 108
341.9 67.5 320.6 76 76 74
349.3 67.5 320.6 30 29 28
301.2 25.5 121.3 180 180 180
345.7 28.2 134.2 193 193 193
313.3 25.4 120.5 188 190 190
1189.6 82.9 394.1 62 61 60
1168.7 75.1 356.9 47 49 47
1153.2 71.1 337.8 74 74 74
655.3 68.0 291.0 200 200 200
558.9 57.4 245.7 200 200 200
714.5 66.0 282.3 190 190 190
431.3 39.5 168.9 193 193 193
380.8 34.5 147.8 194 194 194
361.7 32.5 139.1 197 197 197
1065.6 81.9 350.3 57 57 57
1032.3 73.7 315.3 41 43 41
1076.3 73.7 315.3 75 75 75
553.2 63.1 245.7 200 200 200
462.7 52.3 203.4 200 200 200
477.7 53.4 207.9 200 200 200
422.2 46.7 181.9 203 203 203
427.0 45.0 175.2 200 200 200
415.6 43.4 168.9 68 68 68
408.6 42.3 164.5 182 185 184
598.4 60.8 236.5 191 191 191
443.2 44.6 173.5 194 194 194
431.4 43.0 167.4 194 194 194
409.9 40.5 157.6 198 198 198
492.9 54.1 193.0 187 189 189
473.3 51.5 183.7 192 192 192
-115.6 29.5 52.8 22 22 22
-112.5 29.1 52.0 60 60 60
-102.1 31.9 57.0 87 86 84
-93.5 29.5 52.8 87 87 87
-70.6 28.7 51.4 109 111 111
-69.4 28.7 51.4 109 111 111
-56.7 28.4 50.7 101 103 103
-54.8 29.9 53.4 92 92 92
-55.1 31.5 56.3 98 98 98
-55.8 32.6 58.4 33 35 34
-53.3 32.0 57.1 24 24 24
-1.2 5.7 10.2 205 208 207
-102.8 33.4 57.3 95 94 93
-100.5 33.1 56.8 97 97 97
-79.9 33.3 57.1 96 95 94
-66.7 34.0 58.4 59 59 59
-57.0 34.8 59.7 79 81 80
-54.3 33.9 58.2 91 91 91
28.6 32.8 56.3 72 73 71
27.4 30.0 51.5 69 69 69
-588.8 170.7 236.5 127 127 127
-583.3 170.7 236.5 127 127 127
-577.8 170.7 236.5 128 128 128
-572.3 170.7 236.5 124 127 126
-566.8 170.7 236.5 124 127 126
-561.3 170.7 236.5 135 135 135
-517.3 170.7 236.5 123 123 123
-511.8 170.7 236.5 126 129 128
-506.3 170.7 236.5 128 131 130
-500.8 170.7 236.5 132 132 132
-484.3 170.7 236.5 137 137 137
-478.8 170.7 236.5 139 141 140
-473.4 170.7 236.5 139 141 140
-467.9 170.7 236.5 139 141 140
-462.4 170.7 236.5 139 141 140
-456.9 170.7 236.5 139 141 140
-451.5 172.8 239.4 133 133 133
-440.4 170.7 236.5 128 130 129
-429.5 168.6 233.5 126 128 127
-429.1 175.1 242.5 126 128 127
-412.9 170.7 236.5 126 128 127
-407.4 170.7 236.5 122 122 122
-396.9 168.6 233.5 118 118 118
-386.7 166.5 230.7 116 118 117
-341.4 170.7 236.5 178 181 180
-336.0 170.7 236.5 160 160 160
-330.5 170.7 236.5 149 149 149
-325.0 170.7 236.5 186 186 186
-319.5 170.7 236.5 148 150 150
-310.1 168.6 233.5 138 140 139
-299.2 168.6 233.5 151 153 153
-283.0 168.6 233.5 74 74 74
-277.5 168.6 233.5 22 25 23
-275.5 170.7 236.5 22 25 23
-270.0 170.7 236.5 98 98 98
-264.5 170.7 236.5 26 26 26
-259.0 170.7 236.5 18 18 18
-253.5 170.7 236.5 26 26 26
-237.5 175.1 242.5 160 160 160
-226.0 170.7 236.5 168 168 168
-196.1 168.6 233.5 110 110 110
-110.6 170.7 236.5 177 177 177
-105.1 170.7 236.5 197 197 197
-12.3 179.7 248.9 218 218 218
-384.7 223.7 300.3 148 148 148
-168.8 115.5 134.2 67 69 67
-174.9 129.3 150.1 38 38 36
-134.7 113.1 131.4 158 161 160
76.2 123.4 143.3 84 85 83
-395.5 130.7 147.8 53 52 52
-392.0 130.7 147.8 9 14 10
-388.6 130.7 147.8 9 14 10
-381.7 130.7 147.8 18 18 18
-378.3 130.7 147.8 13 17 14
-374.9 130.7 147.8 35 35 35
-371.4 130.7 147.8 47 48 47
-368.0 130.7 147.8 54 54 54
-364.5 130.7 147.8 67 69 67
-361.1 130.7 147.8 67 67 67
-357.7 130.7 147.8 70 72 69
-354.2 130.7 147.8 161 161 161
-350.8 130.7 147.8 162 165 164
-334.3 125.8 142.2 75 75 75
-336.1 127.7 144.4 61 63 61
-334.5 129.7 146.6 113 114 113
-329.3 131.7 148.9 197 197 197
-323.3 130.7 147.8 159 159 159
-319.9 130.7 147.8 165 168 167
-302.3 124.9 141.2 182 182 182
-313.0 130.7 147.8 172 172 172
-281.0 118.7 134.2 177 177 177
-312.5 134.9 152.6 134 137 136
-299.3 130.7 147.8 148 148 148
-295.8 130.7 147.8 195 195 195
-292.4 130.7 147.8 120 122 121
-293.6 132.8 150.1 120 122 121
-290.1 132.8 150.1 116 116 116
-282.1 130.7 147.8 116 116 116
-278.7 130.7 147.8 108 110 110
-275.2 130.7 147.8 113 114 113
-271.8 130.7 147.8 102 102 102
-264.2 128.7 145.5 105 105 105
-260.9 128.7 145.5 98 97 95
-249.8 124.9 141.2 145 147 147
-244.7 123.9 140.1 209 208 206
-258.7 132.8 150.1 202 202 202
-251.2 130.7 147.8 204 204 204
-247.8 130.7 147.8 205 208 207
-244.3 130.7 147.8 204 207 206
-240.9 130.7 147.8 187 189 189
-239.3 131.7 148.9 152 152 152
-234.0 130.7 147.8 131 133 132
-230.6 130.7 147.8 84 84 84
-227.1 130.7 147.8 69 71 69
-225.5 131.7 148.9 66 66 66
-220.3 130.7 147.8 69 71 69
-215.2 129.7 146.6 67 68 66
-206.9 126.8 143.3 67 68 66
-200.6 124.9 141.2 66 67 65
-198.8 125.8 142.2 68 70 68
-195.5 125.8 142.2 70 72 69
-193.6 126.8 143.3 70 72 69
-188.9 125.8 142.2 69 71 69
-185.5 125.8 142.2 75 75 75
-192.4 132.8 150.1 75 75 75
-172.5 121.2 137.1 65 66 64
-185.4 132.8 150.1 52 53 51
-177.7 129.7 146.6 54 54 54
-178.4 132.8 150.1 35 37 36
-169.5 128.7 145.5 36 36 36
-163.6 126.8 143.3 64 65 63
-164.0 129.7 146.6 14 14 14
-158.4 130.7 147.8 165 168 167
-155.0 130.7 147.8 152 152 152
-136.6 117.8 133.2 166 166 166
-128.1 113.1 127.8 157 160 159
-133.9 123.9 140.1 190 190 190
-121.7 115.4 130.5 185 185 185
-98.1 132.8 150.1 72 74 74
-85.2 119.5 135.1 89 89 89
-69.7 131.7 148.9 164 167 166
-67.3 133.9 151.3 153 155 155
-62.3 130.7 147.8 73 73 73
78.0 129.7 146.6 86 87 85
84.6 134.9 152.6 48 50 50
117.0 144.2 163.1 23 23 23
104.6 124.9 141.2 20 20 20
-521.8 177.0 195.0 172 172 172
-517.3 177.0 195.0 163 163 163
-512.8 177.0 195.0 156 159 158
-508.2 177.0 195.0 156 156 156
-503.7 177.0 195.0 157 160 159
-499.2 177.0 195.0 158 161 160
-494.6 177.0 195.0 176 176 176
-490.1 177.0 195.0 184 184 184
-485.6 177.0 195.0 184 184 184
-481.1 177.0 195.0 182 185 184
-476.5 177.0 195.0 172 172 172
-472.0 177.0 195.0 149 151 151
-472.3 178.9 197.0 161 164 163
-467.7 178.9 197.0 99 99 99
-404.2 156.1 172.0 89 89 89
-393.1 153.3 168.9 60 60 60
-426.5 178.9 197.0 74 75 73
-417.6 177.0 195.0 95 95 95
-408.8 175.2 193.0 117 117 117
-387.5 171.7 189.2 219 219 219
-394.9 177.0 195.0 220 220 220
-390.4 177.0 195.0 224 224 224
-389.9 178.9 197.0 117 117 117
-380.7 178.9 197.0 119 119 119
-362.4 178.9 197.0 196 196 196
-350.5 175.2 193.0 202 202 202
-346.0 175.2 193.0 184 184 184
-298.9 153.3 168.9 193 193 193
-292.3 152.0 167.4 204 204 204
-329.2 173.4 191.1 209 209 209
-328.1 175.2 193.0 184 187 186
-326.9 177.0 195.0 196 196 196
-322.4 177.0 195.0 106 108 108
-321.2 178.9 197.0 46 46 46
-304.3 177.0 195.0 59 61 59
-284.8 173.4 191.1 64 64 64
-252.3 156.1 172.0 64 64 64
-243.9 153.3 168.9 66 66 66
-242.1 154.7 170.4 67 68 66
-272.5 177.0 195.0 69 71 69
-268.0 177.0 195.0 68 70 68
-263.5 177.0 195.0 70 72 69
-251.2 171.7 189.2 73 73 73
-274.2 190.8 210.2 75 76 76
-226.5 160.5 176.8 75 76 76
-212.5 153.3 168.9 63 63 63
-256.7 188.7 207.9 59 59 59
-249.1 186.6 205.6 75 75 75
-224.8 171.7 189.2 40 40 40
-198.6 154.7 170.4 35 37 36
-220.4 175.2 193.0 58 59 59
-215.9 175.2 193.0 14 14 14
-204.6 177.0 195.0 151 151 151
-130.7 175.2 193.0 80 80 80
-115.6 160.5 176.8 71 71 71
-92.2 178.9 197.0 164 167 166
-86.7 177.0 195.0 153 155 155
93.7 153.3 168.9 53 52 51
153.2 214.6 236.5 100 100 100
158.7 214.6 236.5 91 93 91
152.7 199.7 220.0 26 30 27
156.0 197.4 217.4 22 22 22
129.8 159.0 175.2 20 20 20
-581.8 202.4 217.4 155 158 157
-576.8 202.4 217.4 157 160 159
-599.3 212.2 227.9 156 159 158
-594.0 212.2 227.9 158 161 160
-561.6 202.4 217.4 162 162 162
-556.6 202.4 217.4 165 165 165
-551.5 202.4 217.4 169 169 169
-546.5 202.4 217.4 172 172 172
-541.4 202.4 217.4 169 169 169
-536.3 202.4 217.4 162 165 164
-525.3 200.1 215.0 160 163 162
-545.0 209.7 225.2 161 164 163
-533.4 207.2 222.5 99 99 99
-528.3 207.2 222.5 98 98 98
-488.6 193.5 207.9 89 89 89
-482.2 209.7 225.2 34 34 34
-466.8 212.2 227.9 24 24 24
-461.5 212.2 227.9 45 45 45
-456.2 212.2 227.9 96 96 96
-450.9 212.2 227.9 91 91 91
-456.7 217.4 233.5 122 124 123
-435.1 209.7 225.2 121 123 122
-440.4 217.4 233.5 129 129 129
-429.6 214.8 230.7 145 145 144
-414.2 209.7 225.2 161 161 161
-404.1 207.2 222.5 196 199 198
-373.9 204.8 220.0 17 21 18
-373.1 207.2 222.5 25 29 26
-376.8 212.2 227.9 22 22 22
-371.5 212.2 227.9 17 21 18
-370.7 214.8 230.7 40 40 40
-369.8 217.4 233.5 47 47 47
-354.6 214.8 230.7 53 53 53
-349.2 214.8 230.7 58 59 59
-306.5 191.4 205.6 59 61 59
-338.5 214.8 230.7 62 62 62
-341.4 220.1 236.5 65 65 65
-295.3 193.5 207.9 67 69 67
-311.0 207.2 222.5 69 71 69
-295.4 200.1 215.0 69 71 69
-304.3 209.7 225.2 69 71 69
-276.0 193.5 207.9 74 74 74
-308.5 220.1 236.5 75 76 76
-269.3 195.7 210.2 75 76 76
-299.5 225.8 242.5 67 69 67
-274.1 214.8 230.7 22 25 23
-253.3 202.4 217.4 46 46 46
-257.1 209.7 225.2 44 44 44
-251.9 209.7 225.2 10 10 10
-233.4 207.2 222.5 179 182 181
-158.1 217.4 233.5 80 80 80
-133.0 189.4 203.4 73 73 73
-124.2 183.4 197.0 72 74 74
-100.1 209.7 225.2 160 160 160
-97.2 214.8 230.7 104 104 104
-90.7 212.2 227.9 167 167 167
184.6 275.2 295.6 101 101 101
163.4 234.8 252.2 95 95 95
164.9 228.7 245.7 94 94 94
172.8 231.7 248.9 23 23 23
191.2 248.0 266.4 20 20 20
154.0 193.5 207.9 13 17 14
-385.6 282.0 295.6 71 72 70
-365.0 282.0 295.6 158 158 158
-351.2 282.0 295.6 118 118 118
172.1 295.9 310.1 64 64 62
200.3 305.9 320.6 97 97 97
185.7 273.5 286.6 97 97 97
186.7 265.5 278.2 89 90 88
199.0 273.5 286.6 30 30 30
205.7 273.5 286.6 13 17 14
184.4 237.5 248.9 9 14 10
200.9 303.1 310.1 94 94 94
192.3 280.2 286.6 88 89 87
222.6 313.4 320.6 24 24 24
222.5 303.1 310.1 10 15 11
212.3 280.2 286.6 10 15 11
162.8 242.7 242.5 88 89 87
162.8 248.3 242.5 87 88 86
222.5 324.7 310.1 36 37 35
215.5 321.4 300.3 30 30 30
212.1 323.3 295.6 22 22 22
-28.9 14.3 10.3 109 111 111
-28.7 14.4 10.3 116 116 116
-28.6 14.4 10.3 123 123 123
-28.7 14.5 10.2 146 146 146
-29.0 16.1 10.3 219 219 219
26.1 17.4 11.0 147 147 147
26.1 17.7 11.0 138 138 138
25.6 16.8 10.3 133 133 133
-28.7 16.9 10.2 204 207 206
25.7 17.1 10.4 128 131 130
36.5 17.1 10.3 99 99 99
36.8 17.1 10.3 99 99 99
