ply
format ascii 1.0
element vertex 2885
property float x
property float y
property float z
property uchar red
property uchar green
property uchar blue
end_header
104.2 -170.7 68.0 153 155 155
106.1 -171.3 68.3 153 155 155
108.1 -172.0 68.5 154 156 156
109.3 -171.3 68.3 154 156 156
110.5 -170.7 68.0 155 158 157
53.5 -76.2 30.4 157 160 159
54.2 -76.1 30.3 158 161 160
55.0 -76.3 30.4 158 161 160
28.5 -25.2 10.1 117 117 117
30.0 -25.3 10.1 110 112 111
30.2 -25.3 10.1 111 113 112
30.4 -25.3 10.1 111 113 112
30.6 -25.2 10.1 111 113 112
30.9 -25.3 10.1 109 111 111
31.0 -25.2 10.0 109 111 111
31.3 -25.2 10.0 112 114 113
107.7 -172.2 69.3 156 159 158
110.1 -173.5 69.8 157 160 159
110.9 -172.2 69.3 157 160 159
111.3 -170.4 68.5 158 161 160
54.0 -76.1 30.6 157 160 159
54.5 -75.8 30.5 158 161 160
55.7 -76.5 30.8 158 161 160
56.4 -76.5 30.8 159 162 161
57.4 -76.8 30.9 159 162 161
30.0 -24.9 10.0 111 113 112
97.3 -194.9 79.1 163 163 163
92.2 -181.3 73.6 163 163 163
74.6 -120.1 48.8 161 161 161
112.2 -177.8 72.2 161 161 161
116.1 -181.3 73.6 165 165 165
118.3 -182.0 73.9 162 162 162
112.5 -170.6 69.3 163 163 163
54.6 -76.2 31.0 157 160 159
55.0 -75.7 30.8 158 161 160
55.9 -76.1 30.9 158 161 160
56.8 -76.2 31.0 159 162 161
57.8 -76.6 31.1 159 162 161
58.4 -76.5 31.1 159 162 161
60.8 -40.0 16.3 176 176 176
60.2 -39.4 16.0 160 160 160
76.9 -158.6 65.0 163 163 163
82.8 -161.3 66.1 163 163 163
82.9 -158.6 65.0 163 163 163
63.3 -103.9 42.6 164 164 164
70.8 -114.5 46.9 164 164 164
67.5 -107.6 44.1 164 164 164
65.9 -103.5 42.4 164 164 164
119.4 -184.6 75.7 165 165 165
89.8 -131.1 53.7 163 163 163
73.0 -105.1 43.1 164 164 164
70.9 -100.7 41.3 164 164 164
55.3 -76.5 31.4 160 163 162
55.6 -75.9 31.1 161 164 163
56.7 -76.4 31.3 158 161 160
57.3 -76.3 31.3 159 162 161
58.6 -77.0 31.6 159 162 161
59.0 -76.5 31.4 159 162 161
59.3 -76.0 31.2 160 163 162
60.8 -39.7 16.3 206 206 206
59.4 -38.5 15.8 212 213 212
19.8 -98.7 40.9 162 162 162
20.8 -98.7 40.9 162 162 162
21.7 -98.7 40.9 165 165 165
22.7 -98.7 40.9 164 164 164
23.6 -98.7 40.9 167 167 167
24.6 -98.7 40.9 164 164 164
25.5 -98.7 40.9 167 167 167
26.5 -98.7 40.9 169 171 170
27.4 -98.7 40.9 169 171 170
28.4 -98.7 40.9 169 171 170
29.4 -98.9 40.9 169 171 170
30.3 -98.9 40.9 167 167 167
31.2 -98.7 40.9 167 167 167
32.2 -98.7 40.9 167 167 167
33.0 -98.5 40.8 167 167 167
34.1 -98.9 40.9 169 171 170
35.0 -98.7 40.9 168 168 168
36.0 -98.7 40.9 165 165 165
36.9 -98.7 40.9 165 165 165
37.8 -98.5 40.8 165 165 165
38.7 -98.5 40.8 165 165 165
40.5 -98.3 40.7 165 165 165
44.4 -98.5 40.8 166 166 166
45.4 -98.5 40.8 166 166 166
47.4 -98.7 40.9 166 166 166
48.2 -98.5 40.8 166 166 166
50.3 -98.9 40.9 166 166 166
50.9 -98.3 40.7 166 166 166
54.1 -100.7 41.7 166 166 166
53.8 -98.3 40.7 166 166 166
59.6 -98.5 40.8 167 167 167
60.7 -98.7 40.9 167 167 167
63.1 -101.1 41.9 167 167 167
52.8 -80.9 33.5 168 168 168
119.7 -180.6 74.8 165 165 165
112.9 -168.0 69.5 166 166 166
103.9 -152.3 63.1 166 166 166
57.5 -78.8 32.6 165 165 165
58.2 -78.7 32.6 165 165 165
59.1 -78.9 32.7 161 164 163
60.2 -79.3 32.8 162 165 164
61.6 -80.2 33.2 162 165 164
61.7 -79.3 32.8 159 162 161
92.3 -66.7 27.6 99 101 101
58.8 -38.0 15.7 179 179 179
58.3 -37.4 15.5 212 213 212
14.1 -85.7 35.8 160 160 160
14.6 -84.3 35.2 163 163 163
15.3 -83.5 34.9 163 163 163
26.1 -84.3 35.2 167 167 167
26.8 -83.8 35.0 167 167 167
27.6 -84.0 35.1 167 167 167
28.7 -84.6 35.4 167 167 167
29.2 -83.8 35.0 168 168 168
30.2 -84.4 35.3 168 168 168
31.1 -84.6 35.4 168 168 168
31.9 -84.4 35.3 168 168 168
32.8 -84.6 35.4 168 168 168
33.6 -84.6 35.4 168 168 168
34.1 -83.8 35.0 168 168 168
35.5 -85.2 35.6 168 168 168
36.0 -84.4 35.3 165 165 165
36.2 -83.1 34.7 168 168 168
37.8 -84.8 35.4 168 168 168
38.6 -84.8 35.4 168 168 168
39.1 -84.1 35.2 168 168 168
39.6 -83.4 34.8 168 168 168
40.6 -83.8 35.0 168 168 168
41.9 -84.8 35.4 168 168 168
42.6 -84.4 35.3 168 168 168
43.5 -84.6 35.4 168 168 168
44.3 -84.6 35.4 168 168 168
44.5 -83.5 34.9 168 168 168
45.2 -83.4 34.8 168 168 168
47.3 -84.1 35.2 171 173 173
51.6 -85.9 35.9 169 169 169
52.2 -85.4 35.7 169 169 169
52.7 -84.9 35.5 169 169 169
60.8 -96.5 40.3 169 169 169
55.6 -85.6 35.8 169 169 169
54.1 -82.0 34.3 170 171 170
99.6 -138.8 58.0 170 171 170
55.6 -74.4 31.1 168 168 168
273.9 -362.1 151.3 169 169 169
64.2 -82.7 34.6 167 167 167
84.7 -60.2 25.2 99 101 101
45.5 -29.7 12.4 194 194 194
14.1 -80.3 33.9 163 163 163
14.5 -78.5 33.1 163 163 163
15.5 -79.5 33.5 165 165 165
16.3 -79.5 33.5 168 168 168
17.1 -79.5 33.5 165 165 165
17.8 -79.5 33.5 168 168 168
18.6 -79.5 33.5 169 171 170
19.4 -79.5 33.5 169 171 170
20.2 -79.5 33.5 169 171 170
20.9 -79.5 33.5 169 171 170
21.7 -79.5 33.5 169 171 170
22.5 -79.5 33.5 169 171 170
23.3 -79.5 33.5 167 167 167
24.1 -79.5 33.5 167 167 167
24.8 -79.5 33.5 164 164 164
25.6 -79.3 33.5 167 167 167
26.4 -79.3 33.5 167 167 167
27.3 -79.8 33.7 167 167 167
28.1 -79.8 33.7 168 168 168
28.7 -79.5 33.5 168 168 168
29.6 -79.6 33.6 168 168 168
30.3 -79.5 33.5 170 172 172
31.1 -79.6 33.6 170 172 172
32.0 -79.8 33.7 170 172 172
32.8 -79.8 33.7 170 172 172
33.4 -79.3 33.5 170 172 172
34.6 -80.5 34.0 168 168 168
34.8 -79.1 33.4 170 172 172
35.2 -78.2 33.0 168 168 168
36.7 -79.9 33.7 170 172 172
37.5 -79.8 33.7 170 172 172
38.1 -79.5 33.5 168 168 168
38.7 -79.1 33.4 166 166 166
39.7 -79.6 33.6 173 175 175
40.6 -79.8 33.7 170 172 172
41.2 -79.5 33.5 170 172 172
42.4 -80.3 33.9 170 172 172
42.9 -79.6 33.6 170 172 172
42.9 -78.2 33.0 171 173 173
44.9 -80.5 34.0 171 173 173
45.8 -80.8 34.1 171 173 173
46.2 -80.0 33.8 171 173 173
47.3 -80.5 34.0 171 173 173
48.0 -80.3 33.9 171 173 173
49.5 -81.5 34.4 171 173 173
50.1 -81.2 34.3 171 173 173
50.1 -80.0 33.8 171 173 173
53.3 -83.8 35.4 174 176 176
53.2 -82.4 34.8 171 173 173
54.3 -82.9 35.0 171 173 173
53.0 -79.6 33.6 172 174 174
52.6 -77.8 32.8 172 174 174
28.8 -39.8 16.8 174 176 176
53.5 -71.8 30.3 174 174 174
54.1 -71.7 30.3 174 174 174
56.1 -73.5 31.0 175 175 175
56.0 -72.4 30.6 169 169 169
54.3 -69.3 29.2 175 175 175
77.5 -54.1 22.8 96 99 98
45.1 -29.1 12.3 179 179 179
46.8 -30.0 12.7 200 202 202
45.8 -29.2 12.3 196 196 196
13.5 -76.5 32.6 163 163 163
14.0 -75.0 32.0 165 165 165
14.9 -75.5 32.2 168 168 168
15.4 -74.3 31.7 170 172 172
16.1 -74.3 31.7 170 172 172
16.8 -74.3 31.7 170 172 172
17.6 -74.3 31.7 169 171 170
18.3 -74.3 31.7 169 171 170
19.1 -74.3 31.7 169 171 170
19.8 -74.3 31.7 169 171 170
20.5 -74.3 31.7 169 171 170
21.3 -74.3 31.7 169 171 170
22.0 -74.3 31.7 169 171 170
22.7 -74.3 31.7 169 171 170
23.5 -74.3 31.7 169 171 170
24.2 -74.3 31.7 169 171 170
24.9 -74.3 31.7 169 171 170
25.7 -74.3 31.7 169 171 170
26.5 -74.5 31.7 169 171 170
27.1 -74.2 31.6 170 172 172
27.9 -74.5 31.7 170 172 172
28.6 -74.2 31.6 170 172 172
29.1 -73.7 31.4 170 172 172
30.1 -74.3 31.7 172 174 174
30.9 -74.5 31.7 172 174 174
31.3 -73.7 31.4 172 174 174
32.3 -74.3 31.7 172 174 174
33.2 -74.6 31.8 172 174 174
33.3 -73.4 31.3 170 172 172
34.8 -74.8 31.9 178 178 178
35.4 -74.7 31.8 173 175 175
35.9 -74.1 31.6 170 172 172
36.3 -73.5 31.3 170 172 172
38.0 -75.4 32.1 178 178 178
38.4 -74.7 31.8 173 175 175
38.8 -74.1 31.6 178 178 178
39.7 -74.3 31.7 178 178 178
40.7 -74.8 31.9 178 178 178
40.7 -73.5 31.3 173 175 175
42.2 -75.0 32.0 173 175 175
44.2 -77.1 32.8 178 178 178
43.4 -74.5 31.7 178 178 178
44.2 -74.6 31.8 179 179 179
45.2 -75.0 32.0 179 179 179
46.4 -75.7 32.3 171 173 173
47.7 -76.7 32.7 179 179 179
47.4 -75.0 32.0 174 176 176
51.2 -76.1 32.4 172 174 174
51.1 -74.8 31.9 175 177 177
51.9 -75.0 32.0 172 174 174
28.2 -39.0 16.6 173 175 175
28.5 -38.9 16.6 182 182 182
28.7 -38.7 16.5 177 180 179
55.6 -73.0 31.1 178 181 180
57.6 -74.7 31.8 175 177 177
57.0 -73.0 31.1 175 175 175
54.7 -69.1 29.5 176 179 178
72.5 -49.8 21.2 99 101 101
44.6 -28.5 12.1 157 157 157
44.3 -28.2 12.0 197 200 199
45.2 -28.6 12.2 197 200 199
25.9 -70.1 30.2 172 174 174
26.5 -69.9 30.1 172 174 174
27.3 -70.2 30.2 177 177 177
28.1 -70.3 30.3 177 177 177
30.1 -70.2 30.2 182 182 182
34.4 -70.4 30.3 192 192 192
38.9 -70.9 30.5 195 195 195
38.4 -68.7 29.6 200 200 200
42.4 -70.8 30.5 194 194 194
42.9 -70.4 30.3 194 194 194
44.0 -70.0 30.1 197 197 197
43.9 -68.8 29.6 200 200 200
55.0 -82.1 35.4 200 200 200
53.1 -78.2 33.7 202 202 202
52.0 -75.5 32.5 202 202 202
53.3 -76.3 32.8 202 202 202
27.5 -37.8 16.3 199 199 199
27.7 -37.5 16.1 197 197 197
28.3 -37.7 16.2 197 197 197
28.2 -37.2 16.0 206 206 206
57.4 -73.6 31.7 205 205 205
56.3 -71.3 30.7 202 202 202
54.2 -67.8 29.2 203 203 203
72.5 -49.3 21.2 99 101 101
69.5 -47.0 20.2 96 99 98
44.7 -28.3 12.2 155 155 155
27.2 -60.0 26.1 204 204 204
37.3 -66.1 28.7 200 200 200
35.0 -59.8 26.0 203 203 203
43.1 -67.8 29.5 203 203 203
42.6 -65.9 28.7 203 203 203
42.9 -65.4 28.4 203 203 203
55.2 -81.6 35.5 203 203 203
53.4 -77.8 33.8 204 204 204
51.7 -74.2 32.3 204 204 204
53.1 -75.1 32.7 204 204 204
27.4 -36.7 15.9 206 206 206
27.6 -36.4 15.8 206 206 206
28.0 -36.5 15.9 206 206 206
28.1 -36.2 15.8 205 205 205
55.7 -69.8 30.4 205 205 205
52.7 -65.3 28.4 208 208 208
22.7 -27.8 12.1 206 206 206
22.8 -27.5 12.0 206 206 206
65.5 -43.5 18.9 99 101 101
45.4 -28.4 12.4 180 183 182
21.2 -59.5 26.1 205 205 205
21.8 -59.6 26.2 205 205 205
22.4 -59.6 26.2 204 204 204
23.0 -59.5 26.1 204 204 204
24.2 -59.6 26.2 204 204 204
24.9 -59.6 26.2 204 204 204
25.5 -59.7 26.2 204 204 204
26.2 -59.8 26.3 204 204 204
26.7 -59.6 26.2 204 204 204
27.2 -59.3 26.1 204 204 204
34.7 -59.8 26.3 203 203 203
34.8 -58.8 25.8 203 203 203
39.7 -59.9 26.3 203 203 203
40.1 -59.6 26.2 203 203 203
52.1 -74.1 32.6 204 204 204
53.3 -74.8 32.8 204 204 204
59.5 -82.2 36.1 205 205 205
27.4 -36.4 16.0 206 206 206
27.6 -36.1 15.8 204 204 204
27.8 -35.9 15.8 206 206 206
28.0 -35.7 15.7 207 207 207
55.7 -69.1 30.4 207 207 207
53.0 -65.1 28.6 208 208 208
22.8 -27.6 12.1 206 206 206
45.7 -28.6 12.5 109 109 109
44.8 -27.8 12.2 191 191 191
18.7 -56.8 25.2 205 205 205
20.8 -57.9 25.7 207 207 207
22.1 -58.2 25.8 207 207 207
22.6 -57.9 25.7 207 207 207
22.8 -57.0 25.3 207 207 207
23.8 -57.9 25.7 207 207 207
24.4 -57.8 25.6 207 207 207
26.4 -58.3 25.9 207 207 207
26.4 -57.1 25.4 207 207 207
27.4 -57.9 25.7 204 204 204
27.6 -57.0 25.3 204 204 204
28.0 -56.7 25.2 204 204 204
34.3 -58.5 25.9 206 206 206
34.4 -57.7 25.6 206 206 206
38.2 -58.9 26.1 206 206 206
38.7 -58.8 26.1 206 206 206
39.1 -58.5 25.9 206 206 206
39.4 -57.9 25.7 206 206 206
39.4 -57.1 25.4 203 203 203
53.4 -74.1 32.9 204 204 204
60.5 -82.8 36.7 205 205 205
27.5 -36.1 16.0 206 206 206
27.7 -35.4 15.7 206 206 206
27.8 -35.1 15.6 207 207 207
28.1 -35.0 15.5 207 207 207
53.9 -65.4 29.0 208 208 208
22.7 -27.2 12.1 208 208 208
325.1 -240.8 106.9 125 125 125
276.1 -203.0 90.1 125 125 125
45.3 -28.0 12.4 115 117 116
44.6 -27.4 12.2 191 191 191
14.7 -54.4 24.4 207 207 207
16.5 -54.7 24.5 207 207 207
17.0 -54.6 24.5 207 207 207
18.2 -54.8 24.6 206 206 206
22.1 -54.5 24.4 206 206 206
22.7 -54.7 24.5 206 206 206
23.3 -54.8 24.6 206 206 206
25.1 -54.8 24.6 206 206 206
25.6 -54.7 24.5 206 206 206
26.8 -54.9 24.6 206 206 206
26.9 -53.9 24.2 206 206 206
33.9 -56.2 25.2 206 206 206
33.6 -54.7 24.5 206 206 206
38.3 -56.7 25.4 206 206 206
38.5 -56.1 25.2 206 206 206
38.5 -55.3 24.8 206 206 206
53.9 -74.0 33.2 207 207 207
59.8 -81.0 36.3 207 207 207
61.7 -82.4 36.9 207 207 207
27.5 -35.8 16.0 205 205 205
27.7 -34.6 15.5 206 206 206
27.9 -34.4 15.4 206 206 206
53.9 -64.8 29.1 207 207 207
22.9 -27.1 12.2 207 207 207
22.8 -26.7 12.0 208 208 208
12.8 -53.3 24.2 207 207 207
13.4 -53.2 24.1 206 206 206
14.0 -53.3 24.2 206 206 206
14.5 -53.3 24.2 209 209 209
16.4 -53.9 24.4 209 209 209
16.8 -53.5 24.2 209 209 209
17.3 -53.2 24.1 209 209 209
17.9 -53.2 24.1 209 209 209
18.5 -53.3 24.2 209 209 209
19.0 -53.2 24.1 209 209 209
20.1 -53.2 24.1 209 209 209
21.8 -53.2 24.1 209 209 209
22.4 -53.3 24.2 209 209 209
23.0 -53.4 24.2 209 209 209
25.2 -53.3 24.2 206 206 206
25.8 -53.3 24.2 209 209 209
26.4 -53.4 24.2 206 206 206
26.8 -53.1 24.1 206 206 206
33.0 -53.2 24.1 205 205 205
36.1 -53.7 24.3 205 205 205
37.8 -55.3 25.1 205 205 205
37.9 -54.6 24.7 205 205 205
38.3 -54.4 24.6 205 205 205
38.7 -54.1 24.5 206 206 206
54.4 -73.9 33.5 206 206 206
55.7 -74.7 33.8 207 207 207
61.7 -81.5 36.9 207 207 207
27.8 -34.8 15.8 205 205 205
27.7 -34.2 15.5 205 205 205
27.9 -34.0 15.4 206 206 206
28.3 -34.1 15.4 206 206 206
22.8 -26.4 12.0 207 207 207
-29.0 -22.7 10.4 46 45 43
-28.8 -22.7 10.4 46 45 43
-28.6 -22.7 10.4 42 42 42
-28.3 -22.7 10.4 42 42 42
-24.7 -22.7 10.4 41 41 41
-24.4 -22.7 10.4 36 36 36
-22.8 -22.7 10.4 52 53 51
-21.1 -22.7 10.4 102 102 102
-19.1 -22.7 10.4 112 112 112
-18.0 -22.8 10.4 112 112 112
-17.2 -22.7 10.4 117 119 118
-15.0 -22.7 10.4 127 127 127
-10.4 -23.7 10.8 139 139 139
12.8 -52.6 24.1 206 206 206
13.4 -52.6 24.1 209 209 209
13.9 -52.6 24.1 209 209 209
14.5 -52.6 24.1 209 209 209
16.2 -52.8 24.2 208 208 208
16.8 -52.8 24.2 208 208 208
17.3 -52.7 24.1 208 208 208
17.8 -52.6 24.1 208 208 208
18.3 -52.4 24.0 208 208 208
19.0 -52.7 24.1 208 208 208
19.6 -52.8 24.2 208 208 208
20.1 -52.7 24.1 208 208 208
20.7 -52.7 24.1 208 208 208
21.3 -52.8 24.2 208 208 208
21.8 -52.8 24.2 208 208 208
24.7 -52.9 24.2 208 208 208
25.2 -52.7 24.1 208 208 208
25.7 -52.7 24.1 208 208 208
26.3 -52.7 24.1 205 205 205
26.7 -52.5 24.0 205 205 205
27.4 -52.6 24.1 202 202 202
32.8 -53.2 24.4 211 211 211
33.0 -52.7 24.1 208 208 208
35.3 -52.7 24.1 208 208 208
35.8 -52.7 24.1 208 208 208
36.7 -53.1 24.3 208 208 208
37.3 -53.2 24.3 205 205 205
37.8 -53.1 24.3 202 202 202
38.3 -53.0 24.3 205 205 205
59.2 -78.5 36.0 206 206 206
62.0 -81.0 37.1 206 206 206
27.8 -34.9 16.0 207 207 207
28.0 -34.7 15.9 205 205 205
27.7 -33.8 15.5 205 205 205
27.8 -33.5 15.4 205 205 205
28.4 -33.8 15.5 205 205 205
22.9 -26.2 12.0 206 206 206
-29.4 -22.6 10.4 46 46 44
-29.2 -22.6 10.5 46 46 44
-29.0 -22.6 10.5 46 46 44
-28.7 -22.6 10.5 46 46 44
-28.5 -22.6 10.5 46 46 44
-28.2 -22.6 10.5 46 46 44
-28.0 -22.6 10.5 46 46 44
-27.8 -22.6 10.5 46 46 44
-27.5 -22.6 10.5 46 45 43
-27.3 -22.6 10.5 46 45 43
-27.0 -22.6 10.5 46 45 43
-26.8 -22.6 10.5 46 45 43
-26.5 -22.6 10.5 46 45 43
-26.3 -22.6 10.5 47 48 47
-26.1 -22.6 10.5 46 45 43
-25.8 -22.6 10.5 42 43 42
-25.6 -22.6 10.5 42 43 42
-25.3 -22.6 10.5 42 43 42
-25.1 -22.6 10.5 42 42 42
-24.8 -22.6 10.5 40 40 40
-24.6 -22.6 10.5 36 37 36
-24.3 -22.6 10.5 36 37 36
-24.1 -22.6 10.5 36 37 36
-23.9 -22.6 10.5 39 39 39
-23.6 -22.6 10.5 39 39 39
-23.4 -22.6 10.5 39 39 39
-23.1 -22.6 10.5 39 39 39
-22.9 -22.6 10.5 47 47 47
-22.6 -22.6 10.5 45 44 43
-22.4 -22.6 10.5 45 44 43
-22.2 -22.6 10.5 51 51 51
-21.9 -22.6 10.5 57 57 57
-21.7 -22.6 10.5 73 73 73
-21.4 -22.6 10.5 84 86 86
-21.2 -22.6 10.5 92 92 92
-20.9 -22.6 10.5 94 94 94
-20.7 -22.6 10.4 96 99 98
-20.4 -22.6 10.5 101 101 101
-20.2 -22.6 10.5 105 105 105
-20.0 -22.6 10.5 104 104 104
-19.8 -22.6 10.5 106 106 106
-19.5 -22.6 10.5 107 109 109
-19.2 -22.6 10.5 106 108 108
-19.0 -22.6 10.5 106 108 108
-18.8 -22.6 10.5 106 108 108
-18.5 -22.6 10.5 108 110 110
-18.3 -22.7 10.5 108 110 110
-18.0 -22.6 10.5 112 112 112
-17.8 -22.6 10.5 112 112 112
-17.6 -22.6 10.5 113 114 113
-17.3 -22.6 10.5 113 114 113
-17.1 -22.6 10.5 115 115 115
-16.8 -22.6 10.5 117 117 117
-16.5 -22.6 10.4 117 119 118
-16.3 -22.6 10.4 117 119 118
-16.0 -22.5 10.4 117 119 118
-15.4 -22.6 10.5 122 122 122
-15.1 -22.6 10.5 124 124 124
-14.8 -22.6 10.4 124 124 124
-14.6 -22.6 10.5 124 124 124
-14.3 -22.5 10.4 125 125 125
-14.1 -22.6 10.5 125 125 125
-13.9 -22.6 10.4 129 129 129
-13.5 -22.4 10.4 129 129 129
-10.6 -23.4 10.9 134 137 136
-10.4 -23.5 10.9 132 135 134
-8.5 -22.6 10.5 138 138 138
-8.3 -22.6 10.4 138 140 139
-8.0 -22.5 10.4 137 139 138
-7.8 -22.6 10.5 134 137 136
-7.6 -22.6 10.5 132 135 134
-7.3 -22.6 10.5 136 136 136
-7.1 -22.6 10.4 139 139 139
-6.8 -22.6 10.5 141 143 142
-6.6 -22.6 10.5 145 145 144
-6.4 -22.6 10.5 141 141 141
-6.1 -22.6 10.5 148 148 148
-5.9 -22.6 10.5 152 152 152
-5.6 -22.6 10.5 155 158 157
-5.4 -22.6 10.5 159 159 159
-5.1 -22.6 10.5 162 162 162
-4.9 -22.6 10.5 163 163 163
-4.7 -22.6 10.5 162 162 162
-4.4 -22.6 10.5 161 164 163
-4.2 -22.6 10.5 160 163 162
-3.9 -22.6 10.5 158 161 160
-3.7 -22.6 10.5 160 163 162
-3.4 -22.6 10.5 162 162 162
-3.2 -22.6 10.5 162 162 162
-3.0 -22.6 10.5 165 165 165
-2.2 -22.6 10.5 167 167 167
-2.0 -22.6 10.5 167 167 167
-1.7 -22.6 10.5 170 171 170
-1.5 -22.6 10.5 171 173 173
-1.2 -22.6 10.5 171 173 173
-1.0 -22.6 10.5 171 173 173
-0.8 -22.6 10.5 171 173 173
-0.5 -22.6 10.5 171 173 173
-0.3 -22.6 10.5 171 173 173
-0.0 -22.6 10.5 173 175 175
0.2 -22.6 10.5 178 178 178
0.5 -22.6 10.5 177 177 177
0.7 -22.6 10.4 177 177 177
2.4 -22.6 10.5 182 182 182
2.6 -22.6 10.5 182 182 182
2.9 -22.6 10.5 181 181 181
3.1 -22.6 10.5 184 184 184
3.4 -22.6 10.5 184 184 184
3.6 -22.6 10.5 184 184 184
3.9 -22.6 10.5 184 184 184
4.1 -22.6 10.5 184 184 184
8.2 -22.6 10.5 208 208 208
8.5 -22.6 10.5 208 208 208
8.7 -22.6 10.5 208 208 208
9.0 -22.6 10.5 208 208 208
9.2 -22.6 10.5 208 208 208
9.5 -22.6 10.5 208 208 208
9.7 -22.6 10.5 208 208 208
9.9 -22.6 10.5 208 208 208
10.2 -22.6 10.5 208 208 208
10.4 -22.6 10.5 208 208 208
10.7 -22.6 10.5 208 208 208
10.9 -22.6 10.5 208 208 208
35.0 -51.0 23.6 207 207 207
36.9 -52.1 24.1 210 210 210
37.5 -52.1 24.1 207 207 207
37.6 -51.5 23.9 205 205 205
50.9 -68.7 31.8 205 205 205
53.6 -71.3 33.0 205 205 205
54.9 -71.9 33.3 205 205 205
62.1 -80.3 37.2 206 206 206
63.8 -81.4 37.7 206 206 206
28.0 -34.3 15.9 207 207 207
27.7 -33.4 15.5 204 204 204
27.7 -33.1 15.3 205 205 205
28.2 -33.2 15.4 205 205 205
-30.7 -23.3 10.9 47 46 45
-30.8 -23.5 11.0 47 46 45
-30.5 -23.5 11.0 47 46 45
-30.2 -23.5 11.0 48 48 48
-30.0 -23.5 11.0 51 51 51
-29.7 -23.5 11.0 51 51 51
-29.5 -23.5 11.0 50 50 50
-29.2 -23.5 11.0 48 48 48
-29.0 -23.5 11.0 46 46 44
-28.7 -23.5 11.0 46 46 44
-28.5 -23.5 11.0 46 46 44
-28.3 -23.6 11.1 46 46 44
-28.0 -23.6 11.1 46 46 44
-27.8 -23.6 11.1 46 46 44
-27.4 -23.5 11.0 46 46 44
-27.2 -23.5 11.0 43 43 43
-26.9 -23.5 11.0 42 43 42
-26.5 -23.6 11.1 41 41 41
-26.2 -23.5 11.0 41 41 41
-25.9 -23.5 11.0 37 38 37
-25.7 -23.6 11.1 40 40 40
-25.2 -23.6 11.1 40 40 40
-24.9 -23.6 11.0 40 40 40
-24.6 -23.6 11.0 40 40 40
-24.4 -23.6 11.0 40 40 40
-23.2 -23.6 11.1 46 45 43
-22.9 -23.6 11.0 47 48 47
-22.6 -23.6 11.0 47 48 47
-21.8 -23.6 11.0 85 87 87
-21.5 -23.5 11.0 91 91 91
-21.3 -23.5 11.0 86 88 88
-21.1 -23.6 11.0 96 99 98
-20.8 -23.5 11.0 106 106 106
-20.6 -23.6 11.0 105 105 105
-20.3 -23.6 11.1 105 105 105
-20.0 -23.5 11.0 107 107 107
-19.8 -23.6 11.0 108 110 110
-19.5 -23.5 11.0 107 109 109
-19.3 -23.6 11.0 107 109 109
-18.8 -23.6 11.0 107 109 109
-18.3 -23.7 11.1 109 111 111
-18.0 -23.6 11.0 112 112 112
-16.5 -23.6 11.1 118 118 118
-16.1 -23.5 11.0 118 120 119
-15.6 -23.5 11.0 120 122 121
-10.7 -23.4 11.0 130 130 130
-10.5 -23.4 11.0 132 132 132
-10.3 -23.6 11.1 131 134 133
37.6 -52.5 24.6 206 206 206
37.7 -51.8 24.3 207 207 207
38.1 -51.6 24.1 204 204 204
50.1 -66.9 31.3 204 204 204
52.4 -69.0 32.3 205 205 205
54.4 -70.6 33.0 205 205 205
62.1 -79.4 37.2 205 205 205
63.3 -79.9 37.4 205 205 205
63.3 -78.8 36.9 206 206 206
27.9 -33.9 15.8 206 206 206
27.7 -33.1 15.5 206 206 206
27.7 -32.7 15.3 207 207 207
27.8 -32.4 15.2 204 204 204
-32.4 -24.5 11.6 47 46 45
-32.1 -24.5 11.6 47 46 45
-31.8 -24.5 11.6 49 49 49
-31.6 -24.5 11.6 51 51 51
-31.3 -24.5 11.6 51 51 51
-31.0 -24.5 11.6 51 51 51
-30.7 -24.5 11.6 49 49 49
-27.5 -24.5 11.6 43 43 43
-27.2 -24.5 11.6 42 42 42
-26.5 -24.5 11.6 41 41 41
-26.2 -24.5 11.6 41 41 41
-25.6 -24.5 11.6 41 41 41
-21.1 -24.6 11.6 98 100 100
-20.6 -24.3 11.5 103 103 103
-18.6 -24.1 11.4 108 110 110
-10.6 -24.1 11.4 131 133 132
-10.5 -24.5 11.6 131 133 132
-11.5 -29.0 13.7 138 137 136
-11.2 -29.0 13.7 139 139 139
8.6 -24.5 11.6 207 207 207
10.6 -28.4 13.4 207 207 207
10.9 -28.4 13.4 207 207 207
11.2 -28.5 13.5 210 210 210
12.6 -28.7 13.6 207 207 207
13.0 -28.9 13.7 207 207 207
15.7 -28.6 13.5 206 206 206
16.2 -28.5 13.5 206 206 206
18.1 -28.4 13.5 206 206 206
18.5 -28.5 13.5 206 206 206
38.4 -53.0 25.1 206 206 206
38.2 -51.9 24.6 206 206 206
38.7 -51.8 24.5 206 206 206
50.0 -66.0 31.2 207 207 207
53.6 -68.8 32.6 204 204 204
63.7 -80.6 38.1 207 207 207
64.7 -80.8 38.2 205 205 205
65.0 -80.0 37.8 205 205 205
28.0 -33.6 15.9 206 206 206
27.8 -32.9 15.6 206 206 206
27.8 -32.5 15.4 206 206 206
29.0 -33.0 15.6 204 204 204
-11.6 -28.9 13.8 134 137 136
-11.2 -28.7 13.7 136 135 134
10.0 -28.1 13.4 209 209 209
10.5 -27.9 13.3 209 209 209
10.8 -27.9 13.3 206 206 206
11.2 -28.0 13.4 209 209 209
11.5 -28.0 13.4 209 209 209
12.1 -28.1 13.4 206 206 206
12.9 -28.4 13.6 203 203 203
13.1 -28.0 13.4 206 206 206
13.4 -28.1 13.4 206 206 206
13.7 -28.0 13.4 206 206 206
14.0 -28.1 13.4 206 206 206
14.3 -28.1 13.4 206 206 206
14.6 -28.1 13.4 206 206 206
15.3 -28.1 13.4 206 206 206
15.6 -28.1 13.5 206 206 206
15.9 -28.1 13.4 206 206 206
16.2 -28.0 13.4 206 206 206
16.5 -28.0 13.4 206 206 206
17.1 -28.0 13.4 206 206 206
17.4 -28.0 13.4 206 206 206
17.8 -28.1 13.4 206 206 206
18.0 -28.0 13.4 206 206 206
18.3 -28.0 13.4 206 206 206
38.7 -52.1 24.9 206 206 206
39.4 -52.2 25.0 206 206 206
39.8 -52.0 24.9 206 206 206
65.8 -82.4 39.4 209 209 209
66.3 -81.9 39.2 207 207 207
27.9 -32.2 15.4 205 205 205
28.4 -32.4 15.5 206 206 206
28.9 -32.5 15.5 206 206 206
109.8 -59.9 28.7 196 199 198
-12.1 -29.1 14.1 111 111 111
-11.7 -28.8 13.9 111 111 111
-11.3 -28.7 13.9 116 118 117
-11.0 -28.7 13.9 134 133 132
10.6 -28.7 13.9 209 209 209
10.9 -28.5 13.8 209 209 209
12.3 -29.8 14.4 209 209 209
12.2 -28.8 13.9 209 209 209
13.4 -30.7 14.8 209 209 209
13.1 -28.5 13.8 205 205 205
13.5 -28.7 13.9 205 205 205
14.5 -28.7 13.9 205 205 205
14.8 -28.7 13.9 205 205 205
16.4 -28.8 13.9 205 205 205
16.6 -28.5 13.8 205 205 205
18.4 -28.8 13.9 205 205 205
18.7 -28.7 13.9 208 208 208
43.5 -55.3 26.8 206 206 206
44.5 -55.9 27.0 206 206 206
69.7 -83.9 40.6 206 206 206
70.9 -84.3 40.8 204 204 204
72.2 -84.6 40.9 204 204 204
27.8 -32.2 15.6 205 205 205
109.5 -59.1 28.6 84 86 86
-9.2 -22.4 11.0 27 28 26
-8.9 -22.4 10.9 34 34 34
12.1 -30.6 15.0 208 208 208
12.6 -30.8 15.1 208 208 208
13.6 -30.7 15.0 208 208 208
13.9 -30.6 15.0 208 208 208
14.3 -30.7 15.0 205 205 205
14.6 -30.7 15.0 202 202 202
14.9 -30.6 15.0 205 205 205
15.3 -30.6 15.0 208 208 208
15.6 -30.6 15.0 208 208 208
20.2 -30.7 15.0 208 208 208
20.5 -30.7 15.0 208 208 208
20.8 -30.6 15.0 207 207 207
43.6 -54.9 26.9 205 205 205
44.3 -54.9 26.9 205 205 205
46.0 -56.3 27.5 206 206 206
46.7 -56.4 27.6 206 206 206
70.0 -83.3 40.8 206 206 206
70.9 -83.3 40.8 206 206 206
72.2 -83.7 40.9 209 209 209
13.2 -31.9 15.8 208 208 208
13.5 -31.9 15.8 208 208 208
13.9 -31.8 15.8 207 207 207
17.0 -24.6 12.2 207 207 207
22.4 -31.5 15.6 207 207 207
44.2 -55.0 27.2 205 205 205
44.8 -55.0 27.2 205 205 205
46.1 -55.7 27.6 205 205 205
46.9 -56.0 27.7 205 205 205
47.3 -55.6 27.5 205 205 205
72.7 -84.4 41.8 206 206 206
73.8 -84.6 41.9 206 206 206
108.2 -57.1 28.2 105 105 105
-9.4 -24.4 12.2 177 180 179
-3.2 -24.3 12.2 199 199 199
-2.9 -24.3 12.2 199 199 199
-2.6 -24.3 12.2 199 199 199
-2.3 -24.3 12.2 196 196 196
-0.3 -24.3 12.2 196 196 196
-0.0 -24.3 12.2 195 195 195
3.4 -24.3 12.2 184 184 184
4.5 -24.3 12.2 181 181 181
9.0 -24.4 12.2 207 207 207
9.9 -24.4 12.2 207 207 207
10.2 -24.4 12.2 207 207 207
10.5 -24.4 12.2 207 207 207
10.7 -24.3 12.2 207 207 207
11.0 -24.3 12.1 207 207 207
11.3 -24.3 12.1 207 207 207
11.6 -24.3 12.2 207 207 207
12.1 -24.3 12.2 204 204 204
12.4 -24.2 12.1 207 207 207
13.0 -24.3 12.2 204 204 204
13.2 -24.3 12.2 207 207 207
14.1 -24.3 12.2 207 207 207
14.4 -24.4 12.2 207 207 207
14.7 -24.4 12.2 207 207 207
15.0 -24.3 12.2 207 207 207
16.1 -24.4 12.2 206 206 206
16.4 -24.4 12.2 206 206 206
16.8 -24.5 12.2 206 206 206
16.9 -24.3 12.2 206 206 206
17.2 -24.3 12.2 206 206 206
17.5 -24.3 12.2 206 206 206
17.8 -24.3 12.2 206 206 206
18.1 -24.3 12.2 206 206 206
45.7 -55.4 27.7 204 204 204
49.4 -59.0 29.6 207 207 207
47.9 -56.5 28.3 205 205 205
74.5 -84.3 42.2 205 205 205
28.1 -31.1 15.5 206 206 206
28.9 -31.1 15.6 203 203 203
28.0 -29.7 14.9 204 204 204
109.8 -57.3 28.7 110 110 110
-20.4 -19.9 10.1 45 45 45
-20.1 -19.8 10.0 47 48 47
-10.2 -23.9 12.1 34 34 34
-9.9 -23.9 12.1 38 38 38
-9.4 -24.1 12.2 182 182 182
-6.0 -24.1 12.2 215 218 217
-5.7 -24.0 12.2 214 216 216
-3.4 -24.1 12.2 205 205 205
-3.2 -24.1 12.2 203 203 203
-2.9 -24.1 12.2 203 203 203
-2.6 -24.0 12.2 199 199 199
-2.3 -24.0 12.2 200 200 200
-0.3 -24.0 12.2 197 197 197
-0.0 -24.0 12.2 198 198 198
3.4 -24.0 12.2 186 186 186
4.5 -24.0 12.2 181 181 181
4.7 -23.8 12.1 181 181 181
7.3 -24.1 12.2 207 207 207
9.0 -24.1 12.2 207 207 207
9.7 -24.3 12.3 207 207 207
9.9 -24.1 12.2 207 207 207
10.2 -24.1 12.2 206 206 206
10.5 -24.1 12.2 206 206 206
10.7 -24.0 12.2 206 206 206
11.0 -24.0 12.1 206 206 206
11.3 -24.0 12.1 206 206 206
11.6 -24.0 12.2 206 206 206
11.8 -24.0 12.2 206 206 206
12.1 -24.1 12.2 206 206 206
12.4 -24.0 12.1 208 208 208
13.0 -24.0 12.2 206 206 206
13.2 -24.0 12.2 206 206 206
14.1 -24.0 12.2 206 206 206
14.4 -24.1 12.2 206 206 206
14.7 -24.1 12.2 206 206 206
15.0 -24.0 12.2 206 206 206
15.2 -24.0 12.1 206 206 206
16.1 -24.1 12.2 206 206 206
16.4 -24.1 12.2 206 206 206
16.7 -24.1 12.2 206 206 206
16.9 -24.0 12.2 206 206 206
17.2 -24.0 12.2 206 206 206
17.5 -24.0 12.2 206 206 206
17.8 -24.0 12.2 206 206 206
18.1 -24.1 12.2 206 206 206
46.2 -55.3 28.0 206 206 206
49.2 -58.2 29.5 204 204 204
48.1 -56.1 28.4 204 204 204
49.1 -56.5 28.6 204 204 204
74.0 -82.8 41.9 205 205 205
75.1 -83.0 42.0 205 205 205
28.2 -30.7 15.6 205 205 205
28.9 -31.1 15.8 205 205 205
28.9 -30.8 15.6 205 205 205
-34.4 -23.9 12.2 58 58 58
-34.5 -24.1 12.4 60 62 60
-34.2 -24.1 12.4 58 58 58
-33.9 -24.1 12.4 58 58 58
-33.6 -24.1 12.4 58 58 58
-33.4 -24.1 12.4 58 59 59
-33.1 -24.2 12.4 58 59 59
-32.8 -24.1 12.4 60 62 60
-32.5 -24.1 12.4 58 59 59
-32.2 -24.1 12.4 58 59 59
-31.9 -24.1 12.4 60 62 60
-31.7 -24.1 12.4 60 62 60
-31.4 -24.1 12.4 58 59 59
-31.1 -24.1 12.4 58 59 59
-30.8 -24.1 12.4 56 56 56
-30.5 -24.1 12.4 54 54 54
-30.2 -24.1 12.4 57 57 57
-30.2 -24.3 12.5 54 54 54
-29.6 -24.3 12.5 49 49 49
-29.0 -24.1 12.3 49 49 49
-28.4 -24.3 12.5 53 52 51
-27.9 -24.1 12.4 49 49 49
-27.7 -24.2 12.4 49 49 49
-27.5 -24.3 12.4 50 50 50
-27.2 -24.2 12.4 50 50 50
-26.7 -24.1 12.3 50 50 50
-26.7 -24.4 12.5 50 50 50
-26.3 -24.3 12.4 50 50 50
-26.0 -24.2 12.4 50 50 50
-25.6 -24.1 12.4 48 48 48
-25.3 -24.1 12.3 46 46 46
-25.0 -24.1 12.4 46 46 46
-24.7 -24.1 12.4 46 46 46
-24.4 -24.1 12.3 46 46 46
-24.1 -24.1 12.3 45 45 45
-23.8 -24.1 12.3 47 47 47
-23.5 -24.0 12.3 45 45 45
-23.3 -24.1 12.3 45 45 45
-23.2 -24.3 12.4 42 43 42
-22.8 -24.2 12.4 43 43 43
-22.3 -24.0 12.3 42 42 40
-22.1 -24.1 12.3 43 43 43
-22.2 -24.4 12.5 40 40 40
-21.7 -24.3 12.4 40 40 40
-21.4 -24.3 12.4 40 40 40
-21.1 -24.2 12.4 43 42 41
-20.7 -24.1 12.4 43 42 41
-20.3 -24.0 12.3 45 45 45
-11.9 -24.3 12.5 29 31 29
-11.2 -24.0 12.3 29 31 29
-11.0 -24.3 12.4 31 30 29
-10.6 -23.9 12.2 33 33 33
-10.2 -23.8 12.2 34 34 34
-10.0 -23.9 12.2 39 39 39
-9.9 -24.2 12.4 159 159 159
-9.5 -24.2 12.4 187 189 189
-9.2 -24.0 12.3 184 187 186
-9.0 -24.3 12.5 190 190 190
-8.7 -24.3 12.4 227 230 229
-8.4 -24.3 12.4 226 229 228
-6.7 -24.4 12.5 224 224 224
-6.4 -24.2 12.4 221 221 221
-6.1 -24.2 12.4 220 220 220
-5.8 -24.2 12.4 217 217 217
-5.5 -24.1 12.3 217 217 217
-3.5 -24.2 12.4 208 208 208
-3.2 -24.2 12.4 208 208 208
-2.9 -24.1 12.3 206 206 206
-2.6 -24.0 12.3 206 206 206
-2.4 -24.3 12.5 204 204 204
-0.9 -24.1 12.4 199 199 199
-0.6 -24.4 12.5 199 199 199
-0.3 -24.3 12.5 199 199 199
-0.0 -24.0 12.3 202 202 202
3.1 -24.0 12.3 188 188 188
3.4 -24.0 12.3 188 188 188
4.0 -24.3 12.5 183 183 183
4.3 -24.4 12.5 183 183 183
4.6 -24.1 12.4 183 183 183
4.8 -24.0 12.3 180 180 180
5.2 -24.4 12.5 180 180 180
6.9 -24.4 12.5 208 208 208
7.1 -24.0 12.3 208 208 208
7.4 -24.1 12.4 208 208 208
7.8 -24.3 12.4 208 208 208
8.0 -24.2 12.4 206 206 206
8.3 -24.1 12.3 206 206 206
8.7 -24.3 12.5 206 206 206
8.9 -24.3 12.4 206 206 206
9.2 -24.2 12.4 206 206 206
9.5 -24.2 12.4 206 206 206
9.8 -24.3 12.5 206 206 206
10.0 -24.1 12.4 206 206 206
10.3 -24.2 12.4 206 206 206
10.6 -24.2 12.4 206 206 206
10.9 -24.1 12.3 206 206 206
11.1 -24.0 12.3 206 206 206
11.4 -24.1 12.3 206 206 206
11.7 -24.1 12.3 206 206 206
12.1 -24.2 12.4 206 206 206
12.4 -24.2 12.4 206 206 206
12.6 -24.0 12.3 206 206 206
12.9 -24.1 12.4 206 206 206
13.2 -24.1 12.3 206 206 206
13.5 -24.1 12.3 206 206 206
13.7 -24.1 12.3 206 206 206
14.0 -24.0 12.3 206 206 206
14.3 -24.1 12.4 206 206 206
14.7 -24.2 12.4 206 206 206
15.0 -24.3 12.4 206 206 206
15.3 -24.3 12.5 206 206 206
15.6 -24.3 12.5 205 205 205
15.7 -24.0 12.3 205 205 205
16.4 -24.3 12.4 205 205 205
16.8 -24.3 12.5 205 205 205
17.0 -24.3 12.4 205 205 205
17.2 -24.1 12.3 205 205 205
17.4 -24.0 12.3 205 205 205
17.7 -24.0 12.3 205 205 205
18.1 -24.2 12.4 205 205 205
18.5 -24.3 12.5 205 205 205
18.8 -24.4 12.5 205 205 205
19.2 -24.4 12.5 205 205 205
46.2 -54.7 28.0 206 206 206
46.8 -54.7 28.0 206 206 206
47.5 -54.8 28.1 203 203 203
48.3 -54.9 28.1 204 204 204
49.1 -55.1 28.2 204 204 204
28.1 -30.3 15.5 204 204 204
-35.3 -24.2 12.5 58 59 59
-35.1 -24.2 12.6 60 62 60
-34.8 -24.2 12.6 60 62 60
-34.5 -24.2 12.6 58 59 59
-34.2 -24.2 12.6 58 59 59
-33.9 -24.2 12.6 58 59 59
-33.6 -24.2 12.6 61 63 61
-33.3 -24.2 12.6 61 63 61
-33.0 -24.2 12.6 59 59 59
-32.7 -24.2 12.6 59 59 59
-32.4 -24.2 12.6 61 63 61
-32.2 -24.2 12.6 59 59 59
-31.9 -24.2 12.6 59 59 59
-31.5 -24.2 12.6 57 57 57
-31.3 -24.2 12.6 57 57 57
-31.0 -24.2 12.6 57 57 57
-30.7 -24.2 12.6 55 55 55
-30.4 -24.2 12.6 53 52 51
-30.1 -24.2 12.6 53 52 51
-29.8 -24.2 12.6 50 50 50
-29.5 -24.2 12.6 50 50 50
-29.3 -24.2 12.6 50 50 50
-29.0 -24.2 12.6 50 50 50
-28.7 -24.2 12.6 54 53 52
-28.4 -24.2 12.6 50 50 50
-28.1 -24.2 12.6 51 51 51
-27.8 -24.2 12.6 51 51 51
-27.5 -24.2 12.6 51 51 51
-27.2 -24.2 12.6 51 51 51
-26.9 -24.2 12.6 51 51 51
-26.6 -24.2 12.6 51 51 51
-26.3 -24.2 12.6 51 51 51
-26.0 -24.2 12.6 51 51 51
-25.7 -24.2 12.6 52 52 52
-25.4 -24.2 12.6 49 49 49
-25.1 -24.2 12.6 47 47 47
-24.9 -24.2 12.6 47 48 47
-24.6 -24.2 12.6 46 46 46
-24.3 -24.2 12.6 47 48 47
-24.0 -24.2 12.6 43 43 43
-23.7 -24.2 12.6 42 42 40
-23.5 -24.3 12.6 44 44 44
-23.1 -24.2 12.6 44 44 44
-22.8 -24.2 12.5 43 42 41
-22.5 -24.2 12.6 43 42 41
-22.3 -24.2 12.6 39 41 41
-22.0 -24.3 12.6 41 41 41
-21.7 -24.2 12.6 41 41 41
-21.4 -24.2 12.6 41 41 41
-21.1 -24.2 12.6 40 42 42
-20.8 -24.2 12.6 40 42 42
-13.5 -24.3 12.6 29 29 29
-13.2 -24.2 12.6 29 29 29
-12.9 -24.2 12.6 28 28 28
-12.6 -24.2 12.6 30 29 29
-12.3 -24.3 12.6 29 29 29
-12.0 -24.2 12.6 30 31 30
-11.7 -24.2 12.5 29 31 29
-11.4 -24.2 12.6 29 31 29
-11.1 -24.2 12.6 29 31 29
-10.8 -24.1 12.5 33 33 33
-10.5 -24.1 12.5 34 34 34
-10.2 -24.2 12.5 44 44 44
-10.0 -24.2 12.5 168 170 169
-9.7 -24.2 12.5 186 188 187
-9.4 -24.2 12.6 183 186 185
-9.1 -24.2 12.6 189 189 189
-8.8 -24.2 12.5 226 229 228
-3.0 -24.2 12.5 208 211 210
-2.7 -24.2 12.6 208 211 210
-2.4 -24.2 12.6 207 207 207
-2.1 -24.2 12.6 207 207 207
-1.8 -24.2 12.6 205 205 205
-1.5 -24.2 12.6 205 205 205
-0.6 -24.2 12.6 200 200 200
-0.3 -24.2 12.6 200 200 200
4.3 -24.2 12.6 184 184 184
4.6 -24.2 12.5 182 182 182
6.1 -24.2 12.6 205 205 205
7.0 -24.2 12.6 208 208 208
8.4 -24.2 12.5 206 206 206
8.7 -24.2 12.6 206 206 206
9.0 -24.2 12.6 206 206 206
9.6 -24.2 12.6 205 205 205
9.9 -24.2 12.6 205 205 205
10.2 -24.2 12.6 205 205 205
10.5 -24.2 12.6 205 205 205
10.8 -24.2 12.5 205 205 205
11.0 -24.2 12.6 205 205 205
11.3 -24.2 12.6 205 205 205
11.6 -24.2 12.6 205 205 205
11.9 -24.2 12.5 205 205 205
12.5 -24.2 12.5 205 205 205
12.8 -24.1 12.5 205 205 205
13.3 -24.1 12.5 205 205 205
13.7 -24.2 12.5 205 205 205
14.0 -24.2 12.5 205 205 205
15.2 -24.2 12.6 205 205 205
15.4 -24.2 12.6 205 205 205
15.7 -24.2 12.6 205 205 205
16.3 -24.3 12.6 205 205 205
16.6 -24.2 12.6 205 205 205
16.9 -24.2 12.6 205 205 205
17.2 -24.2 12.6 205 205 205
17.5 -24.2 12.6 205 205 205
17.7 -24.2 12.5 205 205 205
18.0 -24.2 12.5 205 205 205
18.4 -24.2 12.6 205 205 205
18.6 -24.2 12.5 205 205 205
18.9 -24.2 12.6 205 205 205
19.3 -24.2 12.6 205 205 205
47.5 -54.0 28.0 206 206 206
48.4 -54.4 28.2 206 206 206
49.2 -54.5 28.3 206 206 206
28.2 -30.0 15.6 206 206 206
28.9 -30.4 15.8 204 204 204
29.0 -30.1 15.6 204 204 204
-35.5 -24.0 12.6 59 59 59
-35.3 -24.1 12.6 61 63 61
-35.0 -24.1 12.6 61 63 61
-34.7 -24.1 12.6 61 63 61
-34.4 -24.1 12.6 61 63 61
-34.1 -24.1 12.6 65 65 65
-33.8 -24.1 12.6 62 64 61
-33.5 -24.1 12.6 62 64 61
-33.2 -24.1 12.6 59 59 59
-32.9 -24.1 12.6 60 60 60
-32.6 -24.1 12.6 62 64 61
-32.3 -24.1 12.6 60 60 60
-32.0 -24.1 12.6 60 60 60
-31.7 -24.1 12.6 58 58 58
-31.4 -24.1 12.6 58 58 58
-31.2 -24.1 12.6 58 58 58
-30.9 -24.1 12.6 56 56 56
-30.6 -24.1 12.6 54 53 52
-30.3 -24.1 12.7 51 51 51
-30.0 -24.1 12.7 51 51 51
-29.7 -24.1 12.6 51 51 51
-29.4 -24.1 12.7 55 54 53
-28.9 -24.1 12.7 55 54 53
-28.5 -24.1 12.6 51 51 51
-28.3 -24.1 12.7 52 52 52
-28.0 -24.1 12.7 52 52 52
-27.6 -24.1 12.6 52 52 52
-27.3 -24.1 12.6 52 52 52
-27.1 -24.1 12.7 52 52 52
-26.8 -24.1 12.7 52 52 52
-26.5 -24.1 12.6 52 52 52
-26.1 -24.0 12.6 53 52 52
-25.9 -24.1 12.6 53 52 52
-25.6 -24.0 12.6 51 51 51
-25.3 -24.0 12.6 48 48 48
-23.6 -24.2 12.7 45 45 45
-23.2 -24.0 12.6 45 45 45
-22.6 -24.0 12.6 44 43 42
-22.1 -24.1 12.7 45 44 43
-21.8 -24.1 12.7 45 44 43
-21.5 -24.1 12.6 41 43 42
-21.2 -24.1 12.6 41 43 42
-20.9 -24.0 12.6 41 43 42
-13.0 -24.1 12.7 29 29 29
-12.7 -24.1 12.7 30 29 29
-12.1 -24.1 12.7 28 28 28
-10.8 -22.1 11.6 33 32 30
-11.5 -24.1 12.6 34 34 34
-11.2 -24.1 12.6 27 27 27
-10.8 -23.9 12.5 35 35 35
-10.6 -24.0 12.6 34 34 34
-10.3 -24.0 12.6 45 45 45
-10.0 -24.0 12.6 176 179 178
-9.7 -24.0 12.6 184 187 186
-2.7 -24.1 12.6 209 212 211
17.0 -24.1 12.7 204 204 204
17.2 -24.0 12.6 204 204 204
17.5 -24.0 12.6 204 204 204
18.5 -24.1 12.6 204 204 204
18.7 -24.0 12.6 204 204 204
19.3 -24.1 12.6 204 204 204
46.6 -53.1 27.9 205 205 205
46.8 -52.6 27.6 205 205 205
47.4 -52.6 27.6 205 205 205
48.1 -52.7 27.7 205 205 205
28.2 -29.7 15.6 206 206 206
29.0 -30.1 15.8 203 203 203
29.2 -30.0 15.8 204 204 204
-35.8 -23.9 12.7 62 64 61
-35.5 -24.0 12.7 66 66 66
-35.2 -24.0 12.7 62 64 61
-34.9 -23.9 12.7 62 64 61
-34.6 -23.9 12.7 62 64 61
-34.3 -23.9 12.7 62 64 61
-34.1 -24.0 12.7 62 64 61
-33.7 -23.9 12.7 66 66 66
-33.4 -23.9 12.7 63 64 62
-33.2 -23.9 12.7 63 64 62
-32.9 -23.9 12.7 63 64 62
-32.6 -23.9 12.7 63 64 62
-32.3 -23.9 12.7 61 61 61
-32.0 -23.9 12.7 61 61 61
-31.7 -23.9 12.7 58 59 59
-31.4 -24.0 12.7 58 59 59
-31.1 -24.0 12.7 57 57 57
-30.8 -23.9 12.7 57 57 57
-30.5 -24.0 12.7 55 54 53
-30.2 -24.0 12.7 56 55 54
-30.1 -24.1 12.8 56 55 54
-28.9 -24.1 12.8 56 55 54
-28.4 -24.0 12.7 56 55 54
-28.1 -23.9 12.7 53 52 52
-27.8 -23.9 12.7 53 52 52
-27.5 -23.9 12.7 53 52 52
-27.3 -24.0 12.7 53 52 52
-27.0 -24.0 12.7 53 52 52
-26.7 -24.0 12.7 53 53 53
-25.8 -23.9 12.7 52 52 52
-25.4 -23.9 12.7 49 49 49
-23.7 -24.0 12.7 46 46 46
-23.3 -23.9 12.7 46 46 46
-22.3 -24.0 12.8 46 45 43
-22.0 -24.0 12.7 46 45 43
-21.7 -24.0 12.8 43 43 43
-21.3 -23.9 12.7 42 44 43
-21.0 -23.9 12.7 42 44 43
-13.1 -24.0 12.7 29 29 29
-12.8 -23.9 12.7 30 30 30
-12.6 -24.2 12.8 40 42 42
-12.2 -24.0 12.7 50 50 50
-11.6 -23.9 12.7 53 52 52
-11.3 -23.9 12.7 55 56 54
-11.0 -23.9 12.7 65 67 66
-10.7 -23.9 12.7 36 39 38
-10.4 -23.9 12.7 50 50 50
-10.1 -23.9 12.7 185 185 185
-9.5 -24.0 12.7 182 185 184
-9.2 -24.0 12.7 181 184 183
-3.0 -24.0 12.7 216 216 216
-2.7 -23.9 12.7 212 213 212
-2.4 -24.0 12.7 212 213 212
-2.1 -23.9 12.7 208 211 210
-1.8 -23.9 12.7 208 211 210
9.7 -24.0 12.7 207 207 207
10.0 -24.0 12.7 207 207 207
10.3 -24.0 12.7 207 207 207
10.6 -23.9 12.7 207 207 207
10.9 -23.9 12.7 207 207 207
11.5 -23.9 12.7 207 207 207
11.8 -23.9 12.7 204 204 204
16.9 -24.0 12.8 206 206 206
17.1 -24.0 12.7 204 204 204
17.4 -23.9 12.7 206 206 206
17.7 -23.9 12.7 206 206 206
18.3 -24.0 12.7 204 204 204
18.6 -23.9 12.7 204 204 204
18.9 -23.9 12.7 204 204 204
19.5 -23.9 12.7 204 204 204
46.5 -52.4 27.9 204 204 204
46.7 -51.9 27.6 205 205 205
47.1 -51.7 27.5 205 205 205
47.8 -51.7 27.5 205 205 205
49.5 -51.4 27.3 208 208 208
29.2 -30.0 15.9 205 205 205
-36.5 -24.1 12.9 62 64 61
-36.3 -24.2 13.0 66 66 66
-36.0 -24.2 13.0 63 64 62
-35.7 -24.2 13.0 67 67 67
-35.4 -24.2 13.0 67 67 67
-35.1 -24.2 13.0 67 67 67
-34.8 -24.2 13.0 63 64 62
-34.5 -24.2 13.0 67 67 67
-34.2 -24.2 13.0 67 67 67
-34.0 -24.2 13.0 67 67 67
-33.6 -24.2 13.0 64 65 63
-33.3 -24.1 13.0 64 65 63
-33.0 -24.1 13.0 64 65 63
-32.7 -24.2 13.0 59 59 59
-32.6 -24.3 13.1 64 65 63
-32.1 -24.2 13.0 59 59 59
-31.8 -24.2 13.0 58 58 58
-31.5 -24.2 13.0 58 58 58
-31.2 -24.2 13.0 58 58 58
-30.9 -24.2 13.0 58 58 58
-29.0 -24.1 13.0 57 56 55
-28.7 -24.1 13.0 58 59 59
-28.5 -24.2 13.0 53 53 53
-28.4 -24.4 13.1 53 53 53
-27.9 -24.2 13.0 58 59 59
-27.6 -24.2 13.0 58 59 59
-24.2 -24.1 13.0 49 49 49
-23.9 -24.1 13.0 46 45 43
-23.1 -24.2 13.0 46 46 44
-22.7 -24.1 13.0 43 43 43
-22.3 -24.1 13.0 43 43 43
-22.0 -24.4 13.1 44 44 44
-21.4 -24.0 12.9 43 45 44
-13.8 -24.4 13.2 112 112 112
-13.4 -24.3 13.1 111 113 112
-13.1 -24.3 13.1 77 77 77
-12.9 -24.4 13.1 89 89 89
-12.5 -24.3 13.1 51 51 51
-12.1 -24.1 13.0 49 49 49
-11.4 -23.8 12.8 22 25 23
-11.2 -24.1 13.0 90 90 90
-10.9 -24.1 13.0 22 25 23
-10.5 -23.9 12.9 46 46 46
-10.2 -23.9 12.9 184 187 186
-9.4 -24.2 13.0 180 183 182
-1.8 -24.1 13.0 212 213 212
17.2 -24.2 13.0 206 206 206
17.5 -24.1 13.0 206 206 206
17.7 -24.1 13.0 206 206 206
18.9 -24.0 12.9 206 206 206
19.8 -24.0 12.9 206 206 206
46.8 -51.3 27.6 204 204 204
46.9 -50.7 27.3 204 204 204
47.5 -50.7 27.3 204 204 204
71.9 -75.8 40.8 204 204 204
74.3 -77.3 41.6 205 205 205
49.4 -50.7 27.3 205 205 205
-38.4 -25.0 13.6 63 64 62
-38.0 -25.0 13.6 63 64 62
-37.1 -25.0 13.6 67 67 67
-36.5 -25.0 13.6 67 67 67
-35.5 -25.0 13.6 64 65 63
-32.6 -25.0 13.6 58 59 59
-32.3 -24.9 13.6 58 59 59
-29.9 -25.0 13.6 54 54 54
-29.5 -25.0 13.6 54 54 54
-23.1 -25.0 13.6 45 45 45
-22.5 -24.6 13.4 43 45 45
-14.2 -24.9 13.6 31 31 31
-13.2 -24.7 13.4 22 25 23
-12.7 -24.5 13.3 40 42 42
47.3 -51.2 27.9 203 203 203
47.1 -50.4 27.5 204 204 204
47.6 -50.2 27.3 204 204 204
73.8 -75.8 41.3 204 204 204
76.4 -77.5 42.2 204 204 204
-38.8 -24.9 13.8 64 65 63
-38.6 -25.0 13.8 67 67 67
-38.2 -25.0 13.8 67 67 67
-37.9 -25.0 13.8 64 65 63
-37.6 -25.0 13.8 67 67 67
-37.0 -25.1 13.8 68 68 68
-36.7 -25.1 13.8 68 68 68
-36.3 -25.0 13.8 68 68 68
-35.9 -24.9 13.8 68 68 68
-35.6 -24.9 13.8 68 68 68
-35.3 -25.0 13.8 68 68 68
-35.0 -25.0 13.8 69 69 69
-34.7 -25.0 13.8 66 67 65
-34.4 -25.0 13.8 64 64 64
-34.0 -25.0 13.8 64 64 64
-33.7 -25.0 13.8 61 61 61
-33.4 -25.0 13.8 59 59 59
-33.0 -25.0 13.8 59 59 59
-32.7 -24.9 13.8 59 59 59
-30.6 -25.1 13.8 59 59 57
-30.1 -25.0 13.8 59 59 57
-29.8 -24.9 13.7 55 55 55
-29.4 -24.9 13.7 55 55 55
-29.1 -24.9 13.7 56 56 56
-23.4 -25.0 13.8 44 46 46
-14.4 -24.8 13.7 36 36 34
-13.3 -24.6 13.6 30 29 29
-13.0 -24.6 13.6 135 135 135
-11.5 -24.8 13.7 51 51 49
-11.2 -24.8 13.7 52 52 52
-10.9 -24.9 13.8 182 185 184
-10.6 -24.9 13.7 181 184 183
-10.3 -25.0 13.8 185 185 185
48.3 -51.6 28.5 203 203 203
47.5 -50.1 27.7 203 203 203
47.7 -49.7 27.4 203 203 203
46.3 -47.6 26.3 203 203 203
45.9 -46.6 25.7 203 203 203
123.5 -82.4 45.5 189 189 189
-39.0 -24.8 13.9 68 68 68
-38.7 -24.8 13.9 68 68 68
-38.2 -24.7 13.8 68 68 68
-37.9 -24.7 13.8 68 68 68
-37.6 -24.7 13.8 68 68 68
-37.1 -24.8 13.8 69 69 69
-36.8 -24.8 13.9 69 69 69
-36.4 -24.8 13.9 69 69 69
-34.1 -24.7 13.8 65 65 65
-33.7 -24.7 13.8 65 65 65
-33.1 -24.7 13.8 63 63 63
-30.7 -24.9 13.9 60 59 58
-30.3 -24.7 13.8 60 59 58
-29.2 -24.7 13.8 61 60 59
-11.2 -24.5 13.7 56 56 56
-11.0 -24.7 13.8 182 185 184
-10.5 -24.5 13.7 180 183 182
-10.3 -24.6 13.8 181 184 183
48.8 -51.6 28.8 205 205 205
48.6 -50.6 28.3 205 205 205
47.8 -49.2 27.5 205 205 205
47.2 -47.9 26.8 203 203 203
46.2 -46.2 25.8 206 206 206
48.9 -48.3 27.0 206 206 206
49.3 -48.1 26.9 206 206 206
123.2 -81.1 45.4 189 189 189
-16.0 -17.8 10.1 23 23 23
-13.2 -17.9 10.2 34 34 34
-11.5 -24.2 13.7 49 49 49
-11.2 -24.3 13.7 57 58 56
-11.1 -24.7 14.0 183 186 185
-10.6 -24.4 13.8 179 182 181
-10.3 -24.5 13.9 180 183 182
12.6 -18.1 10.3 204 204 204
50.8 -54.4 30.8 204 204 204
48.7 -50.7 28.7 205 205 205
49.3 -50.7 28.7 205 205 205
48.6 -49.3 27.9 205 205 205
47.6 -47.6 27.0 205 205 205
49.3 -48.0 27.2 205 205 205
49.3 -47.4 26.9 205 205 205
398.0 -260.9 147.8 190 190 190
120.0 -77.3 43.8 189 189 189
728.8 -379.5 215.0 177 177 177
-16.0 -17.6 10.1 25 28 25
-13.2 -17.6 10.1 98 100 100
-10.6 -17.6 10.1 132 135 134
-9.7 -17.7 10.1 36 35 34
-9.4 -17.6 10.1 42 43 42
-9.2 -17.7 10.1 42 42 42
-11.2 -24.5 14.1 180 183 182
-10.8 -24.4 14.0 179 182 181
-10.4 -24.4 14.0 179 182 181
15.4 -18.4 10.6 203 203 203
15.6 -18.3 10.5 203 203 203
51.8 -54.8 31.5 207 207 207
49.6 -51.7 29.7 207 207 207
48.8 -50.2 28.8 204 204 204
49.6 -50.3 28.9 207 207 207
49.1 -49.2 28.2 204 204 204
49.1 -47.2 27.1 205 205 205
49.2 -46.7 26.8 205 205 205
117.5 -74.7 42.9 188 188 188
654.5 -336.2 193.0 177 177 177
500.6 -255.4 146.6 177 177 177
-15.1 -18.0 10.5 87 88 86
-13.2 -17.4 10.1 135 135 135
-9.7 -17.5 10.2 103 105 105
-9.4 -17.4 10.1 72 73 71
-9.3 -17.5 10.2 77 79 78
-11.3 -24.5 14.3 180 183 182
-10.9 -24.3 14.1 178 181 180
12.5 -17.5 10.2 206 206 206
51.7 -53.9 31.4 207 207 207
48.9 -49.6 28.9 207 207 207
50.2 -50.3 29.2 207 207 207
50.0 -49.4 28.7 207 207 207
49.3 -46.8 27.3 209 212 211
49.1 -46.0 26.8 208 208 208
116.5 -73.1 42.5 186 186 186
336.9 -168.5 98.0 177 177 177
263.9 -131.1 76.3 174 174 174
-15.1 -17.8 10.5 30 30 30
-13.2 -17.2 10.1 119 118 117
-9.7 -17.2 10.2 124 127 126
-10.9 -25.5 15.0 179 182 181
51.0 -52.5 31.0 206 206 206
50.6 -51.4 30.3 206 206 206
48.5 -48.6 28.7 206 206 206
50.1 -48.8 28.8 207 207 207
49.8 -47.9 28.2 207 207 207
49.5 -46.3 27.3 207 207 207
49.1 -45.4 26.8 207 207 207
68.2 -33.9 20.0 178 178 178
-19.3 -19.5 11.7 47 49 48
-15.2 -17.7 10.6 24 27 25
-10.9 -24.5 14.6 179 182 181
-10.8 -24.9 14.9 178 178 178
-10.4 -24.8 14.8 175 175 175
51.3 -49.3 29.5 206 206 206
49.6 -45.8 27.4 207 207 207
48.7 -44.4 26.6 204 204 204
68.7 -33.7 20.1 179 179 179
-27.0 -18.0 10.9 71 71 71
-26.7 -18.0 10.9 72 72 72
-26.3 -17.9 10.9 68 70 68
-26.1 -18.0 10.9 72 72 72
-25.9 -18.0 10.9 74 75 73
-25.6 -18.0 10.9 72 72 72
-10.9 -24.9 15.1 178 178 178
-10.5 -24.7 15.0 160 160 160
-5.2 -17.5 10.6 181 181 181
-5.0 -17.6 10.6 184 184 184
-4.0 -17.4 10.6 191 191 191
1.7 -17.5 10.6 191 191 191
1.9 -17.4 10.6 192 192 192
8.6 -17.4 10.6 207 210 209
8.8 -17.4 10.6 207 210 209
9.4 -17.5 10.6 207 210 209
9.6 -17.4 10.6 207 210 209
9.8 -17.5 10.6 206 206 206
10.1 -17.5 10.6 206 206 206
10.3 -17.5 10.6 206 206 206
10.6 -17.5 10.6 206 206 206
11.0 -17.4 10.6 206 206 206
11.3 -17.5 10.6 206 206 206
11.5 -17.4 10.6 206 206 206
11.7 -17.4 10.6 206 206 206
12.6 -16.9 10.3 205 205 205
13.9 -17.6 10.7 205 205 205
14.1 -17.5 10.6 205 205 205
14.2 -17.4 10.6 205 205 205
15.5 -17.4 10.6 205 205 205
16.7 -17.5 10.6 206 209 208
60.3 -57.9 35.1 207 210 209
61.2 -58.0 35.2 207 210 209
49.6 -45.2 27.4 204 204 204
48.9 -44.0 26.7 207 207 207
49.0 -43.6 26.4 207 207 207
49.4 -43.3 26.3 207 207 207
68.8 -33.5 20.3 180 180 180
68.3 -33.0 20.0 180 180 180
57.7 -26.4 16.0 174 174 174
55.9 -25.4 15.4 172 172 172
55.4 -25.1 15.2 164 167 166
-29.5 -19.8 12.2 71 71 71
-11.0 -24.7 15.2 177 177 177
-10.7 -24.9 15.3 156 159 158
-5.5 -17.5 10.7 170 172 172
5.0 -17.4 10.7 206 206 206
9.7 -17.4 10.7 207 210 209
11.6 -17.3 10.7 203 203 203
16.9 -17.5 10.7 206 209 208
64.7 -62.1 38.2 207 210 209
62.7 -59.4 36.5 207 210 209
62.2 -58.1 35.8 207 210 209
62.8 -57.9 35.6 207 210 209
49.5 -43.9 27.0 208 211 210
50.0 -43.7 26.9 208 211 210
50.4 -43.6 26.8 208 211 210
67.9 -32.6 20.0 181 181 181
67.9 -32.3 19.9 181 181 181
56.3 -25.3 15.5 174 174 174
55.8 -24.9 15.3 165 168 167
-28.1 -18.2 11.4 73 74 72
-11.2 -24.9 15.5 179 179 179
65.5 -62.0 38.7 206 209 208
62.5 -57.5 35.9 207 210 209
62.8 -57.1 35.6 207 210 209
64.1 -57.5 35.9 207 210 209
50.9 -43.4 27.1 208 211 210
67.4 -31.6 19.7 179 179 179
56.4 -24.9 15.6 175 175 175
55.8 -24.5 15.3 166 169 168
-32.6 -18.3 11.6 51 51 51
-32.3 -18.3 11.6 57 57 55
-29.3 -18.2 11.6 33 32 30
-29.0 -18.2 11.6 60 60 60
-28.7 -18.2 11.5 112 112 112
-28.3 -18.1 11.5 145 145 144
-28.1 -18.1 11.5 151 153 153
-12.6 -25.9 16.4 186 186 186
63.1 -56.5 35.8 207 210 209
64.5 -57.0 36.1 207 210 209
65.5 -57.1 36.2 207 210 209
51.5 -43.3 27.4 208 211 210
270.7 -224.6 142.2 208 211 210
236.6 -194.0 122.8 207 207 207
252.6 -204.6 129.6 207 207 207
62.4 -28.3 17.9 183 183 183
67.7 -30.3 19.2 183 183 183
64.8 -28.8 18.2 183 183 183
62.9 -27.8 17.6 183 183 183
-28.9 -18.1 11.6 19 23 20
-28.6 -18.0 11.6 17 17 17
-12.8 -26.7 17.1 186 186 186
-11.9 -26.5 17.0 169 169 169
-11.6 -26.6 17.1 166 166 166
70.2 -62.0 39.8 206 209 208
70.1 -61.1 39.2 206 209 208
52.5 -44.0 28.3 207 210 209
315.8 -258.2 165.9 208 211 210
261.5 -208.8 134.2 208 211 210
60.6 -27.1 17.4 184 184 184
66.6 -29.4 18.9 184 184 184
61.8 -26.9 17.3 181 181 181
61.0 -26.4 17.0 179 179 179
63.8 -27.1 17.4 157 160 159
-12.9 -26.6 17.3 186 186 186
-12.6 -26.6 17.4 182 182 182
-12.2 -26.6 17.4 174 176 176
76.4 -67.3 43.9 205 205 205
74.5 -64.7 42.2 205 205 205
74.4 -63.9 41.7 206 209 208
295.0 -232.0 151.3 208 211 210
101.7 -79.0 51.5 208 211 210
96.1 -73.8 48.1 208 211 210
88.2 -67.0 43.7 208 211 210
60.0 -26.4 17.2 185 185 185
61.8 -26.5 17.3 185 185 185
61.5 -26.2 17.1 182 182 182
63.2 -26.6 17.3 170 172 172
63.2 -26.4 17.2 163 163 163
-14.4 -31.0 20.5 175 177 177
-13.8 -30.8 20.4 172 172 172
78.8 -66.6 44.1 206 209 208
279.4 -216.3 143.3 207 210 209
102.5 -78.4 52.0 208 211 210
94.9 -71.7 47.5 208 211 210
60.6 -26.2 17.4 183 183 183
70.0 -30.1 20.0 186 186 186
68.4 -29.3 19.4 186 186 186
64.6 -27.5 18.2 183 183 183
62.2 -26.2 17.4 186 186 186
63.8 -26.4 17.5 170 171 170
63.6 -26.2 17.3 159 159 159
63.9 -26.1 17.3 155 155 155
-14.2 -30.2 20.3 176 179 178
-13.7 -30.0 20.2 175 175 175
89.2 -73.2 49.3 208 211 210
122.5 -93.4 62.8 207 210 209
110.4 -83.2 56.0 207 210 209
97.8 -72.8 49.0 206 206 206
44.9 -29.3 19.7 190 190 190
70.1 -29.7 20.0 184 184 184
68.5 -28.8 19.4 188 188 188
64.8 -27.1 18.2 184 184 184
62.4 -25.9 17.4 184 184 184
64.2 -26.2 17.6 169 169 169
63.6 -25.7 17.3 161 161 161
63.8 -25.7 17.3 155 155 155
-14.0 -29.3 20.0 177 177 177
-13.6 -29.4 20.1 176 176 176
-13.1 -29.3 20.0 175 175 175
94.7 -77.5 53.0 208 211 210
92.8 -75.0 51.3 208 211 210
45.6 -29.6 20.2 190 190 190
45.2 -29.0 19.8 193 193 193
45.6 -29.0 19.8 193 193 193
66.5 -27.6 18.8 185 185 185
65.8 -27.1 18.5 185 185 185
64.3 -25.8 17.6 168 168 168
63.3 -25.2 17.2 160 160 160
63.4 -25.1 17.2 155 155 155
-13.9 -28.6 19.9 178 178 178
-13.5 -28.7 19.9 178 178 178
-12.9 -28.5 19.8 136 138 137
82.7 -65.8 45.7 208 211 210
79.9 -62.8 43.6 208 211 210
45.6 -28.9 20.0 196 196 196
45.8 -28.7 19.9 193 193 193
65.3 -26.6 18.5 188 188 188
67.1 -26.6 18.5 175 175 175
64.5 -25.5 17.7 164 167 166
63.2 -24.8 17.2 158 158 158
63.2 -24.6 17.1 155 155 155
62.8 -24.3 16.9 151 153 153
-14.1 -28.4 20.1 169 171 170
-13.6 -28.5 20.1 162 162 162
95.2 -75.5 53.3 207 210 209
88.7 -69.4 49.0 207 210 209
46.2 -28.8 20.3 193 193 193
46.1 -28.4 20.1 193 193 193
65.1 -26.1 18.4 189 189 189
64.5 -25.1 17.7 165 168 167
63.5 -24.5 17.3 160 160 160
63.3 -24.3 17.1 153 155 155
62.8 -23.9 16.9 150 150 150
-14.9 -15.6 11.2 88 89 87
-14.7 -15.7 11.3 50 50 50
-14.5 -28.9 20.7 181 181 181
-14.8 -31.6 22.7 167 167 167
96.8 -75.5 54.2 207 210 209
65.3 -25.8 18.5 193 193 193
72.0 -28.0 20.1 190 190 190
68.9 -26.5 19.0 173 173 173
63.4 -24.1 17.3 154 156 156
63.3 -23.9 17.1 154 156 156
63.0 -23.6 17.0 152 152 152
63.3 -23.6 16.9 141 143 142
-32.6 -15.9 11.6 128 128 128
-32.3 -15.9 11.6 110 112 111
-32.1 -15.9 11.6 20 23 21
-31.8 -15.9 11.6 19 23 20
-31.5 -15.9 11.6 19 23 20
-28.8 -15.9 11.6 165 165 165
-28.6 -15.9 11.6 139 139 139
-28.3 -15.9 11.6 131 134 133
-28.0 -15.9 11.6 166 166 166
-27.7 -15.9 11.6 197 200 199
-27.5 -15.9 11.6 108 110 110
-27.2 -15.9 11.6 46 46 46
-27.0 -15.9 11.6 63 63 63
-26.6 -15.8 11.5 46 46 46
-26.3 -15.8 11.5 58 59 59
-26.1 -15.8 11.5 112 112 112
-25.9 -15.9 11.6 100 100 100
-25.6 -15.9 11.6 102 101 99
-25.3 -15.9 11.6 107 109 109
-25.1 -15.9 11.6 127 127 127
-24.6 -15.9 11.6 29 31 29
-24.1 -15.8 11.5 39 39 39
-23.9 -15.8 11.5 53 53 53
-23.7 -15.8 11.6 58 58 56
-23.2 -15.9 11.6 64 64 64
-22.9 -15.9 11.6 64 64 64
-22.7 -15.9 11.6 62 62 62
-22.4 -15.9 11.6 62 62 62
-22.0 -15.8 11.5 60 60 60
-21.7 -15.8 11.5 52 52 52
-21.3 -15.9 11.6 56 56 56
-21.0 -15.9 11.6 73 73 73
-20.8 -15.9 11.6 88 90 89
-20.5 -15.9 11.6 183 183 183
-20.2 -15.8 11.6 216 219 218
-19.9 -15.8 11.6 225 225 225
-19.6 -15.8 11.5 222 222 222
-19.3 -15.8 11.5 221 221 221
-19.2 -15.9 11.6 224 224 224
-18.9 -15.9 11.6 221 221 221
-18.6 -15.9 11.6 221 221 221
-18.4 -15.9 11.6 214 216 216
-18.1 -15.9 11.6 204 204 204
-17.8 -15.9 11.6 2 7 3
-17.5 -15.9 11.6 69 69 69
-17.3 -15.9 11.6 25 25 25
-17.0 -15.9 11.6 29 29 29
-16.7 -15.8 11.5 27 27 27
-16.4 -15.8 11.5 27 27 27
-15.7 -15.9 11.6 31 32 30
-15.3 -15.8 11.5 128 130 129
-14.1 -15.9 11.6 78 80 78
-13.7 -15.8 11.6 37 38 37
-13.5 -15.8 11.6 71 71 71
-12.1 -15.9 11.6 29 30 28
-11.9 -15.8 11.6 32 31 30
-11.6 -15.8 11.5 34 34 34
-11.3 -15.9 11.6 47 48 47
-11.1 -15.9 11.6 134 134 134
-10.8 -15.8 11.6 90 89 88
-10.5 -15.9 11.6 136 135 134
-15.0 -31.3 22.9 179 179 179
96.0 -73.6 53.7 207 210 209
115.5 -85.3 62.2 207 210 209
116.2 -84.7 61.8 208 211 210
34.3 -20.2 14.8 197 197 197
66.0 -25.6 18.7 191 191 191
72.7 -27.9 20.3 188 188 188
71.6 -27.3 19.9 178 181 180
68.7 -26.0 19.0 169 171 170
64.0 -23.9 17.4 155 155 155
63.6 -23.6 17.2 155 155 155
63.5 -23.4 17.1 138 140 139
63.8 -23.4 17.1 135 135 135
-32.4 -15.6 11.6 44 44 44
-32.1 -15.6 11.6 26 26 26
-31.8 -15.6 11.6 20 23 21
-31.6 -15.6 11.6 19 23 20
-28.6 -15.6 11.6 176 179 178
-28.3 -15.6 11.6 208 211 210
-28.1 -15.6 11.6 147 147 147
-27.7 -15.6 11.6 111 111 111
-27.5 -15.6 11.6 64 65 63
-27.3 -15.6 11.6 65 66 64
-27.0 -15.6 11.6 44 43 42
-26.6 -15.6 11.5 26 26 26
-26.3 -15.5 11.5 77 79 77
-26.1 -15.6 11.6 92 92 92
-25.9 -15.6 11.6 84 84 84
-25.4 -15.6 11.6 110 110 110
-25.1 -15.6 11.6 107 109 109
-24.6 -15.6 11.6 13 13 13
-24.2 -15.5 11.5 18 22 19
-23.2 -15.6 11.6 58 58 56
-22.7 -15.6 11.6 59 59 59
-22.4 -15.6 11.6 59 59 59
-22.0 -15.5 11.5 55 55 55
-21.7 -15.5 11.5 47 47 47
-21.0 -15.6 11.6 64 64 64
-20.8 -15.6 11.6 64 64 64
-20.5 -15.6 11.6 165 168 167
-20.2 -15.6 11.6 168 168 168
-19.9 -15.6 11.6 177 177 177
-19.5 -15.5 11.5 183 183 183
-19.3 -15.5 11.5 188 188 188
-19.2 -15.6 11.6 203 203 203
-18.9 -15.6 11.6 206 209 208
-18.6 -15.6 11.6 212 213 212
-18.4 -15.6 11.6 206 209 208
-18.1 -15.6 11.6 197 197 197
-17.8 -15.6 11.6 8 9 8
-17.5 -15.6 11.6 68 68 68
-17.3 -15.6 11.6 65 65 65
-17.0 -15.6 11.6 78 80 78
-16.7 -15.5 11.5 115 117 116
-16.2 -15.9 11.8 42 44 43
-15.7 -15.6 11.6 42 44 43
-15.3 -15.5 11.5 117 119 118
-13.7 -15.6 11.6 42 43 42
-13.5 -15.6 11.6 29 31 29
-12.2 -15.6 11.6 27 27 27
-11.9 -15.6 11.6 27 29 27
-11.6 -15.5 11.5 37 38 37
-11.3 -15.6 11.6 113 114 113
-10.8 -15.6 11.6 101 101 101
-10.5 -15.6 11.6 139 141 140
-15.2 -31.4 23.3 177 177 177
96.6 -72.8 54.0 210 210 210
114.8 -83.3 61.8 207 210 209
103.1 -73.8 54.8 207 210 209
192.5 -136.2 101.2 208 211 210
164.1 -114.8 85.2 208 211 210
34.2 -19.7 14.6 200 200 200
34.7 -19.7 14.7 200 200 200
34.5 -19.4 14.4 198 198 198
34.7 -19.4 14.4 188 188 188
35.1 -19.4 14.4 188 188 188
72.7 -27.4 20.3 189 189 189
72.0 -26.9 20.0 175 175 175
69.4 -25.8 19.1 166 166 166
64.5 -23.4 17.4 134 137 136
-27.4 -15.5 11.7 46 46 46
-27.2 -15.5 11.7 26 26 26
-26.0 -14.9 11.3 18 22 19
-24.8 -14.5 11.0 120 120 120
-24.5 -14.5 11.0 134 136 135
-16.6 -32.4 24.5 175 177 177
-15.8 -32.0 24.2 173 175 175
-15.7 -33.0 24.9 147 147 147
-15.2 -33.1 25.0 22 22 22
142.7 -103.0 77.8 207 210 209
136.6 -97.4 73.6 211 211 211
138.9 -97.8 73.9 207 210 209
202.2 -140.7 106.3 207 210 209
164.9 -113.3 85.6 208 211 210
153.7 -104.3 78.8 212 213 212
223.3 -144.7 109.3 209 212 211
174.4 -111.8 84.4 209 212 211
84.6 -31.1 23.5 168 168 168
85.3 -31.2 23.6 168 168 168
-30.8 -14.2 10.9 78 80 78
-30.5 -14.2 10.9 67 67 67
-30.3 -14.2 10.9 53 52 52
-30.0 -14.2 10.9 20 23 21
-29.8 -14.2 10.9 28 28 28
-29.5 -14.2 10.9 17 17 17
-27.2 -14.2 10.9 169 171 170
-27.0 -14.2 10.9 183 183 183
-26.7 -14.2 10.9 174 174 174
-26.4 -14.2 10.9 185 185 185
-26.2 -14.2 10.9 100 100 100
-25.9 -14.2 10.9 53 53 53
-25.7 -14.2 10.9 29 31 29
-25.5 -14.2 10.9 18 22 19
-25.2 -14.2 10.9 18 22 19
-24.9 -14.2 10.9 25 25 25
-24.7 -14.2 10.9 18 22 19
-24.4 -14.2 10.9 29 31 29
-24.1 -14.2 10.9 53 53 53
-23.9 -14.2 10.9 86 88 88
-18.7 -14.3 11.0 197 197 197
-18.3 -14.2 10.9 201 203 203
-18.1 -14.2 10.9 206 209 208
-17.8 -14.2 10.9 216 216 216
-17.6 -14.2 10.9 205 208 207
-16.1 -32.1 24.7 90 90 90
-16.1 -33.2 25.5 90 92 91
-15.5 -33.3 25.6 56 56 56
-14.7 -32.7 25.2 40 40 40
275.6 -190.7 146.6 207 210 209
209.3 -143.0 110.0 207 210 209
176.0 -118.8 91.4 208 211 210
164.6 -109.8 84.4 212 213 212
269.0 -173.2 133.2 209 212 211
224.6 -143.0 110.0 209 212 211
198.4 -124.9 96.0 209 212 211
85.7 -30.9 23.8 154 156 156
87.1 -31.3 24.0 138 140 139
-27.0 -14.4 11.3 36 37 36
-26.7 -14.4 11.3 48 48 48
-26.4 -14.3 11.2 33 32 30
-26.0 -14.4 11.3 20 23 21
-24.5 -14.0 11.0 188 188 188
-19.0 -14.2 11.2 57 57 55
-18.4 -14.0 11.0 33 32 30
-24.7 -21.2 16.6 42 42 42
-17.1 -32.3 25.3 134 137 136
-16.0 -31.3 24.5 89 89 89
-16.0 -32.4 25.4 89 89 89
-15.3 -32.2 25.2 57 58 56
-14.3 -31.4 24.6 115 114 114
215.4 -150.1 117.5 210 210 210
326.2 -221.6 173.5 211 211 211
220.8 -148.2 116.1 211 211 211
401.7 -257.0 201.2 212 213 212
298.4 -188.7 147.8 214 214 214
247.7 -154.9 121.3 209 212 211
88.1 -31.5 24.6 142 144 143
87.6 -31.1 24.3 134 134 134
89.0 -31.4 24.6 131 134 133
70.0 -23.6 18.5 127 127 127
-25.9 -14.1 11.3 19 23 20
-19.1 -14.1 11.3 57 56 55
-26.0 -21.5 17.1 53 52 52
-24.8 -20.9 16.6 40 42 42
-23.7 -20.6 16.4 67 67 67
-16.7 -32.1 25.6 91 94 93
-16.2 -32.1 25.6 89 91 90
-15.5 -32.1 25.6 78 78 78
-14.2 -30.4 24.3 112 112 112
15.2 -12.6 10.1 209 209 209
428.4 -285.8 227.9 211 211 211
90.0 -31.5 25.2 105 105 105
88.8 -30.9 24.7 112 112 112
90.3 -31.2 24.9 115 117 116
91.1 -31.3 25.0 120 120 120
72.0 -24.0 19.1 121 121 121
71.7 -23.7 18.9 124 124 124
70.6 -23.2 18.5 126 126 126
-27.5 -14.5 11.8 17 21 18
-25.9 -21.1 17.1 15 19 16
-24.9 -20.5 16.7 118 118 118
-16.5 -32.2 26.1 89 91 90
15.2 -12.4 10.1 209 209 209
90.9 -30.9 25.1 111 111 111
91.8 -31.0 25.2 112 112 112
92.4 -31.0 25.2 112 112 112
71.3 -23.2 18.8 116 118 117
71.0 -22.9 18.6 128 128 128
-27.8 -14.3 11.8 24 24 24
-27.4 -14.2 11.8 17 21 18
-23.1 -19.0 15.7 27 29 27
-13.7 -13.9 11.5 115 115 115
50.5 -16.7 13.9 108 108 108
50.9 -16.8 13.9 108 108 108
72.0 -23.0 19.0 90 90 90
-27.5 -13.6 11.5 33 32 30
-27.2 -13.6 11.5 27 27 27
-26.8 -13.6 11.5 19 23 20
-26.4 -13.6 11.5 17 21 18
-25.6 -13.6 11.5 148 150 150
-18.8 -12.6 10.6 56 55 54
-13.7 -13.6 11.5 17 21 18
50.4 -16.4 13.8 105 105 105
50.9 -16.4 13.9 102 104 104
-18.8 -12.4 10.6 57 56 55
-21.9 -38.9 33.5 98 100 100
-21.5 -39.6 34.1 95 95 95
50.5 -16.1 13.8 100 100 100
-22.8 -39.6 34.8 98 100 100
-22.0 -39.8 35.0 94 94 94
-22.3 -41.8 36.7 85 85 85
50.6 -15.8 13.9 92 95 94
51.0 -15.8 13.9 79 81 80
-25.7 -42.3 38.0 124 124 124
-23.8 -40.6 36.4 97 97 97
-22.8 -40.4 36.2 95 98 97
-22.6 -41.4 37.2 103 105 105
50.6 -15.5 13.9 79 81 80
50.9 -15.5 13.9 79 81 80
51.4 -15.5 13.9 71 71 71
-23.6 -42.4 38.8 113 112 111
-23.8 -44.4 40.7 26 25 24
-22.8 -44.4 40.7 22 22 22
50.6 -15.1 13.9 109 109 109
51.4 -15.2 13.9 75 76 76
52.0 -15.3 14.0 77 77 77
52.1 -15.2 13.9 77 77 77
-26.6 -45.1 42.2 101 101 101
-24.8 -43.5 40.8 112 112 112
-24.7 -45.1 42.2 23 24 23
-23.7 -45.1 42.2 27 27 27
51.9 -14.9 14.0 78 78 78
52.2 -14.9 14.0 78 78 78
-18.9 -11.6 11.1 75 75 75
-27.7 -49.5 47.4 26 25 24
-27.9 -52.0 49.8 20 20 20
-27.1 -52.7 50.4 30 30 30
52.1 -14.6 13.9 78 78 78
51.6 -14.3 13.7 79 82 81
-18.9 -11.4 11.1 53 53 53
-18.5 -11.3 11.0 63 63 63
-30.4 -53.1 52.0 30 29 29
-18.8 -11.1 11.1 170 172 172
-18.5 -11.0 11.0 66 67 65
-37.0 -68.7 68.8 146 146 146
17.5 -10.9 10.9 216 216 216
-38.5 -64.3 65.9 45 45 45
-36.7 -66.6 68.3 152 152 152
218.7 -368.9 378.3 224 224 224
199.6 -323.6 331.9 224 224 224
220.8 -113.1 116.1 220 220 220
563.5 -275.3 282.3 220 220 220
-38.8 -63.2 66.4 27 27 27
-37.5 -63.6 66.8 20 20 20
-36.2 -64.1 67.3 165 165 165
-34.0 -62.9 66.1 181 181 181
218.7 -375.1 394.1 224 224 224
218.7 -360.1 378.3 224 224 224
203.1 -321.5 337.8 224 224 224
15.4 -9.7 10.2 217 220 219
16.8 -9.7 10.2 218 221 220
219.5 -109.8 115.3 219 219 219
531.8 -253.6 266.4 220 220 220
462.2 -134.4 141.2 101 101 101
-49.3 -78.4 84.4 22 22 22
-39.9 -66.0 71.1 10 10 10
-37.2 -64.3 69.3 156 156 156
218.7 -365.9 394.1 224 224 224
210.3 -337.8 363.8 224 224 224
15.1 -9.3 10.0 217 220 219
16.5 -9.3 10.0 218 221 220
211.8 -103.3 111.3 217 217 217
547.2 -254.5 274.1 220 220 220
-52.9 -81.9 90.5 26 25 24
227.8 -356.7 394.1 224 226 226
226.4 -107.7 119.0 220 223 222
-79.4 -130.3 147.8 170 172 172
-76.0 -130.3 147.8 180 180 180
218.7 -333.7 378.3 224 226 226
206.8 -303.3 343.9 223 225 225
229.3 -106.3 120.5 220 223 222
-116.0 -164.1 191.1 90 92 91
-89.9 -137.7 160.3 26 25 24
-89.2 -142.5 165.9 169 171 170
-86.9 -145.0 168.9 179 179 179
198.8 -295.3 343.9 223 225 225
222.2 -100.3 116.8 220 223 222
-149.2 -205.3 245.7 73 75 75
-134.7 -192.7 230.7 26 25 24
-111.7 -166.4 199.1 22 22 22
-121.1 -188.1 225.2 173 173 173
-121.6 -197.6 236.5 179 179 179
210.3 -303.9 363.8 223 225 225
209.3 -91.9 110.0 220 223 222
-220.9 -295.5 363.8 65 65 63
-184.1 -256.1 315.3 26 25 24
-145.3 -210.5 259.1 22 22 22
-145.3 -219.5 270.2 163 163 163
-194.6 -307.3 378.3 178 181 180
227.8 -320.1 394.1 223 225 225
23.9 -11.4 14.1 219 222 221
28.6 -13.4 16.4 219 222 221
85.1 -31.4 38.6 198 198 198
82.7 -30.1 37.1 200 200 200
-37.8 -13.9 17.7 146 146 146
-37.2 -13.8 17.5 155 155 155
-36.0 -13.5 17.2 128 128 128
-34.4 -13.6 17.2 49 49 49
-221.0 -310.9 394.1 31 33 33
-175.3 -257.3 326.1 172 172 172
218.7 -298.5 378.3 223 225 225
23.8 -11.1 14.0 222 224 224
23.5 -10.8 13.7 219 222 221
28.6 -13.0 16.4 219 222 221
86.2 -30.8 39.1 198 198 198
81.5 -28.9 36.6 198 198 198
-38.7 -13.4 17.5 75 77 75
-38.0 -13.3 17.4 83 83 83
-38.1 -13.5 17.6 87 88 86
-37.5 -13.4 17.5 146 148 148
-36.9 -13.3 17.4 143 143 142
-36.0 -13.2 17.2 122 124 123
-35.6 -13.3 17.4 147 147 147
-35.0 -13.2 17.3 108 108 106
-34.5 -13.2 17.2 59 59 59
-188.3 -268.2 350.3 173 173 173
214.4 -284.0 370.9 223 225 225
23.4 -10.7 14.0 222 224 224
23.7 -10.7 14.0 219 222 221
23.6 -10.5 13.8 219 222 221
28.7 -12.6 16.5 219 222 221
87.3 -30.3 39.6 197 197 197
81.4 -28.0 36.5 198 198 198
-38.5 -12.9 17.4 75 77 75
-37.9 -12.9 17.3 81 81 81
-38.1 -13.1 17.6 78 78 78
-37.3 -12.9 17.4 152 152 152
-36.8 -12.9 17.4 144 144 144
-35.4 -12.6 16.9 115 117 116
-34.7 -12.7 17.1 105 105 105
-34.1 -12.6 17.0 64 63 61
23.8 -10.5 14.1 219 222 221
28.9 -12.3 16.6 219 222 221
81.4 -27.1 36.5 197 197 197
-38.4 -12.9 17.9 79 79 79
-30.6 -10.8 15.0 50 50 50
-30.2 -10.7 14.9 59 59 59
173.6 -216.0 300.3 223 225 225
98.1 -31.4 43.6 197 197 197
-30.6 -10.3 14.8 55 55 55
-30.2 -10.3 14.7 55 55 55
-29.8 -10.2 14.7 53 53 53
-8.8 -7.9 11.4 190 190 190
168.2 -202.6 291.0 223 225 225
531.8 -185.4 266.4 220 223 222
98.1 -30.3 43.6 196 196 196
-31.1 -9.9 14.7 58 58 58
-30.9 -9.9 14.7 43 45 45
-30.4 -9.9 14.7 50 50 50
-30.1 -9.9 14.7 60 60 60
-29.7 -9.9 14.7 44 46 46
206.3 -240.1 356.9 223 225 225
547.2 -184.4 274.1 220 223 222
98.8 -29.5 43.9 195 195 195
-95.6 -28.4 43.7 25 25 25
-93.9 -28.2 43.4 25 25 25
-91.2 -27.7 42.6 29 29 29
218.7 -245.7 378.3 224 224 224
75.7 -13.0 20.0 91 91 91
74.3 -12.7 19.5 100 102 102
-95.8 -27.4 43.8 33 34 32
-93.7 -27.1 43.3 29 29 29
-90.8 -26.6 42.4 22 25 23
214.4 -232.3 370.9 224 224 224
74.0 -12.2 19.4 112 112 112
-90.4 -25.5 42.2 58 58 58
214.4 -223.7 370.9 224 224 224
23.9 -8.5 14.1 220 223 222
23.2 -8.1 13.5 220 223 222
73.7 -11.7 19.4 108 108 108
227.8 -228.5 394.1 225 225 225
23.6 -8.1 14.0 222 224 224
23.4 -7.9 13.6 222 224 224
73.6 -11.2 19.3 101 103 103
227.8 -219.3 394.1 222 222 222
23.6 -7.8 13.9 225 227 227
23.5 -7.6 13.7 222 224 224
1195.9 -195.0 350.3 59 59 57
74.5 -10.9 19.6 101 103 103
214.4 -197.8 370.9 225 225 225
23.7 -7.5 14.0 223 225 225
23.3 -7.2 13.5 221 221 221
75.4 -10.6 19.9 88 90 89
74.5 -10.4 19.6 101 103 103
206.3 -182.1 356.9 222 222 222
23.7 -7.1 14.0 222 222 222
23.4 -7.0 13.6 222 222 222
74.1 -9.9 19.4 117 119 118
210.3 -177.1 363.8 224 224 224
23.4 -6.6 13.6 222 222 222
22.6 -5.9 12.2 224 224 224
189.0 -38.9 79.8 204 204 204
214.4 -172.0 370.9 224 224 224
22.4 -5.6 12.1 221 221 221
218.7 -166.6 378.3 222 222 222
22.4 -5.3 12.1 225 225 225
23.4 -2.4 11.3 218 221 220
23.4 -2.1 11.3 218 221 220
23.5 -2.1 11.3 160 163 162
15.8 -1.7 10.5 218 221 220
20.6 -1.7 10.6 225 225 225
23.5 -1.8 11.4 219 222 221
15.8 -1.4 10.5 218 218 218
16.0 -1.4 10.5 219 222 221
20.6 -1.5 10.6 227 227 227
20.7 -1.4 10.5 227 227 227
21.4 -1.4 10.5 225 225 225
15.8 -1.2 10.5 216 216 216
16.0 -1.2 10.5 218 218 218
20.5 -1.2 10.5 220 223 222
20.7 -1.2 10.5 226 226 226
21.0 -1.2 10.5 226 226 226
21.4 -1.2 10.5 220 223 222
15.8 -1.0 10.5 214 214 214
16.0 -1.0 10.5 216 216 216
16.4 -1.0 10.5 216 216 216
16.6 -1.0 10.5 219 219 219
20.6 -1.0 10.6 222 224 224
20.7 -1.0 10.5 222 224 224
21.0 -1.0 10.5 222 224 224
21.3 -1.0 10.6 220 223 222
21.4 -1.0 10.5 219 222 221
20.8 -0.7 10.8 222 224 224
20.7 -0.7 10.6 222 224 224
20.8 -0.7 10.5 222 224 224
21.8 -0.7 10.8 222 224 224
21.5 -0.7 10.5 222 224 224
23.3 -0.8 11.3 222 224 224
20.7 -0.5 10.8 223 225 225
20.7 -0.5 10.6 223 225 225
21.8 -0.5 10.8 223 225 225
23.5 -0.5 11.4 220 223 222
20.7 -0.2 10.8 223 225 225
20.8 -0.2 10.7 223 225 225
21.8 -0.2 10.8 223 225 225
20.8 0.0 10.8 224 226 226
20.8 0.0 10.6 224 226 226
21.8 0.0 10.8 224 226 226
20.9 0.3 10.9 223 225 225
21.8 0.3 10.9 223 225 225
21.9 0.3 10.9 223 225 225
72.9 0.5 19.4 89 89 89
72.8 0.5 19.2 90 90 90
21.8 0.5 10.9 223 225 225
73.8 0.9 19.6 86 86 86
73.0 0.9 19.3 89 89 89
79.0 1.5 21.3 87 87 87
75.5 1.4 20.1 87 87 87
73.8 1.4 19.5 87 87 87
27.8 1.4 15.4 222 222 222
28.1 1.4 15.3 226 226 226
79.7 2.0 21.4 88 88 88
78.9 2.0 21.1 87 86 84
78.2 2.0 20.8 92 92 92
27.5 1.8 15.4 221 221 221
27.8 1.8 15.4 224 224 224
28.1 1.8 15.3 224 224 224
28.5 1.8 15.4 224 224 224
22.0 1.4 11.7 224 224 224
24.4 1.5 12.4 226 226 226
24.8 1.5 12.4 226 226 226
81.0 2.6 21.9 88 88 88
80.6 2.5 21.7 87 86 84
79.5 2.5 21.3 87 86 84
82.4 2.6 21.8 87 86 84
21.6 1.8 12.6 215 215 215
23.0 1.8 13.0 219 219 219
23.2 1.8 13.0 222 222 222
28.1 2.2 15.3 222 222 222
24.8 1.8 12.6 224 224 224
25.2 1.8 12.6 226 226 226
25.2 1.8 12.5 224 224 224
82.2 3.1 22.3 87 87 85
81.5 3.1 21.9 87 87 85
79.7 3.0 21.3 87 87 85
83.0 3.1 21.9 95 95 95
21.6 2.1 12.7 205 205 205
21.8 2.1 12.7 216 216 216
22.8 2.2 13.1 216 216 216
22.9 2.1 13.0 220 220 220
23.0 2.1 12.9 224 224 224
24.8 2.1 12.7 225 225 225
25.0 2.1 12.7 225 225 225
25.3 2.1 12.7 225 225 225
25.4 2.1 12.6 225 225 225
80.3 3.5 21.5 88 88 86
84.1 3.6 22.2 99 101 101
82.2 3.5 21.6 108 108 108
21.3 2.4 12.8 202 202 202
21.5 2.4 12.7 204 204 204
21.8 2.4 12.7 214 214 214
22.2 2.4 12.8 217 217 217
22.9 2.4 13.0 219 219 219
23.0 2.4 12.9 221 221 221
25.0 2.4 12.7 224 224 224
25.3 2.4 12.7 226 226 226
25.4 2.4 12.6 224 224 224
83.9 4.1 22.2 104 104 104
82.8 4.1 21.7 78 78 78
21.3 2.5 12.1 220 220 220
21.3 2.8 12.1 221 221 221
180.9 15.8 48.4 87 87 87
178.4 15.5 47.4 98 98 98
181.8 15.7 48.0 134 134 134
198.4 18.8 53.7 91 90 89
194.7 18.3 52.4 87 87 87
199.2 18.6 53.3 87 87 87
204.2 20.6 55.3 88 88 88
206.7 22.2 56.0 85 85 85
-4.6 5.8 10.3 226 226 226
-4.3 5.7 10.2 209 212 211
21.4 6.3 11.3 215 215 215
-781.8 251.7 386.0 168 168 168
-679.0 257.0 394.1 110 110 110
-578.2 257.0 394.1 159 159 159
-546.3 246.7 378.3 168 167 166
-440.8 241.9 370.9 46 46 46
-380.4 241.9 370.9 128 128 128
-189.8 143.4 220.0 164 167 166
-163.8 127.2 195.0 157 157 157
11.4 64.0 83.3 196 199 198
-254.8 71.6 90.5 48 47 46
-274.5 84.1 106.3 137 139 138
-273.6 84.6 106.9 166 166 166
-272.6 85.1 107.5 165 165 165
-267.6 85.1 107.5 146 146 146
-262.1 84.1 106.3 139 141 140
-232.5 76.8 97.0 141 143 142
-221.2 75.2 95.1 180 183 182
-244.9 84.1 106.3 164 164 164
-226.4 84.6 106.9 138 138 138
-225.2 85.1 107.5 144 144 144
-195.7 75.6 95.5 143 145 144
-216.4 84.6 106.9 143 145 144
-212.7 84.1 106.3 143 143 142
-187.8 76.0 96.0 129 132 131
-205.3 84.1 106.3 128 128 128
-201.7 83.6 105.7 122 122 122
-200.4 84.1 106.3 119 121 120
-197.7 85.1 107.5 117 119 118
-194.1 84.6 106.9 115 115 115
-173.9 76.8 97.0 110 110 110
-189.1 84.6 106.9 110 110 110
-180.2 85.1 107.5 100 100 100
-174.2 84.6 106.9 95 95 95
-170.8 84.1 106.3 88 88 86
-145.4 74.9 94.6 191 191 191
-160.0 83.6 105.7 188 188 188
-137.1 76.4 96.5 169 169 169
-135.6 76.8 97.0 164 164 164
-147.7 85.1 107.5 162 162 162
-145.2 85.1 107.5 166 166 166
-142.7 85.1 107.5 123 123 123
-140.2 85.1 107.5 78 80 78
-137.7 85.1 107.5 79 82 81
-135.2 85.1 107.5 68 70 68
-132.7 85.1 107.5 62 62 62
-130.2 85.1 107.5 56 56 56
-127.7 85.1 107.5 35 35 35
-125.2 85.1 107.5 28 28 28
-122.7 85.1 107.5 58 58 58
-120.2 85.1 107.5 11 11 11
-117.7 85.1 107.5 13 17 14
-112.7 85.1 107.5 89 91 90
-110.2 85.1 107.5 155 155 155
-107.7 85.1 107.5 157 160 159
-105.2 85.1 107.5 153 155 155
-91.9 78.0 98.5 186 188 187
-83.1 72.3 91.4 178 178 178
-75.3 73.0 92.3 137 137 137
-2.5 76.8 97.0 202 202 202
-0.3 75.6 95.5 204 204 204
2.2 84.1 106.3 203 203 203
12.9 74.9 94.6 197 200 199
53.0 67.1 84.8 85 86 84
-364.8 105.6 129.6 29 29 29
-380.0 110.9 136.1 30 29 29
-376.8 110.9 136.1 30 30 30
-373.7 110.9 136.1 25 27 25
-370.5 110.9 136.1 28 28 26
-364.2 110.9 136.1 81 81 81
-361.0 110.9 136.1 89 89 87
-357.8 110.9 136.1 111 113 112
-354.7 110.9 136.1 147 147 147
-351.5 110.9 136.1 139 141 140
-348.3 110.9 136.1 153 155 155
-330.9 106.3 130.5 169 169 169
-325.6 105.6 129.6 140 142 141
-336.4 110.1 135.1 139 139 139
-333.3 110.1 135.1 141 143 142
-318.8 106.3 130.5 144 146 146
-317.9 107.0 131.4 149 149 149
-310.6 105.6 129.6 150 150 150
-309.7 106.3 130.5 157 160 159
-306.6 106.3 130.5 157 160 159
-301.5 105.6 129.6 176 176 176
-309.1 109.3 134.2 172 172 172
-306.0 109.3 134.2 152 152 152
-307.2 110.9 136.1 139 139 139
-310.8 113.3 139.1 131 134 133
-290.5 107.0 131.4 137 137 137
-287.4 107.0 131.4 138 138 138
-284.3 107.0 131.4 140 140 140
-279.4 106.3 130.5 143 143 142
-288.2 110.9 136.1 145 147 147
-273.3 106.3 130.5 145 147 147
-270.3 106.3 130.5 145 147 147
-267.2 106.3 130.5 145 145 144
-262.4 105.6 129.6 136 136 136
-263.0 107.0 131.4 131 133 132
-261.7 107.8 132.3 130 130 130
-256.9 107.0 131.4 125 125 125
-252.1 106.3 130.5 123 123 123
-245.6 104.8 128.7 120 122 121
-256.6 110.9 136.1 118 120 119
-244.7 107.0 131.4 118 120 119
-238.3 105.6 129.6 116 116 116
-243.6 109.3 134.2 115 114 114
-235.5 107.0 131.4 104 106 106
-232.4 107.0 131.4 98 97 95
-229.4 107.0 131.4 88 88 86
-226.3 107.0 131.4 98 97 95
-226.4 108.5 133.2 102 102 102
-218.7 106.3 130.5 98 97 95
-226.6 111.7 137.1 100 99 97
-214.1 107.0 131.4 125 125 125
-209.6 106.3 130.5 131 133 132
-208.0 107.0 131.4 133 133 133
-210.8 110.1 135.1 140 142 141
-197.8 104.8 128.7 153 155 155
-194.8 104.8 128.7 169 169 169
-202.8 110.9 136.1 160 160 160
-191.4 106.3 130.5 155 158 157
-189.7 107.0 131.4 168 168 168
-186.6 107.0 131.4 175 175 175
-181.1 105.6 129.6 151 151 151
-178.1 105.6 129.6 104 104 104
-175.0 105.6 129.6 77 77 77
-172.0 105.6 129.6 77 77 77
-169.0 105.6 129.6 77 77 77
-166.0 105.6 129.6 74 74 74
-163.0 105.6 129.6 63 63 63
-160.0 105.6 129.6 58 59 57
-157.0 105.6 129.6 57 58 56
-154.0 105.6 129.6 34 34 34
-151.0 105.6 129.6 36 38 37
-147.9 105.6 129.6 61 63 61
-144.9 105.6 129.6 14 14 14
-141.9 105.6 129.6 13 17 14
-138.9 105.6 129.6 47 47 47
-135.9 105.6 129.6 120 120 120
-132.9 105.6 129.6 160 163 162
-129.9 105.6 129.6 151 151 151
-126.9 105.6 129.6 148 148 146
-122.2 104.1 127.8 79 78 77
-116.8 102.1 125.3 187 189 189
-120.3 107.8 132.3 181 181 181
-118.1 108.5 133.2 159 159 159
-115.8 109.3 134.2 146 148 148
-109.5 106.3 130.5 143 145 144
-100.3 100.1 122.8 141 143 142
-107.9 110.9 136.1 141 143 142
-99.5 108.5 133.2 151 153 153
-98.5 110.9 136.1 91 91 91
-95.3 110.9 136.1 89 89 89
-92.1 110.9 136.1 83 85 85
-89.0 110.9 136.1 81 84 83
-85.8 110.9 136.1 90 92 91
-82.1 110.1 135.1 85 85 85
-79.5 110.9 136.1 145 147 147
-73.7 107.0 131.4 150 150 148
-73.2 110.9 136.1 153 153 153
-70.0 110.9 136.1 153 153 153
-63.6 105.6 129.6 151 151 151
-63.7 110.9 136.1 167 167 167
-60.5 110.9 136.1 151 153 153
-57.3 110.9 136.1 41 40 38
-54.2 110.9 136.1 134 136 135
-51.0 110.9 136.1 158 161 160
-47.8 110.9 136.1 157 160 159
-44.7 110.9 136.1 169 169 169
-41.5 110.9 136.1 170 171 170
-35.2 110.9 136.1 170 171 170
-32.0 110.9 136.1 196 196 196
-28.9 110.9 136.1 204 207 206
-13.1 111.7 137.1 215 215 215
-10.0 111.7 137.1 204 207 206
-6.6 109.3 134.2 203 203 203
-3.3 104.1 127.8 205 208 207
-0.4 104.8 128.7 206 209 208
2.8 111.7 137.1 206 206 206
6.0 111.7 137.1 207 207 207
9.0 109.3 134.2 207 207 207
12.0 108.5 133.2 204 204 204
14.5 104.1 127.8 198 201 200
17.1 102.1 125.3 197 200 199
84.9 115.0 141.2 87 88 86
92.3 120.4 147.8 87 88 86
92.1 115.9 142.2 86 87 85
90.7 110.1 135.1 80 82 79
-471.3 140.3 167.4 30 30 30
-539.0 161.8 193.0 28 28 26
-534.5 161.8 193.0 30 29 29
-530.0 161.8 193.0 26 27 25
-525.5 161.8 193.0 26 27 25
-521.0 161.8 193.0 27 28 26
-516.5 161.8 193.0 64 65 63
-512.0 161.8 193.0 16 16 16
-507.5 161.8 193.0 11 16 13
-493.0 158.5 189.2 19 19 19
-493.5 160.1 191.1 21 24 22
-499.2 163.4 195.0 67 69 67
-494.6 163.4 195.0 100 102 102
-485.1 161.8 193.0 98 98 98
-471.0 158.5 189.2 156 156 156
-481.1 163.4 195.0 141 141 141
-481.5 165.1 197.0 154 154 154
-467.2 161.8 193.0 164 164 164
-462.7 161.8 193.0 158 161 160
-467.7 165.1 197.0 174 174 174
-458.4 163.4 195.0 170 171 170
-440.2 158.5 189.2 180 179 177
-427.3 155.4 185.5 174 174 174
-427.2 157.0 187.3 160 160 160
-440.3 163.4 195.0 134 137 136
-440.3 165.1 197.0 127 127 127
-431.2 163.4 195.0 159 159 159
-449.8 172.3 205.6 162 162 162
-422.1 163.4 195.0 147 149 149
-409.2 160.1 191.1 155 155 155
-413.1 163.4 195.0 147 147 147
-412.8 165.1 197.0 144 144 144
-404.0 163.4 195.0 132 135 134
-391.4 160.1 191.1 127 127 127
-390.9 161.8 193.0 128 128 128
-394.5 165.1 197.0 124 124 124
-370.6 157.0 187.3 124 124 124
-345.7 148.2 176.8 119 121 120
-341.6 148.2 176.8 119 121 120
-361.1 158.5 189.2 119 121 120
-371.6 165.1 197.0 119 121 120
-355.9 160.1 191.1 118 120 119
-341.1 155.4 185.5 107 109 109
-357.8 165.1 197.0 98 97 95
-339.1 158.5 189.2 88 88 86
-312.8 148.2 176.8 90 90 90
-351.4 168.6 201.2 89 89 89
-362.1 176.1 210.2 93 93 93
-342.0 168.6 201.2 100 99 97
-320.3 160.1 191.1 131 134 133
-325.8 165.1 197.0 139 139 139
-317.9 163.4 195.0 142 144 143
-319.9 166.9 199.1 141 143 142
-312.0 165.1 197.0 164 164 164
-304.3 163.4 195.0 173 173 173
-296.7 161.8 193.0 173 173 173
-286.3 158.5 189.2 176 175 173
-284.8 160.1 191.1 176 175 173
-289.1 165.1 197.0 175 174 172
-287.5 166.9 199.1 111 111 111
-274.2 161.8 193.0 77 77 77
-269.8 161.8 193.0 75 76 76
-265.3 161.8 193.0 75 76 76
-260.8 161.8 193.0 75 76 76
-256.3 161.8 193.0 74 74 74
-251.8 161.8 193.0 74 74 74
-247.3 161.8 193.0 70 72 69
-242.8 161.8 193.0 66 67 65
-238.4 161.8 193.0 58 59 57
-233.9 161.8 193.0 52 54 52
-229.4 161.8 193.0 33 33 33
-224.9 161.8 193.0 39 38 37
-220.4 161.8 193.0 58 59 59
-215.9 161.8 193.0 14 14 14
-211.4 161.8 193.0 13 17 14
-206.9 161.8 193.0 64 64 64
-202.5 161.8 193.0 166 166 166
-198.0 161.8 193.0 147 147 147
-193.5 161.8 193.0 152 152 152
-183.4 157.0 187.3 156 159 158
-198.7 174.2 207.9 83 85 85
-189.0 174.2 207.9 179 178 176
-178.3 168.6 201.2 160 160 160
-160.0 155.4 185.5 156 156 156
-139.3 139.1 165.9 145 147 147
-166.2 186.5 222.5 144 144 144
-141.1 163.4 195.0 97 100 99
-136.6 163.4 195.0 90 90 90
-126.2 161.8 193.0 79 82 81
-124.2 165.1 197.0 90 90 90
-118.4 163.4 195.0 99 99 99
-111.6 160.1 191.1 153 152 150
-115.3 172.3 205.6 152 152 152
-103.8 161.8 193.0 153 153 153
-99.3 161.8 193.0 153 153 153
-94.8 161.8 193.0 141 143 142
-90.3 161.8 193.0 163 163 163
-85.8 161.8 193.0 146 146 146
-81.3 161.8 193.0 42 43 42
-76.8 161.8 193.0 115 115 115
-72.4 161.8 193.0 128 131 130
-67.9 161.8 193.0 135 135 135
-63.4 161.8 193.0 154 154 154
-58.9 161.8 193.0 159 159 159
-49.9 161.8 193.0 146 148 148
-45.4 161.8 193.0 198 198 198
-40.9 161.8 193.0 199 199 199
-18.5 161.8 193.0 202 202 202
-9.6 163.4 195.0 215 215 215
-0.6 165.1 197.0 206 206 206
4.0 165.1 197.0 206 206 206
8.6 165.1 197.0 207 207 207
12.6 158.5 189.2 204 204 204
17.0 158.5 189.2 203 203 203
20.8 153.9 183.7 198 201 200
144.0 200.7 239.4 89 90 88
121.8 163.4 195.0 92 92 92
123.8 160.1 191.1 96 96 96
128.2 160.1 191.1 81 81 81
-674.1 206.2 239.4 31 31 31
-704.2 217.2 252.2 34 36 36
-698.4 217.2 252.2 26 27 25
-692.5 217.2 252.2 30 30 30
-686.6 217.2 252.2 29 29 27
-680.8 217.2 252.2 31 31 31
-674.9 217.2 252.2 63 63 63
-669.1 217.2 252.2 9 14 10
-663.2 217.2 252.2 10 15 11
-648.7 214.4 248.9 18 18 18
-651.5 217.2 252.2 10 15 11
-637.1 214.4 248.9 10 10 10
-639.7 217.2 252.2 33 33 33
-625.5 214.4 248.9 54 54 54
-611.7 211.6 245.7 58 59 59
-622.2 217.2 252.2 62 62 62
-616.3 217.2 252.2 75 77 77
-602.4 214.4 248.9 90 90 90
-596.6 214.4 248.9 127 127 127
-598.7 217.2 252.2 180 179 177
-585.0 214.4 248.9 191 191 191
-571.7 211.6 245.7 184 187 186
-566.0 211.6 245.7 180 180 180
-567.7 214.4 248.9 172 172 172
-577.1 220.2 255.6 182 182 182
-556.1 214.4 248.9 200 200 200
-565.2 220.2 255.6 214 214 214
-582.9 229.5 266.4 203 203 203
-538.8 214.4 248.9 192 195 194
-533.0 214.4 248.9 156 156 156
-534.2 217.2 252.2 125 125 125
-528.4 217.2 252.2 116 116 116
-522.5 217.2 252.2 122 124 123
-503.2 211.6 245.7 120 122 121
-510.8 217.2 252.2 120 122 121
-498.3 214.4 248.9 120 122 121
-467.9 203.7 236.5 122 124 123
-462.4 203.7 236.5 118 118 118
-474.7 211.6 245.7 115 115 115
-481.5 217.2 252.2 115 115 115
-475.6 217.2 252.2 112 112 112
-463.6 214.4 248.9 105 107 107
-457.8 214.4 248.9 104 104 104
-464.2 220.2 255.6 100 99 97
-446.2 214.4 248.9 98 97 95
-429.1 208.9 242.5 92 92 92
-429.0 211.6 245.7 87 86 84
-459.0 229.5 266.4 136 136 136
-434.5 220.2 255.6 157 160 159
-422.8 217.2 252.2 196 199 198
-422.6 220.2 255.6 195 195 195
-411.1 217.2 252.2 196 199 198
-428.1 229.5 266.4 186 188 187
-399.4 217.2 252.2 178 177 175
-398.8 220.2 255.6 178 178 178
-387.7 217.2 252.2 164 164 164
-376.8 214.4 248.9 126 126 126
-371.0 214.4 248.9 79 82 81
-375.1 220.2 255.6 77 77 77
-369.1 220.2 255.6 75 76 76
-358.4 217.2 252.2 68 70 68
-352.5 217.2 252.2 68 70 68
-346.6 217.2 252.2 71 72 70
-340.8 217.2 252.2 71 72 70
-334.9 217.2 252.2 71 72 70
-329.0 217.2 252.2 73 73 73
-323.2 217.2 252.2 73 73 73
-317.3 217.2 252.2 67 69 67
-311.5 217.2 252.2 60 60 60
-305.6 217.2 252.2 55 55 55
-299.7 217.2 252.2 32 32 32
-293.9 217.2 252.2 35 37 36
-288.0 217.2 252.2 61 63 61
-282.1 217.2 252.2 19 19 19
-276.3 217.2 252.2 13 17 14
-270.4 217.2 252.2 89 89 89
-264.6 217.2 252.2 156 156 156
-258.7 217.2 252.2 159 159 159
-252.8 217.2 252.2 157 157 157
-240.6 211.6 245.7 157 160 159
-234.8 211.6 245.7 177 177 177
-238.4 220.2 255.6 189 191 191
-238.9 226.3 262.7 181 181 181
-223.5 217.2 252.2 143 143 142
-189.8 189.4 220.0 145 147 147
-167.2 171.5 199.1 145 147 147
-200.6 211.6 245.7 143 145 144
-197.4 214.4 248.9 148 148 148
-205.1 229.5 266.4 151 151 151
-188.3 217.2 252.2 147 147 147
-182.5 217.2 252.2 112 114 113
-176.6 217.2 252.2 90 90 90
-170.8 217.2 252.2 81 84 83
-164.9 217.2 252.2 79 82 81
-159.0 217.2 252.2 88 88 88
-149.2 211.6 245.7 95 95 95
-139.8 206.2 239.4 124 126 125
-136.0 208.9 242.5 157 157 157
-135.6 217.2 252.2 153 153 153
-129.7 217.2 252.2 152 152 152
-123.9 217.2 252.2 147 147 147
-118.0 217.2 252.2 164 167 166
-112.1 217.2 252.2 153 155 155
-106.3 217.2 252.2 48 48 48
-100.4 217.2 252.2 107 109 109
-94.5 217.2 252.2 113 114 113
-88.7 217.2 252.2 99 99 99
-82.8 217.2 252.2 125 125 125
-77.0 217.2 252.2 137 137 137
-71.1 217.2 252.2 120 122 121
-65.2 217.2 252.2 111 111 111
-59.4 217.2 252.2 198 198 198
-53.5 217.2 252.2 201 203 203
-47.6 217.2 252.2 202 202 202
-41.8 217.2 252.2 197 197 197
-35.4 214.4 248.9 191 194 193
-29.3 211.6 245.7 184 184 184
-23.9 214.4 248.9 215 215 215
-17.6 208.9 242.5 212 213 212
-11.4 198.7 230.7 207 210 209
-6.4 211.6 245.7 205 208 207
-0.7 217.2 252.2 206 206 206
5.1 214.4 248.9 207 207 207
10.6 208.9 242.5 206 206 206
16.0 206.2 239.4 204 204 204
24.3 232.7 270.2 198 201 200
29.0 220.2 255.6 197 200 199
164.9 236.1 274.1 96 96 96
149.6 206.2 239.4 99 99 99
172.6 229.5 266.4 95 95 95
181.4 232.7 270.2 87 88 86
185.9 223.2 259.1 25 28 25
212.3 246.9 286.6 23 23 23
-832.1 261.4 295.6 164 164 164
-895.2 283.6 320.6 97 100 99
-887.8 283.6 320.6 51 51 51
-880.3 283.6 320.6 25 25 25
-872.9 283.6 320.6 27 28 26
-865.4 283.6 320.6 31 31 31
-857.9 283.6 320.6 55 56 54
-850.5 283.6 320.6 8 9 8
-829.0 278.9 315.3 10 10 10
-821.7 278.9 315.3 20 20 20
-828.1 283.6 320.6 13 17 14
-807.0 278.9 315.3 21 21 21
-813.2 283.6 320.6 35 35 35
-792.4 278.9 315.3 47 48 47
-785.0 278.9 315.3 58 59 59
-804.5 288.5 326.1 67 69 67
-783.4 283.6 320.6 63 63 63
-750.5 274.3 310.1 70 72 69
-768.5 283.6 320.6 154 154 154
-774.2 288.5 326.1 162 165 164
-741.1 278.9 315.3 77 79 78
-710.1 269.9 305.1 62 64 61
-714.5 274.3 310.1 70 72 69
-719.1 278.9 315.3 102 102 102
-723.8 283.6 320.6 191 194 193
-704.4 278.9 315.3 192 195 194
-733.8 293.5 331.9 190 190 190
-726.1 293.5 331.9 166 169 168
-682.4 278.9 315.3 174 174 174
-686.5 283.6 320.6 180 180 180
-679.1 283.6 320.6 165 168 167
-671.6 283.6 320.6 177 177 177
-653.1 278.9 315.3 149 151 151
-635.2 274.3 310.1 140 140 140
-660.5 288.5 326.1 158 158 158
-620.8 274.3 310.1 195 195 195
-584.8 261.4 295.6 125 125 125
-578.0 261.4 295.6 121 123 122
-599.2 274.3 310.1 119 119 119
-622.6 288.5 326.1 112 112 112
-594.5 278.9 315.3 115 114 114
-587.2 278.9 315.3 108 110 110
-599.8 288.5 326.1 108 110 110
-582.2 283.6 320.6 99 98 96
-547.0 269.9 305.1 99 98 96
-531.3 265.6 300.3 159 162 161
-541.5 274.3 310.1 206 209 208
-592.6 304.2 343.9 211 211 211
-535.9 278.9 315.3 210 209 207
-537.5 283.6 320.6 204 204 204
-530.1 283.6 320.6 204 207 206
-522.6 283.6 320.6 191 191 191
-562.8 309.8 350.3 150 150 150
-516.4 288.5 326.1 127 127 127
-508.9 288.5 326.1 77 77 77
-484.6 278.9 315.3 69 71 69
-469.4 274.3 310.1 69 71 69
-477.9 283.6 320.6 69 71 69
-478.5 288.5 326.1 69 71 69
-455.3 278.9 315.3 67 68 66
-455.5 283.6 320.6 68 70 68
-448.1 283.6 320.6 68 70 68
-440.6 283.6 320.6 68 70 68
-433.2 283.6 320.6 68 70 68
-425.7 283.6 320.6 70 72 69
-418.3 283.6 320.6 73 73 73
-410.8 283.6 320.6 75 75 75
-403.4 283.6 320.6 66 67 65
-395.9 283.6 320.6 64 64 64
-388.5 283.6 320.6 63 63 63
-381.0 283.6 320.6 34 34 34
-373.6 283.6 320.6 35 37 36
-366.1 283.6 320.6 53 55 53
-358.7 283.6 320.6 11 11 11
-351.2 283.6 320.6 10 10 10
-343.7 283.6 320.6 165 168 167
-336.3 283.6 320.6 152 152 152
-328.8 283.6 320.6 161 164 163
-326.9 288.5 326.1 157 157 157
-336.8 304.2 343.9 155 155 155
-306.5 283.6 320.6 185 185 185
-320.8 304.2 343.9 189 191 191
-312.8 304.2 343.9 176 179 178
-284.1 283.6 320.6 128 128 128
-209.3 214.5 242.5 157 157 157
-294.2 328.1 370.9 149 149 149
-264.8 304.2 343.9 152 154 154
-239.4 283.6 320.6 148 148 148
-228.1 278.9 315.3 128 127 126
-224.5 283.6 320.6 90 90 90
-217.1 283.6 320.6 81 84 83
-213.2 288.5 326.1 72 74 74
-198.8 278.9 315.3 86 86 86
-182.3 265.6 300.3 97 97 97
-178.2 269.9 305.1 90 92 91
-173.9 274.3 310.1 152 151 149
-172.3 283.6 320.6 151 151 151
-164.9 283.6 320.6 154 156 156
-157.4 283.6 320.6 141 143 142
-150.0 283.6 320.6 164 164 164
-142.5 283.6 320.6 149 151 151
-135.1 283.6 320.6 72 72 72
-127.6 283.6 320.6 124 126 125
-120.2 283.6 320.6 78 78 78
-112.7 283.6 320.6 73 75 75
-105.3 283.6 320.6 71 73 73
-97.8 283.6 320.6 88 88 88
-90.4 283.6 320.6 78 78 78
-82.9 283.6 320.6 126 126 126
-75.5 283.6 320.6 200 202 202
-68.0 283.6 320.6 198 198 198
-60.6 283.6 320.6 194 194 194
-35.2 261.4 295.6 211 211 211
-28.8 265.6 300.3 210 210 210
-21.5 261.4 295.6 204 207 206
-8.3 278.9 315.3 205 205 205
-0.9 274.3 310.1 206 206 206
6.4 278.9 315.3 205 205 205
13.3 269.9 305.1 206 206 206
28.4 278.9 315.3 198 201 200
35.7 278.9 315.3 198 201 200
214.6 315.7 356.9 101 101 101
184.6 261.4 295.6 98 98 98
215.0 293.5 331.9 100 100 100
239.5 315.7 356.9 89 90 88
208.5 265.6 300.3 32 32 32
234.0 288.5 326.1 23 26 24
280.3 334.6 378.3 19 19 19
126.6 63.9 45.8 89 91 90
123.1 61.7 44.2 88 88 88
146.0 75.6 53.3 88 90 89
149.4 78.6 54.5 90 92 91
43.5 25.6 16.4 109 109 109
43.9 25.6 16.4 105 105 105
38.2 16.4 10.6 109 111 111
37.0 22.5 14.2 110 112 111
43.7 25.6 16.2 100 102 102
38.1 16.7 10.5 109 111 111
38.3 16.6 10.5 109 111 111
36.7 23.1 14.4 116 116 116
37.0 22.9 14.2 110 112 111
37.5 22.9 14.3 104 104 104
38.2 23.2 14.4 98 98 98
38.5 23.2 14.4 96 96 96
38.4 22.9 14.2 94 94 94
38.2 16.9 10.5 107 107 107
38.4 16.9 10.5 109 111 111
38.7 23.6 14.5 100 102 102
38.4 17.3 10.6 107 107 107
38.7 17.3 10.6 107 107 107
39.1 24.2 14.6 105 105 105
