ply
format ascii 1.0
element vertex 2803
property float x
property float y
property float z
property uchar red
property uchar green
property uchar blue
end_header
473.7 -949.2 378.3 163 163 163
52.4 -75.6 30.1 157 160 159
52.6 -74.9 29.8 158 161 160
53.1 -74.6 29.7 158 161 160
54.4 -75.5 30.1 158 161 160
55.2 -75.6 30.1 159 162 161
189.0 -382.3 153.8 163 163 163
165.6 -328.8 132.3 163 163 163
164.1 -319.9 128.7 163 163 163
102.3 -176.8 71.1 164 164 164
108.0 -183.7 73.9 162 162 162
109.7 -183.7 73.9 162 162 162
105.6 -174.2 70.1 162 162 162
104.6 -169.8 68.3 162 162 162
105.0 -167.9 67.6 157 160 159
110.5 -174.2 70.1 163 163 163
113.4 -176.1 70.8 158 161 160
111.3 -170.4 68.5 158 161 160
53.3 -75.1 30.2 158 161 160
53.7 -74.8 30.1 158 161 160
124.9 -94.8 38.1 104 104 104
61.2 -41.2 16.6 195 198 197
61.2 -41.0 16.5 198 201 200
77.4 -182.7 74.2 165 165 165
78.8 -182.0 73.9 165 165 165
80.5 -182.0 73.9 165 165 165
82.2 -182.0 73.9 165 165 165
83.9 -182.0 73.9 165 165 165
85.7 -182.0 73.9 168 168 168
87.7 -182.7 74.2 166 166 166
89.8 -183.4 74.5 160 160 160
90.1 -180.6 73.3 160 160 160
92.9 -182.7 74.2 160 160 160
93.9 -181.3 73.6 160 160 160
95.6 -181.3 73.6 160 160 160
108.4 -188.6 76.6 164 164 164
104.2 -178.5 72.5 164 164 164
108.8 -183.4 74.5 165 165 165
113.2 -187.8 76.3 165 165 165
108.9 -177.8 72.2 165 165 165
114.4 -181.3 73.6 157 160 159
118.4 -184.8 75.1 163 163 163
119.7 -184.1 74.8 163 163 163
115.5 -175.1 71.1 163 163 163
53.5 -74.8 30.4 160 163 162
53.9 -74.3 30.2 158 161 160
119.6 -89.9 36.5 107 107 107
60.1 -40.1 16.3 195 198 197
60.1 -39.8 16.2 207 207 207
59.9 -39.4 16.0 161 164 163
66.9 -130.3 53.4 166 166 166
63.0 -120.5 49.4 166 166 166
69.6 -130.7 53.6 166 166 166
64.8 -119.5 49.0 167 167 167
129.2 -199.8 81.9 166 166 166
131.7 -200.6 82.2 166 166 166
54.9 -75.9 31.1 160 163 162
55.2 -75.4 30.9 161 164 163
57.9 -78.1 32.0 161 164 163
118.0 -87.9 36.0 104 104 104
111.6 -82.5 33.8 104 104 104
58.6 -38.5 15.8 203 203 203
58.8 -38.4 15.7 206 206 206
58.3 -37.8 15.5 204 204 204
39.4 -105.3 43.6 167 167 167
40.2 -104.8 43.4 167 167 167
41.3 -105.1 43.5 164 164 164
42.3 -105.1 43.5 164 164 164
43.2 -104.8 43.4 165 165 165
46.6 -105.5 43.7 165 165 165
47.5 -105.3 43.6 165 165 165
48.5 -105.3 43.6 165 165 165
49.7 -105.8 43.8 165 165 165
50.4 -105.1 43.5 166 166 166
51.7 -105.5 43.7 166 166 166
53.8 -105.8 43.8 166 166 166
55.2 -106.5 44.1 166 166 166
56.4 -106.8 44.2 166 166 166
56.3 -104.8 43.4 169 169 169
58.3 -106.5 44.1 167 167 167
57.7 -103.6 42.9 167 167 167
65.5 -106.5 44.1 168 168 168
140.7 -218.7 90.5 168 168 168
132.6 -203.1 84.1 169 169 169
134.6 -203.1 84.1 169 169 169
128.0 -190.4 78.8 169 169 169
107.2 -78.5 32.5 103 102 100
57.9 -37.6 15.6 181 184 183
58.1 -37.5 15.5 169 169 169
57.5 -36.9 15.3 211 211 211
36.0 -98.0 40.9 166 166 166
36.5 -96.7 40.4 167 167 167
37.5 -96.9 40.5 167 167 167
38.4 -96.7 40.4 167 167 167
39.4 -96.9 40.5 167 167 167
40.7 -97.8 40.9 167 167 167
41.6 -97.5 40.8 167 167 167
43.4 -97.3 40.7 168 168 168
44.5 -97.8 40.9 168 168 168
45.0 -96.7 40.4 168 168 168
46.1 -97.1 40.6 168 168 168
47.0 -96.9 40.5 168 168 168
48.6 -98.4 41.1 168 168 168
49.8 -98.8 41.3 168 168 168
50.0 -97.3 40.7 168 168 168
51.0 -97.5 40.8 170 172 172
52.4 -98.4 41.1 170 172 172
52.5 -96.7 40.4 171 173 173
53.2 -96.3 40.2 171 173 173
54.8 -97.5 40.8 171 173 173
55.5 -97.1 40.6 171 173 173
58.0 -99.7 41.7 171 173 173
58.3 -98.6 41.2 171 173 173
61.7 -102.6 42.9 171 173 173
62.5 -100.8 42.1 170 171 170
61.5 -97.5 40.8 170 171 170
147.8 -227.5 95.1 170 171 170
138.8 -210.5 88.0 172 172 172
138.9 -207.6 86.8 172 172 172
135.3 -199.4 83.3 169 169 169
102.8 -74.6 31.2 104 104 104
97.4 -70.2 29.3 103 102 100
55.0 -34.8 14.5 217 217 217
50.4 -93.6 39.5 170 172 172
51.0 -93.0 39.2 171 173 173
48.8 -87.5 36.9 171 173 173
52.9 -93.2 39.3 171 173 173
56.8 -95.2 40.2 174 176 176
58.5 -96.4 40.7 171 173 173
59.3 -93.2 39.3 172 174 174
155.6 -237.2 100.1 175 177 177
140.1 -210.4 88.8 173 175 175
139.5 -206.6 87.2 173 175 175
137.2 -200.1 84.4 173 175 175
162.3 -233.5 98.5 173 175 175
43.7 -79.0 33.7 179 179 179
44.9 -79.7 34.0 181 181 181
44.3 -77.2 32.9 181 181 181
45.5 -78.0 33.2 179 179 179
46.6 -78.6 33.5 181 181 181
181.0 -277.4 118.2 175 177 177
164.3 -248.0 105.7 180 180 180
142.8 -212.4 90.5 176 179 178
142.2 -208.4 88.8 176 179 178
142.9 -206.4 88.0 173 175 175
166.6 -237.3 101.2 181 181 181
161.2 -226.4 96.5 184 184 184
41.8 -26.5 11.3 195 198 197
41.1 -26.0 11.1 198 201 200
39.4 -70.4 30.3 200 200 200
42.8 -74.0 31.8 197 197 197
41.6 -70.6 30.4 200 200 200
44.4 -74.1 31.9 200 200 200
47.0 -74.7 32.2 200 200 200
188.1 -285.4 122.8 200 200 200
163.3 -244.1 105.1 197 197 197
134.4 -197.9 85.2 198 198 198
135.2 -196.2 84.4 198 198 198
133.6 -191.1 82.2 202 202 202
171.2 -241.5 103.9 199 199 199
40.3 -25.2 10.9 195 198 197
40.2 -25.0 10.7 206 206 206
40.4 -25.0 10.7 181 184 183
40.9 -25.1 10.8 211 211 211
39.0 -70.3 30.6 204 204 204
39.2 -69.4 30.2 204 204 204
41.4 -70.9 30.8 204 204 204
41.4 -69.6 30.3 204 204 204
42.2 -69.7 30.3 204 204 204
43.7 -71.1 30.9 204 204 204
44.0 -70.4 30.6 204 204 204
44.4 -69.9 30.4 204 204 204
45.0 -69.7 30.3 204 204 204
191.8 -288.1 125.3 204 204 204
167.1 -247.2 107.5 204 204 204
131.7 -189.1 82.2 202 202 202
123.9 -175.4 76.3 205 205 205
184.4 -257.4 111.9 205 205 205
176.5 -243.0 105.7 203 203 203
159.1 -117.6 51.1 113 115 114
39.5 -24.3 10.6 195 198 197
39.4 -24.1 10.5 179 182 181
39.7 -24.1 10.5 175 175 175
40.5 -24.5 10.6 214 214 214
40.9 -24.5 10.7 217 217 217
37.4 -65.6 28.8 206 206 206
37.8 -65.1 28.6 206 206 206
41.4 -70.0 30.8 206 206 206
39.9 -66.4 29.1 206 206 206
41.0 -67.1 29.5 206 206 206
44.0 -70.8 31.1 206 206 206
44.0 -69.7 30.6 206 206 206
44.2 -68.8 30.2 206 206 206
42.9 -65.8 28.9 206 206 206
43.4 -65.5 28.8 206 206 206
161.6 -236.6 103.9 204 204 204
136.9 -197.5 86.8 205 205 205
133.4 -189.7 83.3 205 205 205
126.4 -177.2 77.8 205 205 205
174.1 -240.6 105.7 205 205 205
164.6 -224.3 98.5 206 206 206
27.6 -36.6 16.1 206 206 206
166.0 -122.3 53.7 118 118 118
160.8 -117.7 51.7 116 116 116
38.8 -23.3 10.2 195 195 195
39.2 -23.3 10.2 217 217 217
37.4 -65.0 28.8 206 206 206
41.6 -69.6 30.9 206 206 206
39.8 -65.6 29.1 206 206 206
42.3 -68.4 30.4 206 206 206
44.4 -70.7 31.4 206 206 206
44.7 -70.1 31.1 206 206 206
44.9 -69.2 30.7 206 206 206
42.9 -65.2 28.9 206 206 206
43.5 -65.0 28.8 206 206 206
158.1 -229.2 101.7 206 206 206
142.8 -203.9 90.5 207 207 207
134.6 -189.4 84.1 207 207 207
124.9 -173.3 76.9 207 207 207
162.3 -222.0 98.5 205 205 205
159.6 -215.3 95.5 206 206 206
151.9 -202.0 89.7 206 206 206
27.8 -36.4 16.2 206 206 206
22.6 -23.6 10.5 159 159 159
173.9 -126.9 56.3 123 123 123
173.6 -125.7 55.8 122 122 122
169.9 -122.1 54.2 119 119 119
41.9 -69.4 31.1 208 208 208
41.9 -68.3 30.6 208 208 208
43.2 -69.3 31.1 208 208 208
44.9 -70.8 31.7 208 208 208
45.1 -70.0 31.4 209 209 209
45.4 -69.3 31.1 209 209 209
45.9 -68.9 30.9 209 209 209
43.7 -64.6 29.0 206 206 206
141.1 -185.8 83.3 208 208 208
27.9 -36.2 16.2 208 208 208
28.0 -35.9 16.1 206 206 206
23.0 -23.7 10.6 159 159 159
23.1 -23.6 10.6 160 160 160
23.5 -23.8 10.7 163 163 163
41.5 -69.2 31.4 208 208 208
41.8 -68.5 31.1 208 208 208
41.8 -67.4 30.6 208 208 208
43.2 -68.4 31.0 208 208 208
44.7 -69.7 31.6 208 208 208
45.0 -69.0 31.3 208 208 208
45.3 -68.4 31.0 208 208 208
45.8 -68.1 30.9 208 208 208
43.4 -63.5 28.8 208 208 208
42.8 -61.8 28.0 208 208 208
141.7 -187.2 84.8 207 207 207
135.8 -176.9 80.2 207 207 207
27.9 -35.9 16.3 207 207 207
28.1 -35.6 16.1 208 208 208
23.4 -23.9 10.8 162 162 162
39.2 -67.2 30.8 207 207 207
41.0 -66.5 30.5 207 207 207
41.4 -66.0 30.2 207 207 207
42.2 -66.2 30.3 207 207 207
44.6 -67.7 31.0 207 207 207
44.7 -66.7 30.6 207 207 207
44.8 -65.9 30.2 207 207 207
44.1 -63.8 29.2 208 208 208
43.5 -62.0 28.4 208 208 208
27.8 -34.9 16.0 207 207 207
27.6 -34.1 15.6 207 207 207
37.4 -67.0 31.0 207 207 207
39.0 -67.3 31.2 207 207 207
39.4 -66.8 30.9 207 207 207
41.2 -67.3 31.2 207 207 207
41.6 -66.9 31.0 207 207 207
41.8 -65.9 30.5 207 207 207
42.5 -66.0 30.6 207 207 207
43.9 -67.1 31.1 207 207 207
45.0 -67.5 31.3 207 207 207
45.5 -67.2 31.1 207 207 207
45.8 -66.7 30.9 207 207 207
44.9 -64.4 29.8 207 207 207
44.2 -62.3 28.8 207 207 207
27.8 -34.5 16.0 206 206 206
27.7 -33.9 15.7 207 207 207
-22.7 -23.2 10.8 47 47 47
-22.5 -23.2 10.8 49 49 49
-22.2 -23.2 10.8 40 40 40
-20.3 -23.3 10.9 103 103 103
-19.9 -23.1 10.8 105 105 105
-19.9 -23.4 11.0 105 105 105
-19.5 -23.3 10.9 106 106 106
-19.3 -23.4 10.9 107 109 109
-18.3 -23.0 10.8 106 108 108
-17.9 -23.2 10.9 108 110 110
-9.5 -23.0 10.8 136 138 137
-9.3 -23.0 10.8 136 138 137
36.8 -66.5 31.1 206 206 206
37.6 -66.6 31.2 206 206 206
38.3 -66.6 31.2 204 204 204
39.7 -66.5 31.1 206 206 206
41.9 -66.5 31.1 209 209 209
42.0 -65.5 30.7 206 206 206
42.7 -65.6 30.7 206 206 206
45.2 -67.2 31.4 209 209 209
45.8 -66.9 31.3 209 209 209
46.2 -66.5 31.1 206 206 206
45.8 -64.9 30.4 206 206 206
27.7 -34.0 15.9 206 206 206
27.7 -33.6 15.7 206 206 206
-38.0 -28.5 13.5 46 46 44
-37.3 -28.5 13.5 48 48 48
-36.7 -28.5 13.5 48 48 48
-33.5 -28.5 13.5 46 46 44
-23.5 -23.5 11.1 43 43 43
-23.2 -23.4 11.1 43 43 43
-23.0 -23.4 11.1 43 43 43
-20.7 -23.5 11.1 97 100 99
-20.4 -23.4 11.1 99 101 101
-20.4 -23.7 11.2 103 103 103
-19.9 -23.4 11.1 102 102 102
-19.6 -23.4 11.1 102 102 102
-18.3 -23.4 11.1 108 110 110
-10.1 -23.4 11.1 133 133 133
-9.8 -23.3 11.0 135 135 135
-9.5 -23.4 11.0 134 137 136
-9.3 -23.5 11.1 134 136 135
-9.1 -23.5 11.1 137 137 137
-8.6 -23.5 11.1 140 142 141
-8.3 -23.5 11.1 144 144 144
-7.5 -23.5 11.1 148 148 148
-7.3 -23.5 11.1 151 151 151
-7.0 -23.5 11.1 151 151 151
-6.8 -23.5 11.1 158 161 160
-6.5 -23.5 11.1 165 165 165
-6.2 -23.5 11.1 165 165 165
-6.0 -23.5 11.1 166 169 168
-5.7 -23.5 11.1 168 170 169
-5.4 -23.4 11.1 169 169 169
7.7 -23.5 11.1 208 208 208
8.0 -23.5 11.1 208 208 208
8.2 -23.5 11.1 208 208 208
8.5 -23.5 11.1 208 208 208
8.8 -23.5 11.1 208 208 208
9.0 -23.5 11.1 208 208 208
9.8 -23.5 11.1 208 208 208
10.0 -23.5 11.1 208 208 208
36.1 -65.8 31.1 209 209 209
37.5 -65.7 31.1 209 209 209
39.0 -65.8 31.1 209 209 209
39.6 -65.7 31.1 209 209 209
41.6 -65.4 31.0 209 209 209
42.2 -65.2 30.9 209 209 209
42.5 -64.6 30.6 206 206 206
45.0 -66.1 31.3 209 209 209
45.5 -65.9 31.2 209 209 209
46.0 -65.4 31.0 209 209 209
46.1 -64.6 30.6 206 206 206
27.7 -33.2 15.7 205 205 205
27.1 -32.0 15.2 206 206 206
26.6 -31.1 14.7 206 206 206
-38.3 -28.4 13.6 47 46 45
-38.1 -28.5 13.6 51 51 51
-37.8 -28.5 13.6 51 51 51
-37.5 -28.5 13.6 51 51 51
-37.2 -28.6 13.7 53 53 53
-36.9 -28.6 13.7 53 53 53
-36.5 -28.5 13.6 51 51 51
-36.2 -28.5 13.6 53 53 53
-35.9 -28.6 13.7 49 49 49
-35.6 -28.5 13.6 53 53 53
-35.3 -28.5 13.6 49 49 49
-34.9 -28.5 13.6 49 49 49
-34.6 -28.6 13.7 49 49 49
-34.3 -28.5 13.6 49 49 49
-34.0 -28.5 13.6 44 44 44
-33.6 -28.5 13.6 44 44 44
-33.3 -28.5 13.6 47 46 45
-33.0 -28.5 13.6 47 46 45
-32.8 -28.6 13.7 44 44 44
-32.5 -28.6 13.7 44 44 44
-32.1 -28.5 13.6 42 42 42
-31.8 -28.6 13.7 42 42 42
-31.4 -28.5 13.6 42 42 42
-31.1 -28.5 13.6 44 44 44
-30.8 -28.6 13.7 44 44 44
-30.5 -28.6 13.7 44 44 44
-30.2 -28.6 13.7 42 42 42
-29.9 -28.6 13.7 42 42 42
-29.6 -28.6 13.7 42 42 42
-29.2 -28.5 13.6 39 39 39
-28.8 -28.5 13.6 40 40 40
-28.6 -28.5 13.6 42 43 42
-28.3 -28.6 13.7 42 43 42
-28.0 -28.5 13.6 42 43 42
-27.7 -28.6 13.7 42 43 42
-27.4 -28.6 13.7 44 44 44
-26.9 -28.5 13.6 45 45 45
-26.6 -28.5 13.6 47 46 45
-26.5 -28.7 13.7 45 45 45
-26.1 -28.6 13.7 51 51 51
-25.6 -28.4 13.6 80 80 80
-25.4 -28.5 13.6 93 93 93
-25.1 -28.5 13.6 94 94 94
-24.9 -28.7 13.7 92 92 92
-24.5 -28.6 13.7 98 100 100
-24.2 -28.6 13.7 97 97 97
-23.9 -28.6 13.7 98 100 100
-23.5 -28.5 13.6 100 102 102
-23.5 -28.9 13.8 100 102 102
-23.0 -28.7 13.7 104 104 104
-22.6 -28.5 13.6 104 104 104
-13.9 -28.4 13.6 118 118 118
-13.7 -28.6 13.7 118 118 118
-13.4 -28.7 13.7 122 121 120
-9.6 -23.2 11.1 126 129 128
-9.4 -23.3 11.2 128 128 128
10.5 -28.7 13.7 208 208 208
40.8 -60.3 28.8 208 208 208
45.5 -65.0 31.1 208 208 208
45.7 -64.4 30.8 208 208 208
45.6 -63.2 30.2 208 208 208
27.5 -32.6 15.6 207 207 207
27.0 -31.6 15.1 207 207 207
26.8 -31.0 14.8 205 205 205
-39.1 -28.7 13.9 52 52 52
-14.3 -28.8 13.9 109 109 109
-13.9 -28.7 13.9 109 111 111
-13.6 -28.7 13.9 115 114 114
-13.8 -29.9 14.5 113 114 113
-12.2 -30.0 14.5 107 107 107
9.4 -30.0 14.5 207 207 207
9.8 -30.0 14.5 207 207 207
10.7 -29.8 14.4 210 210 210
11.0 -29.8 14.4 207 207 207
11.4 -29.9 14.5 207 207 207
11.7 -29.9 14.5 207 207 207
12.1 -30.0 14.5 207 207 207
12.4 -29.9 14.5 207 207 207
15.5 -30.1 14.6 208 208 208
15.8 -30.0 14.5 208 208 208
42.5 -63.1 30.5 208 208 208
45.2 -65.0 31.4 208 208 208
45.6 -64.5 31.2 208 208 208
46.0 -64.1 31.0 208 208 208
45.9 -63.0 30.5 208 208 208
26.8 -30.6 14.8 210 210 210
26.7 -29.8 14.4 207 207 207
26.8 -29.5 14.3 205 205 205
27.5 -29.9 14.5 206 206 206
-15.3 -29.8 14.6 109 109 109
-14.8 -29.5 14.5 101 101 101
-14.4 -29.5 14.4 91 93 92
-14.2 -29.7 14.5 72 72 72
-13.9 -29.8 14.6 72 71 69
-13.6 -29.9 14.6 56 56 56
-12.7 -30.0 14.7 25 25 25
-12.3 -29.9 14.6 25 25 25
-12.0 -30.0 14.7 33 35 34
-11.3 -30.0 14.7 184 184 184
-11.0 -30.0 14.7 177 180 179
-10.6 -29.9 14.6 174 174 174
-10.1 -29.6 14.5 176 179 178
-9.9 -29.8 14.6 173 173 173
-9.6 -30.0 14.7 197 197 197
-9.2 -29.9 14.6 200 200 200
-8.9 -29.9 14.6 205 205 205
-8.5 -29.9 14.6 206 206 206
-8.2 -30.0 14.7 203 203 203
-7.9 -29.9 14.6 203 203 203
-7.5 -29.9 14.6 204 204 204
-7.2 -30.0 14.7 200 200 200
-6.8 -29.9 14.6 203 203 203
-4.5 -30.0 14.7 196 196 196
-4.1 -29.9 14.6 193 193 193
-3.8 -30.0 14.7 192 192 192
-3.4 -30.0 14.7 192 192 192
-2.1 -29.9 14.6 192 192 192
-1.7 -29.9 14.6 192 192 192
1.0 -29.8 14.6 183 183 183
1.3 -29.9 14.6 185 185 185
1.7 -30.0 14.7 185 185 185
2.0 -29.8 14.6 185 185 185
3.0 -30.0 14.7 182 182 182
3.3 -29.8 14.6 182 182 182
4.0 -29.9 14.6 182 182 182
6.1 -30.2 14.8 179 179 179
6.4 -29.9 14.6 174 174 174
6.8 -29.9 14.6 204 204 204
7.1 -29.9 14.6 207 207 207
7.5 -30.1 14.7 210 210 210
7.8 -30.1 14.7 210 210 210
8.1 -30.0 14.7 210 210 210
8.4 -29.9 14.6 210 210 210
8.8 -30.0 14.7 210 210 210
9.1 -29.9 14.6 210 210 210
9.5 -29.9 14.6 210 210 210
9.8 -29.9 14.6 210 210 210
10.1 -29.8 14.6 210 210 210
10.5 -30.0 14.7 210 210 210
10.8 -29.8 14.6 210 210 210
11.2 -29.8 14.6 207 207 207
11.5 -29.9 14.6 210 210 210
11.8 -29.9 14.6 210 210 210
12.2 -29.9 14.6 210 210 210
12.5 -29.8 14.6 207 207 207
12.8 -29.8 14.6 207 207 207
13.1 -29.7 14.5 207 207 207
13.5 -29.8 14.6 207 207 207
13.9 -29.9 14.6 207 207 207
14.2 -29.9 14.6 207 207 207
14.6 -29.9 14.6 207 207 207
14.9 -29.9 14.6 207 207 207
15.3 -29.9 14.6 207 207 207
15.7 -30.1 14.7 207 207 207
15.9 -29.9 14.6 207 207 207
16.3 -29.9 14.6 207 207 207
16.6 -29.9 14.6 207 207 207
16.9 -29.9 14.6 207 207 207
17.4 -30.0 14.7 207 207 207
40.7 -58.8 28.7 207 207 207
45.2 -63.3 31.0 207 207 207
45.2 -62.2 30.4 207 207 207
45.2 -61.3 30.0 207 207 207
44.6 -58.7 28.7 207 207 207
44.2 -57.3 28.0 208 208 208
26.4 -29.1 14.2 209 209 209
26.5 -28.8 14.1 207 207 207
27.0 -29.0 14.2 205 205 205
27.9 -29.6 14.5 205 205 205
-41.6 -29.9 14.8 53 52 52
-41.3 -29.9 14.8 53 52 52
-41.0 -29.9 14.8 53 52 52
-40.7 -29.9 14.8 53 52 52
-40.3 -29.9 14.8 55 55 55
-40.0 -29.9 14.8 55 55 55
-39.6 -29.9 14.8 55 55 55
-39.3 -29.9 14.8 58 59 57
-38.9 -29.9 14.8 55 55 55
-38.6 -29.9 14.8 58 59 57
-38.2 -29.9 14.8 55 55 55
-37.9 -29.9 14.8 55 55 55
-37.5 -29.9 14.8 55 55 55
-37.2 -29.9 14.8 55 55 55
-36.9 -29.9 14.8 58 59 57
-36.5 -29.9 14.8 53 53 53
-36.3 -30.1 14.9 51 51 51
-35.9 -30.0 14.8 50 49 48
-35.5 -30.0 14.8 50 49 48
-35.1 -29.9 14.8 47 47 47
-34.8 -29.9 14.8 47 47 47
-34.4 -29.9 14.8 47 47 47
-34.1 -29.9 14.8 47 47 47
-33.8 -30.0 14.8 47 47 47
-33.4 -29.9 14.8 47 47 47
-33.1 -29.9 14.8 47 47 47
-32.8 -29.9 14.8 47 47 47
-32.4 -29.9 14.8 47 47 47
-32.0 -29.9 14.8 47 47 47
-31.7 -29.9 14.8 47 48 47
-31.4 -29.9 14.8 45 45 45
-31.0 -29.9 14.8 45 45 45
-30.7 -29.9 14.8 45 45 45
-30.5 -30.1 14.9 47 48 47
-30.0 -29.9 14.8 42 43 42
-29.7 -30.0 14.8 43 43 43
-29.4 -30.1 14.9 43 43 43
-29.0 -29.9 14.8 41 41 41
-28.6 -29.9 14.8 42 42 42
-27.1 -30.1 14.9 44 44 44
-26.8 -30.3 15.0 42 43 42
-26.2 -29.9 14.8 47 47 47
-25.9 -29.9 14.8 54 54 54
-25.5 -29.9 14.8 57 58 56
-25.1 -29.9 14.8 87 89 88
-15.5 -29.9 14.8 24 24 24
-15.1 -29.8 14.7 24 24 24
-14.8 -29.8 14.8 29 30 28
-14.5 -29.8 14.8 29 30 28
-14.1 -29.9 14.8 27 27 27
-13.8 -29.9 14.8 27 29 27
-13.5 -29.9 14.8 27 29 27
-12.8 -29.9 14.8 30 29 28
-12.4 -29.9 14.8 32 32 32
-12.1 -29.9 14.8 35 35 35
-11.4 -29.9 14.8 180 183 182
-11.1 -29.9 14.8 183 183 183
-10.7 -29.9 14.8 186 186 186
-10.0 -29.9 14.8 218 218 218
-9.7 -29.9 14.8 216 216 216
-9.3 -29.9 14.8 214 214 214
-9.0 -29.9 14.8 214 214 214
-8.6 -29.9 14.8 212 213 212
-8.3 -29.9 14.8 210 210 210
-7.9 -29.9 14.8 209 209 209
-7.6 -29.9 14.8 209 209 209
-7.3 -29.9 14.8 207 207 207
-6.9 -29.8 14.8 206 206 206
-6.6 -29.9 14.8 206 206 206
-6.3 -30.0 14.8 203 203 203
-5.5 -29.9 14.8 202 202 202
-5.2 -29.9 14.8 200 200 200
-4.5 -29.9 14.8 197 197 197
-4.2 -29.9 14.8 197 197 197
-3.8 -29.9 14.8 197 197 197
-3.5 -29.9 14.8 197 197 197
-2.5 -30.0 14.8 196 196 196
-2.1 -29.9 14.8 196 196 196
-1.8 -29.9 14.8 196 196 196
-0.7 -29.9 14.8 193 193 193
-0.4 -29.9 14.8 193 193 193
-0.0 -29.9 14.8 191 191 191
0.3 -29.9 14.8 191 191 191
0.6 -29.9 14.8 191 191 191
1.0 -29.9 14.8 190 190 190
1.3 -29.9 14.8 190 190 190
1.7 -29.9 14.8 188 188 188
2.0 -29.9 14.8 188 188 188
3.1 -29.9 14.8 184 184 184
3.4 -29.8 14.8 184 184 184
3.7 -29.9 14.8 184 184 184
4.1 -29.9 14.8 184 184 184
4.4 -29.9 14.8 181 181 181
6.2 -30.1 14.9 178 178 178
6.5 -29.9 14.8 173 173 173
6.8 -29.9 14.8 204 204 204
7.2 -29.9 14.8 206 206 206
7.9 -29.9 14.8 209 209 209
8.2 -29.9 14.8 209 209 209
8.6 -29.9 14.8 209 209 209
8.9 -29.9 14.8 209 209 209
9.3 -29.9 14.8 209 209 209
9.6 -29.9 14.8 209 209 209
9.9 -29.9 14.8 209 209 209
10.3 -29.9 14.8 209 209 209
10.6 -29.9 14.8 209 209 209
11.0 -29.9 14.8 211 211 211
11.3 -29.9 14.8 211 211 211
11.7 -29.9 14.8 209 209 209
12.0 -29.9 14.8 209 209 209
12.3 -29.9 14.8 206 206 206
12.7 -29.9 14.8 206 206 206
13.0 -29.9 14.8 206 206 206
13.4 -29.9 14.8 206 206 206
13.7 -29.9 14.8 206 206 206
14.1 -29.9 14.8 206 206 206
14.4 -29.9 14.8 206 206 206
14.8 -30.0 14.8 206 206 206
15.1 -29.9 14.8 206 206 206
15.5 -30.0 14.8 207 207 207
15.8 -30.0 14.8 207 207 207
16.1 -29.8 14.8 207 207 207
16.5 -29.9 14.8 207 207 207
16.8 -29.9 14.8 207 207 207
17.2 -29.9 14.8 207 207 207
17.5 -29.9 14.8 207 207 207
40.0 -57.1 28.3 207 207 207
44.1 -59.1 29.2 207 207 207
43.7 -57.7 28.5 207 207 207
43.9 -57.1 28.2 207 207 207
26.9 -29.6 14.7 206 206 206
26.8 -29.2 14.4 206 206 206
26.9 -28.9 14.3 206 206 206
27.4 -29.1 14.4 207 207 207
27.9 -29.3 14.5 207 207 207
28.3 -29.3 14.5 205 205 205
-43.1 -30.6 15.3 53 53 53
-43.9 -31.4 15.7 53 53 53
-43.5 -31.4 15.7 53 53 53
-43.2 -31.4 15.7 56 56 56
-42.8 -31.4 15.7 56 56 56
-42.4 -31.4 15.7 53 53 53
-42.0 -31.4 15.7 59 60 58
-41.7 -31.4 15.7 59 60 58
-41.3 -31.4 15.7 59 60 58
-40.9 -31.4 15.7 59 60 58
-40.6 -31.4 15.7 56 56 56
-40.2 -31.4 15.7 56 56 56
-39.9 -31.4 15.7 52 52 52
-39.6 -31.5 15.8 52 52 52
-38.1 -31.5 15.8 52 52 52
-37.8 -31.5 15.8 51 50 48
-37.5 -31.5 15.8 51 50 48
-37.1 -31.5 15.8 47 48 47
-36.7 -31.5 15.8 47 48 47
-35.1 -31.4 15.7 47 48 47
-34.7 -31.4 15.7 51 50 48
-34.3 -31.4 15.7 47 48 47
-26.1 -30.3 15.2 50 50 50
-15.8 -31.4 15.7 28 28 28
-15.4 -31.4 15.7 27 27 27
-15.0 -31.4 15.7 27 27 27
-14.7 -31.5 15.8 29 30 28
-10.7 -24.7 12.4 30 29 28
-8.1 -24.8 12.4 218 221 220
-7.8 -24.8 12.4 218 221 220
-4.1 -24.9 12.5 202 202 202
1.1 -24.8 12.4 190 190 190
1.4 -24.8 12.4 192 192 192
1.7 -24.8 12.4 189 189 189
2.9 -24.9 12.4 186 186 186
3.1 -24.8 12.4 183 183 183
3.4 -24.8 12.4 183 183 183
4.6 -24.8 12.4 180 180 180
4.9 -24.8 12.4 180 180 180
6.6 -24.8 12.4 209 209 209
7.2 -24.9 12.4 209 209 209
7.5 -24.9 12.5 209 209 209
9.5 -30.4 15.2 209 209 209
9.9 -30.5 15.3 209 209 209
10.3 -30.5 15.3 209 209 209
8.6 -24.8 12.4 209 209 209
8.9 -24.8 12.4 209 209 209
9.2 -24.8 12.4 209 209 209
9.5 -24.9 12.5 209 209 209
12.0 -30.5 15.3 209 209 209
12.4 -30.5 15.3 209 209 209
10.4 -24.9 12.4 206 206 206
10.7 -24.8 12.4 206 206 206
10.9 -24.8 12.4 206 206 206
11.2 -24.9 12.4 206 206 206
11.5 -24.8 12.4 206 206 206
11.8 -24.8 12.4 206 206 206
12.1 -24.8 12.4 206 206 206
15.3 -30.6 15.3 206 206 206
15.6 -30.6 15.3 206 206 206
16.4 -31.3 15.7 206 206 206
16.4 -30.7 15.4 206 206 206
16.5 -30.3 15.2 206 206 206
18.1 -30.6 15.3 206 206 206
15.3 -24.9 12.5 206 206 206
41.7 -61.9 31.0 206 206 206
44.8 -62.3 31.2 206 206 206
45.2 -61.8 31.0 206 206 206
51.7 -65.5 32.8 207 207 207
52.1 -65.0 32.6 207 207 207
27.3 -29.0 14.5 206 206 206
27.8 -29.2 14.6 206 206 206
28.2 -29.2 14.6 206 206 206
28.5 -29.2 14.6 204 204 204
-34.7 -24.3 12.3 56 56 56
-34.4 -24.3 12.3 57 57 57
-34.1 -24.3 12.3 57 57 57
-33.8 -24.3 12.3 59 60 58
-33.5 -24.3 12.3 57 57 57
-33.2 -24.3 12.3 54 54 54
-33.0 -24.3 12.3 59 60 58
-32.7 -24.3 12.3 59 60 58
-32.4 -24.3 12.3 59 60 58
-32.1 -24.3 12.3 59 61 59
-31.8 -24.3 12.3 59 61 59
-31.5 -24.3 12.3 59 61 59
-31.2 -24.3 12.3 57 57 57
-30.9 -24.3 12.3 55 55 55
-30.6 -24.3 12.3 53 52 52
-30.4 -24.3 12.3 55 55 55
-30.1 -24.3 12.3 53 52 52
-29.7 -24.3 12.3 53 52 52
-28.1 -24.3 12.3 48 48 48
-27.7 -24.3 12.3 48 48 48
-27.5 -24.3 12.3 48 48 48
-27.2 -24.3 12.3 48 48 48
-26.9 -24.3 12.3 49 49 49
-26.6 -24.3 12.3 49 49 49
-26.3 -24.3 12.3 47 47 47
-26.0 -24.3 12.3 47 47 47
-25.7 -24.3 12.3 47 47 47
-25.2 -24.3 12.3 47 47 47
-24.9 -24.3 12.3 47 48 47
-24.7 -24.6 12.5 45 45 45
-24.2 -24.5 12.4 45 45 45
-23.8 -24.3 12.3 43 43 43
-23.4 -24.2 12.3 43 43 43
-20.5 -24.2 12.2 45 45 45
-10.9 -24.2 12.3 31 30 29
-10.6 -24.3 12.3 33 33 33
-10.3 -24.3 12.3 34 36 36
-10.0 -24.1 12.2 40 40 40
-8.3 -24.3 12.3 225 225 225
-8.0 -24.2 12.2 225 227 227
-7.7 -24.2 12.3 226 226 226
-7.4 -24.1 12.2 224 224 224
-4.1 -24.4 12.4 207 207 207
-3.2 -24.3 12.3 202 202 202
1.1 -24.3 12.3 194 194 194
1.4 -24.3 12.3 194 194 194
1.7 -24.3 12.3 191 191 191
2.6 -24.5 12.4 191 191 191
2.8 -24.4 12.3 188 188 188
3.1 -24.3 12.3 188 188 188
3.4 -24.3 12.3 185 185 185
4.5 -24.3 12.3 180 180 180
6.5 -24.3 12.3 208 208 208
6.8 -24.3 12.3 208 208 208
7.1 -24.3 12.3 208 208 208
7.4 -24.3 12.3 208 208 208
7.7 -24.3 12.3 208 208 208
8.0 -24.3 12.3 208 208 208
8.3 -24.3 12.3 208 208 208
8.5 -24.3 12.3 208 208 208
8.8 -24.3 12.3 208 208 208
9.1 -24.3 12.3 208 208 208
9.4 -24.3 12.3 208 208 208
9.7 -24.3 12.3 208 208 208
10.0 -24.3 12.3 208 208 208
10.3 -24.3 12.3 208 208 208
10.5 -24.3 12.3 205 205 205
10.8 -24.3 12.3 205 205 205
11.1 -24.3 12.3 205 205 205
11.4 -24.3 12.3 205 205 205
11.7 -24.3 12.3 205 205 205
11.9 -24.1 12.2 205 205 205
12.2 -24.2 12.2 205 205 205
12.6 -24.3 12.3 205 205 205
12.8 -24.3 12.3 205 205 205
13.1 -24.3 12.3 205 205 205
13.5 -24.4 12.4 206 206 206
13.7 -24.4 12.4 206 206 206
14.0 -24.4 12.3 206 206 206
14.3 -24.4 12.3 206 206 206
14.4 -24.1 12.2 206 206 206
15.1 -24.3 12.3 206 206 206
15.4 -24.3 12.3 206 206 206
15.7 -24.3 12.3 206 206 206
41.5 -62.0 31.4 206 206 206
41.9 -61.4 31.1 206 206 206
42.6 -61.4 31.1 206 206 206
43.1 -61.1 31.0 206 206 206
44.9 -61.6 31.2 206 206 206
45.4 -61.3 31.1 206 206 206
46.0 -61.2 31.0 206 206 206
46.5 -60.9 30.9 206 206 206
47.6 -61.4 31.1 206 206 206
48.5 -61.6 31.2 206 206 206
50.8 -63.5 32.2 206 206 206
51.2 -63.1 32.0 206 206 206
50.9 -61.8 31.3 206 206 206
51.3 -61.5 31.2 206 206 206
28.0 -29.0 14.7 205 205 205
28.2 -28.9 14.7 205 205 205
28.7 -29.1 14.7 206 206 206
29.2 -29.2 14.8 206 206 206
97.3 -50.7 25.7 111 113 112
-34.3 -23.8 12.2 59 61 59
-34.0 -23.8 12.2 59 61 59
-33.7 -23.8 12.2 59 61 59
-33.5 -23.8 12.2 59 61 59
-33.2 -23.8 12.2 57 57 57
-32.9 -23.8 12.2 58 58 58
-32.6 -23.8 12.2 59 61 59
-32.4 -23.8 12.2 59 61 59
-32.0 -23.8 12.2 59 61 59
-31.8 -23.8 12.2 59 61 59
-31.5 -23.8 12.2 59 61 59
-31.2 -23.8 12.2 63 63 63
-30.9 -23.8 12.2 60 62 60
-30.6 -23.8 12.2 58 58 58
-30.3 -23.8 12.2 56 56 56
-30.1 -23.8 12.2 56 56 56
-29.8 -23.8 12.2 56 56 56
-29.5 -23.8 12.2 53 53 53
-29.2 -23.8 12.2 52 52 50
-28.9 -23.8 12.2 52 52 50
-28.6 -23.8 12.2 52 52 50
-27.8 -23.8 12.2 49 49 49
-27.5 -23.8 12.2 49 49 49
-27.2 -23.8 12.2 49 49 49
-27.0 -23.8 12.2 50 50 50
-26.7 -23.8 12.2 50 50 50
-26.4 -23.8 12.2 50 50 50
-26.1 -23.8 12.2 50 50 50
-25.8 -23.8 12.2 47 48 47
-25.5 -23.8 12.2 45 45 45
-25.2 -23.8 12.2 46 46 46
-25.0 -23.8 12.2 48 48 48
-24.7 -23.8 12.2 46 46 46
-24.0 -24.0 12.3 46 46 46
-23.5 -23.8 12.2 48 48 48
-23.2 -23.7 12.2 44 44 44
-22.8 -23.6 12.1 45 45 45
-20.7 -23.7 12.2 40 40 40
-20.4 -23.8 12.2 41 41 41
-11.3 -23.7 12.2 29 30 28
-10.9 -23.4 12.0 29 30 28
-10.8 -23.8 12.2 32 31 30
-10.6 -23.9 12.2 32 32 32
-10.2 -23.8 12.2 34 34 34
-9.9 -23.6 12.1 36 36 36
-9.6 -23.7 12.1 160 160 160
-9.3 -23.7 12.1 186 186 186
-9.1 -23.7 12.2 184 187 186
-8.8 -23.7 12.1 190 190 190
-8.5 -23.8 12.2 226 229 228
-8.3 -23.8 12.2 226 229 228
-8.0 -23.8 12.2 226 229 228
-7.7 -23.8 12.2 226 229 228
-7.4 -23.7 12.1 224 226 226
-7.1 -23.6 12.1 224 226 226
-6.8 -23.8 12.2 224 226 226
-6.5 -23.7 12.2 224 224 224
-4.0 -24.0 12.3 208 211 210
-3.7 -23.7 12.2 208 211 210
-3.4 -23.8 12.2 208 208 208
-3.2 -23.8 12.2 208 208 208
-2.3 -23.8 12.2 200 200 200
-2.0 -23.8 12.2 204 204 204
-1.7 -23.7 12.2 200 200 200
-1.4 -23.6 12.1 200 200 200
0.5 -23.8 12.2 198 198 198
0.8 -23.8 12.2 196 196 196
1.1 -23.8 12.2 196 196 196
1.4 -23.8 12.2 196 196 196
1.7 -23.8 12.2 196 196 196
1.9 -23.7 12.2 193 193 193
2.8 -24.0 12.3 190 190 190
3.1 -23.8 12.2 188 188 188
3.4 -23.8 12.2 188 188 188
3.6 -23.8 12.2 184 184 184
4.2 -23.8 12.2 184 184 184
4.5 -23.8 12.2 182 182 182
4.8 -23.8 12.2 182 182 182
5.3 -23.8 12.2 179 179 179
5.6 -23.8 12.2 202 202 202
6.5 -23.8 12.2 208 208 208
6.8 -23.8 12.2 208 208 208
7.0 -23.8 12.2 208 208 208
7.3 -23.8 12.2 208 208 208
7.6 -23.8 12.2 208 208 208
7.9 -23.8 12.2 208 208 208
8.2 -23.8 12.2 208 208 208
8.5 -23.8 12.2 208 208 208
8.7 -23.8 12.2 208 208 208
9.0 -23.8 12.2 208 208 208
9.3 -23.8 12.2 208 208 208
9.6 -23.8 12.2 208 208 208
9.9 -23.8 12.2 208 208 208
10.2 -23.8 12.2 208 208 208
10.4 -23.8 12.2 208 208 208
10.7 -23.8 12.2 208 208 208
11.0 -23.8 12.2 205 205 205
11.3 -23.8 12.2 205 205 205
11.6 -23.8 12.2 205 205 205
11.8 -23.8 12.2 205 205 205
12.1 -23.8 12.2 205 205 205
12.4 -23.8 12.2 205 205 205
12.7 -23.8 12.2 205 205 205
13.0 -23.8 12.2 205 205 205
13.3 -23.8 12.2 205 205 205
13.6 -23.8 12.2 205 205 205
13.9 -23.8 12.2 205 205 205
14.2 -23.8 12.2 205 205 205
14.4 -23.8 12.2 207 207 207
14.7 -23.8 12.2 207 207 207
15.0 -23.8 12.2 207 207 207
15.3 -23.8 12.2 207 207 207
15.6 -23.8 12.2 207 207 207
41.3 -61.0 31.3 205 205 205
41.8 -60.6 31.1 205 205 205
42.6 -60.7 31.1 205 205 205
43.2 -60.5 31.0 205 205 205
44.7 -60.7 31.1 205 205 205
45.2 -60.4 31.0 205 205 205
46.0 -60.5 31.0 207 207 207
46.6 -60.3 30.9 205 205 205
47.5 -60.5 31.0 205 205 205
48.4 -60.7 31.1 205 205 205
50.2 -62.0 31.8 205 205 205
50.8 -61.9 31.7 206 206 206
50.5 -60.7 31.1 206 206 206
51.3 -60.7 31.1 206 206 206
28.0 -28.7 14.7 205 205 205
28.0 -28.4 14.6 205 205 205
28.2 -28.2 14.5 205 205 205
29.1 -28.8 14.8 205 205 205
95.6 -49.3 25.3 111 113 112
95.3 -48.8 25.0 111 113 112
92.6 -47.1 24.2 109 111 111
-34.4 -23.5 12.2 59 61 59
-34.2 -23.6 12.2 60 62 60
-33.9 -23.6 12.2 60 62 60
-33.6 -23.6 12.2 60 62 60
-33.3 -23.6 12.2 60 62 60
-33.0 -23.6 12.2 60 62 60
-32.8 -23.7 12.3 60 62 60
-32.5 -23.6 12.3 63 63 63
-32.2 -23.6 12.2 64 64 64
-31.9 -23.6 12.2 64 64 64
-31.6 -23.6 12.2 60 62 60
-31.3 -23.6 12.2 60 62 60
-31.0 -23.6 12.2 60 62 60
-30.8 -23.6 12.2 58 59 59
-30.5 -23.6 12.2 56 56 56
-30.2 -23.6 12.2 56 56 56
-29.9 -23.6 12.3 57 57 57
-29.6 -23.6 12.2 53 52 51
-29.3 -23.6 12.2 53 52 51
-28.5 -23.9 12.4 53 52 51
-28.0 -23.6 12.3 50 50 50
-27.6 -23.6 12.2 50 50 50
-27.4 -23.6 12.3 50 50 50
-27.0 -23.5 12.2 51 51 51
-26.7 -23.5 12.2 54 53 52
-26.5 -23.6 12.2 54 53 52
-26.2 -23.6 12.2 51 51 51
-25.9 -23.6 12.2 51 51 51
-25.6 -23.6 12.2 51 51 51
-24.0 -23.7 12.3 47 48 47
-23.7 -23.7 12.3 45 45 45
-23.3 -23.6 12.2 46 46 46
-11.4 -23.5 12.2 28 28 28
-10.9 -23.7 12.3 29 30 28
-10.6 -23.7 12.3 32 31 30
-10.3 -23.6 12.3 36 36 36
-9.9 -23.5 12.2 41 41 41
-9.7 -23.5 12.2 166 169 168
-9.4 -23.5 12.2 186 188 187
-9.1 -23.5 12.2 183 186 185
-8.8 -23.5 12.2 189 189 189
-8.6 -23.7 12.3 226 229 228
-8.3 -23.6 12.2 230 229 227
-8.0 -23.6 12.2 230 229 227
-7.7 -23.6 12.2 225 227 227
-7.4 -23.5 12.2 225 227 227
-7.1 -23.5 12.2 225 227 227
-6.9 -23.6 12.2 225 227 227
-6.6 -23.5 12.2 224 226 226
-4.0 -23.7 12.3 210 213 212
-3.7 -23.5 12.2 210 213 212
-3.4 -23.6 12.2 210 213 212
-3.2 -23.6 12.2 210 213 212
-2.3 -23.6 12.2 207 207 207
-2.0 -23.6 12.2 207 207 207
-1.7 -23.5 12.2 205 205 205
1.1 -23.6 12.2 198 198 198
1.4 -23.6 12.2 195 195 195
1.7 -23.6 12.2 195 195 195
1.9 -23.5 12.2 195 195 195
2.3 -23.8 12.3 195 195 195
2.5 -23.8 12.3 192 192 192
2.8 -23.7 12.3 192 192 192
3.1 -23.7 12.3 189 189 189
3.4 -23.6 12.2 189 189 189
3.7 -23.6 12.2 186 186 186
3.9 -23.5 12.2 186 186 186
4.5 -23.7 12.3 183 183 183
5.1 -23.7 12.3 181 181 181
5.4 -23.6 12.2 178 178 178
5.6 -23.6 12.2 204 204 204
6.0 -23.7 12.3 207 207 207
6.3 -23.8 12.3 207 207 207
6.5 -23.6 12.3 209 209 209
6.8 -23.6 12.2 209 209 209
7.1 -23.8 12.3 209 209 209
7.4 -23.6 12.2 209 209 209
7.6 -23.6 12.2 207 207 207
7.9 -23.6 12.2 207 207 207
8.2 -23.6 12.2 207 207 207
8.5 -23.6 12.2 207 207 207
8.8 -23.6 12.2 207 207 207
9.1 -23.6 12.2 207 207 207
9.4 -23.6 12.3 207 207 207
9.6 -23.6 12.2 207 207 207
9.9 -23.6 12.2 207 207 207
10.2 -23.6 12.2 207 207 207
10.5 -23.6 12.2 207 207 207
10.8 -23.6 12.2 207 207 207
11.1 -23.6 12.2 207 207 207
11.3 -23.6 12.2 207 207 207
11.6 -23.6 12.2 207 207 207
11.9 -23.5 12.2 207 207 207
12.2 -23.5 12.2 204 204 204
12.5 -23.6 12.2 204 204 204
12.8 -23.6 12.3 204 204 204
13.1 -23.6 12.2 207 207 207
13.4 -23.7 12.3 207 207 207
13.9 -23.7 12.3 207 207 207
14.3 -23.7 12.3 207 207 207
14.4 -23.5 12.2 207 207 207
14.7 -23.6 12.2 207 207 207
15.1 -23.6 12.3 207 207 207
15.3 -23.6 12.2 207 207 207
41.1 -59.9 31.1 207 207 207
44.5 -59.6 30.9 205 205 205
44.6 -58.8 30.5 205 205 205
45.9 -58.6 30.4 205 205 205
47.8 -59.3 30.8 205 205 205
49.7 -60.7 31.5 205 205 205
50.3 -60.6 31.4 205 205 205
50.1 -59.5 30.9 205 205 205
48.7 -57.0 29.6 205 205 205
28.1 -28.4 14.7 207 207 207
28.1 -28.2 14.6 204 204 204
28.4 -28.1 14.6 204 204 204
29.0 -28.4 14.7 204 204 204
31.3 -29.2 15.1 170 171 170
91.8 -46.2 23.9 109 111 111
-33.3 -23.7 12.4 64 64 64
-32.9 -23.7 12.4 64 64 64
-32.7 -23.7 12.4 64 64 64
-28.7 -23.7 12.4 54 53 52
-28.3 -23.7 12.4 54 53 52
-26.6 -23.7 12.4 52 52 52
-24.3 -23.7 12.4 48 48 48
-24.0 -23.6 12.4 46 46 46
-11.1 -23.8 12.5 34 34 34
-10.7 -23.7 12.4 29 30 28
-10.4 -23.6 12.4 34 34 34
-10.1 -23.5 12.3 47 48 47
-9.8 -23.6 12.4 176 179 178
-9.6 -23.7 12.4 184 187 186
-9.3 -23.7 12.4 183 186 185
-9.0 -23.7 12.4 188 188 188
-8.7 -23.7 12.4 232 232 232
-8.4 -23.6 12.4 230 230 230
-8.1 -23.6 12.4 232 232 232
-4.1 -23.7 12.4 215 215 215
-2.3 -23.7 12.4 209 212 211
1.1 -23.7 12.4 199 199 199
1.4 -23.7 12.4 199 199 199
1.7 -23.6 12.4 199 199 199
2.0 -23.7 12.4 194 194 194
2.3 -23.8 12.5 194 194 194
2.6 -23.7 12.5 194 194 194
2.9 -23.7 12.4 191 191 191
3.1 -23.7 12.4 191 191 191
3.4 -23.7 12.4 189 189 189
3.7 -23.7 12.4 189 189 189
4.6 -23.7 12.4 183 183 183
5.7 -23.7 12.4 203 203 203
6.0 -23.7 12.5 206 206 206
6.3 -23.7 12.5 209 209 209
6.6 -23.7 12.4 209 209 209
6.9 -23.7 12.4 209 209 209
7.2 -23.7 12.5 209 209 209
7.5 -23.7 12.4 209 209 209
7.8 -23.6 12.4 209 209 209
8.0 -23.7 12.4 209 209 209
8.3 -23.7 12.4 209 209 209
8.6 -23.7 12.4 209 209 209
8.9 -23.7 12.4 207 207 207
9.2 -23.7 12.4 207 207 207
9.5 -23.7 12.4 207 207 207
9.8 -23.7 12.4 207 207 207
10.1 -23.7 12.4 207 207 207
10.4 -23.7 12.4 207 207 207
10.7 -23.7 12.4 207 207 207
10.9 -23.7 12.4 207 207 207
11.2 -23.7 12.4 207 207 207
11.5 -23.7 12.4 207 207 207
11.8 -23.7 12.4 207 207 207
12.1 -23.6 12.4 207 207 207
12.4 -23.6 12.4 204 204 204
12.7 -23.7 12.4 204 204 204
13.0 -23.7 12.4 204 204 204
13.3 -23.7 12.4 207 207 207
13.6 -23.7 12.5 207 207 207
13.9 -23.7 12.5 207 207 207
14.2 -23.7 12.5 207 207 207
14.4 -23.7 12.4 207 207 207
14.6 -23.6 12.4 207 207 207
15.0 -23.7 12.4 207 207 207
15.3 -23.7 12.4 207 207 207
15.6 -23.7 12.4 207 207 207
40.5 -54.5 28.6 206 206 206
44.0 -58.3 30.6 206 206 206
44.4 -57.8 30.4 206 206 206
47.0 -57.6 30.3 207 207 207
49.9 -60.3 31.6 207 207 207
50.6 -60.1 31.6 207 207 207
49.4 -57.9 30.4 207 207 207
48.1 -55.6 29.2 205 205 205
47.7 -54.4 28.6 205 205 205
28.0 -28.0 14.7 206 206 206
28.1 -27.8 14.6 206 206 206
28.3 -27.7 14.5 204 204 204
28.8 -27.8 14.6 204 204 204
30.5 -28.5 15.0 207 207 207
30.8 -28.4 14.9 170 171 170
30.5 -27.8 14.6 183 183 183
91.4 -45.4 23.9 108 110 110
-11.3 -23.9 12.7 59 61 59
-10.9 -23.8 12.6 64 65 63
-10.5 -23.5 12.5 36 37 36
-10.3 -23.7 12.6 46 46 46
-10.1 -24.0 12.7 183 183 183
39.9 -53.1 28.2 206 206 206
44.1 -57.7 30.7 206 206 206
43.8 -53.8 28.6 206 206 206
50.1 -59.7 31.7 206 206 206
50.9 -59.8 31.8 206 206 206
49.6 -57.5 30.6 206 206 206
47.5 -54.3 28.8 207 207 207
47.2 -53.1 28.2 207 207 207
48.0 -53.3 28.3 207 207 207
49.2 -53.9 28.7 205 205 205
50.3 -53.0 28.1 205 205 205
28.4 -27.4 14.6 206 206 206
28.8 -27.5 14.6 206 206 206
30.7 -28.2 15.0 206 206 206
30.8 -28.1 14.9 170 172 172
30.8 -27.7 14.7 181 181 181
-11.3 -23.7 12.8 22 25 23
-11.0 -23.6 12.7 85 87 87
-10.6 -23.4 12.6 25 25 25
-10.4 -23.6 12.7 47 47 47
-10.2 -23.8 12.8 184 184 184
40.3 -53.7 28.9 206 206 206
40.1 -52.6 28.3 206 206 206
44.6 -57.6 31.0 206 206 206
43.8 -53.1 28.6 206 206 206
50.6 -59.6 32.1 206 206 206
51.2 -59.4 32.0 206 206 206
50.5 -57.8 31.1 206 206 206
47.6 -53.7 28.9 206 206 206
47.3 -52.6 28.3 206 206 206
48.0 -52.7 28.4 206 206 206
49.4 -53.4 28.7 207 207 207
48.6 -50.6 27.2 207 207 207
28.2 -27.2 14.7 205 205 205
28.7 -27.1 14.6 205 205 205
31.9 -29.7 16.0 205 205 205
30.6 -27.9 15.0 198 198 198
30.7 -27.7 14.9 172 174 174
30.8 -27.4 14.7 180 180 180
-10.0 -20.2 11.0 44 44 44
-11.3 -23.4 12.7 52 52 50
-11.0 -23.3 12.7 79 79 79
-10.6 -23.1 12.6 37 38 37
-10.5 -24.4 13.3 183 186 185
-10.3 -24.4 13.3 182 185 184
39.8 -51.7 28.1 205 205 205
44.6 -56.9 31.0 205 205 205
45.0 -56.5 30.8 205 205 205
44.0 -52.8 28.7 205 205 205
50.5 -58.7 32.0 205 205 205
50.9 -58.3 31.8 205 205 205
50.2 -56.7 30.9 206 206 206
48.5 -54.1 29.5 206 206 206
48.2 -52.9 28.8 206 206 206
49.7 -53.1 28.9 206 206 206
47.7 -49.6 27.0 206 206 206
47.9 -49.2 26.8 206 206 206
28.3 -27.0 14.7 205 205 205
28.8 -26.5 14.5 205 205 205
30.9 -27.8 15.1 205 205 205
31.3 -27.8 15.1 167 167 167
30.6 -26.9 14.7 181 181 181
97.6 -49.4 26.9 162 165 164
-10.6 -24.3 13.4 182 185 184
-10.3 -24.3 13.4 181 184 183
-10.2 -24.7 13.6 185 185 185
-9.8 -24.6 13.6 185 185 185
39.9 -51.2 28.2 205 205 205
43.4 -51.3 28.3 207 207 207
50.7 -58.2 32.1 205 205 205
50.9 -57.6 31.8 205 205 205
49.2 -54.9 30.3 205 205 205
47.2 -51.9 28.7 205 205 205
49.5 -52.2 28.8 206 206 206
50.3 -52.3 28.9 206 206 206
47.5 -48.7 26.9 206 206 206
47.0 -47.7 26.3 206 206 206
47.8 -47.8 26.4 206 206 206
101.5 -51.1 28.2 166 166 166
96.8 -48.4 26.7 159 162 161
-32.4 -24.7 13.8 60 60 60
-32.3 -24.8 13.9 62 62 62
-31.8 -24.7 13.8 62 62 62
-31.4 -24.7 13.8 60 60 60
-10.7 -24.1 13.5 182 185 184
-10.5 -24.4 13.6 180 183 182
-10.3 -24.6 13.7 184 184 184
-10.0 -24.6 13.8 179 182 181
39.9 -50.5 28.2 204 204 204
51.0 -57.0 31.8 205 205 205
48.8 -53.8 30.1 207 207 207
46.9 -51.0 28.5 205 205 205
50.1 -52.9 29.6 205 205 205
49.5 -51.6 28.8 205 205 205
49.9 -51.3 28.7 205 205 205
47.6 -48.3 27.0 205 205 205
47.1 -47.1 26.3 205 205 205
47.6 -47.0 26.3 206 206 206
104.4 -51.9 29.0 166 166 166
97.5 -48.1 26.9 162 165 164
85.3 -41.6 23.2 156 156 156
-39.2 -24.6 13.9 67 67 67
-38.9 -24.6 13.9 67 67 67
-38.6 -24.6 13.9 67 67 67
-38.3 -24.6 14.0 67 67 67
-38.0 -24.6 14.0 68 68 68
-37.6 -24.6 13.9 70 72 69
-37.3 -24.6 13.9 68 68 68
-37.0 -24.6 13.9 68 68 68
-36.7 -24.6 13.9 71 72 70
-36.3 -24.6 13.9 68 68 68
-36.0 -24.6 13.9 69 69 69
-35.7 -24.6 13.9 69 69 69
-35.4 -24.6 13.9 69 69 69
-35.0 -24.6 13.9 69 69 69
-34.7 -24.6 13.9 67 68 66
-34.6 -24.8 14.0 67 68 66
-34.0 -24.6 13.9 70 70 70
-33.8 -24.7 14.0 70 70 70
-33.7 -24.8 14.0 65 65 65
-33.1 -24.6 13.9 67 69 67
-32.8 -24.6 14.0 63 63 63
-32.5 -24.6 14.0 63 63 63
-32.1 -24.6 13.9 61 61 61
-31.8 -24.6 13.9 61 61 61
-27.8 -24.5 13.9 58 59 59
-27.4 -24.5 13.9 59 59 59
-27.2 -24.6 13.9 57 57 57
-27.0 -24.7 14.0 57 57 57
-11.4 -24.7 14.0 55 56 54
-11.0 -24.4 13.8 181 184 183
-10.7 -24.4 13.8 179 182 181
-10.4 -24.5 13.9 180 183 182
-10.1 -24.6 13.9 182 182 182
-9.5 -24.8 14.1 223 225 225
39.8 -49.7 28.1 207 207 207
43.2 -49.8 28.2 207 207 207
51.3 -56.6 32.1 207 207 207
48.2 -52.4 29.7 207 207 207
46.9 -50.3 28.5 204 204 204
50.1 -52.2 29.6 205 205 205
49.7 -51.1 29.0 207 207 207
50.0 -50.7 28.7 205 205 205
47.9 -47.9 27.1 205 205 205
47.7 -47.1 26.7 205 205 205
47.7 -46.5 26.3 205 205 205
48.5 -46.7 26.5 205 205 205
93.9 -45.7 25.9 166 166 166
89.1 -43.1 24.4 159 162 161
85.3 -41.0 23.2 156 156 156
-40.1 -24.8 14.2 67 67 67
-40.0 -24.9 14.3 68 68 68
-39.6 -24.9 14.3 68 68 68
-39.3 -24.9 14.3 68 68 68
-39.0 -24.9 14.3 68 68 68
-38.6 -24.9 14.3 71 72 70
-38.3 -24.9 14.3 71 72 70
-38.0 -24.9 14.3 71 72 70
-37.6 -24.9 14.3 72 73 71
-37.3 -24.9 14.3 69 69 69
-36.9 -24.9 14.3 70 70 70
-36.6 -24.9 14.3 72 73 71
-36.2 -24.9 14.3 70 70 70
-35.9 -24.9 14.3 70 70 70
-35.6 -24.9 14.3 70 70 70
-35.2 -24.9 14.3 71 71 71
-34.8 -24.8 14.3 71 71 71
-34.7 -25.0 14.3 67 69 67
-34.2 -24.9 14.3 66 66 66
-33.9 -24.9 14.3 66 66 66
-33.8 -25.0 14.4 64 64 64
-33.3 -24.9 14.3 64 64 64
-32.8 -24.8 14.2 62 62 62
-32.6 -24.9 14.3 64 64 64
-28.1 -25.0 14.4 60 60 60
-27.6 -24.9 14.3 64 63 61
-10.3 -21.5 12.3 51 51 51
-11.7 -24.9 14.3 54 54 54
-10.8 -24.5 14.1 179 182 181
-10.5 -24.6 14.1 183 183 183
-10.3 -24.8 14.2 183 183 183
-10.0 -24.9 14.3 212 214 214
-9.7 -24.9 14.3 219 219 219
11.0 -17.5 10.1 206 206 206
44.3 -51.2 29.4 206 206 206
43.8 -49.8 28.6 206 206 206
51.0 -55.5 31.8 207 207 207
48.4 -51.9 29.8 204 204 204
47.5 -50.2 28.8 207 207 207
50.1 -51.6 29.6 207 207 207
52.4 -53.1 30.5 207 207 207
51.0 -51.0 29.3 207 207 207
47.8 -47.2 27.1 207 207 207
47.9 -46.7 26.8 207 207 207
47.9 -46.1 26.5 207 207 207
48.6 -46.2 26.5 205 205 205
93.9 -45.1 25.9 166 166 166
88.8 -42.4 24.3 159 162 161
83.9 -39.8 22.9 158 158 158
-35.1 -25.7 15.0 67 67 67
-33.8 -24.9 14.5 67 67 67
-27.9 -24.9 14.5 61 61 61
-10.9 -24.4 14.2 178 181 180
-10.6 -24.5 14.2 179 182 181
-10.4 -24.8 14.4 175 177 177
-10.1 -24.8 14.4 203 203 203
-9.8 -24.8 14.4 208 208 208
45.5 -51.9 30.2 206 206 206
51.7 -56.3 32.8 208 211 210
51.5 -55.3 32.2 206 206 206
49.1 -51.9 30.2 208 211 210
50.6 -52.1 30.3 208 211 210
50.9 -51.7 30.1 208 211 210
47.7 -46.4 27.0 207 207 207
47.8 -46.0 26.8 207 207 207
48.0 -45.5 26.5 207 207 207
48.8 -45.7 26.6 207 207 207
49.7 -46.0 26.8 207 207 207
88.5 -41.7 24.3 162 165 164
84.9 -39.7 23.1 156 156 156
-10.7 -24.4 14.4 178 181 180
-10.1 -24.5 14.5 193 193 193
46.4 -52.2 30.8 207 210 209
46.7 -51.7 30.5 207 210 209
51.4 -55.2 32.6 208 211 210
51.2 -54.3 32.0 208 211 210
50.5 -52.8 31.1 208 211 210
52.5 -54.1 31.9 208 211 210
52.0 -52.8 31.1 208 211 210
51.9 -52.0 30.7 208 211 210
56.1 -55.4 32.7 208 211 210
56.9 -55.4 32.7 208 211 210
47.9 -44.9 26.5 207 207 207
48.7 -45.0 26.6 207 207 207
49.0 -44.8 26.4 207 207 207
1501.1 -668.2 394.1 116 118 117
-10.7 -24.8 14.8 178 178 178
51.8 -54.9 32.8 207 210 209
51.8 -54.1 32.3 207 210 209
52.0 -52.0 31.1 208 211 210
61.4 -59.8 35.8 208 211 210
58.8 -56.5 33.8 208 211 210
48.0 -44.3 26.5 204 204 204
48.9 -44.6 26.7 204 204 204
48.8 -43.9 26.3 207 207 207
46.7 -41.5 24.8 207 207 207
-11.1 -25.3 15.4 176 176 176
51.7 -54.1 32.8 207 210 209
51.6 -53.1 32.2 207 210 209
50.6 -51.4 31.2 207 210 209
52.3 -51.6 31.3 207 210 209
62.1 -59.6 36.2 207 210 209
60.5 -57.3 34.8 207 210 209
65.4 -61.2 37.1 208 211 210
48.2 -43.9 26.6 208 211 210
48.8 -43.3 26.3 208 211 210
47.3 -41.5 25.2 208 211 210
105.4 -88.1 53.4 207 207 207
-11.7 -26.3 16.2 177 177 177
-11.6 -27.0 16.6 156 159 158
52.3 -53.9 33.1 205 205 205
52.5 -53.3 32.8 205 205 205
62.8 -59.5 36.6 209 212 211
66.8 -62.4 38.4 207 210 209
67.3 -62.0 38.1 207 210 209
66.7 -60.7 37.3 207 210 209
48.6 -42.0 25.8 208 211 210
104.5 -86.1 53.0 207 207 207
70.9 -33.1 20.3 180 180 180
-11.8 -26.2 16.3 180 180 180
-11.7 -26.8 16.7 159 162 161
-11.3 -26.8 16.7 156 159 158
52.2 -53.0 33.1 208 211 210
68.5 -64.8 40.4 206 209 208
69.0 -63.6 39.7 207 210 209
69.9 -63.6 39.7 207 210 209
70.1 -62.9 39.2 207 210 209
49.4 -42.1 26.3 208 211 210
54.9 -44.1 27.5 208 211 210
74.8 -34.6 21.6 181 181 181
72.7 -33.4 20.9 181 181 181
54.3 -24.0 15.0 173 173 173
54.4 -23.9 14.9 165 168 167
54.6 -23.9 14.9 162 162 162
-11.7 -25.5 16.2 182 182 182
-11.7 -26.4 16.7 166 166 166
-11.5 -26.7 16.9 163 163 163
52.0 -52.0 33.0 208 211 210
52.1 -51.4 32.6 208 211 210
69.3 -65.5 41.5 208 211 210
68.9 -64.2 40.7 208 211 210
69.9 -63.4 40.2 209 212 211
71.1 -63.7 40.3 206 209 208
70.1 -62.0 39.2 207 210 209
55.1 -44.1 27.9 208 211 210
55.3 -43.7 27.7 208 211 210
56.1 -43.9 27.8 208 211 210
73.9 -33.9 21.5 182 182 182
74.4 -33.9 21.5 182 182 182
73.8 -33.5 21.2 182 182 182
54.9 -23.9 15.1 170 172 172
54.6 -23.6 15.0 166 169 168
54.8 -23.6 14.9 161 161 161
55.1 -23.6 14.9 154 154 154
-11.8 -26.2 16.8 169 169 169
-11.5 -26.5 17.1 166 166 166
52.1 -51.4 33.0 207 210 209
52.5 -51.0 32.8 207 210 209
70.5 -65.7 42.2 208 211 210
70.1 -64.4 41.4 208 211 210
71.3 -63.7 40.9 208 211 210
72.4 -63.8 41.0 206 209 208
72.5 -63.2 40.6 206 209 208
55.4 -43.7 28.1 208 211 210
56.0 -43.2 27.7 208 211 210
74.8 -33.9 21.8 183 183 183
75.0 -33.7 21.7 183 183 183
74.5 -33.3 21.4 183 183 183
56.2 -24.1 15.5 175 175 175
55.3 -23.6 15.2 168 170 169
-11.9 -26.0 16.9 174 176 176
-11.6 -26.3 17.2 169 169 169
49.2 -46.5 30.3 207 210 209
73.7 -66.7 43.5 208 211 210
72.5 -64.7 42.2 208 211 210
72.7 -64.0 41.8 208 211 210
74.3 -64.6 42.1 208 211 210
74.9 -64.3 41.9 208 211 210
75.4 -33.4 21.8 184 184 184
74.9 -32.9 21.5 184 184 184
61.1 -25.5 16.7 164 164 164
1501.1 -604.1 394.1 128 131 130
-12.0 -25.8 17.1 175 177 177
-11.7 -26.1 17.3 173 173 173
73.2 -63.5 42.0 208 211 210
74.8 -64.0 42.4 208 211 210
75.2 -32.8 21.7 185 185 185
74.7 -32.4 21.4 185 185 185
79.3 -34.2 22.6 185 185 185
61.3 -25.4 16.8 169 169 169
61.1 -25.1 16.7 159 162 161
61.5 -25.1 16.7 156 156 156
960.7 -380.7 252.2 131 133 132
-12.1 -27.5 18.5 167 167 167
112.3 -94.7 63.7 208 211 210
75.2 -32.3 21.7 186 186 186
74.9 -31.9 21.5 186 186 186
78.7 -33.4 22.4 186 186 186
79.0 -33.3 22.4 188 190 190
61.5 -25.1 16.9 168 168 168
61.1 -24.7 16.7 160 160 160
61.4 -24.7 16.6 156 156 156
62.2 -24.9 16.7 152 152 152
-35.6 -18.5 12.6 56 55 54
-35.4 -18.5 12.7 67 67 67
-35.1 -18.5 12.7 75 76 76
-34.8 -18.5 12.7 73 73 73
-34.5 -18.5 12.7 41 41 41
-34.2 -18.5 12.7 122 124 123
-33.9 -18.5 12.7 128 131 130
-33.6 -18.5 12.7 4 10 6
-33.3 -18.5 12.7 17 17 17
-31.9 -18.5 12.7 15 15 15
-31.4 -18.5 12.6 29 30 28
-31.2 -18.5 12.7 18 22 19
-31.0 -18.5 12.7 20 23 21
-30.7 -18.5 12.7 35 35 35
-30.4 -18.5 12.7 54 54 54
-30.0 -18.5 12.6 68 68 68
-29.7 -18.5 12.7 70 72 69
-29.5 -18.5 12.7 63 63 63
-29.1 -18.5 12.6 53 52 52
-28.8 -18.5 12.6 55 55 55
-28.5 -18.5 12.6 61 61 61
-28.2 -18.5 12.6 116 118 117
-28.0 -18.5 12.7 88 90 89
-27.7 -18.5 12.7 129 129 129
-27.4 -18.5 12.7 172 172 172
-27.1 -18.5 12.7 47 47 47
-26.8 -18.5 12.7 37 38 37
-26.5 -18.5 12.7 15 15 15
-26.2 -18.5 12.7 8 9 8
-25.3 -18.5 12.6 59 59 57
-24.5 -18.5 12.7 63 63 63
-23.3 -18.5 12.7 70 70 70
-22.5 -18.6 12.7 67 69 67
-21.8 -18.5 12.7 81 83 80
-21.5 -18.5 12.7 149 151 151
-21.2 -18.5 12.7 187 189 189
-20.7 -18.5 12.7 126 128 127
-19.8 -18.5 12.7 28 28 28
-19.5 -18.5 12.7 28 28 28
-19.2 -18.5 12.7 25 25 25
-18.6 -18.5 12.7 30 30 30
-18.3 -18.5 12.7 28 28 28
-18.0 -18.5 12.7 28 28 28
-17.7 -18.6 12.7 28 28 28
-17.4 -18.5 12.7 26 26 26
-17.1 -18.6 12.7 22 25 23
-16.8 -18.5 12.7 91 94 93
-16.5 -18.5 12.7 140 142 141
-16.3 -18.6 12.7 149 151 151
-15.9 -18.5 12.6 50 49 48
-15.6 -18.5 12.6 44 44 44
-15.3 -18.5 12.6 68 70 68
-15.0 -18.5 12.6 111 111 111
-14.7 -18.4 12.6 132 132 132
-14.4 -18.4 12.6 36 36 36
-12.7 -27.4 18.7 176 176 176
-12.3 -27.6 18.9 173 173 173
125.2 -108.1 73.9 207 210 209
120.7 -102.9 70.3 207 210 209
117.6 -98.8 67.6 207 210 209
115.0 -95.4 65.2 207 210 209
111.5 -91.3 62.4 207 210 209
123.6 -99.9 68.3 208 211 210
75.3 -32.0 21.9 188 188 188
75.2 -31.8 21.7 188 188 188
76.0 -31.9 21.8 188 188 188
77.9 -32.5 22.2 188 188 188
78.6 -32.4 22.1 185 185 185
61.8 -24.6 16.8 162 162 162
62.0 -24.6 16.8 156 156 156
62.5 -24.6 16.8 152 152 152
63.1 -24.7 16.9 146 146 146
-35.4 -18.3 12.7 53 52 52
-35.1 -18.3 12.7 67 67 67
-34.8 -18.3 12.7 86 86 86
-34.5 -18.3 12.7 152 154 154
-34.2 -18.3 12.7 57 56 55
-33.9 -18.3 12.7 20 23 21
-33.6 -18.2 12.7 20 23 21
-33.3 -18.2 12.7 25 25 25
-33.0 -18.3 12.7 29 30 28
-32.7 -18.3 12.7 35 35 35
-32.2 -18.3 12.7 152 151 149
-31.9 -18.3 12.7 135 135 135
-31.6 -18.3 12.7 44 43 42
-31.3 -18.2 12.7 152 151 149
-31.0 -18.3 12.7 176 179 178
-30.7 -18.3 12.7 177 180 179
-30.3 -18.2 12.7 129 129 129
-30.0 -18.2 12.6 82 83 81
-29.7 -18.2 12.7 80 82 79
-29.5 -18.2 12.7 73 73 73
-29.2 -18.2 12.7 122 124 123
-28.9 -18.2 12.7 169 169 169
-28.6 -18.2 12.7 179 179 179
-28.3 -18.3 12.7 184 184 184
-28.0 -18.3 12.7 184 184 184
-27.7 -18.3 12.7 206 209 208
-27.4 -18.3 12.7 210 210 210
-27.1 -18.3 12.7 193 193 193
-26.9 -18.3 12.7 205 205 205
-26.6 -18.3 12.7 213 215 215
-26.3 -18.3 12.7 210 210 210
-26.0 -18.3 12.7 174 176 176
-25.7 -18.3 12.7 168 170 169
-25.4 -18.3 12.7 159 162 161
-25.1 -18.3 12.7 150 150 150
-24.8 -18.3 12.7 160 160 160
-24.5 -18.2 12.7 219 219 219
-22.5 -18.3 12.7 119 119 119
-21.9 -18.3 12.7 181 184 183
-21.6 -18.3 12.7 187 189 189
-21.2 -18.2 12.7 180 179 177
-21.0 -18.3 12.7 212 213 212
-20.7 -18.3 12.7 212 214 214
-19.8 -18.3 12.7 35 34 33
-19.5 -18.3 12.7 49 49 49
-19.2 -18.3 12.7 71 71 71
-18.9 -18.3 12.7 86 86 86
-18.6 -18.3 12.7 94 94 94
-18.3 -18.3 12.7 107 107 107
-18.0 -18.3 12.7 107 107 107
-17.7 -18.3 12.7 25 25 25
-17.4 -18.3 12.7 44 46 46
-17.2 -18.3 12.7 87 87 87
-16.8 -18.3 12.7 17 17 17
-16.5 -18.2 12.7 28 28 28
-16.3 -18.3 12.7 60 60 60
-15.9 -18.2 12.7 104 104 104
-15.6 -18.2 12.6 41 41 41
-15.3 -18.2 12.7 77 78 76
-15.1 -18.2 12.7 31 32 30
-14.7 -18.2 12.6 113 115 114
-14.4 -18.1 12.6 57 57 57
-13.1 -27.9 19.4 172 172 172
-12.7 -27.9 19.4 138 140 139
-12.4 -28.3 19.7 29 29 29
135.5 -118.4 82.2 206 209 208
133.9 -115.4 80.2 206 209 208
134.6 -114.4 79.5 206 209 208
132.0 -110.7 76.9 206 209 208
123.3 -102.0 70.8 207 210 209
121.3 -99.0 68.8 207 210 209
135.9 -108.1 75.1 207 210 209
139.3 -109.4 76.0 208 211 210
75.3 -31.6 21.9 189 189 189
75.5 -31.4 21.8 189 189 189
77.2 -31.9 22.2 189 189 189
78.3 -32.2 22.3 189 189 189
79.9 -32.6 22.6 189 189 189
80.3 -32.5 22.6 186 186 186
62.4 -24.5 17.0 161 161 161
62.4 -24.3 16.9 156 156 156
62.9 -24.4 16.9 150 152 152
-30.8 -17.7 12.5 146 146 146
-30.5 -17.7 12.5 184 184 184
-30.2 -17.7 12.5 172 174 174
-30.0 -17.7 12.5 164 164 164
-29.6 -17.7 12.5 141 143 142
-29.3 -17.6 12.5 146 146 146
-29.0 -17.7 12.5 63 63 63
-28.7 -17.7 12.5 78 80 78
-28.5 -17.7 12.5 200 200 200
-28.2 -17.7 12.5 205 205 205
-17.5 -18.0 12.7 103 103 103
-17.2 -18.0 12.7 30 29 29
-16.9 -18.0 12.7 31 32 30
-16.0 -18.0 12.7 66 66 66
-15.4 -17.6 12.4 40 40 40
-15.1 -17.6 12.4 74 74 74
-13.9 -17.6 12.4 43 43 43
-13.2 -27.6 19.5 164 164 164
-12.8 -27.7 19.6 129 132 131
139.9 -117.0 82.6 206 209 208
135.3 -111.7 78.8 206 209 208
121.3 -97.4 68.8 207 210 209
142.7 -111.7 78.8 207 210 209
143.3 -110.7 78.2 207 210 209
146.3 -111.7 78.8 208 211 210
33.3 -19.9 14.1 198 198 198
33.7 -20.0 14.1 198 198 198
34.0 -19.9 14.1 198 198 198
75.8 -31.0 21.9 190 190 190
77.6 -31.6 22.3 190 190 190
78.8 -31.8 22.5 190 190 190
79.9 -32.1 22.6 190 190 190
80.6 -32.1 22.7 188 188 188
79.6 -31.5 22.3 184 184 184
62.9 -24.3 17.1 159 159 159
62.9 -24.1 17.0 152 154 154
63.3 -24.1 17.0 150 150 150
63.7 -24.1 17.0 141 143 142
-30.8 -17.7 12.7 165 168 167
-30.5 -17.7 12.7 124 126 125
-30.1 -17.7 12.7 97 96 94
-52.4 -31.0 22.3 200 200 200
-36.8 -31.0 22.3 198 201 200
-35.8 -31.1 22.3 224 224 224
-17.9 -17.9 12.8 71 72 70
-17.7 -18.0 12.9 27 27 27
-30.0 -30.9 22.2 30 31 30
-16.5 -17.9 12.9 30 31 30
-16.0 -17.7 12.7 30 31 30
-14.6 -31.0 22.3 167 167 167
-13.9 -30.8 22.1 122 124 123
116.2 -91.8 65.9 206 209 208
158.5 -122.0 87.6 207 210 209
150.1 -114.1 81.9 207 210 209
33.3 -19.8 14.2 198 198 198
33.4 -19.6 14.1 196 196 196
33.9 -19.6 14.1 196 196 196
35.0 -20.0 14.4 202 202 202
74.9 -30.2 21.6 193 196 195
76.6 -30.6 22.0 193 196 195
78.3 -31.1 22.3 193 196 195
78.9 -31.2 22.4 191 191 191
79.5 -31.2 22.4 189 189 189
78.3 -30.5 21.9 185 185 185
63.7 -24.2 17.4 158 158 158
63.3 -23.9 17.1 153 153 153
63.7 -23.9 17.1 148 148 148
64.1 -23.9 17.1 141 143 142
-64.0 -31.2 22.7 131 133 132
-63.1 -31.0 22.6 115 115 115
-62.6 -31.0 22.6 24 24 24
-62.1 -31.0 22.6 20 23 21
-61.5 -30.9 22.6 18 22 19
-60.9 -30.9 22.6 18 22 19
-60.4 -30.9 22.6 18 22 19
-59.9 -30.9 22.6 24 24 24
-59.4 -31.0 22.6 25 25 25
-58.8 -30.9 22.5 38 38 38
-58.3 -30.9 22.6 39 41 41
-57.9 -31.0 22.6 48 48 48
-57.3 -30.9 22.6 131 134 133
-56.7 -30.9 22.6 174 176 176
-56.2 -30.9 22.6 157 160 159
-55.6 -30.9 22.5 119 119 119
-55.1 -30.9 22.5 124 126 125
-54.6 -30.9 22.6 163 163 163
-54.2 -31.0 22.6 200 200 200
-53.6 -31.0 22.6 115 117 116
-53.1 -31.0 22.6 45 45 45
-52.5 -30.9 22.5 53 53 53
-52.1 -31.0 22.6 44 43 42
-51.6 -31.0 22.6 64 65 63
-51.0 -31.0 22.6 111 111 111
-50.4 -30.9 22.6 99 99 99
-50.0 -31.0 22.6 98 98 98
-49.5 -31.0 22.6 119 119 119
-48.7 -30.9 22.5 131 131 131
-48.3 -30.9 22.5 132 135 134
-47.9 -31.0 22.6 40 42 42
-47.3 -30.9 22.6 36 37 36
-46.8 -31.0 22.6 54 54 54
-46.3 -31.0 22.6 59 59 59
-45.7 -30.9 22.5 63 63 63
-45.2 -30.9 22.6 63 63 63
-44.5 -30.8 22.5 63 63 63
-44.0 -30.8 22.5 61 61 61
-43.8 -31.0 22.7 59 59 59
-43.1 -31.0 22.6 59 59 59
-42.6 -31.0 22.6 53 53 53
-41.9 -30.9 22.5 16 16 16
-41.4 -30.8 22.5 55 55 55
-41.0 -30.9 22.6 75 76 76
-40.5 -30.9 22.6 93 93 93
-39.9 -30.9 22.6 181 181 181
-39.4 -30.9 22.6 216 219 218
-38.9 -30.9 22.6 221 221 221
-38.4 -30.9 22.6 228 228 228
-37.8 -30.9 22.6 220 220 220
-37.4 -31.0 22.6 224 224 224
-37.0 -31.1 22.7 221 221 221
-36.3 -30.9 22.6 220 220 220
-35.5 -30.7 22.4 218 218 218
-35.1 -30.8 22.5 209 209 209
-34.7 -30.9 22.5 6 6 6
-34.0 -30.8 22.5 74 74 74
-33.4 -30.7 22.4 26 26 26
-33.0 -30.9 22.5 26 26 26
-32.6 -30.9 22.6 29 29 29
-32.0 -30.8 22.5 26 26 26
-31.4 -30.7 22.4 100 100 100
-30.7 -30.6 22.4 30 31 30
-30.3 -30.7 22.4 36 36 36
-30.0 -30.9 22.6 133 133 133
-29.4 -30.9 22.6 36 36 36
-28.9 -30.9 22.6 30 31 30
-28.5 -31.0 22.6 30 31 30
-28.0 -31.0 22.7 43 45 44
-27.4 -31.0 22.6 81 81 81
-26.8 -30.9 22.6 38 38 38
-26.3 -31.0 22.6 80 80 80
-25.9 -31.1 22.7 34 34 34
-16.1 -30.6 22.3 181 181 181
-15.6 -30.5 22.3 180 180 180
-15.1 -30.6 22.3 180 180 180
-14.7 -30.9 22.5 181 181 181
-14.2 -31.0 22.6 164 164 164
161.3 -120.5 88.0 207 210 209
423.1 -312.3 227.9 211 211 211
33.4 -19.5 14.3 198 198 198
34.2 -19.6 14.3 198 198 198
73.0 -29.1 21.2 194 197 196
74.0 -29.3 21.4 194 197 196
75.9 -29.9 21.8 194 197 196
77.0 -30.1 22.0 194 197 196
77.5 -30.1 21.9 192 192 192
78.6 -30.3 22.1 190 190 190
77.8 -29.8 21.7 186 186 186
64.4 -23.7 17.3 141 140 139
64.6 -23.7 17.3 136 136 136
-62.5 -31.7 23.6 27 27 27
-61.4 -31.5 23.4 47 47 47
-60.6 -31.3 23.3 75 76 76
-60.8 -31.7 23.6 84 84 84
-60.2 -31.7 23.5 148 148 148
-59.2 -31.5 23.4 164 167 166
-58.4 -31.3 23.2 158 158 158
-58.2 -31.5 23.4 181 181 181
-57.6 -31.5 23.4 179 179 179
-57.2 -31.5 23.4 203 203 203
-56.7 -31.6 23.4 152 152 152
-56.0 -31.5 23.4 107 109 109
-55.0 -31.2 23.2 64 65 63
-54.7 -31.3 23.3 67 67 67
-53.7 -31.1 23.1 39 41 41
-54.1 -31.6 23.5 27 27 27
-53.7 -31.7 23.5 78 80 78
-53.0 -31.6 23.5 90 90 90
-52.3 -31.5 23.4 85 85 85
-52.0 -31.7 23.5 83 83 83
-44.4 -31.3 23.3 54 54 54
-43.9 -31.4 23.3 50 50 50
-43.4 -31.4 23.3 25 25 25
-38.9 -31.7 23.6 200 202 202
-38.3 -31.7 23.5 205 205 205
-37.2 -31.2 23.2 214 214 214
-31.2 -31.6 23.5 126 129 128
-29.1 -31.7 23.5 36 37 36
-28.2 -31.3 23.2 102 102 102
-15.4 -30.7 22.8 183 183 183
-15.0 -30.8 22.9 180 180 180
-14.6 -31.2 23.2 170 172 172
-14.6 -32.4 24.0 27 27 27
462.1 -335.2 248.9 211 211 211
408.7 -292.8 217.4 211 211 211
572.1 -386.0 286.6 212 213 212
72.6 -28.5 21.1 195 198 197
73.1 -28.4 21.1 195 198 197
77.2 -29.8 22.2 193 193 193
77.3 -29.7 22.0 195 198 197
78.6 -30.0 22.3 188 188 188
79.3 -30.0 22.3 188 188 188
79.3 -29.9 22.2 185 185 185
-15.8 -31.9 24.1 170 171 170
-15.3 -32.2 24.3 148 148 148
-14.9 -32.4 24.5 32 34 33
15.8 -14.5 11.0 207 207 207
516.5 -368.2 278.2 211 211 211
450.1 -316.9 239.4 211 211 211
589.9 -391.2 295.6 212 213 212
178.0 -80.5 60.8 189 191 191
71.4 -27.5 20.8 182 185 184
-16.3 -32.4 24.9 87 87 87
-15.9 -32.8 25.3 90 92 91
-15.8 -33.7 25.9 57 59 59
259.4 -186.3 143.3 210 210 210
273.1 -193.7 148.9 210 210 210
740.3 -482.3 370.9 212 213 212
338.0 -217.7 167.4 212 213 212
86.4 -31.2 24.0 151 151 151
87.2 -31.3 24.1 138 140 139
74.7 -26.0 20.0 134 134 134
75.4 -26.1 20.0 132 132 132
75.5 -25.9 19.9 132 132 132
-18.1 -34.1 26.7 134 137 136
-17.3 -33.7 26.4 88 88 88
-16.6 -33.6 26.3 89 89 89
-16.3 -34.3 26.9 54 54 54
371.4 -265.5 207.9 209 209 209
292.6 -206.5 161.7 210 210 210
309.6 -215.7 168.9 210 210 210
403.7 -277.7 217.4 214 214 214
580.9 -371.7 291.0 212 213 212
357.0 -225.8 176.8 212 213 212
86.6 -30.7 24.1 134 134 134
87.9 -31.0 24.3 131 134 133
73.5 -25.3 19.8 128 131 130
74.7 -25.5 20.0 129 129 129
76.2 -25.9 20.3 128 128 128
75.8 -25.6 20.0 129 129 129
76.1 -25.5 20.0 129 129 129
-18.5 -34.3 27.4 132 132 132
-17.7 -33.9 27.1 91 93 92
-16.9 -33.6 26.8 90 92 91
-16.6 -34.3 27.3 73 75 75
-16.0 -34.4 27.4 109 109 109
407.2 -285.8 227.9 212 213 212
295.2 -204.5 163.1 212 213 212
434.0 -269.5 215.0 212 213 212
86.6 -30.2 24.1 113 115 114
88.5 -30.6 24.4 120 120 120
88.5 -30.4 24.3 123 123 123
73.9 -24.8 19.8 122 122 122
76.3 -25.4 20.3 122 122 122
75.5 -25.0 20.0 124 124 124
75.2 -24.8 19.7 129 129 129
-30.2 -16.1 13.1 17 21 18
-29.7 -16.2 13.1 153 153 153
-19.0 -34.6 28.1 132 132 132
-18.0 -33.9 27.5 94 94 94
-17.1 -33.4 27.1 90 92 91
-16.7 -33.9 27.6 74 76 75
86.4 -29.5 24.0 106 108 108
87.9 -29.8 24.3 111 111 111
74.8 -24.6 20.0 112 112 112
75.7 -24.8 20.1 112 112 112
75.6 -24.6 20.0 117 119 118
74.1 -23.9 19.5 131 131 131
-37.1 -19.1 15.8 17 21 18
-30.7 -15.9 13.2 16 20 17
-30.3 -15.9 13.1 16 16 16
-30.0 -15.9 13.1 25 25 25
-29.7 -15.9 13.2 123 123 123
-29.4 -15.9 13.2 147 149 149
-34.2 -19.0 15.8 129 129 129
-17.3 -33.2 27.5 90 92 91
-16.9 -33.5 27.8 64 63 61
86.2 -28.9 23.9 107 107 107
87.4 -29.1 24.1 108 108 108
51.6 -17.0 14.1 108 110 110
75.9 -24.5 20.3 105 105 105
75.8 -24.2 20.0 77 79 78
74.1 -23.5 19.5 155 155 155
-37.7 -18.8 15.9 29 30 28
-37.2 -18.8 15.8 19 23 20
-36.9 -18.8 15.8 25 25 25
-36.3 -18.8 15.9 23 23 23
-35.8 -18.8 15.9 105 107 107
-35.3 -18.7 15.8 148 150 150
-35.2 -18.8 15.9 149 151 151
-34.8 -18.8 15.9 140 140 140
-34.2 -18.7 15.8 149 151 151
-33.8 -18.7 15.8 147 147 147
86.9 -28.6 24.1 100 102 102
51.1 -16.6 14.0 105 105 105
51.6 -16.7 14.1 102 104 104
51.6 -16.5 14.0 100 102 102
76.1 -23.8 20.1 64 64 64
74.0 -23.0 19.4 156 156 156
-28.0 -14.1 12.2 17 21 18
-27.8 -14.1 12.2 17 21 18
-27.5 -14.2 12.2 104 104 104
-22.9 -11.9 10.3 147 149 149
-10.2 -11.8 10.2 28 28 26
-20.2 -40.2 34.6 93 96 95
-19.5 -40.3 34.7 113 115 114
15.0 -12.1 10.4 209 209 209
557.4 -348.6 300.3 216 216 216
617.4 -343.1 295.6 175 177 177
49.7 -25.4 21.8 203 203 203
50.9 -16.2 14.0 101 103 103
51.6 -16.3 14.1 95 95 95
51.7 -16.3 14.0 87 87 87
51.2 -16.0 13.8 77 77 77
-27.9 -13.8 12.1 137 139 138
-27.6 -13.8 12.1 124 127 126
-27.4 -13.8 12.1 124 127 126
-23.1 -11.8 10.4 172 172 172
-22.9 -11.8 10.4 176 176 176
-10.3 -11.7 10.3 25 27 25
-22.5 -40.6 35.7 95 95 95
-21.6 -40.4 35.5 82 82 82
-20.9 -40.8 35.8 113 114 113
-20.1 -40.7 35.8 119 119 119
14.8 -11.9 10.5 212 213 212
14.9 -11.8 10.4 212 213 212
16.1 -11.9 10.5 211 211 211
408.4 -250.2 220.0 212 213 212
620.2 -341.6 300.3 216 216 216
454.2 -247.4 217.4 179 179 179
314.6 -169.5 148.9 196 196 196
492.0 -259.3 227.9 200 200 200
46.8 -23.2 20.4 203 203 203
45.9 -22.5 19.8 204 204 204
51.1 -15.9 14.0 92 95 94
51.6 -16.0 14.1 87 87 87
-28.1 -13.6 12.2 183 186 185
-27.8 -13.6 12.2 140 140 140
-11.2 -11.9 10.7 26 27 25
-10.9 -11.8 10.6 26 27 25
-25.8 -44.0 39.5 97 100 99
-23.8 -42.0 37.7 95 98 97
-22.8 -41.8 37.5 107 107 107
-22.9 -43.7 39.2 20 20 20
15.2 -12.0 10.7 212 213 212
16.2 -12.0 10.7 211 211 211
16.3 -11.9 10.7 208 208 208
226.2 -127.8 114.6 218 218 218
271.8 -143.4 128.7 196 196 196
492.0 -254.0 227.9 200 200 200
47.3 -22.9 20.6 203 203 203
45.3 -21.8 19.5 203 203 203
51.2 -15.7 14.0 84 84 84
-10.9 -11.6 10.7 26 27 25
-26.7 -44.5 40.8 96 99 98
-24.6 -42.6 39.1 100 100 100
-23.8 -42.8 39.2 110 110 110
-23.5 -43.9 40.2 7 13 9
-22.3 -43.5 39.8 25 25 23
15.2 -11.7 10.7 212 213 212
16.1 -11.8 10.8 216 216 216
16.2 -11.7 10.7 216 216 216
16.4 -11.7 10.7 211 211 211
213.2 -117.9 108.1 220 220 220
308.7 -161.3 147.8 182 182 182
252.9 -130.6 119.7 196 196 196
44.4 -20.9 19.1 203 203 203
51.2 -15.3 14.0 113 115 114
51.7 -15.4 14.1 85 85 85
-19.7 -15.9 14.8 25 25 25
-25.4 -43.0 40.2 101 101 101
-24.3 -42.8 40.1 111 111 111
-24.1 -44.0 41.2 23 24 23
-22.9 -43.6 40.9 30 30 30
15.1 -11.4 10.7 216 216 216
15.3 -11.4 10.7 216 216 216
16.2 -11.5 10.7 216 216 216
16.3 -11.3 10.6 216 216 216
227.5 -123.2 115.3 220 220 220
288.4 -147.5 138.1 184 184 184
44.3 -20.4 19.1 203 203 203
42.6 -19.4 18.2 203 203 203
51.2 -15.0 14.0 118 118 118
51.8 -15.1 14.1 90 90 90
-20.4 -15.8 15.1 105 105 103
-25.0 -43.0 41.1 108 108 108
-24.8 -44.3 42.4 19 19 19
15.0 -11.1 10.6 216 216 216
243.9 -129.2 123.6 220 220 220
270.0 -133.5 127.8 196 196 196
45.2 -20.4 19.5 203 203 203
41.2 -18.2 17.4 204 204 204
51.1 -14.6 14.0 121 121 121
51.7 -14.7 14.1 91 91 91
52.0 -14.7 14.1 79 81 80
-20.5 -15.5 15.1 160 159 157
-36.0 -65.5 64.1 25 25 23
13.5 -10.2 10.0 217 217 217
377.6 -207.8 203.4 219 219 219
226.2 -117.1 114.6 220 220 220
283.4 -137.0 134.2 197 197 197
40.6 -17.5 17.1 203 203 203
39.6 -16.9 16.6 204 204 204
50.9 -14.2 14.0 125 125 125
-112.3 -61.7 61.8 237 237 237
-106.6 -59.4 59.5 230 230 230
-20.3 -15.0 15.0 166 169 168
-36.3 -62.1 62.2 47 48 47
-35.4 -62.9 63.1 20 20 20
-31.1 -60.3 60.4 177 177 177
385.9 -207.5 207.9 219 219 219
297.4 -152.3 152.6 220 220 220
218.2 -110.4 110.6 220 220 220
296.0 -139.9 140.1 195 195 195
39.6 -16.5 16.5 204 204 204
-113.4 -60.9 62.4 226 226 226
-110.1 -59.9 61.4 227 227 227
-20.2 -14.6 15.0 165 168 167
-40.8 -60.9 62.4 93 96 95
-38.9 -60.1 61.6 100 102 102
-36.0 -57.8 59.3 113 115 114
-37.6 -62.7 64.3 46 46 46
-36.0 -62.5 64.1 19 19 19
-33.6 -60.9 62.4 159 159 159
-32.0 -60.7 62.2 176 176 176
220.8 -109.1 111.9 220 223 222
42.5 -17.7 18.1 203 203 203
40.6 -16.7 17.1 205 205 205
39.4 -16.1 16.5 203 203 203
-119.7 -62.7 65.9 206 206 206
-20.3 -14.3 15.0 159 159 159
-40.9 -59.6 62.6 93 96 95
-39.9 -60.2 63.3 100 102 102
-37.9 -59.4 62.4 113 114 113
-38.9 -63.4 66.6 29 29 29
-36.8 -62.5 65.7 22 22 22
-34.5 -61.0 64.1 159 162 161
-33.8 -62.5 65.7 180 180 180
40.4 -16.2 17.1 205 205 205
39.1 -15.5 16.3 203 203 203
-128.2 -65.5 70.6 202 202 202
-20.3 -14.0 15.0 160 160 160
-10.6 -10.8 11.7 34 34 34
-41.1 -65.3 70.3 23 24 23
-38.9 -64.3 69.3 22 22 22
-37.2 -64.3 69.3 168 168 168
213.2 -100.4 108.1 220 223 222
39.1 -15.2 16.3 206 206 206
-19.6 -13.3 14.7 99 99 99
-18.8 -13.0 14.4 43 45 45
-44.5 -69.0 76.3 29 29 29
-41.1 -66.4 73.3 13 17 14
207.3 -95.1 105.1 220 223 222
-19.6 -13.0 14.8 98 98 98
-18.8 -12.7 14.4 146 146 146
198.5 -88.7 100.6 220 223 222
-395.4 -150.4 175.2 67 68 66
-398.7 -153.2 178.5 70 70 70
-363.7 -141.3 164.5 70 70 70
-379.1 -150.4 175.2 64 64 64
-375.6 -159.3 185.5 147 149 149
-307.1 -136.5 159.0 48 48 48
-101.0 -176.6 205.6 179 182 181
16.3 -9.3 10.8 217 220 219
217.0 -94.4 110.0 220 223 222
-578.9 -171.8 205.6 128 128 128
-567.9 -169.9 203.4 131 134 133
-602.0 -181.7 217.4 117 119 118
-603.9 -183.8 220.0 136 136 136
-572.2 -175.6 210.2 56 56 56
-600.7 -185.9 222.5 77 79 77
-562.4 -175.6 210.2 78 80 78
-551.4 -173.7 207.9 71 71 71
-449.4 -164.6 197.0 67 68 66
-435.8 -161.3 193.0 72 73 71
-444.9 -166.4 199.1 71 71 71
-426.8 -161.3 193.0 73 74 72
-431.1 -164.6 197.0 75 76 76
-426.5 -164.6 197.0 81 81 81
-416.4 -171.8 205.6 108 108 106
-416.1 -173.7 207.9 58 58 58
-406.8 -171.8 205.6 65 65 65
-385.3 -164.6 197.0 61 60 59
-361.9 -156.5 187.3 58 58 58
-429.9 -188.1 225.2 51 51 51
-414.8 -183.8 220.0 18 18 18
-370.8 -166.4 199.1 47 46 45
-370.1 -168.1 201.2 58 59 59
-365.4 -168.1 201.2 64 64 64
-128.2 -169.9 203.4 97 97 97
-126.2 -173.7 207.9 73 73 73
-112.7 -161.3 193.0 27 27 27
-109.4 -162.9 195.0 29 29 29
-132.1 -205.3 245.7 162 162 162
-118.6 -192.7 230.7 176 176 176
-105.6 -179.6 215.0 178 181 180
16.2 -9.0 10.8 217 220 219
16.3 -8.9 10.7 216 216 216
275.2 -117.9 141.2 220 223 222
230.4 -97.6 116.8 220 223 222
299.4 -119.7 143.3 173 173 173
259.4 -102.6 122.8 174 176 176
-719.7 -207.6 255.6 128 128 128
-825.3 -240.1 295.6 131 133 132
-770.3 -226.0 278.2 108 110 110
-775.2 -229.3 282.3 104 103 101
-757.3 -226.0 278.2 79 81 79
-837.0 -251.9 310.1 77 79 77
-744.4 -226.0 278.2 78 80 78
-727.2 -222.7 274.1 78 80 78
-533.8 -192.1 236.5 75 76 76
-535.0 -194.5 239.4 75 76 76
-557.7 -204.9 252.2 77 77 77
-689.8 -256.1 315.3 77 77 77
-639.8 -240.1 295.6 83 84 82
-645.8 -256.1 315.3 170 172 172
-555.2 -222.7 274.1 105 105 105
-548.8 -222.7 274.1 42 44 43
-527.2 -216.4 266.4 63 63 63
-468.2 -194.5 239.4 63 63 63
-582.4 -247.8 305.1 53 53 53
-509.6 -219.5 270.2 15 15 15
-463.6 -202.2 248.9 49 49 49
-463.9 -204.9 252.2 58 59 59
-149.1 -192.1 236.5 96 96 96
-179.5 -240.1 295.6 67 67 67
-138.1 -192.1 236.5 30 29 29
-132.6 -192.1 236.5 30 30 30
-154.1 -232.8 286.6 165 168 167
-139.0 -219.5 270.2 177 177 177
-129.0 -213.4 262.7 177 180 179
-110.6 -192.1 236.5 169 169 169
16.2 -8.7 10.8 218 221 220
279.4 -116.4 143.3 220 223 222
214.5 -88.3 108.7 220 223 222
313.6 -121.9 150.1 175 175 175
262.9 -101.1 124.4 180 180 180
229.9 -80.4 99.0 202 202 202
-54.0 -20.3 25.8 124 124 124
-51.0 -19.4 24.6 137 139 138
-167.7 -257.3 326.1 176 176 176
245.1 -298.5 378.3 225 227 227
195.3 -229.6 291.0 222 224 224
210.8 -84.3 106.9 220 223 222
411.3 -157.1 199.1 220 223 222
249.7 -93.3 118.2 170 172 172
226.9 -83.8 106.3 181 181 181
231.1 -78.6 99.6 200 200 200
-57.9 -20.9 27.3 151 151 151
-54.7 -20.0 26.1 122 124 123
-50.6 -18.7 24.4 121 121 121
-48.2 -18.0 23.5 147 149 149
14.4 -60.4 78.8 156 156 156
15.9 -59.1 77.2 156 156 156
53.1 -60.6 79.1 222 224 224
53.4 -58.9 76.9 222 224 224
53.9 -57.5 75.1 222 224 224
16.2 -8.2 10.7 218 221 220
210.8 -81.8 106.9 223 225 225
228.2 -81.8 106.9 156 156 156
161.4 -57.3 74.8 195 195 195
167.8 -58.9 76.9 197 197 197
176.0 -61.1 79.8 197 197 197
175.6 -60.4 78.8 199 199 199
171.7 -58.4 76.3 199 199 199
168.8 -56.8 74.2 200 200 200
173.2 -57.7 75.4 200 200 200
180.7 -59.6 77.8 200 200 200
184.8 -60.4 78.8 200 200 200
189.0 -61.1 79.8 204 204 204
186.9 -59.9 78.2 206 206 206
190.3 -60.4 78.8 202 202 202
190.5 -59.9 78.2 229 229 229
184.7 -57.5 75.1 230 230 230
-54.6 -19.3 26.1 122 124 123
-51.0 -18.3 24.6 121 121 121
54.7 -58.5 78.8 222 224 224
16.2 -8.0 10.7 218 221 220
27.0 -12.2 16.4 222 224 224
28.7 -12.6 17.0 222 224 224
182.8 -63.6 85.6 154 154 154
183.8 -61.9 83.3 197 197 197
183.3 -61.1 82.2 197 197 197
177.5 -58.5 78.8 197 197 197
186.1 -59.5 80.2 200 200 200
197.1 -62.4 84.1 200 200 200
197.3 -61.9 83.3 204 204 204
191.7 -59.5 80.2 207 207 207
191.9 -59.0 79.5 202 202 202
191.3 -58.3 78.5 229 229 229
185.5 -56.0 75.4 232 232 232
-57.0 -19.4 26.9 75 77 75
-53.8 -18.5 25.7 43 45 44
-51.4 -17.9 24.8 68 68 68
16.2 -7.7 10.7 218 221 220
29.4 -12.6 17.6 222 224 224
29.1 -12.3 17.2 222 224 224
143.8 -47.9 66.6 185 185 185
127.8 -42.1 58.6 192 192 192
213.2 -65.4 90.9 200 200 200
204.5 -62.1 86.4 204 204 204
195.8 -58.9 81.9 206 206 206
182.3 -53.8 74.8 234 236 236
-56.8 -18.7 26.8 69 69 69
-54.3 -18.0 25.9 57 57 57
-52.0 -17.5 25.1 59 59 59
16.2 -7.5 10.7 218 221 220
29.4 -12.3 17.6 222 224 224
29.2 -12.0 17.3 222 224 224
134.3 -43.3 62.2 181 181 181
123.9 -39.5 56.8 192 192 192
-288.5 -86.0 127.8 67 67 67
-285.6 -86.0 127.8 58 59 59
-280.7 -85.4 127.0 58 59 59
-219.0 -67.3 100.1 63 62 61
-211.1 -65.6 97.5 63 62 61
-213.2 -67.0 99.6 59 59 59
-203.4 -64.6 96.0 57 57 57
16.2 -7.2 10.7 218 221 220
29.2 -11.6 17.2 222 224 224
35.7 -13.4 20.0 219 222 221
312.1 -99.4 147.8 134 137 136
271.1 -85.4 127.0 159 159 159
429.8 -134.0 199.1 179 179 179
-301.7 -85.9 132.3 177 177 177
-296.6 -85.3 131.4 16 16 16
-297.6 -86.5 133.2 29 29 29
-292.5 -85.9 132.3 28 28 28
-226.2 -67.1 103.4 30 29 29
-209.8 -64.3 99.0 38 38 38
35.6 -12.9 19.9 219 222 221
274.8 -83.6 128.7 158 158 158
434.4 -130.7 201.2 176 176 176
162.8 -43.0 66.1 234 236 236
-263.1 -74.5 119.0 31 32 30
-229.9 -65.8 105.1 32 33 31
-231.3 -66.9 106.9 28 28 28
-230.1 -67.3 107.5 22 25 23
-213.1 -63.0 100.6 25 25 25
35.7 -12.5 20.0 220 223 222
212.0 -67.3 107.5 220 223 222
150.1 -43.6 69.5 176 179 178
197.3 -52.2 83.3 204 204 204
190.8 -50.0 79.8 206 206 206
184.9 -48.0 76.6 202 202 202
181.5 -46.6 74.5 230 230 230
173.7 -44.2 70.6 235 235 235
-264.7 -72.2 119.7 61 60 59
-226.2 -62.3 103.4 61 60 59
16.2 -6.5 10.8 220 223 222
30.5 -11.7 19.3 220 223 222
30.0 -11.3 18.8 220 223 222
30.6 -11.4 18.9 223 225 225
34.7 -11.7 19.4 220 223 222
34.6 -11.5 19.1 220 223 222
34.5 -11.4 18.8 220 223 222
212.0 -64.8 107.5 222 224 224
205.3 -52.8 87.6 202 202 202
201.8 -51.4 85.2 205 205 205
200.1 -50.5 83.7 205 205 205
199.4 -49.8 82.6 199 199 199
192.1 -47.5 78.8 234 234 234
179.0 -43.9 72.8 238 238 238
16.3 -6.3 10.8 220 220 220
30.0 -11.2 19.3 220 223 222
30.5 -11.2 19.3 220 223 222
30.2 -10.9 18.8 220 223 222
30.9 -11.0 19.0 220 220 220
34.5 -11.2 19.3 222 224 224
34.8 -11.1 19.2 222 224 224
34.9 -11.0 19.0 222 224 224
212.0 -62.3 107.5 222 224 224
209.2 -51.7 89.2 202 202 202
202.7 -49.6 85.6 202 202 202
201.9 -49.0 84.4 205 205 205
203.0 -48.7 84.1 203 203 203
16.3 -6.0 10.8 220 220 220
30.5 -10.8 19.3 222 224 224
30.4 -10.6 19.0 222 224 224
34.5 -10.8 19.3 222 224 224
34.6 -10.6 19.1 222 224 224
212.0 -59.8 107.5 223 225 225
203.6 -47.9 86.0 202 202 202
203.7 -47.4 85.2 205 205 205
203.9 -47.0 84.4 203 203 203
204.9 -46.8 84.1 236 236 236
16.2 -5.7 10.8 221 221 221
230.4 -62.3 116.8 223 225 225
202.7 -45.7 85.6 203 203 203
201.9 -45.0 84.4 205 205 205
202.1 -44.6 83.7 197 197 197
203.1 -44.4 83.3 234 234 234
16.3 -5.5 10.8 221 221 221
214.3 -46.2 90.5 205 205 205
210.4 -44.9 88.0 207 207 207
213.4 -45.1 88.4 200 200 200
16.4 -5.3 10.8 219 219 219
233.6 -49.0 100.6 200 200 200
215.3 -44.3 90.9 203 203 203
206.5 -42.1 86.4 206 206 206
207.6 -41.9 86.0 200 200 200
307.4 -57.6 118.2 63 65 65
16.2 -5.0 10.8 220 220 220
16.2 -4.7 10.7 220 220 220
19.9 -4.6 12.4 222 222 222
20.2 -4.6 12.4 222 222 222
20.5 -4.6 12.4 222 222 222
20.8 -4.6 12.4 222 222 222
21.1 -4.6 12.4 222 222 222
21.4 -4.6 12.4 222 222 222
21.7 -4.6 12.4 222 222 222
21.9 -4.6 12.4 222 222 222
22.2 -4.6 12.4 222 222 222
22.5 -4.6 12.4 222 222 222
22.8 -4.6 12.4 222 222 222
23.1 -4.6 12.4 222 222 222
19.9 -4.3 12.5 224 224 224
20.2 -4.3 12.4 224 224 224
20.5 -4.3 12.4 224 224 224
20.8 -4.3 12.4 224 224 224
21.1 -4.3 12.4 224 224 224
21.4 -4.3 12.4 224 224 224
21.6 -4.3 12.4 224 224 224
21.9 -4.3 12.4 224 224 224
22.2 -4.3 12.4 224 224 224
22.5 -4.3 12.4 224 224 224
22.8 -4.3 12.4 224 224 224
23.0 -4.3 12.4 224 224 224
23.3 -4.3 12.4 224 224 224
23.7 -4.3 12.4 224 224 224
23.2 -4.6 14.3 221 221 221
23.5 -4.6 14.3 224 224 224
23.8 -4.6 14.3 224 224 224
24.2 -4.6 14.3 224 224 224
24.5 -4.6 14.3 224 224 224
24.8 -4.6 14.3 224 224 224
25.2 -4.6 14.3 224 224 224
25.5 -4.6 14.2 224 224 224
26.8 -4.6 14.2 224 224 224
25.8 -4.1 13.7 225 225 225
26.0 -4.1 13.6 225 225 225
18.6 -3.0 11.8 219 219 219
20.1 -3.0 11.8 222 222 222
20.3 -3.0 11.8 222 222 222
20.6 -3.0 11.8 222 222 222
20.8 -3.0 11.8 226 226 226
21.1 -3.0 11.8 222 222 222
21.4 -3.0 11.8 222 222 222
21.7 -3.0 11.8 222 222 222
21.9 -3.0 11.8 226 226 226
22.2 -3.0 11.8 226 226 226
22.4 -3.0 11.8 226 226 226
22.7 -3.0 11.8 226 226 226
18.5 -2.7 11.7 220 220 220
21.2 -3.1 13.2 224 224 224
21.8 -2.7 11.7 224 224 224
22.5 -2.7 11.7 224 224 224
26.2 -3.1 13.3 226 226 226
20.4 -2.7 13.1 221 221 221
21.1 -2.7 13.2 221 221 221
21.3 -2.7 13.1 221 221 221
21.7 -2.7 13.2 224 224 224
22.0 -2.7 13.2 224 224 224
22.3 -2.7 13.2 224 224 224
22.7 -2.7 13.2 224 224 224
23.0 -2.7 13.2 224 224 224
23.3 -2.7 13.2 224 224 224
23.7 -2.8 13.2 224 224 224
23.9 -2.7 13.2 224 224 224
24.1 -2.7 13.2 224 224 224
25.3 -2.8 13.3 224 224 224
25.6 -2.8 13.3 224 224 224
25.8 -2.7 13.2 224 224 224
26.1 -2.8 13.2 227 227 227
26.3 -2.7 13.2 224 224 224
26.5 -2.7 13.1 224 224 224
27.0 -2.7 13.2 224 224 224
27.1 -2.7 13.1 227 227 227
264.5 -72.8 394.1 208 208 208
20.0 -2.4 12.9 217 220 219
21.0 -2.4 13.1 221 221 221
20.9 -2.4 12.9 225 225 225
21.1 -2.4 12.8 225 225 225
23.5 -2.4 12.8 225 225 225
25.6 -2.4 13.1 224 224 224
26.0 -2.4 13.0 224 224 224
26.0 -2.4 12.9 224 224 224
26.6 -2.4 13.0 224 224 224
26.6 -2.4 12.9 221 221 221
942.3 -72.8 394.1 200 200 200
951.5 -72.8 394.1 221 221 221
1244.6 -72.8 394.1 92 92 92
198.4 -47.7 295.6 209 209 209
274.8 -59.9 370.9 196 196 196
236.9 -50.1 310.1 198 198 198
240.2 -49.3 305.1 196 196 196
254.4 -49.3 305.1 200 200 200
299.2 -48.5 300.3 42 42 42
19.9 -2.1 12.8 218 221 220
20.6 -2.1 12.8 218 221 220
20.8 -2.1 12.8 222 222 222
21.0 -2.1 12.7 222 222 222
21.3 -2.1 12.8 218 221 220
21.7 -2.1 12.8 222 222 222
22.0 -2.1 12.8 222 222 222
22.2 -2.1 12.8 222 222 222
22.5 -2.1 12.8 222 222 222
22.9 -2.1 12.8 225 225 225
23.2 -2.1 12.8 225 225 225
23.4 -2.1 12.7 225 225 225
23.6 -2.1 12.7 225 225 225
24.1 -2.1 12.8 225 225 225
24.4 -2.1 12.8 225 225 225
24.7 -2.1 12.8 225 225 225
25.1 -2.1 12.9 225 225 225
25.3 -2.1 12.8 225 225 225
25.6 -2.1 12.8 225 225 225
25.8 -2.1 12.8 225 225 225
1159.6 -61.1 378.3 55 54 53
927.3 -48.5 300.3 51 51 51
20.0 -1.8 12.9 219 222 221
20.9 -1.8 12.8 222 222 222
17.6 -1.5 10.5 226 226 226
26.0 -1.9 13.5 226 226 226
14.8 -1.2 10.1 214 214 214
15.0 -1.2 10.1 216 216 216
15.3 -1.2 10.2 217 220 219
15.6 -1.2 10.2 216 219 218
15.8 -1.2 10.1 216 219 218
16.0 -1.2 10.1 216 219 218
16.5 -1.2 10.2 219 222 221
17.5 -1.2 10.6 219 222 221
17.6 -1.2 10.5 224 224 224
17.4 -1.2 10.3 224 224 224
17.5 -1.2 10.2 224 224 224
17.7 -1.2 10.2 224 224 224
18.0 -1.2 10.2 224 224 224
18.2 -1.2 10.2 224 224 224
18.4 -1.2 10.2 224 224 224
18.7 -1.2 10.2 226 226 226
18.9 -1.2 10.2 226 226 226
19.2 -1.2 10.2 229 229 229
19.4 -1.2 10.2 226 226 226
19.6 -1.2 10.2 226 226 226
19.9 -1.2 10.2 226 226 226
15.9 -0.9 10.2 217 220 219
17.5 -1.0 10.7 220 223 222
17.5 -1.0 10.5 220 223 222
19.4 -0.9 10.3 224 224 224
17.5 -0.7 10.5 220 223 222
16.4 1.2 10.1 198 198 198
17.7 1.3 10.8 202 202 202
17.5 1.2 10.5 206 206 206
95.4 3.0 25.7 88 88 88
17.7 1.5 10.7 199 199 199
17.5 1.5 10.5 202 202 202
97.6 3.7 26.3 89 89 89
17.7 1.8 10.8 197 197 197
17.6 1.7 10.5 197 197 197
97.9 4.3 26.3 87 87 85
99.6 4.3 26.3 99 101 101
99.9 4.3 26.2 110 112 111
17.6 2.0 10.5 198 198 198
97.8 5.0 26.8 117 117 117
99.8 5.1 27.0 87 87 85
99.4 5.0 26.8 87 87 85
100.7 5.0 26.6 96 99 98
101.1 5.0 26.5 91 91 91
17.6 2.2 10.7 194 194 194
17.5 2.2 10.5 199 199 199
25.0 2.6 12.2 224 224 224
98.4 5.7 27.0 111 113 112
100.9 5.8 27.5 94 94 94
101.2 5.8 27.4 88 88 86
100.0 5.7 26.9 86 85 83
101.1 5.6 26.7 97 100 99
102.1 5.6 26.8 78 78 78
102.4 5.6 26.7 172 172 172
17.5 2.5 10.5 197 197 197
25.0 2.9 12.3 227 230 229
103.0 6.6 28.1 87 86 84
103.2 6.5 27.9 83 83 83
102.3 6.4 27.5 90 90 90
103.2 6.4 27.3 97 100 99
104.6 6.4 27.5 78 78 78
106.8 6.5 27.9 165 165 165
25.1 3.2 12.3 227 227 227
670.7 52.3 203.4 42 42 42
103.4 7.2 28.2 91 91 91
103.9 7.2 28.1 82 82 82
102.0 6.9 26.9 212 214 214
104.0 7.0 27.3 180 179 177
25.2 3.5 12.3 226 226 226
25.4 4.4 12.4 228 228 228
25.4 4.6 12.4 228 228 228
-225.6 68.0 116.8 119 119 119
-205.2 62.6 107.5 107 107 107
-130.0 60.2 103.4 221 221 221
-124.2 58.6 100.6 228 228 228
-129.5 62.2 106.9 220 223 222
-127.0 62.2 106.9 122 124 123
-124.5 62.2 106.9 36 36 36
-92.9 58.0 99.6 118 118 118
58.3 61.2 105.1 33 36 35
-250.8 79.6 131.4 123 125 124
-143.5 90.9 150.1 86 85 83
-127.5 89.5 147.8 147 147 147
70.4 76.9 127.0 26 27 25
71.0 74.4 122.8 68 68 68
52.2 62.6 86.8 83 83 83
-161.6 70.8 95.1 115 115 115
-153.2 68.1 91.4 112 112 112
-131.1 68.7 92.3 210 210 210
-127.1 67.8 90.9 210 210 210
-125.0 67.8 90.9 201 203 203
-122.9 67.8 90.9 175 175 175
-112.3 69.1 92.7 80 83 82
-108.1 67.8 90.9 34 34 34
-106.5 68.1 91.4 29 31 29
-85.0 73.4 98.5 130 130 130
-76.4 67.8 90.9 113 114 113
-59.0 69.8 93.6 116 116 116
-53.3 70.8 95.1 129 129 129
-45.3 68.7 92.3 169 169 169
-26.3 69.4 93.2 210 210 210
53.4 66.2 88.8 85 85 85
56.8 67.8 90.9 84 84 84
58.4 67.1 90.1 79 79 79
-183.1 81.6 106.3 115 114 114
-169.2 76.5 99.6 115 114 114
-149.2 78.1 101.7 186 188 187
-146.9 78.1 101.7 180 180 180
-144.5 78.1 101.7 187 189 189
-142.1 78.1 101.7 184 184 184
-139.8 78.1 101.7 164 164 164
-136.9 82.1 106.9 176 176 176
-121.5 78.6 102.3 32 31 30
-120.0 80.7 105.1 53 55 53
-116.9 80.3 104.5 6 6 6
-112.0 78.6 102.3 8 9 8
-92.7 82.6 107.5 132 132 132
-68.7 80.7 105.1 104 104 104
-61.7 81.2 105.7 139 138 137
-55.8 76.5 99.6 135 135 135
-44.8 81.6 106.3 151 151 151
-40.5 78.1 101.7 194 197 196
-34.7 81.2 105.7 213 215 215
-31.5 79.4 103.4 213 215 215
-28.1 76.5 99.6 218 218 218
53.9 68.9 89.7 89 90 88
58.8 72.3 94.1 86 86 86
62.2 73.8 96.0 85 85 85
-256.6 85.6 108.1 141 143 142
-255.5 86.1 108.7 135 135 135
-250.1 85.1 107.5 180 183 182
-245.4 86.1 108.7 141 141 141
-244.3 86.5 109.3 139 139 139
-239.0 85.6 108.1 131 134 133
-231.6 86.5 109.3 138 138 138
-227.7 86.1 108.7 144 144 144
-225.2 86.1 108.7 144 146 146
-210.1 86.1 108.7 129 129 129
-212.4 88.1 111.3 123 123 123
-205.0 86.1 108.7 120 122 121
-202.5 86.1 108.7 118 120 119
-198.6 86.5 109.3 118 120 119
-194.9 86.1 108.7 112 112 112
-189.8 86.1 108.7 103 103 103
-190.6 87.6 110.6 107 109 109
-182.7 85.1 107.5 111 111 111
-179.2 84.6 106.9 103 103 103
-178.7 85.6 108.1 98 97 95
-176.2 85.6 108.1 98 97 95
-173.7 85.6 108.1 90 90 90
-171.2 85.6 108.1 108 110 110
-168.7 85.6 108.1 144 146 146
-166.1 85.6 108.1 187 189 189
-163.6 85.6 108.1 184 187 186
-161.1 85.6 108.1 173 173 173
-158.6 85.6 108.1 173 173 173
-156.1 85.6 108.1 175 175 175
-153.6 85.6 108.1 185 185 185
-151.1 85.6 108.1 177 177 177
-148.6 85.6 108.1 175 175 175
-142.8 83.6 105.7 167 167 167
-140.1 86.5 109.3 79 79 79
-136.8 86.1 108.7 70 72 69
-135.0 86.5 109.3 63 63 63
-133.3 87.1 110.0 55 55 55
-127.7 85.1 107.5 34 34 34
-125.2 85.1 107.5 29 30 28
-124.1 86.1 108.7 53 52 52
-124.5 88.1 111.3 6 7 7
-119.8 86.5 109.3 6 6 6
-115.2 85.1 107.5 27 29 27
-112.7 85.1 107.5 105 105 105
-110.9 85.6 108.1 144 146 146
-108.4 85.6 108.1 157 157 157
-105.8 85.6 108.1 153 153 153
-100.8 85.6 108.1 183 183 183
-97.7 89.7 113.3 134 137 136
-80.7 85.6 108.1 134 134 134
-78.2 85.6 108.1 107 107 107
-74.0 86.5 109.3 98 98 98
-71.1 86.1 108.7 100 102 102
-67.8 85.1 107.5 109 109 109
-68.8 89.7 113.3 140 139 138
-64.2 87.1 110.0 155 158 157
-59.9 84.6 106.9 163 166 165
-58.1 85.6 108.1 167 167 167
-55.6 85.6 108.1 173 175 175
-53.1 85.6 108.1 168 168 168
-48.6 86.5 109.3 169 171 170
-46.3 87.1 110.0 45 44 43
-42.5 84.6 106.9 151 153 153
-40.3 85.1 107.5 142 144 143
-38.7 87.1 110.0 41 41 39
-35.9 86.5 109.3 47 47 47
-32.8 85.1 107.5 51 51 49
-30.0 84.1 106.3 50 50 50
-28.0 85.6 108.1 54 53 52
-25.4 85.6 108.1 74 76 75
-22.9 85.6 108.1 166 169 168
-20.4 85.6 108.1 189 189 189
-17.9 85.6 108.1 74 74 74
-15.4 85.6 108.1 67 67 67
-12.9 85.6 108.1 65 65 65
-10.4 85.6 108.1 64 64 62
-7.9 85.6 108.1 71 71 71
-5.3 85.6 108.1 198 198 198
-2.8 85.6 108.1 119 121 120
-0.3 85.6 108.1 97 100 99
2.2 85.6 108.1 104 104 104
4.7 85.1 107.5 107 107 107
7.2 85.1 107.5 108 108 108
9.8 86.1 108.7 111 111 111
12.2 85.1 107.5 105 107 107
14.7 85.1 107.5 116 118 117
56.0 73.8 93.2 90 92 90
61.5 78.0 98.5 89 91 89
67.0 81.8 103.4 87 87 87
72.1 85.1 107.5 85 85 85
28.0 11.8 13.4 194 197 196
28.4 11.9 13.4 193 196 195
29.5 11.8 13.4 193 196 195
29.9 11.9 13.4 193 196 195
30.9 11.9 13.5 203 203 203
31.2 11.9 13.4 205 205 205
31.3 11.8 13.3 205 205 205
31.8 11.9 13.4 203 203 203
32.2 11.9 13.5 199 199 199
27.4 12.0 13.3 194 194 194
27.7 12.1 13.3 194 197 196
28.1 12.1 13.3 194 197 196
28.3 12.1 13.3 194 197 196
28.7 12.1 13.3 194 197 196
28.9 12.0 13.2 194 197 196
29.3 12.1 13.3 194 197 196
29.6 12.1 13.3 194 197 196
29.8 12.0 13.2 196 199 198
30.8 12.1 13.3 206 206 206
31.0 12.0 13.2 206 206 206
31.5 12.1 13.3 200 200 200
27.7 12.3 13.2 195 198 197
29.2 12.3 13.2 195 198 197
29.6 12.4 13.3 195 198 197
29.6 12.2 13.1 197 200 199
31.0 12.3 13.2 207 207 207
25.1 9.6 10.3 174 174 174
25.3 9.6 10.3 180 183 182
229.5 115.0 85.2 79 79 79
249.2 122.7 90.9 80 80 80
231.3 112.9 83.7 84 84 84
249.6 116.0 86.0 83 83 83
246.0 113.4 84.1 80 79 78
252.8 126.7 92.3 86 88 88
235.4 117.0 85.2 86 88 88
260.2 123.1 89.7 85 85 85
250.4 117.5 85.6 83 83 83
-225.2 175.0 107.5 100 100 100
-223.9 176.0 108.1 125 125 125
-220.2 175.0 107.5 197 200 199
-217.7 175.0 107.5 206 206 206
-216.4 178.0 109.3 195 195 195
-210.2 175.0 107.5 193 192 190
-207.7 175.0 107.5 191 191 191
-209.9 179.1 110.0 184 184 184
-202.7 175.0 107.5 228 231 230
-202.1 181.2 111.3 231 231 231
-193.8 176.0 108.1 227 230 229
-189.1 174.0 106.9 225 225 225
-189.8 177.0 108.7 176 176 176
-188.4 178.0 109.3 102 104 104
33.4 16.6 10.2 101 101 101
36.0 16.6 10.2 100 100 100
36.1 16.5 10.2 100 100 100
36.4 16.6 10.2 105 105 105
-221.4 176.5 106.9 115 114 114
-217.7 175.5 106.3 94 94 94
-207.8 175.5 106.3 193 192 190
-205.2 177.5 107.5 187 189 189
-202.7 177.5 107.5 231 231 231
-196.3 178.5 108.1 224 224 224
-191.6 176.5 106.9 225 227 227
26.6 16.9 10.2 115 115 115
33.1 19.8 12.0 117 117 117
34.8 16.8 10.2 87 87 87
35.0 16.8 10.2 84 84 84
35.4 16.9 10.2 93 92 91
35.7 16.9 10.3 96 95 94
36.0 16.9 10.3 97 97 97
36.1 16.9 10.2 100 100 100
36.2 16.8 10.2 100 100 100
36.4 16.8 10.2 103 103 103
36.5 16.7 10.1 105 105 105
