ply
format ascii 1.0
element vertex 1822
property float x
property float y
property float z
property uchar red
property uchar green
property uchar blue
end_header
257.5 -930.6 370.9 161 161 161
266.2 -930.6 370.9 164 164 164
274.8 -930.6 370.9 164 164 164
283.4 -930.6 370.9 165 165 165
286.4 -912.7 363.8 165 165 165
294.9 -912.7 363.8 165 165 165
309.3 -930.6 370.9 165 165 165
317.9 -930.6 370.9 165 165 165
326.5 -930.6 370.9 165 165 165
335.1 -930.6 370.9 165 165 165
343.8 -930.6 370.9 165 165 165
352.4 -930.6 370.9 165 165 165
361.0 -930.6 370.9 165 165 165
369.6 -930.6 370.9 165 165 165
378.2 -930.6 370.9 165 165 165
386.9 -930.6 370.9 168 168 168
395.5 -930.6 370.9 166 166 166
404.1 -930.6 370.9 163 163 163
421.0 -949.2 378.3 163 163 163
421.3 -930.6 370.9 163 163 163
430.0 -930.6 370.9 163 163 163
438.6 -930.6 370.9 163 163 163
438.6 -912.7 363.8 163 163 163
447.1 -912.7 363.8 160 160 160
464.4 -930.6 370.9 160 160 160
464.0 -912.7 363.8 160 160 160
463.5 -895.5 356.9 160 160 160
521.0 -988.8 394.1 160 160 160
508.9 -949.2 378.3 160 160 160
507.6 -930.6 370.9 160 160 160
487.5 -878.9 350.3 156 159 158
82.5 -135.2 53.9 157 160 159
83.5 -134.8 53.7 154 156 156
85.5 -136.0 54.2 155 158 157
87.3 -136.8 54.5 155 158 157
52.9 -76.3 30.4 156 156 156
53.2 -75.7 30.2 158 161 160
53.8 -75.6 30.1 158 161 160
55.1 -76.4 30.5 159 162 161
246.6 -587.8 236.5 165 165 165
249.0 -580.5 233.5 162 162 162
248.3 -566.5 227.9 163 163 163
288.3 -644.1 259.1 163 163 163
268.6 -587.8 236.5 163 163 163
252.0 -540.5 217.4 163 163 163
269.5 -566.5 227.9 163 163 163
288.7 -595.2 239.4 163 163 163
294.3 -595.2 239.4 163 163 163
320.1 -635.4 255.6 163 163 163
259.4 -505.6 203.4 163 163 163
258.6 -495.0 199.1 163 163 163
396.9 -746.4 300.3 160 160 160
368.8 -681.5 274.1 163 163 163
319.6 -580.5 233.5 160 160 160
76.2 -123.7 49.8 157 160 159
77.6 -124.1 49.9 157 160 159
118.0 -185.9 74.8 158 161 160
120.6 -187.3 75.4 158 161 160
53.5 -75.5 30.4 158 161 160
54.2 -75.4 30.3 158 161 160
56.0 -77.0 31.0 159 162 161
56.7 -76.8 30.9 159 162 161
57.4 -76.8 30.9 160 163 162
121.2 -92.0 37.0 104 103 101
76.1 -55.1 22.2 98 100 100
75.2 -54.0 21.7 96 99 98
65.2 -192.5 78.2 168 168 168
67.0 -192.5 78.2 168 168 168
68.8 -192.5 78.2 168 168 168
70.3 -191.7 77.8 165 165 165
72.1 -191.7 77.8 165 165 165
74.3 -192.5 78.2 165 165 165
76.4 -193.3 78.5 165 165 165
77.9 -192.5 78.2 165 165 165
79.7 -192.5 78.2 165 165 165
81.2 -191.7 77.8 165 165 165
83.0 -191.7 77.8 162 162 162
85.2 -192.5 78.2 163 163 163
87.3 -193.3 78.5 163 163 163
89.2 -193.3 78.5 163 163 163
90.6 -192.5 78.2 163 163 163
92.0 -191.7 77.8 163 163 163
93.5 -190.9 77.5 163 163 163
95.7 -191.7 77.8 163 163 163
98.7 -194.1 78.8 163 163 163
99.3 -191.7 77.8 163 163 163
101.5 -192.5 78.2 163 163 163
103.3 -192.5 78.2 163 163 163
112.0 -194.9 79.1 164 164 164
112.9 -193.3 78.5 161 161 161
115.2 -194.1 78.8 161 161 161
116.5 -193.3 78.5 161 161 161
110.6 -180.6 73.3 161 161 161
122.5 -194.1 78.8 161 161 161
122.3 -190.9 77.5 162 162 162
126.2 -194.1 78.8 162 162 162
122.9 -186.3 75.7 163 163 163
53.9 -75.3 30.6 158 161 160
54.3 -74.8 30.4 158 161 160
55.8 -75.9 30.8 159 162 161
56.9 -76.5 31.1 159 162 161
57.3 -76.0 30.9 160 163 162
57.5 -75.4 30.6 160 163 162
118.0 -88.7 36.0 104 103 101
112.2 -83.8 34.0 104 103 101
90.9 -66.5 27.0 98 100 100
71.0 -50.5 20.5 96 99 98
70.7 -50.0 20.3 92 92 92
71.2 -50.0 20.3 92 92 92
61.7 -39.7 16.1 196 199 198
79.9 -152.8 62.6 163 163 163
100.8 -186.1 76.3 163 163 163
92.0 -158.6 65.0 164 164 164
91.7 -148.4 60.8 164 164 164
118.4 -183.1 75.1 165 165 165
124.1 -189.1 77.5 165 165 165
98.3 -145.6 59.7 166 166 166
55.0 -76.1 31.2 161 164 163
55.6 -75.9 31.1 161 164 163
57.3 -77.2 31.6 159 162 161
58.5 -77.8 31.9 159 162 161
58.8 -77.3 31.7 160 163 162
59.4 -77.0 31.6 160 163 162
130.3 -97.8 40.1 104 103 101
94.8 -69.2 28.4 98 100 100
93.0 -67.4 27.6 98 100 100
70.5 -49.7 20.4 95 95 95
69.7 -48.8 20.0 92 92 92
69.2 -48.1 19.7 92 92 92
48.2 -31.8 13.0 196 196 196
61.3 -40.0 16.4 209 209 209
61.1 -39.6 16.2 212 213 212
61.6 -39.7 16.3 200 202 202
61.7 -39.5 16.2 196 196 196
61.7 -39.3 16.1 215 215 215
44.5 -122.2 50.6 165 165 165
52.3 -123.9 51.3 165 165 165
51.4 -119.0 49.3 165 165 165
58.6 -122.2 50.6 163 163 163
58.2 -119.0 49.3 166 166 166
59.2 -118.7 49.1 166 166 166
62.2 -122.2 50.6 166 166 166
61.5 -118.7 49.1 166 166 166
64.5 -122.2 50.6 166 166 166
66.4 -123.5 51.1 163 163 163
67.6 -123.5 51.1 163 163 163
71.6 -122.2 50.6 164 164 164
73.3 -123.2 51.0 167 167 167
75.4 -119.0 49.3 167 167 167
124.9 -191.2 79.1 168 168 168
133.4 -201.3 83.3 168 168 168
83.2 -120.3 49.8 166 166 166
76.7 -109.3 45.3 164 164 164
56.8 -76.8 31.8 165 165 165
58.3 -77.9 32.2 166 166 166
59.6 -78.5 32.5 162 165 164
60.3 -78.5 32.5 163 166 165
60.8 -78.1 32.3 160 163 162
129.7 -96.4 39.9 104 103 101
119.3 -88.1 36.4 104 103 101
93.2 -67.3 27.9 104 103 101
90.5 -64.9 26.9 98 100 100
70.2 -49.0 20.3 95 95 95
68.0 -47.2 19.5 92 92 92
66.7 -46.0 19.0 92 92 92
47.9 -31.3 13.0 196 199 198
47.1 -30.6 12.7 191 191 191
58.1 -37.1 15.4 180 183 182
54.9 -34.6 14.3 212 213 212
35.9 -100.1 41.9 168 168 168
38.2 -101.0 42.2 168 168 168
39.0 -100.8 42.1 165 165 165
39.8 -100.1 41.9 165 165 165
40.7 -100.1 41.9 165 165 165
41.4 -99.5 41.6 165 165 165
44.0 -101.0 42.2 165 165 165
44.8 -100.6 42.0 168 168 168
45.7 -100.4 41.9 169 169 169
46.8 -100.6 42.0 166 166 166
47.6 -100.4 41.9 169 169 169
48.8 -100.8 42.1 169 169 169
49.4 -99.9 41.8 169 169 169
50.2 -99.7 41.7 169 169 169
51.9 -101.0 42.2 169 169 169
52.4 -100.1 41.9 169 169 169
53.6 -100.6 42.0 169 169 169
54.4 -100.1 41.9 169 169 169
55.8 -101.0 42.2 169 169 169
56.5 -100.6 42.0 169 169 169
60.1 -99.9 41.8 170 171 170
54.0 -83.1 34.7 170 171 170
127.5 -193.4 80.8 172 172 172
134.6 -201.2 84.1 172 172 172
129.6 -191.0 79.8 172 172 172
59.2 -78.3 32.7 169 169 169
60.1 -78.4 32.8 169 169 169
105.5 -76.6 32.0 104 103 101
99.1 -71.4 29.8 98 100 100
87.5 -62.2 26.0 98 100 100
84.4 -59.6 24.9 98 100 100
67.5 -46.4 19.4 95 95 95
66.1 -45.1 18.8 92 92 92
64.5 -43.7 18.3 92 92 92
47.8 -31.0 12.9 196 199 198
46.6 -30.0 12.5 180 183 182
54.4 -34.2 14.3 219 219 219
54.1 -33.8 14.1 218 218 218
26.5 -79.8 33.7 168 168 168
28.0 -79.6 33.6 168 168 168
28.7 -79.3 33.5 168 168 168
29.8 -80.2 33.8 168 168 168
30.4 -79.6 33.6 169 171 170
31.3 -80.0 33.8 169 171 170
32.1 -80.0 33.8 168 168 168
33.0 -80.3 33.9 168 168 168
33.7 -80.0 33.8 168 168 168
34.4 -79.9 33.7 170 172 172
34.9 -79.3 33.5 170 172 172
35.8 -79.5 33.5 170 172 172
36.7 -79.9 33.7 170 172 172
37.3 -79.3 33.5 169 169 169
38.0 -79.3 33.5 170 172 172
38.9 -79.6 33.6 170 172 172
39.9 -79.9 33.7 171 173 173
40.7 -79.9 33.7 171 173 173
41.5 -80.0 33.8 171 173 173
42.3 -80.0 33.8 173 175 175
43.2 -80.2 33.8 173 175 175
43.9 -80.0 33.8 171 173 173
44.3 -79.3 33.5 171 173 173
45.1 -79.5 33.5 173 175 175
46.4 -80.3 33.9 171 173 173
47.2 -80.3 33.9 174 176 176
48.5 -81.2 34.3 174 176 176
49.3 -81.2 34.3 172 174 174
49.4 -80.0 33.8 172 174 174
53.7 -83.2 35.1 170 171 170
52.9 -80.6 34.0 172 174 174
52.6 -79.1 33.4 173 175 175
53.5 -79.2 33.4 173 175 175
53.1 -67.8 28.6 170 171 170
80.7 -57.2 24.1 98 100 100
84.3 -59.3 25.0 96 99 98
81.7 -57.1 24.1 98 100 100
78.6 -54.5 23.0 96 99 98
66.8 -45.5 19.2 95 95 95
65.9 -44.5 18.8 95 95 95
64.6 -43.4 18.3 92 92 92
46.4 -29.6 12.5 191 191 191
29.0 -77.3 33.0 169 171 170
31.3 -77.3 33.0 172 174 174
32.1 -77.5 33.0 170 172 172
33.5 -77.1 32.8 172 174 174
34.2 -76.9 32.8 172 174 174
35.8 -77.1 32.8 173 175 175
36.5 -76.9 32.8 173 175 175
38.1 -77.1 32.8 183 183 183
38.8 -77.1 32.8 173 175 175
39.5 -76.9 32.8 178 178 178
40.4 -77.1 32.8 178 178 178
41.1 -77.1 32.8 173 175 175
42.0 -77.3 33.0 178 178 178
42.7 -77.2 32.9 178 178 178
43.8 -76.4 32.6 173 175 175
44.8 -76.8 32.7 178 178 178
45.6 -76.9 32.8 181 181 181
46.5 -77.2 32.9 174 176 176
47.5 -77.5 33.0 179 179 179
48.0 -77.1 32.8 181 181 181
52.9 -79.8 34.0 179 179 179
125.9 -187.3 79.8 175 177 177
52.7 -77.2 32.9 175 177 177
126.9 -183.4 78.2 173 175 175
131.7 -184.9 78.8 176 179 178
55.7 -71.2 30.4 176 179 178
53.2 -67.2 28.7 177 180 179
78.0 -54.7 23.3 98 100 100
78.1 -54.4 23.2 98 100 100
80.6 -55.8 23.8 98 100 100
78.8 -54.1 23.1 96 99 98
65.8 -44.0 18.8 95 95 95
64.1 -42.6 18.2 95 95 95
43.0 -26.8 11.4 215 215 215
42.6 -26.4 11.3 218 218 218
42.9 -26.4 11.3 218 218 218
43.4 -26.6 11.3 219 219 219
36.9 -68.4 29.5 195 195 195
37.5 -68.2 29.4 195 195 195
38.6 -67.9 29.2 204 204 204
38.7 -66.9 28.8 200 200 200
39.5 -67.0 28.8 197 197 197
40.9 -68.2 29.4 197 197 197
41.5 -68.1 29.3 197 197 197
43.3 -68.9 29.6 200 200 200
43.9 -68.7 29.6 200 200 200
129.5 -193.6 83.3 197 197 197
127.5 -187.8 80.8 198 198 198
134.0 -194.4 83.7 198 198 198
129.1 -184.6 79.5 202 202 202
130.4 -183.9 79.1 203 203 203
132.8 -184.6 79.5 203 203 203
56.8 -71.9 31.0 202 202 202
53.5 -67.0 28.8 203 203 203
43.1 -26.6 11.5 193 193 193
42.3 -26.0 11.2 212 213 212
42.3 -25.8 11.1 215 215 215
42.8 -26.0 11.2 218 218 218
38.1 -66.3 28.8 204 204 204
37.1 -63.5 27.6 204 204 204
37.7 -63.3 27.5 204 204 204
39.1 -64.5 28.1 204 204 204
39.8 -64.6 28.1 204 204 204
42.9 -67.6 29.4 204 204 204
42.7 -66.2 28.8 204 204 204
130.7 -193.4 84.1 204 204 204
129.2 -188.3 81.9 205 205 205
134.6 -193.4 84.1 205 205 205
131.9 -186.7 81.2 205 205 205
132.6 -185.1 80.5 205 205 205
133.9 -184.3 80.2 206 206 206
132.9 -180.5 78.5 206 206 206
57.1 -71.7 31.2 205 205 205
53.8 -66.6 29.0 208 208 208
33.0 -60.1 26.4 204 204 204
33.6 -60.1 26.4 204 204 204
35.3 -60.7 26.7 204 204 204
35.8 -60.7 26.6 204 204 204
36.2 -60.1 26.4 204 204 204
37.0 -60.6 26.6 204 204 204
38.0 -61.1 26.8 204 204 204
38.3 -60.7 26.6 204 204 204
41.4 -63.4 27.9 204 204 204
40.5 -61.2 26.9 204 204 204
124.6 -182.5 80.2 204 204 204
123.8 -178.7 78.5 205 205 205
129.4 -184.0 80.8 205 205 205
126.9 -178.0 78.2 205 205 205
126.2 -174.4 76.6 205 205 205
127.4 -173.6 76.3 206 206 206
124.2 -166.9 73.3 206 206 206
29.8 -56.8 25.2 204 204 204
30.3 -56.6 25.1 204 204 204
30.7 -56.3 25.0 204 204 204
31.5 -56.8 25.2 207 207 207
32.3 -57.1 25.3 207 207 207
32.8 -56.9 25.3 207 207 207
34.0 -57.9 25.7 207 207 207
34.1 -57.1 25.3 207 207 207
34.0 -55.9 24.8 207 207 207
35.2 -57.0 25.3 207 207 207
36.7 -58.5 25.9 207 207 207
39.0 -58.3 25.9 204 204 204
122.8 -175.4 77.8 205 205 205
127.8 -179.9 79.8 205 205 205
124.9 -173.3 76.9 205 205 205
121.3 -165.9 73.6 205 205 205
120.6 -162.7 72.2 206 206 206
115.3 -153.3 68.0 206 206 206
109.7 -144.0 63.9 206 206 206
44.0 -67.2 30.1 207 207 207
42.9 -63.4 28.4 207 207 207
132.6 -187.5 84.1 207 207 207
135.8 -189.2 84.8 207 207 207
131.3 -180.3 80.8 208 208 208
124.6 -168.7 75.7 208 208 208
27.9 -36.2 16.3 206 206 206
28.1 -36.0 16.2 206 206 206
28.1 -35.5 15.9 207 207 207
42.3 -65.9 29.9 209 209 209
43.7 -65.9 29.9 206 206 206
44.1 -65.5 29.7 206 206 206
43.9 -64.2 29.1 206 206 206
44.4 -64.0 29.0 206 206 206
28.2 -35.8 16.2 206 206 206
28.1 -35.2 15.9 206 206 206
23.5 -24.1 10.9 162 162 162
-8.6 -21.9 10.0 140 139 138
42.2 -65.2 29.8 208 208 208
43.7 -66.4 30.4 211 211 211
44.1 -65.9 30.2 208 208 208
44.4 -65.4 29.9 205 205 205
44.6 -64.5 29.6 205 205 205
45.1 -64.3 29.5 205 205 205
46.2 -64.9 29.7 209 209 209
47.4 -65.7 30.1 206 206 206
48.2 -65.8 30.1 206 206 206
28.2 -35.4 16.2 208 208 208
28.1 -34.8 15.9 208 208 208
42.7 -65.2 30.2 208 208 208
43.8 -65.8 30.5 208 208 208
44.4 -65.6 30.4 208 208 208
45.0 -65.5 30.3 208 208 208
44.9 -64.4 29.8 208 208 208
45.3 -64.0 29.6 208 208 208
46.9 -65.2 30.2 208 208 208
47.8 -65.5 30.3 205 205 205
48.5 -65.5 30.3 206 206 206
49.3 -65.6 30.4 206 206 206
27.7 -33.9 15.7 207 207 207
771.5 -523.9 242.5 135 135 135
-14.1 -22.3 10.5 124 124 124
-7.5 -23.5 11.0 143 145 144
-7.2 -23.5 11.0 145 145 144
44.9 -66.7 31.2 207 207 207
46.3 -66.7 31.2 207 207 207
46.0 -65.2 30.5 207 207 207
28.1 -34.5 16.2 206 206 206
28.1 -34.0 15.9 207 207 207
27.0 -32.3 15.1 207 207 207
47.9 -68.2 32.3 207 207 207
41.0 -55.8 26.4 207 207 207
26.6 -31.5 14.9 206 206 206
-6.5 -27.5 13.1 177 180 179
8.2 -27.5 13.1 209 209 209
11.0 -27.5 13.2 207 207 207
11.2 -27.4 13.1 204 204 204
11.6 -27.5 13.1 207 207 207
11.9 -27.5 13.1 207 207 207
12.2 -27.5 13.1 206 206 206
12.5 -27.4 13.1 206 206 206
12.8 -27.4 13.1 206 206 206
14.0 -27.5 13.1 206 206 206
14.3 -27.5 13.2 206 206 206
14.6 -27.5 13.1 206 206 206
15.7 -27.7 13.2 206 206 206
15.9 -27.5 13.2 206 206 206
17.7 -27.5 13.1 206 206 206
48.7 -68.5 32.8 206 206 206
39.7 -52.7 25.2 206 206 206
40.1 -52.3 25.0 207 207 207
41.0 -52.8 25.3 207 207 207
42.3 -53.7 25.7 207 207 207
64.1 -80.2 38.4 207 207 207
26.7 -31.2 14.9 206 206 206
-5.7 -24.0 11.6 192 192 192
-5.4 -24.0 11.6 191 191 191
-5.2 -24.0 11.6 193 193 193
-4.9 -24.0 11.6 193 193 193
-4.6 -24.0 11.6 192 192 192
-4.3 -24.0 11.6 193 193 193
-4.1 -24.0 11.6 190 190 190
-3.8 -24.0 11.6 189 189 189
-3.5 -24.0 11.6 189 189 189
6.2 -24.0 11.6 209 209 209
6.4 -24.0 11.6 209 209 209
6.7 -24.0 11.6 209 209 209
7.0 -24.0 11.6 209 209 209
7.2 -24.0 11.6 209 209 209
7.5 -24.0 11.6 209 209 209
7.8 -24.1 11.6 209 209 209
8.1 -24.1 11.6 209 209 209
8.3 -24.0 11.6 209 209 209
8.6 -24.0 11.6 209 209 209
8.9 -24.0 11.6 209 209 209
9.1 -24.0 11.6 209 209 209
9.4 -23.9 11.6 209 209 209
10.0 -24.2 11.7 209 209 209
10.2 -23.9 11.6 209 209 209
10.5 -23.9 11.6 209 209 209
10.7 -24.0 11.6 209 209 209
11.0 -24.0 11.6 206 206 206
11.3 -24.0 11.6 206 206 206
11.6 -24.0 11.6 206 206 206
11.8 -24.0 11.6 206 206 206
12.1 -24.0 11.6 206 206 206
12.4 -24.0 11.6 206 206 206
12.6 -24.0 11.6 206 206 206
12.9 -24.0 11.6 208 208 208
13.2 -24.0 11.6 208 208 208
13.5 -24.0 11.6 208 208 208
13.7 -24.0 11.6 208 208 208
14.0 -24.0 11.6 208 208 208
14.2 -24.0 11.6 208 208 208
15.6 -24.0 11.6 208 208 208
15.9 -24.0 11.6 206 206 206
41.0 -54.5 26.4 206 206 206
42.6 -53.4 25.8 206 206 206
64.9 -80.3 38.8 207 207 207
65.4 -79.8 38.6 207 207 207
66.2 -79.6 38.5 204 204 204
67.9 -80.6 39.0 205 205 205
69.6 -81.6 39.5 207 207 207
26.8 -31.0 15.0 205 205 205
-14.2 -20.5 10.0 109 109 109
-14.6 -29.0 14.2 92 95 94
-13.9 -29.1 14.2 74 74 74
-13.6 -29.0 14.2 67 67 67
12.0 -29.5 14.5 208 208 208
12.4 -29.6 14.5 208 208 208
12.7 -29.6 14.5 208 208 208
13.1 -29.5 14.5 208 208 208
16.5 -29.6 14.5 208 208 208
16.8 -29.5 14.5 208 208 208
18.1 -29.6 14.5 208 208 208
18.5 -29.7 14.5 208 208 208
18.8 -29.6 14.5 208 208 208
19.1 -29.5 14.4 208 208 208
15.9 -24.2 11.8 208 208 208
64.4 -79.9 39.1 206 206 206
64.5 -78.9 38.6 206 206 206
65.0 -78.4 38.4 206 206 206
65.2 -77.6 38.0 206 206 206
67.7 -79.6 38.9 207 207 207
70.8 -82.1 40.2 209 209 209
26.8 -30.7 15.0 207 207 207
27.4 -30.5 14.9 205 205 205
-14.3 -20.4 10.1 102 102 102
-15.3 -29.4 14.5 20 23 21
-14.8 -29.2 14.4 26 26 26
-14.5 -29.2 14.5 28 28 28
-14.1 -29.1 14.4 27 27 27
-13.7 -28.9 14.3 27 27 27
-13.4 -29.1 14.4 29 30 28
-12.2 -29.3 14.5 33 33 33
8.1 -29.4 14.5 208 208 208
8.4 -29.2 14.5 208 208 208
8.7 -29.3 14.5 208 208 208
9.0 -29.3 14.5 208 208 208
9.4 -29.3 14.5 208 208 208
9.7 -29.3 14.5 208 208 208
10.1 -29.4 14.5 208 208 208
10.7 -29.2 14.5 208 208 208
11.0 -29.2 14.4 208 208 208
11.4 -29.3 14.5 208 208 208
11.7 -29.3 14.5 208 208 208
12.1 -29.3 14.5 208 208 208
12.4 -29.3 14.5 208 208 208
12.8 -29.3 14.5 207 207 207
13.1 -29.2 14.5 207 207 207
13.4 -29.2 14.5 205 205 205
13.8 -29.3 14.5 205 205 205
14.1 -29.2 14.5 205 205 205
14.4 -29.3 14.5 205 205 205
14.8 -29.3 14.5 205 205 205
15.1 -29.3 14.5 207 207 207
15.5 -29.3 14.5 205 205 205
15.8 -29.3 14.5 205 205 205
16.1 -29.2 14.5 207 207 207
16.5 -29.3 14.5 207 207 207
16.8 -29.2 14.5 207 207 207
17.1 -29.2 14.5 207 207 207
17.9 -29.5 14.6 207 207 207
18.1 -29.3 14.5 207 207 207
18.5 -29.4 14.5 207 207 207
18.9 -29.4 14.5 207 207 207
19.1 -29.2 14.5 207 207 207
19.4 -29.2 14.4 207 207 207
19.7 -29.1 14.4 207 207 207
27.0 -30.6 15.1 206 206 206
27.8 -31.0 15.4 207 207 207
27.7 -30.5 15.1 204 204 204
29.7 -31.2 15.4 205 205 205
29.6 -30.7 15.2 205 205 205
29.6 -30.3 15.0 206 206 206
1049.3 -707.9 350.3 187 189 189
-14.3 -20.2 10.1 97 97 97
-14.5 -21.1 10.5 90 92 91
-14.1 -20.8 10.4 80 80 80
-15.5 -29.5 14.8 27 27 27
-14.3 -29.2 14.6 28 28 28
-10.9 -24.6 12.3 29 30 28
-10.6 -24.6 12.3 30 29 28
-10.4 -24.7 12.3 31 31 31
-10.1 -24.6 12.3 35 35 35
-9.8 -24.6 12.3 146 146 146
-9.5 -24.7 12.3 179 182 181
-4.1 -24.7 12.3 202 202 202
-3.8 -24.7 12.3 202 202 202
-3.2 -24.8 12.4 202 202 202
-2.9 -24.7 12.4 199 199 199
-2.3 -24.7 12.4 199 199 199
-2.0 -24.7 12.4 196 196 196
-1.8 -24.8 12.4 196 196 196
-1.5 -24.7 12.3 196 196 196
-1.2 -24.7 12.3 199 199 199
-0.6 -24.6 12.3 196 196 196
-0.3 -24.7 12.3 196 196 196
7.1 -24.7 12.4 207 207 207
7.4 -24.7 12.4 207 207 207
7.7 -24.8 12.4 207 207 207
8.0 -24.7 12.4 207 207 207
8.3 -24.7 12.4 207 207 207
8.6 -24.7 12.4 207 207 207
8.9 -24.7 12.4 207 207 207
9.2 -24.7 12.4 207 207 207
9.4 -24.7 12.4 207 207 207
9.7 -24.7 12.3 207 207 207
10.0 -24.7 12.4 207 207 207
10.3 -24.7 12.3 207 207 207
10.6 -24.7 12.4 207 207 207
10.9 -24.7 12.4 207 207 207
11.2 -24.7 12.4 207 207 207
11.5 -24.7 12.4 207 207 207
11.7 -24.7 12.4 204 204 204
12.0 -24.7 12.4 204 204 204
12.3 -24.7 12.4 204 204 204
12.6 -24.7 12.4 207 207 207
12.9 -24.7 12.3 207 207 207
13.2 -24.7 12.3 204 204 204
13.5 -24.7 12.4 207 207 207
13.8 -24.8 12.4 207 207 207
14.1 -24.7 12.4 207 207 207
14.3 -24.7 12.3 207 207 207
14.6 -24.7 12.3 207 207 207
14.9 -24.7 12.4 207 207 207
15.3 -24.8 12.4 207 207 207
15.5 -24.7 12.4 207 207 207
16.4 -24.7 12.4 206 206 206
16.6 -24.7 12.4 206 206 206
16.9 -24.7 12.4 206 206 206
17.2 -24.7 12.3 206 206 206
17.5 -24.7 12.4 206 206 206
41.7 -50.6 25.3 207 207 207
42.6 -50.9 25.5 209 209 209
26.8 -30.0 15.0 206 206 206
27.6 -30.1 15.1 206 206 206
29.8 -30.6 15.3 205 205 205
29.8 -30.2 15.1 205 205 205
-16.7 -32.9 16.7 27 27 27
-12.6 -25.4 12.9 28 28 28
-10.9 -24.4 12.4 31 30 29
-10.7 -24.4 12.4 32 32 32
-10.4 -24.4 12.3 34 36 36
-10.1 -24.4 12.3 39 39 39
-0.6 -24.5 12.4 197 197 197
7.9 -24.9 12.6 207 207 207
9.5 -24.6 12.5 207 207 207
10.8 -24.8 12.5 206 206 206
11.0 -24.7 12.5 206 206 206
11.3 -24.7 12.5 206 206 206
11.9 -24.7 12.5 206 206 206
12.1 -24.6 12.5 206 206 206
12.4 -24.6 12.5 206 206 206
12.7 -24.6 12.5 206 206 206
13.3 -24.6 12.5 206 206 206
13.7 -24.8 12.6 206 206 206
14.1 -25.0 12.7 206 206 206
14.3 -24.8 12.6 206 206 206
14.5 -24.7 12.5 206 206 206
14.7 -24.6 12.4 206 206 206
15.2 -24.8 12.6 206 206 206
15.4 -24.8 12.6 206 206 206
15.6 -24.6 12.4 206 206 206
16.6 -24.8 12.5 206 206 206
16.8 -24.7 12.5 206 206 206
17.2 -24.9 12.6 206 206 206
39.2 -49.1 24.9 206 206 206
38.6 -47.6 24.1 206 206 206
39.6 -48.2 24.4 206 206 206
41.1 -49.2 24.9 206 206 206
42.6 -50.4 25.5 207 207 207
43.5 -50.7 25.7 204 204 204
30.1 -30.2 15.3 204 204 204
30.4 -30.0 15.2 204 204 204
-36.1 -25.0 12.8 56 56 56
-35.9 -25.1 12.8 58 58 58
-35.6 -25.1 12.9 60 62 60
-35.3 -25.1 12.9 58 58 58
-35.0 -25.1 12.8 58 58 58
-34.7 -25.1 12.9 58 58 58
-34.4 -25.1 12.9 58 58 58
-34.1 -25.1 12.9 58 58 58
-33.7 -25.0 12.8 58 58 58
-33.5 -25.1 12.9 58 58 58
-33.2 -25.1 12.9 58 58 58
-32.9 -25.1 12.9 58 59 59
-32.6 -25.0 12.8 58 59 59
-32.4 -25.1 12.9 58 59 59
-32.0 -25.1 12.9 56 56 56
-31.7 -25.1 12.9 53 53 53
-30.3 -25.1 12.9 49 49 49
-29.9 -25.1 12.9 49 49 49
-29.6 -25.1 12.9 49 49 49
-29.3 -25.1 12.9 49 49 49
-29.0 -25.1 12.9 49 49 49
-28.7 -25.1 12.8 49 49 49
-28.4 -25.1 12.9 50 50 50
-28.1 -25.1 12.9 53 52 51
-27.8 -25.1 12.9 50 50 50
-27.5 -25.1 12.9 50 50 50
-27.1 -25.0 12.8 48 48 48
-25.7 -25.1 12.9 46 46 46
-25.5 -25.2 12.9 46 46 46
-24.8 -25.1 12.9 45 45 45
-24.5 -25.0 12.8 42 43 42
-24.2 -25.1 12.9 42 43 42
-23.9 -25.1 12.9 42 43 42
-23.6 -25.1 12.9 42 43 42
-23.3 -25.1 12.9 41 41 39
-23.1 -25.1 12.9 41 41 39
-22.8 -25.1 12.9 42 42 40
-22.4 -25.1 12.9 40 40 40
-22.1 -25.0 12.8 40 40 40
-14.1 -20.4 10.4 19 19 19
-13.0 -25.3 13.0 30 31 30
-12.7 -25.2 12.9 30 31 30
-12.3 -25.1 12.9 29 31 29
-10.4 -24.1 12.3 34 34 34
-10.6 -25.3 13.0 44 44 44
-10.3 -25.3 13.0 160 160 160
-10.0 -25.2 12.9 185 185 185
-9.6 -25.1 12.9 186 188 187
43.1 -54.9 28.1 205 205 205
41.4 -52.0 26.6 205 205 205
39.5 -48.8 25.0 205 205 205
38.9 -47.4 24.3 206 206 206
40.0 -48.1 24.6 206 206 206
42.2 -50.0 25.6 206 206 206
43.0 -50.2 25.7 206 206 206
44.3 -51.0 26.1 204 204 204
45.4 -51.5 26.4 204 204 204
27.8 -29.6 15.1 205 205 205
30.5 -29.9 15.3 204 204 204
-13.0 -25.0 13.0 30 29 29
-12.7 -25.0 12.9 29 29 29
-12.4 -24.9 12.9 30 31 30
-10.8 -24.1 12.5 32 31 30
-10.4 -23.9 12.4 34 34 34
-10.6 -25.0 12.9 43 43 43
-10.3 -25.0 13.0 166 169 168
43.1 -54.3 28.1 205 205 205
41.6 -51.6 26.8 205 205 205
43.0 -50.4 26.1 205 205 205
43.7 -50.4 26.2 206 206 206
44.6 -50.7 26.3 206 206 206
45.9 -51.5 26.7 206 206 206
47.0 -52.0 27.0 204 204 204
-36.3 -24.5 12.9 58 59 59
-36.0 -24.5 12.9 61 63 61
-35.7 -24.5 12.9 61 63 61
-35.4 -24.5 12.9 61 63 61
-35.1 -24.5 12.9 59 59 59
-34.8 -24.6 12.9 59 59 59
-34.5 -24.6 12.9 59 59 59
-34.1 -24.5 12.9 61 63 61
-33.9 -24.5 12.9 62 64 61
-33.6 -24.6 12.9 62 64 61
-30.9 -24.6 12.9 54 53 52
-30.6 -24.5 12.9 51 51 51
-30.3 -24.5 12.9 55 54 53
-30.0 -24.5 12.9 56 56 56
-29.7 -24.5 12.9 55 54 53
-29.4 -24.5 12.9 51 51 51
-29.1 -24.5 12.9 51 51 51
-28.8 -24.5 12.9 52 52 52
-28.5 -24.5 12.9 52 52 52
-28.2 -24.5 12.9 52 52 52
-27.9 -24.6 12.9 56 55 54
-27.6 -24.6 12.9 52 52 52
-27.2 -24.5 12.9 52 52 52
-26.9 -24.5 12.9 52 52 52
-26.7 -24.5 12.9 53 52 52
-26.3 -24.5 12.9 51 51 51
-13.0 -24.7 13.0 30 29 29
-12.7 -24.7 13.0 31 32 30
-12.4 -24.6 12.9 30 31 30
-11.0 -24.2 12.7 33 33 33
-10.6 -24.7 12.9 44 44 44
-10.3 -24.7 13.0 181 181 181
-9.9 -24.6 12.9 184 187 186
-9.6 -24.5 12.9 186 188 187
43.2 -53.8 28.2 206 206 206
42.0 -51.5 27.0 204 204 204
44.0 -50.8 26.7 205 205 205
44.4 -50.6 26.6 205 205 205
45.4 -51.1 26.8 205 205 205
47.0 -52.1 27.4 205 205 205
47.7 -52.2 27.4 203 203 203
48.6 -52.4 27.5 203 203 203
-30.5 -24.4 13.0 56 55 54
-30.2 -24.4 13.0 56 55 54
-29.9 -24.4 13.0 56 55 54
-29.6 -24.4 13.0 56 55 54
-28.1 -24.4 13.0 57 56 55
-27.8 -24.4 13.0 57 56 55
-13.0 -24.4 13.0 36 36 36
-12.7 -24.4 13.0 40 40 40
-12.4 -24.4 13.0 44 44 44
-10.6 -24.5 13.0 46 46 46
-10.4 -24.6 13.1 184 184 184
-10.0 -24.5 13.0 184 187 186
44.0 -54.1 28.7 204 204 204
43.8 -53.0 28.1 204 204 204
46.9 -52.1 27.7 205 205 205
48.1 -52.7 28.0 205 205 205
48.8 -52.7 28.0 205 205 205
50.4 -53.8 28.6 205 205 205
-30.5 -24.1 13.0 53 52 52
-27.8 -24.1 13.0 57 57 55
-13.1 -24.2 13.0 67 68 66
-12.7 -24.2 13.0 91 94 93
-12.4 -24.1 13.0 56 56 56
-10.9 -24.1 13.0 34 34 34
-10.6 -24.1 13.0 50 50 50
-10.4 -24.3 13.1 181 181 181
-10.0 -24.2 13.0 183 186 185
-9.6 -24.0 12.9 181 184 183
44.1 -53.5 28.8 206 206 206
47.4 -52.0 28.0 204 204 204
48.3 -52.3 28.1 204 204 204
48.9 -52.2 28.1 204 204 204
49.9 -52.6 28.3 204 204 204
-12.8 -23.9 13.0 29 29 29
-12.4 -23.8 13.0 40 40 40
-10.9 -23.9 13.0 35 35 35
-10.6 -23.8 13.0 47 48 47
-10.4 -24.0 13.1 183 183 183
-10.0 -23.9 13.0 182 185 184
-9.6 -23.7 12.9 181 184 183
44.0 -52.8 28.7 205 205 205
48.3 -51.7 28.1 206 206 206
48.8 -51.4 28.0 204 204 204
49.6 -51.7 28.1 204 204 204
-31.2 -24.1 13.3 59 59 59
-26.1 -24.2 13.4 55 55 55
-25.8 -24.2 13.3 51 51 51
-13.1 -23.7 13.1 93 92 91
-12.8 -23.7 13.1 29 29 29
-12.5 -23.6 13.0 130 130 130
-11.0 -23.8 13.1 47 48 47
-10.7 -23.7 13.1 52 52 52
-10.4 -23.8 13.1 183 183 183
-10.1 -23.7 13.1 181 184 183
-9.6 -23.4 12.9 180 183 182
48.6 -51.2 28.3 206 206 206
48.6 -50.6 27.9 203 203 203
49.5 -50.8 28.1 200 200 200
30.5 -28.0 15.5 205 205 205
30.8 -28.0 15.5 205 205 205
1282.7 -685.4 378.3 177 177 177
-33.0 -24.4 13.6 62 62 62
-32.2 -24.1 13.5 63 63 63
-31.8 -24.0 13.4 60 60 60
-31.5 -24.0 13.4 60 60 60
-31.3 -24.0 13.4 60 60 60
-31.0 -24.0 13.4 60 60 60
-30.7 -24.0 13.4 60 60 60
-27.2 -24.6 13.7 56 56 56
-26.4 -24.1 13.5 57 57 57
-26.0 -24.0 13.4 53 53 53
-25.6 -24.0 13.4 52 52 52
-25.6 -24.3 13.6 53 52 52
-13.0 -23.7 13.3 30 29 29
-10.3 -19.8 11.1 37 38 37
-10.1 -19.8 11.1 38 38 38
-10.8 -23.7 13.3 52 52 52
-10.5 -23.7 13.3 182 185 184
-10.1 -23.5 13.1 181 184 183
-9.7 -23.2 13.0 181 184 183
49.1 -51.1 28.6 205 205 205
48.8 -50.2 28.1 205 205 205
49.6 -50.3 28.1 206 206 206
31.3 -28.4 15.9 204 204 204
31.9 -28.6 16.0 204 204 204
32.5 -28.8 16.1 202 202 202
33.1 -28.7 16.0 166 166 166
755.1 -352.4 197.0 111 113 112
-32.4 -24.6 13.9 67 67 67
-32.0 -24.7 14.0 60 59 58
-27.6 -24.6 14.0 58 58 58
-27.1 -24.5 13.9 58 58 58
-26.7 -24.4 13.8 58 58 58
-10.6 -23.5 13.3 181 184 183
49.1 -50.4 28.6 205 205 205
49.0 -49.7 28.1 205 205 205
49.6 -49.7 28.1 205 205 205
49.6 -49.0 27.8 205 205 205
32.5 -28.8 16.3 204 204 204
33.0 -28.8 16.3 200 200 200
33.3 -28.8 16.3 198 198 198
33.5 -28.6 16.2 168 170 169
34.6 -28.9 16.4 183 183 183
1029.8 -547.4 310.1 176 179 178
811.0 -428.1 242.5 177 180 179
923.2 -483.9 274.1 177 177 177
801.7 -417.4 236.5 177 177 177
49.3 -50.0 28.7 207 207 207
49.6 -49.6 28.5 204 204 204
49.9 -49.3 28.3 205 205 205
50.1 -48.8 28.0 205 205 205
40.7 -35.5 20.4 203 203 203
639.0 -332.8 191.1 177 180 179
684.9 -354.3 203.4 177 177 177
668.1 -343.3 197.0 177 177 177
3.0 -17.5 10.2 149 151 151
3.2 -17.2 10.0 180 180 180
7.8 -17.5 10.2 207 207 207
8.0 -17.4 10.1 207 207 207
8.2 -17.4 10.1 207 207 207
9.7 -17.5 10.2 207 207 207
9.9 -17.5 10.2 209 212 211
10.6 -17.5 10.2 204 204 204
10.8 -17.5 10.2 203 203 203
11.0 -17.4 10.1 206 206 206
11.2 -17.3 10.1 206 206 206
12.0 -17.4 10.1 206 206 206
12.2 -17.4 10.1 206 206 206
12.4 -17.4 10.1 206 206 206
12.7 -17.5 10.2 206 206 206
13.0 -17.5 10.2 206 206 206
13.1 -17.4 10.1 206 206 206
13.4 -17.4 10.1 206 206 206
13.6 -17.4 10.1 206 206 206
13.9 -17.5 10.2 206 206 206
14.0 -17.3 10.1 206 206 206
14.3 -17.3 10.1 206 206 206
15.8 -17.5 10.2 206 206 206
49.7 -49.8 29.0 207 207 207
50.4 -49.8 29.0 207 207 207
50.8 -49.5 28.8 207 207 207
50.2 -48.3 28.1 207 207 207
-11.7 -25.8 15.2 180 183 182
-11.4 -26.0 15.3 179 182 181
-11.1 -26.1 15.4 179 182 181
-10.8 -26.1 15.4 191 191 191
0.2 -17.2 10.2 199 199 199
1.4 -17.3 10.2 195 195 195
3.3 -17.1 10.1 181 181 181
7.8 -17.3 10.2 207 207 207
8.0 -17.3 10.2 207 207 207
8.2 -17.2 10.2 207 207 207
8.7 -17.2 10.2 207 207 207
9.4 -17.2 10.2 206 206 206
11.1 -17.3 10.2 206 206 206
12.3 -17.3 10.2 206 206 206
12.5 -17.3 10.2 206 206 206
13.0 -17.2 10.2 206 206 206
13.2 -17.3 10.2 206 206 206
13.5 -17.3 10.2 206 206 206
15.6 -17.3 10.2 206 206 206
77.6 -38.5 22.7 178 178 178
-11.7 -26.3 15.7 182 185 184
-11.4 -26.4 15.8 177 177 177
44.0 -38.2 22.8 208 208 208
44.4 -38.1 22.8 208 208 208
77.6 -38.0 22.7 179 179 179
78.2 -38.1 22.8 176 176 176
-11.9 -25.5 15.5 183 186 185
-11.7 -25.8 15.7 181 184 183
-11.4 -26.0 15.8 176 176 176
-11.0 -26.0 15.8 156 159 158
41.7 -36.1 21.9 207 207 207
43.5 -37.3 22.6 207 207 207
43.6 -36.9 22.4 208 208 208
78.6 -37.9 23.0 180 180 180
-14.6 -17.2 10.6 65 65 65
-14.1 -17.0 10.4 42 42 42
-11.9 -25.2 15.5 184 187 186
-11.6 -25.3 15.6 183 186 185
-11.4 -25.5 15.7 177 177 177
-10.8 -25.1 15.4 156 159 158
-10.4 -25.0 15.4 155 158 157
43.9 -37.1 22.8 207 207 207
79.2 -38.0 23.4 181 181 181
78.1 -37.2 22.9 179 179 179
-14.6 -17.0 10.6 95 98 97
-14.1 -16.8 10.5 31 31 31
-9.8 -17.3 10.8 126 129 128
-11.8 -25.4 15.8 184 187 186
-11.5 -25.5 15.9 179 179 179
-11.0 -25.2 15.7 159 162 161
-10.5 -24.9 15.5 156 159 158
75.0 -35.7 22.3 182 182 182
77.8 -36.5 22.8 180 180 180
-14.6 -16.8 10.7 116 116 116
42.7 -30.9 19.6 189 189 189
40.4 -28.6 18.1 189 189 189
76.0 -35.9 22.7 183 186 185
75.0 -35.2 22.3 184 187 186
76.5 -35.6 22.6 183 183 183
77.6 -35.9 22.7 183 183 183
80.0 -36.3 23.0 184 187 186
66.1 -57.6 37.0 207 210 209
41.9 -30.2 19.4 189 189 189
42.2 -30.1 19.3 189 189 189
41.8 -29.5 19.0 189 189 189
41.0 -28.7 18.4 189 189 189
41.2 -28.5 18.3 189 189 189
76.1 -35.4 22.8 184 187 186
76.8 -35.3 22.7 184 184 184
77.2 -35.2 22.6 184 184 184
80.2 -36.1 23.2 184 184 184
78.6 -35.1 22.6 184 184 184
-15.2 -16.7 10.9 41 41 41
-14.7 -16.3 10.7 81 83 80
67.6 -58.0 37.8 207 210 209
42.4 -30.1 19.6 189 189 189
42.5 -29.8 19.5 190 190 190
42.1 -29.2 19.1 190 190 190
41.4 -28.5 18.6 190 190 190
78.5 -34.6 22.5 183 183 183
75.2 -32.9 21.4 185 185 185
71.6 -31.1 20.3 187 189 189
61.4 -25.7 16.7 163 163 163
62.4 -25.9 16.9 158 158 158
-29.0 -18.6 12.3 40 42 42
-14.6 -16.1 10.7 30 29 29
-9.8 -16.3 10.8 33 32 30
-14.0 -30.2 20.0 175 175 175
-13.6 -30.2 20.0 172 172 172
86.2 -74.8 49.5 208 211 210
77.2 -66.1 43.8 206 209 208
68.8 -58.2 38.5 207 210 209
42.4 -29.3 19.4 190 190 190
42.0 -28.7 19.0 190 190 190
41.2 -27.9 18.5 190 190 190
77.7 -33.7 22.3 186 186 186
73.5 -31.6 20.9 186 186 186
72.0 -30.8 20.4 186 186 186
61.6 -25.4 16.8 160 163 162
-50.1 -29.6 19.9 26 26 26
-49.7 -29.7 20.0 21 24 22
-49.1 -29.6 19.9 26 26 26
-14.0 -29.8 20.0 177 180 179
-13.6 -29.9 20.1 173 173 173
88.3 -75.4 50.7 208 211 210
88.7 -74.8 50.3 208 211 210
42.5 -28.9 19.5 193 193 193
41.9 -28.2 19.0 190 190 190
41.2 -27.5 18.5 190 190 190
73.0 -30.9 20.8 188 188 188
72.3 -30.4 20.5 188 188 188
61.7 -25.0 16.8 161 161 161
63.4 -25.5 17.2 155 155 155
64.7 -25.9 17.4 151 151 151
-55.2 -28.7 19.6 57 56 55
-52.9 -28.7 19.6 126 126 126
-52.1 -28.7 19.6 3 9 5
-50.2 -28.7 19.6 39 39 39
-50.0 -28.8 19.7 21 24 22
-49.5 -28.8 19.7 15 15 15
-48.9 -28.7 19.6 26 26 26
-48.4 -28.7 19.6 29 31 29
-47.9 -28.7 19.6 26 26 26
-47.5 -28.7 19.6 29 31 29
-47.1 -28.7 19.6 59 59 59
-46.6 -28.7 19.6 74 74 74
-46.1 -28.7 19.6 69 69 69
-45.4 -28.9 19.7 51 51 51
-44.3 -28.7 19.6 67 68 66
-42.0 -28.7 19.6 63 63 63
-41.6 -28.7 19.6 26 26 26
-35.2 -28.7 19.6 65 65 65
-32.5 -28.7 19.6 176 179 178
-32.1 -28.8 19.7 119 119 119
-31.4 -28.6 19.6 38 38 38
-30.2 -28.7 19.6 25 25 25
-29.7 -28.7 19.6 22 25 23
-28.8 -28.7 19.6 30 30 30
-27.9 -28.7 19.6 30 30 30
-24.3 -28.7 19.6 33 34 32
-23.8 -28.7 19.6 81 83 80
-23.3 -28.7 19.6 104 104 104
-22.9 -28.7 19.6 134 137 136
-14.7 -28.9 19.7 180 183 182
-14.0 -28.4 19.4 179 182 181
-13.7 -28.6 19.6 177 177 177
-13.6 -29.3 20.0 175 175 175
-12.8 -28.7 19.6 172 172 172
-12.2 -28.3 19.4 163 166 165
143.1 -121.9 83.3 208 211 210
75.1 -31.3 21.4 186 186 186
63.3 -25.4 17.4 166 166 166
61.4 -24.5 16.7 162 162 162
62.4 -24.7 16.9 155 155 155
63.9 -25.2 17.2 149 151 151
65.8 -25.4 17.4 137 139 138
-55.1 -28.2 19.6 38 38 38
-54.6 -28.2 19.6 47 47 47
-54.2 -28.2 19.6 69 71 69
-53.7 -28.2 19.6 81 83 80
-53.2 -28.1 19.5 151 151 151
-52.8 -28.2 19.6 29 31 29
-52.3 -28.2 19.6 24 24 24
-51.9 -28.2 19.6 19 23 20
-51.4 -28.2 19.6 21 24 22
-50.9 -28.1 19.5 26 26 26
-50.5 -28.2 19.6 34 34 34
-50.1 -28.2 19.6 54 54 54
-49.6 -28.2 19.6 156 159 158
-49.2 -28.2 19.6 139 139 139
-48.7 -28.2 19.6 45 44 43
-48.3 -28.2 19.6 151 151 151
-47.8 -28.2 19.6 177 180 179
-47.3 -28.2 19.6 162 165 164
-46.9 -28.2 19.6 131 133 132
-46.4 -28.2 19.6 77 77 77
-46.0 -28.2 19.6 81 83 80
-45.5 -28.2 19.6 81 83 80
-45.1 -28.2 19.6 137 137 137
-44.6 -28.2 19.6 177 176 174
-44.2 -28.2 19.6 182 185 184
-43.7 -28.2 19.6 173 173 173
-43.3 -28.2 19.6 186 186 186
-42.8 -28.2 19.6 206 206 206
-42.3 -28.2 19.6 209 209 209
-41.9 -28.2 19.6 191 191 191
-41.4 -28.2 19.6 207 210 209
-41.0 -28.2 19.6 212 213 212
-40.5 -28.2 19.6 205 208 207
-40.1 -28.2 19.6 180 183 182
-39.6 -28.2 19.6 173 173 173
-39.2 -28.2 19.6 159 162 161
-38.7 -28.2 19.6 145 147 147
-38.3 -28.2 19.6 156 156 156
-37.8 -28.2 19.6 205 205 205
-37.3 -28.2 19.6 206 209 208
-36.9 -28.2 19.6 180 180 180
-36.4 -28.2 19.6 179 179 179
-36.0 -28.2 19.6 204 207 206
-35.5 -28.2 19.6 226 226 226
-35.1 -28.2 19.6 189 189 189
-34.6 -28.2 19.6 116 116 116
-34.2 -28.2 19.6 149 151 151
-33.7 -28.2 19.6 182 185 184
-33.2 -28.2 19.6 170 171 170
-32.8 -28.2 19.6 176 179 178
-32.3 -28.2 19.6 213 215 215
-31.9 -28.2 19.6 214 216 216
-31.3 -28.1 19.5 209 209 209
-31.0 -28.2 19.6 136 138 137
-30.6 -28.3 19.6 35 34 33
-30.1 -28.2 19.6 43 45 45
-29.6 -28.2 19.6 50 50 50
-29.2 -28.2 19.6 85 85 85
-28.7 -28.2 19.6 91 93 92
-28.2 -28.1 19.5 113 114 113
-27.8 -28.2 19.6 106 106 106
-27.3 -28.2 19.6 25 25 25
-26.9 -28.1 19.5 43 43 43
-26.4 -28.2 19.6 88 88 88
-26.0 -28.2 19.6 19 19 19
-25.5 -28.2 19.6 20 23 21
-25.1 -28.2 19.6 60 60 60
-24.6 -28.2 19.6 100 99 97
-24.2 -28.2 19.6 44 46 46
-23.7 -28.2 19.6 77 78 76
-23.2 -28.2 19.6 38 38 38
-22.8 -28.2 19.6 112 112 112
-14.7 -28.3 19.6 194 197 196
-14.0 -27.9 19.4 169 171 170
-13.6 -28.0 19.5 175 175 175
-13.4 -28.5 19.8 174 174 174
-12.8 -28.2 19.6 134 134 134
-12.2 -27.8 19.3 31 31 31
143.7 -120.5 83.7 207 210 209
133.3 -110.3 76.6 208 211 210
142.7 -113.5 78.8 208 211 210
74.3 -30.5 21.2 188 188 188
75.7 -30.9 21.4 191 191 191
76.0 -30.8 21.4 188 188 188
61.0 -23.9 16.6 162 162 162
61.7 -24.1 16.7 155 155 155
62.5 -24.2 16.8 151 153 153
67.0 -25.6 17.8 139 141 140
65.0 -24.7 17.2 136 136 136
-32.4 -16.3 11.5 26 26 26
-28.1 -16.3 11.5 180 183 182
-27.8 -16.3 11.5 173 173 173
-16.9 -16.3 11.5 30 29 29
-16.6 -16.3 11.5 19 19 19
-16.3 -16.3 11.5 117 119 118
-16.1 -16.3 11.5 41 41 41
-15.9 -16.3 11.5 102 102 102
-15.1 -16.3 11.5 110 110 108
-14.7 -16.3 11.5 148 150 150
-14.5 -16.3 11.5 64 64 64
-14.2 -16.3 11.5 43 45 45
-13.9 -16.3 11.5 74 74 74
-13.7 -16.4 11.6 37 38 37
-13.6 -28.4 20.1 159 162 161
-12.8 -27.7 19.6 137 137 137
-12.1 -27.1 19.2 52 52 52
145.0 -119.6 84.4 207 210 209
129.6 -105.5 74.5 207 210 209
143.3 -112.1 79.1 208 211 210
145.1 -112.1 79.1 208 211 210
70.3 -28.8 20.3 192 192 192
71.0 -28.9 20.4 192 192 192
72.9 -29.4 20.8 189 189 189
74.4 -29.8 21.1 192 192 192
75.3 -30.0 21.2 189 189 189
73.8 -29.2 20.6 185 185 185
61.1 -23.6 16.7 160 160 160
61.5 -23.6 16.7 153 155 155
62.2 -23.7 16.7 150 150 150
68.0 -25.6 18.1 137 137 137
64.9 -24.3 17.1 134 136 135
-29.9 -17.1 12.2 166 169 168
-29.6 -17.0 12.2 166 169 168
-29.2 -17.0 12.2 136 136 136
-29.0 -17.0 12.2 105 104 102
-28.8 -17.1 12.3 200 200 200
-28.5 -17.0 12.2 202 202 202
-28.2 -17.0 12.2 48 48 48
-27.9 -17.0 12.2 40 42 42
-27.6 -17.0 12.2 131 131 131
-18.0 -17.0 12.2 117 119 118
-17.7 -17.1 12.3 128 130 129
-17.4 -17.1 12.3 88 90 89
-17.1 -17.0 12.2 71 72 70
-16.2 -17.0 12.2 85 85 85
-16.0 -17.0 12.2 62 61 60
-15.7 -17.0 12.2 34 33 32
-15.4 -17.0 12.2 31 32 30
-14.9 -16.9 12.1 37 38 37
-14.6 -17.1 12.3 29 29 29
-14.0 -28.7 20.6 181 181 181
-13.1 -28.0 20.1 169 171 170
-12.2 -26.9 19.3 117 119 118
-13.1 -30.0 21.5 28 28 28
151.8 -123.2 88.4 207 210 209
164.9 -128.6 92.3 208 211 210
157.1 -120.9 86.8 208 211 210
160.6 -122.0 87.6 208 211 210
170.5 -127.9 91.8 208 211 210
170.6 -124.9 89.7 209 212 211
70.8 -28.3 20.3 193 193 193
75.8 -29.9 21.5 190 190 190
76.6 -30.0 21.5 190 190 190
76.5 -29.8 21.4 186 186 186
62.0 -23.5 16.9 158 158 158
62.0 -23.4 16.8 151 151 151
63.3 -23.7 17.0 146 148 148
68.8 -25.6 18.4 141 141 141
68.4 -25.3 18.2 134 134 134
76.0 -28.0 20.1 129 132 131
76.0 -27.8 20.0 129 129 129
-30.1 -16.9 12.3 122 122 122
-29.8 -16.9 12.3 158 161 160
-17.8 -16.9 12.4 24 24 24
-17.5 -16.9 12.3 31 32 30
-17.2 -16.8 12.3 99 99 99
-16.8 -16.8 12.2 24 24 24
-16.9 -17.1 12.5 37 38 37
-15.5 -16.8 12.3 34 33 32
-15.1 -16.7 12.2 43 45 44
-14.8 -17.1 12.4 33 33 31
-14.5 -17.1 12.4 72 72 72
-14.4 -31.2 22.8 158 158 158
438.9 -345.6 252.2 207 210 209
340.4 -264.5 193.0 207 210 209
341.4 -261.8 191.1 207 210 209
475.1 -355.0 259.1 208 211 210
428.3 -316.1 230.7 208 211 210
77.8 -30.0 21.9 191 191 191
77.3 -29.6 21.6 185 185 185
63.3 -23.5 17.1 148 150 150
64.5 -23.8 17.4 139 141 140
68.0 -24.9 18.2 136 136 136
68.4 -24.9 18.2 132 135 134
67.7 -24.5 17.9 131 133 132
72.5 -26.1 19.0 129 129 129
-16.0 -31.8 23.6 182 182 182
-15.7 -32.4 24.1 171 173 173
498.8 -386.0 286.6 207 210 209
417.0 -318.5 236.5 207 210 209
407.2 -307.0 227.9 207 210 209
450.5 -335.2 248.9 207 210 209
525.4 -386.0 286.6 208 211 210
462.1 -335.2 248.9 208 211 210
580.9 -392.0 291.0 209 212 211
79.1 -30.0 22.3 189 189 189
83.1 -31.1 23.1 177 177 177
65.9 -23.9 17.7 134 137 136
68.7 -24.8 18.4 134 136 135
68.6 -24.6 18.2 134 137 136
72.9 -25.8 19.1 132 132 132
-17.5 -35.5 26.8 173 173 173
422.5 -313.0 236.5 211 211 211
698.8 -511.0 386.0 211 211 211
630.5 -455.2 343.9 207 210 209
468.2 -333.8 252.2 208 211 210
726.1 -481.5 363.8 209 212 211
172.9 -78.2 59.1 190 192 192
86.2 -31.7 23.9 169 169 169
87.4 -31.9 24.1 160 163 162
87.9 -31.9 24.1 147 147 147
69.7 -24.7 18.6 134 134 134
69.3 -24.4 18.4 134 134 134
73.8 -25.7 19.4 132 132 132
-17.7 -35.2 27.1 91 93 92
-17.0 -35.0 26.9 81 84 83
654.3 -464.1 356.9 212 213 212
456.1 -319.5 245.7 212 213 212
726.1 -473.0 363.8 214 214 214
167.7 -74.5 57.3 191 194 193
153.3 -67.6 52.0 192 192 192
87.8 -31.7 24.4 146 148 148
88.7 -31.8 24.5 140 142 141
70.2 -24.4 18.8 133 133 133
69.6 -24.1 18.5 133 133 133
73.9 -25.2 19.4 129 132 131
-18.7 -35.3 27.7 134 134 134
-18.0 -35.1 27.5 91 93 92
-17.4 -35.2 27.6 83 85 85
693.6 -483.2 378.3 211 211 211
362.0 -249.1 195.0 212 213 212
321.0 -203.0 159.0 215 215 215
225.9 -141.3 110.6 215 215 215
196.4 -121.4 95.1 215 215 215
149.6 -64.8 50.7 59 59 59
90.3 -32.0 25.1 135 135 135
89.9 -31.7 24.8 131 134 133
89.8 -31.5 24.6 129 132 131
70.3 -24.0 18.8 128 128 128
69.8 -23.7 18.5 129 129 129
74.1 -24.9 19.5 128 128 128
-19.1 -35.3 28.2 136 138 137
-18.1 -34.8 27.7 91 94 93
-17.6 -35.1 28.0 89 91 90
559.3 -382.6 305.1 211 211 211
390.2 -263.5 210.2 212 213 212
755.1 -474.4 378.3 214 214 214
341.0 -211.8 168.9 214 214 214
237.0 -145.5 116.1 215 215 215
90.8 -31.6 25.2 112 112 112
90.8 -31.4 25.1 116 118 117
90.6 -31.2 24.9 120 120 120
70.3 -23.6 18.8 120 120 120
69.7 -23.2 18.5 119 119 119
73.4 -24.3 19.4 123 123 123
73.1 -24.1 19.2 127 127 127
11.8 -12.5 10.2 210 210 210
12.8 -12.5 10.2 210 210 210
13.0 -12.6 10.2 209 209 209
13.9 -12.5 10.2 209 209 209
578.0 -388.0 315.3 211 211 211
423.1 -280.5 227.9 218 218 218
609.0 -375.5 305.1 217 217 217
341.0 -207.8 168.9 214 214 214
241.5 -145.5 118.2 209 212 211
209.0 -124.5 101.2 210 213 212
92.8 -31.7 25.8 107 109 109
90.8 -30.6 24.9 112 112 112
70.9 -23.3 19.0 112 112 112
70.3 -23.0 18.7 112 112 112
73.6 -23.9 19.4 115 114 114
72.9 -23.6 19.1 129 129 129
444.5 -289.1 239.4 215 215 215
51.0 -16.8 13.9 109 111 111
74.0 -23.4 19.4 141 141 141
19.0 -13.9 11.7 211 211 211
50.9 -16.4 13.9 105 105 105
-21.0 -37.3 32.1 98 100 100
-20.2 -37.3 32.1 94 94 94
19.0 -13.5 11.7 215 215 215
20.2 -14.3 12.3 215 215 215
50.7 -16.0 13.8 95 95 95
50.2 -15.8 13.6 87 87 87
50.3 -15.7 13.5 73 73 73
-21.7 -37.8 33.2 96 96 96
-20.8 -37.6 33.0 95 98 97
-20.5 -38.4 33.8 86 86 86
-19.9 -38.8 34.1 113 114 113
19.0 -13.3 11.7 215 215 215
50.8 -15.8 13.9 96 96 96
50.7 -15.7 13.8 80 83 82
50.6 -15.6 13.7 73 73 73
50.8 -15.6 13.7 70 69 68
-21.3 -37.7 33.8 95 98 97
-21.1 -38.8 34.8 110 110 110
13.0 -11.2 10.0 212 213 212
18.8 -13.1 11.7 215 215 215
19.0 -13.0 11.7 211 211 211
19.8 -13.2 11.8 218 218 218
51.0 -15.5 13.9 79 81 80
50.7 -15.3 13.7 71 71 71
13.0 -10.9 10.0 216 216 216
18.7 -12.8 11.7 218 218 218
18.9 -12.7 11.6 218 218 218
22.7 -15.0 13.8 218 218 218
19.5 -12.6 11.5 219 219 219
50.9 -15.1 13.9 81 84 83
51.1 -15.1 13.8 78 78 78
51.6 -15.1 13.9 75 76 76
52.2 -15.1 13.9 79 82 81
-25.1 -44.1 41.3 109 109 109
-26.1 -47.8 44.7 13 17 14
18.8 -12.4 11.6 218 218 218
22.6 -14.7 13.7 218 218 218
19.4 -12.2 11.5 219 219 219
509.0 -292.8 274.1 217 217 217
51.0 -14.8 13.9 88 88 88
51.2 -14.8 13.9 79 82 81
51.8 -14.9 13.9 79 82 81
52.4 -15.0 14.0 79 82 81
-31.4 -56.1 53.7 21 21 21
-29.9 -55.7 53.3 20 20 20
-27.4 -53.3 51.0 23 24 23
51.7 -14.5 13.9 79 82 81
52.5 -14.7 14.0 79 82 81
52.4 -14.5 13.9 79 82 81
-31.7 -55.5 54.4 22 22 22
-30.9 -56.3 55.1 25 25 23
-28.7 -54.6 53.4 121 121 121
19.8 -12.1 11.9 218 218 218
19.6 -11.8 11.6 219 219 219
21.0 -12.5 12.2 219 219 219
49.8 -13.9 13.6 92 92 92
50.9 -14.1 13.8 80 83 82
51.6 -14.2 13.9 80 83 82
52.6 -14.4 14.1 80 83 82
-15.7 -12.3 12.3 131 131 131
-31.7 -54.1 54.2 44 45 43
-30.6 -54.4 54.5 23 24 23
17.3 -11.6 11.7 217 217 217
19.6 -11.5 11.5 218 218 218
21.0 -12.2 12.2 219 219 219
208.2 -97.3 97.5 198 198 198
-32.0 -53.5 54.8 44 44 44
-30.0 -52.1 53.4 20 20 20
22.6 -13.4 13.7 215 215 215
22.2 -12.9 13.3 218 218 218
21.3 -12.1 12.4 219 219 219
639.9 -312.6 320.6 221 221 221
299.4 -139.7 143.3 181 181 181
256.1 -118.2 121.3 192 192 192
192.4 -87.8 90.1 196 196 196
-33.5 -54.6 57.3 31 31 31
-31.1 -52.8 55.5 26 25 24
-28.9 -51.1 53.7 170 171 170
22.6 -13.1 13.7 218 218 218
22.3 -12.7 13.4 218 221 220
19.3 -10.8 11.4 218 218 218
301.6 -137.4 144.4 184 184 184
266.4 -120.0 126.1 194 194 194
208.2 -92.8 97.5 196 196 196
-38.5 -61.2 65.9 32 34 33
-34.6 -57.2 61.6 18 18 18
18.9 -11.0 11.8 218 221 220
19.1 -10.9 11.8 218 221 220
22.6 -12.7 13.7 218 221 220
19.3 -10.6 11.4 218 221 220
20.7 -11.0 11.9 219 219 219
18.9 -10.7 11.8 218 221 220
19.1 -10.6 11.7 218 221 220
20.3 -11.1 12.3 218 221 220
19.8 -10.7 11.8 218 221 220
19.6 -10.5 11.6 218 221 220
21.0 -11.1 12.2 219 222 221
20.7 -10.7 11.9 219 222 221
19.0 -10.3 11.7 218 221 220
20.3 -10.9 12.3 218 221 220
19.7 -10.4 11.8 218 221 220
19.6 -10.2 11.6 218 221 220
21.0 -10.8 12.2 219 222 221
599.3 -264.8 300.3 220 220 220
15.6 -9.0 10.5 218 221 220
18.9 -10.1 11.8 218 221 220
19.0 -10.1 11.7 218 221 220
20.3 -10.6 12.3 218 221 220
19.5 -9.9 11.5 218 221 220
21.0 -10.5 12.2 219 222 221
599.3 -257.8 300.3 220 220 220
-193.5 -329.3 394.1 179 182 181
19.0 -9.8 11.7 218 221 220
20.2 -10.3 12.3 218 218 218
-229.7 -307.3 378.3 66 66 66
-216.5 -313.6 386.0 23 24 23
-160.9 -279.4 343.9 163 166 165
20.3 -10.0 12.3 218 221 220
21.0 -9.9 12.2 219 222 221
599.3 -243.9 300.3 220 223 222
19.1 -9.3 11.8 218 221 220
20.2 -9.7 12.3 218 221 220
19.6 -9.1 11.5 222 224 224
21.0 -9.6 12.2 222 224 224
18.9 -9.0 11.8 218 221 220
19.0 -9.0 11.7 218 221 220
19.8 -9.1 11.9 222 224 224
19.4 -8.8 11.5 222 224 224
21.0 -9.4 12.2 219 222 221
19.4 -8.5 11.4 222 224 224
21.1 -9.1 12.3 219 222 221
20.8 -8.9 12.0 219 222 221
23.0 -9.4 12.7 219 222 221
19.3 -8.2 11.4 222 224 224
21.1 -8.8 12.3 219 222 221
20.7 -8.5 11.9 219 222 221
23.1 -9.3 12.9 219 222 221
22.5 -8.8 12.3 219 222 221
786.6 -283.5 394.1 220 223 222
-12.5 -7.8 11.1 34 33 32
19.3 -7.9 11.4 219 222 221
23.1 -9.0 12.9 219 222 221
23.0 -8.8 12.7 219 222 221
580.9 -202.6 291.0 220 223 222
-221.2 -62.1 92.3 62 62 62
-212.8 -60.3 89.7 56 56 56
22.9 -8.7 13.0 219 222 221
23.0 -8.7 12.9 219 222 221
23.0 -8.6 12.7 219 222 221
589.9 -198.9 295.6 220 223 222
-242.2 -65.0 100.1 30 31 30
-236.2 -64.0 98.5 31 32 30
-227.9 -62.4 96.0 29 29 29
-230.4 -63.7 98.0 29 29 29
-230.5 -64.3 99.0 27 27 27
-228.2 -64.3 99.0 178 178 178
-223.5 -63.7 98.0 178 181 180
-219.0 -63.0 97.0 27 27 27
-219.0 -63.7 98.0 25 25 25
-217.8 -64.0 98.5 28 28 28
-215.6 -64.0 98.5 28 28 28
-212.2 -63.7 98.0 28 28 28
-208.8 -63.3 97.5 20 23 21
-201.3 -61.7 95.1 33 34 32
-206.4 -64.0 98.5 25 25 25
-229.3 -72.7 111.9 30 30 30
-201.6 -64.7 99.6 158 161 160
19.5 -7.5 11.5 219 222 221
23.1 -8.5 13.1 220 223 222
23.2 -8.4 13.0 220 223 222
589.9 -192.0 295.6 220 223 222
168.9 -45.0 69.3 231 231 231
-291.6 -75.5 120.5 59 59 59
-300.3 -78.5 125.3 59 59 59
-294.5 -78.5 125.3 55 55 55
-293.5 -79.0 126.1 61 61 61
-279.4 -75.9 121.3 151 151 151
-269.7 -74.0 118.2 101 100 98
-258.2 -73.1 116.8 35 34 33
-233.8 -66.9 106.9 28 28 28
-228.7 -66.2 105.7 28 28 28
-268.4 -81.1 129.6 18 18 18
-246.8 -75.5 120.5 43 45 44
-236.5 -73.1 116.8 104 104 104
-83.7 -89.8 143.3 28 28 28
-73.7 -82.3 131.4 30 30 30
19.6 -7.4 11.7 220 223 222
19.4 -7.2 11.5 220 223 222
19.2 -7.0 11.2 220 223 222
20.4 -7.4 11.7 220 223 222
22.9 -7.9 12.7 220 223 222
21.9 -7.4 11.8 220 223 222
168.9 -43.4 69.3 230 229 227
145.0 -36.9 58.9 235 238 237
-375.3 -93.5 155.1 68 68 68
-354.2 -89.1 147.8 71 72 70
-356.4 -90.5 150.1 71 72 70
-355.7 -91.3 151.3 75 76 76
-352.2 -91.3 151.3 99 98 96
-345.9 -90.5 150.1 163 163 163
-337.1 -89.1 147.8 144 146 146
-323.5 -86.4 143.3 79 79 79
-320.2 -86.4 143.3 62 62 62
-300.9 -82.1 136.1 61 60 59
-299.9 -82.7 137.1 61 60 59
-312.5 -92.0 152.6 102 101 99
-283.8 -84.5 140.1 145 147 147
-92.8 -95.9 159.0 31 31 31
-82.9 -89.1 147.8 28 28 28
19.8 -7.1 11.8 224 226 226
19.4 -6.9 11.4 220 223 222
20.5 -7.1 11.8 220 223 222
23.9 -8.2 13.5 220 223 222
21.9 -7.1 11.8 222 224 224
210.1 -54.6 90.5 196 196 196
168.3 -41.6 69.0 232 232 232
147.8 -36.2 60.1 235 238 237
-657.2 -154.5 266.4 77 77 77
-585.1 -138.8 239.4 73 73 73
-526.2 -126.1 217.4 75 76 76
-546.3 -132.1 227.9 75 76 76
-554.4 -135.4 233.5 75 75 75
-555.8 -137.1 236.5 77 77 77
-564.4 -140.6 242.5 77 77 77
-589.0 -148.2 255.6 72 73 71
-575.3 -146.2 252.2 73 74 72
-547.5 -140.6 242.5 71 71 71
-656.8 -179.8 310.1 67 67 67
-574.3 -159.0 274.1 67 67 67
-472.1 -132.1 227.9 73 73 73
-412.2 -116.7 201.2 73 73 73
19.4 -6.6 11.4 222 224 224
20.5 -6.8 11.8 222 224 224
23.7 -7.8 13.5 222 224 224
22.3 -7.1 12.2 222 224 224
22.0 -6.9 11.8 222 224 224
209.1 -52.2 90.1 199 199 199
166.1 -39.9 68.8 197 197 197
166.5 -39.6 68.3 235 235 235
148.2 -34.9 60.2 236 236 236
-720.5 -191.4 343.9 73 73 73
19.3 -6.4 11.4 222 224 224
20.6 -6.6 11.8 222 224 224
22.1 -6.7 12.1 221 221 221
214.2 -51.4 92.3 199 199 199
211.2 -50.1 90.1 203 203 203
167.3 -38.6 69.3 200 200 200
167.7 -38.3 68.8 235 235 235
153.1 -34.6 62.2 236 239 238
19.4 -6.1 11.5 221 221 221
21.0 -6.5 12.2 221 221 221
20.6 -6.3 11.9 221 221 221
218.5 -50.2 94.1 199 199 199
215.3 -49.0 91.8 203 203 203
171.1 -37.8 70.8 195 195 195
169.5 -37.1 69.5 234 234 234
161.6 -35.0 65.7 234 234 234
21.3 -6.3 12.4 222 222 222
20.6 -6.0 11.8 222 222 222
22.8 -6.4 12.6 222 222 222
221.8 -48.7 95.5 199 199 199
213.2 -46.4 90.9 200 200 200
174.3 -36.8 72.2 198 198 198
172.1 -36.0 70.6 225 227 227
220.6 -44.9 88.0 73 75 75
211.8 -42.7 83.7 70 70 70
22.9 -6.2 12.7 224 224 224
22.5 -6.0 12.3 224 224 224
180.3 -41.1 84.4 141 141 141
209.1 -43.9 90.1 197 197 197
177.4 -36.1 74.2 204 204 204
171.7 -34.6 71.1 196 196 196
171.4 -34.2 70.3 222 222 222
155.7 -30.8 63.3 222 222 222
137.8 -27.0 55.5 118 118 118
208.9 -40.6 83.3 70 70 70
207.2 -39.9 81.9 66 66 66
191.9 -36.3 74.5 61 64 63
21.3 -5.8 12.4 224 224 224
20.8 -5.6 12.0 221 221 221
22.9 -5.9 12.8 221 221 221
22.8 -5.8 12.6 221 221 221
22.2 -5.5 11.9 221 221 221
26.9 -6.4 13.8 224 224 224
216.3 -43.2 93.2 198 198 198
214.3 -42.4 91.4 200 200 200
222.8 -43.6 94.1 204 204 204
179.8 -34.5 74.5 208 208 208
175.3 -33.3 71.9 212 214 214
155.2 -29.2 63.1 228 231 230
212.7 -39.3 84.8 46 45 43
210.9 -38.6 83.3 62 64 64
220.6 -40.0 86.4 69 69 69
21.3 -5.5 12.4 221 221 221
20.8 -5.3 12.0 221 221 221
22.8 -5.6 12.8 221 221 221
22.2 -5.3 12.1 222 222 222
22.2 -5.3 11.9 222 222 222
22.6 -5.3 12.0 225 225 225
22.7 -5.2 11.9 225 225 225
26.8 -6.0 13.7 225 225 225
26.3 -5.9 13.3 225 225 225
214.7 -37.4 84.8 60 63 62
26.2 -5.5 13.3 225 225 225
25.9 -5.2 13.1 221 221 221
25.8 -5.1 12.9 224 224 224
26.0 -4.9 13.2 225 225 225
25.4 -4.4 12.7 225 225 225
25.5 -4.1 12.8 222 222 222
23.5 -3.9 13.0 224 224 224
25.6 -3.9 13.0 224 224 224
25.6 -3.9 12.8 224 224 224
23.5 -3.6 13.0 227 227 227
25.6 -3.6 13.0 224 224 224
25.6 -3.6 12.8 224 224 224
23.1 -3.3 13.1 221 221 221
23.3 -3.3 13.0 221 221 221
25.6 -3.3 13.1 225 225 225
25.6 -3.3 13.0 225 225 225
25.4 -3.2 12.7 225 225 225
23.3 -3.0 13.0 222 222 222
25.6 -3.0 13.0 226 226 226
25.4 -2.9 12.7 228 228 228
25.0 -2.9 12.4 226 226 226
23.2 -2.7 13.0 222 222 222
25.6 -2.7 13.0 222 222 222
25.6 -2.7 12.8 222 222 222
25.1 -2.6 12.4 222 222 222
25.9 -2.6 12.7 222 222 222
23.5 -2.4 13.0 224 224 224
25.6 -2.4 13.0 224 224 224
25.6 -2.4 12.8 224 224 224
25.1 -2.3 12.4 224 224 224
24.8 -2.0 12.3 224 224 224
24.8 -1.7 12.3 225 225 225
25.4 -1.5 12.7 225 225 225
25.0 -1.4 12.4 225 225 225
26.9 -1.5 12.7 182 182 182
25.4 -1.2 12.7 226 226 226
26.7 -1.2 12.7 188 188 188
29.0 -1.2 13.6 191 191 191
25.4 -0.9 12.7 222 224 224
26.8 -0.9 12.7 192 192 192
28.9 -0.9 13.5 194 194 194
26.5 -0.6 13.4 223 225 225
27.7 -0.6 13.3 175 177 177
28.8 -0.6 13.5 195 195 195
28.6 -0.6 13.3 198 198 198
26.4 -0.3 13.4 223 225 225
26.6 -0.3 13.3 223 225 225
25.1 -0.3 12.2 220 220 220
27.7 -0.3 13.3 176 179 178
28.7 -0.3 13.5 198 198 198
28.4 -0.3 13.1 198 198 198
26.6 0.0 13.5 224 226 226
26.7 0.0 13.4 224 226 226
25.4 0.0 12.3 222 224 224
27.8 0.0 13.3 177 180 179
28.7 0.0 13.4 199 199 199
28.5 0.0 13.2 199 199 199
25.6 0.3 12.4 224 226 226
28.7 0.3 13.4 197 197 197
84.1 2.1 22.4 88 88 88
82.6 2.1 21.8 92 92 92
80.1 2.0 21.0 165 168 167
83.8 2.6 22.3 92 92 92
82.7 2.6 21.8 95 95 95
79.3 2.4 20.8 156 156 156
84.1 3.1 22.4 91 91 91
83.2 3.1 22.0 95 95 95
79.5 2.9 20.9 128 130 129
84.9 3.7 22.6 90 90 90
83.4 3.6 22.0 97 100 99
80.1 3.5 21.0 106 106 106
62.9 3.1 16.7 92 92 92
365.2 92.1 394.1 117 119 118
339.1 83.4 356.9 157 157 157
361.0 86.7 370.9 186 186 186
392.7 92.1 394.1 192 195 194
385.8 88.4 378.3 189 191 191
411.0 92.1 394.1 186 186 186
403.4 88.4 378.3 189 191 191
421.0 88.4 378.3 162 162 162
498.9 86.7 370.9 145 145 144
706.7 69.1 295.6 199 199 199
878.3 85.0 363.8 194 194 194
886.7 85.0 363.8 196 196 196
738.9 70.2 300.3 77 77 77
745.9 70.2 300.3 184 187 186
847.0 78.9 337.8 186 188 187
736.5 68.0 291.0 191 191 191
1087.1 74.9 320.6 74 73 71
978.4 67.0 286.6 75 75 75
1300.7 86.7 370.9 99 101 101
942.3 101.3 394.1 200 200 200
895.2 93.5 363.8 68 68 68
959.0 99.2 386.0 182 185 184
997.3 101.3 394.1 191 191 191
1241.9 93.5 363.8 75 76 76
161.2 14.8 42.3 151 151 151
-34.0 4.6 12.3 206 206 206
-31.1 4.5 12.2 212 213 212
-30.8 4.5 12.2 203 203 203
161.6 15.8 42.4 152 154 154
29.1 6.0 13.6 204 204 204
29.0 6.3 13.6 202 202 202
26.8 6.7 13.7 221 221 221
29.0 6.6 13.6 202 202 202
-277.8 74.6 145.5 68 70 68
26.8 7.0 13.7 221 221 221
26.8 7.0 13.6 221 221 221
26.8 6.9 13.4 224 224 224
28.8 6.9 13.5 202 202 202
-285.5 79.2 147.8 75 76 74
-282.1 79.2 147.8 74 74 74
26.5 7.0 13.1 218 218 218
28.3 7.0 13.1 203 203 203
-126.9 27.5 49.1 128 128 128
-125.4 27.4 49.0 134 137 136
-124.0 27.3 48.9 141 141 141
-123.5 27.5 49.1 144 144 144
-122.0 27.4 49.0 146 146 146
-120.6 27.3 48.9 149 149 149
-119.7 27.4 49.0 150 150 150
-118.9 27.5 49.1 153 153 153
-117.8 27.5 49.1 147 147 147
-115.5 27.5 49.1 121 121 121
-114.3 27.5 49.1 173 173 173
-112.9 27.4 49.0 140 140 140
-111.5 27.3 48.9 112 112 112
-97.5 27.5 49.3 80 80 80
-96.3 27.5 49.3 77 79 78
-93.3 27.3 48.9 82 82 82
-92.2 27.3 48.9 81 81 81
-90.3 27.1 48.5 83 83 83
-79.3 27.2 48.6 124 124 124
-77.7 27.0 48.4 119 119 119
-76.6 27.0 48.4 115 114 114
-75.7 27.1 48.5 109 111 111
-75.7 27.5 49.3 107 107 107
-74.8 27.6 49.4 105 105 105
-72.7 27.3 48.8 101 103 103
25.9 7.1 12.7 224 224 224
28.2 7.3 13.1 200 200 200
-228.4 68.8 118.2 115 114 114
-225.7 68.8 118.2 105 105 105
-214.9 66.4 114.0 100 100 100
-38.1 14.9 25.5 123 125 124
-36.9 14.6 25.2 127 127 127
28.3 7.6 13.1 202 202 202
-38.3 15.6 25.7 140 140 140
-494.7 233.8 386.0 72 73 71
-390.1 187.8 310.1 170 171 170
-359.4 176.2 291.0 78 80 78
154.1 224.6 370.9 64 64 64
153.7 212.1 350.3 67 67 67
26.3 7.9 13.0 219 219 219
28.3 7.9 13.1 198 198 198
-449.0 224.4 356.9 80 83 82
-29.2 10.6 10.4 16 16 16
-28.8 10.6 10.3 19 23 20
-29.3 10.9 10.4 125 125 125
-28.8 10.8 10.3 95 98 97
27.0 16.4 11.2 211 211 211
26.5 15.9 10.9 214 214 214
27.2 15.9 10.9 217 217 217
25.7 16.3 10.9 179 179 179
25.7 16.2 10.9 188 188 188
26.5 16.4 11.0 217 217 217
26.5 16.2 10.9 217 217 217
27.0 16.2 10.9 211 211 211
27.2 16.1 10.8 204 207 206
28.0 16.1 10.8 95 95 95
28.2 16.2 10.9 91 91 91
39.8 16.1 10.8 111 113 112
40.3 16.1 10.8 136 138 137
26.3 16.3 10.8 219 219 219
35.7 16.7 10.1 98 97 95
