ply
format ascii 1.0
element vertex 2570
property float x
property float y
property float z
property uchar red
property uchar green
property uchar blue
end_header
196.7 -443.6 176.8 164 164 164
199.0 -439.5 175.2 161 161 161
211.0 -447.7 178.5 162 162 162
211.2 -439.5 175.2 165 165 165
209.4 -427.6 170.4 162 162 162
223.3 -431.5 172.0 159 159 159
255.6 -460.8 183.7 159 159 159
257.4 -456.4 181.9 160 160 160
99.0 -164.8 65.7 158 158 158
98.9 -162.0 64.6 158 158 158
100.7 -162.5 64.8 158 158 158
102.9 -163.7 65.2 159 159 159
104.8 -164.2 65.5 154 156 156
105.9 -163.7 65.2 154 156 156
59.4 -85.7 34.1 156 159 158
60.1 -85.5 34.1 154 156 156
60.9 -85.5 34.1 154 156 156
61.8 -85.7 34.1 154 156 156
62.7 -85.8 34.2 155 158 157
95.1 -69.0 27.5 101 100 98
95.4 -68.7 27.4 95 98 97
96.0 -68.7 27.4 95 98 97
120.4 -391.8 157.6 164 167 166
123.1 -388.6 156.3 164 167 166
126.7 -388.6 156.3 164 167 166
129.3 -385.4 155.1 164 167 166
132.9 -385.4 155.1 164 167 166
135.4 -382.3 153.8 164 167 166
69.2 -190.4 76.6 164 167 166
69.8 -187.3 75.4 164 167 166
149.8 -391.8 157.6 164 167 166
150.9 -385.4 155.1 165 168 167
155.8 -388.6 156.3 164 164 164
155.6 -379.2 152.6 164 164 164
79.9 -190.4 76.6 164 164 164
81.3 -189.6 76.3 164 164 164
173.2 -395.1 159.0 164 164 164
175.4 -391.8 157.6 164 164 164
87.4 -191.1 76.9 161 161 161
87.7 -188.1 75.7 164 164 164
188.0 -395.1 159.0 162 162 162
92.3 -190.4 76.6 162 162 162
94.1 -190.4 76.6 162 162 162
96.3 -191.1 76.9 162 162 162
95.0 -185.1 74.5 162 162 162
101.0 -186.6 75.1 159 159 159
229.1 -416.1 167.4 159 159 159
117.0 -195.9 78.8 160 160 160
112.7 -185.9 74.8 160 160 160
119.8 -188.8 76.0 161 161 161
122.6 -190.4 76.6 159 159 159
119.5 -183.0 73.6 159 159 159
61.0 -87.1 35.0 156 159 158
61.3 -86.4 34.8 156 159 158
62.0 -86.3 34.7 157 160 159
63.2 -86.8 34.9 157 160 159
64.5 -87.4 35.2 155 158 157
65.4 -87.6 35.2 155 158 157
66.0 -87.2 35.1 155 158 157
66.8 -87.2 35.1 156 159 158
67.5 -87.1 35.0 156 159 158
68.9 -87.9 35.4 156 159 158
69.0 -86.9 35.0 157 160 159
80.4 -57.8 23.2 101 100 98
93.2 -66.5 26.8 95 98 97
93.3 -66.1 26.6 95 98 97
63.3 -43.1 17.4 160 163 162
63.2 -42.8 17.2 194 197 196
63.6 -42.8 17.2 194 197 196
64.0 -42.8 17.2 202 202 202
64.3 -42.7 17.2 156 156 156
66.4 -43.1 17.3 188 188 188
38.0 -184.1 74.8 160 160 160
43.2 -184.1 74.8 163 166 165
45.0 -184.1 74.8 162 162 162
46.7 -184.1 74.8 163 166 165
48.4 -184.1 74.8 163 166 165
50.2 -184.1 74.8 163 166 165
51.9 -184.1 74.8 163 166 165
53.7 -184.1 74.8 164 167 166
55.4 -184.1 74.8 164 167 166
57.1 -184.1 74.8 164 167 166
58.9 -184.1 74.8 164 167 166
60.6 -184.1 74.8 164 167 166
62.3 -184.1 74.8 164 167 166
64.1 -184.1 74.8 164 167 166
65.8 -184.1 74.8 164 167 166
67.6 -184.1 74.8 164 167 166
68.8 -182.7 74.2 164 167 166
70.8 -183.4 74.5 164 167 166
72.8 -184.1 74.8 164 164 164
74.5 -184.1 74.8 164 164 164
75.6 -182.7 74.2 164 164 164
78.3 -184.8 75.1 164 164 164
79.4 -183.4 74.5 164 164 164
81.1 -183.4 74.5 164 164 164
84.2 -186.3 75.7 164 164 164
85.3 -184.8 75.1 164 164 164
86.0 -182.7 74.2 164 164 164
88.1 -183.4 74.5 164 164 164
90.5 -184.8 75.1 162 162 162
91.9 -184.1 74.8 162 162 162
93.6 -184.1 74.8 162 162 162
99.2 -184.8 75.1 162 162 162
97.5 -178.5 72.5 162 162 162
107.5 -187.1 76.0 162 162 162
106.3 -182.0 73.9 163 163 163
110.6 -186.3 75.7 163 163 163
112.8 -187.1 76.0 163 163 163
111.0 -181.3 73.6 163 163 163
117.1 -185.6 75.4 158 158 158
118.4 -184.8 75.1 161 161 161
120.6 -185.6 75.4 161 161 161
119.1 -180.6 73.3 162 162 162
62.5 -88.4 35.9 161 161 161
61.5 -85.9 34.9 162 162 162
61.9 -85.3 34.6 157 160 159
63.2 -85.9 34.9 157 160 159
65.1 -87.4 35.5 155 158 157
66.1 -87.7 35.6 155 158 157
66.6 -87.2 35.4 155 158 157
66.8 -86.4 35.1 156 159 158
67.7 -86.6 35.2 156 159 158
69.8 -88.2 35.8 156 159 158
69.6 -86.9 35.3 157 160 159
116.5 -86.4 35.1 105 105 105
79.9 -57.2 23.2 101 100 98
79.0 -56.2 22.8 101 100 98
80.2 -56.7 23.0 101 100 98
62.5 -42.2 17.1 156 156 156
62.9 -41.7 16.9 207 207 207
64.9 -41.9 17.0 191 191 191
64.7 -41.6 16.9 191 191 191
22.2 -130.3 53.4 158 158 158
23.5 -130.7 53.6 161 161 161
37.3 -131.1 53.7 163 166 165
38.6 -131.1 53.7 164 167 166
39.8 -131.1 53.7 164 167 166
41.1 -131.1 53.7 164 167 166
42.3 -131.1 53.7 164 167 166
43.6 -131.1 53.7 164 167 166
45.1 -131.8 54.0 164 167 166
46.5 -132.2 54.2 164 167 166
47.6 -131.8 54.0 164 167 166
48.7 -131.5 53.9 164 167 166
49.8 -131.1 53.7 164 167 166
51.1 -131.1 53.7 164 167 166
51.7 -129.6 53.1 165 168 167
55.1 -131.8 54.0 164 164 164
55.1 -128.9 52.8 164 164 164
57.1 -130.7 53.6 164 164 164
58.7 -131.5 53.9 164 164 164
63.7 -131.5 53.9 164 164 164
67.0 -133.0 54.5 165 165 165
67.9 -132.2 54.2 165 165 165
68.0 -130.0 53.3 165 165 165
70.4 -130.0 53.3 165 165 165
80.3 -145.6 59.7 165 165 165
76.6 -136.5 56.0 165 165 165
86.1 -146.0 59.9 166 166 166
81.1 -129.3 53.0 163 163 163
61.0 -95.7 39.2 163 163 163
127.5 -197.2 80.8 164 164 164
131.7 -200.6 82.2 164 164 164
129.6 -194.7 79.8 164 164 164
66.4 -93.0 38.1 163 163 163
64.3 -88.9 36.4 164 164 164
61.9 -84.5 34.6 162 162 162
66.8 -88.9 36.4 163 163 163
68.2 -89.6 36.7 158 161 160
69.4 -90.1 36.9 158 161 160
70.6 -90.5 37.1 159 162 161
74.3 -93.0 38.1 156 159 158
72.9 -90.1 36.9 157 160 159
106.3 -77.6 31.8 105 105 105
75.9 -53.5 21.9 95 98 97
75.2 -52.7 21.6 95 98 97
73.0 -50.8 20.8 95 98 97
61.7 -41.3 16.9 151 151 151
63.2 -40.7 16.7 202 202 202
64.0 -41.0 16.8 196 199 198
64.0 -40.7 16.7 212 213 212
21.6 -118.7 49.1 161 161 161
22.6 -118.1 48.9 161 161 161
23.8 -118.4 49.0 163 163 163
24.9 -118.1 48.9 163 163 163
26.0 -118.1 48.9 163 163 163
27.1 -118.1 48.9 164 167 166
28.3 -118.1 48.9 163 166 165
29.4 -118.1 48.9 163 166 165
30.5 -118.1 48.9 163 166 165
31.7 -118.1 48.9 163 166 165
32.8 -118.1 48.9 163 166 165
33.9 -118.1 48.9 163 166 165
35.0 -117.8 48.8 164 167 166
36.1 -117.8 48.8 164 167 166
37.3 -118.1 48.9 164 167 166
38.5 -118.1 48.9 164 167 166
39.6 -118.1 48.9 164 167 166
40.7 -117.8 48.8 164 167 166
41.9 -118.1 48.9 164 167 166
43.0 -118.1 48.9 164 167 166
44.2 -118.1 48.9 164 167 166
45.2 -117.8 48.8 164 167 166
46.3 -117.8 48.8 164 167 166
47.5 -117.8 48.8 165 168 167
48.8 -118.4 49.0 165 168 167
50.2 -119.0 49.3 165 168 167
50.5 -116.9 48.4 164 164 164
51.2 -116.0 48.0 164 164 164
54.2 -117.8 48.8 164 164 164
55.2 -117.5 48.6 164 164 164
57.3 -119.3 49.4 165 168 167
57.9 -118.4 49.0 164 164 164
58.9 -118.1 48.9 166 169 168
59.9 -117.8 48.8 166 169 168
61.0 -117.8 48.8 166 169 168
62.0 -117.5 48.6 166 169 168
63.0 -117.2 48.5 166 169 168
64.6 -118.1 48.9 166 169 168
65.9 -118.4 49.0 166 169 168
69.2 -122.2 50.6 166 169 168
68.6 -119.0 49.3 166 169 168
69.2 -118.1 48.9 166 169 168
60.0 -93.3 38.6 166 166 166
135.0 -206.8 85.6 167 167 167
135.2 -204.0 84.4 167 167 167
68.4 -96.2 39.8 166 166 166
66.4 -92.1 38.1 163 163 163
65.0 -89.1 36.9 166 166 166
67.3 -88.7 36.7 165 165 165
69.0 -89.8 37.2 163 163 163
71.1 -91.4 37.8 163 163 163
74.3 -92.1 38.1 156 159 158
75.1 -92.0 38.1 157 160 159
100.7 -72.8 30.1 102 102 102
95.1 -68.2 28.2 102 102 102
72.6 -50.3 20.8 95 98 97
72.4 -49.9 20.7 92 95 94
71.0 -48.6 20.1 92 95 94
58.1 -37.5 15.5 173 173 173
57.4 -36.9 15.3 212 213 212
57.1 -36.4 15.1 184 184 184
58.4 -37.0 15.3 215 215 215
25.7 -91.6 38.3 170 171 170
26.5 -91.4 38.2 163 166 165
27.5 -91.6 38.3 164 167 166
28.4 -91.6 38.3 164 167 166
29.2 -91.4 38.2 164 167 166
30.1 -91.4 38.2 164 167 166
30.9 -91.3 38.1 164 167 166
31.8 -91.3 38.1 164 167 166
32.7 -91.3 38.1 164 167 166
33.6 -91.3 38.1 164 167 166
34.5 -91.3 38.1 164 167 166
35.3 -91.3 38.1 164 167 166
36.2 -91.1 38.1 164 167 166
37.1 -91.3 38.1 165 168 167
38.0 -91.3 38.1 165 168 167
38.9 -91.3 38.1 165 168 167
40.0 -91.8 38.4 165 168 167
40.9 -91.8 38.4 165 168 167
41.1 -90.2 37.7 165 168 167
42.1 -90.5 37.8 165 168 167
46.5 -92.4 38.6 166 169 168
47.3 -92.2 38.5 166 169 168
47.9 -91.4 38.2 166 169 168
49.0 -92.0 38.4 166 169 168
49.8 -91.8 38.4 170 172 172
50.0 -90.5 37.8 170 172 172
52.0 -92.6 38.7 170 172 172
52.3 -91.4 38.2 170 172 172
53.1 -91.3 38.1 170 172 172
56.4 -93.9 39.2 168 170 169
559.3 -887.5 370.9 171 173 173
60.6 -93.3 39.0 168 170 169
61.2 -92.8 38.8 169 171 170
136.4 -203.9 85.2 169 171 170
135.3 -199.4 83.3 169 171 170
121.7 -176.8 73.9 170 172 172
68.6 -94.3 39.4 169 169 169
73.9 -94.1 39.3 166 166 166
40.4 -50.9 21.3 166 166 166
39.8 -49.4 20.7 164 164 164
94.8 -67.9 28.4 102 102 102
91.3 -64.8 27.1 102 102 102
89.1 -62.9 26.3 101 100 98
72.3 -49.6 20.7 95 98 97
72.1 -49.2 20.6 95 98 97
69.4 -47.1 19.7 95 98 97
54.3 -34.3 14.4 218 218 218
54.3 -34.1 14.2 218 218 218
54.7 -34.1 14.3 218 218 218
24.9 -84.9 35.8 163 166 165
27.4 -87.7 37.0 164 167 166
30.2 -88.2 37.2 164 167 166
31.1 -88.4 37.3 164 167 166
31.9 -88.2 37.2 164 167 166
32.8 -88.2 37.2 164 167 166
33.2 -84.9 35.8 164 167 166
35.1 -87.5 36.9 164 167 166
36.0 -87.7 37.0 165 168 167
37.0 -88.1 37.2 165 168 167
37.7 -87.7 37.0 169 171 170
40.3 -87.5 36.9 165 168 167
44.9 -84.9 35.8 174 174 174
45.4 -84.4 35.6 170 172 172
49.5 -85.7 36.2 170 172 172
49.6 -84.4 35.6 177 177 177
50.6 -84.7 35.8 171 173 173
54.2 -89.3 37.7 171 173 173
214.5 -332.0 140.1 171 173 173
164.3 -250.4 105.7 171 173 173
140.1 -210.4 88.8 172 174 174
138.3 -204.7 86.4 172 174 174
136.5 -199.2 84.1 172 174 174
43.6 -54.9 23.2 168 168 168
40.9 -50.9 21.5 169 169 169
95.0 -67.3 28.4 105 105 105
64.6 -43.1 18.2 95 98 97
52.7 -32.8 13.8 218 218 218
51.5 -31.9 13.4 218 218 218
44.2 -73.2 31.2 177 177 177
201.1 -308.2 131.4 171 173 173
161.6 -243.9 103.9 181 181 181
140.1 -208.4 88.8 176 176 176
138.9 -203.6 86.8 184 184 184
135.9 -196.4 83.7 172 174 174
42.2 -70.4 30.3 199 199 199
42.5 -69.8 30.0 196 196 196
43.7 -70.5 30.4 196 196 196
44.2 -70.2 30.2 199 199 199
199.7 -303.1 130.5 199 199 199
162.4 -242.8 104.5 199 199 199
145.6 -214.4 92.3 200 200 200
147.0 -213.3 91.8 197 197 197
143.6 -205.3 88.4 200 200 200
191.2 -269.6 116.1 202 202 202
179.6 -249.7 107.5 202 202 202
40.4 -65.7 28.6 203 203 203
42.7 -68.3 29.7 203 203 203
43.1 -67.9 29.5 203 203 203
43.1 -66.8 29.1 203 203 203
202.5 -304.2 132.3 203 203 203
161.6 -239.0 103.9 199 199 199
146.3 -213.3 92.7 204 204 204
150.7 -216.4 94.1 204 204 204
147.7 -209.2 90.9 204 204 204
177.1 -247.2 107.5 205 205 205
172.7 -237.7 103.4 205 205 205
157.1 -213.3 92.7 202 202 202
72.4 -49.4 21.5 105 105 105
69.9 -47.4 20.6 105 105 105
43.2 -68.4 30.0 206 206 206
43.9 -68.5 30.1 206 206 206
44.3 -67.9 29.8 206 206 206
170.0 -248.9 109.3 203 203 203
147.0 -212.1 93.2 204 204 204
150.7 -214.3 94.1 204 204 204
146.3 -205.1 90.1 204 204 204
178.1 -246.1 108.1 205 205 205
169.9 -231.5 101.7 208 208 208
156.3 -210.1 92.3 205 205 205
28.0 -36.7 16.1 206 206 206
82.7 -57.1 25.1 110 112 111
72.8 -49.2 21.6 107 107 107
70.1 -47.1 20.7 105 105 105
42.7 -66.9 29.7 206 206 206
43.6 -67.2 29.8 206 206 206
44.3 -67.2 29.8 206 206 206
44.2 -66.1 29.3 206 206 206
164.9 -235.5 104.5 207 207 207
160.2 -225.5 100.1 207 207 207
149.9 -207.9 92.3 209 209 209
190.0 -259.9 115.3 207 207 207
178.5 -240.8 106.9 205 205 205
28.2 -37.1 16.4 206 206 206
27.9 -36.2 16.1 206 206 206
27.5 -35.1 15.6 206 206 206
78.1 -53.0 23.5 111 113 112
75.8 -51.0 22.7 111 113 112
40.6 -63.9 28.7 208 208 208
42.6 -66.1 29.6 208 208 208
43.2 -65.9 29.6 208 208 208
43.9 -65.9 29.6 208 208 208
43.6 -64.5 28.9 208 208 208
168.2 -234.4 105.1 208 208 208
28.2 -36.6 16.4 208 208 208
28.1 -36.0 16.1 208 208 208
27.3 -34.5 15.5 209 209 209
27.2 -33.9 15.2 206 206 206
23.8 -24.5 11.0 158 158 158
23.9 -24.5 11.0 158 158 158
75.8 -50.5 22.7 111 113 112
39.2 -62.2 28.2 207 207 207
40.3 -62.9 28.5 207 207 207
42.5 -65.2 29.6 207 207 207
43.0 -64.9 29.4 207 207 207
43.6 -64.8 29.4 207 207 207
43.5 -63.7 28.9 207 207 207
43.8 -63.2 28.6 207 207 207
28.0 -36.0 16.3 207 207 207
28.0 -35.5 16.1 208 208 208
27.5 -34.4 15.6 208 208 208
27.2 -33.6 15.2 208 208 208
43.0 -65.4 29.9 210 210 210
43.3 -64.6 29.6 207 207 207
43.9 -64.6 29.6 207 207 207
44.1 -63.8 29.2 207 207 207
44.0 -62.8 28.7 207 207 207
28.0 -35.1 16.1 207 207 207
27.5 -34.1 15.6 207 207 207
24.3 -27.5 12.6 207 207 207
42.7 -64.2 29.7 209 209 209
43.2 -63.9 29.6 209 209 209
43.9 -63.9 29.6 206 206 206
44.3 -63.5 29.4 206 206 206
44.8 -63.3 29.3 206 206 206
28.0 -34.8 16.1 208 208 208
27.6 -33.8 15.6 209 209 209
27.1 -32.8 15.2 207 207 207
27.8 -33.2 15.4 207 207 207
24.5 -27.8 12.9 208 208 208
24.5 -27.5 12.7 206 206 206
24.7 -27.4 12.7 207 207 207
-32.7 -24.8 11.6 48 48 48
-30.8 -24.8 11.6 48 48 48
-27.8 -24.8 11.6 41 41 41
-21.9 -24.8 11.6 104 104 104
-20.6 -24.8 11.6 110 110 110
-20.2 -24.8 11.6 106 108 108
-18.4 -24.8 11.6 115 117 116
-17.1 -24.9 11.7 122 122 122
-16.8 -24.9 11.6 122 122 122
-16.0 -24.8 11.6 121 121 121
-15.7 -24.8 11.6 123 123 123
-15.1 -24.8 11.6 127 127 127
-10.0 -24.8 11.6 139 139 139
-9.7 -24.7 11.6 140 142 141
-9.5 -24.7 11.6 141 143 142
-9.2 -24.8 11.6 145 145 144
-5.7 -24.8 11.6 163 166 165
-5.4 -24.8 11.6 163 166 165
43.5 -62.7 29.3 209 209 209
43.9 -62.2 29.1 206 206 206
44.1 -61.5 28.8 206 206 206
43.6 -60.0 28.1 206 206 206
28.0 -34.4 16.1 208 208 208
27.8 -33.6 15.7 208 208 208
27.4 -32.8 15.3 206 206 206
25.0 -28.1 13.1 208 208 208
-32.8 -24.6 11.6 49 49 49
-32.5 -24.6 11.7 52 52 52
-32.3 -24.6 11.7 52 52 52
-32.0 -24.7 11.7 53 55 53
-31.7 -24.6 11.7 52 52 52
-31.5 -24.6 11.7 52 52 52
-31.2 -24.7 11.7 52 52 52
-30.9 -24.7 11.7 52 52 52
-30.6 -24.6 11.7 52 52 52
-30.3 -24.6 11.6 53 55 53
-30.1 -24.6 11.7 52 52 52
-29.8 -24.6 11.6 52 52 52
-29.5 -24.6 11.6 53 55 53
-29.3 -24.7 11.7 49 49 49
-29.0 -24.6 11.7 47 47 47
-28.8 -24.7 11.7 47 47 47
-28.5 -24.7 11.7 46 45 43
-28.3 -24.7 11.7 46 45 43
-28.0 -24.7 11.7 46 45 43
-27.6 -24.6 11.6 42 42 42
-26.8 -24.6 11.6 42 42 42
-26.4 -24.7 11.7 42 42 42
-22.3 -24.7 11.7 90 90 90
-22.0 -24.6 11.7 93 93 93
-21.6 -24.6 11.6 95 98 97
-20.7 -24.7 11.7 105 105 105
-20.3 -24.6 11.6 105 105 105
-20.0 -24.5 11.6 105 107 107
-18.8 -24.7 11.7 111 111 111
-18.5 -24.7 11.7 112 112 112
-18.1 -24.5 11.6 112 112 112
-17.8 -24.5 11.6 113 114 113
-17.7 -24.7 11.7 116 116 116
-17.4 -24.7 11.7 116 118 117
-17.2 -24.7 11.7 116 118 117
-16.9 -24.7 11.7 116 118 117
-16.0 -24.7 11.7 115 117 116
-15.7 -24.6 11.7 118 120 119
-15.5 -24.7 11.7 121 121 121
-10.9 -24.7 11.7 133 133 133
-10.6 -24.6 11.6 135 135 135
-10.3 -24.5 11.6 134 137 136
-10.0 -24.5 11.6 138 137 136
-9.7 -24.5 11.6 138 138 138
-9.5 -24.5 11.6 140 142 141
-9.2 -24.5 11.6 143 143 142
10.1 -32.9 15.6 211 211 211
11.5 -32.9 15.6 211 211 211
13.3 -32.9 15.5 211 211 211
15.8 -32.7 15.5 208 208 208
16.2 -32.9 15.5 208 208 208
16.9 -32.8 15.5 208 208 208
17.7 -32.9 15.6 208 208 208
17.8 -32.5 15.4 208 208 208
42.6 -60.6 28.7 211 211 211
43.2 -60.6 28.7 211 211 211
43.4 -59.9 28.3 208 208 208
43.4 -59.0 27.9 208 208 208
27.8 -33.7 15.9 207 207 207
27.6 -33.0 15.6 208 208 208
27.4 -32.5 15.4 208 208 208
27.8 -32.5 15.4 208 208 208
25.1 -27.8 13.2 207 207 207
-38.3 -28.4 13.6 52 52 52
-14.1 -28.7 13.7 118 118 118
-9.9 -24.0 11.5 132 135 134
10.1 -32.5 15.6 211 211 211
10.8 -32.5 15.6 211 211 211
11.2 -32.6 15.6 211 211 211
11.5 -32.5 15.5 211 211 211
12.2 -32.4 15.5 211 211 211
12.6 -32.4 15.5 211 211 211
13.0 -32.5 15.6 211 211 211
13.3 -32.4 15.5 211 211 211
13.6 -32.4 15.5 213 215 215
15.5 -32.5 15.6 208 208 208
15.8 -32.4 15.5 208 208 208
16.6 -32.5 15.6 208 208 208
16.9 -32.4 15.5 208 208 208
17.7 -32.5 15.6 208 208 208
17.8 -32.2 15.4 208 208 208
19.5 -32.5 15.6 208 208 208
20.3 -32.6 15.6 208 208 208
22.7 -32.5 15.6 208 208 208
25.2 -32.5 15.5 209 209 209
25.5 -32.4 15.5 209 209 209
26.7 -33.0 15.8 209 209 209
27.0 -32.9 15.8 207 207 207
27.4 -32.9 15.8 207 207 207
27.5 -32.6 15.6 207 207 207
27.5 -32.2 15.4 207 207 207
28.0 -32.3 15.5 208 208 208
25.0 -27.5 13.2 207 207 207
25.6 -26.8 12.8 205 205 205
-43.8 -32.1 15.5 55 56 54
-39.8 -32.1 15.5 55 56 54
-14.1 -29.1 14.1 112 112 112
-13.7 -29.0 14.0 116 116 116
-11.0 -24.5 11.8 115 114 114
9.8 -32.5 15.7 211 211 211
10.1 -32.1 15.5 211 211 211
10.4 -32.1 15.5 211 211 211
11.5 -32.2 15.6 211 211 211
12.2 -32.2 15.6 210 210 210
12.6 -32.1 15.5 210 210 210
13.3 -32.1 15.5 210 210 210
13.7 -32.1 15.5 210 210 210
15.5 -32.2 15.6 207 207 207
15.8 -32.1 15.5 207 207 207
16.6 -32.2 15.6 207 207 207
16.9 -32.1 15.5 207 207 207
17.7 -32.2 15.6 210 210 210
17.9 -31.9 15.4 210 210 210
19.5 -32.1 15.5 207 207 207
19.8 -32.2 15.6 207 207 207
20.5 -32.1 15.5 207 207 207
21.5 -32.5 15.7 210 210 210
22.7 -32.2 15.6 207 207 207
24.5 -32.2 15.6 208 208 208
24.9 -32.1 15.5 208 208 208
25.3 -32.2 15.6 208 208 208
25.6 -32.1 15.5 208 208 208
25.9 -32.1 15.5 208 208 208
26.8 -32.7 15.8 209 209 209
27.1 -32.6 15.8 206 206 206
27.5 -32.6 15.8 206 206 206
27.4 -32.2 15.6 207 207 207
27.6 -32.0 15.5 207 207 207
28.1 -32.1 15.5 207 207 207
25.1 -27.2 13.2 206 206 206
25.2 -27.1 13.1 206 206 206
25.6 -27.1 13.1 206 206 206
25.9 -27.2 13.1 207 207 207
25.6 -26.5 12.8 207 207 207
-44.3 -32.1 15.7 56 57 55
-44.0 -32.2 15.8 56 57 55
-43.6 -32.2 15.8 56 57 55
-43.3 -32.2 15.8 53 53 53
-42.9 -32.2 15.8 56 57 55
-42.5 -32.2 15.8 56 57 55
-42.2 -32.2 15.8 56 57 55
-41.8 -32.2 15.8 58 59 59
-41.4 -32.2 15.8 56 57 55
-41.2 -32.3 15.8 53 53 53
-40.7 -32.2 15.8 53 53 53
-40.3 -32.2 15.7 56 57 55
-40.0 -32.2 15.8 56 57 55
-39.6 -32.2 15.8 53 53 53
-39.2 -32.2 15.8 53 53 53
-38.9 -32.2 15.8 52 52 52
-38.5 -32.2 15.8 52 52 52
-38.1 -32.2 15.8 49 49 49
-37.8 -32.3 15.8 49 49 49
-37.4 -32.2 15.8 49 49 49
-37.1 -32.2 15.8 48 47 46
-34.9 -32.3 15.8 45 45 45
-34.5 -32.2 15.8 45 45 45
-34.2 -32.3 15.8 45 45 45
-33.7 -32.2 15.7 48 47 46
-33.4 -32.2 15.8 45 45 45
-30.8 -32.2 15.8 43 43 43
-30.1 -32.2 15.8 43 43 43
-16.5 -32.2 15.8 108 108 108
-16.1 -32.1 15.7 101 103 103
-15.8 -32.2 15.8 82 84 84
-15.4 -32.3 15.8 71 70 69
-15.1 -32.2 15.8 78 78 78
-14.7 -32.2 15.8 60 60 60
-14.4 -32.3 15.8 46 47 45
-14.0 -32.3 15.8 19 23 20
-13.6 -32.2 15.8 25 25 25
-13.2 -32.2 15.8 28 28 26
-12.9 -32.2 15.8 31 31 31
-12.5 -32.1 15.7 93 93 93
-12.1 -32.1 15.7 186 186 186
-11.8 -32.2 15.8 176 179 178
-11.4 -32.1 15.7 175 177 177
-11.0 -32.1 15.7 175 177 177
-10.3 -32.2 15.8 198 198 198
-9.9 -32.2 15.8 204 204 204
-9.6 -32.2 15.8 205 205 205
-9.2 -32.2 15.8 205 205 205
-8.8 -32.2 15.8 204 204 204
-8.5 -32.2 15.8 206 206 206
-8.1 -32.2 15.8 205 205 205
-7.7 -32.2 15.8 202 202 202
-7.4 -32.2 15.8 200 200 200
-7.0 -32.2 15.8 200 200 200
-6.6 -32.2 15.8 196 196 196
-6.3 -32.2 15.8 198 198 198
-5.9 -32.1 15.7 198 198 198
-5.5 -32.2 15.7 194 194 194
-5.2 -32.2 15.8 194 194 194
-4.8 -32.2 15.8 193 193 193
-4.4 -32.2 15.8 193 193 193
-4.1 -32.2 15.7 193 193 193
-1.5 -32.3 15.8 193 193 193
-1.1 -32.1 15.7 193 193 193
-0.8 -32.2 15.8 191 191 191
-0.4 -32.2 15.8 190 190 190
-0.0 -32.2 15.8 186 186 186
0.3 -32.3 15.8 186 186 186
0.7 -32.2 15.8 186 186 186
1.1 -32.2 15.8 186 186 186
1.4 -32.2 15.8 186 186 186
1.8 -32.2 15.8 186 186 186
2.2 -32.2 15.8 183 183 183
2.5 -32.2 15.8 186 186 186
2.9 -32.2 15.8 183 183 183
3.3 -32.2 15.8 183 183 183
3.6 -32.2 15.8 180 180 180
4.0 -32.2 15.8 183 183 183
4.4 -32.3 15.8 182 182 182
4.7 -32.3 15.8 180 180 180
5.1 -32.2 15.8 180 180 180
5.4 -32.2 15.8 179 179 179
5.8 -32.2 15.8 179 179 179
6.2 -32.3 15.8 179 179 179
6.5 -32.2 15.8 179 179 179
6.9 -32.2 15.8 168 168 168
7.3 -32.3 15.8 207 207 207
7.7 -32.3 15.8 210 210 210
8.0 -32.2 15.8 210 210 210
8.4 -32.3 15.8 210 210 210
8.8 -32.3 15.8 210 210 210
9.1 -32.2 15.8 210 210 210
9.5 -32.2 15.8 210 210 210
9.9 -32.3 15.8 210 210 210
10.2 -32.2 15.7 210 210 210
10.6 -32.1 15.7 210 210 210
10.9 -32.2 15.8 210 210 210
11.3 -32.3 15.8 210 210 210
11.7 -32.2 15.8 210 210 210
12.0 -32.2 15.8 210 210 210
12.4 -32.2 15.8 210 210 210
12.8 -32.2 15.8 210 210 210
13.1 -32.2 15.8 210 210 210
13.5 -32.2 15.8 210 210 210
13.9 -32.2 15.8 210 210 210
14.2 -32.2 15.8 210 210 210
14.6 -32.2 15.8 210 210 210
15.0 -32.2 15.8 207 207 207
15.4 -32.3 15.8 207 207 207
15.7 -32.2 15.8 207 207 207
16.0 -32.2 15.7 210 210 210
16.4 -32.2 15.8 207 207 207
16.8 -32.2 15.8 207 207 207
17.1 -32.2 15.7 207 207 207
17.6 -32.3 15.8 207 207 207
17.9 -32.2 15.8 210 210 210
18.2 -32.1 15.7 210 210 210
18.6 -32.2 15.8 210 210 210
19.0 -32.2 15.8 210 210 210
19.4 -32.3 15.8 210 210 210
19.7 -32.2 15.8 210 210 210
20.1 -32.3 15.8 210 210 210
20.5 -32.3 15.8 210 210 210
20.8 -32.1 15.7 210 210 210
21.2 -32.2 15.8 210 210 210
21.6 -32.2 15.8 210 210 210
21.9 -32.2 15.8 207 207 207
22.3 -32.3 15.8 207 207 207
22.7 -32.3 15.8 207 207 207
23.0 -32.2 15.8 207 207 207
23.4 -32.2 15.8 207 207 207
23.8 -32.2 15.8 207 207 207
24.1 -32.2 15.8 207 207 207
24.5 -32.2 15.8 207 207 207
24.8 -32.2 15.7 207 207 207
25.2 -32.2 15.8 207 207 207
25.6 -32.2 15.8 208 208 208
26.0 -32.2 15.8 208 208 208
26.3 -32.2 15.8 208 208 208
26.8 -32.3 15.8 208 208 208
27.2 -32.3 15.8 208 208 208
27.5 -32.4 15.8 206 206 206
27.7 -32.1 15.7 206 206 206
28.0 -32.1 15.7 206 206 206
28.5 -32.1 15.7 206 206 206
28.8 -32.1 15.7 207 207 207
25.3 -26.8 13.1 208 208 208
25.6 -26.9 13.1 206 206 206
25.9 -26.9 13.1 206 206 206
25.6 -26.2 12.8 206 206 206
-46.1 -33.1 16.4 56 57 55
-45.8 -33.2 16.4 56 57 55
-45.4 -33.1 16.4 56 57 55
-45.0 -33.1 16.4 56 57 55
-44.7 -33.2 16.4 59 59 59
-44.3 -33.2 16.4 59 59 59
-43.9 -33.2 16.4 59 59 59
-43.5 -33.2 16.4 57 58 56
-43.1 -33.1 16.4 57 58 56
-42.7 -33.1 16.4 59 59 59
-42.3 -33.1 16.4 59 59 59
-41.9 -33.1 16.4 59 59 59
-41.6 -33.1 16.4 57 58 56
-41.2 -33.1 16.4 57 58 56
-40.8 -33.1 16.4 54 54 54
-40.4 -33.1 16.4 54 54 54
-40.1 -33.2 16.4 54 54 54
-39.7 -33.1 16.4 53 52 52
-39.4 -33.2 16.4 53 52 52
-38.9 -33.1 16.4 49 48 47
-37.1 -33.2 16.4 49 48 47
-36.7 -33.2 16.4 49 48 47
-36.2 -33.1 16.4 49 48 47
-35.9 -33.1 16.4 49 48 47
-35.5 -33.1 16.4 46 46 46
-34.9 -33.0 16.3 46 46 46
-33.2 -33.2 16.4 47 47 47
-32.9 -33.2 16.4 47 47 47
-32.3 -33.0 16.3 47 47 47
-31.9 -33.0 16.3 44 44 44
-31.7 -33.2 16.4 44 44 44
-31.3 -33.1 16.4 40 40 40
-27.4 -33.1 16.4 93 93 93
-17.6 -33.2 16.4 19 23 20
-17.1 -33.0 16.3 19 23 20
-16.7 -32.8 16.3 17 17 17
-16.4 -33.1 16.4 35 37 36
-15.3 -33.2 16.4 25 25 25
-14.9 -33.2 16.4 29 29 27
-14.5 -33.1 16.4 29 29 27
-13.7 -33.0 16.3 34 34 34
-13.3 -33.0 16.3 34 34 34
-12.6 -33.2 16.4 184 184 184
-12.2 -33.0 16.3 186 186 186
-10.3 -33.0 16.3 215 215 215
-9.9 -33.1 16.4 212 213 212
-9.6 -33.2 16.4 211 211 211
-8.8 -33.1 16.4 210 210 210
-8.4 -33.2 16.4 208 208 208
-8.1 -33.2 16.4 207 207 207
-7.7 -33.2 16.4 207 207 207
-7.3 -33.1 16.4 204 204 204
-6.9 -33.1 16.4 204 204 204
-6.5 -33.1 16.4 203 203 203
-0.0 -33.2 16.4 191 191 191
0.3 -33.2 16.4 191 191 191
0.7 -33.2 16.4 191 191 191
1.1 -33.1 16.4 191 191 191
1.5 -33.1 16.4 191 191 191
1.9 -33.1 16.4 189 189 189
2.2 -33.1 16.4 189 189 189
2.6 -33.2 16.4 189 189 189
5.7 -33.1 16.4 179 179 179
6.1 -33.2 16.4 179 179 179
6.4 -33.1 16.4 179 179 179
7.2 -33.2 16.4 173 173 173
7.6 -33.2 16.4 204 204 204
8.7 -33.2 16.4 210 210 210
9.1 -33.1 16.4 212 214 214
9.5 -33.1 16.4 210 210 210
9.8 -33.0 16.3 210 210 210
10.2 -33.0 16.3 210 210 210
10.5 -32.8 16.3 212 214 214
11.0 -33.1 16.4 210 210 210
11.4 -33.0 16.3 210 210 210
11.7 -33.1 16.4 210 210 210
12.2 -33.2 16.4 210 210 210
12.5 -33.2 16.4 210 210 210
12.9 -33.1 16.4 210 210 210
13.3 -33.1 16.4 210 210 210
13.7 -33.1 16.4 210 210 210
14.1 -33.2 16.4 210 210 210
14.4 -33.1 16.4 210 210 210
14.8 -33.2 16.4 210 210 210
15.2 -33.1 16.4 210 210 210
15.6 -33.1 16.4 210 210 210
16.0 -33.1 16.4 209 209 209
16.3 -33.1 16.4 209 209 209
16.7 -33.2 16.4 209 209 209
17.1 -33.1 16.4 206 206 206
17.4 -33.1 16.4 206 206 206
17.8 -33.1 16.4 206 206 206
18.2 -33.1 16.4 206 206 206
18.5 -33.0 16.3 209 209 209
19.0 -33.1 16.4 209 209 209
19.4 -33.2 16.4 209 209 209
19.8 -33.2 16.4 209 209 209
20.2 -33.2 16.4 209 209 209
20.5 -33.1 16.4 209 209 209
20.9 -33.2 16.4 209 209 209
21.2 -33.0 16.3 209 209 209
22.1 -33.2 16.4 209 209 209
22.4 -33.1 16.4 209 209 209
22.9 -33.2 16.4 209 209 209
23.2 -33.1 16.4 209 209 209
23.5 -33.1 16.4 209 209 209
24.0 -33.2 16.4 209 209 209
24.3 -33.1 16.4 209 209 209
24.7 -33.1 16.4 206 206 206
25.1 -33.1 16.4 206 206 206
25.5 -33.1 16.4 206 206 206
25.9 -33.2 16.4 207 207 207
26.2 -33.1 16.4 207 207 207
26.6 -33.1 16.4 207 207 207
27.0 -33.1 16.4 207 207 207
27.3 -33.1 16.4 207 207 207
27.7 -33.0 16.3 208 208 208
28.0 -32.9 16.3 208 208 208
28.1 -32.7 16.2 208 208 208
27.9 -31.9 15.8 205 205 205
28.3 -32.0 15.8 206 206 206
28.6 -32.0 15.8 209 209 209
29.9 -33.0 16.3 206 206 206
25.8 -26.8 13.3 207 207 207
26.2 -26.8 13.3 205 205 205
-46.5 -33.0 16.5 57 58 56
-46.4 -33.2 16.6 57 58 56
-45.9 -33.1 16.6 59 59 59
-45.6 -33.2 16.6 59 59 59
-45.3 -33.2 16.6 59 59 59
-44.9 -33.2 16.6 59 59 59
-44.4 -33.2 16.6 57 58 56
-44.0 -33.1 16.6 57 58 56
-43.5 -33.1 16.5 57 58 56
-43.3 -33.2 16.6 60 60 60
-42.8 -33.1 16.6 60 60 60
-42.5 -33.1 16.6 60 60 60
-42.2 -33.2 16.6 58 59 57
-41.6 -33.1 16.5 58 59 57
-41.3 -33.1 16.6 58 59 57
-41.0 -33.2 16.6 55 55 55
-40.6 -33.2 16.6 55 55 55
-40.2 -33.2 16.6 55 55 55
-39.9 -33.3 16.7 51 51 51
-39.5 -33.2 16.6 46 46 46
-38.7 -33.2 16.6 47 47 47
-38.2 -33.1 16.6 50 49 48
-38.0 -33.3 16.7 47 47 47
-37.6 -33.2 16.6 50 49 48
-37.0 -33.1 16.6 50 49 48
-36.7 -33.1 16.6 50 49 48
-36.5 -33.3 16.7 50 49 48
-35.9 -33.1 16.6 50 49 48
-35.3 -33.0 16.5 47 47 47
-34.1 -33.2 16.6 47 48 47
-33.7 -33.3 16.7 47 48 47
-33.3 -33.3 16.7 47 48 47
-32.7 -33.1 16.5 47 48 47
-32.2 -32.9 16.4 46 46 46
-32.2 -33.3 16.7 43 43 43
-31.6 -33.0 16.5 43 43 43
-31.4 -33.3 16.7 42 42 42
-31.0 -33.3 16.7 40 40 40
-27.6 -32.9 16.5 47 47 47
-17.9 -33.3 16.7 25 25 25
-17.3 -32.9 16.5 25 25 25
-16.9 -32.9 16.4 27 27 27
-16.6 -33.1 16.5 27 27 27
-16.2 -33.1 16.6 27 29 27
-15.9 -33.1 16.6 27 29 27
-15.5 -33.2 16.6 27 29 27
-15.1 -33.3 16.7 30 29 28
-14.8 -33.3 16.7 29 29 27
-14.3 -33.1 16.6 29 29 27
-14.0 -33.3 16.7 33 33 33
-13.6 -33.2 16.6 38 38 38
-10.4 -33.1 16.5 221 221 221
-10.1 -33.1 16.6 221 221 221
-9.0 -33.3 16.7 216 219 218
-8.6 -33.3 16.7 216 219 218
-8.2 -33.2 16.6 213 215 215
-7.8 -33.3 16.7 213 215 215
-7.4 -33.1 16.5 211 211 211
-7.0 -33.1 16.5 209 209 209
-6.6 -33.1 16.5 206 206 206
-0.4 -33.2 16.6 196 196 196
-0.0 -33.3 16.7 196 196 196
0.3 -33.4 16.7 193 193 193
0.7 -33.3 16.7 193 193 193
1.1 -33.3 16.7 193 193 193
1.5 -33.3 16.7 193 193 193
1.9 -33.3 16.7 190 190 190
2.3 -33.3 16.7 190 190 190
2.7 -33.2 16.6 190 190 190
3.0 -33.2 16.6 190 190 190
5.3 -33.1 16.6 184 184 184
5.7 -33.2 16.6 181 181 181
6.1 -33.3 16.7 181 181 181
6.5 -33.1 16.5 178 178 178
7.3 -33.3 16.7 167 167 167
7.7 -33.3 16.7 206 206 206
8.1 -33.1 16.6 209 209 209
8.9 -33.3 16.7 212 214 214
9.2 -33.3 16.7 212 214 214
9.6 -33.1 16.6 212 214 214
9.9 -32.9 16.5 212 214 214
10.3 -32.8 16.4 212 214 214
10.6 -32.8 16.4 212 214 214
11.1 -33.0 16.5 212 214 214
11.5 -33.0 16.5 214 216 216
11.9 -33.1 16.6 212 214 214
12.3 -33.2 16.6 209 209 209
12.7 -33.3 16.7 209 209 209
13.1 -33.2 16.6 209 209 209
13.4 -33.1 16.5 209 209 209
13.9 -33.3 16.7 209 209 209
14.3 -33.4 16.7 209 209 209
14.7 -33.3 16.7 209 209 209
15.0 -33.2 16.6 209 209 209
15.4 -33.2 16.6 209 209 209
15.8 -33.2 16.6 209 209 209
16.2 -33.2 16.6 209 209 209
16.6 -33.3 16.7 209 209 209
17.0 -33.3 16.7 209 209 209
17.3 -33.1 16.6 209 209 209
17.6 -32.9 16.5 209 209 209
18.1 -33.2 16.6 209 209 209
18.5 -33.2 16.6 209 209 209
18.7 -32.9 16.5 209 209 209
19.3 -33.2 16.6 209 209 209
19.7 -33.3 16.7 209 209 209
20.1 -33.3 16.7 209 209 209
20.4 -33.2 16.6 209 209 209
21.1 -33.6 16.8 209 209 209
21.3 -33.4 16.7 209 209 209
21.4 -32.9 16.4 209 209 209
22.6 -33.6 16.8 209 209 209
22.6 -32.9 16.5 209 209 209
23.6 -33.4 16.7 209 209 209
23.8 -33.1 16.6 209 209 209
24.2 -33.1 16.6 209 209 209
24.7 -33.2 16.6 209 209 209
25.2 -33.3 16.7 209 209 209
25.5 -33.2 16.6 206 206 206
26.2 -33.2 16.6 206 206 206
27.5 -33.4 16.7 207 207 207
27.7 -33.1 16.6 212 214 214
27.9 -32.9 16.5 210 210 210
28.2 -32.8 16.4 207 207 207
28.3 -32.5 16.3 207 207 207
28.8 -32.7 16.3 208 208 208
29.1 -32.5 16.3 208 208 208
30.2 -32.9 16.5 208 208 208
30.4 -32.7 16.4 206 206 206
26.3 -26.6 13.3 207 207 207
33.2 -33.3 16.7 205 205 205
-48.3 -33.9 17.1 58 59 57
-47.9 -33.9 17.1 60 60 60
-47.5 -33.9 17.1 60 60 60
-47.1 -33.9 17.2 60 60 60
-46.7 -33.9 17.1 60 60 60
-46.3 -33.9 17.1 60 60 60
-46.0 -33.9 17.2 60 60 60
-45.5 -33.9 17.2 60 60 60
-44.3 -33.9 17.2 61 61 61
-43.9 -33.8 17.1 61 61 61
-43.6 -33.9 17.2 61 61 61
-43.1 -33.9 17.2 61 61 61
-42.8 -33.9 17.2 59 60 58
-42.4 -34.0 17.2 56 56 56
-42.0 -33.9 17.2 56 56 56
-38.8 -33.9 17.2 52 52 52
-38.4 -33.9 17.2 51 50 48
-38.1 -34.0 17.2 51 50 48
-38.0 -34.3 17.4 51 50 48
-37.6 -34.3 17.4 51 50 48
-36.8 -33.9 17.2 47 48 47
-36.5 -34.0 17.2 47 48 47
-36.0 -34.0 17.2 48 48 48
-35.6 -33.9 17.2 48 48 48
-35.2 -34.0 17.2 48 48 48
-34.8 -34.0 17.2 48 48 48
-34.4 -33.9 17.2 48 48 48
-33.9 -33.8 17.1 48 48 48
-33.1 -33.8 17.1 47 47 47
-32.7 -33.8 17.1 44 44 44
-32.4 -33.9 17.2 44 44 44
-30.3 -33.9 17.1 43 43 43
-28.4 -33.5 17.0 46 46 46
-18.4 -33.9 17.2 28 28 28
-17.8 -33.5 17.0 28 28 28
-17.5 -33.7 17.1 27 27 27
-17.1 -33.6 17.0 29 30 28
-10.7 -25.2 12.7 34 36 36
-10.4 -25.1 12.7 42 43 42
-8.0 -25.1 12.7 225 225 225
-5.7 -25.1 12.7 214 216 216
-5.4 -25.1 12.7 213 215 215
-5.1 -25.1 12.7 209 212 211
-4.8 -25.1 12.7 209 212 211
-4.5 -25.1 12.7 208 208 208
-4.2 -25.1 12.7 206 206 206
1.1 -25.2 12.7 195 195 195
1.4 -24.8 12.6 192 192 192
5.0 -25.1 12.7 180 180 180
8.5 -25.1 12.7 210 213 212
8.8 -25.1 12.7 210 213 212
9.1 -25.1 12.7 210 213 212
9.4 -25.1 12.7 210 213 212
10.3 -25.0 12.7 209 209 209
10.6 -25.0 12.7 209 209 209
14.5 -33.5 17.0 209 209 209
11.3 -25.3 12.8 209 209 209
11.5 -25.1 12.7 209 209 209
11.7 -25.0 12.7 209 209 209
16.8 -33.3 16.9 209 209 209
13.3 -25.1 12.7 209 209 209
13.6 -25.1 12.7 209 209 209
13.9 -25.1 12.7 209 209 209
15.0 -25.1 12.7 208 208 208
15.8 -25.3 12.8 208 208 208
21.3 -33.6 17.0 208 208 208
43.2 -58.4 29.6 208 208 208
43.7 -58.1 29.4 208 208 208
44.3 -58.0 29.4 208 208 208
27.8 -32.0 16.2 207 207 207
28.0 -31.8 16.1 207 207 207
27.8 -31.1 15.8 207 207 207
28.5 -31.5 15.9 207 207 207
28.7 -31.3 15.8 207 207 207
29.7 -32.0 16.2 208 208 208
29.9 -31.8 16.1 208 208 208
26.4 -26.8 13.6 206 206 206
26.5 -26.6 13.5 206 206 206
-35.5 -24.6 12.6 61 61 61
-35.4 -24.7 12.7 61 61 61
-35.1 -24.7 12.7 61 61 61
-34.8 -24.7 12.7 61 61 61
-34.5 -24.7 12.7 61 61 61
-34.2 -24.7 12.7 61 61 61
-33.9 -24.7 12.7 61 61 61
-34.1 -25.1 12.8 61 61 61
-33.3 -24.7 12.7 61 61 61
-33.0 -24.7 12.7 61 61 61
-32.7 -24.7 12.7 61 61 61
-32.4 -24.7 12.7 62 62 62
-32.1 -24.7 12.7 62 62 62
-31.7 -24.8 12.7 59 61 59
-31.3 -24.8 12.7 59 61 59
-31.4 -25.1 12.8 55 55 55
-30.5 -24.6 12.6 55 55 55
-29.3 -24.8 12.7 53 52 52
-28.9 -24.8 12.7 55 55 55
-28.6 -24.7 12.7 51 51 49
-28.2 -24.6 12.6 51 51 49
-27.9 -24.6 12.6 51 51 49
-27.8 -24.8 12.7 53 53 53
-27.5 -24.8 12.7 51 51 49
-27.1 -24.7 12.7 48 48 48
-26.6 -24.8 12.7 52 52 50
-26.3 -24.7 12.7 49 49 49
-25.8 -24.6 12.6 49 49 49
-25.7 -24.8 12.7 49 49 49
-25.4 -24.8 12.7 49 49 49
-25.2 -24.8 12.7 47 48 47
-24.9 -24.8 12.7 50 50 50
-24.5 -24.7 12.7 47 48 47
-23.6 -24.8 12.7 46 46 46
-23.2 -24.6 12.6 44 44 44
-22.7 -24.7 12.7 44 44 44
-21.0 -24.8 12.7 45 45 45
-20.7 -24.7 12.7 43 43 43
-17.7 -33.0 16.9 29 31 29
-17.5 -33.3 17.1 29 31 29
-11.3 -24.8 12.7 32 32 32
-11.0 -24.8 12.7 34 34 34
-10.7 -24.9 12.7 34 36 36
-10.4 -24.8 12.7 43 43 43
-5.6 -24.7 12.7 218 218 218
1.4 -24.5 12.6 194 194 194
8.5 -24.7 12.7 210 213 212
8.8 -24.8 12.7 210 213 212
9.1 -24.8 12.7 210 213 212
9.5 -25.0 12.8 210 213 212
9.9 -24.5 12.6 210 213 212
10.2 -24.6 12.6 210 213 212
10.9 -24.7 12.7 208 208 208
11.3 -25.0 12.8 208 208 208
11.5 -24.8 12.7 208 208 208
11.7 -24.6 12.6 208 208 208
12.0 -24.7 12.6 208 208 208
12.3 -24.7 12.7 208 208 208
12.6 -24.7 12.7 208 208 208
12.9 -24.6 12.6 208 208 208
13.4 -25.1 12.9 208 208 208
13.5 -24.8 12.7 208 208 208
13.8 -24.8 12.7 208 208 208
14.1 -24.7 12.7 208 208 208
15.7 -24.9 12.7 208 208 208
15.9 -24.7 12.7 208 208 208
44.1 -57.9 29.7 208 208 208
27.8 -32.0 16.4 206 206 206
28.1 -31.5 16.1 206 206 206
28.6 -31.3 16.0 207 207 207
28.9 -31.2 16.0 207 207 207
30.1 -32.0 16.4 207 207 207
30.4 -31.9 16.4 207 207 207
30.5 -31.6 16.2 208 208 208
26.8 -26.5 13.6 206 206 206
-36.5 -25.0 13.0 61 61 61
-36.3 -25.0 13.0 62 62 62
-36.0 -25.0 13.0 62 62 62
-35.7 -25.0 13.0 62 62 62
-35.4 -25.0 13.0 62 62 62
-35.1 -25.0 13.0 62 62 62
-34.8 -25.0 13.0 62 62 62
-34.5 -25.0 13.0 62 62 62
-34.2 -25.0 13.0 62 62 62
-33.9 -25.0 13.0 62 62 62
-33.6 -25.0 13.0 62 62 62
-33.3 -25.0 13.0 62 62 62
-32.9 -25.0 13.0 63 63 63
-32.7 -25.0 13.0 63 63 63
-32.4 -25.1 13.0 60 62 60
-32.1 -25.1 13.0 63 63 63
-31.7 -25.0 13.0 60 62 60
-31.4 -25.0 13.0 58 58 58
-31.1 -25.0 13.0 53 53 53
-30.8 -25.0 13.0 56 56 56
-29.9 -25.0 13.0 53 53 53
-29.6 -25.0 13.0 53 53 53
-29.3 -25.0 13.0 52 52 50
-29.0 -25.0 13.0 52 52 50
-28.1 -25.1 13.0 52 52 50
-27.8 -25.0 13.0 53 52 51
-26.0 -25.0 13.0 51 51 51
-25.7 -25.1 13.0 48 48 48
-25.4 -25.0 13.0 48 48 48
-25.1 -25.0 13.0 48 48 48
-24.8 -25.0 13.0 47 47 47
-24.5 -25.1 13.0 44 44 44
-24.2 -25.0 13.0 45 45 45
-23.9 -25.0 13.0 42 43 42
-23.3 -25.0 13.0 45 45 45
-21.9 -25.2 13.0 44 44 44
-21.5 -25.1 13.0 43 42 41
-10.7 -22.8 11.8 29 30 28
-11.6 -25.2 13.0 31 30 29
-11.2 -25.0 13.0 33 33 33
-10.8 -24.9 12.9 35 37 36
-10.5 -24.9 12.9 44 44 44
-10.4 -25.3 13.1 176 176 176
27.9 -31.7 16.4 206 206 206
28.1 -31.5 16.3 206 206 206
28.1 -31.2 16.2 206 206 206
29.0 -30.9 16.0 206 206 206
30.2 -31.7 16.5 207 207 207
30.6 -31.8 16.5 207 207 207
30.9 -31.7 16.4 207 207 207
30.1 -27.8 14.4 183 183 183
-21.3 -20.5 10.8 49 49 49
-18.4 -20.6 10.8 44 43 42
-18.1 -20.5 10.8 42 42 42
-13.6 -26.5 13.9 35 35 35
-13.2 -26.2 13.8 29 31 29
-11.9 -25.6 13.4 29 30 28
-11.5 -25.3 13.3 31 30 29
-10.9 -24.8 13.0 36 36 36
-10.7 -25.0 13.1 45 45 45
28.0 -31.5 16.5 208 208 208
28.2 -31.3 16.4 208 208 208
28.1 -30.8 16.2 208 208 208
29.0 -30.5 16.0 206 206 206
30.3 -31.5 16.5 206 206 206
30.8 -31.6 16.6 206 206 206
31.2 -31.6 16.6 206 206 206
30.8 -28.7 15.1 210 210 210
30.8 -28.4 14.9 170 172 172
30.2 -27.5 14.5 185 185 185
88.4 -58.0 30.5 189 189 189
-31.4 -21.0 11.2 63 63 63
-31.2 -21.0 11.2 65 66 64
-30.9 -21.0 11.2 63 63 63
-30.6 -21.0 11.2 63 63 63
-30.4 -21.0 11.2 63 63 63
-30.1 -21.0 11.2 64 64 64
-29.9 -21.0 11.2 64 64 64
-29.6 -21.0 11.2 64 64 64
-29.4 -21.0 11.2 64 64 64
-30.2 -24.9 13.2 56 56 56
-29.6 -24.9 13.2 56 56 56
-24.7 -21.0 11.2 56 56 56
-25.9 -25.0 13.3 51 51 51
-13.7 -26.4 14.0 30 31 30
-12.0 -25.5 13.5 54 54 54
-11.6 -25.2 13.4 64 66 66
-10.9 -25.1 13.3 48 48 48
-10.6 -25.1 13.4 184 187 186
29.0 -30.1 16.0 208 208 208
30.4 -31.2 16.6 206 206 206
30.9 -31.3 16.7 206 206 206
30.9 -28.4 15.1 210 210 210
30.8 -28.1 14.9 170 172 172
30.5 -27.5 14.6 184 184 184
87.1 -56.5 30.0 189 189 189
-37.4 -24.7 13.3 66 67 65
-37.2 -24.8 13.3 69 69 69
-36.9 -24.8 13.3 64 64 64
-36.6 -24.8 13.3 64 64 64
-36.3 -24.8 13.3 64 64 64
-36.0 -24.8 13.3 64 64 64
-35.7 -24.8 13.3 65 65 65
-35.4 -24.8 13.3 67 68 66
-35.1 -24.8 13.3 65 65 65
-34.7 -24.8 13.3 65 65 65
-34.4 -24.8 13.3 65 65 65
-34.1 -24.8 13.3 65 65 65
-33.3 -24.8 13.4 62 64 61
-32.9 -24.8 13.3 63 64 62
-32.6 -24.8 13.3 63 64 62
-32.2 -24.8 13.3 63 64 62
-31.9 -24.8 13.3 58 59 59
-31.7 -24.8 13.3 56 56 56
-31.3 -24.8 13.3 56 56 56
-31.0 -24.8 13.3 56 56 56
-30.7 -24.8 13.3 57 57 57
-30.3 -24.7 13.3 57 57 57
-30.0 -24.7 13.3 57 57 57
-29.7 -24.7 13.3 59 59 59
-29.6 -24.8 13.4 59 59 59
-26.9 -25.0 13.4 53 53 53
-26.5 -24.8 13.4 53 53 53
-26.1 -24.8 13.3 52 52 52
-25.7 -24.7 13.3 52 52 52
-25.3 -25.0 13.4 53 52 52
-24.8 -24.8 13.3 50 50 50
-24.5 -24.8 13.3 47 48 47
-24.3 -24.8 13.4 48 48 48
-23.8 -24.7 13.3 46 46 46
-23.6 -24.8 13.3 45 44 43
-22.5 -24.9 13.4 43 43 43
-22.0 -24.8 13.3 42 44 43
-20.6 -25.0 13.4 19 19 19
-20.3 -24.9 13.4 17 17 17
-14.4 -24.9 13.4 114 116 115
-13.6 -24.7 13.3 109 111 111
-12.8 -24.8 13.3 58 59 59
-12.4 -24.7 13.3 55 55 55
-11.9 -24.9 13.4 34 34 34
-11.5 -24.8 13.3 85 87 87
-11.2 -24.7 13.3 24 24 24
-10.9 -24.7 13.3 53 53 53
-10.6 -24.7 13.3 183 186 185
28.2 -29.3 15.8 207 207 207
28.7 -29.5 15.9 208 208 208
31.6 -28.4 15.3 171 173 173
86.6 -55.4 29.8 191 191 191
-38.1 -24.8 13.5 67 68 66
-37.9 -24.9 13.6 67 68 66
-37.5 -24.9 13.6 67 68 66
-37.2 -24.9 13.6 67 68 66
-36.9 -24.9 13.6 67 68 66
-36.6 -24.9 13.6 67 69 67
-36.3 -24.9 13.6 67 69 67
-35.9 -24.9 13.6 67 69 67
-35.7 -24.9 13.6 67 69 67
-35.3 -24.9 13.6 67 69 67
-35.0 -24.9 13.6 67 69 67
-34.7 -24.9 13.6 66 66 66
-34.4 -24.9 13.6 66 66 66
-34.1 -24.9 13.6 66 66 66
-33.8 -24.9 13.6 67 67 67
-33.4 -24.9 13.6 63 64 62
-33.1 -24.9 13.6 64 65 63
-32.8 -24.8 13.5 64 65 63
-32.5 -24.9 13.6 61 61 61
-32.2 -24.9 13.6 59 59 59
-31.9 -24.9 13.6 59 59 59
-31.6 -24.9 13.6 59 59 59
-31.2 -24.8 13.5 58 58 58
-30.7 -24.7 13.5 58 58 58
-30.5 -24.8 13.5 58 58 58
-30.3 -24.8 13.5 60 60 60
-30.0 -24.9 13.6 58 58 58
-29.6 -24.8 13.5 58 59 59
-29.4 -24.9 13.6 58 59 59
-29.1 -25.0 13.6 61 61 61
-28.8 -24.9 13.6 58 59 59
-28.4 -24.9 13.6 58 59 59
-27.2 -24.9 13.6 54 54 54
-26.8 -24.9 13.6 55 55 55
-26.5 -24.8 13.5 55 55 55
-26.2 -24.8 13.5 55 55 55
-25.9 -24.9 13.6 51 51 51
-25.6 -24.9 13.6 51 51 51
-25.2 -24.9 13.6 51 51 51
-24.9 -24.9 13.6 51 51 51
-24.1 -24.7 13.5 49 49 49
-23.9 -24.7 13.5 47 48 47
-23.6 -24.8 13.5 47 48 47
-23.1 -24.9 13.6 48 48 48
-22.8 -24.9 13.6 44 44 44
-22.4 -24.8 13.5 43 45 44
-22.2 -24.9 13.6 43 45 44
-21.9 -25.0 13.6 38 38 38
-21.5 -24.9 13.6 29 29 29
-21.2 -24.9 13.6 19 19 19
-20.8 -24.8 13.5 18 18 18
-20.4 -24.8 13.5 19 19 19
-14.2 -24.9 13.6 30 30 30
-13.9 -24.9 13.6 86 86 86
-13.5 -24.8 13.5 88 88 88
-13.3 -25.0 13.6 17 17 17
-12.9 -24.8 13.5 36 36 36
-12.0 -24.9 13.6 49 49 49
-11.7 -24.8 13.5 78 78 78
-11.4 -24.9 13.6 25 25 25
-11.1 -24.9 13.6 49 49 49
-10.7 -24.8 13.5 184 187 186
-10.4 -24.9 13.6 183 186 185
56.8 -63.2 34.5 208 211 210
34.5 -35.5 19.3 207 207 207
31.8 -28.3 15.4 169 171 170
32.0 -28.2 15.3 183 183 183
32.4 -28.1 15.3 185 185 185
68.3 -43.6 23.7 190 190 190
86.3 -54.6 29.7 190 190 190
-38.4 -24.7 13.6 65 65 65
-38.1 -24.7 13.6 65 65 65
-37.8 -24.7 13.6 67 69 67
-37.5 -24.7 13.6 67 69 67
-37.2 -24.7 13.6 66 66 66
-36.8 -24.7 13.6 67 69 67
-36.5 -24.7 13.6 71 71 71
-36.2 -24.7 13.6 71 71 71
-35.9 -24.7 13.7 68 70 68
-35.6 -24.7 13.6 68 70 68
-35.3 -24.7 13.6 68 70 68
-35.0 -24.8 13.7 68 70 68
-34.8 -24.8 13.7 67 67 67
-34.4 -24.8 13.7 67 67 67
-34.1 -24.8 13.7 67 67 67
-33.7 -24.7 13.6 67 67 67
-33.3 -24.7 13.6 65 66 64
-33.0 -24.7 13.6 65 66 64
-32.7 -24.7 13.6 65 66 64
-32.4 -24.7 13.7 62 62 62
-32.1 -24.7 13.6 62 62 62
-31.8 -24.7 13.6 63 63 63
-31.3 -24.6 13.6 61 61 61
-31.0 -24.6 13.6 63 63 63
-30.7 -24.6 13.6 61 61 61
-30.4 -24.7 13.6 58 59 59
-27.0 -24.7 13.6 56 56 56
-26.6 -24.7 13.6 56 56 56
-26.3 -24.7 13.6 56 56 56
-26.1 -24.8 13.7 54 54 54
-25.8 -24.8 13.7 52 52 52
-23.4 -24.9 13.7 47 46 45
-22.9 -24.8 13.7 45 45 45
-22.5 -24.7 13.6 43 45 45
-22.1 -24.9 13.7 39 39 39
-21.7 -24.8 13.7 29 29 29
-21.4 -24.8 13.7 19 19 19
-20.9 -24.7 13.6 22 25 23
-13.6 -24.6 13.6 96 99 98
-13.5 -24.9 13.8 22 25 23
-13.0 -24.6 13.6 131 131 131
-10.8 -21.1 11.6 123 125 124
-12.1 -24.7 13.6 94 94 94
-11.7 -24.6 13.6 68 71 70
-11.4 -24.7 13.6 53 53 53
-11.1 -24.7 13.6 55 55 55
-10.8 -24.7 13.6 188 188 188
-10.5 -24.7 13.6 185 185 185
56.7 -62.3 34.4 207 210 209
54.6 -59.2 32.7 207 210 209
32.0 -27.1 15.0 188 188 188
86.5 -54.0 29.8 190 190 190
-38.5 -24.4 13.7 67 69 67
-38.1 -24.4 13.7 67 69 67
-37.8 -24.4 13.7 68 70 68
-37.6 -24.5 13.7 68 70 68
-37.2 -24.5 13.7 68 70 68
-36.9 -24.5 13.7 72 72 72
-36.5 -24.4 13.6 72 72 72
-36.3 -24.5 13.7 72 72 72
-36.0 -24.5 13.7 72 72 72
-35.7 -24.5 13.7 69 71 69
-35.3 -24.5 13.7 69 71 69
-35.1 -24.5 13.7 69 71 69
-34.8 -24.5 13.7 67 67 67
-34.5 -24.5 13.7 70 72 69
-34.2 -24.5 13.7 67 67 67
-33.8 -24.5 13.7 68 68 68
-33.3 -24.4 13.6 68 68 68
-33.0 -24.4 13.6 68 68 68
-32.8 -24.5 13.7 68 68 68
-32.5 -24.5 13.7 66 67 65
-32.1 -24.4 13.7 66 67 65
-31.8 -24.5 13.7 64 64 64
-31.4 -24.4 13.6 64 64 64
-31.0 -24.3 13.6 64 64 64
-30.7 -24.3 13.6 62 62 62
-27.1 -24.5 13.7 57 57 57
-26.6 -24.4 13.6 57 57 57
-26.4 -24.4 13.7 58 58 58
-26.2 -24.5 13.7 58 58 58
-25.8 -24.5 13.7 58 58 58
-23.4 -24.6 13.8 48 47 46
-23.0 -24.5 13.7 49 48 47
-22.5 -24.4 13.6 46 46 46
-22.1 -24.6 13.8 42 42 42
-21.7 -24.6 13.7 27 27 27
-21.4 -24.5 13.7 19 19 19
-20.9 -24.4 13.6 18 18 18
-13.5 -24.6 13.8 34 33 32
-13.0 -24.3 13.6 130 130 130
-12.1 -24.4 13.6 44 44 44
-11.7 -24.3 13.6 47 47 47
-11.4 -24.4 13.6 49 49 49
-10.8 -24.4 13.6 182 185 184
-10.5 -24.4 13.6 181 184 183
-10.3 -24.6 13.7 185 185 185
56.9 -61.7 34.5 207 210 209
54.7 -58.5 32.7 207 210 209
31.7 -26.8 15.0 186 186 186
31.9 -26.7 14.9 186 186 186
86.2 -53.1 29.7 189 189 189
723.8 -384.4 215.0 175 177 177
38.6 -18.9 10.6 159 162 161
-38.7 -24.5 13.9 68 70 68
-38.3 -24.4 13.8 68 70 68
-37.4 -24.5 13.9 73 73 73
-37.1 -24.5 13.9 73 73 73
-36.8 -24.5 13.9 75 76 76
-34.9 -24.7 14.0 68 68 68
-34.2 -24.5 13.9 69 69 69
-33.6 -24.5 13.9 69 69 69
-33.3 -24.5 13.9 67 68 66
-32.9 -24.5 13.9 67 68 66
-27.0 -24.4 13.8 63 63 63
-27.2 -24.8 14.1 58 59 59
-26.8 -24.8 14.1 58 59 59
-23.3 -24.6 13.9 50 49 48
-13.7 -24.7 14.0 42 42 42
-13.2 -24.4 13.8 87 86 84
-11.9 -24.3 13.8 39 39 39
-10.9 -24.3 13.8 182 185 184
-10.6 -24.3 13.8 180 183 182
-10.9 -25.8 14.6 184 184 184
55.4 -58.6 33.2 205 205 205
52.7 -54.9 31.1 205 205 205
86.3 -52.5 29.7 185 185 185
758.3 -397.5 225.2 175 177 177
-11.0 -25.8 14.8 185 185 185
-10.8 -26.0 14.9 182 182 182
-10.5 -26.2 15.0 210 213 212
0.7 -17.5 10.0 201 203 203
0.9 -17.5 10.0 199 199 199
1.1 -17.5 10.0 197 197 197
1.4 -17.6 10.1 197 197 197
1.6 -17.5 10.1 195 195 195
8.2 -17.5 10.1 209 212 211
8.4 -17.5 10.1 209 212 211
8.7 -17.6 10.1 209 212 211
8.9 -17.5 10.1 209 212 211
9.1 -17.5 10.0 209 212 211
10.0 -17.5 10.1 206 209 208
10.3 -17.5 10.1 206 209 208
11.2 -17.6 10.1 209 212 211
11.5 -17.6 10.1 209 212 211
11.7 -17.5 10.1 209 212 211
12.4 -17.6 10.1 209 212 211
12.6 -17.5 10.0 206 209 208
55.3 -57.7 33.1 209 212 211
53.6 -54.4 31.2 209 212 211
87.6 -52.6 30.2 189 189 189
723.8 -374.5 215.0 175 177 177
-11.1 -25.7 14.9 184 184 184
-10.9 -25.8 15.0 180 180 180
-10.5 -25.8 15.0 202 202 202
-10.1 -25.7 15.0 207 207 207
-5.8 -17.2 10.0 214 214 214
1.4 -17.2 10.0 194 194 194
1.6 -17.2 10.0 194 194 194
7.2 -17.2 10.0 209 212 211
7.4 -17.2 10.0 209 212 211
7.7 -17.2 10.0 206 209 208
8.1 -17.2 10.0 209 212 211
8.3 -17.2 10.0 209 212 211
8.6 -17.3 10.0 209 212 211
8.8 -17.2 10.0 209 212 211
9.0 -17.2 10.0 206 209 208
9.8 -17.3 10.0 209 212 211
10.0 -17.2 10.0 209 212 211
10.9 -17.2 10.0 208 211 210
11.1 -17.2 10.0 208 211 210
11.4 -17.3 10.1 208 211 210
12.3 -17.2 10.0 208 211 210
13.0 -17.2 10.0 208 211 210
13.5 -17.2 10.0 208 211 210
13.7 -17.2 10.0 208 211 210
57.4 -59.9 34.8 209 212 211
54.2 -54.3 31.6 209 212 211
53.0 -52.4 30.5 209 212 211
88.6 -52.4 30.5 188 188 188
-11.2 -25.5 15.1 183 183 183
-10.9 -25.7 15.1 181 181 181
-10.6 -25.7 15.1 194 194 194
8.3 -17.0 10.0 209 212 211
57.4 -59.1 34.8 208 211 210
55.0 -55.8 32.9 208 211 210
55.8 -55.1 32.5 209 212 211
54.2 -52.8 31.2 209 212 211
57.7 -54.7 32.3 209 212 211
-11.3 -25.4 15.2 180 183 182
-11.0 -25.4 15.2 177 180 179
-10.6 -25.4 15.2 176 176 176
57.2 -58.0 34.7 208 211 210
55.2 -55.2 33.0 208 211 210
56.5 -55.0 32.9 208 211 210
56.1 -53.9 32.2 209 212 211
59.3 -56.2 33.6 209 212 211
58.3 -54.5 32.6 206 209 208
486.8 -213.7 127.8 122 122 122
-11.8 -26.0 15.8 180 183 182
-11.2 -25.6 15.5 177 177 177
-10.8 -25.4 15.4 159 159 159
57.3 -57.3 34.8 208 211 210
56.2 -55.5 33.7 208 211 210
58.5 -56.9 34.5 208 211 210
56.6 -54.3 33.0 208 211 210
57.0 -54.0 32.7 208 211 210
60.1 -56.2 34.1 208 211 210
477.2 -206.6 125.3 124 124 124
55.9 -54.4 33.5 207 210 209
60.7 -58.2 35.8 208 211 210
56.4 -53.4 32.8 208 211 210
61.3 -56.5 34.8 208 211 210
61.0 -54.8 33.7 208 211 210
57.5 -25.8 15.9 173 173 173
470.9 -201.0 123.6 129 129 129
-12.4 -28.4 17.7 158 161 160
8.7 -16.2 10.1 208 211 210
66.4 -61.1 38.1 208 211 210
62.6 -56.9 35.5 208 211 210
61.7 -55.3 34.5 208 211 210
63.4 -56.1 35.0 208 211 210
74.7 -34.4 21.4 180 183 182
73.5 -33.6 20.9 180 183 182
57.9 -25.6 16.0 174 174 174
480.3 -202.1 126.1 128 128 128
-12.5 -28.3 17.9 167 167 167
-12.1 -28.3 17.9 162 162 162
-11.7 -28.3 17.9 156 159 158
-4.5 -16.1 10.2 139 139 139
8.5 -16.2 10.2 208 211 210
8.8 -16.2 10.2 212 213 212
47.1 -35.2 22.3 189 189 189
47.1 -34.1 21.6 191 191 191
75.2 -34.1 21.6 181 184 183
73.9 -33.3 21.1 181 184 183
58.6 -25.5 16.2 175 175 175
58.2 -25.2 15.9 172 172 172
58.0 -25.0 15.8 163 163 163
-12.7 -28.3 18.2 170 171 170
-4.6 -16.0 10.3 142 144 143
8.8 -16.1 10.3 212 213 212
9.1 -16.0 10.3 212 213 212
48.4 -36.1 23.2 182 182 182
47.5 -35.0 22.5 186 186 186
45.3 -33.0 21.2 191 191 191
48.0 -34.6 22.3 192 192 192
52.2 -36.8 23.7 192 192 192
49.8 -34.8 22.4 192 192 192
74.8 -33.2 21.3 182 185 184
61.0 -26.4 16.9 178 178 178
59.6 -25.6 16.4 176 176 176
59.1 -25.2 16.2 168 170 169
58.7 -24.9 16.0 164 164 164
-13.4 -29.3 19.1 173 175 175
47.9 -34.8 22.7 189 189 189
50.6 -36.3 23.7 192 192 192
49.0 -34.8 22.7 192 192 192
47.8 -33.6 21.9 192 192 192
52.6 -36.6 23.9 192 192 192
51.9 -35.7 23.3 192 192 192
78.6 -34.6 22.6 183 186 185
75.3 -32.9 21.5 183 186 185
60.5 -25.6 16.7 174 174 174
59.9 -25.2 16.4 169 171 170
59.4 -24.8 16.2 163 163 163
49.0 -34.2 22.7 192 192 192
48.2 -33.4 22.1 192 192 192
52.8 -36.1 23.9 192 192 192
51.7 -35.0 23.2 192 192 192
79.1 -34.3 22.7 184 187 186
74.7 -31.9 21.2 184 187 186
61.7 -25.7 17.0 178 178 178
60.8 -25.2 16.7 170 172 172
409.4 -162.2 107.5 131 134 133
-54.2 -28.6 19.3 66 66 66
-54.1 -28.8 19.4 74 74 74
-53.7 -28.8 19.4 74 74 74
-53.3 -28.8 19.4 74 74 74
-52.8 -28.8 19.4 63 64 62
-52.3 -28.8 19.4 46 46 46
-51.9 -28.8 19.4 43 42 41
-51.5 -28.9 19.4 150 150 150
-51.8 -29.3 19.7 53 52 52
-50.8 -29.3 19.7 18 22 19
-50.3 -29.2 19.6 32 31 30
-49.4 -29.2 19.6 34 34 34
-48.0 -28.7 19.3 20 23 21
-47.6 -28.7 19.3 25 25 25
-47.3 -28.7 19.3 25 25 25
-48.4 -29.7 20.0 36 36 36
-47.1 -29.2 19.6 57 56 55
-46.0 -28.8 19.4 67 67 67
-45.6 -28.8 19.4 63 63 63
-44.8 -28.9 19.4 41 41 41
-44.6 -29.1 19.6 44 43 42
-43.3 -29.1 19.6 158 158 158
-40.2 -28.8 19.4 51 51 51
-39.7 -29.5 19.8 67 68 66
-38.9 -29.2 19.6 67 68 66
-38.8 -29.5 19.8 71 72 70
-38.2 -29.4 19.8 63 63 63
-35.5 -29.1 19.6 64 64 64
-35.3 -29.2 19.7 64 64 64
-24.3 -29.3 19.7 35 34 33
-13.5 -28.7 19.3 175 177 177
-13.3 -29.3 19.7 174 174 174
124.0 -104.5 70.3 210 210 210
113.0 -94.0 63.3 211 211 211
48.8 -33.6 22.6 194 194 194
40.1 -27.3 18.4 192 192 192
54.2 -36.6 24.6 192 192 192
85.2 -36.6 24.6 186 188 187
81.0 -34.5 23.2 186 188 187
411.7 -160.7 108.1 134 136 135
-56.5 -29.3 20.1 56 56 56
-56.0 -29.3 20.0 71 71 71
-55.5 -29.3 20.1 75 76 76
-55.1 -29.3 20.1 77 79 77
-54.6 -29.3 20.1 46 46 46
-54.1 -29.3 20.0 128 128 128
-53.6 -29.3 20.0 133 133 133
-53.2 -29.3 20.0 9 14 10
-52.7 -29.3 20.0 27 27 27
-52.3 -29.3 20.1 20 23 21
-51.8 -29.3 20.0 27 27 27
-51.3 -29.3 20.0 32 31 30
-50.9 -29.3 20.1 23 23 23
-50.5 -29.4 20.1 18 22 19
-49.9 -29.3 20.0 29 30 28
-49.4 -29.3 20.0 18 22 19
-49.0 -29.3 20.0 25 25 25
-48.7 -29.4 20.1 32 31 30
-48.1 -29.3 20.1 60 60 60
-47.7 -29.4 20.1 72 72 72
-47.1 -29.3 20.0 75 75 75
-46.6 -29.3 20.0 65 66 64
-46.2 -29.3 20.1 57 56 55
-45.8 -29.3 20.1 54 54 54
-45.2 -29.3 20.0 58 59 59
-45.4 -29.7 20.3 125 125 125
-44.4 -29.4 20.1 105 105 105
-43.8 -29.3 20.0 128 128 128
-43.5 -29.7 20.3 66 67 65
-42.9 -29.6 20.2 27 27 27
-42.0 -29.3 20.0 16 16 16
-41.6 -29.3 20.1 7 13 9
-41.0 -29.3 20.0 7 13 9
-40.6 -29.3 20.0 29 31 29
-40.2 -29.3 20.1 55 55 55
-39.6 -29.3 20.0 55 55 55
-39.2 -29.3 20.0 63 63 63
-38.7 -29.3 20.0 33 32 30
-38.3 -29.3 20.1 67 68 66
-37.8 -29.3 20.0 69 69 69
-37.3 -29.7 20.3 69 69 69
-36.4 -29.3 20.0 75 76 76
-35.9 -29.3 20.0 70 70 70
-35.5 -29.3 20.0 66 66 66
-35.0 -29.3 20.0 79 81 79
-34.5 -29.3 20.0 89 91 90
-34.1 -29.3 20.0 148 148 148
-33.6 -29.3 20.0 180 180 180
-33.4 -29.6 20.2 180 180 180
-33.0 -29.6 20.2 114 116 115
-32.5 -29.6 20.2 19 23 20
-32.0 -29.6 20.2 29 29 29
-31.6 -29.7 20.3 31 32 30
-31.1 -29.6 20.2 27 27 27
-30.6 -29.6 20.2 21 24 22
-30.2 -29.6 20.2 31 32 30
-29.7 -29.6 20.3 27 27 27
-29.2 -29.6 20.2 25 25 25
-28.7 -29.6 20.2 31 32 30
-28.3 -29.6 20.2 27 27 27
-27.5 -29.3 20.0 27 27 27
-27.3 -29.6 20.2 50 50 50
-27.0 -29.7 20.3 88 88 88
-26.5 -29.7 20.3 133 133 133
-25.9 -29.5 20.2 156 159 158
-25.5 -29.6 20.2 67 67 67
-24.8 -29.3 20.1 41 41 41
-24.7 -29.8 20.4 77 79 77
-24.2 -29.8 20.3 113 115 114
-23.6 -29.7 20.3 131 134 133
-22.9 -29.3 20.0 29 29 29
-22.3 -29.2 20.0 104 103 101
-21.9 -29.3 20.0 46 45 43
-13.9 -29.0 19.8 177 180 179
-13.5 -29.3 20.0 175 175 175
-12.9 -28.9 19.8 175 177 177
130.8 -108.5 74.2 210 210 210
136.8 -112.0 76.6 210 210 210
131.2 -106.0 72.5 210 210 210
39.8 -26.9 18.4 194 194 194
40.3 -27.0 18.5 194 194 194
83.7 -35.2 24.0 187 189 189
65.9 -26.6 18.2 177 177 177
64.5 -25.9 17.7 171 173 173
64.9 -25.7 17.6 158 158 158
-50.4 -30.0 20.8 178 181 180
-49.7 -29.9 20.7 114 116 115
-49.1 -29.8 20.7 74 74 74
-48.6 -30.1 20.9 67 67 67
-47.8 -29.9 20.8 126 126 126
-47.3 -29.8 20.7 179 182 181
-47.1 -30.0 20.9 183 183 183
-45.0 -30.2 21.0 188 190 190
-44.1 -30.0 20.8 198 198 198
-43.2 -30.0 20.8 217 217 217
-30.1 -30.0 20.8 109 109 107
-27.5 -29.9 20.7 7 13 9
-27.1 -29.9 20.7 19 23 20
-26.7 -30.0 20.8 43 45 45
-25.6 -29.9 20.7 43 45 45
-25.1 -29.9 20.7 80 82 79
-24.6 -29.9 20.7 30 31 30
-24.2 -29.9 20.7 109 109 109
-14.0 -28.7 20.0 174 174 174
-13.6 -29.0 20.1 173 173 173
-13.0 -28.6 19.8 150 150 150
132.9 -108.5 75.4 210 210 210
132.7 -105.6 73.3 210 210 210
136.5 -107.2 74.5 210 210 210
34.4 -21.3 14.8 195 195 195
33.8 -20.8 14.4 198 198 198
67.3 -26.4 18.3 161 164 163
65.2 -25.4 17.6 158 158 158
65.4 -25.3 17.6 154 154 154
-50.8 -29.4 20.8 182 182 182
-50.8 -29.7 21.0 171 173 173
-50.2 -29.7 20.9 159 159 159
-49.3 -29.4 20.8 151 151 151
-48.9 -29.8 21.0 79 81 79
-48.5 -29.8 21.0 85 85 85
-47.8 -29.7 21.0 211 211 211
-47.4 -29.7 21.0 194 194 194
-47.0 -29.8 21.0 178 177 175
-46.4 -29.7 21.0 97 97 97
-45.2 -29.9 21.1 120 120 120
-44.5 -29.7 21.0 91 91 91
-43.5 -29.7 21.0 65 66 64
-30.3 -29.7 21.0 24 24 24
-28.4 -29.8 21.0 29 29 29
-27.8 -29.7 20.9 31 32 30
-27.3 -29.7 20.9 126 126 126
-26.9 -29.7 21.0 156 159 158
-26.1 -29.4 20.8 67 69 67
-25.7 -29.4 20.8 43 45 44
-25.4 -29.7 20.9 75 75 75
-24.9 -29.7 21.0 35 35 35
-14.2 -28.6 20.2 169 171 170
-13.8 -28.8 20.3 166 166 166
-13.1 -28.4 20.0 129 132 131
131.3 -105.5 74.5 209 209 209
128.2 -100.4 70.8 210 210 210
33.3 -20.1 14.2 198 198 198
33.3 -19.9 14.0 198 198 198
68.1 -26.3 18.6 163 163 163
65.6 -25.0 17.6 150 152 152
-13.9 -28.7 20.6 182 185 184
-13.2 -28.2 20.2 166 169 168
126.8 -97.6 70.1 212 213 212
139.6 -101.0 72.5 214 214 214
33.1 -19.9 14.3 198 198 198
33.2 -19.7 14.1 196 196 196
33.2 -19.6 14.0 194 194 194
33.6 -19.6 14.1 196 196 196
34.0 -19.6 14.1 199 199 199
70.5 -26.9 19.3 164 167 166
69.3 -26.3 18.9 161 161 161
69.6 -26.3 18.9 156 156 156
-55.3 -32.2 23.5 53 52 52
-53.7 -31.6 23.1 57 57 57
-53.0 -31.5 23.0 43 42 41
-16.0 -30.3 22.1 182 182 182
134.0 -95.3 69.5 214 214 214
33.2 -19.4 14.2 198 198 198
33.0 -19.1 13.9 199 199 199
32.7 -18.7 13.7 199 199 199
83.4 -31.8 23.2 177 180 179
70.3 -26.3 19.2 154 156 156
71.5 -26.5 19.4 153 153 153
-59.1 -33.2 24.7 105 105 105
-58.9 -33.4 24.8 63 64 62
-57.6 -33.0 24.5 66 66 66
-55.9 -32.3 24.0 46 46 46
-55.6 -33.2 24.6 86 88 88
-50.5 -33.2 24.7 53 53 53
-49.9 -33.2 24.6 62 62 62
-47.8 -32.9 24.4 60 60 60
-47.1 -33.2 24.7 57 56 55
-46.4 -33.2 24.6 47 48 47
-45.9 -33.2 24.6 17 21 18
-45.4 -33.3 24.7 47 48 47
-44.9 -33.3 24.7 64 65 63
-44.3 -33.3 24.7 64 65 63
-43.6 -33.2 24.6 161 160 158
-37.9 -33.2 24.7 2 7 3
-37.3 -33.2 24.7 73 73 73
-36.7 -33.2 24.6 36 36 36
-36.1 -33.2 24.6 77 79 77
-35.6 -33.2 24.6 112 112 112
-35.0 -33.2 24.6 107 107 105
-34.3 -33.1 24.6 121 121 121
-33.7 -33.0 24.5 29 31 29
-32.8 -33.3 24.7 130 130 130
-15.6 -32.0 23.8 179 179 179
14.9 -15.2 11.3 210 210 210
15.0 -15.0 11.2 209 209 209
15.5 -14.8 11.0 209 209 209
129.5 -91.6 68.0 212 213 212
127.0 -88.8 65.9 212 213 212
33.1 -19.0 14.1 199 199 199
32.7 -18.6 13.8 199 199 199
32.6 -18.4 13.6 199 199 199
33.0 -18.4 13.7 185 185 185
33.4 -18.4 13.7 182 182 182
85.1 -31.8 23.6 176 179 178
71.9 -26.4 19.6 152 152 152
72.8 -26.5 19.7 138 138 138
74.1 -26.9 20.0 137 137 137
74.0 -26.7 19.8 137 137 137
74.2 -26.6 19.7 137 137 137
-62.0 -34.6 26.1 50 50 50
-60.7 -34.2 25.8 47 48 47
-49.1 -34.9 26.4 25 25 25
-48.7 -35.0 26.5 45 45 45
-16.1 -32.6 24.6 179 179 179
236.4 -175.1 132.3 211 211 211
33.4 -18.8 14.2 199 199 199
88.0 -32.8 24.8 179 182 181
86.9 -31.9 24.1 169 169 169
75.2 -26.8 20.2 134 137 136
74.8 -26.5 20.0 134 137 136
74.4 -26.2 19.8 134 137 136
-24.5 -14.3 11.0 23 23 23
-49.3 -34.9 26.8 41 41 41
-48.7 -34.9 26.8 53 53 53
-18.0 -35.8 27.5 82 84 84
-17.7 -36.6 28.1 89 91 90
-17.1 -36.7 28.2 57 57 57
244.9 -178.2 137.1 210 210 210
241.1 -173.2 133.2 211 211 211
388.2 -258.9 199.1 212 213 212
291.5 -192.2 147.8 212 213 212
262.2 -170.8 131.4 214 214 214
397.9 -256.2 197.0 214 214 214
88.7 -32.5 25.0 168 168 168
88.1 -32.0 24.6 159 159 159
87.5 -31.6 24.3 151 153 153
91.1 -32.7 25.2 143 143 142
77.2 -27.0 20.8 136 138 137
76.5 -26.6 20.5 134 134 134
76.8 -26.5 20.4 137 139 138
-26.5 -14.1 11.0 46 46 46
-26.2 -14.1 11.0 56 56 56
-24.9 -14.1 11.0 167 167 167
-24.4 -14.1 11.0 181 184 183
-24.2 -14.2 11.1 104 106 106
-24.0 -14.2 11.1 191 194 193
-23.6 -14.1 11.0 194 194 194
-18.1 -35.3 27.6 94 94 94
-17.9 -36.3 28.4 89 91 90
-17.5 -36.7 28.7 62 62 62
368.2 -259.8 203.4 214 214 214
365.0 -254.3 199.1 214 214 214
344.3 -236.8 185.5 214 214 214
388.2 -254.3 199.1 215 215 215
352.0 -227.9 178.5 212 213 212
397.9 -251.7 197.0 214 214 214
327.4 -204.7 160.3 214 214 214
48.9 -25.6 20.1 186 186 186
89.1 -31.6 24.8 133 133 133
92.4 -32.6 25.5 135 135 135
50.6 -17.7 13.9 133 133 133
79.7 -27.4 21.4 129 132 131
78.1 -26.7 20.9 129 132 131
-67.8 -39.3 31.3 143 145 144
-56.8 -39.2 31.3 53 52 52
-17.0 -13.3 10.6 27 29 27
-18.5 -35.5 28.3 90 90 90
-17.9 -35.6 28.4 90 92 91
-17.3 -35.8 28.5 74 76 75
417.8 -285.8 227.9 214 214 214
344.3 -232.5 185.5 211 211 211
320.3 -213.7 170.4 214 214 214
396.5 -255.0 203.4 212 213 212
355.4 -225.9 180.2 212 213 212
356.2 -223.8 178.5 216 216 216
397.9 -247.1 197.0 216 216 216
330.2 -202.7 161.7 216 216 216
48.6 -25.3 20.1 192 192 192
48.7 -25.1 20.0 186 186 186
49.2 -25.0 20.0 155 155 155
50.6 -17.5 14.0 120 120 120
50.8 -17.5 13.9 121 121 121
50.9 -17.4 13.9 124 124 124
45.0 -15.0 12.0 124 124 124
45.0 -14.9 11.9 127 126 125
-71.8 -39.1 31.8 162 162 162
-71.8 -39.5 32.1 145 147 147
-71.3 -39.7 32.2 190 192 192
-70.5 -39.7 32.2 143 145 144
-69.8 -39.7 32.2 144 146 146
-69.1 -39.7 32.3 197 197 197
-68.0 -39.5 32.1 180 183 182
-59.4 -39.7 32.3 42 42 40
-58.3 -39.5 32.1 55 54 53
-57.5 -39.5 32.1 55 54 53
-57.6 -40.1 32.6 52 52 52
-54.9 -39.7 32.3 52 52 52
-54.1 -39.7 32.3 52 52 52
-53.7 -40.0 32.5 50 50 50
-17.0 -13.0 10.6 27 28 26
-51.4 -39.9 32.4 34 34 34
-50.2 -39.6 32.2 83 85 85
-49.4 -39.6 32.2 15 19 16
-48.7 -39.6 32.2 27 28 26
-48.0 -39.6 32.2 117 117 117
-47.0 -39.4 32.0 78 78 78
-46.4 -39.5 32.1 27 28 26
-45.8 -39.7 32.2 104 103 101
-45.4 -40.0 32.5 47 47 47
-19.2 -36.2 29.4 90 92 91
559.3 -375.5 305.1 214 214 214
394.6 -261.6 212.5 214 214 214
355.6 -232.8 189.2 217 217 217
449.5 -277.1 225.2 216 216 216
454.7 -277.1 225.2 216 216 216
327.4 -197.3 160.3 216 216 216
48.2 -24.8 20.2 200 200 200
48.7 -24.6 20.0 188 188 188
50.9 -17.3 14.0 111 111 111
51.2 -17.3 14.0 112 112 112
51.4 -17.2 14.0 112 112 112
45.4 -14.9 12.1 113 115 114
45.2 -14.7 11.9 114 116 115
-72.1 -39.4 32.6 112 114 113
-71.2 -39.3 32.6 144 146 146
-70.5 -39.3 32.6 131 131 131
-69.8 -39.4 32.6 184 187 186
-60.0 -39.4 32.6 43 43 43
-59.0 -39.2 32.5 55 54 53
-58.1 -39.1 32.4 55 54 53
-54.9 -39.5 32.7 52 52 52
-54.2 -39.6 32.8 46 46 46
-17.0 -12.8 10.6 30 29 28
-51.8 -39.5 32.7 27 28 26
-50.0 -39.2 32.5 23 23 23
-49.2 -39.2 32.5 30 29 28
-48.4 -39.2 32.5 21 21 21
-46.3 -39.4 32.6 120 122 121
-20.8 -38.5 31.8 95 95 95
-19.6 -37.6 31.1 93 93 93
-19.4 -38.6 32.0 70 69 68
722.5 -475.8 394.1 217 217 217
366.6 -235.5 195.0 217 217 217
477.5 -285.5 236.5 219 219 219
47.6 -24.0 19.9 200 200 200
47.9 -23.9 19.8 191 191 191
48.1 -23.8 19.7 191 191 191
51.1 -17.0 14.1 105 107 107
51.5 -17.1 14.1 107 109 109
52.0 -17.1 14.2 107 109 109
45.9 -14.7 12.2 105 107 107
45.5 -14.5 12.0 93 93 93
-60.6 -39.5 33.4 56 56 56
-17.0 -12.5 10.6 32 32 32
-20.2 -39.3 33.2 80 83 82
722.5 -466.7 394.1 217 217 217
355.6 -224.0 189.2 217 217 217
460.2 -269.9 227.9 219 219 219
46.6 -22.9 19.3 198 198 198
47.4 -23.0 19.5 191 191 191
51.3 -16.8 14.2 105 105 105
51.7 -16.8 14.2 105 105 105
52.3 -16.9 14.2 104 104 104
52.8 -16.9 14.3 102 102 102
46.5 -14.6 12.3 73 73 73
-17.0 -12.3 10.6 24 24 24
-9.0 -12.8 11.0 208 211 210
326.2 -201.5 173.5 217 217 217
397.9 -228.8 197.0 219 219 219
336.0 -191.0 164.5 220 223 222
52.4 -16.7 14.4 98 100 100
52.9 -16.7 14.4 97 97 97
53.6 -16.9 14.5 88 88 88
53.8 -16.8 14.5 72 72 72
-17.0 -12.0 10.6 230 230 230
-9.3 -12.6 11.1 42 42 42
-9.0 -12.6 11.0 211 211 211
359.2 -217.4 191.1 217 217 217
406.3 -228.9 201.2 219 219 219
53.4 -16.5 14.5 86 86 86
54.1 -16.7 14.7 68 68 68
54.7 -16.7 14.7 70 70 70
-17.4 -11.9 10.7 229 229 229
-17.0 -11.8 10.6 231 231 231
-9.4 -12.4 11.1 43 43 43
-9.0 -12.3 11.1 212 213 212
-26.4 -50.4 45.3 13 17 14
370.4 -219.6 197.0 218 221 220
117.5 -68.0 61.0 219 222 221
115.8 -64.7 58.0 219 222 221
51.8 -15.8 14.2 87 87 87
54.6 -16.5 14.8 74 74 74
55.1 -16.5 14.8 72 72 72
-17.0 -11.5 10.6 235 235 235
-16.6 -11.4 10.5 234 236 236
-9.0 -12.1 11.1 205 208 207
-28.7 -49.6 45.5 101 101 101
-27.2 -48.9 44.8 114 113 112
374.3 -217.3 199.1 218 221 220
51.7 -15.5 14.2 110 112 111
52.5 -15.6 14.3 82 82 82
54.0 -16.0 14.6 76 78 77
55.0 -16.2 14.8 76 78 77
-9.0 -11.8 11.1 204 207 206
-31.0 -54.5 51.0 115 114 114
-31.4 -57.4 53.7 11 11 11
-27.7 -55.0 51.5 47 48 47
366.6 -208.3 195.0 218 221 220
324.3 -182.0 170.4 218 221 220
428.9 -232.2 217.4 219 222 221
578.7 -306.1 286.6 219 222 221
823.2 -420.9 394.1 182 182 182
429.6 -217.2 203.4 195 195 195
412.2 -206.1 193.0 200 200 200
51.7 -15.1 14.2 116 116 116
52.4 -15.3 14.3 91 93 92
54.4 -15.7 14.7 79 81 80
55.4 -15.9 14.9 76 78 77
-9.0 -11.6 11.1 209 209 209
-34.2 -58.8 56.3 108 108 108
-33.4 -59.7 57.1 18 18 18
-31.9 -59.3 56.8 13 17 14
-28.9 -56.1 53.7 13 13 13
362.8 -201.6 193.0 218 221 220
285.7 -156.8 150.1 218 221 220
284.7 -154.4 147.8 218 221 220
428.9 -227.1 217.4 219 222 221
489.7 -253.4 242.5 219 222 221
449.3 -229.8 220.0 219 222 221
454.4 -229.8 220.0 220 223 222
513.2 -256.6 245.7 180 180 180
416.2 -205.9 197.0 195 195 195
384.7 -188.2 180.2 200 200 200
324.1 -156.8 150.1 200 200 200
52.4 -14.9 14.3 91 93 92
54.1 -15.3 14.7 79 81 80
-34.0 -59.5 58.2 23 24 23
-32.5 -59.3 58.0 21 21 21
260.9 -140.0 137.1 217 217 217
471.6 -238.5 233.5 219 222 221
354.5 -177.3 173.5 219 222 221
348.9 -172.5 168.9 223 225 225
297.1 -145.3 142.2 182 182 182
376.9 -182.3 178.5 195 195 195
323.2 -154.6 151.3 200 200 200
293.8 -139.0 136.1 200 200 200
52.3 -14.6 14.3 92 95 94
-171.2 -65.6 65.7 104 103 101
-167.3 -64.7 64.8 27 27 27
-170.8 -67.2 67.3 43 43 43
-164.5 -65.3 65.5 69 69 69
-131.0 -65.3 65.5 57 57 55
-127.7 -64.4 64.6 63 63 63
-125.4 -64.0 64.1 67 67 67
-127.8 -66.0 66.1 72 72 72
-125.4 -65.6 65.7 97 96 94
-121.6 -66.0 66.1 230 230 230
-119.3 -65.6 65.7 236 236 236
-117.7 -65.6 65.7 230 230 230
-114.8 -66.5 66.6 214 216 216
-110.1 -66.5 66.6 64 64 64
-42.3 -67.0 67.1 100 100 100
-38.4 -63.2 63.3 120 120 120
-35.5 -60.7 60.8 46 47 45
-34.8 -61.9 62.0 23 23 22
-37.4 -69.4 69.5 157 157 157
-34.3 -66.5 66.6 179 179 179
460.2 -227.5 227.9 223 225 225
345.0 -168.6 168.9 219 222 221
296.0 -143.0 143.3 220 223 222
248.5 -118.8 119.0 182 182 182
366.6 -173.2 173.5 195 195 195
303.7 -142.0 142.2 198 198 198
266.9 -123.4 123.6 200 200 200
233.2 -106.7 106.9 200 200 200
-188.9 -65.4 67.1 43 43 43
-193.5 -67.6 69.3 31 30 29
-191.9 -67.6 69.3 35 35 35
-188.9 -67.1 68.8 64 65 63
-186.6 -66.8 68.5 59 61 59
-187.7 -67.8 69.5 152 152 152
-186.1 -67.8 69.5 178 177 175
-183.8 -67.6 69.3 92 92 92
-181.5 -67.3 69.0 198 198 198
-174.2 -65.2 66.8 202 202 202
-171.4 -64.7 66.4 198 201 200
-188.4 -71.8 73.6 149 149 149
-175.8 -67.6 69.3 23 23 23
-167.4 -64.9 66.6 58 58 58
-169.4 -66.3 68.0 74 74 74
-143.5 -67.6 69.3 134 137 136
-142.5 -67.8 69.5 152 152 152
-137.8 -66.3 68.0 145 147 147
-132.9 -64.7 66.4 63 63 63
-130.0 -64.0 65.7 61 61 61
-136.0 -67.8 69.5 61 61 61
-131.9 -66.6 68.3 72 72 72
-129.9 -66.3 68.0 77 79 77
-134.1 -69.3 71.1 203 205 205
-127.6 -66.8 68.5 217 220 219
-125.1 -66.3 68.0 226 226 226
-122.2 -65.6 67.3 225 225 225
-121.5 -66.1 67.8 227 227 227
-121.7 -67.1 68.8 225 225 225
-122.3 -68.3 70.1 224 224 224
-117.7 -66.6 68.3 214 216 216
-113.6 -65.2 66.8 196 196 196
-117.5 -68.3 70.1 42 43 42
-114.6 -67.6 69.3 53 53 53
-110.9 -66.3 68.0 34 34 34
-10.5 -11.0 11.2 32 32 32
-46.1 -68.8 70.6 99 99 99
-43.2 -66.8 68.5 101 103 103
-40.0 -64.3 65.9 115 117 116
-38.0 -63.4 65.0 46 46 46
-36.7 -63.8 65.5 20 20 20
-37.9 -68.8 70.6 158 158 158
-35.5 -67.3 69.0 180 180 180
402.5 -192.1 197.0 218 218 218
395.6 -182.6 187.3 195 195 195
272.2 -123.0 126.1 200 200 200
-152.7 -80.0 84.1 207 207 207
-10.7 -10.9 11.4 34 34 34
-48.7 -82.6 86.8 21 21 21
-45.0 -79.7 83.7 167 167 167
658.6 -310.4 326.1 223 225 225
357.5 -159.3 167.4 198 198 198
-10.6 -10.5 11.3 36 36 36
-57.5 -91.5 98.5 25 25 23
-53.6 -88.7 95.5 21 21 21
415.7 -186.8 201.2 223 225 225
354.3 -154.1 165.9 198 198 198
319.0 -137.2 147.8 200 200 200
-11.3 -10.7 11.8 36 37 36
-10.7 -10.4 11.4 36 36 36
-63.5 -98.4 108.7 30 29 29
-57.0 -92.1 101.7 26 26 26
411.3 -180.2 199.1 219 222 221
-11.2 -10.4 11.7 37 40 39
-60.6 -95.3 108.1 30 29 29
-75.9 -124.5 141.2 176 176 176
207.4 -83.8 95.1 200 200 200
-11.3 -10.1 11.8 38 40 40
-93.3 -149.0 173.5 166 169 168
-807.2 -329.3 394.1 176 179 178
-11.3 -9.9 11.8 38 40 40
-10.1 -8.4 10.3 39 41 41
470.8 -185.1 227.9 223 225 225
439.1 -168.8 207.9 181 181 181
354.3 -134.8 165.9 193 193 193
309.4 -116.4 143.3 198 198 198
-10.1 -8.1 10.3 39 41 41
27.4 -12.7 16.2 219 222 221
496.1 -193.8 245.7 222 224 224
465.5 -179.8 227.9 222 224 224
470.8 -179.8 227.9 223 225 225
443.9 -165.8 210.2 174 174 174
360.7 -133.3 168.9 185 185 185
295.9 -108.2 137.1 203 203 203
-10.1 -7.9 10.3 42 42 42
27.3 -12.5 16.3 219 222 221
27.4 -12.4 16.2 220 223 222
509.3 -193.1 252.2 222 224 224
443.9 -160.9 210.2 139 139 139
315.6 -113.2 147.8 167 167 167
274.1 -97.2 127.0 193 193 193
270.0 -90.0 117.5 199 199 199
27.3 -12.1 16.3 219 222 221
27.4 -12.0 16.2 220 223 222
483.5 -177.8 239.4 218 221 220
380.5 -133.8 180.2 143 142 141
299.2 -104.0 140.1 164 167 166
272.2 -93.6 126.1 193 193 193
263.5 -85.1 114.6 202 202 202
27.1 -11.7 16.2 220 223 222
27.4 -11.6 16.2 220 223 222
19.4 -7.9 11.0 220 223 222
471.6 -168.0 233.5 222 224 224
366.6 -124.8 173.5 91 93 92
288.5 -97.2 135.1 155 155 155
274.1 -91.3 127.0 189 189 189
309.6 -97.9 136.1 198 198 198
275.1 -86.1 119.7 199 199 199
274.5 -85.0 118.2 203 203 203
-496.8 -168.8 242.5 52 52 52
-259.4 -90.2 129.6 65 65 65
27.2 -11.3 16.3 220 223 222
27.4 -11.3 16.2 220 223 222
19.5 -7.8 11.2 220 223 222
19.4 -7.7 11.0 220 223 222
477.5 -164.6 236.5 222 224 224
416.2 -137.2 197.0 121 121 121
318.1 -103.7 148.9 152 152 152
287.6 -92.7 133.2 182 182 182
331.0 -101.3 145.5 198 198 198
293.7 -89.0 127.8 199 199 199
343.1 -102.9 147.8 199 199 199
-278.2 -88.4 131.4 58 59 59
-281.7 -93.6 139.1 54 54 54
-261.2 -87.8 130.5 74 74 74
27.3 -10.8 16.1 220 223 222
19.5 -7.6 11.2 220 223 222
19.4 -7.4 11.0 220 223 222
496.1 -165.3 245.7 222 224 224
460.0 -151.5 225.2 222 224 224
434.2 -141.4 210.2 222 224 224
429.6 -136.8 203.4 139 139 139
360.7 -113.6 168.9 157 157 157
-369.0 -117.0 180.2 35 34 33
-297.0 -95.2 146.6 158 158 158
-261.2 -84.7 130.5 62 61 60
19.6 -7.3 11.2 220 223 222
19.4 -7.2 11.0 226 225 223
449.3 -142.9 220.0 223 225 225
429.6 -132.1 203.4 136 138 137
367.2 -111.7 172.0 164 164 164
-403.6 -123.4 197.0 37 38 37
-321.9 -99.6 159.0 114 116 115
19.4 -7.0 11.2 222 224 224
19.3 -6.9 11.0 222 224 224
496.1 -153.9 245.7 223 225 225
434.3 -128.8 205.6 121 121 121
408.0 -119.7 191.1 163 166 165
189.3 -54.3 86.8 192 192 192
196.0 -52.9 84.4 199 199 199
196.2 -52.4 83.7 203 203 203
-299.3 -89.1 147.8 155 154 152
19.5 -6.8 11.2 222 224 224
19.4 -6.6 11.0 222 224 224
19.0 -6.4 10.7 223 225 225
29.3 -9.6 16.0 223 225 225
530.5 -158.4 262.7 223 225 225
454.0 -129.6 215.0 112 112 112
208.1 -54.1 89.7 199 199 199
29.3 -9.3 16.0 223 225 225
29.7 -9.3 16.0 223 225 225
429.6 -117.9 203.4 78 78 78
325.8 -88.5 152.6 157 160 159
244.2 -61.6 106.3 199 199 199
234.8 -58.7 101.2 200 200 200
375.4 -88.5 152.6 235 238 237
61.4 -82.3 147.8 138 138 138
94.0 -87.0 156.3 224 226 226
29.0 -8.8 15.8 224 226 226
29.4 -8.8 15.8 224 226 226
29.6 -8.8 15.7 224 226 226
29.8 -8.7 15.7 224 226 226
376.9 -99.3 178.5 67 67 67
325.8 -84.9 152.6 142 141 140
307.0 -79.2 142.2 175 175 175
331.0 -81.0 145.5 197 197 197
363.7 -82.3 147.8 235 235 235
321.8 -72.1 129.6 108 108 108
83.8 -71.6 134.2 224 226 226
27.9 -8.3 15.6 224 226 226
28.3 -8.3 15.6 224 226 226
28.9 -8.4 15.8 224 226 226
29.3 -8.3 15.6 224 226 226
29.5 -8.3 15.5 224 226 226
439.1 -110.9 207.9 111 113 112
333.8 -83.4 156.3 145 145 144
291.7 -72.1 135.1 174 174 174
562.0 -134.5 252.2 195 195 195
546.1 -129.3 242.5 195 195 195
326.0 -76.4 143.3 198 198 198
301.9 -70.1 131.4 198 198 198
352.7 -76.4 143.3 235 235 235
319.7 -68.6 128.7 121 121 121
475.7 -114.9 225.2 66 66 66
287.6 -68.0 133.2 174 174 174
560.4 -127.0 248.9 195 195 195
304.0 -67.5 132.3 198 198 198
313.3 -64.3 126.1 118 118 118
281.6 -63.5 130.5 174 174 174
321.0 -63.5 130.5 224 226 226
293.7 -57.6 118.2 120 120 120
305.8 -58.3 119.7 71 71 71
983.8 -157.8 378.3 62 64 64
572.0 -98.0 248.9 196 196 196
675.6 -114.6 291.0 199 199 199
727.1 -122.1 310.1 199 199 199
711.0 -118.3 300.3 202 202 202
611.2 -100.7 255.6 205 205 205
501.9 -81.9 207.9 205 205 205
727.3 -116.4 295.6 228 231 230
546.4 -86.6 220.0 129 129 129
752.9 -118.3 300.3 35 36 34
725.3 -112.9 286.6 56 56 56
754.8 -116.4 295.6 55 55 55
786.3 -120.2 305.1 58 58 58
585.6 -88.7 225.2 60 63 62
496.3 -74.5 189.2 63 65 65
1088.9 -155.2 394.1 79 82 81
1055.9 -143.3 363.8 142 141 140
1064.3 -143.3 363.8 149 151 151
734.0 -98.0 248.9 123 123 123
885.4 -116.4 295.6 112 112 112
999.7 -128.5 326.1 57 57 57
861.0 -137.5 370.9 199 199 199
821.3 -129.8 350.3 199 199 199
822.4 -127.5 343.9 203 203 203
912.8 -137.5 370.9 228 231 230
894.6 -129.8 350.3 57 57 57
870.5 -125.2 337.8 56 56 56
486.5 -68.7 185.5 64 66 66
1075.6 -143.1 386.0 80 83 82
1153.0 -146.1 394.1 152 152 152
1033.0 -129.8 350.3 126 128 127
1089.7 -134.8 363.8 109 109 109
1136.9 -137.5 370.9 55 55 55
22.1 -3.9 11.9 225 225 225
692.8 -80.2 266.4 60 60 60
902.8 -97.3 350.3 60 60 60
647.2 -69.1 248.9 59 59 59
439.2 -46.5 167.4 62 64 64
885.8 -87.5 315.3 82 84 84
400.2 -38.8 152.6 63 65 65
393.9 -34.7 150.1 63 65 65
387.7 -30.7 147.8 66 68 67
82.5 0.5 21.8 93 96 95
77.5 0.5 20.3 172 172 172
83.0 1.0 21.9 90 90 90
77.9 1.0 20.5 171 173 173
81.8 1.5 21.6 91 94 93
78.7 1.5 20.7 172 172 172
-265.8 11.2 119.0 50 50 50
-237.6 10.1 107.5 52 54 52
-233.8 10.1 106.9 52 54 52
-226.2 9.8 104.5 52 54 52
-249.2 11.2 119.0 54 56 54
-234.7 10.7 113.3 53 52 52
-222.7 10.2 108.7 49 49 49
-221.4 10.3 109.3 52 52 52
-216.0 11.2 119.0 53 53 53
-211.9 11.1 118.2 53 53 53
-152.7 10.1 107.5 22 25 23
-146.1 10.0 106.3 26 26 26
-144.4 10.1 106.9 30 29 29
87.4 2.2 23.2 92 95 94
84.0 2.1 22.2 87 87 87
-229.8 12.2 103.9 54 54 54
-233.8 12.6 106.9 52 53 51
-219.0 11.9 101.2 55 55 55
-234.7 13.3 113.3 53 55 53
-221.4 12.7 108.1 53 52 52
-221.4 12.8 109.3 53 52 52
-241.5 14.3 122.0 52 52 52
-210.7 13.6 116.1 57 57 57
-198.3 13.0 110.6 57 57 57
-193.5 12.8 109.3 59 60 58
-186.6 12.6 106.9 62 62 62
-156.4 13.2 111.9 29 29 29
-146.1 12.5 106.3 29 29 29
-137.4 11.9 101.7 30 29 29
89.4 2.8 23.8 92 95 94
-217.8 13.9 98.5 54 54 54
-226.2 14.5 103.4 56 57 55
-210.0 13.7 97.0 62 62 62
-201.6 14.0 99.6 57 57 57
-189.4 14.9 105.7 70 72 69
-189.1 15.0 106.9 69 69 69
-175.7 14.2 100.6 69 69 69
-135.4 13.9 98.5 32 33 31
-132.4 13.8 98.0 36 35 34
17.5 1.5 10.7 199 199 199
17.8 1.5 10.7 205 205 205
18.1 1.5 10.7 210 210 210
19.4 1.5 10.7 226 229 228
19.7 1.5 10.7 226 229 228
20.1 1.5 10.8 226 229 228
20.3 1.5 10.8 226 229 228
90.6 3.4 24.4 89 89 89
90.3 3.4 24.2 89 89 89
95.0 3.5 25.1 93 93 93
92.1 3.4 24.2 134 134 134
17.8 1.7 10.6 200 200 200
21.6 2.0 11.9 225 227 227
22.2 2.0 12.1 224 226 226
22.4 2.0 12.1 224 226 226
22.5 2.0 12.0 224 226 226
26.6 2.1 12.7 190 190 190
22.2 2.2 12.0 225 227 227
26.5 2.4 12.7 193 193 193
26.5 2.4 12.6 198 198 198
22.4 2.5 12.0 225 225 225
27.1 2.8 13.1 205 205 205
26.6 2.7 12.7 193 193 193
26.5 2.6 12.6 199 199 199
134.0 7.5 35.6 92 92 92
130.0 7.2 34.3 103 103 103
129.8 7.2 34.1 81 81 81
22.5 2.8 12.1 226 226 226
27.1 3.1 13.1 203 203 203
26.6 3.0 12.7 194 194 194
131.6 8.1 34.8 96 99 98
132.4 8.1 34.8 87 87 85
133.7 8.2 34.9 172 174 174
169.3 233.8 386.0 77 77 77
-247.2 67.3 93.2 124 124 124
-245.0 67.3 93.2 122 122 122
-242.9 67.3 93.2 120 122 121
-240.7 67.3 93.2 120 122 121
-238.5 67.3 93.2 123 123 123
-236.4 67.3 93.2 126 126 126
-234.2 67.3 93.2 126 126 126
-232.0 67.3 93.2 127 127 127
-224.3 65.6 90.9 129 129 129
-226.6 66.9 92.7 129 129 129
-224.4 66.9 92.7 128 128 128
-218.0 65.6 90.9 128 128 128
-215.9 65.6 90.9 126 126 126
-195.2 67.3 93.2 135 135 135
-193.0 67.3 93.2 137 139 138
-191.8 67.6 93.6 137 139 138
-184.2 65.6 90.9 139 141 140
-182.1 65.6 90.9 146 146 146
-179.9 65.6 90.9 139 141 140
-177.8 65.6 90.9 143 143 142
-175.7 65.6 90.9 136 138 137
-173.6 65.6 90.9 136 138 137
-171.5 65.6 90.9 133 133 133
-135.6 65.6 90.9 215 215 215
-132.2 65.0 90.1 157 157 157
-131.3 65.6 90.9 173 173 173
-126.5 67.6 93.6 144 144 144
-120.8 65.6 90.9 147 149 149
-118.6 65.6 90.9 146 148 148
-116.5 65.6 90.9 152 152 152
-114.4 65.6 90.9 146 148 148
-112.3 65.6 90.9 160 160 160
-110.2 65.6 90.9 66 67 65
-108.1 65.6 90.9 28 28 28
-106.0 65.6 90.9 22 22 22
-103.8 65.6 90.9 105 105 105
-101.7 65.6 90.9 22 22 22
-99.6 65.6 90.9 17 17 17
-97.5 65.6 90.9 21 21 21
-95.4 65.6 90.9 34 34 34
-93.3 65.6 90.9 84 84 84
-87.8 66.3 91.8 180 183 182
-87.8 67.9 94.1 93 93 93
-83.1 66.0 91.4 178 181 180
-77.1 66.3 91.8 115 117 116
-74.6 66.0 91.4 114 116 115
-72.8 66.3 91.8 124 124 124
-61.9 66.0 91.4 107 107 107
-59.5 65.6 90.9 109 111 111
-58.8 67.3 93.2 141 141 141
-55.2 65.6 90.9 172 172 172
-52.9 65.3 90.5 170 171 170
-34.3 66.0 91.4 214 216 216
-32.0 65.6 90.9 218 218 218
-29.7 65.3 90.5 212 214 214
-28.4 67.3 93.2 220 223 222
-26.0 66.6 92.3 228 228 228
-23.9 66.6 92.3 230 230 230
-20.8 63.8 88.4 237 237 237
-19.3 65.6 90.9 238 241 240
-8.9 67.3 93.2 176 176 176
-6.8 67.3 93.2 166 169 168
-4.5 65.6 90.9 169 171 170
-2.4 66.6 92.3 41 42 40
-0.3 67.3 93.2 23 23 22
1.9 66.3 91.8 6 6 6
4.0 66.0 91.4 1 6 2
6.1 65.6 90.9 4 10 6
8.3 66.6 92.3 14 14 14
10.4 66.3 91.8 14 14 14
12.5 66.3 91.8 23 23 23
14.6 66.0 91.4 34 33 32
-58.9 72.3 97.0 152 154 154
13.4 73.4 98.5 116 118 117
15.4 71.9 96.5 115 114 114
17.8 72.3 97.0 112 112 112
54.3 19.9 25.2 192 195 194
54.9 19.9 25.2 197 197 197
55.5 19.9 25.2 192 195 194
54.8 20.7 25.4 193 196 195
55.9 20.9 25.6 193 196 195
55.7 21.6 25.8 191 194 193
57.0 21.9 26.1 191 194 193
58.0 22.0 26.3 191 194 193
24.9 16.5 10.0 129 129 129
25.1 16.5 10.0 121 121 121
26.0 16.8 10.2 116 118 117
26.0 16.7 10.1 117 119 118
26.0 16.5 10.0 116 116 116
34.2 16.7 10.1 96 96 96
35.6 16.7 10.1 101 101 101
36.1 16.7 10.1 105 107 107
36.6 16.7 10.1 105 107 107
36.6 16.6 10.0 105 107 107
37.3 16.7 10.1 117 117 117
