ply
format ascii 1.0
element vertex 2366
property float x
property float y
property float z
property uchar red
property uchar green
property uchar blue
end_header
76.8 -362.3 144.4 159 159 159
80.1 -362.3 144.4 161 161 161
83.5 -362.3 144.4 161 161 161
86.8 -362.3 144.4 158 158 158
90.2 -362.3 144.4 161 161 161
93.6 -362.3 144.4 161 161 161
96.9 -362.3 144.4 161 161 161
100.3 -362.3 144.4 164 164 164
102.8 -359.6 143.3 164 164 164
107.0 -362.3 144.4 164 164 164
111.2 -365.1 145.5 165 165 165
113.7 -362.3 144.4 165 165 165
117.0 -362.3 144.4 165 165 165
120.4 -362.3 144.4 165 165 165
123.8 -362.3 144.4 165 165 165
127.1 -362.3 144.4 165 165 165
130.5 -362.3 144.4 165 165 165
133.8 -362.3 144.4 165 165 165
137.2 -362.3 144.4 165 165 165
141.6 -365.1 145.5 169 171 170
143.9 -362.3 144.4 167 167 167
147.3 -362.3 144.4 165 165 165
150.6 -362.3 144.4 165 165 165
152.8 -359.6 143.3 166 166 166
157.3 -362.3 144.4 163 163 163
161.9 -365.1 145.5 163 163 163
165.3 -365.1 145.5 163 163 163
167.4 -362.3 144.4 163 163 163
170.7 -362.3 144.4 163 163 163
174.1 -362.3 144.4 166 166 166
178.8 -365.1 145.5 163 163 163
179.4 -359.6 143.3 160 160 160
99.2 -162.5 64.8 156 159 158
102.1 -164.8 65.7 153 155 155
104.3 -165.9 66.1 154 156 156
105.9 -165.9 66.1 154 156 156
107.4 -165.9 66.1 155 158 157
301.9 -610.7 245.7 163 163 163
103.7 -182.3 73.3 161 161 161
104.2 -180.2 72.5 161 161 161
107.6 -183.0 73.6 156 159 158
109.7 -183.7 73.9 161 161 161
106.0 -174.8 70.3 161 161 161
106.9 -173.5 69.8 156 159 158
110.5 -176.8 71.1 156 159 158
114.8 -180.9 72.8 157 160 159
118.3 -183.7 73.9 157 160 159
114.6 -175.5 70.6 158 161 160
75.6 -54.3 21.8 99 101 101
62.3 -41.2 16.6 198 201 200
62.3 -40.9 16.4 207 207 207
37.1 -171.9 69.8 162 162 162
38.7 -171.9 69.8 164 164 164
40.4 -171.9 69.8 164 164 164
42.0 -171.9 69.8 164 164 164
43.6 -171.9 69.8 164 164 164
45.2 -171.9 69.8 164 164 164
46.8 -171.9 69.8 164 164 164
48.5 -171.9 69.8 166 166 166
49.5 -170.0 69.0 166 166 166
51.1 -170.0 69.0 166 166 166
53.3 -171.9 69.8 167 167 167
55.0 -171.9 69.8 167 167 167
56.0 -170.0 69.0 167 167 167
58.2 -171.9 69.8 167 167 167
59.8 -171.9 69.8 167 167 167
60.8 -170.0 69.0 167 167 167
63.1 -171.9 69.8 167 167 167
64.7 -171.9 69.8 165 165 165
66.1 -171.3 69.5 165 165 165
70.9 -171.3 69.5 165 165 165
72.8 -171.9 69.8 165 165 165
74.4 -171.9 69.8 166 166 166
76.3 -172.5 70.1 163 163 163
78.0 -172.5 70.1 163 163 163
78.4 -170.0 69.0 163 163 163
80.3 -170.6 69.3 163 163 163
81.6 -170.0 69.0 163 163 163
83.2 -170.0 69.0 163 163 163
85.8 -171.9 69.8 163 163 163
87.1 -171.3 69.5 163 163 163
89.0 -171.9 69.8 163 163 163
91.0 -172.5 70.1 163 163 163
90.9 -169.4 68.8 163 163 163
98.4 -171.3 69.5 161 161 161
100.8 -172.5 70.1 161 161 161
101.6 -171.3 69.5 161 161 161
103.2 -171.3 69.5 156 159 158
68.9 -109.1 44.3 164 164 164
110.5 -172.5 70.1 162 162 162
112.2 -172.5 70.1 162 162 162
112.9 -171.3 69.5 163 163 163
112.1 -167.6 68.0 163 163 163
47.4 -62.9 25.5 159 162 161
73.8 -52.5 21.3 99 101 101
62.5 -40.6 16.5 218 218 218
60.2 -38.7 15.7 198 201 200
65.3 -152.8 62.6 165 165 165
81.7 -150.8 61.8 163 163 163
88.6 -152.8 62.6 164 164 164
98.5 -161.9 66.4 164 164 164
97.0 -156.9 64.3 164 164 164
68.4 -107.3 44.0 164 164 164
106.6 -164.8 67.6 165 165 165
105.1 -160.2 65.7 165 165 165
103.8 -155.9 63.9 166 166 166
101.5 -150.3 61.6 166 166 166
48.3 -63.5 26.0 159 162 161
48.2 -62.5 25.6 159 162 161
48.9 -62.7 25.7 160 163 162
49.8 -63.1 25.9 160 163 162
103.5 -76.0 31.2 105 104 102
98.1 -71.5 29.3 105 104 102
72.7 -51.3 21.0 97 100 99
70.0 -49.0 20.1 96 96 96
63.6 -41.2 16.9 209 209 209
63.1 -40.7 16.7 201 203 203
61.5 -39.4 16.1 198 201 200
60.1 -38.3 15.7 216 216 216
78.1 -142.8 59.1 166 166 166
72.7 -130.6 54.0 166 166 166
86.1 -147.0 60.8 164 164 164
79.1 -132.9 55.0 167 167 167
75.4 -119.0 49.3 167 167 167
70.3 -109.3 45.3 164 164 164
50.2 -76.8 31.8 165 165 165
48.6 -62.5 25.9 159 162 161
94.1 -68.0 28.1 105 104 102
90.5 -64.9 26.9 99 101 101
69.9 -48.8 20.2 97 100 99
68.1 -47.3 19.6 96 96 96
66.9 -46.1 19.1 91 91 91
69.0 -46.6 19.3 93 93 93
53.0 -34.0 14.1 207 207 207
58.9 -37.2 15.4 212 213 212
66.8 -118.8 49.6 170 172 172
61.5 -99.0 41.4 169 169 169
68.2 -105.0 43.9 169 169 169
49.7 -75.4 31.5 170 171 170
49.0 -62.4 26.1 162 165 164
92.9 -66.5 27.8 105 104 102
90.2 -64.1 26.8 99 101 101
69.6 -48.1 20.1 97 100 99
67.9 -46.6 19.5 96 96 96
66.9 -45.6 19.1 93 93 93
71.2 -47.9 20.0 93 93 93
68.9 -46.1 19.3 99 101 101
48.9 -31.7 13.2 198 201 200
52.6 -33.7 14.1 189 189 189
52.5 -33.4 14.0 198 201 200
51.0 -32.2 13.5 212 213 212
40.7 -80.0 33.8 173 175 175
40.5 -78.1 33.0 178 178 178
51.4 -78.4 33.1 171 173 173
50.8 -76.2 32.2 172 174 174
52.6 -77.8 32.8 172 174 174
100.5 -71.7 30.3 105 104 102
92.3 -65.4 27.6 99 101 101
69.7 -47.7 20.1 96 96 96
68.6 -46.7 19.7 96 96 96
66.3 -44.8 18.9 96 96 96
63.5 -42.6 18.0 93 93 93
61.5 -41.0 17.3 93 93 93
46.6 -29.7 12.5 198 201 200
46.1 -29.2 12.3 184 187 186
49.8 -31.0 13.1 218 218 218
39.4 -79.8 34.0 178 178 178
40.0 -79.4 33.8 173 175 175
40.7 -79.3 33.8 178 178 178
41.4 -79.1 33.7 173 175 175
44.3 -80.1 34.1 178 178 178
47.5 -81.4 34.7 173 175 175
47.5 -80.1 34.1 174 176 176
48.1 -79.7 34.0 174 176 176
49.4 -80.6 34.3 179 179 179
49.9 -80.1 34.1 179 179 179
50.7 -80.1 34.1 179 179 179
51.2 -79.7 34.0 181 181 181
51.7 -79.3 33.8 179 179 179
51.9 -78.3 33.4 181 181 181
52.0 -77.3 33.0 172 174 174
53.0 -77.7 33.1 172 174 174
54.8 -79.1 33.7 172 174 174
69.3 -47.0 20.0 97 100 99
67.5 -45.5 19.4 96 96 96
62.3 -41.4 17.6 93 93 93
60.9 -40.2 17.1 96 96 96
44.9 -28.2 12.0 209 209 209
45.9 -28.3 12.0 218 218 218
45.7 -28.0 11.9 218 218 218
39.3 -80.3 34.6 191 191 191
40.0 -80.2 34.5 192 192 192
40.7 -79.9 34.4 195 195 195
41.2 -79.3 34.1 199 199 199
41.7 -78.9 34.0 199 199 199
44.1 -80.3 34.6 199 199 199
44.8 -80.2 34.5 199 199 199
45.6 -80.2 34.5 199 199 199
46.5 -80.3 34.6 203 203 203
47.6 -80.8 34.8 203 203 203
48.0 -80.2 34.5 197 197 197
48.7 -79.9 34.4 197 197 197
49.6 -80.2 34.5 199 199 199
50.4 -80.2 34.5 199 199 199
51.2 -80.0 34.5 199 199 199
51.8 -79.8 34.3 199 199 199
52.2 -79.2 34.1 199 199 199
52.3 -78.2 33.7 197 197 197
53.9 -78.2 33.7 198 198 198
55.4 -79.2 34.1 200 200 200
210.6 -296.9 127.8 202 202 202
28.2 -37.7 16.2 200 200 200
28.1 -37.0 15.9 206 206 206
61.2 -40.0 17.2 96 96 96
44.5 -27.7 11.9 205 205 205
44.4 -27.4 11.8 181 184 183
44.9 -27.6 11.9 212 213 212
45.0 -27.4 11.8 218 218 218
45.0 -27.3 11.7 218 218 218
39.9 -79.2 34.5 203 203 203
40.7 -79.2 34.5 203 203 203
41.1 -78.4 34.1 203 203 203
44.1 -79.5 34.6 203 203 203
44.7 -79.2 34.5 203 203 203
45.5 -79.2 34.5 203 203 203
46.5 -79.5 34.6 203 203 203
47.6 -80.0 34.8 203 203 203
48.0 -79.2 34.5 203 203 203
48.5 -78.8 34.3 203 203 203
49.6 -79.2 34.5 203 203 203
50.3 -79.1 34.4 203 203 203
50.9 -78.8 34.3 203 203 203
195.7 -293.9 127.8 203 203 203
194.7 -288.1 125.3 203 203 203
48.8 -71.2 31.0 204 204 204
196.9 -278.9 121.3 204 204 204
206.4 -288.1 125.3 202 202 202
200.0 -275.3 119.7 205 205 205
27.7 -36.2 15.7 206 206 206
27.8 -35.8 15.6 204 204 204
67.5 -46.1 20.1 105 104 102
54.5 -35.7 15.5 97 100 99
54.6 -35.6 15.5 96 96 96
44.7 -27.5 12.0 198 201 200
39.0 -23.6 10.2 216 216 216
38.4 -23.0 10.0 218 218 218
27.3 -70.7 31.1 204 204 204
40.4 -76.2 33.5 203 203 203
43.9 -76.9 33.8 203 203 203
44.6 -76.8 33.7 203 203 203
47.5 -79.0 34.7 206 206 206
47.0 -76.9 33.8 203 203 203
47.0 -75.6 33.2 203 203 203
48.3 -76.5 33.6 203 203 203
49.1 -76.5 33.6 203 203 203
49.2 -75.4 33.1 203 203 203
48.4 -69.8 30.7 204 204 204
50.7 -72.1 31.7 204 204 204
27.6 -35.7 15.7 203 203 203
27.5 -35.1 15.4 204 204 204
65.4 -44.2 19.4 106 106 106
67.9 -45.3 19.9 105 104 102
65.9 -43.7 19.2 99 101 101
17.2 -70.0 31.1 204 204 204
17.9 -69.9 31.0 204 204 204
19.3 -69.8 31.0 204 204 204
20.1 -69.8 31.0 204 204 204
20.8 -69.8 31.0 204 204 204
21.5 -69.8 31.0 204 204 204
22.2 -69.8 31.0 204 204 204
22.9 -69.8 31.0 204 204 204
23.7 -70.0 31.1 207 207 207
25.2 -70.1 31.1 207 207 207
25.8 -69.8 31.0 207 207 207
26.4 -69.5 30.9 207 207 207
27.2 -69.5 30.9 207 207 207
38.5 -72.0 32.0 206 206 206
38.1 -69.9 31.0 206 206 206
38.0 -68.3 30.3 206 206 206
41.9 -70.1 31.1 206 206 206
45.7 -74.0 32.8 206 206 206
45.2 -72.0 32.0 206 206 206
45.4 -71.2 31.6 206 206 206
47.0 -72.5 32.2 206 206 206
47.3 -71.8 31.8 206 206 206
46.7 -69.8 31.0 206 206 206
48.0 -70.6 31.3 206 206 206
48.3 -69.0 30.6 204 204 204
49.7 -70.0 31.1 204 204 204
27.5 -35.2 15.6 206 206 206
27.7 -34.9 15.5 207 207 207
69.2 -45.7 20.3 106 106 106
65.7 -43.1 19.1 106 106 106
62.4 -40.6 18.0 106 106 106
19.4 -69.4 31.1 207 207 207
20.2 -69.4 31.1 207 207 207
20.9 -69.4 31.1 207 207 207
23.1 -69.5 31.2 206 206 206
26.7 -69.4 31.1 206 206 206
38.3 -70.8 31.7 206 206 206
38.2 -69.4 31.1 206 206 206
38.2 -68.0 30.5 203 203 203
41.7 -71.6 32.1 209 209 209
41.9 -70.7 31.7 209 209 209
42.1 -69.7 31.3 209 209 209
43.9 -71.6 32.1 206 206 206
45.2 -72.5 32.5 206 206 206
45.0 -70.9 31.8 206 206 206
45.5 -70.5 31.6 206 206 206
46.8 -71.4 32.0 206 206 206
47.0 -70.7 31.7 206 206 206
46.9 -69.4 31.1 206 206 206
47.7 -69.5 31.2 206 206 206
50.2 -72.0 32.3 206 206 206
48.4 -68.5 30.7 206 206 206
49.7 -69.3 31.1 206 206 206
50.9 -70.0 31.4 207 207 207
52.2 -70.7 31.7 207 207 207
53.3 -71.1 31.9 210 210 210
27.5 -34.8 15.6 206 206 206
38.2 -68.5 31.1 208 208 208
41.9 -69.9 31.7 208 208 208
42.1 -69.1 31.3 208 208 208
44.0 -71.0 32.2 208 208 208
45.0 -71.4 32.3 208 208 208
44.9 -70.0 31.7 208 208 208
45.3 -69.6 31.5 208 208 208
46.7 -70.5 32.0 208 208 208
47.0 -69.8 31.6 208 208 208
46.6 -68.2 30.9 205 205 205
47.1 -67.9 30.8 208 208 208
49.6 -70.4 31.9 205 205 205
48.3 -67.5 30.6 206 206 206
49.3 -68.0 30.8 206 206 206
53.4 -70.5 32.0 207 207 207
54.1 -70.5 32.0 207 207 207
27.6 -34.6 15.7 205 205 205
37.6 -68.0 31.2 208 208 208
37.4 -66.4 30.4 208 208 208
40.8 -66.2 30.3 208 208 208
44.4 -69.7 31.9 208 208 208
44.2 -68.3 31.3 208 208 208
44.3 -67.3 30.8 208 208 208
46.4 -69.3 31.7 208 208 208
46.5 -68.4 31.3 208 208 208
45.9 -66.5 30.5 208 208 208
46.3 -66.0 30.2 211 211 211
49.3 -69.3 31.7 208 208 208
48.1 -66.6 30.5 208 208 208
48.8 -66.5 30.5 208 208 208
49.9 -66.2 30.3 206 206 206
53.0 -69.3 31.7 206 206 206
54.1 -69.8 32.0 206 206 206
27.7 -34.3 15.7 207 207 207
27.6 -33.7 15.5 207 207 207
17.1 -66.6 30.8 208 208 208
17.6 -65.8 30.5 208 208 208
18.3 -65.6 30.4 208 208 208
19.0 -65.7 30.4 208 208 208
19.7 -65.8 30.5 208 208 208
20.5 -65.9 30.5 208 208 208
21.2 -65.8 30.5 208 208 208
21.9 -65.8 30.5 208 208 208
22.9 -66.9 31.0 208 208 208
23.8 -67.2 31.1 208 208 208
24.9 -66.3 30.7 208 208 208
25.5 -66.1 30.6 208 208 208
26.3 -66.2 30.7 208 208 208
26.8 -65.8 30.5 208 208 208
31.7 -65.6 30.4 208 208 208
32.4 -65.7 30.4 208 208 208
33.2 -65.8 30.5 208 208 208
34.3 -66.6 30.8 208 208 208
34.6 -65.8 30.5 207 207 207
35.1 -65.5 30.3 207 207 207
36.0 -65.8 30.5 207 207 207
37.3 -66.8 30.9 207 207 207
37.6 -66.0 30.6 207 207 207
38.0 -65.6 30.4 207 207 207
39.6 -67.1 31.1 207 207 207
40.3 -67.1 31.1 207 207 207
40.7 -66.6 30.8 207 207 207
40.9 -65.7 30.4 207 207 207
42.6 -67.2 31.1 207 207 207
43.7 -67.9 31.4 207 207 207
43.9 -67.1 31.1 207 207 207
44.2 -66.4 30.8 207 207 207
45.9 -67.9 31.4 207 207 207
46.3 -67.4 31.2 207 207 207
46.1 -66.0 30.6 207 207 207
46.4 -65.5 30.3 207 207 207
49.1 -68.2 31.6 207 207 207
48.1 -65.9 30.5 207 207 207
48.6 -65.6 30.4 208 208 208
49.1 -65.3 30.2 208 208 208
50.3 -65.9 30.5 208 208 208
52.2 -67.5 31.3 208 208 208
53.5 -68.2 31.6 206 206 206
27.7 -34.0 15.7 207 207 207
-30.0 -22.6 10.6 50 50 50
-29.7 -22.6 10.6 48 48 48
-29.5 -22.6 10.6 46 46 44
-29.2 -22.6 10.6 46 46 44
-29.0 -22.6 10.6 48 48 48
-28.7 -22.6 10.6 47 48 47
-28.5 -22.6 10.6 47 48 47
-28.2 -22.6 10.6 47 48 47
-28.0 -22.6 10.6 47 48 47
-27.8 -22.6 10.6 47 48 47
-27.5 -22.6 10.6 47 48 47
-27.3 -22.6 10.6 47 48 47
-27.0 -22.6 10.6 50 50 50
-26.8 -22.6 10.6 47 48 47
-26.5 -22.6 10.6 46 46 44
-26.3 -22.6 10.6 42 43 42
-25.5 -22.6 10.6 42 43 42
-25.3 -22.6 10.6 42 43 42
-25.0 -22.5 10.6 42 43 42
-24.8 -22.6 10.6 40 40 40
-24.6 -22.6 10.6 40 40 40
-24.3 -22.6 10.6 37 38 37
-23.6 -22.6 10.6 40 40 40
-23.3 -22.6 10.6 40 40 40
-23.1 -22.6 10.6 40 40 40
-22.8 -22.6 10.6 40 40 40
-21.6 -22.6 10.6 55 55 55
-21.4 -22.6 10.6 64 64 64
-20.9 -22.6 10.6 86 88 88
-20.6 -22.6 10.6 98 100 100
-20.4 -22.6 10.6 96 99 98
-20.2 -22.6 10.6 97 100 99
-19.9 -22.6 10.6 102 102 102
-19.4 -22.6 10.6 106 106 106
-19.2 -22.6 10.6 108 108 108
-18.9 -22.6 10.6 108 108 108
-18.7 -22.5 10.6 108 110 110
-18.4 -22.6 10.6 108 110 110
-18.2 -22.6 10.6 108 110 110
-17.9 -22.6 10.6 108 110 110
-17.7 -22.6 10.6 109 111 111
-17.2 -22.6 10.6 113 114 113
-17.0 -22.5 10.6 115 115 115
-16.7 -22.6 10.6 115 115 115
-14.8 -22.6 10.6 121 123 122
-9.6 -22.5 10.6 134 134 134
-9.3 -22.5 10.6 137 137 137
-9.1 -22.6 10.6 137 139 138
-8.9 -22.5 10.6 140 140 140
-8.6 -22.6 10.6 141 143 142
-8.4 -22.5 10.6 141 143 142
-8.1 -22.6 10.6 138 140 139
-7.9 -22.6 10.6 138 140 139
-7.6 -22.5 10.5 139 139 139
-7.4 -22.6 10.6 139 139 139
-7.2 -22.6 10.6 143 143 142
-6.9 -22.6 10.6 145 145 144
-6.7 -22.5 10.6 146 146 146
-6.4 -22.5 10.6 147 147 147
-6.2 -22.6 10.6 157 160 159
-5.7 -22.6 10.6 162 162 162
-5.4 -22.6 10.6 165 165 165
-5.2 -22.6 10.6 163 163 163
-4.9 -22.6 10.6 163 166 165
-4.7 -22.6 10.6 161 164 163
-4.4 -22.6 10.6 167 167 167
-4.2 -22.5 10.5 165 165 165
-4.0 -22.6 10.6 164 164 164
-3.7 -22.6 10.6 168 168 168
-3.5 -22.6 10.6 171 173 173
-3.2 -22.6 10.6 167 167 167
-3.0 -22.6 10.6 171 173 173
-2.7 -22.6 10.6 171 173 173
-2.5 -22.5 10.6 171 173 173
-2.2 -22.6 10.6 171 173 173
-2.0 -22.6 10.6 178 178 178
-1.7 -22.6 10.6 178 178 178
-1.5 -22.5 10.5 170 172 172
-1.3 -22.4 10.5 172 174 174
-0.8 -22.5 10.5 177 177 177
-0.5 -22.5 10.6 177 177 177
-0.3 -22.6 10.6 177 177 177
-0.0 -22.6 10.6 180 180 180
0.2 -22.6 10.6 179 179 179
0.5 -22.6 10.6 179 179 179
0.7 -22.6 10.6 179 179 179
1.0 -22.6 10.6 181 181 181
1.2 -22.6 10.6 181 181 181
1.4 -22.6 10.6 181 181 181
1.7 -22.5 10.6 181 181 181
1.9 -22.6 10.6 181 181 181
2.2 -22.6 10.6 181 181 181
2.4 -22.6 10.6 183 183 183
17.8 -63.2 29.6 208 208 208
24.4 -64.4 30.1 207 207 207
25.2 -64.6 30.2 210 210 210
25.9 -64.6 30.2 210 210 210
26.5 -64.4 30.1 207 207 207
32.9 -64.5 30.2 207 207 207
34.8 -64.2 30.0 207 207 207
35.2 -63.7 29.8 207 207 207
36.6 -64.8 30.3 207 207 207
37.1 -64.5 30.2 207 207 207
37.2 -63.6 29.7 207 207 207
39.4 -64.8 30.3 207 207 207
40.1 -64.8 30.3 204 204 204
40.4 -64.2 30.0 207 207 207
41.5 -64.8 30.3 210 210 210
42.9 -65.9 30.9 207 207 207
43.0 -65.0 30.4 207 207 207
43.5 -64.6 30.2 207 207 207
44.7 -65.3 30.6 207 207 207
45.9 -66.1 30.9 207 207 207
45.7 -64.8 30.3 206 206 206
45.6 -63.7 29.8 206 206 206
47.3 -65.1 30.5 207 207 207
47.8 -64.8 30.3 207 207 207
48.1 -64.3 30.1 207 207 207
47.5 -62.5 29.2 207 207 207
49.3 -64.0 29.9 207 207 207
51.7 -66.2 31.0 210 210 210
52.5 -66.3 31.0 208 208 208
52.2 -65.0 30.4 205 205 205
27.8 -32.1 15.0 205 205 205
-9.9 -24.2 11.5 137 139 138
-9.5 -24.0 11.4 138 137 136
-9.3 -24.0 11.3 140 140 140
17.0 -62.3 29.5 207 207 207
35.2 -62.9 29.7 206 206 206
36.9 -63.5 30.0 206 206 206
37.1 -62.7 29.6 206 206 206
40.1 -64.1 30.3 206 206 206
40.4 -63.5 30.0 209 209 209
43.3 -64.7 30.6 206 206 206
43.4 -63.8 30.2 206 206 206
47.1 -67.1 31.7 209 209 209
45.9 -64.3 30.4 206 206 206
45.5 -62.9 29.7 206 206 206
47.4 -64.5 30.5 206 206 206
47.7 -64.0 30.3 206 206 206
48.0 -63.4 30.0 207 207 207
49.7 -63.8 30.2 207 207 207
52.1 -65.9 31.2 207 207 207
54.0 -67.4 31.9 207 207 207
27.8 -31.6 15.0 206 206 206
28.1 -31.6 14.9 206 206 206
-10.0 -24.2 11.6 126 129 128
-9.6 -24.0 11.5 126 128 127
40.6 -63.1 30.2 209 209 209
43.6 -63.4 30.3 208 208 208
47.7 -68.3 32.7 208 208 208
48.3 -68.1 32.6 210 210 210
46.0 -63.8 30.5 205 205 205
45.9 -62.7 30.0 205 205 205
47.7 -63.3 30.3 206 206 206
48.1 -62.8 30.0 206 206 206
58.2 -70.9 33.9 210 210 210
59.1 -71.0 34.0 207 207 207
27.8 -31.3 15.0 206 206 206
27.9 -31.1 14.9 206 206 206
-25.9 -29.2 14.1 67 67 67
-10.6 -29.4 14.2 164 164 164
8.8 -29.1 14.1 209 209 209
9.5 -29.1 14.1 209 209 209
11.1 -29.2 14.1 209 209 209
11.5 -29.2 14.1 209 209 209
12.3 -29.0 14.0 209 209 209
13.4 -29.1 14.1 208 208 208
14.0 -29.0 14.0 206 206 206
14.5 -28.8 13.9 206 206 206
15.4 -29.3 14.2 206 206 206
15.8 -29.3 14.2 208 208 208
16.1 -29.2 14.1 208 208 208
16.2 -28.9 14.0 208 208 208
48.3 -67.2 32.5 210 210 210
47.1 -64.6 31.3 208 208 208
49.2 -65.4 31.6 205 205 205
47.8 -62.7 30.3 205 205 205
48.3 -62.4 30.2 205 205 205
45.0 -57.3 27.7 206 206 206
46.3 -58.1 28.1 206 206 206
59.9 -72.2 34.9 206 206 206
60.9 -72.3 35.0 207 207 207
27.9 -31.0 15.0 205 205 205
28.0 -30.8 14.9 205 205 205
-34.3 -29.2 14.3 46 46 46
-34.0 -29.3 14.3 46 46 46
-33.7 -29.3 14.4 46 46 46
-33.3 -29.2 14.3 46 46 46
-32.9 -29.2 14.3 46 46 46
-32.6 -29.2 14.3 46 46 46
-32.4 -29.3 14.4 46 46 46
-32.1 -29.3 14.4 46 46 46
-31.6 -29.2 14.3 46 46 46
-31.3 -29.2 14.3 46 46 46
-31.0 -29.2 14.3 46 46 46
-30.3 -29.2 14.3 44 44 44
-30.0 -29.2 14.3 42 42 42
-29.6 -29.2 14.3 44 44 44
-29.4 -29.4 14.4 44 44 44
-29.0 -29.2 14.3 42 42 42
-28.3 -29.2 14.3 40 40 40
-27.9 -29.2 14.3 40 40 40
-27.6 -29.2 14.3 42 43 42
-27.3 -29.2 14.3 45 45 45
-27.0 -29.2 14.3 42 43 42
-26.7 -29.3 14.4 45 45 45
-26.3 -29.2 14.3 47 48 47
-25.9 -29.1 14.3 45 45 45
-15.1 -29.4 14.4 102 102 102
-14.7 -29.3 14.3 99 99 99
-14.3 -29.2 14.3 90 90 90
-14.0 -29.2 14.3 73 73 73
-13.7 -29.2 14.3 72 71 69
-13.4 -29.3 14.4 61 61 61
-12.4 -29.3 14.3 19 23 20
-12.0 -29.2 14.3 25 25 25
-11.7 -29.2 14.3 25 25 25
-11.4 -29.3 14.3 99 101 101
-11.1 -29.5 14.4 184 184 184
-10.7 -29.2 14.3 177 177 177
-10.3 -29.2 14.3 176 179 178
-10.0 -29.2 14.3 174 174 174
-9.7 -29.2 14.3 173 173 173
-1.0 -29.4 14.4 190 190 190
-0.7 -29.2 14.3 190 190 190
-0.4 -29.2 14.3 188 188 188
-0.0 -29.2 14.3 188 188 188
0.3 -29.3 14.3 188 188 188
0.6 -29.3 14.3 186 186 186
1.0 -29.3 14.3 186 186 186
1.3 -29.3 14.3 186 186 186
1.6 -29.4 14.4 183 183 183
2.0 -29.3 14.3 183 183 183
2.3 -29.2 14.3 183 183 183
2.6 -29.2 14.3 183 183 183
2.9 -29.2 14.3 183 183 183
3.3 -29.3 14.4 183 183 183
7.0 -29.5 14.4 206 206 206
7.3 -29.2 14.3 208 208 208
7.6 -29.2 14.3 208 208 208
8.0 -29.3 14.3 208 208 208
8.3 -29.3 14.3 208 208 208
8.6 -29.2 14.3 208 208 208
8.9 -29.2 14.3 208 208 208
9.3 -29.2 14.3 208 208 208
9.6 -29.2 14.3 208 208 208
9.9 -29.2 14.3 208 208 208
10.3 -29.2 14.3 208 208 208
10.6 -29.2 14.3 208 208 208
10.9 -29.2 14.3 208 208 208
11.2 -29.2 14.3 208 208 208
11.6 -29.2 14.3 208 208 208
11.9 -29.2 14.3 208 208 208
12.2 -29.2 14.3 208 208 208
12.6 -29.2 14.3 208 208 208
13.0 -29.3 14.3 208 208 208
13.3 -29.3 14.3 205 205 205
13.6 -29.2 14.3 205 205 205
13.9 -29.2 14.3 208 208 208
14.2 -29.2 14.3 208 208 208
14.5 -29.2 14.3 208 208 208
15.5 -29.7 14.5 208 208 208
15.6 -29.4 14.4 208 208 208
16.0 -29.4 14.4 208 208 208
16.2 -29.2 14.3 208 208 208
16.6 -29.2 14.3 208 208 208
17.1 -29.5 14.4 208 208 208
47.5 -65.4 32.0 207 207 207
45.0 -60.1 29.4 207 207 207
47.5 -61.6 30.1 205 205 205
46.8 -59.8 29.2 205 205 205
45.0 -56.7 27.7 205 205 205
46.0 -57.1 27.9 205 205 205
62.3 -73.2 35.8 206 206 206
27.9 -30.8 15.0 204 204 204
27.9 -30.3 14.8 205 205 205
-35.5 -29.6 14.7 50 49 48
-35.1 -29.6 14.6 47 47 47
-34.7 -29.6 14.6 47 47 47
-34.3 -29.5 14.6 47 47 47
-34.0 -29.5 14.6 47 47 47
-33.7 -29.5 14.6 47 47 47
-33.3 -29.5 14.6 47 47 47
-32.4 -29.6 14.6 47 47 47
-32.0 -29.6 14.6 47 47 47
-31.6 -29.5 14.6 47 48 47
-31.3 -29.5 14.6 47 48 47
-31.0 -29.6 14.7 47 48 47
-30.6 -29.5 14.6 47 48 47
-30.4 -29.7 14.7 47 48 47
-30.1 -29.7 14.7 45 45 45
-29.6 -29.5 14.6 43 43 43
-29.3 -29.6 14.6 43 43 43
-28.9 -29.5 14.6 43 43 43
-28.6 -29.6 14.6 43 43 43
-28.2 -29.5 14.6 42 42 42
-27.9 -29.5 14.6 42 42 42
-27.4 -29.7 14.7 42 42 42
-26.8 -29.5 14.6 42 42 42
-15.4 -29.6 14.6 21 24 22
-15.0 -29.6 14.6 21 24 22
-14.6 -29.4 14.5 29 31 29
-14.2 -29.3 14.5 24 24 24
-13.8 -29.2 14.5 29 30 28
-12.3 -29.5 14.6 30 29 28
-12.0 -29.7 14.7 36 36 34
-11.6 -29.5 14.6 117 119 118
-11.3 -29.5 14.6 185 185 185
-10.9 -29.5 14.6 183 183 183
-10.3 -29.6 14.6 219 219 219
-1.1 -29.6 14.6 194 194 194
-0.7 -29.6 14.7 194 194 194
-0.4 -29.6 14.7 192 192 192
-0.0 -29.6 14.6 191 191 191
0.3 -29.6 14.7 191 191 191
0.6 -29.6 14.6 191 191 191
1.0 -29.8 14.8 189 189 189
1.3 -29.9 14.8 189 189 189
1.7 -29.5 14.6 189 189 189
2.0 -29.5 14.6 185 185 185
2.3 -29.6 14.6 185 185 185
7.1 -29.5 14.6 205 205 205
7.4 -29.5 14.6 208 208 208
8.2 -29.7 14.7 208 208 208
8.5 -29.7 14.7 208 208 208
8.8 -29.6 14.7 208 208 208
9.1 -29.6 14.6 208 208 208
9.5 -29.6 14.7 208 208 208
9.9 -29.7 14.7 208 208 208
10.2 -29.6 14.7 208 208 208
10.5 -29.6 14.6 208 208 208
10.9 -29.7 14.7 208 208 208
11.2 -29.6 14.7 208 208 208
11.5 -29.5 14.6 208 208 208
11.9 -29.6 14.6 208 208 208
12.2 -29.5 14.6 208 208 208
12.5 -29.6 14.6 208 208 208
12.9 -29.6 14.7 207 207 207
13.3 -29.7 14.7 207 207 207
13.6 -29.6 14.7 207 207 207
13.9 -29.5 14.6 207 207 207
14.2 -29.6 14.6 205 205 205
14.5 -29.5 14.6 205 205 205
14.8 -29.4 14.5 207 207 207
15.3 -29.6 14.7 207 207 207
15.7 -29.7 14.7 207 207 207
16.1 -29.8 14.8 207 207 207
16.4 -29.7 14.7 207 207 207
16.5 -29.3 14.5 207 207 207
17.0 -29.6 14.6 207 207 207
17.4 -29.7 14.7 207 207 207
17.7 -29.7 14.7 207 207 207
45.3 -59.7 29.6 207 207 207
47.4 -60.8 30.1 207 207 207
47.1 -59.5 29.4 207 207 207
45.6 -56.7 28.1 207 207 207
46.5 -57.1 28.2 208 208 208
48.5 -58.6 29.0 208 208 208
64.4 -74.8 37.0 205 205 205
67.1 -76.9 38.1 206 206 206
27.8 -29.9 14.8 206 206 206
27.9 -29.6 14.7 207 207 207
-20.0 -23.2 11.6 50 50 50
-19.7 -23.2 11.6 46 46 46
-13.0 -31.0 15.5 33 33 33
-12.7 -31.1 15.6 39 39 39
-11.3 -29.4 14.7 182 182 182
-11.0 -29.4 14.7 186 186 186
5.9 -23.1 11.5 207 207 207
11.9 -31.2 15.6 207 207 207
12.3 -31.2 15.6 207 207 207
13.0 -31.1 15.6 207 207 207
13.5 -30.7 15.4 207 207 207
13.5 -29.9 15.0 207 207 207
14.7 -29.4 14.7 207 207 207
16.6 -29.8 14.9 207 207 207
45.3 -59.1 29.6 206 206 206
47.5 -60.2 30.1 207 207 207
47.3 -59.0 29.6 207 207 207
45.6 -56.1 28.1 207 207 207
46.6 -56.5 28.3 207 207 207
48.2 -57.7 28.9 207 207 207
65.2 -74.8 37.5 205 205 205
67.7 -76.7 38.4 205 205 205
69.1 -77.3 38.7 205 205 205
28.2 -29.9 15.0 206 206 206
-26.4 -23.8 12.1 49 49 49
-26.1 -23.8 12.1 49 49 49
-22.2 -23.8 12.1 42 42 42
-21.9 -23.8 12.1 42 42 42
-21.6 -23.8 12.1 42 43 42
-21.3 -23.8 12.1 41 41 39
-21.1 -23.8 12.1 41 41 39
-20.5 -23.9 12.1 43 43 43
-20.2 -23.8 12.1 47 48 47
-19.9 -23.8 12.0 43 43 43
-11.9 -24.0 12.2 29 31 29
-11.5 -23.8 12.1 29 31 29
-10.7 -23.8 12.1 31 30 29
-10.4 -23.8 12.1 32 32 32
-10.1 -23.9 12.1 34 36 36
-9.8 -23.8 12.1 38 38 36
-9.6 -23.8 12.1 151 151 151
-9.3 -23.8 12.1 183 183 183
7.0 -23.8 12.1 207 207 207
7.3 -23.8 12.1 207 207 207
7.9 -24.2 12.2 207 207 207
8.1 -23.8 12.1 207 207 207
8.4 -23.8 12.1 207 207 207
8.6 -23.8 12.0 207 207 207
8.9 -23.8 12.1 207 207 207
9.2 -23.9 12.1 207 207 207
9.5 -23.8 12.1 207 207 207
9.8 -23.8 12.1 207 207 207
10.1 -23.8 12.1 206 206 206
10.3 -23.8 12.1 206 206 206
10.6 -23.8 12.1 206 206 206
10.9 -23.8 12.1 206 206 206
11.2 -23.8 12.1 206 206 206
11.5 -23.8 12.1 206 206 206
11.7 -23.8 12.1 206 206 206
12.0 -23.8 12.1 206 206 206
12.3 -23.8 12.1 206 206 206
12.6 -23.8 12.1 206 206 206
12.9 -23.8 12.1 206 206 206
13.2 -23.9 12.1 206 206 206
13.4 -23.8 12.0 206 206 206
14.4 -24.0 12.1 206 206 206
14.7 -24.1 12.2 206 206 206
14.8 -23.8 12.1 206 206 206
15.1 -23.8 12.1 206 206 206
45.5 -58.6 29.7 206 206 206
47.6 -59.6 30.2 206 206 206
47.6 -58.7 29.7 206 206 206
45.9 -55.8 28.3 206 206 206
47.1 -56.5 28.6 206 206 206
49.2 -58.2 29.5 207 207 207
50.3 -58.6 29.7 207 207 207
68.1 -76.2 38.6 204 204 204
69.4 -76.7 38.8 204 204 204
28.1 -29.8 15.1 205 205 205
28.2 -29.6 15.0 205 205 205
29.4 -29.8 15.1 206 206 206
-35.1 -24.1 12.4 58 58 58
-34.8 -24.1 12.3 59 61 59
-34.5 -24.1 12.3 59 61 59
-34.2 -24.1 12.3 59 61 59
-33.9 -24.1 12.3 59 61 59
-33.6 -24.1 12.3 59 61 59
-33.3 -24.1 12.3 59 61 59
-33.0 -24.1 12.3 59 61 59
-32.7 -24.1 12.3 59 61 59
-32.5 -24.1 12.4 58 58 58
-32.2 -24.1 12.3 58 58 58
-31.9 -24.1 12.3 56 56 56
-31.6 -24.1 12.3 58 58 58
-31.3 -24.1 12.3 58 59 59
-31.0 -24.1 12.3 58 59 59
-29.9 -24.1 12.3 53 53 53
-29.6 -24.1 12.3 52 52 50
-29.3 -24.0 12.3 52 52 50
-29.0 -24.1 12.3 52 52 50
-28.8 -24.1 12.4 49 49 49
-28.4 -24.1 12.3 49 49 49
-28.3 -24.2 12.4 52 52 50
-28.0 -24.2 12.4 52 52 50
-27.6 -24.1 12.4 49 49 49
-27.3 -24.1 12.4 50 50 50
-27.0 -24.1 12.3 50 50 50
-26.7 -24.0 12.3 50 50 50
-26.4 -24.1 12.3 47 48 47
-26.2 -24.1 12.3 47 48 47
-25.9 -24.1 12.3 47 48 47
-25.6 -24.1 12.3 48 48 48
-25.3 -24.1 12.4 48 48 48
-25.0 -24.1 12.3 48 48 48
-24.7 -24.1 12.3 51 51 51
-24.6 -24.2 12.4 48 48 48
-24.2 -24.1 12.4 48 48 48
-23.8 -24.1 12.3 44 44 44
-23.6 -24.1 12.4 42 43 42
-23.3 -24.1 12.3 42 43 42
-23.0 -24.1 12.4 42 43 42
-22.7 -24.1 12.4 42 43 42
-22.4 -24.0 12.3 45 45 45
-22.1 -24.1 12.3 42 42 40
-21.9 -24.1 12.4 40 40 40
-21.5 -24.1 12.3 40 40 40
-21.2 -24.0 12.3 43 42 41
-20.9 -24.0 12.3 40 40 40
-20.7 -24.0 12.3 43 42 41
-20.4 -24.0 12.3 43 42 41
-12.5 -24.3 12.4 30 31 30
-12.1 -24.1 12.3 30 31 30
-11.8 -24.0 12.3 29 31 29
-10.9 -24.0 12.3 29 30 28
-10.6 -24.0 12.3 34 34 34
-10.3 -24.0 12.3 35 37 36
-10.1 -24.2 12.4 46 46 46
-9.9 -24.2 12.4 159 159 159
-9.5 -24.1 12.3 184 184 184
7.7 -24.0 12.3 206 206 206
8.0 -24.2 12.4 206 206 206
9.4 -24.1 12.3 206 206 206
9.7 -24.0 12.3 208 208 208
10.0 -24.0 12.3 206 206 206
11.7 -24.0 12.3 206 206 206
12.0 -24.0 12.3 206 206 206
13.4 -24.0 12.3 206 206 206
14.7 -24.2 12.4 206 206 206
14.9 -24.0 12.3 208 208 208
48.1 -62.2 31.9 205 205 205
45.8 -58.3 29.9 205 205 205
47.8 -59.1 30.3 205 205 205
48.1 -58.7 30.1 206 206 206
46.2 -55.5 28.4 206 206 206
47.3 -56.0 28.7 206 206 206
49.6 -57.9 29.7 206 206 206
51.1 -58.9 30.2 206 206 206
60.5 -67.8 34.8 206 206 206
28.2 -29.6 15.2 204 204 204
28.3 -29.3 15.0 205 205 205
29.2 -29.3 15.0 205 205 205
-35.2 -23.9 12.4 58 58 58
-34.9 -23.9 12.4 60 62 60
-34.5 -23.9 12.4 63 63 63
-34.3 -23.9 12.4 60 62 60
-34.0 -23.9 12.4 60 62 60
-33.7 -23.9 12.4 60 62 60
-33.4 -23.9 12.4 60 62 60
-33.1 -23.8 12.4 60 62 60
-32.9 -23.9 12.4 60 62 60
-32.6 -23.9 12.4 60 62 60
-32.3 -23.9 12.4 61 63 61
-32.0 -23.9 12.4 58 59 59
-31.7 -23.9 12.4 58 59 59
-31.4 -23.9 12.4 58 59 59
-31.1 -23.9 12.4 58 59 59
-30.9 -23.9 12.4 57 57 57
-30.6 -23.9 12.4 54 54 54
-30.3 -23.9 12.4 54 54 54
-30.0 -23.9 12.4 54 54 54
-29.7 -23.9 12.4 53 52 51
-29.3 -23.8 12.4 53 52 51
-29.0 -23.8 12.4 53 52 51
-28.8 -23.9 12.4 55 55 55
-28.6 -23.9 12.4 53 52 51
-28.3 -24.0 12.4 53 52 51
-28.1 -24.0 12.4 53 52 51
-27.7 -23.9 12.4 50 50 50
-27.4 -23.9 12.4 51 51 51
-27.1 -23.9 12.4 51 51 51
-26.7 -23.8 12.4 51 51 51
-26.5 -23.9 12.4 51 51 51
-26.2 -23.9 12.4 51 51 51
-26.0 -23.9 12.4 51 51 51
-25.7 -23.9 12.4 49 49 49
-25.4 -23.9 12.4 49 49 49
-25.1 -23.9 12.4 49 49 49
-24.8 -23.9 12.4 49 49 49
-24.6 -23.9 12.4 47 48 47
-24.2 -23.9 12.4 47 48 47
-23.9 -23.8 12.4 45 45 45
-23.6 -23.9 12.4 46 46 46
-23.4 -23.9 12.4 43 43 43
-23.1 -23.9 12.4 43 43 43
-22.8 -23.9 12.4 44 44 44
-22.4 -23.8 12.4 44 44 44
-22.2 -23.9 12.4 43 42 41
-21.9 -23.9 12.4 43 42 41
-21.6 -23.9 12.4 43 42 41
-21.3 -23.8 12.4 41 41 41
-21.0 -23.8 12.4 41 41 41
-20.7 -23.8 12.4 42 42 42
-20.4 -23.8 12.3 42 42 42
-20.2 -23.9 12.4 40 42 42
-12.5 -24.0 12.4 30 29 29
-12.1 -23.8 12.4 30 31 30
-11.8 -23.7 12.3 30 31 30
-10.9 -23.8 12.3 29 31 29
-10.6 -23.7 12.3 32 31 30
-10.4 -23.8 12.3 34 34 34
-10.1 -23.9 12.4 39 39 39
-9.9 -24.0 12.4 172 172 172
-9.5 -23.8 12.3 185 185 185
7.1 -23.8 12.3 208 208 208
7.4 -23.8 12.3 208 208 208
7.7 -23.9 12.4 208 208 208
8.0 -23.9 12.4 206 206 206
8.3 -23.8 12.4 206 206 206
8.6 -23.9 12.4 206 206 206
8.9 -23.9 12.4 206 206 206
9.2 -23.9 12.4 206 206 206
9.5 -23.9 12.4 205 205 205
9.7 -23.9 12.4 205 205 205
10.0 -23.9 12.4 205 205 205
10.3 -23.9 12.4 205 205 205
10.9 -23.9 12.4 205 205 205
11.2 -23.9 12.4 205 205 205
11.5 -23.9 12.4 205 205 205
11.8 -23.9 12.4 205 205 205
12.0 -23.8 12.4 205 205 205
12.3 -23.8 12.4 205 205 205
12.6 -23.9 12.4 205 205 205
12.9 -23.9 12.4 205 205 205
13.2 -23.9 12.4 205 205 205
13.5 -23.9 12.4 205 205 205
13.7 -23.7 12.3 205 205 205
14.4 -24.0 12.4 205 205 205
14.7 -24.0 12.4 205 205 205
14.9 -23.9 12.4 205 205 205
15.2 -23.8 12.4 205 205 205
15.5 -23.8 12.4 205 205 205
45.7 -63.3 32.8 207 207 207
45.7 -62.2 32.3 207 207 207
46.2 -61.9 32.1 207 207 207
46.8 -61.7 32.0 207 207 207
47.9 -62.2 32.3 205 205 205
48.0 -61.4 31.8 205 205 205
47.5 -59.8 31.0 205 205 205
49.6 -61.5 31.9 205 205 205
49.1 -60.0 31.1 205 205 205
49.0 -59.0 30.6 205 205 205
48.8 -58.0 30.1 205 205 205
47.6 -55.8 28.9 205 205 205
51.3 -59.2 30.7 205 205 205
52.9 -60.2 31.2 206 206 206
55.8 -62.7 32.5 206 206 206
59.1 -65.5 34.0 206 206 206
28.2 -29.3 15.2 204 204 204
28.1 -28.9 15.0 204 204 204
28.9 -28.6 14.8 204 204 204
-29.0 -24.2 12.7 54 53 52
-28.7 -24.2 12.7 54 53 52
-25.1 -24.2 12.7 48 48 48
-22.5 -24.3 12.7 47 48 47
-22.1 -24.1 12.7 46 46 46
-12.7 -24.1 12.7 34 33 32
-11.0 -23.6 12.4 33 32 30
-10.6 -23.5 12.3 32 31 30
-10.4 -23.6 12.4 35 35 35
-10.2 -23.8 12.5 46 46 46
-10.0 -24.0 12.6 174 174 174
-9.6 -23.7 12.4 183 183 183
8.1 -23.9 12.6 207 207 207
9.1 -24.1 12.7 207 207 207
9.4 -24.1 12.7 205 205 205
9.6 -23.9 12.6 205 205 205
10.0 -24.1 12.7 207 207 207
10.2 -24.0 12.6 205 205 205
11.5 -24.2 12.7 205 205 205
11.7 -24.0 12.6 205 205 205
11.9 -23.9 12.6 205 205 205
12.2 -23.9 12.5 205 205 205
13.5 -24.2 12.7 205 205 205
13.7 -23.9 12.5 205 205 205
14.9 -24.0 12.6 205 205 205
15.1 -23.8 12.5 204 204 204
15.5 -24.0 12.6 207 207 207
45.7 -62.6 32.8 207 207 207
46.2 -62.2 32.7 207 207 207
47.1 -62.4 32.8 207 207 207
47.5 -61.9 32.5 207 207 207
48.4 -62.1 32.6 206 206 206
48.4 -61.2 32.1 200 200 200
47.7 -59.4 31.2 200 200 200
49.7 -60.9 32.0 200 200 200
51.2 -60.9 32.0 205 205 205
51.6 -58.9 30.9 205 205 205
53.1 -59.8 31.4 205 205 205
56.0 -62.1 32.6 205 205 205
59.1 -64.7 34.0 205 205 205
64.0 -69.2 36.3 205 205 205
65.6 -70.0 36.7 206 206 206
28.1 -28.8 15.1 203 203 203
28.5 -27.5 14.5 204 204 204
-29.9 -23.9 12.7 55 54 53
-29.6 -23.9 12.7 55 54 53
-29.3 -23.9 12.7 55 54 53
-29.0 -24.0 12.7 55 54 53
-28.7 -23.9 12.7 52 52 52
-28.4 -23.9 12.7 53 52 52
-28.1 -23.9 12.7 56 55 54
-27.8 -23.9 12.7 56 55 54
-25.1 -23.9 12.7 49 49 49
-24.8 -23.9 12.7 49 49 49
-22.9 -24.0 12.8 46 46 46
-22.6 -24.0 12.7 47 47 47
-22.2 -23.9 12.7 46 45 43
-10.5 -23.4 12.4 36 39 38
-10.3 -23.7 12.6 45 45 45
-10.1 -23.9 12.7 185 185 185
11.8 -23.9 12.7 207 207 207
15.0 -23.8 12.7 206 206 206
45.8 -61.9 32.9 206 206 206
46.5 -61.8 32.8 206 206 206
47.7 -62.4 33.2 206 206 206
48.0 -61.8 32.8 206 206 206
48.6 -61.6 32.7 206 206 206
46.9 -57.6 30.6 206 206 206
49.5 -59.9 31.8 206 206 206
48.8 -58.2 30.9 206 206 206
52.3 -61.5 32.7 206 206 206
53.5 -62.0 33.0 204 204 204
51.6 -58.1 30.9 207 207 207
52.7 -58.5 31.1 204 204 204
65.3 -69.6 37.0 205 205 205
66.3 -69.8 37.1 205 205 205
66.5 -69.1 36.7 205 205 205
28.5 -27.2 14.5 206 206 206
29.9 -28.2 15.0 203 203 203
-29.0 -23.6 12.7 56 55 54
-28.6 -23.6 12.7 56 55 54
-28.3 -23.6 12.7 57 56 55
-25.1 -23.6 12.7 53 52 52
-22.8 -23.6 12.7 47 48 47
-22.5 -23.6 12.7 46 46 44
-11.1 -23.3 12.6 30 31 30
-10.5 -23.2 12.5 17 17 17
-10.3 -23.4 12.6 47 47 47
-10.1 -23.6 12.7 187 189 189
46.2 -61.7 33.2 206 206 206
46.7 -61.3 33.0 206 206 206
48.4 -62.5 33.7 206 206 206
48.8 -61.0 32.8 206 206 206
49.2 -60.6 32.6 206 206 206
46.9 -57.0 30.7 206 206 206
49.5 -59.2 31.8 206 206 206
48.4 -57.1 30.7 206 206 206
54.8 -62.7 33.7 206 206 206
52.0 -57.8 31.1 206 206 206
53.0 -58.1 31.3 206 206 206
67.1 -70.7 38.1 204 204 204
67.9 -70.6 38.0 204 204 204
28.5 -26.9 14.5 203 203 203
29.5 -27.5 14.8 203 203 203
30.1 -27.7 14.9 203 203 203
-29.6 -23.5 12.8 58 59 59
-29.3 -23.5 12.8 58 59 59
-28.9 -23.5 12.8 57 57 55
-28.7 -23.5 12.8 57 57 55
-28.3 -23.5 12.8 57 57 55
-24.9 -23.4 12.7 52 52 52
-22.7 -23.6 12.9 48 48 48
-10.6 -23.3 12.7 27 27 27
-10.4 -23.3 12.7 50 49 48
-10.1 -23.4 12.8 183 186 185
-9.9 -23.5 12.8 182 185 184
46.5 -61.3 33.4 205 205 205
48.8 -62.3 34.0 205 205 205
48.9 -61.4 33.5 205 205 205
48.9 -60.5 33.0 205 205 205
49.3 -60.1 32.7 205 205 205
50.9 -60.1 32.7 205 205 205
49.1 -57.1 31.1 205 205 205
56.1 -63.3 34.5 206 206 206
57.7 -64.3 35.0 206 206 206
53.9 -58.4 31.8 206 206 206
57.6 -61.5 33.5 206 206 206
67.8 -70.6 38.4 204 204 204
69.3 -71.1 38.8 204 204 204
28.4 -26.5 14.4 205 205 205
29.2 -26.8 14.6 205 205 205
-10.3 -23.5 13.0 183 186 185
-10.1 -23.7 13.1 181 184 183
-9.9 -23.9 13.2 180 183 182
46.7 -60.8 33.5 205 205 205
49.1 -60.9 33.6 205 205 205
48.9 -59.7 33.0 205 205 205
49.3 -59.3 32.7 205 205 205
46.8 -55.4 30.6 205 205 205
49.7 -57.9 32.0 205 205 205
48.5 -55.7 30.8 205 205 205
55.8 -63.1 34.8 205 205 205
56.5 -63.0 34.8 205 205 205
60.0 -66.0 36.4 205 205 205
54.2 -58.0 32.0 205 205 205
57.5 -60.7 33.5 206 206 206
59.3 -61.7 34.1 206 206 206
69.7 -70.7 39.0 203 203 203
28.4 -26.1 14.4 204 204 204
-31.3 -24.0 13.4 63 63 63
-31.0 -24.0 13.4 60 60 60
-30.6 -24.0 13.4 63 63 63
-30.2 -23.9 13.4 60 60 60
-29.9 -23.9 13.4 61 61 61
-29.6 -24.0 13.4 59 59 57
-10.5 -23.6 13.2 182 185 184
-10.2 -23.8 13.3 181 184 183
-10.0 -23.9 13.4 179 182 181
-9.7 -23.9 13.3 183 183 183
50.3 -62.5 35.0 206 206 206
49.5 -60.6 33.9 204 204 204
48.9 -58.9 33.0 204 204 204
49.5 -58.7 32.8 204 204 204
46.7 -54.6 30.5 206 206 206
49.5 -57.0 31.8 204 204 204
48.8 -55.3 30.9 204 204 204
56.2 -62.8 35.1 205 205 205
62.8 -68.2 38.1 205 205 205
47.3 -47.9 26.8 207 207 207
47.1 -47.2 26.4 208 208 208
-30.6 -23.9 13.6 61 61 61
-30.1 -23.8 13.5 62 62 62
-10.3 -23.7 13.4 180 183 182
-10.1 -23.8 13.5 180 183 182
-10.1 -24.6 13.9 177 177 177
-9.7 -24.4 13.8 222 224 224
-4.5 -17.7 10.0 227 227 227
46.4 -53.5 30.3 206 206 206
49.3 -55.9 31.7 206 206 206
48.5 -54.3 30.8 206 206 206
57.5 -63.4 35.9 206 206 206
64.3 -69.9 39.6 206 206 206
64.3 -68.8 39.0 204 204 204
64.2 -67.9 38.4 206 206 206
48.0 -48.0 27.2 205 205 205
47.3 -46.7 26.5 205 205 205
46.8 -45.7 25.9 205 205 205
-10.6 -19.8 11.4 43 45 44
-10.4 -23.6 13.6 179 182 181
-10.5 -24.4 14.0 179 182 181
-10.1 -24.4 14.0 176 179 178
-5.2 -17.6 10.1 220 223 222
-5.0 -17.6 10.1 220 223 222
-4.7 -17.6 10.1 220 223 222
-4.5 -17.6 10.1 220 223 222
7.0 -17.6 10.1 207 207 207
7.3 -17.6 10.1 207 207 207
7.5 -17.6 10.1 207 207 207
7.7 -17.6 10.1 207 207 207
7.9 -17.6 10.1 207 207 207
8.4 -17.6 10.1 207 207 207
9.1 -17.6 10.1 207 207 207
9.3 -17.6 10.1 207 207 207
9.6 -17.5 10.1 207 207 207
9.8 -17.6 10.1 206 206 206
10.1 -17.6 10.1 204 204 204
10.4 -17.7 10.2 204 204 204
10.6 -17.6 10.1 206 206 206
10.8 -17.6 10.1 206 206 206
11.0 -17.6 10.1 206 206 206
11.3 -17.6 10.1 206 206 206
11.8 -17.7 10.1 206 206 206
12.0 -17.6 10.1 206 206 206
12.2 -17.6 10.1 206 206 206
12.4 -17.5 10.1 206 206 206
12.9 -17.6 10.1 206 206 206
13.2 -17.7 10.2 206 206 206
13.4 -17.6 10.1 206 206 206
48.4 -55.9 32.1 205 205 205
46.4 -52.8 30.3 205 205 205
49.3 -55.3 31.7 205 205 205
48.1 -53.1 30.5 206 206 206
65.1 -68.8 39.5 206 206 206
65.8 -68.7 39.4 206 206 206
47.2 -45.4 26.1 205 205 205
36.6 -33.1 19.0 205 205 205
37.3 -33.4 19.1 205 205 205
38.2 -33.7 19.3 205 205 205
1242.3 -568.1 326.1 113 115 114
755.1 -343.3 197.0 110 112 111
-10.7 -19.8 11.5 73 74 72
-10.6 -24.4 14.2 179 182 181
-10.2 -24.3 14.1 176 179 178
-10.0 -24.5 14.2 203 203 203
-9.6 -24.5 14.2 208 208 208
-5.0 -17.5 10.2 215 215 215
-4.8 -17.5 10.2 217 217 217
-4.5 -17.5 10.2 217 217 217
7.1 -17.5 10.2 207 207 207
7.3 -17.5 10.2 207 207 207
7.6 -17.6 10.2 207 207 207
7.8 -17.6 10.2 207 207 207
8.0 -17.4 10.1 207 207 207
8.3 -17.5 10.2 207 207 207
8.5 -17.5 10.2 206 206 206
9.0 -17.6 10.2 206 206 206
9.2 -17.5 10.2 206 206 206
9.4 -17.4 10.1 206 206 206
9.6 -17.4 10.1 206 206 206
9.9 -17.4 10.1 206 206 206
10.1 -17.4 10.1 206 206 206
10.4 -17.5 10.2 206 206 206
10.6 -17.5 10.2 206 206 206
10.9 -17.5 10.2 206 206 206
11.1 -17.5 10.2 206 206 206
11.3 -17.4 10.1 206 206 206
11.6 -17.5 10.2 206 206 206
11.8 -17.5 10.2 206 206 206
12.0 -17.5 10.2 206 206 206
12.3 -17.5 10.2 208 211 210
12.4 -17.3 10.1 206 206 206
12.8 -17.5 10.2 206 206 206
13.0 -17.5 10.2 205 205 205
13.2 -17.5 10.2 205 205 205
13.4 -17.5 10.2 205 205 205
13.8 -17.6 10.2 205 205 205
48.6 -56.2 32.7 205 205 205
49.0 -55.9 32.5 205 205 205
46.5 -52.2 30.4 205 205 205
49.5 -54.7 31.8 205 205 205
48.1 -52.4 30.5 207 210 209
66.2 -69.0 40.2 208 211 210
66.4 -68.3 39.7 212 214 214
60.5 -59.8 34.8 206 206 206
37.4 -33.3 19.4 205 205 205
38.3 -33.7 19.6 209 212 211
39.0 -33.9 19.7 207 207 207
-10.6 -24.2 14.3 179 182 181
-10.3 -24.2 14.2 179 182 181
-10.1 -24.4 14.4 191 191 191
49.7 -57.7 34.0 205 205 205
49.1 -56.1 33.1 205 205 205
50.7 -55.3 32.6 207 210 209
48.9 -52.6 31.0 207 210 209
67.8 -68.8 40.6 207 210 209
60.2 -58.6 34.6 206 206 206
39.1 -34.0 20.0 207 207 207
39.8 -34.2 20.2 207 207 207
41.4 -35.2 20.8 207 207 207
55.1 -46.3 27.3 205 205 205
-10.9 -24.4 14.6 180 183 182
-10.7 -24.6 14.7 179 182 181
-10.3 -24.6 14.7 173 173 173
49.6 -55.0 32.9 206 209 208
51.0 -54.9 32.8 206 209 208
68.0 -68.0 40.7 207 210 209
59.3 -57.7 34.5 210 213 212
60.4 -58.0 34.7 207 210 209
65.9 -62.5 37.4 207 210 209
49.6 -45.8 27.4 206 206 206
49.9 -45.5 27.2 204 204 204
49.9 -44.9 26.9 206 206 206
-10.0 -16.5 10.0 114 116 115
-11.2 -25.6 15.5 176 176 176
48.7 -54.1 32.8 206 209 208
49.5 -52.5 31.8 206 209 208
48.8 -51.1 31.0 206 209 208
74.7 -74.8 45.4 206 209 208
68.5 -67.7 41.0 207 210 209
60.5 -57.3 34.8 207 210 209
66.7 -62.4 37.8 207 210 209
49.9 -44.3 26.9 208 211 210
49.5 -43.4 26.3 208 211 210
68.5 -32.4 19.7 179 179 179
-20.0 -18.9 11.6 201 203 203
-15.2 -19.0 11.7 117 116 115
-11.5 -26.8 16.5 156 159 158
-11.1 -26.7 16.4 155 158 157
12.0 -17.2 10.6 207 210 209
48.6 -53.2 32.7 205 208 207
50.2 -52.5 32.3 205 208 207
48.2 -49.7 30.6 205 208 207
74.9 -73.9 45.5 206 209 208
67.3 -62.0 38.1 207 210 209
50.0 -43.7 26.9 208 211 210
49.9 -43.1 26.5 208 211 210
68.9 -32.2 19.8 181 181 181
69.2 -32.1 19.7 181 181 181
-20.5 -18.8 11.7 204 204 204
-20.0 -18.6 11.6 194 197 196
-19.7 -18.6 11.6 41 41 41
-15.2 -18.6 11.6 124 126 125
-12.1 -26.7 16.7 179 179 179
-11.7 -26.8 16.7 159 162 161
-11.3 -26.8 16.7 156 159 158
12.0 -16.9 10.6 206 209 208
12.2 -16.8 10.5 206 209 208
14.0 -16.6 10.4 205 208 207
50.1 -51.6 32.2 205 208 207
48.1 -48.8 30.5 205 208 207
124.9 -119.8 74.8 209 212 211
52.9 -46.2 28.8 207 210 209
50.7 -43.8 27.3 207 210 209
50.4 -42.9 26.8 207 210 209
177.7 -147.9 92.3 208 211 210
173.9 -143.0 89.2 208 211 210
69.1 -31.8 19.8 182 182 182
69.4 -31.7 19.8 182 182 182
-11.8 -26.6 16.8 166 166 166
-11.4 -26.7 16.9 163 163 163
10.9 -16.4 10.4 207 210 209
11.8 -16.1 10.2 206 209 208
12.4 -15.9 10.1 206 209 208
13.3 -16.5 10.4 205 208 207
13.4 -16.0 10.2 205 208 207
13.8 -16.2 10.2 205 208 207
47.8 -47.9 30.3 205 208 207
164.0 -157.2 99.6 208 211 210
160.4 -151.6 96.0 208 211 210
165.2 -154.0 97.5 208 211 210
181.7 -147.2 93.2 208 211 210
42.6 -30.5 19.3 188 188 188
99.1 -46.5 29.4 183 186 185
69.0 -31.1 19.7 183 183 183
68.8 -30.8 19.5 183 183 183
-29.1 -17.5 11.3 47 48 47
-28.9 -17.6 11.3 53 52 52
-28.4 -17.6 11.3 143 143 142
-25.4 -17.5 11.3 64 64 64
-19.2 -17.6 11.3 64 63 61
-18.9 -17.5 11.3 51 51 51
-14.8 -17.6 11.3 42 43 42
-10.5 -17.5 11.3 42 42 42
-10.3 -17.6 11.3 40 42 42
-11.7 -25.9 16.7 169 169 169
-11.3 -26.0 16.7 166 166 166
187.7 -177.3 114.0 208 211 210
171.7 -160.0 102.8 208 211 210
169.5 -155.7 100.1 208 211 210
172.8 -156.6 100.6 208 211 210
233.6 -188.7 121.3 207 210 209
192.1 -153.3 98.5 207 210 209
41.9 -29.9 19.2 191 191 191
42.3 -29.9 19.2 189 189 189
68.7 -30.7 19.7 184 184 184
68.4 -30.3 19.5 184 184 184
68.6 -30.2 19.4 184 184 184
67.6 -29.6 19.0 184 184 184
-19.8 -17.6 11.5 53 52 52
-19.3 -17.4 11.4 53 52 52
-10.6 -17.4 11.4 30 31 30
-10.3 -17.4 11.4 34 34 34
-12.8 -26.3 17.1 189 189 189
-12.1 -25.5 16.7 183 183 183
-11.7 -25.7 16.8 174 176 176
-11.4 -25.8 16.8 169 169 169
198.5 -184.7 120.5 207 210 209
182.7 -167.6 109.3 207 210 209
178.0 -161.1 105.1 208 211 210
182.5 -162.9 106.3 208 211 210
41.1 -28.9 18.8 189 189 189
41.8 -29.0 18.9 189 189 189
42.5 -29.2 19.1 189 189 189
118.1 -64.4 42.0 197 197 197
115.7 -62.6 40.9 198 198 198
97.4 -44.3 28.9 186 188 187
96.9 -43.8 28.6 186 188 187
97.7 -43.9 28.6 185 185 185
68.6 -29.8 19.4 185 185 185
68.0 -29.3 19.1 185 185 185
60.5 -25.3 16.5 158 161 160
61.3 -25.4 16.6 157 157 157
-13.0 -26.2 17.4 177 180 179
-11.8 -25.5 16.9 175 177 177
-11.5 -25.7 17.1 173 173 173
202.6 -183.0 121.3 207 210 209
187.4 -167.0 110.6 207 210 209
198.1 -174.1 115.3 208 211 210
685.8 -594.9 394.1 208 211 210
41.1 -28.4 18.8 192 192 192
41.9 -28.7 19.0 189 189 189
42.6 -28.9 19.1 189 189 189
99.2 -44.5 29.5 187 189 189
97.8 -43.5 28.8 187 189 189
98.3 -43.5 28.8 187 189 189
68.1 -28.9 19.2 186 186 186
66.2 -27.9 18.5 186 186 186
61.3 -25.1 16.6 156 156 156
-20.9 -17.8 12.0 56 56 56
-16.1 -14.9 10.0 30 30 30
-11.4 -17.7 11.9 28 28 28
3.0 -14.9 10.0 162 165 164
3.2 -14.9 10.0 159 159 159
4.9 -14.9 10.0 212 214 214
7.2 -14.9 10.0 210 213 212
237.6 -211.4 142.2 207 210 209
433.1 -374.9 252.2 207 210 209
477.1 -407.5 274.1 207 210 209
483.5 -407.5 274.1 208 211 210
489.8 -407.5 274.1 208 211 210
503.5 -413.5 278.2 208 211 210
559.3 -453.5 305.1 208 211 210
532.1 -426.0 286.6 208 211 210
717.6 -540.7 363.8 210 213 212
42.7 -28.8 19.4 192 192 192
43.3 -28.9 19.4 192 192 192
100.0 -44.1 29.7 188 190 190
99.4 -43.6 29.3 188 190 190
98.9 -43.1 29.0 188 190 190
100.0 -43.3 29.1 188 188 188
60.4 -24.5 16.5 160 160 160
61.5 -24.7 16.7 156 156 156
-16.1 -14.6 10.0 36 37 36
-12.7 -27.5 18.8 176 176 176
-12.4 -27.8 19.0 174 174 174
-3.5 -14.6 10.0 161 161 161
15.8 -14.7 10.0 205 208 207
404.2 -364.2 248.9 206 209 208
371.0 -329.5 225.2 206 209 208
411.1 -350.3 239.4 207 210 209
406.4 -341.7 233.5 207 210 209
422.3 -350.3 239.4 207 210 209
444.7 -364.2 248.9 205 208 207
444.7 -359.4 245.7 208 211 210
462.4 -369.0 252.2 208 211 210
444.5 -350.3 239.4 208 211 210
444.5 -345.9 236.5 208 211 210
674.8 -512.5 350.3 209 212 211
670.5 -503.2 343.9 209 212 211
592.3 -439.3 300.3 209 212 211
460.4 -337.5 230.7 209 212 211
66.6 -29.6 20.2 189 191 191
69.8 -29.1 19.9 189 189 189
70.5 -29.2 20.0 185 185 185
71.2 -29.3 20.0 185 185 185
71.8 -29.4 20.1 185 185 185
60.8 -24.3 16.6 160 160 160
61.3 -24.3 16.6 156 156 156
65.4 -25.6 17.5 146 146 146
-12.8 -27.1 18.8 172 172 172
-12.5 -27.6 19.1 133 132 131
15.8 -14.4 10.0 205 208 207
393.9 -349.2 242.5 205 208 207
342.4 -299.3 207.9 206 209 208
406.0 -340.5 236.5 206 209 208
387.3 -320.4 222.5 207 210 209
387.9 -316.7 220.0 207 210 209
402.4 -324.2 225.2 207 210 209
422.7 -336.2 233.5 207 210 209
433.5 -340.5 236.5 208 211 210
423.1 -328.1 227.9 208 211 210
399.5 -306.0 212.5 208 211 210
723.1 -534.0 370.9 209 212 211
601.9 -439.3 305.1 209 212 211
454.9 -328.1 227.9 209 212 211
72.0 -29.0 20.1 184 184 184
61.2 -24.0 16.7 160 160 160
61.3 -23.9 16.6 156 156 156
61.7 -23.9 16.6 150 152 152
65.1 -25.1 17.4 144 144 144
-12.9 -27.1 19.1 167 167 167
-12.7 -27.5 19.4 129 132 131
393.9 -343.5 242.5 205 208 207
331.5 -285.1 201.2 205 208 207
406.0 -335.0 236.5 210 210 210
382.8 -311.6 220.0 206 209 208
366.6 -294.5 207.9 207 210 209
371.4 -294.5 207.9 207 210 209
402.8 -315.3 222.5 207 210 209
408.0 -315.3 222.5 207 210 209
408.4 -311.6 220.0 208 211 210
362.8 -273.4 193.0 208 211 210
746.3 -535.9 378.3 209 212 211
449.5 -319.0 225.2 209 212 211
393.8 -276.3 195.0 209 212 211
78.1 -31.1 22.0 188 188 188
76.6 -30.3 21.4 185 185 185
61.8 -23.9 16.8 157 157 157
61.4 -23.6 16.6 152 154 154
61.8 -23.6 16.6 150 150 150
64.7 -24.5 17.3 146 146 146
64.4 -24.2 17.1 139 141 140
-13.3 -27.4 19.6 179 179 179
-12.9 -27.4 19.7 170 172 172
-12.7 -28.1 20.2 114 113 112
487.6 -418.4 300.3 209 209 209
380.0 -321.4 230.7 209 209 209
457.5 -371.2 266.4 210 210 210
427.5 -342.3 245.7 206 209 208
411.9 -325.4 233.5 206 209 208
422.5 -329.5 236.5 207 210 209
433.4 -333.6 239.4 207 210 209
433.5 -329.5 236.5 207 210 209
439.0 -329.5 236.5 207 210 209
370.4 -274.6 197.0 208 211 210
666.4 -470.7 337.8 209 212 211
484.1 -337.9 242.5 214 214 214
444.1 -306.5 220.0 209 212 211
78.7 -30.9 22.2 189 189 189
77.9 -30.3 21.8 183 183 183
62.6 -23.8 17.1 159 159 159
61.7 -23.3 16.7 152 152 152
62.1 -23.3 16.7 148 148 148
64.3 -24.0 17.2 142 144 143
64.3 -23.8 17.1 134 134 134
-13.1 -28.5 20.8 159 159 159
590.8 -498.4 363.8 209 209 209
438.9 -365.0 266.4 209 209 209
507.5 -405.0 295.6 210 210 210
491.3 -386.8 282.3 210 210 210
457.0 -355.0 259.1 206 209 208
482.9 -370.2 270.2 206 209 208
482.2 -365.0 266.4 206 209 208
475.1 -355.0 259.1 207 210 209
487.8 -360.0 262.7 207 210 209
399.5 -291.2 212.5 207 210 209
746.3 -518.3 378.3 208 211 210
539.4 -370.2 270.2 209 212 211
79.1 -30.5 22.3 190 190 190
79.3 -30.4 22.2 184 184 184
79.7 -30.3 22.2 178 181 180
62.7 -23.3 17.0 152 152 152
62.9 -23.2 16.9 141 141 141
64.8 -23.7 17.3 132 135 134
64.7 -23.6 17.2 132 135 134
-14.3 -29.5 21.9 171 173 173
612.8 -480.7 356.9 209 209 209
522.5 -404.4 300.3 210 210 210
483.5 -369.2 274.1 210 210 210
520.0 -392.0 291.0 210 210 210
518.8 -386.0 286.6 206 209 208
541.9 -398.1 295.6 206 209 208
516.5 -374.7 278.2 211 211 211
390.8 -280.0 207.9 211 211 211
79.7 -30.2 22.4 191 191 191
80.5 -30.3 22.5 185 185 185
81.5 -30.5 22.6 177 177 177
79.3 -29.5 21.9 169 169 169
64.6 -23.4 17.4 134 137 136
65.0 -23.4 17.4 134 136 135
65.2 -23.3 17.3 134 136 135
-15.8 -33.2 25.1 156 156 156
-15.3 -33.3 25.2 15 19 16
548.7 -417.3 315.3 209 209 209
490.6 -368.2 278.2 210 210 210
554.1 -410.5 310.1 210 210 210
552.2 -403.8 305.1 210 210 210
666.9 -481.5 363.8 211 211 211
532.1 -379.4 286.6 211 211 211
699.2 -463.7 350.3 214 214 214
81.1 -30.0 22.7 178 178 178
83.0 -30.5 23.1 170 171 170
82.8 -30.2 22.8 165 165 165
65.4 -23.3 17.6 135 135 135
65.4 -23.1 17.5 134 134 134
65.5 -23.1 17.4 135 135 135
74.4 -26.0 19.6 135 135 135
-73.7 -34.0 26.2 77 77 77
-73.1 -34.0 26.2 67 67 67
-71.6 -33.6 25.8 47 47 47
-71.8 -34.0 26.2 19 23 20
-71.2 -34.0 26.2 34 34 34
-69.8 -33.6 25.8 28 28 28
-69.2 -33.6 25.9 34 34 34
-68.6 -33.6 25.9 123 123 123
-18.0 -33.4 25.7 176 179 178
-17.3 -33.2 25.6 154 156 156
-16.7 -33.3 25.6 88 88 88
-16.2 -33.5 25.8 90 92 91
-15.7 -33.6 25.8 56 56 56
577.5 -431.5 331.9 209 209 209
521.2 -384.3 295.6 210 210 210
590.3 -424.1 326.1 210 210 210
693.6 -492.0 378.3 210 210 210
548.7 -384.3 295.6 211 211 211
770.5 -502.0 386.0 214 214 214
83.3 -30.3 23.3 157 157 157
84.9 -30.7 23.6 150 150 150
85.9 -30.8 23.7 139 141 140
74.5 -25.6 19.7 132 132 132
-18.8 -34.3 26.9 177 180 179
-18.1 -34.2 26.8 134 137 136
-17.2 -33.6 26.3 88 88 88
-16.8 -34.0 26.6 88 88 88
-16.2 -34.1 26.7 52 53 51
685.8 -503.3 394.1 209 209 209
546.9 -396.0 310.1 209 209 209
698.8 -493.0 386.0 210 210 210
722.5 -503.3 394.1 210 210 210
575.7 -396.0 310.1 211 211 211
86.2 -30.6 23.9 131 133 132
87.6 -30.9 24.2 134 134 134
88.7 -31.1 24.3 131 133 132
73.4 -24.8 19.4 129 129 129
73.5 -24.7 19.3 129 129 129
-18.9 -35.1 28.0 132 132 132
-17.6 -33.8 27.0 90 90 90
-17.2 -34.1 27.2 90 92 91
-17.4 -36.0 28.7 74 76 75
-16.3 -35.0 27.9 109 109 109
556.0 -395.3 315.3 212 213 212
585.3 -395.3 315.3 214 214 214
87.1 -30.3 24.2 112 112 112
89.0 -30.8 24.6 118 118 118
90.2 -31.0 24.7 121 121 121
91.0 -31.1 24.8 123 123 123
71.9 -24.0 19.1 119 119 119
73.4 -24.3 19.4 126 126 126
73.4 -24.2 19.3 126 126 126
-17.3 -33.8 27.5 91 93 92
-17.6 -35.6 29.0 80 83 82
521.2 -363.7 295.6 212 213 212
570.7 -388.0 315.3 216 216 216
627.1 -415.7 337.8 214 214 214
89.9 -30.5 24.8 111 111 111
91.7 -31.0 25.2 112 112 112
92.6 -31.0 25.2 113 114 113
73.7 -23.9 19.5 121 121 121
73.4 -23.7 19.3 131 131 131
-18.0 -35.7 29.6 70 69 68
15.7 -12.7 10.6 209 209 209
15.9 -12.7 10.5 208 208 208
483.5 -331.0 274.1 212 213 212
433.3 -292.8 242.5 212 213 212
526.8 -351.4 291.0 212 213 212
273.5 -175.7 145.5 214 214 214
246.6 -156.4 129.6 215 215 215
89.2 -29.7 24.6 108 108 108
92.1 -30.5 25.3 109 111 111
50.3 -16.6 13.7 108 108 108
50.0 -16.4 13.6 109 111 111
74.4 -23.7 19.6 91 94 93
74.3 -23.5 19.5 150 152 152
-18.3 -35.7 30.1 79 82 81
-18.1 -36.7 31.0 36 37 36
13.9 -12.3 10.3 210 210 210
15.6 -12.5 10.5 209 209 209
16.1 -12.2 10.3 211 211 211
16.1 -12.1 10.2 212 213 212
513.2 -344.6 291.0 215 215 215
273.5 -172.3 145.5 214 214 214
250.0 -155.6 131.4 217 217 217
49.4 -16.0 13.6 105 105 105
49.8 -16.1 13.6 102 104 104
49.8 -16.0 13.5 101 103 103
-19.0 -36.3 31.3 103 105 105
-20.5 -40.8 35.2 99 99 99
16.0 -11.9 10.3 211 211 211
16.0 -11.8 10.1 212 213 212
49.6 -15.8 13.6 99 99 99
49.7 -15.7 13.6 97 97 97
49.8 -15.7 13.5 90 90 90
-24.4 -41.0 36.0 116 116 116
-23.2 -40.3 35.4 96 96 96
-22.2 -40.0 35.2 94 94 94
-21.8 -40.8 35.8 79 81 80
-21.0 -40.9 36.0 113 114 113
-19.9 -40.5 35.6 115 117 116
15.9 -11.5 10.1 212 213 212
49.9 -15.6 13.7 92 95 94
49.9 -15.5 13.6 79 81 80
50.1 -15.4 13.6 73 73 73
-24.2 -41.3 37.0 96 96 96
-22.5 -39.9 35.8 95 98 97
-22.4 -41.2 36.9 107 107 107
-22.5 -42.9 38.5 29 29 29
15.9 -11.4 10.3 212 213 212
16.0 -11.3 10.2 216 216 216
50.1 -15.2 13.6 79 81 80
50.3 -15.2 13.6 71 71 71
51.0 -15.3 13.7 71 71 71
-25.2 -47.0 43.1 31 33 33
-24.5 -47.7 43.7 30 29 29
-23.4 -47.5 43.5 108 108 106
16.1 -11.1 10.2 216 216 216
529.5 -327.6 300.3 218 218 218
570.7 -344.0 315.3 219 219 219
534.0 -278.9 255.6 183 183 183
312.1 -161.3 147.8 196 196 196
50.4 -15.0 13.7 86 86 86
50.7 -15.0 13.7 75 76 76
51.6 -15.1 13.9 75 76 76
52.0 -15.2 13.9 75 76 76
-26.6 -46.8 43.8 112 111 110
-25.4 -46.4 43.5 18 18 18
-25.0 -47.6 44.6 25 25 23
513.2 -310.8 291.0 218 218 218
552.2 -325.8 305.1 219 219 219
526.9 -269.4 252.2 181 181 181
50.4 -14.7 13.7 90 90 90
50.8 -14.7 13.8 78 78 78
51.7 -14.9 13.9 77 77 77
52.2 -14.9 14.0 78 78 78
-24.8 -44.3 42.4 23 23 22
-24.1 -44.9 43.0 23 23 22
16.0 -10.6 10.1 216 216 216
645.5 -387.5 370.9 218 218 218
490.6 -290.6 278.2 218 218 218
528.1 -308.8 295.6 218 218 218
535.0 -308.8 295.6 219 219 219
731.6 -411.7 394.1 219 219 219
493.9 -247.0 236.5 182 182 182
50.1 -14.3 13.7 90 90 90
50.6 -14.3 13.7 79 82 81
51.7 -14.5 13.9 78 78 78
52.2 -14.6 14.0 79 82 81
51.7 -14.4 13.7 79 82 81
-26.9 -45.3 44.3 109 109 109
-25.2 -44.1 43.2 18 18 18
-24.4 -44.5 43.6 23 23 22
16.0 -10.3 10.1 216 216 216
558.0 -327.5 320.6 218 218 218
444.8 -257.6 252.2 218 218 218
504.5 -288.4 282.3 218 218 218
511.0 -288.4 282.3 219 219 219
557.4 -306.7 300.3 219 219 219
470.4 -230.0 225.2 181 181 181
49.9 -13.9 13.6 91 91 91
50.3 -13.9 13.6 79 82 81
51.6 -14.2 13.9 79 82 81
52.0 -14.2 13.9 79 82 81
51.5 -14.0 13.7 79 82 81
50.6 -13.7 13.4 79 82 81
-28.1 -46.2 46.3 110 110 108
-26.4 -45.2 45.3 47 48 47
-25.5 -45.4 45.5 20 20 20
411.9 -233.1 233.5 218 218 218
439.0 -245.2 245.7 218 218 218
428.0 -236.0 236.5 219 219 219
462.1 -248.5 248.9 219 219 219
329.2 -174.8 175.2 219 219 219
449.0 -214.6 215.0 182 182 182
50.1 -13.5 13.6 80 83 82
-11.5 -10.5 10.8 26 27 25
-11.2 -10.4 10.7 29 29 27
-36.5 -63.4 65.0 19 19 19
-34.6 -62.7 64.3 153 153 153
-33.4 -63.4 65.0 178 178 178
16.0 -9.9 10.2 217 220 219
417.0 -230.5 236.5 219 222 221
433.4 -233.5 239.4 219 222 221
468.2 -245.9 252.2 219 219 219
374.3 -194.1 199.1 219 219 219
459.5 -214.4 220.0 179 179 179
-11.5 -10.2 10.8 29 29 27
-11.2 -10.1 10.7 29 29 27
-43.0 -70.1 73.6 23 23 22
-38.9 -65.9 69.3 19 19 19
-36.6 -64.8 68.0 158 158 158
15.5 -9.8 10.3 217 220 219
15.7 -9.8 10.3 217 220 219
16.0 -9.8 10.3 217 220 219
16.1 -9.7 10.2 217 220 219
16.1 -9.6 10.1 217 220 219
489.8 -260.9 274.1 219 222 221
439.0 -230.8 242.5 219 222 221
468.2 -240.0 252.2 219 219 219
370.4 -187.5 197.0 219 219 219
814.1 -375.1 394.1 218 218 218
459.5 -209.3 220.0 182 182 182
-11.6 -10.1 10.8 33 33 33
-11.2 -9.9 10.7 33 33 33
-46.4 -73.8 79.5 26 26 26
-43.1 -71.4 76.9 19 19 19
15.8 -9.9 10.6 217 220 219
15.9 -9.8 10.5 217 220 219
15.7 -9.5 10.3 217 220 219
16.0 -9.6 10.3 217 220 219
16.1 -9.5 10.2 217 220 219
16.2 -9.4 10.1 218 221 220
417.6 -214.2 230.7 219 222 221
386.5 -190.9 205.6 220 223 222
449.0 -199.6 215.0 184 184 184
-52.4 -81.2 89.7 25 25 23
-45.9 -74.1 81.9 22 23 21
15.7 -9.6 10.6 217 220 219
15.5 -9.3 10.3 217 220 219
15.7 -9.3 10.3 217 220 219
16.0 -9.3 10.3 217 220 219
16.1 -9.2 10.2 217 220 219
16.0 -9.1 10.0 218 221 220
704.2 -356.7 394.1 219 222 221
469.0 -234.6 259.1 219 222 221
493.9 -214.0 236.5 180 180 180
-63.6 -104.3 118.2 166 169 168
-65.7 -112.7 127.8 179 179 179
15.7 -9.3 10.6 218 221 220
15.8 -9.2 10.5 217 220 219
16.1 -9.1 10.3 216 216 216
16.1 -9.0 10.2 218 221 220
496.2 -241.8 274.1 219 222 221
506.6 -213.9 242.5 174 176 176
182.2 -49.1 55.6 107 107 107
-11.1 -9.1 10.6 34 34 34
-73.7 -112.8 131.4 28 28 28
-68.2 -109.0 127.0 155 158 157
-69.0 -115.2 134.2 178 178 178
15.7 -9.1 10.6 218 221 220
15.7 -8.9 10.4 217 220 219
16.1 -8.9 10.4 217 220 219
16.1 -8.8 10.2 220 223 222
593.0 -285.0 331.9 219 222 221
526.8 -249.9 291.0 219 222 221
500.2 -205.6 239.4 174 176 176
-10.5 -8.6 10.3 34 34 34
-77.4 -115.4 138.1 22 23 21
-72.1 -112.1 134.2 165 168 167
-72.1 -117.1 140.1 178 178 178
-69.3 -117.9 141.2 178 181 180
128.8 -154.9 185.5 220 220 220
15.8 -8.9 10.6 218 221 220
15.7 -8.7 10.4 218 221 220
16.0 -8.6 10.3 218 221 220
16.1 -8.5 10.2 220 223 222
582.8 -272.5 326.1 219 222 221
493.9 -197.6 236.5 183 183 183
-11.1 -8.6 10.5 33 33 33
-10.3 -9.9 12.2 34 36 36
-96.4 -139.7 172.0 25 24 23
-82.0 -123.9 152.6 160 160 160
-79.1 -124.9 153.8 177 180 179
120.5 -141.0 173.5 220 220 220
15.8 -8.6 10.6 218 221 220
493.9 -192.1 236.5 174 174 174
-10.3 -9.7 12.3 39 39 39
-137.8 -193.8 245.7 28 28 28
-116.9 -171.6 217.4 163 166 165
123.9 -140.8 178.5 220 220 220
15.7 -8.4 10.6 218 221 220
15.6 -8.2 10.4 218 221 220
16.1 -8.2 10.3 218 221 220
16.1 -8.1 10.2 218 221 220
281.4 -105.1 133.2 169 171 170
216.0 -79.8 101.2 179 179 179
329.3 -120.4 152.6 195 195 195
-10.4 -9.5 12.4 45 45 45
-10.1 -9.4 12.3 199 199 199
142.8 -157.5 205.6 220 220 220
15.7 -8.1 10.6 218 221 220
15.7 -8.0 10.4 218 221 220
15.7 -7.9 10.3 218 221 220
16.0 -7.9 10.3 218 221 220
16.1 -7.8 10.2 218 221 220
16.2 -7.8 10.1 218 221 220
281.4 -102.0 133.2 134 134 134
244.8 -87.8 114.6 157 157 157
327.6 -115.0 150.1 195 195 195
183.3 -42.9 56.0 120 120 120
-10.3 -9.1 12.3 45 45 45
-9.7 -9.0 12.2 190 190 190
15.7 -7.8 10.6 218 221 220
16.0 -7.7 10.3 218 221 220
16.0 -7.5 10.2 218 221 220
16.1 -7.4 10.0 218 221 220
256.1 -90.0 121.3 144 144 144
214.9 -74.7 100.6 159 159 159
169.4 -58.3 78.5 185 185 185
181.9 -58.8 79.1 200 200 200
183.8 -41.7 56.1 118 118 118
-9.6 -8.7 12.1 189 189 189
-9.2 -8.6 11.9 185 185 185
15.7 -7.6 10.6 218 221 220
16.0 -7.3 10.2 222 224 224
16.1 -7.2 10.1 222 224 224
171.6 -57.2 79.5 185 185 185
189.6 -59.9 83.3 197 197 197
186.6 -58.4 81.2 200 200 200
16.0 -7.0 10.1 218 221 220
177.5 -57.2 82.2 182 182 182
188.7 -57.7 83.0 197 197 197
189.8 -57.5 82.6 200 200 200
16.1 -6.8 10.2 218 221 220
19.2 -7.5 11.2 219 222 221
19.1 -7.4 11.0 219 222 221
20.1 -7.4 11.0 219 222 221
169.4 -52.8 78.5 180 180 180
181.6 -53.7 79.8 197 197 197
130.0 -121.7 187.3 219 219 219
19.0 -7.2 11.1 219 222 221
19.1 -7.1 11.0 219 222 221
20.0 -7.2 11.1 219 222 221
20.1 -7.1 10.9 220 223 222
171.6 -51.6 79.5 174 176 176
190.7 -53.9 83.0 197 197 197
131.3 -118.5 189.2 219 219 219
18.9 -6.8 10.9 220 223 222
20.0 -6.9 11.0 220 223 222
20.0 -6.8 10.9 220 223 222
20.0 -6.8 10.8 220 223 222
256.1 -75.9 121.3 119 119 119
182.3 -52.9 84.4 175 177 177
194.9 -53.1 84.8 197 197 197
197.8 -53.4 85.2 200 200 200
970.7 -191.1 305.1 75 75 75
95.6 -80.3 133.2 217 217 217
19.0 -6.6 10.9 220 223 222
20.0 -6.6 10.9 220 223 222
20.0 -6.5 10.8 220 223 222
262.9 -75.1 124.4 112 112 112
174.5 -48.8 80.8 175 175 175
205.2 -53.3 88.4 200 200 200
202.7 -51.6 85.6 202 202 202
1180.0 -223.7 370.9 71 71 71
96.3 -77.8 134.2 218 218 218
20.2 -6.4 11.0 221 221 221
268.2 -73.6 127.0 82 84 84
228.2 -62.0 106.9 153 153 153
301.3 -80.1 138.1 186 186 186
279.4 -73.6 132.3 78 78 78
170.9 -44.1 79.1 170 171 170
869.0 -219.3 394.1 191 191 191
134.0 -102.9 193.0 215 218 217
185.6 -45.9 86.0 166 169 168
439.1 -105.1 197.0 192 192 192
149.4 -113.5 222.5 216 219 218
453.6 -106.0 207.9 186 186 186
463.5 -107.2 210.2 189 189 189
439.1 -100.5 197.0 194 194 194
37.4 -27.2 55.8 217 220 219
182.3 -41.1 84.4 174 174 174
201.9 -39.2 84.4 204 204 204
216.4 -41.6 89.7 207 207 207
214.5 -40.8 88.0 212 213 212
207.1 -38.3 82.6 47 48 47
204.6 -37.5 80.8 60 62 61
22.9 -6.0 13.7 219 219 219
20.6 -5.5 13.3 222 222 222
21.0 -5.5 13.3 219 219 219
21.2 -5.5 13.3 222 222 222
22.5 -5.5 13.3 222 222 222
22.8 -5.5 13.3 222 222 222
25.0 -5.5 13.3 222 222 222
25.6 -5.5 13.3 222 222 222
25.8 -5.5 13.2 222 222 222
26.1 -5.5 13.2 222 222 222
15.9 -5.3 13.4 69 68 67
16.0 -5.2 13.3 70 69 68
21.0 -5.2 13.3 220 220 220
21.3 -5.2 13.3 220 220 220
22.0 -5.3 13.4 222 222 222
22.3 -5.3 13.4 222 222 222
22.5 -5.2 13.3 222 222 222
22.8 -5.2 13.3 222 222 222
24.6 -5.3 13.4 224 224 224
25.0 -5.2 13.3 224 224 224
25.4 -5.3 13.3 224 224 224
25.6 -5.2 13.3 224 224 224
25.8 -5.2 13.3 224 224 224
26.1 -5.2 13.2 224 224 224
15.9 -5.0 13.4 70 69 68
16.0 -4.9 13.3 73 73 73
16.3 -4.9 13.3 78 78 78
18.8 -4.9 13.3 214 216 216
19.1 -4.9 13.3 214 216 216
19.4 -4.9 13.3 218 218 218
19.8 -4.9 13.3 221 221 221
20.1 -4.9 13.3 218 218 218
20.4 -4.9 13.3 218 218 218
20.7 -4.9 13.3 220 220 220
21.0 -4.9 13.3 220 220 220
21.3 -4.9 13.3 221 221 221
21.6 -4.9 13.3 221 221 221
21.9 -4.9 13.3 221 221 221
22.3 -4.9 13.3 224 224 224
22.5 -4.9 13.3 224 224 224
22.8 -4.9 13.3 221 221 221
23.2 -4.9 13.3 221 221 221
23.5 -4.9 13.3 221 221 221
23.8 -4.9 13.3 221 221 221
24.6 -5.0 13.4 221 221 221
24.7 -4.9 13.3 221 221 221
25.0 -4.9 13.3 221 221 221
25.3 -4.9 13.3 221 221 221
25.7 -4.9 13.3 224 224 224
25.9 -4.9 13.3 221 221 221
26.2 -4.9 13.3 224 224 224
26.9 -4.9 13.3 224 224 224
15.9 -4.7 13.5 66 66 66
22.7 -4.7 13.6 221 221 221
22.8 -4.7 13.4 221 221 221
24.7 -4.7 13.6 221 221 221
25.0 -4.7 13.6 222 222 222
25.0 -4.7 13.5 222 222 222
25.1 -4.6 13.3 222 222 222
25.7 -4.7 13.5 222 222 222
25.9 -4.7 13.5 222 222 222
27.2 -4.7 13.5 222 222 222
9.4 -4.4 13.6 206 206 206
15.9 -4.4 13.5 63 63 63
16.2 -4.4 13.4 74 74 74
19.8 -4.4 13.6 215 218 217
20.1 -4.4 13.5 215 218 217
20.4 -4.4 13.5 215 218 217
20.7 -4.4 13.5 219 219 219
21.6 -4.4 13.5 222 222 222
22.0 -4.4 13.5 222 222 222
22.3 -4.4 13.6 222 222 222
22.6 -4.4 13.5 222 222 222
22.9 -4.4 13.5 222 222 222
23.2 -4.4 13.5 222 222 222
23.6 -4.4 13.6 222 222 222
23.9 -4.4 13.6 222 222 222
24.3 -4.4 13.6 222 222 222
24.6 -4.4 13.6 225 225 225
24.9 -4.4 13.6 222 222 222
25.1 -4.4 13.5 222 222 222
25.3 -4.4 13.5 222 222 222
25.7 -4.4 13.5 222 222 222
26.0 -4.4 13.5 222 222 222
26.3 -4.4 13.5 222 222 222
26.6 -4.4 13.5 222 222 222
27.0 -4.4 13.5 222 222 222
27.2 -4.4 13.5 222 222 222
9.5 -4.1 13.7 224 226 226
15.9 -4.1 13.7 46 47 45
16.0 -4.1 13.6 47 49 47
16.2 -4.1 13.5 67 67 67
19.8 -4.1 13.7 213 215 215
20.1 -4.1 13.8 216 219 218
20.4 -4.1 13.7 216 219 218
20.7 -4.1 13.7 216 219 218
21.0 -4.1 13.7 216 219 218
21.4 -4.1 13.7 216 219 218
21.5 -4.1 13.6 220 220 220
21.8 -4.1 13.6 220 220 220
22.4 -4.1 13.8 220 220 220
22.6 -4.1 13.7 224 224 224
22.8 -4.1 13.6 224 224 224
23.0 -4.1 13.6 224 224 224
23.6 -4.1 13.7 224 224 224
23.8 -4.1 13.7 224 224 224
24.1 -4.1 13.7 224 224 224
24.5 -4.1 13.7 224 224 224
24.8 -4.1 13.7 224 224 224
25.1 -4.1 13.7 224 224 224
25.3 -4.1 13.6 224 224 224
25.5 -4.1 13.6 224 224 224
25.9 -4.1 13.6 224 224 224
26.2 -4.1 13.6 224 224 224
26.4 -4.1 13.6 224 224 224
27.2 -4.1 13.6 224 224 224
27.3 -4.1 13.5 224 224 224
9.3 -3.9 13.9 209 209 209
9.6 -3.8 13.8 207 207 207
9.9 -3.8 13.8 124 126 125
10.2 -3.8 13.8 86 86 86
10.5 -3.8 13.7 206 206 206
15.9 -3.8 13.7 36 37 35
16.1 -3.8 13.6 36 37 35
20.2 -3.8 13.8 217 220 219
20.5 -3.8 13.8 217 220 219
20.8 -3.8 13.8 216 219 218
21.1 -3.8 13.8 216 219 218
21.4 -3.8 13.8 216 219 218
21.7 -3.8 13.8 221 221 221
22.1 -3.8 13.8 221 221 221
22.5 -3.8 13.9 221 221 221
22.8 -3.8 13.8 221 221 221
23.0 -3.8 13.8 221 221 221
23.3 -3.8 13.8 224 224 224
23.7 -3.8 13.8 224 224 224
24.0 -3.8 13.8 224 224 224
24.4 -3.8 13.8 224 224 224
24.8 -3.8 13.9 221 221 221
25.0 -3.8 13.8 221 221 221
25.2 -3.8 13.8 221 221 221
25.5 -3.8 13.7 224 224 224
25.8 -3.8 13.7 224 224 224
26.1 -3.8 13.7 224 224 224
26.3 -3.8 13.7 224 224 224
27.4 -3.8 13.7 224 224 224
27.5 -3.8 13.6 224 224 224
16.1 -3.5 13.6 37 38 37
20.6 -3.6 14.1 215 218 217
22.6 -3.6 14.1 221 221 221
22.8 -3.6 14.1 221 221 221
23.2 -3.6 14.1 221 221 221
23.5 -3.6 14.1 221 221 221
23.9 -3.6 14.1 225 225 225
24.2 -3.6 14.1 225 225 225
24.5 -3.6 14.1 225 225 225
24.8 -3.6 14.1 221 221 221
25.1 -3.6 14.1 221 221 221
25.4 -3.6 14.0 221 221 221
25.4 -3.5 13.9 221 221 221
26.0 -3.5 13.7 225 225 225
26.2 -3.5 13.6 225 225 225
507.8 -50.1 197.0 58 59 59
447.2 -43.8 172.0 59 59 59
22.9 -3.3 14.1 222 222 222
23.2 -3.3 14.1 222 222 222
23.5 -3.3 14.1 222 222 222
24.9 -3.3 14.1 222 222 222
25.2 -3.3 14.1 222 222 222
25.4 -3.2 14.1 222 222 222
25.5 -3.2 13.9 222 222 222
25.9 -3.2 14.0 222 222 222
26.4 -3.2 14.1 222 222 222
26.2 -3.2 13.7 222 222 222
627.4 -56.8 245.7 62 62 62
497.4 -44.6 193.0 61 61 61
439.2 -39.0 168.9 59 59 59
715.8 -54.0 233.5 55 54 53
590.1 -44.2 191.1 47 48 47
25.4 -2.9 13.8 222 222 222
26.1 -2.9 13.7 222 222 222
26.3 -2.8 13.6 222 222 222
748.0 -61.5 295.6 69 69 69
721.0 -58.7 282.3 62 62 62
513.1 -41.4 199.1 64 66 66
439.2 -35.1 168.9 67 69 68
724.8 -49.2 236.5 55 54 53
621.5 -41.8 201.2 47 48 47
20.3 -2.2 12.2 224 224 224
20.6 -2.2 12.2 224 224 224
20.9 -2.2 12.2 224 224 224
21.2 -2.3 12.2 224 224 224
21.5 -2.3 12.2 224 224 224
21.8 -2.2 12.2 219 222 221
21.9 -2.2 12.1 219 222 221
22.2 -2.2 12.1 224 224 224
22.5 -2.2 12.1 227 227 227
26.2 -2.5 13.8 227 227 227
960.6 -72.8 394.1 230 233 232
847.5 -61.3 331.9 61 61 61
518.6 -37.2 201.2 70 70 70
447.2 -31.8 172.0 75 76 76
635.0 -38.0 205.6 49 49 49
33.0 -3.4 21.2 217 220 219
960.6 -63.6 394.1 224 224 224
524.2 -32.8 203.4 75 76 76
635.0 -33.2 205.6 51 51 51
22.7 -2.0 14.6 218 221 220
23.1 -2.0 14.6 218 221 220
25.7 -2.1 15.0 220 223 222
25.7 -2.0 14.8 220 223 222
25.8 -2.0 14.7 220 223 222
26.1 -2.0 14.6 220 223 222
26.4 -2.0 14.6 220 223 222
27.0 -2.0 14.5 220 223 222
932.1 -53.3 386.0 211 211 211
930.0 -51.3 370.9 77 80 79
792.0 -42.9 310.1 64 66 66
507.8 -27.2 197.0 74 74 74
674.2 -30.4 220.0 56 55 54
23.1 -1.7 15.1 215 215 215
23.4 -1.7 15.0 218 218 218
24.3 -1.7 15.2 218 221 220
24.6 -1.7 15.1 222 224 224
25.0 -1.7 15.2 222 224 224
26.0 -1.8 15.3 222 224 224
26.0 -1.7 15.1 222 224 224
26.3 -1.7 15.1 222 224 224
26.6 -1.7 15.1 222 224 224
26.7 -1.7 15.0 222 224 224
27.2 -1.7 15.0 222 224 224
895.5 -42.6 370.9 208 208 208
765.0 -35.1 305.1 79 81 80
680.4 -30.6 266.4 65 67 66
507.8 -22.7 197.0 68 70 69
651.5 -24.4 212.5 55 54 53
23.2 -1.4 15.1 214 214 214
23.4 -1.4 15.1 216 216 216
24.7 -1.4 15.2 219 222 221
26.0 -1.4 15.5 223 225 225
26.3 -1.4 15.5 223 225 225
26.1 -1.4 15.2 222 224 224
26.3 -1.4 15.1 222 224 224
26.6 -1.4 15.1 226 226 226
26.9 -1.4 15.0 222 224 224
27.3 -1.4 15.1 222 224 224
27.5 -1.4 15.0 222 224 224
27.8 -1.4 15.0 226 226 226
790.5 -28.9 315.3 79 81 80
613.7 -22.2 242.5 71 71 71
690.1 -24.8 270.2 68 70 69
524.2 -18.7 203.4 75 76 76
690.3 -20.7 225.2 57 56 55
635.0 -18.9 205.6 44 46 46
25.0 -1.1 15.8 211 211 211
25.2 -1.1 15.8 217 217 217
25.6 -1.1 15.8 219 219 219
26.0 -1.1 15.8 219 219 219
26.3 -1.1 15.8 220 223 222
26.6 -1.1 15.7 223 225 225
26.9 -1.1 15.7 223 225 225
497.4 -13.2 193.0 75 76 76
427.7 -11.3 164.5 68 70 69
26.5 -0.7 15.9 220 223 222
27.0 -0.7 15.7 224 226 226
502.6 -8.8 195.0 68 70 69
628.2 -9.2 203.4 45 47 46
26.0 -0.3 15.6 221 221 221
26.3 -0.3 15.6 222 224 224
601.8 -5.1 233.5 54 54 54
83.1 3.6 21.8 108 108 108
63.4 3.1 16.8 97 100 99
100.4 4.9 26.3 91 91 91
507.8 41.5 197.0 192 192 192
707.1 48.5 230.7 48 48 48
695.5 47.4 225.2 170 172 172
63.8 3.5 16.9 112 114 113
101.8 5.6 26.7 87 86 84
102.7 5.6 26.8 175 177 177
493.3 54.6 233.5 202 202 202
698.2 72.5 310.1 200 200 200
913.4 88.4 378.3 196 196 196
678.1 65.0 278.2 199 199 199
741.1 69.1 295.6 186 188 187
674.2 62.3 266.4 191 191 191
743.2 68.0 291.0 194 194 194
518.6 47.0 201.2 195 195 195
455.4 40.9 175.2 198 198 198
733.9 56.0 239.4 42 44 42
730.3 55.3 236.5 180 180 180
695.9 49.7 212.5 43 43 43
943.2 65.0 278.2 73 72 70
717.5 49.1 210.2 73 72 70
64.1 4.0 16.9 112 114 113
499.4 60.8 236.5 203 203 203
655.3 74.8 291.0 202 202 202
878.3 93.5 363.8 197 197 197
598.8 63.1 245.7 195 195 195
693.8 70.4 274.1 192 192 192
710.4 71.5 278.2 194 194 194
529.9 52.8 205.6 195 195 195
743.4 62.3 242.5 46 47 45
749.0 62.3 242.5 186 186 186
794.1 62.3 242.5 38 38 38
766.1 59.3 230.7 196 196 196
1002.1 75.9 295.6 74 73 71
833.5 62.3 242.5 75 75 75
711.5 52.8 205.6 79 79 79
896.4 65.7 255.6 98 100 100
878.6 64.0 248.9 49 50 48
840.2 60.8 236.5 90 90 90
63.2 4.3 16.6 175 177 177
64.9 4.8 17.1 129 132 131
63.1 4.6 16.6 133 133 133
185.4 32.7 70.1 91 91 91
39.5 49.8 85.6 141 143 142
-28.2 6.2 10.3 42 42 42
41.8 54.8 90.5 135 135 135
41.2 51.4 84.8 148 148 148
42.6 61.0 97.0 203 203 203
78.0 99.0 146.6 199 199 199
78.9 96.1 142.2 175 177 177
-10.3 75.1 107.5 124 124 124
-7.6 73.0 104.5 124 123 122
-5.2 73.4 105.1 141 141 141
-2.8 74.2 106.3 163 166 165
-0.3 75.1 107.5 179 182 181
2.2 74.7 106.9 188 188 188
48.0 72.6 103.9 207 210 209
51.0 73.4 105.1 205 208 207
50.9 69.9 100.1 204 204 204
59.3 74.7 106.9 168 168 168
57.0 68.8 98.5 144 144 144
59.2 68.8 98.5 127 127 127
-99.9 75.4 104.5 214 214 214
-97.5 75.4 104.5 209 209 209
-95.6 75.9 105.1 202 202 202
-93.1 75.9 105.1 195 195 195
-90.7 75.9 105.1 189 191 191
-88.2 75.9 105.1 184 184 184
-85.8 75.9 105.1 184 184 184
-39.4 75.9 105.1 171 173 173
-36.9 75.9 105.1 171 173 173
-34.5 75.9 105.1 174 176 176
-32.1 75.9 105.1 184 184 184
-29.6 75.9 105.1 190 192 192
-27.2 75.9 105.1 209 209 209
-25.3 77.6 107.5 219 219 219
-22.8 77.6 107.5 215 215 215
-20.3 77.6 107.5 93 93 93
-17.7 77.1 106.9 84 84 84
-14.9 75.4 104.5 92 92 92
-10.1 75.9 105.1 105 105 105
-7.4 73.8 102.3 115 115 115
-5.1 75.0 103.9 128 130 129
-2.8 76.3 105.7 139 139 139
-0.3 76.3 105.7 162 165 164
2.1 76.3 105.7 172 172 172
4.7 77.6 107.5 178 178 178
47.7 78.5 108.7 205 208 207
47.0 73.4 101.7 206 209 208
50.4 75.0 103.9 204 207 206
50.4 71.5 99.0 198 198 198
52.4 71.1 98.5 188 188 188
56.7 73.8 102.3 158 158 158
57.3 71.5 99.0 152 152 152
59.9 71.9 99.6 188 188 188
62.8 72.6 100.6 149 151 151
50.4 73.8 99.0 195 195 195
