ply
format ascii 1.0
element vertex 2494
property float x
property float y
property float z
property uchar red
property uchar green
property uchar blue
end_header
102.7 -412.7 164.5 161 161 161
106.6 -412.7 164.5 158 158 158
111.4 -416.3 165.9 158 158 158
115.2 -416.3 165.9 161 161 161
119.1 -416.3 165.9 164 164 164
122.9 -416.3 165.9 164 164 164
126.8 -416.3 165.9 165 165 165
130.6 -416.3 165.9 165 165 165
134.5 -416.3 165.9 165 165 165
138.4 -416.3 165.9 165 165 165
142.2 -416.3 165.9 165 165 165
146.1 -416.3 165.9 165 165 165
149.9 -416.3 165.9 165 165 165
153.8 -416.3 165.9 165 165 165
157.6 -416.3 165.9 165 165 165
161.5 -416.3 165.9 165 165 165
163.9 -412.7 164.5 165 165 165
166.3 -409.2 163.1 168 168 168
170.1 -409.2 163.1 162 162 162
176.9 -416.3 165.9 162 162 162
180.8 -416.3 165.9 163 163 163
183.0 -412.7 164.5 163 163 163
186.9 -412.7 164.5 163 163 163
189.0 -409.2 163.1 166 166 166
196.2 -416.3 165.9 163 163 163
200.1 -416.3 165.9 161 161 161
202.1 -412.7 164.5 161 161 161
206.0 -412.7 164.5 161 161 161
204.5 -402.2 160.3 161 161 161
213.6 -412.7 164.5 161 161 161
101.4 -163.7 65.2 154 156 156
104.0 -165.4 65.9 155 158 157
105.1 -164.8 65.7 155 158 157
141.5 -370.3 148.9 165 165 165
145.0 -370.3 148.9 165 165 165
148.4 -370.3 148.9 165 165 165
157.6 -367.4 147.8 162 162 162
161.0 -367.4 147.8 163 163 163
164.4 -367.4 147.8 163 163 163
167.9 -367.4 147.8 163 163 163
170.0 -364.5 146.6 163 163 163
178.9 -376.2 151.3 163 163 163
178.2 -367.4 147.8 163 163 163
181.6 -367.4 147.8 163 163 163
179.4 -356.2 143.3 163 163 163
86.5 -140.4 56.5 157 160 159
116.6 -183.7 73.9 158 161 160
119.7 -185.9 74.8 158 161 160
36.3 -184.1 74.8 162 162 162
38.0 -184.1 74.8 162 162 162
39.8 -184.1 74.8 162 162 162
41.5 -184.1 74.8 158 158 158
43.2 -184.1 74.8 161 161 161
45.0 -184.1 74.8 164 164 164
46.7 -184.1 74.8 164 164 164
48.4 -184.1 74.8 164 164 164
49.8 -182.7 74.2 167 167 167
51.3 -182.0 73.9 167 167 167
53.9 -184.8 75.1 167 167 167
55.2 -183.4 74.5 167 167 167
56.9 -183.4 74.5 168 168 168
58.6 -183.4 74.5 168 168 168
60.6 -184.1 74.8 168 168 168
62.3 -184.1 74.8 169 171 170
63.8 -183.4 74.5 165 165 165
65.8 -184.1 74.8 165 165 165
67.6 -184.1 74.8 165 165 165
69.3 -184.1 74.8 165 165 165
71.0 -184.1 74.8 165 165 165
73.1 -184.8 75.1 165 165 165
75.1 -185.6 75.4 162 162 162
75.6 -182.7 74.2 162 162 162
77.4 -182.7 74.2 162 162 162
78.8 -182.0 73.9 162 162 162
80.8 -182.7 74.2 163 163 163
83.2 -184.1 74.8 163 163 163
85.3 -184.8 75.1 163 163 163
87.0 -184.8 75.1 163 163 163
88.4 -184.1 74.8 163 163 163
89.8 -183.4 74.5 163 163 163
91.9 -184.1 74.8 163 163 163
92.9 -182.7 74.2 163 163 163
94.2 -182.0 73.9 163 163 163
97.1 -184.1 74.8 163 163 163
99.2 -184.8 75.1 163 163 163
99.8 -182.7 74.2 163 163 163
116.5 -206.1 83.7 161 161 161
110.6 -192.5 78.2 162 162 162
105.9 -181.3 73.6 162 162 162
114.2 -192.5 78.2 162 162 162
116.0 -192.5 78.2 164 164 164
109.7 -179.2 72.8 162 162 162
114.9 -182.0 73.9 162 162 162
117.5 -183.4 74.5 163 163 163
120.6 -185.6 75.4 163 163 163
118.6 -179.9 73.0 164 164 164
65.7 -44.4 18.0 160 160 160
66.1 -44.1 17.9 197 200 199
33.3 -159.7 65.5 162 162 162
34.8 -159.7 65.5 162 162 162
36.3 -159.7 65.5 162 162 162
37.8 -159.7 65.5 164 164 164
39.4 -159.7 65.5 164 164 164
40.9 -159.7 65.5 167 167 167
42.4 -159.7 65.5 167 167 167
43.9 -159.7 65.5 167 167 167
45.3 -159.1 65.2 167 167 167
46.8 -159.1 65.2 167 167 167
48.7 -160.2 65.7 167 167 167
50.0 -159.7 65.5 168 168 168
51.4 -159.1 65.2 168 168 168
52.9 -159.1 65.2 168 168 168
54.6 -159.7 65.5 168 168 168
56.3 -160.2 65.7 165 165 165
57.6 -159.7 65.5 165 165 165
59.3 -160.2 65.7 165 165 165
60.9 -160.2 65.7 165 165 165
62.4 -160.2 65.7 165 165 165
63.7 -159.7 65.5 165 165 165
66.4 -162.5 66.6 165 165 165
67.4 -161.3 66.1 162 162 162
68.3 -159.7 65.5 162 162 162
69.3 -158.6 65.0 162 162 162
71.1 -159.1 65.2 163 163 163
72.8 -159.7 65.5 163 163 163
74.6 -160.2 65.7 163 163 163
76.1 -160.2 65.7 163 163 163
77.7 -160.2 65.7 163 163 163
79.2 -160.2 65.7 163 163 163
80.7 -160.2 65.7 163 163 163
82.2 -160.2 65.7 163 163 163
83.5 -159.7 65.5 163 163 163
83.8 -157.5 64.6 163 163 163
88.7 -163.6 67.1 163 163 163
89.6 -162.5 66.6 163 163 163
88.6 -158.0 64.8 163 163 163
107.4 -188.3 77.2 164 164 164
95.9 -165.4 67.8 164 164 164
93.8 -159.1 65.2 164 164 164
98.0 -158.6 65.0 164 164 164
95.6 -152.3 62.4 164 164 164
112.2 -176.1 72.2 164 164 164
111.8 -172.8 70.8 165 165 165
116.9 -178.2 73.0 165 165 165
110.9 -166.6 68.3 166 166 166
103.9 -153.8 63.1 164 164 164
62.7 -41.9 17.2 155 155 155
63.7 -42.4 17.4 197 200 199
64.0 -42.3 17.3 197 197 197
64.0 -42.0 17.2 197 200 199
64.1 -41.8 17.1 209 209 209
64.5 -41.8 17.1 209 209 209
64.8 -41.8 17.1 204 204 204
64.4 -41.2 16.9 197 200 199
39.1 -120.0 49.6 168 168 168
41.2 -119.3 49.4 168 168 168
42.3 -119.3 49.4 165 165 165
43.4 -119.0 49.3 165 165 165
44.5 -119.0 49.3 165 165 165
45.7 -119.0 49.3 165 165 165
46.9 -119.3 49.4 165 165 165
48.1 -119.3 49.4 165 165 165
54.1 -125.2 51.8 165 165 165
52.7 -119.3 49.4 166 166 166
55.1 -119.6 49.5 166 166 166
56.3 -119.6 49.5 166 166 166
57.6 -120.0 49.6 166 166 166
58.7 -120.0 49.6 166 166 166
59.9 -120.0 49.6 166 166 166
60.7 -119.3 49.4 166 166 166
61.4 -118.4 49.0 163 163 163
64.2 -121.5 50.3 163 163 163
64.3 -119.6 49.5 166 166 166
63.1 -115.4 47.8 166 166 166
76.1 -134.4 55.6 166 166 166
69.3 -120.3 49.8 167 167 167
89.1 -140.6 58.2 167 167 167
55.2 -85.7 35.5 167 167 167
54.7 -83.7 34.6 168 168 168
121.1 -182.8 75.7 165 165 165
118.6 -176.5 73.0 166 166 166
61.0 -39.7 16.4 191 191 191
61.9 -39.7 16.4 207 207 207
62.1 -39.6 16.4 183 186 185
57.6 -36.6 15.1 212 213 212
61.4 -38.7 16.0 212 213 212
17.2 -84.8 35.4 162 162 162
19.0 -85.6 35.8 168 168 168
19.8 -85.2 35.6 167 167 167
20.6 -85.2 35.6 167 167 167
21.4 -85.2 35.6 168 170 169
22.3 -85.2 35.6 168 170 169
23.1 -85.2 35.6 168 170 169
23.9 -85.2 35.6 168 170 169
24.7 -85.2 35.6 167 167 167
25.6 -85.2 35.6 167 167 167
26.4 -85.2 35.6 167 167 167
27.2 -85.2 35.6 168 168 168
28.0 -85.1 35.6 168 168 168
29.0 -85.7 35.8 168 168 168
29.8 -85.4 35.7 168 168 168
30.5 -85.2 35.6 165 165 165
31.4 -85.4 35.7 165 165 165
32.2 -85.4 35.7 165 165 165
33.0 -85.2 35.6 165 165 165
33.8 -85.2 35.6 165 165 165
34.6 -85.1 35.6 168 168 168
35.6 -85.4 35.7 168 168 168
36.4 -85.4 35.7 165 165 165
37.2 -85.4 35.7 165 165 165
38.2 -85.7 35.8 166 166 166
39.2 -86.1 36.0 166 166 166
39.7 -85.4 35.7 166 166 166
40.4 -85.1 35.6 166 166 166
41.3 -85.2 35.6 169 169 169
42.2 -85.4 35.7 169 169 169
43.0 -85.4 35.7 169 169 169
43.9 -85.6 35.8 169 169 169
44.9 -85.7 35.8 166 166 166
45.7 -85.7 35.8 169 169 169
60.2 -110.9 46.4 169 169 169
60.4 -109.3 45.7 169 169 169
48.4 -86.1 36.0 169 169 169
72.7 -127.1 53.1 169 169 169
66.5 -114.3 47.8 170 171 170
53.1 -83.1 34.7 170 171 170
55.1 -84.8 35.4 170 171 170
54.6 -82.7 34.6 172 172 172
56.3 -84.1 35.2 172 172 172
121.0 -178.2 74.5 168 168 168
78.7 -55.5 23.2 99 101 101
55.0 -35.0 14.6 207 207 207
55.9 -35.1 14.7 218 218 218
55.3 -34.5 14.4 218 218 218
16.4 -80.2 33.8 165 165 165
17.1 -79.5 33.5 165 165 165
18.6 -79.5 33.5 167 167 167
19.4 -79.5 33.5 168 170 169
20.2 -79.5 33.5 168 170 169
20.9 -79.5 33.5 168 170 169
21.7 -79.5 33.5 168 170 169
22.5 -79.5 33.5 167 167 167
23.3 -79.5 33.5 167 167 167
24.1 -79.5 33.5 167 167 167
24.8 -79.5 33.5 164 164 164
25.6 -79.5 33.5 168 168 168
26.3 -79.2 33.4 168 168 168
27.0 -79.1 33.4 168 168 168
28.0 -79.6 33.6 165 165 165
28.7 -79.5 33.5 168 168 168
29.5 -79.3 33.5 168 168 168
30.4 -79.8 33.7 168 168 168
31.1 -79.6 33.6 168 168 168
31.9 -79.5 33.5 168 168 168
32.6 -79.3 33.5 170 172 172
34.3 -79.8 33.7 170 172 172
35.0 -79.5 33.5 168 168 168
35.8 -79.5 33.5 170 172 172
36.7 -79.8 33.7 170 172 172
37.3 -79.5 33.5 169 169 169
37.5 -78.2 33.0 170 172 172
38.8 -79.3 33.5 169 169 169
41.4 -79.8 33.7 171 173 173
42.2 -79.9 33.7 171 173 173
43.0 -79.9 33.7 171 173 173
43.7 -79.8 33.7 171 173 173
44.4 -79.6 33.6 171 173 173
46.8 -82.4 34.8 171 173 173
60.3 -101.0 42.6 175 177 177
51.2 -79.2 33.4 175 177 177
52.3 -79.8 33.7 172 174 174
52.9 -79.5 33.5 173 175 175
53.1 -78.6 33.2 173 175 175
74.1 -51.5 21.7 96 99 98
45.3 -29.3 12.4 183 186 185
45.4 -29.1 12.3 201 203 203
46.0 -29.3 12.4 197 200 199
45.6 -28.9 12.2 189 189 189
15.1 -76.9 32.8 168 168 168
15.9 -76.7 32.7 168 168 168
16.6 -76.4 32.6 168 168 168
17.4 -76.8 32.7 169 171 170
18.2 -76.8 32.7 169 171 170
19.0 -76.9 32.8 168 170 169
19.6 -76.5 32.6 168 170 169
20.5 -76.9 32.8 168 170 169
21.1 -76.5 32.6 168 170 169
21.9 -76.5 32.6 168 170 169
22.6 -76.5 32.6 167 167 167
23.5 -76.9 32.8 167 167 167
24.3 -76.9 32.8 169 171 170
25.0 -76.9 32.8 169 171 170
25.6 -76.4 32.6 169 171 170
26.3 -76.3 32.5 169 171 170
27.4 -77.1 32.8 169 171 170
28.1 -76.9 32.8 169 171 170
28.8 -76.7 32.7 169 171 170
29.7 -77.1 32.8 169 171 170
30.5 -77.2 32.9 169 171 170
31.1 -76.9 32.8 169 171 170
32.0 -77.1 32.8 170 172 172
32.7 -76.9 32.8 173 175 175
33.5 -77.1 32.8 173 175 175
34.3 -77.1 32.8 170 172 172
34.9 -76.8 32.7 173 175 175
35.8 -77.1 32.8 173 175 175
36.4 -76.7 32.7 173 175 175
36.5 -75.4 32.1 173 175 175
39.6 -77.1 32.8 174 176 176
40.4 -77.1 32.8 179 179 179
41.0 -76.8 32.7 174 176 176
41.7 -76.8 32.7 174 176 176
42.6 -77.1 32.8 181 181 181
43.2 -76.7 32.7 171 173 173
44.5 -77.6 33.1 179 179 179
44.9 -77.1 32.8 174 176 176
45.7 -77.1 32.8 181 181 181
46.4 -76.9 32.8 181 181 181
47.2 -77.1 32.8 175 177 177
47.7 -76.5 32.6 172 174 174
48.5 -76.7 32.7 180 180 180
49.3 -76.7 32.7 180 180 180
50.0 -76.7 32.7 175 177 177
50.8 -76.7 32.7 175 177 177
51.5 -76.7 32.7 173 175 175
52.5 -76.9 32.8 181 181 181
53.4 -77.2 32.9 173 175 175
72.9 -50.1 21.4 96 99 98
69.9 -47.7 20.3 96 96 96
45.0 -28.8 12.3 163 163 163
45.0 -28.6 12.2 197 200 199
45.5 -28.7 12.2 197 200 199
45.2 -28.4 12.1 206 206 206
19.1 -73.7 31.7 168 170 169
20.5 -73.6 31.7 168 170 169
21.3 -73.7 31.7 168 170 169
22.0 -73.7 31.7 171 173 173
27.2 -73.7 31.7 169 171 170
39.7 -73.6 31.7 192 192 192
40.3 -73.4 31.6 197 197 197
40.7 -72.9 31.4 197 197 197
41.7 -73.2 31.5 200 200 200
42.7 -73.7 31.7 197 197 197
43.1 -73.1 31.5 197 197 197
44.3 -74.0 31.8 197 197 197
45.0 -73.9 31.8 194 194 194
45.0 -72.6 31.3 194 194 194
45.5 -72.3 31.1 197 197 197
46.6 -72.9 31.4 200 200 200
48.8 -74.0 31.8 200 200 200
49.5 -74.0 31.8 200 200 200
49.7 -73.1 31.5 202 202 202
51.4 -74.6 32.1 195 195 195
53.0 -75.8 32.6 198 198 198
28.7 -39.4 17.0 203 203 203
67.8 -46.7 20.1 99 101 101
71.3 -48.5 20.9 96 99 98
69.5 -47.0 20.2 96 99 98
17.8 -68.1 29.6 189 189 189
18.4 -67.7 29.4 198 198 198
19.1 -68.0 29.6 196 196 196
20.6 -68.1 29.6 194 194 194
21.2 -68.1 29.6 196 196 196
21.8 -67.8 29.5 198 198 198
22.5 -67.7 29.4 202 202 202
23.2 -67.7 29.4 205 205 205
23.8 -67.6 29.4 202 202 202
24.5 -67.7 29.4 202 202 202
25.4 -68.2 29.6 202 202 202
25.9 -67.8 29.5 202 202 202
26.6 -67.7 29.4 202 202 202
27.1 -67.3 29.3 205 205 205
28.1 -68.0 29.6 202 202 202
28.6 -67.7 29.4 205 205 205
29.5 -68.1 29.6 205 205 205
30.1 -68.0 29.6 202 202 202
31.5 -67.9 29.5 205 205 205
32.2 -67.9 29.5 204 204 204
32.8 -67.8 29.5 204 204 204
33.5 -67.9 29.5 204 204 204
33.8 -67.1 29.2 200 200 200
34.7 -67.4 29.3 200 200 200
37.1 -68.1 29.6 204 204 204
37.6 -67.9 29.5 200 200 200
38.3 -67.8 29.5 204 204 204
39.1 -68.1 29.6 204 204 204
39.9 -68.3 29.7 204 204 204
40.7 -68.4 29.7 204 204 204
41.2 -68.1 29.6 204 204 204
41.8 -68.0 29.6 204 204 204
42.6 -68.1 29.6 200 200 200
43.1 -67.8 29.5 200 200 200
43.6 -67.6 29.4 204 204 204
44.0 -67.1 29.2 204 204 204
48.5 -71.8 31.2 204 204 204
47.9 -69.8 30.4 205 205 205
28.6 -38.8 16.9 203 203 203
28.4 -38.1 16.5 204 204 204
27.9 -36.8 16.0 204 204 204
63.9 -43.4 18.9 99 101 101
67.3 -45.0 19.6 99 101 101
64.9 -43.2 18.8 99 101 101
26.1 -64.1 28.1 205 205 205
26.7 -64.1 28.1 205 205 205
32.8 -65.6 28.8 204 204 204
32.8 -64.4 28.3 204 204 204
33.0 -63.6 27.9 204 204 204
36.1 -64.4 28.3 204 204 204
36.6 -64.2 28.2 204 204 204
39.4 -66.7 29.3 204 204 204
40.1 -66.7 29.3 204 204 204
40.2 -65.7 28.9 204 204 204
41.0 -65.9 29.0 204 204 204
42.0 -66.6 29.2 204 204 204
41.4 -64.6 28.4 204 204 204
41.9 -64.3 28.2 204 204 204
42.4 -64.0 28.1 204 204 204
42.7 -63.5 27.9 204 204 204
47.5 -68.6 30.1 205 205 205
47.3 -67.3 29.6 205 205 205
54.8 -76.8 33.7 205 205 205
28.2 -37.4 16.4 207 207 207
27.9 -36.5 16.0 207 207 207
63.4 -42.9 18.8 106 106 106
62.4 -41.9 18.4 106 106 106
61.9 -41.3 18.1 105 104 102
63.8 -42.0 18.4 99 101 101
23.2 -64.6 28.7 205 205 205
23.7 -64.0 28.4 205 205 205
25.9 -64.7 28.7 205 205 205
26.3 -63.9 28.4 207 207 207
26.9 -63.7 28.3 207 207 207
30.6 -64.7 28.7 207 207 207
32.7 -64.9 28.8 204 204 204
33.2 -64.5 28.6 204 204 204
33.3 -63.4 28.1 204 204 204
35.4 -65.0 28.8 204 204 204
35.9 -64.7 28.7 204 204 204
36.3 -64.2 28.5 204 204 204
36.9 -64.0 28.4 207 207 207
37.8 -64.4 28.6 204 204 204
38.9 -65.2 28.9 206 206 206
39.6 -65.3 29.0 206 206 206
40.1 -64.9 28.8 204 204 204
40.8 -65.0 28.8 204 204 204
41.5 -65.1 28.9 204 204 204
41.7 -64.3 28.5 204 204 204
41.9 -63.6 28.2 204 204 204
42.4 -63.3 28.1 204 204 204
42.4 -62.4 27.7 204 204 204
46.7 -66.7 29.6 207 207 207
47.0 -66.2 29.4 205 205 205
55.7 -77.2 34.3 205 205 205
110.1 -148.5 65.9 206 206 206
28.0 -36.8 16.3 207 207 207
28.0 -36.2 16.1 207 207 207
24.5 -25.8 11.5 158 158 158
64.2 -43.0 19.1 109 109 109
62.1 -41.3 18.3 106 106 106
32.8 -64.3 28.8 206 206 206
33.3 -64.1 28.7 206 206 206
39.0 -64.6 29.0 206 206 206
39.6 -64.6 29.0 206 206 206
40.0 -64.1 28.7 206 206 206
40.8 -64.3 28.8 206 206 206
41.6 -64.5 28.9 206 206 206
41.8 -63.7 28.6 206 206 206
40.1 -60.2 27.0 206 206 206
40.5 -59.9 26.9 206 206 206
41.0 -59.7 26.8 206 206 206
54.4 -75.7 34.0 206 206 206
55.5 -76.1 34.1 207 207 207
56.7 -76.7 34.4 207 207 207
58.1 -77.5 34.8 207 207 207
28.1 -36.5 16.4 206 206 206
28.0 -35.9 16.1 206 206 206
27.8 -35.1 15.8 207 207 207
24.5 -25.6 11.5 160 160 160
30.3 -56.6 25.7 206 206 206
30.3 -55.5 25.2 206 206 206
32.1 -55.5 25.2 206 206 206
33.3 -56.6 25.7 206 206 206
34.0 -56.7 25.7 206 206 206
34.1 -55.9 25.3 205 205 205
36.7 -58.1 26.3 205 205 205
36.5 -56.9 25.8 205 205 205
38.8 -57.7 26.2 205 205 205
39.1 -57.2 25.9 205 205 205
39.9 -57.6 26.1 205 205 205
39.9 -56.6 25.7 205 205 205
56.0 -77.2 35.0 206 206 206
56.7 -77.0 34.9 206 206 206
57.5 -77.0 34.9 206 206 206
59.6 -78.8 35.7 207 207 207
28.3 -36.4 16.5 205 205 205
28.0 -35.6 16.1 206 206 206
24.9 -25.8 11.7 163 163 163
30.9 -57.0 26.1 205 205 205
34.3 -56.7 25.9 205 205 205
37.0 -57.1 26.1 205 205 205
40.2 -60.0 27.5 205 205 205
40.3 -57.5 26.3 205 205 205
40.1 -56.4 25.8 205 205 205
58.3 -78.4 35.9 206 206 206
59.1 -78.4 35.9 206 206 206
61.4 -80.2 36.7 206 206 206
64.3 -82.9 38.0 206 206 206
28.0 -35.2 16.1 207 207 207
26.5 -32.4 14.8 206 206 206
21.1 -59.6 27.6 208 208 208
21.6 -59.4 27.5 208 208 208
38.3 -60.5 28.0 207 207 207
38.4 -59.7 27.6 207 207 207
39.0 -59.6 27.6 207 207 207
40.2 -60.4 27.9 204 204 204
40.4 -59.7 27.6 204 204 204
40.7 -59.2 27.4 204 204 204
41.2 -59.1 27.3 204 204 204
41.5 -58.5 27.1 204 204 204
45.5 -61.4 28.4 205 205 205
58.1 -77.3 35.8 205 205 205
58.7 -77.0 35.6 205 205 205
60.7 -78.4 36.3 206 206 206
64.3 -82.1 38.0 206 206 206
28.0 -34.8 16.1 206 206 206
27.0 -32.6 15.1 205 205 205
24.7 -26.7 12.4 208 208 208
-9.7 -23.5 11.0 137 139 138
-9.5 -23.6 11.0 140 139 138
-7.7 -23.4 11.0 143 143 142
17.9 -59.0 27.6 208 208 208
18.6 -59.1 27.7 208 208 208
21.2 -59.2 27.7 207 207 207
21.7 -59.0 27.6 207 207 207
38.3 -59.9 28.0 207 207 207
39.2 -59.3 27.7 207 207 207
40.3 -59.9 28.0 207 207 207
40.4 -59.1 27.7 207 207 207
40.8 -58.8 27.5 210 210 210
41.3 -58.6 27.4 206 206 206
41.7 -58.3 27.3 209 209 209
40.7 -55.2 25.8 204 204 204
45.3 -60.5 28.3 204 204 204
56.7 -74.6 34.9 205 205 205
57.7 -74.9 35.0 205 205 205
27.9 -34.3 16.0 206 206 206
26.0 -30.7 14.4 207 207 207
24.6 -26.3 12.3 207 207 207
24.6 -26.0 12.2 205 205 205
-37.2 -28.1 13.3 49 49 49
-36.8 -28.1 13.3 47 46 45
-35.6 -28.1 13.3 49 49 49
-32.8 -28.1 13.3 43 43 43
-32.5 -28.1 13.3 43 43 43
-32.2 -28.1 13.3 43 43 43
-31.8 -28.1 13.3 43 43 43
-23.7 -28.3 13.4 103 103 103
-23.2 -28.1 13.3 104 104 104
-10.4 -23.5 11.1 131 134 133
-10.0 -23.2 11.0 135 135 135
-9.8 -23.4 11.1 136 136 136
-9.6 -23.4 11.1 134 137 136
-9.3 -23.5 11.1 139 138 137
-8.0 -23.4 11.1 145 145 144
-7.7 -23.3 11.0 145 147 147
11.3 -36.9 17.4 207 207 207
41.2 -57.8 27.3 206 206 206
41.5 -57.3 27.1 206 206 206
41.5 -56.4 26.7 206 206 206
41.3 -55.3 26.2 206 206 206
26.5 -31.3 14.8 206 206 206
26.1 -30.5 14.4 206 206 206
24.4 -25.5 12.1 207 207 207
-37.5 -27.8 13.3 49 49 49
-37.2 -27.9 13.3 49 49 49
-36.9 -27.8 13.3 49 49 49
-36.6 -27.8 13.3 49 49 49
-36.3 -27.9 13.3 49 49 49
-36.0 -27.9 13.3 52 52 52
-35.6 -27.8 13.3 49 49 49
-35.3 -27.8 13.3 49 49 49
-33.5 -27.9 13.3 52 52 52
-33.2 -27.9 13.3 49 49 49
-32.8 -27.8 13.3 44 44 44
-32.5 -27.8 13.3 44 44 44
-32.2 -27.8 13.3 48 47 46
-31.8 -27.8 13.3 44 44 44
-31.6 -27.8 13.3 42 43 42
-31.3 -27.9 13.3 40 40 40
-31.0 -27.9 13.3 42 43 42
-30.7 -27.9 13.3 42 43 42
-28.0 -27.9 13.4 40 40 40
-27.6 -27.9 13.3 40 40 40
-20.7 -21.3 10.2 41 41 41
-24.0 -28.0 13.4 94 94 94
-23.7 -28.0 13.4 98 98 98
-23.2 -27.8 13.3 98 100 100
-9.9 -23.3 11.2 128 128 128
-9.6 -23.3 11.1 128 130 129
41.4 -57.4 27.5 205 205 205
41.9 -57.1 27.3 205 205 205
41.8 -56.2 26.9 206 206 206
41.6 -55.1 26.3 206 206 206
26.7 -31.2 14.9 205 205 205
26.4 -30.4 14.6 205 205 205
24.5 -25.4 12.1 206 206 206
-37.8 -27.8 13.4 50 50 50
-28.2 -27.8 13.5 41 41 41
-27.9 -27.8 13.4 41 41 41
-21.3 -21.5 10.4 42 42 42
-24.0 -28.0 13.5 95 95 95
-23.4 -27.7 13.4 95 95 95
-23.2 -27.8 13.5 96 96 96
-10.3 -27.8 13.4 161 161 161
-10.0 -27.7 13.4 167 167 167
10.4 -31.1 15.0 206 206 206
10.7 -31.0 15.0 209 209 209
11.1 -31.0 15.0 209 209 209
11.4 -30.9 15.0 209 209 209
11.8 -30.9 14.9 209 209 209
12.1 -30.9 15.0 209 209 209
12.5 -30.9 14.9 209 209 209
12.8 -30.9 14.9 206 206 206
13.2 -30.9 15.0 206 206 206
13.5 -31.0 15.0 206 206 206
13.9 -30.9 15.0 206 206 206
14.2 -30.9 15.0 206 206 206
14.6 -30.9 15.0 206 206 206
16.3 -31.0 15.0 206 206 206
16.7 -30.9 15.0 205 205 205
17.0 -30.9 14.9 208 208 208
41.8 -57.3 27.7 205 205 205
42.2 -56.9 27.5 205 205 205
42.8 -56.9 27.5 205 205 205
26.8 -31.0 15.0 205 205 205
26.9 -30.7 14.8 205 205 205
25.1 -27.2 13.2 206 206 206
24.7 -25.6 12.4 205 205 205
24.5 -25.1 12.2 205 205 205
-12.5 -30.5 14.9 27 28 26
-12.3 -30.7 15.0 27 28 26
-11.9 -30.7 15.0 92 95 94
-11.6 -30.7 15.0 186 186 186
6.9 -30.6 15.0 204 204 204
7.3 -30.6 15.0 203 203 203
9.3 -30.6 15.0 208 208 208
9.6 -30.4 14.9 208 208 208
10.4 -30.8 15.0 208 208 208
10.8 -30.7 15.0 208 208 208
11.1 -30.5 14.9 208 208 208
11.4 -30.5 14.9 208 208 208
11.7 -30.4 14.9 208 208 208
12.1 -30.5 14.9 208 208 208
12.4 -30.4 14.9 208 208 208
12.8 -30.4 14.9 208 208 208
13.1 -30.5 14.9 208 208 208
13.5 -30.5 14.9 205 205 205
13.8 -30.5 14.9 205 205 205
14.2 -30.5 14.9 205 205 205
14.5 -30.5 14.9 205 205 205
15.5 -30.4 14.9 205 205 205
15.9 -30.5 14.9 208 208 208
16.3 -30.5 14.9 205 205 205
16.6 -30.5 14.9 208 208 208
16.9 -30.4 14.9 208 208 208
18.5 -30.7 15.0 205 205 205
18.7 -30.5 14.9 205 205 205
19.2 -30.7 15.0 205 205 205
19.4 -30.5 14.9 205 205 205
41.5 -55.4 27.1 204 204 204
41.1 -52.5 25.7 205 205 205
28.2 -31.8 15.6 204 204 204
25.2 -27.4 13.4 205 205 205
25.2 -27.0 13.2 205 205 205
25.6 -27.2 13.3 205 205 205
26.1 -27.3 13.4 206 206 206
26.2 -27.2 13.3 204 204 204
24.7 -25.0 12.2 204 204 204
-16.1 -31.0 15.4 19 23 20
-15.7 -31.0 15.3 19 23 20
-15.4 -31.1 15.4 29 31 29
-13.0 -31.2 15.5 30 30 30
-12.6 -31.2 15.4 33 36 35
-12.2 -31.1 15.4 117 119 118
5.7 -31.3 15.5 179 179 179
6.1 -31.3 15.5 179 179 179
6.4 -31.3 15.5 179 179 179
6.8 -31.3 15.5 172 172 172
7.1 -31.3 15.5 203 203 203
7.5 -31.2 15.5 205 205 205
7.8 -31.2 15.4 208 208 208
8.2 -31.2 15.4 208 208 208
8.6 -31.3 15.5 208 208 208
8.9 -31.3 15.5 208 208 208
9.3 -31.3 15.5 208 208 208
9.6 -31.1 15.4 208 208 208
10.0 -31.2 15.4 208 208 208
10.4 -31.4 15.5 208 208 208
10.7 -31.3 15.5 208 208 208
11.1 -31.2 15.4 208 208 208
11.4 -31.1 15.4 208 208 208
11.8 -31.2 15.4 208 208 208
12.2 -31.2 15.5 208 208 208
12.5 -31.2 15.4 208 208 208
12.9 -31.2 15.4 208 208 208
13.3 -31.3 15.5 208 208 208
13.6 -31.3 15.5 207 207 207
14.0 -31.3 15.5 207 207 207
14.3 -31.3 15.5 205 205 205
14.7 -31.3 15.5 205 205 205
15.0 -31.1 15.4 205 205 205
15.4 -31.1 15.4 205 205 205
15.8 -31.3 15.5 205 205 205
16.1 -31.2 15.5 205 205 205
16.5 -31.3 15.5 205 205 205
16.9 -31.4 15.5 204 204 204
17.2 -31.2 15.4 204 204 204
17.5 -31.2 15.4 207 207 207
17.9 -31.3 15.5 207 207 207
18.3 -31.3 15.5 207 207 207
18.7 -31.4 15.5 207 207 207
19.0 -31.3 15.5 207 207 207
19.3 -31.2 15.4 207 207 207
19.7 -31.3 15.5 207 207 207
20.1 -31.3 15.5 207 207 207
20.5 -31.3 15.5 207 207 207
20.8 -31.3 15.5 207 207 207
21.2 -31.3 15.5 207 207 207
21.6 -31.3 15.5 207 207 207
21.9 -31.3 15.5 207 207 207
22.4 -31.4 15.5 207 207 207
22.7 -31.4 15.5 204 204 204
23.1 -31.4 15.5 204 204 204
41.3 -55.4 27.4 204 204 204
41.3 -54.5 26.9 204 204 204
42.5 -55.2 27.3 204 204 204
40.8 -51.5 25.5 204 204 204
40.3 -50.1 24.8 205 205 205
29.0 -32.0 15.8 204 204 204
25.3 -27.2 13.4 204 204 204
25.4 -26.9 13.3 204 204 204
26.2 -27.2 13.5 205 205 205
26.4 -27.0 13.4 205 205 205
-16.2 -30.9 15.5 26 26 26
-15.8 -30.7 15.4 26 26 26
-17.2 -34.3 17.2 26 26 26
-16.8 -34.3 17.1 26 26 26
-0.3 -24.9 12.4 196 196 196
8.6 -23.2 11.6 207 207 207
12.6 -31.0 15.5 207 207 207
11.0 -24.9 12.5 207 207 207
14.8 -31.1 15.6 207 207 207
12.9 -23.2 11.6 200 200 200
13.2 -23.2 11.6 207 207 207
18.9 -31.3 15.7 207 207 207
41.4 -54.8 27.5 203 203 203
41.1 -53.7 26.9 203 203 203
42.6 -54.8 27.4 203 203 203
40.9 -51.0 25.5 204 204 204
40.0 -49.2 24.6 204 204 204
28.9 -31.9 16.0 205 205 205
29.5 -32.2 16.1 206 206 206
29.4 -31.7 15.9 203 203 203
26.5 -27.2 13.6 204 204 204
26.8 -27.1 13.6 204 204 204
-35.3 -24.7 12.5 57 57 57
-35.0 -24.8 12.5 57 57 57
-34.7 -24.8 12.5 57 57 57
-34.4 -24.8 12.5 57 57 57
-33.5 -24.8 12.5 57 57 57
-33.3 -24.8 12.5 59 61 59
-30.9 -24.8 12.5 53 53 53
-30.7 -24.8 12.5 53 53 53
-30.4 -24.8 12.5 53 53 53
-30.1 -24.8 12.6 51 51 49
-29.8 -24.8 12.6 48 48 48
-29.5 -24.8 12.5 48 48 48
-27.8 -24.8 12.6 48 48 48
-21.9 -24.8 12.6 41 41 39
-21.6 -24.8 12.6 43 43 43
-21.3 -24.7 12.5 43 43 43
-21.0 -24.7 12.5 47 47 47
-17.2 -33.9 17.2 26 26 26
-11.1 -24.8 12.6 31 30 29
-10.9 -24.8 12.6 32 32 32
-10.5 -24.7 12.5 34 36 36
-10.2 -24.7 12.5 43 43 43
-10.0 -24.8 12.6 152 154 154
-9.7 -24.8 12.6 182 182 182
-9.4 -24.8 12.6 186 188 187
-7.0 -24.8 12.5 220 220 220
-6.7 -24.8 12.6 220 220 220
-6.4 -24.7 12.5 216 219 218
-6.1 -24.7 12.5 216 219 218
-5.9 -24.8 12.5 213 215 215
-5.6 -24.8 12.5 213 215 215
-5.3 -24.7 12.5 212 214 214
-5.0 -24.8 12.5 210 210 210
-4.7 -24.8 12.6 210 210 210
-4.4 -24.7 12.5 207 207 207
-4.1 -24.7 12.5 207 207 207
-3.8 -24.8 12.5 205 205 205
-3.5 -24.7 12.5 205 205 205
-3.2 -24.8 12.5 203 203 203
-3.0 -24.8 12.5 200 200 200
-2.7 -24.8 12.6 200 200 200
-2.1 -24.8 12.5 197 197 197
-1.8 -24.8 12.6 197 197 197
-1.5 -24.8 12.5 197 197 197
-1.2 -24.8 12.6 197 197 197
-0.9 -24.8 12.6 197 197 197
-0.6 -24.8 12.6 197 197 197
-0.3 -24.7 12.5 197 197 197
-0.0 -24.7 12.5 198 198 198
0.3 -24.6 12.5 198 198 198
0.5 -24.8 12.5 198 198 198
0.8 -24.8 12.5 195 195 195
1.1 -24.7 12.5 195 195 195
1.4 -24.8 12.6 192 192 192
1.7 -24.8 12.5 192 192 192
2.0 -24.6 12.5 192 192 192
2.3 -24.6 12.5 190 190 190
2.6 -24.7 12.5 189 189 189
4.6 -24.8 12.5 181 181 181
4.9 -24.8 12.5 181 181 181
5.2 -24.8 12.5 181 181 181
5.5 -24.8 12.5 175 175 175
5.8 -24.8 12.5 202 202 202
6.1 -24.8 12.6 207 207 207
6.4 -24.8 12.5 207 207 207
6.7 -24.8 12.5 207 207 207
7.0 -24.8 12.6 207 207 207
7.3 -24.8 12.6 207 207 207
7.5 -24.8 12.5 207 207 207
7.8 -24.7 12.5 207 207 207
8.1 -24.8 12.5 207 207 207
8.4 -24.7 12.5 207 207 207
8.7 -24.7 12.5 207 207 207
9.0 -24.8 12.6 207 207 207
9.3 -24.7 12.5 207 207 207
9.6 -24.8 12.6 207 207 207
9.9 -24.8 12.6 207 207 207
10.2 -24.8 12.5 207 207 207
10.4 -24.7 12.5 206 206 206
10.7 -24.7 12.5 206 206 206
11.0 -24.8 12.5 206 206 206
11.3 -24.8 12.5 206 206 206
11.6 -24.8 12.6 204 204 204
11.9 -24.8 12.5 206 206 206
12.2 -24.8 12.5 204 204 204
12.5 -24.8 12.6 204 204 204
12.8 -24.8 12.6 204 204 204
13.1 -24.8 12.5 204 204 204
13.4 -24.8 12.6 203 203 203
13.7 -24.8 12.5 203 203 203
14.0 -24.8 12.5 203 203 203
14.2 -24.7 12.5 206 206 206
14.5 -24.8 12.5 206 206 206
14.9 -24.8 12.6 206 206 206
15.1 -24.7 12.5 206 206 206
15.4 -24.7 12.5 206 206 206
15.7 -24.8 12.6 206 206 206
15.9 -24.7 12.5 206 206 206
16.3 -24.8 12.5 206 206 206
16.6 -24.8 12.5 206 206 206
16.9 -24.8 12.5 206 206 206
17.2 -24.8 12.5 206 206 206
17.5 -24.8 12.6 206 206 206
17.8 -24.8 12.6 206 206 206
41.7 -54.6 27.7 206 206 206
41.1 -53.1 26.9 208 208 208
40.7 -50.2 25.4 203 203 203
40.1 -48.7 24.7 206 206 206
40.2 -48.2 24.4 204 204 204
29.2 -31.8 16.1 205 205 205
29.7 -32.0 16.2 205 205 205
26.8 -27.1 13.7 203 203 203
27.0 -27.0 13.7 204 204 204
88.8 -46.1 23.3 111 113 112
87.1 -44.9 22.7 107 107 107
-35.0 -24.3 12.4 55 55 55
-34.9 -24.4 12.5 58 58 58
-34.6 -24.4 12.5 58 58 58
-34.3 -24.4 12.5 60 62 60
-34.0 -24.4 12.5 58 58 58
-33.7 -24.3 12.5 60 62 60
-33.4 -24.3 12.5 60 62 60
-33.1 -24.4 12.5 60 62 60
-32.8 -24.3 12.5 60 62 60
-32.5 -24.4 12.5 60 62 60
-32.2 -24.3 12.5 60 62 60
-32.0 -24.4 12.5 58 58 58
-31.7 -24.4 12.5 58 59 59
-31.4 -24.4 12.5 56 56 56
-31.1 -24.3 12.5 54 54 54
-30.8 -24.4 12.5 54 54 54
-30.5 -24.4 12.5 54 54 54
-30.2 -24.4 12.5 54 54 54
-30.0 -24.4 12.5 52 52 50
-29.7 -24.4 12.5 52 52 50
-29.4 -24.4 12.5 49 49 49
-29.1 -24.4 12.5 49 49 49
-28.8 -24.4 12.5 49 49 49
-28.5 -24.4 12.5 49 49 49
-28.2 -24.3 12.5 49 49 49
-27.9 -24.4 12.5 49 49 49
-27.7 -24.4 12.5 50 50 50
-27.3 -24.3 12.5 50 50 50
-26.9 -24.3 12.4 50 50 50
-26.7 -24.4 12.5 47 48 47
-26.5 -24.4 12.5 46 46 46
-26.2 -24.4 12.5 48 48 48
-25.9 -24.4 12.5 46 46 46
-25.7 -24.4 12.5 46 46 46
-25.2 -24.3 12.5 48 48 48
-24.9 -24.3 12.5 46 46 46
-24.7 -24.4 12.5 47 47 47
-24.5 -24.4 12.5 49 49 49
-24.1 -24.3 12.5 44 44 44
-23.8 -24.4 12.5 47 47 47
-23.5 -24.4 12.5 45 45 45
-23.3 -24.4 12.5 42 43 42
-23.0 -24.4 12.5 43 43 43
-22.7 -24.4 12.5 41 41 39
-22.4 -24.3 12.5 41 41 39
-22.1 -24.3 12.5 43 43 43
-21.8 -24.4 12.5 40 40 40
-21.6 -24.4 12.5 40 40 40
-21.2 -24.3 12.5 40 40 40
-20.9 -24.3 12.5 41 41 41
-20.6 -24.3 12.4 41 41 41
-13.1 -24.4 12.5 27 27 27
-12.9 -24.6 12.6 29 29 29
-12.5 -24.3 12.5 30 31 30
-12.3 -24.5 12.5 30 31 30
-12.0 -24.5 12.5 29 31 29
-11.6 -24.4 12.5 29 31 29
-11.5 -24.6 12.6 32 31 30
-11.2 -24.6 12.6 32 32 32
-10.8 -24.5 12.6 33 33 33
-10.5 -24.3 12.5 34 34 34
-10.2 -24.3 12.5 40 40 40
-9.9 -24.4 12.5 160 160 160
-9.6 -24.4 12.5 186 186 186
-6.7 -24.4 12.5 224 224 224
-6.4 -24.3 12.5 221 221 221
-6.1 -24.3 12.5 220 220 220
-5.8 -24.3 12.5 218 218 218
-5.6 -24.4 12.5 217 217 217
-5.2 -24.3 12.5 214 216 216
-4.7 -24.4 12.5 213 215 215
-4.4 -24.3 12.5 209 212 211
-4.1 -24.4 12.5 209 212 211
-3.8 -24.4 12.5 209 212 211
-3.5 -24.3 12.5 208 208 208
-3.2 -24.4 12.5 206 206 206
-2.9 -24.3 12.5 204 204 204
-2.7 -24.4 12.5 205 205 205
-2.4 -24.4 12.5 202 202 202
-1.8 -24.4 12.5 205 205 205
-1.5 -24.4 12.5 202 202 202
-1.2 -24.4 12.5 199 199 199
-0.9 -24.5 12.6 199 199 199
-0.6 -24.4 12.5 199 199 199
-0.3 -24.3 12.5 199 199 199
-0.0 -24.3 12.4 199 199 199
0.3 -24.3 12.4 197 197 197
0.5 -24.4 12.5 197 197 197
0.8 -24.3 12.5 197 197 197
1.1 -24.4 12.5 197 197 197
1.7 -24.4 12.5 194 194 194
2.0 -24.2 12.4 191 191 191
2.3 -24.2 12.4 191 191 191
2.6 -24.3 12.5 191 191 191
4.6 -24.4 12.5 180 180 180
4.9 -24.4 12.5 180 180 180
5.2 -24.3 12.5 180 180 180
5.5 -24.3 12.5 180 180 180
5.8 -24.4 12.5 197 197 197
6.1 -24.4 12.5 206 206 206
6.3 -24.3 12.5 206 206 206
6.6 -24.3 12.5 206 206 206
7.0 -24.5 12.5 206 206 206
7.2 -24.4 12.5 206 206 206
7.5 -24.3 12.5 206 206 206
7.8 -24.4 12.5 206 206 206
8.1 -24.3 12.5 206 206 206
8.4 -24.3 12.5 206 206 206
8.7 -24.3 12.5 206 206 206
9.0 -24.4 12.5 206 206 206
9.2 -24.3 12.4 206 206 206
9.6 -24.4 12.5 206 206 206
9.9 -24.4 12.5 206 206 206
10.1 -24.4 12.5 206 206 206
10.4 -24.3 12.5 206 206 206
10.7 -24.3 12.5 206 206 206
11.0 -24.4 12.5 206 206 206
11.3 -24.4 12.5 206 206 206
11.6 -24.4 12.5 206 206 206
11.9 -24.3 12.5 206 206 206
12.1 -24.3 12.5 206 206 206
12.5 -24.4 12.5 206 206 206
12.8 -24.4 12.5 206 206 206
13.0 -24.4 12.5 206 206 206
13.3 -24.4 12.5 206 206 206
13.6 -24.4 12.5 206 206 206
14.8 -24.5 12.5 206 206 206
15.1 -24.4 12.5 206 206 206
15.3 -24.3 12.5 206 206 206
15.7 -24.5 12.5 205 205 205
15.9 -24.3 12.5 205 205 205
16.2 -24.4 12.5 205 205 205
16.5 -24.4 12.5 205 205 205
16.8 -24.4 12.5 205 205 205
17.1 -24.3 12.5 205 205 205
17.4 -24.4 12.5 205 205 205
17.7 -24.4 12.5 205 205 205
18.0 -24.4 12.5 205 205 205
41.7 -54.0 27.7 205 205 205
41.8 -53.3 27.3 205 205 205
40.7 -49.0 25.1 206 206 206
44.5 -52.7 27.0 203 203 203
45.8 -53.5 27.4 203 203 203
29.2 -31.5 16.1 204 204 204
27.1 -26.8 13.7 203 203 203
87.9 -45.0 23.1 111 113 112
85.1 -43.3 22.2 109 109 109
-34.8 -23.8 12.3 58 58 58
-34.5 -23.8 12.4 58 59 59
-34.2 -23.8 12.4 60 62 60
-33.9 -23.8 12.4 64 64 64
-33.6 -23.8 12.4 61 63 61
-33.3 -23.8 12.4 61 63 61
-33.1 -23.8 12.4 61 63 61
-32.8 -23.8 12.4 61 63 61
-32.5 -23.8 12.3 61 63 61
-32.2 -23.8 12.4 61 63 61
-31.9 -23.8 12.4 61 63 61
-31.6 -23.8 12.4 58 59 59
-31.4 -23.8 12.4 58 59 59
-31.1 -23.8 12.4 57 57 57
-30.8 -23.8 12.4 57 57 57
-30.5 -23.9 12.4 58 58 58
-30.3 -23.9 12.4 55 55 55
-28.8 -23.8 12.4 50 50 50
-28.5 -23.8 12.4 50 50 50
-28.2 -23.8 12.4 50 50 50
-27.9 -23.8 12.3 50 50 50
-27.6 -23.8 12.4 51 51 51
-27.4 -23.9 12.4 51 51 51
-27.0 -23.8 12.3 51 51 51
-26.7 -23.7 12.3 51 51 51
-26.4 -23.8 12.3 51 51 51
-26.0 -23.9 12.4 49 49 49
-25.6 -23.9 12.4 49 49 49
-25.0 -23.8 12.3 49 49 49
-24.7 -23.8 12.3 47 48 47
-24.4 -23.8 12.4 47 48 47
-23.8 -23.8 12.3 46 46 46
-23.0 -23.8 12.4 44 44 44
-22.1 -23.8 12.3 43 42 41
-21.8 -23.7 12.3 43 42 41
-21.6 -23.8 12.3 41 41 41
-21.5 -24.0 12.5 41 41 41
-21.0 -23.9 12.4 41 41 41
-20.7 -23.8 12.4 40 42 42
-20.4 -23.8 12.3 40 42 42
-12.4 -23.9 12.4 31 32 30
-11.6 -24.5 12.7 29 31 29
-11.3 -24.5 12.7 29 31 29
-10.9 -24.4 12.7 33 33 33
-10.4 -23.9 12.4 36 36 36
-10.1 -23.8 12.4 42 42 42
-9.8 -23.8 12.3 166 169 168
-4.3 -23.8 12.4 212 214 214
-0.6 -23.9 12.4 200 200 200
-0.3 -23.9 12.4 200 200 200
-0.0 -23.8 12.3 200 200 200
0.2 -23.7 12.3 198 198 198
7.4 -23.8 12.3 206 206 206
8.3 -23.8 12.3 206 206 206
9.8 -23.9 12.4 205 205 205
10.0 -23.8 12.3 205 205 205
10.3 -23.8 12.3 205 205 205
10.6 -23.8 12.3 205 205 205
10.9 -23.8 12.4 205 205 205
11.1 -23.8 12.3 205 205 205
11.5 -23.9 12.4 205 205 205
11.7 -23.8 12.4 205 205 205
12.0 -23.7 12.3 205 205 205
12.3 -23.9 12.4 205 205 205
12.7 -23.9 12.4 205 205 205
12.9 -23.9 12.4 205 205 205
13.2 -23.9 12.4 205 205 205
14.9 -23.9 12.4 205 205 205
15.2 -23.8 12.3 205 205 205
15.6 -24.0 12.4 205 205 205
15.7 -23.8 12.3 205 205 205
16.0 -23.8 12.3 205 205 205
16.4 -23.9 12.4 205 205 205
16.6 -23.8 12.3 205 205 205
16.9 -23.8 12.3 205 205 205
17.2 -23.8 12.3 205 205 205
17.8 -23.9 12.4 205 205 205
41.9 -52.7 27.3 205 205 205
44.9 -52.5 27.3 205 205 205
45.7 -52.8 27.4 206 206 206
27.9 -27.9 14.5 204 204 204
28.1 -27.8 14.4 205 205 205
86.9 -44.0 22.8 113 115 114
-35.1 -23.8 12.5 61 63 61
-34.9 -23.8 12.5 61 63 61
-34.6 -23.8 12.5 61 63 61
-34.3 -23.8 12.5 61 63 61
-33.4 -23.8 12.5 59 59 59
-33.1 -23.8 12.5 62 64 61
-31.1 -23.8 12.5 59 59 59
-30.8 -23.8 12.5 62 64 61
-29.8 -23.9 12.5 51 51 51
-29.4 -23.9 12.5 51 51 51
-29.1 -23.8 12.5 54 53 52
-28.8 -23.8 12.5 51 51 51
-28.5 -23.8 12.5 51 51 51
-28.1 -23.7 12.5 51 51 51
-22.4 -23.8 12.5 44 43 42
-21.6 -23.9 12.5 45 44 43
-21.2 -23.8 12.5 42 43 42
-12.5 -23.7 12.5 31 32 30
-11.3 -24.2 12.7 29 31 29
-10.9 -24.1 12.6 29 31 29
-10.5 -23.8 12.5 32 31 30
-10.2 -23.7 12.4 42 43 42
-9.9 -23.7 12.4 176 179 178
41.8 -52.0 27.3 204 204 204
46.8 -57.4 30.1 204 204 204
45.2 -52.3 27.5 205 205 205
45.8 -52.2 27.4 205 205 205
28.1 -27.7 14.6 204 204 204
28.2 -27.5 14.5 207 207 207
-35.4 -23.7 12.6 62 64 61
-35.3 -23.8 12.6 62 64 61
-35.0 -23.8 12.6 62 64 61
-34.7 -23.8 12.6 62 64 61
-34.4 -23.8 12.6 62 64 61
-34.1 -23.8 12.6 66 66 66
-33.8 -23.8 12.6 66 66 66
-33.5 -23.8 12.6 62 64 61
-33.2 -23.8 12.6 63 64 62
-33.0 -23.8 12.6 63 64 62
-32.7 -23.8 12.7 63 64 62
-32.4 -23.8 12.7 63 64 62
-32.1 -23.8 12.6 63 64 62
-31.8 -23.8 12.7 58 59 59
-31.7 -23.9 12.7 58 59 59
-31.4 -23.9 12.7 60 60 60
-31.1 -23.9 12.7 59 59 59
-30.6 -23.8 12.7 57 57 57
-30.3 -23.8 12.7 55 54 53
-30.1 -23.8 12.7 55 54 53
-29.7 -23.8 12.6 55 54 53
-29.5 -23.8 12.7 57 57 57
-29.1 -23.8 12.6 56 55 54
-28.8 -23.7 12.6 52 52 52
-28.5 -23.7 12.6 52 52 52
-28.3 -23.8 12.7 56 55 54
-28.0 -23.8 12.7 53 52 52
-27.6 -23.7 12.6 53 52 52
-22.5 -23.7 12.6 45 44 43
-22.3 -24.1 12.8 42 43 42
-21.8 -23.8 12.7 42 43 42
-21.4 -23.7 12.6 43 43 43
-21.3 -23.9 12.7 42 44 43
-12.6 -23.6 12.5 35 35 35
-11.6 -23.9 12.7 46 46 46
-11.3 -24.0 12.7 58 59 59
-11.0 -23.9 12.7 65 67 66
-10.6 -23.7 12.6 35 35 35
-10.2 -23.6 12.5 48 48 48
-10.0 -23.7 12.6 183 183 183
45.9 -51.7 27.5 204 204 204
74.3 -79.3 42.1 205 205 205
75.1 -79.1 42.0 205 205 205
28.9 -28.6 15.2 203 203 203
28.8 -28.1 14.9 203 203 203
28.4 -27.4 14.6 203 203 203
-36.2 -23.9 12.9 62 64 61
-35.9 -24.5 13.2 66 66 66
-35.2 -24.5 13.2 67 67 67
-34.9 -24.5 13.2 67 67 67
-31.5 -24.2 13.0 60 60 60
-31.2 -24.2 13.0 58 58 58
-30.9 -24.2 13.0 58 58 58
-31.0 -24.5 13.2 56 55 54
-30.6 -24.5 13.2 56 55 54
-30.1 -24.3 13.1 56 55 54
-29.7 -24.2 13.0 53 52 52
-29.4 -24.2 13.0 57 56 55
-29.3 -24.4 13.1 58 59 59
-28.7 -24.1 13.0 53 53 53
-23.6 -24.2 13.0 46 45 43
-22.7 -24.1 13.0 43 43 43
-22.2 -23.9 12.9 46 46 44
-13.9 -24.7 13.3 112 112 112
-13.5 -24.4 13.2 107 107 107
-13.0 -24.6 13.2 89 89 89
-11.5 -24.1 13.0 21 24 22
-11.1 -23.9 12.9 89 89 89
-10.7 -23.7 12.8 32 31 30
-10.4 -23.7 12.8 46 46 46
-10.1 -23.7 12.8 183 183 183
-10.3 -24.9 13.4 183 186 185
-9.9 -24.7 13.3 182 185 184
56.0 -61.5 33.1 204 204 204
74.5 -78.5 42.2 204 204 204
74.8 -77.8 41.9 205 205 205
62.4 -64.0 34.5 205 205 205
29.2 -28.5 15.3 202 202 202
-37.4 -24.4 13.3 63 64 62
-37.1 -24.4 13.3 63 64 62
-36.8 -24.4 13.3 63 64 62
-35.2 -24.4 13.3 67 67 67
-34.9 -24.4 13.3 67 67 67
-34.4 -24.4 13.3 67 67 67
-34.1 -24.4 13.3 65 66 64
-33.8 -24.4 13.3 65 66 64
-33.5 -24.4 13.3 62 62 62
-33.1 -24.4 13.3 62 62 62
-32.8 -24.4 13.3 62 62 62
-32.5 -24.4 13.3 62 62 62
-32.2 -24.4 13.3 61 61 61
-31.8 -24.4 13.3 58 59 59
-31.5 -24.4 13.3 58 59 59
-31.2 -24.4 13.3 58 59 59
-30.9 -24.4 13.3 58 59 59
-30.6 -24.4 13.3 57 56 55
-30.3 -24.4 13.3 57 57 55
-30.0 -24.4 13.3 57 57 55
-29.7 -24.4 13.3 57 57 55
-24.4 -24.4 13.3 47 48 47
-13.0 -24.4 13.3 32 33 31
-12.7 -24.5 13.3 42 42 42
-9.8 -19.8 10.8 46 46 46
-11.7 -24.2 13.2 48 48 48
-11.4 -24.2 13.2 84 84 84
-10.3 -24.5 13.4 182 185 184
-9.9 -24.4 13.3 181 184 183
56.5 -62.1 33.8 206 206 206
57.3 -60.4 32.9 204 204 204
74.3 -77.3 42.1 204 204 204
74.6 -76.6 41.8 204 204 204
64.6 -65.5 35.7 204 204 204
-24.6 -19.3 10.7 57 57 55
-24.3 -19.3 10.6 58 58 56
-21.0 -19.4 10.7 57 57 57
-20.4 -19.2 10.6 53 52 52
-13.0 -24.1 13.3 29 29 29
-12.7 -24.2 13.3 137 137 137
-10.2 -19.7 10.9 123 125 124
-9.9 -19.6 10.8 114 116 115
-11.7 -24.0 13.2 95 95 95
-10.6 -24.3 13.4 183 186 185
-10.3 -24.2 13.4 181 184 183
-9.9 -24.1 13.3 182 185 184
56.6 -61.4 33.9 205 205 205
54.4 -58.2 32.1 206 206 206
48.0 -49.3 27.2 203 203 203
-20.3 -18.8 10.5 56 56 56
-13.0 -23.7 13.3 36 37 36
-12.7 -23.8 13.3 126 126 126
-10.2 -19.5 10.9 38 38 38
-9.9 -19.4 10.8 40 40 40
-11.7 -23.6 13.2 37 38 37
-10.7 -24.0 13.4 182 185 184
-10.3 -24.0 13.4 181 184 183
-10.0 -23.8 13.3 181 184 183
57.5 -61.5 34.4 205 205 205
48.3 -49.0 27.4 199 199 199
46.6 -46.6 26.1 203 203 203
1136.7 -537.0 300.3 118 118 118
1143.7 -537.0 300.3 112 114 113
-20.3 -18.5 10.5 57 57 57
-10.1 -19.1 10.8 121 123 122
-9.9 -19.1 10.8 111 113 112
-11.3 -23.9 13.5 51 51 51
-11.1 -24.0 13.6 54 56 54
-10.7 -23.9 13.6 181 184 183
-10.4 -23.8 13.5 180 183 182
-10.0 -23.7 13.5 178 181 180
53.2 -55.5 31.4 205 205 205
50.7 -51.5 29.1 205 205 205
49.4 -49.5 28.0 205 205 205
48.6 -48.0 27.2 205 205 205
-9.8 -18.9 10.8 39 39 39
-10.8 -23.8 13.7 181 184 183
-10.5 -23.7 13.6 179 182 181
-10.3 -24.0 13.8 183 183 183
-10.2 -24.4 14.0 178 181 180
54.0 -55.6 31.9 204 204 204
53.3 -54.1 31.1 204 204 204
52.8 -52.9 30.4 204 204 204
51.3 -50.7 29.1 205 205 205
-9.9 -18.6 10.8 77 79 78
-10.3 -24.5 14.3 181 181 181
-5.1 -17.2 10.0 218 218 218
12.2 -17.7 10.3 206 206 206
56.4 -58.1 33.8 207 207 207
54.7 -55.5 32.3 207 207 207
54.3 -54.4 31.6 207 207 207
55.2 -54.6 31.7 207 207 207
53.5 -52.1 30.3 204 204 204
-10.1 -18.4 10.9 44 44 44
-9.9 -18.4 10.8 39 39 39
-5.8 -17.4 10.3 204 204 204
-5.5 -17.4 10.3 205 205 205
10.4 -17.0 10.0 203 203 203
12.2 -17.4 10.3 206 206 206
12.4 -17.4 10.3 206 206 206
57.9 -58.7 34.6 206 206 206
54.3 -53.6 31.6 207 207 207
55.1 -53.6 31.6 207 207 207
38.6 -33.9 20.0 205 205 205
38.9 -33.8 20.0 205 205 205
39.5 -34.0 20.0 205 205 205
39.8 -33.8 19.9 205 205 205
-10.1 -18.2 10.9 50 50 50
-9.9 -18.1 10.8 39 39 39
-12.1 -25.4 15.2 183 186 185
-5.6 -17.3 10.4 193 193 193
-5.3 -17.1 10.2 195 195 195
9.4 -17.3 10.4 206 206 206
9.5 -17.2 10.3 206 206 206
10.7 -17.2 10.3 206 206 206
12.4 -17.2 10.3 206 206 206
13.6 -17.2 10.3 205 205 205
14.3 -17.2 10.3 205 205 205
58.0 -58.0 34.7 203 203 203
58.7 -57.9 34.6 206 206 206
56.8 -54.5 32.6 204 204 204
49.7 -44.7 26.8 204 204 204
39.5 -33.5 20.0 208 208 208
39.6 -33.2 19.8 208 208 208
-10.9 -17.1 10.4 34 36 34
-10.1 -17.8 10.8 116 118 117
-9.8 -17.8 10.8 113 114 113
-12.1 -25.1 15.2 184 187 186
-11.7 -25.0 15.1 183 186 185
-11.3 -24.9 15.1 181 184 183
-11.1 -25.3 15.4 176 176 176
9.4 -17.1 10.4 208 211 210
58.1 -57.3 34.8 206 206 206
58.9 -57.3 34.8 207 210 209
59.7 -57.3 34.8 207 210 209
61.3 -57.3 34.8 207 210 209
62.0 -57.2 34.7 206 206 206
49.7 -43.6 26.5 208 211 210
39.4 -33.0 20.0 208 208 208
39.5 -32.6 19.8 208 208 208
40.0 -32.6 19.8 208 208 208
81.8 -39.2 23.8 177 177 177
52.2 -23.5 14.2 158 158 158
-9.8 -17.5 10.8 38 38 38
-11.8 -24.9 15.3 184 187 186
-11.4 -24.8 15.3 186 188 187
-11.2 -25.1 15.4 176 176 176
-10.9 -25.4 15.6 157 160 159
-10.6 -25.4 15.6 155 158 157
57.4 -55.8 34.3 206 209 208
57.2 -53.4 32.8 207 210 209
60.2 -54.8 33.7 206 206 206
50.0 -43.7 26.9 207 207 207
50.3 -43.5 26.8 208 211 210
39.5 -32.5 20.0 207 207 207
39.4 -32.1 19.7 208 208 208
82.9 -39.2 24.1 176 176 176
53.9 -24.0 14.8 165 168 167
52.6 -23.3 14.3 159 159 159
-9.8 -17.4 10.8 132 132 132
-12.0 -25.0 15.6 186 188 187
-11.7 -25.0 15.6 184 187 186
-11.3 -25.1 15.7 177 177 177
-11.0 -25.2 15.7 158 161 160
-10.6 -25.2 15.7 156 159 158
122.0 -117.0 73.0 206 209 208
57.2 -52.6 32.8 206 209 208
50.2 -43.3 27.0 206 206 206
50.5 -43.1 26.9 207 207 207
39.3 -31.9 19.9 207 207 207
39.1 -31.4 19.6 207 207 207
39.3 -31.2 19.5 208 208 208
40.9 -32.1 20.0 209 212 211
40.9 -31.7 19.8 208 208 208
83.4 -38.9 24.3 179 179 179
83.8 -38.8 24.2 179 179 179
56.4 -24.9 15.6 174 174 174
55.2 -24.3 15.1 166 169 168
-9.9 -17.1 10.8 113 115 114
-11.9 -25.1 15.9 186 188 187
-11.5 -25.2 15.9 180 180 180
-11.2 -25.2 15.9 167 167 167
-10.8 -25.1 15.9 160 163 162
53.9 -46.5 29.4 207 210 209
51.2 -43.0 27.3 206 206 206
39.4 -31.2 19.7 207 207 207
39.7 -31.1 19.7 207 207 207
40.9 -31.6 20.0 208 208 208
40.9 -31.2 19.8 203 203 203
82.9 -38.1 24.1 183 183 183
82.9 -37.8 23.9 180 180 180
56.0 -24.3 15.4 168 170 169
-12.2 -26.3 16.9 182 182 182
-11.8 -26.3 16.9 170 171 170
54.0 -45.8 29.5 207 210 209
51.1 -42.8 27.5 206 206 206
51.5 -42.6 27.4 206 206 206
251.7 -205.8 132.3 206 206 206
232.1 -187.5 120.5 206 206 206
40.9 -31.1 20.0 207 207 207
40.7 -30.7 19.7 205 205 205
77.0 -35.3 22.7 184 184 184
79.1 -36.1 23.2 184 184 184
81.5 -36.9 23.7 181 181 181
81.4 -36.6 23.5 184 184 184
80.1 -35.8 23.0 184 184 184
56.8 -24.2 15.6 169 171 170
-12.2 -27.7 18.1 168 168 168
51.0 -42.1 27.5 207 210 209
50.8 -41.4 27.0 207 210 209
250.0 -201.4 131.4 207 210 209
214.3 -170.6 111.3 207 210 209
195.1 -153.4 100.1 207 210 209
41.0 -30.8 20.1 207 207 207
40.9 -30.4 19.8 208 211 210
38.8 -27.3 17.8 189 189 189
77.5 -35.3 23.0 186 188 187
77.3 -34.9 22.8 185 185 185
78.8 -35.4 23.1 182 182 182
81.6 -36.4 23.7 185 185 185
81.3 -36.0 23.5 185 185 185
80.2 -35.3 23.0 185 185 185
-13.1 -28.3 18.7 175 175 175
-12.6 -28.1 18.6 172 172 172
213.1 -167.0 110.6 207 210 209
193.1 -149.5 99.0 207 210 209
38.5 -27.5 18.2 186 186 186
38.9 -27.5 18.2 189 189 189
39.1 -27.0 17.9 192 192 192
77.5 -35.0 23.2 187 189 189
77.1 -34.6 22.9 187 189 189
77.2 -34.4 22.8 188 190 190
78.6 -34.7 23.0 186 186 186
81.2 -35.6 23.6 186 186 186
80.3 -34.8 23.0 186 186 186
62.0 -25.8 17.1 174 176 176
61.8 -25.4 16.8 160 160 160
62.6 -25.6 17.0 155 155 155
-13.5 -28.6 19.3 177 180 179
-13.1 -28.8 19.4 175 175 175
-12.8 -29.1 19.6 168 168 168
213.1 -164.4 110.6 207 210 209
193.1 -147.2 99.0 207 210 209
39.1 -27.5 18.5 189 189 189
39.5 -27.5 18.5 192 192 192
40.0 -27.5 18.5 192 192 192
76.7 -33.6 22.6 189 191 191
77.5 -33.8 22.7 188 188 188
80.0 -34.1 23.0 189 191 191
62.9 -25.8 17.4 172 174 174
61.5 -25.1 16.9 167 167 167
61.2 -24.8 16.7 161 161 161
62.3 -25.1 16.9 155 155 155
-13.7 -28.5 19.5 178 178 178
-13.4 -28.9 19.7 175 175 175
-13.0 -29.0 19.8 172 172 172
-12.5 -28.9 19.7 162 162 162
79.7 -33.3 22.7 185 185 185
77.5 -32.1 21.9 185 185 185
60.7 -24.4 16.7 166 166 166
60.5 -24.1 16.5 160 160 160
61.4 -24.3 16.6 156 156 156
61.9 -24.4 16.7 150 152 152
-13.8 -28.4 19.7 177 177 177
-13.5 -28.6 19.9 175 175 175
-13.2 -29.0 20.2 151 151 151
-12.6 -28.9 20.0 25 27 25
34.4 -20.3 14.1 197 197 197
34.1 -20.0 13.9 197 197 197
79.8 -32.8 22.8 188 188 188
77.5 -31.6 21.9 188 188 188
76.2 -30.9 21.4 188 188 188
60.9 -24.0 16.7 164 164 164
60.6 -23.8 16.5 160 160 160
61.3 -23.9 16.6 157 157 157
61.7 -23.9 16.6 151 153 153
-13.8 -28.0 19.7 169 171 170
-13.5 -28.3 20.0 160 163 162
-13.3 -28.8 20.3 124 126 125
-12.6 -28.4 20.1 52 52 52
160.0 -125.2 88.4 208 211 210
156.9 -121.3 85.6 208 211 210
158.9 -121.3 85.6 208 211 210
167.7 -126.4 89.2 208 211 210
67.2 -44.1 31.1 195 195 195
32.3 -18.9 13.4 199 199 199
34.1 -19.6 13.8 200 200 200
33.8 -19.3 13.6 198 198 198
79.9 -32.3 22.8 192 192 192
77.8 -31.2 22.0 189 189 189
77.2 -30.8 21.7 189 189 189
60.9 -23.5 16.6 160 160 160
61.5 -23.6 16.7 153 155 155
61.8 -23.5 16.6 150 150 150
61.9 -23.5 16.6 143 145 144
-13.9 -27.7 19.9 180 180 180
-13.6 -27.9 20.0 189 189 189
-13.5 -28.7 20.6 171 173 173
-12.7 -28.1 20.1 111 111 111
213.7 -173.4 124.4 206 209 208
166.2 -127.9 91.8 207 210 209
166.7 -126.7 90.9 208 211 210
168.8 -126.7 90.9 208 211 210
67.6 -43.6 31.3 195 195 195
67.3 -43.0 30.9 195 195 195
80.8 -32.1 23.0 193 193 193
78.6 -31.0 22.3 190 190 190
77.7 -30.5 21.9 190 190 190
61.5 -23.3 16.8 158 158 158
61.8 -23.3 16.7 154 154 154
62.0 -23.2 16.7 145 147 147
62.3 -23.2 16.7 142 144 143
-13.6 -28.6 20.9 182 185 184
-13.1 -28.4 20.7 171 173 173
224.0 -178.7 130.5 206 209 208
205.8 -162.0 118.2 206 209 208
233.3 -181.2 132.3 207 210 209
220.9 -169.4 123.6 207 210 209
192.4 -145.6 106.3 207 210 209
186.4 -139.3 101.7 207 210 209
237.3 -175.1 127.8 208 211 210
237.1 -172.8 126.1 208 211 210
250.0 -180.0 131.4 208 211 210
247.9 -176.3 128.7 208 211 210
65.7 -42.6 31.1 191 191 191
65.4 -41.9 30.6 195 195 195
68.6 -43.6 31.8 195 195 195
67.6 -42.4 31.0 195 195 195
81.0 -31.6 23.1 194 194 194
79.2 -30.7 22.4 191 191 191
78.3 -30.2 22.0 191 191 191
79.8 -30.6 22.3 184 184 184
62.9 -23.5 17.1 154 154 154
62.5 -23.2 16.9 148 150 150
62.6 -23.1 16.8 139 141 140
62.9 -23.1 16.8 132 135 134
-13.8 -28.4 21.1 180 180 180
-13.2 -28.1 20.9 179 179 179
232.0 -182.0 135.1 210 210 210
209.7 -162.3 120.5 206 209 208
260.6 -199.0 147.8 206 209 208
239.7 -180.7 134.2 207 210 209
215.3 -160.2 119.0 207 210 209
212.8 -156.3 116.1 207 210 209
234.1 -169.8 126.1 207 210 209
246.9 -176.9 131.4 208 211 210
255.3 -180.7 134.2 208 211 210
254.8 -178.2 132.3 208 211 210
69.0 -43.0 32.0 196 196 196
67.1 -41.4 30.8 196 196 196
81.7 -31.4 23.3 189 189 189
81.4 -30.7 22.8 185 185 185
82.4 -30.8 22.9 177 177 177
63.6 -23.1 17.1 134 137 136
-14.0 -28.4 21.4 167 167 167
225.6 -173.9 131.4 210 210 210
205.8 -156.5 118.2 210 210 210
287.6 -215.8 163.1 210 210 210
238.0 -176.3 133.2 211 211 211
215.3 -157.5 119.0 211 211 211
216.7 -156.5 118.2 207 210 209
222.3 -158.5 119.7 207 210 209
227.9 -160.5 121.3 207 210 209
233.8 -162.6 122.8 208 211 210
242.9 -166.9 126.1 208 211 210
223.5 -151.7 114.6 208 211 210
334.1 -221.6 167.4 209 212 211
267.1 -175.1 132.3 209 212 211
237.0 -153.6 116.1 210 213 212
229.9 -147.3 111.3 210 213 212
85.2 -31.3 23.7 165 165 165
-8.8 -14.0 10.8 189 189 189
-16.5 -34.1 26.2 91 93 92
225.6 -170.8 131.4 210 210 210
205.8 -153.7 118.2 210 210 210
297.9 -219.6 168.9 210 210 210
241.4 -175.7 135.1 210 210 210
218.1 -156.7 120.5 211 211 211
223.7 -158.7 122.0 211 211 211
226.6 -158.7 122.0 207 210 209
225.1 -155.7 119.7 207 210 209
229.3 -156.7 120.5 208 211 210
249.6 -168.5 129.6 208 211 210
230.5 -153.7 118.2 208 211 210
349.6 -227.8 175.2 209 212 211
270.9 -174.5 134.2 209 212 211
241.5 -153.7 118.2 215 215 215
234.0 -147.3 113.3 210 213 212
-18.9 -14.0 10.9 57 57 55
-18.6 -14.0 10.9 53 52 52
-17.9 -13.6 10.7 42 42 42
-9.8 -13.5 10.5 54 56 54
-9.2 -14.0 11.0 87 87 87
-8.8 -13.7 10.8 191 191 191
-17.5 -34.3 26.8 90 90 90
-16.8 -34.0 26.6 88 88 88
-16.2 -34.1 26.7 57 59 59
232.0 -172.6 135.1 209 209 209
205.8 -151.0 118.2 210 210 210
264.1 -188.7 147.8 210 210 210
234.5 -165.5 129.6 211 211 211
240.8 -167.8 131.4 211 211 211
240.5 -165.5 129.6 211 211 211
226.5 -153.9 120.5 207 210 209
291.6 -184.4 144.4 214 214 214
247.7 -154.9 121.3 209 212 211
71.6 -24.6 19.3 129 129 129
70.4 -24.0 18.8 129 129 129
71.7 -24.4 19.1 128 128 128
72.9 -24.6 19.3 129 129 129
-9.8 -13.2 10.5 109 109 109
-9.4 -13.0 10.3 34 34 34
-9.6 -14.0 11.2 103 103 103
-9.2 -13.8 11.0 42 42 42
-8.8 -13.5 10.8 193 196 195
-18.0 -33.4 26.6 133 133 133
-17.5 -33.5 26.8 96 96 96
-16.8 -33.4 26.6 90 92 91
-16.1 -33.3 26.6 74 76 75
-15.5 -33.4 26.6 115 117 116
208.4 -150.1 119.7 209 209 209
252.7 -170.6 136.1 211 211 211
243.5 -162.5 129.6 211 211 211
341.0 -211.8 168.9 214 214 214
70.4 -23.5 18.7 123 123 123
72.1 -23.9 19.0 126 126 126
-34.8 -15.2 12.4 77 79 77
-33.6 -15.2 12.4 144 146 146
-29.6 -15.2 12.4 36 37 36
-29.3 -15.2 12.4 32 31 30
-29.0 -15.2 12.3 25 25 25
-28.8 -15.2 12.4 17 21 18
-28.5 -15.2 12.4 17 21 18
-28.2 -15.2 12.4 24 24 24
-26.9 -15.1 12.3 148 150 150
-26.6 -15.1 12.3 136 138 137
-23.3 -15.2 12.3 38 38 38
-22.4 -15.2 12.4 49 49 49
-21.6 -15.2 12.4 52 52 52
-21.3 -15.2 12.4 52 52 52
-21.0 -15.2 12.4 52 52 52
-20.8 -15.2 12.4 52 52 52
-20.5 -15.2 12.4 45 45 45
-20.1 -15.2 12.3 37 38 37
-19.9 -15.2 12.4 26 26 26
-19.3 -15.2 12.4 86 88 88
-19.0 -15.2 12.4 23 23 23
-18.7 -15.2 12.3 25 25 25
-18.4 -15.2 12.3 112 112 112
-18.1 -15.2 12.3 67 68 66
-17.8 -15.2 12.3 52 52 52
-17.5 -15.2 12.3 101 101 101
-17.3 -15.2 12.4 40 42 42
-15.5 -15.2 12.3 90 90 90
-13.8 -15.2 12.3 100 99 97
-9.3 -13.6 11.1 42 43 42
-18.0 -33.8 27.5 91 93 92
-17.0 -33.2 26.9 93 93 93
-16.4 -33.3 27.0 81 81 81
477.9 -294.7 239.4 214 214 214
70.7 -23.1 18.8 112 112 112
-35.0 -15.0 12.4 87 87 87
-34.8 -15.0 12.5 98 97 95
-34.5 -15.0 12.5 160 163 162
-34.2 -15.1 12.5 100 99 97
-33.9 -15.0 12.5 140 140 140
-33.6 -15.0 12.5 161 161 161
-33.4 -15.1 12.5 204 207 206
-33.1 -15.0 12.5 146 148 148
-32.8 -15.0 12.5 195 198 197
-32.5 -15.0 12.5 195 198 197
-32.2 -15.0 12.5 109 109 109
-31.9 -15.0 12.5 67 68 66
-31.6 -15.0 12.5 70 70 70
-31.3 -15.0 12.5 72 72 72
-31.0 -15.1 12.5 72 72 72
-30.2 -15.1 12.5 56 56 56
-29.9 -15.0 12.5 36 37 36
-29.6 -15.1 12.5 25 25 25
-29.3 -15.0 12.5 17 21 18
-29.0 -15.0 12.4 17 17 17
-28.7 -15.0 12.4 17 21 18
-28.4 -15.0 12.5 25 25 25
-28.1 -15.0 12.4 126 129 128
-27.7 -15.0 12.4 150 152 152
-27.4 -15.0 12.4 119 119 119
-27.2 -15.0 12.4 146 146 146
-26.9 -15.0 12.4 141 141 141
-26.7 -15.1 12.5 179 182 181
-26.4 -15.0 12.5 136 138 137
-26.1 -15.1 12.5 149 149 149
-25.3 -15.1 12.5 116 118 117
-25.0 -15.1 12.5 97 97 97
-24.6 -15.0 12.5 27 27 27
-24.4 -15.0 12.5 27 27 27
-24.1 -15.1 12.5 38 40 40
-23.9 -15.1 12.5 47 47 47
-23.5 -15.0 12.5 40 40 40
-23.2 -15.0 12.5 16 20 17
-22.9 -15.0 12.5 40 40 40
-22.6 -15.0 12.5 51 51 51
-22.4 -15.1 12.5 53 53 53
-22.2 -15.1 12.5 53 53 53
-21.8 -15.1 12.5 53 53 53
-21.5 -15.0 12.5 51 51 51
-21.2 -15.1 12.5 51 51 51
-20.9 -15.1 12.5 49 49 49
-20.6 -15.1 12.5 44 43 42
-20.3 -15.0 12.5 39 41 41
-20.0 -15.0 12.5 27 29 27
-19.7 -15.0 12.5 31 30 29
-19.4 -15.0 12.5 85 87 87
-19.1 -15.0 12.5 23 23 23
-18.8 -15.0 12.4 25 25 25
-18.5 -15.0 12.4 25 25 25
-18.3 -15.1 12.5 25 25 25
-18.0 -15.0 12.5 26 26 26
-17.8 -15.1 12.5 112 114 113
-17.4 -15.1 12.5 38 38 38
-17.1 -15.1 12.5 71 71 71
-16.9 -15.1 12.5 53 53 53
-16.5 -15.0 12.5 34 34 34
-16.3 -15.1 12.5 36 37 36
-16.0 -15.1 12.5 49 49 49
-15.7 -15.0 12.5 124 127 126
-14.9 -15.1 12.5 125 125 125
-14.5 -15.0 12.5 63 64 62
-14.3 -15.1 12.5 37 40 39
-13.9 -15.0 12.4 112 112 112
-20.3 -36.1 29.9 132 132 132
-18.9 -34.9 28.9 96 96 96
-18.6 -37.1 30.7 65 65 65
50.2 -16.7 13.9 107 107 107
50.3 -16.7 13.8 108 108 108
-35.3 -14.8 12.5 110 110 110
-29.8 -14.9 12.5 29 31 29
-29.5 -14.8 12.5 25 25 25
-29.1 -14.8 12.5 19 23 20
-28.8 -14.8 12.5 25 25 25
-28.5 -14.8 12.5 19 23 20
-28.3 -14.8 12.5 106 106 106
-27.9 -14.8 12.5 149 151 151
-27.3 -14.8 12.5 144 144 144
-27.1 -14.8 12.5 149 149 149
-26.9 -14.9 12.5 149 151 151
-26.6 -14.8 12.5 128 130 129
-24.0 -14.9 12.6 51 51 51
-23.1 -14.8 12.5 45 45 45
-22.7 -14.8 12.5 53 53 53
-22.5 -14.8 12.5 53 53 53
-22.3 -14.9 12.6 53 53 53
-21.9 -14.9 12.5 53 53 53
-21.6 -14.9 12.6 53 53 53
-21.3 -14.9 12.6 49 49 49
-21.1 -14.9 12.6 49 49 49
-20.8 -14.9 12.6 47 48 47
-20.4 -14.8 12.5 44 43 42
-20.1 -14.8 12.5 33 33 33
-19.9 -14.8 12.5 32 31 30
-19.5 -14.8 12.5 83 84 82
-19.2 -14.8 12.5 35 35 35
-19.0 -14.8 12.5 45 45 45
-18.7 -14.8 12.5 90 90 90
-18.4 -14.9 12.5 127 127 127
-18.1 -14.9 12.5 129 129 129
-17.8 -14.9 12.6 104 103 101
-17.5 -14.9 12.6 34 34 34
-16.7 -14.9 12.6 151 153 153
-16.1 -14.9 12.6 57 56 55
-15.7 -14.8 12.5 17 21 18
-14.4 -14.9 12.6 23 23 23
-14.0 -14.8 12.5 23 23 23
-20.9 -36.6 30.9 124 126 125
-19.0 -37.0 31.2 87 87 87
-20.7 -41.9 35.4 42 42 40
50.5 -16.5 13.9 106 106 106
50.5 -16.4 13.9 106 106 106
51.5 -16.6 14.0 102 104 104
-26.7 -13.7 11.8 99 99 99
-26.2 -13.6 11.7 155 155 155
-25.9 -13.7 11.8 141 141 141
-24.0 -42.6 36.7 95 95 95
-22.6 -41.7 35.9 95 95 95
-22.2 -42.4 36.5 104 104 104
-21.4 -42.5 36.6 90 90 90
-20.2 -41.9 36.1 126 126 126
51.6 -16.3 14.1 97 97 97
52.0 -16.3 14.1 87 87 87
-25.4 -13.3 11.7 185 185 185
-25.7 -43.1 37.9 123 125 124
-24.4 -42.5 37.4 96 96 96
-23.3 -42.0 36.9 96 99 98
-22.6 -42.4 37.2 80 83 82
-21.8 -42.5 37.4 113 114 113
-20.7 -42.0 36.9 123 123 123
-25.0 -42.7 38.3 97 100 99
-23.8 -42.1 37.8 95 98 97
-23.2 -42.5 38.1 110 110 110
-22.1 -42.2 37.8 26 25 24
-21.0 -41.7 37.4 31 33 33
-25.7 -44.5 40.8 100 100 100
-24.2 -43.5 39.9 109 109 109
-22.5 -42.0 38.4 11 11 11
1025.0 -344.0 315.3 40 40 40
-26.7 -45.3 42.4 101 101 101
-24.9 -43.8 41.0 107 107 107
-23.3 -42.6 39.9 19 19 19
1160.4 -381.2 356.9 41 43 41
-8.9 -11.3 10.9 205 208 207
-29.7 -49.2 47.1 102 102 102
-29.1 -52.0 49.8 21 21 21
-29.5 -55.0 52.7 23 24 23
-26.8 -52.1 49.9 23 24 23
-8.9 -11.1 10.9 205 208 207
-35.3 -55.2 54.0 96 99 98
-31.4 -50.8 49.8 101 101 101
-31.8 -53.5 52.4 114 116 115
-30.3 -52.9 51.8 21 21 21
-30.2 -55.0 53.9 23 24 23
-28.6 -54.4 53.3 109 109 109
-8.8 -10.8 10.8 204 207 206
-37.9 -57.9 58.0 94 97 96
-32.7 -53.8 53.9 116 118 117
-31.4 -53.6 53.7 45 45 45
-31.7 -56.4 56.5 20 20 20
-30.8 -57.2 57.3 155 155 155
352.8 -168.6 168.9 182 182 182
271.8 -128.5 128.7 194 194 194
229.5 -107.3 107.5 200 200 200
-8.8 -10.5 10.8 204 207 206
-48.7 -81.2 83.3 45 45 45
-43.5 -75.6 77.5 20 20 20
212.6 -97.1 99.6 200 200 200
-8.8 -10.3 10.8 203 205 205
-49.3 -80.4 84.4 30 29 29
-45.7 -77.6 81.5 26 25 24
-50.1 -88.7 93.2 160 163 162
-43.6 -80.7 84.8 181 181 181
202.0 -90.0 94.6 200 200 200
163.3 -72.0 75.7 200 200 200
-8.9 -10.1 10.8 204 207 206
-49.8 -79.1 85.2 29 29 29
-47.4 -78.4 84.4 20 20 20
-49.4 -85.3 91.8 157 157 157
-43.2 -78.1 84.1 180 180 180
264.6 -116.3 125.3 195 195 195
202.0 -87.8 94.6 198 198 198
163.3 -70.3 75.7 200 200 200
130.2 -55.4 59.7 200 200 200
-9.3 -10.0 11.1 36 36 36
-60.8 -90.6 100.1 107 107 107
-51.4 -79.6 88.0 27 27 27
-49.1 -79.3 87.6 22 22 22
-49.6 -83.5 92.3 172 174 174
-45.3 -79.6 88.0 182 185 184
311.1 -134.8 148.9 180 180 180
264.6 -113.4 125.3 186 186 186
183.6 -77.8 86.0 197 197 197
167.4 -70.2 77.5 200 200 200
-8.8 -9.5 10.8 200 200 200
-71.8 -104.3 118.2 101 101 101
-56.4 -85.1 96.5 30 29 29
-53.8 -84.7 96.0 31 33 33
-53.5 -87.8 99.6 164 164 164
179.5 -74.2 84.1 197 197 197
161.4 -65.9 74.8 200 200 200
-8.9 -9.3 10.9 206 206 206
-85.7 -121.2 141.2 94 94 94
177.2 -71.2 83.0 195 195 195
156.5 -62.2 72.5 199 199 199
131.0 -51.6 60.1 200 200 200
144.0 -38.9 45.3 64 64 64
-8.9 -9.1 10.9 202 204 204
178.7 -69.9 83.7 191 191 191
133.1 -51.0 61.0 199 199 199
-43.2 -12.5 15.4 128 128 128
-42.9 -12.5 15.4 128 128 128
-42.5 -12.5 15.4 112 112 112
-42.2 -12.5 15.4 97 96 94
-41.8 -12.5 15.4 75 76 74
-41.4 -12.5 15.4 78 80 78
-41.1 -12.5 15.4 78 80 78
-40.7 -12.5 15.4 81 83 80
-40.4 -12.5 15.4 75 75 75
-40.0 -12.5 15.4 40 40 40
-39.7 -12.5 15.4 98 97 95
-46.0 -19.3 23.8 58 59 59
-29.8 -12.7 15.6 49 49 49
-29.0 -12.5 15.4 19 23 20
-9.3 -9.0 11.0 50 49 48
-221.0 -307.3 378.3 26 25 24
-182.9 -264.9 326.1 27 27 27
22.5 -10.6 13.1 219 222 221
27.2 -12.7 15.6 219 222 221
27.4 -12.6 15.6 219 222 221
90.7 -33.0 40.7 200 200 200
-47.1 -19.0 24.1 58 59 59
-46.1 -18.8 23.9 58 59 59
-36.7 -19.1 24.2 128 128 128
-9.3 -8.7 11.1 42 42 42
-8.9 -8.6 10.9 198 198 198
170.9 -233.2 295.6 224 226 226
271.5 -298.5 378.3 222 222 222
23.0 -10.6 13.4 219 222 221
27.3 -12.2 15.5 219 222 221
204.0 -75.4 95.5 186 186 186
88.6 -31.4 39.7 198 198 198
-68.4 -18.6 24.3 184 184 184
-68.5 -18.8 24.5 163 163 163
-68.0 -18.8 24.6 87 89 88
-67.4 -18.8 24.5 172 174 174
-66.7 -18.8 24.5 77 79 77
-66.2 -18.8 24.5 78 80 78
-65.5 -18.7 24.5 75 77 75
-56.0 -18.8 24.6 73 74 72
-55.6 -18.9 24.6 74 75 73
-55.2 -18.9 24.7 74 75 73
-54.9 -19.0 24.8 75 76 74
-54.0 -18.9 24.7 78 78 78
-51.7 -18.7 24.4 146 146 146
-50.7 -18.5 24.2 123 125 124
-50.4 -18.6 24.3 123 125 124
-49.3 -18.9 24.6 62 61 60
-49.1 -19.0 24.8 59 59 59
-48.2 -18.9 24.6 59 59 59
-46.9 -18.6 24.3 57 57 57
-38.4 -19.1 25.0 122 124 123
-37.3 -18.9 24.6 176 176 176
-36.1 -18.6 24.3 109 109 109
-8.9 -8.3 10.9 198 201 200
23.0 -10.4 13.6 219 222 221
23.1 -10.3 13.4 219 222 221
27.4 -11.9 15.6 219 222 221
194.2 -69.6 90.9 163 163 163
170.1 -60.4 78.8 191 191 191
-68.4 -18.7 25.1 73 73 73
-67.8 -18.7 25.1 78 80 78
-67.1 -18.6 25.1 75 77 75
-57.5 -18.7 25.2 74 75 73
-56.8 -18.7 25.2 74 75 73
-56.3 -18.7 25.2 77 77 77
-55.8 -18.7 25.2 78 78 78
-55.0 -18.7 25.1 83 83 83
-54.2 -18.6 25.1 75 76 74
-53.8 -18.7 25.1 147 149 149
-53.2 -18.7 25.1 147 149 149
-49.8 -18.7 25.2 54 54 54
-49.1 -18.7 25.1 42 43 42
-39.5 -18.8 25.3 136 136 136
-38.7 -18.7 25.2 149 149 149
-9.3 -8.2 11.0 48 48 48
-8.9 -8.1 10.9 198 201 200
24.4 -11.0 14.8 218 221 220
23.3 -10.2 13.7 219 222 221
152.4 -52.4 70.6 197 197 197
128.2 -43.6 58.7 195 195 195
90.7 -30.2 40.7 197 197 197
-68.6 -18.1 25.2 80 82 79
-56.9 -18.1 25.2 77 77 77
-56.6 -18.2 25.3 75 76 74
-56.1 -18.3 25.4 75 77 75
-55.1 -18.1 25.2 75 77 75
-54.5 -18.1 25.2 75 77 75
-53.9 -18.1 25.2 75 77 75
-53.3 -18.1 25.2 79 79 79
-50.0 -18.2 25.3 53 52 52
-49.2 -18.1 25.2 43 45 45
-47.8 -17.8 24.8 46 46 46
-40.4 -18.4 25.5 118 118 118
-39.8 -18.3 25.5 141 141 141
-38.8 -18.2 25.3 136 138 137
-37.9 -18.0 25.0 114 116 115
-9.3 -7.9 11.0 51 50 48
-8.9 -7.8 10.9 194 194 194
24.3 -10.6 14.8 218 221 220
23.3 -9.8 13.6 219 222 221
125.8 -41.5 57.7 193 193 193
90.8 -29.3 40.8 195 195 195
-40.8 -18.2 26.2 144 146 146
-39.2 -17.8 25.5 148 148 148
-9.3 -7.7 11.0 53 53 53
-8.9 -7.5 10.8 196 199 198
163.2 -196.5 282.3 222 222 222
26.0 -10.0 14.4 219 222 221
100.0 -31.6 45.4 194 194 194
90.5 -28.3 40.6 195 195 195
-8.9 -7.3 10.9 195 195 195
-8.4 -7.4 11.0 190 190 190
23.9 -9.6 14.3 219 222 221
24.0 -9.5 14.2 219 222 221
25.7 -9.7 14.4 219 222 221
25.8 -9.6 14.3 219 222 221
25.9 -9.5 14.1 219 222 221
128.6 -39.6 58.9 193 193 193
117.8 -36.0 53.4 194 194 194
158.9 -43.4 64.6 229 228 226
146.4 -39.6 58.9 87 89 88
20.4 -8.2 12.6 219 222 221
23.9 -9.3 14.3 219 222 221
24.0 -9.2 14.2 219 222 221
25.7 -9.3 14.4 220 223 222
25.8 -9.3 14.3 220 220 220
25.8 -9.2 14.1 220 223 222
148.0 -44.5 68.5 175 177 177
151.4 -42.4 65.2 200 200 200
208.3 -57.1 88.0 204 204 204
165.7 -45.0 69.3 204 204 204
161.1 -42.5 65.5 235 235 235
150.6 -39.4 60.6 100 102 102
20.5 -7.9 12.6 219 222 221
24.0 -9.0 14.4 220 223 222
24.0 -8.9 14.2 220 223 222
25.8 -9.0 14.4 220 223 222
26.0 -9.0 14.4 220 220 220
25.9 -8.8 14.1 220 223 222
179.5 -52.7 84.1 162 165 164
162.0 -47.0 75.1 176 179 178
192.4 -52.4 83.7 198 198 198
199.1 -52.7 84.1 202 202 202
183.1 -48.0 76.6 205 205 205
167.4 -42.6 68.0 235 235 235
154.1 -38.8 62.0 106 106 106
21.9 -8.2 13.7 220 223 222
20.6 -7.6 12.7 220 223 222
24.3 -8.9 14.8 220 223 222
23.9 -8.5 14.1 220 223 222
26.1 -8.8 14.6 222 224 224
25.8 -8.5 14.1 222 224 224
178.0 -50.3 83.3 158 158 158
164.0 -45.8 76.0 175 175 175
187.4 -49.2 81.5 196 196 196
183.7 -47.7 79.1 199 199 199
198.0 -50.9 84.4 202 202 202
198.2 -50.5 83.7 202 202 202
181.7 -45.8 76.0 205 205 205
194.6 -48.1 79.8 231 231 231
178.4 -43.7 72.5 235 238 237
22.0 -8.0 13.7 220 223 222
23.6 -8.1 13.9 222 224 224
26.4 -8.6 14.8 221 221 221
25.4 -8.0 13.9 221 221 221
25.5 -8.0 13.7 221 221 221
26.0 -8.0 13.8 221 221 221
26.2 -8.0 13.8 221 221 221
178.7 -48.5 83.7 145 147 147
161.4 -43.4 74.8 173 173 173
193.2 -48.7 84.1 196 196 196
186.9 -46.7 80.5 199 199 199
192.0 -47.5 81.9 202 202 202
199.1 -48.7 84.1 202 202 202
183.9 -44.6 76.9 205 205 205
200.3 -48.1 83.0 197 197 197
197.1 -46.9 80.8 235 235 235
182.6 -43.0 74.2 231 231 231
24.4 -8.2 14.8 222 224 224
25.2 -7.7 13.9 221 221 221
25.4 -7.7 13.9 222 222 222
25.9 -7.7 13.8 223 225 225
26.2 -7.7 13.8 223 225 225
181.1 -47.2 84.8 136 136 136
192.6 -46.2 83.0 199 199 199
203.6 -47.9 86.0 205 205 205
188.5 -43.9 78.8 207 207 207
204.0 -46.6 83.7 235 235 235
187.7 -42.5 76.3 236 236 236
24.3 -8.0 15.0 222 222 222
24.5 -7.9 14.8 222 222 222
26.3 -7.9 14.7 222 222 222
26.1 -7.7 14.4 222 222 222
25.8 -7.5 14.1 222 222 222
24.9 -7.2 13.4 222 222 222
190.9 -43.9 82.2 199 199 199
204.5 -46.1 86.4 203 203 203
185.4 -41.3 77.5 205 205 205
204.0 -44.6 83.7 234 234 234
191.6 -41.5 77.8 236 236 236
24.2 -7.6 14.9 222 222 222
24.4 -7.5 14.8 222 222 222
24.3 -7.4 14.5 222 222 222
26.2 -7.5 14.6 222 222 222
26.1 -7.4 14.4 222 222 222
25.1 -6.9 13.5 224 224 224
215.3 -46.4 90.9 203 203 203
183.1 -39.1 76.6 206 206 206
24.1 -7.2 14.8 224 224 224
24.3 -7.2 14.8 224 224 224
24.3 -7.1 14.6 224 224 224
26.2 -7.1 14.6 224 224 224
26.1 -7.0 14.4 224 224 224
25.2 -6.6 13.6 224 224 224
25.9 -6.7 13.8 224 224 224
26.2 -6.7 13.7 224 224 224
129.4 -28.9 59.3 184 184 184
149.4 -32.0 65.7 192 192 192
21.9 -6.3 13.7 221 221 221
24.4 -6.8 14.6 221 221 221
26.1 -6.8 14.6 222 222 222
25.3 -6.4 13.8 222 222 222
25.2 -6.3 13.6 225 225 225
25.8 -6.4 13.7 225 225 225
26.2 -6.4 13.7 225 225 225
22.0 -6.1 13.8 222 222 222
24.1 -6.3 14.4 222 222 222
26.0 -6.4 14.5 222 222 222
25.5 -6.1 13.9 222 222 222
25.6 -6.1 13.8 219 219 219
26.1 -6.1 13.9 219 219 219
26.4 -6.1 13.8 222 222 222
26.6 -6.1 13.8 222 222 222
25.8 -6.0 14.4 224 224 224
26.0 -6.0 14.4 225 225 225
26.4 -6.0 14.4 224 224 224
21.7 -5.7 14.4 220 220 220
23.7 -5.7 14.4 220 220 220
24.0 -5.7 14.4 224 224 224
24.3 -5.7 14.4 224 224 224
24.7 -5.7 14.4 224 224 224
25.6 -5.7 14.4 224 224 224
25.9 -5.6 14.3 224 224 224
26.4 -5.7 14.4 224 224 224
26.8 -5.7 14.4 224 224 224
27.2 -5.6 14.3 224 224 224
23.0 -5.3 14.4 221 221 221
25.4 -5.4 14.6 221 221 221
25.4 -5.3 14.4 221 221 221
25.7 -5.3 14.4 221 221 221
26.0 -5.3 14.4 221 221 221
26.4 -5.3 14.4 225 225 225
27.0 -5.4 14.5 221 221 221
27.4 -5.3 14.4 225 225 225
25.8 -5.2 15.0 222 222 222
25.7 -5.1 14.8 222 222 222
26.0 -5.1 14.7 222 222 222
26.3 -5.1 14.7 222 222 222
26.5 -5.1 14.6 222 222 222
27.0 -5.1 14.7 222 222 222
27.5 -5.1 14.8 222 222 222
28.9 -5.1 14.8 226 226 226
29.2 -5.1 14.8 226 226 226
29.5 -5.1 14.8 226 226 226
26.1 -4.8 14.8 222 222 222
27.2 -4.8 14.8 222 222 222
27.6 -4.8 14.8 222 222 222
28.9 -4.8 14.8 226 226 226
29.2 -4.8 14.8 226 226 226
28.6 -4.6 15.2 224 224 224
29.1 -4.6 15.3 224 224 224
28.9 -4.5 14.8 224 224 224
25.1 -4.0 14.2 225 225 225
26.1 -4.0 14.2 225 225 225
29.2 -4.2 15.1 225 225 225
29.1 -4.1 14.9 225 225 225
28.2 -4.0 14.3 225 225 225
28.4 -4.0 14.2 225 225 225
17.4 -3.7 14.5 32 32 32
25.5 -3.7 14.5 221 221 221
26.4 -3.7 14.4 222 222 222
26.8 -3.7 14.5 222 222 222
28.7 -3.7 14.7 225 225 225
28.5 -3.7 14.4 225 225 225
28.8 -3.7 14.4 225 225 225
29.8 -3.7 14.4 217 220 219
17.4 -3.4 14.8 38 38 38
17.5 -3.4 14.5 48 50 48
25.4 -3.4 14.6 222 222 222
25.7 -3.4 14.6 222 222 222
25.9 -3.4 14.5 222 222 222
26.1 -3.3 14.4 222 222 222
26.5 -3.3 14.4 222 222 222
27.0 -3.4 14.6 222 222 222
27.4 -3.4 14.6 222 222 222
27.7 -3.4 14.6 226 226 226
28.3 -3.4 14.7 222 222 222
28.7 -3.4 14.7 222 222 222
28.7 -3.4 14.6 226 226 226
28.9 -3.4 14.5 226 226 226
30.0 -3.4 14.5 218 221 220
17.4 -3.1 14.8 38 38 38
17.2 -2.9 14.0 102 104 104
25.5 -3.0 14.7 224 224 224
25.8 -3.0 14.6 224 224 224
28.3 -3.1 14.7 226 226 226
28.7 -3.1 14.7 226 226 226
30.1 -3.0 14.6 218 221 220
29.2 -2.9 14.0 161 164 163
17.4 -2.7 14.7 38 40 38
17.2 -2.6 14.0 136 136 136
26.0 -2.6 14.2 224 224 224
28.3 -2.7 14.7 224 224 224
28.6 -2.7 14.7 224 224 224
28.7 -2.6 14.0 219 222 221
29.3 -2.6 14.0 166 166 166
365.9 -30.6 165.9 154 154 154
363.7 -27.3 147.8 219 222 221
338.1 -25.1 136.1 108 110 110
17.5 -2.4 14.8 37 38 37
17.3 -2.3 14.0 138 138 138
25.9 -2.4 14.7 225 225 225
26.0 -2.3 14.5 225 225 225
25.9 -2.3 14.3 225 225 225
26.2 -2.3 14.3 225 225 225
26.8 -2.3 14.5 225 225 225
28.4 -2.4 14.7 225 225 225
28.7 -2.4 14.7 225 225 225
28.9 -2.3 14.3 225 225 225
29.3 -2.3 14.0 167 167 167
339.1 -24.8 153.8 156 159 158
263.5 -19.1 118.2 190 190 190
311.6 -20.6 127.8 219 222 221
296.5 -19.5 120.5 205 205 205
301.2 -19.6 121.3 108 110 110
382.2 -19.8 122.8 56 55 54
375.3 -19.3 119.7 70 69 68
373.4 -19.1 118.2 80 80 80
376.1 -19.1 118.2 75 75 75
378.9 -19.1 118.2 60 60 60
381.6 -19.1 118.2 30 29 29
17.4 -2.0 14.4 60 62 61
25.7 -2.0 14.6 220 223 222
25.8 -2.0 14.4 220 223 222
25.9 -2.0 14.3 225 225 225
26.2 -2.0 14.3 225 225 225
26.8 -2.0 14.4 225 225 225
26.9 -2.0 14.3 225 225 225
27.2 -2.0 14.3 225 225 225
28.2 -2.0 14.6 225 225 225
28.5 -2.0 14.6 225 225 225
28.3 -2.0 14.4 225 225 225
28.7 -2.0 14.4 225 225 225
28.9 -2.0 14.3 225 225 225
29.8 -2.0 14.4 220 223 222
29.5 -2.0 14.1 173 173 173
30.9 -2.0 14.5 154 156 156
268.5 -16.7 120.5 191 191 191
290.9 -16.3 118.2 209 209 209
297.4 -16.5 119.7 96 99 98
375.3 -16.5 119.7 137 139 138
25.4 -1.7 14.4 222 224 224
25.7 -1.7 14.4 222 224 224
25.8 -1.6 14.3 222 224 224
26.1 -1.6 14.3 222 224 224
26.7 -1.7 14.4 226 226 226
26.8 -1.6 14.3 226 226 226
27.1 -1.6 14.2 226 226 226
27.8 -1.7 14.4 226 226 226
28.2 -1.7 14.5 220 223 222
28.1 -1.6 14.3 226 226 226
28.7 -1.7 14.4 226 226 226
28.8 -1.6 14.3 220 223 222
29.4 -1.7 14.4 220 223 222
29.7 -1.7 14.4 220 223 222
29.4 -1.6 14.1 168 168 168
30.7 -1.7 14.4 182 182 182
799.2 -35.6 310.1 68 71 70
25.4 -1.3 14.4 222 224 224
25.7 -1.3 14.4 222 224 224
26.1 -1.3 14.3 222 224 224
26.7 -1.3 14.4 226 226 226
26.8 -1.3 14.2 222 224 224
27.8 -1.3 14.4 222 224 224
28.2 -1.3 14.5 222 224 224
28.3 -1.3 14.4 222 224 224
29.0 -1.3 14.3 222 224 224
28.5 -1.3 14.0 222 224 224
29.7 -1.3 14.4 222 224 224
29.2 -1.3 14.0 172 172 172
30.7 -1.3 14.4 192 192 192
937.5 -33.4 363.8 73 73 73
16.6 -1.0 14.3 36 37 36
17.1 -1.0 14.4 42 42 42
25.0 -1.0 14.4 223 225 225
25.3 -1.0 14.4 223 225 225
25.7 -1.0 14.4 223 225 225
26.2 -1.0 14.3 223 225 225
26.7 -1.0 14.4 223 225 225
26.9 -1.0 14.3 223 225 225
28.9 -1.0 14.3 222 224 224
29.6 -1.0 14.3 222 224 224
29.1 -1.0 13.9 172 172 172
30.5 -1.0 14.3 195 195 195
25.3 -0.6 14.4 223 225 225
26.7 -0.6 14.4 223 225 225
26.9 -0.6 14.3 223 225 225
29.6 -0.6 14.3 223 225 225
30.5 -0.6 14.3 198 198 198
26.8 -0.3 14.3 224 226 226
28.1 -0.3 13.3 194 194 194
30.4 -0.3 14.3 199 199 199
-25.9 0.0 16.4 21 24 22
30.3 0.0 14.2 197 197 197
-25.8 0.4 16.3 21 24 22
30.4 0.3 14.2 200 200 200
-25.6 0.8 16.2 21 24 22
30.5 0.7 14.3 200 200 200
-25.4 1.1 16.0 20 23 21
-24.1 1.1 15.4 21 24 22
-23.2 1.1 15.1 21 24 22
30.5 1.0 14.3 202 202 202
80.0 1.5 21.8 94 97 96
77.6 1.5 21.0 87 87 87
-24.1 1.5 15.4 20 23 21
79.5 2.0 21.7 95 98 97
77.5 2.0 21.0 88 88 88
81.7 2.1 21.8 86 85 83
81.1 2.0 21.5 92 92 92
81.7 2.0 21.6 92 92 92
79.6 2.6 21.8 123 123 123
79.7 2.6 21.7 95 98 97
77.6 2.5 21.0 88 88 88
82.1 2.6 21.9 87 86 84
81.9 2.6 21.8 88 88 88
81.4 2.5 21.5 94 94 94
80.2 3.1 21.9 95 95 95
77.6 3.0 21.0 89 89 89
83.1 3.1 22.2 87 87 85
82.4 3.1 21.9 93 93 93
82.4 3.1 21.8 90 90 90
84.7 3.7 22.7 87 87 85
82.8 3.6 22.0 96 96 96
84.7 3.7 22.4 97 100 99
88.1 4.4 23.6 86 85 83
87.8 4.3 23.2 97 100 99
-24.0 3.6 15.4 214 216 216
-25.3 4.1 16.0 97 97 97
-24.1 4.0 15.4 130 130 130
-25.2 4.5 15.9 27 27 27
-24.2 4.3 15.5 27 27 27
-10.9 3.6 13.0 181 181 181
-23.9 4.6 15.3 21 24 22
-23.1 4.6 15.0 21 24 22
-10.8 3.9 12.9 175 175 175
-10.2 4.1 12.6 181 181 181
-10.2 4.4 12.5 181 181 181
-9.9 4.3 12.4 181 184 183
-10.1 4.6 12.4 189 189 189
-9.8 4.6 12.3 181 181 181
-2.6 4.6 12.4 177 177 177
-229.2 114.6 189.2 81 81 81
-200.7 102.3 168.9 47 48 47
-176.3 91.6 151.3 36 37 36
-174.2 92.4 152.6 64 65 63
-165.3 89.5 147.8 68 68 68
-161.9 89.5 147.8 67 67 67
81.0 118.1 195.0 59 60 58
64.8 89.5 147.8 65 65 65
62.0 81.2 134.2 71 72 70
-237.1 177.5 282.3 148 148 148
154.6 247.8 394.1 56 56 56
84.5 127.9 203.4 60 62 60
81.4 116.6 185.5 67 67 67
136.3 154.5 245.7 27 28 26
-1015.7 237.2 363.8 41 41 41
-1007.3 237.2 363.8 35 35 35
-998.8 237.2 363.8 34 33 32
-990.4 237.2 363.8 36 37 36
-981.9 237.2 363.8 90 90 90
-973.4 237.2 363.8 125 125 125
-965.0 237.2 363.8 126 126 126
-956.5 237.2 363.8 116 118 117
-948.1 237.2 363.8 115 114 114
-939.6 237.2 363.8 115 114 114
-931.2 237.2 363.8 115 114 114
-922.7 237.2 363.8 115 115 115
-914.3 237.2 363.8 118 120 119
-923.6 241.9 370.9 119 121 120
-897.3 237.2 363.8 119 121 120
-888.9 237.2 363.8 120 122 121
-880.4 237.2 363.8 120 122 121
-872.0 237.2 363.8 120 122 121
-863.5 237.2 363.8 116 116 116
-855.1 237.2 363.8 110 112 111
-846.6 237.2 363.8 132 135 134
-838.2 237.2 363.8 157 157 157
-829.7 237.2 363.8 111 111 111
-821.2 237.2 363.8 100 100 100
-812.8 237.2 363.8 100 100 100
-804.3 237.2 363.8 107 107 107
-795.9 237.2 363.8 112 112 112
-787.4 237.2 363.8 114 116 115
-779.0 237.2 363.8 119 119 119
-770.5 237.2 363.8 122 122 122
-762.1 237.2 363.8 132 132 132
-712.5 224.3 343.9 138 140 139
-759.8 241.9 370.9 150 152 152
-798.1 257.0 394.1 168 168 168
-757.4 246.7 378.3 174 174 174
-706.2 232.7 356.9 171 170 169
-725.3 241.9 370.9 157 157 157
-716.7 241.9 370.9 138 140 139
-668.7 228.4 350.3 130 130 130
-686.0 237.2 363.8 124 127 126
-677.5 237.2 363.8 117 117 117
-669.0 237.2 363.8 118 118 118
-660.6 237.2 363.8 117 117 117
-628.0 228.4 350.3 122 122 122
-631.5 232.7 356.9 114 116 115
-623.2 232.7 356.9 112 112 112
-679.0 257.0 394.1 110 110 110
-584.6 224.3 343.9 109 109 109
-609.9 237.2 363.8 113 115 114
-601.4 237.2 363.8 123 125 124
-592.9 237.2 363.8 132 132 132
-584.5 237.2 363.8 134 137 136
-576.0 237.2 363.8 134 137 136
-567.6 237.2 363.8 146 146 146
-559.1 237.2 363.8 148 150 150
-550.7 237.2 363.8 169 168 167
-542.2 237.2 363.8 172 172 172
-533.8 237.2 363.8 154 154 154
-525.3 237.2 363.8 159 159 159
-516.9 237.2 363.8 136 138 137
-508.4 237.2 363.8 134 136 135
-499.9 237.2 363.8 123 125 124
-491.5 237.2 363.8 124 127 126
-483.0 237.2 363.8 110 110 110
-474.6 237.2 363.8 90 90 90
-466.1 237.2 363.8 94 94 94
-457.7 237.2 363.8 99 98 96
-449.2 237.2 363.8 88 88 86
-440.8 237.2 363.8 83 83 83
-432.3 237.2 363.8 38 38 38
-423.8 237.2 363.8 36 36 36
-415.4 237.2 363.8 103 105 105
-406.9 237.2 363.8 120 120 120
-398.5 237.2 363.8 128 128 128
-390.0 237.2 363.8 139 139 139
-381.6 237.2 363.8 126 126 126
-373.1 237.2 363.8 129 129 129
-371.8 241.9 370.9 97 97 97
-363.2 241.9 370.9 140 140 140
-334.9 228.4 350.3 149 151 151
-332.9 232.7 356.9 132 132 132
-324.6 232.7 356.9 121 123 122
-322.4 237.2 363.8 165 168 167
-313.9 237.2 363.8 164 167 166
-311.5 241.9 370.9 159 159 159
-308.9 246.7 378.3 100 100 100
-294.2 241.9 370.9 139 141 140
-273.7 246.7 378.3 96 99 98
-249.9 232.7 356.9 101 101 101
-256.1 246.7 378.3 89 89 89
-233.3 232.7 356.9 68 70 69
-220.9 228.4 350.3 119 119 119
-225.2 241.9 370.9 159 162 161
-216.6 241.9 370.9 165 165 165
-200.2 232.7 356.9 163 163 163
-191.9 232.7 356.9 166 169 168
-187.1 237.2 363.8 203 203 203
-178.6 237.2 363.8 224 224 224
-170.2 237.2 363.8 206 206 206
-161.7 237.2 363.8 208 211 210
-153.3 237.2 363.8 211 211 211
-144.8 237.2 363.8 211 211 211
-136.4 237.2 363.8 203 205 205
-127.9 237.2 363.8 215 215 215
-119.4 237.2 363.8 220 220 220
-120.2 257.0 394.1 227 227 227
-108.8 251.7 386.0 231 231 231
-75.7 232.7 356.9 236 236 236
-33.6 228.4 350.3 229 229 229
-24.6 220.3 337.8 229 229 229
-17.6 232.7 356.9 227 227 227
-9.0 224.3 343.9 218 218 218
-1.0 212.7 326.1 208 211 210
7.1 228.4 350.3 199 199 199
154.6 257.0 394.1 56 56 56
131.0 205.6 315.3 61 63 61
162.7 241.9 370.9 69 69 69
145.6 205.6 315.3 73 73 73
166.9 224.3 343.9 75 77 75
188.6 241.9 370.9 75 76 76
182.9 224.3 343.9 73 73 73
174.9 205.6 315.3 25 25 25
198.8 224.3 343.9 58 58 58
210.7 228.4 350.3 71 72 70
227.2 237.2 363.8 71 72 70
18.1 15.7 10.4 67 67 67
