ply
format ascii 1.0
element vertex 2366
property float x
property float y
property float z
property uchar red
property uchar green
property uchar blue
end_header
173.0 -334.2 133.2 161 161 161
106.9 -172.6 68.8 157 160 159
108.9 -173.2 69.0 158 161 160
110.1 -172.6 68.8 155 158 157
109.7 -169.5 67.6 156 159 158
45.2 -61.8 24.6 157 157 157
137.9 -105.7 42.1 103 102 100
138.3 -105.2 41.9 103 102 100
139.0 -105.0 41.9 103 102 100
57.4 -38.5 15.4 182 185 184
43.3 -172.2 69.3 161 161 161
44.9 -172.2 69.3 161 161 161
46.5 -172.2 69.3 163 163 163
48.1 -172.2 69.3 163 163 163
49.7 -172.2 69.3 166 166 166
51.3 -172.2 69.3 167 167 167
52.9 -172.2 69.3 167 167 167
54.6 -172.2 69.3 167 167 167
56.2 -172.2 69.3 167 167 167
57.8 -172.2 69.3 167 167 167
59.4 -172.2 69.3 167 167 167
61.0 -172.2 69.3 167 167 167
62.8 -172.9 69.5 167 167 167
64.5 -172.9 69.5 167 167 167
65.8 -172.2 69.3 168 168 168
67.7 -172.9 69.5 165 165 165
69.0 -172.2 69.3 165 165 165
70.4 -171.6 69.0 165 165 165
72.0 -171.6 69.0 162 162 162
73.3 -171.0 68.8 162 162 162
75.5 -172.2 69.3 163 163 163
77.1 -172.2 69.3 163 163 163
78.1 -171.0 68.8 163 163 163
80.0 -171.6 69.0 163 163 163
81.9 -172.2 69.3 163 163 163
82.9 -171.0 68.8 163 163 163
84.8 -171.6 69.0 163 163 163
87.1 -172.9 69.5 163 163 163
88.1 -171.6 69.0 163 163 163
88.4 -169.1 68.0 163 163 163
92.6 -174.2 70.1 163 163 163
93.6 -172.9 69.5 163 163 163
95.2 -172.9 69.5 163 163 163
97.9 -174.8 70.3 164 164 164
99.9 -175.5 70.6 162 162 162
100.0 -172.9 69.5 162 162 162
102.8 -174.8 70.3 162 162 162
105.2 -176.1 70.8 162 162 162
104.9 -172.9 69.5 162 162 162
105.7 -171.6 69.0 157 160 159
107.7 -172.2 69.3 157 160 159
109.7 -172.9 69.5 158 161 160
111.3 -172.9 69.5 158 161 160
110.5 -169.1 68.0 158 161 160
45.5 -61.6 24.8 159 162 161
46.3 -62.0 25.0 160 163 162
47.0 -62.1 25.0 160 163 162
47.3 -61.8 24.9 160 163 162
47.8 -61.7 24.8 159 159 159
137.9 -105.4 42.4 103 102 100
134.4 -102.0 41.0 103 102 100
56.1 -38.2 15.4 162 165 164
57.8 -38.2 15.4 196 199 198
67.0 -43.5 17.5 182 185 184
68.6 -151.7 61.6 163 163 163
84.5 -154.8 62.8 163 163 163
85.1 -153.2 62.2 163 163 163
90.1 -154.2 62.6 162 162 162
97.0 -158.4 64.3 164 164 164
94.3 -151.7 61.6 164 164 164
98.3 -155.8 63.3 162 162 162
102.9 -160.6 65.2 163 163 163
103.0 -158.4 64.3 163 163 163
102.7 -155.8 63.3 164 164 164
46.4 -62.3 25.3 159 162 161
47.3 -62.7 25.5 160 163 162
47.9 -62.8 25.5 160 163 162
48.4 -62.7 25.5 160 163 162
48.8 -62.4 25.3 161 164 163
124.9 -93.9 38.1 103 102 100
120.9 -90.3 36.7 98 100 100
87.6 -63.6 25.8 98 100 100
83.8 -60.4 24.5 98 100 100
56.2 -38.2 15.5 190 190 190
56.3 -38.0 15.4 149 151 151
56.2 -37.7 15.3 196 199 198
56.6 -37.7 15.3 196 199 198
58.0 -38.4 15.6 207 207 207
58.2 -38.3 15.6 169 169 169
58.0 -37.9 15.4 159 159 159
58.0 -37.7 15.3 212 213 212
58.4 -37.8 15.3 179 182 181
17.5 -97.6 40.0 160 160 160
18.5 -97.6 40.0 162 162 162
19.4 -97.6 40.0 162 162 162
20.3 -97.6 40.0 162 162 162
21.3 -97.6 40.0 162 162 162
22.2 -97.6 40.0 164 164 164
23.1 -97.6 40.0 163 163 163
24.1 -97.6 40.0 163 163 163
25.0 -97.6 40.0 166 166 166
25.9 -97.6 40.0 166 166 166
26.8 -97.6 40.0 166 166 166
27.8 -97.6 40.0 168 170 169
28.7 -97.6 40.0 169 171 170
29.6 -97.6 40.0 169 171 170
30.6 -97.6 40.0 167 167 167
31.5 -97.6 40.0 167 167 167
32.4 -97.6 40.0 167 167 167
33.3 -97.6 40.0 167 167 167
34.3 -97.6 40.0 167 167 167
35.2 -97.6 40.0 167 167 167
36.1 -97.6 40.0 164 164 164
37.1 -97.6 40.0 164 164 164
37.9 -97.3 39.9 164 164 164
38.8 -97.3 39.9 165 165 165
40.0 -98.0 40.2 165 165 165
41.0 -98.0 40.2 165 165 165
42.2 -98.6 40.4 165 165 165
42.6 -97.3 39.9 162 162 162
43.5 -97.3 39.9 163 163 163
44.3 -97.1 39.8 163 163 163
45.6 -98.0 40.2 163 163 163
46.6 -98.0 40.2 163 163 163
47.5 -98.0 40.2 163 163 163
48.4 -98.0 40.2 163 163 163
49.0 -97.3 39.9 163 163 163
49.9 -97.1 39.8 166 166 166
51.1 -97.8 40.1 166 166 166
52.0 -97.8 40.1 166 166 166
53.1 -98.0 40.2 166 166 166
54.1 -98.2 40.2 163 163 163
58.7 -98.0 40.2 164 164 164
60.8 -99.9 40.9 164 164 164
60.3 -97.6 40.0 164 164 164
64.4 -102.5 42.0 164 164 164
61.8 -96.9 39.7 164 164 164
47.8 -62.9 25.8 160 163 162
48.6 -63.0 25.8 160 163 162
50.6 -64.1 26.3 161 164 163
123.1 -91.7 37.6 103 102 100
115.5 -85.4 35.0 103 102 100
90.6 -65.6 26.9 98 100 100
84.1 -60.5 24.8 98 100 100
82.3 -58.8 24.1 98 100 100
55.9 -37.6 15.4 193 193 193
56.0 -37.5 15.4 154 154 154
55.3 -36.8 15.1 196 199 198
55.7 -36.8 15.1 196 196 196
58.3 -38.0 15.6 212 213 212
57.6 -37.3 15.3 209 209 209
56.7 -36.6 15.0 196 199 198
57.1 -36.6 15.0 196 199 198
57.9 -36.9 15.1 212 213 212
26.4 -88.9 36.8 169 171 170
27.3 -88.9 36.8 169 171 170
28.1 -88.9 36.8 167 167 167
29.0 -88.9 36.8 167 167 167
29.8 -88.9 36.8 167 167 167
30.7 -88.9 36.8 167 167 167
31.5 -88.9 36.8 164 164 164
32.4 -88.9 36.8 164 164 164
32.8 -87.7 36.3 164 164 164
33.6 -87.7 36.3 164 164 164
34.5 -87.7 36.3 164 164 164
35.7 -88.7 36.7 165 165 165
37.3 -88.4 36.6 165 165 165
38.2 -88.6 36.7 165 165 165
39.2 -88.9 36.8 165 165 165
39.9 -88.4 36.6 165 165 165
40.3 -87.6 36.2 165 165 165
41.0 -87.2 36.1 165 165 165
42.8 -89.3 36.9 165 165 165
43.2 -88.2 36.5 166 166 166
43.9 -88.1 36.4 169 169 169
44.5 -87.6 36.2 166 166 166
45.3 -87.4 36.2 166 166 166
46.6 -88.2 36.5 166 166 166
47.1 -87.6 36.2 163 163 163
47.9 -87.6 36.2 163 163 163
49.7 -89.3 36.9 166 166 166
54.3 -89.8 37.2 167 167 167
54.5 -88.7 36.7 167 167 167
55.8 -89.4 37.0 167 167 167
55.6 -87.7 36.3 167 167 167
56.4 -87.7 36.3 167 167 167
56.2 -86.1 35.6 168 168 168
125.7 -189.6 78.5 165 165 165
47.8 -62.3 25.8 162 165 164
48.3 -62.1 25.7 160 163 162
71.3 -89.4 37.0 161 164 163
121.0 -89.3 36.9 103 102 100
105.2 -76.6 31.7 103 102 100
83.0 -59.1 24.5 98 100 100
79.4 -56.2 23.3 95 98 97
78.1 -54.9 22.7 95 98 97
55.7 -37.2 15.4 196 196 196
54.4 -35.8 14.8 200 202 202
54.4 -35.6 14.7 196 199 198
58.1 -37.5 15.5 162 165 164
56.8 -36.5 15.1 207 207 207
55.9 -35.7 14.8 182 185 184
56.1 -35.6 14.7 215 215 215
56.6 -35.7 14.8 212 213 212
16.3 -84.6 35.4 164 164 164
17.0 -83.8 35.0 162 162 162
17.8 -83.8 35.0 164 164 164
18.8 -84.6 35.4 167 167 167
19.6 -84.6 35.4 166 166 166
20.3 -83.8 35.0 166 166 166
21.1 -83.8 35.0 168 170 169
21.9 -83.8 35.0 168 170 169
22.7 -83.8 35.0 168 170 169
23.5 -83.8 35.0 168 170 169
24.3 -83.8 35.0 168 170 169
25.1 -83.8 35.0 169 171 170
26.0 -83.8 35.0 167 167 167
26.8 -83.8 35.0 167 167 167
27.6 -83.8 35.0 167 167 167
28.4 -83.8 35.0 167 167 167
29.2 -83.8 35.0 167 167 167
30.0 -83.8 35.0 167 167 167
30.8 -83.8 35.0 167 167 167
31.7 -83.8 35.0 167 167 167
32.5 -83.8 35.0 164 164 164
33.3 -83.8 35.0 164 164 164
34.0 -83.7 35.0 168 168 168
34.8 -83.7 35.0 168 168 168
36.1 -84.6 35.4 168 168 168
36.9 -84.8 35.4 168 168 168
37.8 -84.8 35.4 168 168 168
38.4 -84.4 35.3 168 168 168
38.8 -83.5 34.9 168 168 168
39.5 -83.2 34.8 168 168 168
40.1 -82.7 34.6 168 168 168
41.2 -83.4 34.8 168 168 168
42.2 -83.8 35.0 171 173 173
42.9 -83.5 34.9 169 169 169
43.9 -83.8 35.0 171 173 173
45.0 -84.4 35.3 169 169 169
45.3 -83.5 34.9 169 169 169
46.4 -84.0 35.1 169 169 169
48.5 -86.2 36.0 171 173 173
52.6 -86.1 36.0 170 171 170
52.2 -84.1 35.2 170 171 170
53.9 -84.3 35.2 172 174 174
54.1 -83.4 34.8 170 171 170
54.8 -83.1 34.7 172 172 172
56.5 -84.4 35.3 172 172 172
47.9 -62.5 26.1 169 169 169
48.1 -62.0 25.9 167 167 167
48.4 -61.6 25.7 163 166 165
49.9 -62.7 26.2 163 166 165
133.4 -98.2 41.0 105 105 105
119.8 -87.5 36.6 105 105 105
110.6 -80.3 33.5 103 102 100
81.3 -57.4 24.0 98 100 100
79.0 -55.4 23.2 95 98 97
75.5 -52.6 22.0 95 98 97
54.0 -35.2 14.7 188 188 188
56.0 -35.6 14.9 209 209 209
55.0 -34.8 14.5 218 218 218
53.5 -33.6 14.0 219 219 219
55.7 -34.8 14.5 218 218 218
18.6 -79.5 33.5 168 170 169
19.5 -79.9 33.7 168 170 169
20.1 -79.2 33.4 168 170 169
23.9 -79.1 33.4 166 166 166
24.7 -79.1 33.4 167 167 167
25.5 -79.1 33.4 167 167 167
26.3 -79.1 33.4 167 167 167
27.1 -79.3 33.5 167 167 167
27.9 -79.2 33.4 167 167 167
28.7 -79.3 33.5 167 167 167
29.5 -79.3 33.5 167 167 167
30.2 -79.2 33.4 169 171 170
30.9 -79.1 33.4 167 167 167
31.6 -78.9 33.3 168 168 168
32.6 -79.3 33.5 170 172 172
34.8 -80.8 34.1 170 172 172
35.2 -79.9 33.7 170 172 172
35.8 -79.6 33.6 170 172 172
36.8 -80.0 33.8 170 172 172
37.3 -79.5 33.5 170 172 172
37.6 -78.5 33.1 170 172 172
38.2 -78.1 33.0 170 172 172
39.2 -78.5 33.1 171 173 173
40.3 -79.2 33.4 171 173 173
41.0 -79.1 33.4 171 173 173
43.1 -80.0 33.8 171 173 173
43.0 -78.5 33.1 174 176 176
46.7 -82.2 34.7 171 173 173
47.0 -81.3 34.3 171 173 173
48.1 -80.5 34.0 171 173 173
49.6 -81.6 34.5 172 174 174
50.3 -81.5 34.4 172 174 174
49.6 -79.2 33.4 172 174 174
52.6 -80.2 33.8 172 174 174
52.9 -79.5 33.5 173 175 175
53.9 -79.8 33.7 173 175 175
28.5 -38.8 16.4 174 174 174
49.3 -63.7 26.9 169 169 169
49.0 -62.6 26.4 176 176 176
49.2 -62.1 26.2 168 168 168
90.0 -63.8 26.9 103 102 100
80.2 -56.0 23.6 98 100 100
59.8 -40.4 17.1 92 92 92
58.0 -38.9 16.4 92 92 92
48.7 -31.0 13.1 196 196 196
48.5 -30.7 13.0 190 190 190
48.2 -30.4 12.8 212 213 212
50.4 -31.2 13.2 218 218 218
14.4 -77.1 32.8 165 165 165
15.2 -77.1 32.8 167 167 167
15.9 -77.1 32.8 167 167 167
16.7 -77.1 32.8 169 171 170
17.5 -77.1 32.8 169 171 170
18.3 -77.3 33.0 168 170 169
19.0 -77.1 32.8 168 170 169
19.7 -76.9 32.8 168 170 169
20.4 -76.7 32.7 168 170 169
21.3 -77.1 32.8 168 170 169
22.0 -77.1 32.8 168 170 169
22.8 -77.1 32.8 168 170 169
23.6 -77.1 32.8 169 171 170
24.3 -77.1 32.8 167 167 167
25.1 -77.1 32.8 169 171 170
25.9 -77.1 32.8 169 171 170
26.6 -77.1 32.8 169 171 170
27.4 -77.1 32.8 169 171 170
28.1 -77.1 32.8 169 171 170
28.7 -76.5 32.6 169 171 170
29.7 -77.2 32.9 172 174 174
30.4 -77.1 32.8 169 171 170
31.2 -77.1 32.8 169 171 170
32.0 -77.1 32.8 173 175 175
32.7 -77.1 32.8 173 175 175
33.5 -77.2 32.9 173 175 175
34.3 -77.1 32.8 170 172 172
35.0 -77.1 32.8 173 175 175
35.8 -77.2 32.9 173 175 175
36.5 -76.9 32.8 173 175 175
37.0 -76.5 32.6 173 175 175
37.7 -76.3 32.5 173 175 175
38.8 -76.9 32.8 179 179 179
39.7 -77.2 32.9 171 173 173
40.4 -77.1 32.8 179 179 179
41.1 -77.1 32.8 179 179 179
42.0 -77.2 32.9 174 176 176
42.4 -76.5 32.6 181 181 181
43.4 -77.1 32.8 174 176 176
44.4 -77.5 33.0 179 179 179
45.3 -77.6 33.1 174 176 176
45.5 -76.8 32.7 181 181 181
46.5 -77.1 32.8 179 179 179
47.1 -76.8 32.7 182 182 182
48.2 -77.3 33.0 180 180 180
48.3 -76.3 32.5 180 180 180
51.7 -78.0 33.2 180 180 180
51.5 -76.7 32.7 176 179 178
52.8 -77.3 33.0 181 181 181
53.3 -77.1 32.8 181 181 181
27.8 -38.0 16.2 182 182 182
28.0 -37.7 16.1 178 181 180
27.9 -37.1 15.8 175 177 177
56.4 -37.5 16.0 95 95 95
54.6 -36.1 15.4 92 92 92
20.7 -69.2 29.8 168 170 169
21.4 -69.2 29.8 169 171 170
22.1 -69.2 29.8 172 174 174
22.8 -69.2 29.8 172 174 174
23.5 -69.2 29.8 177 177 177
24.1 -69.2 29.8 172 174 174
24.8 -69.1 29.7 177 177 177
25.5 -69.1 29.7 167 167 167
26.2 -69.1 29.7 172 174 174
26.9 -69.1 29.7 172 174 174
27.7 -69.3 29.8 179 179 179
28.3 -69.2 29.8 177 177 177
29.0 -69.2 29.8 173 175 175
29.7 -69.2 29.8 178 178 178
34.2 -69.9 30.1 192 192 192
34.5 -69.2 29.8 194 194 194
35.1 -69.0 29.7 194 194 194
35.9 -69.2 29.8 197 197 197
36.9 -69.8 30.0 192 192 192
38.3 -69.8 30.0 197 197 197
39.1 -70.0 30.1 204 204 204
39.2 -68.9 29.6 204 204 204
42.3 -70.5 30.4 197 197 197
42.7 -70.1 30.2 197 197 197
43.2 -69.8 30.0 204 204 204
45.9 -73.0 31.4 200 200 200
44.3 -69.3 29.8 204 204 204
44.8 -69.0 29.7 200 200 200
182.6 -272.9 117.5 197 197 197
48.4 -71.2 30.7 198 198 198
51.4 -74.6 32.1 198 198 198
27.8 -37.6 16.2 200 200 200
27.7 -37.0 15.9 200 200 200
27.4 -36.1 15.6 204 204 204
22.9 -28.0 12.0 203 203 203
55.5 -36.5 15.7 95 95 95
55.2 -36.1 15.5 95 95 95
19.3 -62.0 26.9 200 200 200
19.9 -61.9 26.9 204 204 204
20.6 -61.9 26.9 197 197 197
21.2 -61.9 26.9 195 195 195
21.8 -61.8 26.9 200 200 200
22.4 -61.8 26.9 200 200 200
23.0 -61.8 26.9 200 200 200
23.7 -61.8 26.9 197 197 197
24.3 -61.8 26.9 197 197 197
24.9 -61.9 26.9 204 204 204
25.6 -62.0 26.9 204 204 204
26.2 -61.9 26.9 204 204 204
26.8 -61.8 26.9 204 204 204
27.4 -61.8 26.9 200 200 200
29.9 -61.7 26.8 204 204 204
30.6 -62.0 26.9 200 200 200
31.3 -62.1 27.0 204 204 204
31.9 -62.1 27.0 204 204 204
32.4 -61.8 26.9 204 204 204
32.9 -61.5 26.8 200 200 200
35.8 -62.2 27.1 204 204 204
36.0 -61.5 26.8 204 204 204
41.6 -67.7 29.4 204 204 204
39.3 -62.8 27.3 204 204 204
39.5 -62.1 27.0 204 204 204
40.4 -62.6 27.2 204 204 204
40.6 -61.9 26.9 204 204 204
168.0 -248.6 108.1 204 204 204
141.5 -203.3 88.4 205 205 205
175.1 -244.4 106.3 205 205 205
166.3 -229.0 99.6 206 206 206
153.3 -208.2 90.5 206 206 206
27.1 -35.3 15.4 207 207 207
26.6 -34.3 14.9 207 207 207
22.6 -28.0 12.2 206 206 206
22.9 -27.7 12.0 203 203 203
54.9 -35.7 15.5 95 98 97
39.4 -24.1 10.5 179 182 181
38.8 -23.5 10.2 179 182 181
38.2 -23.1 10.0 218 218 218
42.0 -25.2 11.0 218 218 218
34.5 -58.4 25.6 204 204 204
39.5 -63.5 27.9 204 204 204
39.1 -61.9 27.2 204 204 204
40.0 -61.3 26.9 204 204 204
38.9 -58.8 25.8 204 204 204
166.1 -243.3 106.9 204 204 204
140.1 -202.2 88.8 205 205 205
135.2 -192.3 84.4 205 205 205
155.7 -212.1 93.2 206 206 206
150.4 -202.2 88.8 206 206 206
26.6 -33.9 14.9 207 207 207
22.7 -27.8 12.2 208 208 208
22.8 -27.6 12.1 206 206 206
22.9 -27.4 12.0 206 206 206
55.0 -35.5 15.6 98 100 100
38.3 -23.0 10.1 196 196 196
34.2 -57.2 25.4 207 207 207
37.2 -58.2 25.8 207 207 207
38.2 -57.9 25.7 207 207 207
38.4 -57.4 25.5 207 207 207
38.5 -56.6 25.1 207 207 207
127.8 -179.9 79.8 205 205 205
124.9 -173.3 76.9 205 205 205
142.3 -194.6 86.4 205 205 205
143.7 -191.1 84.8 206 206 206
133.7 -175.4 77.8 209 209 209
22.9 -27.8 12.3 208 208 208
22.9 -27.4 12.2 209 209 209
23.0 -27.2 12.1 209 209 209
356.9 -266.4 118.2 126 128 127
301.3 -223.2 99.0 126 128 127
38.4 -56.9 25.5 207 207 207
131.1 -182.6 81.9 207 207 207
125.4 -172.2 77.2 208 208 208
149.8 -199.9 89.7 208 208 208
147.0 -193.5 86.8 206 206 206
27.5 -35.8 16.0 206 206 206
27.2 -34.9 15.6 206 206 206
27.3 -34.5 15.5 207 207 207
23.1 -27.1 12.2 208 208 208
38.8 -60.5 27.4 208 208 208
38.7 -56.6 25.7 206 206 206
147.7 -203.6 92.3 207 207 207
157.4 -210.8 95.5 207 207 207
152.7 -201.7 91.4 207 207 207
149.7 -195.1 88.4 208 208 208
27.7 -35.6 16.1 208 208 208
27.4 -34.7 15.7 206 206 206
27.3 -34.1 15.5 208 208 208
26.8 -33.1 15.0 206 206 206
22.6 -24.4 11.1 165 168 167
22.9 -24.4 11.1 161 161 161
37.8 -58.3 26.7 208 208 208
36.9 -56.0 25.6 208 208 208
39.1 -56.7 25.9 208 208 208
38.5 -54.9 25.2 208 208 208
128.0 -172.1 78.8 206 206 206
161.5 -214.0 98.0 207 207 207
27.7 -35.2 16.1 207 207 207
27.4 -34.4 15.8 208 208 208
27.4 -33.9 15.5 208 208 208
27.0 -32.9 15.1 208 208 208
22.7 -24.3 11.1 196 196 196
22.9 -24.2 11.1 159 159 159
-25.6 -22.4 10.4 42 42 42
-25.3 -22.4 10.4 42 42 42
-23.7 -22.4 10.4 37 38 37
-22.9 -22.4 10.4 42 42 42
-21.7 -22.4 10.4 57 57 57
-21.2 -22.1 10.3 76 76 74
-21.0 -22.1 10.2 90 90 90
-18.2 -22.2 10.3 112 112 112
-17.7 -22.0 10.2 112 112 112
-15.1 -22.3 10.3 122 122 122
-13.9 -22.2 10.3 129 129 129
-13.5 -22.0 10.2 129 129 129
38.5 -54.3 25.1 207 207 207
27.4 -34.5 16.0 207 207 207
27.4 -34.0 15.8 207 207 207
27.4 -33.5 15.5 207 207 207
27.1 -32.7 15.2 207 207 207
27.3 -32.6 15.1 208 208 208
22.7 -24.1 11.1 192 192 192
22.9 -23.9 11.1 163 166 165
-29.7 -22.5 10.6 46 45 43
-29.7 -22.7 10.6 46 45 43
-29.5 -22.7 10.6 46 45 43
-29.2 -22.8 10.7 47 48 47
-29.0 -22.8 10.7 47 48 47
-28.7 -22.7 10.6 47 48 47
-28.5 -22.7 10.6 46 45 43
-28.2 -22.7 10.6 42 43 42
-28.0 -22.7 10.6 47 48 47
-27.7 -22.7 10.6 50 50 50
-27.5 -22.7 10.6 47 48 47
-27.2 -22.7 10.6 47 48 47
-27.0 -22.7 10.6 47 48 47
-26.8 -22.8 10.7 46 45 43
-26.5 -22.8 10.7 42 43 42
-26.3 -22.8 10.7 42 43 42
-26.0 -22.8 10.7 42 43 42
-25.7 -22.7 10.6 42 43 42
-25.5 -22.7 10.6 42 43 42
-25.3 -22.8 10.7 42 43 42
-25.0 -22.7 10.6 41 41 41
-24.8 -22.7 10.6 41 41 41
-24.5 -22.7 10.6 41 41 41
-24.2 -22.7 10.6 41 41 41
-24.0 -22.7 10.6 41 41 41
-23.8 -22.8 10.7 41 41 41
-23.5 -22.7 10.6 41 41 41
-23.3 -22.7 10.6 38 38 38
-23.2 -22.9 10.7 38 38 38
-22.8 -22.7 10.6 42 43 42
-22.8 -23.0 10.7 42 43 42
-22.3 -22.7 10.6 46 45 43
-21.9 -22.6 10.6 52 54 52
-21.8 -22.7 10.6 49 49 49
-21.5 -22.7 10.6 61 63 61
-21.2 -22.7 10.6 83 83 83
-21.0 -22.7 10.6 85 87 87
-20.8 -22.7 10.6 93 93 93
-20.6 -22.8 10.7 96 99 98
-20.5 -22.9 10.7 97 100 99
-20.1 -22.7 10.6 104 104 104
-19.8 -23.0 10.7 105 105 105
-19.4 -22.9 10.7 108 110 110
-19.1 -22.8 10.7 107 107 107
-18.7 -22.6 10.6 107 109 109
-18.3 -22.7 10.6 107 109 109
-18.1 -22.7 10.6 107 109 109
-17.7 -22.9 10.7 108 110 110
-17.3 -22.7 10.6 112 112 112
-17.2 -22.8 10.7 112 112 112
-16.7 -22.6 10.6 112 112 112
-16.4 -22.8 10.7 117 117 117
-16.0 -22.6 10.6 117 117 117
-15.8 -22.7 10.6 119 121 120
-15.6 -22.7 10.6 118 120 119
-15.4 -22.8 10.7 120 122 121
-14.7 -22.8 10.7 123 123 123
-14.3 -22.6 10.6 125 125 125
-9.6 -22.7 10.6 135 135 135
-9.4 -22.7 10.6 137 139 138
-9.3 -22.9 10.7 136 138 137
37.7 -56.9 26.6 207 207 207
37.1 -55.2 25.8 207 207 207
39.8 -56.5 26.4 206 206 206
38.6 -53.8 25.2 206 206 206
38.0 -52.3 24.5 207 207 207
27.3 -33.5 15.7 206 206 206
27.3 -33.1 15.5 206 206 206
26.9 -32.2 15.0 207 207 207
27.2 -32.1 15.0 207 207 207
-31.1 -23.3 11.0 48 48 48
-30.9 -23.4 11.1 46 46 44
-30.6 -23.4 11.1 46 46 44
-30.4 -23.4 11.1 48 48 48
-30.1 -23.4 11.1 48 48 48
-29.9 -23.4 11.1 48 48 48
-29.6 -23.4 11.1 48 48 48
-29.4 -23.4 11.1 48 48 48
-29.1 -23.4 11.1 51 51 51
-28.8 -23.4 11.1 51 51 51
-28.6 -23.4 11.1 48 48 48
-28.3 -23.4 11.1 48 48 48
-28.1 -23.4 11.1 51 51 51
-27.8 -23.4 11.1 48 48 48
-27.6 -23.4 11.1 46 46 44
-27.3 -23.4 11.1 46 46 44
-27.0 -23.4 11.1 43 43 43
-26.8 -23.4 11.1 46 46 44
-26.5 -23.4 11.1 43 43 43
-26.2 -23.4 11.1 43 43 43
-26.0 -23.4 11.1 42 42 42
-25.7 -23.4 11.1 43 43 43
-25.5 -23.4 11.1 43 43 43
-25.0 -23.4 11.1 43 43 43
-24.7 -23.4 11.1 43 43 43
-24.5 -23.4 11.1 42 42 42
-24.2 -23.4 11.1 39 39 39
-24.0 -23.4 11.1 39 39 39
-23.7 -23.4 11.1 42 42 42
-23.4 -23.4 11.0 42 42 42
-23.1 -23.4 11.0 42 42 42
-22.9 -23.4 11.1 43 43 43
-22.7 -23.4 11.1 43 43 43
-22.4 -23.4 11.1 43 43 43
-22.2 -23.4 11.1 43 43 43
-21.9 -23.4 11.1 50 50 50
-21.7 -23.4 11.1 70 70 70
-21.3 -23.4 11.0 81 84 83
-21.1 -23.4 11.1 87 87 87
-20.9 -23.4 11.1 94 94 94
-20.7 -23.4 11.1 97 100 99
-20.3 -23.4 11.1 99 101 101
-20.1 -23.4 11.0 103 103 103
-19.8 -23.3 11.0 102 102 102
-19.3 -23.4 11.1 104 104 104
-19.1 -23.4 11.1 106 106 106
-18.8 -23.4 11.1 106 106 106
-18.6 -23.4 11.1 106 106 106
-18.2 -23.3 11.0 108 108 108
-18.0 -23.4 11.0 108 110 110
-16.2 -23.4 11.0 115 115 115
-10.3 -23.3 11.0 131 133 132
-10.0 -23.3 11.0 131 133 132
-9.5 -23.3 11.0 137 139 138
2.5 -23.3 11.0 182 182 182
17.0 -29.8 14.1 206 206 206
17.3 -29.8 14.1 206 206 206
37.9 -56.6 26.8 206 206 206
37.2 -54.6 25.8 206 206 206
40.6 -57.0 26.9 206 206 206
38.7 -53.5 25.3 206 206 206
38.4 -52.3 24.7 206 206 206
38.9 -52.1 24.6 206 206 206
27.2 -32.6 15.4 206 206 206
26.8 -31.8 15.0 206 206 206
22.8 -23.3 11.0 169 169 169
-38.3 -28.4 13.6 49 49 49
-38.1 -28.5 13.6 52 52 52
-37.8 -28.5 13.6 52 52 52
-37.5 -28.5 13.6 52 52 52
-37.1 -28.5 13.6 49 49 49
-36.8 -28.5 13.6 47 46 45
-36.5 -28.5 13.6 49 49 49
-36.2 -28.6 13.7 52 52 52
-35.9 -28.6 13.7 52 52 52
-35.6 -28.6 13.7 52 52 52
-35.3 -28.5 13.6 49 49 49
-34.9 -28.5 13.6 49 49 49
-34.6 -28.5 13.6 49 49 49
-34.4 -28.6 13.7 49 49 49
-34.0 -28.5 13.6 47 46 45
-33.6 -28.5 13.6 47 46 45
-33.2 -28.4 13.6 44 44 44
-32.9 -28.5 13.6 44 44 44
-32.8 -28.6 13.7 44 44 44
-32.4 -28.6 13.7 44 44 44
-32.1 -28.6 13.7 44 44 44
-30.5 -28.5 13.6 44 44 44
-30.2 -28.5 13.6 44 44 44
-29.8 -28.5 13.6 42 43 42
-29.5 -28.5 13.6 40 40 40
-29.2 -28.5 13.6 40 40 40
-29.0 -28.6 13.7 40 40 40
-28.5 -28.5 13.6 40 40 40
-28.2 -28.5 13.6 40 40 40
-27.9 -28.4 13.6 40 40 40
-27.6 -28.5 13.6 42 43 42
-27.4 -28.6 13.7 44 44 44
-27.1 -28.6 13.7 45 45 45
-26.6 -28.4 13.6 47 46 45
-26.3 -28.4 13.6 49 49 49
-25.5 -28.6 13.7 98 98 98
-25.2 -28.6 13.7 94 94 94
-24.4 -28.5 13.6 98 98 98
-24.0 -28.4 13.6 98 100 100
-23.7 -28.4 13.6 98 100 100
-23.4 -28.4 13.6 98 100 100
-10.8 -23.5 11.3 122 122 122
-10.5 -23.6 11.3 124 127 126
-10.2 -23.3 11.2 123 125 124
-9.9 -23.3 11.2 128 131 130
-9.7 -23.5 11.3 128 130 129
-9.5 -23.6 11.3 129 129 129
-9.2 -23.5 11.3 136 135 134
-8.7 -23.6 11.3 156 156 156
-8.4 -23.5 11.3 153 153 153
-8.1 -23.5 11.2 154 154 154
-7.9 -23.5 11.3 151 151 151
-7.6 -23.5 11.2 154 154 154
-7.1 -23.5 11.3 159 162 161
-6.9 -23.6 11.3 169 169 169
-4.5 -23.6 11.3 190 190 190
-4.2 -23.6 11.3 190 190 190
-4.0 -23.6 11.3 189 189 189
-3.7 -23.6 11.3 188 188 188
-3.4 -23.6 11.3 188 188 188
-3.2 -23.6 11.3 188 188 188
-2.9 -23.6 11.3 188 188 188
-2.7 -23.6 11.3 188 188 188
-2.4 -23.6 11.3 188 188 188
-2.1 -23.6 11.3 186 186 186
-1.9 -23.6 11.3 183 183 183
-1.6 -23.6 11.3 183 183 183
-1.3 -23.6 11.3 183 183 183
-1.1 -23.6 11.3 183 183 183
-0.8 -23.6 11.3 183 183 183
-0.0 -23.6 11.3 183 183 183
0.2 -23.5 11.3 182 182 182
0.5 -23.6 11.3 182 182 182
0.8 -23.7 11.3 182 182 182
2.3 -23.6 11.3 182 182 182
2.6 -23.6 11.3 182 182 182
7.0 -23.6 11.3 209 209 209
9.7 -23.6 11.3 206 206 206
9.9 -23.6 11.3 206 206 206
10.2 -23.7 11.3 209 209 209
10.5 -23.6 11.3 209 209 209
10.7 -23.6 11.3 206 206 206
12.9 -27.7 13.3 206 206 206
11.2 -23.5 11.3 206 206 206
12.0 -23.6 11.3 209 209 209
12.3 -23.6 11.3 206 206 206
12.6 -23.6 11.3 209 209 209
12.8 -23.6 11.3 206 206 206
13.1 -23.6 11.3 206 206 206
13.3 -23.6 11.3 206 206 206
13.6 -23.6 11.3 206 206 206
13.9 -23.6 11.3 206 206 206
37.2 -55.9 26.7 206 206 206
37.7 -55.7 26.6 206 206 206
37.6 -54.6 26.1 206 206 206
40.2 -55.8 26.7 203 203 203
39.5 -53.9 25.8 205 205 205
39.9 -52.9 25.3 206 206 206
26.4 -30.1 14.4 206 206 206
26.2 -29.5 14.1 206 206 206
26.5 -29.5 14.1 206 206 206
-38.8 -28.5 13.8 52 52 52
-29.4 -28.7 13.9 41 41 41
-29.0 -28.6 13.8 41 41 41
-28.6 -28.6 13.8 41 41 41
-25.2 -28.7 13.9 88 88 88
-9.8 -23.5 11.4 112 112 112
-9.6 -23.6 11.4 108 108 108
-11.5 -30.8 14.9 157 157 157
-11.1 -30.7 14.8 167 167 167
-9.3 -30.6 14.8 173 175 175
-2.5 -30.6 14.8 185 185 185
4.1 -30.6 14.8 184 184 184
9.3 -30.6 14.8 209 209 209
9.9 -30.6 14.8 209 209 209
10.3 -30.6 14.8 208 208 208
10.7 -30.7 14.8 208 208 208
11.0 -30.6 14.8 208 208 208
11.3 -30.7 14.8 208 208 208
12.7 -30.6 14.8 208 208 208
13.1 -30.7 14.8 208 208 208
13.4 -30.7 14.8 208 208 208
13.7 -30.6 14.8 208 208 208
14.0 -30.5 14.8 206 206 206
14.4 -30.6 14.8 206 206 206
14.8 -30.6 14.8 206 206 206
15.1 -30.6 14.8 206 206 206
15.8 -30.6 14.8 206 206 206
16.1 -30.6 14.8 206 206 206
16.5 -30.7 14.8 208 208 208
16.9 -30.7 14.9 208 208 208
17.8 -30.5 14.8 205 205 205
18.2 -30.6 14.8 205 205 205
18.6 -30.7 14.8 208 208 208
20.3 -30.6 14.8 208 208 208
37.3 -55.5 26.8 208 208 208
37.6 -55.0 26.6 208 208 208
37.6 -54.0 26.1 205 205 205
40.7 -55.9 27.0 208 208 208
40.2 -54.2 26.2 208 208 208
43.1 -55.6 26.9 205 205 205
26.8 -31.0 15.0 205 205 205
26.8 -30.3 14.6 205 205 205
-22.1 -21.6 10.5 44 44 44
-21.7 -21.4 10.5 40 40 40
-15.7 -31.3 15.3 92 95 94
-15.0 -31.4 15.4 72 71 69
-14.6 -31.3 15.3 71 70 69
-13.2 -31.4 15.3 25 25 25
-12.8 -31.1 15.2 27 28 26
-12.5 -31.2 15.3 30 30 30
-12.1 -31.3 15.3 111 111 109
-11.8 -31.3 15.3 179 182 181
-11.4 -31.1 15.2 177 177 177
-10.7 -31.3 15.3 174 176 176
-10.4 -31.3 15.3 179 179 179
-10.0 -31.3 15.3 192 192 192
-8.2 -31.3 15.3 205 205 205
-7.5 -31.3 15.3 202 202 202
-7.2 -31.3 15.3 200 200 200
-6.8 -31.3 15.3 199 199 199
-6.4 -31.3 15.3 199 199 199
-6.1 -31.3 15.3 198 198 198
-5.7 -31.3 15.3 199 199 199
-5.4 -31.3 15.3 197 197 197
-5.0 -31.3 15.3 193 193 193
-4.7 -31.3 15.3 196 196 196
-4.3 -31.3 15.3 196 196 196
-4.0 -31.3 15.3 193 193 193
-3.6 -31.3 15.3 193 193 193
-3.2 -31.3 15.3 193 193 193
-2.9 -31.3 15.3 193 193 193
-2.5 -31.3 15.3 193 193 193
-2.2 -31.3 15.3 193 193 193
-1.8 -31.2 15.3 193 193 193
-1.5 -31.3 15.3 190 190 190
-1.1 -31.3 15.3 190 190 190
-0.0 -31.3 15.3 190 190 190
0.3 -31.4 15.4 186 186 186
0.7 -31.4 15.4 186 186 186
1.0 -31.3 15.3 186 186 186
1.4 -31.4 15.3 186 186 186
1.7 -31.3 15.3 184 184 184
3.2 -31.4 15.3 183 183 183
3.5 -31.3 15.3 183 183 183
6.4 -31.4 15.4 175 175 175
6.7 -31.3 15.3 173 173 173
7.1 -31.3 15.3 203 203 203
7.4 -31.2 15.3 206 206 206
8.1 -31.3 15.3 208 208 208
8.5 -31.3 15.3 208 208 208
8.9 -31.3 15.3 208 208 208
9.2 -31.3 15.3 208 208 208
9.6 -31.3 15.3 208 208 208
9.9 -31.3 15.3 208 208 208
10.3 -31.3 15.3 208 208 208
10.6 -31.3 15.3 208 208 208
11.0 -31.3 15.3 208 208 208
11.3 -31.3 15.3 208 208 208
11.7 -31.3 15.3 208 208 208
12.0 -31.2 15.3 208 208 208
12.4 -31.3 15.3 208 208 208
12.8 -31.3 15.3 208 208 208
13.1 -31.3 15.3 208 208 208
13.5 -31.3 15.3 208 208 208
13.9 -31.3 15.3 208 208 208
14.2 -31.3 15.3 210 210 210
14.5 -31.2 15.3 205 205 205
14.9 -31.3 15.3 205 205 205
15.2 -31.3 15.3 205 205 205
15.6 -31.2 15.3 210 210 210
15.9 -31.1 15.2 205 205 205
16.2 -31.1 15.2 205 205 205
16.7 -31.3 15.3 208 208 208
17.0 -31.3 15.3 208 208 208
17.4 -31.3 15.3 208 208 208
17.8 -31.4 15.3 208 208 208
18.1 -31.2 15.3 208 208 208
18.5 -31.3 15.3 208 208 208
18.8 -31.2 15.3 208 208 208
19.0 -31.0 15.2 208 208 208
19.5 -31.3 15.3 208 208 208
19.9 -31.3 15.3 208 208 208
20.3 -31.3 15.3 208 208 208
20.7 -31.4 15.4 207 207 207
20.9 -31.3 15.3 207 207 207
21.3 -31.3 15.3 207 207 207
21.6 -31.2 15.3 207 207 207
22.0 -31.2 15.3 207 207 207
22.4 -31.3 15.3 207 207 207
22.8 -31.4 15.4 207 207 207
27.2 -31.5 15.4 209 209 209
27.3 -31.3 15.3 206 206 206
27.5 -31.1 15.2 204 204 204
27.7 -30.9 15.1 205 205 205
-33.1 -32.3 16.0 43 43 43
-32.6 -32.2 15.9 46 46 46
-32.2 -32.1 15.9 43 43 43
-31.7 -32.0 15.8 43 43 43
-31.1 -31.8 15.7 43 43 43
-16.5 -31.9 15.8 19 23 20
-16.2 -31.8 15.8 16 16 16
-15.8 -31.9 15.8 33 33 33
-15.6 -32.1 15.9 29 30 28
-15.1 -32.0 15.8 29 30 28
-14.9 -32.3 16.0 27 29 27
-13.6 -31.9 15.8 27 29 27
-12.9 -32.0 15.8 31 31 31
-12.7 -32.3 16.0 123 123 123
-12.1 -31.8 15.8 180 183 182
-11.9 -32.2 15.9 183 183 183
-10.3 -32.0 15.8 216 216 216
-10.0 -31.9 15.8 216 216 216
-8.2 -32.3 16.0 209 209 209
-7.8 -32.3 16.0 209 209 209
-7.4 -32.1 15.9 207 207 207
-7.1 -32.3 16.0 204 204 204
-6.7 -32.2 15.9 203 203 203
-6.4 -32.3 16.0 203 203 203
-6.0 -32.3 16.0 202 202 202
-5.6 -32.3 16.0 200 200 200
-5.2 -32.1 15.9 200 200 200
-4.8 -32.0 15.9 200 200 200
-4.5 -32.3 16.0 200 200 200
-4.1 -32.3 16.0 197 197 197
-3.8 -32.3 16.0 197 197 197
-3.4 -32.3 16.0 195 195 195
-3.0 -32.3 16.0 195 195 195
-2.6 -32.3 16.0 194 194 194
-2.3 -32.2 15.9 197 197 197
-1.9 -32.1 15.9 196 196 196
-1.5 -32.2 15.9 196 196 196
-1.1 -31.9 15.8 194 194 194
-0.8 -32.3 16.0 194 194 194
-0.4 -32.3 16.0 191 191 191
-0.0 -32.2 15.9 191 191 191
0.7 -32.2 15.9 189 189 189
1.4 -32.3 16.0 189 189 189
3.6 -32.0 15.9 182 182 182
4.0 -31.9 15.8 182 182 182
4.4 -31.9 15.8 182 182 182
4.7 -31.9 15.8 182 182 182
6.9 -32.0 15.8 172 172 172
7.4 -32.2 15.9 202 202 202
7.7 -32.2 15.9 205 205 205
8.1 -32.2 15.9 208 208 208
8.4 -31.9 15.8 208 208 208
8.9 -32.2 15.9 208 208 208
9.2 -32.2 15.9 208 208 208
9.6 -32.2 15.9 208 208 208
10.0 -32.2 15.9 208 208 208
10.3 -32.2 15.9 208 208 208
10.7 -32.1 15.9 208 208 208
11.0 -31.9 15.8 208 208 208
11.4 -32.1 15.9 208 208 208
11.8 -32.1 15.9 208 208 208
12.1 -32.0 15.8 208 208 208
12.5 -32.1 15.9 207 207 207
12.9 -32.2 15.9 207 207 207
13.3 -32.1 15.9 207 207 207
13.7 -32.2 15.9 207 207 207
14.0 -32.2 15.9 207 207 207
14.4 -32.1 15.9 207 207 207
14.7 -32.1 15.9 209 209 209
15.1 -32.1 15.9 205 205 205
15.5 -32.1 15.9 205 205 205
15.8 -32.0 15.9 205 205 205
16.2 -32.0 15.9 209 209 209
16.6 -32.2 15.9 207 207 207
16.9 -32.0 15.8 207 207 207
17.3 -32.2 15.9 207 207 207
17.7 -32.2 15.9 207 207 207
18.1 -32.2 15.9 207 207 207
18.4 -32.0 15.8 207 207 207
18.6 -31.8 15.7 207 207 207
19.2 -32.2 15.9 207 207 207
19.5 -32.1 15.9 207 207 207
20.4 -32.3 16.0 207 207 207
20.7 -32.3 16.0 207 207 207
21.1 -32.3 16.0 207 207 207
21.3 -32.0 15.9 207 207 207
21.8 -32.2 15.9 207 207 207
22.2 -32.2 15.9 207 207 207
22.6 -32.2 15.9 207 207 207
23.0 -32.4 16.0 207 207 207
23.4 -32.3 16.0 207 207 207
23.6 -32.2 15.9 207 207 207
27.8 -31.4 15.5 206 206 206
28.1 -31.4 15.5 206 206 206
-34.5 -33.6 16.8 47 47 47
-18.2 -20.5 10.3 46 46 46
-16.4 -32.0 16.0 25 25 25
-17.0 -33.8 16.9 26 26 26
-16.9 -34.4 17.2 26 26 26
-16.3 -34.2 17.1 27 27 27
-16.0 -34.2 17.1 29 30 28
-7.8 -24.6 12.3 218 221 220
8.0 -24.8 12.4 207 207 207
8.3 -24.6 12.3 207 207 207
10.2 -24.5 12.3 207 207 207
11.7 -24.6 12.3 207 207 207
12.3 -24.7 12.3 207 207 207
12.5 -24.5 12.3 207 207 207
12.8 -24.4 12.2 207 207 207
13.0 -24.4 12.2 207 207 207
13.3 -24.4 12.2 207 207 207
14.0 -24.6 12.3 207 207 207
14.2 -24.4 12.2 207 207 207
15.4 -24.6 12.3 207 207 207
15.7 -24.5 12.3 207 207 207
17.4 -24.6 12.3 206 206 206
27.6 -30.8 15.4 205 205 205
28.0 -30.8 15.4 205 205 205
28.3 -30.8 15.4 206 206 206
28.8 -31.0 15.5 206 206 206
28.2 -27.5 13.8 203 203 203
-18.0 -20.1 10.2 41 41 39
-17.5 -19.8 10.0 41 41 39
-15.2 -20.1 10.2 29 29 29
-13.7 -20.0 10.2 21 24 22
-17.6 -33.8 17.1 27 27 27
-17.3 -34.0 17.2 28 28 28
-17.2 -34.8 17.6 28 28 28
-16.8 -34.7 17.6 29 31 29
-11.0 -24.6 12.5 31 30 29
-10.5 -24.6 12.5 32 32 32
-9.6 -24.7 12.5 185 185 185
-9.3 -24.6 12.5 186 188 187
-6.1 -24.6 12.5 215 218 217
-5.9 -24.7 12.5 215 218 217
-5.6 -24.7 12.5 215 218 217
-5.0 -24.8 12.5 210 210 210
-4.7 -24.6 12.5 210 210 210
-4.4 -24.7 12.5 207 207 207
-4.1 -24.7 12.5 207 207 207
-3.8 -24.7 12.5 207 207 207
-3.5 -24.7 12.5 205 205 205
-3.2 -24.6 12.5 203 203 203
-2.9 -24.6 12.5 203 203 203
-2.6 -24.6 12.5 200 200 200
-2.4 -24.6 12.5 200 200 200
-2.1 -24.6 12.5 197 197 197
-1.8 -24.6 12.5 197 197 197
-1.5 -24.6 12.5 197 197 197
-1.2 -24.6 12.5 197 197 197
-0.9 -24.6 12.5 197 197 197
-0.6 -24.7 12.5 197 197 197
-0.3 -24.8 12.6 197 197 197
-0.0 -24.7 12.5 197 197 197
0.3 -24.6 12.5 197 197 197
0.5 -24.7 12.5 197 197 197
0.8 -24.7 12.5 194 194 194
1.1 -24.7 12.5 194 194 194
4.9 -24.6 12.4 181 181 181
5.2 -24.6 12.5 181 181 181
6.0 -24.6 12.5 207 207 207
6.4 -24.7 12.5 207 207 207
7.3 -24.9 12.6 207 207 207
7.5 -24.7 12.5 207 207 207
8.2 -24.9 12.6 207 207 207
8.4 -24.6 12.5 207 207 207
8.7 -24.7 12.5 207 207 207
9.0 -24.8 12.5 207 207 207
9.2 -24.6 12.5 207 207 207
9.5 -24.6 12.5 207 207 207
9.8 -24.6 12.5 207 207 207
10.1 -24.6 12.5 207 207 207
10.4 -24.6 12.5 207 207 207
10.7 -24.6 12.4 206 206 206
11.0 -24.7 12.5 206 206 206
11.3 -24.7 12.5 206 206 206
11.6 -24.6 12.5 206 206 206
11.9 -24.7 12.5 206 206 206
12.2 -24.7 12.5 206 206 206
12.4 -24.7 12.5 206 206 206
12.7 -24.6 12.4 206 206 206
13.0 -24.6 12.5 206 206 206
13.3 -24.7 12.5 206 206 206
13.6 -24.7 12.5 206 206 206
13.9 -24.7 12.5 206 206 206
14.2 -24.6 12.5 206 206 206
14.4 -24.6 12.4 206 206 206
15.5 -24.8 12.6 206 206 206
15.7 -24.8 12.6 206 206 206
15.9 -24.7 12.5 206 206 206
16.2 -24.6 12.5 206 206 206
17.4 -24.7 12.5 206 206 206
17.7 -24.7 12.5 206 206 206
18.0 -24.7 12.5 206 206 206
27.4 -30.3 15.3 205 205 205
27.8 -30.3 15.4 205 205 205
27.7 -27.4 13.9 204 204 204
28.1 -27.5 13.9 202 202 202
28.4 -27.5 13.9 202 202 202
-35.5 -24.6 12.6 58 58 58
-35.3 -24.7 12.6 58 58 58
-35.0 -24.7 12.6 59 61 59
-34.7 -24.7 12.6 59 61 59
-34.4 -24.7 12.6 59 61 59
-34.1 -24.6 12.6 59 61 59
-33.8 -24.6 12.6 59 61 59
-33.5 -24.6 12.6 63 63 63
-33.3 -24.7 12.7 58 58 58
-33.0 -24.7 12.7 58 58 58
-32.7 -24.7 12.6 58 58 58
-32.3 -24.7 12.6 63 63 63
-32.0 -24.6 12.6 58 59 59
-31.7 -24.6 12.6 60 62 60
-31.4 -24.6 12.6 53 53 53
-31.2 -24.7 12.7 53 53 53
-30.9 -24.7 12.6 54 54 54
-30.6 -24.7 12.6 52 52 50
-30.3 -24.7 12.6 52 52 50
-30.0 -24.6 12.6 52 52 50
-29.7 -24.7 12.6 52 52 50
-29.4 -24.7 12.7 52 52 50
-29.2 -24.7 12.7 52 52 50
-28.8 -24.7 12.6 52 52 50
-28.5 -24.6 12.6 49 49 49
-28.2 -24.6 12.6 49 49 49
-28.0 -24.7 12.6 50 50 50
-27.6 -24.6 12.6 50 50 50
-27.3 -24.6 12.6 50 50 50
-27.1 -24.7 12.6 50 50 50
-26.7 -24.6 12.6 50 50 50
-26.4 -24.6 12.6 46 46 46
-26.2 -24.7 12.7 46 46 46
-25.9 -24.7 12.7 46 46 46
-25.7 -24.7 12.7 48 48 48
-25.3 -24.7 12.7 48 48 48
-25.0 -24.6 12.6 47 47 47
-24.8 -24.8 12.7 47 47 47
-24.5 -24.7 12.7 44 44 44
-24.2 -24.7 12.7 47 47 47
-23.8 -24.6 12.6 45 45 45
-23.4 -24.6 12.6 42 43 42
-23.3 -24.7 12.7 42 43 42
-23.0 -24.7 12.7 46 46 46
-22.7 -24.7 12.7 43 43 43
-22.4 -24.8 12.7 42 42 40
-22.1 -24.7 12.7 42 42 40
-21.8 -24.7 12.7 40 40 40
-21.5 -24.6 12.6 42 42 40
-21.2 -24.6 12.6 43 42 41
-20.9 -24.7 12.7 41 41 41
-11.4 -24.6 12.6 29 30 28
-11.2 -24.6 12.6 31 30 29
-10.9 -24.6 12.6 33 33 33
-10.6 -24.6 12.6 35 37 36
-10.3 -24.6 12.6 38 38 38
-10.0 -24.6 12.6 160 160 160
-9.7 -24.7 12.6 186 186 186
-9.4 -24.6 12.6 186 188 187
-9.1 -24.6 12.6 186 188 187
-8.9 -24.7 12.7 227 230 229
-8.6 -24.7 12.6 226 229 228
-6.5 -24.7 12.6 222 222 222
-6.2 -24.6 12.6 220 220 220
-5.9 -24.7 12.7 219 219 219
-5.6 -24.6 12.6 217 217 217
-5.3 -24.7 12.7 214 216 216
-5.0 -24.7 12.7 213 215 215
-4.7 -24.7 12.6 213 215 215
-4.4 -24.6 12.6 212 214 214
-4.1 -24.6 12.6 212 214 214
-3.9 -24.6 12.6 209 212 211
-3.6 -24.7 12.7 208 208 208
-3.3 -24.7 12.6 206 206 206
-3.0 -24.6 12.6 206 206 206
-2.7 -24.6 12.6 205 205 205
-2.4 -24.7 12.6 205 205 205
-2.1 -24.7 12.6 205 205 205
-1.8 -24.7 12.6 205 205 205
-1.5 -24.7 12.6 202 202 202
-1.2 -24.7 12.6 199 199 199
-0.9 -24.7 12.6 199 199 199
-0.6 -24.7 12.7 199 199 199
-0.3 -24.7 12.7 199 199 199
-0.0 -24.6 12.6 199 199 199
0.3 -24.6 12.6 199 199 199
0.6 -24.7 12.7 196 196 196
0.8 -24.7 12.7 196 196 196
1.1 -24.6 12.6 196 196 196
5.2 -24.6 12.6 180 180 180
5.5 -24.6 12.6 177 177 177
5.8 -24.7 12.6 203 203 203
6.1 -24.6 12.6 206 206 206
6.4 -24.6 12.6 208 208 208
6.7 -24.7 12.7 208 208 208
7.3 -24.8 12.7 208 208 208
7.6 -24.6 12.6 208 208 208
7.9 -24.7 12.7 206 206 206
8.2 -24.8 12.7 206 206 206
8.5 -24.6 12.6 206 206 206
8.8 -24.6 12.6 206 206 206
9.1 -24.7 12.7 206 206 206
9.4 -24.6 12.6 206 206 206
9.6 -24.6 12.6 206 206 206
9.9 -24.6 12.6 206 206 206
10.3 -24.7 12.7 206 206 206
10.6 -24.7 12.7 206 206 206
10.9 -24.7 12.7 206 206 206
11.1 -24.7 12.7 206 206 206
11.4 -24.7 12.6 206 206 206
11.7 -24.6 12.6 206 206 206
12.0 -24.7 12.7 206 206 206
12.3 -24.7 12.7 206 206 206
12.6 -24.6 12.6 206 206 206
12.9 -24.6 12.6 206 206 206
13.2 -24.6 12.6 206 206 206
13.5 -24.6 12.6 206 206 206
13.7 -24.6 12.6 206 206 206
14.1 -24.7 12.7 206 206 206
14.3 -24.6 12.6 206 206 206
14.6 -24.6 12.6 206 206 206
15.6 -24.7 12.7 206 206 206
15.9 -24.7 12.7 206 206 206
16.1 -24.6 12.6 206 206 206
16.4 -24.6 12.6 205 205 205
16.7 -24.7 12.6 205 205 205
17.0 -24.7 12.7 205 205 205
17.3 -24.6 12.6 205 205 205
17.6 -24.6 12.6 205 205 205
17.9 -24.7 12.6 205 205 205
18.1 -24.6 12.6 205 205 205
18.4 -24.6 12.6 205 205 205
44.5 -52.7 27.0 206 206 206
28.7 -27.7 14.2 203 203 203
28.6 -27.3 14.0 204 204 204
-35.6 -24.4 12.7 58 58 58
-27.6 -24.3 12.6 51 51 51
-26.4 -24.3 12.6 51 51 51
-23.9 -24.4 12.7 43 43 43
-22.4 -24.8 12.8 43 42 41
-11.2 -24.3 12.6 29 30 28
-10.9 -24.3 12.6 33 33 33
-10.6 -24.2 12.6 34 34 34
8.3 -24.8 12.9 206 206 206
8.5 -24.3 12.6 206 206 206
11.4 -24.9 12.9 206 206 206
12.6 -24.3 12.6 205 205 205
12.8 -24.3 12.6 205 205 205
13.2 -24.3 12.6 205 205 205
14.3 -24.3 12.6 205 205 205
14.3 -23.8 12.3 205 205 205
16.1 -24.8 12.9 205 205 205
16.1 -24.3 12.6 205 205 205
16.3 -24.2 12.6 205 205 205
44.8 -53.2 27.6 205 205 205
44.4 -52.0 26.9 205 205 205
45.2 -52.2 27.1 206 206 206
28.9 -27.6 14.3 203 203 203
-35.0 -23.7 12.4 60 62 60
-28.9 -24.6 12.9 51 51 51
-28.4 -24.5 12.8 52 52 52
-27.2 -23.7 12.4 55 54 53
-26.9 -23.7 12.4 55 54 53
-26.3 -23.7 12.4 52 52 52
-26.0 -23.7 12.4 52 52 52
-22.1 -24.5 12.9 46 46 46
-21.2 -23.7 12.4 42 43 42
-20.8 -23.7 12.4 42 43 42
-11.0 -24.2 12.7 29 31 29
-10.5 -23.7 12.5 34 34 34
-10.5 -24.5 12.9 39 39 39
7.5 -23.7 12.5 207 207 207
8.4 -23.7 12.5 207 207 207
8.6 -23.7 12.4 207 207 207
9.5 -23.7 12.4 205 205 205
12.4 -23.7 12.4 205 205 205
12.7 -23.7 12.4 205 205 205
13.8 -23.7 12.4 205 205 205
14.1 -23.7 12.5 205 205 205
14.4 -23.7 12.4 207 207 207
15.9 -23.7 12.5 204 204 204
16.1 -23.7 12.4 204 204 204
17.9 -23.6 12.4 207 207 207
22.8 -29.7 15.6 204 204 204
45.1 -52.1 27.4 205 205 205
46.0 -52.4 27.5 205 205 205
29.1 -27.5 14.4 204 204 204
-36.3 -24.2 12.9 61 63 61
-36.1 -24.3 12.9 61 63 61
-35.8 -24.3 12.9 61 63 61
-35.5 -24.3 12.9 65 65 65
-35.2 -24.3 12.9 65 65 65
-34.9 -24.3 12.9 65 65 65
-34.6 -24.3 12.9 61 63 61
-34.4 -24.4 13.0 65 65 65
-34.2 -24.4 13.0 62 64 61
-33.8 -24.4 13.0 62 64 61
-33.4 -24.4 12.9 62 64 61
-33.1 -24.3 12.9 62 64 61
-32.8 -24.3 12.9 62 64 61
-32.4 -24.5 13.0 62 64 61
-32.1 -24.5 13.0 58 59 59
-31.6 -24.3 12.9 58 59 59
-31.2 -24.2 12.9 56 56 56
-30.9 -24.2 12.9 57 57 57
-30.8 -24.4 13.0 57 57 57
-30.0 -24.5 13.0 55 54 53
-29.6 -24.4 13.0 55 54 53
-29.4 -24.5 13.0 55 54 53
-29.0 -24.4 13.0 53 52 52
-28.5 -24.3 12.9 53 52 52
-28.1 -24.2 12.9 56 55 54
-28.0 -24.3 12.9 56 55 54
-27.7 -24.4 12.9 53 52 52
-27.4 -24.3 12.9 53 52 52
-27.2 -24.4 13.0 53 53 53
-26.9 -24.5 13.0 53 53 53
-26.5 -24.4 13.0 53 53 53
-26.3 -24.5 13.0 51 51 51
-26.0 -24.4 13.0 49 49 49
-25.7 -24.5 13.0 49 49 49
-25.4 -24.4 13.0 49 49 49
-25.1 -24.4 13.0 47 48 47
-24.8 -24.4 13.0 47 48 47
-24.3 -24.3 12.9 45 45 45
-23.9 -24.4 13.0 46 46 46
-23.6 -24.4 13.0 46 46 46
-23.3 -24.5 13.0 45 44 43
-23.0 -24.4 13.0 45 44 43
-22.6 -24.3 12.9 45 44 43
-22.2 -24.3 12.9 46 45 43
-21.9 -24.2 12.9 43 43 43
-21.7 -24.3 12.9 42 44 43
-11.6 -23.9 12.7 51 50 48
-11.4 -24.2 12.9 57 57 57
-11.0 -24.0 12.8 64 65 63
-10.7 -24.0 12.7 34 34 34
-10.5 -24.2 12.9 43 43 43
-10.2 -24.3 12.9 185 185 185
50.3 -59.1 31.4 204 204 204
50.5 -58.5 31.1 207 207 207
48.0 -54.1 28.7 207 207 207
51.8 -57.5 30.6 205 205 205
31.2 -29.1 15.4 204 204 204
-36.6 -24.2 13.0 62 64 61
-36.3 -24.2 13.0 66 66 66
-36.0 -24.2 13.0 66 66 66
-35.7 -24.2 13.0 66 66 66
-35.4 -24.2 13.0 66 66 66
-35.1 -24.2 13.0 66 66 66
-34.8 -24.2 13.0 66 66 66
-34.0 -24.2 13.0 63 64 62
-33.6 -24.2 13.0 63 64 62
-33.3 -24.2 13.0 63 64 62
-33.0 -24.2 13.0 63 64 62
-32.2 -24.2 13.0 59 59 59
-31.7 -24.1 13.0 62 62 62
-31.4 -24.1 13.0 59 59 59
-31.1 -24.1 13.0 59 59 59
-29.1 -24.2 13.0 57 56 55
-28.7 -24.1 13.0 57 56 55
-28.4 -24.1 13.0 57 56 55
-28.2 -24.2 13.0 57 56 55
-27.9 -24.2 13.0 57 56 55
-27.6 -24.2 13.0 53 53 53
-27.3 -24.2 13.0 57 57 55
-27.0 -24.2 13.0 54 54 54
-26.7 -24.2 13.0 52 52 52
-25.6 -24.3 13.1 50 50 50
-25.2 -24.2 13.0 51 51 51
-24.9 -24.2 13.0 46 46 46
-24.4 -24.1 13.0 49 49 49
-23.7 -24.2 13.0 49 49 49
-23.5 -24.3 13.1 43 43 43
-23.2 -24.3 13.1 46 45 43
-22.4 -24.2 13.0 46 46 44
-11.5 -24.1 13.0 29 29 29
-11.1 -24.0 12.9 86 88 88
-10.8 -23.9 12.9 29 31 29
-10.6 -24.1 13.0 53 53 53
-10.3 -24.1 13.0 183 183 183
-10.0 -24.1 13.0 183 186 185
50.8 -59.0 31.7 206 206 206
51.0 -58.4 31.4 206 206 206
52.3 -59.0 31.7 206 206 206
51.8 -56.9 30.6 204 204 204
31.1 -28.6 15.4 203 203 203
-29.1 -23.9 13.0 57 57 55
-11.6 -23.9 13.0 50 50 50
-11.2 -23.8 13.0 84 83 81
-10.9 -23.9 13.0 22 25 23
-10.7 -24.1 13.1 50 50 50
-10.3 -23.9 13.0 184 184 184
-10.1 -24.0 13.1 182 185 184
51.2 -58.6 32.0 206 206 206
51.7 -58.4 31.8 206 206 206
53.1 -59.1 32.2 206 206 206
52.9 -58.1 31.7 206 206 206
52.8 -57.2 31.2 206 206 206
31.5 -28.6 15.6 203 203 203
-14.7 -18.1 10.0 31 31 31
-10.9 -24.2 13.4 48 48 48
-10.5 -23.9 13.2 183 186 185
-10.2 -24.1 13.3 181 184 183
51.2 -57.9 32.0 205 205 205
51.5 -57.5 31.7 205 205 205
53.6 -58.1 32.1 205 205 205
52.9 -56.6 31.2 206 206 206
-14.9 -17.9 10.0 101 100 98
-10.6 -24.0 13.4 182 185 184
-10.4 -24.1 13.5 181 184 183
-10.1 -24.3 13.6 179 182 181
51.2 -57.1 32.0 205 205 205
51.1 -56.3 31.5 205 205 205
54.6 -58.4 32.7 205 205 205
52.9 -55.8 31.2 205 205 205
50.3 -50.3 28.1 208 208 208
47.6 -47.0 26.3 206 206 206
-10.8 -24.1 13.6 181 184 183
-10.6 -24.2 13.7 180 183 182
-10.3 -24.4 13.8 178 181 180
9.7 -18.4 10.5 207 207 207
12.8 -17.8 10.1 207 207 207
56.1 -58.5 33.1 205 205 205
49.0 -48.4 27.4 205 205 205
47.6 -46.4 26.3 205 205 205
29.7 -24.2 13.7 183 183 183
-20.9 -17.6 10.1 63 62 61
-17.5 -17.5 10.0 63 63 63
-9.9 -19.0 10.9 46 46 44
-10.8 -26.0 15.0 176 179 178
8.1 -17.9 10.3 207 207 207
8.2 -17.7 10.2 207 207 207
8.5 -17.7 10.2 207 207 207
8.9 -17.7 10.2 207 207 207
9.2 -17.7 10.1 207 207 207
11.5 -17.6 10.1 207 207 207
11.8 -17.7 10.1 207 207 207
12.0 -17.6 10.1 207 207 207
12.2 -17.6 10.1 207 207 207
12.5 -17.7 10.2 207 207 207
12.7 -17.7 10.2 207 207 207
12.9 -17.6 10.1 207 207 207
14.3 -18.8 10.8 206 206 206
55.8 -57.4 33.0 207 207 207
49.2 -48.6 27.9 208 208 208
49.1 -47.9 27.5 205 205 205
47.7 -45.9 26.3 205 205 205
29.7 -23.9 13.7 184 184 184
941.4 -427.9 245.7 111 113 112
-20.9 -17.3 10.1 63 62 61
-20.6 -17.3 10.0 64 63 61
-17.8 -17.3 10.1 105 104 102
-15.0 -17.3 10.1 87 88 86
-13.4 -17.3 10.1 68 68 68
-9.9 -18.8 10.9 75 75 75
-11.2 -25.7 15.0 177 180 179
-11.0 -26.2 15.2 176 179 178
-10.7 -26.2 15.2 203 203 203
7.9 -17.9 10.4 207 207 207
8.1 -17.8 10.3 207 207 207
12.8 -17.8 10.4 206 206 206
13.0 -17.8 10.4 206 206 206
14.3 -18.6 10.8 206 206 206
14.2 -17.8 10.4 206 206 206
56.2 -57.0 33.2 204 204 204
49.5 -47.6 27.7 207 207 207
47.8 -45.3 26.4 204 204 204
29.7 -23.7 13.8 184 184 184
29.7 -23.4 13.6 184 184 184
863.0 -387.1 225.2 112 114 113
-20.9 -17.1 10.1 65 65 65
-20.6 -17.0 10.0 63 62 61
-9.9 -18.5 10.9 36 37 36
-11.5 -26.1 15.4 179 182 181
-11.2 -26.2 15.4 179 182 181
-10.8 -26.1 15.4 191 191 191
8.0 -17.7 10.4 207 207 207
8.2 -17.6 10.4 207 207 207
8.4 -17.6 10.4 207 207 207
12.8 -17.6 10.4 206 206 206
13.0 -17.5 10.3 206 206 206
14.0 -17.6 10.4 206 206 206
14.2 -17.6 10.4 206 206 206
55.8 -55.9 33.0 206 206 206
55.0 -54.3 32.0 207 207 207
50.7 -48.7 28.7 207 207 207
50.1 -47.6 28.1 207 207 207
49.0 -45.9 27.1 207 207 207
29.7 -23.3 13.8 184 184 184
29.9 -23.2 13.7 184 184 184
-9.9 -18.3 10.9 39 39 39
-12.4 -26.1 15.6 183 186 185
-12.0 -26.0 15.6 181 184 183
-11.6 -25.9 15.5 182 185 184
-11.3 -26.0 15.6 177 177 177
-10.8 -25.9 15.5 178 178 178
8.0 -17.5 10.5 207 207 207
12.8 -17.1 10.2 206 206 206
14.1 -17.5 10.5 203 203 203
56.1 -55.4 33.1 208 211 210
50.4 -48.4 29.0 208 211 210
51.0 -48.4 28.9 207 207 207
50.6 -47.4 28.3 207 207 207
49.3 -45.6 27.3 204 204 204
29.7 -23.0 13.8 188 188 188
-20.9 -18.7 11.4 225 225 225
-9.9 -17.9 10.9 110 110 110
-12.5 -25.9 15.7 184 187 186
-11.6 -25.7 15.6 182 182 182
-11.3 -25.7 15.6 178 178 178
-10.8 -25.5 15.5 161 161 161
-10.6 -25.8 15.6 165 165 165
50.3 -47.7 28.9 208 211 210
51.1 -47.8 29.0 208 211 210
51.0 -47.0 28.5 208 211 210
49.3 -44.9 27.3 207 207 207
30.0 -23.2 14.0 188 188 188
29.8 -22.8 13.8 188 188 188
43.8 -33.1 20.1 188 188 188
44.1 -33.0 20.0 188 188 188
-25.8 -17.7 10.9 73 74 72
-20.9 -18.4 11.3 212 213 212
-10.3 -17.9 11.0 34 33 32
-9.9 -17.7 10.9 35 35 35
-12.5 -25.6 15.7 186 188 187
-11.5 -25.1 15.4 183 186 185
-11.3 -25.3 15.6 177 177 177
-10.8 -25.2 15.5 158 161 160
-10.5 -25.3 15.6 155 158 157
50.9 -46.9 28.8 207 210 209
50.4 -45.9 28.2 208 211 210
49.3 -44.2 27.2 208 211 210
48.5 -43.0 26.5 208 211 210
49.0 -42.9 26.4 208 211 210
30.3 -23.1 14.2 188 188 188
29.8 -22.4 13.8 188 188 188
29.8 -22.2 13.7 188 188 188
34.3 -25.3 15.5 188 188 188
34.2 -24.9 15.3 188 188 188
-25.7 -17.4 10.8 144 144 144
-20.8 -18.2 11.3 193 193 193
-15.6 -16.0 10.0 30 30 30
-10.3 -17.7 11.0 112 112 112
-9.9 -17.4 10.9 127 127 127
-11.7 -25.1 15.6 184 187 186
-11.3 -25.1 15.7 177 177 177
-10.9 -24.9 15.6 163 163 163
-10.7 -25.3 15.8 156 159 158
50.2 -45.7 28.5 207 210 209
50.4 -45.2 28.2 207 210 209
49.9 -44.2 27.6 207 210 209
49.5 -43.3 27.0 208 211 210
49.8 -43.0 26.8 208 211 210
49.5 -42.2 26.3 208 211 210
29.8 -22.1 13.8 188 188 188
29.6 -21.8 13.6 189 189 189
34.2 -24.9 15.5 189 189 189
34.1 -24.5 15.3 189 189 189
33.9 -24.1 15.0 189 189 189
-20.9 -18.0 11.4 206 206 206
49.2 -41.4 26.2 208 211 210
29.7 -21.5 13.6 189 189 189
34.2 -24.5 15.5 189 189 189
34.2 -24.2 15.3 189 189 189
-20.9 -17.7 11.4 206 206 206
-10.0 -17.1 11.0 37 38 37
52.0 -43.6 28.0 207 210 209
29.9 -21.3 13.7 192 192 192
34.4 -24.3 15.6 189 189 189
-20.9 -17.4 11.4 141 141 141
-20.4 -17.3 11.3 138 140 139
-10.0 -16.8 11.0 34 34 34
-13.2 -30.0 19.5 170 171 170
34.5 -24.0 15.6 189 189 189
34.3 -23.6 15.4 190 190 190
62.0 -25.9 16.9 158 161 160
63.3 -26.3 17.1 155 155 155
-20.4 -17.0 11.3 58 59 59
-19.7 -16.6 11.0 65 65 65
-13.3 -29.7 19.7 172 172 172
104.2 -89.2 59.1 208 211 210
94.7 -80.0 53.0 208 211 210
166.1 -128.6 85.2 207 210 209
62.0 -25.5 16.9 159 159 159
63.1 -25.8 17.1 155 155 155
-13.8 -29.2 19.6 177 180 179
-13.4 -29.4 19.8 173 173 173
17.2 -17.2 11.6 206 209 208
121.0 -103.4 69.5 207 210 209
109.0 -91.9 61.8 208 211 210
714.5 -551.3 370.9 209 212 211
61.4 -24.9 16.7 161 161 161
62.6 -25.2 17.0 155 155 155
-14.4 -29.2 20.0 179 182 181
-13.8 -28.9 19.7 179 182 181
-13.4 -29.0 19.8 175 175 175
-13.0 -29.1 19.9 177 180 179
139.5 -117.3 80.2 207 210 209
114.2 -94.8 64.8 207 210 209
709.2 -532.2 363.8 209 212 211
583.1 -432.4 295.6 209 212 211
682.7 -333.4 227.9 199 199 199
63.5 -25.5 17.4 168 168 168
62.6 -25.0 17.1 160 160 160
62.5 -24.8 16.9 154 154 154
-32.7 -19.1 13.3 153 152 150
-32.4 -19.1 13.3 176 179 178
-32.1 -19.1 13.3 178 181 180
-31.8 -19.1 13.3 126 126 126
-14.5 -28.9 20.1 165 165 165
-13.9 -28.7 19.9 177 177 177
-13.6 -28.8 20.0 176 176 176
-13.1 -28.9 20.0 137 139 138
134.4 -111.2 77.2 207 210 209
123.1 -100.5 69.8 207 210 209
112.3 -90.5 62.8 207 210 209
66.6 -44.4 30.9 193 193 193
63.2 -24.8 17.2 162 162 162
62.9 -24.5 17.0 156 156 156
64.6 -25.0 17.4 150 152 152
65.0 -25.0 17.4 146 146 146
-33.2 -19.1 13.5 147 147 147
-32.8 -19.0 13.4 184 184 184
-32.6 -19.1 13.5 169 169 169
-32.3 -19.1 13.5 158 161 160
-32.1 -19.1 13.5 141 143 142
-31.6 -19.0 13.4 149 149 149
-31.2 -19.0 13.4 68 68 68
-30.9 -19.0 13.4 75 75 75
-30.7 -19.0 13.4 199 199 199
-30.4 -19.1 13.5 196 199 198
-22.5 -19.0 13.4 240 240 240
-21.6 -19.1 13.5 214 216 216
-21.3 -19.1 13.5 214 216 216
-21.0 -19.1 13.5 134 137 136
-20.7 -19.1 13.5 80 82 79
-20.4 -19.1 13.5 43 45 45
-20.1 -19.1 13.5 20 23 21
-19.8 -19.1 13.5 21 24 22
-19.5 -19.1 13.5 20 23 21
-19.0 -19.3 13.6 30 29 29
-18.5 -19.0 13.4 105 105 105
-18.2 -19.1 13.5 28 28 28
-17.9 -19.1 13.5 28 28 28
-17.5 -19.0 13.4 103 103 103
-17.2 -19.0 13.4 148 148 148
-16.9 -19.1 13.5 64 64 64
-16.6 -19.1 13.5 44 46 46
-16.3 -19.1 13.5 69 69 69
-16.0 -19.1 13.5 36 37 36
-14.0 -28.3 20.0 168 168 168
-13.6 -28.4 20.1 159 162 161
-13.2 -28.5 20.1 123 125 124
139.5 -113.5 80.2 206 209 208
125.4 -100.7 71.1 207 210 209
70.0 -46.4 32.8 195 195 195
69.0 -45.3 32.0 195 195 195
63.5 -24.5 17.3 160 160 160
63.1 -24.2 17.1 152 154 154
63.3 -24.1 17.0 152 152 152
64.1 -24.3 17.1 146 146 146
-33.2 -18.8 13.5 147 147 147
-32.9 -18.8 13.5 164 167 166
-32.7 -18.8 13.5 165 165 165
-32.4 -18.8 13.5 129 129 129
-32.1 -18.8 13.5 97 96 94
-31.7 -18.8 13.5 200 200 200
-30.4 -18.8 13.5 136 136 136
-30.1 -18.8 13.5 111 111 111
-23.0 -18.9 13.5 121 121 121
-22.6 -18.8 13.5 129 129 129
-22.3 -18.8 13.5 197 200 199
-22.0 -18.8 13.5 204 204 204
-21.6 -18.8 13.5 225 225 225
-21.3 -18.8 13.5 214 216 216
-21.0 -18.8 13.5 211 211 211
-20.7 -18.8 13.5 7 13 9
-20.4 -18.8 13.5 52 52 52
-20.1 -18.8 13.5 121 121 121
-19.8 -18.8 13.5 128 130 129
-19.5 -18.8 13.5 128 130 129
-18.9 -18.9 13.5 71 72 70
-18.5 -18.8 13.5 30 29 29
-18.2 -18.8 13.5 31 32 30
-17.9 -18.8 13.5 87 87 87
-17.6 -18.8 13.5 67 69 67
-14.9 -31.8 22.8 176 176 176
148.3 -118.7 85.2 206 209 208
130.8 -103.4 74.2 206 209 208
172.2 -126.1 90.5 208 211 210
164.1 -118.7 85.2 208 211 210
169.9 -121.5 87.2 208 211 210
70.3 -46.4 33.3 193 193 193
71.5 -46.6 33.5 195 195 195
70.5 -45.5 32.7 196 196 196
64.1 -23.9 17.1 142 144 143
-18.4 -15.3 11.1 224 224 224
-15.9 -15.1 11.0 30 31 30
-15.7 -15.2 11.1 30 31 30
-15.4 -15.1 11.0 100 100 100
-15.2 -15.1 11.0 30 31 30
-14.9 -15.1 11.0 42 42 42
-14.7 -15.1 11.1 138 140 139
-13.9 -15.2 11.1 31 32 30
-13.5 -15.0 11.0 42 42 42
-13.3 -15.0 11.0 78 80 78
-15.0 -31.4 22.9 170 172 172
-14.5 -31.5 23.0 158 158 158
444.4 -316.1 230.7 208 211 210
71.2 -46.2 33.7 191 191 191
70.9 -45.5 33.2 196 196 196
70.9 -45.0 32.8 196 196 196
70.7 -44.4 32.4 196 196 196
73.4 -27.9 20.4 178 181 180
65.1 -23.9 17.4 132 135 134
-18.4 -15.0 11.2 203 203 203
-16.0 -14.9 11.1 112 112 112
-14.7 -14.9 11.1 128 130 129
-13.7 -14.9 11.1 39 39 39
-16.0 -31.8 23.6 181 181 181
-15.1 -31.2 23.2 177 177 177
-14.6 -31.3 23.2 166 166 166
17.1 -15.8 11.7 203 205 205
17.2 -15.6 11.6 208 208 208
255.8 -183.3 136.1 207 210 209
580.6 -410.9 305.1 207 210 209
461.2 -322.5 239.4 208 211 210
576.2 -398.1 295.6 208 211 210
466.5 -318.5 236.5 208 211 210
304.5 -205.5 152.6 208 211 210
267.1 -178.2 132.3 209 212 211
241.5 -159.2 118.2 207 210 209
71.0 -43.9 32.6 196 196 196
83.6 -31.7 23.5 189 189 189
86.3 -32.5 24.1 185 185 185
86.1 -32.2 23.9 175 175 175
85.8 -31.9 23.7 166 166 166
70.5 -25.7 19.1 138 138 138
74.2 -26.4 19.6 133 133 133
-16.3 -31.9 24.1 181 181 181
-15.5 -31.3 23.6 170 171 170
-14.9 -31.3 23.7 155 155 155
17.0 -15.2 11.5 207 207 207
17.2 -15.1 11.4 207 207 207
625.0 -424.4 320.6 212 213 212
466.5 -313.0 236.5 212 213 212
322.7 -214.0 161.7 214 214 214
256.4 -168.0 127.0 208 211 210
234.2 -151.7 114.6 209 212 211
214.7 -137.6 103.9 209 212 211
84.4 -31.5 23.8 180 183 182
86.1 -31.9 24.1 178 178 178
86.5 -31.8 24.0 169 169 169
86.6 -31.7 23.9 163 163 163
71.6 -25.7 19.4 134 137 136
72.2 -25.7 19.4 136 136 136
73.8 -26.1 19.7 136 136 136
74.1 -26.1 19.7 133 133 133
75.5 -26.4 20.0 133 133 133
-28.6 -15.7 12.1 47 48 47
-18.0 -33.4 25.7 181 181 181
-16.0 -31.8 24.5 87 87 87
-15.4 -31.7 24.4 89 89 89
17.0 -14.9 11.5 207 207 207
18.9 -14.9 11.5 208 208 208
768.3 -512.5 394.1 212 213 212
533.1 -351.4 270.2 212 213 212
244.8 -157.7 121.3 214 214 214
231.4 -147.3 113.3 209 212 211
214.7 -135.2 103.9 209 212 211
87.0 -31.6 24.3 152 154 154
87.2 -31.5 24.2 149 149 149
87.4 -31.4 24.1 144 144 144
73.5 -25.7 19.8 135 135 135
74.8 -26.0 20.0 132 132 132
75.6 -26.1 20.1 132 132 132
76.3 -26.2 20.2 132 132 132
-18.7 -34.1 26.7 184 184 184
-17.9 -33.8 26.5 134 137 136
-16.4 -34.5 27.0 61 61 61
-15.7 -34.4 26.9 113 114 113
611.8 -396.0 310.1 212 213 212
253.0 -160.0 125.3 214 214 214
234.2 -146.4 114.6 208 211 210
222.0 -137.3 107.5 214 214 214
88.1 -31.5 24.6 147 147 147
88.3 -31.3 24.5 134 134 134
89.0 -31.4 24.6 131 134 133
89.8 -31.5 24.6 131 134 133
73.4 -25.2 19.7 129 129 129
74.8 -25.6 20.0 127 127 127
76.2 -25.9 20.3 128 131 130
76.3 -25.8 20.2 129 129 129
-26.2 -14.1 11.3 23 23 23
-25.8 -14.1 11.2 18 22 19
-18.9 -36.2 28.9 88 88 88
-18.2 -36.1 28.8 90 92 91
-17.4 -35.8 28.6 71 71 71
-16.6 -35.6 28.4 112 112 112
17.1 -14.7 11.7 207 207 207
17.3 -14.7 11.7 209 209 209
540.3 -364.9 291.0 214 214 214
250.4 -167.0 133.2 214 214 214
260.4 -163.6 130.5 212 213 212
249.6 -155.0 123.6 214 214 214
237.0 -145.5 116.1 208 211 210
222.0 -134.8 107.5 208 211 210
89.5 -31.4 25.0 105 105 105
89.1 -31.0 24.8 111 111 111
90.3 -31.2 24.9 118 118 118
91.6 -31.5 25.1 120 120 120
92.4 -31.6 25.2 118 118 118
76.9 -25.6 20.5 122 122 122
76.8 -25.4 20.3 124 124 124
-19.7 -37.1 30.2 91 93 92
-18.8 -36.6 29.7 90 92 91
-17.9 -36.4 29.6 88 90 89
-17.2 -36.3 29.5 77 77 77
17.3 -14.5 11.8 209 209 209
17.4 -14.4 11.7 209 209 209
487.8 -323.3 262.7 214 214 214
611.8 -381.6 310.1 212 213 212
238.7 -145.5 118.2 216 216 216
232.7 -140.2 114.0 208 211 210
222.0 -132.3 107.5 214 214 214
91.3 -31.0 25.2 108 110 110
93.0 -31.4 25.5 111 111 111
93.7 -31.4 25.5 111 111 111
44.6 -14.4 11.7 132 132 132
-87.5 -37.5 31.1 89 89 89
-87.3 -37.8 31.3 100 100 100
-86.6 -37.8 31.3 150 150 150
-85.8 -37.8 31.3 96 96 96
-83.7 -37.8 31.3 209 209 209
-82.9 -37.8 31.3 140 140 140
-73.9 -37.6 31.1 29 30 28
-72.4 -37.2 30.8 23 23 23
-71.7 -37.6 31.1 17 21 18
-71.0 -37.6 31.1 25 25 25
-70.6 -37.8 31.3 136 138 137
-67.1 -37.8 31.3 187 189 189
-66.2 -37.8 31.3 137 139 138
-65.5 -37.8 31.3 148 148 148
-64.5 -37.6 31.1 134 134 134
-63.7 -37.6 31.1 148 150 150
-59.0 -37.8 31.3 44 44 44
-58.1 -37.7 31.2 16 16 16
-57.4 -37.7 31.2 47 47 47
-56.7 -37.7 31.2 53 53 53
-56.0 -37.7 31.2 53 53 53
-55.2 -37.7 31.2 53 53 53
-53.1 -37.7 31.2 53 53 53
-52.5 -37.8 31.3 49 49 49
-51.7 -37.8 31.3 47 48 47
-51.1 -37.9 31.4 38 38 38
-50.3 -37.8 31.3 27 28 26
-49.6 -37.8 31.3 27 28 26
-48.9 -37.8 31.3 84 86 86
-48.2 -37.9 31.4 18 22 19
-47.3 -37.8 31.3 24 24 24
-44.5 -37.8 31.3 121 121 121
-43.4 -37.5 31.1 27 28 26
-42.8 -37.6 31.1 80 80 80
-41.7 -37.9 31.4 52 52 52
-40.5 -37.5 31.1 36 36 36
-20.2 -37.4 31.0 91 93 92
-19.2 -36.8 30.5 90 92 91
-18.5 -36.8 30.5 64 64 62
-17.8 -36.9 30.6 55 56 54
17.3 -14.3 11.8 209 209 209
17.5 -14.2 11.8 209 209 209
548.8 -335.9 278.2 216 216 216
48.8 -16.4 13.6 105 105 105
49.0 -16.3 13.5 107 107 107
93.7 -31.0 25.7 108 108 108
45.0 -14.3 11.8 150 152 152
45.3 -14.3 11.8 122 122 122
-89.8 -37.8 31.9 106 106 104
-91.7 -38.9 32.8 159 159 159
-88.9 -38.0 32.1 47 47 47
-90.2 -38.9 32.8 106 106 104
-89.4 -38.9 32.8 165 165 165
-88.6 -38.9 32.8 204 207 206
-87.4 -38.7 32.7 161 164 163
-86.7 -38.7 32.7 179 182 181
-84.6 -38.1 32.2 189 191 191
-85.6 -38.9 32.8 195 198 197
-83.4 -39.0 32.9 72 72 72
-82.5 -38.9 32.8 72 72 72
-81.0 -38.9 32.8 75 77 75
-80.1 -38.8 32.8 77 79 77
-76.4 -38.1 32.2 25 25 25
-75.4 -38.0 32.1 27 27 27
-74.6 -38.0 32.1 19 23 20
-73.7 -37.9 32.0 19 23 20
-73.3 -38.0 32.1 19 23 20
-72.6 -38.1 32.2 111 111 111
-71.9 -38.1 32.2 148 148 148
-69.6 -38.1 32.2 148 148 148
-68.9 -38.1 32.2 148 150 150
-68.0 -38.0 32.1 124 127 126
-67.3 -38.0 32.1 121 121 121
-66.2 -37.8 32.0 123 123 123
-65.5 -37.8 32.0 137 139 138
-61.3 -39.0 32.9 16 20 17
-60.4 -38.9 32.8 47 48 47
-58.3 -38.0 32.1 53 53 53
-57.7 -38.1 32.2 56 55 54
-56.9 -38.1 32.2 53 53 53
-56.2 -38.1 32.2 53 53 53
-55.3 -38.0 32.1 53 53 53
-55.8 -38.9 32.8 53 53 53
-53.9 -38.1 32.2 49 49 49
-53.2 -38.1 32.2 47 48 47
-54.0 -39.2 33.1 39 41 41
-51.9 -38.2 32.3 32 31 30
-52.2 -39.0 33.0 33 33 33
-51.6 -39.2 33.1 80 80 80
-51.2 -39.4 33.3 36 37 36
-50.0 -39.1 33.0 52 52 52
-47.1 -38.6 32.6 132 135 134
-45.6 -38.0 32.1 105 105 103
-44.8 -38.0 32.1 34 34 34
-44.1 -38.0 32.1 41 41 41
-41.7 -37.8 32.0 110 110 110
-21.0 -38.0 32.1 97 97 97
-19.9 -37.3 31.5 94 94 94
-19.1 -37.1 31.4 81 84 83
-18.6 -37.6 31.8 35 35 35
17.4 -13.9 11.7 209 209 209
20.5 -14.7 12.4 214 214 214
20.7 -14.7 12.4 214 214 214
43.5 -20.9 17.7 168 168 168
43.1 -20.6 17.4 112 112 112
49.0 -16.0 13.5 105 105 105
49.0 -15.9 13.4 105 105 105
49.4 -16.0 13.5 100 102 102
45.7 -14.2 12.0 155 155 155
45.8 -14.1 11.9 121 123 122
-52.8 -39.9 34.3 66 66 66
-21.9 -38.9 33.5 98 98 98
-20.7 -38.1 32.8 95 95 95
-19.7 -37.7 32.4 95 98 97
-19.2 -38.3 33.0 93 93 93
20.7 -14.4 12.4 214 214 214
48.4 -24.4 21.0 205 205 205
47.1 -23.6 20.3 205 205 205
43.0 -20.3 17.5 172 174 174
42.3 -19.8 17.0 116 116 116
49.2 -15.8 13.6 100 100 100
49.4 -15.7 13.6 100 100 100
49.9 -15.8 13.6 96 96 96
46.8 -14.3 12.4 87 87 87
46.3 -14.1 12.1 158 158 158
-28.2 -13.9 12.3 160 160 160
-27.8 -13.9 12.2 126 129 128
-20.9 -14.0 12.3 67 68 66
-23.3 -40.5 35.6 96 96 96
583.1 -336.3 295.6 218 218 218
47.2 -23.3 20.5 205 205 205
46.2 -22.6 19.9 205 205 205
43.7 -20.2 17.7 181 181 181
49.3 -15.5 13.6 101 101 101
46.7 -14.0 12.3 158 161 160
-21.0 -13.8 12.4 140 142 141
734.7 -430.2 386.0 220 220 220
583.1 -329.4 295.6 218 218 218
637.3 -340.0 305.1 175 177 177
46.8 -22.7 20.4 205 205 205
45.7 -22.0 19.7 205 205 205
44.2 -20.0 17.9 193 193 193
750.0 -430.0 394.1 220 220 220
557.0 -308.1 282.3 218 218 218
814.1 -430.0 394.1 219 219 219
45.7 -21.5 19.7 205 205 205
44.2 -19.6 18.0 195 195 195
-30.5 -51.7 48.4 100 100 100
-29.6 -52.1 48.8 109 109 109
-30.0 -54.9 51.4 19 19 19
750.0 -420.9 394.1 220 220 220
574.1 -310.8 291.0 221 221 221
737.3 -381.2 356.9 219 219 219
44.4 -20.2 19.0 205 205 205
42.8 -19.3 18.1 205 205 205
44.3 -19.2 18.0 198 198 198
-30.4 -52.3 50.0 109 109 109
601.9 -318.7 305.1 220 220 220
43.3 -19.3 18.5 205 205 205
44.1 -18.7 17.9 194 194 194
-36.9 -57.7 56.5 94 94 94
-34.3 -55.5 54.4 103 103 103
-32.7 -55.0 53.9 113 114 113
-33.1 -57.9 56.6 33 33 33
43.4 -18.0 17.6 206 206 206
-38.5 -58.8 58.9 94 97 96
-35.6 -56.4 56.5 99 99 99
-33.9 -55.7 55.8 113 114 113
-33.8 -57.7 57.8 47 48 47
-33.3 -59.2 59.3 19 19 19
42.5 -17.1 17.1 113 114 113
-40.7 -60.7 62.2 93 96 95
-38.5 -59.5 61.0 102 102 102
-35.3 -56.7 58.2 112 112 112
-35.1 -58.5 60.1 47 48 47
-34.8 -60.5 62.0 19 19 19
-33.1 -60.1 61.6 160 160 160
-45.3 -65.9 69.3 91 91 91
-37.7 -61.4 64.6 27 27 27
-37.1 -62.9 66.1 23 24 23
187.6 -84.5 88.8 196 196 196
221.3 -67.2 70.6 43 45 44
-40.6 -64.6 69.5 22 22 22
-39.3 -65.0 70.1 22 22 22
187.6 -82.5 88.8 184 184 184
188.5 -80.8 89.2 176 179 178
-60.7 -91.7 103.9 32 32 32
-58.0 -91.2 103.4 31 31 31
146.9 -60.7 68.8 197 197 197
146.9 -60.0 68.0 200 200 200
153.9 -61.6 69.8 202 202 202
155.0 -61.3 69.5 202 202 202
-107.2 -164.1 191.1 22 22 22
-87.7 -140.0 163.1 178 178 178
-89.3 -149.0 173.5 180 183 182
221.8 -84.6 98.5 202 202 202
-134.7 -192.7 230.7 26 25 24
-132.6 -197.6 236.5 29 29 29
-122.5 -190.4 227.9 164 164 164
-106.9 -173.7 207.9 177 177 177
224.2 -83.2 99.6 202 202 202
220.7 -81.0 97.0 202 202 202
222.9 -80.2 96.0 203 203 203
216.4 -77.1 92.3 203 203 203
-179.8 -260.4 320.6 31 31 31
-175.3 -264.9 326.1 166 169 168
200.5 -73.9 90.9 200 200 200
204.6 -74.6 91.8 200 200 200
224.2 -80.9 99.6 202 202 202
221.8 -79.2 97.5 202 202 202
221.8 -78.4 96.5 202 202 202
221.8 -77.6 95.5 203 203 203
214.3 -74.2 91.4 203 203 203
191.3 -68.5 86.8 197 197 197
192.5 -68.2 86.4 198 198 198
220.7 -77.3 98.0 198 198 198
217.3 -75.4 95.5 202 202 202
209.0 -71.8 90.9 202 202 202
213.2 -72.5 91.8 202 202 202
209.2 -70.4 89.2 204 204 204
200.9 -66.9 84.8 205 205 205
186.2 -64.7 84.4 197 197 197
186.5 -64.1 83.7 197 197 197
201.9 -68.7 89.7 198 198 198
205.9 -69.3 90.5 198 198 198
202.2 -67.4 88.0 202 202 202
208.1 -68.7 89.7 202 202 202
206.3 -67.4 88.0 204 204 204
190.6 -61.6 80.5 204 204 204
168.1 -53.8 70.3 205 205 205
210.9 -68.9 92.7 198 198 198
208.2 -65.9 88.8 202 202 202
180.6 -56.6 76.3 203 203 203
167.5 -52.0 70.1 206 206 206
207.3 -63.6 88.4 202 202 202
182.1 -55.3 76.9 202 202 202
168.8 -50.8 70.6 204 204 204
207.3 -61.5 88.4 202 202 202
198.0 -56.8 84.4 202 202 202
186.6 -53.0 78.8 204 204 204
-142.4 -40.2 61.8 177 177 177
-136.5 -38.9 59.9 179 179 179
-133.9 -38.5 59.3 20 23 21
-145.7 -43.3 66.6 29 29 29
-135.1 -40.6 62.4 29 29 29
202.5 -56.1 86.4 202 202 202
183.6 -50.4 77.5 202 202 202
168.8 -45.8 70.6 204 204 204
-211.6 -57.5 91.8 159 162 161
-209.4 -57.5 91.8 101 101 101
-199.2 -56.4 90.1 34 33 32
-189.8 -54.3 86.8 30 30 30
-151.7 -43.9 70.1 22 25 23
177.7 -47.0 75.1 202 202 202
-250.5 -65.6 108.7 169 171 170
187.1 -48.1 79.8 202 202 202
177.7 -45.3 75.1 203 203 203
162.7 -41.0 68.0 203 203 203
193.7 -47.9 79.5 232 232 232
160.5 -39.3 65.2 235 235 235
146.8 -35.6 59.1 112 112 112
183.3 -45.3 78.2 203 203 203
178.5 -43.7 75.4 203 203 203
168.8 -40.9 70.6 205 205 205
189.8 -45.1 77.8 236 236 236
161.6 -38.1 65.7 236 236 236
47.4 -9.8 16.9 80 80 80
47.8 -9.8 16.9 82 84 84
189.5 -45.0 80.8 203 203 203
181.3 -42.6 76.6 203 203 203
176.0 -41.0 73.6 207 207 207
191.1 -44.1 79.1 195 195 195
191.3 -43.7 78.5 236 236 236
47.5 -9.4 16.9 81 81 81
47.8 -9.4 16.9 81 81 81
48.2 -9.4 16.9 120 120 120
183.6 -41.3 77.5 203 203 203
176.7 -39.4 73.9 205 205 205
202.1 -44.6 83.7 195 195 195
197.9 -43.3 81.2 232 232 232
47.5 -9.0 16.9 81 81 81
20.0 -5.8 11.3 222 222 222
20.1 -5.7 11.3 222 222 222
498.0 -117.7 230.7 166 169 168
177.7 -38.3 75.1 205 205 205
208.5 -44.1 86.4 204 204 204
157.3 -32.6 63.9 225 227 227
151.6 -31.1 61.0 125 125 125
47.5 -8.6 16.9 82 84 84
18.4 -5.4 11.0 222 222 222
276.9 -58.7 120.5 197 197 197
199.8 -41.5 85.2 200 200 200
189.0 -38.9 79.8 204 204 204
166.3 -33.9 69.5 204 204 204
203.0 -40.9 84.1 200 200 200
201.4 -40.2 82.6 221 221 221
163.3 -32.3 66.4 225 225 225
152.1 -29.8 61.2 119 119 119
221.6 -42.6 87.6 61 64 63
167.5 -31.6 65.0 63 65 65
18.4 -5.1 11.0 224 224 224
19.5 -5.1 11.0 224 224 224
18.4 -4.9 11.2 221 221 221
18.5 -4.9 11.1 225 225 225
19.6 -4.9 11.1 218 218 218
19.8 -4.9 11.1 218 218 218
21.5 -4.9 11.0 225 225 225
21.8 -4.9 11.0 225 225 225
22.1 -4.9 11.0 225 225 225
19.2 -4.4 10.5 222 222 222
21.6 -4.6 11.1 225 225 225
22.0 -4.7 11.2 225 225 225
22.2 -4.6 11.1 225 225 225
20.6 -4.2 10.7 226 226 226
20.6 -4.2 10.6 220 220 220
22.5 -4.3 11.5 224 224 224
22.6 -4.2 11.5 224 224 224
22.2 -4.0 11.4 225 225 225
22.4 -3.9 11.4 225 225 225
22.6 -3.9 11.3 225 225 225
23.0 -3.9 11.4 225 225 225
22.2 -3.6 11.2 225 225 225
22.4 -3.6 11.2 225 225 225
22.3 -3.4 11.2 222 222 222
878.3 -101.0 363.8 230 233 232
25.2 -2.8 12.1 155 158 157
23.1 -2.5 12.0 225 225 225
25.2 -2.5 12.1 161 161 161
20.3 -2.2 12.1 224 224 224
23.0 -2.3 12.2 224 224 224
23.2 -2.2 12.1 226 226 226
23.5 -2.2 12.0 226 226 226
25.3 -2.2 12.1 160 160 160
447.2 -31.8 172.0 77 77 77
19.9 -1.9 12.1 219 222 221
20.2 -1.9 12.1 219 222 221
20.4 -1.9 12.1 219 222 221
20.7 -1.9 12.0 219 222 221
21.0 -1.9 12.1 224 224 224
22.8 -2.0 12.1 224 224 224
23.0 -2.0 12.1 224 224 224
23.2 -1.9 12.0 224 224 224
23.4 -1.9 12.0 224 224 224
23.8 -1.9 12.0 224 224 224
24.0 -1.9 12.0 224 224 224
24.0 -1.9 11.9 224 224 224
24.4 -1.9 11.9 224 224 224
25.0 -2.0 12.1 218 221 220
25.2 -2.0 12.1 165 165 165
25.2 -1.9 11.9 162 165 164
565.4 -38.2 236.5 202 202 202
593.1 -39.7 245.7 230 230 230
536.2 -35.5 220.0 222 222 222
541.3 -35.5 220.0 230 230 230
528.0 -34.3 212.5 102 102 102
521.2 -33.6 207.9 82 82 82
583.8 -37.2 230.7 63 65 65
508.5 -32.1 199.1 63 63 63
482.7 -30.2 187.3 75 76 76
390.4 -24.2 150.1 77 77 77
934.3 -48.5 300.3 56 55 54
912.3 -47.0 291.0 69 68 67
786.1 -40.2 248.9 81 84 83
20.0 -1.7 12.0 219 222 221
20.2 -1.7 11.9 219 222 221
20.5 -1.6 11.9 219 222 221
22.9 -1.7 12.0 225 225 225
23.0 -1.7 11.9 225 225 225
23.3 -1.6 11.9 227 227 227
23.9 -1.6 11.8 224 224 224
24.2 -1.6 11.9 227 227 227
25.2 -1.7 12.1 165 165 165
25.1 -1.6 11.9 175 177 177
611.2 -35.3 255.6 202 202 202
652.4 -37.3 270.2 208 208 208
435.3 -23.3 168.9 74 74 74
351.3 -18.7 135.1 72 72 72
981.0 -43.6 315.3 43 44 43
926.6 -40.8 295.6 136 136 136
23.0 -1.4 11.9 225 225 225
22.8 -1.3 11.6 225 225 225
22.5 -1.3 11.3 225 225 225
25.2 -1.4 12.1 168 168 168
1201.3 -44.4 386.0 35 36 34
1005.1 -36.9 320.6 193 193 193
979.4 -35.6 310.1 96 96 96
23.1 -1.1 12.0 220 223 222
22.1 -1.0 11.2 225 225 225
22.3 -1.0 11.2 228 228 228
25.2 -1.1 12.1 174 176 176
25.1 -1.1 11.9 188 188 188
1154.1 -34.0 370.9 34 34 34
1005.1 -29.4 320.6 183 186 185
948.3 -27.5 300.3 95 95 95
813.2 -23.4 255.6 81 81 81
25.3 -0.8 12.1 175 177 177
1162.8 -25.4 370.9 177 180 179
20.0 -0.6 12.3 217 217 217
20.2 -0.6 12.2 219 219 219
20.4 -0.6 12.2 220 223 222
23.1 -0.6 12.3 223 225 225
23.4 -0.6 12.3 222 224 224
25.7 -0.6 12.4 222 224 224
25.6 -0.6 12.3 175 177 177
25.3 -0.5 12.0 192 192 192
20.0 -0.3 12.3 212 213 212
20.1 -0.3 12.2 218 218 218
20.3 -0.3 12.2 220 220 220
20.6 -0.3 12.2 224 226 226
22.9 -0.3 12.3 223 225 225
23.1 -0.3 12.3 223 225 225
23.3 -0.3 12.2 223 225 225
23.4 -0.3 12.1 223 225 225
21.7 -0.2 10.7 223 225 225
21.8 -0.2 10.7 223 225 225
25.6 -0.3 12.4 220 223 222
25.4 -0.3 12.2 176 179 178
20.0 0.0 12.2 214 214 214
20.3 0.0 12.1 219 219 219
23.2 0.0 12.2 224 226 226
23.3 0.0 12.1 224 226 226
22.5 0.0 11.4 223 225 225
22.4 0.0 11.2 223 225 225
23.3 0.0 11.4 223 225 225
25.3 0.0 12.1 177 180 179
22.4 0.3 11.3 224 226 226
22.5 0.3 11.3 224 226 226
23.2 0.3 11.4 224 226 226
25.5 0.3 12.2 179 182 181
25.0 0.3 11.8 197 197 197
26.8 0.7 14.4 223 225 225
27.1 0.7 14.4 223 225 225
22.5 0.5 11.4 223 225 225
26.2 0.6 12.8 223 225 225
26.2 0.6 12.7 223 225 225
25.0 0.6 11.8 197 197 197
26.1 1.0 14.4 221 221 221
26.4 1.0 14.4 221 221 221
26.7 1.0 14.4 224 224 224
27.0 1.0 14.3 224 224 224
27.4 1.0 14.4 224 224 224
27.7 1.0 14.4 224 224 224
27.8 1.0 14.3 224 226 226
26.2 0.9 12.7 222 222 222
79.8 1.5 21.4 86 85 83
26.5 1.3 14.3 225 225 225
26.7 1.3 14.2 225 225 225
27.0 1.3 14.2 224 224 224
27.4 1.3 14.2 224 224 224
27.3 1.3 14.0 224 224 224
26.3 1.2 12.7 224 226 226
80.3 2.0 21.5 87 86 84
80.9 2.0 21.5 88 88 88
81.0 2.0 21.4 98 100 100
21.9 1.5 12.9 214 214 214
22.1 1.5 12.9 216 216 216
22.3 1.5 12.8 218 218 218
22.7 1.5 12.9 220 220 220
23.0 1.5 12.9 224 224 224
23.5 1.5 13.0 224 224 224
23.6 1.5 12.9 222 222 222
26.4 1.7 14.2 222 222 222
27.4 1.7 14.2 225 225 225
27.4 1.7 14.1 225 225 225
26.0 1.5 12.9 225 225 225
26.3 1.5 12.9 222 222 222
26.5 1.5 12.8 225 225 225
82.6 2.6 22.2 89 89 89
80.9 2.5 21.6 89 89 89
81.8 2.6 21.7 89 89 89
20.2 1.8 12.4 198 198 198
20.3 1.7 12.3 200 200 200
21.7 1.8 13.0 204 204 204
21.9 1.8 12.9 209 209 209
22.7 1.8 12.9 221 221 221
23.0 1.8 12.9 221 221 221
23.4 1.8 12.9 221 221 221
23.6 1.8 12.9 221 221 221
23.6 1.7 12.4 224 224 224
27.5 2.0 14.3 224 224 224
26.0 1.8 12.9 224 224 224
26.2 1.8 12.9 225 225 225
83.1 3.1 22.4 87 87 85
82.0 3.1 21.9 87 87 85
82.4 3.1 21.9 91 91 91
83.2 3.1 22.0 94 94 94
19.9 2.0 12.5 194 194 194
20.2 2.0 12.4 196 196 196
20.3 2.0 12.3 199 199 199
20.6 2.0 12.3 202 202 202
21.0 2.0 12.4 207 207 207
21.4 2.0 12.4 215 215 215
21.7 2.0 12.5 217 217 217
22.1 2.1 12.5 220 220 220
22.3 2.0 12.5 220 220 220
22.5 2.0 12.4 222 222 222
23.2 2.0 12.5 222 222 222
23.4 2.0 12.5 222 222 222
23.6 2.0 12.4 222 222 222
84.4 3.7 22.7 86 85 83
82.7 3.6 22.0 94 94 94
84.0 3.6 22.2 97 100 99
20.2 2.3 12.4 197 197 197
21.7 2.3 12.5 216 216 216
22.4 2.4 12.6 221 221 221
82.8 4.1 22.0 92 92 92
84.2 4.2 22.2 97 97 97
706.7 62.2 295.6 199 199 199
702.6 61.2 291.0 203 203 203
731.9 63.2 300.3 199 199 199
674.6 57.7 274.1 84 84 84
693.8 57.7 274.1 191 191 191
1041.2 73.7 350.3 102 104 104
928.9 65.3 310.1 87 89 88
897.4 56.9 270.2 149 151 151
827.9 51.0 242.5 75 75 75
670.3 41.0 195.0 77 77 77
849.7 64.0 248.9 77 77 77
656.7 49.1 191.1 78 78 78
-192.7 62.6 107.5 96 95 94
-147.7 62.6 107.5 89 89 87
-145.2 62.6 107.5 81 84 83
-140.3 61.5 105.7 80 83 82
-137.9 61.5 105.7 80 83 82
26.7 16.0 10.8 211 211 211
26.7 16.2 10.7 211 211 211
18.7 15.9 10.2 169 171 170
39.1 17.1 10.9 108 108 108
39.4 17.0 10.9 109 111 111
39.7 17.1 11.0 109 111 111
40.7 17.1 11.0 128 130 129
40.9 17.1 10.9 108 108 108
18.6 16.3 10.3 102 104 104
18.7 16.2 10.2 112 112 112
40.7 17.3 10.9 128 130 129
40.9 17.3 10.9 79 78 77
18.8 16.5 10.3 102 104 104
