ply
format ascii 1.0
element vertex 2340
property float x
property float y
property float z
property uchar red
property uchar green
property uchar blue
end_header
120.3 -687.8 274.1 156 159 158
126.6 -687.8 274.1 160 160 160
133.0 -687.8 274.1 159 159 159
139.4 -687.8 274.1 159 159 159
145.8 -687.8 274.1 159 159 159
152.1 -687.8 274.1 161 161 161
158.5 -687.8 274.1 161 161 161
164.9 -687.8 274.1 161 161 161
171.2 -687.8 274.1 161 161 161
175.1 -678.0 270.2 161 161 161
184.0 -687.8 274.1 161 161 161
190.4 -687.8 274.1 161 161 161
196.7 -687.8 274.1 164 164 164
203.1 -687.8 274.1 164 164 164
209.5 -687.8 274.1 165 165 165
219.0 -698.0 278.2 165 165 165
222.2 -687.8 274.1 165 165 165
228.6 -687.8 274.1 165 165 165
235.0 -687.8 274.1 165 165 165
234.5 -668.5 266.4 165 165 165
234.1 -650.2 259.1 165 165 165
250.4 -678.0 270.2 165 165 165
260.5 -687.8 274.1 165 165 165
263.0 -678.0 270.2 165 165 165
269.3 -678.0 270.2 165 165 165
279.6 -687.8 274.1 168 168 168
285.9 -687.8 274.1 162 162 162
292.3 -687.8 274.1 162 162 162
298.7 -687.8 274.1 163 163 163
309.5 -698.0 278.2 163 163 163
316.0 -698.0 278.2 163 163 163
317.8 -687.8 274.1 163 163 163
315.0 -668.5 266.4 160 160 160
321.2 -668.5 266.4 161 161 161
336.9 -687.8 274.1 161 161 161
329.0 -659.2 262.7 161 161 161
339.8 -668.5 266.4 161 161 161
356.0 -687.8 274.1 161 161 161
373.2 -708.4 282.3 161 161 161
374.2 -698.0 278.2 161 161 161
380.7 -698.0 278.2 161 161 161
387.1 -698.0 278.2 161 161 161
377.0 -668.5 266.4 157 160 159
394.3 -687.8 274.1 157 160 159
104.9 -172.0 68.5 154 156 156
106.1 -171.3 68.3 154 156 156
107.7 -171.3 68.3 155 158 157
110.1 -172.6 68.8 155 158 157
110.1 -170.1 67.8 156 159 158
127.1 -267.2 107.5 163 163 163
137.1 -267.2 107.5 163 163 163
136.5 -261.2 105.1 163 163 163
99.8 -157.3 63.3 158 161 160
117.4 -182.3 73.3 158 161 160
115.9 -177.4 71.4 156 159 158
96.8 -146.0 58.7 156 159 158
88.1 -179.9 73.0 163 163 163
86.4 -173.2 70.3 163 163 163
100.5 -194.1 78.8 163 163 163
91.7 -173.8 70.6 163 163 163
68.1 -107.8 43.8 162 162 162
111.4 -173.8 70.6 163 163 163
113.8 -175.1 71.1 158 161 160
112.5 -170.6 69.3 158 161 160
61.1 -40.2 16.3 163 166 165
60.1 -39.3 16.0 157 157 157
59.8 -38.9 15.8 215 215 215
45.7 -141.5 58.0 168 168 168
46.9 -141.1 57.8 168 168 168
48.4 -141.5 58.0 168 168 168
49.6 -141.1 57.8 168 168 168
51.1 -141.5 58.0 165 165 165
52.6 -142.0 58.2 165 165 165
53.8 -141.5 58.0 165 165 165
55.3 -142.0 58.2 165 165 165
56.8 -142.4 58.4 165 165 165
64.8 -142.0 58.2 163 163 163
66.5 -142.9 58.6 163 163 163
67.5 -142.0 58.2 163 163 163
68.4 -141.1 57.8 163 163 163
70.2 -142.0 58.2 163 163 163
71.3 -141.5 58.0 163 163 163
72.0 -140.3 57.5 163 163 163
74.7 -142.9 58.6 163 163 163
75.8 -142.4 58.4 163 163 163
76.5 -141.1 57.8 163 163 163
62.3 -99.2 40.7 164 164 164
62.4 -98.0 40.2 164 164 164
65.0 -100.5 41.2 165 165 165
120.6 -183.8 75.4 163 163 163
68.3 -48.1 19.7 96 96 96
59.2 -38.4 15.7 207 207 207
58.6 -37.7 15.5 200 202 202
46.0 -114.3 47.3 165 165 165
56.2 -112.6 46.6 163 163 163
59.2 -114.3 47.3 166 166 166
65.1 -116.9 48.4 166 166 166
61.9 -97.7 40.4 162 162 162
58.9 -91.6 37.9 162 162 162
57.7 -88.4 36.6 168 168 168
120.2 -181.4 75.1 165 165 165
115.5 -171.8 71.1 166 166 166
120.0 -158.1 65.5 162 165 164
112.9 -147.0 60.8 160 163 162
66.3 -46.3 19.2 90 90 90
65.4 -45.3 18.8 93 93 93
57.9 -37.2 15.4 212 213 212
57.0 -36.4 15.1 183 186 185
56.1 -35.6 14.7 215 215 215
55.5 -35.0 14.5 212 213 212
16.8 -87.2 36.4 162 162 162
17.7 -87.2 36.4 165 165 165
18.5 -87.2 36.4 165 165 165
19.4 -87.2 36.4 168 168 168
20.2 -87.2 36.4 167 167 167
21.1 -87.2 36.4 169 171 170
21.9 -87.2 36.4 169 171 170
22.8 -87.2 36.4 169 171 170
23.6 -87.2 36.4 169 171 170
24.5 -87.2 36.4 169 171 170
25.3 -87.2 36.4 169 171 170
26.2 -87.2 36.4 167 167 167
27.0 -87.2 36.4 167 167 167
27.8 -87.2 36.4 168 168 168
28.7 -87.2 36.4 168 168 168
29.5 -87.2 36.4 168 168 168
30.4 -87.2 36.4 165 165 165
31.2 -87.2 36.4 165 165 165
32.1 -87.2 36.4 165 165 165
32.9 -87.2 36.4 165 165 165
33.8 -87.4 36.5 165 165 165
34.6 -87.2 36.4 165 165 165
35.5 -87.2 36.4 165 165 165
36.3 -87.2 36.4 165 165 165
37.1 -87.0 36.4 165 165 165
38.1 -87.4 36.5 165 165 165
38.6 -86.7 36.2 166 166 166
39.7 -87.2 36.4 166 166 166
40.6 -87.2 36.4 166 166 166
41.2 -86.7 36.2 169 169 169
42.4 -87.5 36.6 169 169 169
43.2 -87.4 36.5 169 169 169
44.0 -87.4 36.5 169 169 169
44.9 -87.4 36.5 169 169 169
45.7 -87.4 36.5 169 169 169
47.1 -88.4 36.9 169 169 169
47.1 -86.7 36.2 169 169 169
47.4 -85.7 35.8 169 169 169
49.8 -88.6 37.0 169 169 169
50.4 -88.1 36.8 169 169 169
50.9 -87.5 36.6 170 171 170
51.9 -87.7 36.7 170 171 170
52.6 -87.5 36.6 170 171 170
57.9 -90.5 37.8 170 171 170
57.1 -87.9 36.7 170 171 170
56.6 -85.9 35.9 172 172 172
119.7 -178.9 74.8 172 172 172
114.2 -168.3 70.3 168 168 168
106.4 -154.5 64.6 169 169 169
131.2 -173.4 72.5 169 169 169
121.3 -158.3 66.1 167 167 167
115.1 -148.4 62.0 162 165 164
65.1 -45.0 18.8 93 93 93
63.1 -43.3 18.1 93 93 93
62.6 -42.7 17.9 93 93 93
54.9 -34.5 14.4 218 218 218
55.0 -34.3 14.4 215 215 215
15.8 -80.9 34.1 165 165 165
16.6 -80.9 34.1 165 165 165
17.7 -82.5 34.8 165 165 165
18.2 -80.9 34.1 168 168 168
18.9 -80.9 34.1 169 171 170
19.7 -80.9 34.1 169 171 170
20.5 -80.9 34.1 169 171 170
21.3 -80.9 34.1 169 171 170
22.1 -80.9 34.1 169 171 170
23.0 -81.1 34.2 167 167 167
23.7 -80.9 34.1 167 167 167
24.5 -80.9 34.1 164 164 164
25.3 -81.1 34.2 167 167 167
26.1 -81.1 34.2 168 168 168
26.9 -80.9 34.1 168 168 168
27.7 -80.9 34.1 168 168 168
28.5 -80.9 34.1 165 165 165
29.3 -80.9 34.1 165 165 165
30.1 -81.1 34.2 168 168 168
30.9 -81.1 34.2 168 168 168
31.8 -81.2 34.3 168 168 168
32.5 -81.1 34.2 168 168 168
33.2 -80.9 34.1 168 168 168
34.0 -80.9 34.1 168 168 168
34.8 -80.8 34.1 170 172 172
35.7 -81.2 34.3 168 168 168
36.3 -80.8 34.1 168 168 168
37.1 -80.8 34.1 169 169 169
38.3 -81.5 34.4 171 173 173
38.7 -80.8 34.1 171 173 173
39.7 -81.2 34.3 171 173 173
40.7 -81.6 34.5 169 169 169
41.5 -81.5 34.4 171 173 173
42.3 -81.5 34.4 171 173 173
43.0 -81.3 34.3 171 173 173
44.2 -82.1 34.6 171 173 173
44.9 -81.9 34.6 171 173 173
44.6 -79.9 33.7 171 173 173
46.1 -81.2 34.3 171 173 173
47.4 -82.1 34.6 171 173 173
48.0 -81.8 34.5 172 174 174
48.8 -81.8 34.5 172 174 174
49.5 -81.5 34.4 175 177 177
50.2 -81.3 34.3 172 174 174
54.5 -84.4 35.6 172 174 174
55.0 -83.8 35.4 172 174 174
54.5 -81.8 34.5 173 175 175
54.4 -80.5 34.0 173 175 175
117.7 -171.7 72.5 173 175 175
109.0 -156.7 66.1 174 176 176
125.6 -162.4 68.5 173 173 173
92.9 -67.7 28.6 104 103 101
91.9 -66.5 28.1 99 101 101
61.4 -41.8 17.6 90 90 90
60.1 -40.6 17.1 96 96 96
54.0 -33.4 14.1 218 218 218
15.5 -78.8 33.6 168 168 168
16.2 -78.6 33.5 168 168 168
17.0 -78.6 33.5 170 172 172
17.8 -78.6 33.5 170 172 172
18.6 -78.6 33.5 169 171 170
19.4 -78.6 33.5 169 171 170
20.1 -78.6 33.5 169 171 170
20.9 -78.6 33.5 169 171 170
21.7 -78.6 33.5 169 171 170
22.5 -78.6 33.5 167 167 167
23.2 -78.6 33.5 167 167 167
24.0 -78.6 33.5 167 167 167
24.8 -78.7 33.5 169 171 170
25.6 -78.7 33.5 170 172 172
26.4 -78.6 33.5 170 172 172
27.2 -78.7 33.5 170 172 172
27.9 -78.6 33.5 170 172 172
28.7 -78.6 33.5 170 172 172
29.5 -78.6 33.5 170 172 172
30.3 -78.7 33.5 170 172 172
31.0 -78.6 33.5 170 172 172
31.8 -78.6 33.5 170 172 172
32.6 -78.6 33.5 170 172 172
33.4 -78.6 33.5 170 172 172
34.1 -78.6 33.5 173 175 175
34.9 -78.6 33.5 173 175 175
35.7 -78.6 33.5 173 175 175
36.3 -78.3 33.4 173 175 175
37.3 -78.7 33.5 178 178 178
38.0 -78.4 33.4 171 173 173
38.9 -78.7 33.5 178 178 178
39.7 -78.8 33.6 173 175 175
40.4 -78.6 33.5 174 176 176
41.2 -78.7 33.5 174 176 176
42.0 -78.7 33.5 174 176 176
42.9 -79.0 33.7 174 176 176
43.6 -78.8 33.6 181 181 181
43.8 -77.7 33.1 171 173 173
45.0 -78.6 33.5 171 173 173
46.1 -79.0 33.7 174 176 176
46.9 -79.1 33.7 182 182 182
47.5 -78.8 33.6 182 182 182
48.2 -78.7 33.5 180 180 180
49.0 -78.7 33.5 180 180 180
292.5 -462.3 197.0 175 177 177
313.4 -487.7 207.9 180 180 180
311.4 -477.2 203.4 175 177 177
53.1 -80.1 34.1 172 174 174
53.3 -79.3 33.8 183 183 183
53.7 -78.7 33.5 183 183 183
54.6 -78.8 33.6 173 175 175
28.6 -39.1 16.7 182 182 182
28.8 -38.8 16.5 178 181 180
29.0 -38.6 16.4 178 181 180
161.0 -211.4 90.1 176 179 178
149.5 -193.8 82.6 179 182 181
87.9 -63.4 27.0 105 105 105
86.1 -61.7 26.3 104 103 101
86.2 -61.3 26.1 104 103 101
85.2 -60.2 25.7 104 103 101
30.9 -73.7 31.7 170 172 172
31.8 -74.1 31.9 180 180 180
42.2 -74.2 32.0 200 200 200
45.3 -77.0 33.1 200 200 200
46.5 -77.6 33.4 197 197 197
46.1 -75.8 32.6 197 197 197
46.3 -74.9 32.2 200 200 200
46.8 -74.4 32.0 204 204 204
47.1 -73.7 31.7 200 200 200
297.1 -457.8 197.0 200 200 200
281.2 -426.6 183.7 200 200 200
264.9 -395.9 170.4 197 197 197
53.0 -78.1 33.6 196 196 196
53.1 -77.1 33.2 198 198 198
54.4 -77.8 33.5 198 198 198
27.9 -37.8 16.3 198 198 198
28.1 -37.5 16.1 200 200 200
28.2 -37.1 16.0 204 204 204
81.0 -57.1 24.6 104 103 101
77.1 -53.5 23.0 99 101 101
40.4 -24.9 10.7 180 183 182
40.6 -24.9 10.7 209 209 209
40.9 -25.0 10.7 218 218 218
41.1 -24.9 10.7 218 218 218
48.0 -79.4 34.5 200 200 200
45.6 -74.1 32.2 204 204 204
45.8 -73.2 31.8 204 204 204
45.8 -72.0 31.3 204 204 204
46.2 -71.6 31.1 204 204 204
211.5 -313.0 136.1 204 204 204
53.8 -78.4 34.1 205 205 205
53.7 -77.1 33.5 205 205 205
55.1 -78.0 33.9 205 205 205
27.9 -37.3 16.2 204 204 204
27.8 -36.7 16.0 204 204 204
28.0 -36.5 15.9 204 204 204
28.0 -36.1 15.7 205 205 205
74.1 -51.3 22.3 106 106 106
74.2 -51.0 22.2 104 103 101
39.6 -24.2 10.5 183 186 185
39.3 -23.9 10.4 177 177 177
39.5 -23.9 10.4 218 218 218
39.7 -23.9 10.4 218 218 218
46.1 -76.6 33.7 204 204 204
47.0 -76.9 33.8 204 204 204
45.5 -73.2 32.2 204 204 204
45.8 -72.5 31.8 204 204 204
46.2 -71.9 31.6 204 204 204
46.3 -71.1 31.2 207 207 207
53.2 -76.8 33.7 205 205 205
53.3 -75.8 33.3 205 205 205
54.9 -76.9 33.8 205 205 205
57.3 -79.2 34.8 205 205 205
28.1 -37.3 16.4 206 206 206
28.0 -36.7 16.1 207 207 207
27.9 -36.1 15.8 207 207 207
38.8 -23.1 10.1 219 219 219
27.4 -72.0 32.0 205 205 205
28.1 -72.0 32.0 205 205 205
29.6 -72.0 32.0 205 205 205
30.4 -72.0 32.0 205 205 205
31.0 -71.8 31.8 207 207 207
31.8 -71.9 31.9 207 207 207
32.5 -71.9 31.9 207 207 207
34.2 -72.2 32.1 207 207 207
40.0 -72.0 32.0 204 204 204
42.2 -73.2 32.5 204 204 204
42.4 -72.2 32.1 204 204 204
43.0 -72.0 32.0 204 204 204
44.7 -73.6 32.7 204 204 204
45.2 -73.1 32.4 204 204 204
45.1 -71.9 31.9 204 204 204
45.6 -71.4 31.7 204 204 204
46.2 -71.3 31.6 204 204 204
46.5 -70.6 31.3 204 204 204
46.5 -69.4 30.8 204 204 204
52.3 -74.6 33.1 205 205 205
52.0 -73.2 32.5 205 205 205
54.5 -75.6 33.5 208 208 208
57.2 -78.2 34.7 205 205 205
28.3 -37.1 16.5 206 206 206
28.4 -36.8 16.3 207 207 207
28.1 -35.8 15.9 207 207 207
15.8 -69.2 31.0 205 205 205
16.5 -69.2 31.0 205 205 205
17.9 -69.2 31.0 207 207 207
18.7 -69.3 31.1 207 207 207
19.4 -69.4 31.1 207 207 207
20.8 -69.0 31.0 207 207 207
21.5 -68.9 30.9 207 207 207
22.3 -69.2 31.0 207 207 207
23.0 -69.4 31.1 207 207 207
24.5 -69.4 31.1 207 207 207
25.1 -69.0 31.0 207 207 207
25.9 -69.2 31.0 207 207 207
26.6 -69.3 31.1 207 207 207
27.4 -69.4 31.1 207 207 207
28.0 -69.2 31.0 207 207 207
28.9 -69.5 31.2 210 210 210
29.7 -69.6 31.2 207 207 207
30.3 -69.4 31.1 204 204 204
31.0 -69.4 31.1 207 207 207
31.6 -69.2 31.0 207 207 207
32.3 -69.0 31.0 207 207 207
33.4 -69.8 31.3 207 207 207
33.6 -68.8 30.9 207 207 207
34.4 -68.9 30.9 207 207 207
39.1 -69.6 31.2 207 207 207
41.4 -71.0 31.8 207 207 207
42.0 -70.9 31.8 207 207 207
42.1 -69.8 31.3 207 207 207
42.8 -69.7 31.3 207 207 207
43.4 -69.6 31.2 207 207 207
44.3 -69.8 31.3 207 207 207
44.7 -69.4 31.1 207 207 207
45.3 -69.2 31.0 207 207 207
45.8 -68.8 30.9 207 207 207
46.0 -68.0 30.5 207 207 207
46.6 -67.9 30.5 207 207 207
50.6 -71.5 32.1 207 207 207
51.2 -71.3 32.0 204 204 204
28.5 -36.5 16.3 206 206 206
28.0 -35.4 15.9 207 207 207
17.9 -68.3 31.0 206 206 206
21.4 -68.0 30.8 206 206 206
42.6 -68.8 31.2 206 206 206
43.2 -68.4 31.0 206 206 206
44.0 -68.7 31.1 206 206 206
44.5 -68.3 31.0 206 206 206
45.0 -68.0 30.8 206 206 206
45.6 -67.8 30.7 206 206 206
45.9 -67.1 30.4 206 206 206
46.3 -66.8 30.3 206 206 206
50.8 -71.0 32.2 206 206 206
50.9 -70.2 31.8 207 207 207
28.1 -35.1 15.9 206 206 206
27.6 -34.1 15.5 206 206 206
42.4 -67.7 31.0 205 205 205
43.9 -67.8 31.1 208 208 208
44.1 -66.9 30.7 205 205 205
44.5 -66.5 30.5 202 202 202
45.2 -66.4 30.4 205 205 205
45.4 -65.8 30.1 205 205 205
45.3 -64.5 29.6 205 205 205
51.2 -69.8 32.0 206 206 206
59.0 -78.2 35.8 207 207 207
62.1 -81.2 37.2 207 207 207
28.5 -35.7 16.3 208 208 208
28.1 -34.8 15.9 205 205 205
27.5 -33.7 15.4 206 206 206
43.7 -65.6 30.4 208 208 208
44.3 -65.5 30.3 205 205 205
45.1 -65.6 30.4 205 205 205
45.3 -65.0 30.1 205 205 205
44.3 -62.5 28.9 205 205 205
44.5 -61.9 28.7 205 205 205
53.1 -72.7 33.7 205 205 205
52.8 -71.2 33.0 206 206 206
58.2 -76.4 35.4 206 206 206
62.0 -80.1 37.1 206 206 206
28.1 -34.5 15.9 207 207 207
27.9 -33.7 15.6 205 205 205
-30.2 -23.0 10.7 43 43 43
-30.3 -23.2 10.8 43 43 43
-30.0 -23.2 10.8 46 46 44
-29.5 -23.0 10.7 46 46 44
-29.5 -23.2 10.8 46 46 44
-29.2 -23.2 10.8 46 46 44
-29.0 -23.1 10.8 48 48 48
-28.7 -23.2 10.8 46 46 44
-28.5 -23.2 10.8 48 48 48
-28.2 -23.1 10.8 50 50 50
-28.0 -23.2 10.8 48 48 48
-27.5 -23.0 10.7 46 46 44
-27.5 -23.2 10.8 46 46 44
-27.2 -23.1 10.8 46 46 44
-27.0 -23.2 10.8 43 43 43
-26.7 -23.2 10.8 43 43 43
-26.5 -23.2 10.8 40 40 40
-26.2 -23.2 10.8 42 43 42
-26.0 -23.1 10.8 42 43 42
-25.7 -23.1 10.8 42 43 42
-25.4 -23.1 10.8 37 38 37
-25.2 -23.2 10.8 36 36 36
-25.0 -23.2 10.9 37 38 37
-24.7 -23.2 10.8 37 38 37
-22.7 -23.1 10.8 42 43 42
-22.4 -23.2 10.8 46 45 43
-22.2 -23.1 10.8 47 48 47
-21.7 -23.2 10.9 84 84 84
-21.3 -23.0 10.7 90 90 90
-21.0 -23.0 10.7 91 91 91
-19.9 -23.2 10.8 106 106 106
-19.7 -23.2 10.8 106 106 106
-19.3 -23.0 10.7 106 106 106
-19.0 -23.0 10.7 107 107 107
-18.7 -22.9 10.7 108 110 110
-15.0 -23.4 10.9 120 122 121
-9.6 -23.1 10.8 137 139 138
-9.4 -23.2 10.9 136 138 137
42.4 -66.2 31.0 207 207 207
43.8 -65.1 30.5 207 207 207
44.4 -65.0 30.4 207 207 207
45.4 -65.4 30.6 207 207 207
45.5 -64.5 30.2 204 204 204
44.4 -61.9 29.0 207 207 207
44.5 -61.3 28.7 207 207 207
52.4 -69.9 32.7 205 205 205
54.9 -72.2 33.8 205 205 205
57.2 -74.2 34.7 205 205 205
28.1 -34.1 15.9 207 207 207
27.6 -33.1 15.5 207 207 207
-31.1 -23.3 11.0 44 44 44
-30.9 -23.4 11.1 47 46 45
-30.6 -23.4 11.1 49 49 49
-30.4 -23.4 11.1 49 49 49
-30.1 -23.4 11.1 47 46 45
-29.9 -23.4 11.1 47 46 45
-29.6 -23.4 11.1 49 49 49
-29.4 -23.4 11.1 49 49 49
-29.1 -23.4 11.1 49 49 49
-28.8 -23.4 11.1 51 51 51
-28.6 -23.4 11.1 49 49 49
-28.3 -23.4 11.1 49 49 49
-28.1 -23.4 11.1 46 46 44
-27.8 -23.4 11.1 46 46 44
-27.6 -23.4 11.1 43 43 43
-27.3 -23.4 11.1 43 43 43
-27.0 -23.4 11.1 43 43 43
-26.8 -23.4 11.1 43 43 43
-26.5 -23.4 11.1 43 43 43
-26.3 -23.4 11.1 41 41 41
-26.0 -23.4 11.1 36 37 36
-25.8 -23.4 11.1 41 41 41
-25.5 -23.4 11.1 43 43 43
-25.2 -23.4 11.1 41 41 41
-25.0 -23.4 11.1 41 41 41
-24.7 -23.4 11.1 41 41 41
-24.5 -23.4 11.1 41 41 41
-24.3 -23.4 11.1 41 41 41
-24.0 -23.5 11.1 38 38 38
-23.8 -23.5 11.1 38 38 38
-23.5 -23.5 11.1 38 38 38
-23.2 -23.4 11.1 41 41 41
-22.9 -23.4 11.1 42 42 42
-22.7 -23.4 11.1 43 43 43
-22.4 -23.4 11.1 46 46 44
-22.2 -23.4 11.1 52 52 52
-21.9 -23.4 11.1 46 46 44
-21.6 -23.4 11.1 66 68 67
-21.4 -23.4 11.1 87 87 87
-21.1 -23.4 11.1 93 93 93
-20.9 -23.4 11.1 92 92 92
-20.6 -23.4 11.1 97 100 99
-20.4 -23.4 11.1 97 100 99
-20.1 -23.4 11.1 97 100 99
-19.8 -23.4 11.1 99 101 101
-19.6 -23.4 11.1 103 103 103
-19.3 -23.4 11.1 103 103 103
-19.1 -23.4 11.1 105 105 105
-18.9 -23.5 11.1 107 107 107
-15.5 -23.5 11.1 117 117 117
-15.2 -23.4 11.0 120 120 120
-10.3 -23.4 11.1 132 135 134
-10.1 -23.4 11.1 134 134 134
-9.8 -23.4 11.1 134 134 134
-9.5 -23.4 11.0 134 137 136
-9.3 -23.5 11.1 134 137 136
-9.0 -23.4 11.1 138 138 138
-8.8 -23.4 11.1 141 143 142
-8.5 -23.4 11.1 141 143 142
-7.8 -23.4 11.1 145 147 147
-7.5 -23.4 11.1 147 147 147
-7.3 -23.5 11.1 150 150 150
-7.0 -23.4 11.1 151 151 151
-6.7 -23.4 11.1 158 161 160
-6.5 -23.5 11.1 165 165 165
-6.2 -23.4 11.1 167 167 167
-6.0 -23.4 11.1 168 170 169
-5.7 -23.4 11.1 165 168 167
-5.4 -23.4 11.1 166 169 168
-5.2 -23.4 11.1 169 169 169
-4.9 -23.4 11.1 173 173 173
-4.7 -23.4 11.1 175 177 177
-3.1 -23.5 11.1 183 183 183
-2.9 -23.4 11.1 180 180 180
-2.6 -23.5 11.1 180 180 180
-2.4 -23.4 11.1 180 180 180
-2.1 -23.4 11.1 180 180 180
-1.8 -23.4 11.1 179 179 179
-1.6 -23.4 11.1 182 182 182
-1.3 -23.4 11.1 182 182 182
-1.1 -23.4 11.1 182 182 182
-0.8 -23.5 11.1 182 182 182
-0.5 -23.4 11.1 182 182 182
9.2 -23.4 11.1 207 207 207
9.5 -23.4 11.1 207 207 207
9.7 -23.4 11.1 207 207 207
10.0 -23.4 11.1 207 207 207
10.3 -23.4 11.1 207 207 207
10.5 -23.4 11.1 207 207 207
10.8 -23.4 11.1 207 207 207
11.0 -23.4 11.1 207 207 207
11.3 -23.4 11.1 207 207 207
11.6 -23.4 11.1 207 207 207
11.8 -23.4 11.1 207 207 207
12.1 -23.4 11.1 207 207 207
42.6 -65.8 31.1 207 207 207
43.2 -65.6 31.0 207 207 207
44.0 -65.8 31.1 207 207 207
44.2 -64.9 30.7 207 207 207
45.1 -65.2 30.9 207 207 207
46.0 -65.6 31.0 207 207 207
45.7 -64.1 30.3 207 207 207
45.1 -62.3 29.5 207 207 207
49.8 -66.8 31.6 207 207 207
50.6 -66.8 31.6 204 204 204
52.2 -66.1 31.3 205 205 205
52.4 -65.3 30.9 205 205 205
53.8 -66.2 31.3 205 205 205
54.3 -66.0 31.2 206 206 206
28.1 -33.7 15.9 206 206 206
27.7 -32.8 15.5 206 206 206
-15.7 -23.5 11.2 112 114 113
-9.8 -23.2 11.1 127 127 127
-9.5 -23.7 11.3 133 133 133
-9.3 -23.7 11.3 132 135 134
-9.0 -23.7 11.3 141 143 142
-7.4 -23.6 11.3 159 159 159
42.7 -65.3 31.2 206 206 206
43.4 -65.2 31.2 206 206 206
44.6 -65.9 31.5 206 206 206
44.0 -64.0 30.6 206 206 206
45.9 -65.7 31.4 206 206 206
46.5 -65.5 31.3 206 206 206
45.9 -63.7 30.5 206 206 206
42.9 -57.6 27.6 206 206 206
50.7 -67.1 32.1 206 206 206
51.3 -67.0 32.1 207 207 207
53.7 -69.1 33.1 204 204 204
53.0 -65.4 31.3 205 205 205
55.2 -67.3 32.2 205 205 205
56.7 -68.1 32.6 205 205 205
28.1 -33.3 15.9 205 205 205
26.7 -30.8 14.7 206 206 206
-11.9 -30.2 14.6 117 119 118
-9.0 -23.4 11.3 143 145 144
44.0 -64.3 31.1 206 206 206
43.6 -62.7 30.3 206 206 206
46.9 -64.3 31.1 206 206 206
44.6 -60.2 29.1 206 206 206
51.5 -67.4 32.6 206 206 206
52.1 -67.3 32.6 206 206 206
54.4 -69.2 33.5 206 206 206
56.9 -71.4 34.5 206 206 206
56.1 -67.5 32.7 207 207 207
57.3 -68.0 32.9 204 204 204
57.8 -67.8 32.8 207 207 207
27.0 -30.9 14.9 205 205 205
43.5 -62.9 30.8 205 205 205
43.6 -62.0 30.3 205 205 205
44.2 -61.8 30.2 205 205 205
45.9 -62.3 30.5 205 205 205
45.0 -60.1 29.4 205 205 205
51.2 -65.4 32.0 205 205 205
54.5 -68.6 33.5 206 206 206
56.6 -70.2 34.3 206 206 206
51.5 -62.2 30.4 206 206 206
56.3 -67.0 32.8 206 206 206
58.0 -68.1 33.3 206 206 206
27.8 -31.8 15.6 204 204 204
27.5 -31.1 15.2 204 204 204
-6.9 -22.1 10.9 215 215 215
-6.6 -22.1 10.9 214 214 214
7.7 -24.8 12.3 208 208 208
19.8 -33.2 16.4 205 205 205
20.9 -33.1 16.4 205 205 205
21.3 -33.2 16.4 208 208 208
43.9 -62.7 31.0 204 204 204
43.9 -61.7 30.5 204 204 204
46.9 -62.9 31.1 204 204 204
46.3 -61.1 30.2 204 204 204
49.0 -62.8 31.1 205 205 205
49.9 -63.0 31.2 205 205 205
54.9 -68.3 33.8 205 205 205
51.8 -61.8 30.6 206 206 206
59.3 -68.9 34.1 206 206 206
28.1 -31.8 15.7 206 206 206
26.1 -27.0 13.4 205 205 205
26.3 -27.0 13.3 205 205 205
3.4 -24.6 12.3 184 184 184
3.6 -24.3 12.2 181 181 181
7.4 -24.6 12.3 208 208 208
7.7 -24.5 12.3 208 208 208
11.0 -32.7 16.4 208 208 208
12.1 -32.7 16.4 208 208 208
12.5 -32.7 16.3 208 208 208
12.9 -32.7 16.4 208 208 208
10.2 -24.5 12.3 208 208 208
10.5 -24.5 12.3 207 207 207
11.6 -24.5 12.3 204 204 204
12.5 -24.5 12.3 207 207 207
17.4 -32.7 16.3 204 204 204
17.8 -32.7 16.3 200 200 200
18.6 -32.7 16.4 204 204 204
19.0 -32.8 16.4 204 204 204
19.4 -32.7 16.4 207 207 207
19.7 -32.7 16.4 204 204 204
20.1 -32.7 16.4 207 207 207
20.5 -32.7 16.3 207 207 207
20.9 -32.7 16.4 207 207 207
21.3 -32.7 16.4 207 207 207
21.6 -32.6 16.3 207 207 207
49.1 -62.2 31.1 204 204 204
49.8 -62.2 31.1 204 204 204
54.1 -66.5 33.3 204 204 204
26.3 -27.0 13.5 204 204 204
26.6 -26.9 13.5 205 205 205
268.0 -173.3 86.8 185 185 185
267.6 -171.8 86.0 186 186 186
287.9 -180.8 90.5 182 182 182
285.9 -178.2 89.2 178 181 180
-33.7 -23.6 12.0 59 61 59
-32.3 -23.7 12.0 54 54 54
-30.9 -23.6 12.0 58 58 58
-30.1 -23.6 12.0 58 58 58
-29.3 -23.6 12.0 53 53 53
-26.8 -23.7 12.0 48 48 48
-26.5 -23.7 12.0 48 48 48
-26.2 -23.6 12.0 49 49 49
-25.7 -23.7 12.0 47 47 47
-25.4 -23.7 12.0 47 47 47
-25.0 -23.6 12.0 47 47 47
-24.8 -23.6 11.9 47 47 47
-24.5 -23.7 12.0 47 48 47
-24.3 -23.7 12.0 47 48 47
-24.0 -23.6 12.0 45 45 45
-23.1 -23.6 12.0 43 43 43
-22.6 -23.6 12.0 42 42 42
-22.3 -23.6 12.0 42 42 42
-22.0 -23.6 12.0 41 40 38
-21.7 -23.6 12.0 41 40 38
-21.4 -23.6 12.0 41 41 39
-21.3 -23.8 12.0 38 38 38
-20.9 -23.6 12.0 41 41 39
-20.6 -23.6 12.0 41 41 39
-20.3 -23.6 12.0 43 43 43
-20.1 -23.6 12.0 40 40 40
-10.8 -23.4 11.9 29 31 29
-10.5 -24.0 12.2 32 32 32
-10.2 -23.9 12.1 35 35 35
-9.8 -23.7 12.0 38 38 36
-9.5 -23.6 11.9 150 150 150
-9.2 -23.6 11.9 183 183 183
-8.9 -23.6 12.0 186 188 187
-8.6 -23.6 11.9 187 189 189
-8.4 -23.6 11.9 224 224 224
-8.1 -23.6 12.0 226 226 226
-7.8 -23.6 11.9 226 226 226
3.6 -23.7 12.0 184 184 184
3.8 -23.5 11.9 184 184 184
7.4 -24.3 12.3 207 207 207
7.6 -24.0 12.2 207 207 207
7.8 -23.6 12.0 207 207 207
8.0 -23.6 12.0 207 207 207
8.3 -23.6 12.0 207 207 207
8.6 -23.6 12.0 207 207 207
8.9 -23.8 12.0 207 207 207
9.2 -23.8 12.1 207 207 207
9.8 -23.9 12.1 207 207 207
10.3 -23.6 12.0 207 207 207
10.9 -23.8 12.0 207 207 207
11.1 -23.6 12.0 207 207 207
11.4 -23.6 12.0 207 207 207
11.6 -23.6 12.0 207 207 207
11.9 -23.6 12.0 207 207 207
12.2 -23.6 12.0 207 207 207
12.5 -23.6 12.0 207 207 207
12.7 -23.6 12.0 207 207 207
13.0 -23.6 12.0 204 204 204
13.3 -23.6 12.0 207 207 207
14.4 -23.6 12.0 207 207 207
14.7 -23.6 12.0 207 207 207
15.0 -23.6 12.0 207 207 207
21.0 -32.4 16.4 206 206 206
21.3 -32.4 16.4 206 206 206
16.9 -23.9 12.1 206 206 206
44.2 -56.9 28.8 206 206 206
48.3 -60.4 30.6 204 204 204
49.2 -60.6 30.7 204 204 204
49.3 -59.9 30.4 207 207 207
26.4 -26.8 13.6 204 204 204
26.5 -26.5 13.4 204 204 204
265.6 -169.8 86.0 185 185 185
265.1 -168.2 85.2 183 183 183
285.2 -177.0 89.7 182 182 182
39.1 -20.5 10.4 119 119 119
39.4 -20.6 10.4 113 115 114
39.2 -20.3 10.3 110 112 111
-34.3 -23.8 12.2 58 58 58
-34.1 -23.9 12.2 58 58 58
-33.8 -23.8 12.2 58 58 58
-33.6 -23.8 12.2 58 58 58
-33.3 -23.8 12.2 58 58 58
-33.0 -23.8 12.2 58 58 58
-32.7 -23.8 12.2 58 58 58
-32.4 -23.9 12.2 58 58 58
-32.2 -23.9 12.3 55 55 55
-31.8 -23.8 12.2 58 58 58
-31.6 -23.9 12.3 58 58 58
-31.3 -23.9 12.2 60 62 60
-31.0 -23.8 12.2 63 63 63
-30.7 -23.9 12.2 63 63 63
-30.4 -23.9 12.2 56 56 56
-30.1 -23.8 12.2 56 56 56
-30.0 -23.9 12.3 52 52 50
-29.7 -23.9 12.3 52 52 50
-29.4 -24.0 12.3 49 49 49
-29.1 -24.0 12.3 52 52 50
-28.8 -23.9 12.3 49 49 49
-28.5 -23.9 12.2 49 49 49
-28.2 -23.8 12.2 49 49 49
-27.9 -23.9 12.2 49 49 49
-27.6 -23.9 12.2 49 49 49
-27.3 -23.8 12.2 49 49 49
-27.0 -23.8 12.2 50 50 50
-26.7 -23.8 12.2 50 50 50
-26.4 -23.8 12.2 50 50 50
-26.1 -23.8 12.2 50 50 50
-25.8 -23.8 12.2 47 48 47
-25.5 -23.8 12.2 47 48 47
-25.3 -23.8 12.2 46 46 46
-25.1 -23.9 12.3 48 48 48
-24.8 -23.9 12.2 48 48 48
-24.4 -23.8 12.2 46 46 46
-24.2 -23.9 12.2 46 46 46
-23.9 -23.8 12.2 47 47 47
-23.6 -23.9 12.2 45 45 45
-23.3 -23.9 12.2 45 45 45
-22.8 -23.9 12.2 42 43 42
-22.5 -23.8 12.2 41 41 39
-22.2 -23.8 12.2 41 41 39
-22.0 -23.9 12.3 42 42 40
-21.7 -23.9 12.3 42 42 40
-21.3 -23.8 12.2 40 40 40
-21.0 -23.8 12.2 40 40 40
-20.7 -23.8 12.2 40 40 40
-20.5 -23.8 12.2 43 42 41
-20.2 -23.8 12.2 41 41 41
-11.7 -24.0 12.3 30 31 30
-11.1 -23.3 11.9 30 31 30
-10.9 -23.3 11.9 29 31 29
-10.9 -24.0 12.3 32 31 30
-10.6 -23.9 12.2 32 32 32
-10.2 -23.8 12.2 35 37 36
-9.9 -23.7 12.1 38 38 36
-9.5 -24.0 12.3 187 189 189
-9.1 -23.8 12.2 188 190 190
-3.5 -24.0 12.3 209 209 209
-3.2 -23.9 12.2 206 206 206
-2.9 -23.9 12.3 206 206 206
-2.6 -23.9 12.3 205 205 205
-2.3 -23.9 12.2 205 205 205
-2.0 -23.9 12.2 205 205 205
-1.7 -23.9 12.3 202 202 202
-1.5 -23.9 12.3 202 202 202
-0.9 -24.0 12.3 199 199 199
-0.6 -24.0 12.3 199 199 199
-0.3 -23.9 12.2 199 199 199
-0.0 -23.9 12.3 199 199 199
0.2 -23.9 12.2 199 199 199
0.8 -23.9 12.2 197 197 197
1.1 -23.9 12.2 197 197 197
3.4 -24.0 12.3 189 189 189
3.6 -23.8 12.2 185 185 185
7.4 -24.0 12.3 207 207 207
7.6 -23.9 12.2 207 207 207
7.9 -23.9 12.2 207 207 207
8.2 -23.9 12.2 207 207 207
8.5 -23.9 12.3 207 207 207
8.8 -23.8 12.2 207 207 207
9.0 -23.8 12.2 207 207 207
9.3 -23.8 12.2 207 207 207
9.7 -24.0 12.3 207 207 207
9.9 -23.9 12.3 207 207 207
10.2 -23.9 12.2 206 206 206
10.5 -23.8 12.2 206 206 206
10.8 -23.9 12.2 206 206 206
11.0 -23.9 12.2 206 206 206
11.3 -23.9 12.2 206 206 206
11.6 -23.8 12.2 206 206 206
11.9 -23.8 12.2 206 206 206
12.2 -23.8 12.2 206 206 206
12.5 -23.8 12.2 206 206 206
12.7 -23.8 12.2 206 206 206
13.0 -23.8 12.2 206 206 206
13.3 -23.8 12.2 206 206 206
13.6 -23.9 12.2 206 206 206
13.9 -23.9 12.2 206 206 206
14.2 -23.9 12.2 206 206 206
14.4 -23.8 12.2 206 206 206
14.7 -23.8 12.2 206 206 206
15.0 -23.8 12.2 206 206 206
15.3 -23.9 12.2 206 206 206
15.6 -23.9 12.3 206 206 206
15.9 -23.9 12.3 206 206 206
16.2 -24.0 12.3 206 206 206
16.4 -23.8 12.2 206 206 206
16.8 -23.9 12.2 206 206 206
17.1 -23.9 12.3 206 206 206
17.4 -24.0 12.3 206 206 206
42.8 -54.5 27.9 206 206 206
42.7 -53.6 27.5 206 206 206
48.1 -57.8 29.6 206 206 206
45.9 -53.6 27.5 206 206 206
48.5 -55.8 28.6 207 207 207
47.1 -53.5 27.4 204 204 204
26.4 -26.7 13.7 203 203 203
26.3 -26.3 13.5 203 203 203
39.1 -20.3 10.4 119 119 119
39.3 -20.3 10.4 113 115 114
39.1 -20.0 10.3 113 115 114
38.7 -19.7 10.1 109 109 109
-34.5 -23.6 12.3 58 58 58
-34.3 -23.7 12.3 60 62 60
-33.9 -23.6 12.3 58 59 59
-33.7 -23.6 12.3 60 62 60
-33.4 -23.6 12.3 60 62 60
-33.1 -23.6 12.3 60 62 60
-32.8 -23.6 12.3 58 59 59
-32.5 -23.6 12.3 58 59 59
-32.2 -23.6 12.3 58 59 59
-32.0 -23.6 12.3 60 62 60
-31.7 -23.6 12.3 58 59 59
-31.4 -23.6 12.3 58 59 59
-31.1 -23.6 12.3 61 63 61
-30.8 -23.6 12.3 61 63 61
-30.5 -23.6 12.3 57 57 57
-30.2 -23.6 12.3 57 57 57
-30.0 -23.7 12.3 55 55 55
-29.7 -23.6 12.3 53 52 51
-29.4 -23.7 12.3 53 52 51
-29.2 -23.7 12.3 53 52 51
-28.9 -23.7 12.3 50 50 50
-28.5 -23.7 12.3 50 50 50
-28.2 -23.6 12.3 50 50 50
-28.0 -23.7 12.3 50 50 50
-27.4 -23.6 12.3 51 51 51
-27.0 -23.6 12.2 54 53 52
-26.7 -23.6 12.2 51 51 51
-25.9 -23.6 12.2 51 51 51
-25.6 -23.6 12.2 51 51 51
-25.4 -23.6 12.3 49 49 49
-25.2 -23.7 12.3 52 52 52
-24.8 -23.7 12.3 49 49 49
-22.3 -23.6 12.3 43 42 41
-21.7 -23.7 12.3 43 42 41
-21.4 -23.6 12.2 43 42 41
-21.0 -23.5 12.2 41 41 41
-11.7 -23.7 12.3 30 31 30
-10.9 -23.7 12.3 29 31 29
-10.6 -23.7 12.3 32 31 30
-10.2 -23.5 12.2 36 36 36
-9.9 -23.5 12.2 42 43 42
-9.9 -24.0 12.4 166 169 168
-9.5 -23.8 12.3 188 190 190
-9.1 -23.5 12.2 184 187 186
-8.8 -23.4 12.1 189 189 189
-3.2 -23.7 12.3 210 213 212
-2.9 -23.6 12.3 210 213 212
-2.6 -23.6 12.3 208 211 210
-2.3 -23.6 12.3 208 208 208
-1.7 -23.6 12.3 205 205 205
-1.5 -23.6 12.3 204 204 204
-1.2 -23.5 12.2 204 204 204
-0.9 -23.7 12.3 200 200 200
-0.6 -23.7 12.3 200 200 200
-0.3 -23.7 12.3 200 200 200
-0.0 -23.6 12.3 200 200 200
1.1 -23.6 12.2 196 196 196
1.4 -23.5 12.2 196 196 196
3.6 -23.5 12.2 188 188 188
7.4 -23.8 12.3 206 206 206
7.7 -23.7 12.3 206 206 206
7.9 -23.6 12.2 206 206 206
8.2 -23.6 12.2 206 206 206
8.5 -23.6 12.3 206 206 206
8.8 -23.5 12.2 206 206 206
9.1 -23.6 12.2 206 206 206
9.4 -23.7 12.3 206 206 206
9.8 -23.9 12.4 206 206 206
10.0 -23.7 12.3 206 206 206
10.2 -23.7 12.3 206 206 206
10.5 -23.6 12.3 206 206 206
10.8 -23.7 12.3 206 206 206
11.1 -23.7 12.3 206 206 206
11.4 -23.7 12.3 206 206 206
11.6 -23.6 12.2 206 206 206
11.9 -23.6 12.2 206 206 206
12.2 -23.6 12.2 206 206 206
12.5 -23.6 12.3 206 206 206
12.8 -23.6 12.2 206 206 206
13.0 -23.6 12.2 206 206 206
13.7 -23.7 12.3 206 206 206
13.9 -23.7 12.3 206 206 206
14.2 -23.7 12.3 206 206 206
14.5 -23.6 12.3 206 206 206
14.8 -23.6 12.2 205 205 205
15.0 -23.6 12.2 205 205 205
15.3 -23.6 12.2 205 205 205
15.7 -23.7 12.3 205 205 205
16.0 -23.7 12.3 205 205 205
16.3 -23.7 12.3 205 205 205
16.5 -23.6 12.2 205 205 205
16.9 -23.8 12.3 205 205 205
17.1 -23.7 12.3 205 205 205
17.4 -23.7 12.3 205 205 205
17.7 -23.7 12.3 205 205 205
43.0 -54.1 28.1 205 205 205
42.9 -53.2 27.6 205 205 205
47.6 -57.3 29.7 205 205 205
48.0 -57.0 29.6 206 206 206
47.0 -55.0 28.5 206 206 206
48.9 -56.5 29.3 206 206 206
48.5 -55.3 28.7 206 206 206
47.3 -53.2 27.6 206 206 206
47.9 -53.1 27.5 206 206 206
26.5 -26.5 13.7 205 205 205
-35.1 -23.7 12.5 61 63 61
-34.8 -23.8 12.5 61 63 61
-34.5 -23.8 12.5 64 64 64
-34.3 -23.8 12.5 61 63 61
-34.0 -23.8 12.5 61 63 61
-33.7 -23.8 12.5 61 63 61
-33.4 -23.8 12.5 61 63 61
-33.1 -23.8 12.5 61 63 61
-32.8 -23.8 12.5 61 63 61
-32.5 -23.8 12.5 61 63 61
-32.3 -23.8 12.5 59 59 59
-32.0 -23.8 12.5 59 59 59
-31.6 -23.8 12.5 59 59 59
-31.4 -23.8 12.5 59 59 59
-31.0 -23.7 12.5 57 57 57
-30.8 -23.8 12.5 56 56 56
-30.6 -23.9 12.5 56 56 56
-29.9 -23.8 12.5 56 56 56
-29.8 -23.9 12.5 54 53 52
-29.3 -23.8 12.5 54 53 52
-29.0 -23.7 12.5 54 53 52
-25.9 -23.8 12.5 53 52 52
-25.6 -23.8 12.5 50 50 50
-25.4 -23.9 12.5 50 50 50
-22.2 -23.9 12.5 44 43 42
-13.2 -19.6 10.3 25 28 25
-12.3 -23.9 12.5 28 28 28
-11.9 -23.7 12.5 33 33 31
-11.0 -23.7 12.4 27 27 27
-10.6 -23.5 12.3 29 31 29
-10.3 -23.4 12.3 36 37 36
-10.0 -23.9 12.6 170 171 170
-9.6 -23.8 12.5 184 187 186
17.3 -23.6 12.4 205 205 205
43.3 -53.9 28.3 204 204 204
43.6 -53.4 28.0 205 205 205
47.8 -57.7 30.3 205 205 205
48.0 -57.1 30.0 205 205 205
48.3 -56.7 29.7 205 205 205
48.2 -55.7 29.2 205 205 205
49.3 -56.2 29.5 205 205 205
48.8 -54.9 28.8 205 205 205
47.8 -53.1 27.9 206 206 206
48.8 -53.5 28.1 206 206 206
50.8 -54.8 28.8 206 206 206
51.5 -54.9 28.8 203 203 203
-35.4 -23.6 12.6 61 63 61
-35.1 -23.7 12.6 61 63 61
-34.8 -23.7 12.6 65 65 65
-34.6 -23.7 12.6 65 65 65
-34.3 -23.7 12.6 62 64 61
-34.0 -23.7 12.6 62 64 61
-33.7 -23.7 12.6 62 64 61
-33.4 -23.7 12.6 66 66 66
-33.1 -23.7 12.6 66 66 66
-32.8 -23.7 12.6 62 64 61
-32.5 -23.7 12.6 60 60 60
-32.2 -23.7 12.6 60 60 60
-31.9 -23.7 12.6 60 60 60
-31.6 -23.7 12.6 60 60 60
-31.3 -23.7 12.6 60 60 60
-31.1 -23.7 12.6 58 58 58
-30.8 -23.7 12.6 58 59 59
-30.5 -23.7 12.6 57 57 57
-30.2 -23.7 12.6 55 54 53
-29.9 -23.7 12.6 55 54 53
-29.6 -23.7 12.6 55 54 53
-29.3 -23.7 12.6 55 54 53
-29.0 -23.6 12.6 55 54 53
-28.7 -23.7 12.6 55 54 53
-28.4 -23.7 12.6 55 54 53
-28.1 -23.7 12.6 53 52 52
-27.8 -23.6 12.6 53 52 52
-26.4 -23.7 12.6 53 53 53
-26.1 -23.7 12.6 53 53 53
-25.8 -23.7 12.6 51 51 51
-25.5 -23.7 12.6 52 52 52
-23.4 -23.7 12.6 48 48 48
-23.1 -23.7 12.6 45 44 43
-22.9 -23.7 12.6 42 42 42
-22.6 -23.7 12.6 42 42 42
-22.3 -23.7 12.6 42 43 42
-22.0 -23.7 12.6 42 43 42
-13.2 -19.4 10.3 25 29 26
-12.4 -23.7 12.6 34 33 32
-12.0 -23.7 12.6 36 37 36
-11.1 -23.5 12.5 58 59 59
-10.7 -23.4 12.4 72 71 69
-10.5 -23.6 12.5 29 31 29
-10.3 -23.7 12.6 46 46 46
-10.0 -23.8 12.6 185 185 185
-9.7 -23.7 12.6 184 187 186
-9.4 -23.6 12.6 182 185 184
43.1 -53.0 28.1 204 204 204
43.3 -52.4 27.9 204 204 204
47.8 -57.0 30.3 204 204 204
48.8 -56.5 30.0 204 204 204
48.1 -54.9 29.2 205 205 205
48.5 -54.7 29.1 205 205 205
48.5 -53.8 28.6 205 205 205
47.6 -52.1 27.7 205 205 205
48.5 -52.4 27.9 205 205 205
49.7 -53.0 28.2 205 205 205
31.3 -28.5 15.2 169 169 169
-35.8 -23.6 12.7 62 64 61
-34.7 -23.7 12.8 62 64 61
-34.5 -23.7 12.8 66 66 66
-34.2 -23.7 12.8 66 66 66
-33.8 -23.7 12.8 67 67 67
-33.6 -23.7 12.8 63 64 62
-33.3 -23.7 12.8 63 64 62
-33.0 -23.7 12.8 63 64 62
-32.7 -23.7 12.8 61 61 61
-32.4 -23.8 12.8 61 61 61
-31.8 -23.8 12.8 61 61 61
-31.8 -23.9 12.9 64 65 63
-31.2 -23.7 12.8 59 59 59
-30.9 -23.7 12.8 58 58 58
-30.7 -23.8 12.8 56 55 54
-30.3 -23.7 12.8 56 55 54
-29.9 -23.7 12.7 56 55 54
-29.6 -23.7 12.7 56 55 54
-29.1 -23.7 12.8 56 55 54
-26.5 -23.8 12.8 54 54 54
-26.4 -24.0 12.9 52 52 52
-22.9 -23.7 12.8 42 43 42
-22.6 -23.7 12.8 42 44 43
-13.2 -19.1 10.3 30 29 29
-12.6 -23.9 12.9 90 90 90
-12.2 -23.7 12.7 57 58 56
-11.1 -23.4 12.6 30 29 29
-10.7 -23.6 12.7 21 21 21
-10.4 -23.7 12.7 44 44 44
-10.1 -23.7 12.7 184 184 184
-9.8 -23.7 12.7 183 183 183
42.8 -51.9 27.9 203 203 203
42.9 -51.2 27.6 203 203 203
47.9 -56.4 30.4 206 206 206
47.8 -55.5 29.9 206 206 206
48.3 -53.7 28.9 204 204 204
48.1 -52.8 28.4 204 204 204
47.2 -51.1 27.5 204 204 204
47.8 -51.1 27.5 205 205 205
49.1 -51.8 27.9 205 205 205
32.3 -29.4 15.8 200 200 200
31.4 -28.3 15.2 168 168 168
-36.6 -23.8 13.0 63 64 62
-36.4 -23.9 13.0 63 64 62
-36.2 -24.0 13.1 67 67 67
-35.9 -24.0 13.1 67 67 67
-35.5 -23.9 13.0 67 67 67
-35.2 -23.9 13.0 67 67 67
-34.9 -23.9 13.0 67 67 67
-34.6 -23.9 13.0 67 67 67
-34.3 -23.9 13.0 67 67 67
-34.0 -23.9 13.0 64 65 63
-33.7 -23.9 13.0 67 67 67
-33.4 -23.9 13.0 64 65 63
-33.1 -23.9 13.0 64 65 63
-32.8 -23.9 13.0 62 62 62
-32.6 -24.0 13.1 62 62 62
-32.2 -24.0 13.1 64 65 63
-31.9 -23.9 13.0 62 62 62
-31.5 -23.9 13.0 60 60 60
-31.3 -24.0 13.1 58 59 59
-30.9 -23.9 13.0 58 59 59
-30.5 -23.8 13.0 57 56 55
-30.4 -24.0 13.1 53 53 53
-29.8 -23.9 13.0 57 56 55
-29.5 -24.0 13.1 57 57 55
-27.1 -24.0 13.1 55 55 55
-26.7 -23.9 13.0 55 55 55
-23.5 -24.0 13.1 43 43 43
-23.2 -24.0 13.1 44 44 44
-12.7 -18.5 10.1 33 33 33
-12.4 -18.4 10.0 24 27 25
-12.8 -23.9 13.0 22 25 23
-10.6 -23.8 13.0 54 54 54
-10.3 -23.8 13.0 183 186 185
-10.1 -24.0 13.1 182 185 184
-9.8 -24.1 13.1 181 184 183
42.8 -51.3 28.0 208 208 208
42.7 -50.5 27.5 208 208 208
48.8 -56.7 30.9 205 205 205
49.5 -54.3 29.6 206 206 206
48.6 -52.7 28.7 204 204 204
47.1 -50.3 27.4 204 204 204
47.7 -50.3 27.4 204 204 204
48.8 -50.8 27.7 204 204 204
49.6 -50.9 27.7 204 204 204
32.6 -29.3 16.0 200 200 200
32.0 -28.4 15.5 167 167 167
-13.0 -24.0 13.2 31 31 31
-10.7 -23.8 13.1 52 52 52
-10.4 -23.9 13.2 183 186 185
-10.2 -24.0 13.3 181 184 183
42.9 -50.8 28.0 205 205 205
48.8 -56.1 31.0 205 205 205
48.5 -54.9 30.3 205 205 205
50.6 -54.9 30.3 205 205 205
48.8 -52.2 28.8 203 203 203
46.9 -49.5 27.3 203 203 203
47.6 -49.5 27.3 203 203 203
48.8 -50.1 27.7 203 203 203
49.1 -49.8 27.5 204 204 204
33.9 -30.4 16.8 202 202 202
32.9 -29.2 16.1 205 205 205
-10.5 -23.8 13.3 182 185 184
-10.3 -23.9 13.4 181 184 183
-10.1 -24.1 13.5 179 182 181
43.1 -50.3 28.1 204 204 204
48.8 -55.3 30.9 204 204 204
48.5 -54.1 30.3 205 205 205
49.6 -54.7 30.6 205 205 205
50.8 -54.4 30.4 205 205 205
49.4 -52.1 29.1 205 205 205
47.2 -49.2 27.5 203 203 203
48.1 -49.4 27.6 203 203 203
48.9 -49.6 27.7 203 203 203
48.8 -48.9 27.3 203 203 203
33.8 -29.9 16.7 204 204 204
33.2 -29.1 16.3 204 204 204
-10.6 -24.2 13.7 180 183 182
-10.3 -24.3 13.7 180 183 182
49.0 -54.8 31.1 204 204 204
48.6 -53.6 30.4 204 204 204
51.1 -53.9 30.6 205 205 205
49.5 -51.6 29.2 205 205 205
49.0 -49.7 28.1 205 205 205
49.3 -49.3 27.9 205 205 205
49.3 -48.7 27.6 205 205 205
33.8 -29.6 16.8 204 204 204
33.5 -28.9 16.4 200 200 200
-12.6 -17.4 10.0 110 110 110
-10.7 -24.3 14.0 179 182 181
-10.4 -24.4 14.0 180 183 182
-10.3 -24.9 14.3 181 181 181
49.3 -54.5 31.3 204 204 204
49.4 -53.8 30.9 204 204 204
54.7 -58.6 33.7 204 204 204
54.3 -57.4 33.0 204 204 204
52.0 -54.2 31.1 207 207 207
50.5 -52.0 29.8 204 204 204
34.1 -29.4 16.9 203 203 203
-10.9 -25.1 14.6 177 180 179
-10.5 -25.0 14.6 183 183 183
-10.4 -25.4 14.8 203 203 203
49.7 -53.4 31.1 206 206 206
54.9 -58.1 33.8 206 206 206
55.3 -57.6 33.5 207 207 207
58.8 -59.7 34.7 207 207 207
57.8 -57.9 33.7 207 207 207
64.9 -32.3 18.8 174 174 174
-22.6 -17.0 10.0 63 63 63
-22.4 -17.0 10.0 65 65 65
-21.0 -17.0 10.0 65 65 65
-20.8 -17.0 10.0 63 62 61
-20.6 -17.0 10.0 63 62 61
-20.3 -17.0 10.0 64 63 61
-20.1 -17.0 10.0 64 63 61
-19.3 -17.1 10.1 176 176 176
-18.9 -17.0 10.0 209 209 209
-17.7 -17.0 10.0 204 204 204
-14.4 -17.0 10.0 25 28 25
-12.9 -17.0 10.0 123 123 123
-12.6 -17.0 10.0 39 40 38
-11.1 -25.1 14.8 179 182 181
-10.5 -25.4 15.0 189 189 189
-10.1 -25.4 15.0 196 196 196
55.3 -57.7 34.0 206 206 206
55.6 -57.3 33.8 206 206 206
59.4 -59.5 35.1 207 207 207
59.3 -58.5 34.5 207 207 207
59.7 -58.2 34.3 207 207 207
65.6 -32.4 19.1 175 175 175
-21.2 -16.9 10.1 74 74 74
-20.9 -16.9 10.1 70 72 69
-20.7 -16.9 10.1 74 74 74
-19.0 -16.8 10.1 220 220 220
-12.6 -16.8 10.1 36 36 36
-12.4 -16.8 10.0 122 122 122
-11.1 -24.9 14.9 180 180 180
-10.5 -25.1 15.0 173 173 173
-10.1 -25.0 15.0 176 179 178
55.8 -56.7 33.9 206 206 206
61.1 -60.4 36.1 206 206 206
60.4 -58.8 35.2 204 204 204
61.8 -59.3 35.5 204 204 204
65.6 -31.9 19.1 176 176 176
66.8 -32.3 19.3 176 176 176
67.4 -32.3 19.3 176 176 176
-19.1 -16.7 10.1 220 220 220
-13.1 -16.9 10.3 103 103 103
-11.0 -25.1 15.2 178 178 178
-10.6 -24.9 15.1 157 160 159
-10.1 -24.7 15.0 162 162 162
64.2 -63.4 38.4 208 211 210
62.9 -61.3 37.2 208 211 210
65.5 -62.9 38.1 206 206 206
66.2 -62.8 38.1 206 206 206
67.0 -62.6 38.0 206 206 206
67.9 -32.1 19.5 177 177 177
68.8 -32.4 19.6 177 177 177
-13.1 -16.7 10.3 126 129 128
-11.1 -25.0 15.4 177 177 177
-10.6 -24.7 15.2 156 159 158
2.6 -16.5 10.1 200 200 200
13.8 -16.4 10.1 202 202 202
14.1 -16.5 10.1 205 205 205
14.3 -16.4 10.1 205 205 205
65.2 -63.4 39.0 207 210 209
63.3 -60.8 37.4 207 210 209
66.4 -62.9 38.7 208 211 210
67.3 -62.9 38.7 208 211 210
67.9 -62.6 38.5 208 211 210
68.1 -31.8 19.6 178 178 178
68.8 -31.9 19.6 178 178 178
58.0 -26.0 16.0 173 173 173
58.5 -26.1 16.0 165 168 167
-13.2 -16.5 10.3 105 105 103
-11.7 -25.2 15.7 184 187 186
-11.3 -25.1 15.6 179 179 179
-10.8 -24.7 15.4 158 161 160
-10.8 -25.7 16.0 156 159 158
-10.4 -25.5 15.9 153 153 153
2.5 -16.2 10.1 206 206 206
2.8 -16.1 10.0 196 196 196
7.9 -16.2 10.1 208 211 210
8.1 -16.1 10.0 207 207 207
8.3 -16.0 10.0 208 211 210
8.9 -16.2 10.1 208 211 210
9.4 -16.2 10.1 208 211 210
9.6 -16.1 10.1 208 211 210
9.8 -16.1 10.0 208 211 210
10.0 -16.1 10.0 208 211 210
10.3 -16.1 10.1 207 210 209
10.5 -16.2 10.1 206 206 206
10.7 -16.1 10.1 206 206 206
11.0 -16.1 10.1 206 206 206
11.2 -16.2 10.1 206 206 206
11.4 -16.1 10.1 205 205 205
11.6 -16.1 10.0 207 210 209
12.8 -16.1 10.0 205 205 205
13.3 -16.1 10.1 205 205 205
13.6 -16.2 10.1 206 209 208
13.8 -16.2 10.1 206 209 208
14.0 -16.2 10.1 206 209 208
14.3 -16.2 10.1 206 209 208
67.7 -63.2 39.4 207 210 209
68.6 -63.2 39.4 207 210 209
69.5 -63.2 39.4 208 211 210
67.5 -60.5 37.8 208 211 210
67.7 -31.1 19.4 179 179 179
68.7 -31.4 19.6 179 179 179
67.9 -30.8 19.2 179 179 179
58.5 -26.0 16.2 177 177 177
58.4 -25.8 16.1 174 174 174
58.5 -25.7 16.0 166 169 168
-13.2 -16.2 10.3 36 38 36
-12.6 -15.9 10.0 124 126 125
-12.4 -15.8 10.0 41 41 41
-11.5 -25.2 15.9 179 179 179
-11.4 -25.8 16.3 167 167 167
-11.0 -25.8 16.3 159 162 161
-10.6 -25.7 16.3 156 159 158
2.5 -15.9 10.0 204 204 204
11.1 -15.8 10.0 203 203 203
13.2 -15.8 10.0 205 205 205
13.7 -15.8 10.0 206 209 208
68.6 -62.2 39.4 207 210 209
69.5 -62.2 39.4 207 210 209
66.8 -59.0 37.4 207 210 209
67.6 -30.6 19.4 180 180 180
67.5 -30.2 19.1 183 183 183
58.5 -25.5 16.2 175 175 175
58.3 -25.2 16.0 168 170 169
-13.3 -16.2 10.4 41 41 41
-12.0 -25.9 16.6 176 179 178
-11.7 -25.9 16.7 169 169 169
-11.3 -25.9 16.6 167 167 167
9.6 -15.7 10.1 207 210 209
13.8 -15.7 10.1 204 204 204
61.3 -56.3 36.2 206 209 208
67.7 -60.6 38.9 207 210 209
68.5 -60.4 38.8 207 210 209
66.3 -57.7 37.1 207 210 209
64.2 -55.2 35.5 207 210 209
311.4 -251.6 161.7 208 211 210
281.5 -224.7 144.4 209 212 211
93.4 -42.8 27.5 184 184 184
67.0 -29.5 19.0 184 184 184
66.7 -29.2 18.8 181 181 181
58.6 -25.2 16.2 172 174 174
58.1 -24.8 15.9 169 171 170
58.3 -24.7 15.9 161 161 161
-25.5 -16.5 10.8 33 32 30
-15.1 -16.8 11.0 88 88 88
-13.7 -16.2 10.5 35 36 34
-13.4 -16.0 10.5 35 36 34
184.1 -166.6 108.7 206 209 208
67.6 -59.5 38.8 206 209 208
67.9 -59.1 38.5 207 210 209
66.5 -57.1 37.2 207 210 209
236.4 -185.9 121.3 208 211 210
217.0 -168.6 110.0 208 211 210
233.1 -179.0 116.8 209 212 211
93.9 -42.5 27.7 185 185 185
93.9 -42.1 27.5 185 185 185
67.0 -29.1 19.0 185 185 185
66.9 -28.9 18.8 182 182 182
59.3 -25.1 16.4 173 175 175
58.3 -24.5 16.0 169 169 169
58.0 -24.2 15.8 158 161 160
-15.1 -16.6 11.0 28 28 28
-13.9 -30.0 19.9 175 175 175
-13.4 -29.9 19.8 172 172 172
181.0 -161.3 106.9 208 211 210
183.5 -161.3 106.9 208 211 210
67.7 -57.9 38.4 206 209 208
67.5 -57.0 37.8 207 210 209
67.5 -56.3 37.3 207 210 209
252.6 -195.6 129.6 208 211 210
213.2 -163.2 108.1 208 211 210
228.8 -173.1 114.6 208 211 210
222.1 -166.0 110.0 209 212 211
93.2 -41.2 27.3 186 186 186
67.6 -28.7 19.0 183 183 183
68.3 -28.8 19.1 186 186 186
60.2 -25.1 16.6 174 176 176
58.7 -24.3 16.1 170 171 170
58.7 -24.2 16.0 160 160 160
61.2 -25.0 16.6 154 154 154
-13.9 -29.6 19.9 177 180 179
-13.6 -29.8 20.0 173 173 173
-13.1 -29.8 20.0 172 172 172
151.3 -136.5 91.8 207 210 209
173.7 -150.4 101.2 208 211 210
188.1 -160.7 108.1 208 211 210
68.2 -57.5 38.7 208 211 210
68.3 -56.8 38.2 206 209 208
69.0 -56.7 38.1 206 209 208
206.2 -155.3 104.5 208 211 210
224.7 -167.4 112.6 208 211 210
204.3 -150.4 101.2 208 211 210
91.5 -40.1 27.0 189 191 191
92.1 -40.1 27.0 188 188 188
92.4 -39.9 26.9 188 188 188
93.1 -40.0 26.9 184 184 184
67.9 -28.4 19.1 184 184 184
68.3 -28.4 19.1 182 182 182
58.7 -23.8 16.0 161 161 161
60.5 -24.4 16.4 155 155 155
61.0 -24.4 16.4 147 149 149
-14.2 -28.7 19.6 179 182 181
-13.8 -28.8 19.7 178 178 178
-13.4 -28.9 19.7 175 175 175
-12.9 -28.9 19.8 169 169 169
164.6 -144.1 98.5 207 210 209
168.6 -145.7 99.6 207 210 209
193.6 -162.8 111.3 208 211 210
76.8 -62.9 43.0 208 211 210
78.9 -63.8 43.6 209 212 211
224.8 -166.7 114.0 210 213 212
226.1 -165.7 113.3 208 211 210
224.7 -162.8 111.3 208 211 210
91.6 -39.3 26.8 189 189 189
92.4 -39.3 26.9 189 189 189
92.8 -39.3 26.8 189 189 189
68.3 -28.0 19.1 183 183 183
67.4 -27.4 18.7 181 181 181
59.0 -23.5 16.1 160 160 160
59.8 -23.7 16.2 155 155 155
60.1 -23.7 16.2 149 151 151
-14.1 -28.1 19.5 167 167 167
-13.7 -28.1 19.5 177 177 177
-13.3 -28.3 19.6 176 176 176
-12.8 -28.3 19.6 143 143 142
-12.2 -27.9 19.4 29 29 29
166.3 -143.3 99.6 207 210 209
192.2 -161.2 111.9 207 210 209
200.7 -166.1 115.3 208 211 210
228.5 -186.5 129.6 208 211 210
75.8 -61.1 42.4 208 211 210
78.0 -62.0 43.1 208 211 210
332.2 -245.4 170.4 210 213 212
227.5 -166.1 115.3 210 213 212
228.8 -165.1 114.6 210 213 212
238.7 -170.2 118.2 210 213 212
272.1 -191.8 133.2 212 214 214
90.1 -38.0 26.4 190 190 190
92.1 -38.6 26.8 192 195 194
92.6 -38.5 26.8 190 190 190
92.8 -38.4 26.6 184 184 184
66.8 -26.7 18.6 177 180 179
59.2 -23.2 16.1 160 160 160
59.6 -23.2 16.1 155 155 155
59.7 -23.1 16.1 150 150 150
59.5 -22.9 15.9 145 145 144
-14.2 -27.7 19.6 165 165 165
-13.7 -27.7 19.6 167 167 167
-13.3 -27.9 19.7 158 158 158
-12.9 -27.9 19.7 144 144 144
-12.2 -27.4 19.4 36 37 36
163.7 -138.8 98.0 207 210 209
167.8 -140.3 99.0 207 210 209
199.3 -164.4 116.1 207 210 209
205.8 -167.5 118.2 207 210 209
218.0 -175.1 123.6 208 211 210
290.4 -211.0 148.9 209 212 211
228.9 -164.4 116.1 210 213 212
220.8 -156.7 110.6 210 213 212
243.3 -170.7 120.5 210 213 212
270.2 -187.4 132.3 210 213 212
89.8 -37.3 26.3 191 191 191
92.5 -38.1 26.9 191 191 191
93.4 -38.2 27.0 191 191 191
93.3 -38.0 26.8 189 189 189
67.6 -26.6 18.8 178 181 180
59.9 -23.1 16.3 160 160 160
60.2 -23.1 16.3 153 155 155
60.0 -22.9 16.2 148 148 148
59.7 -22.6 16.0 141 143 142
-14.3 -28.4 20.4 180 180 180
-14.1 -29.0 20.8 181 181 181
-13.1 -28.0 20.1 171 173 173
-12.4 -27.5 19.7 116 116 116
154.0 -126.7 90.9 207 210 209
189.9 -154.1 110.6 207 210 209
204.5 -163.7 117.5 207 210 209
211.1 -166.8 119.7 207 210 209
269.2 -192.4 138.1 209 212 211
218.2 -154.1 110.6 210 213 212
212.1 -148.1 106.3 210 213 212
61.2 -23.2 16.7 154 156 156
60.6 -22.9 16.4 150 150 150
60.3 -22.6 16.2 149 149 149
60.4 -22.5 16.2 141 141 141
-24.6 -13.9 10.2 169 171 170
-24.3 -13.9 10.2 202 204 204
-24.1 -13.9 10.1 120 120 120
-23.7 -14.0 10.2 57 56 55
-23.5 -14.0 10.2 53 52 52
-16.8 -13.9 10.2 226 226 226
-14.5 -13.9 10.2 34 33 32
-14.2 -13.9 10.2 93 93 93
-14.0 -13.9 10.2 27 27 27
-13.7 -13.9 10.2 36 36 36
-13.5 -14.0 10.2 128 130 129
-13.3 -14.0 10.2 41 41 41
-13.0 -13.9 10.2 32 33 31
-12.8 -13.9 10.2 32 33 31
-12.6 -13.9 10.2 43 45 45
-12.3 -13.9 10.2 81 81 81
-12.1 -13.9 10.2 42 42 42
-14.3 -29.0 21.1 180 180 180
-13.8 -29.0 21.1 182 182 182
200.5 -160.0 116.8 207 210 209
211.0 -166.1 121.3 207 210 209
231.7 -180.0 131.4 207 210 209
313.0 -240.0 175.2 207 210 209
220.8 -159.0 116.1 209 212 211
234.7 -163.0 119.0 209 212 211
220.8 -151.6 110.6 210 213 212
78.9 -51.7 37.8 177 177 177
92.3 -59.9 43.7 189 189 189
90.2 -57.9 42.2 195 195 195
62.0 -23.0 16.8 148 150 150
61.9 -22.8 16.7 137 139 138
64.1 -23.3 17.0 131 134 133
-14.5 -28.9 21.4 178 178 178
-14.0 -28.8 21.4 171 173 173
-14.1 -30.0 22.3 170 171 170
208.2 -163.3 121.3 211 211 211
218.0 -168.7 125.3 207 210 209
337.0 -257.3 191.1 207 210 209
338.0 -254.8 189.2 207 210 209
342.4 -254.8 189.2 207 210 209
227.8 -161.2 119.7 208 211 210
396.5 -274.0 203.4 209 212 211
234.7 -160.2 119.0 209 212 211
230.2 -155.4 115.3 209 212 211
94.0 -59.9 44.5 193 193 193
93.3 -58.8 43.7 195 195 195
64.8 -23.2 17.2 134 136 135
-23.9 -13.6 10.3 26 26 26
-35.6 -21.5 16.3 74 74 74
-35.0 -21.4 16.2 23 23 23
-14.1 -29.5 22.3 154 154 154
215.1 -165.8 125.3 210 210 210
222.4 -169.2 127.8 211 211 211
347.5 -260.8 197.0 207 210 209
359.6 -266.4 201.2 207 210 209
356.7 -260.8 197.0 207 210 209
372.9 -269.2 203.4 207 210 209
358.4 -255.5 193.0 212 213 212
317.5 -223.6 168.9 208 211 210
230.8 -160.5 121.3 208 211 210
743.6 -511.0 386.0 208 211 210
419.1 -284.5 215.0 209 212 211
245.5 -164.7 124.4 209 212 211
236.0 -156.5 118.2 209 212 211
97.5 -61.1 46.1 193 193 193
90.6 -56.1 42.4 196 196 196
68.0 -24.4 18.4 136 138 137
66.9 -23.8 18.0 136 136 136
67.0 -23.7 17.9 136 136 136
66.6 -23.4 17.7 134 134 134
-25.0 -13.6 10.4 103 102 100
-24.8 -13.6 10.5 45 45 45
-24.6 -13.6 10.5 33 32 30
-24.2 -13.5 10.4 24 24 24
-24.1 -13.6 10.5 18 22 19
-36.9 -21.3 16.4 33 32 30
-36.5 -21.2 16.3 25 25 25
-36.2 -21.3 16.4 36 37 36
-35.9 -21.3 16.4 93 92 91
-35.4 -21.3 16.3 124 126 125
-14.4 -13.6 10.5 28 28 28
-16.9 -34.8 26.8 87 87 87
-16.2 -34.7 26.7 55 55 55
14.1 -13.6 10.5 205 208 207
14.9 -13.7 10.6 204 207 206
15.1 -13.6 10.5 209 209 209
230.2 -172.0 132.3 210 210 210
422.5 -307.5 236.5 211 211 211
376.3 -270.3 207.9 211 211 211
433.5 -307.5 236.5 212 213 212
331.3 -232.1 178.5 212 213 212
289.1 -200.0 153.8 212 213 212
225.0 -153.7 118.2 212 213 212
714.5 -482.3 370.9 208 211 210
368.8 -246.0 189.2 214 214 214
242.3 -159.7 122.8 214 214 214
236.0 -153.7 118.2 214 214 214
398.3 -253.6 195.0 210 213 212
103.5 -63.7 49.0 193 193 193
93.7 -57.1 43.9 196 196 196
117.4 -51.4 39.5 189 189 189
68.2 -23.9 18.3 133 133 133
68.0 -23.7 18.2 133 133 133
67.8 -23.4 18.0 133 133 133
68.7 -23.6 18.2 133 133 133
-25.0 -13.6 10.6 29 31 29
-24.9 -13.8 10.8 24 24 24
-24.6 -13.8 10.8 18 22 19
-17.8 -34.9 27.3 90 90 90
-17.2 -34.9 27.3 87 87 87
-16.6 -35.0 27.4 60 60 60
-16.0 -35.0 27.4 111 111 111
13.9 -13.2 10.3 212 213 212
222.5 -165.5 129.6 210 210 210
225.5 -165.5 129.6 210 210 210
347.5 -251.7 197.0 211 211 211
334.5 -230.1 180.2 212 213 212
251.7 -168.9 132.3 212 213 212
361.5 -236.8 185.5 214 214 214
253.9 -164.3 128.7 214 214 214
265.9 -170.1 133.2 214 214 214
397.9 -251.7 197.0 215 215 215
357.7 -223.7 175.2 210 213 212
289.4 -179.0 140.1 210 213 212
104.3 -63.1 49.4 192 192 192
129.7 -56.2 44.0 42 43 42
120.1 -51.6 40.4 89 89 89
68.8 -23.5 18.4 129 129 129
68.7 -23.3 18.3 127 127 127
69.3 -23.4 18.3 129 129 129
69.7 -23.4 18.3 128 131 130
-25.7 -13.6 10.8 36 37 36
-25.0 -13.6 10.9 19 23 20
-19.1 -35.5 28.3 133 133 133
-18.2 -35.0 27.9 91 93 92
-17.5 -34.8 27.7 90 92 91
-17.1 -35.3 28.1 73 75 75
-16.4 -35.2 28.1 113 112 111
365.8 -247.1 197.0 212 213 212
320.3 -213.7 170.4 212 213 212
743.6 -484.1 386.0 212 213 212
384.1 -247.1 197.0 214 214 214
264.7 -168.2 134.2 214 214 214
553.6 -343.7 274.1 214 214 214
386.4 -237.2 189.2 215 215 215
117.1 -49.4 39.4 136 136 136
70.1 -23.2 18.5 126 126 126
-19.5 -35.4 28.7 128 130 129
-18.4 -34.7 28.2 91 94 93
-17.7 -34.6 28.1 90 92 91
-17.3 -35.1 28.5 87 87 87
-16.6 -34.9 28.4 78 78 78
15.7 -12.5 10.1 214 214 214
-20.0 -35.7 29.6 128 130 129
-18.7 -34.6 28.6 91 94 93
-17.9 -34.2 28.3 91 93 92
-17.5 -34.8 28.8 70 69 68
14.0 -12.6 10.4 204 207 206
70.3 -22.4 18.6 91 93 92
70.1 -22.2 18.4 148 150 150
-18.2 -34.1 28.8 94 94 94
-17.6 -34.4 29.0 79 82 81
14.1 -12.4 10.5 209 209 209
15.1 -12.4 10.5 211 211 211
52.1 -16.8 14.2 102 104 104
70.6 -22.1 18.7 61 61 61
69.7 -21.7 18.3 152 154 154
-11.8 -12.8 11.0 27 28 26
-17.9 -34.3 29.5 104 104 104
52.2 -16.5 14.2 96 96 96
52.8 -16.6 14.3 89 89 89
47.2 -14.5 12.5 79 82 81
-24.1 -11.8 10.3 138 140 139
-27.2 -13.4 11.8 148 150 150
-12.0 -12.7 11.1 32 32 32
-11.3 -12.2 10.7 27 28 26
15.8 -11.4 10.0 215 215 215
346.3 -113.9 100.1 42 44 43
52.3 -16.2 14.2 81 84 83
53.1 -16.4 14.4 74 74 74
47.5 -14.2 12.5 149 149 149
47.7 -14.2 12.4 121 123 122
-33.1 -13.1 11.7 87 87 87
-32.9 -13.1 11.8 148 148 148
-32.6 -13.1 11.8 155 155 155
-32.3 -13.1 11.8 87 87 87
-32.1 -13.1 11.8 129 129 129
-31.8 -13.1 11.8 102 102 102
-31.5 -13.1 11.8 20 23 21
-31.0 -13.1 11.8 118 120 119
-30.7 -13.1 11.8 129 129 129
-30.4 -13.1 11.8 105 105 103
-30.1 -13.1 11.8 77 78 76
-29.9 -13.1 11.8 75 75 75
-29.6 -13.1 11.8 73 73 73
-29.3 -13.1 11.8 78 80 78
-29.1 -13.1 11.8 81 83 80
-28.0 -13.1 11.8 147 149 149
-27.7 -13.1 11.8 160 160 160
-27.4 -13.1 11.8 180 180 180
-27.1 -13.1 11.8 190 190 190
-26.8 -13.1 11.8 144 144 144
-26.6 -13.1 11.8 6 7 7
-26.3 -13.1 11.8 3 3 3
-26.0 -13.1 11.8 15 15 15
-25.8 -13.1 11.8 28 28 28
-25.5 -13.1 11.8 90 90 90
-25.2 -13.1 11.8 139 141 140
-25.0 -13.2 11.8 149 151 151
-24.7 -13.1 11.8 15 15 15
-24.4 -13.1 11.8 19 23 20
-21.4 -13.1 11.8 147 147 147
-21.1 -13.1 11.8 169 169 169
-20.8 -13.1 11.8 94 93 92
-20.6 -13.1 11.8 57 57 55
-10.6 -11.5 10.3 27 28 26
337.4 -108.7 97.5 43 45 45
52.2 -15.9 14.2 79 82 81
52.9 -16.0 14.3 72 72 72
47.9 -14.0 12.6 159 159 159
47.7 -13.9 12.5 128 128 128
-24.1 -11.3 10.3 88 90 89
-23.8 -11.3 10.3 146 146 146
-26.6 -12.7 11.7 144 144 144
-18.8 -11.3 10.4 78 80 78
-18.5 -11.3 10.3 75 77 75
-18.0 -11.2 10.3 87 89 88
-17.8 -11.2 10.3 196 196 196
-17.6 -11.3 10.3 207 207 207
-17.3 -11.3 10.3 207 207 207
-17.1 -11.3 10.3 225 225 225
-16.9 -11.3 10.3 232 232 232
-16.6 -11.3 10.3 235 235 235
-10.6 -11.3 10.3 27 28 26
-10.2 -11.1 10.2 27 28 26
-25.3 -43.8 40.2 100 100 100
323.3 -187.6 172.0 218 218 218
357.7 -112.8 103.4 47 48 47
48.5 -13.9 12.7 156 159 158
48.0 -13.7 12.5 126 128 127
-24.0 -11.0 10.3 149 151 151
-23.7 -11.0 10.3 134 134 134
-23.5 -11.0 10.3 134 134 134
-23.3 -11.0 10.3 6 11 7
-18.8 -11.0 10.3 204 207 206
-18.5 -11.0 10.3 197 197 197
-18.2 -11.0 10.3 122 124 123
-18.0 -11.0 10.3 58 58 56
-17.7 -11.0 10.3 82 82 82
-17.5 -11.0 10.3 94 93 92
-17.3 -11.0 10.3 101 101 101
-17.0 -11.0 10.3 205 205 205
-16.8 -11.0 10.3 231 231 231
-10.6 -11.0 10.3 27 28 26
-10.1 -10.7 10.0 30 29 28
-26.2 -46.1 43.2 110 110 110
-26.8 -49.0 45.9 27 27 27
306.5 -174.1 163.1 218 218 218
266.6 -144.3 135.1 219 219 219
411.0 -214.9 201.2 220 220 220
399.1 -204.1 191.1 179 179 179
-10.6 -10.8 10.3 27 28 26
-28.6 -49.3 47.2 112 111 110
-31.4 -56.1 53.7 21 21 21
-29.6 -55.2 52.8 20 20 20
347.7 -195.7 187.3 220 220 220
245.2 -136.3 130.5 218 218 218
236.2 -125.1 119.7 219 219 219
214.5 -112.3 107.5 219 219 219
406.7 -208.0 199.1 217 217 217
429.5 -214.8 205.6 175 177 177
264.6 -130.9 125.3 196 196 196
-10.1 -10.3 10.0 30 29 28
-34.1 -57.3 56.1 112 111 110
-33.5 -58.6 57.3 32 34 33
-32.1 -58.6 57.3 23 24 23
248.7 -135.1 132.3 220 220 220
239.2 -123.9 121.3 221 221 221
214.5 -109.8 107.5 219 219 219
361.1 -180.6 176.8 219 219 219
352.8 -172.5 168.9 184 184 184
277.5 -134.2 131.4 196 196 196
40.0 -17.1 16.7 204 204 204
-34.4 -58.8 58.9 42 43 42
-33.2 -59.0 59.1 20 20 20
-32.3 -59.9 60.1 151 151 151
250.4 -126.7 127.0 221 221 221
460.0 -224.8 225.2 219 219 219
372.8 -178.1 178.5 183 183 183
289.5 -136.8 137.1 196 196 196
39.7 -16.6 16.6 204 204 204
39.0 -16.1 16.2 202 202 202
-34.0 -56.7 58.2 43 44 43
-32.0 -55.5 57.0 22 22 22
-27.7 -50.3 51.5 165 165 165
266.4 -123.0 126.1 195 195 195
169.7 -77.5 79.5 198 198 198
41.2 -17.0 17.4 204 204 204
40.0 -16.3 16.7 204 204 204
38.9 -15.7 16.1 202 202 202
-31.7 -14.2 15.0 144 144 144
-16.5 -14.3 15.1 32 31 30
-15.8 -14.0 14.7 32 31 30
-36.2 -59.0 62.0 23 24 23
-32.5 -55.2 58.0 20 20 20
-27.9 -49.3 51.8 171 173 173
424.6 -197.8 207.9 221 221 221
171.9 -76.6 80.5 198 198 198
41.2 -16.6 17.4 203 203 203
-42.1 -13.9 15.0 139 139 139
-41.8 -13.9 15.0 172 174 174
-41.4 -13.9 15.0 186 186 186
-41.1 -13.9 15.0 156 156 156
-40.7 -13.9 15.0 51 51 51
-40.4 -13.9 15.0 78 80 78
-40.0 -13.9 15.0 78 80 78
-39.8 -13.9 15.0 106 106 106
-39.5 -13.9 15.0 199 199 199
-39.0 -13.9 15.0 195 195 195
-32.5 -14.0 15.0 101 101 101
-32.1 -13.9 15.0 148 150 150
-31.7 -13.9 15.0 128 130 129
-31.3 -13.9 14.9 128 130 129
-31.3 -14.0 15.1 145 145 144
-16.4 -13.9 15.0 34 34 34
-15.8 -13.7 14.7 35 35 35
-46.9 -71.7 77.2 107 107 107
-40.8 -64.8 69.8 23 24 23
-46.2 -79.8 86.0 173 175 175
16.9 -11.1 11.9 218 218 218
17.2 -11.1 12.0 215 215 215
18.5 -11.0 11.9 217 220 219
19.3 -11.3 12.2 217 220 219
20.5 -11.1 11.9 218 218 218
351.2 -159.7 172.0 221 221 221
171.2 -74.4 80.2 198 198 198
148.0 -63.6 68.5 200 200 200
-42.0 -13.5 14.9 116 118 117
-41.6 -13.5 14.9 180 180 180
-38.8 -13.5 14.9 184 187 186
-32.0 -13.5 14.9 128 130 129
-31.5 -13.5 14.9 127 127 127
-31.0 -13.4 14.8 121 123 122
-16.4 -13.5 14.9 33 32 30
-48.7 -72.6 80.2 106 106 106
-46.4 -78.2 86.4 162 162 162
-43.2 -76.1 84.1 181 181 181
-41.7 -76.8 84.8 182 185 184
17.0 -10.7 11.8 218 218 218
14.7 -9.1 10.1 217 217 217
19.1 -10.8 11.9 218 221 220
348.1 -154.3 170.4 221 221 221
171.9 -72.9 80.5 195 195 195
146.9 -61.6 68.0 200 200 200
40.1 -15.2 16.8 203 203 203
-54.7 -79.4 90.1 103 103 103
-49.1 -80.6 91.4 181 181 181
-46.3 -79.4 90.1 179 179 179
-47.4 -85.1 96.5 181 184 183
15.0 -9.2 10.5 218 221 220
361.1 -155.9 176.8 221 221 221
171.9 -71.0 80.5 199 199 199
148.0 -60.4 68.5 199 199 199
39.7 -14.7 16.6 203 203 203
314.7 -80.2 90.9 57 57 55
-75.0 -102.2 119.0 94 94 94
-62.0 -95.0 110.6 22 22 22
-50.8 -81.2 94.6 167 167 167
-48.9 -81.6 95.1 180 183 182
15.0 -9.1 10.6 218 218 218
15.0 -9.0 10.5 218 221 220
15.9 -8.8 10.2 217 220 219
16.2 -8.8 10.3 218 221 220
361.1 -151.8 176.8 221 221 221
179.5 -72.2 84.1 197 197 197
143.3 -57.0 66.4 197 197 197
-72.2 -107.5 128.7 22 22 22
22.5 -81.9 98.0 154 154 154
15.8 -8.5 10.2 218 221 220
276.4 -117.1 140.1 220 223 222
402.5 -164.6 197.0 220 220 220
216.1 -81.9 98.0 200 200 200
221.9 -83.2 99.6 200 200 200
221.8 -82.3 98.5 200 200 200
223.0 -81.9 98.0 200 200 200
221.8 -80.6 96.5 202 202 202
229.9 -82.7 99.0 202 202 202
-110.5 -160.1 197.0 31 31 31
455.3 -189.7 233.5 220 223 222
237.7 -97.9 120.5 220 223 222
215.8 -87.8 108.1 220 223 222
402.5 -160.1 197.0 220 220 220
241.1 -88.8 109.3 199 199 199
239.5 -87.3 107.5 198 198 198
238.0 -85.8 105.7 198 198 198
236.4 -84.4 103.9 198 198 198
235.0 -83.1 102.3 200 200 200
247.1 -98.8 125.3 220 223 222
406.7 -157.1 199.1 222 224 224
231.5 -81.1 102.8 198 198 198
225.3 -78.1 99.0 198 198 198
15.8 -7.8 10.2 218 221 220
247.1 -95.9 125.3 220 223 222
219.5 -84.2 110.0 220 223 222
406.7 -152.5 199.1 220 220 220
97.3 -97.5 131.4 221 221 221
15.8 -7.6 10.2 218 221 220
247.1 -93.0 125.3 220 223 222
218.2 -81.2 109.3 220 223 222
245.1 -81.7 110.0 199 199 199
239.3 -78.9 106.3 197 197 197
236.4 -77.2 103.9 198 198 198
15.8 -7.3 10.2 218 221 220
247.1 -90.1 125.3 220 223 222
215.8 -77.7 108.1 220 223 222
233.0 -76.0 105.7 194 194 194
235.5 -76.0 105.7 197 197 197
231.5 -73.9 102.8 197 197 197
228.9 -72.4 100.6 198 198 198
232.5 -72.8 101.2 198 198 198
-24.8 -7.8 11.2 74 74 74
-11.3 -8.4 12.1 47 47 47
-9.4 -7.8 11.2 53 53 53
14.0 -7.2 10.4 218 218 218
14.9 -7.3 10.6 218 218 218
15.0 -7.3 10.4 218 218 218
16.0 -7.2 10.3 218 221 220
16.2 -7.2 10.3 218 221 220
34.5 -13.4 19.3 219 222 221
225.4 -69.7 100.1 197 197 197
224.1 -68.6 98.5 199 199 199
14.0 -7.0 10.4 212 213 212
14.9 -7.1 10.6 218 218 218
15.0 -7.0 10.4 218 218 218
34.1 -12.9 19.1 219 222 221
33.4 -12.4 18.5 219 222 221
200.0 -59.7 88.8 194 194 194
204.9 -60.6 90.1 197 197 197
198.5 -58.1 86.4 197 197 197
196.0 -56.8 84.4 200 200 200
33.7 -12.1 18.6 220 223 222
29.3 -10.2 15.8 220 223 222
209.9 -59.9 92.3 192 192 192
34.0 -11.8 18.8 220 223 222
29.2 -10.0 15.9 220 223 222
29.2 -9.9 15.8 220 223 222
230.2 -72.2 115.3 222 224 224
261.8 -73.6 117.5 195 195 195
255.0 -70.9 113.3 195 195 195
240.4 -66.2 105.7 192 192 192
242.9 -66.2 105.7 198 198 198
300.8 -81.1 129.6 200 200 200
272.1 -72.7 116.1 200 200 200
112.1 -91.3 151.3 220 220 220
23.3 -7.8 12.9 222 224 224
29.7 -9.8 16.2 222 224 224
28.9 -9.4 15.6 224 226 226
228.8 -69.1 114.6 222 224 224
255.5 -69.1 114.6 192 192 192
261.3 -70.0 116.1 195 195 195
247.3 -65.6 108.7 195 195 195
247.0 -64.8 107.5 198 198 198
288.9 -75.1 124.4 196 196 196
272.1 -70.0 116.1 202 202 202
23.4 -7.5 12.9 220 220 220
28.9 -9.0 15.5 222 224 224
28.4 -8.8 15.1 222 224 224
240.5 -69.9 120.5 223 225 225
260.2 -67.7 116.8 193 193 193
264.6 -68.1 117.5 195 195 195
298.7 -74.6 128.7 199 199 199
277.2 -68.6 118.2 202 202 202
29.7 -9.0 16.2 221 221 221
29.0 -8.7 15.6 221 221 221
330.2 -79.2 142.2 199 199 199
163.1 -38.7 69.5 202 202 202
29.6 -8.6 16.1 222 222 222
29.4 -8.4 15.8 222 222 222
29.7 -8.3 16.2 222 222 222
24.1 -6.6 13.5 222 222 222
23.5 -6.3 13.0 220 220 220
27.0 -6.9 14.2 224 224 224
95.5 -21.1 43.3 186 186 186
112.7 -21.9 44.9 65 65 65
105.4 -20.3 41.7 67 67 67
23.5 -6.0 13.0 221 221 221
27.1 -6.6 14.3 224 226 226
26.3 -6.3 13.6 224 224 224
180.6 -132.2 300.3 222 222 222
271.5 -166.6 378.3 210 213 212
21.5 -5.1 11.6 219 219 219
27.4 -6.4 14.6 222 222 222
26.2 -6.0 13.6 222 222 222
21.8 -4.8 11.5 222 222 222
26.4 -5.7 13.7 222 222 222
21.5 -4.4 11.2 224 224 224
21.5 -4.4 11.0 224 224 224
21.8 -4.4 11.0 224 224 224
20.0 -4.1 11.0 221 221 221
20.2 -4.1 11.0 224 224 224
20.5 -4.1 11.0 224 224 224
20.8 -4.1 11.0 224 224 224
21.0 -4.1 11.1 224 224 224
21.5 -4.1 11.2 224 224 224
21.6 -4.1 11.1 224 224 224
21.8 -4.1 11.1 225 225 225
21.7 -3.9 11.3 225 225 225
24.1 -2.8 11.9 228 228 228
24.1 -2.7 11.8 228 228 228
20.6 -2.5 11.8 222 222 222
20.9 -2.5 11.9 222 222 222
21.2 -2.5 11.8 222 222 222
21.4 -2.5 11.8 222 222 222
21.7 -2.5 11.8 222 222 222
22.0 -2.5 11.9 222 222 222
22.2 -2.5 11.8 226 226 226
22.5 -2.5 11.8 226 226 226
22.8 -2.5 11.8 222 222 222
24.0 -2.5 11.9 226 226 226
24.1 -2.5 11.8 222 222 222
24.4 -2.5 11.8 226 226 226
24.6 -2.5 11.8 161 161 161
22.5 -2.2 11.8 224 224 224
24.1 -2.2 12.0 224 224 224
24.1 -2.2 11.8 219 222 221
24.5 -2.2 11.8 219 222 221
24.6 -2.2 11.8 162 165 164
24.5 -2.0 12.3 224 224 224
24.7 -2.0 12.2 224 224 224
25.3 -2.0 12.4 224 224 224
24.6 -1.7 12.3 225 225 225
24.9 -1.7 12.3 225 225 225
25.2 -1.7 12.3 225 225 225
23.8 -1.5 12.7 225 225 225
24.0 -1.4 12.6 225 225 225
25.1 -1.4 12.6 225 225 225
25.4 -1.4 12.6 225 225 225
25.6 -1.4 12.5 220 223 222
21.8 -1.1 11.5 222 224 224
22.1 -1.1 11.5 222 224 224
22.4 -1.1 11.5 226 226 226
23.8 -1.1 11.8 222 224 224
23.7 -1.1 11.6 222 224 224
21.7 -0.8 11.4 223 225 225
21.9 -0.8 11.4 223 225 225
22.1 -0.8 11.4 223 225 225
18.7 -0.5 11.0 224 226 226
18.9 -0.5 11.0 224 226 226
21.8 -0.5 11.0 223 225 225
21.9 -0.5 11.0 223 225 225
25.2 -0.6 12.3 223 225 225
18.6 -0.2 11.0 222 224 224
18.8 -0.2 11.0 224 226 226
19.1 -0.2 11.0 224 226 226
21.4 -0.2 11.0 224 226 226
21.7 -0.2 11.0 224 226 226
21.8 -0.2 10.9 224 226 226
23.9 -0.3 11.9 224 226 226
24.1 -0.3 11.8 223 225 225
24.7 -0.3 11.9 220 223 222
24.9 -0.3 11.9 176 179 178
18.6 0.0 11.0 221 221 221
19.5 0.0 11.4 223 225 225
21.8 0.0 11.5 222 224 224
22.0 0.0 11.4 224 226 226
22.3 0.0 11.4 224 226 226
21.8 0.0 10.9 224 226 226
23.8 0.0 11.8 224 226 226
23.9 0.0 11.7 222 224 224
19.5 0.3 11.4 222 222 222
21.8 0.3 11.4 223 225 225
21.9 0.3 11.4 223 225 225
22.1 0.3 11.4 222 224 224
-72.2 3.1 65.9 121 123 122
21.9 0.5 11.4 223 225 225
88.6 1.1 24.0 91 91 91
88.6 1.1 23.9 89 89 89
-208.7 5.4 75.4 61 61 61
-206.9 5.4 75.4 61 61 61
-205.2 5.4 75.4 61 61 61
-160.9 5.2 72.8 53 53 53
-166.7 5.5 77.8 54 54 54
-147.4 5.4 75.4 48 48 48
-142.2 5.2 73.6 49 49 49
-142.7 5.3 74.8 49 49 49
-141.5 5.3 75.1 49 49 49
-87.5 5.2 73.6 66 67 65
-91.8 5.6 78.8 62 62 62
-85.3 5.4 76.3 66 66 66
-77.9 5.0 71.1 94 93 92
16.3 0.7 10.0 150 150 150
84.3 1.6 22.5 86 85 83
85.5 1.6 22.7 87 87 87
-209.7 7.0 74.5 58 58 58
-211.3 7.1 75.7 60 60 60
-206.2 7.0 74.5 60 60 60
-204.5 7.0 74.5 60 60 60
-202.7 7.0 74.5 61 61 61
-201.0 7.0 74.5 61 61 61
-199.3 7.0 74.5 61 61 61
-197.6 7.0 74.5 61 61 61
-195.8 7.0 74.5 59 59 59
-194.1 7.0 74.5 59 59 59
-192.4 7.0 74.5 59 59 59
-190.6 7.0 74.5 59 59 59
-188.9 7.0 74.5 60 60 60
-187.2 7.0 74.5 60 60 60
-185.4 7.0 74.5 60 60 60
-183.7 7.0 74.5 60 60 60
-182.0 7.0 74.5 56 56 56
-180.2 7.0 74.5 56 56 56
-178.5 7.0 74.5 56 56 56
-176.8 7.0 74.5 57 57 57
-175.1 7.0 74.5 57 57 57
-173.3 7.0 74.5 57 57 57
-171.6 7.0 74.5 57 57 57
-169.9 7.0 74.5 54 56 54
-168.1 7.0 74.5 53 52 52
-165.7 7.0 74.2 53 52 52
-161.5 6.9 73.0 53 52 52
-166.4 7.2 76.9 51 51 51
-164.0 7.2 76.6 53 53 53
-162.9 7.2 76.9 52 52 52
-158.5 7.1 75.7 53 52 52
-152.5 6.9 73.6 53 52 52
-145.1 6.7 70.8 53 52 52
-152.1 7.2 76.9 51 50 48
-146.2 7.0 74.8 51 50 48
-141.7 6.9 73.3 48 48 48
-141.6 7.0 74.2 48 48 48
-139.9 7.0 74.2 47 48 47
-140.4 7.1 75.4 49 49 49
-138.6 7.1 75.4 50 50 50
-135.8 7.0 74.8 53 52 51
-133.5 7.0 74.5 51 51 51
-86.5 6.9 72.8 56 56 56
-91.1 7.4 78.2 57 57 57
-89.3 7.4 78.2 58 58 56
-85.3 7.2 76.3 67 67 67
-77.9 6.7 71.1 93 92 91
16.0 0.9 10.0 136 136 136
16.3 0.9 10.0 199 199 199
16.5 0.9 10.0 205 205 205
82.1 2.1 21.9 87 86 84
82.5 2.1 21.9 88 88 88
82.3 2.0 21.7 88 88 88
-78.3 7.7 65.9 62 62 62
-73.2 7.9 66.8 71 72 70
-68.7 7.5 64.1 129 132 131
84.0 2.7 22.6 87 87 85
82.2 2.6 22.0 87 87 85
82.9 2.6 22.0 93 93 93
82.9 2.6 21.9 90 90 90
83.4 2.6 21.9 164 164 164
84.0 2.6 21.9 126 128 127
85.2 3.2 23.1 87 87 85
85.0 3.2 22.9 86 85 83
83.9 3.2 22.4 87 87 85
84.2 3.2 22.4 89 89 89
84.4 3.1 22.3 94 94 94
85.8 3.2 22.5 138 138 138
86.6 3.2 22.6 177 180 179
84.4 3.8 23.0 94 94 94
86.6 3.8 23.4 86 85 83
86.2 3.8 23.2 86 85 83
84.9 3.7 22.7 86 85 83
85.3 3.7 22.7 92 92 92
85.9 3.7 22.7 98 100 100
86.6 3.7 22.7 111 113 112
87.2 3.7 22.8 181 181 181
85.2 4.3 23.2 92 92 92
87.1 4.4 23.6 87 86 84
87.4 4.4 23.5 87 86 84
86.4 4.3 23.1 87 86 84
85.9 4.3 22.8 95 95 95
86.4 4.3 22.8 105 105 105
88.1 4.3 23.1 81 81 81
-45.6 3.8 16.2 56 56 56
-45.3 3.8 16.2 58 59 59
-44.9 3.8 16.2 58 59 59
-44.5 3.8 16.2 65 66 64
-44.1 3.8 16.2 62 64 61
-43.8 3.8 16.2 65 66 64
-43.4 3.8 16.2 65 66 64
-43.0 3.8 16.2 65 66 64
-42.6 3.8 16.2 69 69 69
-42.2 3.8 16.2 62 64 61
-41.9 3.8 16.2 69 69 69
-41.5 3.8 16.2 70 70 70
-41.1 3.8 16.2 69 69 69
-40.7 3.8 16.2 77 77 77
-40.4 3.8 16.2 157 157 157
-40.0 3.8 16.2 113 114 113
-39.6 3.8 16.2 107 107 107
-39.2 3.8 16.2 101 103 103
-38.9 3.8 16.2 162 165 164
-38.4 3.8 16.2 184 187 186
-38.1 3.8 16.2 162 162 162
-37.7 3.8 16.2 186 188 187
-37.3 3.8 16.2 176 179 178
-37.0 3.8 16.2 172 172 172
-36.6 3.8 16.2 170 169 168
-36.2 3.8 16.2 178 181 180
-22.3 3.8 16.3 207 207 207
-21.8 3.8 16.2 205 205 205
-21.4 3.8 16.2 207 207 207
-21.1 3.8 16.2 204 204 204
-20.7 3.8 16.2 209 209 209
-20.3 3.8 16.2 188 188 188
-45.6 4.2 16.2 64 65 63
-45.3 4.2 16.2 64 65 63
-44.9 4.2 16.2 61 63 61
-44.5 4.2 16.2 64 65 63
-44.1 4.2 16.2 69 69 69
-43.8 4.2 16.2 72 74 74
-43.4 4.2 16.2 71 71 71
-43.0 4.2 16.2 72 74 74
-42.6 4.2 16.2 60 60 60
-42.2 4.2 16.2 45 45 45
-41.9 4.2 16.2 65 66 64
-41.5 4.2 16.2 93 96 95
-41.1 4.2 16.2 163 162 160
-40.7 4.2 16.2 193 196 195
-40.4 4.2 16.2 199 199 199
-40.0 4.2 16.2 161 164 163
-39.6 4.2 16.2 171 173 173
-39.2 4.2 16.2 162 165 164
-38.9 4.2 16.2 162 162 162
-38.5 4.2 16.2 181 181 181
-38.1 4.2 16.2 181 181 181
-37.7 4.2 16.2 184 184 184
-37.3 4.2 16.2 173 175 175
-37.0 4.2 16.2 176 179 178
-36.6 4.2 16.2 159 162 161
-22.3 4.2 16.3 201 203 203
-21.8 4.2 16.2 196 196 196
-21.4 4.2 16.2 197 197 197
-21.1 4.2 16.2 199 199 199
-20.7 4.2 16.2 204 204 204
-20.3 4.2 16.2 200 202 202
-12.3 4.2 16.5 189 189 189
-11.8 4.2 16.3 210 210 210
-11.3 4.2 16.2 240 240 240
-45.4 4.5 16.1 69 69 69
-22.2 4.5 16.2 104 104 104
-21.7 4.5 16.0 107 109 109
-21.3 4.5 16.0 119 121 120
-20.6 4.5 16.1 126 126 126
-20.2 4.5 16.1 214 216 216
-11.7 4.5 16.2 237 237 237
-13.2 5.9 12.6 128 130 129
-13.7 6.2 12.7 210 210 210
-13.3 6.2 12.7 115 117 116
-13.6 6.5 12.7 194 194 194
-13.2 6.5 12.6 112 112 112
-13.6 6.8 12.7 108 110 110
-13.6 7.1 12.7 79 79 79
170.0 269.1 350.3 81 81 81
-285.1 403.5 394.1 135 134 133
176.3 268.7 245.7 19 19 19
-34.7 15.2 12.3 83 82 80
-33.2 15.3 12.4 66 68 67
-32.9 15.2 11.7 105 105 105
-32.9 15.5 11.7 106 106 106
150.4 91.4 65.5 204 207 206
27.5 15.8 10.8 89 89 89
27.2 16.0 10.7 178 178 178
40.0 15.9 10.7 140 140 140
40.2 15.9 10.7 84 84 84
40.4 15.9 10.7 80 79 78
40.6 16.3 10.8 81 81 81
40.9 16.3 10.8 80 79 78
40.7 16.6 10.8 77 77 75
41.0 16.6 10.8 74 74 74
-32.5 18.3 11.5 216 216 216
-32.5 18.5 11.6 214 214 214
19.1 17.3 10.4 85 84 82
24.2 17.2 10.4 143 143 142
34.6 17.1 10.4 95 94 93
34.6 17.0 10.3 95 94 93
35.4 17.1 10.4 87 87 87
35.5 17.1 10.3 87 87 87
35.9 17.0 10.3 96 95 94
36.4 17.1 10.4 98 97 95
36.7 17.2 10.4 103 103 103
37.5 17.2 10.4 105 105 105
37.7 17.2 10.4 108 108 108
38.3 17.1 10.4 116 116 116
38.5 17.1 10.4 109 111 111
38.8 17.2 10.4 60 62 60
39.1 17.2 10.4 56 56 56
39.3 17.1 10.4 61 64 63
