ply
format ascii 1.0
element vertex 2086
property float x
property float y
property float z
property uchar red
property uchar green
property uchar blue
end_header
120.0 -249.8 99.6 163 163 163
122.4 -249.8 99.6 161 161 161
123.4 -247.2 98.5 162 162 162
146.3 -255.2 101.7 158 161 160
147.8 -253.8 101.2 158 161 160
91.9 -148.3 59.1 155 158 157
94.1 -149.7 59.7 156 159 158
95.5 -149.7 59.7 156 159 158
64.1 -94.9 37.8 158 161 160
63.8 -93.2 37.2 158 161 160
64.2 -92.5 36.9 158 161 160
65.8 -93.6 37.3 159 162 161
66.4 -93.2 37.2 159 162 161
66.6 -92.3 36.8 158 158 158
68.3 -93.4 37.2 158 158 158
66.7 -162.7 65.5 162 162 162
67.6 -161.0 64.8 162 162 162
69.5 -162.1 65.2 162 162 162
71.1 -162.1 65.2 163 163 163
72.6 -162.1 65.2 163 163 163
76.1 -163.3 65.7 163 163 163
76.9 -161.6 65.0 163 163 163
78.4 -161.6 65.0 163 163 163
80.2 -162.1 65.2 163 163 163
82.2 -163.3 65.7 164 164 164
82.6 -161.0 64.8 164 164 164
82.4 -157.8 63.5 162 162 162
86.5 -162.7 65.5 162 162 162
88.4 -163.3 65.7 162 162 162
100.6 -176.8 71.1 162 162 162
94.5 -163.3 65.7 162 162 162
102.8 -174.8 70.3 163 163 163
104.0 -174.2 70.1 158 161 160
97.3 -160.5 64.6 158 161 160
95.3 -154.7 62.2 158 161 160
101.4 -162.1 65.2 158 161 160
103.6 -163.3 65.7 159 162 161
105.5 -163.8 65.9 159 162 161
106.7 -163.3 65.7 156 159 158
66.3 -96.0 38.6 158 161 160
66.8 -95.4 38.4 158 161 160
69.6 -98.2 39.5 159 162 161
69.5 -96.8 38.9 159 162 161
62.6 -41.9 16.9 196 199 198
62.2 -41.3 16.6 154 154 154
61.7 -145.6 59.1 162 162 162
64.4 -145.6 59.1 163 163 163
65.8 -145.6 59.1 161 161 161
67.8 -146.9 59.7 163 163 163
69.3 -144.2 58.6 163 163 163
70.2 -143.3 58.2 163 163 163
72.2 -144.7 58.7 163 163 163
74.3 -146.0 59.3 164 164 164
72.7 -140.3 57.0 164 164 164
74.4 -141.2 57.3 164 164 164
75.1 -139.9 56.8 164 164 164
94.2 -164.0 66.6 164 164 164
85.0 -145.6 59.1 162 162 162
82.5 -139.1 56.5 163 163 163
87.8 -145.6 59.1 163 163 163
88.3 -144.2 58.6 163 163 163
100.7 -152.7 62.0 160 163 162
93.3 -139.5 56.6 160 163 162
67.8 -97.2 39.5 161 164 163
69.0 -97.7 39.7 158 161 160
60.4 -41.0 16.7 182 185 184
60.6 -40.9 16.6 154 154 154
60.9 -40.9 16.6 196 199 198
61.0 -40.6 16.5 193 193 193
61.6 -40.8 16.6 212 213 212
61.3 -40.4 16.4 176 176 176
60.4 -39.5 16.0 159 159 159
44.7 -106.8 43.8 165 165 165
45.7 -106.8 43.8 165 165 165
46.8 -107.1 43.9 162 162 162
47.7 -106.8 43.8 163 163 163
49.2 -107.8 44.2 166 166 166
50.2 -107.8 44.2 163 163 163
50.9 -107.1 43.9 163 163 163
52.0 -107.3 44.0 163 163 163
52.8 -106.8 43.8 163 163 163
53.8 -106.8 43.8 163 163 163
54.8 -106.8 43.8 164 164 164
56.2 -107.6 44.1 164 164 164
57.4 -107.8 44.2 164 164 164
57.9 -106.8 43.8 164 164 164
58.8 -106.6 43.7 164 164 164
64.4 -107.6 44.1 165 165 165
65.0 -106.8 43.8 165 165 165
68.4 -110.7 45.4 165 165 165
67.4 -107.3 44.0 165 165 165
67.3 -105.6 43.3 165 165 165
69.1 -106.8 43.8 166 166 166
70.1 -106.8 43.8 166 166 166
75.1 -111.2 45.6 165 165 165
74.2 -108.3 44.4 165 165 165
73.7 -106.1 43.5 165 165 165
72.3 -102.8 42.1 166 166 166
72.8 -102.1 41.9 166 166 166
76.3 -105.6 43.3 162 165 164
78.2 -106.8 43.8 162 165 164
81.5 -109.9 45.0 160 163 162
80.6 -107.3 44.0 160 163 162
80.2 -105.3 43.2 160 163 162
82.5 -107.1 43.9 161 164 163
85.3 -109.3 44.8 161 164 163
84.0 -106.3 43.6 160 160 160
59.6 -39.4 16.1 196 196 196
60.3 -39.6 16.2 200 202 202
59.9 -39.1 16.0 215 215 215
59.4 -38.5 15.8 212 213 212
59.0 -38.0 15.6 205 205 205
44.0 -104.3 43.2 165 165 165
51.2 -104.6 43.3 166 166 166
52.0 -104.1 43.1 166 166 166
53.0 -104.1 43.1 166 166 166
55.3 -104.8 43.4 167 167 167
56.2 -104.6 43.3 167 167 167
56.6 -103.4 42.8 167 167 167
60.4 -104.8 43.4 167 167 167
61.4 -104.8 43.4 167 167 167
62.8 -105.5 43.7 168 168 168
63.1 -104.3 43.2 168 168 168
63.4 -103.2 42.7 168 168 168
66.2 -106.0 43.9 168 168 168
66.6 -105.1 43.5 168 168 168
65.5 -101.8 42.1 168 168 168
68.4 -104.8 43.4 166 166 166
69.9 -105.5 43.7 166 166 166
76.0 -109.9 45.5 170 171 170
73.2 -104.3 43.2 168 168 168
69.9 -98.3 40.7 166 166 166
71.1 -98.7 40.9 166 166 166
74.5 -102.0 42.2 169 169 169
81.8 -107.8 44.6 163 166 165
78.4 -102.0 42.2 163 166 165
84.7 -108.8 45.0 161 164 163
86.7 -110.1 45.6 161 164 163
82.4 -103.4 42.8 161 164 163
56.1 -35.8 14.8 180 183 182
55.4 -35.2 14.6 215 215 215
54.7 -34.5 14.3 215 215 215
30.8 -83.8 35.0 164 164 164
39.0 -83.8 35.0 169 169 169
39.6 -83.5 34.9 169 169 169
43.9 -88.8 37.1 169 169 169
42.3 -84.0 35.1 169 169 169
42.9 -83.5 34.9 169 169 169
46.8 -87.9 36.7 170 171 170
48.2 -88.8 37.1 170 171 170
48.9 -88.6 37.0 170 171 170
47.2 -84.0 35.1 170 171 170
47.6 -83.2 34.8 170 171 170
50.7 -85.7 35.8 170 171 170
51.3 -85.4 35.7 173 175 175
52.8 -86.4 36.1 172 172 172
53.0 -85.4 35.7 172 172 172
79.8 -124.7 52.1 172 172 172
56.4 -86.9 36.3 172 172 172
55.4 -84.0 35.1 173 173 173
84.7 -121.3 50.7 170 171 170
80.5 -113.7 47.5 168 168 168
61.5 -80.3 33.5 170 171 170
95.2 -119.7 50.0 164 167 166
82.9 -58.5 24.4 98 100 100
78.6 -55.1 23.0 96 99 98
45.1 -28.8 12.0 180 183 182
55.1 -34.8 14.6 215 215 215
54.1 -34.0 14.2 218 218 218
53.8 -33.6 14.0 218 218 218
28.8 -77.4 32.7 164 164 164
29.4 -77.0 32.5 168 168 168
37.1 -79.1 33.4 171 173 173
37.0 -77.1 32.6 171 173 173
37.4 -76.4 32.2 171 173 173
39.5 -77.7 32.8 169 169 169
39.8 -76.8 32.4 171 173 173
41.2 -76.6 32.3 175 177 177
42.3 -77.1 32.6 172 174 174
43.4 -77.8 32.8 175 177 177
45.1 -79.5 33.5 175 177 177
44.5 -77.0 32.5 175 177 177
45.9 -78.1 33.0 172 174 174
46.6 -78.1 33.0 175 177 177
47.4 -78.1 33.0 173 175 175
48.8 -79.1 33.4 173 175 175
48.9 -78.1 33.0 173 175 175
49.1 -77.1 32.6 173 175 175
82.3 -127.3 53.7 173 175 175
54.1 -82.5 34.8 173 175 175
52.8 -79.3 33.5 174 176 176
52.6 -77.8 32.8 174 176 176
433.3 -574.7 242.5 176 176 176
58.2 -76.2 32.2 176 176 176
57.9 -74.8 31.6 174 174 174
56.3 -71.8 30.3 174 174 174
42.2 -52.5 22.2 172 172 172
80.4 -56.2 23.7 98 100 100
77.6 -53.9 22.7 96 99 98
44.2 -28.0 11.8 188 188 188
43.7 -27.5 11.6 212 213 212
28.1 -73.0 31.1 170 172 172
28.3 -71.6 30.5 170 172 172
29.0 -71.6 30.5 173 175 175
29.7 -71.6 30.5 173 175 175
33.2 -71.6 30.5 174 176 176
34.6 -73.0 31.1 174 176 176
35.1 -72.5 30.9 174 176 176
35.3 -71.4 30.4 174 176 176
37.6 -71.7 30.6 178 178 178
38.1 -71.5 30.5 171 173 173
39.7 -73.0 31.1 179 179 179
40.1 -72.4 30.9 175 177 177
42.2 -72.4 30.9 179 179 179
42.9 -72.3 30.8 179 179 179
43.7 -72.4 30.9 175 177 177
44.7 -72.9 31.1 175 177 177
44.9 -72.2 30.8 176 179 178
46.3 -73.1 31.2 176 179 178
87.2 -133.7 57.0 176 179 178
51.9 -77.2 32.9 181 181 181
51.3 -75.2 32.1 174 176 176
27.8 -39.0 16.6 178 181 180
28.0 -38.8 16.5 175 177 177
28.4 -38.9 16.6 178 181 180
28.7 -38.6 16.5 176 179 178
680.8 -905.8 386.0 176 179 178
536.5 -704.5 300.3 176 179 178
58.7 -76.1 32.4 173 173 173
57.4 -73.5 31.3 177 180 179
56.1 -70.9 30.2 177 180 179
72.2 -49.3 21.0 95 95 95
43.4 -27.1 11.5 212 213 212
42.6 -26.4 11.3 218 218 218
42.8 -26.4 11.2 218 218 218
34.0 -69.5 29.9 195 195 195
34.1 -68.3 29.4 197 197 197
36.4 -68.9 29.6 197 197 197
40.7 -69.1 29.7 197 197 197
41.3 -68.9 29.6 197 197 197
42.5 -69.8 30.0 197 197 197
43.3 -69.9 30.1 200 200 200
43.6 -69.3 29.8 197 197 197
44.0 -68.9 29.6 204 204 204
26.9 -36.4 15.7 198 198 198
27.0 -36.0 15.5 198 198 198
59.3 -76.2 32.8 202 202 202
57.8 -73.2 31.5 200 200 200
56.2 -70.3 30.3 203 203 203
69.5 -46.6 20.1 96 99 98
66.0 -44.0 18.9 96 99 98
42.2 -25.9 11.1 207 207 207
41.8 -25.5 11.0 218 218 218
41.2 -25.0 10.8 218 218 218
41.8 -67.9 29.5 204 204 204
42.5 -68.0 29.6 204 204 204
42.6 -67.0 29.1 200 200 200
42.0 -65.0 28.3 204 204 204
26.3 -34.7 15.1 207 207 207
26.2 -34.1 14.8 204 204 204
167.0 -122.5 53.3 112 114 113
40.4 -24.2 10.5 218 218 218
41.1 -64.1 28.1 204 204 204
40.6 -62.2 27.3 204 204 204
40.6 -61.3 26.9 204 204 204
26.2 -34.3 15.1 207 207 207
26.2 -33.8 14.8 207 207 207
26.5 -33.7 14.8 208 208 208
57.3 -71.2 31.3 208 208 208
55.7 -68.4 30.0 206 206 206
52.8 -63.9 28.1 206 206 206
171.3 -126.3 55.5 117 117 117
167.7 -122.7 53.9 114 116 115
67.3 -45.5 20.0 106 106 106
66.8 -44.9 19.7 98 100 100
66.0 -44.0 19.3 104 103 101
41.8 -66.6 29.6 204 204 204
42.2 -66.1 29.3 204 204 204
42.2 -65.1 28.9 204 204 204
41.4 -62.9 27.9 207 207 207
26.9 -35.3 15.6 207 207 207
26.4 -33.7 15.0 207 207 207
26.7 -33.6 14.9 208 208 208
27.2 -33.8 15.0 208 208 208
55.2 -67.0 29.7 209 209 209
176.0 -128.4 57.0 122 122 122
170.1 -123.2 54.7 120 120 120
166.6 -119.7 53.1 118 118 118
69.6 -46.9 20.8 108 108 108
68.6 -45.9 20.4 108 108 108
67.5 -44.9 19.9 106 106 106
41.8 -65.9 29.6 204 204 204
42.3 -65.6 29.4 207 207 207
42.8 -65.3 29.3 207 207 207
42.9 -64.4 28.9 207 207 207
43.5 -64.3 28.8 207 207 207
26.9 -35.0 15.7 206 206 206
26.9 -34.5 15.5 206 206 206
26.7 -33.7 15.1 207 207 207
26.7 -33.4 15.0 207 207 207
56.3 -67.6 30.3 208 208 208
71.8 -47.9 21.5 111 111 111
69.4 -46.0 20.6 111 111 111
40.7 -60.5 27.4 209 209 209
40.5 -59.2 26.8 206 206 206
39.9 -57.5 26.1 206 206 206
26.8 -34.4 15.6 208 208 208
26.9 -34.1 15.4 206 206 206
26.6 -32.9 14.9 206 206 206
40.1 -58.9 27.0 208 208 208
39.7 -57.5 26.3 208 208 208
39.9 -57.0 26.1 205 205 205
452.0 -616.5 282.3 206 206 206
69.4 -89.4 40.9 207 207 207
26.7 -34.0 15.6 207 207 207
26.9 -33.7 15.4 208 208 208
27.0 -33.5 15.3 205 205 205
26.7 -32.7 15.0 206 206 206
26.7 -32.2 14.8 206 206 206
-26.8 -22.6 10.5 46 45 43
-26.6 -22.6 10.5 46 45 43
-22.6 -22.6 10.5 45 44 43
-22.4 -22.6 10.5 48 48 48
40.7 -59.2 27.4 208 208 208
39.1 -56.1 25.9 208 208 208
69.1 -88.1 40.8 207 207 207
26.7 -33.6 15.6 207 207 207
27.0 -33.5 15.5 207 207 207
27.0 -33.1 15.3 207 207 207
26.8 -32.4 15.0 205 205 205
26.6 -31.8 14.7 205 205 205
-10.3 -23.7 11.1 132 135 134
-10.0 -23.5 11.0 135 135 135
-9.8 -23.6 11.0 136 136 136
-9.5 -23.6 11.1 136 138 137
-9.2 -23.4 11.0 140 140 140
-8.9 -23.4 11.0 140 142 141
-8.5 -23.5 11.0 140 142 141
-4.1 -23.5 11.0 167 167 167
3.8 -23.6 11.0 182 182 182
4.1 -23.6 11.1 182 182 182
4.3 -23.5 11.0 182 182 182
6.1 -23.6 11.0 208 208 208
6.9 -23.6 11.0 207 207 207
7.1 -23.6 11.0 207 207 207
7.4 -23.6 11.0 207 207 207
10.2 -23.6 11.0 207 207 207
11.5 -23.6 11.0 207 207 207
12.0 -23.5 11.0 207 207 207
13.8 -23.5 11.0 207 207 207
14.0 -23.5 11.0 207 207 207
14.3 -23.6 11.0 207 207 207
14.8 -23.6 11.0 207 207 207
15.1 -23.6 11.0 207 207 207
40.9 -58.8 27.5 207 207 207
68.6 -86.6 40.5 206 206 206
69.3 -86.2 40.3 206 206 206
26.9 -33.1 15.5 206 206 206
27.0 -32.7 15.3 207 207 207
26.8 -32.1 15.0 207 207 207
26.7 -31.6 14.8 207 207 207
25.1 -27.2 12.7 204 204 204
25.0 -26.7 12.5 207 207 207
-10.6 -23.5 11.1 130 130 130
-10.4 -23.6 11.2 131 134 133
-10.1 -23.4 11.1 131 133 132
-9.9 -23.5 11.1 136 136 136
-9.6 -23.6 11.2 134 137 136
-9.3 -23.4 11.1 138 137 136
-9.0 -23.4 11.1 138 138 138
-8.8 -23.5 11.1 141 143 142
-8.5 -23.4 11.1 140 142 141
-8.3 -23.4 11.1 144 144 144
-8.0 -23.5 11.1 146 146 146
-7.8 -23.5 11.1 145 147 147
-7.6 -23.6 11.2 148 148 148
-7.3 -23.6 11.2 151 151 151
-7.0 -23.6 11.2 151 151 151
-6.7 -23.5 11.1 158 161 160
-6.5 -23.6 11.2 164 164 164
-6.2 -23.5 11.1 167 167 167
-6.0 -23.5 11.1 166 169 168
-5.7 -23.5 11.1 164 167 166
-5.4 -23.4 11.1 166 169 168
-5.2 -23.6 11.2 174 174 174
-4.9 -23.5 11.1 175 175 175
-4.7 -23.5 11.1 174 176 176
-4.4 -23.5 11.1 173 175 175
-4.1 -23.4 11.1 174 176 176
-1.6 -23.5 11.1 181 181 181
-1.3 -23.5 11.1 181 181 181
-1.1 -23.5 11.1 181 181 181
-0.8 -23.5 11.1 181 181 181
-0.6 -23.6 11.2 181 181 181
-0.3 -23.6 11.2 181 181 181
-0.0 -23.4 11.1 180 180 180
3.1 -23.5 11.1 182 182 182
3.3 -23.5 11.1 182 182 182
3.6 -23.5 11.1 182 182 182
3.9 -23.5 11.1 182 182 182
4.1 -23.5 11.1 182 182 182
4.3 -23.4 11.1 181 181 181
5.9 -23.6 11.2 207 207 207
6.2 -23.5 11.1 207 207 207
6.4 -23.5 11.1 207 207 207
6.7 -23.5 11.1 207 207 207
6.9 -23.5 11.1 207 207 207
7.2 -23.5 11.1 207 207 207
7.5 -23.5 11.1 207 207 207
7.7 -23.5 11.1 207 207 207
8.0 -23.5 11.1 207 207 207
8.2 -23.5 11.1 207 207 207
8.5 -23.5 11.1 207 207 207
8.7 -23.5 11.1 207 207 207
9.0 -23.5 11.1 207 207 207
9.3 -23.5 11.1 207 207 207
9.5 -23.5 11.1 207 207 207
9.8 -23.5 11.1 207 207 207
10.0 -23.5 11.1 207 207 207
10.3 -23.5 11.1 207 207 207
10.6 -23.5 11.1 207 207 207
10.8 -23.5 11.1 207 207 207
11.1 -23.5 11.1 207 207 207
11.3 -23.5 11.1 207 207 207
11.6 -23.5 11.1 207 207 207
11.9 -23.5 11.1 207 207 207
12.1 -23.5 11.1 207 207 207
12.4 -23.5 11.1 207 207 207
12.6 -23.5 11.1 207 207 207
12.9 -23.5 11.1 207 207 207
13.1 -23.5 11.1 207 207 207
13.4 -23.5 11.1 207 207 207
13.7 -23.5 11.1 207 207 207
13.9 -23.4 11.1 207 207 207
14.1 -23.4 11.1 207 207 207
14.4 -23.5 11.1 207 207 207
14.7 -23.5 11.1 207 207 207
15.0 -23.5 11.1 207 207 207
15.2 -23.5 11.1 207 207 207
15.5 -23.5 11.1 207 207 207
15.8 -23.6 11.2 207 207 207
41.8 -59.5 28.1 207 207 207
43.4 -59.1 27.9 207 207 207
41.4 -55.5 26.3 207 207 207
69.1 -86.2 40.8 205 205 205
69.3 -85.3 40.3 206 206 206
26.7 -32.5 15.4 206 206 206
26.8 -31.7 15.0 206 206 206
26.7 -31.2 14.8 207 207 207
25.1 -26.9 12.7 206 206 206
25.2 -26.7 12.6 206 206 206
-10.5 -23.6 11.3 124 127 126
-10.3 -23.6 11.3 125 125 125
-10.0 -23.5 11.3 126 126 126
-9.7 -23.6 11.3 128 130 129
-9.5 -23.5 11.3 134 136 135
-9.2 -23.5 11.3 136 135 134
-8.9 -23.5 11.2 139 141 140
-8.6 -23.4 11.2 156 156 156
-8.4 -23.5 11.2 149 151 151
-8.1 -23.5 11.2 152 152 152
-7.9 -23.5 11.2 154 154 154
-7.6 -23.6 11.3 154 154 154
-7.4 -23.5 11.3 160 160 160
-7.1 -23.5 11.3 161 164 163
-6.8 -23.5 11.3 170 172 172
-6.6 -23.5 11.3 171 173 173
-6.3 -23.5 11.3 173 173 173
-6.1 -23.5 11.3 174 174 174
-5.8 -23.5 11.2 177 177 177
-5.5 -23.5 11.2 177 180 179
-5.3 -23.5 11.3 175 177 177
-5.0 -23.5 11.2 189 189 189
-4.7 -23.5 11.3 184 184 184
-4.5 -23.5 11.2 190 190 190
-4.2 -23.5 11.2 189 189 189
-2.9 -23.5 11.3 186 186 186
-2.6 -23.5 11.3 186 186 186
-2.4 -23.6 11.3 186 186 186
-2.1 -23.5 11.3 186 186 186
-1.9 -23.5 11.3 183 183 183
-1.6 -23.5 11.3 183 183 183
-1.3 -23.6 11.3 183 183 183
-1.1 -23.5 11.2 183 183 183
-0.8 -23.4 11.2 183 183 183
-0.6 -23.5 11.2 182 182 182
-0.3 -23.5 11.3 182 182 182
-0.0 -23.5 11.3 185 185 185
3.1 -23.6 11.3 184 184 184
3.4 -23.5 11.3 181 181 181
3.9 -23.7 11.3 181 181 181
4.2 -23.5 11.3 181 181 181
4.4 -23.4 11.2 178 178 178
6.0 -23.5 11.3 207 207 207
6.2 -23.5 11.3 207 207 207
6.5 -23.5 11.3 206 206 206
6.8 -23.5 11.3 209 209 209
7.0 -23.5 11.3 206 206 206
7.3 -23.5 11.3 204 204 204
7.6 -23.5 11.3 206 206 206
7.8 -23.5 11.3 209 209 209
8.1 -23.5 11.3 206 206 206
8.3 -23.5 11.3 206 206 206
8.6 -23.5 11.3 206 206 206
8.9 -23.5 11.3 204 204 204
9.1 -23.5 11.3 206 206 206
9.4 -23.5 11.3 206 206 206
9.7 -23.5 11.3 206 206 206
9.9 -23.5 11.3 206 206 206
10.2 -23.5 11.3 206 206 206
10.4 -23.5 11.3 206 206 206
10.7 -23.5 11.3 206 206 206
11.0 -23.5 11.3 206 206 206
11.2 -23.5 11.3 206 206 206
11.5 -23.5 11.3 206 206 206
11.8 -23.6 11.3 206 206 206
12.0 -23.5 11.3 206 206 206
12.3 -23.5 11.3 206 206 206
12.5 -23.5 11.3 206 206 206
12.8 -23.5 11.3 206 206 206
13.1 -23.5 11.3 206 206 206
13.3 -23.5 11.2 206 206 206
13.6 -23.5 11.3 206 206 206
13.8 -23.5 11.3 206 206 206
14.1 -23.5 11.3 206 206 206
14.4 -23.6 11.3 206 206 206
14.7 -23.6 11.3 206 206 206
14.9 -23.6 11.3 206 206 206
15.1 -23.5 11.3 206 206 206
15.4 -23.5 11.2 206 206 206
15.7 -23.5 11.3 206 206 206
15.9 -23.5 11.3 206 206 206
41.5 -58.4 27.9 206 206 206
40.7 -56.4 27.0 206 206 206
42.7 -57.5 27.5 206 206 206
41.8 -55.4 26.5 206 206 206
42.0 -54.9 26.2 207 207 207
43.3 -55.7 26.6 207 207 207
69.5 -85.8 41.0 205 205 205
69.7 -84.9 40.6 205 205 205
26.7 -32.1 15.4 205 205 205
26.8 -31.0 14.8 206 206 206
25.0 -26.8 12.8 205 205 205
25.3 -26.8 12.8 205 205 205
25.4 -26.6 12.7 206 206 206
23.5 -21.0 10.0 197 197 197
-10.8 -23.9 11.6 112 112 112
-9.9 -23.7 11.5 110 110 110
-12.7 -31.2 15.1 109 109 109
-1.4 -23.9 11.6 185 185 185
3.7 -24.0 11.6 180 180 180
4.0 -23.9 11.6 180 180 180
4.2 -23.7 11.5 180 180 180
6.2 -23.9 11.6 206 206 206
6.4 -23.9 11.6 209 209 209
6.7 -23.9 11.6 209 209 209
7.0 -23.9 11.6 209 209 209
7.2 -23.9 11.6 209 209 209
7.5 -23.9 11.6 209 209 209
7.8 -23.9 11.6 210 210 210
8.0 -23.9 11.6 209 209 209
8.3 -23.9 11.6 209 209 209
8.6 -23.9 11.6 206 206 206
8.9 -23.9 11.6 203 203 203
9.1 -23.9 11.6 206 206 206
9.4 -23.9 11.6 209 209 209
9.7 -23.9 11.6 210 210 210
9.9 -23.9 11.6 210 210 210
10.2 -23.9 11.6 209 209 209
10.5 -23.9 11.6 209 209 209
10.7 -23.9 11.6 206 206 206
11.0 -23.9 11.6 206 206 206
11.3 -23.9 11.6 206 206 206
11.5 -23.9 11.6 206 206 206
11.8 -24.0 11.6 206 206 206
12.1 -23.9 11.6 206 206 206
12.3 -23.9 11.6 206 206 206
12.6 -23.9 11.6 206 206 206
12.9 -23.9 11.6 206 206 206
13.2 -23.9 11.6 206 206 206
13.4 -23.9 11.6 206 206 206
15.3 -23.9 11.6 206 206 206
15.6 -23.9 11.6 206 206 206
15.8 -23.9 11.6 206 206 206
16.1 -23.9 11.6 209 209 209
16.4 -23.9 11.6 206 206 206
40.8 -56.8 27.5 206 206 206
39.8 -54.6 26.4 206 206 206
39.6 -53.5 25.9 206 206 206
42.1 -54.3 26.3 206 206 206
42.8 -54.5 26.4 206 206 206
43.3 -54.3 26.3 206 206 206
69.8 -85.2 41.2 207 207 207
70.2 -84.5 40.9 207 207 207
26.7 -31.8 15.4 205 205 205
27.0 -31.6 15.3 205 205 205
27.3 -31.6 15.3 205 205 205
25.5 -26.7 12.9 205 205 205
23.7 -20.9 10.1 196 196 196
-14.5 -31.8 15.6 54 56 54
-10.6 -23.9 11.7 34 36 36
3.3 -24.1 11.8 183 183 183
3.5 -24.1 11.8 183 183 183
3.8 -24.1 11.8 179 179 179
4.1 -24.0 11.7 179 179 179
6.5 -24.1 11.8 208 208 208
6.8 -24.1 11.8 208 208 208
7.1 -24.1 11.8 208 208 208
7.4 -24.2 11.8 208 208 208
7.6 -24.1 11.8 208 208 208
7.9 -24.1 11.8 208 208 208
8.2 -24.1 11.8 208 208 208
8.5 -24.1 11.8 208 208 208
8.7 -24.1 11.8 208 208 208
9.0 -24.1 11.8 208 208 208
9.3 -24.1 11.8 208 208 208
9.6 -24.1 11.8 208 208 208
9.8 -24.1 11.8 208 208 208
10.1 -24.1 11.8 208 208 208
10.4 -24.1 11.8 208 208 208
10.6 -24.1 11.8 205 205 205
10.9 -24.1 11.8 205 205 205
11.2 -24.1 11.8 205 205 205
11.5 -24.1 11.8 205 205 205
11.7 -24.1 11.8 205 205 205
12.0 -24.1 11.8 205 205 205
12.3 -24.1 11.8 205 205 205
12.6 -24.1 11.8 205 205 205
12.8 -24.1 11.8 205 205 205
13.4 -24.2 11.8 208 208 208
15.6 -24.1 11.8 205 205 205
15.8 -24.1 11.8 208 208 208
39.7 -53.8 26.3 205 205 205
39.1 -52.2 25.5 205 205 205
42.7 -53.8 26.3 206 206 206
42.9 -53.3 26.1 206 206 206
44.1 -54.0 26.4 206 206 206
26.8 -31.4 15.4 206 206 206
26.9 -31.2 15.3 204 204 204
27.3 -31.2 15.3 204 204 204
27.4 -31.0 15.2 205 205 205
39.7 -53.2 26.3 204 204 204
39.0 -51.5 25.5 204 204 204
42.3 -52.7 26.1 205 205 205
41.7 -51.2 25.3 205 205 205
26.8 -31.1 15.4 206 206 206
26.8 -30.7 15.2 206 206 206
27.0 -30.6 15.1 204 204 204
27.2 -30.3 15.0 204 204 204
39.7 -51.8 25.9 204 204 204
43.1 -53.0 26.5 202 202 202
42.5 -51.6 25.8 205 205 205
43.8 -52.3 26.2 205 205 205
26.9 -30.8 15.4 205 205 205
26.9 -30.5 15.3 205 205 205
26.9 -30.1 15.1 206 206 206
27.1 -29.9 15.0 206 206 206
18.0 -24.8 12.5 206 206 206
18.6 -24.8 12.6 206 206 206
44.1 -53.6 27.1 204 204 204
43.5 -52.2 26.4 207 207 207
44.2 -52.2 26.5 207 207 207
44.5 -51.9 26.3 204 204 204
26.9 -30.6 15.5 205 205 205
27.0 -30.3 15.3 205 205 205
27.0 -29.9 15.1 205 205 205
27.2 -29.6 15.0 205 205 205
-35.4 -24.5 12.6 58 58 58
-35.3 -24.7 12.7 59 61 59
-35.1 -24.7 12.7 58 58 58
-34.7 -24.7 12.7 59 61 59
-34.2 -24.7 12.7 58 58 58
-33.3 -24.7 12.7 58 59 59
-32.7 -24.7 12.7 60 62 60
-32.4 -24.7 12.7 60 62 60
-31.9 -24.5 12.6 58 59 59
-31.6 -24.5 12.6 56 56 56
-31.3 -24.5 12.6 54 54 54
-31.3 -24.7 12.7 54 54 54
-30.8 -24.6 12.6 52 52 50
-30.4 -24.5 12.6 49 49 49
-29.5 -24.7 12.7 53 52 51
-29.2 -24.7 12.7 49 49 49
-28.9 -24.7 12.7 49 49 49
-28.5 -24.7 12.6 49 49 49
-28.3 -24.7 12.7 49 49 49
-28.0 -24.7 12.7 50 50 50
-27.5 -24.8 12.7 50 50 50
-27.1 -24.7 12.7 50 50 50
-26.6 -24.5 12.6 48 48 48
-26.2 -24.4 12.5 48 48 48
-26.2 -24.7 12.7 48 48 48
-25.9 -24.7 12.7 48 48 48
-25.6 -24.7 12.6 46 46 46
-25.3 -24.6 12.6 44 44 44
-24.5 -24.7 12.7 47 47 47
-24.2 -24.7 12.7 47 47 47
-23.9 -24.7 12.7 42 43 42
-23.3 -24.7 12.7 42 43 42
-23.0 -24.7 12.7 46 46 46
-22.6 -24.6 12.6 42 42 40
-22.3 -24.6 12.6 43 43 43
-21.8 -24.7 12.7 40 40 40
-21.4 -24.6 12.6 43 42 41
-21.1 -24.5 12.6 41 41 41
-20.9 -24.6 12.6 41 41 41
-10.8 -24.5 12.5 33 33 33
-10.5 -24.4 12.5 34 34 34
-10.3 -24.6 12.6 40 40 40
-10.1 -24.8 12.7 155 155 155
-9.5 -24.7 12.7 184 187 186
-9.1 -24.5 12.6 183 186 185
18.1 -24.5 12.6 206 206 206
18.7 -24.6 12.6 206 206 206
44.6 -53.6 27.5 206 206 206
44.5 -52.7 27.0 206 206 206
44.4 -51.8 26.6 206 206 206
44.6 -51.3 26.3 204 204 204
27.1 -30.0 15.4 204 204 204
27.1 -29.6 15.2 204 204 204
27.3 -29.4 15.1 205 205 205
28.2 -30.0 15.4 205 205 205
26.0 -25.4 13.0 203 203 203
26.8 -25.6 13.1 206 206 206
-35.6 -24.4 12.7 58 59 59
-35.4 -24.4 12.7 60 62 60
-35.1 -24.4 12.7 60 62 60
-34.8 -24.4 12.7 60 62 60
-34.5 -24.5 12.7 60 62 60
-34.3 -24.5 12.7 60 62 60
-33.9 -24.5 12.7 60 62 60
-33.4 -24.5 12.7 60 62 60
-33.1 -24.5 12.7 61 63 61
-32.8 -24.5 12.7 61 63 61
-32.5 -24.5 12.7 61 63 61
-32.2 -24.4 12.7 59 59 59
-31.9 -24.5 12.7 57 57 57
-31.5 -24.4 12.7 57 57 57
-31.4 -24.5 12.7 57 57 57
-31.1 -24.5 12.7 55 55 55
-30.8 -24.6 12.7 53 52 51
-30.6 -24.6 12.8 53 52 51
-30.1 -24.4 12.7 53 52 51
-29.9 -24.5 12.7 54 53 52
-29.6 -24.5 12.7 54 53 52
-29.2 -24.5 12.7 54 53 52
-28.9 -24.4 12.7 50 50 50
-28.6 -24.4 12.7 50 50 50
-28.3 -24.5 12.7 50 50 50
-28.0 -24.4 12.7 51 51 51
-27.8 -24.5 12.7 51 51 51
-27.6 -24.6 12.7 51 51 51
-27.3 -24.6 12.7 51 51 51
-26.8 -24.4 12.7 51 51 51
-26.5 -24.4 12.7 51 51 51
-26.3 -24.5 12.7 52 52 52
-26.0 -24.5 12.7 49 49 49
-25.7 -24.4 12.7 47 47 47
-25.3 -24.4 12.7 47 47 47
-24.5 -24.5 12.7 46 46 46
-24.2 -24.5 12.7 46 46 46
-23.9 -24.5 12.7 43 43 43
-23.6 -24.5 12.7 43 43 43
-23.4 -24.5 12.7 44 44 44
-23.0 -24.5 12.7 44 44 44
-22.7 -24.4 12.6 43 42 41
-22.4 -24.4 12.6 41 41 41
-22.2 -24.5 12.7 41 41 41
-21.9 -24.5 12.7 44 43 42
-21.5 -24.4 12.7 42 42 42
-21.3 -24.4 12.7 40 42 42
-21.0 -24.5 12.7 40 42 42
-11.3 -24.6 12.8 29 31 29
-10.9 -24.4 12.6 32 31 30
-10.6 -24.3 12.6 34 34 34
-10.4 -24.5 12.7 42 43 42
-9.8 -24.6 12.7 186 188 187
-9.5 -24.5 12.7 183 186 185
-9.2 -24.4 12.7 182 185 184
15.3 -24.5 12.7 205 205 205
15.5 -24.3 12.6 205 205 205
18.1 -24.3 12.6 205 205 205
18.5 -24.3 12.6 205 205 205
18.8 -24.4 12.7 205 205 205
44.5 -52.9 27.4 206 206 206
44.6 -52.2 27.1 206 206 206
44.5 -51.4 26.6 206 206 206
44.5 -50.7 26.3 206 206 206
27.1 -29.7 15.4 204 204 204
27.2 -29.4 15.2 204 204 204
27.3 -29.1 15.1 204 204 204
28.3 -29.7 15.4 204 204 204
26.1 -25.2 13.1 203 203 203
26.5 -25.3 13.1 203 203 203
26.6 -25.1 13.0 205 205 205
27.7 -25.3 13.1 185 185 185
-33.4 -24.8 13.0 62 64 61
-20.3 -19.1 10.0 47 48 47
-11.6 -24.8 13.0 33 32 30
-11.1 -24.5 12.9 29 31 29
-10.8 -24.4 12.8 33 33 33
-10.6 -24.7 13.0 42 43 42
-10.4 -25.0 13.1 174 174 174
-10.0 -24.7 13.0 184 187 186
44.6 -52.3 27.5 205 205 205
44.8 -51.8 27.2 205 205 205
44.7 -51.0 26.8 205 205 205
44.6 -50.1 26.3 205 205 205
46.1 -51.1 26.8 206 206 206
27.4 -29.2 15.4 206 206 206
27.3 -28.8 15.1 206 206 206
28.4 -29.5 15.5 203 203 203
26.2 -25.0 13.1 204 204 204
26.6 -25.1 13.2 202 202 202
26.8 -25.0 13.1 207 207 207
27.1 -25.0 13.1 169 169 169
27.5 -25.0 13.1 182 182 182
-11.6 -24.6 13.1 65 66 64
-11.2 -24.3 12.9 62 62 62
-10.8 -24.2 12.9 36 39 38
-10.6 -24.4 13.0 42 42 42
-10.4 -24.7 13.1 175 177 177
-10.0 -24.5 13.0 186 188 187
44.6 -51.7 27.5 204 204 204
44.6 -50.9 27.1 205 205 205
44.6 -50.2 26.7 205 205 205
44.5 -49.4 26.3 205 205 205
45.1 -49.4 26.3 205 205 205
46.4 -50.1 26.6 205 205 205
26.7 -24.9 13.2 204 204 204
26.8 -24.7 13.1 204 204 204
27.1 -24.7 13.1 168 168 168
-11.5 -24.1 13.0 28 28 28
-11.1 -24.0 12.9 90 90 90
-10.8 -23.9 12.9 34 34 34
-10.6 -24.0 12.9 49 48 47
-10.3 -24.1 13.0 182 182 182
-10.0 -24.1 13.0 182 185 184
-9.7 -24.1 13.0 183 186 185
44.5 -50.9 27.4 206 206 206
43.6 -49.2 26.5 204 204 204
44.1 -49.1 26.4 204 204 204
44.2 -48.5 26.1 204 204 204
43.4 -47.0 25.3 204 204 204
45.6 -48.7 26.2 205 205 205
46.2 -48.7 26.2 205 205 205
26.9 -24.5 13.2 203 203 203
27.1 -24.4 13.1 169 169 169
-11.5 -23.8 13.0 47 47 47
-11.1 -23.7 12.9 85 85 85
-10.8 -23.7 12.9 33 32 30
-10.6 -23.8 13.0 54 54 54
-10.3 -23.9 13.0 182 182 182
-10.0 -23.8 13.0 182 185 184
-9.7 -23.8 13.0 182 185 184
44.5 -50.3 27.4 206 206 206
43.4 -48.3 26.3 203 203 203
44.7 -48.5 26.4 206 206 206
44.0 -47.0 25.6 204 204 204
45.3 -47.8 26.1 204 204 204
45.9 -47.7 26.0 204 204 204
45.1 -46.3 25.2 204 204 204
128.9 -66.1 36.0 172 172 172
-11.6 -23.8 13.1 80 80 80
-10.5 -24.0 13.3 182 185 184
-10.2 -24.0 13.2 181 184 183
44.7 -49.8 27.5 205 205 205
43.7 -48.1 26.5 205 205 205
44.9 -48.7 26.9 205 205 205
45.7 -48.9 27.0 206 206 206
45.9 -48.5 26.8 203 203 203
45.8 -47.7 26.3 203 203 203
46.1 -47.4 26.2 203 203 203
45.7 -46.4 25.6 204 204 204
39.2 -38.2 21.1 204 204 204
123.9 -62.8 34.6 172 172 172
106.1 -53.1 29.3 161 164 163
-11.1 -24.3 13.6 56 57 55
-10.6 -24.0 13.4 182 185 184
-10.2 -23.8 13.3 180 183 182
45.4 -50.0 28.0 205 205 205
44.4 -48.2 26.9 205 205 205
47.5 -50.1 28.0 205 205 205
47.2 -49.2 27.5 205 205 205
46.8 -48.1 26.9 205 205 205
46.6 -47.3 26.4 206 206 206
39.9 -38.9 21.7 203 203 203
40.0 -38.5 21.5 203 203 203
40.5 -38.6 21.6 204 204 204
122.8 -61.4 34.3 172 172 172
104.3 -51.5 28.8 161 164 163
-11.2 -24.1 13.7 57 57 57
-10.7 -23.9 13.5 181 184 183
45.2 -48.4 27.4 204 204 204
48.3 -49.7 28.1 205 205 205
47.7 -48.4 27.4 205 205 205
47.2 -47.2 26.8 205 205 205
40.6 -39.1 22.2 205 205 205
40.6 -38.6 21.9 206 206 206
41.2 -38.6 21.9 206 206 206
41.9 -38.8 22.0 203 203 203
109.7 -53.8 30.5 172 172 172
102.9 -50.1 28.4 164 167 166
-11.2 -23.9 13.7 47 48 47
41.4 -39.3 22.6 205 205 205
41.4 -38.9 22.3 205 205 205
41.9 -38.8 22.3 205 205 205
42.6 -39.0 22.4 205 205 205
44.5 -39.7 22.8 206 206 206
102.0 -49.0 28.1 164 167 166
96.7 -46.2 26.5 161 164 163
-11.3 -23.7 13.8 39 39 39
56.0 -55.3 32.2 207 207 207
42.1 -38.9 22.7 205 205 205
42.2 -38.6 22.5 205 205 205
43.0 -38.8 22.6 205 205 205
44.5 -39.3 22.8 205 205 205
44.9 -39.1 22.7 205 205 205
101.1 -48.0 27.9 168 168 168
61.5 -60.7 35.8 207 207 207
61.1 -59.5 35.1 207 207 207
43.0 -39.3 23.2 205 205 205
42.8 -38.6 22.8 205 205 205
43.5 -38.7 22.8 205 205 205
46.3 -40.8 24.0 208 208 208
45.9 -39.9 23.5 208 208 208
-11.5 -25.7 15.4 179 182 181
0.9 -16.8 10.0 194 194 194
4.4 -16.9 10.1 175 175 175
5.6 -16.9 10.1 209 212 211
8.0 -16.9 10.1 207 207 207
8.2 -16.9 10.1 204 204 204
8.4 -16.9 10.1 208 211 210
8.9 -16.9 10.1 208 211 210
9.1 -16.9 10.1 208 211 210
9.6 -16.9 10.1 206 206 206
9.8 -16.8 10.1 206 206 206
10.3 -16.9 10.1 206 206 206
11.2 -16.8 10.0 206 206 206
11.4 -16.8 10.0 206 206 206
11.9 -16.9 10.1 206 206 206
12.2 -16.9 10.1 206 206 206
13.6 -16.9 10.1 205 205 205
13.8 -16.8 10.1 205 205 205
14.5 -16.9 10.1 205 205 205
14.8 -17.0 10.1 205 205 205
66.0 -64.3 38.4 206 206 206
61.8 -59.3 35.5 206 206 206
43.6 -39.2 23.5 207 207 207
43.3 -38.5 23.0 207 207 207
43.9 -38.6 23.1 207 207 207
45.5 -39.5 23.6 208 208 208
46.0 -39.5 23.6 208 208 208
46.5 -39.4 23.6 208 208 208
-11.5 -25.4 15.4 181 184 183
0.9 -16.6 10.1 193 193 193
1.1 -16.6 10.1 191 191 191
4.5 -16.8 10.2 176 176 176
5.4 -16.8 10.2 208 211 210
5.6 -16.7 10.1 209 212 211
5.8 -16.6 10.1 209 212 211
8.3 -16.8 10.2 206 206 206
8.5 -16.7 10.2 208 211 210
9.8 -16.7 10.1 206 206 206
10.5 -16.7 10.1 206 206 206
12.0 -16.7 10.1 206 206 206
12.3 -16.8 10.2 206 206 206
14.9 -16.8 10.2 205 205 205
15.0 -16.6 10.1 205 205 205
67.8 -65.1 39.5 208 211 210
64.4 -61.0 37.0 208 211 210
43.7 -38.3 23.2 207 207 207
44.2 -38.3 23.2 207 207 207
45.8 -39.2 23.8 207 207 207
-11.6 -25.3 15.6 184 187 186
-11.8 -26.4 16.3 177 177 177
-11.3 -26.3 16.2 158 161 160
70.3 -66.6 40.9 207 210 209
66.6 -62.3 38.3 207 210 209
-27.8 -17.5 10.9 60 60 60
-23.0 -17.6 11.0 75 76 74
-11.8 -26.1 16.3 179 179 179
-11.4 -26.0 16.2 159 162 161
-11.1 -26.2 16.3 156 159 158
84.1 -40.6 25.3 182 185 184
80.1 -38.4 23.9 182 185 184
78.4 -37.3 23.3 183 186 185
55.0 -24.2 15.1 168 170 169
-23.3 -17.6 11.1 69 71 69
-12.6 -25.8 16.3 187 189 189
-12.1 -25.7 16.3 186 188 187
-11.8 -25.8 16.3 178 178 178
-11.4 -25.8 16.3 166 166 166
-11.1 -25.9 16.4 159 162 161
-10.7 -25.8 16.4 155 158 157
42.2 -31.5 20.0 188 188 188
84.0 -39.9 25.3 183 186 185
83.1 -39.3 24.9 183 186 185
78.9 -37.0 23.4 184 187 186
57.2 -24.9 15.8 175 175 175
55.6 -24.1 15.2 169 171 170
54.7 -23.6 14.9 162 162 162
-12.4 -25.8 16.6 186 186 186
-12.0 -25.7 16.5 181 181 181
-11.6 -25.8 16.6 169 169 169
-11.2 -25.8 16.6 166 166 166
4.4 -15.7 10.1 205 205 205
42.3 -31.2 20.0 185 185 185
78.1 -36.1 23.2 186 188 187
57.7 -24.8 15.9 172 174 174
56.1 -23.9 15.4 170 172 172
55.4 -23.5 15.1 161 161 161
-12.1 -26.6 17.3 174 176 176
42.3 -30.7 20.0 189 189 189
78.3 -35.7 23.3 187 189 189
83.6 -37.0 24.2 185 185 185
80.9 -35.6 23.2 185 185 185
58.0 -24.6 16.0 173 175 175
56.7 -23.8 15.5 169 169 169
55.8 -23.3 15.2 163 163 163
-12.8 -28.5 18.9 173 173 173
42.1 -30.1 20.0 189 189 189
78.4 -35.2 23.3 188 190 190
83.5 -36.4 24.1 186 186 186
60.2 -25.1 16.6 174 176 176
57.6 -23.9 15.8 168 168 168
-28.6 -17.5 11.8 39 39 39
-13.4 -28.5 19.1 176 179 178
-12.9 -28.4 19.1 175 175 175
42.4 -29.8 20.1 190 190 190
41.6 -28.9 19.5 192 192 192
41.8 -28.8 19.4 192 192 192
76.7 -33.9 22.8 189 191 191
77.1 -33.8 22.7 190 192 192
83.0 -35.6 24.0 188 188 188
80.6 -34.4 23.1 188 188 188
-17.4 -17.6 12.0 29 29 29
-17.0 -17.5 11.9 29 29 29
-16.5 -17.6 12.0 30 29 29
-16.2 -17.6 12.0 45 47 46
-15.9 -17.5 12.0 81 83 80
-15.6 -17.5 12.0 131 134 133
-15.3 -17.5 12.0 147 147 147
-15.1 -17.6 12.0 42 43 42
-14.8 -17.6 12.0 45 47 46
-14.6 -17.6 12.0 72 73 71
-14.3 -17.6 12.0 99 99 99
-13.6 -28.4 19.4 177 177 177
-13.2 -28.5 19.5 174 174 174
83.2 -34.9 23.9 189 189 189
83.1 -34.7 23.7 186 186 186
-28.9 -16.9 11.7 163 163 163
-28.6 -16.8 11.7 183 183 183
-28.3 -16.8 11.7 176 176 176
-28.0 -16.8 11.7 124 126 125
-27.8 -16.8 11.7 68 68 68
-27.5 -16.8 11.7 77 77 77
-27.2 -16.8 11.7 75 76 76
-13.7 -28.1 19.5 173 173 173
-13.3 -28.2 19.6 178 178 178
84.1 -34.7 24.1 190 190 190
84.0 -34.5 23.9 190 190 190
83.4 -34.0 23.6 190 190 190
-28.6 -16.6 11.7 180 183 182
-25.9 -15.1 10.7 172 174 174
-27.8 -16.6 11.7 142 144 143
-25.1 -15.1 10.7 137 137 137
-24.8 -15.1 10.7 80 82 79
-24.6 -15.1 10.7 75 76 76
-14.2 -15.1 10.7 36 35 34
-13.8 -28.0 19.8 165 165 165
-13.3 -27.9 19.7 162 162 162
13.4 -15.4 10.9 207 210 209
16.3 -15.4 10.8 205 208 207
16.6 -15.3 10.8 205 208 207
83.0 -33.5 23.7 191 191 191
81.8 -32.8 23.2 189 189 189
81.6 -32.3 22.8 186 186 186
-25.2 -14.9 10.7 194 194 194
-24.9 -14.9 10.7 197 197 197
-13.8 -29.5 21.2 178 178 178
133.7 -103.0 73.9 207 210 209
141.0 -107.1 76.9 208 211 210
143.3 -107.6 77.2 208 211 210
81.2 -32.3 23.2 190 190 190
80.2 -31.6 22.7 190 190 190
79.8 -31.3 22.5 190 190 190
80.7 -31.5 22.6 190 190 190
-32.9 -16.0 11.7 129 129 129
-28.6 -16.0 11.7 124 127 126
-28.3 -16.0 11.7 166 169 168
-28.0 -16.0 11.7 206 206 206
-27.8 -16.0 11.7 107 109 109
-25.6 -16.0 11.7 119 119 119
-19.6 -16.0 11.7 221 221 221
-18.8 -16.1 11.7 220 220 220
-16.9 -16.0 11.7 36 36 36
-16.6 -16.0 11.7 27 27 27
-16.1 -16.0 11.7 29 29 29
-15.8 -16.0 11.7 38 38 38
-13.6 -16.0 11.7 75 76 74
-12.5 -16.0 11.7 26 26 26
-15.4 -31.2 22.7 180 180 180
-14.8 -31.0 22.6 182 185 184
-14.4 -31.3 22.9 156 156 156
134.3 -101.6 74.2 207 210 209
136.5 -102.0 74.5 207 210 209
142.8 -105.4 76.9 208 211 210
76.7 -31.2 22.8 193 196 195
77.1 -31.2 22.7 194 197 196
81.2 -31.9 23.3 193 193 193
80.8 -31.6 23.0 193 193 193
80.4 -31.2 22.8 191 191 191
80.7 -31.1 22.7 191 191 191
81.4 -31.2 22.8 185 185 185
81.6 -31.0 22.7 178 181 180
-32.9 -15.7 11.7 110 112 111
-32.6 -15.7 11.7 45 45 45
-32.4 -15.7 11.7 26 26 26
-32.1 -15.7 11.7 19 23 20
-31.8 -15.7 11.7 19 23 20
-31.5 -15.7 11.7 20 23 21
-31.3 -15.7 11.7 19 23 20
-31.0 -15.7 11.7 26 26 26
-30.7 -15.7 11.7 41 41 41
-30.5 -15.7 11.7 75 75 75
-30.2 -15.7 11.7 80 82 79
-29.9 -15.7 11.7 155 154 152
-29.6 -15.7 11.7 165 168 167
-29.4 -15.7 11.7 160 163 162
-28.8 -15.7 11.7 170 171 170
-28.5 -15.7 11.7 200 200 200
-28.3 -15.7 11.7 147 147 147
-28.0 -15.7 11.7 108 110 110
-27.7 -15.7 11.7 62 62 62
-27.5 -15.7 11.7 64 65 63
-27.2 -15.7 11.7 45 45 45
-26.9 -15.7 11.7 29 31 29
-26.6 -15.7 11.7 68 70 68
-26.4 -15.8 11.7 91 91 91
-26.2 -15.8 11.7 86 86 86
-25.9 -15.8 11.7 79 81 79
-25.6 -15.7 11.7 110 110 110
-25.2 -15.6 11.6 112 112 112
-25.0 -15.7 11.7 101 100 98
-24.8 -15.8 11.7 18 22 19
-24.5 -15.7 11.7 18 22 19
-24.2 -15.7 11.7 29 31 29
-24.0 -15.8 11.7 46 46 46
-23.7 -15.7 11.7 57 57 55
-23.4 -15.7 11.7 61 61 61
-23.1 -15.8 11.7 59 59 59
-22.8 -15.7 11.7 58 58 56
-22.5 -15.7 11.7 58 58 56
-22.3 -15.7 11.7 55 55 55
-22.0 -15.7 11.7 49 49 49
-21.8 -15.7 11.7 18 22 19
-21.4 -15.7 11.7 47 47 47
-21.2 -15.7 11.6 56 56 56
-20.9 -15.7 11.7 75 76 76
-20.7 -15.7 11.7 157 157 157
-20.4 -15.7 11.7 170 171 170
-20.1 -15.7 11.7 177 180 179
-19.8 -15.7 11.7 181 181 181
-19.5 -15.7 11.7 188 188 188
-19.3 -15.7 11.7 198 201 200
-19.0 -15.7 11.7 203 203 203
-18.8 -15.8 11.7 214 214 214
-18.5 -15.7 11.7 209 209 209
-17.7 -15.7 11.7 72 72 72
-17.5 -15.8 11.7 42 42 42
-17.1 -15.7 11.7 74 74 74
-16.9 -15.7 11.7 111 111 111
-16.6 -15.8 11.7 107 107 105
-16.3 -15.7 11.7 109 109 107
-16.1 -15.7 11.7 34 33 32
-15.8 -15.7 11.7 43 45 44
-15.5 -15.7 11.7 118 120 119
-15.2 -15.7 11.7 36 36 36
-15.0 -15.7 11.7 34 33 32
-14.7 -15.7 11.7 37 38 37
-14.4 -15.7 11.7 37 38 37
-14.2 -15.7 11.7 106 106 104
-13.9 -15.8 11.7 38 38 38
-13.6 -15.7 11.7 35 35 35
-13.3 -15.7 11.6 93 92 91
-12.5 -15.7 11.7 27 27 27
-12.2 -15.7 11.6 27 27 27
-12.0 -15.7 11.7 32 31 30
-11.7 -15.7 11.7 29 30 28
-11.4 -15.7 11.7 112 112 112
-16.3 -32.4 24.0 179 179 179
145.7 -108.4 80.5 207 210 209
144.5 -106.2 78.8 207 210 209
146.3 -106.2 78.8 207 210 209
245.2 -175.7 130.5 208 211 210
209.3 -148.1 110.0 212 213 212
154.4 -108.0 80.2 208 211 210
173.5 -79.9 59.3 207 207 207
78.1 -31.5 23.4 196 199 198
77.7 -31.1 23.1 194 197 196
77.7 -30.9 22.9 195 198 197
82.3 -31.8 23.6 194 194 194
81.6 -31.3 23.3 194 194 194
81.3 -31.0 23.0 192 192 192
81.8 -31.0 23.0 190 190 190
82.5 -31.1 23.1 190 190 190
82.9 -31.0 23.0 177 177 177
-32.7 -15.4 11.6 68 70 68
-32.5 -15.4 11.6 68 70 68
-32.0 -15.4 11.6 24 24 24
-31.7 -15.4 11.6 20 23 21
-28.4 -15.4 11.6 121 121 121
-28.2 -15.4 11.6 164 164 164
-27.9 -15.4 11.6 107 107 107
-27.5 -15.4 11.6 45 45 45
-27.2 -15.3 11.6 45 45 45
-27.0 -15.3 11.6 26 26 26
-26.7 -15.3 11.6 18 22 19
-26.6 -15.4 11.6 13 13 13
-26.3 -15.4 11.7 110 110 110
-26.0 -15.4 11.7 139 139 139
-25.9 -15.5 11.7 67 67 67
-25.5 -15.4 11.6 67 67 67
-25.0 -15.3 11.6 18 22 19
-23.0 -15.4 11.6 54 54 54
-22.5 -15.4 11.6 57 57 55
-22.2 -15.4 11.6 55 55 55
-21.3 -15.3 11.6 42 42 42
-21.0 -15.3 11.6 53 53 53
-20.8 -15.3 11.6 55 55 55
-20.5 -15.3 11.6 49 49 49
-20.3 -15.4 11.6 175 175 175
-20.0 -15.3 11.6 182 185 184
-19.7 -15.3 11.6 200 202 202
-19.4 -15.3 11.6 206 206 206
-19.1 -15.3 11.6 205 208 207
-18.8 -15.3 11.6 211 211 211
-18.7 -15.4 11.7 211 211 211
-18.4 -15.4 11.6 194 197 196
-17.9 -15.2 11.5 160 160 160
-17.8 -15.3 11.6 24 24 24
-17.6 -15.4 11.6 26 26 26
-17.4 -15.5 11.7 42 44 43
-17.0 -15.4 11.6 15 15 15
-16.8 -15.4 11.6 38 38 38
-16.6 -15.4 11.7 98 97 95
-16.2 -15.4 11.6 122 122 122
-15.9 -15.3 11.6 41 41 41
-15.7 -15.3 11.6 42 44 43
-15.5 -15.4 11.6 98 97 95
-15.2 -15.4 11.6 33 33 31
-14.9 -15.4 11.6 30 31 30
-14.6 -15.4 11.6 36 36 36
-14.4 -15.4 11.6 38 38 38
-14.1 -15.4 11.6 91 91 91
-13.5 -15.4 11.6 74 75 73
-13.2 -15.3 11.5 66 67 65
-12.2 -15.3 11.6 26 26 26
-11.9 -15.4 11.6 31 30 29
-11.6 -15.4 11.6 27 29 27
-11.3 -15.3 11.6 140 140 140
-17.7 -33.4 25.2 183 183 183
-16.6 -32.5 24.6 179 179 179
-16.3 -33.0 24.9 170 171 170
-16.7 -35.0 26.5 158 158 158
156.1 -111.3 84.1 207 210 209
255.8 -180.1 136.1 207 210 209
200.0 -139.1 105.1 208 211 210
162.7 -111.8 84.4 208 211 210
777.4 -521.6 394.1 212 213 212
170.3 -77.0 58.2 190 192 192
78.8 -31.0 23.4 192 192 192
82.9 -31.5 23.8 180 183 182
82.7 -31.2 23.6 180 183 182
82.8 -31.1 23.5 183 186 185
83.6 -31.1 23.5 180 180 180
83.3 -30.8 23.3 180 180 180
84.6 -31.1 23.5 168 168 168
85.2 -31.1 23.5 164 164 164
-32.0 -14.8 11.4 77 77 77
-31.9 -14.9 11.4 67 67 67
-31.6 -14.9 11.4 47 47 47
-31.3 -14.8 11.4 29 31 29
-31.1 -14.9 11.4 35 35 35
-30.9 -14.9 11.4 26 26 26
-30.6 -14.9 11.4 41 41 41
-30.3 -14.9 11.4 132 135 134
-30.1 -14.9 11.4 132 135 134
-29.8 -14.9 11.4 59 59 59
-29.5 -14.9 11.4 24 24 24
-29.3 -14.9 11.4 105 105 105
-29.0 -14.9 11.4 191 194 193
-27.7 -14.9 11.4 184 184 184
-27.4 -14.9 11.4 96 96 96
-27.1 -14.9 11.4 51 51 51
-26.9 -14.9 11.4 29 31 29
-26.6 -14.9 11.4 18 22 19
-26.3 -14.9 11.4 18 22 19
-26.1 -14.9 11.4 24 24 24
-25.8 -14.9 11.4 18 22 19
-25.1 -14.9 11.5 86 88 88
-24.7 -14.8 11.4 127 127 127
-24.4 -14.8 11.4 163 163 163
-24.0 -14.8 11.4 49 49 49
-23.4 -14.8 11.4 15 15 15
-23.1 -14.8 11.4 18 22 19
-22.9 -14.9 11.4 17 17 17
-22.6 -14.9 11.4 44 43 42
-22.4 -14.9 11.4 48 48 48
-22.1 -14.9 11.4 54 54 54
-21.8 -14.8 11.4 53 52 52
-21.0 -14.8 11.4 40 42 42
-20.7 -14.8 11.4 53 52 52
-20.4 -14.8 11.4 55 55 55
-20.2 -14.8 11.4 58 59 59
-19.9 -14.8 11.4 55 55 55
-19.7 -14.8 11.4 158 158 158
-19.4 -14.8 11.4 197 197 197
-19.1 -14.8 11.4 198 198 198
-18.8 -14.8 11.4 206 209 208
-18.6 -14.8 11.4 205 208 207
-18.4 -14.9 11.5 206 209 208
-18.1 -14.8 11.4 157 157 157
-17.7 -14.8 11.4 77 79 77
-17.3 -14.8 11.4 28 28 28
-17.1 -14.9 11.5 77 79 77
-16.8 -14.9 11.4 105 105 103
-16.5 -14.9 11.4 118 118 118
-16.2 -14.9 11.4 85 86 84
-15.9 -14.8 11.4 122 122 122
-15.7 -14.9 11.4 33 33 31
-15.4 -14.9 11.4 42 44 43
-15.2 -14.9 11.4 120 120 120
-13.4 -14.9 11.5 117 117 117
-13.1 -14.9 11.4 34 34 34
-12.0 -14.9 11.4 26 26 26
-11.5 -14.9 11.5 96 96 96
-11.2 -14.8 11.4 124 127 126
-10.9 -14.8 11.4 105 105 105
-18.0 -33.5 25.8 181 181 181
-17.0 -32.6 25.1 160 160 160
-16.6 -33.0 25.4 88 88 88
-16.6 -34.3 26.4 89 89 89
178.3 -128.1 98.5 210 210 210
257.7 -178.2 137.1 207 210 209
210.5 -143.8 110.6 208 211 210
146.0 -64.4 49.5 194 197 196
84.1 -31.4 24.1 181 184 183
83.7 -31.0 23.9 178 178 178
83.5 -30.7 23.6 174 174 174
85.0 -31.1 23.9 167 167 167
84.6 -30.7 23.6 158 158 158
86.2 -31.1 23.9 151 151 151
87.4 -31.4 24.1 139 141 140
87.9 -31.3 24.1 137 137 137
-17.0 -33.3 26.1 90 90 90
-16.9 -34.2 26.8 89 91 90
662.6 -455.8 356.9 214 214 214
345.2 -234.5 183.7 211 211 211
686.5 -439.2 343.9 212 213 212
143.8 -62.3 48.8 57 57 57
83.6 -31.9 25.0 188 188 188
87.0 -32.1 25.2 183 186 185
85.6 -31.4 24.6 179 179 179
84.8 -30.9 24.2 179 179 179
87.0 -30.9 24.2 128 131 130
89.2 -31.5 24.6 131 134 133
89.6 -31.4 24.6 131 134 133
72.7 -24.8 19.4 129 129 129
72.8 -24.7 19.3 127 127 127
72.4 -24.4 19.1 127 127 127
-73.6 -39.7 31.6 24 24 24
-71.8 -39.1 31.2 24 24 24
-61.8 -39.6 31.6 6 11 7
-17.3 -34.3 27.4 89 91 90
548.7 -370.6 295.6 210 210 210
359.2 -239.6 191.1 211 211 211
686.5 -431.2 343.9 212 213 212
90.9 -31.5 25.1 115 117 116
91.7 -31.5 25.2 120 120 120
73.5 -24.6 19.6 120 120 120
72.9 -24.3 19.4 123 123 123
72.5 -24.0 19.1 126 126 126
71.8 -23.6 18.9 126 126 126
-76.0 -38.3 31.1 70 70 70
-75.5 -38.4 31.2 57 57 57
-73.3 -37.6 30.6 33 32 30
-72.4 -37.5 30.5 29 31 29
-72.9 -38.5 31.3 17 21 18
-70.3 -37.5 30.5 17 21 18
-71.0 -38.3 31.1 17 21 18
-70.6 -38.5 31.3 152 152 152
-68.3 -37.6 30.6 155 155 155
-68.3 -38.4 31.2 152 152 152
-65.6 -38.5 31.3 173 173 173
-64.1 -38.1 31.0 102 102 102
-62.4 -37.5 30.5 121 121 121
-61.7 -37.5 30.5 138 140 139
-60.7 -38.2 31.1 11 11 11
-58.9 -37.5 30.5 15 15 15
-59.4 -38.3 31.1 34 34 34
-56.4 -38.2 31.1 53 53 53
-55.8 -38.3 31.1 53 53 53
-55.1 -38.3 31.1 53 53 53
-54.3 -38.3 31.1 52 52 52
-53.6 -38.3 31.1 52 52 52
-52.9 -38.3 31.1 52 52 52
-52.2 -38.3 31.1 49 49 49
-51.4 -38.3 31.1 47 48 47
-50.7 -38.3 31.1 35 35 35
-50.0 -38.3 31.1 25 25 25
-49.3 -38.3 31.1 25 25 25
-48.5 -38.3 31.1 85 87 87
-46.8 -38.6 31.4 124 126 125
-45.7 -38.3 31.1 71 71 71
-44.0 -37.5 30.5 32 31 30
-43.0 -37.2 30.3 106 106 104
-18.4 -37.3 30.3 86 86 86
-17.8 -37.6 30.6 79 81 80
474.6 -314.6 255.6 214 214 214
355.6 -232.8 189.2 214 214 214
503.4 -310.4 252.2 216 216 216
91.1 -31.0 25.2 111 111 111
92.5 -31.2 25.4 112 112 112
93.2 -31.2 25.4 112 112 112
73.1 -23.9 19.4 111 111 111
72.6 -23.6 19.2 115 115 115
71.9 -23.2 18.9 128 128 128
-86.0 -36.9 30.6 90 90 90
-85.9 -37.4 31.0 155 155 155
-85.1 -37.4 31.0 105 105 103
-84.1 -37.6 31.2 171 173 173
-81.8 -36.9 30.6 204 207 206
-82.0 -37.3 30.9 145 145 144
-79.8 -37.3 30.9 123 123 123
-78.7 -37.1 30.8 67 68 66
-76.1 -37.6 31.2 69 69 69
-74.6 -37.2 30.8 60 60 60
-73.3 -36.9 30.6 38 38 38
-72.4 -36.8 30.5 27 27 27
-73.9 -37.9 31.4 24 24 24
-71.8 -37.3 30.9 17 17 17
-70.2 -36.8 30.5 17 21 18
-69.8 -37.0 30.6 25 25 25
-69.6 -37.2 30.8 115 117 116
-68.2 -36.8 30.5 148 148 148
-67.5 -36.8 30.5 130 130 130
-67.0 -37.0 30.6 148 150 150
-66.3 -37.0 30.6 134 134 134
-66.7 -37.6 31.2 180 180 180
-65.5 -37.8 31.3 148 150 150
-63.4 -37.0 30.6 148 148 148
-62.3 -36.7 30.4 146 146 146
-61.6 -36.7 30.4 107 109 109
-61.8 -37.3 30.9 93 92 91
-60.6 -37.4 31.0 25 25 25
-58.9 -36.8 30.5 38 40 40
-59.1 -37.4 31.0 47 47 47
-58.1 -37.2 30.8 43 42 41
-56.6 -37.1 30.8 44 44 44
-55.5 -36.9 30.6 53 53 53
-54.8 -36.9 30.6 53 53 53
-54.2 -37.0 30.6 53 53 53
-53.4 -37.0 30.6 51 51 51
-52.7 -37.0 30.6 53 53 53
-52.0 -37.0 30.6 51 51 51
-51.3 -37.0 30.6 49 49 49
-50.6 -37.0 30.6 44 43 42
-49.9 -37.0 30.6 35 35 35
-49.2 -37.0 30.6 27 29 27
-48.5 -37.0 30.6 25 25 25
-47.8 -37.0 30.6 82 83 81
-47.0 -36.9 30.6 18 22 19
-47.1 -37.6 31.1 18 22 19
-46.4 -37.6 31.1 18 22 19
-45.7 -37.6 31.1 18 22 19
-44.0 -36.8 30.5 25 25 25
-43.0 -36.5 30.3 119 119 119
-42.6 -36.8 30.5 33 33 33
-41.8 -37.3 30.9 62 64 61
-40.5 -36.8 30.5 45 45 45
-39.6 -36.7 30.4 31 30 29
-20.9 -37.2 30.8 128 131 130
-19.6 -36.2 30.0 94 94 94
-19.0 -36.4 30.1 92 92 92
-18.4 -36.5 30.3 67 67 67
-17.8 -36.8 30.5 53 53 53
-17.1 -36.8 30.5 29 29 29
509.0 -331.0 274.1 214 214 214
317.5 -203.9 168.9 214 214 214
629.3 -380.7 315.3 216 216 216
91.3 -30.4 25.2 107 107 107
92.8 -30.7 25.5 108 110 110
73.0 -23.4 19.4 107 107 107
72.9 -23.3 19.3 90 92 91
-90.1 -37.9 32.0 106 106 104
-89.1 -37.8 31.9 155 155 155
-88.2 -37.7 31.8 48 48 48
-87.4 -37.7 31.8 105 105 103
-86.8 -37.8 31.9 177 177 177
-86.1 -37.8 31.9 209 209 209
-85.2 -37.7 31.8 169 169 169
-84.8 -37.8 32.0 184 184 184
-84.2 -37.9 32.0 188 190 190
-83.3 -37.8 32.0 200 200 200
-82.1 -37.6 31.8 178 181 180
-81.1 -37.5 31.7 70 70 70
-80.8 -37.7 31.8 75 75 75
-78.8 -37.8 32.0 75 77 75
-77.8 -37.7 31.8 75 77 75
-77.1 -37.7 31.8 66 66 66
-76.1 -37.6 31.7 34 34 34
-75.3 -37.6 31.7 33 32 30
-75.2 -37.9 32.0 27 27 27
-74.2 -37.8 31.9 19 23 20
-72.9 -37.5 31.6 24 24 24
-72.6 -37.7 31.8 25 25 25
-72.1 -37.8 32.0 112 112 112
-70.8 -37.5 31.7 148 150 150
-70.5 -37.8 31.9 148 150 150
-69.6 -37.6 31.8 148 148 148
-68.7 -37.6 31.7 148 148 148
-68.4 -37.8 32.0 140 140 140
-68.0 -38.0 32.1 131 131 131
-66.9 -37.8 32.0 115 117 116
-65.6 -37.5 31.7 126 128 127
-64.4 -37.2 31.4 133 133 133
-64.2 -37.5 31.7 123 123 123
-63.9 -37.8 31.9 102 101 99
-63.4 -38.0 32.1 34 34 34
-62.2 -37.6 31.8 38 40 40
-61.1 -37.5 31.6 51 51 51
-60.5 -37.5 31.7 53 53 53
-60.1 -37.7 31.8 44 43 42
-59.5 -37.8 32.0 18 22 19
-58.7 -37.8 31.9 47 48 47
-57.7 -37.6 31.8 53 53 53
-57.0 -37.6 31.8 53 53 53
-56.3 -37.7 31.8 53 53 53
-55.6 -37.7 31.8 53 53 53
-54.9 -37.7 31.8 53 53 53
-54.1 -37.7 31.8 51 51 51
-53.4 -37.7 31.8 49 49 49
-52.6 -37.7 31.8 47 48 47
-51.9 -37.7 31.8 39 41 41
-51.2 -37.7 31.8 34 34 34
-50.4 -37.7 31.8 29 30 28
-49.4 -37.5 31.6 77 79 77
-48.9 -37.6 31.8 25 25 25
-48.5 -37.9 32.0 57 56 55
-47.6 -37.8 32.0 90 90 90
-46.6 -37.6 31.8 129 129 129
-45.6 -37.4 31.6 128 128 128
-45.1 -37.6 31.7 112 114 113
-44.4 -37.6 31.8 27 29 27
-43.8 -37.7 31.8 34 34 34
-42.8 -37.5 31.7 72 72 72
-42.1 -37.5 31.7 155 155 155
-41.4 -37.6 31.7 112 112 112
-40.7 -37.6 31.8 39 41 41
-21.6 -37.7 31.8 128 130 129
-20.6 -37.4 31.6 97 97 97
-19.7 -37.1 31.3 93 93 93
-18.9 -36.8 31.1 79 79 79
-18.3 -37.1 31.3 37 38 37
-17.6 -37.1 31.3 31 33 33
17.1 -13.5 11.4 208 208 208
326.2 -205.5 173.5 214 214 214
45.9 -22.5 19.0 195 195 195
45.9 -22.3 18.8 193 193 193
46.1 -22.2 18.7 170 171 170
51.6 -16.7 14.1 101 103 103
-101.8 -43.1 37.1 123 123 123
-100.8 -43.0 37.0 204 204 204
-99.7 -42.9 36.9 134 136 135
-99.1 -43.0 37.0 134 136 135
-98.6 -43.1 37.2 186 188 187
-97.1 -42.9 36.9 189 191 191
-88.9 -43.5 37.5 103 102 100
-87.2 -43.1 37.1 103 103 103
-85.8 -42.8 36.9 66 66 66
-79.3 -43.0 37.0 120 120 120
-78.3 -42.9 36.9 97 97 97
-77.2 -42.8 36.9 116 118 117
-76.4 -42.8 36.9 121 121 121
-67.5 -43.1 37.2 53 53 53
-66.5 -43.1 37.1 57 56 55
-65.6 -43.1 37.1 57 56 55
-64.8 -43.1 37.1 53 53 53
-63.9 -43.1 37.1 58 58 58
-63.0 -43.1 37.1 57 56 55
-62.2 -43.1 37.1 61 61 61
-61.3 -43.1 37.1 59 59 59
-60.5 -43.1 37.1 49 49 49
-57.6 -42.9 36.9 41 41 41
-55.7 -42.7 36.8 54 54 54
-55.1 -42.9 36.9 18 22 19
-54.6 -43.2 37.2 23 23 23
-54.1 -43.5 37.5 52 52 52
-20.8 -38.3 33.0 96 99 98
-18.7 -37.2 32.1 92 92 92
45.5 -21.9 18.9 195 195 195
45.7 -21.8 18.7 190 190 190
45.9 -21.7 18.7 171 173 173
51.9 -16.4 14.1 97 97 97
52.6 -16.5 14.2 90 90 90
-99.5 -43.0 37.8 187 189 189
-89.6 -43.4 38.1 35 35 35
-26.5 -13.6 12.0 177 180 179
-26.0 -13.5 11.9 177 180 179
-81.5 -43.3 38.1 181 181 181
-80.6 -43.3 38.1 169 171 170
-79.3 -43.0 37.8 176 179 178
-22.5 -15.3 13.4 62 62 62
16.4 -12.2 10.7 211 211 211
45.1 -21.0 18.5 195 195 195
45.5 -21.0 18.5 171 173 173
52.2 -16.2 14.2 79 81 80
53.2 -16.4 14.4 73 73 73
53.5 -16.4 14.4 69 68 67
-31.4 -12.4 11.1 70 70 70
-31.2 -12.4 11.2 143 145 144
-26.8 -12.4 11.2 161 161 161
-26.5 -12.4 11.2 153 153 153
-26.2 -12.4 11.2 163 163 163
-26.0 -12.4 11.2 175 177 177
-25.7 -12.4 11.2 187 186 185
-25.4 -12.4 11.2 134 137 136
-25.2 -12.4 11.2 14 14 14
-24.9 -12.4 11.2 7 13 9
-24.7 -12.4 11.2 13 13 13
-24.4 -12.5 11.3 85 85 85
-23.9 -12.4 11.2 141 141 141
-23.5 -12.4 11.1 141 141 141
-23.3 -12.4 11.1 26 26 26
-23.1 -12.4 11.1 24 24 24
-22.4 -12.4 11.2 60 60 60
-22.1 -12.4 11.2 54 54 54
-21.7 -12.4 11.1 62 62 62
-20.3 -12.4 11.2 153 153 153
-20.1 -12.5 11.2 160 160 160
-19.7 -12.4 11.2 84 85 83
-19.4 -12.4 11.1 53 52 52
-19.1 -12.4 11.1 85 87 87
-18.8 -12.5 11.2 139 141 140
-18.5 -12.5 11.2 163 166 165
-18.2 -12.5 11.2 227 227 227
-17.9 -12.4 11.1 230 230 230
-17.7 -12.4 11.2 227 227 227
-17.4 -12.4 11.1 227 227 227
-17.0 -12.3 11.1 222 222 222
53.3 -16.1 14.4 73 73 73
53.6 -16.1 14.4 73 73 73
-26.2 -12.2 11.2 146 148 148
-26.0 -12.2 11.2 92 92 92
-25.7 -12.2 11.2 129 129 129
-25.5 -12.2 11.2 134 137 136
-25.2 -12.2 11.2 18 22 19
-25.0 -12.2 11.2 18 22 19
-24.9 -12.4 11.4 18 22 19
-24.5 -12.4 11.3 18 22 19
-23.9 -12.2 11.2 103 103 103
-23.5 -12.1 11.1 116 118 117
-23.3 -12.2 11.1 107 109 109
-23.1 -12.2 11.1 128 130 129
-22.1 -12.2 11.2 58 59 59
-21.7 -12.1 11.1 67 67 67
-20.1 -12.2 11.2 77 79 77
-19.7 -12.2 11.2 67 67 67
-19.5 -12.2 11.1 91 91 91
-19.1 -12.1 11.1 195 195 195
-18.8 -12.2 11.2 208 211 210
-18.6 -12.3 11.3 224 224 224
-18.4 -12.3 11.3 232 232 232
-18.0 -12.2 11.2 234 234 234
-17.4 -12.2 11.2 232 232 232
362.8 -210.6 193.0 217 217 217
-29.7 -11.3 10.6 150 150 150
-24.8 -11.3 10.6 106 106 106
-24.6 -11.3 10.6 147 147 147
-24.3 -11.3 10.6 144 144 144
-24.1 -11.3 10.6 137 139 138
-23.8 -11.3 10.6 17 17 17
-23.6 -11.3 10.6 26 26 26
13.9 -10.7 10.0 214 214 214
366.6 -208.3 195.0 217 217 217
-32.6 -56.1 53.7 109 109 109
-30.9 -55.2 52.8 14 14 14
662.6 -372.9 356.9 216 216 216
-32.7 -55.0 53.9 113 114 113
-31.1 -54.4 53.3 31 33 33
-33.7 -55.4 55.5 115 114 114
-31.6 -53.9 54.0 49 50 48
-31.2 -55.5 55.6 18 18 18
-30.0 -55.7 55.8 153 153 153
-37.7 -60.5 62.0 118 118 118
-37.8 -63.2 64.8 44 45 43
175.6 -82.0 84.1 183 183 183
151.9 -70.1 71.9 193 193 193
-44.0 -66.4 69.8 100 102 102
-40.2 -65.5 68.8 31 31 31
-39.3 -66.7 70.1 21 21 21
-37.4 -66.2 69.5 159 159 159
178.8 -81.5 85.6 182 182 182
156.1 -70.3 73.9 192 192 192
-43.5 -69.1 74.5 26 25 24
-41.1 -68.1 73.3 23 24 23
-38.1 -65.8 70.8 159 162 161
-38.0 -68.6 73.9 180 180 180
21.5 -12.4 13.4 218 221 220
188.2 -83.6 90.1 183 183 183
145.3 -63.9 68.8 189 189 189
-48.9 -75.8 83.7 28 28 28
-46.3 -74.8 82.6 23 24 23
-42.2 -71.1 78.5 158 158 158
21.3 -12.1 13.3 218 221 220
145.3 -62.3 68.8 179 179 179
-61.7 -93.2 105.7 23 24 23
-53.8 -84.7 96.0 35 34 33
21.2 -11.9 13.5 218 221 220
21.4 -11.8 13.4 218 221 220
20.5 -11.0 12.5 218 221 220
144.8 -60.4 68.5 169 171 170
143.3 -58.5 66.4 199 199 199
157.1 -57.9 65.7 205 205 205
-80.6 -118.6 138.1 28 28 28
173.6 -257.8 300.3 224 226 226
20.7 -10.9 12.7 218 221 220
20.6 -10.8 12.5 218 221 220
146.9 -59.7 69.5 174 176 176
149.0 -59.3 69.0 199 199 199
164.5 -59.1 68.8 205 205 205
-66.9 -26.7 32.0 148 150 150
-65.4 -26.4 31.6 122 124 123
-63.4 -25.9 31.0 181 180 178
-53.5 -26.3 31.5 59 59 59
140.2 -202.6 242.5 224 226 226
20.6 -10.6 12.7 218 221 220
20.5 -10.4 12.4 218 221 220
152.5 -60.3 72.2 174 176 176
172.6 -67.5 80.8 195 195 195
157.7 -61.0 73.0 197 197 197
177.7 -62.7 75.1 202 202 202
169.4 -59.2 70.8 205 205 205
-69.6 -26.7 32.8 148 150 150
-67.6 -26.2 32.3 135 135 135
-66.2 -26.0 32.0 137 139 138
-65.1 -25.8 31.8 168 170 169
-54.0 -25.8 31.8 58 58 58
-53.7 -26.0 32.0 58 58 58
-52.4 -26.1 32.2 30 29 29
-51.6 -26.1 32.1 25 25 25
-50.9 -26.1 32.1 32 33 31
20.2 -10.0 12.3 222 224 224
20.1 -9.8 12.0 222 224 224
20.3 -9.7 12.0 218 221 220
155.5 -59.8 73.6 175 177 177
157.1 -59.1 72.8 197 197 197
177.7 -61.0 75.1 202 202 202
168.1 -57.1 70.3 205 205 205
-70.1 -26.4 33.5 121 123 122
-67.4 -25.7 32.6 134 134 134
-65.9 -25.4 32.2 173 173 173
-53.2 -26.1 33.1 28 28 28
-51.5 -25.6 32.5 32 33 31
20.4 -9.8 12.4 218 221 220
20.0 -9.4 12.0 218 221 220
20.2 -9.4 11.9 218 221 220
149.0 -54.5 69.0 202 202 202
166.9 -55.1 69.8 205 205 205
-72.0 -26.3 34.4 120 120 120
20.0 -9.2 12.0 218 221 220
20.2 -9.2 11.9 218 221 220
150.1 -53.3 69.5 191 191 191
20.1 -8.9 12.0 218 221 220
20.3 -8.9 12.0 218 221 220
273.3 -93.0 125.3 195 195 195
-26.4 -8.6 11.9 74 74 74
-26.0 -8.5 11.9 77 78 76
-11.2 -8.7 12.0 45 45 45
-10.8 -8.5 11.9 44 44 44
18.8 -7.9 10.9 219 222 221
18.9 -7.8 10.9 219 222 221
385.2 -128.4 178.5 185 185 185
290.7 -95.8 133.2 192 192 192
18.8 -7.6 10.9 219 222 221
18.9 -7.6 10.9 219 222 221
294.8 -94.0 135.1 194 194 194
-189.4 -49.3 73.3 38 40 40
-184.8 -48.6 72.2 44 44 44
-186.0 -49.3 73.3 69 71 69
-167.1 -46.4 69.0 55 55 55
-172.0 -48.8 72.5 59 59 57
-158.8 -45.5 67.6 61 61 61
19.0 -7.4 11.0 219 222 221
19.0 -7.4 10.9 219 222 221
364.6 -113.6 168.9 181 181 181
296.9 -91.6 136.1 192 192 192
291.7 -89.0 132.3 194 194 194
281.0 -84.8 126.1 195 195 195
261.3 -78.1 116.1 195 195 195
-187.9 -49.9 76.9 33 32 30
-169.6 -45.5 70.1 25 25 25
-177.5 -48.6 74.8 29 29 29
18.8 -7.1 10.9 219 222 221
18.9 -7.0 10.9 219 222 221
408.3 -122.9 189.2 174 176 176
223.0 -64.3 99.0 197 197 197
-311.4 -80.6 128.7 54 54 54
-143.9 -38.3 61.2 55 55 55
43.5 -58.9 94.1 221 221 221
18.8 -6.9 10.9 220 223 222
195.6 -58.7 93.6 172 172 172
218.4 -61.4 98.0 192 192 192
217.3 -60.4 96.5 195 195 195
176.3 -46.6 74.5 202 202 202
166.3 -43.6 69.5 205 205 205
-313.6 -78.1 129.6 71 72 70
-257.6 -64.8 107.5 71 72 70
37.6 -46.8 77.5 225 225 225
18.8 -6.6 11.0 220 223 222
19.0 -6.6 10.9 220 223 222
179.3 -47.5 78.8 196 196 196
175.0 -44.6 73.9 202 202 202
168.1 -42.4 70.3 205 205 205
177.7 -43.5 72.2 234 236 236
-320.2 -76.7 132.3 73 73 73
-249.1 -60.3 103.9 74 74 74
-204.1 -49.9 86.0 75 75 75
37.9 -45.3 78.2 225 225 225
68.8 -45.3 78.2 220 220 220
70.3 -45.1 77.8 220 220 220
74.3 -45.3 78.2 215 215 215
75.8 -45.1 77.8 214 214 214
80.0 -45.5 78.5 203 203 203
81.9 -45.5 78.5 82 84 84
84.0 -45.7 78.8 75 76 76
85.2 -45.3 78.2 75 75 75
87.3 -45.5 78.5 71 71 71
18.8 -6.4 11.0 222 224 224
19.0 -6.3 10.9 222 224 224
19.3 -6.4 11.0 222 224 224
174.8 -48.5 83.7 175 177 177
161.1 -44.2 76.3 92 95 94
178.2 -45.9 79.1 196 196 196
179.3 -45.7 78.8 196 196 196
180.4 -45.5 78.5 198 198 198
183.7 -45.9 79.1 198 198 198
184.0 -45.5 78.5 202 202 202
180.6 -44.2 76.3 202 202 202
176.7 -42.8 73.9 205 205 205
182.7 -43.9 75.7 199 199 199
185.9 -44.2 76.3 235 235 235
183.3 -43.2 74.5 236 236 236
185.7 -43.4 74.8 105 105 105
197.6 -45.7 78.8 59 61 60
198.6 -45.5 78.5 64 64 64
198.8 -45.1 77.8 60 63 62
-324.7 -74.7 134.2 73 73 73
-211.8 -49.7 89.2 74 74 74
41.4 -49.9 89.7 224 224 224
39.2 -45.0 80.8 226 226 226
73.4 -46.4 83.3 220 220 220
75.0 -46.2 83.0 218 218 218
78.6 -47.2 84.8 215 215 215
79.5 -46.6 83.7 215 215 215
80.7 -46.2 83.0 209 212 211
83.0 -46.4 83.3 192 192 192
89.6 -46.8 84.1 67 67 65
92.0 -47.0 84.4 68 68 68
22.9 -7.5 13.5 222 224 224
19.0 -6.1 11.0 221 221 221
178.8 -47.6 85.6 188 188 188
190.1 -47.0 84.4 196 196 196
189.6 -46.4 83.3 196 196 196
190.7 -46.2 83.0 196 196 196
196.0 -47.0 84.4 198 198 198
195.4 -46.4 83.3 202 202 202
190.6 -44.8 80.5 205 205 205
197.5 -46.0 82.6 205 205 205
203.0 -46.8 84.1 194 194 194
201.4 -46.0 82.6 232 232 232
203.3 -46.0 82.6 235 235 235
207.9 -46.6 83.7 100 102 102
209.9 -46.6 83.7 71 73 73
211.8 -46.6 83.7 64 64 64
205.6 -44.8 80.5 60 63 62
44.4 -51.2 96.0 221 221 221
22.8 -7.2 13.5 222 224 224
201.6 -51.5 96.5 166 169 168
220.7 -52.8 99.0 192 192 192
224.2 -53.1 99.6 193 193 193
216.4 -49.2 92.3 202 202 202
37.5 -39.4 77.2 224 224 224
194.7 -47.5 93.2 172 172 172
219.5 -50.3 98.5 192 192 192
220.7 -50.0 98.0 194 194 194
218.5 -48.0 94.1 202 202 202
213.2 -46.4 90.9 203 203 203
213.3 -45.9 90.1 203 203 203
218.5 -46.6 91.4 205 205 205
222.8 -47.1 92.3 203 203 203
237.7 -49.7 97.5 227 230 229
237.5 -49.2 96.5 225 227 227
37.8 -37.9 77.8 222 222 222
188.2 -43.9 90.1 174 174 174
210.1 -44.1 90.5 199 199 199
207.3 -43.0 88.4 199 199 199
200.0 -41.1 84.4 203 203 203
215.4 -43.9 90.1 205 205 205
215.4 -43.4 89.2 198 198 198
219.6 -43.9 90.1 219 219 219
223.8 -44.3 90.9 225 225 225
222.7 -43.2 88.8 65 65 65
218.6 -42.1 86.4 65 65 65
220.6 -42.1 86.4 68 68 68
234.4 -44.3 90.9 62 64 64
223.6 -41.9 86.0 60 63 62
37.3 -35.6 76.9 224 224 224
216.4 -42.8 92.3 199 199 199
233.6 -43.2 93.2 48 48 48
230.1 -42.2 90.9 61 64 63
617.1 -77.6 239.4 58 58 58
761.7 -88.9 295.6 58 58 58
750.0 -80.8 291.0 58 58 58
696.4 -68.8 270.2 58 58 58
427.7 -38.0 164.5 58 59 59
439.2 -35.1 168.9 67 69 68
477.9 -34.2 185.5 73 73 73
435.3 -30.9 167.4 75 76 76
638.1 -36.8 199.1 64 64 64
754.8 -47.7 295.6 63 65 65
535.7 -33.6 207.9 75 76 76
435.3 -27.0 167.4 78 78 78
682.1 -35.9 222.5 55 54 53
602.3 -31.5 195.0 52 52 52
613.1 -31.8 197.0 54 53 52
743.0 -37.7 233.5 77 77 77
606.2 -30.5 189.2 62 62 62
847.5 -45.9 331.9 64 66 66
492.4 -26.4 191.1 73 73 73
435.3 -23.1 167.4 68 70 69
1174.3 -53.3 386.0 58 58 58
596.1 -26.7 193.0 50 50 50
631.5 -27.2 197.0 72 71 69
929.0 -41.8 363.8 64 66 66
609.4 -27.2 236.5 72 72 72
455.4 -20.1 175.2 66 68 67
935.2 -35.1 305.1 56 55 54
447.2 -15.8 172.0 66 66 66
1159.6 -34.7 378.3 53 52 52
966.2 -25.9 378.3 68 71 70
447.2 -11.8 172.0 67 69 68
90.0 0.0 25.2 82 81 79
90.2 0.0 25.1 206 206 206
93.6 0.0 25.7 144 144 144
93.3 0.0 25.4 100 100 100
786.3 7.5 305.1 47 48 47
89.6 0.6 25.1 102 102 102
89.7 0.6 24.9 204 204 204
92.3 0.6 25.2 100 100 100
92.8 0.6 24.7 86 86 86
1006.4 18.8 394.1 43 43 43
706.5 13.1 274.1 47 46 45
88.1 1.2 24.6 120 120 120
88.1 1.2 24.5 204 204 204
87.6 1.1 24.0 133 133 133
88.5 1.2 24.1 93 96 95
92.1 1.2 24.6 86 86 86
91.0 1.2 24.2 86 86 86
89.3 1.1 23.6 85 84 82
86.2 1.7 23.5 94 97 96
89.2 1.7 23.7 87 87 87
87.5 1.6 23.1 84 83 81
86.8 1.6 22.8 170 171 170
82.7 2.1 22.3 87 86 84
81.9 2.1 21.9 88 88 88
87.7 2.2 23.3 90 90 90
86.3 2.1 22.8 87 86 84
84.4 2.1 22.2 172 172 172
82.8 2.6 22.4 88 88 88
82.8 2.6 22.3 87 86 84
82.1 2.6 21.9 87 86 84
85.6 2.7 22.8 92 92 92
85.9 2.7 22.7 90 90 90
83.9 2.6 22.0 161 161 161
82.5 3.2 22.8 147 147 147
82.8 3.2 22.7 122 122 122
83.4 3.2 22.7 96 99 98
83.8 3.2 22.7 87 87 85
84.1 3.2 22.6 87 87 85
83.5 3.1 22.3 87 87 85
85.5 3.2 22.7 90 90 90
86.1 3.2 22.7 89 89 89
85.0 3.1 22.3 131 131 131
86.9 3.2 22.7 177 177 177
84.1 3.8 23.1 114 116 115
84.3 3.8 23.0 96 96 96
84.8 3.7 22.8 86 85 83
86.0 3.7 22.8 91 91 91
86.2 3.7 22.8 96 96 96
86.0 3.7 22.6 110 110 110
88.7 3.8 23.2 176 179 178
86.2 4.3 22.8 96 96 96
104.7 5.8 27.5 81 81 81
105.4 5.8 27.5 174 174 174
-3.6 3.3 12.7 132 135 134
-3.3 3.3 12.7 120 122 121
-3.6 3.6 12.8 131 134 133
-3.3 3.6 12.8 123 123 123
-3.6 3.9 12.8 131 133 132
-3.3 3.9 12.8 126 126 126
-3.0 3.9 12.8 126 126 126
-19.8 4.2 12.9 19 23 20
-20.2 4.5 13.0 17 17 17
-19.8 4.5 12.9 19 19 19
-2.8 4.5 13.0 154 156 156
-20.6 4.8 12.8 16 16 16
-20.3 4.8 12.8 14 14 14
-20.1 4.8 12.9 16 16 16
-19.6 4.8 12.8 18 18 18
-2.7 4.8 12.9 168 170 169
-2.4 4.7 12.7 134 134 134
-2.1 4.7 12.6 124 124 124
-20.7 5.1 12.9 9 14 10
-20.1 5.1 12.9 9 14 10
-2.4 5.0 12.7 136 136 136
-2.1 5.0 12.6 135 135 135
-20.7 5.4 12.9 9 14 10
-20.2 5.4 12.9 9 14 10
-2.8 5.4 13.0 154 154 154
-2.4 5.3 12.7 148 148 148
-2.1 5.3 12.6 166 166 166
-2.4 5.6 12.7 185 185 185
-2.1 5.6 12.6 190 190 190
-81.6 31.1 55.6 107 107 107
-78.0 30.2 54.0 109 111 111
-78.4 30.8 55.1 115 115 115
-32.0 32.0 57.1 159 159 159
-29.8 31.0 55.5 141 143 142
-116.2 35.9 61.6 100 102 102
-341.4 137.7 236.5 121 123 122
-172.6 172.1 295.6 157 160 159
-33.5 34.8 59.7 161 161 161
-31.2 33.8 58.0 153 155 155
-699.1 168.5 278.2 134 134 134
-692.7 168.5 278.2 128 131 130
-707.0 173.6 286.6 128 130 129
-689.9 171.0 282.3 128 131 130
-676.8 171.0 282.3 128 131 130
-650.8 166.0 274.1 127 127 127
-494.7 141.4 233.5 102 104 104
-653.1 190.9 315.3 115 115 115
-569.8 168.5 278.2 121 123 122
-429.8 138.0 227.9 115 115 115
-414.5 134.8 222.5 109 109 109
-447.8 187.8 310.1 134 136 135
-356.4 168.5 278.2 74 74 74
-32.7 35.4 58.4 164 164 164
-30.2 34.0 56.1 164 164 164
-15.6 30.9 51.0 235 235 235
128.8 187.8 310.1 64 64 64
101.2 139.7 230.7 67 67 67
-2.4 97.4 90.9 203 205 205
-0.2 85.1 79.5 204 204 204
-37.8 431.0 394.1 207 207 207
-2.4 99.5 90.9 203 205 205
-0.2 86.9 79.5 204 207 206
-2.6 108.9 97.5 204 207 206
26.3 440.2 394.1 205 205 205
2.3 12.4 10.1 196 199 198
75.1 41.5 30.2 215 215 215
73.5 40.3 29.3 209 209 209
74.5 41.8 30.0 216 216 216
73.3 40.8 29.2 218 218 218
71.2 39.3 28.1 141 141 141
71.9 40.7 28.7 202 202 202
71.1 39.9 28.1 156 159 158
28.2 18.5 12.0 71 70 69
28.5 18.5 12.0 162 165 164
27.8 18.7 12.0 218 218 218
28.1 18.7 12.0 77 77 77
28.5 18.7 12.0 148 150 150
28.0 18.9 11.9 88 88 88
28.3 18.9 12.0 146 146 146
