ply
format ascii 1.0
element vertex 3304
property float x
property float y
property float z
property uchar red
property uchar green
property uchar blue
end_header
162.8 -359.6 143.3 162 162 162
166.1 -359.6 143.3 162 162 162
170.7 -362.3 144.4 162 162 162
175.4 -365.1 145.5 162 162 162
173.5 -354.2 141.2 162 162 162
171.6 -343.9 137.1 160 160 160
190.0 -373.7 148.9 160 160 160
186.1 -359.6 143.3 160 160 160
181.2 -343.9 137.1 160 160 160
104.9 -174.5 69.5 156 159 158
105.7 -173.2 69.0 161 161 161
108.1 -174.5 69.5 161 161 161
110.1 -175.1 69.8 157 160 159
111.7 -175.1 69.8 154 156 156
114.2 -176.4 70.3 155 158 157
53.5 -76.2 30.4 157 160 159
54.2 -76.1 30.3 157 160 159
69.6 -49.1 19.6 92 92 92
70.0 -49.1 19.6 95 98 97
70.6 -49.2 19.6 90 90 90
70.9 -49.1 19.6 114 116 115
71.4 -49.1 19.6 179 182 181
71.6 -48.9 19.5 196 199 198
72.1 -49.0 19.5 195 195 195
73.0 -49.3 19.6 179 182 181
73.6 -49.4 19.7 165 168 167
74.2 -49.5 19.7 165 168 167
74.5 -49.4 19.7 206 206 206
74.7 -49.2 19.6 208 208 208
75.2 -49.2 19.6 206 206 206
96.2 -229.4 92.3 164 164 164
97.9 -228.3 91.8 162 162 162
123.9 -265.7 106.9 162 162 162
125.0 -262.7 105.7 162 162 162
130.6 -264.2 106.3 162 162 162
116.1 -230.5 92.7 162 162 162
122.6 -230.5 92.7 162 162 162
137.5 -233.9 94.1 161 161 161
135.0 -226.1 90.9 156 159 158
121.0 -193.5 77.8 156 159 158
145.6 -229.4 92.3 157 160 159
144.9 -225.0 90.5 157 160 159
54.0 -76.1 30.6 157 160 159
54.4 -75.7 30.5 157 160 159
56.1 -77.1 31.0 158 161 160
57.0 -77.3 31.1 158 161 160
57.4 -76.8 30.9 159 162 161
69.6 -49.0 19.7 94 94 94
70.0 -49.0 19.7 92 92 92
70.5 -49.0 19.7 92 92 92
71.1 -49.1 19.7 95 98 97
71.4 -49.0 19.7 179 182 181
71.8 -49.0 19.7 154 154 154
72.2 -48.9 19.7 196 199 198
72.7 -48.9 19.7 196 199 198
74.7 -49.3 19.8 193 193 193
74.9 -49.2 19.8 206 206 206
75.1 -49.0 19.7 208 208 208
75.5 -49.0 19.7 196 199 198
51.4 -188.6 76.6 163 163 163
53.2 -188.6 76.6 163 163 163
54.7 -187.8 76.3 166 166 166
58.8 -189.4 76.9 167 167 167
60.3 -188.6 76.6 167 167 167
62.1 -188.6 76.6 167 167 167
64.1 -189.4 76.9 167 167 167
65.6 -188.6 76.6 167 167 167
61.7 -172.5 70.1 167 167 167
68.1 -185.6 75.4 167 167 167
75.5 -190.9 77.5 164 164 164
76.0 -187.8 76.3 164 164 164
78.4 -189.4 76.9 164 164 164
80.2 -189.4 76.9 164 164 164
75.0 -173.2 70.3 162 162 162
83.1 -187.8 76.3 160 160 160
85.6 -189.4 76.9 162 162 162
87.4 -189.4 76.9 162 162 162
81.8 -173.8 70.6 162 162 162
83.5 -173.8 70.6 162 162 162
84.8 -173.2 70.3 162 162 162
93.7 -187.8 76.3 162 162 162
96.7 -190.1 77.2 162 162 162
88.7 -171.3 69.5 162 162 162
99.1 -187.8 76.3 162 162 162
103.3 -192.5 78.2 162 162 162
95.3 -174.5 70.8 162 162 162
111.5 -194.1 78.8 163 163 163
101.5 -173.8 70.6 161 161 161
115.7 -194.9 79.1 161 161 161
115.6 -191.7 77.8 161 161 161
104.5 -170.6 69.3 161 161 161
114.0 -180.6 73.3 156 159 158
116.6 -182.0 73.9 162 162 162
125.1 -192.5 78.2 162 162 162
115.1 -174.5 70.8 163 163 163
55.1 -77.0 31.3 157 160 159
55.2 -76.1 30.9 157 160 159
57.4 -78.2 31.7 158 161 160
59.1 -79.4 32.2 158 161 160
59.2 -78.6 31.9 159 162 161
62.3 -78.7 32.0 160 163 162
57.6 -39.9 16.2 92 92 92
57.7 -39.7 16.1 92 92 92
57.9 -39.6 16.1 92 92 92
58.0 -39.4 16.0 193 193 193
58.4 -39.4 16.0 156 156 156
58.6 -39.3 16.0 196 199 198
59.0 -39.4 16.0 196 199 198
60.3 -40.0 16.2 212 213 212
60.1 -39.6 16.1 169 169 169
60.0 -39.3 15.9 162 165 164
60.5 -39.4 16.0 218 218 218
60.9 -39.3 16.0 179 182 181
67.7 -127.1 52.1 162 162 162
66.9 -123.4 50.6 162 162 162
94.9 -172.2 70.6 162 162 162
56.4 -77.9 32.0 160 163 162
56.9 -77.7 31.8 160 163 162
61.1 -82.4 33.8 161 164 163
62.5 -83.1 34.1 158 161 160
62.7 -82.4 33.8 159 162 161
63.6 -82.5 33.8 159 162 161
67.9 -87.1 35.7 159 162 161
67.7 -85.8 35.2 160 163 162
65.3 -81.7 33.5 160 163 162
57.3 -39.1 16.0 94 94 94
57.5 -39.0 16.0 94 94 94
57.2 -38.5 15.8 196 199 198
57.2 -38.3 15.7 149 151 151
57.7 -38.3 15.7 200 202 202
57.7 -38.1 15.6 195 195 195
59.6 -39.1 16.0 196 199 198
59.6 -38.9 15.9 215 215 215
59.2 -38.4 15.7 212 213 212
60.0 -38.6 15.8 196 199 198
60.2 -38.6 15.8 193 193 193
28.0 -112.6 46.6 163 163 163
28.7 -111.2 46.0 166 166 166
29.8 -111.2 46.0 166 166 166
30.9 -111.2 46.0 166 166 166
32.0 -111.2 46.0 168 170 169
33.0 -111.2 46.0 166 166 166
34.1 -111.2 46.0 166 166 166
35.2 -111.2 46.0 167 167 167
36.1 -110.9 45.9 167 167 167
37.5 -111.7 46.3 167 167 167
38.5 -111.5 46.1 167 167 167
39.4 -110.9 45.9 164 164 164
41.2 -113.1 46.8 167 167 167
41.6 -111.2 46.0 167 167 167
42.4 -110.7 45.8 167 167 167
44.3 -112.6 46.6 164 164 164
44.8 -111.2 46.0 164 164 164
45.2 -109.6 45.4 164 164 164
61.0 -111.5 46.1 165 165 165
60.3 -108.3 44.8 165 165 165
54.3 -84.5 35.0 166 166 166
54.7 -83.7 34.6 167 167 167
60.6 -86.4 35.8 166 166 166
60.4 -84.9 35.2 166 166 166
59.1 -82.1 34.0 165 165 165
58.9 -80.7 33.4 167 167 167
60.0 -81.2 33.6 165 165 165
61.3 -81.8 33.8 166 166 166
62.5 -82.3 34.1 161 164 163
63.2 -82.2 34.0 162 165 164
64.1 -82.3 34.1 159 162 161
66.7 -84.6 35.0 159 162 161
67.0 -84.0 34.8 160 163 162
66.3 -82.2 34.0 160 163 162
54.7 -36.2 15.0 159 159 159
55.8 -36.5 15.1 196 199 198
58.4 -37.7 15.6 169 169 169
58.2 -37.4 15.5 212 213 212
43.5 -104.5 43.7 167 167 167
55.9 -99.5 41.6 170 172 172
102.6 -162.8 68.0 169 169 169
54.9 -83.2 34.8 170 171 170
61.1 -80.8 33.8 168 168 168
61.6 -80.4 33.6 168 168 168
120.7 -155.5 65.0 167 167 167
31.5 -25.5 10.7 111 113 112
31.6 -25.5 10.6 110 112 111
53.1 -34.8 14.6 145 145 144
52.9 -34.5 14.4 193 193 193
53.5 -34.4 14.4 179 182 181
54.8 -34.4 14.4 218 218 218
54.7 -96.4 40.7 173 175 175
102.2 -160.7 67.8 171 173 173
91.9 -142.3 60.1 171 173 173
52.8 -80.5 34.0 171 173 173
53.4 -80.2 33.8 172 174 174
54.3 -80.3 33.9 172 174 174
427.8 -567.4 239.4 170 171 170
31.9 -25.8 10.9 115 115 115
31.7 -25.5 10.8 111 113 112
50.9 -32.9 13.9 173 173 173
49.4 -31.7 13.4 196 199 198
51.7 -32.8 13.8 182 185 184
52.5 -32.6 13.8 218 218 218
19.9 -77.6 33.1 168 170 169
20.7 -77.6 33.1 168 170 169
21.4 -77.6 33.1 168 170 169
22.2 -77.6 33.1 166 166 166
23.0 -77.6 33.1 166 166 166
23.7 -77.6 33.1 166 166 166
24.5 -77.6 33.1 168 170 169
25.3 -77.6 33.1 167 167 167
26.0 -77.6 33.1 169 171 170
26.8 -77.6 33.1 169 171 170
27.5 -77.5 33.0 169 171 170
45.8 -78.6 33.5 173 175 175
46.2 -77.9 33.2 183 183 183
47.2 -78.3 33.4 179 179 179
48.2 -78.7 33.5 179 179 179
49.0 -78.7 33.5 181 181 181
49.3 -77.9 33.2 171 173 173
51.5 -79.0 33.7 179 179 179
51.3 -77.5 33.0 179 179 179
52.1 -77.5 33.0 180 180 180
53.5 -78.4 33.4 182 182 182
177.6 -256.6 109.3 175 177 177
174.1 -248.0 105.7 176 179 178
59.1 -75.6 32.2 176 179 178
42.0 -26.3 11.2 208 208 208
42.0 -26.2 11.2 215 215 215
42.5 -26.3 11.2 218 218 218
42.6 -26.2 11.2 218 218 218
-9.2 -24.8 10.7 147 149 149
-9.0 -24.8 10.7 147 149 149
-7.7 -24.8 10.7 143 143 142
-7.2 -24.8 10.7 140 140 140
-7.0 -24.8 10.7 142 144 143
-4.5 -24.9 10.7 137 137 137
-4.3 -24.8 10.7 135 135 135
-4.0 -24.8 10.7 139 139 139
46.9 -78.3 33.7 200 200 200
47.5 -77.9 33.5 197 197 197
48.8 -78.8 33.9 200 200 200
49.4 -78.5 33.8 197 197 197
49.9 -78.1 33.6 200 200 200
51.7 -78.5 33.8 200 200 200
51.1 -76.4 32.9 197 197 197
50.2 -74.0 31.8 198 198 198
54.1 -78.5 33.8 202 202 202
54.9 -78.5 33.8 202 202 202
177.1 -249.7 107.5 199 199 199
169.9 -236.3 101.7 203 203 203
60.0 -76.0 32.7 202 202 202
40.3 -24.9 10.7 190 190 190
40.7 -25.0 10.7 208 208 208
41.4 -25.3 10.9 218 218 218
41.3 -25.0 10.8 218 218 218
-10.8 -24.8 10.8 155 155 155
47.8 -80.4 35.0 204 204 204
47.2 -78.0 33.9 204 204 204
47.0 -76.5 33.2 204 204 204
50.0 -80.0 34.8 204 204 204
49.4 -77.7 33.8 204 204 204
48.8 -75.5 32.8 204 204 204
51.8 -77.8 33.8 204 204 204
51.0 -75.4 32.8 204 204 204
49.5 -72.1 31.4 205 205 205
54.1 -77.7 33.8 205 205 205
54.9 -77.7 33.8 205 205 205
177.1 -247.2 107.5 205 205 205
167.2 -230.2 100.1 206 206 206
60.1 -75.4 32.8 205 205 205
39.4 -24.1 10.5 188 188 188
39.5 -24.0 10.4 179 182 181
40.8 -24.5 10.6 218 218 218
20.8 -75.8 33.3 204 204 204
21.6 -75.8 33.3 202 202 202
22.4 -75.8 33.3 202 202 202
23.1 -75.8 33.3 204 204 204
25.5 -76.0 33.4 204 204 204
26.1 -75.6 33.2 204 204 204
26.9 -75.4 33.1 204 204 204
27.5 -75.2 33.0 204 204 204
37.3 -76.4 33.5 204 204 204
37.6 -75.3 33.1 204 204 204
42.3 -75.4 33.1 204 204 204
46.4 -77.2 33.9 206 206 206
46.8 -76.6 33.7 206 206 206
47.0 -75.6 33.2 204 204 204
48.4 -76.6 33.7 204 204 204
48.9 -76.2 33.5 204 204 204
48.9 -75.0 33.0 206 206 206
51.2 -75.0 33.0 204 204 204
53.5 -76.1 33.4 205 205 205
54.8 -76.8 33.7 205 205 205
55.5 -76.8 33.7 205 205 205
166.3 -226.7 99.6 206 206 206
59.1 -74.4 32.7 205 205 205
60.1 -74.6 32.8 205 205 205
54.7 -67.1 29.5 208 208 208
20.8 -75.2 33.4 204 204 204
21.6 -75.2 33.4 204 204 204
22.4 -75.2 33.4 204 204 204
23.2 -75.2 33.4 204 204 204
25.5 -75.2 33.4 204 204 204
26.1 -74.8 33.2 207 207 207
26.9 -74.8 33.2 207 207 207
27.6 -74.5 33.1 207 207 207
37.3 -75.6 33.5 204 204 204
37.6 -74.5 33.1 204 204 204
42.3 -74.8 33.2 206 206 206
43.1 -74.8 33.2 206 206 206
46.3 -76.3 33.8 206 206 206
46.8 -75.8 33.7 206 206 206
47.0 -74.8 33.2 206 206 206
48.2 -75.6 33.5 206 206 206
48.9 -75.4 33.5 206 206 206
48.9 -74.3 33.0 206 206 206
50.3 -75.2 33.4 206 206 206
51.7 -76.1 33.8 206 206 206
51.4 -74.5 33.1 206 206 206
53.0 -74.6 33.1 205 205 205
54.7 -75.8 33.7 205 205 205
55.6 -76.1 33.8 205 205 205
59.5 -74.1 32.9 208 208 208
59.6 -73.2 32.5 208 208 208
20.3 -75.3 33.8 207 207 207
21.0 -75.1 33.7 207 207 207
21.8 -75.1 33.7 207 207 207
22.6 -75.2 33.7 207 207 207
23.4 -75.2 33.7 206 206 206
25.8 -75.2 33.7 206 206 206
26.5 -74.9 33.6 206 206 206
27.2 -74.8 33.5 206 206 206
37.6 -75.3 33.8 206 206 206
43.9 -75.3 33.8 206 206 206
46.8 -79.0 35.4 209 209 209
48.6 -80.5 36.1 209 209 209
47.0 -75.3 33.8 206 206 206
47.5 -74.8 33.5 209 209 209
48.8 -75.7 34.0 209 209 209
49.2 -75.1 33.7 209 209 209
49.4 -74.1 33.2 209 209 209
50.7 -74.9 33.6 206 206 206
51.9 -75.6 33.9 206 206 206
51.9 -74.5 33.4 206 206 206
51.1 -72.2 32.4 206 206 206
54.9 -75.3 33.8 207 207 207
55.8 -75.6 33.9 207 207 207
56.6 -75.6 33.9 210 210 210
60.3 -73.4 32.9 207 207 207
20.3 -74.5 33.8 206 206 206
21.1 -74.5 33.8 206 206 206
21.9 -74.5 33.8 206 206 206
22.7 -74.7 33.8 206 206 206
23.5 -74.5 33.8 209 209 209
25.8 -74.4 33.7 209 209 209
26.6 -74.5 33.8 209 209 209
27.2 -74.1 33.6 209 209 209
37.6 -74.5 33.8 206 206 206
44.8 -76.2 34.5 208 208 208
46.0 -76.7 34.8 208 208 208
47.7 -78.2 35.4 208 208 208
47.2 -76.2 34.5 208 208 208
47.0 -74.5 33.8 208 208 208
47.5 -74.1 33.6 208 208 208
49.0 -75.2 34.1 208 208 208
48.8 -73.8 33.4 208 208 208
48.9 -72.7 33.0 208 208 208
50.5 -73.9 33.5 208 208 208
51.7 -74.5 33.8 208 208 208
51.9 -73.8 33.4 205 205 205
51.4 -71.9 32.6 206 206 206
51.6 -71.1 32.2 206 206 206
54.7 -74.3 33.7 206 206 206
55.7 -74.7 33.8 206 206 206
56.6 -74.8 33.9 207 207 207
44.8 -75.4 34.5 208 208 208
45.8 -75.7 34.6 208 208 208
46.9 -76.2 34.9 208 208 208
47.4 -75.7 34.6 208 208 208
47.0 -73.8 33.8 208 208 208
47.4 -73.1 33.5 208 208 208
48.8 -74.0 33.9 208 208 208
48.4 -72.3 33.1 208 208 208
47.5 -69.9 32.0 208 208 208
48.8 -70.6 32.3 208 208 208
51.4 -73.4 33.6 211 211 211
51.8 -72.7 33.3 208 208 208
50.4 -69.8 32.0 205 205 205
50.4 -68.7 31.5 205 205 205
54.5 -73.2 33.5 206 206 206
55.3 -73.2 33.5 206 206 206
55.7 -72.8 33.4 206 206 206
57.5 -74.2 34.0 206 206 206
35.3 -67.1 31.1 207 207 207
45.3 -74.0 34.3 207 207 207
47.1 -75.7 35.0 207 207 207
46.5 -73.4 34.0 207 207 207
46.3 -71.9 33.3 207 207 207
44.2 -67.4 31.2 207 207 207
48.1 -72.3 33.5 207 207 207
47.7 -70.5 32.6 207 207 207
45.9 -66.8 30.9 207 207 207
46.9 -67.2 31.1 207 207 207
49.8 -70.2 32.5 207 207 207
49.7 -69.0 32.0 207 207 207
49.2 -67.3 31.2 207 207 207
49.6 -66.9 31.0 208 208 208
49.2 -65.5 30.3 208 208 208
53.0 -69.5 32.2 205 205 205
52.5 -67.9 31.4 206 206 206
-30.2 -22.9 10.7 46 45 43
-30.0 -23.0 10.8 46 45 43
-29.8 -23.0 10.8 47 48 47
-29.5 -23.0 10.8 47 48 47
-29.3 -23.0 10.8 47 48 47
-29.0 -23.0 10.8 47 48 47
-28.8 -23.0 10.8 47 48 47
-28.5 -23.0 10.8 47 48 47
-28.3 -23.0 10.8 47 48 47
-28.1 -23.0 10.8 49 49 49
-27.8 -23.0 10.8 47 48 47
-27.6 -23.0 10.8 46 45 43
-27.3 -23.0 10.8 46 45 43
-27.0 -23.0 10.8 46 45 43
-26.8 -23.0 10.8 46 45 43
-26.6 -23.0 10.8 46 45 43
-26.3 -23.0 10.8 46 45 43
-26.0 -23.0 10.8 42 42 42
-25.8 -23.0 10.8 42 42 42
-25.5 -23.0 10.7 40 40 40
-25.3 -23.0 10.8 40 40 40
-25.1 -23.0 10.8 40 40 40
-24.8 -23.0 10.8 42 42 42
-24.5 -23.0 10.8 42 42 42
-24.3 -23.0 10.8 40 40 40
-24.0 -23.0 10.8 42 42 42
-23.8 -23.0 10.8 40 40 40
-23.6 -23.0 10.8 40 40 40
-23.3 -23.0 10.8 42 42 42
-23.0 -23.0 10.8 42 42 42
-22.8 -23.0 10.8 45 44 43
-22.8 -23.3 10.9 47 47 47
-22.5 -23.3 10.9 48 48 48
-22.1 -23.0 10.8 48 48 48
-21.8 -23.0 10.8 61 63 61
-21.5 -23.0 10.8 84 84 84
-21.3 -23.0 10.8 93 93 93
-21.0 -23.0 10.7 95 98 97
-20.8 -23.0 10.8 93 93 93
-20.8 -23.3 10.9 101 101 101
-20.3 -23.0 10.8 101 101 101
-20.0 -23.0 10.7 107 107 107
-19.8 -23.0 10.7 106 106 106
-19.5 -23.0 10.8 106 106 106
-19.3 -23.0 10.8 106 106 106
-19.0 -23.0 10.7 107 109 109
-18.8 -23.0 10.7 107 109 109
-18.5 -23.0 10.7 109 111 111
-18.2 -22.9 10.7 106 108 108
-18.0 -22.9 10.7 108 110 110
-17.8 -23.0 10.7 108 110 110
-17.6 -23.0 10.8 108 110 110
-17.3 -23.0 10.8 112 112 112
-17.0 -23.0 10.8 113 114 113
-16.8 -23.0 10.8 115 115 115
-16.5 -23.0 10.7 117 117 117
-16.3 -22.9 10.7 119 121 120
-16.0 -23.0 10.7 118 120 119
-15.8 -23.0 10.7 118 120 119
-15.5 -22.9 10.7 118 120 119
-15.3 -23.0 10.7 120 122 121
-15.1 -23.1 10.8 119 121 120
-14.8 -23.0 10.8 125 125 125
-14.5 -22.9 10.7 122 122 122
-14.3 -23.0 10.8 122 122 122
-10.1 -23.2 10.8 131 134 133
-9.7 -22.9 10.7 137 137 137
-9.5 -23.0 10.8 138 140 139
-9.3 -23.0 10.8 140 139 138
-9.0 -23.0 10.7 141 141 141
-8.8 -23.0 10.8 140 142 141
-8.5 -23.0 10.8 140 142 141
-8.3 -23.0 10.7 144 144 144
-8.0 -22.9 10.7 141 141 141
-7.8 -22.9 10.7 141 141 141
-7.5 -23.0 10.7 141 141 141
-7.3 -23.0 10.8 143 145 144
-7.0 -23.0 10.8 145 145 144
-6.8 -23.0 10.8 148 148 148
-6.5 -23.0 10.8 150 150 150
-6.3 -23.0 10.8 158 158 158
-5.8 -23.0 10.8 162 162 162
-5.5 -22.9 10.7 163 163 163
-5.3 -23.0 10.8 164 167 166
-4.8 -23.2 10.9 161 164 163
-4.5 -22.9 10.7 167 167 167
-4.3 -23.0 10.7 168 168 168
-4.1 -23.1 10.8 170 171 170
-3.8 -23.0 10.8 168 168 168
-3.6 -23.2 10.9 164 164 164
-3.3 -23.0 10.8 171 173 173
-3.0 -23.0 10.8 169 169 169
-2.8 -23.0 10.8 171 173 173
-2.5 -23.0 10.8 171 173 173
-2.3 -23.0 10.8 173 175 175
-2.1 -23.3 10.9 178 178 178
-1.8 -23.2 10.9 177 177 177
-1.5 -23.2 10.9 177 177 177
-1.3 -23.0 10.8 177 177 177
-1.0 -23.0 10.8 177 177 177
-0.8 -23.0 10.8 177 177 177
-0.5 -23.0 10.8 180 180 180
-0.3 -23.0 10.8 180 180 180
-0.0 -23.2 10.9 179 179 179
0.5 -23.4 10.9 176 176 176
0.7 -23.2 10.9 179 179 179
1.0 -23.0 10.8 181 181 181
1.2 -23.1 10.8 181 181 181
2.0 -23.2 10.9 178 178 178
2.2 -23.0 10.8 181 181 181
3.8 -23.2 10.9 182 182 182
4.0 -22.9 10.7 182 182 182
4.2 -22.9 10.7 182 182 182
5.7 -23.0 10.8 208 208 208
6.0 -23.0 10.8 208 208 208
6.2 -23.0 10.8 208 208 208
6.5 -23.0 10.8 207 207 207
6.8 -23.2 10.9 207 207 207
8.0 -23.2 10.8 210 210 210
8.3 -23.2 10.8 207 207 207
8.6 -23.3 10.9 207 207 207
8.7 -23.0 10.8 207 207 207
9.0 -23.0 10.8 207 207 207
9.2 -23.0 10.8 207 207 207
9.5 -23.0 10.8 207 207 207
9.7 -23.0 10.8 207 207 207
10.0 -23.0 10.8 207 207 207
10.2 -23.0 10.8 207 207 207
10.5 -23.0 10.8 207 207 207
10.7 -23.0 10.8 207 207 207
11.0 -23.0 10.8 207 207 207
11.2 -23.0 10.8 207 207 207
11.5 -23.0 10.8 207 207 207
11.7 -23.0 10.8 207 207 207
34.5 -65.0 30.4 207 207 207
35.1 -64.8 30.3 207 207 207
35.9 -64.9 30.4 207 207 207
36.6 -64.8 30.3 207 207 207
37.3 -64.8 30.3 207 207 207
43.1 -65.1 30.5 207 207 207
44.5 -66.1 30.9 207 207 207
47.7 -69.7 32.6 207 207 207
45.1 -64.9 30.4 207 207 207
45.8 -64.9 30.4 206 206 206
46.8 -65.3 30.6 206 206 206
48.3 -66.4 31.1 207 207 207
48.1 -65.2 30.5 207 207 207
48.8 -65.1 30.5 207 207 207
48.8 -64.2 30.0 207 207 207
49.9 -64.7 30.3 207 207 207
51.8 -66.3 31.0 208 208 208
52.4 -66.2 31.0 205 205 205
-30.8 -23.1 10.9 46 46 44
-30.6 -23.2 11.0 48 48 48
-30.3 -23.2 11.0 48 48 48
-30.1 -23.2 11.0 48 48 48
-29.8 -23.2 11.0 50 50 50
-29.6 -23.2 11.0 50 50 50
-29.4 -23.2 11.0 50 50 50
-29.1 -23.2 11.0 50 50 50
-28.9 -23.2 11.0 50 50 50
-28.6 -23.2 11.0 50 50 50
-28.3 -23.2 11.0 50 50 50
-28.1 -23.2 11.0 48 48 48
-27.8 -23.2 11.0 48 48 48
-27.6 -23.2 11.0 48 48 48
-27.3 -23.2 11.0 48 48 48
-27.1 -23.2 11.0 46 46 44
-26.8 -23.2 11.0 46 46 44
-26.6 -23.2 11.0 46 46 44
-26.3 -23.2 11.0 46 46 44
-26.0 -23.1 10.9 42 43 42
-25.8 -23.2 11.0 41 41 41
-25.5 -23.2 11.0 42 43 42
-25.3 -23.2 11.0 42 43 42
-25.0 -23.2 11.0 42 43 42
-24.3 -23.2 11.0 41 41 41
-24.0 -23.2 11.0 41 41 41
-23.7 -23.2 11.0 41 41 41
-23.4 -23.1 10.9 42 43 42
-23.2 -23.2 11.0 42 43 42
-23.0 -23.2 11.0 42 43 42
-22.8 -23.2 11.0 42 43 42
-22.5 -23.3 11.0 46 46 44
-22.2 -23.2 11.0 47 48 47
-21.9 -23.2 11.0 46 46 44
-21.7 -23.2 11.0 46 46 44
-21.4 -23.2 11.0 69 69 69
-21.2 -23.2 11.0 91 91 91
-21.0 -23.3 11.0 91 91 91
-20.7 -23.2 11.0 92 92 92
-20.2 -23.2 11.0 102 102 102
-19.9 -23.2 11.0 98 100 100
-19.6 -23.1 10.9 102 102 102
-18.2 -23.2 11.0 107 107 107
-17.9 -23.2 11.0 108 110 110
-17.6 -23.2 11.0 108 110 110
-17.4 -23.2 11.0 107 109 109
-17.1 -23.1 10.9 107 109 109
-16.6 -23.2 11.0 115 115 115
-16.4 -23.2 11.0 115 115 115
-16.1 -23.2 11.0 115 115 115
-15.8 -23.2 11.0 117 117 117
-15.6 -23.2 11.0 118 118 118
-15.4 -23.3 11.0 118 118 118
-15.0 -23.1 10.9 120 122 121
-10.5 -23.1 10.9 133 133 133
-10.2 -23.2 11.0 132 135 134
-9.8 -22.7 10.8 135 135 135
-9.7 -23.1 10.9 137 137 137
-9.4 -23.1 10.9 137 139 138
-9.2 -23.2 11.0 138 137 136
-9.0 -23.2 11.0 138 138 138
-8.7 -23.2 11.0 141 143 142
-7.4 -23.2 11.0 148 148 148
-7.2 -23.2 11.0 151 151 151
-4.1 -23.3 11.0 175 177 177
-3.9 -23.2 11.0 178 178 178
-3.6 -23.2 11.0 180 180 180
-3.4 -23.2 11.0 180 180 180
-3.1 -23.2 11.0 180 180 180
-2.8 -23.2 11.0 182 182 182
-2.1 -23.2 11.0 181 181 181
-1.8 -23.2 11.0 181 181 181
-1.6 -23.2 11.0 181 181 181
-1.3 -23.2 11.0 181 181 181
-1.1 -23.2 11.0 181 181 181
-0.8 -23.2 11.0 181 181 181
-0.5 -23.2 11.0 181 181 181
-0.3 -23.2 11.0 181 181 181
-0.0 -23.2 11.0 181 181 181
0.2 -23.2 11.0 181 181 181
0.5 -23.2 11.0 180 180 180
0.7 -23.1 10.9 180 180 180
3.8 -23.2 11.0 182 182 182
6.1 -23.2 11.0 207 207 207
6.3 -23.2 11.0 207 207 207
6.6 -23.2 11.0 207 207 207
6.8 -23.2 11.0 207 207 207
7.9 -23.4 11.0 207 207 207
8.1 -23.2 11.0 207 207 207
8.4 -23.2 11.0 207 207 207
8.7 -23.3 11.0 207 207 207
8.9 -23.2 11.0 210 210 210
9.1 -23.2 11.0 210 210 210
9.4 -23.2 11.0 210 210 210
9.6 -23.2 11.0 207 207 207
9.9 -23.2 11.0 207 207 207
10.2 -23.2 11.0 210 210 210
10.4 -23.2 11.0 207 207 207
10.7 -23.2 11.0 207 207 207
10.9 -23.2 11.0 207 207 207
11.2 -23.2 11.0 206 206 206
11.4 -23.1 10.9 206 206 206
11.7 -23.2 11.0 206 206 206
12.0 -23.2 11.0 206 206 206
12.2 -23.2 11.0 206 206 206
35.1 -65.3 30.9 206 206 206
43.7 -65.3 30.9 206 206 206
45.4 -66.8 31.6 206 206 206
47.5 -68.7 32.5 206 206 206
45.9 -65.3 30.9 206 206 206
46.5 -65.2 30.9 206 206 206
47.6 -65.8 31.1 206 206 206
48.6 -66.1 31.3 206 206 206
48.7 -65.2 30.9 206 206 206
49.3 -65.1 30.8 207 207 207
49.2 -64.0 30.3 207 207 207
51.0 -65.4 31.0 207 207 207
52.1 -65.9 31.2 207 207 207
53.0 -66.1 31.3 207 207 207
53.7 -66.1 31.3 205 205 205
-29.2 -23.7 11.3 51 51 51
-24.2 -23.6 11.3 39 39 39
-23.9 -23.6 11.3 39 39 39
-23.7 -23.7 11.3 37 38 37
-23.2 -23.7 11.3 42 43 42
-22.9 -23.6 11.3 42 43 42
-21.7 -23.7 11.3 52 52 52
-15.7 -23.5 11.3 115 115 115
-15.1 -23.0 11.0 116 116 116
-9.7 -22.9 11.0 127 127 127
-9.5 -23.0 11.0 128 130 129
8.1 -23.6 11.3 209 209 209
8.6 -23.7 11.3 206 206 206
8.9 -23.7 11.3 209 209 209
9.2 -23.7 11.3 209 209 209
9.4 -23.7 11.3 209 209 209
9.7 -23.7 11.3 209 209 209
9.9 -23.6 11.3 209 209 209
10.7 -23.6 11.3 209 209 209
11.0 -23.6 11.3 206 206 206
35.3 -65.0 31.1 206 206 206
46.1 -69.3 33.1 209 209 209
44.0 -65.0 31.1 209 209 209
48.3 -70.2 33.6 205 205 205
47.9 -68.5 32.8 205 205 205
46.2 -65.0 31.1 205 205 205
47.0 -65.2 31.2 205 205 205
47.7 -65.2 31.2 205 205 205
48.8 -65.6 31.4 206 206 206
48.8 -64.7 31.0 206 206 206
49.5 -64.6 30.9 206 206 206
49.1 -63.2 30.2 206 206 206
51.3 -65.0 31.1 206 206 206
52.2 -65.4 31.3 207 207 207
53.3 -65.8 31.5 207 207 207
54.1 -65.9 31.5 207 207 207
55.1 -66.1 31.6 205 205 205
-39.4 -28.9 14.0 52 52 52
-39.1 -29.0 14.0 49 49 49
-38.8 -29.0 14.0 49 49 49
-38.5 -29.0 14.0 52 52 52
-38.1 -29.0 14.0 52 52 52
-37.8 -29.0 14.0 52 52 52
-37.5 -29.0 14.0 52 52 52
-37.2 -29.0 14.0 53 53 53
-36.8 -29.0 14.0 53 53 53
-36.5 -29.0 14.0 53 53 53
-36.2 -29.0 14.0 53 53 53
-35.9 -29.0 14.0 53 53 53
-35.5 -28.9 14.0 52 52 52
-35.2 -28.9 14.0 52 52 52
-34.9 -29.0 14.0 49 49 49
-34.6 -29.0 14.0 47 46 45
-34.2 -29.0 14.0 47 46 45
-33.9 -29.0 14.0 47 46 45
-33.6 -28.9 14.0 44 44 44
-33.3 -29.0 14.0 44 44 44
-33.0 -29.0 14.0 44 44 44
-32.6 -29.0 14.0 44 44 44
-32.3 -29.0 14.0 44 44 44
-32.1 -29.1 14.1 42 43 42
-31.8 -29.1 14.1 42 43 42
-31.3 -29.0 14.0 44 44 44
-30.9 -28.9 14.0 42 43 42
-30.7 -29.0 14.0 44 44 44
-30.4 -29.0 14.0 44 44 44
-30.0 -28.9 14.0 42 43 42
-29.7 -28.9 14.0 43 43 43
-29.3 -28.9 14.0 43 43 43
-28.9 -28.9 14.0 43 43 43
-28.4 -29.0 14.0 40 40 40
-28.0 -28.9 14.0 41 41 41
-27.7 -29.0 14.0 43 43 43
-27.4 -29.0 14.0 43 43 43
-27.1 -28.9 14.0 45 45 45
-26.7 -28.9 14.0 50 50 50
-25.8 -29.0 14.0 68 70 69
-25.5 -29.0 14.0 88 88 88
-25.1 -28.9 14.0 95 95 95
-24.7 -28.9 14.0 91 94 93
-24.5 -29.0 14.0 95 95 95
-24.2 -29.0 14.0 95 95 95
-14.3 -28.9 14.0 110 112 111
-14.0 -28.8 13.9 109 111 111
-13.6 -28.8 13.9 109 111 111
-13.4 -28.9 14.0 112 112 112
-13.1 -29.0 14.0 112 112 112
-12.4 -29.0 14.0 107 107 107
-12.1 -29.0 14.0 110 110 110
-11.8 -28.9 14.0 108 108 108
-11.4 -28.9 14.0 119 119 119
-11.1 -28.9 14.0 138 138 138
-10.8 -28.9 14.0 166 166 166
-10.4 -28.9 14.0 168 170 169
-10.1 -28.8 14.0 165 168 167
-9.8 -29.0 14.0 164 164 164
-9.5 -29.1 14.1 167 167 167
-8.5 -29.1 14.1 180 180 180
-8.2 -28.9 14.0 180 183 182
-6.9 -29.0 14.0 192 192 192
-6.6 -29.0 14.0 191 191 191
-6.2 -29.0 14.0 193 193 193
-5.9 -29.0 14.0 194 194 194
-5.6 -29.0 14.0 194 194 194
-5.2 -28.9 14.0 193 193 193
-4.9 -29.0 14.0 192 192 192
-4.6 -29.0 14.0 191 191 191
-4.3 -29.0 14.0 191 191 191
-4.0 -29.0 14.0 191 191 191
-3.6 -29.0 14.0 191 191 191
-3.3 -29.0 14.0 189 189 189
-3.0 -29.0 14.0 189 189 189
-2.6 -29.0 14.0 189 189 189
-2.3 -29.0 14.0 189 189 189
-2.0 -29.0 14.0 189 189 189
-1.7 -28.9 14.0 185 185 185
-1.3 -28.9 14.0 189 189 189
-0.7 -29.0 14.0 185 185 185
-0.4 -29.0 14.0 184 184 184
-0.0 -28.9 14.0 184 184 184
0.3 -28.9 14.0 184 184 184
0.6 -29.0 14.0 184 184 184
0.9 -28.9 14.0 184 184 184
1.3 -29.0 14.0 184 184 184
1.6 -28.9 14.0 184 184 184
1.9 -28.9 14.0 184 184 184
2.2 -28.9 14.0 184 184 184
2.6 -29.0 14.0 184 184 184
2.9 -28.9 14.0 184 184 184
3.2 -28.9 14.0 184 184 184
3.5 -28.9 14.0 184 184 184
3.9 -29.0 14.0 184 184 184
4.2 -29.0 14.0 183 183 183
4.9 -29.0 14.0 180 180 180
5.2 -29.0 14.0 183 183 183
5.5 -29.0 14.0 178 178 178
5.8 -29.0 14.0 177 177 177
6.1 -29.0 14.0 175 175 175
6.5 -29.0 14.0 200 200 200
6.8 -29.0 14.0 206 206 206
7.1 -28.9 14.0 206 206 206
7.4 -28.9 14.0 206 206 206
7.8 -29.0 14.0 206 206 206
8.1 -29.1 14.1 206 206 206
8.4 -29.0 14.0 206 206 206
8.8 -29.0 14.0 206 206 206
9.1 -29.0 14.0 206 206 206
9.4 -29.0 14.0 206 206 206
9.7 -29.0 14.0 209 209 209
10.1 -29.0 14.0 209 209 209
10.4 -29.0 14.0 209 209 209
10.7 -29.0 14.0 209 209 209
11.0 -29.0 14.0 209 209 209
11.4 -29.0 14.0 209 209 209
11.7 -29.0 14.0 209 209 209
12.0 -29.0 14.0 209 209 209
12.3 -29.0 14.0 209 209 209
12.7 -29.0 14.0 209 209 209
13.0 -29.0 14.0 209 209 209
13.3 -29.0 14.0 208 208 208
13.6 -29.0 14.0 205 205 205
14.0 -29.0 14.0 205 205 205
14.3 -28.9 14.0 205 205 205
14.6 -28.9 14.0 208 208 208
15.0 -29.0 14.0 208 208 208
15.3 -29.0 14.0 208 208 208
15.6 -29.0 14.0 205 205 205
46.0 -69.5 33.6 208 208 208
46.1 -68.5 33.1 208 208 208
45.7 -66.7 32.3 208 208 208
47.7 -68.6 33.2 208 208 208
48.0 -67.9 32.8 208 208 208
47.7 -66.4 32.1 208 208 208
48.8 -67.0 32.4 205 205 205
49.8 -67.2 32.5 208 208 208
50.1 -66.6 32.2 208 208 208
49.8 -65.3 31.6 208 208 208
50.5 -65.2 31.5 205 205 205
53.0 -67.4 32.6 206 206 206
52.9 -66.4 32.1 206 206 206
53.4 -66.1 32.0 206 206 206
54.2 -66.2 32.0 206 206 206
55.1 -66.3 32.1 206 206 206
56.4 -67.0 32.4 207 207 207
142.3 -78.7 38.1 113 115 114
208.8 -114.0 55.1 105 105 105
202.4 -109.9 53.1 88 90 89
-39.7 -28.8 14.1 52 52 52
-39.4 -28.9 14.1 52 52 52
-39.1 -28.9 14.1 52 52 52
-38.8 -28.9 14.1 52 52 52
-38.4 -28.9 14.1 50 50 50
-38.1 -28.8 14.1 54 54 54
-37.7 -28.8 14.1 57 58 56
-37.4 -28.8 14.1 57 58 56
-37.1 -28.9 14.1 54 54 54
-36.8 -28.8 14.1 54 54 54
-36.4 -28.8 14.1 54 54 54
-36.1 -28.9 14.1 54 54 54
-35.8 -28.8 14.1 54 54 54
-35.4 -28.8 14.1 53 52 52
-35.2 -28.9 14.1 50 50 50
-34.8 -28.9 14.1 50 50 50
-34.5 -28.8 14.1 48 47 46
-34.1 -28.8 14.1 48 47 46
-33.8 -28.8 14.1 48 47 46
-33.5 -28.8 14.1 49 48 47
-33.2 -28.9 14.1 45 45 45
-32.9 -28.9 14.1 45 45 45
-32.5 -28.8 14.1 45 45 45
-32.3 -29.0 14.2 43 43 43
-32.0 -29.0 14.2 45 45 45
-31.5 -28.8 14.1 45 45 45
-31.1 -28.8 14.1 45 45 45
-30.9 -28.9 14.1 45 45 45
-30.6 -28.9 14.1 45 45 45
-30.2 -28.8 14.1 46 46 46
-29.9 -28.8 14.1 46 46 46
-29.5 -28.8 14.1 44 44 44
-29.2 -28.8 14.1 41 41 41
-28.6 -28.8 14.1 42 42 42
-28.2 -28.8 14.1 42 42 42
-27.9 -28.8 14.1 42 42 42
-27.6 -28.8 14.1 42 42 42
-27.2 -28.8 14.1 42 42 42
-26.9 -28.8 14.1 42 42 42
-26.6 -28.9 14.1 45 45 45
-26.3 -28.9 14.1 47 47 47
-26.0 -28.9 14.1 50 49 48
-25.7 -28.9 14.1 45 45 45
-25.2 -28.8 14.1 54 54 54
-24.9 -28.8 14.1 77 77 77
-24.7 -28.9 14.1 97 97 97
-24.3 -28.8 14.1 92 95 94
-23.9 -28.8 14.1 91 91 91
-14.5 -28.9 14.1 102 104 104
-14.1 -28.7 14.1 84 86 86
-13.7 -28.7 14.0 76 78 77
-13.5 -28.8 14.1 71 70 69
-13.2 -28.9 14.1 61 61 61
-12.2 -28.9 14.1 27 28 26
-11.8 -28.8 14.1 19 23 20
-11.5 -28.8 14.1 30 30 30
-11.2 -28.8 14.1 112 111 110
-10.2 -28.7 14.1 176 179 178
-9.9 -29.0 14.2 174 176 176
-9.6 -28.9 14.1 179 179 179
-8.6 -29.0 14.2 203 203 203
-8.2 -28.8 14.1 206 206 206
-6.9 -28.9 14.1 203 203 203
-6.6 -28.9 14.1 200 200 200
-6.3 -28.9 14.1 202 202 202
-5.9 -28.9 14.1 198 198 198
-5.6 -28.9 14.1 198 198 198
-5.3 -28.9 14.1 197 197 197
-5.0 -28.9 14.1 196 196 196
-4.6 -28.9 14.1 193 193 193
-4.3 -28.9 14.1 193 193 193
-4.0 -28.9 14.1 193 193 193
-3.7 -28.9 14.1 193 193 193
-3.3 -28.9 14.1 193 193 193
-3.0 -28.9 14.1 193 193 193
-2.7 -28.9 14.1 193 193 193
-2.3 -28.9 14.1 193 193 193
-2.0 -28.9 14.1 193 193 193
-1.7 -28.8 14.1 192 192 192
-1.4 -28.8 14.1 192 192 192
-0.7 -28.9 14.1 189 189 189
-0.4 -28.9 14.1 186 186 186
-0.0 -28.8 14.1 186 186 186
0.3 -28.8 14.1 186 186 186
0.6 -28.8 14.1 186 186 186
1.3 -29.0 14.2 186 186 186
1.6 -28.8 14.1 183 183 183
1.9 -28.8 14.1 186 186 186
2.3 -28.9 14.1 183 183 183
2.6 -28.8 14.1 183 183 183
2.9 -28.8 14.1 183 183 183
4.9 -28.9 14.1 177 177 177
5.2 -28.9 14.1 179 179 179
5.5 -28.9 14.1 177 177 177
5.9 -28.9 14.1 177 177 177
6.2 -28.9 14.1 177 177 177
6.5 -28.9 14.1 203 203 203
6.9 -28.9 14.1 205 205 205
7.2 -28.8 14.1 203 203 203
7.5 -28.8 14.1 205 205 205
7.9 -29.1 14.2 208 208 208
8.2 -29.1 14.2 208 208 208
8.5 -28.9 14.1 208 208 208
8.8 -28.9 14.1 205 205 205
9.2 -28.9 14.1 205 205 205
9.5 -28.9 14.1 208 208 208
9.8 -28.9 14.1 208 208 208
10.1 -28.9 14.1 208 208 208
10.5 -28.9 14.1 208 208 208
10.8 -28.9 14.1 208 208 208
11.1 -28.9 14.1 208 208 208
11.5 -28.9 14.1 208 208 208
11.8 -28.9 14.1 208 208 208
12.1 -28.9 14.1 208 208 208
12.4 -28.9 14.1 208 208 208
12.8 -28.9 14.1 208 208 208
13.1 -28.9 14.1 208 208 208
13.4 -28.9 14.1 205 205 205
13.7 -28.9 14.1 202 202 202
14.1 -28.9 14.1 205 205 205
14.4 -28.8 14.1 208 208 208
14.7 -28.8 14.1 208 208 208
15.1 -28.9 14.1 208 208 208
15.4 -28.9 14.1 208 208 208
15.7 -28.9 14.1 208 208 208
16.2 -29.1 14.2 208 208 208
46.3 -68.0 33.2 207 207 207
46.3 -66.9 32.7 207 207 207
49.0 -69.7 34.1 207 207 207
48.2 -67.5 33.0 207 207 207
48.4 -66.7 32.6 207 207 207
49.4 -67.0 32.8 207 207 207
50.3 -67.1 32.8 207 207 207
50.7 -66.7 32.6 207 207 207
50.4 -65.3 32.0 208 208 208
51.0 -65.1 31.8 205 205 205
53.1 -66.8 32.7 205 205 205
53.9 -66.9 32.7 205 205 205
54.3 -66.4 32.5 205 205 205
54.8 -66.1 32.3 206 206 206
55.7 -66.3 32.4 206 206 206
57.2 -67.1 32.8 206 206 206
140.0 -77.5 37.9 128 131 130
140.9 -77.5 37.9 124 124 124
142.0 -77.6 38.0 115 117 116
-40.7 -29.2 14.4 55 55 55
-41.4 -29.9 14.8 55 55 55
-40.7 -29.7 14.7 53 52 52
-40.4 -29.7 14.7 55 55 55
-40.0 -29.7 14.7 55 55 55
-40.0 -29.9 14.8 57 58 56
-39.3 -29.7 14.7 58 59 57
-39.0 -29.7 14.7 55 55 55
-38.6 -29.7 14.7 55 55 55
-38.6 -29.9 14.8 55 55 55
-38.0 -29.7 14.7 55 55 55
-37.6 -29.7 14.7 58 59 57
-37.2 -29.6 14.7 55 55 55
-36.9 -29.7 14.7 55 55 55
-36.7 -29.7 14.7 55 55 55
-36.3 -29.7 14.7 51 51 51
-36.2 -29.9 14.8 51 51 51
-35.8 -29.9 14.8 51 51 51
-35.5 -29.9 14.8 49 48 47
-35.0 -29.8 14.7 46 46 46
-34.7 -29.8 14.7 46 46 46
-34.1 -29.6 14.7 46 46 46
-33.8 -29.9 14.8 46 46 46
-33.2 -29.7 14.7 46 46 46
-32.7 -29.6 14.6 46 46 46
-32.4 -29.6 14.7 46 46 46
-32.3 -29.8 14.7 46 46 46
-31.8 -29.7 14.7 47 47 47
-31.4 -29.6 14.7 47 47 47
-31.0 -29.6 14.6 47 47 47
-30.6 -29.5 14.6 47 47 47
-29.7 -29.6 14.7 42 43 42
-29.6 -29.9 14.8 42 43 42
-29.3 -29.9 14.8 41 41 41
-28.8 -29.8 14.7 41 41 41
-28.7 -30.0 14.8 42 42 42
-27.1 -29.8 14.8 43 43 43
-26.6 -29.6 14.6 43 43 43
-26.2 -29.5 14.6 44 44 44
-26.0 -29.7 14.7 47 47 47
-25.7 -29.7 14.7 48 48 48
-25.3 -29.6 14.7 59 59 59
-15.3 -29.4 14.5 20 23 21
-15.0 -29.6 14.6 24 24 24
-14.5 -29.2 14.5 29 31 29
-14.1 -29.0 14.4 27 27 27
-13.8 -29.2 14.5 29 30 28
-13.7 -29.6 14.7 29 30 28
-12.7 -29.8 14.8 30 29 28
-12.5 -30.2 14.9 30 30 30
-12.2 -30.2 14.9 34 34 34
-9.0 -29.8 14.7 211 211 211
-5.9 -29.9 14.8 203 203 203
-5.6 -29.9 14.8 202 202 202
-5.2 -29.7 14.7 200 200 200
-4.9 -29.9 14.8 200 200 200
-4.5 -29.7 14.7 200 200 200
-4.2 -29.9 14.8 197 197 197
-3.8 -29.9 14.8 197 197 197
-3.5 -29.9 14.8 197 197 197
-2.4 -29.6 14.7 197 197 197
-2.1 -29.5 14.6 197 197 197
-1.8 -29.8 14.7 197 197 197
-0.4 -29.4 14.6 191 191 191
7.9 -30.2 14.9 208 208 208
8.2 -29.9 14.8 208 208 208
8.5 -29.7 14.7 208 208 208
8.8 -29.7 14.7 208 208 208
9.2 -29.7 14.7 208 208 208
9.5 -29.7 14.7 208 208 208
9.9 -29.7 14.7 208 208 208
10.2 -29.7 14.7 208 208 208
10.5 -29.7 14.7 208 208 208
10.9 -29.7 14.7 208 208 208
11.2 -29.7 14.7 208 208 208
11.6 -29.7 14.7 208 208 208
11.9 -29.7 14.7 208 208 208
12.3 -29.8 14.7 208 208 208
12.6 -29.7 14.7 208 208 208
12.9 -29.6 14.6 207 207 207
13.3 -29.7 14.7 207 207 207
13.6 -29.7 14.7 207 207 207
14.0 -29.7 14.7 207 207 207
14.3 -29.7 14.7 204 204 204
14.6 -29.6 14.7 207 207 207
14.9 -29.6 14.7 207 207 207
15.5 -30.0 14.8 207 207 207
15.6 -29.6 14.7 207 207 207
16.0 -29.7 14.7 207 207 207
16.4 -29.7 14.7 207 207 207
16.7 -29.7 14.7 207 207 207
49.3 -74.1 36.7 207 207 207
49.0 -72.4 35.8 207 207 207
47.4 -68.9 34.1 207 207 207
47.8 -68.3 33.8 207 207 207
51.4 -72.3 35.8 207 207 207
49.3 -68.1 33.7 207 207 207
48.9 -66.6 33.0 207 207 207
50.7 -67.9 33.6 207 207 207
51.1 -67.4 33.4 207 207 207
51.3 -66.7 33.0 207 207 207
50.5 -64.7 32.0 207 207 207
50.4 -63.6 31.5 207 207 207
54.5 -67.8 33.5 209 209 209
55.2 -67.7 33.5 209 209 209
54.9 -66.4 32.8 208 208 208
58.8 -68.3 33.8 205 205 205
138.3 -75.7 37.5 135 135 135
138.6 -75.4 37.3 128 131 130
140.1 -75.3 37.2 115 117 116
-38.8 -30.3 15.2 58 59 57
-34.5 -30.3 15.1 47 47 47
-34.2 -30.3 15.2 47 47 47
-33.9 -30.4 15.2 47 47 47
-33.6 -30.4 15.2 47 47 47
-33.2 -30.3 15.2 47 47 47
-32.8 -30.3 15.2 47 48 47
-32.5 -30.3 15.2 47 48 47
-32.1 -30.3 15.2 47 48 47
-30.7 -30.3 15.2 47 48 47
-29.7 -30.3 15.2 43 43 43
-29.3 -30.3 15.2 40 40 40
-27.9 -30.4 15.2 43 43 43
-27.5 -30.3 15.1 40 39 38
-15.5 -30.3 15.1 26 26 26
-15.2 -30.3 15.2 26 26 26
-14.9 -30.3 15.2 26 26 26
-14.5 -30.3 15.2 27 27 27
-12.8 -30.4 15.2 33 33 33
-12.4 -30.3 15.2 39 39 39
-9.2 -30.3 15.2 221 221 221
8.1 -30.3 15.2 207 207 207
8.4 -30.2 15.1 207 207 207
8.8 -30.3 15.1 207 207 207
9.1 -30.4 15.2 207 207 207
9.5 -30.4 15.2 207 207 207
9.8 -30.3 15.2 207 207 207
10.2 -30.3 15.2 207 207 207
10.5 -30.4 15.2 207 207 207
10.9 -30.4 15.2 207 207 207
11.2 -30.3 15.2 207 207 207
11.6 -30.4 15.2 207 207 207
12.0 -30.4 15.2 207 207 207
12.3 -30.3 15.2 207 207 207
12.6 -30.3 15.2 207 207 207
13.0 -30.3 15.2 207 207 207
13.4 -30.3 15.2 207 207 207
13.7 -30.4 15.2 207 207 207
14.1 -30.4 15.2 207 207 207
14.4 -30.4 15.2 207 207 207
14.8 -30.3 15.2 207 207 207
15.1 -30.3 15.2 207 207 207
16.2 -30.3 15.2 207 207 207
16.5 -30.3 15.2 207 207 207
16.9 -30.3 15.2 207 207 207
17.2 -30.3 15.2 207 207 207
49.7 -73.8 36.9 206 206 206
49.3 -72.0 36.0 206 206 206
48.0 -69.0 34.5 206 206 206
51.7 -71.8 36.0 206 206 206
49.8 -68.1 34.1 206 206 206
50.1 -67.4 33.7 206 206 206
51.3 -68.0 34.0 206 206 206
51.7 -67.5 33.8 206 206 206
52.5 -67.5 33.8 206 206 206
50.2 -62.7 31.4 207 207 207
54.9 -67.5 33.8 207 207 207
55.8 -67.7 33.9 207 207 207
56.3 -67.4 33.7 207 207 207
60.3 -70.1 35.1 205 205 205
60.7 -69.7 34.9 205 205 205
892.2 -590.4 295.6 187 189 189
138.1 -74.2 37.2 128 131 130
138.4 -74.0 37.0 122 122 122
-26.6 -24.0 12.2 48 48 48
-34.6 -31.5 16.0 48 48 48
-25.0 -23.8 12.1 48 48 48
-28.0 -31.7 16.0 41 41 39
-19.6 -23.8 12.0 46 46 46
-19.4 -23.8 12.1 49 49 49
-16.7 -31.5 16.0 27 27 27
-10.7 -23.9 12.1 29 30 28
-10.4 -23.9 12.1 32 32 32
-10.6 -24.8 12.6 35 35 35
9.0 -24.8 12.6 207 207 207
9.6 -24.8 12.6 207 207 207
9.9 -24.8 12.6 207 207 207
9.8 -23.8 12.1 207 207 207
10.1 -23.9 12.1 206 206 206
10.8 -24.8 12.6 206 206 206
11.1 -24.8 12.6 206 206 206
11.3 -24.8 12.6 206 206 206
11.2 -23.9 12.1 206 206 206
11.5 -23.9 12.1 206 206 206
11.8 -23.9 12.1 206 206 206
12.1 -23.9 12.1 206 206 206
12.3 -23.9 12.1 206 206 206
13.1 -24.8 12.6 206 206 206
50.0 -73.4 37.2 206 206 206
49.4 -71.3 36.1 206 206 206
47.3 -67.2 34.0 206 206 206
47.8 -66.7 33.8 206 206 206
51.2 -70.3 35.6 206 206 206
49.4 -66.7 33.8 206 206 206
49.7 -66.1 33.5 206 206 206
50.9 -66.7 33.8 206 206 206
51.4 -66.3 33.6 206 206 206
52.2 -66.3 33.6 206 206 206
53.0 -66.3 33.6 206 206 206
54.6 -66.3 33.6 206 206 206
55.4 -66.5 33.7 206 206 206
55.8 -66.0 33.4 207 207 207
53.1 -61.9 31.4 207 207 207
59.1 -67.9 34.4 207 207 207
59.2 -67.2 34.0 204 204 204
-35.0 -24.3 12.4 57 57 57
-34.8 -24.3 12.5 57 57 57
-34.5 -24.3 12.5 59 61 59
-34.3 -24.3 12.5 59 61 59
-33.9 -24.3 12.5 59 61 59
-33.7 -24.3 12.5 59 61 59
-33.4 -24.3 12.5 59 61 59
-33.1 -24.3 12.5 59 61 59
-32.8 -24.3 12.5 59 61 59
-32.5 -24.3 12.5 59 61 59
-32.2 -24.3 12.5 59 61 59
-31.9 -24.3 12.5 59 61 59
-31.6 -24.3 12.5 59 61 59
-31.4 -24.3 12.5 58 58 58
-31.1 -24.3 12.5 58 58 58
-30.7 -24.3 12.5 58 58 58
-30.4 -24.3 12.5 53 53 53
-30.2 -24.3 12.5 53 53 53
-29.9 -24.3 12.5 48 48 48
-29.6 -24.3 12.5 51 51 49
-29.3 -24.3 12.5 54 54 54
-29.0 -24.3 12.5 52 52 50
-28.7 -24.3 12.5 52 52 50
-28.4 -24.3 12.5 52 52 50
-28.1 -24.3 12.5 48 48 48
-27.9 -24.3 12.5 48 48 48
-27.5 -24.3 12.4 49 49 49
-27.2 -24.2 12.4 49 49 49
-26.9 -24.3 12.4 49 49 49
-26.6 -24.3 12.4 49 49 49
-26.4 -24.3 12.4 49 49 49
-26.0 -24.2 12.4 49 49 49
-25.8 -24.3 12.5 49 49 49
-25.5 -24.3 12.5 50 50 50
-25.3 -24.3 12.5 48 48 48
-25.0 -24.4 12.5 48 48 48
-24.6 -24.3 12.4 48 48 48
-24.4 -24.3 12.5 46 46 46
-24.1 -24.3 12.5 44 44 44
-23.8 -24.3 12.5 44 44 44
-23.5 -24.3 12.5 42 42 42
-23.2 -24.3 12.5 45 45 45
-22.9 -24.3 12.5 41 41 39
-22.7 -24.3 12.5 41 41 39
-22.3 -24.3 12.4 41 41 39
-22.0 -24.3 12.4 42 42 40
-21.8 -24.3 12.5 42 42 40
-21.5 -24.3 12.5 43 43 43
-21.1 -24.3 12.4 42 42 40
-20.9 -24.3 12.5 43 42 41
-20.6 -24.3 12.5 43 42 41
-20.0 -24.3 12.5 39 41 41
-19.7 -24.3 12.5 31 32 30
-19.4 -24.3 12.5 21 24 22
-18.9 -24.3 12.5 20 20 20
-13.2 -24.5 12.6 29 29 29
-12.8 -24.3 12.5 29 29 29
-12.2 -24.3 12.5 30 31 30
-11.9 -24.3 12.5 29 31 29
-11.3 -24.3 12.5 32 31 30
-11.0 -24.2 12.4 32 32 32
-10.6 -24.1 12.3 33 33 33
-10.5 -24.3 12.4 35 37 36
-10.2 -24.3 12.5 43 43 43
-9.9 -24.4 12.5 158 158 158
-9.6 -24.3 12.5 186 186 186
-9.3 -24.2 12.4 186 188 187
-9.0 -24.3 12.5 183 186 185
-8.7 -24.4 12.5 227 230 229
-8.5 -24.4 12.5 226 229 228
-8.1 -24.2 12.4 226 229 228
-5.0 -24.4 12.5 213 215 215
-4.7 -24.4 12.5 212 214 214
-4.4 -24.3 12.5 209 212 211
-4.1 -24.3 12.5 209 212 211
-3.8 -24.3 12.5 209 212 211
-3.5 -24.3 12.5 209 212 211
-3.2 -24.3 12.5 208 208 208
-2.9 -24.3 12.5 206 206 206
-2.6 -24.3 12.5 204 204 204
-2.4 -24.3 12.5 204 204 204
-2.1 -24.3 12.5 204 204 204
-1.8 -24.3 12.5 204 204 204
-1.5 -24.3 12.5 202 202 202
-0.6 -24.3 12.4 198 198 198
-0.3 -24.3 12.4 198 198 198
6.9 -24.3 12.5 206 206 206
7.2 -24.3 12.5 206 206 206
7.5 -24.3 12.5 206 206 206
8.4 -24.4 12.5 206 206 206
8.6 -24.3 12.4 206 206 206
8.9 -24.3 12.4 206 206 206
9.2 -24.3 12.4 206 206 206
9.5 -24.3 12.5 206 206 206
9.8 -24.3 12.5 206 206 206
10.1 -24.2 12.4 206 206 206
10.4 -24.3 12.5 206 206 206
10.7 -24.3 12.5 206 206 206
10.9 -24.3 12.4 206 206 206
11.2 -24.3 12.4 206 206 206
11.5 -24.3 12.5 206 206 206
11.8 -24.2 12.4 206 206 206
12.1 -24.3 12.5 206 206 206
12.4 -24.3 12.5 206 206 206
12.7 -24.3 12.5 206 206 206
13.0 -24.2 12.4 206 206 206
13.3 -24.3 12.4 206 206 206
13.6 -24.3 12.4 206 206 206
13.9 -24.4 12.5 206 206 206
14.2 -24.3 12.5 206 206 206
14.5 -24.3 12.5 206 206 206
46.8 -65.7 33.7 207 207 207
47.4 -65.3 33.5 205 205 205
48.8 -66.3 34.0 205 205 205
48.8 -65.1 33.4 207 207 207
48.5 -63.7 32.7 205 205 205
49.9 -64.5 33.1 205 205 205
50.7 -64.6 33.1 205 205 205
51.3 -64.4 33.0 205 205 205
51.7 -64.0 32.8 205 205 205
51.9 -63.3 32.4 206 206 206
53.2 -64.0 32.8 206 206 206
54.3 -64.3 33.0 206 206 206
54.6 -63.7 32.7 206 206 206
53.7 -61.8 31.7 206 206 206
57.9 -65.8 33.7 206 206 206
58.5 -65.6 33.6 206 206 206
70.2 -77.7 39.8 207 207 207
-35.8 -24.5 12.7 59 61 59
-35.8 -24.7 12.8 63 63 63
-35.6 -24.8 12.9 59 61 59
-35.2 -24.7 12.8 60 62 60
-34.9 -24.7 12.8 60 62 60
-34.6 -24.7 12.8 60 62 60
-34.4 -24.8 12.9 60 62 60
-34.0 -24.7 12.8 60 62 60
-33.7 -24.7 12.8 60 62 60
-33.4 -24.7 12.8 60 62 60
-33.1 -24.7 12.8 60 62 60
-32.8 -24.7 12.8 58 59 59
-32.5 -24.7 12.8 60 62 60
-32.2 -24.7 12.8 58 59 59
-31.9 -24.7 12.8 56 56 56
-31.7 -24.7 12.8 56 56 56
-31.4 -24.8 12.9 54 54 54
-31.1 -24.8 12.9 54 54 54
-30.7 -24.7 12.8 52 52 50
-30.4 -24.7 12.8 49 49 49
-30.2 -24.8 12.8 49 49 49
-29.8 -24.7 12.8 53 52 51
-29.5 -24.7 12.8 53 52 51
-29.2 -24.7 12.8 49 49 49
-28.9 -24.7 12.8 49 49 49
-28.7 -24.8 12.8 53 52 51
-28.3 -24.7 12.8 50 50 50
-28.0 -24.6 12.8 50 50 50
-27.7 -24.7 12.8 50 50 50
-27.5 -24.8 12.9 50 50 50
-27.2 -24.7 12.8 50 50 50
-26.8 -24.6 12.8 50 50 50
-26.5 -24.7 12.8 51 51 51
-26.3 -24.7 12.8 51 51 51
-26.0 -24.8 12.9 51 51 51
-25.7 -24.8 12.8 49 49 49
-25.4 -24.7 12.8 49 49 49
-25.1 -24.7 12.8 47 47 47
-24.8 -24.8 12.9 45 45 45
-24.4 -24.7 12.8 46 46 46
-24.2 -24.7 12.8 46 46 46
-23.9 -24.8 12.8 43 43 43
-23.6 -24.7 12.8 43 43 43
-23.3 -24.8 12.9 43 43 43
-23.0 -24.7 12.8 44 44 44
-22.7 -24.7 12.8 43 42 41
-22.3 -24.6 12.8 43 42 41
-22.1 -24.7 12.8 41 41 41
-21.8 -24.7 12.8 41 41 41
-21.5 -24.8 12.9 41 41 41
-21.2 -24.7 12.8 40 42 42
-20.9 -24.7 12.8 40 42 42
-20.6 -24.7 12.8 38 38 38
-20.2 -24.6 12.8 30 29 29
-19.7 -24.7 12.8 19 19 19
-19.3 -24.6 12.8 19 19 19
-13.5 -24.8 12.9 30 29 29
-13.2 -24.8 12.9 30 29 29
-12.9 -24.8 12.9 29 29 29
-12.6 -24.7 12.8 30 31 30
-12.4 -25.0 13.0 30 31 30
-11.7 -24.7 12.8 32 31 30
-11.2 -24.3 12.6 32 31 30
-10.9 -24.3 12.6 33 33 33
-10.7 -24.5 12.7 36 38 37
-10.4 -24.7 12.8 44 44 44
-10.2 -24.7 12.8 175 175 175
-9.8 -24.6 12.8 186 188 187
-9.3 -24.8 12.9 183 186 185
-9.0 -24.8 12.9 226 229 228
-4.8 -24.7 12.8 216 216 216
-4.5 -24.7 12.8 210 213 212
-4.2 -24.7 12.8 210 213 212
-3.9 -24.7 12.8 210 213 212
-3.6 -24.8 12.8 210 213 212
-3.3 -24.8 12.9 210 213 212
-3.0 -24.8 12.9 208 211 210
-2.7 -24.8 12.9 208 211 210
7.4 -24.8 12.9 206 206 206
7.7 -24.7 12.8 206 206 206
8.0 -24.8 12.9 206 206 206
8.3 -24.7 12.8 206 206 206
8.6 -24.7 12.8 206 206 206
8.9 -24.7 12.8 206 206 206
9.2 -24.7 12.8 206 206 206
9.5 -24.7 12.8 206 206 206
9.8 -24.7 12.8 205 205 205
10.1 -24.7 12.8 205 205 205
10.4 -24.7 12.8 205 205 205
10.7 -24.7 12.8 205 205 205
11.0 -24.7 12.8 205 205 205
11.3 -24.8 12.9 205 205 205
11.5 -24.6 12.8 205 205 205
11.9 -24.7 12.8 205 205 205
12.5 -24.7 12.8 205 205 205
12.8 -24.7 12.8 205 205 205
13.1 -24.7 12.8 205 205 205
13.4 -24.7 12.8 205 205 205
13.6 -24.7 12.8 205 205 205
13.9 -24.6 12.8 205 205 205
46.7 -64.7 33.5 205 205 205
48.6 -65.1 33.8 207 207 207
48.4 -63.9 33.1 207 207 207
48.4 -62.9 32.6 205 205 205
49.6 -63.4 32.9 205 205 205
50.5 -63.6 33.0 207 207 207
51.0 -63.3 32.8 205 205 205
51.5 -63.0 32.7 205 205 205
52.2 -62.9 32.6 205 205 205
53.2 -63.2 32.8 205 205 205
54.0 -63.2 32.8 205 205 205
54.4 -62.8 32.6 205 205 205
53.8 -61.2 31.7 206 206 206
56.0 -62.9 32.6 206 206 206
58.4 -64.7 33.5 206 206 206
71.1 -77.8 40.3 206 206 206
142.2 -75.7 39.2 160 163 162
134.7 -71.2 36.9 154 154 154
135.0 -71.0 36.8 147 149 149
144.6 -75.5 39.2 143 143 142
142.6 -74.0 38.4 135 135 135
142.6 -73.5 38.1 126 126 126
143.5 -73.5 38.1 121 121 121
138.2 -70.4 36.5 114 116 115
-36.2 -24.5 12.9 60 62 60
-35.9 -24.5 12.9 64 64 64
-35.7 -24.5 12.9 64 64 64
-35.3 -24.5 12.9 64 64 64
-35.1 -24.5 12.9 60 62 60
-34.8 -24.5 12.9 60 62 60
-34.5 -24.5 12.9 61 63 61
-34.1 -24.5 12.9 61 63 61
-33.8 -24.5 12.9 58 59 59
-33.5 -24.5 12.9 61 63 61
-33.3 -24.5 12.9 61 63 61
-32.9 -24.5 12.9 59 59 59
-32.6 -24.5 12.9 57 57 57
-32.4 -24.5 12.9 59 59 59
-32.0 -24.5 12.9 57 57 57
-31.7 -24.5 12.9 53 52 51
-31.4 -24.5 12.9 55 55 55
-31.2 -24.5 12.9 55 55 55
-30.8 -24.5 12.9 53 52 51
-30.5 -24.5 12.9 53 52 51
-30.2 -24.5 12.9 54 53 52
-29.9 -24.5 12.9 54 53 52
-29.7 -24.5 12.9 54 53 52
-29.3 -24.5 12.9 54 53 52
-29.0 -24.5 12.9 56 56 56
-28.9 -24.6 12.9 54 53 52
-28.6 -24.6 12.9 51 51 51
-28.1 -24.5 12.9 51 51 51
-27.8 -24.5 12.8 51 51 51
-27.6 -24.5 12.9 51 51 51
-27.3 -24.5 12.9 51 51 51
-26.9 -24.5 12.9 55 54 53
-26.7 -24.5 12.9 52 52 52
-26.4 -24.5 12.9 50 50 50
-26.1 -24.5 12.9 50 50 50
-25.8 -24.6 12.9 50 50 50
-25.5 -24.5 12.9 47 48 47
-25.1 -24.5 12.8 47 48 47
-24.9 -24.5 12.9 46 46 46
-24.6 -24.5 12.9 47 47 47
-24.2 -24.5 12.9 47 47 47
-23.9 -24.5 12.9 47 47 47
-23.7 -24.5 12.9 44 44 44
-23.4 -24.5 12.9 45 45 45
-23.1 -24.6 12.9 45 45 45
-22.8 -24.5 12.9 45 45 45
-22.5 -24.5 12.9 44 43 42
-22.2 -24.5 12.9 42 42 42
-21.9 -24.5 12.9 42 42 42
-21.6 -24.5 12.9 42 42 42
-21.2 -24.4 12.8 41 43 42
-13.2 -24.5 12.9 28 28 28
-12.9 -24.5 12.9 30 29 29
-12.3 -24.4 12.8 30 31 30
-11.3 -24.4 12.8 29 31 29
-11.0 -24.2 12.7 36 37 36
-10.7 -24.4 12.8 34 34 34
-10.5 -24.5 12.8 42 43 42
-10.2 -24.5 12.9 177 180 179
-9.9 -24.4 12.8 184 187 186
-9.6 -24.5 12.9 189 189 189
-3.6 -24.6 12.9 214 214 214
8.4 -24.6 12.9 205 205 205
8.7 -24.7 13.0 205 205 205
11.6 -24.5 12.9 205 205 205
46.9 -64.2 33.7 207 207 207
48.9 -63.8 33.5 207 207 207
48.5 -62.2 32.7 204 204 204
50.0 -63.1 33.1 206 206 206
50.8 -63.2 33.2 206 206 206
51.2 -62.8 33.0 204 204 204
50.8 -61.4 32.2 204 204 204
52.1 -62.0 32.6 205 205 205
54.1 -63.4 33.3 207 207 207
54.2 -62.7 32.9 207 207 207
54.1 -61.7 32.4 207 207 207
54.0 -60.8 31.9 205 205 205
54.7 -60.7 31.8 205 205 205
58.9 -64.5 33.8 205 205 205
67.1 -72.5 38.1 205 205 205
134.1 -70.5 37.0 160 163 162
130.1 -68.0 35.7 154 154 154
126.7 -65.7 34.5 147 149 149
-36.3 -24.2 12.9 61 63 61
-36.2 -24.4 13.0 64 64 64
-35.9 -24.4 13.0 65 65 65
-35.6 -24.4 13.0 65 65 65
-35.3 -24.4 13.0 61 63 61
-34.4 -24.4 13.0 65 65 65
-34.1 -24.4 13.0 62 64 61
-33.8 -24.4 13.0 65 65 65
-33.5 -24.4 13.0 62 64 61
-33.2 -24.4 13.0 62 64 61
-32.9 -24.4 13.0 60 60 60
-32.6 -24.4 13.0 62 64 61
-31.1 -24.4 13.0 56 56 56
-30.8 -24.4 13.0 51 51 51
-30.5 -24.4 13.0 57 57 57
-30.2 -24.4 13.0 51 51 51
-29.8 -24.3 12.9 55 54 53
-29.6 -24.4 13.0 55 54 53
-29.0 -24.4 13.0 57 57 57
-28.7 -24.5 13.0 55 54 53
-28.3 -24.4 13.0 56 55 54
-27.8 -24.4 13.0 56 55 54
-27.4 -24.3 12.9 56 55 54
-27.1 -24.4 12.9 53 52 52
-26.3 -24.4 13.0 51 51 51
-26.0 -24.4 13.0 51 51 51
-25.6 -24.3 12.9 52 52 52
-23.2 -24.4 13.0 46 46 46
-22.9 -24.4 13.0 45 44 43
-22.7 -24.4 13.0 42 42 42
-22.4 -24.4 13.0 42 43 42
-22.1 -24.4 13.0 42 43 42
-21.8 -24.4 13.0 41 43 42
-10.8 -24.1 12.8 34 34 34
-10.5 -24.1 12.8 46 46 46
-10.2 -24.2 12.9 186 188 187
48.1 -66.2 35.2 206 206 206
47.4 -64.1 34.1 206 206 206
47.8 -63.6 33.8 206 206 206
51.2 -67.0 35.6 206 206 206
49.5 -63.7 33.8 206 206 206
49.3 -62.4 33.2 206 206 206
50.9 -63.6 33.8 206 206 206
51.1 -62.8 33.4 206 206 206
51.9 -62.8 33.4 206 206 206
51.8 -61.8 32.8 208 208 208
52.9 -62.2 33.1 208 208 208
55.0 -63.7 33.8 206 206 206
55.2 -63.0 33.5 207 207 207
54.5 -61.4 32.6 207 207 207
54.1 -60.1 32.0 207 207 207
54.9 -60.1 32.0 205 205 205
67.3 -71.8 38.1 205 205 205
67.9 -71.5 38.0 205 205 205
-36.8 -24.3 13.1 61 63 61
-36.7 -24.4 13.1 65 65 65
-36.4 -24.4 13.1 65 65 65
-36.1 -24.4 13.1 65 65 65
-35.8 -24.4 13.2 65 65 65
-35.5 -24.4 13.2 66 66 66
-35.2 -24.4 13.2 62 64 61
-34.8 -24.4 13.1 66 66 66
-34.5 -24.4 13.1 66 66 66
-34.3 -24.4 13.1 66 66 66
-34.0 -24.4 13.1 63 64 62
-33.6 -24.4 13.1 63 64 62
-33.3 -24.4 13.1 63 64 62
-33.0 -24.4 13.1 63 64 62
-32.8 -24.5 13.2 61 61 61
-32.1 -24.4 13.1 58 59 59
-31.8 -24.4 13.1 58 59 59
-31.5 -24.4 13.1 57 57 57
-31.2 -24.4 13.1 52 52 52
-30.9 -24.4 13.1 58 58 58
-30.6 -24.4 13.2 58 58 58
-30.3 -24.5 13.2 58 58 58
-30.0 -24.4 13.1 56 55 54
-29.9 -24.6 13.2 58 58 58
-29.5 -24.5 13.2 59 59 59
-29.1 -24.5 13.2 58 58 58
-28.7 -24.4 13.1 58 59 59
-28.4 -24.4 13.1 57 56 55
-28.2 -24.5 13.2 53 52 52
-27.8 -24.4 13.1 57 56 55
-27.5 -24.4 13.1 57 56 55
-27.3 -24.5 13.2 57 57 55
-26.9 -24.4 13.2 53 53 53
-26.6 -24.4 13.1 52 52 52
-26.4 -24.5 13.2 49 49 49
-26.0 -24.4 13.1 49 49 49
-25.7 -24.4 13.1 53 52 52
-25.4 -24.4 13.1 53 52 52
-25.1 -24.4 13.1 48 48 48
-24.1 -24.7 13.3 49 49 49
-23.6 -24.5 13.2 46 45 43
-23.3 -24.4 13.2 46 45 43
-23.0 -24.4 13.1 43 43 43
-22.7 -24.4 13.2 43 43 43
-22.4 -24.5 13.2 42 44 43
-22.0 -24.4 13.1 43 43 43
-21.7 -24.4 13.1 43 45 44
-16.2 -24.4 13.2 24 27 25
-13.2 -25.0 13.4 91 91 91
-12.6 -24.6 13.2 58 59 59
-11.3 -24.3 13.1 85 85 85
-10.9 -24.1 13.0 20 23 21
-10.5 -23.9 12.9 44 44 44
-10.2 -23.9 12.9 181 181 181
48.6 -65.9 35.5 206 206 206
48.0 -64.1 34.5 206 206 206
51.2 -66.2 35.6 206 206 206
50.3 -63.9 34.4 206 206 206
48.8 -61.1 32.9 206 206 206
51.8 -63.8 34.3 206 206 206
50.7 -61.6 33.1 206 206 206
51.3 -61.3 33.0 206 206 206
51.5 -60.6 32.6 206 206 206
52.6 -61.0 32.8 206 206 206
56.2 -64.3 34.6 206 206 206
55.3 -62.3 33.5 206 206 206
54.5 -60.6 32.6 206 206 206
54.0 -59.3 31.9 206 206 206
54.9 -59.4 32.0 207 207 207
67.5 -71.2 38.3 204 204 204
68.1 -70.9 38.1 204 204 204
-37.5 -24.4 13.3 66 66 66
-37.2 -24.4 13.3 66 66 66
-36.9 -24.4 13.3 66 66 66
-36.6 -24.4 13.3 66 66 66
-36.2 -24.4 13.3 66 66 66
-36.0 -24.4 13.3 66 66 66
-35.6 -24.4 13.3 67 67 67
-35.3 -24.4 13.3 67 67 67
-35.0 -24.4 13.3 67 67 67
-34.7 -24.4 13.3 67 67 67
-34.4 -24.4 13.3 67 67 67
-34.1 -24.4 13.3 67 67 67
-33.8 -24.4 13.3 67 67 67
-33.5 -24.4 13.3 64 65 63
-33.1 -24.4 13.3 64 65 63
-32.8 -24.4 13.3 62 62 62
-32.6 -24.4 13.3 59 59 59
-32.2 -24.4 13.3 59 59 59
-31.9 -24.4 13.3 58 58 58
-31.6 -24.4 13.3 56 55 54
-31.3 -24.4 13.3 58 59 59
-31.0 -24.4 13.3 58 59 59
-30.7 -24.4 13.3 58 59 59
-30.3 -24.4 13.3 58 59 59
-30.1 -24.5 13.3 58 59 59
-29.8 -24.5 13.3 58 59 59
-29.4 -24.4 13.3 59 59 59
-29.1 -24.4 13.3 59 59 59
-28.8 -24.4 13.3 59 59 59
-28.5 -24.4 13.3 59 59 59
-28.2 -24.4 13.3 59 59 59
-27.8 -24.4 13.3 58 58 56
-27.6 -24.4 13.3 58 58 56
-27.3 -24.4 13.3 54 54 54
-27.0 -24.4 13.3 55 55 55
-26.7 -24.5 13.3 55 55 55
-26.3 -24.4 13.3 53 53 53
-26.0 -24.4 13.3 53 53 53
-25.7 -24.4 13.3 54 54 54
-25.4 -24.4 13.3 49 49 49
-25.1 -24.4 13.3 50 50 50
-24.8 -24.4 13.3 50 50 50
-24.5 -24.4 13.3 47 48 47
-24.2 -24.5 13.3 47 48 47
-23.9 -24.5 13.3 46 46 44
-23.5 -24.4 13.3 48 48 48
-23.2 -24.4 13.3 47 46 45
-23.0 -24.4 13.3 47 46 45
-22.7 -24.5 13.3 44 44 44
-22.3 -24.4 13.3 43 45 45
-21.9 -24.4 13.3 43 45 45
-16.4 -24.4 13.3 25 28 25
-16.0 -29.3 16.0 84 83 81
-13.2 -24.8 13.5 16 16 16
-12.7 -24.5 13.3 36 37 36
-11.7 -24.3 13.2 52 52 50
-11.5 -24.4 13.3 79 79 79
-11.1 -24.2 13.2 25 25 25
-10.6 -23.9 13.0 50 50 50
-10.3 -23.9 13.0 183 183 183
46.7 -61.5 33.5 205 205 205
48.5 -60.9 33.2 205 205 205
48.3 -59.7 32.6 205 205 205
49.3 -59.9 32.7 205 205 205
49.9 -59.8 32.6 205 205 205
50.7 -59.8 32.6 205 205 205
50.1 -58.2 31.7 205 205 205
51.2 -58.7 32.0 205 205 205
55.2 -62.3 34.0 206 206 206
54.8 -61.0 33.2 206 206 206
54.2 -59.5 32.4 206 206 206
53.9 -58.3 31.8 206 206 206
54.6 -58.3 31.8 206 206 206
57.2 -60.3 32.8 206 206 206
33.1 -30.4 16.6 205 205 205
-37.5 -24.1 13.3 66 66 66
-37.2 -24.1 13.3 68 70 68
-36.9 -24.1 13.3 67 67 67
-36.6 -24.1 13.3 67 67 67
-36.3 -24.1 13.3 67 67 67
-36.0 -24.1 13.3 67 67 67
-35.6 -24.1 13.3 69 71 69
-35.3 -24.1 13.3 67 67 67
-35.0 -24.1 13.3 67 67 67
-34.7 -24.1 13.3 67 67 67
-34.4 -24.1 13.3 67 67 67
-34.1 -24.1 13.3 64 65 63
-33.8 -24.1 13.3 67 67 67
-33.5 -24.1 13.3 65 66 64
-33.1 -24.1 13.3 65 66 64
-32.8 -24.1 13.3 63 63 63
-32.6 -24.1 13.3 63 63 63
-32.2 -24.1 13.3 63 63 63
-31.9 -24.1 13.3 60 60 60
-31.6 -24.1 13.3 61 61 61
-31.3 -24.1 13.3 59 59 59
-31.0 -24.1 13.3 59 59 59
-30.7 -24.1 13.3 59 59 59
-30.4 -24.1 13.3 59 59 59
-30.1 -24.2 13.3 59 59 59
-29.8 -24.2 13.3 59 59 59
-29.4 -24.1 13.3 60 60 60
-29.1 -24.1 13.3 62 62 62
-28.8 -24.1 13.3 60 60 60
-28.5 -24.1 13.3 60 60 60
-28.2 -24.1 13.3 59 59 57
-27.9 -24.1 13.3 59 59 57
-27.6 -24.1 13.3 59 59 57
-27.3 -24.1 13.3 59 59 57
-27.0 -24.1 13.3 56 56 56
-26.7 -24.2 13.3 56 56 56
-26.3 -24.1 13.3 54 54 54
-26.0 -24.1 13.3 57 57 57
-25.7 -24.1 13.3 55 55 55
-25.4 -24.1 13.3 52 52 52
-25.1 -24.1 13.3 53 52 52
-24.8 -24.1 13.3 51 51 51
-24.5 -24.1 13.3 48 48 48
-24.2 -24.2 13.3 48 48 48
-23.9 -24.2 13.3 49 49 49
-23.6 -24.1 13.3 52 52 52
-23.2 -24.1 13.3 45 45 45
-23.0 -24.1 13.3 50 50 50
-22.7 -24.2 13.3 45 45 45
-22.3 -24.1 13.3 44 46 46
-16.4 -24.1 13.3 25 29 26
-13.2 -24.5 13.5 30 30 30
-12.8 -24.2 13.3 130 130 130
-11.8 -24.1 13.3 90 92 91
-11.5 -24.1 13.3 69 72 71
-11.1 -24.0 13.3 51 51 49
-10.8 -23.9 13.2 51 51 51
-10.5 -23.9 13.2 183 186 185
-10.2 -24.0 13.3 181 184 183
46.4 -60.4 33.4 205 205 205
48.5 -60.1 33.2 205 205 205
48.5 -59.2 32.7 207 207 207
49.4 -59.4 32.8 207 207 207
50.2 -59.4 32.8 205 205 205
50.9 -59.3 32.7 205 205 205
50.2 -57.7 31.8 205 205 205
51.5 -58.3 32.2 205 205 205
55.1 -61.4 33.9 205 205 205
55.0 -60.4 33.4 205 205 205
54.5 -59.1 32.6 205 205 205
54.0 -57.8 31.9 205 205 205
54.8 -57.8 31.9 206 206 206
56.9 -59.2 32.7 206 206 206
33.6 -30.9 17.1 204 204 204
33.7 -30.6 16.9 204 204 204
33.5 -30.0 16.6 204 204 204
-37.8 -24.0 13.4 67 67 67
-37.6 -24.1 13.5 67 67 67
-37.3 -24.1 13.5 67 67 67
-37.0 -24.1 13.5 67 67 67
-36.7 -24.1 13.5 67 67 67
-36.4 -24.1 13.5 69 71 69
-36.1 -24.1 13.5 69 71 69
-35.7 -24.1 13.5 67 67 67
-35.4 -24.1 13.5 70 72 69
-35.1 -24.1 13.5 68 68 68
-34.8 -24.1 13.5 68 68 68
-34.5 -24.1 13.5 68 68 68
-34.2 -24.1 13.5 68 68 68
-33.8 -24.1 13.5 68 68 68
-33.5 -24.1 13.5 69 69 69
-33.2 -24.1 13.5 66 67 65
-32.9 -24.1 13.5 66 67 65
-32.6 -24.1 13.5 64 64 64
-32.3 -24.1 13.5 64 64 64
-32.0 -24.1 13.5 61 61 61
-31.6 -24.1 13.5 62 62 62
-31.4 -24.1 13.5 62 62 62
-31.0 -24.1 13.5 62 62 62
-30.7 -24.1 13.5 60 60 60
-30.5 -24.2 13.5 60 60 60
-30.1 -24.1 13.5 59 59 57
-29.7 -24.1 13.5 61 61 61
-29.4 -24.1 13.5 59 59 57
-29.1 -24.1 13.5 59 59 57
-28.9 -24.1 13.5 59 59 57
-28.5 -24.1 13.5 60 59 58
-28.2 -24.1 13.5 60 59 58
-27.9 -24.1 13.5 60 59 58
-27.6 -24.1 13.5 57 57 57
-27.3 -24.1 13.5 57 57 57
-27.0 -24.1 13.5 57 57 57
-26.6 -24.0 13.4 58 58 58
-26.3 -24.1 13.5 58 58 58
-26.0 -24.1 13.5 58 58 58
-25.7 -24.1 13.5 56 56 56
-25.4 -24.1 13.5 56 56 56
-25.1 -24.1 13.5 53 53 53
-24.8 -24.1 13.5 49 49 49
-24.6 -24.2 13.5 53 52 52
-24.2 -24.2 13.5 50 50 50
-23.8 -24.1 13.5 50 50 50
-23.5 -24.1 13.5 49 48 47
-23.2 -24.1 13.5 51 51 51
-22.9 -24.1 13.5 46 46 46
-22.5 -24.0 13.4 45 47 46
-22.2 -24.0 13.4 45 47 46
-16.6 -24.1 13.5 30 30 30
-16.3 -24.1 13.5 34 34 34
-13.6 -24.3 13.6 129 129 129
-13.3 -24.3 13.6 36 37 36
-12.9 -24.1 13.5 130 130 130
-11.5 -23.9 13.3 49 49 49
-11.2 -23.8 13.3 48 48 48
-10.9 -23.8 13.3 49 49 49
-10.6 -23.8 13.3 182 185 184
-10.3 -23.9 13.3 181 184 183
-10.1 -24.2 13.6 184 184 184
50.6 -67.3 37.6 204 204 204
47.0 -60.4 33.8 206 206 206
49.0 -60.0 33.5 206 206 206
48.7 -58.6 32.8 206 206 206
49.6 -58.8 32.9 206 206 206
50.4 -58.8 32.9 206 206 206
51.0 -58.7 32.8 204 204 204
49.8 -56.5 31.6 204 204 204
51.4 -57.4 32.1 205 205 205
55.9 -61.5 34.4 205 205 205
55.4 -60.2 33.7 205 205 205
54.7 -58.5 32.7 207 207 207
54.0 -57.1 31.9 205 205 205
54.8 -57.1 31.9 205 205 205
56.7 -58.2 32.6 205 205 205
34.1 -30.5 17.1 204 204 204
-38.3 -24.0 13.6 67 67 67
-38.1 -24.1 13.6 67 67 67
-37.8 -24.1 13.6 67 67 67
-37.4 -24.1 13.6 67 67 67
-37.2 -24.1 13.6 70 72 69
-36.8 -24.1 13.6 70 72 69
-36.5 -24.1 13.6 74 74 74
-36.2 -24.1 13.6 70 72 69
-35.9 -24.1 13.6 75 75 75
-35.5 -24.1 13.6 71 72 70
-35.2 -24.1 13.6 71 72 70
-34.9 -24.1 13.6 71 72 70
-34.6 -24.1 13.6 69 69 69
-34.2 -24.0 13.6 69 69 69
-33.9 -24.0 13.6 69 69 69
-33.6 -24.1 13.6 70 70 70
-33.3 -24.1 13.6 67 68 66
-33.0 -24.1 13.6 65 65 65
-32.7 -24.1 13.6 65 65 65
-32.4 -24.1 13.6 65 65 65
-32.1 -24.1 13.6 63 63 63
-31.8 -24.1 13.7 66 66 66
-31.4 -24.1 13.6 63 63 63
-30.9 -24.1 13.7 61 61 61
-30.4 -24.0 13.6 62 62 62
-30.1 -24.0 13.6 62 62 62
-29.2 -24.1 13.6 61 60 59
-28.8 -24.0 13.6 61 60 59
-28.6 -24.1 13.6 61 60 59
-28.3 -24.1 13.6 61 60 59
-27.7 -24.1 13.7 58 58 58
-27.3 -24.1 13.6 62 61 60
-26.9 -24.0 13.6 58 59 59
-26.7 -24.1 13.6 58 59 59
-26.4 -24.1 13.6 58 59 59
-26.0 -24.1 13.6 59 59 59
-24.5 -24.1 13.7 58 59 59
-24.1 -24.0 13.6 56 56 56
-23.8 -24.1 13.6 52 52 52
-23.6 -24.1 13.7 50 49 48
-23.2 -24.1 13.6 47 47 47
-22.8 -24.0 13.6 46 48 47
-16.9 -24.1 13.7 34 34 34
-13.4 -24.1 13.6 39 39 39
-10.5 -20.4 11.6 116 116 116
-11.6 -23.8 13.5 36 37 36
-10.4 -23.9 13.5 180 183 182
-10.2 -24.2 13.7 178 181 180
-9.9 -24.1 13.6 178 181 180
50.4 -66.1 37.5 206 206 206
49.7 -64.1 36.3 206 206 206
48.4 -61.4 34.8 206 206 206
52.7 -64.7 36.7 206 206 206
50.8 -61.4 34.8 206 206 206
51.1 -59.8 33.9 206 206 206
50.8 -58.6 33.2 206 206 206
52.1 -59.2 33.5 206 206 206
60.4 -66.7 37.8 206 206 206
56.9 -61.8 35.0 206 206 206
55.9 -59.9 34.0 206 206 206
55.2 -58.4 33.1 206 206 206
54.0 -56.3 31.9 207 207 207
57.3 -58.1 32.9 205 205 205
49.1 -48.5 27.5 205 205 205
47.9 -46.7 26.5 205 205 205
48.3 -46.5 26.3 205 205 205
1062.3 -498.4 282.3 125 125 125
823.1 -383.8 217.4 120 120 120
-14.2 -24.6 14.1 134 134 134
-13.6 -24.1 13.9 33 35 33
-10.5 -19.6 11.3 40 40 40
-10.5 -20.1 11.5 39 39 39
-10.5 -24.4 14.0 179 182 181
-10.1 -24.3 14.0 186 186 186
51.1 -66.2 38.0 206 206 206
52.9 -64.1 36.8 205 205 205
50.5 -57.4 33.0 205 205 205
49.8 -55.9 32.1 205 205 205
48.8 -53.9 31.0 206 206 206
60.8 -66.2 38.0 206 206 206
56.1 -59.4 34.1 206 206 206
55.1 -57.4 33.0 206 206 206
54.0 -55.6 31.9 206 206 206
54.4 -55.2 31.7 206 206 206
56.7 -56.7 32.6 206 206 206
47.8 -46.0 26.4 207 207 207
48.0 -45.6 26.2 205 205 205
639.4 -294.2 168.9 117 117 117
-10.5 -19.3 11.2 71 72 70
-10.6 -24.5 14.2 178 181 180
-10.3 -24.6 14.3 177 180 179
-10.2 -25.0 14.6 205 205 205
-9.7 -24.7 14.4 206 206 206
8.2 -17.3 10.1 207 207 207
11.9 -17.4 10.1 206 206 206
51.5 -65.8 38.3 205 205 205
50.5 -56.7 33.0 205 205 205
50.0 -55.3 32.2 205 205 205
49.0 -53.4 31.1 205 205 205
61.2 -65.7 38.2 207 210 209
56.0 -58.5 34.0 208 211 210
55.2 -56.8 33.1 208 211 210
54.4 -55.2 32.1 208 211 210
54.9 -54.9 32.0 206 206 206
57.4 -56.6 33.0 206 206 206
48.2 -45.7 26.6 206 206 206
48.2 -45.2 26.3 207 207 207
1171.4 -602.1 350.3 176 179 178
-15.6 -18.9 11.1 24 27 25
-10.5 -19.0 11.2 51 51 51
-10.5 -19.5 11.5 37 38 37
-10.5 -24.0 14.1 178 181 180
-9.8 -24.4 14.4 195 195 195
-5.2 -17.2 10.1 207 210 209
-4.9 -17.1 10.1 205 208 207
-4.7 -17.0 10.0 206 209 208
-3.1 -17.1 10.1 208 208 208
-2.6 -17.0 10.0 208 208 208
-2.4 -17.0 10.0 208 208 208
-0.3 -17.0 10.1 200 200 200
-0.0 -17.0 10.1 202 202 202
0.2 -17.1 10.1 198 198 198
1.6 -17.0 10.0 191 191 191
4.0 -17.2 10.1 179 179 179
4.2 -17.0 10.0 179 179 179
7.9 -17.1 10.1 207 207 207
8.2 -17.1 10.1 206 206 206
8.4 -17.1 10.1 206 206 206
8.6 -17.0 10.0 206 206 206
8.9 -17.1 10.1 206 206 206
9.1 -17.0 10.1 206 206 206
9.3 -17.1 10.1 206 206 206
9.5 -17.0 10.1 206 206 206
9.8 -17.0 10.0 206 206 206
10.0 -17.1 10.1 206 206 206
10.2 -17.0 10.0 206 206 206
10.4 -17.0 10.0 206 206 206
11.2 -17.0 10.0 206 206 206
11.4 -17.1 10.1 206 206 206
11.7 -17.1 10.1 206 206 206
11.9 -17.1 10.1 205 205 205
12.1 -17.0 10.0 205 205 205
12.5 -17.0 10.0 205 205 205
51.3 -64.7 38.1 205 205 205
49.6 -60.4 35.6 205 205 205
51.7 -61.0 36.0 203 203 203
50.8 -56.3 33.2 206 209 208
51.0 -55.6 32.8 207 210 209
49.1 -52.8 31.1 207 210 209
61.1 -64.7 38.1 207 210 209
58.1 -60.6 35.8 207 210 209
56.2 -57.9 34.1 207 210 209
55.6 -56.5 33.3 207 210 209
55.3 -55.4 32.7 207 210 209
55.4 -54.7 32.3 208 211 210
58.3 -56.8 33.5 208 211 210
57.4 -55.2 32.6 206 206 206
48.4 -45.3 26.7 206 206 206
48.2 -44.5 26.3 206 206 206
-10.5 -18.8 11.2 42 44 43
-10.5 -19.3 11.5 37 38 37
-10.6 -23.7 14.2 179 182 181
-10.2 -23.6 14.1 177 180 179
-5.5 -17.2 10.3 195 195 195
-5.3 -17.2 10.3 194 194 194
-4.7 -16.8 10.0 194 194 194
-3.4 -17.3 10.3 202 204 204
4.0 -17.1 10.2 179 179 179
8.1 -17.2 10.3 207 207 207
8.3 -17.0 10.2 206 206 206
8.5 -17.1 10.2 206 206 206
9.0 -17.2 10.3 207 210 209
9.3 -17.1 10.2 207 210 209
9.5 -17.1 10.2 206 206 206
9.7 -17.1 10.3 206 206 206
10.0 -17.2 10.3 206 206 206
10.1 -17.0 10.2 206 206 206
10.3 -17.0 10.1 206 206 206
10.5 -16.8 10.1 206 206 206
10.7 -16.8 10.0 206 206 206
10.9 -16.8 10.0 206 206 206
11.2 -16.9 10.1 206 206 206
11.6 -17.1 10.2 203 203 203
11.9 -17.1 10.2 205 205 205
12.1 -17.1 10.2 203 203 203
12.2 -16.9 10.1 207 210 209
51.6 -64.2 38.4 206 209 208
50.6 -61.8 36.9 206 209 208
42.6 -50.4 30.1 205 205 205
51.5 -59.9 35.8 204 204 204
49.7 -53.4 32.0 206 209 208
47.8 -50.7 30.3 206 209 208
61.5 -64.3 38.4 205 205 205
58.3 -60.0 35.9 207 210 209
57.0 -57.8 34.6 207 210 209
55.7 -55.0 32.9 207 210 209
53.7 -52.3 31.3 207 210 209
59.0 -56.7 33.9 207 210 209
48.3 -44.6 26.7 206 206 206
48.1 -43.9 26.2 206 206 206
-10.5 -18.5 11.2 104 104 104
-5.8 -17.0 10.3 179 179 179
-5.6 -17.1 10.4 179 179 179
-3.4 -17.1 10.4 190 190 190
-2.9 -17.0 10.3 191 191 191
-2.7 -17.0 10.3 191 191 191
-1.7 -17.0 10.3 194 194 194
-1.5 -17.0 10.3 191 191 191
-0.5 -17.0 10.3 195 195 195
0.4 -17.0 10.3 192 192 192
0.7 -17.0 10.3 192 192 192
3.1 -17.0 10.3 158 158 158
3.3 -17.0 10.3 183 183 183
3.8 -17.1 10.4 183 183 183
4.0 -17.0 10.3 178 178 178
5.7 -17.0 10.3 208 211 210
6.0 -17.0 10.3 208 211 210
7.9 -17.0 10.3 207 207 207
8.1 -17.0 10.3 206 206 206
8.4 -17.0 10.3 206 206 206
8.6 -17.0 10.3 206 206 206
8.8 -17.0 10.3 206 206 206
9.1 -17.0 10.3 207 210 209
9.3 -17.0 10.3 207 210 209
9.6 -17.0 10.3 207 210 209
9.8 -17.0 10.3 207 210 209
10.0 -17.0 10.3 206 206 206
10.3 -17.0 10.3 206 206 206
10.5 -17.0 10.3 206 206 206
11.5 -17.0 10.3 205 205 205
11.7 -17.0 10.3 205 205 205
12.0 -17.0 10.3 207 210 209
12.2 -17.0 10.3 205 205 205
12.4 -17.0 10.3 206 209 208
12.6 -17.0 10.3 206 209 208
13.4 -17.0 10.3 206 209 208
13.6 -17.0 10.3 206 209 208
51.0 -62.5 37.9 206 209 208
42.8 -49.9 30.3 206 209 208
51.3 -58.9 35.7 206 209 208
49.7 -52.7 32.0 206 209 208
47.9 -50.1 30.4 206 209 208
48.8 -50.3 30.5 206 209 208
58.1 -59.0 35.8 206 209 208
56.2 -56.3 34.1 206 209 208
56.0 -55.3 33.5 207 210 209
54.4 -53.0 32.1 207 210 209
53.9 -51.7 31.4 207 210 209
58.9 -55.8 33.8 207 210 209
56.0 -52.3 31.7 207 210 209
67.5 -62.3 37.8 207 210 209
48.4 -43.5 26.4 208 211 210
58.6 -49.0 29.7 207 207 207
-25.3 -16.4 10.1 81 83 80
-24.9 -16.3 10.0 75 76 76
-24.7 -16.3 10.0 78 78 78
-24.6 -16.4 10.1 78 78 78
-24.3 -16.3 10.0 70 70 70
-24.0 -16.3 10.0 77 77 77
-23.8 -16.3 10.0 71 71 71
-23.6 -16.3 10.0 80 80 80
-16.6 -16.3 10.0 46 48 47
-15.6 -16.3 10.0 30 30 30
-15.4 -16.3 10.0 42 42 42
-11.3 -25.4 15.6 173 173 173
-11.1 -25.7 15.8 156 159 158
43.4 -49.8 30.7 205 208 207
44.5 -50.3 30.9 205 208 207
46.2 -50.6 31.1 205 208 207
49.1 -52.9 32.6 205 208 207
49.5 -52.6 32.3 205 208 207
49.2 -51.4 31.6 205 208 207
48.3 -49.8 30.6 205 208 207
49.6 -50.3 31.0 209 212 211
60.0 -60.1 36.9 206 209 208
55.2 -54.4 33.5 206 209 208
54.5 -53.0 32.6 206 209 208
54.1 -51.9 32.0 206 209 208
54.0 -51.1 31.4 206 209 208
57.2 -53.4 32.8 205 205 205
55.2 -50.9 31.3 207 210 209
67.6 -61.5 37.8 207 210 209
57.3 -51.4 31.6 207 210 209
60.5 -50.4 31.0 208 211 210
60.1 -49.5 30.5 208 211 210
62.1 -50.6 31.1 209 212 211
61.3 -49.4 30.4 207 207 207
81.2 -39.5 24.3 180 183 182
80.9 -39.1 24.0 181 184 183
-25.4 -16.0 10.0 60 60 60
-17.0 -16.0 10.0 40 40 40
-15.0 -16.1 10.0 110 110 110
-12.8 -16.1 10.0 106 106 104
-11.2 -25.7 16.0 156 159 158
45.9 -52.8 33.0 205 208 207
47.9 -52.5 32.8 205 208 207
49.2 -52.3 32.6 205 208 207
50.0 -52.4 32.7 205 208 207
49.9 -51.5 32.1 205 208 207
48.6 -49.4 30.8 205 208 207
50.6 -50.7 31.6 208 211 210
58.2 -57.4 35.8 205 208 207
55.2 -53.7 33.5 206 209 208
54.8 -52.5 32.8 206 209 208
54.5 -51.6 32.2 206 209 208
54.6 -50.9 31.8 209 212 211
57.4 -52.8 33.0 206 209 208
56.2 -51.0 31.8 207 210 209
58.5 -51.8 32.3 207 210 209
151.8 -126.3 78.8 208 211 210
61.9 -50.9 31.7 208 211 210
62.7 -49.8 31.1 209 212 211
81.4 -38.7 24.2 182 185 184
-17.3 -15.8 10.0 124 127 126
-13.2 -15.9 10.1 34 34 34
-12.8 -15.8 10.0 47 48 47
-11.7 -25.5 16.2 176 176 176
-11.8 -26.5 16.8 163 163 163
50.4 -51.2 32.4 203 203 203
49.1 -49.1 31.1 203 203 203
57.7 -56.2 35.6 208 211 210
150.5 -144.3 91.4 208 211 210
150.5 -142.3 90.1 208 211 210
152.6 -142.3 90.1 208 211 210
55.7 -51.2 32.4 209 212 211
81.8 -38.3 24.3 183 186 185
-11.9 -26.4 17.0 165 165 165
-11.5 -26.4 17.0 162 162 162
48.0 -47.3 30.4 204 207 206
194.4 -186.3 119.7 208 211 210
171.2 -161.7 103.9 208 211 210
156.4 -145.7 93.6 208 211 210
165.2 -151.7 97.5 208 211 210
81.0 -37.4 24.1 184 187 186
-12.9 -26.4 17.2 183 183 183
-12.1 -26.5 17.3 168 168 168
-11.7 -26.5 17.3 164 164 164
47.9 -46.5 30.4 207 210 209
194.8 -181.2 118.2 207 210 209
169.9 -155.9 101.7 208 211 210
81.2 -37.2 24.3 184 187 186
80.9 -36.8 24.0 186 188 187
38.0 -15.9 10.3 162 162 162
37.9 -15.7 10.3 155 155 155
37.9 -15.6 10.2 149 149 149
-12.7 -26.6 17.6 171 173 173
-12.3 -26.5 17.5 170 172 172
-12.0 -26.7 17.7 167 167 167
48.1 -46.0 30.5 206 209 208
239.7 -219.7 145.5 207 210 209
235.6 -210.0 139.1 207 210 209
253.8 -223.1 147.8 208 211 210
267.6 -232.2 153.8 208 211 210
79.1 -35.5 23.5 187 189 189
72.2 -30.9 20.5 187 189 189
37.7 -15.5 10.3 159 162 161
37.6 -15.4 10.2 154 154 154
37.6 -15.3 10.1 148 148 148
-51.5 -27.2 18.3 62 62 62
-51.4 -27.3 18.4 69 71 69
-51.0 -27.4 18.4 77 77 77
-50.6 -27.4 18.4 77 77 77
-50.5 -27.6 18.5 67 67 67
-50.1 -27.6 18.6 47 47 47
-49.4 -27.4 18.5 49 49 49
-48.8 -27.3 18.4 141 141 141
-48.3 -27.3 18.4 60 60 60
-48.0 -27.4 18.4 20 23 21
-48.0 -27.6 18.6 20 23 21
-47.2 -27.4 18.4 29 31 29
-46.8 -27.4 18.4 35 35 35
-46.3 -27.4 18.4 26 26 26
-45.8 -27.3 18.4 20 23 21
-45.4 -27.4 18.4 28 28 28
-45.0 -27.3 18.4 29 31 29
-44.8 -27.5 18.5 40 42 42
-44.5 -27.6 18.5 50 50 50
-43.9 -27.5 18.5 61 61 61
-43.7 -27.6 18.6 59 59 59
-43.2 -27.6 18.6 50 50 50
-42.7 -27.6 18.5 40 42 42
-41.5 -27.6 18.6 124 126 125
-40.6 -27.3 18.3 150 150 150
-39.6 -27.5 18.5 19 23 20
-39.2 -27.5 18.5 28 28 28
-38.9 -27.6 18.6 35 35 35
-38.4 -27.6 18.5 46 45 43
-37.6 -27.6 18.5 61 61 61
-35.9 -27.3 18.4 67 69 67
-35.5 -27.3 18.3 67 69 67
-34.9 -27.2 18.3 71 71 71
-33.6 -27.5 18.5 58 58 58
-33.0 -27.3 18.4 58 58 58
-13.2 -27.0 18.2 172 174 174
-12.6 -26.6 17.9 170 172 172
-12.5 -27.4 18.4 168 168 168
-12.1 -27.4 18.5 157 160 159
-11.7 -27.6 18.6 163 163 163
48.1 -45.3 30.5 206 209 208
251.8 -217.9 146.6 207 210 209
261.3 -223.1 150.1 207 210 209
79.4 -35.1 23.6 188 190 190
73.5 -31.1 20.9 186 186 186
72.3 -30.4 20.5 186 186 186
37.6 -15.2 10.2 160 160 160
37.5 -15.1 10.2 156 156 156
37.6 -15.0 10.1 152 152 152
-53.4 -27.7 19.0 56 55 54
-52.9 -27.7 19.0 67 67 67
-52.5 -27.7 19.0 75 75 75
-52.0 -27.7 19.0 81 83 80
-51.6 -27.7 19.0 38 38 38
-51.0 -27.6 18.9 126 126 126
-50.5 -27.6 18.9 128 131 130
-50.3 -27.7 19.0 8 9 8
-49.8 -27.7 18.9 19 23 20
-48.6 -27.8 19.0 33 32 30
-48.1 -27.8 19.0 29 31 29
-47.7 -27.8 19.0 17 17 17
-47.2 -27.7 19.0 28 28 28
-46.8 -27.7 19.0 20 23 21
-46.4 -27.8 19.0 28 28 28
-45.9 -27.8 19.0 36 37 36
-45.5 -27.8 19.0 59 59 59
-45.0 -27.7 19.0 74 74 74
-44.6 -27.7 19.0 70 72 69
-44.2 -27.8 19.0 66 67 65
-43.7 -27.8 19.0 48 48 48
-43.2 -27.7 19.0 55 55 55
-42.8 -27.8 19.0 60 60 60
-42.5 -27.8 19.0 128 128 128
-42.0 -27.8 19.0 88 90 89
-41.8 -27.9 19.1 137 137 137
-40.6 -27.8 19.0 69 69 69
-40.7 -28.1 19.2 30 31 30
-39.7 -27.8 19.0 20 23 21
-39.3 -27.8 19.0 7 13 9
-38.4 -27.7 19.0 19 23 20
-38.4 -28.0 19.2 42 43 42
-37.8 -28.0 19.1 56 56 56
-36.8 -27.5 18.8 60 59 58
-36.4 -27.5 18.8 62 62 62
-34.4 -27.7 19.0 70 70 70
-34.0 -27.7 19.0 70 70 70
-33.5 -27.7 19.0 72 73 71
-32.2 -28.1 19.2 185 185 185
-29.9 -28.1 19.2 32 33 31
-29.5 -28.1 19.2 28 28 28
-28.7 -27.8 19.0 25 25 25
-28.3 -27.7 19.0 25 25 25
-27.8 -27.7 18.9 28 28 28
-27.7 -28.0 19.2 20 23 21
-27.2 -28.0 19.1 30 30 30
-26.8 -28.0 19.2 26 26 26
-26.4 -28.1 19.2 26 26 26
-25.9 -28.1 19.2 29 29 29
-25.5 -28.1 19.2 81 83 80
-24.7 -27.7 19.0 116 116 116
-24.5 -28.0 19.1 154 154 154
-23.9 -28.3 19.3 33 34 32
-23.0 -27.8 19.0 81 83 80
-22.5 -27.7 19.0 104 104 104
-22.1 -27.7 19.0 134 136 135
-13.1 -27.5 18.8 170 171 170
-12.7 -27.5 18.8 169 169 169
-12.3 -27.4 18.7 162 162 162
241.2 -211.3 144.4 206 209 208
222.5 -192.2 131.4 207 210 209
233.7 -199.1 136.1 207 210 209
257.2 -216.2 147.8 207 210 209
300.5 -249.3 170.4 207 210 209
280.7 -135.0 92.3 197 197 197
77.6 -32.6 22.3 188 188 188
76.6 -32.0 21.8 188 188 188
78.7 -32.6 22.3 188 188 188
78.2 -32.2 22.0 185 185 185
62.0 -24.7 16.9 162 162 162
62.0 -24.6 16.8 156 156 156
-56.2 -28.8 20.0 34 34 34
-55.8 -28.8 20.0 64 65 63
-55.3 -28.7 20.0 67 67 67
-54.8 -28.7 20.0 88 88 88
-54.3 -28.7 20.0 150 150 150
-53.8 -28.7 19.9 67 67 67
-53.5 -28.8 20.0 27 27 27
-53.0 -28.8 20.0 19 23 20
-52.5 -28.8 20.0 24 24 24
-52.1 -28.8 20.0 29 31 29
-51.6 -28.8 20.0 35 35 35
-51.1 -28.8 20.0 53 53 53
-50.7 -28.8 20.0 145 145 144
-50.2 -28.8 20.0 134 134 134
-49.7 -28.8 20.0 63 63 63
-49.3 -28.8 20.0 147 147 147
-48.8 -28.8 20.0 179 182 181
-48.3 -28.8 20.0 163 163 163
-47.9 -28.8 20.0 130 130 130
-47.4 -28.8 20.0 77 77 77
-47.0 -28.8 20.0 81 83 80
-46.5 -28.8 20.0 66 67 65
-46.0 -28.8 20.0 121 121 121
-45.6 -28.8 20.0 165 168 167
-45.2 -28.8 20.0 163 163 163
-44.6 -28.8 20.0 165 168 167
-44.0 -28.6 19.9 180 183 182
-43.7 -28.8 20.0 212 213 212
-43.3 -28.8 20.0 209 209 209
-41.8 -28.8 20.0 212 213 212
-41.5 -28.8 20.0 198 198 198
-41.0 -28.8 20.0 174 176 176
-40.4 -28.7 20.0 179 179 179
-39.9 -28.7 19.9 159 159 159
-39.5 -28.8 20.0 141 141 141
-39.1 -28.8 20.0 175 177 177
-38.6 -28.8 20.0 212 213 212
-38.1 -28.8 20.0 206 209 208
-37.7 -28.8 20.0 181 181 181
-37.2 -28.8 20.0 186 186 186
-36.7 -28.8 20.0 204 204 204
-35.3 -28.8 20.0 90 92 91
-34.9 -28.8 20.0 141 143 142
-34.0 -28.8 20.0 194 194 194
-33.5 -28.8 20.0 176 179 178
-33.0 -28.8 20.0 216 216 216
-32.6 -28.8 20.0 213 215 215
-32.1 -28.8 20.0 205 208 207
-31.6 -28.8 20.0 130 130 130
-31.1 -28.7 20.0 38 38 38
-30.7 -28.8 20.0 32 33 31
-30.2 -28.8 20.0 53 52 52
-29.7 -28.7 20.0 80 82 79
-29.3 -28.8 20.0 94 94 94
-28.8 -28.7 20.0 101 100 98
-28.4 -28.8 20.0 94 94 94
-27.9 -28.8 20.0 28 28 28
-27.5 -28.8 20.0 43 43 43
-27.0 -28.8 20.0 94 94 94
-26.5 -28.8 20.0 7 13 9
-26.0 -28.7 19.9 22 25 23
-25.2 -28.8 20.0 102 101 99
-24.7 -28.8 20.0 46 46 46
-24.2 -28.7 20.0 77 78 76
-23.7 -28.8 20.0 30 29 29
-23.3 -28.8 20.0 105 105 103
-22.8 -28.7 20.0 54 54 54
-12.9 -28.5 19.8 122 124 123
-12.6 -28.8 20.0 35 34 33
15.7 -16.5 11.5 206 209 208
227.0 -187.8 130.5 207 210 209
234.7 -189.1 131.4 207 210 209
283.5 -134.2 93.2 194 197 196
77.7 -32.1 22.3 190 190 190
76.8 -31.5 21.9 191 194 193
79.0 -32.2 22.4 190 190 190
78.8 -31.9 22.2 186 186 186
78.3 -31.5 21.9 183 183 183
62.1 -24.4 16.9 159 159 159
62.1 -24.2 16.8 156 156 156
62.5 -24.2 16.8 150 152 152
-57.6 -29.0 20.5 27 27 27
-49.2 -28.8 20.3 169 169 169
-48.7 -28.8 20.3 162 162 162
-48.2 -28.8 20.3 146 146 146
-47.8 -28.8 20.3 155 155 155
-47.3 -28.8 20.3 80 82 79
-46.8 -28.8 20.3 70 72 69
-46.3 -28.8 20.3 200 200 200
-46.0 -28.8 20.4 196 199 198
-45.3 -28.8 20.3 175 177 177
-41.8 -28.9 20.4 55 55 55
-33.8 -29.0 20.5 218 218 218
-13.5 -28.2 19.9 154 154 154
-13.1 -28.4 20.0 139 139 139
176.0 -147.2 103.9 206 209 208
170.1 -140.3 99.0 210 210 210
226.9 -110.7 78.2 204 204 204
326.3 -153.1 108.1 202 202 202
289.2 -134.7 95.1 199 199 199
237.6 -109.8 77.5 195 198 197
78.5 -32.1 22.7 191 191 191
78.0 -31.7 22.4 191 191 191
78.0 -31.5 22.3 191 191 191
79.5 -31.9 22.5 188 188 188
80.0 -31.9 22.5 188 188 188
79.4 -31.5 22.2 184 184 184
62.5 -24.1 17.0 159 159 159
62.3 -23.9 16.9 152 154 154
62.6 -23.9 16.8 150 150 150
-25.2 -14.4 10.3 169 169 169
-24.9 -14.3 10.3 178 178 178
-24.8 -14.4 10.3 148 148 148
-24.5 -14.4 10.3 101 101 101
-24.2 -14.4 10.3 200 200 200
-13.3 -28.3 20.3 166 166 166
13.7 -14.5 10.4 205 208 207
14.0 -14.5 10.4 205 208 207
14.3 -14.5 10.4 205 208 207
14.4 -14.5 10.4 205 208 207
213.7 -173.4 124.4 210 210 210
228.6 -183.0 131.4 206 209 208
285.1 -225.3 161.7 206 209 208
178.9 -124.9 89.7 214 214 214
234.8 -113.6 81.5 204 204 204
228.8 -109.8 78.8 205 205 205
324.4 -149.8 107.5 199 199 199
78.8 -31.7 22.8 193 196 195
77.9 -31.2 22.4 193 196 195
79.3 -31.3 22.5 189 189 189
80.1 -31.4 22.5 192 192 192
79.6 -31.0 22.3 185 185 185
62.4 -23.6 16.9 152 152 152
62.8 -23.5 16.9 143 145 144
-30.0 -16.8 12.3 132 135 134
-29.7 -16.8 12.3 163 163 163
-29.4 -16.8 12.3 197 197 197
-29.1 -16.8 12.3 115 117 116
-35.8 -20.9 15.2 53 53 53
-35.4 -20.9 15.2 54 54 54
-21.3 -16.7 12.2 214 216 216
-16.3 -16.9 12.3 133 133 133
-16.0 -16.8 12.3 39 39 39
-14.6 -30.5 22.3 168 168 168
199.0 -161.0 117.5 209 209 209
205.6 -164.0 119.7 210 210 210
222.4 -175.1 127.8 210 210 210
300.5 -233.5 170.4 210 210 210
236.4 -181.2 132.3 211 211 211
216.7 -164.0 119.7 207 210 209
177.8 -132.9 97.0 207 210 209
227.9 -166.1 121.3 208 211 210
187.5 -135.0 98.5 208 211 210
237.7 -165.1 120.5 209 212 211
214.5 -147.3 107.5 209 212 211
242.1 -115.2 84.1 205 205 205
228.8 -108.0 78.8 205 205 205
77.9 -30.6 22.4 193 193 193
76.8 -30.0 21.9 193 193 193
80.3 -31.2 22.7 190 190 190
80.5 -31.0 22.7 190 190 190
79.9 -30.6 22.3 186 186 186
63.3 -23.5 17.1 151 151 151
70.4 -25.3 18.5 130 130 130
-29.5 -16.4 12.2 152 152 152
-29.2 -16.4 12.2 106 106 106
-29.0 -16.4 12.2 63 63 63
-28.7 -16.4 12.2 60 60 60
-21.2 -16.4 12.1 171 173 173
-19.1 -16.5 12.3 210 210 210
-18.9 -16.5 12.3 6 11 7
-18.6 -16.5 12.3 72 72 72
-18.2 -16.4 12.2 43 43 43
-17.9 -16.4 12.2 75 77 75
-17.7 -16.5 12.3 116 118 117
-17.4 -16.4 12.2 101 101 101
-17.1 -16.5 12.2 122 122 122
-16.8 -16.4 12.2 35 35 35
-16.6 -16.5 12.3 41 41 41
-16.3 -16.5 12.3 125 125 125
-16.0 -16.5 12.2 30 31 30
-15.0 -32.0 23.7 159 162 161
259.0 -208.8 155.1 209 209 209
230.5 -183.3 136.1 209 209 209
249.9 -196.0 145.5 209 209 209
259.2 -200.6 148.9 210 210 210
300.5 -229.5 170.4 210 210 210
301.8 -227.5 168.9 210 210 210
297.7 -221.5 164.5 211 211 211
327.2 -240.4 178.5 211 211 211
316.4 -229.5 170.4 211 211 211
277.8 -199.0 147.8 211 211 211
250.0 -176.9 131.4 208 211 210
327.3 -223.5 165.9 208 211 210
264.0 -178.2 132.3 209 212 211
296.1 -197.5 146.6 209 212 211
228.8 -107.0 79.5 197 197 197
218.7 -101.5 75.4 195 195 195
80.0 -31.1 23.1 194 194 194
78.1 -30.2 22.4 194 194 194
75.7 -29.1 21.6 191 191 191
80.8 -30.6 22.7 191 191 191
80.6 -30.4 22.5 185 185 185
81.6 -30.5 22.7 177 177 177
72.2 -25.7 19.1 133 133 133
72.3 -25.6 19.0 131 131 131
72.3 -25.4 18.9 124 127 126
-21.1 -16.0 12.1 178 181 180
-20.2 -15.5 11.7 183 183 183
-19.5 -15.2 11.5 196 199 198
-16.3 -33.1 25.0 161 164 163
-15.9 -33.4 25.2 138 138 138
288.5 -231.8 175.2 211 211 211
279.7 -221.6 167.4 209 209 209
260.5 -203.6 153.8 209 209 209
277.6 -214.0 161.7 209 209 209
283.8 -215.8 163.1 209 209 209
323.9 -243.1 183.7 210 210 210
338.0 -250.4 189.2 210 210 210
339.0 -247.9 187.3 210 210 210
337.7 -240.7 181.9 211 211 211
298.8 -210.4 159.0 211 211 211
743.6 -511.0 386.0 212 213 212
342.4 -229.7 173.5 212 213 212
320.0 -212.2 160.3 214 214 214
323.7 -212.2 160.3 214 214 214
81.5 -31.2 23.6 180 183 182
79.2 -30.1 22.7 186 186 186
75.0 -28.3 21.4 186 186 186
81.8 -30.7 23.2 181 184 183
81.7 -30.4 23.0 181 184 183
81.8 -30.3 22.9 176 176 176
84.0 -30.9 23.3 169 169 169
84.9 -31.0 23.4 167 167 167
74.4 -26.0 19.7 135 135 135
74.9 -26.0 19.7 133 133 133
-20.6 -15.4 11.8 51 51 51
-20.0 -15.1 11.6 162 162 162
-19.5 -14.9 11.4 196 199 198
-19.4 -15.1 11.6 204 204 204
-19.2 -15.1 11.6 205 208 207
-18.9 -15.1 11.6 205 208 207
-18.6 -15.1 11.6 211 211 211
-18.4 -15.1 11.6 155 155 155
-18.1 -15.1 11.6 77 78 76
-17.8 -15.1 11.6 17 21 18
-17.5 -15.1 11.6 29 31 29
-17.1 -15.1 11.6 97 96 94
-16.8 -15.1 11.6 113 115 114
-16.6 -15.2 11.7 86 88 88
-16.9 -33.6 25.8 85 87 87
-16.5 -34.1 26.2 83 85 85
-16.2 -34.7 26.7 53 56 55
13.7 -13.5 10.4 209 209 209
312.9 -243.5 187.3 211 211 211
298.0 -225.7 173.5 212 213 212
302.0 -225.7 173.5 209 209 209
351.2 -258.9 199.1 210 210 210
363.4 -264.5 203.4 210 210 210
666.9 -473.0 363.8 210 210 210
358.4 -251.0 193.0 211 211 211
317.5 -219.6 168.9 211 211 211
377.6 -246.0 189.2 214 214 214
350.4 -225.7 173.5 214 214 214
82.2 -30.9 23.8 181 184 183
83.1 -30.6 23.5 176 176 176
85.5 -30.9 23.8 150 152 152
86.9 -31.2 24.0 138 140 139
86.4 -30.8 23.7 137 137 137
73.7 -25.3 19.5 132 132 132
74.5 -25.4 19.6 132 132 132
75.4 -25.6 19.7 128 131 130
-20.8 -15.2 11.9 54 54 54
-20.3 -15.1 11.8 64 65 63
-19.4 -14.5 11.4 67 67 67
-18.0 -15.2 11.9 54 54 54
-17.8 -15.2 11.9 29 30 28
-17.2 -15.0 11.7 25 25 25
-16.9 -15.0 11.7 25 25 25
-17.3 -33.8 26.5 85 85 85
-17.3 -35.0 27.4 83 85 85
-16.8 -35.3 27.6 53 53 53
-16.0 -35.0 27.4 106 108 108
51.6 -27.8 21.8 205 205 205
87.0 -30.9 24.2 134 134 134
88.8 -31.3 24.5 131 133 132
89.6 -31.4 24.6 131 133 132
73.6 -24.8 19.4 128 130 129
74.1 -24.8 19.4 129 129 129
75.4 -25.1 19.7 127 127 127
-21.0 -15.1 12.0 53 53 53
-20.4 -14.8 11.8 53 53 53
-24.2 -19.2 15.3 29 30 28
-23.9 -19.8 15.8 66 66 66
-17.3 -14.8 11.8 42 42 42
-18.1 -15.9 12.7 26 26 26
-17.9 -34.4 27.4 83 83 83
-17.6 -35.0 27.9 83 85 85
-17.1 -35.2 28.1 66 66 66
-16.3 -34.9 27.9 106 106 106
377.6 -255.0 203.4 214 214 214
51.5 -27.3 21.8 205 205 205
52.4 -27.5 21.9 203 203 203
88.5 -30.8 24.6 114 116 115
89.9 -31.1 24.8 120 120 120
90.9 -31.2 24.9 121 121 121
-24.0 -18.7 15.2 27 29 27
-23.0 -18.2 14.8 90 90 90
-23.9 -19.4 15.8 15 19 16
-17.9 -34.8 28.3 83 85 85
49.5 -25.2 20.5 195 195 195
50.0 -25.2 20.5 190 190 190
91.1 -31.0 25.2 111 111 111
92.3 -31.2 25.3 112 112 112
93.7 -31.4 25.5 112 112 112
76.4 -24.7 20.1 131 131 131
-22.0 -15.7 13.0 51 51 51
-21.8 -15.7 13.0 47 47 47
-21.5 -15.7 13.0 45 45 45
-21.2 -15.7 13.0 39 41 41
-21.0 -37.4 31.0 119 119 119
-19.9 -36.8 30.5 90 90 90
-19.0 -36.3 30.1 86 86 86
-18.3 -36.4 30.2 61 61 61
17.8 -15.5 12.8 210 210 210
444.5 -289.1 239.4 214 214 214
49.0 -24.5 20.3 195 195 195
49.5 -24.5 20.3 194 194 194
91.7 -30.6 25.3 107 107 107
93.5 -30.9 25.6 108 110 110
94.4 -31.1 25.7 107 107 107
76.7 -24.5 20.3 90 92 91
78.0 -24.7 20.5 153 153 153
-21.9 -15.3 12.9 53 52 52
-21.4 -15.3 12.9 49 49 49
-21.7 -37.9 32.0 113 115 114
-20.4 -37.0 31.2 90 90 90
-19.4 -36.4 30.8 89 89 89
-18.9 -36.8 31.1 77 77 77
-18.3 -38.7 32.7 28 30 29
17.5 -14.9 12.6 210 210 210
14.2 -11.9 10.0 209 209 209
18.3 -14.6 12.3 209 209 209
494.6 -315.5 266.4 214 214 214
46.4 -22.5 19.0 191 191 191
92.5 -30.2 25.5 104 104 104
93.8 -30.5 25.7 104 104 104
96.0 -31.0 26.2 101 103 103
96.2 -30.9 26.1 100 102 102
77.1 -24.1 20.4 62 62 62
78.1 -24.3 20.5 157 157 157
-19.8 -13.4 11.5 57 56 55
-19.4 -13.2 11.4 58 58 58
-20.7 -41.0 35.4 86 86 86
18.1 -14.3 12.4 209 209 209
18.2 -14.2 12.3 209 209 209
45.7 -21.8 18.8 193 193 193
92.7 -29.7 25.6 100 100 100
93.8 -29.9 25.7 100 100 100
96.4 -30.5 26.3 97 97 97
77.1 -23.6 20.4 77 80 79
77.3 -23.6 20.3 157 157 157
-24.0 -41.8 36.7 90 90 90
-22.6 -40.8 35.8 90 92 91
-22.3 -41.8 36.7 79 79 79
-21.4 -41.6 36.6 107 109 109
43.1 -19.9 17.5 172 174 174
50.1 -15.5 13.7 84 84 84
50.6 -15.6 13.7 70 70 70
50.9 -15.6 13.7 70 70 70
77.1 -23.0 20.3 149 149 149
-19.4 -12.7 11.4 148 148 148
-22.4 -39.6 35.6 91 94 93
42.9 -19.4 17.4 182 182 182
41.9 -18.8 16.9 121 121 121
93.5 -28.6 25.6 89 89 89
50.7 -15.4 13.8 77 80 79
51.2 -15.4 13.9 73 73 73
52.0 -15.6 14.0 73 73 73
52.3 -15.6 14.0 75 75 75
-19.2 -12.4 11.3 206 206 206
-18.3 -12.3 11.3 232 232 232
-23.8 -44.4 40.7 19 19 19
42.7 -19.0 17.4 204 204 204
51.2 -15.2 13.9 80 83 82
51.5 -15.2 13.9 75 76 76
52.3 -15.4 14.1 77 77 77
52.8 -15.4 14.1 77 77 77
-31.7 -12.0 11.3 149 149 149
-19.6 -12.2 11.4 82 82 82
-19.2 -12.1 11.3 96 96 96
-18.9 -12.0 11.3 105 104 102
-18.6 -12.0 11.3 215 218 217
-18.4 -12.0 11.3 232 232 232
-18.1 -12.0 11.3 235 235 235
-10.9 -12.2 11.4 30 29 29
-10.5 -12.0 11.2 30 29 29
-24.7 -45.1 42.2 22 23 21
-24.2 -46.0 43.1 27 27 27
-23.2 -46.0 43.1 42 44 42
1073.7 -374.1 350.3 42 42 42
50.9 -14.8 13.9 90 90 90
51.2 -14.8 13.9 77 77 77
51.8 -14.9 13.9 77 77 77
52.4 -15.0 14.0 79 81 80
52.2 -14.8 13.9 77 77 77
-19.7 -11.9 11.4 80 82 79
-19.3 -11.9 11.3 71 71 71
-10.9 -11.9 11.4 32 32 32
-27.6 -47.5 45.5 109 109 109
-32.5 -58.1 55.6 19 19 19
-24.8 -48.2 46.1 29 31 30
596.1 -201.6 193.0 42 42 42
50.4 -14.4 13.7 91 91 91
50.8 -14.4 13.8 79 82 81
51.2 -14.1 13.5 86 86 86
-20.6 -12.1 11.8 215 218 217
-19.8 -11.7 11.5 210 210 210
-19.4 -11.7 11.4 52 52 52
-10.9 -11.7 11.4 32 32 32
-31.0 -50.2 49.1 98 98 98
-28.7 -48.3 47.3 107 107 107
-30.1 -52.6 51.5 30 32 32
-27.8 -50.6 49.5 31 31 31
-25.7 -48.9 47.9 101 101 101
13.7 -10.6 10.4 218 218 218
17.1 -11.3 11.0 216 216 216
16.5 -10.7 10.4 212 213 212
521.6 -172.5 168.9 41 43 41
50.4 -14.0 13.7 93 96 95
50.8 -14.1 13.8 79 82 81
51.5 -14.2 13.9 79 82 81
51.9 -14.1 13.8 79 82 81
51.6 -13.9 13.6 90 90 90
-11.0 -11.4 11.5 32 32 32
-31.9 -54.6 54.7 44 44 44
-31.1 -55.4 55.5 19 19 19
13.7 -10.4 10.4 218 218 218
14.4 -10.4 10.4 217 217 217
14.4 -10.1 10.2 217 217 217
14.5 -10.1 10.1 217 217 217
50.5 -13.7 13.8 90 90 90
50.9 -13.8 13.8 87 87 87
-38.9 -58.0 59.5 92 95 94
-33.9 -54.4 55.8 105 105 105
-33.3 -55.5 57.0 44 44 44
-33.6 -58.4 59.9 19 19 19
-31.7 -57.5 58.9 141 141 141
-30.1 -57.1 58.6 168 168 168
13.8 -10.2 10.4 218 218 218
14.5 -10.1 10.4 217 217 217
14.3 -9.9 10.1 217 217 217
14.4 -9.8 10.0 217 217 217
17.0 -10.7 11.0 217 220 219
29.2 -9.9 10.1 89 91 90
-38.2 -64.8 68.0 19 19 19
-34.8 -61.7 64.8 158 158 158
14.3 -9.6 10.1 217 217 217
14.4 -9.5 10.0 217 217 217
16.9 -10.4 10.9 217 220 219
29.2 -9.6 10.1 91 93 92
-49.5 -78.8 84.8 25 25 25
-47.4 -78.4 84.4 21 21 21
-53.8 -92.9 100.1 168 168 168
-50.9 -92.0 99.0 171 173 173
-44.7 -84.4 90.9 172 174 174
14.3 -9.4 10.1 217 217 217
29.1 -9.4 10.1 98 98 98
-66.0 -98.4 108.7 105 105 105
-53.4 -82.7 91.4 27 27 27
-54.1 -87.4 96.5 22 23 21
-61.3 -103.2 114.0 148 150 150
-60.8 -107.0 118.2 171 173 173
-49.7 -91.6 101.2 193 193 193
-79.8 -115.9 131.4 102 102 102
-64.7 -101.7 115.3 33 33 33
-67.3 -110.5 125.3 168 168 168
-66.2 -113.5 128.7 179 179 179
-71.2 -109.0 127.0 29 29 29
-68.7 -109.8 127.8 160 163 162
-68.5 -114.4 133.2 191 191 191
418.1 -193.4 225.2 220 223 222
-71.1 -110.5 132.3 169 169 169
-102.4 -166.4 199.1 212 213 212
-93.8 -159.6 191.1 218 218 218
-115.3 -167.0 205.6 31 31 31
-80.1 -121.0 148.9 205 205 205
-118.6 -187.4 230.7 212 213 212
-101.0 -167.0 205.6 215 215 215
-221.0 -310.9 394.1 11 11 11
-162.1 -248.8 315.3 212 213 212
164.3 -53.6 70.1 202 202 202
167.1 -54.1 70.6 203 203 203
166.3 -53.3 69.5 207 207 207
17.4 -8.7 11.7 218 221 220
166.3 -51.6 69.5 205 205 205
159.7 -49.1 66.1 203 203 203
17.4 -8.5 11.7 218 221 220
17.6 -8.2 11.5 218 221 220
509.0 -197.2 274.1 219 222 221
731.8 -252.0 350.3 196 196 196
163.1 -50.0 69.5 202 202 202
164.7 -50.0 69.5 202 202 202
164.5 -49.5 68.8 204 204 204
160.8 -47.9 66.6 203 203 203
165.9 -48.9 68.0 231 231 231
17.5 -8.2 11.8 220 223 222
17.6 -8.1 11.7 218 221 220
17.5 -8.0 11.5 218 221 220
439.0 -164.6 236.5 219 222 221
705.6 -235.1 337.8 194 194 194
163.1 -48.4 69.5 202 202 202
164.1 -48.2 69.3 202 202 202
165.1 -48.1 69.0 204 204 204
160.2 -46.2 66.4 194 194 194
162.4 -46.4 66.6 229 228 226
17.4 -7.9 11.7 218 221 220
17.5 -7.8 11.6 218 221 220
17.4 -7.6 11.3 218 221 220
17.3 -7.5 11.2 218 221 220
159.7 -44.5 66.1 197 197 197
161.2 -44.5 66.1 225 227 227
-274.5 -63.3 97.5 40 40 40
-269.6 -64.3 99.0 25 25 25
-255.4 -63.7 98.0 26 26 26
-246.9 -65.0 100.1 11 11 11
-232.4 -62.4 96.0 26 26 26
-234.9 -63.7 98.0 28 28 28
-224.7 -63.3 97.5 178 178 178
-223.5 -63.7 98.0 179 182 181
-222.4 -64.0 98.5 20 23 21
-203.2 -59.1 90.9 28 28 28
-210.1 -62.4 96.0 36 35 34
-207.8 -62.4 96.0 28 28 28
-207.7 -63.0 97.0 32 33 31
-197.4 -60.5 93.2 36 35 34
-204.1 -64.0 98.5 40 40 40
-201.8 -64.0 98.5 20 23 21
-198.5 -63.7 98.0 152 152 152
-194.9 -64.0 98.5 151 151 151
-150.8 -65.7 101.2 150 150 150
-128.6 -58.8 90.5 133 133 133
60.2 -105.9 163.1 148 148 148
17.3 -7.3 11.3 219 222 221
358.4 -125.4 193.0 220 223 222
353.6 -108.7 167.4 128 130 129
156.4 -42.1 64.8 203 203 203
-277.4 -61.7 98.5 59 59 59
-282.4 -63.4 101.2 62 64 61
-283.1 -64.0 102.3 62 64 61
-288.5 -65.8 105.1 67 67 67
-279.9 -64.4 102.8 63 64 62
-267.8 -62.7 100.1 63 63 63
-262.7 -62.0 99.0 63 63 63
-260.4 -62.0 99.0 60 62 60
-260.8 -62.7 100.1 64 64 64
-258.5 -62.7 100.1 61 63 61
-256.2 -62.7 100.1 60 60 60
-264.6 -66.6 106.3 183 183 183
-255.0 -64.7 103.4 67 67 67
-244.6 -62.7 100.1 60 60 60
-238.5 -61.7 98.5 60 60 60
-242.5 -63.4 101.2 57 57 55
-245.4 -64.7 103.4 55 55 55
-231.6 -61.7 98.5 55 55 55
-233.1 -63.4 101.2 151 151 151
-228.3 -62.7 100.1 104 104 104
-227.2 -63.0 100.6 38 38 38
-220.1 -61.7 98.5 36 36 36
-222.5 -63.0 100.6 31 32 30
-215.6 -61.7 98.5 32 33 31
-213.3 -61.7 98.5 28 28 28
-215.5 -63.0 100.6 20 23 21
-207.6 -61.4 98.0 25 25 25
-208.6 -62.4 99.6 20 23 21
-211.8 -64.0 102.3 20 23 21
-207.2 -63.4 101.2 25 25 25
-201.6 -62.4 99.6 108 108 106
-201.4 -63.0 100.6 30 29 29
-203.4 -64.4 102.8 162 162 162
-193.7 -62.0 99.0 63 62 61
-167.9 -65.5 104.5 29 29 29
-158.5 -62.7 100.1 40 40 40
-155.3 -62.4 99.6 47 47 47
-150.6 -61.4 98.0 75 75 75
-160.9 -66.6 106.3 71 72 70
-152.4 -64.0 102.3 85 86 84
-149.2 -63.7 101.7 103 103 103
-150.1 -65.1 103.9 99 98 96
83.1 -75.0 119.7 222 222 222
82.3 -71.8 114.6 221 221 221
78.3 -66.2 105.7 221 221 221
450.4 -153.9 245.7 220 223 222
354.7 -119.7 191.1 220 223 222
481.9 -144.5 230.7 175 175 175
239.0 -70.1 111.9 162 165 164
159.1 -41.3 65.9 199 199 199
162.9 -41.9 66.8 226 229 228
-295.9 -63.4 105.1 67 67 67
-295.1 -63.7 105.7 67 67 67
-297.6 -64.8 107.5 67 67 67
-300.2 -65.9 109.3 68 68 68
-292.6 -64.8 107.5 71 71 71
-273.9 -63.4 105.1 71 71 71
-274.5 -64.1 106.3 70 70 70
-270.7 -65.6 108.7 184 184 184
-263.6 -64.5 106.9 83 84 82
-256.8 -63.4 105.1 75 75 75
-254.7 -64.1 106.3 70 72 69
-253.7 -64.5 106.9 75 75 75
-244.6 -63.4 105.1 92 95 94
-243.5 -63.7 105.7 171 173 173
-239.7 -63.4 105.1 140 140 140
-237.2 -63.4 105.1 86 87 85
-226.3 -63.7 105.7 58 58 58
-210.9 -60.0 99.6 56 56 56
-222.7 -64.8 107.5 64 64 64
-216.5 -63.7 105.7 97 97 97
-212.8 -63.4 105.1 144 146 146
-215.2 -64.8 107.5 70 72 69
-211.5 -64.5 106.9 158 161 160
-172.7 -64.8 107.5 29 29 29
-166.4 -63.4 105.1 33 34 32
-158.4 -64.1 106.3 59 59 59
-155.2 -64.8 107.5 40 40 40
82.1 -71.3 118.2 219 219 219
77.6 -65.2 108.1 219 219 219
74.5 -60.7 100.6 222 222 222
462.4 -152.1 252.2 222 224 224
369.7 -120.1 199.1 220 220 220
506.6 -146.3 242.5 180 180 180
391.7 -111.8 185.5 100 100 100
160.2 -40.0 66.4 203 203 203
162.4 -40.2 66.6 232 232 232
-190.8 -52.2 90.1 69 71 69
78.9 -63.8 110.0 220 220 220
78.7 -61.6 106.3 220 220 220
17.6 -6.8 11.7 220 220 220
17.4 -6.6 11.4 219 219 219
351.2 -109.7 189.2 221 221 221
319.6 -87.7 151.3 89 89 89
237.6 -64.5 111.3 149 149 149
157.5 -37.8 65.2 203 203 203
157.9 -37.6 64.8 236 236 236
17.5 -6.5 11.6 220 223 222
17.5 -6.4 11.4 220 220 220
356.7 -94.0 168.9 64 63 61
229.5 -59.8 107.5 139 141 140
158.6 -36.6 65.7 198 198 198
17.6 -6.1 11.5 218 218 218
166.7 -37.6 77.2 175 175 175
135.3 -30.2 62.0 183 183 183
152.2 -33.6 69.0 189 189 189
146.9 -32.1 65.9 190 190 190
204.8 -44.3 90.9 194 194 194
171.9 -35.7 73.3 200 200 200
170.3 -35.0 71.9 204 204 204
128.2 -93.5 252.2 220 223 222
134.1 -93.5 252.2 220 223 222
140.0 -93.5 252.2 220 223 222
145.8 -93.5 252.2 220 223 222
151.7 -93.5 252.2 220 223 222
157.5 -93.5 252.2 220 223 222
163.4 -93.5 252.2 218 218 218
169.3 -93.5 252.2 218 218 218
175.1 -93.5 252.2 212 213 212
181.0 -93.5 252.2 113 114 113
186.9 -93.5 252.2 96 96 96
192.7 -93.5 252.2 193 193 193
198.6 -93.5 252.2 205 205 205
201.8 -92.2 248.9 205 205 205
199.7 -88.7 239.4 205 205 205
21.6 -4.6 12.4 221 221 221
22.5 -4.6 12.4 221 221 221
22.8 -4.6 12.4 221 221 221
23.1 -4.6 12.4 221 221 221
23.3 -4.6 12.4 221 221 221
23.5 -4.6 12.4 221 221 221
24.0 -4.6 12.4 221 221 221
24.2 -4.6 12.4 221 221 221
526.9 -93.5 252.2 157 157 157
518.9 -91.1 245.7 102 104 104
517.9 -89.9 242.5 110 112 111
635.7 -104.6 282.3 193 193 193
606.1 -98.7 266.4 193 193 193
564.6 -91.1 245.7 195 195 195
577.8 -92.2 248.9 198 198 198
561.4 -88.7 239.4 199 199 199
553.0 -86.6 233.5 199 199 199
579.9 -89.9 242.5 205 205 205
617.2 -94.7 255.6 194 194 194
614.8 -93.5 252.2 222 222 222
581.9 -87.6 236.5 220 220 220
594.8 -88.7 239.4 123 123 123
793.4 -113.1 305.1 62 62 62
551.4 -77.9 210.2 63 65 65
790.6 -100.2 270.2 143 143 142
833.9 -101.6 274.1 66 66 64
794.3 -96.0 259.1 56 56 56
834.6 -100.2 270.2 53 52 51
829.0 -98.7 266.4 49 49 49
741.3 -87.6 236.5 57 57 57
746.8 -87.6 236.5 80 83 82
802.4 -93.5 252.2 73 73 73
777.2 -89.9 242.5 42 43 42
772.9 -88.7 239.4 32 32 32
21.5 -4.3 12.5 221 221 221
21.7 -4.3 12.4 221 221 221
21.9 -4.3 12.4 221 221 221
22.3 -4.3 12.5 221 221 221
22.5 -4.3 12.4 221 221 221
22.8 -4.3 12.4 222 222 222
23.1 -4.3 12.5 222 222 222
23.4 -4.3 12.4 222 222 222
23.7 -4.3 12.4 222 222 222
24.0 -4.3 12.5 222 222 222
24.3 -4.3 12.4 222 222 222
24.4 -4.3 12.4 222 222 222
564.0 -74.7 215.0 64 66 66
22.7 -4.1 12.7 222 222 222
23.1 -4.1 12.6 222 222 222
23.4 -4.1 12.6 220 220 220
23.6 -4.1 12.6 222 222 222
24.4 -4.2 12.8 222 222 222
24.3 -4.1 12.6 220 220 220
24.3 -4.0 12.5 222 222 222
24.5 -3.9 12.9 220 220 220
24.7 -3.9 12.8 220 220 220
23.9 -3.6 13.0 221 221 221
24.2 -3.6 13.0 221 221 221
24.5 -3.6 13.0 221 221 221
24.6 -3.6 12.9 221 221 221
24.8 -3.6 12.9 221 221 221
24.4 -3.2 12.5 221 221 221
34.4 -4.6 20.0 222 222 222
34.9 -4.6 20.0 222 222 222
35.2 -4.6 19.9 222 222 222
35.1 -4.5 19.7 222 222 222
34.8 -4.2 20.0 224 224 224
34.9 -4.1 19.8 224 224 224
34.6 -4.0 19.4 224 224 224
34.3 -3.7 20.0 227 227 227
34.8 -3.7 20.0 224 224 224
34.7 -3.6 19.7 219 222 221
34.7 -3.6 19.4 224 224 224
528.0 -37.2 201.2 66 68 67
34.8 -3.2 20.0 220 223 222
34.9 -3.2 19.8 220 223 222
34.6 -3.1 19.4 220 223 222
24.6 -2.1 12.9 219 222 221
539.4 -33.2 205.6 66 68 67
34.5 -2.7 19.3 220 223 222
24.5 -1.8 12.9 220 223 222
24.7 -1.8 12.8 220 223 222
740.7 -39.0 282.3 64 64 64
24.7 -1.5 13.0 222 224 224
24.7 -1.2 13.3 222 224 224
24.8 -1.2 13.2 222 224 224
21.1 -0.8 12.1 220 223 222
21.3 -0.8 12.1 223 225 225
22.1 -0.8 12.2 223 225 225
22.3 -0.8 12.1 223 225 225
23.8 -0.8 12.0 222 224 224
24.9 -0.8 12.2 222 224 224
21.0 -0.5 12.1 223 225 225
21.3 -0.5 12.1 223 225 225
21.6 -0.5 12.1 223 225 225
22.1 -0.6 12.2 223 225 225
22.2 -0.5 12.1 223 225 225
22.5 -0.5 12.1 223 225 225
22.7 -0.5 12.1 223 225 225
23.0 -0.5 12.1 223 225 225
24.4 -0.6 12.5 220 223 222
23.8 -0.5 12.1 220 223 222
24.9 -0.6 12.2 220 223 222
21.3 -0.3 12.1 222 224 224
22.3 -0.3 12.3 222 224 224
22.6 -0.3 12.0 222 224 224
24.0 -0.3 12.4 222 224 224
24.2 -0.3 12.4 222 224 224
23.6 -0.3 12.0 220 223 222
23.1 -0.3 11.4 220 223 222
25.1 -0.3 12.3 220 223 222
24.0 0.0 12.5 222 224 224
24.3 0.0 12.4 222 224 224
25.1 0.0 12.3 222 224 224
22.5 0.3 12.4 223 225 225
24.0 0.3 12.5 223 225 225
24.3 0.3 12.5 221 221 221
25.3 0.3 12.5 221 221 221
25.4 0.3 12.4 221 221 221
22.5 0.6 12.4 224 224 224
24.1 0.6 12.5 222 222 222
24.3 0.6 12.5 222 222 222
25.4 0.6 12.6 222 222 222
25.4 0.6 12.4 223 225 225
24.2 0.9 12.6 224 224 224
24.3 0.9 12.5 221 221 221
25.7 0.9 12.7 224 224 224
25.4 0.9 12.4 224 224 224
22.6 1.2 12.7 224 224 224
22.8 1.2 12.6 224 224 224
24.3 1.2 12.8 222 222 222
24.3 1.2 12.6 222 222 222
24.4 1.2 12.5 222 222 222
25.7 1.2 12.7 222 222 222
25.4 1.2 12.4 222 222 222
24.3 1.5 12.4 224 224 224
25.0 1.4 12.3 220 220 220
24.4 1.8 12.5 221 221 221
25.2 1.7 12.3 219 219 219
98.5 3.8 26.8 97 100 99
24.3 2.1 12.6 222 222 222
24.3 2.0 12.5 222 222 222
101.4 4.6 28.0 146 146 146
100.1 4.5 27.5 112 114 113
99.0 4.4 27.0 97 97 97
99.2 4.4 26.9 88 88 86
99.3 5.1 27.1 98 98 98
103.1 5.1 27.1 90 90 90
102.8 5.7 27.0 87 87 85
102.8 5.6 26.8 177 177 177
102.1 6.3 26.8 85 85 85
101.0 6.2 26.3 166 169 168
101.9 6.9 26.8 180 179 177
100.3 6.7 26.2 164 167 166
102.1 7.5 26.8 127 127 127
99.6 7.3 26.0 164 167 166
102.9 8.2 27.0 137 137 137
100.7 8.0 26.3 152 154 154
27.2 5.8 12.4 202 202 202
27.2 6.2 12.6 202 202 202
27.2 6.1 12.5 202 202 202
27.2 6.5 12.6 205 205 205
27.2 6.4 12.5 199 199 199
27.2 6.7 12.6 203 203 203
27.3 6.7 12.5 200 200 200
27.2 7.0 12.6 200 200 200
26.7 6.8 12.1 200 200 200
27.7 7.6 13.0 202 202 202
27.3 7.4 12.7 200 200 200
27.3 7.3 12.5 200 200 200
218.7 238.7 394.1 140 140 140
27.3 7.6 12.6 202 202 202
27.3 7.6 12.5 198 198 198
48.7 15.6 22.3 200 200 200
49.5 15.7 22.4 196 199 198
49.9 15.6 22.4 200 200 200
50.2 15.6 22.3 199 199 199
51.7 15.5 22.3 199 199 199
52.3 15.6 22.3 195 198 197
52.3 15.4 22.1 192 195 194
53.9 15.6 22.3 192 195 194
47.6 15.9 22.0 196 199 198
47.5 15.7 21.8 193 196 195
48.2 15.8 21.9 193 196 195
49.1 15.7 21.8 193 196 195
49.6 15.7 21.8 193 196 195
49.5 15.5 21.5 193 196 195
50.8 15.8 21.9 195 198 197
51.8 15.9 22.1 192 195 194
51.5 15.7 21.7 192 195 194
51.6 15.6 21.6 186 186 186
-404.2 311.9 394.1 143 143 142
-376.7 311.9 394.1 103 105 105
178.3 305.6 386.0 193 196 195
264.5 321.1 394.1 189 189 189
22.7 9.3 11.4 221 221 221
22.9 9.2 11.3 219 219 219
23.0 9.2 11.3 181 181 181
24.2 9.2 11.3 195 198 197
24.5 9.2 11.3 195 198 197
24.7 9.2 11.3 195 198 197
25.0 9.2 11.3 195 198 197
25.6 9.3 11.4 195 198 197
25.8 9.2 11.3 194 197 196
26.3 9.2 11.3 194 197 196
26.5 9.2 11.3 194 197 196
26.8 9.2 11.3 194 194 194
27.0 9.2 11.3 191 191 191
27.7 9.3 11.4 165 165 165
27.8 9.2 11.3 176 176 176
20.5 9.0 10.8 218 218 218
22.4 9.5 11.3 222 222 222
24.5 9.0 10.8 195 198 197
24.7 9.0 10.7 195 198 197
25.0 9.0 10.8 195 198 197
25.2 9.0 10.8 195 198 197
25.5 9.0 10.8 194 197 196
25.8 9.0 10.8 191 191 191
25.9 9.0 10.7 124 124 124
26.5 9.0 10.8 178 181 180
26.7 9.0 10.7 179 182 181
56.4 32.9 22.1 96 99 98
55.7 32.2 21.6 93 93 93
56.3 33.3 22.0 107 107 107
56.0 32.9 21.7 96 99 98
58.9 35.7 23.3 129 132 131
56.8 34.1 22.2 118 118 118
56.6 33.7 22.0 110 110 110
55.1 32.6 21.2 104 104 104
28.8 18.6 11.9 164 164 164
58.4 36.0 23.1 127 127 127
56.8 34.7 22.3 120 120 120
56.2 34.0 21.8 112 114 113
55.1 33.1 21.2 112 114 113
356.9 153.6 98.5 110 112 111
523.8 230.2 145.5 109 109 109
544.8 242.9 151.3 109 109 109
519.8 235.1 144.4 109 109 109
