ply
format ascii 1.0
element vertex 2073
property float x
property float y
property float z
property uchar red
property uchar green
property uchar blue
end_header
117.0 -197.8 78.8 158 161 160
117.9 -196.1 78.2 158 161 160
122.0 -196.9 78.5 155 158 157
123.8 -196.9 78.5 156 159 158
125.7 -196.9 78.5 156 159 158
57.7 -38.0 15.1 212 213 212
57.9 -37.9 15.1 205 205 205
111.9 -190.4 76.6 158 161 160
109.7 -183.7 73.9 163 163 163
114.4 -183.0 73.6 155 158 157
118.0 -185.9 74.8 159 162 161
118.3 -183.7 73.9 156 159 158
116.8 -178.8 71.9 156 159 158
101.2 -152.7 61.4 157 160 159
76.1 -54.7 22.0 96 96 96
76.2 -54.4 21.9 93 93 93
60.0 -39.2 15.8 209 209 209
167.4 -355.6 144.4 164 164 164
166.9 -347.6 141.2 164 164 164
170.2 -347.6 141.2 164 164 164
173.5 -347.6 141.2 161 161 161
175.5 -345.1 140.1 164 164 164
171.1 -330.4 134.2 165 165 165
182.0 -345.1 140.1 162 162 162
188.0 -350.2 142.2 165 165 165
198.8 -363.9 147.8 165 165 165
85.9 -140.3 57.0 163 163 163
81.6 -131.2 53.3 163 163 163
86.0 -136.2 55.3 163 163 163
89.1 -139.1 56.5 164 164 164
94.5 -143.3 58.2 159 162 161
92.7 -138.6 56.3 160 163 162
87.1 -128.3 52.1 160 163 162
55.0 -76.7 31.2 162 165 164
57.5 -77.3 31.4 160 163 162
75.2 -53.5 21.7 96 96 96
73.5 -52.0 21.1 93 93 93
72.4 -50.9 20.7 91 91 91
61.3 -40.4 16.4 183 186 185
61.5 -40.3 16.3 163 166 165
61.9 -40.3 16.4 212 213 212
61.4 -39.7 16.1 196 196 196
76.0 -140.3 57.5 165 165 165
87.8 -144.2 59.1 166 166 166
84.9 -137.3 56.3 166 166 166
75.8 -120.8 49.5 166 166 166
88.8 -137.3 56.3 167 167 167
96.0 -144.2 59.1 164 164 164
93.6 -138.6 56.8 165 165 165
55.6 -76.9 31.5 162 165 164
55.6 -75.9 31.1 159 162 161
56.8 -76.5 31.4 160 163 162
58.1 -77.3 31.7 160 163 162
58.2 -76.5 31.4 160 163 162
71.3 -50.3 20.6 96 96 96
72.1 -50.5 20.7 93 93 93
70.8 -49.2 20.2 93 93 93
70.3 -48.6 19.9 93 93 93
61.3 -40.0 16.4 207 207 207
61.6 -39.9 16.4 216 216 216
61.8 -39.8 16.3 200 202 202
60.9 -39.0 16.0 191 191 191
60.4 -38.5 15.8 216 216 216
56.5 -105.1 43.5 167 167 167
65.3 -106.3 44.0 168 168 168
77.5 -124.2 51.4 168 168 168
68.2 -106.0 43.9 163 163 163
135.2 -204.0 84.4 167 167 167
131.3 -195.3 80.8 169 169 169
59.0 -78.8 32.6 162 165 164
60.2 -79.3 32.8 163 166 165
60.7 -78.9 32.7 160 163 162
59.6 -37.6 15.5 216 216 216
16.2 -93.5 39.1 160 160 160
17.1 -93.1 38.9 163 163 163
18.1 -93.5 39.1 162 162 162
19.0 -93.7 39.2 162 162 162
23.5 -93.5 39.1 168 170 169
24.3 -93.1 38.9 168 170 169
25.2 -93.1 38.9 168 170 169
26.2 -93.3 39.0 168 170 169
27.1 -93.5 39.1 166 166 166
28.0 -93.3 39.0 167 167 167
28.9 -93.3 39.0 167 167 167
29.8 -93.3 39.0 167 167 167
30.6 -93.1 38.9 167 167 167
31.7 -93.5 39.1 167 167 167
32.6 -93.5 39.1 164 164 164
33.5 -93.5 39.1 164 164 164
34.4 -93.5 39.1 164 164 164
35.3 -93.5 39.1 165 165 165
36.2 -93.5 39.1 165 165 165
37.1 -93.5 39.1 165 165 165
38.0 -93.5 39.1 165 165 165
38.9 -93.5 39.1 165 165 165
40.0 -93.9 39.2 165 165 165
40.8 -93.7 39.2 165 165 165
41.6 -93.3 39.0 166 166 166
42.6 -93.5 39.1 166 166 166
43.4 -93.3 39.0 169 169 169
44.3 -93.3 39.0 169 169 169
45.3 -93.5 39.1 166 166 166
46.2 -93.5 39.1 169 169 169
47.3 -93.9 39.2 169 169 169
48.1 -93.7 39.2 169 169 169
48.9 -93.5 39.1 170 171 170
49.8 -93.5 39.1 170 171 170
50.4 -92.9 38.8 170 171 170
51.3 -92.9 38.8 170 171 170
53.0 -94.3 39.4 170 171 170
53.7 -93.9 39.2 170 171 170
76.4 -127.1 53.1 170 171 170
57.5 -94.1 39.3 172 172 172
59.9 -96.5 40.3 172 172 172
60.2 -95.5 39.9 172 172 172
62.4 -97.5 40.8 172 172 172
59.8 -92.0 38.4 172 172 172
143.5 -214.5 89.7 173 173 173
136.5 -201.2 84.1 169 169 169
61.2 -79.8 33.4 168 168 168
55.0 -34.5 14.4 218 218 218
54.7 -34.1 14.3 218 218 218
15.3 -87.0 36.7 163 163 163
16.1 -86.7 36.6 163 163 163
16.9 -86.5 36.5 164 164 164
17.6 -86.0 36.3 164 164 164
22.0 -86.9 36.7 168 170 169
22.8 -86.5 36.5 168 170 169
23.6 -86.4 36.4 168 170 169
24.5 -86.4 36.4 166 166 166
25.4 -86.5 36.5 166 166 166
26.3 -86.9 36.7 167 167 167
27.1 -86.7 36.6 167 167 167
27.9 -86.5 36.5 167 167 167
28.8 -86.7 36.6 164 164 164
29.5 -86.4 36.4 167 167 167
30.4 -86.4 36.4 167 167 167
31.2 -86.4 36.4 164 164 164
32.1 -86.5 36.5 168 168 168
32.9 -86.4 36.4 168 168 168
33.8 -86.4 36.4 170 172 172
34.6 -86.4 36.4 165 165 165
35.5 -86.5 36.5 168 168 168
36.4 -86.5 36.5 168 168 168
37.2 -86.4 36.4 168 168 168
38.0 -86.4 36.4 165 165 165
38.6 -85.9 36.2 168 168 168
39.7 -86.4 36.4 169 169 169
40.6 -86.5 36.5 169 169 169
41.4 -86.4 36.4 171 173 173
42.3 -86.4 36.4 171 173 173
43.2 -86.5 36.5 171 173 173
44.1 -86.7 36.6 171 173 173
44.9 -86.5 36.5 171 173 173
45.8 -86.7 36.6 171 173 173
46.6 -86.5 36.5 167 167 167
47.1 -85.9 36.2 172 174 174
47.8 -85.7 36.2 172 174 174
49.7 -87.5 36.9 172 174 174
50.2 -86.9 36.7 175 177 177
50.9 -86.7 36.6 172 174 174
52.2 -87.4 36.9 172 174 174
53.1 -87.5 36.9 173 175 175
54.1 -87.7 37.0 173 175 175
54.9 -87.5 36.9 173 175 175
55.8 -87.7 37.0 173 175 175
56.8 -87.9 37.1 173 175 175
57.2 -87.2 36.8 173 175 175
56.7 -85.2 36.0 174 176 176
149.2 -220.8 93.2 174 176 176
58.3 -75.3 31.8 170 171 170
15.2 -81.1 34.6 165 165 165
15.9 -81.0 34.5 168 168 168
16.7 -80.8 34.5 167 167 167
21.0 -81.7 34.8 168 170 169
21.6 -81.3 34.6 166 166 166
22.4 -81.0 34.5 166 166 166
23.1 -80.7 34.4 166 166 166
23.9 -80.8 34.5 169 171 170
24.7 -80.8 34.5 169 171 170
25.5 -80.8 34.5 167 167 167
26.3 -80.7 34.4 167 167 167
27.1 -80.8 34.5 167 167 167
27.9 -80.7 34.4 169 171 170
28.7 -80.7 34.4 169 171 170
29.5 -80.7 34.4 169 171 170
30.3 -80.8 34.5 169 171 170
31.1 -80.8 34.5 170 172 172
31.9 -80.8 34.5 170 172 172
32.7 -80.8 34.5 170 172 172
33.5 -80.8 34.5 173 175 175
34.3 -80.7 34.4 170 172 172
35.1 -80.8 34.5 170 172 172
35.9 -80.8 34.5 173 175 175
36.6 -80.6 34.3 171 173 173
37.5 -80.8 34.5 171 173 173
38.4 -81.0 34.5 174 176 176
39.1 -80.7 34.4 171 173 173
39.9 -80.7 34.4 180 180 180
40.8 -81.0 34.5 171 173 173
41.6 -81.0 34.5 179 179 179
42.3 -80.8 34.5 179 179 179
43.1 -80.8 34.5 179 179 179
43.9 -80.7 34.4 175 177 177
44.6 -80.6 34.3 175 177 177
45.5 -80.8 34.5 175 177 177
46.8 -81.6 34.8 180 180 180
47.4 -81.3 34.6 175 177 177
48.0 -80.8 34.5 180 180 180
49.0 -81.3 34.6 181 181 181
49.9 -81.4 34.7 181 181 181
51.2 -82.2 35.0 181 181 181
51.3 -81.1 34.6 173 175 175
52.4 -81.6 34.8 173 175 175
53.6 -82.2 35.0 181 181 181
55.3 -83.4 35.6 181 181 181
54.6 -81.1 34.6 177 180 179
55.1 -80.7 34.4 177 180 179
55.7 -80.4 34.3 174 176 176
58.5 -75.9 32.3 177 180 179
58.0 -74.2 31.6 177 180 179
15.6 -78.5 33.8 169 171 170
21.8 -78.3 33.7 168 170 169
27.1 -77.6 33.4 169 171 170
27.9 -77.6 33.4 177 177 177
28.6 -77.6 33.4 169 171 170
35.4 -77.2 33.2 189 189 189
36.3 -77.4 33.3 189 189 189
38.0 -77.6 33.4 195 195 195
40.4 -77.9 33.5 198 198 198
40.8 -77.1 33.2 195 195 195
41.8 -77.6 33.4 193 193 193
42.5 -77.4 33.3 195 195 195
43.1 -77.1 33.2 198 198 198
44.1 -77.5 33.4 198 198 198
45.4 -78.5 33.8 198 198 198
46.1 -78.2 33.7 198 198 198
46.5 -77.6 33.4 202 202 202
47.5 -78.1 33.6 198 198 198
48.4 -78.2 33.7 195 195 195
49.9 -79.3 34.1 198 198 198
49.5 -77.5 33.4 198 198 198
50.1 -77.2 33.2 195 195 195
51.7 -78.5 33.8 198 198 198
54.1 -80.9 34.8 198 198 198
53.3 -78.5 33.8 199 199 199
53.8 -78.1 33.6 199 199 199
54.6 -78.1 33.6 199 199 199
53.9 -35.7 15.4 96 96 96
54.2 -35.6 15.3 96 96 96
38.8 -71.3 31.0 205 205 205
39.0 -70.4 30.6 205 205 205
40.1 -71.1 30.9 205 205 205
40.3 -70.2 30.5 205 205 205
41.5 -71.0 30.9 205 205 205
43.4 -72.9 31.7 205 205 205
43.2 -71.4 31.1 205 205 205
44.2 -71.8 31.2 205 205 205
45.8 -73.2 31.8 205 205 205
46.3 -72.9 31.7 205 205 205
45.2 -70.1 30.5 205 205 205
46.1 -70.3 30.6 205 205 205
47.3 -71.1 30.9 205 205 205
50.1 -73.0 31.7 206 206 206
54.4 -77.0 33.5 206 206 206
169.9 -233.9 101.7 204 204 204
54.2 -35.3 15.4 96 96 96
35.5 -71.1 31.2 205 205 205
36.7 -70.6 31.0 205 205 205
37.1 -70.0 30.8 205 205 205
38.2 -70.8 31.1 207 207 207
38.6 -70.1 30.8 205 205 205
39.0 -69.7 30.6 205 205 205
40.1 -70.3 30.9 205 205 205
40.4 -69.6 30.6 205 205 205
41.3 -69.9 30.7 205 205 205
42.9 -71.3 31.3 205 205 205
42.9 -70.3 30.9 205 205 205
43.7 -70.4 30.9 205 205 205
44.6 -70.6 31.0 205 205 205
45.8 -71.4 31.4 205 205 205
45.2 -69.2 30.4 205 205 205
46.0 -69.5 30.5 205 205 205
46.8 -69.6 30.6 205 205 205
49.5 -71.4 31.4 206 206 206
50.1 -71.3 31.3 206 206 206
53.4 -74.9 32.9 206 206 206
164.6 -224.3 98.5 207 207 207
66.4 -44.9 19.7 105 104 102
64.9 -43.6 19.1 105 104 102
65.2 -43.5 19.1 99 101 101
52.6 -33.7 14.8 97 100 99
36.1 -71.5 31.7 205 205 205
37.7 -71.8 31.8 205 205 205
38.3 -71.5 31.7 205 205 205
38.9 -71.4 31.7 205 205 205
39.3 -70.7 31.4 205 205 205
40.1 -70.9 31.5 205 205 205
41.3 -71.6 31.8 205 205 205
41.9 -71.4 31.7 205 205 205
42.6 -71.4 31.7 205 205 205
43.5 -71.6 31.8 205 205 205
44.2 -71.5 31.7 207 207 207
44.8 -71.3 31.6 205 205 205
45.8 -71.8 31.8 205 205 205
46.9 -72.4 32.1 205 205 205
46.8 -71.0 31.5 205 205 205
46.9 -70.1 31.1 205 205 205
48.1 -70.8 31.4 205 205 205
49.9 -71.3 31.6 206 206 206
50.9 -71.6 31.8 206 206 206
52.7 -73.1 32.4 206 206 206
54.1 -74.0 32.8 207 207 207
53.7 -72.4 32.1 207 207 207
69.7 -46.9 20.8 109 109 109
66.6 -44.5 19.8 106 106 106
67.1 -44.3 19.6 106 106 106
54.0 -34.5 15.3 99 101 101
53.1 -33.6 14.9 99 101 101
46.1 -68.2 30.6 207 207 207
50.2 -71.0 31.8 207 207 207
51.4 -71.6 32.1 205 205 205
53.1 -72.9 32.7 206 206 206
54.3 -73.5 33.0 206 206 206
54.6 -72.9 32.7 206 206 206
27.9 -35.7 16.0 207 207 207
75.5 -50.7 22.7 112 114 113
69.4 -45.4 20.3 109 109 109
54.1 -34.2 15.3 106 106 106
45.9 -67.1 30.4 206 206 206
46.3 -66.7 30.2 206 206 206
47.3 -67.1 30.4 206 206 206
49.4 -69.1 31.3 207 207 207
49.9 -68.8 31.2 207 207 207
52.8 -71.7 32.5 207 207 207
54.2 -72.6 32.9 205 205 205
54.6 -72.1 32.7 208 208 208
55.1 -71.7 32.5 208 208 208
27.4 -34.3 15.5 207 207 207
845.7 -623.1 282.3 138 138 138
53.4 -33.4 15.1 109 109 109
-28.4 -22.1 10.1 42 43 42
-27.7 -22.1 10.1 46 45 43
-27.5 -22.1 10.1 42 43 42
-24.5 -22.1 10.1 42 42 42
-24.2 -22.0 10.1 39 39 39
-23.9 -22.0 10.1 36 37 36
-23.7 -22.0 10.1 36 37 36
-23.5 -22.0 10.1 42 42 42
-23.3 -22.0 10.1 39 39 39
-23.0 -22.1 10.1 42 42 42
-22.8 -22.1 10.1 42 42 42
-22.5 -22.0 10.1 45 44 43
-22.1 -22.1 10.1 46 46 46
-20.5 -22.1 10.1 101 101 101
-20.2 -22.0 10.1 102 102 102
-19.9 -22.0 10.1 108 110 110
-18.3 -22.1 10.1 108 110 110
-18.1 -22.1 10.1 112 112 112
-17.8 -22.0 10.1 115 114 114
-17.6 -22.1 10.1 113 114 113
-17.1 -22.0 10.1 115 114 114
-16.8 -21.9 10.0 115 114 114
-16.7 -22.0 10.1 117 119 118
-16.4 -21.9 10.0 117 119 118
-16.1 -21.8 10.0 117 119 118
-15.7 -22.0 10.1 123 123 123
-15.4 -21.9 10.0 124 124 124
-14.9 -21.9 10.0 126 126 126
-14.7 -21.8 10.0 126 126 126
-14.6 -22.0 10.1 128 128 128
-14.3 -22.0 10.1 130 130 130
-13.6 -22.0 10.1 129 129 129
45.8 -67.4 30.9 205 205 205
45.6 -66.0 30.2 205 205 205
48.8 -67.5 30.9 206 206 206
48.6 -66.3 30.4 206 206 206
51.4 -69.1 31.6 206 206 206
53.5 -70.9 32.4 207 207 207
53.7 -70.2 32.2 207 207 207
54.1 -69.8 32.0 205 205 205
28.0 -35.2 16.1 206 206 206
27.2 -33.7 15.4 206 206 206
26.7 -32.7 15.0 206 206 206
-23.8 -21.6 10.0 37 38 37
-16.8 -21.6 10.0 112 112 112
-14.9 -21.6 10.0 120 122 121
-14.5 -21.6 10.0 123 123 123
-9.4 -22.9 10.6 138 140 139
37.9 -65.4 30.3 205 205 205
38.5 -65.2 30.2 205 205 205
39.4 -65.6 30.4 205 205 205
39.9 -65.3 30.2 205 205 205
46.0 -66.9 31.0 205 205 205
45.6 -65.4 30.3 205 205 205
45.3 -63.9 29.6 205 205 205
48.4 -66.3 30.7 205 205 205
48.5 -65.5 30.3 206 206 206
50.6 -67.3 31.2 206 206 206
53.2 -68.8 31.8 206 206 206
53.9 -68.8 31.8 207 207 207
27.9 -34.7 16.0 205 205 205
27.2 -33.3 15.4 205 205 205
26.7 -32.3 14.9 206 206 206
24.5 -27.2 12.6 208 208 208
-30.2 -22.9 10.7 46 46 44
-30.0 -23.0 10.7 48 48 48
-29.8 -23.0 10.7 46 46 44
-29.5 -23.0 10.7 43 43 43
-29.3 -23.0 10.7 46 46 44
-29.0 -23.0 10.7 51 51 51
-28.8 -23.0 10.7 48 48 48
-28.5 -23.0 10.7 48 48 48
-28.3 -23.0 10.7 48 48 48
-28.0 -23.0 10.7 51 51 51
-27.7 -22.9 10.7 48 48 48
-28.0 -23.4 10.9 46 46 44
-27.3 -23.0 10.7 46 46 44
-27.0 -23.0 10.7 46 46 44
-26.8 -23.0 10.7 43 43 43
-26.5 -23.0 10.7 43 43 43
-26.2 -22.9 10.7 43 43 43
-26.0 -22.9 10.7 43 43 43
-25.7 -23.0 10.7 41 41 41
-25.5 -23.0 10.7 36 36 36
-25.3 -23.0 10.7 38 38 38
-25.0 -23.0 10.7 41 41 41
-24.8 -23.0 10.7 41 41 41
-24.5 -23.0 10.7 41 41 41
-24.3 -23.0 10.7 38 38 38
-24.0 -23.0 10.7 38 38 38
-23.8 -23.0 10.7 38 38 38
-23.5 -22.9 10.7 41 41 41
-23.0 -23.0 10.8 43 43 43
-22.8 -23.0 10.7 43 43 43
-22.3 -23.0 10.7 49 49 49
-22.0 -23.0 10.7 47 48 47
-21.8 -23.0 10.7 64 64 64
-21.5 -23.0 10.7 79 81 80
-21.3 -23.0 10.7 86 88 88
-21.0 -23.0 10.7 93 93 93
-20.0 -23.0 10.7 102 102 102
-20.2 -23.4 11.0 106 106 106
-19.5 -23.0 10.7 106 106 106
-19.2 -22.9 10.7 108 108 108
-19.0 -23.0 10.7 107 107 107
-18.8 -23.0 10.8 108 110 110
-18.9 -23.4 10.9 108 110 110
-18.6 -23.4 10.9 108 110 110
-18.0 -22.9 10.7 108 110 110
-17.7 -22.9 10.7 109 111 111
-17.3 -23.0 10.7 113 114 113
-16.0 -22.9 10.7 118 118 118
-15.7 -22.9 10.7 119 121 120
-15.2 -22.8 10.7 119 121 120
-15.0 -22.9 10.7 118 120 119
-14.8 -23.0 10.7 118 120 119
-14.4 -22.8 10.7 120 122 121
-9.7 -22.8 10.7 135 135 135
-9.5 -22.8 10.7 137 139 138
-9.3 -23.0 10.7 136 138 137
-9.0 -23.0 10.7 140 140 140
30.7 -50.5 23.6 207 207 207
31.2 -50.4 23.6 207 207 207
31.8 -50.5 23.6 207 207 207
46.4 -65.7 30.8 204 204 204
48.8 -66.2 31.0 205 205 205
48.6 -64.9 30.4 205 205 205
54.7 -69.9 32.7 206 206 206
55.6 -70.2 32.8 206 206 206
27.2 -33.0 15.4 205 205 205
26.7 -32.0 15.0 205 205 205
24.5 -26.9 12.6 207 207 207
-31.0 -23.3 11.0 47 46 45
-30.9 -23.4 11.0 47 46 45
-30.6 -23.4 11.0 47 46 45
-30.3 -23.4 11.0 47 46 45
-30.1 -23.4 11.0 47 46 45
-29.8 -23.4 11.0 49 49 49
-29.6 -23.4 11.0 49 49 49
-29.3 -23.4 11.0 52 52 52
-29.1 -23.4 11.0 52 52 52
-28.8 -23.4 11.1 52 52 52
-28.5 -23.4 11.0 49 49 49
-28.3 -23.4 11.1 49 49 49
-28.0 -23.4 11.1 47 46 45
-27.8 -23.4 11.0 47 46 45
-27.6 -23.4 11.1 44 44 44
-27.3 -23.4 11.1 44 44 44
-27.0 -23.4 11.1 44 44 44
-26.8 -23.4 11.1 44 44 44
-26.6 -23.4 11.1 44 44 44
-26.3 -23.4 11.1 42 42 42
-26.0 -23.4 11.0 39 39 39
-25.7 -23.4 11.0 44 44 44
-25.5 -23.4 11.0 39 39 39
-25.2 -23.4 11.0 39 39 39
-25.0 -23.4 11.1 39 39 39
-24.7 -23.4 11.0 39 39 39
-24.5 -23.4 11.1 39 39 39
-23.9 -23.4 11.1 39 39 39
-23.7 -23.4 11.0 42 42 42
-23.5 -23.4 11.1 44 44 44
-23.1 -23.4 11.0 39 39 39
-22.9 -23.4 11.0 42 42 42
-22.6 -23.4 11.0 44 44 44
-22.4 -23.4 11.0 47 46 45
-22.1 -23.4 11.0 44 44 44
-21.9 -23.4 11.0 52 52 52
-21.6 -23.4 11.1 70 70 70
-21.2 -23.4 11.1 95 95 95
-20.9 -23.4 11.1 91 91 91
-20.6 -23.4 11.1 97 97 97
-20.3 -23.4 11.1 98 100 100
-20.1 -23.4 11.0 97 100 99
-19.8 -23.4 11.0 99 101 101
-19.6 -23.4 11.1 103 103 103
-19.3 -23.4 11.1 103 103 103
-19.0 -23.4 11.1 105 105 105
-18.8 -23.3 11.0 104 104 104
-18.4 -23.5 11.1 109 109 109
-18.0 -23.4 11.1 108 108 108
-15.1 -23.2 11.0 117 117 117
-9.8 -23.4 11.1 132 132 132
-9.5 -23.4 11.1 135 135 135
-9.3 -23.3 11.0 134 137 136
-9.0 -23.3 11.0 138 138 138
-8.8 -23.4 11.1 141 143 142
-8.5 -23.4 11.1 141 143 142
-8.3 -23.4 11.0 143 143 142
-3.6 -23.5 11.1 180 180 180
-3.4 -23.4 11.1 177 177 177
-3.1 -23.4 11.1 183 183 183
-2.6 -23.4 11.1 182 182 182
-2.3 -23.4 11.1 182 182 182
-2.1 -23.4 11.1 179 179 179
-1.8 -23.4 11.1 179 179 179
-1.6 -23.4 11.1 182 182 182
30.4 -48.6 23.0 207 207 207
30.5 -48.0 22.7 207 207 207
47.1 -66.1 31.3 207 207 207
49.2 -65.9 31.2 207 207 207
48.9 -64.6 30.6 204 204 204
50.5 -65.8 31.1 205 205 205
55.6 -69.4 32.8 205 205 205
26.8 -31.7 15.0 206 206 206
27.1 -31.6 15.0 205 205 205
-29.4 -28.7 13.7 40 40 40
-29.2 -28.8 13.8 40 40 40
-28.8 -28.7 13.7 36 36 36
-27.8 -28.7 13.7 43 43 43
-20.1 -23.2 11.1 90 92 91
-23.7 -28.7 13.7 99 101 101
-18.8 -23.2 11.1 99 101 101
-18.1 -23.2 11.1 100 102 102
-9.9 -23.3 11.2 126 126 126
-9.6 -23.3 11.1 126 126 126
-9.4 -23.3 11.1 129 129 129
-9.1 -23.3 11.1 131 134 133
-8.3 -23.3 11.1 153 153 153
48.5 -63.3 30.3 207 207 207
58.4 -71.1 34.0 205 205 205
27.0 -31.6 15.1 206 206 206
27.2 -31.4 15.0 206 206 206
24.8 -26.6 12.7 205 205 205
-30.5 -29.4 14.2 39 39 39
-29.9 -29.2 14.1 41 41 41
14.2 -29.4 14.2 206 206 206
14.4 -29.1 14.1 206 206 206
16.8 -29.3 14.2 206 206 206
17.1 -29.3 14.2 206 206 206
17.4 -29.3 14.2 206 206 206
18.1 -29.8 14.4 206 206 206
41.8 -55.6 26.9 206 206 206
38.8 -50.8 24.6 206 206 206
37.9 -48.9 23.6 206 206 206
39.1 -49.8 24.1 206 206 206
27.3 -32.1 15.5 205 205 205
27.0 -31.3 15.1 205 205 205
27.3 -31.2 15.1 205 205 205
25.0 -27.1 13.1 204 204 204
25.2 -27.0 13.1 204 204 204
-31.7 -29.9 14.6 44 44 44
-31.3 -29.8 14.6 47 47 47
-30.9 -29.8 14.6 45 45 45
13.8 -29.8 14.6 205 205 205
14.2 -29.8 14.6 205 205 205
14.5 -29.8 14.6 205 205 205
14.7 -28.9 14.1 205 205 205
16.2 -29.8 14.6 205 205 205
16.6 -29.8 14.6 205 205 205
16.9 -29.8 14.6 205 205 205
17.2 -29.8 14.6 205 205 205
17.6 -29.8 14.6 205 205 205
17.9 -29.8 14.6 205 205 205
18.3 -29.8 14.6 205 205 205
41.9 -55.1 26.9 205 205 205
46.0 -57.1 27.9 206 206 206
26.7 -30.5 14.9 204 204 204
26.7 -30.1 14.7 205 205 205
25.3 -26.8 13.1 204 204 204
-15.8 -34.1 16.9 25 25 25
-10.6 -24.8 12.3 27 29 27
13.3 -24.7 12.2 205 205 205
16.3 -24.9 12.3 204 204 204
44.1 -57.3 28.4 205 205 205
45.7 -56.9 28.1 205 205 205
46.2 -56.7 28.1 205 205 205
46.0 -55.6 27.5 205 205 205
-36.0 -32.9 16.5 48 48 48
-33.6 -33.1 16.6 44 44 44
-32.9 -32.8 16.4 44 44 44
-30.8 -33.0 16.5 40 39 38
-22.2 -25.4 12.7 46 46 46
-16.8 -33.5 16.8 27 27 27
-16.5 -33.7 16.9 28 28 28
-16.1 -33.7 16.9 26 26 26
-15.6 -33.4 16.7 29 30 28
-10.5 -24.4 12.2 27 29 27
7.0 -24.2 12.1 207 207 207
7.3 -24.3 12.1 207 207 207
7.6 -24.3 12.2 207 207 207
10.1 -24.3 12.1 207 207 207
12.7 -24.3 12.1 204 204 204
12.9 -24.3 12.1 204 204 204
13.2 -24.3 12.1 204 204 204
13.5 -24.2 12.1 200 200 200
14.9 -24.3 12.1 204 204 204
15.2 -24.2 12.1 207 207 207
16.1 -24.3 12.2 204 204 204
16.3 -24.3 12.1 200 200 200
16.6 -24.3 12.1 204 204 204
16.9 -24.3 12.2 204 204 204
40.7 -51.5 25.8 204 204 204
39.3 -49.0 24.5 204 204 204
44.2 -52.9 26.5 205 205 205
44.7 -52.8 26.4 205 205 205
135.6 -153.6 76.9 206 206 206
26.3 -25.5 12.7 173 175 175
26.5 -25.3 12.7 182 182 182
-34.1 -23.9 12.1 55 55 55
-34.0 -24.0 12.2 57 57 57
-33.7 -24.0 12.2 57 57 57
-33.4 -24.0 12.2 57 57 57
-33.1 -24.0 12.2 57 57 57
-32.8 -24.0 12.2 58 58 58
-32.6 -24.0 12.2 59 61 59
-32.3 -24.0 12.2 58 58 58
-32.0 -24.0 12.2 58 58 58
-31.7 -24.0 12.2 58 58 58
-31.5 -24.0 12.2 59 61 59
-31.1 -24.0 12.2 59 61 59
-30.9 -24.0 12.2 58 58 58
-30.6 -24.0 12.2 56 56 56
-30.3 -24.0 12.2 53 53 53
-30.0 -24.0 12.2 53 53 53
-29.7 -24.0 12.2 53 53 53
-29.5 -24.0 12.2 52 52 50
-29.3 -24.1 12.2 48 48 48
-29.0 -24.1 12.2 48 48 48
-28.6 -24.0 12.2 49 49 49
-28.4 -24.1 12.2 49 49 49
-28.0 -24.0 12.2 49 49 49
-27.7 -24.0 12.2 49 49 49
-27.5 -24.0 12.2 49 49 49
-27.1 -23.9 12.1 49 49 49
-26.9 -24.1 12.2 49 49 49
-26.7 -24.1 12.2 49 49 49
-26.4 -24.1 12.2 49 49 49
-26.0 -24.0 12.2 47 48 47
-25.7 -24.0 12.1 47 48 47
-25.5 -24.0 12.2 47 48 47
-25.2 -24.0 12.2 47 48 47
-25.0 -24.1 12.2 47 48 47
-24.8 -24.2 12.2 45 45 45
-24.5 -24.1 12.2 45 45 45
-24.2 -24.1 12.2 46 46 46
-22.9 -24.0 12.2 41 40 38
-30.6 -32.4 16.4 41 40 38
-29.8 -31.9 16.2 41 41 39
-22.2 -24.1 12.2 41 41 39
-21.8 -24.1 12.2 41 41 39
-21.6 -24.1 12.2 42 43 42
-21.3 -24.0 12.2 42 43 42
-21.1 -24.2 12.3 42 42 40
-20.9 -24.2 12.3 43 43 43
-20.4 -24.0 12.2 43 43 43
-20.1 -24.0 12.2 47 48 47
-19.9 -24.2 12.2 50 50 50
-19.6 -24.1 12.2 47 48 47
-19.3 -24.1 12.2 92 95 94
-19.0 -24.1 12.2 67 69 67
-17.6 -24.1 12.2 17 17 17
-16.6 -23.9 12.1 21 24 22
-16.4 -24.0 12.2 22 25 23
-16.2 -24.1 12.2 22 25 23
-15.6 -24.1 12.2 21 21 21
-13.1 -24.2 12.3 28 28 28
-12.3 -24.9 12.6 29 31 29
-15.5 -32.8 16.6 29 30 28
-11.0 -23.9 12.1 29 30 28
-10.8 -24.0 12.2 29 30 28
-10.5 -24.0 12.2 31 30 29
-10.2 -24.1 12.2 34 34 34
-9.9 -24.0 12.2 38 38 38
-9.7 -24.1 12.2 143 145 144
6.5 -24.1 12.2 207 207 207
6.8 -24.1 12.2 207 207 207
7.0 -24.0 12.2 207 207 207
7.3 -24.1 12.2 207 207 207
7.6 -24.1 12.2 207 207 207
7.9 -24.0 12.2 207 207 207
8.2 -24.0 12.2 207 207 207
8.5 -24.1 12.2 207 207 207
8.7 -24.0 12.2 207 207 207
9.0 -24.0 12.2 207 207 207
9.3 -24.0 12.2 207 207 207
9.6 -24.1 12.2 207 207 207
9.9 -24.1 12.2 207 207 207
10.1 -24.0 12.2 204 204 204
10.4 -23.9 12.1 207 207 207
10.7 -24.0 12.1 204 204 204
11.0 -24.1 12.2 204 204 204
11.3 -24.1 12.2 204 204 204
11.6 -24.1 12.2 204 204 204
12.5 -24.2 12.3 203 203 203
12.7 -24.0 12.2 203 203 203
13.0 -24.0 12.2 206 206 206
13.2 -24.0 12.2 206 206 206
13.5 -23.9 12.1 203 203 203
13.8 -24.1 12.2 206 206 206
14.1 -24.1 12.2 206 206 206
14.4 -24.0 12.2 206 206 206
14.7 -24.1 12.2 203 203 203
14.9 -24.0 12.1 203 203 203
15.2 -24.0 12.1 206 206 206
15.6 -24.1 12.2 206 206 206
16.2 -24.2 12.3 206 206 206
16.4 -24.0 12.2 203 203 203
16.7 -24.1 12.2 206 206 206
17.0 -24.1 12.2 206 206 206
40.3 -50.4 25.5 206 206 206
39.2 -48.3 24.5 204 204 204
42.3 -50.7 25.7 204 204 204
42.9 -50.7 25.7 204 204 204
43.4 -50.5 25.6 204 204 204
44.1 -50.7 25.7 205 205 205
136.2 -152.4 77.2 205 205 205
26.5 -25.9 13.1 202 202 202
26.7 -25.2 12.8 184 184 184
-34.6 -24.0 12.3 58 58 58
-34.4 -24.0 12.3 58 58 58
-34.1 -24.0 12.3 58 58 58
-33.8 -24.0 12.3 58 58 58
-33.5 -24.0 12.3 58 58 58
-33.2 -24.0 12.3 58 58 58
-32.9 -24.0 12.3 58 58 58
-32.8 -24.1 12.3 58 58 58
-32.1 -24.0 12.3 58 59 59
-31.5 -24.0 12.3 60 62 60
-31.2 -24.0 12.3 57 57 57
-30.9 -24.0 12.3 57 57 57
-30.6 -24.0 12.3 54 54 54
-30.4 -24.1 12.3 57 57 57
-28.7 -24.0 12.3 54 54 54
-28.3 -24.0 12.3 53 52 51
-28.1 -24.0 12.3 50 50 50
-27.8 -24.0 12.3 50 50 50
-27.4 -24.0 12.3 50 50 50
-27.2 -24.0 12.3 50 50 50
-26.7 -24.0 12.3 50 50 50
-26.3 -24.0 12.3 50 50 50
-26.0 -24.0 12.3 48 48 48
-25.8 -24.1 12.3 48 48 48
-25.5 -24.0 12.3 48 48 48
-25.2 -24.0 12.3 48 48 48
-23.2 -24.0 12.3 42 43 42
-22.4 -24.0 12.3 42 42 40
-22.0 -24.0 12.3 42 42 40
-21.7 -24.0 12.3 43 42 41
-21.0 -24.1 12.3 40 40 40
-20.6 -24.0 12.3 41 41 41
-19.7 -24.0 12.3 39 39 39
-19.4 -24.0 12.3 31 32 30
-19.1 -23.9 12.3 21 24 22
-18.3 -24.0 12.3 19 19 19
-18.0 -24.0 12.3 19 19 19
-16.8 -23.8 12.2 21 21 21
-16.5 -23.8 12.2 21 21 21
-13.2 -24.0 12.3 28 28 28
-12.6 -24.6 12.6 30 31 30
-12.3 -24.6 12.6 30 31 30
-12.0 -24.4 12.5 29 31 29
-11.4 -23.9 12.2 29 31 29
-11.1 -23.8 12.2 32 31 30
-10.9 -24.0 12.3 29 30 28
-10.6 -24.0 12.3 32 32 32
-10.3 -23.9 12.2 34 34 34
-10.0 -23.9 12.2 42 43 42
-9.8 -24.2 12.4 160 160 160
6.5 -24.0 12.3 206 206 206
9.1 -24.0 12.3 206 206 206
9.4 -24.0 12.3 206 206 206
10.0 -24.0 12.3 206 206 206
10.3 -24.0 12.3 206 206 206
10.5 -24.0 12.3 206 206 206
10.8 -23.9 12.3 203 203 203
12.6 -24.1 12.3 203 203 203
12.8 -24.0 12.3 203 203 203
13.1 -24.0 12.3 199 199 199
13.4 -24.0 12.3 206 206 206
13.6 -23.9 12.2 206 206 206
14.3 -24.0 12.3 206 206 206
14.9 -24.0 12.3 206 206 206
15.1 -24.0 12.3 206 206 206
15.4 -24.0 12.3 206 206 206
16.5 -24.3 12.4 206 206 206
16.5 -24.0 12.3 208 208 208
16.8 -24.0 12.3 203 203 203
17.1 -24.0 12.3 206 206 206
40.5 -50.1 25.7 206 206 206
38.8 -47.3 24.3 203 203 203
42.5 -50.3 25.8 203 203 203
43.0 -50.2 25.7 204 204 204
43.5 -50.1 25.7 204 204 204
44.0 -50.0 25.6 204 204 204
137.9 -152.5 78.2 204 204 204
26.5 -25.6 13.1 204 204 204
26.6 -25.4 13.0 204 204 204
26.8 -25.1 12.8 183 183 183
-28.3 -24.2 12.5 51 51 51
-28.2 -24.6 12.7 51 51 51
-27.8 -24.5 12.7 51 51 51
-22.1 -24.4 12.7 44 43 42
-21.7 -24.3 12.6 41 41 41
-16.9 -23.7 12.3 20 20 20
-16.6 -23.7 12.3 22 22 22
-12.8 -24.6 12.8 30 29 29
-12.5 -24.6 12.7 30 29 29
-12.1 -24.4 12.6 29 29 29
-11.5 -23.8 12.4 29 29 29
-11.1 -24.2 12.6 29 31 29
-10.6 -23.8 12.3 32 31 30
-10.3 -23.7 12.3 36 38 37
-10.1 -23.7 12.3 46 46 44
-9.9 -24.0 12.5 172 172 172
16.5 -24.1 12.5 205 205 205
40.8 -49.9 25.9 205 205 205
43.7 -51.1 26.5 203 203 203
43.7 -50.4 26.2 203 203 203
44.3 -50.4 26.2 203 203 203
44.8 -50.3 26.1 203 203 203
45.7 -50.7 26.3 204 204 204
137.3 -150.1 77.8 204 204 204
26.3 -25.4 13.2 203 203 203
26.5 -25.3 13.1 203 203 203
26.7 -25.2 13.1 203 203 203
26.9 -25.1 13.0 172 172 172
27.2 -25.1 13.0 182 182 182
810.1 -473.6 245.7 177 180 179
-28.1 -24.5 12.9 52 52 52
-27.7 -24.4 12.8 52 52 52
-22.4 -24.4 12.8 45 44 43
-12.9 -24.5 12.9 28 28 28
-12.6 -24.5 12.9 33 33 31
-12.3 -24.5 12.8 30 31 30
-10.7 -23.6 12.4 29 31 29
-10.3 -23.5 12.3 33 33 33
-10.1 -23.5 12.3 50 51 49
-9.9 -23.8 12.5 176 179 178
41.2 -49.8 26.1 205 205 205
45.5 -53.4 28.0 205 205 205
44.5 -51.5 27.0 205 205 205
44.0 -50.2 26.3 205 205 205
44.7 -50.3 26.4 205 205 205
45.4 -50.3 26.4 206 206 206
46.1 -50.5 26.5 206 206 206
26.6 -25.1 13.2 203 203 203
26.8 -25.0 13.1 207 207 207
27.1 -25.0 13.1 170 171 170
810.1 -467.9 245.7 177 180 179
-27.8 -24.2 12.9 53 52 52
-22.3 -24.1 12.8 46 45 43
-12.6 -24.2 12.9 35 35 35
-10.9 -23.7 12.6 64 64 64
-10.5 -23.5 12.5 33 33 33
-10.2 -23.5 12.5 41 41 41
-10.0 -23.7 12.6 182 182 182
43.6 -52.8 28.1 204 204 204
42.2 -50.3 26.8 204 204 204
45.4 -51.9 27.6 205 205 205
44.9 -50.6 26.9 205 205 205
45.5 -50.6 26.9 205 205 205
46.2 -50.6 26.9 205 205 205
46.8 -50.6 26.9 205 205 205
26.8 -25.0 13.3 202 202 202
27.1 -24.9 13.3 207 207 207
506.6 -287.0 152.6 177 180 179
-23.2 -24.4 13.1 43 43 43
-12.9 -23.9 12.9 73 75 75
-12.6 -23.9 12.9 91 94 93
-10.4 -23.6 12.7 53 53 53
-10.1 -23.6 12.7 184 187 186
55.6 -62.8 33.8 204 204 204
45.6 -50.0 26.9 204 204 204
46.2 -50.0 26.9 204 204 204
46.8 -49.9 26.9 205 205 205
59.6 -62.8 33.8 205 205 205
26.9 -24.7 13.3 204 204 204
27.2 -24.7 13.3 200 200 200
439.3 -245.8 132.3 177 180 179
365.7 -203.2 109.3 177 180 179
-30.7 -24.0 13.1 57 57 55
-23.2 -24.1 13.1 47 46 45
-22.4 -23.6 12.8 44 44 44
-12.6 -23.6 12.9 27 27 27
-10.1 -23.4 12.7 183 186 185
-10.0 -23.7 12.9 182 185 184
-9.7 -23.8 13.0 182 185 184
41.1 -47.8 26.1 205 205 205
61.4 -69.4 37.8 203 203 203
56.2 -62.7 34.1 203 203 203
46.2 -48.8 26.6 204 204 204
47.5 -49.4 26.9 204 204 204
48.4 -49.7 27.1 204 204 204
442.4 -244.4 133.2 177 180 179
372.1 -204.2 111.3 177 180 179
-30.0 -23.1 12.8 58 58 56
-29.6 -23.0 12.7 58 58 56
-29.4 -23.2 12.8 58 58 56
-24.8 -23.3 12.9 51 51 51
-24.5 -23.3 12.9 53 52 52
-24.3 -23.3 12.9 52 52 52
-22.3 -23.1 12.8 49 48 47
-12.5 -23.2 12.8 31 31 31
-12.2 -23.2 12.8 129 129 129
-11.2 -23.0 12.7 95 95 95
-10.9 -22.8 12.6 67 67 67
-10.7 -23.0 12.7 49 49 49
-10.4 -23.0 12.7 52 52 52
-10.1 -23.1 12.7 183 183 183
-9.9 -23.3 12.9 181 184 183
-9.6 -23.3 12.9 180 183 182
-9.2 -23.1 12.7 179 182 181
40.4 -46.4 25.6 205 205 205
61.0 -68.0 37.5 205 205 205
59.4 -65.3 36.0 205 205 205
45.8 -47.7 26.3 203 203 203
47.2 -48.5 26.8 203 203 203
47.1 -47.7 26.3 204 204 204
-31.0 -23.4 13.1 59 59 57
-30.6 -23.3 13.0 60 60 60
-30.3 -23.3 13.0 63 63 63
-25.2 -23.3 13.0 57 57 57
-24.9 -23.3 13.0 57 57 57
-24.6 -23.3 13.0 53 52 52
-23.1 -23.3 13.1 51 51 51
-22.7 -23.2 13.0 50 49 48
-12.7 -23.1 12.9 39 39 39
-12.4 -23.3 13.0 124 124 124
-10.3 -23.2 13.0 182 185 184
-10.0 -23.2 13.0 181 184 183
-9.7 -23.2 13.0 179 182 181
-9.4 -23.1 12.9 179 182 181
40.4 -45.8 25.6 204 204 204
64.8 -72.4 40.5 205 205 205
63.3 -69.8 39.0 205 205 205
63.2 -67.7 37.8 205 205 205
44.8 -46.7 26.1 205 205 205
47.3 -48.0 26.8 203 203 203
46.9 -46.9 26.2 203 203 203
46.5 -46.0 25.7 203 203 203
-25.1 -23.2 13.2 55 55 55
-10.6 -24.2 13.7 180 183 182
-10.3 -24.3 13.7 178 181 180
-10.0 -24.4 13.8 184 184 184
-9.7 -24.6 13.9 223 225 225
40.4 -45.2 25.6 204 204 204
64.7 -71.3 40.4 204 204 204
63.8 -67.5 38.2 205 205 205
64.7 -67.5 38.2 205 205 205
46.3 -45.2 25.6 205 205 205
959.7 -513.7 291.0 176 179 178
-10.7 -24.1 13.8 179 182 181
-10.3 -24.1 13.8 183 183 183
-10.1 -24.4 14.0 178 181 180
-5.2 -17.6 10.1 220 223 222
7.4 -17.5 10.0 204 204 204
8.1 -17.4 10.0 204 204 204
9.1 -17.5 10.0 204 204 204
9.5 -17.5 10.0 204 204 204
9.8 -17.5 10.0 204 204 204
10.9 -17.5 10.0 204 204 204
11.1 -17.5 10.0 204 204 204
11.4 -17.5 10.1 204 204 204
11.6 -17.5 10.0 204 204 204
11.9 -17.5 10.0 204 204 204
13.6 -17.6 10.1 204 204 204
13.7 -17.5 10.0 204 204 204
14.0 -17.5 10.1 203 203 203
65.8 -68.7 39.4 207 207 207
65.4 -67.2 38.6 204 204 204
46.3 -44.6 25.6 205 205 205
30.1 -24.8 14.2 182 182 182
30.2 -24.6 14.1 182 182 182
30.0 -24.2 13.9 184 184 184
779.7 -411.9 236.5 176 179 178
-11.2 -25.1 14.6 179 182 181
67.7 -70.7 41.1 207 207 207
67.2 -69.2 40.2 207 207 207
65.3 -66.2 38.5 207 207 207
46.5 -44.2 25.7 204 204 204
44.1 -39.8 23.2 205 205 205
29.9 -24.1 14.0 183 183 183
30.0 -23.9 13.9 183 183 183
-11.5 -25.3 14.9 180 183 182
-11.2 -25.5 15.0 180 183 182
-11.1 -25.9 15.3 177 180 179
-10.6 -25.7 15.2 191 191 191
67.7 -69.7 41.1 206 206 206
67.8 -68.8 40.6 206 206 206
65.4 -65.5 38.6 206 206 206
65.2 -64.4 38.0 207 207 207
46.5 -43.6 25.7 204 204 204
44.3 -39.4 23.3 208 208 208
30.0 -23.8 14.0 184 184 184
30.0 -23.6 13.9 184 184 184
-11.5 -24.9 14.9 181 184 183
-11.2 -25.1 15.0 180 183 182
-11.0 -25.4 15.2 178 178 178
68.5 -68.6 41.0 203 203 203
68.6 -67.7 40.5 203 203 203
65.5 -63.8 38.1 206 206 206
46.3 -41.2 24.6 207 207 207
44.6 -39.1 23.4 207 207 207
30.0 -23.8 14.2 182 182 182
30.0 -23.2 13.9 184 184 184
-11.5 -24.7 15.0 183 186 185
-11.2 -24.7 15.0 181 184 183
-11.0 -25.0 15.2 170 172 172
-10.7 -25.2 15.3 157 160 159
-10.3 -25.0 15.2 164 164 164
69.0 -68.1 41.3 207 210 209
68.8 -66.9 40.6 206 206 206
66.3 -63.7 38.6 206 206 206
68.9 -65.3 39.6 206 206 206
71.0 -66.4 40.2 206 206 206
47.0 -41.3 25.0 207 207 207
45.7 -39.6 24.0 207 207 207
30.0 -23.0 13.9 190 190 190
-12.4 -25.5 15.7 186 188 187
-11.8 -24.9 15.3 184 187 186
-11.3 -24.7 15.2 184 187 186
-11.1 -25.0 15.4 177 177 177
-10.8 -25.1 15.4 156 159 158
-10.4 -25.0 15.4 155 155 155
70.2 -68.3 42.0 207 210 209
69.2 -66.4 40.9 207 210 209
67.5 -63.9 39.3 207 210 209
72.8 -68.0 41.9 206 206 206
71.9 -66.3 40.8 203 203 203
49.6 -43.4 26.7 207 207 207
48.3 -41.8 25.7 207 207 207
42.9 -31.3 19.2 188 188 188
-13.0 -25.6 15.9 43 43 43
-12.5 -25.3 15.8 187 189 189
-11.4 -25.2 15.7 177 177 177
-11.0 -25.1 15.7 159 162 161
-10.6 -25.1 15.6 156 156 156
70.2 -67.4 42.0 206 209 208
73.0 -66.3 41.4 206 206 206
50.5 -43.6 27.2 206 206 206
42.9 -30.8 19.2 188 188 188
42.5 -30.2 18.9 188 188 188
73.5 -33.8 21.1 180 180 180
-12.7 -25.3 16.0 190 192 192
-11.6 -25.3 16.0 178 178 178
-11.2 -25.2 16.0 166 166 166
-10.8 -25.3 16.0 159 162 161
69.6 -65.8 41.7 206 209 208
69.1 -64.4 40.8 206 209 208
74.5 -67.6 42.8 207 210 209
72.7 -65.1 41.2 207 210 209
42.9 -30.4 19.3 189 189 189
42.5 -29.8 18.9 189 189 189
42.5 -29.5 18.7 185 185 185
73.5 -33.3 21.1 181 181 181
72.3 -32.6 20.6 181 181 181
-30.8 -17.0 10.9 57 56 55
-30.7 -17.1 11.0 63 63 63
-30.4 -17.1 11.0 68 68 68
-30.1 -17.1 11.0 69 69 69
-29.9 -17.1 11.0 69 69 69
-29.6 -17.1 11.0 66 67 65
-27.9 -17.1 11.0 144 144 144
-27.6 -17.1 11.0 156 156 156
-27.3 -17.1 11.0 10 15 11
-27.0 -17.0 11.0 11 11 11
-25.3 -17.1 11.0 56 56 56
-25.1 -17.1 11.0 60 59 58
-24.9 -17.1 11.0 61 61 61
-24.6 -17.1 11.0 61 61 61
-23.5 -17.1 11.0 62 62 62
-23.3 -17.2 11.0 67 67 67
-23.1 -17.1 11.0 67 67 67
-12.1 -27.9 17.9 164 164 164
68.7 -64.0 41.1 206 209 208
67.6 -62.1 39.9 206 209 208
75.7 -67.7 43.5 206 209 208
71.1 -62.8 40.3 206 209 208
42.1 -29.7 19.1 189 189 189
42.7 -29.8 19.1 189 189 189
42.3 -29.2 18.8 189 189 189
42.5 -29.1 18.7 189 189 189
75.4 -33.9 21.8 182 182 182
72.3 -32.1 20.6 182 182 182
-27.3 -16.7 10.9 69 69 69
-27.0 -16.6 10.8 55 55 55
-26.7 -16.6 10.8 40 42 42
-26.4 -16.6 10.8 34 34 34
-26.2 -16.6 10.8 33 32 30
-26.0 -16.6 10.8 29 31 29
-25.8 -16.6 10.9 29 31 29
-25.5 -16.6 10.9 28 28 28
-28.0 -18.5 12.0 26 26 26
-27.5 -18.3 11.9 37 38 37
-24.0 -16.6 10.9 56 56 56
-22.5 -16.6 10.9 67 67 67
-13.4 -27.6 18.0 186 186 186
-13.1 -27.7 18.1 181 181 181
-12.7 -27.8 18.1 174 174 174
-12.2 -27.6 18.0 169 169 169
-11.8 -27.6 18.0 164 164 164
77.3 -68.1 44.4 206 209 208
72.4 -62.9 41.0 206 209 208
42.3 -28.8 18.8 189 189 189
74.6 -33.1 21.6 183 183 183
74.8 -32.9 21.5 185 185 185
73.8 -32.3 21.0 185 185 185
-26.8 -16.4 10.8 40 42 42
-41.0 -27.7 18.4 20 23 21
-40.4 -27.6 18.3 49 49 49
-40.1 -27.7 18.3 41 43 42
-39.8 -27.7 18.4 46 45 43
-39.0 -27.8 18.4 55 55 55
-38.3 -27.9 18.5 61 60 59
-37.6 -27.7 18.3 62 62 62
-36.9 -27.5 18.2 62 62 62
-36.8 -27.8 18.4 62 62 62
-13.6 -27.5 18.2 177 180 179
-13.2 -27.6 18.3 176 179 178
-12.8 -27.6 18.3 175 175 175
-12.3 -27.5 18.2 170 171 170
-11.9 -27.5 18.2 167 167 167
658.4 -594.9 394.1 205 208 207
78.6 -68.2 45.1 206 209 208
74.4 -32.4 21.5 184 184 184
74.4 -32.2 21.4 184 184 184
73.5 -31.4 20.8 184 184 184
61.6 -25.3 16.8 160 160 160
62.0 -25.3 16.8 155 155 155
-34.0 -21.1 14.2 55 55 55
-41.9 -27.9 18.7 114 116 115
-39.1 -28.1 18.9 42 44 43
-38.4 -27.8 18.7 52 52 52
-37.9 -27.8 18.7 61 61 61
-13.9 -27.7 18.7 180 183 182
-13.5 -27.7 18.6 178 181 180
-13.0 -27.6 18.6 176 176 176
-12.6 -27.6 18.6 173 173 173
-12.2 -27.7 18.6 167 167 167
-11.7 -27.6 18.6 170 171 170
8.8 -14.9 10.0 210 213 212
74.0 -31.8 21.4 185 185 185
73.5 -31.4 21.1 185 185 185
73.1 -31.0 20.9 185 185 185
73.5 -30.9 20.8 185 185 185
75.1 -31.4 21.1 185 185 185
61.5 -25.1 16.9 165 165 165
61.6 -24.9 16.8 162 162 162
61.9 -24.9 16.8 155 155 155
62.2 -24.9 16.7 151 151 151
-28.0 -16.4 11.2 24 24 24
-27.7 -16.4 11.2 19 23 20
-27.5 -16.5 11.3 26 26 26
-27.3 -16.5 11.3 28 28 28
-27.0 -16.5 11.3 53 52 52
-26.7 -16.5 11.3 69 69 69
-26.5 -16.5 11.3 71 72 70
-26.2 -16.5 11.3 62 62 62
-25.9 -16.4 11.2 51 51 51
-25.7 -16.5 11.3 49 49 49
-25.4 -16.5 11.3 59 59 57
-39.7 -28.1 19.2 16 16 16
-16.3 -16.5 11.3 29 29 29
-16.1 -16.5 11.3 29 29 29
-15.7 -16.5 11.3 26 26 26
-15.5 -16.5 11.3 22 25 23
-15.2 -16.5 11.3 38 38 38
-14.9 -16.5 11.3 86 86 86
-14.7 -16.5 11.3 131 133 132
-14.4 -16.5 11.3 149 151 151
-14.1 -16.5 11.2 47 48 47
-13.9 -16.4 11.2 41 41 41
-13.6 -16.4 11.2 77 79 77
-13.4 -16.5 11.2 107 107 105
-13.1 -16.5 11.3 132 132 132
-12.9 -16.5 11.3 28 28 28
-13.2 -27.6 18.9 177 177 177
-12.8 -27.7 18.9 176 176 176
-12.5 -27.9 19.1 176 179 178
8.9 -14.8 10.1 209 212 211
9.1 -14.7 10.1 209 212 211
9.4 -14.8 10.1 209 212 211
9.6 -14.8 10.1 209 212 211
9.9 -14.8 10.1 206 209 208
10.1 -14.8 10.1 206 209 208
10.4 -14.9 10.2 209 212 211
10.6 -14.9 10.2 206 209 208
10.8 -14.9 10.2 204 204 204
11.0 -14.8 10.1 206 209 208
11.7 -14.8 10.1 208 211 210
13.0 -14.9 10.2 205 208 207
13.9 -14.9 10.2 207 210 209
14.1 -14.9 10.2 207 210 209
639.9 -469.1 320.6 208 211 210
73.2 -31.0 21.2 186 186 186
73.6 -30.9 21.1 186 186 186
74.3 -31.0 21.2 186 186 186
74.8 -31.0 21.2 186 186 186
75.0 -30.9 21.1 186 186 186
61.3 -24.4 16.7 160 160 160
61.3 -24.3 16.6 155 155 155
61.7 -24.3 16.6 150 152 152
61.9 -24.2 16.5 144 144 144
-12.9 -27.5 19.1 172 172 172
510.2 -368.1 255.6 210 213 212
367.3 -261.9 181.9 210 213 212
72.5 -30.4 21.1 191 191 191
73.1 -30.4 21.1 188 188 188
73.8 -30.5 21.2 188 188 188
74.3 -30.5 21.2 188 188 188
74.8 -30.5 21.2 191 191 191
75.3 -30.5 21.2 188 188 188
75.5 -30.4 21.1 188 188 188
61.8 -24.2 16.8 160 160 160
61.5 -24.0 16.7 157 157 157
61.9 -24.0 16.7 148 148 148
62.3 -24.0 16.7 145 145 144
-13.8 -29.9 21.1 134 134 134
241.5 -167.5 118.2 210 213 212
186.1 -127.6 90.1 208 211 210
74.1 -29.9 21.1 189 189 189
74.5 -29.9 21.1 189 189 189
75.4 -30.0 21.2 189 189 189
62.1 -24.0 16.9 158 158 158
62.0 -23.8 16.8 153 155 155
62.2 -23.7 16.7 150 150 150
73.4 -27.5 19.4 132 135 134
-24.0 -14.1 10.1 96 95 94
-23.6 -14.0 10.1 201 203 203
-23.0 -14.1 10.1 50 50 50
-15.3 -14.0 10.1 43 45 45
-15.0 -14.0 10.1 112 112 112
-13.9 -14.1 10.1 44 46 46
-13.7 -14.1 10.1 30 29 29
-11.9 -14.0 10.0 36 36 36
-14.4 -29.5 21.2 181 184 183
-13.8 -29.4 21.1 173 173 173
176.5 -135.9 97.5 212 213 212
170.8 -129.8 93.2 208 211 210
173.0 -129.8 93.2 208 211 210
191.8 -138.7 99.6 209 212 211
192.1 -137.3 98.5 209 212 211
70.9 -27.5 19.7 177 180 179
69.0 -26.5 19.0 170 171 170
73.5 -27.1 19.4 129 132 131
-24.7 -13.9 10.1 118 118 118
-24.5 -13.9 10.1 153 153 153
-24.3 -13.9 10.1 202 202 202
-24.0 -13.9 10.1 112 112 112
-23.8 -13.9 10.1 39 39 39
-23.5 -13.9 10.1 57 57 55
-23.3 -13.9 10.1 53 52 52
-23.1 -13.9 10.1 53 52 52
-22.9 -13.9 10.1 106 108 108
-15.3 -13.9 10.1 73 73 73
-15.1 -13.8 10.1 27 27 27
-14.9 -13.9 10.1 30 31 30
-14.6 -13.9 10.1 30 31 30
-14.2 -14.0 10.2 102 102 102
-13.9 -13.9 10.1 27 27 27
-13.7 -13.9 10.1 35 34 33
-13.5 -13.9 10.2 132 132 132
-13.2 -13.9 10.1 31 32 30
-13.0 -13.9 10.1 31 32 30
-12.8 -13.9 10.1 35 34 33
-12.5 -13.9 10.1 43 45 45
-12.3 -13.9 10.2 81 81 81
-14.6 -29.6 21.6 180 180 180
-14.0 -29.3 21.4 182 185 184
359.6 -275.7 201.2 207 210 209
201.4 -152.5 111.3 208 211 210
198.2 -148.1 108.1 208 211 210
423.1 -312.3 227.9 208 211 210
418.3 -304.9 222.5 208 211 210
71.1 -27.1 19.7 178 178 178
71.0 -26.9 19.6 169 169 169
72.3 -27.0 19.7 154 154 154
74.6 -27.0 19.7 131 131 131
-26.1 -14.5 10.8 140 140 140
-25.2 -14.4 10.7 60 60 60
-25.0 -14.5 10.7 40 42 42
-16.2 -31.2 23.2 178 178 178
-14.9 -29.7 22.0 179 179 179
-14.3 -29.5 21.9 180 180 180
-15.5 -33.1 24.6 159 159 159
393.0 -296.2 220.0 207 210 209
372.2 -276.9 205.6 207 210 209
412.8 -303.3 225.2 208 211 210
540.3 -392.0 291.0 208 211 210
500.8 -358.8 266.4 208 211 210
717.6 -490.0 363.8 209 212 211
503.4 -339.7 252.2 209 212 211
415.2 -276.9 205.6 210 213 212
72.6 -27.3 20.3 182 185 184
85.9 -32.1 23.9 175 175 175
86.0 -32.0 23.7 166 166 166
71.7 -26.2 19.4 139 139 139
72.0 -26.1 19.4 134 137 136
71.4 -25.7 19.1 132 135 134
75.6 -26.9 20.0 132 132 132
-12.4 -14.4 10.9 64 64 64
-17.8 -32.5 24.6 184 184 184
-16.6 -31.5 23.8 179 179 179
-16.2 -32.8 24.8 174 176 176
-15.7 -32.9 24.8 150 152 152
-15.0 -32.6 24.6 28 28 28
609.0 -403.8 305.1 209 212 211
86.5 -31.8 24.0 169 169 169
86.9 -31.7 24.0 160 163 162
73.0 -26.2 19.8 136 138 137
73.1 -26.0 19.7 136 136 136
73.8 -26.1 19.7 134 134 134
75.4 -26.5 20.0 134 134 134
75.8 -26.5 20.0 134 134 134
-18.0 -32.3 24.8 183 183 183
-16.8 -33.5 25.7 91 93 92
-16.2 -33.4 25.7 88 88 88
-15.5 -33.2 25.5 60 60 60
87.2 -31.5 24.2 151 151 151
87.8 -31.5 24.2 138 140 139
73.6 -25.8 19.8 133 133 133
74.8 -26.0 20.0 129 132 131
76.3 -26.4 20.3 129 132 131
76.3 -26.2 20.2 129 132 131
-17.2 -33.5 26.2 91 93 92
-16.5 -33.4 26.1 88 88 88
-15.9 -33.5 26.2 57 59 59
88.2 -31.3 24.5 131 134 133
89.0 -31.4 24.6 131 134 133
89.6 -31.4 24.6 128 131 130
74.1 -25.5 19.9 129 129 129
75.0 -25.6 20.1 128 128 128
77.6 -26.3 20.6 128 128 128
77.4 -26.1 20.5 128 128 128
77.6 -26.0 20.4 128 128 128
-17.2 -32.9 26.3 91 93 92
-16.5 -32.9 26.2 89 91 90
-16.0 -33.0 26.3 74 74 74
770.5 -484.1 386.0 215 215 215
88.7 -30.9 24.6 113 114 113
89.6 -31.0 24.7 121 121 121
90.2 -31.0 24.7 122 122 122
78.6 -26.2 20.9 121 121 121
77.9 -25.8 20.6 123 123 123
-18.9 -34.4 28.0 131 131 131
-17.5 -32.9 26.8 97 97 97
-16.8 -32.7 26.6 90 92 91
20.2 -15.5 12.6 214 214 214
398.1 -270.7 220.0 211 211 211
376.9 -253.0 205.6 211 211 211
517.2 -318.9 259.1 215 215 215
90.5 -30.8 25.0 108 110 110
91.7 -31.0 25.2 113 114 113
93.2 -31.2 25.4 112 112 112
78.3 -25.4 20.7 116 118 117
-19.3 -34.4 28.5 128 130 129
-18.1 -33.4 27.7 96 96 96
-17.5 -33.5 27.7 90 92 91
-17.1 -34.0 28.1 70 69 68
20.5 -15.7 13.0 211 211 211
496.8 -300.5 248.9 217 217 217
424.4 -253.8 210.2 217 217 217
90.9 -30.3 25.1 108 108 108
92.5 -30.6 25.4 108 108 108
94.7 -31.2 25.8 108 108 108
78.5 -25.0 20.7 95 95 95
77.4 -24.5 20.3 149 151 151
20.7 -15.5 13.1 211 211 211
360.4 -235.8 199.1 215 215 215
599.3 -355.6 300.3 217 217 217
51.9 -16.7 14.1 102 104 104
52.0 -16.7 14.1 101 103 103
46.0 -14.3 12.1 156 156 156
-21.9 -40.4 34.8 94 94 94
-21.5 -41.1 35.4 94 97 96
20.7 -15.2 13.1 211 211 211
20.6 -14.9 12.9 214 214 214
51.1 -16.3 14.0 99 99 99
52.3 -16.5 14.2 96 96 96
52.6 -16.5 14.2 88 88 88
46.3 -14.2 12.2 73 73 73
46.3 -14.1 12.2 158 158 158
-23.2 -41.9 36.9 96 99 98
-22.6 -42.4 37.2 86 88 88
-23.1 -44.9 39.5 111 111 111
20.7 -14.9 13.1 214 214 214
51.1 -15.9 14.0 92 95 94
52.3 -16.2 14.2 79 82 81
53.0 -16.3 14.3 72 72 72
46.5 -13.9 12.2 151 153 153
46.8 -13.9 12.2 120 120 120
-32.1 -15.9 14.2 7 13 9
-31.5 -15.7 14.1 3 3 3
-31.1 -15.7 14.1 17 17 17
-24.3 -44.6 40.0 102 104 104
-23.8 -45.4 40.8 31 31 31
-22.9 -45.5 40.9 21 21 21
20.8 -14.7 13.2 214 214 214
51.0 -15.6 14.0 79 82 81
51.9 -15.8 14.1 79 82 81
52.4 -15.8 14.2 72 72 72
52.8 -15.8 14.2 74 74 74
46.5 -13.6 12.2 154 156 156
46.4 -13.5 12.1 124 126 125
-32.2 -15.5 14.2 15 15 15
-31.4 -15.3 14.0 18 22 19
-11.3 -12.0 11.0 27 28 26
-26.7 -46.3 42.4 99 99 99
-25.4 -45.7 41.9 112 112 112
-26.2 -49.0 44.9 15 19 16
-24.8 -48.2 44.2 28 28 28
21.4 -15.0 13.7 214 214 214
20.8 -14.4 13.2 214 214 214
50.9 -15.2 14.0 111 111 111
51.9 -15.4 14.1 86 86 86
52.1 -15.4 14.1 75 76 76
52.4 -15.4 14.1 75 76 76
52.0 -15.2 13.9 78 78 78
46.2 -13.2 12.1 120 120 120
-31.4 -15.0 14.1 26 26 26
-30.0 -14.5 13.6 26 26 26
-28.4 -13.9 13.0 18 22 19
-27.2 -46.1 43.2 99 99 99
-25.7 -45.2 42.3 109 109 109
-26.1 -47.8 44.7 15 19 16
-24.9 -47.4 44.4 23 24 23
-23.4 -46.4 43.5 52 54 52
21.4 -14.7 13.8 214 214 214
20.9 -14.2 13.3 211 211 211
52.1 -15.1 14.1 79 79 79
51.9 -14.8 13.9 79 79 79
51.1 -14.5 13.6 80 83 82
-29.4 -13.9 13.3 42 42 42
-31.7 -50.7 48.5 94 94 94
-27.8 -46.1 44.1 100 100 100
-26.3 -45.2 43.3 106 106 106
-26.6 -47.5 45.5 6 11 7
-25.9 -48.2 46.1 22 22 22
21.1 -14.0 13.4 214 214 214
52.0 -14.8 14.2 89 89 89
52.2 -14.8 14.1 79 79 79
-132.7 -49.8 48.8 78 80 78
-128.9 -48.8 47.8 78 80 78
-128.1 -48.9 47.9 78 80 78
-127.0 -48.9 47.9 86 86 86
-125.3 -48.7 47.6 87 87 87
-124.5 -48.8 47.8 158 158 158
-124.2 -49.5 48.5 26 26 26
-121.5 -48.9 47.9 81 83 80
-120.4 -48.9 47.9 77 79 77
-119.2 -48.9 47.9 77 79 77
-118.1 -48.9 47.9 75 76 76
-114.8 -48.9 47.9 136 138 137
-113.4 -48.8 47.8 146 148 148
-112.6 -49.4 48.4 115 115 115
-110.1 -48.8 47.8 130 130 130
-108.1 -48.4 47.4 109 111 111
-33.2 -50.1 49.0 117 117 117
-31.2 -48.8 47.8 94 97 96
-28.7 -46.6 45.6 101 101 101
-27.6 -46.4 45.5 115 114 114
-27.1 -47.4 46.4 30 29 29
-26.5 -48.3 47.3 26 25 24
21.0 -13.6 13.3 217 217 217
156.8 -72.6 71.1 202 202 202
153.8 -70.5 69.0 202 202 202
52.1 -14.5 14.2 90 90 90
-125.1 -46.3 46.4 84 84 84
-124.1 -46.3 46.4 78 80 78
-122.7 -46.2 46.3 167 167 167
-121.0 -45.9 46.0 192 195 194
-120.2 -46.1 46.1 79 81 79
-117.9 -46.4 46.5 41 41 41
-116.2 -46.2 46.3 68 70 68
-115.2 -46.2 46.3 74 74 74
-114.1 -46.2 46.3 72 72 72
-112.0 -46.6 46.7 146 146 146
-108.1 -46.9 46.9 172 172 172
-104.7 -45.8 45.9 172 174 174
-28.4 -45.0 45.0 101 101 101
-27.3 -44.9 44.9 112 112 112
-26.8 -45.7 45.8 46 47 45
-25.9 -46.2 46.3 23 24 23
20.8 -13.2 13.2 217 217 217
24.4 -14.4 14.4 218 218 218
157.8 -73.8 73.9 200 200 200
167.8 -76.8 76.9 202 202 202
159.8 -72.3 72.5 202 202 202
-35.7 -57.3 58.7 113 114 113
-31.4 -52.4 53.7 43 44 43
-31.2 -54.2 55.6 13 17 14
-31.8 -57.6 59.1 160 163 162
176.5 -354.7 363.8 222 222 222
24.4 -14.0 14.4 218 218 218
192.1 -88.7 90.9 191 191 191
154.8 -70.7 72.5 200 200 200
148.0 -66.8 68.5 200 200 200
161.7 -71.5 73.3 202 202 202
156.1 -68.3 70.1 202 202 202
-38.2 -59.8 62.8 111 111 111
-33.2 -58.8 61.8 179 179 179
24.4 -13.7 14.4 218 218 218
187.6 -84.5 88.8 193 193 193
156.0 -69.5 73.0 198 198 198
144.8 -63.8 67.1 200 200 200
162.9 -70.3 73.9 202 202 202
155.5 -66.4 69.8 202 202 202
24.6 -13.5 14.6 218 218 218
23.7 -12.8 13.8 219 219 219
27.0 -14.2 15.3 216 216 216
190.3 -83.6 90.1 189 189 189
163.5 -71.1 76.6 197 197 197
144.8 -62.3 67.1 200 200 200
153.8 -64.1 69.0 202 202 202
24.4 -13.0 14.4 218 218 218
23.7 -12.5 13.8 219 219 219
27.0 -13.9 15.3 219 219 219
194.0 -83.1 91.8 179 179 179
160.3 -68.0 75.1 197 197 197
-9.5 -9.5 10.7 36 37 36
176.5 -320.8 363.8 225 225 225
24.4 -12.7 14.4 219 222 221
23.7 -12.2 13.8 219 222 221
26.9 -13.5 15.3 219 222 221
160.3 -66.2 75.1 197 197 197
151.8 -62.0 70.3 200 200 200
164.9 -65.9 74.8 200 200 200
-9.5 -9.2 10.7 37 40 39
-9.2 -9.2 10.7 42 42 42
-9.2 -9.7 11.3 195 195 195
-131.0 -200.5 233.5 26 25 24
-127.1 -203.1 236.5 176 176 176
-118.6 -198.1 230.7 180 180 180
155.6 -275.3 320.6 225 225 225
20.8 -11.3 13.2 218 221 220
23.6 -11.8 13.8 219 222 221
27.7 -13.7 15.9 219 222 221
27.0 -13.2 15.3 219 222 221
182.4 -74.2 86.4 173 173 173
166.9 -67.1 78.2 195 195 195
141.8 -56.4 65.7 200 200 200
174.2 -68.5 79.8 200 200 200
198.2 -71.9 83.7 203 203 203
119.8 -32.1 37.4 56 55 54
-9.5 -9.0 10.7 37 40 39
-9.1 -9.4 11.2 200 202 202
-160.7 -239.5 286.6 22 22 22
20.7 -11.0 13.1 218 221 220
20.8 -10.8 13.0 219 222 221
21.4 -10.9 13.0 219 222 221
23.7 -11.5 13.8 219 222 221
27.0 -12.8 15.3 219 222 221
188.5 -74.5 89.2 174 174 174
168.3 -65.9 78.8 195 195 195
141.8 -54.9 65.7 197 197 197
200.0 -70.6 84.4 203 203 203
124.7 -32.5 38.9 57 57 57
20.8 -10.7 13.2 218 221 220
21.5 -10.6 13.0 219 222 221
23.6 -11.2 13.8 219 222 221
23.2 -10.8 13.3 219 222 221
27.0 -12.5 15.3 219 222 221
193.0 -74.2 91.4 176 179 178
160.9 -61.2 75.4 191 191 191
141.3 -53.2 65.5 195 195 195
228.6 -79.2 97.5 203 203 203
204.5 -70.2 86.4 203 203 203
123.2 -31.2 38.4 57 57 57
-9.5 -8.4 10.7 40 40 40
20.9 -10.4 13.2 219 222 221
21.9 -10.6 13.5 219 222 221
21.9 -10.5 13.3 219 222 221
23.6 -10.8 13.7 219 222 221
23.2 -10.5 13.3 219 222 221
192.1 -71.8 90.9 174 174 174
167.6 -61.9 78.5 183 183 183
141.8 -51.8 65.7 202 202 202
205.5 -68.5 86.8 203 203 203
20.9 -10.1 13.2 219 222 221
21.9 -10.3 13.5 219 222 221
23.5 -10.5 13.7 219 222 221
23.3 -10.2 13.4 219 222 221
192.1 -69.6 90.9 139 141 140
167.6 -60.1 78.5 158 158 158
141.3 -50.1 65.5 191 191 191
208.3 -67.4 88.0 204 204 204
20.8 -9.8 13.2 219 222 221
22.0 -10.1 13.6 219 222 221
22.0 -9.9 13.3 219 222 221
23.6 -10.2 13.7 219 222 221
23.3 -9.9 13.4 220 223 222
193.0 -67.9 91.4 155 155 155
164.9 -57.3 77.2 163 163 163
226.3 -71.7 96.5 202 202 202
208.3 -65.3 88.0 202 202 202
148.3 -29.3 39.4 86 88 88
150.4 -29.5 39.7 86 88 88
20.8 -9.5 13.2 219 222 221
22.0 -9.7 13.6 219 222 221
22.0 -9.6 13.3 219 222 221
23.8 -10.0 13.8 219 222 221
23.0 -9.5 13.2 220 223 222
159.0 -53.6 74.5 152 152 152
200.0 -60.7 84.4 202 202 202
177.4 -53.4 74.2 204 204 204
149.5 -28.4 39.5 90 90 90
-68.2 -22.7 32.6 59 59 59
20.8 -9.2 13.2 219 222 221
21.4 -9.1 13.0 219 222 221
23.3 -9.3 13.4 220 223 222
27.0 -10.6 15.3 220 223 222
171.2 -55.8 80.2 152 154 154
122.3 -37.4 53.7 197 197 197
256.4 -76.1 109.3 202 202 202
203.6 -59.8 86.0 202 202 202
-163.3 -45.0 66.8 52 52 52
-156.5 -44.3 65.9 56 56 56
-159.4 -45.6 67.8 53 53 53
-152.4 -44.5 66.1 173 173 173
-149.3 -44.0 65.5 135 135 135
-77.8 -23.2 34.5 65 65 65
-77.4 -23.3 34.6 62 61 60
-144.2 -44.3 65.9 59 59 59
-71.9 -22.8 34.0 57 57 57
-69.4 -22.3 33.1 53 52 52
-131.5 -44.2 65.7 70 70 70
20.8 -8.9 13.2 219 222 221
21.4 -8.7 13.0 219 222 221
23.3 -9.0 13.4 220 223 222
26.8 -10.2 15.2 220 223 222
120.9 -35.7 53.1 195 195 195
257.9 -74.0 110.0 202 202 202
210.3 -59.7 88.8 202 202 202
-180.6 -48.0 73.9 30 31 30
-177.8 -48.2 74.2 27 27 27
-175.4 -48.0 73.9 31 32 30
-173.0 -47.8 73.6 31 32 30
-172.0 -48.0 73.9 31 32 30
-166.4 -46.9 72.2 173 175 175
-165.3 -47.1 72.5 179 179 179
-164.7 -48.4 74.5 20 23 21
-159.2 -47.3 72.8 20 23 21
-150.2 -48.2 74.2 152 152 152
-145.1 -47.1 72.5 64 63 61
20.8 -8.5 13.2 220 223 222
21.4 -8.4 13.0 220 223 222
23.3 -8.7 13.4 220 223 222
247.6 -71.4 110.0 197 197 197
121.6 -34.7 53.4 195 195 195
122.5 -34.6 53.3 198 198 198
260.9 -72.3 111.3 202 202 202
-192.6 -49.4 78.8 65 66 64
-191.6 -49.6 79.1 59 59 59
-188.9 -49.4 78.8 54 54 54
-189.5 -50.0 79.8 55 55 55
-186.8 -49.8 79.5 53 52 52
-186.5 -50.2 80.2 51 51 51
-180.1 -49.0 78.2 158 161 160
-170.5 -46.8 74.8 98 98 98
-176.5 -50.0 79.8 32 33 31
-158.3 -49.0 78.2 110 110 108
-154.6 -48.4 77.2 19 19 19
20.8 -8.2 13.2 220 223 222
23.6 -8.6 13.7 222 224 224
262.9 -73.1 116.8 195 195 195
124.0 -34.1 54.5 195 195 195
123.5 -33.7 53.7 198 198 198
279.7 -75.5 120.5 198 198 198
268.8 -71.8 114.6 202 202 202
-194.6 -50.9 84.4 172 174 174
-660.4 -178.2 295.6 62 62 62
-589.1 -160.7 266.4 61 60 59
-567.9 -165.3 274.1 62 61 60
-569.8 -167.8 278.2 102 101 99
-555.2 -165.3 274.1 148 148 148
-440.3 -132.6 220.0 59 59 59
20.8 -7.9 13.2 217 217 217
20.8 -7.8 13.0 222 224 224
23.6 -8.3 13.7 222 224 224
23.3 -8.1 13.4 222 224 224
119.8 -31.4 52.1 196 196 196
124.3 -30.7 51.0 226 229 228
128.7 -31.3 51.8 114 116 115
126.5 -30.4 50.4 64 64 64
-872.7 -189.1 326.1 73 73 73
-809.3 -176.9 305.1 73 73 73
-815.4 -179.8 310.1 71 71 71
-808.2 -179.8 310.1 72 72 72
-763.4 -171.4 295.6 72 72 72
-768.6 -174.1 300.3 67 69 67
-813.2 -185.9 320.6 80 82 79
-742.8 -171.4 295.6 74 74 74
-213.8 -52.7 90.9 77 77 77
-202.9 -50.5 87.2 65 65 65
-805.8 -206.9 356.9 72 72 72
-716.4 -185.9 320.6 72 72 72
-633.7 -166.2 286.6 73 73 73
-517.3 -137.1 236.5 69 71 69
-622.0 -174.1 300.3 68 68 68
-615.0 -174.1 300.3 62 61 60
-598.6 -171.4 295.6 102 102 102
-473.4 -137.1 236.5 74 74 74
-435.2 -127.5 220.0 78 78 78
23.8 -8.0 13.9 222 224 224
23.3 -7.8 13.4 222 224 224
122.5 -30.9 53.3 196 196 196
125.5 -31.3 54.0 199 199 199
125.3 -29.8 51.4 231 231 231
132.4 -30.9 53.3 111 111 111
128.9 -29.8 51.4 60 62 61
23.8 -7.7 13.8 221 221 221
23.3 -7.4 13.4 221 221 221
151.7 -38.3 68.8 189 189 189
128.1 -31.3 56.3 196 196 196
127.9 -31.0 55.6 196 196 196
170.0 -39.6 71.1 205 205 205
137.6 -31.7 57.0 195 195 195
126.7 -28.9 52.0 236 236 236
138.6 -31.1 55.8 99 101 101
23.7 -7.4 13.8 222 222 222
27.0 -8.2 15.3 222 222 222
26.7 -8.0 15.0 222 222 222
152.8 -37.0 69.3 190 190 190
130.9 -30.4 57.0 196 196 196
165.7 -37.0 69.3 203 203 203
148.8 -32.9 61.6 197 197 197
144.6 -31.0 58.2 111 113 112
107.6 -132.2 259.1 118 118 118
155.6 -163.5 320.6 225 225 225
24.5 -7.4 14.4 222 222 222
23.6 -7.0 13.8 222 222 222
27.1 -7.8 15.3 224 224 224
26.8 -7.7 15.0 224 224 224
152.8 -35.3 69.3 190 190 190
166.3 -35.5 69.5 206 206 206
167.4 -34.7 68.0 225 225 225
152.6 -31.3 61.4 118 118 118
23.6 -6.7 13.8 224 224 224
22.9 -6.4 13.1 224 224 224
25.1 -6.8 13.9 224 224 224
24.4 -6.5 13.3 224 224 224
24.4 -6.4 13.2 221 221 221
157.2 -35.8 73.6 141 141 141
142.8 -32.2 66.1 174 174 174
154.5 -34.1 70.1 186 186 186
152.7 -33.4 68.5 192 192 192
157.5 -33.4 68.5 197 197 197
159.7 -33.5 68.8 200 200 200
181.8 -37.7 77.5 200 200 200
177.0 -36.4 74.8 204 204 204
166.9 -34.0 69.8 206 206 206
156.4 -31.5 64.8 204 204 204
169.9 -33.6 69.0 214 216 216
160.4 -31.4 64.6 120 120 120
164.7 -32.0 65.7 59 61 60
165.6 -31.9 65.5 66 66 66
173.2 -33.0 67.8 67 67 67
168.1 -31.8 65.2 60 63 62
23.0 -6.1 13.2 222 222 222
25.0 -6.4 13.8 222 222 222
24.4 -6.2 13.3 222 222 222
24.6 -6.1 13.3 222 222 222
24.9 -6.1 13.2 222 222 222
27.1 -6.4 13.9 225 225 225
185.9 -36.4 78.5 204 204 204
85.9 -74.4 168.9 225 225 225
23.1 -5.8 13.3 222 222 222
25.0 -6.1 13.8 222 222 222
24.4 -5.9 13.3 222 222 222
24.7 -5.8 13.3 222 222 222
24.9 -5.8 13.3 222 222 222
27.1 -6.1 13.9 222 222 222
24.4 -5.6 13.5 224 224 224
24.7 -5.6 13.5 224 224 224
25.0 -5.6 13.5 224 224 224
25.3 -5.6 13.5 224 224 224
25.6 -5.6 13.5 224 224 224
24.4 -5.1 13.0 224 224 224
26.9 -4.8 14.0 226 226 226
27.2 -4.8 13.9 222 222 222
27.9 -4.9 14.1 226 226 226
25.9 -4.4 13.6 222 222 222
26.8 -4.5 13.9 222 222 222
27.1 -4.5 13.9 222 222 222
27.4 -4.5 13.9 222 222 222
27.6 -4.5 13.8 226 226 226
27.2 -3.9 14.1 225 225 225
619.8 -24.2 210.2 104 106 106
395.9 -15.3 133.2 111 111 111
672.1 -20.9 227.9 104 104 104
464.7 -14.3 156.3 107 109 109
730.3 -21.7 236.5 46 48 47
502.0 -11.6 168.9 106 108 108
912.8 -20.2 295.6 99 101 101
26.0 -0.3 12.5 176 179 178
26.4 -0.3 12.5 193 193 193
26.5 -0.3 12.4 196 196 196
28.3 -0.3 13.1 198 198 198
27.3 -0.3 12.5 202 202 202
26.1 0.0 12.5 179 182 181
26.4 0.0 12.5 194 194 194
26.6 0.0 12.5 197 197 197
27.3 0.0 12.5 197 197 197
25.7 0.3 12.2 195 195 195
25.9 0.3 12.1 197 197 197
25.5 0.6 12.2 192 192 192
25.7 0.6 12.2 195 195 195
25.9 0.6 12.1 198 198 198
25.7 0.9 12.3 191 191 191
25.9 0.9 12.3 196 196 196
26.1 0.9 12.2 196 196 196
26.0 1.2 12.3 197 197 197
81.9 2.1 21.9 87 86 84
81.5 2.6 21.9 87 87 85
81.6 2.6 21.8 87 87 85
81.7 2.6 21.7 87 87 85
81.7 3.1 22.0 87 87 85
81.9 3.1 21.9 86 85 83
82.1 3.1 21.8 87 87 85
82.9 3.1 21.9 91 91 91
82.4 3.0 21.6 126 128 127
83.9 3.1 21.9 173 175 175
84.3 3.7 22.7 86 85 83
83.3 3.7 22.3 86 85 83
-113.8 29.7 53.1 73 73 73
-64.4 29.7 53.1 228 228 228
-57.9 27.3 48.8 229 232 231
-236.9 59.9 102.8 143 143 142
-229.5 58.6 100.6 109 111 111
-223.6 57.7 99.0 80 80 80
-221.3 57.7 99.0 78 78 78
-222.5 58.6 100.6 86 86 86
-233.8 62.2 106.9 84 83 81
-228.7 61.5 105.7 88 88 88
-223.8 60.9 104.5 94 93 92
-214.3 58.9 101.2 100 100 100
-208.6 58.0 99.6 101 103 103
-208.4 58.6 100.6 111 113 112
-207.2 58.9 101.2 112 114 113
-156.3 59.2 101.7 126 126 126
-160.0 61.5 105.7 126 126 126
-152.4 59.5 102.3 122 124 123
-150.0 59.5 102.3 126 126 126
-143.8 58.0 99.6 123 125 124
-146.9 60.2 103.4 119 119 119
-139.1 58.0 99.6 101 101 101
-142.1 60.2 103.4 80 83 82
-131.1 56.5 97.0 82 84 84
-130.1 57.1 98.0 81 84 83
-137.1 61.2 105.1 71 72 70
-131.0 59.5 102.3 87 87 87
-126.6 58.6 100.6 222 224 224
-120.9 59.2 101.7 111 111 111
-125.9 62.9 108.1 41 41 41
-124.9 63.7 109.3 61 61 61
-118.9 61.9 106.3 71 71 71
-109.6 58.3 100.1 68 68 68
-107.3 58.3 100.1 68 68 68
-109.0 60.5 103.9 67 69 67
-114.1 64.8 111.3 66 66 66
-107.7 62.6 107.5 70 70 70
-102.3 60.9 104.5 88 88 88
-649.9 181.8 300.3 96 96 96
-310.0 179.0 295.6 64 64 64
-148.1 89.5 147.8 66 68 67
-859.0 191.9 305.1 42 43 42
-809.3 191.9 305.1 133 133 133
-802.3 191.9 305.1 125 125 125
-795.2 191.9 305.1 117 119 118
-788.1 191.9 305.1 116 118 117
-781.0 191.9 305.1 117 119 118
-773.9 191.9 305.1 118 120 119
-766.8 191.9 305.1 122 122 122
-759.7 191.9 305.1 119 121 120
-752.6 191.9 305.1 118 120 119
-745.5 191.9 305.1 119 121 120
-738.4 191.9 305.1 119 121 120
-731.3 191.9 305.1 120 122 121
-724.2 191.9 305.1 120 122 121
-705.8 188.8 300.3 115 115 115
-698.8 188.8 300.3 127 127 127
-703.0 191.9 305.1 153 153 153
-707.3 195.0 310.1 100 102 102
-700.1 195.0 310.1 95 94 93
-681.7 191.9 305.1 94 93 92
-663.9 188.8 300.3 96 95 94
-664.0 195.0 310.1 102 104 104
-646.2 191.9 305.1 107 107 107
-639.1 191.9 305.1 103 105 105
-622.0 188.8 300.3 109 109 109
-605.4 185.9 295.6 112 114 113
-598.6 185.9 295.6 121 121 121
-601.1 188.8 300.3 134 137 136
-589.5 191.9 305.1 118 118 118
-564.2 185.9 295.6 109 109 109
-557.3 185.9 295.6 107 107 107
-525.7 191.9 305.1 104 106 106
-461.9 191.9 305.1 148 148 148
-454.8 191.9 305.1 148 150 150
-447.7 191.9 305.1 148 150 150
-440.6 191.9 305.1 148 150 150
-433.5 191.9 305.1 137 139 138
-419.0 195.0 310.1 82 84 84
-405.1 191.9 305.1 71 72 70
-391.7 188.8 300.3 73 74 72
-375.7 195.0 310.1 60 62 60
-273.1 188.8 300.3 127 127 127
-107.3 191.9 305.1 216 216 216
-21.5 185.9 295.6 227 227 227
-14.2 180.2 286.6 225 225 225
-7.7 185.9 295.6 221 221 221
-0.8 180.2 286.6 216 216 216
122.8 185.9 295.6 62 64 61
125.7 180.2 286.6 67 67 67
130.4 177.5 282.3 73 74 72
143.4 185.9 295.6 74 75 73
185.4 201.6 320.6 62 62 62
-859.0 199.0 305.1 39 39 39
-851.9 199.0 305.1 42 43 42
-844.8 199.0 305.1 39 39 39
-837.7 199.0 305.1 34 33 32
-830.6 199.0 305.1 33 33 33
-823.5 199.0 305.1 88 88 86
-816.4 199.0 305.1 126 129 128
-809.3 199.0 305.1 124 124 124
-802.3 199.0 305.1 117 119 118
-795.2 199.0 305.1 115 114 114
-788.1 199.0 305.1 115 115 115
-781.0 199.0 305.1 115 115 115
-773.9 199.0 305.1 118 120 119
-766.8 199.0 305.1 119 121 120
-759.7 199.0 305.1 119 121 120
-752.6 199.0 305.1 120 122 121
-745.5 199.0 305.1 120 122 121
-738.4 199.0 305.1 120 122 121
-731.3 199.0 305.1 121 123 122
-724.2 199.0 305.1 112 114 113
-705.8 195.8 300.3 115 115 115
-698.8 195.8 300.3 150 152 152
-703.0 199.0 305.1 166 166 166
-695.9 199.0 305.1 110 110 110
-700.1 202.2 310.1 96 96 96
-681.7 199.0 305.1 98 98 98
-663.9 195.8 300.3 107 107 107
-667.5 199.0 305.1 112 112 112
-671.2 202.2 310.1 118 118 118
-664.0 202.2 310.1 121 121 121
-646.2 199.0 305.1 121 121 121
-639.1 199.0 305.1 126 128 127
-622.0 195.8 300.3 143 143 142
-605.4 192.7 295.6 158 158 158
-598.6 192.7 295.6 169 169 169
-601.1 195.8 300.3 175 175 175
-603.7 199.0 305.1 174 174 174
-578.0 192.7 295.6 153 155 155
-580.1 195.8 300.3 148 148 148
-564.2 192.7 295.6 132 132 132
-557.3 192.7 295.6 123 123 123
-559.2 195.8 300.3 123 123 123
-555.9 202.2 310.1 119 119 119
-539.9 199.0 305.1 115 117 116
-532.8 199.0 305.1 112 112 112
-525.7 199.0 305.1 109 109 109
-518.6 199.0 305.1 108 108 108
-511.5 199.0 305.1 113 115 114
-504.4 199.0 305.1 124 126 125
-497.3 199.0 305.1 132 132 132
-490.2 199.0 305.1 136 138 137
-483.1 199.0 305.1 144 144 144
-476.0 199.0 305.1 147 147 147
-468.9 199.0 305.1 149 151 151
-461.9 199.0 305.1 164 164 164
-454.8 199.0 305.1 167 167 167
-447.7 199.0 305.1 149 151 151
-440.6 199.0 305.1 146 146 146
-433.5 199.0 305.1 133 133 133
-426.4 199.0 305.1 134 137 136
-426.2 202.2 310.1 121 121 121
-412.2 199.0 305.1 124 126 125
-405.1 199.0 305.1 108 108 108
-391.7 195.8 300.3 90 90 90
-390.9 199.0 305.1 94 94 94
-358.1 192.7 295.6 77 79 77
-339.7 202.2 310.1 132 132 132
-327.1 199.0 305.1 134 136 135
-320.0 199.0 305.1 131 134 133
-312.9 199.0 305.1 125 125 125
-296.3 192.7 295.6 103 103 103
-294.0 195.8 300.3 151 153 153
-301.4 205.6 315.3 143 143 142
-294.0 205.6 315.3 135 135 135
-268.8 192.7 295.6 133 133 133
-199.5 199.0 305.1 66 66 66
-192.4 199.0 305.1 116 116 116
-185.3 199.0 305.1 160 163 162
-178.2 199.0 305.1 163 163 163
-171.1 199.0 305.1 164 164 164
-164.0 199.0 305.1 164 164 164
-156.9 199.0 305.1 208 211 210
-149.8 199.0 305.1 224 224 224
-142.7 199.0 305.1 204 204 204
-135.6 199.0 305.1 208 211 210
-128.5 199.0 305.1 215 215 215
-121.5 199.0 305.1 207 210 209
-114.4 199.0 305.1 206 209 208
-107.3 199.0 305.1 212 213 212
-22.5 202.2 310.1 229 229 229
-14.2 186.9 286.6 227 227 227
-7.6 189.8 291.0 218 218 218
-0.9 189.8 291.0 206 209 208
6.0 192.7 295.6 199 199 199
122.8 192.7 295.6 61 63 61
129.7 192.7 295.6 69 69 69
136.5 192.7 295.6 73 73 73
143.4 192.7 295.6 75 77 75
163.0 209.1 320.6 74 74 74
162.2 199.0 305.1 69 71 69
174.9 205.6 315.3 30 29 28
179.3 202.2 310.1 54 54 54
28.0 15.4 10.9 82 84 84
37.8 22.0 14.5 96 96 96
38.0 21.9 14.5 95 95 95
36.0 22.7 14.8 172 172 172
35.0 20.9 13.6 110 110 110
38.3 22.6 14.7 99 101 101
38.6 22.6 14.7 100 102 102
31.7 20.5 13.1 162 162 162
33.4 21.4 13.7 164 164 164
34.1 21.6 13.8 165 168 167
35.4 21.4 13.7 112 114 113
32.5 21.7 13.7 145 145 144
33.0 21.8 13.8 152 152 152
33.2 21.8 13.8 153 153 153
33.7 21.8 13.8 154 154 154
35.5 21.8 13.8 115 114 114
36.2 22.0 13.9 110 110 110
44.2 19.4 12.3 105 105 105
25.7 17.4 10.8 138 138 138
44.3 19.7 12.3 105 105 105
25.7 17.7 10.8 142 141 140
25.9 17.7 10.8 143 143 142
