ply
format ascii 1.0
element vertex 2904
property float x
property float y
property float z
property uchar red
property uchar green
property uchar blue
end_header
80.1 -271.2 108.1 164 164 164
82.1 -269.7 107.5 165 165 165
85.1 -271.2 108.1 165 165 165
87.6 -271.2 108.1 165 165 165
89.6 -269.7 107.5 165 165 165
92.1 -269.7 107.5 165 165 165
94.6 -269.7 107.5 165 165 165
97.1 -269.7 107.5 165 165 165
99.6 -269.7 107.5 165 165 165
102.7 -271.2 108.1 165 165 165
105.2 -271.2 108.1 165 165 165
107.7 -271.2 108.1 165 165 165
110.2 -271.2 108.1 165 165 165
112.7 -271.2 108.1 162 162 162
114.6 -269.7 107.5 162 162 162
117.1 -269.7 107.5 163 163 163
120.3 -271.2 108.1 163 163 163
122.8 -271.2 108.1 163 163 163
125.3 -271.2 108.1 160 160 160
127.1 -269.7 107.5 160 160 160
129.6 -269.7 107.5 160 160 160
132.1 -269.7 107.5 160 160 160
135.4 -271.2 108.1 160 160 160
137.1 -269.7 107.5 160 160 160
139.6 -269.7 107.5 160 160 160
142.1 -269.7 107.5 156 159 158
397.6 -741.6 295.6 156 159 158
52.8 -76.1 30.3 158 161 160
53.1 -75.6 30.1 158 161 160
53.7 -75.5 30.1 158 161 160
54.5 -75.6 30.1 157 157 157
56.2 -75.9 30.3 158 158 158
51.7 -173.5 69.8 164 164 164
53.3 -173.5 69.8 165 165 165
54.8 -172.9 69.5 165 165 165
60.0 -174.2 70.1 165 165 165
58.8 -166.2 66.8 165 165 165
60.2 -165.6 66.6 165 165 165
61.3 -164.4 66.1 165 165 165
62.8 -164.4 66.1 165 165 165
67.9 -173.5 69.8 165 165 165
69.6 -173.5 69.8 165 165 165
68.2 -166.2 66.8 162 162 162
71.0 -165.6 66.6 162 162 162
72.1 -164.4 66.1 163 163 163
76.8 -171.6 69.0 163 163 163
78.7 -172.2 69.3 163 163 163
77.5 -166.2 66.8 163 163 163
83.5 -175.5 70.6 163 163 163
79.7 -164.4 66.1 163 163 163
85.2 -169.1 68.0 163 163 163
89.0 -173.5 69.8 163 163 163
89.0 -170.4 68.5 160 160 160
87.4 -164.4 66.1 160 160 160
86.8 -160.5 64.6 160 160 160
179.8 -326.5 131.4 160 160 160
98.6 -170.4 68.5 161 161 161
102.9 -172.2 69.3 157 160 159
102.4 -163.8 65.9 157 160 159
105.8 -166.7 67.1 158 161 160
108.5 -168.5 67.8 158 161 160
108.9 -166.7 67.1 156 159 158
53.6 -75.6 30.4 158 161 160
54.4 -75.7 30.5 158 161 160
55.0 -75.5 30.4 159 162 161
55.8 -75.6 30.4 159 162 161
57.5 -77.0 31.0 160 163 162
58.1 -76.8 30.9 158 158 158
28.7 -145.6 59.1 162 162 162
30.1 -145.6 59.1 162 162 162
31.4 -145.6 59.1 162 162 162
31.6 -140.3 57.0 161 161 161
32.9 -140.3 57.0 161 161 161
34.3 -140.3 57.0 164 164 164
35.6 -140.3 57.0 164 164 164
36.9 -140.3 57.0 164 164 164
38.2 -140.3 57.0 164 164 164
39.6 -140.3 57.0 164 164 164
40.9 -140.3 57.0 164 164 164
42.2 -140.3 57.0 167 167 167
43.5 -140.3 57.0 167 167 167
44.7 -139.9 56.8 167 167 167
46.2 -140.3 57.0 167 167 167
47.7 -140.7 57.1 167 167 167
49.0 -140.7 57.1 165 165 165
50.2 -140.3 57.0 165 165 165
51.5 -140.3 57.0 165 165 165
53.0 -140.7 57.1 165 165 165
54.1 -140.3 57.0 165 165 165
55.5 -140.3 57.0 165 165 165
56.8 -140.3 57.0 165 165 165
58.3 -140.7 57.1 159 159 159
60.3 -142.5 57.8 162 162 162
61.7 -142.5 57.8 162 162 162
61.7 -139.5 56.6 163 163 163
62.8 -139.1 56.5 163 163 163
64.1 -139.1 56.5 163 163 163
66.0 -140.3 57.0 163 163 163
67.6 -140.7 57.1 163 163 163
68.7 -140.3 57.0 163 163 163
69.4 -139.1 56.5 160 160 160
72.7 -142.9 58.0 163 163 163
73.8 -142.5 57.8 163 163 163
73.3 -139.1 56.5 163 163 163
76.7 -142.9 58.0 163 163 163
75.7 -138.6 56.3 160 160 160
86.9 -151.2 61.4 164 164 164
84.7 -145.1 58.9 164 164 164
84.5 -142.5 57.8 161 161 161
88.6 -146.9 59.7 161 161 161
86.4 -141.2 57.3 161 161 161
83.2 -133.9 54.4 161 161 161
88.8 -140.7 57.1 161 161 161
93.3 -145.6 59.1 162 162 162
96.1 -147.9 60.1 162 162 162
95.7 -145.1 58.9 163 163 163
93.0 -139.1 56.5 159 162 161
54.8 -76.5 31.1 161 164 163
55.6 -76.6 31.1 158 161 160
56.3 -76.6 31.1 159 162 161
58.7 -76.9 31.2 160 163 162
60.0 -38.8 15.8 176 176 176
58.9 -37.8 15.4 194 194 194
41.1 -127.5 52.3 169 171 170
42.5 -127.8 52.4 167 167 167
46.0 -127.5 52.3 165 165 165
46.7 -126.1 51.7 165 165 165
43.8 -115.4 47.3 165 165 165
44.8 -115.1 47.2 165 165 165
45.3 -113.7 46.6 165 165 165
53.1 -127.1 52.1 162 162 162
49.0 -114.5 46.9 162 162 162
55.4 -126.8 52.0 162 162 162
52.8 -113.4 46.5 163 163 163
63.9 -129.3 53.0 163 163 163
65.1 -129.3 53.0 163 163 163
59.4 -115.6 47.4 163 163 163
68.5 -131.1 53.7 163 163 163
65.0 -122.1 50.0 163 163 163
61.0 -112.5 46.1 163 163 163
62.7 -113.7 46.6 163 163 163
79.3 -134.5 55.1 164 164 164
81.3 -131.5 53.9 164 164 164
73.0 -116.2 47.6 164 164 164
69.5 -109.1 44.7 164 164 164
85.3 -131.8 54.0 165 165 165
88.8 -135.3 55.5 165 165 165
88.3 -132.6 54.4 166 166 166
88.5 -131.1 53.7 163 163 163
82.3 -120.2 49.3 163 163 163
76.8 -110.7 45.4 164 164 164
56.5 -77.2 31.6 161 164 163
57.4 -77.4 31.7 159 162 161
59.5 -78.2 32.1 160 163 162
59.7 -77.4 31.7 160 163 162
28.9 -24.6 10.1 115 115 115
152.3 -115.1 47.2 104 103 101
139.5 -104.6 42.9 104 103 101
129.0 -96.1 39.4 104 103 101
69.3 -47.3 19.4 93 93 93
59.5 -38.1 15.6 197 200 199
58.7 -37.4 15.3 215 215 215
17.4 -91.2 37.8 162 162 162
18.2 -90.9 37.6 162 162 162
22.3 -106.0 43.9 162 162 162
20.9 -90.9 37.6 164 164 164
21.7 -90.9 37.6 166 166 166
22.6 -90.9 37.6 166 166 166
23.5 -90.9 37.6 166 166 166
24.4 -90.9 37.6 164 164 164
25.2 -90.9 37.6 164 164 164
26.1 -90.9 37.6 166 166 166
27.0 -90.9 37.6 166 166 166
27.9 -90.9 37.6 167 167 167
28.7 -90.9 37.6 167 167 167
29.6 -90.9 37.6 169 171 170
35.2 -105.1 43.5 167 167 167
31.4 -90.9 37.6 165 165 165
32.2 -90.9 37.6 165 165 165
38.4 -105.3 43.6 165 165 165
34.0 -91.0 37.7 165 165 165
35.1 -91.4 37.8 165 165 165
41.4 -105.3 43.6 165 165 165
42.3 -105.1 43.5 165 165 165
37.6 -91.0 37.7 165 165 165
38.4 -91.0 37.7 165 165 165
45.5 -105.3 43.6 162 162 162
40.2 -91.0 37.7 166 166 166
42.1 -93.5 38.7 166 166 166
42.6 -92.5 38.3 163 163 163
42.6 -90.5 37.5 163 163 163
43.3 -90.1 37.3 163 163 163
51.4 -105.1 43.5 163 163 163
45.4 -91.0 37.7 166 166 166
46.3 -91.0 37.7 166 166 166
47.5 -91.6 37.9 166 166 166
48.4 -91.8 38.0 166 166 166
48.3 -89.8 37.2 166 166 166
53.1 -95.4 39.5 166 166 166
52.6 -92.9 38.4 163 163 163
61.4 -106.5 44.1 167 167 167
57.0 -94.2 39.0 167 167 167
67.4 -108.0 44.7 167 167 167
66.7 -105.3 43.6 161 161 161
59.8 -92.9 38.4 161 161 161
59.3 -90.9 37.6 165 165 165
73.7 -106.5 44.1 166 166 166
74.0 -105.5 43.7 167 167 167
65.1 -91.6 37.9 164 164 164
57.6 -78.9 32.7 161 164 163
57.7 -78.0 32.3 161 164 163
59.0 -78.8 32.6 162 165 164
67.5 -88.9 36.8 162 165 164
66.6 -86.7 35.9 160 163 162
61.7 -79.3 32.8 160 163 162
121.0 -89.3 36.9 99 101 101
114.7 -84.0 34.8 104 103 101
69.2 -47.0 19.5 90 90 90
69.0 -46.6 19.3 96 96 96
69.0 -46.3 19.2 85 85 85
59.0 -37.4 15.5 212 213 212
58.4 -36.8 15.2 212 213 212
14.3 -87.2 36.4 160 160 160
16.9 -87.7 36.7 162 162 162
17.8 -87.7 36.7 165 165 165
18.2 -85.6 35.8 165 165 165
19.0 -85.7 35.8 167 167 167
20.4 -87.9 36.7 166 166 166
21.2 -87.7 36.7 166 166 166
22.0 -87.7 36.7 168 170 169
22.9 -87.7 36.7 168 170 169
23.2 -85.7 35.8 168 170 169
24.0 -85.7 35.8 168 170 169
24.9 -85.7 35.8 166 166 166
25.7 -85.7 35.8 166 166 166
26.5 -85.7 35.8 167 167 167
27.4 -85.7 35.8 167 167 167
28.2 -85.7 35.8 167 167 167
29.0 -85.7 35.8 167 167 167
29.8 -85.6 35.8 167 167 167
30.7 -85.7 35.8 165 165 165
31.5 -85.7 35.8 165 165 165
32.4 -85.7 35.8 165 165 165
33.2 -85.7 35.8 162 162 162
33.9 -85.4 35.7 165 165 165
34.7 -85.4 35.7 168 168 168
35.7 -85.7 35.8 168 168 168
36.5 -85.7 35.8 165 165 165
37.2 -85.2 35.6 165 165 165
38.1 -85.6 35.8 166 166 166
39.0 -85.7 35.8 166 166 166
40.6 -87.4 36.5 166 166 166
40.8 -85.9 35.9 166 166 166
41.1 -84.8 35.4 166 166 166
42.3 -85.6 35.8 166 166 166
43.2 -85.7 35.8 169 169 169
44.0 -85.7 35.8 169 169 169
44.9 -85.9 35.9 169 169 169
46.0 -86.2 36.0 169 169 169
46.2 -85.1 35.6 169 169 169
46.4 -84.0 35.1 169 169 169
50.3 -87.9 36.7 169 169 169
50.0 -86.1 36.0 171 173 173
51.3 -86.7 36.2 170 171 170
52.2 -86.9 36.3 170 171 170
53.9 -88.2 36.9 170 171 170
53.2 -85.7 35.8 170 171 170
54.7 -86.9 36.3 170 171 170
57.8 -90.3 37.8 170 171 170
57.1 -87.9 36.7 170 171 170
56.4 -85.6 35.8 172 172 172
58.3 -87.2 36.4 168 168 168
63.4 -88.4 36.9 167 167 167
62.1 -85.4 35.7 168 168 168
56.0 -74.9 31.3 165 165 165
66.5 -85.7 35.8 167 167 167
108.3 -78.6 32.8 104 103 101
102.8 -74.1 31.0 99 101 101
69.1 -46.5 19.4 93 93 93
69.0 -46.2 19.3 96 99 98
13.8 -78.5 33.1 163 163 163
14.8 -80.2 33.8 163 163 163
15.4 -79.1 33.4 165 165 165
16.2 -79.3 33.5 165 165 165
17.0 -79.2 33.4 167 167 167
17.6 -78.2 33.0 167 167 167
18.4 -78.4 33.1 168 170 169
19.3 -79.2 33.4 168 170 169
20.1 -79.3 33.5 168 170 169
20.9 -79.3 33.5 168 170 169
21.7 -79.2 33.4 168 170 169
22.5 -79.3 33.5 166 166 166
23.2 -79.2 33.4 166 166 166
24.0 -79.3 33.5 166 166 166
24.8 -79.3 33.5 167 167 167
25.6 -79.3 33.5 167 167 167
26.4 -79.3 33.5 167 167 167
27.1 -79.3 33.5 167 167 167
27.9 -79.3 33.5 167 167 167
28.7 -79.3 33.5 167 167 167
29.6 -79.6 33.6 167 167 167
30.2 -79.2 33.4 167 167 167
30.9 -79.1 33.4 167 167 167
31.8 -79.2 33.4 168 168 168
32.3 -78.6 33.2 165 165 165
33.3 -79.2 33.4 168 168 168
34.2 -79.5 33.5 168 168 168
34.6 -78.6 33.2 170 172 172
35.4 -78.6 33.2 168 168 168
36.3 -79.1 33.4 170 172 172
37.5 -79.9 33.7 170 172 172
38.6 -80.6 34.0 170 172 172
38.7 -79.1 33.4 170 172 172
39.2 -78.6 33.2 171 173 173
40.0 -78.6 33.2 169 169 169
40.8 -78.6 33.2 171 173 173
42.0 -79.5 33.5 171 173 173
43.1 -80.0 33.8 171 173 173
43.9 -80.0 33.8 171 173 173
43.4 -77.8 32.8 171 173 173
47.9 -83.0 35.0 171 173 173
47.5 -80.9 34.1 174 176 176
47.8 -80.0 33.8 171 173 173
48.7 -80.2 33.8 170 171 170
49.7 -80.6 34.0 172 174 174
49.4 -78.8 33.2 172 174 174
51.6 -81.1 34.2 172 174 174
54.4 -84.3 35.6 172 174 174
54.7 -83.3 35.2 172 174 174
54.1 -81.2 34.3 173 175 175
53.7 -79.5 33.5 173 175 175
54.0 -72.5 30.6 172 172 172
54.7 -72.5 30.6 172 172 172
57.7 -75.6 31.9 175 175 175
57.6 -74.5 31.4 173 173 173
96.5 -70.8 29.9 105 105 105
45.2 -28.6 12.1 188 188 188
13.6 -76.7 32.7 163 163 163
15.0 -76.3 32.5 168 168 168
17.1 -75.6 32.2 169 171 170
17.8 -75.4 32.1 168 170 169
20.3 -76.4 32.6 168 170 169
21.1 -76.4 32.6 166 166 166
21.9 -76.4 32.6 166 166 166
22.6 -76.3 32.5 166 166 166
23.3 -76.3 32.5 166 166 166
24.2 -76.5 32.6 167 167 167
24.9 -76.4 32.6 167 167 167
25.6 -76.3 32.5 169 171 170
26.4 -76.4 32.6 169 171 170
27.2 -76.5 32.6 169 171 170
27.9 -76.4 32.6 169 171 170
28.7 -76.4 32.6 169 171 170
29.4 -76.4 32.6 169 171 170
30.0 -76.0 32.4 169 171 170
30.8 -76.1 32.4 169 171 170
31.0 -74.7 31.8 170 172 172
32.3 -76.1 32.4 170 172 172
33.2 -76.4 32.6 177 177 177
33.8 -76.1 32.4 170 172 172
34.6 -76.1 32.4 170 172 172
35.4 -76.3 32.5 173 175 175
36.2 -76.4 32.6 178 178 178
36.9 -76.3 32.5 170 172 172
37.0 -75.0 32.0 170 172 172
37.9 -75.2 32.1 173 175 175
39.1 -76.1 32.4 171 173 173
39.9 -76.3 32.5 173 175 175
40.8 -76.5 32.6 178 178 178
41.7 -76.7 32.7 178 178 178
41.6 -75.2 32.1 178 178 178
42.3 -75.1 32.0 178 178 178
46.2 -79.3 33.8 178 178 178
45.8 -77.2 32.9 179 179 179
46.0 -76.3 32.5 179 179 179
46.4 -75.7 32.3 174 176 176
47.4 -76.1 32.4 181 181 181
47.3 -74.7 31.8 181 181 181
49.1 -76.4 32.6 174 176 176
52.5 -79.3 33.8 179 179 179
52.3 -77.7 33.1 175 177 177
52.0 -76.3 32.5 180 180 180
53.2 -76.9 32.8 175 177 177
54.3 -72.3 30.8 175 177 177
55.0 -72.3 30.8 178 181 180
57.4 -74.5 31.7 176 179 178
57.6 -73.7 31.4 175 175 175
87.6 -63.2 26.9 105 105 105
43.2 -26.9 11.5 212 213 212
42.9 -26.6 11.3 215 215 215
43.2 -26.6 11.3 218 218 218
43.5 -26.6 11.3 219 219 219
24.2 -67.4 29.0 169 171 170
24.8 -67.3 29.0 172 174 174
25.5 -67.3 29.0 177 177 177
26.3 -67.7 29.1 177 177 177
27.1 -67.8 29.2 177 177 177
28.3 -67.5 29.1 180 180 180
28.9 -67.4 29.0 182 182 182
29.5 -67.3 29.0 180 180 180
30.3 -67.4 29.0 189 189 189
30.8 -67.1 28.9 185 185 185
31.6 -67.4 29.0 188 188 188
32.2 -67.3 29.0 185 185 185
34.3 -67.4 29.0 195 195 195
32.0 -61.7 26.6 195 195 195
36.4 -67.5 29.1 197 197 197
34.0 -62.0 26.7 197 197 197
38.1 -68.1 29.3 197 197 197
38.6 -67.8 29.2 200 200 200
41.6 -68.2 29.4 197 197 197
42.2 -68.1 29.3 200 200 200
43.1 -68.6 29.5 197 197 197
43.2 -67.6 29.1 204 204 204
43.8 -67.5 29.1 200 200 200
183.3 -278.1 119.7 200 200 200
182.6 -272.9 117.5 197 197 197
184.2 -271.3 116.8 195 195 195
178.1 -251.1 108.1 199 199 199
157.2 -218.6 94.1 203 203 203
58.1 -73.6 31.7 199 199 199
85.4 -61.0 26.3 108 108 108
82.4 -58.4 25.2 106 106 106
69.6 -48.0 20.7 99 101 101
70.2 -48.1 20.7 99 101 101
42.3 -26.1 11.2 191 191 191
42.1 -25.8 11.1 212 213 212
42.5 -25.9 11.2 218 218 218
42.7 -25.9 11.1 219 219 219
31.4 -59.9 26.1 204 204 204
36.8 -60.8 26.5 204 204 204
37.2 -60.4 26.3 200 200 200
37.8 -60.5 26.3 204 204 204
41.2 -63.8 27.7 204 204 204
39.8 -60.7 26.4 200 200 200
156.2 -227.8 99.0 205 205 205
146.3 -210.2 91.4 202 202 202
137.2 -194.2 84.4 205 205 205
159.8 -223.1 97.0 206 206 206
154.2 -212.2 92.3 206 206 206
145.0 -196.9 85.6 206 206 206
26.1 -34.0 14.8 204 204 204
78.0 -54.4 23.6 108 108 108
66.4 -45.0 19.6 99 101 101
65.7 -44.3 19.2 99 101 101
41.8 -25.2 11.0 215 215 215
37.4 -61.2 26.9 204 204 204
37.2 -59.9 26.3 204 204 204
37.9 -60.1 26.4 204 204 204
42.6 -65.3 28.7 204 204 204
40.4 -61.0 26.8 204 204 204
124.1 -176.5 77.5 205 205 205
121.4 -170.2 74.8 205 205 205
147.7 -204.1 89.7 203 203 203
145.0 -197.5 86.8 203 203 203
134.1 -180.2 79.1 203 203 203
26.3 -33.5 14.7 208 208 208
65.3 -44.1 19.4 104 103 101
65.0 -43.6 19.2 104 103 101
65.1 -43.4 19.1 99 101 101
14.6 -64.9 28.8 206 206 206
15.2 -64.6 28.7 206 206 206
16.0 -65.0 28.8 205 205 205
16.6 -64.7 28.7 205 205 205
19.8 -64.4 28.6 205 205 205
21.9 -64.5 28.6 205 205 205
22.5 -64.5 28.6 205 205 205
23.2 -64.5 28.6 205 205 205
23.9 -64.5 28.6 205 205 205
24.5 -64.4 28.6 205 205 205
25.1 -64.3 28.5 205 205 205
25.9 -64.7 28.7 205 205 205
26.6 -64.7 28.7 205 205 205
27.3 -64.7 28.7 205 205 205
27.9 -64.7 28.7 205 205 205
28.6 -64.6 28.7 205 205 205
31.2 -64.5 28.6 204 204 204
37.5 -64.0 28.4 204 204 204
39.5 -65.0 28.8 207 207 207
39.2 -63.5 28.2 207 207 207
40.6 -64.7 28.7 204 204 204
41.3 -64.8 28.7 204 204 204
42.4 -65.4 29.0 204 204 204
42.9 -65.1 28.9 204 204 204
42.5 -63.5 28.2 204 204 204
116.5 -163.9 72.8 205 205 205
115.5 -160.2 71.1 205 205 205
119.9 -163.9 72.8 206 206 206
132.8 -179.1 79.5 206 206 206
27.0 -35.5 15.7 207 207 207
27.0 -34.9 15.5 207 207 207
26.9 -34.3 15.2 207 207 207
26.8 -33.8 15.0 208 208 208
66.1 -44.2 19.6 106 106 106
16.3 -62.8 28.1 205 205 205
16.9 -62.6 28.1 205 205 205
17.6 -62.7 28.1 208 208 208
18.2 -62.7 28.1 208 208 208
18.9 -62.8 28.1 208 208 208
19.5 -62.8 28.1 207 207 207
20.2 -62.8 28.1 210 210 210
20.9 -62.8 28.1 207 207 207
21.5 -62.8 28.1 207 207 207
22.2 -62.8 28.1 207 207 207
23.5 -62.8 28.1 207 207 207
24.1 -62.8 28.1 207 207 207
24.7 -62.7 28.1 207 207 207
25.4 -62.8 28.1 207 207 207
26.8 -63.0 28.2 207 207 207
28.1 -62.8 28.1 207 207 207
28.6 -62.6 28.1 207 207 207
29.3 -62.7 28.1 207 207 207
30.0 -62.8 28.1 207 207 207
30.6 -62.7 28.1 207 207 207
31.3 -62.7 28.1 207 207 207
37.2 -62.7 28.1 207 207 207
37.8 -62.7 28.1 207 207 207
38.5 -62.8 28.1 207 207 207
38.9 -62.3 27.9 207 207 207
39.8 -62.8 28.1 207 207 207
40.6 -63.0 28.2 207 207 207
42.4 -62.7 28.1 207 207 207
42.0 -61.1 27.4 207 207 207
117.4 -163.5 73.3 207 207 207
113.8 -156.2 70.1 208 208 208
27.1 -35.2 15.8 206 206 206
27.1 -34.7 15.6 206 206 206
26.9 -34.0 15.3 207 207 207
26.9 -33.6 15.0 207 207 207
27.6 -34.0 15.3 207 207 207
73.9 -49.6 22.3 111 113 112
47.1 -71.1 32.2 206 206 206
45.0 -66.9 30.3 206 206 206
43.8 -64.1 29.1 206 206 206
27.1 -34.8 15.8 205 205 205
27.1 -34.4 15.6 206 206 206
26.8 -33.5 15.2 206 206 206
26.7 -33.0 15.0 206 206 206
27.4 -33.4 15.1 207 207 207
46.9 -70.1 32.1 205 205 205
45.3 -66.6 30.5 205 205 205
45.3 -65.6 30.0 202 202 202
27.1 -34.5 15.8 207 207 207
27.1 -34.0 15.6 205 205 205
26.7 -33.1 15.1 205 205 205
26.6 -32.5 14.9 206 206 206
27.3 -32.9 15.1 206 206 206
-29.0 -22.2 10.3 46 46 44
-28.9 -22.3 10.3 43 43 43
-28.6 -22.3 10.3 43 43 43
-28.4 -22.3 10.3 46 46 44
-28.1 -22.3 10.3 48 48 48
-27.9 -22.3 10.3 48 48 48
-27.7 -22.3 10.3 46 46 44
-27.4 -22.3 10.3 46 46 44
-27.2 -22.3 10.3 47 48 47
-26.9 -22.3 10.3 46 46 44
-26.7 -22.3 10.3 46 45 43
-26.4 -22.3 10.3 47 48 47
-26.3 -22.4 10.4 46 45 43
-26.0 -22.4 10.4 46 45 43
-25.7 -22.3 10.3 42 43 42
-25.5 -22.3 10.3 42 43 42
-25.3 -22.3 10.3 42 43 42
-25.0 -22.3 10.3 42 43 42
-24.8 -22.3 10.3 40 40 40
-24.5 -22.3 10.3 40 40 40
-24.3 -22.3 10.3 37 38 37
-24.1 -22.3 10.3 37 38 37
-23.8 -22.3 10.3 37 38 37
-23.6 -22.3 10.3 37 38 37
-23.3 -22.3 10.3 40 40 40
-23.1 -22.3 10.3 37 38 37
-22.9 -22.3 10.3 40 40 40
-22.6 -22.3 10.3 42 43 42
-22.4 -22.4 10.4 42 43 42
-22.2 -22.4 10.4 40 40 40
-21.9 -22.4 10.4 49 49 49
-21.7 -22.4 10.4 54 54 54
-21.4 -22.3 10.3 73 73 73
-21.2 -22.3 10.3 90 90 90
-20.9 -22.3 10.3 92 92 92
-20.7 -22.3 10.3 94 94 94
-20.4 -22.3 10.3 95 98 97
-20.3 -22.4 10.4 103 103 103
-20.1 -22.5 10.4 106 106 106
-19.8 -22.4 10.4 105 105 105
-19.6 -22.4 10.4 105 105 105
-19.2 -22.3 10.3 107 107 107
-19.0 -22.3 10.3 107 109 109
-18.8 -22.4 10.4 107 109 109
-18.6 -22.4 10.4 107 109 109
-18.3 -22.4 10.4 109 111 111
-18.1 -22.4 10.4 113 114 113
-17.9 -22.4 10.4 115 115 115
-17.3 -22.3 10.3 115 114 114
-17.0 -22.3 10.3 115 114 114
-16.9 -22.4 10.4 116 116 116
-16.6 -22.4 10.4 118 118 118
-16.1 -22.3 10.3 119 121 120
-15.8 -22.3 10.3 118 120 119
-15.7 -22.4 10.3 120 122 121
-15.4 -22.4 10.3 124 124 124
-15.1 -22.3 10.3 123 123 123
-15.0 -22.4 10.4 123 123 123
-14.7 -22.4 10.4 125 125 125
-14.4 -22.2 10.3 125 125 125
-14.0 -22.4 10.4 126 126 126
-13.6 -22.2 10.3 126 126 126
-12.9 -22.5 10.4 131 131 131
-12.3 -21.9 10.2 134 134 134
-9.8 -22.2 10.3 134 136 135
-9.4 -22.4 10.4 137 137 137
-9.2 -22.4 10.4 137 139 138
-4.4 -22.4 10.4 162 165 164
-4.1 -22.4 10.4 161 164 163
-3.9 -22.4 10.4 159 162 161
-3.6 -22.4 10.4 160 163 162
-3.4 -22.4 10.4 158 161 160
7.7 -22.4 10.4 208 208 208
7.9 -22.3 10.3 208 208 208
8.2 -22.4 10.4 208 208 208
8.4 -22.4 10.4 208 208 208
8.6 -22.3 10.3 208 208 208
8.9 -22.4 10.4 208 208 208
9.1 -22.4 10.4 208 208 208
9.4 -22.4 10.4 208 208 208
9.6 -22.3 10.3 208 208 208
9.8 -22.3 10.3 208 208 208
10.1 -22.4 10.3 208 208 208
10.3 -22.4 10.3 208 208 208
10.5 -22.3 10.3 211 211 211
10.8 -22.4 10.4 208 208 208
11.1 -22.4 10.4 208 208 208
11.3 -22.4 10.4 205 205 205
11.5 -22.3 10.3 205 205 205
12.0 -22.3 10.3 205 205 205
47.5 -70.2 32.5 207 207 207
46.0 -66.9 31.0 207 207 207
45.6 -65.3 30.2 207 207 207
27.1 -33.7 15.6 207 207 207
26.7 -32.7 15.2 207 207 207
26.6 -32.2 14.9 205 205 205
27.3 -32.6 15.1 205 205 205
27.2 -32.0 14.8 206 206 206
-29.7 -22.5 10.5 47 46 45
-29.6 -22.7 10.6 47 46 45
-29.1 -22.7 10.6 48 48 48
-28.9 -22.7 10.6 48 48 48
-28.7 -22.7 10.6 48 48 48
-28.4 -22.7 10.6 46 46 44
-28.2 -22.7 10.6 46 46 44
-27.9 -22.7 10.6 48 48 48
-27.7 -22.7 10.6 51 51 51
-26.2 -22.7 10.6 43 43 43
-26.0 -22.7 10.6 43 43 43
-25.2 -22.7 10.6 43 43 43
-25.0 -22.7 10.6 41 41 41
-24.7 -22.7 10.6 38 38 38
-24.5 -22.7 10.6 38 38 38
-24.2 -22.7 10.6 38 38 38
-24.0 -22.7 10.6 38 38 38
-23.7 -22.7 10.6 38 38 38
-21.7 -22.7 10.6 52 54 52
-21.5 -22.7 10.6 60 62 60
-21.3 -22.7 10.6 85 85 85
-20.0 -22.6 10.6 107 107 107
-19.7 -22.6 10.6 102 102 102
-19.5 -22.7 10.6 104 104 104
-19.3 -22.7 10.6 108 108 108
-19.0 -22.7 10.6 108 108 108
-18.6 -22.7 10.6 107 107 107
-18.2 -22.6 10.6 108 110 110
-18.0 -22.7 10.6 108 110 110
-17.8 -22.7 10.6 110 112 111
-17.5 -22.7 10.6 110 112 111
-16.3 -22.7 10.6 117 117 117
-16.0 -22.6 10.6 119 119 119
-15.8 -22.6 10.6 120 122 121
-15.6 -22.7 10.6 120 122 121
-15.0 -22.6 10.6 121 123 122
-14.8 -22.6 10.6 121 123 122
-14.6 -22.7 10.6 121 123 122
-14.2 -22.4 10.5 120 122 121
-13.1 -22.7 10.6 129 129 129
-10.4 -22.8 10.7 133 133 133
-9.6 -22.6 10.6 134 134 134
10.6 -22.7 10.6 207 207 207
48.2 -70.4 33.0 207 207 207
46.3 -66.7 31.2 207 207 207
43.5 -61.6 28.8 200 200 200
42.3 -59.1 27.7 204 204 204
27.1 -33.3 15.6 206 206 206
26.8 -32.4 15.2 207 207 207
26.7 -32.0 15.0 204 204 204
27.3 -32.3 15.1 205 205 205
27.2 -31.8 14.9 205 205 205
-30.9 -23.2 11.0 47 46 45
-30.8 -23.3 11.0 47 46 45
-30.5 -23.3 11.0 49 49 49
-30.3 -23.3 11.0 49 49 49
-30.0 -23.3 11.0 47 46 45
-29.8 -23.3 11.0 47 46 45
-29.5 -23.3 11.0 47 46 45
-29.2 -23.3 11.0 47 46 45
-29.0 -23.3 11.0 49 49 49
-28.7 -23.3 11.0 49 49 49
-28.5 -23.4 11.0 49 49 49
-28.3 -23.4 11.0 49 49 49
-28.0 -23.3 11.0 49 49 49
-27.7 -23.3 11.0 49 49 49
-27.5 -23.3 11.0 47 46 45
-27.2 -23.3 11.0 44 44 44
-26.9 -23.3 11.0 44 44 44
-26.7 -23.4 11.0 44 44 44
-26.5 -23.4 11.0 44 44 44
-26.2 -23.3 11.0 42 42 42
-25.9 -23.3 11.0 39 39 39
-25.7 -23.3 11.0 39 39 39
-25.4 -23.3 11.0 42 42 42
-25.1 -23.3 11.0 39 39 39
-24.9 -23.3 11.0 39 39 39
-24.7 -23.4 11.0 39 39 39
-24.4 -23.4 11.0 39 39 39
-24.2 -23.3 11.0 39 39 39
-23.9 -23.3 11.0 39 39 39
-23.7 -23.4 11.0 42 42 42
-23.4 -23.3 11.0 42 42 42
-23.1 -23.4 11.0 44 44 44
-22.8 -23.3 11.0 44 44 44
-22.6 -23.3 11.0 47 46 45
-22.4 -23.3 11.0 44 44 44
-22.1 -23.4 11.0 50 50 50
-21.9 -23.4 11.0 49 49 49
-21.6 -23.3 11.0 69 69 69
-21.3 -23.3 11.0 88 90 89
-21.0 -23.3 11.0 95 95 95
-20.8 -23.3 11.0 93 93 93
-20.6 -23.4 11.0 97 97 97
-20.3 -23.3 11.0 97 100 99
-20.0 -23.3 11.0 99 101 101
-19.8 -23.4 11.0 99 101 101
-19.5 -23.3 11.0 103 103 103
-19.2 -23.3 11.0 103 103 103
-18.5 -23.3 11.0 107 107 107
-18.2 -23.3 11.0 108 108 108
-18.0 -23.3 11.0 109 111 111
-17.8 -23.4 11.0 109 111 111
-17.5 -23.3 11.0 111 113 112
-17.2 -23.3 11.0 109 111 111
-17.0 -23.3 11.0 111 113 112
-16.7 -23.4 11.0 115 114 114
-16.5 -23.3 11.0 115 114 114
-16.2 -23.3 11.0 116 116 116
-15.8 -23.2 11.0 118 118 118
-15.4 -23.4 11.0 118 118 118
-15.1 -23.3 11.0 118 118 118
-14.4 -23.4 11.1 121 123 122
-14.2 -23.4 11.1 120 122 121
-13.8 -23.2 11.0 122 124 123
-11.9 -22.5 10.6 125 125 125
-10.6 -23.5 11.1 130 130 130
-10.3 -23.3 11.0 131 134 133
-10.0 -23.3 11.0 131 134 133
-9.7 -23.2 11.0 134 134 134
-9.5 -23.4 11.1 136 138 137
-9.3 -23.4 11.1 138 137 136
-9.0 -23.3 11.0 140 140 140
27.1 -32.9 15.6 206 206 206
27.2 -32.6 15.4 206 206 206
27.0 -31.9 15.1 206 206 206
27.5 -32.2 15.2 207 207 207
27.3 -31.5 14.9 204 204 204
-38.5 -28.6 13.7 48 47 46
-36.2 -28.5 13.6 50 50 50
-34.9 -28.5 13.6 50 50 50
-33.1 -28.6 13.7 42 43 42
-32.0 -28.5 13.6 42 43 42
-26.0 -23.3 11.2 45 45 45
-29.4 -28.7 13.7 40 40 40
-29.0 -28.6 13.7 40 40 40
-28.4 -28.4 13.6 42 43 42
-28.1 -28.4 13.6 43 43 43
-26.3 -28.5 13.6 50 50 50
-25.5 -28.6 13.7 95 95 95
-25.1 -28.6 13.7 90 92 91
-20.0 -23.3 11.2 97 97 97
-19.7 -23.3 11.1 98 98 98
-19.3 -23.1 11.1 99 101 101
-17.4 -23.3 11.1 108 108 108
-16.7 -23.8 11.4 110 112 111
-10.1 -23.3 11.2 124 126 125
-12.0 -28.4 13.6 126 126 126
27.1 -32.6 15.6 205 205 205
27.1 -32.2 15.4 205 205 205
26.8 -31.4 15.0 206 206 206
27.5 -31.7 15.2 206 206 206
27.2 -31.1 14.9 206 206 206
-39.0 -28.7 13.9 49 48 47
-40.0 -29.6 14.3 51 51 51
-35.7 -29.6 14.3 51 51 51
-35.3 -29.6 14.3 49 48 47
-35.0 -29.6 14.3 49 48 47
-34.4 -29.6 14.3 46 46 46
-30.8 -29.7 14.4 43 43 43
-30.1 -29.4 14.2 41 41 41
-29.1 -28.7 13.9 39 39 39
-28.5 -28.5 13.8 42 42 42
-28.4 -29.7 14.4 42 42 42
-28.1 -29.7 14.4 44 44 44
-14.3 -28.8 13.9 111 111 111
-13.9 -28.6 13.8 110 112 111
-13.5 -28.5 13.8 108 110 110
-10.7 -23.8 11.5 112 112 112
-9.9 -23.7 11.4 111 111 111
-9.6 -23.6 11.4 105 105 105
7.6 -29.6 14.3 206 206 206
8.0 -29.6 14.3 206 206 206
8.6 -29.5 14.3 206 206 206
9.3 -29.6 14.3 209 209 209
10.0 -29.7 14.4 206 206 206
10.2 -29.5 14.3 206 206 206
10.6 -29.5 14.3 206 206 206
10.9 -29.6 14.3 206 206 206
11.3 -29.8 14.4 206 206 206
11.7 -29.8 14.4 206 206 206
12.0 -29.7 14.4 206 206 206
13.3 -29.7 14.4 206 206 206
15.3 -29.7 14.4 206 206 206
15.9 -29.6 14.3 205 205 205
16.3 -29.6 14.3 205 205 205
17.0 -29.7 14.4 205 205 205
38.7 -50.7 24.5 205 205 205
37.8 -48.8 23.6 205 205 205
38.1 -48.5 23.5 206 206 206
26.7 -30.9 15.0 205 205 205
27.5 -31.4 15.2 205 205 205
27.0 -30.5 14.7 206 206 206
-15.2 -29.5 14.5 92 92 92
-14.8 -29.5 14.4 103 105 105
-14.4 -29.4 14.4 88 88 88
-14.1 -29.3 14.4 72 71 69
-13.8 -29.4 14.4 72 71 69
-12.1 -29.6 14.5 15 15 15
-11.8 -29.5 14.5 31 31 31
-11.5 -29.5 14.4 98 100 100
-11.1 -29.5 14.4 179 182 181
-10.8 -29.4 14.4 177 177 177
-10.4 -29.4 14.4 174 174 174
-7.8 -29.5 14.4 203 203 203
-7.4 -29.5 14.4 205 205 205
-7.1 -29.6 14.5 204 204 204
-6.8 -29.5 14.4 200 200 200
-6.4 -29.5 14.4 199 199 199
-6.1 -29.5 14.4 199 199 199
-5.7 -29.5 14.4 198 198 198
-5.4 -29.5 14.4 197 197 197
-5.1 -29.5 14.5 194 194 194
-4.7 -29.5 14.5 191 191 191
-4.4 -29.5 14.4 193 193 193
-4.1 -29.5 14.4 193 193 193
-3.7 -29.5 14.5 193 193 193
-2.7 -29.5 14.4 191 191 191
-2.4 -29.5 14.4 193 193 193
-2.1 -29.5 14.4 193 193 193
-1.7 -29.5 14.4 193 193 193
-1.4 -29.5 14.4 193 193 193
-1.0 -29.5 14.4 191 191 191
-0.7 -29.5 14.4 190 190 190
-0.4 -29.5 14.4 186 186 186
-0.0 -29.5 14.5 186 186 186
0.3 -29.5 14.5 186 186 186
0.6 -29.5 14.4 184 184 184
1.0 -29.5 14.4 184 184 184
1.3 -29.5 14.4 186 186 186
1.6 -29.5 14.4 184 184 184
2.0 -29.5 14.4 184 184 184
2.3 -29.5 14.4 184 184 184
2.6 -29.4 14.4 184 184 184
6.0 -29.5 14.5 175 175 175
6.3 -29.5 14.4 173 173 173
6.7 -29.5 14.4 203 203 203
7.0 -29.6 14.5 206 206 206
7.3 -29.5 14.5 203 203 203
7.7 -29.5 14.4 206 206 206
8.0 -29.5 14.5 206 206 206
8.3 -29.5 14.4 206 206 206
8.7 -29.5 14.4 209 209 209
9.0 -29.5 14.4 209 209 209
9.3 -29.5 14.4 209 209 209
9.7 -29.5 14.4 206 206 206
10.0 -29.5 14.4 206 206 206
10.4 -29.5 14.4 203 203 203
10.7 -29.5 14.4 206 206 206
11.0 -29.5 14.4 205 205 205
11.4 -29.6 14.5 205 205 205
11.7 -29.6 14.5 205 205 205
12.0 -29.5 14.4 208 208 208
12.4 -29.6 14.5 208 208 208
12.7 -29.5 14.4 205 205 205
13.0 -29.5 14.4 205 205 205
13.4 -29.5 14.4 205 205 205
13.7 -29.5 14.5 205 205 205
14.1 -29.5 14.4 205 205 205
14.4 -29.5 14.4 205 205 205
14.7 -29.5 14.5 205 205 205
15.1 -29.5 14.5 205 205 205
15.4 -29.5 14.4 205 205 205
15.7 -29.5 14.4 205 205 205
16.1 -29.5 14.4 205 205 205
16.4 -29.5 14.4 208 208 208
16.8 -29.6 14.5 208 208 208
17.1 -29.5 14.4 205 205 205
17.4 -29.5 14.4 205 205 205
17.8 -29.5 14.5 205 205 205
18.1 -29.5 14.4 202 202 202
18.4 -29.6 14.5 205 205 205
18.8 -29.6 14.5 205 205 205
19.1 -29.5 14.4 205 205 205
19.4 -29.5 14.5 205 205 205
19.8 -29.5 14.5 205 205 205
20.1 -29.5 14.4 205 205 205
20.4 -29.5 14.5 205 205 205
20.8 -29.6 14.5 204 204 204
21.1 -29.6 14.5 204 204 204
21.5 -29.6 14.5 204 204 204
21.8 -29.5 14.5 204 204 204
26.3 -30.0 14.7 204 204 204
26.7 -29.8 14.6 205 205 205
26.7 -29.4 14.4 205 205 205
27.0 -29.4 14.4 205 205 205
27.4 -29.5 14.4 206 206 206
-14.8 -29.1 14.4 29 31 29
-14.4 -29.0 14.3 28 28 28
-14.0 -28.9 14.3 26 26 26
-13.7 -29.0 14.3 29 30 28
-15.8 -34.2 16.9 29 30 28
-10.2 -24.6 12.2 31 31 31
-9.9 -24.6 12.2 33 36 35
-11.4 -29.1 14.4 124 126 125
-11.1 -29.0 14.4 180 183 182
-10.7 -29.0 14.4 186 186 186
-5.4 -29.1 14.4 202 202 202
-4.7 -29.1 14.4 200 200 200
0.3 -29.1 14.4 191 191 191
0.6 -29.1 14.4 191 191 191
1.6 -29.1 14.4 189 189 189
2.0 -29.1 14.4 189 189 189
2.5 -24.4 12.1 185 185 185
8.0 -29.1 14.4 210 210 210
8.3 -29.1 14.4 210 210 210
8.6 -29.0 14.4 208 208 208
9.0 -29.1 14.4 208 208 208
10.0 -29.1 14.4 208 208 208
10.3 -29.1 14.4 205 205 205
10.7 -29.1 14.4 205 205 205
11.0 -29.1 14.4 205 205 205
11.4 -29.1 14.4 205 205 205
11.7 -29.1 14.4 205 205 205
12.0 -29.1 14.4 205 205 205
12.4 -29.1 14.4 208 208 208
12.7 -29.1 14.4 205 205 205
11.0 -24.6 12.2 205 205 205
13.3 -29.1 14.4 205 205 205
13.7 -29.1 14.4 205 205 205
14.3 -29.1 14.4 205 205 205
14.7 -29.1 14.4 205 205 205
15.0 -29.1 14.4 205 205 205
15.4 -29.1 14.4 205 205 205
16.0 -29.1 14.4 204 204 204
16.7 -29.1 14.4 207 207 207
17.7 -29.1 14.4 204 204 204
18.0 -29.1 14.4 204 204 204
18.4 -29.1 14.4 207 207 207
19.0 -29.1 14.4 204 204 204
19.4 -29.1 14.4 204 204 204
19.7 -29.1 14.4 204 204 204
20.4 -29.1 14.4 204 204 204
20.7 -29.1 14.4 204 204 204
21.1 -29.1 14.4 204 204 204
21.4 -29.2 14.4 204 204 204
21.7 -29.1 14.4 204 204 204
26.1 -29.5 14.6 206 206 206
26.7 -29.4 14.6 204 204 204
26.6 -29.0 14.4 204 204 204
26.8 -28.9 14.3 205 205 205
27.4 -29.1 14.4 205 205 205
-17.5 -33.4 16.7 27 27 27
-17.2 -33.6 16.8 25 25 25
-17.0 -33.8 16.9 27 27 27
-15.8 -33.9 17.0 26 26 26
-10.3 -24.5 12.3 34 34 34
-10.0 -24.5 12.3 39 39 39
-9.7 -24.4 12.2 138 138 138
-9.1 -24.4 12.2 185 185 185
-4.6 -24.4 12.2 208 208 208
2.2 -24.4 12.2 188 188 188
2.5 -24.3 12.2 188 188 188
9.1 -24.6 12.3 205 205 205
9.4 -24.6 12.3 207 207 207
9.6 -24.5 12.2 207 207 207
9.9 -24.5 12.2 204 204 204
10.2 -24.5 12.3 207 207 207
10.5 -24.5 12.2 207 207 207
10.8 -24.5 12.2 207 207 207
11.0 -24.4 12.2 204 204 204
11.3 -24.4 12.2 204 204 204
11.6 -24.4 12.2 204 204 204
15.4 -24.6 12.3 207 207 207
16.1 -24.4 12.2 207 207 207
17.1 -24.5 12.3 206 206 206
17.3 -24.4 12.2 206 206 206
17.6 -24.5 12.3 208 208 208
17.9 -24.4 12.2 203 203 203
38.4 -48.0 24.0 204 204 204
37.8 -46.5 23.3 204 204 204
38.9 -47.2 23.6 204 204 204
38.9 -46.5 23.3 204 204 204
26.1 -29.1 14.6 205 205 205
26.8 -28.4 14.2 204 204 204
27.3 -28.7 14.4 204 204 204
27.4 -28.5 14.2 204 204 204
27.5 -28.2 14.1 205 205 205
28.1 -28.4 14.2 205 205 205
28.2 -28.2 14.1 205 205 205
-31.2 -24.3 12.3 58 59 59
-25.1 -24.2 12.3 45 45 45
-23.5 -24.3 12.3 44 44 44
-17.5 -32.9 16.7 25 25 25
-17.1 -33.0 16.7 28 28 28
-16.8 -33.2 16.8 27 27 27
-10.8 -24.1 12.2 31 30 29
-10.5 -24.1 12.2 32 32 32
-10.1 -24.3 12.3 40 40 40
-9.1 -24.1 12.2 186 188 187
10.8 -24.3 12.3 207 207 207
11.1 -24.2 12.2 204 204 204
11.3 -24.2 12.2 204 204 204
38.7 -47.7 24.2 203 203 203
39.5 -46.6 23.6 204 204 204
27.4 -28.8 14.6 203 203 203
27.5 -28.6 14.5 204 204 204
27.5 -28.2 14.3 204 204 204
27.6 -28.0 14.2 204 204 204
28.4 -28.4 14.4 204 204 204
28.5 -28.2 14.3 204 204 204
-35.1 -24.3 12.5 56 56 56
-35.0 -24.5 12.5 60 62 60
-34.7 -24.5 12.5 60 62 60
-34.4 -24.5 12.5 60 62 60
-34.1 -24.5 12.5 58 59 59
-33.8 -24.5 12.5 58 59 59
-33.5 -24.4 12.5 56 56 56
-33.3 -24.5 12.5 56 56 56
-33.0 -24.5 12.5 58 59 59
-32.7 -24.5 12.5 58 59 59
-32.4 -24.4 12.5 58 59 59
-32.1 -24.5 12.5 58 59 59
-31.8 -24.5 12.5 59 59 59
-31.6 -24.5 12.6 57 57 57
-31.0 -24.5 12.6 54 54 54
-30.7 -24.5 12.6 55 55 55
-29.9 -24.6 12.6 49 49 49
-28.2 -24.6 12.6 50 50 50
-27.7 -24.5 12.5 50 50 50
-27.4 -24.4 12.5 50 50 50
-26.4 -24.6 12.6 51 51 51
-26.0 -24.5 12.6 48 48 48
-25.7 -24.4 12.5 49 49 49
-24.3 -24.6 12.6 47 47 47
-23.9 -24.5 12.5 45 45 45
-23.7 -24.5 12.6 42 43 42
-23.4 -24.5 12.6 41 41 39
-22.9 -24.6 12.6 42 42 40
-22.6 -24.6 12.6 42 42 40
-21.1 -24.6 12.6 43 42 41
-20.8 -24.5 12.6 41 41 41
-17.7 -24.7 12.7 19 19 19
-17.1 -24.3 12.5 21 21 21
-11.7 -24.5 12.6 29 31 29
-11.0 -24.3 12.4 32 31 30
-10.7 -24.2 12.4 32 32 32
-10.5 -24.4 12.5 35 37 36
-10.2 -24.4 12.5 40 40 40
9.0 -24.5 12.5 207 207 207
9.3 -24.5 12.5 207 207 207
9.6 -24.5 12.6 206 206 206
9.9 -24.4 12.5 206 206 206
10.2 -24.5 12.5 206 206 206
10.7 -24.5 12.5 206 206 206
11.6 -24.4 12.5 203 203 203
15.7 -24.5 12.6 206 206 206
16.0 -24.4 12.5 206 206 206
16.3 -24.4 12.5 206 206 206
16.5 -24.4 12.5 206 206 206
17.2 -24.5 12.6 205 205 205
17.4 -24.5 12.5 205 205 205
17.7 -24.4 12.5 205 205 205
18.0 -24.4 12.5 205 205 205
18.3 -24.4 12.5 205 205 205
18.5 -24.4 12.5 205 205 205
39.2 -47.7 24.5 203 203 203
38.7 -46.5 23.9 203 203 203
39.9 -47.3 24.2 203 203 203
40.1 -46.8 24.0 203 203 203
28.4 -29.4 15.1 205 205 205
27.8 -28.5 14.6 203 203 203
27.8 -28.1 14.4 203 203 203
27.5 -27.6 14.1 203 203 203
-35.8 -24.5 12.7 58 59 59
-35.6 -24.6 12.7 60 62 60
-35.3 -24.6 12.7 60 62 60
-35.0 -24.6 12.7 61 63 61
-34.7 -24.6 12.7 61 63 61
-34.4 -24.5 12.7 61 63 61
-34.0 -24.5 12.7 59 59 59
-33.8 -24.5 12.7 59 59 59
-33.5 -24.5 12.7 61 63 61
-33.2 -24.6 12.7 61 63 61
-32.9 -24.6 12.7 59 59 59
-32.6 -24.5 12.7 59 59 59
-32.3 -24.5 12.7 59 59 59
-31.9 -24.5 12.7 58 58 58
-31.7 -24.5 12.7 58 58 58
-31.4 -24.6 12.7 55 55 55
-31.1 -24.5 12.7 55 55 55
-30.8 -24.6 12.7 54 53 52
-30.6 -24.6 12.7 54 53 52
-30.2 -24.5 12.7 50 50 50
-29.9 -24.5 12.7 50 50 50
-29.6 -24.5 12.7 50 50 50
-29.3 -24.5 12.7 51 51 51
-29.0 -24.5 12.7 51 51 51
-28.7 -24.5 12.7 51 51 51
-28.5 -24.6 12.7 51 51 51
-28.2 -24.6 12.7 51 51 51
-27.8 -24.5 12.7 51 51 51
-27.6 -24.6 12.7 51 51 51
-27.3 -24.6 12.7 51 51 51
-27.1 -24.6 12.8 52 52 52
-26.7 -24.6 12.8 52 52 52
-26.3 -24.5 12.7 50 50 50
-26.0 -24.4 12.7 50 50 50
-25.8 -24.6 12.7 50 50 50
-25.5 -24.6 12.7 47 48 47
-25.1 -24.5 12.7 47 48 47
-24.7 -24.7 12.8 46 46 46
-24.3 -24.5 12.7 46 46 46
-24.0 -24.5 12.7 44 44 44
-23.6 -24.4 12.7 42 42 40
-23.3 -24.5 12.7 43 42 41
-23.2 -24.6 12.8 43 42 41
-22.8 -24.5 12.7 43 42 41
-22.4 -24.5 12.7 41 41 41
-21.7 -24.6 12.8 39 41 41
-21.3 -24.5 12.7 42 42 42
-21.0 -24.5 12.7 40 42 42
-20.7 -24.5 12.7 40 42 42
-20.4 -24.4 12.7 38 38 38
-20.1 -24.5 12.7 29 29 29
-19.8 -24.5 12.7 19 19 19
-18.2 -24.8 12.8 18 18 18
-17.8 -24.6 12.7 19 19 19
-17.3 -24.2 12.6 20 20 20
-15.7 -24.5 12.7 24 27 25
-15.4 -24.5 12.7 24 27 25
-15.1 -24.5 12.7 27 27 27
-13.4 -24.6 12.7 29 29 29
-13.1 -24.6 12.7 30 29 29
-12.9 -24.8 12.9 28 28 28
-13.3 -26.3 13.6 29 29 29
-11.9 -24.5 12.7 29 29 29
-11.5 -24.4 12.7 29 31 29
-11.2 -24.4 12.7 29 31 29
-10.9 -24.3 12.6 32 31 30
-10.6 -24.3 12.6 36 36 36
-10.3 -24.3 12.6 43 43 43
-10.1 -24.6 12.7 175 175 175
16.0 -24.7 12.8 205 205 205
16.2 -24.5 12.7 205 205 205
39.4 -47.5 24.6 205 205 205
39.1 -46.4 24.1 205 205 205
40.4 -46.6 24.2 206 206 206
40.8 -46.5 24.1 206 206 206
44.1 -49.5 25.7 203 203 203
27.6 -29.4 15.3 204 204 204
28.6 -29.3 15.2 204 204 204
-35.8 -24.2 12.7 59 59 59
-35.6 -24.3 12.7 61 63 61
-35.3 -24.3 12.7 61 63 61
-35.0 -24.3 12.7 61 63 61
-34.7 -24.3 12.7 61 63 61
-34.4 -24.3 12.7 61 63 61
-34.0 -24.2 12.7 60 60 60
-33.8 -24.2 12.7 62 64 61
-33.5 -24.3 12.7 62 64 61
-33.2 -24.3 12.7 62 64 61
-32.9 -24.3 12.7 60 60 60
-32.6 -24.3 12.7 60 60 60
-32.3 -24.2 12.7 60 60 60
-31.9 -24.2 12.7 60 60 60
-31.1 -24.2 12.7 56 56 56
-30.8 -24.3 12.7 57 57 57
-30.6 -24.3 12.7 55 54 53
-30.2 -24.2 12.7 57 57 57
-29.9 -24.2 12.7 55 54 53
-29.6 -24.2 12.7 51 51 51
-29.3 -24.2 12.7 52 52 52
-29.0 -24.2 12.7 52 52 52
-28.8 -24.3 12.7 52 52 52
-28.5 -24.3 12.7 52 52 52
-28.2 -24.3 12.7 52 52 52
-27.8 -24.2 12.7 52 52 52
-27.6 -24.3 12.7 52 52 52
-27.1 -24.4 12.8 53 52 52
-26.7 -24.3 12.8 53 52 52
-26.3 -24.2 12.7 53 52 52
-26.0 -24.1 12.7 51 51 51
-25.8 -24.3 12.7 51 51 51
-25.6 -24.3 12.8 53 52 52
-25.2 -24.2 12.7 51 51 51
-25.1 -24.4 12.8 48 48 48
-24.8 -24.4 12.8 47 47 47
-24.3 -24.2 12.7 44 44 44
-24.0 -24.2 12.7 43 42 41
-23.6 -24.2 12.7 44 43 42
-23.3 -24.2 12.7 44 43 42
-23.3 -24.4 12.8 44 43 42
-22.8 -24.2 12.7 41 41 41
-22.4 -24.2 12.7 42 42 42
-21.7 -24.4 12.8 41 43 42
-21.4 -24.3 12.7 41 43 42
-21.0 -24.2 12.7 41 43 42
-20.7 -24.2 12.7 41 43 42
-20.4 -24.1 12.7 37 38 37
-17.8 -24.3 12.7 20 20 20
-17.3 -24.0 12.6 20 20 20
-15.7 -24.2 12.7 28 28 28
-15.4 -24.3 12.7 28 28 28
-13.4 -24.3 12.8 29 29 29
-13.1 -24.3 12.8 29 29 29
-12.9 -24.5 12.9 29 29 29
-11.9 -24.2 12.7 30 31 30
-11.5 -24.1 12.7 30 31 30
-11.3 -24.2 12.7 29 31 29
-10.9 -24.1 12.7 29 31 29
-10.6 -24.1 12.6 36 36 36
-10.3 -24.0 12.6 44 44 44
39.2 -46.6 24.5 205 205 205
38.4 -45.0 23.6 205 205 205
40.0 -45.6 23.9 205 205 205
40.0 -44.9 23.6 205 205 205
44.2 -49.0 25.7 205 205 205
27.7 -29.2 15.3 203 203 203
29.2 -29.9 15.7 204 204 204
28.9 -29.2 15.4 204 204 204
-35.9 -24.0 12.7 62 64 61
-35.7 -24.1 12.8 62 64 61
-35.5 -24.1 12.8 62 64 61
-35.1 -24.1 12.8 62 64 61
-34.8 -24.1 12.8 62 64 61
-34.5 -24.1 12.8 62 64 61
-34.2 -24.0 12.8 62 64 61
-33.9 -24.0 12.8 62 64 61
-33.7 -24.1 12.8 63 64 62
-33.4 -24.1 12.8 63 64 62
-33.1 -24.1 12.8 61 61 61
-32.7 -24.0 12.8 61 61 61
-32.4 -24.0 12.8 61 61 61
-32.2 -24.1 12.8 58 59 59
-32.0 -24.2 12.8 58 59 59
-31.7 -24.2 12.9 58 59 59
-31.3 -24.1 12.8 57 57 57
-31.0 -24.1 12.8 57 57 57
-30.7 -24.1 12.8 56 55 54
-30.4 -24.1 12.8 56 55 54
-30.1 -24.1 12.8 56 55 54
-29.8 -24.1 12.8 56 55 54
-29.4 -24.0 12.8 56 55 54
-29.1 -24.0 12.8 53 52 52
-28.9 -24.1 12.8 53 52 52
-28.6 -24.1 12.8 53 52 52
-28.3 -24.1 12.8 53 52 52
-27.9 -24.0 12.8 53 52 52
-27.7 -24.1 12.8 53 52 52
-27.5 -24.2 12.9 53 52 52
-27.2 -24.2 12.9 53 53 53
-26.8 -24.1 12.8 53 53 53
-26.4 -24.0 12.8 53 53 53
-26.0 -23.9 12.7 53 53 53
-26.0 -24.2 12.9 52 52 52
-25.7 -24.1 12.8 52 52 52
-25.3 -24.1 12.8 53 52 52
-25.1 -24.2 12.9 49 49 49
-24.8 -24.2 12.8 48 48 48
-24.4 -24.0 12.8 45 45 45
-24.1 -24.1 12.8 44 43 42
-23.7 -24.0 12.7 46 46 46
-23.4 -24.0 12.7 46 46 46
-23.4 -24.2 12.9 45 44 43
-22.9 -24.0 12.7 45 44 43
-22.5 -23.9 12.7 46 45 43
-21.8 -24.2 12.8 43 43 43
-21.4 -24.0 12.8 42 44 43
-21.1 -24.0 12.8 42 44 43
-20.8 -24.0 12.7 42 42 42
-20.5 -24.0 12.7 36 37 36
-19.3 -24.3 12.9 16 16 16
-18.8 -24.1 12.8 16 16 16
-18.3 -24.2 12.9 18 18 18
-17.8 -24.0 12.8 20 20 20
-17.4 -23.8 12.7 20 20 20
-15.8 -24.0 12.8 23 26 24
-15.5 -24.1 12.8 25 28 25
-15.2 -24.0 12.8 31 31 31
-13.2 -24.2 12.8 35 34 33
-12.9 -24.1 12.8 36 36 36
-11.9 -24.0 12.8 49 49 49
-11.6 -23.9 12.7 40 40 40
-11.3 -24.0 12.7 53 52 52
-11.0 -23.9 12.7 65 65 65
-10.7 -23.9 12.7 33 33 33
-10.4 -23.9 12.7 46 46 46
38.9 -45.7 24.3 204 204 204
40.1 -45.2 24.0 204 204 204
40.1 -44.5 23.7 205 205 205
44.0 -48.2 25.6 205 205 205
27.7 -28.8 15.3 205 205 205
28.9 -28.9 15.4 203 203 203
28.4 -28.1 14.9 203 203 203
30.5 -28.8 15.3 204 204 204
-36.2 -23.9 12.9 62 64 61
-35.9 -23.9 12.9 63 64 62
-35.6 -23.9 12.9 63 64 62
-35.3 -23.9 12.9 67 67 67
-35.0 -23.9 12.9 63 64 62
-34.7 -23.9 12.9 61 61 61
-34.4 -23.9 12.9 63 64 62
-34.1 -23.9 12.9 61 61 61
-33.8 -23.9 12.9 62 62 62
-33.5 -23.9 12.9 64 65 63
-33.2 -23.9 12.9 64 65 63
-32.9 -23.9 12.9 67 67 67
-32.6 -23.9 12.9 62 62 62
-32.3 -23.9 12.9 62 62 62
-32.1 -23.9 12.9 59 59 59
-31.8 -23.9 12.9 59 59 59
-31.4 -23.9 12.9 60 60 60
-31.1 -23.9 12.9 58 58 58
-30.8 -23.9 12.9 57 56 55
-30.5 -23.9 12.9 57 56 55
-30.2 -23.9 12.9 57 56 55
-29.9 -23.9 12.9 57 56 55
-29.6 -23.9 12.9 57 56 55
-29.3 -23.9 12.8 57 56 55
-29.0 -23.9 12.9 53 53 53
-28.8 -23.9 12.9 53 53 53
-28.5 -23.9 12.9 57 57 55
-28.1 -23.9 12.9 59 59 59
-27.8 -23.9 12.9 53 53 53
-27.6 -23.9 12.9 54 54 54
-27.3 -24.0 12.9 54 54 54
-27.0 -23.9 12.9 54 54 54
-26.6 -23.8 12.8 54 54 54
-26.2 -23.8 12.8 54 54 54
-26.1 -23.9 12.9 55 55 55
-25.7 -23.9 12.9 53 53 53
-25.4 -23.9 12.9 50 50 50
-25.2 -24.0 12.9 51 51 51
-24.9 -23.9 12.9 49 49 49
-24.5 -23.9 12.9 49 49 49
-24.3 -23.9 12.9 47 47 47
-23.9 -23.8 12.8 47 47 47
-23.6 -23.9 12.9 47 47 47
-23.5 -24.0 12.9 46 45 43
-23.0 -23.8 12.8 46 46 44
-22.6 -23.8 12.8 46 46 44
-22.5 -23.9 12.9 43 43 43
-21.9 -24.0 12.9 44 44 44
-21.5 -23.9 12.9 43 45 44
-21.2 -23.8 12.8 43 45 44
-20.9 -23.8 12.8 42 43 42
-20.6 -23.8 12.8 36 35 34
-20.3 -23.8 12.8 27 27 27
-20.0 -23.8 12.8 18 18 18
-19.7 -24.1 13.0 17 17 17
-19.3 -24.0 12.9 17 17 17
-18.9 -23.9 12.9 17 17 17
-18.6 -24.0 12.9 19 19 19
-18.3 -24.0 12.9 19 19 19
-17.9 -23.8 12.8 20 20 20
-17.5 -23.6 12.7 20 20 20
-17.4 -23.9 12.9 23 26 24
-17.1 -23.9 12.9 32 32 32
-16.8 -23.9 12.9 32 32 32
-16.2 -24.0 12.9 25 29 26
-15.9 -23.9 12.9 23 23 23
-15.6 -23.9 12.9 23 26 24
-15.3 -23.9 12.8 29 29 29
-15.0 -23.9 12.9 80 83 82
-14.8 -24.1 12.9 89 89 87
-14.4 -23.9 12.8 100 102 102
-14.1 -23.9 12.9 117 119 118
-13.8 -23.9 12.9 119 119 119
-13.5 -23.9 12.9 105 107 107
-13.2 -23.9 12.9 112 114 113
-12.9 -23.9 12.9 72 73 71
-12.4 -24.1 13.0 58 59 59
-12.0 -23.8 12.8 53 53 53
-11.6 -23.7 12.7 45 45 45
-11.3 -23.8 12.8 33 32 30
-11.0 -23.8 12.8 92 92 92
-10.7 -23.7 12.8 29 31 29
-10.4 -23.7 12.7 49 49 49
-10.2 -23.8 12.8 179 179 179
39.5 -45.9 24.7 203 203 203
40.8 -44.7 24.1 204 204 204
43.8 -47.4 25.5 204 204 204
43.8 -46.8 25.2 204 204 204
27.6 -28.3 15.2 205 205 205
27.9 -28.2 15.2 205 205 205
28.5 -27.9 15.0 203 203 203
29.2 -27.5 14.8 203 203 203
29.5 -27.4 14.8 203 203 203
30.3 -27.9 15.0 204 204 204
-36.5 -23.8 13.0 63 64 62
-36.3 -23.8 13.0 67 67 67
-36.0 -23.9 13.0 67 67 67
-35.7 -23.9 13.0 67 67 67
-35.4 -23.8 13.0 64 65 63
-35.1 -23.8 13.0 67 67 67
-34.8 -23.9 13.0 67 67 67
-34.5 -23.8 13.0 67 67 67
-34.2 -23.9 13.0 67 67 67
-34.0 -23.9 13.0 67 67 67
-33.6 -23.9 13.0 64 65 63
-33.3 -23.8 13.0 65 66 64
-33.0 -23.9 13.0 63 63 63
-32.7 -23.9 13.0 63 63 63
-32.1 -23.9 13.0 60 60 60
-31.7 -23.8 13.0 60 60 60
-31.4 -23.8 13.0 58 59 59
-31.1 -23.8 13.0 58 59 59
-30.8 -23.8 13.0 57 57 55
-30.5 -23.8 13.0 57 57 55
-30.2 -23.8 13.0 57 57 55
-29.9 -23.8 13.0 57 57 55
-29.6 -23.8 13.0 54 54 54
-29.4 -23.9 13.0 54 54 54
-29.0 -23.9 13.0 54 54 54
-28.7 -23.9 13.0 58 58 56
-28.4 -23.8 13.0 58 58 56
-28.1 -23.9 13.0 54 54 54
-27.9 -23.9 13.0 55 55 55
-27.7 -24.0 13.1 55 55 55
-27.3 -23.9 13.0 55 55 55
-26.9 -23.8 13.0 55 55 55
-26.6 -23.8 13.0 55 55 55
-26.3 -23.9 13.0 56 56 56
-26.0 -23.8 13.0 54 54 54
-25.7 -23.8 13.0 51 51 51
-25.5 -23.9 13.0 52 52 52
-25.1 -23.8 13.0 50 50 50
-24.8 -23.8 13.0 50 50 50
-24.5 -23.8 13.0 50 50 50
-24.1 -23.7 12.9 47 48 47
-23.9 -23.9 13.0 48 48 48
-23.8 -24.0 13.1 48 48 48
-23.2 -23.7 12.9 48 48 48
-22.9 -23.8 12.9 47 46 45
-22.2 -23.9 13.0 43 45 45
-21.8 -23.8 13.0 43 45 45
-21.4 -23.8 13.0 43 45 45
-21.1 -23.7 12.9 43 43 43
-20.8 -23.8 13.0 36 36 34
-20.5 -23.8 13.0 28 28 28
-19.8 -24.1 13.1 20 20 20
-19.4 -23.9 13.0 19 19 19
-19.1 -23.8 13.0 20 20 20
-19.0 -24.1 13.1 19 19 19
-18.5 -23.8 13.0 19 19 19
-18.0 -23.6 12.9 21 21 21
-16.4 -23.9 13.0 25 29 26
-16.0 -23.8 13.0 23 26 24
-15.7 -23.8 13.0 19 19 19
-15.4 -23.8 13.0 35 36 34
-14.9 -24.0 13.1 23 23 23
-14.5 -23.8 13.0 32 32 32
-13.6 -23.8 13.0 31 31 31
-13.3 -23.8 13.0 87 87 87
-13.1 -23.9 13.0 80 80 80
-13.2 -24.8 13.5 22 22 22
-12.5 -24.1 13.1 40 42 42
-12.0 -23.7 12.9 42 42 42
-11.7 -23.5 12.8 44 44 44
-11.4 -23.6 12.9 40 40 40
-11.1 -23.6 12.9 79 79 79
-10.8 -23.7 12.9 27 27 27
-10.5 -23.6 12.9 52 52 52
-10.2 -23.7 12.9 182 182 182
-10.0 -23.8 13.0 182 185 184
39.6 -45.4 24.7 206 206 206
40.9 -44.3 24.1 203 203 203
43.5 -46.5 25.4 204 204 204
43.9 -46.3 25.2 204 204 204
45.4 -47.2 25.7 204 204 204
30.5 -30.6 16.7 204 204 204
29.3 -27.3 14.9 203 203 203
29.6 -27.2 14.8 203 203 203
30.5 -27.7 15.1 203 203 203
31.0 -27.8 15.2 203 203 203
123.1 -63.6 34.6 172 172 172
-37.6 -24.2 13.3 64 65 63
-37.4 -24.3 13.4 67 67 67
-37.2 -24.3 13.4 67 67 67
-36.8 -24.3 13.4 67 67 67
-36.4 -24.3 13.4 67 67 67
-36.2 -24.3 13.4 68 68 68
-35.9 -24.3 13.4 68 68 68
-35.5 -24.3 13.4 68 68 68
-35.3 -24.3 13.4 68 68 68
-35.0 -24.3 13.4 68 68 68
-34.6 -24.3 13.4 65 66 64
-34.3 -24.3 13.4 66 67 65
-33.9 -24.2 13.4 64 64 64
-33.7 -24.3 13.4 64 64 64
-33.5 -24.3 13.4 61 61 61
-33.0 -24.3 13.4 64 64 64
-32.6 -24.2 13.4 64 64 64
-32.4 -24.3 13.4 61 61 61
-32.1 -24.3 13.4 59 59 59
-31.8 -24.3 13.4 60 60 60
-31.6 -24.3 13.4 60 60 60
-31.2 -24.3 13.4 58 58 56
-30.8 -24.2 13.4 58 58 56
-30.6 -24.3 13.4 58 58 56
-30.2 -24.3 13.4 59 59 57
-30.0 -24.3 13.4 59 59 57
-29.6 -24.2 13.4 59 59 57
-29.3 -24.3 13.4 59 59 57
-29.1 -24.3 13.4 55 55 55
-28.8 -24.3 13.4 56 56 56
-28.4 -24.3 13.4 56 56 56
-28.0 -24.2 13.4 56 56 56
-27.7 -24.2 13.4 56 56 56
-27.1 -24.3 13.4 55 55 55
-26.7 -24.2 13.4 55 55 55
-26.5 -24.3 13.4 53 52 52
-26.3 -24.3 13.4 53 52 52
-25.9 -24.3 13.4 53 52 52
-25.5 -24.2 13.4 53 52 52
-25.2 -24.2 13.3 52 52 52
-24.8 -24.4 13.5 52 52 52
-24.2 -24.2 13.3 52 52 52
-23.8 -24.1 13.3 49 49 49
-23.1 -24.3 13.4 44 46 46
-22.7 -24.2 13.4 44 46 46
-22.4 -24.2 13.4 44 46 46
-22.1 -24.2 13.4 44 44 44
-21.8 -24.3 13.4 45 47 46
-16.5 -24.2 13.4 36 38 36
-15.8 -24.5 13.5 118 120 119
-15.3 -24.2 13.4 25 28 25
-14.1 -24.3 13.4 39 39 39
-13.8 -24.4 13.4 98 98 98
-13.6 -24.5 13.5 98 100 100
-13.2 -24.5 13.5 22 25 23
-12.8 -24.3 13.4 126 128 127
-11.5 -23.6 13.0 90 92 91
-10.9 -24.2 13.3 53 52 52
-10.6 -24.1 13.3 183 186 185
-10.3 -24.2 13.4 181 184 183
39.9 -45.8 25.3 205 205 205
39.4 -44.6 24.6 205 205 205
41.0 -43.9 24.2 199 199 199
43.7 -46.1 25.5 203 203 203
44.0 -45.8 25.3 203 203 203
45.4 -46.7 25.8 203 203 203
45.9 -46.6 25.7 203 203 203
29.9 -27.2 15.0 202 202 202
30.4 -27.2 15.0 202 202 202
31.0 -27.5 15.2 205 205 205
31.2 -27.3 15.1 164 164 164
125.4 -63.9 35.3 170 171 170
117.5 -59.5 32.8 170 171 170
37.4 -18.5 10.2 148 150 150
-37.9 -24.1 13.5 65 66 64
-35.1 -24.1 13.5 69 69 69
-34.8 -24.1 13.5 69 69 69
-33.3 -24.1 13.5 65 65 65
-32.9 -24.1 13.5 65 65 65
-32.6 -24.1 13.5 62 62 62
-32.3 -24.1 13.5 60 60 60
-31.9 -24.1 13.5 61 61 61
-26.4 -24.1 13.5 57 57 57
-26.2 -24.2 13.5 53 53 53
-25.8 -24.2 13.5 54 54 54
-25.4 -24.1 13.5 53 52 52
-22.2 -24.1 13.5 45 47 46
-15.8 -24.2 13.5 125 125 125
-13.3 -24.3 13.6 43 45 44
-11.5 -24.5 13.7 50 50 50
-11.2 -24.6 13.8 53 53 53
-10.9 -24.5 13.7 182 185 184
-10.4 -24.1 13.5 181 184 183
40.7 -46.1 25.8 204 204 204
39.7 -44.4 24.8 205 205 205
40.8 -43.1 24.1 205 205 205
43.7 -45.5 25.5 205 205 205
44.4 -45.6 25.5 205 205 205
45.9 -46.5 26.0 206 206 206
46.0 -46.0 25.7 206 206 206
46.3 -45.8 25.6 206 206 206
30.3 -26.8 15.0 202 202 202
30.8 -27.0 15.1 204 204 204
31.1 -26.9 15.0 165 165 165
113.9 -57.0 31.8 170 171 170
37.5 -18.3 10.2 155 155 155
37.2 -18.0 10.1 146 146 146
1143.7 -537.0 300.3 112 114 113
-11.7 -24.6 13.9 49 49 49
-11.4 -24.6 14.0 58 59 57
-11.0 -24.5 13.9 181 184 183
-10.7 -24.4 13.8 180 183 182
-10.4 -24.6 13.9 184 184 184
-10.2 -24.8 14.1 182 182 182
-9.8 -24.6 13.9 222 224 224
-3.3 -17.7 10.0 226 225 223
-3.1 -17.7 10.0 219 222 221
-2.6 -17.7 10.0 219 222 221
0.2 -17.7 10.0 204 207 206
0.4 -17.7 10.0 207 210 209
0.7 -17.7 10.0 204 207 206
0.9 -17.7 10.0 205 208 207
1.1 -17.7 10.0 198 198 198
1.4 -17.7 10.0 198 198 198
1.8 -17.7 10.0 198 198 198
4.2 -17.7 10.0 131 131 131
7.0 -17.7 10.0 206 206 206
7.2 -17.7 10.0 205 205 205
7.4 -17.7 10.0 205 205 205
7.9 -17.7 10.0 205 205 205
8.1 -17.7 10.1 205 205 205
8.4 -17.7 10.0 205 205 205
8.6 -17.7 10.0 205 205 205
8.8 -17.7 10.0 205 205 205
9.1 -17.7 10.0 205 205 205
9.3 -17.7 10.0 205 205 205
9.5 -17.7 10.0 205 205 205
9.7 -17.7 10.0 205 205 205
10.1 -17.8 10.1 205 205 205
10.2 -17.7 10.1 205 205 205
10.5 -17.7 10.0 205 205 205
10.7 -17.7 10.0 205 205 205
10.9 -17.7 10.0 205 205 205
11.1 -17.7 10.0 205 205 205
11.6 -17.7 10.0 205 205 205
11.8 -17.7 10.0 204 204 204
12.1 -17.7 10.0 204 204 204
12.3 -17.7 10.0 204 204 204
12.6 -17.7 10.0 204 204 204
12.8 -17.7 10.0 204 204 204
13.1 -17.8 10.1 204 204 204
13.3 -17.8 10.1 204 204 204
13.5 -17.7 10.0 204 204 204
13.7 -17.7 10.0 204 204 204
14.0 -17.7 10.1 204 204 204
14.2 -17.7 10.0 204 204 204
44.2 -45.4 25.7 205 205 205
47.1 -47.2 26.7 205 205 205
46.7 -46.2 26.2 205 205 205
46.8 -45.6 25.8 205 205 205
30.6 -26.4 15.0 207 207 207
31.0 -26.5 15.0 166 169 168
31.2 -26.3 14.9 180 180 180
105.4 -51.7 29.3 168 168 168
97.3 -47.4 26.9 163 166 165
739.7 -340.7 193.0 112 114 113
-11.7 -24.9 14.3 52 52 50
-10.9 -24.7 14.2 179 182 181
-10.6 -24.8 14.2 179 182 181
-10.3 -24.9 14.3 181 181 181
-3.3 -17.5 10.1 218 221 220
-3.1 -17.5 10.1 218 221 220
1.1 -17.5 10.1 197 197 197
7.2 -17.5 10.1 205 205 205
7.4 -17.5 10.0 207 207 207
9.1 -17.6 10.1 205 205 205
9.3 -17.6 10.1 205 205 205
9.6 -17.5 10.1 205 205 205
9.8 -17.6 10.1 205 205 205
10.5 -17.6 10.1 204 204 204
10.8 -17.6 10.1 204 204 204
11.0 -17.5 10.1 204 204 204
12.6 -17.6 10.1 204 204 204
12.9 -17.6 10.1 204 204 204
13.1 -17.6 10.1 204 204 204
13.4 -17.6 10.1 204 204 204
14.1 -17.6 10.1 204 204 204
47.6 -47.0 27.0 205 205 205
47.7 -46.5 26.7 205 205 205
47.2 -45.5 26.1 205 205 205
30.6 -26.1 15.0 206 206 206
31.0 -26.2 15.0 173 173 173
31.2 -26.0 15.0 179 179 179
113.1 -55.1 31.6 170 171 170
97.6 -46.9 26.9 163 166 165
739.7 -336.2 193.0 112 114 113
-22.8 -20.8 12.1 104 104 104
60.5 -61.3 35.7 207 207 207
59.6 -59.7 34.7 207 207 207
46.6 -44.2 25.7 204 204 204
30.9 -26.0 15.1 203 203 203
31.2 -26.0 15.1 183 183 183
126.1 -61.0 35.5 174 174 174
-23.2 -20.6 12.2 172 174 174
-16.7 -19.3 11.4 24 27 25
-11.3 -26.6 15.7 177 180 179
-10.9 -26.3 15.5 191 191 191
61.0 -61.1 36.0 207 207 207
60.8 -60.1 35.4 207 207 207
58.6 -57.1 33.7 207 207 207
46.4 -43.5 25.6 207 207 207
45.2 -39.7 23.4 205 205 205
31.0 -25.8 15.2 206 206 206
31.3 -25.7 15.1 191 191 191
-11.8 -26.4 15.8 180 183 182
-11.4 -26.4 15.8 178 178 178
-11.0 -26.3 15.7 168 170 169
64.0 -63.1 37.8 203 203 203
61.8 -60.1 36.0 206 206 206
46.8 -43.2 25.8 207 207 207
45.3 -39.8 23.8 209 212 211
45.4 -39.4 23.6 208 208 208
67.8 -32.5 19.5 176 176 176
-17.2 -16.7 10.1 24 27 25
-11.8 -26.0 15.8 181 184 183
-11.4 -26.1 15.8 176 176 176
-11.0 -25.9 15.7 155 158 157
65.0 -63.3 38.4 206 206 206
64.4 -61.0 37.0 206 206 206
65.5 -61.3 37.2 206 206 206
47.0 -42.3 25.6 207 207 207
46.9 -40.6 24.6 207 207 207
45.8 -39.2 23.8 207 207 207
68.6 -32.5 19.7 177 177 177
54.0 -24.6 14.9 172 172 172
-11.8 -25.6 15.8 183 186 185
-11.4 -25.7 15.8 180 180 180
-11.0 -25.5 15.7 157 160 159
65.3 -62.6 38.5 207 210 209
65.5 -62.0 38.1 207 210 209
66.1 -61.8 38.0 206 206 206
66.7 -61.5 37.8 206 206 206
66.8 -60.8 37.4 208 211 210
48.3 -41.8 25.7 207 207 207
47.8 -40.8 25.1 207 207 207
40.9 -32.2 19.8 203 203 203
69.7 -32.5 20.0 178 178 178
55.4 -24.9 15.3 174 174 174
-11.9 -25.6 16.0 184 187 186
-11.5 -25.5 15.9 177 177 177
-11.1 -25.3 15.8 158 161 160
65.8 -62.2 38.8 206 209 208
66.9 -61.6 38.4 207 210 209
67.8 -61.6 38.4 207 210 209
67.7 -60.7 37.9 207 210 209
50.5 -43.1 26.9 207 207 207
40.9 -32.1 20.0 205 205 205
40.6 -31.5 19.7 203 203 203
44.0 -31.6 19.7 188 188 188
67.8 -31.8 19.9 179 179 179
70.3 -32.3 20.2 179 179 179
70.3 -32.1 20.0 179 179 179
56.2 -24.8 15.5 175 175 175
56.4 -24.8 15.5 166 169 168
56.5 -24.7 15.4 159 159 159
-12.1 -25.6 16.2 186 188 187
-11.6 -25.3 16.0 180 180 180
-11.2 -25.2 16.0 166 166 166
68.6 -64.0 40.5 206 209 208
68.3 -62.0 39.2 207 210 209
69.5 -62.2 39.4 207 210 209
68.7 -60.7 38.4 207 210 209
52.7 -44.3 28.0 206 206 206
41.2 -31.8 20.2 203 203 203
41.0 -31.3 19.8 203 203 203
44.3 -31.7 20.1 189 189 189
44.7 -31.6 20.0 189 189 189
67.7 -31.5 20.0 183 183 183
67.3 -31.1 19.7 180 180 180
69.3 -31.6 20.0 180 180 180
69.7 -31.6 20.0 178 178 178
69.9 -31.5 19.9 180 180 180
56.5 -24.6 15.6 176 176 176
56.2 -24.3 15.4 168 170 169
56.2 -24.2 15.3 160 160 160
-34.9 -27.5 17.6 64 64 64
68.7 -61.5 39.5 206 209 208
71.1 -62.8 40.3 206 209 208
68.0 -59.2 38.1 207 210 209
41.4 -31.5 20.3 209 212 211
40.9 -30.8 19.8 205 205 205
44.7 -31.2 20.1 189 189 189
66.6 -30.6 19.6 184 184 184
66.9 -30.5 19.6 181 181 181
67.9 -30.8 19.8 181 181 181
68.9 -31.0 19.9 181 181 181
69.5 -31.0 20.0 181 181 181
69.6 -30.9 19.8 181 181 181
68.3 -30.1 19.3 181 181 181
57.2 -24.6 15.8 172 174 174
56.3 -24.0 15.4 169 171 170
56.3 -23.9 15.3 161 161 161
-51.5 -28.0 18.3 58 59 59
-27.7 -17.7 11.5 36 36 36
-27.2 -17.6 11.5 33 33 31
-35.7 -27.6 18.0 62 61 60
-35.5 -28.2 18.4 67 67 67
67.0 -60.7 39.6 204 204 204
68.9 -60.7 39.6 206 209 208
71.0 -61.7 40.2 206 209 208
69.1 -59.3 38.7 206 209 208
69.0 -58.5 38.1 207 210 209
41.0 -30.4 19.8 205 205 205
44.4 -30.2 19.7 189 189 189
44.8 -30.2 19.7 190 190 190
67.1 -30.1 19.6 185 185 185
67.8 -30.2 19.7 185 185 185
68.9 -30.5 19.9 182 182 182
69.8 -30.7 20.0 185 185 185
69.9 -30.6 19.9 182 182 182
68.3 -29.6 19.3 182 182 182
58.0 -24.6 16.0 173 175 175
57.3 -24.1 15.7 169 169 169
1310.0 -527.2 343.9 129 132 131
-52.3 -28.1 18.6 60 60 60
-46.7 -28.3 18.7 46 46 46
-28.1 -17.3 11.5 36 36 36
-27.9 -17.4 11.5 39 39 39
-27.6 -17.4 11.5 49 49 49
-27.2 -17.3 11.5 45 44 43
-43.8 -28.4 18.8 33 33 31
-42.0 -28.7 19.0 36 37 36
-37.8 -28.5 18.9 63 63 63
-36.6 -27.9 18.5 61 60 59
-36.2 -28.3 18.7 63 63 63
-35.7 -28.2 18.7 62 61 60
-17.1 -17.3 11.5 27 27 27
-16.7 -17.2 11.4 33 35 33
-14.0 -28.2 18.7 178 181 180
-13.4 -28.0 18.5 177 180 179
-13.5 -29.1 19.3 175 175 175
74.3 -63.6 42.1 206 209 208
69.7 -58.9 39.0 206 209 208
67.3 -29.8 19.7 186 186 186
69.4 -30.3 20.1 183 183 183
70.2 -30.4 20.1 183 183 183
70.2 -30.2 20.0 186 186 186
69.3 -29.6 19.6 183 183 183
-53.5 -28.2 19.0 63 63 63
-52.4 -28.4 19.1 70 72 69
-48.0 -28.4 19.1 28 28 28
-47.6 -28.4 19.1 24 24 24
-28.1 -17.1 11.5 26 26 26
-28.0 -17.2 11.6 37 38 37
-27.6 -17.1 11.5 53 53 53
-27.3 -17.1 11.5 62 62 62
-45.1 -28.5 19.2 60 60 60
-44.4 -28.4 19.1 51 51 51
-42.4 -28.5 19.2 150 150 150
-38.3 -28.5 19.1 67 69 67
-37.3 -28.0 18.9 71 71 71
-37.0 -28.4 19.1 65 65 65
-36.4 -28.3 19.1 65 65 65
-17.1 -17.1 11.5 22 25 23
-16.7 -16.9 11.4 30 29 29
-14.2 -28.2 19.0 178 178 178
-13.7 -28.1 18.9 178 181 180
-13.5 -28.6 19.2 176 176 176
-13.1 -28.7 19.3 173 173 173
71.6 -30.8 20.7 188 188 188
71.0 -30.3 20.4 189 191 191
70.6 -29.9 20.1 188 188 188
70.5 -29.7 20.0 184 184 184
62.0 -25.6 17.2 180 180 180
63.3 -25.6 17.2 161 161 161
63.0 -25.4 17.1 155 155 155
-54.8 -28.5 19.5 53 53 53
-54.8 -28.7 19.6 65 66 64
-53.9 -28.5 19.5 74 74 74
-53.4 -28.5 19.5 75 76 76
-53.4 -28.7 19.6 47 48 47
-53.0 -28.7 19.6 129 129 129
-52.5 -28.7 19.6 131 133 132
-52.1 -28.7 19.6 11 11 11
-51.6 -28.7 19.6 18 18 18
-50.7 -28.5 19.5 24 24 24
-50.7 -28.7 19.6 26 26 26
-50.2 -28.7 19.6 28 28 28
-49.6 -28.6 19.6 28 28 28
-48.9 -28.5 19.5 10 15 11
-48.5 -28.5 19.5 26 26 26
-48.1 -28.5 19.5 24 24 24
-47.9 -28.7 19.6 24 24 24
-47.1 -28.5 19.5 29 31 29
-46.6 -28.5 19.5 50 50 50
-46.2 -28.5 19.5 69 69 69
-45.7 -28.5 19.5 69 69 69
-45.3 -28.5 19.5 62 62 62
-45.2 -28.7 19.6 51 51 51
-44.7 -28.7 19.6 55 55 55
-44.4 -28.8 19.7 65 65 65
-44.0 -28.8 19.7 127 127 127
-43.4 -28.7 19.6 87 87 87
-43.0 -28.7 19.6 132 135 134
-42.4 -28.7 19.6 159 162 161
-42.0 -28.7 19.6 79 79 79
-41.6 -28.7 19.6 16 16 16
-41.1 -28.7 19.6 7 13 9
-40.7 -28.7 19.6 15 15 15
-40.2 -28.7 19.6 19 23 20
-39.7 -28.7 19.6 17 17 17
-39.0 -28.5 19.5 42 44 43
-38.5 -28.5 19.5 62 62 62
-38.1 -28.5 19.5 62 62 62
-37.6 -28.5 19.5 70 70 70
-37.5 -28.7 19.6 67 67 67
-37.0 -28.7 19.6 62 62 62
-36.5 -28.7 19.6 67 67 67
-36.1 -28.7 19.6 72 73 71
-35.6 -28.7 19.6 71 71 71
-34.9 -28.5 19.5 71 71 71
-34.4 -28.5 19.5 71 71 71
-34.3 -28.7 19.6 73 74 72
-33.8 -28.7 19.6 73 74 72
-33.4 -28.7 19.6 143 145 144
-32.6 -28.5 19.5 180 180 180
-32.4 -28.7 19.6 181 184 183
-32.0 -28.7 19.6 129 129 129
-31.5 -28.7 19.6 7 13 9
-30.8 -28.5 19.5 30 30 30
-30.6 -28.7 19.6 29 29 29
-30.2 -28.7 19.6 22 25 23
-29.5 -28.5 19.5 22 25 23
-29.0 -28.5 19.5 29 29 29
-28.6 -28.5 19.5 29 29 29
-28.3 -28.7 19.6 29 29 29
-27.9 -28.7 19.6 29 29 29
-27.4 -28.7 19.6 29 29 29
-27.0 -28.7 19.6 26 26 26
-26.5 -28.7 19.6 26 26 26
-25.8 -28.5 19.5 91 94 93
-25.6 -28.7 19.6 131 134 133
-24.9 -28.5 19.5 155 155 155
-24.5 -28.5 19.5 59 59 59
-24.1 -28.5 19.5 33 34 32
-23.7 -28.6 19.6 67 67 67
-23.3 -28.7 19.6 108 108 106
-22.8 -28.6 19.5 129 129 129
-22.2 -28.5 19.5 30 29 29
-22.0 -28.7 19.6 116 116 116
-14.1 -28.5 19.5 177 177 177
-13.6 -28.3 19.4 176 176 176
-13.2 -28.5 19.5 177 177 177
-12.8 -28.6 19.6 165 168 167
63.0 -43.2 29.5 192 192 192
651.3 -318.1 217.4 199 199 199
72.8 -30.8 21.0 190 190 190
72.2 -30.3 20.7 190 190 190
71.5 -29.8 20.4 190 190 190
71.8 -29.8 20.3 185 185 185
63.3 -25.3 17.3 160 160 160
63.1 -25.0 17.1 154 154 154
-55.8 -28.5 19.8 36 37 36
-55.2 -28.5 19.8 48 48 48
-54.8 -28.5 19.8 67 67 67
-54.3 -28.5 19.8 74 74 74
-53.9 -28.5 19.8 154 156 156
-53.4 -28.5 19.8 52 52 52
-52.9 -28.5 19.8 24 24 24
-52.4 -28.5 19.8 24 24 24
-52.0 -28.5 19.8 24 24 24
-51.5 -28.5 19.8 28 28 28
-51.4 -28.7 19.9 34 34 34
-50.6 -28.5 19.8 52 52 52
-50.0 -28.4 19.7 153 152 150
-49.6 -28.4 19.7 139 139 139
-49.3 -28.5 19.8 50 50 50
-48.8 -28.5 19.8 154 154 154
-48.3 -28.5 19.8 183 183 183
-47.8 -28.5 19.8 172 174 174
-47.4 -28.5 19.8 121 121 121
-46.9 -28.5 19.8 74 74 74
-46.5 -28.5 19.8 64 64 64
-46.0 -28.5 19.8 75 76 76
-45.5 -28.5 19.8 122 122 122
-45.1 -28.5 19.8 170 171 170
-44.7 -28.5 19.8 178 178 178
-44.5 -28.7 19.9 172 172 172
-43.8 -28.5 19.8 182 185 184
-43.3 -28.5 19.8 214 214 214
-42.8 -28.5 19.8 211 211 211
-42.3 -28.4 19.7 189 191 191
-41.8 -28.4 19.7 204 204 204
-41.4 -28.5 19.8 211 211 211
-40.9 -28.5 19.8 203 203 203
-40.5 -28.5 19.8 175 177 177
-40.0 -28.5 19.8 179 178 176
-39.6 -28.5 19.8 160 160 160
-39.1 -28.5 19.8 144 144 144
-38.7 -28.5 19.8 180 179 177
-38.2 -28.5 19.8 213 215 215
-37.7 -28.5 19.8 205 208 207
-37.3 -28.5 19.8 176 179 178
-36.8 -28.5 19.8 176 179 178
-36.4 -28.5 19.8 209 209 209
-35.9 -28.5 19.8 226 226 226
-35.4 -28.4 19.7 176 179 178
-34.9 -28.4 19.7 131 133 132
-34.5 -28.5 19.8 156 156 156
-34.1 -28.5 19.8 180 180 180
-33.6 -28.5 19.8 182 182 182
-33.1 -28.5 19.8 180 180 180
-32.7 -28.5 19.8 220 220 220
-32.2 -28.5 19.8 213 215 215
-31.8 -28.5 19.8 208 208 208
-31.3 -28.5 19.8 143 145 144
-30.8 -28.5 19.8 41 41 41
-30.4 -28.5 19.8 38 38 38
-29.9 -28.5 19.8 66 66 66
-29.5 -28.5 19.8 88 88 88
-29.0 -28.5 19.8 90 92 91
-28.5 -28.5 19.8 105 105 105
-28.1 -28.5 19.8 102 101 99
-27.6 -28.5 19.8 22 25 23
-27.2 -28.5 19.8 42 42 42
-26.7 -28.5 19.8 87 87 87
-26.2 -28.5 19.8 16 16 16
-25.8 -28.5 19.8 26 26 26
-25.4 -28.5 19.8 37 38 37
-24.9 -28.5 19.8 103 102 100
-24.4 -28.5 19.8 42 42 42
-24.0 -28.5 19.8 75 75 75
-23.6 -28.5 19.8 30 29 29
-23.1 -28.5 19.8 103 103 103
-22.6 -28.5 19.8 61 61 61
-22.1 -28.5 19.8 73 74 72
-14.3 -28.4 19.7 161 164 163
-13.7 -28.2 19.6 175 175 175
-13.3 -28.4 19.7 174 174 174
-12.9 -28.4 19.7 138 140 139
63.1 -42.6 29.6 190 190 190
65.3 -43.6 30.3 192 192 192
65.9 -43.5 30.2 192 192 192
32.2 -19.2 13.3 199 199 199
73.2 -30.3 21.0 191 191 191
72.6 -29.8 20.7 188 188 188
73.1 -29.8 20.7 191 191 191
64.0 -25.1 17.4 160 160 160
63.3 -24.7 17.1 156 156 156
-56.5 -28.4 20.1 24 24 24
-56.7 -28.8 20.3 33 32 30
-56.3 -28.8 20.3 89 89 89
-55.8 -28.8 20.3 144 144 144
-55.3 -28.8 20.3 11 11 11
-54.8 -28.8 20.3 26 26 26
-54.3 -28.8 20.3 24 24 24
-53.9 -28.8 20.3 21 24 22
-53.5 -28.8 20.3 24 24 24
-53.0 -28.8 20.3 26 26 26
-52.5 -28.8 20.3 37 38 37
-52.0 -28.8 20.3 57 57 55
-51.4 -28.7 20.3 164 167 166
-51.1 -28.8 20.3 189 189 189
-50.7 -28.8 20.4 176 175 173
-50.1 -28.8 20.3 145 145 144
-49.6 -28.8 20.3 178 178 178
-49.2 -28.8 20.3 172 172 172
-48.7 -28.8 20.3 156 156 156
-48.2 -28.8 20.3 149 149 149
-47.8 -28.8 20.3 150 150 150
-47.3 -28.8 20.3 82 83 81
-46.7 -28.7 20.3 82 83 81
-46.2 -28.7 20.3 200 200 200
-46.0 -28.8 20.4 190 192 192
-45.6 -28.9 20.4 172 172 172
-44.9 -28.8 20.3 93 93 93
-44.4 -28.8 20.3 87 89 88
-44.0 -28.8 20.3 137 137 137
-43.4 -28.7 20.3 117 119 118
-43.0 -28.8 20.3 93 93 93
-42.6 -28.8 20.3 60 60 60
-42.1 -28.8 20.3 78 78 78
-41.6 -28.8 20.3 62 62 62
-41.1 -28.8 20.3 80 82 79
-40.7 -28.8 20.3 59 59 57
-40.2 -28.8 20.3 29 29 29
-39.7 -28.8 20.3 118 118 118
-39.3 -28.8 20.3 168 170 169
-38.8 -28.8 20.3 147 147 147
-37.8 -28.4 20.1 170 172 172
-37.5 -28.5 20.1 118 118 118
-37.4 -28.8 20.3 80 82 79
-36.7 -28.7 20.2 145 145 144
-35.9 -28.4 20.0 137 137 137
-35.4 -28.4 20.0 150 152 152
-35.5 -28.8 20.3 200 202 202
-35.0 -28.8 20.3 233 235 235
-34.5 -28.8 20.3 213 215 215
-34.1 -28.8 20.3 240 240 240
-33.6 -28.8 20.3 210 210 210
-33.1 -28.8 20.3 225 225 225
-32.6 -28.8 20.3 217 217 217
-32.2 -28.8 20.3 211 211 211
-31.7 -28.8 20.3 136 138 137
-31.2 -28.8 20.3 71 71 71
-30.8 -28.8 20.3 31 32 30
-30.3 -28.8 20.3 22 25 23
-29.8 -28.8 20.3 28 28 28
-29.3 -28.8 20.3 28 28 28
-28.9 -28.8 20.3 113 114 113
-28.4 -28.8 20.3 30 29 29
-27.9 -28.8 20.3 107 107 107
-27.5 -28.8 20.3 30 29 29
-27.0 -28.8 20.3 32 33 31
-26.5 -28.8 20.3 116 116 116
-26.0 -28.8 20.3 149 151 151
-25.6 -28.8 20.3 63 62 61
-25.1 -28.8 20.3 43 43 43
-24.6 -28.8 20.3 67 68 66
-24.2 -28.9 20.4 31 32 30
-23.7 -28.9 20.4 136 136 136
-23.3 -28.8 20.4 82 82 82
-14.7 -28.8 20.4 162 162 162
-13.9 -28.1 19.9 169 171 170
-13.5 -28.3 20.0 160 160 160
-13.1 -28.4 20.0 140 142 141
-12.8 -28.8 20.4 46 46 46
63.2 -41.9 29.6 192 192 192
67.7 -44.4 31.4 195 195 195
67.3 -43.7 30.9 195 195 195
33.0 -19.5 13.8 199 199 199
32.6 -19.1 13.5 199 199 199
73.0 -29.7 20.9 192 192 192
71.9 -29.0 20.5 192 192 192
73.0 -29.3 20.7 189 189 189
64.4 -24.9 17.5 160 160 160
63.4 -24.3 17.2 153 155 155
63.3 -24.1 17.0 148 148 148
-14.5 -28.9 20.7 182 185 184
-13.9 -28.5 20.5 182 185 184
-13.5 -28.7 20.6 176 176 176
160.0 -123.2 88.4 208 211 210
167.5 -127.3 91.4 208 211 210
169.7 -127.3 91.4 208 211 210
206.9 -151.5 108.7 209 212 211
71.0 -45.8 32.9 195 195 195
33.0 -19.2 13.8 200 200 200
32.7 -18.9 13.6 203 203 203
67.5 -27.4 19.6 193 196 195
68.0 -27.4 19.6 193 193 193
70.1 -28.0 20.1 193 193 193
70.6 -28.0 20.1 193 193 193
70.7 -27.9 20.0 190 190 190
70.2 -27.5 19.8 186 186 186
64.8 -24.6 17.7 158 158 158
63.3 -23.9 17.1 152 152 152
62.9 -23.6 16.9 145 147 147
176.9 -132.2 96.5 208 211 210
181.0 -133.6 97.5 208 211 210
233.8 -168.3 122.8 209 212 211
72.7 -46.1 33.7 195 195 195
32.9 -19.1 13.9 203 203 203
33.1 -19.0 13.8 200 200 200
70.2 -27.6 20.1 194 194 194
70.6 -27.6 20.1 194 194 194
70.9 -27.5 20.1 191 191 191
71.4 -27.5 20.1 188 188 188
225.5 -174.5 129.6 207 210 209
230.1 -175.7 130.5 207 210 209
223.8 -168.7 125.3 207 210 209
201.4 -149.9 111.3 207 210 209
191.6 -140.8 104.5 208 211 210
200.7 -145.6 108.1 208 211 210
238.6 -171.0 127.0 208 211 210
227.8 -161.2 119.7 208 211 210
223.5 -156.3 116.1 209 212 211
73.2 -45.7 33.9 196 196 196
33.0 -18.8 13.9 200 200 200
33.1 -18.7 13.9 200 200 200
33.0 -18.4 13.7 186 186 186
84.2 -31.5 23.4 175 175 175
-17.4 -34.0 25.7 174 176 176
-17.2 -34.8 26.3 173 175 175
-16.9 -35.4 26.8 157 157 157
231.5 -171.5 129.6 207 210 209
210.1 -153.6 116.1 207 210 209
197.0 -142.3 107.5 207 210 209
211.6 -150.8 114.0 208 211 210
229.4 -161.5 122.0 208 211 210
227.8 -158.5 119.7 208 211 210
222.2 -152.7 115.3 208 211 210
226.2 -153.6 116.1 209 212 211
303.1 -198.7 150.1 210 213 212
241.5 -156.5 118.2 210 213 212
67.6 -42.4 32.0 193 193 193
62.7 -38.9 29.4 196 196 196
72.7 -44.6 33.7 196 196 196
84.7 -31.1 23.5 166 166 166
85.2 -31.1 23.5 164 164 164
71.6 -25.7 19.4 134 137 136
73.1 -26.0 19.7 133 133 133
73.9 -26.2 19.8 133 133 133
-17.8 -34.3 26.3 154 156 156
-17.5 -34.7 26.7 90 90 90
-17.1 -35.3 27.1 90 92 91
-16.4 -35.2 27.1 57 58 56
248.5 -180.9 139.1 211 211 211
229.8 -165.1 127.0 211 211 211
214.1 -151.8 116.8 207 210 209
243.9 -170.8 131.4 207 210 209
250.4 -173.2 133.2 208 211 210
318.6 -217.7 167.4 208 211 210
233.6 -157.7 121.3 208 211 210
599.3 -390.4 300.3 209 212 211
308.0 -198.4 152.6 209 212 211
249.3 -158.7 122.0 215 215 215
74.0 -44.6 34.3 198 198 198
86.3 -31.2 24.0 150 150 150
87.2 -31.3 24.1 140 142 141
72.8 -25.5 19.6 134 134 134
73.3 -25.5 19.6 132 132 132
-18.5 -34.9 27.3 139 138 137
-17.8 -34.8 27.3 91 94 93
-17.3 -35.0 27.4 86 86 86
-16.6 -35.0 27.4 57 58 56
263.4 -185.8 145.5 211 211 211
235.9 -164.3 128.7 211 211 211
316.4 -217.6 170.4 215 215 215
335.5 -227.9 178.5 216 216 216
378.9 -254.3 199.1 212 213 212
387.6 -257.0 201.2 212 213 212
726.1 -464.6 363.8 214 214 214
360.3 -227.9 178.5 215 215 215
259.3 -162.1 127.0 210 213 212
87.1 -30.9 24.2 131 133 132
88.7 -31.3 24.5 131 133 132
89.3 -31.3 24.5 128 130 129
72.5 -24.9 19.5 128 128 128
72.6 -24.8 19.4 127 127 127
73.0 -24.8 19.4 127 127 127
74.4 -25.1 19.6 127 127 127
-17.9 -34.3 27.3 90 90 90
-17.2 -34.3 27.3 90 92 91
-16.6 -34.3 27.3 77 77 77
358.4 -242.0 193.0 212 213 212
366.6 -244.5 195.0 212 213 212
387.1 -255.0 203.4 212 213 212
619.0 -388.8 310.1 214 214 214
367.3 -228.1 181.9 214 214 214
294.9 -181.1 144.4 209 212 211
89.8 -31.1 24.8 118 118 118
90.9 -31.2 24.9 118 118 118
72.8 -24.4 19.5 120 120 120
72.9 -24.3 19.4 122 122 122
74.2 -24.6 19.6 126 126 126
-18.3 -34.4 28.0 91 94 93
-17.3 -33.8 27.5 91 93 92
385.9 -255.8 207.9 211 211 211
423.3 -277.1 225.2 212 213 212
428.5 -277.1 225.2 212 213 212
639.9 -394.6 320.6 217 217 217
357.0 -217.6 176.8 214 214 214
90.8 -30.8 25.1 107 109 109
92.1 -31.1 25.3 107 109 109
93.8 -31.5 25.6 111 111 111
73.2 -23.9 19.5 112 112 112
74.6 -24.2 19.7 117 119 118
73.3 -23.7 19.2 128 128 128
-18.9 -35.0 29.0 98 98 98
-17.6 -33.6 27.9 90 92 91
529.4 -335.9 278.2 216 216 216
651.0 -393.8 326.1 217 217 217
90.1 -30.0 24.9 106 106 106
92.1 -30.5 25.3 108 108 108
74.8 -23.8 19.7 89 89 89
16.4 -13.1 11.0 210 210 210
686.5 -407.3 343.9 217 217 217
87.1 -28.6 24.2 100 102 102
50.5 -16.4 13.8 105 105 105
50.8 -16.4 13.8 102 104 104
50.5 -16.2 13.7 100 102 102
-34.1 -18.1 15.6 150 150 150
-33.5 -18.0 15.5 167 167 167
16.3 -12.8 11.0 210 210 210
726.1 -422.3 363.8 217 217 217
50.3 -16.0 13.8 98 98 98
50.6 -16.0 13.8 97 97 97
50.7 -15.9 13.7 89 89 89
50.8 -15.9 13.7 75 76 76
-34.7 -17.9 15.7 158 158 158
-34.1 -17.7 15.6 179 182 181
-33.7 -17.7 15.6 187 189 189
13.7 -11.6 10.2 212 213 212
13.7 -11.4 10.0 211 211 211
16.4 -12.5 11.0 211 211 211
50.5 -15.7 13.8 92 95 94
50.7 -15.7 13.8 81 84 83
50.8 -15.6 13.7 74 74 74
51.1 -15.6 13.7 68 67 66
-35.5 -17.2 15.4 183 183 183
-33.8 -17.2 15.5 26 26 26
-33.4 -17.2 15.4 86 87 85
16.0 -11.6 10.4 214 214 214
50.5 -15.4 13.8 79 81 80
50.6 -15.4 13.8 75 76 76
50.9 -15.4 13.8 71 71 71
51.3 -15.4 13.8 71 71 71
51.6 -15.4 13.8 74 74 74
-35.7 -16.8 15.4 88 90 89
-35.4 -16.8 15.4 137 139 138
-33.7 -16.8 15.4 26 26 26
-33.2 -16.8 15.4 18 22 19
50.5 -15.1 13.9 112 112 112
50.9 -15.1 13.9 79 82 81
51.1 -15.1 13.8 75 76 76
51.7 -15.2 13.9 78 78 78
52.0 -15.2 13.9 78 78 78
-36.0 -16.5 15.5 137 139 138
-35.6 -16.5 15.5 137 139 138
-35.3 -16.5 15.5 146 146 146
-34.3 -16.5 15.5 18 22 19
-33.9 -16.5 15.5 18 22 19
-33.4 -16.5 15.4 17 17 17
-27.4 -16.5 15.5 128 128 128
-26.9 -16.5 15.4 61 61 61
-25.7 -16.6 15.5 206 209 208
50.9 -14.8 13.9 86 86 86
51.3 -14.8 13.9 79 79 79
51.8 -14.9 14.0 79 79 79
52.4 -15.0 14.0 79 79 79
-36.0 -16.2 15.5 106 106 106
-34.3 -16.2 15.5 45 44 43
-33.9 -16.2 15.5 21 24 22
-33.5 -16.2 15.5 17 17 17
-32.2 -16.3 15.6 105 105 105
-31.7 -16.2 15.5 160 160 160
-26.7 -16.2 15.5 86 87 85
-26.4 -16.2 15.5 72 72 72
50.4 -14.3 13.7 90 90 90
51.8 -14.6 13.9 79 79 79
52.4 -14.6 14.0 79 79 79
51.6 -14.3 13.7 75 75 75
50.1 -13.9 13.6 89 89 89
50.7 -14.0 13.7 80 83 82
51.6 -14.2 13.9 79 79 79
52.2 -14.2 14.0 80 83 82
51.2 -13.9 13.6 80 83 82
173.2 -356.3 356.9 222 222 222
124.9 -245.2 245.7 225 225 225
-12.6 -13.1 13.5 33 33 33
-12.1 -13.0 13.3 33 33 33
-11.8 -13.0 13.3 36 36 36
-40.3 -67.3 69.0 42 42 42
-39.3 -68.3 70.1 23 24 23
-39.3 -71.2 73.0 146 146 146
-37.4 -70.9 72.8 182 182 182
102.3 -196.2 201.2 225 225 225
-12.5 -12.8 13.4 34 34 34
-12.0 -12.5 13.2 34 34 34
-11.8 -12.6 13.3 36 36 36
-11.4 -12.5 13.2 42 43 42
-43.5 -70.9 74.5 30 29 29
-40.5 -68.7 72.2 23 24 23
-40.7 -72.0 75.7 160 160 160
-38.2 -70.6 74.2 183 183 183
-12.4 -12.4 13.3 34 34 34
-11.9 -12.2 13.1 33 33 33
-50.8 -77.7 83.7 107 107 107
-47.0 -74.7 80.5 23 24 23
-41.6 -68.9 74.2 14 18 15
-42.5 -73.5 79.1 169 169 169
287.4 -126.4 136.1 193 193 193
-12.0 -11.9 13.2 35 35 35
-59.2 -88.3 97.5 108 108 108
-54.4 -84.4 93.2 26 25 24
-42.9 -69.3 76.6 23 24 23
273.7 -117.3 129.6 182 182 182
-11.4 -11.1 12.6 36 37 36
-11.1 -11.0 12.5 36 39 38
-65.3 -94.8 107.5 89 91 90
-57.5 -86.9 98.5 30 30 30
529.4 -245.4 278.2 220 223 222
740.3 -327.1 370.9 221 221 221
481.9 -203.5 230.7 176 179 178
487.8 -200.5 233.5 176 179 178
287.4 -116.9 136.1 174 176 176
-9.7 -9.6 11.5 41 40 38
493.9 -197.6 236.5 180 180 180
307.3 -121.6 145.5 186 186 186
-9.6 -9.3 11.5 36 36 36
20.7 -10.2 12.6 218 221 220
506.6 -197.0 242.5 178 178 178
-33.4 -12.4 15.8 160 159 157
-32.9 -12.4 15.7 127 127 127
-9.6 -9.0 11.4 38 38 38
13.7 -8.0 10.2 219 219 219
13.7 -7.9 10.0 218 221 220
20.5 -9.8 12.5 218 221 220
20.6 -9.7 12.4 218 221 220
126.2 -45.6 57.8 197 197 197
-33.1 -12.0 15.6 145 145 144
-32.6 -11.9 15.6 122 124 123
-9.6 -8.8 11.4 43 43 43
123.3 -107.3 140.1 222 222 222
13.7 -7.8 10.2 219 219 219
25.9 -11.7 15.3 219 222 221
168.0 -59.6 77.8 192 192 192
127.8 -44.8 58.6 195 195 195
-30.8 -10.7 14.4 154 154 154
-30.2 -10.6 14.2 145 145 144
-32.6 -11.5 15.5 122 124 123
-9.6 -8.5 11.5 48 48 48
-9.4 -8.5 11.5 187 189 189
126.2 -106.4 143.3 222 222 222
13.7 -7.5 10.2 219 219 219
20.0 -8.9 12.0 218 221 220
170.1 -58.5 78.8 194 194 194
-33.0 -11.2 15.6 74 74 74
-32.6 -11.2 15.6 42 42 42
-9.6 -8.2 11.5 48 48 48
126.2 -103.1 143.3 219 219 219
-32.6 -10.8 15.6 59 59 59
190.7 -154.9 222.5 219 219 219
-213.9 -59.5 88.4 59 59 59
-200.5 -59.7 88.8 67 67 67
-192.1 -57.8 86.0 62 61 60
-193.4 -59.5 88.4 63 62 61
-185.3 -57.6 85.6 63 62 61
173.8 -187.2 278.2 224 224 224
190.7 -149.7 222.5 219 219 219
151.4 -115.7 172.0 219 219 219
184.6 -192.0 295.6 224 224 224
197.7 -149.8 230.7 219 219 219
151.4 -111.7 172.0 219 219 219
285.4 -87.8 135.1 134 134 134
525.8 -151.7 233.5 195 195 195
466.9 -129.3 199.1 200 200 200
399.9 -109.7 168.9 203 203 203
-282.8 -71.8 114.6 40 40 40
-265.6 -68.1 108.7 60 60 60
-258.7 -66.9 106.9 57 57 55
-251.9 -65.8 105.1 57 57 55
-253.7 -66.9 106.9 55 55 55
-257.0 -68.5 109.3 55 55 55
-251.6 -67.7 108.1 61 61 61
-243.5 -66.2 105.7 156 156 156
-241.0 -66.2 105.7 108 108 106
-235.9 -65.5 104.5 36 36 36
184.6 -185.1 295.6 224 224 224
195.3 -142.7 227.9 220 220 220
300.4 -89.1 142.2 127 127 127
539.2 -150.0 239.4 195 195 195
476.9 -127.4 203.4 200 200 200
414.7 -109.7 175.2 202 202 202
-341.3 -82.7 137.1 192 192 192
-313.2 -76.6 127.0 81 83 80
-357.7 -89.1 147.8 70 72 69
-251.9 -65.9 109.3 169 169 169
470.4 -135.8 225.2 185 185 185
539.2 -144.4 239.4 195 195 195
558.9 -148.2 245.7 195 195 195
511.4 -134.2 222.5 197 197 197
529.1 -137.4 227.9 198 198 198
528.0 -135.8 225.2 202 202 202
461.8 -117.6 195.0 202 202 202
452.3 -114.1 189.2 204 204 204
-362.3 -84.4 145.5 78 80 78
-350.8 -82.5 142.2 81 83 80
-366.8 -87.0 150.1 77 77 77
-360.5 -86.4 148.9 74 74 74
-368.6 -89.2 153.8 74 74 74
-371.1 -90.6 156.3 77 77 77
-361.5 -89.2 153.8 77 77 77
-352.2 -87.7 151.3 70 70 70
22.0 -7.1 12.3 222 224 224
22.6 -7.0 12.2 222 224 224
572.7 -159.0 274.1 174 176 176
851.3 -223.8 386.0 191 191 191
826.5 -215.1 370.9 193 193 193
575.6 -148.2 255.6 193 193 193
672.4 -171.4 295.6 196 196 196
587.5 -148.2 255.6 198 198 198
618.5 -154.5 266.4 198 198 198
561.4 -138.8 239.4 202 202 202
466.6 -114.3 197.0 202 202 202
461.5 -111.9 193.0 204 204 204
200.3 -178.4 320.6 222 222 222
21.9 -6.8 12.3 221 221 221
21.9 -6.7 12.1 221 221 221
22.2 -6.7 12.1 221 221 221
22.4 -6.7 12.1 222 222 222
617.4 -164.5 295.6 180 180 180
599.9 -148.3 266.4 193 193 193
701.2 -169.8 305.1 196 196 196
618.5 -148.3 266.4 198 198 198
554.4 -131.6 236.5 202 202 202
457.1 -107.4 193.0 202 202 202
196.9 -168.1 315.3 222 222 222
21.8 -6.5 12.2 222 222 222
21.7 -6.4 12.0 222 222 222
22.1 -6.4 12.1 222 222 222
22.3 -6.4 12.0 222 222 222
22.1 -6.3 11.8 222 222 222
697.0 -160.1 300.3 198 198 198
457.1 -102.9 193.0 203 203 203
181.8 -148.4 291.0 220 220 220
19.3 -5.6 11.0 222 222 222
21.5 -5.8 11.4 224 224 224
21.5 -5.8 11.3 224 224 224
798.4 -175.4 343.9 199 199 199
166.9 -35.6 69.8 205 205 205
202.0 -40.7 79.8 67 67 67
113.5 -85.3 175.2 219 219 219
19.2 -5.4 11.0 224 224 224
19.3 -5.3 11.0 221 221 221
19.5 -5.3 10.9 224 224 224
21.3 -5.5 11.2 224 224 224
21.1 -5.3 10.9 224 224 224
168.4 -34.6 71.1 203 203 203
165.7 -33.7 69.3 203 203 203
159.7 -32.2 66.1 198 198 198
220.6 -42.8 88.0 65 65 65
193.8 -37.3 76.6 65 65 65
171.9 -32.8 67.3 68 68 68
19.4 -5.1 11.0 221 221 221
19.6 -5.1 11.0 221 221 221
21.5 -5.3 11.4 224 224 224
21.2 -5.2 11.2 224 224 224
21.1 -5.1 11.0 225 225 225
166.9 -32.4 69.8 204 204 204
225.9 -41.8 90.1 45 44 43
208.1 -38.1 82.2 66 66 66
177.6 -32.2 69.5 69 69 69
19.4 -4.9 11.0 222 222 222
19.6 -4.8 10.9 222 222 222
21.6 -5.1 11.5 222 222 222
21.2 -4.9 11.2 222 222 222
21.1 -4.8 10.9 222 222 222
23.3 -4.1 11.8 225 225 225
1015.6 -136.9 394.1 56 56 56
23.5 -3.9 12.0 226 226 226
23.4 -3.8 11.8 226 226 226
578.7 -72.1 222.5 59 59 59
23.5 -3.6 12.1 224 224 224
23.7 -3.6 12.0 224 224 224
25.0 -3.8 12.5 224 224 224
24.6 -3.7 12.2 224 224 224
24.6 -3.6 12.1 224 224 224
955.9 -111.6 370.9 58 58 58
23.7 -3.4 12.3 224 224 224
23.7 -3.4 12.1 224 224 224
23.5 -3.3 11.9 224 224 224
24.7 -3.4 12.2 224 224 224
24.7 -3.4 12.1 221 221 221
24.6 -3.3 11.9 221 221 221
919.8 -99.1 356.9 58 58 58
22.3 -3.0 11.7 225 225 225
23.3 -3.0 11.9 225 225 225
23.3 -3.0 11.8 225 225 225
24.7 -3.1 12.2 225 225 225
24.5 -3.0 11.8 217 220 219
902.8 -89.1 350.3 58 59 59
565.4 -55.3 217.4 59 59 59
21.2 -2.7 11.8 222 222 222
21.4 -2.7 11.8 222 222 222
21.7 -2.7 11.8 222 222 222
22.1 -2.8 11.9 222 222 222
22.3 -2.7 11.8 222 222 222
22.5 -2.7 11.8 225 225 225
23.0 -2.8 11.9 225 225 225
23.3 -2.8 11.9 225 225 225
23.3 -2.7 11.8 225 225 225
24.3 -2.8 12.0 225 225 225
24.4 -2.8 11.9 225 225 225
24.5 -2.7 11.9 218 221 220
24.7 -2.7 11.8 155 158 157
855.2 -76.7 331.9 60 60 60
464.0 -41.3 178.5 59 59 59
22.2 -2.5 11.9 222 222 222
23.4 -2.5 12.0 222 222 222
23.3 -2.5 11.8 222 222 222
24.5 -2.5 12.1 222 222 222
24.6 -2.5 12.0 218 221 220
24.6 -2.5 11.9 218 221 220
24.8 -2.5 11.9 161 164 163
919.8 -74.2 356.9 63 63 63
473.0 -37.8 181.9 65 67 66
20.5 -1.9 10.4 224 224 224
24.6 -2.2 12.2 224 224 224
24.6 -2.2 12.0 226 226 226
24.7 -2.2 11.9 219 222 221
24.7 -2.2 11.8 166 166 166
919.8 -65.9 356.9 70 70 70
487.0 -34.6 187.3 78 78 78
20.6 -1.7 10.5 224 224 224
24.6 -1.9 12.0 224 224 224
24.6 -1.9 11.9 219 222 221
24.7 -1.9 11.8 165 165 165
786.3 -49.3 305.1 74 74 74
464.0 -28.8 178.5 77 77 77
24.6 -1.7 12.2 225 225 225
24.6 -1.7 12.1 227 227 227
24.5 -1.6 11.9 220 223 222
24.6 -1.6 11.8 168 168 168
773.8 -41.5 300.3 74 74 74
367.6 -19.4 140.1 63 63 63
735.8 -32.7 236.5 42 43 42
22.6 -1.3 11.3 220 223 222
24.6 -1.4 12.1 220 223 222
24.5 -1.4 11.9 220 223 222
24.6 -1.4 11.8 166 166 166
738.6 -32.9 286.6 72 72 72
443.1 -19.6 170.4 67 69 68
344.6 -15.1 131.4 59 59 59
23.4 -1.1 12.0 222 224 224
23.3 -1.1 11.8 222 224 224
24.6 -1.1 12.1 226 226 226
24.6 -1.1 11.9 226 226 226
24.7 -1.1 11.8 174 176 176
902.8 -32.1 350.3 73 73 73
25.2 -0.9 12.6 223 225 225
24.8 -0.8 12.1 222 224 224
24.7 -0.8 11.9 222 224 224
25.3 -0.6 12.7 223 225 225
24.9 -0.6 12.3 223 225 225
24.9 -0.6 12.2 223 225 225
24.6 -0.5 11.9 223 225 225
20.4 -0.2 10.2 224 226 226
24.9 -0.3 12.3 224 226 226
24.8 -0.3 12.2 220 223 222
24.6 -0.3 11.9 220 223 222
24.6 -0.3 11.8 176 179 178
24.9 0.0 12.3 224 226 226
24.8 0.0 12.2 222 224 224
24.6 0.0 11.9 224 226 226
919.8 0.5 356.9 47 48 47
24.8 0.3 12.3 222 224 224
24.7 0.3 12.1 224 226 226
24.6 0.3 11.9 224 226 226
23.0 0.3 10.6 200 200 200
902.8 8.6 350.3 47 48 47
24.6 0.6 12.0 223 225 225
24.6 0.6 11.9 222 222 222
22.8 0.5 10.6 198 198 198
937.5 17.4 363.8 47 46 45
92.2 1.2 24.7 87 87 87
24.6 0.9 12.0 224 226 226
24.6 0.8 11.9 220 220 220
23.2 0.8 10.9 198 198 198
22.8 0.8 10.6 198 198 198
955.9 26.3 370.9 48 47 46
89.5 1.7 23.9 86 85 83
86.2 1.6 22.9 87 87 87
24.7 1.1 12.1 224 226 226
24.6 1.1 11.9 224 226 226
23.4 1.0 11.0 199 199 199
22.8 1.0 10.6 199 199 199
79.3 2.0 21.6 95 98 97
79.5 2.0 21.5 88 88 88
85.4 2.1 22.7 92 92 92
82.5 2.1 21.8 88 88 88
81.6 2.0 21.4 164 164 164
24.8 1.4 12.3 225 225 225
24.8 1.4 12.2 222 222 222
24.5 1.4 11.8 225 227 227
23.3 1.3 10.9 199 199 199
22.8 1.2 10.6 199 199 199
80.5 2.6 21.9 96 99 98
80.4 2.6 21.8 87 86 84
81.2 2.6 21.8 87 86 84
84.6 2.6 22.5 89 89 89
82.9 2.6 21.9 85 84 82
82.2 2.5 21.6 158 158 158
20.3 1.6 11.5 220 220 220
24.5 1.7 11.8 221 221 221
23.4 1.5 11.0 200 200 200
23.0 1.5 10.6 200 200 200
80.8 3.1 22.3 147 147 147
81.3 3.1 22.3 124 124 124
82.0 3.1 22.4 96 99 98
82.5 3.1 22.3 87 87 85
82.7 3.1 22.3 87 87 85
85.1 3.2 22.6 89 89 89
84.2 3.1 22.3 93 93 93
24.4 1.9 11.8 219 219 219
24.5 1.9 11.7 193 193 193
85.5 3.7 22.7 86 85 83
84.5 3.7 22.3 97 97 97
24.6 2.2 11.9 220 220 220
994.9 81.2 386.0 191 191 191
886.3 80.4 343.9 195 195 195
523.3 47.0 201.2 195 195 195
333.1 35.6 127.0 86 86 86
342.3 39.6 130.5 139 139 139
24.9 4.0 12.2 228 228 228
24.7 4.2 12.1 227 227 227
24.6 4.2 11.9 173 175 175
24.5 4.4 11.9 180 180 180
24.7 4.7 11.9 174 176 176
24.6 5.0 11.9 174 174 174
24.6 5.3 11.9 175 177 177
24.6 5.6 11.9 178 181 180
24.7 5.9 12.1 218 218 218
24.5 5.8 11.9 186 186 186
24.5 5.7 11.7 199 199 199
24.9 6.2 12.2 222 222 222
24.6 6.1 11.9 182 182 182
23.4 5.6 10.9 202 202 202
23.0 5.5 10.7 202 202 202
24.7 6.5 12.1 221 221 221
24.6 6.4 11.9 191 194 193
23.0 5.7 10.7 203 203 203
-134.0 32.8 58.7 115 114 114
-132.2 32.7 58.6 52 53 51
-137.2 34.3 61.4 23 23 22
-130.3 32.9 58.9 23 23 22
-129.3 33.1 59.1 25 24 23
-116.5 32.5 58.2 80 80 80
-117.3 33.2 59.3 81 81 81
-118.9 34.0 60.8 81 81 81
-74.6 32.5 58.2 131 134 133
-74.8 33.3 59.5 230 233 232
-73.2 33.2 59.3 235 235 235
-73.2 34.5 61.6 219 222 221
-66.2 31.8 56.8 228 228 228
-62.8 30.7 55.0 193 193 193
-58.8 32.0 57.3 95 98 97
-53.9 30.0 53.7 100 100 100
23.4 6.1 11.0 200 200 200
23.0 6.0 10.7 200 200 200
-138.0 36.4 62.4 83 82 80
-80.8 36.7 63.1 84 84 84
-81.2 37.6 64.6 212 213 212
-78.1 38.2 65.7 133 133 133
-70.0 35.0 60.1 38 40 40
-72.9 40.5 69.5 68 71 70
-63.0 35.8 61.4 64 64 64
22.8 6.1 10.6 200 200 200
22.6 6.0 10.3 200 200 200
286.9 66.2 109.3 84 84 84
172.9 257.0 394.1 67 67 67
-651.5 266.1 394.1 124 126 125
159.6 245.7 363.8 67 67 67
129.7 206.5 295.6 69 69 69
-300.9 124.8 157.6 119 121 120
-283.1 118.8 150.1 117 119 118
-296.1 125.8 159.0 117 119 118
-280.6 120.8 152.6 117 119 118
-274.8 119.8 151.3 112 112 112
-271.3 119.8 151.3 106 108 108
-261.5 117.0 147.8 112 112 112
-262.2 118.8 150.1 104 104 104
-279.6 130.2 164.5 104 104 104
-264.3 124.8 157.6 101 101 101
-268.1 130.2 164.5 93 93 93
-243.1 119.8 151.3 90 90 90
-235.9 117.9 148.9 110 110 110
-240.0 121.7 153.8 140 142 141
-234.5 120.8 152.6 179 179 179
-230.9 120.8 152.6 186 186 186
-229.2 121.7 153.8 170 171 170
-220.3 118.8 150.1 168 168 168
-233.5 128.0 161.7 170 171 170
-216.7 120.8 152.6 178 178 178
-209.8 118.8 150.1 167 167 167
-213.1 122.7 155.1 153 155 155
-204.5 119.8 151.3 151 153 153
-202.6 120.8 152.6 122 122 122
-199.0 120.8 152.6 84 84 84
-195.5 120.8 152.6 79 82 81
-191.9 120.8 152.6 71 72 70
-189.9 121.7 153.8 63 63 63
-197.6 129.1 163.1 53 53 53
-185.8 123.7 156.3 35 35 35
-172.2 117.0 147.8 29 30 28
-171.4 118.8 150.1 54 54 54
-169.3 119.8 151.3 11 11 11
-165.8 119.8 151.3 13 17 14
-158.4 117.0 147.8 26 26 26
-165.8 128.0 161.7 150 150 150
-154.2 121.7 153.8 156 159 158
-149.4 120.8 152.6 154 154 154
-143.5 118.8 150.1 112 112 112
-141.1 119.8 151.3 184 187 186
-148.3 129.1 163.1 183 183 183
-137.4 122.7 155.1 157 157 157
-127.5 117.0 147.8 139 138 137
-126.1 118.8 150.1 137 136 135
-118.0 129.1 163.1 97 100 99
-105.1 118.8 150.1 90 90 90
-102.5 119.8 151.3 85 87 87
-98.1 118.8 150.1 81 84 83
-93.9 117.9 148.9 97 97 97
-96.5 125.8 159.0 122 122 122
-87.7 118.8 150.1 145 145 144
-81.3 119.8 151.3 153 153 153
-82.4 126.9 160.3 156 159 158
-78.1 125.8 159.0 150 150 150
-70.8 119.8 151.3 165 165 165
-67.3 119.8 151.3 142 141 140
-63.8 119.8 151.3 35 37 36
-62.8 124.8 157.6 130 130 130
-59.1 124.8 157.6 130 130 130
-53.2 119.8 151.3 38 38 36
-49.7 119.8 151.3 54 54 54
-46.2 119.8 151.3 163 163 163
-44.8 125.8 159.0 161 161 161
-42.2 129.1 163.1 164 164 164
-36.2 121.7 153.8 178 181 180
-34.6 129.1 163.1 178 181 180
-24.9 118.8 150.1 177 180 179
-4.3 129.1 163.1 216 216 216
-0.4 118.8 150.1 216 216 216
3.0 115.2 145.5 220 220 220
6.5 118.8 150.1 204 204 204
9.9 117.9 148.9 209 209 209
13.8 121.7 153.8 202 202 202
88.9 117.0 147.8 81 83 80
92.3 117.0 147.8 80 82 79
95.0 116.1 146.6 80 82 79
-406.1 171.3 210.2 120 122 121
-451.4 192.7 236.5 118 120 119
-434.9 192.7 236.5 116 116 116
-429.4 192.7 236.5 111 111 111
-364.6 165.7 203.4 111 111 111
-352.3 162.2 199.1 100 100 100
-367.0 171.3 210.2 89 89 89
-366.2 173.2 212.5 100 99 97
-353.3 169.4 207.9 100 100 100
-364.5 177.2 217.4 98 97 95
-367.9 181.3 222.5 100 99 97
-335.1 167.5 205.6 117 119 118
-316.6 160.5 197.0 134 134 134
-368.9 192.7 236.5 141 143 142
-316.0 167.5 205.6 165 165 165
-356.9 195.1 239.4 160 160 160
-341.4 192.7 236.5 164 164 164
-285.9 164.0 201.2 168 168 168
-288.9 171.3 210.2 111 111 111
-277.8 167.5 205.6 75 76 76
-276.0 169.4 207.9 77 77 77
-312.4 195.1 239.4 78 80 78
-303.0 192.7 236.5 74 74 74
-297.5 192.7 236.5 62 62 62
-295.7 195.1 239.4 58 58 58
-272.8 183.5 225.2 57 57 57
-236.6 162.2 199.1 34 34 34
-222.6 155.7 191.1 34 34 34
-234.8 167.5 205.6 58 58 58
-230.0 167.5 205.6 13 13 13
-213.2 169.4 207.9 167 167 167
-237.0 192.7 236.5 152 152 152
-199.2 165.7 203.4 146 146 146
-194.4 165.7 203.4 81 81 81
-193.9 169.4 207.9 188 190 190
-197.7 177.2 217.4 180 180 180
-202.0 185.7 227.9 156 156 156
-166.6 157.3 193.0 148 150 150
-165.5 160.5 197.0 140 140 140
-155.5 175.1 215.0 98 98 98
-138.0 160.5 197.0 90 90 90
-150.8 188.0 230.7 81 84 83
-143.6 192.7 236.5 95 95 95
-61.3 177.2 217.4 135 135 135
-56.2 177.2 217.4 151 151 151
-47.9 165.7 203.4 153 153 153
-39.3 169.4 207.9 168 168 168
-11.4 188.0 230.7 214 214 214
-6.0 188.0 230.7 216 216 216
-0.6 160.5 197.0 222 222 222
4.0 158.9 195.0 193 193 193
117.3 158.9 195.0 83 84 82
123.1 160.5 197.0 85 86 84
-651.5 330.3 394.1 137 137 137
-457.7 304.9 363.8 66 66 66
18.9 14.2 10.7 111 111 111
19.1 14.2 10.7 103 103 103
18.8 14.4 10.7 114 116 115
18.8 14.7 10.7 91 91 91
19.0 14.6 10.7 105 107 107
95.9 63.0 45.9 84 84 84
99.4 63.2 46.0 72 72 72
105.3 62.9 45.8 211 211 211
115.1 63.0 45.9 217 217 217
18.9 15.0 10.7 53 53 53
19.1 14.9 10.7 49 50 48
19.9 15.0 10.7 140 140 140
19.0 15.3 10.7 36 37 36
19.1 15.2 10.7 92 95 94
19.9 15.2 10.7 150 152 152
19.0 15.9 10.7 81 81 81
19.8 15.9 10.7 143 143 142
