ply
format ascii 1.0
element vertex 2148
property float x
property float y
property float z
property uchar red
property uchar green
property uchar blue
end_header
93.5 -155.6 62.0 156 159 158
91.9 -150.7 60.1 156 159 158
94.2 -152.1 60.6 156 159 158
97.2 -154.6 61.6 157 160 159
99.0 -155.1 61.8 157 160 159
100.1 -154.6 61.6 158 161 160
63.8 -93.2 37.2 159 162 161
64.3 -92.7 36.9 157 160 159
66.3 -94.4 37.6 157 160 159
66.9 -94.0 37.5 157 160 159
67.4 -93.4 37.2 158 161 160
68.1 -93.2 37.2 158 161 160
68.9 -49.6 19.8 95 98 97
69.3 -49.6 19.8 95 98 97
69.9 -49.7 19.8 94 94 94
70.4 -49.7 19.8 92 92 92
70.8 -49.6 19.8 98 100 100
71.3 -49.7 19.8 94 94 94
71.8 -49.7 19.8 114 116 115
72.2 -49.7 19.8 162 165 164
72.7 -49.7 19.8 200 202 202
70.3 -398.5 160.3 158 158 158
74.0 -398.5 160.3 161 161 161
77.8 -398.5 160.3 160 160 160
81.5 -398.5 160.3 160 160 160
85.2 -398.5 160.3 160 160 160
89.0 -398.5 160.3 160 160 160
92.7 -398.5 160.3 159 159 159
94.8 -391.8 157.6 162 162 162
98.5 -391.8 157.6 162 162 162
104.7 -401.9 161.7 162 162 162
107.6 -398.5 160.3 162 162 162
108.6 -388.6 156.3 165 165 165
114.1 -395.1 159.0 166 166 166
118.8 -398.5 160.3 166 166 166
122.5 -398.5 160.3 166 166 166
126.2 -398.5 160.3 166 166 166
129.9 -398.5 160.3 166 166 166
133.7 -398.5 160.3 166 166 166
137.4 -398.5 160.3 166 166 166
141.1 -398.5 160.3 166 166 166
144.8 -398.5 160.3 166 166 166
148.6 -398.5 160.3 166 166 166
156.3 -408.9 164.5 166 166 166
157.4 -401.9 161.7 167 167 167
159.7 -398.5 160.3 167 167 167
151.9 -370.3 148.9 164 164 164
156.6 -373.2 150.1 164 164 164
160.1 -373.2 150.1 161 161 161
174.7 -398.5 160.3 161 161 161
179.9 -401.9 161.7 161 161 161
183.7 -401.9 161.7 161 161 161
185.8 -398.5 160.3 161 161 161
188.0 -395.1 159.0 162 162 162
186.9 -385.4 155.1 162 162 162
197.0 -398.5 160.3 162 162 162
192.6 -382.3 153.8 162 162 162
190.0 -370.3 148.9 162 162 162
196.5 -376.2 151.3 162 162 162
217.4 -408.9 164.5 162 162 162
225.2 -416.1 167.4 162 162 162
217.5 -395.1 159.0 162 162 162
219.4 -391.8 157.6 160 160 160
223.0 -391.8 157.6 160 160 160
230.5 -398.5 160.3 160 160 160
105.8 -166.7 67.1 157 160 159
105.1 -163.3 65.7 157 160 159
104.5 -159.9 64.3 158 161 160
65.2 -94.4 38.0 156 159 158
65.7 -93.9 37.8 157 160 159
68.9 -97.2 39.1 157 160 159
69.0 -96.0 38.6 157 160 159
69.0 -94.8 38.1 158 161 160
69.9 -94.8 38.1 158 161 160
68.4 -49.1 19.8 95 98 97
68.6 -49.0 19.7 94 94 94
68.9 -48.8 19.6 94 94 94
69.8 -49.1 19.8 92 92 92
70.3 -49.2 19.8 92 92 92
70.5 -49.0 19.7 92 92 92
71.1 -49.1 19.7 95 98 97
71.7 -49.2 19.8 179 182 181
72.0 -49.1 19.7 165 168 167
72.4 -49.0 19.7 193 193 193
34.0 -181.3 73.6 161 161 161
35.7 -181.3 73.6 160 160 160
37.4 -181.3 73.6 160 160 160
39.1 -181.3 73.6 163 163 163
42.6 -181.3 73.6 162 162 162
44.3 -181.3 73.6 159 159 159
46.0 -181.3 73.6 162 162 162
59.7 -181.3 73.6 166 166 166
61.4 -181.3 73.6 166 166 166
63.1 -181.3 73.6 166 166 166
64.8 -181.3 73.6 166 166 166
66.5 -181.3 73.6 166 166 166
68.2 -181.3 73.6 166 166 166
69.9 -181.3 73.6 164 164 164
71.4 -180.6 73.3 164 164 164
75.4 -182.0 73.9 164 164 164
72.0 -170.0 69.0 164 164 164
81.9 -181.3 73.6 164 164 164
83.9 -182.0 73.9 161 161 161
88.7 -181.3 73.6 159 159 159
85.5 -171.3 69.5 159 159 159
92.9 -182.7 74.2 160 160 160
93.2 -179.9 73.0 162 162 162
90.3 -171.3 69.5 162 162 162
104.5 -182.0 73.9 162 162 162
104.2 -178.5 72.5 163 163 163
108.4 -182.7 74.2 163 163 163
108.0 -179.2 72.8 163 163 163
99.4 -162.3 65.9 163 163 163
114.9 -182.0 73.9 161 161 161
114.8 -179.2 72.8 162 162 162
114.3 -175.8 71.4 162 162 162
109.7 -166.4 67.6 163 163 163
66.8 -95.8 38.9 159 162 161
67.6 -95.7 38.8 160 163 162
71.1 -99.3 40.3 160 163 162
72.2 -99.5 40.4 157 160 159
72.1 -98.1 39.8 158 161 160
72.2 -97.0 39.4 158 161 160
60.4 -138.2 56.6 164 164 164
70.7 -137.7 56.5 165 165 165
77.0 -144.6 59.3 168 168 168
74.4 -137.3 56.3 165 165 165
96.1 -168.4 69.0 162 162 162
92.3 -159.1 65.2 162 162 162
96.5 -158.6 65.0 163 163 163
86.4 -139.8 57.3 163 163 163
84.7 -134.9 55.3 163 163 163
107.0 -163.0 66.8 164 164 164
104.5 -156.9 64.3 165 165 165
94.4 -139.8 57.3 165 165 165
92.7 -135.3 55.5 165 165 165
68.6 -96.1 39.4 165 165 165
71.9 -99.4 40.8 160 163 162
73.6 -100.5 41.2 160 163 162
74.0 -99.7 40.9 161 164 163
72.9 -96.9 39.7 158 161 160
56.2 -36.4 14.9 212 213 212
55.8 -36.0 14.7 200 202 202
55.8 -35.7 14.7 195 195 195
56.4 -35.9 14.7 215 215 215
37.9 -106.8 44.2 166 166 166
38.8 -106.5 44.1 166 166 166
39.9 -106.8 44.2 166 166 166
44.1 -107.0 44.3 161 161 161
45.1 -106.8 44.2 164 164 164
46.9 -108.6 44.9 164 164 164
47.7 -108.0 44.7 161 161 161
47.7 -105.8 43.8 161 161 161
48.8 -106.0 43.9 164 164 164
50.1 -106.5 44.1 164 164 164
54.0 -108.3 44.8 168 168 168
54.4 -107.0 44.3 168 168 168
56.4 -108.8 45.0 165 165 165
56.8 -107.5 44.5 168 168 168
57.3 -106.5 44.1 165 165 165
60.6 -108.8 45.0 165 165 165
73.5 -116.0 48.0 166 166 166
67.6 -105.1 43.5 163 163 163
69.4 -106.3 44.0 167 167 167
124.6 -188.1 77.8 167 167 167
79.2 -114.5 47.4 165 165 165
74.2 -105.8 43.8 166 166 166
72.8 -102.5 42.4 166 166 166
76.2 -104.3 43.2 167 167 167
79.2 -107.0 44.3 165 165 165
80.2 -107.0 44.3 166 166 166
80.1 -105.5 43.7 166 166 166
64.2 -44.5 18.4 94 94 94
64.1 -44.2 18.3 94 94 94
55.6 -35.7 14.8 208 208 208
54.4 -34.7 14.4 182 185 184
54.7 -34.7 14.4 217 217 217
54.2 -34.2 14.1 212 213 212
34.7 -108.8 45.5 166 166 166
36.0 -109.3 45.7 166 166 166
37.8 -108.5 45.4 166 166 166
44.2 -108.5 45.4 167 167 167
47.3 -108.5 45.4 167 167 167
48.5 -108.8 45.5 164 164 164
56.9 -108.8 45.5 168 168 168
57.6 -108.0 45.1 170 172 172
61.0 -108.5 45.4 168 168 168
69.7 -107.3 44.8 169 169 169
55.2 -83.7 35.0 170 171 170
126.7 -189.4 79.1 170 171 170
121.4 -178.9 74.8 170 171 170
77.0 -108.8 45.5 169 169 169
77.2 -104.8 43.8 170 171 170
80.5 -107.8 45.0 167 167 167
82.3 -108.8 45.5 168 168 168
82.6 -107.8 45.0 168 168 168
713.5 -808.3 337.8 157 157 157
63.4 -43.6 18.2 94 94 94
63.1 -43.1 18.0 94 94 94
61.6 -41.4 17.3 92 92 92
52.7 -33.3 13.9 212 213 212
53.4 -33.5 14.0 217 217 217
53.0 -33.1 13.8 215 215 215
150.8 -233.5 98.5 171 173 173
51.6 -78.6 33.2 171 173 173
53.7 -80.6 34.0 175 177 177
52.8 -78.2 33.0 172 174 174
78.9 -106.0 44.7 173 173 173
80.7 -107.0 45.1 174 174 174
61.6 -41.6 17.6 94 94 94
60.5 -40.6 17.1 92 92 92
59.9 -39.9 16.8 92 92 92
59.5 -39.4 16.6 94 94 94
46.8 -29.8 12.6 193 193 193
46.0 -29.1 12.3 179 182 181
163.0 -253.6 108.1 178 178 178
147.0 -225.3 96.0 178 178 178
158.1 -238.6 101.7 178 178 178
52.7 -77.2 32.9 175 177 177
53.3 -77.1 32.8 172 174 174
28.3 -39.2 16.7 176 179 178
28.3 -38.6 16.5 181 181 181
59.6 -39.6 16.9 92 92 92
58.6 -38.7 16.5 92 92 92
58.6 -38.4 16.4 98 100 100
45.4 -28.5 12.1 208 208 208
44.7 -27.8 11.9 215 215 215
46.3 -28.5 12.2 217 217 217
176.1 -271.3 116.8 199 199 199
148.5 -225.4 97.0 196 196 196
158.1 -236.3 101.7 196 196 196
52.6 -76.3 32.8 200 200 200
53.3 -76.3 32.8 200 200 200
27.4 -37.1 16.0 199 199 199
27.1 -36.1 15.6 199 199 199
57.4 -37.1 15.9 98 100 100
45.6 -28.3 12.2 212 213 212
39.9 -24.5 10.6 208 208 208
44.1 -26.9 11.6 217 217 217
44.3 -26.9 11.6 217 217 217
160.9 -241.7 105.1 199 199 199
53.7 -77.1 33.5 204 204 204
53.9 -76.3 33.2 204 204 204
27.1 -36.3 15.8 205 205 205
26.7 -35.3 15.4 206 206 206
26.3 -34.3 14.9 206 206 206
39.6 -24.1 10.5 176 176 176
39.5 -23.9 10.4 215 215 215
42.2 -25.3 11.0 217 217 217
34.6 -55.7 24.5 206 206 206
36.7 -55.4 24.3 206 206 206
37.0 -55.1 24.2 203 203 203
52.8 -75.2 33.0 204 204 204
53.9 -75.6 33.2 204 204 204
26.6 -35.3 15.5 205 205 205
26.6 -34.8 15.3 206 206 206
26.3 -34.0 14.9 206 206 206
26.4 -33.7 14.8 204 204 204
34.7 -55.3 24.5 208 208 208
37.3 -54.9 24.4 206 206 206
37.6 -54.5 24.2 206 206 206
53.5 -75.3 33.4 207 207 207
54.4 -75.4 33.5 207 207 207
55.6 -76.1 33.8 207 207 207
26.8 -35.1 15.6 205 205 205
26.6 -34.5 15.3 206 206 206
26.4 -33.7 15.0 206 206 206
26.5 -33.4 14.8 206 206 206
34.8 -54.9 24.6 208 208 208
37.8 -55.0 24.7 206 206 206
37.5 -53.8 24.1 206 206 206
54.5 -75.9 34.0 206 206 206
55.2 -75.7 34.0 207 207 207
56.8 -76.8 34.5 207 207 207
61.1 -81.6 36.6 207 207 207
26.6 -34.1 15.3 205 205 205
26.4 -33.4 15.0 206 206 206
26.4 -33.0 14.8 206 206 206
26.5 -32.6 14.6 206 206 206
24.3 -25.4 11.4 159 159 159
24.4 -25.2 11.3 159 159 159
35.6 -56.5 25.6 207 207 207
34.8 -54.2 24.6 207 207 207
34.3 -51.7 23.4 207 207 207
38.0 -54.8 24.8 205 205 205
37.5 -53.2 24.1 205 205 205
57.4 -76.9 34.8 206 206 206
61.7 -81.5 36.9 207 207 207
26.7 -33.9 15.3 207 207 207
26.4 -33.0 15.0 205 205 205
26.4 -32.6 14.8 205 205 205
26.3 -32.0 14.5 208 208 208
34.9 -53.9 24.7 207 207 207
38.2 -54.5 25.0 207 207 207
37.9 -53.3 24.4 207 207 207
38.3 -53.0 24.3 207 207 207
60.7 -80.5 36.9 206 206 206
62.5 -81.6 37.4 206 206 206
65.1 -84.0 38.4 208 208 208
26.4 -32.7 15.0 207 207 207
26.4 -32.3 14.8 207 207 207
26.3 -31.7 14.5 209 209 209
23.0 -26.0 11.9 206 206 206
23.2 -26.0 11.9 207 207 207
-29.0 -22.3 10.3 45 44 43
-22.7 -22.2 10.3 41 41 41
-22.5 -22.2 10.3 47 48 47
-22.3 -22.2 10.3 41 41 41
-15.3 -22.2 10.3 118 120 119
-8.2 -22.2 10.3 139 141 140
-7.4 -22.2 10.3 136 138 137
-7.2 -22.2 10.3 139 139 139
34.6 -52.8 24.4 206 206 206
37.5 -52.9 24.5 206 206 206
37.6 -52.2 24.2 206 206 206
37.9 -51.9 24.0 207 207 207
60.9 -79.8 36.9 207 207 207
62.5 -80.8 37.4 208 208 208
64.7 -82.6 38.2 208 208 208
26.4 -32.0 14.8 207 207 207
26.3 -31.4 14.5 207 207 207
23.2 -26.0 12.0 206 206 206
23.4 -26.0 12.0 206 206 206
23.9 -26.2 12.1 206 206 206
-29.4 -22.3 10.5 46 45 43
-29.3 -22.4 10.5 49 49 49
-29.1 -22.4 10.5 47 48 47
-28.8 -22.4 10.5 47 48 47
-28.6 -22.4 10.5 49 49 49
-28.4 -22.4 10.5 52 52 52
-28.1 -22.4 10.5 47 48 47
-27.9 -22.4 10.5 47 48 47
-27.6 -22.4 10.5 49 49 49
-27.4 -22.4 10.5 47 48 47
-27.1 -22.4 10.5 47 48 47
-26.9 -22.4 10.5 47 48 47
-26.6 -22.4 10.5 47 48 47
-26.8 -22.8 10.7 47 48 47
-26.5 -22.8 10.7 46 45 43
-25.9 -22.4 10.5 46 45 43
-25.7 -22.4 10.5 42 42 42
-25.4 -22.4 10.5 42 42 42
-25.3 -22.5 10.5 42 42 42
-25.4 -22.9 10.7 40 40 40
-24.7 -22.5 10.5 39 39 39
-24.4 -22.4 10.5 36 37 36
-23.9 -22.8 10.7 42 42 42
-23.3 -22.5 10.5 42 42 42
-23.0 -22.4 10.5 42 42 42
-22.0 -22.5 10.5 47 47 47
-21.7 -22.4 10.5 51 51 51
-21.1 -22.8 10.7 90 90 90
-20.5 -22.4 10.5 95 98 97
-19.3 -22.7 10.6 106 106 106
-18.9 -22.5 10.5 107 109 109
-18.6 -22.4 10.5 107 109 109
-18.3 -22.4 10.5 106 108 108
-18.1 -22.4 10.5 106 108 108
-16.1 -22.7 10.6 118 120 119
-15.6 -22.4 10.5 118 120 119
-15.4 -22.8 10.7 119 121 120
-14.9 -22.5 10.5 119 121 120
-9.3 -22.5 10.5 136 138 137
-9.1 -22.6 10.6 139 138 137
-8.8 -22.4 10.5 139 139 139
-8.6 -22.4 10.5 140 142 141
-8.1 -22.5 10.5 144 144 144
-7.8 -22.4 10.5 140 140 140
-7.6 -22.4 10.5 141 141 141
-5.9 -22.5 10.5 158 161 160
17.7 -31.9 14.9 209 209 209
34.3 -51.8 24.2 206 206 206
34.1 -50.7 23.7 206 206 206
37.1 -51.8 24.3 206 206 206
37.3 -51.3 24.0 206 206 206
37.4 -50.7 23.7 206 206 206
37.8 -50.4 23.6 206 206 206
63.2 -80.9 37.8 210 210 210
66.5 -83.9 39.2 207 207 207
26.4 -31.6 14.8 206 206 206
26.3 -31.1 14.5 206 206 206
26.4 -30.8 14.4 207 207 207
23.6 -25.8 12.1 205 205 205
23.9 -25.9 12.1 206 206 206
-10.9 -23.6 11.1 126 128 127
-10.1 -23.4 11.1 135 135 135
-9.8 -23.3 11.0 135 135 135
-11.2 -28.3 13.4 137 136 135
-10.9 -28.3 13.4 139 139 139
-10.6 -28.2 13.3 140 142 141
-8.1 -28.3 13.4 158 161 160
-7.8 -28.3 13.4 164 164 164
-7.5 -28.3 13.4 167 167 167
-7.2 -28.3 13.4 166 169 168
-6.9 -28.2 13.4 168 170 169
-6.6 -28.3 13.4 170 171 170
-6.3 -28.3 13.4 172 172 172
-6.0 -28.3 13.4 173 173 173
-5.6 -28.3 13.4 174 174 174
-5.3 -28.3 13.4 173 175 175
-5.0 -28.3 13.4 179 179 179
-4.7 -28.3 13.4 174 176 176
-4.4 -28.3 13.4 177 177 177
-4.1 -28.3 13.4 180 180 180
-3.8 -28.3 13.4 182 182 182
-3.5 -28.3 13.4 179 179 179
-3.1 -28.3 13.4 182 182 182
-2.8 -28.3 13.4 181 181 181
-2.5 -28.3 13.4 181 181 181
-2.2 -28.3 13.4 181 181 181
-1.9 -28.3 13.4 181 181 181
-1.6 -28.3 13.4 179 179 179
-1.3 -28.3 13.4 179 179 179
-1.0 -28.3 13.4 181 181 181
-0.7 -28.3 13.4 181 181 181
-0.0 -28.3 13.4 180 180 180
0.3 -28.3 13.4 180 180 180
0.6 -28.3 13.4 180 180 180
0.9 -28.3 13.4 180 180 180
1.2 -28.3 13.4 180 180 180
1.5 -28.3 13.4 180 180 180
1.8 -28.3 13.4 180 180 180
2.1 -28.3 13.4 182 182 182
2.4 -28.1 13.3 182 182 182
2.7 -28.1 13.3 185 185 185
6.8 -28.3 13.4 209 209 209
7.1 -28.3 13.4 209 209 209
7.4 -28.3 13.4 209 209 209
7.7 -28.3 13.4 209 209 209
8.0 -28.3 13.4 209 209 209
8.4 -28.3 13.4 209 209 209
8.7 -28.3 13.4 209 209 209
9.0 -28.3 13.4 209 209 209
9.3 -28.3 13.4 209 209 209
9.6 -28.3 13.4 209 209 209
9.9 -28.3 13.4 209 209 209
10.2 -28.3 13.4 209 209 209
10.5 -28.3 13.4 209 209 209
10.8 -28.2 13.3 209 209 209
11.1 -28.2 13.3 209 209 209
11.5 -28.3 13.4 209 209 209
11.8 -28.3 13.4 209 209 209
12.1 -28.3 13.4 209 209 209
12.4 -28.3 13.4 209 209 209
12.7 -28.3 13.4 209 209 209
13.0 -28.2 13.4 208 208 208
13.3 -28.3 13.4 208 208 208
13.6 -28.2 13.4 208 208 208
15.3 -28.4 13.4 208 208 208
15.5 -28.2 13.3 208 208 208
16.5 -28.3 13.4 208 208 208
16.8 -28.3 13.4 208 208 208
38.6 -53.2 25.2 205 205 205
37.4 -50.9 24.1 205 205 205
37.3 -50.0 23.6 206 206 206
37.6 -49.7 23.5 206 206 206
68.3 -85.3 40.3 207 207 207
26.5 -31.3 14.8 206 206 206
26.4 -30.8 14.6 206 206 206
26.4 -30.5 14.4 206 206 206
23.0 -25.0 11.8 205 205 205
23.3 -24.9 11.8 205 205 205
23.3 -24.7 11.7 205 205 205
-9.8 -23.0 11.0 125 125 125
-9.5 -23.8 11.4 134 137 136
10.2 -28.0 13.4 208 208 208
12.6 -31.6 15.1 208 208 208
13.2 -31.5 15.0 208 208 208
17.2 -31.7 15.2 208 208 208
17.6 -31.7 15.1 208 208 208
17.9 -31.6 15.1 208 208 208
18.1 -31.3 15.0 208 208 208
38.2 -52.1 24.9 205 205 205
37.5 -50.4 24.1 205 205 205
37.7 -50.0 23.9 205 205 205
26.5 -31.8 15.2 207 207 207
26.5 -31.5 15.0 209 209 209
26.7 -31.3 15.0 207 207 207
26.8 -31.0 14.8 205 205 205
23.0 -24.7 11.8 207 207 207
23.1 -24.5 11.7 204 204 204
23.3 -24.4 11.7 205 205 205
-9.6 -23.7 11.5 104 104 104
8.8 -23.7 11.5 208 208 208
12.6 -31.3 15.1 208 208 208
15.4 -23.7 11.5 207 207 207
38.0 -51.3 24.8 207 207 207
37.4 -49.8 24.1 207 207 207
37.4 -49.0 23.7 208 208 208
37.9 -48.9 23.6 205 205 205
26.7 -30.9 14.9 206 206 206
26.7 -30.5 14.7 207 207 207
-41.3 -30.0 14.7 52 52 52
-41.0 -30.0 14.7 52 52 52
-40.6 -30.0 14.7 54 54 54
-40.3 -30.0 14.7 57 58 56
-40.2 -30.2 14.8 50 50 50
-39.9 -30.2 14.8 54 54 54
-39.5 -30.2 14.8 57 58 56
-39.2 -30.2 14.8 57 58 56
-38.9 -30.2 14.8 54 54 54
-38.5 -30.2 14.8 54 54 54
-38.1 -30.2 14.8 54 54 54
-34.7 -30.2 14.8 43 43 43
-34.4 -30.2 14.8 45 45 45
-34.1 -30.2 14.8 46 46 46
-33.7 -30.2 14.8 46 46 46
-33.0 -30.2 14.8 49 48 47
-32.7 -30.2 14.8 46 46 46
-31.0 -30.3 14.8 43 43 43
-30.6 -30.2 14.8 41 41 41
-30.3 -30.2 14.8 43 43 43
-30.0 -30.2 14.8 42 42 42
-29.4 -30.0 14.7 42 42 42
-29.0 -30.0 14.7 44 44 44
-28.9 -30.2 14.8 42 42 42
-27.9 -30.3 14.8 44 44 44
-27.5 -30.2 14.8 47 47 47
-27.2 -30.2 14.8 47 47 47
-26.6 -30.0 14.7 47 47 47
-26.5 -30.2 14.8 47 47 47
-26.0 -30.1 14.7 80 80 80
-25.7 -30.0 14.7 100 100 100
-15.5 -30.1 14.7 102 102 102
-15.0 -29.9 14.6 101 103 103
-14.6 -29.8 14.6 90 90 90
-14.3 -29.8 14.6 73 73 73
-12.4 -30.1 14.7 23 23 23
-12.0 -29.9 14.6 26 27 25
-11.7 -30.2 14.8 90 92 91
-9.7 -30.2 14.8 197 197 197
-9.3 -30.2 14.8 203 203 203
-9.0 -30.2 14.8 205 205 205
-8.6 -30.2 14.8 204 204 204
-8.3 -30.2 14.8 205 205 205
-7.9 -30.2 14.8 205 205 205
-7.6 -30.2 14.8 204 204 204
-7.3 -30.2 14.8 203 203 203
-6.9 -30.2 14.8 205 205 205
-6.6 -30.2 14.8 199 199 199
-6.2 -30.0 14.7 199 199 199
-5.9 -30.2 14.8 198 198 198
-5.2 -30.2 14.8 197 197 197
-4.9 -30.2 14.8 196 196 196
-4.5 -30.2 14.8 193 193 193
-4.2 -30.2 14.8 193 193 193
-3.8 -30.2 14.8 193 193 193
-3.5 -30.2 14.8 193 193 193
-3.1 -30.2 14.8 193 193 193
-2.8 -30.2 14.8 193 193 193
-2.4 -30.2 14.8 193 193 193
-2.1 -30.2 14.8 193 193 193
-1.8 -30.3 14.8 192 192 192
-1.4 -30.1 14.7 192 192 192
-1.1 -29.9 14.6 189 189 189
-0.7 -30.1 14.7 189 189 189
-0.4 -30.2 14.8 186 186 186
-0.0 -30.2 14.8 189 189 189
0.3 -30.2 14.8 186 186 186
1.0 -30.2 14.8 186 186 186
1.3 -30.2 14.8 186 186 186
1.7 -30.2 14.8 183 183 183
2.0 -30.2 14.8 183 183 183
2.4 -30.1 14.7 183 183 183
2.7 -30.2 14.8 183 183 183
8.2 -30.2 14.8 208 208 208
8.5 -30.2 14.8 208 208 208
8.9 -30.2 14.8 205 205 205
9.2 -30.2 14.8 210 210 210
10.0 -30.3 14.8 210 210 210
10.2 -30.2 14.8 207 207 207
10.9 -30.2 14.8 207 207 207
11.3 -30.2 14.8 207 207 207
12.6 -30.1 14.7 207 207 207
13.0 -30.2 14.8 207 207 207
13.3 -30.2 14.8 207 207 207
13.7 -30.2 14.8 207 207 207
14.1 -30.3 14.8 207 207 207
14.4 -30.2 14.8 207 207 207
14.7 -30.2 14.8 207 207 207
15.1 -30.2 14.8 207 207 207
15.4 -30.2 14.8 207 207 207
16.6 -31.1 15.2 207 207 207
16.3 -29.9 14.6 207 207 207
16.7 -30.1 14.7 207 207 207
17.5 -30.3 14.8 207 207 207
17.7 -30.0 14.7 207 207 207
18.1 -30.2 14.8 207 207 207
18.7 -30.0 14.7 207 207 207
19.1 -30.1 14.7 207 207 207
19.4 -30.0 14.7 207 207 207
19.6 -29.8 14.6 207 207 207
20.9 -30.2 14.8 207 207 207
21.3 -30.2 14.8 207 207 207
22.3 -31.2 15.3 207 207 207
22.0 -30.2 14.8 207 207 207
38.6 -51.6 25.2 207 207 207
37.6 -49.4 24.2 207 207 207
26.6 -31.2 15.3 203 203 203
26.5 -30.7 15.0 206 206 206
26.4 -30.3 14.8 206 206 206
26.6 -30.0 14.7 209 209 209
26.7 -29.7 14.5 206 206 206
27.1 -29.8 14.6 204 204 204
-42.7 -30.7 15.2 53 52 52
-42.6 -30.9 15.3 55 55 55
-42.3 -30.9 15.3 55 55 55
-42.0 -30.9 15.3 55 55 55
-41.6 -30.9 15.3 55 55 55
-41.2 -30.9 15.3 55 55 55
-40.9 -30.9 15.3 58 59 57
-40.5 -30.9 15.3 58 59 57
-40.1 -30.9 15.3 58 59 57
-39.8 -30.8 15.3 58 59 57
-39.6 -31.0 15.3 58 59 57
-37.5 -31.0 15.4 51 51 51
-37.0 -30.9 15.3 49 48 47
-36.8 -31.0 15.4 49 48 47
-36.3 -30.9 15.3 50 49 48
-35.9 -30.9 15.3 46 46 46
-35.6 -30.9 15.3 47 47 47
-35.2 -30.9 15.3 47 47 47
-34.8 -30.9 15.3 47 47 47
-34.1 -30.9 15.3 47 47 47
-33.9 -31.0 15.3 47 47 47
-32.9 -31.0 15.4 47 47 47
-32.5 -31.1 15.4 44 44 44
-32.0 -30.9 15.3 44 44 44
-31.7 -30.9 15.3 44 44 44
-31.4 -31.0 15.3 47 47 47
-30.9 -30.9 15.3 42 43 42
-30.5 -30.8 15.2 42 43 42
-30.1 -30.8 15.2 42 43 42
-29.9 -30.9 15.3 42 43 42
-29.6 -31.0 15.3 42 42 42
-29.3 -31.1 15.4 42 42 42
-28.8 -30.8 15.3 39 39 39
-28.5 -30.9 15.3 42 42 42
-28.1 -30.9 15.3 43 43 43
-27.8 -30.9 15.3 43 43 43
-27.2 -30.7 15.2 48 48 48
-16.0 -30.9 15.3 24 24 24
-15.5 -30.6 15.1 26 26 26
-15.1 -30.5 15.1 29 30 28
-14.9 -30.8 15.2 25 25 25
-14.7 -31.0 15.3 27 27 27
-14.3 -30.9 15.3 26 26 26
-14.0 -31.0 15.4 27 29 27
-13.2 -30.8 15.2 30 30 30
-12.7 -30.6 15.1 34 34 34
-12.5 -31.0 15.4 33 36 35
-12.1 -30.9 15.3 112 112 112
-11.8 -30.9 15.3 183 183 183
-10.3 -30.8 15.3 215 215 215
-10.0 -30.9 15.3 212 213 212
-9.6 -30.9 15.3 214 214 214
-9.3 -30.9 15.3 215 215 215
-8.9 -30.8 15.2 212 213 212
-8.6 -31.0 15.3 210 210 210
-8.2 -30.9 15.3 210 210 210
-7.9 -30.9 15.3 209 209 209
-7.5 -30.9 15.3 207 207 207
-7.1 -30.9 15.3 206 206 206
-6.8 -30.8 15.2 204 204 204
-6.4 -30.9 15.3 203 203 203
-6.1 -31.0 15.3 203 203 203
-5.7 -30.9 15.3 202 202 202
-5.4 -30.9 15.3 200 200 200
-5.0 -30.9 15.3 200 200 200
-4.7 -30.9 15.3 197 197 197
-4.3 -30.9 15.3 197 197 197
-4.0 -30.9 15.3 197 197 197
-3.6 -30.9 15.3 197 197 197
-3.2 -30.9 15.3 195 195 195
-2.9 -30.9 15.3 194 194 194
-2.5 -30.9 15.3 194 194 194
-2.2 -30.9 15.3 196 196 196
-1.8 -30.9 15.3 196 196 196
-1.5 -30.8 15.3 194 194 194
-0.8 -30.9 15.3 194 194 194
-0.4 -30.7 15.2 191 191 191
-0.0 -30.8 15.2 194 194 194
0.3 -31.0 15.3 191 191 191
0.7 -31.0 15.4 191 191 191
1.0 -30.9 15.3 191 191 191
1.4 -30.9 15.3 188 188 188
1.7 -31.0 15.3 188 188 188
2.1 -31.0 15.4 188 188 188
2.4 -30.9 15.3 185 185 185
2.8 -30.8 15.2 185 185 185
6.4 -31.0 15.4 178 178 178
6.7 -30.9 15.3 173 173 173
7.1 -31.1 15.4 204 204 204
7.4 -31.0 15.4 207 207 207
7.8 -30.9 15.3 207 207 207
8.1 -30.9 15.3 207 207 207
8.5 -30.8 15.3 207 207 207
8.8 -30.8 15.2 207 207 207
9.2 -31.0 15.3 207 207 207
9.6 -31.0 15.4 210 210 210
9.9 -31.0 15.3 210 210 210
10.3 -30.9 15.3 210 210 210
10.6 -30.8 15.2 210 210 210
11.0 -31.0 15.4 210 210 210
11.4 -31.0 15.3 207 207 207
11.7 -31.0 15.3 207 207 207
12.1 -31.0 15.3 207 207 207
12.4 -31.0 15.3 209 209 209
12.7 -30.8 15.3 209 209 209
13.1 -30.9 15.3 209 209 209
13.4 -30.8 15.2 207 207 207
13.8 -30.9 15.3 207 207 207
14.2 -30.9 15.3 209 209 209
14.5 -30.8 15.2 207 207 207
14.8 -30.8 15.2 207 207 207
15.3 -30.9 15.3 207 207 207
15.5 -30.8 15.2 207 207 207
15.9 -30.8 15.3 207 207 207
16.4 -31.0 15.4 207 207 207
16.7 -30.9 15.3 207 207 207
17.0 -30.8 15.3 207 207 207
17.4 -31.0 15.4 207 207 207
17.8 -31.0 15.3 207 207 207
18.1 -30.9 15.3 207 207 207
18.3 -30.6 15.2 207 207 207
18.9 -31.0 15.4 207 207 207
19.2 -31.0 15.3 206 206 206
19.5 -30.9 15.3 206 206 206
19.9 -31.0 15.4 206 206 206
20.0 -30.6 15.1 206 206 206
20.7 -31.1 15.4 206 206 206
21.0 -31.0 15.4 206 206 206
21.4 -31.0 15.3 206 206 206
21.6 -30.9 15.3 206 206 206
22.1 -31.0 15.4 206 206 206
22.4 -31.0 15.3 206 206 206
22.6 -30.8 15.2 206 206 206
24.3 -31.1 15.4 207 207 207
25.9 -30.9 15.3 207 207 207
26.4 -31.1 15.4 207 207 207
26.6 -30.9 15.3 205 205 205
26.5 -30.4 15.0 205 205 205
26.8 -30.3 15.0 205 205 205
27.2 -30.4 15.0 206 206 206
28.2 -31.1 15.4 206 206 206
28.5 -31.0 15.4 206 206 206
-43.7 -31.0 15.5 53 53 53
-43.8 -31.3 15.7 53 53 53
-43.4 -31.3 15.7 52 52 52
-43.0 -31.3 15.7 53 53 53
-42.7 -31.3 15.7 58 59 57
-42.3 -31.3 15.7 58 59 57
-41.9 -31.3 15.7 59 60 58
-41.5 -31.3 15.6 56 56 56
-41.1 -31.3 15.6 59 60 58
-40.7 -31.2 15.6 59 60 58
-38.3 -31.3 15.7 52 52 52
-38.0 -31.3 15.7 52 52 52
-37.6 -31.4 15.7 50 49 48
-37.2 -31.3 15.7 51 50 48
-36.8 -31.3 15.7 47 47 47
-36.5 -31.3 15.7 47 48 47
-36.1 -31.3 15.7 47 48 47
-36.2 -31.7 15.9 47 48 47
-35.4 -31.3 15.7 47 48 47
-35.0 -31.3 15.7 47 48 47
-34.8 -31.4 15.7 47 48 47
-34.3 -31.4 15.7 47 48 47
-33.9 -31.3 15.7 47 48 47
-33.7 -31.4 15.7 47 48 47
-33.4 -31.5 15.8 47 48 47
-33.3 -31.7 15.9 47 48 47
-32.6 -31.4 15.7 48 48 48
-32.2 -31.4 15.7 48 48 48
-32.0 -31.6 15.8 46 46 46
-30.2 -31.6 15.8 42 43 42
-29.5 -31.2 15.6 40 40 40
-28.4 -31.2 15.6 43 43 43
-16.9 -31.5 15.8 26 26 26
-16.4 -31.2 15.6 26 26 26
-15.8 -30.8 15.4 25 25 25
-15.4 -30.8 15.4 26 26 26
-15.6 -31.9 16.0 27 27 27
-15.0 -31.4 15.7 29 30 28
-14.7 -31.4 15.7 29 30 28
-13.0 -31.8 15.9 35 35 35
-12.5 -31.4 15.7 146 146 146
-12.3 -31.8 15.9 177 180 179
-10.7 -31.5 15.8 219 222 221
-9.6 -31.6 15.8 218 221 220
-9.2 -31.5 15.8 217 220 219
-7.4 -31.6 15.8 212 213 212
-6.9 -31.1 15.6 210 210 210
-6.3 -31.8 15.9 208 208 208
-5.9 -31.4 15.7 207 207 207
-5.6 -31.6 15.8 205 205 205
-2.2 -31.5 15.8 195 195 195
-1.9 -31.2 15.6 198 198 198
-1.2 -31.8 15.9 198 198 198
-0.8 -31.5 15.8 195 195 195
0.7 -31.6 15.8 193 193 193
1.4 -31.6 15.8 190 190 190
6.3 -31.8 15.9 181 181 181
6.5 -31.4 15.7 178 178 178
7.3 -31.6 15.8 207 207 207
7.7 -31.6 15.8 207 207 207
8.4 -31.6 15.8 209 209 209
8.8 -31.6 15.8 209 209 209
9.2 -31.8 15.9 209 209 209
9.6 -31.9 15.9 209 209 209
9.8 -31.5 15.8 209 209 209
10.3 -31.6 15.8 209 209 209
10.5 -31.1 15.6 209 209 209
11.1 -31.9 15.9 209 209 209
11.5 -31.9 16.0 209 209 209
11.7 -31.4 15.7 209 209 209
12.0 -31.5 15.8 204 204 204
12.3 -31.3 15.7 207 207 207
12.6 -31.2 15.6 209 209 209
13.0 -31.1 15.5 209 209 209
13.4 -31.2 15.6 209 209 209
13.8 -31.4 15.7 209 209 209
14.2 -31.4 15.7 209 209 209
14.5 -31.2 15.6 209 209 209
14.9 -31.2 15.6 206 206 206
15.6 -31.3 15.7 206 206 206
16.0 -31.4 15.7 206 206 206
16.5 -31.5 15.8 206 206 206
16.8 -31.5 15.8 206 206 206
17.0 -31.1 15.6 206 206 206
17.6 -31.6 15.8 209 209 209
17.8 -31.4 15.7 209 209 209
18.2 -31.3 15.7 209 209 209
18.4 -31.1 15.5 206 206 206
19.2 -31.8 15.9 206 206 206
19.6 -31.8 15.9 206 206 206
19.6 -31.2 15.6 206 206 206
20.0 -31.3 15.7 206 206 206
20.3 -31.2 15.6 206 206 206
21.5 -31.9 16.0 206 206 206
21.5 -31.4 15.7 206 206 206
21.9 -31.4 15.7 206 206 206
22.2 -31.4 15.7 206 206 206
22.7 -31.5 15.8 206 206 206
22.8 -31.1 15.6 206 206 206
23.1 -31.1 15.6 206 206 206
23.7 -31.4 15.7 206 206 206
24.4 -31.8 15.9 206 206 206
24.5 -31.5 15.8 206 206 206
24.7 -31.2 15.6 206 206 206
26.6 -31.4 15.7 207 207 207
26.8 -31.1 15.6 207 207 207
26.8 -30.8 15.4 207 207 207
26.8 -30.4 15.2 205 205 205
27.2 -30.4 15.2 205 205 205
28.2 -31.1 15.6 205 205 205
28.9 -31.5 15.8 205 205 205
29.1 -31.3 15.7 205 205 205
29.2 -31.0 15.5 206 206 206
531.1 -343.5 172.0 185 185 185
1244.6 -787.3 394.1 183 183 183
1074.6 -674.8 337.8 177 180 179
-45.1 -31.6 16.0 56 56 56
-39.1 -31.6 16.0 55 55 55
-36.9 -31.6 16.0 48 48 48
-34.5 -31.8 16.1 48 48 48
-34.0 -31.7 16.1 48 48 48
-33.4 -31.9 16.1 49 49 49
-32.9 -31.7 16.1 49 49 49
-32.5 -31.7 16.1 47 47 47
-30.6 -31.7 16.0 41 41 41
-17.3 -31.8 16.1 27 27 27
-16.8 -31.5 16.0 27 27 27
-17.5 -34.5 17.5 28 28 28
-17.2 -34.6 17.5 29 31 29
11.6 -31.9 16.1 209 209 209
11.9 -31.7 16.1 209 209 209
12.2 -31.7 16.0 206 206 206
12.6 -31.6 16.0 209 209 209
17.1 -31.7 16.1 206 206 206
17.5 -31.7 16.0 206 206 206
18.3 -31.8 16.1 208 208 208
18.6 -31.7 16.1 208 208 208
19.9 -31.9 16.2 206 206 206
20.2 -31.8 16.1 206 206 206
22.3 -31.6 16.0 205 205 205
23.1 -31.7 16.1 208 208 208
23.4 -31.6 16.0 205 205 205
25.1 -31.8 16.1 205 205 205
25.2 -31.6 16.0 206 206 206
47.3 -55.2 27.9 206 206 206
48.0 -55.2 27.9 206 206 206
26.7 -30.3 15.4 207 207 207
29.3 -31.6 16.0 205 205 205
29.6 -31.5 15.9 205 205 205
-34.3 -23.8 12.2 59 61 59
-31.1 -24.0 12.3 58 58 58
-30.7 -23.8 12.2 58 58 58
-30.4 -23.8 12.2 55 55 55
-30.1 -23.8 12.2 56 56 56
-27.7 -23.9 12.3 52 52 50
-27.3 -23.8 12.2 49 49 49
-27.0 -23.8 12.2 49 49 49
-26.7 -23.8 12.2 52 52 50
-26.6 -23.9 12.3 49 49 49
-26.2 -23.9 12.2 49 49 49
-25.8 -23.8 12.2 50 50 50
-21.9 -23.8 12.2 41 41 39
-21.1 -23.9 12.3 42 42 40
-20.9 -24.0 12.3 42 42 40
-20.4 -23.8 12.2 43 42 41
-19.6 -23.8 12.2 41 41 41
-19.2 -23.6 12.1 36 36 36
-17.4 -24.3 12.4 20 20 20
-16.6 -23.6 12.1 20 20 20
-13.6 -24.8 12.7 30 31 30
-10.7 -23.6 12.1 31 30 29
-11.0 -24.8 12.7 33 33 33
-10.6 -24.7 12.7 35 37 36
9.3 -23.8 12.2 208 208 208
9.6 -23.9 12.2 208 208 208
11.1 -23.9 12.2 208 208 208
11.3 -23.8 12.2 208 208 208
16.9 -24.0 12.3 208 208 208
17.0 -23.8 12.2 205 205 205
17.3 -23.9 12.2 202 202 202
45.9 -53.6 27.5 206 206 206
47.4 -54.6 28.0 206 206 206
48.0 -54.6 28.0 206 206 206
27.0 -30.3 15.5 206 206 206
29.0 -30.9 15.8 204 204 204
-35.6 -24.4 12.7 59 61 59
-35.5 -24.5 12.7 63 63 63
-35.2 -24.5 12.7 63 63 63
-34.9 -24.5 12.7 60 62 60
-34.6 -24.5 12.7 60 62 60
-34.3 -24.5 12.7 63 63 63
-34.0 -24.5 12.7 63 63 63
-33.7 -24.5 12.7 60 62 60
-33.4 -24.5 12.7 60 62 60
-33.1 -24.5 12.7 60 62 60
-32.8 -24.5 12.7 60 62 60
-32.5 -24.5 12.7 60 62 60
-32.2 -24.5 12.7 58 59 59
-31.9 -24.5 12.7 58 59 59
-31.6 -24.4 12.7 56 56 56
-31.4 -24.5 12.7 57 57 57
-31.1 -24.5 12.7 57 57 57
-30.8 -24.5 12.7 54 54 54
-30.5 -24.5 12.7 54 54 54
-30.2 -24.5 12.7 52 52 50
-29.9 -24.5 12.7 53 52 51
-29.6 -24.5 12.7 53 52 51
-29.3 -24.5 12.7 53 52 51
-29.0 -24.5 12.7 53 52 51
-28.7 -24.5 12.7 53 52 51
-28.4 -24.5 12.7 50 50 50
-28.1 -24.5 12.7 53 52 51
-27.7 -24.4 12.7 50 50 50
-27.5 -24.5 12.7 50 50 50
-27.2 -24.5 12.7 51 51 51
-26.9 -24.5 12.7 51 51 51
-26.6 -24.5 12.7 51 51 51
-26.3 -24.5 12.7 51 51 51
-26.0 -24.5 12.7 51 51 51
-25.7 -24.5 12.7 49 49 49
-25.4 -24.5 12.7 47 47 47
-25.1 -24.5 12.7 47 47 47
-24.9 -24.5 12.7 45 45 45
-24.5 -24.5 12.7 42 43 42
-24.0 -24.6 12.7 43 43 43
-23.7 -24.5 12.7 43 43 43
-23.4 -24.5 12.7 43 43 43
-23.1 -24.5 12.7 43 43 43
-22.8 -24.5 12.7 43 42 41
-22.6 -24.6 12.7 44 44 44
-22.2 -24.5 12.7 43 42 41
-21.8 -24.4 12.7 43 42 41
-21.4 -24.3 12.6 41 41 41
-21.4 -24.6 12.7 40 42 42
-21.0 -24.5 12.7 40 42 42
-20.6 -24.3 12.6 40 42 42
-20.4 -24.4 12.7 40 40 40
-17.7 -24.4 12.7 21 21 21
-13.7 -24.6 12.7 28 28 28
-13.3 -24.5 12.7 30 29 29
-13.1 -24.5 12.7 30 31 30
-12.5 -24.7 12.8 30 31 30
-12.2 -24.5 12.7 29 31 29
-11.3 -24.7 12.8 32 31 30
-11.0 -24.6 12.8 32 32 32
-10.7 -24.5 12.7 36 36 36
-10.3 -24.4 12.7 44 44 44
17.3 -24.4 12.7 207 207 207
16.0 -22.1 11.5 209 209 209
16.1 -22.0 11.4 207 207 207
46.3 -53.5 27.7 205 205 205
47.7 -54.3 28.1 205 205 205
48.3 -54.3 28.1 205 205 205
29.2 -30.7 15.9 204 204 204
41.9 -22.2 11.5 157 157 157
-36.1 -24.4 12.8 64 64 64
-35.9 -24.5 12.9 60 62 60
-35.6 -24.5 12.8 58 59 59
-35.3 -24.5 12.8 61 63 61
-35.0 -24.5 12.8 61 63 61
-34.7 -24.5 12.8 64 64 64
-34.4 -24.5 12.8 64 64 64
-34.1 -24.5 12.8 64 64 64
-33.8 -24.5 12.8 61 63 61
-33.5 -24.5 12.8 61 63 61
-33.2 -24.5 12.8 61 63 61
-32.9 -24.5 12.8 61 63 61
-32.6 -24.5 12.8 61 63 61
-32.3 -24.4 12.8 59 59 59
-32.0 -24.4 12.8 57 57 57
-31.7 -24.4 12.8 57 57 57
-31.4 -24.4 12.8 58 58 58
-31.1 -24.4 12.8 55 55 55
-30.8 -24.4 12.8 53 52 51
-30.5 -24.5 12.9 53 52 51
-30.2 -24.5 12.9 54 53 52
-29.9 -24.5 12.8 51 51 51
-29.6 -24.5 12.9 56 56 56
-29.3 -24.5 12.8 51 51 51
-29.0 -24.5 12.8 54 53 52
-28.7 -24.5 12.8 54 53 52
-28.4 -24.4 12.8 54 53 52
-28.1 -24.4 12.8 54 53 52
-27.8 -24.4 12.8 52 52 52
-27.5 -24.4 12.8 57 57 57
-27.2 -24.5 12.8 55 54 53
-26.9 -24.5 12.9 55 54 53
-26.6 -24.4 12.8 52 52 52
-26.3 -24.5 12.9 52 52 52
-26.0 -24.5 12.9 50 50 50
-25.7 -24.5 12.8 50 50 50
-25.4 -24.5 12.9 47 48 47
-25.1 -24.5 12.9 46 46 46
-24.8 -24.5 12.8 46 46 46
-24.5 -24.5 12.9 47 47 47
-24.2 -24.5 12.9 44 44 44
-23.9 -24.4 12.8 44 44 44
-23.6 -24.4 12.8 44 44 44
-23.3 -24.5 12.9 45 45 45
-23.1 -24.5 12.9 45 45 45
-22.8 -24.5 12.9 45 45 45
-22.4 -24.4 12.8 44 43 42
-22.1 -24.4 12.8 45 44 43
-21.8 -24.4 12.8 42 43 42
-21.6 -24.5 12.9 41 43 42
-21.2 -24.5 12.8 41 43 42
-20.8 -24.4 12.8 41 43 42
-20.6 -24.4 12.8 37 38 37
-17.8 -24.3 12.7 20 20 20
-13.5 -24.5 12.8 30 29 29
-13.2 -24.5 12.9 28 28 28
-13.0 -24.6 12.9 28 28 28
-12.6 -24.5 12.9 29 29 29
-12.3 -24.4 12.8 30 31 30
-12.0 -24.4 12.8 34 34 34
-11.5 -24.7 13.0 36 37 36
-11.1 -24.5 12.9 35 35 35
-10.8 -24.4 12.8 36 36 36
-10.4 -24.3 12.7 47 48 47
15.8 -21.7 11.4 207 207 207
16.0 -21.5 11.3 207 207 207
16.3 -21.6 11.4 207 207 207
46.9 -53.5 28.1 205 205 205
47.6 -53.5 28.1 205 205 205
48.3 -53.6 28.1 205 205 205
27.1 -29.6 15.5 205 205 205
29.0 -30.2 15.8 206 206 206
30.7 -29.6 15.6 204 204 204
-36.6 -24.4 13.0 64 64 64
-36.3 -24.4 13.0 65 65 65
-35.9 -24.4 13.0 65 65 65
-35.6 -24.4 13.0 61 63 61
-35.3 -24.4 13.0 61 63 61
-35.0 -24.4 13.0 65 65 65
-34.8 -24.4 13.0 65 65 65
-34.4 -24.4 13.0 65 65 65
-34.1 -24.4 13.0 65 65 65
-33.9 -24.4 13.0 65 65 65
-33.6 -24.4 13.0 65 65 65
-33.2 -24.4 13.0 66 66 66
-32.9 -24.4 13.0 66 66 66
-30.5 -24.4 13.0 55 54 53
-30.2 -24.4 13.0 55 54 53
-29.9 -24.4 13.0 57 57 57
-29.6 -24.4 13.0 57 57 57
-29.3 -24.4 13.0 59 59 59
-29.0 -24.4 13.0 57 57 57
-28.7 -24.4 13.0 55 54 53
-28.4 -24.4 13.0 56 55 54
-27.2 -24.4 13.0 56 55 54
-26.4 -24.5 13.0 51 51 51
-26.0 -24.4 13.0 51 51 51
-25.8 -24.5 13.0 51 51 51
-25.4 -24.4 13.0 53 53 53
-25.1 -24.4 13.0 52 52 52
-24.9 -24.5 13.0 49 49 49
-24.5 -24.5 13.0 47 48 47
-23.6 -24.5 13.0 46 46 46
-23.4 -24.5 13.0 46 46 46
-23.1 -24.5 13.0 46 46 46
-22.6 -24.4 13.0 45 44 43
-22.6 -24.6 13.1 42 43 42
-22.2 -24.6 13.1 43 43 43
-21.8 -24.4 13.0 42 44 43
-21.4 -24.3 12.9 42 44 43
-13.1 -24.6 13.1 36 37 36
-12.7 -24.4 13.0 33 33 31
-12.3 -24.2 12.9 36 37 36
-11.6 -24.7 13.1 57 57 57
-11.2 -24.5 13.0 72 71 69
-10.8 -24.3 12.9 36 37 36
-10.4 -24.0 12.7 46 46 46
47.1 -53.0 28.2 207 207 207
47.6 -52.9 28.1 207 207 207
48.3 -52.9 28.1 204 204 204
28.1 -26.8 14.3 206 206 206
28.7 -27.0 14.4 204 204 204
29.5 -27.5 14.6 204 204 204
-12.3 -23.9 12.9 61 61 61
-11.2 -24.1 13.0 91 94 93
-10.8 -24.0 12.9 25 25 25
-10.4 -23.8 12.8 45 45 45
-10.2 -23.9 12.9 179 179 179
47.8 -53.2 28.6 206 206 206
47.7 -52.3 28.1 206 206 206
48.0 -52.0 28.0 207 207 207
28.1 -26.4 14.2 205 205 205
28.4 -26.4 14.2 205 205 205
29.6 -27.2 14.7 203 203 203
29.7 -27.0 14.6 203 203 203
238.5 -137.3 73.9 181 181 181
-11.6 -24.1 13.1 53 52 52
-11.2 -23.9 13.0 83 83 83
-10.9 -23.8 13.0 29 31 29
-10.5 -23.6 12.9 52 54 52
-10.2 -23.7 12.9 183 186 185
48.3 -53.1 28.9 206 206 206
48.1 -52.1 28.4 206 206 206
48.0 -51.3 27.9 206 206 206
28.1 -26.1 14.2 205 205 205
28.2 -26.0 14.1 205 205 205
29.9 -27.1 14.8 205 205 205
29.7 -26.7 14.6 203 203 203
29.2 -25.9 14.1 169 169 169
-11.8 -24.0 13.3 87 86 84
-11.3 -23.8 13.1 62 64 61
-10.4 -23.7 13.1 182 185 184
48.9 -52.3 28.9 205 205 205
48.3 -51.0 28.1 206 206 206
51.8 -53.9 29.7 206 206 206
28.2 -25.9 14.3 204 204 204
28.4 -25.8 14.2 204 204 204
37.8 -18.8 10.4 160 163 162
37.8 -18.7 10.3 156 156 156
-11.9 -24.0 13.4 40 42 42
-10.6 -23.8 13.3 182 185 184
7.0 -17.9 10.0 208 208 208
9.1 -17.9 10.0 208 208 208
9.8 -17.9 10.0 205 205 205
12.3 -17.9 10.0 207 207 207
12.6 -18.0 10.1 207 207 207
12.8 -17.9 10.0 204 204 204
14.6 -17.9 10.0 207 207 207
15.3 -17.9 10.0 207 207 207
45.9 -45.9 25.7 205 205 205
37.7 -18.6 10.4 162 165 164
38.1 -18.7 10.4 159 162 161
38.1 -18.6 10.4 156 156 156
-10.7 -24.6 13.9 179 182 181
48.6 -48.7 27.6 205 205 205
46.2 -45.6 25.8 205 205 205
-11.3 -24.9 14.3 180 183 182
-10.9 -24.7 14.2 179 182 181
-10.5 -24.5 14.1 177 180 179
53.5 -54.3 31.2 207 207 207
52.2 -52.2 30.0 207 207 207
46.2 -45.0 25.8 207 207 207
-11.4 -24.6 14.3 181 184 183
-10.9 -24.4 14.2 178 181 180
-5.5 -17.5 10.2 216 216 216
54.8 -54.8 31.9 207 207 207
51.8 -51.2 29.8 204 204 204
-11.0 -24.2 14.2 180 183 182
-5.5 -17.3 10.2 203 203 203
52.8 -51.4 30.3 207 207 207
45.1 -41.2 24.3 207 207 207
-11.7 -26.3 15.7 180 183 182
13.1 -17.8 10.7 207 210 209
15.9 -18.1 10.9 206 209 208
15.9 -17.9 10.7 206 209 208
47.2 -43.1 25.8 207 207 207
45.4 -40.9 24.4 208 211 210
-11.7 -25.8 15.6 181 184 183
-11.2 -25.6 15.5 176 176 176
-1.3 -17.8 10.8 195 195 195
-1.0 -17.8 10.8 195 195 195
-0.8 -17.8 10.8 195 195 195
-0.5 -17.8 10.8 195 195 195
-0.3 -17.8 10.8 196 196 196
-0.0 -17.8 10.8 196 196 196
2.7 -17.7 10.8 189 189 189
3.2 -17.9 10.8 170 171 170
3.5 -17.8 10.8 184 184 184
9.2 -17.7 10.7 208 211 210
9.5 -17.7 10.7 212 214 214
9.7 -17.8 10.8 212 214 214
11.2 -17.8 10.8 207 210 209
13.0 -17.8 10.8 207 210 209
13.2 -17.7 10.7 207 210 209
13.7 -17.7 10.7 206 209 208
13.8 -17.5 10.6 206 209 208
15.1 -17.9 10.8 206 209 208
15.3 -17.8 10.8 206 209 208
15.9 -17.9 10.9 206 209 208
15.9 -17.7 10.7 206 209 208
47.7 -42.9 26.0 208 211 210
47.6 -42.3 25.6 210 213 212
50.9 -42.6 25.8 207 207 207
56.7 -26.0 15.8 173 173 173
56.8 -25.8 15.7 173 173 173
-11.7 -25.5 15.7 182 185 184
-11.3 -25.4 15.6 179 179 179
16.0 -17.5 10.8 205 208 207
51.9 -46.6 28.7 207 210 209
48.5 -43.0 26.5 207 210 209
48.0 -42.0 25.8 208 211 210
48.5 -42.0 25.8 208 211 210
49.1 -42.0 25.8 208 211 210
52.6 -43.4 26.7 208 211 210
52.7 -42.9 26.4 209 212 211
57.4 -25.9 15.9 178 178 178
56.8 -25.5 15.7 175 175 175
-13.0 -26.4 16.4 188 190 190
-12.6 -26.3 16.4 186 188 187
-11.9 -25.6 16.0 184 187 186
51.7 -45.8 28.6 207 210 209
49.3 -43.1 26.9 207 210 209
48.8 -42.2 26.3 207 210 209
49.3 -42.0 26.2 207 210 209
49.9 -42.0 26.2 208 211 210
53.0 -43.1 26.9 208 211 210
53.3 -42.8 26.7 208 211 210
59.5 -26.6 16.6 179 179 179
58.0 -25.8 16.1 179 179 179
57.4 -25.4 15.8 176 176 176
-29.2 -16.4 10.4 53 52 52
-26.3 -16.4 10.4 27 27 27
-26.1 -16.4 10.4 53 52 52
-25.9 -16.4 10.4 105 105 105
-25.6 -16.4 10.4 156 156 156
-25.4 -16.4 10.4 156 156 156
-25.1 -16.4 10.4 58 58 56
-24.9 -16.4 10.4 63 63 63
-24.7 -16.4 10.4 75 76 76
-24.1 -16.4 10.4 70 70 70
-15.5 -16.4 10.4 23 26 24
-10.7 -16.4 10.4 29 29 29
-12.1 -26.4 16.7 178 178 178
-11.9 -26.8 17.0 166 166 166
50.2 -42.7 27.0 207 210 209
50.8 -42.1 26.7 207 210 209
54.2 -43.4 27.5 208 211 210
54.2 -42.9 27.2 208 211 210
57.7 -25.2 15.9 177 177 177
-11.9 -26.5 17.0 169 169 169
50.2 -41.1 26.4 207 210 209
52.6 -42.5 27.3 207 210 209
53.8 -41.9 26.9 208 211 210
53.9 -41.5 26.7 208 211 210
60.5 -25.7 16.5 162 162 162
-12.1 -26.6 17.3 174 176 176
53.3 -40.5 26.4 208 211 210
60.7 -25.5 16.6 170 172 172
60.4 -25.2 16.5 162 162 162
60.8 -25.2 16.5 157 157 157
-29.9 -17.8 11.8 35 35 35
-29.0 -17.7 11.7 39 41 41
-28.9 -17.8 11.8 35 35 35
-28.6 -17.8 11.8 39 39 39
-28.4 -17.9 11.9 48 48 48
-28.1 -17.9 11.8 50 50 50
-27.3 -17.9 11.8 30 31 30
-26.9 -17.8 11.8 34 34 34
-21.3 -17.9 11.9 63 63 63
-14.1 -17.9 11.8 33 34 32
-13.0 -27.2 18.0 176 179 178
-12.6 -27.1 18.0 175 177 177
122.9 -95.2 63.1 210 213 212
116.6 -89.2 59.1 207 210 209
60.8 -25.2 16.7 170 171 170
60.3 -24.8 16.4 159 162 161
60.7 -24.8 16.4 156 156 156
-54.0 -28.5 19.2 64 65 63
-29.7 -17.6 11.8 26 26 26
-29.3 -17.5 11.8 26 26 26
-27.3 -16.4 11.1 26 26 26
-44.1 -28.5 19.1 46 46 46
-42.2 -28.3 19.1 150 150 150
-41.8 -28.4 19.1 15 15 15
-41.3 -28.4 19.1 30 31 30
-41.1 -28.5 19.2 19 23 20
-40.6 -28.5 19.1 30 31 30
-40.1 -28.5 19.2 40 40 40
-39.7 -28.5 19.2 47 48 47
-39.3 -28.5 19.2 54 54 54
-38.6 -28.7 19.3 66 66 66
-37.7 -28.3 19.1 67 69 67
-36.7 -27.9 18.8 71 71 71
-13.3 -27.4 18.4 178 181 180
-12.9 -27.3 18.4 177 180 179
123.7 -94.3 63.5 209 212 211
121.2 -91.3 61.4 210 213 212
107.3 -79.9 53.7 210 213 212
61.6 -25.1 16.9 168 168 168
60.8 -24.6 16.6 160 160 160
-54.6 -28.4 19.4 58 58 58
-54.1 -28.4 19.4 67 67 67
-53.7 -28.4 19.4 75 75 75
-53.2 -28.4 19.4 77 77 77
-52.8 -28.4 19.4 43 42 41
-52.3 -28.4 19.4 128 131 130
-51.6 -28.5 19.5 10 15 11
-51.1 -28.4 19.4 10 15 11
-50.6 -28.4 19.4 26 26 26
-50.2 -28.4 19.4 27 27 27
-49.8 -28.4 19.4 36 37 36
-49.3 -28.4 19.4 26 26 26
-48.9 -28.5 19.5 19 23 20
-48.4 -28.4 19.4 20 23 21
-48.0 -28.5 19.5 33 32 30
-47.4 -28.4 19.4 19 23 20
-46.9 -28.4 19.4 35 35 35
-46.5 -28.4 19.4 54 54 54
-46.1 -28.4 19.4 70 72 69
-45.7 -28.4 19.4 74 74 74
-45.3 -28.5 19.5 68 68 68
-44.6 -28.3 19.4 50 50 50
-44.1 -28.3 19.3 59 59 59
-43.9 -28.7 19.6 125 125 125
-42.7 -28.3 19.3 89 91 90
-42.3 -28.3 19.3 137 137 137
-42.0 -28.4 19.4 179 182 181
-41.5 -28.3 19.4 60 60 60
-41.1 -28.4 19.4 34 34 34
-40.6 -28.4 19.4 15 15 15
-40.2 -28.4 19.4 15 15 15
-39.7 -28.3 19.4 7 13 9
-37.9 -28.4 19.4 66 66 66
-36.3 -28.5 19.5 75 75 75
-35.6 -28.3 19.4 75 75 75
-35.2 -28.4 19.4 71 71 71
-34.8 -28.4 19.4 67 69 67
-34.4 -28.4 19.4 71 71 71
-33.0 -28.4 19.4 140 142 141
-32.5 -28.4 19.4 186 186 186
-31.1 -28.3 19.4 36 37 36
-30.7 -28.4 19.4 36 37 36
-30.2 -28.3 19.4 30 29 29
-29.8 -28.4 19.4 28 28 28
-29.3 -28.4 19.4 20 23 21
-29.0 -28.5 19.5 25 25 25
-28.4 -28.3 19.4 32 33 31
-28.0 -28.3 19.4 28 28 28
-27.6 -28.4 19.4 28 28 28
-27.1 -28.4 19.4 22 25 23
-26.6 -28.4 19.4 29 29 29
-26.2 -28.4 19.4 29 29 29
-25.8 -28.4 19.4 91 93 92
-25.4 -28.4 19.4 140 142 141
-24.8 -28.4 19.4 141 143 142
-24.4 -28.4 19.4 54 54 54
-24.0 -28.5 19.5 37 38 37
-24.4 -29.5 20.1 66 66 66
-23.2 -28.6 19.6 110 110 110
-22.6 -28.4 19.4 132 135 134
-22.0 -28.2 19.3 25 25 25
-14.2 -27.9 19.1 185 185 185
62.8 -25.2 17.2 168 168 168
61.9 -24.7 16.9 162 162 162
61.7 -24.4 16.7 156 156 156
-55.1 -28.2 19.6 34 34 34
-54.7 -28.2 19.6 47 47 47
-54.2 -28.2 19.6 81 83 80
-53.8 -28.2 19.6 89 89 89
-53.3 -28.2 19.6 151 153 153
-52.9 -28.2 19.6 53 53 53
-52.6 -28.3 19.6 29 31 29
-52.0 -28.2 19.6 20 23 21
-51.4 -28.2 19.6 24 24 24
-51.0 -28.2 19.6 29 31 29
-50.7 -28.3 19.6 36 37 36
-50.1 -28.2 19.6 53 53 53
-49.7 -28.2 19.6 161 161 161
-49.3 -28.2 19.6 144 144 144
-48.7 -28.2 19.6 49 49 49
-48.4 -28.3 19.6 156 159 158
-48.0 -28.3 19.6 179 182 181
-47.4 -28.2 19.6 178 181 180
-46.9 -28.2 19.6 126 126 126
-46.5 -28.2 19.6 81 83 80
-46.0 -28.2 19.6 77 77 77
-45.6 -28.2 19.6 81 83 80
-45.0 -28.1 19.5 128 128 128
-44.5 -28.1 19.5 179 182 181
-44.6 -28.5 19.8 180 183 182
-44.0 -28.4 19.7 188 190 190
-43.0 -28.0 19.4 189 191 191
-42.4 -28.2 19.6 212 213 212
-41.9 -28.2 19.6 192 192 192
-41.6 -28.3 19.6 201 203 203
-41.1 -28.3 19.6 206 209 208
-40.5 -28.2 19.6 206 206 206
-40.1 -28.2 19.6 168 170 169
-39.4 -28.3 19.7 160 163 162
-38.9 -28.3 19.7 144 146 146
-38.4 -28.3 19.6 158 161 160
-38.0 -28.3 19.6 209 209 209
-37.5 -28.3 19.6 211 211 211
-37.0 -28.3 19.6 181 181 181
-36.5 -28.2 19.6 186 186 186
-35.8 -28.0 19.4 200 202 202
-35.0 -28.1 19.5 180 183 182
-34.7 -28.3 19.6 121 123 122
-34.3 -28.3 19.6 153 153 153
-33.9 -28.3 19.7 182 185 184
-33.3 -28.2 19.6 197 200 199
-32.7 -28.1 19.5 180 179 177
-32.4 -28.3 19.6 221 221 221
-32.1 -28.3 19.7 210 210 210
-31.2 -28.0 19.4 209 209 209
-30.8 -28.0 19.5 138 138 138
-30.6 -28.2 19.6 45 45 45
-30.2 -28.3 19.6 56 56 56
-29.6 -28.2 19.6 71 71 71
-29.3 -28.3 19.6 88 89 87
-28.7 -28.2 19.6 90 92 91
-28.3 -28.2 19.6 109 109 107
-27.9 -28.2 19.6 96 96 96
-27.4 -28.2 19.6 25 25 25
-26.9 -28.2 19.6 43 43 43
-26.5 -28.2 19.6 90 92 91
-26.0 -28.2 19.6 22 25 23
-25.5 -28.2 19.6 22 25 23
-25.1 -28.2 19.6 47 47 47
-24.6 -28.2 19.6 102 101 99
-24.4 -28.5 19.8 43 43 43
-24.0 -28.5 19.8 78 80 78
-23.5 -28.4 19.7 21 24 22
-22.8 -28.2 19.6 116 116 116
-22.2 -28.0 19.4 64 64 64
-14.3 -27.5 19.1 194 197 196
66.9 -26.6 18.5 174 176 176
64.0 -25.3 17.6 167 167 167
63.3 -24.8 17.2 161 161 161
63.0 -24.6 17.1 156 156 156
-55.7 -28.0 19.8 25 25 25
-47.0 -28.0 19.8 147 147 147
-44.7 -28.3 20.0 159 162 161
-24.3 -28.4 20.1 73 73 73
-23.7 -28.3 20.0 31 32 30
134.3 -105.1 74.2 207 210 209
131.0 -100.0 70.6 208 211 210
64.6 -25.1 17.7 164 164 164
63.6 -24.6 17.3 161 161 161
63.0 -24.2 17.1 156 156 156
63.5 -24.2 17.1 151 151 151
165.7 -129.2 92.7 207 210 209
154.2 -118.7 85.2 207 210 209
145.1 -110.3 79.1 207 210 209
143.9 -108.0 77.5 207 210 209
158.0 -117.1 84.1 208 211 210
75.9 -49.5 35.6 196 196 196
73.8 -47.7 34.2 196 196 196
33.5 -20.3 14.6 197 197 197
33.6 -20.2 14.5 197 197 197
33.5 -19.9 14.3 198 198 198
79.4 -31.1 22.3 189 189 189
65.1 -24.9 17.8 164 164 164
63.5 -24.1 17.3 157 157 157
62.7 -23.7 17.0 153 153 153
63.0 -23.6 17.0 150 150 150
64.2 -23.9 17.2 143 145 144
-20.3 -16.9 12.3 225 225 225
178.8 -137.1 100.1 211 211 211
174.7 -132.2 96.5 206 209 208
162.1 -121.1 88.4 207 210 209
156.8 -115.7 84.4 211 211 211
208.1 -149.8 109.3 212 213 212
72.0 -47.2 34.5 180 180 180
74.9 -47.6 34.7 196 196 196
34.0 -20.1 14.7 198 198 198
34.1 -19.9 14.5 200 200 200
80.5 -31.0 22.7 190 190 190
80.6 -30.9 22.5 186 186 186
63.2 -23.5 17.1 154 154 154
63.5 -23.4 17.1 141 141 141
64.3 -23.6 17.2 130 130 130
64.9 -23.6 17.3 131 134 133
-20.4 -16.6 12.3 203 203 203
-23.2 -19.2 14.2 205 208 207
-21.4 -19.3 14.4 47 48 47
-19.9 -19.2 14.2 115 117 116
-17.5 -17.2 12.7 41 41 41
-17.2 -17.2 12.7 46 46 44
192.0 -144.8 107.5 210 210 210
189.2 -140.8 104.5 211 211 211
167.5 -123.1 91.4 211 211 211
161.1 -116.9 86.8 211 211 211
223.6 -160.2 119.0 211 211 211
220.8 -156.3 116.1 212 213 212
77.0 -48.1 35.7 196 196 196
34.2 -19.8 14.7 195 195 195
34.2 -19.7 14.6 200 200 200
81.1 -30.7 22.8 188 188 188
82.0 -30.9 22.9 188 188 188
83.2 -31.1 23.1 179 179 179
64.4 -23.3 17.3 134 137 136
65.1 -23.5 17.4 134 137 136
65.4 -23.4 17.4 134 137 136
-40.1 -18.9 14.2 71 71 71
-39.8 -18.9 14.3 71 71 71
-39.5 -18.9 14.3 32 31 30
-39.1 -18.9 14.3 26 26 26
-38.8 -18.9 14.3 20 23 21
-38.5 -18.9 14.3 24 24 24
-38.1 -18.9 14.3 26 26 26
-37.8 -18.9 14.3 36 37 36
-37.5 -18.9 14.3 79 81 79
-37.2 -18.9 14.3 157 157 157
-36.8 -18.9 14.3 115 114 114
-35.5 -18.9 14.3 203 203 203
-35.2 -18.9 14.3 147 147 147
-34.8 -18.9 14.3 108 110 110
-34.5 -18.9 14.2 175 175 175
-34.1 -18.9 14.2 107 109 109
-33.8 -18.9 14.2 45 45 45
-33.5 -18.9 14.2 45 45 45
-33.2 -18.9 14.3 33 32 30
-32.9 -18.9 14.3 18 22 19
-32.5 -18.9 14.3 6 11 7
-32.2 -18.9 14.3 123 125 124
-31.9 -18.9 14.3 134 137 136
-31.5 -18.9 14.2 52 52 52
-23.3 -18.9 14.3 205 208 207
-22.9 -18.9 14.2 212 213 212
-22.5 -18.8 14.2 198 201 200
-22.2 -18.9 14.2 163 166 165
-21.3 -18.9 14.3 36 36 36
-20.9 -18.8 14.2 19 23 20
-20.5 -18.8 14.2 27 27 27
-20.3 -18.9 14.3 98 97 95
-19.9 -18.9 14.3 124 127 126
-19.6 -18.9 14.3 42 44 43
-19.3 -18.9 14.3 50 50 50
-18.9 -18.9 14.3 94 94 94
-18.6 -18.9 14.3 33 32 30
-18.3 -18.9 14.2 29 31 29
-17.9 -18.9 14.2 34 34 34
-17.6 -18.9 14.2 38 38 38
-17.3 -18.9 14.3 90 90 90
172.1 -125.8 95.1 210 210 210
164.4 -118.7 89.7 211 211 211
158.2 -112.8 85.2 211 211 211
165.4 -116.5 88.0 211 211 211
223.3 -144.7 109.3 209 212 211
82.9 -30.7 23.2 180 180 180
84.4 -31.0 23.4 170 171 170
65.9 -23.3 17.6 135 135 135
65.7 -23.1 17.5 135 135 135
-35.8 -18.5 14.2 134 136 135
-34.4 -18.5 14.2 178 181 180
-34.0 -18.5 14.2 104 103 101
-33.7 -18.5 14.2 44 43 42
-33.3 -18.4 14.2 29 31 29
-32.8 -18.5 14.2 18 22 19
-23.2 -18.5 14.2 215 215 215
-22.8 -18.5 14.2 205 208 207
-17.5 -15.1 11.6 17 21 18
-21.3 -18.6 14.3 81 81 81
-19.9 -18.5 14.2 115 117 116
-19.5 -18.5 14.2 40 40 40
-19.2 -18.5 14.2 38 38 38
17.2 -13.6 10.4 211 211 211
173.8 -124.9 96.0 210 210 210
159.8 -113.4 87.2 210 210 210
151.4 -106.0 81.5 214 214 214
149.4 -103.4 79.5 211 211 211
201.2 -128.1 98.5 217 217 217
86.2 -31.1 23.9 150 150 150
87.1 -31.3 24.0 140 142 141
66.9 -23.2 17.9 134 134 134
66.4 -22.9 17.6 134 134 134
-27.0 -14.8 11.6 25 25 25
-26.7 -14.8 11.6 19 23 20
-17.9 -14.8 11.6 23 23 23
-15.8 -13.7 10.7 23 23 23
179.3 -126.5 99.0 210 210 210
165.9 -115.6 90.5 210 210 210
157.5 -108.3 84.8 211 211 211
156.6 -106.4 83.3 211 211 211
298.4 -188.7 147.8 214 214 214
208.8 -130.6 102.3 217 217 217
176.0 -108.8 85.2 209 212 211
87.0 -30.9 24.2 134 134 134
88.7 -31.3 24.5 131 134 133
67.8 -23.1 18.1 128 131 130
67.4 -22.9 17.9 129 129 129
-30.3 -13.5 10.8 75 75 75
-30.1 -13.5 10.8 75 75 75
-26.3 -13.5 10.8 73 73 73
-26.1 -13.5 10.8 59 59 59
-25.8 -13.5 10.8 36 37 36
-25.5 -13.5 10.8 38 38 38
-25.3 -13.5 10.8 34 34 34
-25.1 -13.5 10.8 25 25 25
-24.8 -13.5 10.8 23 23 23
-24.6 -13.5 10.8 27 27 27
-24.3 -13.5 10.8 154 154 154
-24.1 -13.5 10.8 178 178 178
-23.9 -13.6 10.8 188 187 186
-23.6 -13.5 10.8 162 161 159
-23.4 -13.5 10.8 148 150 150
-23.1 -13.5 10.8 183 186 185
-16.8 -13.5 10.8 85 87 87
-16.4 -13.6 10.8 54 54 54
-16.0 -13.5 10.7 39 41 41
-15.7 -13.4 10.7 52 52 52
-15.6 -13.5 10.8 69 69 69
-15.4 -13.6 10.8 39 39 39
-15.1 -13.5 10.8 90 90 90
16.9 -12.7 10.1 211 211 211
164.9 -111.4 88.8 214 214 214
161.6 -107.8 86.0 214 214 214
380.2 -244.5 195.0 215 215 215
289.4 -179.7 143.3 214 214 214
241.5 -148.2 118.2 214 214 214
183.5 -111.4 88.8 214 214 214
87.3 -30.4 24.3 116 118 117
89.2 -30.9 24.6 116 118 117
89.7 -30.8 24.6 121 121 121
43.1 -14.3 11.4 128 127 126
-25.3 -13.1 10.7 29 30 28
-25.1 -13.1 10.7 23 23 23
-24.8 -13.1 10.7 19 23 20
-24.7 -13.2 10.7 17 21 18
-24.2 -13.2 10.7 139 139 139
-23.3 -13.2 10.7 145 145 144
-16.7 -13.2 10.7 85 87 87
-16.5 -13.2 10.7 11 11 11
-16.3 -13.2 10.8 27 29 27
-15.9 -13.1 10.7 106 106 106
-15.6 -13.1 10.6 65 65 65
560.6 -358.1 291.0 215 215 215
384.1 -242.5 197.0 218 218 218
352.0 -219.6 178.5 218 218 218
484.1 -298.4 242.5 218 218 218
318.3 -194.0 157.6 219 219 219
274.0 -165.1 134.2 217 217 217
89.6 -30.4 24.7 112 112 112
91.1 -30.8 25.0 112 112 112
44.1 -14.4 11.7 116 118 117
43.6 -14.2 11.5 121 121 121
43.7 -14.1 11.5 133 133 133
-24.6 -12.7 10.5 19 23 20
-24.4 -12.6 10.5 17 21 18
-24.1 -12.6 10.5 17 21 18
-23.8 -12.6 10.5 25 25 25
-16.1 -12.7 10.5 24 24 24
-15.9 -12.8 10.6 24 24 24
-15.4 -12.6 10.5 25 25 25
578.4 -362.5 300.3 215 215 215
405.2 -251.0 207.9 215 215 215
376.9 -230.7 191.1 216 216 216
531.8 -321.7 266.4 216 216 216
89.2 -29.7 24.6 108 108 108
91.1 -30.2 25.0 109 111 111
51.2 -16.9 14.0 109 111 111
44.6 -14.3 11.8 107 107 107
44.2 -14.1 11.7 86 86 86
44.6 -14.1 11.7 149 151 151
-15.9 -12.6 10.7 83 85 85
16.0 -13.0 11.0 209 209 209
16.1 -12.9 10.9 208 208 208
674.8 -414.8 350.3 215 215 215
396.5 -240.9 203.4 215 215 215
365.9 -219.6 185.5 216 216 216
563.5 -334.3 282.3 216 216 216
88.9 -29.1 24.5 105 105 105
51.2 -16.5 14.0 102 104 104
51.4 -16.5 13.9 100 102 102
-22.6 -40.2 34.6 96 96 96
-21.2 -39.1 33.7 96 96 96
16.0 -12.7 11.0 212 213 212
16.1 -12.6 10.9 212 213 212
392.3 -233.6 201.2 218 218 218
300.9 -177.1 152.6 218 218 218
563.5 -327.8 282.3 218 218 218
350.5 -192.6 165.9 197 197 197
51.6 -26.3 22.7 202 202 202
50.9 -16.1 13.9 97 97 97
51.1 -16.1 13.8 89 89 89
-26.1 -13.3 11.7 174 176 176
-24.9 -41.9 36.8 123 125 124
-23.4 -40.7 35.8 94 94 94
-21.7 -39.2 34.5 95 95 95
16.0 -12.5 10.9 212 213 212
16.1 -12.3 10.8 212 213 212
17.6 -12.3 10.8 216 216 216
384.1 -224.2 197.0 218 218 218
298.5 -172.2 151.3 218 218 218
407.4 -221.9 195.0 176 179 178
217.2 -115.7 101.7 199 199 199
51.7 -25.8 22.7 202 202 202
50.6 -15.8 13.9 96 96 96
50.6 -15.7 13.8 80 83 82
50.8 -15.7 13.8 74 74 74
51.0 -15.6 13.7 70 69 68
-25.8 -42.4 38.1 122 124 123
-23.7 -40.5 36.3 96 96 96
-22.0 -38.9 34.9 95 98 97
15.9 -11.9 10.7 209 209 209
15.7 -11.5 10.3 215 215 215
15.6 -11.2 10.0 216 216 216
17.3 -11.7 10.5 217 217 217
384.1 -219.6 197.0 215 215 215
280.6 -158.5 142.2 215 215 215
208.6 -116.5 104.5 218 218 218
340.7 -181.7 163.1 179 179 179
296.0 -156.2 140.1 197 197 197
216.0 -112.7 101.2 202 202 202
48.4 -23.5 21.1 205 205 205
50.7 -15.5 13.9 85 85 85
50.7 -15.4 13.8 79 81 80
50.9 -15.4 13.8 71 71 71
51.2 -15.3 13.8 71 71 71
-26.4 -42.5 38.9 120 120 120
-24.4 -40.7 37.3 96 99 98
-23.2 -41.6 38.1 113 112 111
15.7 -11.2 10.3 215 215 215
17.2 -11.4 10.4 217 217 217
380.2 -212.8 195.0 220 220 220
272.4 -150.7 138.1 218 218 218
203.0 -111.0 101.7 218 218 218
343.6 -179.5 164.5 181 181 181
271.8 -140.4 128.7 195 195 195
212.6 -108.6 99.6 202 202 202
48.4 -23.0 21.0 204 204 204
45.8 -21.5 19.7 205 205 205
50.5 -15.0 13.8 81 84 83
50.7 -15.0 13.7 75 76 76
51.0 -15.0 13.7 75 76 76
51.0 -14.9 13.6 75 76 76
15.7 -11.1 10.4 216 216 216
15.6 -10.7 10.0 216 216 216
380.2 -208.3 195.0 220 220 220
272.4 -147.5 138.1 221 221 221
311.1 -159.1 148.9 179 179 179
271.8 -137.4 128.7 197 197 197
210.4 -105.2 98.5 202 202 202
43.5 -19.8 18.6 205 205 205
50.6 -14.6 13.7 78 78 78
50.9 -14.6 13.7 78 78 78
50.1 -14.3 13.4 79 82 81
50.0 -14.2 13.3 77 77 77
-21.4 -12.8 12.2 197 197 197
-11.3 -12.4 11.8 33 33 33
-31.1 -51.5 49.3 101 101 101
15.6 -10.8 10.3 216 216 216
15.6 -10.5 10.0 216 216 216
384.1 -205.9 197.0 220 220 220
270.4 -143.2 137.1 220 220 220
301.6 -150.9 144.4 183 183 183
259.4 -128.3 122.8 196 196 196
210.4 -102.9 98.5 202 202 202
43.2 -19.2 18.4 205 205 205
-20.6 -11.9 11.6 224 224 224
-11.3 -12.1 11.8 33 33 33
-11.0 -12.0 11.8 31 31 31
-33.9 -57.0 55.8 112 111 110
-34.4 -60.2 58.9 40 40 40
388.2 -203.4 199.1 217 217 217
278.5 -144.2 141.2 220 220 220
275.6 -133.3 130.5 194 194 194
199.0 -95.2 93.2 200 200 200
-20.5 -11.6 11.6 227 227 227
-11.3 -11.8 11.8 33 33 33
-11.0 -11.7 11.7 34 34 34
-35.7 -58.6 58.7 110 110 110
-34.4 -58.8 58.9 46 47 45
18.9 -11.1 11.2 217 217 217
156.8 -84.3 84.4 219 219 219
396.5 -203.0 203.4 220 220 220
280.6 -142.0 142.2 220 220 220
277.5 -131.1 131.4 194 194 194
197.0 -92.1 92.3 200 200 200
172.3 -79.7 79.8 202 202 202
-20.5 -11.3 11.6 227 227 227
-11.3 -11.5 11.8 31 31 31
-11.0 -11.5 11.8 33 33 33
-37.3 -59.9 61.4 119 119 119
-34.7 -58.0 59.5 45 45 45
157.3 -81.6 83.7 219 219 219
392.3 -196.2 201.2 220 223 222
278.5 -137.6 141.2 220 220 220
488.4 -230.5 236.5 218 218 218
308.7 -144.1 147.8 184 184 184
254.5 -117.5 120.5 194 194 194
172.3 -77.8 79.8 200 200 200
-11.0 -11.2 11.8 34 34 34
-38.3 -60.0 63.1 113 114 113
-35.1 -57.2 60.1 35 34 33
400.8 -195.7 205.6 220 220 220
318.9 -153.9 161.7 220 220 220
574.6 -264.7 278.2 218 218 218
248.2 -111.8 117.5 194 194 194
166.0 -73.2 76.9 200 200 200
-39.9 -61.0 65.7 112 112 112
-35.1 -55.8 60.1 23 24 23
461.0 -219.5 236.5 220 223 222
316.2 -148.8 160.3 220 223 222
583.2 -262.1 282.3 221 221 221
242.2 -106.4 114.6 188 188 188
206.1 -89.6 96.5 198 198 198
165.3 -71.1 76.6 200 200 200
409.7 -190.3 210.2 220 223 222
651.3 -285.4 315.3 222 224 224
194.2 -82.3 90.9 196 196 196
166.0 -69.6 76.9 200 200 200
137.6 -57.1 63.1 200 200 200
-11.0 -11.0 12.5 36 39 38
-10.7 -11.0 12.4 41 41 41
-69.5 -104.9 119.0 30 30 30
-64.8 -106.3 120.5 166 166 166
333.2 -149.0 168.9 220 223 222
797.5 -340.5 386.0 221 221 221
129.4 -52.3 59.3 200 200 200
-11.1 -10.8 12.6 36 39 38
-10.8 -10.7 12.5 42 42 42
-84.2 -128.9 150.1 23 23 22
-64.4 -102.8 119.7 170 172 172
-61.2 -102.2 119.0 179 179 179
296.2 -128.9 150.1 220 223 222
797.5 -331.5 386.0 222 224 224
128.2 -50.4 58.7 200 200 200
-10.8 -10.4 12.5 41 40 38
-10.4 -10.3 12.3 46 46 46
-94.7 -141.1 168.9 30 29 29
-69.6 -108.3 129.6 166 166 166
32.5 -15.2 18.2 219 222 221
129.4 -49.5 59.3 200 200 200
-172.6 -240.1 295.6 30 29 29
-131.0 -189.7 233.5 27 27 27
15.4 -8.2 10.1 216 216 216
19.4 -9.4 11.6 222 224 224
32.6 -15.0 18.5 219 222 221
32.6 -14.8 18.3 219 222 221
131.0 -48.8 60.1 199 199 199
-200.2 -281.6 356.9 26 25 24
15.5 -8.0 10.1 220 223 222
17.9 -8.7 11.0 222 224 224
19.4 -9.3 11.8 222 224 224
32.5 -14.5 18.4 219 222 221
32.5 -14.4 18.2 219 222 221
132.7 -48.0 60.8 197 197 197
141.8 -49.8 65.0 195 195 195
-30.5 -11.9 16.0 53 52 52
30.9 -12.7 17.1 219 222 221
152.4 -52.4 70.6 189 189 189
-33.3 -11.3 15.7 67 67 67
-32.2 -11.1 15.4 36 37 36
-31.3 -10.9 15.1 58 59 59
-28.9 -11.0 15.3 19 23 20
30.6 -12.2 16.9 219 222 221
-31.4 -10.4 15.0 58 59 59
-30.2 -10.2 14.6 57 57 57
-28.8 -10.6 15.3 25 25 25
-27.3 -10.2 14.7 55 55 55
29.6 -11.2 16.2 219 222 221
766.2 -258.2 370.9 224 226 226
195.1 -63.6 91.4 152 152 152
-29.8 -9.7 14.4 53 52 52
-29.2 -9.6 14.2 55 55 55
-27.3 -9.9 14.7 58 59 59
-26.2 -9.6 14.3 66 66 66
15.7 -6.9 10.3 218 221 220
18.7 -7.3 10.9 223 225 225
651.3 -212.1 315.3 219 219 219
194.2 -61.2 90.9 152 154 154
-26.3 -9.3 14.3 65 65 65
15.6 -6.6 10.2 219 222 221
18.9 -7.2 11.1 223 225 225
18.7 -7.1 10.9 223 225 225
189.6 -57.7 88.8 159 162 161
-196.9 -57.0 90.9 28 28 28
15.6 -6.4 10.2 219 222 221
19.4 -7.3 11.6 223 225 225
18.9 -7.0 11.2 223 225 225
18.6 -6.8 10.8 223 225 225
189.6 -55.6 88.8 163 163 163
-174.6 -48.1 79.8 57 57 57
-182.8 -50.9 84.4 57 57 57
-170.9 -48.1 79.8 57 57 57
-161.6 -46.0 76.3 56 56 56
15.6 -6.1 10.2 220 223 222
18.9 -6.7 11.1 224 226 226
18.7 -6.6 10.9 224 226 226
191.4 -54.1 89.7 158 161 160
-173.2 -45.9 79.1 72 72 72
-174.2 -46.7 80.5 72 72 72
-169.5 -45.9 79.1 69 71 69
-162.9 -44.6 76.9 67 67 67
15.6 -5.9 10.2 220 223 222
16.8 -5.8 10.0 220 223 222
239.3 -65.7 113.3 77 77 77
15.5 -5.7 10.3 222 224 224
15.5 -5.6 10.1 220 220 220
15.6 -5.6 10.0 220 220 220
16.7 -5.6 10.0 222 224 224
256.1 -67.5 121.3 69 72 71
281.4 -71.0 133.2 114 116 115
302.7 -73.1 143.3 57 57 57
18.3 -5.2 10.7 222 222 222
185.2 -37.0 76.0 219 219 219
19.6 -2.1 10.0 225 225 225
20.9 -2.1 10.1 227 227 227
17.4 -1.8 10.0 222 222 222
18.3 -1.8 10.0 222 222 222
268.8 -14.3 103.4 72 72 72
981.0 -21.6 315.3 95 95 95
981.0 -14.3 315.3 30 30 30
102.5 -1.2 27.4 85 85 85
100.8 -1.2 26.8 90 90 90
964.9 -6.8 310.1 29 29 29
898.5 -6.3 286.6 147 147 147
97.8 -0.6 26.0 88 88 88
21.8 0.0 10.9 223 225 225
23.9 0.0 10.9 193 193 193
23.9 0.0 10.8 176 179 178
100.9 0.0 27.0 85 85 85
97.4 0.0 25.9 85 85 85
21.6 0.3 10.9 223 225 225
21.8 0.3 10.9 223 225 225
24.0 0.3 11.0 196 196 196
941.3 7.4 300.3 202 202 202
85.5 0.6 24.2 141 141 141
86.1 0.6 24.2 77 77 77
86.3 0.6 24.1 94 97 96
92.0 0.6 24.8 87 87 87
95.4 0.6 25.4 87 87 87
92.8 0.6 24.5 89 89 89
21.6 0.5 11.0 223 225 225
24.2 0.5 11.1 203 203 203
1005.1 15.3 320.6 202 204 204
84.4 1.1 24.1 92 92 92
84.8 1.1 24.0 134 134 134
85.7 1.2 24.1 74 74 74
86.1 1.1 24.1 116 116 116
87.0 1.2 24.2 197 200 199
90.2 1.2 24.3 88 88 88
90.7 1.2 24.3 86 86 86
94.0 1.2 25.0 88 88 88
91.5 1.2 24.2 88 88 88
91.9 1.2 24.1 170 171 170
82.9 1.7 23.6 94 97 96
83.4 1.7 23.6 134 134 134
84.0 1.7 23.6 82 81 79
89.2 1.7 24.0 87 87 87
89.3 1.7 23.9 87 87 87
90.2 1.7 24.0 89 89 89
88.4 1.7 23.4 89 89 89
83.5 2.1 22.0 89 89 89
82.7 2.0 21.7 166 169 168
84.3 2.6 22.4 90 90 90
83.9 2.6 22.2 90 90 90
85.6 3.2 22.9 86 85 83
85.6 3.2 22.8 89 89 89
85.5 3.2 22.6 90 90 90
85.6 3.2 22.5 140 142 141
87.9 3.9 23.6 87 86 84
86.9 3.8 23.2 87 86 84
87.2 3.8 23.2 92 92 92
86.5 3.7 22.8 92 92 92
87.0 4.4 23.3 86 85 83
87.2 4.3 23.2 91 91 91
86.5 4.3 22.8 93 93 93
85.9 4.8 22.7 98 100 100
86.1 5.3 22.7 98 100 100
110.2 6.7 28.7 169 169 169
110.8 7.4 28.9 163 163 163
111.0 8.1 29.0 162 162 162
109.7 8.7 28.6 155 155 155
110.2 9.4 28.7 151 151 151
110.7 10.1 28.9 141 143 142
-120.9 23.2 43.3 47 48 47
-118.6 23.1 43.2 40 40 40
-117.6 23.1 43.2 63 64 62
-79.7 22.9 42.8 75 76 74
-57.1 23.5 43.8 129 129 129
-54.5 22.8 42.5 117 117 117
-51.9 22.9 42.8 228 231 230
-49.7 22.4 41.9 228 228 228
-49.4 22.7 42.4 217 220 219
-47.1 23.0 43.0 149 149 149
-131.5 26.1 46.7 49 50 48
-129.0 26.0 46.6 43 42 41
-129.8 26.4 47.3 47 47 47
-128.7 26.4 47.3 53 52 52
-127.6 26.4 47.3 148 148 146
-125.0 26.1 46.7 147 147 147
-123.9 26.1 46.7 139 139 139
-124.3 26.4 47.3 132 132 132
-123.2 26.4 47.3 129 129 129
-121.4 26.5 47.4 134 137 136
-118.2 26.0 46.6 137 139 138
-118.6 26.4 47.2 144 144 144
-117.8 26.4 47.3 149 149 149
-91.4 26.4 47.3 81 81 81
-90.5 26.5 47.4 81 81 81
-88.7 26.3 47.1 85 84 82
-85.3 25.6 45.8 83 83 83
-66.0 26.0 46.5 115 114 114
-66.1 26.4 47.3 115 114 114
-64.3 26.2 46.8 109 111 111
-62.2 25.7 46.0 115 115 115
-61.1 25.7 46.0 115 114 114
-59.9 25.7 45.9 117 117 117
-58.0 25.3 45.3 128 128 128
-55.6 25.7 45.9 234 234 234
-54.2 25.5 45.6 228 231 230
-55.0 26.4 47.2 221 221 221
-54.0 26.4 47.3 191 191 191
-52.2 26.1 46.7 99 101 101
-51.3 26.2 46.8 87 87 87
-51.3 26.8 47.9 80 80 80
-50.2 26.8 47.9 83 83 83
-48.7 26.6 47.5 92 95 94
24.1 26.5 47.4 72 74 74
24.1 25.3 45.3 68 68 68
25.7 25.9 46.4 33 35 34
-91.4 27.9 47.9 105 105 105
-89.6 27.7 47.5 100 102 102
-61.1 27.3 46.8 75 75 75
-90.1 41.0 70.3 75 75 75
-87.5 40.5 69.5 229 229 229
-81.9 41.0 70.3 49 49 49
-51.4 28.5 49.0 68 70 69
-49.6 28.2 48.4 66 67 65
24.8 28.4 48.8 74 76 75
26.1 27.4 47.1 25 27 25
233.1 52.2 89.7 161 161 161
-1100.4 257.0 394.1 42 42 42
-1091.2 257.0 394.1 37 38 37
-1063.7 257.0 394.1 85 85 85
-1054.6 257.0 394.1 126 128 127
-1045.4 257.0 394.1 125 125 125
-1036.2 257.0 394.1 118 120 119
-1008.8 257.0 394.1 115 114 114
-999.6 257.0 394.1 116 116 116
-990.4 257.0 394.1 118 120 119
-953.8 257.0 394.1 124 124 124
-944.6 257.0 394.1 119 121 120
-935.5 257.0 394.1 117 117 117
-926.3 257.0 394.1 109 109 109
-917.2 257.0 394.1 146 146 146
-908.0 257.0 394.1 168 167 166
-898.8 257.0 394.1 109 109 109
-889.7 257.0 394.1 97 97 97
-880.5 257.0 394.1 100 102 102
-862.2 257.0 394.1 112 114 113
-853.0 257.0 394.1 118 118 118
-843.9 257.0 394.1 120 120 120
-807.2 257.0 394.1 149 151 151
-788.9 257.0 394.1 174 174 174
-779.8 257.0 394.1 170 169 168
-724.8 257.0 394.1 123 125 124
-715.6 257.0 394.1 121 121 121
-706.5 257.0 394.1 116 116 116
-697.3 257.0 394.1 118 118 118
-688.2 257.0 394.1 112 114 113
-679.0 257.0 394.1 111 111 111
-669.8 257.0 394.1 110 110 110
-660.7 257.0 394.1 118 118 118
-651.5 257.0 394.1 124 127 126
-642.4 257.0 394.1 133 133 133
-633.2 257.0 394.1 134 136 135
-624.0 257.0 394.1 143 143 142
-614.9 257.0 394.1 147 147 147
-605.7 257.0 394.1 147 149 149
-596.6 257.0 394.1 175 177 177
-587.4 257.0 394.1 165 165 165
-578.2 257.0 394.1 160 160 160
-569.1 257.0 394.1 163 163 163
-559.9 257.0 394.1 139 139 139
-550.8 257.0 394.1 141 141 141
-541.6 257.0 394.1 130 130 130
-532.4 257.0 394.1 127 127 127
-523.3 257.0 394.1 109 109 109
-505.0 257.0 394.1 93 93 93
-459.2 257.0 394.1 34 34 34
-450.0 257.0 394.1 103 105 105
-440.8 257.0 394.1 123 125 124
-431.7 257.0 394.1 131 131 131
-413.9 251.7 386.0 154 154 154
-404.9 251.7 386.0 125 125 125
-396.0 251.7 386.0 128 128 128
-395.0 257.0 394.1 92 95 94
-385.9 257.0 394.1 150 150 150
-376.7 257.0 394.1 147 147 147
-367.6 257.0 394.1 124 126 125
-358.4 257.0 394.1 130 130 130
-349.2 257.0 394.1 165 168 167
-321.8 257.0 394.1 84 84 84
-285.1 257.0 394.1 96 99 98
-251.1 241.9 370.9 88 88 88
-247.3 246.7 378.3 74 74 74
-221.0 257.0 394.1 166 169 168
-211.8 257.0 394.1 165 168 167
-202.7 257.0 394.1 210 213 212
-184.4 257.0 394.1 212 213 212
-175.2 257.0 394.1 215 215 215
-147.7 257.0 394.1 206 209 208
-111.1 257.0 394.1 234 234 234
-101.9 257.0 394.1 235 235 235
-89.1 246.7 378.3 235 235 235
-81.9 251.7 386.0 235 235 235
-74.4 257.0 394.1 234 234 234
-65.3 257.0 394.1 234 234 234
-56.1 257.0 394.1 234 234 234
-47.0 257.0 394.1 234 234 234
-1.2 257.0 394.1 205 205 205
7.8 251.7 386.0 204 204 204
154.6 257.0 394.1 56 56 56
148.3 232.7 356.9 64 65 63
182.0 257.0 394.1 75 76 74
209.5 257.0 394.1 67 69 67
25.7 17.2 10.9 146 146 146
39.7 17.3 10.9 109 111 111
39.6 17.2 10.9 109 111 111
40.1 17.2 10.9 126 128 127
40.3 17.1 10.8 126 128 127
40.5 17.1 10.8 99 99 99
21.6 18.4 11.5 106 106 106
