ply
format ascii 1.0
element vertex 2032
property float x
property float y
property float z
property uchar red
property uchar green
property uchar blue
end_header
89.8 -190.6 76.0 161 161 161
92.3 -192.2 76.6 161 161 161
94.1 -192.2 76.6 161 161 161
95.9 -192.2 76.6 162 162 162
114.9 -185.4 73.9 155 158 157
117.0 -186.1 74.2 156 159 158
119.2 -186.9 74.5 156 159 158
54.7 -183.7 73.9 164 164 164
56.2 -183.0 73.6 164 164 164
58.0 -183.0 73.6 167 167 167
59.7 -183.0 73.6 164 164 164
61.4 -183.0 73.6 164 164 164
63.1 -183.0 73.6 164 164 164
64.8 -183.0 73.6 164 164 164
66.5 -183.0 73.6 165 165 165
68.2 -183.0 73.6 165 165 165
69.9 -183.0 73.6 165 165 165
71.6 -183.0 73.6 165 165 165
73.3 -183.0 73.6 163 163 163
75.1 -183.0 73.6 163 163 163
76.8 -183.0 73.6 163 163 163
78.2 -182.3 73.3 164 164 164
79.9 -182.3 73.3 164 164 164
81.9 -183.0 73.6 164 164 164
83.9 -183.7 73.9 164 164 164
85.3 -183.0 73.6 164 164 164
87.0 -183.0 73.6 164 164 164
88.7 -183.0 73.6 164 164 164
90.5 -183.0 73.6 164 164 164
92.5 -183.7 73.9 162 162 162
94.2 -183.7 73.9 162 162 162
105.9 -183.0 73.6 158 161 160
108.8 -185.1 74.5 158 161 160
110.1 -184.4 74.2 163 163 163
111.4 -183.7 73.9 158 161 160
113.1 -183.7 73.9 158 161 160
114.0 -182.3 73.3 158 161 160
116.6 -183.7 73.9 156 159 158
118.8 -184.4 74.2 156 159 158
117.3 -179.5 72.2 156 159 158
61.8 -40.9 16.4 197 200 199
61.5 -40.4 16.2 206 206 206
67.1 -137.0 55.6 164 164 164
68.4 -137.0 55.6 164 164 164
69.5 -136.6 55.5 164 164 164
115.8 -183.4 74.5 163 163 163
118.9 -185.6 75.4 164 164 164
123.1 -189.4 76.9 159 162 161
117.7 -178.5 72.5 159 162 161
123.4 -92.8 37.7 105 104 102
60.7 -39.5 16.0 214 214 214
59.8 -38.7 15.7 181 184 183
32.0 -99.2 40.7 167 167 167
33.0 -99.2 40.7 167 167 167
33.8 -98.8 40.5 167 167 167
34.7 -98.8 40.5 164 164 164
35.7 -98.8 40.5 164 164 164
36.7 -99.0 40.6 165 165 165
37.6 -99.0 40.6 165 165 165
38.6 -99.0 40.6 165 165 165
39.5 -99.0 40.6 165 165 165
40.5 -99.0 40.6 165 165 165
41.4 -99.0 40.6 163 163 163
42.3 -99.0 40.6 163 163 163
43.5 -99.4 40.8 164 164 164
44.3 -99.2 40.7 164 164 164
45.0 -98.6 40.4 164 164 164
46.0 -98.8 40.5 164 164 164
47.0 -98.8 40.5 164 164 164
48.0 -99.0 40.6 164 164 164
48.8 -98.8 40.5 161 161 161
49.9 -99.0 40.6 161 161 161
50.7 -98.8 40.5 164 164 164
51.7 -98.8 40.5 165 165 165
52.6 -98.8 40.5 165 165 165
53.7 -99.0 40.6 165 165 165
55.0 -99.7 40.9 165 165 165
55.2 -98.4 40.3 165 165 165
55.4 -97.1 39.8 165 165 165
57.7 -99.4 40.8 165 165 165
60.5 -102.5 42.0 166 166 166
59.6 -99.4 40.8 166 166 166
60.4 -99.2 40.7 166 166 166
123.8 -191.5 78.5 167 167 167
128.9 -196.4 80.5 164 164 164
121.0 -181.7 74.5 164 164 164
133.4 -100.1 41.0 105 104 102
121.4 -90.5 37.1 105 104 102
60.9 -39.5 16.2 214 214 214
60.2 -38.8 15.9 197 200 199
59.4 -38.1 15.6 197 197 197
59.7 -38.0 15.6 216 216 216
30.5 -93.7 38.8 167 167 167
30.7 -91.6 37.9 167 167 167
31.5 -91.2 37.8 167 167 167
32.4 -91.2 37.8 164 164 164
33.2 -91.2 37.8 164 164 164
34.1 -91.2 37.8 165 165 165
35.0 -91.2 37.8 165 165 165
35.9 -91.2 37.8 165 165 165
36.7 -91.2 37.8 165 165 165
37.6 -91.0 37.7 165 165 165
38.4 -91.0 37.7 163 163 163
39.2 -90.9 37.6 160 160 160
40.2 -91.0 37.7 160 160 160
41.5 -92.0 38.1 164 164 164
42.0 -91.2 37.8 166 166 166
42.7 -90.9 37.6 166 166 166
43.8 -91.2 37.8 164 164 164
44.6 -91.0 37.7 164 164 164
45.3 -90.9 37.6 166 166 166
46.3 -91.0 37.7 166 166 166
47.1 -90.9 37.6 166 166 166
48.2 -91.2 37.8 167 167 167
49.1 -91.4 37.8 167 167 167
49.7 -90.9 37.6 167 167 167
50.9 -91.4 37.8 167 167 167
52.0 -91.8 38.0 167 167 167
51.2 -88.9 36.8 167 167 167
53.6 -91.6 37.9 167 167 167
57.0 -94.2 39.0 168 168 168
56.6 -92.1 38.1 166 166 166
57.4 -92.0 38.1 168 168 168
58.4 -92.1 38.1 168 168 168
59.5 -92.5 38.3 168 168 168
125.4 -192.0 79.5 167 167 167
131.1 -197.8 81.9 167 167 167
126.4 -188.1 77.8 167 167 167
128.1 -95.2 39.4 105 104 102
118.0 -87.1 36.0 105 104 102
111.8 -81.9 33.9 99 101 101
59.3 -37.9 15.7 189 189 189
58.5 -37.1 15.4 216 216 216
59.6 -37.6 15.6 214 214 214
28.9 -85.4 35.7 167 167 167
29.6 -85.1 35.6 164 164 164
29.9 -83.5 34.9 164 164 164
30.7 -83.4 34.8 164 164 164
31.4 -83.2 34.8 165 165 165
32.3 -83.4 34.8 163 163 163
33.1 -83.4 34.8 165 165 165
34.0 -83.5 34.9 168 168 168
34.7 -83.4 34.8 168 168 168
35.5 -83.4 34.8 165 165 165
36.4 -83.5 34.9 165 165 165
37.1 -83.4 34.8 166 166 166
38.1 -83.7 35.0 166 166 166
38.8 -83.5 34.9 169 169 169
39.5 -83.2 34.8 169 169 169
40.5 -83.5 34.9 166 166 166
41.2 -83.4 34.8 169 169 169
42.0 -83.4 34.8 169 169 169
42.9 -83.5 34.9 169 169 169
43.7 -83.5 34.9 170 171 170
44.5 -83.5 34.9 170 171 170
45.5 -83.8 35.0 170 171 170
46.2 -83.7 35.0 170 171 170
46.9 -83.4 34.8 170 171 170
48.4 -84.6 35.4 170 171 170
48.6 -83.5 34.9 172 174 174
49.4 -83.5 34.9 170 171 170
50.6 -84.1 35.2 170 171 170
52.9 -86.5 36.2 172 172 172
52.0 -83.8 35.0 172 172 172
53.5 -84.9 35.5 172 172 172
53.8 -84.1 35.2 172 172 172
54.1 -83.4 34.8 172 172 172
55.5 -84.1 35.2 173 173 173
136.4 -203.9 85.2 169 169 169
130.2 -191.8 80.2 169 169 169
125.5 -92.4 38.6 105 104 102
117.5 -85.9 35.9 105 104 102
54.9 -34.3 14.3 216 216 216
29.7 -79.9 33.7 168 168 168
30.8 -80.8 34.1 168 168 168
33.8 -80.3 33.9 170 172 172
34.6 -80.5 34.0 170 172 172
36.1 -80.3 33.9 171 173 173
38.4 -81.8 34.5 164 164 164
38.4 -80.0 33.8 171 173 173
40.0 -80.2 33.8 171 173 173
42.9 -79.6 33.6 172 174 174
47.6 -82.4 34.8 172 174 174
47.3 -80.6 34.0 175 177 177
47.8 -80.0 33.8 175 177 177
49.5 -81.5 34.4 173 175 175
52.1 -84.4 35.6 173 175 175
50.3 -80.3 33.9 173 175 175
53.0 -83.3 35.2 173 175 175
53.3 -82.5 34.8 173 175 175
52.2 -79.6 33.6 173 175 175
54.9 -82.4 34.8 174 176 176
28.9 -39.8 16.8 172 172 172
46.9 -80.4 34.3 180 180 180
47.0 -79.3 33.8 172 174 174
47.7 -79.1 33.7 180 180 180
48.6 -79.3 33.8 181 181 181
51.8 -83.1 35.4 181 181 181
50.1 -79.1 33.7 176 179 178
53.3 -81.7 34.8 176 179 178
52.3 -79.0 33.7 176 179 178
54.1 -79.3 33.8 174 176 176
54.9 -79.3 33.8 174 176 176
28.5 -39.5 16.8 175 177 177
28.6 -39.0 16.6 175 177 177
40.4 -68.7 29.6 198 198 198
41.0 -68.4 29.5 198 198 198
41.8 -68.7 29.6 195 195 195
42.4 -68.4 29.5 198 198 198
43.1 -68.6 29.5 202 202 202
43.9 -68.7 29.6 198 198 198
44.3 -68.2 29.4 195 195 195
54.6 -82.9 35.7 198 198 198
47.1 -69.4 29.9 199 199 199
47.3 -68.7 29.6 199 199 199
27.5 -37.2 16.0 198 198 198
42.8 -26.4 11.4 194 194 194
42.8 -26.3 11.3 214 214 214
43.1 -26.3 11.3 219 219 219
43.6 -26.4 11.4 219 219 219
40.4 -68.0 29.6 205 205 205
41.7 -67.8 29.5 205 205 205
42.4 -67.8 29.5 205 205 205
43.2 -68.0 29.6 205 205 205
43.7 -67.8 29.5 205 205 205
44.0 -67.1 29.2 205 205 205
47.3 -68.9 30.0 206 206 206
47.5 -68.2 29.6 206 206 206
58.7 -81.9 35.6 207 207 207
26.1 -34.0 14.8 205 205 205
42.0 -25.7 11.2 181 184 183
42.3 -25.7 11.2 177 177 177
42.2 -25.5 11.1 216 216 216
42.6 -25.6 11.1 219 219 219
42.7 -72.3 31.7 205 205 205
41.5 -69.1 30.4 205 205 205
45.4 -69.7 30.6 205 205 205
45.9 -69.2 30.4 205 205 205
53.4 -78.2 34.3 205 205 205
55.0 -77.0 33.8 206 206 206
57.0 -78.7 34.6 207 207 207
27.4 -36.3 15.9 207 207 207
27.1 -35.4 15.6 208 208 208
26.2 -33.9 14.9 208 208 208
41.6 -24.9 10.9 216 216 216
41.6 -24.7 10.9 219 219 219
47.3 -71.8 31.8 205 205 205
47.4 -70.8 31.4 205 205 205
53.3 -78.5 34.8 205 205 205
53.4 -77.4 34.3 205 205 205
143.5 -204.9 90.9 206 206 206
138.9 -195.5 86.8 206 206 206
54.9 -76.1 33.8 206 206 206
57.3 -78.4 34.8 207 207 207
58.1 -78.4 34.8 207 207 207
26.8 -34.7 15.4 208 208 208
41.3 -24.3 10.8 181 184 183
48.4 -75.1 33.7 208 208 208
48.8 -74.5 33.4 208 208 208
47.8 -71.7 32.2 208 208 208
46.8 -69.3 31.1 208 208 208
53.5 -78.0 35.0 205 205 205
53.8 -77.1 34.6 205 205 205
148.5 -209.9 94.1 205 205 205
141.5 -197.1 88.4 205 205 205
54.4 -74.7 33.5 206 206 206
57.5 -77.8 34.9 206 206 206
58.1 -77.5 34.8 206 206 206
27.0 -34.5 15.5 207 207 207
26.3 -33.3 14.9 207 207 207
26.4 -32.9 14.8 208 208 208
49.6 -76.0 34.5 207 207 207
44.6 -65.3 29.6 207 207 207
54.0 -77.9 35.3 207 207 207
55.2 -78.3 35.5 207 207 207
153.0 -214.1 97.0 207 207 207
147.0 -202.6 91.8 208 208 208
58.2 -78.0 35.4 208 208 208
58.8 -77.7 35.2 206 206 206
27.1 -34.3 15.6 207 207 207
-19.7 -22.6 10.3 107 109 109
-19.4 -22.5 10.3 109 111 111
-19.1 -22.4 10.3 108 110 110
1.9 -22.5 10.3 180 180 180
45.3 -65.7 30.1 206 206 206
53.3 -76.1 34.8 206 206 206
54.7 -76.8 35.2 207 207 207
56.1 -77.6 35.6 207 207 207
57.6 -76.4 35.0 207 207 207
58.7 -76.8 35.2 208 208 208
58.8 -75.8 34.7 205 205 205
27.1 -34.0 15.6 206 206 206
-29.0 -22.2 10.3 42 43 42
-28.8 -22.2 10.3 42 43 42
-28.5 -22.2 10.3 42 43 42
-28.3 -22.2 10.3 46 46 44
-28.0 -22.3 10.3 46 46 44
-27.8 -22.2 10.3 46 45 43
-27.6 -22.2 10.3 46 45 43
-27.3 -22.2 10.3 46 45 43
-27.1 -22.2 10.3 46 45 43
-26.8 -22.2 10.3 46 45 43
-26.6 -22.2 10.3 46 45 43
-26.4 -22.2 10.3 46 45 43
-26.1 -22.2 10.3 42 42 42
-25.9 -22.2 10.3 46 45 43
-25.6 -22.2 10.3 42 42 42
-25.4 -22.2 10.3 42 42 42
-25.2 -22.3 10.3 42 42 42
-24.9 -22.2 10.3 42 42 42
-24.7 -22.2 10.3 40 40 40
-24.4 -22.2 10.3 40 40 40
-24.2 -22.2 10.3 37 38 37
-24.0 -22.2 10.3 37 38 37
-23.7 -22.2 10.3 40 40 40
-23.5 -22.2 10.3 37 38 37
-23.2 -22.2 10.3 40 40 40
-23.0 -22.3 10.3 40 40 40
-22.9 -22.4 10.4 42 42 42
-22.6 -22.3 10.3 46 45 43
-21.9 -22.4 10.3 52 53 51
-21.7 -22.4 10.3 59 60 58
-21.4 -22.4 10.3 78 78 78
-21.2 -22.4 10.3 84 86 86
-20.9 -22.3 10.3 92 92 92
-20.6 -22.3 10.3 94 94 94
-20.5 -22.3 10.3 95 98 97
-20.1 -22.2 10.3 101 101 101
-19.9 -22.3 10.3 105 105 105
-19.7 -22.3 10.3 104 104 104
-19.4 -22.3 10.3 107 107 107
-19.2 -22.2 10.3 107 107 107
-18.9 -22.2 10.3 107 109 109
-18.7 -22.2 10.3 107 109 109
-18.5 -22.2 10.3 107 109 109
-18.2 -22.3 10.3 109 111 111
-18.0 -22.3 10.3 108 110 110
-17.7 -22.2 10.3 108 110 110
-17.6 -22.3 10.3 112 112 112
-17.3 -22.4 10.3 112 112 112
-17.1 -22.3 10.3 113 114 113
-16.8 -22.3 10.3 115 115 115
-16.6 -22.3 10.3 117 117 117
-16.4 -22.3 10.3 117 117 117
-16.1 -22.3 10.3 118 120 119
-15.4 -22.4 10.4 120 122 121
-15.1 -22.3 10.3 119 121 120
-13.9 -22.3 10.3 126 126 126
-13.7 -22.2 10.3 128 128 128
-9.2 -22.4 10.4 137 139 138
-8.9 -22.3 10.3 140 139 138
-8.0 -22.3 10.3 138 140 139
-5.5 -22.3 10.3 155 158 157
-4.8 -22.3 10.3 161 161 161
-4.6 -22.4 10.3 163 166 165
-4.4 -22.4 10.3 161 164 163
-4.1 -22.4 10.3 160 163 162
-3.9 -22.4 10.3 158 161 160
-3.2 -22.4 10.4 162 162 162
-2.7 -22.4 10.4 168 168 168
-2.4 -22.3 10.3 168 168 168
-2.2 -22.3 10.3 168 168 168
-1.5 -22.4 10.3 169 169 169
0.2 -22.3 10.3 178 178 178
1.9 -22.3 10.3 179 179 179
6.7 -22.4 10.4 208 208 208
8.8 -22.3 10.3 208 208 208
9.1 -22.4 10.3 208 208 208
9.3 -22.2 10.3 208 208 208
9.6 -22.4 10.3 208 208 208
9.8 -22.4 10.3 208 208 208
10.8 -22.3 10.3 208 208 208
11.0 -22.3 10.3 206 206 206
11.2 -22.3 10.3 208 208 208
12.2 -22.4 10.3 208 208 208
12.5 -22.4 10.3 208 208 208
12.7 -22.4 10.3 206 206 206
13.5 -22.4 10.4 206 206 206
13.7 -22.3 10.3 206 206 206
46.0 -65.9 30.5 208 208 208
53.1 -75.0 34.7 208 208 208
54.2 -75.4 34.9 206 206 206
51.9 -69.0 32.0 207 207 207
57.2 -75.0 34.7 207 207 207
58.5 -75.7 35.0 207 207 207
58.8 -75.0 34.7 207 207 207
-30.0 -22.8 10.7 46 46 44
-29.9 -22.9 10.7 48 48 48
-29.7 -22.9 10.7 46 46 44
-29.4 -22.9 10.7 47 48 47
-29.2 -22.9 10.7 47 48 47
-28.9 -22.9 10.7 47 48 47
-28.7 -22.9 10.7 47 48 47
-28.4 -22.9 10.7 46 46 44
-28.2 -22.9 10.7 47 48 47
-27.9 -22.9 10.7 47 48 47
-27.7 -22.9 10.7 47 48 47
-27.4 -22.9 10.7 46 46 44
-27.2 -22.9 10.7 46 46 44
-26.9 -22.9 10.7 46 46 44
-26.7 -22.9 10.7 42 43 42
-26.4 -22.9 10.7 42 43 42
-26.2 -22.9 10.7 42 43 42
-25.9 -22.9 10.7 42 43 42
-25.7 -22.9 10.7 41 41 41
-25.4 -22.9 10.7 42 43 42
-25.2 -22.9 10.7 38 38 38
-24.9 -22.9 10.7 38 38 38
-24.7 -22.9 10.7 41 41 41
-24.4 -22.9 10.7 41 41 41
-24.2 -22.9 10.7 38 38 38
-23.9 -22.9 10.7 38 38 38
-23.7 -22.9 10.7 38 38 38
-23.4 -22.9 10.7 38 38 38
-23.2 -22.9 10.7 41 41 41
-22.9 -22.9 10.7 41 41 41
-22.7 -22.9 10.7 42 43 42
-22.5 -22.9 10.7 47 48 47
-22.2 -22.9 10.7 46 46 44
-22.0 -22.9 10.7 41 41 41
-21.7 -22.9 10.7 62 62 62
-21.4 -22.9 10.7 77 77 77
-21.2 -22.9 10.7 87 89 88
-21.0 -22.9 10.7 96 99 98
-20.7 -22.9 10.7 95 95 95
-20.4 -22.9 10.7 96 99 98
-20.2 -22.9 10.7 102 102 102
-19.9 -22.9 10.7 104 104 104
-19.7 -22.9 10.7 105 105 105
-19.5 -22.9 10.7 108 108 108
-19.2 -22.9 10.7 105 105 105
-19.0 -22.9 10.7 107 107 107
-18.7 -22.9 10.7 108 110 110
-18.5 -22.9 10.7 108 110 110
-18.2 -22.9 10.7 108 110 110
-17.9 -22.9 10.7 107 109 109
-17.7 -22.9 10.7 107 109 109
-17.5 -22.9 10.7 107 109 109
-17.2 -22.9 10.7 109 111 111
-17.0 -22.9 10.7 115 115 115
-16.7 -22.9 10.7 116 116 116
-16.5 -22.9 10.7 115 114 114
-16.2 -22.9 10.7 118 118 118
-16.0 -22.9 10.7 118 118 118
-15.7 -22.8 10.7 119 121 120
-15.5 -22.9 10.7 121 123 122
-15.2 -22.9 10.7 119 121 120
-14.7 -22.9 10.7 121 123 122
-14.4 -22.8 10.7 124 124 124
-10.0 -23.0 10.7 132 135 134
-9.7 -22.9 10.7 136 136 136
-9.5 -22.9 10.7 136 136 136
-9.3 -22.9 10.7 136 138 137
-9.0 -22.9 10.7 138 138 138
-8.8 -22.9 10.7 139 139 139
-8.5 -22.9 10.7 141 143 142
-8.3 -22.9 10.7 138 140 139
-6.3 -22.9 10.7 157 157 157
-6.0 -22.9 10.7 158 161 160
-5.8 -22.9 10.7 162 162 162
-5.5 -22.9 10.7 165 165 165
-5.3 -22.9 10.7 164 167 166
-5.0 -22.9 10.7 163 166 165
-4.8 -22.9 10.7 164 167 166
-4.5 -22.9 10.7 163 166 165
-4.3 -22.9 10.7 168 168 168
-4.0 -22.8 10.7 169 169 169
-3.8 -22.9 10.7 168 168 168
-3.5 -22.9 10.7 169 169 169
-3.3 -22.9 10.7 171 173 173
-3.0 -22.9 10.7 171 173 173
-2.8 -22.9 10.7 171 173 173
-2.5 -22.9 10.7 174 176 176
-2.3 -22.9 10.7 171 173 173
-2.0 -23.0 10.7 173 175 175
-1.8 -22.9 10.7 173 175 175
-1.5 -22.9 10.7 173 175 175
-1.3 -22.9 10.7 177 177 177
-1.0 -23.0 10.7 177 177 177
-0.8 -23.0 10.7 177 177 177
-0.5 -22.9 10.7 177 177 177
-0.3 -22.9 10.7 177 177 177
-0.0 -22.9 10.7 179 179 179
0.2 -22.9 10.7 179 179 179
0.5 -22.9 10.7 177 177 177
0.7 -22.9 10.7 179 179 179
1.0 -22.9 10.7 179 179 179
1.2 -22.9 10.7 179 179 179
1.5 -22.9 10.7 181 181 181
1.7 -22.9 10.7 181 181 181
2.0 -22.9 10.7 178 178 178
2.2 -22.9 10.7 181 181 181
2.7 -22.9 10.7 183 183 183
3.0 -22.9 10.7 183 183 183
3.2 -22.9 10.7 183 183 183
3.4 -22.8 10.7 183 183 183
5.5 -23.0 10.7 206 206 206
5.7 -22.9 10.7 208 208 208
6.0 -22.9 10.7 208 208 208
6.2 -23.0 10.7 208 208 208
6.4 -22.9 10.7 208 208 208
6.7 -22.8 10.7 208 208 208
7.0 -22.9 10.7 208 208 208
7.2 -22.9 10.7 208 208 208
7.4 -22.8 10.7 208 208 208
7.7 -22.9 10.7 208 208 208
7.9 -22.9 10.7 208 208 208
8.2 -22.9 10.7 208 208 208
8.4 -22.9 10.7 208 208 208
8.7 -23.0 10.8 208 208 208
9.0 -23.0 10.7 208 208 208
9.2 -22.9 10.7 208 208 208
9.4 -22.9 10.7 208 208 208
9.7 -22.9 10.7 208 208 208
9.9 -22.9 10.7 208 208 208
10.2 -22.9 10.7 208 208 208
10.9 -22.9 10.7 207 207 207
11.2 -22.9 10.7 207 207 207
11.4 -22.9 10.7 207 207 207
11.7 -22.9 10.7 207 207 207
11.9 -22.9 10.7 207 207 207
12.2 -22.9 10.7 207 207 207
12.4 -22.9 10.7 207 207 207
12.7 -22.9 10.7 207 207 207
12.9 -22.9 10.7 207 207 207
13.2 -22.9 10.7 207 207 207
13.4 -22.9 10.7 207 207 207
13.7 -22.9 10.7 207 207 207
13.9 -22.9 10.7 207 207 207
14.2 -22.9 10.7 207 207 207
14.4 -22.9 10.7 207 207 207
46.8 -66.4 31.1 207 207 207
53.0 -74.0 34.6 210 210 210
54.0 -74.2 34.7 207 207 207
55.8 -75.6 35.4 206 206 206
52.4 -69.0 32.3 206 206 206
52.9 -68.6 32.1 206 206 206
58.7 -74.0 34.6 207 207 207
27.1 -33.3 15.6 207 207 207
-30.6 -23.0 10.9 47 46 45
-30.6 -23.2 11.0 47 46 45
-30.3 -23.2 11.0 47 46 45
-30.1 -23.2 11.0 48 48 48
-29.8 -23.2 11.0 48 48 48
-29.6 -23.2 11.0 51 51 51
-29.3 -23.2 11.0 51 51 51
-29.1 -23.2 11.0 48 48 48
-28.8 -23.2 11.0 51 51 51
-28.5 -23.2 11.0 48 48 48
-28.3 -23.1 10.9 48 48 48
-28.0 -23.1 10.9 51 51 51
-27.8 -23.1 10.9 48 48 48
-27.7 -23.3 11.0 47 46 45
-27.2 -23.1 10.9 43 43 43
-27.0 -23.2 11.0 43 43 43
-26.9 -23.3 11.0 43 43 43
-26.7 -23.3 11.0 43 43 43
-26.3 -23.2 11.0 42 42 42
-26.0 -23.2 11.0 42 42 42
-25.7 -23.2 11.0 39 39 39
-25.5 -23.2 11.0 42 42 42
-25.2 -23.2 11.0 43 43 43
-25.0 -23.1 10.9 42 42 42
-24.9 -23.3 11.0 39 39 39
-23.9 -23.3 11.0 36 37 36
-23.6 -23.3 11.0 39 39 39
-23.2 -23.2 11.0 42 42 42
-23.0 -23.2 11.0 39 39 39
-22.9 -23.3 11.0 43 43 43
-22.5 -23.2 11.0 43 43 43
-22.3 -23.3 11.0 47 46 45
-22.1 -23.3 11.0 43 43 43
-21.4 -23.2 11.0 66 68 67
-21.3 -23.3 11.0 81 84 83
-21.0 -23.3 11.0 88 90 89
-19.9 -23.2 11.0 99 101 101
-19.6 -23.1 10.9 99 101 101
-19.3 -23.1 10.9 103 103 103
-18.9 -22.9 10.8 102 102 102
-18.1 -23.2 11.0 106 106 106
-17.8 -23.1 10.9 108 108 108
-17.7 -23.3 11.0 108 108 108
-17.3 -23.1 10.9 109 111 111
-17.0 -23.1 10.9 109 111 111
-16.7 -23.3 11.0 115 114 114
-16.3 -23.2 11.0 116 116 116
-16.2 -23.3 11.0 118 118 118
-10.8 -23.3 11.0 126 129 128
-10.3 -23.3 11.0 131 134 133
-9.9 -23.1 10.9 131 133 132
-9.7 -23.1 10.9 134 134 134
-9.4 -23.1 10.9 135 135 135
-9.2 -23.2 11.0 134 137 136
-8.9 -23.1 10.9 138 138 138
-8.6 -22.9 10.9 141 143 142
-6.2 -23.3 11.0 167 167 167
-5.9 -23.1 10.9 166 169 168
-5.7 -23.2 11.0 165 168 167
-5.4 -23.2 11.0 166 169 168
-5.2 -23.3 11.0 172 172 172
-4.9 -23.3 11.0 175 175 175
-4.6 -23.3 11.0 174 174 174
-4.4 -23.2 11.0 173 175 175
-3.6 -23.3 11.0 180 180 180
-3.4 -23.3 11.0 177 177 177
-3.1 -23.3 11.0 182 182 182
-2.8 -23.2 11.0 182 182 182
-2.1 -23.3 11.0 179 179 179
-1.6 -23.1 10.9 179 179 179
-1.3 -23.3 11.0 179 179 179
-1.1 -23.2 11.0 181 181 181
-0.8 -23.2 11.0 181 181 181
-0.5 -23.2 11.0 181 181 181
-0.3 -23.1 10.9 181 181 181
-0.0 -23.3 11.0 181 181 181
0.2 -23.3 11.0 181 181 181
0.5 -23.3 11.0 178 178 178
1.0 -23.2 11.0 180 180 180
1.7 -23.1 10.9 180 180 180
2.3 -23.3 11.0 182 182 182
2.5 -23.3 11.0 182 182 182
3.0 -23.4 11.0 182 182 182
3.3 -23.1 10.9 182 182 182
5.6 -23.2 11.0 207 207 207
5.8 -23.1 10.9 207 207 207
6.3 -23.2 11.0 207 207 207
6.9 -23.3 11.0 207 207 207
7.1 -23.3 11.0 207 207 207
7.4 -23.2 11.0 207 207 207
7.6 -23.3 11.0 207 207 207
7.9 -23.3 11.0 207 207 207
8.1 -23.2 11.0 207 207 207
8.4 -23.3 11.0 207 207 207
8.7 -23.3 11.0 207 207 207
8.9 -23.2 11.0 207 207 207
9.2 -23.3 11.0 207 207 207
9.4 -23.2 11.0 207 207 207
9.7 -23.2 11.0 207 207 207
9.9 -23.2 11.0 207 207 207
10.1 -23.1 10.9 207 207 207
10.4 -23.1 10.9 207 207 207
11.0 -23.3 11.0 207 207 207
11.2 -23.2 11.0 207 207 207
11.4 -23.2 11.0 207 207 207
11.7 -23.2 11.0 207 207 207
12.0 -23.2 11.0 207 207 207
12.2 -23.1 10.9 207 207 207
12.4 -23.1 10.9 207 207 207
12.7 -23.1 10.9 207 207 207
13.0 -23.2 11.0 207 207 207
13.2 -23.2 11.0 207 207 207
13.5 -23.3 11.0 207 207 207
13.8 -23.3 11.0 207 207 207
14.0 -23.2 11.0 207 207 207
14.2 -23.1 10.9 207 207 207
14.5 -23.2 11.0 207 207 207
14.8 -23.3 11.0 207 207 207
52.4 -71.3 33.7 207 207 207
51.7 -69.3 32.8 210 210 210
53.1 -70.2 33.2 207 207 207
52.7 -68.6 32.4 207 207 207
53.1 -68.1 32.2 206 206 206
54.9 -69.4 32.8 206 206 206
56.2 -70.2 33.2 206 206 206
58.3 -71.8 34.0 206 206 206
-31.0 -23.0 11.0 48 47 46
-29.0 -23.0 11.0 49 49 49
-28.7 -23.0 11.0 49 49 49
-28.5 -23.0 11.0 49 49 49
-28.2 -23.0 11.0 52 52 52
-27.9 -23.0 11.0 49 49 49
-27.4 -23.0 11.0 48 47 46
-27.2 -23.0 11.0 48 47 46
-25.7 -23.0 11.0 42 43 42
-25.4 -23.0 11.0 42 43 42
-23.9 -23.0 11.0 40 40 40
-23.6 -23.0 11.0 42 43 42
-23.3 -23.0 11.0 40 40 40
-23.1 -23.0 11.0 42 43 42
-22.9 -23.1 11.0 42 43 42
-22.6 -23.0 11.0 42 43 42
-21.6 -23.1 11.0 48 47 46
-21.1 -23.1 11.0 49 49 49
-19.7 -23.0 11.0 98 98 98
-19.5 -23.0 11.0 99 101 101
-17.7 -23.0 11.0 104 104 104
-16.4 -23.0 11.0 110 112 111
-10.8 -23.1 11.0 119 119 119
-9.7 -23.0 11.0 128 128 128
-11.5 -28.0 13.4 128 130 129
-11.2 -27.9 13.3 129 129 129
-6.0 -28.0 13.4 181 181 181
-5.6 -28.0 13.4 188 188 188
-5.3 -28.0 13.4 186 186 186
-5.0 -28.1 13.4 189 189 189
-3.1 -23.1 11.0 186 186 186
-1.1 -23.0 11.0 183 183 183
-0.8 -23.0 11.0 183 183 183
8.2 -28.6 13.7 207 207 207
8.5 -28.4 13.6 207 207 207
8.7 -28.0 13.4 209 209 209
9.0 -28.1 13.4 207 207 207
9.3 -28.1 13.4 207 207 207
9.6 -28.1 13.4 207 207 207
10.0 -28.1 13.4 207 207 207
10.2 -28.0 13.4 207 207 207
10.8 -27.9 13.4 207 207 207
11.1 -27.9 13.3 207 207 207
11.9 -28.3 13.5 207 207 207
12.1 -28.0 13.4 207 207 207
12.5 -28.1 13.4 206 206 206
12.7 -28.0 13.4 206 206 206
13.1 -28.1 13.4 206 206 206
13.4 -28.0 13.4 206 206 206
13.6 -28.0 13.4 206 206 206
13.9 -27.9 13.3 206 206 206
14.2 -27.9 13.4 206 206 206
14.5 -27.9 13.3 206 206 206
15.4 -28.3 13.6 206 206 206
15.6 -28.0 13.4 206 206 206
15.8 -28.0 13.4 206 206 206
16.4 -27.9 13.3 206 206 206
16.7 -27.8 13.3 206 206 206
51.6 -69.4 33.2 206 206 206
51.0 -67.6 32.3 206 206 206
52.4 -68.4 32.7 207 207 207
52.2 -67.1 32.1 207 207 207
52.5 -66.7 31.9 205 205 205
54.2 -67.8 32.4 205 205 205
55.4 -68.4 32.7 205 205 205
56.3 -68.5 32.8 206 206 206
-22.9 -22.6 10.9 41 41 41
-22.7 -22.7 11.0 39 39 39
-22.4 -22.7 11.0 39 39 39
-19.4 -22.6 10.9 91 94 93
-18.9 -22.3 10.8 95 95 95
-18.5 -22.3 10.8 96 96 96
-17.8 -22.6 10.9 101 103 103
-16.3 -22.7 11.0 106 106 106
-13.8 -27.8 13.4 109 109 109
-13.3 -27.4 13.3 109 111 111
-13.1 -27.7 13.4 113 114 113
-11.6 -27.7 13.4 110 110 110
-6.9 -27.8 13.4 193 193 193
0.3 -27.8 13.5 185 185 185
0.6 -27.8 13.4 184 184 184
8.3 -28.6 13.8 206 206 206
8.5 -28.1 13.6 206 206 206
9.1 -28.0 13.5 206 206 206
9.3 -27.8 13.4 206 206 206
10.3 -27.8 13.4 206 206 206
10.6 -27.8 13.4 206 206 206
12.0 -29.7 14.4 209 209 209
11.9 -28.0 13.5 206 206 206
12.1 -27.8 13.4 206 206 206
12.5 -27.8 13.5 206 206 206
13.4 -29.1 14.1 206 206 206
13.1 -27.8 13.5 206 206 206
13.4 -27.8 13.4 206 206 206
13.7 -27.7 13.4 206 206 206
14.0 -27.7 13.4 206 206 206
14.3 -27.8 13.4 206 206 206
14.6 -27.8 13.4 206 206 206
16.0 -29.1 14.1 206 206 206
15.6 -27.8 13.4 206 206 206
15.9 -27.7 13.4 206 206 206
16.5 -27.8 13.4 206 206 206
16.8 -27.7 13.4 206 206 206
52.1 -69.3 33.5 206 206 206
41.3 -53.3 25.8 206 206 206
52.2 -66.5 32.2 206 206 206
51.7 -64.9 31.4 206 206 206
56.6 -68.1 33.0 205 205 205
57.9 -68.7 33.2 205 205 205
-13.3 -27.7 13.6 69 69 69
-8.7 -23.9 11.7 179 182 181
-7.9 -23.8 11.7 178 178 178
1.3 -23.8 11.6 183 183 183
1.6 -23.7 11.6 183 183 183
1.9 -23.7 11.6 183 183 183
8.2 -29.1 14.2 206 206 206
10.2 -29.2 14.3 206 206 206
10.6 -29.2 14.3 208 208 208
10.9 -29.2 14.3 208 208 208
12.2 -29.9 14.6 208 208 208
12.3 -29.3 14.4 208 208 208
12.6 -29.2 14.3 208 208 208
12.9 -29.3 14.3 205 205 205
13.5 -29.1 14.3 205 205 205
13.9 -29.2 14.3 205 205 205
14.2 -29.2 14.3 205 205 205
12.2 -23.8 11.7 205 205 205
16.0 -29.4 14.4 205 205 205
16.2 -29.2 14.3 205 205 205
16.6 -29.3 14.3 205 205 205
42.3 -54.0 26.4 205 205 205
41.2 -51.8 25.4 206 206 206
-9.7 -23.4 11.6 30 29 28
-9.4 -23.4 11.6 33 36 35
-9.0 -23.5 11.6 180 183 182
-8.7 -23.6 11.7 184 184 184
-8.5 -23.7 11.7 186 186 186
-8.2 -23.6 11.7 214 214 214
-7.9 -23.4 11.6 218 221 220
1.3 -23.4 11.6 185 185 185
1.6 -23.4 11.6 185 185 185
1.8 -23.3 11.5 185 185 185
2.1 -23.3 11.5 185 185 185
8.0 -23.4 11.6 205 205 205
11.4 -31.1 15.4 208 208 208
11.7 -30.9 15.3 208 208 208
9.1 -23.4 11.6 205 205 205
12.8 -31.1 15.4 208 208 208
13.2 -31.1 15.4 208 208 208
14.2 -31.0 15.3 205 205 205
14.6 -31.1 15.4 205 205 205
14.9 -31.0 15.3 205 205 205
11.8 -23.5 11.6 205 205 205
12.1 -23.4 11.6 205 205 205
12.3 -23.4 11.6 205 205 205
16.7 -31.0 15.4 205 205 205
14.0 -23.4 11.6 205 205 205
14.2 -23.4 11.6 205 205 205
42.6 -53.8 26.6 205 205 205
44.6 -54.0 26.7 205 205 205
45.2 -53.9 26.7 206 206 206
-9.4 -23.0 11.5 35 35 35
-8.9 -23.2 11.6 179 182 181
-7.8 -23.0 11.5 222 222 222
-7.4 -22.7 11.4 222 222 222
1.3 -23.1 11.5 190 190 190
1.6 -22.9 11.5 190 190 190
1.8 -22.9 11.5 186 186 186
2.1 -22.9 11.5 186 186 186
8.0 -23.0 11.5 205 205 205
8.1 -22.6 11.3 207 207 207
8.4 -22.5 11.3 207 207 207
8.8 -23.1 11.6 207 207 207
9.0 -23.0 11.5 207 207 207
11.2 -23.0 11.5 204 204 204
11.5 -23.1 11.6 204 204 204
11.8 -23.1 11.6 204 204 204
12.2 -22.9 11.5 204 204 204
12.5 -22.9 11.5 204 204 204
14.1 -22.9 11.5 207 207 207
14.3 -22.7 11.4 207 207 207
40.8 -50.2 25.1 204 204 204
41.1 -49.9 25.0 205 205 205
41.9 -50.1 25.1 205 205 205
45.1 -53.2 26.6 205 205 205
-35.0 -24.6 12.4 54 54 54
-26.4 -24.6 12.4 47 47 47
-26.0 -24.5 12.4 47 48 47
-22.3 -21.2 10.7 47 48 47
-22.0 -21.2 10.8 45 45 45
-24.3 -24.5 12.4 43 43 43
-18.2 -21.2 10.7 43 43 43
10.9 -33.3 16.9 207 207 207
13.7 -33.3 16.8 207 207 207
14.0 -33.3 16.8 207 207 207
11.6 -24.8 12.6 204 204 204
12.1 -24.6 12.4 204 204 204
13.0 -24.6 12.4 204 204 204
15.3 -24.6 12.4 206 206 206
21.5 -33.2 16.8 206 206 206
41.1 -49.9 25.3 204 204 204
41.4 -49.7 25.2 204 204 204
42.1 -49.7 25.2 204 204 204
42.9 -50.0 25.3 204 204 204
43.7 -50.3 25.5 205 205 205
45.5 -49.7 25.2 205 205 205
-35.2 -24.4 12.5 55 55 55
-35.0 -24.5 12.5 58 58 58
-34.7 -24.4 12.5 58 58 58
-34.4 -24.5 12.5 59 61 59
-34.1 -24.4 12.5 58 58 58
-33.8 -24.4 12.5 60 62 60
-33.5 -24.4 12.5 60 62 60
-32.9 -24.4 12.5 58 58 58
-32.6 -24.4 12.5 58 58 58
-32.4 -24.4 12.5 58 58 58
-31.8 -24.5 12.5 58 59 59
-31.5 -24.5 12.5 58 59 59
-31.2 -24.4 12.5 54 54 54
-30.9 -24.4 12.5 54 54 54
-30.6 -24.4 12.5 54 54 54
-30.4 -24.5 12.5 49 49 49
-30.1 -24.5 12.5 49 49 49
-29.8 -24.5 12.5 49 49 49
-29.4 -24.4 12.5 49 49 49
-29.2 -24.4 12.5 49 49 49
-28.9 -24.4 12.5 49 49 49
-28.5 -24.4 12.5 53 52 51
-28.3 -24.4 12.5 53 52 51
-28.0 -24.5 12.5 49 49 49
-27.7 -24.4 12.5 50 50 50
-27.3 -24.4 12.5 50 50 50
-27.1 -24.4 12.5 50 50 50
-26.9 -24.5 12.6 47 48 47
-26.5 -24.4 12.5 48 48 48
-26.2 -24.4 12.5 48 48 48
-25.9 -24.4 12.5 48 48 48
-25.6 -24.4 12.5 48 48 48
-25.2 -24.3 12.4 48 48 48
-24.9 -24.6 12.6 47 47 47
-24.4 -24.4 12.5 47 47 47
-23.9 -24.5 12.5 45 45 45
-23.6 -24.5 12.5 42 43 42
-23.4 -24.5 12.5 42 43 42
-22.9 -24.3 12.5 41 41 39
-22.9 -24.6 12.6 43 43 43
-22.6 -24.6 12.6 42 42 40
-22.2 -24.5 12.6 40 40 40
-21.8 -24.4 12.5 38 40 40
-21.5 -24.4 12.5 38 40 40
-20.9 -24.4 12.5 39 41 41
-11.4 -24.5 12.6 29 31 29
-11.1 -24.4 12.5 29 30 28
-10.7 -24.3 12.5 32 32 32
-10.2 -24.4 12.5 44 44 44
-9.8 -24.2 12.4 159 159 159
7.3 -24.6 12.6 206 206 206
7.6 -24.6 12.6 206 206 206
7.8 -24.4 12.5 206 206 206
8.1 -24.3 12.5 206 206 206
8.4 -24.3 12.5 206 206 206
8.8 -24.6 12.6 206 206 206
9.1 -24.6 12.6 206 206 206
9.3 -24.5 12.6 206 206 206
9.6 -24.5 12.6 206 206 206
9.9 -24.5 12.5 206 206 206
10.2 -24.4 12.5 206 206 206
10.4 -24.4 12.5 206 206 206
10.7 -24.4 12.5 206 206 206
11.4 -24.7 12.7 206 206 206
11.6 -24.5 12.6 206 206 206
11.9 -24.4 12.5 203 203 203
12.1 -24.3 12.5 203 203 203
12.4 -24.3 12.5 203 203 203
12.7 -24.3 12.5 203 203 203
13.0 -24.4 12.5 203 203 203
13.3 -24.4 12.5 200 200 200
13.6 -24.4 12.5 203 203 203
13.9 -24.4 12.5 206 206 206
14.6 -24.6 12.6 206 206 206
14.8 -24.5 12.6 206 206 206
15.3 -24.4 12.5 206 206 206
15.6 -24.4 12.5 206 206 206
15.9 -24.3 12.5 206 206 206
42.3 -51.5 26.4 203 203 203
41.8 -50.2 25.7 203 203 203
42.3 -50.1 25.7 203 203 203
42.9 -50.1 25.7 204 204 204
43.6 -50.2 25.7 204 204 204
44.3 -50.3 25.8 204 204 204
45.0 -50.5 25.9 204 204 204
45.6 -50.5 25.9 204 204 204
46.0 -50.3 25.8 205 205 205
45.7 -49.3 25.3 205 205 205
-35.8 -24.5 12.7 56 56 56
-35.5 -24.5 12.7 58 59 59
-35.2 -24.5 12.7 58 59 59
-34.9 -24.5 12.7 58 59 59
-34.6 -24.5 12.7 58 59 59
-34.3 -24.5 12.7 60 62 60
-34.0 -24.5 12.7 61 63 61
-32.2 -24.5 12.7 58 59 59
-31.9 -24.5 12.7 58 59 59
-31.6 -24.5 12.7 54 54 54
-28.9 -24.5 12.7 50 50 50
-28.7 -24.5 12.7 50 50 50
-28.4 -24.5 12.7 50 50 50
-28.1 -24.5 12.7 51 51 51
-27.8 -24.5 12.7 51 51 51
-27.5 -24.5 12.7 51 51 51
-27.2 -24.5 12.7 51 51 51
-26.9 -24.5 12.7 51 51 51
-26.6 -24.5 12.7 51 51 51
-26.3 -24.5 12.7 49 49 49
-25.9 -24.4 12.7 49 49 49
-25.2 -24.5 12.7 47 48 47
-22.9 -24.6 12.8 43 42 41
-22.5 -24.5 12.7 44 44 44
-22.0 -24.3 12.6 43 42 41
-11.5 -24.4 12.7 29 31 29
-11.2 -24.4 12.7 29 31 29
-9.9 -24.0 12.5 175 175 175
7.7 -24.5 12.7 206 206 206
8.9 -24.7 12.8 206 206 206
9.4 -24.5 12.7 206 206 206
9.7 -24.5 12.7 206 206 206
10.0 -24.5 12.7 206 206 206
11.6 -24.7 12.8 205 205 205
11.8 -24.5 12.7 205 205 205
12.1 -24.5 12.7 205 205 205
12.2 -24.1 12.5 203 203 203
13.9 -24.5 12.7 205 205 205
14.5 -24.6 12.7 205 205 205
14.7 -24.5 12.7 205 205 205
43.2 -52.0 27.0 203 203 203
43.3 -51.4 26.6 206 206 206
44.0 -51.5 26.7 206 206 206
44.7 -51.6 26.8 206 206 206
44.9 -51.1 26.5 206 206 206
45.0 -50.6 26.2 203 203 203
46.6 -51.6 26.8 204 204 204
46.3 -49.3 25.6 204 204 204
-11.2 -24.1 12.7 29 31 29
-10.9 -24.0 12.6 32 31 30
-10.5 -23.9 12.6 34 34 34
-10.2 -23.8 12.5 42 43 42
-9.9 -23.7 12.4 176 176 176
44.7 -54.0 28.4 205 205 205
44.9 -53.4 28.0 205 205 205
44.9 -52.7 27.7 205 205 205
46.0 -53.1 27.9 205 205 205
45.9 -52.4 27.5 205 205 205
45.5 -51.2 26.9 205 205 205
45.4 -50.4 26.5 206 206 206
48.6 -53.2 27.9 203 203 203
963.6 -581.1 305.1 183 183 183
-11.2 -23.7 12.6 58 59 59
-10.2 -23.5 12.5 46 46 46
-9.8 -23.2 12.3 180 180 180
46.3 -55.2 29.3 204 204 204
45.4 -53.4 28.4 204 204 204
48.2 -55.1 29.3 205 205 205
47.2 -53.1 28.2 205 205 205
45.9 -51.0 27.1 205 205 205
46.1 -50.6 26.9 205 205 205
-12.7 -24.7 13.3 54 53 52
-11.5 -23.5 12.7 31 32 30
-11.3 -23.6 12.7 30 31 30
-10.3 -23.4 12.6 50 50 50
-9.9 -23.1 12.4 179 179 179
45.7 -53.0 28.5 204 204 204
48.7 -54.9 29.6 204 204 204
49.5 -55.0 29.6 204 204 204
-12.7 -23.9 13.0 11 11 11
-12.6 -24.3 13.2 45 44 43
-10.1 -20.3 11.1 37 38 37
-11.3 -23.4 12.7 47 47 47
-10.0 -23.1 12.6 183 183 183
45.7 -52.4 28.6 203 203 203
49.1 -54.7 29.8 203 203 203
50.4 -55.4 30.2 204 204 204
53.2 -56.1 30.6 204 204 204
-12.7 -23.6 13.0 30 29 29
-12.6 -23.8 13.2 128 128 128
-10.1 -20.1 11.1 118 118 118
-11.3 -23.2 12.8 86 85 83
-11.1 -24.0 13.3 47 48 47
-10.8 -23.9 13.2 52 52 52
46.2 -52.3 28.9 205 205 205
50.9 -56.0 30.9 203 203 203
51.0 -55.3 30.5 205 205 205
53.1 -56.8 31.4 203 203 203
53.7 -55.9 30.9 203 203 203
-37.3 -23.7 13.2 67 67 67
-37.0 -23.7 13.3 68 68 68
-36.7 -23.7 13.3 68 68 68
-36.4 -23.7 13.3 68 68 68
-36.1 -23.7 13.3 68 68 68
-35.9 -23.8 13.3 68 68 68
-35.5 -23.7 13.3 68 68 68
-35.2 -23.8 13.3 69 69 69
-34.0 -23.8 13.3 69 69 69
-33.7 -23.8 13.3 66 67 65
-33.3 -23.7 13.3 67 68 66
-33.0 -23.7 13.3 64 64 64
-32.7 -23.7 13.3 64 64 64
-32.5 -23.8 13.3 62 62 62
-32.2 -23.8 13.3 62 62 62
-31.8 -23.7 13.3 60 60 60
-31.5 -23.7 13.3 60 60 60
-31.2 -23.7 13.3 60 60 60
-30.9 -23.7 13.3 60 60 60
-30.5 -23.7 13.2 60 60 60
-30.3 -23.7 13.3 60 60 60
-30.0 -23.8 13.3 59 59 57
-29.7 -23.8 13.3 59 59 57
-13.3 -23.7 13.3 124 127 126
-12.9 -23.6 13.2 30 29 29
-12.7 -23.7 13.2 126 129 128
-10.1 -19.8 11.1 35 34 33
-11.2 -23.8 13.3 50 50 50
-10.8 -23.7 13.3 58 59 59
-9.9 -23.7 13.3 181 184 183
54.1 -57.1 32.0 205 205 205
54.0 -56.2 31.4 203 203 203
53.9 -55.4 31.0 203 203 203
-13.3 -23.5 13.3 120 122 121
-13.0 -23.5 13.3 33 35 33
-12.7 -23.5 13.3 86 85 83
-10.1 -19.6 11.1 110 110 110
-11.3 -23.7 13.4 46 46 46
-10.9 -23.7 13.4 57 57 57
-10.6 -23.5 13.3 181 184 183
56.3 -58.7 33.2 205 205 205
55.0 -56.5 32.0 205 205 205
53.9 -54.7 31.0 205 205 205
34.2 -30.2 17.1 204 204 204
34.1 -29.8 16.9 200 200 200
34.2 -29.6 16.7 200 200 200
-10.1 -19.4 11.1 43 43 43
-11.0 -24.1 13.8 181 184 183
-10.7 -24.2 13.9 179 182 181
-10.4 -24.2 13.9 179 182 181
57.4 -58.2 33.4 204 204 204
54.1 -54.2 31.1 204 204 204
35.1 -30.6 17.6 203 203 203
34.7 -29.9 17.2 203 203 203
49.6 -42.3 24.3 203 203 203
-10.1 -19.1 11.1 77 78 76
-10.9 -24.2 14.1 179 182 181
-10.5 -24.2 14.1 179 182 181
61.5 -61.6 35.8 204 204 204
50.9 -43.3 25.2 203 203 203
49.3 -41.5 24.2 203 203 203
-10.1 -18.8 11.1 36 37 36
-11.1 -24.4 14.4 180 183 182
-3.8 -17.1 10.1 208 208 208
-0.3 -17.1 10.1 203 205 205
1.1 -17.0 10.0 194 194 194
3.5 -17.1 10.1 181 181 181
6.7 -17.0 10.0 207 207 207
7.5 -17.2 10.1 207 207 207
7.7 -17.1 10.1 204 204 204
8.5 -17.3 10.2 207 207 207
8.6 -17.0 10.0 207 207 207
9.3 -17.0 10.0 206 206 206
9.5 -17.0 10.0 206 206 206
10.6 -17.3 10.2 203 203 203
10.9 -17.0 10.0 203 203 203
11.1 -17.0 10.0 206 206 206
11.6 -17.0 10.0 206 206 206
12.4 -17.1 10.1 206 206 206
13.5 -17.0 10.0 206 206 206
61.9 -61.1 36.0 207 207 207
50.7 -42.6 25.1 206 206 206
49.5 -41.1 24.2 203 203 203
-11.1 -25.7 15.4 179 182 181
-10.5 -25.0 15.0 175 175 175
-5.7 -17.0 10.2 192 192 192
-5.5 -17.1 10.2 193 193 193
-3.8 -17.1 10.2 199 199 199
-3.6 -17.1 10.2 202 202 202
-2.4 -17.2 10.3 202 202 202
-2.2 -17.2 10.3 203 205 205
-1.9 -17.1 10.2 203 205 205
0.9 -17.1 10.2 192 192 192
1.9 -17.2 10.3 191 191 191
2.1 -17.2 10.3 191 191 191
3.5 -17.1 10.2 182 182 182
3.7 -17.0 10.2 182 182 182
5.9 -17.2 10.3 209 212 211
6.2 -17.1 10.2 207 207 207
7.4 -17.1 10.3 207 207 207
7.6 -17.1 10.2 207 207 207
7.8 -17.1 10.2 207 207 207
8.0 -17.0 10.2 207 207 207
8.3 -17.1 10.3 207 207 207
8.6 -17.2 10.3 207 207 207
8.8 -17.2 10.3 204 204 204
9.0 -17.2 10.3 206 206 206
9.3 -17.1 10.3 206 206 206
9.5 -17.1 10.2 206 206 206
9.7 -17.1 10.2 206 206 206
9.9 -17.1 10.2 206 206 206
10.7 -17.2 10.3 206 206 206
10.9 -17.1 10.2 203 203 203
11.1 -17.1 10.2 203 203 203
11.3 -17.0 10.2 206 206 206
11.6 -17.1 10.2 206 206 206
11.8 -17.1 10.2 206 206 206
12.1 -17.1 10.2 206 206 206
12.6 -17.1 10.3 206 206 206
12.8 -17.1 10.2 206 206 206
13.0 -17.1 10.2 206 206 206
13.3 -17.1 10.2 206 206 206
13.6 -17.2 10.3 206 206 206
13.7 -17.1 10.2 205 205 205
14.2 -17.1 10.2 205 205 205
14.4 -17.0 10.2 205 205 205
65.0 -63.3 37.8 206 206 206
45.8 -41.3 24.7 207 207 207
46.1 -41.0 24.5 207 207 207
48.3 -41.0 24.5 205 205 205
50.6 -41.9 25.1 205 205 205
50.2 -41.1 24.6 203 203 203
29.1 -22.3 13.3 182 182 182
29.3 -22.2 13.3 184 184 184
-10.1 -18.3 11.1 112 112 112
-11.6 -25.6 15.5 181 184 183
-11.1 -25.3 15.4 174 174 174
-10.6 -24.9 15.1 161 161 161
-5.8 -17.0 10.3 178 178 178
-3.6 -17.0 10.3 190 190 190
7.8 -16.9 10.3 207 207 207
9.8 -17.1 10.3 206 206 206
11.3 -17.1 10.4 206 206 206
12.0 -17.4 10.6 206 206 206
11.9 -17.0 10.3 206 206 206
14.6 -17.0 10.3 205 205 205
65.1 -63.4 38.4 206 206 206
65.8 -63.1 38.3 206 206 206
65.7 -62.3 37.8 206 206 206
47.0 -41.8 25.3 207 207 207
46.1 -40.5 24.5 207 207 207
49.0 -40.9 24.8 205 205 205
49.8 -41.2 25.0 208 208 208
51.1 -41.7 25.3 205 205 205
50.5 -40.8 24.7 206 206 206
29.3 -22.1 13.4 188 188 188
70.0 -33.1 20.1 177 177 177
70.3 -33.0 20.0 180 180 180
-12.4 -25.5 15.7 188 190 190
-11.6 -25.2 15.5 183 186 185
-11.2 -25.1 15.4 176 176 176
-10.6 -24.7 15.2 156 159 158
66.3 -63.7 39.2 207 210 209
66.8 -63.3 38.9 207 210 209
66.4 -62.0 38.1 207 210 209
48.0 -42.0 25.8 207 207 207
47.0 -40.7 25.0 207 207 207
47.9 -40.9 25.2 207 207 207
50.0 -41.2 25.4 208 208 208
51.0 -41.6 25.6 208 208 208
51.7 -41.6 25.6 208 208 208
29.6 -22.3 13.7 188 188 188
69.7 -32.5 20.0 179 179 179
70.0 -32.5 20.0 179 179 179
-19.2 -16.6 10.3 176 179 178
-12.6 -25.4 15.8 189 191 191
-12.3 -25.5 15.9 186 188 187
-11.7 -25.1 15.6 184 184 184
-11.2 -24.9 15.5 179 179 179
-10.8 -24.6 15.4 158 161 160
68.3 -64.6 40.3 207 210 209
68.2 -63.7 39.7 207 210 209
68.2 -62.8 39.2 207 210 209
67.8 -61.6 38.4 207 210 209
63.7 -57.1 35.6 206 206 206
49.4 -42.6 26.6 206 206 206
48.3 -41.2 25.7 207 207 207
49.1 -41.4 25.8 207 207 207
52.8 -41.9 26.1 208 208 208
29.2 -21.5 13.4 188 188 188
71.1 -32.7 20.4 180 180 180
70.9 -32.4 20.2 180 180 180
-11.8 -24.9 15.8 185 185 185
-11.3 -24.6 15.6 175 177 177
-10.9 -24.5 15.5 168 168 168
71.5 -66.7 42.2 206 209 208
70.2 -64.5 40.9 206 209 208
69.9 -63.4 40.2 207 210 209
70.1 -62.8 39.7 209 212 211
50.2 -42.7 27.0 206 206 206
49.5 -41.6 26.3 206 206 206
59.3 -27.1 17.1 181 181 181
58.3 -26.4 16.7 181 181 181
71.1 -32.0 20.3 181 181 181
-11.3 -24.4 15.7 180 180 180
-10.9 -24.2 15.6 170 171 170
71.9 -65.1 41.9 206 209 208
71.6 -64.0 41.1 206 209 208
73.5 -64.8 41.7 207 210 209
76.1 -66.3 42.6 207 210 209
59.0 -26.4 16.9 184 184 184
71.2 -31.6 20.3 182 182 182
61.0 -26.0 16.7 169 171 170
61.5 -26.1 16.8 157 160 159
72.8 -65.0 42.4 204 204 204
77.9 -67.7 44.2 206 209 208
79.2 -67.9 44.3 207 210 209
71.0 -31.0 20.3 185 185 185
69.6 -30.2 19.7 183 183 183
61.0 -25.7 16.7 169 169 169
61.1 -25.5 16.7 159 162 161
-28.4 -15.2 10.1 63 63 63
-24.8 -15.3 10.1 36 36 36
-24.5 -15.3 10.1 40 42 42
-24.2 -15.2 10.1 45 44 43
-24.1 -15.3 10.1 47 47 47
-18.3 -15.2 10.1 67 67 67
-18.2 -15.3 10.1 64 64 64
-17.9 -15.3 10.1 57 57 57
-15.5 -15.3 10.1 27 27 27
-15.3 -15.3 10.1 23 26 24
-15.1 -15.3 10.1 19 19 19
-14.9 -15.3 10.1 30 29 29
-14.7 -15.3 10.2 33 35 33
-14.3 -15.2 10.0 30 29 29
-12.9 -15.2 10.1 32 32 32
-12.8 -15.3 10.1 30 30 30
-12.6 -15.4 10.2 32 32 32
-13.7 -28.5 18.9 177 180 179
-13.2 -28.4 18.8 175 175 175
-12.9 -28.7 19.0 172 172 172
-12.4 -28.7 19.0 170 171 170
-11.9 -28.4 18.8 165 165 165
72.8 -64.0 42.4 206 209 208
83.6 -71.6 47.4 206 209 208
84.5 -71.4 47.3 206 209 208
70.9 -30.5 20.2 186 186 186
70.2 -30.0 19.9 184 184 184
71.2 -30.2 20.0 184 184 184
60.8 -25.2 16.7 168 168 168
60.6 -24.9 16.5 160 160 160
61.1 -25.0 16.5 155 155 155
-12.8 -15.4 10.3 33 35 33
-13.9 -28.5 19.2 178 181 180
-13.4 -28.5 19.2 176 176 176
-13.0 -28.5 19.2 175 175 175
-12.5 -28.5 19.2 168 168 168
-12.0 -28.4 19.1 161 164 163
11.2 -15.3 10.3 206 209 208
71.4 -30.3 20.4 185 185 185
70.7 -29.8 20.0 185 185 185
71.4 -29.8 20.1 185 185 185
61.3 -25.0 16.8 168 168 168
60.5 -24.5 16.5 161 161 161
60.4 -24.3 16.4 155 155 155
-14.7 -28.8 19.7 180 183 182
-14.1 -28.5 19.5 179 182 181
-13.5 -28.3 19.3 176 176 176
-13.1 -28.4 19.4 175 175 175
-12.7 -28.5 19.5 169 169 169
-12.2 -28.4 19.4 162 162 162
10.1 -15.2 10.4 209 212 211
10.6 -15.2 10.4 206 209 208
11.0 -15.2 10.4 206 209 208
11.3 -15.1 10.3 206 209 208
11.8 -15.2 10.4 208 211 210
12.5 -15.1 10.4 208 211 210
12.7 -15.2 10.4 208 211 210
14.2 -15.2 10.4 204 207 206
14.4 -15.2 10.4 207 210 209
14.6 -15.1 10.3 207 210 209
15.4 -15.2 10.4 206 209 208
115.8 -96.1 65.7 208 211 210
674.2 -494.2 337.8 208 211 210
74.0 -30.9 21.1 186 186 186
74.2 -30.8 21.0 186 186 186
62.3 -25.0 17.1 163 166 165
61.2 -24.4 16.7 160 160 160
60.7 -24.0 16.4 153 153 153
-14.2 -28.2 19.6 167 167 167
-13.5 -27.8 19.3 174 174 174
-13.1 -27.9 19.4 178 178 178
-12.8 -28.2 19.6 143 143 142
-12.2 -27.9 19.4 25 27 25
13.6 -15.1 10.5 207 210 209
14.4 -14.9 10.3 206 209 208
15.5 -15.3 10.6 206 209 208
609.0 -439.3 305.1 210 213 212
76.5 -31.6 22.0 191 191 191
75.0 -30.8 21.4 188 188 188
74.5 -30.4 21.1 188 188 188
76.1 -30.8 21.4 188 188 188
63.4 -25.0 17.4 164 164 164
62.1 -24.4 16.9 160 160 160
61.4 -23.9 16.6 155 155 155
60.6 -23.5 16.3 150 150 150
-13.5 -27.4 19.3 171 173 173
-13.1 -27.5 19.4 163 163 163
-12.8 -27.8 19.6 122 124 123
-12.2 -27.4 19.3 46 46 46
111.6 -89.6 63.3 208 211 210
76.9 -31.3 22.1 192 192 192
75.6 -30.5 21.5 189 189 189
78.0 -31.1 21.9 189 189 189
77.1 -30.6 21.6 186 186 186
62.7 -24.2 17.1 158 158 158
61.8 -23.7 16.7 153 155 155
61.9 -23.6 16.7 151 151 151
65.4 -24.6 17.4 140 142 141
-13.6 -28.0 20.1 177 177 177
-13.1 -27.8 20.0 176 176 176
185.7 -144.8 103.9 208 211 210
193.4 -148.9 106.9 208 211 210
199.5 -149.8 107.5 214 214 214
76.4 -30.6 21.9 193 193 193
75.4 -30.0 21.5 190 190 190
78.7 -30.9 22.2 190 190 190
78.1 -30.4 21.8 188 188 188
63.4 -24.1 17.3 155 158 157
62.4 -23.5 16.9 153 153 153
62.5 -23.4 16.8 144 146 146
64.0 -23.9 17.1 141 141 141
65.2 -24.1 17.3 133 133 133
196.9 -157.1 114.6 207 210 209
196.5 -150.7 110.0 208 211 210
203.8 -154.3 112.6 208 211 210
197.0 -147.3 107.5 208 211 210
199.5 -147.3 107.5 208 211 210
246.9 -180.0 131.4 209 212 211
250.0 -180.0 131.4 209 212 211
76.2 -29.8 21.7 194 194 194
79.1 -30.5 22.3 191 191 191
79.7 -30.5 22.3 189 189 189
78.8 -30.0 21.9 179 182 181
63.3 -23.5 17.1 148 150 150
63.4 -23.4 17.1 138 140 139
64.6 -23.7 17.3 131 133 132
65.2 -23.7 17.3 131 133 132
-15.4 -30.6 22.7 180 180 180
-14.9 -30.6 22.7 179 179 179
250.3 -199.0 147.8 206 209 208
224.0 -175.7 130.5 206 209 208
233.1 -175.7 130.5 207 210 209
226.7 -168.7 125.3 208 211 210
234.3 -172.1 127.8 208 211 210
287.9 -208.8 155.1 208 211 210
303.9 -217.8 161.7 208 211 210
283.4 -200.6 148.9 209 212 211
253.0 -176.9 131.4 209 212 211
76.2 -29.3 21.7 195 195 195
79.3 -30.0 22.3 190 190 190
80.6 -30.4 22.5 190 190 190
80.8 -30.2 22.4 176 176 176
79.3 -29.5 21.9 165 165 165
65.7 -23.7 17.6 134 136 135
65.6 -23.5 17.4 133 133 133
-27.0 -14.9 11.3 104 104 104
-16.8 -14.9 11.3 20 23 21
-15.2 -14.9 11.3 44 44 44
-15.0 -14.9 11.3 94 94 94
-15.6 -30.5 23.1 176 179 178
-15.0 -30.4 23.0 179 179 179
-14.4 -30.3 22.9 149 149 149
15.1 -13.3 10.0 209 209 209
250.3 -195.6 147.8 210 210 210
227.1 -175.1 132.3 211 211 211
241.4 -178.8 135.1 207 210 209
236.1 -172.7 130.5 207 210 209
253.1 -182.8 138.1 208 211 210
266.1 -189.7 143.3 208 211 210
286.8 -201.9 152.6 208 211 210
281.2 -195.6 147.8 209 212 211
256.6 -176.3 133.2 209 212 211
283.7 -192.6 145.5 209 212 211
318.3 -208.6 157.6 210 213 212
79.5 -29.6 22.4 180 180 180
81.2 -30.1 22.7 172 172 172
83.0 -30.5 23.1 169 169 169
66.9 -23.8 18.0 134 134 134
66.6 -23.6 17.8 134 134 134
66.6 -23.4 17.7 134 134 134
-27.0 -14.6 11.2 108 110 110
-17.0 -14.6 11.2 33 33 31
-16.7 -14.6 11.2 87 89 88
-15.7 -14.6 11.2 121 121 121
-15.5 -14.6 11.2 36 37 36
-15.2 -14.6 11.3 36 37 36
-16.0 -30.7 23.6 154 156 156
-15.5 -30.8 23.7 85 87 87
256.3 -196.8 151.3 210 210 210
229.8 -165.1 127.0 207 210 209
255.0 -180.9 139.1 207 210 209
292.7 -205.0 157.6 208 211 210
301.3 -208.5 160.3 208 211 210
283.4 -193.7 148.9 208 211 210
253.0 -170.8 131.4 209 212 211
629.3 -410.0 315.3 210 213 212
303.1 -195.2 150.1 210 213 212
82.5 -30.0 23.1 159 159 159
84.8 -30.6 23.6 153 155 155
86.0 -30.9 23.7 139 141 140
67.7 -23.5 18.1 134 134 134
68.2 -23.6 18.1 133 133 133
70.1 -24.1 18.5 131 133 132
-25.0 -13.6 10.6 29 31 29
-24.8 -13.6 10.6 26 26 26
-23.6 -13.6 10.7 183 183 183
-23.3 -13.6 10.6 115 114 114
237.8 -167.8 131.4 215 215 215
321.1 -223.7 175.2 215 215 215
390.2 -268.4 210.2 216 216 216
382.3 -259.8 203.4 216 216 216
339.6 -227.9 178.5 214 214 214
619.0 -396.0 310.1 215 215 215
788.5 -493.0 386.0 210 213 212
429.4 -265.5 207.9 216 216 216
85.7 -30.4 23.8 138 138 138
88.0 -31.0 24.3 132 135 134
87.8 -30.7 24.1 132 135 134
68.5 -23.4 18.3 128 128 128
69.2 -23.5 18.4 128 128 128
70.3 -23.7 18.6 128 128 128
-26.0 -13.5 10.8 60 60 60
-25.8 -13.5 10.8 37 38 37
-25.5 -13.5 10.8 39 39 39
-25.1 -13.4 10.7 34 34 34
-24.9 -13.4 10.7 26 26 26
-24.8 -13.5 10.8 24 24 24
-23.9 -13.4 10.7 176 179 178
-23.8 -13.5 10.8 192 192 192
-23.4 -13.4 10.7 161 161 161
-23.1 -13.4 10.7 147 149 149
-12.0 -13.5 10.7 27 29 27
468.2 -316.2 252.2 212 213 212
450.1 -300.2 239.4 212 213 212
383.0 -252.3 201.2 212 213 212
639.9 -402.0 320.6 215 215 215
89.8 -30.9 24.6 121 121 121
70.5 -23.5 18.7 121 121 121
71.0 -23.5 18.7 124 124 124
70.6 -23.2 18.5 126 126 126
-23.5 -12.4 10.1 18 22 19
-23.1 -12.4 10.0 20 23 21
-22.6 -12.4 10.1 155 155 155
-23.3 -13.1 10.7 148 150 150
-11.6 -12.5 10.2 36 36 36
-11.9 -13.1 10.7 102 102 102
-18.8 -35.4 28.7 91 93 92
-17.8 -34.7 28.2 89 91 90
501.7 -332.6 270.2 212 213 212
455.9 -298.4 242.5 212 213 212
92.8 -31.3 25.5 112 112 112
94.1 -31.5 25.6 112 112 112
71.5 -23.4 19.0 112 112 112
71.5 -23.3 18.9 116 118 117
71.3 -23.0 18.7 128 128 128
-23.1 -12.1 10.0 20 23 21
-23.2 -12.4 10.3 117 119 118
-12.0 -12.4 10.3 69 71 69
-11.7 -12.3 10.2 36 36 36
-19.1 -35.2 29.1 91 93 92
-18.2 -34.8 28.8 89 91 90
95.1 -31.5 26.1 108 108 108
95.9 -31.5 26.1 108 108 108
72.1 -23.0 19.0 84 84 84
71.6 -22.7 18.8 150 152 152
-24.4 -12.3 10.4 26 26 26
-24.1 -12.2 10.3 26 26 26
-23.9 -12.3 10.4 24 24 24
-23.8 -12.3 10.4 24 24 24
-23.4 -12.3 10.4 111 111 111
-23.2 -12.3 10.4 149 151 151
-16.9 -12.3 10.4 40 42 42
-16.7 -12.3 10.4 32 31 30
-16.4 -12.2 10.3 29 30 28
-16.1 -12.2 10.3 84 86 86
-15.9 -12.3 10.4 40 42 42
-15.7 -12.3 10.4 57 56 55
-15.5 -12.3 10.4 84 86 86
-12.1 -12.3 10.4 24 24 24
-11.7 -12.2 10.3 25 25 25
-21.1 -36.9 31.2 124 126 125
-19.4 -35.2 29.7 96 96 96
-18.6 -34.9 29.5 93 93 93
-18.0 -35.1 29.6 84 84 84
71.7 -22.4 18.9 64 64 64
70.7 -22.0 18.6 152 154 154
-24.4 -12.1 10.4 97 97 97
-24.2 -12.1 10.4 70 70 70
-23.9 -12.1 10.4 34 34 34
-23.8 -12.1 10.4 13 13 13
-23.5 -12.1 10.4 97 97 97
-23.2 -12.0 10.4 148 150 150
-23.0 -12.1 10.4 174 174 174
-16.0 -12.1 10.4 62 62 62
-15.8 -12.1 10.4 48 48 48
-12.1 -12.0 10.4 25 25 25
-21.8 -37.3 32.2 128 128 128
-29.7 -14.5 12.8 138 140 139
-29.5 -14.6 12.8 148 150 150
-28.8 -14.5 12.8 116 118 117
-28.4 -14.5 12.7 166 169 168
740.8 -448.3 394.1 216 216 216
-29.7 -14.2 12.8 184 187 186
-29.3 -14.2 12.7 188 187 186
-29.2 -14.2 12.8 155 155 155
-28.8 -14.2 12.7 6 11 7
-28.4 -14.2 12.7 6 7 7
-25.6 -13.2 11.8 87 89 88
-23.8 -42.1 37.8 95 98 97
-22.4 -41.1 36.9 103 105 105
-21.6 -41.2 36.9 31 31 31
566.4 -340.0 305.1 218 218 218
508.0 -301.2 270.2 218 218 218
324.3 -189.9 170.4 218 218 218
755.1 -421.6 378.3 217 217 217
-25.7 -12.9 11.9 18 18 18
-25.3 -12.9 11.8 105 105 105
-24.8 -42.9 39.3 96 99 98
-23.2 -41.6 38.1 102 104 104
-22.7 -42.5 38.9 11 11 11
548.7 -322.5 295.6 218 218 218
480.5 -278.9 255.6 218 218 218
158.9 -80.3 73.6 202 202 202
145.8 -72.9 66.8 203 203 203
-26.0 -44.0 41.2 101 101 101
-24.6 -43.3 40.5 110 110 110
-24.1 -44.0 41.2 19 19 19
151.8 -75.1 70.3 202 202 202
137.6 -67.3 63.1 202 202 202
-30.2 -54.0 51.7 15 19 16
20.7 -12.9 12.4 218 218 218
281.2 -154.4 147.8 218 218 218
137.1 -65.7 62.8 202 202 202
-31.5 -55.0 53.9 26 25 24
-31.7 -57.7 56.5 26 25 24
-29.0 -55.0 53.9 111 113 112
237.0 -402.5 394.1 225 225 225
15.2 -10.3 10.1 217 217 217
136.2 -63.8 62.4 202 202 202
-34.0 -55.9 56.0 113 114 113
-32.5 -55.5 55.6 46 47 45
-29.9 -55.5 55.6 153 153 153
15.1 -10.0 10.0 217 217 217
274.8 -144.1 144.4 220 220 220
196.1 -91.7 91.8 200 200 200
135.3 -61.9 62.0 202 202 202
-35.9 -59.9 61.4 45 45 45
-34.8 -60.5 62.0 23 24 23
-32.7 -59.3 60.8 161 161 161
15.1 -9.8 10.0 217 217 217
378.3 -196.2 201.2 220 220 220
276.9 -141.9 145.5 220 220 220
257.8 -119.0 122.0 192 192 192
162.7 -73.5 75.4 200 200 200
135.8 -60.7 62.2 202 202 202
-42.1 -65.9 69.3 109 109 109
-39.3 -64.1 67.3 23 24 23
-37.5 -63.6 66.8 26 25 24
15.0 -9.6 10.1 217 217 217
15.2 -9.6 10.1 217 217 217
378.3 -191.5 201.2 220 220 220
270.7 -135.4 142.2 220 220 220
199.0 -88.7 93.2 198 198 198
138.5 -60.4 63.5 202 202 202
-41.2 -65.5 70.6 27 27 27
-39.0 -64.6 69.5 20 20 20
-37.7 -65.0 70.1 163 163 163
-36.3 -65.5 70.6 182 182 182
14.9 -9.3 10.0 217 217 217
444.5 -222.3 239.4 220 220 220
395.1 -195.1 210.2 217 217 217
283.4 -138.3 148.9 220 220 220
192.4 -83.6 90.1 197 197 197
141.3 -60.1 64.8 202 202 202
-43.3 -67.2 74.2 30 30 30
-40.3 -65.1 71.9 20 20 20
-39.3 -66.1 73.0 170 172 172
509.0 -248.2 274.1 220 220 220
423.3 -203.9 225.2 220 220 220
288.0 -137.0 151.3 220 220 220
476.1 -206.3 227.9 181 181 181
141.3 -58.6 64.8 200 200 200
-43.8 -13.7 15.6 157 157 157
-43.5 -13.7 15.6 139 139 139
-43.1 -13.7 15.6 153 153 153
-42.7 -13.7 15.6 147 147 147
-42.4 -13.7 15.6 174 176 176
-42.1 -13.7 15.6 78 80 78
-41.7 -13.7 15.6 84 84 84
-41.3 -13.7 15.6 102 102 102
-40.9 -13.7 15.6 165 165 165
-40.6 -13.7 15.6 175 177 177
-40.2 -13.7 15.6 149 149 149
-39.8 -13.7 15.6 180 180 180
-39.5 -13.7 15.6 126 129 128
-39.1 -13.7 15.6 192 195 194
-38.7 -13.7 15.6 118 120 119
-22.8 -13.7 15.6 40 40 40
-22.5 -13.7 15.6 38 38 38
-22.1 -13.7 15.6 31 32 30
-21.7 -13.7 15.5 38 38 38
-21.4 -13.7 15.6 71 72 70
-21.1 -13.7 15.6 158 158 158
-20.7 -13.7 15.6 101 101 101
-20.3 -13.7 15.6 138 140 139
-19.9 -13.7 15.6 107 107 105
467.9 -219.5 248.9 220 223 222
185.3 -76.5 86.8 197 197 197
154.7 -63.2 71.7 197 197 197
142.3 -57.5 65.2 200 200 200
-21.9 -13.2 15.4 35 34 33
-20.9 -13.3 15.5 149 149 149
-20.4 -13.2 15.4 129 132 131
-79.1 -132.1 153.8 180 180 180
-73.1 -127.9 148.9 180 183 182
18.2 -9.4 10.9 219 222 221
339.6 -153.2 178.5 220 223 222
182.0 -73.2 85.2 195 195 195
164.7 -65.5 76.3 197 197 197
-110.5 -158.0 189.2 32 32 32
-95.6 -142.4 170.4 27 27 27
-92.4 -143.7 172.0 160 160 160
-84.4 -143.7 172.0 179 182 181
-673.5 -301.3 370.9 63 62 61
-184.1 -256.1 315.3 30 29 29
-160.7 -232.8 286.6 33 33 33
-175.3 -264.9 326.1 155 155 155
-187.1 -295.5 363.8 178 181 180
143.8 -54.1 66.6 195 195 195
137.6 -51.2 63.1 200 200 200
-701.0 -304.6 386.0 64 64 64
-605.6 -266.5 337.8 64 63 61
-212.2 -298.5 378.3 29 29 29
149.0 -54.5 69.0 195 195 195
138.5 -50.1 63.5 197 197 197
232.2 -295.6 386.0 224 226 226
18.2 -8.4 10.9 219 222 221
159.5 -56.6 73.9 189 189 189
137.1 -48.1 62.8 195 195 195
232.2 -286.6 386.0 222 222 222
18.0 -8.0 10.8 219 222 221
137.6 -46.8 63.1 193 193 193
191.4 -64.5 89.7 152 152 152
137.6 -45.4 63.1 192 192 192
135.8 -43.3 62.2 194 194 194
-7.7 -6.9 10.3 180 183 182
137.1 -42.3 62.8 192 192 192
-201.8 -64.0 98.5 29 29 29
177.7 -192.0 295.6 222 222 222
140.9 -41.9 64.6 190 190 190
-378.9 -97.1 155.1 63 63 63
-291.6 -75.5 120.5 59 59 59
-285.2 -74.5 119.0 54 54 54
-392.2 -107.7 172.0 92 95 94
-294.5 -81.7 130.5 37 38 37
-370.7 -103.9 165.9 32 33 31
-363.7 -103.0 164.5 35 34 33
-265.9 -76.9 122.8 29 29 29
-253.2 -74.0 118.2 29 29 29
-252.0 -74.5 119.0 26 26 26
-347.6 -103.9 165.9 18 18 18
-244.9 -74.0 118.2 18 18 18
-221.4 -67.7 108.1 29 29 29
137.1 -39.4 62.8 189 189 189
-471.3 -115.2 191.1 81 83 80
-428.0 -105.6 175.2 73 73 73
-401.6 -100.1 165.9 70 72 69
-412.2 -103.7 172.0 69 69 69
-397.4 -101.0 167.4 71 72 70
-367.5 -94.3 156.3 78 78 78
-427.3 -111.8 185.5 175 174 172
-431.4 -114.1 189.2 136 138 137
-431.4 -115.2 191.1 72 72 72
-398.7 -107.6 178.5 61 60 59
-390.9 -106.6 176.8 58 58 58
-383.2 -105.6 175.2 58 58 58
-365.6 -101.9 168.9 56 56 56
-450.1 -126.8 210.2 58 59 59
-417.4 -118.8 197.0 57 57 57
-353.8 -101.9 168.9 57 57 57
143.3 -39.6 65.7 189 189 189
311.1 -79.2 131.4 203 203 203
-613.7 -166.2 286.6 70 72 69
-513.7 -140.6 242.5 67 67 67
139.9 -37.2 64.1 189 189 189
385.7 -95.4 164.5 203 203 203
306.8 -75.1 129.6 203 203 203
232.0 -56.2 97.0 205 205 205
207.6 -49.9 86.0 203 203 203
174.5 -45.0 80.8 173 173 173
140.4 -35.8 64.3 186 186 186
245.3 -58.8 105.7 199 199 199
224.0 -53.2 95.5 203 203 203
228.4 -53.2 95.5 203 203 203
205.7 -47.4 85.2 195 195 195
17.7 -5.5 10.3 222 222 222
17.8 -5.5 10.2 222 222 222
18.0 -5.4 10.2 222 222 222
18.2 -5.4 10.2 222 222 222
19.4 -5.4 10.2 222 222 222
166.0 -41.0 76.9 166 169 168
140.9 -34.4 64.6 186 186 186
218.5 -49.7 93.2 203 203 203
190.3 -42.0 78.8 197 197 197
17.8 -5.4 10.5 222 222 222
17.8 -5.3 10.3 222 222 222
17.9 -5.2 10.3 222 222 222
18.0 -5.2 10.2 222 222 222
19.6 -5.2 10.3 224 224 224
139.4 -32.6 63.9 186 186 186
135.8 -29.0 56.8 206 206 206
17.8 -5.0 10.3 221 221 221
17.9 -5.0 10.3 221 221 221
18.0 -5.0 10.2 224 224 224
191.4 -43.6 89.7 140 140 140
166.7 -37.6 77.2 170 171 170
140.9 -31.4 64.6 184 184 184
211.1 -44.3 90.9 197 197 197
200.7 -41.7 85.6 200 200 200
163.5 -33.6 69.0 204 204 204
185.7 -37.4 76.9 200 200 200
153.2 -30.6 62.8 220 220 220
145.9 -28.9 59.3 220 220 220
189.0 -36.7 75.4 60 63 62
176.0 -33.9 69.5 66 66 66
17.8 -4.8 10.4 221 221 221
18.0 -4.7 10.2 221 221 221
199.2 -40.6 87.6 195 195 195
214.3 -42.4 91.4 200 200 200
217.5 -42.2 90.9 204 204 204
203.9 -39.2 84.4 206 206 206
193.6 -35.8 77.2 45 45 45
238.5 -44.8 101.7 200 200 200
19.6 -4.2 10.6 221 221 221
19.9 -4.2 10.6 224 224 224
20.1 -4.2 10.6 224 224 224
23.4 -3.2 11.5 217 220 219
23.3 -2.1 11.4 227 227 227
23.2 -2.1 11.2 219 222 221
23.1 -2.0 11.0 166 166 166
23.4 -1.8 11.5 225 225 225
23.3 -1.8 11.3 219 222 221
786.3 -49.3 305.1 74 74 74
1006.3 -55.5 343.9 146 146 146
23.4 -1.6 11.5 220 223 222
22.9 -1.5 10.9 166 166 166
23.5 -1.3 11.5 220 223 222
22.9 -1.3 10.9 173 175 175
23.4 -1.1 11.5 222 224 224
23.1 -1.0 11.0 170 171 170
23.1 -0.8 11.2 222 224 224
23.2 -0.5 11.2 223 225 225
23.1 -0.2 11.2 220 223 222
23.1 -0.2 11.0 184 184 184
23.1 0.0 11.2 224 226 226
90.8 1.2 24.1 87 87 87
87.8 1.7 23.3 87 87 87
87.0 2.2 23.1 92 92 92
85.5 2.7 22.7 90 90 90
82.8 2.6 21.9 89 89 89
79.1 2.4 20.8 149 149 149
86.4 3.2 23.0 91 91 91
83.8 3.1 22.1 96 96 96
87.8 3.8 23.3 92 92 92
84.6 4.2 22.4 98 100 100
439.3 28.0 133.2 50 51 49
421.6 26.7 127.0 155 155 155
87.5 4.9 23.3 96 96 96
23.5 2.7 11.5 225 225 225
23.4 5.1 11.5 221 221 221
-135.1 43.9 75.4 96 95 94
-266.7 72.6 111.3 120 122 121
-258.1 70.9 108.7 116 116 116
-257.0 71.3 109.3 108 108 108
-253.0 70.9 108.7 147 147 147
-250.5 70.9 108.7 159 159 159
-248.6 72.6 111.3 98 98 98
-239.0 70.5 108.1 102 104 104
-235.1 70.1 107.5 112 114 113
-232.6 70.1 107.5 117 117 117
-230.1 70.1 107.5 117 117 117
-230.3 70.9 108.7 122 122 122
-227.7 70.9 108.7 130 130 130
-227.8 71.7 110.0 145 145 144
-214.1 68.1 104.5 150 150 150
-220.2 70.9 108.7 168 168 168
-215.2 70.1 107.5 174 174 174
-212.7 70.1 107.5 173 173 173
-206.3 70.5 108.1 130 130 130
-202.7 70.1 107.5 123 125 124
-193.6 67.8 103.9 122 122 122
-191.2 67.8 103.9 123 125 124
-196.3 70.5 108.1 118 118 118
-186.3 67.8 103.9 118 118 118
-178.0 65.6 100.6 113 115 114
-190.9 71.3 109.3 111 111 111
-189.5 71.7 110.0 108 108 108
-184.8 70.9 108.7 110 110 110
-182.3 70.9 108.7 113 115 114
-179.7 70.9 108.7 123 125 124
-177.2 70.9 108.7 130 130 130
-174.7 70.9 108.7 134 137 136
-172.1 70.9 108.7 137 139 138
-169.6 70.9 108.7 146 146 146
-167.1 70.9 108.7 146 146 146
-163.6 70.5 108.1 166 166 166
-154.9 67.8 103.9 166 166 166
-152.5 67.8 103.9 148 150 150
-149.3 67.4 103.4 157 157 157
-152.7 70.1 107.5 133 133 133
-150.2 70.1 107.5 147 147 147
-143.6 68.1 104.5 120 120 120
-146.9 70.9 108.7 123 125 124
-139.5 68.5 105.1 112 114 113
-137.1 68.5 105.1 89 89 87
-132.4 67.4 103.4 94 94 94
-130.0 67.4 103.4 100 100 100
-127.6 67.4 103.4 91 91 91
-125.2 67.4 103.4 82 82 82
-120.9 66.3 101.7 41 41 39
-118.5 66.3 101.7 29 29 29
-116.1 66.3 101.7 113 114 113
-115.6 67.4 103.4 114 116 115
-114.5 68.1 104.5 120 120 120
-111.4 67.8 103.9 148 148 148
-109.0 67.8 103.9 131 134 133
-107.2 68.1 104.5 135 135 135
-101.4 66.0 101.2 94 97 96
-99.6 66.3 101.7 140 140 140
-101.0 68.9 105.7 149 151 151
-98.0 68.5 105.1 132 132 132
-93.5 67.0 102.8 115 115 115
-88.7 65.3 100.1 164 167 166
-91.7 69.3 106.3 162 165 164
-89.2 69.3 106.3 162 165 164
-84.4 67.4 103.4 80 83 82
-85.7 70.5 108.1 150 152 152
-78.5 68.5 105.1 104 104 104
-77.8 70.1 107.5 96 99 98
-72.8 70.1 107.5 89 89 89
-68.9 71.3 109.3 123 123 123
-50.6 70.5 108.1 206 206 206
-48.1 70.5 108.1 208 211 210
-45.3 70.1 107.5 211 211 211
-40.3 70.1 107.5 204 207 206
-35.2 65.3 100.1 218 218 218
44.1 69.3 106.3 61 63 61
45.3 67.4 103.4 69 69 69
46.2 65.3 100.1 73 73 73
47.8 64.2 98.5 75 77 75
50.1 64.2 98.5 79 81 80
51.6 63.3 97.0 67 69 67
56.1 66.0 101.2 26 26 26
-277.0 84.6 125.3 113 115 114
-253.7 84.6 125.3 174 174 174
-123.0 86.9 128.7 124 127 126
-119.2 86.3 127.8 129 129 129
-46.3 83.5 123.6 206 209 208
53.2 81.9 121.3 69 69 69
54.3 79.3 117.5 75 75 75
58.5 81.4 120.5 77 77 77
-406.7 210.1 291.0 143 143 142
-386.4 210.1 291.0 149 149 149
-385.6 213.3 295.6 144 144 144
-372.9 210.1 291.0 158 158 158
-366.1 210.1 291.0 146 146 146
-359.4 210.1 291.0 149 151 151
-347.3 206.9 286.6 77 79 78
-449.8 278.7 386.0 35 35 35
-332.3 210.1 291.0 93 93 93
-278.2 210.1 291.0 172 174 174
-252.0 195.1 270.2 84 84 84
169.3 220.2 305.1 22 25 23
156.4 209.7 225.2 24 27 25
124.5 161.6 173.5 18 18 18
205.2 282.0 295.6 25 29 26
135.7 180.5 189.2 11 16 13
215.3 303.1 310.1 18 18 18
-525.3 295.1 215.0 17 21 18
-508.7 288.5 210.2 22 22 22
-498.3 285.3 207.9 22 22 22
-488.1 282.2 205.6 22 22 22
-478.1 279.2 203.4 23 23 23
-478.5 282.2 205.6 23 23 23
-484.3 288.5 210.2 25 25 25
-479.4 288.5 210.2 102 101 99
-469.3 285.3 207.9 118 118 118
-449.6 276.2 201.2 108 108 108
-445.0 276.2 201.2 105 104 102
-459.8 288.5 210.2 100 100 100
-460.1 291.7 212.5 30 34 31
-455.1 291.7 212.5 19 19 19
-445.2 288.5 210.2 15 15 15
-450.3 295.1 215.0 17 17 17
-440.3 291.7 212.5 17 17 17
-445.4 298.4 217.4 19 23 20
-421.0 285.3 207.9 21 24 22
-430.3 295.1 215.0 21 24 22
-430.2 298.4 217.4 18 22 19
-406.5 285.3 207.9 7 13 9
-397.3 282.2 205.6 6 6 6
-384.1 276.2 201.2 4 10 6
-387.7 282.2 205.6 4 10 6
-400.3 295.1 215.0 7 13 9
-382.3 285.3 207.9 14 14 14
-381.7 288.5 210.2 28 28 28
-364.6 279.2 203.4 37 38 37
-393.8 305.5 222.5 49 51 51
-367.0 288.5 210.2 54 53 52
-343.1 273.3 199.1 18 22 19
-353.3 285.3 207.9 16 16 16
-348.5 285.3 207.9 16 16 16
-334.0 285.3 207.9 26 26 26
-312.0 270.5 197.0 58 58 58
-317.4 279.2 203.4 44 43 42
-342.1 305.5 222.5 41 42 40
-336.9 305.5 222.5 37 38 37
-335.7 309.1 225.2 36 36 36
-311.9 291.7 212.5 36 36 36
-296.9 282.2 205.6 30 29 29
-327.8 316.6 230.7 18 22 19
-311.0 305.5 222.5 18 22 19
-270.8 270.5 197.0 30 29 29
-290.4 295.1 215.0 29 33 30
-285.4 295.1 215.0 30 29 29
-259.8 273.3 199.1 30 29 29
-286.7 312.8 227.9 18 22 19
-233.6 259.7 189.2 31 34 32
-234.2 270.5 197.0 119 121 120
-242.2 285.3 207.9 174 174 174
-229.8 276.2 201.2 60 60 60
37.6 282.2 205.6 195 198 197
36.1 240.4 175.2 193 196 195
43.0 257.1 187.3 194 197 196
47.8 259.7 189.2 195 198 197
53.8 267.7 195.0 195 198 197
52.4 240.4 175.2 196 199 198
-476.9 275.0 197.0 16 16 16
-421.9 275.0 197.0 19 23 20
-394.9 272.2 195.0 21 24 22
-381.3 272.2 195.0 7 13 9
-373.0 269.4 193.0 4 10 6
-357.5 261.4 187.3 4 10 6
-360.3 266.7 191.1 4 10 6
-355.0 269.4 193.0 17 17 17
-354.1 272.2 195.0 26 26 26
-355.2 283.9 203.4 50 52 52
-296.6 261.4 187.3 169 171 170
-295.3 280.9 201.2 38 38 38
-273.2 264.0 189.2 32 35 33
-245.3 249.1 178.5 36 36 36
-214.3 242.2 173.5 29 33 30
-204.6 235.8 168.9 59 59 59
-222.6 261.4 187.3 63 63 63
-222.6 266.7 191.1 55 54 53
35.7 272.2 195.0 195 198 197
34.8 235.8 168.9 193 196 195
39.5 240.0 172.0 194 197 196
43.5 240.0 172.0 194 197 196
49.2 249.1 178.5 195 198 197
50.5 235.8 168.9 196 199 198
54.0 233.7 167.4 194 194 194
51.5 244.0 172.0 196 199 198
