ply
format ascii 1.0
element vertex 2541
property float x
property float y
property float z
property uchar red
property uchar green
property uchar blue
end_header
211.5 -423.8 168.9 165 165 165
223.3 -431.5 172.0 160 160 160
217.4 -412.7 164.5 160 160 160
105.8 -170.7 68.0 156 159 158
108.1 -172.0 68.5 162 162 162
109.7 -172.0 68.5 157 160 159
54.9 -78.1 31.1 157 160 159
55.6 -78.1 31.1 157 160 159
56.5 -78.3 31.2 158 161 160
132.6 -101.6 40.5 107 107 107
133.3 -101.4 40.4 105 105 105
287.7 -734.7 295.6 166 166 166
387.5 -783.7 315.3 162 162 162
341.2 -653.1 262.7 162 162 162
528.3 -959.6 386.0 163 163 163
108.1 -172.9 69.5 161 161 161
112.2 -176.8 71.1 157 160 159
121.1 -188.1 75.7 157 160 159
116.8 -178.8 71.9 158 161 160
54.9 -77.3 31.1 157 160 159
55.5 -77.2 31.1 157 160 159
56.3 -77.3 31.1 158 161 160
58.4 -78.2 31.5 158 161 160
121.9 -92.6 37.2 107 107 107
120.7 -91.0 36.6 107 107 107
59.6 -40.6 16.3 162 165 164
59.8 -40.5 16.3 196 199 198
52.2 -191.7 77.8 164 164 164
54.1 -191.7 77.8 165 165 165
55.9 -191.7 77.8 166 169 168
57.7 -191.7 77.8 166 169 168
59.2 -190.9 77.5 166 169 168
61.0 -190.9 77.5 166 169 168
62.8 -190.9 77.5 166 169 168
64.6 -190.9 77.5 166 169 168
66.4 -190.9 77.5 166 166 166
68.5 -191.7 77.8 166 166 166
70.0 -190.9 77.5 166 166 166
71.9 -190.9 77.5 166 166 166
73.7 -190.9 77.5 166 166 166
85.2 -192.5 78.2 164 164 164
87.0 -192.5 78.2 164 164 164
87.7 -190.1 77.2 164 164 164
89.1 -189.4 76.9 165 165 165
91.3 -190.1 77.2 165 165 165
94.2 -192.5 78.2 159 159 159
96.1 -192.5 78.2 159 159 159
97.1 -190.9 77.5 162 162 162
98.5 -190.1 77.2 162 162 162
292.5 -554.5 225.2 162 162 162
480.1 -878.9 356.9 163 163 163
111.5 -190.9 77.5 163 163 163
114.7 -193.3 78.5 161 161 161
117.5 -194.9 79.1 164 164 164
116.9 -190.9 77.5 164 164 164
117.3 -188.6 76.6 164 164 164
114.9 -182.0 73.9 164 164 164
121.3 -189.4 76.9 162 162 162
125.7 -193.3 78.5 162 162 162
121.4 -184.1 74.8 162 162 162
54.9 -76.6 31.1 160 163 162
55.6 -76.6 31.1 160 163 162
56.4 -76.7 31.2 158 161 160
57.1 -76.7 31.2 158 161 160
58.2 -77.3 31.4 158 161 160
58.6 -76.7 31.2 159 162 161
62.0 -78.3 31.8 160 163 162
116.0 -87.2 35.4 107 107 107
111.6 -83.3 33.8 105 105 105
112.0 -83.0 33.7 103 102 100
58.3 -39.1 15.9 196 199 198
57.9 -38.6 15.7 196 199 198
58.4 -38.7 15.7 211 211 211
59.0 -38.9 15.8 161 161 161
59.1 -38.7 15.7 162 165 164
59.7 -38.9 15.8 216 216 216
59.8 -38.7 15.7 196 199 198
59.7 -38.4 15.6 198 201 200
94.2 -190.7 78.2 165 165 165
96.1 -190.7 78.2 165 165 165
78.7 -153.3 62.8 165 165 165
79.4 -151.8 62.2 165 165 165
79.5 -149.3 61.2 166 166 166
71.7 -132.2 54.2 166 166 166
107.4 -194.7 79.8 166 166 166
113.9 -196.4 80.5 163 163 163
96.7 -156.4 64.1 164 164 164
87.5 -139.4 57.1 164 164 164
121.8 -188.3 77.2 165 165 165
126.2 -192.3 78.8 165 165 165
125.4 -188.3 77.2 165 165 165
55.6 -76.9 31.5 164 164 164
56.3 -76.9 31.5 160 163 162
57.3 -77.2 31.6 160 163 162
58.0 -77.2 31.6 161 164 163
59.0 -77.6 31.8 158 161 160
59.7 -77.4 31.7 159 162 161
62.2 -77.8 31.9 160 163 162
114.5 -85.3 35.0 105 105 105
103.7 -76.1 31.2 103 102 100
57.4 -37.9 15.6 195 195 195
57.8 -37.9 15.6 196 199 198
58.4 -38.1 15.6 214 214 214
58.5 -37.9 15.6 211 211 211
59.4 -38.0 15.6 196 199 198
59.4 -37.8 15.5 216 216 216
58.4 -124.2 51.4 164 164 164
59.6 -124.2 51.4 162 162 162
60.5 -123.5 51.1 165 165 165
61.3 -122.9 50.9 168 168 168
63.2 -124.2 51.4 168 168 168
64.7 -124.9 51.7 165 165 165
66.3 -125.6 52.0 168 168 168
68.4 -127.3 52.7 168 168 168
67.4 -123.2 51.0 169 169 169
74.6 -129.5 53.6 169 169 169
82.3 -129.8 53.7 164 164 164
142.2 -214.6 88.8 168 168 168
135.9 -202.2 83.7 168 168 168
56.7 -77.7 32.2 168 168 168
57.3 -77.5 32.1 168 168 168
58.4 -78.0 32.3 165 165 165
59.2 -78.0 32.3 166 166 166
59.9 -78.0 32.3 161 164 163
60.8 -78.1 32.3 159 162 161
63.5 -78.7 32.6 160 163 162
53.0 -35.3 14.6 196 199 198
59.1 -39.1 16.2 141 141 141
58.6 -38.6 16.0 195 195 195
57.3 -36.8 15.2 211 211 211
60.4 -38.6 16.0 186 186 186
58.1 -36.6 15.2 214 214 214
49.1 -107.8 45.0 167 167 167
48.7 -104.8 43.8 167 167 167
53.2 -105.5 44.1 168 168 168
58.1 -113.2 47.3 168 168 168
56.8 -108.5 45.4 168 168 168
57.4 -107.8 45.0 170 172 172
57.1 -105.3 44.0 170 172 172
62.5 -111.2 46.5 170 172 172
71.5 -123.0 51.4 170 172 172
66.4 -112.3 46.9 170 172 172
63.0 -104.8 43.8 171 173 173
142.8 -216.6 90.5 172 174 174
144.9 -216.6 90.5 172 172 172
140.3 -206.7 86.4 172 172 172
59.8 -78.0 32.6 169 169 169
61.0 -78.6 32.8 166 166 166
39.9 -50.2 21.0 162 165 164
40.0 -49.7 20.8 162 165 164
65.5 -80.4 33.6 163 166 165
113.9 -83.2 34.8 105 105 105
71.5 -49.8 20.8 95 98 97
67.3 -46.5 19.4 95 98 97
52.2 -34.5 14.4 190 190 190
51.7 -33.9 14.2 139 139 139
50.5 -32.9 13.8 190 190 190
53.1 -34.2 14.3 179 182 181
52.4 -33.5 14.0 182 185 184
54.2 -34.3 14.3 214 214 214
54.3 -34.1 14.3 216 216 216
33.8 -98.9 41.8 166 169 168
34.7 -98.5 41.6 166 169 168
34.6 -95.8 40.4 166 169 168
44.4 -96.6 40.8 169 171 170
44.2 -94.2 39.7 172 174 174
44.8 -93.4 39.4 169 171 170
47.3 -96.6 40.8 169 171 170
47.7 -95.6 40.3 169 171 170
47.8 -94.0 39.7 169 171 170
49.5 -95.4 40.2 169 171 170
50.4 -95.4 40.2 169 171 170
51.4 -95.6 40.3 170 172 172
52.3 -95.4 40.2 170 172 172
59.0 -104.0 43.9 173 175 175
63.1 -105.7 44.6 170 172 172
59.3 -97.7 41.2 171 173 173
145.6 -215.5 90.9 172 174 174
144.9 -211.4 89.2 172 174 174
55.0 -74.0 31.2 174 176 176
55.7 -73.8 31.2 174 176 176
58.4 -76.5 32.3 175 175 175
57.9 -74.8 31.6 175 175 175
57.5 -73.4 31.0 175 177 177
40.1 -49.9 21.1 167 167 167
40.5 -49.8 21.0 167 167 167
70.1 -48.3 20.4 95 98 97
67.8 -46.4 19.6 95 98 97
53.5 -35.0 14.8 175 175 175
49.1 -31.5 13.3 196 199 198
51.9 -32.9 13.9 175 175 175
45.2 -28.5 12.0 216 216 216
45.2 -28.3 11.9 216 216 216
40.0 -86.2 36.7 176 176 176
41.8 -88.2 37.6 176 176 176
41.3 -85.4 36.4 172 174 174
43.9 -87.0 37.1 172 174 174
44.1 -85.8 36.6 172 174 174
44.3 -84.5 36.0 177 177 177
46.3 -86.7 36.9 177 177 177
46.8 -86.2 36.7 180 180 180
47.2 -85.4 36.4 177 177 177
48.3 -85.7 36.5 182 182 182
51.4 -89.7 38.2 178 178 178
52.3 -89.7 38.2 178 178 178
56.3 -91.9 39.2 181 181 181
169.4 -259.6 110.6 179 179 179
54.4 -80.8 34.5 180 180 180
54.3 -79.5 33.9 180 180 180
177.1 -252.2 107.5 183 183 183
170.8 -239.9 102.3 173 175 175
55.9 -73.4 31.3 177 180 179
57.3 -73.4 31.3 178 181 180
56.6 -71.6 30.5 178 181 180
66.9 -45.4 19.3 97 100 99
53.4 -34.6 14.7 162 165 164
45.1 -28.3 12.1 211 211 211
45.0 -28.1 12.0 211 211 211
44.9 -27.8 11.9 216 216 216
44.5 -27.4 11.7 216 216 216
40.5 -82.9 35.7 192 192 192
39.3 -78.8 33.9 194 194 194
43.0 -82.8 35.6 194 194 194
42.8 -80.9 34.8 199 199 199
45.6 -84.5 36.4 197 197 197
45.7 -83.2 35.8 197 197 197
45.7 -81.7 35.2 199 199 199
47.2 -82.9 35.7 197 197 197
51.2 -88.4 38.1 197 197 197
50.4 -85.5 36.8 199 199 199
55.2 -89.1 38.4 199 199 199
169.4 -257.0 110.6 197 197 197
179.3 -268.0 115.3 197 197 197
153.0 -225.4 97.0 198 198 198
147.7 -214.4 92.3 195 195 195
147.7 -211.3 90.9 200 200 200
175.1 -246.9 106.3 199 199 199
164.6 -228.9 98.5 205 205 205
66.9 -44.9 19.3 97 100 99
52.9 -33.9 14.6 85 87 87
44.2 -27.1 11.7 205 205 205
43.7 -26.7 11.5 216 216 216
43.6 -26.4 11.4 219 219 219
40.2 -83.2 36.2 199 199 199
39.9 -80.9 35.2 199 199 199
38.4 -76.2 33.1 199 199 199
42.2 -80.6 35.0 203 203 203
45.2 -83.0 36.1 203 203 203
45.3 -81.6 35.5 203 203 203
45.4 -80.4 35.0 203 203 203
46.2 -80.4 35.0 203 203 203
49.9 -83.8 36.4 203 203 203
53.2 -87.9 38.2 203 203 203
53.5 -87.0 37.8 203 203 203
54.7 -87.5 38.1 203 203 203
191.8 -288.1 125.3 203 203 203
196.0 -290.0 126.1 203 203 203
147.7 -212.2 92.3 204 204 204
145.6 -206.2 89.7 204 204 204
182.2 -254.4 110.6 205 205 205
179.6 -247.2 107.5 205 205 205
26.6 -34.7 15.1 203 203 203
67.1 -44.6 19.4 97 100 99
40.1 -24.5 10.6 182 185 184
39.6 -24.1 10.5 169 169 169
39.9 -81.6 35.8 203 203 203
35.9 -69.1 30.4 203 203 203
42.4 -80.0 35.2 206 206 206
44.5 -80.9 35.6 203 203 203
45.1 -80.5 35.4 203 203 203
49.0 -81.6 35.8 206 206 206
52.6 -84.6 37.2 206 206 206
52.3 -81.4 35.8 206 206 206
197.0 -293.0 128.7 203 203 203
194.7 -285.2 125.3 203 203 203
142.8 -203.1 89.2 204 204 204
130.2 -182.5 80.2 204 204 204
178.1 -246.1 108.1 205 205 205
170.8 -232.8 102.3 205 205 205
26.7 -34.4 15.1 203 203 203
26.4 -33.6 14.8 204 204 204
16.4 -69.4 30.8 206 206 206
26.7 -70.1 31.1 205 205 205
28.7 -69.8 31.0 208 208 208
35.8 -69.5 30.9 206 206 206
35.8 -68.3 30.3 206 206 206
38.2 -70.1 31.1 206 206 206
41.8 -71.3 31.6 206 206 206
41.2 -69.1 30.7 206 206 206
49.3 -81.2 36.0 206 206 206
53.2 -84.7 37.6 206 206 206
48.2 -74.3 33.0 206 206 206
46.3 -70.2 31.2 206 206 206
133.4 -187.8 83.3 207 207 207
124.9 -173.3 76.9 207 207 207
116.7 -159.6 70.8 207 207 207
26.8 -34.2 15.2 206 206 206
23.0 -27.5 12.2 208 208 208
15.9 -69.7 31.3 206 206 206
16.5 -69.2 31.0 205 205 205
18.2 -70.1 31.4 208 208 208
18.8 -69.6 31.2 208 208 208
19.5 -69.7 31.3 208 208 208
21.8 -70.0 31.4 211 211 211
22.7 -70.7 31.7 208 208 208
23.4 -70.4 31.6 208 208 208
24.0 -70.0 31.4 208 208 208
24.6 -69.7 31.3 208 208 208
25.3 -69.6 31.2 208 208 208
26.2 -70.0 31.4 208 208 208
26.7 -69.5 31.2 205 205 205
27.6 -70.0 31.4 208 208 208
28.9 -69.6 31.2 208 208 208
29.7 -69.7 31.3 208 208 208
30.6 -70.1 31.4 208 208 208
31.1 -69.5 31.2 208 208 208
31.8 -69.5 31.2 208 208 208
32.8 -70.1 31.4 208 208 208
33.3 -69.7 31.3 208 208 208
36.1 -69.4 31.1 205 205 205
36.0 -67.8 30.4 205 205 205
38.3 -69.5 31.2 208 208 208
39.0 -69.4 31.1 211 211 211
41.5 -71.3 32.0 208 208 208
41.8 -70.5 31.6 208 208 208
41.5 -68.8 30.9 205 205 205
43.6 -69.8 31.3 205 205 205
53.2 -83.9 37.6 205 205 205
47.9 -73.1 32.8 206 206 206
46.8 -70.3 31.5 209 209 209
46.7 -69.0 31.0 209 209 209
131.7 -183.4 82.2 206 206 206
124.9 -171.5 76.9 207 207 207
117.1 -158.6 71.1 207 207 207
26.9 -34.0 15.3 206 206 206
26.7 -33.4 15.0 206 206 206
23.7 -27.5 12.3 208 208 208
23.7 -22.5 10.1 162 162 162
15.9 -68.9 31.2 208 208 208
16.6 -68.8 31.2 208 208 208
18.9 -69.2 31.4 207 207 207
23.4 -69.6 31.5 210 210 210
23.9 -69.0 31.3 207 207 207
26.8 -69.1 31.3 207 207 207
27.6 -69.1 31.3 207 207 207
29.0 -69.0 31.3 208 208 208
29.7 -68.9 31.2 208 208 208
30.5 -69.1 31.3 208 208 208
31.9 -69.1 31.3 208 208 208
36.2 -69.0 31.3 208 208 208
36.6 -68.3 31.0 208 208 208
38.5 -69.1 31.3 208 208 208
39.1 -68.9 31.2 208 208 208
41.9 -69.9 31.7 208 208 208
41.9 -68.7 31.1 211 211 211
42.9 -69.2 31.4 208 208 208
43.3 -68.7 31.1 208 208 208
52.9 -82.5 37.4 208 208 208
52.3 -80.3 36.4 208 208 208
48.8 -73.8 33.4 208 208 208
47.2 -70.2 31.8 208 208 208
47.1 -68.9 31.2 208 208 208
47.7 -68.8 31.2 208 208 208
27.0 -33.8 15.3 208 208 208
26.7 -33.0 15.0 208 208 208
23.5 -27.3 12.4 207 207 207
24.0 -27.5 12.4 207 207 207
24.2 -27.4 12.4 208 208 208
-28.2 -21.9 10.0 45 44 43
-28.0 -21.9 10.0 45 44 43
-27.8 -21.9 10.0 45 44 43
-27.6 -21.9 10.0 42 42 42
-27.3 -21.9 10.0 44 43 42
-27.1 -21.9 10.0 44 43 42
-26.8 -21.9 10.0 46 46 46
-26.6 -21.9 10.0 44 43 42
-26.4 -21.9 10.0 44 43 42
-26.1 -21.9 10.0 44 43 42
-25.9 -21.9 10.0 44 43 42
-25.7 -21.9 10.0 41 41 41
-25.4 -21.9 10.0 41 41 41
-25.2 -21.9 10.0 44 43 42
-25.0 -21.9 10.0 41 41 41
-24.7 -21.9 10.0 41 41 41
-24.5 -21.9 10.0 41 41 41
-24.3 -21.9 10.0 41 41 41
-24.1 -21.9 10.0 41 41 41
-23.8 -21.9 10.0 41 41 41
-23.6 -21.9 10.0 38 38 38
-23.3 -21.9 10.0 38 38 38
-23.1 -21.9 10.0 35 35 35
-22.9 -21.9 10.0 38 38 38
-22.6 -21.9 10.0 40 40 40
-22.4 -21.9 10.0 43 42 41
-22.2 -21.9 10.0 45 45 45
-21.9 -21.9 10.0 45 45 45
-21.7 -21.9 10.0 51 52 50
-21.5 -21.9 10.0 72 72 72
-21.3 -22.0 10.1 93 96 95
-21.1 -22.0 10.1 93 96 95
-20.8 -21.9 10.0 91 91 91
-20.5 -21.9 10.0 101 101 101
-20.3 -21.9 10.0 106 108 108
-20.1 -21.9 10.0 105 105 105
-19.8 -21.9 10.0 105 107 107
-19.6 -21.9 10.0 105 107 107
-19.4 -21.9 10.0 105 107 107
-19.1 -21.9 10.0 107 109 109
-18.9 -21.9 10.0 106 108 108
-18.7 -21.9 10.0 111 111 111
-18.5 -21.9 10.0 111 111 111
-18.2 -21.9 10.0 112 112 112
-18.0 -21.9 10.0 112 112 112
-17.8 -21.9 10.1 115 114 114
-17.5 -21.9 10.0 115 115 115
-17.3 -21.9 10.1 115 115 115
-17.1 -21.9 10.0 115 115 115
-16.6 -22.0 10.1 115 117 116
-16.3 -21.9 10.0 117 119 118
-16.1 -21.9 10.0 121 121 121
-15.9 -21.9 10.0 123 123 123
-15.6 -21.9 10.0 125 125 125
-15.4 -21.9 10.0 124 124 124
-15.3 -22.0 10.1 124 124 124
-14.9 -21.9 10.0 126 126 126
-14.7 -21.9 10.0 128 128 128
-14.5 -21.9 10.0 128 128 128
-14.2 -21.9 10.0 129 129 129
-13.6 -22.0 10.1 132 131 130
-13.3 -21.9 10.0 132 131 130
-12.5 -22.1 10.1 136 138 137
-12.1 -21.9 10.0 138 140 139
-9.2 -22.1 10.1 139 141 140
-9.0 -22.1 10.1 141 140 139
-8.7 -22.1 10.1 139 139 139
-8.2 -21.9 10.0 138 138 138
-7.3 -21.9 10.0 132 135 134
-7.0 -21.9 10.0 136 136 136
-6.8 -21.9 10.0 139 139 139
-6.6 -21.9 10.0 141 143 142
-6.3 -21.9 10.0 143 143 142
-5.6 -22.0 10.1 145 145 144
-5.4 -21.9 10.0 145 147 147
-4.5 -21.9 10.0 158 158 158
-4.2 -21.9 10.0 161 161 161
-4.0 -22.0 10.1 160 160 160
-3.8 -21.9 10.1 160 163 162
-3.5 -21.9 10.0 158 161 160
-3.3 -21.9 10.0 157 160 159
-3.1 -21.9 10.0 157 160 159
-1.9 -21.9 10.1 165 165 165
-1.7 -21.9 10.0 165 165 165
-1.4 -21.9 10.0 168 168 168
-0.5 -21.9 10.0 171 173 173
-0.3 -21.9 10.0 171 173 173
-0.0 -21.9 10.0 171 173 173
0.2 -21.9 10.0 171 173 173
0.4 -21.9 10.0 170 172 172
0.7 -21.9 10.0 173 175 175
0.9 -21.9 10.0 177 177 177
1.1 -21.9 10.0 177 177 177
1.4 -21.9 10.0 179 179 179
1.6 -21.9 10.0 179 179 179
2.3 -21.9 10.0 178 178 178
2.5 -21.9 10.0 181 181 181
3.0 -22.0 10.1 183 183 183
3.2 -21.9 10.0 183 183 183
43.2 -71.3 32.7 207 207 207
42.1 -68.4 31.3 207 207 207
54.5 -84.1 38.5 207 207 207
51.6 -78.4 35.9 207 207 207
49.5 -73.9 33.8 207 207 207
48.6 -71.5 32.7 207 207 207
47.5 -68.7 31.5 208 208 208
26.5 -32.4 14.8 208 208 208
27.1 -32.7 15.0 210 210 210
24.1 -27.4 12.5 207 207 207
24.5 -27.5 12.6 207 207 207
-28.9 -22.2 10.3 45 44 43
-28.9 -22.4 10.3 45 44 43
-28.7 -22.4 10.4 45 44 43
-28.4 -22.4 10.3 45 44 43
-28.2 -22.4 10.3 47 47 47
-27.9 -22.4 10.3 47 47 47
-27.7 -22.4 10.3 47 47 47
-27.5 -22.4 10.3 47 47 47
-27.2 -22.4 10.3 45 44 43
-27.0 -22.4 10.4 45 44 43
-26.7 -22.4 10.3 45 44 43
-26.5 -22.4 10.3 42 42 42
-26.2 -22.4 10.3 45 44 43
-26.0 -22.4 10.3 47 47 47
-25.8 -22.4 10.3 45 44 43
-25.5 -22.4 10.4 42 42 42
-25.3 -22.4 10.4 42 42 42
-25.0 -22.4 10.3 42 42 42
-24.8 -22.4 10.3 42 42 42
-24.6 -22.4 10.3 36 37 36
-24.3 -22.3 10.3 35 35 35
-24.1 -22.4 10.3 36 36 36
-23.8 -22.4 10.3 36 36 36
-23.6 -22.4 10.3 39 39 39
-23.4 -22.4 10.3 39 39 39
-23.1 -22.4 10.3 39 39 39
-22.9 -22.3 10.3 39 39 39
-22.6 -22.4 10.3 41 41 41
-22.4 -22.4 10.4 46 46 46
-22.2 -22.4 10.4 44 43 42
-21.9 -22.4 10.4 50 50 50
-21.7 -22.4 10.3 54 56 54
-21.5 -22.4 10.4 77 77 77
-21.2 -22.4 10.4 83 85 85
-21.0 -22.4 10.4 91 91 91
-20.7 -22.4 10.3 93 96 95
-20.5 -22.4 10.4 99 99 99
-20.2 -22.4 10.4 101 101 101
-20.0 -22.3 10.3 103 103 103
-19.8 -22.4 10.4 105 105 105
-19.6 -22.4 10.4 106 108 108
-19.3 -22.4 10.4 105 107 107
-19.1 -22.4 10.4 105 107 107
-18.8 -22.4 10.4 107 109 109
-18.6 -22.4 10.4 107 109 109
-18.3 -22.4 10.4 111 111 111
-18.1 -22.4 10.4 111 111 111
-17.9 -22.4 10.4 112 112 112
-17.6 -22.4 10.4 112 112 112
-17.4 -22.4 10.4 115 114 114
-17.1 -22.4 10.3 116 116 116
-16.8 -22.3 10.3 115 115 115
-16.6 -22.4 10.3 116 118 117
-16.4 -22.4 10.4 116 118 117
-16.2 -22.4 10.4 118 120 119
-15.7 -22.4 10.4 118 120 119
-15.4 -22.4 10.4 121 121 121
-15.2 -22.4 10.4 123 123 123
-15.0 -22.4 10.4 123 123 123
-14.7 -22.4 10.4 125 125 125
-14.6 -22.6 10.4 124 124 124
-14.3 -22.4 10.4 126 126 126
-13.9 -22.2 10.3 128 128 128
-9.4 -22.2 10.3 138 140 139
-9.2 -22.4 10.4 138 140 139
-8.9 -22.4 10.4 140 140 140
-8.7 -22.3 10.3 140 140 140
-8.5 -22.4 10.4 139 141 140
-8.2 -22.4 10.4 140 142 141
-8.0 -22.5 10.4 137 139 138
-7.7 -22.4 10.4 134 137 136
-7.5 -22.3 10.3 134 137 136
-7.3 -22.4 10.4 139 139 139
-7.0 -22.3 10.3 141 141 141
-6.8 -22.4 10.3 145 145 144
-6.5 -22.4 10.4 147 147 147
-6.3 -22.4 10.4 146 146 146
-6.1 -22.4 10.4 148 148 148
-5.8 -22.4 10.4 152 152 152
-5.6 -22.4 10.4 156 159 158
-5.3 -22.4 10.4 159 159 159
-5.1 -22.4 10.4 162 162 162
-4.9 -22.4 10.4 161 161 161
-4.6 -22.4 10.4 163 166 165
-4.4 -22.4 10.3 161 164 163
-3.6 -22.4 10.4 164 164 164
-2.0 -22.4 10.4 171 173 173
-1.5 -22.4 10.4 171 173 173
-0.8 -22.4 10.4 170 172 172
-0.5 -22.4 10.4 173 175 175
-0.3 -22.4 10.4 172 174 174
-0.0 -22.4 10.4 177 177 177
0.2 -22.4 10.4 177 177 177
0.5 -22.4 10.4 179 179 179
0.7 -22.4 10.4 179 179 179
0.9 -22.4 10.4 179 179 179
1.2 -22.4 10.4 179 179 179
1.4 -22.4 10.4 181 181 181
1.9 -22.4 10.4 180 180 180
2.1 -22.4 10.4 180 180 180
2.4 -22.4 10.4 180 180 180
2.6 -22.4 10.4 183 183 183
3.1 -22.4 10.4 182 182 182
41.8 -68.3 31.6 207 207 207
41.4 -66.6 30.8 207 207 207
42.4 -67.0 31.0 207 207 207
43.0 -66.8 30.9 207 207 207
51.7 -77.7 36.0 207 207 207
49.6 -73.4 34.0 207 207 207
48.3 -70.3 32.6 207 207 207
47.0 -67.3 31.2 207 207 207
46.8 -66.0 30.6 207 207 207
26.5 -32.0 14.8 207 207 207
24.2 -27.1 12.6 206 206 206
24.7 -27.4 12.7 206 206 206
-29.5 -22.4 10.5 46 45 43
-29.3 -22.4 10.5 47 48 47
-29.1 -22.4 10.5 47 48 47
-28.8 -22.4 10.5 47 48 47
-28.6 -22.4 10.5 47 48 47
-28.3 -22.4 10.5 47 48 47
-28.1 -22.4 10.5 49 49 49
-27.8 -22.4 10.5 47 48 47
-27.6 -22.4 10.5 47 48 47
-27.3 -22.4 10.5 49 49 49
-27.1 -22.4 10.5 46 45 43
-26.9 -22.4 10.5 47 48 47
-26.6 -22.4 10.5 47 48 47
-26.4 -22.4 10.5 46 45 43
-26.1 -22.4 10.5 46 45 43
-25.9 -22.4 10.5 42 43 42
-25.6 -22.4 10.5 42 43 42
-25.4 -22.4 10.5 42 43 42
-25.1 -22.4 10.5 42 43 42
-24.9 -22.4 10.5 40 40 40
-24.7 -22.4 10.5 37 38 37
-24.4 -22.4 10.5 40 40 40
-24.2 -22.4 10.5 40 40 40
-23.9 -22.4 10.5 40 40 40
-23.7 -22.4 10.5 40 40 40
-23.4 -22.4 10.5 40 40 40
-23.2 -22.4 10.5 40 40 40
-23.0 -22.4 10.5 40 40 40
-22.7 -22.4 10.5 42 42 42
-22.5 -22.4 10.5 42 42 42
-22.2 -22.4 10.5 42 42 42
-22.0 -22.4 10.5 47 47 47
-21.7 -22.4 10.5 48 48 48
-21.5 -22.4 10.5 42 42 42
-21.2 -22.4 10.5 59 61 59
-21.0 -22.4 10.5 84 84 84
-20.8 -22.4 10.5 85 87 87
-20.5 -22.4 10.5 94 94 94
-20.2 -22.4 10.5 93 93 93
-20.0 -22.4 10.5 96 99 98
-19.8 -22.4 10.5 107 107 107
-19.6 -22.5 10.5 104 104 104
-19.3 -22.5 10.5 106 106 106
-19.1 -22.5 10.5 106 106 106
-18.9 -22.5 10.5 106 108 108
-18.6 -22.4 10.5 106 108 108
-18.4 -22.5 10.5 106 108 108
-18.1 -22.4 10.5 108 110 110
-17.8 -22.4 10.5 108 110 110
-17.6 -22.4 10.5 108 110 110
-17.3 -22.4 10.5 107 109 109
-17.0 -22.3 10.5 113 114 113
-16.8 -22.3 10.5 115 115 115
-16.6 -22.4 10.5 115 115 115
-16.2 -22.6 10.6 116 116 116
-15.9 -22.4 10.5 117 119 118
-15.6 -22.4 10.5 117 119 118
-15.4 -22.4 10.5 117 119 118
-15.2 -22.4 10.5 119 121 120
-14.9 -22.4 10.5 119 121 120
-14.7 -22.5 10.5 122 122 122
-14.4 -22.4 10.5 122 122 122
-14.1 -22.3 10.5 124 124 124
-14.0 -22.5 10.5 123 123 123
-13.8 -22.6 10.6 123 123 123
-9.5 -22.3 10.5 136 136 136
-9.3 -22.5 10.5 138 140 139
-9.1 -22.5 10.5 140 140 140
-8.9 -22.5 10.6 139 139 139
-8.6 -22.4 10.5 140 142 141
-8.3 -22.4 10.5 142 144 143
-8.1 -22.5 10.5 144 144 144
-7.8 -22.4 10.5 141 141 141
-7.6 -22.3 10.5 141 141 141
-7.3 -22.4 10.5 144 144 144
-7.1 -22.4 10.5 143 145 144
-6.8 -22.4 10.5 148 148 148
-6.6 -22.4 10.5 147 147 147
-6.1 -22.4 10.5 157 157 157
-5.9 -22.4 10.5 157 160 159
-5.6 -22.4 10.5 164 164 164
-5.4 -22.4 10.5 165 165 165
-5.2 -22.6 10.6 164 167 166
-4.9 -22.4 10.5 163 166 165
-4.7 -22.4 10.5 161 164 163
-4.4 -22.4 10.5 167 167 167
-4.2 -22.4 10.5 165 165 165
-3.9 -22.4 10.5 164 164 164
-3.7 -22.4 10.5 170 171 170
-3.4 -22.4 10.5 167 167 167
-3.2 -22.5 10.5 171 173 173
-3.0 -22.4 10.5 173 175 175
-2.7 -22.4 10.5 173 175 175
-2.5 -22.6 10.6 173 175 175
-2.2 -22.5 10.5 173 175 175
-2.0 -22.6 10.6 177 177 177
-1.7 -22.4 10.5 177 177 177
-1.5 -22.4 10.5 177 177 177
-1.0 -22.5 10.5 179 179 179
-0.8 -22.4 10.5 179 179 179
-0.5 -22.4 10.5 179 179 179
-0.3 -22.4 10.5 179 179 179
-0.0 -22.4 10.5 179 179 179
0.2 -22.4 10.5 181 181 181
0.5 -22.4 10.5 181 181 181
0.7 -22.4 10.5 180 180 180
0.9 -22.4 10.5 180 180 180
1.2 -22.4 10.5 180 180 180
1.4 -22.4 10.5 183 183 183
1.7 -22.5 10.5 180 180 180
1.9 -22.4 10.5 180 180 180
2.2 -22.4 10.5 182 182 182
2.9 -22.5 10.5 182 182 182
3.1 -22.4 10.5 185 185 185
39.9 -64.6 30.2 209 209 209
39.8 -63.2 29.6 209 209 209
40.6 -63.5 29.7 206 206 206
40.9 -62.9 29.4 206 206 206
40.5 -61.2 28.6 206 206 206
47.8 -68.9 32.2 209 209 209
45.8 -64.9 30.4 206 206 206
45.1 -63.0 29.5 206 206 206
44.6 -61.3 28.7 207 207 207
26.5 -31.7 14.8 206 206 206
26.9 -31.7 14.8 207 207 207
24.9 -27.3 12.8 206 206 206
25.6 -27.7 13.0 206 206 206
-20.2 -23.0 10.9 96 99 98
-19.0 -23.0 10.9 105 105 105
-18.0 -22.4 10.6 107 107 107
-17.5 -22.4 10.6 107 109 109
-17.2 -22.3 10.6 107 109 109
-15.2 -22.9 10.9 118 120 119
-14.5 -22.4 10.6 118 120 119
-9.6 -22.3 10.6 134 134 134
-9.4 -22.4 10.6 137 137 137
-8.6 -22.3 10.6 140 142 141
-1.3 -23.0 10.9 181 181 181
40.3 -61.2 29.0 211 211 211
39.7 -59.3 28.1 211 211 211
46.6 -66.3 31.4 206 206 206
45.6 -63.9 30.2 206 206 206
44.0 -60.7 28.7 209 209 209
43.8 -59.5 28.1 206 206 206
44.2 -59.2 28.0 206 206 206
27.1 -31.6 15.0 206 206 206
-30.7 -22.8 10.9 49 49 49
-30.5 -22.9 10.9 51 51 51
-30.3 -22.9 10.9 49 49 49
-30.1 -22.9 10.9 49 49 49
-29.8 -22.9 10.9 51 51 51
-29.5 -22.9 10.9 51 51 51
-29.3 -22.9 10.9 51 51 51
-29.0 -22.9 10.9 51 51 51
-28.8 -22.9 10.9 51 51 51
-28.5 -22.9 10.9 51 51 51
-28.3 -22.9 10.9 53 53 53
-28.0 -22.9 10.9 53 53 53
-27.8 -22.9 10.9 51 51 51
-27.5 -22.9 10.9 49 49 49
-27.2 -22.9 10.9 47 46 45
-27.0 -22.9 10.9 49 49 49
-26.7 -22.9 10.9 47 46 45
-26.5 -22.9 10.9 44 44 44
-26.2 -22.9 10.9 44 44 44
-26.0 -22.9 10.9 44 44 44
-25.0 -22.9 10.9 44 44 44
-24.7 -22.9 10.9 44 44 44
-24.5 -22.9 11.0 44 44 44
-24.2 -22.9 10.9 39 39 39
-24.0 -22.9 10.9 39 39 39
-23.7 -22.9 10.9 42 42 42
-23.4 -22.9 10.9 39 39 39
-23.2 -22.9 10.9 42 42 42
-22.7 -22.9 10.9 39 39 39
-22.4 -22.9 10.9 42 43 42
-22.2 -22.9 10.9 42 43 42
-21.9 -22.9 10.9 42 43 42
-21.6 -22.9 10.9 44 44 44
-20.7 -23.0 11.0 79 79 79
-20.4 -22.9 10.9 89 91 90
-20.1 -22.9 10.9 97 97 97
-19.8 -22.8 10.9 95 95 95
-19.6 -22.8 10.9 96 96 96
-19.4 -22.9 11.0 97 100 99
-19.1 -22.9 10.9 97 100 99
-18.8 -22.8 10.9 103 103 103
-18.4 -22.9 10.9 105 105 105
-15.3 -22.8 10.9 116 116 116
-10.2 -22.9 10.9 122 124 123
-9.4 -22.9 10.9 126 129 128
-9.2 -22.9 10.9 129 129 129
-9.0 -23.0 11.0 132 135 134
-8.7 -22.9 11.0 150 150 150
-8.4 -22.9 10.9 158 158 158
-8.2 -22.9 10.9 152 152 152
-7.9 -22.9 10.9 155 155 155
-7.7 -22.9 10.9 152 152 152
-7.4 -22.9 11.0 154 154 154
-7.2 -23.0 11.0 160 163 162
-6.9 -22.9 11.0 164 164 164
-6.6 -22.8 10.9 169 169 169
-6.1 -22.9 11.0 173 173 173
-5.9 -22.9 10.9 177 177 177
-5.6 -22.9 11.0 177 177 177
-5.4 -22.9 10.9 177 180 179
-5.1 -22.9 11.0 177 180 179
-4.9 -22.9 10.9 183 183 183
-4.6 -22.9 10.9 188 188 188
-4.4 -22.9 10.9 190 190 190
-4.1 -22.9 10.9 189 189 189
-3.8 -22.9 10.9 188 188 188
-3.6 -22.9 10.9 188 188 188
-2.8 -22.9 11.0 186 186 186
-2.6 -22.9 11.0 186 186 186
-2.3 -22.9 11.0 186 186 186
-2.1 -22.8 10.9 186 186 186
-1.3 -22.9 11.0 182 182 182
-1.1 -22.9 10.9 182 182 182
-0.8 -22.9 10.9 182 182 182
-0.5 -22.9 10.9 182 182 182
-0.3 -22.9 10.9 182 182 182
-0.0 -22.9 10.9 185 185 185
0.2 -22.9 10.9 185 185 185
0.5 -22.9 10.9 185 185 185
0.7 -22.9 10.9 184 184 184
1.0 -22.9 11.0 184 184 184
1.2 -22.9 10.9 181 181 181
1.5 -22.9 10.9 184 184 184
1.7 -22.9 10.9 184 184 184
2.0 -22.9 10.9 184 184 184
2.3 -22.9 10.9 184 184 184
2.5 -22.9 10.9 183 183 183
2.8 -22.9 11.0 183 183 183
3.0 -22.9 10.9 183 183 183
4.8 -23.0 11.0 174 174 174
5.1 -22.9 10.9 206 206 206
5.3 -22.9 10.9 208 208 208
5.6 -22.9 10.9 211 211 211
5.8 -22.9 10.9 208 208 208
6.3 -22.9 10.9 208 208 208
6.6 -22.9 10.9 208 208 208
6.8 -22.9 10.9 208 208 208
7.1 -22.9 10.9 208 208 208
7.3 -22.9 10.9 208 208 208
7.6 -22.9 10.9 208 208 208
7.9 -22.9 10.9 208 208 208
8.1 -22.9 10.9 208 208 208
8.6 -22.9 11.0 208 208 208
8.9 -22.9 11.0 208 208 208
9.1 -22.9 10.9 208 208 208
9.4 -22.9 10.9 208 208 208
9.6 -22.9 10.9 208 208 208
9.9 -22.9 10.9 208 208 208
10.2 -22.9 11.0 208 208 208
39.5 -60.3 28.8 208 208 208
40.1 -60.3 28.8 208 208 208
39.7 -58.7 28.1 208 208 208
47.4 -66.8 32.0 205 205 205
43.6 -59.6 28.5 208 208 208
43.6 -58.7 28.1 206 206 206
44.1 -58.4 27.9 206 206 206
27.2 -31.4 15.0 205 205 205
24.0 -26.0 12.5 206 206 206
25.1 -26.9 12.9 207 207 207
25.9 -27.4 13.1 207 207 207
-14.5 -29.1 14.1 109 111 111
-14.1 -29.0 14.0 108 110 110
-14.5 -30.7 14.8 113 114 113
-14.2 -30.7 14.8 112 112 112
-11.8 -29.1 14.1 111 111 111
-12.1 -30.7 14.9 117 119 118
-1.8 -30.7 14.8 188 188 188
-1.4 -30.6 14.8 188 188 188
-0.7 -29.2 14.1 188 188 188
-0.4 -29.1 14.1 184 184 184
0.6 -30.8 14.9 184 184 184
1.0 -30.7 14.8 183 183 183
1.3 -30.7 14.9 183 183 183
8.2 -30.7 14.8 210 210 210
8.6 -30.7 14.8 210 210 210
8.9 -30.7 14.8 207 207 207
9.3 -30.6 14.8 210 210 210
9.6 -30.7 14.8 210 210 210
10.0 -30.7 14.8 207 207 207
10.3 -30.6 14.8 207 207 207
10.6 -30.7 14.8 210 210 210
11.0 -30.7 14.9 210 210 210
11.4 -30.8 14.9 207 207 207
11.7 -30.8 14.9 207 207 207
12.1 -30.8 14.9 207 207 207
12.4 -30.7 14.9 207 207 207
12.7 -30.6 14.8 207 207 207
13.1 -30.7 14.8 207 207 207
13.4 -30.6 14.8 207 207 207
13.1 -29.2 14.1 207 207 207
13.4 -29.1 14.1 207 207 207
14.4 -30.6 14.8 207 207 207
14.8 -30.7 14.8 207 207 207
15.1 -30.7 14.8 208 208 208
15.5 -30.7 14.8 208 208 208
15.8 -30.7 14.8 208 208 208
16.2 -30.7 14.9 208 208 208
39.6 -60.8 29.4 208 208 208
39.8 -60.2 29.1 208 208 208
40.4 -60.0 29.0 208 208 208
48.5 -68.6 33.2 208 208 208
48.4 -67.4 32.6 208 208 208
47.2 -64.7 31.3 208 208 208
44.2 -59.6 28.8 208 208 208
43.8 -58.3 28.2 208 208 208
44.4 -58.2 28.1 208 208 208
27.2 -31.0 15.0 207 207 207
24.2 -26.0 12.6 206 206 206
24.9 -26.4 12.8 206 206 206
25.6 -26.9 13.0 206 206 206
-33.9 -31.0 15.2 46 46 46
-33.4 -30.8 15.1 46 46 46
-33.2 -31.0 15.2 46 46 46
-32.8 -31.0 15.2 46 46 46
-28.3 -31.1 15.2 47 47 47
-27.7 -30.8 15.1 47 47 47
-27.6 -31.1 15.2 51 51 51
-15.9 -30.9 15.1 103 105 105
-15.4 -30.7 15.0 100 100 100
-15.1 -30.7 15.0 82 82 82
-14.8 -30.9 15.1 78 78 78
-14.4 -30.8 15.1 71 70 69
-14.0 -30.7 15.0 64 64 62
-13.1 -31.0 15.2 18 22 19
-12.7 -30.9 15.1 19 23 20
-5.3 -22.1 10.8 203 203 203
-1.8 -30.6 15.0 192 192 192
5.0 -22.1 10.8 207 207 207
5.2 -22.0 10.8 207 207 207
6.5 -21.9 10.7 210 210 210
9.3 -30.6 15.0 210 210 210
9.7 -30.6 15.0 210 210 210
10.0 -30.6 15.0 210 210 210
10.4 -30.6 15.0 210 210 210
10.7 -30.6 15.0 210 210 210
11.1 -30.6 15.0 210 210 210
11.8 -30.7 15.0 207 207 207
12.1 -30.6 15.0 207 207 207
12.5 -30.6 15.0 204 204 204
12.8 -30.5 14.9 207 207 207
13.2 -30.5 14.9 207 207 207
13.5 -30.6 15.0 207 207 207
10.0 -22.1 10.8 207 207 207
14.9 -30.6 15.0 207 207 207
15.3 -30.6 15.0 207 207 207
15.9 -30.5 14.9 207 207 207
16.3 -30.6 15.0 207 207 207
16.7 -30.6 15.0 209 209 209
39.9 -60.7 29.7 207 207 207
40.3 -60.2 29.5 207 207 207
49.2 -68.8 33.7 207 207 207
49.0 -67.5 33.0 207 207 207
46.7 -63.3 31.0 207 207 207
43.8 -58.4 28.6 207 207 207
43.4 -57.0 27.9 207 207 207
43.6 -56.5 27.7 208 208 208
27.5 -31.1 15.2 206 206 206
25.1 -26.3 12.9 205 205 205
25.7 -26.6 13.0 206 206 206
-34.7 -31.4 15.5 47 47 47
-34.4 -31.4 15.5 47 47 47
-34.0 -31.4 15.5 47 47 47
-28.9 -31.4 15.5 42 42 42
-28.6 -31.4 15.6 43 43 43
-28.3 -31.5 15.6 42 43 42
-16.3 -31.4 15.5 21 24 22
-15.5 -31.3 15.5 26 26 26
-15.2 -31.4 15.6 29 30 28
-14.9 -31.5 15.6 27 27 27
-14.5 -31.5 15.6 27 29 27
-5.1 -21.9 10.8 206 206 206
-4.8 -21.9 10.8 206 206 206
-4.6 -21.9 10.8 203 203 203
-4.3 -21.9 10.8 202 202 202
-4.0 -21.8 10.8 202 202 202
-1.0 -21.9 10.8 196 196 196
-0.8 -21.8 10.8 193 193 193
-0.3 -21.9 10.8 193 193 193
4.8 -21.9 10.9 173 173 173
5.0 -21.9 10.8 204 204 204
5.2 -21.8 10.8 206 206 206
5.5 -21.8 10.8 209 209 209
5.7 -21.8 10.8 211 211 211
6.2 -21.8 10.8 209 209 209
9.4 -31.6 15.6 209 209 209
9.7 -31.5 15.6 209 209 209
11.2 -31.6 15.7 209 209 209
11.6 -31.8 15.7 209 209 209
12.0 -31.7 15.7 206 206 206
12.2 -31.4 15.6 206 206 206
13.8 -31.6 15.6 206 206 206
10.1 -21.9 10.9 206 206 206
15.2 -31.6 15.7 206 206 206
16.3 -31.6 15.6 207 207 207
16.7 -31.6 15.7 207 207 207
17.1 -31.8 15.7 207 207 207
39.9 -59.9 29.6 207 207 207
40.2 -59.4 29.4 207 207 207
39.8 -56.9 28.1 207 207 207
45.9 -61.6 30.5 207 207 207
44.2 -58.3 28.8 207 207 207
43.4 -56.4 27.9 207 207 207
43.6 -55.9 27.7 207 207 207
47.8 -60.3 29.8 207 207 207
48.2 -59.9 29.6 207 207 207
378.4 -439.4 217.4 205 205 205
27.7 -31.0 15.3 206 206 206
25.5 -26.4 13.1 205 205 205
25.9 -26.6 13.1 205 205 205
-34.8 -31.1 15.6 51 50 48
-34.4 -31.1 15.6 47 48 47
-34.0 -31.1 15.6 47 48 47
-28.9 -31.1 15.5 41 41 41
-28.6 -31.1 15.5 41 41 41
-15.6 -31.0 15.5 26 26 26
-15.2 -31.0 15.5 26 26 26
-14.9 -31.1 15.5 27 27 27
-14.5 -31.1 15.6 29 30 28
-0.0 -31.1 15.6 195 195 195
0.3 -31.1 15.6 195 195 195
0.7 -31.1 15.6 192 192 192
1.0 -31.1 15.5 195 195 195
1.4 -30.9 15.5 192 192 192
1.7 -30.7 15.4 192 192 192
5.1 -21.9 10.9 203 203 203
5.3 -21.7 10.9 206 206 206
8.7 -31.2 15.6 209 209 209
9.0 -31.1 15.5 209 209 209
9.4 -31.1 15.6 209 209 209
9.7 -31.1 15.5 209 209 209
10.0 -31.0 15.5 209 209 209
10.4 -31.0 15.5 209 209 209
10.8 -31.0 15.5 209 209 209
11.2 -31.1 15.6 209 209 209
11.6 -31.2 15.6 209 209 209
11.9 -31.1 15.6 206 206 206
12.2 -30.9 15.5 203 203 203
12.6 -30.9 15.5 206 206 206
13.0 -31.1 15.5 209 209 209
13.3 -31.1 15.6 206 206 206
13.7 -31.1 15.6 206 206 206
14.0 -31.0 15.5 206 206 206
14.5 -31.2 15.6 206 206 206
14.9 -31.2 15.6 206 206 206
15.1 -31.1 15.6 206 206 206
15.5 -31.1 15.6 206 206 206
15.9 -31.1 15.6 206 206 206
16.2 -31.1 15.6 206 206 206
16.6 -31.1 15.6 206 206 206
17.0 -31.2 15.6 206 206 206
17.3 -31.1 15.5 203 203 203
17.6 -31.0 15.5 206 206 206
18.0 -31.1 15.6 208 208 208
18.4 -31.0 15.5 206 206 206
40.1 -59.5 29.8 206 206 206
40.1 -58.6 29.3 206 206 206
40.7 -58.4 29.2 206 206 206
46.5 -61.5 30.8 206 206 206
44.4 -58.0 29.0 206 206 206
43.8 -56.2 28.1 206 206 206
44.4 -56.2 28.1 207 207 207
48.5 -60.6 30.3 207 207 207
49.1 -60.4 30.2 207 207 207
27.8 -30.7 15.4 205 205 205
26.2 -26.5 13.3 204 204 204
26.5 -26.6 13.3 204 204 204
-34.9 -24.5 12.4 57 57 57
-34.8 -24.6 12.5 59 60 58
-34.5 -24.6 12.5 59 60 58
-34.2 -24.6 12.5 59 60 58
-33.9 -24.6 12.5 59 60 58
-33.7 -24.6 12.5 59 60 58
-33.4 -24.6 12.5 59 60 58
-33.1 -24.6 12.5 59 60 58
-32.8 -24.6 12.5 59 60 58
-32.5 -24.6 12.5 59 60 58
-32.2 -24.6 12.5 59 60 58
-31.9 -24.6 12.5 59 60 58
-31.6 -24.6 12.5 57 57 57
-31.3 -24.6 12.5 54 54 54
-31.0 -24.6 12.5 54 54 54
-30.7 -24.6 12.5 55 55 55
-30.4 -24.6 12.5 55 55 55
-30.2 -24.6 12.5 53 52 52
-29.9 -24.6 12.5 51 50 48
-28.0 -24.5 12.4 51 51 49
-27.9 -24.6 12.5 51 51 49
-27.6 -24.6 12.5 48 48 48
-27.3 -24.6 12.5 48 48 48
-26.8 -24.5 12.4 48 48 48
-26.6 -24.5 12.4 48 48 48
-25.8 -24.6 12.5 47 47 47
-25.5 -24.6 12.5 47 47 47
-25.2 -24.6 12.5 47 48 47
-24.1 -24.7 12.5 43 43 43
-23.7 -24.6 12.4 43 43 43
-23.6 -24.7 12.5 42 42 42
-23.3 -24.7 12.5 44 44 44
-11.0 -24.6 12.4 31 30 29
-10.6 -24.3 12.3 32 32 32
-10.4 -24.4 12.4 33 33 33
-9.6 -24.6 12.5 183 183 183
-6.7 -24.7 12.5 219 219 219
-6.4 -24.5 12.4 219 219 219
-6.1 -24.5 12.4 215 218 217
-5.8 -24.5 12.4 215 218 217
-2.4 -24.6 12.5 199 199 199
-0.3 -24.6 12.5 197 197 197
0.3 -24.7 12.5 196 196 196
0.5 -24.7 12.5 196 196 196
0.8 -24.7 12.5 196 196 196
1.1 -24.6 12.5 194 194 194
1.4 -24.6 12.5 194 194 194
2.0 -24.6 12.5 191 191 191
2.3 -24.6 12.5 191 191 191
2.6 -24.6 12.4 191 191 191
2.9 -24.5 12.4 188 188 188
7.5 -24.6 12.5 208 208 208
7.7 -24.5 12.4 208 208 208
8.0 -24.4 12.4 208 208 208
8.4 -24.6 12.4 208 208 208
8.6 -24.5 12.4 208 208 208
8.9 -24.4 12.4 208 208 208
9.2 -24.6 12.5 208 208 208
9.5 -24.6 12.5 208 208 208
9.8 -24.6 12.5 208 208 208
10.0 -24.3 12.3 208 208 208
10.4 -24.5 12.4 208 208 208
10.7 -24.6 12.4 208 208 208
10.9 -24.5 12.4 210 210 210
11.2 -24.5 12.4 208 208 208
11.4 -24.4 12.3 205 205 205
11.7 -24.4 12.3 205 205 205
12.1 -24.5 12.4 205 205 205
12.4 -24.5 12.4 205 205 205
12.6 -24.5 12.4 205 205 205
12.9 -24.5 12.4 205 205 205
13.2 -24.5 12.4 205 205 205
13.5 -24.5 12.4 206 206 206
13.9 -24.6 12.5 206 206 206
14.2 -24.6 12.5 208 208 208
15.4 -24.7 12.5 206 206 206
40.1 -58.9 29.8 206 206 206
40.2 -58.0 29.4 206 206 206
46.5 -60.8 30.8 206 206 206
44.6 -57.5 29.1 206 206 206
44.0 -55.8 28.3 206 206 206
45.2 -56.6 28.7 206 206 206
48.5 -59.8 30.3 206 206 206
48.9 -59.5 30.1 206 206 206
50.1 -60.0 30.4 206 206 206
26.4 -26.4 13.4 206 206 206
-35.6 -24.7 12.7 58 58 58
-35.5 -24.8 12.7 59 61 59
-35.2 -24.8 12.7 59 61 59
-34.9 -24.8 12.7 59 61 59
-34.6 -24.8 12.7 59 61 59
-34.3 -24.8 12.7 63 63 63
-34.0 -24.8 12.7 59 61 59
-33.7 -24.8 12.7 58 58 58
-33.4 -24.8 12.7 59 61 59
-33.1 -24.8 12.7 59 61 59
-32.8 -24.8 12.7 59 61 59
-32.5 -24.8 12.7 59 61 59
-32.3 -24.8 12.7 58 58 58
-31.9 -24.8 12.7 58 58 58
-31.7 -24.8 12.7 55 55 55
-31.4 -24.8 12.7 55 55 55
-31.1 -24.8 12.7 56 56 56
-30.8 -24.8 12.7 53 53 53
-30.5 -24.8 12.7 51 51 49
-30.2 -24.8 12.7 51 51 49
-29.9 -24.8 12.7 52 52 50
-29.6 -24.8 12.7 52 52 50
-29.4 -24.9 12.7 54 54 54
-29.0 -24.8 12.7 52 52 50
-28.7 -24.8 12.7 52 52 50
-28.4 -24.8 12.7 54 54 54
-28.1 -24.8 12.7 49 49 49
-27.8 -24.8 12.7 49 49 49
-27.5 -24.8 12.7 49 49 49
-27.2 -24.8 12.7 49 49 49
-26.9 -24.8 12.7 50 50 50
-26.6 -24.8 12.7 50 50 50
-26.3 -24.8 12.7 47 48 47
-26.0 -24.8 12.7 48 48 48
-25.7 -24.8 12.7 48 48 48
-25.5 -24.8 12.7 48 48 48
-25.2 -24.8 12.7 46 46 46
-24.9 -24.9 12.7 46 46 46
-24.5 -24.8 12.7 44 44 44
-24.3 -24.9 12.7 46 46 46
-24.1 -24.9 12.8 47 47 47
-23.6 -24.8 12.7 47 47 47
-23.4 -24.8 12.7 42 43 42
-22.8 -24.8 12.7 43 43 43
-13.3 -24.8 12.7 28 28 28
-12.5 -24.8 12.7 28 28 28
-12.2 -24.9 12.7 29 31 29
-11.9 -24.8 12.7 32 31 30
-11.6 -24.8 12.7 29 30 28
-11.2 -24.6 12.6 32 31 30
-10.7 -24.2 12.4 32 32 32
-10.4 -24.9 12.7 41 41 41
-10.1 -24.9 12.7 160 163 162
-9.8 -24.8 12.7 186 186 186
-7.1 -24.8 12.7 224 226 226
-6.8 -24.8 12.7 224 224 224
-6.5 -24.8 12.7 221 221 221
-6.2 -24.8 12.7 219 219 219
-5.9 -24.7 12.7 219 219 219
-5.7 -24.8 12.7 218 218 218
-5.4 -24.8 12.7 217 217 217
-5.1 -24.8 12.7 213 215 215
-4.8 -24.8 12.7 212 214 214
-2.7 -24.9 12.8 206 206 206
-2.4 -24.8 12.7 203 203 203
-2.1 -24.8 12.7 204 204 204
-1.8 -24.8 12.7 204 204 204
-1.5 -24.8 12.7 204 204 204
-1.2 -24.8 12.7 200 200 200
-0.9 -24.8 12.7 200 200 200
-0.6 -24.8 12.7 200 200 200
-0.3 -24.9 12.7 202 202 202
-0.0 -25.0 12.8 198 198 198
0.3 -24.8 12.7 198 198 198
0.6 -24.8 12.7 195 195 195
0.9 -24.8 12.7 195 195 195
1.1 -24.8 12.7 195 195 195
1.4 -24.8 12.7 195 195 195
1.7 -24.9 12.7 193 193 193
2.0 -24.8 12.7 193 193 193
2.3 -24.7 12.7 193 193 193
2.6 -24.8 12.7 193 193 193
5.2 -24.6 12.6 181 181 181
5.6 -24.8 12.7 175 175 175
5.9 -24.8 12.7 205 205 205
6.2 -24.9 12.7 205 205 205
6.5 -24.8 12.7 208 208 208
6.8 -24.8 12.7 208 208 208
7.1 -24.8 12.7 210 210 210
7.4 -24.8 12.7 210 210 210
7.6 -24.8 12.7 210 210 210
7.9 -24.8 12.7 208 208 208
8.2 -24.8 12.7 208 208 208
8.5 -24.8 12.7 208 208 208
8.8 -24.8 12.7 208 208 208
9.1 -24.8 12.7 208 208 208
9.4 -24.9 12.8 208 208 208
9.8 -24.9 12.8 208 208 208
10.0 -24.8 12.7 208 208 208
10.3 -24.8 12.7 208 208 208
10.6 -24.9 12.8 208 208 208
10.9 -24.8 12.7 208 208 208
11.2 -24.8 12.7 208 208 208
11.5 -24.8 12.7 208 208 208
11.8 -24.9 12.8 208 208 208
12.1 -24.9 12.7 205 205 205
12.4 -24.8 12.7 205 205 205
12.6 -24.8 12.7 205 205 205
12.9 -24.7 12.7 205 205 205
13.3 -24.8 12.7 205 205 205
13.6 -24.8 12.7 208 208 208
13.9 -24.8 12.7 205 205 205
14.1 -24.8 12.7 208 208 208
14.4 -24.8 12.7 208 208 208
14.8 -24.8 12.7 208 208 208
15.1 -24.9 12.8 207 207 207
15.4 -25.0 12.8 207 207 207
15.6 -24.8 12.7 207 207 207
16.5 -24.9 12.7 207 207 207
40.0 -58.0 29.7 207 207 207
40.2 -57.3 29.4 207 207 207
40.5 -55.8 28.6 207 207 207
46.5 -60.2 30.9 202 202 202
44.5 -56.7 29.1 207 207 207
44.1 -55.4 28.4 205 205 205
45.1 -55.8 28.6 205 205 205
48.4 -59.0 30.2 206 206 206
48.7 -58.5 30.0 206 206 206
49.8 -59.0 30.2 206 206 206
-36.2 -24.8 12.9 59 61 59
-36.2 -25.0 12.9 59 61 59
-35.9 -25.0 12.9 59 61 59
-35.5 -25.0 12.9 60 62 60
-35.2 -25.0 12.9 60 62 60
-34.9 -25.0 12.9 60 62 60
-34.6 -25.0 12.9 60 62 60
-34.3 -25.0 12.9 58 59 59
-34.0 -25.0 12.9 58 59 59
-33.7 -25.0 12.9 58 59 59
-33.4 -25.0 12.9 60 62 60
-33.1 -25.0 12.9 60 62 60
-32.8 -24.9 12.9 58 59 59
-32.5 -24.9 12.9 58 59 59
-32.2 -24.9 12.9 56 56 56
-31.9 -24.9 12.9 58 59 59
-31.6 -24.9 12.9 56 56 56
-31.3 -24.9 12.9 54 54 54
-31.0 -24.9 12.9 54 54 54
-30.7 -25.0 12.9 52 52 50
-30.4 -24.9 12.9 53 52 51
-30.1 -24.9 12.9 50 50 50
-29.8 -25.0 12.9 53 52 51
-29.5 -25.0 12.9 53 52 51
-29.2 -25.0 12.9 53 52 51
-28.9 -25.0 12.9 53 52 51
-28.6 -24.9 12.9 50 50 50
-28.3 -25.0 12.9 50 50 50
-28.0 -25.0 12.9 50 50 50
-27.7 -25.0 12.9 51 51 51
-27.4 -25.0 12.9 51 51 51
-27.1 -25.0 12.9 51 51 51
-26.8 -25.0 12.9 51 51 51
-26.5 -25.0 12.9 49 49 49
-26.2 -24.9 12.9 49 49 49
-25.9 -25.0 12.9 47 47 47
-25.7 -25.0 13.0 47 47 47
-25.3 -25.0 13.0 47 47 47
-24.7 -25.0 12.9 46 46 46
-24.4 -25.0 13.0 46 46 46
-24.0 -24.8 12.9 46 46 46
-23.8 -25.0 13.0 43 43 43
-23.5 -25.0 13.0 44 44 44
-23.2 -24.9 12.9 43 42 41
-13.3 -25.0 12.9 30 29 29
-13.0 -25.0 13.0 30 31 30
-12.7 -25.0 12.9 29 29 29
-12.4 -25.0 13.0 30 31 30
-12.1 -24.9 12.9 29 31 29
-11.7 -24.8 12.9 29 31 29
-11.3 -24.5 12.7 29 30 28
-10.7 -24.0 12.4 32 31 30
-10.9 -25.0 13.0 36 38 37
-10.6 -25.0 12.9 43 43 43
-10.3 -25.0 13.0 172 172 172
-6.4 -25.0 13.0 223 225 225
-2.8 -25.0 13.0 207 210 209
-2.4 -25.0 12.9 208 211 210
-2.1 -25.0 12.9 207 207 207
-1.8 -25.0 13.0 207 207 207
-1.5 -25.0 13.0 205 205 205
-0.6 -25.0 13.0 203 203 203
-0.3 -25.0 13.0 203 203 203
-0.0 -25.0 13.0 203 203 203
0.3 -25.0 13.0 200 200 200
0.6 -25.0 13.0 200 200 200
0.9 -24.9 12.9 200 200 200
1.2 -25.0 13.0 197 197 197
1.5 -24.9 12.9 195 195 195
1.8 -25.0 13.0 195 195 195
2.1 -25.0 13.0 195 195 195
6.9 -25.0 12.9 207 207 207
7.5 -25.0 13.0 209 209 209
7.8 -25.0 12.9 209 209 209
8.1 -24.9 12.9 209 209 209
8.4 -25.0 13.0 209 209 209
8.7 -25.0 13.0 207 207 207
9.0 -25.0 13.0 207 207 207
9.3 -25.0 12.9 207 207 207
9.6 -25.0 13.0 207 207 207
9.9 -25.0 13.0 207 207 207
10.2 -25.0 13.0 207 207 207
10.5 -25.0 13.0 207 207 207
10.8 -25.0 12.9 207 207 207
11.1 -24.9 12.9 207 207 207
11.4 -24.9 12.9 207 207 207
11.7 -25.0 13.0 207 207 207
12.0 -25.0 13.0 207 207 207
12.3 -25.0 13.0 204 204 204
12.6 -25.0 12.9 204 204 204
12.8 -24.8 12.9 204 204 204
13.2 -25.0 13.0 204 204 204
13.5 -24.9 12.9 204 204 204
13.8 -25.0 12.9 204 204 204
14.1 -24.9 12.9 204 204 204
14.4 -24.9 12.9 207 207 207
14.7 -25.0 12.9 207 207 207
15.0 -25.0 12.9 207 207 207
15.4 -25.0 13.0 207 207 207
15.6 -25.0 13.0 207 207 207
15.9 -25.0 12.9 207 207 207
16.3 -25.0 13.0 207 207 207
16.5 -25.0 12.9 207 207 207
16.8 -25.0 13.0 207 207 207
40.6 -58.2 30.2 207 207 207
40.6 -57.3 29.7 207 207 207
48.5 -63.0 32.7 207 207 207
46.9 -60.0 31.1 205 205 205
45.1 -56.8 29.5 205 205 205
44.8 -55.6 28.8 205 205 205
47.6 -58.2 30.2 205 205 205
48.8 -58.8 30.5 205 205 205
49.5 -58.7 30.5 205 205 205
50.8 -59.5 30.9 205 205 205
50.2 -58.0 30.1 205 205 205
28.3 -27.4 14.2 205 205 205
-36.8 -24.9 13.1 60 62 60
-36.6 -24.9 13.1 60 62 60
-36.2 -24.9 13.1 60 62 60
-35.9 -24.9 13.1 58 59 59
-35.6 -24.9 13.1 60 62 60
-35.3 -24.9 13.1 58 59 59
-35.0 -24.9 13.1 61 63 61
-34.7 -24.9 13.1 64 64 64
-34.4 -24.9 13.1 59 59 59
-34.1 -24.9 13.1 59 59 59
-33.8 -24.9 13.1 61 63 61
-33.5 -25.0 13.1 59 59 59
-33.2 -24.9 13.1 59 59 59
-32.9 -24.9 13.1 59 59 59
-32.6 -24.9 13.1 59 59 59
-31.4 -24.9 13.1 53 52 51
-29.6 -24.9 13.1 54 53 52
-29.2 -24.9 13.1 56 56 56
-28.9 -24.9 13.1 54 53 52
-28.6 -24.9 13.1 54 53 52
-28.4 -25.0 13.1 52 52 52
-28.0 -24.9 13.1 52 52 52
-27.1 -25.0 13.1 52 52 52
-26.8 -24.9 13.1 52 52 52
-26.2 -24.9 13.1 50 50 50
-26.0 -25.0 13.1 47 48 47
-24.7 -24.9 13.1 44 44 44
-12.5 -24.9 13.1 27 27 27
-10.2 -21.4 11.3 33 32 30
-10.7 -23.7 12.4 34 34 34
-11.0 -24.9 13.1 36 38 37
-10.7 -24.9 13.1 47 46 45
-10.4 -25.0 13.1 181 181 181
-10.1 -25.0 13.1 184 187 186
-9.8 -25.1 13.2 184 187 186
1.2 -25.0 13.1 202 202 202
9.1 -25.0 13.1 209 209 209
9.4 -25.0 13.1 209 209 209
10.0 -25.0 13.1 207 207 207
10.9 -24.9 13.1 207 207 207
11.2 -24.8 13.0 207 207 207
11.5 -24.8 13.0 207 207 207
15.5 -25.0 13.1 207 207 207
15.8 -25.0 13.1 207 207 207
16.1 -24.9 13.1 207 207 207
40.6 -57.6 30.2 207 207 207
48.8 -62.6 32.8 206 206 206
46.9 -59.3 31.1 206 206 206
45.4 -56.5 29.6 206 206 206
45.0 -55.1 28.9 207 207 207
47.7 -57.6 30.3 207 207 207
48.8 -58.1 30.5 205 205 205
50.8 -59.6 31.3 205 205 205
51.3 -59.3 31.1 205 205 205
50.6 -57.7 30.3 207 207 207
28.2 -27.5 14.5 206 206 206
28.4 -27.4 14.4 204 204 204
28.3 -27.0 14.2 204 204 204
29.7 -27.7 14.5 204 204 204
-11.0 -24.6 13.1 36 37 36
-10.7 -24.7 13.1 51 52 50
-10.5 -24.8 13.2 185 185 185
-10.2 -24.8 13.2 183 186 185
-9.9 -24.9 13.2 182 185 184
-9.5 -24.7 13.2 186 186 186
43.4 -61.8 32.8 206 206 206
40.8 -57.0 30.3 206 206 206
49.4 -63.6 33.8 206 206 206
49.0 -62.1 33.0 206 206 206
47.2 -58.9 31.3 206 206 206
45.9 -56.4 30.0 206 206 206
47.7 -56.9 30.3 206 206 206
48.8 -57.3 30.5 206 206 206
52.9 -61.3 32.6 204 204 204
52.5 -60.0 31.9 207 207 207
51.0 -57.4 30.5 207 207 207
55.2 -61.4 32.6 207 207 207
28.4 -27.4 14.6 206 206 206
28.4 -26.8 14.2 206 206 206
29.8 -27.5 14.6 206 206 206
-11.4 -23.8 12.8 38 38 38
-10.9 -24.0 12.9 20 20 20
-10.7 -24.3 13.1 50 50 50
-10.4 -24.4 13.1 184 187 186
-10.1 -24.4 13.1 182 185 184
-9.8 -24.4 13.1 186 186 186
43.6 -61.3 33.0 206 206 206
41.6 -57.4 30.9 206 206 206
49.7 -63.2 34.0 206 206 206
49.9 -62.4 33.6 206 206 206
47.4 -58.4 31.4 206 206 206
45.9 -55.7 30.0 206 206 206
47.7 -56.2 30.3 206 206 206
48.6 -56.4 30.4 206 206 206
53.3 -61.0 32.8 206 206 206
53.6 -60.5 32.6 206 206 206
51.8 -57.6 31.0 206 206 206
55.6 -61.0 32.8 206 206 206
57.1 -61.8 33.2 207 207 207
28.5 -27.5 14.8 205 205 205
31.1 -28.6 15.4 203 203 203
30.2 -27.5 14.8 206 206 206
-11.4 -23.6 12.9 46 46 46
-11.2 -23.8 13.0 78 78 78
-10.9 -23.8 13.0 29 29 29
-10.6 -23.8 13.0 54 54 54
-10.4 -24.1 13.1 183 186 185
-10.1 -24.0 13.1 182 185 184
44.4 -61.7 33.6 205 205 205
40.4 -55.1 30.0 205 205 205
40.4 -54.2 29.5 205 205 205
49.5 -62.2 33.9 205 205 205
46.9 -57.1 31.1 208 208 208
44.6 -53.4 29.1 205 205 205
44.0 -51.9 28.3 205 205 205
47.5 -55.3 30.1 205 205 205
48.3 -55.4 30.2 208 208 208
53.2 -60.1 32.7 206 206 206
52.8 -58.8 32.1 206 206 206
51.7 -56.8 31.0 206 206 206
53.4 -57.9 31.5 206 206 206
54.9 -58.6 32.0 206 206 206
30.2 -27.2 14.8 202 202 202
-36.8 -24.1 13.3 67 67 67
-36.4 -24.0 13.3 67 67 67
-36.1 -24.0 13.3 67 67 67
-35.8 -24.0 13.3 67 67 67
-35.5 -24.0 13.3 67 67 67
-35.2 -24.0 13.3 67 67 67
-34.9 -24.0 13.3 67 67 67
-34.6 -24.1 13.3 67 67 67
-12.2 -18.3 10.1 25 28 25
-11.5 -23.6 13.0 87 87 87
-11.3 -23.7 13.1 64 65 63
-11.0 -23.7 13.1 49 49 49
-10.7 -23.8 13.2 58 58 58
-10.5 -24.0 13.2 184 187 186
-10.2 -23.9 13.2 181 184 183
-9.9 -24.1 13.3 181 184 183
46.9 -56.4 31.1 207 207 207
44.4 -52.5 29.0 207 207 207
43.5 -50.7 28.0 207 207 207
48.4 -54.7 30.2 208 208 208
52.7 -58.8 32.4 208 208 208
52.9 -58.2 32.1 208 208 208
51.9 -56.3 31.1 208 208 208
52.9 -56.6 31.2 205 205 205
54.6 -57.6 31.8 206 206 206
55.2 -57.5 31.7 206 206 206
30.3 -27.2 15.0 202 202 202
30.3 -26.9 14.8 204 204 204
-12.1 -17.9 10.0 33 33 33
-11.4 -23.5 13.2 39 41 41
-10.8 -23.7 13.3 57 58 56
-10.5 -23.7 13.3 182 185 184
-10.2 -23.7 13.3 180 183 182
-10.0 -23.9 13.3 180 183 182
44.2 -51.7 28.9 207 207 207
42.9 -49.3 27.6 207 207 207
43.5 -49.3 27.6 207 207 207
44.9 -50.1 28.0 207 207 207
49.1 -51.9 29.0 205 205 205
50.1 -50.8 28.4 205 205 205
49.5 -49.5 27.7 205 205 205
30.2 -26.8 15.0 204 204 204
30.4 -26.6 14.9 207 207 207
30.5 -26.4 14.8 165 165 165
30.9 -26.5 14.8 180 180 180
-10.9 -23.6 13.4 50 50 50
-10.6 -23.6 13.4 181 184 183
-10.3 -23.5 13.3 179 182 181
-10.1 -24.0 13.6 178 181 180
-9.5 -24.0 13.6 223 225 225
-9.2 -24.0 13.6 223 225 225
44.6 -52.2 29.6 207 207 207
44.3 -51.1 28.9 207 207 207
42.7 -48.5 27.5 207 207 207
43.4 -48.6 27.5 207 207 207
45.0 -49.6 28.1 207 207 207
49.6 -51.7 29.3 207 207 207
49.7 -51.1 29.0 205 205 205
50.5 -50.5 28.6 207 207 207
49.7 -49.1 27.8 208 208 208
47.5 -46.3 26.2 209 212 211
30.6 -26.1 14.8 169 171 170
-10.3 -23.4 13.4 179 182 181
-10.3 -24.0 13.8 182 182 182
-10.0 -24.1 13.9 177 180 179
45.5 -52.6 30.2 206 206 206
42.7 -47.9 27.5 206 206 206
43.4 -47.9 27.5 206 206 206
51.5 -53.7 30.8 207 207 207
50.5 -51.9 29.8 207 207 207
50.8 -51.6 29.6 207 207 207
52.3 -52.3 30.0 207 207 207
52.6 -52.0 29.8 207 207 207
49.5 -48.2 27.7 207 207 207
47.9 -46.1 26.5 207 207 207
-10.4 -23.9 13.9 177 180 179
-10.1 -23.9 13.9 177 180 179
46.0 -52.4 30.5 203 203 203
44.3 -49.7 28.9 203 203 203
42.7 -47.2 27.5 206 206 206
43.4 -47.3 27.5 207 210 209
51.9 -53.4 31.1 208 211 210
51.8 -52.5 30.6 208 211 210
52.3 -52.4 30.5 212 214 214
53.8 -53.1 30.9 208 211 210
49.8 -47.9 27.9 207 207 207
48.5 -46.1 26.8 204 204 204
48.3 -45.3 26.3 204 204 204
126.8 -77.6 45.1 189 189 189
45.2 -21.3 12.4 159 162 161
-10.2 -19.0 11.2 49 49 49
-11.1 -24.4 14.4 180 183 182
-10.5 -23.8 14.0 178 181 180
-10.1 -23.7 14.0 177 180 179
-10.2 -24.7 14.6 191 191 191
-9.8 -24.6 14.5 195 195 195
10.4 -17.0 10.0 206 206 206
11.4 -17.0 10.0 206 206 206
45.9 -51.6 30.5 206 209 208
44.1 -48.8 28.8 205 205 205
43.2 -47.1 27.8 207 210 209
45.5 -48.9 28.8 207 210 209
47.6 -50.4 29.7 207 210 209
51.9 -52.7 31.1 207 210 209
51.6 -51.6 30.5 207 210 209
52.0 -51.3 30.3 207 210 209
53.9 -52.5 31.0 207 210 209
53.3 -51.2 30.2 208 211 210
50.5 -47.9 28.3 208 211 210
49.8 -46.7 27.5 207 207 207
51.1 -47.2 27.9 207 207 207
51.6 -47.1 27.8 207 207 207
30.6 -23.8 14.0 185 185 185
30.7 -23.6 13.9 183 183 183
30.3 -23.0 13.6 180 180 180
126.5 -76.4 45.0 189 189 189
45.4 -21.1 12.4 162 165 164
46.0 -21.3 12.5 156 156 156
46.3 -21.3 12.5 147 149 149
-10.2 -18.7 11.2 39 39 39
-10.7 -24.8 14.8 178 181 180
-10.3 -24.7 14.7 177 177 177
-10.0 -24.8 14.8 175 177 177
46.5 -51.6 30.9 206 209 208
43.8 -47.9 28.6 206 209 208
43.1 -46.4 27.7 206 209 208
44.3 -46.9 28.1 206 209 208
45.1 -47.1 28.2 206 209 208
52.5 -53.3 31.8 207 210 209
52.0 -52.0 31.1 206 206 206
51.8 -51.2 30.6 207 210 209
51.1 -49.7 29.7 207 210 209
53.8 -51.7 30.9 207 210 209
54.3 -51.5 30.8 207 210 209
50.4 -47.1 28.2 207 210 209
50.1 -46.2 27.7 208 211 210
50.6 -46.1 27.6 208 211 210
51.4 -46.3 27.7 208 211 210
51.2 -45.5 27.2 207 207 207
30.6 -23.5 14.0 186 186 186
30.7 -23.3 13.9 186 186 186
30.4 -22.8 13.6 185 185 185
126.5 -75.3 45.0 192 192 192
79.2 -39.6 23.7 177 180 179
79.6 -39.5 23.6 178 181 180
78.9 -38.9 23.3 177 177 177
79.3 -38.9 23.2 177 177 177
80.6 -39.2 23.4 177 177 177
47.0 -21.3 12.7 148 150 150
-11.0 -25.0 15.2 176 176 176
-11.1 -26.1 15.8 160 160 160
-10.5 -25.7 15.6 162 162 162
46.7 -51.1 31.0 206 209 208
44.0 -47.4 28.7 206 209 208
43.0 -45.7 27.7 206 209 208
44.0 -46.0 27.9 206 209 208
45.1 -46.4 28.1 206 209 208
52.8 -52.1 31.6 206 209 208
50.8 -48.7 29.6 207 210 209
54.3 -51.5 31.2 207 210 209
52.6 -49.2 29.8 207 210 209
50.8 -46.8 28.4 207 210 209
50.1 -45.6 27.7 207 210 209
51.2 -46.1 27.9 207 210 209
51.1 -45.4 27.5 208 211 210
50.3 -44.1 26.8 208 211 210
30.8 -23.5 14.3 186 186 186
30.7 -23.2 14.1 186 186 186
30.7 -23.0 13.9 186 186 186
30.3 -22.4 13.6 186 186 186
126.8 -74.4 45.1 193 193 193
79.9 -39.4 23.9 178 181 180
80.0 -39.2 23.8 179 182 181
79.6 -38.5 23.3 178 178 178
80.8 -38.7 23.5 178 178 178
47.3 -21.1 12.8 149 151 151
47.4 -21.0 12.8 144 144 144
-11.3 -26.2 16.1 158 161 160
-10.8 -25.9 15.9 154 156 156
46.1 -49.7 30.6 205 208 207
45.3 -48.1 29.6 205 208 207
43.3 -45.3 27.9 205 208 207
51.5 -48.7 30.0 206 209 208
54.4 -50.8 31.3 205 205 205
53.5 -49.3 30.3 206 206 206
52.6 -47.8 29.4 207 210 209
55.9 -50.2 30.9 207 210 209
51.0 -44.7 27.5 207 210 209
49.6 -42.9 26.4 207 210 209
30.4 -23.2 14.2 190 190 190
30.8 -23.2 14.3 190 190 190
30.7 -22.9 14.1 192 192 192
30.8 -22.7 14.0 190 190 190
30.5 -22.3 13.7 184 184 184
139.1 -81.1 49.9 193 193 193
81.1 -39.4 24.3 179 182 181
81.5 -39.3 24.2 180 183 182
81.7 -39.2 24.1 179 179 179
80.7 -38.4 23.6 179 179 179
47.5 -20.9 12.9 150 150 150
47.6 -20.8 12.8 146 146 146
-11.9 -26.5 16.5 176 176 176
-11.6 -26.5 16.5 159 162 161
48.8 -52.7 32.9 205 208 207
46.9 -49.9 31.1 205 208 207
45.8 -47.9 29.9 205 208 207
147.0 -143.0 89.2 208 211 210
55.6 -52.6 32.8 209 212 211
56.0 -52.3 32.6 209 212 211
55.6 -51.2 32.0 206 209 208
54.6 -49.6 31.0 206 209 208
54.6 -49.0 30.6 206 209 208
58.6 -51.9 32.4 207 210 209
55.5 -48.5 30.3 207 210 209
49.7 -42.4 26.5 207 210 209
31.3 -23.2 14.5 190 190 190
30.8 -22.6 14.1 190 190 190
34.6 -25.2 15.7 190 190 190
34.6 -24.9 15.5 190 190 190
140.5 -80.8 50.4 193 193 193
81.2 -39.5 24.6 179 182 181
82.4 -39.8 24.8 179 182 181
81.6 -39.1 24.4 180 183 182
82.1 -39.1 24.4 181 184 183
82.1 -38.8 24.2 180 180 180
81.7 -38.4 23.9 180 180 180
83.2 -38.8 24.2 180 180 180
47.7 -20.7 12.9 152 152 152
47.7 -20.6 12.8 147 147 147
47.8 -20.5 12.8 136 138 137
-12.0 -26.2 16.6 180 180 180
-11.7 -26.4 16.7 166 166 166
-11.4 -26.6 16.9 163 163 163
49.5 -52.7 33.4 204 204 204
146.3 -140.3 88.8 208 211 210
55.7 -52.0 32.9 208 211 210
56.4 -51.9 32.8 209 212 211
56.6 -51.3 32.5 209 212 211
60.0 -53.1 33.6 206 209 208
59.3 -51.8 32.8 205 205 205
50.3 -42.3 26.8 207 210 209
31.5 -23.0 14.6 190 190 190
34.4 -24.6 15.6 190 190 190
34.6 -24.5 15.5 190 190 190
125.6 -70.6 44.7 195 195 195
83.9 -39.9 25.3 180 183 182
80.7 -38.1 24.1 181 184 183
81.0 -38.0 24.1 182 185 184
80.3 -37.2 23.5 179 179 179
82.4 -37.9 24.0 181 181 181
60.0 -26.3 16.7 179 179 179
60.5 -26.2 16.6 166 169 168
47.6 -20.2 12.8 149 149 149
-12.7 -26.5 17.0 187 189 189
-12.1 -26.0 16.7 179 179 179
-11.8 -26.3 16.9 169 169 169
-11.6 -26.6 17.1 166 166 166
-11.2 -26.7 17.1 163 163 163
144.2 -138.2 88.8 207 210 209
146.3 -138.2 88.8 208 211 210
57.2 -52.6 33.8 208 211 210
58.2 -52.8 33.9 208 211 210
60.2 -53.8 34.6 208 211 210
61.3 -54.1 34.8 209 212 211
62.6 -54.5 35.0 209 212 211
62.8 -54.0 34.7 209 212 211
64.5 -54.7 35.2 206 209 208
31.1 -22.2 14.2 191 191 191
80.4 -37.4 24.0 182 185 184
80.5 -36.7 23.6 182 182 182
81.9 -37.1 23.8 182 182 182
81.6 -36.7 23.6 182 182 182
61.0 -26.4 16.9 178 178 178
60.7 -25.9 16.7 168 170 169
62.0 -26.3 16.9 162 162 162
63.2 -26.6 17.1 155 155 155
-13.0 -26.6 17.4 188 190 190
-12.2 -26.6 17.4 174 176 176
-11.9 -26.9 17.6 169 169 169
-11.7 -27.4 17.9 164 164 164
148.4 -138.1 90.1 207 210 209
60.6 -53.4 34.8 208 211 210
64.8 -56.3 36.7 208 211 210
64.3 -55.1 36.0 208 211 210
64.8 -54.9 35.8 209 212 211
82.4 -37.8 24.6 183 186 185
83.4 -37.2 24.3 183 183 183
69.8 -30.3 19.8 183 183 183
61.7 -26.3 17.1 181 181 181
61.2 -25.9 16.9 176 176 176
62.6 -26.2 17.1 161 161 161
63.3 -26.3 17.1 154 154 154
63.7 -26.3 17.1 148 148 148
-12.2 -27.2 18.0 170 171 170
-11.9 -27.6 18.3 167 167 167
149.8 -137.3 90.9 207 210 209
70.4 -30.1 19.9 184 184 184
69.2 -29.4 19.5 184 184 184
62.6 -26.2 17.4 180 180 180
62.1 -25.9 17.1 172 174 174
63.1 -26.0 17.2 158 161 160
64.1 -26.2 17.4 153 153 153
-53.5 -28.2 19.0 59 59 59
-53.6 -28.5 19.2 69 71 69
-53.1 -28.5 19.2 69 71 69
-53.1 -28.7 19.3 67 67 67
-52.3 -28.6 19.2 49 49 49
-51.7 -28.5 19.1 41 41 41
-51.3 -28.5 19.2 38 38 38
-51.3 -28.7 19.3 143 143 142
-50.9 -28.8 19.4 83 84 82
-49.3 -28.6 19.2 29 31 29
-48.7 -28.5 19.2 27 27 27
-48.1 -28.5 19.1 26 26 26
-47.7 -28.5 19.2 24 24 24
-47.5 -28.6 19.2 24 24 24
-46.9 -28.5 19.2 26 26 26
-46.5 -28.5 19.2 35 35 35
-45.9 -28.5 19.2 54 54 54
-12.7 -27.9 18.8 174 174 174
-12.4 -28.3 19.0 167 167 167
-12.2 -28.7 19.3 160 163 162
151.3 -136.5 91.8 207 210 209
150.5 -133.9 90.1 207 210 209
242.7 -213.0 143.3 207 210 209
251.8 -217.9 146.6 207 210 209
265.5 -226.7 152.6 207 210 209
271.2 -228.6 153.8 208 211 210
73.1 -31.0 20.8 185 185 185
71.0 -29.9 20.1 185 185 185
69.5 -29.1 19.6 185 185 185
63.0 -26.0 17.5 178 178 178
62.4 -25.6 17.2 173 175 175
63.2 -25.8 17.3 169 169 169
63.4 -25.7 17.3 163 163 163
64.4 -25.9 17.4 155 155 155
65.3 -26.1 17.6 150 150 150
65.7 -26.1 17.6 145 145 144
-48.3 -28.6 19.6 16 16 16
-13.8 -28.9 19.7 177 177 177
-13.1 -28.4 19.4 176 176 176
-12.8 -28.7 19.6 173 173 173
-12.4 -28.8 19.7 163 166 165
169.9 -148.8 101.7 206 209 208
239.1 -206.5 141.2 207 210 209
244.2 -208.1 142.2 207 210 209
257.2 -216.2 147.8 207 210 209
262.7 -217.9 148.9 207 210 209
74.0 -30.9 21.1 188 188 188
72.4 -30.0 20.5 188 188 188
71.3 -29.3 20.1 188 188 188
62.9 -25.4 17.4 173 175 175
62.6 -25.1 17.2 168 168 168
63.0 -25.1 17.2 160 160 160
64.2 -25.4 17.4 155 155 155
65.3 -25.7 17.6 152 152 152
65.7 -25.7 17.6 144 144 144
66.3 -25.8 17.6 137 139 138
-57.2 -29.3 20.3 35 35 35
-56.9 -29.3 20.4 58 58 58
-56.4 -29.3 20.4 77 77 77
-56.0 -29.3 20.4 81 83 80
-55.5 -29.3 20.4 151 151 151
-55.0 -29.3 20.4 41 41 41
-54.5 -29.3 20.4 26 26 26
-54.1 -29.3 20.4 18 22 19
-53.6 -29.3 20.4 24 24 24
-53.1 -29.3 20.4 29 31 29
-52.8 -29.4 20.4 36 36 36
-52.2 -29.3 20.4 63 63 63
-51.7 -29.3 20.4 152 152 152
-51.2 -29.3 20.4 129 132 131
-50.8 -29.3 20.4 52 52 52
-50.3 -29.3 20.4 154 154 154
-49.8 -29.3 20.4 181 181 181
-49.3 -29.3 20.4 175 174 172
-48.9 -29.3 20.4 108 110 110
-48.4 -29.3 20.4 73 73 73
-47.9 -29.3 20.4 80 82 79
-47.4 -29.3 20.4 80 82 79
-47.0 -29.3 20.4 135 135 135
-46.5 -29.3 20.4 168 168 168
-46.0 -29.3 20.4 177 177 177
-45.5 -29.3 20.4 172 172 172
-45.1 -29.3 20.4 188 190 190
-44.6 -29.3 20.4 201 203 203
-44.1 -29.3 20.4 213 215 215
-43.6 -29.3 20.4 188 190 190
-43.2 -29.3 20.4 201 203 203
-42.7 -29.3 20.4 210 210 210
-42.2 -29.3 20.4 209 209 209
-41.8 -29.3 20.4 178 178 178
-41.3 -29.3 20.4 178 177 175
-40.8 -29.3 20.4 158 158 158
-40.3 -29.3 20.4 136 138 137
-39.9 -29.3 20.4 179 182 181
-39.4 -29.3 20.4 217 217 217
-38.9 -29.3 20.4 209 209 209
-38.4 -29.3 20.4 186 186 186
-38.0 -29.3 20.4 180 180 180
-37.5 -29.3 20.4 208 208 208
-37.0 -29.3 20.4 221 221 221
-36.5 -29.3 20.4 176 179 178
-36.1 -29.3 20.4 108 108 108
-35.7 -29.4 20.4 153 153 153
-35.2 -29.4 20.4 176 179 178
-34.7 -29.4 20.4 197 197 197
-34.2 -29.3 20.4 181 181 181
-33.7 -29.3 20.4 213 215 215
-33.2 -29.3 20.4 212 214 214
-32.8 -29.3 20.4 212 214 214
-32.3 -29.3 20.4 140 140 140
-31.8 -29.3 20.4 42 43 42
-31.3 -29.3 20.4 42 43 42
-30.9 -29.3 20.4 71 71 71
-30.4 -29.3 20.4 83 84 82
-29.9 -29.3 20.4 90 92 91
-28.6 -29.5 20.5 20 23 21
-28.1 -29.4 20.5 35 34 33
-27.6 -29.4 20.5 89 90 88
-27.1 -29.4 20.4 17 17 17
-26.6 -29.3 20.4 29 29 29
-26.1 -29.3 20.4 56 56 56
-25.6 -29.3 20.4 105 105 105
-25.2 -29.3 20.4 45 47 46
-24.7 -29.3 20.4 78 80 78
-24.2 -29.3 20.4 25 25 25
-23.8 -29.4 20.4 110 110 110
-14.7 -29.3 20.4 165 165 165
-14.2 -29.3 20.3 173 173 173
-13.7 -29.2 20.3 168 170 169
-13.3 -29.3 20.3 135 135 135
-12.8 -29.2 20.3 33 35 34
230.4 -193.2 134.2 206 209 208
228.6 -189.1 131.4 207 210 209
75.3 -30.9 21.5 189 189 189
73.6 -30.0 20.9 189 189 189
74.2 -30.1 20.9 185 185 185
62.3 -24.6 17.1 166 166 166
62.6 -24.6 17.1 160 160 160
63.9 -24.9 17.3 157 157 157
64.6 -25.0 17.4 149 151 151
64.9 -25.0 17.4 146 146 146
-57.8 -29.1 20.5 27 27 27
-50.9 -29.2 20.6 151 151 151
-50.4 -29.2 20.6 183 183 183
-49.9 -29.2 20.6 177 177 177
-49.4 -29.2 20.6 157 160 159
-49.0 -29.2 20.6 145 145 144
-48.5 -29.2 20.6 149 149 149
-48.0 -29.2 20.6 77 77 77
-47.5 -29.2 20.6 73 73 73
-47.0 -29.2 20.6 195 198 197
-46.6 -29.2 20.6 189 191 191
-46.1 -29.2 20.6 178 178 178
-31.2 -29.2 20.6 38 38 38
-30.1 -29.0 20.5 25 25 25
-26.4 -29.2 20.6 148 150 150
-26.0 -29.2 20.6 59 59 59
-25.5 -29.2 20.6 43 43 43
-25.0 -29.2 20.6 70 72 69
-15.0 -29.3 20.7 169 169 169
-14.4 -29.0 20.5 169 171 170
-13.8 -28.9 20.4 164 164 164
-13.4 -29.0 20.5 134 133 132
-12.9 -29.0 20.5 39 39 39
228.7 -188.7 133.2 206 209 208
227.0 -184.8 130.5 206 209 208
230.1 -184.8 130.5 207 210 209
236.4 -187.4 132.3 207 210 209
245.6 -187.4 132.3 208 211 210
76.3 -31.0 21.9 190 190 190
75.1 -30.3 21.4 190 190 190
73.4 -29.4 20.8 190 190 190
73.7 -29.4 20.7 186 186 186
62.1 -24.0 16.9 160 160 160
63.6 -24.4 17.2 151 153 153
64.2 -24.5 17.3 150 150 150
63.8 -24.2 17.1 141 143 142
-14.8 -29.4 21.1 184 187 186
-14.0 -28.9 20.7 181 184 183
-13.6 -29.0 20.8 164 164 164
-13.3 -29.3 21.0 117 119 118
-12.9 -29.5 21.2 25 26 24
233.7 -189.6 136.1 210 210 210
253.2 -202.7 145.5 210 210 210
230.1 -181.8 130.5 206 209 208
249.1 -186.9 134.2 207 210 209
76.7 -30.7 22.0 191 191 191
75.3 -29.9 21.5 188 188 188
72.6 -28.6 20.6 192 195 194
72.3 -28.3 20.3 188 188 188
73.3 -28.6 20.5 185 185 185
62.6 -23.8 17.1 157 157 157
63.8 -24.1 17.3 153 155 155
64.1 -24.0 17.3 144 146 146
63.8 -23.8 17.1 141 143 142
64.4 -23.8 17.1 134 134 134
-15.6 -30.5 22.3 182 182 182
-15.0 -30.4 22.2 180 180 180
-14.1 -29.5 21.5 181 184 183
-13.6 -29.7 21.6 159 162 161
-13.2 -29.8 21.7 30 30 30
259.8 -207.3 151.3 210 210 210
302.0 -237.8 173.5 210 210 210
287.6 -223.4 163.1 210 210 210
291.4 -223.4 163.1 211 211 211
343.4 -256.6 187.3 211 211 211
302.7 -223.4 163.1 207 210 209
301.3 -219.6 160.3 207 210 209
274.8 -197.8 144.4 208 211 210
78.4 -31.0 22.7 193 196 195
78.0 -30.7 22.4 193 196 195
75.7 -29.6 21.6 192 192 192
73.4 -28.5 20.8 192 192 192
73.9 -28.5 20.8 189 189 189
80.6 -30.7 22.4 177 180 179
64.2 -23.8 17.4 151 151 151
64.5 -23.8 17.4 140 139 138
64.3 -23.6 17.2 131 134 133
64.7 -23.6 17.2 131 134 133
-15.4 -30.7 22.8 179 179 179
11.8 -14.3 10.6 210 210 210
12.8 -14.3 10.6 209 209 209
14.3 -14.3 10.6 208 208 208
14.6 -14.3 10.6 208 208 208
14.8 -14.3 10.6 208 208 208
197.5 -159.2 118.2 209 209 209
219.5 -174.5 129.6 209 209 209
232.0 -182.0 135.1 209 209 209
288.8 -223.5 165.9 210 210 210
256.6 -196.0 145.5 210 210 210
254.1 -191.6 142.2 210 210 210
248.1 -184.6 137.1 211 211 211
264.7 -194.5 144.4 211 211 211
254.5 -184.6 137.1 211 211 211
254.0 -182.0 135.1 211 211 211
250.0 -176.9 131.4 212 213 212
246.2 -172.1 127.8 212 213 212
257.9 -178.2 132.3 212 213 212
78.2 -30.2 22.4 193 193 193
76.2 -29.3 21.7 194 197 196
75.4 -28.8 21.4 190 190 190
80.8 -30.4 22.6 180 183 182
81.5 -30.5 22.6 175 175 175
64.7 -23.4 17.4 134 137 136
65.0 -23.4 17.4 134 137 136
65.6 -23.5 17.4 131 134 133
66.2 -23.5 17.5 131 134 133
-26.0 -14.4 10.8 108 110 110
-25.7 -14.4 10.8 45 45 45
-25.5 -14.4 10.8 49 49 49
-25.2 -14.4 10.8 29 31 29
-25.0 -14.4 10.8 20 23 21
-24.7 -14.4 10.8 6 11 7
-24.5 -14.4 10.8 123 125 124
-24.2 -14.4 10.8 144 146 146
-22.2 -14.3 10.8 33 32 30
-16.4 -14.4 10.8 26 26 26
-16.2 -14.4 10.8 41 41 41
-15.9 -14.4 10.8 6 7 7
-15.2 -14.4 10.8 121 121 121
-14.9 -14.4 10.8 36 37 36
-12.4 -14.4 10.9 77 77 77
-12.1 -14.4 10.9 47 48 47
-15.9 -33.4 25.2 160 160 160
-15.2 -33.1 25.0 26 25 24
14.8 -14.1 10.6 208 208 208
197.5 -156.5 118.2 215 215 215
212.2 -165.8 125.3 215 215 215
224.0 -172.7 130.5 212 213 212
223.9 -170.3 128.7 209 209 209
238.3 -178.8 135.1 210 210 210
244.9 -181.4 137.1 210 210 210
237.8 -173.9 131.4 210 210 210
244.2 -176.3 133.2 211 211 211
245.6 -175.1 132.3 211 211 211
243.5 -171.5 129.6 211 211 211
243.2 -169.2 127.8 212 213 212
236.6 -162.6 122.8 212 213 212
250.9 -170.3 128.7 212 213 212
236.2 -158.5 119.7 212 213 212
283.9 -188.3 142.2 214 214 214
270.9 -177.6 134.2 214 214 214
78.2 -29.7 22.4 185 185 185
75.8 -28.6 21.6 189 189 189
75.6 -28.4 21.4 181 184 183
76.9 -28.6 21.6 179 182 181
81.2 -30.1 22.7 179 182 181
82.2 -30.2 22.8 170 172 172
81.2 -29.7 22.4 165 165 165
65.8 -23.4 17.7 134 137 136
65.8 -23.3 17.6 134 134 134
66.6 -23.4 17.7 134 134 134
66.9 -23.4 17.7 134 134 134
67.5 -23.5 17.7 134 134 134
-25.7 -14.1 10.8 47 47 47
-25.5 -14.1 10.8 29 31 29
-25.2 -14.1 10.8 20 23 21
-25.0 -14.1 10.8 20 23 21
-24.7 -14.1 10.8 20 23 21
-24.5 -14.1 10.8 23 23 23
-24.2 -14.1 10.8 25 25 25
-22.2 -14.1 10.8 19 23 20
-12.1 -14.1 10.9 117 119 118
-16.7 -33.2 25.5 88 88 88
-16.2 -33.5 25.7 86 86 86
-15.6 -33.3 25.6 55 55 55
197.5 -153.7 118.2 211 211 211
218.0 -167.3 128.7 211 211 211
225.6 -170.8 131.4 211 211 211
225.5 -168.5 129.6 209 209 209
246.3 -177.0 136.1 210 210 210
251.3 -178.2 137.1 210 210 210
250.8 -175.7 135.1 211 211 211
245.2 -169.6 130.5 211 211 211
244.9 -167.3 128.7 211 211 211
236.6 -159.7 122.8 212 213 212
252.6 -168.5 129.6 212 213 212
237.7 -156.7 120.5 212 213 212
292.7 -190.7 146.6 214 214 214
282.9 -182.2 140.1 214 214 214
232.7 -148.2 114.0 209 212 211
171.3 -76.2 58.6 190 192 192
74.9 -27.8 21.4 180 183 182
74.0 -27.3 21.0 175 175 175
82.9 -30.1 23.2 157 157 157
84.7 -30.6 23.5 149 149 149
86.6 -31.1 23.9 137 139 138
68.9 -24.0 18.4 133 133 133
69.5 -24.0 18.5 135 135 135
69.5 -23.9 18.4 133 133 133
-16.8 -32.9 25.8 89 89 89
-16.5 -33.4 26.2 89 89 89
-15.7 -33.0 25.8 52 53 51
-15.0 -32.8 25.7 114 116 115
272.2 -187.3 146.6 211 211 211
248.7 -168.9 132.3 211 211 211
250.0 -167.8 131.4 211 211 211
236.6 -156.9 122.8 211 211 211
257.9 -168.9 132.3 212 213 212
555.2 -355.3 278.2 212 213 212
315.7 -199.7 156.3 214 214 214
231.4 -144.7 113.3 208 211 210
87.4 -31.0 24.3 131 133 132
89.1 -31.4 24.6 131 133 132
90.0 -31.5 24.7 131 133 132
71.1 -24.1 18.9 129 129 129
-16.7 -33.2 26.5 89 91 90
-15.6 -32.2 25.7 74 76 75
-14.9 -32.0 25.5 113 112 111
328.2 -221.7 176.8 214 214 214
250.0 -164.7 131.4 214 214 214
241.3 -157.1 125.3 215 215 215
490.3 -308.0 245.7 216 216 216
344.1 -213.7 170.4 216 216 216
88.8 -30.9 24.7 112 112 112
89.9 -31.1 24.8 119 119 119
91.6 -31.5 25.1 119 119 119
92.3 -31.5 25.2 121 121 121
-16.9 -33.1 26.9 92 92 92
-15.7 -31.9 25.9 80 83 82
-15.1 -31.7 25.8 77 77 77
423.1 -280.5 227.9 214 214 214
629.3 -388.0 315.3 216 216 216
91.1 -31.0 25.2 112 112 112
93.3 -31.5 25.6 112 112 112
93.9 -31.5 25.6 113 114 113
-18.8 -34.7 28.7 94 94 94
-17.4 -33.2 27.5 92 92 92
686.5 -415.3 343.9 216 216 216
45.0 -23.2 19.2 202 202 202
73.3 -25.1 20.8 104 104 104
73.7 -25.0 20.7 60 60 60
-19.6 -35.6 30.0 98 98 98
-18.2 -34.3 28.9 92 92 92
46.2 -23.6 19.9 205 205 205
73.2 -24.6 20.7 109 111 111
73.4 -24.5 20.7 57 57 57
48.8 -16.0 13.5 104 104 104
48.9 -15.9 13.4 105 105 105
49.3 -15.9 13.4 105 105 105
-27.4 -13.7 11.8 50 50 50
-27.2 -13.7 11.8 34 34 34
-26.9 -13.7 11.8 13 13 13
-26.6 -13.7 11.8 97 97 97
-26.3 -13.7 11.8 147 147 147
-26.1 -13.7 11.8 169 171 170
-25.9 -13.7 11.8 137 139 138
-25.6 -13.7 11.8 175 175 175
-22.9 -39.3 33.8 127 127 127
47.9 -24.2 20.9 204 204 204
45.8 -22.9 19.7 205 205 205
44.8 -22.2 19.1 205 205 205
74.5 -24.7 21.3 68 67 66
73.4 -24.1 20.8 110 112 111
49.1 -15.6 13.5 99 101 101
49.5 -15.7 13.5 95 95 95
-27.4 -13.4 11.8 144 144 144
-27.1 -13.4 11.8 147 149 149
-26.8 -13.4 11.8 136 138 137
-26.3 -13.4 11.8 170 171 170
-26.0 -13.4 11.8 157 157 157
-25.8 -13.4 11.8 182 182 182
-25.5 -13.4 11.8 181 181 181
-25.1 -13.3 11.7 180 180 180
-23.5 -39.6 34.8 123 125 124
-21.8 -39.3 34.5 95 95 95
-21.0 -39.4 34.6 82 82 82
-20.4 -39.8 35.0 115 114 114
-19.6 -39.7 34.9 119 119 119
45.6 -22.3 19.6 204 204 204
44.5 -21.6 19.0 205 205 205
75.0 -24.3 21.4 69 69 69
73.1 -23.5 20.7 111 113 112
72.3 -23.1 20.3 35 35 35
49.8 -15.4 13.6 79 81 80
-24.9 -41.0 36.8 120 122 121
-23.0 -40.7 36.5 95 98 97
-22.1 -40.6 36.4 108 108 108
-21.5 -41.0 36.8 28 28 28
45.9 -22.0 19.8 204 204 204
44.4 -21.1 18.9 206 206 206
72.7 -22.8 20.5 35 35 35
50.5 -15.3 13.8 77 79 78
51.8 -15.6 14.0 71 71 71
-8.4 -12.2 11.2 197 197 197
-25.8 -43.1 39.5 96 99 98
-24.7 -42.7 39.2 100 100 100
-23.4 -42.1 38.6 109 109 109
-23.6 -44.0 40.3 23 24 23
-22.8 -44.4 40.7 22 22 22
-21.3 -43.3 39.7 98 100 100
43.5 -20.3 18.6 206 206 206
73.7 -22.6 20.7 35 35 35
-26.2 -12.1 11.4 136 138 137
-25.9 -12.1 11.4 143 143 142
-25.7 -12.1 11.4 7 13 9
-25.3 -12.1 11.3 29 31 29
-25.1 -12.1 11.3 26 26 26
-24.9 -12.1 11.4 18 22 19
-8.4 -12.0 11.2 204 204 204
-26.5 -43.4 40.6 96 99 98
-25.5 -43.2 40.4 101 101 101
-24.4 -43.0 40.2 109 109 109
-25.3 -46.3 43.4 30 29 29
-21.9 -43.4 40.7 53 52 52
-8.4 -11.7 11.2 200 200 200
-25.1 -43.1 41.3 114 116 115
-25.5 -45.6 43.7 14 14 14
-24.5 -45.6 43.7 18 18 18
-8.4 -11.5 11.2 195 195 195
-28.7 -48.3 47.3 111 111 111
-26.0 -45.5 44.5 27 27 27
-25.0 -45.5 44.5 25 25 23
28.4 -17.6 17.2 218 221 220
-12.0 -13.6 13.6 35 35 35
-8.4 -11.2 11.2 204 207 206
-31.0 -51.0 51.1 112 112 112
-27.1 -46.3 46.4 46 47 45
-26.9 -47.8 47.9 23 24 23
-27.6 -51.2 51.3 153 153 153
28.5 -17.3 17.3 218 221 220
-12.0 -13.2 13.6 36 39 38
-8.4 -10.9 11.2 202 202 202
-40.2 -72.9 74.8 160 163 162
28.6 -16.9 17.4 218 221 220
-12.0 -12.9 13.6 36 39 38
-8.4 -10.7 11.2 196 196 196
-40.8 -72.3 76.0 167 167 167
-38.5 -71.2 74.8 182 182 182
28.7 -16.6 17.4 218 221 220
-12.0 -12.6 13.6 36 39 38
-8.4 -10.4 11.2 193 193 193
-43.0 -68.3 73.6 32 34 33
-42.3 -70.0 75.4 23 24 23
-40.7 -70.3 75.7 159 162 161
-39.9 -72.0 77.5 181 181 181
-36.3 -68.6 73.9 181 181 181
27.5 -15.3 16.4 217 217 217
-12.0 -12.3 13.6 36 39 38
-8.4 -10.1 11.2 192 192 192
-47.2 -73.2 80.8 30 30 30
-44.2 -71.3 78.8 18 18 18
-42.2 -71.1 78.5 166 166 166
28.4 -15.8 17.5 218 221 220
28.3 -15.6 17.2 218 221 220
27.9 -15.1 16.7 218 221 220
27.9 -14.9 16.4 220 223 222
28.1 -14.8 16.4 218 221 220
745.6 -323.1 356.9 180 180 180
-12.5 -12.2 13.8 36 37 36
-12.0 -12.0 13.6 36 39 38
-58.5 -88.3 100.1 29 29 29
-48.7 -76.5 86.8 31 33 33
28.4 -15.4 17.5 220 223 222
28.5 -15.2 17.3 220 223 222
27.9 -14.8 16.7 220 223 222
28.2 -14.7 16.6 220 223 222
581.1 -245.4 278.2 180 180 180
384.2 -160.4 181.9 174 174 174
-12.0 -11.6 13.5 37 40 39
28.6 -14.9 17.4 220 223 222
28.2 -14.5 16.9 220 223 222
26.8 -13.4 15.6 222 224 224
272.9 -109.8 127.8 195 195 195
-98.2 -146.3 175.2 29 29 29
28.7 -14.6 17.4 220 223 222
244.8 -95.8 114.6 195 195 195
122.8 -47.0 56.3 199 199 199
-155.6 -216.4 266.4 27 27 27
-123.4 -178.7 220.0 23 24 23
28.7 -14.4 17.7 220 223 222
28.8 -14.2 17.5 220 223 222
246.3 -93.7 115.3 192 192 192
183.1 -68.9 84.8 197 197 197
126.6 -47.1 58.0 199 199 199
-49.5 -18.7 23.6 120 120 120
-48.6 -18.5 23.4 138 140 139
-136.0 -191.3 242.5 26 25 24
188.2 -68.8 87.2 195 195 195
134.9 -48.8 61.8 197 197 197
-53.0 -19.2 25.0 145 145 144
-51.4 -18.8 24.5 122 124 123
134.0 -47.0 61.4 196 196 196
111.8 -38.8 50.7 197 197 197
153.1 -51.0 66.6 200 200 200
161.3 -52.7 68.8 202 202 202
164.7 -53.3 69.5 204 204 204
163.9 -52.5 68.5 207 207 207
159.1 -50.5 65.9 202 202 202
-54.1 -19.0 25.6 145 145 144
234.9 -81.7 110.0 156 156 156
116.3 -39.6 53.3 195 195 195
109.8 -37.0 49.8 197 197 197
112.1 -37.4 50.3 197 197 197
111.5 -36.8 49.5 199 199 199
153.1 -49.5 66.6 200 200 200
164.5 -51.1 68.8 208 208 208
-47.4 -16.5 22.9 67 67 67
-46.6 -16.4 22.7 57 57 57
-43.7 -15.5 21.6 52 52 52
252.5 -85.0 118.2 152 154 154
117.6 -38.8 53.9 192 192 192
111.5 -36.4 50.6 196 196 196
113.6 -36.7 51.0 197 197 197
115.7 -37.0 51.4 197 197 197
159.8 -50.0 69.5 200 200 200
177.0 -53.8 74.8 203 203 203
167.5 -50.4 70.1 206 206 206
-49.5 -16.4 23.6 59 59 59
-48.0 -16.1 23.2 59 59 59
-47.2 -16.0 23.0 59 59 59
132.7 -133.0 191.1 224 226 226
122.3 -118.6 170.4 220 223 222
267.5 -87.2 125.3 152 152 152
118.3 -37.7 54.2 192 192 192
113.7 -35.9 51.5 196 196 196
118.7 -37.1 53.3 196 196 196
120.7 -37.3 53.6 197 197 197
290.8 -89.0 127.8 197 197 197
124.4 -37.3 53.6 200 200 200
133.5 -37.4 53.7 98 100 100
-52.6 -16.7 24.8 57 57 57
-49.2 -15.8 23.5 47 46 45
-47.4 -15.4 22.9 50 50 50
-46.6 -15.3 22.8 50 50 50
134.0 -129.9 193.0 224 226 226
121.2 -113.6 168.9 220 223 222
280.5 -88.4 131.4 157 157 157
118.9 -36.7 54.5 192 192 192
113.7 -34.7 51.5 194 194 194
124.8 -36.2 53.7 200 200 200
135.5 -37.8 56.1 202 202 202
137.7 -37.7 56.0 229 229 229
134.3 -36.4 54.0 100 102 102
134.0 -125.4 193.0 224 226 226
121.2 -109.7 168.9 220 223 222
123.6 -36.8 56.6 192 192 192
145.5 -38.4 59.1 235 235 235
119.3 -34.2 54.7 190 190 190
110.4 -31.3 50.0 192 192 192
117.3 -32.4 53.7 191 191 191
110.1 -30.1 49.9 193 193 193
112.1 -30.3 50.3 195 195 195
115.9 -30.1 49.9 200 200 200
229.7 -58.5 97.0 204 204 204
124.3 -30.2 50.0 110 110 110
240.4 -65.3 112.6 150 150 150
112.4 -29.6 51.0 193 193 193
194.3 -50.5 87.2 195 195 195
197.6 -49.9 86.0 198 198 198
205.2 -51.3 88.4 202 202 202
211.2 -52.2 90.1 202 202 202
221.7 -54.3 93.6 204 204 204
200.1 -48.5 83.7 208 208 208
199.4 -47.9 82.6 199 199 199
212.0 -59.8 107.5 223 225 225
237.6 -61.9 111.3 134 136 135
184.8 -47.6 85.6 175 175 175
189.0 -47.2 84.8 193 193 193
194.1 -47.0 84.4 198 198 198
197.8 -47.4 85.2 202 202 202
196.7 -45.8 82.2 207 207 207
197.7 -45.6 81.9 199 199 199
250.9 -62.7 117.5 142 141 140
183.1 -45.2 84.8 176 179 178
181.7 -43.5 81.5 191 191 191
183.4 -42.6 79.8 198 198 198
196.0 -45.0 84.4 202 202 202
188.5 -42.0 78.8 207 207 207
190.3 -42.0 78.8 197 197 197
188.2 -41.2 77.2 234 234 234
191.5 -42.5 83.3 197 197 197
227.4 -49.0 96.0 203 203 203
197.5 -42.1 82.6 207 207 207
191.9 -40.5 79.5 200 200 200
221.6 -43.5 85.2 60 62 61
189.0 -40.0 82.2 197 197 197
194.3 -40.7 83.7 199 199 199
226.2 -46.5 95.5 203 203 203
191.7 -39.0 80.2 205 205 205
191.1 -38.5 79.1 200 200 200
135.4 -26.5 54.5 129 129 129
219.6 -41.1 84.4 63 65 65
25.5 -4.4 13.6 224 224 224
968.0 -125.1 386.0 74 76 75
25.3 -4.1 13.5 225 225 225
25.3 -4.0 13.3 225 225 225
25.2 -3.7 13.4 225 225 225
25.4 -3.7 13.3 225 225 225
19.6 -2.7 10.6 226 226 226
21.2 -2.8 12.2 224 224 224
21.5 -2.8 12.2 224 224 224
21.9 -2.8 12.3 224 224 224
22.2 -2.8 12.3 220 220 220
22.4 -2.8 12.2 224 224 224
22.6 -2.8 12.2 224 224 224
22.9 -2.8 12.2 226 226 226
23.1 -2.8 12.1 229 229 229
23.5 -2.8 12.2 226 226 226
23.9 -2.8 12.3 226 226 226
21.3 -2.5 12.1 224 224 224
21.6 -2.5 12.1 224 224 224
22.0 -2.5 12.1 224 224 224
22.1 -2.5 12.1 224 224 224
22.4 -2.5 12.1 224 224 224
22.7 -2.5 12.1 224 224 224
22.9 -2.5 12.0 227 227 227
23.7 -2.5 12.2 224 224 224
23.9 -2.5 12.1 226 226 226
22.7 -1.5 12.7 224 224 224
23.0 -1.5 12.7 224 224 224
17.5 -0.9 10.2 225 225 225
23.2 -1.2 13.2 224 224 224
23.3 -1.2 12.9 224 224 224
17.2 -0.7 10.3 220 223 222
17.5 -0.7 10.2 225 225 225
23.1 -0.9 13.1 225 225 225
23.2 -0.9 13.0 225 225 225
23.3 -0.9 12.9 225 225 225
17.2 -0.5 10.3 222 224 224
17.7 -0.5 10.3 222 224 224
23.1 -0.6 13.1 228 228 228
23.3 -0.6 13.0 228 228 228
23.1 -0.3 13.1 223 225 225
23.3 -0.3 13.0 222 224 224
75.7 1.0 20.1 90 90 90
76.3 1.0 20.2 88 88 88
82.1 1.6 21.9 86 86 86
77.1 1.4 20.4 89 89 89
81.9 2.1 21.9 87 87 87
81.9 2.1 21.8 93 96 95
78.7 2.0 20.8 93 96 95
82.9 2.6 22.4 87 87 87
84.4 2.7 22.7 87 87 87
83.1 2.6 22.2 87 87 87
82.7 2.6 22.0 94 94 94
81.8 2.5 21.6 94 94 94
86.4 3.3 23.2 88 88 88
83.7 3.1 22.3 94 94 94
83.3 3.1 22.0 92 92 92
283.4 30.8 110.0 195 195 195
-155.2 62.6 107.5 127 127 127
-148.5 60.9 104.5 122 124 123
-125.9 58.3 100.1 220 223 222
-213.7 100.4 91.8 101 100 98
-211.6 100.4 91.8 95 95 95
-210.5 100.9 92.3 80 83 82
-207.3 100.4 91.8 47 47 47
-204.2 99.9 91.4 50 50 50
-203.0 100.4 91.8 52 52 52
-199.0 99.5 90.9 52 52 52
-198.8 100.4 91.8 55 54 53
-196.6 100.4 91.8 58 58 58
-155.5 101.4 92.7 10 10 10
-152.6 100.9 92.3 13 13 13
-149.0 99.9 91.4 10 10 10
-146.8 99.9 91.4 6 7 7
-144.7 99.9 91.4 1 6 2
-142.6 99.9 91.4 10 10 10
-141.1 100.4 91.8 13 13 13
-139.0 100.4 91.8 6 6 6
-120.4 100.9 92.3 71 72 70
-116.5 99.5 90.9 82 81 79
-115.0 99.9 91.4 132 135 134
-109.7 100.9 92.3 34 34 34
-57.9 100.4 91.8 43 43 43
-52.0 101.4 92.7 102 104 104
-50.1 101.9 93.2 109 109 109
-47.5 100.9 92.3 57 57 57
-45.8 101.9 93.2 139 141 140
-43.4 101.4 92.7 173 175 175
-57.4 119.4 106.9 98 100 100
22.3 15.6 10.0 182 182 182
18.7 16.1 10.2 117 117 117
18.6 15.8 10.0 125 125 125
22.3 15.9 10.0 124 126 125
22.5 15.8 10.0 183 183 183
18.8 16.4 10.2 105 105 105
18.6 16.1 10.0 115 115 115
18.7 16.4 10.1 95 95 95
