ply
format ascii 1.0
element vertex 2235
property float x
property float y
property float z
property uchar red
property uchar green
property uchar blue
end_header
287.0 -585.9 233.5 163 163 163
303.3 -585.9 233.5 160 160 160
521.0 -988.8 394.1 160 160 160
519.3 -968.6 386.0 160 160 160
99.7 -165.9 66.1 156 159 158
100.6 -164.8 65.7 156 159 158
102.1 -164.8 65.7 156 159 158
103.6 -164.8 65.7 155 158 157
105.1 -164.8 65.7 155 158 157
105.6 -163.1 65.0 156 159 158
53.5 -76.1 30.3 158 161 160
54.2 -76.1 30.3 158 161 160
179.4 -566.5 227.9 168 168 168
184.7 -566.5 227.9 168 168 168
190.0 -566.5 227.9 168 168 168
195.3 -566.5 227.9 168 168 168
200.6 -566.5 227.9 168 168 168
203.5 -559.8 225.2 168 168 168
203.9 -546.8 220.0 168 168 168
209.0 -546.8 220.0 168 168 168
235.2 -573.4 230.7 165 165 165
232.1 -553.2 222.5 165 165 165
257.6 -587.8 236.5 166 166 166
256.7 -573.4 230.7 163 163 163
255.8 -559.8 225.2 163 163 163
269.5 -566.5 227.9 163 163 163
262.2 -540.5 217.4 163 163 163
307.6 -610.7 245.7 163 163 163
301.6 -587.8 236.5 163 163 163
229.6 -439.5 176.8 163 163 163
352.2 -662.3 266.4 163 163 163
334.8 -618.7 248.9 163 163 163
323.6 -587.8 236.5 160 160 160
99.7 -159.4 64.1 156 159 158
102.2 -161.0 64.8 162 162 162
101.6 -157.8 63.5 157 160 159
102.4 -156.7 63.1 158 161 160
100.2 -151.2 60.8 158 161 160
54.5 -76.8 30.9 158 161 160
54.7 -76.1 30.6 158 161 160
63.6 -81.1 32.6 159 159 159
59.0 -39.3 15.8 154 154 154
32.5 -182.7 74.2 160 160 160
34.4 -183.4 74.5 162 162 162
35.8 -182.0 73.9 162 162 162
37.6 -182.0 73.9 162 162 162
39.3 -182.0 73.9 162 162 162
41.0 -182.0 73.9 161 161 161
42.7 -182.0 73.9 161 161 161
44.4 -182.0 73.9 161 161 161
46.2 -182.0 73.9 164 164 164
47.9 -182.0 73.9 167 167 167
49.6 -182.0 73.9 167 167 167
51.3 -182.0 73.9 167 167 167
53.0 -182.0 73.9 167 167 167
54.7 -182.0 73.9 167 167 167
56.5 -182.0 73.9 168 168 168
58.2 -182.0 73.9 168 168 168
59.9 -182.0 73.9 168 168 168
61.6 -182.0 73.9 168 168 168
63.3 -182.0 73.9 168 168 168
65.0 -182.0 73.9 168 168 168
66.8 -182.0 73.9 165 165 165
68.5 -182.0 73.9 168 168 168
70.5 -182.7 74.2 165 165 165
71.9 -182.0 73.9 165 165 165
73.3 -181.3 73.6 165 165 165
75.4 -182.0 73.9 165 165 165
77.4 -182.7 74.2 165 165 165
79.1 -182.7 74.2 168 168 168
80.5 -182.0 73.9 166 166 166
82.2 -182.0 73.9 163 163 163
84.3 -182.7 74.2 160 160 160
86.0 -182.7 74.2 163 163 163
87.4 -182.0 73.9 163 163 163
89.1 -182.0 73.9 163 163 163
90.8 -182.0 73.9 163 163 163
92.5 -182.0 73.9 163 163 163
93.9 -181.3 73.6 163 163 163
96.0 -182.0 73.9 160 160 160
99.2 -184.8 75.1 163 163 163
107.1 -186.3 75.7 164 164 164
104.6 -179.2 72.8 167 167 167
116.0 -192.5 78.2 161 161 161
114.6 -187.1 76.0 161 161 161
113.1 -182.0 73.9 161 161 161
109.3 -173.2 70.3 161 161 161
113.9 -177.8 72.2 162 162 162
117.4 -180.6 73.3 162 162 162
112.9 -171.3 69.5 163 163 163
54.8 -76.5 31.1 158 161 160
55.0 -75.7 30.8 158 161 160
57.4 -78.0 31.7 159 162 161
57.8 -76.6 31.1 160 163 162
59.1 -76.5 31.1 160 163 162
66.3 -84.7 34.4 159 159 159
124.9 -93.9 38.1 104 103 101
60.3 -40.0 16.2 203 203 203
60.2 -39.6 16.1 165 168 167
62.1 -39.9 16.2 196 199 198
66.6 -163.0 66.8 165 165 165
77.9 -167.2 68.5 163 163 163
82.1 -163.0 66.8 166 166 166
83.7 -163.0 66.8 166 166 166
85.0 -162.5 66.6 166 166 166
90.7 -170.3 69.8 166 166 166
104.3 -189.1 77.5 163 163 163
107.0 -190.7 78.2 163 163 163
107.4 -188.3 77.2 164 164 164
98.8 -170.3 69.8 164 164 164
105.8 -166.0 68.0 164 164 164
109.7 -169.6 69.5 165 165 165
108.6 -163.0 66.8 166 166 166
106.4 -157.5 64.6 166 166 166
56.4 -77.9 32.0 165 165 165
56.6 -77.3 31.7 160 163 162
58.3 -78.6 32.2 159 162 161
63.7 -84.8 34.8 159 162 161
65.0 -84.4 34.6 160 163 162
67.5 -85.4 35.0 161 164 163
65.2 -81.5 33.4 159 159 159
154.6 -116.8 47.9 105 105 105
135.8 -101.9 41.8 104 103 101
72.8 -51.3 21.0 95 98 97
60.1 -39.4 16.2 200 202 202
59.8 -39.0 16.0 207 207 207
63.2 -40.7 16.7 200 202 202
63.3 -40.5 16.6 196 199 198
62.0 -39.4 16.2 212 213 212
55.1 -85.6 35.4 167 167 167
54.7 -83.7 34.6 168 168 168
112.1 -166.8 69.0 166 166 166
102.2 -149.8 62.0 166 166 166
89.8 -129.8 53.7 166 166 166
57.8 -79.2 32.8 168 168 168
57.4 -77.6 32.1 165 165 165
59.4 -79.3 32.8 166 166 166
64.9 -85.6 35.4 161 164 163
66.1 -86.1 35.6 162 165 164
65.1 -83.7 34.6 162 165 164
69.1 -86.7 35.9 161 164 163
67.9 -84.2 34.8 161 164 163
128.4 -95.4 39.5 104 103 101
120.5 -88.9 36.8 104 103 101
70.8 -49.4 20.5 95 95 95
57.7 -37.5 15.5 180 183 182
58.0 -37.5 15.5 170 171 170
57.6 -37.0 15.3 208 208 208
58.2 -37.2 15.4 180 183 182
59.3 -37.6 15.6 215 215 215
59.6 -37.6 15.5 215 215 215
20.7 -85.7 35.8 169 171 170
23.3 -85.9 35.9 169 171 170
27.4 -85.7 35.8 168 168 168
28.2 -85.7 35.8 168 168 168
30.6 -85.4 35.7 168 168 168
31.4 -85.4 35.7 168 168 168
32.6 -86.2 36.0 165 165 165
33.2 -85.7 35.8 165 165 165
33.9 -85.4 35.7 168 168 168
36.5 -85.7 35.8 168 168 168
37.4 -85.7 35.8 168 168 168
38.3 -85.9 35.9 168 168 168
38.5 -84.6 35.4 169 169 169
39.7 -85.4 35.7 166 166 166
40.7 -85.7 35.8 169 169 169
41.6 -85.9 35.9 169 169 169
42.4 -85.9 35.9 169 169 169
43.1 -85.6 35.8 169 169 169
43.9 -85.6 35.8 169 169 169
44.6 -85.2 35.6 169 169 169
45.3 -84.9 35.5 169 169 169
45.7 -84.1 35.2 171 173 173
46.6 -84.3 35.2 171 173 173
152.4 -238.2 99.6 170 171 170
54.8 -84.3 35.2 170 171 170
54.6 -82.7 34.6 172 172 172
103.2 -149.9 62.6 173 173 173
94.6 -135.5 56.6 173 173 173
59.4 -78.6 32.8 169 169 169
110.1 -143.7 60.1 166 166 166
108.4 -139.7 58.4 167 167 167
128.4 -94.5 39.5 105 105 105
116.9 -85.4 35.7 104 103 101
69.8 -48.6 20.3 95 98 97
68.2 -47.1 19.7 95 95 95
56.2 -35.7 14.9 200 202 202
55.3 -35.0 14.6 212 213 212
57.3 -35.8 15.0 218 218 218
20.2 -82.9 35.0 169 171 170
20.4 -80.3 33.9 169 171 170
21.1 -79.9 33.7 169 171 170
22.7 -80.0 33.8 169 171 170
26.5 -82.1 34.6 168 168 168
26.7 -80.3 33.9 165 165 165
28.0 -81.8 34.5 168 168 168
28.7 -81.6 34.5 168 168 168
29.0 -80.0 33.8 168 168 168
29.9 -80.6 34.0 170 172 172
31.4 -82.2 34.7 170 172 172
32.1 -81.9 34.6 170 172 172
32.1 -80.0 33.8 168 168 168
35.2 -81.8 34.5 168 168 168
35.4 -80.3 33.9 170 172 172
36.2 -80.5 34.0 171 173 173
36.9 -80.2 33.8 171 173 173
37.6 -80.0 33.8 171 173 173
38.4 -80.2 33.8 171 173 173
39.2 -80.2 33.8 173 175 175
41.1 -82.4 34.8 173 175 175
40.9 -80.5 34.0 171 173 173
41.5 -80.0 33.8 171 173 173
42.4 -80.3 33.9 173 175 175
43.1 -80.0 33.8 171 173 173
43.6 -79.5 33.5 171 173 173
44.2 -79.2 33.4 173 175 175
49.4 -82.7 34.9 172 174 174
50.2 -82.7 34.9 172 174 174
329.1 -533.6 225.2 172 174 174
165.5 -256.1 108.1 172 174 174
53.2 -81.1 34.2 172 174 174
53.5 -80.3 33.9 173 175 175
54.1 -80.0 33.8 173 175 175
119.5 -174.4 73.6 173 175 175
54.2 -72.9 30.8 174 174 174
54.6 -72.4 30.6 176 179 178
57.6 -75.5 31.8 175 175 175
58.0 -75.0 31.6 173 173 173
108.3 -77.8 32.8 104 103 101
48.9 -31.0 13.1 180 183 182
48.8 -30.8 13.0 207 207 207
48.9 -30.6 12.9 215 215 215
50.5 -31.2 13.2 218 218 218
20.2 -78.8 33.6 169 171 170
25.7 -78.8 33.6 170 172 172
26.3 -78.4 33.4 170 172 172
27.2 -78.7 33.5 170 172 172
28.0 -78.8 33.6 170 172 172
28.6 -78.4 33.4 170 172 172
31.1 -78.7 33.5 172 174 174
35.0 -78.7 33.5 172 174 174
35.7 -78.6 33.5 173 175 175
36.4 -78.4 33.4 173 175 175
37.2 -78.4 33.4 173 175 175
40.4 -78.6 33.5 178 178 178
41.1 -78.4 33.4 181 181 181
42.7 -78.6 33.5 173 175 175
43.2 -78.0 33.2 181 181 181
43.7 -77.6 33.1 173 175 175
46.4 -79.5 33.9 178 178 178
47.2 -79.5 33.9 179 179 179
47.6 -79.0 33.7 182 182 182
48.2 -78.7 33.5 179 179 179
48.8 -78.3 33.4 182 182 182
194.0 -301.9 128.7 179 179 179
178.8 -274.0 116.8 172 174 174
52.5 -79.3 33.8 174 176 176
53.1 -79.0 33.7 180 180 180
53.7 -78.7 33.5 175 177 177
54.5 -78.7 33.5 173 175 175
54.6 -72.6 31.0 177 180 179
55.2 -72.5 30.9 176 179 178
58.9 -76.4 32.6 178 181 180
58.3 -74.6 31.8 176 179 178
56.6 -71.5 30.5 177 180 179
64.2 -43.5 18.5 95 95 95
43.9 -27.6 11.7 208 208 208
43.0 -26.8 11.4 212 213 212
45.8 -28.2 12.0 218 218 218
45.6 -27.9 11.9 219 219 219
27.6 -69.2 29.8 180 180 180
28.2 -69.0 29.7 172 174 174
28.9 -69.0 29.7 172 174 174
31.7 -69.1 29.7 191 191 191
32.3 -68.8 29.6 191 191 191
33.0 -69.0 29.7 191 191 191
46.0 -74.2 32.0 203 203 203
43.5 -69.2 29.8 203 203 203
44.0 -68.9 29.6 203 203 203
176.6 -268.0 115.3 199 199 199
164.3 -245.5 105.7 197 197 197
51.7 -76.2 32.8 198 198 198
52.4 -76.0 32.7 198 198 198
159.6 -221.9 95.5 205 205 205
58.9 -74.6 32.1 202 202 202
61.0 -40.7 17.5 95 98 97
42.4 -26.2 11.3 191 191 191
42.7 -26.2 11.3 212 213 212
30.9 -68.2 29.6 204 204 204
42.7 -68.3 29.7 203 203 203
42.9 -67.6 29.4 203 203 203
42.9 -66.5 28.9 203 203 203
177.7 -266.9 116.1 203 203 203
153.4 -211.2 91.8 205 205 205
144.3 -196.0 85.2 202 202 202
56.1 -69.5 30.2 205 205 205
121.6 -87.9 38.2 110 112 111
44.0 -68.6 30.1 203 203 203
43.1 -66.1 29.0 203 203 203
41.2 -62.2 27.3 203 203 203
138.3 -196.6 86.4 204 204 204
134.2 -188.1 82.6 204 204 204
149.8 -207.0 90.9 205 205 205
148.4 -202.2 88.8 205 205 205
143.0 -192.3 84.4 205 205 205
26.4 -34.1 15.0 206 206 206
26.1 -33.2 14.6 204 204 204
123.7 -89.2 39.2 112 114 113
116.6 -83.5 36.7 112 114 113
43.5 -67.1 29.8 206 206 206
43.6 -66.2 29.4 206 206 206
43.7 -65.3 29.0 206 206 206
143.6 -193.7 86.0 205 205 205
27.6 -36.2 16.1 206 206 206
27.7 -35.9 15.9 206 206 206
26.4 -33.3 14.8 207 207 207
293.6 -217.5 96.5 126 129 128
118.2 -83.7 37.2 115 117 116
43.2 -65.9 29.6 206 206 206
43.5 -65.3 29.3 206 206 206
43.5 -64.4 28.9 206 206 206
44.0 -64.1 28.7 206 206 206
27.7 -35.4 15.9 205 205 205
26.6 -33.2 14.9 206 206 206
41.3 -59.5 26.9 208 208 208
27.7 -35.1 15.9 208 208 208
27.4 -34.2 15.5 205 205 205
26.4 -32.6 14.8 206 206 206
-13.9 -22.1 10.1 129 129 129
-13.3 -22.2 10.2 132 131 130
-13.0 -22.2 10.2 133 133 133
-12.6 -21.9 10.0 135 135 135
41.0 -58.5 26.8 208 208 208
40.9 -57.4 26.3 208 208 208
27.6 -34.6 15.8 207 207 207
27.3 -33.8 15.5 207 207 207
-18.4 -21.7 10.0 106 108 108
-18.2 -21.7 10.0 105 107 107
-16.6 -21.7 10.0 115 114 114
-16.3 -21.6 10.0 116 116 116
-15.6 -21.7 10.0 116 118 117
-15.5 -21.8 10.1 119 121 120
-15.2 -21.7 10.0 118 120 119
-15.2 -22.0 10.2 122 122 122
-14.9 -21.9 10.1 122 122 122
-14.6 -21.9 10.1 123 123 123
-14.4 -22.0 10.2 123 123 123
-13.6 -21.7 10.0 127 127 127
-13.7 -22.2 10.3 126 126 126
-13.3 -22.1 10.2 126 126 126
-13.0 -22.0 10.2 128 128 128
-12.6 -21.7 10.0 130 130 130
-12.4 -21.6 10.0 132 131 130
-12.2 -21.8 10.1 131 131 131
-10.3 -21.7 10.1 134 134 134
-10.0 -21.6 10.0 134 136 135
-9.8 -21.7 10.0 134 137 136
-8.9 -22.3 10.3 139 138 137
-8.6 -22.2 10.3 139 139 139
27.6 -34.2 15.8 206 206 206
27.4 -33.6 15.6 207 207 207
24.4 -26.4 12.2 207 207 207
-19.5 -22.9 10.7 107 109 109
-19.2 -22.9 10.7 106 106 106
-19.0 -22.9 10.7 106 106 106
-15.3 -22.9 10.7 117 119 118
-14.9 -22.8 10.7 117 119 118
-14.7 -22.8 10.7 119 121 120
-13.1 -21.8 10.2 124 124 124
-12.7 -21.6 10.1 126 126 126
-12.3 -21.6 10.1 129 129 129
-9.5 -22.8 10.7 138 140 139
-9.3 -22.9 10.7 140 139 138
37.9 -50.5 23.6 207 207 207
27.4 -33.2 15.5 206 206 206
24.2 -25.9 12.1 206 206 206
24.1 -25.5 11.9 204 204 204
-28.7 -21.5 10.2 48 48 48
-28.5 -21.5 10.2 47 46 45
-28.2 -21.5 10.2 51 51 51
-28.0 -21.5 10.2 51 51 51
-27.7 -21.5 10.2 51 51 51
-27.5 -21.5 10.2 51 51 51
-27.3 -21.5 10.2 48 48 48
-27.0 -21.5 10.2 48 48 48
-26.8 -21.5 10.2 51 51 51
-18.5 -21.5 10.2 98 100 100
-18.3 -21.6 10.2 97 100 99
-18.0 -21.6 10.2 101 101 101
-17.8 -21.6 10.2 103 103 103
-17.6 -21.6 10.2 105 105 105
-17.3 -21.6 10.2 105 105 105
-17.1 -21.5 10.2 107 107 107
-15.2 -21.6 10.2 115 115 115
-14.9 -21.5 10.2 116 116 116
-14.7 -21.5 10.2 116 116 116
-14.5 -21.5 10.2 116 116 116
-13.4 -21.6 10.2 118 120 119
-13.1 -21.6 10.2 121 123 122
-12.8 -21.4 10.1 124 124 124
37.9 -50.0 23.6 207 207 207
24.2 -25.6 12.1 206 206 206
24.2 -25.3 12.0 206 206 206
10.8 -28.7 13.7 209 209 209
12.1 -28.7 13.7 209 209 209
12.4 -28.7 13.7 209 209 209
12.6 -28.4 13.6 211 211 211
14.5 -28.4 13.6 209 209 209
14.8 -28.4 13.6 209 209 209
15.9 -28.8 13.8 209 209 209
16.1 -28.4 13.6 209 209 209
18.0 -28.5 13.6 208 208 208
18.3 -28.5 13.6 208 208 208
41.1 -55.3 26.5 206 206 206
40.2 -53.2 25.5 206 206 206
39.0 -51.0 24.4 206 206 206
39.2 -50.5 24.2 206 206 206
24.2 -25.4 12.1 205 205 205
24.3 -25.2 12.0 205 205 205
24.5 -25.1 12.0 205 205 205
-39.3 -28.9 14.0 52 52 52
-39.2 -29.0 14.0 52 52 52
-38.2 -29.0 14.0 52 52 52
-37.8 -29.0 14.0 52 52 52
-37.6 -29.0 14.0 54 54 54
-37.2 -29.0 14.0 54 54 54
-36.9 -29.0 14.0 54 54 54
-36.5 -29.0 14.0 54 54 54
-34.3 -29.0 14.0 48 47 46
-33.8 -28.9 14.0 44 44 44
-33.5 -28.9 14.0 44 44 44
-33.1 -28.9 14.0 44 44 44
-32.8 -28.8 13.9 44 44 44
-32.6 -29.0 14.0 44 44 44
-31.3 -29.0 14.0 44 44 44
-31.0 -29.0 14.0 44 44 44
-30.7 -29.0 14.0 42 43 42
-30.2 -28.9 14.0 42 43 42
-29.9 -28.9 14.0 40 40 40
-29.6 -28.9 14.0 40 40 40
-29.2 -28.9 14.0 43 43 43
-29.0 -29.0 14.0 43 43 43
-28.6 -28.9 14.0 41 41 41
-14.3 -28.8 14.0 110 110 110
-13.9 -28.7 13.9 108 110 110
-13.6 -28.7 13.9 107 109 109
-13.3 -28.8 13.9 108 110 110
-9.5 -29.1 14.1 161 164 163
-9.2 -29.0 14.0 173 175 175
-7.5 -29.0 14.0 190 190 190
-7.2 -29.0 14.0 191 191 191
-6.9 -29.0 14.0 192 192 192
-6.6 -29.0 14.0 194 194 194
-6.2 -29.0 14.0 193 193 193
-5.9 -28.9 14.0 193 193 193
-5.6 -28.8 14.0 192 192 192
-4.6 -29.0 14.0 192 192 192
-4.3 -29.0 14.0 192 192 192
-4.0 -29.0 14.0 192 192 192
-3.6 -28.8 14.0 192 192 192
-3.3 -28.8 13.9 189 189 189
-3.0 -28.8 13.9 189 189 189
2.2 -29.1 14.1 184 184 184
2.6 -29.1 14.1 184 184 184
8.4 -29.0 14.0 209 209 209
8.7 -28.8 13.9 209 209 209
10.1 -29.2 14.1 209 209 209
10.8 -29.2 14.1 209 209 209
11.0 -28.9 14.0 209 209 209
11.3 -28.8 13.9 209 209 209
12.1 -29.2 14.1 209 209 209
12.4 -29.1 14.1 209 209 209
12.6 -28.9 14.0 209 209 209
12.9 -28.8 13.9 210 210 210
13.2 -28.8 13.9 206 206 206
13.5 -28.8 13.9 206 206 206
13.9 -28.8 14.0 206 206 206
14.3 -29.0 14.0 208 208 208
14.6 -28.9 14.0 208 208 208
14.8 -28.8 13.9 208 208 208
15.2 -28.9 14.0 208 208 208
15.6 -29.0 14.0 208 208 208
16.0 -29.0 14.0 208 208 208
16.2 -28.9 14.0 208 208 208
16.5 -28.8 13.9 208 208 208
16.8 -28.8 13.9 208 208 208
17.1 -28.8 13.9 208 208 208
17.4 -28.8 13.9 208 208 208
18.2 -29.0 14.0 208 208 208
18.4 -28.8 13.9 208 208 208
18.8 -28.8 14.0 208 208 208
20.2 -29.1 14.1 208 208 208
39.9 -55.6 26.9 208 208 208
41.8 -55.6 26.9 208 208 208
40.8 -53.4 25.8 208 208 208
61.7 -76.4 36.9 206 206 206
24.3 -25.2 12.2 204 204 204
24.4 -24.9 12.1 204 204 204
-40.1 -29.1 14.2 55 55 55
-39.8 -29.1 14.3 55 55 55
-39.5 -29.1 14.3 55 55 55
-39.2 -29.2 14.3 55 55 55
-38.8 -29.1 14.3 53 52 52
-38.5 -29.1 14.3 55 55 55
-38.1 -29.1 14.3 55 55 55
-37.8 -29.1 14.3 55 55 55
-37.5 -29.1 14.3 55 55 55
-37.1 -29.1 14.2 55 55 55
-35.6 -29.2 14.3 50 50 50
-35.2 -29.2 14.3 50 50 50
-34.8 -29.1 14.3 49 48 47
-34.5 -29.1 14.3 49 48 47
-34.2 -29.1 14.3 49 48 47
-33.8 -29.1 14.3 45 45 45
-33.5 -29.1 14.2 45 45 45
-33.2 -29.1 14.2 45 45 45
-32.9 -29.2 14.3 45 45 45
-31.9 -29.1 14.3 45 45 45
-31.5 -29.1 14.2 45 45 45
-31.2 -29.1 14.3 45 45 45
-30.9 -29.1 14.3 45 45 45
-30.5 -29.1 14.2 46 46 46
-30.2 -29.1 14.2 46 46 46
-29.8 -29.1 14.2 44 44 44
-29.5 -29.1 14.3 44 44 44
-29.2 -29.1 14.2 44 44 44
-29.0 -29.2 14.3 42 42 42
-28.6 -29.2 14.3 40 40 40
-14.6 -29.2 14.3 93 96 95
-14.3 -29.1 14.2 82 84 84
-13.9 -29.1 14.2 72 71 69
-13.6 -29.1 14.2 78 78 78
-10.0 -29.1 14.3 175 177 177
-9.7 -29.1 14.3 184 184 184
-9.3 -29.1 14.3 195 195 195
-9.0 -29.1 14.3 202 202 202
-8.7 -29.1 14.3 205 205 205
-8.3 -29.1 14.3 204 204 204
-8.0 -29.1 14.3 205 205 205
-7.7 -29.1 14.3 205 205 205
-7.3 -29.1 14.3 204 204 204
-7.0 -29.1 14.3 202 202 202
-6.7 -29.1 14.3 200 200 200
-6.3 -29.1 14.3 199 199 199
-6.0 -29.1 14.2 199 199 199
-5.7 -29.1 14.2 195 195 195
-5.3 -29.1 14.3 197 197 197
-5.0 -29.1 14.3 197 197 197
-4.7 -29.1 14.3 196 196 196
-4.3 -29.1 14.3 196 196 196
-4.0 -29.1 14.2 193 193 193
-3.7 -29.2 14.3 196 196 196
-3.4 -29.2 14.3 193 193 193
0.6 -29.2 14.3 186 186 186
1.0 -29.2 14.3 186 186 186
1.3 -29.2 14.3 186 186 186
1.6 -29.2 14.3 186 186 186
1.9 -29.2 14.3 183 183 183
2.3 -29.1 14.2 183 183 183
2.6 -29.1 14.2 183 183 183
2.9 -29.1 14.2 183 183 183
8.3 -29.2 14.3 209 209 209
8.6 -29.1 14.3 209 209 209
9.9 -29.2 14.3 209 209 209
10.2 -29.2 14.3 209 209 209
10.6 -29.2 14.3 208 208 208
10.9 -29.2 14.3 208 208 208
11.2 -29.1 14.2 208 208 208
12.2 -29.2 14.3 208 208 208
12.6 -29.2 14.3 208 208 208
12.9 -29.1 14.2 208 208 208
13.2 -29.1 14.3 208 208 208
13.5 -29.1 14.2 208 208 208
14.2 -29.1 14.3 208 208 208
14.5 -29.1 14.2 208 208 208
14.9 -29.2 14.3 208 208 208
15.2 -29.2 14.3 208 208 208
15.9 -29.2 14.3 208 208 208
16.2 -29.1 14.3 208 208 208
16.5 -29.1 14.2 208 208 208
16.8 -29.1 14.2 208 208 208
17.2 -29.1 14.2 208 208 208
17.5 -29.1 14.2 208 208 208
18.2 -29.2 14.3 207 207 207
18.5 -29.1 14.2 207 207 207
18.9 -29.2 14.3 207 207 207
19.2 -29.2 14.3 207 207 207
19.9 -29.2 14.3 207 207 207
20.5 -29.2 14.3 207 207 207
40.1 -55.2 27.0 207 207 207
41.9 -56.0 27.4 207 207 207
42.0 -55.2 27.0 207 207 207
42.1 -54.5 26.7 207 207 207
42.8 -54.7 26.8 205 205 205
42.8 -53.9 26.3 205 205 205
43.2 -53.6 26.2 205 205 205
62.1 -74.9 36.7 206 206 206
61.3 -73.0 35.7 206 206 206
24.6 -25.4 12.4 206 206 206
24.5 -25.1 12.3 203 203 203
24.3 -24.6 12.0 204 204 204
24.4 -24.4 12.0 204 204 204
-15.0 -29.5 14.6 19 23 20
-14.5 -29.2 14.5 27 27 27
-14.1 -29.2 14.4 33 33 33
-13.8 -29.1 14.4 25 25 25
-15.6 -33.7 16.7 27 29 27
-4.1 -29.1 14.4 197 197 197
-3.7 -29.1 14.4 200 200 200
-3.4 -29.1 14.4 197 197 197
-2.4 -22.7 11.2 195 195 195
-2.1 -22.7 11.3 195 195 195
10.3 -33.4 16.5 208 208 208
10.7 -33.5 16.6 208 208 208
11.0 -33.2 16.4 208 208 208
11.4 -33.2 16.4 208 208 208
11.8 -33.3 16.5 208 208 208
12.7 -33.7 16.7 208 208 208
13.1 -33.7 16.7 208 208 208
13.4 -33.4 16.5 208 208 208
13.7 -33.2 16.4 208 208 208
15.6 -33.2 16.4 208 208 208
16.1 -33.5 16.6 207 207 207
16.5 -33.4 16.5 207 207 207
16.9 -33.4 16.5 207 207 207
17.3 -33.6 16.6 207 207 207
17.7 -33.6 16.6 207 207 207
18.0 -33.4 16.5 207 207 207
18.3 -33.3 16.5 207 207 207
20.3 -34.0 16.8 207 207 207
20.4 -33.6 16.6 207 207 207
20.7 -33.3 16.5 207 207 207
21.2 -33.5 16.6 207 207 207
21.5 -33.5 16.6 207 207 207
21.7 -33.2 16.4 207 207 207
22.4 -33.7 16.7 207 207 207
22.6 -33.4 16.5 207 207 207
22.8 -33.2 16.4 207 207 207
23.8 -33.5 16.6 207 207 207
24.0 -33.2 16.4 207 207 207
42.2 -55.7 27.6 206 206 206
42.4 -55.2 27.3 207 207 207
42.6 -54.6 27.0 207 207 207
43.2 -54.5 27.0 207 207 207
43.4 -54.0 26.7 205 205 205
43.8 -53.8 26.6 205 205 205
45.3 -54.8 27.1 205 205 205
62.9 -74.1 36.7 205 205 205
24.2 -24.6 12.1 205 205 205
24.3 -24.3 12.0 203 203 203
-15.7 -30.7 15.4 26 26 26
-17.1 -34.1 17.1 26 26 26
-16.4 -34.2 17.1 27 27 27
-16.0 -34.2 17.1 29 30 28
10.9 -33.7 16.9 208 208 208
13.4 -33.9 17.0 207 207 207
14.2 -34.0 17.0 207 207 207
11.7 -23.4 11.7 207 207 207
17.5 -34.2 17.1 207 207 207
17.8 -34.1 17.1 207 207 207
18.2 -34.1 17.1 207 207 207
18.6 -34.1 17.1 207 207 207
20.6 -34.1 17.1 206 206 206
20.9 -34.0 17.0 206 206 206
21.7 -34.0 17.0 206 206 206
21.7 -33.4 16.7 206 206 206
23.0 -34.1 17.1 206 206 206
23.3 -34.0 17.0 206 206 206
24.1 -34.1 17.1 206 206 206
24.4 -33.8 16.9 206 206 206
42.8 -55.9 28.0 206 206 206
42.6 -54.7 27.4 206 206 206
43.7 -54.5 27.3 206 206 206
43.6 -53.6 26.8 206 206 206
43.3 -52.5 26.3 207 207 207
45.5 -54.5 27.3 207 207 207
65.6 -76.3 38.2 205 205 205
66.9 -76.8 38.4 205 205 205
69.5 -78.7 39.4 205 205 205
28.4 -29.1 14.6 204 204 204
28.6 -29.0 14.5 204 204 204
-43.8 -34.1 17.3 57 57 57
-43.3 -34.0 17.2 57 57 57
-42.7 -34.2 17.3 55 55 55
-37.3 -34.0 17.2 48 48 48
-36.9 -34.0 17.2 48 48 48
-36.1 -34.0 17.2 44 44 44
-35.8 -34.1 17.3 47 47 47
-35.5 -34.2 17.3 47 47 47
-17.7 -34.0 17.2 26 26 26
-17.2 -33.9 17.2 26 26 26
-17.0 -34.2 17.3 28 28 28
-16.5 -34.1 17.3 29 30 28
-16.1 -34.0 17.2 29 30 28
-10.9 -24.3 12.3 31 30 29
-10.5 -24.1 12.2 32 32 32
9.1 -23.4 11.9 207 207 207
13.5 -33.8 17.1 207 207 207
10.3 -24.3 12.3 207 207 207
10.5 -24.3 12.3 207 207 207
10.4 -23.4 11.9 207 207 207
11.8 -23.4 11.8 206 206 206
17.9 -33.9 17.1 206 206 206
15.2 -24.4 12.4 206 206 206
15.4 -24.2 12.3 206 206 206
21.9 -33.8 17.1 206 206 206
23.1 -33.9 17.2 206 206 206
16.9 -24.3 12.3 206 206 206
24.3 -33.9 17.2 205 205 205
24.6 -33.7 17.1 205 205 205
25.0 -33.8 17.1 205 205 205
42.8 -55.2 28.0 205 205 205
41.6 -52.9 26.8 205 205 205
41.1 -51.4 26.1 206 206 206
43.6 -53.1 26.9 206 206 206
43.2 -51.7 26.2 206 206 206
43.9 -51.9 26.3 204 204 204
45.2 -52.7 26.7 206 206 206
69.8 -78.1 39.6 204 204 204
28.2 -28.9 14.6 206 206 206
28.7 -29.1 14.7 206 206 206
29.1 -29.1 14.7 206 206 206
29.5 -29.2 14.8 204 204 204
-35.8 -24.8 12.7 59 61 59
-35.7 -25.0 12.8 59 61 59
-35.4 -24.9 12.8 59 61 59
-35.1 -24.9 12.8 59 61 59
-34.8 -24.9 12.8 59 61 59
-34.5 -25.0 12.8 59 61 59
-34.2 -25.0 12.8 59 61 59
-33.9 -24.9 12.8 59 61 59
-33.6 -25.0 12.8 59 61 59
-33.3 -24.9 12.8 59 61 59
-33.0 -24.9 12.8 59 61 59
-32.7 -24.9 12.8 59 61 59
-32.3 -24.9 12.7 58 58 58
-32.1 -24.9 12.8 56 56 56
-31.9 -25.0 12.8 56 56 56
-31.5 -24.9 12.8 58 58 58
-31.3 -25.0 12.8 56 56 56
-31.0 -25.0 12.8 53 53 53
-30.6 -24.9 12.8 52 52 50
-30.3 -24.9 12.8 53 53 53
-30.1 -25.0 12.8 52 52 50
-29.7 -24.9 12.8 48 48 48
-29.5 -25.0 12.8 48 48 48
-29.1 -24.9 12.8 53 53 53
-28.7 -24.8 12.7 52 52 50
-28.6 -25.0 12.8 52 52 50
-28.3 -25.0 12.8 53 52 51
-28.0 -25.0 12.8 53 52 51
-27.6 -24.9 12.8 49 49 49
-27.4 -25.0 12.8 49 49 49
-27.0 -24.9 12.8 47 48 47
-26.6 -24.8 12.7 47 48 47
-26.5 -24.9 12.8 47 48 47
-26.0 -24.8 12.7 48 48 48
-25.9 -25.0 12.8 50 50 50
-25.6 -24.9 12.8 50 50 50
-25.3 -24.9 12.8 48 48 48
-25.0 -25.0 12.8 48 48 48
-24.7 -24.9 12.8 46 46 46
-24.4 -24.9 12.8 46 46 46
-24.1 -24.9 12.8 44 44 44
-23.8 -24.9 12.8 41 41 39
-23.5 -25.0 12.8 41 41 39
-23.2 -24.9 12.8 41 41 39
-22.8 -24.8 12.7 41 41 39
-22.5 -24.8 12.7 42 42 40
-22.3 -25.0 12.8 42 42 40
-21.9 -24.9 12.7 42 42 40
-21.8 -25.0 12.8 42 42 40
-21.4 -25.0 12.8 40 40 40
-21.1 -24.9 12.7 40 40 40
-20.2 -24.9 12.8 33 33 31
-13.4 -24.9 12.8 29 29 29
-17.4 -33.9 17.4 29 31 29
-12.8 -25.6 13.1 33 32 30
-12.3 -25.0 12.8 29 31 29
-11.6 -24.9 12.8 32 31 30
-11.1 -24.5 12.6 29 30 28
-10.6 -24.0 12.3 31 30 29
-10.2 -25.0 12.8 160 160 160
11.2 -24.8 12.7 206 206 206
11.5 -24.8 12.7 206 206 206
11.8 -24.8 12.7 206 206 206
12.1 -24.8 12.7 206 206 206
12.8 -24.0 12.3 206 206 206
13.6 -24.8 12.7 208 208 208
13.9 -24.8 12.7 206 206 206
14.2 -24.8 12.7 206 206 206
15.1 -24.9 12.7 205 205 205
15.3 -24.8 12.7 205 205 205
15.9 -24.8 12.7 203 203 203
41.2 -51.7 26.5 205 205 205
40.8 -50.5 25.9 207 207 207
42.3 -51.5 26.4 205 205 205
43.3 -51.3 26.3 205 205 205
43.7 -51.0 26.2 206 206 206
44.6 -51.4 26.3 206 206 206
45.0 -51.1 26.2 204 204 204
45.3 -50.8 26.1 204 204 204
29.2 -28.9 14.8 205 205 205
29.9 -29.2 15.0 206 206 206
-36.3 -24.8 12.9 60 62 60
-36.1 -24.9 12.9 60 62 60
-35.8 -24.9 12.9 60 62 60
-35.5 -24.9 12.9 60 62 60
-35.2 -24.9 12.9 60 62 60
-34.9 -24.9 12.9 60 62 60
-34.6 -24.9 12.9 60 62 60
-34.3 -24.9 12.9 64 64 64
-34.0 -24.9 12.9 60 62 60
-33.7 -24.9 12.9 60 62 60
-33.3 -24.9 12.9 60 62 60
-33.0 -24.9 12.9 60 62 60
-32.7 -24.9 12.9 60 62 60
-32.5 -24.9 12.9 58 59 59
-32.2 -24.9 12.9 57 57 57
-31.8 -24.9 12.9 57 57 57
-31.6 -24.9 12.9 57 57 57
-31.3 -24.9 12.9 53 52 51
-31.0 -24.9 12.9 53 52 51
-30.7 -24.9 12.9 53 52 51
-30.4 -24.9 12.9 53 52 51
-30.1 -24.9 12.9 53 52 51
-29.8 -24.9 12.9 49 49 49
-29.4 -24.9 12.9 49 49 49
-29.2 -24.9 12.9 53 52 51
-28.9 -24.9 12.9 53 52 51
-28.6 -24.9 12.9 54 53 52
-28.2 -24.9 12.9 50 50 50
-28.0 -24.9 12.9 50 50 50
-27.7 -24.9 12.9 50 50 50
-27.3 -24.9 12.9 50 50 50
-27.0 -24.8 12.9 50 50 50
-26.8 -24.9 12.9 51 51 51
-26.5 -24.9 12.9 49 49 49
-26.2 -24.9 12.9 49 49 49
-25.9 -24.9 12.9 49 49 49
-25.6 -24.9 12.9 47 47 47
-25.3 -24.9 12.9 47 47 47
-25.0 -24.9 12.9 45 45 45
-24.7 -24.9 12.9 45 45 45
-24.4 -24.9 12.9 42 43 42
-24.1 -24.9 12.9 46 46 46
-23.8 -24.9 12.9 43 43 43
-23.5 -24.9 12.9 43 43 43
-23.1 -24.8 12.9 42 42 40
-22.9 -25.0 13.0 43 42 41
-22.6 -24.9 12.9 43 42 41
-22.2 -24.8 12.9 40 40 40
-22.0 -24.9 12.9 41 41 41
-21.6 -24.9 12.9 39 41 41
-21.3 -24.8 12.9 39 41 41
-21.0 -24.9 12.9 39 41 41
-20.7 -24.9 12.9 36 36 36
-20.4 -24.8 12.9 28 28 28
-20.1 -24.8 12.9 20 20 20
-19.8 -24.8 12.9 19 19 19
-19.4 -24.7 12.8 19 19 19
-13.5 -24.9 12.9 28 28 28
-13.2 -24.9 12.9 29 29 29
-13.1 -25.3 13.1 29 29 29
-12.8 -25.2 13.1 30 31 30
-12.4 -24.9 12.9 29 31 29
-12.0 -24.8 12.9 29 31 29
-11.7 -24.8 12.9 29 31 29
-11.3 -24.6 12.8 29 30 28
-11.1 -24.8 12.9 31 30 29
-10.9 -24.9 12.9 33 33 33
-10.6 -24.9 12.9 44 44 44
-10.3 -25.0 13.0 176 176 176
-10.0 -25.0 12.9 186 188 187
-9.7 -25.0 13.0 184 187 186
12.0 -25.0 13.0 205 205 205
12.2 -24.8 12.9 205 205 205
15.4 -25.0 13.0 207 207 207
41.6 -51.6 26.8 204 204 204
41.2 -50.4 26.1 204 204 204
42.7 -51.4 26.7 205 205 205
43.6 -51.8 26.9 205 205 205
43.8 -51.3 26.6 205 205 205
44.1 -50.9 26.4 205 205 205
44.8 -51.0 26.5 205 205 205
45.1 -50.7 26.3 205 205 205
45.7 -50.7 26.3 203 203 203
28.5 -28.2 14.6 205 205 205
29.2 -28.5 14.8 205 205 205
30.3 -29.2 15.2 205 205 205
152.6 -90.5 46.9 178 181 180
-36.4 -24.6 12.9 60 62 60
-36.2 -24.7 12.9 60 62 60
-35.8 -24.6 12.9 60 62 60
-35.5 -24.6 12.9 64 64 64
-35.2 -24.7 12.9 64 64 64
-34.9 -24.7 12.9 64 64 64
-34.6 -24.6 12.9 64 64 64
-34.3 -24.7 12.9 64 64 64
-34.0 -24.7 12.9 61 63 61
-33.7 -24.6 12.9 61 63 61
-33.4 -24.6 12.9 61 63 61
-33.1 -24.6 12.9 65 65 65
-32.8 -24.6 12.9 61 63 61
-32.5 -24.7 12.9 59 59 59
-32.2 -24.6 12.9 57 57 57
-31.9 -24.6 12.9 55 55 55
-31.6 -24.7 12.9 55 55 55
-31.3 -24.6 12.9 55 55 55
-31.0 -24.6 12.9 54 53 52
-30.7 -24.6 12.9 55 55 55
-30.4 -24.7 12.9 54 53 52
-30.1 -24.6 12.9 54 53 52
-29.8 -24.6 12.9 54 53 52
-29.5 -24.6 12.9 54 53 52
-29.2 -24.6 12.9 50 50 50
-28.9 -24.6 12.9 55 54 53
-28.6 -24.6 12.9 55 54 53
-28.3 -24.6 12.9 51 51 51
-28.0 -24.6 12.9 51 51 51
-27.7 -24.6 12.9 51 51 51
-27.4 -24.6 12.9 51 51 51
-27.1 -24.6 12.9 52 52 52
-26.8 -24.7 12.9 52 52 52
-26.5 -24.7 13.0 50 50 50
-26.2 -24.7 12.9 50 50 50
-25.9 -24.6 12.9 46 46 46
-25.6 -24.6 12.9 47 48 47
-25.3 -24.7 13.0 47 48 47
-23.8 -24.7 12.9 44 44 44
-23.5 -24.6 12.9 44 44 44
-23.2 -24.6 12.9 44 44 44
-22.9 -24.7 13.0 44 43 42
-22.6 -24.7 12.9 44 43 42
-22.3 -24.6 12.9 44 43 42
-22.0 -24.6 12.9 42 42 42
-21.7 -24.6 12.9 42 42 42
-21.4 -24.6 12.9 40 42 42
-20.4 -24.6 12.9 28 28 28
-13.6 -24.6 12.9 30 29 29
-12.8 -24.9 13.1 30 31 30
-12.4 -24.7 12.9 30 31 30
-12.1 -24.6 12.9 29 31 29
-11.7 -24.5 12.8 29 31 29
-11.3 -24.3 12.8 32 31 30
-11.2 -24.7 12.9 34 34 34
-10.9 -24.7 12.9 36 36 36
-10.5 -24.5 12.9 45 45 45
-10.3 -24.7 12.9 176 179 178
-10.0 -24.7 12.9 184 184 184
11.7 -24.6 12.9 205 205 205
12.0 -24.6 12.9 205 205 205
12.2 -24.5 12.9 205 205 205
14.0 -24.6 12.9 207 207 207
15.3 -24.7 12.9 207 207 207
15.6 -24.6 12.9 207 207 207
42.0 -51.5 27.0 204 204 204
41.4 -50.0 26.3 204 204 204
43.1 -51.3 26.9 206 206 206
44.3 -51.9 27.3 206 206 206
44.8 -51.8 27.2 204 204 204
44.9 -51.2 26.9 204 204 204
45.3 -50.9 26.7 205 205 205
45.3 -50.3 26.4 205 205 205
46.0 -50.4 26.5 205 205 205
28.7 -28.0 14.7 204 204 204
29.1 -28.1 14.8 204 204 204
30.5 -29.1 15.3 204 204 204
31.1 -29.4 15.4 204 204 204
-35.4 -23.6 12.6 61 63 61
-35.1 -23.7 12.6 65 65 65
-34.8 -23.6 12.6 65 65 65
-34.5 -23.6 12.6 65 65 65
-34.2 -23.6 12.6 65 65 65
-33.9 -23.7 12.6 65 65 65
-33.7 -23.7 12.6 65 65 65
-33.3 -23.6 12.6 65 65 65
-33.0 -23.6 12.6 65 65 65
-32.8 -23.6 12.6 65 65 65
-32.4 -23.6 12.6 62 64 61
-32.2 -23.6 12.6 62 64 61
-31.8 -23.6 12.5 62 64 61
-31.5 -23.6 12.6 60 60 60
-30.1 -23.6 12.6 56 56 56
-29.8 -23.6 12.6 55 54 53
-29.5 -23.6 12.6 55 54 53
-29.3 -23.7 12.6 56 56 56
-29.0 -23.7 12.6 56 56 56
-28.7 -23.6 12.6 56 56 56
-28.3 -23.6 12.5 55 54 53
-28.1 -23.7 12.6 56 55 54
-27.8 -23.7 12.6 56 55 54
-27.6 -23.7 12.6 56 55 54
-27.2 -23.7 12.6 56 55 54
-26.9 -23.6 12.6 56 55 54
-26.6 -23.6 12.6 56 55 54
-26.3 -23.6 12.6 53 52 52
-26.0 -23.6 12.6 53 52 52
-25.7 -23.6 12.6 53 52 52
-25.5 -23.7 12.6 53 52 52
-25.2 -23.6 12.6 51 51 51
-24.8 -23.6 12.5 52 52 52
-22.8 -23.6 12.6 45 45 45
-22.5 -23.6 12.5 46 46 46
-22.2 -23.6 12.6 45 44 43
-22.0 -23.7 12.6 45 44 43
-21.7 -23.6 12.6 42 42 42
-21.1 -23.6 12.6 41 43 42
-12.9 -24.8 13.2 31 32 30
-12.3 -24.3 12.9 38 38 38
-11.7 -23.6 12.6 42 43 42
-11.6 -23.9 12.7 47 47 47
-11.2 -23.7 12.6 59 60 58
-10.8 -23.6 12.6 60 62 60
-10.6 -23.7 12.6 34 34 34
-10.3 -23.7 12.6 46 46 46
-10.1 -23.9 12.7 182 182 182
-5.0 -23.7 12.6 220 223 222
-3.8 -23.6 12.5 217 217 217
-3.5 -23.6 12.6 217 217 217
-3.2 -23.6 12.6 215 215 215
-2.1 -23.5 12.5 209 212 211
8.1 -23.6 12.6 208 208 208
9.3 -23.6 12.6 207 207 207
9.9 -23.6 12.6 207 207 207
10.2 -23.6 12.5 207 207 207
10.4 -23.5 12.5 207 207 207
10.7 -23.5 12.5 207 207 207
11.0 -23.6 12.6 207 207 207
11.4 -23.7 12.6 207 207 207
11.9 -23.7 12.6 207 207 207
12.2 -23.5 12.5 207 207 207
12.5 -23.6 12.6 207 207 207
12.9 -23.7 12.6 204 204 204
13.1 -23.6 12.5 204 204 204
13.4 -23.7 12.6 207 207 207
13.7 -23.7 12.6 206 206 206
14.0 -23.7 12.6 206 206 206
15.2 -24.1 12.8 206 206 206
15.3 -23.8 12.7 206 206 206
15.4 -23.6 12.6 206 206 206
15.7 -23.6 12.5 206 206 206
16.0 -23.6 12.6 206 206 206
16.3 -23.6 12.6 206 206 206
17.0 -23.3 12.4 206 206 206
41.9 -50.7 26.9 205 205 205
41.7 -49.7 26.4 206 206 206
44.7 -51.7 27.5 206 206 206
45.2 -51.7 27.5 206 206 206
45.2 -50.9 27.1 204 204 204
45.3 -50.3 26.8 204 204 204
45.2 -49.6 26.3 204 204 204
46.1 -49.8 26.5 204 204 204
28.8 -27.8 14.8 206 206 206
29.2 -27.8 14.8 204 204 204
30.7 -28.9 15.4 204 204 204
31.3 -29.2 15.5 204 204 204
-35.8 -23.6 12.7 65 65 65
-35.9 -23.9 12.9 65 65 65
-35.5 -23.8 12.8 66 66 66
-35.2 -23.8 12.8 66 66 66
-34.9 -23.8 12.8 66 66 66
-34.7 -23.9 12.9 66 66 66
-34.4 -23.9 12.8 66 66 66
-34.1 -23.9 12.8 66 66 66
-33.8 -23.9 12.9 66 66 66
-33.4 -23.8 12.8 66 66 66
-32.9 -23.7 12.7 63 64 62
-32.6 -23.7 12.7 58 59 59
-32.3 -23.6 12.7 63 64 62
-30.7 -23.8 12.8 57 57 57
-30.2 -23.7 12.7 56 55 54
-30.0 -23.7 12.7 57 57 57
-29.7 -23.7 12.7 57 57 57
-29.4 -23.7 12.8 57 57 57
-29.0 -23.7 12.7 59 59 59
-28.5 -23.7 12.8 57 56 55
-28.2 -23.7 12.8 57 56 55
-27.9 -23.7 12.8 57 56 55
-27.6 -23.7 12.7 57 56 55
-27.5 -23.9 12.9 57 56 55
-27.0 -23.7 12.7 57 56 55
-26.7 -23.7 12.7 53 53 53
-26.5 -23.8 12.8 53 53 53
-25.5 -23.7 12.7 53 52 52
-23.1 -23.7 12.7 49 49 49
-12.9 -24.4 13.1 91 93 92
-12.4 -24.1 13.0 60 60 60
-11.6 -23.7 12.7 38 38 38
-11.3 -23.6 12.7 30 31 30
-11.0 -23.8 12.8 85 85 85
-10.8 -23.9 12.9 26 26 26
-10.4 -23.7 12.7 49 48 47
-10.1 -23.7 12.8 179 179 179
-10.0 -24.1 13.0 182 185 184
-9.6 -23.9 12.9 183 186 185
-9.3 -23.8 12.8 180 183 182
10.9 -23.6 12.7 207 207 207
11.2 -23.6 12.7 207 207 207
15.6 -23.6 12.7 206 206 206
16.2 -23.6 12.7 205 205 205
41.2 -49.3 26.5 205 205 205
40.5 -47.7 25.7 205 205 205
43.9 -50.2 27.0 205 205 205
44.5 -50.1 27.0 206 206 206
44.6 -49.6 26.7 206 206 206
44.5 -48.8 26.3 203 203 203
44.1 -47.8 25.7 204 204 204
45.0 -48.0 25.8 204 204 204
46.6 -49.1 26.4 204 204 204
29.2 -27.5 14.8 205 205 205
30.1 -28.0 15.1 203 203 203
32.0 -29.4 15.8 203 203 203
-36.5 -23.8 13.0 66 66 66
-36.3 -23.9 13.0 66 66 66
-36.0 -23.9 13.0 66 66 66
-35.9 -24.0 13.1 66 66 66
-33.9 -23.9 13.0 67 67 67
-33.6 -23.8 13.0 67 67 67
-33.3 -23.8 13.0 62 62 62
-31.2 -23.9 13.0 60 60 60
-30.9 -23.9 13.0 58 58 58
-30.6 -23.9 13.0 58 58 58
-30.4 -23.9 13.0 58 58 58
-30.0 -23.9 13.0 58 58 58
-29.6 -23.8 13.0 60 60 60
-29.1 -23.9 13.0 57 57 55
-28.7 -23.9 13.0 57 57 55
-28.4 -23.9 13.0 57 57 55
-28.1 -24.0 13.1 57 57 55
-27.5 -23.9 13.0 58 58 56
-27.2 -23.8 13.0 58 58 56
-26.0 -23.8 13.0 55 55 55
-22.7 -23.9 13.0 47 46 45
-13.4 -24.5 13.3 77 77 77
-13.0 -24.3 13.2 16 16 16
-12.4 -23.8 13.0 35 35 35
-11.7 -23.5 12.8 39 39 39
-11.3 -23.5 12.8 47 47 47
-11.2 -23.7 12.9 80 80 80
-10.9 -23.9 13.0 22 25 23
-10.6 -23.8 13.0 50 49 48
-10.3 -23.9 13.0 183 183 183
-10.0 -23.9 13.0 182 185 184
-9.7 -23.8 13.0 182 185 184
41.2 -48.7 26.5 204 204 204
40.5 -47.2 25.7 205 205 205
44.6 -49.7 27.1 205 205 205
44.8 -49.2 26.8 205 205 205
44.6 -48.3 26.3 205 205 205
44.4 -47.5 25.9 206 206 206
45.1 -47.5 25.9 203 203 203
46.4 -48.3 26.3 203 203 203
30.0 -27.5 15.0 205 205 205
31.3 -28.1 15.3 203 203 203
-37.7 -24.2 13.4 67 67 67
-37.3 -24.2 13.4 67 67 67
-37.0 -24.2 13.4 67 67 67
-36.7 -24.2 13.4 67 67 67
-36.4 -24.2 13.4 67 67 67
-36.1 -24.2 13.4 67 67 67
-35.8 -24.2 13.4 67 67 67
-35.5 -24.2 13.4 67 67 67
-35.2 -24.2 13.4 67 67 67
-34.9 -24.2 13.4 69 71 69
-34.6 -24.2 13.4 67 67 67
-34.1 -24.2 13.3 65 66 64
-33.6 -24.3 13.4 65 66 64
-33.0 -24.3 13.4 68 68 68
-32.7 -24.3 13.4 63 63 63
-32.4 -24.2 13.4 61 61 61
-32.1 -24.2 13.4 61 61 61
-31.8 -24.2 13.4 58 59 59
-31.4 -24.2 13.4 61 61 61
-31.1 -24.2 13.4 61 61 61
-30.8 -24.2 13.4 58 59 59
-30.5 -24.2 13.4 58 59 59
-30.2 -24.2 13.4 59 59 59
-29.8 -24.2 13.3 58 58 56
-29.5 -24.2 13.3 58 58 56
-29.0 -24.2 13.4 58 58 56
-28.6 -24.2 13.4 58 58 56
-28.2 -24.2 13.3 59 59 57
-28.0 -24.2 13.4 59 59 57
-27.7 -24.2 13.4 55 55 55
-27.4 -24.3 13.4 56 56 56
-27.1 -24.2 13.4 56 56 56
-26.7 -24.2 13.3 56 56 56
-26.5 -24.3 13.4 56 56 56
-26.1 -24.2 13.4 54 54 54
-23.7 -24.3 13.4 47 46 45
-23.2 -24.1 13.3 48 47 46
-23.1 -24.3 13.4 48 47 46
-22.7 -24.2 13.4 45 45 45
-13.4 -24.3 13.4 95 95 95
-13.0 -24.1 13.3 37 38 37
-11.3 -23.8 13.1 64 65 63
-11.1 -23.9 13.2 51 51 49
-10.8 -24.0 13.2 53 52 52
-10.6 -24.2 13.4 182 185 184
-10.2 -23.9 13.2 181 184 183
41.2 -48.0 26.5 204 204 204
40.8 -46.8 25.8 204 204 204
45.0 -49.5 27.3 205 205 205
44.9 -48.7 26.9 205 205 205
44.7 -47.9 26.4 205 205 205
44.9 -47.3 26.1 208 208 208
45.5 -47.4 26.2 203 203 203
46.5 -47.8 26.4 205 205 205
46.9 -47.6 26.3 206 206 206
29.9 -27.2 15.0 204 204 204
30.6 -27.5 15.2 204 204 204
31.3 -27.8 15.3 205 205 205
99.2 -49.6 27.4 162 165 164
-37.7 -24.0 13.4 67 67 67
-37.4 -24.0 13.4 67 67 67
-37.1 -24.0 13.4 67 67 67
-36.8 -24.0 13.4 67 67 67
-36.5 -24.0 13.4 67 67 67
-36.2 -24.0 13.4 67 67 67
-35.9 -24.0 13.4 68 68 68
-35.6 -24.0 13.4 70 72 69
-35.3 -24.0 13.4 68 68 68
-35.0 -24.0 13.4 68 68 68
-34.6 -24.0 13.4 68 68 68
-34.3 -24.0 13.4 68 68 68
-34.0 -24.0 13.4 68 68 68
-33.7 -24.0 13.4 69 69 69
-33.4 -24.0 13.4 69 69 69
-33.1 -24.0 13.4 69 69 69
-32.8 -24.0 13.4 66 67 65
-32.4 -24.0 13.4 64 64 64
-32.1 -24.0 13.4 62 62 62
-31.8 -24.0 13.4 58 58 56
-31.5 -24.0 13.4 59 59 59
-31.2 -24.0 13.4 59 59 59
-30.9 -24.0 13.4 59 59 59
-30.6 -24.0 13.4 59 59 59
-30.3 -24.0 13.4 59 59 57
-29.9 -24.0 13.4 59 59 57
-29.6 -24.0 13.4 59 59 57
-29.3 -24.0 13.4 59 59 57
-29.0 -24.0 13.4 59 59 57
-28.7 -24.0 13.4 60 59 58
-28.4 -24.0 13.4 60 59 58
-28.1 -24.0 13.4 60 59 58
-27.8 -24.0 13.4 56 56 56
-27.5 -24.0 13.4 57 57 57
-27.1 -24.0 13.4 57 57 57
-26.8 -24.0 13.4 57 57 57
-26.5 -24.0 13.4 58 58 58
-26.2 -24.0 13.4 56 56 56
-25.9 -24.0 13.4 53 52 52
-23.7 -24.0 13.4 50 50 50
-23.4 -23.9 13.4 49 48 47
-23.1 -24.0 13.4 49 48 47
-22.8 -24.0 13.4 46 46 46
-13.0 -23.8 13.3 33 34 32
-12.8 -23.9 13.4 126 129 128
-11.5 -23.8 13.3 47 48 47
-11.2 -23.8 13.3 50 50 50
-10.9 -23.9 13.4 53 55 53
-10.6 -24.0 13.4 182 185 184
-10.3 -23.8 13.3 180 183 182
41.2 -47.4 26.5 206 206 206
41.2 -46.7 26.1 206 206 206
45.6 -49.5 27.7 204 204 204
45.0 -48.2 26.9 204 204 204
44.9 -47.4 26.5 204 204 204
45.2 -47.1 26.3 207 207 207
45.8 -47.1 26.3 205 205 205
46.7 -47.3 26.5 205 205 205
47.1 -47.1 26.3 205 205 205
46.8 -46.2 25.8 205 205 205
30.0 -26.9 15.0 204 204 204
96.5 -47.6 26.6 162 165 164
93.7 -46.0 25.7 160 163 162
-38.2 -24.0 13.6 67 67 67
-38.3 -24.2 13.7 67 67 67
-38.0 -24.2 13.7 68 68 68
-37.7 -24.2 13.7 70 72 69
-37.3 -24.2 13.7 71 72 70
-37.0 -24.2 13.7 68 68 68
-36.7 -24.2 13.7 71 72 70
-36.4 -24.2 13.7 71 72 70
-36.0 -24.2 13.7 69 69 69
-35.8 -24.2 13.7 69 69 69
-33.9 -24.2 13.7 70 70 70
-33.5 -24.2 13.7 67 68 66
-33.2 -24.2 13.7 67 68 66
-32.9 -24.2 13.7 63 63 63
-32.6 -24.2 13.7 60 60 60
-32.3 -24.2 13.7 60 60 60
-31.9 -24.2 13.7 60 60 60
-31.5 -24.1 13.7 60 60 60
-30.8 -24.4 13.8 60 59 58
-30.3 -24.2 13.7 60 59 58
-30.0 -24.2 13.7 56 56 56
-29.7 -24.2 13.7 61 61 61
-29.4 -24.2 13.7 62 62 62
-29.1 -24.3 13.7 61 60 59
-28.8 -24.3 13.7 57 57 57
-28.5 -24.3 13.7 61 60 59
-28.1 -24.2 13.7 62 61 60
-27.6 -24.1 13.6 56 56 56
-23.6 -24.1 13.7 50 49 48
-13.1 -23.6 13.4 33 34 32
-11.3 -23.7 13.4 49 49 49
-11.2 -24.2 13.7 53 52 52
-10.8 -24.0 13.6 181 184 183
-10.3 -23.7 13.4 179 182 181
41.8 -47.4 26.9 206 206 206
46.6 -49.9 28.3 206 206 206
45.3 -47.8 27.1 207 207 207
45.4 -47.3 26.8 207 207 207
45.9 -47.2 26.8 204 204 204
46.5 -47.2 26.7 204 204 204
47.3 -47.4 26.8 204 204 204
47.6 -47.0 26.6 207 207 207
46.8 -45.7 25.9 205 205 205
95.2 -46.4 26.3 162 165 164
92.2 -44.6 25.3 160 163 162
-33.4 -24.5 14.1 64 64 64
-33.1 -24.5 14.1 64 64 64
-32.7 -24.5 14.1 64 64 64
-29.8 -24.5 14.1 62 61 60
-29.5 -24.5 14.1 62 61 60
-11.5 -24.4 14.0 53 53 53
45.5 -47.4 27.2 206 206 206
47.2 -47.2 27.1 207 207 207
47.5 -46.9 26.9 207 207 207
47.7 -46.5 26.7 207 207 207
46.3 -44.6 25.6 204 204 204
87.1 -41.3 23.7 154 154 154
-11.1 -24.8 14.4 178 181 180
-10.8 -24.8 14.4 183 183 183
-10.5 -24.9 14.5 175 177 177
-10.1 -24.8 14.4 207 207 207
-9.8 -24.8 14.5 208 208 208
11.6 -17.2 10.0 203 203 203
13.5 -17.2 10.0 205 205 205
47.7 -46.5 27.1 206 206 206
47.8 -46.0 26.8 207 207 207
46.5 -44.2 25.7 207 207 207
63.9 -31.9 18.6 178 181 180
64.4 -32.0 18.6 176 176 176
86.9 -40.7 23.7 157 157 157
900.6 -406.4 236.5 115 117 116
553.4 -248.2 144.4 112 114 113
-11.3 -24.8 14.6 180 183 182
-10.9 -24.7 14.6 180 183 182
48.3 -45.8 27.0 206 206 206
64.6 -31.9 18.8 177 177 177
91.6 -42.6 25.1 163 166 165
496.5 -219.7 129.6 114 116 115
-11.4 -24.7 14.8 181 184 183
-10.9 -24.5 14.7 180 183 182
66.7 -32.7 19.5 178 178 178
67.2 -32.5 19.4 176 176 176
67.9 -32.6 19.5 180 183 182
68.1 -32.5 19.4 178 178 178
-13.3 -16.9 10.2 40 39 38
-13.1 -16.9 10.3 94 94 94
-12.2 -25.3 15.4 186 188 187
-11.6 -24.8 15.0 182 185 184
-11.1 -25.3 15.4 174 174 174
62.5 -59.2 35.9 207 210 209
62.0 -58.0 35.2 207 210 209
65.8 -31.8 19.3 179 179 179
64.6 -31.0 18.8 179 179 179
66.9 -31.9 19.3 179 179 179
67.9 -32.1 19.5 179 179 179
67.8 -31.9 19.3 179 179 179
67.5 -31.5 19.1 179 179 179
-14.2 -16.8 10.3 59 59 59
-13.4 -16.7 10.3 118 117 116
-13.1 -16.7 10.3 118 117 116
-11.2 -25.3 15.5 175 175 175
-10.9 -25.3 15.6 156 159 158
63.6 -59.4 36.5 207 210 209
62.5 -57.6 35.4 207 210 209
61.7 -56.1 34.5 207 210 209
64.4 -30.4 18.7 181 181 181
68.9 -32.2 19.8 181 181 181
69.8 -32.4 19.9 179 179 179
-14.4 -16.8 10.5 104 103 101
-14.1 -16.7 10.4 22 25 23
-13.4 -16.5 10.3 140 140 140
-11.8 -26.1 16.3 182 182 182
-11.3 -25.9 16.2 159 162 161
66.9 -61.6 38.4 206 209 208
65.2 -59.2 36.9 207 210 209
58.6 -51.9 32.4 207 210 209
69.0 -31.7 19.8 182 182 182
70.0 -32.0 20.0 182 182 182
69.8 -31.7 19.8 182 182 182
58.8 -26.0 16.2 174 174 174
-13.3 -16.2 10.2 35 36 34
-12.9 -26.4 16.7 187 189 189
-12.4 -26.3 16.7 186 188 187
-12.0 -26.1 16.5 182 182 182
-11.5 -25.9 16.4 168 168 168
-11.4 -26.6 16.8 159 162 161
-11.0 -26.6 16.9 156 159 158
10.3 -17.1 10.8 205 205 205
13.8 -17.1 10.8 205 208 207
14.0 -17.0 10.8 205 208 207
14.1 -16.8 10.7 205 208 207
67.1 -60.1 38.1 206 209 208
66.1 -58.5 37.0 206 209 208
61.1 -53.3 33.8 207 210 209
68.1 -30.9 19.6 183 183 183
69.1 -31.1 19.7 183 183 183
68.6 -30.7 19.4 183 183 183
58.4 -25.5 16.1 175 175 175
59.0 -25.6 16.2 168 170 169
-13.4 -16.0 10.3 34 36 34
-12.6 -26.2 16.8 186 186 186
-12.1 -26.0 16.7 183 183 183
-11.8 -26.2 16.8 172 172 172
-11.5 -26.4 17.0 164 164 164
-11.1 -26.4 17.0 159 162 161
67.5 -59.6 38.3 206 209 208
66.7 -58.1 37.3 206 209 208
66.4 -29.9 19.2 184 184 184
67.9 -30.3 19.5 184 184 184
68.9 -30.6 19.6 184 184 184
68.4 -30.2 19.4 184 184 184
67.5 -29.6 19.0 184 184 184
61.1 -26.4 17.0 179 179 179
58.7 -25.2 16.2 176 176 176
-12.2 -26.7 17.4 173 173 173
-11.8 -26.6 17.4 169 169 169
-11.3 -26.6 17.4 166 166 166
75.0 -66.0 43.1 208 211 210
73.5 -63.9 41.7 205 208 207
68.3 -58.6 38.2 206 209 208
68.6 -30.2 19.7 185 185 185
69.5 -30.4 19.8 185 185 185
69.1 -30.0 19.6 185 185 185
68.4 -29.5 19.2 185 185 185
61.6 -26.2 17.1 180 180 180
62.6 -26.2 17.1 163 163 163
63.4 -26.3 17.2 158 158 158
948.0 -381.5 248.9 129 132 131
-13.4 -15.5 10.3 31 31 31
-13.1 -27.4 18.1 176 179 178
-12.5 -27.0 17.9 175 175 175
74.3 -63.6 42.1 208 211 210
70.3 -59.4 39.3 208 211 210
136.6 -105.8 70.1 207 210 209
70.0 -30.3 20.1 186 186 186
70.4 -30.3 20.1 186 186 186
70.3 -30.1 19.9 186 186 186
62.0 -26.0 17.2 181 181 181
61.8 -25.7 17.1 174 176 176
61.7 -25.5 16.9 170 171 170
62.5 -25.7 17.0 160 163 162
63.3 -25.9 17.1 157 157 157
-49.2 -28.8 19.4 29 30 28
-48.3 -28.8 19.4 20 23 21
-46.1 -28.9 19.4 59 59 59
-45.6 -28.8 19.4 59 59 59
-41.0 -28.8 19.4 26 26 26
-40.6 -28.8 19.4 40 40 40
-40.2 -28.9 19.4 47 47 47
-39.8 -28.9 19.4 54 54 54
-38.3 -29.1 19.6 78 78 78
-37.5 -28.8 19.4 66 66 66
-13.1 -27.8 18.7 177 180 179
74.8 -63.0 42.4 208 211 210
72.4 -60.2 40.5 208 211 210
137.6 -104.9 70.6 209 212 211
70.5 -30.1 20.2 188 188 188
70.6 -29.9 20.1 188 188 188
70.7 -29.8 20.0 188 188 188
62.1 -25.3 17.0 169 169 169
62.7 -25.4 17.1 161 161 161
63.5 -25.6 17.2 155 155 155
-54.8 -28.5 19.5 56 55 54
-54.5 -28.5 19.5 67 67 67
-54.0 -28.5 19.5 75 75 75
-53.5 -28.5 19.5 73 73 73
-53.1 -28.5 19.5 44 44 44
-52.9 -28.6 19.6 129 132 131
-52.4 -28.6 19.6 129 129 129
-51.7 -28.5 19.5 16 16 16
-51.3 -28.5 19.5 17 17 17
-50.8 -28.5 19.5 25 25 25
-50.4 -28.5 19.5 27 27 27
-49.9 -28.5 19.5 29 30 28
-49.5 -28.5 19.5 19 23 20
-49.0 -28.5 19.5 18 18 18
-48.6 -28.5 19.5 27 27 27
-48.1 -28.5 19.5 20 23 21
-47.7 -28.5 19.5 24 24 24
-47.2 -28.5 19.5 29 31 29
-46.7 -28.5 19.5 54 54 54
-46.3 -28.5 19.5 68 68 68
-45.8 -28.5 19.5 68 68 68
-45.4 -28.5 19.5 66 67 65
-44.9 -28.5 19.5 54 54 54
-44.5 -28.5 19.5 50 50 50
-44.0 -28.5 19.5 64 64 64
-43.6 -28.5 19.5 121 121 121
-43.1 -28.5 19.5 92 92 92
-42.7 -28.5 19.5 131 134 133
-42.2 -28.5 19.5 173 175 175
-41.8 -28.5 19.5 69 69 69
-41.3 -28.5 19.5 33 32 30
-40.9 -28.5 19.5 14 14 14
-40.4 -28.5 19.5 19 23 20
-39.9 -28.5 19.5 14 14 14
-39.5 -28.5 19.5 20 23 21
-39.0 -28.5 19.5 35 35 35
-38.7 -28.6 19.6 50 50 50
-38.3 -28.6 19.6 61 61 61
-37.7 -28.5 19.5 67 68 66
-37.2 -28.5 19.5 75 75 75
-36.9 -28.6 19.6 75 75 75
-36.5 -28.6 19.6 77 77 77
-36.0 -28.6 19.6 64 64 64
-35.6 -28.6 19.6 72 73 71
-35.1 -28.6 19.6 61 60 59
-34.6 -28.6 19.6 71 71 71
-34.2 -28.6 19.6 71 71 71
-33.7 -28.6 19.6 81 83 80
-33.3 -28.6 19.6 147 147 147
-32.8 -28.6 19.6 188 188 188
-32.4 -28.6 19.6 176 176 176
-31.9 -28.6 19.6 124 126 125
-31.5 -28.6 19.6 36 37 36
-31.0 -28.6 19.6 35 34 33
-30.6 -28.6 19.6 28 28 28
-30.1 -28.6 19.6 28 28 28
-29.5 -28.5 19.5 28 28 28
-29.1 -28.5 19.5 28 28 28
-28.6 -28.6 19.5 30 29 29
-28.2 -28.5 19.5 32 33 31
-27.7 -28.5 19.5 28 28 28
-27.3 -28.5 19.5 28 28 28
-26.9 -28.6 19.5 29 29 29
-26.5 -28.6 19.6 33 34 32
-25.9 -28.6 19.5 103 102 100
-25.6 -28.7 19.6 140 142 141
-25.1 -28.6 19.6 148 148 148
-24.7 -28.7 19.6 56 56 56
-24.2 -28.6 19.6 33 34 32
-23.7 -28.6 19.5 71 71 71
-23.3 -28.6 19.6 112 112 112
-22.7 -28.6 19.5 124 127 126
-22.2 -28.5 19.5 28 28 28
-14.0 -28.4 19.4 178 178 178
-13.6 -28.4 19.4 178 181 180
-13.2 -28.5 19.5 175 175 175
-12.4 -28.8 19.7 164 167 166
144.6 -108.5 74.2 209 212 211
63.1 -25.3 17.3 166 166 166
62.9 -25.1 17.1 162 162 162
63.3 -25.1 17.1 156 156 156
64.0 -25.2 17.2 149 151 151
65.1 -25.5 17.4 146 146 146
-55.2 -28.3 19.6 34 34 34
-54.8 -28.3 19.6 43 42 41
-54.4 -28.3 19.6 79 81 79
-53.9 -28.3 19.6 86 86 86
-53.5 -28.3 19.6 149 149 149
-53.0 -28.3 19.6 73 73 73
-52.6 -28.3 19.6 25 25 25
-52.1 -28.3 19.6 19 23 20
-51.7 -28.3 19.6 24 24 24
-51.2 -28.3 19.6 29 30 28
-50.7 -28.3 19.6 35 35 35
-50.3 -28.3 19.6 53 53 53
-49.8 -28.3 19.6 148 148 148
-49.4 -28.3 19.6 146 146 146
-48.9 -28.3 19.6 49 49 49
-48.5 -28.3 19.6 153 153 153
-48.0 -28.3 19.6 177 177 177
-47.5 -28.3 19.6 177 180 179
-47.1 -28.3 19.6 124 126 125
-46.6 -28.3 19.6 79 81 79
-46.2 -28.3 19.6 82 83 81
-45.7 -28.3 19.6 79 81 79
-45.3 -28.3 19.6 123 125 124
-44.8 -28.3 19.6 168 168 168
-44.3 -28.3 19.6 179 179 179
-43.9 -28.3 19.6 172 174 174
-43.4 -28.3 19.6 188 190 190
-43.0 -28.3 19.6 213 215 215
-42.5 -28.3 19.6 206 209 208
-42.1 -28.3 19.6 188 188 188
-41.6 -28.3 19.6 205 205 205
-41.1 -28.3 19.6 212 213 212
-40.7 -28.3 19.6 203 203 203
-40.2 -28.3 19.6 172 172 172
-39.8 -28.3 19.6 164 164 164
-39.3 -28.3 19.6 158 158 158
-38.9 -28.3 19.6 145 145 144
-38.4 -28.3 19.6 173 173 173
-38.0 -28.3 19.6 218 218 218
-37.5 -28.3 19.6 205 205 205
-37.0 -28.3 19.6 180 180 180
-36.6 -28.3 19.6 182 185 184
-36.1 -28.3 19.6 213 215 215
-35.7 -28.3 19.6 226 226 226
-35.2 -28.3 19.6 180 183 182
-34.8 -28.3 19.6 128 128 128
-34.3 -28.3 19.6 162 162 162
-33.8 -28.3 19.6 182 185 184
-33.4 -28.3 19.6 174 174 174
-32.9 -28.3 19.6 181 181 181
-32.5 -28.3 19.6 217 217 217
-32.0 -28.3 19.6 209 209 209
-31.6 -28.3 19.6 210 210 210
-31.1 -28.3 19.6 134 136 135
-30.6 -28.3 19.6 43 45 45
-30.2 -28.3 19.6 49 49 49
-29.7 -28.3 19.6 58 59 59
-29.3 -28.3 19.6 88 88 88
-28.8 -28.3 19.6 91 93 92
-28.4 -28.3 19.6 103 103 103
-27.9 -28.3 19.6 110 110 108
-27.4 -28.2 19.6 22 25 23
-26.9 -28.2 19.6 46 46 46
-26.5 -28.3 19.6 88 88 88
-26.1 -28.3 19.7 25 25 25
-25.7 -28.3 19.7 16 16 16
-25.2 -28.3 19.6 60 60 60
-24.8 -28.3 19.7 102 101 99
-23.4 -28.3 19.7 35 34 33
-22.9 -28.3 19.6 107 107 105
-22.4 -28.2 19.6 70 70 70
-14.2 -28.3 19.7 166 166 166
-13.7 -28.1 19.5 177 177 177
-13.3 -28.2 19.6 176 176 176
-12.9 -28.4 19.7 138 140 139
-12.4 -28.3 19.7 30 29 29
-1.2 -14.8 10.3 157 157 157
-1.0 -14.8 10.3 159 159 159
11.4 -14.8 10.3 207 210 209
11.7 -14.8 10.3 207 210 209
11.9 -14.8 10.3 207 210 209
12.8 -14.8 10.3 206 209 208
13.3 -14.8 10.3 206 209 208
13.5 -14.7 10.2 206 209 208
14.3 -14.8 10.3 205 208 207
14.5 -14.8 10.3 205 208 207
14.7 -14.8 10.2 205 208 207
124.3 -100.1 69.5 207 210 209
125.9 -100.1 69.5 207 210 209
145.2 -107.2 74.5 209 212 211
66.9 -44.6 31.0 195 195 195
64.5 -42.6 29.6 195 195 195
63.6 -25.1 17.4 164 167 166
63.2 -24.8 17.2 160 160 160
63.2 -24.6 17.1 156 156 156
63.6 -24.6 17.1 150 150 150
-14.2 -28.7 20.3 165 165 165
-13.7 -28.6 20.2 159 162 161
-13.3 -28.8 20.3 146 146 146
-12.9 -28.9 20.4 41 41 41
11.4 -14.6 10.3 207 210 209
11.7 -14.5 10.3 207 210 209
11.9 -14.5 10.3 207 210 209
12.8 -14.5 10.2 206 209 208
13.0 -14.5 10.2 206 209 208
13.3 -14.5 10.2 206 209 208
13.5 -14.5 10.2 205 208 207
14.3 -14.5 10.3 205 208 207
14.5 -14.6 10.3 205 208 207
14.7 -14.5 10.2 205 208 207
129.0 -102.3 72.2 207 210 209
126.3 -98.9 69.8 211 211 211
127.0 -98.2 69.3 207 210 209
160.3 -116.5 82.2 214 214 214
67.5 -44.3 31.3 195 195 195
64.3 -41.7 29.5 195 195 195
63.4 -24.5 17.3 160 160 160
63.2 -24.3 17.1 153 155 155
63.1 -24.1 17.0 150 150 150
63.1 -23.9 16.9 143 145 144
-30.2 -15.0 10.7 27 27 27
-26.7 -15.0 10.7 156 156 156
-26.5 -15.0 10.7 142 144 143
-25.7 -15.0 10.7 121 121 121
-25.5 -15.0 10.7 99 99 99
-25.2 -15.0 10.7 202 202 202
-25.0 -15.0 10.7 199 199 199
-24.7 -15.0 10.7 54 54 54
-24.5 -15.0 10.7 45 45 45
-24.2 -15.0 10.7 137 137 137
-24.0 -15.0 10.7 112 112 112
-20.5 -15.0 10.7 66 67 65
-20.2 -14.9 10.7 62 62 62
-20.0 -15.0 10.7 9 14 10
-16.0 -15.0 10.7 115 117 116
-15.8 -15.0 10.7 115 117 116
-15.5 -15.0 10.7 120 120 120
-15.3 -15.0 10.7 89 91 90
-15.0 -15.0 10.7 71 72 70
-14.8 -15.0 10.7 27 27 27
-14.5 -15.0 10.7 31 32 30
-14.3 -15.0 10.7 75 75 75
-13.7 -14.9 10.7 31 32 30
-14.8 -29.4 21.1 182 185 184
-14.1 -29.0 20.8 181 184 183
-13.6 -29.0 20.8 180 180 180
-13.3 -29.4 21.1 115 115 115
11.3 -14.2 10.2 207 210 209
13.5 -14.2 10.2 205 208 207
13.5 -14.0 10.0 205 208 207
14.2 -14.3 10.2 205 208 207
14.4 -14.2 10.2 204 207 206
140.8 -109.8 78.8 207 210 209
138.1 -106.3 76.3 207 210 209
134.9 -102.6 73.6 207 210 209
154.6 -114.6 82.2 208 211 210
157.9 -115.6 83.0 208 211 210
159.1 -115.1 82.6 208 211 210
153.7 -109.8 78.8 208 211 210
68.4 -44.1 31.7 196 196 196
63.4 -24.1 17.3 158 158 158
63.3 -23.9 17.1 154 154 154
63.3 -23.7 17.0 148 148 148
63.1 -23.5 16.9 139 139 139
-14.6 -15.1 11.0 135 135 135
-13.8 -14.7 10.8 30 31 30
-13.4 -14.9 10.8 44 44 44
-15.3 -30.0 21.9 181 181 181
-14.5 -29.4 21.4 180 180 180
-14.0 -29.3 21.4 178 178 178
-13.9 -30.3 22.1 169 171 170
-13.4 -30.2 22.0 34 34 34
12.8 -13.7 10.0 205 208 207
13.5 -13.7 10.0 209 209 209
14.3 -13.9 10.1 204 207 206
14.4 -13.7 10.0 204 207 206
143.9 -108.9 79.5 206 209 208
141.0 -105.4 76.9 207 210 209
167.7 -122.3 89.2 207 210 209
164.9 -117.3 85.6 208 211 210
154.9 -108.9 79.5 208 211 210
69.4 -44.5 32.5 196 196 196
70.5 -44.8 32.7 196 196 196
63.6 -23.6 17.2 154 154 154
63.5 -23.4 17.1 139 141 140
63.1 -23.1 16.9 136 136 136
-15.8 -30.5 22.6 184 184 184
-14.8 -30.4 22.6 173 175 175
-14.2 -30.3 22.5 164 164 164
72.0 -44.9 33.4 196 196 196
-24.9 -13.9 10.5 49 49 49
-24.6 -13.9 10.5 49 49 49
-24.4 -13.9 10.5 25 25 25
-24.1 -13.9 10.5 18 18 18
-23.9 -13.9 10.5 6 11 7
-23.7 -13.9 10.5 126 128 127
-23.4 -13.9 10.5 141 141 141
-15.4 -31.3 23.6 182 182 182
-14.6 -30.7 23.2 150 150 150
371.4 -275.1 207.9 210 210 210
683.8 -481.5 363.8 211 211 211
540.8 -362.9 274.1 212 213 212
366.6 -243.1 183.7 208 211 210
74.4 -26.2 19.8 136 136 136
-24.5 -13.3 10.2 104 103 101
-24.3 -13.3 10.2 47 48 47
-24.1 -13.3 10.2 32 31 30
-23.8 -13.3 10.2 20 23 21
-23.5 -13.3 10.2 18 22 19
-23.4 -13.3 10.3 18 22 19
-23.2 -13.3 10.3 18 22 19
-22.9 -13.3 10.3 27 27 27
-16.7 -32.0 24.6 145 147 147
-15.7 -31.3 24.1 91 93 92
-15.2 -31.4 24.2 89 89 89
-14.7 -31.5 24.3 56 56 56
-14.2 -31.5 24.3 44 44 44
16.0 -13.2 10.2 210 210 210
497.1 -361.7 278.2 210 210 210
402.8 -289.4 222.5 210 210 210
622.0 -410.0 315.3 212 213 212
48.6 -17.4 13.4 141 143 142
73.9 -25.5 19.6 136 136 136
-15.9 -31.0 24.3 84 86 86
-15.4 -31.3 24.5 89 89 89
-14.7 -30.9 24.2 55 55 55
-14.1 -30.8 24.1 115 114 114
15.9 -12.9 10.1 209 209 209
545.2 -389.7 305.1 210 210 210
731.7 -473.7 370.9 212 213 212
48.7 -17.4 13.6 143 145 144
48.6 -17.3 13.5 131 134 133
48.8 -17.2 13.5 131 134 133
49.0 -17.2 13.4 131 134 133
73.3 -24.9 19.5 129 129 129
-15.8 -31.5 25.1 89 91 90
-14.8 -30.6 24.4 74 74 74
-14.2 -30.4 24.3 116 118 117
554.1 -388.8 310.1 209 209 209
397.4 -249.7 199.1 216 216 216
48.9 -17.0 13.6 112 112 112
49.0 -17.0 13.5 118 118 118
49.3 -16.9 13.5 121 121 121
73.4 -24.5 19.5 122 122 122
44.3 -14.6 11.6 130 130 130
-17.8 -33.6 27.3 91 93 92
-16.3 -31.8 25.9 89 91 90
554.1 -381.6 310.1 212 213 212
691.1 -431.1 350.3 216 216 216
49.3 -16.9 13.7 106 108 108
49.2 -16.7 13.6 111 111 111
49.4 -16.7 13.6 112 112 112
50.7 -17.0 13.8 112 112 112
73.6 -24.1 19.6 115 114 114
44.7 -14.5 11.8 115 117 116
44.5 -14.4 11.7 138 138 138
-26.5 -14.0 11.6 19 23 20
-26.3 -14.1 11.7 144 144 144
-20.0 -35.7 29.6 134 134 134
47.9 -23.7 19.7 194 194 194
47.7 -23.4 19.4 163 163 163
49.2 -16.4 13.6 107 107 107
49.4 -16.4 13.6 108 110 110
74.1 -23.8 19.7 100 102 102
45.2 -14.4 11.9 91 94 93
45.0 -14.3 11.8 156 159 158
-23.2 -39.2 33.1 169 169 169
47.1 -22.6 19.1 169 169 169
49.6 -16.1 13.6 105 105 105
45.5 -14.1 11.9 157 157 157
-24.8 -12.2 10.5 98 98 98
-24.3 -12.2 10.5 17 17 17
-24.0 -12.2 10.5 19 23 20
-23.8 -12.2 10.5 98 98 98
-23.5 -12.2 10.5 149 151 151
-23.3 -12.2 10.5 166 166 166
-22.8 -12.2 10.5 164 163 161
-19.1 -12.2 10.5 61 61 61
-18.4 -12.2 10.5 53 53 53
-18.2 -12.2 10.5 53 53 53
-11.3 -12.3 10.6 24 24 24
-23.8 -39.4 34.0 168 168 168
-21.5 -39.5 34.0 94 94 94
15.9 -11.7 10.1 212 213 212
45.2 -21.3 18.3 172 174 174
45.8 -14.0 12.0 153 155 155
-25.1 -12.0 10.6 156 156 156
-24.8 -12.0 10.6 34 34 34
-24.6 -12.0 10.6 132 132 132
-24.3 -12.0 10.6 148 148 148
-24.1 -12.0 10.6 141 141 141
-23.8 -12.0 10.6 137 139 138
-23.6 -12.0 10.6 164 163 161
-23.3 -12.0 10.6 184 184 184
-23.1 -12.0 10.6 178 181 180
-19.2 -12.0 10.6 67 68 66
-18.9 -12.0 10.6 66 66 66
-18.2 -12.0 10.6 63 64 62
-17.9 -12.0 10.6 66 66 66
-17.2 -12.0 10.5 178 178 178
-17.0 -12.0 10.6 222 222 222
-16.5 -12.0 10.6 219 219 219
-16.2 -12.0 10.6 215 215 215
-11.3 -12.0 10.6 31 31 31
-11.1 -12.0 10.5 26 27 25
-10.8 -12.0 10.5 26 27 25
-23.2 -41.9 36.9 95 95 95
-22.7 -42.4 37.3 79 81 80
-22.4 -43.7 38.4 116 118 117
16.0 -11.6 10.2 212 213 212
44.5 -20.6 18.1 170 171 170
46.5 -13.9 12.2 154 156 156
46.9 -13.9 12.2 122 124 123
-22.4 -14.3 12.8 53 52 52
-25.9 -44.2 39.7 95 95 95
-24.7 -43.6 39.2 95 98 97
-24.0 -44.1 39.6 102 102 102
-23.3 -44.5 39.9 14 18 15
16.0 -11.3 10.2 216 216 216
44.2 -20.0 17.9 193 193 193
43.3 -19.4 17.4 115 114 114
46.8 -13.7 12.3 159 159 159
46.9 -13.6 12.2 124 126 125
-25.7 -44.5 40.8 96 99 98
-24.8 -44.6 40.9 103 105 105
-24.1 -45.0 41.2 20 20 20
15.9 -11.0 10.1 216 216 216
42.8 -18.8 17.2 116 116 116
-34.4 -16.3 15.2 6 7 7
-33.9 -16.2 15.2 26 26 26
-33.6 -16.2 15.2 25 25 25
-33.2 -16.2 15.2 18 22 19
-33.0 -16.3 15.3 25 25 25
-32.6 -16.2 15.2 104 103 101
-32.1 -16.2 15.1 123 123 123
-26.9 -45.5 42.6 101 101 101
-26.6 -46.8 43.8 110 110 110
-24.8 -45.3 42.4 8 9 8
16.0 -11.0 10.3 216 216 216
-33.8 -15.8 15.1 37 38 37
-33.5 -15.8 15.2 45 44 43
-28.0 -48.2 46.1 111 111 111
15.9 -10.5 10.1 216 216 216
16.0 -10.5 10.3 212 213 212
15.9 -10.3 10.1 216 216 216
-34.7 -57.0 57.1 110 110 110
-39.6 -73.5 73.6 147 147 147
16.0 -10.3 10.3 217 220 219
16.0 -10.1 10.1 217 220 219
261.4 -144.1 144.4 219 219 219
-37.2 -59.7 61.2 113 115 114
-38.2 -63.8 65.5 43 44 43
-39.4 -71.5 73.3 154 154 154
14.3 -10.0 10.3 217 217 217
14.5 -10.0 10.3 217 217 217
15.6 -10.1 10.3 217 220 219
15.7 -10.0 10.3 217 220 219
16.0 -10.0 10.3 217 220 219
15.9 -9.9 10.1 217 220 219
267.5 -144.1 147.8 219 219 219
-40.3 -63.2 66.4 109 109 109
-39.7 -64.8 68.0 27 27 27
-40.6 -69.0 72.5 22 22 22
-39.7 -70.3 73.9 164 164 164
15.5 -9.8 10.3 217 220 219
15.7 -9.8 10.3 217 220 219
16.0 -9.8 10.3 217 220 219
15.9 -9.6 10.1 217 220 219
-43.2 -68.6 73.9 26 25 24
-41.8 -69.1 74.5 22 22 22
-40.5 -70.0 75.4 167 167 167
15.8 -9.3 10.0 217 220 219
-73.2 -113.4 125.3 26 25 24
-44.4 -71.6 79.1 23 24 23
15.8 -9.1 10.0 217 220 219
493.9 -214.0 236.5 182 182 182
118.5 -48.6 53.7 200 200 200
-85.1 -123.6 140.1 108 108 108
-76.7 -115.9 131.4 32 34 33
-79.8 -125.4 142.2 31 33 33
-80.7 -132.4 150.1 181 181 181
16.1 -9.1 10.4 217 220 219
459.5 -194.0 220.0 174 176 176
341.5 -142.6 161.7 165 165 165
114.3 -45.7 51.8 200 200 200
386.7 -153.1 173.5 200 200 200
-83.1 -122.1 142.2 31 31 31
-94.7 -145.0 168.9 22 22 22
-95.9 -153.2 178.5 177 177 177
-103.5 -172.8 201.2 180 183 182
-98.8 -172.8 201.2 180 183 182
16.0 -8.7 10.1 218 221 220
459.5 -188.9 220.0 182 182 182
344.4 -140.0 163.1 174 176 176
111.8 -43.6 50.7 200 200 200
379.8 -146.3 170.4 200 200 200
-9.5 -9.0 10.7 39 39 39
-9.2 -8.9 10.7 43 43 43
-107.0 -166.4 199.1 164 164 164
-115.8 -188.1 225.2 180 183 182
-114.7 -195.1 233.5 179 182 181
15.9 -8.4 10.1 218 221 220
506.6 -202.6 242.5 179 179 179
112.4 -42.6 51.0 200 200 200
-212.2 -307.3 378.3 23 24 23
-158.9 -240.1 295.6 162 162 162
15.8 -8.2 10.0 220 223 222
541.3 -210.5 259.1 183 183 183
116.5 -42.9 52.8 200 200 200
-35.6 -18.5 23.5 121 121 121
16.0 -8.1 10.3 218 221 220
15.9 -8.0 10.1 218 221 220
122.1 -44.2 56.0 197 197 197
113.4 -40.6 51.4 197 197 197
121.6 -40.1 50.9 204 204 204
125.0 -40.4 51.3 230 230 230
-35.7 -18.1 23.6 183 183 183
16.1 -7.9 10.3 218 221 220
15.9 -7.7 10.1 222 224 224
121.8 -42.7 55.8 195 195 195
113.0 -39.3 51.3 197 197 197
120.2 -39.3 51.3 202 202 202
119.4 -38.6 50.4 207 207 207
120.6 -38.6 50.4 204 204 204
124.4 -39.5 51.5 207 207 207
123.6 -38.8 50.7 229 228 226
118.1 -36.8 48.0 230 229 227
-35.9 -17.6 23.7 143 143 142
-33.3 -16.6 22.3 183 183 183
16.4 -7.8 10.6 217 217 217
122.8 -41.8 56.3 195 195 195
114.0 -38.4 51.7 197 197 197
120.8 -38.3 51.5 202 202 202
118.5 -37.2 50.0 202 202 202
121.3 -37.7 50.7 204 204 204
125.1 -38.5 51.8 198 198 198
124.3 -37.9 51.0 234 234 234
120.9 -36.5 49.1 231 231 231
132.0 -39.5 53.1 100 102 102
-35.6 -16.9 23.5 115 117 116
-32.7 -15.8 22.0 75 76 74
144.3 -48.1 66.8 185 185 185
125.5 -41.4 57.5 192 192 192
117.8 -38.4 53.4 195 195 195
-35.3 -16.2 23.3 132 132 132
-32.7 -15.3 21.9 98 97 95
16.1 -7.2 10.3 222 224 224
15.9 -7.0 10.1 222 224 224
117.2 -32.8 47.2 96 96 96
-35.7 -15.9 23.6 149 149 149
16.1 -7.0 10.3 218 221 220
15.9 -6.8 10.1 222 224 224
17.2 -6.8 10.0 223 225 225
116.4 -31.8 47.3 231 231 231
-257.3 -59.4 91.4 39 39 39
16.1 -6.7 10.4 219 222 221
124.0 -33.0 50.9 230 230 230
110.8 -28.7 44.2 82 82 82
109.5 -28.1 43.3 72 74 74
-222.3 -58.7 93.6 55 55 55
-389.6 -104.8 167.4 67 69 67
-366.3 -99.6 159.0 157 160 159
16.1 -6.5 10.4 219 222 221
117.8 -30.9 49.3 204 204 204
120.5 -31.3 49.9 202 202 202
123.0 -31.6 50.4 230 229 227
111.1 -27.7 44.3 77 77 77
110.8 -27.4 43.8 68 68 68
-444.3 -105.6 175.2 77 79 77
-436.2 -104.7 173.5 170 172 172
-448.6 -108.6 180.2 190 190 190
-453.0 -110.8 183.7 78 80 78
-440.2 -108.6 180.2 75 75 75
-427.9 -106.6 176.8 75 76 76
-412.2 -103.7 172.0 70 72 69
-404.5 -102.8 170.4 71 72 70
-400.6 -102.8 170.4 77 77 77
-435.9 -112.9 187.3 85 86 84
-392.6 -102.8 170.4 175 175 175
16.1 -6.3 10.4 220 223 222
15.9 -6.1 10.1 220 223 222
21.8 -7.1 11.7 220 223 222
120.3 -30.3 50.3 206 206 206
123.4 -30.8 51.1 202 202 202
124.6 -30.8 51.1 232 232 232
180.3 -43.4 71.9 53 53 53
21.9 -6.8 11.8 222 224 224
207.2 -56.2 97.0 145 147 147
126.3 -30.0 51.8 236 236 236
182.4 -42.2 72.8 57 59 59
183.4 -42.0 72.5 60 63 62
21.9 -6.6 11.8 222 224 224
168.0 -43.3 77.8 166 166 166
148.8 -34.6 62.2 204 204 204
146.9 -33.9 60.8 197 197 197
129.5 -29.6 53.1 235 235 235
181.7 -40.3 72.5 72 74 74
202.3 -43.7 78.5 60 62 61
151.8 -37.5 70.3 172 172 172
157.1 -35.0 65.7 204 204 204
129.2 -28.3 53.0 232 232 232
177.6 -37.8 70.8 73 75 75
177.3 -37.4 70.1 67 67 67
25.8 -33.6 65.9 112 112 112
149.6 -35.3 69.3 169 169 169
133.6 -31.2 61.2 185 185 185
155.4 -33.2 65.0 205 205 205
140.1 -29.6 58.0 199 199 199
132.9 -27.8 54.5 224 226 226
174.4 -35.5 69.5 73 75 75
169.7 -34.2 67.1 70 70 70
25.9 -32.2 66.1 101 101 101
149.6 -33.7 69.3 174 176 176
157.2 -32.3 66.4 203 203 203
156.5 -31.9 65.5 205 205 205
155.9 -31.4 64.6 203 203 203
163.7 -32.1 65.9 115 115 115
174.4 -33.9 69.5 60 63 62
171.6 -33.0 67.8 67 67 67
191.7 -36.5 75.1 67 67 67
178.6 -33.7 69.3 63 65 65
170.8 -32.0 65.7 61 64 63
171.7 -31.9 65.5 64 66 66
170.9 -36.7 79.1 154 154 154
156.5 -30.3 65.5 203 203 203
150.2 -28.8 62.2 208 208 208
167.2 -31.2 67.3 120 120 120
183.1 -33.9 73.0 45 45 45
176.0 -32.2 69.5 68 68 68
203.8 -37.0 79.8 68 68 68
170.2 -30.3 65.5 61 64 63
523.3 -83.9 201.2 62 64 64
523.3 -79.3 201.2 61 61 61
439.2 -62.6 168.9 61 61 61
21.5 -3.9 12.9 221 221 221
21.8 -3.9 12.9 221 221 221
22.2 -3.9 12.9 221 221 221
22.4 -3.9 12.9 221 221 221
23.3 -3.9 12.9 221 221 221
23.6 -3.9 12.9 221 221 221
23.9 -3.9 12.9 221 221 221
24.3 -3.9 12.9 221 221 221
24.6 -3.9 12.9 225 225 225
24.8 -3.9 12.9 225 225 225
25.0 -3.9 12.8 221 221 221
24.8 -3.6 12.9 222 222 222
24.5 -3.5 12.6 222 222 222
24.6 -3.5 12.5 222 222 222
24.6 -3.2 12.7 222 222 222
24.5 -3.2 12.6 222 222 222
24.3 -3.1 12.3 222 222 222
24.3 -3.1 12.2 222 222 222
451.3 -44.2 173.5 59 59 59
24.8 -3.0 12.9 224 224 224
24.5 -2.9 12.6 224 224 224
24.3 -2.8 12.3 224 224 224
554.2 -52.1 225.2 228 231 230
491.9 -43.7 189.2 59 59 59
24.8 -2.7 12.9 224 224 224
24.5 -2.6 12.5 224 224 224
24.4 -2.6 12.3 224 224 224
581.9 -49.2 236.5 224 224 224
464.0 -37.1 178.5 67 69 68
24.5 -2.3 12.6 225 225 225
24.4 -2.0 12.5 225 225 225
24.4 -2.0 12.3 225 225 225
431.5 -26.8 165.9 75 76 76
352.0 -21.7 134.2 66 68 67
21.8 -1.6 11.9 222 222 222
22.0 -1.6 11.7 222 222 222
22.3 -1.6 11.7 222 222 222
22.6 -1.6 11.7 222 222 222
23.7 -1.6 11.9 222 222 222
23.6 -1.6 11.7 222 222 222
633.1 -33.9 245.7 71 71 71
455.4 -24.2 175.2 68 70 69
21.4 -1.4 11.8 219 222 221
21.8 -1.4 11.9 224 224 224
21.7 -1.3 11.7 224 224 224
22.0 -1.3 11.7 224 224 224
22.3 -1.3 11.7 224 224 224
22.6 -1.3 11.7 224 224 224
23.6 -1.4 12.0 224 224 224
23.8 -1.4 11.9 224 224 224
23.7 -1.3 11.7 224 224 224
491.9 -21.7 189.2 66 66 66
21.6 -1.1 11.7 225 225 225
21.9 -1.1 11.6 225 225 225
22.2 -1.1 11.7 225 225 225
22.5 -1.1 11.7 225 225 225
23.7 -1.1 11.9 227 227 227
23.5 -1.1 11.6 224 224 224
21.4 -0.8 11.5 220 223 222
21.6 -0.8 11.5 220 223 222
21.9 -0.8 11.5 220 223 222
22.4 -0.8 11.5 220 223 222
23.2 -0.8 11.5 220 223 222
21.3 -0.5 11.5 222 224 224
21.6 -0.5 11.5 222 224 224
21.8 -0.5 11.5 222 224 224
22.4 -0.5 11.5 222 224 224
23.2 -0.5 11.5 220 223 222
21.6 -0.3 11.6 222 224 224
21.8 -0.3 11.6 222 224 224
22.1 -0.3 11.6 222 224 224
23.8 -0.3 11.9 222 224 224
23.4 -0.3 11.6 222 224 224
20.3 0.0 11.8 220 223 222
21.7 0.0 11.9 223 225 225
21.9 0.0 11.8 223 225 225
22.0 0.0 11.7 223 225 225
22.3 0.0 11.7 223 225 225
23.7 0.0 11.9 220 223 222
23.7 0.0 11.7 220 223 222
23.8 0.3 11.9 223 225 225
994.9 9.5 386.0 47 46 45
24.2 0.6 12.3 222 224 224
24.1 0.6 12.1 222 224 224
97.0 1.2 26.1 89 89 89
94.1 1.2 25.2 86 86 86
92.8 1.2 24.7 86 86 86
24.1 0.9 12.3 223 225 225
24.2 0.9 12.3 223 225 225
23.9 0.8 12.0 223 225 225
93.9 1.8 25.1 87 87 87
89.2 1.7 23.7 90 90 90
24.3 1.2 12.4 224 224 224
24.3 1.2 12.3 224 224 224
23.8 1.1 11.9 224 226 226
87.3 2.2 23.2 91 91 91
84.1 2.1 22.2 91 91 91
24.5 1.5 12.6 225 225 225
83.3 2.6 22.3 88 88 88
84.7 2.6 22.5 92 92 92
84.1 2.6 22.2 88 88 88
83.8 2.6 22.0 163 163 163
86.1 3.2 22.9 89 89 89
84.8 3.2 22.4 96 99 98
-102.2 33.2 59.3 92 92 92
-96.8 32.7 58.6 109 111 111
-92.9 31.9 57.0 118 118 118
-79.1 32.7 58.6 115 114 114
-76.6 32.8 58.7 115 114 114
-72.8 31.8 56.8 125 125 125
-70.8 31.5 56.3 236 236 236
-61.6 29.0 51.8 228 231 230
-59.1 28.4 50.7 229 232 231
-68.4 33.5 59.9 178 181 180
-65.2 33.3 59.5 90 92 91
-123.3 36.7 63.1 118 118 118
-105.0 36.5 62.6 115 114 114
-102.2 36.0 61.8 128 128 128
-97.9 35.0 60.1 134 136 135
-89.3 37.2 63.9 91 91 91
-85.8 36.4 62.4 91 91 91
-84.1 36.2 62.2 80 83 82
-81.4 36.4 62.4 85 85 85
-77.4 37.2 63.9 226 226 226
-73.7 36.8 63.3 39 41 41
-71.1 36.2 62.2 70 70 70
-69.6 36.2 62.2 69 69 69
-68.8 36.6 62.8 69 69 69
-67.4 36.6 62.8 67 67 67
-127.7 45.9 70.3 123 125 124
-72.4 46.0 70.6 129 129 129
-47.6 45.9 70.3 91 93 92
-45.3 45.2 69.3 68 71 70
-34.8 46.2 70.8 132 132 132
-32.7 45.5 69.8 206 209 208
37.2 43.7 67.1 19 19 19
40.1 45.2 69.3 58 58 58
27.5 18.3 11.1 128 130 129
27.6 18.2 11.0 119 121 120
