ply
format ascii 1.0
element vertex 2976
property float x
property float y
property float z
property uchar red
property uchar green
property uchar blue
end_header
102.7 -168.3 67.1 157 160 159
105.4 -170.1 67.8 157 160 159
107.7 -171.3 68.3 158 161 160
108.9 -170.7 68.0 155 158 157
109.7 -169.5 67.6 156 159 158
52.3 -74.4 29.6 158 161 160
52.7 -74.0 29.5 158 161 160
53.8 -74.6 29.7 158 161 160
54.4 -74.5 29.7 158 158 158
47.9 -183.7 73.9 162 162 162
49.6 -183.7 73.9 162 162 162
51.3 -183.7 73.9 160 160 160
53.0 -183.7 73.9 163 163 163
54.7 -183.7 73.9 166 166 166
56.5 -183.7 73.9 166 166 166
58.2 -183.7 73.9 166 166 166
59.9 -183.7 73.9 166 166 166
61.6 -183.7 73.9 166 166 166
63.3 -183.7 73.9 166 166 166
65.0 -183.7 73.9 166 166 166
66.8 -183.7 73.9 167 167 167
68.5 -183.7 73.9 167 167 167
70.2 -183.7 73.9 167 167 167
171.4 -427.5 172.0 165 165 165
75.4 -183.7 73.9 165 165 165
76.5 -182.3 73.3 165 165 165
78.5 -183.0 73.6 165 165 165
79.9 -182.3 73.3 165 165 165
82.2 -183.7 73.9 165 165 165
83.9 -183.7 73.9 163 163 163
85.7 -183.7 73.9 163 163 163
87.4 -183.7 73.9 163 163 163
89.1 -183.7 73.9 163 163 163
90.8 -183.7 73.9 163 163 163
215.3 -427.5 172.0 164 164 164
94.6 -184.4 74.2 164 164 164
96.0 -183.7 73.9 164 164 164
96.5 -181.6 73.0 164 164 164
259.6 -479.8 193.0 164 164 164
106.3 -183.7 73.9 162 162 162
109.7 -186.6 75.1 162 162 162
111.4 -186.6 75.1 162 162 162
110.1 -181.6 73.0 157 160 159
111.8 -181.6 73.0 157 160 159
113.1 -180.9 72.8 157 160 159
116.1 -183.0 73.6 158 161 160
118.3 -183.7 73.9 158 161 160
116.8 -178.8 71.9 158 161 160
53.2 -75.0 30.2 158 161 160
53.3 -74.2 29.8 158 161 160
111.8 -84.3 33.9 104 103 101
111.2 -83.2 33.5 104 103 101
77.7 -56.2 22.6 98 100 100
61.5 -41.4 16.7 196 199 198
61.9 -41.4 16.7 196 196 196
61.6 -40.9 16.5 154 154 154
68.0 -180.6 73.3 169 171 170
69.7 -180.6 73.3 164 164 164
74.5 -179.9 73.0 165 165 165
77.3 -178.5 72.5 165 165 165
83.0 -179.9 73.0 165 165 165
84.7 -179.9 73.0 166 166 166
86.7 -180.6 73.3 166 166 166
88.1 -179.9 73.0 163 163 163
89.4 -179.2 72.8 163 163 163
94.2 -182.0 73.9 164 164 164
94.9 -179.9 73.0 164 164 164
104.6 -179.2 72.8 167 167 167
111.0 -184.1 74.8 162 162 162
108.0 -176.4 71.7 162 162 162
112.7 -178.5 72.5 162 162 162
115.2 -179.9 73.0 163 163 163
117.4 -180.6 73.3 163 163 163
111.7 -169.4 68.8 163 163 163
53.5 -74.8 30.4 160 163 162
53.6 -73.8 30.0 158 161 160
107.4 -80.2 32.6 104 103 101
106.1 -78.7 32.0 105 105 105
106.0 -78.0 31.7 105 105 105
74.9 -53.7 21.8 98 100 100
73.4 -52.2 21.2 95 98 97
73.3 -51.8 21.0 95 98 97
62.5 -41.4 16.8 207 207 207
61.6 -40.6 16.5 162 165 164
61.7 -40.4 16.4 162 162 162
62.2 -40.5 16.4 218 218 218
62.5 -40.4 16.4 193 193 193
51.3 -114.8 47.1 165 165 165
63.7 -124.0 50.9 166 166 166
71.0 -131.1 53.7 167 167 167
125.9 -194.7 79.8 166 166 166
127.8 -194.7 79.8 166 166 166
54.7 -74.7 30.6 161 164 163
58.0 -78.2 32.1 161 164 163
102.3 -75.2 30.8 104 103 101
99.8 -72.8 29.8 104 103 101
71.5 -50.4 20.7 95 95 95
62.0 -39.7 16.3 204 204 204
62.7 -39.9 16.4 218 218 218
30.6 -118.4 49.0 166 169 168
44.9 -123.2 51.0 166 166 166
46.0 -120.0 49.6 167 167 167
53.1 -120.3 49.8 165 165 165
51.1 -113.4 46.9 163 163 163
54.1 -117.5 48.6 165 165 165
58.6 -122.2 50.6 166 166 166
58.2 -119.0 49.3 166 166 166
65.9 -129.5 53.6 168 168 168
61.7 -119.0 49.3 168 168 168
60.8 -115.1 47.6 166 166 166
68.0 -124.2 51.4 167 167 167
65.8 -118.1 48.9 169 169 169
58.0 -90.1 37.3 168 168 168
129.7 -198.7 82.2 169 169 169
133.4 -201.3 83.3 169 169 169
128.0 -190.4 78.8 166 166 166
94.1 -68.0 28.1 98 100 100
69.4 -48.5 20.1 95 98 97
69.1 -47.9 19.8 95 98 97
59.4 -37.7 15.6 216 216 216
59.7 -37.6 15.6 216 216 216
27.4 -104.8 43.8 166 169 168
28.0 -103.6 43.3 166 169 168
28.3 -101.0 42.2 166 169 168
35.4 -101.5 42.4 166 166 166
36.4 -101.5 42.4 166 166 166
37.1 -100.8 42.1 166 166 166
40.1 -101.0 42.2 167 167 167
41.1 -101.0 42.2 167 167 167
42.9 -103.1 43.1 167 167 167
43.3 -101.5 42.4 167 167 167
44.2 -101.5 42.4 167 167 167
47.7 -107.0 44.7 168 168 168
46.4 -101.9 42.6 168 168 168
47.0 -101.0 42.2 168 168 168
48.0 -101.0 42.2 168 168 168
50.6 -104.5 43.7 168 168 168
50.6 -100.4 41.9 168 168 168
56.5 -108.0 45.1 171 173 173
53.9 -101.0 42.2 171 173 173
53.8 -99.0 41.4 171 173 173
59.3 -105.5 44.1 171 173 173
138.8 -210.5 88.0 172 172 172
138.9 -207.6 86.8 172 172 172
89.8 -63.8 26.7 98 100 100
68.0 -47.0 19.6 95 98 97
64.6 -44.4 18.5 95 95 95
23.6 -101.0 42.6 166 169 168
24.5 -100.5 42.4 166 169 168
25.8 -101.6 42.9 166 169 168
26.7 -101.4 42.8 166 169 168
27.7 -101.2 42.7 166 169 168
28.3 -99.8 42.1 166 169 168
29.6 -101.0 42.6 166 169 168
31.6 -101.2 42.7 166 166 166
34.5 -101.0 42.6 168 170 169
35.2 -100.1 42.2 168 170 169
39.5 -101.0 42.6 169 171 170
40.1 -100.1 42.2 169 171 170
43.4 -101.0 42.6 169 171 170
46.3 -102.8 43.4 169 171 170
46.0 -100.1 42.2 170 172 172
46.8 -99.6 42.0 173 175 175
50.4 -101.0 42.6 170 172 172
54.1 -102.3 43.2 171 173 173
53.5 -99.4 41.9 171 173 173
57.6 -103.3 43.6 171 173 173
58.1 -102.3 43.2 174 176 176
58.2 -100.7 42.5 171 173 173
59.6 -101.4 42.8 174 176 176
61.1 -102.3 43.2 174 176 176
62.8 -103.5 43.7 171 173 173
129.4 -191.6 80.8 172 172 172
125.4 -183.0 77.2 173 175 175
63.2 -43.0 18.1 95 95 95
62.5 -42.2 17.8 92 92 92
46.7 -84.4 36.0 183 183 183
53.9 -92.5 39.4 179 179 179
142.8 -212.4 90.5 183 183 183
137.6 -201.7 86.0 176 179 178
170.7 -246.6 105.1 183 183 183
177.1 -252.2 107.5 183 183 183
164.6 -231.2 98.5 174 176 176
43.9 -78.6 33.8 197 197 197
43.5 -76.4 32.9 200 200 200
48.0 -78.8 33.9 200 200 200
47.3 -76.4 32.9 200 200 200
47.7 -75.8 32.6 200 200 200
189.7 -283.5 122.0 197 197 197
143.5 -211.3 90.9 198 198 198
138.9 -201.6 86.8 202 202 202
140.9 -201.6 86.8 202 202 202
177.1 -249.7 107.5 203 203 203
171.7 -238.8 102.8 203 203 203
158.6 -217.5 93.6 203 203 203
408.1 -311.7 134.2 112 114 113
71.0 -49.3 21.2 104 103 101
71.2 -49.1 21.1 98 100 100
69.9 -47.9 20.6 98 100 100
42.5 -26.1 11.2 207 207 207
42.5 -25.9 11.2 218 218 218
42.6 -25.8 11.1 218 218 218
23.1 -69.4 30.2 199 199 199
41.3 -71.9 31.3 204 204 204
40.7 -69.6 30.3 204 204 204
42.2 -69.7 30.3 204 204 204
45.5 -72.7 31.6 204 204 204
44.7 -70.4 30.6 204 204 204
44.6 -69.1 30.0 204 204 204
141.4 -206.2 89.7 205 205 205
137.6 -197.7 86.0 205 205 205
137.2 -194.2 84.4 205 205 205
172.2 -240.4 104.5 205 205 205
169.0 -232.6 101.2 206 206 206
153.3 -208.2 90.5 206 206 206
324.4 -247.2 107.5 119 119 119
334.5 -252.9 110.0 116 116 116
298.9 -224.2 97.5 116 116 116
69.5 -47.8 20.8 105 105 105
68.6 -46.9 20.4 104 103 101
68.7 -46.6 20.3 104 103 101
67.4 -45.4 19.7 104 103 101
42.6 -25.9 11.3 173 173 173
42.2 -25.5 11.1 216 216 216
23.0 -70.7 31.1 203 203 203
41.1 -70.7 31.1 206 206 206
40.8 -69.1 30.4 206 206 206
42.2 -70.1 30.8 206 206 206
41.9 -68.6 30.1 206 206 206
45.2 -71.5 31.4 206 206 206
44.9 -69.9 30.7 206 206 206
44.6 -68.5 30.1 209 209 209
43.6 -65.8 28.9 206 206 206
138.8 -200.3 88.0 205 205 205
133.4 -189.7 83.3 205 205 205
130.2 -182.5 80.2 205 205 205
147.0 -203.1 89.2 205 205 205
161.2 -219.7 96.5 206 206 206
149.7 -201.2 88.4 206 206 206
127.4 -168.9 74.2 208 208 208
319.0 -240.6 105.7 121 121 121
321.5 -240.6 105.7 121 121 121
297.3 -220.8 97.0 119 119 119
66.3 -44.8 19.7 104 103 101
65.2 -43.8 19.2 105 105 105
41.7 -24.8 10.9 218 218 218
22.9 -69.6 30.9 206 206 206
23.1 -68.1 30.2 206 206 206
23.9 -68.3 30.3 206 206 206
24.5 -68.2 30.3 206 206 206
25.2 -68.2 30.3 206 206 206
26.0 -68.4 30.4 206 206 206
26.7 -68.3 30.3 206 206 206
27.4 -68.3 30.3 206 206 206
28.2 -68.5 30.4 206 206 206
28.8 -68.3 30.3 206 206 206
33.0 -68.2 30.3 206 206 206
33.5 -67.9 30.1 206 206 206
34.4 -68.3 30.3 206 206 206
36.4 -68.1 30.2 206 206 206
40.8 -69.5 30.9 206 206 206
40.6 -68.1 30.2 206 206 206
41.8 -68.7 30.5 206 206 206
42.1 -68.1 30.2 206 206 206
44.9 -70.3 31.2 206 206 206
44.9 -69.3 30.8 206 206 206
44.9 -68.1 30.2 206 206 206
44.6 -66.6 29.6 206 206 206
142.8 -203.9 90.5 207 207 207
134.0 -188.6 83.7 207 207 207
125.9 -174.7 77.5 205 205 205
162.9 -219.7 97.5 208 208 208
157.1 -208.9 92.7 206 206 206
356.9 -266.4 118.2 126 128 127
332.6 -246.4 109.3 126 128 127
302.0 -222.0 98.5 124 124 124
69.4 -46.8 20.8 110 110 110
66.1 -44.2 19.6 108 108 108
64.7 -43.0 19.1 108 108 108
22.6 -65.9 29.6 208 208 208
24.0 -65.9 29.6 208 208 208
26.0 -65.9 29.6 208 208 208
26.7 -66.0 29.6 208 208 208
27.9 -65.6 29.4 208 208 208
28.6 -65.5 29.4 208 208 208
32.1 -65.7 29.5 208 208 208
33.6 -65.9 29.6 206 206 206
34.0 -65.4 29.3 206 206 206
40.0 -67.5 30.3 206 206 206
39.8 -66.0 29.6 208 208 208
40.8 -65.4 29.3 208 208 208
44.2 -68.5 30.7 209 209 209
44.4 -67.7 30.4 206 206 206
44.2 -66.3 29.7 206 206 206
43.6 -64.5 28.9 206 206 206
44.0 -64.1 28.7 204 204 204
135.2 -188.3 84.4 206 206 206
128.5 -176.5 79.1 207 207 207
27.1 -34.2 15.4 207 207 207
27.0 -33.7 15.1 207 207 207
27.1 -33.4 15.0 207 207 207
405.0 -299.2 134.2 133 133 133
371.2 -272.2 122.0 130 130 130
323.9 -235.7 105.7 126 129 128
22.4 -64.7 29.3 207 207 207
23.9 -65.0 29.5 207 207 207
24.5 -64.7 29.3 207 207 207
25.1 -64.6 29.3 208 208 208
25.9 -64.8 29.4 210 210 210
26.7 -65.1 29.5 208 208 208
27.3 -64.9 29.4 208 208 208
27.9 -64.7 29.3 208 208 208
28.3 -64.2 29.1 208 208 208
32.0 -64.8 29.4 208 208 208
32.6 -64.6 29.3 208 208 208
33.4 -64.9 29.4 208 208 208
33.9 -64.6 29.3 208 208 208
34.7 -64.8 29.4 208 208 208
35.4 -64.8 29.4 208 208 208
39.3 -65.6 29.7 208 208 208
39.5 -64.8 29.4 208 208 208
40.8 -65.7 29.8 208 208 208
40.8 -64.7 29.3 208 208 208
42.1 -65.6 29.7 208 208 208
43.3 -66.4 30.1 208 208 208
43.9 -66.3 30.0 208 208 208
43.9 -65.2 29.6 208 208 208
43.6 -63.8 28.9 205 205 205
44.0 -63.3 28.7 205 205 205
136.4 -188.0 85.2 206 206 206
129.1 -175.4 79.5 206 206 206
164.6 -217.4 98.5 207 207 207
153.3 -199.7 90.5 207 207 207
27.2 -34.1 15.4 208 208 208
27.1 -33.5 15.2 206 206 206
27.0 -32.9 14.9 207 207 207
22.0 -63.0 28.8 207 207 207
21.6 -60.0 27.5 207 207 207
23.3 -60.9 27.9 207 207 207
23.6 -60.2 27.6 210 210 210
27.4 -60.0 27.5 207 207 207
29.0 -60.7 27.8 207 207 207
29.3 -60.0 27.5 207 207 207
33.5 -63.1 28.9 207 207 207
32.4 -59.9 27.4 207 207 207
34.5 -62.5 28.6 207 207 207
34.5 -61.3 28.1 207 207 207
38.0 -61.7 28.3 207 207 207
39.8 -63.5 29.1 207 207 207
39.9 -62.7 28.7 207 207 207
39.1 -60.3 27.6 207 207 207
42.7 -64.8 29.7 207 207 207
42.9 -64.0 29.3 207 207 207
43.1 -63.4 29.1 208 208 208
42.7 -61.8 28.3 208 208 208
42.4 -60.5 27.7 208 208 208
42.4 -59.6 27.3 208 208 208
42.7 -59.1 27.1 208 208 208
129.1 -173.6 79.5 208 208 208
173.6 -227.0 103.9 206 206 206
149.7 -193.0 88.4 206 206 206
27.1 -33.2 15.2 208 208 208
26.7 -32.2 14.7 206 206 206
25.9 -30.9 14.1 206 206 206
14.2 -60.4 27.9 207 207 207
14.7 -59.7 27.7 207 207 207
15.4 -59.8 27.7 207 207 207
16.0 -59.8 27.7 209 209 209
16.7 -59.8 27.7 209 209 209
17.2 -59.7 27.6 209 209 209
18.2 -60.5 28.0 209 209 209
18.8 -60.4 27.9 209 209 209
21.4 -60.5 28.0 209 209 209
21.7 -59.7 27.6 209 209 209
22.5 -60.1 27.8 209 209 209
23.2 -60.0 27.8 209 209 209
23.7 -59.8 27.7 210 210 210
24.5 -60.1 27.8 210 210 210
25.1 -59.9 27.7 210 210 210
25.7 -60.0 27.8 207 207 207
26.5 -60.2 27.9 207 207 207
27.1 -60.2 27.9 207 207 207
27.6 -59.8 27.7 207 207 207
28.5 -60.3 27.9 210 210 210
28.9 -59.9 27.7 207 207 207
29.4 -59.7 27.6 207 207 207
30.4 -60.2 27.9 207 207 207
31.0 -60.2 27.9 207 207 207
31.8 -60.5 28.0 207 207 207
32.4 -60.5 28.0 207 207 207
32.6 -59.6 27.6 207 207 207
33.7 -60.5 28.0 207 207 207
34.3 -60.3 27.9 207 207 207
34.7 -59.9 27.7 207 207 207
35.3 -59.8 27.7 207 207 207
35.9 -59.7 27.6 207 207 207
37.0 -60.5 28.0 207 207 207
37.8 -60.7 28.1 207 207 207
38.0 -60.0 27.8 207 207 207
39.2 -60.8 28.1 207 207 207
39.2 -59.8 27.7 207 207 207
39.9 -60.0 27.8 207 207 207
42.0 -62.1 28.7 207 207 207
42.4 -61.7 28.6 207 207 207
42.4 -60.8 28.1 207 207 207
42.7 -60.3 27.9 207 207 207
42.7 -59.4 27.5 207 207 207
43.1 -59.1 27.3 207 207 207
44.4 -59.9 27.7 208 208 208
45.6 -60.7 28.1 208 208 208
-29.6 -22.4 10.5 47 48 47
-29.5 -22.5 10.6 47 48 47
-29.2 -22.5 10.6 47 48 47
-29.0 -22.5 10.6 46 46 44
-28.7 -22.5 10.6 46 45 43
-28.5 -22.5 10.6 47 48 47
-28.2 -22.5 10.6 50 50 50
-28.0 -22.5 10.6 47 48 47
-27.7 -22.5 10.6 47 48 47
-27.5 -22.5 10.6 47 48 47
-27.3 -22.5 10.6 47 48 47
-27.0 -22.5 10.6 42 43 42
-26.8 -22.5 10.6 46 45 43
-26.5 -22.5 10.6 46 45 43
-26.3 -22.5 10.6 46 45 43
-26.0 -22.5 10.6 46 45 43
-25.8 -22.5 10.6 46 45 43
-25.5 -22.5 10.6 42 43 42
-25.3 -22.5 10.6 42 43 42
-25.0 -22.5 10.6 40 40 40
-24.8 -22.5 10.6 42 42 42
-24.6 -22.5 10.6 40 40 40
-24.3 -22.5 10.6 40 40 40
-24.1 -22.5 10.6 42 42 42
-23.8 -22.5 10.6 40 40 40
-23.6 -22.5 10.6 40 40 40
-23.3 -22.5 10.6 40 40 40
-23.1 -22.5 10.6 42 42 42
-22.8 -22.5 10.6 40 40 40
-22.6 -22.5 10.6 42 42 42
-22.3 -22.5 10.6 45 44 43
-22.1 -22.6 10.6 47 47 47
-21.9 -22.5 10.6 51 51 51
-21.6 -22.5 10.5 50 50 50
-21.4 -22.6 10.6 64 64 64
-21.1 -22.5 10.6 79 79 79
-20.9 -22.5 10.6 84 84 84
-20.7 -22.6 10.6 94 94 94
-20.4 -22.6 10.6 95 98 97
-20.1 -22.5 10.5 101 101 101
-19.9 -22.5 10.5 105 105 105
-19.6 -22.5 10.6 105 105 105
-19.4 -22.5 10.6 104 104 104
-19.2 -22.5 10.6 106 106 106
-18.9 -22.5 10.5 106 106 106
-18.6 -22.5 10.5 107 109 109
-18.4 -22.5 10.5 106 108 108
-18.1 -22.5 10.5 106 108 108
-17.9 -22.6 10.6 106 108 108
-17.7 -22.6 10.6 108 110 110
-17.4 -22.5 10.6 108 110 110
-17.2 -22.5 10.5 112 112 112
-16.9 -22.5 10.5 113 114 113
-16.7 -22.5 10.6 113 114 113
-16.5 -22.6 10.6 115 115 115
-16.2 -22.5 10.5 117 117 117
-15.9 -22.5 10.5 116 116 116
-15.8 -22.6 10.6 118 120 119
-15.5 -22.6 10.6 119 121 120
-15.2 -22.5 10.5 119 121 120
-15.0 -22.5 10.5 119 121 120
-14.7 -22.5 10.5 119 121 120
-14.5 -22.6 10.6 122 122 122
-14.2 -22.5 10.5 122 122 122
-13.9 -22.4 10.5 122 122 122
-13.7 -22.5 10.5 121 121 121
-13.5 -22.5 10.6 124 124 124
-9.6 -22.6 10.6 136 136 136
-9.3 -22.5 10.5 138 140 139
-9.1 -22.6 10.6 139 138 137
-8.9 -22.6 10.6 139 139 139
-8.6 -22.6 10.6 140 142 141
-8.4 -22.5 10.6 140 142 141
-8.1 -22.4 10.5 140 142 141
-7.6 -22.5 10.5 141 141 141
-7.4 -22.5 10.6 144 144 144
-7.1 -22.6 10.6 143 145 144
-6.9 -22.6 10.6 145 145 144
-6.6 -22.5 10.5 148 148 148
-6.4 -22.4 10.5 150 152 152
-5.9 -22.6 10.6 158 161 160
-5.7 -22.5 10.5 164 164 164
-5.4 -22.5 10.5 165 165 165
-5.2 -22.6 10.6 163 163 163
-4.9 -22.6 10.6 163 166 165
-4.7 -22.5 10.6 161 164 163
-4.4 -22.5 10.6 167 167 167
-4.2 -22.5 10.6 168 168 168
-4.0 -22.6 10.6 165 165 165
-3.7 -22.6 10.6 168 168 168
-3.5 -22.6 10.6 167 167 167
-3.2 -22.5 10.6 171 173 173
-3.0 -22.5 10.6 171 173 173
-2.7 -22.5 10.6 171 173 173
-2.5 -22.5 10.6 171 173 173
-2.2 -22.5 10.6 174 176 176
-2.0 -22.5 10.6 173 175 175
-1.7 -22.5 10.6 178 178 178
-1.5 -22.6 10.6 177 177 177
-1.3 -22.5 10.5 177 177 177
-1.0 -22.5 10.6 177 177 177
-0.8 -22.5 10.6 177 177 177
-0.5 -22.5 10.5 177 177 177
-0.3 -22.5 10.5 179 179 179
-0.0 -22.5 10.5 179 179 179
0.2 -22.5 10.5 179 179 179
0.5 -22.5 10.5 179 179 179
0.7 -22.5 10.5 179 179 179
0.9 -22.5 10.5 181 181 181
1.2 -22.6 10.6 181 181 181
1.4 -22.6 10.6 178 178 178
1.7 -22.6 10.6 180 180 180
1.9 -22.5 10.6 178 178 178
4.4 -22.6 10.6 185 185 185
4.6 -22.5 10.6 185 185 185
35.1 -64.7 30.3 206 206 206
36.8 -65.3 30.6 206 206 206
45.5 -66.5 31.1 206 206 206
45.3 -65.2 30.5 206 206 206
46.0 -65.2 30.5 206 206 206
44.0 -61.4 28.7 206 206 206
43.3 -59.5 27.9 207 207 207
45.9 -60.4 28.3 207 207 207
27.8 -33.7 15.8 206 206 206
27.3 -32.6 15.3 206 206 206
27.1 -32.0 15.0 207 207 207
-31.6 -23.7 11.2 48 48 48
-31.3 -23.7 11.2 48 48 48
-31.1 -23.7 11.2 48 48 48
-30.8 -23.7 11.2 51 51 51
-30.6 -23.7 11.2 48 48 48
-30.3 -23.7 11.2 48 48 48
-30.0 -23.7 11.2 51 51 51
-29.8 -23.7 11.2 53 52 52
-29.5 -23.7 11.2 48 48 48
-29.3 -23.7 11.2 51 51 51
-29.0 -23.7 11.2 48 48 48
-28.7 -23.7 11.2 48 48 48
-28.5 -23.7 11.2 48 48 48
-28.2 -23.7 11.2 46 46 44
-28.0 -23.7 11.2 46 46 44
-27.7 -23.7 11.2 46 46 44
-27.4 -23.7 11.2 46 46 44
-27.2 -23.7 11.2 43 43 43
-26.9 -23.7 11.2 43 43 43
-26.6 -23.7 11.2 43 43 43
-26.4 -23.7 11.2 43 43 43
-26.1 -23.7 11.2 38 38 38
-25.9 -23.7 11.2 41 41 41
-25.6 -23.7 11.2 41 41 41
-25.3 -23.7 11.2 41 41 41
-25.1 -23.7 11.2 41 41 41
-24.8 -23.7 11.2 41 41 41
-24.6 -23.7 11.2 41 41 41
-24.3 -23.7 11.2 41 41 41
-24.0 -23.7 11.2 42 43 42
-23.8 -23.7 11.2 43 43 43
-23.5 -23.7 11.2 43 43 43
-23.3 -23.8 11.3 43 43 43
-23.0 -23.7 11.2 43 43 43
-22.7 -23.7 11.2 47 48 47
-22.3 -23.8 11.3 49 49 49
-21.9 -23.7 11.2 69 69 69
-21.7 -23.7 11.2 87 89 88
-21.4 -23.7 11.2 88 90 89
-21.2 -23.7 11.2 92 92 92
-20.9 -23.7 11.2 96 99 98
-20.2 -23.8 11.2 102 102 102
-19.9 -23.8 11.3 102 102 102
-19.7 -23.8 11.3 103 103 103
-19.4 -23.7 11.2 103 103 103
-19.1 -23.7 11.2 105 105 105
-18.8 -23.7 11.2 107 107 107
-18.3 -23.8 11.2 107 109 109
-18.1 -23.8 11.2 107 109 109
-17.8 -23.8 11.2 107 109 109
-17.6 -23.8 11.3 109 111 111
-17.3 -23.8 11.3 109 111 111
-15.6 -23.6 11.2 119 121 120
-15.4 -23.7 11.2 119 121 120
-14.9 -23.7 11.2 119 121 120
-10.5 -23.7 11.2 131 134 133
-10.2 -23.7 11.2 134 134 134
-9.7 -23.7 11.2 134 137 136
-9.4 -23.8 11.2 134 136 135
-9.2 -23.7 11.2 137 137 137
-8.9 -23.8 11.3 140 142 141
-8.7 -23.8 11.2 140 142 141
-8.4 -23.7 11.2 144 144 144
-8.1 -23.6 11.2 146 146 146
-7.9 -23.8 11.3 144 146 146
-7.1 -23.8 11.3 151 153 153
-6.8 -23.8 11.3 158 161 160
-6.6 -23.7 11.2 164 164 164
-6.3 -23.7 11.2 167 167 167
-6.0 -23.8 11.2 166 169 168
-5.8 -23.7 11.2 165 168 167
-5.5 -23.7 11.2 166 169 168
-5.3 -23.7 11.2 172 172 172
-5.0 -23.7 11.2 173 173 173
-4.7 -23.7 11.2 174 176 176
-4.5 -23.7 11.2 176 179 178
-4.2 -23.7 11.2 175 177 177
-3.9 -23.7 11.2 181 181 181
-3.7 -23.7 11.2 177 177 177
-3.4 -23.7 11.2 180 180 180
-3.2 -23.7 11.2 182 182 182
-2.9 -23.7 11.2 185 185 185
-2.6 -23.7 11.2 182 182 182
-2.4 -23.8 11.2 182 182 182
-2.1 -23.8 11.2 182 182 182
-1.9 -23.7 11.2 181 181 181
-1.6 -23.7 11.2 181 181 181
-1.3 -23.8 11.3 181 181 181
-1.1 -23.7 11.2 181 181 181
-0.8 -23.8 11.2 179 179 179
-0.6 -23.8 11.3 181 181 181
-0.3 -23.7 11.2 181 181 181
0.2 -23.8 11.3 180 180 180
0.5 -23.8 11.2 180 180 180
0.8 -23.8 11.2 180 180 180
1.0 -23.8 11.2 180 180 180
1.3 -23.8 11.2 180 180 180
1.5 -23.8 11.3 180 180 180
1.8 -23.8 11.3 182 182 182
2.1 -23.8 11.3 182 182 182
2.3 -23.8 11.3 182 182 182
12.0 -23.7 11.2 206 206 206
13.6 -23.8 11.3 211 211 211
42.8 -69.7 33.0 209 209 209
43.0 -68.7 32.5 209 209 209
44.6 -68.8 32.6 209 209 209
46.5 -69.5 32.9 209 209 209
47.1 -69.3 32.8 209 209 209
46.7 -67.5 32.0 206 206 206
46.4 -66.1 31.3 206 206 206
47.0 -65.9 31.2 206 206 206
47.4 -65.4 31.0 206 206 206
41.4 -55.5 26.3 206 206 206
54.8 -71.3 33.7 207 207 207
54.6 -70.0 33.1 207 207 207
54.5 -68.9 32.6 207 207 207
54.4 -67.9 32.1 207 207 207
56.7 -69.8 33.0 207 207 207
57.3 -69.5 32.9 205 205 205
27.8 -33.4 15.8 205 205 205
27.5 -32.5 15.4 206 206 206
-32.0 -23.8 11.4 49 49 49
-25.1 -24.0 11.5 36 37 36
-24.8 -24.0 11.5 42 42 42
-28.9 -28.5 13.6 42 42 42
-28.4 -28.3 13.6 40 40 40
-22.8 -24.1 11.5 44 44 44
-21.9 -24.0 11.5 44 44 44
-25.9 -28.7 13.7 80 80 80
-20.5 -24.3 11.6 97 97 97
-23.4 -28.5 13.6 99 101 101
-18.7 -23.9 11.5 103 103 103
-18.4 -24.0 11.5 103 103 103
-17.9 -24.0 11.5 108 108 108
-17.6 -24.0 11.5 108 108 108
-15.5 -23.6 11.3 115 114 114
-9.5 -23.6 11.3 133 133 133
-9.2 -23.6 11.3 136 136 136
-9.0 -23.8 11.4 137 137 137
-8.8 -23.8 11.4 156 156 156
-6.9 -23.8 11.4 170 172 172
-6.2 -24.0 11.5 168 170 169
12.0 -24.0 11.5 208 208 208
43.0 -69.3 33.1 208 208 208
43.2 -68.3 32.7 208 208 208
44.2 -68.7 32.8 208 208 208
44.9 -68.7 32.8 208 208 208
45.6 -68.5 32.8 208 208 208
46.9 -69.3 33.1 208 208 208
47.4 -68.9 33.0 208 208 208
47.3 -67.7 32.4 205 205 205
47.1 -66.4 31.7 205 205 205
47.9 -66.5 31.8 205 205 205
41.2 -54.5 26.1 206 206 206
41.3 -53.9 25.8 206 206 206
54.7 -69.4 33.2 206 206 206
55.3 -69.3 33.1 207 207 207
55.1 -68.1 32.6 207 207 207
57.0 -69.4 33.2 207 207 207
57.8 -69.4 33.2 207 207 207
27.3 -32.0 15.3 207 207 207
27.4 -31.7 15.1 205 205 205
26.7 -30.5 14.6 206 206 206
-40.0 -29.4 14.2 49 49 49
-40.2 -29.8 14.4 52 52 52
-39.9 -29.8 14.4 54 54 54
-39.6 -29.8 14.4 52 52 52
-39.2 -29.8 14.4 52 52 52
-38.9 -29.8 14.4 52 52 52
-38.6 -29.8 14.4 54 54 54
-38.2 -29.8 14.4 54 54 54
-37.9 -29.8 14.4 52 52 52
-37.5 -29.8 14.4 54 54 54
-37.2 -29.8 14.4 54 54 54
-36.9 -29.8 14.4 54 54 54
-36.5 -29.8 14.4 52 52 52
-36.2 -29.8 14.4 52 52 52
-35.9 -29.8 14.4 49 49 49
-35.5 -29.8 14.4 49 49 49
-35.2 -29.8 14.4 48 47 46
-34.9 -29.8 14.4 48 47 46
-34.5 -29.8 14.4 45 45 45
-34.2 -29.8 14.4 45 45 45
-33.5 -29.8 14.4 45 45 45
-33.2 -29.8 14.4 45 45 45
-31.2 -29.5 14.3 42 43 42
-31.1 -29.7 14.4 45 45 45
-30.3 -29.3 14.1 42 43 42
-29.9 -29.1 14.1 43 43 43
-29.9 -29.9 14.4 43 43 43
-27.6 -29.6 14.3 45 45 45
-27.3 -29.5 14.3 45 45 45
-26.8 -29.4 14.2 46 46 46
-26.3 -29.1 14.1 37 38 37
-25.9 -29.4 14.2 83 85 85
-25.6 -29.5 14.3 91 94 93
-25.5 -29.8 14.4 94 94 94
-24.7 -29.2 14.1 94 94 94
-15.1 -29.8 14.4 111 113 112
-9.5 -23.4 11.3 113 114 113
-9.3 -23.5 11.4 113 114 113
-9.1 -23.6 11.4 148 148 148
-8.8 -23.5 11.4 166 166 166
-6.9 -23.5 11.4 178 178 178
-6.6 -23.5 11.4 180 183 182
-6.1 -23.6 11.4 192 192 192
-5.9 -23.6 11.4 193 193 193
12.0 -23.7 11.5 208 208 208
12.1 -23.5 11.4 208 208 208
13.9 -23.8 11.5 208 208 208
14.0 -23.6 11.4 208 208 208
43.8 -69.7 33.7 208 208 208
43.5 -68.0 32.9 208 208 208
45.3 -68.5 33.1 208 208 208
46.8 -69.5 33.6 208 208 208
47.8 -69.8 33.8 208 208 208
48.1 -69.1 33.4 208 208 208
47.7 -67.4 32.6 208 208 208
47.1 -65.6 31.7 208 208 208
48.1 -65.9 31.9 208 208 208
41.6 -54.5 26.3 205 205 205
41.5 -53.6 25.9 205 205 205
43.8 -55.0 26.6 206 206 206
55.9 -69.2 33.5 206 206 206
56.1 -68.5 33.1 206 206 206
58.2 -70.1 33.9 206 206 206
59.0 -70.1 33.9 207 207 207
27.3 -31.2 15.1 205 205 205
-41.2 -29.9 14.6 50 50 50
-41.2 -30.2 14.8 53 52 52
-40.9 -30.2 14.8 53 52 52
-40.5 -30.2 14.8 53 52 52
-40.2 -30.2 14.8 53 52 52
-39.9 -30.2 14.8 53 52 52
-39.5 -30.2 14.8 55 55 55
-39.2 -30.2 14.8 55 55 55
-38.8 -30.2 14.8 57 58 56
-38.5 -30.2 14.8 57 58 56
-38.1 -30.2 14.8 55 55 55
-37.8 -30.2 14.8 55 55 55
-37.5 -30.2 14.8 55 55 55
-36.8 -30.2 14.8 53 52 52
-36.4 -30.2 14.8 50 50 50
-32.9 -30.1 14.7 46 46 46
-32.0 -29.9 14.6 46 46 46
-31.6 -29.9 14.6 46 46 46
-32.4 -30.9 15.1 46 46 46
-31.8 -31.0 15.2 44 44 44
-30.6 -30.2 14.8 42 42 42
-28.5 -30.2 14.8 45 45 45
-28.2 -30.2 14.8 42 43 42
-27.6 -30.0 14.7 45 45 45
-27.5 -31.0 15.2 47 47 47
-26.5 -30.2 14.8 50 49 48
-26.1 -30.2 14.8 78 78 78
-14.9 -29.6 14.5 101 101 101
-10.0 -24.4 12.0 25 25 25
-9.7 -24.4 11.9 32 32 32
2.5 -24.6 12.1 183 183 183
2.7 -24.4 11.9 183 183 183
8.3 -24.6 12.0 207 207 207
8.6 -24.4 12.0 207 207 207
8.8 -24.4 11.9 207 207 207
9.1 -24.4 11.9 207 207 207
9.4 -24.4 11.9 207 207 207
9.7 -24.4 11.9 207 207 207
9.9 -24.4 11.9 207 207 207
10.3 -24.5 12.0 207 207 207
10.8 -24.4 12.0 207 207 207
11.1 -24.4 11.9 207 207 207
11.4 -24.4 11.9 207 207 207
12.0 -24.5 12.0 207 207 207
12.2 -24.5 12.0 207 207 207
12.4 -24.3 11.9 207 207 207
13.7 -24.6 12.0 207 207 207
13.9 -24.6 12.0 207 207 207
14.1 -24.4 11.9 207 207 207
14.3 -24.2 11.8 207 207 207
14.8 -24.6 12.0 207 207 207
42.6 -55.2 27.0 202 202 202
43.1 -55.0 26.9 205 205 205
44.3 -55.8 27.3 205 205 205
44.2 -54.8 26.8 205 205 205
44.9 -54.9 26.9 205 205 205
73.3 -85.0 41.6 209 209 209
27.6 -29.6 14.5 205 205 205
28.1 -29.9 14.6 205 205 205
-30.1 -31.9 15.8 39 39 39
-27.8 -31.7 15.7 48 48 48
-15.8 -31.1 15.4 26 26 26
-15.6 -31.5 15.6 29 30 28
-15.3 -31.6 15.6 25 25 25
-15.0 -31.7 15.7 29 30 28
-14.7 -31.9 15.8 25 25 25
-9.3 -24.4 12.1 183 183 183
-9.0 -24.4 12.1 184 184 184
2.5 -24.6 12.2 185 185 185
2.8 -24.4 12.1 185 185 185
8.5 -24.7 12.2 207 207 207
8.7 -24.4 12.1 207 207 207
8.9 -24.3 12.0 210 210 210
9.2 -24.4 12.1 209 209 209
9.5 -24.4 12.1 209 209 209
9.8 -24.3 12.0 207 207 207
10.0 -24.3 12.0 207 207 207
10.4 -24.4 12.1 207 207 207
10.9 -24.4 12.1 207 207 207
11.2 -24.4 12.1 207 207 207
11.5 -24.4 12.1 207 207 207
12.2 -24.7 12.2 207 207 207
12.3 -24.4 12.1 207 207 207
13.8 -24.6 12.2 207 207 207
14.0 -24.4 12.1 207 207 207
14.2 -24.3 12.0 207 207 207
14.9 -24.6 12.2 207 207 207
46.9 -64.8 32.1 207 207 207
46.2 -62.9 31.1 207 207 207
46.7 -62.6 31.0 207 207 207
46.6 -61.6 30.5 207 207 207
44.8 -55.8 27.6 207 207 207
44.3 -54.3 26.9 208 208 208
71.0 -81.3 40.2 206 206 206
75.1 -85.0 42.0 206 206 206
27.7 -29.8 14.8 206 206 206
27.9 -29.6 14.6 207 207 207
28.4 -29.7 14.7 205 205 205
29.1 -30.2 14.9 205 205 205
-36.0 -33.2 16.6 47 48 47
-16.3 -31.8 15.9 26 26 26
-15.9 -31.6 15.8 26 26 26
-15.7 -31.9 16.0 27 27 27
-10.3 -24.6 12.3 34 34 34
-9.5 -24.6 12.3 179 182 181
-9.1 -24.4 12.2 185 185 185
-6.3 -24.6 12.3 214 214 214
-6.0 -24.6 12.3 211 211 211
-5.8 -24.6 12.3 211 211 211
-5.5 -24.7 12.3 209 209 209
-4.6 -24.6 12.3 208 208 208
-4.3 -24.6 12.3 205 205 205
-4.0 -24.6 12.3 204 204 204
-3.8 -24.6 12.3 202 202 202
-3.5 -24.6 12.3 202 202 202
-3.2 -24.6 12.3 199 199 199
-1.8 -24.6 12.3 195 195 195
-1.5 -24.6 12.3 198 198 198
-1.2 -24.6 12.3 198 198 198
-0.9 -24.6 12.3 198 198 198
-0.6 -24.6 12.3 195 195 195
0.5 -24.6 12.3 193 193 193
0.8 -24.6 12.3 193 193 193
1.1 -24.6 12.3 193 193 193
1.4 -24.6 12.3 190 190 190
1.7 -24.6 12.3 190 190 190
2.0 -24.6 12.3 188 188 188
2.5 -24.6 12.3 188 188 188
2.8 -24.5 12.3 184 184 184
5.1 -24.6 12.3 173 173 173
5.4 -24.6 12.3 173 173 173
5.7 -24.6 12.3 204 204 204
6.0 -24.6 12.3 206 206 206
7.4 -24.7 12.4 206 206 206
7.7 -24.6 12.3 206 206 206
8.0 -24.6 12.3 209 209 209
8.3 -24.7 12.3 209 209 209
8.5 -24.6 12.3 209 209 209
8.8 -24.4 12.2 206 206 206
9.1 -24.5 12.3 204 204 204
9.4 -24.6 12.3 206 206 206
9.7 -24.6 12.3 209 209 209
10.0 -24.6 12.3 209 209 209
10.3 -24.6 12.3 206 206 206
10.6 -24.6 12.3 206 206 206
10.8 -24.6 12.3 204 204 204
11.1 -24.6 12.3 206 206 206
11.4 -24.6 12.3 206 206 206
11.7 -24.6 12.3 206 206 206
12.0 -24.6 12.3 206 206 206
12.3 -24.7 12.3 206 206 206
12.5 -24.5 12.3 206 206 206
12.9 -24.6 12.3 206 206 206
13.7 -24.7 12.3 206 206 206
14.0 -24.6 12.3 206 206 206
14.2 -24.5 12.3 206 206 206
14.4 -24.3 12.2 206 206 206
15.2 -24.7 12.4 206 206 206
15.4 -24.6 12.3 206 206 206
46.7 -63.8 32.0 206 206 206
46.2 -62.2 31.1 206 206 206
46.7 -61.8 31.0 206 206 206
45.7 -56.2 28.1 207 207 207
44.6 -54.1 27.1 207 207 207
63.6 -74.0 37.0 205 205 205
65.4 -75.1 37.6 205 205 205
69.1 -78.2 39.2 205 205 205
74.4 -83.2 41.7 205 205 205
27.9 -29.3 14.7 206 206 206
28.5 -29.6 14.8 206 206 206
29.3 -30.0 15.0 206 206 206
133.1 -71.6 35.8 128 131 130
-34.4 -24.1 12.2 57 57 57
-34.1 -24.1 12.2 54 54 54
-33.9 -24.1 12.2 59 60 58
-33.6 -24.1 12.2 59 60 58
-33.3 -24.1 12.2 59 60 58
-33.0 -24.1 12.2 57 57 57
-32.7 -24.1 12.2 57 57 57
-32.4 -24.1 12.2 59 60 58
-32.2 -24.1 12.2 59 60 58
-31.9 -24.1 12.2 59 61 59
-31.6 -24.1 12.2 59 61 59
-31.3 -24.1 12.2 59 61 59
-31.0 -24.1 12.2 59 61 59
-30.7 -24.1 12.2 57 57 57
-30.4 -24.1 12.2 57 57 57
-30.2 -24.2 12.2 55 55 55
-29.9 -24.2 12.2 55 55 55
-29.6 -24.1 12.2 53 52 52
-29.3 -24.1 12.2 51 51 49
-29.0 -24.2 12.2 51 51 49
-28.7 -24.1 12.2 48 48 48
-28.5 -24.1 12.2 48 48 48
-28.2 -24.1 12.2 48 48 48
-27.9 -24.1 12.2 51 51 49
-27.6 -24.1 12.2 48 48 48
-27.3 -24.1 12.2 51 51 49
-27.0 -24.1 12.2 48 48 48
-26.8 -24.1 12.2 48 48 48
-26.5 -24.1 12.2 48 48 48
-26.2 -24.1 12.2 48 48 48
-25.8 -24.1 12.2 48 48 48
-25.7 -24.2 12.3 49 49 49
-25.4 -24.2 12.3 49 49 49
-25.2 -24.3 12.3 49 49 49
-24.9 -24.3 12.3 47 48 47
-24.4 -24.1 12.2 47 48 47
-24.1 -24.0 12.2 45 45 45
-23.3 -24.1 12.2 43 43 43
-22.6 -24.2 12.3 42 42 42
-22.3 -24.2 12.3 42 42 42
-21.9 -24.1 12.2 42 42 42
-21.6 -24.1 12.2 42 43 42
-21.4 -24.2 12.2 42 43 42
-21.0 -24.1 12.2 42 43 42
-20.7 -24.1 12.2 45 45 45
-20.5 -24.1 12.2 42 42 40
-20.2 -24.1 12.2 45 45 45
-19.9 -24.0 12.2 47 48 47
-19.6 -24.0 12.2 47 48 47
-19.3 -24.1 12.2 91 94 93
-18.7 -24.1 12.2 69 71 69
-17.3 -24.0 12.2 10 15 11
-15.9 -24.1 12.2 21 24 22
-15.1 -24.1 12.2 21 24 22
-12.0 -24.1 12.2 29 31 29
-11.7 -24.2 12.3 29 31 29
-10.8 -24.1 12.2 31 30 29
-10.5 -24.1 12.2 31 31 31
-10.3 -24.3 12.3 34 36 36
-10.0 -24.1 12.2 42 42 42
-9.7 -24.1 12.2 151 151 151
-9.4 -24.1 12.2 185 185 185
-9.1 -24.0 12.2 188 190 190
-8.8 -23.9 12.1 187 189 189
-8.5 -23.9 12.1 224 224 224
-6.3 -24.1 12.2 216 219 218
-6.0 -24.1 12.2 215 218 217
-5.7 -24.1 12.2 215 218 217
-4.6 -24.1 12.2 210 210 210
-4.3 -24.1 12.2 207 207 207
-4.0 -24.1 12.2 207 207 207
-3.7 -24.1 12.2 207 207 207
-3.4 -24.1 12.2 205 205 205
-3.2 -24.1 12.2 203 203 203
-2.9 -24.0 12.2 203 203 203
-2.6 -24.0 12.2 200 200 200
-1.2 -24.1 12.2 197 197 197
-0.9 -24.1 12.2 197 197 197
-0.6 -24.1 12.2 197 197 197
0.2 -24.1 12.2 197 197 197
1.1 -24.1 12.2 194 194 194
1.4 -24.1 12.2 192 192 192
1.7 -24.1 12.2 192 192 192
2.0 -24.1 12.2 192 192 192
2.3 -24.3 12.3 189 189 189
2.5 -24.1 12.2 189 189 189
2.8 -24.0 12.1 186 186 186
5.4 -24.1 12.2 180 180 180
5.6 -24.1 12.2 203 203 203
5.9 -24.1 12.2 206 206 206
7.6 -24.1 12.2 209 209 209
8.2 -24.3 12.3 209 209 209
8.5 -24.2 12.2 209 209 209
8.7 -24.0 12.2 209 209 209
9.0 -24.0 12.2 206 206 206
9.3 -24.1 12.2 209 209 209
9.6 -24.1 12.2 209 209 209
9.9 -24.1 12.2 209 209 209
10.2 -24.1 12.2 209 209 209
10.5 -24.2 12.2 209 209 209
10.7 -24.1 12.2 208 208 208
11.0 -24.1 12.2 208 208 208
11.4 -24.2 12.3 206 206 206
11.7 -24.2 12.3 206 206 206
11.9 -24.2 12.3 206 206 206
12.2 -24.3 12.3 206 206 206
12.4 -24.0 12.2 206 206 206
12.7 -24.0 12.2 206 206 206
13.1 -24.3 12.3 206 206 206
13.3 -24.1 12.2 206 206 206
13.7 -24.3 12.3 206 206 206
13.9 -24.2 12.3 206 206 206
14.1 -24.1 12.2 208 208 208
14.3 -23.9 12.1 208 208 208
14.8 -24.3 12.3 206 206 206
15.1 -24.3 12.3 206 206 206
15.3 -24.1 12.2 206 206 206
15.6 -24.1 12.2 206 206 206
15.9 -24.2 12.3 208 208 208
45.4 -60.4 30.6 206 206 206
45.9 -60.1 30.5 206 206 206
46.0 -55.9 28.3 206 206 206
44.7 -53.6 27.1 206 206 206
45.0 -53.2 26.9 207 207 207
47.9 -55.8 28.3 207 207 207
63.3 -72.8 36.9 207 207 207
64.4 -73.1 37.0 207 207 207
66.9 -74.8 37.9 207 207 207
29.5 -29.5 15.0 204 204 204
130.5 -68.9 34.9 124 124 124
-34.3 -23.8 12.2 59 61 59
-34.4 -24.0 12.3 58 58 58
-33.9 -23.9 12.3 59 61 59
-33.6 -23.9 12.3 59 61 59
-33.4 -23.9 12.3 59 61 59
-33.1 -23.9 12.3 59 61 59
-32.8 -23.9 12.3 58 58 58
-32.5 -23.9 12.3 59 61 59
-32.2 -23.9 12.3 59 61 59
-31.9 -23.9 12.2 63 63 63
-31.8 -24.0 12.3 63 63 63
-31.4 -23.9 12.3 60 62 60
-31.1 -23.9 12.3 60 62 60
-30.8 -23.9 12.3 58 58 58
-30.5 -23.9 12.3 58 58 58
-30.4 -24.0 12.3 60 62 60
-30.0 -23.9 12.3 58 59 59
-29.8 -24.0 12.3 56 56 56
-29.5 -24.0 12.3 52 52 50
-29.3 -24.0 12.3 53 53 53
-28.9 -24.0 12.3 52 52 50
-28.6 -24.0 12.3 49 49 49
-28.4 -24.0 12.3 49 49 49
-28.0 -23.9 12.3 52 52 50
-27.7 -23.9 12.3 49 49 49
-27.4 -23.9 12.3 49 49 49
-27.1 -23.9 12.3 49 49 49
-26.8 -23.9 12.3 49 49 49
-26.5 -23.9 12.3 49 49 49
-26.2 -23.9 12.2 49 49 49
-25.9 -23.8 12.2 50 50 50
-25.7 -24.0 12.3 47 48 47
-25.5 -24.0 12.3 50 50 50
-24.9 -24.0 12.3 48 48 48
-24.4 -23.8 12.2 50 50 50
-24.1 -23.8 12.2 48 48 48
-23.5 -24.0 12.3 47 47 47
-22.6 -24.0 12.3 45 45 45
-22.3 -24.0 12.3 45 45 45
-21.9 -23.8 12.2 43 43 43
-21.6 -23.8 12.2 46 46 46
-21.5 -24.0 12.3 43 43 43
-21.0 -23.8 12.2 42 42 40
-20.7 -23.8 12.2 42 42 40
-20.5 -23.8 12.2 44 44 44
-20.2 -23.8 12.2 43 42 41
-19.9 -23.8 12.2 39 41 41
-19.1 -23.8 12.2 21 24 22
-18.7 -23.8 12.2 21 24 22
-15.1 -23.9 12.3 22 25 23
-12.0 -23.9 12.3 30 31 30
-11.8 -24.0 12.3 29 31 29
-11.5 -24.0 12.3 29 31 29
-11.1 -23.9 12.2 29 31 29
-10.9 -23.9 12.2 32 32 32
-10.6 -23.9 12.3 33 33 33
-10.3 -24.0 12.3 35 37 36
-10.0 -23.8 12.2 38 38 38
-9.7 -23.8 12.2 160 160 160
-9.4 -23.9 12.2 186 186 186
-9.1 -23.8 12.2 184 187 186
-8.8 -23.7 12.1 183 186 185
-8.5 -23.6 12.1 225 227 227
-6.6 -24.0 12.3 224 224 224
-6.3 -23.8 12.2 222 222 222
-6.0 -24.0 12.3 220 220 220
-5.8 -24.0 12.3 219 219 219
-4.6 -24.0 12.3 213 215 215
-4.3 -24.0 12.3 212 214 214
-4.0 -24.0 12.3 209 212 211
-3.8 -24.0 12.3 209 212 211
-3.5 -24.0 12.3 208 208 208
-3.2 -24.0 12.3 208 208 208
-1.5 -24.0 12.3 202 202 202
-0.9 -23.8 12.2 199 199 199
-0.6 -24.0 12.3 202 202 202
1.1 -24.0 12.3 196 196 196
1.4 -24.0 12.3 196 196 196
1.7 -24.0 12.3 193 193 193
2.0 -24.0 12.3 193 193 193
2.5 -23.9 12.3 191 191 191
2.8 -23.8 12.2 191 191 191
5.1 -24.0 12.3 180 180 180
5.4 -24.0 12.3 180 180 180
5.6 -23.8 12.2 203 203 203
6.5 -24.0 12.3 208 208 208
7.7 -23.9 12.3 208 208 208
8.3 -24.0 12.3 208 208 208
8.5 -23.9 12.2 208 208 208
8.7 -23.8 12.2 208 208 208
9.0 -23.8 12.2 208 208 208
9.3 -23.9 12.2 208 208 208
9.6 -23.9 12.2 208 208 208
9.9 -23.9 12.2 205 205 205
10.2 -23.9 12.3 205 205 205
10.5 -23.9 12.3 205 205 205
10.8 -23.8 12.2 205 205 205
11.0 -23.8 12.2 205 205 205
11.4 -24.0 12.3 205 205 205
11.7 -24.0 12.3 205 205 205
12.0 -24.0 12.3 205 205 205
12.3 -24.0 12.3 205 205 205
12.4 -23.8 12.2 205 205 205
12.7 -23.7 12.2 205 205 205
13.1 -24.0 12.3 205 205 205
13.3 -23.9 12.2 205 205 205
13.7 -24.0 12.3 205 205 205
14.0 -24.0 12.3 208 208 208
14.1 -23.8 12.2 208 208 208
14.3 -23.7 12.1 208 208 208
14.9 -24.2 12.4 208 208 208
15.1 -24.0 12.3 205 205 205
15.4 -24.1 12.3 208 208 208
15.7 -24.0 12.3 208 208 208
15.9 -23.9 12.3 208 208 208
16.2 -24.0 12.3 205 205 205
45.8 -60.2 30.9 205 205 205
43.1 -54.1 27.7 205 205 205
42.6 -52.7 27.0 205 205 205
46.1 -55.4 28.4 206 206 206
45.0 -53.3 27.3 206 206 206
45.0 -52.5 26.9 206 206 206
47.5 -54.8 28.1 206 206 206
31.6 -31.3 16.0 205 205 205
129.1 -67.4 34.5 126 126 126
-22.8 -24.2 12.5 44 44 44
-11.1 -24.2 12.5 32 31 30
-10.7 -24.0 12.4 34 34 34
-10.5 -24.0 12.5 39 38 37
-10.1 -23.9 12.4 44 44 44
-9.9 -24.0 12.5 165 168 167
-9.7 -24.3 12.6 186 188 187
2.3 -24.4 12.7 192 192 192
8.5 -24.3 12.6 208 208 208
10.1 -24.7 12.8 208 208 208
10.3 -24.6 12.7 208 208 208
10.6 -24.5 12.7 208 208 208
11.4 -24.4 12.7 205 205 205
12.5 -24.7 12.8 205 205 205
12.6 -24.3 12.6 205 205 205
12.7 -24.0 12.4 205 205 205
13.6 -24.5 12.7 205 205 205
14.2 -24.6 12.7 207 207 207
14.4 -24.5 12.7 207 207 207
14.7 -24.4 12.7 207 207 207
15.4 -24.6 12.7 207 207 207
15.3 -24.0 12.5 207 207 207
41.9 -52.0 27.0 205 205 205
41.7 -50.9 26.4 205 205 205
46.5 -55.3 28.7 205 205 205
44.5 -52.0 27.0 205 205 205
44.6 -51.4 26.7 205 205 205
45.5 -51.8 26.9 206 206 206
27.9 -27.9 14.5 204 204 204
28.0 -27.7 14.4 204 204 204
29.9 -29.2 15.1 204 204 204
30.0 -29.0 15.0 207 207 207
123.8 -63.4 32.9 121 121 121
-29.5 -24.7 12.9 54 53 52
-29.1 -24.6 12.9 54 53 52
-28.8 -24.6 12.9 54 53 52
-28.5 -24.5 12.9 54 53 52
-28.1 -24.5 12.9 54 53 52
-27.2 -24.7 13.0 52 52 52
-21.6 -24.5 12.9 45 44 43
-12.3 -24.6 12.9 29 29 29
-11.5 -24.8 13.0 34 34 34
-10.9 -24.0 12.6 35 35 35
-10.6 -24.0 12.6 36 36 36
-10.1 -24.2 12.7 177 180 179
2.3 -24.4 12.8 192 192 192
9.9 -24.6 12.9 207 207 207
10.2 -24.7 13.0 207 207 207
10.5 -24.6 12.9 207 207 207
11.1 -24.7 12.9 207 207 207
11.3 -24.5 12.9 207 207 207
12.6 -24.7 12.9 207 207 207
12.7 -24.3 12.8 204 204 204
14.5 -24.4 12.8 207 207 207
14.8 -24.3 12.8 207 207 207
15.4 -24.8 13.0 207 207 207
15.6 -24.6 12.9 207 207 207
15.7 -24.3 12.8 207 207 207
42.5 -52.1 27.3 207 207 207
41.7 -50.4 26.5 204 204 204
45.2 -52.2 27.4 205 205 205
44.9 -51.2 26.9 205 205 205
46.4 -52.2 27.4 205 205 205
46.1 -51.1 26.8 205 205 205
69.5 -75.1 39.4 205 205 205
76.0 -81.0 42.5 206 206 206
76.6 -80.6 42.3 206 206 206
29.2 -28.1 14.8 204 204 204
29.5 -28.1 14.8 204 204 204
29.3 -27.7 14.5 204 204 204
29.7 -27.7 14.6 202 202 202
126.3 -64.3 33.8 126 126 126
120.6 -61.1 32.1 120 120 120
-36.3 -24.3 12.9 65 65 65
-29.8 -24.3 12.9 55 54 53
-29.5 -24.3 12.9 55 54 53
-29.2 -24.3 12.9 55 54 53
-28.9 -24.3 12.9 55 54 53
-28.5 -24.2 12.9 55 54 53
-28.2 -24.2 12.9 56 55 54
-27.2 -24.4 13.0 56 55 54
-26.9 -24.4 13.0 56 55 54
-26.0 -24.2 12.9 51 51 51
-23.4 -24.2 12.9 46 46 46
-22.0 -24.3 12.9 42 43 42
-21.6 -24.2 12.9 43 43 43
-12.3 -24.2 12.8 41 41 41
-11.5 -24.4 13.0 54 54 54
-11.0 -24.0 12.7 62 62 62
-10.7 -24.0 12.8 36 39 38
-10.4 -24.0 12.7 46 46 46
-10.1 -24.0 12.8 183 183 183
-9.9 -24.2 12.9 184 184 184
9.9 -24.3 12.9 207 207 207
14.6 -24.1 12.8 206 206 206
46.2 -59.5 31.6 206 206 206
45.9 -58.2 30.9 206 206 206
45.9 -57.2 30.4 206 206 206
43.0 -52.0 27.7 206 206 206
42.3 -50.4 26.8 209 209 209
48.5 -56.1 29.8 209 209 209
46.3 -52.9 28.1 209 209 209
45.3 -51.0 27.1 207 207 207
47.5 -52.7 28.0 207 207 207
46.8 -51.3 27.3 207 207 207
75.4 -79.4 42.2 205 205 205
76.4 -79.4 42.2 205 205 205
28.1 -27.8 14.8 208 208 208
29.1 -27.8 14.8 206 206 206
29.5 -27.8 14.8 203 203 203
29.5 -27.5 14.6 203 203 203
29.9 -27.5 14.6 206 206 206
30.5 -27.7 14.7 170 171 170
-36.3 -23.9 12.9 65 65 65
-36.0 -23.9 12.9 65 65 65
-35.7 -23.9 12.9 66 66 66
-35.4 -23.9 12.9 66 66 66
-35.1 -23.9 12.9 66 66 66
-34.8 -23.9 12.9 66 66 66
-34.5 -23.9 12.9 66 66 66
-34.2 -23.9 12.9 66 66 66
-33.9 -23.9 12.9 66 66 66
-33.3 -23.9 12.9 66 66 66
-33.0 -23.9 12.9 67 67 67
-32.7 -23.9 12.9 61 61 61
-32.4 -23.9 12.9 61 61 61
-31.2 -23.9 12.9 59 59 59
-30.6 -23.9 12.9 56 55 54
-30.3 -23.9 12.9 58 58 58
-30.0 -23.9 12.9 56 55 54
-29.7 -24.0 12.9 56 55 54
-29.4 -24.0 12.9 56 55 54
-29.1 -23.9 12.9 56 55 54
-28.8 -23.9 12.9 56 55 54
-28.5 -23.9 12.9 58 58 58
-28.2 -23.9 12.9 57 56 55
-27.9 -23.9 12.9 53 53 53
-27.8 -24.1 13.0 53 53 53
-27.5 -24.1 13.0 57 56 55
-27.2 -24.1 13.0 57 56 55
-26.7 -24.0 12.9 57 57 55
-26.4 -23.9 12.9 54 54 54
-26.0 -23.9 12.9 49 49 49
-25.8 -23.9 12.9 53 52 52
-25.5 -23.9 12.9 53 52 52
-25.2 -24.0 12.9 53 52 52
-24.9 -23.9 12.9 50 50 50
-23.8 -24.0 12.9 47 47 47
-23.3 -23.9 12.9 47 47 47
-23.1 -23.9 12.9 46 45 43
-22.9 -24.1 12.9 46 45 43
-22.6 -24.0 12.9 46 46 44
-22.3 -24.1 13.0 46 46 44
-21.9 -23.9 12.9 44 44 44
-21.6 -23.9 12.9 43 45 44
-12.9 -23.9 12.9 72 73 71
-12.7 -24.0 12.9 90 90 90
-12.3 -23.9 12.9 61 61 61
-11.5 -24.1 13.0 36 37 36
-11.0 -23.7 12.8 86 88 88
-10.7 -23.8 12.8 22 25 23
-10.4 -23.7 12.8 49 49 49
-10.1 -23.8 12.8 184 187 186
-9.9 -23.9 12.9 182 185 184
45.5 -57.8 31.1 206 206 206
45.4 -56.9 30.6 206 206 206
45.6 -56.2 30.3 206 206 206
42.7 -51.1 27.5 206 206 206
42.3 -49.8 26.8 206 206 206
48.5 -55.5 29.9 206 206 206
47.5 -53.6 28.8 206 206 206
45.7 -50.8 27.3 206 206 206
47.3 -51.9 27.9 206 206 206
46.8 -50.6 27.3 207 207 207
47.0 -50.1 27.0 204 204 204
28.5 -27.8 15.0 205 205 205
29.2 -27.5 14.8 205 205 205
29.6 -27.6 14.8 205 205 205
29.7 -27.4 14.7 203 203 203
29.9 -27.2 14.7 206 206 206
-36.6 -23.8 13.0 66 66 66
-36.4 -23.9 13.0 66 66 66
-36.1 -23.9 13.0 66 66 66
-35.8 -23.9 13.0 66 66 66
-35.5 -23.9 13.0 67 67 67
-35.2 -23.9 13.0 67 67 67
-34.9 -23.9 13.0 67 67 67
-34.6 -23.9 13.0 67 67 67
-34.3 -23.9 13.0 67 67 67
-34.0 -23.9 13.0 67 67 67
-33.7 -23.9 13.0 67 67 67
-33.4 -23.9 13.0 67 67 67
-33.1 -23.9 13.0 64 65 63
-32.7 -23.9 13.0 64 65 63
-32.4 -23.9 13.0 65 66 64
-32.2 -23.9 13.0 62 62 62
-31.9 -23.9 13.0 62 62 62
-31.6 -23.9 13.0 60 60 60
-31.3 -23.9 13.0 58 58 58
-30.9 -23.9 13.0 58 58 58
-30.6 -23.9 13.0 58 59 59
-30.3 -23.9 13.0 58 59 59
-30.1 -23.9 13.0 57 56 55
-29.7 -23.9 13.0 57 56 55
-29.4 -23.9 13.0 57 56 55
-29.1 -23.9 13.0 57 56 55
-28.8 -23.9 13.0 57 57 55
-28.5 -23.9 13.0 54 54 54
-28.2 -23.9 13.0 54 54 54
-28.0 -24.0 13.1 57 57 55
-27.7 -24.0 13.1 57 57 55
-27.3 -23.9 13.0 58 58 56
-27.0 -23.9 13.0 58 58 56
-26.7 -23.9 13.0 55 55 55
-26.3 -23.9 13.0 53 53 53
-26.2 -24.0 13.1 53 53 53
-25.8 -23.9 13.0 53 53 53
-25.5 -23.9 13.0 53 53 53
-25.2 -23.9 13.0 52 52 52
-25.0 -24.1 13.1 52 52 52
-24.8 -24.1 13.1 49 49 49
-24.5 -24.1 13.1 50 50 50
-24.0 -23.9 13.0 50 50 50
-23.6 -23.9 13.0 47 48 47
-23.5 -24.0 13.1 48 48 48
-23.2 -24.0 13.1 48 48 48
-22.9 -24.1 13.1 47 46 45
-22.5 -24.0 13.1 44 44 44
-22.1 -23.9 13.0 45 45 45
-21.8 -23.9 13.0 43 45 45
-12.8 -23.9 13.0 29 29 29
-12.4 -23.8 13.0 35 35 35
-11.6 -24.0 13.1 43 43 43
-11.2 -23.7 12.9 83 82 80
-10.9 -23.7 12.9 27 27 27
-10.5 -23.6 12.9 54 54 54
-10.2 -23.6 12.9 183 186 185
-10.0 -23.8 13.0 182 185 184
45.2 -55.9 30.5 205 205 205
45.6 -55.4 30.2 208 208 208
42.7 -50.4 27.5 205 205 205
42.0 -48.8 26.6 205 205 205
48.4 -54.7 29.8 206 206 206
45.9 -50.5 27.5 206 206 206
47.4 -51.3 28.0 206 206 206
46.7 -49.9 27.2 206 206 206
47.0 -49.5 27.0 206 206 206
48.1 -50.1 27.3 206 206 206
29.4 -27.3 14.9 205 205 205
29.8 -27.4 14.9 205 205 205
29.9 -27.1 14.8 202 202 202
29.8 -26.8 14.6 202 202 202
-37.2 -23.9 13.2 63 64 62
-37.0 -24.0 13.3 67 67 67
-36.7 -24.0 13.3 67 67 67
-36.4 -24.0 13.3 69 71 69
-36.1 -24.0 13.2 67 67 67
-35.8 -24.0 13.3 69 71 69
-35.5 -24.0 13.3 67 67 67
-35.1 -24.0 13.2 67 67 67
-34.9 -24.0 13.3 67 67 67
-34.5 -24.0 13.3 67 67 67
-34.2 -24.0 13.3 67 67 67
-33.9 -24.0 13.3 67 67 67
-33.6 -24.0 13.2 68 68 68
-33.3 -24.0 13.2 65 66 64
-33.0 -24.0 13.2 66 67 65
-32.7 -24.0 13.3 63 63 63
-32.4 -24.0 13.2 61 61 61
-32.1 -24.0 13.2 58 59 59
-31.8 -24.0 13.3 58 59 59
-31.4 -24.0 13.2 64 64 64
-31.1 -24.0 13.2 62 62 62
-30.9 -24.0 13.3 59 59 59
-30.5 -24.0 13.3 59 59 59
-30.2 -24.0 13.2 59 59 59
-29.9 -24.0 13.3 57 57 55
-29.6 -24.0 13.2 58 58 56
-29.3 -24.0 13.3 58 58 56
-29.0 -24.0 13.2 58 58 56
-28.7 -24.0 13.2 58 58 56
-28.4 -24.0 13.3 58 58 56
-28.1 -24.0 13.3 59 59 57
-27.7 -24.0 13.2 59 59 57
-27.4 -24.0 13.2 56 56 56
-27.1 -24.0 13.2 56 56 56
-26.8 -24.0 13.2 57 57 57
-26.5 -24.0 13.3 57 57 57
-26.2 -24.0 13.3 57 57 57
-25.9 -24.0 13.2 57 57 57
-25.6 -24.0 13.2 55 55 55
-25.3 -24.0 13.3 53 52 52
-25.0 -24.0 13.3 51 51 51
-24.3 -24.0 13.2 51 51 51
-24.0 -24.0 13.2 52 52 52
-23.8 -24.0 13.3 49 49 49
-23.5 -24.0 13.3 49 49 49
-23.2 -24.0 13.3 50 50 50
-22.9 -24.0 13.3 45 45 45
-22.5 -24.0 13.2 46 46 46
-22.2 -24.0 13.2 46 46 46
-12.9 -23.8 13.2 33 34 32
-12.5 -23.8 13.1 131 131 131
-11.7 -23.9 13.2 83 83 83
-11.3 -23.7 13.1 68 70 68
-11.0 -23.7 13.1 52 52 52
-10.7 -23.7 13.1 52 52 52
-10.4 -23.8 13.1 182 185 184
-10.1 -23.9 13.2 181 184 183
-9.9 -24.1 13.3 182 185 184
45.8 -56.8 31.4 205 205 205
45.7 -55.8 30.8 207 207 207
46.1 -55.4 30.6 207 207 207
46.5 -55.0 30.4 207 207 207
43.8 -51.0 28.1 207 207 207
52.6 -59.5 32.8 205 205 205
50.5 -56.4 31.1 205 205 205
48.4 -51.8 28.6 205 205 205
47.6 -50.2 27.7 206 206 206
48.3 -50.3 27.7 206 206 206
29.7 -27.0 14.9 204 204 204
29.8 -26.4 14.6 198 198 198
99.9 -50.0 27.6 162 165 164
-11.8 -23.9 13.3 40 42 42
-10.7 -24.1 13.5 182 185 184
-10.3 -24.0 13.4 180 183 182
-10.2 -24.5 13.7 181 184 183
45.7 -55.0 30.8 207 207 207
46.1 -54.7 30.6 207 207 207
46.4 -54.2 30.3 207 207 207
49.1 -51.8 29.0 205 205 205
48.3 -50.3 28.1 205 205 205
50.6 -52.0 29.1 208 208 208
51.2 -51.9 29.0 208 208 208
99.8 -49.2 27.5 162 165 164
95.7 -46.9 26.2 159 162 161
-10.5 -24.2 13.7 179 182 181
-10.3 -24.3 13.8 178 181 180
-10.0 -24.3 13.8 184 184 184
45.4 -53.9 30.6 207 207 207
45.9 -53.8 30.5 207 207 207
46.4 -53.5 30.3 207 207 207
52.8 -58.3 33.0 207 207 207
52.5 -55.5 31.4 207 207 207
49.1 -51.2 29.0 207 207 207
48.6 -50.0 28.3 207 207 207
51.9 -52.7 29.8 208 208 208
100.5 -49.0 27.7 166 166 166
93.2 -45.1 25.6 159 162 161
89.2 -42.9 24.3 153 153 153
-14.1 -17.6 10.1 30 30 30
-11.4 -24.2 13.9 55 55 55
-11.0 -24.1 13.8 180 183 182
-10.7 -24.1 13.8 179 182 181
-10.4 -24.2 13.9 179 182 181
-10.1 -24.3 13.9 182 182 182
46.0 -53.9 31.0 206 206 206
46.5 -53.7 30.8 206 206 206
47.1 -53.6 30.8 206 206 206
53.0 -57.7 33.1 207 207 207
54.2 -57.3 32.9 207 207 207
52.7 -54.9 31.5 207 207 207
49.6 -51.0 29.3 207 207 207
53.7 -53.8 30.9 207 207 207
54.2 -53.5 30.7 207 207 207
91.7 -43.8 25.2 159 162 161
88.1 -41.8 24.0 153 153 153
-14.3 -17.5 10.2 25 28 25
-9.9 -17.3 10.1 34 36 34
-9.7 -17.4 10.1 101 101 101
-11.7 -24.7 14.4 54 54 54
-10.8 -24.2 14.1 178 181 180
-10.5 -24.2 14.1 177 180 179
46.2 -53.5 31.1 206 206 206
46.5 -53.0 30.9 206 206 206
52.9 -56.8 33.1 206 206 206
54.3 -56.6 33.0 206 206 206
53.7 -55.3 32.2 204 204 204
55.4 -55.5 32.3 207 207 207
54.3 -53.7 31.2 207 207 207
55.1 -53.7 31.3 207 207 207
1282.0 -663.5 386.0 175 177 177
85.6 -40.1 23.3 156 156 156
81.9 -38.1 22.2 151 151 151
-14.4 -17.4 10.3 24 27 25
-11.8 -24.5 14.5 49 49 49
-10.6 -24.2 14.2 178 181 180
-10.5 -24.5 14.5 177 180 179
8.4 -17.1 10.1 207 207 207
8.7 -17.1 10.1 208 211 210
8.9 -17.1 10.1 208 211 210
10.0 -17.1 10.1 206 206 206
10.3 -17.1 10.1 206 206 206
12.2 -17.1 10.1 207 210 209
12.9 -17.1 10.1 206 206 206
46.7 -54.2 32.0 206 206 206
46.1 -51.8 30.6 207 210 209
46.4 -51.4 30.3 206 209 208
52.7 -55.8 32.9 207 210 209
54.0 -55.6 32.8 207 210 209
49.0 -49.0 28.9 207 210 209
55.4 -54.0 31.8 208 211 210
56.2 -54.0 31.8 207 207 207
57.2 -54.3 32.0 207 207 207
-11.9 -24.4 14.6 43 42 41
-11.6 -24.4 14.6 184 187 186
-10.7 -24.1 14.4 180 183 182
-10.5 -24.3 14.6 178 181 180
-5.6 -17.3 10.3 191 191 191
-5.4 -17.4 10.4 194 194 194
-5.1 -17.3 10.4 194 194 194
8.1 -17.3 10.3 208 211 210
8.3 -17.2 10.3 208 211 210
8.6 -17.2 10.3 208 211 210
8.8 -17.2 10.3 208 211 210
9.1 -17.2 10.3 208 211 210
9.3 -17.2 10.3 208 211 210
9.6 -17.2 10.3 208 211 210
9.8 -17.2 10.3 208 211 210
10.0 -17.2 10.3 208 211 210
10.2 -17.2 10.3 208 211 210
10.7 -17.2 10.3 207 210 209
11.0 -17.2 10.3 206 206 206
11.2 -17.3 10.3 206 206 206
11.5 -17.2 10.3 207 210 209
12.4 -17.2 10.3 207 210 209
12.7 -17.2 10.3 207 210 209
13.0 -17.3 10.4 207 210 209
13.1 -17.2 10.3 207 210 209
13.9 -17.3 10.3 207 210 209
14.1 -17.2 10.3 206 209 208
14.3 -17.2 10.3 206 209 208
46.6 -50.9 30.4 206 209 208
52.8 -55.1 33.0 206 209 208
98.6 -100.1 59.9 207 210 209
95.2 -95.3 57.0 207 210 209
58.1 -54.4 32.5 208 211 210
58.9 -54.4 32.6 208 211 210
-11.3 -25.7 15.6 176 176 176
-10.9 -25.6 15.5 160 160 160
-10.5 -25.6 15.5 164 164 164
-5.4 -17.2 10.5 183 183 183
8.1 -17.4 10.6 208 211 210
8.2 -17.3 10.5 208 211 210
8.5 -17.2 10.4 208 211 210
14.1 -17.3 10.5 206 209 208
53.5 -55.1 33.4 206 209 208
98.6 -98.7 59.9 206 209 208
94.9 -93.7 56.8 207 210 209
91.5 -89.1 54.0 207 210 209
51.9 -23.5 14.2 163 166 165
51.4 -23.1 14.0 160 160 160
-11.9 -25.9 15.9 182 185 184
-11.4 -25.6 15.8 178 178 178
-11.0 -25.6 15.7 162 162 162
-10.7 -25.7 15.8 154 156 156
98.0 -96.7 59.5 205 205 205
94.1 -91.5 56.3 206 209 208
90.5 -86.9 53.4 206 209 208
85.9 -81.4 50.0 206 209 208
61.8 -29.7 18.2 181 181 181
65.1 -30.0 18.4 178 178 178
52.4 -23.4 14.4 164 167 166
52.0 -23.0 14.2 161 161 161
-25.5 -17.1 10.7 156 159 158
-14.8 -17.2 10.7 100 100 100
-12.4 -25.7 16.1 186 188 187
-11.9 -25.6 16.0 184 187 186
-11.5 -25.5 15.9 177 177 177
-11.1 -25.5 15.9 159 162 161
-10.9 -25.7 16.1 156 159 158
98.0 -95.3 59.5 208 211 210
94.6 -90.8 56.6 209 212 211
92.9 -87.9 54.8 209 212 211
95.3 -88.9 55.5 206 209 208
61.7 -29.1 18.2 182 182 182
61.0 -28.7 17.9 182 182 182
66.7 -30.5 19.0 182 182 182
66.0 -30.0 18.7 182 182 182
54.7 -24.2 15.1 169 171 170
53.4 -23.5 14.7 165 168 167
55.0 -23.9 14.9 153 153 153
-25.8 -16.8 10.7 53 53 53
-25.5 -16.8 10.6 60 60 60
-25.3 -16.8 10.6 79 79 79
-25.0 -16.8 10.6 73 74 72
-14.7 -16.9 10.7 118 118 118
-14.3 -16.8 10.6 40 40 40
-12.5 -25.6 16.2 187 189 189
-12.0 -25.4 16.1 186 188 187
-11.5 -25.1 15.9 182 182 182
-11.2 -25.3 16.0 166 166 166
-10.9 -25.5 16.1 159 162 161
101.5 -97.3 61.6 208 211 210
96.6 -91.4 57.8 208 211 210
94.2 -87.9 55.6 208 211 210
96.7 -88.9 56.3 209 212 211
98.0 -88.9 56.3 206 209 208
61.2 -28.5 18.0 183 183 183
60.3 -27.9 17.7 183 183 183
60.1 -27.6 17.5 183 183 183
66.1 -29.8 18.8 183 183 183
65.7 -29.4 18.6 184 187 186
64.6 -28.7 18.2 183 183 183
54.3 -23.5 14.9 166 169 168
55.6 -23.8 15.0 154 154 154
56.3 -23.9 15.2 148 148 148
-11.6 -24.9 16.0 182 182 182
-11.3 -25.1 16.1 169 169 169
97.5 -90.8 58.4 208 211 210
93.4 -85.8 55.1 208 211 210
104.8 -95.0 61.0 208 211 210
101.6 -90.8 58.4 208 211 210
61.6 -28.3 18.2 184 184 184
68.0 -30.2 19.4 184 184 184
66.2 -29.2 18.8 186 188 187
64.6 -28.3 18.2 184 184 184
54.6 -23.3 15.0 169 171 170
54.8 -23.3 14.9 162 162 162
56.0 -23.6 15.2 156 156 156
-21.6 -15.8 10.3 66 66 66
-11.4 -25.0 16.3 173 173 173
-11.8 -26.7 17.4 169 169 169
-11.2 -26.4 17.2 166 166 166
12.2 -15.5 10.1 208 211 210
166.1 -130.6 85.2 207 210 209
69.0 -30.2 19.7 185 185 185
66.9 -29.1 19.0 187 189 189
66.1 -28.5 18.6 185 185 185
-13.9 -15.8 10.5 33 35 33
-12.7 -27.5 18.2 175 175 175
-12.1 -26.9 17.8 170 171 170
-11.5 -26.6 17.6 168 168 168
-3.6 -15.3 10.1 165 165 165
-3.3 -15.2 10.1 172 172 172
-3.1 -15.2 10.1 173 175 175
-2.8 -15.2 10.1 175 177 177
-2.6 -15.3 10.1 180 180 180
-2.4 -15.2 10.1 186 186 186
0.4 -15.2 10.1 212 214 214
0.7 -15.2 10.1 212 214 214
0.9 -15.2 10.1 212 214 214
1.1 -15.2 10.1 212 214 214
1.4 -15.2 10.1 212 214 214
1.6 -15.2 10.1 212 214 214
1.8 -15.2 10.1 212 214 214
2.1 -15.2 10.1 212 214 214
2.3 -15.2 10.1 212 214 214
3.0 -15.3 10.1 205 205 205
3.3 -15.3 10.1 205 205 205
8.2 -15.3 10.1 209 212 211
8.4 -15.2 10.1 209 212 211
8.7 -15.2 10.1 209 212 211
8.9 -15.2 10.1 209 212 211
9.1 -15.2 10.1 209 212 211
9.4 -15.2 10.1 209 212 211
9.6 -15.3 10.1 209 212 211
9.8 -15.2 10.1 208 211 210
10.1 -15.2 10.1 208 211 210
10.3 -15.2 10.1 208 211 210
10.5 -15.2 10.1 208 211 210
10.8 -15.2 10.1 208 211 210
11.0 -15.2 10.1 208 211 210
11.2 -15.3 10.1 208 211 210
11.5 -15.2 10.1 208 211 210
12.0 -15.3 10.1 207 210 209
12.2 -15.3 10.1 207 210 209
12.4 -15.2 10.1 207 210 209
12.7 -15.3 10.1 207 210 209
12.9 -15.2 10.1 207 210 209
13.6 -15.2 10.1 207 210 209
13.8 -15.3 10.1 207 210 209
14.0 -15.2 10.1 207 210 209
14.3 -15.2 10.1 206 209 208
14.5 -15.2 10.1 206 209 208
69.2 -29.8 19.7 186 186 186
67.9 -29.0 19.2 188 190 190
59.1 -24.2 16.0 156 156 156
-45.2 -27.8 18.7 36 37 36
-14.9 -16.1 10.8 29 29 29
-13.4 -27.6 18.5 177 180 179
-12.9 -27.4 18.5 176 179 178
-12.4 -27.3 18.4 175 175 175
-12.3 -27.9 18.7 163 166 165
-11.8 -27.8 18.7 160 163 162
13.1 -15.8 10.6 207 210 209
13.3 -15.8 10.6 207 210 209
14.3 -15.8 10.7 203 205 205
14.6 -15.8 10.6 206 209 208
530.7 -419.6 282.3 209 212 211
69.4 -29.4 19.8 188 188 188
68.5 -28.8 19.4 189 191 191
70.1 -29.1 19.6 184 184 184
61.1 -24.7 16.7 160 160 160
60.4 -24.2 16.3 152 152 152
-53.5 -27.8 19.0 58 58 58
-53.5 -28.0 19.1 67 67 67
-53.0 -28.0 19.1 75 75 75
-52.6 -28.0 19.1 77 77 77
-52.1 -28.0 19.1 41 41 41
-51.6 -28.0 19.1 122 122 122
-51.2 -28.0 19.1 128 131 130
-50.7 -28.0 19.1 3 9 5
-50.2 -28.0 19.1 16 16 16
-49.9 -28.0 19.1 26 26 26
-49.5 -28.0 19.1 28 28 28
-49.0 -28.0 19.1 34 34 34
-48.5 -28.0 19.1 26 26 26
-48.1 -28.0 19.1 17 17 17
-48.2 -28.3 19.4 28 28 28
-47.8 -28.3 19.4 15 15 15
-46.8 -28.0 19.1 24 24 24
-46.2 -28.0 19.1 34 34 34
-45.1 -28.1 19.2 74 74 74
-44.6 -28.0 19.1 64 64 64
-44.1 -28.0 19.1 54 54 54
-43.7 -28.0 19.1 55 55 55
-43.2 -28.0 19.1 59 59 59
-42.4 -28.3 19.4 127 127 127
-41.4 -28.0 19.1 155 158 157
-41.0 -28.0 19.1 64 64 64
-39.7 -28.0 19.1 7 13 9
-39.7 -28.3 19.4 9 14 10
-39.2 -28.3 19.4 24 24 24
-38.3 -28.0 19.1 52 52 52
-37.9 -28.0 19.1 56 56 56
-37.9 -28.3 19.4 46 45 43
-37.4 -28.3 19.4 57 57 57
-37.0 -28.3 19.4 60 59 58
-36.5 -28.3 19.4 61 61 61
-35.7 -28.0 19.1 72 73 71
-35.2 -28.0 19.1 66 66 66
-34.8 -28.0 19.1 64 64 64
-34.2 -27.9 19.1 64 64 64
-33.8 -28.3 19.4 77 77 77
-33.4 -28.4 19.4 70 70 70
-32.9 -28.3 19.4 149 149 149
-31.7 -28.0 19.1 174 174 174
-31.6 -28.3 19.4 124 126 125
-31.1 -28.3 19.4 32 33 31
-30.7 -28.3 19.4 35 34 33
-29.9 -28.0 19.1 30 29 29
-29.8 -28.3 19.4 25 25 25
-29.3 -28.3 19.4 28 28 28
-28.4 -28.3 19.4 28 28 28
-28.0 -28.3 19.4 28 28 28
-27.5 -28.3 19.4 28 28 28
-27.1 -28.3 19.4 29 29 29
-26.6 -28.3 19.4 29 29 29
-26.2 -28.3 19.4 33 34 32
-25.7 -28.3 19.4 91 94 93
-25.0 -28.0 19.2 149 151 151
-24.8 -28.4 19.4 149 151 151
-24.4 -28.3 19.4 52 52 52
-23.9 -28.3 19.3 37 38 37
-23.5 -28.3 19.4 78 80 78
-23.0 -28.4 19.4 110 110 110
-22.3 -28.0 19.1 131 131 131
-13.8 -27.9 19.1 178 178 178
-13.2 -27.5 18.8 177 177 177
-12.8 -27.6 18.8 174 174 174
-12.5 -28.0 19.1 176 179 178
-12.0 -27.9 19.0 162 165 164
11.1 -15.3 10.5 207 210 209
11.8 -15.6 10.6 207 210 209
12.2 -15.4 10.5 207 210 209
12.4 -15.3 10.4 207 210 209
13.0 -15.4 10.6 207 210 209
14.3 -15.6 10.6 206 209 208
14.7 -15.4 10.6 206 209 208
14.8 -15.3 10.5 206 209 208
463.3 -384.4 262.7 207 210 209
469.4 -384.4 262.7 207 210 209
538.8 -419.3 286.6 208 211 210
691.1 -512.5 350.3 209 212 211
539.4 -395.4 270.2 209 212 211
61.8 -24.6 16.8 160 160 160
61.3 -24.3 16.6 156 156 156
60.9 -24.0 16.4 148 150 150
-56.0 -28.6 19.9 38 38 38
-55.1 -28.4 19.7 47 47 47
-54.7 -28.4 19.7 67 67 67
-54.2 -28.4 19.7 78 80 78
-53.8 -28.4 19.7 152 152 152
-53.3 -28.4 19.7 67 67 67
-52.8 -28.4 19.7 26 26 26
-52.3 -28.4 19.7 20 23 21
-51.9 -28.4 19.7 24 24 24
-51.5 -28.4 19.7 29 31 29
-51.0 -28.4 19.7 36 37 36
-50.5 -28.4 19.7 53 53 53
-50.0 -28.4 19.7 138 138 138
-49.6 -28.4 19.7 150 150 150
-49.2 -28.4 19.7 65 66 64
-48.7 -28.4 19.7 154 156 156
-48.2 -28.4 19.7 176 179 178
-47.7 -28.4 19.7 177 180 179
-48.0 -28.9 20.0 120 120 120
-47.0 -28.5 19.8 77 77 77
-46.4 -28.4 19.7 73 73 73
-45.9 -28.4 19.7 77 77 77
-45.5 -28.5 19.8 126 126 126
-45.0 -28.4 19.7 172 172 172
-44.6 -28.4 19.7 178 178 178
-44.1 -28.4 19.7 180 183 182
-43.7 -28.4 19.7 185 185 185
-43.2 -28.4 19.7 210 210 210
-42.7 -28.4 19.7 210 210 210
-42.3 -28.4 19.7 188 190 190
-41.8 -28.4 19.7 199 199 199
-41.4 -28.4 19.7 213 215 215
-40.9 -28.4 19.7 205 205 205
-40.4 -28.4 19.7 174 176 176
-40.0 -28.4 19.7 180 183 182
-39.5 -28.4 19.7 160 163 162
-39.1 -28.4 19.7 131 131 131
-38.6 -28.4 19.7 178 178 178
-38.2 -28.4 19.7 212 213 212
-37.7 -28.4 19.7 210 210 210
-37.2 -28.4 19.7 181 184 183
-36.8 -28.4 19.7 180 183 182
-36.3 -28.4 19.7 204 207 206
-35.8 -28.4 19.7 220 220 220
-35.4 -28.4 19.7 181 184 183
-34.9 -28.4 19.7 113 115 114
-34.5 -28.5 19.8 155 155 155
-34.1 -28.5 19.8 179 178 176
-33.6 -28.4 19.7 191 191 191
-33.1 -28.4 19.7 187 189 189
-32.6 -28.4 19.7 216 216 216
-32.2 -28.4 19.7 211 211 211
-31.7 -28.4 19.7 212 214 214
-31.3 -28.4 19.7 134 136 135
-30.8 -28.4 19.7 43 45 45
-30.3 -28.4 19.7 40 40 40
-29.9 -28.4 19.7 63 63 63
-29.4 -28.4 19.7 71 71 71
-29.0 -28.4 19.7 96 96 96
-28.5 -28.4 19.7 106 106 106
-28.0 -28.4 19.7 99 98 96
-27.6 -28.4 19.7 22 25 23
-27.1 -28.4 19.7 46 46 46
-26.7 -28.4 19.7 95 95 95
-26.2 -28.4 19.7 20 23 21
-25.7 -28.4 19.7 25 25 25
-25.3 -28.4 19.7 45 47 46
-24.8 -28.4 19.7 102 102 102
-24.4 -28.4 19.7 35 34 33
-23.9 -28.4 19.7 77 78 76
-23.5 -28.4 19.7 30 29 29
-23.0 -28.4 19.7 105 105 103
-22.6 -28.5 19.8 60 60 60
-14.9 -28.8 20.0 194 197 196
-14.3 -28.4 19.7 165 165 165
-13.7 -28.3 19.6 176 176 176
-13.2 -28.1 19.5 174 174 174
-12.9 -28.4 19.7 133 132 131
-12.4 -28.3 19.7 33 35 34
11.3 -14.7 10.2 207 210 209
12.2 -15.1 10.5 207 210 209
12.9 -15.2 10.5 206 209 208
14.6 -15.1 10.5 205 208 207
14.9 -15.1 10.5 205 208 207
293.9 -243.2 168.9 207 210 209
354.9 -289.7 201.2 207 210 209
417.3 -336.2 233.5 207 210 209
514.3 -389.1 270.2 208 211 210
777.4 -567.4 394.1 209 212 211
563.5 -406.5 282.3 209 212 211
64.2 -25.3 17.6 167 167 167
62.9 -24.7 17.1 161 161 161
62.1 -24.2 16.8 158 158 158
-57.8 -29.1 20.5 28 28 28
-56.9 -28.9 20.4 34 34 34
-56.5 -28.9 20.4 95 95 95
-56.0 -28.9 20.4 154 156 156
-55.5 -28.9 20.4 9 14 10
-55.0 -28.9 20.4 26 26 26
-54.5 -28.9 20.4 26 26 26
-54.1 -28.9 20.4 24 24 24
-53.7 -28.9 20.4 24 24 24
-53.2 -28.9 20.4 26 26 26
-52.7 -28.9 20.4 36 37 36
-52.2 -28.9 20.4 67 67 67
-51.7 -28.9 20.4 169 171 170
-51.2 -28.9 20.4 183 183 183
-50.8 -28.9 20.4 171 173 173
-50.3 -28.9 20.4 151 151 151
-49.8 -28.9 20.4 179 182 181
-49.7 -29.1 20.5 177 177 177
-49.3 -29.2 20.6 164 164 164
-48.5 -29.0 20.5 138 138 138
-48.0 -28.9 20.4 148 148 148
-47.6 -29.0 20.5 70 72 69
-47.1 -28.9 20.4 80 82 79
-46.5 -28.9 20.4 196 196 196
-46.0 -28.9 20.4 196 196 196
-45.5 -28.9 20.4 166 169 168
-44.5 -29.1 20.6 147 147 147
-43.6 -28.9 20.4 131 134 133
-43.2 -28.9 20.4 92 92 92
-42.7 -28.9 20.4 68 68 68
-42.2 -28.9 20.4 79 81 79
-41.8 -28.9 20.4 79 81 79
-41.3 -28.9 20.4 62 62 62
-40.8 -28.9 20.4 51 51 51
-40.3 -28.9 20.4 34 34 34
-39.9 -28.9 20.4 115 115 115
-39.4 -28.9 20.4 167 167 167
-38.9 -28.9 20.4 153 153 153
-38.4 -28.9 20.4 169 171 170
-38.0 -28.9 20.4 102 102 102
-37.5 -28.9 20.4 88 90 89
-37.0 -28.9 20.4 146 146 146
-36.6 -28.9 20.4 145 145 144
-36.2 -29.0 20.5 152 152 152
-35.7 -29.0 20.5 195 195 195
-35.2 -28.9 20.4 229 229 229
-34.6 -28.8 20.4 219 219 219
-34.1 -28.8 20.4 237 237 237
-33.8 -28.9 20.4 225 225 225
-33.2 -28.9 20.4 229 229 229
-32.8 -28.9 20.4 212 214 214
-32.3 -28.9 20.4 213 215 215
-31.8 -28.9 20.4 140 140 140
-31.3 -28.9 20.4 62 62 62
-30.9 -28.9 20.4 31 32 30
-30.4 -28.9 20.4 21 24 22
-29.9 -28.9 20.4 21 24 22
-29.4 -28.9 20.4 36 36 36
-29.0 -28.9 20.4 121 121 121
-28.5 -28.9 20.4 32 33 31
-28.0 -28.9 20.4 90 92 91
-27.5 -28.9 20.4 32 33 31
-27.0 -28.8 20.4 30 29 29
-26.6 -28.9 20.4 107 107 107
-26.1 -28.8 20.4 148 150 150
-25.6 -28.9 20.4 72 73 71
-25.2 -28.9 20.4 38 38 38
-24.7 -28.8 20.4 74 74 74
-24.2 -28.9 20.4 36 36 36
-23.7 -28.9 20.4 141 143 142
-15.4 -29.2 20.6 195 198 197
-14.8 -28.9 20.4 165 165 165
-14.3 -28.8 20.4 165 165 165
-13.5 -28.2 19.9 159 159 159
-13.1 -28.4 20.0 138 140 139
-12.8 -28.8 20.3 41 41 41
274.3 -223.3 157.6 206 209 208
311.8 -250.4 176.8 207 210 209
433.3 -343.5 242.5 207 210 209
639.9 -454.2 320.6 209 212 211
63.0 -24.3 17.2 159 159 159
62.3 -23.9 16.9 156 156 156
61.9 -23.6 16.7 150 150 150
-58.7 -29.0 20.8 26 26 26
-58.9 -29.4 21.1 116 118 117
-58.5 -29.4 21.1 139 141 140
-57.9 -29.4 21.1 15 15 15
-57.3 -29.4 21.1 26 26 26
-56.9 -29.4 21.1 20 23 21
-56.5 -29.4 21.1 18 22 19
-56.0 -29.4 21.1 18 22 19
-55.5 -29.4 21.1 26 26 26
-55.0 -29.4 21.1 20 23 21
-54.5 -29.4 21.1 26 26 26
-54.0 -29.4 21.1 53 53 53
-53.5 -29.4 21.1 148 148 148
-52.9 -29.4 21.1 178 178 178
-52.4 -29.3 21.0 151 151 151
-52.0 -29.4 21.1 140 142 141
-51.5 -29.4 21.1 170 171 170
-51.0 -29.4 21.1 172 174 174
-50.5 -29.4 21.1 131 133 132
-50.0 -29.4 21.1 112 112 112
-49.6 -29.4 21.1 200 200 200
-49.1 -29.4 21.1 202 202 202
-48.5 -29.4 21.1 54 54 54
-48.1 -29.4 21.1 41 41 41
-47.6 -29.4 21.1 137 137 137
-47.8 -29.8 21.4 107 109 109
-45.2 -29.4 21.1 119 119 119
-44.7 -29.4 21.1 26 26 26
-44.2 -29.4 21.1 54 54 54
-43.7 -29.4 21.1 61 61 61
-43.2 -29.4 21.1 68 68 68
-42.7 -29.4 21.1 68 68 68
-42.2 -29.4 21.1 68 68 68
-41.7 -29.4 21.1 68 68 68
-41.2 -29.4 21.1 66 67 65
-40.7 -29.4 21.1 66 67 65
-40.3 -29.4 21.1 66 67 65
-39.8 -29.4 21.1 60 60 60
-39.3 -29.4 21.1 3 9 5
-38.9 -29.4 21.1 85 85 85
-38.5 -29.5 21.2 198 198 198
-37.8 -29.4 21.1 227 227 227
-37.4 -29.4 21.1 219 219 219
-36.9 -29.4 21.1 222 222 222
-36.3 -29.4 21.1 181 184 183
-35.8 -29.4 21.1 118 118 118
-34.9 -29.4 21.1 203 203 203
-34.4 -29.4 21.1 202 202 202
-33.9 -29.4 21.1 224 224 224
-32.9 -29.4 21.1 208 208 208
-32.4 -29.4 21.1 2 7 3
-31.9 -29.4 21.1 62 62 62
-31.4 -29.3 21.0 119 119 119
-30.9 -29.4 21.1 112 112 112
-30.4 -29.4 21.1 126 128 127
-30.0 -29.4 21.1 89 91 90
-29.5 -29.4 21.1 70 70 70
-29.0 -29.4 21.1 19 23 20
-28.5 -29.4 21.1 34 33 32
-27.9 -29.3 21.0 85 85 85
-27.4 -29.3 21.0 58 59 59
-26.9 -29.3 21.0 27 27 27
-25.6 -29.4 21.1 69 71 69
-25.1 -29.4 21.1 42 42 42
-15.2 -29.4 21.1 170 171 170
-14.6 -29.1 20.9 189 189 189
-14.1 -29.1 20.9 181 184 183
-13.5 -28.8 20.7 166 166 166
-13.3 -29.4 21.1 121 123 122
12.2 -14.7 10.6 206 209 208
12.4 -14.6 10.5 206 209 208
13.0 -14.7 10.6 206 209 208
14.9 -14.7 10.5 204 207 206
15.2 -14.7 10.5 204 207 206
296.6 -237.4 170.4 206 209 208
343.9 -271.7 195.0 211 211 211
427.8 -333.6 239.4 207 210 209
33.3 -20.0 14.3 195 195 195
33.7 -19.8 14.2 199 199 199
64.2 -24.4 17.5 159 159 159
62.6 -23.5 16.8 150 150 150
63.8 -23.8 17.1 140 140 140
-32.0 -15.6 11.4 130 130 130
-31.9 -15.7 11.4 115 114 114
-31.7 -15.7 11.5 18 22 19
-31.4 -15.7 11.4 20 23 21
-31.1 -15.7 11.4 24 24 24
-30.9 -15.7 11.4 24 24 24
-30.6 -15.7 11.4 20 23 21
-30.3 -15.7 11.4 18 22 19
-30.1 -15.7 11.4 24 24 24
-29.8 -15.7 11.4 39 41 41
-29.6 -15.7 11.5 39 41 41
-29.3 -15.7 11.5 45 45 45
-29.0 -15.7 11.5 123 125 124
-28.8 -15.7 11.4 172 174 174
-28.4 -15.7 11.4 158 161 160
-28.1 -15.6 11.4 136 136 136
-27.9 -15.7 11.4 119 119 119
-27.6 -15.6 11.4 159 162 161
-27.4 -15.6 11.4 197 197 197
-27.1 -15.7 11.4 114 116 115
-26.8 -15.6 11.4 44 43 42
-26.6 -15.6 11.4 53 53 53
-26.3 -15.6 11.4 45 45 45
-26.1 -15.7 11.4 60 60 60
-25.8 -15.7 11.4 107 109 109
-29.0 -17.8 13.0 103 102 100
-28.4 -17.6 12.8 102 101 99
-27.5 -17.2 12.6 107 109 109
-24.7 -15.7 11.4 123 125 124
-24.0 -15.7 11.5 40 42 42
-23.7 -15.7 11.4 50 50 50
-23.4 -15.6 11.4 59 59 59
-23.1 -15.6 11.4 65 66 64
-22.9 -15.7 11.4 63 63 63
-22.6 -15.7 11.4 63 63 63
-22.3 -15.7 11.4 61 61 61
-22.1 -15.7 11.4 61 61 61
-21.8 -15.7 11.4 61 61 61
-21.6 -15.7 11.4 51 51 51
-21.3 -15.7 11.4 16 16 16
-21.0 -15.7 11.4 59 59 59
-20.8 -15.7 11.4 80 82 79
-20.5 -15.7 11.4 86 87 85
-20.2 -15.7 11.4 175 175 175
-20.0 -15.7 11.4 219 219 219
-19.7 -15.7 11.4 220 220 220
-19.4 -15.7 11.4 224 224 224
-19.2 -15.7 11.4 225 225 225
-18.9 -15.7 11.4 222 222 222
-18.6 -15.7 11.4 221 221 221
-18.4 -15.7 11.4 221 221 221
-18.1 -15.7 11.4 213 215 215
-17.9 -15.7 11.5 208 208 208
-17.6 -15.7 11.5 2 7 3
-17.3 -15.6 11.4 73 73 73
-17.0 -15.6 11.4 18 22 19
-16.8 -15.6 11.4 26 26 26
-16.5 -15.7 11.4 33 33 31
-16.2 -15.6 11.4 26 26 26
-16.0 -15.7 11.4 104 104 104
-15.7 -15.7 11.4 34 33 32
-15.4 -15.7 11.4 31 32 30
-15.2 -15.7 11.4 131 131 131
-14.9 -15.7 11.4 29 29 29
-14.6 -15.6 11.4 29 29 29
-14.4 -15.6 11.4 36 36 36
-14.1 -15.7 11.4 43 45 44
-13.8 -15.6 11.4 82 82 82
-13.6 -15.6 11.4 41 41 41
-13.3 -15.6 11.4 72 72 72
-13.1 -15.7 11.4 40 40 40
-12.8 -15.7 11.4 90 89 88
-12.0 -15.6 11.4 27 27 27
-11.7 -15.6 11.4 29 30 28
-11.4 -15.6 11.4 34 34 34
-11.2 -15.7 11.5 49 49 49
-10.9 -15.7 11.5 138 138 138
11.3 -13.9 10.2 206 209 208
11.5 -13.9 10.1 210 210 210
12.3 -14.2 10.4 210 210 210
12.5 -14.2 10.4 210 210 210
14.2 -14.4 10.5 209 209 209
14.4 -14.4 10.5 211 211 211
14.8 -14.3 10.4 204 207 206
337.0 -261.8 191.1 210 210 210
433.3 -332.3 242.5 206 209 208
33.2 -19.6 14.3 197 197 197
33.5 -19.6 14.3 200 200 200
33.7 -19.5 14.2 200 200 200
33.5 -19.2 14.0 200 200 200
81.6 -31.3 22.8 188 188 188
82.1 -31.3 22.8 178 181 180
64.7 -23.7 17.3 132 135 134
-31.3 -15.6 11.6 18 22 19
-30.5 -15.6 11.6 45 45 45
-28.3 -15.6 11.6 197 200 199
-27.9 -15.5 11.5 141 141 141
-27.7 -15.6 11.6 112 112 112
-27.4 -15.6 11.6 67 67 67
-27.1 -15.6 11.5 58 58 58
-26.9 -15.5 11.5 47 47 47
-26.6 -15.6 11.6 29 31 29
-26.4 -15.6 11.6 83 83 83
-26.1 -15.5 11.5 88 90 89
-29.7 -17.9 13.3 87 89 88
-24.2 -15.6 11.6 18 22 19
-23.9 -15.5 11.5 29 31 29
-23.6 -15.5 11.5 50 50 50
-23.4 -15.6 11.6 57 57 55
-23.1 -15.6 11.6 62 62 62
-22.9 -15.6 11.6 57 57 55
-22.6 -15.6 11.6 57 57 55
-22.3 -15.6 11.6 57 57 55
-21.8 -15.6 11.6 50 50 50
-21.5 -15.6 11.6 23 23 23
-21.3 -15.6 11.6 47 47 47
-21.0 -15.6 11.6 63 63 63
-20.7 -15.6 11.6 63 63 63
-20.4 -15.6 11.6 175 175 175
-20.2 -15.6 11.6 183 183 183
-19.9 -15.6 11.6 176 179 178
-19.6 -15.6 11.6 182 185 184
-19.4 -15.6 11.6 188 188 188
-19.1 -15.6 11.6 202 202 202
-18.8 -15.6 11.6 204 204 204
-18.6 -15.6 11.6 214 214 214
-18.3 -15.6 11.6 213 215 215
-18.1 -15.6 11.6 197 200 199
-17.8 -15.6 11.5 6 7 7
-17.4 -15.5 11.5 72 72 72
-17.2 -15.5 11.5 62 62 62
-16.9 -15.5 11.5 79 81 79
-16.7 -15.5 11.5 112 112 112
-16.3 -15.5 11.5 104 104 104
-16.1 -15.5 11.5 123 123 123
-15.9 -15.5 11.5 35 35 35
-15.6 -15.6 11.6 46 46 44
-15.3 -15.6 11.6 132 132 132
-15.1 -15.6 11.6 33 33 31
-14.8 -15.5 11.5 35 35 35
-14.5 -15.5 11.5 33 33 31
-14.3 -15.6 11.5 42 44 43
-14.0 -15.5 11.5 97 96 94
-13.7 -15.5 11.5 41 43 42
-13.0 -15.6 11.6 29 31 29
-11.8 -15.5 11.5 31 30 29
-11.5 -15.5 11.5 38 40 40
-11.3 -15.5 11.5 105 105 105
-15.8 -32.6 24.2 171 173 173
-15.8 -33.8 25.1 170 172 172
-15.3 -33.9 25.2 15 19 16
11.5 -13.6 10.1 210 210 210
12.2 -13.9 10.3 210 210 210
12.3 -13.7 10.2 210 210 210
12.5 -13.7 10.2 209 209 209
14.0 -13.8 10.2 208 208 208
14.2 -13.8 10.2 208 208 208
14.5 -13.8 10.3 208 208 208
14.7 -13.8 10.2 208 208 208
351.2 -268.2 199.1 210 210 210
422.5 -318.5 236.5 210 210 210
684.8 -509.5 378.3 211 211 211
418.1 -303.3 225.2 211 211 211
301.3 -215.9 160.3 211 211 211
33.5 -19.5 14.5 200 200 200
33.8 -19.4 14.4 200 200 200
34.0 -19.3 14.4 200 200 200
84.0 -31.6 23.5 189 189 189
84.9 -31.8 23.6 175 175 175
-31.3 -18.3 13.9 123 125 124
-30.5 -18.1 13.6 134 137 136
-17.8 -15.3 11.6 23 23 23
-16.0 -15.2 11.5 120 120 120
-17.7 -33.5 25.3 181 181 181
-17.0 -33.3 25.2 173 175 175
-16.5 -33.4 25.2 163 163 163
-16.2 -33.9 25.6 150 152 152
-15.2 -34.5 26.1 40 40 40
417.0 -313.0 236.5 210 210 210
482.9 -357.7 270.2 210 210 210
630.5 -455.2 343.9 211 211 211
423.1 -301.7 227.9 211 211 211
275.6 -194.1 146.6 211 211 211
34.2 -19.1 14.4 202 202 202
85.0 -31.7 23.9 181 184 183
84.9 -31.4 23.7 181 184 183
86.2 -31.7 23.9 172 172 172
86.3 -31.5 23.8 168 168 168
-31.3 -18.0 13.9 18 22 19
-27.2 -16.2 12.5 87 89 88
-19.4 -34.8 26.8 185 185 185
-18.4 -34.3 26.3 177 180 179
-17.5 -33.6 25.8 150 150 150
-16.9 -33.7 25.9 91 93 92
-16.8 -34.6 26.6 85 85 85
-16.3 -34.9 26.9 55 55 55
-15.5 -34.5 26.5 48 48 48
369.7 -258.9 199.1 211 211 211
267.4 -184.9 142.2 211 211 211
86.3 -31.4 24.1 158 158 158
87.5 -31.6 24.3 151 153 153
87.5 -31.4 24.2 139 141 140
72.0 -24.9 19.1 129 132 131
75.9 -26.1 20.0 133 133 133
76.4 -26.1 20.1 129 132 131
-27.4 -15.2 11.9 23 23 23
-27.1 -15.2 11.9 18 22 19
-27.2 -15.9 12.4 113 115 114
-26.0 -15.3 12.0 191 194 193
-19.5 -34.4 26.9 190 192 192
-18.8 -34.3 26.8 177 180 179
-17.8 -33.5 26.2 134 137 136
-17.3 -33.8 26.5 87 87 87
-16.9 -34.3 26.8 89 91 90
-16.4 -34.6 27.1 54 54 54
-15.6 -34.0 26.6 116 118 117
90.0 -31.5 24.7 131 134 133
77.2 -26.0 20.4 129 129 129
77.4 -25.9 20.3 129 129 129
-26.9 -15.4 12.3 154 154 154
-26.2 -15.2 12.1 154 154 154
-17.3 -33.1 26.4 91 94 93
-16.9 -33.7 26.9 89 91 90
-16.5 -34.1 27.2 72 72 72
-15.6 -33.6 26.8 113 114 113
17.1 -14.2 11.3 209 209 209
92.3 -31.8 25.3 122 122 122
76.8 -25.4 20.3 127 127 127
76.6 -25.2 20.1 127 127 127
-27.1 -15.2 12.4 146 148 148
-26.4 -15.0 12.2 134 137 136
-18.0 -33.8 27.5 94 94 94
-17.2 -33.5 27.2 92 92 92
-16.7 -33.9 27.5 80 83 82
14.5 -12.6 10.3 209 209 209
14.7 -12.6 10.2 209 209 209
17.0 -13.9 11.3 209 209 209
93.7 -31.6 25.7 112 112 112
94.2 -31.6 25.7 113 114 113
76.6 -24.9 20.2 116 118 117
76.2 -24.6 20.0 133 133 133
-27.2 -15.0 12.4 147 147 147
94.4 -31.2 25.9 109 111 111
94.7 -31.2 25.8 109 111 111
77.6 -24.7 20.5 84 84 84
76.6 -24.3 20.1 153 153 153
79.3 -24.8 20.9 64 64 64
77.5 -24.1 20.3 157 160 159
-27.2 -14.4 12.4 134 137 136
-26.3 -14.1 12.1 164 164 164
-20.6 -40.9 35.2 90 90 90
-19.6 -40.5 34.9 113 115 114
-26.9 -14.0 12.3 183 183 183
-26.2 -13.8 12.1 173 173 173
-22.5 -40.7 35.8 95 98 97
-21.8 -40.8 35.8 83 83 83
-21.4 -41.7 36.7 115 114 114
16.7 -12.4 10.9 211 211 211
-26.9 -13.7 12.3 33 32 30
-26.3 -13.5 12.1 82 82 82
-23.5 -41.5 37.2 95 98 97
-22.7 -41.7 37.4 108 108 108
-22.2 -42.4 38.1 20 20 20
16.7 -12.2 10.9 215 215 215
17.6 -12.2 11.0 216 216 216
17.6 -12.1 10.8 216 216 216
42.8 -19.4 17.4 183 183 183
42.4 -19.0 17.1 117 117 117
-107.6 -46.7 42.8 78 80 78
-107.3 -47.0 43.1 78 80 78
-104.9 -46.4 42.5 88 90 89
-105.1 -46.9 43.0 98 98 98
-103.6 -46.7 42.8 196 196 196
-103.1 -46.9 43.0 200 200 200
-101.8 -46.8 42.9 115 115 115
-28.2 -13.9 12.8 20 23 21
-27.3 -13.6 12.5 13 13 13
-25.2 -43.5 39.9 100 100 100
-24.1 -43.3 39.7 110 110 110
-23.8 -44.5 40.8 14 18 15
16.8 -11.9 10.9 215 215 215
17.7 -12.0 11.0 216 216 216
17.6 -11.8 10.9 217 217 217
42.5 -18.8 17.3 193 193 193
42.4 -18.6 17.1 123 123 123
-108.8 -46.7 43.7 177 177 177
-107.8 -46.7 43.7 171 173 173
-106.5 -46.5 43.6 88 90 89
-105.2 -46.4 43.5 145 145 144
-104.5 -46.5 43.6 158 158 158
-103.7 -46.7 43.7 144 144 144
-28.1 -13.6 12.7 26 26 26
-27.5 -13.4 12.6 17 17 17
-26.3 -44.6 41.8 101 101 101
-24.9 -43.8 41.0 109 109 109
-24.3 -44.4 41.6 19 19 19
15.2 -11.7 10.9 216 216 216
15.5 -11.7 10.9 216 216 216
15.7 -11.6 10.9 216 216 216
17.0 -12.0 11.3 216 216 216
16.8 -11.7 11.0 216 216 216
17.8 -12.1 11.3 216 216 216
17.7 -11.8 11.0 216 216 216
17.7 -11.6 10.9 214 214 214
17.4 -11.3 10.6 214 214 214
41.9 -18.0 16.9 123 123 123
-28.1 -13.3 12.7 41 41 41
-27.4 -13.1 12.5 26 26 26
-25.5 -43.8 41.9 111 111 111
15.0 -11.1 10.6 216 216 216
15.3 -11.1 10.6 216 216 216
15.5 -11.0 10.6 216 216 216
17.0 -11.8 11.3 216 216 216
16.8 -11.4 10.9 216 216 216
17.6 -11.5 11.0 216 216 216
17.5 -11.2 10.8 217 220 219
17.4 -11.0 10.5 218 221 220
17.8 -11.1 10.6 218 221 220
17.9 -11.0 10.6 217 217 217
557.4 -313.7 300.3 219 219 219
581.1 -290.6 278.2 181 181 181
41.8 -17.6 16.8 116 118 117
-138.4 -54.7 53.6 174 174 174
-136.8 -54.6 53.4 24 24 24
-135.9 -54.7 53.6 78 80 78
-134.3 -54.6 53.4 78 80 78
-132.7 -54.4 53.3 77 78 76
-131.4 -54.4 53.3 78 80 78
-130.2 -54.4 53.3 79 81 79
-129.3 -54.6 53.4 130 130 130
-127.7 -54.4 53.3 136 138 137
-126.8 -54.6 53.4 145 147 147
-125.2 -54.4 53.3 112 112 112
-28.1 -13.0 12.7 54 54 54
-111.3 -54.9 53.7 122 122 122
-110.1 -54.9 53.7 141 141 141
-108.2 -54.6 53.4 165 168 167
-105.4 -54.4 53.3 65 66 64
-103.9 -54.3 53.1 67 67 67
-100.7 -55.2 54.0 229 229 229
-97.5 -54.1 53.0 229 229 229
-94.6 -53.2 52.1 230 230 230
-95.3 -54.3 53.1 228 228 228
-94.6 -54.6 53.4 225 225 225
-92.5 -54.1 53.0 216 219 218
-91.8 -54.4 53.3 206 209 208
-90.8 -54.6 53.4 47 47 47
-28.8 -50.3 49.3 21 21 21
-27.1 -49.4 48.4 28 28 28
15.5 -10.8 10.6 216 216 216
17.4 -10.9 10.7 218 221 220
17.2 -10.7 10.4 218 221 220
17.7 -10.8 10.6 218 221 220
541.9 -301.9 295.6 219 219 219
413.2 -227.3 222.5 219 219 219
306.5 -166.6 163.1 219 219 219
513.2 -250.9 245.7 183 183 183
40.5 -16.5 16.1 82 82 82
-135.1 -53.6 53.7 67 69 67
-133.4 -53.5 53.6 73 73 73
-130.6 -53.3 53.4 75 75 75
-130.1 -53.6 53.7 167 167 167
-128.4 -53.5 53.6 145 147 147
-127.6 -53.6 53.7 166 166 166
-111.0 -54.1 54.2 145 145 144
-109.5 -53.9 54.0 162 162 162
-106.0 -53.5 53.6 59 59 59
-98.8 -53.6 53.7 228 228 228
-96.5 -53.0 53.1 236 236 236
-95.8 -53.3 53.4 230 230 230
-95.1 -53.6 53.7 227 227 227
-93.3 -53.3 53.4 221 221 221
-31.4 -51.6 51.7 110 110 110
-30.0 -51.3 51.4 46 46 46
-28.5 -50.8 50.9 22 22 22
14.6 -10.1 10.1 216 216 216
17.1 -10.4 10.4 218 221 220
17.5 -10.2 10.2 218 221 220
385.9 -207.5 207.9 219 219 219
282.2 -149.9 150.1 219 219 219
658.6 -314.7 315.3 184 184 184
-38.2 -69.3 71.1 160 163 162
17.1 -10.1 10.4 218 221 220
17.4 -10.0 10.3 218 221 220
418.1 -219.6 225.2 220 223 222
190.8 -86.2 88.4 200 200 200
-40.2 -65.5 68.8 29 29 29
-39.6 -70.1 73.6 170 171 170
-37.9 -70.1 73.6 180 180 180
17.1 -9.9 10.4 218 221 220
17.4 -9.8 10.3 218 221 220
280.0 -141.8 148.9 220 223 222
246.3 -109.8 115.3 198 198 198
198.2 -87.4 91.8 200 200 200
-28.1 -11.8 12.7 59 59 59
-27.2 -11.6 12.4 69 69 69
-47.9 -73.2 78.8 109 109 109
-43.2 -68.6 73.9 31 31 31
-41.4 -68.6 73.9 14 18 15
-40.2 -69.4 74.8 169 169 169
17.1 -9.7 10.4 218 221 220
17.4 -9.5 10.3 218 221 220
17.5 -9.5 10.2 218 221 220
277.8 -137.2 147.8 220 223 222
244.8 -106.4 114.6 198 198 198
-55.2 -82.3 90.9 103 103 103
-48.2 -74.8 82.6 29 29 29
-47.1 -76.1 84.1 20 20 20
-42.5 -71.6 79.1 170 172 172
16.1 -9.4 10.4 219 222 221
16.1 -9.2 10.2 220 223 222
17.1 -9.4 10.4 218 221 220
17.3 -9.4 10.4 218 221 220
17.4 -9.3 10.3 218 221 220
17.5 -9.2 10.2 218 221 220
239.0 -101.3 111.9 198 198 198
-28.2 -11.3 12.8 60 60 60
-27.4 -11.1 12.5 63 63 63
-106.9 -183.3 207.9 180 180 180
16.1 -9.1 10.4 220 223 222
16.0 -9.0 10.2 220 223 222
17.1 -9.1 10.4 218 221 220
17.3 -9.2 10.4 218 221 220
17.4 -9.1 10.3 218 221 220
17.5 -9.0 10.2 218 221 220
247.8 -102.4 116.1 199 199 199
-28.1 -10.9 12.7 70 70 70
-27.2 -10.7 12.4 70 70 70
-26.4 -10.5 12.2 67 69 67
-141.0 -235.4 274.1 180 183 182
16.2 -8.9 10.4 220 223 222
17.6 -9.3 10.8 220 223 222
17.2 -9.0 10.4 220 223 222
17.5 -8.9 10.4 218 221 220
223.2 -89.7 104.5 197 197 197
-26.9 -10.3 12.3 71 71 71
-110.5 -158.0 189.2 29 29 29
-203.4 -316.1 378.3 168 170 169
-180.2 -292.7 350.3 177 177 177
17.4 -9.0 10.7 220 223 222
17.2 -8.7 10.5 220 223 222
17.7 -8.9 10.6 222 224 224
17.5 -8.5 10.2 222 224 224
240.7 -95.2 114.0 175 177 177
224.4 -87.8 105.1 191 191 191
-202.7 -320.1 394.1 178 178 178
15.9 -8.2 10.1 220 223 222
17.4 -8.7 10.7 220 223 222
17.2 -8.5 10.4 222 224 224
17.8 -8.6 10.6 222 224 224
17.4 -8.3 10.3 222 224 224
17.5 -8.3 10.2 222 224 224
17.5 -8.2 10.1 222 224 224
17.8 -8.2 10.1 219 222 221
17.9 -8.1 10.0 222 224 224
239.3 -92.0 113.3 182 182 182
225.7 -85.8 105.7 191 191 191
194.4 -73.2 90.1 195 195 195
106.3 -139.5 176.8 223 225 225
94.5 -119.4 151.3 223 225 225
15.8 -7.9 10.0 220 223 222
17.7 -8.7 11.1 220 223 222
17.7 -8.6 10.9 222 224 224
17.4 -7.9 10.0 222 224 224
17.7 -7.9 10.0 222 224 224
249.7 -93.3 118.2 175 175 175
232.2 -85.8 108.7 186 186 186
181.5 -66.3 84.1 193 193 193
40.5 -122.8 160.3 154 156 156
40.5 -112.3 146.6 153 153 153
41.3 -105.7 138.1 151 151 151
47.3 -112.3 146.6 148 148 148
54.0 -119.7 156.3 152 152 152
55.4 -115.0 150.1 152 152 152
57.5 -112.3 146.6 152 152 152
94.8 -120.7 157.6 223 225 225
90.2 -110.6 144.4 223 225 225
91.5 -108.1 141.2 223 225 225
122.9 -127.1 165.9 220 220 220
114.7 -115.0 150.1 220 220 220
122.7 -115.9 151.3 220 220 220
120.4 -110.6 144.4 220 220 220
124.7 -111.4 145.5 220 220 220
129.1 -112.3 146.6 220 220 220
123.0 -104.2 136.1 220 220 220
17.7 -8.5 11.0 222 224 224
17.7 -8.3 10.9 222 224 224
17.9 -8.3 10.8 222 224 224
18.1 -8.3 10.8 222 224 224
243.6 -88.3 115.3 132 132 132
236.2 -84.7 110.6 158 161 160
183.1 -65.0 84.8 195 195 195
42.3 -124.3 167.4 154 156 156
42.4 -114.2 153.8 153 153 153
48.4 -111.5 150.1 151 151 151
56.4 -121.1 163.1 151 151 151
58.2 -117.0 157.6 152 152 152
98.1 -121.1 163.1 225 227 227
92.3 -109.7 147.8 223 225 225
127.4 -127.7 172.0 220 220 220
122.5 -119.0 160.3 220 220 220
129.5 -122.1 164.5 220 220 220
128.8 -118.0 159.0 220 220 220
123.2 -109.7 147.8 220 220 220
129.7 -112.4 151.3 220 220 220
132.2 -111.5 150.1 220 220 220
17.7 -8.2 11.1 222 224 224
17.7 -8.1 10.9 222 224 224
17.9 -8.1 10.8 222 224 224
18.1 -8.0 10.8 222 224 224
194.4 -66.9 90.1 197 197 197
39.9 -95.8 133.2 151 151 151
102.5 -122.6 170.4 221 221 221
91.6 -105.5 146.6 221 221 221
17.8 -8.0 11.1 222 224 224
17.8 -7.9 10.9 222 224 224
17.6 -7.7 10.7 222 224 224
18.0 -7.8 10.8 222 224 224
243.3 -82.0 114.0 152 154 154
17.8 -7.7 11.1 222 224 224
17.6 -7.6 10.9 222 224 224
17.5 -7.4 10.6 222 224 224
18.0 -7.5 10.7 222 224 224
246.3 -80.3 115.3 152 154 154
17.8 -7.5 11.1 222 224 224
17.6 -7.3 10.9 222 224 224
17.5 -7.2 10.6 222 224 224
17.8 -7.2 11.1 223 225 225
17.8 -7.1 11.0 223 225 225
17.5 -6.9 10.6 223 225 225
17.8 -7.0 11.1 223 225 225
17.8 -6.9 11.0 223 225 225
190.8 -55.4 88.4 175 177 177
150.6 -43.2 69.0 190 190 190
114.1 -31.1 49.6 198 198 198
17.8 -6.7 11.1 223 225 225
17.7 -6.6 10.9 224 226 226
178.3 -49.8 82.6 174 176 176
112.2 -31.0 51.4 188 188 188
194.5 -50.0 83.0 202 202 202
194.7 -49.6 82.2 202 202 202
188.5 -47.5 78.8 205 205 205
17.8 -6.5 11.1 220 223 222
17.8 -6.4 11.0 220 223 222
249.7 -68.6 118.2 87 87 87
233.5 -63.4 109.3 150 150 150
179.1 -48.1 83.0 173 173 173
256.4 -68.1 117.5 188 188 188
263.5 -66.5 114.6 198 198 198
234.8 -58.7 101.2 199 199 199
194.5 -48.1 83.0 202 202 202
195.6 -47.9 82.6 202 202 202
190.8 -46.3 79.8 205 205 205
82.0 -12.5 21.5 88 90 89
17.8 -6.2 11.1 222 224 224
249.7 -65.8 118.2 70 72 72
241.9 -63.0 113.3 138 138 138
188.2 -48.5 87.2 173 173 173
277.0 -70.7 127.0 186 186 186
267.4 -67.5 121.3 191 191 191
263.5 -65.8 118.2 193 193 193
266.2 -65.8 118.2 193 193 193
269.0 -65.8 118.2 198 198 198
268.3 -65.0 116.8 199 199 199
238.7 -57.2 102.8 199 199 199
211.2 -50.1 90.1 202 202 202
208.3 -49.0 88.0 205 205 205
212.4 -49.4 88.8 205 205 205
273.5 -63.0 113.3 197 197 197
263.5 -60.2 108.1 236 236 236
83.1 -12.2 21.9 88 90 89
82.3 -12.0 21.6 99 99 99
17.8 -5.9 11.1 222 224 224
332.1 -84.8 159.0 173 173 173
252.9 -63.9 119.7 120 120 120
240.4 -60.1 112.6 141 141 141
196.3 -48.5 90.9 172 172 172
286.6 -70.1 131.4 186 186 186
285.7 -69.1 129.6 189 189 189
271.7 -63.1 118.2 196 196 196
231.1 -53.1 99.6 199 199 199
218.5 -49.7 93.2 202 202 202
217.4 -49.0 91.8 203 203 203
218.5 -48.7 91.4 205 205 205
267.1 -59.0 110.6 197 197 197
256.2 -56.0 105.1 234 234 234
235.1 -51.0 95.5 235 235 235
82.2 -11.6 21.7 92 92 92
81.3 -11.4 21.4 100 102 102
17.8 -5.7 11.1 222 222 222
246.6 -59.6 116.8 67 67 67
216.0 -51.6 101.2 141 140 139
195.4 -46.2 90.5 173 175 175
225.2 -49.5 97.0 199 199 199
214.3 -46.6 91.4 203 203 203
216.4 -46.6 91.4 200 200 200
217.5 -46.4 90.9 205 205 205
236.6 -50.0 98.0 197 197 197
242.7 -50.8 99.6 224 226 226
229.3 -47.5 93.2 221 221 221
243.2 -49.5 97.0 71 71 71
80.1 -10.7 21.0 86 88 88
17.8 -5.4 11.1 222 222 222
169.4 -38.2 78.5 173 173 173
655.1 -146.2 300.3 186 186 186
726.8 -158.8 326.1 189 189 189
788.8 -170.5 350.3 194 194 194
683.1 -146.2 300.3 194 194 194
587.5 -124.5 255.6 197 197 197
179.5 -36.5 75.1 203 203 203
175.0 -35.3 72.5 198 198 198
176.7 -35.3 72.5 219 219 219
175.7 -34.8 71.4 221 221 221
184.1 -35.4 72.8 67 67 67
180.3 -34.4 70.6 66 66 66
179.2 -33.9 69.5 62 64 64
17.8 -5.2 11.1 224 224 224
550.3 -111.0 239.4 197 197 197
180.2 -34.9 75.4 203 203 203
181.1 -34.1 73.6 222 222 222
188.5 -34.5 74.5 66 66 66
17.9 -4.9 11.2 224 224 224
983.8 -166.6 378.3 61 64 63
896.5 -164.4 394.1 192 192 192
894.3 -143.5 343.9 61 64 63
712.9 -101.6 274.1 59 59 59
522.4 -73.8 199.1 62 64 64
768.6 -102.7 295.6 59 59 59
545.4 -72.2 207.9 63 65 65
806.4 -100.5 310.1 58 59 59
894.3 -103.5 343.9 58 59 59
523.3 -37.2 201.2 79 81 80
1015.6 -63.6 394.1 73 73 73
528.9 -32.8 203.4 75 76 76
455.3 -28.0 173.5 65 67 66
93.2 -15.0 108.7 204 204 204
95.2 -14.9 108.1 207 207 207
97.7 -14.9 108.1 204 204 204
100.2 -14.9 108.1 200 200 200
102.7 -14.9 108.1 169 171 170
105.2 -14.9 108.1 64 64 64
324.7 -18.4 133.2 215 218 217
1015.6 -54.5 394.1 73 73 73
95.6 -13.2 114.6 202 202 202
97.7 -13.1 114.0 205 205 205
99.7 -13.0 113.3 205 205 205
102.3 -13.0 113.3 205 205 205
105.0 -13.0 113.3 202 202 202
107.6 -13.0 113.3 169 169 169
288.2 -13.6 118.2 211 211 211
318.1 -13.9 121.3 59 59 59
303.4 -13.2 114.6 59 59 59
793.4 -28.0 305.1 66 66 66
28.4 -0.9 13.4 191 191 191
27.0 -0.6 13.1 220 223 222
27.5 -0.6 13.2 174 176 176
28.1 -0.6 13.3 192 192 192
28.3 -0.6 13.3 197 197 197
27.1 -0.3 13.0 177 180 179
28.0 -0.3 13.2 192 192 192
1024.8 64.6 394.1 82 82 82
-60.7 4.1 22.1 58 59 59
-58.6 4.1 22.1 59 59 59
-42.4 4.1 22.0 183 183 183
-42.4 4.2 22.2 175 177 177
-41.8 4.1 22.2 180 180 180
729.5 57.1 305.1 200 200 200
681.7 52.9 282.3 195 195 195
955.9 69.4 370.9 169 169 169
664.7 47.9 255.6 172 174 174
628.2 44.8 239.4 161 161 161
-62.6 4.7 22.2 55 55 55
-62.1 4.7 22.2 58 58 58
-61.5 4.7 22.2 58 58 58
-60.9 4.7 22.2 60 60 60
-60.4 4.7 22.2 60 60 60
-59.9 4.7 22.2 60 60 60
-59.3 4.7 22.2 60 60 60
-58.8 4.7 22.2 58 59 59
-58.4 4.7 22.2 58 59 59
-57.8 4.7 22.2 61 61 61
-57.3 4.7 22.2 61 61 61
-56.8 4.7 22.2 63 64 62
-56.4 4.7 22.3 65 66 64
-56.0 4.7 22.3 65 66 64
-55.3 4.7 22.2 123 123 123
-45.4 4.7 22.4 199 199 199
-44.6 4.7 22.3 196 196 196
-44.0 4.7 22.3 196 196 196
-43.4 4.7 22.2 193 193 193
-42.9 4.7 22.2 190 190 190
-42.5 4.7 22.3 186 188 187
-41.9 4.7 22.2 186 188 187
723.4 58.5 278.2 188 190 190
90.6 7.3 23.9 122 122 122
91.6 7.9 24.2 141 143 142
93.2 8.6 24.5 151 151 151
95.0 8.7 24.8 147 147 147
94.4 9.3 24.8 160 160 160
95.8 9.3 25.0 150 150 150
96.0 9.9 25.1 138 138 138
-314.0 131.2 201.2 150 152 152
-386.4 189.8 291.0 112 114 113
-308.5 154.2 236.5 89 89 87
-315.7 166.7 255.6 97 96 94
-233.4 145.1 222.5 134 136 135
-228.3 145.1 222.5 129 129 129
-223.1 145.1 222.5 105 107 107
-217.9 145.1 222.5 149 149 149
-212.7 145.1 222.5 149 151 151
-152.7 152.3 233.5 74 74 74
-126.9 131.2 201.2 119 118 117
-104.6 132.6 203.4 152 154 154
-93.8 145.1 222.5 206 206 206
-81.0 132.6 203.4 200 200 200
-85.4 148.6 227.9 208 211 210
99.5 156.1 239.4 62 64 61
86.4 128.5 197.0 67 67 67
109.3 140.2 215.0 72 72 72
119.7 146.8 225.2 65 66 64
112.9 132.6 203.4 19 23 20
168.2 189.8 291.0 55 55 55
24.8 9.1 11.1 195 198 197
-321.2 174.3 197.0 187 189 189
-133.4 174.3 197.0 80 80 80
-128.8 174.3 197.0 72 74 74
-84.9 169.0 191.1 153 155 155
-81.3 170.7 193.0 67 67 67
-75.3 167.3 189.2 124 126 125
-70.9 167.3 189.2 39 38 37
13.0 172.5 195.0 209 212 211
90.9 165.7 187.3 170 171 170
100.2 174.3 197.0 147 147 147
146.0 179.9 203.4 23 26 24
-393.0 184.6 203.4 119 119 119
-376.1 178.9 197.0 122 124 123
-375.5 180.8 199.1 125 125 125
-374.8 182.7 201.2 139 139 139
-362.4 178.9 197.0 195 195 195
-357.8 178.9 197.0 197 200 199
-353.2 178.9 197.0 197 197 197
-348.7 178.9 197.0 197 200 199
-351.4 182.7 201.2 195 198 197
-339.5 178.9 197.0 209 208 206
-338.4 180.8 199.1 204 204 204
-341.0 184.6 203.4 184 187 186
-332.7 182.7 201.2 109 111 111
-321.2 178.9 197.0 30 30 30
-313.3 177.0 195.0 54 54 54
-312.0 178.9 197.0 56 57 55
-301.2 175.2 193.0 58 59 59
-333.0 199.7 220.0 63 63 63
-296.8 180.8 199.1 65 65 65
-301.7 186.6 205.6 65 65 65
-300.2 188.7 207.9 67 67 67
-285.9 182.7 201.2 67 69 67
-278.3 180.8 199.1 69 71 69
-270.8 178.9 197.0 69 71 69
-287.2 192.9 212.5 69 71 69
-279.1 190.8 210.2 75 75 75
-259.8 180.8 199.1 75 76 76
-252.5 178.9 197.0 74 74 74
-264.4 190.8 210.2 75 76 76
-251.2 184.6 203.4 73 73 73
-241.3 180.8 199.1 72 72 72
-236.6 180.8 199.1 41 41 41
-232.0 180.8 199.1 34 36 36
-227.4 180.8 199.1 63 64 62
-222.7 180.8 199.1 13 13 13
-218.1 180.8 199.1 27 29 27
-213.5 180.8 199.1 162 162 162
-208.9 180.8 199.1 148 148 148
-204.2 180.8 199.1 181 181 181
-199.6 180.8 199.1 149 149 149
-195.0 180.8 199.1 104 104 104
-190.3 180.8 199.1 192 195 194
-185.7 180.8 199.1 189 191 191
-181.1 180.8 199.1 161 161 161
-176.5 180.8 199.1 122 122 122
-171.8 180.8 199.1 165 165 165
-167.2 180.8 199.1 147 149 149
-162.6 180.8 199.1 149 149 149
-157.9 180.8 199.1 152 152 152
-148.6 175.2 193.0 154 156 156
-145.6 177.0 195.0 148 148 148
-144.1 180.8 199.1 137 139 138
-138.0 178.9 197.0 91 91 91
-137.7 184.6 203.4 81 81 81
-131.6 182.7 201.2 71 71 71
-120.5 173.4 191.1 80 83 82
-118.4 177.0 195.0 98 98 98
-118.8 184.6 203.4 98 98 98
-115.3 186.6 205.6 147 149 149
-110.5 186.6 205.6 151 151 151
-101.3 178.9 197.0 156 159 158
-96.8 178.9 197.0 153 155 155
-94.1 182.7 201.2 165 168 167
-85.8 175.2 193.0 158 158 158
-83.0 178.9 197.0 89 89 89
-76.1 173.4 191.1 156 156 156
-71.6 173.4 191.1 44 43 42
-42.2 180.8 199.1 63 63 63
-36.8 177.0 195.0 206 209 208
-32.6 178.9 197.0 204 207 206
-29.0 184.6 203.4 205 205 205
-22.8 173.4 191.1 218 218 218
9.2 190.8 210.2 208 211 210
12.8 173.4 191.1 209 209 209
141.1 190.8 210.2 89 90 88
141.2 184.6 203.4 30 29 29
147.5 186.6 205.6 23 23 23
133.5 163.5 180.2 17 17 17
-334.6 222.9 239.4 70 72 69
-360.0 248.0 266.4 69 71 69
-334.9 234.8 252.2 71 72 70
-308.5 220.1 236.5 77 77 77
-340.0 251.6 270.2 75 75 75
-295.7 222.9 239.4 53 53 53
-290.1 222.9 239.4 104 106 106
-284.6 222.9 239.4 63 63 63
-279.0 222.9 239.4 47 46 45
-267.9 222.9 239.4 19 19 19
-245.6 222.9 239.4 163 166 165
-240.0 222.9 239.4 150 150 150
-234.5 222.9 239.4 96 96 96
-228.9 222.9 239.4 191 194 193
-209.5 220.1 236.5 121 121 121
-235.4 293.5 315.3 153 155 155
-173.2 222.9 239.4 136 138 137
-220.8 303.6 326.1 81 81 81
-154.6 220.1 236.5 72 74 74
-187.3 298.5 320.6 97 97 97
-132.1 228.7 245.7 154 154 154
-117.2 212.2 227.9 155 158 157
-110.6 220.1 236.5 169 169 169
-103.8 217.4 233.5 149 149 149
-81.0 189.4 203.4 168 168 168
-82.4 204.8 220.0 71 71 71
11.8 251.6 270.2 208 211 210
15.6 217.4 233.5 209 212 211
155.5 231.7 248.9 98 98 98
176.3 244.6 262.7 92 92 92
160.2 214.8 230.7 25 29 26
167.6 217.4 233.5 19 19 19
144.5 181.6 195.0 11 16 13
218.8 334.3 350.3 92 92 92
234.0 311.2 326.1 11 16 13
27.7 17.3 11.3 168 167 166
