ply
format ascii 1.0
element vertex 2023
property float x
property float y
property float z
property uchar red
property uchar green
property uchar blue
end_header
191.0 -382.8 152.6 158 158 158
196.2 -385.9 153.8 162 162 162
198.1 -382.8 152.6 162 162 162
106.1 -173.9 69.3 155 158 157
106.9 -172.6 68.8 155 158 157
109.7 -174.5 69.5 156 159 158
111.3 -174.5 69.5 156 159 158
112.5 -173.9 69.3 156 159 158
113.7 -173.2 69.0 157 160 159
62.4 -88.7 35.4 156 159 158
62.1 -87.2 34.8 156 159 158
63.1 -41.3 16.5 206 206 206
106.5 -170.4 68.5 160 160 160
123.3 -194.3 78.2 161 161 161
138.3 -214.7 86.4 161 161 161
128.0 -195.9 78.8 156 159 158
63.7 -91.0 36.6 158 161 160
63.2 -89.1 35.8 156 159 158
63.4 -88.2 35.5 159 162 161
66.9 -89.6 36.0 157 160 159
81.3 -58.8 23.6 97 100 99
79.1 -56.8 22.8 97 100 99
79.2 -56.5 22.7 97 100 99
62.1 -40.3 16.2 195 198 197
68.8 -208.9 84.8 165 168 167
70.1 -207.0 84.1 165 168 167
72.1 -207.0 84.1 165 168 167
74.0 -207.0 84.1 165 165 165
76.0 -207.0 84.1 165 165 165
77.9 -207.0 84.1 165 165 165
79.9 -207.0 84.1 166 166 166
81.8 -207.0 84.1 166 169 168
84.2 -208.0 84.4 166 166 166
86.1 -208.0 84.4 166 166 166
87.7 -207.0 84.1 163 163 163
88.9 -205.2 83.3 163 163 163
91.6 -207.0 84.1 163 163 163
94.0 -208.0 84.4 163 163 163
97.2 -210.8 85.6 163 163 163
98.3 -208.9 84.8 163 163 163
98.5 -205.2 83.3 164 164 164
100.0 -204.3 83.0 164 164 164
103.3 -207.0 84.1 164 164 164
106.7 -209.8 85.2 164 164 164
107.7 -208.0 84.4 164 164 164
111.7 -211.7 86.0 164 164 164
112.6 -209.8 85.2 164 164 164
126.6 -224.0 90.9 164 164 164
120.0 -208.9 84.8 162 162 162
122.5 -209.8 85.2 162 162 162
126.8 -213.7 86.8 160 160 160
125.4 -208.0 84.4 163 163 163
123.5 -201.7 81.9 163 163 163
120.2 -193.3 78.5 163 163 163
121.5 -192.5 78.2 163 163 163
133.2 -208.0 84.4 164 164 164
141.5 -217.7 88.4 164 164 164
139.0 -210.8 85.6 161 161 161
131.5 -196.5 79.8 162 162 162
63.9 -89.2 36.2 156 159 158
63.7 -87.7 35.6 159 162 161
72.2 -97.0 39.4 157 160 159
68.6 -91.0 36.9 157 160 159
78.1 -55.9 22.7 97 100 99
77.9 -55.5 22.5 97 100 99
77.6 -54.9 22.3 97 100 99
77.8 -54.6 22.2 95 98 97
78.5 -54.7 22.2 94 94 94
77.9 -54.0 21.9 91 91 91
57.1 -37.9 15.4 198 201 200
56.5 -37.2 15.1 162 165 164
54.9 -35.9 14.6 162 165 164
62.5 -40.4 16.4 181 184 183
62.0 -39.8 16.2 195 198 197
36.1 -190.7 78.2 160 160 160
37.9 -190.7 78.2 162 162 162
39.7 -190.7 78.2 162 162 162
43.4 -190.7 78.2 164 164 164
45.2 -190.7 78.2 164 164 164
47.0 -190.7 78.2 164 167 166
48.8 -190.7 78.2 164 167 166
50.6 -190.7 78.2 164 167 166
52.5 -190.7 78.2 164 167 166
54.3 -190.7 78.2 164 167 166
56.1 -190.7 78.2 165 168 167
57.9 -190.7 78.2 165 168 167
59.7 -190.7 78.2 165 168 167
61.5 -190.7 78.2 165 168 167
63.4 -190.7 78.2 165 168 167
65.2 -190.7 78.2 165 168 167
67.0 -190.7 78.2 165 168 167
68.8 -190.7 78.2 165 165 165
70.6 -190.7 78.2 165 165 165
72.4 -190.7 78.2 165 165 165
74.3 -190.7 78.2 166 166 166
76.1 -190.7 78.2 163 163 163
78.2 -191.5 78.5 160 160 160
80.0 -191.5 78.5 166 166 166
81.5 -190.7 78.2 166 166 166
83.0 -189.9 77.8 163 163 163
85.2 -190.7 78.2 163 163 163
87.7 -192.3 78.8 163 163 163
89.5 -192.3 78.8 163 163 163
89.5 -188.3 77.2 163 163 163
92.0 -189.9 77.8 164 164 164
89.8 -181.7 74.5 164 164 164
95.7 -189.9 77.8 164 164 164
99.1 -193.1 79.1 164 164 164
98.5 -188.3 77.2 164 164 164
101.5 -190.7 78.2 164 164 164
103.8 -191.5 78.5 164 164 164
103.9 -188.3 77.2 164 164 164
110.2 -196.4 80.5 164 164 164
111.5 -195.5 80.2 164 164 164
107.5 -185.3 76.0 164 164 164
112.0 -189.9 77.8 168 168 168
117.6 -196.4 80.5 165 165 165
119.0 -195.5 80.2 163 163 163
116.9 -189.1 77.5 163 163 163
117.1 -183.8 75.4 163 163 163
124.3 -192.3 78.8 164 164 164
132.8 -202.4 83.0 164 164 164
133.6 -200.6 82.2 164 164 164
126.2 -186.8 76.6 165 165 165
63.8 -88.2 36.2 164 164 164
62.8 -85.8 35.2 164 164 164
71.5 -95.1 39.0 160 163 162
67.3 -88.4 36.2 160 163 162
99.6 -72.7 29.8 104 104 104
76.1 -54.0 22.2 97 100 99
76.2 -53.7 22.0 97 100 99
76.4 -53.5 21.9 97 100 99
76.7 -53.3 21.9 95 98 97
77.5 -53.5 21.9 94 94 94
57.1 -37.5 15.4 203 203 203
56.6 -36.9 15.1 206 206 206
55.4 -35.9 14.7 208 208 208
63.9 -41.2 16.9 208 208 208
63.4 -40.6 16.6 198 201 200
68.4 -139.8 57.8 166 166 166
69.8 -137.2 56.8 164 164 164
62.5 -120.6 49.9 167 167 167
72.2 -136.8 56.6 167 167 167
72.3 -134.4 55.6 167 167 167
65.0 -118.7 49.1 167 167 167
129.1 -206.8 85.6 168 168 168
59.3 -92.1 38.1 168 168 168
134.4 -205.9 85.2 166 166 166
144.9 -218.7 90.5 166 166 166
147.7 -219.7 90.9 166 166 166
139.1 -204.0 84.4 167 167 167
64.8 -88.7 36.7 164 164 164
62.8 -84.9 35.2 167 167 167
60.7 -81.0 33.5 167 167 167
71.8 -94.6 39.2 165 165 165
68.6 -89.3 36.9 165 165 165
92.6 -66.4 27.5 103 102 100
87.9 -62.6 25.9 97 100 99
53.5 -35.6 14.8 195 198 197
53.6 -35.5 14.7 158 158 158
53.6 -35.3 14.6 198 201 200
56.6 -36.8 15.2 179 182 181
56.0 -36.2 15.0 175 175 175
55.3 -35.5 14.7 208 208 208
56.4 -109.9 45.9 168 170 169
55.3 -105.8 44.2 169 171 170
55.8 -104.8 43.8 169 171 170
59.5 -107.8 45.0 169 171 170
60.1 -92.6 38.7 170 172 172
143.5 -217.6 90.9 171 173 173
148.4 -221.9 92.7 171 173 173
157.5 -232.1 97.0 169 169 169
142.3 -206.7 86.4 172 174 174
63.5 -85.1 35.6 169 169 169
61.5 -81.3 34.0 170 171 170
90.6 -64.4 26.9 103 102 100
86.3 -60.9 25.5 97 100 99
52.9 -34.9 14.6 192 192 192
52.7 -34.6 14.5 147 147 147
52.4 -34.2 14.3 195 195 195
52.1 -33.7 14.1 195 198 197
54.8 -35.1 14.7 178 178 178
54.4 -34.6 14.5 205 205 205
53.4 -33.8 14.1 214 214 214
54.3 -34.1 14.2 219 219 219
46.7 -88.4 37.3 171 173 173
47.3 -87.9 37.1 172 174 174
47.8 -87.2 36.8 172 174 174
58.0 -104.0 43.9 172 174 174
58.0 -88.4 37.3 173 175 175
57.1 -85.7 36.2 179 179 179
149.9 -221.9 93.6 171 173 173
162.5 -237.2 100.1 171 173 173
154.3 -221.9 93.6 172 174 174
85.5 -59.8 25.2 97 100 99
51.2 -33.1 14.0 190 190 190
51.1 -32.8 13.8 195 198 197
49.1 -31.3 13.2 195 195 195
52.5 -32.8 13.9 216 216 216
51.8 -32.2 13.6 219 219 219
52.2 -32.2 13.6 219 219 219
47.2 -90.0 38.4 179 179 179
46.4 -86.9 37.0 177 177 177
46.9 -86.3 36.8 177 177 177
53.2 -91.1 38.8 179 179 179
53.4 -90.0 38.4 177 177 177
56.1 -91.5 39.0 180 180 180
55.7 -89.5 38.1 178 178 178
142.8 -212.4 90.5 179 179 179
149.9 -219.7 93.6 174 176 176
161.7 -233.6 99.6 174 176 176
154.3 -219.7 93.6 175 177 177
175.6 -246.6 105.1 175 177 177
48.2 -30.4 13.0 195 198 197
42.6 -76.2 32.8 198 198 198
47.4 -79.2 34.1 192 192 192
46.7 -76.7 33.0 198 198 198
50.4 -80.0 34.5 198 198 198
226.4 -348.8 150.1 202 202 202
226.3 -343.3 147.8 202 202 202
202.8 -303.1 130.5 198 198 198
156.9 -227.7 98.0 199 199 199
173.6 -248.3 106.9 199 199 199
210.7 -293.0 126.1 200 200 200
190.7 -261.6 112.6 200 200 200
26.1 -33.5 14.4 206 206 206
40.9 -25.4 10.9 208 208 208
40.9 -71.1 30.9 202 202 202
46.3 -76.6 33.3 202 202 202
46.1 -75.0 32.6 204 204 204
48.9 -77.0 33.5 202 202 202
46.6 -72.1 31.4 204 204 204
265.7 -399.1 173.5 202 202 202
166.4 -239.0 103.9 203 203 203
173.6 -245.8 106.9 203 203 203
225.8 -315.2 137.1 204 204 204
222.5 -306.4 133.2 204 204 204
26.0 -33.1 14.4 206 206 206
26.0 -32.6 14.2 206 206 206
39.8 -24.5 10.6 195 198 197
39.7 -24.3 10.6 178 178 178
39.9 -24.2 10.5 179 182 181
40.1 -24.2 10.5 219 219 219
39.9 -68.8 30.2 204 204 204
44.0 -70.8 31.1 204 204 204
44.7 -70.8 31.1 204 204 204
45.8 -70.3 30.9 204 204 204
295.5 -439.4 193.0 204 204 204
262.5 -384.5 168.9 204 204 204
144.2 -205.1 90.1 205 205 205
147.0 -206.1 90.5 205 205 205
136.1 -188.1 82.6 206 206 206
241.2 -328.7 144.4 206 206 206
26.0 -32.7 14.4 206 206 206
26.0 -32.3 14.2 206 206 206
38.7 -23.0 10.1 216 216 216
38.7 -66.0 29.3 207 207 207
38.8 -65.0 28.8 207 207 207
43.2 -69.9 31.0 207 207 207
42.6 -67.8 30.1 207 207 207
44.4 -69.5 30.9 207 207 207
44.0 -66.8 29.6 207 207 207
43.7 -65.4 29.0 207 207 207
140.8 -198.3 88.0 205 205 205
137.2 -190.3 84.4 205 205 205
126.7 -173.3 76.9 206 206 206
232.4 -313.4 139.1 206 206 206
28.9 -38.0 16.9 207 207 207
28.7 -37.2 16.5 207 207 207
26.0 -32.3 14.4 206 206 206
25.8 -31.7 14.1 206 206 206
25.9 -31.4 14.0 207 207 207
38.4 -22.7 10.1 211 211 211
38.6 -22.7 10.1 190 190 190
30.1 -63.1 28.3 207 207 207
30.5 -62.4 28.0 207 207 207
31.4 -62.9 28.2 207 207 207
32.0 -62.8 28.1 207 207 207
32.6 -62.7 28.1 207 207 207
34.2 -63.2 28.4 207 207 207
34.5 -62.6 28.1 207 207 207
35.4 -63.1 28.3 207 207 207
36.1 -63.1 28.3 207 207 207
36.6 -62.9 28.2 207 207 207
37.3 -63.0 28.2 207 207 207
37.6 -62.4 28.0 207 207 207
38.5 -62.8 28.1 207 207 207
39.5 -63.3 28.4 207 207 207
40.0 -63.1 28.3 207 207 207
40.2 -62.3 27.9 207 207 207
42.6 -64.0 28.7 207 207 207
42.6 -63.0 28.2 207 207 207
43.2 -63.0 28.2 207 207 207
169.6 -239.7 107.5 210 210 210
145.6 -202.8 90.9 207 207 207
143.6 -197.1 88.4 205 205 205
129.3 -175.0 78.5 205 205 205
216.4 -288.9 129.6 206 206 206
204.1 -268.7 120.5 206 206 206
29.0 -37.6 16.9 206 206 206
26.0 -32.0 14.3 207 207 207
25.8 -31.4 14.1 208 208 208
26.0 -31.2 14.0 206 206 206
26.2 -31.0 13.9 206 206 206
30.6 -58.2 26.4 207 207 207
36.4 -59.6 27.0 206 206 206
39.4 -61.5 27.9 206 206 206
38.6 -59.3 26.9 206 206 206
42.1 -61.6 27.9 206 206 206
40.5 -58.4 26.5 206 206 206
147.7 -200.7 90.9 207 207 207
135.5 -181.5 82.2 207 207 207
219.5 -289.9 131.4 208 208 208
212.2 -276.5 125.3 208 208 208
28.9 -37.2 16.9 208 208 208
28.9 -36.6 16.6 206 206 206
26.0 -31.7 14.4 207 207 207
25.9 -31.2 14.1 207 207 207
26.1 -31.0 14.1 208 208 208
26.2 -30.8 14.0 206 206 206
40.3 -57.4 26.3 206 206 206
235.8 -308.3 141.2 207 207 207
218.0 -281.0 128.7 207 207 207
28.9 -36.8 16.9 210 210 210
28.9 -36.3 16.6 208 208 208
26.0 -30.9 14.2 207 207 207
26.1 -30.7 14.1 207 207 207
26.3 -30.5 14.0 207 207 207
26.6 -30.6 14.0 208 208 208
44.5 -63.8 29.5 205 205 205
45.3 -63.9 29.6 208 208 208
29.1 -36.6 16.9 207 207 207
29.1 -36.2 16.7 207 207 207
26.2 -31.3 14.5 206 206 206
26.1 -30.8 14.3 206 206 206
26.3 -30.6 14.1 206 206 206
26.2 -30.1 14.0 207 207 207
-10.5 -24.1 11.3 135 135 135
-10.2 -23.9 11.2 137 137 137
43.8 -62.1 29.1 208 208 208
29.4 -35.2 16.4 207 207 207
26.3 -31.1 14.6 210 210 210
26.2 -30.5 14.3 205 205 205
26.3 -30.3 14.2 206 206 206
26.3 -29.9 14.0 206 206 206
27.2 -30.5 14.3 206 206 206
-10.9 -24.8 11.7 131 134 133
-10.7 -24.9 11.8 136 136 136
-10.5 -24.9 11.8 136 138 137
-10.1 -24.8 11.7 139 138 137
8.5 -24.9 11.8 210 210 210
8.7 -24.9 11.8 210 210 210
9.0 -24.9 11.8 212 213 212
9.3 -24.9 11.8 207 207 207
11.8 -24.9 11.8 207 207 207
12.0 -24.9 11.8 207 207 207
47.4 -67.4 31.9 207 207 207
28.6 -34.3 16.2 207 207 207
29.3 -34.7 16.4 207 207 207
26.2 -30.2 14.3 205 205 205
26.3 -29.6 14.0 208 208 208
26.9 -29.9 14.1 206 206 206
27.3 -30.0 14.2 206 206 206
-11.1 -24.8 11.9 123 125 124
-10.8 -24.8 11.8 127 127 127
-10.2 -24.8 11.9 130 130 130
13.4 -28.1 13.4 207 207 207
13.7 -28.1 13.4 207 207 207
47.4 -66.8 32.0 207 207 207
45.2 -62.7 30.0 207 207 207
45.4 -62.0 29.6 207 207 207
45.9 -61.8 29.6 207 207 207
28.7 -34.0 16.3 206 206 206
29.3 -34.3 16.4 204 204 204
29.0 -33.5 16.0 206 206 206
26.2 -29.5 14.1 207 207 207
26.2 -29.1 13.9 207 207 207
26.3 -28.8 13.8 207 207 207
26.8 -29.1 13.9 205 205 205
26.8 -28.8 13.8 206 206 206
95.6 -52.4 25.1 106 106 106
37.0 -56.8 27.5 206 206 206
46.2 -64.3 31.1 206 206 206
44.5 -61.0 29.5 206 206 206
44.6 -60.3 29.1 206 206 206
42.6 -55.9 27.0 207 207 207
28.2 -33.0 16.0 208 208 208
28.6 -32.7 15.8 206 206 206
28.9 -32.6 15.8 206 206 206
26.1 -29.0 14.0 206 206 206
26.3 -28.5 13.8 207 207 207
26.7 -28.7 13.9 207 207 207
26.9 -28.5 13.8 207 207 207
27.1 -28.4 13.7 205 205 205
95.5 -52.1 25.2 106 106 106
96.5 -52.4 25.3 90 92 91
-10.5 -24.2 11.8 23 23 23
37.0 -56.2 27.5 211 211 211
45.3 -62.4 30.5 206 206 206
44.5 -60.3 29.5 206 206 206
43.6 -58.1 28.4 206 206 206
42.7 -56.2 27.5 206 206 206
42.6 -55.2 27.0 206 206 206
28.0 -32.1 15.7 205 205 205
28.5 -32.2 15.8 205 205 205
28.9 -32.2 15.8 206 206 206
26.8 -28.4 13.9 206 206 206
26.9 -28.2 13.8 207 207 207
27.1 -28.1 13.7 205 205 205
96.4 -52.0 25.5 112 114 113
97.9 -52.5 25.7 108 108 108
98.1 -52.3 25.6 98 100 100
-10.6 -24.1 11.9 27 28 26
35.7 -56.6 28.0 208 208 208
36.4 -56.7 28.1 208 208 208
37.2 -56.9 28.1 208 208 208
44.1 -59.1 29.2 205 205 205
43.3 -57.1 28.3 205 205 205
42.9 -55.8 27.6 205 205 205
28.1 -32.2 15.9 207 207 207
28.0 -31.7 15.7 207 207 207
29.2 -32.2 15.9 205 205 205
29.0 -31.6 15.6 205 205 205
26.4 -28.4 14.0 205 205 205
26.9 -28.3 14.0 206 206 206
27.0 -27.9 13.8 206 206 206
27.1 -27.8 13.7 206 206 206
27.4 -27.7 13.7 204 204 204
97.0 -51.8 25.6 112 114 113
-21.5 -21.4 10.7 47 47 47
-10.6 -23.8 11.9 27 29 27
37.3 -56.4 28.2 208 208 208
44.2 -58.6 29.3 202 202 202
43.7 -57.0 28.5 205 205 205
44.0 -54.9 27.5 205 205 205
44.7 -55.0 27.5 205 205 205
50.1 -59.9 30.0 206 206 206
50.7 -59.8 29.9 206 206 206
28.0 -31.4 15.7 207 207 207
29.5 -32.2 16.1 207 207 207
29.3 -31.5 15.8 207 207 207
27.1 -28.1 14.1 205 205 205
27.1 -27.4 13.7 206 206 206
27.3 -27.3 13.7 206 206 206
96.9 -51.1 25.6 112 114 113
-35.0 -24.6 12.4 59 60 58
-34.1 -24.5 12.4 61 61 61
-26.1 -24.6 12.4 48 48 48
-11.0 -24.5 12.4 32 32 32
7.2 -24.6 12.4 210 210 210
7.5 -24.5 12.4 210 210 210
7.8 -24.6 12.4 207 207 207
8.1 -24.6 12.4 207 207 207
8.9 -24.6 12.4 207 207 207
9.2 -24.6 12.4 207 207 207
9.4 -24.4 12.4 207 207 207
11.3 -24.6 12.5 207 207 207
11.9 -24.6 12.5 207 207 207
12.0 -24.4 12.4 205 205 205
13.3 -24.6 12.4 207 207 207
13.6 -24.6 12.4 207 207 207
14.1 -24.6 12.4 207 207 207
14.4 -24.6 12.4 207 207 207
15.0 -24.6 12.4 207 207 207
44.8 -58.6 29.7 204 204 204
44.4 -57.3 29.0 204 204 204
41.7 -53.0 26.8 207 207 207
41.6 -52.0 26.3 208 208 208
43.5 -53.7 27.2 208 208 208
44.5 -54.1 27.4 208 208 208
44.1 -52.9 26.8 205 205 205
50.3 -59.5 30.1 205 205 205
50.9 -59.3 30.0 205 205 205
28.1 -31.0 15.7 206 206 206
29.8 -32.1 16.2 207 207 207
27.1 -27.8 14.1 207 207 207
27.5 -27.2 13.8 205 205 205
95.7 -49.9 25.3 114 116 115
-35.6 -24.6 12.6 59 60 58
-35.4 -24.8 12.7 59 60 58
-35.1 -24.7 12.7 62 62 62
-34.8 -24.8 12.7 62 62 62
-34.5 -24.8 12.7 59 61 59
-34.2 -24.8 12.7 57 57 57
-34.0 -24.8 12.7 59 61 59
-33.7 -24.8 12.7 59 61 59
-33.4 -24.8 12.7 59 61 59
-33.1 -24.8 12.7 59 61 59
-32.8 -24.8 12.7 63 63 63
-32.5 -24.8 12.7 59 61 59
-32.2 -24.8 12.7 63 63 63
-31.9 -24.8 12.7 59 61 59
-31.6 -24.8 12.7 59 61 59
-31.3 -24.7 12.7 59 61 59
-27.7 -24.7 12.7 53 52 51
-27.2 -24.8 12.7 49 49 49
-26.7 -24.6 12.6 49 49 49
-26.5 -24.7 12.7 49 49 49
-26.3 -24.8 12.7 49 49 49
-26.0 -24.8 12.7 50 50 50
-11.2 -24.6 12.6 32 32 32
-10.9 -24.6 12.6 34 34 34
-10.6 -24.6 12.6 35 37 36
-10.3 -24.7 12.7 40 40 40
-10.1 -24.8 12.7 163 163 163
-9.8 -24.8 12.7 186 188 187
-9.5 -24.9 12.7 186 188 187
-9.2 -24.7 12.7 191 191 191
-8.8 -24.6 12.6 226 229 228
-8.5 -24.6 12.6 226 229 228
-7.7 -24.7 12.7 225 227 227
-7.4 -24.7 12.7 223 225 225
-6.5 -24.8 12.7 222 222 222
-6.3 -24.8 12.7 221 221 221
-6.0 -24.8 12.7 218 218 218
-5.6 -24.7 12.7 216 216 216
-5.1 -24.8 12.7 212 214 214
-4.8 -24.8 12.7 212 214 214
-4.5 -24.7 12.7 210 213 212
-4.2 -24.8 12.7 210 213 212
-3.9 -24.8 12.7 210 213 212
-3.6 -24.8 12.7 208 211 210
-3.3 -24.8 12.7 208 211 210
-3.0 -24.8 12.7 207 207 207
-2.7 -24.7 12.7 205 205 205
-2.4 -24.8 12.7 205 205 205
-2.1 -24.8 12.7 203 203 203
-1.8 -24.7 12.7 203 203 203
-1.5 -24.7 12.7 203 203 203
-1.2 -24.7 12.6 200 200 200
-0.9 -24.8 12.7 200 200 200
-0.6 -24.8 12.7 200 200 200
-0.3 -24.8 12.7 200 200 200
-0.0 -24.7 12.7 200 200 200
0.3 -24.6 12.6 197 197 197
0.6 -24.8 12.7 197 197 197
0.9 -24.9 12.7 197 197 197
1.4 -24.8 12.7 195 195 195
1.7 -24.8 12.7 195 195 195
2.0 -24.8 12.7 195 195 195
2.3 -24.7 12.7 192 192 192
2.6 -24.8 12.7 192 192 192
2.9 -24.8 12.7 192 192 192
3.2 -24.8 12.7 186 186 186
3.8 -24.8 12.7 186 186 186
4.1 -24.8 12.7 186 186 186
6.2 -24.8 12.7 207 207 207
6.5 -24.8 12.7 209 209 209
6.7 -24.7 12.7 209 209 209
7.0 -24.8 12.7 209 209 209
7.3 -24.8 12.7 209 209 209
7.6 -24.7 12.7 209 209 209
7.9 -24.8 12.7 209 209 209
8.2 -24.8 12.7 209 209 209
8.5 -24.8 12.7 209 209 209
8.8 -24.8 12.7 209 209 209
9.1 -24.8 12.7 209 209 209
9.4 -24.7 12.7 209 209 209
9.7 -24.7 12.7 209 209 209
10.0 -24.8 12.7 207 207 207
10.3 -24.8 12.7 207 207 207
10.6 -24.8 12.7 207 207 207
10.9 -24.8 12.7 207 207 207
11.2 -24.8 12.7 207 207 207
11.5 -24.8 12.7 207 207 207
11.8 -24.9 12.7 207 207 207
12.1 -24.9 12.7 207 207 207
12.3 -24.7 12.6 207 207 207
12.6 -24.8 12.7 207 207 207
12.9 -24.8 12.7 207 207 207
13.2 -24.8 12.7 207 207 207
13.5 -24.7 12.7 207 207 207
13.8 -24.7 12.7 207 207 207
14.1 -24.7 12.7 207 207 207
14.4 -24.8 12.7 207 207 207
14.7 -24.8 12.7 207 207 207
15.1 -25.0 12.8 207 207 207
15.3 -24.7 12.7 207 207 207
15.5 -24.5 12.6 207 207 207
15.9 -24.8 12.7 207 207 207
16.3 -24.9 12.8 207 207 207
16.5 -24.8 12.7 207 207 207
16.8 -24.8 12.7 207 207 207
17.1 -24.8 12.7 207 207 207
17.4 -24.8 12.7 207 207 207
17.7 -24.9 12.7 207 207 207
44.6 -57.7 29.6 207 207 207
44.3 -56.4 28.9 207 207 207
42.1 -52.1 26.7 207 207 207
43.6 -53.2 27.3 207 207 207
47.2 -56.7 29.1 207 207 207
44.8 -53.1 27.2 207 207 207
49.4 -57.7 29.6 208 208 208
50.2 -57.9 29.6 208 208 208
50.3 -57.1 29.3 205 205 205
28.6 -30.9 15.8 206 206 206
29.8 -31.7 16.3 206 206 206
27.5 -26.9 13.8 205 205 205
28.0 -27.1 13.9 202 202 202
-21.8 -19.5 10.1 54 53 52
-21.2 -19.5 10.1 51 51 51
-20.9 -19.4 10.1 51 51 51
-16.5 -19.5 10.1 40 42 42
-15.7 -19.4 10.1 20 20 20
-14.1 -19.5 10.1 19 19 19
-13.9 -19.5 10.1 20 20 20
-11.3 -24.6 12.7 33 33 33
-11.1 -24.7 12.8 32 32 32
-10.7 -24.6 12.8 35 37 36
-10.4 -24.7 12.8 44 44 44
-10.2 -24.8 12.9 176 176 176
-9.9 -24.8 12.9 187 189 189
-9.6 -24.8 12.9 186 188 187
-9.3 -24.7 12.8 190 190 190
-8.9 -24.6 12.8 225 227 227
-8.1 -24.8 12.9 230 229 227
-7.8 -24.7 12.8 229 228 226
-7.5 -24.7 12.8 224 226 226
-7.2 -24.7 12.8 224 226 226
-6.9 -24.8 12.9 224 226 226
-6.6 -24.8 12.8 224 226 226
-6.3 -24.8 12.9 222 224 224
-6.0 -24.8 12.9 222 224 224
-5.7 -24.7 12.8 221 221 221
-5.4 -24.8 12.9 219 219 219
-5.1 -24.8 12.9 216 216 216
-4.8 -24.7 12.8 216 216 216
-4.5 -24.7 12.8 214 214 214
-4.2 -24.8 12.9 214 214 214
-3.9 -24.8 12.9 209 212 211
-3.6 -24.8 12.9 209 212 211
-3.3 -24.8 12.9 209 212 211
-3.0 -24.8 12.8 209 212 211
-2.7 -24.8 12.8 209 212 211
-2.4 -24.8 12.9 207 210 209
-2.1 -24.7 12.8 206 206 206
-1.8 -24.7 12.8 206 206 206
-1.5 -24.7 12.8 205 205 205
-1.2 -24.7 12.8 205 205 205
-0.9 -24.8 12.9 202 202 202
-0.6 -24.8 12.9 202 202 202
-0.3 -24.8 12.8 202 202 202
-0.0 -24.7 12.8 202 202 202
0.3 -24.7 12.8 202 202 202
0.6 -24.8 12.9 199 199 199
0.9 -24.8 12.9 199 199 199
1.2 -24.8 12.9 199 199 199
1.5 -24.8 12.9 197 197 197
1.8 -24.7 12.8 194 194 194
2.1 -24.8 12.8 194 194 194
2.3 -24.7 12.8 194 194 194
2.6 -24.7 12.8 194 194 194
2.9 -24.8 12.9 194 194 194
3.2 -24.8 12.9 189 189 189
3.6 -24.8 12.9 189 189 189
3.8 -24.8 12.9 189 189 189
4.1 -24.7 12.8 189 189 189
5.3 -24.8 12.8 185 185 185
5.6 -24.8 12.8 177 177 177
5.9 -24.7 12.8 206 206 206
6.2 -24.7 12.8 208 208 208
6.5 -24.8 12.9 209 209 209
6.8 -24.7 12.8 209 209 209
7.1 -24.8 12.9 209 209 209
7.4 -24.7 12.8 209 209 209
7.7 -24.7 12.8 209 209 209
8.0 -24.8 12.9 209 209 209
8.3 -24.8 12.8 209 209 209
8.6 -24.8 12.9 209 209 209
8.9 -24.8 12.9 209 209 209
9.2 -24.8 12.9 209 209 209
9.5 -24.7 12.8 209 209 209
9.8 -24.8 12.9 209 209 209
10.1 -24.8 12.9 206 206 206
10.4 -24.8 12.9 206 206 206
10.7 -24.8 12.9 206 206 206
11.0 -24.8 12.9 206 206 206
11.3 -24.8 12.9 206 206 206
11.6 -24.8 12.8 206 206 206
11.9 -24.8 12.9 206 206 206
12.2 -24.8 12.9 206 206 206
12.5 -24.7 12.8 206 206 206
12.8 -24.8 12.9 206 206 206
13.1 -24.8 12.8 206 206 206
13.4 -24.8 12.9 206 206 206
13.7 -24.8 12.9 206 206 206
14.0 -24.7 12.8 206 206 206
14.3 -24.7 12.8 206 206 206
14.6 -24.8 12.9 206 206 206
14.9 -24.8 12.9 206 206 206
15.2 -24.9 12.9 206 206 206
15.4 -24.7 12.8 206 206 206
15.8 -24.7 12.8 206 206 206
16.1 -24.8 12.9 206 206 206
16.4 -24.8 12.9 206 206 206
16.7 -24.8 12.8 206 206 206
17.0 -24.8 12.9 206 206 206
17.3 -24.8 12.9 206 206 206
17.6 -24.8 12.9 206 206 206
17.9 -24.8 12.9 206 206 206
44.6 -57.0 29.6 206 206 206
44.4 -55.9 29.0 206 206 206
45.0 -55.8 28.9 206 206 206
42.2 -51.6 26.8 207 207 207
43.1 -52.0 26.9 207 207 207
47.0 -55.8 29.0 207 207 207
49.3 -56.9 29.5 207 207 207
50.1 -57.1 29.6 207 207 207
50.4 -56.5 29.3 207 207 207
29.8 -31.3 16.2 205 205 205
27.7 -26.7 13.9 207 207 207
-10.2 -21.4 11.3 33 32 30
-11.4 -24.5 12.8 32 31 30
-11.2 -24.6 12.9 26 26 26
-10.8 -24.4 12.8 36 36 36
-10.5 -24.4 12.8 45 45 45
-10.3 -24.7 13.0 177 180 179
-10.0 -24.7 13.0 183 186 185
-9.6 -24.6 12.9 182 185 184
-9.3 -24.5 12.9 191 191 191
-7.8 -24.5 12.9 229 229 229
-6.4 -24.7 13.0 223 225 225
-6.1 -24.7 13.0 223 225 225
-5.2 -24.7 13.0 219 219 219
-4.5 -24.6 12.9 217 217 217
-4.3 -24.7 13.0 215 215 215
-4.0 -24.7 13.0 215 215 215
-3.7 -24.7 13.0 215 215 215
-3.4 -24.7 13.0 212 213 212
-3.0 -24.6 12.9 212 213 212
-2.7 -24.7 12.9 208 211 210
-2.4 -24.7 13.0 208 211 210
-1.5 -24.6 12.9 206 209 208
-0.9 -24.7 13.0 204 204 204
-0.6 -24.7 12.9 204 204 204
-0.0 -24.5 12.9 204 204 204
0.6 -24.7 13.0 202 202 202
0.9 -24.7 12.9 202 202 202
3.3 -24.6 12.9 193 193 193
3.6 -24.7 13.0 190 190 190
7.2 -24.7 12.9 208 208 208
7.5 -24.6 12.9 208 208 208
7.8 -24.6 12.9 208 208 208
8.1 -24.6 12.9 208 208 208
8.4 -24.6 12.9 206 206 206
8.7 -24.7 13.0 206 206 206
9.0 -24.7 12.9 208 208 208
9.3 -24.7 13.0 208 208 208
9.5 -24.5 12.9 208 208 208
9.9 -24.6 12.9 208 208 208
10.2 -24.7 13.0 208 208 208
10.5 -24.6 12.9 208 208 208
10.8 -24.6 12.9 208 208 208
11.1 -24.6 12.9 208 208 208
11.4 -24.6 12.9 208 208 208
11.7 -24.6 12.9 206 206 206
12.0 -24.7 13.0 206 206 206
12.3 -24.7 12.9 206 206 206
12.6 -24.6 12.9 206 206 206
12.9 -24.6 12.9 206 206 206
13.2 -24.6 12.9 206 206 206
13.5 -24.7 13.0 206 206 206
13.8 -24.7 13.0 206 206 206
14.4 -24.7 13.0 206 206 206
14.7 -24.7 13.0 206 206 206
15.2 -25.1 13.2 206 206 206
15.4 -24.7 13.0 206 206 206
15.5 -24.5 12.9 206 206 206
15.8 -24.6 12.9 206 206 206
16.6 -24.7 13.0 206 206 206
16.8 -24.6 12.9 206 206 206
17.1 -24.6 12.9 206 206 206
17.4 -24.7 13.0 208 208 208
17.8 -24.7 13.0 206 206 206
18.0 -24.7 13.0 206 206 206
45.2 -57.9 30.4 206 206 206
45.6 -57.6 30.3 206 206 206
45.3 -56.3 29.6 206 206 206
45.5 -55.8 29.3 206 206 206
42.4 -51.2 26.9 206 206 206
47.6 -55.9 29.3 206 206 206
48.7 -56.3 29.6 206 206 206
49.7 -56.7 29.7 207 207 207
50.4 -56.7 29.7 207 207 207
50.7 -56.2 29.5 207 207 207
51.3 -56.1 29.5 207 207 207
-10.8 -24.1 12.8 36 38 37
-10.4 -24.0 12.8 48 47 46
-9.7 -24.4 13.0 181 184 183
11.3 -24.2 12.9 208 208 208
12.1 -24.6 13.1 208 208 208
12.3 -24.3 12.9 208 208 208
15.4 -25.0 13.3 208 208 208
15.3 -24.4 12.9 208 208 208
15.3 -24.0 12.7 208 208 208
16.6 -24.5 13.0 208 208 208
16.7 -24.2 12.9 208 208 208
17.8 -24.5 13.0 208 208 208
46.2 -58.5 31.1 205 205 205
45.9 -57.3 30.5 208 208 208
45.7 -55.3 29.4 208 208 208
42.1 -50.2 26.7 206 206 206
48.0 -55.6 29.6 208 208 208
49.5 -56.5 30.0 206 206 206
50.4 -56.8 30.2 206 206 206
50.9 -56.5 30.0 206 206 206
50.8 -55.7 29.6 206 206 206
51.4 -55.6 29.6 206 206 206
-10.9 -24.1 12.9 32 31 30
-10.5 -23.9 12.9 46 46 46
-10.6 -24.9 13.4 183 183 183
-10.3 -25.0 13.4 182 185 184
45.0 -53.7 28.9 207 207 207
42.0 -49.5 26.6 208 208 208
39.3 -45.6 24.6 208 208 208
47.9 -54.8 29.5 208 208 208
45.3 -51.1 27.5 208 208 208
50.7 -56.4 30.4 208 208 208
50.9 -55.9 30.1 206 206 206
50.6 -54.8 29.5 206 206 206
51.4 -54.8 29.5 206 206 206
-10.7 -24.8 13.5 183 186 185
-10.4 -24.8 13.5 181 184 183
44.6 -52.7 28.7 207 207 207
42.2 -49.1 26.8 207 207 207
46.8 -52.9 28.8 207 207 207
45.7 -50.9 27.7 207 207 207
51.6 -56.7 30.9 208 208 208
51.2 -55.4 30.2 208 208 208
50.0 -53.5 29.1 208 208 208
51.0 -53.7 29.3 205 205 205
-11.1 -24.6 13.6 51 50 48
-10.8 -24.6 13.6 182 185 184
-10.5 -24.7 13.6 182 185 184
9.0 -18.6 10.3 207 207 207
43.0 -49.4 27.3 207 207 207
52.0 -56.4 31.1 207 207 207
51.8 -55.4 30.6 207 207 207
50.8 -53.5 29.6 207 207 207
51.6 -53.7 29.6 207 207 207
33.5 -29.7 16.4 206 206 206
-10.6 -24.6 13.8 180 183 182
-10.5 -25.2 14.1 183 183 183
-10.1 -25.0 14.0 184 184 184
42.5 -48.1 26.9 206 206 206
53.8 -58.4 32.7 207 207 207
52.1 -55.7 31.2 207 207 207
51.8 -54.7 30.6 207 207 207
51.0 -53.1 29.7 207 207 207
51.8 -53.2 29.7 207 207 207
56.4 -57.1 32.0 207 207 207
32.2 -29.2 16.3 205 205 205
32.4 -29.0 16.2 206 206 206
34.3 -30.3 17.0 206 206 206
33.6 -29.4 16.4 208 208 208
33.5 -29.0 16.2 168 168 168
-11.0 -24.6 13.9 182 185 184
-10.7 -24.5 13.9 179 182 181
-10.5 -24.9 14.1 179 182 181
-10.2 -24.8 14.1 183 183 183
-9.7 -24.5 13.9 223 225 225
45.9 -52.2 29.6 203 203 203
42.5 -47.6 26.9 206 206 206
53.2 -57.0 32.3 203 203 203
52.0 -54.9 31.1 206 206 206
51.8 -54.0 30.6 206 206 206
51.2 -52.6 29.8 207 207 207
51.8 -52.5 29.7 207 207 207
56.1 -56.1 31.8 204 204 204
39.1 -35.0 19.8 205 205 205
-11.1 -24.5 14.1 181 184 183
-10.8 -24.4 14.0 178 181 180
-10.5 -24.6 14.1 184 184 184
-10.2 -24.5 14.1 180 180 180
53.7 -56.8 32.6 208 211 210
52.1 -54.4 31.2 208 211 210
52.4 -53.8 30.9 208 211 210
52.1 -52.8 30.3 206 206 206
55.4 -55.5 31.8 206 206 206
56.4 -55.7 32.0 206 206 206
39.7 -35.0 20.1 207 207 207
38.7 -33.8 19.4 207 207 207
767.4 -397.0 227.9 175 177 177
-11.3 -24.4 14.2 181 184 183
-10.9 -24.4 14.2 178 181 180
-10.6 -24.4 14.2 178 181 180
-10.3 -24.5 14.2 184 184 184
-10.1 -24.8 14.4 202 202 202
42.5 -46.3 26.9 207 210 209
53.8 -56.2 32.7 207 210 209
52.1 -53.6 31.2 207 210 209
52.3 -53.0 30.9 208 211 210
52.3 -52.4 30.5 208 211 210
56.1 -55.4 32.2 208 211 210
56.4 -55.0 32.0 208 211 210
39.5 -34.4 20.0 207 207 207
38.6 -33.2 19.3 204 204 204
-11.4 -24.4 14.4 182 185 184
-11.0 -24.3 14.3 179 182 181
-10.7 -24.4 14.4 179 182 181
-10.5 -24.5 14.5 181 181 181
-10.3 -24.9 14.7 192 192 192
45.9 -50.1 29.6 207 210 209
43.4 -46.6 27.5 207 210 209
47.0 -49.0 28.9 207 210 209
55.3 -56.9 33.5 207 210 209
52.0 -52.8 31.1 207 210 209
51.9 -52.0 30.7 207 210 209
59.5 -58.0 34.2 207 210 209
58.0 -55.8 32.9 208 211 210
38.6 -33.5 19.8 208 211 210
39.4 -33.9 20.0 209 212 211
39.3 -33.4 19.7 209 212 211
-10.7 -24.7 14.8 177 180 179
-10.4 -24.8 14.8 174 174 174
55.3 -56.2 33.6 209 212 211
53.5 -53.5 32.0 210 213 212
65.4 -63.6 38.1 205 205 205
58.8 -55.8 33.4 207 210 209
60.6 -56.7 33.9 205 205 205
39.2 -33.6 20.1 208 211 210
39.7 -33.7 20.1 208 211 210
40.0 -33.5 20.1 212 214 214
40.9 -33.9 20.3 209 212 211
41.2 -33.7 20.2 207 207 207
42.0 -33.6 20.1 182 182 182
42.3 -33.5 20.0 186 186 186
-11.5 -25.3 15.4 180 183 182
-11.0 -25.0 15.2 179 179 179
52.2 -51.6 31.3 209 212 211
64.4 -61.0 37.0 209 212 211
60.9 -56.9 34.5 210 213 212
62.1 -57.3 34.8 207 210 209
40.3 -33.6 20.4 208 211 210
43.5 -34.4 20.8 182 182 182
43.0 -33.6 20.4 186 186 186
-21.8 -17.5 10.8 126 128 127
-21.3 -17.3 10.6 153 153 153
-20.7 -17.0 10.5 153 153 153
-19.3 -16.9 10.4 216 216 216
52.8 -51.3 31.6 209 212 211
71.0 -68.2 41.9 209 212 211
72.0 -68.2 41.9 209 212 211
41.0 -33.8 20.8 206 206 206
42.3 -34.5 21.2 208 211 210
42.5 -34.2 21.0 208 211 210
44.3 -34.8 21.4 207 207 207
44.1 -34.3 21.1 182 182 182
46.8 -34.2 21.0 190 190 190
-21.3 -17.0 10.6 78 78 78
-20.5 -16.6 10.4 70 72 69
-19.3 -16.6 10.4 178 181 180
-14.0 -16.3 10.2 87 88 86
-10.1 -17.9 11.2 130 130 130
52.4 -50.3 31.4 208 211 210
41.4 -33.2 20.7 208 211 210
41.8 -33.2 20.7 208 211 210
45.9 -33.3 20.8 192 192 192
46.3 -33.3 20.8 192 192 192
58.8 -26.0 16.2 172 172 172
57.9 -25.5 15.9 166 169 168
57.5 -25.1 15.7 163 163 163
414.1 -174.2 108.7 127 127 127
-19.8 -16.0 10.1 86 87 85
41.5 -32.4 20.5 208 211 210
45.5 -32.2 20.4 192 192 192
45.4 -31.8 20.1 192 192 192
85.0 -38.8 24.6 180 180 180
58.9 -25.7 16.3 173 173 173
58.1 -25.2 15.9 168 170 169
-12.4 -27.5 17.7 170 171 170
-12.0 -27.7 17.8 165 165 165
73.7 -66.7 42.9 208 211 210
45.3 -31.6 20.3 191 191 191
45.1 -31.2 20.0 192 192 192
84.5 -38.0 24.4 182 185 184
82.0 -36.6 23.5 182 185 184
60.3 -25.9 16.7 174 174 174
59.0 -25.2 16.2 166 169 168
-20.5 -15.8 10.3 65 65 65
-12.5 -27.3 17.8 173 175 175
-12.0 -27.2 17.8 170 171 170
70.0 -57.8 37.7 208 211 210
45.9 -31.6 20.6 191 191 191
45.6 -31.0 20.3 193 193 193
83.9 -37.2 24.3 183 186 185
81.8 -36.0 23.5 183 186 185
80.7 -35.3 23.0 183 186 185
60.9 -25.8 16.8 177 177 177
59.9 -25.2 16.4 168 170 169
62.2 -26.0 17.0 164 164 164
62.8 -26.1 17.0 156 156 156
-12.6 -27.2 18.0 174 176 176
-12.1 -27.0 17.9 173 173 173
74.4 -61.3 40.6 208 211 210
70.8 -57.6 38.1 208 211 210
32.4 -22.2 14.7 193 193 193
46.3 -31.4 20.8 193 193 193
85.0 -37.1 24.6 184 187 186
82.1 -35.6 23.6 184 187 186
81.1 -34.9 23.1 184 187 186
61.4 -25.6 17.0 176 176 176
62.5 -25.7 17.0 161 161 161
63.2 -25.8 17.1 158 158 158
-28.2 -17.0 11.4 29 31 29
-26.9 -16.5 11.1 39 41 41
-26.8 -16.6 11.2 53 52 52
-13.8 -28.3 19.0 177 180 179
-12.8 -27.2 18.3 176 179 178
-12.2 -26.8 18.0 174 174 174
74.7 -60.6 40.8 207 210 209
72.1 -57.7 38.8 208 211 210
32.2 -21.7 14.6 193 193 193
82.3 -35.1 23.6 186 188 187
81.2 -34.4 23.2 186 188 187
62.8 -25.7 17.3 172 174 174
63.3 -25.8 17.4 169 169 169
63.0 -25.5 17.2 159 162 161
63.6 -25.6 17.2 156 156 156
-27.6 -16.2 11.1 26 26 26
-27.3 -16.2 11.1 24 24 24
-27.0 -16.2 11.1 29 31 29
-26.8 -16.2 11.1 29 31 29
-26.5 -16.2 11.1 64 64 64
-26.3 -16.2 11.1 74 74 74
-25.5 -16.2 11.1 54 54 54
-25.2 -16.2 11.1 55 55 55
-13.9 -30.0 20.5 175 175 175
-13.4 -30.0 20.5 175 175 175
89.5 -75.2 51.4 206 209 208
88.0 -72.1 49.3 206 209 208
81.7 -66.1 45.1 207 210 209
76.4 -61.0 41.7 207 210 209
72.9 -57.4 39.2 207 210 209
33.6 -20.3 13.9 199 199 199
82.8 -34.8 23.8 188 190 190
81.9 -34.2 23.4 185 185 185
63.3 -25.4 17.4 168 168 168
62.9 -25.1 17.1 160 160 160
63.4 -25.1 17.2 156 156 156
64.3 -25.3 17.3 151 151 151
-26.0 -15.0 10.4 53 53 53
-25.7 -15.0 10.4 162 162 162
-25.5 -15.0 10.4 178 181 180
-25.3 -15.0 10.4 177 180 179
-25.0 -15.0 10.4 116 118 117
-24.8 -15.0 10.4 79 81 79
-24.5 -15.0 10.4 89 90 88
-24.3 -15.0 10.4 70 72 69
-24.0 -15.0 10.4 135 135 135
-23.8 -15.0 10.4 169 169 169
-23.6 -15.0 10.4 177 176 174
-14.8 -15.0 10.4 99 98 96
-14.3 -15.0 10.4 43 45 45
-14.1 -15.0 10.4 90 92 91
-13.6 -15.0 10.5 21 24 22
-13.4 -15.1 10.5 58 58 58
-12.6 -14.9 10.4 79 81 79
-14.1 -30.0 20.9 175 175 175
-13.6 -30.1 20.9 140 140 140
90.7 -75.0 52.1 210 210 210
89.9 -73.4 51.0 210 210 210
90.6 -73.0 50.7 210 210 210
90.3 -71.9 49.9 210 210 210
80.1 -62.9 43.7 207 210 209
33.2 -20.4 14.2 197 197 197
33.7 -20.5 14.2 199 199 199
33.8 -20.4 14.1 199 199 199
33.8 -20.1 14.0 199 199 199
83.6 -34.6 24.0 189 191 191
81.5 -33.5 23.2 188 188 188
80.2 -32.7 22.7 188 188 188
79.3 -32.1 22.3 188 188 188
78.4 -31.6 21.9 188 188 188
63.0 -24.7 17.2 162 162 162
63.3 -24.7 17.1 156 156 156
64.0 -24.8 17.2 149 151 151
-28.9 -14.6 10.3 29 30 28
-25.6 -14.6 10.3 178 181 180
-25.3 -14.5 10.2 151 151 151
-25.0 -14.5 10.2 189 189 189
-24.8 -14.5 10.2 164 164 164
-24.6 -14.5 10.2 158 161 160
-24.3 -14.5 10.2 148 148 148
-24.1 -14.5 10.2 158 161 160
-23.8 -14.5 10.2 85 85 85
-23.6 -14.5 10.2 78 80 78
-23.4 -14.5 10.2 200 202 202
-23.1 -14.5 10.2 196 199 198
-23.0 -14.6 10.3 174 174 174
-14.6 -14.5 10.2 115 114 114
-14.3 -14.5 10.2 36 36 36
-14.1 -14.5 10.2 101 101 101
-13.8 -14.5 10.2 31 32 30
-13.6 -14.5 10.2 34 33 32
-13.4 -14.5 10.2 115 115 115
-13.1 -14.5 10.3 147 147 147
-12.9 -14.5 10.2 66 66 66
-12.7 -14.6 10.3 42 43 42
-12.4 -14.5 10.3 72 72 72
-12.2 -14.5 10.3 37 38 37
-14.8 -30.0 21.2 168 170 169
-14.2 -29.7 20.9 164 164 164
-13.7 -29.8 21.0 133 132 131
225.6 -186.1 131.4 209 209 209
182.9 -148.9 105.1 209 209 209
150.8 -118.0 83.3 210 210 210
156.9 -121.3 85.6 210 210 210
205.9 -151.4 106.9 211 211 211
179.9 -130.7 92.3 212 213 212
68.8 -45.6 32.2 193 193 193
77.3 -50.8 35.8 195 195 195
33.0 -20.1 14.2 197 197 197
33.9 -20.1 14.2 199 199 199
80.9 -32.7 23.1 189 189 189
79.9 -32.1 22.6 189 189 189
79.5 -31.7 22.4 189 189 189
78.3 -31.0 21.9 185 185 185
63.8 -24.6 17.4 160 160 160
63.6 -24.4 17.2 155 155 155
64.2 -24.5 17.3 150 150 150
-61.4 -30.4 21.8 26 26 26
-60.5 -30.4 21.8 139 141 140
-59.9 -30.4 21.8 9 14 10
-59.5 -30.4 21.8 24 24 24
-59.0 -30.4 21.8 20 23 21
-58.5 -30.4 21.8 24 24 24
-57.9 -30.4 21.8 26 26 26
-57.4 -30.4 21.8 26 26 26
-56.9 -30.4 21.8 29 31 29
-56.4 -30.4 21.8 35 35 35
-55.8 -30.4 21.8 53 53 53
-55.3 -30.4 21.8 145 145 144
-55.0 -30.5 21.9 177 177 177
-54.4 -30.4 21.8 151 151 151
-53.8 -30.4 21.8 151 151 151
-53.4 -30.4 21.8 165 168 167
-52.9 -30.4 21.8 172 174 174
-52.3 -30.4 21.8 124 126 125
-51.8 -30.4 21.8 101 101 101
-51.3 -30.4 21.8 207 210 209
-50.8 -30.4 21.8 200 200 200
-50.3 -30.4 21.8 65 66 64
-49.8 -30.4 21.8 39 39 39
-49.3 -30.4 21.8 139 139 139
-48.9 -30.5 21.9 116 118 117
-48.2 -30.4 21.8 91 91 91
-47.7 -30.4 21.8 88 90 89
-46.9 -30.5 21.9 124 126 125
-46.3 -30.4 21.8 29 31 29
-45.7 -30.4 21.8 54 54 54
-45.2 -30.4 21.8 64 64 64
-44.7 -30.4 21.8 65 66 64
-44.2 -30.4 21.8 68 68 68
-43.5 -30.6 22.0 68 68 68
-43.0 -30.6 22.0 70 72 69
-38.7 -30.4 21.8 219 219 219
-38.0 -30.3 21.7 221 221 221
-37.6 -30.4 21.8 181 181 181
-37.1 -30.4 21.8 116 116 116
-36.6 -30.4 21.8 123 125 124
-36.1 -30.4 21.8 197 200 199
-35.7 -30.5 21.9 203 203 203
-33.9 -30.3 21.7 212 213 212
-31.1 -30.5 21.9 89 91 90
-30.5 -30.4 21.8 70 70 70
-30.0 -30.4 21.8 43 45 44
-11.9 -14.2 10.2 147 147 147
-11.6 -14.2 10.2 57 57 55
-11.4 -14.2 10.2 92 92 92
-11.2 -14.2 10.2 19 23 20
-15.3 -30.4 21.8 181 184 183
-14.5 -29.7 21.4 180 183 182
-14.0 -29.8 21.4 175 175 175
251.8 -204.3 146.6 209 209 209
199.5 -159.7 114.6 209 209 209
191.7 -151.5 108.7 209 209 209
192.0 -149.8 107.5 210 210 210
197.0 -149.8 107.5 210 210 210
201.8 -151.5 108.7 210 210 210
214.3 -155.0 111.3 211 211 211
199.3 -142.5 102.3 211 211 211
71.6 -47.2 33.9 193 193 193
69.8 -45.5 32.7 195 195 195
76.3 -49.3 35.4 196 196 196
73.6 -47.0 33.7 196 196 196
81.0 -32.2 23.1 190 190 190
80.7 -31.9 22.9 190 190 190
80.9 -31.7 22.8 190 190 190
81.2 -31.6 22.7 186 186 186
65.4 -24.5 17.6 149 149 149
70.9 -26.4 19.0 142 144 143
70.8 -26.2 18.8 134 136 135
-61.4 -29.9 21.8 128 128 128
-60.8 -29.9 21.8 112 112 112
-60.3 -29.9 21.8 18 22 19
-59.8 -29.9 21.8 20 23 21
-59.4 -29.9 21.8 20 23 21
-58.9 -29.9 21.8 20 23 21
-58.4 -29.9 21.8 20 23 21
-57.9 -29.9 21.8 26 26 26
-57.3 -29.9 21.8 27 27 27
-56.9 -29.9 21.8 38 38 38
-56.4 -29.9 21.8 36 36 36
-55.8 -29.9 21.8 34 34 34
-55.3 -29.9 21.8 126 126 126
-55.0 -30.0 21.9 173 175 175
-54.3 -29.9 21.8 164 164 164
-53.7 -29.8 21.8 129 129 129
-53.3 -29.9 21.8 131 134 133
-52.7 -29.9 21.8 157 160 159
-52.2 -29.9 21.8 195 195 195
-51.7 -29.9 21.8 116 118 117
-51.2 -29.8 21.8 36 37 36
-50.8 -29.9 21.8 47 48 47
-50.3 -29.9 21.8 47 48 47
-49.7 -29.9 21.8 58 59 59
-49.3 -29.9 21.8 113 114 113
-48.8 -29.9 21.8 103 102 100
-48.1 -29.8 21.8 103 102 100
-47.2 -29.9 21.8 127 127 127
-46.8 -30.0 21.9 132 135 134
-46.2 -29.9 21.8 42 42 42
-45.1 -29.9 21.8 53 52 52
-44.6 -29.9 21.8 61 61 61
-44.1 -29.9 21.8 64 64 64
-43.7 -29.9 21.8 61 61 61
-43.0 -30.1 22.0 64 64 64
-42.3 -30.0 21.9 64 64 64
-41.6 -29.9 21.8 61 61 61
-41.1 -29.9 21.8 53 53 53
-38.6 -29.9 21.8 177 180 179
-37.9 -29.8 21.7 214 216 216
-37.5 -29.9 21.8 219 219 219
-37.0 -29.9 21.8 226 226 226
-36.5 -29.9 21.8 224 224 224
-36.0 -29.9 21.8 224 224 224
-35.7 -30.0 21.9 221 221 221
-35.1 -30.0 21.9 221 221 221
-34.5 -29.9 21.8 214 216 216
-33.9 -29.8 21.7 208 208 208
-33.1 -29.5 21.5 3 9 5
-33.0 -29.9 21.8 73 73 73
-31.0 -29.9 21.8 30 31 30
-30.5 -29.9 21.8 104 104 104
-30.0 -29.9 21.8 26 26 26
-29.5 -30.0 21.9 42 42 42
-15.3 -29.9 21.8 182 182 182
-14.6 -29.5 21.5 179 179 179
-14.0 -29.4 21.4 174 174 174
-13.7 -29.8 21.8 167 167 167
-13.2 -29.9 21.8 24 25 23
377.0 -304.9 222.5 210 210 210
280.0 -223.4 163.1 208 208 208
301.8 -231.4 168.9 209 209 209
303.0 -229.4 167.4 209 209 209
242.5 -181.2 132.3 210 210 210
354.7 -261.8 191.1 210 210 210
352.9 -254.1 185.5 211 211 211
258.4 -183.8 134.2 211 211 211
71.3 -46.3 33.8 193 193 193
69.6 -44.7 32.6 196 196 196
74.4 -47.2 34.5 196 196 196
72.9 -45.8 33.4 196 196 196
82.4 -31.8 23.2 191 191 191
72.0 -26.4 19.2 136 136 136
72.2 -26.3 19.2 134 134 134
73.1 -26.5 19.3 131 134 133
-37.8 -21.0 15.6 150 150 150
-38.3 -21.5 16.0 104 104 104
-36.8 -21.1 15.7 62 62 62
-36.3 -21.0 15.6 41 41 41
-22.9 -21.0 15.6 75 75 75
-22.7 -21.5 16.0 108 108 106
-15.0 -29.9 22.2 180 180 180
-14.2 -29.4 21.8 180 180 180
451.3 -358.8 266.4 210 210 210
328.1 -257.3 191.1 210 210 210
351.2 -268.2 199.1 209 209 209
384.1 -289.5 215.0 209 209 209
376.3 -280.0 207.9 209 209 209
357.5 -262.7 195.0 209 209 209
385.9 -280.0 207.9 210 210 210
444.5 -318.5 236.5 210 210 210
400.0 -283.1 210.2 210 210 210
353.8 -247.4 183.7 211 211 211
67.1 -42.3 31.4 196 196 196
73.0 -45.6 33.8 196 196 196
71.7 -44.2 32.8 196 196 196
72.8 -26.5 19.7 140 140 140
72.6 -26.3 19.5 134 136 135
72.7 -26.2 19.4 134 136 135
73.1 -26.2 19.4 134 136 135
74.4 -26.5 19.6 134 136 135
500.6 -391.2 295.6 210 210 210
427.8 -316.9 239.4 211 211 211
439.0 -321.0 242.5 209 209 209
394.1 -284.5 215.0 209 209 209
403.7 -287.8 217.4 212 213 212
444.5 -313.0 236.5 210 210 210
433.7 -301.7 227.9 210 210 210
364.4 -250.4 189.2 210 210 210
686.5 -455.2 343.9 211 211 211
454.7 -298.1 225.2 211 211 211
66.6 -40.0 30.2 197 197 197
52.7 -19.3 14.6 162 162 162
74.9 -26.9 20.3 140 140 140
74.3 -26.5 20.0 134 136 135
73.7 -26.1 19.7 134 136 135
74.1 -26.1 19.7 134 136 135
75.9 -26.5 20.0 134 136 135
77.3 -26.9 20.3 134 134 134
78.1 -27.0 20.4 131 131 131
-17.8 -34.2 26.3 152 154 154
21.9 -18.1 13.9 208 208 208
516.8 -396.7 305.1 210 210 210
318.4 -241.2 185.5 210 210 210
288.8 -215.8 165.9 210 210 210
552.2 -396.7 305.1 211 211 211
412.8 -292.8 225.2 211 211 211
377.6 -264.5 203.4 212 213 212
413.5 -286.0 220.0 212 213 212
413.8 -282.7 217.4 212 213 212
322.5 -217.7 167.4 214 214 214
777.4 -512.5 394.1 214 214 214
599.3 -390.4 300.3 215 215 215
374.5 -241.2 185.5 215 215 215
324.7 -206.7 159.0 212 213 212
52.6 -18.9 14.5 139 141 140
76.3 -26.9 20.7 136 138 137
75.9 -26.6 20.4 134 134 134
75.2 -26.1 20.1 133 133 133
75.7 -26.2 20.1 134 134 134
77.3 -26.5 20.4 134 134 134
78.2 -26.7 20.5 133 133 133
79.1 -26.8 20.6 128 131 130
-18.2 -34.3 26.9 138 137 136
-17.6 -34.3 26.9 90 90 90
-17.7 -35.8 28.1 89 91 90
-17.3 -36.4 28.5 55 55 55
21.9 -17.7 13.9 208 208 208
516.8 -389.7 305.1 212 213 212
646.0 -455.8 356.9 211 211 211
456.3 -317.9 248.9 211 211 211
390.2 -268.4 210.2 212 213 212
399.5 -271.4 212.5 212 213 212
418.6 -280.9 220.0 212 213 212
328.3 -217.6 170.4 212 213 212
619.0 -396.0 310.1 214 214 214
385.8 -244.0 191.1 215 215 215
330.2 -206.5 161.7 215 215 215
52.5 -18.5 14.5 133 133 133
51.6 -18.1 14.1 133 133 133
77.1 -26.5 20.7 131 133 132
76.0 -25.9 20.3 128 130 129
76.4 -25.9 20.3 128 130 129
77.5 -26.1 20.5 131 133 132
78.4 -26.3 20.6 128 130 129
79.3 -26.4 20.7 129 129 129
-18.4 -35.3 28.2 91 93 92
-17.7 -35.2 28.1 89 91 90
-17.4 -35.9 28.6 73 73 73
21.8 -17.3 13.8 210 210 210
21.7 -17.0 13.5 211 211 211
312.3 -228.1 181.9 212 213 212
291.3 -209.9 167.4 212 213 212
303.3 -215.6 172.0 210 210 210
299.1 -209.9 167.4 210 210 210
417.8 -285.8 227.9 211 211 211
394.6 -266.5 212.5 211 211 211
386.5 -257.8 205.6 212 213 212
375.0 -247.1 197.0 212 213 212
334.3 -217.6 173.5 212 213 212
686.5 -431.2 343.9 214 214 214
389.8 -242.0 193.0 215 215 215
333.1 -204.5 163.1 211 211 211
52.4 -18.1 14.5 120 120 120
51.9 -17.9 14.2 122 122 122
76.7 -25.7 20.5 121 121 121
77.2 -25.7 20.5 122 122 122
78.3 -25.9 20.7 125 125 125
78.8 -26.0 20.7 127 126 125
-18.9 -35.5 28.8 94 94 94
-17.9 -35.0 28.4 90 92 91
-17.5 -35.5 28.8 80 83 82
21.9 -17.1 13.9 210 210 210
21.5 -16.5 13.4 210 210 210
312.3 -223.8 181.9 212 213 212
277.0 -190.8 155.1 210 210 210
381.1 -255.8 207.9 211 211 211
390.2 -258.7 210.2 211 211 211
386.5 -253.0 205.6 215 215 215
363.6 -235.1 191.1 215 215 215
334.3 -213.6 173.5 212 213 212
338.3 -213.6 173.5 212 213 212
276.4 -172.4 140.1 214 214 214
674.2 -415.7 337.8 217 217 217
385.8 -235.1 191.1 215 215 215
324.7 -195.6 159.0 211 211 211
52.3 -17.8 14.4 111 111 111
52.0 -17.6 14.3 112 112 112
52.1 -17.5 14.2 113 114 113
78.0 -25.4 20.6 121 121 121
78.3 -25.3 20.6 130 130 130
-19.1 -35.3 29.2 97 97 97
-18.2 -34.8 28.8 92 92 92
13.5 -13.2 10.9 212 213 212
17.6 -15.0 12.4 207 207 207
21.9 -16.8 13.9 210 210 210
433.6 -282.0 233.5 215 215 215
444.5 -285.5 236.5 215 215 215
375.0 -237.9 197.0 215 215 215
256.1 -158.6 131.4 216 216 216
248.8 -152.3 126.1 216 216 216
755.1 -456.8 378.3 217 217 217
52.6 -17.5 14.5 107 109 109
46.7 -15.1 12.5 107 107 107
45.9 -14.7 12.2 106 106 106
78.0 -24.7 20.5 145 147 147
-23.9 -46.7 39.4 83 83 83
-22.5 -45.7 38.6 40 40 40
17.5 -14.6 12.4 207 207 207
17.6 -14.3 12.1 210 210 210
18.3 -14.6 12.3 210 210 210
722.5 -466.7 394.1 214 214 214
540.3 -344.6 291.0 215 215 215
582.9 -367.2 310.1 215 215 215
418.6 -260.5 220.0 215 215 215
726.1 -430.8 363.8 216 216 216
465.8 -273.2 230.7 217 217 217
52.8 -17.3 14.6 105 105 105
52.7 -17.1 14.5 105 105 105
53.1 -17.1 14.5 105 105 105
46.8 -14.7 12.4 76 78 77
45.9 -14.4 12.1 66 66 64
46.2 -14.4 12.1 155 155 155
46.7 -14.4 12.2 125 125 125
-24.5 -46.8 40.3 103 105 105
-24.0 -47.7 41.1 91 91 91
17.6 -14.0 12.0 207 207 207
18.2 -14.2 12.3 210 210 210
713.3 -457.5 394.1 217 217 217
450.2 -281.5 242.5 218 218 218
515.3 -318.3 274.1 218 218 218
387.1 -236.1 203.4 218 218 218
350.4 -211.2 181.9 219 219 219
572.1 -332.7 286.6 216 216 216
360.3 -207.2 178.5 217 217 217
47.6 -23.1 19.9 203 203 203
53.2 -16.9 14.6 99 99 99
53.6 -16.9 14.6 97 97 97
47.3 -14.6 12.6 68 68 68
46.2 -14.1 12.1 151 153 153
47.4 -14.4 12.4 120 122 121
-26.0 -46.9 41.2 94 94 94
-25.4 -47.5 41.8 86 88 88
-24.9 -48.6 42.7 108 108 108
-23.7 -48.0 42.2 126 126 126
17.3 -13.5 11.9 210 210 210
18.0 -13.6 11.9 214 214 214
423.1 -259.3 227.9 218 218 218
467.9 -283.2 248.9 218 218 218
400.0 -239.1 210.2 218 218 218
258.4 -152.6 134.2 218 218 218
219.5 -128.1 112.6 219 219 219
215.7 -124.4 109.3 219 219 219
186.0 -106.0 93.2 219 219 219
353.7 -199.3 175.2 220 220 220
232.3 -125.1 110.0 196 196 196
185.3 -98.7 86.8 198 198 198
45.4 -21.8 19.2 205 205 205
54.1 -16.8 14.8 83 83 83
54.6 -16.8 14.8 72 72 72
47.6 -14.1 12.4 121 123 122
-22.1 -11.3 10.1 19 23 20
-21.7 -11.3 10.1 133 133 133
-28.8 -47.5 42.6 126 128 127
-28.0 -47.7 42.8 96 99 98
-26.8 -47.4 42.5 94 97 96
-25.9 -47.6 42.7 109 109 109
-25.6 -48.8 43.8 22 22 22
-24.2 -48.1 43.2 14 18 15
-23.2 -48.0 43.1 115 115 115
17.3 -13.2 11.8 214 214 214
17.4 -13.1 11.7 214 214 214
17.9 -13.2 11.9 214 214 214
249.6 -144.4 129.6 218 218 218
201.5 -115.2 103.4 219 219 219
189.4 -107.0 96.0 219 219 219
170.8 -95.4 85.6 219 219 219
205.8 -109.8 98.5 179 179 179
199.8 -105.4 94.6 194 194 194
178.0 -92.9 83.3 198 198 198
45.7 -21.7 19.5 205 205 205
54.7 -16.6 14.9 77 79 78
54.9 -16.6 14.9 74 74 74
55.2 -16.5 14.8 74 74 74
49.8 -14.5 13.0 122 124 123
-21.9 -11.0 10.1 24 24 24
-29.6 -47.7 43.7 118 118 118
-28.8 -48.1 44.1 95 98 97
-27.6 -47.8 43.8 100 100 100
-26.6 -47.8 43.8 111 111 111
-26.2 -49.0 44.9 13 17 14
-24.9 -48.5 44.4 23 23 22
-23.5 -47.8 43.8 102 102 102
21.9 -15.1 13.9 214 214 214
22.3 -15.0 13.7 216 219 218
22.2 -14.7 13.5 216 219 218
455.7 -261.3 239.4 218 218 218
195.1 -109.2 100.1 219 219 219
184.7 -102.2 93.6 219 219 219
168.6 -92.1 84.4 219 219 219
198.6 -103.7 95.1 181 181 181
195.9 -101.2 92.7 194 194 194
175.6 -89.7 82.2 198 198 198
157.1 -79.4 72.8 198 198 198
45.0 -21.0 19.2 205 205 205
55.0 -16.3 14.9 77 79 78
55.4 -16.3 14.9 77 79 78
-10.3 -11.2 10.5 30 30 30
-29.0 -49.2 46.0 101 101 101
-27.5 -48.4 45.4 111 111 111
-27.1 -49.6 46.5 19 19 19
-26.3 -50.1 46.9 28 28 28
21.9 -14.8 13.9 216 219 218
21.5 -14.3 13.4 216 219 218
22.1 -14.3 13.4 216 219 218
189.4 -102.5 96.0 219 219 219
165.6 -88.6 83.0 219 219 219
179.5 -89.8 84.1 198 198 198
153.5 -75.9 71.1 198 198 198
44.9 -20.5 19.2 205 205 205
-10.3 -11.0 10.5 29 29 27
-10.0 -11.0 10.5 32 32 32
-36.7 -68.4 65.5 18 18 18
-34.2 -66.5 63.7 18 18 18
22.1 -14.6 14.0 216 219 218
21.4 -13.9 13.3 216 219 218
21.9 -13.9 13.3 216 219 218
173.2 -90.6 86.8 219 219 219
44.8 -20.0 19.1 204 204 204
43.7 -19.3 18.4 205 205 205
-36.6 -66.6 65.2 30 32 32
-38.6 -61.1 61.2 101 101 101
-36.1 -59.4 59.5 112 112 112
-33.2 -59.0 59.1 23 23 22
-32.2 -59.8 59.9 160 163 162
-30.5 -59.2 59.3 179 179 179
22.4 -14.4 14.4 216 219 218
781.5 -377.6 378.3 220 220 220
-43.7 -67.6 69.3 100 102 102
-38.7 -62.1 63.7 113 115 114
-37.8 -63.2 64.8 43 44 43
-34.9 -60.7 62.2 23 23 22
-33.4 -60.7 62.2 159 162 161
-33.4 -63.4 65.0 178 178 178
22.5 -14.1 14.5 216 219 218
22.6 -13.6 13.9 217 220 219
227.0 -104.8 107.5 194 194 194
-53.2 -80.4 84.4 99 101 101
-44.2 -72.0 75.7 29 29 29
21.9 -13.2 13.9 219 222 221
22.5 -13.2 13.9 217 220 219
23.5 -13.2 13.9 220 223 222
225.7 -101.7 106.9 192 192 192
-59.5 -91.0 98.0 107 107 107
-58.8 -93.4 100.6 27 27 27
-54.4 -90.1 97.0 20 20 20
-53.2 -92.0 99.0 168 170 169
21.9 -12.9 13.9 219 222 221
22.5 -12.9 13.9 220 223 222
22.1 -12.4 13.4 217 220 219
23.5 -12.9 13.9 220 223 222
215.9 -96.0 103.4 185 185 185
211.4 -92.9 100.1 190 190 190
197.0 -85.7 92.3 198 198 198
-61.4 -95.1 105.1 22 22 22
-57.0 -92.1 101.7 25 25 23
-105.9 -178.4 197.0 165 165 165
17.3 -10.7 11.8 220 223 222
17.4 -10.6 11.7 219 222 221
17.6 -10.2 11.3 219 222 221
21.9 -12.6 13.9 220 223 222
21.5 -12.2 13.4 220 223 222
22.1 -12.2 13.4 220 223 222
23.7 -12.8 14.2 217 220 219
205.8 -89.2 98.5 180 180 180
206.0 -88.3 97.5 180 180 180
189.6 -80.4 88.8 198 198 198
172.3 -72.3 79.8 198 198 198
-65.9 -103.6 117.5 38 38 38
23.7 -12.5 14.2 220 223 222
211.4 -88.3 100.1 173 173 173
182.0 -75.2 85.2 198 198 198
166.0 -67.8 76.9 198 198 198
160.6 -64.9 73.6 198 198 198
-85.6 -125.9 146.6 31 31 31
-75.2 -115.2 134.2 27 27 27
-74.8 -125.0 145.5 178 178 178
-66.4 -116.0 135.1 178 181 180
17.5 -10.3 11.9 220 223 222
17.8 -10.3 12.0 220 223 222
18.0 -10.3 11.9 220 223 222
24.5 -12.6 14.6 220 223 222
208.1 -84.6 98.5 175 177 177
183.6 -73.8 86.0 198 198 198
170.9 -68.0 79.1 198 198 198
17.5 -10.0 11.9 220 223 222
18.0 -10.0 11.9 220 223 222
17.8 -9.7 11.6 220 223 222
22.7 -12.2 14.6 220 223 222
22.3 -11.8 14.1 220 223 222
22.7 -11.7 14.0 220 223 222
24.4 -12.4 14.8 220 223 222
24.6 -12.3 14.7 220 223 222
208.1 -82.3 98.5 175 177 177
191.4 -74.9 89.7 196 196 196
181.5 -70.2 84.1 198 198 198
14.0 -8.1 10.0 222 224 224
18.0 -9.7 11.9 220 223 222
17.8 -9.4 11.6 220 223 222
22.6 -11.3 13.9 220 223 222
208.1 -80.0 98.5 181 181 181
188.8 -71.8 88.4 194 194 194
171.6 -64.6 79.5 196 196 196
14.0 -8.0 10.1 222 224 224
14.2 -7.9 10.0 222 224 224
17.8 -9.3 11.8 220 223 222
17.9 -9.2 11.7 220 223 222
22.5 -10.9 13.8 222 224 224
22.3 -10.7 13.6 222 224 224
209.2 -78.1 99.0 168 168 168
190.5 -70.4 89.2 185 185 185
170.1 -62.2 78.8 196 196 196
14.1 -7.7 10.1 222 224 224
21.8 -10.4 13.6 222 224 224
22.5 -10.6 13.8 222 224 224
22.1 -10.3 13.4 222 224 224
23.0 -10.3 13.4 222 224 224
223.3 -81.8 106.9 185 185 185
218.3 -79.2 103.4 134 134 134
207.2 -74.3 97.0 167 167 167
14.1 -7.5 10.1 218 221 220
21.6 -10.2 13.7 222 224 224
21.6 -10.0 13.5 222 224 224
22.2 -10.2 13.7 222 224 224
22.1 -10.0 13.4 222 224 224
23.0 -10.1 13.6 222 224 224
23.0 -10.0 13.4 222 224 224
23.6 -10.1 13.6 222 224 224
23.9 -10.0 13.5 222 224 224
24.5 -10.1 13.6 222 224 224
24.7 -10.0 13.5 222 224 224
25.5 -10.1 13.6 223 225 225
242.2 -85.1 114.6 134 137 136
21.6 -9.9 13.7 222 224 224
21.7 -9.8 13.6 222 224 224
22.2 -9.8 13.7 222 224 224
22.2 -9.7 13.5 222 224 224
23.0 -9.9 13.7 222 224 224
23.1 -9.8 13.6 222 224 224
23.1 -9.7 13.5 222 224 224
23.7 -9.8 13.6 222 224 224
23.9 -9.8 13.6 222 224 224
24.5 -9.8 13.7 222 224 224
24.6 -9.8 13.6 222 224 224
24.9 -9.8 13.6 223 225 225
25.3 -9.8 13.6 223 225 225
25.6 -9.8 13.6 223 225 225
519.9 -179.0 248.9 180 180 180
249.7 -85.0 118.2 100 100 100
21.6 -9.5 13.7 222 224 224
21.7 -9.4 13.5 222 224 224
22.2 -9.5 13.7 222 224 224
22.2 -9.4 13.5 222 224 224
23.2 -9.5 13.7 222 224 224
22.9 -9.3 13.3 222 224 224
23.7 -9.5 13.6 222 224 224
23.9 -9.4 13.6 222 224 224
24.6 -9.6 13.8 222 224 224
24.6 -9.5 13.6 223 225 225
252.9 -83.3 119.7 112 112 112
-215.6 -51.5 76.6 26 27 25
-213.8 -51.5 76.6 29 29 27
-207.8 -50.9 75.7 31 31 31
-210.2 -51.9 77.2 33 33 33
-208.4 -51.9 77.2 27 29 27
-197.2 -50.9 75.7 33 33 33
-196.2 -51.1 76.0 39 39 39
-187.6 -52.2 77.5 61 61 61
-185.1 -51.9 77.2 64 64 64
-180.3 -51.1 76.0 53 53 53
-178.6 -51.1 76.0 53 53 53
-179.0 -51.7 76.9 85 86 84
-174.3 -50.9 75.7 166 169 168
-172.6 -50.9 75.7 136 138 137
-172.8 -52.6 78.2 58 58 58
-168.9 -51.9 77.2 64 64 64
-165.3 -51.9 77.2 64 64 64
-163.5 -51.9 77.2 58 59 59
-159.1 -51.1 76.0 52 52 52
-152.5 -49.5 73.6 50 50 50
-152.5 -50.1 74.5 53 52 52
-151.4 -50.3 74.8 48 47 46
-146.8 -51.7 76.9 48 47 46
-124.3 -52.8 78.5 40 40 40
21.9 -9.3 13.9 222 224 224
21.8 -9.2 13.6 222 224 224
22.4 -9.3 13.8 222 224 224
22.3 -9.1 13.5 222 224 224
25.3 -9.5 14.2 223 225 225
74.2 -21.7 32.3 199 199 199
-218.3 -50.4 77.5 39 38 37
-184.0 -50.4 77.5 36 36 36
-177.2 -49.9 76.9 172 174 174
-175.4 -49.9 76.9 178 181 180
-326.0 -93.8 144.4 19 23 20
-320.8 -95.2 146.6 30 29 29
-318.0 -97.5 150.1 35 34 33
-341.6 -105.9 163.1 25 25 25
-318.6 -99.9 153.8 36 37 36
-261.8 -83.0 127.8 47 46 45
14.1 -6.6 10.1 218 218 218
14.2 -6.5 10.0 215 215 215
21.9 -9.0 13.9 223 225 225
22.5 -9.0 13.8 223 225 225
22.3 -8.8 13.5 223 225 225
23.6 -9.0 13.9 223 225 225
156.9 -44.4 68.3 199 199 199
159.8 -43.4 66.8 208 208 208
158.0 -42.5 65.5 200 200 200
156.8 -41.8 64.3 229 229 229
-323.3 -92.6 147.8 35 34 33
-340.4 -99.6 159.0 25 25 25
-318.0 -94.0 150.1 25 25 25
-353.8 -105.8 168.9 19 23 20
-311.0 -94.0 150.1 19 23 20
-269.1 -82.3 131.4 49 49 49
22.4 -8.6 13.8 223 225 225
22.3 -8.5 13.6 223 225 225
160.5 -42.5 67.8 203 203 203
157.6 -41.3 65.9 208 208 208
156.4 -40.6 64.8 200 200 200
152.2 -39.1 62.4 231 231 231
155.2 -39.5 63.1 234 236 236
160.9 -40.6 64.8 108 108 108
-579.0 -156.3 259.1 64 64 64
-376.2 -103.7 172.0 60 59 58
-611.1 -170.3 282.3 60 59 58
-512.7 -144.4 239.4 57 57 57
-455.3 -129.6 215.0 58 58 58
-483.3 -139.1 230.7 56 56 56
-395.8 -115.2 191.1 61 60 59
163.6 -43.4 71.9 197 197 197
162.8 -42.7 70.8 199 199 199
166.5 -42.4 70.3 206 206 206
163.9 -41.3 68.5 208 208 208
163.7 -40.9 67.8 200 200 200
159.0 -39.3 65.2 234 234 234
163.9 -40.2 66.6 235 238 237
169.0 -41.0 68.0 112 114 113
-640.4 -166.2 286.6 73 74 72
-520.3 -142.4 245.7 69 71 69
-508.0 -140.6 242.5 69 71 69
169.4 -43.2 74.5 198 198 198
170.5 -43.0 74.2 200 200 200
173.6 -42.5 73.3 204 204 204
168.8 -40.9 70.6 206 206 206
168.5 -40.5 69.8 199 199 199
173.0 -40.8 70.3 235 238 237
174.7 -40.8 70.3 108 108 108
45.3 -9.5 16.4 77 80 79
1006.1 -176.9 305.1 128 131 130
172.1 -47.4 85.2 225 227 227
225.7 -59.5 106.9 74 74 74
193.3 -50.4 90.5 143 143 142
195.6 -47.9 86.0 198 198 198
245.3 -58.8 105.7 200 200 200
203.6 -47.9 86.0 200 200 200
204.8 -47.2 84.8 196 196 196
44.6 -9.1 16.3 75 76 76
45.4 -9.1 16.4 77 80 79
45.2 -9.0 16.2 77 77 77
44.9 -8.9 16.0 79 82 81
21.7 -7.2 13.5 224 226 226
22.2 -7.2 13.5 224 226 226
185.1 -49.5 92.7 225 227 227
175.2 -46.3 86.8 223 225 225
210.3 -53.1 99.6 110 110 110
193.3 -48.3 90.5 145 147 147
196.3 -48.5 90.9 169 171 170
205.8 -48.7 91.4 195 195 195
203.0 -47.6 89.2 198 198 198
205.1 -47.6 89.2 198 198 198
217.4 -49.9 93.6 200 200 200
213.2 -48.5 90.9 200 200 200
211.3 -47.6 89.2 202 202 202
209.4 -46.7 87.6 204 204 204
207.6 -45.9 86.0 199 199 199
208.7 -45.2 84.8 236 236 236
209.8 -45.0 84.4 117 117 117
230.2 -49.0 91.8 70 72 72
229.0 -48.3 90.5 70 70 70
236.8 -49.5 92.7 66 66 66
231.0 -47.8 89.7 65 65 65
45.2 -8.7 16.2 79 81 80
733.9 -123.0 230.7 75 76 76
21.5 -6.9 13.5 223 225 225
22.1 -6.9 13.6 223 225 225
22.1 -6.8 13.4 223 225 225
184.2 -47.1 92.3 223 225 225
210.3 -50.8 99.6 65 65 65
193.3 -46.2 90.5 144 146 146
193.5 -45.7 89.7 166 169 168
203.8 -46.2 90.5 195 195 195
203.9 -45.7 89.7 196 196 196
207.0 -45.9 90.1 198 198 198
214.2 -47.1 92.3 202 202 202
213.2 -46.4 90.9 202 202 202
213.3 -45.9 90.1 204 204 204
228.0 -46.4 90.9 70 72 72
226.9 -45.7 89.7 68 68 68
232.3 -46.4 90.9 68 68 68
226.7 -44.9 88.0 65 65 65
45.3 -8.4 16.4 79 81 80
21.8 -6.7 13.8 222 222 222
21.6 -6.6 13.5 223 225 225
22.1 -6.5 13.4 223 225 225
184.2 -44.9 92.3 224 226 226
193.3 -44.1 90.5 144 146 146
196.5 -42.1 86.4 196 196 196
199.4 -42.2 86.8 199 199 199
211.1 -44.3 90.9 199 199 199
204.4 -42.4 87.2 202 202 202
204.5 -42.1 86.4 205 205 205
156.3 -31.2 64.1 224 224 224
163.3 -32.3 66.4 219 219 219
218.6 -42.4 87.2 59 61 60
217.6 -41.9 86.0 66 66 66
226.8 -43.2 88.8 69 69 69
217.6 -41.1 84.4 65 65 65
21.9 -6.4 13.9 222 222 222
21.8 -6.3 13.6 222 222 222
22.5 -6.4 13.8 225 227 227
22.2 -6.2 13.5 224 226 226
21.9 -6.1 13.9 224 224 224
21.7 -6.0 13.6 224 224 224
22.2 -5.9 13.5 224 224 224
887.4 -155.2 394.1 194 194 194
896.5 -155.2 394.1 197 197 197
905.7 -155.2 394.1 197 197 197
924.0 -155.2 394.1 200 200 200
942.3 -155.2 394.1 203 203 203
951.5 -155.2 394.1 206 206 206
922.2 -149.0 378.3 210 210 210
912.8 -146.1 370.9 228 231 230
780.8 -118.3 300.3 60 63 62
1004.0 -133.0 337.8 114 116 115
787.0 -103.5 262.7 112 112 112
477.3 -76.2 205.6 197 197 197
482.1 -76.2 205.6 200 200 200
471.5 -73.8 199.1 200 200 200
485.4 -73.8 199.1 226 226 226
484.9 -73.0 197.0 226 226 226
484.4 -72.3 195.0 129 132 131
578.7 -82.5 222.5 59 59 59
443.1 -62.6 168.9 64 66 66
596.5 -73.8 199.1 107 107 107
848.1 -113.3 326.1 61 64 63
501.3 -66.4 191.1 61 64 63
691.0 -80.1 230.7 107 107 107
768.6 -95.8 295.6 60 60 60
858.5 -92.9 286.6 103 105 105
768.6 -88.9 295.6 60 60 60
960.4 -96.5 320.6 103 105 105
1024.8 -100.3 394.1 59 59 59
427.8 -30.1 163.1 67 69 68
622.6 -38.7 239.4 77 77 77
481.8 -29.6 183.7 67 69 68
329.4 -20.1 124.4 62 62 62
745.1 -38.7 239.4 54 53 52
706.0 -36.4 225.2 67 67 65
694.7 -35.5 220.0 82 84 84
29.9 -2.0 14.6 225 225 225
30.1 -2.0 14.6 221 221 221
485.4 -27.5 199.1 216 219 218
614.9 -32.7 236.5 73 73 73
435.3 -22.9 165.9 64 64 64
699.5 -32.3 233.5 104 106 106
859.1 -38.4 278.2 50 50 50
754.6 -33.5 242.5 44 46 46
689.5 -30.4 220.0 150 150 150
649.4 -28.4 205.6 90 90 90
30.3 -1.7 15.0 225 225 225
30.2 -1.7 14.8 228 228 228
932.1 -44.4 386.0 208 208 208
555.5 -26.2 227.9 215 215 215
673.8 -29.8 259.1 65 67 66
443.1 -19.4 168.9 59 59 59
871.7 -33.5 291.0 104 106 106
912.8 -34.0 295.6 51 51 51
853.1 -31.5 274.1 34 34 34
30.0 -1.4 14.9 226 226 226
30.1 -1.3 14.7 222 222 222
928.1 -32.7 356.9 65 67 66
443.1 -15.5 168.9 60 60 60
29.9 -1.0 14.8 226 226 226
30.0 -1.0 14.7 219 222 221
30.4 -1.0 14.7 224 224 224
30.2 -0.7 15.0 225 225 225
30.2 -0.7 14.8 227 227 227
30.5 -0.7 14.8 225 225 225
30.9 -0.7 14.8 179 179 179
30.0 -0.3 15.0 225 225 225
30.2 -0.3 15.0 225 225 225
30.2 -0.3 14.8 225 225 225
30.5 -0.3 14.8 220 223 222
723.4 -6.1 278.2 57 57 55
557.6 -4.7 212.5 58 58 56
93.0 -0.5 24.7 87 87 87
30.1 0.0 14.9 226 226 226
30.1 0.0 14.8 222 224 224
745.3 0.4 286.6 52 52 52
90.0 0.0 25.0 205 205 205
89.6 0.0 24.7 120 122 121
86.4 0.0 23.7 145 145 144
94.8 0.0 25.4 83 83 83
92.7 0.0 24.6 87 87 87
93.2 0.0 24.6 85 85 85
848.1 8.0 326.1 51 51 51
88.8 0.6 25.2 145 145 144
89.3 0.6 25.1 75 75 75
90.0 0.6 25.2 105 107 107
90.6 0.6 25.2 204 204 204
90.8 0.6 25.1 105 107 107
88.0 0.6 24.1 140 140 140
94.8 0.6 25.4 88 88 88
93.8 0.6 24.9 88 88 88
93.7 0.6 24.8 91 93 92
89.2 1.2 25.3 147 147 147
89.3 1.2 25.1 67 67 67
90.0 1.2 25.2 121 123 122
90.7 1.2 25.2 204 204 204
91.1 1.2 25.2 105 105 105
89.7 1.2 24.6 131 131 131
96.0 1.2 25.7 86 86 86
94.0 1.2 25.0 89 89 89
93.7 1.2 24.8 94 97 96
94.1 1.2 24.7 170 171 170
88.7 1.8 25.0 87 87 87
89.4 1.8 25.0 129 129 129
90.3 1.8 25.1 205 205 205
90.8 1.8 25.1 117 117 117
88.4 1.7 24.3 131 131 131
95.1 1.8 25.4 87 87 87
93.5 1.8 24.9 87 87 87
93.2 1.7 24.6 83 82 80
87.5 2.3 24.6 88 88 88
86.3 2.2 23.7 127 127 127
92.8 2.3 24.8 86 86 86
92.7 2.3 24.6 88 88 88
92.3 2.3 24.4 90 90 90
88.1 2.2 23.1 166 169 168
85.9 2.8 23.6 128 128 128
93.9 3.0 25.1 86 86 86
93.3 2.9 24.8 86 86 86
92.5 2.9 24.4 86 86 86
88.1 2.7 23.1 160 160 160
819.8 44.4 315.3 59 59 57
443.1 23.8 168.9 60 59 58
95.6 3.6 25.6 87 87 87
94.6 3.5 25.2 89 89 89
94.0 3.5 24.8 103 103 103
96.1 4.2 25.7 88 88 88
95.3 4.2 25.3 90 90 90
96.5 4.2 25.5 101 101 101
96.2 4.8 25.6 90 90 90
126.0 7.0 33.1 89 89 89
128.5 7.1 33.5 177 180 179
130.1 8.0 34.1 72 71 69
132.5 8.1 34.6 169 169 169
132.7 9.0 34.8 176 179 178
136.0 9.1 35.5 165 168 167
133.9 9.9 35.2 126 128 127
137.3 10.0 35.8 164 164 164
286.1 32.8 108.1 53 53 53
-213.3 56.8 97.5 84 83 81
-214.4 57.7 99.0 88 88 88
-225.2 62.6 107.5 108 108 108
-209.6 58.9 101.2 109 111 111
-240.5 78.1 134.2 95 94 93
-235.7 67.4 111.3 106 106 106
-225.2 65.1 107.5 109 109 109
-220.2 64.4 106.3 115 114 114
61.0 66.6 110.0 33 36 35
-170.5 64.0 101.7 119 119 119
-101.9 64.0 101.7 50 50 50
58.0 65.7 104.5 31 31 31
62.9 77.1 118.2 86 86 86
65.6 77.1 118.2 36 36 36
131.7 223.7 300.3 85 85 85
-28.0 11.0 11.3 157 160 159
-27.8 11.0 11.3 157 157 157
-25.1 11.0 11.3 61 61 61
-28.5 13.2 10.1 99 101 101
25.5 17.3 11.8 79 79 79
28.3 19.5 12.7 186 186 186
28.6 20.0 12.8 183 183 183
28.6 19.8 12.7 191 194 193
28.9 19.8 12.7 191 194 193
28.4 20.0 12.6 183 183 183
28.6 19.9 12.6 196 196 196
28.7 19.7 12.5 204 207 206
39.4 17.3 11.0 106 108 108
40.7 17.3 11.0 123 125 124
41.0 17.3 11.0 86 86 86
41.2 17.3 11.0 70 70 70
28.3 20.2 12.6 130 130 130
28.5 20.1 12.5 141 141 141
28.6 20.0 12.5 149 149 149
39.4 17.6 10.9 106 108 108
40.7 17.6 11.0 121 121 121
