ply
format ascii 1.0
element vertex 1624
property float x
property float y
property float z
property uchar red
property uchar green
property uchar blue
end_header
17.0 -66.0 26.3 163 163 163
17.7 -66.0 26.3 163 163 163
18.3 -66.0 26.3 163 163 163
18.9 -66.0 26.3 164 164 164
19.5 -66.0 26.3 164 164 164
20.1 -66.0 26.3 164 164 164
20.7 -66.0 26.3 164 164 164
21.3 -66.0 26.3 164 164 164
21.9 -66.0 26.3 164 164 164
22.5 -66.0 26.3 164 164 164
23.2 -66.0 26.3 164 164 164
23.8 -66.0 26.3 164 164 164
24.4 -66.0 26.3 164 164 164
25.0 -66.0 26.3 164 164 164
25.6 -66.0 26.3 165 165 165
26.2 -66.0 26.3 165 165 165
26.8 -66.0 26.3 165 165 165
27.4 -66.0 26.3 165 165 165
28.1 -66.0 26.3 168 168 168
28.7 -66.0 26.3 162 162 162
29.3 -66.0 26.3 162 162 162
29.8 -65.9 26.3 162 162 162
30.5 -66.0 26.3 162 162 162
31.1 -66.0 26.3 160 160 160
31.7 -65.9 26.3 160 160 160
32.3 -65.9 26.3 160 160 160
32.9 -66.0 26.3 160 160 160
33.5 -65.9 26.3 161 161 161
34.1 -65.9 26.3 161 161 161
34.8 -66.0 26.3 161 161 161
35.3 -65.9 26.3 161 161 161
36.0 -66.0 26.3 161 161 161
36.7 -66.1 26.3 161 161 161
37.3 -66.1 26.3 156 159 158
37.9 -66.1 26.3 156 159 158
38.5 -66.1 26.3 157 160 159
39.1 -66.0 26.3 157 160 159
39.6 -65.9 26.3 154 156 156
40.2 -65.9 26.3 154 156 156
40.8 -65.9 26.3 154 156 156
41.5 -66.0 26.3 155 158 157
42.1 -65.9 26.3 155 158 157
73.1 -53.0 21.1 97 97 97
73.5 -53.0 21.1 97 97 97
74.0 -53.0 21.1 94 94 94
74.5 -53.0 21.1 91 91 91
75.0 -53.0 21.1 91 91 91
75.5 -53.0 21.1 94 94 94
76.0 -53.0 21.1 85 87 87
76.6 -53.0 21.1 141 141 141
-168.0 -242.4 97.5 177 180 179
37.0 -61.1 24.6 157 160 159
37.2 -60.4 24.3 162 162 162
37.9 -60.7 24.4 157 160 159
38.9 -61.3 24.7 163 163 163
237.8 -279.9 112.6 157 157 157
217.2 -252.8 101.7 155 155 155
72.7 -51.6 20.7 94 94 94
-246.5 -347.6 141.2 175 175 175
-226.3 -323.5 131.4 177 177 177
32.2 -51.1 20.7 162 162 162
34.8 -52.7 21.4 158 161 160
34.2 -51.2 20.8 159 162 161
278.3 -328.0 133.2 157 157 157
266.4 -310.5 126.1 157 157 157
243.3 -280.6 114.0 155 155 155
-577.1 -795.6 326.1 173 173 173
-22.4 -40.4 16.6 178 178 178
27.1 -41.8 17.1 165 165 165
32.9 -48.8 20.0 164 164 164
32.0 -46.7 19.1 164 164 164
275.6 -318.2 130.5 157 157 157
252.5 -288.4 118.2 155 155 155
56.6 -36.0 14.8 214 214 214
-22.4 -40.0 16.6 178 178 178
-21.9 -39.8 16.5 175 174 172
25.4 -41.4 17.1 167 167 167
25.5 -40.9 16.9 167 167 167
25.9 -40.9 16.9 167 167 167
26.2 -40.7 16.8 167 167 167
26.6 -40.7 16.9 165 165 165
30.4 -43.3 17.9 167 167 167
29.3 -41.2 17.1 167 167 167
29.3 -40.7 16.9 167 167 167
283.4 -324.1 134.2 157 157 157
265.8 -300.7 124.4 155 155 155
58.9 -37.6 15.6 184 187 186
56.4 -35.6 14.7 214 214 214
-22.5 -39.8 16.6 171 173 173
-22.1 -39.8 16.7 171 173 173
23.8 -37.7 15.8 170 171 170
24.1 -37.7 15.8 170 171 170
24.3 -37.3 15.6 167 167 167
28.6 -39.8 16.7 167 167 167
28.6 -39.3 16.4 167 167 167
272.9 -305.8 127.8 155 155 155
56.4 -35.7 14.9 214 214 214
55.5 -34.9 14.6 216 216 216
55.2 -34.4 14.4 216 216 216
-23.6 -40.6 17.1 165 165 165
-22.7 -39.9 16.8 167 167 167
23.7 -37.2 15.7 172 174 174
24.2 -37.4 15.8 172 174 174
24.0 -36.6 15.4 175 177 177
24.2 -36.3 15.3 172 172 172
25.5 -37.2 15.7 173 175 175
28.5 -39.3 16.6 170 171 170
-23.6 -40.3 17.2 163 163 163
23.5 -37.2 15.8 179 179 179
23.8 -37.1 15.8 179 179 179
24.2 -37.1 15.8 175 177 177
24.4 -36.9 15.7 175 177 177
25.2 -37.0 15.8 180 180 180
27.9 -37.6 16.0 175 177 177
228.7 -183.4 78.2 115 115 115
232.4 -184.9 78.8 113 115 114
233.3 -184.2 78.5 113 115 114
42.2 -26.5 11.3 209 209 209
42.3 -26.4 11.2 214 214 214
-23.2 -39.8 17.1 159 159 159
12.4 -35.6 15.3 176 176 176
12.8 -35.6 15.3 169 171 170
13.1 -35.6 15.3 169 171 170
13.5 -35.6 15.3 169 171 170
13.8 -35.6 15.3 179 179 179
14.2 -35.6 15.3 169 171 170
14.6 -35.6 15.3 184 184 184
14.9 -35.6 15.3 172 174 174
15.3 -35.6 15.3 177 177 177
15.6 -35.6 15.3 177 177 177
23.2 -35.7 15.4 197 197 197
23.5 -35.6 15.3 197 197 197
23.8 -35.6 15.3 197 197 197
23.9 -35.2 15.2 198 198 198
24.4 -35.4 15.2 198 198 198
24.7 -35.4 15.2 198 198 198
25.2 -35.5 15.3 199 199 199
25.5 -35.5 15.3 202 202 202
25.9 -35.6 15.3 199 199 199
26.3 -35.6 15.3 197 197 197
212.9 -169.0 72.8 119 119 119
213.7 -168.4 72.5 116 116 116
215.4 -168.4 72.5 113 115 114
233.8 -177.2 76.3 111 113 112
232.8 -175.1 75.4 112 114 113
229.0 -171.0 73.6 110 112 111
41.9 -26.2 11.3 204 204 204
41.9 -26.0 11.2 206 206 206
41.7 -25.7 11.1 192 192 192
42.8 -26.1 11.2 216 216 216
43.1 -26.1 11.2 219 219 219
22.5 -34.4 14.9 203 203 203
22.9 -34.4 14.9 203 203 203
23.3 -34.4 15.0 203 203 203
23.4 -34.1 14.8 200 200 200
23.7 -34.0 14.8 200 200 200
24.5 -34.2 14.9 205 205 205
24.9 -34.3 14.9 205 205 205
25.1 -34.0 14.8 205 205 205
25.7 -34.4 15.0 203 203 203
25.9 -34.3 14.9 203 203 203
26.2 -34.1 14.8 203 203 203
205.1 -159.9 69.5 121 121 121
198.0 -153.2 66.6 119 119 119
226.5 -169.9 73.9 114 116 115
225.6 -168.0 73.0 112 114 113
218.0 -161.1 70.1 112 114 113
40.8 -24.9 10.8 180 180 180
23.3 -34.1 15.0 203 203 203
23.4 -33.7 14.8 204 204 204
24.9 -33.9 14.9 205 205 205
25.1 -33.7 14.8 205 205 205
26.0 -34.0 14.9 203 203 203
26.3 -33.9 14.9 206 206 206
193.9 -148.5 65.2 124 124 124
237.6 -176.5 77.5 120 120 120
228.2 -168.2 73.9 115 117 116
226.4 -165.6 72.8 112 114 113
205.2 -149.0 65.5 112 114 113
23.4 -34.4 15.3 203 203 203
23.7 -34.4 15.3 203 203 203
23.6 -33.7 14.9 207 207 207
25.0 -33.7 15.0 205 205 205
26.1 -33.8 15.0 206 206 206
26.4 -33.7 14.9 206 206 206
26.6 -33.6 14.9 207 207 207
301.3 -223.2 99.0 125 125 125
254.3 -187.0 83.0 125 125 125
233.7 -170.5 75.7 123 123 123
23.3 -33.9 15.2 206 206 206
23.6 -33.8 15.2 206 206 206
23.6 -33.3 15.0 206 206 206
26.1 -33.5 15.0 205 205 205
26.3 -33.2 14.9 206 206 206
26.6 -33.2 14.9 206 206 206
23.6 -33.6 15.2 205 205 205
23.4 -32.7 14.8 206 206 206
26.3 -32.9 14.9 205 205 205
26.4 -32.6 14.8 205 205 205
26.3 -32.1 14.5 206 206 206
23.3 -32.3 14.8 202 202 202
26.3 -32.6 14.9 207 207 207
26.4 -32.3 14.8 207 207 207
26.3 -31.7 14.5 205 205 205
23.3 -31.9 14.8 207 207 207
26.4 -32.3 15.0 207 207 207
26.5 -32.0 14.8 207 207 207
26.4 -31.5 14.6 207 207 207
-19.2 -28.4 13.3 120 122 121
-18.6 -28.4 13.3 120 122 121
-18.2 -28.3 13.2 119 121 120
26.5 -32.1 15.0 206 206 206
26.6 -31.8 14.9 206 206 206
-18.5 -27.9 13.2 117 117 117
26.6 -31.9 15.1 205 205 205
26.7 -31.6 14.9 206 206 206
26.1 -30.5 14.4 206 206 206
26.4 -30.5 14.4 206 206 206
23.0 -32.4 15.5 205 205 205
23.2 -32.2 15.4 205 205 205
23.5 -32.1 15.3 205 205 205
23.8 -32.0 15.3 206 206 206
23.7 -31.4 15.0 206 206 206
26.6 -32.4 15.5 207 207 207
26.9 -32.3 15.4 204 204 204
26.7 -31.7 15.1 205 205 205
26.7 -31.3 15.0 205 205 205
26.4 -30.5 14.6 205 205 205
26.5 -30.2 14.5 205 205 205
376.5 -269.0 128.7 186 186 186
-41.5 -30.5 14.7 50 50 50
-41.2 -30.5 14.7 50 50 50
-40.8 -30.5 14.7 53 52 52
-40.5 -30.5 14.7 53 52 52
-40.1 -30.5 14.7 53 52 52
-39.8 -30.5 14.7 53 52 52
-39.5 -30.5 14.7 53 52 52
-39.1 -30.5 14.7 53 52 52
-38.8 -30.5 14.7 50 50 50
-38.4 -30.5 14.7 50 50 50
-38.1 -30.5 14.7 50 50 50
-37.8 -30.5 14.8 50 50 50
-37.4 -30.5 14.8 50 50 50
-37.1 -30.5 14.7 48 47 46
-36.7 -30.5 14.7 48 47 46
-36.4 -30.5 14.7 48 47 46
-36.1 -30.5 14.8 45 45 45
-35.7 -30.5 14.7 45 45 45
-35.3 -30.5 14.7 45 45 45
-35.0 -30.5 14.7 45 45 45
-34.7 -30.5 14.7 45 45 45
-34.3 -30.5 14.7 45 45 45
-34.0 -30.5 14.7 43 43 43
-33.6 -30.5 14.7 43 43 43
-33.3 -30.5 14.7 43 43 43
-32.9 -30.5 14.7 43 43 43
-32.7 -30.5 14.8 43 43 43
-32.3 -30.5 14.8 45 45 45
-31.9 -30.5 14.7 45 45 45
-30.9 -30.5 14.8 41 41 41
-30.6 -30.6 14.8 41 41 41
-30.3 -30.6 14.8 42 42 42
-29.9 -30.6 14.8 39 39 39
-29.6 -30.5 14.8 42 42 42
7.2 -30.6 14.8 208 208 208
7.5 -30.5 14.8 208 208 208
7.8 -30.5 14.7 208 208 208
8.2 -30.5 14.7 208 208 208
8.9 -30.5 14.8 211 211 211
9.2 -30.5 14.8 208 208 208
9.6 -30.5 14.7 208 208 208
9.9 -30.5 14.8 208 208 208
10.2 -30.5 14.7 208 208 208
11.6 -30.5 14.8 208 208 208
12.0 -30.5 14.8 208 208 208
12.3 -30.5 14.7 208 208 208
12.6 -30.5 14.7 208 208 208
13.0 -30.5 14.8 208 208 208
13.3 -30.5 14.7 208 208 208
13.7 -30.5 14.7 208 208 208
14.0 -30.5 14.7 208 208 208
14.3 -30.5 14.7 205 205 205
14.7 -30.5 14.8 205 205 205
15.0 -30.5 14.8 208 208 208
15.4 -30.5 14.8 208 208 208
15.7 -30.5 14.7 208 208 208
16.1 -30.5 14.7 208 208 208
16.4 -30.5 14.8 208 208 208
16.8 -30.5 14.8 208 208 208
17.1 -30.5 14.7 208 208 208
23.2 -31.7 15.4 205 205 205
23.0 -30.6 14.8 205 205 205
23.3 -30.5 14.8 205 205 205
26.8 -31.9 15.4 207 207 207
26.5 -31.1 15.0 204 204 204
26.7 -30.8 14.9 204 204 204
26.5 -30.3 14.6 205 205 205
26.7 -30.1 14.6 205 205 205
27.1 -30.2 14.6 205 205 205
28.1 -30.5 14.7 205 205 205
28.4 -30.5 14.8 206 206 206
355.2 -241.4 116.8 184 184 184
257.7 -173.8 84.1 182 182 182
303.4 -201.6 97.5 178 181 180
278.4 -183.6 88.8 179 182 181
-53.9 -39.1 19.1 51 51 51
-53.9 -39.5 19.3 53 53 53
-53.5 -39.5 19.3 53 53 53
-52.9 -39.4 19.3 51 51 51
-51.8 -39.5 19.3 53 53 53
-51.2 -39.5 19.3 53 53 53
-50.8 -39.5 19.3 51 51 51
-50.3 -39.5 19.3 51 51 51
-50.0 -39.5 19.3 51 51 51
-49.5 -39.5 19.3 53 53 53
-48.2 -39.5 19.3 51 51 51
-47.6 -39.5 19.3 49 48 47
-46.7 -39.5 19.3 51 51 51
-46.3 -39.5 19.3 46 46 46
-45.4 -39.5 19.3 46 46 46
-43.7 -39.1 19.1 46 46 46
-42.9 -39.6 19.4 44 44 44
-40.5 -39.5 19.3 42 42 42
-277.2 -333.3 163.1 97 97 97
-22.7 -36.2 17.7 112 112 112
8.6 -21.6 10.6 207 207 207
8.8 -21.5 10.5 207 207 207
9.0 -21.5 10.5 207 207 207
10.3 -21.6 10.5 204 204 204
10.5 -21.5 10.5 207 207 207
10.7 -21.5 10.5 207 207 207
11.0 -21.6 10.6 207 207 207
22.7 -30.3 14.8 207 207 207
26.5 -30.7 15.0 206 206 206
26.7 -30.5 14.9 204 204 204
26.5 -29.9 14.6 204 204 204
26.7 -29.8 14.6 204 204 204
27.0 -29.7 14.6 204 204 204
27.4 -29.8 14.6 205 205 205
28.0 -30.1 14.7 205 205 205
28.4 -30.1 14.7 205 205 205
28.4 -29.7 14.6 205 205 205
357.4 -240.2 117.5 185 185 185
306.6 -201.4 98.5 185 185 185
296.5 -193.3 94.6 182 182 182
-55.1 -39.5 19.6 52 52 52
-55.0 -39.8 19.7 52 52 52
-54.5 -39.8 19.7 54 54 54
-54.0 -39.7 19.7 54 54 54
-53.5 -39.7 19.6 56 56 56
-53.1 -39.7 19.7 56 56 56
-52.7 -39.8 19.7 56 56 56
-52.2 -39.8 19.7 56 56 56
-51.8 -39.8 19.7 56 56 56
-51.3 -39.8 19.7 56 56 56
-50.8 -39.8 19.7 54 54 54
-50.3 -39.7 19.7 54 54 54
-50.0 -39.8 19.7 52 52 52
-49.4 -39.7 19.7 52 52 52
-49.0 -39.8 19.7 54 54 54
-48.5 -39.7 19.7 54 54 54
-48.0 -39.7 19.7 52 52 52
-47.6 -39.8 19.7 50 49 48
-47.2 -39.8 19.7 47 47 47
-46.8 -39.9 19.7 47 47 47
-46.3 -39.8 19.7 47 47 47
-45.9 -39.9 19.7 47 47 47
-45.4 -39.9 19.7 47 47 47
-44.8 -39.7 19.7 47 47 47
-44.7 -40.5 20.0 45 45 45
-43.6 -39.8 19.7 45 45 45
-41.6 -39.7 19.6 45 45 45
-41.1 -39.7 19.6 45 45 45
-40.8 -39.8 19.7 43 43 43
-40.4 -39.8 19.7 43 43 43
-300.5 -357.3 176.8 86 86 86
-23.7 -36.7 18.1 101 101 101
-22.9 -36.1 17.8 96 99 98
-24.8 -39.9 19.7 108 110 110
-24.4 -39.9 19.8 104 106 106
-22.5 -39.8 19.7 68 68 68
-22.0 -39.8 19.7 37 40 39
-21.6 -39.8 19.7 19 23 20
-21.1 -39.8 19.7 21 24 22
18.0 -21.7 10.7 205 205 205
26.6 -30.5 15.1 206 206 206
26.8 -30.3 15.0 206 206 206
26.8 -29.9 14.8 206 206 206
27.0 -29.8 14.7 204 204 204
27.5 -30.0 14.8 204 204 204
27.8 -29.9 14.8 204 204 204
28.2 -30.0 14.8 204 204 204
28.6 -30.0 14.8 204 204 204
28.6 -29.6 14.7 205 205 205
29.9 -30.3 15.0 205 205 205
30.1 -30.2 14.9 203 203 203
-55.8 -39.6 19.8 52 52 52
-66.8 -52.1 26.1 55 55 55
-688.2 -787.3 394.1 46 46 46
-334.9 -393.6 197.0 50 50 50
-23.7 -36.3 18.2 28 28 28
-22.9 -35.8 17.9 9 14 10
-24.9 -39.6 19.8 21 24 22
-22.8 -39.9 20.0 28 28 28
-22.3 -39.9 20.0 25 25 25
-21.9 -39.9 20.0 27 27 27
26.8 -30.0 15.0 205 205 205
27.1 -29.9 15.0 205 205 205
27.4 -29.9 15.0 206 206 206
27.8 -30.0 15.0 206 206 206
28.1 -29.9 15.0 203 203 203
28.5 -29.9 15.0 204 204 204
28.8 -29.9 15.0 204 204 204
29.1 -29.8 14.9 204 204 204
30.2 -30.3 15.1 204 204 204
30.4 -30.1 15.0 202 202 202
31.9 -30.2 15.1 188 188 188
32.3 -30.2 15.1 188 188 188
-534.3 -612.3 310.1 41 41 39
-24.0 -36.4 18.4 21 24 22
-23.2 -35.7 18.1 21 24 22
-21.8 -37.7 19.1 25 25 25
-21.6 -38.1 19.3 28 28 28
-21.1 -38.0 19.2 28 28 28
-20.5 -37.7 19.1 27 27 27
-19.8 -37.3 18.9 27 27 27
28.1 -29.9 15.1 205 205 205
28.4 -29.8 15.1 205 205 205
28.8 -29.8 15.1 205 205 205
29.0 -29.7 15.0 203 203 203
29.5 -29.9 15.1 206 206 206
30.5 -30.2 15.3 204 204 204
30.6 -30.0 15.2 204 204 204
32.1 -30.0 15.2 186 186 186
32.4 -30.0 15.2 190 190 190
-626.8 -709.8 363.8 40 40 40
-24.2 -36.2 18.6 22 25 23
-22.8 -39.7 20.3 28 28 28
-22.3 -39.8 20.4 30 29 29
-21.0 -38.2 19.6 30 29 29
-20.0 -37.2 19.1 31 32 30
28.4 -29.5 15.1 205 205 205
28.8 -29.5 15.1 208 208 208
29.0 -29.3 15.0 205 205 205
29.2 -29.2 15.0 208 208 208
31.1 -30.8 15.8 205 205 205
30.7 -29.7 15.2 203 203 203
31.7 -29.6 15.2 185 185 185
32.2 -29.7 15.2 189 189 189
32.4 -29.6 15.2 189 189 189
-57.7 -39.5 20.5 60 62 60
-57.5 -39.7 20.6 60 62 60
-56.9 -39.6 20.6 60 62 60
-56.3 -39.6 20.5 61 63 61
-56.1 -39.7 20.6 61 63 61
-55.8 -39.9 20.7 58 59 59
-55.1 -39.7 20.6 58 59 59
-54.6 -39.7 20.6 61 63 61
-54.1 -39.7 20.6 61 63 61
-53.8 -39.8 20.6 58 59 59
-53.3 -39.8 20.7 61 63 61
-52.8 -39.8 20.6 61 63 61
-603.6 -675.4 350.3 43 42 41
-25.7 -39.4 20.4 24 27 25
-25.3 -39.4 20.5 23 26 24
-25.0 -39.8 20.6 23 26 24
-24.4 -40.4 20.9 29 29 29
-23.5 -39.7 20.6 29 29 29
-23.0 -39.6 20.5 29 29 29
-22.7 -39.9 20.7 29 29 29
-21.9 -39.4 20.4 28 28 28
28.4 -29.2 15.1 204 204 204
28.7 -29.1 15.1 204 204 204
28.9 -28.9 15.0 204 204 204
29.0 -28.7 14.9 205 205 205
31.1 -30.4 15.8 205 205 205
30.6 -29.2 15.2 203 203 203
31.4 -28.9 15.0 182 182 182
32.0 -29.2 15.2 185 185 185
32.3 -29.2 15.1 189 189 189
-206.9 -217.0 114.0 43 42 41
-534.3 -590.7 310.1 46 46 46
-25.3 -39.1 20.5 24 27 25
-25.8 -41.4 21.7 30 29 29
-23.7 -39.5 20.7 30 29 29
-23.1 -39.3 20.6 23 26 24
-23.5 -40.9 21.5 29 29 29
28.5 -28.9 15.2 204 204 204
28.8 -28.8 15.1 204 204 204
28.8 -28.5 15.0 204 204 204
28.8 -28.1 14.8 204 204 204
30.6 -28.9 15.2 202 202 202
30.9 -28.5 15.0 167 167 167
31.1 -28.4 14.9 182 182 182
32.3 -28.8 15.1 188 188 188
-67.6 -50.1 26.6 60 60 60
-66.6 -49.8 26.5 61 61 61
-24.9 -40.2 21.4 32 32 32
28.9 -28.6 15.2 206 206 206
28.8 -28.2 15.0 203 203 203
28.8 -27.8 14.8 203 203 203
30.5 -28.4 15.1 204 204 204
31.6 -28.1 15.0 184 184 184
32.0 -28.2 15.0 186 186 186
910.0 -508.4 270.2 177 177 177
791.8 -439.4 233.5 178 178 178
35.4 -18.9 10.0 176 176 176
-133.1 -90.8 48.9 63 64 62
-132.3 -91.1 49.0 67 67 67
-124.2 -90.1 48.5 64 65 63
-90.9 -66.6 35.8 61 61 61
-89.9 -66.4 35.8 59 59 59
-84.7 -66.3 35.7 58 58 58
-83.6 -66.1 35.6 56 55 54
30.1 -30.1 16.2 205 205 205
29.2 -28.5 15.4 208 208 208
28.9 -27.9 15.0 203 203 203
28.9 -27.5 14.8 203 203 203
30.8 -29.0 15.6 203 203 203
31.0 -28.9 15.5 199 199 199
30.9 -28.5 15.3 203 203 203
31.0 -28.2 15.2 206 206 206
32.4 -28.2 15.2 189 189 189
630.7 -348.0 187.3 179 182 181
509.0 -279.0 150.1 178 178 178
36.4 -19.3 10.4 176 176 176
36.0 -18.9 10.2 176 176 176
-97.3 -65.0 35.4 67 67 67
-96.6 -65.1 35.5 67 67 67
-86.4 -64.9 35.4 60 60 60
-85.2 -65.2 35.6 58 59 59
-84.4 -65.2 35.6 58 59 59
-83.0 -64.8 35.3 57 56 55
-82.1 -64.8 35.3 57 56 55
30.0 -29.7 16.2 204 204 204
30.3 -29.6 16.1 205 205 205
29.6 -28.5 15.6 207 207 207
29.2 -27.8 15.1 205 205 205
29.1 -27.4 14.9 205 205 205
30.9 -28.5 15.5 202 202 202
31.0 -28.2 15.4 203 203 203
31.1 -27.9 15.2 199 199 199
32.2 -27.9 15.2 185 185 185
32.5 -27.9 15.2 185 185 185
663.5 -361.6 197.0 179 182 181
505.0 -273.3 148.9 178 178 178
-80.6 -51.8 28.6 67 67 67
-79.5 -52.0 28.7 64 65 63
-75.1 -51.3 28.3 68 68 68
-81.9 -63.1 34.8 57 57 55
-679.0 -714.0 394.1 46 46 46
-630.4 -672.0 370.9 46 46 46
30.2 -29.5 16.3 204 204 204
30.5 -29.4 16.2 204 204 204
29.5 -27.7 15.3 204 204 204
30.8 -28.0 15.4 205 205 205
31.0 -27.8 15.4 205 205 205
31.3 -27.8 15.3 205 205 205
31.7 -27.8 15.3 164 164 164
31.9 -27.7 15.3 181 181 181
32.4 -27.8 15.4 184 184 184
32.8 -27.8 15.4 184 184 184
548.2 -292.9 161.7 179 182 181
442.3 -234.7 129.6 177 177 177
-75.3 -47.9 26.8 68 68 68
-74.9 -48.0 26.8 68 68 68
-74.5 -48.1 26.9 68 68 68
-73.8 -48.1 26.9 68 68 68
-72.9 -47.9 26.8 68 68 68
-72.5 -48.1 26.9 68 68 68
-71.9 -48.1 26.9 69 69 69
-71.1 -47.9 26.8 69 69 69
-70.5 -47.9 26.8 69 69 69
-69.9 -48.0 26.8 71 72 70
-69.2 -47.9 26.8 69 69 69
-68.7 -48.0 26.8 69 69 69
-68.3 -48.2 26.9 69 69 69
-67.5 -48.1 26.9 70 70 70
-66.7 -47.9 26.8 67 68 66
-679.0 -704.8 394.1 47 47 47
30.5 -29.4 16.4 203 203 203
30.9 -29.4 16.4 203 203 203
31.0 -27.8 15.5 204 204 204
31.1 -27.6 15.4 204 204 204
31.5 -27.6 15.4 207 207 207
32.7 -27.7 15.5 183 183 183
33.2 -27.8 15.5 183 183 183
525.7 -277.3 155.1 177 177 177
442.3 -231.7 129.6 175 175 175
-75.4 -47.3 26.8 68 68 68
42.1 -36.8 20.8 204 204 204
786.4 -412.2 233.5 177 177 177
567.6 -295.5 167.4 179 182 181
-85.2 -52.7 30.3 69 69 69
-84.9 -53.0 30.4 69 69 69
-85.4 -53.8 30.9 69 69 69
-84.9 -53.8 30.9 70 70 70
816.6 -422.5 242.5 177 177 177
628.8 -323.1 185.5 177 177 177
-90.4 -55.2 32.1 70 70 70
38.9 -34.3 20.0 205 205 205
42.5 -36.6 21.3 205 205 205
42.6 -36.3 21.1 206 206 206
43.1 -36.3 21.1 199 199 199
661.2 -335.2 195.0 177 177 177
-199.5 -201.7 119.0 52 52 50
-160.4 -164.5 97.0 47 50 49
-140.2 -145.8 86.0 47 47 47
38.8 -34.1 20.1 205 205 205
39.1 -34.0 20.0 208 208 208
42.5 -36.5 21.5 205 205 205
42.4 -36.0 21.2 205 205 205
42.8 -35.9 21.2 206 206 206
31.1 -24.1 14.2 184 184 184
31.0 -23.8 14.0 184 184 184
-286.6 -212.3 127.0 66 66 66
-281.8 -210.9 126.1 70 72 69
-263.1 -198.9 119.0 67 67 67
-239.7 -215.2 128.7 220 220 220
-220.2 -200.2 119.7 221 221 221
-220.2 -202.8 121.3 220 220 220
-209.3 -195.3 116.8 219 219 219
-249.2 -245.2 146.6 67 67 67
-198.2 -197.7 118.2 56 56 56
-176.7 -178.7 106.9 51 51 49
-147.5 -151.4 90.5 47 47 47
-190.4 -204.1 122.0 23 26 24
-152.2 -165.6 99.0 58 58 58
47.4 -43.3 25.9 207 207 207
39.2 -34.1 20.4 208 208 208
39.2 -33.7 20.1 208 208 208
40.1 -34.0 20.3 208 208 208
42.0 -35.2 21.1 209 212 211
42.3 -35.1 21.0 208 208 208
-412.6 -243.7 147.8 52 52 52
-415.7 -247.6 150.1 54 54 54
-405.8 -243.7 147.8 59 59 59
-440.2 -266.6 161.7 64 64 64
-405.2 -247.6 150.1 70 70 70
-425.2 -264.4 160.3 70 70 70
-394.8 -247.6 150.1 73 74 72
-379.2 -239.9 145.5 73 74 72
-387.8 -247.6 150.1 73 74 72
-375.4 -241.8 146.6 73 74 72
-410.1 -266.6 161.7 71 71 71
-375.2 -271.2 164.5 69 71 69
-374.6 -273.6 165.9 78 78 78
-290.5 -216.6 131.4 75 76 74
-321.4 -281.0 170.4 219 219 219
-275.2 -243.7 147.8 226 226 226
-263.6 -236.3 143.3 224 224 224
-272.6 -247.6 150.1 221 221 221
-233.9 -215.1 130.5 220 220 220
-292.3 -283.6 172.0 43 43 43
-255.7 -251.6 152.6 58 58 58
-306.6 -305.8 185.5 51 51 49
-265.1 -276.0 167.4 25 28 25
-207.8 -219.7 133.2 31 31 31
49.7 -45.3 27.5 207 207 207
48.4 -43.6 26.4 207 207 207
39.7 -34.0 20.6 208 208 208
39.7 -33.5 20.3 208 208 208
41.9 -34.6 21.0 208 208 208
42.2 -34.4 20.9 208 208 208
30.3 -22.6 13.7 185 185 185
30.2 -22.3 13.5 185 185 185
-517.8 -301.5 185.5 32 31 30
-489.5 -287.4 176.8 36 36 36
-490.0 -290.1 178.5 38 38 38
-509.9 -304.5 187.3 39 41 41
-491.4 -298.6 183.7 52 52 52
-473.4 -290.1 178.5 54 54 54
-456.3 -282.1 173.5 59 59 59
-444.1 -277.1 170.4 65 65 65
-448.3 -282.1 173.5 67 68 66
-440.2 -279.6 172.0 70 70 70
-485.1 -313.8 193.0 77 77 77
-436.1 -284.8 175.2 77 77 77
-403.2 -287.4 176.8 154 156 156
-402.9 -290.1 178.5 160 160 160
-418.5 -304.5 187.3 156 156 156
-383.7 -282.1 173.5 161 161 161
-419.6 -361.8 222.5 216 216 216
-317.4 -277.1 170.4 217 217 217
-324.1 -290.1 178.5 216 216 216
-660.6 -615.1 378.3 207 210 209
-603.6 -569.5 350.3 200 202 202
-382.1 -370.5 227.9 58 58 58
-347.5 -341.7 210.2 47 48 47
-607.9 -615.1 378.3 34 36 34
-308.8 -317.0 195.0 30 30 30
49.7 -44.6 27.5 207 210 209
49.1 -43.6 26.8 208 211 210
48.4 -42.4 26.1 208 211 210
39.7 -33.5 20.6 207 207 207
54.6 -45.0 27.7 208 208 208
30.0 -22.1 13.6 188 188 188
30.2 -22.0 13.5 188 188 188
-738.2 -466.4 291.0 63 63 63
-469.3 -398.9 248.9 173 173 171
-363.2 -312.5 195.0 181 181 181
-651.8 -606.3 378.3 195 195 195
-535.9 -505.2 315.3 57 57 57
-422.8 -404.2 252.2 55 55 55
-579.1 -561.4 350.3 47 48 47
49.3 -43.1 26.9 207 210 209
48.8 -42.1 26.3 208 211 210
49.4 -42.1 26.3 208 211 210
29.9 -21.7 13.6 189 189 189
30.0 -21.6 13.5 189 189 189
30.1 -21.5 13.4 189 189 189
-595.4 -553.2 350.3 61 61 61
50.0 -43.1 27.3 207 210 209
49.9 -42.4 26.9 207 210 209
29.9 -21.4 13.6 189 189 189
30.1 -21.3 13.5 192 192 192
66.9 -30.5 19.3 181 181 181
80.2 -36.3 23.0 181 181 181
-116.3 -92.6 59.5 69 71 69
51.5 -43.7 28.1 207 210 209
65.9 -29.6 19.0 182 182 182
-28.2 -15.3 10.0 58 59 59
-28.0 -15.4 10.0 68 68 68
-21.0 -15.4 10.0 67 67 67
-20.8 -15.4 10.0 65 65 65
-15.4 -15.4 10.0 27 27 27
65.0 -28.8 18.8 183 183 183
63.6 -28.0 18.3 183 183 183
-28.4 -15.2 10.1 60 60 60
-28.2 -15.2 10.1 68 68 68
-21.4 -15.3 10.1 53 52 52
-21.1 -15.2 10.1 57 57 57
-20.9 -15.2 10.1 60 59 58
-15.5 -15.2 10.1 22 25 23
-15.2 -15.1 10.0 23 26 24
-14.9 -15.1 10.0 16 16 16
-14.7 -15.1 10.0 23 26 24
65.0 -28.4 18.8 184 184 184
-21.2 -15.0 10.1 41 43 42
-20.9 -15.0 10.1 54 54 54
-39.1 -28.4 19.1 57 57 57
-38.5 -28.3 19.0 75 76 76
-38.1 -28.3 19.0 57 57 57
-37.5 -28.2 19.0 67 69 67
-36.8 -27.9 18.8 71 71 71
-36.1 -27.8 18.7 67 67 67
-35.7 -27.8 18.7 68 70 68
-35.3 -27.8 18.7 68 70 68
-15.5 -15.0 10.1 20 23 21
-15.2 -14.9 10.0 21 24 22
-14.7 -14.9 10.0 26 26 26
76.0 -33.3 22.4 188 188 188
-24.1 -16.5 11.3 65 65 65
-23.8 -16.5 11.3 29 29 29
-23.6 -16.5 11.3 16 16 16
-23.3 -16.5 11.3 7 13 9
-23.1 -16.5 11.3 27 27 27
-22.8 -16.5 11.3 25 25 25
-22.5 -16.5 11.3 36 36 36
-22.3 -16.5 11.3 57 57 57
-22.0 -16.5 11.3 51 51 51
-21.8 -16.5 11.3 53 52 52
-18.8 -16.6 11.4 169 171 170
-18.4 -16.5 11.3 129 129 129
-18.1 -16.5 11.3 28 28 28
-16.0 -16.5 11.2 29 29 29
-15.7 -16.4 11.2 29 29 29
-15.4 -16.4 11.2 26 26 26
78.0 -33.9 23.2 190 192 192
78.4 -33.8 23.1 191 194 193
-28.0 -16.5 11.5 183 183 183
-27.7 -16.5 11.5 177 177 177
-27.4 -16.5 11.5 116 118 117
-27.2 -16.5 11.5 77 77 77
-26.9 -16.5 11.5 74 74 74
-24.5 -16.5 11.5 189 189 189
-24.3 -16.5 11.5 198 198 198
-24.0 -16.5 11.5 214 216 216
-23.7 -16.5 11.5 206 206 206
-23.5 -16.5 11.5 186 186 186
-23.2 -16.5 11.5 179 179 179
-22.9 -16.5 11.5 164 164 164
-22.7 -16.5 11.5 144 146 146
-22.4 -16.5 11.5 169 171 170
-22.1 -16.5 11.5 212 213 212
-21.9 -16.5 11.5 205 208 207
-18.9 -16.5 11.5 212 213 212
-18.7 -16.5 11.5 214 216 216
-18.4 -16.5 11.5 209 209 209
-18.1 -16.5 11.5 134 137 136
-16.3 -16.5 11.5 103 103 103
-15.9 -16.4 11.4 29 29 29
-10.8 -16.6 11.6 122 124 123
78.0 -33.3 23.2 191 194 193
78.5 -33.3 23.2 192 195 194
81.7 -33.5 23.3 189 189 189
81.8 -33.4 23.2 191 191 191
82.6 -33.5 23.2 189 189 189
82.9 -33.4 23.2 185 185 185
-10.9 -16.5 11.7 103 103 103
30.5 -20.5 14.4 191 191 191
77.4 -32.6 23.0 192 195 194
77.7 -32.5 22.9 193 196 195
78.7 -32.6 23.0 192 192 192
79.3 -32.7 23.1 192 192 192
80.1 -32.8 23.2 192 192 192
81.0 -32.9 23.2 192 192 192
81.1 -32.8 23.1 190 190 190
81.1 -32.6 23.0 190 190 190
82.3 -32.8 23.2 190 190 190
82.5 -32.7 23.1 186 186 186
30.5 -20.1 14.5 189 189 189
32.3 -21.1 15.1 195 195 195
32.3 -20.9 15.0 196 196 196
32.6 -20.8 15.0 196 196 196
33.8 -20.9 15.0 194 194 194
76.4 -31.6 22.7 193 196 195
75.9 -31.2 22.4 194 197 196
78.2 -31.7 22.8 194 197 196
78.8 -31.7 22.8 193 193 193
79.4 -31.8 22.8 193 193 193
79.5 -31.6 22.7 191 191 191
78.8 -31.1 22.3 191 191 191
81.2 -31.8 22.8 191 191 191
81.3 -31.7 22.7 188 188 188
32.3 -20.7 15.1 196 196 196
32.3 -20.5 15.0 196 196 196
32.7 -20.5 15.0 196 196 196
32.9 -20.4 14.9 196 196 196
33.3 -20.5 15.0 196 196 196
33.9 -20.6 15.0 197 197 197
79.5 -31.1 22.7 192 192 192
76.9 -29.9 21.8 192 192 192
82.2 -31.7 23.1 189 189 189
81.7 -31.3 22.8 185 185 185
80.3 -30.6 22.3 178 178 178
32.2 -20.3 15.1 196 196 196
32.3 -20.2 15.0 196 196 196
32.7 -20.2 15.0 196 196 196
33.0 -20.2 15.0 196 196 196
33.3 -20.2 15.0 197 197 197
33.9 -20.3 15.0 197 197 197
34.1 -20.2 15.0 197 197 197
83.0 -31.3 23.2 179 182 181
81.6 -30.5 22.7 174 174 174
32.6 -20.2 15.3 196 196 196
32.8 -20.1 15.2 196 196 196
32.9 -19.9 15.1 197 197 197
33.4 -20.1 15.2 197 197 197
33.5 -19.9 15.0 197 197 197
34.2 -20.1 15.2 197 197 197
84.7 -31.3 23.7 180 183 182
86.6 -31.9 24.1 167 167 167
32.9 -20.0 15.4 195 195 195
33.2 -20.0 15.4 199 199 199
33.3 -19.9 15.3 199 199 199
33.9 -20.0 15.4 197 197 197
34.1 -19.9 15.3 197 197 197
34.6 -20.0 15.4 197 197 197
35.2 -20.1 15.5 198 198 198
84.9 -30.9 23.7 154 156 156
87.4 -31.6 24.3 145 147 147
88.3 -31.7 24.4 140 142 141
-77.7 -35.3 27.6 74 74 74
-65.0 -35.3 27.7 29 31 29
-56.6 -35.3 27.7 112 112 112
-56.0 -35.3 27.7 146 146 146
-55.4 -35.3 27.7 96 96 96
-54.7 -35.3 27.7 6 11 7
-49.5 -35.3 27.6 54 54 54
-45.6 -35.7 28.0 49 49 49
-44.5 -35.4 27.7 6 6 6
-43.0 -35.2 27.5 82 82 82
-42.3 -35.2 27.5 25 25 25
-41.6 -36.2 28.4 19 23 20
-40.5 -35.8 28.1 23 23 23
-39.1 -35.1 27.5 29 30 28
-38.5 -35.2 27.5 126 128 127
34.3 -19.9 15.5 200 200 200
42.0 -22.7 17.7 202 202 202
89.4 -31.7 24.8 131 134 133
89.8 -31.7 24.8 131 134 133
90.8 -31.8 24.9 131 134 133
-79.7 -35.5 28.3 75 76 76
-78.6 -35.3 28.1 75 76 76
-77.9 -35.3 28.1 57 57 57
-77.3 -35.3 28.1 132 132 132
-76.6 -35.3 28.1 173 173 173
-76.0 -35.3 28.1 176 176 176
-75.3 -35.3 28.1 182 182 182
-74.7 -35.3 28.1 181 180 178
-74.0 -35.3 28.1 184 184 184
-73.4 -35.3 28.1 208 208 208
-72.7 -35.3 28.1 98 98 98
-72.1 -35.3 28.1 34 34 34
-71.4 -35.3 28.1 53 52 52
-70.7 -35.3 28.1 73 73 73
-70.1 -35.3 28.1 73 73 73
-69.4 -35.3 28.1 75 76 76
-68.8 -35.3 28.1 71 71 71
-68.1 -35.3 28.1 58 58 58
-67.5 -35.3 28.1 34 34 34
-66.8 -35.3 28.1 39 41 41
-66.2 -35.3 28.1 34 34 34
-65.5 -35.3 28.1 26 26 26
-64.9 -35.3 28.1 20 23 21
-64.2 -35.3 28.1 20 23 21
-63.5 -35.3 28.1 151 151 151
-62.9 -35.3 28.1 179 179 179
-62.2 -35.3 28.1 182 185 184
-61.6 -35.3 28.1 146 148 148
-60.9 -35.3 28.1 146 148 148
-60.3 -35.3 28.1 184 187 186
-59.6 -35.3 28.1 172 172 172
-59.0 -35.3 28.1 160 160 160
-58.3 -35.3 28.1 126 128 127
-57.7 -35.3 28.1 131 131 131
-57.0 -35.3 28.1 115 115 115
-56.4 -35.3 28.1 70 70 70
-55.7 -35.3 28.1 17 17 17
-55.0 -35.3 28.1 11 11 11
-54.4 -35.3 28.1 14 14 14
-53.7 -35.3 28.1 28 28 28
-53.1 -35.3 28.1 29 31 29
-52.4 -35.3 28.1 23 23 23
-51.9 -35.4 28.2 46 46 46
-51.4 -35.5 28.3 52 52 52
-49.7 -34.8 27.7 54 54 54
-50.2 -36.0 28.7 54 54 54
-48.6 -35.4 28.2 57 57 55
-47.9 -35.3 28.2 57 57 55
-47.3 -35.3 28.2 54 54 54
-46.7 -35.5 28.3 53 52 52
-46.2 -35.5 28.3 37 38 37
-45.3 -35.3 28.2 25 25 25
-44.6 -35.3 28.1 27 27 27
-43.8 -35.2 28.1 84 85 83
-43.2 -35.2 28.1 29 30 28
-42.7 -35.3 28.2 50 50 50
-42.7 -35.9 28.7 40 42 42
-41.9 -35.8 28.6 51 51 51
-40.6 -35.3 28.1 64 65 63
-39.5 -34.8 27.8 29 30 28
-39.2 -35.1 28.0 85 87 87
41.7 -22.1 17.6 205 205 205
91.1 -31.5 25.2 119 119 119
91.8 -31.6 25.2 120 120 120
-84.4 -37.2 30.2 71 71 71
-83.7 -37.2 30.2 47 47 47
-83.0 -37.2 30.2 155 155 155
-82.3 -37.2 30.2 145 147 147
-81.6 -37.2 30.2 158 157 155
-80.9 -37.2 30.2 184 184 184
-80.2 -37.2 30.2 188 190 190
-79.5 -37.2 30.2 187 189 189
-78.8 -37.2 30.2 144 146 146
-78.1 -37.2 30.2 49 49 49
-77.3 -37.2 30.2 53 52 52
-76.6 -37.2 30.2 66 66 66
-75.9 -37.2 30.2 72 72 72
-71.7 -37.2 30.2 29 31 29
-71.0 -37.2 30.2 26 26 26
-70.3 -37.2 30.2 20 23 21
-69.6 -37.2 30.2 18 22 19
-68.2 -37.2 30.2 140 140 140
-67.5 -37.2 30.2 163 162 160
-66.8 -37.2 30.2 193 193 193
-66.1 -37.2 30.2 147 149 149
-65.4 -37.2 30.2 133 133 133
-61.2 -37.2 30.2 137 139 138
-60.5 -37.2 30.2 106 106 106
-59.8 -37.2 30.2 14 14 14
-59.1 -37.2 30.2 14 14 14
-56.4 -37.2 30.3 23 23 23
-55.7 -37.2 30.3 44 43 42
-54.8 -37.1 30.2 53 53 53
-50.1 -37.3 30.3 46 46 46
-49.3 -37.2 30.3 36 37 36
-48.6 -37.2 30.2 27 27 27
-46.5 -37.2 30.3 23 23 23
-45.9 -37.3 30.3 26 26 26
-45.3 -37.4 30.4 119 119 119
-44.5 -37.3 30.3 71 71 71
-39.5 -37.3 30.3 27 29 27
-38.7 -37.2 30.2 35 35 35
-38.1 -37.3 30.3 86 88 88
-36.0 -37.2 30.3 39 41 41
-35.3 -37.2 30.3 113 114 113
38.9 -21.5 17.5 202 202 202
41.8 -21.7 17.6 205 205 205
51.3 -26.4 21.4 205 205 205
51.0 -26.0 21.1 192 192 192
91.5 -31.1 25.3 112 112 112
93.2 -31.5 25.6 112 112 112
-58.6 -37.5 31.1 41 41 41
-57.8 -37.4 31.0 19 23 20
-56.9 -37.4 31.0 45 45 45
-55.9 -37.1 30.8 53 53 53
-50.5 -37.4 31.0 36 37 36
-49.8 -37.4 31.0 27 29 27
-48.9 -37.3 30.9 27 29 27
-45.4 -37.4 31.0 25 25 25
-37.7 -36.9 30.6 31 30 29
-36.9 -37.5 31.1 108 110 110
-36.0 -37.3 30.9 66 66 66
38.9 -21.1 17.4 202 202 202
39.1 -21.0 17.4 202 202 202
42.6 -22.0 18.2 205 205 205
41.8 -21.3 17.6 206 206 206
45.4 -22.3 18.5 162 162 162
45.4 -22.1 18.3 112 112 112
51.4 -17.0 14.1 107 107 107
52.0 -17.1 14.2 107 107 107
38.6 -20.5 17.3 202 202 202
38.7 -20.4 17.2 202 202 202
42.6 -21.5 18.2 205 205 205
41.5 -20.8 17.5 206 206 206
45.2 -21.8 18.4 171 173 173
45.2 -21.6 18.2 114 116 115
51.0 -16.7 14.1 105 105 105
51.8 -16.8 14.2 102 104 104
52.5 -16.9 14.3 100 102 102
38.2 -19.9 17.1 202 202 202
38.2 -19.7 17.0 202 202 202
42.6 -21.1 18.2 205 205 205
41.2 -20.2 17.4 205 205 205
40.8 -19.8 17.1 206 206 206
45.5 -21.5 18.5 191 191 191
45.2 -21.1 18.2 113 115 114
44.8 -20.8 17.9 69 69 69
43.5 -19.9 17.2 63 63 63
52.4 -16.7 14.4 98 98 98
52.9 -16.7 14.4 97 97 97
53.3 -16.8 14.4 90 90 90
37.7 -19.0 16.7 202 202 202
46.0 -21.3 18.7 186 186 186
44.3 -20.1 17.7 71 71 71
53.0 -16.4 14.5 85 85 85
53.8 -16.6 14.6 71 71 71
54.0 -16.5 14.5 70 69 68
37.5 -18.5 16.6 202 202 202
45.4 -20.4 18.3 118 120 119
44.3 -19.7 17.7 73 73 73
222.9 -78.7 70.6 34 36 34
53.0 -16.1 14.4 77 77 77
53.9 -16.3 14.6 71 71 71
54.3 -16.3 14.6 71 71 71
37.5 -18.2 16.7 200 200 200
35.2 -15.6 14.3 195 195 195
44.8 -19.5 17.9 74 74 74
53.0 -15.8 14.4 81 84 83
54.4 -16.1 14.7 75 76 76
54.8 -16.1 14.8 75 76 76
33.3 -16.0 15.0 200 200 200
35.9 -15.7 14.7 198 198 198
35.3 -15.3 14.3 185 185 185
44.8 -19.1 17.9 73 75 75
40.0 -16.9 15.8 71 71 71
289.3 -98.5 92.3 39 39 39
39.9 -16.5 15.8 72 72 72
361.1 -121.2 116.1 40 40 40
-155.3 -56.3 55.1 59 59 59
-156.7 -57.3 56.1 134 136 135
-155.4 -57.3 56.1 58 58 58
-154.6 -57.5 56.3 61 63 61
-153.3 -57.5 56.3 78 80 78
-151.5 -57.3 56.1 78 80 78
-151.1 -57.7 56.5 78 80 78
-149.4 -58.0 56.8 81 83 80
-147.6 -57.9 56.6 158 158 158
-145.9 -57.7 56.5 177 177 177
-144.1 -57.5 56.3 58 59 59
-142.8 -57.5 56.3 67 69 67
-141.5 -57.5 56.3 77 79 77
-140.2 -57.5 56.3 75 76 76
-138.9 -57.5 56.3 71 71 71
-137.6 -57.5 56.3 77 79 77
-136.3 -57.5 56.3 126 128 127
-134.9 -57.5 56.3 134 137 136
-134.0 -57.7 56.5 147 149 149
-132.7 -57.7 56.5 116 116 116
-131.4 -57.7 56.5 118 120 119
-130.5 -57.9 56.6 119 121 120
-128.8 -57.7 56.5 121 121 121
-127.5 -57.7 56.5 40 40 40
-126.5 -57.9 56.6 57 57 55
39.9 -16.1 15.8 71 73 73
400.4 -131.4 128.7 41 41 41
39.8 -15.7 15.7 77 77 77
40.2 -15.6 16.0 91 91 91
39.9 -15.4 15.8 82 82 82
40.0 -15.0 15.8 84 86 86
18.4 -9.8 10.6 216 216 216
18.4 -9.7 10.4 219 219 219
20.7 -9.7 10.5 221 221 221
18.3 -9.5 10.5 219 219 219
18.4 -9.5 10.5 219 219 219
20.6 -9.5 10.5 221 221 221
18.4 -9.3 10.6 219 222 221
18.5 -9.2 10.5 216 216 216
18.6 -8.8 10.0 220 223 222
20.7 -9.2 10.5 221 221 221
32.7 -13.2 15.0 200 200 200
33.3 -13.2 14.9 202 202 202
18.3 -8.9 10.4 219 222 221
20.7 -9.0 10.5 222 224 224
33.1 -13.0 15.2 200 200 200
33.3 -12.8 15.0 202 202 202
18.5 -8.9 10.7 219 222 221
20.7 -8.8 10.5 222 224 224
32.8 -12.6 15.0 200 200 200
33.2 -12.4 14.9 198 198 198
18.5 -8.7 10.7 219 222 221
18.5 -8.5 10.5 219 222 221
20.7 -8.5 10.5 222 224 224
32.9 -12.3 15.1 198 198 198
33.3 -12.2 15.0 198 198 198
18.6 -8.4 10.7 219 222 221
18.6 -8.3 10.5 220 223 222
20.8 -8.3 10.5 222 224 224
33.2 -12.0 15.2 197 197 197
33.6 -12.0 15.2 198 198 198
33.7 -11.9 15.1 198 198 198
162.5 -40.0 50.7 58 59 59
18.7 -8.2 10.7 219 222 221
33.4 -11.7 15.3 195 195 195
33.8 -11.7 15.3 197 197 197
34.0 -11.4 15.4 195 195 195
31.1 -8.4 11.3 68 71 70
-69.4 -23.8 33.1 42 42 42
-67.9 -23.6 32.8 67 67 67
-93.7 -23.6 33.8 67 67 67
-92.7 -23.5 33.8 62 62 62
-94.5 -24.2 34.7 63 63 63
-91.3 -23.6 33.8 63 63 63
-90.6 -23.6 33.8 66 67 65
-76.1 -24.2 34.8 75 75 75
-73.1 -23.5 33.8 77 78 76
-72.3 -23.5 33.8 79 79 79
-71.5 -23.5 33.8 67 67 67
-70.8 -23.5 33.8 59 59 59
-70.0 -23.5 33.8 57 57 57
-71.2 -24.2 34.8 53 52 52
47.4 -14.3 20.6 198 198 198
-89.2 -24.3 36.2 68 68 68
-74.2 -24.1 35.8 50 50 50
-73.2 -24.1 35.8 53 52 52
47.2 -13.8 20.5 198 198 198
-263.6 -60.8 93.6 36 36 36
-248.0 -62.4 96.0 23 23 23
-243.3 -61.7 95.1 33 33 33
-232.9 -59.6 91.8 36 36 36
-230.8 -59.6 91.8 178 178 178
-233.3 -61.4 94.6 10 15 11
-228.8 -60.8 93.6 26 26 26
-223.4 -61.7 95.1 27 27 27
-221.2 -61.7 95.1 29 29 29
-216.8 -61.1 94.1 181 184 183
-209.3 -60.2 92.7 20 23 21
-205.2 -59.6 91.8 28 28 28
-206.0 -60.5 93.2 25 25 25
-203.9 -60.5 93.2 28 28 28
-201.7 -60.5 93.2 20 23 21
-194.5 -59.6 91.8 33 34 32
-134.0 -63.3 97.5 103 103 103
-125.9 -60.5 93.2 44 44 44
37.9 -10.9 16.8 198 198 198
47.9 -13.5 20.8 198 198 198
26.0 -7.8 12.4 179 179 179
23.8 -7.0 11.7 221 221 221
26.0 -7.6 12.6 221 221 221
26.2 -7.6 12.5 189 189 189
158.1 -25.2 41.8 88 90 89
102.3 -16.2 26.9 115 115 115
-913.6 -206.9 356.9 70 70 70
-872.0 -210.9 363.8 74 74 74
-733.7 -182.8 315.3 70 70 70
-698.4 -189.1 326.1 69 71 69
-616.4 -168.7 291.0 66 66 66
-615.0 -174.1 300.3 78 78 78
-589.4 -168.7 291.0 92 95 94
-348.6 -163.7 282.3 32 32 32
12.9 -7.2 12.3 80 80 80
26.0 -7.2 12.5 186 186 186
99.9 -15.3 26.4 92 92 92
102.1 -15.5 26.8 108 108 108
26.0 -6.9 12.4 175 175 175
42.6 -10.1 18.2 203 203 203
41.6 -9.8 17.6 203 203 203
44.5 -10.1 18.1 234 234 234
44.8 -10.0 18.0 108 108 108
44.5 -9.9 17.8 72 72 72
100.7 -14.8 26.6 86 88 88
105.2 -15.4 27.6 85 85 85
42.6 -9.7 18.2 199 199 199
41.8 -9.4 17.7 203 203 203
44.6 -9.7 18.1 234 234 234
45.0 -9.7 18.1 112 114 113
44.6 -9.5 17.8 73 75 75
44.5 -9.4 17.6 68 68 68
101.7 -14.3 26.9 88 90 89
105.5 -14.8 27.7 100 100 100
42.9 -9.3 18.3 200 200 200
41.8 -9.0 17.7 200 200 200
44.8 -9.3 18.2 225 227 227
45.2 -9.3 18.2 121 121 121
44.7 -9.1 17.8 74 76 75
44.4 -9.0 17.6 68 68 68
106.7 -14.3 28.0 93 93 93
44.0 -9.1 18.8 200 200 200
45.6 -9.0 18.5 214 216 216
45.9 -9.0 18.5 125 125 125
494.1 -82.2 168.9 147 147 147
498.1 -82.2 168.9 129 132 131
515.8 -84.5 173.5 111 111 111
515.1 -83.7 172.0 105 107 107
531.9 -84.5 173.5 56 56 56
521.6 -82.2 168.9 53 52 51
686.4 -95.9 197.0 76 76 74
608.6 -84.5 173.5 102 104 104
99.6 -12.8 26.3 87 89 88
107.5 -13.7 28.2 87 89 88
100.3 -12.3 26.5 87 89 88
107.2 -13.1 28.1 102 104 104
90.5 -10.9 23.6 160 160 160
22.1 -5.0 11.3 222 222 222
101.0 -11.7 26.7 87 89 88
104.9 -12.1 27.5 112 112 112
99.5 -11.0 26.3 89 91 90
95.1 -10.4 24.8 154 154 154
96.2 -9.9 25.3 102 102 102
96.1 -9.9 25.1 144 144 144
97.2 -9.5 25.7 90 92 91
96.5 -9.4 25.3 121 123 122
96.5 -9.3 25.2 150 152 152
96.1 -8.8 25.2 119 121 120
96.4 -8.7 25.2 148 150 150
127.2 -1.6 35.6 85 85 85
113.4 -0.7 32.1 150 152 152
116.7 -0.7 32.8 75 76 76
124.4 -0.8 34.8 84 83 81
117.4 -0.7 32.6 203 203 203
115.4 -0.7 31.8 93 96 95
125.0 -0.7 33.4 86 86 86
122.1 -0.7 32.4 88 88 88
613.7 0.3 242.5 77 77 77
90.5 0.0 24.8 136 136 136
90.5 0.0 24.7 96 99 98
123.2 0.0 33.0 84 83 81
89.1 0.6 24.6 124 126 125
89.7 0.6 24.6 138 140 139
90.0 0.6 24.5 94 97 96
92.2 0.6 24.8 89 89 89
93.3 0.6 25.0 87 87 87
894.9 17.0 356.9 68 71 70
1208.0 18.8 394.1 48 50 50
1208.0 17.4 363.8 226 226 226
87.5 1.2 24.2 126 129 128
88.7 1.2 24.3 132 132 132
89.2 1.2 24.3 94 97 96
88.5 1.1 24.0 87 87 87
93.6 1.2 25.0 87 87 87
90.8 1.2 24.1 91 91 91
988.1 28.0 394.1 46 46 44
1253.8 28.0 394.1 218 218 218
87.3 1.7 24.1 113 115 114
88.0 1.7 24.1 126 129 128
88.5 1.7 24.1 95 98 97
87.6 1.7 23.7 88 88 88
90.8 1.7 24.3 86 85 83
90.3 1.7 24.0 90 90 90
968.0 36.4 386.0 47 46 45
90.0 2.3 24.5 96 99 98
91.4 2.3 24.4 87 86 84
89.1 2.2 23.7 90 90 90
1185.3 41.9 356.9 226 226 226
90.9 2.9 24.8 96 96 96
93.1 2.9 25.1 87 87 85
92.3 2.9 24.7 87 87 85
89.0 2.8 23.6 89 89 89
930.0 52.2 370.9 23 24 24
94.6 3.7 26.3 198 198 198
93.2 3.6 25.7 147 147 147
92.8 3.6 25.5 126 129 128
92.1 3.5 25.1 97 100 99
93.0 3.5 25.2 87 87 85
94.2 3.6 25.4 87 87 85
94.1 3.5 25.2 86 85 83
96.8 3.6 25.7 92 92 92
97.2 3.6 25.7 94 94 94
912.1 59.6 363.8 34 36 34
629.9 40.8 248.9 32 33 31
1354.5 64.6 394.1 78 78 78
96.7 4.4 26.9 193 193 193
94.8 4.3 26.2 147 147 147
93.3 4.2 25.6 118 118 118
92.3 4.1 25.2 97 97 97
95.1 4.2 25.6 87 86 84
94.6 4.1 25.3 87 86 84
98.2 4.3 26.1 88 88 86
97.8 4.2 25.8 98 100 100
100.5 4.3 26.4 115 117 116
988.1 73.8 394.1 160 160 160
99.5 5.1 27.5 147 147 147
101.2 5.0 26.9 95 95 95
101.0 5.0 26.7 101 103 103
103.8 5.1 27.3 95 95 95
104.9 5.1 27.4 177 177 177
894.9 75.1 356.9 182 185 184
621.7 51.7 245.7 183 186 185
1317.9 82.9 394.1 213 215 215
105.5 5.9 27.9 99 101 101
106.3 5.9 27.9 74 73 71
106.9 5.9 27.9 176 176 176
509.2 47.0 201.2 191 191 191
712.6 49.1 210.2 75 76 76
107.2 6.6 28.1 83 83 83
107.1 7.2 28.1 175 175 175
106.4 7.8 27.9 126 126 126
106.4 8.5 27.9 132 135 134
105.7 8.4 27.6 153 155 155
-187.2 28.9 88.4 161 161 161
-199.5 32.6 93.2 87 87 87
-183.0 30.2 86.4 164 164 164
-176.9 29.5 84.4 159 162 161
-101.7 31.8 90.9 166 169 168
-211.0 36.8 98.5 42 42 40
-107.4 35.8 96.0 46 46 44
-275.6 51.0 128.7 38 38 38
-231.6 43.3 109.3 38 38 38
-142.3 47.5 119.7 59 59 59
-137.7 46.9 118.2 57 56 55
-149.0 51.7 130.5 50 50 50
-118.2 41.9 105.7 53 53 53
-374.9 62.0 147.8 134 134 134
-371.4 62.0 147.8 137 137 137
-370.9 62.5 148.9 140 140 140
-364.5 62.0 147.8 146 146 146
-364.0 62.5 148.9 150 150 150
-357.7 62.0 147.8 154 156 156
-319.9 62.0 147.8 26 29 28
-306.9 60.1 143.3 34 34 34
-288.2 57.1 136.1 33 33 33
-167.8 59.2 141.2 61 63 61
-162.1 58.4 139.1 36 37 36
-161.2 59.2 141.2 135 135 135
-398.8 71.6 161.7 147 147 147
-395.1 71.6 161.7 150 150 148
-350.0 71.6 161.7 36 36 36
-166.2 64.4 145.5 230 233 232
156.5 26.2 59.1 90 90 90
164.7 30.5 62.2 94 94 94
-97.3 26.1 48.6 74 74 74
-95.0 25.7 48.0 74 74 74
-110.7 30.6 54.7 81 81 81
-107.6 30.0 53.7 80 80 80
-209.9 61.5 110.0 83 83 83
-141.4 66.5 119.0 227 227 227
-142.2 68.2 122.0 233 235 235
-162.4 79.5 142.2 187 186 185
-460.1 123.8 212.5 85 85 85
-342.5 102.0 175.2 115 114 114
-151.9 74.4 127.8 120 122 121
-153.1 76.5 131.4 40 42 42
-168.8 86.1 147.8 62 62 62
-188.4 100.1 172.0 71 71 71
-518.3 145.0 239.4 96 96 96
-806.9 213.5 286.6 103 103 103
-800.3 213.5 286.6 106 106 106
-793.6 213.5 286.6 98 100 100
-786.9 213.5 286.6 96 99 98
-780.3 213.5 286.6 104 104 104
-762.1 210.4 282.3 117 117 117
-767.0 213.5 286.6 121 123 122
-748.9 210.4 282.3 121 121 121
-742.4 210.4 282.3 122 124 123
-747.0 213.5 286.6 122 124 123
-740.3 213.5 286.6 123 125 124
-733.6 213.5 286.6 128 128 128
-727.0 213.5 286.6 131 131 131
-720.3 213.5 286.6 133 133 133
-713.7 213.5 286.6 133 133 133
-707.0 213.5 286.6 134 134 134
-700.3 213.5 286.6 137 137 137
-693.7 213.5 286.6 133 133 133
-687.0 213.5 286.6 128 130 129
-670.2 210.4 282.3 126 128 127
-663.6 210.4 282.3 136 136 136
-667.0 213.5 286.6 126 129 128
-650.5 210.4 282.3 177 177 177
-653.7 213.5 286.6 176 175 173
-657.0 216.8 291.0 131 133 132
-640.4 213.5 286.6 128 130 129
-633.7 213.5 286.6 128 131 130
-627.1 213.5 286.6 131 134 133
-620.4 213.5 286.6 134 134 134
-613.7 213.5 286.6 137 137 137
-607.1 213.5 286.6 137 137 137
-600.4 213.5 286.6 134 134 134
-593.7 213.5 286.6 138 138 138
-587.1 213.5 286.6 141 141 141
-580.4 213.5 286.6 138 138 138
-573.8 213.5 286.6 138 138 138
-567.1 213.5 286.6 138 138 138
-560.4 213.5 286.6 133 133 133
-553.8 213.5 286.6 133 133 133
-547.1 213.5 286.6 133 133 133
-540.5 213.5 286.6 133 133 133
-533.8 213.5 286.6 131 133 132
-527.1 213.5 286.6 128 130 129
-520.5 213.5 286.6 127 127 127
-513.8 213.5 286.6 121 121 121
-507.1 213.5 286.6 118 120 119
-500.5 213.5 286.6 116 118 117
-493.8 213.5 286.6 115 115 115
-487.2 213.5 286.6 113 114 113
-480.5 213.5 286.6 112 112 112
-473.8 213.5 286.6 110 110 110
-467.2 213.5 286.6 104 106 106
-460.5 213.5 286.6 113 114 113
-453.8 213.5 286.6 124 124 124
-447.2 213.5 286.6 172 172 172
-440.5 213.5 286.6 177 177 177
-433.9 213.5 286.6 137 137 137
-427.2 213.5 286.6 141 143 142
-420.5 213.5 286.6 178 181 180
-413.9 213.5 286.6 198 201 200
-407.2 213.5 286.6 206 209 208
-400.6 213.5 286.6 210 213 212
-393.9 213.5 286.6 198 201 200
-387.2 213.5 286.6 169 169 169
-380.6 213.5 286.6 165 165 165
-373.9 213.5 286.6 165 165 165
-367.2 213.5 286.6 149 149 149
-360.6 213.5 286.6 151 151 151
-343.5 207.3 278.2 111 111 111
-352.6 216.8 291.0 85 85 85
-340.6 213.5 286.6 33 32 30
-329.0 210.4 282.3 29 31 29
-322.4 210.4 282.3 57 58 56
-320.6 213.5 286.6 6 6 6
-314.0 213.5 286.6 13 13 13
-302.7 210.4 282.3 20 23 21
-291.8 207.3 278.2 27 29 27
-298.5 216.8 291.0 151 151 151
-296.3 220.2 295.6 156 156 156
-280.6 213.5 286.6 183 183 183
-269.9 210.4 282.3 172 172 172
-263.3 210.4 282.3 78 78 78
-253.0 207.3 278.2 192 195 194
-254.0 213.5 286.6 171 173 173
-243.6 210.4 282.3 138 138 138
-244.4 216.8 291.0 120 122 121
-220.7 207.3 278.2 136 136 136
-197.0 216.8 291.0 104 104 104
-187.4 213.5 286.6 105 105 105
-180.7 213.5 286.6 113 114 113
-174.1 213.5 286.6 152 152 152
-167.4 213.5 286.6 160 160 160
-153.7 204.3 274.1 123 123 123
-149.5 207.3 278.2 143 145 144
-114.1 213.5 286.6 209 209 209
-107.4 213.5 286.6 214 214 214
-100.8 213.5 286.6 214 214 214
-94.1 213.5 286.6 207 207 207
-87.4 213.5 286.6 210 210 210
-80.8 213.5 286.6 208 208 208
-74.1 213.5 286.6 208 208 208
-32.7 204.3 274.1 169 171 170
-12.1 183.0 245.7 173 175 175
-6.6 187.9 252.2 95 95 95
-0.8 193.1 259.1 90 92 91
5.3 193.1 259.1 98 98 98
11.1 190.5 255.6 108 108 108
16.8 187.9 252.2 111 111 111
24.3 201.3 270.2 112 112 112
32.5 213.5 286.6 115 117 116
39.1 213.5 286.6 115 115 115
-719.7 196.4 255.6 106 106 106
-713.7 196.4 255.6 117 117 117
-698.4 193.8 252.2 121 123 122
-692.5 193.8 252.2 134 136 135
-686.6 193.8 252.2 122 124 123
-680.8 193.8 252.2 122 124 123
-674.9 193.8 252.2 128 128 128
-678.1 196.4 255.6 128 128 128
-663.2 193.8 252.2 132 132 132
-666.2 196.4 255.6 133 133 133
-651.5 193.8 252.2 136 136 136
-645.6 193.8 252.2 140 142 141
-648.4 196.4 255.6 145 145 144
-642.4 196.4 255.6 147 147 147
-628.0 193.8 252.2 146 146 146
-622.2 193.8 252.2 142 144 143
-616.3 193.8 252.2 142 144 143
-618.7 196.4 255.6 140 142 141
-604.6 193.8 252.2 135 135 135
-598.7 193.8 252.2 124 124 124
-585.0 191.2 248.9 85 84 82
-587.0 193.8 252.2 173 173 173
-581.1 193.8 252.2 208 208 208
-575.3 193.8 252.2 180 180 180
-585.0 199.1 259.1 143 145 144
-603.8 207.6 270.2 137 137 137
-573.0 199.1 259.1 135 135 135
-559.3 196.4 255.6 136 136 136
-545.9 193.8 252.2 136 136 136
-540.1 193.8 252.2 138 138 138
-534.2 193.8 252.2 138 138 138
-528.4 193.8 252.2 143 143 142
-522.5 193.8 252.2 140 140 140
-516.6 193.8 252.2 137 137 137
-510.8 193.8 252.2 135 135 135
-504.9 193.8 252.2 139 139 139
-499.0 193.8 252.2 139 139 139
-493.2 193.8 252.2 137 137 137
-487.3 193.8 252.2 137 137 137
-481.5 193.8 252.2 128 131 130
-475.6 193.8 252.2 128 131 130
-469.7 193.8 252.2 124 124 124
-463.9 193.8 252.2 119 121 120
-458.0 193.8 252.2 117 119 118
-452.1 193.8 252.2 116 116 116
-446.3 193.8 252.2 113 114 113
-440.4 193.8 252.2 112 112 112
-434.6 193.8 252.2 112 112 112
-428.7 193.8 252.2 110 110 110
-422.8 193.8 252.2 105 107 107
-446.8 207.6 270.2 88 88 86
-411.1 193.8 252.2 100 100 100
-405.2 193.8 252.2 88 88 86
-399.4 193.8 252.2 99 98 96
-421.6 207.6 270.2 147 147 147
-415.4 207.6 270.2 182 185 184
-409.1 207.6 270.2 204 204 204
-402.8 207.6 270.2 200 202 202
-396.5 207.6 270.2 181 184 183
-390.2 207.6 270.2 177 177 177
-383.9 207.6 270.2 181 184 183
-377.7 207.6 270.2 177 177 177
-371.4 207.6 270.2 159 159 159
-365.1 207.6 270.2 155 158 157
-358.8 207.6 270.2 152 154 154
-352.5 207.6 270.2 145 145 144
-346.3 207.6 270.2 158 158 158
-340.0 207.6 270.2 115 115 115
-307.4 191.2 248.9 67 68 66
-327.4 207.6 270.2 51 50 48
-321.1 207.6 270.2 37 40 39
-290.0 191.2 248.9 29 31 29
-284.2 191.2 248.9 52 54 52
-302.3 207.6 270.2 10 10 10
-296.0 207.6 270.2 13 13 13
-281.7 201.9 262.7 21 24 22
-271.8 199.1 259.1 38 38 38
-278.9 213.7 278.2 170 171 170
-264.6 207.6 270.2 169 169 169
-258.3 207.6 270.2 137 139 138
-248.5 204.7 266.4 160 163 162
-242.3 204.7 266.4 188 188 188
-229.9 204.7 266.4 141 141 141
-0.7 193.8 252.2 98 98 98
5.1 191.2 248.9 99 101 101
10.6 186.3 242.5 106 106 106
16.2 186.3 242.5 109 109 109
22.4 191.2 248.9 109 109 109
-1086.9 359.4 386.0 124 127 126
-970.2 359.4 386.0 169 169 169
-942.0 352.2 378.3 166 166 166
-952.3 359.4 386.0 161 161 161
-924.4 352.2 378.3 161 164 163
-934.3 359.4 386.0 160 160 160
-925.4 359.4 386.0 100 100 100
-898.1 352.2 378.3 98 97 95
-889.7 366.9 394.1 59 61 59
-862.6 359.4 386.0 62 62 62
-871.4 366.9 394.1 64 65 63
-844.6 359.4 386.0 67 67 67
-818.9 352.2 378.3 56 56 56
-810.1 352.2 378.3 32 32 32
-801.3 352.2 378.3 26 26 26
-808.7 359.4 386.0 28 28 28
-816.4 366.9 394.1 33 33 33
-790.8 359.4 386.0 24 24 24
-798.1 366.9 394.1 47 48 47
-788.9 366.9 394.1 108 110 110
-779.8 366.9 394.1 102 101 99
-770.6 366.9 394.1 116 116 116
-745.9 359.4 386.0 118 118 118
-736.9 359.4 386.0 123 125 124
-713.4 352.2 378.3 127 127 127
-704.6 352.2 378.3 146 146 146
-710.0 359.4 386.0 162 162 162
-715.6 366.9 394.1 202 202 202
-706.5 366.9 394.1 155 155 155
-683.1 359.4 386.0 122 124 123
-660.6 352.2 378.3 108 110 110
-651.8 352.2 378.3 77 77 77
-643.0 352.2 378.3 24 24 24
-634.3 352.2 378.3 23 23 23
-625.5 352.2 378.3 22 22 22
-616.7 352.2 378.3 15 19 16
-607.9 352.2 378.3 45 45 45
-611.3 359.4 386.0 45 45 45
-602.3 359.4 386.0 51 50 48
-593.4 359.4 386.0 53 53 53
-572.7 352.2 378.3 57 58 56
-563.9 352.2 378.3 60 62 60
-566.4 359.4 386.0 63 63 63
-546.3 352.2 378.3 63 63 63
-537.5 352.2 378.3 67 67 67
-528.7 352.2 378.3 67 69 67
-519.9 352.2 378.3 69 71 69
-511.1 352.2 378.3 69 71 69
-502.4 352.2 378.3 72 73 71
-493.6 352.2 378.3 75 75 75
-484.8 352.2 378.3 72 73 71
-476.0 352.2 378.3 71 72 70
-467.2 352.2 378.3 75 75 75
-477.5 366.9 394.1 57 57 57
-458.8 359.4 386.0 40 40 40
-431.8 359.4 386.0 14 18 15
-422.9 359.4 386.0 109 111 111
-405.6 352.2 378.3 160 160 160
