ply
format ascii 1.0
element vertex 2370
property float x
property float y
property float z
property uchar red
property uchar green
property uchar blue
end_header
114.9 -185.4 73.9 157 157 157
114.8 -182.5 72.8 158 158 158
60.7 -85.2 34.0 154 156 156
63.3 -87.7 35.0 154 156 156
132.6 -101.6 40.5 108 108 108
133.0 -101.2 40.3 108 108 108
116.5 -195.1 78.5 160 160 160
112.7 -185.9 74.8 160 160 160
115.9 -188.1 75.7 160 160 160
120.5 -192.7 77.5 160 160 160
122.3 -192.7 77.5 161 161 161
125.1 -194.3 78.2 158 158 158
121.9 -186.6 75.1 159 159 159
61.8 -87.1 35.0 154 156 156
63.2 -87.9 35.4 154 156 156
64.7 -88.9 35.8 158 161 160
65.7 -89.1 35.8 155 158 157
66.6 -89.2 35.9 155 158 157
124.9 -94.8 38.1 105 105 105
124.5 -93.9 37.8 105 105 105
71.5 -51.1 20.5 96 99 98
71.8 -50.9 20.5 93 96 95
72.3 -50.9 20.5 96 99 98
72.9 -48.2 19.4 197 200 199
49.9 -212.7 86.4 163 163 163
51.7 -211.7 86.0 163 163 163
54.0 -212.7 86.4 163 163 163
56.0 -212.7 86.4 163 163 163
58.0 -212.7 86.4 164 167 166
60.0 -212.7 86.4 163 163 163
62.8 -215.7 87.6 164 167 166
63.7 -211.7 86.0 164 167 166
65.7 -211.7 86.0 165 168 167
68.0 -212.7 86.4 165 168 167
69.7 -211.7 86.0 165 168 167
71.7 -211.7 86.0 165 168 167
74.0 -212.7 86.4 165 168 167
76.0 -212.7 86.4 165 168 167
78.4 -213.7 86.8 165 168 167
82.1 -212.7 86.4 165 168 167
83.7 -211.7 86.0 164 164 164
85.7 -211.7 86.0 164 164 164
87.7 -211.7 86.0 164 164 164
90.1 -212.7 86.4 164 164 164
92.1 -212.7 86.4 164 164 164
102.0 -216.7 88.0 165 165 165
101.7 -211.7 86.0 162 162 162
103.2 -210.8 85.6 162 162 162
105.2 -210.8 85.6 162 162 162
109.2 -214.7 87.2 162 162 162
112.7 -217.7 88.4 162 162 162
126.8 -220.8 89.7 163 163 163
124.8 -213.7 86.8 163 163 163
133.1 -220.8 89.7 160 160 160
127.8 -202.5 82.2 157 157 157
133.2 -208.0 84.4 161 161 161
139.5 -214.7 87.2 161 161 161
134.7 -204.3 83.0 164 164 164
62.7 -87.6 35.6 161 161 161
63.5 -87.6 35.6 161 161 161
65.2 -88.7 36.0 158 161 160
67.7 -89.8 36.4 158 161 160
67.1 -87.9 35.7 156 159 158
120.3 -90.5 36.7 105 105 105
114.0 -85.2 34.6 105 105 105
113.0 -83.8 34.0 103 103 103
66.4 -46.6 18.9 96 99 98
66.2 -46.2 18.7 93 96 95
66.0 -45.7 18.6 93 96 95
67.0 -46.1 18.7 96 99 98
66.8 -45.7 18.6 96 99 98
66.9 -45.5 18.5 195 198 197
67.4 -45.5 18.5 155 155 155
68.7 -46.1 18.7 197 200 199
68.9 -45.9 18.7 195 198 197
68.8 -45.6 18.5 208 208 208
69.9 -46.0 18.7 160 160 160
70.5 -46.2 18.7 160 160 160
69.9 -45.5 18.5 211 211 211
43.1 -206.9 84.8 164 164 164
44.9 -206.0 84.4 164 164 164
46.9 -206.0 84.4 161 161 161
49.0 -206.9 84.8 163 163 163
50.8 -206.0 84.4 164 167 166
52.7 -206.0 84.4 164 167 166
54.7 -206.0 84.4 164 167 166
56.9 -206.9 84.8 164 167 166
58.9 -206.9 84.8 164 167 166
60.6 -206.0 84.4 168 170 169
62.6 -206.0 84.4 164 167 166
64.5 -206.0 84.4 165 168 167
66.5 -206.0 84.4 165 168 167
68.5 -206.0 84.4 165 168 167
70.4 -206.0 84.4 165 168 167
72.4 -206.0 84.4 165 168 167
74.7 -206.9 84.8 165 168 167
76.6 -206.9 84.8 165 168 167
78.6 -206.9 84.8 165 168 167
80.6 -206.9 84.8 164 164 164
82.2 -206.0 84.4 164 164 164
84.2 -206.0 84.4 164 164 164
86.1 -206.0 84.4 164 164 164
88.1 -206.0 84.4 164 164 164
90.0 -206.0 84.4 164 164 164
92.0 -206.0 84.4 165 165 165
94.4 -206.9 84.8 165 165 165
96.8 -207.8 85.2 165 165 165
97.9 -206.0 84.4 165 165 165
99.4 -205.1 84.1 165 165 165
101.8 -206.0 84.4 165 165 165
103.8 -206.0 84.4 165 165 165
106.7 -207.8 85.2 165 165 165
107.7 -206.0 84.4 165 165 165
115.6 -206.0 84.4 165 165 165
118.6 -207.8 85.2 166 166 166
119.0 -205.1 84.1 166 166 166
118.8 -201.5 82.6 166 166 166
128.2 -210.7 86.4 163 163 163
126.8 -205.1 84.1 163 163 163
129.9 -206.9 84.8 163 163 163
127.8 -200.6 82.2 163 163 163
130.9 -202.4 83.0 164 164 164
137.0 -208.8 85.6 164 164 164
135.3 -203.3 83.3 162 162 162
62.7 -85.6 35.1 164 164 164
63.1 -85.0 34.8 162 162 162
67.8 -89.1 36.5 158 161 160
111.8 -82.7 33.9 105 105 105
64.7 -45.0 18.4 96 99 98
64.8 -44.8 18.4 96 99 98
64.8 -44.5 18.2 93 96 95
65.7 -44.5 18.2 92 92 92
65.8 -44.3 18.2 194 194 194
68.6 -44.2 18.1 197 200 199
66.5 -42.6 17.5 195 198 197
64.9 -127.7 52.8 166 169 168
66.5 -128.4 53.1 165 165 165
82.8 -151.3 62.6 166 169 168
92.0 -157.1 65.0 166 166 166
136.9 -209.6 86.8 167 167 167
143.5 -216.6 89.7 164 164 164
141.6 -210.6 87.2 164 164 164
62.5 -84.5 35.0 161 161 161
62.1 -82.9 34.3 164 164 164
128.1 -95.2 39.4 108 108 108
120.5 -88.9 36.8 105 105 105
59.2 -38.0 15.7 208 208 208
65.3 -41.7 17.3 185 185 185
63.9 -40.5 16.8 216 216 216
62.4 -39.4 16.3 216 216 216
26.8 -99.0 41.4 168 170 169
36.4 -98.8 41.3 165 168 167
38.1 -98.4 41.1 165 168 167
45.6 -100.1 41.9 166 169 168
52.3 -99.9 41.8 166 169 168
53.1 -99.7 41.7 166 169 168
52.6 -96.9 40.5 170 172 172
61.0 -101.5 42.4 168 170 169
61.3 -100.4 41.9 168 170 169
64.9 -99.9 41.8 168 170 169
144.9 -216.6 90.5 169 171 170
62.7 -84.0 35.1 167 167 167
113.9 -83.2 34.8 105 105 105
109.1 -79.1 33.1 105 105 105
20.7 -88.4 37.3 169 171 170
21.4 -87.9 37.1 168 170 169
22.3 -88.1 37.2 168 170 169
23.3 -88.4 37.3 168 170 169
24.2 -88.4 37.3 168 170 169
29.1 -90.4 38.1 165 168 167
29.4 -88.4 37.3 165 168 167
30.2 -88.4 37.3 165 168 167
31.2 -88.6 37.4 165 168 167
32.0 -88.4 37.3 165 168 167
32.8 -88.2 37.2 165 168 167
33.8 -88.8 37.5 165 168 167
34.7 -88.8 37.5 165 168 167
35.4 -88.2 37.2 165 168 167
38.0 -90.4 38.1 165 168 167
38.0 -88.2 37.2 165 168 167
38.8 -88.1 37.2 165 168 167
41.0 -91.1 38.4 166 169 168
41.1 -89.5 37.8 166 169 168
41.2 -87.7 37.0 166 169 168
42.0 -87.5 36.9 166 169 168
44.2 -90.4 38.1 170 172 172
44.5 -89.1 37.6 166 169 168
45.3 -88.9 37.5 174 174 174
45.9 -88.6 37.4 170 172 172
47.3 -89.5 37.8 170 172 172
48.2 -89.5 37.8 170 172 172
48.4 -88.2 37.2 170 172 172
48.7 -87.4 36.9 166 169 168
51.5 -90.7 38.3 177 177 177
52.1 -90.2 38.1 170 172 172
52.1 -88.8 37.5 171 173 173
56.7 -93.4 39.4 168 170 169
55.7 -90.4 38.1 171 173 173
56.1 -89.5 37.8 175 175 175
59.0 -88.6 37.4 172 174 174
60.4 -89.5 37.8 172 174 174
29.9 -41.2 17.4 173 175 175
32.9 -26.4 11.2 115 115 115
104.7 -75.2 31.7 108 108 108
98.6 -70.4 29.7 105 105 105
20.9 -84.9 36.2 168 170 169
28.6 -85.4 36.4 165 168 167
39.8 -85.7 36.5 177 177 177
39.9 -84.1 35.8 180 180 180
41.0 -84.7 36.1 177 177 177
42.3 -85.5 36.4 177 177 177
42.6 -84.5 36.0 174 174 174
43.3 -84.2 35.9 177 177 177
44.0 -84.1 35.8 177 177 177
45.1 -84.5 36.0 180 180 180
46.5 -85.5 36.4 177 177 177
46.7 -84.4 36.0 180 180 180
47.4 -84.1 35.8 180 180 180
49.1 -85.7 36.5 180 180 180
50.2 -86.0 36.7 177 177 177
50.0 -84.2 35.9 183 183 183
50.7 -84.1 35.8 181 181 181
52.0 -84.9 36.2 181 181 181
52.7 -84.5 36.0 181 181 181
53.4 -84.4 36.0 181 181 181
57.9 -86.2 36.7 179 179 179
58.7 -86.0 36.7 179 179 179
29.5 -40.3 17.2 178 178 178
29.4 -39.6 16.9 174 176 176
88.1 -61.8 26.3 103 103 103
46.5 -29.4 12.5 197 200 199
45.8 -28.7 12.2 211 211 211
45.8 -28.6 12.2 211 211 211
46.0 -28.5 12.1 218 218 218
46.8 -28.8 12.3 218 218 218
47.1 -28.9 12.3 218 218 218
45.6 -83.1 35.8 196 196 196
45.6 -81.5 35.1 199 199 199
49.1 -83.4 35.9 199 199 199
48.6 -81.1 34.9 199 199 199
50.4 -81.4 35.0 199 199 199
51.3 -81.5 35.1 199 199 199
167.3 -242.8 104.5 197 197 197
221.0 -311.7 134.2 202 202 202
207.9 -289.1 124.4 202 202 202
29.0 -38.7 16.7 196 196 196
28.7 -37.8 16.3 203 203 203
43.6 -26.8 11.5 212 213 212
43.9 -26.7 11.5 218 218 218
45.3 -78.8 34.3 206 206 206
48.4 -80.0 34.8 203 203 203
48.5 -78.8 34.3 203 203 203
49.6 -79.4 34.5 203 203 203
50.5 -79.5 34.6 199 199 199
50.2 -77.8 33.8 203 203 203
148.4 -213.3 92.7 204 204 204
230.8 -322.3 140.1 205 205 205
216.4 -298.0 129.6 205 205 205
28.8 -38.1 16.6 203 203 203
28.3 -36.9 16.0 203 203 203
28.3 -36.4 15.8 204 204 204
40.7 -24.7 10.8 174 174 174
49.6 -82.5 36.2 206 206 206
48.6 -79.5 34.9 206 206 206
47.5 -76.5 33.6 206 206 206
48.7 -77.0 33.8 206 206 206
49.0 -76.4 33.5 206 206 206
47.9 -73.5 32.3 209 209 209
47.1 -71.2 31.3 206 206 206
107.8 -149.0 65.5 205 205 205
222.5 -303.3 133.2 205 205 205
28.9 -37.7 16.6 206 206 206
28.3 -36.5 16.0 203 203 203
28.2 -36.0 15.8 204 204 204
44.7 -76.1 33.8 206 206 206
44.2 -74.0 32.8 209 209 209
46.2 -76.1 33.8 209 209 209
46.9 -76.0 33.7 206 206 206
47.4 -75.4 33.5 206 206 206
48.4 -75.8 33.7 206 206 206
49.0 -75.6 33.5 206 206 206
48.9 -74.3 33.0 206 206 206
47.3 -70.7 31.4 206 206 206
103.2 -141.1 62.6 207 207 207
28.9 -37.9 16.8 206 206 206
28.9 -37.5 16.6 206 206 206
28.4 -36.3 16.1 209 209 209
28.1 -35.5 15.7 207 207 207
269.6 -211.0 93.6 138 138 138
288.5 -208.9 92.7 124 126 125
43.7 -71.3 32.0 209 209 209
45.3 -72.6 32.6 209 209 209
45.1 -71.0 31.8 209 209 209
48.5 -72.9 32.7 206 206 206
46.5 -68.8 30.9 206 206 206
46.3 -67.5 30.3 206 206 206
101.5 -137.4 61.6 207 207 207
29.0 -37.7 16.9 211 211 211
29.0 -37.1 16.7 208 208 208
28.4 -36.0 16.1 206 206 206
28.0 -35.0 15.7 206 206 206
298.8 -214.1 96.0 128 128 128
302.6 -215.2 96.5 124 127 126
48.0 -76.2 34.5 208 208 208
50.9 -76.9 34.8 208 208 208
50.7 -75.4 34.1 208 208 208
45.9 -67.2 30.5 208 208 208
44.4 -64.0 29.0 208 208 208
29.2 -37.5 17.0 207 207 207
29.0 -36.8 16.7 208 208 208
28.8 -36.0 16.3 208 208 208
27.9 -34.4 15.6 206 206 206
27.8 -33.9 15.4 209 209 209
47.6 -75.9 34.8 208 208 208
48.0 -75.4 34.5 208 208 208
52.1 -77.8 35.6 208 208 208
51.3 -75.5 34.6 208 208 208
44.8 -63.9 29.3 208 208 208
72.0 -92.8 42.5 207 207 207
29.3 -37.2 17.1 207 207 207
29.0 -36.4 16.7 207 207 207
27.9 -34.1 15.6 208 208 208
27.7 -33.5 15.3 211 211 211
-17.5 -21.7 10.0 113 114 113
-17.4 -21.8 10.1 112 112 112
-15.3 -21.8 10.1 123 123 123
-13.8 -22.0 10.2 128 128 128
-13.3 -21.6 10.0 128 128 128
-9.1 -21.7 10.0 137 139 138
-9.1 -22.2 10.3 139 138 137
43.3 -69.5 32.2 207 207 207
43.8 -69.1 32.0 207 207 207
45.9 -71.2 33.0 207 207 207
45.3 -69.1 32.0 207 207 207
52.4 -77.4 35.8 207 207 207
49.9 -72.6 33.6 207 207 207
47.9 -68.7 31.8 207 207 207
45.3 -64.0 29.6 207 207 207
72.6 -93.9 43.5 209 209 209
72.5 -92.5 42.8 209 209 209
73.2 -92.0 42.6 206 206 206
29.1 -36.1 16.7 207 207 207
28.6 -35.0 16.2 207 207 207
28.0 -33.9 15.7 207 207 207
26.8 -28.7 13.3 205 205 205
-26.1 -22.2 10.4 47 47 47
-25.8 -22.2 10.4 47 47 47
-25.6 -22.2 10.4 47 47 47
-25.3 -22.2 10.4 42 42 42
-23.4 -22.2 10.4 41 41 41
-23.2 -22.2 10.4 41 41 41
-22.7 -22.2 10.4 41 41 41
-22.2 -22.2 10.4 41 41 41
-22.0 -22.2 10.4 44 43 42
-21.7 -22.2 10.4 46 46 46
-19.3 -22.2 10.4 105 105 105
-19.1 -22.2 10.4 106 108 108
-18.8 -22.2 10.4 105 107 107
-18.4 -22.2 10.4 107 109 109
-18.1 -22.1 10.4 106 108 108
-17.8 -22.1 10.4 111 111 111
-13.9 -21.9 10.3 126 126 126
-9.2 -22.2 10.4 140 139 138
-10.0 -24.8 11.6 139 139 139
8.3 -24.8 11.6 210 210 210
9.7 -24.8 11.6 209 209 209
9.9 -24.8 11.6 209 209 209
42.1 -66.8 31.3 209 209 209
43.9 -66.3 31.0 209 209 209
43.5 -64.6 30.2 209 209 209
52.5 -76.7 35.9 207 207 207
49.9 -71.8 33.6 207 207 207
47.1 -66.7 31.2 207 207 207
45.8 -63.9 29.9 207 207 207
46.2 -63.6 29.7 207 207 207
48.3 -64.5 30.2 207 207 207
73.3 -92.5 43.3 208 208 208
73.3 -91.3 42.7 209 209 209
29.0 -35.6 16.7 206 206 206
28.6 -34.6 16.2 206 206 206
28.1 -33.6 15.7 207 207 207
25.9 -29.1 13.6 208 208 208
26.5 -29.0 13.6 206 206 206
26.9 -28.5 13.3 204 204 204
-28.4 -28.7 13.6 42 43 42
-27.9 -28.5 13.5 45 44 43
-25.5 -26.3 12.4 47 47 47
-11.0 -25.0 11.8 135 135 135
-10.6 -24.7 11.7 136 136 136
-10.4 -24.8 11.7 134 137 136
-10.1 -24.7 11.7 138 137 136
8.3 -25.2 11.9 209 209 209
8.4 -24.8 11.7 209 209 209
8.7 -24.8 11.7 209 209 209
9.0 -24.8 11.7 209 209 209
9.2 -24.8 11.7 209 209 209
9.5 -24.8 11.7 209 209 209
9.8 -24.8 11.7 209 209 209
10.0 -24.8 11.7 209 209 209
10.3 -24.8 11.7 209 209 209
10.6 -24.8 11.7 209 209 209
10.9 -24.8 11.7 209 209 209
11.1 -24.8 11.7 209 209 209
11.7 -24.8 11.7 209 209 209
12.0 -24.9 11.8 209 209 209
42.8 -62.9 29.7 209 209 209
52.3 -75.6 35.8 209 209 209
50.4 -71.8 34.0 206 206 206
48.0 -67.3 31.8 206 206 206
45.5 -62.8 29.7 208 208 208
45.7 -62.2 29.4 206 206 206
71.5 -89.3 42.2 208 208 208
72.5 -89.3 42.2 208 208 208
76.6 -93.0 44.0 208 208 208
28.6 -34.2 16.2 208 208 208
28.1 -33.2 15.7 206 206 206
25.9 -28.8 13.6 207 207 207
26.2 -28.7 13.6 208 208 208
26.5 -28.7 13.6 206 206 206
26.7 -28.6 13.5 206 206 206
26.8 -28.4 13.4 208 208 208
-38.3 -28.4 13.6 50 50 50
-38.1 -28.5 13.6 53 52 52
-37.8 -28.5 13.6 53 52 52
-37.5 -28.6 13.7 54 56 54
-37.1 -28.5 13.6 54 56 54
-36.8 -28.5 13.6 54 56 54
-36.5 -28.5 13.6 58 58 58
-36.2 -28.5 13.6 54 56 54
-35.9 -28.5 13.6 54 56 54
-35.6 -28.5 13.6 57 57 57
-35.2 -28.5 13.6 54 56 54
-34.9 -28.5 13.6 50 50 50
-34.6 -28.5 13.6 53 52 52
-34.3 -28.5 13.6 54 56 54
-34.0 -28.5 13.6 50 50 50
-33.7 -28.5 13.6 50 50 50
-33.3 -28.5 13.6 46 46 44
-33.1 -28.6 13.7 48 48 48
-32.7 -28.5 13.6 43 43 43
-32.3 -28.5 13.6 43 43 43
-32.0 -28.5 13.6 43 43 43
-31.7 -28.5 13.6 43 43 43
-31.4 -28.5 13.6 43 43 43
-31.1 -28.5 13.6 41 41 41
-30.8 -28.5 13.6 43 43 43
-30.5 -28.5 13.6 43 43 43
-30.2 -28.5 13.6 43 43 43
-29.8 -28.5 13.6 42 43 42
-29.5 -28.5 13.6 43 43 43
-29.2 -28.5 13.6 43 43 43
-29.1 -28.7 13.7 43 43 43
-28.6 -28.5 13.6 43 43 43
-28.1 -28.3 13.5 41 41 41
-28.0 -28.6 13.7 43 43 43
-27.6 -28.5 13.6 43 43 43
-27.4 -28.6 13.7 43 43 43
-27.1 -28.6 13.7 43 43 43
-26.6 -28.4 13.6 47 48 47
-26.3 -28.4 13.6 46 46 44
-26.1 -28.6 13.7 51 51 51
-25.7 -28.5 13.6 81 84 83
-25.4 -28.5 13.6 93 93 93
-25.1 -28.5 13.6 95 95 95
-24.8 -28.5 13.6 96 99 98
-24.5 -28.6 13.7 98 100 100
-24.1 -28.5 13.6 97 100 99
-23.7 -28.4 13.6 102 102 102
-23.5 -28.5 13.6 103 103 103
-14.1 -28.7 13.7 117 117 117
-13.7 -28.6 13.7 121 121 121
-13.4 -28.6 13.7 119 119 119
-11.2 -25.0 12.0 123 125 124
-10.1 -24.4 11.7 132 132 132
8.3 -25.0 12.0 212 213 212
8.6 -25.0 12.0 212 213 212
10.0 -25.0 12.0 209 209 209
11.7 -25.0 12.0 208 208 208
38.7 -55.3 26.5 208 208 208
45.5 -62.2 29.7 208 208 208
41.5 -55.9 26.7 206 206 206
37.0 -49.0 23.4 206 206 206
41.9 -54.8 26.2 206 206 206
42.6 -54.8 26.2 207 207 207
71.4 -88.1 42.1 207 207 207
72.5 -88.3 42.2 207 207 207
79.5 -95.5 45.7 208 208 208
26.2 -28.4 13.6 207 207 207
26.5 -28.4 13.6 207 207 207
26.5 -28.1 13.4 205 205 205
26.6 -27.9 13.3 206 206 206
26.8 -27.8 13.3 206 206 206
-39.1 -28.7 13.9 53 52 52
-41.3 -30.6 14.8 53 52 52
-41.0 -30.6 14.8 53 52 52
-40.6 -30.6 14.8 53 52 52
-40.3 -30.6 14.8 55 56 54
-40.0 -30.6 14.8 55 56 54
-39.6 -30.6 14.8 58 58 58
-39.3 -30.6 14.8 55 56 54
-38.9 -30.6 14.8 55 56 54
-38.6 -30.6 14.8 55 56 54
-38.3 -30.6 14.8 53 52 52
-37.9 -30.6 14.8 51 51 51
-37.6 -30.6 14.8 53 52 52
-36.5 -30.6 14.8 53 52 52
-35.5 -30.6 14.8 47 46 45
-35.2 -30.6 14.8 44 44 44
-34.5 -30.6 14.8 44 44 44
-34.1 -30.6 14.8 44 44 44
-33.8 -30.6 14.8 44 44 44
-33.4 -30.6 14.8 44 44 44
-33.1 -30.6 14.8 44 44 44
-32.8 -30.6 14.8 44 44 44
-32.0 -30.6 14.8 44 44 44
-31.8 -30.7 14.8 44 44 44
-30.1 -29.4 14.2 44 44 44
-29.2 -28.8 13.9 44 44 44
-28.5 -28.4 13.7 42 42 42
-30.4 -30.6 14.8 42 42 42
-30.2 -30.8 14.9 40 40 40
-29.6 -30.6 14.8 42 43 42
-29.0 -30.6 14.8 42 43 42
-28.6 -30.6 14.8 45 45 45
-28.3 -30.6 14.8 49 49 49
-27.9 -30.6 14.8 49 49 49
-27.6 -30.6 14.8 36 37 36
-27.2 -30.6 14.8 68 70 69
-26.9 -30.6 14.8 89 89 89
-25.5 -29.4 14.2 93 93 93
-25.9 -30.6 14.8 95 95 95
-25.7 -30.8 14.9 98 100 100
-15.6 -30.7 14.8 111 113 112
-14.6 -29.5 14.3 108 110 110
-14.0 -28.8 13.9 112 112 112
-13.6 -28.7 13.9 112 112 112
-10.1 -24.9 12.1 109 109 109
-5.1 -24.9 12.1 193 193 193
-4.8 -24.9 12.0 193 193 193
-4.5 -24.9 12.1 192 192 192
-4.2 -24.9 12.1 191 191 191
-4.0 -25.0 12.1 190 190 190
-3.7 -24.9 12.1 193 193 193
-3.4 -24.9 12.1 193 193 193
-3.1 -24.9 12.1 190 190 190
-2.8 -24.9 12.0 190 190 190
-2.6 -24.9 12.1 190 190 190
-2.3 -25.0 12.1 190 190 190
-2.0 -24.9 12.1 190 190 190
-1.7 -24.9 12.1 186 186 186
-1.4 -24.9 12.1 185 185 185
-1.2 -24.9 12.1 189 189 189
-0.9 -24.9 12.1 185 185 185
-0.6 -24.9 12.0 185 185 185
-0.3 -24.9 12.0 185 185 185
-0.0 -24.9 12.1 183 183 183
0.2 -24.9 12.0 183 183 183
0.5 -24.9 12.1 183 183 183
0.8 -24.9 12.1 183 183 183
2.5 -24.9 12.1 182 182 182
2.8 -24.9 12.0 182 182 182
3.0 -24.9 12.1 182 182 182
3.3 -24.9 12.1 182 182 182
3.6 -24.9 12.1 182 182 182
3.9 -24.9 12.1 181 181 181
4.2 -24.9 12.1 181 181 181
4.5 -24.9 12.1 181 181 181
4.7 -24.9 12.1 181 181 181
5.0 -25.0 12.1 177 177 177
5.3 -24.9 12.1 165 168 167
5.6 -24.9 12.1 206 206 206
5.9 -24.9 12.1 208 208 208
6.4 -24.9 12.1 211 211 211
6.7 -24.9 12.1 211 211 211
7.0 -24.9 12.1 211 211 211
7.3 -25.0 12.1 211 211 211
7.5 -25.0 12.1 211 211 211
7.8 -24.9 12.0 211 211 211
8.1 -25.0 12.1 211 211 211
8.4 -25.0 12.1 211 211 211
8.7 -24.9 12.1 211 211 211
8.9 -24.9 12.1 211 211 211
9.2 -24.9 12.1 211 211 211
9.5 -25.0 12.1 211 211 211
9.8 -24.9 12.0 208 208 208
10.0 -24.9 12.0 208 208 208
10.3 -24.9 12.1 208 208 208
10.6 -24.9 12.0 211 211 211
10.9 -24.9 12.1 211 211 211
11.2 -24.9 12.1 208 208 208
11.5 -24.9 12.1 208 208 208
11.7 -24.9 12.1 208 208 208
12.0 -24.9 12.0 208 208 208
12.3 -24.9 12.0 208 208 208
12.6 -24.9 12.1 208 208 208
12.9 -24.9 12.1 208 208 208
13.1 -24.9 12.1 208 208 208
13.4 -24.9 12.1 208 208 208
13.7 -24.9 12.0 208 208 208
46.9 -64.3 31.1 208 208 208
46.3 -62.5 30.2 208 208 208
41.9 -55.7 26.9 208 208 208
42.7 -55.2 26.7 211 211 211
43.1 -54.9 26.6 211 211 211
73.2 -88.1 42.6 207 207 207
80.9 -96.1 46.5 207 207 207
85.1 -99.8 48.3 207 207 207
26.4 -28.6 13.8 206 206 206
26.5 -28.5 13.8 206 206 206
26.8 -28.4 13.7 207 207 207
26.8 -28.0 13.6 207 207 207
-43.2 -31.4 15.4 55 56 54
-39.3 -31.4 15.4 56 57 55
-33.3 -31.2 15.2 45 45 45
-33.3 -31.5 15.4 45 45 45
-32.2 -30.7 15.0 45 45 45
-31.4 -30.4 14.8 45 45 45
-31.8 -31.7 15.5 45 45 45
-31.1 -31.4 15.4 43 43 43
-26.9 -31.5 15.4 95 95 95
-26.4 -31.4 15.3 95 95 95
-25.4 -31.4 15.3 97 97 97
-16.0 -31.1 15.2 100 100 100
-15.2 -30.3 14.8 96 96 96
-14.3 -30.5 14.9 74 74 74
9.3 -31.6 15.5 211 211 211
8.6 -25.4 12.4 211 211 211
9.8 -25.3 12.4 211 211 211
9.9 -25.0 12.2 211 211 211
11.6 -24.9 12.2 207 207 207
11.9 -24.9 12.2 207 207 207
12.2 -24.9 12.2 207 207 207
16.6 -31.7 15.5 207 207 207
16.8 -31.6 15.5 207 207 207
47.0 -63.7 31.2 207 207 207
46.0 -61.5 30.1 207 207 207
41.6 -53.9 26.3 207 207 207
42.1 -53.7 26.3 208 208 208
42.9 -54.0 26.4 208 208 208
43.3 -53.7 26.3 208 208 208
75.2 -89.5 43.8 206 206 206
81.1 -95.2 46.6 207 207 207
85.3 -98.9 48.4 207 207 207
26.5 -28.1 13.8 206 206 206
26.7 -28.0 13.7 206 206 206
26.6 -27.5 13.5 206 206 206
-43.9 -31.5 15.6 56 57 55
-44.2 -32.0 15.8 56 57 55
-43.8 -31.9 15.8 56 57 55
-43.4 -32.0 15.8 56 57 55
-43.0 -31.9 15.8 56 57 55
-42.8 -32.0 15.8 59 59 59
-42.3 -31.9 15.8 59 59 59
-41.9 -31.9 15.8 59 59 59
-41.5 -31.9 15.8 56 57 55
-41.2 -31.9 15.8 56 57 55
-40.7 -31.9 15.8 54 54 54
-40.4 -31.9 15.8 54 54 54
-40.1 -32.0 15.8 54 54 54
-39.7 -31.9 15.8 54 54 54
-39.4 -32.0 15.8 54 54 54
-39.0 -32.0 15.8 54 54 54
-38.6 -31.9 15.8 54 54 54
-38.1 -32.1 15.9 48 47 46
-37.6 -32.0 15.8 49 48 47
-37.3 -32.0 15.9 49 48 47
-36.7 -31.9 15.8 49 48 47
-36.3 -31.9 15.8 49 48 47
-36.5 -32.3 16.0 49 48 47
-35.7 -32.0 15.8 49 48 47
-35.3 -31.9 15.8 49 48 47
-34.9 -31.9 15.8 49 48 47
-34.7 -32.0 15.9 49 48 47
-34.1 -31.8 15.7 46 46 46
-33.4 -31.5 15.6 46 46 46
-33.6 -32.0 15.9 46 46 46
-33.3 -32.1 15.9 46 46 46
-32.9 -32.1 15.9 46 46 46
-32.5 -32.1 15.9 47 47 47
-31.8 -31.8 15.7 47 47 47
-31.7 -32.4 16.0 44 44 44
-30.8 -31.9 15.8 42 43 42
-30.5 -31.9 15.8 42 43 42
-30.1 -31.9 15.8 42 43 42
-29.8 -32.0 15.8 42 43 42
-29.5 -32.0 15.8 42 43 42
-29.0 -31.9 15.8 45 45 45
-28.9 -32.1 15.9 47 48 47
-28.4 -32.0 15.8 47 48 47
-27.9 -31.9 15.8 47 48 47
-27.5 -31.8 15.7 56 57 55
-26.9 -31.5 15.6 62 62 62
-26.5 -32.3 16.0 97 97 97
-25.7 -32.4 16.0 99 99 99
-17.1 -32.3 16.0 9 14 10
-16.4 -31.6 15.6 20 23 21
-15.9 -31.4 15.5 25 25 25
-16.0 -32.3 16.0 33 33 33
-14.7 -31.8 15.7 30 29 28
-14.5 -32.2 15.9 27 28 26
-13.2 -31.8 15.7 32 32 32
-12.8 -31.7 15.7 33 35 34
-12.3 -32.3 16.0 188 188 188
16.6 -32.1 15.9 210 210 210
16.8 -31.9 15.8 207 207 207
17.1 -31.6 15.7 207 207 207
47.6 -63.8 31.6 207 207 207
46.1 -60.9 30.1 207 207 207
41.8 -53.5 26.5 207 207 207
42.2 -53.3 26.4 207 207 207
42.8 -53.3 26.4 207 207 207
43.3 -53.2 26.3 208 208 208
75.9 -89.3 44.2 206 206 206
80.9 -93.9 46.5 206 206 206
85.3 -97.8 48.4 206 206 206
26.5 -27.5 13.6 208 208 208
26.5 -27.2 13.5 206 206 206
-45.4 -32.2 16.1 54 54 54
-45.0 -32.2 16.1 53 52 52
-44.7 -32.2 16.1 55 55 55
-44.3 -32.2 16.1 60 60 60
-43.9 -32.2 16.1 60 60 60
-43.5 -32.2 16.1 60 60 60
-43.1 -32.2 16.1 60 60 60
-42.7 -32.2 16.1 60 60 60
-42.3 -32.2 16.1 60 60 60
-42.0 -32.2 16.1 57 58 56
-41.6 -32.2 16.1 57 58 56
-41.2 -32.2 16.1 60 60 60
-40.9 -32.2 16.1 57 58 56
-40.5 -32.2 16.1 55 55 55
-40.2 -32.2 16.1 55 55 55
-39.8 -32.2 16.1 55 55 55
-39.5 -32.3 16.2 55 55 55
-39.1 -32.3 16.2 51 51 51
-38.6 -32.2 16.1 49 48 47
-38.3 -32.2 16.1 50 49 48
-37.9 -32.2 16.1 50 49 48
-37.5 -32.2 16.1 50 49 48
-37.1 -32.2 16.1 50 49 48
-36.8 -32.3 16.2 50 49 48
-36.4 -32.2 16.1 50 49 48
-36.0 -32.2 16.1 50 49 48
-35.6 -32.2 16.1 50 49 48
-35.3 -32.2 16.1 50 49 48
-34.6 -31.9 16.0 47 47 47
-34.2 -31.9 16.0 47 47 47
-34.2 -32.2 16.1 44 44 44
-33.8 -32.2 16.1 47 47 47
-33.4 -32.2 16.1 47 48 47
-33.0 -32.2 16.1 47 48 47
-32.4 -32.0 16.0 47 48 47
-32.3 -32.2 16.1 47 48 47
-32.0 -32.3 16.2 45 45 45
-31.4 -32.1 16.1 46 46 46
-31.1 -32.2 16.1 42 42 42
-30.7 -32.2 16.1 42 42 42
-30.4 -32.2 16.1 42 42 42
-30.0 -32.2 16.1 42 42 42
-29.7 -32.2 16.1 42 42 42
-29.3 -32.2 16.1 42 43 42
-28.8 -32.1 16.1 44 44 44
-28.5 -32.2 16.1 44 44 44
-28.0 -32.1 16.1 47 47 47
-27.6 -32.0 16.0 49 49 49
-27.4 -32.2 16.1 49 49 49
-27.1 -32.3 16.2 54 54 54
-26.7 -32.3 16.2 72 74 74
-26.5 -32.4 16.2 89 91 90
-17.3 -32.2 16.1 26 26 26
-16.8 -32.0 16.0 26 26 26
-16.4 -31.9 16.0 27 27 27
-16.1 -32.2 16.1 27 27 27
-15.7 -32.1 16.1 27 29 27
-15.3 -32.0 16.0 27 29 27
-15.0 -32.1 16.1 27 29 27
-14.6 -32.1 16.1 27 28 26
-13.5 -32.1 16.0 31 31 31
-13.1 -31.9 16.0 34 34 34
-12.8 -32.2 16.1 153 153 153
-12.4 -32.1 16.1 188 188 188
17.1 -32.0 16.0 209 209 209
45.3 -59.1 29.6 206 206 206
41.7 -52.9 26.5 207 207 207
42.2 -52.6 26.3 207 207 207
42.8 -52.6 26.3 207 207 207
43.3 -52.5 26.3 207 207 207
44.0 -52.6 26.3 207 207 207
82.3 -94.5 47.3 206 206 206
86.6 -98.2 49.1 206 206 206
26.5 -27.5 13.7 207 207 207
26.6 -27.2 13.6 207 207 207
26.5 -26.8 13.4 208 208 208
26.3 -26.3 13.2 205 205 205
26.2 -25.9 13.0 206 206 206
-34.2 -24.0 12.1 57 58 56
-45.1 -31.9 16.2 58 59 57
-44.8 -31.9 16.2 60 60 60
-44.4 -31.9 16.2 60 60 60
-44.0 -31.9 16.2 61 61 61
-43.6 -31.9 16.2 61 61 61
-43.2 -31.9 16.2 61 61 61
-42.8 -31.9 16.1 58 59 57
-42.4 -31.9 16.1 58 59 57
-42.1 -31.9 16.1 58 59 57
-41.7 -31.9 16.2 58 59 57
-41.3 -31.9 16.2 58 59 57
-41.0 -31.9 16.2 58 59 57
-40.6 -31.9 16.2 58 59 57
-40.3 -31.9 16.2 56 56 56
-39.9 -31.9 16.2 56 56 56
-39.6 -32.0 16.2 53 53 53
-39.2 -32.0 16.2 52 52 52
-38.7 -31.8 16.1 50 49 48
-38.4 -31.9 16.2 50 49 48
-38.0 -31.9 16.2 51 50 48
-37.6 -31.9 16.1 53 52 52
-37.3 -31.9 16.2 53 52 52
-36.9 -32.0 16.2 51 50 48
-36.5 -31.9 16.2 51 50 48
-34.8 -30.7 15.6 51 50 48
-35.7 -31.9 16.1 51 50 48
-35.4 -31.9 16.2 51 50 48
-33.9 -30.9 15.7 47 48 47
-25.7 -24.0 12.1 47 48 47
-25.4 -24.0 12.1 48 48 48
-33.1 -31.9 16.1 48 48 48
-24.6 -24.0 12.2 48 48 48
-24.3 -23.9 12.1 48 48 48
-24.0 -24.0 12.1 47 47 47
-23.2 -24.0 12.2 44 44 44
-22.8 -23.9 12.1 42 43 42
-30.1 -31.9 16.2 42 43 42
-29.8 -31.9 16.2 43 43 43
-29.4 -31.9 16.2 43 43 43
-21.8 -24.0 12.1 43 43 43
-21.5 -24.0 12.1 42 42 42
-21.2 -24.0 12.1 42 42 42
-20.9 -24.0 12.1 41 40 38
-20.1 -24.0 12.2 48 48 48
-19.8 -24.0 12.1 42 43 42
-19.4 -23.9 12.1 53 52 51
-19.1 -23.9 12.1 96 96 96
-18.9 -23.9 12.1 77 77 77
-16.7 -31.5 15.9 28 28 28
-16.3 -31.4 15.9 27 27 27
-12.4 -31.9 16.2 187 189 189
-9.0 -24.4 12.4 186 188 187
-8.5 -24.0 12.1 225 225 225
7.6 -24.0 12.1 209 209 209
7.8 -23.9 12.1 210 213 212
8.2 -24.0 12.2 210 213 212
8.5 -24.1 12.2 210 213 212
8.7 -24.0 12.2 209 209 209
9.9 -26.5 13.4 209 209 209
9.6 -24.1 12.2 209 209 209
9.8 -23.9 12.1 209 209 209
10.1 -23.9 12.1 209 209 209
11.0 -24.0 12.1 209 209 209
11.2 -23.9 12.1 209 209 209
11.5 -24.0 12.1 209 209 209
11.8 -23.9 12.1 209 209 209
12.1 -23.9 12.1 206 206 206
12.4 -24.0 12.1 206 206 206
12.7 -24.0 12.2 209 209 209
12.9 -24.0 12.1 209 209 209
13.2 -23.9 12.1 209 209 209
13.5 -23.9 12.1 209 209 209
14.1 -24.0 12.2 209 209 209
45.3 -58.4 29.6 206 206 206
45.4 -57.7 29.2 206 206 206
43.2 -53.3 27.0 209 209 209
43.0 -52.2 26.5 206 206 206
43.4 -52.0 26.3 207 207 207
49.8 -58.0 29.4 207 207 207
50.1 -57.6 29.2 210 210 210
86.9 -97.3 49.3 208 208 208
26.5 -27.2 13.8 207 207 207
26.7 -27.0 13.7 207 207 207
26.7 -26.7 13.5 207 207 207
-37.2 -25.8 13.2 61 61 61
-36.9 -25.8 13.2 61 61 61
-36.6 -25.8 13.2 61 61 61
-36.3 -25.8 13.2 61 61 61
-36.0 -25.8 13.2 61 61 61
-35.7 -25.8 13.2 61 61 61
-35.4 -25.8 13.2 61 61 61
-35.1 -25.8 13.2 61 61 61
-34.8 -25.8 13.2 62 62 62
-34.5 -25.8 13.2 62 62 62
-34.1 -25.8 13.2 62 62 62
-33.8 -25.8 13.2 62 62 62
-32.9 -25.8 13.2 57 57 57
-32.6 -25.8 13.2 57 57 57
-32.3 -25.8 13.2 54 54 54
-32.0 -25.8 13.2 54 54 54
-31.1 -25.8 13.2 51 51 49
-30.7 -25.8 13.2 53 53 53
-30.5 -25.8 13.2 53 53 53
-30.1 -25.8 13.2 53 53 53
-29.8 -25.8 13.2 48 48 48
-29.5 -25.7 13.2 51 51 49
-29.2 -25.8 13.2 51 51 49
-29.0 -25.8 13.2 51 51 49
-28.7 -25.8 13.2 48 48 48
-28.3 -25.8 13.2 48 48 48
-27.9 -25.7 13.2 47 47 47
-27.8 -25.9 13.3 49 49 49
-27.4 -25.8 13.2 49 49 49
-26.9 -25.6 13.1 49 49 49
-26.8 -25.8 13.2 49 49 49
-26.4 -25.7 13.2 49 49 49
-26.2 -25.9 13.3 50 50 50
-25.9 -25.8 13.2 47 48 47
-25.4 -25.7 13.2 47 48 47
-25.1 -25.7 13.2 46 46 46
-25.0 -25.8 13.2 46 46 46
-24.3 -25.8 13.2 44 44 44
-24.0 -25.8 13.2 44 44 44
-23.7 -25.8 13.2 42 43 42
-23.3 -25.7 13.2 42 43 42
-23.1 -25.8 13.2 42 43 42
-22.8 -25.8 13.2 42 43 42
-11.7 -25.8 13.2 32 32 32
-11.3 -25.5 13.1 33 33 33
-10.9 -25.4 13.0 36 36 36
-10.8 -25.7 13.2 46 46 46
-10.5 -25.9 13.3 159 159 159
-10.2 -25.9 13.3 187 189 189
-9.9 -25.8 13.2 186 188 187
7.6 -25.7 13.2 210 213 212
8.3 -25.9 13.3 210 213 212
8.6 -25.8 13.2 210 213 212
8.8 -25.7 13.2 210 213 212
9.2 -25.8 13.2 210 213 212
9.5 -25.8 13.2 210 213 212
9.8 -25.8 13.2 210 213 212
10.0 -25.6 13.1 209 209 209
13.4 -25.7 13.2 209 209 209
47.4 -61.3 31.4 208 208 208
46.6 -59.4 30.5 205 205 205
46.0 -57.8 29.6 206 206 206
45.8 -56.7 29.1 203 203 203
45.8 -55.8 28.6 206 206 206
44.5 -53.5 27.4 209 212 211
49.1 -57.3 29.4 206 206 206
50.4 -58.0 29.7 207 207 207
50.8 -57.7 29.6 207 207 207
51.5 -57.8 29.6 207 207 207
-36.8 -25.4 13.2 62 62 62
-36.5 -25.4 13.2 62 62 62
-36.2 -25.4 13.2 59 60 58
-35.9 -25.4 13.2 62 62 62
-35.6 -25.4 13.2 62 62 62
-35.3 -25.4 13.2 62 62 62
-35.0 -25.4 13.2 62 62 62
-34.7 -25.4 13.2 62 62 62
-34.4 -25.4 13.2 62 62 62
-34.1 -25.4 13.2 63 63 63
-33.7 -25.4 13.2 63 63 63
-33.4 -25.4 13.2 63 63 63
-32.8 -25.4 13.2 58 58 58
-32.5 -25.4 13.2 58 58 58
-32.2 -25.4 13.2 55 55 55
-30.1 -25.4 13.2 54 54 54
-29.8 -25.4 13.2 52 52 50
-29.4 -25.4 13.2 54 54 54
-29.1 -25.4 13.2 52 52 50
-27.9 -25.7 13.3 50 50 50
-27.4 -25.5 13.2 50 50 50
-26.9 -25.3 13.1 50 50 50
-26.7 -25.4 13.2 50 50 50
-25.9 -25.5 13.2 48 48 48
-25.4 -25.4 13.2 48 48 48
-23.3 -25.4 13.2 43 43 43
-23.0 -25.4 13.2 43 43 43
-11.8 -25.6 13.3 31 30 29
-11.4 -25.4 13.2 32 32 32
-11.0 -25.2 13.0 36 37 36
-10.7 -25.4 13.2 44 44 44
-10.6 -25.7 13.3 174 174 174
-10.2 -25.6 13.3 187 189 189
-9.9 -25.5 13.2 189 189 189
9.8 -25.6 13.3 209 212 211
10.1 -25.4 13.2 209 212 211
47.9 -61.2 31.7 208 208 208
47.4 -59.7 31.0 208 208 208
46.7 -57.9 30.0 208 208 208
46.6 -56.9 29.5 209 212 211
46.5 -56.0 29.1 205 205 205
48.2 -56.5 29.3 209 209 209
49.8 -57.4 29.8 209 209 209
50.9 -58.0 30.1 206 206 206
51.2 -57.4 29.8 206 206 206
-11.9 -25.6 13.4 26 26 26
-11.5 -25.3 13.3 32 32 32
-11.1 -25.2 13.2 34 34 34
-10.9 -25.4 13.3 41 41 41
-10.6 -25.5 13.4 183 183 183
-10.3 -25.5 13.4 183 186 185
-10.0 -25.5 13.4 188 188 188
-9.7 -25.4 13.4 189 189 189
47.7 -60.3 31.6 207 207 207
47.4 -59.0 31.0 207 207 207
46.7 -57.2 30.0 208 208 208
46.4 -56.0 29.4 208 208 208
46.2 -54.9 28.8 208 208 208
48.3 -55.9 29.3 208 208 208
49.7 -56.7 29.7 208 208 208
50.8 -57.1 30.0 208 208 208
51.1 -56.7 29.7 206 206 206
25.8 -23.8 12.5 171 173 173
-28.1 -25.2 13.4 55 54 53
-27.5 -25.0 13.3 55 54 53
-12.0 -25.5 13.6 58 58 58
-11.6 -25.2 13.4 59 60 58
-11.2 -25.1 13.3 36 38 37
-10.9 -25.2 13.4 45 45 45
-10.6 -25.3 13.4 184 184 184
-10.3 -25.3 13.4 183 186 185
-10.1 -25.3 13.5 188 188 188
51.0 -64.6 34.3 207 207 207
48.2 -60.1 32.0 207 207 207
47.5 -58.3 31.0 207 207 207
46.3 -56.0 29.8 207 207 207
45.6 -54.4 28.9 207 207 207
45.5 -53.4 28.4 207 207 207
45.3 -52.5 27.9 208 208 208
47.6 -54.4 28.9 208 208 208
49.5 -55.7 29.6 208 208 208
50.3 -55.9 29.7 208 208 208
50.8 -55.6 29.6 208 208 208
29.5 -28.2 15.0 207 207 207
34.0 -31.7 16.8 205 205 205
25.8 -23.2 12.3 182 182 182
26.0 -23.2 12.3 185 185 185
-29.6 -24.4 13.1 58 59 59
-28.0 -24.9 13.4 59 59 59
-27.2 -24.4 13.1 57 56 55
-26.6 -24.1 13.0 53 53 53
-25.7 -24.4 13.1 52 52 52
-25.2 -24.2 13.0 49 49 49
-13.5 -18.6 10.0 30 30 30
-11.6 -24.9 13.4 84 86 86
-11.0 -24.4 13.1 27 27 27
-10.8 -24.6 13.2 53 52 52
-10.6 -24.8 13.3 183 186 185
-10.3 -24.8 13.3 182 185 184
51.6 -64.6 34.8 207 210 209
44.0 -51.0 27.5 204 204 204
43.8 -50.1 27.0 208 211 210
44.1 -49.8 26.8 207 207 207
53.7 -59.8 32.2 207 207 207
51.1 -56.1 30.2 207 207 207
50.9 -55.1 29.6 208 208 208
29.6 -28.3 15.2 206 206 206
29.6 -27.9 15.0 206 206 206
34.4 -32.0 17.2 207 207 207
34.1 -31.4 16.9 207 207 207
25.7 -22.9 12.3 182 182 182
25.9 -22.8 12.3 185 185 185
-37.5 -24.4 13.3 67 68 66
-37.3 -24.5 13.4 65 65 65
-37.0 -24.5 13.4 67 68 66
-36.7 -24.5 13.4 65 65 65
-36.4 -24.5 13.4 67 68 66
-36.1 -24.5 13.4 67 68 66
-35.8 -24.5 13.4 67 68 66
-35.5 -24.5 13.4 66 66 66
-34.8 -24.5 13.4 66 66 66
-34.5 -24.5 13.4 66 66 66
-34.2 -24.5 13.4 66 66 66
-33.6 -24.5 13.4 66 66 66
-33.3 -24.5 13.4 63 64 62
-33.0 -24.6 13.4 67 67 67
-32.7 -24.5 13.4 63 64 62
-32.3 -24.5 13.4 61 61 61
-32.1 -24.5 13.4 58 59 59
-31.8 -24.5 13.4 59 59 59
-31.3 -24.4 13.3 59 59 59
-31.0 -24.4 13.3 62 62 62
-30.7 -24.5 13.3 59 59 59
-30.4 -24.5 13.3 59 59 59
-30.1 -24.4 13.3 59 59 59
-29.8 -24.5 13.3 58 58 58
-29.6 -24.5 13.4 58 59 59
-28.5 -24.5 13.3 58 59 59
-28.1 -24.7 13.4 60 60 60
-27.6 -24.4 13.3 57 57 55
-26.0 -24.4 13.3 55 55 55
-25.7 -24.4 13.3 53 52 52
-11.9 -24.7 13.4 44 44 44
-11.5 -24.5 13.4 84 84 84
-11.2 -24.5 13.3 36 37 36
-10.9 -24.5 13.4 53 53 53
-10.6 -24.5 13.3 182 185 184
-10.2 -24.4 13.3 181 184 183
43.6 -49.3 26.9 207 210 209
59.8 -66.6 36.3 208 211 210
30.4 -29.0 15.8 206 206 206
30.2 -28.4 15.5 206 206 206
34.5 -31.7 17.3 206 206 206
34.3 -31.1 17.0 206 206 206
25.9 -22.7 12.4 184 184 184
26.1 -22.6 12.3 184 184 184
-37.9 -24.4 13.5 65 65 65
-37.9 -24.6 13.6 65 65 65
-37.5 -24.6 13.6 66 66 66
-37.3 -24.6 13.6 67 69 67
-36.9 -24.6 13.6 67 69 67
-36.5 -24.5 13.5 67 69 67
-36.2 -24.5 13.5 67 69 67
-35.4 -24.6 13.6 68 70 68
-35.0 -24.5 13.6 67 67 67
-34.1 -24.6 13.6 67 67 67
-33.8 -24.6 13.6 67 67 67
-33.4 -24.6 13.6 67 67 67
-33.1 -24.6 13.6 67 67 67
-32.9 -24.6 13.6 62 62 62
-32.6 -24.6 13.6 59 59 59
-32.1 -24.5 13.5 59 59 59
-31.8 -24.5 13.5 63 63 63
-31.3 -24.6 13.6 60 60 60
-31.0 -24.6 13.6 60 60 60
-30.6 -24.6 13.6 58 59 59
-30.3 -24.5 13.5 58 59 59
-30.1 -24.7 13.6 59 59 59
-29.8 -24.7 13.6 61 61 61
-29.4 -24.6 13.6 59 59 59
-29.0 -24.5 13.6 59 59 59
-29.1 -24.9 13.7 59 59 59
-28.5 -24.6 13.6 60 60 60
-27.9 -24.4 13.5 58 58 56
-27.7 -24.5 13.5 58 58 56
-26.5 -24.5 13.5 56 56 56
-26.0 -24.4 13.5 54 54 54
-12.0 -24.6 13.6 90 92 91
-11.7 -24.5 13.5 73 73 73
-11.0 -24.4 13.5 52 52 52
-10.6 -24.3 13.4 183 186 185
-10.3 -24.3 13.4 182 185 184
-10.2 -24.7 13.6 186 186 186
43.8 -48.8 26.9 207 210 209
60.2 -66.2 36.5 207 210 209
60.1 -65.2 36.0 207 210 209
62.2 -64.8 35.8 207 207 207
35.0 -31.8 17.5 205 205 205
35.3 -31.7 17.5 206 206 206
108.1 -54.7 30.2 170 171 170
106.7 -53.7 29.6 168 168 168
105.3 -52.6 29.1 166 166 166
-33.8 -24.8 13.8 68 68 68
-33.5 -24.7 13.8 65 66 64
-29.5 -24.9 13.9 61 61 61
-28.8 -24.6 13.7 61 61 61
-28.2 -24.4 13.6 59 59 57
-27.4 -24.8 13.9 57 57 57
-26.9 -24.6 13.7 58 58 58
-12.1 -24.5 13.7 39 41 41
-11.1 -24.4 13.6 55 55 55
-10.7 -24.1 13.5 183 186 185
-10.4 -24.1 13.5 181 184 183
-10.5 -25.2 14.1 185 185 185
60.7 -65.9 36.9 207 210 209
63.2 -64.9 36.3 207 210 209
65.5 -66.5 37.2 208 211 210
108.8 -54.4 30.4 174 174 174
107.1 -53.2 29.7 168 168 168
105.4 -52.0 29.1 165 165 165
-29.8 -24.8 14.1 62 62 62
-29.1 -24.5 13.9 64 64 64
-11.6 -24.4 13.8 50 50 50
-10.6 -25.2 14.3 183 183 183
-10.4 -25.4 14.4 183 183 183
61.1 -65.5 37.1 206 209 208
62.1 -65.6 37.2 206 206 206
64.0 -66.7 37.8 207 210 209
64.6 -66.4 37.6 206 206 206
63.8 -64.7 36.7 207 210 209
44.7 -41.9 23.8 204 204 204
-11.2 -25.3 14.5 180 183 182
-10.8 -25.1 14.4 182 182 182
-10.6 -25.6 14.7 184 184 184
-10.2 -25.3 14.5 212 214 214
48.8 -55.5 31.8 208 211 210
47.8 -53.6 30.8 205 208 207
46.8 -51.6 29.6 206 209 208
60.5 -64.0 36.7 209 212 211
60.9 -63.5 36.4 209 212 211
54.9 -55.7 32.0 207 210 209
61.8 -61.8 35.5 207 210 209
63.8 -63.0 36.2 207 210 209
44.3 -41.0 23.6 208 211 210
44.7 -40.9 23.5 208 211 210
-11.5 -26.5 15.4 181 181 181
-11.1 -26.3 15.3 176 179 178
48.2 -54.9 32.0 208 211 210
47.8 -53.7 31.2 208 211 210
47.9 -53.0 30.8 208 211 210
46.6 -50.8 29.6 208 211 210
45.8 -49.2 28.6 208 211 210
60.4 -63.0 36.7 209 212 211
54.9 -56.4 32.8 209 212 211
55.1 -55.1 32.1 209 212 211
61.1 -60.3 35.1 209 212 211
62.4 -60.8 35.4 206 209 208
44.1 -40.3 23.4 207 210 209
44.0 -39.7 23.1 207 210 209
-11.5 -26.1 15.4 179 182 181
-11.2 -26.2 15.5 181 181 181
48.3 -54.3 32.0 207 210 209
47.9 -53.0 31.3 207 210 209
46.3 -49.7 29.3 208 211 210
45.5 -48.2 28.4 208 211 210
44.7 -46.6 27.5 208 211 210
59.6 -61.3 36.2 208 211 210
56.2 -55.5 32.7 209 212 211
60.5 -57.4 33.8 209 212 211
44.5 -40.1 23.7 207 210 209
44.5 -39.6 23.4 207 210 209
44.7 -39.4 23.2 207 210 209
-11.5 -25.7 15.3 184 184 184
-11.1 -25.6 15.3 177 180 179
48.2 -53.4 32.0 207 210 209
48.0 -52.4 31.3 207 210 209
44.9 -46.9 28.0 208 211 210
44.5 -45.8 27.4 208 211 210
59.4 -60.3 36.0 208 211 210
60.9 -57.0 34.1 209 212 211
45.0 -39.5 23.6 206 206 206
45.4 -39.4 23.6 210 213 212
-11.6 -25.6 15.5 185 185 185
-11.3 -25.8 15.6 179 179 179
-11.3 -26.5 16.1 163 163 163
13.2 -16.7 10.1 207 210 209
13.4 -16.7 10.1 207 210 209
47.4 -51.8 31.4 207 210 209
47.6 -51.3 31.1 207 210 209
46.1 -48.9 29.6 207 210 209
46.0 -48.1 29.1 207 210 209
45.5 -46.8 28.4 207 210 209
44.4 -45.1 27.3 207 210 209
44.5 -44.5 27.0 207 210 209
87.1 -84.8 51.4 208 211 210
56.1 -51.1 31.0 209 212 211
53.4 -48.1 29.1 209 212 211
45.8 -39.7 24.1 207 210 209
40.5 -30.9 18.7 189 189 189
-11.8 -25.6 15.8 181 184 183
-11.9 -26.6 16.4 178 178 178
-11.4 -26.6 16.3 157 160 159
13.5 -16.5 10.2 207 210 209
45.9 -48.1 29.6 206 209 208
46.1 -47.5 29.2 206 209 208
45.7 -46.5 28.6 207 210 209
44.7 -44.7 27.5 207 210 209
48.3 -47.7 29.3 207 210 209
89.8 -86.1 53.0 207 210 209
91.2 -86.4 53.1 208 211 210
53.4 -47.3 29.1 209 212 211
52.0 -45.6 28.0 209 212 211
40.6 -30.9 19.0 186 186 186
40.3 -30.3 18.7 192 192 192
72.7 -33.7 20.7 180 183 182
-13.6 -16.1 10.1 22 25 23
-12.0 -26.7 16.7 177 177 177
-11.7 -26.8 16.7 162 162 162
13.5 -16.3 10.2 206 209 208
47.6 -49.9 31.1 206 209 208
46.6 -47.3 29.5 206 209 208
95.9 -90.8 56.6 207 210 209
97.0 -90.5 56.5 207 210 209
40.5 -30.4 19.0 190 190 190
40.0 -29.7 18.5 192 192 192
39.1 -28.7 17.9 192 192 192
73.2 -33.5 20.9 181 184 183
57.3 -25.2 15.7 166 169 168
-14.0 -16.1 10.2 116 116 116
-13.7 -16.0 10.2 23 26 24
-13.4 -15.9 10.1 129 129 129
-13.1 -15.9 10.0 38 38 36
-12.2 -26.5 16.8 179 179 179
-12.2 -27.5 17.4 165 165 165
-11.7 -27.3 17.3 162 162 162
8.5 -16.1 10.2 208 211 210
14.3 -16.0 10.1 206 209 208
98.3 -91.6 58.0 207 210 209
101.5 -93.4 59.1 207 210 209
105.9 -96.1 60.8 207 210 209
40.6 -30.0 19.0 192 192 192
40.3 -29.5 18.7 192 192 192
39.2 -28.3 17.9 192 192 192
37.8 -27.0 17.1 192 192 192
74.0 -33.3 21.1 182 185 184
59.8 -26.1 16.5 177 177 177
57.7 -25.0 15.8 173 173 173
-13.2 -26.7 17.2 187 189 189
-12.8 -26.7 17.1 186 188 187
-12.2 -26.2 16.8 182 182 182
-12.1 -26.9 17.3 170 171 170
-11.7 -26.9 17.3 165 165 165
-11.2 -26.7 17.2 158 161 160
99.2 -91.1 58.6 206 209 208
104.8 -95.0 61.0 206 209 208
107.6 -96.2 61.8 207 210 209
74.5 -33.0 21.2 183 186 185
73.9 -32.6 20.9 183 186 185
60.0 -25.8 16.5 176 176 176
59.1 -25.2 16.2 169 171 170
60.7 -25.8 16.5 163 163 163
-12.9 -26.6 17.3 186 186 186
-12.3 -26.0 17.0 181 181 181
-12.2 -26.7 17.5 173 175 175
-11.8 -26.6 17.4 168 168 168
99.2 -89.8 58.6 206 209 208
119.9 -107.0 69.8 206 209 208
121.9 -107.4 70.1 206 209 208
123.1 -107.0 69.8 207 210 209
152.4 -119.8 78.2 208 211 210
148.7 -115.5 75.4 209 212 211
138.8 -106.6 69.5 209 212 211
75.2 -32.9 21.4 184 187 186
74.4 -32.3 21.1 184 187 186
60.4 -25.6 16.7 175 175 175
59.8 -25.1 16.4 170 172 172
60.9 -25.5 16.6 165 165 165
-12.5 -27.0 17.9 174 176 176
-12.1 -26.9 17.8 172 172 172
131.5 -115.6 76.6 206 209 208
134.4 -116.6 77.2 206 209 208
130.8 -112.0 74.2 206 209 208
198.3 -153.5 101.7 208 211 210
157.5 -120.5 79.8 208 211 210
63.2 -26.5 17.6 180 180 180
61.5 -25.6 17.0 176 176 176
60.8 -25.2 16.7 169 171 170
61.4 -25.2 16.7 164 164 164
-13.1 -29.8 20.1 168 168 168
146.3 -125.0 84.1 210 210 210
204.9 -156.2 105.1 208 211 210
166.6 -125.5 84.4 208 211 210
83.4 -35.8 24.1 187 189 189
79.8 -34.0 22.9 187 189 189
61.9 -25.1 16.9 165 165 165
-25.8 -15.6 10.7 38 38 38
-25.6 -15.6 10.7 53 53 53
-25.3 -15.6 10.7 73 73 73
-25.1 -15.6 10.7 75 75 75
-24.8 -15.6 10.7 67 67 67
-24.6 -15.6 10.7 49 49 49
-19.2 -15.7 10.7 70 70 70
-18.9 -15.6 10.7 70 70 70
-17.6 -15.6 10.7 176 176 176
-17.4 -15.6 10.7 121 121 121
-16.4 -15.6 10.7 27 27 27
-16.2 -15.6 10.7 28 28 28
-15.9 -15.6 10.7 30 29 29
-14.9 -15.6 10.7 30 29 29
-14.7 -15.6 10.7 28 28 28
-14.2 -15.7 10.7 90 92 91
-13.9 -15.6 10.7 139 141 140
-13.7 -15.6 10.7 160 160 160
-13.4 -15.6 10.7 53 52 52
-13.2 -15.6 10.7 41 41 41
-12.9 -15.6 10.7 71 72 70
-12.7 -15.6 10.7 120 120 120
-12.4 -15.6 10.7 131 134 133
-9.4 -15.6 10.7 31 30 29
-14.0 -29.3 20.0 177 180 179
-13.6 -29.4 20.1 175 175 175
-13.1 -29.4 20.1 167 167 167
182.5 -155.5 106.3 210 210 210
153.1 -128.7 88.0 210 210 210
145.7 -120.9 82.6 212 213 212
211.9 -159.1 108.7 207 210 209
189.4 -140.5 96.0 208 211 210
64.0 -25.7 17.6 168 168 168
62.6 -25.0 17.1 160 163 162
64.7 -25.5 17.4 153 153 153
-30.2 -15.4 10.7 36 36 36
-30.0 -15.4 10.7 53 52 52
-29.7 -15.4 10.7 74 74 74
-29.3 -15.5 10.8 151 153 153
-29.0 -15.5 10.7 78 80 78
-28.7 -15.4 10.7 29 30 28
-28.5 -15.4 10.7 20 23 21
-28.2 -15.4 10.7 25 25 25
-28.0 -15.4 10.7 29 30 28
-27.8 -15.5 10.8 36 37 36
-27.5 -15.5 10.8 58 58 58
-27.2 -15.5 10.7 155 158 157
-27.0 -15.4 10.7 137 137 137
-26.7 -15.4 10.7 41 41 41
-26.5 -15.4 10.7 155 158 157
-26.2 -15.4 10.7 178 181 180
-26.0 -15.4 10.7 182 182 182
-25.7 -15.5 10.7 129 132 131
-25.5 -15.4 10.7 80 82 79
-25.2 -15.4 10.7 82 83 81
-25.0 -15.5 10.7 69 71 69
-24.7 -15.5 10.7 125 125 125
-24.5 -15.5 10.7 172 174 174
-24.2 -15.5 10.7 169 169 169
-24.0 -15.4 10.7 184 184 184
-23.7 -15.5 10.7 188 190 190
-23.5 -15.5 10.7 209 209 209
-23.2 -15.4 10.7 212 213 212
-23.0 -15.4 10.7 192 192 192
-22.7 -15.4 10.7 204 204 204
-22.5 -15.4 10.7 210 210 210
-22.3 -15.5 10.7 205 208 207
-22.1 -15.5 10.8 197 197 197
-21.8 -15.5 10.8 179 179 179
-21.5 -15.5 10.7 165 165 165
-19.7 -15.4 10.7 205 208 207
-19.5 -15.4 10.7 219 219 219
-19.2 -15.4 10.7 180 183 182
-19.0 -15.4 10.7 121 123 122
-18.7 -15.4 10.7 163 166 165
-18.5 -15.4 10.7 181 184 183
-18.2 -15.4 10.7 197 200 199
-18.0 -15.4 10.7 180 180 180
-17.7 -15.4 10.7 212 214 214
-17.5 -15.4 10.7 211 211 211
-17.2 -15.4 10.7 212 214 214
-17.0 -15.4 10.7 132 132 132
-16.7 -15.4 10.7 42 42 42
-16.5 -15.4 10.7 42 42 42
-16.2 -15.4 10.7 65 65 65
-16.0 -15.5 10.7 80 82 79
-15.8 -15.5 10.7 88 89 87
-15.5 -15.5 10.7 105 105 105
-15.3 -15.5 10.7 101 100 98
-15.0 -15.5 10.7 30 29 29
-14.7 -15.4 10.7 42 43 42
-14.5 -15.5 10.7 93 93 93
-14.3 -15.5 10.8 19 23 20
-14.0 -15.5 10.7 28 28 28
-13.7 -15.4 10.7 43 43 43
-13.5 -15.4 10.7 103 103 103
-13.2 -15.4 10.7 43 45 45
-13.0 -15.4 10.7 80 82 79
-12.8 -15.4 10.7 30 31 30
-12.5 -15.5 10.7 99 99 99
-12.3 -15.5 10.7 54 54 54
-12.0 -15.4 10.7 72 72 72
-11.8 -15.5 10.7 126 128 127
-9.5 -15.5 10.7 92 92 92
-14.8 -29.4 20.4 169 171 170
-14.2 -29.1 20.2 176 176 176
-13.7 -29.2 20.3 173 173 173
-13.2 -29.1 20.2 138 140 139
184.5 -154.8 107.5 209 209 209
169.7 -140.4 97.5 210 210 210
147.6 -120.5 83.7 212 213 212
195.4 -157.4 109.3 210 210 210
192.4 -153.0 106.3 210 210 210
201.6 -158.3 110.0 210 210 210
33.3 -20.1 13.9 199 199 199
32.7 -19.5 13.6 199 199 199
80.0 -32.6 22.7 189 191 191
77.2 -31.3 21.7 188 188 188
75.5 -30.4 21.1 188 188 188
64.3 -25.4 17.6 169 169 169
63.3 -24.8 17.2 162 162 162
65.1 -25.4 17.6 158 158 158
65.2 -25.3 17.5 153 153 153
-26.4 -15.3 10.8 185 185 185
-26.2 -15.3 10.8 175 174 172
-25.9 -15.3 10.8 162 162 162
-25.7 -15.3 10.8 144 144 144
-25.4 -15.3 10.8 154 154 154
-25.2 -15.3 10.8 84 84 84
-24.9 -15.3 10.8 84 84 84
-24.7 -15.3 10.8 201 203 203
-22.4 -15.3 10.8 77 77 77
-22.2 -15.4 10.8 75 75 75
-21.9 -15.3 10.8 73 73 73
-21.7 -15.3 10.8 58 58 56
-15.9 -15.3 10.8 15 15 15
-15.6 -15.3 10.8 21 24 22
-15.4 -15.3 10.8 116 118 117
-15.1 -15.3 10.8 40 40 40
-14.8 -15.3 10.8 100 100 100
-14.6 -15.3 10.8 37 38 37
-14.4 -15.3 10.8 31 32 30
-14.1 -15.3 10.8 110 110 108
-15.2 -29.7 21.0 168 168 168
-14.4 -29.2 20.6 168 170 169
-13.9 -29.1 20.5 161 161 161
-13.4 -29.0 20.5 136 138 137
-13.0 -29.2 20.6 46 47 45
188.8 -155.8 110.0 211 211 211
171.5 -139.6 98.5 209 209 209
140.8 -113.1 79.8 209 209 209
218.1 -168.5 119.0 210 210 210
33.5 -19.8 14.0 199 199 199
33.1 -19.4 13.7 199 199 199
80.3 -32.2 22.7 190 192 192
75.3 -29.8 21.0 189 189 189
65.0 -25.3 17.8 167 167 167
63.8 -24.6 17.4 163 163 163
65.7 -25.2 17.8 158 158 158
65.6 -25.0 17.6 151 153 153
65.2 -24.7 17.4 149 149 149
-30.0 -17.3 12.4 171 173 173
-29.7 -17.3 12.4 127 127 127
-29.1 -17.3 12.4 205 205 205
-28.8 -17.3 12.4 202 202 202
-28.5 -17.2 12.4 67 67 67
-27.8 -17.2 12.3 139 139 139
-16.7 -17.3 12.4 30 31 30
-16.2 -17.3 12.4 74 74 74
-17.1 -19.3 13.9 42 42 42
-16.8 -19.3 13.9 75 76 74
-16.5 -19.3 13.9 34 34 34
-15.6 -30.1 21.6 169 169 169
-14.8 -29.4 21.1 181 184 183
-14.1 -29.0 20.8 180 183 182
-13.6 -29.1 20.9 175 175 175
-13.3 -29.3 21.0 113 114 113
183.5 -148.9 106.9 211 211 211
168.8 -135.2 97.0 211 211 211
142.0 -112.2 80.5 211 211 211
180.2 -138.7 99.6 212 213 212
211.5 -160.7 115.3 210 210 210
34.5 -20.3 14.6 195 195 195
79.6 -31.2 22.4 190 190 190
64.8 -24.6 17.6 160 160 160
66.1 -25.0 17.9 153 155 155
66.1 -24.8 17.8 152 152 152
65.9 -24.6 17.6 141 143 142
73.8 -27.1 19.5 133 133 133
-29.7 -16.7 12.2 131 133 132
-29.4 -16.6 12.1 164 164 164
-29.1 -16.7 12.2 202 204 204
-28.9 -16.7 12.2 116 118 117
-28.6 -16.7 12.2 51 51 51
-28.3 -16.7 12.2 59 59 59
-28.0 -16.7 12.2 44 44 44
-27.7 -16.6 12.1 67 67 67
-27.4 -16.7 12.2 106 108 108
-27.2 -16.7 12.2 103 102 100
-26.9 -16.7 12.2 102 102 102
-25.1 -16.6 12.1 54 54 54
-24.8 -16.6 12.1 60 60 60
-24.6 -16.7 12.2 67 67 67
-24.3 -16.6 12.1 64 65 63
-24.1 -16.7 12.2 65 66 64
-23.8 -16.7 12.2 63 63 63
-23.5 -16.7 12.2 63 63 63
-20.9 -16.6 12.1 220 220 220
-20.7 -16.7 12.2 226 226 226
-20.4 -16.7 12.2 222 222 222
-20.1 -16.6 12.1 222 222 222
-19.8 -16.6 12.1 222 222 222
-19.5 -16.7 12.2 222 222 222
-18.7 -16.6 12.1 4 4 4
-18.4 -16.7 12.2 77 78 76
-18.1 -16.7 12.2 18 22 19
-17.8 -16.6 12.1 26 26 26
-17.5 -16.6 12.1 29 31 29
-17.2 -16.6 12.1 29 31 29
-16.7 -16.7 12.2 36 37 36
-16.4 -16.7 12.2 35 35 35
-16.1 -16.7 12.2 126 128 127
-15.9 -16.7 12.2 35 35 35
-15.6 -16.7 12.2 29 31 29
-15.3 -16.7 12.2 35 35 35
-15.0 -16.7 12.2 46 46 44
-14.7 -16.6 12.1 78 80 78
-14.4 -16.6 12.1 41 43 42
-14.2 -16.7 12.2 85 87 87
-13.8 -16.6 12.1 40 40 40
-13.5 -16.6 12.1 102 102 102
-15.7 -31.7 23.2 179 179 179
-14.5 -30.5 22.2 176 176 176
186.7 -148.9 108.7 211 211 211
166.3 -130.9 95.5 211 211 211
140.2 -108.9 79.5 211 211 211
302.7 -223.4 163.1 212 213 212
301.1 -214.2 156.3 211 211 211
34.7 -20.1 14.7 199 199 199
66.2 -24.6 17.9 154 154 154
66.3 -24.4 17.8 143 143 142
73.8 -26.6 19.4 131 134 133
-30.2 -16.7 12.4 206 206 206
-29.9 -16.7 12.4 149 149 149
-29.7 -16.7 12.4 107 109 109
-29.4 -16.7 12.4 67 69 67
-29.1 -16.7 12.4 67 67 67
-28.8 -16.7 12.4 44 44 44
-28.4 -16.6 12.3 29 30 28
-28.2 -16.6 12.3 73 73 73
-27.8 -16.6 12.3 88 90 89
-27.5 -16.6 12.3 86 87 85
-27.4 -16.7 12.4 78 80 78
-24.9 -16.6 12.3 58 59 59
-24.6 -16.6 12.3 62 62 62
-21.9 -16.7 12.4 164 167 166
-21.6 -16.7 12.4 177 180 179
-21.3 -16.7 12.4 180 180 180
-21.1 -16.7 12.4 182 185 184
-20.8 -16.7 12.4 190 190 190
-20.4 -16.7 12.4 202 202 202
-20.1 -16.6 12.3 211 211 211
-19.9 -16.7 12.4 212 213 212
-19.7 -16.7 12.4 213 215 215
-19.4 -16.7 12.4 204 204 204
-19.0 -16.6 12.4 6 7 7
-18.7 -16.6 12.3 74 74 74
-18.4 -16.6 12.4 33 33 31
-16.2 -15.3 11.4 106 106 104
-17.3 -16.7 12.4 122 122 122
-17.0 -16.7 12.4 41 41 41
-16.7 -16.6 12.3 36 37 36
-16.4 -16.7 12.4 126 129 128
-16.1 -16.7 12.4 38 38 38
-15.9 -16.7 12.4 38 38 38
-14.8 -16.4 12.2 110 110 110
-16.3 -33.5 24.9 181 181 181
-15.5 -33.0 24.5 163 163 163
196.9 -154.4 114.6 210 210 210
146.3 -111.7 83.0 211 211 211
417.3 -314.5 233.5 211 211 211
271.7 -202.2 150.1 211 211 211
249.5 -183.3 136.1 212 213 212
310.8 -225.5 167.4 212 213 212
370.4 -265.4 197.0 212 213 212
395.6 -280.0 207.9 212 213 212
322.5 -225.5 167.4 214 214 214
555.2 -374.7 278.2 214 214 214
34.7 -19.7 14.6 199 199 199
76.8 -27.5 20.4 134 136 135
76.0 -27.0 20.1 134 136 135
-19.5 -16.5 12.5 170 171 170
-19.1 -16.5 12.4 17 21 18
-17.1 -16.5 12.5 40 40 40
-17.5 -34.3 25.9 174 176 176
-16.8 -34.0 25.7 183 186 185
-17.0 -35.6 26.9 159 159 159
11.2 -13.3 10.0 211 211 211
11.9 -13.3 10.1 214 214 214
14.0 -13.3 10.1 209 209 209
14.2 -13.3 10.0 209 209 209
14.6 -13.4 10.1 209 209 209
14.7 -13.3 10.0 208 208 208
201.7 -155.5 117.5 210 210 210
193.6 -147.3 111.3 210 210 210
417.3 -309.1 233.5 211 211 211
287.7 -210.4 159.0 211 211 211
262.7 -189.7 143.3 211 211 211
316.4 -225.6 170.4 212 213 212
395.1 -278.2 210.2 212 213 212
395.6 -275.1 207.9 212 213 212
298.7 -205.2 155.1 212 213 212
224.9 -152.7 115.3 214 214 214
712.4 -472.4 356.9 217 217 217
77.9 -27.6 20.8 136 138 137
78.8 -27.7 20.9 136 138 137
-28.1 -15.2 11.7 98 98 98
-27.8 -15.2 11.7 48 48 48
-27.5 -15.2 11.7 34 34 34
-27.2 -15.2 11.7 25 25 25
-27.0 -15.2 11.7 17 21 18
-26.7 -15.2 11.7 23 23 23
-26.4 -15.2 11.7 17 17 17
-26.1 -15.2 11.7 25 25 25
-17.9 -34.3 26.4 153 155 155
-17.4 -34.5 26.6 89 89 89
-17.2 -35.5 27.3 89 91 90
-16.6 -35.6 27.4 56 56 56
11.0 -13.1 10.1 211 211 211
11.2 -13.0 10.0 211 211 211
11.7 -13.1 10.1 214 214 214
11.9 -13.0 10.0 214 214 214
12.4 -13.1 10.1 212 213 212
12.6 -13.1 10.1 210 210 210
12.8 -13.1 10.0 209 209 209
13.1 -13.1 10.1 209 209 209
14.0 -13.1 10.1 211 211 211
14.5 -13.1 10.1 208 208 208
14.6 -13.0 10.0 208 208 208
15.2 -13.1 10.1 210 210 210
15.4 -13.0 10.0 210 210 210
203.0 -153.7 118.2 216 216 216
198.3 -148.2 114.0 214 214 214
407.2 -296.4 227.9 211 211 211
287.7 -206.7 159.0 211 211 211
264.7 -187.8 144.4 211 211 211
316.4 -221.6 170.4 211 211 211
386.5 -267.4 205.6 212 213 212
387.1 -264.5 203.4 212 213 212
301.1 -203.3 156.3 212 213 212
227.6 -151.8 116.8 214 214 214
510.2 -332.4 255.6 214 214 214
378.2 -243.5 187.3 214 214 214
250.9 -159.7 122.8 215 215 215
78.5 -27.5 21.1 137 139 138
78.5 -27.3 21.0 136 136 136
79.1 -27.3 21.0 134 134 134
78.6 -27.0 20.8 134 134 134
-28.5 -15.2 11.9 29 30 28
-28.2 -15.2 11.9 53 52 52
-27.9 -15.1 11.9 29 30 28
-27.6 -15.1 11.9 25 25 25
-27.4 -15.2 11.9 23 23 23
-27.1 -15.2 11.9 27 27 27
-26.9 -15.2 11.9 159 159 159
-26.5 -15.2 11.9 181 184 183
-50.5 -36.9 28.9 53 53 53
-49.3 -36.5 28.6 57 56 55
-18.2 -34.3 26.8 144 146 146
-17.6 -34.3 26.9 89 89 89
-17.3 -35.0 27.4 88 90 89
-16.6 -34.9 27.3 55 55 55
11.0 -12.9 10.1 214 214 214
12.6 -12.9 10.1 209 209 209
13.1 -12.9 10.1 209 209 209
14.5 -12.9 10.1 208 208 208
203.0 -151.0 118.2 212 213 212
198.3 -145.5 114.0 212 213 212
397.6 -284.2 222.5 214 214 214
271.7 -191.7 150.1 211 211 211
264.7 -184.4 144.4 211 211 211
310.8 -213.8 167.4 211 211 211
332.3 -225.8 176.8 212 213 212
356.4 -239.2 187.3 216 216 216
316.8 -210.1 164.5 212 213 212
220.8 -144.7 113.3 212 213 212
341.0 -215.7 168.9 214 214 214
252.5 -157.9 123.6 215 215 215
349.7 -213.8 167.4 182 182 182
80.0 -27.5 21.5 131 133 132
79.2 -27.1 21.2 131 133 132
79.7 -27.1 21.2 131 133 132
79.4 -26.8 21.0 131 133 132
-81.2 -36.2 28.8 77 78 76
-80.6 -36.2 28.9 70 70 70
-80.0 -36.2 28.9 67 68 66
-79.3 -36.2 28.9 131 134 133
-78.5 -36.2 28.8 179 178 176
-77.8 -36.2 28.8 179 178 176
-77.2 -36.2 28.8 183 186 185
-76.6 -36.2 28.9 173 173 173
-75.8 -36.2 28.8 190 190 190
-75.2 -36.2 28.8 215 215 215
-74.6 -36.2 28.9 93 93 93
-74.0 -36.3 28.9 37 38 37
-73.1 -36.2 28.8 55 54 53
-72.7 -36.3 28.9 74 74 74
-71.9 -36.2 28.9 74 74 74
-71.1 -36.2 28.8 75 77 75
-28.0 -15.1 12.0 25 25 25
-50.4 -36.2 28.9 53 53 53
-49.5 -36.0 28.7 56 55 54
-48.9 -36.0 28.7 56 55 54
-48.3 -36.2 28.8 56 55 54
-47.7 -36.2 28.8 53 53 53
-47.0 -36.2 28.8 39 41 41
-46.3 -36.2 28.8 27 29 27
-45.7 -36.2 28.8 33 33 33
-45.3 -36.4 29.0 93 92 91
-44.4 -36.2 28.9 25 25 25
-43.4 -35.9 28.7 58 58 58
-18.1 -34.8 27.7 91 93 92
-17.9 -35.5 28.3 89 91 90
206.9 -151.1 120.5 212 213 212
271.2 -192.8 153.8 214 214 214
270.4 -189.7 151.3 214 214 214
248.1 -171.9 137.1 214 214 214
262.7 -179.7 143.3 215 215 215
295.1 -199.3 159.0 215 215 215
301.3 -201.0 160.3 215 215 215
310.3 -204.5 163.1 215 215 215
284.7 -185.3 147.8 216 216 216
226.2 -145.5 116.1 216 216 216
335.1 -208.1 165.9 217 217 217
261.1 -160.3 127.8 217 217 217
317.7 -192.8 153.8 215 215 215
308.7 -185.3 147.8 180 180 180
296.0 -175.7 140.1 194 194 194
318.1 -186.8 148.9 196 196 196
80.6 -27.0 21.5 122 122 122
80.8 -26.9 21.5 125 125 125
80.8 -26.8 21.4 125 125 125
81.8 -26.9 21.5 129 129 129
-26.4 -13.7 11.1 32 31 30
-26.1 -13.7 11.1 25 25 25
-25.9 -13.7 11.1 23 23 23
-25.6 -13.7 11.1 16 20 17
-25.4 -13.7 11.1 25 25 25
-25.1 -13.7 11.1 143 143 142
-24.9 -13.7 11.1 152 152 152
-24.6 -13.7 11.1 181 184 183
-24.3 -13.7 11.1 146 148 148
-49.4 -35.3 28.7 53 52 52
-18.3 -34.5 28.0 95 95 95
-17.5 -34.1 27.7 92 92 92
199.3 -142.8 116.1 216 216 216
190.3 -134.6 109.3 212 213 212
249.5 -167.5 136.1 214 214 214
278.7 -184.8 150.1 215 215 215
267.4 -175.0 142.2 215 215 215
266.7 -172.4 140.1 215 215 215
267.9 -171.2 139.1 216 216 216
210.7 -133.0 108.1 216 216 216
195.4 -121.9 99.0 216 216 216
310.5 -189.3 153.8 217 217 217
249.3 -150.2 122.0 217 217 217
305.3 -181.9 147.8 218 218 218
286.3 -168.7 137.1 176 176 176
273.7 -159.4 129.6 196 196 196
272.9 -157.3 127.8 196 196 196
285.6 -162.8 132.3 198 198 198
51.7 -17.6 14.3 112 112 112
51.6 -17.4 14.1 112 112 112
81.6 -26.9 21.8 112 112 112
81.2 -26.5 21.6 114 116 115
81.6 -26.5 21.5 120 120 120
82.6 -26.7 21.7 133 133 133
-25.7 -13.5 11.2 16 20 17
-18.9 -34.8 28.8 93 93 93
-18.1 -34.6 28.7 95 95 95
186.7 -131.3 108.7 215 215 215
182.9 -126.9 105.1 216 216 216
189.9 -128.3 106.3 214 214 214
183.1 -122.1 101.2 210 210 210
264.7 -174.3 144.4 210 210 210
302.7 -196.9 163.1 215 215 215
277.8 -178.4 147.8 215 215 215
264.7 -167.9 139.1 218 218 218
202.6 -125.5 103.9 218 218 218
182.0 -111.4 92.3 219 219 219
227.3 -134.3 111.3 220 220 220
202.5 -118.3 98.0 215 215 215
318.7 -184.2 152.6 185 185 185
251.3 -143.6 119.0 196 196 196
233.5 -132.0 109.3 198 198 198
232.0 -129.8 107.5 198 198 198
52.1 -17.5 14.5 105 105 105
51.8 -17.3 14.3 106 108 108
51.8 -17.2 14.2 106 108 108
81.7 -26.4 21.8 106 108 108
81.0 -26.0 21.5 105 105 105
81.6 -26.0 21.5 88 90 89
83.0 -26.3 21.8 152 152 152
-27.6 -14.2 12.0 19 23 20
-27.3 -14.2 12.0 23 23 23
-19.9 -14.3 12.0 51 51 51
-19.6 -14.2 12.0 38 40 40
-19.2 -14.2 11.9 34 34 34
-18.6 -14.3 12.1 34 34 34
-18.3 -14.3 12.1 57 57 57
-17.8 -14.2 11.9 89 89 89
185.6 -128.0 108.1 215 215 215
688.6 -439.2 370.9 217 217 217
564.4 -355.6 300.3 218 218 218
198.3 -120.4 101.7 218 218 218
415.2 -243.5 205.6 219 219 219
196.3 -107.7 90.9 198 198 198
52.3 -17.2 14.5 103 103 103
52.2 -17.1 14.4 106 106 106
52.0 -16.9 14.3 106 106 106
52.7 -17.0 14.4 106 106 106
53.0 -17.0 14.4 103 103 103
-33.6 -13.8 11.9 137 137 137
-33.4 -13.9 11.9 75 77 75
-33.1 -13.9 12.0 61 63 61
-28.9 -13.9 11.9 103 103 103
-28.6 -13.9 11.9 96 96 96
-28.3 -13.9 11.9 103 102 100
-28.0 -13.8 11.9 99 99 99
-27.8 -13.8 11.9 69 69 69
-27.5 -13.9 11.9 14 14 14
-27.2 -13.8 11.9 32 31 30
-26.9 -13.9 11.9 105 107 107
-26.6 -13.8 11.9 147 149 149
-26.3 -13.8 11.9 164 167 166
-26.1 -13.9 11.9 132 132 132
-25.8 -13.9 11.9 172 172 172
-25.6 -13.9 11.9 126 128 127
-20.3 -13.9 12.0 57 57 57
-20.0 -13.9 11.9 57 57 57
-19.8 -13.9 12.0 57 57 57
-19.5 -13.9 12.0 39 41 41
-19.2 -13.9 11.9 27 28 26
-18.9 -13.9 11.9 24 24 24
-18.7 -13.9 12.0 47 47 47
-18.5 -13.9 12.0 59 59 59
148.3 -97.6 84.1 216 216 216
178.3 -95.9 82.6 198 198 198
52.5 -16.8 14.5 99 101 101
52.3 -16.7 14.4 99 101 101
53.0 -16.8 14.5 98 98 98
53.7 -16.9 14.5 89 91 90
54.1 -16.9 14.6 70 70 70
-27.8 -13.5 11.8 38 40 40
-27.5 -13.5 11.8 144 146 146
-27.3 -13.5 11.8 144 146 146
-27.0 -13.5 11.8 128 128 128
-26.8 -13.5 11.9 131 131 131
-26.4 -13.5 11.8 179 179 179
-26.1 -13.4 11.8 162 162 162
-25.9 -13.5 11.9 189 189 189
-25.7 -13.5 11.9 183 186 185
-20.1 -13.4 11.8 62 64 61
-19.7 -13.6 11.9 58 58 58
-19.5 -13.6 11.9 169 169 169
-19.1 -13.5 11.9 225 225 225
-8.6 -11.7 10.3 45 45 45
183.6 -97.8 86.0 198 198 198
167.4 -88.2 77.5 198 198 198
149.0 -77.7 68.3 198 198 198
53.5 -16.6 14.6 82 82 82
54.2 -16.7 14.7 70 70 70
54.7 -16.7 14.7 68 68 68
-19.6 -13.4 12.0 229 229 229
-19.2 -13.3 12.0 230 230 230
-20.8 -14.7 13.2 231 231 231
-8.9 -11.6 10.4 34 36 36
-8.6 -11.4 10.2 48 48 48
142.8 -72.9 65.5 202 202 202
127.6 -64.5 57.8 199 199 199
52.0 -15.9 14.3 89 89 89
53.5 -16.2 14.6 75 75 75
54.4 -16.4 14.7 73 73 73
54.8 -16.4 14.8 73 73 73
-19.6 -13.1 12.0 231 231 231
-20.7 -14.3 13.1 235 235 235
-9.0 -11.3 10.4 38 38 36
-8.6 -11.1 10.2 51 52 50
128.7 -63.7 58.4 199 199 199
51.9 -15.5 14.2 102 104 104
52.9 -15.7 14.4 83 83 83
54.1 -16.0 14.6 76 78 77
54.7 -16.1 14.7 75 75 75
54.0 -15.7 14.4 76 78 77
53.6 -15.6 14.3 76 78 77
-20.6 -13.9 13.0 240 240 240
-20.1 -13.8 12.9 238 238 238
-8.6 -10.9 10.2 53 53 53
-35.6 -65.2 61.0 14 14 14
-33.7 -64.1 60.1 30 30 30
141.8 -69.4 65.0 200 200 200
52.7 -15.3 14.4 89 89 89
53.8 -15.6 14.6 77 79 78
53.8 -15.4 14.4 77 79 78
-8.5 -10.6 10.1 49 49 49
-9.2 -12.1 11.6 203 203 203
-36.2 -64.8 62.0 20 20 20
-35.0 -65.2 62.4 20 20 20
26.2 -17.1 16.4 216 219 218
144.7 -75.7 72.5 220 223 222
140.4 -67.2 64.3 200 200 200
52.6 -15.0 14.3 91 93 92
-8.5 -10.4 10.2 42 43 42
-9.2 -11.8 11.6 202 202 202
-36.5 -63.8 62.4 30 30 30
-35.6 -64.8 63.5 30 30 30
-33.4 -63.6 62.2 111 113 112
14.8 -10.5 10.3 216 219 218
286.9 -152.1 148.9 218 218 218
145.8 -74.6 73.0 219 222 221
52.7 -14.7 14.4 91 93 92
54.1 -15.0 14.7 79 82 81
-8.6 -10.2 10.2 50 50 50
-9.2 -11.6 11.6 202 202 202
-36.9 -63.2 63.3 48 48 48
-36.7 -65.3 65.5 18 18 18
-34.8 -64.7 64.8 166 166 166
14.7 -10.2 10.2 216 219 218
25.3 -15.8 15.8 219 222 221
25.6 -15.7 15.8 219 222 221
146.9 -73.5 73.6 219 222 221
198.0 -92.6 92.7 198 198 198
-9.0 -10.1 10.4 42 43 42
-8.6 -10.0 10.3 47 47 47
-9.3 -11.4 11.7 200 200 200
-40.3 -64.7 66.4 115 117 116
-38.4 -64.0 65.7 44 45 43
-37.6 -65.4 67.1 23 23 22
-37.4 -67.8 69.5 159 159 159
25.1 -15.3 15.7 219 222 221
25.6 -15.3 15.7 219 222 221
25.9 -15.3 15.7 219 222 221
147.5 -72.0 73.9 223 225 225
193.3 -88.2 90.5 198 198 198
157.7 -71.2 73.0 198 198 198
-8.6 -9.8 10.3 47 47 47
-9.2 -11.0 11.6 200 200 200
-8.8 -10.9 11.5 198 198 198
-40.9 -66.7 70.1 30 29 29
-39.4 -66.9 70.3 21 21 21
25.6 -15.4 16.2 219 222 221
25.3 -15.1 15.8 219 222 221
25.7 -15.0 15.8 219 222 221
26.3 -15.2 16.0 219 222 221
175.2 -84.5 88.8 223 225 225
154.1 -73.5 77.2 223 225 225
125.6 -59.2 62.2 223 225 225
155.3 -68.5 71.9 198 198 198
142.3 -62.1 65.2 200 200 200
177.9 -76.0 79.8 199 199 199
25.7 -15.2 16.3 219 222 221
26.0 -14.9 16.0 219 222 221
125.6 -57.8 62.2 223 225 225
177.1 -73.8 79.5 198 198 198
224.5 -64.6 69.5 55 55 55
-13.0 -12.9 14.3 36 39 38
-12.6 -12.9 14.2 36 39 38
-81.3 -137.0 151.3 168 170 169
237.0 -356.7 394.1 224 226 226
25.8 -14.8 16.4 219 222 221
176.9 -81.2 89.7 223 225 225
147.5 -66.9 73.9 223 225 225
149.5 -62.0 68.5 200 200 200
179.4 -72.9 80.5 198 198 198
228.7 -64.1 70.8 58 59 59
-9.7 -9.1 10.4 37 40 39
-9.5 -9.5 10.8 41 40 38
-9.0 -9.2 10.4 44 44 44
-8.6 -9.1 10.3 36 38 37
-107.0 -175.6 199.1 178 178 178
-118.6 -203.5 230.7 180 183 182
227.5 -333.7 378.3 224 226 226
25.9 -14.5 16.4 219 222 221
147.5 -65.2 73.9 223 225 225
144.8 -58.5 66.4 200 200 200
178.3 -71.3 80.8 198 198 198
182.5 -72.2 81.9 198 198 198
-10.1 -9.0 10.5 38 40 40
-9.7 -8.9 10.4 37 40 39
-9.4 -9.1 10.6 41 40 38
-9.0 -8.9 10.4 47 47 47
-8.6 -8.8 10.2 46 46 46
-143.2 -228.8 266.4 175 175 175
-139.0 -232.1 270.2 179 182 181
25.9 -14.1 16.4 219 222 221
144.1 -62.0 72.2 223 225 225
123.6 -52.6 61.2 223 225 225
182.8 -73.5 85.6 195 195 195
150.7 -59.9 69.8 198 198 198
143.3 -56.4 65.7 198 198 198
-10.0 -8.7 10.5 37 38 37
-9.7 -8.7 10.4 37 40 39
-12.5 -11.8 14.1 41 41 39
-9.0 -8.7 10.4 47 47 47
-8.6 -8.5 10.2 47 48 47
-145.4 -208.0 248.9 32 34 33
-132.6 -197.6 236.5 23 23 22
-139.3 -216.5 259.1 177 177 177
-137.0 -222.6 266.4 179 182 181
-113.3 -192.7 230.7 180 183 182
13.4 -8.6 10.3 220 223 222
13.4 -8.4 10.1 220 223 222
16.0 -8.6 10.3 219 222 221
25.9 -13.7 16.4 219 222 221
144.7 -60.6 72.5 223 225 225
122.8 -50.8 60.8 223 225 225
187.0 -73.2 87.6 195 195 195
151.2 -58.5 70.1 198 198 198
145.8 -55.8 66.8 198 198 198
224.0 -79.0 94.6 205 205 205
210.4 -73.5 88.0 207 207 207
166.1 -57.5 68.8 198 198 198
-12.5 -11.5 14.1 41 41 39
-8.6 -8.3 10.3 41 40 38
-189.4 -274.4 337.8 28 28 28
-154.1 -232.8 286.6 165 168 167
-145.2 -229.3 282.3 178 181 180
237.0 -320.1 394.1 224 226 226
13.4 -8.4 10.3 220 223 222
173.6 -71.5 88.0 223 225 225
146.3 -59.6 73.3 223 225 225
185.3 -70.5 86.8 191 191 191
155.3 -58.4 71.9 198 198 198
150.1 -55.9 68.8 198 198 198
164.2 -60.5 74.5 198 198 198
173.8 -62.7 77.2 198 198 198
167.4 -59.8 73.6 199 199 199
169.8 -60.0 73.9 199 199 199
172.9 -60.5 74.5 202 202 202
199.3 -67.7 83.3 207 207 207
174.3 -58.6 72.2 203 203 203
-8.7 -8.1 10.3 47 48 47
-9.2 -9.2 11.7 196 196 196
-202.7 -310.9 394.1 177 180 179
223.1 -292.6 370.9 228 227 225
13.3 -8.1 10.3 220 223 222
145.2 -57.4 72.8 223 225 225
155.3 -56.7 71.9 198 198 198
151.7 -54.9 69.5 198 198 198
158.6 -56.7 71.9 198 198 198
162.1 -57.4 72.8 198 198 198
165.1 -57.8 73.3 198 198 198
164.2 -57.0 72.2 199 199 199
165.3 -56.7 71.9 199 199 199
167.6 -57.0 72.2 202 202 202
172.6 -58.1 73.6 202 202 202
180.2 -59.5 75.4 207 207 207
171.1 -55.9 70.8 203 203 203
-8.7 -7.9 10.3 44 44 44
-8.6 -8.1 10.6 200 202 202
-9.2 -8.9 11.6 196 199 198
144.1 -55.3 72.2 223 225 225
152.9 -54.3 70.8 198 198 198
151.7 -53.3 69.5 198 198 198
156.8 -54.5 71.1 198 198 198
161.5 -55.5 72.5 198 198 198
163.2 -55.5 72.5 198 198 198
160.6 -54.1 70.6 199 199 199
162.2 -54.1 70.6 199 199 199
165.1 -54.5 71.1 202 202 202
239.7 -78.3 102.3 202 202 202
234.5 -75.8 99.0 203 203 203
169.8 -53.8 70.3 203 203 203
167.7 -52.7 68.8 225 227 227
-8.6 -7.6 10.2 51 50 48
-8.2 -7.5 10.1 198 201 200
237.0 -292.6 394.1 223 225 225
203.7 -77.6 104.5 222 224 224
189.4 -71.3 96.0 222 224 224
151.6 -56.4 76.0 223 225 225
218.4 -74.3 100.1 195 195 195
221.9 -74.7 100.6 198 198 198
240.0 -76.8 103.4 199 199 199
247.8 -78.5 105.7 202 202 202
243.4 -76.3 102.8 205 205 205
222.8 -69.2 93.2 209 209 209
171.7 -52.8 71.1 203 203 203
-8.2 -7.2 10.0 198 201 200
237.0 -283.5 394.1 223 225 225
148.1 -53.4 74.2 223 225 225
227.9 -74.4 103.4 198 198 198
245.3 -76.0 105.7 199 199 199
252.0 -77.3 107.5 202 202 202
250.2 -76.0 105.7 205 205 205
232.0 -69.8 97.0 207 207 207
181.2 -54.0 75.1 200 200 200
234.3 -74.0 106.3 195 195 195
619.9 -193.6 278.2 196 196 196
253.1 -74.4 106.9 207 207 207
-630.8 -190.0 282.3 61 60 59
-497.9 -151.5 225.2 58 58 58
-435.6 -135.4 201.2 64 64 64
-405.1 -127.3 189.2 64 64 64
476.1 -153.3 227.9 180 180 180
533.6 -161.1 239.4 196 196 196
152.1 -45.0 66.8 198 198 198
340.4 -98.7 146.6 199 199 199
333.5 -95.7 142.2 202 202 202
311.1 -88.4 131.4 207 207 207
535.1 -146.3 217.4 234 234 234
-173.5 -51.0 78.5 30 29 29
-215.5 -65.4 100.6 36 36 36
254.5 -78.3 120.5 123 123 123
152.4 -45.8 70.6 178 178 178
619.9 -180.7 278.2 198 198 198
157.1 -44.8 69.0 199 199 199
276.5 -75.8 116.8 205 205 205
169.8 -45.7 70.3 203 203 203
465.5 -122.9 189.2 234 234 234
133.3 -23.0 35.4 84 86 86
-193.6 -57.2 91.4 25 25 25
30.1 -10.6 16.9 223 225 225
30.6 -10.6 16.9 223 225 225
252.9 -75.0 119.7 123 123 123
160.8 -46.6 74.5 174 176 176
638.7 -179.5 286.6 196 196 196
175.3 -48.8 77.8 196 196 196
171.5 -46.3 73.9 199 199 199
273.1 -72.2 115.3 205 205 205
174.3 -45.2 72.2 200 200 200
598.8 -153.9 245.7 225 227 227
495.2 -126.0 201.2 238 238 238
132.0 -22.0 35.1 84 86 86
25.0 -9.4 15.6 223 225 225
25.6 -9.5 15.8 223 225 225
28.3 -10.4 17.2 223 225 225
26.6 -9.3 15.5 223 225 225
27.1 -9.4 15.6 223 225 225
30.2 -10.3 17.1 223 225 225
30.5 -10.3 17.1 223 225 225
30.9 -10.3 17.1 223 225 225
249.7 -71.3 118.2 111 111 111
214.9 -60.7 100.6 162 162 162
167.4 -46.8 77.5 175 177 177
233.0 -63.7 105.7 194 194 194
181.2 -48.5 80.5 196 196 196
184.2 -48.3 80.2 199 199 199
254.5 -64.8 107.5 203 203 203
233.2 -58.8 97.5 207 207 207
184.2 -46.0 76.3 203 203 203
554.2 -135.8 225.2 235 235 235
131.6 -21.1 35.0 85 87 87
225.2 -35.9 59.5 91 91 91
25.3 -9.2 15.8 223 225 225
28.7 -10.0 17.2 223 225 225
30.5 -10.0 17.3 223 225 225
30.3 -9.8 17.0 224 226 226
30.8 -9.9 17.0 224 226 226
249.7 -68.6 118.2 90 90 90
196.1 -53.2 91.8 145 147 147
233.0 -61.3 105.7 192 192 192
194.5 -50.1 86.4 197 197 197
197.4 -50.3 86.8 197 197 197
198.5 -50.1 86.4 200 200 200
254.9 -63.0 108.7 203 203 203
254.5 -62.3 107.5 203 203 203
217.5 -52.7 90.9 206 206 206
129.9 -20.0 34.5 90 90 90
29.0 -9.8 17.6 224 226 226
30.8 -9.7 17.5 224 226 226
249.7 -65.8 118.2 68 71 70
238.4 -60.2 108.1 192 192 192
269.4 -64.6 116.1 200 200 200
265.6 -63.0 113.3 203 203 203
263.5 -61.9 111.3 206 206 206
219.6 -51.1 91.8 206 206 206
127.1 -18.8 33.8 82 84 84
251.3 -63.5 119.0 122 122 122
223.2 -55.7 104.5 144 144 144
269.4 -61.9 116.1 200 200 200
262.4 -59.7 111.9 200 200 200
265.0 -59.7 111.9 204 204 204
222.8 -49.7 93.2 208 208 208
251.3 -60.7 119.0 70 72 72
219.5 -52.4 102.8 143 145 144
237.0 -54.8 107.5 191 191 191
264.5 -58.1 114.0 198 198 198
250.6 -54.5 106.9 202 202 202
254.5 -54.8 107.5 206 206 206
232.0 -49.5 97.0 208 208 208
257.8 -59.4 122.0 67 67 67
155.3 -35.0 71.9 173 175 175
151.2 -33.7 69.3 182 182 182
139.5 -18.2 37.3 83 85 85
-10.4 -4.2 10.2 36 37 36
23.3 -3.7 12.3 226 226 226
23.6 -3.7 12.2 226 226 226
23.2 -3.4 12.3 226 226 226
23.4 -3.4 12.3 226 226 226
23.8 -3.4 12.3 226 226 226
314.1 -8.2 119.7 63 63 63
487.0 -4.1 187.3 56 55 54
495.9 0.3 222.5 163 166 165
576.4 0.3 236.5 210 210 210
541.3 0.3 220.0 182 182 182
594.5 0.3 230.7 53 52 52
464.0 0.2 178.5 52 52 52
435.3 0.2 165.9 57 56 55
21.0 0.3 10.7 226 226 226
21.3 0.3 10.7 226 226 226
21.4 0.3 10.6 222 224 224
951.5 9.7 394.1 208 208 208
878.3 8.7 356.9 137 139 138
840.5 8.0 326.1 48 48 48
90.0 0.6 24.1 88 88 88
86.0 0.6 22.8 85 85 85
84.0 0.5 22.2 88 88 88
20.8 0.5 10.9 223 225 225
20.9 0.5 10.9 223 225 225
21.0 0.5 10.8 223 225 225
21.2 0.5 10.8 223 225 225
21.5 0.5 10.8 223 225 225
1015.6 18.8 394.1 46 45 43
1281.2 18.8 394.1 227 227 227
88.5 1.1 23.7 88 88 88
83.2 1.0 22.0 91 94 93
20.8 0.8 11.1 224 226 226
21.0 0.8 11.0 224 226 226
21.3 0.8 11.0 223 225 225
87.2 1.7 23.3 87 87 87
84.3 1.6 22.4 90 90 90
82.8 1.6 21.9 90 90 90
20.9 1.0 11.1 224 226 226
21.1 1.0 11.1 224 226 226
21.3 1.0 11.0 228 228 228
21.5 1.0 11.0 224 226 226
86.5 2.2 23.1 91 91 91
83.6 2.1 22.2 92 95 94
82.9 2.1 21.9 92 95 94
82.2 2.0 21.6 168 168 168
20.9 1.3 11.1 225 227 227
21.1 1.3 11.1 223 225 225
21.3 1.3 11.0 225 227 227
86.5 2.7 23.1 90 90 90
84.1 2.6 22.4 93 96 95
83.3 2.6 22.0 95 98 97
84.3 2.6 22.1 159 159 159
21.0 1.6 11.2 226 229 228
21.1 1.6 11.1 224 226 226
86.8 3.3 23.2 89 89 89
85.3 3.2 22.7 94 97 96
85.7 3.2 22.6 90 90 90
86.6 3.2 22.7 135 135 135
316.1 19.8 120.5 64 64 64
87.3 3.8 23.4 89 89 89
85.9 3.7 22.8 93 93 93
90.0 3.9 23.6 108 108 108
21.1 2.1 11.1 225 227 227
322.3 23.0 122.8 154 156 156
88.7 4.4 23.7 87 87 87
21.3 2.3 11.0 226 229 228
-120.0 41.2 73.6 124 124 124
-113.8 39.6 70.8 124 124 124
-57.5 40.5 72.5 145 145 144
-46.8 34.0 60.8 137 137 137
-140.2 49.4 84.8 129 132 131
-131.2 46.9 80.5 131 134 133
-129.9 47.1 80.8 129 132 131
-62.0 45.5 78.2 144 144 144
-151.0 99.5 129.6 32 31 30
-167.9 115.3 150.1 13 13 13
-147.0 103.1 134.2 11 16 13
-156.0 111.8 145.5 21 24 22
-136.8 100.2 130.5 48 48 48
-123.6 92.6 120.5 151 151 151
-136.5 115.3 150.1 190 192 192
-108.2 93.8 122.0 172 172 172
85.0 104.6 136.1 90 92 91
88.8 105.3 137.1 90 92 91
-205.4 145.4 183.7 13 13 13
-184.4 136.1 172.0 31 31 31
-172.5 130.2 164.5 94 97 96
-153.6 133.7 168.9 189 189 189
-130.0 116.1 146.6 172 172 172
96.1 121.7 153.8 93 96 95
103.9 126.9 160.3 91 94 93
126.9 149.7 189.2 89 91 89
-462.4 192.7 236.5 126 126 126
-457.1 195.1 239.4 123 123 123
-457.3 197.6 242.5 120 120 120
-463.6 202.8 248.9 120 120 120
-434.6 202.8 248.9 87 86 84
-253.5 192.7 236.5 47 47 47
-252.0 220.2 270.2 193 196 195
-204.8 183.5 225.2 190 192 192
127.7 160.5 197.0 95 98 97
158.7 192.7 236.5 92 95 94
172.8 202.8 248.9 33 34 32
-567.1 240.2 286.6 121 121 121
-578.0 247.7 295.6 121 121 121
-547.1 240.2 286.6 121 121 121
-563.1 259.9 310.1 99 99 99
-534.3 259.9 310.1 92 92 92
-527.1 259.9 310.1 106 108 108
-341.3 255.7 305.1 11 11 11
-316.9 247.7 295.6 74 74 74
-315.1 283.1 337.8 194 197 196
-249.3 229.7 274.1 186 186 186
197.7 255.7 305.1 102 102 102
208.1 259.9 310.1 93 95 93
215.3 259.9 310.1 44 44 44
212.1 247.7 295.6 28 28 28
-109.2 100.0 78.2 139 139 139
-107.0 99.6 77.8 141 143 142
-102.6 97.2 76.0 139 139 139
-102.0 100.0 78.2 140 142 141
-113.3 100.6 77.2 142 144 143
-107.4 101.8 78.2 147 147 147
-101.8 98.2 75.4 152 152 152
-99.7 101.4 77.8 142 144 143
-97.1 100.6 77.2 146 146 146
-95.3 100.6 77.2 136 136 136
-93.5 100.6 77.2 182 185 184
-91.8 100.6 77.2 188 188 188
-90.0 100.6 77.2 34 36 34
-101.0 99.2 74.8 91 90 89
