ply
format ascii 1.0
element vertex 2982
property float x
property float y
property float z
property uchar red
property uchar green
property uchar blue
end_header
52.7 -75.9 30.3 156 159 158
52.7 -75.0 29.9 156 159 158
53.2 -74.7 29.8 157 160 159
54.7 -75.8 30.2 157 160 159
55.4 -75.8 30.2 158 161 160
70.3 -51.0 20.3 97 100 99
70.7 -50.9 20.3 94 97 96
70.3 -50.3 20.0 94 94 94
70.8 -50.3 20.1 91 91 91
71.2 -50.3 20.0 91 91 91
71.9 -50.4 20.1 91 91 91
72.4 -50.4 20.1 94 94 94
72.6 -50.3 20.0 138 138 138
73.1 -50.3 20.1 175 175 175
73.5 -50.3 20.0 195 198 197
192.6 -382.3 153.8 162 162 162
53.5 -75.4 30.3 156 159 158
53.8 -74.9 30.1 157 160 159
70.8 -50.5 20.3 94 97 96
72.7 -50.5 20.3 91 91 91
73.7 -50.2 20.2 161 164 163
140.8 -287.5 116.8 164 164 164
134.4 -269.3 109.3 162 162 162
133.1 -261.7 106.3 162 162 162
104.9 -202.5 82.2 162 162 162
84.6 -138.2 56.1 164 164 164
78.3 -125.9 51.1 164 164 164
79.0 -125.2 50.9 161 161 161
89.8 -134.2 54.5 163 163 163
87.3 -128.7 52.3 163 163 163
54.0 -75.4 30.6 164 164 164
54.2 -74.7 30.3 160 163 162
55.9 -76.1 30.9 157 160 159
57.9 -77.8 31.6 158 161 160
57.8 -76.6 31.1 158 161 160
121.0 -91.0 36.9 104 104 104
92.6 -67.7 27.5 104 104 104
71.8 -51.1 20.7 97 100 99
61.8 -40.7 16.5 161 164 163
60.9 -39.9 16.2 164 167 166
49.0 -112.0 45.9 164 164 164
104.8 -204.2 83.7 162 162 162
100.5 -192.3 78.8 165 165 165
77.9 -126.1 51.7 164 164 164
71.7 -114.2 46.8 166 166 166
67.4 -105.8 43.4 164 164 164
79.0 -115.4 47.3 166 166 166
73.8 -106.3 43.6 163 163 163
54.3 -74.1 30.4 160 163 162
55.4 -74.7 30.6 160 163 162
57.0 -75.9 31.1 161 164 163
57.5 -75.5 31.0 158 161 160
120.0 -89.4 36.7 104 104 104
108.5 -80.2 32.9 104 104 104
90.6 -65.6 26.9 102 101 99
69.9 -49.3 20.2 97 100 99
58.6 -39.0 16.0 195 198 197
58.4 -38.5 15.8 195 198 197
62.7 -41.2 16.9 195 198 197
61.1 -39.9 16.3 211 211 211
60.4 -39.1 16.0 211 211 211
60.1 -38.7 15.9 204 204 204
60.0 -38.5 15.8 198 201 200
59.9 -38.1 15.6 217 217 217
18.5 -96.8 40.1 160 160 160
21.4 -101.8 42.1 165 165 165
21.5 -97.7 40.4 162 162 162
22.4 -97.4 40.3 162 162 162
23.4 -97.7 40.4 164 164 164
24.3 -97.7 40.4 165 168 167
25.2 -97.7 40.4 165 168 167
26.2 -97.7 40.4 165 168 167
27.1 -97.7 40.4 165 168 167
28.1 -97.7 40.4 166 169 168
29.0 -97.7 40.4 166 169 168
29.9 -97.4 40.3 166 169 168
30.9 -97.7 40.4 166 169 168
31.9 -97.9 40.5 166 169 168
32.8 -97.9 40.5 166 169 168
33.8 -97.9 40.5 166 169 168
34.7 -97.9 40.5 165 165 165
35.6 -97.7 40.4 166 166 166
36.5 -97.7 40.4 166 166 166
37.4 -97.4 40.3 166 166 166
38.2 -97.0 40.2 166 166 166
39.3 -97.7 40.4 166 166 166
41.6 -98.5 40.8 163 163 163
42.2 -97.9 40.5 163 163 163
43.1 -97.7 40.4 164 164 164
43.8 -97.0 40.2 164 164 164
44.7 -97.0 40.2 164 164 164
45.6 -97.0 40.2 164 164 164
46.7 -97.2 40.2 167 167 167
47.6 -97.2 40.2 167 167 167
49.9 -98.1 40.6 167 167 167
50.7 -97.9 40.5 164 164 164
52.0 -98.5 40.8 165 165 165
52.9 -98.5 40.8 168 168 168
52.4 -95.8 39.7 168 168 168
60.0 -99.1 41.0 166 166 166
60.4 -98.3 40.7 166 166 166
61.1 -97.9 40.5 166 166 166
64.1 -101.1 41.9 169 169 169
63.5 -98.7 40.9 166 166 166
132.6 -203.1 84.1 167 167 167
134.0 -202.2 83.7 167 167 167
128.0 -190.4 78.8 170 171 170
68.4 -96.2 39.8 167 167 167
55.1 -74.6 30.9 165 165 165
57.4 -76.6 31.7 165 165 165
58.6 -77.2 32.0 166 166 166
76.0 -98.9 40.9 161 164 163
76.0 -97.7 40.4 158 161 160
114.9 -84.8 35.1 104 104 104
86.7 -62.2 25.7 102 101 99
68.6 -47.9 19.8 94 97 96
65.7 -45.6 18.9 94 97 96
65.0 -44.8 18.5 94 94 94
57.4 -37.5 15.5 192 192 192
54.7 -35.6 14.7 181 184 183
60.0 -38.8 16.1 172 172 172
58.7 -37.7 15.6 206 206 206
57.7 -36.8 15.2 186 186 186
56.8 -36.0 14.9 217 217 217
57.2 -36.0 14.9 214 214 214
17.1 -93.5 39.1 163 163 163
17.8 -92.2 38.5 163 163 163
18.6 -91.8 38.4 165 165 165
19.6 -92.4 38.6 165 165 165
20.6 -92.8 38.8 165 165 165
21.4 -92.4 38.6 165 165 165
22.3 -92.4 38.6 165 168 167
24.1 -92.4 38.6 165 168 167
25.0 -92.4 38.6 168 170 169
25.9 -92.4 38.6 168 170 169
26.8 -92.4 38.6 166 169 168
27.7 -92.4 38.6 166 169 168
28.6 -92.4 38.6 166 169 168
29.5 -92.4 38.6 166 169 168
30.4 -92.4 38.6 166 169 168
31.3 -92.4 38.6 166 169 168
32.2 -92.4 38.6 165 165 165
33.1 -92.4 38.6 165 165 165
33.9 -92.2 38.5 166 166 166
34.9 -92.4 38.6 166 166 166
35.7 -92.2 38.5 166 166 166
36.5 -92.0 38.4 166 166 166
37.6 -92.6 38.7 166 166 166
38.5 -92.6 38.7 166 166 166
39.8 -93.3 39.0 166 166 166
40.3 -92.4 38.6 166 166 166
41.2 -92.4 38.6 166 166 166
42.3 -92.9 38.8 167 167 167
42.9 -92.2 38.5 167 167 167
43.7 -92.0 38.4 167 167 167
44.7 -92.2 38.5 167 167 167
45.6 -92.2 38.5 167 167 167
46.4 -92.0 38.4 167 167 167
47.4 -92.4 38.6 167 167 167
48.3 -92.4 38.6 169 171 170
49.8 -93.5 39.1 170 172 172
51.0 -93.9 39.2 170 172 172
50.3 -91.1 38.1 170 172 172
51.8 -92.2 38.5 170 172 172
53.5 -93.5 39.1 170 172 172
57.6 -94.3 39.4 171 173 173
58.1 -93.7 39.2 171 173 173
58.9 -93.5 39.1 171 173 173
60.8 -95.1 39.7 171 173 173
61.6 -94.9 39.7 171 173 173
131.5 -199.4 83.3 170 171 170
133.4 -199.4 83.3 170 171 170
128.5 -189.4 79.1 170 171 170
120.3 -174.8 73.0 168 168 168
55.4 -74.2 31.0 168 168 168
82.6 -107.8 45.0 168 168 168
86.7 -109.1 45.6 167 167 167
112.4 -82.1 34.3 104 104 104
106.4 -77.2 32.3 104 104 104
84.8 -60.3 25.2 102 101 99
67.1 -46.4 19.4 94 97 96
65.0 -44.6 18.7 94 94 94
63.2 -43.1 18.0 94 94 94
53.4 -34.4 14.4 177 177 177
54.8 -34.4 14.4 217 217 217
55.2 -34.5 14.4 217 217 217
16.3 -88.1 37.2 163 163 163
17.0 -87.4 36.9 163 163 163
17.8 -87.0 36.7 165 165 165
18.6 -86.5 36.5 166 169 168
19.5 -86.9 36.7 166 169 168
20.4 -87.0 36.7 169 171 170
21.3 -87.2 36.8 168 170 169
22.1 -87.2 36.8 165 168 167
23.0 -87.2 36.8 165 168 167
23.9 -87.4 36.9 165 168 167
24.7 -87.4 36.9 165 168 167
25.6 -87.2 36.8 166 169 168
26.4 -87.2 36.8 166 169 168
27.3 -87.2 36.8 166 169 168
28.1 -87.2 36.8 166 169 168
28.9 -87.0 36.7 165 165 165
29.8 -87.0 36.7 166 169 168
30.7 -87.2 36.8 166 169 168
31.5 -87.2 36.8 166 169 168
32.4 -87.2 36.8 166 169 168
33.3 -87.2 36.8 168 170 169
34.1 -87.2 36.8 168 170 169
35.0 -87.2 36.8 168 170 169
35.8 -87.2 36.8 168 170 169
36.7 -87.4 36.9 168 170 169
37.6 -87.4 36.9 166 166 166
38.5 -87.4 36.9 168 170 169
39.2 -87.2 36.8 169 171 170
40.3 -87.5 36.9 171 173 173
41.0 -87.4 36.9 169 171 170
41.9 -87.4 36.9 169 171 170
42.7 -87.2 36.8 169 171 170
43.4 -87.0 36.7 169 171 170
44.2 -86.9 36.7 169 171 170
45.2 -87.2 36.8 169 171 170
46.2 -87.4 36.9 172 174 174
47.3 -87.9 37.1 170 172 172
48.5 -88.6 37.4 173 175 175
48.6 -87.2 36.8 170 172 172
49.2 -86.7 36.6 173 175 175
50.9 -88.1 37.2 170 172 172
51.9 -88.4 37.3 173 175 175
52.6 -88.1 37.2 170 172 172
53.4 -88.1 37.2 173 175 175
54.7 -88.8 37.5 171 173 173
55.3 -88.2 37.2 171 173 173
55.9 -87.9 37.1 171 173 173
56.7 -87.7 37.0 171 173 173
59.3 -90.4 38.1 171 173 173
136.4 -201.9 85.2 172 174 174
54.9 -73.7 31.1 174 176 176
54.6 -72.4 30.6 174 174 174
57.4 -75.1 31.7 175 177 177
57.9 -74.8 31.6 175 177 177
103.6 -74.5 31.4 104 104 104
76.7 -53.6 22.6 97 100 99
74.2 -51.5 21.7 97 100 99
61.8 -41.8 17.6 94 94 94
60.4 -40.6 17.1 91 91 91
60.7 -40.5 17.1 94 94 94
16.6 -84.4 36.0 168 170 169
17.4 -84.2 35.9 166 169 168
18.2 -84.1 35.8 166 169 168
19.1 -84.2 35.9 166 169 168
20.0 -84.5 36.0 166 169 168
20.8 -84.4 36.0 165 168 167
21.6 -84.2 35.9 165 168 167
22.5 -84.5 36.0 165 168 167
23.3 -84.4 36.0 165 168 167
24.2 -84.5 36.0 165 168 167
25.0 -84.5 36.0 166 169 168
25.8 -84.2 35.9 166 169 168
26.6 -84.2 35.9 166 169 168
30.0 -84.4 36.0 166 169 168
30.8 -84.2 35.9 170 172 172
31.6 -84.2 35.9 166 169 168
32.6 -84.5 36.0 168 170 169
33.3 -84.4 36.0 170 172 172
34.1 -84.2 35.9 170 172 172
36.7 -84.4 36.0 176 176 176
37.6 -84.5 36.0 176 176 176
38.3 -84.2 35.9 171 173 173
39.2 -84.4 36.0 176 176 176
40.1 -84.5 36.0 171 173 173
41.0 -84.7 36.1 171 173 173
41.7 -84.4 36.0 169 171 170
42.4 -84.2 35.9 179 179 179
43.3 -84.2 35.9 177 177 177
44.3 -84.5 36.0 177 177 177
45.1 -84.5 36.0 177 177 177
46.0 -84.7 36.1 177 177 177
47.5 -85.8 36.6 182 182 182
47.7 -84.7 36.1 173 175 175
48.1 -83.9 35.8 178 178 178
49.9 -85.5 36.4 178 178 178
50.8 -85.7 36.5 180 180 180
51.4 -85.2 36.3 173 175 175
52.2 -85.2 36.3 173 175 175
53.1 -85.2 36.3 179 179 179
54.1 -85.5 36.4 179 179 179
54.5 -84.9 36.2 181 181 181
55.3 -84.7 36.1 181 181 181
138.3 -202.7 86.4 172 174 174
135.3 -195.5 83.3 180 180 180
55.3 -72.6 31.0 182 182 182
73.2 -50.3 21.4 97 100 99
70.1 -47.9 20.4 97 100 99
59.8 -39.7 16.9 94 94 94
15.4 -77.5 33.4 168 170 169
16.1 -77.0 33.1 166 169 168
17.1 -77.9 33.5 174 174 174
17.6 -77.0 33.1 169 171 170
18.4 -76.8 33.1 169 171 170
19.5 -78.5 33.8 173 173 173
20.3 -78.5 33.8 165 168 167
21.4 -76.8 33.1 165 168 167
22.2 -76.7 33.0 168 170 169
28.4 -77.1 33.2 175 175 175
29.2 -77.1 33.2 170 172 172
29.9 -76.8 33.1 178 178 178
30.6 -76.7 33.0 175 175 175
31.4 -76.7 33.0 178 178 178
34.1 -77.6 33.4 186 186 186
34.4 -76.7 33.0 186 186 186
35.3 -77.0 33.1 188 188 188
36.4 -77.6 33.4 190 190 190
38.3 -76.7 33.0 194 194 194
39.7 -78.1 33.6 197 197 197
41.5 -77.0 33.1 194 194 194
42.2 -76.8 33.1 194 194 194
45.5 -80.0 34.5 200 200 200
44.4 -76.7 33.0 203 203 203
45.7 -77.6 33.4 200 200 200
47.1 -78.6 33.8 200 200 200
47.8 -78.5 33.8 197 197 197
48.9 -79.0 34.0 203 203 203
48.9 -77.8 33.5 197 197 197
50.0 -78.2 33.7 200 200 200
144.9 -210.3 90.5 202 202 202
139.6 -199.7 86.0 202 202 202
186.6 -263.1 113.3 203 203 203
165.5 -230.1 99.0 203 203 203
27.1 -36.2 15.6 200 200 200
27.0 -35.5 15.3 204 204 204
121.2 -87.9 37.8 106 106 106
67.9 -45.9 19.8 97 100 99
66.1 -44.4 19.1 97 100 99
14.8 -73.6 32.0 175 175 175
15.6 -73.7 32.1 177 177 177
16.4 -74.4 32.3 177 177 177
17.2 -74.5 32.4 186 186 186
17.8 -73.9 32.1 183 183 183
18.6 -74.1 32.2 185 185 185
19.4 -74.2 32.3 185 185 185
20.8 -74.0 32.2 194 194 194
21.4 -73.5 32.0 196 196 196
27.7 -74.2 32.3 202 202 202
28.4 -74.1 32.2 202 202 202
29.0 -73.9 32.1 202 202 202
30.5 -73.7 32.1 202 202 202
32.9 -74.1 32.2 199 199 199
33.4 -73.6 32.0 202 202 202
34.3 -74.0 32.2 203 203 203
35.0 -73.9 32.1 203 203 203
38.0 -74.0 32.2 203 203 203
39.2 -74.7 32.5 203 203 203
40.0 -74.9 32.6 203 203 203
40.7 -74.7 32.5 203 203 203
41.0 -73.9 32.1 203 203 203
42.1 -74.6 32.4 203 203 203
44.4 -77.3 33.6 203 203 203
43.6 -74.6 32.4 203 203 203
44.6 -74.9 32.6 203 203 203
45.6 -75.4 32.8 203 203 203
46.1 -75.0 32.6 203 203 203
46.5 -74.4 32.3 203 203 203
47.3 -74.5 32.4 203 203 203
47.9 -74.2 32.3 203 203 203
49.1 -74.9 32.6 203 203 203
191.2 -266.9 116.1 205 205 205
180.6 -248.6 108.1 205 205 205
27.0 -35.7 15.5 206 206 206
26.7 -34.8 15.1 206 206 206
120.6 -87.2 37.9 111 113 112
117.3 -84.1 36.6 109 111 111
40.4 -73.4 32.2 206 206 206
43.3 -74.5 32.7 206 206 206
43.3 -73.4 32.2 206 206 206
44.2 -73.6 32.3 206 206 206
45.1 -73.7 32.4 206 206 206
45.4 -73.1 32.1 206 206 206
46.0 -72.9 32.0 206 206 206
46.9 -73.0 32.1 206 206 206
47.2 -72.4 31.8 206 206 206
46.1 -69.6 30.6 206 206 206
160.4 -231.5 101.7 204 204 204
145.6 -207.0 90.9 204 204 204
139.0 -194.9 85.6 204 204 204
180.1 -248.9 109.3 205 205 205
177.5 -241.9 106.3 205 205 205
27.1 -35.5 15.6 206 206 206
26.7 -34.5 15.1 206 206 206
26.6 -33.8 14.9 206 206 206
128.8 -92.8 40.8 113 115 114
115.5 -82.0 36.0 111 113 112
40.3 -72.5 32.2 206 206 206
43.7 -74.5 33.1 206 206 206
43.6 -73.1 32.4 209 209 209
45.0 -72.9 32.3 209 209 209
45.5 -72.5 32.2 206 206 206
46.7 -73.2 32.5 206 206 206
47.2 -72.7 32.3 206 206 206
47.0 -71.4 31.7 206 206 206
45.3 -67.7 30.0 206 206 206
48.4 -71.2 31.6 206 206 206
153.0 -218.6 97.0 207 207 207
137.0 -192.9 85.6 207 207 207
130.2 -180.6 80.2 207 207 207
156.6 -214.2 95.1 207 207 207
155.7 -210.0 93.2 205 205 205
143.7 -191.1 84.8 205 205 205
27.1 -35.1 15.6 206 206 206
26.8 -34.2 15.2 206 206 206
26.7 -33.7 15.0 206 206 206
307.7 -227.9 101.2 124 127 126
276.1 -203.0 90.1 124 127 126
121.3 -85.9 38.1 114 116 115
19.6 -70.0 31.4 208 208 208
20.4 -70.1 31.4 208 208 208
20.8 -69.3 31.1 208 208 208
26.7 -69.5 31.2 208 208 208
27.5 -69.6 31.2 205 205 205
28.3 -69.7 31.3 208 208 208
28.7 -69.2 31.0 208 208 208
29.5 -69.2 31.0 208 208 208
31.9 -69.7 31.3 208 208 208
32.6 -69.7 31.3 208 208 208
33.8 -70.8 31.7 208 208 208
34.0 -69.6 31.2 205 205 205
36.3 -69.8 31.3 208 208 208
37.5 -70.8 31.7 208 208 208
38.2 -70.7 31.7 208 208 208
39.0 -70.8 31.7 208 208 208
39.7 -70.8 31.7 205 205 205
40.1 -70.1 31.4 205 205 205
40.6 -69.7 31.3 208 208 208
43.0 -71.3 32.0 208 208 208
43.1 -70.3 31.5 208 208 208
44.2 -70.8 31.7 208 208 208
45.1 -71.1 31.9 208 208 208
46.0 -71.4 32.0 209 209 209
46.8 -71.4 32.0 209 209 209
46.9 -70.4 31.6 212 213 212
46.0 -68.0 30.5 209 209 209
47.9 -69.7 31.3 206 206 206
48.4 -69.4 31.1 206 206 206
49.4 -69.8 31.3 206 206 206
121.0 -166.1 74.5 207 207 207
114.6 -155.1 69.5 207 207 207
19.2 -70.5 32.0 207 207 207
19.9 -70.2 31.8 207 207 207
20.6 -70.3 31.8 207 207 207
21.1 -69.5 31.5 207 207 207
27.4 -70.5 32.0 207 207 207
28.0 -70.2 31.8 207 207 207
28.7 -70.0 31.7 210 210 210
33.0 -69.8 31.6 208 208 208
34.0 -70.4 31.9 208 208 208
34.6 -70.0 31.7 208 208 208
36.8 -70.0 31.7 208 208 208
37.8 -70.5 32.0 208 208 208
38.5 -70.5 32.0 208 208 208
39.4 -70.8 32.1 208 208 208
40.1 -70.8 32.1 208 208 208
40.7 -70.4 31.9 208 208 208
41.2 -70.0 31.7 208 208 208
43.6 -71.5 32.4 208 208 208
43.9 -70.8 32.1 208 208 208
44.7 -70.9 32.1 208 208 208
45.5 -71.0 32.2 208 208 208
46.3 -71.0 32.2 208 208 208
47.2 -71.2 32.3 208 208 208
47.4 -70.4 31.9 208 208 208
46.7 -68.3 31.0 208 208 208
48.2 -69.5 31.5 208 208 208
48.6 -69.0 31.3 208 208 208
49.6 -69.3 31.4 208 208 208
27.5 -33.5 15.2 206 206 206
-17.8 -22.3 10.2 113 114 113
-14.2 -21.9 10.0 129 129 129
17.7 -69.5 31.8 210 210 210
18.4 -69.5 31.8 210 210 210
19.2 -69.7 31.9 210 210 210
19.9 -69.5 31.8 210 210 210
20.6 -69.5 31.8 210 210 210
21.3 -69.2 31.7 210 210 210
27.3 -69.5 31.8 210 210 210
28.0 -69.5 31.8 210 210 210
28.7 -69.4 31.8 210 210 210
29.4 -69.2 31.7 210 210 210
30.2 -69.3 31.7 210 210 210
33.0 -69.2 31.7 207 207 207
34.0 -69.7 31.9 207 207 207
34.6 -69.3 31.7 207 207 207
36.9 -69.4 31.8 207 207 207
37.7 -69.7 31.9 207 207 207
38.5 -69.7 31.9 207 207 207
39.3 -69.8 32.0 207 207 207
40.0 -69.8 32.0 210 210 210
40.7 -69.7 31.9 207 207 207
41.3 -69.4 31.8 204 204 204
42.6 -70.4 32.2 207 207 207
43.3 -70.2 32.2 207 207 207
43.7 -69.8 32.0 204 204 204
44.5 -69.8 32.0 207 207 207
45.3 -69.9 32.0 207 207 207
46.1 -70.0 32.1 207 207 207
47.0 -70.2 32.2 207 207 207
47.4 -69.8 32.0 207 207 207
47.1 -68.3 31.3 208 208 208
48.4 -69.0 31.6 208 208 208
51.0 -69.5 31.8 208 208 208
27.8 -34.8 15.9 207 207 207
27.0 -33.0 15.1 208 208 208
27.4 -33.1 15.1 208 208 208
-23.8 -22.8 10.6 38 38 38
-21.1 -22.8 10.5 93 96 95
-19.1 -23.0 10.6 112 112 112
-18.7 -22.8 10.6 111 111 111
-15.0 -23.2 10.7 125 125 125
-14.6 -23.0 10.6 126 126 126
19.0 -68.3 31.6 209 209 209
19.7 -68.2 31.6 209 209 209
32.8 -67.9 31.4 207 207 207
34.3 -68.0 31.5 207 207 207
38.2 -68.5 31.7 207 207 207
38.9 -68.3 31.6 207 207 207
39.8 -68.7 31.8 207 207 207
40.5 -68.6 31.7 207 207 207
40.6 -67.5 31.3 207 207 207
42.6 -69.6 32.2 210 210 210
43.1 -69.1 32.0 210 210 210
42.9 -67.7 31.3 207 207 207
43.7 -67.8 31.4 207 207 207
44.9 -68.6 31.7 207 207 207
45.9 -68.9 31.9 210 210 210
46.8 -69.1 32.0 207 207 207
47.2 -68.7 31.8 207 207 207
46.6 -66.8 30.9 207 207 207
47.7 -67.3 31.2 207 207 207
45.9 -63.9 29.6 207 207 207
49.4 -67.7 31.3 207 207 207
27.1 -32.7 15.2 207 207 207
27.7 -33.0 15.3 207 207 207
28.3 -33.3 15.4 207 207 207
23.8 -22.0 10.2 166 169 168
-30.6 -23.2 10.9 46 45 43
-30.5 -23.4 10.9 46 45 43
-30.3 -23.4 10.9 47 48 47
-30.0 -23.3 10.9 47 48 47
-29.7 -23.3 10.9 47 48 47
-29.5 -23.3 10.9 47 48 47
-29.2 -23.4 10.9 49 49 49
-29.0 -23.4 10.9 49 49 49
-28.7 -23.4 10.9 49 49 49
-28.5 -23.3 10.9 47 47 47
-28.2 -23.3 10.9 47 47 47
-28.0 -23.4 10.9 47 47 47
-27.7 -23.3 10.9 47 47 47
-27.4 -23.3 10.9 47 47 47
-27.2 -23.3 10.9 46 45 43
-27.0 -23.4 10.9 42 42 42
-26.7 -23.4 10.9 42 42 42
-26.3 -23.2 10.9 42 42 42
-26.2 -23.3 10.9 42 42 42
-25.9 -23.4 10.9 40 40 40
-25.6 -23.2 10.9 36 37 36
-25.3 -23.2 10.9 39 39 39
-25.1 -23.3 10.9 39 39 39
-24.8 -23.3 10.9 36 37 36
-24.7 -23.4 10.9 39 39 39
-24.4 -23.4 10.9 42 42 42
-24.0 -23.2 10.9 39 39 39
-23.9 -23.3 10.9 39 39 39
-23.7 -23.4 10.9 42 42 42
-23.4 -23.4 10.9 42 42 42
-23.1 -23.4 10.9 42 42 42
-22.9 -23.4 10.9 45 44 43
-22.5 -23.2 10.9 46 46 46
-22.3 -23.2 10.9 50 50 50
-22.0 -23.2 10.9 63 63 63
-21.8 -23.2 10.9 84 86 86
-21.5 -23.2 10.9 84 86 86
-21.4 -23.3 10.9 101 101 101
-21.1 -23.4 10.9 96 99 98
-20.8 -23.3 10.9 100 100 100
-20.5 -23.2 10.9 104 104 104
-20.2 -23.2 10.9 104 104 104
-20.1 -23.4 10.9 104 104 104
-19.8 -23.3 10.9 107 109 109
-19.5 -23.2 10.9 106 108 108
-19.3 -23.3 10.9 106 108 108
-19.1 -23.3 10.9 106 108 108
-18.8 -23.3 10.9 107 109 109
-18.5 -23.3 10.9 107 109 109
-17.5 -23.3 10.9 115 115 115
-17.2 -23.2 10.9 115 115 115
-17.0 -23.3 10.9 117 117 117
-16.5 -23.2 10.9 117 119 118
-16.3 -23.3 10.9 117 119 118
-15.5 -23.3 10.9 119 121 120
-15.2 -23.2 10.9 122 122 122
-14.9 -23.2 10.9 122 122 122
-14.8 -23.4 11.0 124 124 124
-10.4 -23.3 10.9 131 134 133
-9.9 -23.3 10.9 136 136 136
-9.6 -23.2 10.8 136 138 137
-9.4 -23.2 10.9 139 138 137
-9.1 -23.2 10.8 140 140 140
-8.9 -23.4 10.9 139 141 140
-8.7 -23.4 10.9 140 142 141
-8.4 -23.4 10.9 144 144 144
-8.2 -23.4 10.9 144 144 144
-7.9 -23.3 10.9 141 141 141
-7.6 -23.2 10.9 144 144 144
-7.3 -23.2 10.9 142 144 143
-7.1 -23.3 10.9 148 148 148
-6.6 -23.4 10.9 150 152 152
-6.4 -23.4 10.9 157 157 157
-6.1 -23.4 10.9 158 161 160
-5.9 -23.4 10.9 165 165 165
-5.6 -23.3 10.9 165 165 165
-5.4 -23.4 10.9 164 167 166
-5.1 -23.3 10.9 163 166 165
-3.6 -23.2 10.9 167 167 167
-3.3 -23.4 10.9 169 169 169
-3.1 -23.4 10.9 171 173 173
-2.8 -23.4 10.9 171 173 173
-2.6 -23.4 10.9 173 175 175
-2.3 -23.4 10.9 173 175 175
-2.1 -23.4 10.9 173 175 175
-1.8 -23.3 10.9 177 177 177
-1.6 -23.3 10.9 177 177 177
-1.3 -23.4 10.9 177 177 177
-1.0 -23.4 10.9 176 176 176
-0.8 -23.4 10.9 176 176 176
-0.5 -23.4 10.9 176 176 176
-0.3 -23.3 10.9 179 179 179
-0.0 -23.4 10.9 181 181 181
0.2 -23.4 10.9 181 181 181
0.5 -23.3 10.9 181 181 181
0.7 -23.3 10.9 180 180 180
1.0 -23.3 10.9 180 180 180
1.2 -23.3 10.9 180 180 180
1.5 -23.4 10.9 186 186 186
1.7 -23.4 10.9 182 182 182
2.0 -23.3 10.9 182 182 182
2.3 -23.3 10.9 182 182 182
2.5 -23.3 10.9 179 179 179
2.8 -23.4 10.9 182 182 182
3.0 -23.3 10.9 185 185 185
3.5 -23.3 10.9 184 184 184
7.8 -23.4 10.9 209 209 209
8.1 -23.4 10.9 209 209 209
8.3 -23.4 10.9 209 209 209
8.6 -23.4 10.9 209 209 209
8.9 -23.4 10.9 209 209 209
9.1 -23.4 10.9 209 209 209
10.6 -23.4 10.9 209 209 209
10.8 -23.2 10.9 209 209 209
11.1 -23.2 10.8 209 209 209
40.1 -67.2 31.4 209 209 209
40.4 -66.5 31.1 209 209 209
43.1 -68.5 32.1 209 209 209
42.6 -66.5 31.1 206 206 206
43.2 -66.3 31.0 209 209 209
44.3 -66.9 31.3 209 209 209
45.9 -68.2 31.9 209 209 209
46.7 -68.3 32.0 206 206 206
47.1 -67.8 31.7 206 206 206
46.2 -65.4 30.6 206 206 206
46.9 -65.4 30.6 206 206 206
46.3 -63.7 29.8 207 207 207
48.5 -65.7 30.8 207 207 207
49.9 -66.6 31.2 207 207 207
51.8 -68.2 31.9 207 207 207
27.0 -32.3 15.1 206 206 206
28.1 -32.8 15.4 207 207 207
28.1 -32.4 15.2 207 207 207
-30.9 -23.2 11.0 48 48 48
-30.8 -23.3 11.0 48 48 48
-30.5 -23.3 11.0 50 50 50
-30.2 -23.3 11.0 50 50 50
-30.0 -23.3 11.0 50 50 50
-29.7 -23.3 11.0 50 50 50
-29.5 -23.3 11.0 52 52 52
-29.2 -23.3 11.0 52 52 52
-29.0 -23.3 11.0 50 50 50
-28.7 -23.3 11.0 47 48 47
-28.5 -23.3 11.0 52 52 52
-28.2 -23.3 11.0 50 50 50
-27.9 -23.3 11.0 47 48 47
-27.7 -23.3 11.0 47 48 47
-27.4 -23.3 11.0 46 46 44
-27.2 -23.3 11.0 46 46 44
-27.0 -23.3 11.0 42 43 42
-26.7 -23.3 11.0 42 43 42
-26.4 -23.3 11.0 42 43 42
-26.1 -23.3 11.0 41 41 41
-25.9 -23.3 11.0 41 41 41
-25.6 -23.3 11.0 40 40 40
-25.4 -23.3 11.0 40 40 40
-25.1 -23.3 11.0 40 40 40
-24.9 -23.3 11.0 40 40 40
-24.6 -23.3 11.0 40 40 40
-24.4 -23.3 11.0 37 38 37
-24.1 -23.3 11.0 37 38 37
-23.9 -23.3 11.0 40 40 40
-23.6 -23.3 11.0 42 43 42
-23.3 -23.3 11.0 41 41 41
-23.1 -23.3 11.0 41 41 41
-22.8 -23.3 11.0 41 41 41
-22.6 -23.3 11.0 46 45 43
-22.3 -23.3 11.0 47 47 47
-22.1 -23.3 11.0 42 43 42
-21.8 -23.3 11.0 42 43 42
-21.5 -23.3 11.0 66 68 67
-21.3 -23.3 11.0 79 82 81
-21.1 -23.3 11.0 90 90 90
-20.8 -23.3 11.0 95 95 95
-20.5 -23.3 11.0 95 98 97
-20.3 -23.3 11.0 98 100 100
-20.0 -23.3 11.0 101 101 101
-19.7 -23.2 11.0 103 103 103
-19.4 -23.2 11.0 105 105 105
-19.2 -23.2 11.0 105 105 105
-19.0 -23.3 11.0 107 107 107
-18.6 -23.2 11.0 107 107 107
-18.0 -23.3 11.0 109 111 111
-17.7 -23.3 11.0 107 109 109
-17.4 -23.3 11.0 108 110 110
-17.1 -23.2 11.0 108 110 110
-16.9 -23.3 11.0 112 112 112
-16.7 -23.3 11.0 115 114 114
-16.5 -23.3 11.0 116 116 116
-16.2 -23.3 11.0 116 116 116
-15.9 -23.2 11.0 119 121 120
-15.6 -23.3 11.0 119 121 120
-15.4 -23.2 11.0 118 120 119
-15.1 -23.2 11.0 118 120 119
-14.9 -23.3 11.0 118 120 119
-14.6 -23.3 11.0 118 120 119
-14.4 -23.3 11.0 118 120 119
-10.8 -23.3 11.0 126 128 127
-10.5 -23.2 11.0 131 131 131
-10.3 -23.3 11.0 131 134 133
-10.0 -23.3 11.0 135 135 135
-9.7 -23.2 11.0 135 135 135
-9.5 -23.3 11.0 136 138 137
-9.2 -23.3 11.0 138 138 138
-9.0 -23.3 11.0 138 138 138
-8.7 -23.3 11.0 140 142 141
-8.5 -23.3 11.0 146 146 146
-8.2 -23.3 11.0 148 148 148
-8.0 -23.3 11.0 146 148 148
-7.7 -23.3 11.0 144 146 146
-7.5 -23.3 11.0 150 150 150
-7.2 -23.3 11.0 153 153 153
-6.9 -23.3 11.0 155 155 155
-6.7 -23.3 11.0 158 161 160
-6.4 -23.3 11.0 164 164 164
-6.2 -23.3 11.0 167 167 167
-5.9 -23.3 11.0 166 169 168
-5.7 -23.3 11.0 164 167 166
-5.4 -23.3 11.0 170 171 170
-5.1 -23.2 11.0 170 171 170
-3.6 -23.3 11.0 180 180 180
-3.4 -23.3 11.0 180 180 180
-3.1 -23.3 11.0 184 184 184
-2.8 -23.3 11.0 181 181 181
-2.6 -23.3 11.0 181 181 181
-2.3 -23.3 11.0 181 181 181
-2.1 -23.3 11.0 184 184 184
-1.8 -23.3 11.0 184 184 184
-1.6 -23.3 11.0 181 181 181
-1.3 -23.3 11.0 181 181 181
-1.1 -23.3 11.0 180 180 180
-0.8 -23.3 11.0 180 180 180
-0.5 -23.3 11.0 180 180 180
-0.3 -23.3 11.0 180 180 180
-0.0 -23.3 11.0 183 183 183
0.2 -23.3 11.0 182 182 182
0.5 -23.3 11.0 182 182 182
0.7 -23.3 11.0 182 182 182
1.0 -23.3 11.0 185 185 185
1.3 -23.4 11.0 185 185 185
1.5 -23.3 11.0 182 182 182
1.8 -23.3 11.0 181 181 181
2.0 -23.3 11.0 181 181 181
2.3 -23.3 11.0 181 181 181
2.5 -23.3 11.0 184 184 184
2.8 -23.3 11.0 184 184 184
3.0 -23.3 11.0 184 184 184
3.3 -23.3 11.0 184 184 184
3.5 -23.2 11.0 184 184 184
7.9 -23.3 11.0 208 208 208
8.2 -23.3 11.0 208 208 208
8.4 -23.3 11.0 208 208 208
8.7 -23.3 11.0 211 211 211
8.9 -23.3 11.0 208 208 208
9.2 -23.3 11.0 208 208 208
10.5 -23.3 11.0 208 208 208
10.7 -23.3 11.0 208 208 208
10.9 -23.2 11.0 209 209 209
11.2 -23.2 11.0 209 209 209
40.6 -67.3 31.8 209 209 209
40.5 -65.9 31.2 209 209 209
43.4 -68.2 32.3 209 209 209
42.8 -66.1 31.3 209 209 209
43.3 -65.8 31.1 209 209 209
44.8 -67.0 31.7 209 209 209
46.0 -67.5 32.0 209 209 209
46.8 -67.7 32.0 209 209 209
47.4 -67.5 32.0 206 206 206
46.8 -65.6 31.0 206 206 206
47.5 -65.6 31.0 206 206 206
47.1 -64.1 30.3 206 206 206
48.7 -65.2 30.9 206 206 206
50.5 -66.6 31.5 207 207 207
27.3 -31.9 15.1 208 208 208
27.7 -32.0 15.1 206 206 206
27.8 -31.6 15.0 206 206 206
27.9 -31.4 14.8 207 207 207
-23.1 -23.3 11.1 39 39 39
-24.5 -28.2 13.5 97 97 97
-24.1 -28.0 13.4 97 100 99
-18.2 -23.3 11.2 105 105 105
-15.0 -23.2 11.1 117 117 117
-9.8 -23.1 11.1 124 124 124
-9.6 -23.1 11.1 126 128 127
-9.3 -23.2 11.1 130 130 130
-9.1 -23.3 11.2 136 135 134
-8.3 -23.3 11.2 154 154 154
-6.8 -23.3 11.2 170 172 172
44.1 -68.5 32.8 208 208 208
46.0 -66.8 32.0 208 208 208
47.0 -67.3 32.2 208 208 208
48.6 -68.4 32.7 208 208 208
48.7 -66.5 31.8 208 208 208
45.1 -60.7 29.0 206 206 206
49.1 -65.0 31.1 206 206 206
51.2 -66.8 32.0 206 206 206
27.0 -31.6 15.1 207 207 207
27.6 -31.9 15.2 210 210 210
28.0 -32.0 15.3 208 208 208
27.5 -30.6 14.6 206 206 206
-14.5 -29.3 14.2 109 111 111
-14.1 -29.0 14.0 113 114 113
-13.7 -28.9 14.0 112 112 112
-12.0 -29.5 14.3 109 109 109
-11.6 -29.4 14.2 114 116 115
-11.2 -29.3 14.2 142 144 143
-10.9 -29.2 14.1 166 166 166
-5.0 -29.4 14.2 192 192 192
-4.7 -29.4 14.2 191 191 191
-4.3 -29.2 14.1 191 191 191
-4.0 -29.2 14.1 191 191 191
-3.7 -29.4 14.2 191 191 191
-3.3 -29.2 14.1 189 189 189
-3.0 -29.4 14.2 188 188 188
-2.7 -29.5 14.3 191 191 191
-2.4 -29.4 14.2 188 188 188
-2.0 -29.3 14.2 188 188 188
-1.7 -29.3 14.2 188 188 188
6.6 -29.7 14.4 205 205 205
7.3 -29.5 14.3 207 207 207
7.6 -29.4 14.2 207 207 207
7.8 -29.2 14.1 207 207 207
8.2 -29.2 14.1 207 207 207
8.5 -29.3 14.1 210 210 210
8.9 -29.3 14.2 210 210 210
9.2 -29.3 14.2 212 213 212
9.5 -29.2 14.1 212 213 212
9.9 -29.4 14.2 212 213 212
10.2 -29.3 14.2 212 213 212
10.5 -29.3 14.1 210 210 210
10.9 -29.4 14.2 210 210 210
11.1 -29.2 14.1 210 210 210
11.5 -29.3 14.2 210 210 210
11.9 -29.4 14.2 207 207 207
12.1 -29.2 14.1 207 207 207
12.4 -29.1 14.1 212 213 212
12.9 -29.5 14.3 210 210 210
13.1 -29.3 14.2 207 207 207
13.5 -29.3 14.2 207 207 207
13.8 -29.4 14.2 207 207 207
14.1 -29.3 14.2 207 207 207
14.4 -29.3 14.2 208 208 208
14.8 -29.3 14.2 208 208 208
15.3 -29.7 14.4 208 208 208
15.5 -29.3 14.2 208 208 208
15.7 -29.2 14.1 208 208 208
16.2 -29.4 14.2 208 208 208
16.6 -29.7 14.4 208 208 208
43.9 -67.4 32.6 208 208 208
43.6 -65.8 31.8 208 208 208
45.8 -65.8 31.8 208 208 208
46.9 -66.4 32.1 208 208 208
48.0 -66.9 32.3 208 208 208
47.6 -65.3 31.6 208 208 208
48.1 -65.0 31.4 208 208 208
48.5 -63.6 30.8 208 208 208
50.3 -65.0 31.4 208 208 208
51.8 -65.9 31.9 208 208 208
27.0 -31.2 15.1 207 207 207
27.6 -31.6 15.3 207 207 207
28.1 -31.6 15.3 207 207 207
27.7 -30.1 14.6 206 206 206
-26.6 -29.5 14.5 50 49 48
-14.8 -29.5 14.4 101 101 101
-14.5 -29.5 14.4 82 84 84
-14.1 -29.4 14.4 75 75 75
9.1 -30.9 15.1 210 210 210
9.4 -30.9 15.1 210 210 210
9.8 -31.0 15.1 210 210 210
10.1 -30.9 15.1 210 210 210
10.5 -30.9 15.1 210 210 210
10.9 -31.0 15.1 210 210 210
11.2 -30.9 15.1 210 210 210
11.6 -30.9 15.1 210 210 210
12.2 -30.9 15.1 210 210 210
12.6 -30.9 15.1 210 210 210
13.1 -31.2 15.3 210 210 210
13.4 -31.1 15.2 210 210 210
13.7 -31.0 15.2 210 210 210
13.9 -30.7 15.0 207 207 207
14.4 -31.0 15.1 207 207 207
14.7 -30.9 15.1 207 207 207
15.1 -30.9 15.1 207 207 207
15.9 -31.2 15.3 207 207 207
17.2 -31.0 15.1 207 207 207
44.1 -67.0 32.8 207 207 207
43.7 -65.2 31.9 207 207 207
45.7 -65.0 31.8 207 207 207
47.0 -65.8 32.2 207 207 207
48.1 -66.2 32.4 207 207 207
47.4 -64.2 31.4 207 207 207
47.7 -63.7 31.2 207 207 207
46.8 -61.6 30.1 207 207 207
47.8 -62.0 30.3 208 208 208
28.2 -31.4 15.4 207 207 207
27.7 -30.5 14.9 207 207 207
27.4 -29.8 14.6 207 207 207
27.6 -29.6 14.5 207 207 207
28.1 -29.8 14.6 207 207 207
-32.8 -31.0 15.3 46 46 46
-32.4 -30.9 15.3 47 47 47
-32.2 -31.1 15.4 44 44 44
-29.3 -31.4 15.6 41 41 41
-28.5 -30.9 15.3 43 43 43
-16.0 -30.9 15.3 18 18 18
-15.3 -30.2 14.9 26 26 26
-14.9 -30.0 14.8 26 26 26
-14.5 -30.0 14.8 29 30 28
9.2 -30.8 15.2 209 209 209
9.6 -30.9 15.3 209 209 209
9.9 -30.9 15.3 209 209 209
10.2 -30.8 15.2 209 209 209
10.6 -30.9 15.3 209 209 209
11.0 -30.9 15.3 209 209 209
11.3 -30.9 15.3 209 209 209
11.7 -30.8 15.3 209 209 209
12.0 -30.9 15.3 209 209 209
12.3 -30.7 15.2 209 209 209
12.8 -30.9 15.3 209 209 209
13.1 -31.0 15.3 209 209 209
13.5 -30.9 15.3 206 206 206
13.8 -30.9 15.3 206 206 206
14.1 -30.7 15.2 206 206 206
14.4 -30.7 15.2 206 206 206
14.8 -30.8 15.3 206 206 206
15.2 -30.8 15.3 206 206 206
16.0 -31.0 15.3 207 207 207
16.3 -30.9 15.3 207 207 207
16.7 -31.0 15.3 207 207 207
17.2 -31.2 15.4 207 207 207
17.3 -30.8 15.2 207 207 207
17.6 -30.7 15.2 207 207 207
43.8 -56.1 27.8 207 207 207
44.8 -56.6 28.0 207 207 207
45.4 -56.5 27.9 207 207 207
46.4 -56.9 28.1 208 208 208
27.5 -29.5 14.6 206 206 206
27.7 -29.4 14.6 207 207 207
28.1 -29.5 14.6 207 207 207
28.7 -29.8 14.7 207 207 207
-44.9 -31.9 15.9 55 55 55
-45.1 -32.2 16.1 55 55 55
-44.7 -32.2 16.1 55 55 55
-38.7 -32.3 16.2 50 49 48
-34.9 -31.9 15.9 47 47 47
-34.4 -31.7 15.9 47 48 47
-34.0 -31.8 15.9 47 48 47
-33.8 -31.9 16.0 47 48 47
-33.5 -31.9 16.0 46 46 46
-33.6 -32.4 16.2 46 46 46
-33.1 -32.3 16.2 46 46 46
-32.0 -31.6 15.8 46 46 46
-32.2 -32.2 16.1 46 46 46
-31.5 -31.8 15.9 43 43 43
-30.4 -32.2 16.1 42 43 42
-29.3 -31.5 15.8 40 40 40
-28.3 -32.4 16.2 45 45 45
-27.9 -32.3 16.2 45 45 45
-16.5 -31.5 15.8 27 27 27
-16.0 -31.1 15.6 26 26 26
-8.5 -22.7 11.3 187 189 189
11.4 -31.8 15.9 209 209 209
11.7 -31.7 15.9 209 209 209
13.5 -31.5 15.8 209 209 209
11.7 -24.7 12.3 206 206 206
12.0 -23.1 11.5 206 206 206
12.2 -22.9 11.5 206 206 206
44.8 -57.6 28.8 206 206 206
44.4 -56.2 28.1 207 207 207
45.1 -56.2 28.1 207 207 207
45.6 -56.1 28.1 207 207 207
46.4 -56.3 28.2 207 207 207
27.6 -29.0 14.5 206 206 206
28.0 -29.0 14.5 206 206 206
37.9 -20.3 10.1 123 123 123
-33.6 -23.6 11.9 56 56 56
-45.5 -32.4 16.4 56 56 56
-45.0 -32.3 16.4 56 56 56
-44.7 -32.4 16.4 56 56 56
-44.2 -32.4 16.4 59 60 58
-43.9 -32.4 16.4 56 56 56
-38.5 -32.4 16.4 51 51 49
-38.2 -32.4 16.4 47 48 47
-37.8 -32.4 16.4 47 48 47
-37.4 -32.4 16.4 47 48 47
-37.1 -32.4 16.4 47 48 47
-36.7 -32.4 16.4 47 48 47
-36.3 -32.4 16.4 48 48 48
-35.8 -32.3 16.3 48 48 48
-35.4 -32.3 16.3 48 48 48
-35.1 -32.4 16.4 48 48 48
-34.7 -32.4 16.4 47 47 47
-34.4 -32.4 16.4 47 47 47
-34.4 -32.8 16.6 47 47 47
-33.8 -32.6 16.5 47 47 47
-33.1 -32.2 16.3 47 47 47
-32.8 -32.3 16.4 47 47 47
-32.2 -32.1 16.3 45 45 45
-31.0 -32.4 16.4 41 41 41
-29.5 -32.5 16.4 41 40 38
-29.3 -32.7 16.6 41 41 39
-28.9 -32.7 16.6 42 43 42
-28.4 -32.5 16.5 42 43 42
-19.4 -23.5 11.9 45 45 45
-15.4 -23.3 11.8 22 25 23
-9.5 -23.1 11.7 39 39 39
-8.9 -22.8 11.5 183 183 183
-3.9 -23.6 11.9 204 204 204
-3.6 -23.6 11.9 206 206 206
-3.4 -23.6 11.9 204 204 204
-3.1 -23.6 11.9 202 202 202
-2.8 -23.6 11.9 202 202 202
-2.0 -23.6 11.9 199 199 199
-1.4 -23.6 11.9 197 197 197
1.6 -23.6 11.9 191 191 191
2.7 -23.6 11.9 188 188 188
3.5 -23.1 11.7 185 185 185
7.5 -23.6 11.9 208 208 208
7.7 -23.6 11.9 208 208 208
8.0 -23.6 11.9 208 208 208
8.3 -23.6 11.9 208 208 208
8.6 -23.6 11.9 208 208 208
8.8 -23.6 11.9 208 208 208
8.9 -23.0 11.7 208 208 208
9.2 -23.0 11.7 208 208 208
9.5 -23.1 11.7 208 208 208
9.7 -23.1 11.7 208 208 208
10.0 -23.0 11.7 208 208 208
10.5 -23.5 11.9 208 208 208
11.1 -23.7 12.0 205 205 205
11.1 -23.0 11.7 205 205 205
11.7 -23.6 12.0 205 205 205
11.7 -23.1 11.7 205 205 205
12.1 -22.9 11.6 205 205 205
12.7 -23.5 11.9 205 205 205
12.6 -22.9 11.6 206 206 206
45.0 -57.2 29.0 206 206 206
45.4 -56.8 28.8 206 206 206
45.4 -56.0 28.4 206 206 206
46.1 -56.0 28.4 206 206 206
47.0 -56.3 28.5 206 206 206
48.0 -56.7 28.7 207 207 207
27.8 -28.4 14.4 205 205 205
37.0 -19.8 10.0 139 139 139
37.4 -19.8 10.1 128 130 129
38.1 -20.1 10.2 125 125 125
38.6 -20.3 10.3 117 117 117
-34.0 -23.5 12.1 59 61 59
-33.9 -23.7 12.1 59 61 59
-33.6 -23.7 12.1 59 61 59
-33.3 -23.7 12.1 59 61 59
-33.1 -23.7 12.1 57 57 57
-32.7 -23.7 12.1 59 61 59
-32.5 -23.7 12.1 59 61 59
-32.2 -23.7 12.1 59 61 59
-31.9 -23.7 12.1 59 61 59
-31.6 -23.7 12.1 59 61 59
-31.4 -23.7 12.1 59 61 59
-31.1 -23.7 12.2 59 61 59
-30.8 -23.7 12.1 59 61 59
-30.6 -23.7 12.2 58 58 58
-30.3 -23.7 12.1 56 56 56
-29.9 -23.7 12.1 56 56 56
-29.7 -23.7 12.1 53 53 53
-29.4 -23.7 12.2 51 51 49
-29.2 -23.8 12.2 51 51 49
-28.9 -23.8 12.2 51 51 49
-28.5 -23.7 12.1 52 52 50
-28.2 -23.7 12.1 48 48 48
-28.0 -23.7 12.1 48 48 48
-27.7 -23.7 12.1 48 48 48
-27.4 -23.7 12.1 49 49 49
-27.1 -23.7 12.1 49 49 49
-26.8 -23.7 12.1 49 49 49
-26.5 -23.6 12.1 49 49 49
-26.3 -23.7 12.1 49 49 49
-25.9 -23.6 12.1 49 49 49
-25.7 -23.6 12.1 47 48 47
-25.4 -23.6 12.1 49 49 49
-25.1 -23.7 12.1 50 50 50
-24.9 -23.7 12.1 45 45 45
-24.6 -23.7 12.1 47 48 47
-24.4 -23.7 12.2 48 48 48
-24.0 -23.7 12.1 46 46 46
-23.8 -23.7 12.1 46 46 46
-23.2 -23.8 12.2 44 44 44
-22.8 -23.6 12.1 44 44 44
-22.7 -23.7 12.2 44 44 44
-22.3 -23.7 12.1 45 45 45
-22.0 -23.6 12.1 45 45 45
-21.6 -23.5 12.1 42 43 42
-21.4 -23.6 12.1 42 42 40
-21.1 -23.6 12.1 42 42 40
-21.0 -23.8 12.2 42 42 40
-20.7 -23.8 12.2 42 42 40
-20.4 -23.8 12.2 40 40 40
-20.1 -23.8 12.2 41 41 41
-19.7 -23.6 12.1 41 41 41
-19.4 -23.6 12.1 39 41 41
-19.3 -23.7 12.2 34 34 34
-18.9 -23.6 12.1 21 21 21
-18.6 -23.7 12.1 21 24 22
-18.4 -23.7 12.1 21 21 21
-18.1 -23.7 12.2 21 21 21
-17.1 -23.5 12.1 19 19 19
-17.0 -23.7 12.1 19 19 19
-16.6 -23.6 12.1 21 21 21
-16.3 -23.5 12.0 21 21 21
-10.8 -23.7 12.1 32 32 32
-10.6 -23.9 12.2 32 32 32
-10.2 -23.8 12.2 35 35 35
-9.8 -23.5 12.1 41 41 41
-9.6 -23.7 12.2 160 160 160
-9.4 -23.7 12.2 186 186 186
-9.1 -23.7 12.1 184 187 186
-4.3 -23.8 12.2 212 214 214
-4.0 -23.7 12.1 208 211 210
-3.7 -23.7 12.1 208 211 210
-3.4 -23.7 12.1 208 211 210
-3.1 -23.7 12.1 208 208 208
-2.9 -23.7 12.1 206 206 206
-2.6 -23.7 12.1 206 206 206
-2.3 -23.7 12.1 203 203 203
-2.0 -23.7 12.1 204 204 204
-1.7 -23.7 12.1 204 204 204
-1.4 -23.7 12.1 200 200 200
-1.2 -23.7 12.1 200 200 200
-0.9 -23.6 12.1 198 198 198
-0.6 -23.7 12.1 200 200 200
-0.3 -23.7 12.1 200 200 200
-0.0 -23.7 12.1 198 198 198
0.2 -23.7 12.1 198 198 198
0.5 -23.7 12.2 195 195 195
0.8 -23.7 12.1 195 195 195
1.1 -23.7 12.1 195 195 195
1.4 -23.7 12.1 195 195 195
1.7 -23.7 12.1 195 195 195
1.9 -23.8 12.2 193 193 193
2.2 -23.8 12.2 193 193 193
2.5 -23.7 12.1 193 193 193
2.8 -23.7 12.2 190 190 190
3.1 -23.8 12.2 190 190 190
3.4 -23.7 12.1 186 186 186
3.6 -23.7 12.2 186 186 186
3.9 -23.8 12.2 184 184 184
4.2 -23.7 12.2 184 184 184
4.5 -23.6 12.1 184 184 184
4.8 -23.7 12.1 181 181 181
5.1 -23.7 12.2 178 178 178
5.3 -23.7 12.1 178 178 178
5.6 -23.8 12.2 205 205 205
6.2 -23.8 12.2 210 210 210
6.4 -23.6 12.1 210 210 210
7.3 -23.7 12.1 208 208 208
7.6 -23.7 12.1 208 208 208
7.8 -23.6 12.1 208 208 208
8.1 -23.7 12.1 208 208 208
8.4 -23.7 12.1 208 208 208
8.7 -23.7 12.1 208 208 208
9.0 -23.7 12.1 208 208 208
9.3 -23.7 12.1 208 208 208
9.6 -23.7 12.1 208 208 208
9.8 -23.6 12.1 208 208 208
10.1 -23.6 12.1 208 208 208
10.4 -23.6 12.1 208 208 208
10.7 -23.6 12.1 208 208 208
11.0 -23.7 12.1 208 208 208
11.3 -23.8 12.2 208 208 208
11.6 -23.8 12.2 208 208 208
11.8 -23.7 12.2 208 208 208
12.1 -23.7 12.1 205 205 205
12.4 -23.7 12.1 202 202 202
12.7 -23.7 12.1 205 205 205
12.9 -23.7 12.1 208 208 208
13.2 -23.7 12.2 208 208 208
13.9 -23.8 12.2 208 208 208
14.1 -23.7 12.2 208 208 208
14.3 -23.6 12.1 207 207 207
14.6 -23.6 12.1 207 207 207
15.3 -23.8 12.2 207 207 207
15.5 -23.7 12.2 207 207 207
46.6 -62.2 31.9 207 207 207
47.4 -62.2 31.9 207 207 207
46.9 -60.7 31.1 207 207 207
47.6 -60.7 31.1 207 207 207
45.9 -57.7 29.6 205 205 205
47.5 -58.8 30.1 205 205 205
46.1 -56.2 28.8 206 206 206
46.8 -56.2 28.8 206 206 206
47.7 -56.5 29.0 206 206 206
48.8 -57.0 29.2 206 206 206
27.8 -28.1 14.4 205 205 205
27.9 -27.9 14.3 205 205 205
148.0 -79.7 40.9 160 163 162
37.1 -19.6 10.0 139 139 139
37.2 -19.5 10.0 131 131 131
-34.9 -23.9 12.4 59 61 59
-34.6 -23.9 12.4 59 61 59
-34.3 -23.9 12.4 60 62 60
-34.1 -23.9 12.4 60 62 60
-33.8 -23.9 12.4 63 63 63
-33.4 -23.9 12.4 63 63 63
-33.3 -24.0 12.4 60 62 60
-31.8 -23.9 12.4 58 58 58
-31.2 -23.9 12.4 56 56 56
-30.8 -23.9 12.4 57 57 57
-30.6 -23.9 12.4 57 57 57
-30.3 -23.9 12.4 54 54 54
-30.1 -23.9 12.4 54 54 54
-29.8 -24.0 12.4 52 52 50
-29.5 -23.9 12.4 52 52 50
-29.1 -23.9 12.4 53 52 51
-28.8 -23.9 12.4 53 52 51
-28.5 -23.8 12.4 53 52 51
-28.3 -23.9 12.4 53 52 51
-27.9 -23.8 12.4 50 50 50
-27.6 -23.8 12.4 50 50 50
-27.3 -23.8 12.3 53 52 51
-27.0 -23.8 12.3 53 52 51
-26.9 -24.0 12.4 53 52 51
-26.5 -23.9 12.4 50 50 50
-26.3 -23.9 12.4 50 50 50
-26.0 -23.9 12.4 48 48 48
-25.7 -23.9 12.4 48 48 48
-25.3 -23.8 12.4 48 48 48
-25.1 -23.9 12.4 51 51 51
-24.8 -23.9 12.4 49 49 49
-24.5 -23.9 12.4 49 49 49
-24.3 -23.9 12.4 45 45 45
-24.0 -23.9 12.4 45 45 45
-23.6 -23.8 12.4 45 45 45
-23.4 -23.9 12.4 45 45 45
-22.9 -24.0 12.4 46 46 46
-22.3 -23.7 12.3 43 43 43
-22.1 -23.7 12.3 44 44 44
-21.8 -23.8 12.3 43 42 41
-21.7 -24.0 12.4 43 42 41
-21.4 -23.9 12.4 44 44 44
-21.1 -23.9 12.4 41 41 41
-20.8 -23.9 12.4 41 41 41
-20.5 -23.9 12.4 40 42 42
-20.1 -23.8 12.3 40 42 42
-19.9 -23.9 12.4 38 38 38
-19.7 -23.9 12.4 28 28 28
-18.8 -23.9 12.4 16 16 16
-18.5 -24.0 12.4 17 17 17
-17.4 -23.9 12.4 19 19 19
-11.0 -23.9 12.4 29 31 29
-10.7 -23.9 12.4 31 30 29
-10.4 -23.8 12.3 36 36 36
-10.1 -23.8 12.3 42 42 42
-9.8 -23.9 12.4 168 170 169
-4.4 -24.0 12.4 215 215 215
-4.1 -24.0 12.4 210 213 212
-3.8 -24.0 12.4 210 213 212
-3.5 -24.0 12.4 210 213 212
-3.2 -24.0 12.4 210 213 212
-2.9 -23.9 12.4 210 213 212
-2.6 -24.0 12.4 207 210 209
-2.3 -23.9 12.4 207 210 209
-2.1 -23.9 12.4 207 207 207
-1.5 -23.8 12.3 205 205 205
-1.2 -23.7 12.3 203 203 203
-0.3 -23.9 12.4 203 203 203
-0.0 -23.8 12.4 199 199 199
0.3 -23.8 12.3 203 203 203
0.5 -23.8 12.3 199 199 199
1.4 -24.0 12.4 195 195 195
1.7 -23.8 12.4 195 195 195
2.0 -23.9 12.4 195 195 195
2.3 -23.9 12.4 195 195 195
2.9 -24.0 12.4 192 192 192
3.1 -23.8 12.4 192 192 192
3.4 -23.9 12.4 189 189 189
4.0 -23.9 12.4 186 186 186
4.3 -23.7 12.3 183 183 183
5.7 -23.9 12.4 204 204 204
6.0 -23.9 12.4 207 207 207
6.3 -23.8 12.3 209 209 209
7.2 -24.0 12.4 209 209 209
7.5 -24.0 12.4 209 209 209
7.8 -23.9 12.4 209 209 209
8.0 -23.9 12.4 209 209 209
8.3 -23.9 12.4 207 207 207
8.6 -23.9 12.4 207 207 207
8.9 -23.9 12.4 207 207 207
9.2 -23.9 12.4 207 207 207
9.5 -23.9 12.4 207 207 207
9.7 -23.9 12.4 207 207 207
10.0 -23.9 12.4 207 207 207
10.3 -23.9 12.4 207 207 207
10.6 -23.9 12.4 207 207 207
10.9 -23.9 12.4 207 207 207
11.2 -23.9 12.4 207 207 207
11.5 -23.9 12.4 207 207 207
11.7 -23.8 12.4 207 207 207
12.0 -23.8 12.3 207 207 207
12.3 -23.7 12.3 207 207 207
12.6 -23.8 12.3 204 204 204
12.9 -23.8 12.4 207 207 207
13.2 -23.9 12.4 207 207 207
13.5 -23.9 12.4 207 207 207
14.1 -23.9 12.4 207 207 207
14.4 -23.9 12.4 207 207 207
14.5 -23.7 12.3 207 207 207
14.9 -23.9 12.4 207 207 207
15.2 -23.9 12.4 207 207 207
15.5 -23.9 12.4 207 207 207
15.8 -23.9 12.4 207 207 207
16.1 -23.9 12.4 207 207 207
44.0 -63.1 32.7 207 207 207
42.2 -59.5 30.9 207 207 207
44.7 -60.0 31.1 207 207 207
46.7 -61.6 32.0 207 207 207
47.7 -61.9 32.1 207 207 207
47.1 -60.2 31.2 207 207 207
47.6 -59.9 31.1 207 207 207
47.3 -58.6 30.4 207 207 207
48.0 -58.6 30.4 207 207 207
50.2 -59.6 30.9 207 207 207
49.5 -58.0 30.1 205 205 205
50.3 -58.1 30.1 205 205 205
28.1 -28.1 14.6 204 204 204
28.3 -28.0 14.5 204 204 204
147.1 -78.3 40.6 160 163 162
-35.4 -24.0 12.6 60 62 60
-35.6 -24.3 12.7 58 58 58
-35.0 -24.1 12.7 60 62 60
-34.9 -24.2 12.7 60 62 60
-34.4 -24.1 12.6 60 62 60
-34.2 -24.1 12.7 61 63 61
-34.0 -24.2 12.7 61 63 61
-33.7 -24.2 12.7 64 64 64
-33.4 -24.2 12.7 64 64 64
-33.0 -24.1 12.7 64 64 64
-31.6 -24.2 12.7 59 59 59
-31.2 -24.1 12.7 58 58 58
-30.5 -24.2 12.7 53 52 51
-30.2 -24.2 12.7 50 50 50
-29.7 -24.1 12.7 54 53 52
-29.5 -24.1 12.7 54 53 52
-29.2 -24.1 12.7 54 53 52
-28.9 -24.1 12.7 56 56 56
-28.5 -24.0 12.6 54 53 52
-28.2 -24.0 12.6 51 51 51
-27.9 -24.0 12.6 51 51 51
-27.8 -24.2 12.7 54 53 52
-27.5 -24.2 12.7 55 54 53
-27.2 -24.2 12.7 55 54 53
-26.8 -24.1 12.7 52 52 52
-26.6 -24.2 12.7 52 52 52
-26.2 -24.1 12.7 52 52 52
-25.3 -24.1 12.7 50 50 50
-25.1 -24.2 12.7 47 48 47
-24.2 -24.1 12.7 46 46 46
-23.3 -24.2 12.7 44 44 44
-22.0 -24.3 12.8 45 44 43
-21.8 -24.5 12.9 42 42 42
-21.4 -24.3 12.7 41 43 42
-20.9 -24.1 12.7 41 43 42
-20.6 -24.1 12.7 41 43 42
-20.4 -24.1 12.7 39 39 39
-18.9 -24.1 12.7 18 18 18
-17.6 -24.0 12.6 20 20 20
-11.3 -24.2 12.7 29 31 29
-10.9 -24.1 12.6 32 31 30
-10.5 -23.9 12.5 36 38 37
-10.2 -23.8 12.5 42 43 42
-10.1 -24.3 12.8 176 176 176
-9.9 -24.5 12.9 184 184 184
2.3 -24.0 12.6 194 194 194
8.5 -24.2 12.7 209 209 209
8.8 -24.1 12.7 210 213 212
9.1 -24.2 12.7 209 209 209
9.4 -24.2 12.7 207 207 207
9.6 -24.0 12.6 207 207 207
10.0 -24.1 12.7 207 207 207
10.3 -24.2 12.7 207 207 207
10.6 -24.2 12.7 207 207 207
10.9 -24.2 12.7 207 207 207
11.2 -24.2 12.7 207 207 207
11.5 -24.3 12.8 207 207 207
11.8 -24.3 12.7 207 207 207
12.0 -24.0 12.6 207 207 207
12.2 -24.0 12.6 207 207 207
13.3 -24.2 12.7 207 207 207
14.4 -24.2 12.7 207 207 207
14.6 -24.0 12.6 207 207 207
15.7 -24.3 12.7 207 207 207
15.9 -24.1 12.7 207 207 207
16.2 -24.2 12.7 207 207 207
41.9 -58.3 30.6 207 207 207
44.5 -58.9 30.9 206 206 206
47.5 -61.0 32.0 206 206 206
46.6 -58.9 30.9 206 206 206
47.2 -58.7 30.8 206 206 206
45.9 -56.3 29.6 207 207 207
47.8 -57.7 30.3 207 207 207
45.6 -54.3 28.5 207 207 207
46.8 -54.8 28.8 207 207 207
48.4 -55.9 29.4 207 207 207
49.5 -56.5 29.6 205 205 205
48.4 -54.4 28.6 205 205 205
28.2 -27.8 14.6 206 206 206
28.4 -27.7 14.6 206 206 206
28.5 -27.5 14.5 204 204 204
31.5 -30.0 15.8 204 204 204
30.8 -29.1 15.3 204 204 204
134.7 -70.4 36.9 159 159 159
135.0 -70.1 36.8 151 151 151
-36.6 -24.5 13.0 61 63 61
-36.6 -24.6 13.1 61 63 61
-36.2 -24.6 13.1 61 63 61
-35.9 -24.6 13.1 61 63 61
-35.6 -24.6 13.1 65 65 65
-35.2 -24.5 13.0 65 65 65
-35.2 -24.7 13.1 65 65 65
-34.7 -24.6 13.1 65 65 65
-34.6 -24.7 13.2 65 65 65
-34.2 -24.7 13.1 65 65 65
-33.8 -24.6 13.1 65 65 65
-33.6 -24.7 13.1 65 65 65
-33.2 -24.6 13.1 62 64 61
-32.9 -24.6 13.1 62 64 61
-32.7 -24.7 13.1 60 60 60
-32.3 -24.6 13.1 60 60 60
-32.0 -24.7 13.1 60 60 60
-31.8 -24.7 13.1 58 59 59
-31.4 -24.6 13.1 56 56 56
-31.1 -24.6 13.1 54 53 52
-30.8 -24.6 13.1 56 56 56
-30.5 -24.6 13.1 56 56 56
-30.2 -24.6 13.1 55 54 53
-29.9 -24.7 13.1 55 54 53
-29.6 -24.7 13.1 55 54 53
-29.2 -24.6 13.1 55 54 53
-28.9 -24.6 13.1 55 54 53
-28.7 -24.6 13.1 56 55 54
-28.4 -24.6 13.1 56 55 54
-28.1 -24.6 13.1 56 55 54
-27.8 -24.7 13.1 56 55 54
-27.4 -24.6 13.1 53 52 52
-27.1 -24.6 13.1 53 52 52
-26.9 -24.7 13.1 53 52 52
-26.5 -24.6 13.1 53 53 53
-26.2 -24.6 13.1 51 51 51
-25.9 -24.6 13.1 49 49 49
-25.7 -24.7 13.1 49 49 49
-25.3 -24.6 13.1 47 47 47
-24.7 -24.6 13.1 47 48 47
-24.4 -24.7 13.1 47 48 47
-23.6 -24.7 13.1 45 44 43
-23.2 -24.7 13.1 45 44 43
-22.9 -24.7 13.1 45 44 43
-22.6 -24.7 13.1 46 45 43
-22.3 -24.7 13.1 42 43 42
-22.0 -24.6 13.1 43 43 43
-21.5 -24.5 13.0 42 44 43
-11.5 -24.4 13.0 57 57 57
-11.1 -24.1 12.8 64 65 63
-10.6 -23.7 12.6 36 37 36
-10.3 -23.7 12.6 50 50 50
-10.4 -24.7 13.1 180 180 180
-10.1 -24.7 13.1 186 188 187
-9.8 -24.6 13.1 184 187 186
41.4 -56.9 30.3 206 206 206
46.1 -57.5 30.6 206 206 206
46.0 -56.5 30.0 206 206 206
45.5 -55.1 29.3 206 206 206
45.7 -54.5 29.0 206 206 206
45.5 -53.4 28.4 206 206 206
46.6 -54.0 28.7 206 206 206
47.9 -54.8 29.1 207 207 207
49.4 -55.6 29.6 209 209 209
48.3 -53.6 28.5 209 209 209
28.4 -27.4 14.6 206 206 206
28.5 -27.2 14.5 206 206 206
31.5 -29.7 15.8 203 203 203
29.9 -27.6 14.7 204 204 204
133.4 -68.8 36.6 160 163 162
137.5 -70.1 37.2 143 143 142
-37.3 -24.6 13.3 62 64 61
-37.0 -24.6 13.3 59 59 59
-33.7 -24.7 13.3 63 64 62
-33.3 -24.6 13.3 63 64 62
-32.2 -24.7 13.3 59 59 59
-31.8 -24.6 13.3 57 57 57
-31.5 -24.6 13.3 57 57 57
-31.2 -24.6 13.3 57 57 57
-30.9 -24.6 13.3 58 58 58
-30.5 -24.6 13.3 56 55 54
-30.2 -24.6 13.3 56 55 54
-26.5 -24.6 13.2 53 52 52
-26.3 -24.7 13.3 53 52 52
-25.9 -24.6 13.3 53 52 52
-25.0 -24.6 13.3 48 48 48
-22.5 -24.6 13.3 43 45 44
-22.2 -24.6 13.2 44 44 44
-21.7 -24.4 13.2 44 44 44
-11.1 -23.9 12.9 90 90 90
-10.7 -23.6 12.7 26 26 26
-10.3 -23.4 12.6 47 47 47
-10.5 -24.6 13.3 184 187 186
-10.1 -24.5 13.2 182 185 184
46.6 -58.3 31.4 206 206 206
46.4 -57.2 30.8 206 206 206
46.6 -56.6 30.5 206 206 206
45.7 -54.7 29.4 206 206 206
47.7 -56.2 30.2 206 206 206
45.5 -52.8 28.4 206 206 206
49.2 -55.5 29.9 206 206 206
50.3 -56.0 30.1 206 206 206
48.8 -53.5 28.8 206 206 206
28.5 -27.1 14.6 205 205 205
28.5 -26.9 14.5 205 205 205
31.7 -29.5 15.9 205 205 205
30.1 -27.4 14.7 203 203 203
148.7 -76.2 41.0 167 167 167
135.8 -69.2 37.2 160 163 162
141.4 -71.2 38.3 145 145 144
-36.5 -23.8 13.0 62 64 61
-36.3 -23.8 13.0 66 66 66
-35.9 -23.8 13.0 66 66 66
-35.0 -23.8 13.0 66 66 66
-32.9 -23.8 13.0 64 65 63
-32.6 -23.8 13.0 64 65 63
-32.3 -23.8 13.0 62 62 62
-31.4 -23.8 13.0 60 60 60
-31.1 -23.8 13.0 60 60 60
-30.8 -23.8 13.0 60 60 60
-30.5 -23.8 13.0 58 58 58
-30.2 -23.8 13.0 58 59 59
-29.9 -23.8 13.0 58 59 59
-29.6 -23.8 13.0 57 56 55
-27.2 -23.8 13.0 58 58 56
-26.0 -23.8 13.0 53 53 53
-25.7 -23.8 13.0 53 53 53
-25.4 -23.8 13.0 53 53 53
-25.1 -23.8 13.0 51 51 51
-24.5 -23.8 13.0 49 49 49
-24.1 -23.8 13.0 50 50 50
-21.8 -23.8 13.0 43 45 45
-21.4 -23.7 12.9 43 45 45
-11.2 -23.7 12.9 79 79 79
-10.8 -23.6 12.8 27 27 27
-10.3 -23.9 13.0 183 186 185
41.6 -55.8 30.4 205 205 205
44.4 -56.6 30.9 205 205 205
47.1 -58.2 31.7 205 205 205
46.6 -56.7 30.9 208 208 208
47.1 -56.4 30.8 205 205 205
46.5 -54.9 29.9 205 205 205
47.8 -55.6 30.3 205 205 205
45.7 -52.4 28.5 205 205 205
49.7 -55.4 30.2 206 206 206
50.6 -55.5 30.3 206 206 206
49.1 -53.2 29.0 206 206 206
51.9 -55.4 30.2 206 206 206
52.5 -55.4 30.2 206 206 206
28.8 -27.1 14.8 205 205 205
101.0 -51.5 28.1 166 166 166
-36.5 -23.5 12.9 66 66 66
-36.2 -23.5 13.0 66 66 66
-35.9 -23.5 13.0 67 67 67
-35.5 -23.5 12.9 67 67 67
-35.2 -23.5 12.9 67 67 67
-34.9 -23.4 12.9 67 67 67
-34.6 -23.4 12.9 67 67 67
-33.5 -23.5 13.0 67 67 67
-32.9 -23.5 13.0 67 67 67
-32.5 -23.5 12.9 65 66 64
-32.2 -23.4 12.9 63 63 63
-32.0 -23.5 13.0 63 63 63
-31.4 -23.5 13.0 61 61 61
-31.1 -23.5 13.0 61 61 61
-30.8 -23.5 13.0 63 63 63
-30.5 -23.5 13.0 59 59 59
-30.1 -23.5 12.9 59 59 59
-29.9 -23.5 13.0 62 62 62
-29.6 -23.5 13.0 59 59 59
-29.2 -23.5 12.9 57 57 55
-28.6 -23.4 12.9 58 58 56
-28.3 -23.5 12.9 58 58 56
-28.1 -23.5 13.0 58 58 56
-27.8 -23.5 13.0 58 58 56
-27.5 -23.5 13.0 59 59 57
-27.1 -23.5 13.0 61 61 61
-26.8 -23.5 12.9 59 59 57
-26.6 -23.5 13.0 56 56 56
-26.2 -23.5 13.0 54 54 54
-25.9 -23.5 13.0 54 54 54
-25.6 -23.5 12.9 54 54 54
-25.4 -23.5 13.0 52 52 52
-25.0 -23.4 12.9 53 52 52
-24.6 -23.4 12.9 53 52 52
-24.5 -23.5 13.0 53 52 52
-24.1 -23.4 12.9 51 51 51
-23.4 -23.6 13.0 49 49 49
-22.7 -23.5 13.0 48 47 46
-22.4 -23.5 13.0 48 47 46
-22.1 -23.6 13.0 46 46 46
-21.8 -23.5 13.0 44 46 46
-21.3 -23.4 12.9 44 46 46
-21.1 -23.4 12.9 47 47 47
-11.4 -23.4 12.9 97 97 97
-11.1 -23.4 12.9 66 66 66
-10.8 -23.2 12.8 51 51 49
-10.4 -23.2 12.8 55 55 55
-10.3 -23.6 13.0 184 187 186
43.9 -59.1 32.6 207 207 207
42.6 -56.4 31.1 207 207 207
44.8 -57.3 31.6 205 205 205
44.8 -56.5 31.2 205 205 205
47.6 -58.1 32.1 207 207 207
47.1 -56.6 31.3 207 207 207
47.6 -56.4 31.1 207 207 207
48.1 -56.1 31.0 207 207 207
48.8 -56.0 30.9 208 208 208
46.3 -52.4 28.9 205 205 205
51.0 -56.9 31.4 205 205 205
50.8 -55.9 30.9 205 205 205
51.1 -55.5 30.6 205 205 205
53.2 -56.2 31.0 205 205 205
53.5 -55.7 30.8 205 205 205
96.0 -48.0 26.5 162 165 164
-36.7 -23.3 13.0 67 67 67
-36.5 -23.4 13.1 67 67 67
-36.1 -23.3 13.1 67 67 67
-36.0 -23.5 13.1 67 67 67
-35.5 -23.3 13.1 67 67 67
-35.1 -23.3 13.0 70 72 69
-35.1 -23.5 13.1 67 67 67
-34.8 -23.4 13.1 67 67 67
-34.6 -23.5 13.1 67 67 67
-34.2 -23.5 13.1 68 68 68
-33.8 -23.4 13.1 68 68 68
-33.2 -23.4 13.1 68 68 68
-32.9 -23.4 13.1 68 68 68
-32.7 -23.5 13.1 68 68 68
-32.3 -23.4 13.1 67 68 66
-32.0 -23.4 13.1 67 68 66
-31.7 -23.4 13.1 62 62 62
-31.4 -23.4 13.1 62 62 62
-31.1 -23.4 13.1 62 62 62
-30.7 -23.4 13.1 60 60 60
-30.4 -23.3 13.1 60 60 60
-30.1 -23.4 13.1 63 63 63
-29.9 -23.4 13.1 63 63 63
-29.6 -23.4 13.1 60 60 60
-28.7 -23.5 13.1 59 59 57
-28.3 -23.4 13.1 59 59 57
-28.0 -23.4 13.1 59 59 57
-27.7 -23.4 13.1 60 59 58
-27.4 -23.4 13.1 60 59 58
-27.0 -23.3 13.0 60 59 58
-26.9 -23.4 13.1 57 57 57
-26.5 -23.4 13.1 58 58 58
-26.1 -23.3 13.1 58 58 58
-25.9 -23.4 13.1 56 56 56
-25.6 -23.4 13.1 56 56 56
-25.1 -23.3 13.0 53 53 53
-25.0 -23.4 13.1 53 53 53
-24.7 -23.4 13.1 53 53 53
-24.3 -23.3 13.0 54 54 54
-23.9 -23.3 13.0 54 54 54
-23.5 -23.5 13.1 50 50 50
-22.6 -23.5 13.1 49 48 47
-22.3 -23.5 13.1 47 47 47
-21.9 -23.4 13.1 45 47 46
-21.5 -23.2 13.0 45 47 46
-11.4 -23.1 12.9 38 38 38
-11.2 -23.1 12.9 41 41 41
-10.8 -23.0 12.8 50 50 50
-10.4 -23.5 13.1 184 187 186
-10.1 -23.4 13.1 180 183 182
-9.8 -23.5 13.2 181 184 183
42.9 -56.1 31.4 207 207 207
41.6 -53.4 29.9 207 207 207
45.5 -56.6 31.6 204 204 204
48.5 -58.4 32.7 207 207 207
47.7 -56.6 31.6 207 207 207
48.0 -56.0 31.3 207 207 207
48.3 -55.6 31.1 207 207 207
47.8 -54.2 30.3 207 207 207
71.6 -80.0 44.7 207 207 207
51.9 -56.4 31.5 207 207 207
51.9 -55.6 31.1 207 207 207
54.0 -56.2 31.4 208 208 208
53.7 -55.2 30.9 205 205 205
95.2 -47.0 26.3 161 164 163
91.2 -44.8 25.0 159 162 161
-33.2 -24.2 13.7 60 60 60
-32.8 -24.2 13.7 63 63 63
-31.9 -24.2 13.7 61 61 61
-10.6 -23.6 13.4 189 189 189
-10.2 -23.4 13.3 179 182 181
-10.2 -24.2 13.7 178 181 180
42.9 -55.3 31.3 207 207 207
45.4 -55.7 31.6 207 207 207
48.8 -58.0 32.8 207 207 207
47.7 -55.8 31.6 207 207 207
47.7 -55.0 31.2 207 207 207
48.0 -54.6 30.9 207 207 207
47.8 -53.5 30.3 207 207 207
51.8 -56.3 31.9 207 207 207
52.0 -55.7 31.6 207 207 207
51.2 -54.1 30.7 207 207 207
52.9 -55.1 31.2 207 207 207
54.0 -55.5 31.4 207 207 207
53.8 -54.6 30.9 207 207 207
94.5 -46.1 26.1 166 166 166
89.6 -43.4 24.6 159 162 161
87.4 -42.1 23.8 155 155 155
-34.4 -24.5 14.1 68 70 68
-33.9 -24.4 14.0 66 66 66
-33.4 -24.3 14.0 68 70 68
-10.3 -24.1 13.9 182 182 182
-10.2 -24.7 14.2 178 181 180
-9.9 -24.7 14.2 212 214 214
42.7 -54.4 31.2 206 206 206
45.2 -54.7 31.4 206 206 206
48.8 -57.3 32.9 206 206 206
47.4 -54.7 31.4 206 206 206
47.7 -54.3 31.2 203 203 203
48.1 -53.9 31.0 206 206 206
48.7 -53.8 30.9 206 206 206
52.0 -55.0 31.6 207 207 207
51.6 -53.8 30.9 207 207 207
52.7 -54.2 31.1 207 207 207
54.0 -54.8 31.5 207 207 207
54.1 -54.1 31.1 207 207 207
56.7 -56.0 32.2 207 207 207
88.5 -42.3 24.3 159 162 161
86.7 -41.1 23.6 155 155 155
-34.5 -24.3 14.1 68 70 68
-34.1 -24.2 14.1 67 67 67
-10.5 -24.2 14.1 182 182 182
-10.3 -24.5 14.2 183 183 183
-10.0 -24.4 14.2 203 203 203
42.8 -53.7 31.3 206 206 206
45.0 -53.7 31.3 206 206 206
48.7 -56.3 32.8 203 203 203
47.5 -54.2 31.5 206 206 206
47.9 -53.7 31.3 207 210 209
48.8 -53.2 31.0 207 210 209
51.6 -54.6 31.8 207 210 209
52.5 -54.7 31.8 207 210 209
51.8 -53.3 31.0 208 211 210
52.7 -53.5 31.1 208 211 210
54.4 -54.5 31.7 208 211 210
54.2 -53.6 31.2 207 207 207
56.4 -55.0 32.0 204 204 204
56.6 -54.5 31.7 204 204 204
76.5 -39.0 22.7 177 180 179
76.7 -38.9 22.6 175 175 175
-35.2 -24.4 14.4 71 71 71
-34.8 -24.4 14.4 71 71 71
-10.6 -24.1 14.2 180 183 182
-10.4 -24.4 14.4 182 182 182
-10.1 -24.6 14.5 194 194 194
42.9 -53.2 31.4 207 210 209
44.9 -52.9 31.2 206 209 208
48.2 -55.0 32.4 206 206 206
47.6 -53.5 31.6 206 209 208
48.0 -53.1 31.3 206 209 208
47.4 -51.0 30.1 207 210 209
92.7 -95.5 56.3 207 210 209
51.8 -52.6 31.0 207 210 209
54.6 -53.9 31.8 207 210 209
54.5 -53.1 31.3 207 210 209
56.4 -54.2 32.0 206 206 206
56.6 -53.7 31.7 206 206 206
77.5 -39.0 23.0 178 181 180
77.3 -38.6 22.8 176 176 176
77.7 -38.6 22.8 176 176 176
-11.2 -25.1 15.0 179 179 179
-10.8 -25.0 14.9 178 181 180
41.9 -50.3 30.1 206 209 208
44.7 -52.0 31.1 206 209 208
47.8 -53.9 32.2 206 209 208
47.4 -52.5 31.4 206 209 208
47.8 -52.2 31.2 205 205 205
47.3 -50.1 30.0 206 209 208
46.0 -48.0 28.7 206 209 208
51.4 -51.4 30.8 206 206 206
54.5 -53.1 31.7 207 210 209
54.3 -52.2 31.2 207 210 209
56.2 -53.3 31.8 207 210 209
56.6 -53.0 31.7 207 210 209
43.8 -38.0 22.7 208 211 210
49.7 -41.7 24.9 207 207 207
47.6 -39.4 23.6 205 205 205
47.5 -38.9 23.2 207 207 207
78.0 -38.7 23.2 179 182 181
77.6 -38.3 22.9 177 177 177
78.8 -38.6 23.1 177 177 177
79.6 -38.7 23.2 177 177 177
46.8 -21.2 12.7 148 150 150
-11.0 -25.9 15.7 160 160 160
45.0 -52.4 31.8 206 209 208
44.7 -51.3 31.1 206 209 208
48.5 -53.9 32.7 206 209 208
47.5 -52.0 31.5 206 209 208
47.8 -51.5 31.2 206 209 208
48.6 -50.8 30.8 209 212 211
53.0 -51.6 31.3 206 209 208
54.7 -52.5 31.8 207 210 209
54.4 -51.6 31.3 207 210 209
57.5 -53.8 32.6 207 210 209
57.4 -53.0 32.1 207 210 209
44.3 -38.4 23.3 208 211 210
44.2 -37.8 22.9 208 211 210
49.4 -40.8 24.7 208 211 210
48.3 -39.5 23.9 208 211 210
48.5 -39.1 23.7 207 207 207
78.0 -38.2 23.2 180 183 182
77.2 -37.5 22.8 178 178 178
78.5 -37.9 23.0 178 178 178
80.6 -38.7 23.4 178 178 178
47.7 -21.4 13.0 159 159 159
47.2 -21.1 12.8 149 151 151
46.5 -20.6 12.5 144 144 144
-12.6 -26.6 16.3 183 186 185
-12.1 -26.3 16.2 182 185 184
-11.6 -26.0 16.0 177 177 177
-11.2 -26.0 16.0 156 159 158
49.1 -53.8 33.1 204 204 204
48.9 -50.4 31.0 208 211 210
53.9 -51.7 31.8 209 212 211
55.1 -52.2 32.1 209 212 211
55.1 -51.5 31.7 206 209 208
61.4 -56.6 34.8 206 206 206
62.0 -56.4 34.7 207 210 209
46.4 -40.1 24.7 207 210 209
46.7 -39.9 24.5 207 210 209
44.7 -37.7 23.2 208 211 210
49.2 -40.5 24.9 208 211 210
49.6 -40.4 24.9 208 211 210
49.5 -39.9 24.5 208 211 210
50.0 -39.8 24.5 205 205 205
78.1 -37.5 23.0 179 179 179
80.0 -38.1 23.4 177 177 177
81.7 -38.6 23.8 179 179 179
48.0 -21.1 13.0 151 153 153
47.2 -20.7 12.7 146 146 146
46.8 -20.3 12.5 138 138 138
-12.7 -26.5 16.5 184 187 186
-12.2 -26.2 16.4 183 186 185
-11.7 -25.9 16.2 178 178 178
-11.6 -26.6 16.6 159 162 161
-11.3 -26.7 16.7 155 158 157
12.0 -16.6 10.4 205 208 207
14.0 -16.7 10.4 205 208 207
55.9 -52.2 32.6 209 212 211
55.5 -51.1 31.9 209 212 211
63.7 -57.9 36.1 206 209 208
63.7 -57.1 35.6 206 209 208
44.8 -37.2 23.2 207 210 209
50.1 -40.2 25.1 208 211 210
49.7 -39.5 24.6 208 211 210
78.2 -37.2 23.2 181 184 183
77.6 -36.7 22.9 182 185 184
78.8 -37.0 23.1 180 180 180
80.8 -37.7 23.5 180 180 180
80.7 -37.4 23.3 180 180 180
-12.8 -26.3 16.6 187 189 189
-12.3 -26.1 16.5 184 184 184
-11.8 -25.7 16.3 180 180 180
-11.8 -26.5 16.8 168 168 168
-11.4 -26.5 16.8 162 162 162
-10.9 -26.3 16.7 155 158 157
66.5 -59.5 37.7 209 212 211
75.8 -36.0 22.8 181 184 183
75.1 -35.5 22.5 182 185 184
76.3 -35.8 22.7 182 185 184
77.0 -35.9 22.7 183 186 185
77.5 -35.9 22.7 181 181 181
79.0 -36.3 23.0 181 181 181
79.2 -36.2 22.9 181 181 181
77.7 -35.2 22.3 181 181 181
-11.8 -26.3 16.9 172 172 172
-11.4 -26.3 16.9 166 166 166
67.0 -59.1 38.0 209 212 211
72.1 -62.8 40.3 209 212 211
75.5 -35.1 22.6 183 186 185
76.5 -35.3 22.7 183 186 185
77.1 -35.4 22.7 184 187 186
77.6 -35.4 22.7 182 182 182
78.8 -35.7 22.9 182 182 182
79.1 -35.6 22.9 182 182 182
78.4 -35.0 22.5 182 182 182
-42.8 -26.1 17.0 68 68 68
-42.2 -26.0 17.0 57 57 55
-41.8 -26.0 17.0 38 38 38
-41.5 -26.0 17.0 34 34 34
-41.2 -26.1 17.0 34 34 34
-40.9 -26.1 17.1 33 32 30
-32.6 -26.2 17.1 74 75 73
-31.9 -25.9 16.9 52 52 52
-15.0 -16.5 10.8 47 49 48
-13.1 -16.3 10.6 33 33 33
-12.2 -25.9 16.9 181 181 181
-11.9 -26.0 16.9 173 175 175
-11.5 -26.0 17.0 169 169 169
146.3 -132.4 86.4 208 211 210
67.1 -58.3 38.1 208 211 210
72.8 -62.5 40.8 208 211 210
77.7 -35.1 22.9 186 188 187
78.0 -35.0 22.8 186 188 187
79.3 -35.4 23.1 183 183 183
79.6 -35.3 23.0 183 183 183
78.9 -34.7 22.7 183 183 183
-43.7 -26.0 17.2 35 35 35
-43.3 -26.0 17.2 52 52 52
-42.7 -25.9 17.1 46 46 46
-42.3 -25.9 17.2 40 42 42
-42.0 -25.9 17.2 35 35 35
-41.6 -25.9 17.2 40 42 42
-41.2 -25.9 17.2 46 46 46
-40.8 -26.0 17.2 46 46 46
-40.4 -26.0 17.2 37 38 37
-39.9 -25.9 17.1 33 32 30
-39.5 -25.9 17.1 29 31 29
-39.2 -25.9 17.2 29 31 29
-39.0 -26.1 17.3 30 31 30
-36.8 -26.2 17.4 54 54 54
-32.9 -26.1 17.3 62 62 62
-32.3 -25.8 17.1 65 65 65
-15.2 -17.0 11.3 27 27 27
-13.1 -16.1 10.6 33 35 33
-12.4 -25.9 17.1 176 179 178
-11.9 -25.7 17.0 175 177 177
-11.5 -25.7 17.0 170 171 170
146.3 -134.1 88.8 207 210 209
139.2 -125.8 83.3 207 210 209
150.4 -134.1 88.8 207 210 209
163.2 -143.5 95.1 207 210 209
173.3 -150.3 99.6 208 211 210
78.0 -34.5 22.8 187 189 189
79.2 -34.8 23.0 184 184 184
79.5 -34.7 23.0 184 184 184
78.9 -34.2 22.7 184 184 184
79.4 -34.2 22.7 184 184 184
-48.1 -27.9 18.8 27 27 27
-47.5 -27.8 18.7 33 32 30
-47.1 -27.8 18.7 26 26 26
-46.5 -27.7 18.7 24 24 24
-46.0 -27.7 18.6 26 26 26
-45.5 -27.7 18.6 27 27 27
-44.7 -27.5 18.5 38 38 38
-44.5 -27.6 18.5 53 52 52
-44.3 -27.8 18.7 62 62 62
-43.0 -27.2 18.3 59 59 59
-43.5 -27.8 18.7 48 48 48
-42.7 -27.5 18.5 42 42 42
-42.2 -27.5 18.5 37 38 37
-42.4 -27.9 18.8 42 42 42
-40.2 -27.9 18.8 19 19 19
-39.0 -27.4 18.4 34 34 34
-37.9 -26.9 18.1 34 34 34
-36.1 -27.8 18.7 67 69 67
-35.4 -27.6 18.6 70 70 70
-17.0 -16.9 11.4 26 26 26
-15.3 -16.9 11.4 33 35 33
-12.0 -25.5 17.1 176 179 178
-11.6 -25.5 17.1 174 174 174
-12.3 -27.9 18.8 173 173 173
149.8 -135.2 90.9 206 209 208
162.6 -142.7 96.0 207 210 209
171.0 -148.0 99.6 207 210 209
197.1 -168.4 113.3 207 210 209
298.4 -219.7 147.8 210 213 212
77.8 -33.9 22.8 188 190 190
78.7 -34.0 22.9 185 185 185
79.1 -34.0 22.9 185 185 185
78.7 -33.6 22.6 185 185 185
79.3 -33.6 22.6 185 185 185
79.6 -33.5 22.5 185 185 185
-48.8 -28.7 19.6 34 34 34
-47.7 -28.3 19.3 15 15 15
-47.3 -28.3 19.3 27 27 27
-46.8 -28.3 19.3 33 32 30
-46.4 -28.3 19.3 54 54 54
-45.9 -28.3 19.3 70 72 69
-45.5 -28.3 19.3 70 72 69
-45.0 -28.3 19.3 66 67 65
-44.6 -28.3 19.3 48 48 48
-44.1 -28.3 19.3 59 59 59
-44.3 -28.7 19.6 59 59 59
-42.0 -28.7 19.6 69 69 69
-41.0 -28.3 19.3 28 28 28
-40.5 -28.3 19.3 10 10 10
-40.1 -28.3 19.3 7 13 9
-40.2 -28.7 19.6 17 17 17
-38.3 -28.7 19.6 61 61 61
-37.4 -28.3 19.3 57 57 57
-37.4 -28.7 19.6 67 69 67
-35.1 -28.7 19.6 70 70 70
-33.0 -28.8 19.7 180 183 182
-32.4 -28.7 19.6 181 181 181
-31.1 -28.7 19.6 30 29 29
-30.6 -28.7 19.6 30 30 30
-29.2 -28.7 19.6 28 28 28
-28.4 -28.3 19.3 28 28 28
-27.9 -28.3 19.3 28 28 28
-27.9 -28.7 19.6 33 34 32
-27.4 -28.6 19.6 29 29 29
-26.5 -28.2 19.3 29 29 29
-26.2 -28.4 19.4 26 26 26
-25.8 -28.4 19.4 89 89 89
-25.3 -28.4 19.4 129 132 131
-25.1 -28.6 19.6 150 152 152
-24.6 -28.6 19.5 61 61 61
-23.8 -28.2 19.3 45 47 46
-23.8 -28.7 19.6 74 74 74
-23.3 -28.7 19.6 124 127 126
-22.8 -28.6 19.6 137 137 137
-12.8 -28.7 19.6 170 171 170
-2.4 -14.7 10.0 168 168 168
0.7 -14.6 10.0 154 154 154
0.9 -14.6 10.0 155 155 155
3.0 -14.7 10.0 156 156 156
11.8 -14.7 10.0 207 210 209
13.7 -14.7 10.0 206 209 208
14.4 -14.6 10.0 205 208 207
225.6 -192.2 131.4 207 210 209
218.0 -183.3 125.3 207 210 209
236.6 -196.3 134.2 207 210 209
250.4 -205.0 140.1 207 210 209
244.6 -197.7 135.1 208 211 210
245.9 -196.3 134.2 208 211 210
245.6 -193.5 132.3 208 211 210
286.9 -217.9 148.9 209 212 211
279.4 -209.7 143.3 209 212 211
298.4 -216.2 147.8 209 212 211
257.6 -184.5 126.1 210 213 212
78.9 -33.3 22.8 188 188 188
78.5 -33.0 22.5 188 188 188
78.3 -32.7 22.3 188 188 188
77.6 -32.1 22.0 188 188 188
75.0 -30.9 21.1 184 184 184
-50.1 -29.0 20.1 49 49 49
-49.6 -29.0 20.1 156 159 158
-49.2 -29.0 20.1 178 181 180
-48.7 -29.0 20.1 177 177 177
-48.2 -29.0 20.1 127 127 127
-47.8 -29.0 20.1 78 80 78
-47.3 -29.0 20.1 78 80 78
-46.8 -29.0 20.1 73 73 73
-46.4 -29.0 20.1 130 130 130
-45.9 -29.0 20.1 165 168 167
-45.4 -29.0 20.1 161 161 161
-34.2 -29.0 20.1 191 191 191
-33.7 -29.0 20.1 176 176 176
-29.1 -29.0 20.1 101 100 98
-28.6 -28.9 20.1 101 100 98
-26.7 -29.0 20.1 28 28 28
-26.3 -29.0 20.1 22 25 23
-25.8 -28.9 20.1 33 34 32
-25.3 -28.9 20.1 103 103 103
-14.1 -28.9 20.1 178 178 178
-13.6 -28.9 20.0 173 173 173
-13.2 -29.0 20.1 141 141 141
-12.7 -28.9 20.1 31 31 31
-3.8 -14.4 10.0 132 132 132
8.4 -14.4 10.0 212 213 212
8.6 -14.4 10.0 212 213 212
8.8 -14.4 10.0 212 213 212
9.0 -14.4 10.0 212 213 212
9.3 -14.4 10.0 212 213 212
9.5 -14.4 10.0 207 210 209
9.8 -14.4 10.0 207 210 209
10.0 -14.4 10.0 207 210 209
10.2 -14.4 10.0 207 210 209
10.5 -14.4 10.0 207 210 209
10.7 -14.4 10.0 207 210 209
10.9 -14.4 10.0 207 210 209
11.1 -14.4 10.0 211 211 211
11.4 -14.4 10.0 206 209 208
11.6 -14.4 10.0 206 209 208
11.9 -14.4 10.0 210 210 210
12.1 -14.4 10.0 206 209 208
12.5 -14.4 10.0 206 209 208
12.8 -14.4 10.0 206 209 208
13.0 -14.4 10.0 206 209 208
13.3 -14.4 10.0 206 209 208
13.5 -14.4 10.0 205 208 207
14.2 -14.4 10.0 205 208 207
14.4 -14.4 10.0 205 208 207
14.6 -14.4 10.0 205 208 207
219.5 -184.0 127.8 206 209 208
205.8 -170.2 118.2 207 210 209
233.3 -190.5 132.3 207 210 209
254.1 -204.8 142.2 207 210 209
248.1 -197.4 137.1 207 210 209
245.9 -193.2 134.2 207 210 209
289.2 -216.2 150.1 208 211 210
279.4 -206.3 143.3 209 212 211
325.5 -234.8 163.1 209 212 211
298.4 -212.8 147.8 209 212 211
238.5 -168.1 116.8 209 212 211
76.0 -31.0 21.5 189 189 189
74.5 -30.2 21.0 185 185 185
72.7 -29.3 20.3 183 183 183
-50.6 -28.8 20.3 171 173 173
-50.2 -28.8 20.3 149 149 149
-49.6 -28.8 20.3 187 189 189
-49.2 -28.8 20.3 168 168 168
-48.7 -28.8 20.3 161 161 161
-48.2 -28.8 20.3 139 139 139
-47.8 -28.8 20.3 146 146 146
-47.3 -28.8 20.3 80 82 79
-46.9 -28.8 20.3 77 77 77
-46.4 -28.8 20.3 200 202 202
-45.9 -28.8 20.3 196 196 196
-45.4 -28.8 20.3 165 165 165
-45.0 -28.8 20.3 94 93 92
-34.6 -28.8 20.4 239 239 239
-34.1 -28.8 20.3 240 240 240
-33.6 -28.8 20.3 229 229 229
-31.3 -28.8 20.3 75 76 76
-30.8 -28.8 20.3 31 32 30
-30.3 -28.8 20.3 25 25 25
-29.8 -28.8 20.3 25 25 25
-29.3 -28.8 20.3 17 17 17
-28.9 -28.8 20.3 101 101 101
-27.5 -28.8 20.3 32 33 31
-27.0 -28.8 20.3 38 38 38
-26.5 -28.8 20.3 110 110 108
-26.0 -28.8 20.3 154 154 154
-14.2 -28.7 20.2 168 168 168
-13.6 -28.4 20.1 159 162 161
-13.2 -28.6 20.2 134 134 134
14.0 -14.2 10.0 205 208 207
14.2 -14.2 10.0 205 208 207
199.3 -164.4 116.1 206 209 208
192.5 -156.7 110.6 206 209 208
209.8 -168.5 119.0 206 209 208
266.1 -211.0 148.9 207 210 209
230.4 -165.4 116.8 209 212 211
300.8 -211.0 148.9 209 212 211
227.3 -157.6 111.3 209 212 211
76.1 -30.5 21.5 190 190 190
74.8 -29.8 21.1 186 186 186
72.7 -28.8 20.3 184 184 184
-38.5 -21.7 15.6 152 152 152
-38.1 -21.7 15.6 170 171 170
-37.8 -21.8 15.6 165 168 167
-37.4 -21.7 15.6 131 134 133
-37.0 -21.7 15.6 99 99 99
-36.6 -21.7 15.6 200 200 200
-36.3 -21.7 15.6 199 199 199
-36.0 -21.8 15.6 50 50 50
-35.6 -21.8 15.6 37 38 37
-35.2 -21.7 15.6 136 136 136
-34.8 -21.7 15.6 111 111 111
-34.4 -21.7 15.6 90 90 90
-13.4 -27.6 19.8 181 184 183
-13.0 -27.7 19.9 168 170 169
199.3 -161.7 116.1 210 210 210
190.3 -152.4 109.3 210 210 210
212.5 -167.9 120.5 210 210 210
313.0 -244.0 175.2 206 209 208
329.3 -227.2 163.1 209 212 211
220.8 -150.6 108.1 214 214 214
32.8 -19.9 14.3 195 195 195
33.1 -19.9 14.3 197 197 197
33.3 -19.8 14.2 197 197 197
76.6 -30.2 21.7 192 195 194
73.9 -29.0 20.8 188 188 188
71.4 -27.8 20.0 188 188 188
-38.4 -21.9 16.0 195 195 195
-36.1 -21.1 15.4 53 53 53
-34.4 -21.1 15.4 102 101 99
-13.6 -27.5 20.1 181 181 181
-13.1 -27.4 20.0 179 179 179
254.3 -205.7 150.1 209 209 209
232.0 -185.1 135.1 210 210 210
218.0 -171.6 125.3 210 210 210
271.2 -210.7 153.8 210 210 210
318.9 -244.5 178.5 210 210 210
317.0 -240.0 175.2 214 214 214
299.0 -223.4 163.1 211 211 211
240.5 -177.5 129.6 211 211 211
557.0 -386.8 282.3 212 213 212
321.0 -217.8 159.0 209 212 211
33.2 -19.8 14.5 195 195 195
33.3 -19.7 14.4 197 197 197
33.5 -19.6 14.3 197 197 197
33.7 -19.5 14.2 200 200 200
79.7 -31.2 22.7 193 196 195
79.1 -30.7 22.4 192 192 192
72.4 -27.7 20.3 186 186 186
-28.6 -16.4 12.2 60 60 60
-28.3 -16.4 12.2 41 41 41
-17.8 -16.4 12.2 72 72 72
-17.5 -16.3 12.1 115 117 116
-15.8 -32.5 24.1 178 178 178
-15.3 -32.7 24.3 161 164 163
-15.0 -33.2 24.6 20 20 20
256.3 -203.8 151.3 209 209 209
246.1 -193.0 143.3 209 209 209
220.9 -171.0 127.0 210 210 210
297.9 -227.5 168.9 210 210 210
338.0 -254.8 189.2 210 210 210
339.0 -252.3 187.3 210 210 210
281.9 -207.1 153.8 211 211 211
240.5 -174.5 129.6 211 211 211
565.4 -386.0 286.6 212 213 212
401.7 -271.0 201.2 212 213 212
326.5 -217.8 161.7 208 211 210
33.6 -19.7 14.6 197 197 197
33.6 -19.5 14.5 198 198 198
33.8 -19.4 14.4 196 196 196
33.8 -19.2 14.3 202 202 202
68.8 -25.1 18.6 138 138 138
68.6 -24.9 18.5 134 136 135
-17.8 -16.1 12.1 19 23 20
-17.5 -16.1 12.1 42 43 42
-16.1 -32.5 24.6 166 166 166
-15.6 -32.8 24.8 165 165 165
-15.1 -33.0 24.9 30 30 30
-14.4 -32.7 24.7 44 44 44
255.8 -197.1 148.9 211 211 211
218.0 -165.8 125.3 209 209 209
308.9 -231.8 175.2 210 210 210
352.1 -260.8 197.0 210 210 210
342.4 -250.4 189.2 210 210 210
296.4 -214.0 161.7 210 210 210
235.7 -168.0 127.0 211 211 211
592.3 -397.4 300.3 212 213 212
414.9 -275.1 207.9 212 213 212
335.1 -219.6 165.9 214 214 214
261.1 -169.2 127.8 208 211 210
33.8 -19.5 14.7 198 198 198
33.8 -19.2 14.5 198 198 198
33.9 -19.1 14.4 198 198 198
33.9 -18.9 14.3 202 202 202
69.3 -24.7 18.7 134 137 136
-17.0 -32.7 25.2 144 146 146
-16.2 -32.2 24.8 90 90 90
-15.8 -32.5 25.0 89 91 90
-15.3 -32.7 25.1 56 56 56
-14.6 -32.5 25.0 40 40 40
211.0 -157.7 121.3 209 209 209
314.7 -232.1 178.5 209 209 209
379.8 -276.4 212.5 210 210 210
360.4 -258.9 199.1 210 210 210
301.6 -213.9 164.5 210 210 210
237.3 -166.2 127.8 210 210 210
691.1 -455.5 350.3 212 213 212
466.1 -303.7 233.5 212 213 212
335.1 -215.8 165.9 212 213 212
254.2 -161.8 124.4 214 214 214
36.6 -21.1 16.3 198 198 198
33.8 -18.9 14.5 198 198 198
70.0 -24.5 18.8 136 136 136
69.9 -24.3 18.7 135 135 135
-16.4 -32.1 25.1 90 92 91
-15.8 -32.0 25.1 89 91 90
-15.2 -32.0 25.1 57 58 56
-14.6 -32.0 25.1 113 114 113
497.1 -355.3 278.2 212 213 212
475.5 -335.5 262.7 212 213 212
315.3 -219.6 172.0 212 213 212
266.1 -183.0 143.3 210 210 210
609.0 -389.7 305.1 215 215 215
73.8 -25.5 20.0 131 133 132
71.4 -24.6 19.2 128 130 129
70.5 -24.1 18.8 128 130 129
71.7 -24.3 19.0 129 129 129
-27.1 -14.4 11.5 34 34 34
-26.1 -14.4 11.5 24 24 24
-16.6 -14.4 11.5 81 81 81
-17.2 -33.1 26.4 91 94 93
-15.9 -31.5 25.2 90 92 91
-15.2 -31.4 25.1 79 79 79
-14.6 -31.3 25.0 109 109 109
14.2 -12.8 10.2 210 210 210
16.0 -12.9 10.3 209 209 209
504.5 -354.0 282.3 212 213 212
526.8 -364.9 291.0 212 213 212
49.8 -17.2 13.8 119 119 119
50.7 -17.4 13.9 119 119 119
-27.0 -14.1 11.5 25 25 25
-17.6 -33.1 26.9 90 90 90
-16.2 -31.6 25.7 90 92 91
-15.3 -31.0 25.2 83 83 83
14.2 -12.5 10.2 209 209 209
14.3 -12.4 10.1 209 209 209
14.5 -12.4 10.1 209 209 209
15.9 -12.6 10.2 212 213 212
489.8 -337.4 274.1 212 213 212
503.5 -342.3 278.2 212 213 212
44.6 -22.7 18.5 190 190 190
45.2 -22.6 18.3 157 160 159
45.4 -22.5 18.3 109 109 109
50.2 -17.1 13.9 111 111 111
50.9 -17.2 14.0 111 111 111
51.2 -17.2 14.0 112 112 112
44.0 -14.4 11.7 111 111 111
44.3 -14.4 11.7 114 116 115
44.3 -14.3 11.6 127 127 127
-27.4 -14.1 11.7 17 21 18
-27.2 -14.1 11.7 17 17 17
-18.4 -33.9 28.1 97 97 97
16.1 -12.5 10.3 211 211 211
463.0 -312.9 259.1 211 211 211
503.5 -335.9 278.2 212 213 212
50.7 -26.9 22.3 199 199 199
44.6 -22.3 18.5 196 196 196
45.0 -22.3 18.5 191 191 191
45.3 -22.2 18.4 167 167 167
50.4 -16.8 13.9 107 109 109
51.1 -16.9 14.0 107 109 109
51.4 -16.9 14.0 107 109 109
44.7 -14.2 11.8 89 91 90
44.5 -14.1 11.7 141 141 141
-37.2 -17.7 15.0 75 77 75
-35.2 -17.7 15.0 25 25 25
-34.8 -17.7 15.0 25 25 25
-34.5 -17.7 15.0 19 23 20
-34.2 -17.7 15.0 25 25 25
-33.8 -17.7 15.0 105 107 107
-33.5 -17.7 15.0 146 146 146
-33.1 -17.7 15.0 148 150 150
-32.7 -17.7 14.9 141 141 141
-32.4 -17.7 15.0 154 154 154
-32.0 -17.7 14.9 148 150 150
-31.6 -17.7 14.9 124 127 126
-26.8 -17.7 15.0 53 52 52
-26.5 -17.7 15.0 53 52 52
-26.1 -17.7 15.0 53 52 52
-25.8 -17.7 15.0 53 52 52
-25.4 -17.7 15.0 53 52 52
-25.1 -17.7 15.0 51 51 51
-24.7 -17.7 15.0 47 47 47
-24.4 -17.7 15.0 38 40 40
-24.0 -17.7 15.0 33 33 33
-24.0 -17.9 15.1 27 29 27
-23.3 -17.7 15.0 79 79 79
-20.3 -41.2 34.8 35 34 33
-19.6 -41.5 35.0 30 32 32
14.4 -12.3 10.4 209 209 209
16.2 -12.5 10.6 211 211 211
489.8 -324.6 274.1 211 211 211
51.0 -26.5 22.4 202 202 202
49.0 -25.3 21.3 203 203 203
45.5 -21.9 18.5 166 166 166
51.3 -16.7 14.1 106 106 106
51.6 -16.7 14.1 101 103 103
45.0 -14.1 11.9 66 66 64
44.8 -13.9 11.8 157 157 157
-38.1 -17.6 15.2 77 79 77
-37.6 -17.5 15.1 80 82 79
-36.9 -17.4 15.0 72 72 72
-35.8 -17.5 15.1 104 104 104
-35.5 -17.5 15.1 95 94 93
-35.0 -17.5 15.0 74 74 74
-34.8 -17.5 15.1 19 23 20
-34.4 -17.5 15.1 25 25 25
-34.0 -17.5 15.1 104 104 104
-33.7 -17.5 15.1 153 153 153
-33.4 -17.5 15.1 173 173 173
-32.9 -17.4 15.0 144 144 144
-32.7 -17.5 15.1 164 164 164
-32.2 -17.4 15.0 126 129 128
-31.8 -17.4 15.0 102 102 102
-31.6 -17.5 15.1 121 121 121
-27.3 -17.5 15.1 56 55 54
-27.0 -17.5 15.1 58 59 59
-26.6 -17.5 15.1 58 59 59
-26.3 -17.5 15.1 57 57 57
-25.9 -17.5 15.1 56 55 54
-25.6 -17.5 15.1 57 57 57
-25.2 -17.5 15.1 56 55 54
-24.9 -17.5 15.1 53 52 52
-24.5 -17.5 15.1 56 55 54
-24.2 -17.5 15.1 34 34 34
-24.1 -17.7 15.2 15 19 16
-23.5 -17.5 15.1 39 41 41
-22.9 -17.3 14.9 73 74 72
-23.2 -42.6 36.7 94 94 94
-22.3 -42.7 36.8 100 100 100
-21.5 -42.7 36.8 90 90 90
-20.6 -42.6 36.7 119 121 120
14.2 -11.9 10.2 212 213 212
16.3 -12.4 10.6 211 211 211
504.5 -327.8 282.3 215 215 215
518.8 -332.7 286.6 212 213 212
47.8 -24.2 20.8 203 203 203
47.5 -14.5 12.5 155 155 155
-35.3 -17.3 15.2 147 147 147
-34.3 -17.3 15.2 115 117 116
-24.9 -12.7 11.2 174 176 176
-33.5 -17.2 15.2 175 175 175
-24.6 -17.7 15.5 221 221 221
-23.7 -17.3 15.2 216 219 218
-25.0 -43.6 38.3 97 97 97
-24.0 -43.4 38.1 95 95 95
-23.2 -43.5 38.2 90 90 90
-22.3 -43.5 38.2 119 119 119
-21.4 -43.4 38.1 112 112 112
14.2 -11.6 10.2 212 213 212
16.3 -12.1 10.7 211 211 211
504.5 -321.2 282.3 218 218 218
511.0 -321.2 282.3 216 216 216
47.5 -23.5 20.7 202 202 202
46.2 -22.6 19.9 203 203 203
47.7 -14.3 12.5 157 157 157
47.8 -14.2 12.5 120 122 121
-24.1 -42.7 38.3 95 98 97
-23.3 -42.7 38.3 107 107 107
-22.3 -42.6 38.2 23 24 23
16.3 -11.9 10.7 215 215 215
512.1 -319.4 286.6 218 218 218
45.6 -21.9 19.6 203 203 203
48.0 -14.0 12.6 160 160 160
47.8 -13.9 12.5 121 123 122
-24.6 -42.6 39.1 100 100 100
-23.3 -42.0 38.4 110 110 110
-22.3 -41.7 38.2 20 20 20
16.0 -11.3 10.3 216 216 216
46.3 -21.8 19.9 202 202 202
48.6 -13.9 12.7 161 161 161
48.1 -13.7 12.6 130 130 130
-25.7 -43.5 40.8 99 99 99
-24.1 -42.4 39.7 106 106 106
-27.6 -50.4 47.2 20 20 20
-26.5 -50.4 47.2 26 26 26
49.1 -13.8 12.9 156 159 158
-30.1 -51.7 49.5 110 110 110
-28.4 -50.8 48.6 13 17 14
-27.8 -51.9 49.6 22 22 22
-26.7 -51.9 49.6 22 22 22
-31.5 -52.9 51.8 112 112 112
-29.9 -52.4 51.3 28 28 28
-29.2 -53.2 52.1 26 26 26
-27.9 -52.9 51.8 109 109 109
15.1 -10.2 10.0 217 220 219
489.8 -280.0 274.1 218 218 218
433.4 -244.6 239.4 215 215 215
-35.7 -56.5 56.6 101 101 101
-33.5 -55.1 55.1 109 109 109
-31.7 -54.1 54.2 48 48 48
-30.4 -54.1 54.2 22 22 22
-29.1 -53.9 54.0 152 152 152
497.1 -277.7 278.2 219 222 221
439.0 -242.1 242.5 219 222 221
-35.6 -57.1 58.6 113 115 114
-33.5 -55.9 57.3 44 45 43
-31.5 -54.7 56.1 22 22 22
-30.1 -54.6 56.0 152 152 152
428.0 -230.5 236.5 219 222 221
-35.5 -57.9 60.8 32 34 33
-32.4 -55.1 57.8 20 20 20
-30.8 -54.6 57.3 159 162 161
286.6 -148.8 156.3 219 222 221
311.1 -141.8 148.9 180 180 180
302.7 -136.4 143.3 194 194 194
239.0 -106.5 111.9 197 197 197
179.1 -79.0 83.0 199 199 199
-38.1 -60.6 65.2 31 31 31
15.1 -9.3 10.0 217 220 219
16.0 -9.7 10.5 217 220 219
16.2 -9.7 10.4 217 220 219
16.1 -9.5 10.2 217 220 219
301.6 -134.1 144.4 190 190 190
218.4 -94.9 102.3 196 196 196
179.9 -77.4 83.3 199 199 199
158.2 -64.6 69.5 200 200 200
-215.3 -74.1 81.9 202 202 202
-208.0 -72.3 79.8 189 189 189
-188.7 -71.9 79.5 50 50 50
-175.7 -80.4 88.8 54 54 54
-160.8 -74.5 82.2 57 57 57
-152.9 -71.6 79.1 60 59 58
-150.5 -71.3 78.8 55 55 55
-132.5 -75.8 83.7 29 29 29
-131.2 -76.1 84.1 70 70 70
-123.2 -72.6 80.2 172 172 172
-122.1 -74.1 81.9 62 61 60
-48.1 -71.6 79.1 108 108 108
-46.4 -71.9 79.5 26 25 24
-44.4 -71.6 79.1 20 20 20
-42.7 -71.9 79.5 169 171 170
-40.9 -71.9 79.5 181 181 181
16.1 -9.5 10.5 217 220 219
16.2 -9.4 10.4 217 220 219
16.0 -9.2 10.1 217 220 219
176.8 -74.1 81.9 199 199 199
164.2 -65.4 72.2 200 200 200
-254.6 -81.8 92.7 152 152 152
-252.4 -81.8 92.7 164 167 166
-251.5 -82.2 93.2 77 79 77
-249.4 -82.2 93.2 85 85 85
-247.2 -82.2 93.2 105 105 105
-242.6 -81.4 92.3 170 171 170
-237.5 -82.6 93.6 134 137 136
-234.2 -82.2 93.2 189 189 189
-230.9 -81.8 92.7 116 116 116
-229.9 -82.2 93.2 80 82 79
-225.5 -81.4 92.3 74 74 74
-224.4 -81.8 92.7 69 71 69
-220.1 -81.0 91.8 67 67 67
-220.1 -81.8 92.7 57 57 55
-215.8 -81.0 91.8 18 22 19
-214.8 -81.4 92.3 16 16 16
-213.6 -81.8 92.7 19 23 20
-213.6 -82.6 93.6 40 42 42
-209.3 -81.8 92.7 46 45 43
-184.7 -81.4 92.3 41 41 41
-184.4 -82.2 93.2 42 44 43
-178.7 -80.6 91.4 43 43 43
-171.6 -78.3 88.8 50 50 50
-146.1 -81.4 92.3 37 38 37
-143.3 -81.0 91.8 37 38 37
-142.5 -81.8 92.7 170 171 170
-146.1 -85.1 96.5 96 95 94
-136.9 -81.0 91.8 67 69 67
-10.0 -10.2 11.6 43 43 43
-9.7 -10.2 11.6 36 38 37
-51.6 -78.0 88.4 32 34 33
-50.0 -78.7 89.2 30 29 29
-47.5 -78.0 88.4 168 170 169
-46.1 -79.1 89.7 180 183 182
16.2 -9.2 10.4 220 223 222
179.1 -73.2 83.0 198 198 198
156.9 -63.4 71.9 199 199 199
166.8 -64.7 73.3 200 200 200
188.5 -69.5 78.8 205 205 205
-10.4 -10.0 11.7 36 39 38
-10.0 -9.9 11.6 48 48 48
-9.7 -9.9 11.5 41 41 41
-9.4 -9.9 11.5 200 202 202
-64.7 -99.0 115.3 30 29 29
210.4 -84.6 98.5 194 194 194
180.7 -71.9 83.7 198 198 198
190.1 -72.5 84.4 199 199 199
182.3 -68.8 80.2 200 200 200
194.1 -72.5 84.4 200 200 200
196.0 -72.5 84.4 200 200 200
198.0 -72.5 84.4 200 200 200
210.3 -76.3 88.8 204 204 204
196.7 -70.6 82.2 205 205 205
-10.4 -9.8 11.7 37 40 39
-10.0 -9.7 11.6 43 43 43
-9.7 -9.7 11.6 34 34 34
-12.7 -14.2 17.0 184 187 186
-12.2 -14.1 16.9 174 176 176
-83.5 -124.4 148.9 22 22 22
210.4 -82.3 98.5 196 196 196
182.3 -70.6 84.4 198 198 198
192.7 -71.5 85.6 199 199 199
189.6 -69.6 83.3 199 199 199
194.9 -70.9 84.8 200 200 200
196.9 -70.9 84.8 200 200 200
198.9 -70.9 84.8 204 204 204
210.3 -74.2 88.8 204 204 204
201.9 -70.6 84.4 204 204 204
-10.1 -9.5 11.7 44 44 44
-9.8 -9.5 11.7 44 44 44
-12.2 -13.7 16.9 172 174 174
-11.8 -13.7 16.8 151 153 153
-130.0 -180.8 222.5 32 32 32
-111.7 -161.7 199.1 23 24 23
-133.8 -202.2 248.9 165 168 167
-129.7 -204.9 252.2 178 181 180
-120.6 -199.5 245.7 177 180 179
-112.0 -194.5 239.4 163 163 163
179.9 -67.7 83.3 196 196 196
190.1 -68.6 84.4 199 199 199
182.3 -65.1 80.2 199 199 199
191.5 -67.7 83.3 199 199 199
193.4 -67.7 83.3 200 200 200
194.5 -67.4 83.0 204 204 204
203.6 -69.8 86.0 204 204 204
201.0 -68.3 84.1 204 204 204
-9.5 -9.1 11.6 198 201 200
-131.0 -184.3 233.5 23 24 23
-169.5 -248.8 315.3 160 160 160
-129.7 -199.0 252.2 177 180 179
-123.9 -199.0 252.2 179 182 181
205.0 -75.8 96.0 188 188 188
181.5 -66.3 84.1 203 203 203
87.1 -31.2 39.5 198 198 198
192.7 -67.5 85.6 199 199 199
193.2 -66.3 84.1 199 199 199
194.3 -66.0 83.7 200 200 200
193.7 -65.2 82.6 203 203 203
208.3 -69.4 88.0 200 200 200
202.8 -66.9 84.8 204 204 204
-9.5 -8.9 11.6 197 200 199
-12.2 -12.9 16.9 171 173 173
-11.8 -12.9 16.8 149 149 149
23.4 -71.0 92.7 157 157 157
25.6 -71.0 92.7 153 155 155
27.3 -70.0 91.4 152 152 152
29.3 -69.6 90.9 149 149 149
31.6 -70.0 91.4 150 150 150
62.8 -71.7 93.6 224 226 226
65.0 -71.7 93.6 224 226 226
65.3 -69.6 90.9 224 226 226
68.4 -70.7 92.3 224 226 226
69.5 -69.6 90.9 220 223 222
89.0 -73.5 96.0 223 225 225
91.2 -73.5 96.0 219 222 221
88.5 -69.6 90.9 219 222 221
90.2 -69.3 90.5 219 222 221
92.7 -69.6 90.9 219 222 221
193.0 -70.0 91.4 128 131 130
206.1 -73.9 96.5 158 161 160
189.0 -67.1 87.6 194 194 194
87.3 -30.3 39.6 196 196 196
205.6 -70.7 92.3 197 197 197
203.8 -69.3 90.5 199 199 199
203.1 -67.7 88.4 199 199 199
202.4 -66.8 87.2 199 199 199
202.5 -66.1 86.4 200 200 200
215.3 -69.6 90.9 204 204 204
211.4 -67.7 88.4 206 206 206
-9.5 -8.6 11.6 197 200 199
-12.2 -12.5 16.9 171 173 173
26.3 -77.2 103.9 157 157 157
28.5 -76.8 103.4 152 154 154
30.1 -74.7 100.6 152 152 152
32.8 -75.5 101.7 147 147 147
35.0 -75.1 101.2 153 153 153
68.3 -75.5 101.7 224 226 226
71.8 -76.8 103.4 224 226 226
73.0 -75.5 101.7 224 226 226
78.3 -78.5 105.7 224 226 226
75.7 -73.5 99.0 220 223 222
96.6 -79.4 106.9 223 225 225
97.4 -78.0 105.1 223 225 225
95.4 -72.8 98.0 223 225 225
101.5 -73.9 99.6 219 219 219
231.0 -81.2 109.3 134 137 136
218.4 -75.9 102.3 158 158 158
202.2 -69.5 93.6 190 190 190
88.6 -29.8 40.2 196 196 196
225.4 -75.1 101.2 197 197 197
221.8 -73.2 98.5 199 199 199
231.2 -74.7 100.6 199 199 199
215.3 -68.9 92.7 199 199 199
230.9 -72.4 97.5 206 206 206
217.5 -67.5 90.9 206 206 206
-12.3 -12.2 17.0 170 172 172
31.9 -90.7 126.1 157 157 157
32.6 -85.0 118.2 152 154 154
34.7 -83.5 116.1 152 152 152
38.1 -85.0 118.2 149 149 149
40.9 -85.0 118.2 153 153 153
80.3 -86.1 119.7 224 226 226
81.1 -84.0 116.8 224 226 226
84.8 -85.0 118.2 224 226 226
91.0 -88.4 122.8 220 223 222
110.3 -87.8 122.0 219 222 221
108.2 -84.0 116.8 219 222 221
294.9 -101.5 141.2 185 185 185
256.1 -87.2 121.3 86 86 86
237.6 -80.0 111.3 151 153 153
240.6 -76.9 106.9 197 197 197
261.9 -82.0 114.0 199 199 199
254.5 -77.3 107.5 203 203 203
-12.2 -11.8 16.9 170 172 172
-11.8 -11.7 16.8 145 145 144
316.1 -105.3 151.3 185 185 185
237.6 -77.4 111.3 157 157 157
87.6 -27.7 39.7 196 196 196
343.6 -110.7 164.5 179 179 179
230.8 -72.7 108.1 155 155 155
177.5 -55.3 82.2 179 179 179
88.4 -27.0 40.1 194 194 194
191.5 -56.1 83.3 199 199 199
191.8 -55.6 82.6 199 199 199
184.8 -53.0 78.8 199 199 199
203.7 -57.3 85.2 206 206 206
352.8 -109.7 168.9 175 175 175
179.1 -53.9 83.0 182 182 182
87.5 -25.8 39.7 194 194 194
192.4 -54.4 83.7 199 199 199
193.4 -54.1 83.3 199 199 199
190.4 -52.7 81.2 199 199 199
201.8 -55.3 85.2 206 206 206
201.9 -54.9 84.4 207 207 207
-239.7 -62.0 99.0 63 63 63
-222.3 -58.1 92.7 59 59 59
-229.1 -60.4 96.5 58 58 56
-219.0 -58.4 93.2 53 52 52
-245.9 -66.2 105.7 67 68 66
-243.5 -66.2 105.7 161 161 161
-239.7 -65.8 105.1 107 107 105
-217.9 -60.4 96.5 35 34 33
-209.2 -58.7 93.6 31 32 30
-215.6 -61.1 97.5 30 29 29
-192.9 -56.4 90.1 22 25 23
-194.5 -57.5 91.8 18 18 18
-204.3 -61.1 97.5 25 25 25
181.5 -52.7 84.1 181 181 181
89.3 -25.4 40.5 192 192 192
194.9 -53.1 84.8 197 197 197
196.0 -52.9 84.4 199 199 199
192.8 -51.5 82.2 200 200 200
204.5 -54.1 86.4 203 203 203
203.7 -53.4 85.2 206 206 206
804.9 -237.7 394.1 224 226 226
797.5 -232.8 386.0 222 224 224
187.3 -52.3 86.8 174 176 176
201.3 -52.8 87.6 197 197 197
196.9 -51.2 84.8 200 200 200
216.4 -55.1 91.4 204 204 204
207.5 -52.3 86.8 208 208 208
131.0 -34.8 60.1 188 188 188
158.6 -38.1 65.7 202 202 202
143.2 -34.1 58.7 234 236 236
143.7 -33.9 58.4 236 236 236
140.7 -32.8 56.6 109 109 109
147.7 -32.9 56.8 66 66 66
131.9 -33.6 60.4 185 185 185
133.0 -33.2 59.7 193 193 193
206.4 -48.5 87.2 204 204 204
152.2 -35.1 63.1 199 199 199
145.5 -33.2 59.7 234 234 234
146.4 -33.1 59.5 235 238 237
145.5 -32.6 58.6 109 109 109
155.4 -34.2 61.4 68 68 68
152.4 -33.2 59.7 65 65 65
152.8 -33.0 59.3 59 61 60
153.7 -32.9 59.1 61 64 63
154.6 -32.8 58.9 67 67 67
134.4 -32.9 61.6 186 186 186
206.4 -46.5 87.2 204 204 204
158.0 -34.9 65.5 196 196 196
148.7 -32.5 61.0 232 232 232
150.6 -32.6 61.2 232 232 232
146.8 -31.5 59.1 116 116 116
160.6 -32.6 61.2 67 67 67
334.9 -81.8 160.3 174 176 176
338.6 -81.8 160.3 64 63 61
134.4 -31.4 61.6 186 186 186
369.1 -85.4 167.4 191 191 191
215.3 -46.4 90.9 204 204 204
148.7 -31.1 61.0 226 229 228
148.7 -30.8 60.4 226 229 228
311.1 -72.5 148.9 165 168 167
283.4 -65.3 134.2 78 78 78
230.8 -52.6 108.1 141 141 141
196.3 -44.3 90.9 173 173 173
339.1 -74.9 153.8 189 189 189
234.0 -50.6 103.9 194 194 194
216.4 -44.1 90.5 207 207 207
152.2 -30.4 62.4 224 224 224
155.7 -30.8 63.3 227 230 229
18.0 -5.2 11.2 222 222 222
300.4 -65.9 142.2 102 104 104
235.3 -48.5 104.5 194 194 194
232.1 -45.4 98.0 202 202 202
213.4 -41.4 89.2 203 203 203
328.6 -61.3 132.3 115 115 115
423.2 -31.8 172.0 224 224 224
419.6 -31.2 168.9 116 116 116
462.0 -31.8 197.0 200 200 200
443.5 -30.2 187.3 200 200 200
443.4 -29.4 181.9 224 224 224
520.3 -33.2 205.6 62 64 64
492.9 -31.2 193.0 63 65 65
491.9 -30.5 189.2 79 81 80
608.6 -31.8 197.0 51 51 51
588.6 -30.5 189.2 47 48 47
326.3 -18.2 131.4 93 93 93
18.6 -1.2 10.1 226 226 226
19.4 -1.2 10.3 226 226 226
801.2 -38.1 331.9 208 208 208
743.7 -35.1 305.1 214 214 214
705.3 -32.9 286.6 204 204 204
723.4 -32.0 278.2 66 68 67
834.6 -31.1 270.2 52 52 52
20.2 -1.1 11.5 225 225 225
830.4 -31.5 343.9 209 209 209
474.6 -17.5 191.1 110 112 111
784.7 -28.4 310.1 73 73 73
1006.4 -36.1 394.1 72 72 72
592.6 -20.9 227.9 65 65 65
1033.9 -36.1 394.1 59 59 59
1094.0 -32.7 356.9 52 52 52
912.8 -27.1 295.6 48 48 48
619.6 -18.3 199.1 35 36 34
587.1 -17.2 187.3 182 182 182
609.6 -17.7 193.0 96 96 96
20.0 -0.8 11.5 225 225 225
20.2 -0.8 11.4 225 225 225
19.3 -0.7 10.5 225 225 225
19.4 -0.7 10.5 227 227 227
19.7 -0.7 10.5 225 225 225
19.9 -0.7 10.5 225 225 225
20.2 -0.7 10.5 225 225 225
430.9 -12.1 176.8 210 210 210
431.0 -12.0 175.2 163 163 163
419.6 -11.6 168.9 103 103 103
465.0 -12.7 185.5 87 87 87
483.1 -13.0 189.2 72 72 72
501.9 -13.2 193.0 69 72 71
1033.9 -27.0 394.1 62 62 62
571.5 -12.6 183.7 107 107 107
529.5 -11.6 168.9 172 174 174
548.1 -11.9 173.5 97 100 99
20.0 -0.5 11.4 226 226 226
19.4 -0.5 10.6 228 228 228
19.5 -0.5 10.5 226 226 226
20.2 -0.5 10.6 225 225 225
546.5 -9.5 210.2 64 64 64
613.1 -8.9 197.0 35 35 35
599.0 -8.6 191.1 155 158 157
19.5 -0.2 10.7 226 226 226
19.5 -0.2 10.5 226 226 226
20.3 -0.2 10.7 226 226 226
885.2 -6.3 286.6 50 50 50
19.4 0.0 10.6 222 224 224
957.7 0.4 310.1 47 49 48
1102.3 8.7 356.9 45 46 44
23.0 0.5 11.3 223 225 225
1081.9 16.7 350.3 47 49 48
1090.0 16.7 350.3 36 38 36
1102.3 25.3 356.9 52 52 52
1154.1 26.3 370.9 108 108 108
1217.1 37.1 394.1 46 46 46
22.2 1.5 12.4 224 226 226
22.4 1.3 11.2 225 227 227
22.9 1.3 11.2 223 225 225
23.0 1.3 11.1 225 227 227
84.6 2.7 22.6 87 87 87
83.2 2.6 22.1 91 91 91
82.9 2.6 21.9 93 93 93
22.6 1.8 12.5 224 224 224
23.4 1.8 12.6 225 227 227
23.5 1.8 12.5 225 227 227
23.0 1.6 11.2 224 226 226
23.0 1.6 11.1 224 226 226
80.6 3.1 22.0 95 98 97
80.8 3.1 21.9 88 88 88
84.3 3.2 22.5 88 88 88
83.8 3.1 22.3 92 92 92
83.8 3.1 22.1 104 104 104
23.0 1.8 11.1 221 221 221
79.7 3.5 21.6 89 89 89
80.1 3.5 21.5 87 87 85
83.8 3.7 22.3 93 93 93
83.9 3.6 22.2 96 99 98
82.3 3.5 21.6 107 107 107
82.1 3.5 21.4 177 180 179
22.8 2.1 11.0 209 209 209
1281.2 73.8 394.1 73 73 73
1290.4 73.8 394.1 52 52 52
81.5 4.2 22.2 95 95 95
80.4 4.1 21.8 89 89 89
85.0 4.3 22.7 85 84 82
84.0 4.2 22.3 90 90 90
84.1 4.2 22.2 96 99 98
83.4 4.1 21.9 85 84 82
86.3 4.9 23.1 88 88 86
85.1 4.8 22.6 91 91 91
84.8 4.7 22.4 94 94 94
86.2 4.8 22.6 83 83 83
85.0 5.3 22.5 97 100 99
-70.8 28.8 51.5 113 115 114
-47.7 22.0 39.4 220 223 222
-62.0 33.1 59.1 90 89 88
-37.7 29.1 52.1 131 133 132
-141.7 34.4 59.1 140 142 141
-138.6 34.0 58.4 128 131 130
-137.1 34.3 58.9 152 152 152
-134.5 34.0 58.4 141 141 141
-133.6 34.1 58.6 112 112 112
-131.3 34.2 58.7 80 80 80
-129.9 34.2 58.7 84 83 81
-128.5 34.2 58.7 85 85 85
-127.6 34.3 58.9 85 85 85
-122.3 34.0 58.4 101 103 103
-120.6 33.9 58.2 110 110 110
-116.7 33.2 57.0 120 122 121
-112.8 34.4 59.1 109 109 109
-109.8 33.9 58.2 100 100 100
-109.4 34.2 58.7 100 100 100
-108.4 34.3 58.9 96 95 94
-98.3 34.6 59.5 129 129 129
-97.0 34.6 59.5 132 135 134
-96.2 34.9 59.9 131 131 131
-93.6 34.4 59.1 128 128 128
-91.4 34.1 58.6 126 126 126
-83.0 34.0 58.4 122 124 123
-78.7 32.8 56.3 102 104 104
-73.0 34.4 59.1 229 229 229
-65.9 34.3 58.9 75 75 75
-63.8 33.9 58.2 74 75 73
-63.4 34.4 59.1 73 73 73
-62.0 34.4 59.1 73 75 75
-59.7 33.9 58.2 72 74 74
-57.9 34.4 59.1 91 94 93
-126.5 85.4 146.6 167 167 167
-72.1 53.0 90.9 146 146 146
-43.6 34.0 58.4 129 132 131
-38.9 31.3 53.7 128 131 130
29.0 34.9 59.9 86 85 83
28.6 32.8 56.3 87 86 84
-48.2 18.7 30.9 140 140 140
-29.7 26.6 43.9 91 94 93
-28.4 26.3 43.5 89 91 90
53.5 65.8 85.6 88 90 89
-144.1 94.2 119.0 54 54 54
-106.9 93.0 117.5 187 186 185
46.2 60.9 76.9 92 95 94
76.6 93.6 118.2 89 91 90
79.8 94.2 119.0 86 86 86
-311.4 125.3 153.8 137 137 137
-180.5 121.4 148.9 51 51 51
-149.5 130.6 160.3 191 191 191
87.5 110.1 135.1 91 93 92
96.9 117.7 144.4 89 91 89
-444.7 160.1 191.1 180 179 177
-366.9 146.8 175.2 140 140 140
-353.2 157.0 187.3 119 121 120
-299.5 158.5 189.2 159 162 161
-263.5 155.4 185.5 79 79 79
-259.2 155.4 185.5 77 77 77
-194.5 155.4 185.5 167 167 167
-160.8 148.2 176.8 179 179 179
47.4 66.1 78.8 96 99 98
119.8 149.6 178.5 90 90 90
-494.7 538.9 386.0 98 98 98
-476.0 528.1 378.3 91 91 91
-486.6 550.1 394.1 90 90 90
-449.4 517.7 370.9 95 95 95
-477.5 559.3 394.1 95 98 97
-468.3 559.3 394.1 100 100 100
25.1 17.4 11.1 191 194 193
25.4 17.4 11.2 191 194 193
25.6 17.4 11.1 199 199 199
41.3 17.4 11.0 68 68 68
41.5 17.3 11.0 68 68 68
