ply
format ascii 1.0
element vertex 2786
property float x
property float y
property float z
property uchar red
property uchar green
property uchar blue
end_header
65.7 -420.0 167.4 151 153 153
69.5 -420.0 167.4 159 159 159
73.4 -420.0 167.4 159 159 159
77.3 -420.0 167.4 154 156 156
81.2 -420.0 167.4 158 158 158
85.1 -420.0 167.4 161 161 161
89.0 -420.0 167.4 161 161 161
92.9 -420.0 167.4 158 158 158
96.8 -420.0 167.4 160 160 160
100.7 -420.0 167.4 160 160 160
105.5 -423.8 168.9 162 162 162
108.5 -420.0 167.4 162 162 162
112.3 -420.0 167.4 162 162 162
116.2 -420.0 167.4 162 162 162
120.1 -420.0 167.4 162 162 162
124.0 -420.0 167.4 163 163 163
127.9 -420.0 167.4 163 163 163
131.8 -420.0 167.4 166 166 166
135.7 -420.0 167.4 163 163 163
139.6 -420.0 167.4 163 163 163
143.5 -420.0 167.4 163 163 163
147.4 -420.0 167.4 163 163 163
151.3 -420.0 167.4 166 166 166
155.1 -420.0 167.4 166 166 166
159.0 -420.0 167.4 166 166 166
162.9 -420.0 167.4 168 170 169
166.8 -420.0 167.4 166 166 166
170.7 -420.0 167.4 164 164 164
174.6 -420.0 167.4 164 164 164
180.1 -423.8 168.9 166 166 166
182.4 -420.0 167.4 162 162 162
186.3 -420.0 167.4 159 159 159
190.2 -420.0 167.4 162 162 162
194.1 -420.0 167.4 162 162 162
197.9 -420.0 167.4 162 162 162
201.8 -420.0 167.4 162 162 162
205.7 -420.0 167.4 162 162 162
209.6 -420.0 167.4 162 162 162
215.4 -423.8 168.9 162 162 162
217.4 -420.0 167.4 159 159 159
221.3 -420.0 167.4 159 159 159
231.3 -431.5 172.0 159 159 159
231.1 -423.8 168.9 159 159 159
235.0 -423.8 168.9 160 160 160
234.8 -416.3 165.9 160 160 160
236.6 -412.7 164.5 160 160 160
242.5 -416.3 165.9 155 158 157
93.9 -151.6 60.4 155 158 157
98.2 -156.1 62.2 153 155 155
99.6 -156.1 62.2 153 155 155
101.1 -156.1 62.2 154 156 156
98.6 -150.2 59.9 154 156 156
142.0 -109.6 43.7 108 108 108
141.1 -108.1 43.1 106 106 106
141.8 -107.9 43.0 104 103 101
143.1 -108.1 43.1 104 103 101
70.9 -401.9 161.7 159 159 159
81.9 -419.8 168.9 161 161 161
85.9 -419.8 168.9 161 161 161
89.8 -419.8 168.9 161 161 161
93.7 -419.8 168.9 160 160 160
95.1 -408.9 164.5 160 160 160
100.7 -416.1 167.4 162 162 162
106.4 -423.6 170.4 162 162 162
110.4 -423.6 170.4 162 162 162
110.4 -408.9 164.5 162 162 162
117.3 -419.8 168.9 165 165 165
121.2 -419.8 168.9 165 165 165
125.1 -419.8 168.9 165 165 165
129.1 -419.8 168.9 166 166 166
133.0 -419.8 168.9 166 166 166
136.9 -419.8 168.9 166 166 166
140.8 -419.8 168.9 166 166 166
144.8 -419.8 168.9 166 166 166
148.7 -419.8 168.9 166 166 166
147.3 -405.4 163.1 166 166 166
151.1 -405.4 163.1 166 166 166
153.6 -401.9 161.7 166 166 166
164.4 -419.8 168.9 166 166 166
168.3 -419.8 168.9 164 164 164
172.2 -419.8 168.9 164 164 164
176.2 -419.8 168.9 164 164 164
178.5 -416.1 167.4 164 164 164
184.0 -419.8 168.9 162 162 162
183.0 -408.9 164.5 162 162 162
185.2 -405.4 163.1 164 164 164
185.8 -398.5 160.3 162 162 162
199.7 -419.8 168.9 162 162 162
193.3 -398.5 160.3 162 162 162
207.6 -419.8 168.9 162 162 162
213.4 -423.6 170.4 162 162 162
215.4 -419.8 168.9 162 162 162
213.6 -408.9 164.5 162 162 162
223.3 -419.8 168.9 162 162 162
267.8 -495.0 199.1 162 162 162
237.5 -431.4 173.5 162 162 162
237.2 -423.6 170.4 160 160 160
104.8 -175.5 70.6 160 160 160
103.7 -171.0 68.8 160 160 160
107.7 -172.2 69.3 155 158 157
109.7 -172.9 69.5 156 159 158
110.9 -172.2 69.3 156 159 158
111.3 -170.4 68.5 157 160 159
173.3 -241.1 97.0 157 160 159
136.7 -104.5 42.0 106 106 106
131.2 -99.6 40.1 106 106 106
134.1 -101.1 40.7 104 103 101
60.3 -40.3 16.2 206 206 206
60.4 -40.2 16.2 155 155 155
61.7 -40.3 16.2 212 213 212
32.4 -182.0 73.9 162 162 162
46.8 -177.8 72.2 162 162 162
51.5 -182.7 74.2 165 165 165
52.4 -179.9 73.0 165 165 165
52.5 -174.5 70.8 166 169 168
54.1 -174.5 70.8 168 170 169
55.4 -173.2 70.3 168 170 169
58.5 -177.8 72.2 166 166 166
61.1 -180.6 73.3 166 166 166
63.1 -181.3 73.6 166 166 166
64.5 -180.6 73.3 166 166 166
66.2 -180.6 73.3 166 166 166
65.9 -175.1 71.1 166 166 166
67.6 -175.1 71.1 166 166 166
71.6 -181.3 73.6 164 164 164
72.5 -179.2 72.8 164 164 164
72.5 -175.1 71.1 164 164 164
76.5 -180.6 73.3 164 164 164
78.5 -181.3 73.6 164 164 164
80.5 -182.0 73.9 164 164 164
81.3 -179.9 73.0 164 164 164
81.7 -177.1 71.9 164 164 164
82.4 -175.1 71.1 164 164 164
83.8 -174.5 70.8 162 162 162
88.1 -179.9 73.0 162 162 162
91.5 -183.4 74.5 162 162 162
89.0 -175.1 71.1 162 162 162
88.4 -170.6 69.3 162 162 162
108.8 -189.4 76.9 163 163 163
102.7 -175.8 71.4 163 163 163
111.9 -188.6 76.6 160 160 160
111.9 -185.6 75.4 160 160 160
105.6 -172.5 70.1 160 160 160
113.1 -179.2 72.8 160 160 160
114.3 -178.5 72.5 164 164 164
117.8 -181.3 73.6 161 161 161
114.6 -173.8 70.6 162 162 162
54.6 -76.2 31.0 159 162 161
54.3 -74.9 30.4 157 160 159
55.5 -75.5 30.7 157 160 159
56.1 -75.4 30.6 158 161 160
121.0 -91.0 36.9 104 103 101
115.1 -85.9 34.9 104 103 101
58.8 -39.0 15.8 207 207 207
58.2 -38.3 15.6 163 166 165
60.3 -39.0 15.8 180 183 182
59.6 -38.3 15.6 194 194 194
52.4 -178.2 73.0 166 169 168
54.1 -178.2 73.0 166 169 168
68.2 -179.5 73.6 166 166 166
70.2 -180.2 73.9 166 166 166
87.0 -183.1 75.1 164 164 164
96.1 -190.7 78.2 162 162 162
86.8 -169.0 69.3 165 165 165
82.1 -156.9 64.3 165 165 165
104.6 -193.1 79.1 165 165 165
110.6 -190.7 78.2 163 163 163
94.8 -160.8 65.9 166 166 166
68.8 -109.6 44.9 163 163 163
66.2 -103.9 42.6 163 163 163
132.0 -204.2 83.7 164 164 164
132.2 -201.5 82.6 164 164 164
55.9 -76.3 31.3 160 163 162
57.3 -77.2 31.6 157 160 159
57.2 -76.1 31.2 158 161 160
58.4 -76.8 31.5 158 161 160
60.3 -78.2 32.1 158 161 160
57.7 -37.6 15.4 207 207 207
64.0 -41.2 16.9 197 200 199
59.4 -37.8 15.5 218 218 218
23.6 -102.7 42.5 163 163 163
24.4 -102.0 42.2 165 165 165
25.5 -102.5 42.4 162 162 162
26.5 -102.5 42.4 165 165 165
27.5 -102.5 42.4 166 169 168
28.5 -102.5 42.4 166 169 168
29.4 -102.2 42.3 166 169 168
30.3 -102.0 42.2 166 169 168
33.4 -102.5 42.4 168 170 169
34.4 -102.5 42.4 166 166 166
35.4 -102.5 42.4 166 166 166
36.3 -102.2 42.3 166 166 166
37.3 -102.5 42.4 166 166 166
38.5 -102.9 42.6 166 166 166
39.4 -102.7 42.5 166 166 166
40.4 -102.7 42.5 164 164 164
41.5 -102.9 42.6 164 164 164
42.4 -102.7 42.5 164 164 164
43.3 -102.5 42.4 164 164 164
44.2 -102.5 42.4 164 164 164
45.0 -102.0 42.2 164 164 164
46.2 -102.5 42.4 164 164 164
48.5 -103.2 42.7 164 164 164
49.3 -102.7 42.5 167 167 167
50.3 -102.7 42.5 164 164 164
51.0 -102.2 42.3 165 165 165
52.0 -102.2 42.3 165 165 165
53.2 -102.7 42.5 165 165 165
54.3 -102.9 42.6 165 165 165
55.5 -103.2 42.7 165 165 165
55.7 -101.8 42.1 165 165 165
93.9 -160.4 66.4 166 166 166
81.0 -136.0 56.3 166 166 166
67.4 -106.3 44.0 166 166 166
65.5 -101.8 42.1 163 163 163
140.1 -214.6 88.8 169 169 169
140.2 -211.6 87.6 167 167 167
134.7 -200.5 83.0 165 165 165
58.8 -78.5 32.5 160 163 162
58.8 -77.5 32.1 161 164 163
63.3 -81.3 33.7 161 164 163
82.0 -104.1 43.1 159 162 161
58.2 -37.8 15.7 180 183 182
57.6 -37.2 15.4 170 171 170
56.7 -36.4 15.1 209 209 209
59.7 -37.9 15.7 212 213 212
59.3 -37.4 15.5 212 213 212
22.7 -94.1 39.3 166 169 168
27.4 -97.8 40.9 166 169 168
27.2 -93.7 39.2 166 169 168
27.9 -92.9 38.8 166 169 168
31.2 -94.7 39.6 168 170 169
31.7 -93.7 39.2 166 166 166
32.8 -94.1 39.3 166 166 166
33.6 -93.9 39.2 166 166 166
34.4 -93.5 39.1 166 166 166
35.5 -94.1 39.3 166 166 166
36.4 -93.9 39.2 166 166 166
37.3 -93.9 39.2 166 166 166
40.1 -94.1 39.3 166 166 166
41.1 -94.3 39.4 166 166 166
41.8 -93.7 39.2 166 166 166
45.7 -94.3 39.4 167 167 167
46.2 -93.5 39.1 169 171 170
47.1 -93.5 39.1 167 167 167
47.9 -93.3 39.0 167 167 167
49.5 -94.5 39.5 167 167 167
50.4 -94.5 39.5 167 167 167
51.2 -94.3 39.4 169 171 170
51.3 -92.9 38.8 169 171 170
60.9 -93.7 39.2 168 168 168
141.4 -214.5 89.7 169 169 169
141.5 -211.5 88.4 169 169 169
130.7 -192.6 80.5 168 168 168
206.1 -276.0 115.3 167 167 167
51.3 -33.0 13.8 180 183 182
56.1 -35.7 14.9 201 203 203
53.4 -33.7 14.1 212 213 212
52.2 -32.8 13.7 218 218 218
57.8 -36.1 15.1 218 218 218
16.3 -88.2 37.2 162 162 162
17.5 -90.0 38.0 166 166 166
18.4 -89.8 37.9 166 166 166
19.2 -89.3 37.7 163 163 163
20.2 -90.2 38.1 166 166 166
21.0 -89.8 37.9 166 169 168
21.8 -89.5 37.8 166 169 168
22.7 -89.5 37.8 166 169 168
23.2 -87.9 37.1 166 169 168
24.1 -88.1 37.2 166 169 168
25.0 -88.4 37.3 166 169 168
25.9 -88.2 37.2 166 169 168
26.7 -88.1 37.2 165 165 165
27.5 -87.9 37.1 165 165 165
29.0 -90.0 38.0 166 166 166
29.8 -89.6 37.8 168 170 169
30.2 -88.2 37.2 168 170 169
31.0 -88.2 37.2 166 166 166
31.9 -88.1 37.2 168 170 169
32.7 -87.9 37.1 168 170 169
33.5 -87.9 37.1 168 170 169
34.6 -88.4 37.3 166 166 166
35.2 -87.9 37.1 168 170 169
36.2 -88.2 37.2 168 170 169
37.8 -89.8 37.9 168 170 169
38.3 -88.9 37.5 168 170 169
39.1 -88.9 37.5 168 170 169
39.9 -88.6 37.4 169 171 170
40.9 -88.9 37.5 169 171 170
43.1 -90.0 38.0 169 171 170
43.3 -88.4 37.3 169 171 170
43.8 -87.7 37.0 169 171 170
44.9 -88.2 37.2 169 171 170
45.9 -88.4 37.3 169 171 170
47.0 -88.9 37.5 169 171 170
47.9 -88.9 37.5 169 171 170
48.5 -88.4 37.3 169 171 170
49.0 -87.9 37.1 169 171 170
50.3 -88.6 37.4 169 171 170
51.6 -89.3 37.7 169 171 170
52.3 -89.1 37.6 170 172 172
53.2 -89.1 37.6 170 172 172
54.3 -89.5 37.8 170 172 172
55.5 -90.0 38.0 173 175 175
58.7 -89.5 37.8 173 175 175
57.7 -86.7 36.6 174 176 176
147.0 -217.6 91.8 171 173 173
147.7 -215.5 90.9 171 173 173
204.8 -271.7 114.6 173 173 173
200.2 -262.1 110.6 173 173 173
55.3 -71.5 30.2 174 174 174
52.8 -67.4 28.4 174 174 174
48.6 -30.8 13.0 180 183 182
51.2 -31.9 13.5 218 218 218
50.3 -31.1 13.1 218 218 218
39.9 -79.3 33.8 172 174 174
42.5 -79.7 34.0 177 177 177
43.2 -79.5 33.9 172 174 174
43.9 -79.3 33.8 177 177 177
44.6 -79.1 33.7 177 177 177
44.9 -78.3 33.4 177 177 177
47.8 -81.9 34.9 179 179 179
50.0 -84.2 35.9 182 182 182
50.7 -84.1 35.8 178 178 178
48.9 -79.8 34.0 180 180 180
49.5 -79.4 33.8 173 175 175
149.2 -218.6 93.2 171 173 173
182.2 -259.6 110.6 182 182 182
28.3 -38.1 16.2 176 179 178
56.9 -73.7 31.4 174 176 176
55.6 -71.1 30.3 175 177 177
53.4 -67.5 28.7 175 177 177
44.1 -27.7 11.8 207 207 207
43.3 -27.0 11.5 215 215 215
40.2 -74.6 32.1 196 196 196
41.4 -75.4 32.4 196 196 196
42.1 -75.2 32.4 193 193 193
42.1 -74.0 31.8 199 199 199
42.5 -73.4 31.6 199 199 199
45.1 -76.6 33.0 199 199 199
45.9 -76.6 33.0 199 199 199
46.2 -75.9 32.7 199 199 199
46.8 -75.6 32.6 196 196 196
46.9 -74.6 32.1 196 196 196
161.3 -237.5 102.3 200 200 200
149.2 -216.5 93.2 200 200 200
150.6 -215.4 92.7 200 200 200
171.2 -241.5 103.9 202 202 202
155.7 -216.5 93.2 202 202 202
27.8 -37.1 15.9 203 203 203
27.7 -36.5 15.7 199 199 199
55.8 -70.8 30.5 204 204 204
53.9 -67.4 29.0 198 198 198
40.1 -24.8 10.7 189 189 189
37.8 -68.2 29.6 203 203 203
38.5 -68.2 29.6 203 203 203
39.4 -68.5 29.8 203 203 203
39.8 -68.1 29.6 203 203 203
40.5 -68.1 29.6 203 203 203
44.8 -74.1 32.2 203 203 203
44.3 -70.9 30.8 203 203 203
44.9 -70.7 30.8 203 203 203
44.0 -68.2 29.6 203 203 203
186.9 -280.7 122.0 203 203 203
184.9 -273.6 119.0 203 203 203
155.4 -226.6 98.5 204 204 204
146.3 -210.2 91.4 204 204 204
146.3 -207.2 90.1 204 204 204
160.6 -224.2 97.5 205 205 205
148.4 -204.2 88.8 205 205 205
27.0 -35.3 15.3 206 206 206
27.0 -34.7 15.1 206 206 206
53.5 -66.2 28.8 205 205 205
39.7 -24.4 10.6 197 200 199
39.5 -24.1 10.5 179 179 179
39.5 -24.0 10.4 174 174 174
37.2 -67.7 29.7 203 203 203
37.3 -66.6 29.2 203 203 203
37.6 -65.8 28.9 205 205 205
38.8 -66.8 29.3 205 205 205
39.1 -66.2 29.1 205 205 205
39.8 -66.2 29.1 205 205 205
43.0 -69.1 30.4 205 205 205
43.7 -69.2 30.4 205 205 205
44.3 -69.0 30.3 205 205 205
43.5 -66.8 29.3 205 205 205
43.5 -65.7 28.9 203 203 203
184.9 -270.8 119.0 203 203 203
150.7 -217.5 95.5 204 204 204
143.5 -204.1 89.7 204 204 204
143.6 -201.2 88.4 204 204 204
154.3 -213.2 93.6 205 205 205
141.7 -193.1 84.8 205 205 205
101.2 -134.2 58.9 205 205 205
26.9 -34.8 15.3 206 206 206
27.0 -34.4 15.1 204 204 204
27.3 -34.4 15.1 207 207 207
52.6 -64.5 28.3 207 207 207
21.4 -22.9 10.0 157 157 157
176.0 -129.7 57.0 117 117 117
162.6 -119.0 52.3 117 117 117
38.0 -68.3 30.3 205 205 205
37.9 -67.0 29.7 205 205 205
35.8 -62.1 27.6 205 205 205
39.2 -66.8 29.6 205 205 205
39.6 -66.3 29.4 205 205 205
45.1 -69.5 30.9 205 205 205
44.3 -67.2 29.8 205 205 205
43.4 -64.9 28.8 205 205 205
41.9 -61.7 27.4 205 205 205
144.9 -206.9 91.8 206 206 206
138.6 -187.0 83.0 207 207 207
110.5 -147.0 65.2 205 205 205
101.5 -133.2 59.1 205 205 205
27.1 -34.2 15.2 206 206 206
27.4 -34.1 15.1 207 207 207
179.2 -130.8 58.0 122 122 122
168.2 -121.8 54.0 123 123 123
36.3 -62.4 28.0 208 208 208
37.0 -62.5 28.0 208 208 208
37.7 -62.5 28.0 208 208 208
46.3 -70.7 31.7 208 208 208
44.9 -67.5 30.3 208 208 208
42.8 -63.2 28.4 205 205 205
41.9 -61.0 27.4 205 205 205
109.4 -144.0 64.6 207 207 207
101.8 -132.2 59.3 207 207 207
27.1 -33.8 15.2 206 206 206
27.4 -33.8 15.2 206 206 206
36.6 -63.3 28.7 207 207 207
36.7 -62.3 28.2 207 207 207
37.4 -62.4 28.3 207 207 207
38.0 -62.3 28.2 207 207 207
38.8 -62.5 28.3 207 207 207
47.1 -71.1 32.2 207 207 207
44.6 -66.3 30.0 207 207 207
43.2 -63.2 28.6 207 207 207
43.1 -62.1 28.1 204 204 204
27.6 -35.1 15.9 207 207 207
27.4 -34.3 15.5 205 205 205
27.2 -33.6 15.2 205 205 205
27.6 -33.6 15.2 206 206 206
27.8 -33.5 15.2 206 206 206
48.6 -73.8 33.8 207 207 207
48.0 -71.7 32.8 207 207 207
45.2 -66.5 30.5 207 207 207
44.1 -63.8 29.2 207 207 207
43.4 -61.9 28.4 207 207 207
44.8 -62.9 28.8 207 207 207
27.5 -34.0 15.6 207 207 207
27.4 -33.5 15.3 207 207 207
27.6 -33.3 15.3 207 207 207
45.3 -71.6 33.1 206 206 206
45.9 -71.3 33.0 206 206 206
47.0 -71.7 33.2 206 206 206
48.4 -72.7 33.7 206 206 206
47.7 -70.6 32.7 206 206 206
45.4 -66.1 30.6 206 206 206
44.6 -64.0 29.6 206 206 206
44.0 -62.0 28.7 206 206 206
44.0 -61.2 28.3 206 206 206
27.6 -33.9 15.7 206 206 206
27.3 -33.1 15.3 206 206 206
27.5 -32.9 15.2 207 207 207
27.8 -32.7 15.1 207 207 207
-21.2 -22.4 10.5 58 58 58
-19.3 -22.4 10.5 104 104 104
-17.7 -22.5 10.5 108 110 110
-17.3 -22.4 10.5 108 110 110
-15.4 -22.4 10.5 117 119 118
-14.6 -22.4 10.5 118 120 119
-14.4 -22.4 10.5 118 120 119
-9.8 -23.6 11.0 136 138 137
-9.4 -23.3 10.9 139 138 137
45.8 -70.3 32.9 209 209 209
46.7 -70.6 33.0 206 206 206
48.0 -71.3 33.4 206 206 206
47.7 -69.7 32.6 206 206 206
44.6 -62.2 29.1 206 206 206
51.1 -68.2 31.9 206 206 206
53.6 -70.6 33.0 207 207 207
54.6 -70.8 33.1 207 207 207
27.8 -33.6 15.7 205 205 205
27.4 -32.7 15.3 206 206 206
27.5 -32.5 15.2 206 206 206
27.7 -32.3 15.1 206 206 206
-10.4 -23.7 11.2 132 135 134
-10.2 -23.6 11.2 134 134 134
-9.9 -23.7 11.2 133 133 133
-9.7 -23.7 11.2 136 138 137
-9.5 -24.0 11.4 137 136 135
-6.1 -23.9 11.3 166 169 168
-5.8 -23.9 11.3 168 170 169
-5.5 -23.8 11.3 170 171 170
-5.3 -23.9 11.3 172 172 172
-4.7 -23.7 11.2 175 177 177
-4.5 -23.7 11.2 173 175 175
-4.2 -23.7 11.2 179 179 179
-3.9 -23.7 11.2 178 178 178
-3.7 -23.7 11.2 177 177 177
-3.4 -23.7 11.2 182 182 182
-3.2 -23.7 11.2 180 180 180
-2.9 -23.7 11.2 182 182 182
-2.6 -23.7 11.2 182 182 182
-2.4 -23.9 11.3 181 181 181
-2.1 -23.8 11.3 181 181 181
-1.9 -23.9 11.3 181 181 181
-1.6 -23.8 11.3 179 179 179
-1.3 -23.8 11.3 179 179 179
-0.6 -23.9 11.3 181 181 181
0.2 -23.8 11.3 180 180 180
0.5 -23.6 11.2 180 180 180
0.7 -23.6 11.2 180 180 180
1.0 -23.7 11.2 180 180 180
1.3 -23.7 11.2 180 180 180
6.8 -23.9 11.3 209 209 209
7.0 -23.8 11.3 209 209 209
7.3 -23.9 11.3 209 209 209
7.6 -23.8 11.3 209 209 209
7.8 -23.8 11.2 209 209 209
8.1 -23.9 11.3 209 209 209
8.4 -24.0 11.3 209 209 209
8.7 -23.9 11.3 209 209 209
8.8 -23.7 11.2 209 209 209
9.2 -24.0 11.3 209 209 209
9.5 -24.0 11.4 209 209 209
9.7 -24.0 11.3 209 209 209
9.9 -23.8 11.3 209 209 209
10.2 -23.9 11.3 209 209 209
10.4 -23.8 11.3 209 209 209
11.1 -24.0 11.4 208 208 208
11.3 -23.9 11.3 208 208 208
11.5 -23.8 11.3 208 208 208
11.7 -23.8 11.3 208 208 208
12.0 -23.7 11.2 205 205 205
47.8 -70.3 33.2 205 205 205
46.9 -67.8 32.1 205 205 205
46.2 -65.8 31.1 205 205 205
45.3 -62.5 29.6 205 205 205
44.5 -60.6 28.7 205 205 205
49.7 -65.7 31.1 206 206 206
53.3 -69.4 32.8 206 206 206
54.3 -69.7 33.0 206 206 206
27.8 -33.3 15.7 205 205 205
27.4 -32.5 15.4 205 205 205
27.5 -32.2 15.2 205 205 205
-29.0 -28.7 13.7 39 39 39
-28.7 -28.6 13.7 39 39 39
-27.7 -28.6 13.7 44 44 44
-27.1 -28.7 13.7 44 44 44
-26.6 -28.5 13.6 48 48 48
-24.1 -28.5 13.6 97 100 99
7.9 -28.7 13.7 208 208 208
8.3 -28.7 13.7 208 208 208
8.6 -28.7 13.7 208 208 208
8.9 -28.7 13.7 208 208 208
9.5 -28.5 13.6 208 208 208
10.2 -28.7 13.7 211 211 211
8.9 -23.6 11.3 208 208 208
9.6 -24.0 11.5 208 208 208
9.8 -23.8 11.4 208 208 208
12.7 -28.7 13.7 208 208 208
11.3 -23.8 11.4 208 208 208
11.5 -23.6 11.3 208 208 208
15.3 -28.7 13.7 208 208 208
47.5 -69.0 33.0 208 208 208
46.5 -66.6 31.8 208 208 208
46.9 -65.0 31.1 208 208 208
44.7 -60.1 28.7 208 208 208
44.8 -59.4 28.4 208 208 208
53.5 -68.9 33.0 206 206 206
54.2 -68.8 32.9 206 206 206
27.6 -32.3 15.5 205 205 205
27.5 -31.8 15.2 205 205 205
27.5 -31.4 15.0 205 205 205
27.9 -31.0 14.8 206 206 206
-30.1 -29.1 14.1 42 43 42
-29.0 -28.3 13.7 40 40 40
-29.6 -29.2 14.1 40 40 40
-28.3 -29.2 14.1 42 43 42
-27.9 -29.1 14.1 43 43 43
-25.3 -29.2 14.1 95 95 95
-24.2 -28.3 13.7 91 93 92
-13.9 -28.0 13.5 110 112 111
-13.6 -28.0 13.6 110 112 111
-13.3 -28.1 13.6 107 109 109
8.5 -29.2 14.1 208 208 208
8.8 -29.1 14.1 208 208 208
9.1 -29.0 14.0 208 208 208
9.2 -28.3 13.7 208 208 208
9.4 -28.1 13.6 208 208 208
10.2 -29.4 14.2 208 208 208
10.4 -29.1 14.1 208 208 208
10.4 -28.2 13.6 208 208 208
12.1 -29.2 14.1 208 208 208
11.9 -28.1 13.6 208 208 208
12.9 -29.4 14.2 208 208 208
13.0 -29.1 14.1 208 208 208
12.9 -28.2 13.6 208 208 208
11.5 -23.8 11.5 208 208 208
15.7 -29.1 14.1 208 208 208
15.5 -28.2 13.6 208 208 208
45.7 -67.9 32.8 207 207 207
46.8 -68.4 33.1 207 207 207
47.7 -68.6 33.2 207 207 207
46.9 -66.4 32.1 207 207 207
44.9 -59.7 28.9 207 207 207
44.1 -57.9 28.0 208 208 208
54.1 -68.9 33.3 205 205 205
54.3 -68.1 33.0 205 205 205
57.3 -69.0 33.4 206 206 206
57.7 -68.5 33.1 206 206 206
27.7 -31.6 15.3 207 207 207
27.7 -31.2 15.1 204 204 204
27.9 -31.0 15.0 205 205 205
28.0 -30.7 14.9 205 205 205
-42.8 -31.1 15.2 54 54 54
-42.4 -31.1 15.2 52 52 52
-41.0 -31.0 15.2 52 52 52
-40.7 -31.1 15.2 54 54 54
-40.3 -31.1 15.2 54 54 54
-39.6 -31.1 15.2 54 54 54
-38.8 -31.0 15.2 56 57 55
-38.5 -31.0 15.2 54 54 54
-38.2 -31.0 15.2 52 52 52
-37.8 -31.1 15.2 53 52 52
-37.5 -31.1 15.2 53 52 52
-36.7 -31.0 15.2 48 47 46
-36.4 -31.0 15.2 45 45 45
-35.7 -31.0 15.2 45 45 45
-33.3 -31.1 15.2 46 46 46
-32.9 -31.1 15.2 46 46 46
-32.6 -31.1 15.2 43 43 43
-32.1 -31.0 15.2 43 43 43
-31.7 -30.9 15.1 43 43 43
-30.1 -31.1 15.2 42 42 42
-26.9 -31.1 15.2 77 77 77
-26.5 -31.0 15.2 96 96 96
-26.2 -31.0 15.2 92 95 94
-14.5 -28.9 14.1 102 102 102
-14.1 -28.8 14.1 81 81 81
-13.8 -28.8 14.1 72 72 72
-13.5 -28.8 14.1 72 72 72
8.5 -28.9 14.2 207 207 207
8.8 -28.9 14.1 207 207 207
9.1 -28.8 14.1 207 207 207
10.3 -31.3 15.3 207 207 207
10.5 -31.1 15.2 207 207 207
10.9 -31.2 15.2 207 207 207
11.3 -31.1 15.2 207 207 207
11.6 -31.0 15.2 207 207 207
12.0 -31.0 15.2 210 210 210
12.3 -31.0 15.1 210 210 210
12.6 -31.0 15.2 207 207 207
13.0 -31.1 15.2 207 207 207
13.4 -31.1 15.2 207 207 207
13.7 -31.0 15.2 207 207 207
14.1 -31.1 15.2 207 207 207
14.4 -31.0 15.2 207 207 207
11.6 -23.8 11.7 207 207 207
15.5 -31.1 15.2 207 207 207
15.8 -31.0 15.2 207 207 207
16.2 -31.0 15.2 207 207 207
15.7 -28.9 14.1 207 207 207
16.0 -28.8 14.1 207 207 207
17.7 -31.1 15.2 207 207 207
18.0 -31.1 15.2 207 207 207
18.3 -31.0 15.2 207 207 207
43.8 -57.5 28.1 207 207 207
43.9 -56.9 27.8 207 207 207
44.1 -56.4 27.6 204 204 204
54.4 -68.4 33.5 204 204 204
54.6 -67.7 33.1 205 205 205
48.4 -57.6 28.2 205 205 205
27.7 -31.3 15.3 206 206 206
27.8 -31.0 15.2 206 206 206
28.1 -30.9 15.1 206 206 206
27.8 -30.3 14.8 204 204 204
37.3 -20.6 10.1 128 131 130
37.4 -20.5 10.1 122 122 122
-43.1 -30.9 15.3 55 55 55
-43.4 -31.4 15.5 55 55 55
-43.0 -31.4 15.5 55 55 55
-42.6 -31.4 15.5 55 55 55
-42.2 -31.4 15.5 55 55 55
-41.9 -31.4 15.5 57 58 56
-41.6 -31.4 15.5 57 58 56
-41.2 -31.4 15.5 55 55 55
-40.8 -31.4 15.5 55 55 55
-40.5 -31.4 15.5 55 55 55
-40.1 -31.4 15.5 55 55 55
-39.9 -31.5 15.6 55 55 55
-39.6 -31.5 15.6 57 58 56
-39.0 -31.4 15.5 53 52 52
-38.7 -31.4 15.5 53 52 52
-38.3 -31.4 15.5 51 51 51
-37.9 -31.4 15.5 51 51 51
-37.6 -31.4 15.5 51 51 51
-37.2 -31.4 15.5 49 48 47
-37.0 -31.5 15.6 46 46 46
-36.6 -31.5 15.6 46 46 46
-36.3 -31.5 15.6 47 47 47
-34.4 -31.4 15.6 47 47 47
-34.0 -31.4 15.5 47 47 47
-33.7 -31.4 15.6 47 47 47
-33.3 -31.4 15.6 47 47 47
-32.9 -31.4 15.5 47 47 47
-32.3 -31.2 15.4 47 47 47
-32.2 -31.4 15.5 44 44 44
-32.1 -31.7 15.7 45 45 45
-31.5 -31.5 15.6 42 43 42
-31.2 -31.5 15.6 45 45 45
-30.7 -31.4 15.5 42 43 42
-28.7 -31.5 15.6 43 43 43
-27.5 -31.4 15.5 48 48 48
-27.1 -31.3 15.5 52 52 52
-26.8 -31.4 15.5 53 53 53
-16.2 -31.1 15.4 16 16 16
-15.6 -30.7 15.2 26 26 26
-15.0 -31.7 15.7 31 30 29
-14.6 -31.6 15.6 27 29 27
-10.2 -24.0 11.9 30 29 28
-10.0 -24.0 11.9 30 30 30
-9.2 -24.1 11.9 179 182 181
9.8 -31.8 15.7 210 210 210
10.1 -31.5 15.6 210 210 210
10.4 -31.4 15.5 210 210 210
11.1 -31.3 15.5 207 207 207
11.5 -31.3 15.5 207 207 207
9.9 -24.0 11.9 207 207 207
11.3 -24.1 11.9 207 207 207
11.5 -23.9 11.8 207 207 207
11.7 -23.8 11.8 207 207 207
16.2 -31.4 15.6 207 207 207
16.5 -31.3 15.5 207 207 207
17.0 -31.5 15.6 207 207 207
17.2 -31.3 15.5 207 207 207
17.6 -31.3 15.5 207 207 207
18.0 -31.4 15.5 207 207 207
18.5 -31.5 15.6 207 207 207
43.2 -57.8 28.6 206 206 206
43.2 -57.0 28.2 206 206 206
43.4 -56.4 27.9 206 206 206
43.8 -56.1 27.7 207 207 207
44.0 -55.5 27.5 207 207 207
44.3 -55.2 27.3 207 207 207
46.2 -55.9 27.7 207 207 207
47.7 -56.9 28.1 205 205 205
47.8 -56.3 27.9 205 205 205
28.1 -30.5 15.1 206 206 206
27.8 -29.5 14.6 204 204 204
37.4 -20.4 10.1 138 138 138
-44.4 -31.5 15.8 55 55 55
-44.1 -31.5 15.8 58 59 57
-43.7 -31.5 15.8 55 55 55
-43.3 -31.5 15.8 53 53 53
-42.9 -31.5 15.8 58 59 57
-42.6 -31.5 15.8 58 59 57
-42.2 -31.5 15.8 58 59 57
-41.8 -31.5 15.8 58 59 57
-41.5 -31.5 15.8 58 59 57
-41.1 -31.5 15.8 58 59 57
-40.7 -31.5 15.8 56 56 56
-40.4 -31.5 15.8 56 56 56
-40.0 -31.5 15.8 56 56 56
-39.6 -31.5 15.8 56 56 56
-39.3 -31.5 15.8 53 53 53
-38.9 -31.5 15.8 53 53 53
-38.5 -31.5 15.8 52 52 52
-38.2 -31.5 15.8 50 49 48
-37.8 -31.5 15.8 47 47 47
-37.4 -31.5 15.8 47 47 47
-37.1 -31.5 15.8 47 47 47
-36.7 -31.5 15.8 47 48 47
-36.3 -31.5 15.8 47 48 47
-35.3 -31.5 15.8 51 50 48
-34.9 -31.6 15.8 47 48 47
-34.5 -31.5 15.8 45 45 45
-34.2 -31.6 15.8 47 48 47
-33.8 -31.5 15.8 47 48 47
-33.4 -31.5 15.8 47 48 47
-32.9 -31.4 15.7 47 48 47
-32.6 -31.5 15.8 46 46 46
-32.4 -31.6 15.8 46 46 46
-32.0 -31.6 15.8 46 46 46
-31.7 -31.6 15.8 46 46 46
-31.2 -31.5 15.8 43 43 43
-29.0 -31.5 15.8 40 40 40
-28.8 -31.6 15.8 42 43 42
-28.3 -31.5 15.8 42 43 42
-27.9 -31.5 15.8 43 43 43
-27.5 -31.5 15.8 43 43 43
-27.2 -31.5 15.8 47 48 47
-26.8 -31.5 15.8 49 49 49
-16.5 -31.3 15.7 26 26 26
-16.0 -31.2 15.6 26 26 26
-15.6 -31.1 15.6 28 28 28
-15.1 -31.6 15.8 27 27 27
-14.7 -31.5 15.8 27 27 27
-10.0 -23.7 11.9 30 30 30
-9.2 -23.8 11.9 179 182 181
9.9 -31.6 15.8 209 209 209
10.2 -31.6 15.8 209 209 209
11.3 -31.4 15.7 207 207 207
9.7 -23.8 11.9 206 206 206
9.9 -23.7 11.9 206 206 206
10.2 -23.8 11.9 206 206 206
10.5 -23.8 11.9 206 206 206
10.7 -23.8 11.9 206 206 206
11.0 -23.8 11.9 206 206 206
11.4 -23.9 12.0 206 206 206
11.5 -23.7 11.8 206 206 206
11.8 -23.6 11.8 206 206 206
16.1 -31.5 15.8 206 206 206
16.4 -31.5 15.8 206 206 206
14.4 -23.8 11.9 209 209 209
14.6 -23.8 11.9 206 206 206
42.9 -56.0 28.0 206 206 206
43.0 -55.2 27.7 206 206 206
43.9 -55.6 27.8 206 206 206
44.0 -54.9 27.5 206 206 206
43.7 -53.8 26.9 206 206 206
47.7 -56.2 28.1 207 207 207
47.8 -55.6 27.8 207 207 207
48.1 -55.2 27.6 207 207 207
27.7 -29.4 14.7 205 205 205
27.5 -28.8 14.4 206 206 206
37.0 -20.0 10.0 141 141 141
37.3 -20.0 10.0 128 131 130
37.9 -20.0 10.0 113 115 114
-33.9 -23.8 12.0 58 59 57
-44.8 -31.7 16.0 58 59 57
-44.4 -31.6 16.0 58 59 57
-43.9 -31.6 16.0 56 56 56
-43.6 -31.6 16.0 59 60 58
-43.2 -31.6 16.0 59 60 58
-42.9 -31.6 16.0 59 60 58
-42.5 -31.6 16.0 59 60 58
-42.1 -31.6 16.0 59 60 58
-41.7 -31.6 16.0 59 60 58
-41.3 -31.6 16.0 59 60 58
-41.0 -31.6 16.0 59 60 58
-40.6 -31.6 16.0 57 57 57
-40.3 -31.6 16.0 57 57 57
-39.9 -31.6 16.0 54 54 54
-39.5 -31.6 16.0 53 52 52
-39.1 -31.6 16.0 53 52 52
-38.7 -31.6 16.0 53 52 52
-38.4 -31.6 16.0 51 50 48
-38.0 -31.6 16.0 51 50 48
-37.6 -31.6 16.0 51 50 48
-37.2 -31.5 16.0 48 48 48
-36.8 -31.5 16.0 48 48 48
-27.4 -23.8 12.0 48 48 48
-27.2 -23.8 12.0 48 48 48
-26.9 -23.8 12.0 51 51 49
-35.5 -31.7 16.0 48 48 48
-35.1 -31.7 16.0 48 48 48
-34.7 -31.7 16.0 48 48 48
-34.2 -31.6 16.0 48 48 48
-33.8 -31.5 16.0 48 48 48
-33.4 -31.5 15.9 49 49 49
-33.2 -31.6 16.0 47 47 47
-32.9 -31.7 16.1 47 47 47
-32.5 -31.7 16.0 47 47 47
-32.1 -31.7 16.0 44 44 44
-31.6 -31.6 16.0 45 45 45
-23.5 -23.8 12.0 45 45 45
-29.1 -31.6 16.0 41 40 38
-28.7 -31.6 16.0 41 40 38
-28.3 -31.6 16.0 41 41 39
-27.9 -31.6 16.0 41 41 39
-27.6 -31.6 16.0 42 43 42
-27.2 -31.5 16.0 45 45 45
-20.2 -23.8 12.0 42 43 42
-19.9 -23.8 12.0 45 45 45
-19.6 -23.8 12.0 43 43 43
-18.8 -23.8 12.0 73 75 75
-16.7 -23.7 12.0 21 24 22
-16.5 -23.6 12.0 21 24 22
-16.7 -31.4 15.9 27 27 27
-16.3 -31.3 15.9 29 29 29
-15.9 -31.4 15.9 28 28 28
-15.0 -31.8 16.1 29 30 28
-10.7 -23.8 12.0 31 30 29
-10.3 -23.6 11.9 31 31 31
-10.0 -23.5 11.9 34 34 34
-9.7 -23.6 11.9 36 36 36
-9.5 -23.7 12.0 138 138 138
-9.2 -23.7 12.0 185 185 185
-8.9 -23.6 11.9 186 188 187
8.1 -23.7 12.0 209 209 209
8.7 -23.8 12.1 209 209 209
8.8 -23.4 11.9 209 209 209
9.0 -23.4 11.8 209 209 209
9.5 -23.8 12.0 209 209 209
9.7 -23.6 12.0 206 206 206
10.0 -23.6 11.9 206 206 206
10.3 -23.6 12.0 209 209 209
10.6 -23.7 12.0 208 208 208
10.8 -23.6 11.9 208 208 208
11.2 -23.8 12.0 208 208 208
11.5 -23.8 12.1 206 206 206
11.6 -23.5 11.9 206 206 206
11.8 -23.4 11.8 206 206 206
12.2 -23.6 11.9 206 206 206
12.5 -23.7 12.0 208 208 208
12.8 -23.7 12.0 208 208 208
13.0 -23.6 12.0 206 206 206
14.0 -23.8 12.1 206 206 206
14.3 -23.8 12.1 208 208 208
14.5 -23.7 12.0 206 206 206
14.7 -23.7 12.0 206 206 206
15.0 -23.6 12.0 208 208 208
43.2 -56.6 28.7 205 205 205
43.3 -55.8 28.3 205 205 205
43.0 -52.3 26.5 206 206 206
43.5 -52.1 26.4 206 206 206
44.3 -52.4 26.5 206 206 206
47.8 -55.7 28.2 206 206 206
48.0 -55.2 27.9 206 206 206
27.7 -29.1 14.7 205 205 205
27.4 -28.5 14.4 205 205 205
27.4 -28.1 14.2 205 205 205
37.2 -19.9 10.1 141 141 141
37.3 -19.8 10.0 128 131 130
38.0 -19.8 10.0 112 114 113
-34.0 -23.6 12.1 59 60 58
-33.8 -23.6 12.1 62 62 62
-33.5 -23.6 12.1 62 62 62
-33.2 -23.6 12.1 62 62 62
-32.9 -23.6 12.1 59 60 58
-32.6 -23.6 12.1 59 60 58
-32.4 -23.6 12.1 59 60 58
-32.1 -23.6 12.1 59 61 59
-31.8 -23.6 12.1 59 61 59
-31.5 -23.6 12.1 59 61 59
-31.2 -23.6 12.1 59 61 59
-31.0 -23.6 12.1 59 61 59
-30.7 -23.6 12.1 58 58 58
-30.4 -23.6 12.1 58 58 58
-30.1 -23.6 12.1 55 55 55
-29.8 -23.6 12.1 53 53 53
-29.6 -23.6 12.1 53 53 53
-29.3 -23.6 12.1 53 53 53
-29.0 -23.6 12.1 51 51 49
-28.7 -23.6 12.1 51 51 49
-28.5 -23.6 12.1 49 49 49
-28.2 -23.6 12.1 52 52 50
-27.9 -23.6 12.1 52 52 50
-27.6 -23.6 12.1 49 49 49
-27.3 -23.6 12.1 52 52 50
-27.0 -23.6 12.1 52 52 50
-26.7 -23.6 12.1 49 49 49
-26.5 -23.6 12.1 49 49 49
-26.2 -23.6 12.1 49 49 49
-25.9 -23.6 12.1 49 49 49
-25.6 -23.6 12.1 47 48 47
-25.3 -23.6 12.1 50 50 50
-25.1 -23.6 12.1 47 48 47
-24.8 -23.6 12.1 47 48 47
-24.5 -23.6 12.1 47 48 47
-24.2 -23.6 12.1 46 46 46
-23.9 -23.6 12.1 46 46 46
-23.6 -23.6 12.1 46 46 46
-23.3 -23.6 12.1 46 46 46
-23.1 -23.6 12.1 44 44 44
-22.8 -23.6 12.1 44 44 44
-22.5 -23.6 12.1 42 43 42
-22.2 -23.6 12.1 41 41 39
-22.0 -23.6 12.1 41 41 39
-21.7 -23.6 12.1 41 41 39
-21.4 -23.6 12.1 42 42 40
-21.1 -23.6 12.1 40 40 40
-20.9 -23.6 12.1 40 40 40
-20.6 -23.6 12.1 40 40 40
-20.3 -23.6 12.1 41 41 41
-20.0 -23.6 12.1 43 42 41
-19.7 -23.6 12.1 41 41 41
-19.4 -23.6 12.1 39 41 41
-19.1 -23.6 12.1 36 36 36
-18.9 -23.6 12.1 20 20 20
-18.7 -23.7 12.1 21 24 22
-18.3 -23.6 12.1 20 20 20
-18.0 -23.5 12.1 20 20 20
-17.7 -23.6 12.1 20 20 20
-17.4 -23.6 12.1 19 19 19
-17.2 -23.6 12.1 19 19 19
-16.9 -23.5 12.1 21 21 21
-16.6 -23.5 12.1 21 21 21
-16.3 -23.5 12.1 21 21 21
-16.0 -23.6 12.1 21 21 21
-14.2 -23.8 12.2 26 26 26
-13.8 -23.6 12.1 28 28 28
-13.5 -23.6 12.1 28 28 28
-11.9 -23.6 12.1 28 28 28
-11.6 -23.6 12.1 29 31 29
-11.3 -23.6 12.1 32 31 30
-11.1 -23.7 12.2 32 31 30
-10.7 -23.6 12.1 31 30 29
-10.4 -23.4 12.0 33 33 33
-10.1 -23.4 12.0 35 37 36
-9.8 -23.5 12.0 38 38 38
-9.6 -23.5 12.1 160 160 160
-9.3 -23.5 12.1 186 186 186
-9.0 -23.5 12.1 184 187 186
-5.1 -23.6 12.1 217 217 217
-4.8 -23.6 12.1 213 215 215
-4.5 -23.6 12.1 209 212 211
-4.3 -23.6 12.1 209 212 211
-4.0 -23.6 12.1 209 212 211
-3.7 -23.6 12.1 208 208 208
-3.4 -23.6 12.1 209 212 211
7.0 -23.6 12.1 208 208 208
8.1 -23.6 12.1 208 208 208
8.4 -23.6 12.1 208 208 208
8.7 -23.6 12.1 208 208 208
8.9 -23.5 12.1 208 208 208
9.5 -23.6 12.1 208 208 208
9.8 -23.6 12.1 208 208 208
10.1 -23.6 12.1 208 208 208
10.4 -23.6 12.1 208 208 208
10.6 -23.6 12.1 208 208 208
10.9 -23.6 12.1 208 208 208
11.2 -23.6 12.1 208 208 208
11.5 -23.6 12.1 205 205 205
11.8 -23.6 12.1 205 205 205
12.0 -23.5 12.1 205 205 205
12.3 -23.6 12.1 205 205 205
12.6 -23.6 12.1 208 208 208
12.9 -23.6 12.1 208 208 208
14.1 -23.7 12.1 208 208 208
14.4 -23.7 12.1 208 208 208
14.6 -23.6 12.1 208 208 208
14.8 -23.6 12.1 208 208 208
15.4 -23.6 12.1 208 208 208
42.9 -56.3 28.9 205 205 205
43.3 -56.1 28.7 205 205 205
43.5 -55.4 28.4 205 205 205
43.8 -54.9 28.1 205 205 205
44.4 -54.9 28.1 205 205 205
45.0 -54.8 28.1 205 205 205
45.5 -54.7 28.0 205 205 205
45.0 -53.3 27.3 205 205 205
48.0 -56.0 28.7 206 206 206
47.8 -55.1 28.2 206 206 206
48.3 -54.8 28.1 206 206 206
48.9 -54.8 28.1 206 206 206
49.7 -55.0 28.2 206 206 206
28.1 -29.1 14.9 204 204 204
27.8 -28.5 14.6 204 204 204
37.3 -19.7 10.1 141 141 141
37.2 -19.5 10.0 133 133 133
-34.6 -23.7 12.3 59 61 59
-34.4 -23.7 12.3 59 61 59
-34.1 -23.7 12.3 59 61 59
-33.8 -23.7 12.3 63 63 63
-33.5 -23.7 12.3 63 63 63
-33.3 -23.8 12.3 59 61 59
-33.0 -23.8 12.3 59 61 59
-32.7 -23.8 12.3 59 61 59
-32.4 -23.8 12.3 59 61 59
-32.1 -23.7 12.3 60 62 60
-31.8 -23.8 12.3 60 62 60
-31.6 -23.8 12.3 60 62 60
-31.3 -23.8 12.3 58 59 59
-31.0 -23.8 12.3 58 59 59
-30.7 -23.8 12.3 56 56 56
-30.4 -23.7 12.3 56 56 56
-30.1 -23.7 12.3 54 54 54
-29.9 -23.8 12.4 54 54 54
-29.6 -23.8 12.4 52 52 50
-29.3 -23.8 12.3 52 52 50
-29.0 -23.8 12.3 50 50 50
-28.7 -23.7 12.3 50 50 50
-28.4 -23.8 12.3 50 50 50
-28.1 -23.7 12.3 53 52 51
-27.8 -23.7 12.3 53 52 51
-27.5 -23.7 12.3 53 52 51
-27.2 -23.7 12.3 53 52 51
-26.9 -23.7 12.3 53 52 51
-26.7 -23.8 12.3 53 52 51
-26.4 -23.8 12.3 51 51 51
-26.1 -23.7 12.3 51 51 51
-25.8 -23.7 12.3 51 51 51
-25.6 -23.8 12.4 51 51 51
-25.3 -23.9 12.4 51 51 51
-25.0 -23.8 12.3 49 49 49
-24.7 -23.7 12.3 49 49 49
-24.3 -23.7 12.3 47 47 47
-24.1 -23.8 12.3 47 47 47
-23.8 -23.7 12.3 47 48 47
-23.6 -23.8 12.3 45 45 45
-23.2 -23.7 12.3 45 45 45
-22.9 -23.7 12.3 43 43 43
-22.8 -23.9 12.4 43 43 43
-22.4 -23.8 12.3 43 43 43
-22.1 -23.7 12.3 44 44 44
-21.8 -23.7 12.3 43 42 41
-21.6 -23.8 12.4 43 42 41
-21.3 -23.8 12.3 41 41 41
-20.9 -23.8 12.3 39 41 41
-20.6 -23.7 12.3 40 42 42
-20.4 -23.8 12.3 40 42 42
-20.1 -23.8 12.3 40 42 42
-19.7 -23.7 12.3 37 38 37
-19.5 -23.8 12.3 30 29 29
-19.2 -23.8 12.3 20 20 20
-18.9 -23.7 12.3 17 17 17
-18.6 -23.6 12.3 17 17 17
-18.1 -23.7 12.3 19 19 19
-17.8 -23.8 12.3 17 17 17
-17.6 -23.9 12.4 19 19 19
-17.3 -23.9 12.4 21 21 21
-16.8 -23.5 12.2 21 21 21
-16.3 -23.7 12.3 22 25 23
-14.4 -23.9 12.4 29 29 29
-14.0 -23.7 12.3 29 29 29
-13.0 -24.0 12.4 30 29 29
-12.4 -23.8 12.3 30 31 30
-12.1 -23.8 12.3 30 31 30
-11.8 -23.8 12.3 30 31 30
-11.5 -23.7 12.3 28 28 28
-11.2 -23.7 12.3 29 31 29
-10.8 -23.5 12.2 32 31 30
-10.5 -23.4 12.1 29 30 28
-10.2 -23.3 12.1 36 38 37
-10.0 -23.5 12.2 42 42 42
-9.7 -23.5 12.2 173 173 173
-9.4 -23.5 12.2 186 188 187
11.4 -23.7 12.3 208 208 208
14.5 -23.7 12.3 207 207 207
14.7 -23.5 12.2 207 207 207
43.9 -57.1 29.6 207 207 207
44.5 -56.9 29.5 207 207 207
44.1 -55.5 28.8 207 207 207
44.5 -55.3 28.7 207 207 207
44.9 -54.8 28.4 207 207 207
45.5 -54.8 28.4 205 205 205
46.2 -54.8 28.4 205 205 205
46.3 -54.2 28.1 205 205 205
49.4 -57.0 29.6 205 205 205
48.0 -54.7 28.4 205 205 205
48.4 -54.4 28.2 205 205 205
49.3 -54.6 28.3 206 206 206
50.6 -55.3 28.7 206 206 206
28.2 -29.0 15.0 206 206 206
28.1 -28.4 14.8 204 204 204
702.9 -405.2 210.2 177 180 179
-35.1 -23.8 12.5 60 62 60
-35.0 -23.9 12.5 58 58 58
-34.8 -23.9 12.6 64 64 64
-34.5 -23.9 12.6 64 64 64
-34.2 -23.9 12.6 64 64 64
-33.9 -23.9 12.6 60 62 60
-33.6 -23.9 12.6 60 62 60
-33.3 -23.9 12.6 60 62 60
-33.0 -23.9 12.6 58 59 59
-32.7 -23.9 12.5 60 62 60
-32.4 -23.9 12.6 61 63 61
-32.2 -23.9 12.6 65 65 65
-31.8 -23.9 12.5 58 59 59
-31.5 -23.9 12.6 59 59 59
-31.3 -23.9 12.6 57 57 57
-30.9 -23.9 12.5 55 55 55
-30.7 -23.9 12.5 57 57 57
-30.4 -23.9 12.5 55 55 55
-30.1 -23.9 12.6 53 52 51
-29.8 -23.9 12.6 55 55 55
-29.5 -23.9 12.6 54 53 52
-29.2 -23.9 12.6 54 53 52
-28.9 -23.9 12.6 54 53 52
-28.6 -23.9 12.5 54 53 52
-28.3 -23.9 12.5 54 53 52
-28.0 -23.9 12.5 54 53 52
-27.7 -23.9 12.5 54 53 52
-27.5 -23.9 12.6 54 53 52
-27.2 -23.9 12.6 55 54 53
-26.8 -23.9 12.5 52 52 52
-26.5 -23.8 12.5 52 52 52
-26.3 -23.9 12.5 52 52 52
-26.1 -24.0 12.6 52 52 52
-25.8 -24.0 12.6 52 52 52
-25.4 -23.9 12.5 53 52 52
-25.1 -23.9 12.5 53 52 52
-24.7 -23.8 12.5 50 50 50
-24.4 -23.8 12.5 48 48 48
-24.3 -24.0 12.6 48 48 48
-24.1 -24.1 12.6 46 46 46
-23.7 -23.9 12.5 47 47 47
-23.5 -24.0 12.6 47 47 47
-23.2 -24.0 12.6 44 44 44
-22.8 -23.9 12.5 45 45 45
-22.4 -23.8 12.5 45 45 45
-22.3 -24.0 12.6 44 43 42
-22.0 -24.0 12.6 44 43 42
-21.6 -23.9 12.6 45 44 43
-21.3 -23.9 12.6 41 43 42
-21.1 -23.9 12.6 42 43 42
-20.8 -23.9 12.6 41 43 42
-20.4 -23.8 12.5 41 43 42
-20.1 -23.8 12.5 37 38 37
-19.9 -23.9 12.5 28 28 28
-19.6 -23.9 12.6 19 19 19
-19.2 -23.7 12.5 16 16 16
-18.7 -24.0 12.6 18 18 18
-18.4 -23.8 12.5 18 18 18
-18.1 -23.9 12.6 18 18 18
-17.8 -23.8 12.5 20 20 20
-17.4 -23.8 12.5 22 22 22
-13.1 -23.8 12.5 28 28 28
-13.0 -24.1 12.6 31 32 30
-12.6 -24.0 12.6 31 32 30
-12.0 -23.9 12.6 30 31 30
-11.7 -23.9 12.5 30 31 30
-11.0 -23.7 12.4 29 31 29
-10.2 -23.7 12.5 41 41 41
-9.7 -24.1 12.7 184 187 186
-9.4 -24.0 12.6 189 189 189
-9.1 -24.0 12.6 188 188 188
44.9 -57.6 30.2 206 206 206
45.5 -57.5 30.2 206 206 206
45.1 -56.1 29.5 206 206 206
45.5 -55.8 29.3 207 207 207
46.3 -55.9 29.4 207 207 207
48.3 -57.5 30.2 207 207 207
48.7 -57.1 30.0 207 207 207
51.1 -59.1 31.0 204 204 204
50.3 -57.4 30.1 205 205 205
48.6 -54.7 28.7 205 205 205
48.8 -54.2 28.4 205 205 205
50.2 -54.9 28.8 205 205 205
52.3 -56.5 29.6 205 205 205
28.6 -29.3 15.4 206 206 206
639.0 -363.9 191.1 177 180 179
517.9 -292.9 153.8 178 181 180
-35.7 -23.9 12.7 60 62 60
-29.3 -24.0 12.7 57 57 57
-28.6 -23.9 12.7 55 54 53
-28.3 -23.9 12.7 55 54 53
-26.0 -23.9 12.7 53 53 53
-25.0 -23.8 12.6 51 51 51
-13.0 -25.0 13.3 39 39 39
-12.5 -24.7 13.1 39 41 41
-10.5 -21.2 11.3 49 49 49
-10.3 -21.4 11.4 52 52 52
-10.3 -23.6 12.6 43 43 43
-10.1 -23.9 12.7 186 188 187
-9.2 -23.9 12.7 189 189 189
45.4 -57.5 30.6 206 206 206
46.2 -57.6 30.6 206 206 206
49.4 -58.1 30.9 206 206 206
50.3 -58.2 31.0 206 206 206
53.6 -61.3 32.6 207 207 207
50.9 -57.3 30.5 204 204 204
48.8 -54.2 28.8 204 204 204
48.8 -53.5 28.4 204 204 204
50.2 -54.3 28.8 204 204 204
29.3 -27.7 14.7 203 203 203
30.5 -27.8 14.8 169 169 169
762.1 -428.8 227.9 177 180 179
-13.1 -24.9 13.4 87 86 84
-10.5 -20.9 11.3 52 52 50
-10.3 -21.1 11.4 38 40 40
-10.9 -24.2 13.0 20 23 21
45.4 -56.8 30.6 206 206 206
46.2 -57.0 30.7 206 206 206
50.1 -58.2 31.3 206 206 206
52.0 -59.5 32.0 206 206 206
53.8 -60.7 32.7 206 206 206
51.6 -57.4 30.9 206 206 206
48.7 -53.4 28.7 206 206 206
48.6 -52.6 28.3 207 207 207
52.6 -55.4 29.8 204 204 204
28.9 -27.2 14.7 202 202 202
30.8 -27.7 14.9 166 166 166
31.0 -27.6 14.8 180 180 180
-30.7 -24.2 13.2 60 60 60
-30.4 -24.2 13.2 58 59 59
-30.1 -24.2 13.2 58 59 59
-13.1 -24.5 13.4 23 26 24
-10.3 -20.9 11.4 44 44 44
-11.1 -24.2 13.2 30 31 30
-10.4 -24.1 13.1 183 186 185
-10.1 -24.0 13.1 182 185 184
-9.8 -24.1 13.1 186 186 186
45.8 -55.7 30.4 205 205 205
53.8 -60.8 33.1 206 206 206
54.2 -60.4 32.9 206 206 206
51.7 -56.8 31.0 206 206 206
50.0 -54.2 29.5 206 206 206
48.6 -51.9 28.3 206 206 206
29.2 -27.1 14.8 205 205 205
29.9 -27.5 15.0 205 205 205
32.3 -29.3 16.0 202 202 202
31.7 -28.5 15.5 202 202 202
31.7 -28.2 15.4 168 168 168
-31.3 -24.4 13.4 59 59 59
-30.6 -24.3 13.4 57 57 55
-13.6 -24.7 13.6 105 105 105
-13.1 -24.3 13.4 33 34 32
-11.1 -24.0 13.3 47 48 47
-10.9 -24.1 13.3 56 57 55
-10.5 -23.9 13.2 182 182 182
-10.1 -23.8 13.2 181 184 183
-9.8 -23.8 13.2 180 183 182
54.4 -60.7 33.5 205 205 205
54.6 -60.0 33.1 205 205 205
52.8 -57.2 31.6 205 205 205
49.8 -53.2 29.4 205 205 205
48.6 -51.2 28.3 206 206 206
49.7 -51.7 28.5 206 206 206
50.7 -52.1 28.7 206 206 206
50.4 -51.1 28.2 206 206 206
32.4 -29.1 16.0 204 204 204
32.1 -28.5 15.7 204 204 204
32.3 -28.3 15.6 165 165 165
32.8 -28.4 15.7 181 181 181
-37.7 -24.3 13.6 67 67 67
-37.4 -24.4 13.6 67 67 67
-37.0 -24.5 13.7 69 71 69
-36.4 -24.4 13.6 69 71 69
-36.1 -24.3 13.6 69 71 69
-36.0 -24.5 13.7 68 68 68
-35.7 -24.5 13.7 68 68 68
-35.2 -24.4 13.6 68 68 68
-34.8 -24.5 13.7 68 68 68
-34.2 -24.3 13.6 69 69 69
-33.9 -24.4 13.6 66 67 65
-33.6 -24.3 13.6 66 67 65
-33.3 -24.3 13.6 64 64 64
-33.1 -24.4 13.7 61 61 61
-32.6 -24.4 13.6 61 61 61
-32.3 -24.4 13.6 62 62 62
-32.0 -24.4 13.6 62 62 62
-31.7 -24.4 13.6 60 60 60
-31.4 -24.4 13.6 60 60 60
-31.1 -24.4 13.6 60 60 60
-30.8 -24.4 13.6 60 60 60
-26.9 -24.6 13.7 58 59 59
-26.3 -24.3 13.6 56 56 56
-13.2 -24.1 13.5 30 29 29
-11.1 -24.2 13.6 58 59 59
-10.6 -24.0 13.4 182 185 184
-10.2 -23.8 13.3 180 183 182
55.3 -60.1 33.6 208 208 208
53.4 -57.1 32.0 208 208 208
48.8 -51.6 28.8 205 205 205
48.6 -50.6 28.3 205 205 205
50.1 -51.5 28.8 205 205 205
50.8 -51.5 28.8 205 205 205
31.9 -29.0 16.2 206 206 206
32.7 -29.3 16.4 204 204 204
32.7 -29.0 16.2 204 204 204
33.1 -29.0 16.2 200 200 200
33.5 -29.0 16.2 165 165 165
33.4 -28.6 16.0 181 181 181
-38.2 -24.4 13.8 68 68 68
-38.0 -24.4 13.8 70 72 69
-37.7 -24.4 13.8 70 72 69
-37.4 -24.4 13.8 70 72 69
-36.9 -24.4 13.8 70 72 69
-36.7 -24.4 13.8 74 74 74
-36.4 -24.4 13.8 71 72 70
-36.1 -24.4 13.8 69 69 69
-35.7 -24.4 13.8 69 69 69
-35.4 -24.4 13.8 69 69 69
-35.0 -24.4 13.8 69 69 69
-34.7 -24.4 13.8 70 70 70
-33.5 -24.4 13.8 67 68 66
-33.1 -24.4 13.8 62 62 62
-32.8 -24.4 13.8 65 65 65
-32.5 -24.4 13.8 63 63 63
-32.2 -24.4 13.8 63 63 63
-31.8 -24.4 13.8 63 63 63
-31.5 -24.4 13.8 63 63 63
-31.2 -24.4 13.8 61 61 61
-27.1 -24.4 13.8 59 59 59
-26.6 -24.3 13.8 57 57 57
-13.3 -24.0 13.6 39 39 39
-10.8 -24.0 13.6 182 185 184
-10.3 -23.5 13.3 179 182 181
-10.4 -24.5 13.9 180 183 182
-10.0 -24.5 13.9 178 181 180
55.3 -59.2 33.5 204 204 204
52.9 -55.9 31.7 207 207 207
50.2 -52.3 29.6 207 207 207
48.7 -50.1 28.4 207 207 207
52.1 -52.2 29.6 208 208 208
32.4 -29.0 16.4 206 206 206
33.7 -29.8 16.9 206 206 206
33.1 -28.9 16.4 203 203 203
33.5 -29.0 16.4 206 206 206
34.3 -29.3 16.6 178 178 178
34.0 -28.7 16.3 180 180 180
761.8 -355.2 201.2 119 119 119
727.8 -337.3 191.1 113 115 114
-37.4 -24.2 13.9 71 72 70
-37.1 -24.1 13.9 71 72 70
-36.8 -24.1 13.9 71 72 70
-36.5 -24.2 13.9 72 73 71
-36.1 -24.1 13.9 72 73 71
-35.8 -24.1 13.9 72 73 71
-35.5 -24.1 13.9 70 70 70
-35.2 -24.1 13.9 70 70 70
-34.8 -24.1 13.8 70 70 70
-27.1 -24.2 13.9 60 60 60
-26.7 -24.1 13.8 60 60 60
-13.4 -23.8 13.6 43 45 45
-10.8 -23.8 13.7 182 185 184
-10.4 -24.3 14.0 177 180 179
54.6 -57.7 33.1 207 207 207
53.1 -55.4 31.8 207 207 207
51.2 -52.6 30.2 207 207 207
49.2 -49.9 28.7 207 207 207
52.6 -52.0 29.8 207 207 207
42.7 -39.6 22.7 205 205 205
33.8 -29.5 16.9 205 205 205
33.2 -28.7 16.5 205 205 205
34.5 -29.1 16.7 186 186 186
615.8 -281.6 161.7 117 117 117
-27.4 -24.1 14.0 56 56 56
-27.1 -24.1 14.0 61 61 61
-11.4 -23.9 13.9 64 65 63
-11.0 -23.8 13.9 181 184 183
-10.5 -24.2 14.1 178 181 180
52.3 -53.8 31.3 208 211 210
48.8 -48.9 28.4 207 207 207
50.0 -49.3 28.7 204 204 204
51.2 -49.9 29.0 207 207 207
50.0 -48.1 28.0 207 207 207
43.0 -39.3 22.9 207 207 207
43.1 -38.9 22.7 208 208 208
33.5 -28.5 16.6 205 205 205
49.2 -48.6 28.7 207 210 209
50.2 -48.9 28.8 207 207 207
51.1 -49.1 29.0 207 207 207
50.6 -48.0 28.3 207 207 207
44.9 -41.0 24.2 207 207 207
43.6 -39.4 23.2 207 207 207
43.4 -38.7 22.8 207 207 207
-11.0 -24.7 14.8 180 183 182
-10.7 -24.8 14.8 178 181 180
-10.4 -24.8 14.8 173 173 173
45.8 -41.2 24.7 207 207 207
45.2 -40.2 24.0 204 204 204
-39.9 -25.0 15.2 71 72 70
-39.6 -25.0 15.2 72 73 71
-39.1 -24.9 15.1 72 73 71
-38.8 -25.0 15.2 72 73 71
-38.5 -25.0 15.2 72 73 71
-38.1 -25.0 15.2 72 73 71
-11.1 -24.6 14.9 181 184 183
-10.8 -24.7 15.0 176 176 176
-10.5 -24.6 14.9 157 160 159
47.0 -41.7 25.3 208 211 210
-39.9 -24.9 15.3 62 62 62
-39.5 -24.9 15.3 70 70 70
-11.2 -25.3 15.5 177 177 177
-5.6 -16.3 10.0 159 162 161
12.9 -16.7 10.3 206 209 208
49.8 -44.1 27.1 207 210 209
-11.5 -25.5 15.9 171 173 173
-11.3 -25.8 16.1 159 162 161
-10.9 -25.9 16.2 156 159 158
9.4 -17.1 10.7 210 213 212
10.9 -17.1 10.7 207 210 209
11.1 -17.0 10.6 207 210 209
12.6 -16.5 10.3 206 209 208
13.5 -17.0 10.6 206 209 208
54.1 -23.6 14.7 160 160 160
-11.6 -25.4 16.1 180 180 180
-11.4 -25.8 16.3 166 166 166
-11.1 -25.9 16.4 162 162 162
9.4 -16.8 10.7 210 213 212
11.0 -16.6 10.5 206 209 208
12.6 -16.2 10.3 206 209 208
13.8 -16.8 10.6 204 204 204
55.8 -24.2 15.3 166 169 168
55.0 -23.7 15.0 161 161 161
-11.8 -26.3 16.9 169 169 169
58.7 -25.2 16.2 176 176 176
56.2 -24.0 15.4 169 171 170
-5.6 -15.3 10.0 116 116 116
69.8 -30.7 20.0 185 185 185
58.7 -24.8 16.2 172 174 174
57.0 -23.9 15.6 170 172 172
-26.7 -16.2 10.7 50 50 50
-26.4 -16.2 10.7 42 42 42
-25.9 -16.1 10.7 38 38 38
-25.7 -16.2 10.7 47 48 47
-25.3 -16.1 10.7 46 46 46
-13.6 -29.3 19.4 175 177 177
-13.0 -28.9 19.1 170 171 170
10.0 -15.1 10.0 209 212 211
13.5 -15.1 10.0 207 210 209
580.3 -484.0 320.6 208 211 210
670.9 -538.8 356.9 209 212 211
580.6 -460.6 305.1 209 212 211
455.5 -356.9 236.5 209 212 211
73.6 -31.5 20.9 186 186 186
61.1 -25.5 16.9 173 175 175
59.1 -24.4 16.2 170 171 170
-54.5 -28.8 19.4 64 65 63
-54.1 -28.8 19.4 73 73 73
-53.7 -28.8 19.4 73 73 73
-53.2 -28.8 19.4 69 71 69
-52.8 -28.8 19.4 62 62 62
-52.3 -28.8 19.4 45 45 45
-52.0 -28.9 19.4 63 63 63
-51.5 -28.8 19.4 146 146 146
-50.9 -28.7 19.3 57 56 55
-50.6 -28.9 19.4 19 23 20
-50.2 -28.9 19.4 19 23 20
-49.6 -28.8 19.4 26 26 26
-49.1 -28.8 19.4 29 31 29
-48.3 -28.8 19.4 26 26 26
-48.0 -28.9 19.4 24 24 24
-47.5 -28.9 19.4 26 26 26
-47.0 -28.8 19.4 35 35 35
-25.3 -15.8 10.7 61 61 61
-43.9 -28.9 19.5 42 42 42
-43.3 -28.8 19.4 123 125 124
-42.8 -28.8 19.4 150 150 150
-42.2 -28.7 19.3 17 17 17
-42.1 -28.9 19.4 26 26 26
-41.5 -28.8 19.4 24 24 24
-40.8 -28.7 19.3 28 28 28
-40.7 -28.9 19.4 41 43 42
-40.3 -28.9 19.5 49 49 49
-39.6 -28.7 19.3 56 56 56
-37.6 -28.9 19.4 64 64 64
-36.7 -28.6 19.2 72 73 71
-34.5 -29.0 19.5 67 67 67
-33.8 -28.8 19.4 56 56 56
-24.1 -29.0 19.5 36 36 34
-13.8 -28.4 19.1 178 181 180
-13.6 -28.8 19.4 177 180 179
-13.1 -28.8 19.4 175 175 175
486.2 -432.5 291.0 207 210 209
451.3 -396.0 266.4 207 210 209
464.0 -401.7 270.2 207 210 209
506.5 -432.5 291.0 207 210 209
513.2 -432.5 291.0 208 211 210
563.3 -468.6 315.3 208 211 210
622.5 -511.2 343.9 208 211 210
578.0 -468.6 315.3 208 211 210
509.0 -407.5 274.1 208 211 210
613.1 -484.8 326.1 209 212 211
654.5 -511.2 343.9 209 212 211
560.6 -432.5 291.0 209 212 211
752.6 -573.8 386.0 209 212 211
691.1 -520.7 350.3 210 213 212
74.5 -31.4 21.1 188 188 188
61.2 -25.1 16.9 174 176 176
-54.6 -28.4 19.4 56 55 54
-54.2 -28.4 19.4 67 67 67
-53.8 -28.4 19.4 75 75 75
-53.3 -28.4 19.4 69 71 69
-52.9 -28.4 19.4 44 44 44
-52.4 -28.4 19.4 116 118 117
-52.0 -28.4 19.4 119 119 119
-51.5 -28.4 19.4 10 15 11
-51.0 -28.4 19.4 19 23 20
-50.6 -28.4 19.4 19 23 20
-50.2 -28.4 19.4 26 26 26
-49.7 -28.4 19.4 27 27 27
-49.2 -28.4 19.4 33 32 30
-48.7 -28.4 19.4 19 23 20
-48.3 -28.4 19.4 29 31 29
-48.0 -28.4 19.4 19 23 20
-47.5 -28.4 19.4 26 26 26
-47.0 -28.4 19.4 29 31 29
-46.5 -28.4 19.4 57 57 55
-46.1 -28.4 19.4 74 74 74
-45.7 -28.4 19.4 70 72 69
-45.2 -28.4 19.4 64 64 64
-44.7 -28.4 19.4 54 54 54
-44.3 -28.4 19.4 53 52 52
-43.8 -28.4 19.4 66 67 65
-43.4 -28.4 19.4 122 124 123
-42.9 -28.4 19.4 88 90 89
-42.4 -28.4 19.4 139 139 139
-42.0 -28.4 19.4 172 174 174
-41.6 -28.4 19.4 66 67 65
-41.1 -28.4 19.4 24 24 24
-40.7 -28.4 19.4 19 23 20
-40.2 -28.4 19.4 16 16 16
-39.7 -28.4 19.4 18 18 18
-39.3 -28.4 19.4 21 24 22
-38.9 -28.4 19.4 47 48 47
-38.4 -28.4 19.4 70 70 70
-38.0 -28.4 19.4 74 74 74
-37.5 -28.4 19.4 61 61 61
-37.0 -28.4 19.4 60 59 58
-36.7 -28.4 19.4 66 66 66
-36.1 -28.4 19.4 77 77 77
-35.7 -28.4 19.4 70 70 70
-35.2 -28.4 19.4 72 73 71
-34.7 -28.4 19.4 71 71 71
-34.4 -28.4 19.4 67 67 67
-33.8 -28.4 19.4 81 83 80
-33.4 -28.4 19.4 83 84 82
-33.0 -28.4 19.4 147 147 147
-32.6 -28.4 19.4 180 183 182
-32.1 -28.4 19.4 175 177 177
-31.7 -28.4 19.4 123 123 123
-31.2 -28.4 19.4 7 13 9
-30.8 -28.4 19.4 28 28 28
-30.3 -28.4 19.4 30 30 30
-29.9 -28.4 19.4 28 28 28
-29.4 -28.4 19.4 26 26 26
-28.9 -28.4 19.4 28 28 28
-28.5 -28.4 19.4 28 28 28
-28.0 -28.4 19.4 33 34 32
-27.6 -28.4 19.4 26 26 26
-27.1 -28.4 19.4 26 26 26
-26.7 -28.4 19.4 22 25 23
-26.2 -28.4 19.4 29 29 29
-25.8 -28.4 19.4 91 93 92
-25.3 -28.4 19.4 134 134 134
-24.8 -28.4 19.4 156 156 156
-24.4 -28.4 19.4 50 49 48
-24.0 -28.4 19.4 36 35 34
-23.5 -28.4 19.4 77 77 77
-23.0 -28.4 19.4 105 105 105
-22.6 -28.4 19.4 124 127 126
-22.2 -28.4 19.4 40 40 40
-14.4 -28.3 19.3 180 183 182
-13.9 -28.2 19.2 179 182 181
-13.5 -28.2 19.3 178 181 180
-13.2 -28.4 19.4 176 176 176
464.4 -401.1 274.1 207 210 209
491.3 -413.1 282.3 207 210 209
483.5 -401.1 274.1 207 210 209
528.1 -432.4 295.6 207 210 209
580.3 -469.1 320.6 208 211 210
541.9 -432.4 295.6 208 211 210
468.2 -369.0 252.2 208 211 210
573.5 -446.4 305.1 208 211 210
682.9 -512.5 350.3 209 212 211
611.8 -453.7 310.1 209 212 211
555.2 -407.0 278.2 209 212 211
79.4 -33.3 22.8 189 189 189
78.9 -32.9 22.5 189 189 189
62.6 -25.1 17.2 168 168 168
61.9 -24.7 16.9 162 162 162
61.3 -24.3 16.6 156 156 156
-27.5 -16.0 11.1 162 162 162
-27.2 -16.0 11.1 178 181 180
-47.0 -27.9 19.4 178 181 180
-46.1 -28.0 19.4 63 63 63
-26.4 -16.8 11.7 161 161 161
-33.9 -28.0 19.4 166 166 166
-26.7 -28.0 19.4 36 37 36
-26.2 -28.0 19.4 86 86 86
-13.4 -27.6 19.2 179 182 181
536.5 -432.3 300.3 207 210 209
559.3 -439.3 305.1 208 211 210
344.3 -267.0 185.5 208 211 210
654.7 -477.8 331.9 209 212 211
609.0 -439.3 305.1 209 212 211
78.7 -32.3 22.4 190 190 190
78.2 -31.9 22.2 190 190 190
77.8 -31.5 21.9 190 190 190
63.4 -25.0 17.4 167 167 167
62.6 -24.6 17.1 161 161 161
61.5 -24.0 16.7 156 156 156
-28.1 -16.9 12.0 155 155 155
-27.8 -16.9 12.0 75 76 76
-27.7 -17.0 12.0 73 73 73
-27.3 -16.9 12.0 196 196 196
-26.9 -16.9 11.9 199 199 199
-13.6 -28.4 20.0 159 162 161
16.6 -15.1 10.7 204 207 206
203.2 -165.4 116.8 206 209 208
190.6 -153.1 108.1 207 210 209
76.3 -31.5 22.2 192 195 194
77.8 -31.6 22.3 191 191 191
78.6 -31.7 22.4 191 191 191
78.6 -31.5 22.3 191 191 191
78.2 -31.2 22.0 188 188 188
78.3 -31.0 21.9 185 185 185
63.4 -24.5 17.3 162 162 162
62.6 -24.0 17.0 152 154 154
-34.0 -16.8 12.1 29 30 28
-29.2 -16.8 12.1 173 173 173
-29.0 -16.8 12.1 139 139 139
-28.7 -16.8 12.1 100 100 100
-28.4 -16.8 12.1 205 205 205
-28.1 -16.8 12.1 200 200 200
-27.8 -16.8 12.1 47 48 47
-27.5 -16.8 12.0 46 46 46
-27.0 -16.7 12.0 140 140 140
-26.7 -16.6 11.9 113 114 113
-13.8 -28.3 20.3 180 180 180
-13.5 -28.8 20.7 180 180 180
-13.6 -30.0 21.5 117 119 118
16.6 -14.9 10.7 208 208 208
202.0 -161.7 116.1 210 210 210
173.7 -137.3 98.5 206 209 208
121.3 -86.7 62.2 208 211 210
76.7 -31.1 22.3 193 196 195
78.1 -31.2 22.4 192 192 192
78.8 -31.3 22.5 189 189 189
78.9 -31.2 22.4 193 196 195
79.2 -31.0 22.3 189 189 189
79.2 -30.9 22.2 186 186 186
64.6 -24.5 17.6 160 160 160
-60.3 -29.4 21.4 135 135 135
-60.2 -29.6 21.6 110 112 111
-59.7 -29.6 21.6 26 26 26
-59.2 -29.6 21.6 20 23 21
-58.7 -29.5 21.5 18 22 19
-58.2 -29.5 21.5 18 22 19
-57.3 -29.6 21.6 24 24 24
-56.8 -29.6 21.6 20 23 21
-56.3 -29.6 21.6 41 41 41
-55.3 -29.4 21.4 36 37 36
-55.1 -29.5 21.5 29 31 29
-54.5 -29.5 21.5 131 133 132
-54.1 -29.8 21.7 155 155 155
-52.7 -29.3 21.4 121 121 121
-52.1 -29.2 21.3 123 125 124
-52.4 -29.7 21.6 164 164 164
-51.8 -29.6 21.6 196 199 198
-50.9 -29.4 21.4 113 114 113
-50.3 -29.3 21.4 58 59 59
-50.2 -29.6 21.6 63 63 63
-49.7 -29.6 21.6 47 48 47
-49.2 -29.6 21.6 60 60 60
-48.7 -29.6 21.6 111 111 111
-48.2 -29.6 21.6 102 101 99
-47.7 -29.6 21.6 105 105 105
-46.2 -29.6 21.6 134 137 136
-45.7 -29.6 21.6 29 31 29
-44.2 -29.6 21.6 59 59 59
-43.7 -29.6 21.6 65 66 64
-43.2 -29.6 21.6 64 64 64
-42.7 -29.6 21.6 64 64 64
-42.2 -29.6 21.6 64 64 64
-41.7 -29.6 21.6 62 62 62
-41.2 -29.6 21.6 59 59 59
-40.4 -29.3 21.4 53 53 53
-39.7 -29.2 21.3 28 28 28
-38.7 -29.6 21.6 96 95 94
-37.8 -29.3 21.4 190 190 190
-37.6 -29.5 21.5 219 219 219
-37.2 -29.6 21.6 218 218 218
-36.7 -29.6 21.6 224 224 224
-36.2 -29.6 21.6 224 224 224
-35.7 -29.6 21.6 221 221 221
-34.7 -29.6 21.6 221 221 221
-33.9 -29.3 21.4 215 218 217
-33.4 -29.3 21.4 205 208 207
-32.9 -29.3 21.4 3 9 5
-32.4 -29.3 21.4 75 76 76
-31.9 -29.3 21.4 26 26 26
-31.4 -29.3 21.4 30 31 30
-31.1 -29.6 21.6 29 29 29
-30.4 -29.3 21.4 39 39 39
-29.9 -29.3 21.4 101 101 101
-29.6 -29.6 21.6 25 25 25
-29.1 -29.5 21.5 31 32 30
-28.3 -29.3 21.4 128 130 129
-28.1 -29.5 21.5 31 32 30
-27.6 -29.6 21.6 29 29 29
-26.6 -29.6 21.6 43 45 44
-26.1 -29.6 21.6 82 82 82
-25.5 -29.4 21.4 35 35 35
-25.1 -29.5 21.5 73 74 72
-15.5 -29.4 21.4 181 181 181
-14.1 -28.6 20.9 178 178 178
-14.0 -29.3 21.4 179 179 179
-13.6 -29.5 21.5 159 162 161
154.7 -123.4 90.1 210 210 210
165.1 -128.3 93.6 210 210 210
182.4 -132.9 97.0 212 213 212
169.8 -122.3 89.2 212 213 212
170.3 -121.1 88.4 208 211 210
78.5 -31.5 23.0 194 197 196
77.6 -30.9 22.6 194 197 196
77.3 -30.6 22.3 194 197 196
78.9 -31.0 22.7 194 197 196
79.3 -31.0 22.6 193 193 193
79.8 -31.0 22.6 193 193 193
79.9 -30.8 22.5 190 190 190
80.2 -30.7 22.4 188 188 188
81.6 -31.1 22.7 178 181 180
68.3 -25.4 18.5 153 153 153
69.1 -25.5 18.6 142 141 140
71.5 -25.7 18.8 129 129 129
-61.4 -29.4 21.8 117 119 118
-61.1 -29.5 21.9 46 46 46
-60.6 -29.5 21.9 26 26 26
-60.0 -29.5 21.9 18 22 19
-59.5 -29.5 21.9 18 22 19
-58.1 -29.5 21.9 29 31 29
-57.6 -29.5 21.9 53 52 52
-57.1 -29.5 21.9 80 82 79
-56.6 -29.5 21.9 84 84 84
-55.8 -29.4 21.8 151 151 151
-54.6 -29.6 21.9 180 180 180
-53.8 -29.4 21.8 175 177 177
-53.4 -29.4 21.8 202 204 204
-53.0 -29.5 21.9 147 147 147
-52.5 -29.5 21.9 107 109 109
-51.9 -29.5 21.9 67 67 67
-51.4 -29.5 21.9 64 65 63
-50.9 -29.5 21.9 45 45 45
-50.2 -29.4 21.8 29 31 29
-49.2 -29.4 21.8 87 89 88
-48.9 -29.5 21.9 87 89 88
-46.8 -29.5 21.9 107 109 109
-44.8 -29.5 21.9 47 48 47
-44.3 -29.5 21.9 58 59 59
-43.8 -29.5 21.9 61 61 61
-43.3 -29.5 21.9 61 61 61
-42.8 -29.5 21.9 58 59 59
-42.3 -29.5 21.9 59 59 59
-41.7 -29.4 21.8 57 57 55
-41.2 -29.4 21.8 48 48 48
-39.2 -29.5 21.9 65 66 64
-38.7 -29.5 21.9 162 161 159
-38.2 -29.5 21.9 171 173 173
-37.7 -29.5 21.9 176 179 178
-37.2 -29.5 21.9 177 180 179
-36.7 -29.5 21.9 189 189 189
-36.2 -29.5 21.9 202 202 202
-35.6 -29.5 21.9 205 205 205
-33.6 -29.5 21.9 4 4 4
-33.1 -29.5 21.9 74 74 74
-32.6 -29.5 21.9 52 52 52
-32.1 -29.5 21.9 72 72 72
-31.5 -29.4 21.8 115 117 116
-31.1 -29.5 21.9 99 99 99
-30.6 -29.5 21.9 123 123 123
-30.0 -29.4 21.8 41 41 41
-29.4 -29.4 21.8 42 44 43
-29.0 -29.4 21.8 126 129 128
-28.5 -29.4 21.8 35 35 35
-28.1 -29.5 21.9 35 35 35
-26.5 -29.5 21.9 111 111 111
-26.0 -29.4 21.8 41 43 42
-25.5 -29.4 21.8 33 32 30
-14.6 -29.0 21.5 181 181 181
-14.3 -29.4 21.8 179 179 179
-13.7 -29.4 21.8 170 172 172
156.2 -122.5 90.9 209 209 209
191.4 -148.1 110.0 210 210 210
166.0 -126.8 94.1 210 210 210
301.8 -227.5 168.9 210 210 210
203.2 -145.6 108.1 211 211 211
170.6 -120.7 89.7 212 213 212
171.1 -119.6 88.8 212 213 212
173.9 -120.2 89.2 212 213 212
178.6 -121.9 90.5 214 214 214
80.5 -31.8 23.6 195 198 197
79.5 -30.7 22.8 194 194 194
79.7 -30.6 22.7 194 194 194
80.6 -30.8 22.8 194 194 194
80.5 -30.5 22.7 189 189 189
81.6 -30.7 22.8 186 186 186
83.4 -31.2 23.2 179 179 179
83.7 -31.1 23.1 167 167 167
69.3 -25.3 18.8 139 139 139
69.7 -25.3 18.8 134 137 136
69.8 -25.1 18.7 134 137 136
70.6 -25.3 18.8 134 136 135
71.8 -25.6 19.0 134 136 135
-23.7 -13.6 10.3 20 23 21
-23.4 -13.6 10.3 6 7 7
-23.1 -13.5 10.2 123 125 124
-22.7 -13.7 10.4 78 80 78
-22.3 -13.7 10.3 25 25 25
-18.0 -13.6 10.3 182 181 179
-17.8 -13.6 10.3 184 187 186
-17.5 -13.6 10.3 200 200 200
-17.2 -13.6 10.3 205 205 205
-17.0 -13.6 10.3 205 208 207
-16.7 -13.6 10.3 211 211 211
-16.4 -13.7 10.3 198 198 198
-16.1 -13.6 10.3 163 163 163
-15.9 -13.7 10.3 17 21 18
-15.6 -13.6 10.3 28 28 28
-15.4 -13.7 10.3 33 32 30
-15.1 -13.6 10.3 17 21 18
-14.3 -13.6 10.3 136 138 137
-14.1 -13.6 10.3 38 38 38
-13.9 -13.6 10.3 42 44 43
-13.7 -13.6 10.3 92 92 92
-13.4 -13.6 10.3 29 31 29
-14.8 -30.1 22.7 163 163 163
-14.1 -29.6 22.3 162 165 164
308.9 -231.8 175.2 210 210 210
301.8 -223.6 168.9 210 210 210
276.1 -201.9 152.6 210 210 210
408.0 -294.6 222.5 211 211 211
292.7 -208.6 157.6 211 211 211
220.9 -155.5 117.5 211 211 211
170.3 -117.0 88.4 212 213 212
429.1 -284.5 215.0 214 214 214
313.1 -205.2 155.1 214 214 214
238.5 -154.6 116.8 209 212 211
81.1 -31.5 23.8 190 190 190
80.3 -30.5 23.0 188 188 188
79.5 -30.0 22.7 182 185 184
80.8 -30.1 22.7 181 184 183
84.0 -31.1 23.5 175 175 175
85.0 -31.3 23.6 169 169 169
85.5 -31.2 23.6 163 163 163
70.1 -25.0 18.9 136 136 136
70.2 -24.8 18.8 136 136 136
70.9 -24.9 18.8 136 136 136
72.0 -25.2 19.0 136 136 136
-23.5 -13.1 10.1 20 23 21
-23.2 -13.1 10.1 18 22 19
-23.0 -13.1 10.1 18 22 19
-22.6 -13.0 10.0 27 27 27
-22.5 -13.1 10.1 25 25 25
-28.5 -16.8 12.9 35 35 35
-28.1 -16.7 12.9 91 91 91
-17.1 -13.1 10.1 195 195 195
-16.8 -13.1 10.0 201 203 203
-16.6 -13.0 10.0 206 206 206
-16.4 -13.0 10.0 215 218 217
-15.7 -13.1 10.1 86 88 88
-15.4 -13.1 10.0 15 15 15
-15.3 -13.1 10.1 33 32 30
-14.9 -13.2 10.1 101 101 101
-14.6 -13.1 10.1 124 127 126
-14.3 -13.1 10.1 86 88 88
-14.0 -13.0 10.0 124 127 126
-13.8 -13.1 10.1 33 32 30
-13.6 -13.1 10.1 41 43 42
-15.3 -30.4 23.4 88 88 88
290.0 -219.6 168.9 212 213 212
299.3 -223.6 172.0 209 209 209
330.3 -243.5 187.3 210 210 210
338.0 -246.0 189.2 210 210 210
353.0 -253.6 195.0 210 210 210
376.9 -267.4 205.6 210 210 210
328.2 -229.9 176.8 211 211 211
271.4 -187.8 144.4 211 211 211
557.0 -367.1 282.3 212 213 212
444.2 -289.4 222.5 214 214 214
310.5 -200.0 153.8 214 214 214
82.3 -31.3 24.1 183 186 185
85.1 -30.9 23.8 159 159 159
86.5 -31.3 24.0 149 149 149
87.3 -31.3 24.1 145 145 144
70.9 -24.8 19.1 134 134 134
71.2 -24.7 19.0 134 134 134
71.7 -24.8 19.1 133 133 133
72.1 -24.8 19.0 134 134 134
-25.4 -14.2 11.1 25 25 25
-28.5 -16.5 12.9 189 189 189
292.6 -217.6 170.4 211 211 211
291.3 -213.8 167.4 212 213 212
333.6 -241.6 189.2 212 213 212
344.9 -246.5 193.0 210 210 210
398.1 -280.9 220.0 210 210 210
385.3 -268.4 210.2 210 210 210
328.2 -225.8 176.8 211 211 211
284.5 -193.3 151.3 215 215 215
647.0 -423.8 331.9 212 213 212
574.1 -371.7 291.0 212 213 212
460.4 -294.6 230.7 212 213 212
313.1 -198.0 155.1 214 214 214
87.5 -31.1 24.3 131 134 133
88.8 -31.3 24.5 135 135 135
89.5 -31.3 24.5 131 134 133
72.2 -24.8 19.4 129 129 129
72.5 -24.8 19.4 129 129 129
72.9 -24.8 19.4 129 129 129
-18.1 -34.6 27.6 91 93 92
-17.9 -35.6 28.4 89 91 90
-17.1 -35.3 28.1 77 77 77
-16.3 -34.9 27.9 113 114 113
16.6 -13.6 10.8 209 209 209
16.6 -13.4 10.7 209 209 209
290.0 -211.8 168.9 211 211 211
337.0 -239.6 191.1 212 213 212
352.1 -247.1 197.0 209 209 209
462.7 -320.5 255.6 210 210 210
439.0 -300.2 239.4 214 214 214
322.2 -217.6 173.5 214 214 214
275.6 -183.9 146.6 214 214 214
678.5 -431.2 343.9 212 213 212
477.9 -300.2 239.4 212 213 212
308.0 -191.3 152.6 214 214 214
88.4 -30.8 24.6 114 116 115
89.8 -31.1 24.8 121 121 121
91.4 -31.4 25.1 123 123 123
73.5 -24.7 19.7 122 122 122
73.8 -24.6 19.6 125 125 125
74.4 -24.7 19.7 127 127 127
-20.2 -15.0 12.2 47 47 47
-19.9 -15.0 12.2 39 41 41
-19.4 -35.3 28.7 140 139 138
-18.5 -34.9 28.4 94 94 94
-18.2 -35.4 28.8 90 92 91
-17.2 -35.0 28.4 78 78 78
-16.4 -34.5 28.1 73 75 75
16.4 -13.0 10.6 209 209 209
347.5 -242.5 197.0 212 213 212
363.4 -250.3 203.4 212 213 212
634.1 -431.1 350.3 212 213 212
619.3 -415.7 337.8 214 214 214
344.3 -228.2 185.5 214 214 214
259.5 -169.9 138.1 214 214 214
90.5 -30.8 25.0 112 112 112
93.0 -31.4 25.5 112 112 112
93.5 -31.4 25.5 113 114 113
44.5 -14.6 11.8 115 114 114
44.9 -14.6 11.9 116 118 117
45.0 -14.5 11.8 136 138 137
-20.1 -35.8 29.6 128 128 128
-19.3 -35.7 29.6 94 94 94
-18.5 -35.4 29.3 90 92 91
-17.6 -35.1 29.1 64 63 61
-16.9 -34.9 28.9 54 54 54
16.7 -13.2 10.9 208 208 208
16.4 -12.8 10.6 208 208 208
87.3 -29.3 24.3 106 106 106
90.1 -30.0 24.9 108 108 108
93.1 -30.8 25.5 109 111 111
93.7 -30.8 25.5 109 111 111
45.1 -14.6 12.1 104 104 104
44.6 -14.3 11.8 104 104 104
45.0 -14.4 11.9 91 93 92
45.1 -14.3 11.8 154 154 154
-19.8 -35.9 30.3 95 95 95
-18.7 -35.2 29.7 93 93 93
-17.9 -34.9 29.5 77 77 77
-17.2 -34.8 29.4 40 40 40
15.3 -12.6 10.7 209 209 209
16.6 -12.8 10.8 211 211 211
16.5 -12.6 10.6 211 211 211
86.6 -28.5 24.1 102 104 104
89.2 -29.2 24.6 105 105 105
93.8 -30.3 25.6 105 105 105
49.7 -15.9 13.5 101 103 103
45.2 -14.1 11.9 64 64 64
45.2 -14.1 11.9 158 158 158
-27.8 -14.0 12.1 19 23 20
-30.3 -15.6 13.4 103 103 103
-29.7 -15.4 13.3 152 152 152
-20.2 -14.1 12.2 57 57 57
-23.4 -40.1 34.5 123 125 124
-20.6 -36.6 31.5 97 97 97
-19.4 -35.8 30.8 96 99 98
12.1 -11.6 10.0 211 211 211
16.5 -12.5 10.8 211 211 211
86.9 -28.0 24.1 99 99 99
89.2 -28.6 24.6 101 103 103
49.9 -15.9 13.7 100 100 100
49.9 -15.8 13.6 99 99 99
50.1 -15.8 13.6 89 89 89
50.4 -15.8 13.6 75 76 76
45.5 -14.0 12.0 75 76 76
45.6 -13.9 12.0 153 155 155
46.1 -14.0 12.0 121 123 122
-27.7 -13.7 12.0 160 160 160
-29.6 -15.1 13.2 173 173 173
-28.5 -14.7 12.9 183 186 185
-25.9 -42.1 37.0 170 171 170
-24.1 -40.5 35.6 121 123 122
50.1 -15.6 13.7 96 96 96
50.3 -15.6 13.7 88 88 88
50.6 -15.6 13.7 74 74 74
46.3 -13.9 12.2 72 72 72
46.1 -13.8 12.1 158 158 158
-27.8 -13.3 11.9 183 186 185
-27.5 -13.3 11.9 190 190 190
-29.6 -14.8 13.2 4 4 4
-28.7 -14.5 13.0 13 13 13
50.4 -15.3 13.7 79 81 80
50.8 -15.3 13.7 74 74 74
46.9 -13.7 12.3 161 164 163
-26.5 -12.8 11.7 15 15 15
-26.1 -12.8 11.7 18 22 19
-26.5 -49.5 45.4 23 24 23
50.7 -15.1 13.8 81 84 83
51.0 -15.1 13.8 75 76 76
51.7 -15.2 13.9 75 76 76
52.2 -15.2 14.0 78 78 78
-26.8 -12.4 11.6 146 148 148
-26.5 -12.4 11.6 134 137 136
-26.5 -12.5 11.7 14 14 14
-26.1 -12.5 11.7 26 26 26
-27.3 -49.9 46.7 13 17 14
51.2 -14.8 13.9 79 82 81
51.7 -14.9 13.9 79 79 79
52.6 -15.0 14.1 79 79 79
52.4 -14.9 13.9 77 77 77
-26.1 -12.2 11.7 34 34 34
-28.5 -50.9 48.8 21 21 21
-27.9 -54.3 52.0 23 24 23
52.7 -14.7 14.1 79 82 81
52.9 -14.7 14.1 79 82 81
-31.1 -50.4 49.4 101 101 101
-30.2 -50.7 49.6 115 114 114
-29.0 -50.7 49.6 40 40 40
-30.2 -55.0 53.9 23 24 23
53.0 -14.4 14.1 79 79 79
-31.0 -50.9 51.0 112 112 112
-30.9 -52.7 52.8 48 48 48
-30.3 -53.9 54.0 22 22 22
-28.9 -53.6 53.7 155 155 155
310.8 -167.1 167.4 219 219 219
273.5 -145.2 145.5 219 219 219
-34.2 -54.9 56.3 113 115 114
-33.1 -55.2 56.6 47 48 47
-32.5 -56.6 58.0 20 20 20
-31.8 -57.6 59.1 160 160 160
16.1 -10.3 10.5 217 220 219
-38.2 -62.3 65.5 33 33 33
-35.2 -59.8 62.8 20 20 20
-33.2 -58.8 61.8 159 159 159
-34.5 -63.8 67.1 180 180 180
16.4 -10.0 10.5 217 220 219
-41.1 -65.3 70.3 26 25 24
-37.5 -62.1 66.8 23 24 23
-35.6 -61.4 66.1 159 159 159
-35.8 -64.6 69.5 182 182 182
16.5 -10.0 10.8 217 220 219
16.3 -9.7 10.5 217 220 219
243.5 -120.3 129.6 220 223 222
-47.2 -73.2 80.8 31 31 31
-44.2 -71.3 78.8 13 17 14
254.0 -122.3 135.1 220 223 222
172.3 -72.3 79.8 200 200 200
165.7 -66.6 73.6 202 202 202
166.1 -66.1 73.0 202 202 202
-63.9 -96.4 109.3 23 24 23
16.5 -9.5 10.8 217 220 219
148.5 -60.0 68.0 200 200 200
119.2 -47.7 54.0 200 200 200
118.1 -46.7 53.0 200 200 200
153.8 -60.2 68.3 202 202 202
155.9 -60.4 68.5 202 202 202
-32.9 -14.1 16.4 62 62 62
-131.1 -178.5 207.9 96 96 96
-105.0 -160.8 187.3 26 25 24
-101.7 -162.4 189.2 167 167 167
-102.4 -171.0 199.1 180 183 182
17.4 -9.9 11.5 217 220 219
16.4 -9.0 10.5 217 220 219
174.5 -69.4 80.8 199 199 199
139.0 -54.7 63.7 200 200 200
119.8 -46.1 53.7 200 200 200
-26.7 -10.2 12.2 73 74 72
-24.9 -10.3 12.3 109 109 109
-13.4 -10.2 12.2 33 32 30
-202.2 -267.9 320.6 91 93 92
-188.3 -259.1 310.1 72 72 72
-170.0 -243.1 291.0 23 24 23
-137.8 -205.3 245.7 13 17 14
-130.4 -202.6 242.5 175 175 175
-180.2 -292.7 350.3 179 179 179
-172.0 -292.7 350.3 181 184 183
17.3 -9.6 11.5 218 221 220
118.2 -44.8 53.6 200 200 200
119.8 -44.9 53.7 200 200 200
126.8 -47.0 56.3 198 198 198
132.8 -48.8 58.4 202 202 202
132.9 -48.3 57.8 202 202 202
211.1 -76.0 90.9 202 202 202
-26.6 -9.9 12.2 77 77 77
-26.1 -9.8 12.0 82 82 82
-25.6 -9.7 11.9 147 149 149
-24.8 -10.0 12.3 108 108 106
-24.2 -9.8 12.1 43 43 43
-19.9 -8.2 10.1 58 59 59
-225.5 -313.6 386.0 27 27 27
-173.9 -251.9 310.1 26 25 24
-203.4 -307.3 378.3 164 164 164
114.9 -42.3 52.1 200 200 200
114.9 -41.9 51.5 200 200 200
214.2 -75.0 92.3 202 202 202
-26.0 -9.5 12.0 79 79 79
-25.5 -9.4 11.9 144 144 144
-26.2 -10.5 13.3 62 61 60
-25.7 -10.4 13.2 58 59 59
-24.1 -9.9 12.6 49 49 49
114.0 -40.8 51.7 199 199 199
114.9 -40.7 51.5 198 198 198
-27.3 -9.6 12.5 80 80 80
-25.2 -9.5 12.5 105 105 105
-26.0 -10.1 13.2 59 59 59
-24.5 -9.7 12.7 59 59 59
-24.0 -9.6 12.6 52 52 52
16.4 -8.1 10.5 220 223 222
17.9 -8.2 10.7 222 224 224
17.8 -8.1 10.5 222 224 224
114.3 -39.7 51.8 197 197 197
115.2 -39.6 51.7 198 198 198
-25.3 -9.3 12.5 105 105 105
-26.0 -9.8 13.2 57 57 57
-25.2 -9.6 12.9 42 43 42
-24.6 -9.4 12.7 49 49 49
-24.0 -9.4 12.6 57 57 57
16.5 -8.0 10.7 218 221 220
17.9 -8.0 10.7 222 224 224
186.5 -64.1 86.4 186 186 186
118.2 -39.8 53.6 197 197 197
114.9 -38.3 51.5 199 199 199
218.5 -67.9 91.4 206 206 206
206.7 -63.6 85.6 202 202 202
170.8 -52.0 70.1 229 228 226
-26.3 -8.7 12.2 84 84 84
-25.5 -8.6 11.9 84 84 84
-25.2 -9.0 12.5 43 45 44
-26.5 -9.6 13.4 53 52 52
-24.0 -9.1 12.6 43 45 45
17.9 -7.7 10.7 222 224 224
17.8 -7.5 10.5 222 224 224
177.5 -59.2 82.2 186 186 186
114.9 -37.1 51.5 197 197 197
170.6 -52.3 72.8 200 200 200
223.9 -67.4 93.6 204 204 204
172.7 -51.0 70.8 229 228 226
17.8 -7.4 10.7 222 224 224
17.6 -7.3 10.4 222 224 224
176.0 -56.8 81.5 190 190 190
192.6 -57.7 83.0 200 200 200
172.6 -51.2 73.6 200 200 200
219.6 -63.9 91.8 204 204 204
212.4 -61.2 88.0 199 199 199
174.0 -49.7 71.4 230 230 230
16.0 -6.8 10.2 222 224 224
17.6 -7.1 10.5 222 224 224
17.7 -7.0 10.4 222 224 224
182.3 -56.8 84.4 181 181 181
199.6 -57.8 86.0 200 200 200
222.8 -62.7 93.2 206 206 206
216.4 -60.3 89.7 202 202 202
160.0 -43.7 65.0 229 228 226
16.0 -6.6 10.1 223 225 225
387.9 -119.3 183.7 133 133 133
191.7 -57.7 88.8 176 179 178
200.5 -56.1 86.4 200 200 200
221.7 -60.2 92.7 202 202 202
209.5 -56.4 86.8 202 202 202
16.0 -6.3 10.1 223 225 225
17.3 -6.3 10.1 223 225 225
391.7 -116.2 185.5 121 121 121
184.8 -53.6 85.6 175 177 177
203.3 -54.8 87.6 200 200 200
217.5 -57.0 90.9 205 205 205
210.5 -54.6 87.2 199 199 199
172.1 -44.2 70.6 230 229 227
72.3 -12.0 19.1 91 91 91
75.2 -12.4 19.7 116 118 117
15.9 -6.1 10.1 220 223 222
17.2 -6.0 10.0 224 226 226
183.9 -51.4 85.2 175 177 177
160.0 -44.2 73.3 189 189 189
167.7 -44.9 74.5 195 195 195
210.1 -54.6 90.5 198 198 198
173.2 -44.6 73.9 202 202 202
222.8 -56.2 93.2 206 206 206
213.4 -53.3 88.4 202 202 202
190.5 -47.1 78.2 232 232 232
72.0 -11.5 19.0 97 97 97
15.9 -5.9 10.1 220 223 222
177.5 -47.7 82.2 174 174 174
160.6 -42.7 73.6 186 186 186
167.3 -43.5 75.1 193 193 193
169.7 -43.7 75.4 196 196 196
168.1 -42.8 73.9 196 196 196
194.3 -48.5 83.7 199 199 199
178.8 -44.2 76.3 202 202 202
204.7 -49.6 85.6 205 205 205
202.1 -48.5 83.7 199 199 199
189.8 -45.1 77.8 235 235 235
191.6 -45.1 77.8 235 235 235
210.8 -48.7 84.1 68 68 68
207.2 -47.5 81.9 60 62 61
72.8 -11.2 19.4 85 87 87
72.3 -11.1 19.1 92 92 92
16.0 -5.6 10.1 222 224 224
17.2 -5.6 10.0 222 224 224
181.5 -46.8 84.1 166 169 168
160.0 -40.8 73.3 186 186 186
173.1 -42.8 76.9 194 194 194
168.1 -41.1 73.9 196 196 196
200.5 -48.1 86.4 199 199 199
184.8 -43.9 78.8 202 202 202
219.6 -51.1 91.8 205 205 205
206.7 -47.6 85.6 203 203 203
204.0 -46.6 83.7 236 236 236
215.6 -47.9 86.0 71 73 73
213.7 -47.0 84.4 67 67 67
74.3 -11.0 19.7 84 84 84
75.9 -11.1 19.9 103 105 105
17.2 -5.3 10.0 222 224 224
236.2 -59.0 110.6 144 144 144
184.8 -45.7 85.6 174 176 176
190.1 -45.0 84.4 194 194 194
206.2 -47.4 88.8 199 199 199
195.4 -44.4 83.3 202 202 202
221.7 -49.5 92.7 205 205 205
212.4 -46.9 88.0 197 197 197
205.9 -45.0 84.4 232 232 232
243.5 -52.3 98.0 110 110 110
221.6 -47.1 88.4 72 74 74
216.6 -45.7 85.6 67 67 67
75.8 -10.6 19.9 101 103 103
399.6 -96.5 189.2 60 60 60
184.8 -43.7 85.6 166 169 168
208.1 -45.7 89.7 202 202 202
198.0 -43.1 84.4 203 203 203
222.8 -47.5 93.2 205 205 205
214.4 -45.3 88.8 200 200 200
205.9 -43.1 84.4 226 229 228
259.6 -53.3 104.5 122 122 122
223.7 -45.5 89.2 71 71 71
216.6 -43.7 85.6 70 70 70
383.4 -76.6 150.1 68 68 68
391.7 -90.3 185.5 80 80 80
243.3 -55.5 114.0 143 145 144
164.2 -35.2 72.2 194 194 194
169.3 -35.2 72.2 200 200 200
271.5 -55.8 114.6 203 203 203
243.2 -49.5 101.7 203 203 203
439.2 -83.7 172.0 67 67 67
575.1 -104.4 225.2 68 68 68
20.0 -3.7 10.8 224 224 224
20.2 -3.7 10.8 224 224 224
20.4 -3.7 10.7 224 224 224
20.7 -3.7 10.7 224 224 224
21.0 -3.7 10.8 224 224 224
21.2 -3.7 10.8 224 224 224
20.4 -3.5 10.7 225 225 225
20.6 -3.5 10.7 225 225 225
20.9 -3.5 10.7 225 225 225
23.7 -2.4 11.4 159 159 159
23.9 -2.1 11.6 222 222 222
23.5 -2.1 11.2 160 163 162
24.1 -1.9 11.8 217 220 219
23.5 -1.8 11.3 167 167 167
24.1 -1.6 11.8 226 226 226
23.6 -1.6 11.3 169 169 169
24.1 -1.4 11.8 226 226 226
23.6 -1.3 11.3 168 168 168
941.0 -44.4 386.0 212 213 212
738.9 -34.5 300.3 194 194 194
886.6 -41.0 356.9 97 100 99
948.6 -43.5 378.3 77 77 77
878.3 -39.5 343.9 64 66 66
773.8 -34.5 300.3 72 72 72
1157.3 -41.8 363.8 82 82 82
23.6 -1.0 11.4 219 222 221
23.7 -1.0 11.3 173 173 173
960.6 -36.1 394.1 210 210 210
637.7 -23.8 259.1 192 192 192
754.8 -27.1 295.6 68 70 69
738.6 -26.3 286.6 73 73 73
1226.3 -36.1 394.1 37 39 37
1235.4 -36.1 394.1 188 188 188
970.7 -28.0 305.1 78 78 78
68.8 -1.8 19.4 57 57 57
23.7 -0.8 11.5 220 223 222
23.7 -0.8 11.3 174 176 176
550.3 -16.4 239.4 197 197 197
606.7 -17.0 248.9 210 210 210
547.7 -15.2 222.5 158 161 160
489.5 -13.5 197.0 106 106 106
605.9 -16.4 239.4 72 72 72
603.9 -16.2 236.5 68 71 70
547.7 -14.6 212.5 75 75 75
384.3 -10.1 147.8 67 69 68
1226.3 -27.0 394.1 106 106 106
68.2 -1.3 19.3 148 148 148
67.9 -1.3 19.1 65 65 63
68.1 -1.3 19.0 83 83 83
23.7 -0.5 11.3 177 180 179
619.3 -11.0 242.5 66 66 66
580.3 -10.2 225.2 69 72 71
439.2 -7.6 168.9 65 65 65
68.0 -0.9 19.1 74 74 74
20.7 -0.2 10.4 222 224 224
24.2 -0.3 11.9 222 224 224
69.6 -0.4 19.7 149 151 151
69.2 -0.4 19.5 80 79 78
24.2 0.0 11.9 223 225 225
23.7 0.0 11.3 176 179 178
69.4 0.0 19.5 77 77 77
69.6 0.0 19.5 92 95 94
24.2 0.3 11.9 223 225 225
23.7 0.3 11.3 185 185 185
792.0 7.6 310.1 57 56 55
761.7 7.2 295.6 47 46 45
300.6 17.7 370.9 197 197 197
286.8 16.4 343.9 203 203 203
305.9 17.0 356.9 206 206 206
314.2 17.0 356.9 197 197 197
316.5 16.7 350.3 205 205 205
23.7 0.5 11.5 217 217 217
922.2 18.1 378.3 197 197 197
763.1 14.8 310.1 134 134 134
770.3 14.8 310.1 87 87 87
805.2 15.1 315.3 43 43 43
761.7 14.1 295.6 47 46 45
1226.3 18.8 394.1 39 39 39
1180.0 17.7 370.9 217 217 217
1045.2 15.6 326.1 218 218 218
1130.7 16.7 350.3 218 218 218
1118.2 16.4 343.9 224 224 224
1290.4 18.8 394.1 220 220 220
1299.6 18.8 394.1 224 224 224
73.7 0.9 19.5 93 93 93
23.6 0.8 11.4 222 222 222
23.7 0.8 11.3 190 190 190
826.2 22.8 320.6 47 46 45
73.6 1.4 19.4 90 90 90
73.8 1.4 19.4 170 171 170
23.5 1.1 11.4 225 227 227
23.5 1.1 11.2 191 191 191
73.2 1.8 19.6 87 87 87
73.8 1.8 19.6 90 90 90
74.1 1.8 19.6 87 87 87
74.2 1.8 19.5 172 172 172
23.6 1.3 11.3 189 189 189
73.9 2.3 19.8 88 88 88
74.2 2.3 19.7 90 90 90
75.0 2.3 19.8 84 83 81
75.4 2.3 19.8 161 161 161
75.8 2.3 19.8 134 134 134
23.7 1.6 11.4 189 189 189
77.6 2.9 20.4 135 135 135
76.8 2.8 20.0 177 177 177
761.7 48.5 295.6 69 69 69
1272.1 64.6 394.1 120 122 121
1205.9 60.8 370.9 104 104 104
931.0 70.8 378.3 77 77 77
959.0 72.3 386.0 159 159 159
1006.4 73.8 394.1 166 166 166
919.8 66.8 356.9 168 168 168
1272.1 73.8 394.1 84 83 81
1230.0 70.8 378.3 69 69 69
799.2 65.3 310.1 193 193 193
1221.2 79.6 378.3 78 78 78
1138.9 73.7 350.3 53 55 53
-15.9 3.6 10.2 17 17 17
-80.0 31.5 56.3 115 114 114
-77.3 30.9 55.3 115 114 114
-74.7 30.4 54.4 109 111 111
-73.7 30.5 54.5 116 116 116
-70.4 29.6 53.0 119 119 119
-53.1 30.3 54.2 101 103 103
-51.4 30.0 53.7 34 34 34
-180.4 73.9 127.0 121 123 122
-56.6 33.7 57.8 81 81 81
-52.6 32.0 55.0 77 77 77
119.8 145.4 178.5 83 84 82
-9.2 155.4 185.5 208 211 210
118.6 148.2 176.8 78 78 78
116.2 140.3 167.4 33 35 33
-424.1 149.5 173.5 72 72 72
-427.9 152.3 176.8 85 85 85
-398.7 153.7 178.5 205 205 205
-383.7 149.5 173.5 215 215 215
-372.2 148.1 172.0 186 186 186
-368.2 148.1 172.0 162 162 162
-340.7 153.7 178.5 115 115 115
-336.5 153.7 178.5 113 114 113
-338.8 156.7 181.9 108 110 110
-319.2 149.5 173.5 105 105 105
-257.0 150.9 175.2 79 82 81
-250.6 149.5 173.5 70 72 69
-81.2 149.5 173.5 163 166 165
-61.0 149.5 173.5 118 120 119
-8.6 149.5 173.5 214 214 214
127.7 169.7 197.0 93 93 93
120.9 155.2 180.2 87 88 86
119.4 148.1 172.0 34 36 34
-432.3 149.4 168.9 19 19 19
-428.4 149.4 168.9 29 31 29
-424.5 149.4 168.9 50 49 48
-420.5 149.4 168.9 58 59 59
-416.6 149.4 168.9 70 72 69
-412.7 149.4 168.9 67 69 67
-405.2 148.1 167.4 73 73 73
-404.8 149.4 168.9 161 164 163
-400.9 149.4 168.9 162 165 164
-400.6 150.7 170.4 73 74 72
-396.6 150.7 170.4 53 53 53
-385.2 149.4 168.9 102 102 102
-377.4 149.4 168.9 196 196 196
-370.1 148.1 167.4 192 195 194
-362.4 148.1 167.4 165 168 167
-358.5 148.1 167.4 180 180 180
-343.4 153.5 173.5 123 125 124
-322.4 149.4 168.9 113 114 113
-321.4 150.7 170.4 113 114 113
-314.6 149.4 168.9 107 109 109
-307.9 148.1 167.4 103 103 103
-306.7 149.4 168.9 101 101 101
-247.8 149.4 168.9 69 71 69
-235.5 144.2 163.1 67 68 66
-78.3 148.1 167.4 163 166 165
-75.1 149.4 168.9 152 154 154
-64.5 152.1 172.0 94 94 94
-58.9 148.1 167.4 97 97 97
-54.5 146.8 165.9 80 83 82
-52.0 150.7 170.4 100 100 100
-8.3 148.1 167.4 205 208 207
-4.0 136.0 153.8 206 209 208
131.8 179.9 203.4 100 100 100
124.5 164.0 185.5 85 85 85
120.5 153.5 173.5 31 31 31
119.1 146.8 165.9 23 26 24
-806.9 260.2 286.6 136 136 136
-667.3 268.3 295.6 59 60 58
-626.0 268.3 295.6 141 141 141
-619.2 268.3 295.6 180 180 180
-620.8 281.5 310.1 220 223 222
-564.2 268.3 295.6 120 122 121
-496.2 241.9 266.4 146 146 146
-548.7 281.5 310.1 192 192 192
-516.1 268.3 295.6 202 202 202
-509.3 268.3 295.6 210 210 210
-487.2 260.2 286.6 193 193 193
-466.4 252.5 278.2 178 178 178
-481.1 264.2 291.0 113 114 113
-474.4 264.2 291.0 41 41 39
-447.0 252.5 278.2 54 54 54
-440.6 268.3 295.6 64 64 64
-346.9 214.6 236.5 64 64 64
-426.6 272.6 300.3 67 69 67
-391.7 272.6 300.3 75 76 76
-396.6 286.2 315.3 77 77 77
-220.7 268.3 295.6 149 149 149
-168.5 225.9 248.9 81 81 81
177.6 248.9 274.1 100 100 100
149.4 202.0 222.5 92 94 92
158.2 206.9 227.9 25 29 26
167.6 212.0 233.5 21 21 21
-845.4 279.5 300.3 131 131 131
-838.4 279.5 300.3 137 139 138
-818.4 275.2 295.6 148 148 148
-811.5 275.2 295.6 150 150 150
-804.7 275.2 295.6 153 153 153
-797.8 275.2 295.6 154 156 156
-790.9 275.2 295.6 156 159 158
-784.1 275.2 295.6 155 158 157
-789.5 279.5 300.3 156 159 158
-782.5 279.5 300.3 158 161 160
-775.6 279.5 300.3 162 162 162
-756.6 275.2 295.6 163 163 163
-749.7 275.2 295.6 169 169 169
-742.8 275.2 295.6 174 174 174
-736.0 275.2 295.6 170 171 170
-729.1 275.2 295.6 166 166 166
-722.2 275.2 295.6 162 165 164
-715.4 275.2 295.6 162 165 164
-708.5 275.2 295.6 104 106 106
-712.7 279.5 300.3 100 100 100
-705.8 279.5 300.3 90 90 90
-698.8 279.5 300.3 69 71 69
-691.8 279.5 300.3 65 65 65
-684.8 279.5 300.3 59 60 58
-677.9 279.5 300.3 61 61 61
-660.4 275.2 295.6 63 64 62
-674.6 284.1 305.1 66 66 66
-656.9 279.5 300.3 67 67 67
-639.8 275.2 295.6 59 61 59
-632.9 275.2 295.6 32 32 32
-646.2 284.1 305.1 26 26 26
-629.0 279.5 300.3 28 31 29
-612.3 275.2 295.6 27 30 28
-605.4 275.2 295.6 24 24 24
-638.5 293.5 315.3 44 44 44
-620.8 288.7 310.1 100 99 97
-594.1 279.5 300.3 100 99 97
-578.0 275.2 295.6 117 117 117
-580.1 279.5 300.3 119 119 119
-592.0 288.7 310.1 121 123 122
-566.2 279.5 300.3 134 136 135
-550.5 275.2 295.6 143 143 142
-543.6 275.2 295.6 158 158 158
-554.0 284.1 305.1 205 208 207
-565.2 293.5 315.3 154 154 154
-539.9 284.1 305.1 126 126 126
-532.8 284.1 305.1 115 114 114
-525.7 284.1 305.1 71 72 70
-502.4 275.2 295.6 25 25 25
-495.5 275.2 295.6 17 21 18
-488.6 275.2 295.6 15 19 16
-489.4 279.5 300.3 17 21 18
-474.9 275.2 295.6 47 47 47
-468.0 275.2 295.6 48 48 48
-483.8 288.7 310.1 51 50 48
-461.5 279.5 300.3 53 53 53
-454.5 279.5 300.3 56 57 55
-454.8 284.1 305.1 58 59 59
-414.3 262.9 282.3 63 63 63
-426.8 275.2 295.6 65 65 65
-433.5 284.1 305.1 68 70 68
-406.7 270.9 291.0 69 71 69
-400.0 270.9 291.0 69 71 69
-393.2 270.9 291.0 69 71 69
-392.5 275.2 295.6 71 72 70
-398.0 284.1 305.1 75 76 76
-397.3 288.7 310.1 75 76 76
-390.1 288.7 310.1 64 64 64
-365.0 275.2 295.6 69 71 69
-358.1 275.2 295.6 63 63 63
-356.8 279.5 300.3 50 50 50
-361.3 288.7 310.1 46 46 46
-354.1 288.7 310.1 43 43 43
-335.9 279.5 300.3 13 17 14
-323.8 275.2 295.6 123 123 123
-316.9 275.2 295.6 159 158 156
-310.0 275.2 295.6 178 181 180
-303.2 275.2 295.6 167 167 167
-296.3 275.2 295.6 156 156 156
-294.0 279.5 300.3 89 91 90
-282.5 275.2 295.6 193 196 195
-284.6 284.1 305.1 188 188 188
-273.1 279.5 300.3 146 146 146
-266.1 279.5 300.3 124 124 124
-267.6 288.7 310.1 159 162 161
-256.2 284.1 305.1 147 149 149
-245.2 279.5 300.3 145 147 147
-242.0 284.1 305.1 150 150 150
-242.8 293.5 315.3 154 156 156
-224.2 279.5 300.3 152 154 154
-213.8 275.2 295.6 134 134 134
-207.0 275.2 295.6 87 89 88
-188.3 259.0 278.2 83 83 83
-187.4 266.8 286.6 72 74 74
-183.5 270.9 291.0 75 76 76
-174.1 266.8 286.6 91 93 92
-193.8 309.0 331.9 102 102 102
-176.8 293.5 315.3 93 93 93
-164.0 284.1 305.1 155 158 157
-156.9 284.1 305.1 151 151 151
-147.4 279.5 300.3 151 151 151
-140.5 279.5 300.3 162 162 162
-135.6 284.1 305.1 137 139 138
-122.6 270.9 291.0 103 103 103
-115.9 270.9 291.0 165 165 165
-109.1 270.9 291.0 67 67 67
-103.9 275.2 295.6 193 193 193
-100.2 284.1 305.1 201 203 203
-93.1 284.1 305.1 163 163 163
-83.3 275.2 295.6 101 100 98
-76.4 275.2 295.6 145 147 147
-70.7 279.5 300.3 192 192 192
-62.7 275.2 295.6 188 190 190
-30.2 293.5 315.3 204 207 206
-21.2 270.9 291.0 205 205 205
-0.9 279.5 300.3 207 207 207
6.2 284.1 305.1 207 207 207
12.9 275.2 295.6 207 210 209
20.4 284.1 305.1 206 206 206
26.6 275.2 295.6 206 206 206
32.5 266.8 286.6 204 204 204
184.6 275.2 295.6 102 103 101
188.5 270.9 291.0 98 98 98
186.7 259.0 278.2 99 99 99
190.4 255.2 274.1 23 23 23
199.6 259.0 278.2 17 17 17
197.4 248.0 266.4 9 14 10
-934.3 316.7 331.9 121 121 121
-1056.3 361.0 378.3 133 133 133
-1047.6 361.0 378.3 137 139 138
-1038.8 361.0 378.3 140 142 141
-1030.0 361.0 378.3 148 148 148
-1021.2 361.0 378.3 153 153 153
-1012.4 361.0 378.3 154 156 156
-1003.6 361.0 378.3 154 156 156
-994.8 361.0 378.3 157 160 159
-1006.1 368.4 386.0 157 160 159
-977.2 361.0 378.3 156 159 158
-968.4 361.0 378.3 163 163 163
-959.6 361.0 378.3 163 163 163
-932.2 353.9 370.9 164 164 164
-942.0 361.0 378.3 160 163 162
-914.9 353.9 370.9 159 162 161
-906.3 353.9 370.9 155 155 155
-915.7 361.0 378.3 131 133 132
-889.1 353.9 370.9 102 102 102
-916.4 368.4 386.0 97 96 94
-889.3 361.0 378.3 90 90 90
-898.4 368.4 386.0 77 77 77
-871.7 361.0 378.3 67 67 67
-898.8 376.1 394.1 61 61 61
-854.1 361.0 378.3 61 61 61
-812.8 347.1 363.8 63 64 62
-853.6 368.4 386.0 68 68 68
-827.7 361.0 378.3 69 69 69
-772.6 340.6 356.9 62 62 62
-794.2 353.9 370.9 45 45 45
-808.7 368.4 386.0 23 23 23
-753.6 347.1 363.8 24 24 24
-788.9 376.1 394.1 27 30 28
-748.6 361.0 378.3 15 19 16
-725.3 353.9 370.9 15 19 16
-745.9 368.4 386.0 18 22 19
-752.3 376.1 394.1 15 15 15
-728.0 368.4 386.0 23 23 23
-664.7 340.6 356.9 52 52 50
-669.0 347.1 363.8 87 87 87
-697.3 376.1 394.1 37 38 37
-688.2 376.1 394.1 23 23 23
-665.1 368.4 386.0 15 19 16
-606.6 340.6 356.9 15 19 16
-598.4 340.6 356.9 15 19 16
-625.5 361.0 378.3 15 15 15
-604.6 353.9 370.9 22 22 22
-584.5 347.1 363.8 35 35 35
-599.1 361.0 378.3 38 40 40
-570.1 353.9 370.9 46 46 46
-596.6 376.1 394.1 49 49 49
-563.9 361.0 378.3 53 52 52
-495.6 322.3 337.8 59 59 59
-569.1 376.1 394.1 64 64 64
-537.5 361.0 378.3 67 67 67
-498.8 340.6 356.9 68 70 68
-499.9 347.1 363.8 70 72 69
-501.1 353.9 370.9 70 72 69
-476.0 361.0 378.3 78 78 78
-458.0 353.9 370.9 161 161 161
-449.4 353.9 370.9 99 98 96
-458.8 368.4 386.0 126 129 128
-450.0 376.1 394.1 41 41 41
-423.2 361.0 378.3 6 7 7
-414.4 361.0 378.3 162 161 159
-405.6 361.0 378.3 165 165 165
-389.0 353.9 370.9 166 169 168
-366.1 340.6 356.9 156 155 153
-379.2 361.0 378.3 148 148 148
-370.4 361.0 378.3 155 155 155
-354.6 353.9 370.9 192 195 194
-367.6 376.1 394.1 183 182 180
-349.2 376.1 394.1 112 112 112
-340.1 376.1 394.1 148 150 150
-324.2 368.4 386.0 148 150 150
-308.9 361.0 378.3 146 148 148
-277.0 353.9 370.9 149 149 149
-268.4 353.9 370.9 135 135 135
-245.3 334.3 350.3 101 103 103
-220.8 311.2 326.1 84 84 84
-237.8 347.1 363.8 74 76 75
-207.5 368.4 386.0 140 140 140
-198.5 368.4 386.0 152 152 152
-189.6 368.4 386.0 142 144 143
-180.6 368.4 386.0 164 167 166
-175.2 376.1 394.1 146 146 146
-144.9 328.2 343.9 132 132 132
-139.5 334.3 350.3 140 140 140
-131.3 334.3 350.3 198 198 198
-135.7 368.4 386.0 197 197 197
-129.4 376.1 394.1 196 196 196
-115.4 361.0 378.3 197 197 197
-98.7 334.3 350.3 212 213 212
-95.9 353.9 370.9 198 198 198
-90.9 368.4 386.0 137 137 137
-80.3 361.0 378.3 106 106 106
-62.7 361.0 378.3 198 198 198
-56.1 376.1 394.1 203 203 203
-37.0 368.4 386.0 204 204 204
-25.0 328.2 343.9 205 205 205
-14.6 282.0 295.6 205 205 205
-1.1 361.0 378.3 206 206 206
7.8 368.4 386.0 207 207 207
16.1 353.9 370.9 207 210 209
25.3 361.0 378.3 206 206 206
32.1 340.6 356.9 205 205 205
39.0 328.2 343.9 204 204 204
214.8 328.2 343.9 98 98 98
211.3 311.2 326.1 97 97 97
211.6 300.8 315.3 94 94 94
218.9 300.8 315.3 30 29 29
226.2 300.8 315.3 11 16 13
222.4 286.5 300.3 9 14 10
101.7 54.7 39.8 72 71 69
25.2 16.3 10.0 125 125 125
25.3 16.8 10.2 128 130 129
25.3 16.7 10.1 120 122 121
36.7 16.7 10.1 108 108 108
