ply
format ascii 1.0
element vertex 2090
property float x
property float y
property float z
property uchar red
property uchar green
property uchar blue
end_header
82.7 -499.6 199.1 152 154 154
88.3 -504.9 201.2 155 158 157
93.0 -504.9 201.2 158 158 158
97.6 -504.9 201.2 158 158 158
102.3 -504.9 201.2 154 156 156
107.0 -504.9 201.2 158 158 158
111.7 -504.9 201.2 164 164 164
116.3 -504.9 201.2 160 160 160
121.0 -504.9 201.2 160 160 160
125.7 -504.9 201.2 160 160 160
130.4 -504.9 201.2 160 160 160
135.1 -504.9 201.2 160 160 160
138.3 -499.6 199.1 160 160 160
144.4 -504.9 201.2 164 164 164
149.1 -504.9 201.2 164 164 164
153.8 -504.9 201.2 164 164 164
158.4 -504.9 201.2 164 164 164
163.1 -504.9 201.2 164 164 164
167.8 -504.9 201.2 164 164 164
172.5 -504.9 201.2 164 164 164
173.5 -494.4 197.0 164 164 164
178.0 -494.4 197.0 164 164 164
182.6 -494.4 197.0 164 164 164
191.2 -504.9 201.2 164 164 164
195.9 -504.9 201.2 165 165 165
198.4 -499.6 199.1 165 165 165
203.1 -499.6 199.1 165 165 165
207.7 -499.6 199.1 165 165 165
214.6 -504.9 201.2 165 165 165
219.2 -504.9 201.2 162 162 162
226.3 -510.3 203.4 162 162 162
231.1 -510.3 203.4 162 162 162
230.8 -499.6 199.1 162 162 162
238.0 -504.9 201.2 162 162 162
242.6 -504.9 201.2 166 166 166
242.2 -494.4 197.0 163 163 163
249.3 -499.6 199.1 160 160 160
259.4 -510.3 203.4 160 160 160
258.6 -499.6 199.1 163 163 163
266.0 -504.9 201.2 160 160 160
279.6 -521.6 207.9 155 158 157
278.3 -510.3 203.4 155 158 157
280.1 -504.9 201.2 156 159 158
275.9 -489.3 195.0 156 159 158
286.4 -499.6 199.1 156 159 158
297.2 -510.3 203.4 156 159 158
51.6 -74.4 29.6 158 161 160
52.2 -74.3 29.6 158 161 160
52.8 -74.2 29.6 158 161 160
53.5 -74.2 29.6 159 162 161
54.2 -74.2 29.6 158 158 158
54.9 -74.2 29.6 158 158 158
55.9 -74.6 29.7 158 158 158
138.8 -107.1 42.7 106 106 106
138.6 -106.2 42.3 104 103 101
139.9 -106.4 42.4 106 106 106
140.2 -105.9 42.2 104 103 101
140.9 -105.7 42.1 98 100 100
168.3 -419.8 168.9 165 165 165
192.4 -412.5 165.9 162 162 162
197.9 -416.1 167.4 162 162 162
146.2 -290.3 116.8 163 163 163
225.5 -439.5 176.8 163 163 163
221.3 -423.6 170.4 160 160 160
223.2 -412.5 165.9 160 160 160
225.1 -408.9 164.5 160 160 160
228.9 -408.9 164.5 160 160 160
53.8 -76.8 30.9 158 161 160
53.3 -75.1 30.2 158 161 160
53.9 -75.0 30.2 158 161 160
55.0 -75.6 30.4 159 162 161
55.6 -75.4 30.3 159 162 161
56.3 -75.4 30.3 160 163 162
57.2 -75.6 30.4 158 158 158
59.9 -76.3 30.7 160 160 160
137.9 -105.4 42.4 106 106 106
134.9 -102.4 41.2 104 103 101
136.5 -102.9 41.4 104 103 101
137.8 -103.1 41.5 104 103 101
58.1 -38.1 15.3 206 206 206
57.9 -37.8 15.2 215 215 215
59.0 -179.2 72.8 167 167 167
60.7 -179.2 72.8 167 167 167
62.1 -178.5 72.5 167 167 167
63.6 -177.8 72.2 167 167 167
65.2 -177.8 72.2 164 164 164
67.4 -179.2 72.8 164 164 164
69.4 -179.9 73.0 164 164 164
70.8 -179.2 72.8 165 165 165
72.2 -178.5 72.5 165 165 165
73.6 -177.8 72.2 165 165 165
75.9 -179.2 72.8 165 165 165
77.6 -179.2 72.8 159 159 159
79.0 -178.5 72.5 162 162 162
81.3 -179.9 73.0 159 159 159
82.3 -178.5 72.5 162 162 162
83.4 -177.1 71.9 162 162 162
85.7 -178.5 72.5 162 162 162
88.1 -179.9 73.0 163 163 163
88.7 -177.8 72.2 163 163 163
92.8 -179.2 72.8 163 163 163
90.3 -171.3 69.5 163 163 163
108.9 -172.5 70.1 161 161 161
111.8 -174.5 70.8 162 162 162
115.6 -177.8 72.2 162 162 162
112.9 -171.3 69.5 163 163 163
53.9 -75.3 30.6 160 163 162
54.5 -75.1 30.5 158 161 160
55.9 -76.1 30.9 159 162 161
56.7 -76.1 30.9 159 162 161
57.4 -76.1 30.9 160 163 162
58.4 -76.5 31.1 160 163 162
58.2 -75.4 30.6 160 163 162
61.2 -77.3 31.4 160 160 160
56.2 -37.7 15.3 196 199 198
56.3 -37.5 15.2 195 195 195
57.0 -37.7 15.3 206 206 206
57.2 -37.7 15.3 165 168 167
57.7 -37.7 15.3 159 159 159
58.0 -37.7 15.3 211 211 211
57.7 -37.3 15.2 195 195 195
57.4 -36.9 15.0 203 203 203
73.3 -142.9 58.6 163 163 163
79.8 -149.8 61.4 163 163 163
75.1 -138.6 56.8 163 163 163
57.2 -89.8 36.8 164 164 164
110.1 -170.3 69.8 165 165 165
110.9 -166.6 68.3 166 166 166
100.8 -149.3 61.2 163 163 163
53.9 -74.5 30.6 160 163 162
54.7 -74.7 30.6 161 164 163
56.0 -75.5 31.0 161 164 163
56.8 -75.5 31.0 159 162 161
57.5 -75.5 31.0 160 163 162
58.7 -76.1 31.2 160 163 162
58.2 -74.7 30.6 160 163 162
62.1 -77.7 31.8 160 160 160
57.1 -37.5 15.4 198 201 200
57.5 -37.5 15.4 211 211 211
58.3 -37.5 15.4 198 201 200
57.8 -37.0 15.2 193 193 193
57.4 -36.5 15.0 211 211 211
64.4 -124.2 51.4 166 166 166
62.8 -119.0 49.3 166 166 166
68.1 -124.5 51.5 166 166 166
54.4 -84.6 35.0 167 167 167
53.3 -81.6 33.8 162 162 162
113.4 -168.6 69.8 166 166 166
100.2 -147.0 60.8 166 166 166
92.4 -133.6 55.3 166 166 166
57.9 -81.5 33.7 167 167 167
55.5 -75.0 31.1 165 165 165
57.4 -76.7 31.7 161 164 163
60.2 -79.3 32.8 162 165 164
62.3 -81.0 33.5 162 165 164
62.4 -80.2 33.2 160 163 162
67.2 -84.3 34.9 161 164 163
65.4 -81.0 33.5 160 160 160
56.5 -36.7 15.2 186 186 186
56.9 -36.7 15.2 175 175 175
57.0 -36.6 15.1 208 208 208
57.5 -36.7 15.2 190 190 190
57.6 -36.5 15.1 215 215 215
57.1 -36.0 14.9 215 215 215
52.7 -80.0 33.4 172 172 172
52.7 -78.7 32.9 172 172 172
93.8 -134.3 56.1 169 169 169
57.4 -80.0 33.4 167 167 167
57.2 -78.6 32.8 168 168 168
57.3 -77.8 32.5 168 168 168
58.0 -77.6 32.4 168 168 168
58.7 -77.6 32.4 169 169 169
59.8 -78.0 32.6 169 169 169
61.6 -79.4 33.2 167 167 167
62.2 -79.1 33.1 167 167 167
64.4 -79.0 33.0 161 164 163
55.0 -35.0 14.6 206 206 206
53.6 -33.9 14.1 215 215 215
53.6 -33.7 14.1 217 217 217
55.1 -34.4 14.4 217 217 217
16.2 -79.2 33.4 164 164 164
16.9 -78.9 33.3 164 164 164
17.7 -79.1 33.4 167 167 167
18.6 -79.3 33.5 168 170 169
19.4 -79.3 33.5 166 166 166
20.2 -79.5 33.5 168 170 169
20.9 -79.5 33.5 168 170 169
21.7 -79.5 33.5 168 170 169
23.3 -79.5 33.5 166 166 166
24.1 -79.5 33.5 166 166 166
24.8 -79.5 33.5 164 164 164
25.6 -79.5 33.5 164 164 164
26.4 -79.5 33.5 167 167 167
27.2 -79.5 33.5 167 167 167
28.0 -79.5 33.5 167 167 167
28.7 -79.5 33.5 169 171 170
29.5 -79.5 33.5 169 171 170
30.4 -79.6 33.6 169 171 170
31.1 -79.5 33.5 167 167 167
31.9 -79.5 33.5 169 171 170
32.7 -79.6 33.6 165 165 165
33.4 -79.5 33.5 169 171 170
34.2 -79.5 33.5 169 171 170
35.1 -79.8 33.7 169 171 170
35.7 -79.3 33.5 169 171 170
36.7 -79.8 33.7 170 172 172
37.5 -79.9 33.7 170 172 172
37.9 -79.1 33.4 170 172 172
39.7 -79.5 33.5 170 172 172
40.4 -79.3 33.5 170 172 172
41.3 -79.6 33.6 169 169 169
41.8 -79.1 33.4 173 175 175
42.6 -79.2 33.4 170 172 172
43.9 -80.0 33.8 170 172 172
44.3 -79.3 33.5 170 172 172
44.3 -78.1 33.0 173 175 175
48.8 -80.3 33.9 171 173 173
49.2 -79.8 33.7 174 176 176
49.8 -79.5 33.5 171 173 173
53.4 -82.7 34.9 171 173 173
54.0 -82.2 34.7 171 173 173
53.1 -79.8 33.7 172 174 174
52.8 -78.1 33.0 172 174 174
53.4 -78.0 32.9 173 175 175
58.5 -80.8 34.1 170 171 170
58.1 -79.1 33.4 174 176 176
65.0 -79.1 33.4 168 168 168
51.8 -32.2 13.6 219 219 219
51.6 -31.9 13.5 219 219 219
15.9 -76.7 32.7 167 167 167
16.5 -76.3 32.5 169 171 170
17.3 -76.3 32.5 169 171 170
18.2 -77.1 32.8 168 170 169
18.9 -76.7 32.7 168 170 169
19.7 -77.1 32.8 168 170 169
20.5 -77.1 32.8 168 170 169
22.7 -76.7 32.7 168 170 169
23.4 -76.7 32.7 168 170 169
24.2 -76.7 32.7 168 170 169
25.0 -76.7 32.7 169 171 170
25.7 -76.7 32.7 169 171 170
26.5 -76.7 32.7 169 171 170
27.2 -76.7 32.7 169 171 170
28.0 -76.7 32.7 169 171 170
28.8 -76.7 32.7 169 171 170
29.6 -76.8 32.7 169 171 170
30.3 -76.8 32.7 171 173 173
31.0 -76.7 32.7 169 171 170
31.9 -76.8 32.7 169 171 170
32.6 -76.8 32.7 177 177 177
33.3 -76.7 32.7 169 171 170
34.2 -76.9 32.8 172 174 174
34.8 -76.7 32.7 169 171 170
35.6 -76.7 32.7 172 174 174
36.4 -76.8 32.7 170 172 172
37.0 -76.4 32.6 172 174 174
37.9 -76.7 32.7 177 177 177
38.6 -76.5 32.6 177 177 177
39.5 -76.8 32.7 178 178 178
40.4 -77.1 32.8 170 172 172
40.9 -76.7 32.7 173 175 175
41.4 -76.1 32.4 182 182 182
42.6 -77.1 32.8 180 180 180
43.4 -77.1 32.8 173 175 175
43.6 -76.0 32.4 178 178 178
44.8 -76.8 32.7 178 178 178
45.9 -77.5 33.0 178 178 178
46.7 -77.5 33.0 173 175 175
47.2 -77.1 32.8 174 176 176
47.8 -76.8 32.7 179 179 179
48.4 -76.5 32.6 179 179 179
51.8 -79.4 33.8 179 179 179
52.2 -78.8 33.6 171 173 173
52.0 -77.3 33.0 180 180 180
52.3 -76.7 32.7 172 174 174
52.9 -76.4 32.6 173 175 175
57.7 -77.7 33.1 174 176 176
56.6 -72.4 30.9 176 179 178
35.3 -73.6 31.7 189 189 189
35.6 -72.9 31.4 192 192 192
39.5 -73.2 31.5 197 197 197
39.4 -71.8 30.9 197 197 197
42.5 -74.7 32.2 200 200 200
41.6 -71.8 30.9 200 200 200
42.4 -71.9 31.0 197 197 197
44.8 -74.7 32.2 197 197 197
45.1 -74.1 31.9 197 197 197
45.6 -73.6 31.7 197 197 197
45.3 -72.0 31.0 197 197 197
46.3 -72.5 31.2 200 200 200
51.0 -76.3 32.8 194 194 194
50.7 -74.6 32.1 195 195 195
51.4 -74.6 32.1 198 198 198
52.3 -74.9 32.2 202 202 202
59.4 -76.3 32.8 202 202 202
58.5 -74.1 31.9 203 203 203
130.5 -95.3 41.0 107 107 107
65.1 -44.3 19.1 98 100 100
34.4 -69.7 30.3 203 203 203
39.0 -71.6 31.1 200 200 200
37.9 -68.3 29.7 203 203 203
40.9 -69.9 30.4 203 203 203
41.4 -69.5 30.2 203 203 203
45.2 -72.3 31.4 203 203 203
44.4 -69.9 30.4 203 203 203
44.4 -68.8 29.9 203 203 203
44.7 -68.2 29.6 203 203 203
51.2 -73.5 32.0 204 204 204
52.1 -73.7 32.1 204 204 204
122.1 -88.2 38.4 110 112 111
64.8 -43.9 19.1 98 100 100
64.3 -43.3 18.8 98 100 100
38.1 -63.4 27.9 203 203 203
46.0 -72.7 32.0 203 203 203
41.7 -63.9 28.1 203 203 203
41.7 -63.0 27.7 203 203 203
53.9 -75.6 33.2 204 204 204
55.6 -76.9 33.8 205 205 205
27.8 -36.8 16.2 206 206 206
26.7 -34.5 15.2 206 206 206
116.0 -83.0 36.4 113 115 114
112.3 -79.7 35.0 110 112 111
64.2 -43.1 18.9 98 100 100
37.1 -62.2 27.6 206 206 206
37.5 -61.7 27.4 206 206 206
38.3 -62.0 27.5 206 206 206
41.0 -63.2 28.1 203 203 203
41.1 -62.3 27.7 203 203 203
41.3 -61.7 27.4 203 203 203
40.9 -60.2 26.7 203 203 203
53.6 -76.5 34.0 207 207 207
54.1 -76.1 33.8 204 204 204
54.9 -76.1 33.8 204 204 204
56.0 -76.7 34.0 205 205 205
84.7 -114.3 50.7 205 205 205
27.8 -36.0 16.0 206 206 206
27.0 -34.5 15.3 206 206 206
26.7 -33.6 14.9 207 207 207
116.6 -82.6 36.7 115 117 116
67.1 -44.9 19.9 106 106 106
64.0 -42.5 18.9 106 106 106
36.5 -59.4 26.6 206 206 206
36.8 -59.0 26.5 206 206 206
40.9 -61.5 27.6 206 206 206
40.7 -60.2 27.0 206 206 206
40.4 -58.8 26.4 206 206 206
40.8 -58.5 26.2 206 206 206
54.7 -77.3 34.6 206 206 206
57.4 -77.7 34.8 207 207 207
26.7 -33.8 15.2 206 206 206
26.6 -33.2 14.9 206 206 206
36.6 -58.0 26.3 208 208 208
41.5 -61.7 27.9 205 205 205
41.0 -60.1 27.2 205 205 205
40.3 -58.1 26.3 205 205 205
40.6 -57.6 26.1 205 205 205
66.2 -90.0 40.8 206 206 206
26.7 -33.4 15.1 205 205 205
42.0 -61.8 28.3 205 205 205
40.9 -59.3 27.1 208 208 208
40.3 -57.5 26.3 205 205 205
40.2 -56.4 25.8 205 205 205
41.4 -57.4 26.3 205 205 205
64.5 -86.8 39.7 206 206 206
62.8 -83.3 38.1 206 206 206
61.8 -80.8 37.0 206 206 206
-9.5 -23.1 10.7 138 140 139
40.5 -58.0 26.9 207 207 207
40.1 -56.5 26.2 207 207 207
39.4 -54.8 25.4 207 207 207
40.3 -55.2 25.5 207 207 207
63.7 -84.8 39.2 205 205 205
62.8 -82.4 38.1 205 205 205
62.1 -80.3 37.2 206 206 206
61.4 -78.3 36.2 206 206 206
63.1 -79.4 36.7 206 206 206
-30.1 -22.8 10.7 46 46 44
-30.0 -23.0 10.7 48 48 48
-29.7 -23.0 10.7 48 48 48
-29.5 -22.9 10.7 48 48 48
-29.2 -22.9 10.7 46 46 44
-28.9 -22.9 10.7 48 48 48
-28.7 -22.9 10.7 48 48 48
-28.7 -23.1 10.8 48 48 48
-28.4 -23.1 10.8 48 48 48
-26.2 -23.1 10.8 42 43 42
-25.9 -23.1 10.8 42 43 42
-23.9 -23.1 10.8 41 41 41
-20.2 -22.9 10.7 106 106 106
-14.4 -22.8 10.7 123 123 123
-14.3 -23.0 10.8 123 123 123
-9.7 -22.8 10.7 137 137 137
-9.5 -23.0 10.7 137 139 138
-9.3 -23.1 10.8 139 138 137
-9.0 -22.9 10.7 140 140 140
-8.6 -23.0 10.8 140 142 141
-7.3 -22.9 10.7 143 145 144
-6.8 -23.0 10.7 146 146 146
-6.5 -22.8 10.7 150 152 152
-3.3 -23.2 10.9 169 169 169
41.8 -60.2 28.1 207 207 207
40.7 -57.8 27.0 206 206 206
40.4 -56.4 26.4 206 206 206
39.6 -54.4 25.5 207 207 207
40.5 -54.9 25.7 207 207 207
41.4 -55.3 25.9 207 207 207
63.5 -83.5 39.1 207 207 207
62.8 -81.5 38.1 205 205 205
61.7 -79.0 36.9 205 205 205
61.1 -77.1 36.1 205 205 205
62.1 -77.3 36.2 205 205 205
-30.8 -23.2 11.0 47 46 45
-30.7 -23.3 11.0 47 46 45
-30.5 -23.3 11.0 47 46 45
-30.2 -23.3 11.0 49 49 49
-30.0 -23.3 11.0 49 49 49
-29.7 -23.3 11.0 51 51 51
-29.5 -23.3 11.0 49 49 49
-29.2 -23.3 11.0 49 49 49
-29.0 -23.3 11.0 49 49 49
-28.7 -23.3 11.0 49 49 49
-28.4 -23.2 11.0 49 49 49
-28.2 -23.3 11.0 49 49 49
-28.0 -23.3 11.0 49 49 49
-27.7 -23.3 11.0 49 49 49
-27.4 -23.3 11.0 43 43 43
-27.2 -23.3 11.0 43 43 43
-27.0 -23.3 11.0 43 43 43
-26.7 -23.3 11.0 43 43 43
-26.4 -23.3 11.0 43 43 43
-26.2 -23.3 11.0 43 43 43
-26.0 -23.4 11.1 43 43 43
-25.7 -23.4 11.1 42 42 42
-25.4 -23.3 11.0 39 39 39
-25.1 -23.3 11.0 42 42 42
-24.9 -23.3 11.0 42 42 42
-24.6 -23.3 11.0 42 42 42
-24.3 -23.3 11.0 39 39 39
-23.9 -23.4 11.1 42 42 42
-23.6 -23.3 11.0 42 42 42
-23.3 -23.3 11.0 42 42 42
-23.1 -23.3 11.0 43 43 43
-22.8 -23.3 11.0 42 42 42
-22.6 -23.4 11.0 43 43 43
-22.3 -23.3 11.0 46 46 44
-22.1 -23.3 11.0 44 44 44
-21.7 -23.2 11.0 46 46 44
-21.3 -23.3 11.0 85 85 85
-21.0 -23.3 11.0 94 94 94
-20.8 -23.3 11.0 94 94 94
-19.8 -23.3 11.0 103 103 103
-19.5 -23.3 11.0 103 103 103
-19.4 -23.4 11.1 103 103 103
-19.0 -23.4 11.0 104 104 104
-18.8 -23.3 11.0 106 106 106
-18.4 -23.3 11.0 106 106 106
-17.6 -23.2 11.0 108 110 110
-17.5 -23.4 11.1 108 110 110
-16.7 -23.3 11.0 113 114 113
-16.4 -23.2 11.0 116 116 116
-15.4 -23.3 11.0 119 119 119
-15.1 -23.2 11.0 119 119 119
-14.8 -23.2 11.0 120 122 121
-14.6 -23.2 11.0 119 121 120
-10.7 -23.2 11.0 126 129 128
-10.5 -23.2 11.0 131 131 131
-10.3 -23.3 11.0 131 134 133
-9.9 -23.1 10.9 134 134 134
-9.7 -23.2 11.0 135 135 135
-9.5 -23.3 11.0 134 137 136
-9.2 -23.3 11.0 138 137 136
-9.0 -23.2 11.0 139 139 139
-8.7 -23.2 11.0 140 142 141
-8.3 -23.4 11.1 146 146 146
-8.0 -23.4 11.1 146 146 146
-7.7 -23.3 11.0 145 147 147
-7.5 -23.4 11.0 148 148 148
-7.2 -23.3 11.0 151 151 151
-2.8 -23.3 11.0 182 182 182
-2.6 -23.3 11.0 182 182 182
-1.8 -23.3 11.0 179 179 179
-1.3 -23.4 11.1 181 181 181
0.7 -23.4 11.1 180 180 180
1.0 -23.4 11.0 180 180 180
1.3 -23.4 11.1 180 180 180
1.5 -23.4 11.1 180 180 180
1.8 -23.4 11.1 180 180 180
2.0 -23.3 11.0 182 182 182
2.3 -23.3 11.0 182 182 182
2.5 -23.4 11.1 182 182 182
2.8 -23.3 11.0 182 182 182
3.0 -23.3 11.0 182 182 182
3.3 -23.4 11.0 182 182 182
3.6 -23.4 11.0 185 185 185
3.8 -23.4 11.1 182 182 182
41.8 -59.5 28.1 206 206 206
40.5 -56.8 26.9 206 206 206
40.3 -55.6 26.3 206 206 206
40.8 -54.7 25.9 206 206 206
41.2 -54.4 25.7 207 207 207
62.6 -80.3 38.0 204 204 204
61.7 -78.1 36.9 204 204 204
61.1 -76.3 36.1 205 205 205
62.0 -76.3 36.1 205 205 205
64.0 -77.8 36.8 205 205 205
-38.3 -28.4 13.6 49 49 49
-38.1 -28.5 13.6 49 49 49
-37.8 -28.5 13.6 49 49 49
-31.7 -28.5 13.6 42 43 42
-31.4 -28.5 13.6 42 43 42
-27.7 -28.6 13.7 41 41 41
-27.2 -28.5 13.6 43 43 43
-27.0 -28.5 13.6 45 45 45
-26.7 -28.6 13.7 45 45 45
-26.4 -28.5 13.6 51 51 51
-26.1 -28.5 13.6 51 51 51
-25.8 -28.6 13.7 79 78 77
-25.3 -28.4 13.6 89 91 90
-25.0 -28.4 13.6 95 95 95
-14.0 -28.5 13.6 118 118 118
-13.6 -28.4 13.6 120 120 120
-13.3 -28.5 13.6 122 122 122
-13.0 -28.5 13.6 124 124 124
-11.8 -28.5 13.6 126 129 128
-11.5 -28.6 13.7 130 130 130
-11.1 -28.5 13.6 132 135 134
-5.8 -28.6 13.7 191 191 191
-5.4 -28.5 13.6 190 190 190
-5.1 -28.5 13.6 185 185 185
-4.8 -28.5 13.6 188 188 188
-4.5 -28.5 13.6 188 188 188
-4.2 -28.5 13.6 188 188 188
-3.8 -28.5 13.6 186 186 186
-3.5 -28.5 13.6 186 186 186
-3.2 -28.5 13.6 186 186 186
-2.9 -28.5 13.6 186 186 186
-2.6 -28.5 13.6 186 186 186
-2.3 -28.5 13.6 186 186 186
-1.9 -28.5 13.6 183 183 183
-1.6 -28.5 13.6 183 183 183
-1.3 -28.5 13.6 183 183 183
-1.0 -28.5 13.6 183 183 183
-0.7 -28.5 13.6 182 182 182
-0.4 -28.5 13.6 182 182 182
-0.0 -28.5 13.6 182 182 182
0.3 -28.6 13.7 182 182 182
0.6 -28.5 13.6 182 182 182
0.9 -28.5 13.6 182 182 182
1.2 -28.5 13.6 182 182 182
6.3 -28.6 13.7 204 204 204
6.7 -28.7 13.7 207 207 207
6.9 -28.5 13.6 207 207 207
7.2 -28.4 13.6 207 207 207
7.6 -28.6 13.7 207 207 207
8.5 -28.5 13.6 209 209 209
8.8 -28.5 13.6 209 209 209
9.2 -28.5 13.6 209 209 209
9.5 -28.6 13.7 209 209 209
9.8 -28.6 13.7 209 209 209
10.1 -28.5 13.6 209 209 209
10.4 -28.5 13.6 209 209 209
10.7 -28.5 13.6 209 209 209
11.1 -28.5 13.6 209 209 209
11.4 -28.5 13.6 209 209 209
11.7 -28.6 13.7 209 209 209
12.0 -28.6 13.7 209 209 209
12.3 -28.5 13.6 209 209 209
12.6 -28.5 13.6 211 211 211
13.0 -28.5 13.6 206 206 206
13.3 -28.5 13.6 206 206 206
13.6 -28.6 13.7 206 206 206
13.9 -28.6 13.7 206 206 206
14.2 -28.5 13.6 206 206 206
14.6 -28.5 13.6 206 206 206
14.9 -28.5 13.6 203 203 203
15.2 -28.6 13.7 203 203 203
15.5 -28.5 13.6 206 206 206
15.8 -28.5 13.6 206 206 206
16.1 -28.5 13.6 206 206 206
16.5 -28.6 13.7 206 206 206
16.8 -28.6 13.7 206 206 206
17.1 -28.6 13.7 206 206 206
17.4 -28.5 13.6 206 206 206
40.3 -55.9 26.8 205 205 205
40.4 -55.2 26.4 205 205 205
40.8 -54.9 26.2 206 206 206
41.1 -54.5 26.1 206 206 206
41.4 -54.1 25.9 206 206 206
41.6 -53.6 25.6 209 209 209
61.6 -75.0 35.9 204 204 204
64.3 -77.2 36.9 204 204 204
25.0 -27.2 13.0 204 204 204
-38.7 -28.4 13.7 50 50 50
-28.0 -28.5 13.8 42 42 42
-27.5 -28.4 13.7 42 42 42
-26.2 -28.7 13.9 50 50 50
-25.6 -28.4 13.7 49 48 47
-13.8 -28.4 13.7 111 113 112
-13.5 -28.4 13.7 112 112 112
-10.9 -29.4 14.2 161 164 163
6.9 -29.4 14.2 206 206 206
10.2 -29.4 14.2 209 209 209
10.5 -29.2 14.1 209 209 209
10.8 -29.3 14.2 209 209 209
11.2 -29.4 14.2 209 209 209
11.5 -29.4 14.2 209 209 209
11.9 -29.4 14.2 209 209 209
12.2 -29.4 14.2 209 209 209
12.5 -29.4 14.2 209 209 209
12.8 -29.4 14.2 209 209 209
13.2 -29.4 14.2 210 210 210
13.5 -29.4 14.2 206 206 206
13.8 -29.3 14.2 206 206 206
14.2 -29.4 14.2 206 206 206
14.4 -29.2 14.1 206 206 206
14.8 -29.3 14.2 206 206 206
40.5 -55.6 26.9 205 205 205
41.0 -55.3 26.8 205 205 205
41.6 -55.3 26.8 205 205 205
41.5 -54.4 26.3 205 205 205
41.8 -53.9 26.1 205 205 205
41.7 -53.1 25.7 206 206 206
42.9 -53.9 26.1 206 206 206
61.1 -75.6 36.6 206 206 206
61.1 -73.5 35.6 204 204 204
64.4 -76.5 37.0 204 204 204
25.1 -27.0 13.0 206 206 206
-33.2 -24.1 11.8 51 51 51
-26.9 -29.1 14.2 43 43 43
-14.6 -29.1 14.3 98 98 98
-14.2 -28.9 14.1 84 86 86
-13.8 -28.8 14.1 72 71 69
-13.5 -28.9 14.2 67 67 67
-11.0 -29.2 14.3 184 184 184
6.9 -29.1 14.3 208 208 208
7.2 -28.8 14.1 208 208 208
8.9 -29.2 14.3 208 208 208
9.3 -29.2 14.3 208 208 208
9.6 -29.4 14.4 208 208 208
10.0 -29.4 14.4 208 208 208
10.3 -29.3 14.3 208 208 208
10.6 -29.1 14.2 208 208 208
10.9 -29.1 14.2 208 208 208
11.3 -29.3 14.3 208 208 208
11.6 -29.3 14.4 208 208 208
12.0 -29.3 14.3 208 208 208
12.3 -29.3 14.4 208 208 208
12.6 -29.3 14.3 208 208 208
12.9 -29.3 14.3 208 208 208
13.3 -29.3 14.4 208 208 208
13.6 -29.3 14.4 205 205 205
14.0 -29.3 14.4 205 205 205
14.3 -29.3 14.3 205 205 205
14.6 -29.3 14.3 205 205 205
15.0 -29.3 14.3 202 202 202
15.3 -29.3 14.3 205 205 205
15.6 -29.3 14.3 205 205 205
16.0 -29.4 14.4 208 208 208
16.3 -29.3 14.4 208 208 208
16.6 -29.2 14.3 208 208 208
17.3 -29.4 14.4 208 208 208
17.5 -29.1 14.2 208 208 208
17.8 -29.1 14.2 208 208 208
41.3 -55.1 26.9 204 204 204
42.1 -55.3 27.1 202 202 202
42.2 -54.7 26.8 205 205 205
42.6 -54.4 26.6 205 205 205
42.7 -53.7 26.3 205 205 205
43.2 -53.6 26.2 205 205 205
61.5 -75.2 36.8 205 205 205
61.0 -73.7 36.0 206 206 206
61.4 -73.1 35.8 206 206 206
64.2 -75.4 36.9 206 206 206
71.0 -82.3 40.2 209 209 209
25.2 -26.8 13.1 205 205 205
25.6 -26.9 13.1 205 205 205
-16.3 -20.6 10.2 95 98 97
-16.2 -20.6 10.2 96 99 98
-14.8 -29.2 14.5 21 24 22
-14.4 -29.1 14.4 29 31 29
-13.8 -29.1 14.4 27 27 27
-11.1 -29.1 14.4 180 183 182
-10.8 -29.1 14.4 178 181 180
7.0 -29.1 14.4 205 205 205
11.0 -32.2 15.9 208 208 208
11.3 -31.9 15.8 208 208 208
11.0 -29.2 14.4 208 208 208
11.4 -29.2 14.5 208 208 208
12.8 -31.9 15.8 208 208 208
13.1 -31.8 15.8 208 208 208
13.5 -31.9 15.8 208 208 208
13.9 -31.9 15.8 207 207 207
14.4 -32.1 15.9 207 207 207
14.6 -31.9 15.8 209 209 209
15.1 -32.1 15.9 205 205 205
15.4 -31.9 15.8 205 205 205
15.8 -32.0 15.8 205 205 205
16.1 -31.9 15.8 207 207 207
15.1 -29.2 14.5 205 205 205
16.9 -32.1 15.9 207 207 207
17.3 -32.0 15.9 209 209 209
17.5 -31.9 15.8 207 207 207
18.0 -32.0 15.8 207 207 207
18.7 -31.9 15.8 207 207 207
22.2 -32.3 16.0 207 207 207
22.3 -31.9 15.8 207 207 207
22.7 -31.9 15.8 204 204 204
23.0 -31.8 15.8 207 207 207
42.5 -55.2 27.3 204 204 204
42.5 -54.4 26.9 204 204 204
43.0 -54.3 26.9 204 204 204
43.3 -53.9 26.7 205 205 205
43.3 -53.2 26.3 205 205 205
45.0 -54.4 26.9 205 205 205
62.6 -74.7 36.9 205 205 205
62.5 -73.5 36.4 205 205 205
64.3 -74.7 36.9 205 205 205
70.4 -80.7 39.9 206 206 206
25.8 -26.7 13.2 205 205 205
26.4 -27.1 13.4 205 205 205
-17.0 -33.8 16.9 27 27 27
-16.7 -34.1 17.1 26 26 26
7.1 -24.5 12.2 207 207 207
8.6 -24.6 12.3 207 207 207
11.4 -24.6 12.3 207 207 207
13.1 -24.6 12.3 204 204 204
23.1 -33.6 16.8 206 206 206
17.5 -24.7 12.4 206 206 206
42.7 -54.9 27.5 206 206 206
42.9 -54.4 27.2 200 200 200
43.4 -54.2 27.1 204 204 204
43.8 -53.9 27.0 204 204 204
43.4 -52.6 26.3 204 204 204
45.2 -54.1 27.1 204 204 204
46.5 -54.8 27.5 205 205 205
65.8 -75.6 37.8 205 205 205
70.8 -80.2 40.2 205 205 205
26.5 -26.9 13.4 204 204 204
26.8 -26.8 13.4 204 204 204
27.1 -26.8 13.4 202 202 202
27.5 -26.9 13.5 200 200 200
-34.6 -24.3 12.3 57 57 57
-34.3 -24.3 12.3 57 57 57
-34.1 -24.3 12.3 57 57 57
-33.7 -24.2 12.3 57 57 57
-33.4 -24.3 12.3 57 57 57
-33.2 -24.3 12.3 59 61 59
-32.9 -24.3 12.3 59 61 59
-32.6 -24.3 12.3 59 61 59
-32.4 -24.3 12.3 59 61 59
-32.1 -24.3 12.3 59 61 59
-31.8 -24.3 12.3 58 58 58
-31.3 -24.3 12.3 58 58 58
-31.0 -24.3 12.3 55 55 55
-30.4 -24.3 12.3 56 56 56
-30.1 -24.3 12.3 53 53 53
-29.2 -24.3 12.3 48 48 48
-28.9 -24.3 12.3 48 48 48
-28.7 -24.3 12.3 48 48 48
-28.4 -24.3 12.3 48 48 48
-28.1 -24.3 12.3 48 48 48
-27.8 -24.3 12.3 48 48 48
-27.5 -24.3 12.3 48 48 48
-27.2 -24.3 12.3 48 48 48
-27.0 -24.3 12.3 49 49 49
-26.7 -24.3 12.3 49 49 49
-26.4 -24.3 12.3 49 49 49
-26.1 -24.3 12.3 49 49 49
-25.8 -24.3 12.3 47 48 47
-25.5 -24.3 12.3 47 48 47
-27.5 -27.1 13.7 48 48 48
-23.2 -24.3 12.3 42 42 42
-23.0 -24.4 12.3 41 40 38
-22.7 -24.4 12.4 41 40 38
-22.5 -24.5 12.4 41 41 39
-22.1 -24.3 12.3 41 41 39
-21.7 -24.2 12.3 41 41 39
-21.5 -24.3 12.3 41 41 39
-21.1 -24.2 12.3 42 42 40
-20.9 -24.2 12.3 42 42 40
-20.6 -24.3 12.3 43 43 43
-20.4 -24.4 12.3 44 44 44
-20.1 -24.3 12.3 52 52 52
-19.7 -24.2 12.2 47 47 47
-19.5 -24.3 12.3 91 91 91
-19.2 -24.3 12.3 69 71 69
-19.0 -24.4 12.4 65 65 65
-18.6 -24.3 12.3 58 58 58
-18.3 -24.2 12.3 34 33 32
-18.0 -24.2 12.2 21 24 22
-15.0 -24.4 12.4 21 24 22
-14.6 -24.3 12.3 21 24 22
-14.3 -24.2 12.3 22 25 23
-10.9 -24.2 12.3 31 30 29
-10.5 -24.1 12.2 33 33 33
-10.3 -24.1 12.2 35 35 35
-10.1 -24.3 12.3 41 41 41
-9.5 -24.3 12.3 188 188 188
-9.2 -24.3 12.3 186 188 187
-8.9 -24.3 12.3 184 187 186
-8.6 -24.3 12.3 224 224 224
-8.3 -24.3 12.3 226 226 226
-8.0 -24.1 12.2 226 226 226
-4.6 -24.4 12.3 210 210 210
-4.3 -24.3 12.3 207 207 207
-4.0 -24.3 12.3 207 207 207
-3.8 -24.3 12.3 207 207 207
-3.5 -24.2 12.3 205 205 205
-3.2 -24.3 12.3 203 203 203
-2.9 -24.4 12.3 203 203 203
-2.6 -24.3 12.3 199 199 199
-2.3 -24.3 12.3 200 200 200
-2.0 -24.3 12.3 200 200 200
-1.8 -24.3 12.3 197 197 197
-1.5 -24.3 12.3 197 197 197
-1.2 -24.3 12.3 197 197 197
-0.9 -24.3 12.3 197 197 197
-0.6 -24.3 12.3 197 197 197
-0.3 -24.3 12.3 197 197 197
-0.0 -24.3 12.3 197 197 197
0.2 -24.3 12.3 197 197 197
0.5 -24.3 12.3 197 197 197
0.8 -24.3 12.3 194 194 194
1.1 -24.3 12.3 194 194 194
1.4 -24.3 12.3 192 192 192
1.7 -24.3 12.3 192 192 192
2.0 -24.3 12.3 192 192 192
2.3 -24.3 12.3 192 192 192
2.5 -24.3 12.3 189 189 189
2.8 -24.3 12.3 189 189 189
6.9 -24.5 12.4 207 207 207
7.1 -24.2 12.3 207 207 207
7.3 -24.1 12.2 207 207 207
7.7 -24.3 12.3 207 207 207
7.9 -24.2 12.3 207 207 207
8.3 -24.3 12.3 207 207 207
8.6 -24.3 12.3 207 207 207
8.8 -24.3 12.3 207 207 207
9.1 -24.3 12.3 207 207 207
9.4 -24.4 12.4 207 207 207
9.7 -24.3 12.3 207 207 207
9.9 -24.2 12.3 207 207 207
10.2 -24.2 12.3 206 206 206
10.5 -24.2 12.3 206 206 206
10.8 -24.3 12.3 206 206 206
11.1 -24.3 12.3 206 206 206
11.4 -24.3 12.3 206 206 206
11.7 -24.2 12.3 206 206 206
12.0 -24.3 12.3 206 206 206
12.2 -24.3 12.3 206 206 206
12.5 -24.3 12.3 206 206 206
12.8 -24.3 12.3 206 206 206
13.1 -24.3 12.3 206 206 206
13.4 -24.3 12.3 206 206 206
13.6 -24.2 12.3 206 206 206
14.0 -24.3 12.3 206 206 206
14.3 -24.3 12.3 206 206 206
14.6 -24.3 12.3 206 206 206
14.8 -24.3 12.3 206 206 206
15.1 -24.3 12.3 206 206 206
15.4 -24.3 12.3 206 206 206
15.7 -24.3 12.3 206 206 206
16.1 -24.4 12.4 206 206 206
16.3 -24.3 12.3 206 206 206
16.6 -24.3 12.3 206 206 206
16.9 -24.3 12.3 206 206 206
17.2 -24.4 12.4 206 206 206
17.5 -24.4 12.3 206 206 206
17.6 -24.1 12.2 206 206 206
18.0 -24.3 12.3 206 206 206
42.2 -54.4 27.5 206 206 206
42.7 -54.3 27.5 206 206 206
43.1 -54.0 27.3 203 203 203
43.6 -53.7 27.2 206 206 206
43.8 -53.2 26.9 206 206 206
43.3 -51.9 26.3 206 206 206
44.7 -52.8 26.8 204 204 204
46.4 -54.1 27.4 204 204 204
70.7 -79.1 40.1 204 204 204
26.5 -26.5 13.4 203 203 203
26.8 -26.5 13.4 204 204 204
27.5 -26.6 13.5 202 202 202
27.8 -26.5 13.4 173 173 173
-34.7 -24.0 12.3 58 58 58
-34.4 -24.0 12.3 58 58 58
-34.1 -24.0 12.3 60 62 60
-33.8 -24.0 12.3 58 58 58
-33.5 -24.0 12.3 60 62 60
-33.2 -24.0 12.3 60 62 60
-32.9 -24.0 12.3 60 62 60
-32.6 -24.0 12.3 60 62 60
-32.4 -24.0 12.3 63 63 63
-32.1 -24.0 12.3 63 63 63
-31.8 -24.0 12.3 60 62 60
-31.5 -24.0 12.3 58 59 59
-31.0 -24.0 12.3 56 56 56
-30.6 -24.0 12.3 56 56 56
-30.4 -24.0 12.3 56 56 56
-30.1 -24.0 12.3 54 54 54
-29.7 -24.0 12.3 52 52 50
-29.5 -24.0 12.3 52 52 50
-27.9 -24.1 12.3 53 52 51
-27.6 -24.1 12.3 49 49 49
-27.2 -24.0 12.3 50 50 50
-27.0 -24.1 12.3 50 50 50
-26.7 -24.0 12.3 50 50 50
-26.4 -24.0 12.3 50 50 50
-26.1 -24.0 12.3 48 48 48
-25.8 -24.1 12.3 50 50 50
-25.6 -24.1 12.3 50 50 50
-25.2 -24.0 12.3 51 51 51
-23.2 -24.0 12.3 42 43 42
-22.1 -24.0 12.3 42 42 40
-21.8 -24.0 12.3 44 44 44
-21.5 -24.0 12.3 43 42 41
-21.2 -24.0 12.3 43 42 41
-20.9 -24.0 12.3 43 42 41
-20.1 -24.0 12.3 41 41 41
-19.5 -24.0 12.3 35 35 35
-19.2 -24.0 12.3 21 24 22
-18.6 -24.0 12.3 19 19 19
-18.3 -24.0 12.3 21 24 22
-18.0 -24.0 12.3 21 21 21
-14.6 -24.0 12.3 27 27 27
-14.3 -24.0 12.3 27 27 27
-11.5 -24.0 12.3 30 31 30
-11.1 -23.9 12.2 32 31 30
-10.9 -24.1 12.3 32 31 30
-10.6 -24.0 12.3 34 34 34
-10.3 -23.9 12.3 35 37 36
-9.2 -24.0 12.3 184 187 186
-8.9 -24.0 12.3 183 186 185
-8.6 -24.0 12.3 227 230 229
-4.3 -24.1 12.3 212 214 214
-4.0 -24.0 12.3 212 214 214
-3.5 -24.0 12.3 208 208 208
-2.6 -24.0 12.3 206 206 206
-2.3 -24.0 12.3 204 204 204
-2.0 -24.0 12.3 202 202 202
-1.8 -24.0 12.3 202 202 202
-1.5 -24.0 12.3 199 199 199
-1.2 -24.0 12.3 199 199 199
-0.6 -24.0 12.3 199 199 199
-0.3 -24.0 12.3 199 199 199
-0.0 -24.0 12.3 199 199 199
0.2 -24.0 12.3 199 199 199
1.1 -24.0 12.3 196 196 196
1.4 -24.0 12.3 196 196 196
1.7 -24.0 12.3 193 193 193
2.0 -24.0 12.3 193 193 193
2.3 -24.0 12.3 191 191 191
2.5 -24.0 12.3 191 191 191
2.8 -24.0 12.3 191 191 191
3.1 -24.0 12.3 189 189 189
3.7 -24.0 12.3 185 185 185
4.0 -24.0 12.3 185 185 185
7.1 -24.0 12.3 206 206 206
7.4 -23.9 12.3 206 206 206
7.7 -24.0 12.3 206 206 206
8.0 -24.0 12.3 206 206 206
8.3 -24.1 12.3 206 206 206
8.6 -24.0 12.3 206 206 206
8.8 -24.0 12.3 206 206 206
9.1 -24.0 12.3 206 206 206
9.5 -24.2 12.4 206 206 206
9.7 -24.1 12.3 206 206 206
10.0 -24.0 12.3 206 206 206
10.3 -24.0 12.3 206 206 206
10.6 -24.0 12.3 206 206 206
10.8 -24.0 12.3 206 206 206
11.1 -24.1 12.3 206 206 206
11.4 -24.1 12.3 206 206 206
11.7 -24.0 12.3 206 206 206
12.0 -24.0 12.3 206 206 206
12.3 -24.0 12.3 206 206 206
12.6 -24.0 12.3 206 206 206
12.9 -24.1 12.3 206 206 206
13.1 -24.1 12.3 206 206 206
13.4 -24.0 12.3 206 206 206
13.7 -24.0 12.3 206 206 206
14.0 -24.0 12.3 206 206 206
14.3 -24.0 12.3 206 206 206
14.6 -24.1 12.3 206 206 206
14.9 -24.0 12.3 206 206 206
15.1 -24.0 12.3 206 206 206
15.4 -24.0 12.3 205 205 205
15.7 -24.1 12.3 205 205 205
16.1 -24.2 12.4 205 205 205
16.3 -24.0 12.3 205 205 205
16.6 -24.1 12.3 205 205 205
16.9 -24.0 12.3 205 205 205
17.3 -24.3 12.4 205 205 205
17.5 -24.1 12.3 205 205 205
17.7 -24.0 12.3 205 205 205
18.0 -24.0 12.3 205 205 205
18.3 -24.1 12.3 205 205 205
42.5 -53.3 27.3 205 205 205
43.1 -53.3 27.3 205 205 205
43.6 -53.1 27.2 206 206 206
43.6 -52.4 26.9 206 206 206
43.3 -51.3 26.3 206 206 206
44.5 -52.0 26.6 206 206 206
46.1 -53.1 27.2 203 203 203
47.1 -53.5 27.4 204 204 204
26.7 -26.1 13.4 203 203 203
26.8 -25.9 13.3 203 203 203
27.4 -26.1 13.4 203 203 203
27.7 -26.2 13.4 162 165 164
-34.9 -23.9 12.4 58 59 59
-33.4 -24.0 12.5 61 63 61
-27.8 -24.0 12.5 54 53 52
-25.5 -24.0 12.5 50 50 50
-23.6 -24.8 12.8 43 42 41
-23.0 -24.4 12.7 43 42 41
-22.3 -24.0 12.4 43 42 41
-21.8 -23.8 12.3 43 42 41
-21.7 -23.9 12.4 41 41 41
-21.3 -23.8 12.4 41 41 41
-12.8 -25.1 13.0 31 32 30
-11.1 -24.2 12.6 32 31 30
-10.7 -23.9 12.4 34 34 34
-10.3 -23.7 12.3 36 38 37
-9.3 -24.0 12.5 184 187 186
-9.0 -24.0 12.4 182 185 184
7.1 -23.8 12.4 206 206 206
7.4 -23.7 12.3 206 206 206
7.7 -23.8 12.3 206 206 206
8.9 -23.8 12.4 206 206 206
9.8 -24.0 12.4 205 205 205
10.0 -23.9 12.4 205 205 205
11.5 -24.0 12.5 205 205 205
11.8 -23.9 12.4 205 205 205
12.6 -23.9 12.4 205 205 205
13.0 -24.0 12.4 205 205 205
13.2 -23.9 12.4 205 205 205
13.5 -23.9 12.4 205 205 205
13.7 -23.8 12.4 205 205 205
14.1 -23.9 12.4 205 205 205
14.4 -23.9 12.4 205 205 205
15.0 -23.9 12.4 205 205 205
16.2 -24.0 12.4 205 205 205
16.4 -23.9 12.4 205 205 205
16.7 -24.0 12.4 205 205 205
17.0 -23.9 12.4 205 205 205
17.6 -24.0 12.4 205 205 205
17.7 -23.7 12.3 205 205 205
42.6 -52.8 27.4 205 205 205
44.1 -53.1 27.5 205 205 205
44.3 -52.5 27.3 205 205 205
44.0 -51.4 26.7 205 205 205
44.9 -51.8 26.9 206 206 206
46.3 -52.7 27.3 206 206 206
47.2 -53.0 27.5 206 206 206
27.0 -26.1 13.5 202 202 202
27.1 -25.9 13.4 203 203 203
27.9 -26.0 13.5 162 165 164
-29.0 -24.5 12.9 55 54 53
-28.7 -24.4 12.8 55 54 53
-26.3 -25.0 13.1 51 51 51
-24.1 -24.9 13.1 45 45 45
-23.1 -24.3 12.7 44 43 42
-22.4 -23.8 12.5 44 43 42
-22.0 -23.7 12.5 45 44 43
-22.4 -24.4 12.8 40 42 42
-12.8 -25.0 13.1 28 28 28
-11.3 -24.3 12.8 30 31 30
-10.8 -23.9 12.5 27 27 27
-10.4 -23.7 12.4 34 34 34
-10.7 -24.9 13.1 42 42 42
22.0 -29.6 15.6 204 204 204
44.5 -52.1 27.4 205 205 205
44.2 -51.1 26.8 205 205 205
44.9 -51.2 26.9 205 205 205
46.2 -52.0 27.3 205 205 205
47.3 -52.5 27.6 205 205 205
23.3 -21.0 11.0 184 184 184
23.6 -20.8 10.9 188 188 188
-37.3 -25.0 13.3 62 64 61
-31.0 -25.0 13.3 56 55 54
-30.5 -24.9 13.3 56 55 54
-30.1 -24.8 13.2 56 55 54
-29.6 -24.7 13.1 56 55 54
-26.6 -25.0 13.3 49 49 49
-24.1 -24.7 13.1 46 46 46
-23.5 -24.4 13.0 47 47 47
-12.9 -24.9 13.2 40 42 42
-12.8 -25.2 13.4 43 42 41
-11.5 -24.5 13.0 57 57 57
-11.1 -24.1 12.8 66 68 67
-10.7 -24.7 13.1 50 50 50
-10.3 -24.5 13.0 186 188 187
44.4 -51.4 27.3 204 204 204
44.2 -50.5 26.8 204 204 204
44.9 -50.6 26.9 204 204 204
46.1 -51.2 27.2 205 205 205
47.2 -51.7 27.5 205 205 205
23.4 -20.8 11.1 183 183 183
23.3 -20.6 10.9 186 186 186
-37.3 -24.6 13.2 66 66 66
-37.0 -24.6 13.2 66 66 66
-36.7 -24.6 13.3 66 66 66
-36.4 -24.7 13.3 66 66 66
-31.4 -24.6 13.2 56 55 54
-31.3 -24.7 13.3 58 58 58
-30.9 -24.6 13.3 57 56 55
-30.6 -24.6 13.3 57 56 55
-30.1 -24.5 13.2 60 60 60
-29.7 -24.4 13.2 58 59 59
-29.4 -24.4 13.2 58 59 59
-28.0 -24.5 13.2 54 54 54
-26.8 -24.9 13.4 53 53 53
-26.1 -24.5 13.2 53 53 53
-24.2 -24.4 13.2 47 48 47
-23.7 -24.3 13.1 47 48 47
-12.9 -24.6 13.2 87 87 85
-12.7 -24.7 13.3 54 54 54
-11.6 -24.3 13.1 33 33 31
-11.1 -24.5 13.2 30 31 30
-10.7 -24.4 13.2 47 47 47
-10.4 -24.3 13.1 184 187 186
44.0 -51.0 27.5 203 203 203
44.0 -50.4 27.1 206 206 206
44.9 -49.9 26.9 200 200 200
45.5 -49.9 26.9 200 200 200
46.9 -50.8 27.3 204 204 204
48.0 -51.2 27.6 204 204 204
23.4 -20.4 11.0 186 186 186
24.0 -20.5 11.0 186 186 186
-37.1 -24.2 13.2 66 66 66
-36.8 -24.2 13.2 67 67 67
-36.4 -24.1 13.2 67 67 67
-36.1 -24.2 13.2 67 67 67
-35.8 -24.1 13.2 67 67 67
-35.5 -24.1 13.1 67 67 67
-35.2 -24.1 13.1 67 67 67
-34.9 -24.2 13.2 67 67 67
-34.6 -24.2 13.2 67 67 67
-31.5 -24.1 13.2 58 59 59
-31.2 -24.1 13.2 58 59 59
-31.0 -24.2 13.2 58 59 59
-30.7 -24.2 13.2 57 57 55
-30.3 -24.2 13.2 57 57 55
-30.0 -24.1 13.2 59 59 59
-29.7 -24.1 13.1 57 57 55
-29.4 -24.1 13.1 57 57 55
-28.2 -24.1 13.2 54 54 54
-27.9 -24.1 13.2 55 55 55
-27.6 -24.1 13.2 55 55 55
-26.9 -24.3 13.3 54 54 54
-26.4 -24.2 13.2 56 56 56
-26.0 -24.1 13.1 54 54 54
-25.7 -24.1 13.2 52 52 52
-23.8 -24.0 13.1 51 51 51
-13.3 -24.3 13.2 84 83 81
-12.9 -24.2 13.2 9 14 10
-12.6 -24.2 13.2 39 39 39
-11.6 -24.0 13.1 46 46 46
-11.2 -23.7 12.9 85 85 85
-11.0 -24.1 13.1 30 31 30
-10.7 -24.1 13.2 50 50 50
-10.4 -24.0 13.1 183 183 183
-10.1 -24.0 13.1 182 182 182
44.8 -49.2 26.8 206 206 206
45.2 -49.0 26.7 206 206 206
46.2 -49.4 26.9 206 206 206
47.6 -50.2 27.3 204 204 204
23.9 -20.1 11.0 185 185 185
24.1 -20.1 10.9 185 185 185
-37.3 -24.0 13.2 67 67 67
-37.0 -24.0 13.2 67 67 67
-36.7 -24.0 13.2 67 67 67
-36.4 -24.0 13.2 67 67 67
-36.0 -24.0 13.2 67 67 67
-30.9 -24.0 13.3 58 58 56
-30.5 -24.0 13.3 58 58 56
-30.2 -24.0 13.2 58 58 56
-29.8 -23.9 13.2 58 58 56
-28.4 -24.0 13.2 56 56 56
-28.0 -24.0 13.2 56 56 56
-27.0 -24.1 13.3 57 57 57
-26.6 -24.1 13.3 57 57 57
-26.2 -24.0 13.2 55 55 55
-25.9 -24.0 13.2 53 52 52
-13.3 -24.1 13.3 95 95 95
-13.0 -24.0 13.2 13 17 14
-12.7 -24.0 13.3 133 133 133
-11.6 -23.8 13.1 87 87 87
-11.1 -23.9 13.2 48 48 48
-10.8 -23.9 13.2 59 59 59
-10.4 -23.8 13.1 182 185 184
-10.1 -23.8 13.1 181 184 183
23.7 -19.9 11.0 184 184 184
-37.6 -23.9 13.3 65 66 64
-37.3 -23.9 13.4 67 67 67
-37.0 -23.9 13.4 67 67 67
-36.7 -23.9 13.4 67 67 67
-30.8 -23.9 13.4 59 59 57
-30.5 -23.9 13.4 59 59 57
-28.3 -23.9 13.4 57 57 57
-27.2 -24.0 13.4 58 58 58
-26.8 -24.0 13.4 58 58 58
-26.4 -23.9 13.3 57 57 57
-13.4 -24.0 13.4 129 129 129
-13.1 -23.8 13.3 33 35 33
-12.8 -23.9 13.4 126 129 128
-11.7 -23.6 13.2 36 37 36
-10.4 -23.6 13.2 182 185 184
-10.2 -23.6 13.2 180 183 182
45.1 -47.6 26.6 205 205 205
45.1 -47.0 26.3 205 205 205
23.8 -19.7 11.0 183 183 183
23.9 -19.6 11.0 183 183 183
1501.1 -704.8 394.1 111 113 112
-27.8 -24.3 13.7 58 59 59
-27.3 -24.1 13.7 59 59 59
-26.9 -24.0 13.6 58 58 58
-13.2 -23.8 13.5 39 39 39
-12.9 -23.8 13.5 87 86 84
-11.3 -23.7 13.4 45 45 45
-10.9 -23.7 13.4 57 57 57
-10.6 -23.5 13.3 181 184 183
-10.7 -24.6 13.9 179 182 181
-10.4 -24.5 13.9 178 181 180
-10.0 -24.4 13.8 177 180 179
43.2 -47.6 27.0 204 204 204
42.7 -46.4 26.3 204 204 204
42.6 -45.7 25.9 204 204 204
45.0 -47.5 26.9 205 205 205
45.6 -47.6 26.9 205 205 205
45.7 -47.0 26.6 205 205 205
46.9 -47.6 26.9 205 205 205
48.4 -48.5 27.5 205 205 205
45.5 -44.9 25.5 205 205 205
-27.8 -24.2 13.9 58 59 59
-10.9 -24.6 14.1 179 182 181
-10.5 -24.5 14.1 179 182 181
-10.1 -24.4 14.0 176 179 178
43.6 -46.8 26.9 207 207 207
46.2 -47.5 27.3 207 207 207
46.9 -47.5 27.3 207 207 207
48.2 -48.2 27.7 204 204 204
49.3 -48.7 28.0 205 205 205
47.7 -46.5 26.7 205 205 205
1108.5 -507.0 291.0 111 113 112
-16.5 -17.7 10.3 36 38 36
-16.3 -17.6 10.3 25 29 26
-14.3 -18.5 10.7 59 59 59
-13.9 -18.3 10.7 137 139 138
-12.9 -17.6 10.3 40 41 39
-11.0 -24.6 14.3 178 181 180
-10.6 -24.5 14.3 178 181 180
-10.3 -24.6 14.3 183 183 183
8.3 -17.2 10.0 207 207 207
44.0 -46.5 27.1 206 206 206
47.1 -47.1 27.4 207 207 207
1108.5 -500.2 291.0 112 114 113
-14.4 -18.1 10.7 94 94 94
-13.9 -18.1 10.7 113 114 113
-13.4 -17.7 10.4 125 125 125
-12.9 -17.4 10.3 36 37 36
-10.8 -24.4 14.4 178 181 180
-11.1 -26.1 15.4 183 183 183
-10.6 -25.7 15.1 189 189 189
10.8 -17.2 10.1 206 206 206
13.4 -17.2 10.1 206 206 206
13.5 -17.0 10.0 206 206 206
13.7 -17.0 10.0 206 206 206
14.1 -17.2 10.1 206 206 206
47.2 -46.6 27.5 207 207 207
48.5 -44.3 26.1 207 207 207
119.3 -71.4 42.1 189 189 189
900.6 -400.9 236.5 117 119 118
-16.0 -17.7 10.6 40 39 38
-14.0 -18.0 10.7 80 82 79
-12.1 -25.4 15.2 182 185 184
-11.3 -26.0 15.6 178 181 180
-10.7 -25.7 15.3 168 170 169
43.7 -45.6 27.3 206 209 208
43.8 -45.1 26.9 207 210 209
46.9 -45.7 27.3 207 210 209
59.1 -56.8 34.0 206 206 206
57.9 -54.9 32.8 207 207 207
57.5 -53.8 32.2 207 207 207
48.4 -43.6 26.1 207 207 207
48.6 -43.2 25.8 207 207 207
48.7 -42.8 25.6 207 207 207
132.2 -78.7 47.1 190 190 190
120.1 -70.9 42.4 191 191 191
102.9 -60.3 36.0 190 190 190
-5.8 -17.0 10.3 178 178 178
43.6 -44.9 27.2 206 209 208
43.6 -44.3 26.9 206 209 208
46.5 -45.3 27.5 207 210 209
46.8 -44.9 27.3 207 210 209
60.2 -57.0 34.6 207 210 209
58.9 -55.1 33.4 207 210 209
58.8 -54.2 32.9 206 206 206
48.4 -43.0 26.1 207 207 207
48.4 -42.5 25.8 207 207 207
48.5 -42.0 25.5 207 207 207
132.5 -77.8 47.2 191 191 191
115.7 -67.4 40.9 192 192 192
102.7 -59.3 36.0 193 193 193
82.7 -39.7 24.1 177 177 177
51.7 -23.2 14.1 158 158 158
51.4 -22.9 13.9 151 151 151
-11.7 -26.3 16.2 176 176 176
-11.4 -26.6 16.3 156 159 158
62.6 -58.5 36.0 207 210 209
62.8 -57.9 35.6 207 210 209
60.4 -54.9 33.8 207 210 209
58.8 -52.8 32.5 207 210 209
48.5 -42.0 25.8 207 207 207
48.4 -41.4 25.5 207 207 207
132.2 -76.5 47.1 195 195 195
102.5 -58.4 35.9 193 193 193
82.7 -39.1 24.1 181 181 181
53.5 -23.8 14.7 165 168 167
51.8 -23.0 14.1 159 159 159
51.4 -22.6 13.9 152 152 152
-11.6 -25.7 16.1 179 179 179
-11.4 -26.0 16.2 158 161 160
-10.9 -25.9 16.1 156 159 158
64.2 -59.1 36.9 206 209 208
64.8 -58.9 36.7 207 210 209
62.4 -55.9 34.9 207 210 209
49.5 -42.8 26.7 207 210 209
49.1 -41.9 26.1 207 210 209
76.7 -36.3 22.6 182 182 182
77.6 -36.4 22.7 182 182 182
82.4 -38.4 24.0 182 182 182
80.2 -37.1 23.2 182 182 182
53.7 -23.6 14.7 166 169 168
52.1 -22.7 14.2 161 161 161
51.7 -22.4 14.0 154 154 154
-11.9 -25.9 16.4 178 178 178
-11.4 -25.8 16.3 168 168 168
-11.0 -25.7 16.3 163 163 163
68.9 -61.7 39.1 206 209 208
63.7 -56.3 35.6 206 209 208
50.5 -43.0 27.2 207 210 209
49.5 -41.6 26.3 207 210 209
40.9 -30.6 19.4 188 188 188
102.7 -56.8 36.0 194 194 194
75.1 -35.2 22.3 184 187 186
76.2 -35.5 22.5 183 183 183
76.7 -35.5 22.5 183 183 183
82.5 -37.9 24.0 184 187 186
79.8 -36.4 23.1 183 183 183
55.5 -24.2 15.3 175 175 175
54.3 -23.5 14.9 168 170 169
52.5 -22.6 14.3 164 164 164
-14.2 -16.6 10.7 67 67 65
-13.4 -16.2 10.4 39 38 37
-12.9 -26.9 17.3 188 188 188
-12.3 -26.4 17.0 180 180 180
-11.6 -25.7 16.5 173 173 173
70.9 -63.4 40.8 206 209 208
69.5 -61.3 39.4 206 209 208
64.6 -56.3 36.2 206 209 208
50.7 -42.5 27.3 207 210 209
49.5 -40.9 26.3 207 210 209
40.9 -30.1 19.4 188 188 188
41.2 -30.0 19.3 188 188 188
105.5 -57.5 36.9 198 198 198
75.7 -34.8 22.3 184 184 184
82.7 -37.4 24.1 184 184 184
79.9 -35.9 23.1 184 184 184
77.4 -34.6 22.2 184 184 184
54.7 -23.4 15.0 169 171 170
-16.5 -16.4 10.7 22 25 23
-14.3 -16.5 10.7 30 30 30
-13.9 -16.3 10.7 35 36 34
-13.4 -16.0 10.4 35 36 34
-12.4 -26.2 17.1 183 183 183
-11.8 -25.9 16.9 174 174 174
-12.2 -27.7 18.1 168 168 168
69.5 -60.4 39.4 205 208 207
66.5 -57.1 37.2 206 209 208
49.7 -40.6 26.5 207 210 209
40.4 -29.3 19.1 183 183 183
40.6 -29.1 19.0 186 186 186
40.4 -28.7 18.7 189 189 189
40.7 -28.6 18.7 189 189 189
75.7 -34.2 22.3 185 185 185
75.3 -33.8 22.0 185 185 185
82.8 -36.9 24.1 185 185 185
80.2 -35.5 23.2 185 185 185
78.3 -34.4 22.5 185 185 185
57.6 -24.4 15.9 173 175 175
-16.5 -16.3 10.8 30 29 29
-14.4 -16.1 10.7 30 30 30
-14.4 -16.4 10.8 34 36 34
-13.9 -16.1 10.7 34 36 34
-13.4 -15.8 10.5 34 36 34
-12.8 -15.3 10.2 33 33 33
82.9 -71.9 47.6 205 208 207
70.2 -60.1 39.8 205 208 207
67.3 -56.9 37.7 205 208 207
583.1 -446.2 295.6 207 210 209
41.4 -29.3 19.4 189 189 189
40.6 -28.4 18.8 189 189 189
76.5 -34.1 22.6 186 186 186
82.7 -36.3 24.1 186 186 186
80.5 -35.1 23.3 184 184 184
78.5 -34.0 22.5 186 186 186
60.5 -25.4 16.8 181 181 181
61.1 -25.1 16.7 160 163 162
61.5 -25.1 16.7 155 155 155
-25.0 -15.0 10.1 29 31 29
-27.1 -16.6 11.2 39 39 39
-16.3 -15.3 10.3 30 30 30
-14.4 -15.8 10.7 33 35 33
-13.8 -15.8 10.6 41 41 41
-13.4 -15.5 10.4 34 36 34
-12.9 -15.2 10.2 34 36 34
-13.8 -30.3 20.4 176 176 176
261.9 -226.7 152.6 207 210 209
635.8 -484.8 326.1 209 212 211
583.1 -439.3 295.6 210 213 212
41.5 -28.9 19.4 191 191 191
75.9 -33.3 22.4 188 188 188
75.7 -33.0 22.2 185 185 185
80.5 -34.6 23.3 185 185 185
78.3 -33.4 22.5 185 185 185
61.5 -25.1 16.9 169 169 169
61.6 -25.0 16.8 161 161 161
62.1 -25.0 16.8 155 155 155
-14.0 -30.2 20.6 175 175 175
266.2 -226.9 155.1 207 210 209
269.8 -226.9 155.1 207 210 209
737.5 -553.5 378.3 209 212 211
565.4 -419.3 286.6 210 213 212
434.0 -318.1 217.4 210 213 212
78.6 -33.0 22.6 186 186 186
78.1 -32.6 22.3 189 189 189
76.8 -31.8 21.7 186 186 186
61.8 -24.6 16.8 160 160 160
62.1 -24.6 16.8 156 156 156
62.6 -24.6 16.8 149 151 151
-14.5 -15.5 10.8 89 90 88
-14.0 -15.2 10.6 8 9 8
-13.7 -15.2 10.5 22 25 23
-14.0 -29.9 20.7 174 174 174
253.8 -212.8 147.8 207 210 209
267.6 -221.4 153.8 207 210 209
271.2 -221.4 153.8 204 207 206
274.8 -221.4 153.8 207 210 209
290.2 -230.8 160.3 208 211 210
611.8 -446.5 310.1 209 212 211
352.9 -254.5 176.8 210 213 212
321.0 -228.9 159.0 210 213 212
78.2 -32.3 22.4 190 190 190
78.2 -32.1 22.3 188 188 188
77.3 -31.5 21.9 188 188 188
62.3 -24.4 17.0 160 160 160
62.4 -24.3 16.9 157 157 157
62.6 -24.3 16.9 151 153 153
-25.8 -14.9 10.6 183 183 183
-15.0 -14.9 10.6 117 119 118
-14.3 -14.7 10.4 94 94 94
-14.3 -15.0 10.6 30 30 30
-13.9 -14.8 10.5 32 33 31
-13.6 -14.7 10.4 112 111 110
-13.5 -14.9 10.6 148 150 150
-13.3 -14.9 10.6 60 60 60
-13.0 -14.9 10.6 42 42 42
-12.8 -14.9 10.6 74 74 74
-14.1 -29.5 20.8 159 159 159
220.9 -166.4 117.5 208 211 210
202.2 -150.5 106.3 208 211 210
401.7 -285.1 201.2 209 212 211
75.8 -31.7 22.4 193 196 195
78.2 -31.8 22.4 191 191 191
78.5 -31.7 22.4 191 191 191
78.6 -31.5 22.3 189 189 189
62.9 -24.3 17.1 160 160 160
62.9 -24.1 17.0 153 155 155
62.8 -23.9 16.9 150 150 150
-25.6 -14.5 10.4 156 156 156
-25.4 -14.5 10.4 178 178 178
-25.1 -14.5 10.4 180 180 180
-24.9 -14.5 10.4 134 136 135
-24.6 -14.5 10.4 106 106 106
-24.4 -14.4 10.4 205 205 205
-23.7 -14.5 10.4 39 41 41
-23.5 -14.5 10.4 132 135 134
-14.8 -14.5 10.4 100 99 97
-14.5 -14.5 10.4 71 71 71
-14.3 -14.5 10.4 32 33 31
-13.8 -14.5 10.4 84 84 84
-13.5 -14.4 10.4 59 59 59
-13.3 -14.5 10.4 30 29 29
-13.1 -14.5 10.4 32 33 31
-12.8 -14.5 10.4 43 43 43
-12.6 -14.5 10.4 69 69 69
-12.3 -14.5 10.4 40 40 40
-14.8 -30.4 21.8 182 185 184
-14.4 -30.6 22.0 174 174 174
-14.0 -30.9 22.2 114 113 112
15.0 -14.0 10.1 208 208 208
161.6 -119.8 86.0 208 211 210
171.4 -125.5 90.1 208 211 210
166.4 -120.4 86.4 208 211 210
163.9 -117.1 84.1 214 214 214
76.0 -31.2 22.4 194 197 196
74.7 -30.5 21.9 194 197 196
78.2 -31.5 22.6 192 192 192
78.5 -31.4 22.5 192 192 192
78.6 -31.2 22.4 192 192 192
78.7 -31.1 22.3 190 190 190
79.8 -31.3 22.5 190 190 190
79.7 -31.0 22.3 188 188 188
63.2 -23.8 17.1 151 151 151
63.1 -23.7 17.0 144 146 146
63.4 -23.6 17.0 144 146 146
-14.9 -31.2 22.8 180 180 180
-14.4 -31.3 22.9 160 160 160
632.5 -439.3 320.6 209 212 211
77.1 -31.2 22.7 195 198 197
75.1 -30.1 22.0 195 198 197
79.7 -31.6 23.0 195 198 197
79.2 -31.2 22.7 193 193 193
79.7 -31.2 22.7 193 193 193
81.4 -31.4 22.9 189 189 189
81.3 -31.2 22.7 185 185 185
63.8 -23.7 17.3 148 150 150
63.9 -23.6 17.2 139 141 140
64.2 -23.5 17.2 132 135 134
-16.2 -32.3 24.0 182 182 182
-15.8 -32.6 24.2 172 174 174
-15.5 -33.1 24.6 179 179 179
15.1 -14.1 10.5 204 207 206
15.3 -14.1 10.4 203 205 205
190.6 -88.5 65.7 204 204 204
79.7 -31.9 23.7 195 198 197
81.7 -31.8 23.6 194 194 194
80.8 -31.2 23.2 194 194 194
81.0 -31.1 23.1 192 192 192
84.0 -31.8 23.6 190 190 190
83.9 -31.6 23.5 186 186 186
84.1 -31.5 23.4 175 175 175
-16.5 -33.4 25.2 175 177 177
-16.4 -34.5 26.1 157 157 157
-15.8 -34.3 25.9 31 31 31
13.0 -13.7 10.4 205 208 207
15.1 -13.9 10.5 208 208 208
15.3 -13.8 10.4 207 207 207
269.4 -189.7 143.3 207 210 209
192.0 -87.5 66.1 189 191 191
171.9 -77.8 58.7 190 192 192
80.5 -31.7 23.9 186 186 186
83.2 -31.8 24.0 188 188 188
82.4 -31.3 23.6 188 188 188
86.1 -31.9 24.1 176 176 176
86.2 -31.7 23.9 168 168 168
86.9 -31.7 24.0 160 163 162
75.0 -26.2 19.8 134 134 134
-18.2 -34.9 26.9 154 156 156
-17.3 -34.4 26.4 91 93 92
-17.0 -35.0 26.9 89 91 90
-16.3 -34.9 26.9 55 55 55
12.4 -13.1 10.1 209 209 209
12.9 -13.4 10.3 209 209 209
13.0 -13.2 10.2 209 209 209
13.1 -13.1 10.1 209 209 209
13.8 -13.1 10.1 208 208 208
14.3 -13.1 10.1 208 208 208
15.3 -13.6 10.5 207 207 207
15.1 -13.2 10.1 210 210 210
15.7 -13.2 10.1 207 207 207
541.9 -384.3 295.6 210 210 210
385.9 -270.3 207.9 211 211 211
282.2 -195.2 150.1 207 210 209
654.7 -431.5 331.9 212 213 212
434.0 -282.7 217.4 214 214 214
321.0 -206.7 159.0 209 212 211
172.9 -76.9 59.1 191 194 193
88.3 -31.9 24.5 149 149 149
88.7 -31.8 24.5 140 142 141
73.8 -25.8 19.8 134 134 134
74.8 -26.0 20.0 133 133 133
75.7 -26.2 20.1 133 133 133
75.8 -26.0 20.0 133 133 133
-26.2 -14.2 11.2 29 31 29
-25.2 -14.3 11.2 161 161 161
-24.9 -14.2 11.1 188 188 188
-18.7 -35.3 27.6 133 133 133
-17.8 -34.9 27.3 88 88 88
-17.4 -35.2 27.5 89 89 89
-16.7 -35.2 27.6 57 58 56
12.9 -13.1 10.3 209 209 209
13.0 -13.1 10.2 209 209 209
13.2 -12.9 10.1 208 208 208
13.2 -12.8 10.0 208 208 208
13.5 -12.8 10.0 208 208 208
13.7 -12.8 10.0 208 208 208
14.3 -12.9 10.1 207 207 207
15.4 -13.6 10.7 207 207 207
15.1 -13.0 10.2 207 207 207
15.7 -12.9 10.1 209 209 209
654.3 -455.8 356.9 210 210 210
474.6 -326.5 255.6 211 211 211
306.5 -208.3 163.1 211 211 211
731.7 -473.7 370.9 212 213 212
472.0 -302.0 236.5 212 213 212
321.0 -203.0 159.0 214 214 214
91.0 -32.1 25.1 131 134 133
74.9 -25.6 20.0 129 129 129
75.9 -25.8 20.2 129 129 129
75.5 -25.5 19.9 129 129 129
-30.4 -15.9 12.7 36 37 36
-25.9 -14.4 11.5 155 155 155
-18.9 -14.5 11.6 40 42 42
-18.4 -16.0 12.7 75 77 75
-18.0 -15.8 12.6 34 34 34
-19.5 -36.0 28.7 128 131 130
-18.5 -35.5 28.3 91 93 92
-17.7 -35.3 28.1 89 89 89
12.9 -12.9 10.3 209 209 209
13.0 -12.8 10.2 208 208 208
13.0 -12.6 10.0 208 208 208
13.7 -12.5 10.0 207 207 207
14.3 -12.7 10.1 207 207 207
15.1 -13.0 10.4 206 206 206
15.2 -12.8 10.2 206 206 206
16.8 -13.7 10.9 209 209 209
15.8 -12.7 10.1 209 209 209
462.1 -312.1 248.9 210 210 210
317.5 -211.8 168.9 211 211 211
691.1 -439.2 350.3 212 213 212
466.1 -292.8 233.5 212 213 212
344.1 -213.7 170.4 214 214 214
50.8 -17.5 13.9 120 120 120
51.0 -17.4 13.9 120 120 120
-31.6 -16.1 13.0 57 57 57
-31.4 -16.1 13.1 29 31 29
-31.1 -16.1 13.1 29 31 29
-30.3 -16.2 13.1 17 21 18
-29.6 -16.2 13.1 149 151 151
-24.5 -16.2 13.1 25 25 25
-22.9 -16.1 13.1 53 53 53
-21.7 -16.1 13.1 47 48 47
-21.4 -16.1 13.1 39 39 39
-20.1 -16.1 13.0 6 11 7
-19.7 -16.0 13.0 27 29 27
-19.3 -16.2 13.2 66 66 66
-18.9 -16.1 13.1 42 42 42
-18.2 -16.1 13.0 40 42 42
-19.9 -36.1 29.4 141 141 141
-18.8 -35.4 28.7 91 94 93
-17.9 -35.0 28.4 91 93 92
-17.6 -35.6 28.9 81 84 83
456.1 -302.3 245.7 210 210 210
320.3 -209.7 170.4 210 210 210
276.9 -179.1 145.5 215 215 215
583.1 -363.7 295.6 212 213 212
393.3 -242.5 197.0 212 213 212
350.4 -213.6 173.5 216 216 216
316.7 -190.8 155.1 214 214 214
51.1 -17.2 14.0 112 112 112
-31.7 -16.1 13.4 29 31 29
-30.0 -16.0 13.3 124 124 124
-29.7 -16.0 13.3 148 150 150
-24.4 -16.0 13.3 44 44 44
-24.1 -16.0 13.3 53 53 53
-23.7 -16.0 13.2 56 55 54
-23.4 -16.0 13.2 56 55 54
-23.1 -16.0 13.2 53 53 53
-21.9 -16.0 13.3 44 43 42
-21.5 -15.9 13.2 38 38 38
-21.2 -15.9 13.2 26 26 26
-20.7 -16.0 13.3 85 87 87
-20.4 -16.0 13.3 25 25 25
-20.0 -16.0 13.2 27 29 27
-19.7 -16.2 13.4 26 26 26
-19.0 -15.9 13.2 39 41 41
-19.2 -35.4 29.3 94 94 94
-18.1 -34.7 28.7 94 94 94
-17.9 -35.7 29.6 65 65 65
355.6 -228.4 189.2 214 214 214
601.9 -368.4 305.1 216 216 216
406.3 -243.0 201.2 212 213 212
51.3 -17.0 14.1 108 108 108
51.6 -17.0 14.1 107 107 107
-32.5 -15.9 13.4 66 66 66
-32.2 -15.9 13.5 35 35 35
-32.0 -16.0 13.5 27 27 27
-31.0 -15.9 13.5 24 24 24
-30.7 -15.9 13.5 24 24 24
-30.4 -15.9 13.5 115 114 114
-30.1 -15.9 13.5 148 150 150
-29.8 -16.0 13.5 147 147 147
-29.5 -16.0 13.5 147 147 147
-29.3 -16.0 13.6 154 154 154
-29.0 -16.0 13.5 151 153 153
-24.7 -15.9 13.4 45 45 45
-24.4 -15.9 13.4 53 53 53
-23.9 -16.0 13.5 56 55 54
-23.5 -16.0 13.5 53 53 53
-23.1 -15.9 13.4 53 53 53
-21.8 -15.8 13.4 39 41 41
-21.4 -16.0 13.5 33 33 33
-21.0 -15.9 13.5 84 86 86
-20.7 -15.9 13.5 35 35 35
-20.3 -15.9 13.4 53 53 53
-20.1 -16.0 13.5 83 85 85
-19.7 -15.9 13.5 138 138 138
-18.4 -35.8 30.3 87 87 87
14.3 -12.0 10.1 206 206 206
51.3 -16.7 14.1 102 104 104
51.5 -16.6 14.0 102 104 104
-31.0 -15.6 13.5 33 32 30
-30.7 -15.6 13.5 17 17 17
-30.3 -15.6 13.4 86 88 88
-29.9 -15.5 13.4 148 150 150
-29.7 -15.6 13.4 170 172 172
-29.5 -15.6 13.5 141 141 141
-29.0 -15.7 13.5 125 125 125
-24.4 -15.6 13.4 57 56 55
-23.1 -15.6 13.4 52 52 52
-22.2 -15.6 13.4 53 53 53
-21.7 -15.4 13.3 49 49 49
-21.0 -15.6 13.5 41 41 41
-20.7 -15.6 13.4 67 68 66
-19.8 -15.7 13.5 4 10 6
14.4 -11.8 10.1 209 209 209
14.6 -11.8 10.2 209 209 209
15.2 -11.9 10.3 209 209 209
15.8 -11.8 10.2 211 211 211
51.3 -16.3 14.1 97 97 97
51.5 -16.3 14.0 95 95 95
50.9 -16.0 13.8 89 89 89
14.3 -11.5 10.1 209 209 209
14.6 -11.5 10.1 209 209 209
15.1 -11.6 10.2 209 209 209
15.7 -11.5 10.1 212 213 212
688.6 -422.0 370.9 214 214 214
51.4 -16.0 14.1 92 95 94
51.5 -16.0 14.0 85 85 85
51.0 -15.7 13.8 71 71 71
51.0 -15.6 13.7 70 69 68
-24.0 -11.8 10.6 13 13 13
-23.8 -11.9 10.7 6 7 7
-22.5 -11.5 10.3 15 15 15
605.5 -363.5 326.1 216 216 216
51.4 -15.7 14.1 89 89 89
51.4 -15.6 14.0 79 81 80
51.1 -15.4 13.8 73 73 73
51.5 -15.4 13.8 73 73 73
-23.8 -11.0 10.1 149 151 151
-23.5 -11.0 10.1 88 90 89
-22.9 -11.1 10.1 20 23 21
-22.6 -11.0 10.1 20 23 21
-22.4 -11.0 10.1 18 22 19
-22.2 -11.0 10.1 20 23 21
-21.9 -11.0 10.1 18 22 19
-21.8 -11.1 10.2 107 109 109
702.4 -412.8 378.3 216 216 216
704.1 -389.5 356.9 218 218 218
44.5 -20.9 19.2 204 204 204
43.3 -20.2 18.5 204 204 204
51.2 -15.3 14.0 109 109 109
51.4 -15.3 14.0 86 86 86
51.4 -15.2 13.9 77 77 77
51.8 -15.2 13.9 75 76 76
52.0 -15.2 13.9 77 77 77
42.6 -19.4 18.2 200 200 200
51.2 -15.0 14.1 116 118 117
51.4 -15.0 14.0 88 88 88
51.4 -14.9 13.9 79 82 81
52.0 -14.9 14.0 79 82 81
52.4 -15.0 14.0 78 78 78
42.9 -19.1 18.3 204 204 204
51.2 -14.7 14.0 119 119 119
51.4 -14.6 14.0 90 90 90
51.6 -14.6 14.0 79 82 81
52.1 -14.7 14.0 78 78 78
52.6 -14.7 14.1 78 78 78
-32.3 -54.3 53.1 118 118 118
-32.4 -56.7 55.5 32 34 33
-31.6 -57.5 56.3 23 24 23
51.3 -14.3 14.0 90 90 90
51.5 -14.2 13.9 79 82 81
-35.4 -56.0 56.1 101 101 101
-32.9 -54.1 54.2 113 114 113
-32.8 -56.0 56.1 46 46 46
-31.8 -56.5 56.6 22 22 22
271.1 -126.7 127.0 200 200 200
-34.2 -54.9 56.3 113 114 113
-33.2 -55.4 56.8 49 50 48
-32.0 -55.7 57.1 20 20 20
286.8 -148.7 152.6 219 219 219
647.8 -302.3 310.1 186 186 186
360.0 -166.1 170.4 193 193 193
271.1 -123.8 127.0 199 199 199
41.4 -17.0 17.5 204 204 204
-34.7 -56.6 59.5 37 38 37
17.7 -10.2 10.7 217 217 217
320.3 -162.2 170.4 219 219 219
356.7 -160.7 168.9 193 193 193
254.1 -113.2 119.0 199 199 199
41.3 -16.6 17.4 203 203 203
-36.1 -57.4 61.8 28 28 28
163.7 -365.9 394.1 153 153 153
17.8 -10.0 10.8 217 217 217
193.5 -83.2 89.7 200 200 200
143.3 -61.0 65.7 200 200 200
41.7 -16.3 17.6 203 203 203
157.2 -342.5 378.3 150 150 150
15.8 -9.1 10.0 217 220 219
16.6 -9.3 10.2 218 221 220
17.6 -9.7 10.7 217 217 217
210.5 -88.3 97.5 199 199 199
41.7 -15.9 17.6 203 203 203
-55.3 -86.9 98.5 32 34 33
163.7 -347.6 394.1 145 145 144
15.9 -8.9 10.1 218 221 220
16.6 -9.0 10.2 218 221 220
-27.9 -11.7 13.6 162 162 162
-93.9 -143.8 167.4 25 25 23
-111.7 -178.5 207.9 174 174 174
-109.3 -182.5 212.5 180 180 180
14.6 -8.7 10.1 217 217 217
16.7 -8.8 10.3 218 221 220
19.3 -10.1 11.7 218 221 220
761.6 -331.5 386.0 220 223 222
774.8 -318.5 370.9 174 176 176
416.2 -169.2 197.0 181 181 181
-28.1 -11.2 13.4 147 149 149
-27.5 -11.2 13.4 174 174 174
-27.1 -11.2 13.4 107 107 105
-10.3 -10.0 11.9 39 39 39
-141.6 -202.6 242.5 29 29 29
-114.1 -169.9 203.4 22 22 22
-133.8 -208.0 248.9 170 172 172
-152.0 -246.9 295.6 177 177 177
18.4 -9.6 11.5 218 221 220
19.6 -10.1 12.1 218 221 220
19.3 -9.8 11.7 218 221 220
19.2 -9.6 11.5 218 221 220
745.6 -298.2 356.9 180 180 180
-27.6 -10.9 13.5 177 177 177
-36.8 -14.8 18.2 107 107 105
-36.3 -14.7 18.2 43 45 44
-36.0 -14.8 18.2 58 59 59
-10.3 -9.7 11.9 41 41 39
19.6 -9.8 12.1 218 221 220
19.4 -9.5 11.7 218 221 220
19.2 -9.4 11.5 218 221 220
-27.7 -10.7 13.5 169 171 170
-37.3 -14.5 18.4 111 111 111
-36.5 -14.4 18.2 53 53 53
-10.3 -9.4 11.9 44 44 44
19.5 -9.4 11.9 218 221 220
-10.8 -9.3 12.2 43 43 43
-10.3 -9.1 11.9 47 48 47
-10.3 -8.9 11.9 48 48 48
17.6 -7.3 10.1 219 222 221
-13.5 -7.2 10.4 161 161 161
-8.8 -7.7 11.0 193 193 193
17.6 -7.0 10.1 219 222 221
17.7 -7.0 10.0 219 222 221
-24.2 -7.3 10.8 62 61 60
-13.5 -7.0 10.4 81 83 80
15.1 -6.9 10.3 217 217 217
17.6 -6.8 10.1 219 222 221
17.5 -6.5 10.1 219 222 221
17.7 -6.5 10.0 219 222 221
199.3 -51.6 79.5 77 77 77
193.8 -49.7 76.6 72 74 74
160.4 -241.8 386.0 144 144 144
90.2 -128.8 205.6 205 205 205
146.4 -42.0 67.1 188 188 188
194.6 -48.2 76.9 68 68 68
-657.5 -140.8 233.5 67 67 67
-668.6 -144.4 239.4 67 67 67
-663.0 -144.4 239.4 68 68 68
-649.2 -142.6 236.5 66 66 66
-651.9 -144.4 239.4 69 69 69
-646.3 -144.4 239.4 69 69 69
-674.9 -152.1 252.2 72 72 72
-508.9 -148.2 245.7 62 61 60
-496.8 -146.3 242.5 88 89 87
-484.9 -144.4 239.4 145 147 147
-473.4 -142.6 236.5 75 77 75
88.3 -121.4 201.2 209 212 211
142.3 -39.3 65.2 185 185 185
192.2 -45.8 76.0 58 60 59
167.7 -39.6 65.7 60 63 62
-771.8 -159.0 274.1 67 67 67
-812.6 -168.7 291.0 67 67 67
-805.8 -168.7 291.0 67 67 67
-786.9 -166.2 286.6 68 68 68
-768.6 -163.7 282.3 71 71 71
-750.9 -161.3 278.2 72 72 72
-790.9 -171.4 295.6 72 72 72
-605.4 -171.4 295.6 62 61 60
-580.4 -166.2 286.6 96 96 96
-498.3 -144.3 248.9 68 68 68
141.8 -37.7 65.0 189 189 189
167.7 -38.1 65.7 61 64 63
142.3 -36.3 65.2 189 189 189
98.3 -21.6 38.8 65 65 65
167.7 -36.6 65.7 61 64 63
34.6 -42.0 78.8 208 208 208
198.2 -49.0 91.8 163 163 163
142.8 -34.9 65.5 183 183 183
168.9 -35.3 66.1 66 66 66
32.4 -37.7 73.9 216 219 218
150.5 -29.8 58.4 62 64 64
175.6 -38.4 78.8 191 191 191
188.7 -38.1 78.2 203 203 203
138.1 -27.3 56.1 225 227 227
122.7 -24.0 49.4 110 110 110
198.6 -38.2 78.5 66 66 66
175.7 -33.5 68.8 68 68 68
150.0 -28.3 58.2 63 65 65
150.5 -27.1 58.4 63 65 65
22.8 -2.0 10.8 161 164 163
22.9 -1.8 10.9 167 167 167
22.8 -1.7 10.8 173 175 175
22.9 -1.5 11.0 166 166 166
23.0 -1.3 11.0 173 173 173
23.0 -1.0 11.0 174 174 174
23.0 -0.8 11.0 175 177 177
22.9 -0.7 10.8 189 189 189
23.0 -0.5 11.0 176 179 178
22.8 -0.5 10.8 193 193 193
23.1 -0.2 11.0 182 182 182
23.5 0.0 11.4 224 226 226
23.1 0.0 11.1 183 183 183
23.6 0.3 11.4 224 226 226
960.4 7.9 320.6 95 95 95
70.9 0.9 19.0 86 86 86
67.0 0.9 17.8 90 90 90
70.9 1.3 19.0 87 87 87
67.2 1.3 17.9 89 89 89
24.8 1.2 12.4 225 225 225
25.0 1.2 12.4 225 225 225
71.2 1.8 19.0 88 88 88
78.0 1.9 20.5 173 173 173
24.6 1.4 12.3 226 226 226
24.9 1.4 12.3 226 226 226
23.4 1.3 11.2 190 190 190
82.1 2.6 21.9 87 86 84
82.5 2.6 21.9 90 90 90
82.0 2.5 21.7 92 92 92
24.3 1.7 11.9 224 224 224
23.8 1.6 11.5 221 221 221
83.6 3.1 22.4 87 87 85
83.6 3.1 22.2 89 89 89
83.8 3.1 22.1 87 87 85
23.7 1.9 11.5 225 225 225
101.3 4.4 26.8 96 96 96
23.7 2.1 11.5 205 205 205
101.7 5.0 26.9 94 94 94
102.6 5.0 26.9 80 80 80
104.1 5.8 27.3 73 72 70
-90.0 17.9 32.0 50 51 49
-90.0 18.0 32.2 47 47 47
-89.1 18.0 32.2 41 41 41
-88.3 18.0 32.2 45 45 45
-87.9 18.0 32.3 45 45 45
-86.8 18.0 32.2 140 140 140
-86.2 18.0 32.2 145 145 144
-85.3 18.0 32.2 139 139 139
-119.5 33.4 59.7 84 83 81
-40.4 18.3 32.7 228 228 228
-39.0 18.0 32.2 229 229 229
-286.9 83.5 143.3 120 122 121
-251.2 73.9 127.0 117 117 117
-222.9 68.8 118.2 99 99 99
-181.1 61.2 105.1 105 105 105
-88.4 35.1 60.2 127 127 127
-127.6 69.3 119.0 67 67 67
-168.7 95.8 164.5 64 64 64
-82.4 34.0 56.1 140 140 140
-76.1 31.9 52.7 132 135 134
68.9 100.5 165.9 59 60 58
65.9 90.9 150.1 67 67 67
64.7 84.9 140.1 69 69 69
16.6 129.7 146.6 197 200 199
-254.9 168.3 185.5 68 70 68
-237.6 168.3 185.5 75 76 76
-222.4 160.5 176.8 74 74 74
-224.6 165.1 181.9 56 56 56
-176.4 163.5 180.2 108 110 110
-179.0 170.0 187.3 190 190 190
-171.3 166.7 183.7 188 190 190
-167.0 166.7 183.7 166 169 168
-151.3 163.5 180.2 146 148 148
-129.1 162.0 178.5 136 138 137
-120.4 156.1 172.0 96 96 96
-49.4 159.0 175.2 75 77 77
-45.7 160.5 176.8 193 193 193
-43.2 166.7 183.7 198 198 198
-33.3 182.7 201.2 201 203 203
-24.5 156.1 172.0 208 208 208
17.6 177.0 195.0 203 203 203
19.1 153.3 168.9 197 200 199
23.1 153.3 168.9 198 201 200
-264.4 195.7 210.2 74 74 74
-256.7 193.5 207.9 49 48 47
-244.3 191.4 205.6 33 33 33
-222.8 189.4 203.4 127 127 127
-211.3 183.4 197.0 155 155 155
-198.4 176.1 189.2 178 181 180
-194.0 176.1 189.2 167 167 167
-203.9 189.4 203.4 156 156 156
-197.0 187.4 201.2 88 90 89
-162.6 185.4 199.1 145 147 147
-166.2 207.2 222.5 150 150 150
-145.6 187.4 201.2 134 137 136
-135.2 179.7 193.0 90 90 90
-51.5 185.4 199.1 193 193 193
-47.4 187.4 201.2 183 183 183
-41.8 183.4 197.0 102 102 102
-38.2 214.8 230.7 203 205 205
-27.8 181.6 195.0 201 203 203
19.1 197.9 212.5 197 200 199
21.2 174.4 187.3 197 200 199
26.3 179.7 193.0 196 196 196
-336.3 237.5 248.9 70 72 69
-324.7 237.5 248.9 69 71 69
-318.9 237.5 248.9 75 75 75
-309.1 234.4 245.7 71 72 70
-324.4 250.7 262.7 165 165 165
-305.6 240.7 252.2 105 107 107
-281.0 225.6 236.5 113 114 113
-282.6 231.4 242.5 60 60 60
-284.2 237.5 248.9 36 38 37
-278.4 237.5 248.9 14 18 15
-262.3 228.5 239.4 154 154 154
-253.5 225.6 236.5 165 168 167
-226.2 231.4 242.5 178 181 180
-206.3 234.4 245.7 146 148 148
-193.1 225.6 236.5 146 148 148
-185.9 237.5 248.9 151 153 153
-171.1 225.6 236.5 139 141 140
-163.5 222.9 233.5 101 103 103
-55.7 225.6 236.5 108 108 108
-50.2 225.6 236.5 198 201 200
-72.9 368.4 386.0 200 202 202
-41.8 240.7 252.2 200 200 200
-31.3 209.9 220.0 200 200 200
22.1 234.4 245.7 203 203 203
23.3 196.2 205.6 196 199 198
-188.9 205.1 142.2 51 51 51
-176.3 194.9 135.1 53 52 52
-171.9 193.5 134.2 53 56 55
-170.0 194.9 135.1 51 51 51
-199.3 220.0 150.1 53 52 52
-189.8 213.3 145.5 55 55 55
-189.4 216.6 147.8 59 59 59
-184.5 214.9 146.6 59 59 59
38.3 15.8 10.1 70 70 70
27.3 18.2 11.2 139 139 139
36.3 18.2 11.2 102 102 102
37.4 18.2 11.2 94 93 92
37.6 18.2 11.2 94 93 92
37.9 18.2 11.2 91 91 91
38.1 18.2 11.2 80 80 80
38.4 18.2 11.2 89 89 89
38.7 18.2 11.2 95 94 93
39.1 18.2 11.2 98 97 95
39.3 18.2 11.1 102 102 102
40.6 18.2 11.2 105 105 105
40.7 18.2 11.2 107 107 107
41.3 18.2 11.2 118 118 118
27.5 18.5 11.2 137 137 137
27.8 18.5 11.2 129 132 131
28.0 18.4 11.2 121 123 122
28.2 18.4 11.1 119 119 119
36.1 18.5 11.2 104 106 106
36.2 18.4 11.1 104 106 106
37.3 18.4 11.2 94 93 92
37.6 18.4 11.2 94 93 92
37.8 18.4 11.2 95 94 93
38.1 18.4 11.2 86 86 86
38.3 18.4 11.2 86 86 86
38.6 18.4 11.2 91 91 91
38.8 18.4 11.1 95 94 93
39.1 18.4 11.1 98 97 95
39.3 18.4 11.1 99 99 99
40.2 18.4 11.2 105 105 105
40.4 18.4 11.2 105 105 105
40.6 18.4 11.1 107 107 107
40.9 18.4 11.2 109 111 111
41.2 18.4 11.1 116 116 116
