ply
format ascii 1.0
element vertex 1731
property float x
property float y
property float z
property uchar red
property uchar green
property uchar blue
end_header
153.7 -268.1 106.9 156 159 158
156.2 -268.1 106.9 156 159 158
118.3 -185.4 73.9 155 158 157
52.7 -75.9 30.3 158 161 160
52.7 -75.0 29.9 158 161 160
53.3 -74.9 29.8 157 157 157
54.2 -75.1 29.9 157 157 157
55.1 -75.5 30.1 158 158 158
39.7 -51.1 20.4 155 155 155
78.0 -56.6 22.5 96 96 96
78.6 -56.6 22.6 96 96 96
79.3 -56.7 22.6 93 93 93
79.8 -56.7 22.6 91 91 91
56.7 -38.5 15.4 196 196 196
58.8 -38.5 15.3 212 213 212
80.2 -183.0 73.6 163 163 163
86.7 -182.3 73.3 160 160 160
88.4 -182.3 73.3 160 160 160
91.8 -182.3 73.3 163 163 163
93.5 -182.3 73.3 160 160 160
95.6 -183.0 73.6 160 160 160
106.2 -186.6 75.1 156 159 158
105.9 -183.0 73.6 156 159 158
108.0 -183.7 73.9 156 159 158
109.7 -183.7 73.9 156 159 158
108.9 -179.5 72.2 156 159 158
111.0 -180.2 72.5 156 159 158
113.1 -180.9 72.8 156 159 158
115.2 -181.6 73.0 155 158 157
117.4 -182.3 73.3 155 158 157
117.3 -179.5 72.2 156 159 158
53.1 -74.9 30.1 158 161 160
53.7 -74.8 30.1 158 161 160
54.5 -74.9 30.1 159 162 161
55.4 -75.1 30.2 158 158 158
40.2 -51.2 20.6 157 157 157
361.8 -435.4 175.2 157 157 157
113.6 -86.3 34.7 105 104 102
108.3 -81.6 32.8 99 101 101
106.1 -79.4 32.0 99 101 101
75.3 -54.5 21.9 97 100 99
76.6 -55.0 22.1 96 96 96
77.0 -54.9 22.1 93 93 93
77.8 -55.1 22.2 93 93 93
78.6 -55.3 22.3 91 91 91
56.9 -38.6 15.5 196 196 196
56.8 -38.3 15.4 196 196 196
58.3 -39.0 15.7 194 194 194
58.2 -38.7 15.6 149 149 149
58.6 -38.7 15.6 194 194 194
59.6 -39.1 15.7 205 205 205
59.3 -38.7 15.6 220 220 220
59.0 -38.3 15.4 180 183 182
49.6 -182.0 73.9 163 163 163
53.0 -182.0 73.9 166 166 166
54.7 -182.0 73.9 167 167 167
56.5 -182.0 73.9 167 167 167
58.2 -182.0 73.9 167 167 167
59.9 -182.0 73.9 167 167 167
61.6 -182.0 73.9 169 171 170
63.3 -182.0 73.9 167 167 167
65.0 -182.0 73.9 164 164 164
66.5 -181.3 73.6 164 164 164
68.2 -181.3 73.6 167 167 167
70.8 -183.4 74.5 164 164 164
71.9 -182.0 73.9 159 159 159
75.4 -182.0 73.9 162 162 162
77.1 -182.0 73.9 162 162 162
78.8 -182.0 73.9 162 162 162
80.2 -181.3 73.6 163 163 163
81.9 -181.3 73.6 163 163 163
83.9 -182.0 73.9 160 160 160
85.7 -182.0 73.9 163 163 163
87.0 -181.3 73.6 160 160 160
88.7 -181.3 73.6 163 163 163
90.1 -180.6 73.3 163 163 163
91.8 -180.6 73.3 163 163 163
93.5 -180.6 73.3 163 163 163
96.0 -182.0 73.9 160 160 160
97.7 -182.0 73.9 160 160 160
106.6 -185.6 75.4 161 161 161
521.6 -878.9 356.9 161 161 161
112.8 -187.1 76.0 161 161 161
114.9 -182.0 73.9 161 161 161
116.1 -181.3 73.6 162 162 162
119.2 -183.4 74.5 157 160 159
118.2 -179.2 72.8 158 161 160
53.6 -74.9 30.4 158 161 160
54.3 -74.9 30.4 158 161 160
55.3 -75.3 30.6 159 162 161
55.8 -74.9 30.4 159 162 161
56.6 -75.0 30.5 160 163 162
58.4 -76.5 31.1 160 163 162
60.7 -76.6 31.1 160 160 160
411.3 -490.3 199.1 157 157 157
362.5 -427.4 173.5 157 157 157
111.6 -83.9 34.1 105 104 102
72.4 -51.9 21.1 97 100 99
71.5 -50.9 20.7 96 96 96
76.8 -53.9 21.9 91 91 91
56.3 -38.3 15.5 191 191 191
57.0 -38.3 15.5 197 200 199
57.0 -38.0 15.4 196 196 196
58.2 -38.6 15.7 208 208 208
58.3 -38.4 15.6 170 171 170
58.5 -38.3 15.6 155 155 155
59.8 -38.9 15.8 208 208 208
59.5 -38.5 15.6 179 179 179
59.3 -38.1 15.5 191 191 191
73.3 -145.6 59.7 163 163 163
74.0 -144.2 59.1 163 163 163
77.3 -145.1 59.5 163 163 163
564.2 -941.7 386.0 164 164 164
438.8 -721.0 295.6 164 164 164
59.0 -92.7 38.0 164 164 164
125.4 -193.9 79.5 165 165 165
128.3 -195.5 80.2 162 162 162
122.9 -184.6 75.7 163 163 163
54.8 -75.8 31.1 160 163 162
55.4 -75.6 31.0 161 164 163
56.7 -76.4 31.3 159 162 161
57.0 -75.9 31.1 159 162 161
60.5 -79.6 32.6 160 163 162
64.6 -80.8 33.1 160 160 160
434.2 -512.7 210.2 159 159 159
352.8 -412.0 168.9 157 157 157
110.4 -82.3 33.7 105 104 102
105.2 -77.8 31.9 105 104 102
69.6 -49.0 20.1 93 93 93
69.6 -48.7 20.0 93 93 93
56.6 -37.9 15.5 155 155 155
56.8 -37.7 15.5 196 196 196
57.6 -37.6 15.4 207 207 207
59.3 -37.9 15.6 196 196 196
58.6 -37.3 15.3 212 213 212
61.3 -127.7 52.8 165 165 165
61.6 -125.9 52.1 166 166 166
66.5 -128.4 53.1 166 166 166
66.3 -125.6 52.0 166 166 166
66.9 -124.5 51.5 166 166 166
79.4 -145.1 60.1 166 166 166
79.0 -141.9 58.7 166 166 166
438.8 -714.1 295.6 167 167 167
52.9 -83.4 34.5 161 161 161
54.0 -84.0 34.8 161 161 161
54.3 -83.1 34.4 165 165 165
129.4 -195.3 80.8 165 165 165
122.9 -182.8 75.7 168 168 168
59.2 -82.2 34.0 165 165 165
59.1 -81.0 33.5 165 165 165
59.2 -80.0 33.1 166 166 166
59.9 -79.9 33.1 161 164 163
60.5 -79.8 33.0 162 165 164
62.9 -81.9 33.9 160 163 162
64.9 -83.4 34.5 160 163 162
67.0 -84.0 34.8 161 164 163
66.2 -82.1 34.0 160 160 160
558.2 -652.9 270.2 159 159 159
411.6 -476.1 197.0 157 157 157
109.4 -80.7 33.4 105 104 102
102.4 -75.0 31.1 105 104 102
98.3 -71.5 29.6 99 101 101
68.6 -47.9 19.8 93 93 93
67.2 -46.6 19.3 96 96 96
65.7 -45.3 18.7 93 93 93
51.2 -33.3 13.8 194 194 194
50.7 -32.7 13.6 174 174 174
56.7 -35.7 14.8 212 213 212
59.3 -122.3 51.1 168 168 168
60.1 -121.7 50.9 168 168 168
63.5 -121.3 50.7 169 169 169
46.3 -83.8 35.0 169 169 169
69.3 -123.3 51.5 169 169 169
70.1 -122.7 51.3 169 169 169
53.3 -83.4 34.8 170 171 170
54.2 -83.5 34.9 170 171 170
54.8 -83.1 34.7 172 172 172
130.5 -195.1 81.5 172 172 172
125.4 -184.7 77.2 172 172 172
60.4 -83.1 34.7 168 168 168
61.3 -83.2 34.8 168 168 168
61.9 -82.9 34.6 168 168 168
61.4 -81.1 33.9 169 169 169
61.9 -80.8 33.8 167 167 167
64.4 -83.1 34.7 167 167 167
66.5 -84.6 35.4 167 167 167
69.3 -86.1 36.0 161 164 163
67.5 -82.9 34.6 161 164 163
592.1 -685.8 286.6 159 159 159
429.5 -492.0 205.6 157 157 157
109.6 -80.1 33.5 105 104 102
93.8 -67.6 28.2 99 101 101
90.2 -64.6 27.0 99 101 101
76.6 -53.7 22.4 97 100 99
65.8 -45.2 18.9 96 96 96
64.7 -44.1 18.4 93 93 93
63.0 -42.7 17.8 91 91 91
51.7 -33.5 14.0 197 200 199
50.4 -32.5 13.6 180 183 182
49.8 -31.9 13.3 180 183 182
49.5 -31.5 13.1 208 208 208
42.4 -83.3 35.2 171 173 173
42.9 -82.7 34.9 169 169 169
43.5 -82.4 34.8 166 166 166
45.8 -82.1 34.6 169 169 169
46.5 -81.9 34.6 171 173 173
216.1 -334.5 141.2 172 174 174
54.0 -82.4 34.8 172 174 174
54.6 -81.9 34.6 173 175 175
133.4 -197.5 83.3 173 175 175
129.1 -188.3 79.5 173 175 175
61.1 -83.2 35.1 170 171 170
61.3 -80.2 33.8 175 175 175
61.9 -80.0 33.8 173 173 173
71.0 -87.4 36.9 163 166 165
67.8 -82.4 34.8 169 169 169
592.1 -679.1 286.6 159 159 159
411.6 -466.9 197.0 155 155 155
74.5 -51.7 21.8 97 100 99
71.5 -49.3 20.8 93 93 93
59.5 -40.5 17.1 93 93 93
62.1 -41.7 17.6 91 91 91
60.7 -40.5 17.1 91 91 91
60.0 -39.7 16.8 93 93 93
48.7 -30.9 13.0 180 183 182
48.2 -30.4 12.8 212 213 212
48.3 -30.1 12.7 218 218 218
40.9 -81.1 34.6 173 175 175
41.5 -80.7 34.4 180 180 180
42.3 -80.7 34.4 173 175 175
42.7 -80.0 34.1 173 175 175
45.1 -80.0 34.1 173 175 175
45.4 -79.1 33.7 171 173 173
219.4 -341.4 145.5 179 179 179
204.0 -312.6 133.2 179 179 179
53.4 -80.6 34.3 179 179 179
54.3 -80.7 34.4 175 177 177
133.4 -195.5 83.3 175 177 177
128.5 -185.7 79.1 173 175 175
73.6 -51.3 21.9 99 101 101
75.3 -52.1 22.2 99 101 101
72.2 -49.6 21.2 97 100 99
43.0 -26.8 11.4 212 213 212
47.0 -29.1 12.4 215 215 215
46.5 -28.6 12.2 219 219 219
24.7 -63.4 27.3 177 177 177
25.3 -63.4 27.3 169 171 170
26.1 -63.9 27.5 177 177 177
26.6 -63.4 27.3 182 182 182
27.4 -63.9 27.5 184 184 184
28.0 -63.9 27.5 189 189 189
28.7 -63.9 27.5 189 189 189
30.6 -63.9 27.5 188 188 188
31.0 -63.3 27.3 192 192 192
31.7 -63.6 27.4 195 195 195
32.4 -63.6 27.4 195 195 195
33.2 -64.1 27.6 197 197 197
33.5 -63.4 27.3 197 197 197
34.2 -63.5 27.3 195 195 195
34.9 -63.6 27.4 197 197 197
35.4 -63.3 27.3 197 197 197
36.0 -63.2 27.2 197 197 197
37.8 -64.2 27.6 197 197 197
38.3 -63.9 27.5 197 197 197
40.3 -64.1 27.6 197 197 197
40.8 -63.8 27.5 197 197 197
222.8 -343.3 147.8 197 197 197
171.4 -260.0 111.9 197 197 197
154.8 -231.3 99.6 194 194 194
133.2 -196.2 84.4 193 193 193
132.8 -192.7 83.0 195 195 195
128.5 -183.9 79.1 202 202 202
177.5 -246.9 106.3 199 199 199
159.4 -218.6 94.1 197 197 197
70.8 -49.2 21.2 99 101 101
70.9 -48.9 21.0 99 101 101
70.4 -48.2 20.8 99 101 101
71.2 -48.4 20.9 99 101 101
42.5 -26.2 11.3 197 200 199
42.6 -26.1 11.3 208 208 208
43.4 -26.3 11.3 218 218 218
26.1 -61.7 26.8 205 205 205
26.7 -61.5 26.8 205 205 205
30.5 -61.8 26.9 200 200 200
32.4 -61.8 26.9 204 204 204
33.0 -61.7 26.8 204 204 204
33.4 -61.3 26.6 204 204 204
34.4 -62.0 26.9 204 204 204
34.5 -61.1 26.6 204 204 204
34.7 -60.4 26.3 204 204 204
37.5 -63.0 27.4 204 204 204
37.8 -62.4 27.1 204 204 204
38.0 -61.8 26.9 204 204 204
40.4 -63.6 27.7 204 204 204
40.6 -62.9 27.3 204 204 204
40.5 -61.8 26.9 204 204 204
150.0 -222.0 96.5 204 204 204
131.5 -191.6 83.3 205 205 205
130.5 -187.5 81.5 205 205 205
121.9 -172.6 75.1 205 205 205
112.5 -157.1 68.3 206 206 206
163.7 -225.4 98.0 203 203 203
145.6 -197.7 86.0 203 203 203
128.9 -172.6 75.1 204 204 204
25.0 -31.7 13.8 208 208 208
69.3 -47.0 20.4 99 101 101
38.8 -23.9 10.4 196 196 196
38.7 -23.7 10.3 189 189 189
38.8 -23.6 10.3 180 183 182
29.2 -58.4 25.7 200 200 200
29.6 -58.1 25.5 204 204 204
29.9 -57.7 25.3 204 204 204
30.4 -57.4 25.2 204 204 204
31.0 -57.3 25.2 204 204 204
32.0 -58.1 25.5 204 204 204
32.8 -58.5 25.7 204 204 204
33.3 -58.4 25.6 204 204 204
33.3 -57.3 25.2 204 204 204
42.4 -65.1 28.6 204 204 204
38.4 -58.0 25.5 204 204 204
39.0 -58.0 25.5 204 204 204
130.9 -188.9 83.0 205 205 205
127.8 -181.7 79.8 205 205 205
119.1 -166.9 73.3 205 205 205
108.2 -149.5 65.7 206 206 206
148.4 -202.2 88.8 203 203 203
143.7 -193.1 84.8 203 203 203
120.7 -160.1 70.3 207 207 207
25.0 -31.4 13.8 208 208 208
120.6 -86.3 37.9 113 115 114
38.3 -23.2 10.2 196 196 196
30.4 -55.7 24.7 204 204 204
32.7 -55.7 24.7 204 204 204
32.0 -53.5 23.8 204 204 204
37.9 -56.6 25.1 207 207 207
38.0 -55.9 24.8 204 204 204
38.5 -55.9 24.8 204 204 204
126.7 -178.3 79.1 205 205 205
115.5 -160.2 71.1 205 205 205
106.0 -145.0 64.3 206 206 206
147.7 -199.2 88.4 206 206 206
149.7 -199.2 88.4 206 206 206
24.9 -31.0 13.7 208 208 208
24.9 -30.6 13.6 208 208 208
120.1 -85.1 37.8 116 118 117
42.3 -64.5 28.9 207 207 207
42.7 -64.2 28.8 207 207 207
114.2 -156.8 70.3 205 205 205
103.9 -140.6 63.1 205 205 205
28.0 -36.4 16.3 209 209 209
27.8 -35.7 16.0 206 206 206
27.7 -35.0 15.7 204 204 204
24.8 -30.2 13.5 208 208 208
42.4 -61.1 27.7 206 206 206
47.7 -66.8 30.3 207 207 207
27.9 -35.3 16.0 206 206 206
27.7 -34.6 15.7 206 206 206
24.8 -29.8 13.5 207 207 207
24.7 -29.4 13.3 207 207 207
42.8 -61.0 27.9 205 205 205
48.1 -66.5 30.5 206 206 206
27.8 -34.9 16.0 205 205 205
27.4 -34.0 15.6 205 205 205
24.8 -29.5 13.5 206 206 206
24.7 -29.1 13.3 207 207 207
-20.9 -22.6 10.4 94 94 94
-20.7 -22.6 10.4 95 98 97
-20.4 -22.5 10.4 101 101 101
-20.1 -22.5 10.4 105 105 105
-19.0 -22.6 10.5 107 109 109
-18.7 -22.5 10.4 106 108 108
-18.4 -22.5 10.4 106 108 108
-16.8 -22.5 10.4 115 115 115
-14.7 -22.8 10.5 125 125 125
-14.3 -22.5 10.4 124 124 124
-8.3 -22.6 10.5 138 140 139
47.7 -65.3 30.2 205 205 205
47.6 -64.3 29.7 206 206 206
27.8 -35.0 16.2 207 207 207
27.8 -34.5 16.0 204 204 204
27.5 -33.6 15.6 205 205 205
24.8 -29.2 13.5 206 206 206
-22.0 -23.2 10.9 64 66 66
-21.4 -23.1 10.8 85 85 85
-9.8 -23.0 10.7 135 135 135
-9.5 -23.0 10.8 136 136 136
-9.4 -23.2 10.8 136 138 137
10.3 -23.2 10.8 208 208 208
10.6 -23.2 10.8 208 208 208
41.8 -61.2 28.6 207 207 207
44.0 -61.3 28.7 204 204 204
44.0 -60.5 28.3 205 205 205
46.3 -62.8 29.4 205 205 205
46.9 -62.6 29.3 205 205 205
49.6 -65.3 30.6 205 205 205
27.6 -33.5 15.7 207 207 207
689.4 -511.7 239.4 166 166 166
1111.0 -792.7 370.9 158 161 160
-31.1 -23.4 11.0 46 46 44
-22.6 -23.4 11.0 42 42 42
-22.4 -23.3 11.0 43 43 43
-22.1 -23.4 11.1 43 43 43
-21.8 -23.3 11.0 48 48 48
-20.3 -23.4 11.0 97 100 99
-20.1 -23.4 11.1 97 100 99
-19.8 -23.4 11.0 99 101 101
-9.9 -23.0 10.9 131 133 132
-9.6 -23.0 10.9 133 133 133
-9.5 -23.2 11.0 135 135 135
-9.2 -23.1 10.9 138 137 136
10.7 -23.3 11.0 207 207 207
41.0 -59.3 28.1 206 206 206
41.1 -58.5 27.7 206 206 206
42.7 -59.9 28.3 206 206 206
43.0 -59.3 28.1 206 206 206
43.6 -59.2 28.0 204 204 204
45.1 -60.5 28.6 204 204 204
45.6 -60.2 28.5 204 204 204
46.5 -60.6 28.7 205 205 205
47.6 -61.0 28.9 205 205 205
27.0 -32.0 15.1 206 206 206
-12.4 -25.9 12.4 119 119 119
-10.0 -23.0 11.0 123 125 124
-9.5 -23.1 11.0 127 127 127
9.2 -26.1 12.5 207 207 207
10.5 -27.2 13.0 207 207 207
10.8 -27.2 13.0 207 207 207
11.0 -26.1 12.5 207 207 207
11.3 -26.1 12.5 207 207 207
11.6 -26.1 12.5 207 207 207
12.3 -27.1 13.0 207 207 207
12.6 -27.2 13.0 207 207 207
13.3 -27.2 13.0 207 207 207
13.5 -27.1 13.0 206 206 206
13.3 -26.1 12.5 206 206 206
14.2 -27.2 13.0 206 206 206
14.8 -27.2 13.0 206 206 206
41.0 -58.6 28.0 206 206 206
43.8 -58.9 28.1 206 206 206
45.3 -59.1 28.3 204 204 204
46.3 -59.6 28.5 204 204 204
46.9 -59.6 28.5 204 204 204
27.1 -31.7 15.2 206 206 206
25.2 -27.1 12.9 205 205 205
3.1 -23.5 11.4 184 184 184
7.6 -28.3 13.7 207 207 207
8.5 -28.2 13.6 207 207 207
7.4 -23.5 11.4 207 207 207
7.6 -23.5 11.4 207 207 207
7.9 -23.5 11.4 207 207 207
8.1 -23.5 11.3 207 207 207
8.7 -23.6 11.4 207 207 207
9.0 -23.5 11.4 206 206 206
9.2 -23.5 11.4 206 206 206
9.5 -23.5 11.4 206 206 206
9.7 -23.5 11.4 206 206 206
10.0 -23.5 11.4 206 206 206
10.3 -23.6 11.4 206 206 206
10.6 -23.6 11.4 206 206 206
10.8 -23.6 11.4 206 206 206
11.1 -23.5 11.4 206 206 206
11.3 -23.5 11.4 206 206 206
11.6 -23.5 11.4 206 206 206
11.9 -23.5 11.4 206 206 206
12.2 -23.6 11.4 206 206 206
12.4 -23.6 11.4 206 206 206
12.7 -23.5 11.4 206 206 206
12.9 -23.6 11.4 206 206 206
13.2 -23.5 11.4 206 206 206
16.9 -29.0 14.0 206 206 206
17.0 -28.7 13.9 206 206 206
17.2 -28.4 13.7 205 205 205
17.4 -28.2 13.6 205 205 205
40.9 -57.9 28.0 205 205 205
40.9 -57.0 27.6 205 205 205
44.5 -59.2 28.6 205 205 205
45.3 -59.3 28.7 205 205 205
45.7 -59.0 28.5 203 203 203
46.5 -59.2 28.6 206 206 206
47.2 -59.3 28.7 206 206 206
29.1 -33.7 16.3 205 205 205
25.3 -26.8 13.0 204 204 204
17.2 -29.2 14.3 205 205 205
41.1 -57.5 28.1 204 204 204
44.8 -58.9 28.8 205 205 205
45.4 -58.8 28.7 205 205 205
46.2 -59.0 28.9 205 205 205
47.0 -59.1 28.9 205 205 205
47.5 -58.9 28.8 205 205 205
25.6 -26.8 13.1 204 204 204
-1.4 -20.5 10.1 197 197 197
-1.2 -20.4 10.1 197 197 197
1.6 -20.5 10.1 185 185 185
1.9 -20.4 10.1 185 185 185
2.1 -20.4 10.1 185 185 185
2.3 -20.4 10.1 185 185 185
4.7 -20.5 10.1 203 203 203
4.9 -20.4 10.1 206 206 206
5.1 -20.4 10.1 206 206 206
5.4 -20.5 10.1 208 208 208
5.6 -20.5 10.1 208 208 208
5.8 -20.4 10.1 208 208 208
6.1 -20.4 10.1 208 208 208
6.6 -20.5 10.1 208 208 208
6.8 -20.5 10.1 208 208 208
7.0 -20.5 10.1 206 206 206
7.3 -20.5 10.1 206 206 206
7.5 -20.5 10.1 208 208 208
7.7 -20.4 10.1 208 208 208
8.0 -20.5 10.1 208 208 208
8.2 -20.5 10.1 208 208 208
8.4 -20.5 10.1 205 205 205
8.7 -20.5 10.1 205 205 205
8.9 -20.4 10.1 205 205 205
9.1 -20.5 10.1 205 205 205
9.4 -20.5 10.1 205 205 205
9.6 -20.5 10.1 205 205 205
9.9 -20.5 10.1 205 205 205
10.1 -20.5 10.1 205 205 205
10.3 -20.5 10.1 205 205 205
10.5 -20.4 10.1 205 205 205
10.8 -20.4 10.1 205 205 205
45.2 -58.8 29.1 204 204 204
45.7 -58.5 29.0 204 204 204
47.2 -59.5 29.5 204 204 204
47.6 -59.2 29.3 205 205 205
47.9 -58.7 29.1 205 205 205
25.7 -26.6 13.2 205 205 205
25.9 -26.6 13.1 203 203 203
1049.3 -707.9 350.3 186 186 186
1086.2 -695.1 343.9 183 183 183
41.9 -56.4 28.2 203 203 203
45.0 -57.9 29.0 203 203 203
45.6 -57.8 28.9 204 204 204
47.3 -59.0 29.6 204 204 204
47.8 -58.8 29.4 204 204 204
47.7 -57.9 29.0 204 204 204
25.7 -26.3 13.2 205 205 205
25.9 -26.2 13.1 205 205 205
-10.2 -24.0 12.1 33 33 33
12.3 -23.7 12.0 204 204 204
12.5 -23.7 12.0 204 204 204
41.8 -55.6 28.1 206 206 206
42.4 -55.5 28.1 203 203 203
43.0 -55.4 28.1 203 203 203
44.4 -56.4 28.6 203 203 203
45.7 -57.2 29.0 203 203 203
47.5 -58.5 29.6 203 203 203
47.8 -58.1 29.4 203 203 203
47.5 -56.9 28.8 204 204 204
25.7 -25.7 13.0 204 204 204
-35.0 -24.3 12.4 58 58 58
-34.9 -24.4 12.5 63 63 63
-34.6 -24.4 12.5 59 61 59
-34.4 -24.4 12.5 58 58 58
-34.0 -24.4 12.5 58 58 58
-33.8 -24.4 12.5 58 58 58
-33.5 -24.4 12.5 58 58 58
-33.2 -24.4 12.5 58 58 58
-32.9 -24.4 12.5 58 59 59
-32.6 -24.4 12.5 56 56 56
-32.3 -24.4 12.5 58 59 59
-32.0 -24.4 12.5 58 59 59
-31.7 -24.4 12.5 56 56 56
-31.5 -24.4 12.5 56 56 56
-31.2 -24.4 12.5 54 54 54
-30.9 -24.4 12.5 54 54 54
-30.5 -24.4 12.5 54 54 54
-30.2 -24.4 12.5 57 57 57
-29.9 -24.4 12.5 52 52 50
-29.7 -24.4 12.5 49 49 49
-29.3 -24.4 12.5 49 49 49
-28.8 -24.2 12.4 49 49 49
-28.7 -24.3 12.4 53 52 51
-28.4 -24.3 12.5 49 49 49
-28.2 -24.3 12.5 49 49 49
-27.8 -24.3 12.4 49 49 49
-27.5 -24.3 12.4 50 50 50
-27.4 -24.5 12.5 50 50 50
-27.1 -24.4 12.5 50 50 50
-26.8 -24.4 12.5 48 48 48
-26.3 -24.2 12.4 48 48 48
-26.0 -24.2 12.4 48 48 48
-25.8 -24.3 12.4 46 46 46
-25.6 -24.4 12.5 46 46 46
-25.3 -24.4 12.5 46 46 46
-25.0 -24.4 12.5 47 47 47
-24.8 -24.4 12.5 47 47 47
-24.5 -24.4 12.5 47 47 47
-24.1 -24.4 12.5 45 45 45
-23.9 -24.4 12.5 42 43 42
-23.6 -24.4 12.5 42 43 42
-23.2 -24.3 12.5 42 42 40
-22.9 -24.3 12.4 42 42 40
-22.8 -24.5 12.5 42 42 40
-22.3 -24.3 12.4 42 42 40
-22.1 -24.3 12.5 43 42 41
-21.2 -24.4 12.5 43 42 41
-21.0 -24.4 12.5 44 43 42
-20.6 -24.3 12.5 41 41 41
-11.0 -24.2 12.4 32 31 30
-10.7 -24.1 12.4 32 32 32
-10.4 -24.2 12.4 34 34 34
-10.2 -24.3 12.4 42 42 42
6.8 -20.6 10.6 206 206 206
7.1 -20.6 10.6 206 206 206
7.3 -20.6 10.6 206 206 206
7.6 -20.6 10.6 206 206 206
7.8 -20.6 10.6 206 206 206
8.1 -20.6 10.6 206 206 206
8.3 -20.6 10.6 206 206 206
8.5 -20.6 10.5 206 206 206
8.8 -20.6 10.5 206 206 206
9.0 -20.6 10.5 206 206 206
9.3 -20.6 10.6 206 206 206
9.5 -20.6 10.6 206 206 206
9.8 -20.6 10.6 208 208 208
10.0 -20.6 10.6 203 203 203
10.3 -20.6 10.6 203 203 203
10.5 -20.6 10.5 203 203 203
10.8 -20.6 10.6 199 199 199
11.0 -20.6 10.6 203 203 203
11.6 -20.7 10.6 203 203 203
11.8 -20.6 10.6 203 203 203
12.0 -20.6 10.6 203 203 203
12.2 -20.6 10.5 206 206 206
12.4 -20.5 10.5 203 203 203
12.7 -20.6 10.5 203 203 203
13.0 -20.6 10.6 206 206 206
13.2 -20.6 10.6 205 205 205
14.0 -20.7 10.6 205 205 205
14.2 -20.6 10.5 205 205 205
15.4 -20.6 10.6 205 205 205
42.2 -53.7 27.5 202 202 202
47.3 -57.7 29.6 203 203 203
47.6 -57.1 29.3 203 203 203
47.5 -56.3 28.8 203 203 203
49.9 -58.3 29.9 203 203 203
25.7 -25.4 13.0 204 204 204
-35.2 -24.1 12.5 58 59 59
-35.0 -24.2 12.5 60 62 60
-34.7 -24.2 12.5 58 59 59
-34.4 -24.2 12.5 58 59 59
-34.2 -24.2 12.5 58 59 59
-33.9 -24.2 12.5 60 62 60
-33.6 -24.2 12.5 58 59 59
-33.3 -24.2 12.5 58 59 59
-33.0 -24.2 12.5 58 59 59
-32.7 -24.2 12.5 59 59 59
-32.4 -24.2 12.5 59 59 59
-32.1 -24.2 12.5 59 59 59
-31.8 -24.2 12.5 59 59 59
-31.5 -24.2 12.5 57 57 57
-31.3 -24.2 12.6 54 54 54
-30.9 -24.2 12.5 55 55 55
-30.6 -24.2 12.5 55 55 55
-30.3 -24.2 12.5 55 55 55
-30.0 -24.2 12.5 50 50 50
-29.8 -24.2 12.5 50 50 50
-29.5 -24.2 12.5 50 50 50
-29.1 -24.1 12.5 50 50 50
-28.8 -24.1 12.5 50 50 50
-28.6 -24.1 12.5 50 50 50
-28.3 -24.1 12.5 50 50 50
-28.0 -24.1 12.5 50 50 50
-27.8 -24.2 12.6 51 51 51
-27.5 -24.2 12.6 51 51 51
-27.2 -24.2 12.6 51 51 51
-26.9 -24.2 12.5 51 51 51
-26.5 -24.1 12.5 51 51 51
-26.1 -24.1 12.5 51 51 51
-26.0 -24.2 12.5 50 50 50
-25.7 -24.2 12.5 47 47 47
-25.4 -24.2 12.5 47 48 47
-25.1 -24.2 12.5 50 50 50
-24.8 -24.2 12.5 47 48 47
-24.5 -24.2 12.6 47 48 47
-24.2 -24.2 12.5 46 46 46
-24.0 -24.2 12.6 43 43 43
-23.7 -24.2 12.6 43 43 43
-23.3 -24.2 12.5 43 42 41
-23.1 -24.2 12.5 43 42 41
-22.8 -24.2 12.6 43 42 41
-22.4 -24.1 12.5 43 42 41
-22.2 -24.1 12.5 44 43 42
-21.3 -24.2 12.5 42 42 42
-21.1 -24.2 12.6 42 42 42
-20.7 -24.2 12.5 40 42 42
-11.1 -24.1 12.5 29 31 29
-10.7 -24.0 12.4 32 31 30
-10.5 -24.0 12.4 34 34 34
-10.2 -24.0 12.5 39 38 37
6.9 -20.5 10.7 206 206 206
7.1 -20.5 10.6 206 206 206
7.4 -20.5 10.6 206 206 206
7.6 -20.5 10.6 206 206 206
7.9 -20.5 10.6 206 206 206
8.1 -20.5 10.6 205 205 205
8.4 -20.5 10.6 205 205 205
8.6 -20.5 10.6 205 205 205
8.8 -20.5 10.6 205 205 205
9.1 -20.5 10.6 205 205 205
9.4 -20.5 10.6 205 205 205
9.6 -20.5 10.6 205 205 205
9.8 -20.5 10.6 208 208 208
10.1 -20.5 10.6 203 203 203
10.4 -20.5 10.7 203 203 203
10.6 -20.5 10.6 203 203 203
10.8 -20.5 10.6 203 203 203
13.1 -24.2 12.6 205 205 205
11.6 -20.6 10.7 205 205 205
11.8 -20.5 10.6 207 207 207
12.1 -20.5 10.6 203 203 203
12.3 -20.5 10.6 205 205 205
12.6 -20.5 10.6 205 205 205
13.1 -20.5 10.6 205 205 205
16.1 -24.3 12.6 205 205 205
16.4 -24.3 12.6 205 205 205
14.1 -20.5 10.7 205 205 205
14.2 -20.4 10.6 205 205 205
17.8 -24.3 12.6 205 205 205
18.1 -24.2 12.6 205 205 205
15.6 -20.5 10.7 205 205 205
50.7 -58.5 30.4 203 203 203
-11.1 -23.8 12.5 29 31 29
-10.7 -23.7 12.4 28 28 28
-10.4 -23.7 12.4 36 39 38
-10.2 -23.7 12.4 44 44 44
-9.9 -23.9 12.5 176 179 178
-9.7 -23.9 12.6 184 184 184
8.5 -24.0 12.6 205 205 205
8.7 -24.0 12.6 205 205 205
9.3 -23.8 12.5 205 205 205
9.5 -23.8 12.5 205 205 205
9.9 -23.8 12.5 205 205 205
10.1 -23.8 12.5 205 205 205
10.7 -23.8 12.5 205 205 205
11.0 -23.8 12.5 205 205 205
11.3 -23.8 12.5 205 205 205
11.6 -23.8 12.5 205 205 205
11.9 -23.9 12.5 202 202 202
13.0 -23.8 12.5 205 205 205
13.3 -23.8 12.5 205 205 205
13.6 -23.8 12.5 205 205 205
14.5 -23.8 12.5 205 205 205
14.8 -23.8 12.5 205 205 205
15.2 -24.0 12.6 204 204 204
15.7 -23.8 12.5 204 204 204
15.9 -23.8 12.5 204 204 204
16.2 -23.8 12.5 204 204 204
16.9 -24.0 12.6 204 204 204
17.1 -23.8 12.5 204 204 204
17.7 -23.9 12.5 204 204 204
17.9 -23.7 12.5 204 204 204
18.3 -23.8 12.5 204 204 204
18.5 -23.8 12.5 204 204 204
47.4 -56.4 29.6 205 205 205
46.8 -54.9 28.8 205 205 205
47.1 -54.5 28.6 205 205 205
50.4 -57.5 30.2 202 202 202
50.1 -56.4 29.6 202 202 202
48.4 -53.7 28.2 203 203 203
-9.9 -20.4 10.8 46 46 46
-11.1 -23.7 12.6 54 54 54
-10.5 -23.4 12.5 34 34 34
-10.4 -23.9 12.7 48 47 46
9.5 -23.5 12.5 204 204 204
10.7 -23.6 12.5 204 204 204
14.5 -23.5 12.5 204 204 204
15.2 -23.6 12.6 204 204 204
15.9 -23.5 12.5 204 204 204
16.3 -23.6 12.5 204 204 204
16.6 -23.6 12.6 204 204 204
16.9 -23.7 12.6 204 204 204
17.1 -23.5 12.5 204 204 204
17.8 -23.6 12.6 204 204 204
17.9 -23.4 12.5 204 204 204
18.4 -23.7 12.6 204 204 204
18.6 -23.5 12.5 204 204 204
48.4 -57.7 30.7 204 204 204
48.1 -56.6 30.1 204 204 204
48.8 -56.6 30.1 204 204 204
50.8 -58.0 30.8 204 204 204
51.2 -57.7 30.7 207 207 207
51.3 -57.0 30.3 207 207 207
48.8 -53.5 28.4 205 205 205
31.0 -28.2 15.0 166 166 166
-9.9 -20.2 10.8 30 31 30
-10.6 -23.5 12.7 22 25 23
-10.4 -23.6 12.7 47 47 47
-10.1 -23.7 12.7 181 181 181
16.3 -23.4 12.6 203 203 203
16.6 -23.4 12.6 203 203 203
17.0 -23.4 12.6 203 203 203
17.1 -23.2 12.5 203 203 203
18.5 -23.2 12.5 203 203 203
48.6 -57.2 30.8 203 203 203
48.6 -56.4 30.4 203 203 203
49.6 -56.7 30.5 204 204 204
51.8 -57.6 31.0 204 204 204
52.0 -57.1 30.7 204 204 204
50.2 -54.3 29.2 204 204 204
54.1 -57.7 31.1 204 204 204
55.1 -58.1 31.3 204 204 204
55.6 -57.8 31.1 205 205 205
56.3 -57.8 31.1 205 205 205
28.5 -26.8 14.4 203 203 203
30.7 -27.3 14.7 180 180 180
30.8 -27.1 14.6 182 182 182
-9.9 -19.9 10.9 42 42 42
-11.1 -23.1 12.6 46 46 46
-11.0 -23.3 12.7 80 80 80
-10.6 -23.3 12.7 21 24 22
-10.4 -23.3 12.7 54 54 54
-10.1 -23.3 12.7 183 186 185
17.1 -23.3 12.7 205 205 205
48.2 -56.1 30.6 203 203 203
48.5 -55.5 30.3 206 206 206
49.7 -56.2 30.6 206 206 206
50.8 -56.6 30.9 203 203 203
51.9 -57.0 31.1 203 203 203
51.9 -56.3 30.7 203 203 203
50.4 -53.8 29.3 204 204 204
52.4 -55.3 30.1 204 204 204
56.1 -56.9 31.0 204 204 204
28.9 -27.2 14.8 203 203 203
28.7 -26.7 14.6 203 203 203
31.9 -29.4 16.0 203 203 203
31.4 -27.9 15.2 168 168 168
31.2 -27.4 15.0 179 179 179
-11.1 -22.6 12.5 88 88 88
-10.5 -23.3 12.9 55 55 55
-10.4 -23.7 13.1 183 183 183
-10.1 -23.8 13.2 183 186 185
48.4 -54.7 30.2 205 205 205
50.0 -55.7 30.8 205 205 205
51.0 -56.1 31.0 203 203 203
51.9 -56.3 31.1 203 203 203
52.0 -55.6 30.7 203 203 203
50.5 -53.3 29.4 203 203 203
51.9 -54.1 29.8 203 203 203
29.2 -27.2 15.0 204 204 204
32.1 -29.2 16.1 202 202 202
32.8 -29.4 16.2 202 202 202
31.7 -27.2 15.0 181 181 181
-10.6 -21.9 12.3 40 42 42
-10.4 -23.5 13.2 188 188 188
-10.2 -23.8 13.3 181 181 181
-10.0 -24.0 13.4 179 182 181
50.2 -55.3 30.9 205 205 205
51.3 -55.6 31.1 205 205 205
52.1 -55.7 31.2 205 205 205
52.4 -55.3 30.9 205 205 205
52.3 -53.7 30.0 203 203 203
32.8 -29.4 16.4 204 204 204
33.5 -29.7 16.6 202 202 202
33.9 -29.7 16.6 207 207 207
93.2 -46.0 25.7 163 166 165
91.5 -44.9 25.1 161 164 163
-10.5 -23.4 13.3 181 181 181
-10.3 -23.6 13.4 180 180 180
-10.1 -23.9 13.5 178 181 180
50.4 -54.8 31.1 204 204 204
51.6 -55.3 31.3 204 204 204
52.4 -55.4 31.4 205 205 205
52.6 -54.8 31.1 205 205 205
34.3 -30.3 17.2 204 204 204
34.5 -30.2 17.1 204 204 204
34.6 -29.9 17.0 200 200 200
89.5 -43.3 24.5 161 164 163
87.8 -42.2 23.9 152 152 152
-10.5 -23.8 13.7 179 182 181
-10.2 -23.8 13.7 178 181 180
53.0 -55.3 31.7 204 204 204
62.3 -64.1 36.8 204 204 204
85.8 -41.5 23.8 168 168 168
87.5 -42.1 24.2 163 166 165
88.3 -42.2 24.2 161 164 163
86.6 -41.1 23.6 155 155 155
-10.6 -23.7 13.8 179 182 181
-10.3 -23.7 13.8 177 180 179
63.8 -64.8 37.7 204 204 204
62.9 -63.0 36.7 207 207 207
87.0 -41.0 23.9 161 164 163
83.7 -39.2 22.8 155 155 155
65.4 -66.4 39.2 206 206 206
65.3 -65.3 38.5 207 207 207
64.7 -63.9 37.7 207 207 207
66.9 -65.2 38.4 207 207 207
67.4 -64.8 38.2 204 204 204
39.5 -33.6 19.8 205 205 205
-11.3 -25.3 15.1 180 183 182
-10.4 -24.8 14.8 177 177 177
66.2 -66.3 39.7 203 203 203
66.6 -65.8 39.3 206 206 206
66.3 -64.6 38.6 206 206 206
68.3 -65.6 39.2 207 207 207
68.5 -65.0 38.8 207 207 207
39.8 -33.7 20.2 202 202 202
39.3 -33.0 19.7 205 205 205
69.9 -33.5 20.1 176 176 176
60.0 -28.0 16.8 174 174 174
-27.0 -17.9 10.8 71 71 71
-26.8 -17.9 10.8 71 71 71
-26.3 -17.7 10.8 72 72 72
-26.2 -17.8 10.8 72 72 72
-25.9 -17.8 10.8 68 70 68
-25.7 -17.9 10.8 72 72 72
-21.5 -17.9 10.8 152 152 152
-14.9 -17.6 10.7 30 30 30
-9.8 -17.7 10.8 111 111 111
-9.6 -17.9 10.8 84 83 81
-11.3 -25.0 15.2 181 184 183
-10.4 -24.6 14.9 163 163 163
68.2 -66.4 40.2 208 211 210
68.1 -65.4 39.7 206 206 206
70.0 -66.4 40.2 206 206 206
69.1 -64.6 39.2 206 206 206
39.5 -33.0 20.0 205 205 205
39.3 -32.5 19.7 208 208 208
69.7 -33.0 20.0 177 177 177
69.7 -32.8 19.9 177 177 177
58.8 -26.9 16.3 175 175 175
59.0 -26.8 16.3 166 169 168
-27.6 -17.7 10.9 71 71 71
-27.3 -17.7 10.9 80 80 80
-27.1 -17.7 10.9 73 74 72
-26.8 -17.7 10.9 77 77 77
-26.6 -17.7 10.9 77 77 77
-25.0 -17.6 10.8 115 117 116
-22.8 -17.7 10.9 144 144 144
-21.6 -17.7 10.9 153 153 153
-11.4 -24.8 15.3 183 186 185
-11.2 -25.1 15.4 178 178 178
-10.5 -24.3 15.0 156 159 158
69.8 -67.0 41.2 207 210 209
70.0 -66.3 40.8 206 206 206
72.2 -67.4 41.5 206 206 206
69.8 -64.3 39.6 208 211 210
73.5 -66.9 41.1 206 206 206
39.7 -32.8 20.1 208 208 208
39.7 -32.3 19.9 210 213 212
70.1 -32.7 20.1 178 178 178
70.3 -32.6 20.0 178 178 178
58.6 -26.5 16.3 176 176 176
58.5 -26.2 16.1 173 173 173
59.1 -26.3 16.2 166 169 168
-11.5 -24.6 15.4 184 187 186
-11.2 -24.8 15.5 177 177 177
-10.5 -24.1 15.0 159 162 161
74.1 -68.3 42.6 210 213 212
69.9 -63.6 39.7 206 206 206
39.3 -31.6 19.7 208 208 208
39.7 -31.5 19.7 208 208 208
71.0 -32.7 20.4 179 179 179
59.2 -26.3 16.4 177 177 177
58.7 -26.0 16.2 174 174 174
59.2 -26.0 16.2 168 170 169
-11.5 -25.1 15.9 178 178 178
-11.3 -25.5 16.1 164 164 164
76.6 -69.5 44.0 207 210 209
72.7 -65.1 41.2 207 210 209
73.0 -64.5 40.9 207 210 209
39.9 -31.2 19.7 208 208 208
73.1 -33.3 21.1 180 180 180
73.1 -33.1 21.0 180 180 180
59.2 -25.8 16.3 171 173 173
59.6 -25.8 16.3 169 171 170
60.5 -26.0 16.5 156 159 158
47.7 -20.3 12.8 149 149 149
-9.7 -16.6 10.7 37 38 37
-9.5 -16.7 10.7 36 36 36
-11.7 -26.8 17.2 164 164 164
74.0 -65.3 41.9 207 210 209
72.8 -63.4 40.8 207 210 209
40.4 -31.1 20.0 207 207 207
40.8 -31.0 20.0 209 212 211
71.0 -31.5 20.3 181 181 181
69.1 -30.4 19.6 181 181 181
59.9 -25.9 16.7 179 179 179
59.3 -25.5 16.4 172 174 174
59.4 -25.4 16.3 168 168 168
60.6 -25.7 16.5 158 161 160
61.3 -25.8 16.6 155 155 155
-12.5 -15.5 10.1 34 36 34
-12.7 -27.9 18.2 174 174 174
-12.4 -28.0 18.3 168 168 168
73.6 -63.2 41.2 207 210 209
71.9 -31.6 20.6 185 185 185
71.1 -31.1 20.3 185 185 185
70.3 -30.5 19.9 182 182 182
58.9 -24.9 16.3 177 177 177
59.1 -24.8 16.2 171 173 173
60.0 -25.1 16.3 159 162 161
-13.6 -28.4 18.8 176 179 178
-13.1 -28.1 18.6 175 175 175
-12.7 -28.4 18.8 172 172 172
194.1 -150.3 99.6 208 211 210
207.7 -153.5 101.7 207 207 207
189.7 -138.6 91.8 205 205 205
72.0 -31.2 20.7 186 186 186
71.3 -30.7 20.3 186 186 186
70.3 -30.1 19.9 183 183 183
67.6 -28.7 19.0 183 183 183
58.8 -24.5 16.2 174 176 176
58.8 -24.3 16.1 170 171 170
59.4 -24.4 16.2 160 160 160
59.9 -24.5 16.2 155 155 155
-13.9 -28.5 19.1 178 181 180
-13.3 -28.2 19.0 176 176 176
211.9 -161.6 108.7 208 211 210
220.8 -164.4 110.6 208 211 210
267.1 -196.6 132.3 208 211 210
215.8 -157.1 105.7 205 205 205
191.5 -137.8 92.7 205 205 205
71.9 -30.7 20.7 184 184 184
71.3 -30.2 20.3 184 184 184
69.8 -29.4 19.8 184 184 184
58.9 -24.2 16.3 175 177 177
58.7 -23.9 16.1 167 167 167
59.2 -24.0 16.1 161 161 161
59.3 -23.9 16.1 153 153 153
-28.0 -17.1 11.7 55 55 55
-26.9 -17.1 11.7 53 53 53
-19.3 -17.1 11.7 180 183 182
-19.1 -17.1 11.7 121 121 121
-18.2 -17.1 11.7 29 29 29
-17.7 -17.1 11.7 20 23 21
-17.4 -17.1 11.7 29 29 29
-17.1 -17.1 11.7 29 29 29
-16.9 -17.1 11.7 31 31 31
-14.7 -17.1 11.7 47 48 47
-14.4 -17.1 11.7 38 38 38
-14.3 -28.9 19.7 178 178 178
-13.8 -28.8 19.7 177 177 177
-13.8 -29.8 20.4 175 175 175
490.3 -359.4 245.7 208 211 210
269.0 -194.9 133.2 208 211 210
225.9 -161.8 110.6 208 211 210
201.4 -142.7 97.5 207 207 207
72.6 -30.5 20.8 185 185 185
71.7 -29.9 20.5 183 183 183
71.2 -29.5 20.2 185 185 185
71.0 -29.2 20.0 185 185 185
60.3 -24.4 16.7 174 176 176
59.4 -23.8 16.3 166 166 166
59.4 -23.7 16.2 160 160 160
59.8 -23.7 16.2 155 155 155
-27.2 -16.9 11.7 88 89 87
-26.9 -16.8 11.7 130 130 130
-19.1 -16.9 11.7 208 208 208
-18.8 -16.9 11.7 209 209 209
-18.5 -16.8 11.7 136 138 137
-18.2 -16.8 11.7 35 34 33
-18.0 -16.8 11.7 59 59 59
-17.7 -16.8 11.7 63 63 63
-17.4 -16.8 11.7 85 85 85
-17.1 -16.8 11.7 91 93 92
-14.7 -16.9 11.7 91 94 93
-14.4 -16.8 11.7 45 47 46
-14.5 -28.8 20.0 169 171 170
-13.8 -28.4 19.7 173 173 173
-13.7 -29.1 20.2 172 172 172
-13.2 -29.0 20.1 128 131 130
291.6 -207.9 144.4 208 211 210
235.6 -166.1 115.3 208 211 210
66.1 -44.1 30.6 192 192 192
73.8 -30.5 21.2 191 191 191
72.5 -29.8 20.7 188 188 188
71.8 -29.3 20.3 188 188 188
70.5 -28.4 19.7 185 185 185
59.9 -23.6 16.4 164 164 164
59.9 -23.5 16.3 159 159 159
60.5 -23.6 16.4 155 155 155
61.1 -23.7 16.4 149 149 149
61.9 -23.8 16.6 145 145 144
62.6 -24.0 16.6 140 142 141
-14.7 -28.8 20.3 161 164 163
-13.9 -28.2 19.9 160 163 162
-13.7 -28.8 20.3 159 159 159
-13.2 -28.7 20.3 123 125 124
243.0 -168.5 119.0 208 211 210
199.4 -136.7 96.5 212 214 214
65.7 -43.6 30.8 192 192 192
67.3 -44.1 31.2 192 192 192
67.8 -44.0 31.1 192 192 192
73.5 -29.9 21.1 192 192 192
72.1 -29.1 20.6 189 189 189
71.6 -28.7 20.3 189 189 189
71.4 -28.4 20.1 189 189 189
70.8 -28.0 19.8 186 186 186
60.0 -23.2 16.4 158 158 158
60.8 -23.3 16.5 153 155 155
61.2 -23.3 16.5 149 149 149
61.8 -23.4 16.5 142 144 143
-14.0 -28.8 20.7 181 184 183
-13.5 -28.8 20.7 170 172 172
256.1 -199.7 143.3 208 211 210
70.3 -45.8 32.9 192 192 192
71.4 -46.1 33.1 195 195 195
71.6 -28.5 20.4 190 190 190
71.5 -28.2 20.3 190 190 190
71.4 -28.0 20.1 190 190 190
70.9 -27.6 19.8 188 188 188
62.2 -23.5 16.8 153 153 153
62.0 -23.2 16.7 149 149 149
62.7 -23.3 16.8 139 138 137
-14.4 -29.1 21.3 180 180 180
-13.8 -29.0 21.2 177 177 177
12.6 -15.2 11.1 207 210 209
15.7 -15.2 11.1 205 208 207
16.0 -15.3 11.1 205 208 207
16.5 -15.2 11.1 205 208 207
367.4 -281.7 205.6 207 210 209
342.4 -259.2 189.2 208 211 210
417.8 -312.3 227.9 208 211 210
413.2 -304.9 222.5 208 211 210
423.3 -308.5 225.2 208 211 210
72.9 -46.3 33.8 195 195 195
72.4 -28.5 20.8 194 197 196
72.3 -28.3 20.6 191 191 191
72.1 -28.0 20.4 191 191 191
72.6 -28.0 20.4 191 191 191
73.1 -28.0 20.4 185 185 185
78.4 -29.8 21.8 178 181 180
75.2 -28.4 20.8 169 171 170
63.2 -23.5 17.1 148 150 150
63.4 -23.4 17.1 139 141 140
64.4 -23.6 17.2 131 131 131
-16.3 -31.3 23.2 180 180 180
-14.5 -31.1 23.1 166 166 166
13.4 -14.7 10.9 206 209 208
13.4 -14.4 10.7 206 209 208
13.8 -14.3 10.7 206 209 208
14.7 -14.5 10.8 205 208 207
15.5 -15.0 11.2 205 208 207
15.7 -14.9 11.1 205 208 207
16.0 -15.0 11.1 205 208 207
16.3 -15.0 11.1 205 208 207
16.4 -14.9 11.1 205 208 207
16.1 -14.4 10.7 204 207 206
407.2 -307.0 227.9 207 210 209
376.3 -280.0 207.9 207 210 209
433.5 -318.5 236.5 208 211 210
439.0 -318.5 236.5 208 211 210
450.1 -322.5 239.4 208 211 210
73.4 -45.8 34.0 196 196 196
75.3 -46.5 34.5 196 196 196
73.6 -28.5 21.1 192 192 192
72.7 -27.9 20.7 192 192 192
72.7 -27.8 20.6 195 195 195
73.7 -27.9 20.7 190 190 190
79.1 -29.6 22.0 175 175 175
64.4 -23.3 17.3 134 137 136
66.2 -23.8 17.7 133 133 133
66.4 -23.8 17.6 133 133 133
66.7 -23.7 17.6 133 133 133
-16.0 -31.3 23.6 179 179 179
-15.4 -31.2 23.6 174 176 176
13.2 -14.2 10.7 206 209 208
13.3 -14.1 10.6 206 209 208
13.8 -14.1 10.6 206 209 208
13.9 -13.9 10.5 205 208 207
14.4 -14.2 10.7 205 208 207
14.6 -14.1 10.7 205 208 207
15.2 -14.2 10.7 205 208 207
15.4 -14.2 10.7 205 208 207
15.7 -14.2 10.7 204 207 206
15.9 -14.2 10.7 204 207 206
16.0 -14.1 10.6 204 207 206
16.1 -13.9 10.5 204 207 206
439.0 -325.2 245.7 207 210 209
376.3 -275.1 207.9 207 210 209
517.6 -373.7 282.3 207 210 209
82.9 -30.7 23.2 177 177 177
83.3 -30.6 23.2 167 167 167
67.3 -23.8 18.0 132 132 132
67.2 -23.6 17.9 132 132 132
67.4 -23.6 17.8 134 134 134
-16.9 -33.6 25.8 91 93 92
-16.6 -34.2 26.3 87 87 87
13.3 -13.8 10.6 210 210 210
13.7 -13.7 10.5 205 208 207
13.8 -13.6 10.5 205 208 207
14.5 -13.7 10.6 205 208 207
15.7 -14.0 10.7 204 207 206
15.9 -13.7 10.5 208 208 208
16.1 -13.6 10.5 208 208 208
84.4 -30.7 23.6 153 155 155
85.5 -30.9 23.8 146 148 148
87.4 -31.4 24.1 140 142 141
70.0 -24.5 18.8 134 134 134
68.5 -23.8 18.3 133 133 133
68.0 -23.5 18.1 129 132 131
68.0 -23.4 18.0 129 132 131
-17.2 -33.6 26.3 89 89 89
-16.7 -33.7 26.4 87 87 87
13.8 -13.3 10.4 210 210 210
15.7 -13.7 10.8 208 208 208
89.0 -31.6 24.7 131 134 133
89.7 -31.6 24.8 131 134 133
69.2 -23.6 18.5 128 128 128
68.7 -23.3 18.3 128 128 128
68.5 -23.1 18.1 128 128 128
-17.2 -33.0 26.3 91 93 92
-16.7 -33.1 26.4 89 91 90
21.7 -17.2 13.7 208 208 208
91.1 -31.5 25.2 116 118 117
91.5 -31.5 25.1 121 121 121
67.5 -22.4 17.8 123 123 123
-25.7 -13.4 10.9 24 24 24
-23.8 -13.4 10.9 146 146 146
-17.9 -33.8 27.5 91 93 92
-16.9 -33.0 26.8 89 91 90
21.0 -16.2 13.1 215 215 215
93.3 -31.5 25.6 112 112 112
67.6 -22.0 17.8 118 120 119
-23.8 -13.1 10.9 149 149 149
-23.5 -13.1 10.8 124 127 126
-20.1 -35.9 29.7 136 138 137
-18.8 -34.8 28.8 91 94 93
-18.2 -34.8 28.8 90 92 91
-17.8 -35.5 29.4 64 63 61
15.5 -13.2 11.0 208 208 208
21.6 -16.5 13.7 211 211 211
21.1 -15.9 13.2 211 211 211
-23.8 -12.9 10.9 145 145 144
-20.7 -36.2 30.6 125 125 125
-19.4 -35.1 29.6 94 94 94
-19.0 -35.6 30.1 93 93 93
-18.4 -35.8 30.2 79 79 79
15.7 -13.9 11.7 209 209 209
15.8 -13.7 11.6 209 209 209
21.7 -16.3 13.8 211 211 211
599.3 -355.6 300.3 217 217 217
15.8 -13.4 11.6 209 209 209
20.4 -15.5 13.3 210 210 210
21.7 -16.0 13.8 211 211 211
21.4 -15.5 13.4 215 215 215
18.8 -13.5 11.6 215 215 215
44.6 -21.2 18.3 193 193 193
44.6 -21.1 18.1 169 169 169
43.3 -20.3 17.5 111 113 112
-22.0 -39.7 34.9 96 99 98
-23.8 -46.3 40.7 112 112 112
16.1 -12.7 11.2 211 211 211
16.4 -12.8 11.2 211 211 211
16.6 -12.7 11.2 210 210 210
20.4 -15.4 13.5 210 210 210
20.5 -15.2 13.4 210 210 210
21.5 -15.5 13.6 215 215 215
42.9 -19.7 17.3 115 114 114
46.5 -13.9 12.2 148 148 148
46.6 -13.8 12.2 123 125 124
-22.5 -39.8 35.7 95 98 97
-23.3 -44.4 39.8 27 27 27
21.5 -15.2 13.6 215 215 215
150.1 -77.5 69.5 202 202 202
127.4 -65.1 58.4 202 202 202
42.4 -19.0 17.1 117 119 118
46.5 -13.6 12.2 161 161 161
46.3 -13.5 12.1 130 130 130
-23.4 -40.5 37.1 96 99 98
-23.7 -42.6 39.1 108 108 108
-23.8 -44.5 40.8 26 25 24
147.4 -74.5 68.3 202 202 202
129.0 -64.5 59.1 202 202 202
42.3 -18.6 17.0 113 114 113
942.3 -332.9 305.1 40 40 40
51.9 -15.3 14.0 74 74 74
52.1 -15.3 14.0 75 76 76
45.9 -13.1 12.0 126 128 127
-24.5 -43.2 40.4 113 112 111
-24.4 -44.7 41.9 21 21 21
15.9 -12.4 11.6 215 215 215
16.1 -12.3 11.6 215 215 215
17.0 -12.4 11.6 215 215 215
17.1 -12.3 11.5 215 215 215
21.2 -15.0 14.0 214 214 214
141.8 -70.1 65.7 202 202 202
129.4 -63.3 59.3 202 202 202
42.4 -18.2 17.1 117 119 118
51.9 -14.9 14.0 77 77 77
52.0 -14.9 13.9 79 79 79
45.9 -12.8 12.0 124 124 124
-26.6 -45.7 43.8 112 112 112
-26.5 -51.5 49.3 19 19 19
15.8 -12.0 11.5 215 215 215
15.9 -11.9 11.4 215 215 215
16.9 -12.1 11.6 215 215 215
17.0 -12.0 11.5 218 218 218
131.1 -68.6 65.7 219 219 219
144.8 -70.1 67.1 202 202 202
138.0 -66.1 63.3 202 202 202
42.4 -17.8 17.1 108 110 110
52.0 -14.5 13.9 79 79 79
50.7 -14.1 13.5 79 79 79
46.0 -12.5 12.0 123 123 123
-27.5 -46.3 45.4 114 116 115
-33.2 -58.0 56.8 26 25 24
-29.7 -54.1 53.0 30 29 29
-27.6 -52.5 51.4 115 114 114
-25.7 -51.0 49.9 172 174 174
15.7 -11.5 11.3 211 211 211
16.9 -11.6 11.4 218 218 218
414.9 -212.3 207.9 219 219 219
356.0 -174.1 170.4 180 180 180
285.4 -138.0 135.1 198 198 198
152.9 -72.4 70.8 202 202 202
42.3 -17.4 17.0 116 116 116
273.9 -80.8 79.1 52 52 52
50.4 -13.7 13.4 80 83 82
-33.8 -57.7 57.8 47 48 47
-30.5 -54.3 54.4 19 19 19
-28.7 -53.3 53.4 155 155 155
410.4 -205.2 205.6 221 221 221
356.0 -170.1 170.4 182 182 182
-34.6 -57.8 59.3 48 50 48
-31.0 -53.9 55.3 19 19 19
-28.8 -52.2 53.6 150 150 150
-27.6 -52.4 53.7 182 182 182
20.4 -12.2 12.6 218 218 218
434.0 -212.0 217.4 221 221 221
-38.6 -62.9 66.1 27 27 27
-31.2 -52.9 55.6 21 21 21
-28.6 -50.7 53.3 159 159 159
20.4 -12.0 12.6 218 218 218
20.2 -11.7 12.3 218 218 218
21.2 -11.9 12.5 219 219 219
22.2 -12.0 12.6 219 219 219
439.0 -209.3 220.0 221 221 221
272.7 -75.0 78.8 55 54 53
-47.5 -72.6 78.2 110 110 108
-39.0 -62.1 66.8 32 34 33
-29.1 -50.3 54.2 190 190 190
20.3 -11.6 12.5 218 218 218
20.1 -11.3 12.2 218 218 218
21.1 -11.5 12.4 219 219 219
21.1 -11.4 12.3 219 219 219
22.1 -11.6 12.5 219 219 219
21.8 -11.3 12.2 219 219 219
444.2 -206.6 222.5 221 221 221
-49.9 -74.5 82.2 104 104 104
-41.4 -64.1 70.8 23 24 23
-51.7 -91.1 100.6 181 181 181
20.0 -11.0 12.2 218 218 218
21.1 -11.3 12.4 219 219 219
20.9 -11.0 12.2 219 219 219
20.8 -10.8 11.9 219 219 219
21.7 -11.0 12.1 219 219 219
-62.8 -107.6 122.0 180 180 180
20.3 -11.0 12.5 218 221 220
20.2 -10.8 12.2 218 221 220
21.1 -11.0 12.5 218 221 220
21.1 -10.9 12.3 219 222 221
22.0 -11.0 12.5 219 219 219
21.7 -10.7 12.2 219 219 219
-82.9 -126.9 147.8 26 25 24
-80.1 -127.9 148.9 167 167 167
-72.6 -121.2 141.2 179 179 179
20.3 -10.7 12.5 218 221 220
21.2 -10.7 12.5 218 221 220
21.2 -10.6 12.4 219 222 221
22.0 -10.7 12.5 219 219 219
21.8 -10.5 12.2 219 219 219
-88.4 -126.4 151.3 30 29 29
-85.5 -127.5 152.6 23 24 23
-81.3 -126.4 151.3 156 159 158
-76.0 -123.5 147.8 179 179 179
-73.7 -125.4 150.1 179 182 181
20.3 -10.4 12.5 218 221 220
20.3 -10.3 12.3 218 221 220
21.2 -10.5 12.5 218 221 220
21.3 -10.4 12.4 219 222 221
22.0 -10.4 12.5 219 222 221
21.8 -10.2 12.2 219 222 221
135.8 -52.0 62.2 200 200 200
141.9 -53.2 63.7 200 200 200
139.2 -51.6 61.8 202 202 202
-160.7 -232.8 286.6 22 22 22
-98.7 -149.2 183.7 177 177 177
20.3 -10.1 12.5 218 221 220
20.2 -10.0 12.3 218 221 220
21.7 -10.5 13.0 218 221 220
21.2 -10.0 12.3 219 222 221
22.0 -10.1 12.5 219 222 221
21.8 -9.9 12.2 219 222 221
142.3 -53.5 65.9 197 197 197
135.8 -50.5 62.2 197 197 197
138.1 -50.9 62.6 198 198 198
140.5 -51.2 63.1 200 200 200
138.7 -50.0 61.6 198 198 198
-208.0 -292.6 370.9 31 31 31
20.0 -9.6 12.2 218 221 220
21.7 -10.3 13.0 218 221 220
21.0 -9.6 12.2 219 222 221
21.7 -9.6 12.1 219 222 221
137.1 -49.6 62.8 197 197 197
140.0 -49.6 62.8 198 198 198
137.8 -48.3 61.2 198 198 198
19.9 -9.3 12.1 218 221 220
20.8 -9.1 11.9 219 222 221
21.6 -9.3 12.1 219 222 221
161.4 -57.3 74.8 193 193 193
21.7 -9.6 13.0 218 221 220
21.6 -9.0 12.1 219 222 221
21.4 -8.8 11.8 219 222 221
160.1 -55.1 74.2 189 189 189
20.1 -8.8 12.2 218 221 220
21.7 -9.3 13.0 219 222 221
23.1 -9.8 13.6 219 222 221
21.8 -8.8 12.2 219 222 221
161.4 -53.8 74.8 193 193 193
19.9 -8.4 12.1 218 221 220
21.7 -9.0 13.0 219 222 221
21.6 -8.4 12.1 219 222 221
466.1 -162.5 233.5 220 223 222
161.4 -52.0 74.8 185 185 185
173.2 -51.4 73.9 202 202 202
20.1 -8.2 12.2 219 222 221
21.7 -8.7 13.0 219 222 221
21.7 -8.2 12.1 219 222 221
410.4 -138.3 205.6 220 223 222
157.7 -49.1 73.0 181 181 181
150.6 -46.4 69.0 190 190 190
152.8 -46.6 69.3 193 193 193
152.2 -45.9 68.3 195 195 195
162.6 -47.1 70.1 202 202 202
164.9 -47.3 70.3 202 202 202
162.9 -46.3 68.8 202 202 202
-374.0 -92.4 142.2 25 25 25
-340.0 -84.7 130.5 32 31 30
-322.4 -86.5 133.2 21 24 22
-359.2 -98.3 151.3 29 29 29
-313.1 -86.5 133.2 31 32 30
-293.5 -81.9 126.1 25 25 25
-298.1 -94.5 145.5 20 23 21
-290.2 -93.1 143.3 152 152 152
-278.4 -90.3 139.1 65 65 65
-259.9 -85.3 131.4 151 151 151
20.2 -7.5 11.5 220 223 222
21.4 -7.7 11.8 220 223 222
21.9 -7.7 11.8 220 223 222
424.2 -138.1 212.5 220 220 220
164.3 -45.5 70.1 202 202 202
155.5 -42.7 65.7 204 204 204
-317.9 -82.3 131.4 58 59 59
-306.4 -80.0 127.8 54 54 54
-383.8 -101.3 161.7 55 55 55
-308.8 -82.3 131.4 51 51 51
-280.4 -75.5 120.5 71 71 71
-292.4 -90.4 144.4 105 105 105
-278.4 -87.1 139.1 33 34 32
-261.7 -82.8 132.3 158 158 158
20.4 -7.3 11.7 220 223 222
20.3 -7.2 11.5 220 223 222
21.3 -7.4 11.8 220 220 220
20.7 -7.1 11.3 220 223 222
21.9 -7.4 11.8 220 223 222
21.8 -7.3 11.6 220 223 222
454.9 -142.7 227.9 222 224 224
144.8 -41.1 65.7 193 193 193
142.9 -40.2 64.1 193 193 193
140.1 -39.0 62.2 195 195 195
154.0 -41.1 65.7 202 202 202
150.3 -39.8 63.5 202 202 202
148.8 -39.0 62.2 205 205 205
-480.9 -105.6 175.2 69 69 69
-468.2 -103.7 172.0 67 67 67
-455.9 -101.9 168.9 70 70 70
-452.0 -101.9 168.9 70 70 70
-452.1 -102.8 170.4 68 68 68
-444.1 -101.9 168.9 69 69 69
-436.3 -101.0 167.4 67 68 66
-440.2 -102.8 170.4 70 70 70
-444.2 -104.7 173.5 73 73 73
-428.4 -101.9 168.9 80 82 79
-424.5 -101.9 168.9 168 168 168
-420.5 -101.9 168.9 192 192 192
-416.6 -101.9 168.9 67 67 67
-416.4 -102.8 170.4 73 73 73
-405.2 -101.0 167.4 70 72 69
-387.5 -97.5 161.7 69 69 69
-404.5 -102.8 170.4 69 69 69
-386.6 -99.2 164.5 75 76 76
-333.5 -86.4 143.3 91 93 91
-332.1 -96.7 160.3 67 67 67
-342.9 -101.0 167.4 92 95 94
-330.2 -98.3 163.1 149 149 149
-323.7 -97.5 161.7 59 59 59
-337.2 -102.8 170.4 162 162 162
-339.3 -104.7 173.5 102 102 102
-326.3 -101.9 168.9 53 52 52
-322.4 -101.9 168.9 53 52 52
20.1 -7.4 12.2 220 223 222
21.7 -7.8 13.0 220 223 222
21.7 -7.3 12.1 220 220 220
21.4 -7.1 11.8 221 221 221
22.0 -7.1 11.8 222 224 224
139.6 -37.8 62.6 193 193 193
137.0 -36.7 60.8 195 195 195
148.8 -37.9 62.8 203 203 203
141.3 -35.6 59.1 205 205 205
20.4 -7.3 12.6 220 223 222
20.1 -7.1 12.2 220 223 222
21.7 -7.5 13.0 222 224 224
21.7 -7.0 12.2 221 221 221
21.5 -6.9 11.9 221 221 221
22.3 -7.1 12.2 221 221 221
22.2 -6.9 12.0 221 221 221
134.8 -34.7 59.9 194 194 194
141.3 -34.3 59.1 205 205 205
209.5 -50.3 86.8 200 200 200
20.0 -6.8 12.1 221 221 221
21.7 -7.2 13.0 221 221 221
21.7 -6.8 12.1 221 221 221
22.3 -6.8 12.2 222 222 222
22.2 -6.7 11.9 222 222 222
207.6 -47.9 86.0 197 197 197
20.1 -6.5 12.2 222 222 222
21.7 -6.9 13.0 222 222 222
21.8 -6.5 12.2 222 222 222
21.2 -6.3 11.7 222 222 222
22.0 -6.3 11.8 222 222 222
25.7 -6.9 13.0 222 222 222
201.2 -44.4 83.3 197 197 197
135.4 -87.7 172.0 219 219 219
140.7 -88.5 173.5 217 217 217
137.2 -83.9 164.5 217 217 217
20.1 -6.2 12.2 222 222 222
21.6 -6.6 13.0 222 222 222
21.8 -6.6 12.9 222 222 222
21.8 -6.2 12.2 222 222 222
20.8 -5.8 11.4 224 224 224
21.9 -6.0 11.8 224 224 224
21.6 -5.9 11.5 224 224 224
25.6 -6.6 13.0 224 224 224
136.6 -84.5 173.5 218 218 218
143.3 -86.1 176.8 213 215 215
137.2 -80.1 164.5 213 215 215
21.4 -6.1 12.6 224 224 224
21.8 -5.9 12.2 221 221 221
21.4 -5.7 11.8 221 221 221
20.8 -5.5 11.4 221 221 221
21.9 -5.8 11.8 224 224 224
21.6 -5.6 11.5 224 224 224
25.6 -6.3 13.0 224 224 224
242.8 -46.3 95.1 67 67 67
139.6 -77.6 167.4 213 215 215
21.6 -5.6 12.1 221 221 221
20.7 -5.2 11.3 221 221 221
22.0 -5.5 11.9 221 221 221
21.6 -5.3 11.5 225 225 225
23.4 -5.6 12.0 225 225 225
259.7 -47.1 101.7 69 69 69
21.6 -5.3 12.1 222 222 222
22.2 -5.3 11.9 222 222 222
21.7 -5.1 11.6 222 222 222
23.4 -5.3 12.0 222 222 222
25.1 -5.5 12.6 222 222 222
23.6 -3.3 11.7 225 225 225
23.6 -3.0 11.7 225 225 225
23.7 -2.7 11.7 226 226 226
23.6 -2.7 11.6 218 221 220
23.5 -2.4 11.5 222 222 222
23.4 -2.1 11.5 224 224 224
23.3 -2.1 11.3 219 222 221
23.3 -1.9 11.8 224 224 224
23.5 -1.9 11.5 227 227 227
28.1 -2.2 13.6 219 222 221
960.6 -63.6 394.1 224 224 224
23.1 -1.6 11.7 225 225 225
23.3 -1.6 11.7 225 225 225
23.6 -1.6 11.7 225 225 225
23.7 -1.6 11.6 230 230 230
23.2 -1.6 11.2 220 223 222
20.8 -1.2 10.7 222 224 224
23.4 -1.3 11.7 225 225 225
23.6 -1.3 11.7 225 225 225
23.0 -1.3 11.2 225 225 225
20.7 -1.0 10.6 222 224 224
23.1 -1.0 11.2 222 224 224
23.2 -0.8 11.4 222 224 224
23.0 -0.8 11.2 222 224 224
22.9 -0.5 11.1 223 225 225
79.6 0.0 21.8 144 144 144
79.3 0.5 21.9 108 110 110
80.0 0.5 21.9 146 146 146
27.8 0.6 13.3 193 193 193
80.0 1.0 21.9 138 140 139
21.9 0.8 11.8 225 225 225
23.4 0.8 11.8 224 224 224
23.6 0.8 11.8 224 226 226
23.8 0.8 11.8 224 224 224
27.7 0.9 13.3 185 185 185
79.6 1.5 21.8 124 127 126
84.3 1.6 22.3 87 87 87
83.5 1.6 21.9 169 169 169
21.9 1.1 11.8 222 222 222
22.7 1.1 11.9 222 222 222
22.9 1.1 11.9 225 225 225
23.1 1.1 11.9 225 225 225
23.4 1.1 11.8 225 225 225
23.6 1.1 11.8 225 225 225
23.9 1.1 11.8 225 225 225
27.8 1.3 13.3 191 191 191
79.5 2.1 21.8 126 129 128
79.3 2.0 21.6 96 99 98
81.1 2.0 21.7 87 86 84
81.7 2.0 21.7 92 92 92
82.8 2.1 21.9 88 88 88
82.6 2.0 21.7 169 169 169
22.4 1.4 11.9 224 224 224
22.7 1.4 11.9 224 224 224
23.0 1.4 11.9 224 224 224
23.5 1.4 11.9 224 224 224
27.8 1.6 13.3 192 192 192
80.0 2.6 21.8 96 99 98
82.0 2.6 21.9 87 87 85
82.4 2.6 21.9 93 93 93
94.9 2.9 25.1 91 91 91
29.1 2.5 17.7 199 199 199
29.5 2.5 17.6 202 202 202
29.8 2.5 17.6 207 207 207
30.2 2.5 17.6 215 215 215
30.6 2.5 17.6 218 218 218
30.9 2.5 17.5 220 220 220
27.7 1.9 13.3 190 190 190
97.4 3.6 25.7 99 101 101
29.2 2.9 17.7 200 200 200
29.5 2.9 17.7 200 200 200
29.9 2.9 17.6 208 208 208
30.8 2.9 17.5 221 221 221
27.8 2.2 13.3 191 191 191
99.3 4.3 26.2 100 102 102
29.6 3.3 17.7 202 202 202
29.9 3.3 17.7 207 207 207
27.8 2.5 13.5 220 220 220
27.8 2.5 13.3 194 194 194
29.5 3.7 17.7 199 199 199
100.9 5.6 26.6 96 96 96
103.7 5.7 27.2 75 75 75
-297.5 88.2 236.5 229 232 231
-238.4 72.0 193.0 32 32 32
-330.5 104.1 262.7 232 234 234
-274.8 88.2 222.5 30 29 29
-366.1 122.1 291.0 237 237 237
-350.0 123.2 278.2 232 234 234
-256.7 92.1 207.9 36 37 36
-229.0 86.4 185.5 177 177 177
-220.4 87.3 178.5 237 237 237
-286.7 116.8 227.9 239 239 239
-235.9 97.9 191.1 229 232 231
-251.2 109.0 203.4 229 232 231
-26.4 15.0 25.7 62 62 62
-24.9 14.4 24.8 70 70 70
-26.4 15.6 25.8 65 65 65
-24.7 14.9 24.6 61 61 61
-23.1 14.3 23.6 63 64 62
-28.8 17.3 27.5 58 58 58
-28.0 17.2 27.3 55 55 55
-27.3 17.1 27.3 51 52 50
-26.7 17.2 27.3 113 115 114
-733.6 178.8 274.1 126 128 127
-727.2 178.8 274.1 126 129 128
-720.9 178.8 274.1 118 120 119
-714.5 178.8 274.1 115 115 115
-708.1 178.8 274.1 112 112 112
-701.7 178.8 274.1 115 114 114
-695.4 178.8 274.1 116 116 116
-689.0 178.8 274.1 118 120 119
-682.6 178.8 274.1 118 120 119
-676.3 178.8 274.1 118 120 119
-660.3 176.2 270.2 119 121 120
-654.0 176.2 270.2 124 124 124
-657.1 178.8 274.1 119 121 120
-660.3 181.4 278.2 115 114 114
-653.9 181.4 278.2 115 114 114
-638.0 178.8 274.1 141 141 141
-631.7 178.8 274.1 171 173 173
-616.3 176.2 270.2 107 107 107
-618.9 178.8 274.1 97 97 97
-621.5 181.4 278.2 99 99 99
-606.2 178.8 274.1 100 102 102
-599.8 178.8 274.1 111 111 111
-593.4 178.8 274.1 112 114 113
-446.8 176.2 270.2 123 125 124
-440.5 176.2 270.2 133 133 133
-440.5 178.8 274.1 134 137 136
-434.1 178.8 274.1 133 133 133
-461.2 192.7 295.6 148 148 148
-461.5 195.8 300.3 150 152 152
-447.4 192.7 295.6 176 179 178
-408.6 178.8 274.1 164 164 164
-362.9 181.4 278.2 89 89 87
-367.2 186.9 286.6 90 90 90
-350.0 181.4 278.2 100 100 100
-272.4 181.4 278.2 153 155 155
-228.9 156.1 239.4 141 141 141
97.6 162.3 248.9 56 56 56
94.7 148.6 227.9 62 64 61
110.7 179.9 266.4 64 65 63
-308.8 171.2 131.4 90 90 90
-303.6 170.0 130.5 101 101 101
-281.2 159.0 122.0 117 119 118
-295.5 168.8 129.6 115 115 115
-275.5 159.0 122.0 101 101 101
-272.7 159.0 122.0 99 98 96
-280.7 165.4 127.0 95 95 95
17.3 13.8 10.1 95 98 97
17.5 13.8 10.0 83 83 83
17.0 14.0 10.0 76 76 74
17.3 14.0 10.1 68 68 68
17.4 14.0 10.0 68 68 68
17.5 14.3 10.1 45 45 45
26.0 15.0 10.6 207 210 209
26.1 14.9 10.5 204 207 206
25.7 15.4 10.7 211 211 211
26.0 15.4 10.7 214 214 214
26.2 15.3 10.6 214 214 214
33.2 20.1 13.7 211 211 211
33.2 20.5 13.7 214 214 214
33.6 20.5 13.8 211 211 211
33.9 20.5 13.8 214 214 214
33.2 20.8 13.8 217 217 217
26.2 16.1 10.7 217 217 217
26.2 16.4 10.7 169 168 167
25.4 16.7 10.7 155 155 155
25.7 16.7 10.7 156 159 158
25.9 16.7 10.7 164 164 164
26.3 16.6 10.7 163 166 165
