ply
format ascii 1.0
element vertex 2561
property float x
property float y
property float z
property uchar red
property uchar green
property uchar blue
end_header
120.0 -265.1 105.7 163 163 163
122.5 -265.1 105.7 163 163 163
124.3 -263.7 105.1 160 160 160
129.9 -265.1 105.7 161 161 161
130.9 -262.2 104.5 161 161 161
138.8 -268.1 106.9 157 160 159
138.9 -263.7 105.1 154 156 156
146.2 -268.1 106.9 157 160 159
148.7 -268.1 106.9 157 160 159
149.5 -265.1 105.7 157 160 159
151.1 -263.7 105.1 158 161 160
152.7 -262.2 104.5 162 162 162
117.5 -186.9 74.5 156 159 158
52.9 -75.2 30.0 159 162 161
53.3 -74.9 29.8 159 162 161
54.3 -75.2 30.0 158 158 158
55.0 -75.3 30.0 158 158 158
130.1 -99.7 39.7 99 101 101
130.5 -99.3 39.6 105 104 102
130.3 -98.5 39.2 99 101 101
59.9 -183.7 73.9 164 164 164
61.6 -183.7 73.9 164 164 164
63.1 -183.0 73.6 164 164 164
64.8 -183.0 73.6 164 164 164
66.8 -183.7 73.9 165 165 165
68.5 -183.7 73.9 165 165 165
70.2 -183.7 73.9 165 165 165
71.9 -183.7 73.9 165 165 165
73.6 -183.7 73.9 162 162 162
73.9 -180.2 72.5 162 162 162
75.6 -180.2 72.5 162 162 162
77.6 -180.9 72.8 162 162 162
78.7 -179.5 72.2 163 163 163
80.6 -180.2 72.5 163 163 163
82.3 -180.2 72.5 163 163 163
83.7 -179.5 72.2 163 163 163
85.0 -178.8 71.9 160 160 160
86.7 -178.8 71.9 163 163 163
88.7 -179.5 72.2 163 163 163
91.1 -180.9 72.8 161 161 161
90.7 -176.8 71.1 161 161 161
95.6 -183.0 73.6 164 164 164
98.1 -184.4 74.2 161 161 161
97.1 -179.5 72.2 161 161 161
98.4 -178.8 71.9 161 161 161
104.5 -186.6 75.1 161 161 161
105.4 -185.1 74.5 162 162 162
105.0 -181.6 73.0 158 161 160
107.6 -183.0 73.6 158 161 160
109.7 -183.7 73.9 158 161 160
106.8 -176.1 70.8 158 161 160
111.4 -180.9 72.8 158 161 160
110.1 -176.1 70.8 158 161 160
114.3 -180.2 72.5 156 159 158
117.4 -182.3 73.3 156 159 158
114.6 -175.5 70.6 160 163 162
53.3 -75.1 30.2 159 162 161
53.9 -75.0 30.2 159 162 161
54.8 -75.2 30.3 160 163 162
55.5 -75.2 30.3 158 158 158
56.6 -75.7 30.5 159 159 159
127.4 -96.8 38.9 105 104 102
61.3 -41.8 16.8 163 166 165
61.1 -41.4 16.7 197 200 199
62.0 -41.5 16.7 201 203 203
62.3 -41.4 16.7 158 158 158
63.1 -41.7 16.8 201 203 203
62.9 -41.3 16.6 209 209 209
58.7 -132.7 53.9 163 163 163
64.8 -132.3 53.7 163 163 163
65.9 -132.0 53.6 163 163 163
67.3 -132.3 53.7 164 164 164
72.0 -136.6 55.5 164 164 164
79.2 -142.5 57.8 164 164 164
87.2 -142.5 57.8 162 162 162
80.7 -129.8 52.7 162 162 162
84.5 -133.9 54.4 162 162 162
102.9 -160.6 65.2 159 162 161
93.5 -143.8 58.4 159 162 161
91.9 -137.4 55.8 160 163 162
88.3 -130.1 52.8 160 163 162
54.3 -75.9 30.8 159 162 161
54.9 -75.6 30.7 159 162 161
56.0 -76.2 31.0 160 163 162
56.6 -76.0 30.9 160 163 162
57.1 -75.7 30.8 160 163 162
58.5 -76.6 31.1 161 164 163
59.0 -76.4 31.0 159 159 159
59.3 -40.0 16.3 158 158 158
59.4 -39.8 16.2 197 200 199
59.2 -39.5 16.0 197 197 197
60.6 -40.2 16.3 204 204 204
60.5 -39.8 16.2 170 171 170
60.7 -39.7 16.1 160 160 160
61.5 -40.0 16.3 219 219 219
61.4 -39.7 16.1 183 186 185
62.0 -39.8 16.2 197 200 199
39.5 -106.6 43.7 165 165 165
40.5 -106.6 43.7 165 165 165
41.4 -106.3 43.6 165 165 165
42.5 -106.6 43.7 162 162 162
43.4 -106.3 43.6 165 165 165
44.3 -106.1 43.5 162 162 162
45.5 -106.3 43.6 162 162 162
46.5 -106.3 43.6 162 162 162
47.5 -106.3 43.6 163 163 163
48.6 -106.6 43.7 163 163 163
49.5 -106.3 43.6 163 163 163
50.8 -106.8 43.8 163 163 163
51.8 -106.8 43.8 163 163 163
52.7 -106.6 43.7 163 163 163
53.6 -106.3 43.6 163 163 163
54.5 -106.1 43.5 164 164 164
55.7 -106.6 43.7 164 164 164
56.7 -106.6 43.7 164 164 164
57.5 -106.1 43.5 164 164 164
64.0 -106.8 43.8 165 165 165
65.0 -106.8 43.8 165 165 165
66.0 -106.8 43.8 165 165 165
68.1 -108.6 44.5 165 165 165
67.7 -106.3 43.6 165 165 165
69.1 -106.8 43.8 163 163 163
79.4 -115.9 47.5 164 164 164
73.8 -106.3 43.6 161 164 163
73.2 -103.9 42.6 165 165 165
55.8 -76.1 31.2 162 165 164
57.4 -77.3 31.7 160 163 162
57.6 -76.6 31.4 160 163 162
58.1 -76.4 31.3 160 163 162
60.1 -77.9 32.0 161 164 163
60.4 -77.4 31.7 161 164 163
62.6 -78.3 32.1 160 160 160
62.7 -77.6 31.8 161 161 161
150.0 -113.4 46.5 104 103 101
134.0 -100.5 41.2 105 104 102
58.9 -39.2 16.1 197 197 197
57.5 -38.0 15.6 197 197 197
60.6 -39.8 16.3 206 206 206
59.9 -39.1 16.0 209 209 209
59.3 -38.5 15.8 212 213 212
61.4 -39.5 16.2 204 204 204
61.0 -39.0 16.0 197 197 197
61.6 -39.2 16.1 212 213 212
34.0 -101.3 41.9 164 164 164
34.9 -101.1 41.9 164 164 164
35.9 -101.1 41.9 164 164 164
36.8 -101.1 41.9 164 164 164
37.9 -101.3 41.9 165 165 165
38.2 -99.6 41.2 165 165 165
39.8 -101.1 41.9 165 165 165
40.7 -101.1 41.9 165 165 165
40.6 -98.5 40.8 165 165 165
42.6 -100.9 41.8 162 162 162
43.7 -101.1 41.9 162 162 162
44.6 -101.1 41.9 162 162 162
45.6 -101.1 41.9 163 163 163
45.4 -98.5 40.8 163 163 163
47.5 -101.1 41.9 166 166 166
47.3 -98.5 40.8 166 166 166
48.2 -98.5 40.8 166 166 166
49.2 -98.5 40.8 166 166 166
49.7 -97.7 40.4 166 166 166
52.3 -100.9 41.8 166 166 166
53.5 -101.3 41.9 167 167 167
53.2 -98.9 40.9 167 167 167
55.2 -100.9 41.8 167 167 167
53.1 -95.4 39.5 167 167 167
59.7 -102.0 42.2 167 167 167
61.3 -102.9 42.6 168 168 168
60.2 -99.6 41.2 168 168 168
61.3 -99.8 41.3 168 168 168
62.7 -100.4 41.6 168 168 168
65.1 -102.7 42.5 165 165 165
65.1 -101.1 41.9 165 165 165
72.3 -103.2 42.7 165 165 165
70.0 -98.5 40.8 165 165 165
56.0 -75.7 31.3 166 166 166
58.1 -77.6 32.1 162 165 164
58.5 -77.1 31.9 163 166 165
61.6 -79.2 32.8 161 164 163
76.9 -96.4 39.9 160 160 160
64.5 -78.9 32.7 161 161 161
153.0 -114.5 47.4 104 103 101
119.8 -88.4 36.6 105 104 102
55.3 -36.2 15.0 197 200 199
54.2 -35.3 14.6 183 186 185
58.3 -37.6 15.6 177 177 177
57.2 -36.7 15.2 212 213 212
56.1 -35.8 14.8 183 186 185
58.5 -37.1 15.4 216 216 216
57.8 -36.4 15.1 212 213 212
17.7 -91.8 38.4 162 162 162
18.6 -91.8 38.4 161 161 161
19.5 -91.8 38.4 164 164 164
20.4 -91.8 38.4 164 164 164
21.3 -91.8 38.4 164 164 164
22.2 -91.8 38.4 166 166 166
23.1 -91.8 38.4 168 170 169
23.8 -91.3 38.1 168 170 169
24.7 -91.3 38.1 168 170 169
25.6 -91.3 38.1 166 166 166
26.6 -91.8 38.4 166 166 166
27.5 -91.8 38.4 167 167 167
28.4 -91.8 38.4 167 167 167
29.4 -92.0 38.4 167 167 167
30.3 -92.0 38.4 161 161 161
31.2 -92.0 38.4 164 164 164
32.1 -92.0 38.4 164 164 164
32.7 -91.3 38.1 164 164 164
33.6 -91.3 38.1 164 164 164
34.4 -91.1 38.1 165 165 165
35.3 -91.3 38.1 165 165 165
36.3 -91.4 38.2 165 165 165
37.0 -90.9 38.0 165 165 165
38.0 -91.3 38.1 165 165 165
38.7 -90.9 38.0 165 165 165
39.6 -90.9 38.0 165 165 165
40.9 -91.8 38.4 162 162 162
41.6 -91.3 38.1 166 166 166
42.5 -91.4 38.2 166 166 166
43.5 -91.6 38.3 169 169 169
44.7 -92.2 38.5 169 169 169
45.3 -91.6 38.3 169 169 169
46.0 -91.3 38.1 169 169 169
46.9 -91.3 38.1 169 169 169
47.8 -91.3 38.1 170 171 170
48.7 -91.4 38.2 170 171 170
49.7 -91.6 38.3 170 171 170
50.1 -90.7 37.9 170 171 170
51.2 -91.1 38.1 170 171 170
52.9 -92.6 38.7 170 171 170
53.7 -92.4 38.6 170 171 170
54.5 -92.2 38.5 170 171 170
55.9 -92.9 38.8 170 171 170
56.0 -91.6 38.3 172 172 172
56.6 -91.3 38.1 172 172 172
59.1 -93.7 39.2 172 172 172
59.7 -93.3 39.0 172 172 172
59.0 -90.9 38.0 172 172 172
57.1 -86.5 36.2 169 169 169
66.7 -92.9 38.8 168 168 168
65.4 -90.0 37.6 168 168 168
75.8 -94.1 39.3 161 164 163
72.7 -89.3 37.3 162 165 164
53.3 -34.3 14.3 177 177 177
51.8 -33.2 13.9 181 184 183
55.0 -34.8 14.5 212 213 212
53.7 -33.7 14.1 219 219 219
56.1 -35.0 14.6 219 219 219
32.0 -83.9 35.4 168 168 168
32.5 -83.0 35.0 165 165 165
33.5 -83.6 35.3 168 168 168
34.0 -82.9 35.0 168 168 168
34.7 -82.5 34.8 168 168 168
39.9 -83.3 35.2 171 173 173
40.6 -83.0 35.0 169 169 169
41.3 -82.7 34.9 169 169 169
42.2 -82.9 35.0 171 173 173
43.1 -83.0 35.0 171 173 173
43.9 -83.0 35.0 171 173 173
44.6 -82.9 35.0 172 174 174
45.7 -83.5 35.2 172 174 174
46.4 -83.2 35.1 172 174 174
46.6 -82.1 34.6 172 174 174
48.0 -83.2 35.1 174 176 176
49.3 -83.9 35.4 174 176 176
49.7 -83.2 35.1 172 174 174
50.8 -83.6 35.3 173 175 175
52.2 -84.6 35.7 173 175 175
52.5 -83.8 35.4 173 175 175
53.9 -84.7 35.8 173 175 175
54.9 -84.9 35.8 173 175 175
55.7 -84.9 35.8 173 175 175
55.0 -82.5 34.8 174 176 176
55.4 -81.9 34.6 174 176 176
40.2 -50.0 21.1 164 167 166
40.7 -50.0 21.1 168 168 168
50.4 -31.9 13.5 181 184 183
52.7 -32.8 13.8 219 219 219
51.7 -32.0 13.5 219 219 219
30.5 -79.3 33.8 170 172 172
31.3 -79.3 33.8 172 174 174
32.2 -79.5 33.9 170 172 172
33.0 -79.5 33.9 170 172 172
33.2 -78.1 33.3 173 175 175
34.3 -79.0 33.7 173 175 175
38.6 -79.8 34.0 171 173 173
39.2 -79.3 33.8 173 175 175
39.2 -77.7 33.1 173 175 175
39.8 -77.5 33.0 178 178 178
40.8 -77.9 33.2 171 173 173
41.8 -78.3 33.4 181 181 181
42.6 -78.3 33.4 179 179 179
43.4 -78.4 33.4 179 179 179
44.3 -78.7 33.5 179 179 179
44.4 -77.5 33.0 172 174 174
45.3 -77.7 33.1 179 179 179
47.3 -79.8 34.0 179 179 179
47.5 -78.7 33.5 179 179 179
48.1 -78.4 33.4 179 179 179
49.7 -79.8 34.0 180 180 180
49.9 -78.8 33.6 182 182 182
51.3 -79.8 34.0 175 177 177
51.8 -79.4 33.8 180 180 180
54.0 -81.6 34.8 175 177 177
53.1 -79.0 33.7 174 176 176
53.3 -78.1 33.3 181 181 181
54.3 -78.4 33.4 174 176 176
40.7 -49.5 21.1 175 175 175
42.1 -26.3 11.2 216 216 216
42.4 -26.3 11.2 216 216 216
42.4 -26.1 11.1 219 219 219
27.4 -70.4 30.3 170 172 172
28.1 -70.4 30.3 170 172 172
28.8 -70.4 30.3 179 179 179
31.0 -70.5 30.4 184 184 184
35.8 -70.4 30.3 194 194 194
36.4 -70.2 30.2 194 194 194
43.1 -74.5 32.1 194 194 194
41.2 -69.9 30.1 194 194 194
45.7 -76.3 32.8 194 194 194
44.9 -73.7 31.7 194 194 194
44.2 -71.5 30.8 200 200 200
44.5 -70.8 30.5 200 200 200
45.6 -71.3 30.7 200 200 200
45.3 -69.9 30.1 197 197 197
52.1 -76.7 33.0 195 195 195
53.7 -76.8 33.1 198 198 198
28.0 -37.9 16.3 197 197 197
27.7 -37.0 15.9 197 197 197
26.8 -35.3 15.2 198 198 198
41.4 -49.9 21.5 200 200 200
42.2 -25.9 11.2 212 213 212
42.1 -25.7 11.0 219 219 219
41.7 -25.3 10.9 219 219 219
15.3 -69.1 30.0 169 171 170
16.0 -69.2 30.1 179 179 179
16.7 -69.2 30.1 178 178 178
17.4 -69.2 30.1 184 184 184
18.1 -69.4 30.2 191 191 191
18.8 -69.2 30.1 189 189 189
19.5 -69.2 30.1 191 191 191
20.2 -69.2 30.1 193 193 193
20.9 -69.2 30.1 193 193 193
21.6 -69.2 30.1 195 195 195
22.3 -69.2 30.1 198 198 198
23.0 -69.2 30.1 198 198 198
23.7 -69.2 30.1 202 202 202
24.4 -69.3 30.1 202 202 202
25.1 -69.2 30.1 202 202 202
25.8 -69.3 30.1 202 202 202
26.5 -69.3 30.1 198 198 198
27.2 -69.2 30.1 198 198 198
28.0 -69.4 30.2 205 205 205
28.7 -69.4 30.2 205 205 205
29.4 -69.4 30.2 205 205 205
30.2 -69.6 30.3 205 205 205
30.7 -69.3 30.1 202 202 202
31.4 -69.3 30.1 205 205 205
32.1 -69.3 30.1 205 205 205
32.9 -69.4 30.2 200 200 200
33.6 -69.4 30.2 200 200 200
34.3 -69.5 30.2 200 200 200
35.0 -69.4 30.2 204 204 204
35.6 -69.2 30.1 200 200 200
36.2 -69.1 30.0 204 204 204
36.9 -69.1 30.0 204 204 204
37.8 -69.4 30.2 200 200 200
38.4 -69.2 30.1 204 204 204
39.0 -69.1 30.0 204 204 204
40.0 -69.6 30.3 204 204 204
40.8 -69.8 30.4 204 204 204
41.0 -68.9 30.0 204 204 204
42.1 -69.6 30.3 204 204 204
43.0 -69.9 30.4 204 204 204
43.5 -69.5 30.2 204 204 204
44.1 -69.4 30.2 204 204 204
44.6 -69.2 30.1 204 204 204
44.8 -68.3 29.7 204 204 204
49.0 -70.4 30.6 205 205 205
27.3 -36.1 15.7 204 204 204
26.7 -34.8 15.1 204 204 204
26.4 -34.0 14.8 205 205 205
39.4 -24.1 10.5 189 189 189
39.6 -24.0 10.5 179 179 179
15.0 -67.0 29.4 203 203 203
15.7 -67.1 29.5 203 203 203
16.3 -67.0 29.4 202 202 202
18.4 -67.1 29.5 205 205 205
19.1 -67.1 29.5 205 205 205
19.8 -67.1 29.5 205 205 205
20.5 -67.1 29.5 205 205 205
21.1 -67.1 29.5 205 205 205
21.8 -67.1 29.5 205 205 205
22.5 -67.1 29.5 205 205 205
23.2 -67.1 29.5 202 202 202
23.9 -67.1 29.5 205 205 205
24.5 -67.0 29.4 205 205 205
25.2 -67.0 29.4 205 205 205
25.9 -67.0 29.4 205 205 205
26.6 -67.0 29.4 205 205 205
27.4 -67.3 29.6 205 205 205
28.1 -67.3 29.6 205 205 205
28.7 -67.2 29.5 205 205 205
29.5 -67.3 29.6 205 205 205
29.9 -66.8 29.3 205 205 205
30.7 -67.0 29.4 205 205 205
31.5 -67.2 29.5 205 205 205
32.2 -67.3 29.6 204 204 204
32.8 -67.2 29.5 204 204 204
33.5 -67.2 29.5 204 204 204
34.3 -67.3 29.6 204 204 204
34.9 -67.2 29.5 204 204 204
35.4 -66.9 29.4 204 204 204
36.0 -66.8 29.3 204 204 204
37.0 -67.3 29.6 204 204 204
37.6 -67.1 29.5 204 204 204
38.1 -66.8 29.3 204 204 204
39.1 -67.3 29.6 204 204 204
40.1 -67.9 29.8 204 204 204
40.4 -67.2 29.5 204 204 204
40.9 -66.9 29.4 204 204 204
42.1 -67.7 29.7 204 204 204
42.7 -67.6 29.7 204 204 204
43.3 -67.4 29.6 204 204 204
43.7 -67.1 29.5 204 204 204
43.8 -66.2 29.1 204 204 204
44.2 -65.6 28.8 204 204 204
27.5 -35.9 15.8 204 204 204
26.7 -34.4 15.1 204 204 204
26.4 -33.6 14.8 205 205 205
24.7 -65.0 28.8 205 205 205
28.8 -65.2 28.9 207 207 207
29.3 -64.8 28.7 207 207 207
31.5 -65.2 28.9 204 204 204
32.2 -65.3 29.0 204 204 204
33.0 -65.4 29.0 204 204 204
33.6 -65.3 29.0 204 204 204
34.1 -65.0 28.8 204 204 204
35.2 -64.6 28.7 204 204 204
36.8 -65.0 28.8 204 204 204
37.3 -64.8 28.7 204 204 204
39.6 -66.4 29.5 204 204 204
39.6 -65.2 28.9 204 204 204
39.5 -64.0 28.4 204 204 204
41.2 -65.6 29.1 204 204 204
42.2 -66.1 29.3 207 207 207
42.6 -65.7 29.1 204 204 204
42.7 -64.8 28.7 204 204 204
42.4 -63.4 28.1 204 204 204
155.4 -222.0 98.5 205 205 205
131.1 -184.5 81.9 205 205 205
122.4 -169.8 75.4 205 205 205
27.7 -36.4 16.1 207 207 207
27.4 -35.5 15.8 207 207 207
26.7 -34.1 15.1 207 207 207
23.2 -27.8 12.3 206 206 206
298.9 -219.7 97.5 123 123 123
117.5 -83.3 36.9 113 115 114
115.5 -81.2 36.0 113 115 114
36.3 -58.2 26.1 207 207 207
36.6 -57.6 25.8 207 207 207
41.7 -64.7 29.0 207 207 207
41.9 -64.0 28.7 207 207 207
41.8 -62.8 28.1 204 204 204
41.3 -61.1 27.4 207 207 207
39.5 -57.5 25.8 207 207 207
39.6 -56.9 25.5 207 207 207
156.2 -220.9 99.0 207 207 207
134.6 -187.5 84.1 205 205 205
125.9 -172.9 77.5 205 205 205
143.0 -190.9 85.6 205 205 205
138.1 -181.8 81.5 206 206 206
27.8 -36.1 16.2 206 206 206
27.7 -35.5 15.9 206 206 206
26.7 -33.8 15.2 209 209 209
26.5 -33.1 14.8 207 207 207
23.2 -27.5 12.3 208 208 208
23.1 -27.1 12.2 209 209 209
35.5 -56.3 25.5 206 206 206
41.6 -61.8 28.0 206 206 206
39.1 -56.3 25.5 206 206 206
38.5 -54.6 24.8 206 206 206
135.2 -186.4 84.4 207 207 207
124.9 -169.7 76.9 207 207 207
141.7 -187.2 84.8 205 205 205
134.1 -174.7 79.1 205 205 205
27.9 -35.9 16.3 205 205 205
27.5 -34.9 15.8 206 206 206
26.8 -33.5 15.2 206 206 206
26.3 -32.5 14.7 206 206 206
23.1 -26.8 12.2 208 208 208
23.8 -27.2 12.3 208 208 208
23.8 -26.9 12.2 209 209 209
41.0 -61.3 28.1 205 205 205
41.5 -61.0 27.9 205 205 205
41.5 -60.0 27.5 205 205 205
40.0 -57.1 26.1 205 205 205
39.1 -54.9 25.2 206 206 206
122.9 -165.2 75.7 206 206 206
114.6 -151.9 69.5 207 207 207
141.7 -185.2 84.8 207 207 207
130.2 -167.9 76.9 207 207 207
27.5 -34.5 15.8 205 205 205
26.8 -33.2 15.2 205 205 205
26.3 -32.2 14.7 206 206 206
26.4 -31.8 14.6 206 206 206
23.8 -26.6 12.2 208 208 208
-29.7 -22.8 10.5 43 43 43
-29.5 -22.8 10.6 46 46 44
-29.2 -22.8 10.6 46 46 44
-29.0 -22.8 10.6 46 46 44
-28.7 -22.8 10.6 46 46 44
-28.5 -22.8 10.6 46 46 44
-26.0 -22.8 10.6 42 43 42
-25.3 -22.8 10.6 40 40 40
-21.9 -22.8 10.6 76 76 74
-20.9 -22.8 10.6 97 100 99
-20.6 -22.8 10.6 101 101 101
-20.4 -22.8 10.6 103 103 103
-19.7 -22.8 10.6 108 110 110
-19.2 -22.8 10.6 107 109 109
-18.9 -22.8 10.6 107 109 109
-14.4 -23.0 10.6 124 124 124
-14.1 -23.0 10.6 125 125 125
-9.4 -22.8 10.6 137 139 138
-9.2 -22.9 10.6 139 138 137
-4.9 -22.8 10.6 163 163 163
-4.7 -22.8 10.6 162 162 162
-3.0 -22.9 10.6 165 165 165
-2.7 -22.8 10.6 165 165 165
-0.8 -22.8 10.6 171 173 173
-0.5 -22.8 10.6 171 173 173
0.2 -22.8 10.6 173 175 175
1.2 -22.8 10.6 179 179 179
1.7 -22.8 10.6 179 179 179
6.6 -22.8 10.6 208 208 208
8.3 -22.9 10.6 205 205 205
9.3 -22.8 10.6 208 208 208
9.5 -22.8 10.6 208 208 208
9.8 -22.8 10.6 208 208 208
10.0 -22.8 10.6 208 208 208
10.8 -22.8 10.6 205 205 205
11.0 -22.8 10.6 205 205 205
41.1 -60.7 28.1 205 205 205
41.6 -60.5 28.0 205 205 205
41.5 -59.4 27.5 205 205 205
39.9 -56.3 26.1 205 205 205
38.4 -53.4 24.7 205 205 205
38.6 -52.9 24.5 205 205 205
122.9 -163.5 75.7 206 206 206
110.5 -144.9 67.1 206 206 206
26.8 -32.9 15.2 205 205 205
26.4 -31.9 14.8 205 205 205
26.4 -31.5 14.6 205 205 205
26.3 -30.9 14.3 206 206 206
23.6 -26.1 12.1 207 207 207
-30.8 -23.4 10.9 46 46 44
-30.7 -23.5 11.0 46 46 44
-30.4 -23.5 11.0 46 46 44
-30.2 -23.5 11.0 46 46 44
-29.9 -23.5 11.0 46 46 44
-29.7 -23.5 11.0 48 48 48
-29.4 -23.5 11.0 48 48 48
-29.1 -23.5 11.0 48 48 48
-28.9 -23.5 11.0 46 46 44
-28.6 -23.5 11.0 48 48 48
-28.4 -23.5 11.0 51 51 51
-28.1 -23.5 11.0 46 46 44
-27.9 -23.5 11.0 46 46 44
-27.6 -23.5 11.0 46 46 44
-27.4 -23.5 11.0 46 46 44
-27.1 -23.5 11.0 43 43 43
-26.8 -23.5 11.0 41 41 41
-26.6 -23.5 11.0 43 43 43
-26.3 -23.5 11.0 43 43 43
-26.1 -23.5 11.0 43 43 43
-25.8 -23.5 11.0 38 38 38
-25.6 -23.5 11.0 43 43 43
-25.3 -23.5 11.0 41 41 41
-25.0 -23.5 11.0 41 41 41
-24.8 -23.5 11.0 41 41 41
-24.5 -23.5 11.0 41 41 41
-24.3 -23.5 11.0 41 41 41
-24.0 -23.5 11.0 41 41 41
-23.8 -23.5 11.0 38 38 38
-23.5 -23.5 11.0 38 38 38
-23.3 -23.5 11.0 43 43 43
-23.0 -23.4 11.0 43 43 43
-22.7 -23.4 10.9 47 48 47
-22.5 -23.4 11.0 46 46 44
-22.3 -23.5 11.0 61 63 61
-22.0 -23.5 11.0 79 81 80
-21.7 -23.5 11.0 86 88 88
-21.4 -23.4 10.9 93 93 93
-21.2 -23.4 10.9 91 91 91
-21.0 -23.5 11.0 102 102 102
-20.7 -23.5 11.0 98 100 100
-20.4 -23.4 10.9 104 104 104
-20.1 -23.4 11.0 106 106 106
-19.9 -23.5 11.0 106 106 106
-19.7 -23.5 11.0 107 107 107
-19.4 -23.5 11.0 107 107 107
-19.2 -23.4 11.0 108 110 110
-18.9 -23.4 10.9 107 107 107
-18.5 -23.5 11.0 107 109 109
-18.2 -23.5 11.0 107 109 109
-17.9 -23.4 11.0 109 111 111
-17.4 -23.4 11.0 112 112 112
-16.7 -23.5 11.0 116 116 116
-16.4 -23.5 11.0 118 118 118
-16.1 -23.4 11.0 119 121 120
-15.8 -23.4 11.0 119 121 120
-15.5 -23.4 10.9 119 121 120
-15.3 -23.4 11.0 120 122 121
-15.1 -23.5 11.0 120 122 121
-14.8 -23.4 10.9 120 122 121
-14.5 -23.4 10.9 120 122 121
-10.8 -23.6 11.0 131 131 131
-10.5 -23.5 11.0 131 134 133
-10.0 -23.4 10.9 135 135 135
-9.7 -23.4 10.9 136 136 136
-9.5 -23.5 11.0 136 138 137
-9.2 -23.4 11.0 139 139 139
-9.0 -23.4 11.0 139 139 139
-8.4 -23.4 11.0 138 140 139
-7.9 -23.5 11.0 139 139 139
-7.7 -23.5 11.0 139 139 139
-7.4 -23.5 11.0 141 141 141
-7.2 -23.4 11.0 145 145 144
-6.9 -23.5 11.0 146 146 146
-6.7 -23.5 11.0 147 147 147
-5.9 -23.5 11.0 162 162 162
-5.4 -23.5 11.0 164 167 166
-5.1 -23.5 11.0 163 166 165
-4.9 -23.5 11.0 161 164 163
-4.6 -23.5 11.0 163 166 165
-4.4 -23.5 11.0 166 166 166
-4.1 -23.5 11.0 167 167 167
-3.9 -23.5 11.0 168 168 168
-3.4 -23.6 11.0 169 169 169
-3.1 -23.5 11.0 171 173 173
-2.8 -23.5 11.0 171 173 173
-2.6 -23.5 11.0 171 173 173
-2.3 -23.5 11.0 171 173 173
-2.1 -23.5 11.0 173 175 175
-1.8 -23.5 11.0 173 175 175
-1.6 -23.5 11.0 173 175 175
-1.3 -23.5 11.0 173 175 175
-0.5 -23.4 11.0 177 177 177
-0.3 -23.5 11.0 179 179 179
0.2 -23.5 11.0 179 179 179
0.7 -23.5 11.0 179 179 179
1.0 -23.5 11.0 179 179 179
1.2 -23.5 11.0 179 179 179
1.5 -23.5 11.0 178 178 178
4.6 -23.5 11.0 182 182 182
4.8 -23.5 11.0 182 182 182
5.1 -23.5 11.0 203 203 203
5.3 -23.5 11.0 205 205 205
6.4 -23.5 11.0 208 208 208
6.6 -23.5 11.0 208 208 208
6.9 -23.5 11.0 208 208 208
7.1 -23.5 11.0 208 208 208
7.4 -23.5 11.0 208 208 208
7.6 -23.5 11.0 208 208 208
7.9 -23.6 11.0 208 208 208
8.2 -23.6 11.0 208 208 208
8.4 -23.5 11.0 208 208 208
8.6 -23.5 11.0 208 208 208
8.9 -23.4 11.0 208 208 208
9.1 -23.4 10.9 208 208 208
9.4 -23.5 11.0 208 208 208
9.7 -23.5 11.0 208 208 208
9.9 -23.5 11.0 208 208 208
10.2 -23.5 11.0 208 208 208
10.7 -23.5 11.0 208 208 208
11.0 -23.5 11.0 207 207 207
11.2 -23.5 11.0 207 207 207
11.5 -23.5 11.0 207 207 207
11.7 -23.5 11.0 207 207 207
12.0 -23.5 11.0 207 207 207
41.4 -59.5 27.9 204 204 204
41.5 -58.8 27.5 204 204 204
40.2 -56.1 26.2 207 207 207
39.3 -54.0 25.3 205 205 205
38.9 -52.6 24.6 205 205 205
26.8 -32.5 15.2 204 204 204
26.4 -31.6 14.8 204 204 204
26.5 -31.3 14.7 205 205 205
26.5 -30.9 14.5 205 205 205
23.7 -25.9 12.1 206 206 206
23.6 -25.6 12.0 207 207 207
-31.2 -23.4 11.1 47 46 45
-32.1 -24.3 11.5 47 46 45
-31.8 -24.3 11.5 47 46 45
-31.6 -24.3 11.5 47 46 45
-31.3 -24.3 11.5 49 49 49
-31.0 -24.3 11.5 49 49 49
-30.8 -24.3 11.5 49 49 49
-30.5 -24.3 11.5 49 49 49
-30.2 -24.3 11.5 49 49 49
-30.0 -24.3 11.5 49 49 49
-29.7 -24.3 11.5 49 49 49
-29.4 -24.3 11.5 49 49 49
-29.2 -24.3 11.5 48 48 48
-28.6 -24.3 11.5 47 46 45
-28.3 -24.3 11.5 44 44 44
-28.1 -24.3 11.5 44 44 44
-27.8 -24.3 11.5 44 44 44
-27.6 -24.3 11.5 44 44 44
-27.3 -24.3 11.5 42 42 42
-27.0 -24.3 11.5 39 39 39
-26.8 -24.3 11.5 39 39 39
-26.5 -24.3 11.5 39 39 39
-25.7 -24.3 11.5 42 42 42
-25.4 -24.3 11.5 42 42 42
-24.9 -24.3 11.5 39 39 39
-24.6 -24.3 11.5 42 42 42
-24.3 -24.3 11.5 39 39 39
-23.4 -23.6 11.2 42 42 42
-23.6 -24.4 11.5 44 44 44
-23.3 -24.3 11.5 47 46 45
-23.0 -24.3 11.5 47 46 45
-22.1 -23.6 11.2 48 48 48
-21.8 -23.6 11.2 68 68 68
-22.3 -24.4 11.5 87 87 87
-21.9 -24.3 11.5 89 91 90
-21.0 -23.6 11.2 91 91 91
-21.4 -24.3 11.5 97 100 99
-21.2 -24.3 11.5 97 100 99
-20.3 -23.6 11.2 99 101 101
-20.6 -24.3 11.5 99 101 101
-19.8 -23.6 11.2 103 103 103
-19.5 -23.6 11.2 103 103 103
-19.9 -24.4 11.5 105 105 105
-19.6 -24.4 11.5 104 104 104
-19.2 -24.3 11.5 107 107 107
-18.4 -23.5 11.1 106 106 106
-18.2 -23.6 11.1 108 108 108
-18.5 -24.3 11.5 109 111 111
-17.9 -24.3 11.5 108 110 110
-17.7 -24.4 11.5 108 110 110
-17.4 -24.3 11.5 110 112 111
-16.6 -23.6 11.2 116 116 116
-16.3 -23.5 11.1 116 116 116
-16.1 -23.5 11.1 115 115 115
-15.8 -23.6 11.2 118 118 118
-15.6 -23.6 11.2 119 119 119
-15.3 -23.5 11.1 119 119 119
-14.9 -23.4 11.0 119 119 119
-14.7 -23.4 11.0 120 122 121
-11.6 -24.6 11.6 124 124 124
-11.3 -24.3 11.5 124 127 126
-10.6 -23.5 11.1 130 130 130
-10.7 -24.3 11.5 131 133 132
-10.1 -23.5 11.1 131 133 132
-9.9 -23.6 11.2 134 134 134
-9.6 -23.5 11.1 134 137 136
-9.4 -23.5 11.1 134 136 135
-9.1 -23.6 11.2 137 137 137
-9.1 -24.3 11.5 140 142 141
-8.3 -24.3 11.5 144 144 144
-8.1 -24.3 11.5 144 144 144
-7.6 -23.6 11.2 146 146 146
-7.3 -23.6 11.2 151 151 151
-7.0 -23.6 11.1 155 155 155
-6.8 -23.5 11.1 156 156 156
-5.6 -24.3 11.5 166 169 168
-5.4 -24.3 11.5 172 172 172
-5.1 -24.3 11.5 175 175 175
-4.8 -24.3 11.5 172 172 172
-4.6 -24.3 11.5 173 175 175
-4.3 -24.3 11.5 175 177 177
-3.9 -23.6 11.2 178 178 178
-3.5 -24.3 11.5 180 180 180
-2.4 -24.3 11.5 182 182 182
-2.2 -24.3 11.5 181 181 181
-1.4 -24.3 11.5 179 179 179
-1.1 -24.3 11.5 179 179 179
-0.3 -24.3 11.5 181 181 181
-0.0 -24.3 11.5 181 181 181
0.8 -24.3 11.5 180 180 180
1.6 -24.2 11.5 180 180 180
2.1 -24.4 11.5 180 180 180
2.4 -24.4 11.5 182 182 182
2.6 -24.3 11.5 182 182 182
5.4 -23.5 11.1 205 205 205
6.4 -24.3 11.5 207 207 207
6.6 -24.3 11.5 207 207 207
6.9 -24.3 11.5 207 207 207
7.4 -24.3 11.5 207 207 207
7.7 -24.3 11.5 207 207 207
8.0 -24.3 11.5 207 207 207
8.2 -24.3 11.5 207 207 207
8.3 -23.6 11.2 207 207 207
8.8 -24.3 11.5 207 207 207
8.8 -23.6 11.2 207 207 207
9.0 -23.6 11.2 207 207 207
9.6 -24.3 11.5 207 207 207
9.8 -24.3 11.5 207 207 207
9.8 -23.6 11.2 207 207 207
10.1 -23.6 11.2 207 207 207
10.7 -24.3 11.5 207 207 207
10.9 -24.3 11.5 207 207 207
11.2 -24.3 11.5 207 207 207
11.5 -24.3 11.5 207 207 207
11.4 -23.6 11.2 207 207 207
12.0 -24.3 11.5 207 207 207
12.3 -24.3 11.5 207 207 207
12.5 -24.3 11.5 207 207 207
40.8 -58.1 27.5 207 207 207
41.0 -57.5 27.2 207 207 207
40.6 -56.0 26.5 204 204 204
40.2 -54.7 25.9 204 204 204
40.4 -54.1 25.6 204 204 204
26.4 -31.2 14.8 204 204 204
26.5 -30.9 14.6 204 204 204
26.5 -30.5 14.5 204 204 204
26.7 -30.4 14.4 205 205 205
27.4 -30.9 14.6 205 205 205
-32.6 -24.2 11.6 48 47 46
-32.3 -24.2 11.6 48 47 46
-32.1 -24.2 11.6 48 47 46
-31.8 -24.2 11.6 49 49 49
-31.3 -24.2 11.6 49 49 49
-31.0 -24.2 11.6 49 49 49
-30.7 -24.2 11.6 49 49 49
-30.4 -24.2 11.6 49 49 49
-35.5 -28.7 13.7 49 49 49
-29.4 -24.2 11.6 48 47 46
-28.8 -24.2 11.6 48 47 46
-27.8 -24.2 11.6 42 43 42
-27.5 -24.2 11.6 42 43 42
-27.2 -24.2 11.6 40 40 40
-27.0 -24.2 11.6 42 43 42
-26.7 -24.2 11.6 42 43 42
-25.8 -24.2 11.6 42 43 42
-25.6 -24.2 11.6 42 43 42
-25.3 -24.2 11.6 40 40 40
-25.1 -24.2 11.6 40 40 40
-29.4 -28.7 13.7 35 35 35
-29.1 -28.7 13.7 38 38 38
-23.2 -24.2 11.6 43 43 43
-22.7 -24.2 11.6 45 45 45
-22.4 -24.3 11.6 51 51 51
-22.1 -24.2 11.6 41 41 41
-21.6 -24.2 11.6 93 93 93
-21.3 -24.2 11.6 89 91 90
-21.0 -24.2 11.6 93 93 93
-20.8 -24.2 11.6 98 98 98
-24.3 -28.7 13.7 98 98 98
-24.0 -28.7 13.7 99 101 101
-20.0 -24.3 11.6 99 101 101
-19.7 -24.2 11.6 101 103 103
-19.4 -24.2 11.6 100 102 102
-19.1 -24.1 11.5 104 104 104
-18.8 -24.2 11.6 104 104 104
-18.6 -24.2 11.6 106 106 106
-17.5 -24.2 11.6 110 110 110
-15.1 -22.9 11.0 116 116 116
-14.7 -22.8 10.9 116 116 116
-15.1 -24.1 11.5 119 119 119
-11.3 -24.1 11.5 122 121 120
-10.8 -24.1 11.5 124 127 126
-9.7 -24.2 11.6 130 130 130
-9.4 -24.1 11.5 131 134 133
-8.1 -24.2 11.6 151 151 151
-6.0 -24.2 11.6 177 177 177
-5.4 -24.2 11.6 178 181 180
-5.1 -24.2 11.6 186 186 186
-4.9 -24.2 11.6 188 188 188
-4.6 -24.2 11.6 186 186 186
-4.3 -24.2 11.6 189 189 189
-3.8 -24.2 11.6 188 188 188
-3.5 -24.2 11.6 188 188 188
-3.3 -24.2 11.6 186 186 186
-3.0 -24.2 11.6 186 186 186
-2.7 -24.2 11.6 186 186 186
-2.5 -24.2 11.6 186 186 186
-2.2 -24.2 11.6 183 183 183
-1.9 -24.2 11.6 183 183 183
-1.4 -24.2 11.6 183 183 183
-1.1 -24.2 11.6 183 183 183
0.5 -24.2 11.6 182 182 182
0.8 -24.2 11.6 182 182 182
1.0 -24.1 11.5 179 179 179
1.3 -24.1 11.5 182 182 182
1.6 -24.1 11.5 182 182 182
2.1 -24.2 11.6 182 182 182
2.4 -24.2 11.6 182 182 182
2.7 -24.2 11.6 181 181 181
2.9 -24.1 11.5 185 185 185
4.8 -24.2 11.6 176 176 176
5.1 -24.2 11.6 176 176 176
5.9 -24.2 11.6 207 207 207
6.1 -24.1 11.5 207 207 207
6.4 -24.1 11.5 207 207 207
6.7 -24.2 11.6 207 207 207
7.0 -24.2 11.6 207 207 207
7.2 -24.2 11.6 207 207 207
7.5 -24.1 11.5 207 207 207
7.8 -24.2 11.6 207 207 207
8.0 -24.2 11.6 207 207 207
8.3 -24.1 11.5 207 207 207
8.6 -24.2 11.6 207 207 207
8.8 -24.2 11.6 207 207 207
9.1 -24.1 11.5 207 207 207
9.4 -24.2 11.6 207 207 207
9.7 -24.2 11.6 207 207 207
9.9 -24.2 11.6 207 207 207
10.2 -24.2 11.6 207 207 207
10.5 -24.2 11.6 207 207 207
10.7 -24.2 11.6 206 206 206
11.0 -24.2 11.6 206 206 206
11.3 -24.2 11.6 206 206 206
11.5 -24.2 11.6 206 206 206
11.8 -24.2 11.6 206 206 206
12.1 -24.2 11.6 206 206 206
12.3 -24.2 11.6 206 206 206
12.6 -24.2 11.6 206 206 206
12.9 -24.2 11.6 206 206 206
13.2 -24.2 11.6 206 206 206
40.9 -57.6 27.6 206 206 206
41.0 -56.9 27.2 206 206 206
40.3 -55.1 26.3 206 206 206
40.1 -54.0 25.8 206 206 206
40.2 -53.3 25.5 209 209 209
39.9 -52.1 24.9 207 207 207
26.4 -30.4 14.6 206 206 206
26.4 -30.1 14.4 206 206 206
26.5 -29.8 14.3 204 204 204
26.9 -29.9 14.3 204 204 204
27.1 -29.8 14.3 204 204 204
-10.8 -24.0 11.6 112 112 112
-10.2 -23.8 11.5 112 112 112
-9.9 -23.8 11.5 109 109 109
-9.8 -24.1 11.6 112 112 112
-9.5 -24.0 11.6 112 111 110
1.0 -24.0 11.6 184 184 184
1.3 -23.8 11.5 184 184 184
1.6 -23.8 11.5 184 184 184
2.4 -24.2 11.7 184 184 184
2.7 -24.0 11.6 184 184 184
2.9 -24.0 11.6 184 184 184
5.1 -24.0 11.6 175 175 175
5.3 -23.7 11.5 200 200 200
5.9 -24.0 11.6 206 206 206
6.1 -23.9 11.6 206 206 206
6.4 -24.0 11.6 206 206 206
6.7 -24.0 11.6 206 206 206
7.0 -24.0 11.6 206 206 206
7.2 -24.0 11.6 206 206 206
7.5 -23.9 11.6 206 206 206
7.8 -24.0 11.6 206 206 206
8.1 -24.0 11.6 206 206 206
8.3 -23.9 11.5 206 206 206
8.6 -23.9 11.6 206 206 206
8.9 -24.0 11.6 206 206 206
9.1 -23.9 11.6 206 206 206
9.5 -24.2 11.7 206 206 206
9.7 -24.1 11.6 206 206 206
9.9 -24.0 11.6 206 206 206
10.2 -23.9 11.6 206 206 206
10.5 -24.1 11.6 206 206 206
10.8 -24.2 11.7 206 206 206
11.0 -24.0 11.6 206 206 206
11.3 -24.0 11.6 206 206 206
11.6 -24.0 11.6 206 206 206
11.9 -24.0 11.6 206 206 206
12.1 -24.0 11.6 206 206 206
12.4 -24.0 11.6 206 206 206
12.6 -24.0 11.6 206 206 206
13.0 -24.1 11.7 206 206 206
13.3 -24.1 11.7 206 206 206
41.8 -58.2 28.1 206 206 206
41.2 -56.4 27.3 206 206 206
40.3 -54.4 26.3 206 206 206
39.8 -53.0 25.6 206 206 206
39.8 -52.1 25.2 206 206 206
39.3 -50.8 24.6 206 206 206
39.4 -50.2 24.3 208 208 208
26.4 -30.1 14.6 205 205 205
26.5 -29.8 14.4 206 206 206
26.7 -29.7 14.4 206 206 206
27.0 -29.7 14.4 206 206 206
27.3 -29.6 14.3 204 204 204
27.8 -29.8 14.4 204 204 204
-10.3 -23.8 11.6 25 25 25
-10.0 -23.8 11.6 25 25 25
-9.8 -23.9 11.7 25 25 25
2.7 -23.9 11.7 183 183 183
5.1 -23.9 11.7 172 172 172
7.3 -23.9 11.7 206 206 206
7.9 -24.0 11.7 206 206 206
8.1 -23.9 11.7 206 206 206
8.3 -23.8 11.6 206 206 206
8.7 -24.1 11.8 206 206 206
8.9 -23.9 11.7 206 206 206
9.2 -24.0 11.7 206 206 206
9.6 -24.2 11.8 206 206 206
9.8 -24.1 11.8 206 206 206
10.1 -24.0 11.7 206 206 206
10.3 -24.0 11.7 205 205 205
10.6 -24.1 11.8 205 205 205
11.0 -24.2 11.8 205 205 205
11.2 -24.1 11.8 205 205 205
11.4 -24.0 11.7 205 205 205
11.8 -24.1 11.8 205 205 205
12.0 -24.1 11.8 205 205 205
12.3 -24.1 11.8 205 205 205
12.6 -24.1 11.8 205 205 205
12.9 -24.2 11.8 205 205 205
13.1 -24.2 11.8 205 205 205
13.4 -24.0 11.8 205 205 205
42.0 -57.9 28.3 205 205 205
41.5 -56.2 27.5 205 205 205
40.2 -53.7 26.3 205 205 205
40.0 -52.6 25.7 205 205 205
40.5 -52.5 25.7 205 205 205
40.4 -51.6 25.2 205 205 205
26.2 -29.6 14.5 205 205 205
26.4 -29.5 14.4 205 205 205
26.7 -29.4 14.4 205 205 205
27.0 -29.3 14.3 205 205 205
27.2 -29.2 14.3 208 208 208
27.7 -29.4 14.4 206 206 206
-37.3 -34.4 17.0 45 45 45
-36.6 -34.2 16.9 47 48 47
-36.0 -34.0 16.8 46 46 46
-35.0 -34.1 16.9 46 46 46
-29.9 -34.1 16.9 47 47 47
-10.1 -23.6 11.7 27 29 27
-9.9 -23.7 11.7 30 29 28
7.9 -23.9 11.8 205 205 205
8.1 -23.6 11.7 208 208 208
9.6 -24.0 11.9 205 205 205
9.9 -23.9 11.8 205 205 205
10.1 -23.9 11.8 205 205 205
10.7 -23.9 11.8 205 205 205
11.0 -24.0 11.9 205 205 205
11.2 -23.9 11.8 205 205 205
11.5 -23.9 11.8 205 205 205
12.1 -23.9 11.8 205 205 205
12.3 -23.9 11.8 205 205 205
12.6 -23.9 11.8 205 205 205
12.9 -24.0 11.9 205 205 205
13.2 -23.9 11.8 202 202 202
13.4 -23.9 11.8 207 207 207
41.9 -57.0 28.2 204 204 204
41.5 -55.6 27.5 204 204 204
40.3 -53.2 26.3 204 204 204
40.3 -52.4 25.9 205 205 205
41.2 -52.8 26.1 205 205 205
41.8 -52.7 26.1 205 205 205
45.7 -56.9 28.1 205 205 205
26.4 -29.5 14.6 204 204 204
26.6 -29.3 14.5 204 204 204
27.0 -29.3 14.5 204 204 204
27.1 -29.2 14.4 205 205 205
27.3 -29.0 14.4 205 205 205
27.7 -29.1 14.4 205 205 205
28.3 -29.3 14.5 205 205 205
28.7 -28.7 14.2 204 204 204
-48.3 -34.3 17.1 52 52 52
-48.3 -34.5 17.3 52 52 52
-47.9 -34.6 17.3 54 54 54
-47.5 -34.5 17.3 57 57 57
-47.1 -34.6 17.3 54 54 54
-46.6 -34.5 17.3 55 55 55
-46.3 -34.5 17.3 57 57 57
-45.9 -34.6 17.3 57 57 57
-45.5 -34.5 17.3 57 57 57
-45.0 -34.5 17.3 55 55 55
-44.6 -34.5 17.3 53 52 52
-44.3 -34.5 17.3 53 52 52
-43.9 -34.5 17.3 55 55 55
-43.5 -34.6 17.3 55 55 55
-43.1 -34.5 17.3 53 52 52
-42.7 -34.5 17.3 51 51 49
-42.4 -34.7 17.4 51 51 49
-42.0 -34.7 17.4 51 51 49
-41.6 -34.7 17.4 47 48 47
-41.1 -34.6 17.3 51 51 49
-40.9 -34.7 17.4 48 48 48
-38.7 -34.6 17.3 48 48 48
-38.3 -34.6 17.3 48 48 48
-37.8 -34.5 17.3 48 48 48
-37.3 -34.4 17.2 48 48 48
-37.0 -34.5 17.3 47 47 47
-36.6 -34.5 17.3 47 47 47
-36.2 -34.5 17.3 47 47 47
-35.7 -34.4 17.2 47 47 47
-35.4 -34.5 17.3 47 47 47
-34.8 -34.7 17.4 47 47 47
-31.9 -34.6 17.3 40 39 38
-31.4 -34.5 17.3 43 43 43
-31.0 -34.5 17.3 42 42 42
-30.5 -34.4 17.2 42 42 42
-30.3 -34.7 17.4 44 44 44
-18.0 -34.3 17.2 27 27 27
-17.6 -34.3 17.1 27 27 27
-17.3 -34.5 17.3 27 27 27
-16.9 -34.6 17.3 26 26 26
-16.6 -34.7 17.4 29 30 28
8.1 -22.5 11.2 208 208 208
8.3 -22.3 11.2 208 208 208
8.5 -22.2 11.1 205 205 205
11.1 -22.3 11.2 204 204 204
42.0 -56.5 28.3 208 208 208
41.6 -55.2 27.6 206 206 206
40.5 -52.8 26.4 204 204 204
40.1 -51.6 25.8 204 204 204
41.6 -52.7 26.4 204 204 204
42.6 -53.1 26.6 204 204 204
45.4 -55.9 28.0 204 204 204
26.5 -29.2 14.6 203 203 203
26.7 -29.1 14.6 204 204 204
27.3 -29.0 14.5 204 204 204
27.5 -28.8 14.4 204 204 204
27.8 -28.8 14.4 204 204 204
28.4 -29.1 14.6 205 205 205
28.8 -29.2 14.6 205 205 205
29.0 -29.0 14.5 203 203 203
-49.4 -34.7 17.6 53 52 52
-49.3 -34.8 17.6 55 55 55
-48.9 -34.8 17.6 58 58 58
-48.4 -34.8 17.6 59 61 59
-48.0 -34.8 17.6 58 58 58
-47.5 -34.8 17.6 58 58 58
-47.2 -34.8 17.6 58 58 58
-46.8 -34.8 17.6 58 58 58
-46.4 -34.8 17.6 58 58 58
-45.9 -34.8 17.6 58 58 58
-45.4 -34.7 17.6 56 56 56
-45.2 -34.8 17.6 56 56 56
-44.7 -34.8 17.6 56 56 56
-44.3 -34.8 17.6 56 56 56
-43.9 -34.8 17.6 53 53 53
-43.4 -34.8 17.6 53 53 53
-43.1 -34.8 17.6 53 53 53
-42.7 -34.8 17.6 52 52 50
-42.3 -34.8 17.6 48 48 48
-41.9 -34.8 17.6 48 48 48
-41.5 -34.8 17.6 49 49 49
-41.1 -34.8 17.6 49 49 49
-40.4 -34.6 17.5 49 49 49
-39.9 -34.9 17.7 52 52 50
-39.4 -34.8 17.6 49 49 49
-39.0 -34.8 17.6 49 49 49
-38.5 -34.8 17.6 49 49 49
-38.1 -34.7 17.6 49 49 49
-37.7 -34.8 17.6 47 48 47
-37.3 -34.7 17.6 47 48 47
-36.9 -34.8 17.6 47 48 47
-36.3 -34.6 17.5 47 48 47
-35.2 -34.7 17.6 43 43 43
-34.8 -34.7 17.6 46 46 46
-33.2 -35.2 17.8 41 40 38
-32.5 -34.8 17.6 41 41 39
-32.0 -34.8 17.6 42 43 42
-31.6 -34.8 17.6 41 41 39
-30.9 -34.5 17.5 41 41 39
-30.5 -34.5 17.5 39 39 39
-18.8 -34.6 17.5 28 28 28
-17.8 -34.3 17.4 27 27 27
-17.6 -34.6 17.5 27 27 27
-16.5 -34.8 17.6 29 31 29
-10.3 -25.0 12.7 34 36 36
40.0 -55.8 28.3 203 203 203
40.5 -55.6 28.1 203 203 203
41.8 -56.5 28.6 206 206 206
42.3 -56.2 28.5 206 206 206
42.2 -55.2 28.0 203 203 203
42.0 -54.2 27.5 203 203 203
42.5 -53.1 26.9 204 204 204
46.9 -57.9 29.3 204 204 204
46.1 -56.0 28.4 204 204 204
26.2 -29.0 14.7 205 205 205
26.7 -29.2 14.8 203 203 203
27.4 -28.8 14.6 203 203 203
27.4 -28.5 14.4 204 204 204
27.7 -28.4 14.4 204 204 204
-36.0 -25.0 12.8 56 56 56
-35.7 -25.0 12.8 58 58 58
-35.4 -25.0 12.8 60 62 60
-35.1 -25.0 12.8 64 64 64
-34.8 -25.0 12.8 58 59 59
-34.5 -25.0 12.8 58 59 59
-34.2 -25.0 12.8 58 59 59
-33.9 -25.0 12.8 58 59 59
-33.6 -25.0 12.8 58 59 59
-33.3 -25.0 12.8 58 59 59
-33.1 -25.0 12.8 58 59 59
-32.7 -24.9 12.8 56 56 56
-32.4 -24.9 12.8 57 57 57
-32.1 -25.0 12.8 57 57 57
-31.8 -25.0 12.8 54 54 54
-31.5 -24.9 12.8 54 54 54
-31.3 -25.0 12.8 53 52 51
-31.0 -25.0 12.8 53 52 51
-30.7 -25.0 12.8 49 49 49
-30.3 -24.9 12.8 49 49 49
-30.1 -25.0 12.8 49 49 49
-29.8 -25.0 12.8 50 50 50
-29.4 -24.9 12.8 50 50 50
-29.2 -25.0 12.8 50 50 50
-28.9 -25.0 12.8 50 50 50
-28.6 -25.0 12.8 53 52 51
-28.3 -25.0 12.8 50 50 50
-28.0 -25.0 12.8 50 50 50
-27.7 -25.0 12.8 50 50 50
-27.4 -25.0 12.8 48 48 48
-27.1 -25.0 12.8 48 48 48
-26.8 -25.0 12.8 48 48 48
-26.5 -25.0 12.8 46 46 46
-26.3 -25.0 12.8 46 46 46
-25.8 -24.9 12.8 46 46 46
-25.5 -24.9 12.7 47 47 47
-25.3 -25.0 12.8 44 44 44
-25.0 -24.9 12.8 47 47 47
-24.7 -25.0 12.8 47 47 47
-24.4 -25.0 12.8 42 43 42
-24.1 -24.9 12.8 42 43 42
-23.8 -24.9 12.8 42 43 42
-23.5 -24.9 12.8 42 42 40
-23.2 -25.0 12.8 42 42 40
-23.0 -25.0 12.8 42 42 40
-22.5 -24.9 12.7 43 43 43
-22.3 -24.9 12.8 40 40 40
-22.1 -25.0 12.8 43 42 41
-21.7 -24.9 12.8 39 41 41
-21.4 -24.9 12.8 39 41 41
-21.1 -24.9 12.8 39 41 41
-20.7 -24.8 12.7 41 41 41
-20.3 -25.0 12.8 31 32 30
-19.9 -24.9 12.8 20 20 20
-19.7 -25.0 12.8 19 19 19
-19.3 -24.9 12.7 19 19 19
-19.0 -24.9 12.8 19 19 19
-18.7 -24.9 12.7 21 21 21
-12.9 -25.1 12.9 29 29 29
-12.7 -25.3 13.0 30 31 30
-12.3 -25.1 12.9 29 31 29
-11.9 -24.8 12.7 29 31 29
-11.5 -24.7 12.7 29 31 29
-11.3 -24.8 12.7 29 30 28
-11.0 -24.9 12.8 31 30 29
-10.7 -24.9 12.8 35 35 35
-10.4 -25.0 12.8 41 41 41
-10.1 -24.9 12.8 156 156 156
41.5 -56.3 28.9 205 205 205
42.5 -56.7 29.1 205 205 205
43.2 -56.8 29.1 205 205 205
42.6 -55.2 28.3 203 203 203
47.3 -57.7 29.6 203 203 203
47.0 -56.5 29.0 206 206 206
46.4 -54.9 28.1 203 203 203
47.0 -54.9 28.1 204 204 204
26.2 -28.6 14.7 205 205 205
26.7 -28.8 14.8 205 205 205
27.5 -28.2 14.5 205 205 205
27.8 -28.1 14.4 203 203 203
-36.1 -24.7 12.8 60 62 60
-35.9 -24.8 12.8 60 62 60
-35.6 -24.8 12.8 58 59 59
-35.3 -24.8 12.8 61 63 61
-35.0 -24.8 12.8 58 59 59
-34.7 -24.8 12.8 58 59 59
-34.3 -24.7 12.8 59 59 59
-34.1 -24.8 12.8 61 63 61
-33.8 -24.8 12.9 59 59 59
-33.5 -24.8 12.9 59 59 59
-33.1 -24.7 12.8 59 59 59
-32.8 -24.7 12.8 59 59 59
-32.6 -24.8 12.8 57 57 57
-32.3 -24.8 12.9 58 58 58
-32.0 -24.8 12.8 58 58 58
-31.6 -24.7 12.8 55 55 55
-31.4 -24.8 12.9 55 55 55
-31.2 -24.8 12.9 54 53 52
-30.8 -24.8 12.9 54 53 52
-30.2 -24.8 12.9 50 50 50
-29.9 -24.8 12.9 50 50 50
-29.5 -24.7 12.8 51 51 51
-29.2 -24.7 12.8 51 51 51
-29.0 -24.7 12.8 51 51 51
-28.6 -24.7 12.8 54 53 52
-28.4 -24.7 12.8 51 51 51
-28.1 -24.8 12.9 51 51 51
-27.8 -24.8 12.8 51 51 51
-27.5 -24.8 12.9 49 49 49
-27.2 -24.8 12.9 49 49 49
-26.9 -24.8 12.9 49 49 49
-26.6 -24.8 12.9 50 50 50
-26.4 -24.9 12.9 47 47 47
-25.9 -24.7 12.8 47 47 47
-25.7 -24.8 12.8 50 50 50
-25.4 -24.7 12.8 47 48 47
-24.8 -24.8 12.9 43 43 43
-24.5 -24.8 12.9 43 43 43
-24.2 -24.7 12.8 43 43 43
-23.9 -24.8 12.9 44 44 44
-23.5 -24.7 12.8 43 42 41
-23.3 -24.8 12.9 43 42 41
-23.0 -24.8 12.9 43 42 41
-22.5 -24.5 12.7 44 43 42
-22.5 -24.8 12.9 41 41 41
-22.2 -24.8 12.9 41 41 41
-21.2 -24.7 12.8 40 42 42
-19.7 -24.7 12.8 16 16 16
-19.4 -24.7 12.8 16 16 16
-19.1 -24.7 12.8 16 16 16
-18.8 -24.7 12.8 18 18 18
-13.0 -24.9 12.9 30 29 29
-12.7 -25.1 13.0 29 29 29
-12.3 -24.9 12.9 29 29 29
-11.5 -24.4 12.7 29 31 29
-11.3 -24.5 12.7 29 31 29
-11.0 -24.7 12.8 32 31 30
-10.7 -24.7 12.8 34 34 34
-10.5 -24.8 12.8 42 42 42
-10.2 -24.7 12.8 175 175 175
8.3 -21.5 11.2 206 206 206
8.4 -21.3 11.0 206 206 206
8.7 -21.2 11.0 206 206 206
8.9 -21.3 11.0 206 206 206
9.5 -21.3 11.1 206 206 206
9.7 -21.3 11.0 208 208 208
10.0 -21.3 11.0 206 206 206
10.2 -21.3 11.0 208 208 208
11.1 -21.4 11.1 206 206 206
11.2 -21.3 11.0 203 203 203
11.5 -21.3 11.0 206 206 206
11.8 -21.3 11.1 208 208 208
12.0 -21.3 11.0 208 208 208
12.3 -21.3 11.0 205 205 205
12.8 -21.3 11.0 205 205 205
15.6 -21.3 11.0 205 205 205
43.7 -56.7 29.4 205 205 205
43.3 -55.3 28.7 205 205 205
47.8 -57.5 29.8 205 205 205
47.7 -56.6 29.4 207 207 207
47.4 -55.4 28.7 203 203 203
26.1 -28.1 14.6 204 204 204
26.5 -28.2 14.7 204 204 204
27.5 -27.8 14.4 205 205 205
27.7 -27.8 14.4 205 205 205
89.5 -45.9 23.8 120 120 120
-28.1 -24.0 12.6 52 52 52
-26.6 -24.7 13.0 51 51 51
-25.5 -24.0 12.6 51 51 51
-22.3 -24.0 12.6 42 42 42
-12.4 -24.7 13.0 30 29 29
-11.3 -23.7 12.4 30 31 30
-11.1 -23.9 12.5 36 36 36
-10.7 -24.3 12.8 36 39 38
-10.5 -24.5 12.9 45 45 45
-10.3 -24.7 13.0 181 181 181
8.3 -21.2 11.2 206 206 206
8.6 -20.9 11.0 205 205 205
11.1 -24.7 13.0 205 205 205
12.3 -24.7 13.0 205 205 205
11.2 -20.9 11.0 205 205 205
13.8 -24.7 13.0 205 205 205
11.9 -20.9 11.0 205 205 205
17.0 -24.9 13.1 205 205 205
17.2 -24.7 13.0 205 205 205
18.2 -24.8 13.0 204 204 204
18.3 -24.7 12.9 204 204 204
47.7 -55.9 29.4 205 205 205
47.4 -54.8 28.8 205 205 205
47.7 -54.4 28.6 205 205 205
26.8 -28.2 14.8 203 203 203
28.0 -27.7 14.6 204 204 204
28.1 -27.4 14.4 204 204 204
89.2 -45.2 23.7 122 122 122
83.1 -41.8 21.9 113 115 114
79.4 -39.7 20.8 113 115 114
84.0 -41.7 21.9 110 112 111
-36.2 -24.2 12.9 62 64 61
-36.0 -24.3 12.9 62 64 61
-35.7 -24.3 12.9 62 64 61
-35.4 -24.2 12.9 62 64 61
-33.3 -24.3 12.9 61 61 61
-32.9 -24.2 12.9 61 61 61
-28.8 -24.3 12.9 53 52 52
-28.5 -24.2 12.9 53 52 52
-27.4 -24.3 12.9 53 53 53
-27.0 -24.3 12.9 53 53 53
-26.8 -24.3 12.9 52 52 52
-26.5 -24.3 12.9 52 52 52
-26.0 -24.2 12.9 52 52 52
-23.2 -24.3 12.9 42 43 42
-22.8 -24.2 12.9 42 43 42
-22.3 -24.3 12.9 42 44 43
-13.0 -24.3 12.9 30 30 30
-12.7 -24.4 13.0 36 37 36
-12.4 -24.4 12.9 39 39 39
-11.4 -24.1 12.8 57 57 57
-11.1 -24.2 12.9 65 67 66
-10.8 -24.2 12.9 36 39 38
-10.5 -24.2 12.9 50 50 50
-10.2 -24.2 12.9 182 182 182
-9.9 -24.2 12.9 183 186 185
-9.6 -24.1 12.8 182 185 184
9.2 -24.2 12.9 205 205 205
9.5 -24.2 12.9 205 205 205
9.9 -24.3 12.9 205 205 205
10.2 -24.3 12.9 205 205 205
10.5 -24.3 12.9 205 205 205
11.1 -24.3 12.9 205 205 205
11.4 -24.3 12.9 205 205 205
11.6 -24.2 12.9 205 205 205
12.0 -24.3 12.9 205 205 205
12.3 -24.3 12.9 205 205 205
13.4 -24.2 12.9 204 204 204
13.7 -24.2 12.9 204 204 204
14.0 -24.2 12.9 204 204 204
15.6 -24.3 12.9 204 204 204
15.8 -24.2 12.9 204 204 204
16.1 -24.2 12.9 204 204 204
16.8 -24.3 12.9 204 204 204
17.0 -24.2 12.9 204 204 204
17.3 -24.2 12.9 204 204 204
18.1 -24.4 13.0 204 204 204
18.2 -24.2 12.9 204 204 204
18.5 -24.2 12.9 204 204 204
18.8 -24.2 12.9 204 204 204
48.4 -56.9 30.2 204 204 204
47.9 -55.5 29.5 204 204 204
51.1 -56.8 30.2 205 205 205
52.3 -57.3 30.5 205 205 205
28.2 -26.9 14.3 204 204 204
78.6 -38.8 20.6 113 115 114
-36.5 -24.1 13.0 66 66 66
-36.3 -24.1 13.0 66 66 66
-36.0 -24.1 13.0 63 64 62
-35.6 -24.1 13.0 61 61 61
-35.4 -24.1 13.0 63 64 62
-35.0 -24.1 13.0 63 64 62
-34.7 -24.1 13.0 67 67 67
-34.4 -24.1 13.0 67 67 67
-34.2 -24.1 13.0 67 67 67
-33.9 -24.1 13.0 64 65 63
-33.6 -24.1 13.0 64 65 63
-33.2 -24.1 13.0 62 62 62
-33.0 -24.1 13.0 62 62 62
-32.7 -24.1 13.0 59 59 59
-32.3 -24.1 13.0 59 59 59
-32.1 -24.2 13.0 57 57 57
-31.5 -24.2 13.0 60 60 60
-31.2 -24.2 13.0 58 58 58
-30.2 -24.1 13.0 58 58 58
-29.9 -24.1 13.0 57 56 55
-29.6 -24.1 13.0 53 53 53
-29.3 -24.1 13.0 53 53 53
-29.0 -24.1 13.0 53 53 53
-28.7 -24.1 13.0 53 53 53
-28.4 -24.2 13.0 58 59 59
-28.1 -24.1 13.0 53 53 53
-27.8 -24.1 13.0 54 54 54
-27.6 -24.2 13.0 54 54 54
-27.2 -24.1 13.0 54 54 54
-27.0 -24.3 13.1 54 54 54
-26.6 -24.1 13.0 53 52 52
-26.2 -24.0 12.9 53 52 52
-26.0 -24.2 13.0 50 50 50
-25.7 -24.1 13.0 50 50 50
-23.9 -24.1 13.0 47 47 47
-23.6 -24.2 13.0 46 46 44
-23.3 -24.2 13.0 43 43 43
-23.0 -24.1 13.0 43 43 43
-22.8 -24.2 13.0 43 43 43
-22.4 -24.2 13.0 44 44 44
-22.2 -24.2 13.0 43 45 44
-13.0 -24.1 13.0 67 68 66
-12.8 -24.4 13.1 99 99 99
-12.5 -24.2 13.0 58 59 59
-11.4 -23.9 12.9 29 29 29
-11.2 -24.1 12.9 91 94 93
-10.8 -24.0 12.9 27 27 27
-10.6 -24.0 12.9 49 49 49
-10.3 -24.1 13.0 181 181 181
-10.0 -24.0 12.9 183 186 185
-9.6 -24.0 12.9 188 188 188
9.3 -24.1 13.0 207 207 207
9.6 -24.1 13.0 205 205 205
9.9 -24.1 13.0 205 205 205
10.2 -24.1 13.0 204 204 204
10.5 -24.1 13.0 204 204 204
11.1 -24.1 13.0 204 204 204
11.4 -24.1 13.0 204 204 204
11.7 -24.1 13.0 204 204 204
12.0 -24.2 13.0 204 204 204
12.3 -24.1 13.0 204 204 204
15.7 -24.1 13.0 204 204 204
16.0 -24.1 13.0 204 204 204
16.2 -24.1 13.0 204 204 204
16.7 -24.4 13.1 204 204 204
16.9 -24.2 13.0 200 200 200
17.2 -24.1 13.0 203 203 203
17.4 -24.1 13.0 203 203 203
18.1 -24.2 13.0 203 203 203
18.3 -24.1 13.0 203 203 203
18.7 -24.2 13.0 203 203 203
19.0 -24.1 13.0 203 203 203
48.5 -56.3 30.3 203 203 203
48.0 -54.9 29.6 204 204 204
51.4 -56.4 30.4 204 204 204
52.1 -56.3 30.3 204 204 204
52.3 -55.8 30.0 204 204 204
82.6 -40.5 21.8 115 117 116
78.8 -38.5 20.7 113 115 114
-36.9 -24.1 13.1 67 67 67
-37.0 -24.3 13.3 67 67 67
-36.6 -24.3 13.2 63 64 62
-36.3 -24.3 13.2 64 65 63
-36.0 -24.3 13.2 67 67 67
-35.8 -24.3 13.3 67 67 67
-34.9 -24.3 13.3 67 67 67
-34.5 -24.3 13.2 64 65 63
-34.2 -24.3 13.3 64 65 63
-32.5 -24.4 13.3 63 63 63
-32.1 -24.3 13.3 61 61 61
-31.8 -24.4 13.3 58 59 59
-31.2 -24.3 13.3 58 59 59
-30.8 -24.3 13.2 57 57 55
-30.5 -24.3 13.2 57 57 55
-30.2 -24.3 13.2 57 57 55
-29.9 -24.3 13.2 54 54 54
-29.5 -24.3 13.2 54 54 54
-29.1 -24.2 13.2 54 54 54
-28.8 -24.2 13.2 58 58 56
-28.6 -24.2 13.2 54 54 54
-28.6 -24.5 13.3 55 55 55
-28.1 -24.4 13.3 55 55 55
-27.7 -24.3 13.2 55 55 55
-27.6 -24.5 13.3 55 55 55
-26.9 -24.1 13.2 56 56 56
-26.6 -24.1 13.1 54 54 54
-26.5 -24.3 13.2 54 54 54
-25.6 -24.4 13.3 50 50 50
-25.3 -24.3 13.3 50 50 50
-24.6 -24.2 13.2 47 48 47
-24.2 -24.4 13.3 47 46 45
-23.8 -24.4 13.3 47 46 45
-23.5 -24.4 13.3 47 46 45
-23.2 -24.4 13.3 45 45 45
-22.7 -24.2 13.2 45 45 45
-13.2 -24.1 13.1 84 83 81
-13.0 -24.4 13.3 19 19 19
-12.7 -24.3 13.2 29 29 29
-11.3 -24.0 13.1 80 80 80
-10.9 -23.8 13.0 21 24 22
-10.6 -23.8 13.0 43 43 43
-10.3 -23.9 13.0 183 186 185
-10.0 -23.9 13.0 182 185 184
12.1 -23.9 13.0 206 206 206
48.6 -55.7 30.4 206 206 206
48.0 -54.2 29.6 206 206 206
52.9 -58.1 31.7 203 203 203
51.8 -56.1 30.6 203 203 203
52.1 -55.6 30.3 204 204 204
51.9 -54.7 29.8 204 204 204
-37.7 -24.2 13.4 67 67 67
-37.4 -24.3 13.4 67 67 67
-37.1 -24.3 13.4 64 65 63
-36.8 -24.3 13.4 67 67 67
-36.5 -24.3 13.4 67 67 67
-36.2 -24.3 13.4 68 68 68
-35.9 -24.3 13.4 68 68 68
-35.6 -24.3 13.4 68 68 68
-35.3 -24.3 13.4 68 68 68
-35.0 -24.3 13.4 68 68 68
-34.6 -24.3 13.4 63 63 63
-32.8 -24.3 13.4 64 64 64
-32.5 -24.3 13.4 61 61 61
-32.1 -24.3 13.4 59 59 59
-31.9 -24.3 13.4 59 59 59
-31.6 -24.3 13.4 59 59 59
-31.2 -24.3 13.4 58 58 56
-31.0 -24.3 13.4 58 58 56
-30.6 -24.3 13.4 58 58 56
-30.3 -24.3 13.4 58 58 56
-29.9 -24.3 13.4 55 55 55
-29.5 -24.1 13.3 59 59 57
-29.1 -24.1 13.3 59 59 57
-28.4 -24.3 13.4 56 56 56
-27.9 -24.4 13.4 56 56 56
-27.2 -24.1 13.3 57 57 57
-26.8 -24.3 13.4 55 55 55
-26.3 -24.3 13.4 53 52 52
-26.0 -24.3 13.4 53 52 52
-24.4 -24.3 13.4 49 49 49
-24.1 -24.3 13.4 48 47 46
-23.8 -24.3 13.4 50 50 50
-23.5 -24.4 13.4 49 48 47
-23.1 -24.3 13.4 46 46 46
-13.7 -24.2 13.4 95 94 93
-13.4 -24.3 13.4 96 96 96
-13.2 -24.3 13.4 27 27 27
-12.8 -24.2 13.4 134 134 134
-11.4 -23.9 13.2 64 65 63
-11.0 -23.8 13.1 48 48 48
-10.7 -23.7 13.1 51 50 48
-10.4 -23.8 13.1 183 186 185
-10.1 -23.8 13.1 181 184 183
48.9 -55.4 30.6 205 205 205
48.1 -53.6 29.6 205 205 205
53.5 -58.0 32.0 203 203 203
52.4 -56.0 30.9 203 203 203
52.1 -55.0 30.4 203 203 203
52.0 -54.1 29.9 203 203 203
-29.1 -24.9 13.9 61 60 59
-28.6 -24.7 13.8 58 58 58
-24.4 -24.7 13.8 51 51 51
-24.1 -24.7 13.8 50 49 48
-23.9 -24.8 13.9 50 49 48
-13.3 -24.2 13.5 42 43 42
-12.9 -24.2 13.5 131 131 131
-10.5 -23.6 13.2 182 185 184
49.2 -55.0 30.8 205 205 205
48.0 -52.9 29.6 205 205 205
53.8 -57.6 32.2 205 205 205
53.1 -56.1 31.4 205 205 205
52.3 -54.5 30.5 203 203 203
52.2 -53.6 30.0 203 203 203
110.9 -55.5 31.0 170 171 170
101.3 -50.3 28.1 168 168 168
97.9 -48.3 27.0 163 166 165
-29.3 -24.7 14.0 63 63 63
-28.7 -24.5 13.9 62 61 60
-14.2 -18.8 10.7 114 113 112
-13.3 -24.1 13.6 43 43 43
-11.0 -25.1 14.2 180 183 182
-10.7 -25.2 14.3 178 181 180
49.6 -54.7 31.0 204 204 204
48.0 -52.2 29.6 204 204 204
54.5 -57.6 32.6 205 205 205
53.9 -56.2 31.8 205 205 205
52.7 -54.2 30.7 205 205 205
52.2 -52.9 30.0 205 205 205
58.2 -57.5 32.6 205 205 205
110.9 -54.7 31.0 170 171 170
95.1 -46.3 26.2 160 163 162
-11.0 -25.0 14.3 179 182 181
-10.8 -25.1 14.4 178 181 180
-10.6 -25.5 14.6 178 181 180
49.5 -53.8 30.9 204 204 204
47.9 -51.4 29.5 204 204 204
54.9 -57.2 32.8 204 204 204
54.4 -55.9 32.1 204 204 204
53.1 -53.8 30.9 207 207 207
52.3 -52.3 30.0 204 204 204
102.2 -49.5 28.4 168 168 168
94.4 -45.4 26.1 163 166 165
-11.1 -24.7 14.4 179 182 181
-10.8 -24.9 14.5 179 182 181
-11.0 -26.2 15.2 176 179 178
49.7 -53.4 31.1 206 206 206
47.9 -50.6 29.5 206 206 206
54.9 -56.4 32.8 207 207 207
54.7 -55.5 32.3 207 207 207
53.3 -53.4 31.1 207 207 207
52.4 -51.8 30.1 207 207 207
57.7 -55.5 32.3 204 204 204
93.6 -44.4 25.8 168 168 168
-11.1 -24.4 14.4 180 183 182
-10.8 -24.5 14.4 179 182 181
48.8 -51.7 30.5 206 206 206
47.8 -49.9 29.4 206 206 206
46.2 -47.5 28.0 206 206 206
54.6 -55.4 32.7 206 206 206
54.6 -54.6 32.2 207 207 207
53.6 -52.9 31.2 207 207 207
52.8 -51.4 30.3 207 207 207
57.2 -54.3 32.0 204 204 204
-11.7 -24.7 14.8 184 187 186
-11.1 -24.2 14.5 181 184 183
-10.9 -24.3 14.6 180 183 182
-10.7 -24.7 14.8 176 176 176
-10.3 -24.6 14.7 173 173 173
48.7 -50.9 30.4 206 206 206
47.9 -49.3 29.5 203 203 203
54.7 -54.7 32.7 203 203 203
57.5 -53.8 32.2 207 207 207
54.3 -50.1 30.0 207 207 207
51.3 -23.5 14.1 162 165 164
-11.6 -25.7 15.6 181 184 183
-11.2 -25.6 15.5 174 174 174
48.8 -50.3 30.5 207 210 209
48.2 -48.9 29.6 205 205 205
58.0 -53.5 32.4 207 207 207
54.3 -49.4 30.0 207 207 207
51.7 -23.4 14.2 164 167 166
51.8 -23.3 14.1 158 158 158
-11.7 -25.5 15.7 183 183 183
-11.4 -25.6 15.8 177 177 177
-11.3 -26.2 16.1 156 159 158
-10.9 -26.3 16.2 155 158 157
61.4 -56.6 34.8 206 206 206
58.3 -53.0 32.6 206 206 206
55.0 -49.4 30.4 206 206 206
52.4 -23.4 14.4 165 168 167
52.3 -23.2 14.2 159 159 159
52.6 -23.2 14.3 152 152 152
-14.3 -16.4 10.3 34 34 34
-14.0 -16.4 10.2 96 99 98
-11.7 -25.9 16.2 179 179 179
-11.4 -26.1 16.3 158 161 160
-11.0 -26.0 16.2 156 159 158
62.1 -56.5 35.2 208 211 210
58.7 -52.6 32.8 208 211 210
56.0 -49.6 31.0 206 206 206
52.7 -23.1 14.4 166 169 168
52.3 -22.9 14.3 161 161 161
52.5 -22.8 14.2 153 153 153
-14.3 -16.2 10.3 50 50 50
-14.0 -16.1 10.2 114 113 112
-13.1 -16.1 10.2 41 41 41
-11.9 -26.1 16.5 180 180 180
-11.5 -26.0 16.5 166 166 166
-11.1 -25.9 16.4 159 162 161
62.7 -56.2 35.6 207 210 209
58.8 -52.0 32.9 207 210 209
56.6 -49.4 31.3 208 211 210
53.6 -23.2 14.7 168 170 169
52.9 -22.8 14.4 160 160 160
52.8 -22.6 14.3 155 155 155
-14.4 -16.1 10.3 44 44 44
-14.1 -16.0 10.3 95 98 97
-12.2 -26.3 16.9 180 180 180
-11.7 -26.0 16.7 169 169 169
63.2 -55.7 35.8 207 210 209
107.8 -86.1 55.3 207 207 207
103.7 -81.8 52.5 207 207 207
71.0 -31.5 20.3 181 181 181
68.5 -30.2 19.4 181 181 181
54.4 -23.2 14.9 169 171 170
53.6 -22.7 14.6 161 161 161
53.2 -22.4 14.4 154 154 154
-23.7 -15.8 10.3 36 37 36
-14.6 -15.7 10.3 32 32 32
-14.4 -15.8 10.3 47 49 48
-14.1 -15.7 10.3 90 90 90
-14.5 -16.5 10.7 61 61 61
-13.5 -15.9 10.4 33 33 33
-13.1 -15.7 10.2 33 33 33
-13.3 -27.3 17.8 189 189 189
-12.3 -27.9 18.2 169 169 169
110.1 -86.6 56.5 208 211 210
106.0 -82.4 53.7 208 211 210
74.9 -32.9 21.5 185 185 185
71.4 -31.2 20.4 182 182 182
69.3 -30.1 19.6 182 182 182
57.5 -24.3 15.9 173 175 175
55.5 -23.3 15.2 170 172 172
-15.0 -16.0 10.6 32 32 32
-14.6 -15.8 10.5 30 30 30
-14.3 -15.7 10.4 30 30 30
-14.5 -16.2 10.8 28 28 28
-14.1 -16.1 10.7 34 36 34
-13.6 -15.8 10.5 33 33 33
-13.1 -28.3 18.7 176 179 178
-12.6 -28.1 18.6 172 172 172
-12.3 -28.4 18.8 168 168 168
110.1 -85.2 56.5 208 211 210
105.7 -80.9 53.6 208 211 210
76.3 -33.1 21.9 183 183 183
72.5 -31.2 20.7 181 181 181
69.7 -29.8 19.7 183 183 183
68.7 -29.2 19.3 183 183 183
58.7 -24.4 16.2 174 176 176
-14.7 -15.6 10.5 22 25 23
-14.6 -16.0 10.8 30 29 29
-14.2 -15.8 10.7 30 29 29
-13.3 -28.2 19.0 177 180 179
-12.9 -28.3 19.0 173 173 173
106.0 -79.9 53.7 208 211 210
76.4 -32.6 21.9 184 184 184
69.1 -28.9 19.4 184 184 184
60.6 -24.7 16.6 167 167 167
-13.4 -28.1 19.2 178 181 180
-13.1 -28.4 19.4 175 175 175
-12.7 -28.4 19.4 172 172 172
632.5 -469.1 320.6 208 211 210
619.0 -453.7 310.1 208 211 210
60.7 -24.4 16.7 166 166 166
59.5 -23.7 16.2 158 158 158
-13.7 -28.1 19.5 175 175 175
-13.3 -28.3 19.6 174 174 174
-12.9 -28.3 19.7 133 132 131
61.4 -24.2 16.8 163 163 163
-25.1 -14.4 10.2 156 156 156
-24.9 -14.4 10.2 185 185 185
-24.7 -14.4 10.2 180 183 182
-24.4 -14.4 10.2 163 163 163
-24.2 -14.4 10.2 148 148 148
-24.0 -14.4 10.2 153 153 153
-23.7 -14.4 10.2 68 68 68
-23.5 -14.4 10.2 68 68 68
-23.2 -14.4 10.2 196 199 198
-23.0 -14.4 10.2 197 197 197
-22.8 -14.4 10.2 164 164 164
-15.9 -14.4 10.2 132 132 132
-15.7 -14.4 10.2 71 71 71
-15.4 -14.4 10.2 32 33 31
-15.2 -14.4 10.2 28 28 28
-14.9 -14.4 10.2 28 28 28
-14.7 -14.4 10.2 30 30 30
-14.5 -14.4 10.2 115 114 114
-14.2 -14.4 10.2 32 33 31
-14.0 -14.4 10.2 102 102 102
-13.8 -14.4 10.2 30 30 30
-14.8 -28.9 20.4 162 162 162
-14.0 -28.4 20.1 168 168 168
-13.5 -28.3 20.0 159 159 159
-13.1 -28.4 20.1 131 133 132
-12.8 -28.7 20.3 36 36 34
264.4 -130.1 91.8 203 203 203
62.3 -24.2 17.1 165 165 165
-13.6 -27.9 20.1 181 181 181
-13.3 -28.4 20.4 175 175 175
-13.0 -28.7 20.6 117 119 118
244.0 -117.1 84.1 202 202 202
288.8 -227.3 165.9 207 210 209
285.1 -221.5 161.7 207 210 209
299.1 -229.4 167.4 207 210 209
303.0 -229.4 167.4 212 213 212
292.7 -216.0 157.6 208 211 210
326.2 -237.8 173.5 208 211 210
242.9 -114.7 83.7 205 205 205
81.5 -31.2 22.8 188 188 188
-16.7 -33.1 24.6 182 182 182
-16.8 -34.7 25.8 173 175 175
-16.1 -34.4 25.5 170 171 170
321.6 -252.3 187.3 206 209 208
299.3 -231.6 172.0 207 210 209
308.9 -235.9 175.2 207 210 209
313.0 -235.9 175.2 207 210 209
320.0 -238.1 176.8 207 210 209
304.2 -223.5 165.9 208 211 210
310.8 -225.5 167.4 208 211 210
332.3 -238.1 176.8 208 211 210
83.0 -31.3 23.2 181 184 183
85.0 -31.8 23.6 174 174 174
85.7 -31.8 23.6 165 165 165
70.8 -25.7 19.0 134 137 136
70.9 -25.6 19.0 134 137 136
-63.4 -33.7 25.5 202 202 202
-62.8 -33.7 25.5 144 144 144
-62.2 -33.7 25.5 121 121 121
-61.2 -33.5 25.3 165 165 165
-60.6 -33.5 25.3 107 107 107
-60.0 -33.5 25.3 45 45 45
-59.8 -33.7 25.5 46 46 46
-58.9 -33.5 25.3 28 28 28
-58.3 -33.5 25.3 20 23 21
-57.7 -33.5 25.3 6 11 7
-57.1 -33.5 25.3 117 119 118
-56.9 -33.7 25.5 139 139 139
-56.3 -33.7 25.5 72 72 72
-44.5 -33.7 25.5 172 174 174
-43.9 -33.7 25.5 184 187 186
-43.3 -33.7 25.5 198 198 198
-42.7 -33.7 25.5 205 205 205
-42.1 -33.7 25.5 205 208 207
-41.5 -33.7 25.5 207 210 209
-40.9 -33.7 25.5 211 211 211
-37.9 -33.7 25.5 36 37 36
-37.4 -33.7 25.5 24 24 24
-36.8 -33.7 25.5 42 44 43
-36.2 -33.7 25.5 99 98 96
-16.8 -32.8 24.8 174 176 176
-17.0 -34.3 25.9 167 167 167
-16.2 -34.1 25.7 151 153 153
338.3 -260.8 197.0 211 211 211
302.0 -229.7 173.5 206 209 208
306.1 -229.7 173.5 207 210 209
313.0 -231.8 175.2 207 210 209
320.0 -234.0 176.8 212 213 212
304.2 -219.6 165.9 207 210 209
310.8 -221.6 167.4 208 211 210
329.2 -231.8 175.2 208 211 210
310.3 -215.8 163.1 208 211 210
565.4 -379.4 286.6 209 212 211
563.5 -373.7 282.3 209 212 211
389.8 -255.5 193.0 210 213 212
84.5 -31.3 23.6 179 179 179
86.6 -31.9 24.1 166 166 166
87.3 -31.9 24.1 159 162 161
71.8 -25.6 19.3 135 135 135
71.8 -25.4 19.2 133 133 133
71.8 -25.3 19.1 133 133 133
-66.0 -33.5 25.8 107 107 107
-65.3 -33.5 25.7 198 198 198
-64.8 -33.5 25.8 144 146 146
-64.2 -33.5 25.8 171 173 173
-63.6 -33.5 25.8 184 187 186
-63.0 -33.5 25.8 171 173 173
-62.4 -33.5 25.8 179 182 181
-61.8 -33.5 25.8 99 99 99
-61.2 -33.5 25.8 47 48 47
-60.6 -33.5 25.8 29 31 29
-60.0 -33.5 25.8 24 24 24
-59.4 -33.5 25.8 18 22 19
-58.8 -33.5 25.8 20 23 21
-58.2 -33.5 25.8 20 23 21
-57.6 -33.5 25.8 26 26 26
-57.0 -33.5 25.8 36 36 36
-56.4 -33.5 25.8 95 94 93
-55.8 -33.5 25.8 133 133 133
-55.2 -33.5 25.8 173 173 173
-54.6 -33.5 25.8 26 26 26
-54.0 -33.5 25.8 7 13 9
-53.4 -33.5 25.8 14 14 14
-52.8 -33.5 25.8 13 13 13
-52.2 -33.5 25.8 29 31 29
-51.6 -33.5 25.8 14 14 14
-51.0 -33.5 25.8 53 52 52
-50.4 -33.5 25.8 46 46 46
-49.8 -33.5 25.8 54 54 54
-49.2 -33.5 25.8 54 54 54
-48.6 -33.5 25.8 47 47 47
-48.0 -33.5 25.8 24 24 24
-47.4 -33.5 25.8 42 43 42
-46.9 -33.6 25.8 55 55 55
-46.2 -33.5 25.8 55 55 55
-45.6 -33.5 25.8 58 58 56
-45.0 -33.5 25.8 47 47 47
-44.4 -33.5 25.8 156 156 156
-43.8 -33.5 25.8 199 199 199
-43.2 -33.5 25.8 201 203 203
-42.6 -33.5 25.8 205 205 205
-42.0 -33.5 25.8 207 210 209
-41.4 -33.5 25.8 205 208 207
-40.8 -33.5 25.8 152 154 154
-40.2 -33.5 25.8 63 63 63
-39.6 -33.5 25.8 20 23 21
-39.0 -33.5 25.8 29 31 29
-38.4 -33.5 25.8 82 82 82
-37.8 -33.5 25.8 101 101 101
-37.2 -33.5 25.8 110 110 110
-36.6 -33.5 25.8 86 88 88
-36.0 -33.5 25.8 126 128 127
-35.4 -33.5 25.8 29 31 29
-34.8 -33.5 25.8 29 31 29
-34.3 -33.6 25.8 126 129 128
-18.0 -33.4 25.7 183 183 183
-17.3 -33.2 25.5 154 156 156
-16.9 -33.6 25.9 81 81 81
-16.3 -33.7 25.9 89 91 90
-15.6 -33.5 25.7 55 55 55
13.7 -13.0 10.0 205 208 207
299.3 -223.6 172.0 211 211 211
300.5 -221.6 170.4 206 209 208
301.8 -219.6 168.9 207 210 209
335.7 -241.2 185.5 212 213 212
309.6 -219.6 168.9 212 213 212
310.8 -217.7 167.4 207 210 209
320.3 -221.6 170.4 208 211 210
601.9 -396.7 305.1 209 212 211
344.1 -221.6 170.4 209 212 211
88.1 -31.8 24.5 151 151 151
88.5 -31.8 24.4 138 140 139
72.5 -25.4 19.5 134 134 134
72.8 -25.3 19.5 132 132 132
72.6 -25.1 19.3 129 132 131
75.2 -25.8 19.9 129 132 131
76.3 -26.1 20.0 129 132 131
-76.5 -35.6 27.9 77 77 77
-75.8 -35.6 27.9 156 155 153
-75.2 -35.6 27.9 159 159 159
-74.5 -35.6 27.9 158 158 158
-73.9 -35.6 27.9 159 162 161
-73.4 -35.6 27.9 214 214 214
-72.8 -35.7 27.9 203 203 203
-72.2 -35.7 27.9 203 205 205
-71.4 -35.6 27.9 158 157 155
-71.0 -35.7 28.0 39 41 41
-70.3 -35.7 28.0 75 76 76
-69.4 -35.6 27.9 73 73 73
-68.7 -35.6 27.9 75 76 76
-68.1 -35.6 27.9 63 64 62
-67.4 -35.6 27.9 44 43 42
-66.8 -35.6 27.9 41 41 41
-66.1 -35.6 27.9 52 52 52
-65.5 -35.6 27.9 29 31 29
-64.8 -35.6 27.9 20 23 21
-64.2 -35.6 27.9 18 22 19
-63.5 -35.6 27.9 26 26 26
-62.9 -35.6 27.9 160 160 160
-62.2 -35.6 27.9 181 181 181
-61.6 -35.6 27.9 184 187 186
-61.0 -35.6 27.9 102 101 99
-60.3 -35.6 27.9 191 194 193
-59.9 -35.7 28.0 198 198 198
-59.3 -35.7 28.0 175 177 177
-58.4 -35.6 27.9 166 166 166
-57.7 -35.6 27.9 118 120 119
-57.1 -35.6 27.9 115 114 114
-56.4 -35.6 27.9 143 143 142
-55.8 -35.6 27.9 103 102 100
-55.1 -35.6 27.9 13 13 13
-54.5 -35.6 27.9 26 26 26
-53.8 -35.6 27.9 42 42 42
-53.2 -35.6 27.9 46 46 46
-52.5 -35.6 27.9 40 42 42
-52.0 -35.7 27.9 26 26 26
-51.8 -36.0 28.1 42 42 42
-50.7 -35.7 27.9 54 54 54
-49.8 -35.5 27.8 54 54 54
-49.2 -35.5 27.8 54 54 54
-48.6 -35.6 27.9 60 60 60
-48.0 -35.6 27.9 70 70 70
-47.4 -35.6 27.9 58 58 56
-46.7 -35.6 27.9 36 36 36
-46.1 -35.6 27.9 45 44 43
-45.4 -35.6 27.9 47 47 47
-44.8 -35.6 27.9 6 6 6
-44.1 -35.6 27.9 29 31 29
-43.5 -35.6 27.9 86 88 88
-42.8 -35.6 27.9 27 27 27
-42.2 -35.6 27.9 58 58 56
-41.5 -35.6 27.9 42 43 42
-40.9 -35.6 27.9 29 31 29
-40.2 -35.6 27.9 25 25 25
-39.6 -35.6 27.9 41 43 42
-38.9 -35.6 27.9 124 127 126
-36.6 -35.2 27.5 136 138 137
-35.8 -35.1 27.5 23 23 23
-17.4 -32.9 25.7 122 124 123
-17.7 -34.6 27.1 91 93 92
-17.4 -35.3 27.6 87 87 87
299.3 -219.6 172.0 210 210 210
295.2 -213.8 167.4 214 214 214
299.1 -213.8 167.4 211 211 211
380.4 -268.4 210.2 211 211 211
312.4 -217.6 170.4 212 213 212
308.1 -211.9 165.9 212 213 212
317.5 -215.7 168.9 212 213 212
632.5 -409.5 320.6 209 212 211
347.2 -219.6 172.0 215 215 215
90.3 -31.8 24.9 131 134 133
72.8 -25.0 19.6 128 128 128
72.4 -24.7 19.4 127 127 127
72.3 -24.5 19.2 127 127 127
74.7 -25.2 19.7 128 128 128
76.2 -25.6 20.0 128 128 128
-81.8 -37.4 29.8 133 133 133
-81.1 -37.4 29.8 177 180 179
-80.3 -37.3 29.7 181 181 181
-79.5 -37.2 29.7 184 187 186
-78.5 -37.4 29.8 193 196 195
-78.0 -37.5 29.9 212 214 214
-77.4 -37.6 30.0 102 102 102
-76.4 -37.4 29.8 29 31 29
-75.6 -37.4 29.8 53 52 52
-73.5 -37.4 29.8 75 76 76
-72.8 -37.4 29.8 70 70 70
-72.1 -37.4 29.8 63 64 62
-71.4 -37.4 29.8 36 37 36
-69.9 -36.9 29.5 39 41 41
-69.3 -36.9 29.5 33 32 30
-68.6 -36.9 29.5 26 26 26
-67.9 -36.9 29.5 18 22 19
-67.2 -36.9 29.5 26 26 26
-66.5 -36.9 29.5 155 155 155
-66.6 -37.4 29.8 184 184 184
-65.9 -37.4 29.8 191 190 188
-64.5 -36.9 29.5 166 166 166
-64.5 -37.4 29.8 146 146 146
-61.0 -37.4 29.8 124 124 124
-60.3 -37.4 29.8 107 107 107
-59.6 -37.4 29.8 66 66 66
-58.9 -37.4 29.8 18 22 19
-58.3 -37.4 29.8 6 11 7
-56.1 -37.3 29.7 29 31 29
-55.5 -37.4 29.8 28 28 28
-55.1 -37.6 30.0 42 42 42
-54.0 -37.3 29.7 54 54 54
-53.3 -37.3 29.7 54 54 54
-52.7 -37.4 29.8 54 54 54
-52.0 -37.4 29.8 53 52 52
-51.3 -37.4 29.8 54 54 54
-50.6 -37.4 29.8 57 57 55
-49.9 -37.4 29.8 54 54 54
-49.2 -37.4 29.8 53 52 52
-48.6 -37.4 29.8 40 42 42
-47.9 -37.4 29.8 27 27 27
-47.2 -37.4 29.8 25 25 25
-46.5 -37.4 29.8 77 79 77
-45.8 -37.4 29.8 25 25 25
-45.1 -37.4 29.8 50 50 50
-44.4 -37.4 29.8 46 46 46
-43.7 -37.4 29.8 46 46 46
-43.0 -37.4 29.8 64 65 63
-42.3 -37.4 29.8 19 23 20
-41.6 -37.4 29.8 84 85 83
-18.0 -34.6 27.6 88 88 88
-17.8 -35.4 28.2 87 87 87
-18.2 -37.6 30.0 74 76 75
386.7 -282.4 225.2 210 210 210
299.3 -215.6 172.0 210 210 210
260.6 -185.3 147.8 211 211 211
236.4 -165.9 132.3 211 211 211
407.6 -282.4 225.2 211 211 211
299.0 -204.5 163.1 212 213 212
278.7 -188.2 150.1 212 213 212
296.3 -197.7 157.6 212 213 212
272.7 -179.7 143.3 212 213 212
583.1 -370.6 295.6 214 214 214
589.9 -370.6 295.6 215 215 215
357.0 -221.7 176.8 215 215 215
268.3 -164.7 131.4 209 212 211
49.6 -17.3 13.8 112 112 112
72.5 -24.3 19.4 120 120 120
72.2 -24.1 19.2 121 121 121
73.6 -24.4 19.4 124 124 124
-54.8 -37.1 30.2 53 53 53
-18.0 -33.8 27.5 90 90 90
-18.2 -35.5 28.8 89 91 90
-17.8 -37.4 30.4 75 76 76
291.3 -206.0 167.4 210 210 210
258.6 -180.5 146.6 210 210 210
234.7 -161.7 131.4 211 211 211
450.5 -306.3 248.9 211 211 211
299.0 -200.7 163.1 211 211 211
278.7 -184.8 150.1 212 213 212
284.5 -186.2 151.3 212 213 212
397.9 -242.5 197.0 215 215 215
288.3 -173.7 141.2 209 212 211
49.9 -17.1 13.9 106 108 108
50.1 -17.0 13.8 107 109 109
51.0 -17.1 13.9 112 112 112
73.8 -24.3 19.7 112 112 112
-18.2 -34.9 28.9 90 92 91
-20.0 -39.9 33.0 67 67 67
13.7 -12.1 10.0 209 209 209
14.8 -12.4 10.3 211 211 211
14.9 -12.3 10.2 208 208 208
50.1 -16.8 13.9 104 104 104
50.2 -16.7 13.9 106 106 106
50.5 -16.7 13.8 108 108 108
51.0 -16.8 13.9 106 106 106
51.2 -16.8 13.9 108 108 108
-21.3 -39.9 33.7 90 92 91
-20.4 -39.8 33.6 79 79 79
-19.2 -39.0 33.0 36 37 36
50.2 -16.4 13.9 105 105 105
50.3 -16.3 13.8 102 104 104
51.0 -16.5 13.9 105 105 105
51.3 -16.5 13.9 100 102 102
-23.7 -39.2 33.8 176 176 176
-22.8 -39.1 33.7 128 131 130
-22.2 -39.4 33.9 96 96 96
-21.4 -39.4 33.9 95 95 95
-20.5 -39.1 33.7 95 98 97
-19.5 -38.7 33.3 91 91 91
17.0 -12.7 10.9 210 210 210
50.2 -16.0 13.8 100 100 100
50.6 -16.0 13.8 95 95 95
51.0 -15.9 13.7 77 77 77
-23.1 -40.1 35.3 96 96 96
-22.0 -39.6 34.8 95 95 95
-20.9 -39.2 34.5 79 82 81
-19.9 -38.7 34.0 111 111 111
16.8 -12.3 10.8 214 214 214
50.0 -15.7 13.8 98 98 98
50.2 -15.7 13.8 91 94 93
50.4 -15.6 13.7 85 85 85
50.7 -15.6 13.7 71 71 71
51.0 -15.6 13.7 71 71 71
51.0 -15.5 13.6 70 69 68
-22.5 -15.0 13.4 146 146 146
-21.5 -14.9 13.4 229 229 229
-24.2 -41.2 36.9 95 95 95
-22.8 -40.2 36.1 95 98 97
-21.8 -39.9 35.8 108 108 108
-20.8 -39.6 35.6 28 28 28
16.7 -12.0 10.7 214 214 214
38.7 -17.1 15.3 66 66 64
50.5 -15.4 13.9 79 81 80
50.7 -15.4 13.8 79 81 80
51.0 -15.4 13.8 71 71 71
51.4 -15.4 13.8 71 71 71
51.6 -15.4 13.8 74 74 74
-22.5 -14.6 13.4 216 216 216
39.6 -17.2 15.8 74 76 75
38.7 -16.7 15.3 67 67 67
50.7 -15.2 13.9 108 108 108
51.3 -15.2 13.9 75 76 76
51.7 -15.2 13.9 75 76 76
52.0 -15.2 13.9 75 76 76
40.6 -17.5 16.4 116 116 116
40.0 -17.0 16.0 75 77 77
50.9 -14.9 14.0 124 126 125
51.4 -14.9 13.9 79 82 81
51.8 -14.9 13.9 78 78 78
52.3 -14.9 14.0 78 78 78
40.2 -16.9 16.2 113 114 113
39.7 -16.5 15.8 81 81 81
50.9 -14.5 13.9 90 90 90
51.4 -14.5 13.9 79 82 81
51.7 -14.5 13.9 78 78 78
52.5 -14.7 14.0 78 78 78
-10.5 -12.1 11.8 36 36 36
-39.0 -68.3 66.8 23 24 23
-37.5 -68.3 66.8 26 25 24
-37.2 -70.8 69.3 113 114 113
51.2 -14.2 13.9 79 82 81
51.7 -14.2 13.9 79 82 81
-10.8 -11.8 11.8 33 33 33
-34.5 -56.7 56.8 108 108 108
-40.2 -68.7 68.8 48 50 48
51.3 -13.9 13.9 80 83 82
51.7 -13.9 13.9 80 83 82
-10.4 -11.5 11.7 36 39 38
-38.4 -64.0 65.7 43 43 43
-30.2 -54.7 56.1 156 156 156
470.4 -219.6 225.2 186 186 186
356.7 -164.7 168.9 194 194 194
-8.8 -10.0 10.5 44 44 44
-8.5 -10.0 10.5 203 205 205
-39.9 -62.5 65.7 109 109 109
-38.6 -62.9 66.1 30 29 29
-35.2 -59.8 62.8 21 21 21
548.8 -250.0 262.7 184 184 184
327.5 -147.6 155.1 193 193 193
241.9 -107.8 113.3 200 200 200
-10.1 -10.0 10.8 32 32 32
-10.7 -11.0 11.8 34 34 34
-8.6 -9.8 10.5 203 205 205
-42.2 -64.6 69.5 110 110 108
-40.5 -64.3 69.3 26 25 24
-38.0 -63.0 67.8 23 24 23
216.7 -109.8 118.2 220 220 220
211.6 -105.8 114.0 220 220 220
541.3 -240.6 259.1 184 184 184
226.9 -98.7 106.3 198 198 198
229.4 -98.7 106.3 200 200 200
-10.8 -10.7 11.8 36 37 36
-10.4 -10.6 11.7 36 37 36
-42.8 -66.4 73.3 23 24 23
-42.4 -68.5 75.7 23 24 23
199.5 -97.3 107.5 220 220 220
202.0 -97.3 107.5 220 220 220
217.2 -92.1 101.7 198 198 198
205.2 -86.0 95.1 198 198 198
-10.8 -10.4 11.8 37 40 39
-10.4 -10.3 11.7 39 39 39
-80.4 -126.4 143.3 35 35 35
-78.2 -128.3 145.5 169 171 170
216.8 -103.0 116.8 220 223 222
198.2 -81.0 91.8 198 198 198
-10.4 -10.1 11.7 37 40 39
-118.8 -174.7 203.4 28 28 28
-106.1 -162.4 189.2 21 21 21
-107.0 -171.0 199.1 168 170 169
-121.6 -203.1 236.5 180 180 180
109.5 -42.6 49.6 200 200 200
219.6 -79.6 92.7 203 203 203
-10.4 -9.8 11.7 37 40 39
-8.8 -8.8 10.5 36 39 38
-172.6 -246.9 295.6 27 26 25
-151.5 -225.8 270.2 23 24 23
-156.4 -243.1 291.0 166 169 168
-185.8 -316.1 378.3 179 182 181
16.6 -8.8 10.5 218 221 220
107.0 -40.5 48.5 200 200 200
221.7 -78.2 93.6 202 202 202
219.6 -76.7 91.8 203 203 203
-10.4 -9.5 11.7 37 40 39
-8.8 -8.5 10.5 43 43 43
-8.5 -8.4 10.4 200 202 202
16.5 -8.5 10.4 218 221 220
211.6 -79.6 98.0 195 195 195
125.1 -46.6 57.3 197 197 197
107.2 -39.5 48.6 198 198 198
237.0 -81.3 100.1 202 202 202
230.8 -78.4 96.5 205 205 205
-22.4 -8.4 10.7 128 128 128
-10.4 -9.3 11.7 38 40 40
-8.5 -8.2 10.4 198 201 200
23.9 -11.1 14.1 219 222 221
228.2 -84.3 106.9 183 183 183
212.7 -77.7 98.5 195 195 195
122.8 -44.4 56.3 197 197 197
252.0 -84.8 107.5 202 202 202
233.3 -77.7 98.5 204 204 204
230.8 -76.1 96.5 205 205 205
225.0 -73.5 93.2 207 207 207
-8.5 -8.0 10.4 201 203 203
16.3 -7.8 10.2 219 222 221
23.6 -10.8 14.1 219 222 221
23.8 -10.7 14.0 219 222 221
24.2 -10.8 14.1 219 222 221
234.9 -84.2 110.0 161 161 161
123.9 -43.5 56.8 195 195 195
267.2 -87.3 114.0 202 202 202
-8.5 -7.7 10.4 197 200 199
23.2 -10.5 14.1 219 222 221
23.5 -10.5 14.1 219 222 221
23.8 -10.4 14.0 219 222 221
24.2 -10.5 14.1 219 222 221
122.1 -41.6 56.0 195 195 195
116.2 -39.1 52.7 197 197 197
121.1 -40.4 54.4 199 199 199
272.1 -86.2 116.1 200 200 200
23.9 -10.1 14.1 219 222 221
27.9 -10.9 15.2 220 223 222
124.3 -41.0 57.0 193 193 193
124.7 -40.3 56.0 195 195 195
28.5 -11.1 15.9 220 223 222
28.2 -10.8 15.6 220 223 222
28.0 -10.6 15.3 220 223 222
28.2 -10.6 15.2 220 223 222
476.1 -158.6 227.9 185 185 185
-127.6 -36.2 53.7 54 54 54
-85.7 -26.6 39.6 64 63 61
-83.3 -26.2 38.9 65 65 65
-129.2 -42.4 63.1 60 60 60
28.4 -10.8 16.1 220 223 222
28.6 -10.8 16.0 220 223 222
28.3 -10.5 15.7 220 223 222
28.4 -10.4 15.5 220 223 222
338.6 -107.9 160.3 139 139 139
249.4 -78.6 116.8 151 153 153
278.9 -80.0 119.0 200 200 200
-135.5 -43.0 66.1 30 30 30
28.7 -10.4 16.1 220 223 222
28.5 -10.2 15.8 220 223 222
459.5 -142.9 220.0 173 173 173
356.7 -109.7 168.9 123 123 123
214.9 -64.7 99.6 178 178 178
202.4 -56.6 87.2 200 200 200
-642.4 -194.2 310.1 19 19 19
-596.1 -182.3 291.0 29 29 29
29.7 -10.5 16.8 222 224 224
493.9 -148.1 236.5 174 176 176
199.2 -57.8 92.3 174 176 176
204.8 -57.0 90.9 195 195 195
193.8 -53.4 85.2 195 195 195
197.6 -53.9 86.0 198 198 198
200.5 -54.1 86.4 198 198 198
202.5 -54.1 86.4 202 202 202
-783.7 -228.2 378.3 63 62 61
317.1 -90.5 150.1 98 98 98
252.5 -71.3 118.2 161 161 161
244.5 -68.3 113.3 175 175 175
272.1 -70.0 116.1 202 202 202
257.4 -65.6 108.7 202 202 202
-753.6 -210.9 363.8 73 73 73
-615.0 -174.1 300.3 73 73 73
335.8 -92.2 159.0 80 83 82
250.9 -68.1 117.5 144 146 146
234.7 -63.0 108.7 174 176 176
264.0 -65.3 112.6 202 202 202
254.5 -62.3 107.5 202 202 202
416.0 -110.8 199.1 175 177 177
317.1 -83.6 150.1 69 72 71
257.3 -67.1 120.5 139 141 140
252.1 -65.0 116.8 167 167 167
293.7 -71.1 127.8 196 196 196
300.8 -72.1 129.6 199 199 199
277.2 -65.8 118.2 202 202 202
269.8 -63.4 114.0 205 205 205
277.5 -64.6 116.1 207 207 207
319.6 -80.7 151.3 112 112 112
246.3 -61.5 115.3 144 144 144
219.5 -54.2 101.7 172 172 172
267.2 -60.8 114.0 199 199 199
254.5 -57.3 107.5 203 203 203
252.7 -56.4 105.7 205 205 205
230.7 -51.0 95.5 197 197 197
223.8 -49.0 91.8 232 232 232
350.5 -84.6 165.9 64 64 62
246.3 -58.8 115.3 143 143 142
217.2 -51.3 100.6 168 170 169
268.8 -58.5 114.6 203 203 203
253.1 -54.5 106.9 203 203 203
236.8 -50.5 99.0 207 207 207
230.7 -48.7 95.5 204 204 204
233.5 -53.2 109.3 141 140 139
211.6 -47.7 98.0 175 177 177
151.2 -33.7 69.3 184 184 184
221.8 -48.0 98.5 192 192 192
262.4 -54.5 111.9 200 200 200
244.8 -50.3 103.4 203 203 203
228.4 -46.5 95.5 206 206 206
177.3 -35.4 72.8 220 220 220
151.6 -30.0 61.6 225 225 225
18.9 -3.2 10.7 224 224 224
19.2 -3.2 10.7 224 224 224
19.4 -3.2 10.7 224 224 224
19.7 -3.2 10.7 224 224 224
18.8 -3.0 10.7 225 225 225
19.1 -3.0 10.7 225 225 225
19.3 -3.0 10.7 225 225 225
19.7 -3.0 10.7 225 225 225
19.8 -3.0 10.7 225 225 225
20.0 -3.0 10.6 225 225 225
19.3 -2.7 10.7 221 221 221
20.0 -2.7 10.6 225 225 225
22.8 -2.7 11.7 228 228 228
22.8 -2.4 11.7 222 222 222
22.9 -2.4 11.6 222 222 222
1150.8 -78.7 378.3 60 60 60
26.5 -2.6 13.9 224 224 224
26.8 -2.6 13.9 224 224 224
22.8 -2.1 11.5 224 224 224
25.8 -2.4 12.9 224 224 224
26.4 -2.2 13.9 224 224 224
26.7 -2.2 13.9 224 224 224
27.4 -2.3 14.1 224 224 224
22.9 -1.9 11.6 224 224 224
25.8 -2.1 12.9 224 224 224
20.6 -1.6 11.8 220 223 222
26.4 -1.9 13.9 225 225 225
26.6 -1.9 13.8 225 225 225
22.8 -1.6 11.7 225 225 225
23.0 -1.6 11.7 225 225 225
25.8 -1.8 12.9 225 225 225
741.1 -40.8 295.6 77 80 79
20.7 -1.4 11.9 222 224 224
26.4 -1.6 13.8 222 224 224
26.5 -1.6 13.8 222 224 224
359.0 -12.7 138.1 64 64 64
-78.2 -3.4 49.4 19 19 19
23.9 -0.3 14.3 221 221 221
24.1 -0.3 14.2 222 224 224
24.5 -0.3 14.2 222 224 224
-78.2 0.1 49.4 18 18 18
-60.4 0.1 50.9 215 215 215
24.0 0.0 14.4 219 219 219
24.2 0.0 14.3 222 222 222
24.6 0.0 14.3 223 225 225
-85.4 1.3 53.1 20 20 20
-80.3 1.2 50.7 20 20 20
-61.1 1.3 51.4 212 213 212
78.0 1.5 20.7 90 90 90
78.0 2.0 20.7 90 90 90
82.2 2.6 22.0 87 87 85
81.9 2.6 21.8 89 89 89
77.3 2.4 20.4 96 99 98
83.4 3.1 22.3 86 85 83
82.4 3.1 21.9 89 89 89
84.2 3.1 22.2 103 103 103
85.9 3.8 23.1 86 85 83
84.7 3.7 22.7 86 85 83
83.0 3.6 22.1 94 94 94
84.8 3.7 22.4 98 100 100
-276.5 18.5 99.0 58 59 59
-274.2 18.5 99.0 58 59 59
-271.9 18.5 99.0 59 59 59
-269.6 18.5 99.0 59 59 59
-267.3 18.5 99.0 57 57 57
-265.0 18.5 99.0 59 59 59
-262.7 18.5 99.0 59 59 59
-260.4 18.5 99.0 58 58 58
-258.1 18.5 99.0 58 58 58
-255.8 18.5 99.0 58 58 58
-253.5 18.5 99.0 62 62 62
-251.2 18.5 99.0 60 60 60
-248.9 18.5 99.0 64 65 63
-246.6 18.5 99.0 84 83 81
-244.3 18.5 99.0 122 122 122
-242.0 18.5 99.0 56 57 55
-239.7 18.5 99.0 64 65 63
85.9 4.4 23.3 87 86 84
86.2 4.3 23.2 87 86 84
86.4 4.3 23.1 87 86 84
83.2 4.1 22.1 90 90 90
85.7 4.2 22.6 98 100 100
-28.0 3.3 15.6 181 181 181
-43.9 3.7 15.7 62 64 61
-43.6 3.7 15.7 58 59 59
-43.2 3.7 15.7 60 60 60
-42.8 3.7 15.7 60 60 60
-42.5 3.7 15.7 67 68 66
-42.1 3.7 15.7 60 60 60
-41.7 3.7 15.7 65 66 64
-41.4 3.7 15.7 65 66 64
-41.0 3.7 15.7 67 68 66
-40.6 3.7 15.7 67 68 66
-40.3 3.7 15.7 65 66 64
-39.9 3.7 15.7 67 68 66
-39.6 3.7 15.7 65 66 64
-39.2 3.7 15.7 151 151 151
-38.8 3.7 15.7 106 108 108
-38.5 3.7 15.7 106 108 108
-38.1 3.7 15.7 100 102 102
-28.7 3.7 15.8 176 179 178
-28.1 3.7 15.7 181 181 181
-27.6 3.6 15.6 181 181 181
-27.4 3.7 15.7 185 185 185
-27.6 4.3 15.4 43 43 43
781.5 112.2 320.6 203 203 203
983.2 105.1 300.3 34 34 34
98.4 133.1 146.6 90 92 90
85.7 123.2 132.3 101 101 101
96.2 133.4 143.3 95 95 95
100.3 134.4 144.4 24 27 25
105.4 132.4 142.2 9 14 10
85.1 125.4 131.4 95 95 95
125.7 167.1 175.2 11 16 13
128.6 165.6 173.5 9 14 10
136.8 192.6 197.0 23 23 23
149.2 203.2 207.9 18 18 18
149.1 196.7 201.2 10 15 11
152.7 220.1 220.0 26 30 27
169.7 236.6 236.5 23 23 23
175.2 236.6 236.5 13 17 14
229.4 300.5 300.3 10 15 11
-853.0 403.5 394.1 58 59 59
-843.9 403.5 394.1 60 62 60
-834.7 403.5 394.1 63 63 63
-656.2 395.3 386.0 11 11 11
196.0 289.1 282.3 33 33 33
212.1 302.7 295.6 30 30 30
233.6 322.8 315.3 20 20 20
252.4 328.3 320.6 20 20 20
277.0 404.3 386.0 32 32 32
-30.6 12.0 10.9 116 116 116
-30.3 12.0 10.9 128 128 128
27.9 16.5 11.2 215 215 215
43.5 18.5 11.9 112 114 113
43.8 18.5 11.9 126 129 128
44.0 18.5 11.8 126 129 128
43.4 18.8 11.9 109 111 111
43.4 18.7 11.8 112 114 113
43.9 18.8 11.9 126 129 128
26.6 18.2 11.3 133 133 133
26.8 18.2 11.3 142 141 140
27.4 18.2 11.3 147 147 147
27.7 18.2 11.3 146 146 146
27.9 18.2 11.3 142 141 140
28.0 18.1 11.3 136 136 136
28.3 18.1 11.3 128 128 128
41.4 18.2 11.4 109 111 111
41.6 18.2 11.3 112 114 113
41.9 18.2 11.3 122 122 122
42.2 18.2 11.4 124 124 124
42.5 18.2 11.4 61 64 63
25.4 17.8 10.9 146 146 146
25.7 17.8 10.9 142 141 140
25.9 17.8 10.9 142 141 140
26.0 17.7 10.9 144 144 144
26.4 17.8 10.9 144 144 144
26.7 17.8 10.9 142 141 140
27.7 18.2 11.2 129 132 131
27.4 17.8 10.9 124 124 124
27.7 17.8 10.9 117 117 117
27.8 17.7 10.9 115 114 114
25.6 18.0 10.9 139 139 139
25.8 18.0 10.9 142 141 140
25.9 17.9 10.8 142 141 140
26.5 17.9 10.9 139 139 139
26.7 17.9 10.8 136 136 136
27.4 18.0 10.9 121 123 122
