ply
format ascii 1.0
element vertex 3206
property float x
property float y
property float z
property uchar red
property uchar green
property uchar blue
end_header
69.7 -302.3 120.5 160 160 160
72.5 -302.3 120.5 160 160 160
75.3 -302.3 120.5 160 160 160
78.1 -302.3 120.5 158 158 158
80.9 -302.3 120.5 160 160 160
83.7 -302.3 120.5 160 160 160
86.5 -302.3 120.5 164 164 164
89.3 -302.3 120.5 164 164 164
92.1 -302.3 120.5 164 164 164
94.9 -302.3 120.5 164 164 164
97.7 -302.3 120.5 164 164 164
100.5 -302.3 120.5 164 164 164
103.3 -302.3 120.5 164 164 164
106.1 -302.3 120.5 164 164 164
108.9 -302.3 120.5 164 164 164
111.7 -302.3 120.5 164 164 164
113.7 -300.4 119.7 164 164 164
116.5 -300.4 119.7 165 165 165
119.3 -300.4 119.7 165 165 165
122.9 -302.3 120.5 165 165 165
125.7 -302.3 120.5 162 162 162
127.7 -300.4 119.7 162 162 162
130.4 -300.4 119.7 162 162 162
134.1 -302.3 120.5 162 162 162
136.0 -300.4 119.7 162 162 162
138.8 -300.4 119.7 162 162 162
141.6 -300.4 119.7 160 160 160
144.4 -300.4 119.7 161 161 161
147.1 -300.4 119.7 161 161 161
149.9 -300.4 119.7 161 161 161
152.7 -300.4 119.7 161 161 161
155.5 -300.4 119.7 156 159 158
159.3 -302.3 120.5 161 161 161
164.2 -306.2 122.0 156 159 158
101.6 -166.5 66.4 154 156 156
104.3 -168.3 67.1 154 156 156
107.0 -170.1 67.8 155 158 157
108.2 -169.5 67.6 155 158 157
109.7 -169.5 67.6 156 159 158
64.7 -94.5 37.7 157 160 159
65.2 -94.0 37.5 158 161 160
72.3 -95.3 38.0 156 156 156
138.2 -106.7 42.5 105 105 105
67.1 -288.5 116.1 160 160 160
72.0 -286.7 115.3 160 160 160
74.7 -286.7 115.3 160 160 160
77.4 -286.7 115.3 160 160 160
80.1 -286.7 115.3 163 163 163
82.8 -286.7 115.3 164 164 164
85.5 -286.7 115.3 161 161 161
88.1 -286.7 115.3 164 164 164
90.8 -286.7 115.3 167 167 167
93.5 -286.7 115.3 164 164 164
95.6 -285.0 114.6 164 164 164
98.9 -286.7 115.3 164 164 164
101.5 -286.7 115.3 164 164 164
104.2 -286.7 115.3 164 164 164
108.2 -290.3 116.8 164 164 164
110.3 -288.5 116.1 164 164 164
110.9 -283.3 114.0 165 165 165
75.1 -187.3 75.4 165 165 165
77.2 -188.1 75.7 162 162 162
120.3 -286.7 115.3 162 162 162
121.5 -283.3 114.0 162 162 162
82.1 -187.3 75.4 162 162 162
83.5 -186.6 75.1 162 162 162
130.2 -285.0 114.6 162 162 162
132.1 -283.3 114.0 162 162 162
89.1 -187.3 75.4 162 162 162
90.9 -187.3 75.4 163 163 163
92.6 -187.3 75.4 161 161 161
94.7 -188.1 75.7 163 163 163
95.7 -186.6 75.1 163 163 163
97.1 -185.9 74.8 161 161 161
396.9 -746.4 300.3 163 163 163
115.5 -190.4 76.6 157 160 159
116.6 -183.7 73.9 158 161 160
119.2 -185.1 74.5 158 161 160
118.2 -180.9 72.8 156 159 158
65.5 -94.8 38.1 157 160 159
75.0 -98.0 39.4 158 158 158
124.9 -94.8 38.1 104 103 101
125.3 -94.4 38.0 104 103 101
126.4 -94.6 38.1 98 100 100
58.1 -40.1 16.1 98 100 100
58.1 -39.8 16.0 176 176 176
59.5 -40.3 16.2 196 199 198
59.6 -40.1 16.1 196 196 196
59.8 -40.0 16.1 200 202 202
60.0 -39.9 16.1 154 154 154
60.7 -40.1 16.1 196 196 196
61.3 -40.2 16.2 205 205 205
61.1 -39.8 16.0 215 215 215
61.4 -39.8 16.0 188 188 188
31.9 -179.2 72.8 160 160 160
33.5 -178.5 72.5 160 160 160
35.2 -178.5 72.5 161 161 161
36.8 -178.5 72.5 161 161 161
38.5 -178.5 72.5 161 161 161
43.9 -179.9 73.0 163 163 163
45.3 -178.5 72.5 163 163 163
47.0 -178.5 72.5 160 160 160
48.6 -178.5 72.5 163 163 163
50.3 -178.5 72.5 163 163 163
52.0 -178.5 72.5 164 164 164
53.7 -178.5 72.5 167 167 167
55.4 -178.5 72.5 167 167 167
57.1 -178.5 72.5 169 171 170
58.7 -178.5 72.5 167 167 167
60.7 -179.2 72.8 164 164 164
62.4 -179.2 72.8 164 164 164
64.0 -179.2 72.8 164 164 164
65.7 -179.2 72.8 164 164 164
67.4 -179.2 72.8 164 164 164
69.1 -179.2 72.8 164 164 164
70.8 -179.2 72.8 168 168 168
72.2 -178.5 72.5 165 165 165
74.2 -179.2 72.8 160 160 160
75.9 -179.2 72.8 162 162 162
77.6 -179.2 72.8 162 162 162
79.0 -178.5 72.5 162 162 162
80.6 -178.5 72.5 162 162 162
82.6 -179.2 72.8 162 162 162
84.3 -179.2 72.8 162 162 162
86.0 -179.2 72.8 162 162 162
87.4 -178.5 72.5 163 163 163
89.1 -178.5 72.5 163 163 163
90.8 -178.5 72.5 163 163 163
91.4 -176.4 71.7 163 163 163
92.4 -175.1 71.1 163 163 163
96.9 -180.6 73.3 163 163 163
98.6 -180.6 73.3 163 163 163
101.5 -182.7 74.2 163 163 163
103.2 -182.7 74.2 161 161 161
103.3 -179.9 73.0 162 162 162
105.9 -181.3 73.6 164 164 164
107.6 -181.3 73.6 162 162 162
109.7 -182.0 73.9 162 162 162
108.9 -177.8 72.2 162 162 162
113.5 -179.9 73.0 162 162 162
115.2 -179.9 73.0 163 163 163
117.4 -180.6 73.3 163 163 163
116.8 -177.1 71.9 158 161 160
67.2 -96.4 39.2 157 160 159
77.1 -99.7 40.5 160 163 162
117.3 -88.2 35.8 104 103 101
114.5 -85.5 34.7 98 100 100
115.3 -85.5 34.7 98 100 100
73.4 -52.2 21.2 96 99 98
57.1 -39.3 16.0 92 92 92
57.2 -39.1 15.9 92 92 92
56.6 -38.5 15.6 190 190 190
56.9 -38.4 15.6 148 148 148
58.5 -39.2 15.9 196 199 198
58.3 -38.9 15.8 196 199 198
58.5 -38.8 15.8 200 202 202
58.8 -38.7 15.7 162 165 164
59.0 -38.6 15.7 162 165 164
59.9 -39.0 15.8 215 215 215
59.9 -38.8 15.7 196 196 196
59.8 -38.4 15.6 196 196 196
20.2 -106.8 43.8 162 162 162
21.1 -106.1 43.5 161 161 161
24.4 -107.3 44.0 164 164 164
25.1 -106.1 43.5 163 163 163
26.2 -106.3 43.6 163 163 163
27.2 -106.3 43.6 163 163 163
29.3 -106.3 43.6 166 166 166
30.2 -106.1 43.5 163 163 163
31.2 -106.1 43.5 166 166 166
32.2 -106.1 43.5 167 167 167
33.2 -106.1 43.5 167 167 167
34.2 -106.1 43.5 167 167 167
35.2 -106.1 43.5 167 167 167
36.3 -106.1 43.5 167 167 167
37.4 -106.3 43.6 164 164 164
38.3 -106.1 43.5 164 164 164
39.0 -105.3 43.2 164 164 164
39.5 -103.9 42.6 164 164 164
42.7 -107.1 43.9 162 162 162
43.6 -106.8 43.8 162 162 162
44.2 -105.8 43.4 162 162 162
44.9 -105.1 43.1 162 162 162
45.7 -104.6 42.9 162 162 162
47.3 -105.8 43.4 162 162 162
48.5 -106.3 43.6 162 162 162
49.3 -105.8 43.4 162 162 162
50.4 -106.1 43.5 162 162 162
51.4 -106.1 43.5 162 162 162
52.4 -106.1 43.5 161 161 161
53.3 -105.8 43.4 163 163 163
54.3 -105.8 43.4 163 163 163
55.5 -106.1 43.5 163 163 163
56.6 -106.3 43.6 163 163 163
57.5 -106.1 43.5 163 163 163
103.2 -181.0 74.2 163 163 163
64.4 -107.6 44.1 164 164 164
63.7 -104.6 42.9 164 164 164
71.0 -111.5 45.7 164 164 164
70.5 -109.1 44.7 165 165 165
76.5 -111.7 45.8 164 164 164
73.0 -105.1 43.1 160 163 162
70.8 -100.5 41.2 160 163 162
85.3 -110.7 45.4 160 163 162
82.8 -106.1 43.5 160 163 162
81.9 -103.7 42.5 159 159 159
71.7 -50.5 20.7 95 95 95
70.7 -49.5 20.3 92 92 92
56.1 -38.0 15.6 95 95 95
55.9 -37.7 15.4 193 193 193
56.3 -37.6 15.4 150 152 152
56.9 -37.8 15.5 196 199 198
57.1 -37.7 15.5 196 199 198
57.4 -37.7 15.5 196 199 198
57.7 -37.6 15.4 211 211 211
57.9 -37.5 15.4 208 208 208
58.7 -37.8 15.5 200 202 202
59.1 -37.9 15.5 196 196 196
59.0 -37.6 15.4 215 215 215
38.4 -105.3 43.6 164 164 164
39.2 -102.2 42.3 164 164 164
42.9 -106.5 44.1 165 165 165
43.5 -105.5 43.7 165 165 165
45.5 -103.2 42.7 162 162 162
52.3 -104.8 43.4 166 166 166
53.1 -104.3 43.2 166 166 166
54.2 -104.6 43.3 166 166 166
55.5 -105.1 43.5 166 166 166
55.8 -103.9 43.0 166 166 166
56.3 -102.9 42.6 166 166 166
68.7 -115.4 47.8 167 167 167
70.5 -109.6 45.4 164 164 164
125.9 -192.8 79.8 165 165 165
130.5 -197.0 81.5 165 165 165
128.0 -190.4 78.8 166 166 166
70.5 -99.1 41.0 167 167 167
68.3 -94.8 39.2 165 165 165
83.3 -105.8 43.8 160 163 162
67.5 -46.8 19.4 95 95 95
65.9 -45.4 18.8 92 92 92
55.7 -37.1 15.4 190 190 190
57.4 -37.1 15.3 180 183 182
58.1 -37.1 15.4 182 185 184
58.6 -37.2 15.4 218 218 218
58.3 -36.8 15.2 211 211 211
52.9 -97.5 40.8 169 169 169
50.8 -92.0 38.4 169 169 169
134.4 -203.9 85.2 168 168 168
135.8 -203.0 84.8 168 168 168
131.3 -193.4 80.8 172 172 172
79.6 -56.2 23.5 98 100 100
60.8 -41.2 17.2 95 95 95
47.7 -30.7 12.8 180 183 182
47.1 -30.1 12.6 188 188 188
49.8 -89.3 37.7 171 173 173
46.6 -82.1 34.6 174 176 176
143.4 -218.7 92.3 172 174 174
136.9 -205.6 86.8 173 175 175
137.0 -202.8 85.6 173 175 175
134.2 -195.7 82.6 173 175 175
149.8 -215.5 90.9 174 176 176
143.0 -202.8 85.6 174 176 176
58.8 -39.5 16.7 92 92 92
57.8 -38.5 16.3 92 92 92
58.3 -38.6 16.3 96 99 98
45.7 -28.9 12.2 196 196 196
45.8 -28.8 12.2 211 211 211
46.4 -28.9 12.2 218 218 218
43.9 -76.5 32.6 178 178 178
44.0 -75.5 32.2 178 178 178
48.7 -79.4 33.8 181 181 181
148.5 -227.6 97.0 179 179 179
151.6 -228.8 97.5 179 179 179
143.5 -213.4 90.9 176 179 178
140.8 -206.4 88.0 176 179 178
135.9 -196.4 83.7 176 179 178
152.8 -217.6 92.7 177 180 179
151.9 -213.4 90.9 174 176 176
71.7 -49.6 21.2 98 100 100
71.1 -48.9 20.8 96 99 98
58.7 -39.0 16.6 92 92 92
56.9 -37.6 16.0 92 92 92
57.4 -37.6 16.0 95 95 95
57.8 -37.7 16.1 98 100 100
45.2 -28.3 12.1 208 208 208
45.8 -28.4 12.1 215 215 215
45.9 -28.3 12.0 218 218 218
41.4 -70.3 30.3 197 197 197
46.6 -76.6 33.0 197 197 197
46.0 -74.2 32.0 197 197 197
44.7 -71.1 30.6 200 200 200
139.3 -208.3 89.7 197 197 197
137.5 -202.5 87.2 202 202 202
138.3 -200.7 86.4 198 198 198
133.0 -190.2 81.9 202 202 202
141.0 -198.8 85.6 199 199 199
141.1 -196.2 84.4 199 199 199
136.9 -187.8 80.8 197 197 197
193.6 -144.6 62.2 112 114 113
70.9 -48.6 20.9 98 100 100
69.6 -47.4 20.4 98 100 100
68.6 -46.4 20.0 96 99 98
56.1 -36.7 15.8 92 92 92
57.0 -37.0 15.9 92 92 92
56.2 -36.3 15.6 98 100 100
42.9 -26.0 11.2 219 219 219
41.6 -71.1 30.9 200 200 200
40.4 -68.0 29.6 204 204 204
44.7 -71.6 31.1 204 204 204
43.9 -69.1 30.0 204 204 204
42.9 -66.4 28.9 204 204 204
133.2 -194.2 84.4 205 205 205
137.0 -196.9 85.6 205 205 205
129.1 -182.8 79.5 205 205 205
132.0 -184.3 80.2 206 206 206
133.9 -184.3 80.2 206 206 206
132.4 -179.8 78.2 206 206 206
150.0 -118.9 51.7 123 123 123
148.8 -116.9 50.9 121 121 121
146.8 -114.5 49.8 121 121 121
167.4 -124.7 54.2 111 113 112
174.7 -129.1 56.1 112 114 113
68.1 -46.2 20.1 98 100 100
67.2 -45.3 19.7 98 100 100
67.4 -45.1 19.6 98 100 100
40.3 -67.0 29.4 204 204 204
44.4 -70.3 30.9 204 204 204
43.0 -67.0 29.4 204 204 204
41.8 -64.1 28.1 204 204 204
40.9 -61.7 27.1 204 204 204
133.8 -193.1 84.8 205 205 205
137.0 -194.9 85.6 205 205 205
129.6 -181.7 79.8 205 205 205
131.5 -181.7 79.8 203 203 203
133.9 -182.5 80.2 206 206 206
134.1 -180.2 79.1 206 206 206
143.7 -112.7 49.5 124 127 126
143.8 -111.9 49.1 126 128 127
144.5 -111.6 49.0 126 128 127
145.3 -111.3 48.9 126 128 127
162.7 -120.0 52.7 113 115 114
159.9 -117.0 51.4 114 116 115
158.1 -114.8 50.4 112 114 113
37.9 -61.3 27.2 204 204 204
47.1 -75.0 33.3 204 204 204
44.7 -70.0 31.1 204 204 204
43.2 -66.6 29.6 204 204 204
41.1 -62.3 27.7 204 204 204
40.5 -60.5 26.9 204 204 204
139.3 -202.0 89.7 204 204 204
123.8 -176.9 78.5 205 205 205
134.6 -189.4 84.1 205 205 205
127.5 -176.9 78.5 205 205 205
128.2 -175.4 77.8 206 206 206
131.7 -177.6 78.8 206 206 206
131.3 -174.7 77.5 206 206 206
21.6 -22.8 10.1 157 157 157
160.8 -116.5 51.7 120 120 120
159.0 -114.3 50.7 118 118 118
67.5 -44.3 19.6 105 105 105
46.2 -72.9 32.7 207 207 207
44.7 -69.4 31.1 207 207 207
43.9 -67.0 30.0 207 207 207
42.0 -63.1 28.3 207 207 207
39.9 -59.1 26.5 207 207 207
137.0 -190.9 85.6 205 205 205
126.4 -173.6 77.8 205 205 205
125.7 -170.1 76.3 205 205 205
129.0 -172.2 77.2 205 205 205
125.7 -165.4 74.2 206 206 206
27.6 -35.8 16.1 206 206 206
27.4 -35.2 15.8 206 206 206
35.9 -63.3 28.7 206 206 206
36.8 -63.6 28.8 206 206 206
37.2 -63.3 28.7 206 206 206
39.9 -65.5 29.7 206 206 206
39.5 -63.7 28.9 206 206 206
39.4 -62.5 28.3 206 206 206
43.7 -67.0 30.4 206 206 206
42.6 -64.3 29.1 206 206 206
42.7 -63.4 28.7 206 206 206
43.1 -63.1 28.6 206 206 206
43.4 -62.5 28.3 206 206 206
378.5 -521.8 236.5 207 207 207
128.5 -174.7 79.1 209 209 209
27.7 -35.6 16.1 205 205 205
27.5 -34.9 15.8 206 206 206
26.9 -33.6 15.2 206 206 206
23.1 -25.8 11.7 206 206 206
-14.1 -22.0 10.1 130 130 130
-7.5 -22.0 10.1 136 138 137
35.5 -63.1 28.9 206 206 206
35.7 -62.3 28.5 208 208 208
36.8 -63.0 28.8 206 206 206
37.2 -62.6 28.7 206 206 206
39.6 -64.3 29.5 206 206 206
39.5 -63.0 28.8 206 206 206
39.3 -61.7 28.3 208 208 208
43.3 -65.7 30.1 206 206 206
42.5 -63.4 29.1 205 205 205
42.0 -61.7 28.3 202 202 202
43.3 -62.7 28.7 205 205 205
43.1 -61.5 28.1 205 205 205
27.1 -34.0 15.6 205 205 205
26.9 -33.3 15.2 205 205 205
23.7 -26.9 12.3 208 208 208
23.5 -26.3 12.0 208 208 208
-29.2 -22.4 10.4 46 46 44
-29.1 -22.5 10.4 47 48 47
-28.9 -22.5 10.4 46 46 44
-28.6 -22.5 10.4 46 46 44
-28.4 -22.5 10.4 46 46 44
-28.2 -22.5 10.4 50 50 50
-27.9 -22.5 10.4 47 48 47
-27.7 -22.5 10.4 47 48 47
-27.4 -22.5 10.4 47 48 47
-27.2 -22.5 10.4 47 48 47
-26.9 -22.5 10.4 46 45 43
-26.2 -22.6 10.4 42 43 42
-26.0 -22.5 10.4 42 43 42
-25.7 -22.5 10.4 46 45 43
-25.0 -22.5 10.4 40 40 40
-24.3 -22.5 10.4 37 38 37
-23.6 -22.5 10.4 37 38 37
-23.3 -22.5 10.4 40 40 40
-21.8 -22.5 10.4 57 57 57
-21.5 -22.4 10.4 76 76 74
-21.1 -22.5 10.4 92 92 92
-20.5 -22.6 10.5 101 101 101
-20.1 -22.5 10.4 105 105 105
-19.9 -22.6 10.4 105 105 105
-18.6 -22.5 10.4 107 109 109
-18.2 -22.6 10.4 112 112 112
-18.0 -22.6 10.5 112 112 112
-17.7 -22.5 10.4 112 112 112
-17.4 -22.5 10.4 112 112 112
-17.1 -22.4 10.4 113 114 113
-16.2 -22.4 10.4 117 117 117
-15.8 -22.2 10.3 118 120 119
-15.3 -22.5 10.4 120 122 121
-15.1 -22.6 10.4 123 123 123
-14.8 -22.4 10.4 123 123 123
-14.4 -22.2 10.3 124 124 124
-14.2 -22.7 10.5 126 126 126
-13.2 -22.6 10.5 131 131 131
-12.8 -22.3 10.3 134 133 132
-10.0 -22.6 10.5 134 136 135
-9.6 -22.2 10.3 137 137 137
-8.8 -22.6 10.5 140 140 140
-6.8 -22.6 10.5 141 143 142
-5.8 -22.5 10.4 152 152 152
-5.6 -22.6 10.5 155 158 157
-3.2 -22.5 10.4 163 163 163
34.9 -60.2 27.9 205 205 205
35.3 -59.8 27.7 205 205 205
38.5 -60.8 28.1 207 207 207
38.9 -60.5 28.0 205 205 205
43.9 -65.9 30.5 207 207 207
42.1 -62.3 28.8 205 205 205
40.9 -59.6 27.6 207 207 207
42.4 -59.8 27.7 205 205 205
27.2 -33.7 15.6 207 207 207
26.8 -32.8 15.2 207 207 207
26.7 -32.2 14.9 208 208 208
27.3 -32.6 15.1 205 205 205
23.9 -26.8 12.4 207 207 207
24.0 -26.6 12.3 207 207 207
-30.4 -23.1 10.8 43 43 43
-30.3 -23.2 10.9 46 46 44
-30.1 -23.2 10.9 46 46 44
-29.8 -23.2 10.9 48 48 48
-29.6 -23.2 10.9 48 48 48
-29.3 -23.2 10.9 48 48 48
-29.1 -23.2 10.9 48 48 48
-28.8 -23.2 10.9 51 51 51
-28.6 -23.2 10.9 48 48 48
-28.3 -23.2 10.9 46 46 44
-28.0 -23.2 10.9 46 46 44
-27.8 -23.2 10.9 46 46 44
-27.6 -23.2 10.9 46 46 44
-27.3 -23.2 10.9 46 46 44
-27.0 -23.2 10.9 43 43 43
-26.8 -23.2 10.9 43 43 43
-26.5 -23.2 10.9 43 43 43
-26.3 -23.2 10.9 43 43 43
-26.1 -23.2 10.9 38 38 38
-25.8 -23.2 10.9 41 41 41
-25.5 -23.2 10.9 38 38 38
-25.3 -23.2 10.9 38 38 38
-25.0 -23.2 10.9 38 38 38
-24.8 -23.2 10.9 38 38 38
-24.5 -23.2 10.9 38 38 38
-24.3 -23.2 10.9 38 38 38
-24.0 -23.2 10.9 38 38 38
-23.5 -23.2 10.9 42 43 42
-23.3 -23.2 10.9 42 43 42
-23.0 -23.2 10.9 42 43 42
-22.7 -23.2 10.8 46 46 44
-22.4 -23.1 10.8 47 48 47
-22.3 -23.2 10.9 46 46 44
-22.0 -23.2 10.8 61 63 61
-21.8 -23.2 10.9 78 78 78
-21.5 -23.3 10.9 85 85 85
-21.2 -23.2 10.8 96 99 98
-21.0 -23.2 10.9 95 95 95
-20.7 -23.2 10.8 96 99 98
-20.5 -23.2 10.9 98 100 100
-20.3 -23.2 10.9 104 104 104
-20.0 -23.2 10.9 106 106 106
-19.7 -23.2 10.9 108 108 108
-19.5 -23.2 10.9 108 108 108
-19.2 -23.2 10.9 108 110 110
-18.9 -23.1 10.8 108 110 110
-18.6 -23.1 10.8 107 107 107
-18.4 -23.2 10.8 108 110 110
-18.1 -23.1 10.8 107 109 109
-17.9 -23.2 10.8 109 111 111
-17.7 -23.2 10.8 109 111 111
-17.5 -23.2 10.9 113 114 113
-17.2 -23.2 10.8 115 115 115
-16.9 -23.1 10.8 115 114 114
-16.7 -23.2 10.9 116 116 116
-16.5 -23.2 10.9 119 119 119
-15.7 -23.2 10.8 119 121 120
-15.4 -23.1 10.8 119 121 120
-14.9 -23.2 10.9 121 123 122
-14.6 -23.1 10.8 118 120 119
-13.6 -23.0 10.8 128 128 128
-10.0 -21.4 10.0 128 130 129
-10.7 -23.3 10.9 131 131 131
-10.3 -23.0 10.8 132 132 132
-10.1 -23.0 10.8 132 135 134
-9.8 -23.0 10.7 136 136 136
-9.6 -23.2 10.8 137 137 137
-9.4 -23.2 10.8 137 139 138
-9.1 -23.3 10.9 140 140 140
-8.9 -23.2 10.8 141 143 142
-7.4 -23.2 10.9 143 145 144
-7.1 -23.2 10.9 147 147 147
-6.4 -23.2 10.9 155 155 155
-6.1 -23.2 10.9 158 161 160
-4.1 -23.2 10.9 167 167 167
-0.3 -23.3 10.9 179 179 179
-0.0 -23.2 10.9 179 179 179
1.0 -23.3 10.9 179 179 179
1.2 -23.2 10.9 179 179 179
2.2 -23.2 10.9 180 180 180
3.7 -23.2 10.8 183 183 183
35.2 -60.2 28.1 207 207 207
44.6 -66.3 31.0 207 207 207
43.1 -63.0 29.5 207 207 207
41.9 -60.3 28.2 207 207 207
39.5 -53.5 25.1 207 207 207
27.1 -32.8 15.3 207 207 207
26.5 -31.7 14.8 207 207 207
27.1 -32.0 15.0 207 207 207
24.1 -26.7 12.5 206 206 206
-30.8 -23.1 10.9 47 46 45
-30.6 -23.2 11.0 47 46 45
-30.3 -23.2 11.0 49 49 49
-30.1 -23.2 11.0 49 49 49
-29.8 -23.2 11.0 49 49 49
-29.6 -23.2 11.0 49 49 49
-29.3 -23.2 11.0 49 49 49
-29.1 -23.2 11.0 51 51 51
-28.8 -23.2 11.0 49 49 49
-28.5 -23.2 11.0 47 46 45
-28.3 -23.2 11.0 47 46 45
-28.0 -23.2 11.0 49 49 49
-27.8 -23.2 11.0 49 49 49
-27.5 -23.2 11.0 49 49 49
-27.3 -23.2 11.0 47 46 45
-27.0 -23.1 10.9 47 46 45
-26.7 -23.1 10.9 44 44 44
-26.5 -23.2 11.0 43 43 43
-26.3 -23.2 11.0 42 42 42
-26.0 -23.2 11.0 43 43 43
-25.7 -23.2 11.0 42 42 42
-25.5 -23.2 11.0 42 42 42
-25.2 -23.2 11.0 42 42 42
-25.0 -23.2 11.0 42 42 42
-24.7 -23.2 11.0 42 42 42
-24.5 -23.2 11.0 42 42 42
-24.2 -23.1 10.9 39 39 39
-24.0 -23.1 10.9 36 37 36
-23.7 -23.2 11.0 39 39 39
-23.5 -23.2 11.0 42 42 42
-23.2 -23.2 11.0 42 42 42
-22.9 -23.1 10.9 42 42 42
-22.7 -23.2 11.0 44 44 44
-22.4 -23.2 11.0 44 44 44
-22.2 -23.1 10.9 44 44 44
-22.0 -23.2 11.0 44 44 44
-21.7 -23.2 11.0 50 50 50
-21.4 -23.2 11.0 66 68 67
-21.2 -23.1 10.9 80 83 82
-20.9 -23.1 10.9 92 92 92
-20.7 -23.2 11.0 92 92 92
-20.4 -23.2 11.0 97 100 99
-20.1 -23.2 11.0 97 100 99
-19.9 -23.2 11.0 99 101 101
-19.6 -23.2 11.0 103 103 103
-19.4 -23.2 11.0 103 103 103
-19.1 -23.2 11.0 105 105 105
-18.9 -23.1 10.9 105 105 105
-18.6 -23.1 10.9 106 106 106
-18.4 -23.1 10.9 106 106 106
-18.1 -23.1 10.9 109 109 109
-17.8 -23.1 10.9 108 108 108
-17.6 -23.2 11.0 109 111 111
-17.3 -23.1 10.9 109 111 111
-17.1 -23.1 10.9 109 111 111
-16.8 -23.2 11.0 111 113 112
-16.6 -23.2 11.0 115 114 114
-16.4 -23.2 11.0 115 114 114
-16.1 -23.2 11.0 116 116 116
-15.8 -23.1 10.9 120 120 120
-15.5 -23.1 10.9 120 120 120
-15.4 -23.3 11.0 120 120 120
-15.1 -23.2 11.0 120 120 120
-14.8 -23.1 10.9 119 119 119
-14.0 -23.2 11.0 120 122 121
-13.7 -23.0 10.9 122 124 123
-13.5 -23.1 10.9 124 124 124
-10.7 -23.2 11.0 126 129 128
-10.4 -23.0 10.9 130 130 130
-10.2 -23.1 10.9 131 134 133
-9.9 -23.0 10.9 131 133 132
-9.7 -23.1 10.9 134 134 134
-9.5 -23.2 11.0 136 138 137
-9.2 -23.2 11.0 139 139 139
-8.9 -23.1 10.9 138 138 138
-8.7 -23.1 10.9 141 143 142
-8.3 -23.4 11.0 143 143 142
-8.0 -23.2 11.0 147 147 147
-7.7 -23.2 11.0 145 147 147
-7.4 -23.1 10.9 147 147 147
-7.2 -23.1 10.9 151 151 151
-6.9 -23.1 10.9 151 151 151
-6.4 -23.2 11.0 162 162 162
-6.1 -23.2 11.0 167 167 167
-5.9 -23.2 11.0 166 169 168
-5.6 -23.2 11.0 164 167 166
-5.4 -23.2 11.0 166 169 168
-5.1 -23.2 11.0 172 172 172
-4.9 -23.2 11.0 169 169 169
-4.6 -23.2 11.0 174 176 176
-4.4 -23.2 11.0 173 175 175
-4.1 -23.2 11.0 175 177 177
-3.8 -23.1 10.9 178 178 178
-3.6 -23.2 11.0 177 177 177
-3.3 -23.2 11.0 177 177 177
-3.1 -23.2 11.0 182 182 182
-2.8 -23.2 11.0 182 182 182
-2.6 -23.2 11.0 181 181 181
-2.3 -23.2 11.0 181 181 181
-2.1 -23.2 11.0 181 181 181
-1.8 -23.2 11.0 179 179 179
-1.6 -23.2 11.0 179 179 179
-1.3 -23.2 11.0 179 179 179
-1.1 -23.1 10.9 181 181 181
-0.8 -23.2 11.0 181 181 181
-0.5 -23.2 11.0 181 181 181
-0.3 -23.2 11.0 181 181 181
-0.0 -23.2 11.0 180 180 180
0.2 -23.2 11.0 180 180 180
0.5 -23.2 11.0 180 180 180
0.7 -23.2 11.0 180 180 180
1.0 -23.2 11.0 180 180 180
1.2 -23.1 10.9 180 180 180
1.5 -23.1 10.9 180 180 180
1.7 -23.1 10.9 180 180 180
2.0 -23.2 11.0 180 180 180
2.3 -23.2 11.0 182 182 182
2.5 -23.1 10.9 182 182 182
2.8 -23.1 10.9 182 182 182
3.0 -23.1 10.9 182 182 182
3.3 -23.2 11.0 182 182 182
3.5 -23.2 11.0 182 182 182
3.8 -23.1 10.9 182 182 182
4.0 -23.1 10.9 182 182 182
4.3 -23.2 11.0 182 182 182
5.1 -23.2 11.0 202 202 202
5.3 -23.1 10.9 205 205 205
6.1 -23.2 11.0 207 207 207
6.6 -23.2 11.0 207 207 207
6.8 -23.1 10.9 207 207 207
7.1 -23.1 10.9 207 207 207
7.4 -23.2 11.0 207 207 207
8.1 -23.2 11.0 207 207 207
8.4 -23.2 11.0 207 207 207
9.7 -23.2 11.0 207 207 207
9.9 -23.1 10.9 207 207 207
10.1 -23.1 10.9 207 207 207
10.4 -23.2 11.0 207 207 207
12.5 -23.3 11.0 206 206 206
13.0 -23.2 11.0 206 206 206
13.5 -23.3 11.0 206 206 206
39.5 -61.0 28.8 206 206 206
44.9 -66.0 31.2 206 206 206
42.9 -62.0 29.3 206 206 206
39.7 -53.2 25.2 206 206 206
26.4 -31.2 14.8 206 206 206
27.0 -31.6 14.9 207 207 207
24.4 -27.1 12.8 205 205 205
-21.6 -21.8 10.4 41 41 41
-17.8 -21.9 10.5 101 103 103
-15.0 -22.9 10.9 112 114 113
-13.9 -28.3 13.6 122 122 122
-13.6 -28.3 13.5 119 119 119
-13.0 -28.3 13.6 124 124 124
-9.6 -23.2 11.1 125 125 125
-11.4 -28.4 13.6 132 132 132
-11.1 -28.5 13.6 140 140 140
-10.8 -28.4 13.6 141 143 142
-10.4 -28.4 13.6 155 155 155
-10.1 -28.3 13.6 149 151 151
-9.7 -28.2 13.5 155 155 155
-8.6 -28.4 13.6 167 167 167
-8.2 -28.4 13.6 170 172 172
-7.6 -28.4 13.6 174 174 174
-7.3 -28.4 13.6 177 177 177
-7.0 -28.3 13.6 177 177 177
-6.7 -28.3 13.6 179 182 181
-6.3 -28.3 13.5 182 182 182
-6.0 -28.3 13.5 183 183 183
-5.7 -28.4 13.6 184 184 184
-5.4 -28.4 13.6 186 186 186
-5.1 -28.4 13.6 185 185 185
-4.8 -28.4 13.6 188 188 188
-4.5 -28.4 13.6 188 188 188
-4.1 -28.4 13.6 188 188 188
-3.8 -28.4 13.6 186 186 186
-3.5 -28.4 13.6 186 186 186
-3.2 -28.4 13.6 186 186 186
-2.9 -28.3 13.6 186 186 186
-2.6 -28.3 13.6 186 186 186
-2.2 -28.3 13.6 183 183 183
-0.7 -28.4 13.6 183 183 183
-0.4 -28.4 13.6 182 182 182
-0.0 -28.4 13.6 182 182 182
0.3 -28.4 13.6 182 182 182
0.6 -28.3 13.6 179 179 179
1.5 -28.4 13.6 182 182 182
1.9 -28.4 13.6 182 182 182
2.2 -28.4 13.6 182 182 182
2.8 -28.5 13.6 182 182 182
3.1 -28.3 13.5 179 179 179
3.4 -28.4 13.6 179 179 179
3.8 -28.4 13.6 181 181 181
4.1 -28.4 13.6 181 181 181
4.7 -28.4 13.6 181 181 181
5.0 -28.4 13.6 185 185 185
5.6 -28.4 13.6 176 176 176
6.0 -28.4 13.6 181 181 181
6.9 -28.4 13.6 207 207 207
7.2 -28.4 13.6 207 207 207
7.5 -28.4 13.6 207 207 207
7.8 -28.3 13.6 207 207 207
8.1 -28.3 13.5 207 207 207
8.5 -28.4 13.6 207 207 207
8.8 -28.4 13.6 207 207 207
9.1 -28.4 13.6 210 210 210
9.4 -28.4 13.6 210 210 210
9.7 -28.4 13.6 210 210 210
10.1 -28.4 13.6 207 207 207
10.4 -28.4 13.6 206 206 206
10.7 -28.4 13.6 206 206 206
11.0 -28.4 13.6 206 206 206
11.3 -28.4 13.6 206 206 206
11.6 -28.4 13.6 206 206 206
12.0 -28.4 13.6 206 206 206
12.3 -28.4 13.6 206 206 206
12.6 -28.4 13.6 206 206 206
12.9 -28.3 13.6 206 206 206
13.2 -28.4 13.6 206 206 206
13.9 -28.4 13.6 206 206 206
14.2 -28.4 13.6 206 206 206
14.5 -28.4 13.6 206 206 206
14.8 -28.4 13.6 206 206 206
15.1 -28.4 13.6 206 206 206
15.4 -28.3 13.5 206 206 206
15.8 -28.4 13.6 206 206 206
16.1 -28.4 13.6 206 206 206
16.3 -28.3 13.5 206 206 206
16.7 -28.3 13.6 206 206 206
17.0 -28.4 13.6 206 206 206
43.3 -61.9 29.6 205 205 205
40.9 -57.6 27.6 205 205 205
42.1 -57.5 27.5 205 205 205
42.5 -57.1 27.3 206 206 206
40.3 -52.6 25.2 204 204 204
27.2 -31.4 15.0 206 206 206
26.7 -30.4 14.6 206 206 206
24.4 -26.5 12.7 205 205 205
-13.3 -28.1 13.6 108 110 110
14.4 -30.6 14.8 206 206 206
14.5 -30.0 14.5 206 206 206
40.8 -56.8 27.5 205 205 205
39.7 -54.5 26.3 205 205 205
41.6 -55.4 26.8 205 205 205
41.2 -54.0 26.1 205 205 205
41.3 -53.3 25.8 205 205 205
42.6 -54.2 26.2 206 206 206
45.4 -57.0 27.6 206 206 206
-27.9 -33.0 16.2 93 96 95
-4.2 -24.7 12.1 193 193 193
-2.3 -24.6 12.1 193 193 193
-1.7 -24.6 12.0 190 190 190
-1.4 -24.5 12.0 190 190 190
0.8 -24.7 12.1 186 186 186
1.9 -24.7 12.1 183 183 183
2.2 -24.7 12.1 183 183 183
6.7 -24.7 12.1 209 209 209
8.4 -24.7 12.1 209 209 209
8.7 -24.6 12.1 209 209 209
8.9 -24.6 12.1 206 206 206
9.2 -24.6 12.0 205 205 205
10.1 -24.6 12.1 205 205 205
13.3 -30.1 14.7 205 205 205
11.2 -24.7 12.1 205 205 205
11.5 -24.7 12.1 205 205 205
13.1 -24.6 12.0 205 205 205
13.4 -24.6 12.0 203 203 203
14.3 -24.7 12.1 205 205 205
14.5 -24.6 12.0 208 208 208
15.1 -24.6 12.0 205 205 205
17.1 -24.7 12.1 205 205 205
39.6 -54.5 26.7 204 204 204
39.5 -53.6 26.2 204 204 204
41.4 -54.4 26.6 205 205 205
40.9 -53.0 25.9 205 205 205
41.1 -52.5 25.7 205 205 205
42.4 -53.3 26.1 205 205 205
42.4 -52.6 25.7 205 205 205
69.5 -80.6 39.4 204 204 204
-37.1 -33.2 16.4 47 48 47
-36.8 -33.3 16.5 47 48 47
-36.6 -33.4 16.5 47 48 47
-36.1 -33.3 16.5 45 45 45
-35.5 -33.2 16.4 47 48 47
-35.3 -33.3 16.5 47 48 47
-34.8 -33.2 16.4 46 46 46
-34.5 -33.3 16.5 47 48 47
-34.3 -33.4 16.5 46 46 46
-33.7 -33.2 16.4 43 43 43
-30.7 -33.4 16.5 40 40 40
-30.3 -33.3 16.5 42 43 42
-29.7 -33.0 16.3 39 38 37
-29.6 -33.4 16.5 47 47 47
-29.4 -33.5 16.6 48 48 48
-28.9 -33.4 16.5 49 49 49
-28.2 -33.1 16.4 56 56 56
-10.9 -24.2 12.0 27 29 27
-10.4 -24.4 12.1 30 29 28
-10.1 -24.3 12.0 30 30 30
-6.5 -24.4 12.1 209 209 209
-6.2 -24.4 12.1 209 209 209
-5.9 -24.3 12.0 205 205 205
-5.6 -24.4 12.1 206 206 206
-5.4 -24.4 12.1 203 203 203
-5.1 -24.4 12.1 203 203 203
-4.8 -24.4 12.1 202 202 202
-4.2 -24.4 12.1 200 200 200
-4.0 -24.4 12.1 197 197 197
-3.7 -24.4 12.1 197 197 197
-3.4 -24.4 12.1 197 197 197
-3.1 -24.4 12.1 197 197 197
-2.8 -24.4 12.1 197 197 197
-2.6 -24.4 12.1 194 194 194
-2.3 -24.4 12.1 194 194 194
-2.0 -24.3 12.0 194 194 194
-1.7 -24.3 12.0 197 197 197
-1.4 -24.2 12.0 197 197 197
-0.0 -24.4 12.1 191 191 191
0.2 -24.4 12.1 191 191 191
0.5 -24.5 12.1 191 191 191
0.8 -24.4 12.1 191 191 191
1.1 -24.4 12.1 189 189 189
1.6 -24.3 12.0 189 189 189
1.9 -24.4 12.1 185 185 185
2.2 -24.4 12.1 185 185 185
3.0 -24.4 12.1 185 185 185
3.3 -24.4 12.1 182 182 182
3.6 -24.3 12.0 182 182 182
3.9 -24.3 12.0 182 182 182
6.7 -24.4 12.1 208 208 208
7.0 -24.4 12.1 208 208 208
7.3 -24.4 12.1 208 208 208
7.8 -24.4 12.1 208 208 208
8.1 -24.4 12.1 208 208 208
8.4 -24.4 12.1 208 208 208
8.7 -24.4 12.1 208 208 208
8.9 -24.4 12.1 208 208 208
9.2 -24.4 12.1 208 208 208
9.5 -24.3 12.0 208 208 208
9.8 -24.4 12.1 205 205 205
10.0 -24.3 12.0 208 208 208
10.3 -24.3 12.0 208 208 208
10.6 -24.3 12.0 208 208 208
10.9 -24.4 12.1 205 205 205
11.2 -24.4 12.1 205 205 205
11.4 -24.3 12.0 205 205 205
11.7 -24.3 12.0 205 205 205
12.0 -24.4 12.1 205 205 205
12.3 -24.3 12.0 205 205 205
13.0 -24.6 12.2 205 205 205
13.1 -24.3 12.0 204 204 204
13.4 -24.3 12.0 207 207 207
13.7 -24.3 12.0 207 207 207
14.1 -24.6 12.1 209 209 209
14.3 -24.4 12.1 207 207 207
14.5 -24.3 12.0 207 207 207
14.9 -24.4 12.1 207 207 207
15.1 -24.3 12.0 207 207 207
15.3 -24.3 12.0 207 207 207
15.9 -24.3 12.0 204 204 204
16.2 -24.4 12.1 207 207 207
16.5 -24.4 12.1 207 207 207
16.8 -24.5 12.1 207 207 207
17.1 -24.4 12.1 204 204 204
17.3 -24.4 12.1 204 204 204
17.6 -24.4 12.1 204 204 204
39.8 -54.1 26.8 207 207 207
39.5 -52.9 26.2 204 204 204
41.5 -53.9 26.7 204 204 204
41.1 -52.7 26.1 204 204 204
41.2 -52.0 25.7 204 204 204
42.6 -52.9 26.2 205 205 205
42.3 -51.9 25.7 205 205 205
61.6 -72.5 35.9 205 205 205
68.1 -78.0 38.6 206 206 206
-27.3 -24.9 12.5 48 48 48
-35.0 -33.7 16.9 47 47 47
-29.6 -33.8 16.9 44 44 44
-10.9 -23.9 12.0 27 29 27
-10.6 -23.9 12.0 27 29 27
-10.1 -24.0 12.0 31 31 31
-9.8 -23.9 12.0 39 39 39
-9.5 -23.9 12.0 150 150 150
-9.2 -23.9 11.9 183 183 183
-7.3 -24.0 12.0 218 221 220
-6.7 -23.9 12.0 215 218 217
-6.5 -24.0 12.0 215 218 217
-6.2 -24.0 12.0 214 214 214
-5.9 -23.9 12.0 211 211 211
-5.6 -24.0 12.0 211 211 211
-5.4 -24.1 12.0 208 208 208
-5.1 -24.0 12.0 208 208 208
-4.8 -24.0 12.0 207 207 207
-4.5 -24.0 12.0 205 205 205
-4.2 -24.0 12.0 204 204 204
-3.9 -24.0 12.0 204 204 204
-3.7 -24.0 12.0 202 202 202
-3.4 -24.0 12.0 202 202 202
-3.1 -24.0 12.0 202 202 202
-2.8 -24.0 12.0 198 198 198
-2.5 -24.0 12.0 198 198 198
-2.3 -24.0 12.0 196 196 196
-2.0 -24.0 12.0 196 196 196
-1.7 -23.9 12.0 198 198 198
-1.4 -23.9 12.0 198 198 198
-0.3 -24.0 12.0 196 196 196
-0.0 -24.0 12.0 195 195 195
0.2 -24.0 12.0 195 195 195
0.5 -24.1 12.1 193 193 193
0.8 -24.1 12.1 193 193 193
1.1 -24.1 12.0 193 193 193
1.4 -24.0 12.0 190 190 190
1.6 -24.0 12.0 190 190 190
1.9 -24.0 12.0 188 188 188
2.2 -24.0 12.0 188 188 188
2.5 -24.0 12.0 188 188 188
2.8 -24.0 12.0 184 184 184
3.0 -24.0 12.0 184 184 184
3.3 -24.0 12.0 184 184 184
3.6 -23.9 12.0 181 181 181
3.9 -24.0 12.0 181 181 181
4.2 -24.0 12.0 181 181 181
4.4 -24.0 12.0 181 181 181
4.7 -24.1 12.1 178 178 178
5.0 -24.1 12.1 178 178 178
6.4 -24.1 12.1 208 208 208
6.7 -24.0 12.0 208 208 208
7.0 -24.1 12.0 208 208 208
7.2 -24.0 12.0 208 208 208
7.5 -23.9 12.0 208 208 208
7.8 -24.1 12.0 208 208 208
8.1 -24.1 12.0 208 208 208
8.4 -24.0 12.0 208 208 208
8.6 -24.0 12.0 208 208 208
8.9 -24.0 12.0 208 208 208
9.2 -24.0 12.0 207 207 207
9.5 -24.0 12.0 207 207 207
9.7 -24.0 12.0 207 207 207
10.0 -24.0 12.0 207 207 207
10.3 -23.9 12.0 207 207 207
10.6 -23.9 12.0 207 207 207
10.9 -24.0 12.0 207 207 207
11.1 -24.0 12.0 207 207 207
11.4 -23.9 12.0 204 204 204
11.7 -24.0 12.0 204 204 204
12.0 -24.1 12.0 204 204 204
12.2 -23.9 12.0 207 207 207
12.5 -23.9 12.0 204 204 204
12.9 -24.1 12.1 204 204 204
13.1 -23.9 12.0 200 200 200
13.3 -23.9 12.0 204 204 204
13.6 -24.0 12.0 207 207 207
14.0 -24.1 12.1 207 207 207
14.2 -24.1 12.0 207 207 207
14.5 -23.9 12.0 204 204 204
14.8 -24.1 12.0 204 204 204
15.0 -24.0 12.0 207 207 207
15.3 -23.9 12.0 207 207 207
15.6 -24.0 12.0 207 207 207
15.9 -24.0 12.0 207 207 207
16.2 -24.0 12.0 207 207 207
16.5 -24.0 12.0 207 207 207
16.8 -24.1 12.1 206 206 206
17.0 -24.0 12.0 203 203 203
17.3 -24.0 12.0 206 206 206
17.6 -24.0 12.0 206 206 206
17.9 -24.0 12.0 206 206 206
41.8 -53.7 26.9 203 203 203
41.4 -52.5 26.3 204 204 204
43.2 -53.1 26.6 204 204 204
42.2 -51.1 25.6 204 204 204
65.2 -74.8 37.5 205 205 205
67.3 -76.2 38.1 205 205 205
68.0 -76.0 38.1 205 205 205
-33.6 -23.6 11.9 55 55 55
-27.2 -24.6 12.4 49 49 49
-29.8 -33.7 17.1 41 41 39
-10.9 -23.6 11.9 29 30 28
-10.6 -23.6 12.0 29 30 28
-9.7 -23.5 11.9 39 39 39
-9.4 -23.5 11.9 143 145 144
-9.2 -23.5 11.9 183 183 183
-7.3 -23.6 12.0 224 224 224
-7.0 -23.6 11.9 221 221 221
-6.7 -23.5 11.9 221 221 221
-6.4 -23.6 11.9 220 220 220
-6.1 -23.6 11.9 215 218 217
-5.9 -23.6 11.9 215 218 217
-5.6 -23.6 11.9 215 218 217
-5.3 -23.6 12.0 212 214 214
-5.0 -23.6 12.0 212 214 214
-4.8 -23.6 11.9 210 210 210
-4.5 -23.6 11.9 209 209 209
-4.2 -23.6 11.9 207 207 207
-3.9 -23.6 11.9 207 207 207
-3.6 -23.6 11.9 204 204 204
-3.4 -23.6 11.9 205 205 205
-3.1 -23.6 11.9 203 203 203
-2.8 -23.6 11.9 203 203 203
-2.5 -23.6 11.9 200 200 200
-2.3 -23.6 11.9 200 200 200
-2.0 -23.6 11.9 197 197 197
-1.7 -23.6 11.9 197 197 197
-1.4 -23.5 11.9 197 197 197
-1.1 -23.5 11.9 197 197 197
-0.9 -23.6 11.9 197 197 197
-0.6 -23.6 11.9 197 197 197
-0.3 -23.6 11.9 197 197 197
-0.0 -23.6 11.9 197 197 197
0.2 -23.6 11.9 197 197 197
0.8 -23.7 12.0 195 195 195
1.1 -23.6 11.9 195 195 195
1.4 -23.6 11.9 192 192 192
1.6 -23.6 11.9 192 192 192
1.9 -23.6 12.0 192 192 192
2.2 -23.6 11.9 189 189 189
2.5 -23.6 11.9 189 189 189
2.7 -23.6 12.0 189 189 189
3.0 -23.6 11.9 186 186 186
3.3 -23.6 11.9 186 186 186
3.6 -23.6 11.9 183 183 183
3.9 -23.6 11.9 183 183 183
4.1 -23.6 11.9 181 181 181
4.4 -23.6 11.9 181 181 181
5.2 -23.6 12.0 177 177 177
5.5 -23.6 11.9 202 202 202
6.9 -23.6 12.0 207 207 207
7.2 -23.6 11.9 207 207 207
7.5 -23.6 11.9 207 207 207
7.8 -23.6 12.0 207 207 207
8.0 -23.6 12.0 207 207 207
8.3 -23.6 12.0 207 207 207
8.6 -23.6 11.9 207 207 207
8.9 -23.6 11.9 207 207 207
9.1 -23.6 11.9 207 207 207
9.4 -23.6 11.9 207 207 207
9.7 -23.6 12.0 207 207 207
10.0 -23.6 12.0 207 207 207
10.2 -23.6 11.9 207 207 207
10.5 -23.6 11.9 207 207 207
10.8 -23.6 11.9 207 207 207
11.1 -23.6 11.9 207 207 207
11.3 -23.6 11.9 204 204 204
11.6 -23.6 11.9 204 204 204
11.9 -23.6 12.0 204 204 204
12.2 -23.6 11.9 207 207 207
12.4 -23.5 11.9 207 207 207
12.8 -23.7 12.0 206 206 206
13.0 -23.6 11.9 203 203 203
13.3 -23.6 11.9 203 203 203
13.6 -23.6 11.9 206 206 206
13.9 -23.6 12.0 206 206 206
14.1 -23.6 12.0 206 206 206
14.4 -23.6 11.9 206 206 206
14.7 -23.6 12.0 206 206 206
15.0 -23.6 11.9 206 206 206
15.2 -23.5 11.9 206 206 206
15.5 -23.6 11.9 206 206 206
15.8 -23.6 11.9 206 206 206
16.1 -23.6 11.9 206 206 206
16.4 -23.6 12.0 206 206 206
16.9 -23.6 12.0 206 206 206
17.2 -23.6 11.9 206 206 206
17.5 -23.6 12.0 206 206 206
17.8 -23.6 12.0 206 206 206
40.8 -51.1 25.9 206 206 206
42.7 -51.2 25.9 204 204 204
43.7 -51.7 26.2 204 204 204
44.4 -51.8 26.2 204 204 204
44.4 -51.1 25.9 204 204 204
66.2 -75.1 38.1 204 204 204
68.1 -76.2 38.6 204 204 204
27.4 -29.9 15.2 205 205 205
-35.0 -24.3 12.4 58 58 58
-34.5 -24.3 12.5 60 62 60
-32.8 -24.3 12.5 58 59 59
-32.5 -24.3 12.5 58 59 59
-32.2 -24.3 12.5 58 59 59
-31.0 -24.3 12.5 54 54 54
-30.7 -24.3 12.5 54 54 54
-28.4 -24.3 12.4 53 52 51
-27.9 -24.1 12.4 50 50 50
-27.7 -24.2 12.4 47 48 47
-27.5 -24.3 12.4 50 50 50
-27.2 -24.3 12.4 50 50 50
-26.9 -24.3 12.4 50 50 50
-26.1 -24.3 12.4 48 48 48
-25.8 -24.3 12.5 46 46 46
-25.5 -24.3 12.5 47 47 47
-25.2 -24.3 12.5 47 47 47
-24.9 -24.3 12.4 49 49 49
-24.1 -24.3 12.5 45 45 45
-23.8 -24.3 12.4 42 43 42
-23.5 -24.3 12.5 43 43 43
-23.2 -24.3 12.4 43 43 43
-22.9 -24.3 12.5 43 43 43
-22.6 -24.3 12.4 42 42 40
-22.2 -24.2 12.4 43 43 43
-22.0 -24.3 12.5 42 42 40
-21.8 -24.4 12.5 40 40 40
-21.5 -24.3 12.5 40 40 40
-21.1 -24.3 12.4 41 41 41
-20.8 -24.2 12.4 41 41 41
-20.4 -24.0 12.3 41 41 41
-11.1 -23.3 11.9 29 31 29
-10.9 -23.3 11.9 29 30 28
-11.0 -24.2 12.4 32 31 30
-10.6 -23.9 12.3 32 32 32
7.5 -24.3 12.5 207 207 207
7.8 -24.4 12.5 207 207 207
8.1 -24.3 12.4 207 207 207
8.3 -24.1 12.4 207 207 207
8.6 -24.2 12.4 207 207 207
8.9 -24.3 12.4 207 207 207
9.5 -24.3 12.4 206 206 206
9.8 -24.3 12.4 206 206 206
10.1 -24.3 12.4 206 206 206
10.4 -24.2 12.4 206 206 206
10.7 -24.3 12.4 206 206 206
11.0 -24.3 12.5 206 206 206
11.3 -24.4 12.5 206 206 206
11.6 -24.4 12.5 206 206 206
11.8 -24.3 12.5 206 206 206
12.1 -24.3 12.5 206 206 206
12.3 -24.2 12.4 206 206 206
12.6 -24.2 12.4 203 203 203
13.2 -24.7 12.6 206 206 206
13.3 -24.3 12.5 206 206 206
13.5 -24.2 12.4 206 206 206
13.8 -24.1 12.4 206 206 206
14.4 -24.3 12.5 206 206 206
14.6 -24.0 12.3 206 206 206
15.0 -24.3 12.4 206 206 206
15.3 -24.3 12.5 206 206 206
15.5 -24.1 12.4 206 206 206
15.9 -24.3 12.4 206 206 206
16.2 -24.3 12.5 206 206 206
17.4 -24.4 12.5 205 205 205
17.6 -24.2 12.4 205 205 205
17.9 -24.3 12.4 205 205 205
18.2 -24.3 12.4 205 205 205
18.3 -24.1 12.3 205 205 205
18.8 -24.3 12.5 205 205 205
41.2 -50.9 26.1 205 205 205
44.2 -51.6 26.5 206 206 206
44.5 -51.3 26.3 203 203 203
44.8 -50.9 26.1 204 204 204
67.9 -76.1 39.0 204 204 204
69.2 -76.6 39.2 204 204 204
27.5 -29.6 15.2 204 204 204
27.9 -29.7 15.2 204 204 204
-35.9 -24.6 12.8 58 59 59
-35.9 -24.8 12.9 58 59 59
-35.5 -24.7 12.8 61 63 61
-35.2 -24.7 12.8 61 63 61
-34.9 -24.7 12.8 61 63 61
-34.0 -24.7 12.8 59 59 59
-33.7 -24.7 12.8 59 59 59
-33.4 -24.7 12.8 59 59 59
-33.1 -24.7 12.8 59 59 59
-31.6 -24.7 12.8 55 55 55
-30.1 -24.7 12.8 50 50 50
-29.8 -24.7 12.8 51 51 51
-29.5 -24.7 12.8 54 53 52
-29.1 -24.6 12.7 54 53 52
-29.0 -24.8 12.9 51 51 51
-28.5 -24.6 12.7 51 51 51
-28.1 -24.5 12.7 51 51 51
-27.7 -24.4 12.7 51 51 51
-27.5 -24.5 12.7 51 51 51
-27.5 -24.7 12.8 52 52 52
-27.0 -24.5 12.7 52 52 52
-26.5 -24.7 12.8 50 50 50
-26.2 -24.7 12.8 50 50 50
-25.5 -24.6 12.7 47 48 47
-24.0 -24.6 12.7 44 44 44
-23.5 -24.6 12.8 44 44 44
-23.1 -24.6 12.7 47 47 47
-22.3 -24.6 12.7 41 41 41
-21.9 -24.6 12.7 41 41 41
-21.7 -24.6 12.7 42 42 42
-11.6 -24.5 12.7 28 28 28
-11.2 -24.4 12.7 29 30 28
-10.9 -24.3 12.6 29 30 28
-10.7 -24.5 12.7 34 34 34
-9.9 -24.8 12.8 186 188 187
12.3 -24.4 12.7 206 206 206
13.3 -24.5 12.7 206 206 206
13.5 -24.4 12.7 205 205 205
14.4 -24.5 12.7 205 205 205
14.7 -24.4 12.6 205 205 205
15.6 -24.4 12.7 205 205 205
17.4 -24.5 12.7 205 205 205
17.6 -24.4 12.7 205 205 205
18.1 -24.3 12.6 205 205 205
42.4 -51.8 26.9 205 205 205
44.6 -52.9 27.5 205 205 205
45.0 -51.9 26.9 206 206 206
44.9 -51.1 26.5 206 206 206
45.1 -50.7 26.3 206 206 206
28.5 -30.0 15.5 204 204 204
-27.8 -23.0 12.1 55 54 53
-11.6 -23.2 12.2 29 29 29
-11.1 -22.7 11.9 33 32 30
-11.5 -24.7 13.0 29 31 29
-10.7 -24.9 13.1 40 40 40
-10.4 -25.0 13.1 174 174 174
-10.0 -24.8 13.0 184 184 184
-9.8 -25.0 13.1 183 186 185
-9.5 -24.9 13.1 188 188 188
45.1 -53.6 28.1 205 205 205
44.9 -52.7 27.7 205 205 205
47.1 -54.5 28.6 205 205 205
46.1 -52.5 27.6 205 205 205
45.7 -51.4 27.0 205 205 205
45.9 -51.0 26.8 205 205 205
47.6 -52.1 27.3 205 205 205
28.6 -29.7 15.6 203 203 203
31.1 -29.7 15.6 202 202 202
289.6 -161.6 84.8 177 177 177
-33.9 -22.7 12.0 59 59 59
-33.6 -22.7 12.0 62 64 61
-34.2 -23.2 12.3 62 64 61
-33.1 -22.7 12.1 62 64 61
-33.6 -23.2 12.3 66 66 66
-33.3 -23.2 12.3 63 64 62
-32.2 -22.7 12.0 63 64 62
-32.0 -22.7 12.0 63 64 62
-32.5 -23.2 12.3 63 64 62
-32.2 -23.2 12.3 63 64 62
-31.1 -22.7 12.1 60 60 60
-30.9 -22.7 12.1 61 61 61
-30.6 -22.7 12.0 61 61 61
-30.2 -23.2 12.3 58 59 59
-29.9 -23.2 12.3 57 57 57
-29.6 -23.2 12.3 57 57 57
-29.3 -23.2 12.3 56 55 54
-28.3 -22.7 12.0 56 55 54
-28.0 -22.7 12.0 56 55 54
-27.8 -22.7 12.0 56 55 54
-27.5 -22.7 12.0 56 55 54
-27.2 -22.7 12.0 56 55 54
-26.9 -22.7 12.0 57 56 55
-27.3 -23.2 12.4 57 56 55
-27.1 -23.3 12.4 53 52 52
-26.8 -23.3 12.4 53 53 53
-26.4 -23.2 12.3 53 53 53
-25.5 -22.7 12.0 53 53 53
-25.2 -22.7 12.0 53 53 53
-25.0 -23.2 12.3 52 52 52
-23.0 -22.6 12.0 46 46 46
-23.5 -23.4 12.4 46 46 46
-22.5 -22.7 12.1 46 46 46
-22.1 -22.7 12.0 47 47 47
-21.9 -22.7 12.1 47 47 47
-21.6 -22.7 12.0 45 44 43
-20.5 -22.7 12.1 43 43 43
-20.2 -22.7 12.1 43 43 43
-12.1 -23.2 12.3 35 35 35
-11.6 -22.8 12.1 43 42 41
-11.1 -22.5 11.9 52 52 52
-10.7 -22.1 11.8 55 55 55
-11.5 -24.4 13.0 57 57 57
-10.9 -24.3 12.9 29 30 28
-10.7 -24.6 13.1 48 48 48
-10.4 -24.7 13.1 185 185 185
-10.0 -24.5 13.0 183 186 185
-9.8 -24.7 13.1 184 187 186
-9.5 -24.6 13.1 183 186 185
45.3 -53.3 28.3 204 204 204
45.3 -52.5 27.9 204 204 204
47.1 -53.8 28.6 204 204 204
47.2 -53.1 28.2 204 204 204
45.9 -51.0 27.1 205 205 205
45.9 -50.3 26.7 205 205 205
47.6 -51.4 27.3 205 205 205
31.1 -29.0 15.4 202 202 202
-34.8 -22.9 12.3 63 64 62
-35.9 -23.9 12.9 66 66 66
-35.6 -23.9 12.9 63 64 62
-34.7 -23.9 12.9 67 67 67
-34.4 -23.9 12.9 64 65 63
-34.1 -23.9 12.9 64 65 63
-33.2 -23.9 12.9 61 61 61
-32.9 -23.9 12.9 64 65 63
-32.6 -23.9 12.9 62 62 62
-32.3 -23.9 12.9 64 65 63
-31.7 -23.9 12.9 59 59 59
-30.2 -23.9 12.9 58 59 59
-29.9 -23.9 12.9 58 59 59
-29.6 -23.9 12.9 57 56 55
-28.3 -23.0 12.4 57 56 55
-29.1 -23.9 12.9 57 56 55
-28.7 -23.9 12.9 61 61 61
-28.4 -23.9 12.9 57 57 55
-27.3 -23.2 12.5 57 57 55
-27.8 -23.9 12.9 57 57 55
-27.5 -23.9 12.9 54 54 54
-27.2 -23.9 12.8 54 54 54
-27.0 -23.9 12.9 54 54 54
-26.3 -23.9 12.9 55 55 55
-24.6 -24.0 12.9 47 47 47
-23.1 -23.0 12.4 47 47 47
-22.1 -22.9 12.3 46 45 43
-22.4 -23.9 12.9 43 43 43
-22.1 -23.8 12.8 44 44 44
-21.8 -23.8 12.8 44 44 44
-20.7 -22.9 12.3 43 45 44
-12.1 -23.0 12.4 91 94 93
-11.7 -22.8 12.3 53 52 51
-10.7 -21.8 11.7 34 34 34
-11.4 -23.9 12.9 33 32 30
-11.0 -23.8 12.8 89 89 89
-10.7 -23.6 12.7 28 28 28
-10.2 -23.2 12.5 47 47 47
-10.0 -24.1 13.0 184 187 186
-9.4 -24.1 13.0 188 188 188
45.8 -53.2 28.6 203 203 203
45.8 -52.4 28.2 204 204 204
47.4 -53.4 28.7 204 204 204
48.4 -53.8 29.0 204 204 204
47.4 -52.0 28.0 204 204 204
45.6 -49.4 26.6 204 204 204
47.5 -50.7 27.3 204 204 204
31.4 -28.9 15.5 203 203 203
-36.6 -23.8 13.0 67 67 67
-36.3 -23.9 13.0 67 67 67
-36.0 -23.9 13.0 64 65 63
-35.7 -23.9 13.0 67 67 67
-35.4 -23.9 13.0 67 67 67
-35.1 -23.9 13.0 67 67 67
-34.8 -23.9 13.0 67 67 67
-34.5 -23.9 13.0 67 67 67
-34.2 -23.9 13.0 65 66 64
-33.9 -23.9 13.0 65 66 64
-33.6 -23.9 13.0 65 66 64
-33.3 -23.9 13.0 65 66 64
-33.0 -23.9 13.0 65 66 64
-32.7 -23.9 13.0 65 66 64
-32.4 -23.9 13.0 63 63 63
-32.1 -23.9 13.0 63 63 63
-31.8 -23.9 13.0 60 60 60
-31.5 -23.9 13.0 60 60 60
-31.2 -23.9 13.0 58 59 59
-30.9 -23.9 13.0 58 59 59
-30.6 -23.9 13.0 59 59 59
-30.3 -23.9 13.0 57 57 55
-30.0 -23.9 13.0 59 59 59
-29.7 -23.9 13.0 59 59 59
-29.4 -23.9 13.0 57 57 55
-29.0 -23.9 13.0 58 58 56
-28.7 -23.8 13.0 55 55 55
-28.4 -23.8 13.0 58 58 56
-28.2 -23.9 13.0 58 58 56
-27.9 -23.9 13.0 55 55 55
-27.5 -23.9 13.0 55 55 55
-27.3 -23.9 13.0 56 56 56
-27.0 -23.9 13.0 56 56 56
-26.6 -23.9 13.0 56 56 56
-26.3 -23.8 13.0 54 54 54
-25.8 -23.9 13.0 54 54 54
-25.4 -23.9 13.0 52 52 52
-25.1 -23.9 13.0 50 50 50
-24.8 -23.9 13.0 47 48 47
-24.4 -23.8 13.0 47 48 47
-24.2 -23.9 13.0 50 50 50
-23.9 -23.8 13.0 48 48 48
-23.6 -23.8 13.0 48 48 48
-23.3 -23.9 13.0 48 48 48
-22.7 -23.9 13.0 45 45 45
-22.4 -23.8 13.0 45 45 45
-22.1 -23.8 13.0 45 45 45
-13.1 -23.9 13.0 80 80 80
-12.7 -23.9 13.0 22 25 23
-10.6 -21.4 11.7 46 46 46
-11.5 -23.8 13.0 49 49 49
-11.2 -23.8 13.0 78 78 78
-10.9 -23.7 12.9 21 24 22
-10.6 -23.8 13.0 51 51 51
-10.4 -24.1 13.1 183 183 183
-10.0 -23.9 13.0 182 185 184
-9.4 -23.9 13.0 179 182 181
45.8 -52.5 28.6 203 203 203
45.9 -51.9 28.3 203 203 203
47.4 -52.8 28.8 203 203 203
48.5 -53.3 29.1 206 206 206
47.8 -51.7 28.2 203 203 203
45.7 -48.9 26.6 204 204 204
47.6 -50.2 27.4 204 204 204
31.5 -28.6 15.6 203 203 203
-37.1 -23.8 13.2 64 65 63
-36.9 -24.0 13.2 67 67 67
-36.6 -24.0 13.2 67 67 67
-36.3 -24.0 13.2 67 67 67
-36.0 -23.9 13.2 67 67 67
-35.7 -23.9 13.2 68 68 68
-34.8 -24.0 13.2 68 68 68
-34.5 -23.9 13.2 68 68 68
-32.6 -24.0 13.2 64 64 64
-32.3 -24.0 13.2 59 59 59
-32.0 -24.0 13.2 59 59 59
-31.7 -24.0 13.2 59 59 59
-31.4 -24.0 13.2 59 59 59
-31.1 -24.0 13.2 54 54 54
-30.8 -24.0 13.2 58 58 56
-30.5 -24.0 13.2 60 60 60
-29.1 -23.9 13.2 59 59 57
-28.9 -23.9 13.2 61 61 61
-28.6 -24.0 13.2 59 59 57
-28.3 -23.9 13.2 56 56 56
-27.8 -24.0 13.3 60 59 58
-27.4 -23.9 13.2 57 57 57
-25.8 -23.9 13.2 53 52 52
-25.6 -24.0 13.3 53 53 53
-25.1 -23.8 13.2 53 53 53
-11.0 -21.4 11.8 117 119 118
-10.6 -21.1 11.7 107 109 109
-11.5 -23.6 13.0 87 87 87
-11.3 -23.7 13.1 68 71 70
-11.0 -23.7 13.1 51 51 49
-10.7 -23.8 13.1 51 50 48
-10.5 -24.1 13.3 182 185 184
-10.2 -24.0 13.2 181 184 183
-9.6 -24.0 13.2 184 184 184
47.8 -51.8 28.6 203 203 203
47.3 -50.5 27.9 203 203 203
45.2 -47.7 26.3 203 203 203
46.0 -47.9 26.4 203 203 203
46.7 -48.0 26.5 203 203 203
33.6 -30.5 16.8 205 205 205
32.3 -29.0 16.0 202 202 202
114.1 -57.8 31.9 170 171 170
-11.0 -21.2 11.8 36 36 36
-10.6 -20.9 11.7 35 35 35
-10.2 -20.6 11.5 40 42 42
-10.8 -24.3 13.6 182 185 184
-10.4 -24.3 13.6 180 183 182
-10.2 -24.5 13.7 181 184 183
46.6 -49.2 27.5 205 205 205
45.1 -47.0 26.3 205 205 205
45.7 -47.0 26.3 203 203 203
46.5 -47.1 26.3 203 203 203
32.8 -29.8 16.7 204 204 204
33.6 -30.1 16.8 204 204 204
33.7 -29.9 16.7 204 204 204
34.1 -29.9 16.7 204 204 204
34.5 -29.9 16.7 166 166 166
114.1 -57.1 31.9 170 171 170
108.6 -54.0 30.2 168 168 168
-10.2 -20.4 11.5 138 138 138
-11.4 -24.6 14.0 58 59 59
-10.9 -24.3 13.8 181 184 183
-10.6 -24.2 13.7 179 182 181
-10.3 -24.4 13.8 180 183 182
48.6 -50.7 28.7 205 205 205
45.3 -46.6 26.4 205 205 205
45.7 -46.3 26.2 205 205 205
32.5 -29.5 16.7 203 203 203
32.9 -29.5 16.7 203 203 203
33.5 -29.6 16.8 204 204 204
33.7 -29.5 16.7 200 200 200
34.1 -29.4 16.7 200 200 200
34.5 -29.4 16.7 173 173 173
107.2 -52.6 29.8 168 168 168
97.8 -47.6 27.0 168 168 168
92.2 -44.6 25.3 160 163 162
-11.5 -24.6 14.1 60 60 60
-11.1 -24.3 13.9 180 183 182
-10.7 -24.2 13.9 179 182 181
-10.4 -24.3 13.9 179 182 181
45.4 -46.1 26.5 204 204 204
45.7 -45.8 26.3 204 204 204
33.9 -29.6 17.0 203 203 203
113.3 -55.2 31.7 170 171 170
1385.6 -633.7 363.8 112 114 113
-3.1 -17.3 10.0 211 211 211
-2.8 -17.3 10.1 215 215 215
-2.6 -17.3 10.1 212 213 212
-2.4 -17.3 10.0 212 213 212
-1.9 -17.3 10.1 210 210 210
-1.7 -17.3 10.0 210 210 210
-1.2 -17.3 10.1 208 208 208
-1.0 -17.3 10.1 204 207 206
-0.5 -17.3 10.0 204 207 206
-0.3 -17.3 10.0 205 208 207
-0.0 -17.4 10.1 202 204 204
0.2 -17.3 10.1 202 204 204
0.4 -17.2 10.0 203 205 205
0.9 -17.3 10.1 196 196 196
1.1 -17.3 10.1 196 196 196
1.4 -17.3 10.1 196 196 196
1.6 -17.3 10.1 193 193 193
1.8 -17.4 10.1 191 191 191
2.5 -17.3 10.1 197 197 197
7.7 -17.3 10.0 204 204 204
8.0 -17.4 10.1 204 204 204
8.4 -17.4 10.1 207 207 207
8.6 -17.3 10.1 207 207 207
8.8 -17.3 10.0 207 207 207
9.1 -17.3 10.1 207 207 207
9.3 -17.3 10.1 207 207 207
9.6 -17.3 10.1 204 204 204
9.8 -17.3 10.1 204 204 204
10.0 -17.2 10.0 204 204 204
10.5 -17.3 10.1 203 203 203
10.7 -17.2 10.0 203 203 203
10.9 -17.3 10.0 203 203 203
11.2 -17.3 10.1 203 203 203
11.4 -17.2 10.0 206 206 206
12.0 -17.5 10.2 206 206 206
12.1 -17.2 10.0 208 211 210
12.3 -17.2 10.0 206 206 206
12.6 -17.3 10.0 206 206 206
12.9 -17.4 10.1 203 203 203
13.0 -17.3 10.0 203 203 203
13.3 -17.2 10.0 203 203 203
13.8 -17.3 10.1 203 203 203
14.0 -17.3 10.1 203 203 203
14.4 -17.2 10.0 203 203 203
14.6 -17.2 10.0 203 203 203
15.2 -17.3 10.1 206 206 206
15.4 -17.3 10.1 206 206 206
15.7 -17.3 10.1 206 206 206
15.8 -17.3 10.0 206 206 206
47.8 -47.3 27.5 204 204 204
40.8 -37.3 21.7 205 205 205
114.3 -54.9 32.0 174 174 174
-11.5 -26.1 15.4 178 181 180
-11.2 -26.2 15.5 177 180 179
-10.8 -26.1 15.4 189 189 189
-1.9 -17.3 10.2 204 207 206
-1.7 -17.1 10.1 209 209 209
-0.0 -17.3 10.2 202 202 202
0.2 -17.2 10.1 198 198 198
0.4 -17.1 10.1 199 199 199
1.9 -17.2 10.2 192 192 192
2.6 -17.2 10.1 186 186 186
7.8 -17.2 10.2 207 207 207
8.0 -17.3 10.2 207 207 207
8.3 -17.3 10.2 207 207 207
8.5 -17.3 10.2 207 207 207
8.7 -17.2 10.1 207 207 207
9.0 -17.2 10.2 207 207 207
9.2 -17.3 10.2 207 207 207
9.4 -17.2 10.1 206 206 206
9.6 -17.2 10.2 206 206 206
9.9 -17.2 10.1 204 204 204
10.0 -17.1 10.1 203 203 203
10.3 -17.2 10.1 203 203 203
10.6 -17.2 10.2 203 203 203
10.8 -17.2 10.1 206 206 206
11.0 -17.2 10.1 203 203 203
11.3 -17.2 10.2 206 206 206
11.5 -17.1 10.1 206 206 206
12.1 -17.3 10.2 206 206 206
12.2 -17.1 10.1 206 206 206
12.4 -17.1 10.1 206 206 206
12.6 -17.1 10.1 206 206 206
13.0 -17.2 10.2 203 203 203
13.1 -17.1 10.1 203 203 203
13.4 -17.1 10.1 206 206 206
13.7 -17.3 10.2 206 206 206
13.9 -17.2 10.2 206 206 206
14.1 -17.2 10.2 206 206 206
14.4 -17.2 10.2 206 206 206
14.5 -17.1 10.1 206 206 206
14.8 -17.1 10.1 206 206 206
15.3 -17.2 10.2 206 206 206
15.5 -17.2 10.1 205 205 205
15.8 -17.2 10.2 206 206 206
15.9 -17.1 10.1 206 206 206
40.6 -36.7 21.6 205 205 205
40.2 -35.8 21.1 208 208 208
-11.6 -25.9 15.5 179 182 181
-11.2 -25.9 15.5 178 178 178
3.5 -18.2 10.9 183 183 183
9.1 -18.2 10.9 204 204 204
9.9 -17.1 10.2 206 206 206
13.6 -18.2 10.9 206 206 206
16.6 -18.1 10.9 202 202 202
40.9 -36.4 21.8 207 207 207
40.8 -35.9 21.4 207 207 207
-12.6 -25.4 15.4 50 50 50
-12.2 -25.3 15.4 183 186 185
-11.8 -25.3 15.3 182 185 184
-11.4 -25.3 15.3 181 184 183
-11.1 -25.4 15.4 171 173 173
-10.6 -25.1 15.2 161 161 161
-10.3 -25.0 15.2 162 162 162
3.5 -18.1 11.0 183 183 183
3.8 -17.9 10.9 184 184 184
8.9 -18.2 11.0 206 206 206
9.1 -18.0 10.9 206 206 206
12.5 -18.2 11.0 206 206 206
13.6 -18.2 11.0 205 205 205
13.7 -18.0 10.9 205 205 205
16.7 -18.2 11.0 205 205 205
16.7 -17.9 10.9 205 205 205
16.8 -17.9 10.8 206 209 208
41.2 -36.1 21.9 207 207 207
41.1 -35.6 21.6 207 207 207
41.9 -35.9 21.7 207 207 207
80.3 -38.8 23.5 177 177 177
80.3 -38.5 23.4 177 177 177
-12.3 -25.3 15.6 186 188 187
-11.9 -25.2 15.5 183 186 185
-11.5 -25.1 15.4 182 185 184
-11.2 -25.1 15.4 179 179 179
-10.7 -24.9 15.3 156 159 158
-10.4 -24.9 15.3 155 158 157
9.0 -18.0 11.1 206 206 206
12.6 -18.0 11.1 205 205 205
16.7 -18.0 11.1 206 209 208
16.6 -17.7 10.9 205 208 207
80.7 -38.4 23.6 176 176 176
80.4 -38.0 23.4 178 178 178
-12.6 -25.5 15.9 187 189 189
-12.2 -25.3 15.8 186 188 187
-11.7 -25.1 15.7 184 187 186
-11.3 -25.1 15.7 181 181 181
-10.9 -24.8 15.5 159 162 161
-10.7 -25.2 15.8 156 159 158
3.5 -17.5 10.9 178 178 178
16.7 -17.5 10.9 205 208 207
79.6 -37.1 23.2 179 179 179
78.6 -36.4 22.7 179 179 179
-15.0 -17.2 10.9 120 120 120
-12.5 -25.7 16.3 187 189 189
-11.9 -25.2 15.9 186 188 187
-11.5 -25.2 15.9 180 180 180
-11.5 -26.0 16.5 166 166 166
-11.3 -26.3 16.6 163 163 163
-10.7 -25.9 16.4 156 159 158
81.9 -74.3 47.1 207 210 209
77.6 -35.4 22.4 180 180 180
-15.3 -17.1 11.0 43 43 43
-15.0 -17.0 10.9 94 97 96
-14.0 -17.0 10.9 35 36 34
-11.8 -26.1 16.8 169 169 169
-11.4 -26.3 16.9 166 166 166
92.8 -84.1 54.0 206 209 208
89.5 -80.0 51.4 206 209 208
90.2 -79.6 51.1 206 209 208
78.0 -35.1 22.5 184 184 184
61.0 -25.9 16.6 161 161 161
-18.1 -15.5 10.1 97 97 97
-15.1 -16.9 11.0 82 83 81
-12.4 -26.4 17.2 181 181 181
-11.9 -26.1 17.0 173 173 173
-11.6 -26.3 17.2 167 167 167
12.1 -15.7 10.2 206 209 208
15.8 -15.6 10.2 203 203 203
95.8 -85.5 55.8 204 204 204
93.5 -82.4 53.7 206 209 208
91.9 -79.9 52.1 206 209 208
79.7 -35.5 23.2 185 185 185
78.3 -34.7 22.6 182 182 182
78.1 -34.4 22.4 182 182 182
61.7 -25.9 16.9 169 169 169
61.7 -25.8 16.8 158 161 160
-18.5 -15.4 10.2 67 67 67
-18.1 -15.3 10.1 64 64 64
-14.5 -15.4 10.2 30 29 29
-12.0 -25.9 17.2 175 175 175
-13.2 -29.4 19.5 172 172 172
12.0 -15.3 10.1 206 209 208
15.8 -15.3 10.1 207 210 209
97.0 -85.2 56.5 208 211 210
93.5 -81.1 53.7 206 209 208
91.4 -78.2 51.8 206 209 208
88.5 -74.8 49.5 206 209 208
83.5 -69.6 46.1 206 209 208
79.4 -34.9 23.1 186 186 186
78.2 -34.1 22.6 183 183 183
77.7 -33.7 22.3 183 183 183
79.7 -34.3 22.7 183 183 183
62.2 -25.9 17.2 174 176 176
62.3 -25.8 17.1 168 168 168
62.1 -25.5 16.9 159 159 159
62.5 -25.5 16.9 155 155 155
-18.5 -15.1 10.2 65 65 65
-18.2 -15.1 10.1 58 59 59
-14.3 -15.2 10.2 21 24 22
-14.0 -15.2 10.2 27 27 27
-13.4 -15.8 10.6 30 29 29
-13.9 -29.5 19.8 176 176 176
-13.3 -29.3 19.7 175 175 175
-12.9 -29.2 19.7 167 167 167
96.4 -83.4 56.1 208 211 210
93.5 -79.9 53.7 208 211 210
91.9 -77.5 52.1 208 211 210
88.2 -73.4 49.4 209 212 211
84.3 -69.3 46.6 206 209 208
77.6 -33.3 22.4 184 184 184
76.7 -32.7 22.0 184 184 184
79.4 -33.7 22.7 184 184 184
62.0 -25.3 17.0 167 167 167
61.8 -25.0 16.8 161 161 161
61.9 -24.9 16.8 156 156 156
-26.1 -15.3 10.5 29 31 29
-48.6 -28.8 19.7 24 24 24
-48.1 -28.8 19.7 26 26 26
-47.7 -28.8 19.7 30 31 30
-47.2 -28.8 19.7 55 55 55
-46.8 -28.9 19.7 69 69 69
-40.9 -28.9 19.7 10 10 10
-18.8 -15.3 10.5 71 71 71
-15.3 -15.3 10.5 29 29 29
-13.3 -15.5 10.6 46 48 47
-12.9 -15.3 10.5 42 42 42
-12.7 -15.3 10.5 71 71 71
-11.9 -15.3 10.5 28 28 28
-13.8 -28.9 19.7 176 176 176
-13.3 -28.8 19.7 175 175 175
-12.9 -28.8 19.7 176 179 178
104.7 -90.4 61.8 207 210 209
101.9 -85.7 58.6 208 211 210
97.5 -80.9 55.3 208 211 210
92.9 -76.0 52.0 208 211 210
89.4 -72.3 49.4 209 212 211
73.6 -31.6 21.6 190 190 190
73.5 -31.3 21.4 190 190 190
74.0 -31.3 21.4 185 185 185
76.4 -32.1 21.9 185 185 185
76.9 -32.1 21.9 185 185 185
77.3 -32.0 21.9 185 185 185
77.3 -31.8 21.8 185 185 185
61.6 -24.7 16.9 166 166 166
61.3 -24.4 16.7 160 160 160
61.4 -24.3 16.6 154 154 154
61.7 -24.3 16.6 149 151 151
63.9 -24.7 16.9 137 139 138
-55.7 -28.5 19.8 36 37 36
-55.1 -28.4 19.7 44 43 42
-54.7 -28.5 19.8 77 77 77
-54.3 -28.5 19.8 81 83 80
-53.8 -28.5 19.8 152 154 154
-53.4 -28.5 19.8 42 42 42
-52.9 -28.5 19.8 29 31 29
-52.4 -28.5 19.8 26 26 26
-52.0 -28.5 19.8 24 24 24
-51.5 -28.5 19.8 33 32 30
-51.1 -28.5 19.8 36 36 36
-50.6 -28.5 19.8 54 54 54
-50.1 -28.5 19.8 140 142 141
-49.7 -28.5 19.8 139 141 140
-49.2 -28.5 19.8 54 54 54
-48.8 -28.5 19.8 163 163 163
-48.3 -28.5 19.8 178 181 180
-47.8 -28.4 19.7 178 181 180
-47.4 -28.5 19.8 122 122 122
-46.9 -28.5 19.8 77 77 77
-46.5 -28.5 19.8 75 76 76
-46.0 -28.5 19.8 75 76 76
-45.5 -28.5 19.8 124 127 126
-45.1 -28.5 19.8 166 169 168
-44.6 -28.5 19.8 180 183 182
-44.2 -28.5 19.8 182 185 184
-43.7 -28.5 19.8 189 189 189
-43.2 -28.5 19.8 212 213 212
-42.8 -28.5 19.8 207 210 209
-42.3 -28.5 19.8 189 189 189
-41.9 -28.5 19.8 202 204 204
-41.4 -28.5 19.8 207 210 209
-41.0 -28.5 19.8 206 206 206
-40.5 -28.5 19.8 193 193 193
-40.1 -28.5 19.8 179 178 176
-39.6 -28.5 19.8 165 165 165
-39.1 -28.4 19.7 137 139 138
-38.6 -28.4 19.7 158 157 155
-38.2 -28.4 19.7 213 215 215
-37.7 -28.5 19.8 204 204 204
-37.2 -28.4 19.7 181 184 183
-36.8 -28.5 19.8 181 181 181
-36.4 -28.5 19.8 209 209 209
-35.9 -28.5 19.8 222 222 222
-35.4 -28.5 19.8 189 189 189
-35.0 -28.5 19.8 122 124 123
-34.5 -28.5 19.8 161 161 161
-34.1 -28.5 19.8 182 182 182
-33.6 -28.5 19.8 169 169 169
-33.1 -28.5 19.8 176 179 178
-32.6 -28.4 19.7 210 210 210
-32.2 -28.5 19.8 210 210 210
-31.8 -28.5 19.8 212 213 212
-31.3 -28.5 19.8 134 137 136
-30.8 -28.5 19.8 35 34 33
-30.4 -28.5 19.8 53 52 52
-29.9 -28.5 19.8 66 66 66
-29.5 -28.5 19.8 81 83 80
-29.0 -28.5 19.8 89 90 88
-28.5 -28.5 19.8 111 111 109
-28.1 -28.5 19.8 97 97 97
-27.6 -28.5 19.8 20 23 21
-27.2 -28.5 19.8 47 47 47
-26.7 -28.5 19.8 87 87 87
-26.2 -28.4 19.7 19 19 19
-25.7 -28.4 19.7 20 23 21
-25.3 -28.4 19.7 50 49 48
-24.8 -28.4 19.7 95 95 95
-24.4 -28.4 19.7 50 49 48
-23.9 -28.4 19.7 75 75 75
-23.5 -28.5 19.8 32 33 31
-23.1 -28.5 19.8 109 109 109
-22.6 -28.5 19.8 57 57 57
-14.4 -28.7 19.9 164 164 164
-13.8 -28.4 19.7 177 177 177
-13.3 -28.4 19.7 174 174 174
-12.9 -28.4 19.7 133 133 133
106.4 -90.5 62.8 207 210 209
101.1 -82.5 57.3 208 211 210
96.0 -77.4 53.7 208 211 210
101.4 -79.6 55.3 209 212 211
65.0 -42.9 29.8 192 192 192
32.9 -19.8 13.7 196 196 196
73.2 -30.9 21.4 191 191 191
75.8 -31.3 21.8 184 184 184
76.4 -31.4 21.8 188 188 188
76.4 -31.2 21.6 191 191 191
76.7 -31.1 21.6 188 188 188
61.3 -24.1 16.7 160 160 160
61.4 -24.0 16.6 156 156 156
61.4 -23.8 16.5 150 150 150
62.0 -23.9 16.6 145 145 144
63.6 -24.3 16.9 137 139 138
63.8 -24.3 16.8 136 136 136
-56.4 -28.4 20.0 26 26 26
-56.0 -28.4 20.0 38 38 38
-55.5 -28.4 20.0 101 101 101
-55.0 -28.4 20.0 152 152 152
-54.6 -28.4 20.0 10 15 11
-54.1 -28.4 20.0 29 31 29
-53.6 -28.4 20.0 24 24 24
-53.2 -28.4 20.0 24 24 24
-52.7 -28.4 20.0 24 24 24
-52.2 -28.4 20.0 28 28 28
-51.8 -28.4 20.0 36 36 36
-51.3 -28.4 20.0 70 72 69
-50.8 -28.4 20.0 167 167 167
-50.4 -28.4 20.0 185 185 185
-49.9 -28.4 20.0 178 178 178
-49.4 -28.4 20.0 148 148 148
-49.0 -28.4 20.0 179 182 181
-48.5 -28.4 20.0 173 175 175
-48.0 -28.4 20.0 162 162 162
-47.6 -28.4 20.0 148 148 148
-47.1 -28.4 20.0 139 139 139
-46.6 -28.4 20.0 79 81 79
-46.2 -28.4 20.0 71 72 70
-45.7 -28.4 20.0 199 199 199
-45.2 -28.4 20.0 200 200 200
-44.8 -28.4 20.0 175 175 175
-44.3 -28.4 20.0 93 93 93
-43.8 -28.4 20.0 69 69 69
-43.4 -28.4 20.0 150 150 150
-42.9 -28.4 20.0 124 126 125
-42.4 -28.4 20.0 88 90 89
-42.0 -28.4 20.0 62 62 62
-41.5 -28.4 20.0 69 69 69
-41.0 -28.4 20.0 75 76 76
-40.6 -28.4 20.0 69 69 69
-40.1 -28.4 20.0 56 56 56
-39.6 -28.4 20.0 40 40 40
-39.2 -28.4 20.0 105 104 102
-38.7 -28.4 20.0 170 172 172
-38.3 -28.4 20.0 175 175 175
-37.7 -28.4 20.0 170 172 172
-37.3 -28.4 20.0 105 105 103
-36.9 -28.4 20.0 82 83 81
-36.4 -28.4 20.0 135 135 135
-35.9 -28.4 20.0 135 135 135
-35.5 -28.4 20.0 154 154 154
-35.0 -28.4 20.0 194 194 194
-34.5 -28.4 20.0 230 230 230
-34.1 -28.4 20.0 205 208 207
-33.6 -28.4 20.0 243 243 243
-33.0 -28.3 20.0 210 210 210
-32.7 -28.4 20.0 228 228 228
-32.2 -28.4 20.1 213 215 215
-31.7 -28.4 20.0 222 222 222
-31.3 -28.4 20.0 141 141 141
-30.8 -28.4 20.0 67 67 67
-30.3 -28.4 20.0 36 37 36
-29.9 -28.4 20.0 20 23 21
-29.4 -28.4 20.0 20 23 21
-28.9 -28.4 20.0 43 43 43
-28.5 -28.4 20.0 112 112 112
-28.0 -28.4 20.0 35 34 33
-27.5 -28.4 20.0 103 103 103
-27.0 -28.4 20.0 30 30 30
-26.6 -28.3 20.0 32 33 31
-26.1 -28.4 20.0 112 111 110
-25.6 -28.4 20.0 147 147 147
-25.2 -28.4 20.0 63 62 61
-24.7 -28.4 20.0 43 43 43
-24.3 -28.4 20.0 70 72 69
-23.8 -28.4 20.0 40 40 40
-23.3 -28.4 20.0 134 136 135
-22.8 -28.3 20.0 89 89 89
-22.4 -28.4 20.0 35 35 35
-14.6 -28.5 20.1 159 159 159
-14.0 -28.3 20.0 168 168 168
-13.4 -28.0 19.8 159 159 159
-13.0 -28.1 19.8 129 132 131
106.1 -88.7 62.6 207 210 209
104.4 -86.2 60.8 207 210 209
97.4 -77.2 54.5 208 211 210
118.1 -92.4 65.2 208 211 210
106.7 -82.5 58.2 208 211 210
104.8 -80.0 56.5 209 212 211
73.7 -48.4 34.1 194 194 194
32.8 -19.6 13.9 196 196 196
33.2 -19.6 13.9 198 198 198
76.8 -31.0 21.9 189 189 189
76.8 -30.8 21.7 189 189 189
77.3 -30.8 21.7 185 185 185
72.8 -28.7 20.2 178 181 180
61.5 -23.8 16.8 159 159 159
61.5 -23.6 16.7 153 155 155
61.6 -23.5 16.6 148 148 148
62.0 -23.5 16.6 141 143 142
63.4 -23.9 16.8 137 137 137
63.7 -23.8 16.8 132 135 134
63.7 -23.7 16.7 126 128 127
-15.3 -29.4 21.1 171 173 173
-14.4 -28.7 20.6 182 185 184
-13.8 -29.4 21.1 174 174 174
128.2 -98.7 70.8 208 211 210
127.0 -96.5 69.3 208 211 210
74.4 -48.0 34.5 195 195 195
32.5 -19.5 14.0 196 196 196
32.6 -19.4 13.9 196 196 196
33.0 -19.4 14.0 198 198 198
33.3 -19.4 13.9 196 196 196
77.1 -30.6 22.0 193 193 193
77.0 -30.4 21.8 190 190 190
77.8 -30.5 21.9 190 190 190
77.8 -30.3 21.7 186 186 186
73.4 -28.4 20.4 177 180 179
62.5 -23.7 17.0 154 156 156
62.0 -23.4 16.8 152 152 152
62.1 -23.3 16.7 145 147 147
62.8 -23.4 16.8 141 141 141
63.9 -23.7 17.0 134 134 134
64.7 -23.8 17.1 129 132 131
64.7 -23.7 17.0 128 128 128
-15.9 -30.0 21.9 180 180 180
-14.9 -30.2 22.1 180 180 180
-14.1 -29.5 21.5 181 181 181
16.1 -14.6 10.7 205 208 207
144.5 -108.0 78.8 208 211 210
218.1 -159.0 116.1 208 211 210
208.1 -149.8 109.3 209 212 211
83.5 -53.5 39.1 195 195 195
77.5 -49.2 35.9 195 195 195
33.8 -19.6 14.3 203 203 203
33.9 -19.4 14.2 199 199 199
77.3 -30.0 21.9 191 191 191
78.2 -30.1 22.0 188 188 188
78.1 -29.9 21.8 185 185 185
75.7 -28.8 21.0 178 178 178
63.8 -23.8 17.4 155 155 155
62.6 -23.2 17.0 147 149 149
62.8 -23.2 16.9 137 139 138
63.6 -23.3 17.0 132 135 134
64.9 -23.6 17.2 131 131 131
65.8 -23.8 17.4 131 131 131
-29.2 -15.9 11.8 182 182 182
-28.9 -15.9 11.8 208 208 208
-28.5 -15.9 11.8 143 145 144
-28.2 -15.9 11.8 105 105 105
-28.0 -15.9 11.8 65 66 64
-27.7 -15.9 11.8 62 62 62
-27.5 -15.9 11.8 40 42 42
-27.1 -15.9 11.8 29 31 29
-26.9 -15.9 11.8 77 79 77
-26.6 -15.9 11.8 87 89 88
-26.4 -15.9 11.8 79 81 79
-26.1 -15.9 11.8 79 81 79
-17.9 -15.9 11.8 68 68 68
-17.6 -15.9 11.8 55 55 55
-17.0 -15.9 11.8 121 121 121
-16.7 -15.8 11.7 105 105 105
-16.0 -15.9 11.8 42 42 42
-15.4 -15.9 11.8 34 33 32
-15.1 -15.9 11.8 34 33 32
-14.9 -15.9 11.8 34 33 32
-14.6 -15.9 11.8 34 33 32
-15.4 -30.5 22.7 180 180 180
-14.6 -30.1 22.3 177 177 177
-14.2 -30.3 22.5 161 161 161
-13.9 -30.7 22.8 27 26 25
12.8 -14.0 10.4 207 210 209
13.0 -14.0 10.4 206 209 208
13.2 -14.0 10.4 206 209 208
13.5 -14.0 10.4 206 209 208
14.9 -14.0 10.4 209 209 209
15.2 -14.0 10.4 205 208 207
15.9 -14.5 10.7 205 208 207
16.1 -14.3 10.6 204 207 206
15.9 -14.0 10.4 204 207 206
210.1 -156.3 116.1 207 210 209
227.9 -163.3 121.3 208 211 210
225.0 -159.2 118.2 208 211 210
83.5 -52.6 39.1 195 195 195
76.3 -47.6 35.4 195 195 195
34.1 -19.4 14.4 197 197 197
34.0 -19.2 14.2 197 197 197
78.1 -29.6 22.0 192 192 192
78.1 -29.4 21.8 181 184 183
63.8 -23.1 17.2 134 137 136
64.8 -23.3 17.3 133 133 133
65.8 -23.6 17.5 133 133 133
66.5 -23.7 17.6 133 133 133
-28.1 -15.5 11.7 108 110 110
-17.6 -15.6 11.8 20 23 21
-16.6 -15.4 11.7 88 90 89
-16.0 -15.7 11.8 41 41 41
-16.2 -31.7 23.9 179 179 179
-15.5 -31.3 23.6 163 166 165
12.7 -13.7 10.3 206 209 208
12.9 -13.6 10.3 206 209 208
13.2 -13.7 10.3 206 209 208
13.4 -13.6 10.3 206 209 208
14.3 -13.8 10.5 205 208 207
14.5 -13.8 10.5 205 208 207
14.6 -13.6 10.3 205 208 207
14.8 -13.7 10.3 205 208 207
15.2 -13.7 10.4 204 207 206
15.9 -14.0 10.6 211 211 211
15.8 -13.7 10.3 208 208 208
218.0 -165.8 125.3 211 211 211
219.5 -164.7 124.4 207 210 209
219.5 -162.6 122.8 207 210 209
215.3 -157.5 119.0 211 211 211
223.7 -161.5 122.0 212 213 212
223.7 -159.5 120.5 208 211 210
227.9 -160.5 121.3 208 211 210
227.8 -158.5 119.7 208 211 210
232.1 -159.5 120.5 208 211 210
298.4 -195.6 147.8 210 213 212
241.5 -156.5 118.2 210 213 212
78.8 -29.4 22.2 182 185 184
78.5 -29.0 21.9 172 174 174
83.3 -30.6 23.2 169 169 169
66.7 -23.6 17.8 132 132 132
66.8 -23.5 17.7 133 133 133
67.1 -23.5 17.7 132 132 132
-28.1 -15.1 11.6 177 180 179
-27.9 -15.1 11.6 100 100 100
-27.6 -15.1 11.6 47 48 47
-27.3 -15.1 11.6 33 32 30
-27.0 -15.1 11.6 24 24 24
-26.8 -15.1 11.6 18 22 19
-26.5 -15.1 11.6 28 28 28
-25.9 -15.1 11.6 18 22 19
-16.7 -15.1 11.6 116 118 117
-16.5 -15.1 11.6 85 86 84
-17.2 -33.1 25.5 159 159 159
-17.2 -34.2 26.3 90 90 90
-16.9 -34.9 26.9 88 88 88
12.0 -13.2 10.1 211 211 211
12.2 -13.1 10.1 211 211 211
12.7 -13.4 10.3 210 210 210
12.8 -13.3 10.3 210 210 210
13.1 -13.4 10.3 206 209 208
13.3 -13.4 10.3 205 208 207
13.6 -13.1 10.1 210 210 210
14.4 -13.4 10.3 209 209 209
14.5 -13.3 10.3 204 207 206
14.5 -13.1 10.1 204 207 206
15.8 -13.6 10.5 208 208 208
15.8 -13.4 10.3 208 208 208
223.9 -167.3 128.7 210 210 210
228.5 -168.5 129.6 206 209 208
231.5 -168.5 129.6 211 211 211
223.8 -160.8 123.6 211 211 211
240.8 -170.8 131.4 207 210 209
237.3 -166.2 127.8 207 210 209
235.5 -162.9 125.3 208 211 210
232.2 -158.7 122.0 212 213 212
239.7 -161.8 124.4 208 211 210
490.3 -319.5 245.7 209 212 211
293.8 -189.2 145.5 209 212 211
240.0 -152.8 117.5 210 213 212
78.9 -28.9 22.2 167 167 167
78.7 -28.6 22.0 154 156 156
85.6 -30.7 23.6 140 142 141
67.7 -23.5 18.1 129 132 131
67.6 -23.4 18.0 132 132 132
67.8 -23.3 17.9 129 132 131
-28.1 -14.8 11.6 51 51 51
-27.8 -14.8 11.6 35 35 35
-27.5 -14.8 11.6 47 48 47
-17.0 -14.8 11.6 25 25 25
-16.7 -14.8 11.6 17 21 18
-16.5 -14.8 11.6 29 30 28
-17.7 -34.6 27.1 90 90 90
-17.2 -34.9 27.3 89 89 89
-16.7 -35.2 27.6 55 55 55
11.9 -12.9 10.1 211 211 211
12.2 -12.9 10.1 210 210 210
14.3 -12.9 10.1 204 207 206
14.5 -12.9 10.1 209 209 209
526.8 -371.7 291.0 211 211 211
428.1 -298.3 233.5 211 211 211
377.6 -259.8 203.4 212 213 212
255.8 -173.8 136.1 216 216 216
439.0 -294.6 230.7 212 213 212
524.4 -335.5 262.7 214 214 214
406.3 -257.0 201.2 215 215 215
79.3 -28.5 22.3 159 159 159
79.7 -28.5 22.3 143 145 144
86.2 -30.6 23.9 131 134 133
87.4 -30.8 24.1 131 134 133
87.3 -30.6 23.9 131 134 133
68.8 -23.5 18.4 128 128 128
68.6 -23.3 18.2 128 128 128
68.9 -23.2 18.2 129 129 129
-26.0 -14.1 11.3 20 23 21
-19.5 -36.1 28.8 132 132 132
-18.3 -35.0 27.9 91 93 92
-17.6 -35.0 27.9 89 91 90
-17.1 -35.4 28.2 74 76 75
-16.7 -35.9 28.6 112 112 112
462.7 -320.5 255.6 211 211 211
422.9 -289.3 230.7 211 211 211
351.2 -237.2 189.2 215 215 215
282.2 -188.2 150.1 212 213 212
423.5 -279.0 222.5 212 213 212
503.4 -316.2 252.2 214 214 214
415.2 -257.8 205.6 214 214 214
623.2 -382.6 305.1 209 212 211
521.0 -316.2 252.2 210 213 212
481.9 -289.3 230.7 180 180 180
89.1 -30.8 24.6 119 119 119
89.9 -30.9 24.7 120 120 120
71.2 -23.9 19.0 120 120 120
69.9 -23.3 18.6 122 122 122
70.1 -23.2 18.5 126 126 126
71.6 -23.6 18.8 126 126 126
-28.8 -14.0 11.4 66 66 66
-28.6 -14.0 11.4 73 73 73
-27.2 -14.0 11.4 35 35 35
-27.0 -14.0 11.4 28 28 28
-26.6 -13.9 11.3 26 26 26
-26.4 -14.0 11.3 20 23 21
-26.1 -14.0 11.3 18 22 19
-25.6 -14.0 11.3 156 156 156
-25.4 -14.0 11.4 163 162 160
-25.1 -14.0 11.4 191 191 191
-24.8 -14.0 11.4 148 150 150
-24.5 -14.0 11.3 146 146 146
-20.4 -14.0 11.4 53 53 53
-17.4 -14.0 11.3 18 22 19
-17.2 -14.0 11.4 25 25 25
-20.0 -36.3 29.5 127 127 127
-18.5 -34.7 28.2 91 94 93
-17.7 -34.6 28.1 91 93 92
-17.4 -35.3 28.7 79 79 79
-17.0 -35.8 29.1 77 77 77
16.0 -13.1 10.6 208 208 208
16.1 -12.9 10.5 210 210 210
336.7 -226.0 183.7 211 211 211
310.8 -206.0 167.4 211 211 211
280.0 -183.3 148.9 212 213 212
319.6 -204.2 165.9 212 213 212
320.7 -202.4 164.5 214 214 214
503.4 -310.4 252.2 214 214 214
389.8 -237.5 193.0 214 214 214
89.4 -30.4 24.7 108 110 110
92.1 -31.1 25.3 111 111 111
70.8 -23.2 18.8 115 115 115
71.0 -23.1 18.8 116 118 117
72.4 -23.4 19.0 132 132 132
-18.7 -34.6 28.7 98 98 98
-17.9 -34.2 28.3 89 91 90
12.7 -12.5 10.3 210 210 210
12.9 -12.4 10.3 209 209 209
13.4 -12.5 10.3 212 213 212
15.8 -12.5 10.3 210 210 210
17.0 -13.0 10.7 211 211 211
319.3 -207.6 172.0 207 210 209
286.8 -184.2 152.6 212 213 212
375.0 -237.9 197.0 216 216 216
572.1 -346.1 286.6 214 214 214
86.9 -29.1 24.1 104 104 104
89.5 -29.8 24.7 108 108 108
93.0 -30.8 25.5 108 108 108
93.5 -30.8 25.5 106 106 106
72.6 -23.0 19.1 148 150 150
73.1 -23.0 19.1 126 126 126
12.7 -12.2 10.3 210 210 210
12.9 -12.2 10.3 209 209 209
13.1 -12.2 10.3 209 209 209
13.4 -12.2 10.3 209 209 209
14.3 -12.2 10.3 208 208 208
14.5 -12.1 10.3 208 208 208
14.4 -11.9 10.0 208 208 208
15.6 -12.3 10.4 210 210 210
15.8 -12.2 10.3 210 210 210
16.9 -12.5 10.5 211 211 211
16.8 -12.2 10.3 211 211 211
589.9 -350.0 295.6 220 220 220
89.2 -29.2 24.6 105 105 105
-82.7 -40.4 34.8 104 104 104
-82.0 -40.5 34.9 98 98 98
-81.2 -40.5 34.9 67 69 67
-80.3 -40.4 34.8 14 14 14
-79.6 -40.5 34.9 15 15 15
-78.8 -40.5 34.9 95 95 95
-77.8 -40.4 34.8 148 150 150
-77.0 -40.4 34.8 170 172 172
-76.4 -40.5 34.9 141 141 141
-74.6 -40.4 34.8 125 125 125
-63.1 -40.4 34.8 57 56 55
-61.5 -39.9 34.3 53 53 53
-61.5 -40.4 34.8 53 53 53
-19.6 -38.9 33.5 89 89 89
12.8 -11.9 10.3 205 208 207
15.5 -12.0 10.3 210 210 210
15.6 -11.9 10.2 210 210 210
16.7 -11.9 10.3 215 215 215
-100.7 -40.7 35.8 84 84 84
-103.2 -42.0 36.9 79 81 79
-102.3 -42.0 36.9 129 129 129
-101.2 -41.9 36.9 183 186 185
-100.8 -42.1 37.0 186 188 187
-102.7 -43.3 38.1 192 192 192
-99.4 -42.3 37.2 133 133 133
-98.2 -42.1 37.0 171 173 173
-97.3 -42.1 37.0 189 191 191
-96.3 -42.0 36.9 145 145 144
-94.9 -41.8 36.7 145 147 147
-94.2 -41.9 36.8 113 114 113
-93.7 -42.0 36.9 139 139 139
-92.1 -41.7 36.7 136 138 137
-91.1 -41.6 36.6 101 101 101
-93.3 -43.0 37.8 75 75 75
-89.8 -41.8 36.7 75 75 75
-89.6 -42.1 37.0 147 149 149
-89.4 -42.4 37.3 147 149 149
-90.5 -43.4 38.1 156 156 156
-88.6 -42.9 37.7 33 32 30
-86.2 -42.1 37.0 130 130 130
-85.5 -42.2 37.1 149 151 151
-86.8 -43.3 38.1 148 148 148
-84.4 -42.5 37.4 123 123 123
-83.2 -42.4 37.2 167 167 167
-81.9 -42.1 37.0 175 177 177
-80.4 -41.8 36.7 179 182 181
-80.0 -42.0 36.9 185 185 185
-82.2 -43.7 38.4 187 189 189
-81.1 -43.6 38.3 172 172 172
-79.7 -43.3 38.1 178 181 180
-76.5 -42.0 36.9 177 180 179
-78.1 -43.4 38.1 182 185 184
-77.7 -43.7 38.4 174 176 176
-74.7 -43.0 37.8 174 174 174
-71.3 -41.5 36.4 169 171 170
-71.9 -43.4 38.1 33 32 30
-69.3 -42.9 37.7 66 66 66
-65.6 -41.1 36.1 66 66 66
-65.8 -41.8 36.7 66 66 66
-66.5 -42.8 37.6 63 64 62
-64.8 -42.2 37.1 58 59 59
-64.0 -42.3 37.2 62 62 62
-65.0 -43.5 38.2 60 60 60
-64.1 -43.5 38.2 60 60 60
-61.9 -43.2 38.0 184 187 186
-23.6 -42.6 37.5 95 95 95
-22.5 -42.2 37.1 79 82 81
-20.3 -39.6 34.8 115 114 114
-110.0 -43.6 39.1 90 92 91
-109.1 -43.9 39.4 153 153 153
-108.2 -43.9 39.4 88 88 88
-107.3 -43.9 39.4 122 122 122
-106.4 -43.9 39.4 99 99 99
-105.5 -43.9 39.4 36 37 36
-102.7 -43.9 39.4 136 138 137
-101.8 -43.9 39.4 101 101 101
-98.0 -43.5 39.0 78 80 78
-93.9 -44.1 39.6 153 153 153
-92.6 -43.9 39.4 165 168 167
-91.5 -43.8 39.3 182 185 184
-91.0 -44.0 39.5 191 191 191
-90.1 -44.0 39.5 158 158 158
-89.0 -43.9 39.4 6 11 7
-88.1 -43.9 39.4 8 9 8
-87.1 -43.9 39.4 7 13 9
-86.0 -43.8 39.3 33 33 31
-83.6 -44.0 39.5 134 134 134
-81.7 -43.5 39.0 37 38 37
-80.8 -43.5 39.0 24 24 24
-81.1 -44.1 39.6 20 23 21
-80.0 -44.0 39.5 33 32 30
-79.1 -44.0 39.5 60 60 60
-78.1 -44.0 39.5 44 43 42
-74.6 -44.1 39.6 98 98 98
-74.2 -44.4 39.8 165 168 167
-71.9 -43.6 39.1 166 166 166
-69.8 -42.8 38.4 151 153 153
-69.6 -43.3 38.8 163 162 160
-67.5 -43.6 39.2 85 87 87
-67.4 -44.2 39.7 157 157 157
-66.2 -44.0 39.5 131 133 132
-25.7 -43.7 39.2 96 96 96
-24.6 -43.5 39.0 95 98 97
-23.4 -42.9 38.5 104 106 106
-25.4 -48.5 43.5 19 19 19
-25.9 -44.8 41.0 100 100 100
-25.7 -48.0 44.0 21 21 21
15.3 -11.6 10.7 211 211 211
15.4 -11.5 10.6 211 211 211
16.9 -11.7 10.7 215 215 215
-29.8 -48.7 45.6 96 99 98
-26.9 -45.5 42.6 100 100 100
-26.0 -45.7 42.8 110 110 110
-26.1 -47.8 44.7 13 17 14
14.5 -11.0 10.3 215 215 215
15.2 -11.3 10.6 215 215 215
15.4 -11.2 10.5 211 211 211
15.8 -11.2 10.5 214 214 214
15.8 -11.0 10.3 210 210 210
16.7 -11.3 10.6 218 218 218
-34.8 -53.7 51.4 115 115 115
-32.3 -51.6 49.4 95 98 97
-27.1 -46.6 44.6 113 114 113
-26.9 -48.2 46.1 26 25 24
13.4 -10.8 10.3 216 216 216
13.6 -10.7 10.3 216 216 216
14.2 -10.7 10.2 215 215 215
14.4 -10.6 10.2 215 215 215
15.2 -10.9 10.4 215 215 215
15.6 -10.8 10.4 214 214 214
15.7 -10.7 10.3 214 214 214
16.5 -10.9 10.5 218 218 218
16.7 -10.9 10.4 218 218 218
-35.8 -54.0 52.8 121 123 122
-33.2 -51.8 50.7 95 98 97
15.8 -10.5 10.3 217 217 217
277.8 -131.4 128.7 200 200 200
-36.2 -53.3 53.4 119 121 120
15.4 -10.7 10.7 218 218 218
15.5 -10.6 10.6 218 218 218
16.0 -10.6 10.6 218 218 218
16.9 -10.7 10.7 218 218 218
240.2 -111.1 111.3 200 200 200
-42.4 -73.8 75.7 21 21 21
-41.8 -75.9 77.8 154 154 154
14.4 -9.9 10.2 218 218 218
15.3 -10.4 10.6 218 218 218
15.4 -10.3 10.5 218 218 218
15.7 -10.1 10.4 218 218 218
15.7 -10.0 10.3 217 217 217
16.8 -10.2 10.5 215 215 215
197.8 -91.3 93.6 191 191 191
194.7 -87.0 89.2 200 200 200
-52.1 -84.9 89.2 23 24 23
-43.7 -74.1 77.8 21 21 21
-42.4 -75.0 78.8 159 159 159
-38.8 -71.7 75.4 181 181 181
14.4 -9.7 10.2 218 218 218
14.5 -9.6 10.1 218 218 218
15.2 -9.9 10.4 218 218 218
15.6 -9.9 10.4 218 218 218
15.6 -9.7 10.2 217 217 217
15.6 -9.6 10.1 218 218 218
16.7 -9.9 10.4 218 218 218
174.2 -76.0 79.8 200 200 200
-9.4 -9.3 10.0 34 34 34
-9.9 -10.1 10.9 34 34 34
-9.6 -10.1 10.9 34 34 34
-53.6 -85.3 91.8 29 29 29
-41.7 -72.0 77.5 169 169 169
-38.0 -68.6 73.9 182 182 182
14.3 -9.4 10.1 218 218 218
14.5 -9.3 10.1 218 218 218
15.6 -9.6 10.3 218 218 218
15.6 -9.4 10.2 218 221 220
15.6 -9.3 10.0 218 221 220
16.6 -9.6 10.4 215 215 215
16.7 -9.6 10.3 218 218 218
247.0 -109.8 118.2 191 191 191
269.3 -117.1 126.1 197 197 197
249.0 -107.1 115.3 200 200 200
-9.8 -9.3 10.3 35 35 35
-9.4 -9.1 10.1 35 35 35
-9.8 -9.8 10.8 36 37 36
-9.6 -9.8 10.8 36 39 38
-58.1 -90.1 99.6 27 27 27
-53.6 -86.5 95.5 20 20 20
-45.2 -76.1 84.1 158 161 160
14.4 -9.1 10.0 218 218 218
15.5 -9.2 10.1 218 221 220
16.3 -9.1 10.0 218 218 218
248.5 -107.7 119.0 180 180 180
208.1 -89.2 98.5 174 176 176
269.3 -114.2 126.1 197 197 197
252.1 -105.7 116.8 200 200 200
209.5 -86.9 96.0 200 200 200
-9.4 -8.9 10.1 37 38 37
-9.2 -8.9 10.1 37 40 39
-9.0 -8.9 10.1 38 38 38
-79.8 -115.9 131.4 98 100 100
-63.9 -96.4 109.3 23 24 23
15.5 -8.9 10.1 218 221 220
270.7 -114.3 129.6 175 175 175
275.9 -112.7 127.8 199 199 199
-9.7 -8.7 10.1 38 38 38
-9.0 -8.7 10.1 38 38 38
-100.8 -142.5 165.9 85 85 85
-76.2 -112.0 130.5 26 25 24
-82.9 -126.9 147.8 20 20 20
15.5 -8.7 10.1 218 221 220
290.6 -119.4 139.1 174 176 176
492.6 -198.1 230.7 195 195 195
-170.0 -243.1 291.0 29 29 29
-160.7 -239.5 286.6 20 20 20
-203.4 -316.1 378.3 160 160 160
-167.7 -272.5 326.1 179 179 179
-138.6 -235.9 282.3 181 184 183
15.5 -8.5 10.1 218 221 220
486.7 -190.4 227.9 193 193 193
486.7 -185.1 227.9 191 191 191
15.5 -7.7 10.1 218 221 220
15.6 -7.6 10.2 219 222 221
15.5 -7.3 10.2 219 222 221
148.4 -47.4 65.9 197 197 197
157.1 -49.7 69.0 198 198 198
163.1 -50.0 69.5 200 200 200
164.2 -50.3 72.2 198 198 198
162.6 -48.8 70.1 200 200 200
166.1 -49.3 70.8 200 200 200
15.6 -6.8 10.2 219 222 221
18.9 -7.5 11.1 219 222 221
165.1 -47.8 71.1 200 200 200
167.4 -48.0 71.4 200 200 200
15.5 -6.6 10.1 220 223 222
15.6 -6.5 10.0 220 223 222
18.9 -7.2 11.2 220 223 222
19.1 -7.2 11.1 220 223 222
19.4 -7.2 11.2 220 223 222
19.7 -7.3 11.2 220 223 222
19.7 -7.2 11.0 220 223 222
163.1 -45.2 69.5 200 200 200
154.6 -246.8 394.1 151 151 151
15.5 -6.4 10.3 219 219 219
15.5 -6.3 10.1 220 223 222
15.6 -6.3 10.0 220 223 222
18.9 -7.0 11.2 220 223 222
19.1 -7.0 11.1 220 223 222
19.7 -7.0 11.2 220 223 222
19.7 -6.9 11.0 220 223 222
15.5 -6.2 10.3 220 220 220
15.6 -6.1 10.2 220 223 222
15.6 -6.1 10.1 220 223 222
20.4 -7.2 11.9 223 225 225
19.9 -6.8 11.3 222 224 224
231.1 -66.7 110.6 183 183 183
195.9 -55.9 92.7 102 104 104
15.5 -6.0 10.3 220 220 220
15.6 -5.9 10.2 220 220 220
15.6 -5.8 10.1 220 220 220
17.0 -5.8 10.0 222 224 224
20.5 -6.9 11.9 222 224 224
20.6 -6.9 11.8 221 221 221
248.5 -69.0 119.0 188 188 188
181.6 -49.9 86.0 80 80 80
15.6 -5.8 10.3 222 224 224
15.6 -5.7 10.2 221 221 221
15.7 -5.6 10.1 221 221 221
20.5 -6.7 12.0 221 221 221
20.7 -6.6 11.9 221 221 221
180.8 -47.6 85.6 69 72 71
594.0 -154.8 278.2 142 141 140
194.7 -49.7 89.2 186 186 186
15.6 -5.4 10.2 219 219 219
20.7 -6.3 11.9 222 222 222
186.7 -47.1 88.4 110 110 110
198.4 -48.5 90.9 186 186 186
15.6 -5.2 10.2 220 220 220
15.6 -5.1 10.0 222 222 222
228.4 -55.8 109.3 175 175 175
190.3 -45.9 90.1 64 63 61
195.6 -45.7 89.7 186 186 186
15.6 -4.9 10.2 220 220 220
19.8 -5.5 11.2 221 221 221
24.0 -6.2 12.8 224 224 224
224.5 -52.3 107.5 172 172 172
182.4 -42.1 86.4 69 72 71
182.6 -40.7 83.7 184 184 184
259.9 -52.9 108.7 206 206 206
15.5 -4.7 10.1 218 218 218
15.6 -4.6 10.0 221 221 221
24.0 -6.0 12.9 225 225 225
24.2 -6.0 12.9 225 225 225
245.4 -54.5 117.5 164 164 164
306.8 -60.1 129.6 203 203 203
282.7 -54.8 118.2 204 204 204
15.5 -4.5 10.1 219 219 219
24.1 -5.7 13.0 222 222 222
304.7 -62.2 141.2 138 140 139
392.5 -73.7 167.4 200 200 200
336.8 -62.6 142.2 202 202 202
372.6 -63.1 143.3 61 64 63
381.3 -61.2 146.6 62 64 64
439.2 -62.6 168.9 61 61 61
535.7 -72.2 207.9 56 56 56
507.1 -67.7 195.0 60 60 60
23.9 -4.0 12.2 222 222 222
24.1 -4.0 12.2 226 226 226
761.7 -95.8 295.6 58 58 58
614.9 -76.6 236.5 62 62 62
24.0 -3.7 12.3 224 224 224
24.3 -3.7 12.3 224 224 224
24.6 -3.7 12.3 224 224 224
630.6 -73.0 242.5 61 61 61
24.2 -3.4 12.3 225 225 225
20.5 -2.9 11.3 221 221 221
24.1 -3.1 12.2 225 225 225
24.2 -2.9 11.4 139 139 139
20.4 -2.6 11.3 222 222 222
24.0 -2.6 11.4 149 149 149
439.2 -39.0 168.9 59 59 59
20.4 -2.3 11.3 224 224 224
20.1 -2.1 10.2 224 224 224
23.0 -2.3 11.2 224 224 224
24.0 -2.4 11.4 161 164 163
601.8 -48.6 233.5 63 63 63
496.9 -39.7 191.1 68 70 69
20.4 -2.1 11.3 224 224 224
23.0 -2.1 11.3 224 224 224
24.1 -2.1 11.4 161 164 163
512.4 -36.4 197.0 77 77 77
19.4 -1.8 11.1 220 223 222
19.5 -1.8 11.1 225 225 225
20.2 -1.8 11.2 225 225 225
19.8 -1.6 10.1 225 225 225
20.0 -1.6 10.0 225 225 225
22.4 -1.8 11.1 225 225 225
22.7 -1.8 11.1 225 225 225
22.8 -1.8 11.0 219 222 221
23.6 -1.8 11.0 148 148 148
501.9 -31.2 193.0 78 78 78
19.8 -1.5 11.1 220 223 222
20.1 -1.5 11.1 220 223 222
20.0 -1.4 10.0 228 228 228
22.3 -1.5 11.1 225 225 225
22.6 -1.5 11.1 220 223 222
23.6 -1.5 11.0 156 156 156
309.5 -17.5 127.0 216 216 216
290.9 -16.3 118.2 219 222 221
387.3 -20.6 148.9 68 71 70
339.9 -17.9 129.6 64 64 64
415.2 -17.9 129.6 60 60 60
20.2 -1.2 10.2 220 223 222
20.4 -1.2 10.2 226 226 226
22.2 -1.2 10.8 220 223 222
22.4 -1.2 10.8 220 223 222
24.4 -1.3 11.7 166 166 166
318.0 -15.0 130.5 214 214 214
314.5 -14.7 127.8 184 184 184
381.3 -16.9 146.6 67 69 68
344.6 -15.1 131.4 59 59 59
421.0 -15.1 131.4 79 79 79
20.2 -0.9 10.2 222 224 224
20.4 -0.9 10.2 222 224 224
20.7 -0.9 10.3 222 224 224
24.2 -1.1 11.5 185 185 185
324.7 -12.2 133.2 211 211 211
390.4 -13.8 150.1 66 66 66
367.6 -12.8 140.1 58 58 56
20.1 -0.7 10.2 223 225 225
20.3 -0.7 10.2 223 225 225
20.6 -0.7 10.2 222 224 224
24.0 -0.8 11.4 192 192 192
424.0 -11.2 163.1 68 70 69
23.6 -0.5 11.0 193 193 193
23.6 -0.2 11.0 199 199 199
23.5 0.0 11.0 196 196 196
53.1 0.0 14.0 88 88 88
24.2 0.3 11.5 195 195 195
23.6 0.3 11.0 197 197 197
23.4 0.3 10.9 200 200 200
54.1 0.4 14.5 86 86 86
53.4 0.3 14.1 78 78 78
23.9 0.5 11.4 192 192 192
24.0 0.5 11.4 196 196 196
23.3 0.5 10.8 198 198 198
23.5 0.5 10.7 172 172 172
75.6 1.0 20.0 93 93 93
75.3 0.9 19.8 172 172 172
23.9 0.8 11.4 191 191 191
24.0 0.8 11.3 196 196 196
23.3 0.8 10.8 199 199 199
23.5 0.8 10.7 199 199 199
23.7 0.8 10.7 168 170 169
74.6 1.4 19.7 92 92 92
74.7 1.4 19.6 168 170 169
24.0 1.1 11.5 191 191 191
24.2 1.1 11.5 197 197 197
23.3 1.0 10.8 199 199 199
23.5 1.0 10.7 173 173 173
74.8 1.9 19.7 90 90 90
74.0 1.8 19.4 166 169 168
73.7 1.8 19.2 132 132 132
23.3 1.2 10.6 173 173 173
75.1 2.3 19.7 159 159 159
74.4 2.3 19.4 131 131 131
23.1 1.5 10.7 204 204 204
23.2 1.5 10.7 204 204 204
23.4 1.5 10.6 174 174 174
23.6 1.8 11.1 199 199 199
23.3 1.8 10.8 202 202 202
23.5 1.8 10.8 205 205 205
62.6 2.7 16.5 98 100 100
23.6 2.1 11.0 199 199 199
62.5 3.1 16.5 90 90 90
100.4 4.9 26.3 97 97 97
23.6 2.3 11.1 200 200 200
62.9 3.5 16.6 96 96 96
101.3 5.6 26.6 77 77 77
101.7 5.6 26.5 176 176 176
209.4 33.5 143.3 158 158 158
23.7 2.6 11.1 202 202 202
451.5 41.3 176.8 194 194 194
435.3 39.5 168.9 195 195 195
439.2 39.5 168.9 195 195 195
424.2 37.8 161.7 114 116 115
626.9 46.0 197.0 69 69 69
592.3 39.5 168.9 96 96 96
63.6 3.9 16.8 90 89 88
101.2 6.2 26.6 74 73 71
187.3 47.2 183.7 200 200 200
177.7 43.8 170.4 210 210 210
183.4 44.2 172.0 182 182 182
180.8 42.6 165.9 116 118 117
239.3 44.2 172.0 175 177 177
250.1 45.4 176.8 172 172 172
211.0 37.1 144.4 131 131 131
224.7 38.9 151.3 144 144 144
410.4 45.4 176.8 202 202 202
379.1 41.5 161.7 204 204 204
411.7 43.4 168.9 197 197 197
372.4 38.9 151.3 69 69 69
419.6 43.4 168.9 183 186 185
427.3 43.8 170.4 186 188 187
483.5 49.1 191.1 192 192 192
447.3 45.0 175.2 195 195 195
435.3 43.4 168.9 195 195 195
439.2 43.4 168.9 194 194 194
424.2 41.5 161.7 102 102 102
459.3 44.6 173.5 63 63 63
614.1 49.6 193.0 66 66 64
556.1 44.6 173.5 53 55 53
615.9 47.7 185.5 195 195 195
506.1 38.9 151.3 178 178 178
916.2 69.4 270.2 74 74 72
587.1 44.2 172.0 74 74 72
575.4 43.0 167.4 78 78 78
564.3 41.9 163.1 81 81 81
588.4 43.4 168.9 92 92 92
608.6 44.6 173.5 100 102 102
94.3 6.4 25.1 228 228 228
97.5 6.6 25.6 177 180 179
228.6 44.5 159.0 147 147 147
211.0 40.5 144.4 184 184 184
219.4 41.4 147.8 102 102 102
228.2 42.4 151.3 107 107 107
363.5 43.4 155.1 205 205 205
366.5 41.7 148.9 64 63 61
423.5 47.3 168.9 184 187 186
435.2 47.7 170.4 188 190 190
427.6 46.5 165.9 194 194 194
435.3 46.9 167.4 202 202 202
390.8 41.7 148.9 101 101 101
626.9 55.2 197.0 49 50 48
556.1 48.6 173.5 40 41 39
498.1 41.7 148.9 173 173 173
855.2 70.7 252.2 74 74 72
569.2 46.1 164.5 82 82 82
535.7 43.1 153.8 98 98 98
92.8 7.0 24.8 95 95 95
93.8 7.0 24.9 107 107 107
94.7 7.0 25.0 114 116 115
96.3 7.1 25.3 137 137 137
96.1 7.0 25.1 163 162 160
214.3 44.5 146.6 164 167 166
226.5 46.3 152.6 177 180 179
477.3 62.4 205.6 203 203 203
455.7 54.1 178.5 183 183 183
439.2 51.7 170.4 186 186 186
447.2 52.2 172.0 188 190 190
443.1 51.2 168.9 141 141 141
633.5 60.4 199.1 39 39 39
855.2 76.5 252.2 75 75 73
578.0 50.3 165.9 95 95 95
92.0 7.5 24.6 89 89 87
94.6 7.6 25.0 127 127 127
96.1 7.7 25.2 140 140 140
95.5 7.6 24.9 152 154 154
555.9 78.2 239.4 203 203 203
519.5 66.4 203.4 183 183 183
512.4 64.4 197.0 188 190 190
843.9 81.3 248.9 74 74 72
95.0 8.3 25.3 94 94 94
95.6 8.3 25.3 140 140 140
97.1 8.3 25.5 144 146 146
96.0 8.2 25.1 152 154 154
96.4 9.0 25.6 97 97 97
96.9 9.0 25.6 150 150 150
97.9 9.0 25.7 152 154 154
96.3 8.8 25.1 151 151 151
96.7 9.4 25.2 137 137 137
-40.2 20.9 36.0 71 72 70
-526.4 127.2 195.0 79 79 79
-521.8 127.2 195.0 126 128 127
-517.3 127.2 195.0 123 123 123
-512.8 127.2 195.0 116 118 117
-472.0 127.2 195.0 121 123 122
-462.7 125.9 193.0 120 122 121
-458.2 125.9 193.0 116 116 116
-458.4 127.2 195.0 106 106 106
-453.9 127.2 195.0 139 139 139
-449.3 127.2 195.0 165 165 165
-435.7 127.2 195.0 98 98 98
-431.2 127.2 195.0 107 107 107
-431.1 128.5 197.0 112 112 112
-422.1 127.2 195.0 117 117 117
-417.6 127.2 195.0 119 119 119
-413.1 127.2 195.0 124 126 125
-412.8 128.5 197.0 134 134 134
-399.9 125.9 193.0 148 148 148
-403.6 128.5 197.0 150 152 152
-399.0 128.5 197.0 166 166 166
-390.4 127.2 195.0 176 176 176
-385.9 127.2 195.0 168 168 168
-381.3 127.2 195.0 157 157 157
-376.8 127.2 195.0 134 137 136
-372.3 127.2 195.0 134 137 136
-367.7 127.2 195.0 128 128 128
-363.2 127.2 195.0 120 120 120
-358.7 127.2 195.0 117 117 117
-354.1 127.2 195.0 122 122 122
-349.6 127.2 195.0 119 119 119
-345.1 127.2 195.0 114 116 115
-340.5 127.2 195.0 112 114 113
-336.0 127.2 195.0 112 112 112
-331.5 127.2 195.0 108 108 108
-326.9 127.2 195.0 116 116 116
-322.4 127.2 195.0 123 125 124
-317.9 127.2 195.0 131 131 131
-313.3 127.2 195.0 134 137 136
-308.8 127.2 195.0 143 143 142
-304.3 127.2 195.0 146 146 146
-299.7 127.2 195.0 150 152 152
-295.2 127.2 195.0 169 168 167
-293.7 128.5 197.0 165 165 165
-289.1 128.5 197.0 159 159 159
-273.2 123.4 189.2 163 163 163
-271.5 124.6 191.1 133 133 133
-278.3 129.8 199.1 129 129 129
-270.8 128.5 197.0 116 116 116
-266.2 128.5 197.0 129 129 129
-258.9 127.2 195.0 118 118 118
-254.4 127.2 195.0 90 90 90
-263.5 134.1 205.6 93 93 93
-255.9 132.6 203.4 98 98 98
-243.3 128.5 197.0 90 90 90
-233.9 125.9 193.0 79 81 80
-231.7 127.2 195.0 38 38 38
-224.9 125.9 193.0 33 32 30
-222.7 127.2 195.0 112 112 112
-218.1 127.2 195.0 114 116 115
-213.6 127.2 195.0 127 127 127
-209.1 127.2 195.0 132 135 134
-204.6 127.2 195.0 131 134 133
-200.0 127.2 195.0 122 122 122
-195.5 127.2 195.0 111 111 111
-191.0 127.2 195.0 158 158 158
-186.4 127.2 195.0 147 147 147
-181.9 127.2 195.0 124 127 126
-177.4 127.2 195.0 120 120 120
-172.8 127.2 195.0 163 166 165
-168.3 127.2 195.0 164 167 166
-163.8 127.2 195.0 161 161 161
-159.2 127.2 195.0 90 92 91
-154.7 127.2 195.0 145 145 144
-150.2 127.2 195.0 113 115 114
-145.6 127.2 195.0 104 104 104
-141.1 127.2 195.0 96 99 98
-136.6 127.2 195.0 94 97 96
-132.0 127.2 195.0 89 89 89
-127.5 127.2 195.0 67 67 67
-123.0 127.2 195.0 121 121 121
-118.4 127.2 195.0 159 162 161
-112.7 125.9 193.0 165 165 165
-107.2 124.6 191.1 168 170 169
-107.0 129.8 199.1 155 158 157
-102.4 129.8 199.1 207 210 209
-97.8 129.8 199.1 220 220 220
-93.2 129.8 199.1 214 214 214
-86.7 127.2 195.0 215 215 215
-81.3 125.9 193.0 211 211 211
-77.6 127.2 195.0 207 210 209
-73.1 127.2 195.0 210 210 210
-69.3 128.5 197.0 218 218 218
-65.4 129.8 199.1 225 225 225
-61.4 131.2 201.2 226 226 226
-51.0 128.5 197.0 234 234 234
-44.5 123.4 189.2 236 236 236
-40.9 125.9 193.0 235 235 235
-37.6 129.8 199.1 234 234 234
-32.0 125.9 193.0 234 234 234
-28.1 128.5 197.0 234 234 234
-23.2 127.2 195.0 234 234 234
-18.9 128.5 197.0 231 231 231
-14.0 125.9 193.0 227 227 227
-10.1 132.6 203.4 222 222 222
-5.2 129.8 199.1 218 218 218
-0.6 125.9 193.0 204 204 204
3.9 125.9 193.0 193 196 195
8.5 127.2 195.0 199 199 199
84.3 140.2 215.0 54 54 54
81.0 127.2 195.0 62 64 61
87.3 129.8 199.1 68 68 68
86.5 122.1 187.3 73 73 73
90.9 122.1 187.3 75 75 75
98.1 125.9 193.0 75 76 76
103.7 127.2 195.0 70 72 69
105.0 123.4 189.2 19 23 20
98.5 111.1 170.4 62 62 62
107.3 116.4 178.5 72 73 71
123.1 128.5 197.0 71 72 70
-632.7 159.7 236.5 121 121 121
-627.2 159.7 236.5 119 121 120
-646.0 165.9 245.7 116 116 116
-566.8 159.7 236.5 120 120 120
-522.8 159.7 236.5 113 115 114
-517.3 159.7 236.5 121 121 121
-511.8 159.7 236.5 130 130 130
-506.3 159.7 236.5 133 133 133
-500.8 159.7 236.5 137 139 138
-495.3 159.7 236.5 147 147 147
-489.8 159.7 236.5 151 153 153
-490.5 161.7 239.4 169 169 169
-478.8 159.7 236.5 175 175 175
-473.4 159.7 236.5 176 179 178
-467.9 159.7 236.5 181 181 181
-462.4 159.7 236.5 178 181 180
-456.9 159.7 236.5 174 174 174
-451.4 159.7 236.5 160 160 160
-445.9 159.7 236.5 151 153 153
-440.4 159.7 236.5 145 145 144
-434.9 159.7 236.5 148 148 148
-429.4 159.7 236.5 145 145 144
-423.9 159.7 236.5 131 131 131
-418.4 159.7 236.5 123 123 123
-412.9 159.7 236.5 119 119 119
-407.4 159.7 236.5 114 116 115
-401.9 159.7 236.5 114 116 115
-396.4 159.7 236.5 119 119 119
-390.9 159.7 236.5 124 126 125
-385.4 159.7 236.5 130 130 130
-379.9 159.7 236.5 132 132 132
-374.4 159.7 236.5 138 140 139
-368.9 159.7 236.5 206 209 208
-363.4 159.7 236.5 192 195 194
-357.9 159.7 236.5 205 205 205
-352.4 159.7 236.5 225 225 225
-346.9 159.7 236.5 230 230 230
-333.1 155.8 230.7 238 238 238
-336.0 159.7 236.5 238 238 238
-334.6 161.7 239.4 238 238 238
-325.0 159.7 236.5 230 230 230
-319.5 159.7 236.5 169 168 167
-310.1 157.7 233.5 123 123 123
-308.5 159.7 236.5 114 116 115
-314.8 165.9 245.7 112 114 113
-301.2 161.7 239.4 119 119 119
-288.4 157.7 233.5 129 129 129
-286.5 159.7 236.5 90 90 90
-281.0 159.7 236.5 37 38 37
-275.5 159.7 236.5 33 32 30
-270.0 159.7 236.5 156 156 156
-264.5 159.7 236.5 137 139 138
-255.8 157.7 233.5 134 134 134
-253.5 159.7 236.5 126 126 126
-248.0 159.7 236.5 105 105 105
-242.5 159.7 236.5 85 85 85
-237.0 159.7 236.5 93 96 95
-231.5 159.7 236.5 151 153 153
-226.0 159.7 236.5 119 119 119
-220.5 159.7 236.5 124 127 126
-215.0 159.7 236.5 146 148 148
-209.5 159.7 236.5 166 169 168
-204.0 159.7 236.5 164 167 166
-198.6 159.7 236.5 159 159 159
-193.1 159.7 236.5 86 86 86
-187.6 159.7 236.5 151 153 153
-182.1 159.7 236.5 116 116 116
-176.6 159.7 236.5 105 105 105
-171.1 159.7 236.5 95 98 97
-165.6 159.7 236.5 93 96 95
-160.1 159.7 236.5 89 89 89
-154.6 159.7 236.5 84 84 84
-149.1 159.7 236.5 113 114 113
-143.6 159.7 236.5 152 151 149
-136.4 157.7 233.5 159 162 161
-129.4 155.8 230.7 165 165 165
-127.1 159.7 236.5 166 166 166
-126.3 165.9 245.7 217 217 217
-119.1 163.8 242.5 222 222 222
-110.6 159.7 236.5 204 204 204
-105.1 159.7 236.5 212 213 212
-99.6 159.7 236.5 211 211 211
-94.1 159.7 236.5 206 209 208
-88.6 159.7 236.5 203 205 205
-85.3 163.8 242.5 209 209 209
-79.6 163.8 242.5 219 219 219
-73.1 161.7 239.4 219 219 219
-69.2 165.9 245.7 231 231 231
-60.4 157.7 233.5 234 234 234
-53.6 153.9 227.9 234 234 234
-50.2 159.7 236.5 234 234 234
-45.2 161.7 239.4 234 234 234
-38.2 155.8 230.7 232 232 232
-33.3 157.7 233.5 232 232 232
-28.2 159.7 236.5 231 231 231
-22.7 159.7 236.5 228 228 228
-17.2 159.7 236.5 228 228 228
-12.1 165.9 245.7 211 211 211
-6.2 159.7 236.5 204 204 204
-0.7 155.8 230.7 205 208 207
4.7 155.8 230.7 204 204 204
10.0 155.8 230.7 206 209 208
98.9 170.3 252.2 58 58 58
94.7 153.9 227.9 64 65 63
107.8 165.9 245.7 69 69 69
102.8 150.3 222.5 73 73 73
110.6 153.9 227.9 77 77 77
117.3 155.8 230.7 75 76 76
121.2 153.9 227.9 75 75 75
120.6 146.8 217.4 27 27 27
115.1 134.5 199.1 64 64 64
125.0 140.4 207.9 74 75 73
147.7 159.7 236.5 73 74 72
155.1 161.7 239.4 73 74 72
-767.0 200.2 286.6 118 120 119
-760.3 200.2 286.6 120 122 121
-753.6 200.2 286.6 118 120 119
-704.3 203.3 291.0 122 124 123
-687.0 200.2 286.6 121 121 121
-680.4 200.2 286.6 119 119 119
-684.1 203.3 291.0 122 122 122
-667.0 200.2 286.6 136 138 137
-681.0 206.5 295.6 168 168 168
-663.8 203.3 291.0 112 112 112
-657.0 203.3 291.0 112 112 112
-640.4 200.2 286.6 112 112 112
-643.5 203.3 291.0 114 116 115
-636.7 203.3 291.0 121 121 121
-629.9 203.3 291.0 126 128 127
-623.2 203.3 291.0 128 130 129
-616.4 203.3 291.0 133 133 133
-600.4 200.2 286.6 137 137 137
-612.3 206.5 295.6 138 140 139
-605.4 206.5 295.6 148 148 148
-580.4 200.2 286.6 138 140 139
-573.8 200.2 286.6 145 145 144
-567.1 200.2 286.6 138 140 139
-560.4 200.2 286.6 145 145 144
-553.8 200.2 286.6 147 147 147
-547.1 200.2 286.6 136 136 136
-540.5 200.2 286.6 138 140 139
-533.8 200.2 286.6 132 132 132
-527.1 200.2 286.6 124 127 126
-520.5 200.2 286.6 124 127 126
-513.8 200.2 286.6 124 127 126
-507.1 200.2 286.6 124 124 124
-500.5 200.2 286.6 122 122 122
-493.8 200.2 286.6 124 127 126
-487.2 200.2 286.6 124 124 124
-480.5 200.2 286.6 124 124 124
-473.8 200.2 286.6 124 124 124
-467.2 200.2 286.6 122 122 122
-460.5 200.2 286.6 122 122 122
-453.8 200.2 286.6 135 135 135
-447.2 200.2 286.6 218 218 218
-440.5 200.2 286.6 230 233 232
-433.9 200.2 286.6 237 237 237
-427.2 200.2 286.6 230 230 230
-414.3 197.2 282.3 207 210 209
-407.7 197.2 282.3 219 219 219
-407.2 200.2 286.6 232 234 234
-400.6 200.2 286.6 237 237 237
-393.9 200.2 286.6 233 235 235
-399.3 206.5 295.6 207 207 207
-374.9 197.2 282.3 110 110 110
-379.7 203.3 291.0 124 126 125
-384.7 209.8 300.3 137 139 138
-366.1 203.3 291.0 145 145 144
-343.5 194.3 278.2 148 150 150
-352.6 203.3 291.0 64 64 64
-345.8 203.3 291.0 39 39 39
-344.4 206.5 295.6 14 18 15
-337.5 206.5 295.6 136 136 136
-320.6 200.2 286.6 118 118 118
-309.3 197.2 282.3 109 109 109
-316.9 206.5 295.6 58 58 58
-305.3 203.3 291.0 30 29 28
-294.0 200.2 286.6 47 48 47
-287.3 200.2 286.6 155 158 157
-280.6 200.2 286.6 154 156 156
-274.0 200.2 286.6 161 161 161
-267.3 200.2 286.6 84 84 84
-260.7 200.2 286.6 169 171 170
-254.0 200.2 286.6 165 168 167
-247.3 200.2 286.6 156 159 158
-240.7 200.2 286.6 122 122 122
-234.0 200.2 286.6 90 90 90
-227.3 200.2 286.6 126 126 126
-220.7 200.2 286.6 121 121 121
-214.0 200.2 286.6 108 108 108
-207.4 200.2 286.6 95 98 97
-200.7 200.2 286.6 93 96 95
-194.0 200.2 286.6 89 89 89
-187.4 200.2 286.6 91 93 92
-180.7 200.2 286.6 126 129 128
-174.1 200.2 286.6 154 154 154
-164.9 197.2 282.3 156 159 158
-163.2 203.3 291.0 158 161 160
-158.9 206.5 295.6 166 166 166
-154.4 209.8 300.3 194 197 196
-145.1 206.5 295.6 183 186 185
-136.1 203.3 291.0 205 208 207
-129.4 203.3 291.0 205 208 207
-122.6 203.3 291.0 207 210 209
-112.4 197.2 282.3 203 205 205
-107.4 200.2 286.6 200 200 200
-103.9 206.5 295.6 202 204 204
-97.1 206.5 295.6 201 203 203
-93.1 213.1 305.1 219 219 219
-83.3 206.5 295.6 224 224 224
-71.9 194.3 278.2 224 224 224
-67.5 200.2 286.6 230 230 230
-62.7 206.5 295.6 230 230 230
-55.8 206.5 295.6 232 232 232
-46.1 194.3 278.2 232 232 232
-40.2 197.2 282.3 226 226 226
-34.7 203.3 291.0 228 228 228
-27.5 200.2 286.6 228 228 228
-21.5 206.5 295.6 205 205 205
-14.6 206.5 295.6 216 216 216
-7.4 197.2 282.3 220 220 220
-0.8 194.3 278.2 220 220 220
5.7 197.2 282.3 177 177 177
12.3 197.2 282.3 179 182 181
19.1 200.2 286.6 189 189 189
117.8 209.8 300.3 60 60 60
113.9 191.5 274.1 65 66 64
129.7 206.5 295.6 71 71 71
119.7 181.0 259.1 77 77 77
131.1 188.8 270.2 75 76 76
145.7 200.2 286.6 77 77 77
145.8 191.5 274.1 72 73 71
141.8 178.6 255.6 27 27 27
154.0 186.1 266.4 70 70 70
153.7 178.6 255.6 75 77 75
184.6 206.5 295.6 77 79 77
191.5 206.5 295.6 75 76 74
-898.8 284.5 394.1 137 137 137
-871.4 284.5 394.1 120 120 120
-862.2 284.5 394.1 124 124 124
-843.9 284.5 394.1 128 131 130
-816.4 284.5 394.1 138 138 138
-807.2 284.5 394.1 138 138 138
-751.1 267.7 370.9 138 138 138
-719.0 278.7 386.0 126 129 128
-710.0 278.7 386.0 126 128 127
-638.2 278.7 386.0 114 116 115
-629.3 278.7 386.0 114 116 115
-620.3 278.7 386.0 112 112 112
-611.3 278.7 386.0 103 105 105
-602.3 278.7 386.0 151 153 153
-581.5 273.1 378.3 207 207 207
-572.7 273.1 378.3 235 235 235
-552.8 267.7 370.9 203 203 203
-533.8 262.6 363.8 150 152 152
-546.3 273.1 378.3 167 167 167
-516.9 262.6 363.8 136 138 137
-498.8 257.6 356.9 149 151 151
-519.9 273.1 378.3 174 174 174
-532.4 284.5 394.1 144 144 144
-523.3 284.5 394.1 148 148 148
-514.1 284.5 394.1 146 146 146
-476.0 273.1 378.3 148 150 150
-449.2 262.6 363.8 155 155 155
-467.7 278.7 386.0 74 74 74
-449.6 273.1 378.3 14 18 15
-459.2 284.5 394.1 29 31 29
-440.8 278.7 386.0 91 90 89
-399.3 257.6 356.9 10 10 10
-414.4 273.1 378.3 22 22 22
-413.4 284.5 394.1 30 29 28
-396.0 278.7 386.0 84 84 84
-387.0 278.7 386.0 156 159 158
-378.0 278.7 386.0 162 162 162
-369.0 278.7 386.0 172 172 172
-360.1 278.7 386.0 77 77 75
-351.1 278.7 386.0 175 174 172
-342.1 278.7 386.0 169 171 170
-333.1 278.7 386.0 128 128 128
-324.2 278.7 386.0 115 114 114
-315.2 278.7 386.0 109 109 109
-279.3 278.7 386.0 92 92 92
-270.3 278.7 386.0 93 93 93
-261.4 278.7 386.0 90 90 90
-252.4 278.7 386.0 88 88 88
-243.4 278.7 386.0 126 129 128
-234.4 278.7 386.0 148 150 150
-221.0 273.1 378.3 150 150 148
-221.0 284.5 394.1 155 158 157
-202.7 284.5 394.1 155 158 157
-185.8 273.1 378.3 144 143 142
-184.4 284.5 394.1 179 182 181
-175.2 284.5 394.1 203 203 203
-166.0 284.5 394.1 204 207 206
-144.8 262.6 363.8 203 205 205
-144.7 278.7 386.0 195 195 195
-138.6 284.5 394.1 194 194 194
-126.8 278.7 386.0 200 200 200
-111.1 284.5 394.1 217 217 217
-85.8 239.5 331.9 219 219 219
-89.1 273.1 378.3 224 224 224
-60.3 262.6 363.8 228 228 228
-55.0 278.7 386.0 226 226 226
-9.3 257.6 356.9 220 220 220
-1.1 262.6 363.8 178 181 180
23.4 252.9 350.3 200 200 200
156.6 257.6 356.9 73 73 73
143.2 223.8 310.1 77 77 77
150.5 223.8 310.1 77 77 77
176.4 239.5 331.9 73 74 72
184.1 239.5 331.9 25 25 25
214.6 257.6 356.9 77 79 77
246.2 284.5 394.1 77 78 76
255.3 284.5 394.1 79 81 79
