ply
format ascii 1.0
element vertex 2561
property float x
property float y
property float z
property uchar red
property uchar green
property uchar blue
end_header
160.3 -327.3 130.5 162 162 162
152.8 -306.2 122.0 162 162 162
170.6 -329.6 131.4 158 161 160
52.1 -76.1 30.3 159 162 161
52.8 -76.1 30.3 159 162 161
53.2 -75.7 30.2 159 162 161
53.7 -75.5 30.1 159 159 159
54.8 -75.9 30.3 159 159 159
55.4 -75.8 30.2 159 159 159
110.8 -252.8 101.7 164 164 164
117.9 -252.8 101.7 165 165 165
160.6 -331.1 133.2 162 162 162
146.2 -295.7 119.0 162 162 162
124.7 -247.5 99.6 162 162 162
164.1 -319.9 128.7 162 162 162
54.1 -77.2 31.1 159 162 161
53.9 -76.0 30.6 159 162 161
54.3 -75.5 30.4 160 163 162
56.6 -76.7 30.9 159 159 159
61.6 -41.2 16.6 200 202 202
25.5 -142.9 58.0 156 159 158
26.6 -141.6 57.5 160 160 160
28.0 -142.0 57.7 159 159 159
29.3 -142.0 57.7 159 159 159
30.7 -142.0 57.7 159 159 159
32.0 -142.0 57.7 162 162 162
33.3 -142.0 57.7 158 158 158
34.5 -141.2 57.3 161 161 161
36.1 -142.5 57.8 161 161 161
37.6 -142.9 58.0 158 158 158
38.7 -142.0 57.7 161 161 161
39.8 -141.2 57.3 165 165 165
41.5 -142.5 57.8 165 165 165
42.7 -142.0 57.7 165 165 165
44.1 -142.0 57.7 165 165 165
45.4 -142.0 57.7 165 165 165
46.7 -142.0 57.7 165 165 165
48.1 -142.0 57.7 166 166 166
49.6 -142.5 57.8 166 166 166
50.8 -142.0 57.7 166 166 166
51.8 -141.2 57.3 166 166 166
53.4 -142.0 57.7 166 166 166
54.8 -142.0 57.7 163 163 163
56.0 -141.6 57.5 163 163 163
57.5 -142.0 57.7 164 164 164
59.2 -142.9 58.0 164 164 164
60.5 -142.9 58.0 164 164 164
61.7 -142.5 57.8 164 164 164
62.6 -141.6 57.5 164 164 164
63.6 -140.7 57.1 164 164 164
65.3 -141.6 57.5 164 164 164
67.1 -142.5 57.8 165 165 165
67.8 -141.2 57.3 162 162 162
69.5 -142.0 57.7 165 165 165
74.2 -143.3 58.2 162 162 162
73.3 -139.1 56.5 166 166 166
123.8 -193.3 78.5 160 163 162
128.9 -198.2 80.5 160 163 162
130.7 -198.2 80.5 160 163 162
56.0 -78.2 31.7 159 162 161
55.0 -75.7 30.8 160 163 162
74.6 -53.5 21.7 99 101 101
57.4 -38.3 15.5 196 196 196
61.0 -40.4 16.4 209 209 209
59.5 -39.2 15.9 180 183 182
58.5 -38.3 15.5 158 158 158
58.8 -38.3 15.5 212 213 212
59.0 -38.1 15.5 188 188 188
24.6 -144.6 59.3 156 159 158
25.5 -141.5 58.0 160 160 160
28.3 -142.4 58.4 159 159 159
32.4 -142.4 58.4 162 162 162
33.8 -142.4 58.4 161 161 161
34.8 -141.1 57.8 161 161 161
36.6 -142.9 58.6 161 161 161
37.7 -142.0 58.2 161 161 161
38.7 -140.7 57.7 164 164 164
39.4 -138.6 56.8 165 165 165
42.0 -142.9 58.6 165 165 165
43.3 -142.4 58.4 165 165 165
44.6 -142.4 58.4 165 165 165
45.0 -139.4 57.1 165 165 165
47.2 -142.0 58.2 165 165 165
48.7 -142.4 58.4 166 166 166
50.2 -142.9 58.6 166 166 166
50.5 -139.8 57.3 163 163 163
51.5 -139.0 57.0 163 163 163
53.1 -139.8 57.3 163 163 163
54.5 -139.8 57.3 163 163 163
55.6 -139.4 57.1 163 163 163
56.9 -139.4 57.1 164 164 164
59.5 -142.4 58.4 164 164 164
60.7 -142.0 58.2 164 164 164
61.7 -141.1 57.8 164 164 164
62.1 -139.0 57.0 164 164 164
63.6 -139.4 57.1 164 164 164
65.1 -139.8 57.3 164 164 164
66.2 -139.4 57.1 165 165 165
67.2 -138.6 56.8 162 162 162
74.5 -145.1 59.5 165 165 165
74.5 -142.4 58.4 165 165 165
70.8 -133.0 54.5 166 166 166
61.5 -96.5 39.6 167 167 167
130.9 -202.4 83.0 165 165 165
135.2 -206.0 84.4 165 165 165
134.2 -201.5 82.6 165 165 165
73.7 -52.3 21.4 96 99 98
70.5 -49.7 20.4 96 96 96
56.4 -37.5 15.4 197 200 199
56.2 -37.1 15.2 196 196 196
58.3 -38.0 15.6 207 207 207
57.7 -37.4 15.3 207 207 207
58.1 -37.5 15.4 200 202 202
58.4 -37.4 15.3 197 200 199
35.2 -118.4 49.0 165 165 165
45.3 -124.2 51.4 163 163 163
49.6 -120.3 49.8 164 164 164
50.6 -120.0 49.6 164 164 164
54.2 -122.9 50.9 161 161 161
55.0 -121.9 50.4 164 164 164
54.7 -118.7 49.1 161 161 161
56.5 -120.3 49.8 164 164 164
68.2 -129.1 53.4 165 165 165
65.0 -120.9 50.0 168 168 168
60.4 -110.4 45.7 169 169 169
57.3 -89.1 36.9 167 167 167
133.2 -204.0 84.4 168 168 168
138.3 -208.7 86.4 168 168 168
137.2 -204.0 84.4 168 168 168
69.6 -48.6 20.1 93 93 93
68.6 -47.6 19.7 93 93 93
55.0 -36.0 14.9 196 196 196
57.8 -37.6 15.6 183 186 185
58.0 -37.5 15.5 179 179 179
57.5 -36.9 15.3 205 205 205
58.3 -37.0 15.3 216 216 216
56.6 -35.7 14.8 216 216 216
31.9 -106.5 44.5 165 165 165
32.8 -106.0 44.3 165 165 165
35.6 -105.0 43.9 165 165 165
35.3 -101.3 42.3 166 166 166
38.9 -100.4 41.9 163 163 163
44.5 -104.5 43.7 164 164 164
44.0 -101.0 42.2 164 164 164
47.8 -105.0 43.9 167 167 167
48.8 -105.0 43.9 164 164 164
47.4 -99.9 41.8 167 167 167
58.1 -109.1 45.6 168 168 168
58.8 -108.3 45.3 172 172 172
57.8 -104.5 43.7 172 172 172
54.0 -83.1 34.7 173 173 173
141.5 -211.5 88.4 172 172 172
136.5 -201.2 84.1 172 172 172
72.4 -50.4 21.1 96 96 96
67.0 -46.0 19.2 93 93 93
56.5 -35.9 15.0 204 204 204
55.7 -35.2 14.7 212 213 212
17.4 -84.9 35.8 162 162 162
17.7 -82.4 34.8 165 165 165
19.8 -84.6 35.7 167 167 167
20.3 -83.2 35.1 167 167 167
21.1 -83.2 35.1 169 171 170
21.9 -83.2 35.1 167 167 167
25.7 -84.7 35.8 162 162 162
26.0 -83.3 35.2 165 165 165
27.3 -84.7 35.8 162 162 162
28.2 -84.9 35.8 162 162 162
28.9 -84.4 35.6 165 165 165
29.2 -82.9 35.0 162 162 162
30.1 -83.3 35.2 166 166 166
31.5 -84.9 35.8 168 168 168
32.2 -84.4 35.6 166 166 166
32.5 -83.0 35.0 166 166 166
33.9 -84.6 35.7 163 163 163
34.2 -83.3 35.2 166 166 166
35.6 -84.6 35.7 169 169 169
36.5 -84.9 35.8 169 169 169
36.7 -83.3 35.2 169 169 169
37.1 -82.5 34.8 170 171 170
38.0 -82.7 34.9 167 167 167
39.9 -85.1 35.9 170 171 170
41.4 -83.0 35.0 170 171 170
48.0 -84.6 35.7 173 175 175
47.8 -82.7 34.9 173 175 175
54.2 -85.2 36.0 174 176 176
52.9 -81.8 34.5 174 176 176
53.1 -80.9 34.1 173 173 173
53.7 -80.6 34.0 175 177 177
140.3 -204.7 86.4 174 174 174
72.3 -49.9 21.0 96 99 98
69.0 -47.2 19.9 96 96 96
15.3 -81.6 34.8 163 163 163
16.9 -81.9 34.9 168 168 168
19.2 -81.0 34.5 167 167 167
20.0 -81.0 34.5 167 167 167
20.8 -81.0 34.5 167 167 167
21.6 -81.0 34.5 167 167 167
22.4 -81.0 34.5 167 167 167
23.3 -81.3 34.6 167 167 167
24.2 -81.9 34.9 165 165 165
25.0 -81.6 34.8 165 165 165
25.6 -81.1 34.6 168 168 168
26.8 -82.3 35.1 168 168 168
27.7 -82.7 35.2 168 168 168
29.7 -81.4 34.7 168 168 168
31.0 -82.7 35.2 171 173 173
31.4 -81.6 34.8 171 173 173
31.9 -80.8 34.5 171 173 173
33.0 -81.4 34.7 171 173 173
33.7 -81.1 34.6 171 173 173
35.5 -81.6 34.8 171 173 173
36.0 -81.0 34.5 174 176 176
36.7 -80.7 34.4 171 173 173
41.0 -81.4 34.7 172 174 174
43.1 -82.2 35.0 175 177 177
43.4 -81.3 34.6 175 177 177
46.8 -83.1 35.4 176 179 178
47.7 -83.3 35.5 180 180 180
47.7 -81.7 34.8 180 180 180
50.1 -84.5 36.0 176 179 178
53.5 -84.5 36.0 181 181 181
53.6 -83.4 35.6 177 180 179
52.2 -80.0 34.1 177 180 179
52.6 -79.4 33.8 174 176 176
53.4 -79.4 33.8 177 180 179
53.6 -78.6 33.5 175 177 177
68.5 -46.5 19.8 96 96 96
42.0 -26.7 11.4 200 202 202
42.4 -26.6 11.3 212 213 212
42.4 -26.4 11.3 216 216 216
42.5 -26.3 11.2 216 216 216
15.3 -80.8 34.8 166 166 166
16.9 -80.9 34.8 170 172 172
17.5 -80.2 34.5 170 172 172
18.4 -80.3 34.6 170 172 172
19.3 -80.6 34.7 167 167 167
20.1 -80.6 34.7 167 167 167
20.9 -80.6 34.7 169 171 170
21.7 -80.6 34.7 164 164 164
22.5 -80.6 34.7 169 171 170
23.3 -80.6 34.7 169 171 170
24.1 -80.8 34.8 168 168 168
25.0 -80.8 34.8 170 172 172
25.7 -80.5 34.6 170 172 172
26.6 -80.8 34.8 170 172 172
27.3 -80.5 34.6 170 172 172
28.0 -80.2 34.5 170 172 172
28.8 -80.3 34.6 168 168 168
29.8 -80.8 34.8 170 172 172
30.7 -80.9 34.8 168 168 168
31.4 -80.8 34.8 171 173 173
32.2 -80.6 34.7 169 169 169
33.0 -80.8 34.8 173 175 175
33.8 -80.6 34.7 173 175 175
34.5 -80.5 34.6 178 178 178
35.5 -80.8 34.8 181 181 181
36.2 -80.6 34.7 183 183 183
36.9 -80.3 34.6 190 190 190
37.7 -80.5 34.6 190 190 190
38.8 -80.9 34.8 190 190 190
39.6 -81.1 34.9 190 190 190
40.4 -80.9 34.8 194 194 194
41.1 -80.8 34.8 194 194 194
42.0 -80.9 34.8 199 199 199
42.8 -80.9 34.8 194 194 194
43.3 -80.3 34.6 196 196 196
45.4 -81.2 35.0 203 203 203
46.1 -81.1 34.9 205 205 205
47.2 -81.5 35.1 205 205 205
47.7 -80.9 34.8 199 199 199
49.9 -83.2 35.8 199 199 199
50.4 -82.8 35.6 196 196 196
51.6 -83.4 35.9 199 199 199
52.7 -83.7 36.0 199 199 199
52.1 -81.5 35.1 199 199 199
52.7 -81.2 35.0 196 196 196
52.2 -79.2 34.1 196 196 196
52.5 -78.5 33.8 196 196 196
53.3 -78.5 33.8 197 197 197
53.8 -78.1 33.6 200 200 200
55.2 -78.9 34.0 204 204 204
41.6 -26.2 11.3 194 194 194
41.9 -26.2 11.3 197 200 199
41.9 -26.0 11.2 207 207 207
42.1 -26.0 11.2 183 186 185
42.2 -25.9 11.1 212 213 212
15.3 -80.0 34.8 163 163 163
16.0 -79.5 34.6 170 172 172
16.9 -80.0 34.8 170 172 172
17.5 -79.4 34.5 177 177 177
18.4 -79.4 34.5 172 174 174
19.2 -79.7 34.6 169 171 170
20.0 -79.7 34.6 182 182 182
20.8 -79.7 34.6 189 189 189
21.6 -79.7 34.6 189 189 189
22.4 -79.7 34.6 189 189 189
23.3 -79.7 34.6 195 195 195
24.1 -79.8 34.7 192 192 192
24.9 -79.8 34.7 195 195 195
25.7 -79.7 34.6 200 200 200
26.5 -79.8 34.7 197 197 197
27.2 -79.5 34.6 197 197 197
28.0 -79.4 34.5 200 200 200
28.8 -79.5 34.6 200 200 200
29.7 -79.8 34.7 200 200 200
30.6 -80.0 34.8 197 197 197
31.4 -79.8 34.7 197 197 197
32.1 -79.7 34.6 197 197 197
33.0 -79.8 34.7 200 200 200
33.8 -79.8 34.7 206 206 206
34.5 -79.5 34.6 204 204 204
35.3 -79.5 34.6 204 204 204
36.1 -79.7 34.6 204 204 204
36.9 -79.5 34.6 203 203 203
37.7 -79.5 34.6 203 203 203
38.7 -80.0 34.8 203 203 203
39.5 -80.0 34.8 203 203 203
40.4 -80.1 34.8 203 203 203
41.1 -80.0 34.8 203 203 203
41.9 -80.0 34.8 203 203 203
42.7 -80.0 34.8 203 203 203
43.2 -79.4 34.5 206 206 206
45.2 -80.1 34.8 205 205 205
46.0 -80.0 34.8 205 205 205
47.0 -80.4 35.0 203 203 203
47.6 -80.0 34.8 205 205 205
49.8 -82.2 35.8 205 205 205
50.3 -81.8 35.6 203 203 203
50.8 -81.3 35.4 205 205 205
52.1 -81.9 35.6 205 205 205
51.8 -80.3 34.9 205 205 205
52.4 -80.0 34.8 205 205 205
52.1 -78.2 34.0 205 205 205
52.6 -77.8 33.8 205 205 205
53.5 -78.0 33.9 206 206 206
53.9 -77.4 33.7 206 206 206
55.4 -78.4 34.1 204 204 204
16.9 -79.2 34.8 202 202 202
17.5 -78.6 34.5 202 202 202
18.4 -78.6 34.5 202 202 202
19.2 -78.7 34.6 204 204 204
20.0 -78.9 34.6 204 204 204
20.8 -78.9 34.6 197 197 197
21.6 -78.9 34.6 200 200 200
22.4 -78.9 34.6 200 200 200
24.1 -79.2 34.8 204 204 204
25.0 -79.2 34.8 204 204 204
25.6 -78.7 34.6 204 204 204
26.5 -79.0 34.7 204 204 204
27.3 -78.9 34.6 204 204 204
28.0 -78.7 34.6 207 207 207
30.6 -79.2 34.8 204 204 204
31.4 -79.2 34.8 204 204 204
32.1 -78.9 34.6 204 204 204
33.0 -79.2 34.8 206 206 206
33.8 -79.0 34.7 206 206 206
34.5 -78.7 34.6 206 206 206
35.3 -78.7 34.6 204 204 204
36.1 -78.9 34.6 206 206 206
36.9 -78.9 34.6 206 206 206
37.7 -78.7 34.6 206 206 206
38.8 -79.3 34.8 206 206 206
39.6 -79.5 34.9 206 206 206
40.6 -79.7 35.0 206 206 206
41.2 -79.3 34.8 206 206 206
42.0 -79.3 34.8 203 203 203
42.8 -79.3 34.8 203 203 203
43.3 -78.7 34.6 203 203 203
45.6 -79.9 35.1 205 205 205
46.1 -79.5 34.9 205 205 205
47.1 -79.7 35.0 205 205 205
47.7 -79.3 34.8 205 205 205
49.9 -81.6 35.8 205 205 205
50.7 -81.6 35.8 205 205 205
51.3 -81.3 35.7 205 205 205
52.2 -81.3 35.7 205 205 205
51.7 -79.3 34.8 203 203 203
52.3 -79.0 34.7 203 203 203
51.9 -77.2 33.9 205 205 205
52.5 -76.9 33.8 205 205 205
53.4 -77.0 33.8 206 206 206
53.6 -76.2 33.5 206 206 206
55.2 -77.3 34.0 204 204 204
57.3 -79.2 34.8 206 206 206
17.2 -76.4 33.9 208 208 208
18.0 -76.4 33.9 207 207 207
18.8 -76.5 34.0 207 207 207
19.6 -76.5 34.0 207 207 207
20.4 -76.5 34.0 207 207 207
21.2 -76.5 34.0 207 207 207
22.0 -76.5 34.0 204 204 204
24.5 -77.1 34.2 207 207 207
25.1 -76.4 33.9 207 207 207
25.9 -76.5 34.0 207 207 207
26.6 -76.1 33.8 207 207 207
27.4 -76.3 33.8 207 207 207
30.3 -77.5 34.4 206 206 206
30.9 -76.9 34.1 206 206 206
31.4 -76.4 33.9 206 206 206
33.1 -76.7 34.0 206 206 206
33.7 -76.3 33.8 206 206 206
34.6 -76.4 33.9 206 206 206
35.6 -76.9 34.1 206 206 206
36.3 -76.8 34.1 206 206 206
37.1 -76.7 34.0 206 206 206
38.3 -77.5 34.4 206 206 206
38.8 -76.9 34.1 206 206 206
39.7 -77.1 34.2 206 206 206
40.2 -76.7 34.0 206 206 206
41.5 -77.5 34.4 206 206 206
42.5 -77.9 34.6 206 206 206
42.5 -76.5 34.0 206 206 206
44.7 -77.6 34.5 205 205 205
45.5 -77.6 34.5 205 205 205
46.4 -77.8 34.5 208 208 208
47.1 -77.5 34.4 205 205 205
48.9 -79.2 35.2 205 205 205
49.7 -79.2 35.2 205 205 205
50.5 -79.1 35.1 208 208 208
51.3 -79.1 35.1 205 205 205
51.1 -77.5 34.4 205 205 205
51.7 -77.2 34.3 205 205 205
51.5 -75.8 33.7 205 205 205
51.9 -75.3 33.4 205 205 205
53.0 -75.7 33.6 206 206 206
52.8 -74.3 33.0 206 206 206
54.4 -75.4 33.5 206 206 206
56.6 -77.4 34.3 206 206 206
57.8 -77.9 34.6 207 207 207
17.1 -75.2 33.7 200 200 200
19.5 -75.1 33.7 207 207 207
26.2 -74.1 33.2 206 206 206
26.7 -73.5 33.0 206 206 206
39.2 -75.3 33.8 208 208 208
44.5 -75.1 33.7 208 208 208
45.4 -75.2 33.7 208 208 208
46.2 -75.3 33.8 208 208 208
48.5 -77.7 34.8 208 208 208
49.2 -77.5 34.8 208 208 208
50.1 -77.7 34.8 208 208 208
51.2 -78.1 35.0 208 208 208
50.5 -75.9 34.0 208 208 208
50.7 -74.9 33.6 205 205 205
51.3 -74.7 33.5 208 208 208
51.0 -73.2 32.8 208 208 208
49.5 -70.0 31.4 208 208 208
52.3 -72.9 32.7 205 205 205
53.5 -73.5 33.0 206 206 206
55.8 -75.6 33.9 206 206 206
56.4 -75.3 33.8 206 206 206
16.8 -73.0 33.1 206 206 206
38.3 -73.0 33.1 207 207 207
39.1 -73.0 33.1 207 207 207
43.6 -72.9 33.0 207 207 207
44.0 -72.2 32.7 207 207 207
45.1 -72.7 33.0 207 207 207
48.1 -76.3 34.6 207 207 207
49.9 -76.6 34.7 207 207 207
51.0 -77.0 34.9 207 207 207
50.1 -74.5 33.8 207 207 207
49.6 -72.6 32.9 207 207 207
50.6 -73.0 33.1 207 207 207
51.0 -72.3 32.8 207 207 207
48.8 -68.3 31.0 207 207 207
52.4 -72.2 32.7 205 205 205
53.3 -72.5 32.8 208 208 208
55.4 -74.3 33.7 205 205 205
55.9 -73.9 33.5 206 206 206
56.2 -73.2 33.2 206 206 206
16.8 -72.1 33.0 206 206 206
38.4 -72.3 33.1 207 207 207
39.1 -72.2 33.1 207 207 207
41.5 -73.8 33.8 207 207 207
41.8 -72.8 33.4 207 207 207
43.2 -72.6 33.2 207 207 207
43.8 -72.3 33.1 207 207 207
44.2 -71.7 32.8 207 207 207
45.7 -73.0 33.4 206 206 206
48.2 -75.7 34.6 206 206 206
48.6 -75.0 34.3 206 206 206
50.0 -75.9 34.8 206 206 206
51.4 -76.8 35.2 206 206 206
50.1 -73.8 33.8 206 206 206
49.9 -72.2 33.1 206 206 206
50.7 -72.3 33.1 206 206 206
51.0 -71.6 32.8 207 207 207
48.9 -67.7 31.0 207 207 207
52.6 -71.7 32.8 207 207 207
53.7 -72.2 33.1 207 207 207
55.4 -73.5 33.7 207 207 207
56.0 -73.2 33.5 208 208 208
56.5 -72.8 33.4 205 205 205
-25.4 -22.2 10.3 42 43 42
-20.3 -22.2 10.3 95 98 97
-19.9 -22.0 10.2 102 102 102
-19.7 -22.0 10.2 104 104 104
-19.4 -22.0 10.2 106 106 106
-19.1 -21.9 10.1 108 108 108
-18.5 -22.0 10.2 108 110 110
-18.4 -22.2 10.3 108 110 110
-18.0 -22.0 10.2 107 109 109
-17.7 -21.9 10.1 110 112 111
-17.7 -22.2 10.3 109 111 111
-17.4 -22.2 10.3 113 114 113
-17.0 -21.9 10.1 113 114 113
-16.8 -22.0 10.2 112 112 112
-16.4 -22.0 10.2 116 116 116
-16.1 -21.9 10.1 118 118 118
-16.0 -22.2 10.3 118 118 118
-15.6 -22.3 10.3 119 121 120
-15.3 -22.2 10.3 121 123 122
-14.9 -21.9 10.1 120 122 121
-14.6 -21.9 10.1 124 124 124
-14.5 -22.0 10.2 126 126 126
-14.2 -21.9 10.1 126 126 126
-9.3 -22.0 10.2 135 135 135
-2.6 -21.9 10.2 166 166 166
6.4 -22.2 10.3 207 207 207
6.6 -22.0 10.2 207 207 207
6.8 -21.8 10.1 207 207 207
7.0 -21.9 10.1 207 207 207
7.6 -22.2 10.3 207 207 207
7.8 -22.2 10.3 207 207 207
8.1 -22.2 10.3 207 207 207
10.3 -22.2 10.3 206 206 206
10.4 -21.9 10.2 206 206 206
38.5 -71.7 33.2 206 206 206
41.4 -72.7 33.7 206 206 206
41.8 -72.2 33.4 206 206 206
44.0 -71.9 33.3 206 206 206
44.2 -70.9 32.8 209 209 209
45.9 -72.5 33.5 206 206 206
47.5 -73.8 34.1 206 206 206
47.9 -73.1 33.8 206 206 206
49.6 -74.6 34.5 206 206 206
50.1 -73.0 33.8 206 206 206
50.2 -71.9 33.3 206 206 206
50.6 -71.4 33.1 206 206 206
50.8 -70.6 32.7 206 206 206
49.2 -67.3 31.2 206 206 206
52.7 -71.1 32.9 206 206 206
53.8 -71.6 33.1 207 207 207
55.3 -72.6 33.6 207 207 207
56.0 -72.5 33.5 207 207 207
56.6 -72.2 33.4 207 207 207
-20.6 -22.7 10.6 92 92 92
-20.3 -22.7 10.6 96 99 98
-19.3 -22.7 10.6 107 107 107
-19.0 -22.7 10.6 108 108 108
-18.8 -22.7 10.6 108 108 108
-17.9 -22.5 10.5 108 110 110
-14.9 -22.4 10.5 120 122 121
-9.7 -22.7 10.6 134 134 134
-9.4 -22.6 10.6 137 137 137
5.7 -22.8 10.7 206 206 206
6.3 -22.4 10.5 206 206 206
6.5 -22.2 10.4 206 206 206
6.9 -22.9 10.7 206 206 206
7.2 -22.8 10.7 206 206 206
7.6 -22.7 10.6 206 206 206
7.9 -22.7 10.6 206 206 206
8.1 -22.7 10.6 206 206 206
10.4 -22.7 10.6 206 206 206
10.6 -22.7 10.6 206 206 206
41.4 -72.1 33.7 205 205 205
41.8 -71.3 33.4 205 205 205
44.2 -71.4 33.4 208 208 208
44.2 -70.2 32.8 210 210 210
46.1 -71.9 33.7 208 208 208
48.1 -73.9 34.6 205 205 205
48.2 -72.8 34.1 205 205 205
51.0 -75.8 35.5 202 202 202
52.0 -76.0 35.6 205 205 205
50.6 -72.8 34.1 205 205 205
50.4 -71.4 33.4 205 205 205
50.6 -70.7 33.1 205 205 205
50.7 -69.7 32.6 205 205 205
49.5 -67.0 31.4 205 205 205
52.8 -70.6 33.0 206 206 206
53.8 -70.8 33.1 206 206 206
55.5 -72.1 33.7 206 206 206
56.1 -71.8 33.6 206 206 206
56.6 -71.4 33.4 207 207 207
57.1 -71.0 33.2 207 207 207
-21.5 -23.2 11.0 66 68 67
-21.2 -23.1 10.9 89 91 90
-21.1 -23.3 11.0 89 91 90
-20.8 -23.4 11.0 96 96 96
-20.5 -23.3 11.0 98 100 100
-20.3 -23.3 11.0 98 100 100
-19.9 -23.2 11.0 98 100 100
-19.7 -23.3 11.0 100 102 102
-19.5 -23.3 11.0 104 104 104
-19.1 -23.1 10.9 106 106 106
-18.9 -23.2 11.0 105 105 105
-18.7 -23.3 11.0 105 105 105
-18.2 -23.3 11.0 107 107 107
-17.9 -23.2 11.0 109 109 109
-17.4 -23.2 11.0 109 111 111
-9.7 -22.6 10.7 131 134 133
-9.4 -22.5 10.7 133 133 133
-9.5 -23.3 11.0 135 135 135
-9.3 -23.3 11.0 138 137 136
-7.4 -23.3 11.0 147 147 147
6.2 -22.7 10.7 206 206 206
6.5 -22.7 10.7 206 206 206
6.9 -23.4 11.1 206 206 206
7.1 -23.2 11.0 206 206 206
7.4 -23.3 11.0 206 206 206
7.6 -23.3 11.0 206 206 206
7.9 -23.1 10.9 206 206 206
8.1 -23.1 10.9 205 205 205
8.4 -23.1 10.9 205 205 205
8.7 -23.3 11.0 205 205 205
8.9 -23.3 11.0 205 205 205
9.2 -23.3 11.0 205 205 205
9.7 -23.3 11.0 205 205 205
9.9 -23.3 11.0 205 205 205
10.2 -23.3 11.0 205 205 205
10.5 -23.4 11.0 205 205 205
10.7 -23.2 11.0 205 205 205
11.0 -23.3 11.0 205 205 205
11.2 -23.2 11.0 205 205 205
11.5 -23.3 11.0 205 205 205
38.7 -67.9 32.1 208 208 208
41.2 -69.5 32.9 205 205 205
41.0 -67.9 32.1 205 205 205
43.6 -69.8 33.0 208 208 208
43.6 -68.6 32.4 208 208 208
45.3 -69.9 33.1 208 208 208
48.0 -72.8 34.5 208 208 208
48.6 -72.6 34.3 205 205 205
50.1 -73.6 34.8 208 208 208
50.9 -73.6 34.8 208 208 208
50.9 -72.4 34.3 207 207 207
50.3 -70.5 33.4 207 207 207
50.3 -69.4 32.8 204 204 204
50.2 -68.2 32.3 205 205 205
49.9 -66.9 31.6 205 205 205
52.4 -69.2 32.7 205 205 205
53.4 -69.5 32.9 205 205 205
55.2 -70.8 33.5 205 205 205
55.2 -69.9 33.1 206 206 206
55.6 -69.4 32.8 206 206 206
56.1 -69.1 32.7 206 206 206
-28.0 -23.5 11.2 48 47 46
-27.8 -23.5 11.3 45 45 45
-27.5 -23.5 11.2 45 45 45
-27.2 -23.5 11.2 45 45 45
-26.9 -23.5 11.2 45 45 45
-26.7 -23.5 11.2 45 45 45
-26.6 -23.7 11.3 45 45 45
-26.2 -23.5 11.3 42 43 42
-25.7 -23.5 11.3 45 45 45
-25.4 -23.5 11.2 42 43 42
-22.2 -23.5 11.2 45 45 45
-22.0 -23.5 11.2 45 45 45
-21.7 -23.5 11.2 45 45 45
-21.4 -23.4 11.2 56 56 56
-21.2 -23.5 11.2 79 78 77
-20.9 -23.5 11.2 91 93 92
-20.9 -23.8 11.4 91 93 92
-20.6 -23.7 11.3 95 95 95
-20.1 -23.5 11.2 95 95 95
-19.9 -23.5 11.2 99 99 99
-19.6 -23.5 11.2 99 101 101
-19.4 -23.5 11.2 99 101 101
-19.1 -23.5 11.2 99 101 101
-18.9 -23.5 11.2 101 103 103
-18.6 -23.5 11.2 105 105 105
-18.3 -23.5 11.3 101 103 103
-18.0 -23.4 11.2 105 105 105
-17.8 -23.4 11.2 107 107 107
-17.5 -23.5 11.2 107 107 107
-9.9 -23.3 11.1 124 124 124
-9.6 -23.3 11.1 128 131 130
-9.4 -23.3 11.1 131 131 131
-9.1 -23.3 11.2 132 135 134
-8.8 -23.3 11.1 138 138 138
-7.9 -23.6 11.3 152 152 152
-3.7 -23.6 11.3 189 189 189
-1.6 -23.6 11.3 184 184 184
0.2 -23.6 11.3 183 183 183
6.3 -23.7 11.3 205 205 205
6.5 -23.5 11.2 205 205 205
6.8 -23.6 11.3 205 205 205
7.0 -23.5 11.2 205 205 205
7.2 -23.4 11.2 205 205 205
7.5 -23.4 11.2 203 203 203
7.8 -23.5 11.2 205 205 205
8.1 -23.5 11.2 205 205 205
8.3 -23.5 11.2 205 205 205
8.6 -23.5 11.2 205 205 205
8.8 -23.5 11.2 208 208 208
9.1 -23.5 11.2 205 205 205
9.4 -23.5 11.2 205 205 205
9.6 -23.5 11.2 205 205 205
9.9 -23.5 11.2 205 205 205
10.3 -23.7 11.4 205 205 205
10.5 -23.6 11.3 205 205 205
10.7 -23.5 11.2 205 205 205
11.0 -23.5 11.3 205 205 205
11.2 -23.5 11.2 205 205 205
11.5 -23.5 11.2 205 205 205
11.7 -23.5 11.3 204 204 204
12.1 -23.7 11.3 204 204 204
12.3 -23.5 11.3 202 202 202
12.5 -23.5 11.2 204 204 204
12.9 -23.7 11.3 207 207 207
40.8 -68.1 32.6 204 204 204
40.8 -66.8 32.0 204 204 204
43.3 -68.5 32.8 207 207 207
43.3 -67.3 32.2 207 207 207
44.1 -67.4 32.2 207 207 207
47.8 -71.8 34.3 207 207 207
50.8 -72.7 34.8 207 207 207
50.5 -71.1 34.0 207 207 207
50.1 -69.5 33.2 207 207 207
50.2 -68.5 32.8 209 209 209
50.0 -67.3 32.2 207 207 207
49.4 -65.5 31.3 207 207 207
51.9 -67.8 32.4 207 207 207
53.2 -68.4 32.7 205 205 205
54.1 -68.7 32.8 205 205 205
54.7 -68.4 32.7 205 205 205
55.2 -68.2 32.6 205 205 205
55.4 -67.5 32.3 205 205 205
-27.5 -23.5 11.4 46 46 46
-27.2 -23.5 11.4 46 46 46
-27.0 -23.5 11.4 46 46 46
-26.7 -23.5 11.4 46 46 46
-26.5 -23.5 11.4 43 43 43
-26.2 -23.5 11.4 43 43 43
-25.9 -23.5 11.4 43 43 43
-19.9 -23.5 11.4 95 95 95
-19.6 -23.5 11.4 97 97 97
-10.0 -23.3 11.3 103 105 105
-9.7 -23.2 11.2 111 111 111
-9.5 -23.3 11.3 105 105 105
-9.3 -23.6 11.4 117 119 118
-8.2 -23.5 11.4 164 164 164
-7.9 -23.4 11.3 164 167 166
-7.4 -23.5 11.4 169 169 169
-7.2 -23.5 11.4 173 175 175
-6.9 -23.5 11.4 182 182 182
-6.1 -23.5 11.4 188 188 188
-5.8 -23.5 11.4 194 194 194
-5.6 -23.5 11.4 193 193 193
-5.3 -23.5 11.4 192 192 192
-5.0 -23.5 11.4 191 191 191
-4.8 -23.5 11.4 191 191 191
-4.5 -23.6 11.4 192 192 192
-4.3 -23.5 11.4 191 191 191
-4.0 -23.5 11.4 190 190 190
-3.7 -23.5 11.4 189 189 189
-1.9 -23.6 11.4 186 186 186
-1.6 -23.5 11.4 186 186 186
-1.1 -23.6 11.4 186 186 186
-0.8 -23.5 11.4 185 185 185
0.2 -23.5 11.4 185 185 185
0.5 -23.5 11.4 185 185 185
0.8 -23.5 11.4 185 185 185
1.0 -23.5 11.4 185 185 185
1.3 -23.5 11.4 185 185 185
1.6 -23.5 11.4 185 185 185
1.8 -23.5 11.4 185 185 185
2.1 -23.5 11.4 185 185 185
2.3 -23.5 11.4 185 185 185
2.6 -23.5 11.4 184 184 184
2.9 -23.5 11.4 184 184 184
3.1 -23.5 11.4 184 184 184
3.4 -23.5 11.4 181 181 181
3.7 -23.6 11.4 181 181 181
3.9 -23.5 11.4 181 181 181
6.1 -23.7 11.5 205 205 205
6.3 -23.5 11.4 205 205 205
6.6 -23.5 11.4 205 205 205
6.8 -23.5 11.4 208 208 208
7.1 -23.5 11.4 207 207 207
7.3 -23.4 11.3 204 204 204
7.6 -23.5 11.4 204 204 204
7.9 -23.5 11.4 207 207 207
8.2 -23.5 11.4 207 207 207
8.4 -23.5 11.4 207 207 207
8.7 -23.5 11.4 207 207 207
9.0 -23.5 11.4 207 207 207
9.2 -23.5 11.4 204 204 204
9.5 -23.5 11.4 204 204 204
9.7 -23.5 11.4 204 204 204
10.0 -23.5 11.4 204 204 204
10.3 -23.5 11.4 204 204 204
10.6 -23.6 11.4 204 204 204
10.8 -23.5 11.4 204 204 204
11.1 -23.5 11.4 204 204 204
11.3 -23.5 11.4 204 204 204
11.6 -23.5 11.4 204 204 204
11.9 -23.5 11.4 204 204 204
12.1 -23.5 11.4 204 204 204
12.4 -23.5 11.4 204 204 204
12.6 -23.5 11.4 207 207 207
12.9 -23.5 11.4 207 207 207
13.2 -23.5 11.4 207 207 207
13.5 -23.6 11.4 207 207 207
13.7 -23.6 11.4 207 207 207
14.0 -23.5 11.4 207 207 207
41.6 -68.6 33.2 207 207 207
41.7 -67.7 32.7 207 207 207
44.6 -69.7 33.7 206 206 206
44.2 -67.9 32.8 206 206 206
45.9 -69.3 33.5 206 206 206
47.5 -70.6 34.1 206 206 206
47.9 -70.0 33.8 206 206 206
51.5 -74.1 35.8 206 206 206
52.4 -74.1 35.8 206 206 206
50.6 -70.5 34.1 206 206 206
50.9 -69.8 33.8 206 206 206
51.0 -68.9 33.3 206 206 206
50.9 -67.7 32.7 206 206 206
50.5 -66.2 32.0 207 207 207
52.6 -67.9 32.8 207 207 207
53.4 -68.0 32.9 204 204 204
55.3 -69.3 33.5 207 207 207
55.7 -69.0 33.4 207 207 207
56.0 -68.4 33.1 205 205 205
56.7 -68.3 33.0 205 205 205
57.5 -68.3 33.0 205 205 205
-37.4 -27.9 13.6 51 51 51
-37.1 -27.9 13.6 53 53 53
-36.8 -27.9 13.6 51 51 51
-36.5 -27.9 13.6 53 53 53
-36.2 -27.9 13.6 56 56 56
-35.9 -27.9 13.6 53 53 53
-35.6 -27.9 13.6 53 53 53
-34.9 -27.9 13.6 53 53 53
-34.5 -27.8 13.6 51 51 51
-26.5 -23.5 11.5 44 44 44
-26.3 -27.8 13.6 38 38 38
-24.5 -27.9 13.7 47 48 47
-20.1 -23.5 11.5 94 97 96
-13.6 -27.8 13.6 91 91 91
-13.3 -27.7 13.6 73 73 73
-10.7 -23.4 11.5 64 63 61
-9.8 -23.3 11.4 23 23 23
-9.7 -23.5 11.5 18 22 19
-9.4 -23.5 11.5 33 33 33
-9.1 -23.4 11.5 107 107 107
-8.3 -23.4 11.5 176 176 176
-8.0 -23.4 11.4 175 175 175
-7.8 -23.5 11.5 175 177 177
-7.5 -23.5 11.5 198 198 198
-7.3 -23.5 11.5 199 199 199
-7.0 -23.5 11.5 207 207 207
-6.7 -23.5 11.5 207 207 207
-6.4 -23.5 11.5 204 204 204
-6.2 -23.5 11.5 203 203 203
-5.9 -23.5 11.5 205 205 205
-5.6 -23.5 11.5 202 202 202
-5.4 -23.5 11.5 200 200 200
-5.1 -23.5 11.5 199 199 199
-4.9 -23.5 11.5 199 199 199
-4.6 -23.5 11.5 198 198 198
-4.3 -23.5 11.5 197 197 197
-4.0 -23.5 11.5 195 195 195
-3.8 -23.4 11.5 191 191 191
-1.9 -23.5 11.5 191 191 191
-1.6 -23.5 11.5 191 191 191
-1.4 -23.5 11.5 191 191 191
-0.0 -23.7 11.6 188 188 188
0.2 -23.5 11.5 188 188 188
0.5 -23.5 11.5 184 184 184
0.8 -23.5 11.5 184 184 184
1.0 -23.5 11.5 184 184 184
1.3 -23.5 11.5 184 184 184
1.6 -23.5 11.5 184 184 184
1.8 -23.5 11.5 184 184 184
2.1 -23.5 11.5 184 184 184
2.4 -23.5 11.5 184 184 184
2.6 -23.5 11.5 184 184 184
2.9 -23.5 11.5 184 184 184
3.2 -23.5 11.5 183 183 183
3.4 -23.5 11.5 183 183 183
3.7 -23.6 11.5 180 180 180
4.0 -23.5 11.5 178 178 178
4.2 -23.4 11.5 180 180 180
4.5 -23.5 11.5 177 177 177
6.1 -23.6 11.5 204 204 204
6.4 -23.5 11.5 204 204 204
6.7 -23.6 11.5 204 204 204
6.9 -23.5 11.5 207 207 207
7.2 -23.5 11.5 207 207 207
7.4 -23.5 11.5 204 204 204
7.7 -23.5 11.5 207 207 207
8.0 -23.5 11.5 207 207 207
8.3 -23.5 11.5 207 207 207
8.5 -23.5 11.5 207 207 207
8.8 -23.5 11.5 207 207 207
9.1 -23.5 11.5 207 207 207
9.3 -23.5 11.5 207 207 207
9.6 -23.5 11.5 204 204 204
9.9 -23.5 11.5 207 207 207
10.1 -23.5 11.5 204 204 204
10.4 -23.6 11.5 203 203 203
10.7 -23.6 11.5 203 203 203
10.9 -23.5 11.5 203 203 203
11.2 -23.5 11.5 203 203 203
11.5 -23.5 11.5 203 203 203
11.7 -23.5 11.5 203 203 203
12.0 -23.5 11.5 203 203 203
12.3 -23.5 11.5 203 203 203
12.5 -23.5 11.5 203 203 203
12.8 -23.5 11.5 206 206 206
13.1 -23.5 11.5 206 206 206
13.3 -23.5 11.5 206 206 206
13.6 -23.5 11.5 206 206 206
13.9 -23.5 11.5 206 206 206
14.1 -23.5 11.5 206 206 206
45.8 -70.8 34.6 206 206 206
45.8 -69.5 34.0 206 206 206
47.6 -71.1 34.8 206 206 206
48.5 -71.2 34.8 206 206 206
49.2 -71.1 34.8 206 206 206
51.9 -73.8 36.1 206 206 206
52.3 -73.1 35.8 206 206 206
51.6 -71.1 34.8 206 206 206
52.1 -70.6 34.5 206 206 206
51.8 -69.2 33.8 206 206 206
51.8 -68.1 33.3 206 206 206
51.9 -67.2 32.9 208 208 208
53.0 -67.7 33.1 206 206 206
53.9 -67.8 33.2 206 206 206
56.6 -70.2 34.3 206 206 206
57.5 -70.3 34.4 207 207 207
57.3 -69.2 33.8 207 207 207
58.4 -69.5 34.0 207 207 207
58.9 -69.2 33.8 204 204 204
141.0 -75.7 37.0 107 107 107
-37.3 -27.4 13.6 52 52 52
-36.9 -27.4 13.6 53 53 53
-36.4 -27.5 13.6 54 54 54
-36.0 -27.5 13.6 56 56 56
-35.7 -27.4 13.6 56 56 56
-34.8 -27.4 13.6 54 54 54
-34.4 -27.4 13.6 52 52 52
-33.8 -27.5 13.6 51 50 48
-33.6 -27.5 13.6 51 50 48
-26.9 -23.4 11.6 47 48 47
-26.6 -23.3 11.5 47 48 47
-26.3 -23.3 11.5 45 45 45
-23.7 -23.4 11.6 46 46 46
-26.2 -27.4 13.6 42 42 42
-25.8 -27.3 13.5 40 40 40
-21.8 -23.3 11.5 42 42 42
-25.2 -27.4 13.6 40 40 40
-24.9 -27.4 13.6 40 40 40
-24.6 -27.4 13.6 44 44 44
-24.4 -27.5 13.6 47 47 47
-20.5 -23.4 11.6 47 47 47
-20.2 -23.3 11.5 49 49 49
-19.9 -23.3 11.5 60 62 60
-19.7 -23.4 11.6 88 90 89
-19.4 -23.4 11.6 88 90 89
-13.6 -27.5 13.6 29 31 29
-13.2 -27.3 13.5 24 24 24
-12.9 -27.3 13.5 26 26 26
-12.7 -27.4 13.6 27 27 27
-10.2 -23.2 11.5 27 29 27
-9.9 -23.3 11.5 27 29 27
-9.7 -23.4 11.6 31 31 31
-9.4 -23.4 11.6 34 34 34
-4.6 -23.4 11.6 203 203 203
-4.3 -23.4 11.6 202 202 202
-4.1 -23.3 11.5 200 200 200
-1.9 -23.4 11.6 195 195 195
-1.6 -23.3 11.5 198 198 198
8.8 -27.4 13.6 206 206 206
9.1 -27.4 13.6 206 206 206
9.4 -27.4 13.6 206 206 206
9.7 -27.4 13.6 206 206 206
10.7 -27.4 13.6 206 206 206
11.0 -27.5 13.6 206 206 206
11.3 -27.5 13.6 203 203 203
11.6 -27.5 13.6 206 206 206
12.0 -27.5 13.6 203 203 203
12.3 -27.5 13.6 203 203 203
12.6 -27.5 13.6 203 203 203
12.9 -27.4 13.6 203 203 203
13.2 -27.4 13.5 203 203 203
11.8 -23.4 11.6 203 203 203
12.1 -23.4 11.6 206 206 206
12.3 -23.3 11.5 203 203 203
14.8 -27.5 13.6 203 203 203
15.1 -27.4 13.6 206 206 206
16.1 -27.5 13.6 205 205 205
16.7 -27.4 13.6 205 205 205
46.7 -71.5 35.4 205 205 205
47.0 -70.7 35.0 205 205 205
48.1 -71.1 35.2 205 205 205
49.1 -71.3 35.3 205 205 205
49.7 -70.9 35.1 205 205 205
52.6 -73.9 36.6 205 205 205
52.7 -72.8 36.0 205 205 205
52.1 -70.9 35.1 205 205 205
52.6 -70.5 34.9 205 205 205
52.9 -69.9 34.6 205 205 205
53.7 -69.8 34.5 205 205 205
54.0 -69.1 34.2 205 205 205
54.1 -68.3 33.8 205 205 205
54.7 -68.0 33.7 206 206 206
57.4 -70.4 34.8 206 206 206
58.4 -70.7 35.0 206 206 206
58.9 -70.3 34.8 206 206 206
59.9 -70.5 34.9 206 206 206
60.5 -70.3 34.8 206 206 206
62.7 -71.9 35.6 207 207 207
135.2 -71.7 35.5 107 107 107
-31.0 -23.8 11.9 59 60 58
-30.5 -23.6 11.8 57 57 57
-29.2 -23.4 11.7 55 55 55
-29.2 -23.6 11.8 51 51 49
-28.6 -23.6 11.8 51 51 49
-27.2 -23.6 11.8 48 48 48
-25.4 -23.7 11.9 48 48 48
-22.0 -23.6 11.8 41 41 41
-21.7 -23.5 11.8 41 41 41
-21.3 -23.4 11.7 42 42 42
-20.9 -23.3 11.7 40 39 38
-20.6 -23.3 11.7 41 40 38
-20.4 -23.4 11.7 46 46 46
-20.2 -23.4 11.7 48 48 48
-19.9 -23.4 11.7 50 50 50
-19.6 -23.4 11.7 48 48 48
-19.6 -23.6 11.8 67 68 66
-19.1 -23.4 11.7 90 92 91
-10.7 -22.9 11.5 27 27 27
-10.4 -22.9 11.5 27 27 27
-10.4 -23.3 11.7 29 30 28
-10.0 -23.2 11.6 30 29 28
-9.8 -23.2 11.6 33 33 33
-9.5 -23.1 11.6 35 35 35
-9.1 -22.9 11.5 142 144 143
7.9 -23.7 11.8 206 206 206
8.2 -23.5 11.7 206 206 206
8.5 -23.7 11.9 206 206 206
8.8 -23.6 11.8 206 206 206
8.9 -23.4 11.7 206 206 206
9.3 -23.6 11.8 205 205 205
9.5 -23.4 11.7 202 202 202
9.8 -23.6 11.8 205 205 205
10.2 -23.7 11.9 205 205 205
10.5 -23.8 11.9 207 207 207
10.8 -23.8 11.9 205 205 205
10.9 -23.5 11.7 202 202 202
11.1 -23.4 11.7 202 202 202
11.5 -23.5 11.8 202 202 202
11.7 -23.5 11.8 202 202 202
12.0 -23.4 11.7 205 205 205
12.2 -23.5 11.7 205 205 205
12.5 -23.4 11.7 205 205 205
12.8 -23.4 11.7 205 205 205
13.1 -23.6 11.8 205 205 205
13.4 -23.6 11.8 205 205 205
13.7 -23.6 11.8 205 205 205
13.9 -23.4 11.7 205 205 205
14.1 -23.4 11.7 205 205 205
14.5 -23.6 11.8 205 205 205
14.7 -23.5 11.7 205 205 205
47.1 -71.2 35.6 205 205 205
48.1 -71.4 35.8 205 205 205
49.6 -72.4 36.2 205 205 205
49.6 -71.2 35.6 205 205 205
50.3 -71.0 35.6 204 204 204
53.6 -74.4 37.2 204 204 204
53.6 -73.2 36.7 204 204 204
52.7 -70.9 35.5 204 204 204
53.0 -70.2 35.2 204 204 204
53.0 -69.2 34.6 204 204 204
53.8 -69.1 34.6 204 204 204
53.5 -66.8 33.4 205 205 205
53.9 -66.3 33.2 205 205 205
57.6 -69.8 35.0 205 205 205
59.2 -70.8 35.4 205 205 205
59.6 -70.2 35.2 205 205 205
60.6 -70.5 35.3 206 206 206
64.2 -72.7 36.4 206 206 206
132.2 -69.3 34.7 110 110 110
127.9 -66.6 33.4 107 107 107
-30.7 -23.4 11.9 58 58 58
-28.9 -23.4 11.8 53 53 53
-27.3 -23.4 11.8 49 49 49
-27.0 -23.3 11.8 49 49 49
-25.1 -23.4 11.8 47 47 47
-23.9 -23.8 12.1 46 46 46
-22.3 -23.6 12.0 42 42 42
-21.8 -23.4 11.8 42 42 42
-21.5 -23.4 11.8 41 40 38
-21.2 -23.4 11.8 41 41 39
-20.9 -23.3 11.8 39 39 39
-20.7 -23.4 11.8 41 41 39
-20.4 -23.4 11.9 41 41 39
-20.1 -23.4 11.8 43 43 43
-19.8 -23.4 11.8 43 43 43
-19.3 -23.3 11.8 44 44 44
-10.6 -22.4 11.4 29 31 29
-10.4 -22.5 11.4 29 30 28
-10.5 -23.4 11.8 29 30 28
-10.1 -23.1 11.7 31 31 31
-9.9 -23.3 11.8 34 34 34
-9.0 -22.4 11.4 152 154 154
8.5 -23.4 11.9 205 205 205
8.8 -23.4 11.8 205 205 205
9.1 -23.4 11.9 205 205 205
9.3 -23.4 11.8 205 205 205
9.6 -23.4 11.8 205 205 205
10.1 -23.9 12.1 205 205 205
10.4 -23.9 12.1 205 205 205
10.6 -23.8 12.1 205 205 205
10.8 -23.5 11.9 205 205 205
11.0 -23.4 11.8 205 205 205
11.2 -23.3 11.8 202 202 202
11.5 -23.4 11.8 202 202 202
11.8 -23.4 11.8 202 202 202
12.1 -23.4 11.9 202 202 202
12.4 -23.4 11.9 204 204 204
12.6 -23.4 11.8 204 204 204
13.2 -24.0 12.1 204 204 204
13.5 -24.0 12.1 204 204 204
13.8 -24.0 12.1 204 204 204
13.8 -23.6 11.9 204 204 204
14.0 -23.4 11.9 204 204 204
14.3 -23.3 11.8 204 204 204
14.6 -23.4 11.8 204 204 204
14.9 -23.4 11.9 204 204 204
50.9 -77.3 39.2 204 204 204
50.1 -72.2 36.6 204 204 204
49.7 -70.5 35.7 204 204 204
54.4 -74.7 37.8 204 204 204
54.0 -72.9 36.9 204 204 204
53.1 -70.6 35.8 204 204 204
53.2 -69.7 35.3 204 204 204
53.2 -68.7 34.8 204 204 204
58.5 -73.2 37.1 204 204 204
53.4 -65.9 33.4 204 204 204
53.7 -65.3 33.1 204 204 204
57.8 -69.3 35.1 204 204 204
61.9 -71.1 36.0 205 205 205
88.0 -97.3 49.3 205 205 205
131.5 -68.2 34.5 111 113 112
125.4 -64.6 32.7 107 107 107
-35.1 -24.3 12.5 58 58 58
-34.8 -24.3 12.5 58 58 58
-34.5 -24.3 12.5 60 62 60
-34.2 -24.3 12.5 58 58 58
-33.9 -24.3 12.5 58 58 58
-33.7 -24.3 12.5 58 59 59
-33.4 -24.3 12.5 56 56 56
-33.0 -24.3 12.4 58 59 59
-32.7 -24.3 12.4 58 59 59
-32.4 -24.3 12.4 56 56 56
-32.2 -24.3 12.5 58 59 59
-31.9 -24.3 12.5 58 59 59
-31.6 -24.3 12.5 56 56 56
-31.3 -24.3 12.4 58 59 59
-31.0 -24.3 12.5 57 57 57
-30.7 -24.3 12.4 54 54 54
-30.4 -24.3 12.4 53 52 51
-30.1 -24.3 12.4 53 52 51
-26.9 -24.3 12.4 50 50 50
-26.6 -24.3 12.4 50 50 50
-26.4 -24.3 12.5 50 50 50
-26.1 -24.3 12.5 48 48 48
-25.8 -24.3 12.5 48 48 48
-25.5 -24.3 12.5 48 48 48
-25.2 -24.3 12.4 48 48 48
-24.4 -23.8 12.2 48 48 48
-24.1 -23.8 12.2 47 47 47
-24.4 -24.3 12.5 44 44 44
-23.7 -24.0 12.3 44 44 44
-23.5 -24.0 12.3 47 47 47
-23.4 -24.2 12.4 42 43 42
-22.7 -23.8 12.2 42 43 42
-23.0 -24.4 12.5 43 43 43
-22.7 -24.4 12.5 41 41 39
-22.4 -24.4 12.5 42 42 40
-22.1 -24.3 12.5 42 42 40
-21.3 -23.8 12.2 40 40 40
-21.0 -23.8 12.2 40 40 40
-21.2 -24.3 12.4 40 40 40
-20.9 -24.3 12.5 41 41 41
-20.7 -24.4 12.5 41 41 41
-20.4 -24.4 12.5 41 41 41
-10.8 -23.7 12.1 31 30 29
-10.5 -23.7 12.1 32 32 32
-10.4 -24.2 12.4 34 34 34
-9.5 -24.0 12.3 183 183 183
6.2 -23.9 12.2 204 204 204
7.9 -23.8 12.2 205 205 205
8.2 -23.8 12.2 205 205 205
8.5 -23.8 12.2 204 204 204
8.7 -23.8 12.2 204 204 204
9.0 -23.7 12.2 204 204 204
9.3 -23.7 12.2 204 204 204
9.6 -23.7 12.2 204 204 204
9.9 -23.8 12.2 204 204 204
10.2 -23.8 12.2 204 204 204
10.5 -23.8 12.2 204 204 204
10.8 -23.8 12.2 204 204 204
11.0 -23.8 12.2 204 204 204
11.3 -23.8 12.2 204 204 204
11.6 -23.8 12.2 200 200 200
11.9 -23.8 12.2 200 200 200
12.2 -23.8 12.2 197 197 197
12.4 -23.8 12.2 204 204 204
12.7 -23.8 12.2 204 204 204
13.0 -23.7 12.2 204 204 204
13.3 -23.8 12.2 204 204 204
13.6 -23.8 12.2 204 204 204
13.9 -23.9 12.3 204 204 204
14.1 -23.8 12.2 204 204 204
14.3 -23.6 12.1 204 204 204
14.7 -23.7 12.2 206 206 206
15.5 -23.7 12.1 203 203 203
50.9 -76.4 39.2 199 199 199
50.1 -71.4 36.6 206 206 206
49.7 -69.6 35.7 206 206 206
54.3 -73.7 37.8 203 203 203
54.0 -72.1 36.9 203 203 203
52.9 -69.5 35.6 203 203 203
53.5 -69.2 35.5 203 203 203
58.5 -72.4 37.1 203 203 203
54.5 -66.4 34.0 204 204 204
53.9 -64.8 33.2 204 204 204
57.9 -68.6 35.2 204 204 204
59.4 -69.4 35.6 200 200 200
62.0 -70.4 36.1 204 204 204
66.7 -73.8 37.8 205 205 205
-35.8 -24.5 12.7 58 59 59
-35.5 -24.5 12.7 60 62 60
-34.4 -24.5 12.7 58 59 59
-34.0 -24.5 12.7 58 59 59
-33.9 -24.6 12.8 61 63 61
-33.7 -24.7 12.8 59 59 59
-33.2 -24.5 12.7 59 59 59
-32.8 -24.5 12.7 61 63 61
-32.5 -24.5 12.7 59 59 59
-31.7 -24.5 12.7 57 57 57
-28.3 -24.7 12.8 51 51 51
-27.8 -24.5 12.7 51 51 51
-27.6 -24.6 12.7 51 51 51
-404.7 -368.4 191.1 52 52 52
-26.6 -24.5 12.7 49 49 49
-337.8 -314.4 163.1 49 49 49
-26.0 -24.5 12.7 49 49 49
-25.7 -24.5 12.7 49 49 49
-25.3 -24.6 12.8 47 48 47
-24.8 -24.5 12.7 45 45 45
-24.5 -24.5 12.7 46 46 46
-24.2 -24.4 12.7 46 46 46
-23.9 -24.4 12.7 43 43 43
-23.4 -24.6 12.7 44 44 44
-23.1 -24.5 12.7 43 42 41
-22.8 -24.5 12.7 43 42 41
-22.5 -24.5 12.7 45 45 45
-22.2 -24.5 12.7 41 41 41
-21.9 -24.5 12.7 41 41 41
-21.6 -24.5 12.7 41 41 41
-21.3 -24.5 12.7 40 42 42
-21.0 -24.5 12.7 42 42 42
-20.7 -24.5 12.7 40 42 42
-12.7 -24.5 12.7 30 29 29
-11.3 -24.5 12.7 29 31 29
-10.9 -24.3 12.6 31 30 29
-10.6 -24.3 12.6 35 37 36
-10.4 -24.5 12.7 41 41 41
-10.1 -24.5 12.7 162 162 162
49.3 -69.5 36.0 205 205 205
49.4 -68.4 35.5 205 205 205
49.6 -67.5 35.0 205 205 205
53.1 -71.2 36.9 205 205 205
53.1 -70.0 36.3 205 205 205
52.6 -68.3 35.4 207 207 207
52.8 -67.5 35.0 207 207 207
54.0 -66.9 34.7 205 205 205
57.0 -69.6 36.1 205 205 205
54.5 -65.6 34.0 205 205 205
54.7 -64.9 33.7 203 203 203
57.4 -67.2 34.8 203 203 203
59.0 -68.0 35.3 203 203 203
58.4 -66.4 34.5 204 204 204
61.2 -68.7 35.6 204 204 204
59.0 -65.4 33.9 204 204 204
63.9 -69.9 36.2 204 204 204
79.1 -40.5 21.0 119 119 119
85.3 -43.2 22.4 113 115 114
-440.3 -391.6 205.6 52 52 52
-413.1 -371.4 195.0 53 52 52
-392.3 -356.7 187.3 53 52 52
-321.2 -295.3 155.1 50 50 50
-25.1 -24.5 12.9 46 46 46
-23.4 -24.5 12.9 45 45 45
-23.1 -24.5 12.9 44 43 42
-22.9 -24.6 12.9 44 43 42
-22.4 -24.5 12.9 42 42 42
-22.1 -24.5 12.9 42 42 42
-12.7 -24.2 12.7 30 29 29
-11.4 -24.6 12.9 29 31 29
-11.0 -24.2 12.7 29 31 29
-10.6 -24.0 12.6 35 35 35
-10.5 -24.5 12.8 40 40 40
-10.3 -24.6 12.9 176 179 178
50.1 -69.7 36.6 205 205 205
49.3 -67.5 35.4 205 205 205
53.3 -70.6 37.1 205 205 205
53.6 -69.8 36.7 205 205 205
52.5 -67.3 35.4 205 205 205
52.7 -66.6 35.0 204 204 204
52.3 -65.0 34.1 204 204 204
54.0 -66.2 34.8 205 205 205
58.3 -70.4 36.9 205 205 205
55.7 -66.2 34.8 205 205 205
54.8 -64.2 33.7 205 205 205
57.4 -66.4 34.8 205 205 205
58.6 -66.8 35.1 205 205 205
57.8 -65.0 34.1 205 205 205
59.7 -66.2 34.8 206 206 206
60.6 -66.4 34.8 203 203 203
64.9 -70.1 36.8 203 203 203
78.6 -39.8 20.9 119 119 119
84.3 -42.4 22.3 113 115 114
84.9 -42.4 22.3 110 112 111
83.9 -41.7 21.9 110 112 111
-465.9 -413.8 220.0 57 56 55
-412.8 -370.7 197.0 53 53 53
-326.6 -296.6 157.6 53 53 53
-23.1 -24.0 12.7 45 44 43
-22.8 -24.0 12.7 45 44 43
-22.6 -24.0 12.7 42 43 42
-22.2 -24.0 12.7 42 43 42
-11.4 -24.1 12.8 55 56 54
-11.0 -24.0 12.7 64 64 64
-10.6 -23.8 12.7 36 39 38
-10.4 -24.0 12.7 49 49 49
-10.2 -24.1 12.8 181 181 181
-9.8 -23.9 12.7 184 184 184
49.8 -67.3 35.8 204 204 204
54.3 -71.0 37.8 204 204 204
54.0 -69.5 36.9 204 204 204
53.1 -67.3 35.8 204 204 204
52.8 -65.9 35.0 204 204 204
59.9 -72.5 38.5 204 204 204
59.9 -71.5 38.0 204 204 204
58.7 -69.0 36.7 204 204 204
54.5 -63.1 33.5 204 204 204
58.2 -66.5 35.4 205 205 205
59.2 -66.6 35.4 205 205 205
57.4 -63.8 33.9 205 205 205
57.6 -63.1 33.5 205 205 205
66.6 -72.0 38.3 203 203 203
66.9 -71.3 37.9 205 205 205
84.8 -41.9 22.3 110 112 111
83.8 -41.1 21.9 109 109 109
-13.0 -24.7 13.3 90 90 90
-11.4 -23.9 12.8 27 27 27
-11.0 -23.8 12.8 91 94 93
-10.7 -23.6 12.7 21 24 22
-10.4 -23.8 12.8 46 46 46
-10.2 -23.8 12.8 181 181 181
-9.8 -23.7 12.7 183 186 185
49.8 -66.4 35.8 203 203 203
54.2 -70.0 37.7 203 203 203
54.0 -68.7 36.9 203 203 203
53.2 -66.6 35.8 203 203 203
52.9 -65.2 35.1 203 203 203
59.6 -71.3 38.4 203 203 203
59.9 -70.6 38.0 204 204 204
58.8 -66.3 35.7 204 204 204
59.5 -66.2 35.6 204 204 204
57.3 -62.9 33.8 204 204 204
56.8 -61.5 33.1 204 204 204
67.2 -71.7 38.6 205 205 205
66.9 -70.4 37.9 205 205 205
-13.6 -24.8 13.5 77 77 77
-13.1 -24.6 13.4 22 22 22
-11.1 -23.7 12.9 78 78 78
-10.6 -23.8 13.0 47 48 47
-10.3 -23.8 13.0 182 182 182
-10.1 -24.1 13.1 182 185 184
-10.0 -24.6 13.4 186 186 186
49.4 -65.1 35.5 203 203 203
53.7 -68.5 37.3 203 203 203
53.6 -67.3 36.7 203 203 203
52.6 -64.0 34.9 203 203 203
51.5 -61.8 33.7 203 203 203
58.7 -68.3 37.2 203 203 203
58.8 -65.5 35.7 203 203 203
59.2 -65.0 35.4 204 204 204
57.4 -62.2 33.9 204 204 204
56.1 -59.9 32.7 204 204 204
55.4 -58.4 31.8 204 204 204
66.9 -69.6 37.9 204 204 204
84.3 -86.6 47.2 204 204 204
66.1 -66.1 36.0 204 204 204
-13.8 -24.9 13.7 97 100 99
-13.3 -24.7 13.6 36 36 36
-10.3 -24.3 13.4 181 184 183
-10.1 -24.4 13.5 180 183 182
49.7 -64.7 35.7 202 202 202
53.7 -67.6 37.3 202 202 202
53.4 -66.2 36.5 205 205 205
51.4 -62.8 34.6 205 205 205
52.3 -62.9 34.7 202 202 202
51.4 -60.9 33.6 202 202 202
59.9 -69.8 38.5 202 202 202
58.3 -66.9 36.9 202 202 202
59.1 -65.0 35.9 203 203 203
59.3 -64.3 35.5 205 205 205
57.5 -61.5 34.0 203 203 203
56.6 -59.7 33.0 203 203 203
67.3 -69.1 38.1 203 203 203
84.7 -85.9 47.4 204 204 204
84.5 -84.6 46.7 204 204 204
66.1 -65.3 36.0 204 204 204
-13.8 -24.6 13.7 128 128 128
-13.3 -24.4 13.6 33 34 32
-10.5 -23.8 13.3 182 185 184
-10.4 -24.1 13.5 181 184 183
-10.1 -24.1 13.5 179 182 181
-9.5 -24.3 13.6 229 228 226
54.5 -67.8 37.9 204 204 204
54.4 -66.6 37.2 204 204 204
51.8 -62.4 34.9 207 207 207
52.4 -62.2 34.8 207 207 207
51.9 -60.6 33.9 207 207 207
61.4 -70.6 39.5 207 207 207
60.2 -68.2 38.1 204 204 204
71.6 -78.9 44.1 205 205 205
58.5 -61.7 34.5 205 205 205
58.3 -60.7 34.0 203 203 203
46.3 -46.3 25.9 203 203 203
46.9 -46.3 25.9 203 203 203
48.3 -47.1 26.3 203 203 203
48.3 -46.5 26.0 203 203 203
123.8 -81.5 45.6 188 188 188
114.9 -75.0 41.9 189 189 189
-10.4 -23.7 13.4 180 183 182
-10.1 -23.8 13.5 178 181 180
54.8 -67.3 38.1 204 204 204
52.0 -61.8 35.0 204 204 204
52.4 -61.4 34.8 204 204 204
51.7 -59.6 33.8 204 204 204
61.8 -70.2 39.7 204 204 204
77.3 -85.2 48.3 204 204 204
75.9 -82.4 46.7 204 204 204
73.3 -78.6 44.5 204 204 204
49.3 -49.4 28.0 205 205 205
46.6 -46.1 26.1 205 205 205
47.2 -46.1 26.1 205 205 205
48.2 -46.4 26.3 205 205 205
48.2 -45.9 26.0 206 206 206
122.6 -79.7 45.1 186 186 186
110.7 -71.3 40.4 188 188 188
-10.5 -23.7 13.6 179 182 181
-10.2 -23.7 13.6 180 183 182
-10.1 -24.2 13.9 176 179 178
-9.7 -24.2 13.9 213 215 215
52.2 -60.4 34.6 203 203 203
62.2 -69.7 40.0 203 203 203
77.3 -84.1 48.3 204 204 204
76.6 -82.2 47.2 204 204 204
75.5 -79.8 45.8 204 204 204
76.0 -79.2 45.5 204 204 204
46.9 -45.8 26.3 205 205 205
47.4 -45.6 26.2 205 205 205
48.6 -46.2 26.5 205 205 205
49.1 -46.1 26.5 205 205 205
109.3 -69.5 39.9 186 186 186
99.2 -62.5 35.9 188 188 188
1029.3 -470.7 270.2 112 114 113
-10.6 -23.6 13.7 179 182 181
-10.3 -23.7 13.8 182 182 182
-10.1 -23.9 13.9 176 179 178
-9.7 -23.9 13.9 206 206 206
77.6 -83.4 48.5 206 206 206
77.4 -81.9 47.6 206 206 206
76.9 -80.3 46.7 207 207 207
76.5 -78.7 45.8 207 207 207
49.3 -46.8 27.2 204 204 204
49.5 -46.4 27.0 205 205 205
49.9 -46.2 26.9 205 205 205
108.7 -68.2 39.7 186 186 186
98.2 -61.1 35.6 188 188 188
900.6 -406.4 236.5 113 115 114
-11.1 -23.8 14.0 181 184 183
-10.6 -23.3 13.8 180 183 182
-10.4 -23.5 13.9 178 181 180
-10.1 -23.7 14.0 177 180 179
-9.7 -23.6 13.9 193 193 193
78.2 -82.9 48.9 206 206 206
78.0 -81.4 48.0 206 206 206
78.5 -80.8 47.6 206 206 206
78.8 -80.0 47.2 206 206 206
79.9 -80.0 47.2 206 206 206
49.4 -45.7 26.9 204 204 204
49.7 -45.4 26.8 205 205 205
99.9 -61.3 36.2 188 188 188
-11.4 -24.1 14.4 182 185 184
-11.0 -25.4 15.2 178 181 180
78.9 -82.4 49.3 206 206 206
79.2 -81.5 48.8 206 206 206
80.9 -82.2 49.1 206 206 206
82.3 -82.4 49.3 206 206 206
83.4 -82.4 49.3 206 206 206
49.3 -45.0 26.9 207 207 207
49.6 -44.7 26.7 207 207 207
48.8 -43.4 25.9 205 205 205
98.1 -59.3 35.5 189 189 189
-11.5 -25.5 15.5 181 181 181
-11.2 -25.4 15.4 176 176 176
-10.8 -25.5 15.5 160 160 160
80.1 -82.5 50.0 205 205 205
80.4 -81.7 49.5 205 205 205
82.7 -82.7 50.2 206 206 206
86.6 -85.5 51.8 206 206 206
89.5 -87.1 52.8 206 206 206
91.8 -88.1 53.4 206 206 206
49.8 -44.2 26.8 207 207 207
49.1 -43.1 26.1 207 207 207
98.2 -58.6 35.6 193 193 193
50.0 -22.5 13.6 159 159 159
-11.5 -25.9 15.9 171 173 173
-11.2 -26.1 16.0 155 158 157
-11.0 -26.5 16.3 154 156 156
82.3 -83.6 51.4 207 210 209
83.5 -83.6 51.4 207 210 209
87.0 -85.9 52.8 207 210 209
92.1 -89.7 55.1 207 210 209
94.8 -91.0 56.0 207 210 209
96.7 -91.5 56.3 210 213 212
98.9 -92.4 56.8 208 211 210
100.1 -58.9 36.2 193 193 193
50.9 -22.7 14.0 165 168 167
50.4 -22.3 13.7 160 160 160
50.3 -22.2 13.6 152 152 152
-11.4 -25.3 15.8 176 176 176
-11.8 -26.9 16.8 157 160 159
83.5 -82.4 51.4 207 210 209
88.5 -86.1 53.7 207 210 209
97.5 -93.6 58.4 207 210 209
100.8 -95.3 59.5 207 210 209
101.8 -95.0 59.3 207 210 209
102.2 -94.1 58.7 207 210 209
98.8 -57.3 35.8 194 194 194
52.1 -22.9 14.3 166 169 168
50.8 -22.2 13.8 159 159 159
50.8 -22.0 13.7 153 153 153
51.3 -22.1 13.8 145 145 144
-11.8 -26.7 16.9 165 165 165
10.5 -15.9 10.1 203 203 203
13.3 -15.9 10.1 205 205 205
13.5 -15.9 10.0 204 204 204
100.6 -95.1 60.2 207 210 209
110.9 -103.4 65.5 207 210 209
109.4 -100.6 63.7 207 210 209
108.3 -98.3 62.2 207 210 209
52.4 -22.7 14.4 168 170 169
-11.7 -25.9 16.6 168 168 168
-11.1 -25.4 16.3 163 163 163
117.8 -108.2 69.5 206 209 208
113.6 -102.9 66.1 207 210 209
112.7 -100.8 64.8 207 210 209
53.6 -22.9 14.7 169 171 170
52.9 -22.4 14.4 157 160 159
-11.7 -25.6 16.7 172 172 172
120.5 -109.0 71.1 206 209 208
115.2 -102.8 67.1 206 209 208
113.5 -100.0 65.2 205 205 205
-11.8 -25.5 16.9 173 173 173
-11.6 -25.8 17.1 169 169 169
55.8 -22.5 14.9 143 143 142
-12.9 -26.4 17.8 176 179 178
-12.0 -25.5 17.1 175 177 177
-11.6 -25.5 17.1 173 173 173
-11.4 -25.8 17.4 165 165 165
80.9 -34.3 23.1 185 185 185
55.8 -22.2 14.9 145 145 144
56.0 -22.1 14.9 137 139 138
-11.6 -26.1 17.8 172 172 172
80.9 -33.8 23.1 186 186 186
80.7 -33.5 22.9 186 186 186
56.0 -21.9 15.0 144 144 144
55.9 -21.7 14.9 137 139 138
200.5 -157.4 109.3 209 212 211
455.7 -344.8 239.4 209 212 211
328.3 -245.4 170.4 210 213 212
76.6 -31.7 22.0 184 184 184
78.3 -32.2 22.3 188 188 188
78.3 -31.9 22.2 191 191 191
77.5 -31.4 21.8 188 188 188
56.1 -21.5 14.9 139 141 140
-31.6 -16.7 11.8 19 23 20
-28.9 -16.7 11.8 180 183 182
203.0 -167.5 118.2 207 210 209
209.8 -168.5 119.0 208 211 210
211.2 -167.5 118.2 208 211 210
210.1 -164.4 116.1 208 211 210
202.8 -156.7 110.6 209 212 211
204.2 -155.8 110.0 209 212 211
375.0 -279.1 197.0 209 212 211
238.2 -175.1 123.6 209 212 211
230.5 -167.5 118.2 210 213 212
230.4 -165.4 116.8 210 213 212
226.1 -160.5 113.3 210 213 212
257.6 -178.6 126.1 208 211 210
77.6 -31.6 22.3 192 192 192
78.4 -31.7 22.4 192 192 192
78.7 -31.6 22.3 189 189 189
78.7 -31.4 22.2 189 189 189
56.3 -21.2 15.0 137 137 137
222.5 -183.0 131.4 207 210 209
216.6 -171.1 122.8 208 211 210
215.3 -167.9 120.5 208 211 210
216.7 -166.8 119.7 208 211 210
212.8 -161.7 116.1 208 211 210
246.2 -178.1 127.8 209 212 211
233.4 -166.8 119.7 210 213 212
236.2 -166.8 119.7 210 213 212
236.0 -164.7 118.2 210 213 212
264.6 -180.5 129.6 208 211 210
247.3 -166.8 119.7 208 211 210
78.6 -31.2 22.4 193 193 193
78.8 -31.1 22.3 193 193 193
79.3 -31.1 22.3 190 190 190
80.1 -31.2 22.4 184 184 184
248.4 -200.9 146.6 206 209 208
238.3 -185.1 135.1 207 210 209
234.7 -180.0 131.4 208 211 210
237.8 -180.0 131.4 208 211 210
229.7 -171.6 125.3 208 211 210
234.1 -172.8 126.1 208 211 210
274.0 -194.9 142.2 209 212 211
252.6 -177.5 129.6 209 212 211
259.1 -180.0 131.4 210 213 212
258.6 -177.5 129.6 210 213 212
278.0 -186.5 136.1 212 214 214
79.6 -31.1 22.7 194 194 194
79.8 -31.0 22.6 191 191 191
80.1 -30.9 22.5 188 188 188
81.3 -31.2 22.7 185 185 185
82.0 -31.2 22.8 178 181 180
288.7 -229.5 170.4 206 209 208
272.6 -205.5 152.6 207 210 209
273.9 -203.8 151.3 208 211 210
244.2 -179.4 133.2 208 211 210
274.4 -199.0 147.8 208 211 210
500.0 -353.9 262.7 209 212 211
319.6 -223.5 165.9 209 212 211
298.5 -203.8 151.3 210 213 212
415.2 -276.9 205.6 210 213 212
311.6 -205.5 152.6 208 211 210
81.4 -31.3 23.2 192 192 192
81.4 -31.1 23.1 192 192 192
80.9 -30.7 22.8 186 186 186
83.9 -31.6 23.5 186 186 186
84.9 -31.8 23.6 175 175 175
85.3 -31.7 23.6 166 166 166
68.0 -24.6 18.3 134 137 136
340.9 -266.4 201.2 210 210 210
308.5 -225.6 170.4 207 210 209
277.4 -200.3 151.3 208 211 210
679.2 -472.4 356.9 209 212 211
391.8 -269.2 203.4 209 212 211
410.1 -275.1 207.9 209 212 211
449.4 -294.6 222.5 210 213 212
345.0 -223.6 168.9 210 213 212
84.8 -31.4 23.7 183 186 185
86.1 -31.7 23.9 167 167 167
86.9 -31.7 24.0 156 156 156
68.6 -24.5 18.5 135 135 135
68.9 -24.4 18.4 132 132 132
68.4 -24.1 18.2 134 134 134
69.1 -24.1 18.2 134 134 134
-17.0 -35.0 26.9 87 89 88
85.6 -31.1 23.9 160 160 160
86.9 -31.4 24.1 152 152 152
87.4 -31.4 24.1 138 140 139
69.4 -24.3 18.7 136 136 136
69.1 -24.0 18.5 132 132 132
68.8 -23.8 18.3 134 134 134
68.7 -23.6 18.2 132 132 132
-17.1 -34.6 27.1 84 84 84
-16.6 -35.0 27.4 53 53 53
496.1 -313.7 245.7 210 213 212
87.0 -31.1 24.3 147 147 147
88.0 -31.2 24.4 131 133 132
88.8 -31.3 24.5 131 133 132
89.2 -31.3 24.5 128 131 130
70.0 -23.9 18.7 127 127 127
69.8 -23.7 18.6 128 128 128
69.5 -23.5 18.4 128 128 128
-17.0 -33.8 27.0 86 88 88
-16.5 -34.1 27.2 69 68 67
694.5 -431.2 343.9 215 215 215
47.2 -24.1 19.2 159 159 159
89.0 -31.0 24.7 114 116 115
90.2 -31.2 24.9 116 118 117
90.9 -31.2 24.9 120 120 120
71.5 -24.0 19.1 120 120 120
70.9 -23.6 18.8 122 122 122
71.0 -23.5 18.8 123 123 123
-43.8 -38.5 31.3 39 39 39
-16.9 -33.1 26.9 86 88 88
-16.4 -33.3 27.0 84 84 84
-15.7 -33.2 26.9 75 75 75
46.7 -23.8 19.4 195 195 195
47.0 -23.7 19.3 190 190 190
46.9 -23.5 19.1 158 161 160
89.0 -30.4 24.7 106 108 108
90.8 -30.8 25.1 108 110 110
92.2 -31.1 25.3 112 112 112
93.8 -31.5 25.6 112 112 112
-45.9 -39.0 32.3 115 114 114
-17.3 -33.1 27.4 87 89 88
-16.8 -33.4 27.7 59 59 59
46.9 -24.7 20.4 202 202 202
47.1 -24.5 20.3 199 199 199
46.9 -23.0 19.0 164 164 164
95.0 -31.5 26.1 108 108 108
96.3 -31.7 26.2 107 107 107
-20.0 -39.0 32.9 77 79 78
-19.3 -39.2 33.1 32 32 32
47.1 -24.3 20.5 202 202 202
47.1 -24.0 20.3 203 203 203
47.1 -22.9 19.3 193 193 193
46.7 -22.5 19.0 165 168 167
96.6 -31.4 26.5 102 104 104
98.2 -31.7 26.8 102 104 104
-100.5 -41.4 35.7 134 136 135
-100.4 -41.7 36.0 79 81 79
-93.9 -41.8 36.0 194 194 194
-86.5 -41.9 36.1 100 100 100
-66.0 -41.7 35.9 48 48 48
-38.2 -42.3 36.4 25 26 24
-22.0 -40.6 35.0 90 90 90
-21.7 -41.5 35.8 98 98 98
-21.0 -41.7 35.9 90 90 90
-20.1 -41.5 35.8 116 116 116
44.8 -22.2 19.1 206 206 206
45.9 -21.9 18.8 193 193 193
-104.6 -42.3 37.2 85 85 85
-105.2 -42.9 37.7 79 81 79
-104.5 -43.0 37.8 125 125 125
-100.6 -43.1 37.9 170 171 170
-99.5 -43.0 37.8 192 192 192
-98.2 -42.9 37.7 145 147 147
-93.9 -43.3 38.1 67 69 67
-92.3 -43.0 37.8 66 66 66
-90.3 -42.4 37.3 143 143 142
-90.3 -42.9 37.7 147 147 147
-89.6 -43.4 38.1 36 37 36
-80.6 -43.3 38.1 175 175 175
-70.7 -43.2 38.0 26 26 26
-68.6 -43.6 38.3 57 57 57
-67.2 -43.2 38.0 61 63 61
-65.3 -42.5 37.4 61 63 61
-54.7 -43.1 37.9 71 72 70
-52.3 -43.3 38.1 163 163 163
-51.1 -43.0 37.8 234 234 234
-48.8 -43.3 38.1 52 52 52
-41.1 -43.6 38.3 28 27 26
-39.2 -42.5 37.4 25 26 24
-24.1 -41.9 36.8 93 93 93
-22.8 -41.1 36.2 90 90 90
-22.4 -41.9 36.9 81 81 81
-21.8 -42.4 37.3 109 109 107
163.0 -94.0 82.6 217 217 217
198.0 -105.5 92.7 199 199 199
179.1 -94.4 83.0 202 202 202
46.5 -22.8 20.0 205 205 205
-105.9 -41.9 37.6 94 94 94
-105.4 -42.1 37.8 148 148 148
-105.2 -42.3 38.0 151 151 151
-103.9 -42.2 37.8 90 92 91
-103.0 -42.2 37.8 126 129 128
-102.1 -42.2 37.8 100 100 100
-101.6 -42.3 38.0 29 31 29
-101.2 -42.5 38.1 57 57 57
-100.1 -42.4 38.1 107 107 107
-98.8 -42.2 37.9 140 140 140
-98.3 -42.4 38.1 101 101 101
-97.4 -42.4 38.1 75 75 75
-95.7 -42.4 38.1 73 73 73
-94.6 -42.3 38.0 85 85 85
-94.5 -42.7 38.3 77 78 76
-92.8 -42.3 38.0 81 83 80
-91.0 -41.9 37.6 153 153 153
-90.5 -42.1 37.8 160 160 160
-90.5 -42.5 38.1 147 149 149
-90.4 -42.8 38.4 145 145 144
-88.6 -42.4 38.1 180 180 180
-82.4 -42.4 38.1 85 85 85
-81.1 -42.7 38.3 137 139 138
-79.7 -42.4 38.1 35 35 35
-78.7 -42.3 38.0 35 35 35
-78.0 -42.4 38.1 17 17 17
-71.0 -42.5 38.1 160 160 160
-69.4 -42.1 37.8 151 151 151
-69.3 -42.5 38.1 159 159 159
-69.9 -43.5 39.0 149 149 149
-67.6 -42.6 38.2 82 84 84
-65.9 -42.1 37.8 66 67 65
-55.0 -42.4 38.1 73 74 72
-53.4 -42.6 38.2 71 72 70
-52.5 -42.6 38.2 165 168 167
-51.3 -42.3 38.0 229 229 229
-50.5 -42.4 38.1 222 222 222
-49.9 -42.6 38.2 219 219 219
-49.1 -42.7 38.3 96 95 94
-48.1 -42.6 38.2 36 37 36
-41.7 -43.4 38.9 35 37 36
-39.4 -41.9 37.6 25 26 24
-25.2 -41.4 37.2 110 110 110
-24.3 -41.5 37.2 92 92 92
-23.1 -40.9 36.7 91 94 93
-22.5 -41.3 37.1 99 101 101
-22.0 -42.0 37.7 13 17 14
-21.3 -42.4 38.1 23 23 22
162.2 -91.7 82.2 217 217 217
185.3 -96.7 86.8 202 202 202
170.9 -88.2 79.1 202 202 202
47.0 -22.6 20.3 205 205 205
44.6 -21.2 19.0 205 205 205
-106.7 -41.4 37.9 143 143 142
-106.3 -41.5 38.1 157 157 157
-105.6 -41.6 38.1 67 69 67
-104.7 -41.6 38.1 88 88 88
-103.6 -41.5 38.1 88 88 88
-102.9 -41.6 38.1 93 93 93
-101.5 -42.1 38.6 84 84 84
-99.4 -41.6 38.1 56 55 54
-99.1 -41.9 38.4 56 55 54
-97.8 -41.7 38.2 75 76 76
-95.5 -41.9 38.4 84 84 84
-93.6 -41.8 38.3 96 95 94
-91.4 -41.2 37.8 191 194 193
-91.0 -41.4 38.0 202 202 202
-89.3 -41.9 38.4 87 88 86
-71.8 -42.0 38.5 41 41 41
-70.0 -41.5 38.1 75 77 75
-70.4 -42.8 39.2 75 76 74
-68.3 -42.1 38.6 37 38 37
-66.1 -41.3 37.8 99 98 96
-57.8 -43.0 39.4 198 198 198
-55.2 -41.7 38.2 235 238 237
-54.1 -41.5 38.1 231 231 231
-51.7 -41.8 38.3 220 220 220
-50.9 -41.9 38.4 229 229 229
-42.2 -42.9 39.3 28 27 26
-40.0 -41.6 38.1 28 27 26
-24.6 -41.1 37.7 92 95 94
-23.3 -40.4 37.0 91 94 93
-22.6 -40.6 37.2 102 102 102
-22.1 -41.4 37.9 14 18 15
-21.5 -41.9 38.4 25 25 23
16.0 -11.3 10.3 214 214 214
16.2 -11.2 10.3 215 215 215
156.8 -86.7 79.5 217 217 217
195.1 -99.7 91.4 200 200 200
164.7 -83.2 76.3 202 202 202
152.3 -76.2 69.8 202 202 202
44.4 -20.7 18.9 205 205 205
-107.6 -40.8 38.2 148 148 148
-106.9 -40.9 38.3 40 40 40
-106.7 -41.1 38.5 52 52 52
-105.6 -41.1 38.4 81 83 80
-104.5 -41.0 38.4 138 138 138
-103.8 -41.1 38.4 113 114 113
-100.4 -41.1 38.5 66 66 66
-99.7 -41.2 38.6 63 64 62
-98.4 -41.1 38.4 81 83 80
-96.0 -41.6 38.9 185 185 185
-94.1 -41.1 38.5 92 92 92
-92.3 -40.7 38.1 141 141 141
-91.8 -40.9 38.3 153 153 153
-70.6 -41.0 38.4 198 201 200
-70.5 -42.0 39.3 184 187 186
-68.4 -41.3 38.7 128 128 128
-66.7 -40.8 38.2 66 67 65
-55.2 -40.8 38.2 226 226 226
-54.4 -40.9 38.3 231 231 231
-53.5 -41.6 38.9 98 98 98
-42.3 -42.2 39.5 31 31 31
-40.0 -40.7 38.1 28 27 26
-25.8 -40.6 38.1 111 111 111
-24.9 -40.7 38.1 91 94 93
-23.7 -40.2 37.6 96 96 96
-22.9 -40.2 37.7 107 107 107
-22.3 -40.7 38.1 13 17 14
-21.6 -41.1 38.5 23 23 22
16.1 -10.9 10.2 215 215 215
162.7 -80.5 75.4 202 202 202
146.4 -71.6 67.1 202 202 202
46.6 -21.4 20.1 204 204 204
42.0 -18.9 17.7 206 206 206
1182.7 -388.5 363.8 42 44 42
-88.7 -45.7 43.8 158 158 158
-25.1 -40.2 38.4 91 93 92
-24.0 -39.8 38.1 97 97 97
-23.1 -39.8 38.1 103 103 103
-22.4 -40.0 38.3 11 16 13
-24.5 -45.6 43.7 21 21 21
173.0 -83.7 80.2 200 200 200
146.4 -70.1 67.1 202 202 202
41.8 -18.4 17.6 205 205 205
-130.0 -50.1 49.0 77 78 76
-121.5 -50.3 49.3 79 81 79
-97.0 -48.9 47.9 162 162 162
-54.0 -50.3 49.3 28 28 26
-51.1 -48.7 47.6 25 27 25
-25.8 -40.3 39.5 90 92 91
-28.1 -49.2 48.1 29 29 29
-25.6 -46.6 45.6 23 23 22
-26.5 -50.3 49.3 107 109 109
268.1 -147.5 144.4 218 218 218
356.7 -172.5 168.9 195 195 195
41.3 -17.8 17.5 204 204 204
-143.2 -50.8 50.9 98 98 98
-142.0 -50.8 50.9 33 33 33
-140.0 -50.5 50.6 37 40 39
-139.6 -50.8 50.9 56 56 56
-139.2 -51.0 51.1 75 75 75
-138.4 -51.2 51.3 87 87 87
-136.8 -51.0 51.1 66 66 66
-134.2 -50.5 50.6 173 173 173
-133.4 -50.6 50.7 186 188 187
-132.5 -50.8 50.9 93 93 93
-131.3 -50.8 50.9 20 23 21
-130.2 -50.8 50.9 24 24 24
-129.0 -50.8 50.9 38 38 38
-128.1 -50.9 51.0 68 70 68
-127.3 -51.0 51.1 71 71 71
-126.5 -51.2 51.3 77 79 77
-123.9 -50.6 50.7 68 70 68
-123.4 -50.9 51.0 160 159 157
-122.2 -50.9 51.0 152 152 152
-122.7 -51.6 51.7 170 171 170
-120.8 -51.3 51.4 119 121 120
-114.6 -51.7 51.8 61 61 61
-113.1 -51.6 51.7 88 88 88
-110.4 -50.9 51.0 135 135 135
-112.5 -53.0 53.1 113 114 113
-108.0 -51.5 51.5 117 119 118
-105.6 -50.9 51.0 130 130 130
-101.7 -49.6 49.6 140 140 140
-99.8 -49.2 49.3 159 158 156
-101.1 -51.6 51.7 57 57 55
-99.3 -51.3 51.4 68 70 68
-97.9 -51.2 51.3 94 94 94
-98.3 -52.0 52.1 211 211 211
-96.8 -51.9 52.0 221 221 221
-92.8 -50.4 50.4 227 227 227
-90.2 -49.6 49.6 238 238 238
-91.0 -51.3 51.4 224 224 224
-88.1 -50.4 50.4 215 215 215
-88.1 -51.0 51.1 196 196 196
-87.4 -51.3 51.4 165 165 165
-86.6 -51.6 51.7 58 58 58
-85.0 -51.3 51.4 52 52 52
-83.8 -51.3 51.4 39 41 41
-82.4 -51.2 51.3 36 36 36
-78.9 -52.0 52.1 202 204 204
-75.6 -50.6 50.7 224 224 224
-74.4 -50.6 50.7 209 209 209
-73.8 -51.0 51.1 120 122 121
-72.6 -51.0 51.1 160 159 157
-72.0 -51.5 51.5 230 230 230
-70.1 -50.9 51.0 238 238 238
-69.3 -51.2 51.3 218 218 218
-67.7 -50.9 51.0 152 154 154
-66.7 -51.0 51.1 228 228 228
-66.4 -51.7 51.8 239 239 239
-61.8 -51.9 52.0 95 98 97
-59.2 -50.8 50.9 103 103 103
-56.8 -49.7 49.8 80 79 78
-58.0 -51.7 51.8 42 43 42
-55.4 -50.5 50.6 30 30 30
-52.8 -49.2 49.3 28 28 26
-30.7 -50.5 50.6 107 107 107
-29.7 -50.8 50.9 46 46 46
-28.0 -49.8 49.9 20 20 20
-27.5 -51.0 51.1 151 151 151
16.0 -10.2 10.3 218 218 218
16.1 -10.2 10.2 218 218 218
278.7 -149.9 150.1 220 220 220
449.3 -219.6 220.0 220 220 220
459.5 -219.6 220.0 183 183 183
384.2 -181.6 181.9 195 195 195
39.7 -16.6 16.6 205 205 205
-150.9 -52.2 53.6 39 39 39
-157.7 -55.1 56.5 42 42 40
-155.9 -54.9 56.3 39 39 39
-156.4 -55.5 57.0 69 69 69
-152.4 -54.6 56.0 67 68 66
-150.2 -54.2 55.6 159 162 161
-148.0 -53.9 55.3 174 174 174
-149.3 -54.9 56.3 70 70 70
-143.3 -53.1 54.5 203 203 203
-142.9 -53.5 54.8 197 197 197
-146.3 -55.2 56.6 197 197 197
-143.7 -54.7 56.1 144 146 146
-142.8 -54.9 56.3 18 22 19
-141.5 -54.9 56.3 53 52 52
-139.4 -54.6 56.0 74 74 74
-136.4 -53.9 55.3 80 82 79
-135.5 -54.1 55.5 77 77 77
-136.3 -54.9 56.3 158 158 158
-134.5 -54.7 56.1 187 189 189
-133.2 -54.7 56.1 194 194 194
-128.3 -56.6 58.0 64 64 64
-122.1 -54.4 55.8 69 69 69
-121.8 -56.1 57.5 115 115 115
-116.5 -54.2 55.6 115 114 114
-111.0 -52.2 53.6 130 130 130
-110.4 -55.1 56.5 59 59 59
-107.8 -54.4 55.8 67 67 67
-106.2 -54.2 55.6 79 81 79
-105.2 -54.4 55.8 192 192 192
-103.3 -54.1 55.5 215 215 215
-103.2 -54.7 56.1 222 222 222
-91.7 -54.1 55.5 49 49 49
-91.5 -54.7 56.1 36 36 36
-85.2 -54.9 56.3 139 139 139
-82.9 -54.2 55.6 230 230 230
-82.4 -54.7 56.1 219 219 219
-81.3 -54.9 56.3 151 153 153
-78.8 -54.1 55.5 64 64 64
-78.0 -54.4 55.8 214 214 214
-76.5 -54.2 55.6 235 238 237
-74.7 -53.9 55.3 230 230 230
-74.8 -54.9 56.3 206 206 206
-73.4 -54.9 56.3 181 184 183
-70.7 -53.8 55.1 237 237 237
-71.5 -55.4 56.8 233 235 235
-68.5 -54.1 55.5 206 206 206
-68.6 -55.2 56.6 177 177 177
-65.0 -53.3 54.7 133 133 133
-63.0 -54.9 56.3 58 59 59
-59.4 -52.8 54.2 36 36 36
-33.6 -53.9 55.3 105 105 103
-31.7 -52.8 54.2 44 44 44
-29.4 -51.1 52.4 20 20 20
-28.9 -52.4 53.7 156 156 156
-28.0 -53.1 54.5 178 178 178
16.0 -10.0 10.3 218 218 218
16.1 -10.0 10.2 218 218 218
346.8 -184.4 189.2 220 220 220
274.4 -144.1 147.8 220 220 220
416.0 -194.1 199.1 186 186 186
356.7 -164.7 168.9 195 195 195
39.8 -16.2 16.6 204 204 204
-165.9 -56.1 58.9 181 184 183
-165.6 -56.4 59.3 41 41 39
-164.7 -56.6 59.5 43 43 43
-163.8 -56.8 59.7 92 92 92
-163.0 -57.0 59.9 166 166 166
-161.1 -56.8 59.7 29 30 28
-159.2 -56.6 59.5 67 68 66
-157.3 -56.4 59.3 86 86 86
-155.4 -56.3 59.1 197 197 197
-154.5 -56.4 59.3 199 199 199
-154.6 -57.0 59.9 160 160 160
-152.3 -56.6 59.5 153 153 153
-150.4 -56.4 59.3 200 200 200
-149.5 -56.6 59.5 196 196 196
-149.1 -57.0 59.9 99 99 99
-146.7 -56.6 59.5 72 72 72
-145.4 -56.6 59.5 72 72 72
-144.0 -56.6 59.5 72 72 72
-142.6 -56.6 59.5 81 83 80
-140.3 -56.3 59.1 60 60 60
-138.9 -56.3 59.1 20 23 21
-137.6 -56.3 59.1 26 26 26
-137.5 -56.8 59.7 26 26 26
-134.5 -57.9 60.8 67 68 66
-130.6 -56.8 59.7 65 65 65
-128.0 -56.3 59.1 93 93 93
-127.0 -56.4 59.3 107 107 107
-126.8 -57.0 59.9 135 135 135
-123.8 -56.3 59.1 131 131 131
-122.1 -56.1 58.9 137 139 138
-121.5 -56.4 59.3 112 112 112
-120.1 -56.4 59.3 55 55 55
-119.5 -56.8 59.7 68 68 68
-121.5 -58.5 61.4 58 58 56
-116.7 -56.8 59.7 58 58 56
-115.3 -56.8 59.7 65 66 64
-113.6 -56.6 59.5 63 63 63
-112.2 -56.6 59.5 83 83 83
-110.1 -56.3 59.1 174 174 174
-108.7 -56.3 59.1 195 195 195
-107.7 -56.4 59.3 199 199 199
-106.0 -56.3 59.1 215 215 215
-104.9 -56.4 59.3 208 211 210
-103.5 -56.4 59.3 207 210 209
-101.9 -56.3 59.1 197 200 199
-101.1 -56.6 59.5 169 169 169
-100.7 -57.2 60.1 54 54 54
-98.0 -56.4 59.3 47 48 47
-96.7 -56.4 59.3 33 33 33
-95.6 -56.6 59.5 27 29 27
-93.9 -56.4 59.3 34 34 34
-93.4 -57.0 59.9 59 59 59
-94.7 -58.6 61.6 153 153 153
-90.0 -56.6 59.5 118 118 118
-88.1 -56.3 59.1 222 222 222
-86.7 -56.3 59.1 232 232 232
-85.6 -56.4 59.3 214 214 214
-85.1 -57.0 59.9 102 104 104
-83.4 -56.8 59.7 147 147 147
-81.5 -56.4 59.3 208 208 208
-80.1 -56.4 59.3 231 231 231
-78.5 -56.3 59.1 217 217 217
-77.4 -56.4 59.3 194 194 194
-76.5 -56.8 59.7 214 214 214
-76.8 -58.1 61.0 229 229 229
-73.0 -56.3 59.1 193 196 195
-72.5 -57.0 59.9 164 164 164
-69.8 -55.9 58.7 136 138 137
-68.0 -55.6 58.4 73 75 75
-70.8 -59.0 62.0 69 69 69
-66.8 -56.8 59.7 32 32 32
-64.8 -56.3 59.1 30 30 30
-39.0 -56.8 59.7 88 90 89
-37.5 -56.6 59.5 94 94 94
-35.9 -56.3 59.1 108 108 108
-34.4 -56.1 58.9 29 29 29
-31.6 -53.6 56.3 20 20 20
-30.8 -54.6 57.3 166 166 166
-30.2 -55.9 58.7 178 178 178
15.9 -9.8 10.3 218 218 218
16.1 -9.7 10.2 218 218 218
240.5 -123.3 129.6 220 220 220
237.6 -105.9 111.3 197 197 197
192.5 -82.2 86.4 202 202 202
177.5 -75.0 78.8 202 202 202
-174.6 -57.6 62.0 140 140 140
-170.2 -58.5 63.1 74 74 74
-165.1 -57.8 62.2 107 107 107
-162.5 -57.4 61.8 198 201 200
-157.8 -57.8 62.2 149 149 149
-156.4 -57.8 62.2 192 192 192
-156.6 -58.9 63.5 33 32 30
-154.1 -58.5 63.1 57 56 55
-151.6 -58.2 62.6 60 60 60
-147.2 -57.6 62.0 54 54 54
-133.1 -58.3 62.8 131 131 131
-128.7 -57.0 61.4 126 129 128
-456.0 -209.1 225.2 117 119 118
-462.4 -219.5 236.5 60 60 60
-122.2 -58.7 63.3 64 64 64
-119.6 -58.2 62.6 59 59 59
-118.5 -58.3 62.8 39 39 39
-114.4 -57.0 61.4 55 55 55
-113.0 -57.0 61.4 96 96 96
-110.1 -57.8 62.2 196 196 196
-108.7 -57.8 62.2 189 191 191
-93.9 -57.6 62.0 106 106 106
-87.8 -58.3 62.8 87 86 84
-85.5 -57.8 62.2 210 210 210
-83.8 -57.6 62.0 229 229 229
-69.4 -57.6 62.0 36 36 36
-67.7 -57.4 61.8 32 32 32
-39.2 -57.8 62.2 93 93 93
-36.8 -56.3 60.6 103 103 103
-35.9 -57.0 61.4 30 32 32
-32.0 -52.9 57.0 17 17 17
-31.5 -54.4 58.6 161 161 161
-31.0 -55.9 60.2 177 177 177
156.1 -73.5 79.1 221 221 221
213.7 -92.9 100.1 197 197 197
167.7 -69.1 74.5 202 202 202
-665.7 -214.0 236.5 120 120 120
-130.4 -219.5 242.5 158 158 158
214.9 -91.1 100.6 197 197 197
169.0 -68.0 75.1 202 202 202
16.0 -9.1 10.3 218 221 220
16.1 -9.0 10.2 218 221 220
225.1 -106.9 121.3 220 220 220
170.4 -76.2 86.4 221 221 221
256.1 -106.9 121.3 174 174 174
221.9 -91.7 103.9 196 196 196
196.1 -77.6 88.0 200 200 200
179.7 -70.4 79.8 200 200 200
221.8 -84.3 95.5 202 202 202
234.5 -87.4 99.0 203 203 203
219.5 -101.5 118.2 220 220 220
167.3 -72.8 84.8 221 221 221
249.7 -101.5 118.2 178 178 178
221.9 -89.3 103.9 194 194 194
182.3 -72.5 84.4 197 197 197
193.4 -74.5 86.8 200 200 200
180.5 -68.8 80.2 200 200 200
213.1 -79.6 92.7 202 202 202
219.6 -81.2 94.6 202 202 202
222.9 -81.6 95.1 202 202 202
230.9 -83.7 97.5 203 203 203
163.7 -69.3 83.0 221 221 221
229.5 -89.8 107.5 192 192 192
179.1 -69.3 83.0 196 196 196
158.7 -60.8 72.8 199 199 199
187.3 -70.2 84.1 197 197 197
175.3 -65.0 77.8 200 200 200
212.1 -77.1 92.3 200 200 200
222.9 -80.2 96.0 202 202 202
225.1 -80.2 96.0 202 202 202
228.5 -80.6 96.5 202 202 202
206.5 -72.2 86.4 205 205 205
172.0 -70.8 87.2 220 220 220
232.2 -88.3 108.7 190 190 190
178.3 -67.1 82.6 194 194 194
184.9 -67.4 83.0 197 197 197
176.7 -63.8 78.5 197 197 197
208.0 -73.5 90.5 200 200 200
225.1 -78.0 96.0 202 202 202
210.4 -71.5 88.0 205 205 205
245.6 -104.4 132.3 220 220 220
166.6 -66.6 84.4 220 220 220
241.9 -89.4 113.3 179 179 179
180.7 -66.0 83.7 198 198 198
187.3 -66.3 84.1 197 197 197
177.5 -62.2 78.8 197 197 197
212.1 -72.8 92.3 200 200 200
222.9 -75.8 96.0 200 200 200
228.6 -76.9 97.5 202 202 202
233.3 -77.7 98.5 204 204 204
209.4 -69.1 87.6 206 206 206
249.1 -102.7 134.2 220 220 220
224.4 -80.5 105.1 162 162 162
183.9 -65.2 85.2 193 193 193
196.1 -67.4 88.0 197 197 197
178.2 -60.6 79.1 197 197 197
224.1 -75.4 98.5 197 197 197
219.6 -73.2 95.5 198 198 198
222.9 -73.5 96.0 200 200 200
229.8 -75.1 98.0 200 200 200
183.1 -63.0 84.8 186 186 186
144.3 -47.6 66.1 192 192 192
124.4 -39.3 54.7 197 197 197
132.9 -39.2 54.5 225 227 227
143.3 -45.7 65.7 191 191 191
122.0 -38.5 55.3 193 193 193
123.3 -38.5 55.3 194 194 194
125.5 -38.4 55.1 197 197 197
143.6 -41.4 59.5 199 199 199
134.0 -38.3 55.0 229 228 226
18.7 -7.2 10.8 220 223 222
138.0 -42.6 63.3 189 189 189
128.0 -39.0 58.0 193 193 193
172.8 -52.2 77.5 194 194 194
128.5 -38.0 56.5 197 197 197
146.4 -40.8 60.6 194 194 194
135.2 -37.3 55.5 225 227 227
132.2 -36.2 53.7 231 231 231
228.2 -69.4 106.9 157 157 157
143.8 -42.8 65.9 192 192 192
137.2 -40.4 62.2 192 192 192
177.1 -51.6 79.5 196 196 196
157.2 -45.3 69.8 194 194 194
219.6 -62.1 95.5 197 197 197
213.2 -59.6 91.8 200 200 200
168.1 -45.7 70.3 204 204 204
150.7 -40.6 62.4 196 196 196
135.6 -36.1 55.6 225 227 227
132.6 -35.0 53.9 235 235 235
259.6 -67.9 104.5 108 108 108
222.3 -75.0 119.7 220 220 220
271.4 -82.3 131.4 221 221 221
369.3 -110.7 176.8 174 176 176
225.7 -66.2 105.7 161 161 161
151.2 -43.4 69.3 188 188 188
153.4 -43.6 69.5 190 190 190
186.5 -52.4 83.7 194 194 194
175.3 -48.8 77.8 194 194 194
243.1 -66.9 106.9 195 195 195
225.2 -61.4 98.0 197 197 197
215.3 -58.1 92.7 198 198 198
214.3 -57.2 91.4 200 200 200
222.8 -58.9 94.1 200 200 200
159.1 -41.3 65.9 199 199 199
262.5 -66.2 105.7 109 109 109
247.7 -81.5 135.1 221 221 221
235.7 -76.6 127.0 221 221 221
279.1 -81.5 135.1 219 219 219
411.6 -118.8 197.0 184 184 184
277.5 -79.2 131.4 109 109 109
229.5 -64.8 107.5 161 161 161
296.9 -80.3 133.2 193 193 193
177.5 -47.5 78.8 195 195 195
274.1 -72.7 120.5 195 195 195
231.2 -60.7 100.6 195 195 195
226.4 -58.8 97.5 198 198 198
227.4 -58.5 97.0 200 200 200
230.9 -58.8 97.5 202 202 202
360.9 -88.4 146.6 235 235 235
266.8 -84.4 145.5 221 221 221
249.1 -77.8 134.2 221 221 221
302.9 -85.0 146.6 220 220 220
399.1 -110.8 191.1 188 188 188
302.7 -83.1 143.3 69 72 71
322.5 -85.7 147.8 185 185 185
325.9 -85.7 147.8 190 190 190
331.9 -86.4 148.9 190 190 190
232.5 -58.7 101.2 195 195 195
229.9 -57.4 99.0 198 198 198
231.0 -57.1 98.5 202 202 202
233.3 -57.1 98.5 202 202 202
232.0 -56.2 97.0 205 205 205
366.5 -86.4 148.9 235 235 235
367.1 -85.7 147.8 100 102 102
279.7 -84.9 152.6 222 222 222
264.0 -79.2 142.2 222 222 222
399.1 -106.3 191.1 182 182 182
327.5 -86.3 155.1 68 71 70
227.6 -55.1 99.0 196 196 196
227.5 -54.6 98.0 198 198 198
226.3 -53.7 96.5 202 202 202
228.5 -53.7 96.5 202 202 202
630.3 -162.7 305.1 224 224 224
411.6 -105.1 197.0 173 173 173
344.4 -87.0 163.1 106 106 106
207.0 -48.0 90.1 196 196 196
212.1 -48.7 91.4 199 199 199
213.2 -48.5 90.9 202 202 202
208.3 -46.9 88.0 202 202 202
202.8 -45.2 84.8 203 203 203
134.4 -29.4 55.1 232 232 232
429.5 -104.9 205.6 170 171 170
347.4 -83.9 164.5 70 72 72
232.3 -51.1 100.1 196 196 196
228.6 -49.7 97.5 199 199 199
148.8 -31.4 61.6 195 195 195
134.0 -28.0 55.0 226 226 226
375.4 -77.8 152.6 225 227 227
50.3 -55.8 114.6 222 224 224
70.7 -57.2 117.5 224 226 226
71.6 -55.8 114.6 220 223 222
70.8 -53.2 109.3 220 223 222
266.4 -61.4 126.1 80 83 82
230.8 -52.6 108.1 140 140 140
250.2 -53.5 110.0 194 194 194
237.6 -50.3 103.4 196 196 196
225.2 -47.2 97.0 197 197 197
226.3 -47.0 96.5 199 199 199
153.8 -31.0 63.7 200 200 200
134.8 -26.9 55.3 218 218 218
300.3 -59.4 122.0 221 221 221
273.2 -53.5 110.0 122 122 122
285.7 -55.5 114.0 58 58 58
300.1 -57.2 117.5 68 68 68
277.0 -52.3 107.5 62 64 64
300.2 -55.5 119.7 45 44 43
299.2 -54.8 118.2 60 62 61
311.7 -56.6 122.0 67 67 67
34.6 -8.1 19.4 221 221 221
30.6 -6.8 17.3 221 221 221
31.1 -6.8 17.4 221 221 221
29.4 -6.3 16.9 222 222 222
30.1 -6.3 17.1 222 222 222
30.8 -6.4 17.2 222 222 222
-41.7 -105.4 350.3 212 213 212
803.9 -96.5 320.6 72 72 72
-46.0 -107.2 386.0 214 214 214
847.0 -93.8 337.8 72 72 72
994.9 -107.2 386.0 58 59 59
1177.2 -105.0 378.3 50 50 50
-44.2 -94.4 370.9 211 211 211
887.4 -100.3 394.1 189 189 189
914.1 -98.2 386.0 199 199 199
979.0 -100.3 394.1 113 114 113
817.8 -83.0 326.1 76 78 77
937.5 -92.5 363.8 58 59 59
1217.1 -100.3 394.1 49 49 49
1110.6 -90.8 356.9 36 37 36
1210.2 -98.2 386.0 165 165 165
878.3 -81.0 350.3 81 81 81
1201.3 -89.2 386.0 27 27 27
933.2 -81.9 394.1 200 200 200
817.8 -67.8 326.1 86 88 88
1177.2 -78.7 378.3 42 42 42
1210.2 -80.3 386.0 161 164 163
968.0 -71.3 386.0 84 84 84
21.8 -1.9 11.6 220 223 222
22.4 -1.9 11.5 220 223 222
22.4 -1.6 11.5 220 223 222
20.3 -1.2 10.7 222 224 224
15.9 -1.0 10.7 210 210 210
16.2 -1.0 10.7 214 214 214
16.6 -1.0 10.7 214 214 214
16.9 -1.0 10.7 216 216 216
17.2 -1.0 10.7 219 219 219
17.5 -1.0 10.8 219 222 221
17.7 -1.0 10.7 219 222 221
18.0 -1.0 10.7 219 222 221
18.2 -1.0 10.7 223 225 225
18.4 -1.0 10.7 223 225 225
18.7 -1.0 10.7 223 225 225
18.9 -1.0 10.7 223 225 225
19.2 -1.0 10.7 223 225 225
19.4 -1.0 10.7 223 225 225
20.4 -1.0 10.7 223 225 225
20.7 -1.0 10.7 223 225 225
17.8 -0.7 10.8 219 219 219
18.0 -0.7 10.8 220 223 222
18.2 -0.7 10.7 220 223 222
18.7 -0.7 10.8 220 223 222
20.3 -0.7 10.8 223 225 225
20.5 -0.7 10.8 223 225 225
20.7 -0.7 10.8 223 225 225
18.1 -0.5 10.7 222 224 224
18.5 -0.5 10.4 222 224 224
16.1 -0.2 10.4 208 208 208
16.3 -0.2 10.3 208 208 208
16.5 -0.2 10.3 208 208 208
17.4 -0.2 10.4 221 221 221
17.6 -0.2 10.4 221 221 221
17.8 -0.2 10.4 221 221 221
18.1 -0.2 10.4 222 224 224
18.2 -0.2 10.3 222 224 224
18.5 -0.2 10.4 222 224 224
18.7 -0.2 10.3 222 224 224
24.4 -0.3 13.3 222 224 224
24.5 -0.3 13.2 222 224 224
16.1 0.0 10.4 210 210 210
16.3 0.0 10.4 207 207 207
16.5 0.0 10.3 207 207 207
17.7 0.0 10.4 220 220 220
17.9 0.0 10.4 222 222 222
18.1 0.0 10.4 222 222 222
18.3 0.0 10.4 223 225 225
18.5 0.0 10.4 223 225 225
18.8 0.0 10.4 223 225 225
19.0 0.0 10.4 223 225 225
20.6 0.0 10.4 223 225 225
20.8 0.0 10.4 221 221 221
21.1 0.0 10.4 221 221 221
21.4 0.0 10.5 222 224 224
17.6 0.3 10.6 216 216 216
17.8 0.3 10.5 219 219 219
18.0 0.3 10.5 221 221 221
18.2 0.3 10.5 224 224 224
18.3 0.3 10.4 221 221 221
18.6 0.3 10.4 221 221 221
18.9 0.3 10.4 222 222 222
25.0 0.3 13.6 222 222 222
20.9 0.3 10.5 222 222 222
21.2 0.3 10.5 222 222 222
17.7 0.5 10.6 212 213 212
17.9 0.5 10.6 215 215 215
18.0 0.5 10.5 222 222 222
18.2 0.5 10.5 222 222 222
18.3 0.5 10.4 221 221 221
18.6 0.5 10.4 221 221 221
24.9 0.6 13.6 224 224 224
80.0 1.0 21.4 87 87 87
17.7 0.7 10.4 214 214 214
17.8 0.7 10.4 218 218 218
18.5 0.7 10.4 222 222 222
18.7 0.7 10.3 222 222 222
21.8 0.8 11.6 222 222 222
22.5 0.8 11.5 222 222 222
22.6 0.8 11.5 222 222 222
78.5 1.5 21.1 86 85 83
79.2 1.5 21.2 84 83 81
79.4 1.5 21.1 87 87 87
80.7 1.5 21.2 166 166 166
20.4 1.1 11.6 222 222 222
20.6 1.1 11.5 221 221 221
20.9 1.1 11.5 224 224 224
21.5 1.1 11.6 224 224 224
21.8 1.1 11.6 221 221 221
22.0 1.1 11.6 221 221 221
22.3 1.1 11.6 221 221 221
22.4 1.1 11.5 224 224 224
22.6 1.1 11.5 224 224 224
22.9 1.1 11.5 225 225 225
78.8 2.0 21.5 96 99 98
79.7 2.0 21.6 88 88 88
79.6 2.0 21.4 87 86 84
80.3 2.0 21.5 87 86 84
81.7 2.0 21.7 87 86 84
87.7 2.2 23.2 88 88 88
82.1 2.0 21.5 169 169 169
80.3 2.6 21.9 96 99 98
81.9 2.6 21.9 87 86 84
83.3 2.6 22.2 93 93 93
85.7 2.7 22.6 90 90 90
83.5 2.6 21.9 164 164 164
83.6 3.2 22.5 86 85 83
82.9 3.1 22.2 86 85 83
84.2 3.2 22.4 89 89 89
86.0 3.2 22.7 96 96 96
84.8 3.1 22.3 131 131 131
85.5 3.1 22.3 171 173 173
20.1 2.0 12.2 202 202 202
20.2 2.0 12.1 202 202 202
22.4 2.0 12.1 222 222 222
23.0 2.0 11.9 224 224 224
84.7 3.7 22.8 86 85 83
83.9 3.7 22.4 86 85 83
86.6 3.8 23.0 94 94 94
86.6 3.8 22.9 104 104 104
86.2 3.7 22.6 97 97 97
88.7 3.8 23.2 176 179 178
20.2 2.3 12.1 203 203 203
22.4 2.3 12.1 224 224 224
87.9 4.3 23.2 98 100 100
104.7 5.1 27.5 98 100 100
20.0 2.6 12.3 194 194 194
20.3 2.6 12.3 196 196 196
106.4 5.9 27.9 90 90 90
20.0 2.9 12.3 188 188 188
107.5 6.6 28.2 87 87 85
111.4 6.8 29.1 165 168 167
-28.4 8.9 10.1 152 154 154
25.0 9.6 10.4 125 125 125
25.1 9.6 10.3 190 190 190
18.5 9.9 10.4 218 218 218
24.9 10.0 10.4 200 202 202
25.1 9.9 10.4 125 125 125
25.3 9.9 10.4 183 186 185
25.6 9.9 10.4 186 188 187
18.6 10.2 10.4 219 219 219
19.3 10.1 10.4 220 220 220
23.1 10.2 10.5 198 198 198
23.3 10.2 10.4 200 200 200
23.5 10.2 10.4 201 203 203
23.7 10.2 10.4 201 203 203
23.9 10.2 10.4 201 203 203
25.0 10.2 10.5 211 211 211
25.2 10.2 10.4 144 146 146
25.4 10.2 10.4 184 187 186
25.6 10.2 10.4 187 189 189
25.8 10.2 10.4 192 192 192
18.7 10.5 10.5 219 219 219
18.9 10.5 10.5 219 219 219
19.2 10.5 10.5 221 221 221
23.2 10.5 10.5 198 198 198
23.4 10.5 10.5 202 202 202
23.6 10.5 10.5 202 204 204
23.9 10.5 10.5 202 204 204
24.2 10.5 10.5 202 204 204
24.4 10.5 10.5 205 208 207
25.2 10.5 10.5 202 204 204
25.3 10.5 10.5 160 160 160
25.6 10.5 10.5 193 193 193
25.8 10.5 10.5 193 193 193
26.0 10.5 10.5 195 195 195
25.3 10.9 10.6 203 205 205
14.6 11.0 10.5 71 71 71
14.7 10.9 10.4 55 55 55
24.7 14.4 10.1 205 208 207
25.2 14.4 10.2 207 210 209
988.1 632.5 394.1 129 129 129
