ply
format ascii 1.0
element vertex 2856
property float x
property float y
property float z
property uchar red
property uchar green
property uchar blue
end_header
102.6 -170.7 68.0 155 158 157
103.8 -170.1 67.8 155 158 157
105.8 -170.7 68.0 155 158 157
108.1 -172.0 68.5 156 159 158
110.1 -172.6 68.8 156 159 158
111.3 -172.0 68.5 156 159 158
112.5 -171.3 68.3 154 156 156
61.6 -88.9 35.4 155 158 157
62.0 -88.2 35.2 156 159 158
62.6 -87.9 35.0 156 159 158
75.5 -54.7 21.8 97 100 99
75.8 -54.6 21.8 97 100 99
76.2 -54.6 21.7 97 100 99
76.8 -54.6 21.8 94 94 94
77.6 -54.8 21.8 94 94 94
78.0 -54.7 21.8 97 100 99
60.7 -41.2 16.4 195 198 197
61.0 -41.2 16.4 179 182 181
61.4 -41.2 16.4 179 182 181
61.8 -41.2 16.4 169 169 169
62.2 -41.2 16.4 208 208 208
62.5 -41.2 16.4 216 216 216
62.9 -41.2 16.4 206 206 206
103.0 -169.8 68.3 159 159 159
102.0 -165.6 66.6 162 162 162
105.4 -168.5 67.8 159 159 159
108.5 -171.0 68.8 160 160 160
110.9 -172.2 69.3 160 160 160
112.5 -172.2 69.3 156 159 158
112.5 -169.8 68.3 154 156 156
62.5 -89.2 35.9 155 158 157
61.5 -86.8 34.9 156 159 158
61.7 -85.8 34.5 156 159 158
74.0 -52.4 21.1 94 97 96
63.5 -41.2 16.6 195 195 195
54.7 -194.1 78.8 164 164 164
56.6 -194.1 78.8 165 168 167
58.4 -194.1 78.8 165 168 167
60.2 -194.1 78.8 165 168 167
61.5 -192.5 78.2 165 168 167
63.4 -192.5 78.2 165 168 167
65.7 -194.1 78.8 165 168 167
67.0 -192.5 78.2 165 165 165
69.4 -194.1 78.8 165 165 165
70.3 -191.7 77.8 165 165 165
71.3 -189.4 76.9 165 165 165
74.9 -194.1 78.8 166 166 166
76.9 -190.1 77.2 166 166 166
78.7 -190.1 77.2 163 163 163
82.2 -194.1 78.8 163 163 163
83.7 -193.3 78.5 163 163 163
85.5 -193.3 78.5 163 163 163
87.0 -192.5 78.2 163 163 163
87.4 -189.4 76.9 163 163 163
94.4 -196.5 79.8 164 164 164
93.9 -191.7 77.8 164 164 164
96.1 -192.5 78.2 164 164 164
100.8 -198.2 80.5 164 164 164
96.1 -185.6 75.4 164 164 164
116.9 -217.7 88.4 164 164 164
113.6 -208.0 84.4 161 161 161
117.9 -205.2 83.3 158 158 158
116.6 -196.5 79.8 162 162 162
117.5 -194.9 79.1 162 162 162
119.8 -195.7 79.5 162 162 162
115.4 -185.6 75.4 162 162 162
114.4 -181.3 73.6 162 162 162
118.4 -184.8 75.1 163 163 163
130.0 -199.9 81.2 160 160 160
129.1 -195.7 79.5 160 160 160
124.6 -186.3 75.7 161 161 161
61.0 -84.1 34.1 159 162 161
71.9 -50.9 20.7 94 97 96
64.5 -41.7 16.9 189 189 189
63.5 -40.8 16.6 195 195 195
40.7 -186.8 76.6 162 162 162
50.2 -182.4 74.8 164 167 166
51.9 -182.4 74.8 164 167 166
53.7 -182.4 74.8 165 168 167
55.4 -182.4 74.8 165 168 167
57.1 -182.4 74.8 165 168 167
58.9 -182.4 74.8 165 168 167
60.6 -182.4 74.8 165 168 167
62.3 -182.4 74.8 165 165 165
63.8 -181.7 74.5 165 165 165
65.6 -181.7 74.5 165 165 165
67.6 -182.4 74.8 165 165 165
69.0 -181.7 74.5 165 165 165
71.0 -182.4 74.8 166 166 166
75.1 -188.3 77.2 163 163 163
74.5 -182.4 74.8 160 160 160
75.6 -181.0 74.2 163 163 163
78.3 -183.1 75.1 163 163 163
79.7 -182.4 74.8 163 163 163
80.8 -181.0 74.2 163 163 163
83.5 -183.1 75.1 163 163 163
84.3 -181.0 74.2 163 163 163
86.0 -181.0 74.2 163 163 163
88.4 -182.4 74.8 164 164 164
90.1 -182.4 74.8 164 164 164
91.5 -181.7 74.5 164 164 164
97.9 -190.7 78.2 164 164 164
93.5 -178.8 73.3 164 164 164
95.2 -178.8 73.3 164 164 164
110.6 -204.2 83.7 164 164 164
105.1 -190.7 78.2 164 164 164
101.1 -180.2 73.9 164 164 164
107.9 -189.1 77.5 161 161 161
110.6 -190.7 78.2 162 162 162
108.0 -183.1 75.1 165 165 165
110.1 -183.8 75.4 165 165 165
115.6 -189.9 77.8 162 162 162
118.8 -192.3 78.8 162 162 162
112.7 -179.5 73.6 162 162 162
110.1 -172.8 70.8 162 162 162
116.6 -180.2 73.9 163 163 163
125.1 -190.7 78.2 163 163 163
128.0 -192.3 78.8 164 164 164
124.1 -183.8 75.4 164 164 164
60.8 -83.0 34.0 159 162 161
71.8 -50.6 20.7 97 100 99
63.6 -40.8 16.7 198 201 200
62.8 -40.0 16.4 219 219 219
52.4 -165.6 68.5 165 168 167
54.0 -165.6 68.5 165 168 167
55.6 -165.6 68.5 165 168 167
57.1 -165.6 68.5 165 165 165
63.5 -165.6 68.5 165 165 165
81.6 -166.8 69.0 166 166 166
82.6 -165.6 68.5 164 164 164
83.3 -163.8 67.8 167 167 167
87.1 -168.0 69.5 167 167 167
88.4 -167.4 69.3 167 167 167
72.3 -134.4 55.6 167 167 167
67.2 -122.9 50.9 167 167 167
97.1 -174.4 72.2 164 164 164
93.1 -164.4 68.0 167 167 167
93.4 -162.1 67.1 167 167 167
98.4 -168.0 69.5 168 168 168
99.3 -166.8 69.0 168 168 168
120.7 -190.4 78.8 168 168 168
133.2 -204.0 84.4 166 166 166
139.5 -210.6 87.2 166 166 166
147.7 -219.7 90.9 166 166 166
137.3 -201.3 83.3 167 167 167
60.8 -82.2 34.0 163 163 163
60.4 -80.6 33.4 164 164 164
62.1 -39.6 16.4 179 182 181
61.6 -39.1 16.2 216 216 216
62.4 -39.4 16.3 216 216 216
48.7 -111.8 46.7 166 166 166
49.1 -110.1 46.0 166 166 166
56.7 -117.0 48.9 166 166 166
56.1 -113.4 47.4 168 170 169
57.0 -113.2 47.3 168 170 169
58.0 -112.9 47.2 168 170 169
58.9 -112.6 47.1 169 171 170
60.2 -112.9 47.2 169 171 170
61.7 -113.7 47.5 169 171 170
61.4 -111.2 46.5 169 171 170
71.7 -123.3 51.5 169 171 170
69.3 -117.3 49.0 169 171 170
69.9 -116.4 48.6 169 171 170
147.7 -224.1 93.6 171 173 173
154.5 -230.9 96.5 169 169 169
157.5 -232.1 97.0 169 169 169
149.8 -217.6 90.9 170 171 170
65.6 -45.0 18.8 94 97 96
65.1 -44.4 18.6 94 97 96
58.1 -36.5 15.3 216 216 216
57.2 -35.7 14.9 216 216 216
28.9 -95.6 40.3 165 168 167
29.9 -95.6 40.3 165 168 167
30.8 -95.6 40.3 165 168 167
31.7 -95.4 40.2 165 168 167
34.6 -95.6 40.3 165 168 167
35.6 -95.8 40.4 166 169 168
36.4 -95.6 40.3 166 169 168
36.9 -94.4 39.8 166 169 168
39.3 -95.8 40.4 166 169 168
40.4 -96.0 40.5 166 166 166
41.4 -96.2 40.6 166 169 168
43.4 -96.4 40.7 166 169 168
43.3 -94.2 39.7 168 170 169
46.0 -96.0 40.5 168 170 169
47.0 -96.0 40.5 168 170 169
47.9 -96.0 40.5 168 170 169
48.8 -96.0 40.5 168 170 169
49.8 -96.0 40.5 168 170 169
50.8 -96.2 40.6 169 171 170
51.9 -96.4 40.7 169 171 170
52.7 -96.2 40.6 169 171 170
53.3 -95.6 40.3 169 171 170
53.8 -94.8 40.0 169 171 170
55.7 -96.4 40.7 171 173 173
66.3 -112.9 47.6 171 173 173
61.5 -103.0 43.5 171 173 173
59.7 -96.8 40.9 170 172 172
157.9 -237.2 100.1 173 175 175
172.6 -251.8 106.3 171 173 173
66.7 -45.4 19.1 97 100 99
68.8 -46.2 19.5 94 94 94
53.1 -33.0 13.9 220 220 220
52.0 -32.2 13.6 219 219 219
26.7 -87.2 37.2 165 168 167
27.5 -87.0 37.1 165 168 167
28.3 -87.0 37.1 165 168 167
29.1 -86.9 37.0 165 168 167
30.0 -86.9 37.0 165 168 167
30.9 -86.9 37.0 169 171 170
31.8 -87.0 37.1 169 171 170
32.7 -87.2 37.2 169 171 170
34.5 -89.5 38.1 169 171 170
34.4 -87.2 37.2 166 169 168
35.1 -86.7 36.9 169 171 170
36.2 -87.2 37.2 170 172 172
37.0 -87.0 37.1 170 172 172
37.8 -87.0 37.1 170 172 172
38.6 -86.9 37.0 170 172 172
39.5 -87.0 37.1 166 169 168
40.6 -87.4 37.2 170 172 172
41.1 -86.7 36.9 175 175 175
43.8 -88.6 37.8 168 170 169
43.7 -86.7 36.9 175 175 175
44.7 -87.0 37.1 179 179 179
47.2 -90.0 38.4 176 176 176
46.5 -87.2 37.2 171 173 173
47.5 -87.4 37.2 176 176 176
48.5 -87.5 37.3 179 179 179
49.4 -87.7 37.4 179 179 179
50.0 -87.2 37.2 179 179 179
51.1 -87.5 37.3 176 176 176
53.1 -89.5 38.1 182 182 182
56.6 -93.8 40.0 177 177 177
55.0 -89.7 38.2 180 180 180
55.6 -89.3 38.1 177 177 177
188.1 -275.7 117.5 178 178 178
184.0 -265.8 113.3 178 178 178
194.8 -277.4 118.2 179 179 179
185.9 -261.1 111.3 174 176 176
67.1 -45.5 19.4 97 100 99
66.2 -44.6 19.0 97 100 99
66.2 -44.3 18.9 97 100 99
67.1 -44.6 19.0 94 97 96
66.0 -43.6 18.6 94 97 96
44.1 -27.2 11.6 219 219 219
25.9 -83.9 36.1 173 173 173
26.7 -83.9 36.1 169 171 170
27.5 -83.7 36.0 169 171 170
28.4 -83.7 36.0 177 177 177
29.1 -83.4 35.9 165 168 167
29.9 -83.4 35.9 174 174 174
33.0 -84.8 36.5 177 177 177
33.6 -84.2 36.2 180 180 180
34.1 -83.4 35.9 175 175 175
37.0 -84.2 36.2 186 186 186
37.8 -84.2 36.2 189 189 189
39.4 -84.0 36.2 189 189 189
39.9 -83.4 35.9 191 191 191
42.2 -84.5 36.4 193 193 193
42.4 -83.4 35.9 193 193 193
43.4 -83.7 36.0 195 195 195
44.4 -84.0 36.2 198 198 198
45.3 -84.0 36.2 195 195 195
46.5 -84.7 36.4 195 195 195
47.5 -85.0 36.6 198 198 198
48.2 -84.7 36.4 202 202 202
48.6 -83.9 36.1 198 198 198
49.7 -84.3 36.3 195 195 195
50.7 -84.7 36.4 198 198 198
51.7 -84.8 36.5 202 202 202
52.7 -85.2 36.7 202 202 202
52.5 -83.4 35.9 198 198 198
54.5 -85.3 36.7 202 202 202
158.7 -233.7 100.6 199 199 199
161.1 -233.7 100.6 196 196 196
167.9 -240.1 103.4 199 199 199
177.1 -249.7 107.5 200 200 200
178.5 -248.3 106.9 200 200 200
155.5 -213.3 91.8 197 197 197
65.0 -43.0 18.5 97 100 99
65.3 -42.7 18.4 94 97 96
42.5 -25.7 11.1 219 219 219
46.4 -82.2 35.8 202 202 202
47.1 -81.9 35.6 202 202 202
46.8 -80.0 34.8 205 205 205
48.0 -80.7 35.1 202 202 202
48.9 -80.9 35.2 202 202 202
50.4 -81.9 35.6 202 202 202
51.0 -81.6 35.5 202 202 202
49.7 -78.2 34.0 202 202 202
49.3 -76.3 33.2 202 202 202
152.3 -222.0 96.5 203 203 203
156.1 -224.2 97.5 203 203 203
160.0 -226.6 98.5 203 203 203
163.1 -227.8 99.0 204 204 204
174.6 -240.4 104.5 204 204 204
156.3 -212.2 92.3 204 204 204
26.6 -34.3 14.9 206 206 206
26.3 -33.5 14.6 206 206 206
41.7 -25.0 10.9 219 219 219
46.8 -82.0 36.0 205 205 205
46.8 -80.6 35.4 205 205 205
46.4 -78.6 34.5 202 202 202
47.5 -79.0 34.7 205 205 205
48.4 -79.2 34.8 205 205 205
50.2 -80.8 35.5 205 205 205
50.2 -79.5 34.9 205 205 205
49.5 -77.0 33.8 205 205 205
48.3 -74.1 32.6 208 208 208
161.6 -236.6 103.9 202 202 202
153.0 -220.8 97.0 206 206 206
156.9 -223.1 98.0 206 206 206
159.2 -223.1 98.0 206 206 206
159.0 -219.7 96.5 204 204 204
170.8 -232.8 102.3 204 204 204
160.2 -215.3 94.6 204 204 204
26.8 -34.2 15.0 206 206 206
26.6 -33.5 14.7 206 206 206
42.0 -24.9 11.0 216 216 216
46.3 -77.5 34.4 205 205 205
46.1 -75.8 33.7 208 208 208
48.6 -78.6 34.9 208 208 208
49.9 -79.5 35.3 205 205 205
47.9 -73.9 32.8 205 205 205
47.6 -72.2 32.1 205 205 205
47.9 -71.6 31.8 205 205 205
157.1 -224.3 99.6 206 206 206
156.7 -217.5 96.5 206 206 206
158.2 -216.4 96.0 207 207 207
169.0 -227.9 101.2 207 207 207
163.5 -217.5 96.5 207 207 207
28.3 -37.1 16.5 207 207 207
27.4 -35.1 15.6 205 205 205
27.1 -34.2 15.2 206 206 206
40.7 -66.3 29.7 208 208 208
47.2 -72.0 32.3 208 208 208
47.4 -71.3 32.0 208 208 208
45.3 -67.1 30.1 208 208 208
45.7 -66.5 29.8 210 210 210
161.7 -222.0 99.6 206 206 206
28.5 -36.5 16.4 207 207 207
27.7 -35.1 15.7 208 208 208
27.3 -34.0 15.3 205 205 205
27.5 -33.9 15.2 205 205 205
21.1 -64.9 29.4 207 207 207
21.8 -64.8 29.4 210 210 210
22.4 -64.8 29.4 210 210 210
23.1 -64.8 29.4 210 210 210
23.8 -64.8 29.4 210 210 210
39.8 -65.2 29.6 207 207 207
40.4 -65.1 29.5 207 207 207
40.9 -64.8 29.4 207 207 207
44.2 -65.7 29.8 207 207 207
44.6 -65.3 29.6 207 207 207
45.3 -65.2 29.6 207 207 207
164.3 -223.2 101.2 208 208 208
28.5 -36.1 16.4 207 207 207
27.7 -34.6 15.7 207 207 207
27.3 -33.7 15.3 207 207 207
27.4 -33.4 15.1 208 208 208
22.5 -64.3 29.5 210 210 210
23.2 -64.3 29.5 209 209 209
40.5 -64.6 29.6 207 207 207
44.5 -65.5 30.0 207 207 207
44.7 -64.7 29.6 207 207 207
45.3 -64.6 29.6 207 207 207
28.6 -35.8 16.4 206 206 206
27.8 -34.5 15.8 206 206 206
27.4 -33.4 15.3 207 207 207
-29.9 -23.0 10.6 47 47 47
-28.8 -23.0 10.7 47 47 47
-28.5 -23.0 10.7 47 47 47
-28.3 -23.0 10.7 47 47 47
-27.3 -23.0 10.7 47 47 47
-27.0 -23.0 10.7 47 47 47
-26.8 -23.0 10.7 45 44 43
-26.6 -23.0 10.7 45 44 43
-26.3 -23.0 10.7 45 44 43
-26.1 -23.0 10.7 45 44 43
-25.8 -23.0 10.7 45 44 43
-25.5 -23.0 10.7 41 41 41
-25.3 -23.0 10.7 41 41 41
-25.0 -22.9 10.6 39 39 39
-24.8 -23.0 10.7 39 39 39
-24.5 -23.0 10.7 39 39 39
-24.3 -23.0 10.7 36 36 36
-24.1 -23.0 10.7 39 39 39
-23.8 -23.0 10.7 41 41 41
-23.6 -23.0 10.7 41 41 41
-22.6 -23.0 10.7 47 48 47
-21.6 -23.0 10.6 91 91 91
-21.2 -22.9 10.6 92 92 92
-21.1 -23.0 10.6 99 99 99
-20.9 -23.0 10.7 103 103 103
-20.6 -23.0 10.6 105 105 105
-19.9 -23.0 10.7 105 107 107
-19.5 -22.9 10.6 107 109 109
-19.3 -23.0 10.6 111 111 111
-19.1 -23.0 10.7 111 111 111
-18.8 -23.0 10.6 112 112 112
-18.6 -23.0 10.7 112 112 112
-18.4 -23.0 10.7 112 112 112
-18.1 -23.0 10.7 115 114 114
-17.9 -23.0 10.7 113 114 113
-17.6 -22.9 10.6 113 114 113
-17.4 -23.0 10.7 116 118 117
-14.5 -22.7 10.5 125 125 125
-9.5 -23.0 10.7 140 139 138
47.1 -70.8 32.8 206 206 206
46.5 -68.8 31.8 206 206 206
46.1 -67.1 31.1 208 208 208
45.8 -65.6 30.4 206 206 206
46.6 -65.7 30.4 206 206 206
28.0 -34.3 15.9 206 206 206
27.4 -33.2 15.4 206 206 206
27.5 -32.8 15.2 206 206 206
-30.5 -23.2 10.8 47 48 47
-30.4 -23.3 10.9 47 48 47
-30.2 -23.3 10.9 47 48 47
-27.1 -23.3 10.9 42 43 42
-25.1 -23.3 10.9 42 42 42
-24.8 -23.3 10.9 40 40 40
-23.4 -23.3 10.9 42 42 42
-23.0 -23.2 10.9 45 44 43
-22.8 -23.2 10.9 47 47 47
-22.5 -23.3 10.9 47 47 47
-22.4 -23.3 10.9 50 50 50
-22.1 -23.3 10.9 64 64 64
-21.8 -23.2 10.9 79 81 80
-21.6 -23.3 10.9 86 88 88
-21.3 -23.3 10.9 94 97 96
-21.0 -23.2 10.9 94 97 96
-20.8 -23.2 10.9 102 102 102
-20.1 -23.3 10.9 103 103 103
-19.8 -23.3 10.9 106 108 108
-19.5 -23.3 10.9 106 108 108
-19.2 -23.2 10.9 106 108 108
-19.0 -23.3 10.9 106 108 108
-18.8 -23.3 10.9 107 109 109
-18.5 -23.3 10.9 107 109 109
-18.3 -23.3 10.9 111 111 111
-9.9 -23.2 10.8 137 137 137
-9.7 -23.3 10.9 137 139 138
-9.4 -23.4 10.9 139 139 139
-8.4 -23.3 10.9 143 143 142
-7.4 -23.2 10.9 142 144 143
50.5 -76.3 35.7 206 206 206
46.6 -68.2 31.9 208 208 208
45.6 -64.6 30.2 206 206 206
46.4 -64.8 30.3 206 206 206
28.2 -34.1 16.0 205 205 205
27.7 -33.2 15.5 203 203 203
27.4 -32.4 15.2 203 203 203
-25.2 -26.3 12.4 47 48 47
-23.5 -26.3 12.4 93 93 93
-22.2 -25.5 12.1 97 100 99
-11.2 -24.7 11.7 131 131 131
-10.7 -24.3 11.5 131 134 133
48.8 -71.8 34.0 208 208 208
46.7 -67.5 32.0 208 208 208
47.7 -65.9 31.2 207 207 207
27.4 -33.8 16.0 207 207 207
28.1 -33.6 15.9 209 209 209
27.8 -32.8 15.5 208 208 208
27.5 -32.1 15.2 208 208 208
-40.1 -29.8 14.2 48 48 48
-39.7 -29.7 14.2 48 48 48
-35.1 -29.7 14.2 47 46 45
-34.8 -29.7 14.2 47 46 45
-29.5 -29.8 14.2 39 39 39
-29.0 -29.6 14.2 42 43 42
-28.5 -29.4 14.1 42 43 42
-28.3 -29.5 14.1 44 44 44
-27.9 -29.8 14.3 44 44 44
-27.2 -29.4 14.1 44 44 44
-27.2 -29.8 14.2 56 56 56
-26.8 -29.8 14.2 81 84 83
-26.3 -29.5 14.1 93 93 93
-26.2 -29.8 14.2 93 93 93
-25.9 -29.8 14.3 91 91 91
-25.4 -29.7 14.2 97 100 99
-24.9 -29.4 14.1 97 100 99
-24.6 -29.5 14.1 99 101 101
-24.2 -29.4 14.1 102 102 102
50.6 -74.8 35.8 207 207 207
49.6 -72.2 34.5 207 207 207
47.1 -67.4 32.2 207 207 207
44.8 -62.2 29.7 207 207 207
27.4 -33.4 16.0 206 206 206
27.6 -33.2 15.9 207 207 207
28.1 -33.3 15.9 207 207 207
27.5 -32.2 15.4 207 207 207
-41.5 -30.5 14.7 49 49 49
-41.3 -30.6 14.8 52 52 52
-40.9 -30.6 14.8 52 52 52
-40.6 -30.6 14.8 52 52 52
-40.2 -30.6 14.8 52 52 52
-39.9 -30.6 14.8 53 53 53
-39.5 -30.6 14.8 53 53 53
-39.2 -30.6 14.8 53 53 53
-38.9 -30.6 14.8 53 53 53
-38.5 -30.6 14.8 53 53 53
-38.2 -30.6 14.8 53 53 53
-37.8 -30.5 14.8 53 53 53
-37.5 -30.6 14.8 52 52 52
-37.1 -30.5 14.8 52 52 52
-36.7 -30.5 14.8 49 49 49
-36.5 -30.6 14.8 49 49 49
-36.1 -30.6 14.8 49 49 49
-35.8 -30.6 14.8 47 46 45
-35.4 -30.6 14.8 44 44 44
-35.1 -30.6 14.8 44 44 44
-34.7 -30.6 14.8 44 44 44
-34.4 -30.6 14.8 44 44 44
-34.1 -30.6 14.8 44 44 44
-33.7 -30.6 14.8 44 44 44
-33.4 -30.6 14.8 44 44 44
-33.0 -30.6 14.8 44 44 44
-32.7 -30.5 14.8 44 44 44
-32.3 -30.6 14.8 44 44 44
-32.0 -30.6 14.8 42 43 42
-31.6 -30.6 14.8 42 43 42
-31.3 -30.5 14.8 40 40 40
-31.0 -30.6 14.8 40 40 40
-30.6 -30.5 14.8 43 43 43
-29.9 -30.6 14.8 43 43 43
-29.5 -30.5 14.8 43 43 43
-29.2 -30.6 14.8 43 43 43
-28.8 -30.5 14.7 43 43 43
-28.2 -30.6 14.8 48 47 46
-27.9 -30.6 14.8 45 45 45
-27.5 -30.6 14.8 49 49 49
-27.1 -30.5 14.7 67 67 67
-26.8 -30.5 14.8 90 90 90
-26.5 -30.5 14.8 94 94 94
-26.1 -30.5 14.7 95 95 95
-25.4 -30.5 14.8 99 101 101
-15.5 -30.5 14.8 112 114 113
-13.4 -30.6 14.8 117 116 115
-13.1 -30.5 14.8 112 112 112
11.3 -30.5 14.8 210 210 210
12.3 -30.5 14.8 207 207 207
12.7 -30.5 14.8 207 207 207
16.1 -30.5 14.8 207 207 207
17.8 -30.6 14.8 207 207 207
49.8 -71.6 34.6 207 207 207
46.9 -66.4 32.1 207 207 207
44.8 -62.4 30.2 207 207 207
44.6 -61.2 29.6 207 207 207
27.6 -33.3 16.1 206 206 206
27.8 -33.0 16.0 206 206 206
28.2 -33.0 16.0 206 206 206
27.4 -31.7 15.4 206 206 206
26.8 -30.6 14.8 207 207 207
27.8 -30.5 14.8 207 207 207
-41.6 -30.2 14.8 54 54 54
-40.7 -30.3 14.8 54 54 54
-39.0 -30.3 14.8 53 52 52
-38.3 -30.3 14.8 57 58 56
-37.9 -30.3 14.8 57 58 56
-36.9 -30.3 14.8 53 52 52
-36.5 -30.3 14.8 50 50 50
-33.1 -30.3 14.8 45 45 45
-32.1 -30.3 14.8 45 45 45
-31.4 -30.3 14.8 44 44 44
-31.0 -30.3 14.8 41 41 41
-30.6 -30.2 14.8 44 44 44
-29.9 -30.5 14.9 44 44 44
-29.6 -30.6 15.0 42 42 42
-28.9 -30.2 14.8 42 42 42
-28.6 -30.2 14.8 42 42 42
-27.6 -30.3 14.8 47 47 47
-27.4 -30.5 14.9 47 47 47
-27.0 -30.4 14.9 50 49 48
-26.6 -30.3 14.8 54 54 54
-26.1 -30.2 14.8 77 77 77
-25.8 -30.2 14.8 97 97 97
-25.5 -30.2 14.8 99 99 99
-15.5 -30.3 14.8 102 104 104
-15.1 -30.1 14.7 101 103 103
-14.8 -30.1 14.7 91 94 93
-14.5 -30.2 14.8 72 71 69
-14.1 -30.2 14.8 72 72 72
-13.8 -30.2 14.8 61 61 61
-13.6 -30.5 14.9 44 44 44
-13.1 -30.2 14.8 17 17 17
6.8 -30.2 14.8 207 207 207
11.3 -30.3 14.8 209 209 209
12.7 -30.3 14.8 209 209 209
13.0 -30.3 14.8 209 209 209
16.2 -30.4 14.9 206 206 206
16.4 -30.2 14.8 206 206 206
17.9 -30.3 14.8 206 206 206
46.8 -65.4 32.0 206 206 206
45.0 -62.0 30.3 206 206 206
45.0 -61.0 29.8 206 206 206
27.7 -33.0 16.2 208 208 208
27.7 -32.5 15.9 205 205 205
27.3 -31.2 15.3 206 206 206
27.4 -31.0 15.2 206 206 206
27.8 -30.2 14.8 207 207 207
-41.6 -29.9 14.8 51 51 51
-41.6 -30.1 14.9 55 55 55
-41.2 -30.1 14.9 53 52 52
-40.9 -30.1 14.9 55 55 55
-40.5 -30.1 14.9 55 55 55
-40.2 -30.1 14.9 55 55 55
-39.8 -30.1 14.9 58 59 57
-39.5 -30.1 14.9 58 59 57
-39.2 -30.1 14.9 55 55 55
-38.8 -30.1 14.9 58 59 57
-38.4 -30.1 14.9 58 59 57
-37.8 -30.1 14.9 58 59 57
-37.4 -30.1 14.9 55 55 55
-37.1 -30.1 14.9 53 53 53
-35.6 -30.1 14.9 49 48 47
-34.3 -30.1 14.9 50 49 48
-33.9 -30.1 14.9 50 49 48
-33.6 -30.1 14.9 46 46 46
-33.1 -29.9 14.8 46 46 46
-32.7 -29.9 14.8 46 46 46
-32.4 -29.9 14.8 46 46 46
-32.2 -30.1 14.9 47 47 47
-31.9 -30.1 14.9 47 47 47
-31.5 -30.1 14.9 47 47 47
-29.5 -30.1 14.9 42 43 42
-29.1 -30.1 14.9 41 41 41
-28.6 -30.0 14.8 41 41 41
-28.4 -30.1 14.9 42 42 42
-28.1 -30.1 14.9 42 43 42
-27.7 -30.1 14.9 42 42 42
-27.4 -30.1 14.9 43 43 43
-27.0 -30.1 14.9 43 43 43
-26.7 -30.1 14.9 43 43 43
-26.1 -29.8 14.8 52 52 52
-25.5 -29.9 14.8 52 52 52
-15.5 -29.9 14.8 19 23 20
-15.1 -29.8 14.7 24 24 24
-14.7 -29.6 14.7 29 30 28
-14.6 -30.0 14.9 25 25 25
-14.1 -29.9 14.8 27 29 27
-13.8 -29.9 14.8 27 29 27
6.5 -30.1 14.9 180 180 180
6.8 -29.9 14.8 204 204 204
7.2 -30.1 14.9 206 206 206
7.6 -30.1 14.9 209 209 209
7.9 -30.0 14.9 209 209 209
8.2 -30.0 14.8 209 209 209
8.6 -30.1 14.9 209 209 209
9.0 -30.1 14.9 209 209 209
9.3 -30.1 14.9 209 209 209
9.6 -30.1 14.9 209 209 209
10.0 -30.1 14.9 209 209 209
10.3 -30.1 14.9 209 209 209
10.7 -30.1 14.9 209 209 209
11.0 -30.0 14.9 209 209 209
11.3 -30.0 14.8 209 209 209
11.7 -30.0 14.9 209 209 209
12.1 -30.1 14.9 209 209 209
12.4 -30.1 14.9 209 209 209
12.7 -30.0 14.8 209 209 209
13.1 -30.0 14.8 209 209 209
13.5 -30.1 14.9 209 209 209
13.8 -30.1 14.9 209 209 209
14.1 -30.1 14.9 206 206 206
14.5 -30.1 14.9 206 206 206
14.8 -30.1 14.9 206 206 206
15.2 -30.1 14.9 206 206 206
15.5 -30.1 14.9 206 206 206
15.9 -30.2 14.9 206 206 206
16.2 -30.1 14.9 206 206 206
20.0 -36.4 18.0 206 206 206
20.3 -36.2 17.9 206 206 206
17.7 -30.2 15.0 206 206 206
17.9 -30.1 14.9 206 206 206
18.2 -29.9 14.8 209 209 209
18.6 -30.1 14.9 206 206 206
45.8 -63.4 31.4 206 206 206
44.2 -60.1 29.7 206 206 206
44.7 -59.9 29.6 206 206 206
45.9 -60.6 30.0 206 206 206
47.7 -61.1 30.2 206 206 206
182.1 -217.2 107.5 207 207 207
27.0 -30.5 15.1 208 208 208
27.8 -30.3 15.0 206 206 206
27.9 -30.0 14.8 206 206 206
-14.3 -29.8 14.9 27 27 27
20.1 -36.2 18.1 205 205 205
44.7 -61.0 30.6 205 205 205
43.8 -59.0 29.5 208 208 208
44.6 -59.1 29.6 205 205 205
45.3 -59.0 29.6 205 205 205
47.4 -60.1 30.1 206 206 206
47.8 -59.7 29.9 206 206 206
50.1 -59.1 29.6 206 206 206
27.1 -30.3 15.2 207 207 207
28.3 -30.4 15.2 205 205 205
28.2 -29.9 15.0 205 205 205
-35.5 -24.9 12.6 56 56 56
-35.2 -24.9 12.6 54 54 54
-34.9 -24.9 12.6 59 60 58
-34.6 -24.9 12.6 59 60 58
-34.3 -24.9 12.6 59 60 58
-34.0 -24.9 12.6 59 60 58
-33.7 -24.9 12.6 59 60 58
-33.4 -24.9 12.6 59 60 58
-33.1 -24.9 12.6 59 60 58
-32.8 -24.9 12.6 59 60 58
-32.5 -24.9 12.6 59 60 58
-32.3 -24.9 12.6 59 60 58
-32.0 -24.9 12.6 59 60 58
-31.7 -24.9 12.6 59 60 58
-31.3 -24.8 12.6 57 57 57
-31.0 -24.8 12.6 55 55 55
-30.7 -24.8 12.6 53 52 52
-30.5 -24.9 12.6 53 52 52
-30.2 -24.9 12.6 51 50 48
-29.9 -24.8 12.6 51 50 48
-29.6 -24.8 12.6 51 51 49
-29.3 -24.9 12.6 51 51 49
-29.2 -25.0 12.7 51 51 49
-28.8 -24.9 12.6 51 51 49
-28.4 -24.8 12.6 51 51 49
-28.1 -24.9 12.6 47 48 47
-27.8 -24.9 12.6 47 48 47
-27.5 -24.8 12.6 48 48 48
-27.2 -24.8 12.6 48 48 48
-27.0 -24.9 12.6 48 48 48
-26.8 -24.9 12.6 48 48 48
-26.4 -24.8 12.6 48 48 48
-26.1 -24.8 12.6 47 47 47
-25.8 -24.9 12.6 47 47 47
-25.6 -24.9 12.6 44 44 44
-25.2 -24.8 12.6 44 44 44
-24.9 -24.8 12.6 47 48 47
-24.6 -24.9 12.6 44 44 44
-24.4 -24.9 12.6 45 45 45
-24.2 -25.0 12.7 45 45 45
-23.8 -24.9 12.6 45 45 45
-23.4 -24.8 12.5 43 43 43
-23.2 -24.9 12.6 41 41 41
-22.9 -24.9 12.6 42 42 42
-22.6 -24.9 12.6 42 42 42
-22.3 -24.9 12.6 41 40 38
-22.1 -24.9 12.6 41 41 39
-21.7 -24.9 12.6 41 41 39
-21.3 -24.8 12.6 45 45 45
-21.0 -24.8 12.6 47 47 47
-20.6 -24.9 12.6 47 47 47
-20.2 -24.8 12.6 49 49 49
-19.3 -24.8 12.6 67 68 66
-19.0 -24.8 12.5 59 60 58
-18.8 -24.8 12.6 31 32 30
-18.6 -25.0 12.7 18 18 18
-18.2 -24.9 12.6 20 23 21
-17.9 -24.9 12.6 9 14 10
-12.8 -25.2 12.7 26 26 26
-12.4 -24.9 12.6 29 31 29
-12.0 -24.8 12.6 29 30 28
-11.2 -24.9 12.6 27 29 27
-10.7 -24.4 12.4 31 31 31
-10.3 -25.0 12.7 37 37 35
-10.0 -24.8 12.6 146 146 146
-9.7 -24.9 12.6 186 186 186
-9.5 -25.0 12.7 187 189 189
-9.2 -25.0 12.7 183 186 185
7.3 -25.1 12.7 210 210 210
7.6 -25.0 12.7 208 208 208
7.9 -24.9 12.6 208 208 208
8.2 -24.9 12.6 208 208 208
8.5 -24.9 12.6 208 208 208
8.8 -24.9 12.6 208 208 208
9.1 -24.9 12.6 208 208 208
9.3 -24.9 12.6 208 208 208
9.6 -24.9 12.6 208 208 208
9.9 -24.9 12.6 208 208 208
14.1 -24.9 12.6 208 208 208
14.4 -25.0 12.6 208 208 208
14.6 -24.8 12.6 208 208 208
14.8 -24.7 12.5 208 208 208
15.5 -24.9 12.6 208 208 208
15.8 -24.9 12.6 208 208 208
44.6 -60.2 30.5 208 208 208
43.9 -58.4 29.6 208 208 208
44.9 -58.8 29.8 208 208 208
45.4 -58.5 29.6 205 205 205
47.9 -59.9 30.4 208 208 208
48.0 -59.2 30.0 205 205 205
47.2 -57.4 29.1 205 205 205
48.4 -58.0 29.4 206 206 206
51.4 -60.7 30.8 206 206 206
50.3 -58.6 29.7 206 206 206
27.4 -30.2 15.3 207 207 207
28.5 -29.9 15.2 207 207 207
-35.8 -24.8 12.7 59 61 59
-35.5 -24.8 12.7 59 61 59
-35.2 -24.8 12.7 59 61 59
-34.9 -24.8 12.7 59 61 59
-34.6 -24.8 12.7 59 61 59
-34.3 -24.8 12.7 59 61 59
-34.0 -24.8 12.7 59 61 59
-33.7 -24.8 12.7 59 61 59
-33.4 -24.8 12.7 59 61 59
-33.1 -24.8 12.7 59 61 59
-32.8 -24.8 12.7 59 61 59
-32.6 -24.8 12.7 58 58 58
-32.2 -24.8 12.7 59 61 59
-32.0 -24.8 12.7 58 58 58
-31.6 -24.8 12.7 55 55 55
-31.1 -24.8 12.7 53 53 53
-30.8 -24.8 12.7 53 53 53
-30.5 -24.8 12.7 53 53 53
-29.8 -24.7 12.7 52 52 50
-29.6 -24.8 12.7 52 52 50
-29.5 -25.0 12.8 52 52 50
-29.0 -24.8 12.7 52 52 50
-28.6 -24.8 12.7 48 48 48
-28.4 -24.8 12.7 48 48 48
-28.1 -24.8 12.7 49 49 49
-27.8 -24.8 12.7 49 49 49
-27.5 -24.8 12.7 49 49 49
-27.3 -24.8 12.7 49 49 49
-26.9 -24.8 12.7 49 49 49
-26.6 -24.8 12.7 49 49 49
-26.3 -24.8 12.7 49 49 49
-26.1 -24.8 12.7 48 48 48
-25.8 -24.9 12.7 48 48 48
-25.4 -24.8 12.7 48 48 48
-25.1 -24.8 12.7 48 48 48
-24.9 -24.8 12.7 46 46 46
-24.5 -25.0 12.8 48 48 48
-24.0 -24.8 12.7 46 46 46
-23.4 -24.8 12.7 42 43 42
-23.1 -24.8 12.7 42 43 42
-22.8 -24.8 12.7 42 43 42
-22.5 -24.8 12.7 41 41 39
-22.2 -24.9 12.7 42 42 40
-21.9 -24.8 12.7 42 42 40
-21.5 -24.7 12.7 42 42 40
-21.2 -24.7 12.6 42 42 40
-21.0 -24.8 12.7 43 42 41
-20.9 -25.0 12.8 41 41 41
-20.4 -24.8 12.7 41 41 41
-19.1 -24.6 12.6 19 19 19
-18.9 -24.7 12.7 20 20 20
-18.3 -24.8 12.7 19 19 19
-17.6 -24.6 12.6 20 20 20
-12.9 -25.1 12.9 29 31 29
-11.9 -24.9 12.7 29 30 28
-11.6 -24.9 12.7 29 30 28
-11.3 -24.8 12.7 31 30 29
-10.8 -24.3 12.5 31 31 31
-10.7 -24.8 12.7 39 39 39
-10.4 -24.8 12.7 42 43 42
-10.0 -24.7 12.6 164 164 164
-9.5 -24.9 12.7 186 188 187
-9.2 -24.8 12.7 191 191 191
-8.9 -24.8 12.7 226 229 228
9.1 -24.8 12.7 207 207 207
14.4 -24.8 12.7 207 207 207
14.7 -24.7 12.7 207 207 207
44.6 -59.5 30.5 207 207 207
43.8 -57.6 29.5 207 207 207
44.9 -58.1 29.8 207 207 207
45.6 -58.1 29.8 207 207 207
47.9 -59.2 30.4 208 208 208
48.3 -58.9 30.2 208 208 208
47.7 -57.3 29.4 208 208 208
48.4 -57.3 29.4 205 205 205
51.4 -60.0 30.8 203 203 203
50.2 -57.9 29.6 205 205 205
29.4 -30.9 15.8 206 206 206
28.6 -29.7 15.2 207 207 207
31.7 -30.3 15.5 203 203 203
-36.2 -24.8 12.9 59 61 59
-35.9 -24.8 12.9 59 61 59
-35.6 -24.8 12.9 59 61 59
-35.3 -24.8 12.9 60 62 60
-35.0 -24.8 12.9 60 62 60
-34.7 -24.8 12.9 60 62 60
-34.4 -24.8 12.9 60 62 60
-34.1 -24.8 12.9 60 62 60
-33.8 -24.8 12.9 60 62 60
-33.5 -24.8 12.9 60 62 60
-33.2 -24.8 12.9 60 62 60
-32.9 -24.8 12.9 64 64 64
-32.6 -24.8 12.9 64 64 64
-32.4 -24.8 12.9 60 62 60
-32.0 -24.8 12.9 58 59 59
-31.7 -24.8 12.9 56 56 56
-31.4 -24.8 12.9 56 56 56
-31.1 -24.8 12.9 54 54 54
-30.8 -24.8 12.9 54 54 54
-30.6 -24.8 12.9 52 52 50
-30.2 -24.8 12.8 53 52 51
-29.9 -24.8 12.9 53 52 51
-29.7 -24.9 12.9 53 52 51
-29.3 -24.8 12.9 53 52 51
-29.0 -24.8 12.8 53 52 51
-28.8 -24.8 12.9 49 49 49
-28.5 -24.8 12.9 50 50 50
-28.1 -24.8 12.9 50 50 50
-27.9 -24.8 12.9 50 50 50
-27.6 -24.8 12.9 50 50 50
-27.2 -24.8 12.9 50 50 50
-26.9 -24.8 12.8 50 50 50
-26.6 -24.8 12.9 50 50 50
-26.4 -24.8 12.9 51 51 51
-26.1 -24.8 12.9 49 49 49
-25.7 -24.8 12.9 49 49 49
-25.4 -24.8 12.9 49 49 49
-25.2 -24.8 12.9 49 49 49
-24.9 -24.9 12.9 47 47 47
-24.7 -24.9 12.9 47 47 47
-24.2 -24.8 12.9 46 46 46
-23.9 -24.8 12.8 42 43 42
-23.7 -24.8 12.9 46 46 46
-23.4 -24.8 12.9 43 43 43
-23.1 -24.8 12.9 43 43 43
-22.8 -24.8 12.9 43 42 41
-22.5 -24.8 12.9 43 42 41
-22.1 -24.8 12.9 43 42 41
-21.8 -24.8 12.9 43 42 41
-21.5 -24.7 12.8 44 43 42
-21.2 -24.8 12.9 41 41 41
-21.0 -24.8 12.9 40 42 42
-20.6 -24.7 12.8 40 40 40
-18.9 -24.8 12.9 17 17 17
-13.5 -24.8 12.9 29 29 29
-13.2 -24.8 12.9 29 29 29
-12.9 -24.9 12.9 30 31 30
-12.3 -24.8 12.9 29 31 29
-12.0 -24.8 12.9 29 31 29
-11.7 -24.8 12.9 29 30 28
-11.4 -24.8 12.8 29 30 28
-11.1 -24.7 12.8 32 32 32
-10.8 -24.8 12.8 35 37 36
-10.4 -24.7 12.8 44 44 44
-10.2 -24.7 12.8 173 173 173
-10.0 -25.0 12.9 184 187 186
-9.6 -24.8 12.9 186 188 187
47.1 -63.2 32.8 207 207 207
45.2 -59.7 31.0 207 207 207
44.0 -57.2 29.6 207 207 207
44.9 -57.4 29.8 207 207 207
45.8 -57.6 29.9 207 207 207
51.0 -63.2 32.8 207 207 207
48.5 -58.4 30.3 207 207 207
48.9 -58.1 30.1 207 207 207
48.8 -57.1 29.6 208 208 208
51.8 -59.8 31.0 205 205 205
50.3 -57.3 29.7 208 208 208
29.6 -30.7 15.9 206 206 206
31.7 -29.9 15.5 205 205 205
31.8 -29.7 15.4 170 171 170
-36.6 -24.7 13.0 64 64 64
-36.4 -24.8 13.0 64 64 64
-36.0 -24.8 13.0 64 64 64
-35.7 -24.8 13.0 64 64 64
-35.4 -24.8 13.0 64 64 64
-35.1 -24.8 13.0 60 62 60
-34.8 -24.8 13.0 65 65 65
-34.5 -24.8 13.0 61 63 61
-34.2 -24.8 13.0 65 65 65
-33.9 -24.8 13.0 65 65 65
-33.6 -24.8 13.0 61 63 61
-33.3 -24.8 13.0 61 63 61
-33.1 -24.8 13.0 61 63 61
-32.7 -24.8 13.0 61 63 61
-32.4 -24.8 13.0 59 59 59
-32.1 -24.8 13.0 59 59 59
-31.8 -24.8 13.0 57 57 57
-31.5 -24.8 13.0 55 55 55
-31.2 -24.8 13.0 55 55 55
-30.9 -24.8 13.0 53 52 51
-30.3 -24.8 13.0 54 53 52
-30.0 -24.8 13.0 54 53 52
-29.6 -24.7 13.0 54 53 52
-29.3 -24.7 13.0 54 53 52
-29.0 -24.7 13.0 54 53 52
-28.5 -24.8 13.0 54 53 52
-28.2 -24.8 13.0 51 51 51
-27.9 -24.8 13.0 51 51 51
-27.6 -24.8 13.0 51 51 51
-26.7 -24.8 13.0 52 52 52
-26.3 -24.8 13.0 50 50 50
-26.0 -24.8 13.0 50 50 50
-25.7 -24.8 13.0 50 50 50
-25.5 -24.8 13.0 51 51 51
-25.2 -24.8 13.0 47 48 47
-24.9 -24.8 13.0 47 47 47
-24.5 -24.7 13.0 47 47 47
-24.2 -24.8 13.0 47 47 47
-23.9 -24.8 13.0 47 47 47
-23.6 -24.8 13.0 44 44 44
-23.3 -24.8 13.0 43 42 41
-23.1 -24.8 13.0 44 43 42
-22.7 -24.8 13.0 44 43 42
-22.4 -24.8 13.0 44 43 42
-22.1 -24.8 13.0 42 42 42
-13.3 -24.8 13.0 31 32 30
-13.0 -24.8 13.0 33 33 31
-10.7 -21.9 11.5 33 32 30
-11.8 -24.8 13.0 29 31 29
-11.5 -24.8 13.0 29 31 29
-11.2 -24.8 13.0 32 31 30
-10.9 -24.8 13.0 34 34 34
-10.6 -24.7 12.9 47 46 45
-10.3 -24.7 13.0 177 180 179
-10.0 -24.8 13.0 183 186 185
-9.7 -24.7 13.0 189 189 189
47.5 -62.9 33.0 206 206 206
46.6 -60.8 31.9 206 206 206
45.6 -57.6 30.3 206 206 206
46.5 -57.8 30.4 206 206 206
51.9 -63.5 33.4 207 207 207
51.8 -62.6 32.8 207 207 207
52.7 -62.7 32.9 207 207 207
52.8 -61.9 32.5 207 207 207
53.8 -62.2 32.7 207 207 207
52.5 -59.9 31.4 207 207 207
51.2 -57.6 30.2 207 207 207
31.9 -29.7 15.6 207 207 207
32.0 -29.5 15.5 171 173 173
-37.3 -24.9 13.3 65 65 65
-37.1 -25.0 13.3 65 65 65
-36.8 -25.0 13.3 65 65 65
-36.7 -25.1 13.4 65 65 65
-35.7 -25.1 13.4 65 65 65
-35.3 -25.0 13.3 65 65 65
-34.9 -25.0 13.3 66 66 66
-34.6 -25.0 13.3 62 64 61
-34.4 -25.1 13.3 62 64 61
-34.1 -25.1 13.3 62 64 61
-33.8 -25.0 13.3 62 64 61
-33.4 -25.0 13.3 62 64 61
-33.1 -25.0 13.3 60 60 60
-33.0 -25.2 13.4 58 58 58
-31.1 -25.2 13.4 56 56 56
-30.6 -25.0 13.3 56 56 56
-30.3 -25.0 13.3 56 56 56
-28.8 -25.0 13.3 56 55 54
-28.5 -25.0 13.3 56 55 54
-28.2 -25.1 13.3 52 52 52
-27.3 -25.1 13.3 53 52 52
-26.9 -25.0 13.3 53 52 52
-26.6 -25.0 13.3 53 52 52
-26.5 -25.2 13.4 53 53 53
-26.2 -25.2 13.4 52 52 52
-25.8 -25.2 13.4 48 48 48
-25.4 -25.0 13.3 47 48 47
-25.0 -24.9 13.3 47 48 47
-24.2 -25.1 13.3 45 45 45
-23.8 -25.0 13.3 45 45 45
-23.6 -25.1 13.3 46 46 46
-23.2 -25.0 13.3 45 44 43
-23.0 -25.1 13.3 45 44 43
-22.7 -25.1 13.4 42 43 42
-10.7 -21.5 11.4 49 49 49
-12.1 -25.0 13.3 51 50 48
-11.7 -24.9 13.2 54 54 54
-11.5 -25.0 13.3 64 64 64
-11.1 -24.8 13.2 34 34 34
-10.7 -24.7 13.1 48 47 46
-10.5 -24.9 13.2 184 187 186
-10.2 -24.9 13.2 182 185 184
-9.9 -25.0 13.3 183 186 185
50.7 -67.4 35.8 206 206 206
49.6 -64.9 34.5 206 206 206
46.9 -60.4 32.1 206 206 206
45.6 -56.9 30.2 206 206 206
53.3 -65.5 34.8 206 206 206
52.8 -63.9 34.0 206 206 206
53.3 -63.6 33.8 206 206 206
54.6 -64.1 34.1 206 206 206
53.9 -62.4 33.2 206 206 206
54.7 -62.4 33.2 207 207 207
52.8 -59.4 31.6 207 207 207
51.2 -56.9 30.2 207 207 207
31.9 -29.4 15.6 203 203 203
-37.7 -24.9 13.4 65 65 65
-37.5 -25.0 13.4 66 66 66
-37.2 -25.0 13.4 66 66 66
-36.9 -25.0 13.4 66 66 66
-36.6 -25.0 13.5 66 66 66
-36.3 -25.0 13.5 62 64 61
-36.0 -25.0 13.5 66 66 66
-35.7 -25.0 13.5 66 66 66
-35.3 -25.0 13.4 66 66 66
-35.1 -25.0 13.5 67 67 67
-35.0 -25.1 13.5 63 64 62
-34.5 -25.0 13.5 63 64 62
-34.1 -25.0 13.4 67 67 67
-33.8 -25.0 13.4 63 64 62
-33.5 -25.0 13.5 63 64 62
-33.2 -25.0 13.5 63 64 62
-32.6 -25.0 13.5 57 57 57
-32.2 -25.0 13.5 57 57 57
-31.9 -25.0 13.4 57 57 57
-31.4 -25.1 13.5 57 57 57
-30.9 -24.9 13.4 57 57 57
-30.6 -24.9 13.4 57 57 57
-30.4 -25.0 13.5 57 57 57
-30.1 -25.0 13.5 58 58 58
-29.7 -25.0 13.4 58 58 58
-29.4 -25.0 13.4 57 56 55
-29.1 -25.0 13.5 57 56 55
-28.8 -25.0 13.4 57 56 55
-28.4 -24.9 13.4 57 56 55
-27.6 -25.0 13.5 57 57 55
-27.2 -25.0 13.4 53 53 53
-26.9 -25.0 13.4 54 54 54
-26.6 -25.0 13.4 53 52 52
-26.3 -25.0 13.5 49 49 49
-26.1 -25.1 13.5 49 49 49
-25.6 -24.9 13.4 50 50 50
-25.3 -25.3 13.6 48 48 48
-24.8 -25.0 13.5 49 49 49
-24.4 -25.0 13.4 46 46 46
-24.1 -25.0 13.5 47 47 47
-23.8 -25.0 13.5 46 45 43
-23.4 -24.9 13.4 46 45 43
-23.2 -25.1 13.5 47 47 47
-22.9 -25.0 13.4 46 46 44
-14.4 -25.5 13.7 109 109 109
-14.0 -25.3 13.6 109 109 109
-13.8 -25.5 13.7 73 75 75
-13.5 -25.6 13.8 87 86 84
-13.1 -25.5 13.7 66 67 65
-12.3 -25.0 13.5 42 43 42
-11.8 -24.8 13.4 33 32 30
-11.6 -24.9 13.4 84 86 86
-11.1 -24.7 13.3 20 23 21
-10.8 -24.5 13.2 51 52 50
-10.6 -24.8 13.3 183 183 183
-10.3 -24.8 13.3 182 185 184
-10.0 -25.0 13.4 182 185 184
52.1 -68.4 36.8 206 206 206
46.7 -59.4 32.0 206 206 206
44.7 -55.1 29.6 206 206 206
45.6 -55.4 29.8 207 207 207
53.6 -64.0 34.5 206 206 206
56.3 -63.6 34.2 206 206 206
52.9 -58.9 31.7 206 206 206
50.1 -55.0 29.6 206 206 206
25.4 -22.9 12.3 171 173 173
25.7 -22.9 12.3 181 181 181
-36.3 -25.1 13.7 67 67 67
-35.1 -25.2 13.7 67 67 67
-31.9 -25.2 13.7 58 58 58
-31.4 -25.0 13.6 58 58 58
-29.4 -25.2 13.7 57 57 55
-26.6 -25.2 13.7 51 51 51
-26.2 -25.2 13.7 51 51 51
-24.2 -25.1 13.7 47 48 47
-23.9 -25.1 13.7 47 48 47
-23.6 -25.2 13.7 47 46 45
-14.1 -25.3 13.8 90 90 90
-13.9 -25.4 13.8 84 83 81
-13.6 -25.5 13.9 26 26 26
-13.2 -25.4 13.8 36 37 36
-11.9 -24.7 13.5 42 43 42
-11.7 -24.9 13.6 83 82 80
-10.7 -24.7 13.5 182 185 184
-10.6 -25.3 13.8 181 184 183
-10.3 -25.4 13.8 185 185 185
-10.1 -25.5 13.9 180 183 182
-9.7 -25.3 13.8 235 235 235
46.6 -58.5 31.9 207 207 207
44.6 -54.3 29.6 207 207 207
45.5 -54.5 29.7 207 207 207
52.7 -62.2 33.9 207 207 207
55.6 -62.0 33.8 207 207 207
53.0 -58.2 31.7 208 208 208
50.1 -54.3 29.6 206 206 206
50.8 -54.2 29.6 206 206 206
31.6 -28.1 15.3 169 171 170
25.8 -22.7 12.3 181 181 181
26.2 -22.7 12.4 184 184 184
-14.0 -25.4 14.0 105 105 105
-13.7 -25.3 14.0 39 39 39
-13.3 -25.2 13.9 132 132 132
-10.7 -25.3 14.0 180 183 182
-10.4 -25.3 14.0 181 184 183
-10.2 -25.6 14.1 179 182 181
45.7 -56.6 31.3 207 207 207
44.8 -53.8 29.7 207 207 207
45.6 -54.0 29.8 207 207 207
52.8 -61.5 34.0 207 207 207
56.9 -63.5 35.0 207 207 207
55.9 -61.5 34.0 207 207 207
53.4 -57.9 32.0 207 207 207
50.5 -54.0 29.8 207 207 207
50.8 -53.6 29.6 207 207 207
31.5 -27.9 15.4 202 202 202
26.0 -22.5 12.4 180 180 180
26.3 -22.5 12.4 183 183 183
123.8 -62.3 34.4 166 166 166
113.7 -56.8 31.4 162 165 164
-26.0 -19.4 10.8 62 62 62
-25.7 -19.4 10.8 59 59 59
-24.8 -19.4 10.9 59 59 59
-23.4 -19.5 10.9 59 59 57
-19.5 -19.4 10.9 53 52 52
-18.3 -19.5 10.9 46 46 46
-18.0 -19.4 10.9 45 47 46
-14.7 -25.1 14.0 121 123 122
-14.3 -24.9 13.9 132 135 134
-14.0 -25.0 14.0 128 128 128
-13.7 -25.1 14.0 32 33 31
-13.3 -24.9 13.9 105 107 107
-10.8 -25.0 14.0 179 182 181
-10.6 -25.5 14.2 180 183 182
-10.3 -25.5 14.2 184 184 184
8.0 -19.2 10.7 209 212 211
8.1 -18.4 10.3 207 207 207
8.3 -18.4 10.3 207 207 207
12.2 -18.5 10.3 206 206 206
12.4 -18.3 10.2 206 206 206
13.4 -19.2 10.7 206 206 206
45.5 -55.7 31.2 206 206 206
44.8 -53.1 29.7 206 206 206
45.6 -53.3 29.8 206 206 206
52.7 -60.6 33.9 206 206 206
55.9 -61.5 34.4 207 207 207
53.5 -57.2 32.0 207 207 207
51.0 -53.9 30.1 207 207 207
50.9 -53.0 29.6 207 207 207
31.5 -27.5 15.4 204 204 204
26.3 -22.5 12.6 179 179 179
92.8 -46.1 25.8 169 169 169
111.4 -55.0 30.8 166 166 166
106.1 -52.0 29.1 159 162 161
-30.6 -19.3 10.9 73 73 73
-30.3 -19.3 10.9 70 72 69
-30.0 -19.3 10.9 70 72 69
-26.2 -19.3 10.9 62 62 62
-25.9 -19.3 10.9 65 65 65
-25.2 -19.3 10.9 63 63 63
-24.9 -19.3 10.9 60 60 60
-23.5 -19.4 11.0 62 62 62
-23.2 -19.3 10.9 61 60 59
-22.2 -19.3 10.9 58 58 58
-21.7 -19.3 10.9 56 56 56
-18.4 -19.3 10.9 51 50 48
-18.1 -19.3 10.9 46 48 47
-14.0 -24.7 14.0 119 121 120
-13.7 -24.7 14.0 40 40 40
-10.8 -24.8 14.1 178 181 180
-10.8 -25.4 14.4 179 182 181
-10.4 -25.3 14.4 183 183 183
10.2 -18.0 10.2 206 206 206
10.6 -18.3 10.3 206 206 206
11.3 -18.3 10.3 206 206 206
12.2 -18.3 10.4 206 206 206
43.9 -52.3 29.6 206 206 206
44.6 -52.2 29.6 206 206 206
45.5 -52.5 29.7 204 204 204
52.2 -59.3 33.6 204 204 204
54.9 -59.6 33.8 206 206 206
54.6 -58.5 33.1 206 206 206
53.2 -56.2 31.8 204 204 204
50.9 -53.0 30.0 206 206 206
51.0 -52.4 29.7 207 207 207
31.5 -27.2 15.4 206 206 206
31.7 -27.1 15.4 165 165 165
108.1 -53.7 30.4 172 172 172
98.8 -48.7 27.6 172 172 172
109.5 -53.3 30.2 166 166 166
103.4 -50.1 28.4 159 162 161
-11.5 -25.2 14.5 181 184 183
-11.0 -24.9 14.3 178 181 180
-10.9 -25.4 14.6 182 182 182
-10.6 -25.6 14.7 180 180 180
-10.3 -25.7 14.8 217 217 217
46.7 -55.7 32.0 205 205 205
44.0 -51.6 29.6 205 205 205
44.6 -51.5 29.6 205 205 205
45.5 -51.8 29.7 205 205 205
52.5 -58.8 33.8 205 205 205
55.1 -59.1 33.9 206 206 206
54.9 -58.0 33.3 206 206 206
53.2 -55.5 31.8 206 206 206
51.6 -53.1 30.5 208 211 210
51.2 -52.0 29.8 208 211 210
58.9 -58.2 33.4 206 206 206
31.8 -26.8 15.4 184 184 184
99.9 -48.7 27.9 172 172 172
101.7 -48.6 27.9 161 164 163
-11.0 -25.4 14.8 176 179 178
-10.7 -25.5 14.8 183 183 183
-10.4 -25.5 14.9 204 204 204
46.8 -55.0 32.0 207 210 209
43.9 -50.9 29.6 207 210 209
44.5 -50.7 29.5 207 210 209
45.5 -51.1 29.7 207 210 209
52.4 -58.0 33.7 207 210 209
54.9 -58.1 33.8 207 210 209
54.2 -56.5 32.9 207 210 209
52.9 -54.5 31.7 208 211 210
50.7 -51.4 29.9 208 211 210
59.0 -57.5 33.5 208 211 210
-11.0 -25.0 14.8 179 182 181
-10.7 -25.1 14.8 181 181 181
-10.4 -25.1 14.8 190 190 190
44.8 -50.4 29.7 206 209 208
52.7 -57.5 33.9 207 210 209
55.5 -57.9 34.1 207 210 209
55.6 -57.3 33.8 207 210 209
53.0 -53.8 31.7 207 210 209
51.5 -51.6 30.4 207 210 209
64.2 -62.5 36.9 207 210 209
60.1 -57.8 34.1 208 211 210
61.8 -58.6 34.6 208 211 210
163.2 -99.3 58.6 191 191 191
137.7 -83.1 49.0 188 188 188
119.3 -71.4 42.1 189 189 189
109.1 -64.8 38.2 190 190 190
-11.1 -24.8 14.8 178 178 178
-10.8 -24.9 14.9 177 180 179
-10.4 -24.8 14.9 175 175 175
52.8 -56.8 34.0 206 209 208
56.2 -57.8 34.6 205 205 205
55.6 -56.5 33.8 205 205 205
53.6 -53.6 32.1 205 205 205
51.0 -50.4 30.1 205 205 205
66.2 -63.6 38.1 207 210 209
61.7 -58.5 35.0 207 210 209
62.7 -58.7 35.1 207 210 209
163.7 -98.2 58.7 191 191 191
137.3 -81.7 48.9 192 192 192
108.9 -63.8 38.1 191 191 191
-26.6 -17.6 10.7 72 73 71
-26.2 -17.5 10.6 71 71 71
-24.5 -16.7 10.1 71 71 71
-25.5 -17.6 10.7 71 71 71
-23.9 -16.8 10.2 71 71 71
-11.0 -25.1 15.2 178 178 178
44.7 -48.9 29.6 206 209 208
45.4 -48.9 29.6 206 209 208
52.7 -55.9 33.9 209 212 211
60.8 -62.6 38.0 209 212 211
58.0 -58.9 35.7 209 212 211
55.6 -55.7 33.8 209 212 211
53.0 -52.3 31.7 209 212 211
50.1 -48.8 29.6 209 212 211
68.0 -64.4 39.1 207 210 209
65.1 -60.1 36.4 207 210 209
108.9 -62.9 38.1 194 194 194
54.8 -24.8 15.0 164 167 166
-24.6 -16.5 10.1 71 71 71
-10.6 -16.8 10.4 36 35 34
-11.8 -27.4 16.8 157 160 159
52.5 -54.9 33.8 208 211 210
56.5 -56.5 34.8 209 212 211
55.6 -54.9 33.8 209 212 211
53.0 -51.6 31.7 209 212 211
51.3 -49.2 30.3 209 212 211
68.6 -64.1 39.4 209 212 211
108.9 -62.0 38.1 195 195 195
55.0 -24.5 15.1 166 169 168
54.4 -24.1 14.8 163 163 163
55.4 -24.4 15.0 152 154 154
-12.6 -27.1 16.9 183 186 185
-12.3 -27.1 16.9 178 178 178
-11.9 -27.3 17.0 158 161 160
-11.6 -27.5 17.1 155 158 157
52.8 -54.4 34.0 208 211 210
56.7 -55.9 34.9 208 211 210
55.9 -54.4 34.0 208 211 210
75.0 -70.0 43.7 209 212 211
68.9 -63.4 39.6 209 212 211
62.9 -55.7 34.8 209 212 211
55.2 -24.3 15.1 168 170 169
54.4 -23.8 14.8 164 164 164
55.3 -24.0 15.0 153 155 155
-13.4 -27.4 17.3 186 188 187
-12.9 -27.3 17.3 184 187 186
-12.4 -27.2 17.2 179 179 179
-12.1 -27.2 17.2 165 165 165
-11.8 -27.5 17.4 162 162 162
52.7 -53.5 33.9 207 210 209
68.7 -62.4 39.5 209 212 211
67.5 -60.5 38.3 209 212 211
66.9 -59.2 37.5 209 212 211
57.8 -25.2 15.9 174 174 174
54.4 -23.4 14.8 162 162 162
54.8 -23.4 14.8 154 154 154
54.9 -23.3 14.8 149 149 149
-13.4 -27.8 17.9 186 188 187
-12.7 -27.3 17.5 181 181 181
-12.2 -27.1 17.4 172 172 172
-12.2 -28.0 18.0 165 165 165
-11.7 -27.8 17.9 162 162 162
52.7 -52.8 33.9 207 210 209
61.4 -59.7 38.4 207 210 209
80.2 -72.7 46.7 208 211 210
75.5 -66.6 42.8 209 212 211
68.3 -59.5 38.2 209 212 211
74.1 -63.7 40.9 209 212 211
71.5 -60.7 39.0 209 212 211
57.3 -24.4 15.7 168 170 169
55.6 -23.6 15.2 162 162 162
55.3 -23.3 15.0 155 155 155
55.5 -23.3 14.9 151 151 151
-13.1 -28.7 18.7 173 175 175
-12.7 -28.7 18.7 172 172 172
112.1 -102.8 67.1 207 210 209
110.5 -100.0 65.2 205 208 207
99.6 -88.9 58.0 208 211 210
74.4 -62.2 40.6 209 212 211
128.5 -101.0 65.9 210 213 212
129.6 -100.7 65.7 210 213 212
76.7 -33.5 21.9 183 183 183
74.8 -32.5 21.2 183 183 183
60.1 -25.4 16.6 178 178 178
58.9 -24.7 16.1 169 171 170
-13.4 -28.9 19.1 174 176 176
-13.0 -29.0 19.2 173 173 173
141.0 -129.2 85.6 207 210 209
109.4 -96.1 63.7 207 210 209
93.5 -81.1 53.7 208 211 210
172.3 -133.4 88.4 209 212 211
61.3 -25.5 16.9 177 177 177
62.1 -25.7 17.0 170 172 172
62.6 -25.8 17.1 164 164 164
-13.4 -28.3 19.1 176 179 178
-13.0 -28.6 19.2 174 174 174
154.3 -139.2 93.6 206 209 208
139.8 -124.4 83.7 207 210 209
151.9 -133.2 89.7 207 210 209
160.7 -132.0 88.8 208 211 210
175.6 -133.9 90.1 209 212 211
165.9 -125.0 84.1 209 212 211
81.4 -34.7 23.4 185 185 185
80.6 -34.2 23.0 185 185 185
64.6 -26.7 17.9 180 180 180
62.9 -25.8 17.4 178 178 178
63.0 -25.7 17.3 171 173 173
63.2 -25.6 17.2 160 163 162
63.5 -25.6 17.2 157 157 157
-54.7 -28.4 19.4 56 55 54
-54.3 -28.4 19.4 67 67 67
-54.1 -28.6 19.5 75 75 75
-53.4 -28.5 19.5 69 71 69
-52.9 -28.4 19.4 41 41 41
-52.5 -28.4 19.4 116 118 117
-52.0 -28.4 19.4 128 128 128
-51.8 -28.6 19.5 10 15 11
-51.2 -28.5 19.5 17 17 17
-50.7 -28.5 19.5 24 24 24
-50.2 -28.4 19.4 29 31 29
-49.9 -28.5 19.5 29 31 29
-49.4 -28.5 19.5 36 36 36
-48.9 -28.5 19.5 16 16 16
-48.5 -28.5 19.5 28 28 28
-48.2 -28.6 19.5 26 26 26
-47.8 -28.6 19.5 34 34 34
-47.1 -28.5 19.5 33 32 30
-46.6 -28.5 19.5 54 54 54
-46.4 -28.6 19.6 70 72 69
-46.0 -28.6 19.6 73 73 73
-45.5 -28.6 19.5 58 59 59
-45.0 -28.6 19.5 50 50 50
-44.6 -28.6 19.5 55 55 55
-44.1 -28.6 19.5 50 50 50
-43.8 -28.7 19.6 131 133 132
-43.4 -28.7 19.6 89 91 90
-42.7 -28.5 19.5 131 134 133
-42.3 -28.6 19.6 164 164 164
-41.8 -28.6 19.5 62 62 62
-41.4 -28.6 19.5 30 31 30
-40.9 -28.6 19.5 7 13 9
-40.5 -28.6 19.5 7 13 9
-39.8 -28.4 19.4 19 23 20
-39.4 -28.4 19.4 24 24 24
-39.1 -28.6 19.5 42 43 42
-38.7 -28.6 19.5 63 63 63
-38.2 -28.6 19.5 60 59 58
-37.8 -28.6 19.5 60 59 58
-37.3 -28.6 19.5 61 61 61
-36.8 -28.6 19.5 67 68 66
-36.2 -28.4 19.4 75 75 75
-35.8 -28.4 19.4 75 75 75
-35.5 -28.6 19.5 70 70 70
-34.9 -28.4 19.4 67 69 67
-34.6 -28.6 19.5 71 71 71
-34.1 -28.6 19.5 78 80 78
-33.7 -28.6 19.5 88 88 88
-33.2 -28.6 19.5 141 143 142
-32.8 -28.6 19.5 181 184 183
-32.3 -28.6 19.5 176 176 176
-31.9 -28.6 19.5 121 121 121
-31.3 -28.5 19.5 28 28 28
-30.8 -28.5 19.5 35 34 33
-30.3 -28.4 19.4 30 29 29
-29.8 -28.4 19.4 21 24 22
-29.4 -28.4 19.4 25 25 25
-29.0 -28.5 19.5 25 25 25
-28.7 -28.6 19.5 25 25 25
-28.1 -28.4 19.4 28 28 28
-27.6 -28.4 19.4 32 33 31
-27.2 -28.4 19.4 25 25 25
-26.7 -28.4 19.4 28 28 28
-26.4 -28.6 19.5 22 25 23
-25.8 -28.4 19.4 83 84 82
-25.4 -28.4 19.4 137 137 137
-24.9 -28.4 19.4 149 151 151
-24.5 -28.5 19.5 47 47 47
-24.0 -28.4 19.4 44 46 46
-23.5 -28.4 19.4 79 81 79
-23.1 -28.4 19.4 107 107 105
-14.5 -28.4 19.4 184 184 184
-14.0 -28.3 19.4 178 181 180
-13.5 -28.3 19.3 177 180 179
-13.1 -28.4 19.4 176 176 176
-12.7 -28.4 19.4 175 177 177
-12.2 -28.4 19.4 167 167 167
163.7 -143.4 98.0 206 209 208
156.3 -135.0 92.3 206 209 208
154.7 -131.8 90.1 207 210 209
155.3 -130.5 89.2 207 210 209
159.6 -132.4 90.5 207 210 209
172.4 -141.2 96.5 207 210 209
171.2 -138.4 94.6 208 211 210
189.8 -144.1 98.5 209 212 211
179.0 -134.3 91.8 209 212 211
175.2 -129.9 88.8 209 212 211
82.5 -34.6 23.7 188 188 188
81.8 -34.1 23.3 188 188 188
82.0 -34.0 23.2 188 188 188
63.7 -25.6 17.5 168 168 168
64.6 -25.8 17.6 161 161 161
64.1 -25.4 17.4 157 157 157
65.0 -25.6 17.5 152 152 152
-55.6 -28.4 19.7 34 34 34
-55.1 -28.4 19.7 44 44 44
-54.7 -28.4 19.7 68 70 68
-54.3 -28.5 19.8 83 84 82
-53.8 -28.5 19.8 150 150 150
-53.3 -28.4 19.7 39 41 41
-52.8 -28.4 19.7 29 31 29
-52.4 -28.4 19.7 24 24 24
-52.0 -28.5 19.8 24 24 24
-51.5 -28.5 19.8 29 31 29
-51.0 -28.4 19.7 38 38 38
-50.5 -28.4 19.7 53 53 53
-50.1 -28.4 19.7 149 149 149
-49.7 -28.5 19.8 145 145 144
-49.2 -28.4 19.7 39 41 41
-48.7 -28.4 19.7 156 159 158
-48.2 -28.4 19.7 178 181 180
-47.8 -28.5 19.8 176 176 176
-47.4 -28.5 19.8 115 117 116
-46.9 -28.5 19.8 78 80 78
-46.4 -28.4 19.7 77 77 77
-46.0 -28.4 19.7 57 57 55
-45.4 -28.3 19.7 122 124 123
-45.0 -28.4 19.7 172 172 172
-44.6 -28.5 19.8 179 179 179
-44.3 -28.5 19.8 188 190 190
-43.8 -28.5 19.8 191 191 191
-43.4 -28.5 19.8 213 215 215
-42.8 -28.5 19.8 206 209 208
-42.3 -28.4 19.7 188 190 190
-41.8 -28.4 19.7 200 200 200
-41.4 -28.4 19.7 212 213 212
-40.9 -28.4 19.7 211 211 211
-40.4 -28.4 19.7 173 175 175
-40.0 -28.4 19.7 178 177 175
-39.5 -28.4 19.7 158 161 160
-39.1 -28.4 19.7 149 149 149
-38.6 -28.4 19.7 180 180 180
-38.2 -28.4 19.7 214 216 216
-37.7 -28.4 19.7 205 208 207
-37.2 -28.4 19.7 186 186 186
-36.8 -28.4 19.7 182 185 184
-36.3 -28.4 19.7 212 213 212
-35.9 -28.4 19.7 226 226 226
-35.4 -28.4 19.7 168 170 169
-34.9 -28.4 19.7 99 98 96
-34.5 -28.4 19.7 147 147 147
-34.0 -28.4 19.7 179 178 176
-33.6 -28.4 19.7 182 185 184
-33.1 -28.4 19.7 175 175 175
-32.6 -28.4 19.7 210 210 210
-32.2 -28.4 19.7 212 214 214
-31.7 -28.4 19.7 204 207 206
-31.2 -28.4 19.7 140 140 140
-30.7 -28.4 19.7 37 38 37
-30.3 -28.4 19.7 37 38 37
-29.9 -28.4 19.7 58 59 59
-29.5 -28.5 19.8 83 84 82
-29.0 -28.4 19.7 94 94 94
-28.5 -28.4 19.7 101 100 98
-28.1 -28.4 19.7 101 100 98
-27.6 -28.4 19.7 25 25 25
-27.1 -28.3 19.7 44 46 46
-26.7 -28.4 19.7 90 92 91
-26.2 -28.4 19.7 25 25 25
-25.8 -28.4 19.7 30 29 29
-25.3 -28.4 19.7 53 53 53
-24.8 -28.4 19.7 105 105 105
-24.4 -28.4 19.7 44 46 46
-23.9 -28.4 19.7 83 83 83
-14.7 -28.4 19.7 200 200 200
-14.3 -28.4 19.7 168 170 169
-13.7 -28.3 19.6 176 176 176
-13.3 -28.3 19.7 177 177 177
-12.9 -28.4 19.7 153 153 153
170.4 -144.9 100.6 210 210 210
174.6 -146.4 101.7 206 209 208
182.9 -151.3 105.1 207 210 209
194.5 -154.8 107.5 207 210 209
192.7 -151.3 105.1 207 210 209
190.1 -140.4 97.5 209 212 211
81.6 -33.5 23.3 189 189 189
81.5 -33.3 23.1 189 189 189
79.5 -32.2 22.4 189 189 189
65.3 -25.6 17.8 160 160 160
65.0 -25.4 17.6 157 157 157
65.5 -25.4 17.6 149 151 151
66.2 -25.5 17.7 149 149 149
-26.2 -15.0 10.6 150 150 150
-26.0 -15.1 10.6 183 183 183
-25.7 -15.0 10.6 170 171 170
-25.3 -15.0 10.6 164 164 164
-25.1 -15.0 10.6 146 146 146
-24.8 -15.0 10.6 151 151 151
-24.6 -15.0 10.6 88 89 87
-24.4 -15.0 10.6 87 87 87
-24.1 -15.0 10.6 197 197 197
-14.6 -15.0 10.6 101 101 101
-14.3 -15.0 10.6 31 32 30
-14.0 -15.0 10.6 31 32 30
-13.8 -15.0 10.6 118 120 119
-13.5 -14.9 10.6 149 151 151
-13.6 -28.4 20.1 158 161 160
-13.8 -30.0 21.2 123 125 124
239.4 -203.0 143.3 210 210 210
180.0 -150.5 106.3 210 210 210
184.5 -152.3 107.5 210 210 210
192.5 -156.7 110.6 210 210 210
204.7 -164.4 116.1 210 210 210
215.3 -168.5 119.0 207 210 209
212.8 -164.4 116.1 207 210 209
321.4 -239.3 168.9 208 211 210
227.7 -167.5 118.2 208 211 210
193.1 -140.3 99.0 208 211 210
81.3 -32.8 23.2 190 190 190
81.1 -32.6 23.0 190 190 190
80.9 -32.2 22.8 190 190 190
82.7 -32.8 23.1 184 184 184
67.6 -26.1 18.4 160 160 160
68.1 -26.1 18.5 155 155 155
66.6 -25.4 17.9 149 149 149
-28.3 -16.2 11.6 164 167 166
-28.1 -16.2 11.6 173 175 175
-27.8 -16.2 11.6 130 130 130
-27.5 -16.1 11.6 103 102 100
-27.3 -16.2 11.6 200 200 200
-27.0 -16.2 11.6 201 203 203
-26.7 -16.1 11.6 77 79 77
-18.6 -16.2 11.6 222 222 222
-18.4 -16.2 11.6 217 217 217
-17.6 -16.2 11.6 66 66 66
-17.3 -16.2 11.6 119 119 119
-17.0 -16.2 11.6 123 123 123
-16.7 -16.2 11.6 136 138 137
-16.5 -16.2 11.6 90 92 91
-16.2 -16.2 11.6 77 77 77
-15.9 -16.2 11.6 43 45 44
-15.6 -16.1 11.6 31 32 30
-14.9 -31.8 22.8 175 175 175
-14.6 -32.3 23.2 112 112 112
384.7 -325.4 233.5 209 209 209
289.9 -241.8 173.5 209 209 209
274.3 -219.6 157.6 210 210 210
292.6 -231.2 165.9 210 210 210
291.4 -227.2 163.1 210 210 210
273.9 -210.9 151.3 211 211 211
299.0 -227.2 163.1 211 211 211
450.1 -333.6 239.4 211 211 211
391.3 -286.5 205.6 212 213 212
80.0 -32.2 23.1 191 194 193
81.7 -32.7 23.4 191 194 193
81.5 -32.4 23.2 191 191 191
81.4 -32.1 23.1 191 191 191
82.0 -32.1 23.1 188 188 188
83.3 -32.5 23.3 188 188 188
83.2 -32.2 23.1 177 180 179
69.8 -26.5 19.0 160 160 160
70.0 -26.4 19.0 153 153 153
72.0 -26.8 19.3 141 143 142
-29.4 -16.3 11.9 121 121 121
-28.9 -16.2 11.8 126 126 126
-28.6 -16.2 11.8 165 165 165
-28.4 -16.2 11.8 202 202 202
-28.3 -16.3 11.9 115 117 116
-27.8 -16.2 11.8 67 67 67
-27.5 -16.2 11.8 62 62 62
-27.5 -16.4 11.9 47 48 47
-27.2 -16.4 11.9 60 60 60
-26.9 -16.3 11.9 112 112 112
-19.7 -16.3 11.9 221 221 221
-19.4 -16.3 11.9 220 220 220
-18.0 -16.3 11.9 73 73 73
-17.6 -16.2 11.8 30 31 30
-17.4 -16.2 11.8 26 26 26
-17.1 -16.2 11.8 38 38 38
-16.6 -16.3 11.9 103 103 103
-16.2 -16.2 11.8 30 31 30
-14.1 -16.3 11.9 38 38 38
-13.9 -16.3 11.9 75 76 74
-16.3 -32.9 24.0 179 179 179
-15.5 -32.5 23.7 178 178 178
-15.1 -32.8 23.9 159 159 159
15.4 -14.2 10.4 208 208 208
380.0 -316.1 230.7 211 211 211
316.0 -259.2 189.2 209 209 209
342.9 -270.0 197.0 210 210 210
347.5 -270.0 197.0 210 210 210
338.0 -259.2 189.2 210 210 210
323.0 -244.5 178.5 210 210 210
304.2 -227.3 165.9 211 211 211
493.9 -360.0 262.7 211 211 211
400.0 -288.0 210.2 211 211 211
80.0 -31.7 23.1 192 195 194
81.6 -32.1 23.4 192 195 194
81.3 -31.8 23.2 192 195 194
81.4 -31.6 23.1 192 192 192
82.3 -31.7 23.2 189 189 189
83.4 -32.0 23.3 186 186 186
83.6 -31.8 23.2 176 179 178
71.3 -26.6 19.4 155 158 157
73.3 -27.0 19.7 141 140 139
73.5 -26.9 19.7 135 135 135
-34.3 -16.4 12.2 120 120 120
-34.2 -16.5 12.2 41 41 41
-33.9 -16.5 12.2 24 24 24
-33.6 -16.5 12.2 20 23 21
-33.5 -16.6 12.3 19 23 20
-33.0 -16.5 12.2 26 26 26
-32.7 -16.5 12.2 20 23 21
-30.9 -16.6 12.3 159 162 161
-30.5 -16.5 12.2 179 178 176
-30.2 -16.5 12.2 179 178 176
-29.9 -16.5 12.2 202 204 204
-29.6 -16.5 12.2 147 147 147
-29.4 -16.5 12.3 107 109 109
-29.1 -16.5 12.3 67 67 67
-28.7 -16.4 12.2 64 65 63
-28.5 -16.5 12.3 41 41 41
-28.3 -16.5 12.3 28 28 28
-27.9 -16.5 12.2 77 78 76
-27.6 -16.4 12.2 98 98 98
-27.3 -16.5 12.2 86 87 85
-27.1 -16.5 12.3 79 81 79
-20.9 -16.6 12.3 182 182 182
-20.5 -16.5 12.2 189 189 189
-20.2 -16.5 12.2 204 204 204
-19.9 -16.4 12.2 210 210 210
-19.7 -16.5 12.2 214 214 214
-18.7 -16.6 12.3 75 76 76
-18.2 -16.5 12.2 42 44 43
-17.9 -16.5 12.2 75 77 75
-17.7 -16.5 12.2 116 118 117
-17.4 -16.5 12.2 104 104 104
-17.1 -16.4 12.2 111 111 111
-16.8 -16.5 12.2 33 33 31
-14.5 -16.5 12.2 42 43 42
-14.2 -16.5 12.2 36 36 36
-17.3 -33.3 24.8 183 186 185
-16.6 -33.0 24.5 177 177 177
-15.9 -32.7 24.3 178 178 178
-15.4 -33.0 24.5 167 167 167
-14.9 -33.0 24.5 15 19 16
12.1 -13.7 10.2 209 209 209
12.8 -13.8 10.2 209 209 209
15.3 -13.9 10.3 208 208 208
15.4 -13.7 10.2 207 207 207
384.7 -314.5 233.5 210 210 210
351.2 -268.2 199.1 212 213 212
328.2 -247.4 183.7 210 210 210
300.3 -223.5 165.9 210 210 210
270.9 -199.0 147.8 210 210 210
555.6 -398.1 295.6 211 211 211
450.0 -318.5 236.5 211 211 211
80.1 -30.8 22.8 193 193 193
79.5 -30.3 22.5 193 196 195
80.8 -30.6 22.7 190 190 190
83.3 -31.4 23.3 190 190 190
83.4 -31.2 23.2 177 177 177
81.5 -30.3 22.5 166 166 166
72.3 -26.5 19.7 157 160 159
74.3 -26.9 20.0 137 137 137
74.9 -27.0 20.0 134 136 135
-35.4 -16.8 12.7 71 71 71
-35.1 -16.8 12.7 29 31 29
-34.8 -16.8 12.7 24 24 24
-34.5 -16.8 12.7 20 23 21
-34.2 -16.8 12.7 26 26 26
-33.9 -16.8 12.7 24 24 24
-33.7 -16.8 12.7 33 32 30
-33.4 -16.8 12.7 82 83 81
-33.1 -16.8 12.7 155 154 152
-32.8 -16.8 12.7 108 108 108
-32.5 -16.8 12.7 57 57 57
-32.2 -16.8 12.7 141 143 142
-31.6 -16.8 12.7 203 205 205
-31.3 -16.8 12.7 149 149 149
-31.0 -16.8 12.7 122 122 122
-30.7 -16.8 12.7 161 164 163
-30.4 -16.8 12.7 107 109 109
-30.1 -16.8 12.7 49 49 49
-29.9 -16.8 12.7 49 49 49
-29.6 -16.8 12.7 28 28 28
-29.2 -16.8 12.7 20 23 21
-28.9 -16.8 12.7 6 11 7
-28.6 -16.8 12.7 123 125 124
-28.4 -16.8 12.7 132 132 132
-28.1 -16.8 12.7 77 78 76
-27.7 -16.8 12.7 77 78 76
-27.5 -16.8 12.7 19 23 20
-27.2 -16.8 12.7 18 22 19
-26.9 -16.8 12.7 14 14 14
-25.2 -16.8 12.7 54 54 54
-24.9 -16.8 12.7 57 57 55
-24.6 -16.8 12.7 57 57 55
-24.2 -16.8 12.7 54 54 54
-23.9 -16.8 12.7 46 46 46
-23.6 -16.8 12.7 23 23 23
-23.3 -16.8 12.7 45 44 43
-23.0 -16.8 12.7 55 55 55
-22.7 -16.8 12.7 55 55 55
-22.4 -16.8 12.7 58 59 59
-22.2 -16.8 12.7 178 181 180
-21.9 -16.8 12.7 182 185 184
-21.6 -16.8 12.7 200 202 202
-21.3 -16.8 12.7 205 208 207
-21.0 -16.8 12.7 206 209 208
-20.7 -16.8 12.7 214 214 214
-20.4 -16.8 12.7 214 214 214
-20.1 -16.8 12.7 198 198 198
-19.8 -16.8 12.7 156 156 156
-19.5 -16.8 12.7 15 15 15
-19.2 -16.8 12.7 27 27 27
-18.9 -16.8 12.7 33 32 30
-18.6 -16.8 12.7 19 23 20
-18.3 -16.8 12.7 33 32 30
-18.0 -16.8 12.7 98 98 98
-17.8 -16.8 12.7 119 119 119
-17.4 -16.7 12.7 34 34 34
-17.1 -16.8 12.7 47 47 47
-16.8 -16.8 12.7 87 89 88
-16.6 -16.8 12.7 29 31 29
-15.7 -16.8 12.7 37 38 37
-15.4 -16.8 12.7 90 90 90
-14.6 -16.6 12.5 71 71 71
-18.0 -34.0 25.7 179 179 179
-16.9 -32.9 24.9 174 176 176
-16.1 -32.7 24.7 187 189 189
-15.6 -32.8 24.8 153 153 153
-15.1 -32.9 24.9 28 28 28
-14.7 -33.3 25.2 37 38 37
12.0 -13.5 10.2 209 209 209
12.6 -13.5 10.2 209 209 209
12.8 -13.5 10.2 209 209 209
13.0 -13.4 10.2 208 208 208
13.8 -13.8 10.5 208 208 208
15.4 -13.8 10.4 207 207 207
15.3 -13.4 10.1 207 207 207
465.1 -373.7 282.3 210 210 210
417.0 -313.0 236.5 209 209 209
338.0 -250.4 189.2 210 210 210
271.7 -198.7 150.1 212 213 212
256.9 -185.5 140.1 210 210 210
750.0 -521.6 394.1 211 211 211
619.0 -410.5 310.1 212 213 212
80.3 -30.3 22.9 180 183 182
79.7 -29.9 22.6 185 185 185
83.8 -31.2 23.6 178 181 180
83.9 -31.1 23.5 178 178 178
84.4 -31.0 23.4 167 167 167
82.4 -30.1 22.7 163 163 163
85.1 -30.1 22.8 134 136 135
85.5 -30.1 22.7 134 136 135
89.4 -31.1 23.5 131 131 131
-35.6 -16.4 12.6 77 79 77
-34.1 -16.4 12.6 28 28 28
-33.8 -16.4 12.6 39 41 41
-32.6 -16.4 12.6 18 22 19
-30.8 -16.4 12.6 170 172 172
-30.5 -16.4 12.6 182 182 182
-30.2 -16.4 12.6 103 102 100
-30.0 -16.4 12.6 47 48 47
-29.8 -16.5 12.7 35 35 35
-29.4 -16.5 12.7 20 23 21
-29.1 -16.4 12.6 23 23 23
-28.7 -16.4 12.6 18 22 19
-28.5 -16.4 12.6 6 11 7
-28.3 -16.5 12.7 25 25 25
-28.0 -16.5 12.7 34 34 34
-27.6 -16.4 12.6 90 90 90
-26.7 -16.4 12.6 29 31 29
-25.5 -16.4 12.6 35 35 35
-24.1 -16.4 12.6 54 54 54
-23.8 -16.4 12.6 45 45 45
-23.5 -16.4 12.6 25 25 25
-23.2 -16.4 12.6 41 41 41
-22.3 -16.4 12.6 54 54 54
-22.0 -16.4 12.6 45 44 43
-21.7 -16.4 12.6 165 168 167
-21.5 -16.4 12.6 199 199 199
-21.2 -16.4 12.6 205 205 205
-20.9 -16.4 12.6 205 208 207
-20.5 -16.4 12.6 219 219 219
-20.3 -16.4 12.6 206 209 208
-20.0 -16.4 12.6 157 157 157
-19.7 -16.5 12.7 77 79 77
-19.4 -16.5 12.7 23 23 23
-19.1 -16.4 12.6 19 23 20
-18.8 -16.4 12.6 81 81 81
-18.5 -16.4 12.6 108 108 108
-18.2 -16.4 12.6 121 121 121
-17.9 -16.4 12.6 82 82 82
-17.6 -16.4 12.6 120 120 120
-17.3 -16.4 12.6 25 25 25
-17.0 -16.4 12.6 42 43 42
-16.8 -16.4 12.6 130 130 130
-16.1 -16.4 12.6 29 30 28
-15.9 -16.4 12.6 33 32 30
-14.9 -16.4 12.6 32 31 30
-14.5 -16.2 12.5 128 128 128
-14.3 -16.2 12.5 39 41 41
-14.1 -16.4 12.6 122 122 122
-13.8 -16.4 12.6 32 32 32
-18.5 -34.4 26.4 176 179 178
-17.3 -33.3 25.6 153 155 155
-16.4 -32.6 25.1 90 92 91
-15.8 -32.6 25.1 86 86 86
-15.3 -32.8 25.2 56 56 56
12.7 -13.2 10.1 208 208 208
12.8 -13.1 10.1 208 208 208
15.2 -13.1 10.1 209 209 209
635.9 -502.0 386.0 210 210 210
522.5 -390.4 300.3 211 211 211
476.6 -351.4 270.2 211 211 211
363.4 -264.5 203.4 211 211 211
326.1 -234.3 180.2 212 213 212
279.7 -198.4 152.6 212 213 212
770.5 -502.0 386.0 212 213 212
477.5 -307.5 236.5 212 213 212
80.9 -30.0 23.1 179 182 181
85.5 -31.1 23.9 159 159 159
85.7 -30.9 23.8 150 152 152
85.7 -30.7 23.6 144 144 144
89.8 -31.2 24.0 134 134 134
91.4 -31.6 24.3 133 133 133
91.2 -31.3 24.1 133 133 133
91.4 -31.2 24.0 131 131 131
-29.5 -15.7 12.3 36 36 36
-29.1 -15.7 12.3 53 52 52
-28.7 -15.6 12.2 27 27 27
-28.4 -15.7 12.3 23 23 23
-28.0 -15.7 12.3 25 25 25
-27.6 -15.6 12.2 146 148 148
-20.3 -15.7 12.3 54 54 54
-19.9 -15.6 12.2 36 37 36
-19.2 -15.7 12.3 78 80 78
-18.9 -15.7 12.3 16 20 17
-18.6 -15.7 12.3 54 54 54
-18.3 -15.6 12.3 54 54 54
-17.9 -15.6 12.2 23 23 23
-17.7 -15.7 12.3 25 25 25
-17.5 -15.7 12.3 25 25 25
-14.6 -15.7 12.3 36 36 36
-14.3 -15.7 12.3 138 140 139
-14.1 -15.7 12.3 119 121 120
-13.7 -15.6 12.2 40 40 40
-16.6 -32.4 25.4 90 92 91
-15.9 -32.2 25.2 89 91 90
-15.4 -32.3 25.3 62 62 62
-15.3 -33.6 26.3 112 112 112
671.8 -493.0 386.0 211 211 211
556.0 -402.6 315.3 211 211 211
502.6 -317.9 248.9 215 215 215
86.6 -30.9 24.2 144 144 144
87.1 -30.9 24.2 133 133 133
88.4 -31.2 24.4 133 133 133
89.6 -31.4 24.6 131 133 132
90.4 -31.5 24.6 131 133 132
91.0 -31.5 24.6 131 133 132
91.5 -31.5 24.6 131 133 132
92.1 -31.5 24.6 128 130 129
93.0 -31.6 24.7 128 130 129
93.2 -31.5 24.6 128 130 129
93.5 -31.3 24.5 128 130 129
-28.5 -15.2 12.1 33 32 30
-26.4 -14.2 11.3 23 23 23
-27.7 -15.2 12.1 23 23 23
-27.4 -15.2 12.1 161 160 158
-19.7 -15.2 12.1 38 38 38
-18.1 -15.2 12.1 39 39 39
-17.7 -15.2 12.1 44 43 42
-14.5 -15.3 12.2 40 40 40
-14.2 -15.3 12.2 128 131 130
-13.9 -15.3 12.2 92 92 92
-13.5 -15.2 12.1 27 28 26
680.8 -484.1 386.0 211 211 211
88.0 -30.6 24.4 112 112 112
89.8 -31.1 24.8 119 119 119
91.7 -31.5 25.2 119 119 119
93.4 -31.9 25.5 123 123 123
93.3 -31.7 25.3 123 123 123
94.5 -31.5 25.1 125 125 125
95.4 -31.6 25.2 128 127 126
-14.3 -15.1 12.3 118 120 119
-14.1 -15.2 12.3 36 37 36
-19.7 -37.1 30.1 90 92 91
12.9 -12.7 10.3 210 210 210
13.6 -12.9 10.5 209 209 209
13.8 -12.9 10.5 209 209 209
15.4 -12.7 10.4 208 208 208
15.4 -12.6 10.2 208 208 208
695.0 -485.0 394.1 211 211 211
84.9 -29.2 23.7 103 103 103
86.1 -29.4 23.9 105 107 107
99.4 -33.1 26.9 112 112 112
82.7 -27.0 22.0 114 116 115
82.2 -26.5 21.6 133 133 133
-24.7 -12.5 10.4 27 27 27
-24.4 -12.5 10.4 23 23 23
-24.2 -12.5 10.4 17 21 18
-24.0 -12.6 10.4 17 21 18
-23.7 -12.5 10.4 17 21 18
-23.5 -12.5 10.4 122 122 122
-23.2 -12.5 10.4 146 148 148
-23.0 -12.5 10.4 121 121 121
-18.6 -12.5 10.4 53 52 52
-18.4 -12.5 10.4 53 52 52
-18.1 -12.5 10.4 53 52 52
-17.9 -12.5 10.4 53 52 52
-17.7 -12.5 10.4 53 52 52
-17.4 -12.5 10.4 51 51 51
-17.2 -12.5 10.4 44 44 44
-16.9 -12.5 10.4 38 40 40
-16.7 -12.5 10.4 27 29 27
-16.4 -12.5 10.4 31 30 29
-16.2 -12.5 10.4 89 89 89
-16.0 -12.5 10.4 17 21 18
-15.5 -12.5 10.4 31 30 29
-15.2 -12.5 10.4 27 29 27
-15.0 -12.5 10.4 37 38 37
-14.8 -12.5 10.4 120 120 120
-11.2 -12.6 10.5 62 62 62
-10.9 -12.5 10.4 30 30 30
-20.8 -38.4 31.8 98 98 98
-20.2 -38.6 32.0 90 92 91
-19.2 -39.7 32.9 59 59 59
12.7 -12.5 10.4 210 210 210
12.8 -12.1 10.0 209 209 209
13.6 -12.6 10.5 209 209 209
15.3 -12.6 10.5 208 208 208
15.3 -12.5 10.3 210 210 210
15.4 -12.3 10.2 210 210 210
82.9 -28.2 23.3 55 54 53
84.1 -28.4 23.5 97 97 97
85.2 -28.6 23.7 105 105 105
105.2 -34.6 28.7 107 109 109
104.1 -34.0 28.2 107 109 109
83.2 -26.7 22.1 104 104 104
84.1 -26.8 22.2 93 93 93
82.2 -26.0 21.6 152 152 152
81.1 -25.5 21.2 125 125 125
-29.4 -12.4 10.4 110 112 111
-29.2 -12.4 10.5 152 152 152
-29.0 -12.4 10.5 44 44 44
-28.7 -12.4 10.5 101 101 101
-28.5 -12.4 10.5 169 171 170
-28.2 -12.4 10.5 207 207 207
-28.0 -12.4 10.5 167 167 167
-27.8 -12.4 10.5 185 185 185
-27.5 -12.4 10.5 187 189 189
-27.3 -12.4 10.5 199 199 199
-27.0 -12.4 10.5 176 176 176
-26.8 -12.4 10.5 72 72 72
-26.5 -12.4 10.5 74 74 74
-26.3 -12.4 10.5 75 77 75
-26.0 -12.4 10.5 75 76 74
-25.8 -12.4 10.5 75 76 74
-25.4 -12.4 10.5 65 65 65
-25.1 -12.4 10.5 32 31 30
-24.8 -12.4 10.5 29 31 29
-24.6 -12.4 10.5 23 23 23
-24.3 -12.4 10.5 25 25 25
-24.1 -12.4 10.5 25 25 25
-23.9 -12.4 10.5 25 25 25
-23.6 -12.4 10.5 121 121 121
-23.4 -12.4 10.5 147 149 149
-23.1 -12.4 10.4 147 147 147
-22.9 -12.4 10.5 145 145 144
-22.6 -12.4 10.5 147 149 149
-22.4 -12.4 10.5 145 145 144
-22.2 -12.4 10.5 131 131 131
-19.3 -12.4 10.5 43 42 41
-19.0 -12.4 10.5 53 52 52
-18.7 -12.4 10.5 53 52 52
-18.5 -12.4 10.5 53 52 52
-18.3 -12.4 10.5 53 52 52
-18.0 -12.4 10.5 53 52 52
-17.8 -12.4 10.5 53 52 52
-17.5 -12.4 10.5 53 52 52
-17.3 -12.4 10.5 47 47 47
-17.0 -12.4 10.5 38 40 40
-16.8 -12.4 10.5 33 33 33
-16.6 -12.4 10.5 27 29 27
-16.3 -12.4 10.5 77 78 76
-16.1 -12.4 10.5 38 38 38
-15.8 -12.4 10.4 51 51 51
-15.6 -12.4 10.5 89 89 89
-15.3 -12.4 10.5 137 137 137
-15.1 -12.4 10.5 136 136 136
-14.9 -12.4 10.5 106 106 106
-11.6 -12.5 10.6 29 29 27
-11.2 -12.4 10.5 29 29 27
-11.0 -12.4 10.4 26 27 25
-10.7 -12.3 10.4 23 23 23
-10.5 -12.4 10.5 25 27 25
-10.0 -12.4 10.5 92 92 92
-9.8 -12.4 10.5 100 100 100
-9.5 -12.4 10.5 116 116 116
-9.2 -12.3 10.4 143 145 144
-8.9 -12.3 10.4 28 27 26
-20.7 -38.9 32.8 93 93 93
-19.8 -38.7 32.7 87 89 88
-19.5 -39.6 33.4 39 39 39
84.6 -28.0 23.6 94 94 94
85.9 -28.2 23.9 103 103 103
101.9 -33.1 27.9 106 106 106
103.3 -33.3 28.1 103 103 103
103.6 -33.2 28.1 100 102 102
102.6 -32.7 27.6 98 98 98
84.0 -26.3 22.2 66 66 64
81.5 -25.3 21.4 154 154 154
80.6 -24.9 21.0 125 125 125
-24.7 -12.3 10.6 66 66 66
-24.4 -12.3 10.6 25 25 25
-24.1 -12.3 10.6 23 23 23
-24.0 -12.4 10.6 95 95 95
-23.6 -12.3 10.6 147 149 149
-17.5 -12.5 10.7 39 41 41
-17.1 -12.4 10.6 39 41 41
-16.9 -12.4 10.7 17 21 18
-11.7 -12.4 10.7 24 24 24
-11.3 -12.3 10.6 26 27 25
-10.4 -12.4 10.7 33 33 33
-9.7 -12.3 10.6 121 121 121
-22.6 -41.6 35.8 94 94 94
101.9 -32.4 27.9 99 101 101
102.8 -32.5 28.0 95 95 95
103.3 -32.5 28.0 89 89 89
102.8 -32.1 27.7 75 76 76
81.5 -24.8 21.4 156 156 156
-25.0 -12.2 10.8 128 128 128
-24.8 -12.2 10.7 140 140 140
-24.5 -12.2 10.8 143 143 142
-24.3 -12.2 10.8 126 128 127
-24.0 -12.2 10.7 165 168 167
-23.8 -12.2 10.8 175 177 177
-17.3 -12.2 10.7 226 226 226
-17.0 -12.2 10.7 227 227 227
-11.8 -12.2 10.7 27 28 26
-11.5 -12.2 10.7 29 29 27
-24.6 -46.1 40.5 85 87 87
-25.0 -48.7 42.8 114 116 115
-23.3 -47.3 41.6 117 117 117
54.3 -16.7 14.7 68 67 66
54.0 -16.5 14.5 68 67 66
-24.7 -11.9 10.7 190 190 190
-17.2 -11.9 10.7 230 230 230
-11.7 -11.9 10.7 102 104 104
-27.0 -47.7 42.8 95 98 97
-25.8 -47.3 42.4 107 107 107
-25.6 -48.9 43.9 13 17 14
-24.4 -48.5 43.5 18 18 18
-22.5 -46.6 41.9 115 115 115
12.3 -11.4 10.2 210 210 210
12.8 -11.4 10.3 214 214 214
15.3 -11.5 10.3 215 215 215
15.4 -11.4 10.2 215 215 215
16.1 -11.4 10.2 215 215 215
53.6 -16.1 14.4 74 74 74
53.0 -15.8 14.2 75 76 76
-10.7 -11.1 10.2 29 29 27
-10.4 -11.0 10.1 29 29 27
-10.2 -11.1 10.2 29 29 27
-9.8 -10.9 10.0 29 29 27
-9.4 -11.0 10.1 28 28 26
-9.1 -10.9 10.0 31 31 31
-28.5 -49.3 45.1 99 99 99
-27.4 -49.3 45.1 112 112 112
-26.9 -50.3 46.1 23 24 23
-25.7 -50.0 45.8 31 33 33
-25.1 -51.0 46.7 102 102 102
12.7 -11.1 10.2 214 214 214
14.4 -11.1 10.2 215 215 215
15.0 -11.2 10.2 215 215 215
15.2 -11.1 10.2 215 215 215
15.2 -11.0 10.1 215 215 215
15.8 -10.9 10.0 215 215 215
53.7 -15.8 14.5 75 76 76
52.9 -15.4 14.2 75 76 76
52.3 -15.2 13.9 77 79 78
-10.7 -10.9 10.2 30 29 28
-10.2 -10.9 10.2 31 31 31
-9.9 -10.8 10.1 30 30 30
-9.8 -11.0 10.3 30 30 30
-9.4 -10.8 10.1 28 28 26
-9.1 -10.7 10.0 31 31 31
-31.4 -53.2 49.8 101 101 101
-29.2 -51.3 48.0 113 114 113
-28.6 -52.3 49.0 11 11 11
-28.5 -54.3 50.9 25 25 23
-27.6 -54.9 51.4 46 46 46
40.3 -17.0 15.9 69 69 69
51.6 -14.7 13.7 77 80 79
-11.2 -10.9 10.5 30 29 28
-9.1 -10.5 10.1 33 33 33
-30.2 -51.9 49.6 112 112 112
-32.8 -61.2 58.6 21 21 21
40.2 -16.6 15.9 69 72 71
1118.2 -359.3 343.9 43 45 44
-19.3 -10.7 10.5 231 231 231
-19.0 -10.7 10.5 228 228 228
-18.1 -10.7 10.5 206 206 206
-17.9 -10.7 10.5 53 53 53
-17.6 -10.7 10.5 65 66 64
-11.6 -10.9 10.6 27 29 27
-11.2 -10.7 10.5 27 29 27
-11.0 -10.7 10.5 25 25 25
-10.7 -10.7 10.5 27 28 26
-10.3 -10.8 10.6 31 31 31
-10.1 -10.7 10.5 33 33 33
-9.8 -10.8 10.6 32 32 32
259.4 -146.4 143.3 218 218 218
960.9 -301.9 295.6 50 50 50
-29.5 -10.5 10.5 97 97 97
-19.3 -10.5 10.5 228 228 228
-19.0 -10.4 10.4 238 238 238
-18.0 -10.4 10.5 210 210 210
-17.8 -10.4 10.4 183 186 185
-17.5 -10.4 10.5 66 67 65
-11.7 -10.6 10.7 31 30 29
-11.2 -10.4 10.5 25 25 25
-10.9 -10.4 10.4 30 29 28
-10.7 -10.4 10.4 30 29 28
-10.4 -10.3 10.4 31 31 31
-10.3 -10.5 10.6 31 31 31
-10.0 -10.4 10.5 33 33 33
-9.8 -10.4 10.5 32 32 32
28.7 -17.9 17.9 217 220 219
28.1 -17.0 17.1 217 220 219
257.4 -142.0 142.2 219 222 221
40.0 -15.8 15.8 82 82 82
750.0 -230.3 230.7 54 53 52
563.1 -171.7 172.0 87 87 87
652.1 -194.7 195.0 60 60 60
-19.3 -10.2 10.5 225 225 225
-18.8 -10.1 10.3 226 226 226
-18.4 -10.0 10.3 229 229 229
-11.8 -10.5 10.8 34 34 34
-11.2 -10.2 10.4 27 29 27
-10.7 -10.1 10.4 32 32 32
-9.7 -10.2 10.4 34 34 34
-9.2 -9.8 10.1 36 36 36
29.8 -18.4 18.9 217 220 219
30.3 -18.5 19.0 217 220 219
30.6 -18.4 18.8 217 220 219
31.7 -18.5 19.0 217 220 219
237.8 -128.1 131.4 219 222 221
240.8 -128.1 131.4 219 222 221
425.1 -196.2 201.2 194 194 194
39.4 -15.2 15.6 82 84 84
-18.7 -9.8 10.3 207 210 209
-18.4 -9.8 10.3 216 219 218
-12.2 -10.4 10.9 34 34 34
-11.8 -10.3 10.8 33 33 33
-11.2 -10.0 10.5 31 30 29
-9.2 -9.6 10.1 36 36 36
-8.4 -10.7 11.3 200 200 200
-8.1 -10.6 11.2 177 180 179
29.5 -17.8 18.7 219 222 221
30.0 -17.8 18.7 217 220 219
30.3 -17.8 18.7 217 220 219
31.0 -17.9 18.8 217 220 219
31.2 -17.8 18.7 218 221 220
244.6 -128.6 135.1 219 222 221
39.5 -14.8 15.6 83 85 85
-19.4 -9.8 10.6 111 113 112
-18.7 -9.5 10.3 201 203 203
-18.4 -9.5 10.3 206 209 208
-11.8 -10.0 10.7 34 34 34
-11.2 -9.7 10.5 35 35 35
-9.1 -9.3 10.0 34 34 34
-8.4 -10.5 11.3 189 191 191
-8.1 -10.4 11.2 176 179 178
-78.2 -135.1 145.5 164 164 164
29.9 -17.1 18.4 217 220 219
30.9 -17.2 18.5 218 221 220
153.5 -71.4 76.9 220 223 222
575.1 -159.7 172.0 77 77 77
-12.2 -9.9 10.9 34 34 34
-8.4 -10.2 11.3 192 192 192
-80.1 -134.8 148.9 161 161 161
-76.0 -133.8 147.8 178 178 178
29.5 -16.4 18.2 220 223 222
27.8 -15.3 16.9 218 221 220
30.0 -16.0 17.7 220 223 222
153.5 -69.6 76.9 220 223 222
269.3 -114.2 126.1 196 196 196
270.2 -109.8 121.3 199 199 199
39.8 -14.2 15.7 90 90 90
-12.2 -9.6 10.9 33 32 30
-8.4 -9.9 11.3 186 188 187
-8.1 -9.8 11.2 175 177 177
-7.7 -9.7 11.0 163 163 163
-89.2 -146.3 165.9 165 165 165
12.8 -9.0 10.2 218 221 220
15.3 -9.1 10.3 220 223 222
29.3 -15.9 18.0 220 223 222
30.3 -16.0 18.1 220 223 222
30.2 -15.7 17.8 220 223 222
243.3 -100.5 114.0 198 198 198
270.2 -106.9 121.3 199 199 199
39.8 -13.9 15.7 91 94 93
-28.2 -12.1 14.1 67 67 67
-11.8 -9.2 10.7 34 34 34
-9.7 -9.1 10.7 37 40 39
-8.4 -9.7 11.3 184 187 186
-8.1 -9.6 11.2 178 178 178
-7.6 -9.3 10.9 151 153 153
-183.6 -306.5 356.9 179 182 181
12.8 -8.8 10.2 218 221 220
29.3 -15.5 18.1 220 223 222
30.5 -15.7 18.3 220 223 222
30.1 -15.3 17.8 220 223 222
241.9 -97.3 113.3 196 196 196
39.4 -13.4 15.6 96 96 96
-28.2 -11.8 14.1 65 65 65
-25.8 -10.9 13.0 65 65 65
-22.9 -9.8 11.7 61 60 59
-22.2 -9.6 11.5 58 59 59
-21.8 -9.5 11.4 53 53 53
-10.5 -10.2 12.1 42 42 42
-8.5 -9.5 11.4 186 188 187
-8.1 -9.3 11.2 172 174 174
-200.9 -287.4 343.9 30 29 29
-173.9 -259.1 310.1 14 18 15
-175.3 -272.5 326.1 166 169 168
-202.7 -329.3 394.1 178 178 178
-189.6 -322.5 386.0 178 181 180
29.7 -15.3 18.3 220 223 222
30.4 -15.2 18.2 220 223 222
30.4 -15.0 18.0 222 224 224
212.6 -83.2 99.6 194 194 194
194.4 -75.3 90.1 198 198 198
211.9 -78.6 94.1 199 199 199
218.4 -80.2 96.0 200 200 200
-23.4 -9.5 11.7 47 46 45
-23.3 -9.6 11.8 62 61 60
-22.9 -9.5 11.7 63 63 63
-22.4 -9.4 11.6 58 59 59
-10.4 -9.8 12.1 44 44 44
-10.0 -9.7 12.0 36 39 38
-9.6 -9.5 11.7 198 201 200
-8.5 -9.2 11.3 186 188 187
-8.1 -9.1 11.2 172 174 174
152.9 -62.2 76.6 223 225 225
191.7 -72.1 88.8 196 196 196
207.8 -75.0 92.3 199 199 199
-10.0 -9.4 11.9 43 43 43
-8.5 -8.9 11.3 184 187 186
-8.1 -8.8 11.2 172 174 174
-7.7 -8.7 11.0 146 146 146
27.8 -13.5 17.1 222 224 224
149.2 -59.0 74.8 223 225 225
170.1 -62.2 78.8 198 198 198
156.9 -56.7 71.9 199 199 199
167.7 -58.8 74.5 199 199 199
167.4 -58.1 73.6 199 199 199
-8.5 -8.7 11.4 184 187 186
-7.7 -8.4 11.0 153 153 153
27.4 -12.9 16.8 222 224 224
187.3 -66.4 86.8 194 194 194
207.5 -66.4 86.8 206 206 206
212.4 -67.4 88.0 208 208 208
-8.5 -8.4 11.4 181 181 181
-7.6 -8.1 10.9 148 150 150
27.7 -12.6 17.0 222 224 224
196.1 -68.2 91.8 162 165 164
182.3 -62.7 84.4 192 192 192
199.8 -66.6 89.7 199 199 199
194.5 -64.1 86.4 199 199 199
193.0 -63.0 84.8 199 199 199
201.4 -64.4 86.8 200 200 200
208.2 -65.9 88.8 203 203 203
215.3 -67.5 90.9 203 203 203
206.5 -64.1 86.4 206 206 206
207.6 -63.8 86.0 204 204 204
205.9 -62.7 84.4 224 226 226
-7.6 -7.8 10.8 148 150 150
27.4 -12.1 16.9 222 224 224
155.4 -56.0 77.8 223 225 225
176.0 -58.6 81.5 190 190 190
196.1 -63.3 88.0 196 196 196
184.4 -58.9 81.9 199 199 199
181.6 -57.4 79.8 199 199 199
185.0 -57.9 80.5 200 200 200
188.5 -58.4 81.2 200 200 200
187.9 -57.7 80.2 203 203 203
197.5 -59.4 82.6 203 203 203
199.4 -59.4 82.6 198 198 198
192.9 -56.9 79.1 230 230 230
170.9 -55.1 79.1 185 185 185
146.9 -46.9 67.3 194 194 194
176.7 -54.6 78.5 199 199 199
189.3 -55.1 79.1 203 203 203
188.7 -54.4 78.2 202 202 202
177.3 -50.6 72.8 230 230 230
448.3 -132.6 197.0 199 199 199
305.9 -87.8 130.5 203 203 203
296.6 -84.3 125.3 203 203 203
167.7 -46.3 68.8 222 224 224
159.4 -43.6 64.8 232 232 232
27.5 -11.0 16.9 223 225 225
26.8 -10.6 16.3 223 225 225
308.0 -85.3 131.4 203 203 203
235.7 -64.7 99.6 206 206 206
220.6 -59.4 91.4 204 204 204
154.7 -40.8 62.8 234 234 234
80.9 -60.8 97.0 220 223 222
94.3 -63.7 101.7 220 223 222
91.2 -60.1 96.0 219 219 219
26.7 -10.1 16.2 223 225 225
220.7 -61.4 98.0 197 197 197
232.6 -64.0 102.3 197 197 197
222.9 -60.8 97.0 197 197 197
226.4 -61.1 97.5 200 200 200
232.2 -62.0 99.0 200 200 200
233.3 -61.7 98.5 206 206 206
245.8 -64.4 102.8 208 208 208
160.0 -40.7 65.0 237 237 237
29.3 -70.0 116.1 150 152 152
30.2 -65.9 109.3 149 149 149
32.7 -65.9 109.3 145 145 144
37.7 -70.4 116.8 146 146 146
39.4 -68.7 114.0 150 150 150
40.6 -66.3 110.0 150 150 150
45.2 -69.6 115.3 151 151 151
46.2 -67.1 111.3 146 146 146
47.7 -65.6 108.7 209 212 211
84.0 -66.3 110.0 222 224 224
91.9 -70.4 116.8 222 224 224
89.1 -66.3 110.0 222 224 224
89.1 -64.5 106.9 222 224 224
102.8 -70.4 116.8 224 226 226
106.2 -70.9 117.5 222 224 224
101.9 -66.3 110.0 222 224 224
102.1 -64.8 107.5 220 220 220
105.8 -65.6 108.7 214 214 214
109.0 -65.9 109.3 203 205 205
112.2 -66.3 110.0 200 200 200
114.0 -65.9 109.3 220 220 220
117.3 -66.3 110.0 169 169 169
119.8 -66.3 110.0 67 67 67
122.4 -66.3 110.0 65 65 63
131.8 -70.0 116.1 75 75 75
126.8 -65.9 109.3 68 68 68
136.4 -69.6 115.3 65 65 63
27.2 -10.1 16.8 223 225 225
26.7 -9.8 16.2 223 225 225
265.7 -72.7 120.5 195 195 195
260.2 -70.4 116.8 195 195 195
247.6 -66.3 110.0 197 197 197
256.1 -67.9 112.6 197 197 197
255.7 -67.1 111.3 200 200 200
255.3 -66.3 110.0 198 198 198
257.9 -66.3 110.0 202 202 202
257.4 -65.6 108.7 202 202 202
266.1 -67.1 111.3 207 207 207
267.1 -66.7 110.6 204 204 204
1060.3 -196.7 326.1 65 65 65
599.1 -103.7 172.0 72 71 69
165.7 -166.2 286.6 224 226 226
225.7 -166.2 286.6 221 221 221
113.1 -70.8 122.0 220 220 220
26.7 -9.4 16.2 224 226 226
295.8 -77.8 134.2 193 193 193
282.9 -73.6 127.0 195 195 195
655.3 -168.7 291.0 196 196 196
295.7 -74.6 128.7 200 200 200
294.7 -73.6 127.0 198 198 198
284.3 -70.3 121.3 202 202 202
283.5 -69.4 119.7 204 204 204
303.6 -73.6 127.0 207 207 207
296.6 -71.2 122.8 203 203 203
182.3 -175.5 315.3 225 227 227
177.7 -164.5 295.6 225 227 227
252.4 -178.4 320.6 221 221 221
27.3 -9.4 16.8 222 224 224
672.4 -164.5 295.6 198 198 198
315.9 -75.7 136.1 202 202 202
305.9 -72.6 130.5 202 202 202
331.8 -78.0 140.1 202 202 202
27.2 -8.9 16.8 222 224 224
31.4 -9.0 16.9 223 225 225
214.9 -53.7 100.6 144 146 146
229.8 -52.3 98.0 202 202 202
230.9 -52.0 97.5 207 207 207
233.2 -52.0 97.5 204 204 204
229.5 -50.7 95.1 199 199 199
578.0 -88.5 165.9 72 71 69
-83.3 -19.4 38.1 73 74 72
36.0 -46.8 91.8 119 119 119
38.3 -47.1 92.3 116 116 116
40.3 -46.8 91.8 217 217 217
42.2 -46.6 91.4 224 226 226
44.8 -47.1 92.3 224 226 226
47.1 -47.3 92.7 226 229 228
27.3 -8.6 16.8 223 225 225
31.4 -8.6 16.9 223 225 225
194.4 -45.9 90.1 174 174 174
215.2 -47.8 93.6 198 198 198
218.5 -48.0 94.1 202 202 202
216.4 -47.1 92.3 203 203 203
218.5 -47.1 92.3 207 207 207
217.5 -46.4 90.9 207 207 207
215.4 -45.5 89.2 197 197 197
236.8 -47.3 92.7 69 69 69
-83.8 -18.6 38.3 71 71 71
-80.4 -18.1 37.2 71 71 71
27.6 -8.4 17.2 222 222 222
27.5 -8.2 16.9 222 222 222
28.9 -7.5 15.4 224 226 226
29.1 -7.5 15.3 224 226 226
181.5 -40.9 84.1 170 171 170
151.7 -33.9 69.5 186 186 186
191.7 -39.0 80.2 205 205 205
190.3 -38.4 78.8 199 199 199
187.4 -37.4 76.9 224 224 224
212.0 -40.0 82.2 66 66 66
-86.8 -18.4 39.7 70 70 70
-82.1 -17.6 37.9 70 70 70
27.3 -7.8 16.8 222 222 222
31.0 -7.8 16.9 224 224 224
31.4 -7.8 16.9 224 226 226
28.7 -7.1 15.3 224 226 226
-96.8 -19.3 43.8 69 69 69
-89.6 -18.0 40.9 70 70 70
-85.7 -17.4 39.6 70 70 70
27.1 -7.4 16.7 224 224 224
30.5 -7.3 16.6 224 224 224
31.1 -7.4 16.8 224 224 224
399.9 -66.5 168.9 204 204 204
511.5 -81.9 207.9 228 231 230
431.1 -68.4 173.5 126 126 126
21.1 -4.9 13.2 222 222 222
21.4 -4.9 13.2 226 226 226
21.7 -4.9 13.2 226 226 226
22.0 -4.9 13.1 226 226 226
22.3 -4.9 13.2 226 226 226
22.7 -4.9 13.2 226 226 226
23.2 -4.9 13.2 226 226 226
23.5 -4.9 13.2 222 222 222
23.8 -4.9 13.1 222 222 222
24.1 -4.9 13.1 226 226 226
24.4 -4.9 13.1 226 226 226
24.7 -4.9 13.1 226 226 226
25.0 -4.9 13.1 226 226 226
25.4 -4.9 13.2 226 226 226
25.7 -4.9 13.2 226 226 226
25.9 -4.9 13.1 226 226 226
23.7 -4.6 13.3 222 222 222
26.0 -4.6 13.2 226 226 226
443.1 -31.5 170.4 79 81 80
381.8 -26.9 145.5 67 69 68
278.2 -19.4 105.1 64 64 64
443.1 -27.5 170.4 79 81 80
397.0 -24.4 151.3 67 69 68
439.2 -23.1 167.4 65 65 65
-173.5 -2.8 61.6 60 60 60
-161.6 -2.8 62.0 63 63 63
-159.7 -2.8 61.8 61 61 61
-140.6 -2.8 61.0 59 59 59
-138.7 -2.8 60.8 59 59 59
-139.1 -2.8 61.6 59 59 59
-131.7 -2.8 60.8 58 59 57
-124.6 -2.8 62.2 56 56 56
-118.9 -2.8 60.8 53 52 51
-117.9 -2.8 61.0 50 50 50
-98.5 -2.8 62.2 20 20 20
-97.1 -2.8 62.2 20 20 20
-92.1 -2.8 60.8 22 25 23
-86.7 -2.8 61.0 23 26 24
-84.2 -2.7 60.2 27 27 27
-83.5 -2.8 61.8 28 28 28
-79.5 -2.7 59.9 41 41 41
-74.9 -2.8 61.8 211 211 211
-72.7 -2.8 61.2 213 215 215
-174.0 -1.4 61.8 58 58 58
-173.2 -1.4 62.0 60 60 60
-171.7 -1.4 62.0 60 60 60
-170.3 -1.4 62.0 63 63 63
-168.8 -1.4 62.0 63 63 63
-167.4 -1.4 62.0 64 64 64
-164.9 -1.4 61.6 64 64 64
-163.5 -1.4 61.6 62 62 62
-163.1 -1.4 62.0 62 62 62
-162.2 -1.4 62.2 60 60 60
-160.7 -1.4 62.2 60 60 60
-158.2 -1.4 61.8 60 60 60
-157.3 -1.4 62.0 61 61 61
-155.4 -1.4 61.8 61 61 61
-154.4 -1.4 62.0 62 62 62
-153.0 -1.4 62.0 62 62 62
-151.5 -1.4 62.0 62 62 62
-150.1 -1.4 62.0 59 61 59
-148.7 -1.4 62.0 63 63 63
-147.2 -1.4 62.0 60 62 60
-145.8 -1.4 62.0 58 58 58
-143.9 -1.4 61.8 58 59 59
-141.0 -1.3 61.2 58 59 59
-139.6 -1.3 61.2 58 59 59
-139.6 -1.4 61.8 56 57 55
-136.8 -1.3 61.2 56 57 55
-135.7 -1.4 62.0 54 54 54
-129.6 -1.3 59.9 55 55 55
-128.1 -1.4 61.8 56 56 56
-127.0 -1.4 62.0 55 55 55
-126.8 -1.4 62.6 53 52 52
-124.6 -1.4 62.2 53 53 53
-122.3 -1.4 61.8 52 52 50
-119.7 -1.3 61.2 52 52 50
-118.3 -1.3 61.2 49 49 49
-117.2 -1.3 61.4 50 50 50
-115.1 -1.3 61.0 50 50 50
-101.7 -1.3 59.9 49 49 49
-100.4 -1.3 59.9 42 42 42
-101.9 -1.4 61.6 28 28 28
-100.1 -1.3 61.4 21 24 22
-99.0 -1.4 61.6 19 19 19
-98.5 -1.4 62.2 19 19 19
-98.1 -1.4 62.8 20 20 20
-98.2 -1.4 63.9 21 24 22
-93.9 -1.4 62.0 21 24 22
-88.1 -1.3 59.1 22 25 23
-90.5 -1.4 62.6 22 25 23
-87.8 -1.4 61.8 23 26 24
-85.3 -1.3 61.0 27 27 27
-84.1 -1.4 62.2 28 28 28
-80.2 -1.3 60.4 33 35 33
-76.9 -1.3 58.9 33 35 33
-75.3 -1.3 58.7 221 221 221
-74.8 -1.3 59.5 221 221 221
-77.3 -1.4 62.6 215 218 217
-75.4 -1.4 62.2 214 216 216
-73.2 -1.4 61.6 214 216 216
-71.3 -1.3 61.2 213 215 215
-65.2 -1.3 60.8 194 194 194
-64.4 -1.3 61.4 206 206 206
-63.6 -1.4 62.0 197 200 199
-61.3 -1.4 62.6 42 44 43
-62.8 -1.4 65.7 34 33 32
-61.7 -1.5 66.1 35 35 35
-54.8 -1.4 61.8 37 38 37
-53.7 -1.4 62.2 45 45 45
-52.8 -1.4 62.8 157 157 157
-49.8 -1.3 61.0 181 181 181
-50.4 -1.4 65.5 179 179 179
-46.8 -1.4 62.6 143 145 144
-44.3 -1.3 61.2 109 109 109
-43.6 -1.4 62.2 89 91 90
-168.5 0.1 59.9 59 59 59
-171.5 0.1 61.4 58 58 58
-170.1 0.1 61.4 60 60 60
-168.6 0.1 61.4 60 60 60
-167.2 0.1 61.4 61 61 61
-165.8 0.1 61.4 63 63 63
-161.2 0.1 60.2 66 67 65
-159.3 0.1 60.1 66 67 65
-158.9 0.1 60.4 62 62 62
-161.1 0.1 61.8 62 62 62
-157.6 0.1 61.0 63 63 63
-156.7 0.1 61.2 60 60 60
-153.3 0.1 60.4 60 60 60
-151.4 0.1 60.2 61 61 61
-152.9 0.1 61.4 61 61 61
-151.5 0.1 61.4 61 61 61
-150.1 0.1 61.4 62 62 62
-148.6 0.1 61.4 62 62 62
-147.2 0.1 61.4 62 62 62
-145.8 0.1 61.4 63 63 63
-144.4 0.1 61.4 58 58 58
-142.9 0.1 61.4 58 58 58
-137.9 0.1 59.9 58 58 58
-136.1 0.1 59.7 55 56 54
-137.3 0.1 60.8 55 56 54
-134.2 0.1 60.1 56 57 55
-130.7 0.1 59.1 53 53 53
-133.5 0.1 61.0 53 53 53
-127.6 0.1 58.9 54 54 54
-124.2 0.1 62.0 53 52 52
-119.6 0.1 60.4 51 51 49
-116.7 0.1 59.7 53 53 53
-115.7 0.1 59.9 49 49 49
-114.3 0.1 59.9 49 49 49
-111.8 0.1 59.3 50 50 50
-110.8 0.1 59.5 54 53 52
-100.2 0.1 58.9 52 52 52
-99.1 0.1 59.1 40 42 42
-100.2 0.1 60.6 27 27 27
-99.5 0.1 61.0 21 24 22
-97.7 0.1 60.8 20 20 20
-96.6 0.1 61.0 20 20 20
-97.1 0.1 62.2 20 20 20
-96.9 0.1 63.1 20 20 20
-92.4 0.1 61.0 21 24 22
-87.0 0.1 58.4 21 24 22
-86.7 0.1 61.0 22 25 23
-83.1 0.1 59.5 23 26 24
-83.0 0.1 61.4 30 29 29
-78.7 0.1 59.3 36 36 34
-75.7 0.1 58.0 33 35 33
-73.2 0.1 57.1 227 227 227
-73.0 0.1 58.0 222 222 222
-76.3 0.1 61.8 215 218 217
-74.4 0.1 61.4 219 219 219
-71.6 0.1 60.2 216 219 218
-69.5 0.1 59.7 206 206 206
-67.5 0.1 61.6 164 167 166
-63.6 0.1 59.3 198 201 200
-62.8 0.1 59.9 198 201 200
-62.8 0.1 61.2 205 205 205
-60.7 0.1 62.0 85 85 85
-54.3 0.1 61.2 40 42 42
-52.8 0.1 61.2 40 42 42
-52.1 0.1 62.0 170 171 170
-48.1 0.1 58.9 186 188 187
-47.2 0.1 59.5 182 182 182
-49.7 0.1 64.6 180 180 180
-46.2 0.1 61.8 144 146 146
-43.3 0.1 59.9 103 105 105
-42.6 0.1 60.8 91 91 91
-135.2 1.5 59.3 54 56 54
-133.1 1.5 60.8 53 53 53
-129.6 1.5 59.9 53 53 53
-114.9 1.5 59.5 48 48 48
-113.2 1.5 59.3 49 49 49
-110.1 1.4 58.4 49 49 49
-99.5 1.4 58.6 53 52 52
-99.1 1.4 59.1 44 43 42
-101.2 1.5 61.2 30 31 30
-99.8 1.5 61.2 21 24 22
-99.0 1.5 61.6 20 20 20
-97.7 1.5 62.6 20 20 20
-98.6 1.6 64.1 20 20 20
-94.5 1.5 62.4 21 24 22
-86.4 1.5 60.8 22 25 23
-82.4 1.4 58.9 23 26 24
-78.5 1.4 59.1 33 35 33
-71.3 1.4 56.6 217 220 219
-61.3 1.5 62.6 95 95 95
-55.1 1.5 62.2 39 39 39
-53.7 1.5 62.2 40 42 42
-52.6 1.5 62.6 183 183 183
-46.6 1.5 62.4 135 135 135
91.0 3.5 24.8 94 97 96
-70.5 7.8 47.3 203 203 203
-66.7 7.5 45.5 196 196 196
91.1 4.1 24.8 95 98 97
91.5 4.0 24.6 88 88 88
90.9 4.0 24.3 88 88 88
93.4 4.1 24.8 94 94 94
93.9 4.1 24.8 95 98 97
93.8 4.0 24.6 95 98 97
93.9 4.0 24.5 177 180 179
-70.7 8.9 47.4 210 213 212
-65.8 8.4 44.8 210 213 212
90.4 4.6 24.6 95 95 95
89.2 4.5 24.2 89 89 89
91.2 4.6 24.5 89 89 89
91.3 4.6 24.4 89 89 89
92.1 4.6 24.5 95 95 95
93.0 4.6 24.6 98 100 100
93.3 4.6 24.5 85 84 82
92.9 4.5 24.3 172 174 174
-66.7 9.6 45.5 212 214 214
-43.8 6.4 30.4 212 214 214
125.9 6.9 32.8 176 176 176
-43.6 7.1 30.2 213 215 215
-41.7 6.9 29.4 210 213 212
-40.2 6.7 28.7 209 209 209
129.4 7.9 33.8 163 162 160
29.8 4.3 16.7 222 222 222
30.1 4.3 16.7 222 222 222
30.4 4.3 16.6 222 222 222
133.7 9.0 34.9 165 168 167
29.7 4.7 16.6 218 218 218
30.1 4.7 16.6 222 222 222
30.2 4.6 16.5 220 220 220
30.5 4.6 16.4 222 222 222
31.0 4.6 16.5 225 225 225
-0.0 5.8 10.4 13 13 13
0.2 5.7 10.2 25 25 25
-280.6 166.9 286.6 96 96 96
-196.6 119.7 205.6 91 94 93
-589.5 184.8 305.1 127 127 127
-481.5 152.7 252.2 122 124 123
-419.9 179.0 295.6 127 127 127
-356.2 220.3 363.8 74 74 74
-226.0 143.2 236.5 95 95 95
169.3 233.8 386.0 78 78 78
-494.7 377.4 386.0 69 71 69
-440.8 385.2 394.1 89 89 89
-431.7 385.2 394.1 158 158 158
310.3 385.2 394.1 17 17 17
310.3 394.4 394.1 18 18 18
25.5 16.1 10.7 215 215 215
25.6 16.1 10.6 208 208 208
25.9 16.1 10.6 216 216 216
39.6 16.0 10.6 134 136 135
24.9 16.5 10.7 215 215 215
25.0 16.4 10.7 77 77 77
25.5 16.5 10.8 158 161 160
25.7 16.5 10.7 165 165 165
25.7 16.4 10.7 168 168 168
26.1 16.4 10.7 173 173 173
26.3 16.4 10.7 170 172 172
26.8 16.4 10.7 169 169 169
27.0 16.4 10.7 124 127 126
39.5 16.4 10.7 128 128 128
39.6 16.4 10.7 133 133 133
39.9 16.4 10.7 128 128 128
40.2 16.4 10.7 76 76 74
40.4 16.4 10.7 74 73 71
40.7 16.4 10.7 78 78 78
25.7 16.9 10.8 152 152 152
25.8 16.8 10.8 158 158 158
25.7 16.6 10.7 161 164 163
40.1 16.7 10.7 108 110 110
40.2 16.6 10.7 74 73 71
-3.9 17.5 11.0 69 72 71
-28.8 17.6 11.0 211 211 211
-11.1 17.7 11.0 31 31 31
