ply
format ascii 1.0
element vertex 2557
property float x
property float y
property float z
property uchar red
property uchar green
property uchar blue
end_header
88.3 -144.7 57.7 154 156 156
89.6 -144.7 57.7 154 156 156
93.0 -147.9 58.9 155 158 157
94.0 -147.4 58.7 155 158 157
95.4 -147.4 58.7 156 159 158
94.1 -143.4 57.1 156 159 158
53.2 -75.7 30.2 158 161 160
53.8 -75.6 30.1 158 161 160
54.7 -75.8 30.2 158 161 160
55.3 -75.7 30.2 157 157 157
56.1 -75.8 30.2 158 158 158
79.9 -58.3 23.2 96 99 98
80.6 -58.5 23.3 96 99 98
81.1 -58.4 23.3 95 95 95
129.4 -256.9 103.4 163 163 163
102.7 -200.1 80.5 163 163 163
84.2 -136.7 55.0 156 159 158
87.2 -139.5 56.1 156 159 158
93.5 -147.4 59.3 155 158 157
92.7 -139.9 56.3 156 159 158
54.0 -76.1 30.6 158 161 160
54.6 -76.0 30.6 158 161 160
55.9 -76.7 30.9 158 161 160
56.4 -76.5 30.8 159 162 161
56.7 -76.0 30.6 159 162 161
60.7 -77.3 31.1 159 159 159
117.8 -89.4 36.0 104 103 101
114.7 -86.4 34.8 104 103 101
113.8 -85.2 34.3 104 103 101
79.3 -57.3 23.1 96 99 98
80.5 -57.8 23.3 95 95 95
80.8 -57.6 23.2 93 93 93
81.4 -57.7 23.2 93 93 93
82.2 -57.9 23.3 93 93 93
59.1 -38.6 15.5 212 213 212
27.6 -133.5 54.2 161 161 161
28.7 -133.1 54.0 161 161 161
30.2 -133.9 54.4 160 160 160
31.4 -133.9 54.4 163 163 163
32.7 -133.9 54.4 163 163 163
33.9 -133.5 54.2 163 163 163
35.1 -133.5 54.2 163 163 163
36.4 -133.5 54.2 163 163 163
37.6 -133.5 54.2 163 163 163
39.2 -134.6 54.7 166 166 166
40.3 -133.9 54.4 167 167 167
41.7 -134.2 54.5 167 167 167
42.3 -132.3 53.7 167 167 167
43.6 -132.3 53.7 167 167 167
44.9 -132.7 53.9 167 167 167
46.5 -133.5 54.2 167 167 167
48.0 -134.2 54.5 164 164 164
49.0 -133.5 54.2 164 164 164
50.4 -133.9 54.4 164 164 164
51.6 -133.9 54.4 164 164 164
56.1 -142.0 57.7 162 162 162
54.5 -134.6 54.7 159 159 159
54.8 -132.3 53.7 162 162 162
56.1 -132.3 53.7 162 162 162
57.8 -133.5 54.2 162 162 162
59.1 -133.5 54.2 162 162 162
60.5 -133.9 54.4 162 162 162
62.1 -134.6 54.7 162 162 162
62.8 -133.5 54.2 162 162 162
63.4 -132.0 53.6 162 162 162
65.7 -134.2 54.5 163 163 163
66.8 -133.9 54.4 163 163 163
68.3 -134.2 54.5 163 163 163
71.2 -137.4 55.8 163 163 163
72.9 -138.2 56.1 163 163 163
71.7 -133.5 54.2 163 163 163
72.7 -133.1 54.0 163 163 163
76.8 -138.2 56.1 163 163 163
81.1 -136.6 55.5 161 161 161
87.0 -142.0 57.7 156 159 158
82.0 -132.0 53.6 161 161 161
84.7 -134.2 54.5 161 161 161
88.8 -138.6 56.3 157 160 159
88.5 -136.2 55.3 157 160 159
89.0 -135.0 54.8 158 161 160
91.9 -137.4 55.8 158 161 160
54.9 -76.6 31.1 158 161 160
55.5 -76.5 31.1 158 161 160
56.5 -76.9 31.2 158 161 160
58.5 -78.6 31.9 159 162 161
57.8 -76.6 31.1 159 162 161
62.3 -78.7 32.0 159 159 159
454.4 -541.7 220.0 156 156 156
112.4 -84.5 34.3 104 103 101
110.0 -82.2 33.4 99 101 101
109.1 -80.9 32.8 99 101 101
77.5 -55.5 22.5 99 101 101
78.7 -56.0 22.7 95 95 95
58.5 -38.3 15.6 159 159 159
58.6 -38.1 15.5 212 213 212
58.6 -37.9 15.4 182 185 184
58.2 -37.4 15.2 190 190 190
24.6 -103.9 42.6 163 163 163
25.7 -104.2 42.7 163 163 163
29.5 -107.3 44.0 166 166 166
29.9 -105.1 43.1 166 166 166
30.6 -103.9 42.6 166 166 166
35.7 -104.4 42.8 167 167 167
37.5 -106.8 43.8 167 167 167
37.7 -104.4 42.8 164 164 164
39.6 -106.8 43.8 164 164 164
40.8 -104.9 43.0 164 164 164
41.6 -104.2 42.7 165 165 165
45.0 -107.6 44.1 162 162 162
44.7 -104.6 42.9 162 162 162
45.4 -103.9 42.6 162 162 162
46.5 -104.2 42.7 162 162 162
47.8 -104.9 43.0 162 162 162
50.2 -105.6 43.3 162 162 162
51.0 -105.1 43.1 162 162 162
51.4 -103.9 42.6 163 163 163
54.7 -106.6 43.7 163 163 163
56.3 -103.9 42.6 163 163 163
56.9 -103.2 42.3 163 163 163
64.3 -110.9 45.5 164 164 164
61.1 -103.7 42.5 164 164 164
62.0 -103.5 42.4 164 164 164
67.4 -105.8 43.4 164 164 164
145.6 -225.1 92.3 162 162 162
141.5 -215.6 88.4 162 162 162
79.2 -118.9 48.8 163 163 163
73.3 -105.6 43.3 164 164 164
56.3 -76.9 31.5 160 163 162
57.4 -77.3 31.7 158 161 160
58.8 -78.2 32.1 159 162 161
59.3 -77.9 32.0 159 162 161
62.9 -78.7 32.3 159 159 159
107.9 -79.8 32.7 99 101 101
104.0 -76.4 31.3 99 101 101
101.5 -74.1 30.4 104 103 101
63.4 -41.6 17.1 196 199 198
63.4 -41.4 17.0 218 218 218
58.3 -37.8 15.5 208 208 208
57.4 -36.5 15.0 212 213 212
25.4 -102.0 42.2 163 163 163
26.4 -102.2 42.3 166 166 166
27.4 -102.0 42.2 166 166 166
28.3 -102.0 42.2 166 169 168
29.3 -102.0 42.2 166 169 168
30.2 -101.8 42.1 166 166 166
31.3 -102.0 42.2 167 167 167
32.4 -102.5 42.4 167 167 167
33.3 -102.2 42.3 167 167 167
34.2 -102.0 42.2 167 167 167
35.1 -101.8 42.1 167 167 167
36.2 -102.0 42.2 164 164 164
37.1 -101.8 42.1 164 164 164
38.2 -102.0 42.2 164 164 164
39.1 -102.0 42.2 164 164 164
40.0 -101.8 42.1 164 164 164
40.9 -101.6 42.0 165 165 165
42.0 -101.8 42.1 165 165 165
43.2 -102.2 42.3 165 165 165
44.0 -102.0 42.2 165 165 165
44.5 -100.9 41.8 165 165 165
45.7 -101.3 41.9 162 162 162
47.0 -102.0 42.2 162 162 162
48.0 -102.0 42.2 162 162 162
48.9 -102.0 42.2 165 165 165
49.9 -102.0 42.2 166 166 166
50.7 -101.6 42.0 166 166 166
54.6 -103.4 42.8 166 166 166
54.8 -102.0 42.2 166 166 166
55.4 -101.3 41.9 166 166 166
56.2 -100.9 41.8 163 163 163
58.0 -102.5 42.4 163 163 163
60.4 -104.8 43.4 166 166 166
61.4 -104.8 43.4 166 166 166
60.7 -102.0 42.2 167 167 167
61.6 -101.8 42.1 167 167 167
63.0 -102.5 42.4 164 164 164
63.5 -101.8 42.1 164 164 164
53.4 -81.8 33.8 165 165 165
144.9 -218.7 90.5 165 165 165
137.8 -204.9 84.8 166 166 166
58.9 -78.7 32.6 161 164 163
61.5 -81.0 33.5 161 164 163
62.2 -80.9 33.5 162 165 164
64.3 -82.6 34.2 160 163 162
66.2 -84.0 34.8 160 163 162
65.8 -82.5 34.1 160 163 162
65.9 -81.6 33.8 159 159 159
102.1 -74.3 30.8 104 103 101
96.3 -69.6 28.8 99 101 101
56.3 -35.7 14.8 215 215 215
56.5 -35.6 14.7 215 215 215
28.0 -87.7 36.7 167 167 167
29.0 -88.2 36.9 167 167 167
39.4 -88.4 36.9 165 165 165
42.0 -88.4 36.9 168 168 168
44.8 -87.2 36.4 169 169 169
49.6 -86.7 36.2 169 169 169
61.2 -103.6 43.3 170 171 170
57.9 -89.1 37.2 170 171 170
152.3 -230.9 96.5 172 172 172
148.4 -221.9 92.7 172 172 172
145.6 -214.5 89.7 172 172 172
58.4 -77.2 32.3 168 168 168
59.7 -77.9 32.6 166 166 166
99.9 -72.0 30.1 99 101 101
55.0 -34.7 14.5 218 218 218
54.6 -34.3 14.3 218 218 218
54.8 -34.2 14.3 218 218 218
25.7 -87.5 36.9 166 166 166
26.5 -87.4 36.9 166 166 166
27.2 -87.0 36.7 167 167 167
28.2 -87.4 36.9 167 167 167
38.6 -87.7 37.0 169 171 170
39.3 -87.4 36.9 169 171 170
48.0 -87.5 36.9 170 172 172
50.9 -89.6 37.8 170 172 172
50.0 -86.5 36.5 173 175 175
63.0 -107.2 45.3 173 175 175
63.3 -106.0 44.7 171 173 173
55.2 -89.5 37.8 171 173 173
58.0 -88.4 37.3 171 173 173
55.9 -83.9 35.4 172 174 174
149.9 -221.9 93.6 172 174 174
147.7 -215.5 90.9 172 174 174
54.7 -72.5 30.6 175 175 175
57.4 -75.1 31.7 168 168 168
57.9 -74.8 31.6 173 173 173
24.8 -86.9 37.0 166 169 168
26.2 -85.7 36.5 166 166 166
26.8 -85.0 36.2 168 170 169
28.0 -86.0 36.7 168 170 169
38.2 -85.8 36.6 169 171 170
38.9 -85.7 36.5 169 171 170
46.9 -86.3 36.8 180 180 180
47.2 -85.2 36.3 178 178 178
49.8 -86.9 37.0 180 180 180
49.4 -84.7 36.1 180 180 180
54.3 -88.6 37.8 179 179 179
53.9 -86.5 36.9 179 179 179
257.6 -407.2 173.5 174 176 176
237.1 -357.9 152.6 171 173 173
56.1 -83.4 35.6 182 182 182
154.5 -226.4 96.5 172 174 174
55.6 -73.0 31.1 175 177 177
57.8 -75.0 32.0 175 177 177
58.1 -74.3 31.7 175 175 175
35.0 -74.6 32.1 189 189 189
34.8 -72.6 31.3 189 189 189
41.9 -75.0 32.3 197 197 197
42.2 -74.2 32.0 200 200 200
44.9 -76.3 32.8 200 200 200
44.3 -74.0 31.8 204 204 204
44.2 -72.5 31.2 200 200 200
46.0 -74.2 32.0 200 200 200
46.5 -74.0 31.8 197 197 197
229.7 -343.3 147.8 197 197 197
170.5 -251.1 108.1 198 198 198
153.7 -223.1 96.0 198 198 198
21.7 -23.8 10.3 155 155 155
20.5 -67.9 29.5 195 195 195
21.0 -67.4 29.3 198 198 198
22.4 -67.6 29.4 195 195 195
24.5 -67.7 29.4 198 198 198
25.3 -68.0 29.6 202 202 202
26.4 -69.1 30.0 198 198 198
33.0 -69.6 30.3 204 204 204
32.9 -68.0 29.6 204 204 204
33.1 -66.9 29.1 200 200 200
37.1 -68.2 29.6 204 204 204
37.3 -67.3 29.3 204 204 204
39.4 -68.5 29.8 204 204 204
43.1 -72.4 31.5 204 204 204
42.2 -69.7 30.3 204 204 204
42.0 -68.2 29.6 204 204 204
43.2 -69.1 30.0 204 204 204
44.0 -69.3 30.1 204 204 204
44.2 -68.4 29.7 204 204 204
229.7 -339.9 147.8 204 204 204
169.6 -247.2 107.5 205 205 205
149.9 -215.4 93.6 205 205 205
146.3 -207.2 90.1 205 205 205
270.9 -203.3 88.4 113 115 114
19.9 -65.2 28.7 205 205 205
20.3 -64.3 28.2 205 205 205
20.9 -64.4 28.3 202 202 202
21.5 -64.1 28.1 202 202 202
23.3 -65.3 28.7 205 205 205
23.6 -64.4 28.3 205 205 205
25.5 -64.2 28.2 205 205 205
26.1 -64.1 28.1 205 205 205
26.9 -64.4 28.3 205 205 205
31.8 -65.2 28.6 204 204 204
31.9 -64.0 28.1 204 204 204
35.7 -63.8 28.0 204 204 204
37.9 -65.3 28.7 204 204 204
41.3 -67.6 29.7 204 204 204
40.7 -65.4 28.7 204 204 204
41.6 -65.8 28.9 204 204 204
42.5 -66.2 29.1 204 204 204
42.8 -65.6 28.8 204 204 204
42.7 -64.5 28.3 204 204 204
219.4 -321.4 141.2 204 204 204
165.8 -239.2 105.1 205 205 205
149.9 -213.2 93.6 205 205 205
144.2 -202.2 88.8 205 205 205
169.4 -234.0 102.8 205 205 205
178.5 -243.3 106.9 206 206 206
284.9 -213.2 93.6 119 119 119
270.9 -201.2 88.4 117 117 117
19.7 -63.9 28.4 205 205 205
20.3 -63.6 28.2 205 205 205
20.9 -63.6 28.2 205 205 205
21.4 -63.1 28.0 205 205 205
23.0 -64.0 28.4 205 205 205
23.5 -63.4 28.1 205 205 205
30.0 -63.3 28.1 207 207 207
31.6 -64.0 28.4 204 204 204
31.9 -63.3 28.1 204 204 204
35.6 -63.0 27.9 204 204 204
37.8 -64.5 28.6 204 204 204
37.9 -63.4 28.1 204 204 204
40.2 -64.0 28.4 204 204 204
41.5 -65.1 28.9 204 204 204
42.2 -65.1 28.9 204 204 204
42.6 -64.7 28.7 204 204 204
42.6 -63.6 28.2 204 204 204
153.0 -218.6 97.0 207 207 207
144.9 -203.9 90.5 205 205 205
135.9 -188.6 83.7 205 205 205
136.1 -186.1 82.6 205 205 205
154.2 -207.9 92.3 206 206 206
154.8 -205.9 91.4 206 206 206
423.0 -315.7 140.1 126 129 128
307.7 -227.9 101.2 125 125 125
269.7 -198.3 88.0 125 125 125
18.7 -64.3 28.8 207 207 207
19.4 -64.4 28.9 207 207 207
19.9 -64.0 28.7 207 207 207
20.6 -63.9 28.7 207 207 207
21.2 -63.8 28.6 207 207 207
21.7 -63.2 28.4 207 207 207
23.3 -64.0 28.7 207 207 207
23.9 -63.8 28.6 207 207 207
27.9 -64.0 28.7 207 207 207
28.8 -64.4 28.9 207 207 207
29.4 -64.2 28.8 207 207 207
30.3 -63.3 28.4 207 207 207
31.3 -64.0 28.7 207 207 207
32.0 -64.1 28.7 207 207 207
32.3 -63.4 28.4 207 207 207
32.9 -63.2 28.4 207 207 207
35.9 -63.9 28.7 207 207 207
36.1 -63.2 28.3 207 207 207
38.1 -64.2 28.8 207 207 207
38.3 -63.4 28.4 207 207 207
39.7 -64.7 29.0 207 207 207
40.2 -64.4 28.9 207 207 207
40.5 -63.8 28.6 207 207 207
41.7 -64.7 29.0 207 207 207
42.4 -64.7 29.0 207 207 207
42.8 -64.3 28.8 207 207 207
43.2 -63.8 28.6 207 207 207
43.8 -63.8 28.6 207 207 207
151.5 -214.1 96.0 207 207 207
141.5 -197.1 88.4 207 207 207
130.7 -179.5 80.5 208 208 208
124.6 -168.7 75.7 205 205 205
22.4 -25.3 11.3 207 207 207
334.5 -245.3 110.0 126 129 128
19.8 -65.0 29.5 206 206 206
20.2 -64.2 29.1 206 206 206
20.8 -63.9 29.0 206 206 206
21.4 -63.8 28.9 209 209 209
22.1 -63.8 28.9 209 209 209
23.6 -64.2 29.1 209 209 209
24.2 -64.0 29.0 206 206 206
29.3 -64.9 29.4 209 209 209
29.9 -64.6 29.3 206 206 206
30.3 -64.0 29.0 206 206 206
31.8 -64.4 29.2 206 206 206
32.3 -64.1 29.1 206 206 206
36.7 -64.6 29.3 206 206 206
36.9 -63.9 29.0 206 206 206
38.5 -64.2 29.1 206 206 206
38.8 -63.7 28.9 206 206 206
40.6 -64.4 29.2 206 206 206
40.8 -63.6 28.8 206 206 206
42.5 -65.2 29.6 206 206 206
43.0 -64.9 29.4 206 206 206
43.3 -64.4 29.2 206 206 206
43.7 -64.0 29.0 206 206 206
44.5 -64.1 29.1 206 206 206
163.1 -228.1 103.4 206 206 206
146.3 -201.7 91.4 207 207 207
132.4 -179.9 81.5 207 207 207
26.9 -33.3 15.1 206 206 206
23.1 -25.8 11.7 206 206 206
24.1 -22.5 10.2 165 165 165
658.9 -485.4 220.0 140 140 140
453.2 -331.3 150.1 138 138 138
20.2 -63.6 29.1 209 209 209
20.8 -63.4 29.0 209 209 209
36.9 -64.3 29.5 205 205 205
38.7 -63.9 29.3 205 205 205
42.7 -64.8 29.7 205 205 205
43.1 -64.4 29.5 205 205 205
43.5 -63.9 29.3 205 205 205
44.0 -63.7 29.2 205 205 205
44.8 -63.9 29.3 205 205 205
27.5 -34.0 15.6 205 205 205
27.0 -33.0 15.1 206 206 206
26.8 -32.3 14.8 208 208 208
23.4 -26.3 12.0 207 207 207
23.5 -26.0 11.9 208 208 208
442.7 -320.2 146.6 145 145 144
-28.9 -22.2 10.3 42 43 42
-18.0 -22.2 10.3 108 110 110
-17.7 -22.2 10.3 112 112 112
-17.2 -22.2 10.3 115 114 114
-15.8 -22.2 10.3 118 120 119
36.9 -63.7 29.5 207 207 207
38.7 -63.3 29.3 207 207 207
40.8 -63.4 29.3 205 205 205
42.5 -63.9 29.6 207 207 207
43.1 -63.7 29.5 207 207 207
43.5 -63.4 29.3 207 207 207
44.1 -63.2 29.2 205 205 205
44.9 -63.4 29.3 205 205 205
45.4 -63.1 29.2 205 205 205
48.5 -63.7 29.5 206 206 206
27.7 -33.9 15.7 205 205 205
27.0 -32.6 15.1 205 205 205
26.7 -31.9 14.7 205 205 205
23.4 -26.2 12.1 207 207 207
23.7 -26.2 12.1 207 207 207
24.4 -26.4 12.2 205 205 205
24.6 -26.3 12.2 205 205 205
-31.1 -23.6 11.0 43 43 43
-28.8 -23.6 11.0 46 46 44
-28.2 -23.6 11.0 46 46 44
-28.0 -23.6 11.0 46 46 44
-27.5 -23.6 11.0 48 48 48
-26.0 -23.6 11.0 37 38 37
-25.7 -23.6 11.0 40 40 40
-24.9 -23.6 11.0 40 40 40
-22.9 -23.6 11.0 49 49 49
-22.6 -23.6 11.0 49 49 49
-22.4 -23.6 11.0 59 61 59
-22.1 -23.6 11.0 83 83 83
-21.8 -23.6 11.0 94 94 94
-21.6 -23.6 11.0 94 94 94
-21.3 -23.6 11.0 95 95 95
-20.3 -23.6 11.0 104 104 104
-20.0 -23.6 11.0 108 108 108
-19.8 -23.6 11.0 107 107 107
-19.5 -23.6 11.0 108 110 110
-19.2 -23.5 11.0 108 110 110
-19.0 -23.6 11.0 108 110 110
-15.7 -23.6 11.1 119 121 120
-15.4 -23.6 11.0 118 120 119
-15.2 -23.6 11.0 120 122 121
-9.8 -22.9 10.7 136 136 136
-9.5 -23.6 11.0 137 139 138
-9.3 -23.5 11.0 140 140 140
-9.0 -23.5 11.0 140 142 141
-8.7 -23.6 11.0 141 143 142
9.7 -23.6 11.0 207 207 207
13.1 -23.6 11.0 207 207 207
37.0 -63.1 29.5 207 207 207
42.6 -63.3 29.6 207 207 207
42.9 -62.7 29.3 207 207 207
43.4 -62.5 29.2 210 210 210
44.2 -62.6 29.3 206 206 206
44.8 -62.6 29.3 204 204 204
45.2 -62.1 29.1 204 204 204
54.0 -73.1 34.2 205 205 205
48.5 -63.0 29.5 205 205 205
26.9 -32.2 15.1 204 204 204
26.7 -31.5 14.7 204 204 204
23.6 -25.9 12.1 204 204 204
24.0 -26.0 12.2 204 204 204
24.9 -26.0 12.2 194 194 194
-31.3 -23.5 11.1 47 46 45
-31.2 -23.6 11.2 49 49 49
-30.9 -23.6 11.2 49 49 49
-30.6 -23.6 11.2 51 51 51
-30.4 -23.6 11.2 49 49 49
-30.1 -23.6 11.2 49 49 49
-29.8 -23.6 11.2 49 49 49
-29.6 -23.6 11.2 49 49 49
-29.3 -23.6 11.2 49 49 49
-29.1 -23.6 11.2 49 49 49
-28.8 -23.6 11.2 49 49 49
-28.6 -23.6 11.2 49 49 49
-28.3 -23.6 11.2 47 46 45
-28.0 -23.6 11.2 49 49 49
-27.8 -23.6 11.2 43 43 43
-27.5 -23.6 11.2 43 43 43
-27.3 -23.6 11.2 43 43 43
-27.0 -23.6 11.2 43 43 43
-26.8 -23.6 11.2 43 43 43
-26.5 -23.6 11.2 42 42 42
-26.2 -23.6 11.2 42 42 42
-26.0 -23.6 11.2 38 38 38
-25.7 -23.6 11.2 38 38 38
-25.5 -23.6 11.2 38 38 38
-25.2 -23.6 11.2 38 38 38
-24.9 -23.6 11.2 41 41 41
-24.7 -23.6 11.2 41 41 41
-24.4 -23.6 11.2 38 38 38
-24.1 -23.5 11.1 39 39 39
-23.9 -23.5 11.1 39 39 39
-23.6 -23.6 11.2 42 42 42
-23.4 -23.6 11.2 44 44 44
-23.1 -23.6 11.2 44 44 44
-22.9 -23.6 11.2 44 44 44
-22.6 -23.6 11.2 48 48 48
-22.3 -23.6 11.2 46 46 44
-22.1 -23.6 11.2 50 50 50
-21.8 -23.6 11.2 66 68 67
-21.6 -23.6 11.2 87 87 87
-21.3 -23.6 11.2 91 91 91
-21.0 -23.6 11.2 92 92 92
-20.8 -23.6 11.2 97 97 97
-20.5 -23.6 11.2 97 100 99
-20.3 -23.6 11.2 99 101 101
-20.0 -23.6 11.2 103 103 103
-19.7 -23.6 11.2 98 100 100
-19.5 -23.6 11.2 105 105 105
-19.2 -23.6 11.2 107 107 107
-16.6 -24.7 11.7 120 120 120
-15.6 -23.6 11.2 120 120 120
-15.3 -23.5 11.1 120 120 120
-15.1 -23.6 11.1 119 119 119
-11.9 -25.1 11.9 125 125 125
-10.7 -23.7 11.2 130 130 130
-10.4 -23.6 11.2 134 136 135
-10.2 -23.6 11.2 135 135 135
-9.9 -23.5 11.1 134 134 134
-9.6 -23.5 11.1 135 135 135
-9.3 -23.5 11.1 139 138 137
-9.1 -23.5 11.1 140 140 140
-8.8 -23.5 11.1 141 143 142
-5.7 -23.6 11.2 165 168 167
-5.5 -23.6 11.2 170 171 170
-5.0 -23.6 11.2 175 175 175
-4.7 -23.6 11.2 175 177 177
-4.4 -23.6 11.2 173 175 175
-4.2 -23.6 11.2 175 177 177
-3.9 -23.6 11.2 174 176 176
-3.7 -23.6 11.2 177 177 177
-3.4 -23.6 11.2 180 180 180
-3.1 -23.5 11.1 182 182 182
9.6 -23.6 11.2 207 207 207
9.8 -23.6 11.2 207 207 207
13.2 -23.5 11.1 206 206 206
42.8 -61.9 29.3 206 206 206
43.5 -62.0 29.3 206 206 206
44.4 -62.3 29.5 206 206 206
45.0 -62.2 29.4 206 206 206
45.1 -61.3 29.0 206 206 206
53.0 -71.0 33.6 206 206 206
51.0 -67.3 31.8 207 207 207
50.2 -65.3 30.9 205 205 205
27.0 -32.0 15.1 206 206 206
26.8 -31.3 14.8 206 206 206
-24.8 -24.8 11.8 40 40 40
-24.9 -25.7 12.3 42 43 42
-21.8 -25.8 12.3 98 98 98
-17.1 -24.8 11.9 112 114 113
-16.7 -24.6 11.8 112 114 113
-16.3 -24.4 11.7 116 116 116
-16.0 -24.8 11.9 118 118 118
-15.6 -24.6 11.8 115 115 115
-12.3 -25.7 12.3 121 121 121
10.6 -25.8 12.3 206 206 206
11.3 -24.8 11.9 206 206 206
11.5 -24.7 11.8 206 206 206
13.2 -25.9 12.4 206 206 206
13.9 -24.5 11.7 206 206 206
44.2 -63.3 30.3 205 205 205
45.6 -63.2 30.2 205 205 205
45.5 -62.1 29.7 205 205 205
45.9 -61.8 29.6 206 206 206
53.0 -70.2 33.6 206 206 206
51.5 -67.3 32.2 206 206 206
51.4 -66.1 31.6 206 206 206
52.3 -66.4 31.7 206 206 206
57.6 -71.1 34.0 205 205 205
27.1 -31.7 15.1 206 206 206
26.9 -31.1 14.9 206 206 206
-34.7 -25.5 12.3 50 50 50
-26.4 -25.5 12.3 41 41 41
-26.1 -25.5 12.3 41 41 41
-25.8 -25.5 12.3 41 41 41
-25.5 -25.5 12.3 39 39 39
-25.2 -25.5 12.3 39 39 39
-24.9 -25.5 12.3 42 42 42
-24.7 -25.5 12.3 39 39 39
-24.4 -25.5 12.3 42 42 42
-24.1 -25.5 12.3 42 42 42
-23.8 -25.5 12.3 44 44 44
-21.8 -25.5 12.3 92 95 94
-21.4 -25.4 12.3 95 95 95
-21.1 -25.4 12.3 99 99 99
-14.0 -28.9 14.0 111 113 112
3.9 -29.2 14.1 184 184 184
4.2 -29.4 14.2 183 183 183
4.5 -29.1 14.1 180 180 180
4.8 -28.9 14.0 180 180 180
8.9 -29.6 14.3 209 209 209
9.2 -29.3 14.2 206 206 206
9.6 -29.6 14.3 206 206 206
9.9 -29.4 14.2 206 206 206
10.1 -29.2 14.1 206 206 206
10.4 -29.1 14.1 209 209 209
10.8 -29.1 14.1 209 209 209
11.1 -29.1 14.1 209 209 209
11.4 -29.1 14.1 209 209 209
11.7 -29.1 14.1 206 206 206
12.1 -29.1 14.1 206 206 206
12.8 -29.3 14.2 206 206 206
13.2 -29.3 14.2 206 206 206
13.4 -29.2 14.1 206 206 206
13.7 -29.2 14.1 206 206 206
14.1 -29.2 14.1 206 206 206
14.3 -29.1 14.1 206 206 206
14.8 -29.4 14.2 206 206 206
16.2 -29.5 14.3 205 205 205
16.3 -29.1 14.1 205 205 205
17.5 -29.4 14.2 205 205 205
17.6 -29.1 14.1 205 205 205
18.2 -29.4 14.2 205 205 205
18.5 -29.4 14.2 205 205 205
18.8 -29.3 14.2 205 205 205
18.9 -29.1 14.1 205 205 205
52.2 -69.5 33.6 205 205 205
52.7 -69.1 33.4 205 205 205
51.8 -66.9 32.3 205 205 205
50.9 -64.9 31.4 206 206 206
51.5 -64.6 31.3 206 206 206
51.9 -64.2 31.1 206 206 206
55.9 -68.3 33.0 204 204 204
56.6 -68.1 33.0 204 204 204
26.4 -30.2 14.6 205 205 205
-21.8 -25.2 12.3 77 77 75
-21.5 -25.2 12.3 97 97 97
-21.2 -25.2 12.3 92 95 94
-20.8 -25.0 12.2 92 95 94
-14.8 -29.5 14.4 94 97 96
-14.3 -29.2 14.3 88 88 88
-14.1 -29.5 14.4 68 68 68
-9.2 -23.7 11.6 106 106 106
-8.9 -23.6 11.6 179 182 181
-8.6 -23.6 11.5 177 180 179
-8.2 -23.9 11.7 164 167 166
-7.8 -23.7 11.6 173 175 175
-2.5 -23.7 11.6 193 193 193
-2.2 -23.7 11.6 193 193 193
-1.9 -23.7 11.6 193 193 193
-1.7 -23.7 11.6 193 193 193
2.9 -23.7 11.6 183 183 183
3.2 -23.7 11.6 183 183 183
3.5 -23.7 11.6 183 183 183
4.5 -23.7 11.6 177 177 177
4.8 -23.7 11.6 177 177 177
5.1 -23.7 11.6 175 175 175
5.3 -23.7 11.6 203 203 203
6.4 -23.7 11.6 208 208 208
6.7 -23.7 11.6 208 208 208
9.0 -29.5 14.4 208 208 208
8.9 -23.8 11.6 208 208 208
9.1 -23.7 11.6 208 208 208
9.4 -23.7 11.6 208 208 208
9.7 -23.7 11.6 208 208 208
9.9 -23.7 11.6 208 208 208
10.2 -23.7 11.6 208 208 208
10.5 -23.7 11.6 208 208 208
10.7 -23.7 11.6 205 205 205
11.1 -23.8 11.6 205 205 205
11.3 -23.7 11.6 202 202 202
14.2 -29.1 14.2 205 205 205
12.6 -23.7 11.6 205 205 205
12.9 -23.7 11.6 208 208 208
13.2 -23.8 11.7 205 205 205
13.5 -23.7 11.6 205 205 205
13.7 -23.7 11.6 202 202 202
17.6 -29.2 14.3 205 205 205
14.6 -23.9 11.7 205 205 205
18.7 -29.5 14.4 205 205 205
45.7 -62.0 30.3 204 204 204
45.6 -60.9 29.8 204 204 204
45.2 -59.5 29.1 205 205 205
53.1 -68.8 33.7 205 205 205
51.5 -65.8 32.2 205 205 205
50.4 -63.5 31.1 205 205 205
50.6 -61.9 30.3 208 208 208
56.9 -67.7 33.1 204 204 204
26.3 -29.7 14.5 204 204 204
26.2 -29.2 14.3 202 202 202
27.6 -29.7 14.5 205 205 205
-21.9 -25.1 12.4 40 39 38
-15.3 -29.5 14.6 18 18 18
-14.9 -29.4 14.6 25 25 25
-14.6 -29.4 14.5 29 31 29
-14.0 -29.5 14.6 29 30 28
-9.2 -23.4 11.6 121 121 121
-8.9 -23.4 11.6 185 185 185
-8.6 -23.4 11.6 178 181 180
-8.2 -23.6 11.7 216 216 216
-2.2 -23.6 11.7 195 195 195
-1.9 -23.5 11.6 197 197 197
3.2 -23.5 11.6 182 182 182
3.5 -23.4 11.6 182 182 182
5.1 -23.5 11.6 174 174 174
5.4 -23.5 11.6 202 202 202
5.6 -23.4 11.6 205 205 205
6.5 -23.6 11.7 208 208 208
6.8 -23.7 11.7 208 208 208
7.0 -23.5 11.6 208 208 208
8.9 -23.6 11.7 208 208 208
9.2 -23.5 11.6 208 208 208
9.5 -23.7 11.7 208 208 208
9.7 -23.5 11.6 208 208 208
10.0 -23.5 11.6 208 208 208
10.3 -23.6 11.7 209 209 209
10.5 -23.5 11.6 202 202 202
10.8 -23.7 11.7 205 205 205
11.1 -23.7 11.7 205 205 205
11.4 -23.6 11.7 205 205 205
11.6 -23.5 11.6 207 207 207
13.5 -23.5 11.6 207 207 207
13.7 -23.4 11.6 204 204 204
18.8 -31.4 15.6 204 204 204
14.5 -23.8 11.8 204 204 204
14.7 -23.7 11.7 204 204 204
44.8 -60.1 29.7 204 204 204
45.4 -59.9 29.6 204 204 204
45.6 -59.3 29.3 204 204 204
50.6 -63.9 31.6 204 204 204
49.6 -61.7 30.5 205 205 205
26.4 -29.5 14.6 206 206 206
26.4 -29.0 14.4 204 204 204
27.4 -29.4 14.6 204 204 204
27.7 -29.4 14.5 205 205 205
27.9 -29.2 14.5 205 205 205
27.9 -28.9 14.3 205 205 205
-15.9 -31.7 15.9 27 27 27
-15.6 -31.7 15.9 28 28 28
-15.3 -31.9 16.0 28 28 28
-8.9 -23.9 11.9 187 189 189
-8.6 -23.8 11.9 188 190 190
-8.3 -23.7 11.9 218 221 220
-6.4 -23.9 12.0 215 218 217
-6.1 -23.9 11.9 215 218 217
-5.8 -23.8 11.9 214 214 214
-5.6 -23.7 11.9 211 211 211
-5.3 -23.8 11.9 210 210 210
-5.0 -23.8 11.9 209 209 209
-4.7 -23.8 11.9 206 206 206
-4.5 -23.9 11.9 205 205 205
-4.2 -23.8 11.9 205 205 205
-3.9 -23.8 11.9 202 202 202
-3.6 -23.8 11.9 202 202 202
-3.4 -23.8 11.9 199 199 199
-3.1 -23.8 11.9 199 199 199
-2.8 -23.8 11.9 199 199 199
-2.5 -23.8 11.9 199 199 199
-2.2 -23.7 11.9 199 199 199
1.9 -23.9 11.9 190 190 190
2.2 -23.8 11.9 186 186 186
2.5 -23.9 11.9 186 186 186
2.7 -23.8 11.9 184 184 184
3.0 -23.8 11.9 184 184 184
3.8 -23.8 11.9 181 181 181
4.1 -23.8 11.9 181 181 181
4.4 -23.8 11.9 181 181 181
4.7 -23.8 11.9 181 181 181
4.9 -23.8 11.9 177 177 177
5.2 -23.6 11.8 170 171 170
6.3 -23.8 11.9 207 207 207
6.6 -23.8 11.9 207 207 207
6.9 -23.8 11.9 207 207 207
7.2 -23.8 11.9 207 207 207
7.4 -23.8 11.9 207 207 207
7.7 -23.8 11.9 207 207 207
8.6 -23.9 11.9 205 205 205
8.8 -23.9 11.9 205 205 205
9.1 -23.8 11.9 207 207 207
9.4 -23.8 11.9 207 207 207
9.6 -23.8 11.9 207 207 207
9.9 -23.8 11.9 207 207 207
10.2 -23.8 11.9 207 207 207
10.5 -23.8 11.9 207 207 207
10.7 -23.8 11.9 207 207 207
11.0 -23.8 11.9 207 207 207
11.3 -23.7 11.9 207 207 207
11.5 -23.7 11.9 207 207 207
11.8 -23.8 11.9 207 207 207
12.1 -23.8 11.9 204 204 204
12.4 -23.8 11.9 204 204 204
12.7 -23.8 11.9 204 204 204
13.0 -23.8 11.9 204 204 204
13.2 -23.8 11.9 204 204 204
13.5 -23.8 11.9 204 204 204
13.8 -23.7 11.9 207 207 207
13.8 -23.3 11.7 207 207 207
14.6 -23.8 11.9 204 204 204
14.9 -23.8 11.9 207 207 207
15.8 -23.9 11.9 204 204 204
16.0 -23.8 11.9 206 206 206
44.7 -59.2 29.6 203 203 203
45.3 -59.1 29.6 203 203 203
49.8 -62.2 31.1 204 204 204
49.2 -60.6 30.3 204 204 204
50.7 -61.4 30.8 204 204 204
26.4 -29.2 14.6 205 205 205
26.5 -28.9 14.5 203 203 203
27.7 -29.0 14.5 204 204 204
27.9 -28.9 14.5 204 204 204
28.0 -28.7 14.4 204 204 204
28.3 -28.7 14.4 205 205 205
-34.5 -24.2 12.3 55 55 55
-27.4 -24.2 12.3 49 49 49
-26.5 -24.2 12.3 49 49 49
-26.2 -24.2 12.2 49 49 49
-25.8 -24.1 12.2 47 48 47
-25.1 -24.2 12.3 45 45 45
-24.7 -24.1 12.2 45 45 45
-23.7 -24.2 12.3 44 44 44
-23.4 -24.2 12.2 44 44 44
-23.1 -24.2 12.2 42 42 42
-22.6 -24.3 12.3 41 41 39
-22.2 -24.1 12.2 41 41 39
-21.7 -24.3 12.3 41 41 39
-21.4 -24.2 12.2 42 42 40
-21.0 -24.1 12.2 42 42 40
-20.6 -24.0 12.1 42 42 40
-19.8 -24.3 12.3 48 48 48
-19.4 -24.2 12.3 91 91 91
-19.0 -24.0 12.2 69 71 69
-18.6 -24.3 12.3 53 52 52
-18.3 -24.2 12.3 20 20 20
-17.8 -24.0 12.2 20 23 21
-17.6 -24.0 12.2 9 14 10
-17.3 -24.0 12.2 16 16 16
-16.0 -31.5 15.9 27 27 27
-11.2 -24.3 12.3 29 30 28
-10.8 -24.0 12.1 29 30 28
-10.5 -24.0 12.2 31 30 29
-10.2 -24.0 12.2 33 33 33
-10.0 -24.3 12.3 38 38 36
-8.8 -24.0 12.2 184 187 186
4.2 -24.1 12.2 180 180 180
7.0 -23.9 12.1 207 207 207
9.7 -24.3 12.3 207 207 207
9.9 -24.1 12.2 207 207 207
10.8 -24.2 12.2 206 206 206
11.1 -24.2 12.3 206 206 206
11.4 -24.2 12.3 206 206 206
11.6 -24.0 12.2 206 206 206
11.9 -24.1 12.2 206 206 206
13.2 -24.5 12.4 203 203 203
13.3 -24.2 12.2 203 203 203
13.7 -24.3 12.3 203 203 203
14.0 -23.9 12.1 206 206 206
15.3 -25.1 12.7 206 206 206
15.1 -24.2 12.3 206 206 206
15.2 -24.0 12.1 206 206 206
16.2 -24.2 12.3 206 206 206
41.5 -56.9 28.8 208 208 208
41.4 -56.0 28.4 208 208 208
42.8 -56.9 28.8 206 206 206
44.5 -58.3 29.5 206 206 206
45.1 -58.2 29.5 206 206 206
45.4 -57.6 29.2 206 206 206
49.6 -61.2 31.0 203 203 203
47.9 -58.3 29.5 203 203 203
48.8 -58.4 29.6 204 204 204
48.8 -57.6 29.2 204 204 204
26.7 -29.1 14.7 205 205 205
27.7 -29.1 14.7 203 203 203
28.2 -28.9 14.6 204 204 204
28.3 -28.7 14.5 204 204 204
28.7 -28.8 14.6 204 204 204
-35.0 -24.3 12.4 58 58 58
-34.8 -24.3 12.5 58 58 58
-34.5 -24.3 12.5 58 58 58
-34.2 -24.3 12.5 58 58 58
-33.9 -24.3 12.5 58 58 58
-33.7 -24.3 12.5 56 56 56
-33.3 -24.3 12.5 58 58 58
-33.1 -24.3 12.5 58 58 58
-32.7 -24.3 12.5 58 59 59
-32.5 -24.3 12.5 56 56 56
-32.2 -24.3 12.5 58 59 59
-31.9 -24.3 12.5 58 59 59
-31.6 -24.3 12.5 58 59 59
-31.0 -24.3 12.5 56 56 56
-30.7 -24.3 12.5 54 54 54
-30.5 -24.3 12.5 54 54 54
-30.2 -24.3 12.5 52 52 50
-29.9 -24.3 12.5 49 49 49
-29.5 -24.3 12.4 49 49 49
-29.3 -24.3 12.4 50 50 50
-29.0 -24.3 12.5 50 50 50
-28.7 -24.3 12.5 50 50 50
-28.4 -24.3 12.5 53 52 51
-28.1 -24.3 12.5 50 50 50
-27.8 -24.3 12.5 50 50 50
-27.6 -24.3 12.5 50 50 50
-27.2 -24.3 12.4 53 52 51
-27.0 -24.3 12.5 50 50 50
-26.7 -24.3 12.5 50 50 50
-26.4 -24.3 12.5 48 48 48
-26.1 -24.3 12.5 51 51 51
-25.8 -24.3 12.5 48 48 48
-25.5 -24.3 12.4 48 48 48
-25.2 -24.3 12.5 47 47 47
-24.9 -24.3 12.5 47 47 47
-24.6 -24.3 12.5 44 44 44
-24.4 -24.3 12.5 45 45 45
-24.1 -24.3 12.5 45 45 45
-23.8 -24.3 12.5 45 45 45
-23.5 -24.3 12.4 45 45 45
-23.2 -24.3 12.5 45 45 45
-22.9 -24.3 12.4 42 42 40
-22.6 -24.3 12.4 42 42 40
-22.5 -24.4 12.5 42 42 40
-22.0 -24.3 12.4 43 42 41
-21.7 -24.3 12.4 43 42 41
-21.4 -24.2 12.4 43 42 41
-21.0 -24.1 12.4 43 42 41
-20.3 -24.3 12.5 41 41 41
-20.0 -24.3 12.4 40 42 42
-19.7 -24.3 12.4 31 32 30
-19.4 -24.2 12.4 20 20 20
-18.5 -24.2 12.4 21 21 21
-17.8 -24.1 12.3 19 19 19
-17.5 -24.1 12.3 20 20 20
-11.6 -24.3 12.5 29 31 29
-11.2 -24.1 12.3 29 31 29
-11.0 -24.2 12.4 32 31 30
-10.7 -24.2 12.4 32 32 32
-10.3 -24.0 12.3 35 35 35
-10.1 -24.2 12.4 40 40 40
-9.6 -24.3 12.5 185 185 185
-9.3 -24.2 12.4 187 189 189
-6.1 -24.3 12.4 220 220 220
-5.0 -24.3 12.5 213 215 215
-4.7 -24.3 12.5 213 215 215
-4.4 -24.3 12.4 209 212 211
-3.5 -24.3 12.5 208 208 208
-3.2 -24.3 12.4 208 208 208
-2.9 -24.3 12.4 206 206 206
3.4 -24.3 12.5 185 185 185
3.7 -24.3 12.5 185 185 185
4.0 -24.3 12.4 185 185 185
4.3 -24.3 12.4 182 182 182
5.5 -24.3 12.4 180 180 180
6.6 -24.3 12.4 206 206 206
7.2 -24.3 12.5 206 206 206
7.5 -24.3 12.5 206 206 206
8.4 -24.5 12.6 206 206 206
8.7 -24.4 12.5 206 206 206
9.0 -24.4 12.5 206 206 206
9.3 -24.4 12.5 206 206 206
9.5 -24.4 12.5 206 206 206
9.8 -24.3 12.5 206 206 206
10.1 -24.3 12.5 206 206 206
10.4 -24.3 12.5 206 206 206
10.7 -24.3 12.5 206 206 206
11.0 -24.3 12.5 206 206 206
11.3 -24.3 12.5 206 206 206
11.5 -24.3 12.5 206 206 206
11.8 -24.3 12.4 206 206 206
12.1 -24.3 12.5 206 206 206
13.3 -24.3 12.5 203 203 203
13.6 -24.3 12.4 203 203 203
13.9 -24.3 12.5 206 206 206
14.1 -24.3 12.4 206 206 206
14.4 -24.2 12.4 206 206 206
15.2 -25.0 12.8 206 206 206
15.3 -24.7 12.7 206 206 206
15.3 -24.3 12.4 206 206 206
16.2 -24.4 12.5 205 205 205
16.5 -24.3 12.4 205 205 205
41.2 -55.8 28.6 205 205 205
41.2 -55.0 28.2 205 205 205
44.2 -57.2 29.3 205 205 205
45.0 -57.3 29.4 205 205 205
44.9 -56.3 28.9 205 205 205
50.1 -61.1 31.3 199 199 199
47.5 -57.0 29.2 203 203 203
47.5 -56.3 28.8 203 203 203
48.3 -56.4 28.9 203 203 203
47.0 -54.1 27.7 203 203 203
26.8 -28.9 14.8 204 204 204
28.7 -28.7 14.7 203 203 203
28.9 -28.6 14.7 203 203 203
-35.3 -24.2 12.5 58 59 59
-35.1 -24.2 12.6 60 62 60
-34.8 -24.2 12.6 60 62 60
-34.5 -24.2 12.6 60 62 60
-34.2 -24.2 12.6 60 62 60
-33.9 -24.2 12.6 58 59 59
-33.6 -24.2 12.6 61 63 61
-33.3 -24.2 12.6 58 59 59
-33.0 -24.2 12.6 58 59 59
-32.7 -24.2 12.6 59 59 59
-32.5 -24.2 12.6 59 59 59
-32.2 -24.2 12.6 59 59 59
-31.8 -24.2 12.6 59 59 59
-31.6 -24.2 12.6 57 57 57
-31.3 -24.2 12.6 55 55 55
-31.0 -24.2 12.6 55 55 55
-30.7 -24.2 12.6 55 55 55
-30.4 -24.2 12.6 53 52 51
-30.1 -24.2 12.6 53 52 51
-29.8 -24.2 12.6 50 50 50
-29.5 -24.2 12.6 51 51 51
-29.2 -24.2 12.6 51 51 51
-28.9 -24.2 12.6 54 53 52
-28.6 -24.2 12.6 54 53 52
-28.4 -24.2 12.6 51 51 51
-28.1 -24.2 12.6 51 51 51
-27.8 -24.2 12.6 54 53 52
-27.5 -24.2 12.6 54 53 52
-27.2 -24.2 12.6 51 51 51
-26.9 -24.2 12.6 52 52 52
-26.6 -24.2 12.6 52 52 52
-26.3 -24.2 12.6 52 52 52
-26.0 -24.2 12.6 49 49 49
-25.7 -24.2 12.6 49 49 49
-25.4 -24.2 12.6 50 50 50
-25.1 -24.2 12.6 47 48 47
-24.9 -24.2 12.6 47 48 47
-24.6 -24.2 12.6 46 46 46
-24.3 -24.2 12.6 46 46 46
-24.0 -24.2 12.6 46 46 46
-23.7 -24.2 12.6 44 44 44
-23.4 -24.2 12.6 47 47 47
-23.1 -24.2 12.5 43 42 41
-22.8 -24.2 12.6 43 42 41
-22.5 -24.2 12.6 43 42 41
-22.2 -24.2 12.6 44 43 42
-21.9 -24.2 12.5 44 43 42
-21.6 -24.1 12.5 41 41 41
-21.2 -24.1 12.5 42 42 42
-20.5 -24.2 12.6 40 42 42
-19.9 -24.2 12.6 28 28 28
-19.5 -24.1 12.5 19 19 19
-19.0 -24.2 12.6 18 18 18
-18.7 -24.1 12.5 20 20 20
-18.4 -24.1 12.5 20 20 20
-17.7 -24.0 12.4 20 20 20
-17.6 -24.2 12.6 20 20 20
-17.2 -24.2 12.5 20 20 20
-13.2 -24.2 12.6 29 29 29
-12.9 -24.2 12.6 30 29 29
-12.6 -24.2 12.6 30 29 29
-12.3 -24.2 12.6 28 28 28
-12.0 -24.2 12.6 29 29 29
-11.7 -24.2 12.5 29 29 29
-11.3 -24.0 12.4 29 31 29
-11.1 -24.1 12.5 29 31 29
-10.8 -24.1 12.5 32 31 30
-10.4 -24.0 12.4 36 36 36
-10.2 -24.2 12.5 39 38 37
-10.0 -24.3 12.6 174 174 174
-9.7 -24.2 12.6 186 188 187
-9.4 -24.2 12.5 184 187 186
-9.1 -24.1 12.5 184 187 186
-8.8 -24.2 12.5 226 229 228
-5.3 -24.2 12.6 219 219 219
-5.0 -24.2 12.6 218 218 218
-4.7 -24.2 12.5 216 216 216
-3.8 -24.2 12.6 210 213 212
-3.5 -24.2 12.6 210 213 212
-3.2 -24.2 12.5 210 213 212
2.9 -24.2 12.6 193 193 193
3.2 -24.2 12.6 190 190 190
3.5 -24.2 12.6 186 186 186
3.8 -24.2 12.6 186 186 186
4.6 -24.2 12.6 182 182 182
4.9 -24.2 12.6 179 179 179
5.2 -24.2 12.6 179 179 179
6.1 -24.2 12.6 205 205 205
6.4 -24.2 12.6 205 205 205
6.7 -24.2 12.5 205 205 205
7.0 -24.2 12.6 206 206 206
7.3 -24.2 12.6 206 206 206
8.1 -24.2 12.6 206 206 206
8.4 -24.2 12.6 206 206 206
8.7 -24.2 12.6 206 206 206
9.0 -24.2 12.6 206 206 206
9.3 -24.2 12.6 206 206 206
9.6 -24.2 12.6 205 205 205
9.9 -24.2 12.6 205 205 205
10.2 -24.2 12.6 205 205 205
10.5 -24.2 12.6 205 205 205
10.8 -24.2 12.6 205 205 205
11.1 -24.2 12.6 205 205 205
11.3 -24.2 12.6 205 205 205
11.6 -24.2 12.6 205 205 205
11.9 -24.2 12.6 205 205 205
12.8 -24.2 12.6 205 205 205
13.1 -24.3 12.6 205 205 205
13.4 -24.2 12.6 205 205 205
13.7 -24.2 12.5 205 205 205
14.0 -24.2 12.6 205 205 205
14.2 -24.2 12.5 205 205 205
15.0 -24.4 12.7 205 205 205
15.2 -24.3 12.6 205 205 205
15.4 -24.2 12.6 205 205 205
16.3 -24.2 12.6 205 205 205
16.6 -24.2 12.6 205 205 205
16.9 -24.2 12.6 205 205 205
17.2 -24.3 12.6 205 205 205
41.2 -54.4 28.2 205 205 205
44.2 -56.5 29.3 205 205 205
44.8 -56.5 29.3 205 205 205
44.8 -55.6 28.8 205 205 205
47.9 -56.0 29.1 205 205 205
48.2 -55.7 28.9 203 203 203
46.8 -53.2 27.6 203 203 203
46.9 -52.7 27.3 206 206 206
28.5 -28.1 14.6 205 205 205
28.8 -28.1 14.6 203 203 203
29.1 -28.1 14.6 203 203 203
-35.4 -24.0 12.6 58 59 59
-35.1 -24.0 12.6 61 63 61
-34.8 -24.0 12.6 65 65 65
-34.5 -24.0 12.6 61 63 61
-34.2 -23.9 12.6 61 63 61
-33.9 -24.0 12.6 61 63 61
-33.7 -24.0 12.6 61 63 61
-33.4 -24.0 12.6 65 65 65
-33.0 -23.9 12.6 62 64 61
-32.8 -24.0 12.6 65 65 65
-32.5 -24.0 12.6 62 64 61
-32.2 -24.0 12.6 60 60 60
-31.9 -23.9 12.6 60 60 60
-31.6 -24.0 12.6 60 60 60
-31.3 -24.0 12.6 58 58 58
-31.0 -23.9 12.6 58 58 58
-30.7 -24.0 12.6 56 56 56
-30.4 -24.0 12.6 54 53 52
-30.1 -24.0 12.6 54 53 52
-29.9 -24.0 12.6 51 51 51
-29.5 -23.9 12.6 52 52 52
-29.3 -23.9 12.6 52 52 52
-29.0 -23.9 12.6 55 54 53
-28.7 -24.0 12.6 52 52 52
-28.4 -24.0 12.6 52 52 52
-28.1 -24.0 12.6 52 52 52
-27.8 -24.0 12.6 55 54 53
-27.5 -23.9 12.6 55 54 53
-27.2 -24.0 12.6 56 55 54
-26.9 -23.9 12.6 53 52 52
-26.6 -24.0 12.6 53 52 52
-26.3 -24.0 12.6 53 52 52
-26.1 -24.0 12.6 50 50 50
-25.7 -23.9 12.6 51 51 51
-25.5 -24.0 12.6 51 51 51
-25.2 -24.0 12.6 48 48 48
-24.9 -24.0 12.6 48 48 48
-24.6 -24.0 12.6 47 47 47
-24.3 -24.0 12.6 47 47 47
-24.0 -23.9 12.6 47 47 47
-23.7 -23.9 12.6 45 45 45
-23.4 -24.0 12.6 45 45 45
-23.1 -23.9 12.6 45 45 45
-22.8 -23.9 12.6 44 43 42
-22.6 -24.0 12.6 45 44 43
-22.2 -23.9 12.6 42 42 42
-21.9 -23.9 12.6 40 42 42
-21.6 -23.9 12.5 42 43 42
-20.5 -23.9 12.6 41 41 41
-20.2 -23.9 12.6 36 37 36
-19.9 -23.9 12.6 29 29 29
-19.6 -23.9 12.5 20 20 20
-19.1 -24.0 12.6 16 16 16
-18.7 -23.9 12.6 20 20 20
-18.4 -23.9 12.5 16 16 16
-17.6 -24.0 12.6 20 20 20
-17.2 -23.9 12.5 22 22 22
-13.2 -24.0 12.6 30 30 30
-12.9 -24.0 12.6 32 33 31
-12.6 -24.0 12.6 22 25 23
-12.3 -24.0 12.6 30 29 29
-12.0 -24.0 12.6 29 29 29
-11.7 -23.9 12.6 30 31 30
-11.4 -23.8 12.5 30 31 30
-11.1 -23.9 12.5 28 28 28
-10.8 -23.9 12.6 29 31 29
-10.5 -23.9 12.5 36 38 37
-10.3 -23.9 12.6 44 44 44
-10.0 -24.0 12.6 183 183 183
-9.7 -24.0 12.6 184 187 186
-9.4 -23.9 12.6 183 186 185
-9.1 -23.9 12.6 190 190 190
-8.8 -23.9 12.6 230 230 230
-8.5 -23.9 12.6 230 230 230
-5.6 -24.0 12.6 224 226 226
-5.3 -24.0 12.6 222 224 224
-5.0 -23.9 12.6 221 221 221
-4.7 -23.9 12.6 218 218 218
-3.8 -24.0 12.6 214 214 214
-3.5 -24.0 12.6 214 214 214
-3.2 -23.9 12.6 214 214 214
2.9 -24.0 12.6 192 192 192
3.2 -24.0 12.6 192 192 192
3.5 -23.9 12.6 190 190 190
3.8 -23.9 12.6 186 186 186
4.4 -24.0 12.6 183 183 183
4.6 -24.0 12.6 184 184 184
4.9 -24.0 12.6 181 181 181
5.2 -24.0 12.6 181 181 181
6.1 -24.0 12.6 205 205 205
6.4 -24.0 12.6 205 205 205
6.7 -23.9 12.6 207 207 207
7.0 -24.0 12.6 207 207 207
7.3 -24.0 12.6 207 207 207
7.6 -24.0 12.6 207 207 207
7.9 -24.0 12.6 205 205 205
8.2 -24.0 12.6 203 203 203
8.4 -24.0 12.6 205 205 205
8.7 -24.0 12.6 205 205 205
9.0 -24.0 12.6 205 205 205
9.3 -24.0 12.6 205 205 205
9.6 -24.0 12.6 205 205 205
9.9 -24.0 12.6 205 205 205
10.2 -24.0 12.6 205 205 205
10.5 -24.0 12.6 205 205 205
10.8 -24.0 12.6 205 205 205
11.1 -24.0 12.6 205 205 205
11.4 -24.0 12.6 205 205 205
11.7 -24.0 12.6 205 205 205
11.9 -23.9 12.6 205 205 205
12.5 -24.0 12.6 205 205 205
12.8 -24.0 12.6 205 205 205
13.1 -24.0 12.6 205 205 205
13.4 -23.9 12.6 205 205 205
13.7 -23.9 12.6 205 205 205
14.0 -24.0 12.6 205 205 205
14.3 -23.9 12.6 205 205 205
15.2 -24.0 12.6 204 204 204
15.4 -23.9 12.6 204 204 204
16.1 -24.0 12.6 204 204 204
16.3 -24.0 12.6 204 204 204
16.6 -23.9 12.6 204 204 204
16.9 -24.0 12.6 204 204 204
17.2 -24.0 12.6 204 204 204
17.5 -24.0 12.6 204 204 204
17.8 -23.9 12.6 204 204 204
41.5 -54.1 28.4 204 204 204
44.3 -55.9 29.4 204 204 204
45.0 -55.9 29.4 204 204 204
45.1 -55.3 29.0 204 204 204
49.9 -57.7 30.3 205 205 205
49.0 -55.9 29.3 205 205 205
47.0 -52.8 27.7 205 205 205
47.2 -52.4 27.5 205 205 205
28.5 -27.8 14.6 207 207 207
28.8 -27.8 14.6 204 204 204
29.1 -27.8 14.6 202 202 202
600.9 -339.9 178.5 178 181 180
-35.5 -23.7 12.6 59 59 59
-35.3 -23.8 12.6 62 64 61
-35.0 -23.8 12.6 66 66 66
-34.7 -23.8 12.6 62 64 61
-34.4 -23.8 12.6 62 64 61
-34.1 -23.8 12.6 66 66 66
-33.8 -23.8 12.6 62 64 61
-33.6 -23.8 12.7 66 66 66
-33.2 -23.7 12.6 62 64 61
-32.9 -23.8 12.6 62 64 61
-32.6 -23.7 12.6 60 60 60
-32.3 -23.8 12.6 60 60 60
-32.1 -23.8 12.6 61 61 61
-31.9 -23.9 12.7 58 59 59
-31.5 -23.8 12.7 58 59 59
-31.2 -23.8 12.6 58 59 59
-30.9 -23.8 12.7 57 57 57
-30.6 -23.8 12.7 57 57 57
-30.3 -23.8 12.7 55 54 53
-30.0 -23.8 12.6 55 54 53
-29.7 -23.8 12.7 53 52 52
-29.3 -23.7 12.6 53 52 52
-29.1 -23.7 12.6 56 55 54
-28.8 -23.8 12.6 53 52 52
-28.6 -23.8 12.7 53 52 52
-28.3 -23.8 12.7 53 52 52
-27.9 -23.7 12.6 56 55 54
-27.6 -23.7 12.6 53 52 52
-27.4 -23.8 12.7 57 56 55
-27.0 -23.7 12.6 53 53 53
-26.8 -23.8 12.7 53 53 53
-26.5 -23.8 12.7 53 53 53
-26.2 -23.8 12.6 52 52 52
-25.9 -23.8 12.6 52 52 52
-25.6 -23.8 12.7 52 52 52
-25.3 -23.8 12.6 54 54 54
-25.0 -23.8 12.6 52 52 52
-24.7 -23.8 12.6 50 50 50
-24.4 -23.8 12.7 50 50 50
-24.1 -23.8 12.6 48 48 48
-23.8 -23.7 12.6 46 46 46
-23.5 -23.8 12.6 46 46 46
-23.2 -23.7 12.6 47 47 47
-22.9 -23.7 12.6 45 44 43
-22.7 -23.9 12.7 46 45 43
-22.4 -23.8 12.7 42 43 42
-22.0 -23.7 12.6 42 43 42
-21.7 -23.6 12.6 43 43 43
-20.6 -23.7 12.6 40 40 40
-20.3 -23.7 12.6 38 38 38
-19.9 -23.7 12.6 27 27 27
-19.6 -23.6 12.6 20 20 20
-19.2 -23.9 12.7 11 16 13
-18.8 -23.7 12.6 18 18 18
-18.5 -23.7 12.6 16 16 16
-12.7 -23.8 12.7 29 29 29
-12.4 -23.9 12.7 30 29 29
-12.1 -23.8 12.6 43 42 41
-11.7 -23.7 12.6 50 50 50
-11.1 -23.6 12.6 55 55 55
-10.9 -23.7 12.6 65 67 66
-10.5 -23.6 12.6 32 31 30
-10.3 -23.7 12.6 48 48 48
-10.1 -24.0 12.7 184 184 184
-9.8 -24.0 12.7 184 187 186
-9.4 -23.7 12.6 182 185 184
7.0 -23.8 12.6 207 207 207
7.3 -23.7 12.6 207 207 207
8.2 -23.7 12.6 207 207 207
8.5 -23.7 12.6 205 205 205
9.9 -23.7 12.6 204 204 204
10.2 -23.7 12.6 204 204 204
10.5 -23.7 12.6 204 204 204
10.8 -23.7 12.6 204 204 204
11.1 -23.7 12.6 204 204 204
14.3 -23.6 12.6 204 204 204
15.2 -23.7 12.6 204 204 204
17.0 -23.7 12.6 204 204 204
41.4 -54.2 28.8 204 204 204
41.7 -53.7 28.5 204 204 204
44.4 -55.4 29.4 204 204 204
44.9 -55.2 29.3 204 204 204
45.0 -54.4 28.9 204 204 204
50.8 -58.1 30.9 204 204 204
49.5 -55.8 29.6 204 204 204
47.3 -52.6 27.9 205 205 205
47.3 -51.8 27.5 205 205 205
28.8 -27.5 14.6 204 204 204
29.1 -27.5 14.6 204 204 204
388.6 -228.1 121.3 181 181 181
673.0 -378.6 201.2 178 181 180
553.9 -309.5 164.5 178 181 180
454.9 -252.4 134.2 177 177 177
-35.8 -23.6 12.7 62 64 61
-35.6 -23.7 12.7 62 64 61
-35.3 -23.7 12.7 63 64 62
-35.0 -23.7 12.7 66 66 66
-34.7 -23.7 12.7 67 67 67
-34.4 -23.7 12.7 67 67 67
-34.1 -23.7 12.7 67 67 67
-33.8 -23.7 12.7 67 67 67
-33.5 -23.7 12.7 63 64 62
-33.2 -23.7 12.7 61 61 61
-32.9 -23.6 12.7 61 61 61
-32.6 -23.7 12.7 61 61 61
-32.2 -23.8 12.8 62 62 62
-31.7 -23.7 12.7 59 59 59
-31.4 -23.7 12.7 59 59 59
-31.0 -23.8 12.8 58 58 58
-30.7 -23.8 12.8 56 55 54
-30.2 -23.7 12.7 56 55 54
-30.0 -23.7 12.8 57 56 55
-29.6 -23.7 12.7 57 56 55
-29.3 -23.6 12.7 57 56 55
-29.1 -23.7 12.7 57 56 55
-28.8 -23.7 12.8 53 53 53
-28.5 -23.7 12.8 53 53 53
-28.2 -23.7 12.7 53 53 53
-27.8 -23.6 12.7 54 54 54
-27.2 -23.6 12.7 59 59 59
-27.1 -23.8 12.8 57 57 55
-26.8 -23.8 12.8 54 54 54
-26.4 -23.7 12.7 55 55 55
-26.1 -23.7 12.7 53 52 52
-25.8 -23.7 12.7 53 52 52
-25.5 -23.7 12.7 53 52 52
-25.2 -23.7 12.7 51 51 51
-24.9 -23.7 12.7 51 51 51
-24.6 -23.7 12.7 51 51 51
-24.3 -23.6 12.7 51 51 51
-24.0 -23.7 12.7 49 49 49
-23.3 -23.6 12.7 47 48 47
-23.1 -23.7 12.7 47 48 47
-23.0 -23.8 12.8 46 46 44
-22.6 -23.7 12.8 42 44 43
-22.2 -23.7 12.7 43 43 43
-21.8 -23.5 12.7 47 46 45
-19.0 -23.7 12.7 17 17 17
-18.7 -23.7 12.7 17 17 17
-12.2 -23.6 12.7 57 58 56
-11.8 -23.6 12.7 51 51 51
-11.1 -23.4 12.6 30 31 30
-10.9 -23.5 12.7 85 85 85
-10.7 -23.7 12.7 33 32 30
-10.4 -23.6 12.7 46 46 46
-10.2 -23.8 12.8 184 184 184
41.6 -52.9 28.4 203 203 203
44.5 -54.0 29.1 203 203 203
44.7 -53.4 28.7 203 203 203
50.9 -57.4 30.9 204 204 204
49.8 -55.4 29.8 204 204 204
47.7 -52.3 28.1 204 204 204
47.3 -51.2 27.5 204 204 204
47.1 -50.3 27.1 204 204 204
29.1 -27.1 14.6 203 203 203
415.0 -242.4 130.5 180 180 180
367.4 -213.0 114.6 181 181 181
509.6 -281.2 151.3 177 177 177
416.5 -228.2 122.8 177 177 177
-31.3 -24.0 13.1 58 59 59
-30.9 -23.9 13.0 57 56 55
-30.4 -23.7 12.9 57 57 55
-30.1 -23.7 12.9 59 59 59
-30.0 -23.9 13.0 57 57 55
-29.6 -23.8 13.0 57 57 55
-29.2 -23.7 12.9 57 57 55
-28.9 -23.8 12.9 54 54 54
-28.7 -23.8 13.0 55 55 55
-27.4 -24.0 13.1 59 59 57
-26.1 -23.9 13.0 54 54 54
-25.8 -23.9 13.0 54 54 54
-25.2 -23.9 13.0 52 52 52
-23.5 -24.1 13.1 47 46 45
-22.8 -23.6 12.9 47 46 45
-19.4 -23.8 13.0 21 21 21
-13.1 -24.6 13.4 18 18 18
-12.3 -23.6 12.9 36 37 36
-11.2 -23.2 12.7 38 40 40
-11.0 -23.4 12.7 77 77 77
-10.8 -23.6 12.9 21 24 22
-10.5 -23.5 12.8 43 43 43
-10.3 -23.8 13.0 183 186 185
41.4 -52.0 28.4 203 203 203
44.5 -53.3 29.1 205 205 205
44.5 -52.6 28.7 205 205 205
51.2 -57.0 31.1 203 203 203
50.2 -55.2 30.1 206 206 206
48.0 -52.0 28.3 203 203 203
47.6 -50.9 27.7 204 204 204
47.2 -49.7 27.1 204 204 204
47.5 -49.4 26.9 204 204 204
29.2 -26.9 14.6 202 202 202
31.0 -28.1 15.3 203 203 203
378.9 -216.9 118.2 181 181 181
348.9 -198.3 108.1 177 180 179
486.2 -265.0 144.4 177 177 177
419.2 -226.9 123.6 177 177 177
105.5 -54.2 29.5 170 171 170
101.2 -51.6 28.1 163 166 165
-36.9 -23.7 13.1 67 67 67
-36.6 -23.7 13.1 64 65 63
-36.3 -23.7 13.1 64 65 63
-36.0 -23.8 13.1 67 67 67
-35.7 -23.8 13.1 67 67 67
-35.4 -23.7 13.1 67 67 67
-35.1 -23.7 13.1 68 68 68
-34.8 -23.7 13.1 68 68 68
-34.5 -23.7 13.1 68 68 68
-34.2 -23.8 13.1 68 68 68
-33.9 -23.8 13.1 65 66 64
-33.6 -23.8 13.1 65 66 64
-33.3 -23.8 13.1 63 63 63
-32.9 -23.7 13.1 63 63 63
-32.6 -23.7 13.1 64 64 64
-32.3 -23.7 13.1 64 64 64
-32.0 -23.7 13.1 64 64 64
-31.8 -23.8 13.1 61 61 61
-31.5 -23.8 13.1 61 61 61
-31.1 -23.8 13.1 62 62 62
-30.6 -23.6 13.0 62 62 62
-30.4 -23.7 13.1 60 60 60
-30.2 -23.7 13.1 60 60 60
-29.9 -23.7 13.1 58 58 56
-29.4 -23.6 13.0 58 58 56
-29.2 -23.7 13.1 55 55 55
-28.9 -23.7 13.1 59 59 57
-28.7 -23.8 13.1 59 59 57
-28.4 -23.7 13.1 59 59 57
-28.1 -23.7 13.1 61 61 61
-27.8 -23.8 13.1 60 59 58
-27.5 -23.8 13.1 57 57 57
-27.2 -23.8 13.1 57 57 57
-26.9 -23.7 13.1 57 57 57
-26.5 -23.7 13.1 55 55 55
-26.2 -23.7 13.1 53 52 52
-25.9 -23.7 13.1 53 52 52
-25.6 -23.7 13.1 55 55 55
-25.3 -23.7 13.1 53 53 53
-25.0 -23.7 13.1 53 53 53
-24.2 -23.8 13.1 52 52 52
-23.9 -23.8 13.2 49 49 49
-23.5 -23.8 13.1 50 50 50
-23.0 -23.6 13.0 50 50 50
-22.9 -23.7 13.1 49 48 47
-19.9 -23.8 13.2 29 29 29
-19.5 -23.7 13.1 29 29 29
-12.6 -18.5 10.2 30 30 30
-13.1 -24.2 13.3 33 34 32
-12.4 -23.5 13.0 124 127 126
-10.4 -20.6 11.4 111 111 111
-11.1 -23.4 12.9 66 66 66
-10.9 -23.6 13.0 47 48 47
-10.6 -23.6 13.0 53 52 52
-10.3 -23.6 13.0 183 186 185
-10.1 -23.7 13.1 181 184 183
42.1 -52.2 28.8 205 205 205
44.9 -53.1 29.3 205 205 205
44.9 -52.3 28.9 205 205 205
51.5 -56.6 31.3 205 205 205
50.6 -54.8 30.3 205 205 205
49.8 -53.3 29.4 206 206 206
48.3 -51.0 28.1 203 203 203
47.6 -49.6 27.4 203 203 203
47.7 -49.0 27.0 203 203 203
406.8 -230.0 127.0 180 180 180
357.1 -200.4 110.6 177 180 179
497.6 -267.7 147.8 178 181 180
433.4 -231.6 127.8 177 177 177
100.9 -50.8 28.0 168 168 168
96.0 -48.0 26.5 160 163 162
-36.7 -23.3 13.0 67 67 67
-36.4 -23.3 13.0 68 68 68
-36.1 -23.3 13.0 68 68 68
-35.8 -23.3 13.0 68 68 68
-35.5 -23.3 13.0 68 68 68
-35.2 -23.3 13.0 68 68 68
-34.9 -23.3 13.0 68 68 68
-34.6 -23.3 13.0 69 69 69
-34.3 -23.3 13.0 69 69 69
-34.0 -23.3 13.0 69 69 69
-33.4 -23.3 13.1 69 69 69
-33.1 -23.4 13.1 66 67 65
-32.8 -23.3 13.0 67 68 66
-32.4 -23.3 13.0 67 68 66
-32.1 -23.3 13.0 67 68 66
-31.8 -23.3 13.0 67 68 66
-31.6 -23.3 13.0 62 62 62
-31.3 -23.3 13.0 62 62 62
-30.9 -23.3 13.0 60 60 60
-30.6 -23.3 13.0 61 61 61
-30.3 -23.3 13.0 61 61 61
-30.0 -23.3 13.0 61 61 61
-29.7 -23.3 13.0 61 61 61
-29.4 -23.3 13.0 59 59 57
-29.1 -23.3 13.0 60 59 58
-28.8 -23.3 13.0 60 59 58
-28.5 -23.3 13.0 60 59 58
-28.2 -23.3 13.0 60 59 58
-27.9 -23.3 13.0 57 57 57
-27.6 -23.3 13.0 58 58 58
-27.3 -23.3 13.0 61 60 59
-27.0 -23.3 13.0 58 58 58
-26.7 -23.3 13.0 58 58 58
-26.4 -23.3 13.0 58 59 59
-26.1 -23.3 13.0 58 59 59
-25.8 -23.3 13.0 56 56 56
-25.5 -23.3 13.0 54 54 54
-25.2 -23.3 13.0 54 54 54
-24.9 -23.3 13.0 54 54 54
-23.7 -23.3 13.1 53 52 52
-23.4 -23.4 13.1 51 51 51
-23.0 -23.2 13.0 51 51 51
-19.4 -23.3 13.0 111 111 111
-12.5 -18.1 10.1 31 31 31
-12.4 -23.2 13.0 120 122 121
-11.1 -23.1 12.9 44 43 42
-10.9 -23.2 13.0 47 47 47
-10.6 -23.2 13.0 53 52 52
-10.3 -23.3 13.0 182 185 184
-10.0 -23.3 13.0 181 184 183
52.5 -57.1 31.9 205 205 205
50.8 -54.4 30.4 205 205 205
50.5 -53.4 29.8 205 205 205
49.1 -51.1 28.6 203 203 203
48.6 -50.0 27.9 203 203 203
48.2 -48.9 27.3 203 203 203
539.8 -286.7 160.3 177 177 177
436.3 -230.1 128.7 177 177 177
100.6 -50.0 27.9 167 167 167
95.9 -47.3 26.5 160 163 162
93.5 -45.8 25.6 160 163 162
-17.6 -18.3 10.4 46 48 47
-17.3 -18.2 10.3 47 49 48
-15.1 -18.8 10.6 105 105 105
-14.8 -18.7 10.6 34 34 34
-14.3 -18.3 10.4 31 31 31
-12.5 -17.8 10.1 34 34 34
-13.2 -23.8 13.5 33 35 33
-9.6 -17.8 10.1 86 85 83
-11.0 -22.0 12.4 139 141 140
-10.6 -24.2 13.7 180 183 182
-10.3 -24.2 13.7 178 181 180
53.0 -56.8 32.2 204 204 204
51.1 -53.9 30.6 205 205 205
52.4 -54.7 31.0 205 205 205
47.4 -47.4 26.9 205 205 205
46.9 -46.3 26.2 205 205 205
24.8 -18.7 10.6 182 182 182
568.7 -298.1 168.9 177 177 177
445.4 -231.9 131.4 177 177 177
100.6 -49.3 27.9 167 167 167
94.5 -46.1 26.1 163 166 165
91.0 -44.1 25.0 160 163 162
-18.1 -18.3 10.5 53 53 53
-17.8 -18.2 10.4 52 52 50
-17.3 -17.9 10.3 49 49 49
-15.1 -18.5 10.6 79 79 79
-14.8 -18.5 10.6 34 34 34
-14.5 -18.4 10.6 26 30 27
-12.5 -17.6 10.1 24 24 24
-10.9 -23.9 13.7 181 184 183
-10.7 -24.2 13.9 179 182 181
-10.4 -24.2 13.9 179 182 181
-10.1 -24.3 13.9 184 184 184
13.5 -17.5 10.0 204 204 204
53.5 -56.6 32.5 204 204 204
52.0 -54.2 31.1 204 204 204
54.0 -55.6 31.9 204 204 204
48.2 -47.6 27.3 205 205 205
38.5 -35.3 20.3 205 205 205
24.8 -18.5 10.6 186 186 186
568.7 -294.2 168.9 176 176 176
411.1 -211.2 121.3 177 177 177
366.9 -187.2 107.5 177 177 177
90.2 -43.1 24.7 160 163 162
86.4 -41.0 23.6 155 155 155
-26.8 -18.3 10.7 72 72 72
-26.6 -18.4 10.7 68 70 68
-26.3 -18.4 10.7 69 71 69
-26.0 -18.3 10.7 69 71 69
-25.9 -18.4 10.7 69 71 69
-25.7 -18.5 10.7 67 67 67
-25.4 -18.4 10.7 65 65 65
-25.1 -18.3 10.7 66 66 66
-25.0 -18.4 10.7 66 66 66
-18.4 -18.3 10.7 57 57 57
-18.0 -18.2 10.6 47 50 49
-16.9 -18.4 10.7 25 29 26
-16.6 -18.3 10.6 25 29 26
-15.2 -18.3 10.7 51 53 52
-14.9 -18.3 10.7 25 28 25
-14.6 -18.3 10.6 25 28 25
-11.4 -24.6 14.3 182 185 184
-10.8 -24.2 14.1 179 182 181
-10.5 -24.2 14.1 177 180 179
-10.3 -24.5 14.2 176 179 178
54.8 -58.0 33.7 206 206 206
55.1 -57.4 33.4 207 207 207
59.9 -60.8 35.4 207 207 207
58.9 -59.0 34.3 208 211 210
58.1 -57.3 33.4 207 207 207
39.4 -36.0 21.0 205 205 205
39.3 -35.5 20.7 205 205 205
39.7 -35.5 20.6 205 205 205
40.3 -35.5 20.7 205 205 205
40.5 -35.3 20.5 205 205 205
42.9 -36.9 21.5 205 205 205
90.4 -42.6 24.8 160 163 162
80.9 -37.7 21.9 146 146 146
-26.3 -18.1 10.7 72 72 72
-25.8 -17.9 10.6 68 70 68
-25.8 -18.1 10.7 69 71 69
-17.9 -17.9 10.6 54 54 54
-15.1 -18.1 10.7 24 27 25
-14.9 -18.1 10.7 24 27 25
-14.5 -17.9 10.6 26 30 27
-13.3 -17.0 10.0 34 34 34
-10.8 -24.5 14.5 179 182 181
54.9 -57.3 33.8 206 206 206
55.1 -56.7 33.4 206 206 206
61.6 -62.5 36.9 206 206 206
61.6 -61.7 36.4 206 206 206
61.1 -60.3 35.6 207 207 207
59.3 -57.8 34.1 207 207 207
58.3 -56.1 33.1 207 207 207
40.1 -36.2 21.4 208 208 208
40.2 -35.8 21.1 208 208 208
40.7 -35.8 21.1 205 205 205
40.9 -35.6 21.0 205 205 205
41.1 -35.3 20.8 205 205 205
95.1 -44.5 26.2 168 168 168
-25.6 -17.4 10.4 72 72 72
-25.4 -17.4 10.4 68 70 68
-24.7 -17.1 10.2 72 72 72
-17.7 -17.4 10.4 64 64 64
-17.3 -17.2 10.3 53 53 53
-15.0 -17.7 10.6 24 27 25
-14.8 -17.7 10.6 25 29 26
-14.4 -17.5 10.5 26 30 27
-13.3 -16.8 10.1 41 41 39
-12.9 -16.9 10.1 135 135 135
-10.4 -17.0 10.2 44 44 44
-11.3 -26.0 15.6 179 182 181
55.0 -56.6 33.8 207 210 209
55.3 -56.1 33.5 207 210 209
64.1 -64.2 38.4 207 210 209
65.3 -64.4 38.5 207 210 209
64.8 -63.1 37.8 206 206 206
62.1 -59.7 35.7 206 206 206
60.0 -56.9 34.0 207 207 207
40.7 -35.8 21.4 207 207 207
41.1 -35.7 21.4 208 208 208
40.9 -35.1 21.0 208 208 208
-26.1 -17.1 10.4 73 74 72
-25.9 -17.1 10.4 73 74 72
-25.7 -17.2 10.4 72 72 72
-25.4 -17.1 10.4 72 72 72
-24.9 -16.9 10.3 68 70 68
-24.8 -17.1 10.4 68 70 68
-24.4 -17.1 10.4 72 72 72
-17.8 -17.2 10.4 37 37 35
-17.2 -17.0 10.3 56 56 56
-15.1 -17.5 10.6 23 26 24
-14.8 -17.5 10.6 33 33 33
-14.4 -17.3 10.5 36 38 36
-14.0 -17.1 10.4 96 99 98
-13.4 -16.6 10.1 73 73 73
-13.6 -17.1 10.4 36 38 36
-11.2 -25.5 15.5 178 178 178
-10.7 -25.1 15.2 160 160 160
-10.4 -25.3 15.3 164 164 164
66.8 -65.0 39.4 207 210 209
67.1 -64.4 39.1 206 206 206
65.4 -62.0 37.6 206 206 206
41.5 -35.5 21.5 207 207 207
41.4 -35.0 21.3 208 208 208
30.5 -23.8 14.5 184 184 184
31.2 -24.1 14.6 188 188 188
31.5 -24.1 14.6 188 188 188
31.7 -24.0 14.5 188 188 188
32.1 -24.0 14.6 188 188 188
-26.9 -17.1 10.5 71 71 71
-26.6 -17.0 10.5 73 74 72
-26.3 -17.0 10.5 78 78 78
-26.1 -17.0 10.5 73 74 72
-25.9 -17.1 10.5 71 71 71
-25.6 -17.0 10.5 81 81 81
-25.3 -17.0 10.5 79 79 79
-25.1 -17.0 10.5 62 62 62
-24.6 -17.0 10.5 74 75 73
-24.4 -17.1 10.5 68 70 68
-22.0 -17.1 10.5 137 139 138
-21.7 -17.0 10.5 136 136 136
-21.5 -17.0 10.5 124 127 126
-18.1 -17.1 10.5 200 202 202
-17.8 -17.0 10.5 30 30 30
-17.5 -17.0 10.4 58 58 58
-15.1 -17.3 10.6 34 34 34
-14.8 -17.2 10.6 32 32 32
-14.4 -17.1 10.5 63 63 63
-13.7 -17.0 10.5 118 117 116
-13.4 -17.0 10.5 119 119 119
-13.2 -17.0 10.5 42 43 42
-11.0 -17.0 10.5 32 32 32
-10.7 -17.0 10.5 42 42 42
-10.5 -17.1 10.5 112 112 112
-10.3 -17.0 10.5 38 38 38
-11.7 -25.5 15.7 183 186 185
-11.2 -25.2 15.5 178 178 178
-10.7 -24.9 15.3 156 159 158
-10.4 -25.0 15.4 155 158 157
69.6 -65.9 40.5 207 210 209
68.2 -63.7 39.2 207 210 209
31.1 -23.9 14.7 185 185 185
31.5 -24.0 14.8 188 188 188
31.8 -24.0 14.7 188 188 188
31.8 -23.7 14.6 188 188 188
32.2 -23.7 14.6 188 188 188
-27.2 -16.9 10.5 48 48 48
-26.9 -16.9 10.5 56 56 56
-26.7 -16.9 10.5 60 60 60
-26.4 -16.8 10.5 71 71 71
-26.2 -16.9 10.5 77 77 77
-26.0 -16.9 10.5 78 78 78
-25.7 -16.9 10.5 80 80 80
-25.4 -16.8 10.5 90 92 91
-24.7 -16.8 10.5 156 156 156
-24.5 -16.9 10.5 72 72 72
-22.0 -16.9 10.5 73 73 73
-21.7 -16.8 10.5 73 73 73
-21.5 -16.8 10.5 70 72 69
-18.1 -16.9 10.5 190 192 192
-17.8 -16.8 10.5 38 38 38
-17.5 -16.7 10.4 55 55 55
-14.9 -17.1 10.7 41 41 41
-14.5 -16.9 10.5 92 92 92
-13.9 -16.8 10.5 82 82 82
-13.7 -16.8 10.5 133 133 133
-13.2 -16.8 10.5 72 72 72
-10.5 -16.9 10.5 129 132 131
-10.3 -16.8 10.5 72 73 71
-11.8 -25.3 15.8 184 187 186
-11.3 -25.1 15.7 177 177 177
-10.9 -24.9 15.5 158 161 160
-10.6 -25.1 15.7 156 159 158
72.5 -67.7 42.2 207 210 209
42.8 -32.5 20.3 185 185 185
31.8 -23.6 14.7 188 188 188
-30.9 -19.2 12.2 33 32 30
-30.0 -18.9 11.9 47 47 47
-29.4 -18.7 11.8 107 107 107
-30.3 -19.4 12.3 148 150 150
-29.9 -19.3 12.2 150 150 150
-29.5 -19.2 12.2 56 56 56
-27.4 -18.6 11.8 71 71 71
-18.1 -19.2 12.2 30 30 30
-17.5 -18.8 11.9 48 48 48
-17.0 -18.6 11.7 24 27 25
-15.9 -19.3 12.2 36 37 35
-12.1 -25.5 16.2 183 183 183
-11.5 -26.0 16.5 166 166 166
41.2 -31.2 19.7 183 183 183
42.0 -31.4 19.9 183 183 183
41.1 -30.4 19.3 188 188 188
-31.0 -19.0 12.2 134 134 134
-30.6 -18.9 12.2 158 161 160
-30.7 -19.2 12.3 19 19 19
-30.4 -19.2 12.3 10 15 11
-29.9 -19.0 12.2 28 28 28
-29.6 -19.0 12.2 34 34 34
-29.3 -19.0 12.2 41 43 42
-29.2 -19.1 12.3 42 43 42
-28.9 -19.1 12.3 57 57 57
-28.5 -19.0 12.2 57 57 57
-25.8 -19.0 12.2 67 67 67
-25.6 -19.0 12.2 67 67 67
-25.0 -19.0 12.2 65 65 65
-24.7 -19.0 12.2 66 66 66
-23.9 -19.0 12.2 73 73 73
-18.6 -19.1 12.3 46 48 47
-18.2 -19.0 12.2 30 30 30
-17.7 -18.7 12.0 34 36 34
-17.1 -18.4 11.8 97 97 97
-15.9 -19.0 12.2 31 31 31
42.7 -31.5 20.2 185 185 185
41.0 -29.9 19.2 189 189 189
-31.0 -18.7 12.2 67 68 66
-30.6 -18.7 12.2 72 73 71
-30.7 -18.9 12.3 51 51 51
-30.4 -18.9 12.3 41 43 42
-29.9 -18.8 12.2 34 34 34
-29.6 -18.7 12.2 33 32 30
-29.4 -18.8 12.3 30 31 30
-29.2 -18.8 12.3 30 31 30
-28.9 -18.8 12.3 30 31 30
-28.6 -18.8 12.3 30 31 30
-25.8 -18.7 12.2 62 62 62
-25.6 -18.7 12.2 65 65 65
-25.4 -18.8 12.3 65 65 65
-25.0 -18.7 12.2 65 65 65
-24.7 -18.7 12.2 65 65 65
-23.9 -18.7 12.2 66 66 66
-23.6 -18.7 12.2 67 67 67
-23.3 -18.7 12.2 67 67 67
-23.0 -18.7 12.2 50 50 50
-18.6 -18.8 12.3 113 114 113
-18.2 -18.7 12.2 146 148 148
-17.8 -18.6 12.1 125 125 125
-16.9 -17.9 11.7 92 95 94
-16.0 -18.7 12.2 33 33 33
-12.5 -15.5 10.1 34 36 34
40.2 -28.8 18.8 189 189 189
72.8 -31.8 20.8 180 180 180
70.3 -30.5 19.9 183 183 183
59.3 -24.9 16.3 169 169 169
59.1 -24.7 16.1 159 162 161
-30.6 -18.7 12.4 39 39 39
-30.3 -18.7 12.4 34 34 34
-29.4 -18.7 12.4 47 47 47
-29.1 -18.7 12.4 41 43 42
-22.0 -18.7 12.4 63 62 61
-18.7 -18.7 12.4 20 20 20
-18.2 -18.4 12.2 36 36 34
-17.4 -17.9 11.9 27 27 27
-16.9 -17.7 11.7 31 31 31
-13.3 -15.1 10.0 28 28 28
-16.0 -18.6 12.3 34 36 34
-12.8 -15.1 10.0 34 36 34
-13.0 -29.0 19.2 172 172 172
40.2 -28.4 18.8 189 189 189
74.1 -31.9 21.1 184 184 184
71.2 -30.4 20.2 184 184 184
59.9 -24.8 16.4 169 169 169
60.0 -24.7 16.4 160 160 160
-30.4 -18.5 12.4 26 26 26
-29.5 -18.5 12.4 60 60 60
-22.0 -18.5 12.4 64 64 64
-18.4 -18.3 12.3 21 24 22
-13.3 -14.9 10.0 36 36 34
-13.8 -29.4 19.8 177 180 179
-14.1 -31.0 20.8 173 173 173
73.9 -31.3 21.1 189 189 189
72.7 -30.6 20.6 189 189 189
60.7 -24.7 16.7 168 168 168
60.3 -24.4 16.4 161 161 161
61.5 -24.7 16.7 156 156 156
-56.7 -29.4 20.1 53 53 53
-36.0 -29.4 20.1 67 69 67
-13.3 -14.7 10.0 98 98 98
-23.8 -29.3 20.1 107 107 105
-14.5 -29.4 20.1 177 177 177
-13.9 -29.1 19.9 177 177 177
-13.7 -29.6 20.3 175 175 175
-13.3 -29.8 20.4 169 169 169
-12.6 -29.3 20.0 162 165 164
76.2 -32.0 21.9 183 183 183
75.1 -31.3 21.4 190 190 190
74.8 -31.0 21.2 186 186 186
74.0 -30.5 20.8 186 186 186
61.4 -24.6 16.8 167 167 167
60.9 -24.3 16.6 162 162 162
61.3 -24.3 16.6 156 156 156
61.7 -24.3 16.6 150 152 152
-55.8 -28.5 19.8 32 31 30
-55.3 -28.5 19.8 54 54 54
-54.8 -28.5 19.8 79 81 79
-54.4 -28.5 19.8 75 76 76
-53.8 -28.5 19.8 154 156 156
-53.4 -28.5 19.8 49 49 49
-50.2 -28.5 19.8 153 153 153
-49.7 -28.5 19.8 149 149 149
-49.3 -28.5 19.8 62 62 62
-48.9 -28.5 19.8 153 152 150
-48.3 -28.5 19.8 183 183 183
-47.9 -28.5 19.8 176 175 173
-47.5 -28.5 19.8 128 128 128
-47.0 -28.5 19.8 77 77 77
-46.6 -28.5 19.8 74 74 74
-46.1 -28.5 19.8 69 69 69
-45.6 -28.5 19.8 139 139 139
-45.1 -28.5 19.8 164 167 166
-44.7 -28.5 19.8 182 185 184
-44.2 -28.5 19.8 181 184 183
-43.8 -28.5 19.8 189 191 191
-43.3 -28.5 19.8 207 210 209
-42.8 -28.5 19.8 209 209 209
-42.4 -28.5 19.8 189 189 189
-41.9 -28.5 19.8 211 211 211
-41.5 -28.5 19.8 219 219 219
-41.0 -28.5 19.8 205 205 205
-40.6 -28.5 19.8 174 174 174
-40.1 -28.5 19.8 166 166 166
-39.7 -28.5 19.8 159 159 159
-39.2 -28.5 19.8 145 145 144
-38.7 -28.5 19.8 159 162 161
-38.3 -28.5 19.8 213 215 215
-37.8 -28.5 19.8 205 208 207
-37.4 -28.5 19.8 182 185 184
-36.9 -28.5 19.8 182 185 184
-36.4 -28.5 19.8 205 205 205
-36.0 -28.5 19.8 222 222 222
-35.5 -28.5 19.8 181 181 181
-35.0 -28.5 19.8 126 126 126
-34.6 -28.5 19.8 157 157 157
-34.1 -28.5 19.8 182 185 184
-33.8 -28.6 19.9 181 184 183
-33.2 -28.5 19.8 181 181 181
-32.7 -28.5 19.8 214 216 216
-32.3 -28.5 19.8 212 213 212
-31.8 -28.5 19.8 213 215 215
-31.4 -28.5 19.8 131 131 131
-30.9 -28.5 19.8 41 41 41
-30.4 -28.5 19.8 43 45 45
-30.0 -28.5 19.8 72 72 72
-29.5 -28.5 19.8 91 93 92
-29.1 -28.5 19.8 101 100 98
-28.6 -28.5 19.8 107 107 107
-28.1 -28.5 19.8 105 105 105
-27.7 -28.5 19.8 28 28 28
-27.2 -28.5 19.8 42 42 42
-26.8 -28.5 19.8 89 90 88
-26.3 -28.5 19.8 22 25 23
-25.8 -28.5 19.8 20 23 21
-25.4 -28.5 19.8 39 39 39
-24.9 -28.5 19.8 103 102 100
-24.5 -28.5 19.8 46 46 46
-24.0 -28.5 19.8 78 80 78
-23.5 -28.5 19.8 36 37 36
-23.0 -28.5 19.8 105 105 103
-22.6 -28.5 19.8 58 58 58
-22.1 -28.5 19.8 73 74 72
-21.2 -28.5 19.8 27 27 27
-14.9 -28.8 20.0 199 199 199
-14.4 -28.6 19.9 166 166 166
-13.8 -28.4 19.7 179 182 181
-13.4 -28.6 19.8 176 176 176
-13.0 -28.6 19.8 144 144 144
-12.4 -28.4 19.7 25 27 25
157.8 -125.5 87.2 208 211 210
32.9 -20.0 13.9 196 196 196
32.8 -19.8 13.7 198 198 198
501.4 -241.0 167.4 199 199 199
75.6 -31.0 21.5 188 188 188
75.3 -30.7 21.3 188 188 188
74.4 -30.2 20.9 188 188 188
61.6 -24.3 16.9 164 167 166
61.1 -24.0 16.7 161 161 161
61.5 -24.0 16.7 157 157 157
61.8 -23.9 16.6 151 151 151
61.7 -23.8 16.5 147 147 147
-55.5 -27.9 19.7 26 26 26
-55.1 -27.9 19.7 35 35 35
-54.6 -27.9 19.7 96 96 96
-49.5 -27.9 19.7 180 183 182
-49.1 -27.9 19.7 172 174 174
-48.7 -27.9 19.7 149 149 149
-48.1 -27.9 19.7 184 184 184
-47.7 -27.9 19.7 177 177 177
-47.2 -27.9 19.7 165 165 165
-46.8 -27.9 19.7 139 139 139
-46.4 -27.9 19.7 142 144 143
-45.9 -27.9 19.7 77 77 77
-45.4 -27.9 19.7 79 81 79
-44.9 -27.9 19.7 196 196 196
-44.5 -27.9 19.7 196 196 196
-44.0 -27.9 19.7 173 173 173
-42.7 -27.9 19.7 150 150 150
-42.2 -27.9 19.7 121 121 121
-41.7 -27.9 19.7 97 96 94
-41.3 -27.9 19.7 60 60 60
-39.9 -27.9 19.7 71 72 70
-39.4 -27.9 19.7 49 49 49
-39.0 -27.9 19.7 30 31 30
-38.5 -27.9 19.7 115 114 114
-38.1 -27.9 19.7 165 165 165
-37.6 -27.9 19.7 135 135 135
-35.9 -28.0 19.7 135 135 135
-35.3 -27.9 19.7 135 135 135
-34.9 -27.9 19.7 148 150 150
-34.5 -28.0 19.8 194 194 194
-34.0 -27.9 19.7 231 231 231
-33.7 -28.1 19.8 199 199 199
-33.1 -28.0 19.8 244 244 244
-32.6 -28.0 19.7 210 210 210
-32.2 -28.0 19.8 225 225 225
-31.7 -27.9 19.7 213 215 215
-31.2 -27.9 19.7 217 217 217
-30.7 -27.9 19.7 143 143 142
-30.3 -27.9 19.7 71 71 71
-29.8 -27.9 19.7 42 43 42
-29.4 -27.9 19.7 19 23 20
-29.0 -28.0 19.8 28 28 28
-28.5 -28.0 19.7 32 33 31
-28.0 -27.9 19.7 109 109 107
-27.5 -27.9 19.7 35 34 33
-27.1 -27.9 19.7 101 100 98
-26.6 -27.9 19.7 32 33 31
-26.2 -27.9 19.7 32 33 31
-25.7 -27.9 19.7 123 123 123
-25.3 -27.9 19.7 144 144 144
-24.8 -27.9 19.7 65 65 65
-24.4 -28.0 19.7 43 43 43
-23.9 -27.9 19.7 70 70 70
-23.4 -27.9 19.7 34 33 32
-23.0 -27.9 19.7 141 143 142
-14.4 -28.3 20.0 165 165 165
-13.8 -27.8 19.6 169 171 170
-13.4 -28.0 19.8 160 160 160
-12.9 -28.0 19.8 136 136 136
-12.4 -27.8 19.6 44 44 44
177.0 -140.3 99.0 208 211 210
165.4 -129.5 91.4 208 211 210
165.1 -127.6 90.1 208 211 210
33.0 -19.9 14.1 196 196 196
33.1 -19.8 14.0 198 198 198
32.8 -19.4 13.7 199 199 199
76.2 -30.8 21.7 189 189 189
75.5 -30.3 21.4 189 189 189
75.0 -29.9 21.1 189 189 189
62.3 -24.2 17.1 165 165 165
61.8 -23.8 16.8 161 161 161
62.2 -23.9 16.8 154 156 156
62.1 -23.7 16.7 149 149 149
62.3 -23.6 16.7 142 144 143
-36.2 -28.9 20.7 224 224 224
-35.7 -28.9 20.7 189 189 189
-35.1 -28.8 20.7 142 144 143
-14.1 -28.0 20.1 179 179 179
-13.8 -28.3 20.3 181 184 183
-13.1 -28.0 20.1 171 173 173
-12.4 -27.5 19.7 113 114 113
192.0 -149.8 107.5 208 211 210
181.2 -139.5 100.1 212 213 212
33.0 -19.6 14.1 196 196 196
33.0 -19.4 14.0 197 197 197
32.9 -19.2 13.7 199 199 199
75.7 -29.9 21.4 190 190 190
71.7 -27.9 20.1 184 184 184
63.3 -23.9 17.1 155 155 155
62.9 -23.6 16.9 146 148 148
64.0 -23.9 17.1 143 145 144
-14.2 -28.8 21.0 180 180 180
-13.7 -28.7 20.9 189 189 189
11.9 -13.7 10.0 207 210 209
12.1 -13.7 10.0 207 210 209
15.6 -13.8 10.0 205 208 207
438.9 -345.6 252.2 207 210 209
280.3 -217.8 159.0 207 210 209
262.0 -200.9 146.6 207 210 209
423.1 -312.3 227.9 208 211 210
274.8 -197.8 144.4 209 212 211
76.0 -29.5 21.5 191 191 191
85.9 -32.7 23.9 179 182 181
-14.8 -29.5 21.9 182 182 182
-14.3 -29.5 21.9 177 177 177
-14.0 -29.9 22.2 164 164 164
-13.6 -30.2 22.4 22 22 22
411.5 -318.5 236.5 207 210 209
333.6 -254.8 189.2 207 210 209
270.4 -203.8 151.3 207 210 209
365.0 -268.2 199.1 208 211 210
413.2 -299.7 222.5 208 211 210
413.5 -296.2 220.0 208 211 210
288.0 -203.8 151.3 208 211 210
472.0 -318.5 236.5 215 215 215
370.8 -247.4 183.7 210 213 212
87.2 -32.6 24.2 176 176 176
86.5 -32.2 23.9 167 167 167
69.7 -25.3 18.7 136 138 137
-15.9 -31.1 23.5 173 175 175
-15.2 -30.7 23.2 173 173 173
-14.4 -30.1 22.8 160 160 160
-14.1 -30.7 23.2 27 26 25
433.2 -329.4 248.9 211 211 211
307.3 -227.6 172.0 211 211 211
381.1 -275.1 207.9 207 210 209
428.3 -305.3 230.7 208 211 210
439.0 -309.1 233.5 208 211 210
367.3 -255.5 193.0 208 211 210
746.3 -500.8 378.3 209 212 211
490.3 -325.2 245.7 209 212 211
353.7 -231.8 175.2 210 213 212
86.3 -31.9 24.1 177 177 177
87.1 -32.0 24.2 172 172 172
86.6 -31.7 23.9 161 164 163
70.7 -25.2 19.0 136 136 136
-15.8 -31.5 24.2 89 89 89
-15.0 -30.9 23.8 88 90 89
417.0 -307.5 236.5 211 211 211
397.6 -289.4 222.5 211 211 211
407.6 -292.8 225.2 211 211 211
408.0 -289.4 222.5 212 213 212
450.2 -315.4 242.5 212 213 212
461.8 -319.5 245.7 208 211 210
423.5 -289.4 222.5 208 211 210
517.2 -337.0 259.1 209 212 211
402.1 -258.9 199.1 209 212 211
87.3 -31.7 24.4 159 159 159
87.4 -31.6 24.3 151 151 151
87.6 -31.5 24.2 139 141 140
71.0 -24.8 19.1 135 135 135
71.4 -24.8 19.1 134 134 134
71.7 -24.8 19.0 134 134 134
-34.6 -18.4 14.4 44 43 42
-34.2 -18.4 14.4 47 48 47
-33.1 -18.4 14.4 24 24 24
-17.5 -34.2 26.8 90 92 91
-16.8 -34.0 26.6 87 87 87
-16.3 -34.3 26.9 57 59 59
494.6 -340.3 266.4 212 213 212
500.8 -340.3 266.4 212 213 212
609.0 -389.7 305.1 214 214 214
87.7 -31.3 24.5 144 146 146
87.9 -31.2 24.4 136 136 136
88.4 -31.2 24.4 132 135 134
87.6 -30.7 24.0 129 132 131
71.6 -24.6 19.3 130 130 130
71.5 -24.4 19.1 130 130 130
72.0 -24.4 19.1 128 128 128
72.4 -24.4 19.1 130 130 130
-64.7 -34.2 27.3 39 41 41
-63.3 -33.8 26.9 35 35 35
-62.6 -33.7 26.9 24 24 24
-38.5 -20.9 16.7 20 23 21
-38.1 -21.0 16.7 24 24 24
-38.0 -21.1 16.8 165 165 165
-45.2 -33.8 27.0 54 54 54
-44.6 -33.8 27.0 52 52 52
-44.1 -33.9 27.1 35 35 35
-43.4 -33.8 27.0 25 25 25
-42.2 -33.9 27.1 86 88 88
-41.3 -33.7 26.9 29 30 28
-17.6 -33.8 26.9 89 89 89
-16.7 -33.1 26.4 88 90 89
-16.3 -33.7 26.9 73 73 73
-15.8 -33.9 27.1 112 112 112
524.2 -354.0 282.3 212 213 212
500.8 -334.1 266.4 212 213 212
726.1 -456.1 363.8 214 214 214
88.7 -31.1 24.8 106 108 108
88.4 -30.8 24.6 115 117 116
89.2 -30.9 24.6 117 119 118
89.3 -30.7 24.5 121 121 121
72.2 -24.2 19.3 121 121 121
72.3 -24.1 19.2 121 121 121
72.6 -24.0 19.2 123 123 123
-37.0 -19.7 16.0 18 22 19
-36.4 -19.6 15.9 26 26 26
-36.1 -19.7 16.0 156 156 156
-35.7 -19.7 16.0 159 159 159
-44.5 -33.1 26.9 45 45 45
-25.7 -19.7 16.0 27 27 27
-18.0 -33.9 27.6 90 92 91
-16.8 -32.8 26.7 90 92 91
-16.4 -33.2 26.9 88 90 89
585.3 -388.0 315.3 211 211 211
487.1 -318.9 259.1 212 213 212
89.5 -30.8 25.0 103 103 103
89.8 -30.7 25.0 107 109 109
90.5 -30.8 25.0 112 112 112
91.5 -30.9 25.1 112 112 112
93.5 -31.4 25.5 112 112 112
72.9 -23.9 19.4 115 114 114
73.4 -23.9 19.4 117 119 118
75.1 -24.2 19.7 131 131 131
-34.7 -18.2 15.1 18 22 19
662.6 -430.9 356.9 215 215 215
500.8 -321.7 266.4 216 216 216
91.1 -30.4 25.2 109 109 109
93.3 -30.9 25.6 109 109 109
94.3 -31.0 25.7 109 109 109
74.4 -23.7 19.7 97 97 97
75.6 -24.0 19.8 143 143 142
675.4 -430.8 363.8 215 215 215
530.7 -334.3 282.3 215 215 215
686.5 -407.3 343.9 217 217 217
91.5 -29.9 25.3 106 106 106
93.6 -30.4 25.7 106 106 106
94.7 -30.6 25.8 102 104 104
94.9 -30.4 25.7 102 104 104
75.8 -23.6 19.9 153 155 155
592.6 -366.0 315.3 215 215 215
-27.8 -14.2 12.5 168 170 169
-23.0 -41.5 36.5 95 98 97
670.9 -406.0 356.9 218 218 218
145.8 -76.0 66.8 202 202 202
-27.2 -13.7 12.3 15 15 15
-24.1 -42.6 38.2 95 98 97
-25.5 -46.8 42.0 101 101 101
-23.8 -45.3 40.7 22 22 22
555.6 -329.4 295.6 218 218 218
143.8 -73.5 65.9 202 202 202
-24.9 -43.1 39.5 95 98 97
-25.1 -45.2 41.4 109 109 109
-23.8 -44.5 40.8 6 11 7
12.9 -11.2 10.3 214 214 214
13.0 -11.1 10.2 212 213 212
13.5 -11.1 10.2 216 216 216
13.7 -11.1 10.2 212 213 212
13.8 -11.0 10.1 212 213 212
144.8 -72.4 66.4 202 202 202
-25.8 -43.7 40.9 99 99 99
-26.3 -46.2 43.3 106 106 106
-26.5 -50.4 47.2 23 24 23
13.7 -10.7 10.0 215 215 215
15.0 -10.8 10.1 215 215 215
15.4 -10.7 10.1 211 211 211
145.3 -71.1 66.6 202 202 202
143.3 -69.4 65.0 202 202 202
-27.2 -46.8 44.8 115 114 114
-29.7 -53.1 50.9 7 13 9
142.4 -67.4 64.6 202 202 202
-29.9 -52.4 51.3 23 24 23
-29.3 -55.7 54.5 104 104 104
-30.4 -52.0 52.1 48 48 48
-31.3 -55.7 55.8 23 24 23
-30.1 -55.9 56.0 159 159 159
508.0 -269.7 270.2 220 220 220
-37.5 -58.0 59.5 101 101 101
-33.1 -55.2 56.6 43 43 43
-33.2 -57.6 59.1 23 24 23
-31.6 -57.3 58.7 161 164 163
467.9 -242.7 248.9 220 220 220
376.3 -175.6 180.2 184 184 184
213.7 -97.6 100.1 200 200 200
194.4 -87.8 90.1 200 200 200
184.9 -80.9 83.0 202 202 202
-38.2 -59.8 62.8 111 111 109
-35.5 -60.2 63.3 20 20 20
-33.2 -58.8 61.8 160 163 162
530.7 -268.7 282.3 220 220 220
349.7 -159.3 167.4 180 180 180
211.5 -94.3 99.0 198 198 198
182.3 -80.4 84.4 200 200 200
174.9 -76.3 80.2 200 200 200
182.5 -77.9 81.9 202 202 202
177.5 -75.0 78.8 202 202 202
211.8 -58.6 61.6 55 54 53
-13.8 -10.2 11.0 9 14 10
-45.3 -72.0 77.5 26 25 24
-41.0 -67.8 73.0 23 24 23
-34.1 -58.9 63.5 173 175 175
547.1 -270.2 291.0 220 220 220
352.8 -156.8 168.9 184 184 184
195.4 -84.0 90.5 200 200 200
173.4 -73.8 79.5 200 200 200
182.5 -76.0 81.9 202 202 202
176.7 -72.9 78.5 202 202 202
201.9 -54.5 58.7 56 55 54
-13.9 -10.0 11.0 18 22 19
-48.9 -75.8 83.7 26 25 24
-44.2 -71.3 78.8 19 19 19
500.8 -241.2 266.4 220 220 220
352.8 -152.9 168.9 186 186 186
309.7 -132.7 146.6 179 179 179
202.2 -84.8 93.6 200 200 200
185.9 -77.1 85.2 200 200 200
188.2 -76.4 84.4 202 202 202
187.6 -75.4 83.3 202 202 202
201.9 -53.2 58.7 57 57 55
-13.8 -9.7 11.0 10 10 10
-12.9 -9.4 10.7 36 36 36
-53.4 -80.6 91.4 32 32 32
595.2 -282.8 320.6 220 223 222
487.1 -228.5 259.1 220 220 220
514.2 -219.5 248.9 218 218 218
349.7 -147.6 167.4 186 186 186
300.4 -125.4 142.2 172 172 172
203.2 -83.0 94.1 200 200 200
184.3 -74.5 84.4 200 200 200
189.9 -75.2 85.2 202 202 202
189.3 -74.2 84.1 202 202 202
202.5 -52.0 58.9 57 57 55
-13.9 -9.5 11.0 32 33 31
-13.5 -9.4 10.9 35 34 33
488.4 -203.1 236.5 222 224 224
352.8 -145.0 168.9 176 179 178
196.3 -78.1 90.9 200 200 200
181.0 -71.2 83.0 200 200 200
184.1 -70.9 82.6 202 202 202
186.0 -70.9 82.6 202 202 202
200.7 -50.1 58.4 57 57 55
-14.0 -9.3 11.1 32 33 31
-13.6 -9.2 11.0 32 33 31
-132.6 -197.6 236.5 30 30 30
13.8 -8.4 10.1 219 222 221
177.1 -66.4 79.5 200 200 200
-212.2 -307.3 378.3 21 21 21
13.6 -8.2 10.1 219 222 221
13.8 -8.2 10.1 219 219 219
172.8 -63.0 77.5 200 200 200
13.6 -8.0 10.1 219 219 219
13.8 -7.9 10.1 219 219 219
173.5 -61.4 77.8 198 198 198
13.6 -7.7 10.1 219 219 219
13.8 -7.7 10.1 219 219 219
352.8 -129.3 168.9 181 181 181
175.6 -60.4 78.8 198 198 198
29.7 -14.0 18.8 219 222 221
29.6 -13.7 18.5 219 222 221
31.5 -13.8 18.6 219 222 221
31.9 -13.8 18.6 219 222 221
501.0 -180.1 242.5 218 218 218
352.8 -125.4 168.9 190 190 190
317.1 -111.5 150.1 146 148 148
286.5 -99.6 134.2 158 158 158
183.3 -61.1 82.2 197 197 197
13.8 -7.2 10.1 219 219 219
29.7 -13.6 18.8 219 222 221
29.6 -13.3 18.5 219 222 221
31.4 -13.5 18.8 219 222 221
31.8 -13.5 18.8 219 222 221
32.1 -13.4 18.7 219 222 221
501.0 -174.4 242.5 220 220 220
349.7 -120.4 167.4 175 177 177
312.1 -106.3 147.8 100 100 100
292.7 -98.6 137.1 147 149 149
187.3 -60.5 84.1 195 195 195
13.7 -7.1 10.2 220 223 222
13.8 -7.0 10.1 219 219 219
29.9 -13.2 18.9 219 222 221
29.7 -12.9 18.6 219 222 221
31.5 -13.1 18.9 219 222 221
31.9 -13.1 18.8 219 222 221
494.6 -166.7 239.4 222 224 224
365.9 -121.9 175.2 183 183 183
169.5 -48.4 69.5 229 228 226
13.8 -6.8 10.1 214 214 214
29.0 -12.2 18.1 219 222 221
30.7 -12.2 18.1 220 223 222
31.0 -12.2 18.1 220 223 222
26.7 -10.1 14.9 220 223 222
27.1 -9.7 14.4 220 223 222
372.8 -120.1 178.5 190 190 190
166.1 -46.3 68.8 199 199 199
168.9 -46.6 69.3 225 227 227
147.8 -40.4 60.1 230 230 230
139.0 -37.7 56.0 102 104 104
13.7 -6.7 10.4 214 214 214
28.7 -11.6 17.9 220 223 222
28.7 -11.5 17.7 220 223 222
23.5 -9.3 14.3 220 223 222
30.3 -11.6 17.9 220 223 222
30.7 -11.6 17.9 220 223 222
30.9 -11.5 17.8 220 223 222
31.2 -11.5 17.7 220 223 222
32.8 -11.6 17.9 220 223 222
32.7 -11.5 17.6 222 224 224
27.0 -9.3 14.4 222 224 224
183.3 -53.4 82.2 196 196 196
170.1 -45.3 69.8 230 230 230
146.4 -38.6 59.5 234 234 234
137.4 -35.9 55.3 107 107 107
13.6 -6.5 10.3 215 215 215
30.0 -11.1 17.7 220 223 222
30.7 -11.0 17.6 222 224 224
31.1 -11.0 17.6 222 224 224
31.8 -11.0 17.6 220 220 220
32.3 -11.0 17.6 222 224 224
32.5 -11.0 17.5 222 224 224
27.1 -9.0 14.4 222 224 224
183.3 -51.5 82.2 193 193 193
176.0 -45.2 72.2 230 230 230
13.7 -6.1 10.2 216 216 216
13.8 -6.1 10.1 216 216 216
32.9 -11.7 19.4 222 224 224
31.4 -10.7 17.8 222 224 224
32.5 -10.5 17.5 221 221 221
391.2 -112.9 187.3 175 177 177
180.9 -49.0 81.2 193 193 193
171.4 -42.4 70.3 232 232 232
13.7 -5.9 10.2 212 213 212
13.8 -5.8 10.1 216 216 216
30.1 -11.2 19.4 224 226 226
30.1 -11.1 19.1 222 224 224
29.6 -10.7 18.5 222 224 224
32.7 -11.2 19.3 222 224 224
32.8 -11.1 19.1 222 224 224
365.9 -101.6 175.2 193 193 193
180.9 -47.1 81.2 194 194 194
170.8 -40.6 70.1 235 235 235
13.7 -5.7 10.2 208 211 210
13.8 -5.6 10.1 214 214 214
29.8 -10.7 19.1 221 221 221
29.7 -10.5 18.8 222 224 224
29.6 -10.3 18.5 221 221 221
32.6 -10.6 19.0 221 221 221
32.6 -10.4 18.7 221 221 221
31.2 -9.8 17.7 221 221 221
32.7 -9.8 17.6 222 222 222
380.0 -101.2 181.9 183 183 183
186.8 -47.6 85.6 186 186 186
186.5 -46.6 83.7 191 191 191
206.2 -49.4 88.8 199 199 199
209.2 -49.7 89.2 203 203 203
203.6 -47.9 86.0 203 203 203
172.1 -39.3 70.6 235 235 235
13.6 -5.4 10.1 206 209 208
13.8 -5.4 10.1 209 212 211
29.6 -10.0 18.8 221 221 221
32.4 -10.1 18.9 222 222 222
32.3 -9.9 18.6 222 222 222
31.5 -9.5 17.9 222 222 222
32.4 -9.3 17.5 222 222 222
26.6 -7.5 14.0 222 222 222
395.2 -100.9 189.2 172 172 172
184.3 -45.0 84.4 184 184 184
179.0 -43.3 81.2 190 190 190
186.5 -44.6 83.7 192 192 192
189.3 -44.8 84.1 194 194 194
200.5 -46.1 86.4 199 199 199
205.3 -46.7 87.6 203 203 203
200.9 -45.2 84.8 203 203 203
195.8 -43.7 81.9 205 205 205
13.6 -5.2 10.1 196 196 196
13.8 -5.1 10.1 220 220 220
31.2 -9.0 17.7 220 220 220
32.6 -9.0 17.5 224 224 224
26.7 -7.2 14.2 224 224 224
26.7 -7.2 14.0 224 224 224
177.5 -41.1 80.5 190 190 190
184.9 -42.3 83.0 192 192 192
199.6 -43.9 86.0 200 200 200
200.9 -43.3 84.8 203 203 203
193.3 -41.2 80.8 207 207 207
189.8 -39.7 77.8 225 227 227
133.5 -27.4 53.7 121 121 121
13.8 -4.9 10.1 210 213 212
27.1 -7.1 14.6 224 224 224
26.8 -7.0 14.3 224 224 224
28.1 -7.1 14.6 224 224 224
28.2 -7.0 14.5 224 224 224
177.5 -39.2 80.5 188 188 188
180.1 -39.4 80.8 190 190 190
195.2 -40.9 84.1 200 200 200
197.3 -40.6 83.3 200 200 200
190.8 -38.9 79.8 204 204 204
189.5 -38.2 78.5 204 204 204
179.4 -35.8 73.6 218 218 218
136.2 -26.7 54.8 122 122 122
13.8 -4.7 10.1 204 204 204
27.2 -6.8 14.7 221 221 221
26.8 -6.6 14.3 221 221 221
26.7 -6.5 14.0 225 225 225
28.1 -6.8 14.6 225 225 225
28.3 -6.7 14.5 225 225 225
13.8 -4.4 10.1 203 203 203
27.4 -6.6 15.0 222 222 222
27.3 -6.5 14.7 222 222 222
26.8 -6.3 14.3 222 222 222
26.4 -6.1 13.9 222 222 222
28.2 -6.4 14.6 222 222 222
28.4 -6.4 14.6 222 222 222
35.4 -4.1 19.8 222 222 222
36.1 -3.3 20.5 225 225 225
36.3 -3.3 20.3 225 225 225
36.6 -3.3 20.2 220 223 222
36.5 -2.9 20.7 220 223 222
24.9 -1.7 12.5 225 225 225
25.0 -1.7 12.4 228 228 228
25.2 -1.7 12.3 220 223 222
25.1 -1.5 12.7 220 223 222
24.8 -1.4 12.4 220 223 222
25.0 -1.4 12.4 225 225 225
25.2 -1.4 12.3 225 225 225
25.2 -1.2 12.8 222 224 224
1246.1 18.4 386.0 219 219 219
110.9 6.2 29.5 90 90 90
109.5 6.1 28.9 96 96 96
112.4 7.0 29.9 94 94 94
111.9 6.9 29.6 96 96 96
112.4 6.9 29.5 77 77 77
114.8 7.8 30.5 215 218 217
114.8 7.8 30.3 209 209 209
114.5 7.7 30.1 176 176 176
117.3 8.7 31.2 114 116 115
908.3 89.4 255.6 88 88 88
165.3 16.2 43.4 151 153 153
-18.0 262.6 363.8 216 216 216
-28.4 11.0 10.1 108 110 110
-506.3 291.6 236.5 88 90 89
-494.7 288.0 233.5 77 79 77
-471.7 277.7 225.2 77 79 77
-456.2 281.0 227.9 86 86 86
-411.3 256.3 207.9 75 77 75
-402.1 253.6 205.6 50 49 48
-393.0 250.8 203.4 34 34 34
29.3 18.5 11.7 147 149 149
29.3 18.3 11.6 119 119 119
