ply
format ascii 1.0
element vertex 2507
property float x
property float y
property float z
property uchar red
property uchar green
property uchar blue
end_header
192.1 -452.0 180.2 162 162 162
194.4 -447.7 178.5 163 163 163
196.7 -443.6 176.8 163 163 163
199.0 -439.5 175.2 163 163 163
197.6 -427.6 170.4 163 163 163
203.3 -431.5 172.0 160 160 160
213.2 -443.6 176.8 160 160 160
209.4 -427.6 170.4 160 160 160
223.5 -447.7 178.5 160 160 160
234.2 -460.8 183.7 160 160 160
229.6 -443.6 176.8 160 160 160
98.0 -163.1 65.0 154 156 156
98.9 -162.0 64.6 154 156 156
101.0 -163.1 65.0 154 156 156
103.6 -164.8 65.7 155 158 157
104.8 -164.2 65.5 155 158 157
105.2 -162.5 64.8 156 159 158
55.2 -78.6 31.3 158 161 160
56.0 -78.6 31.3 158 161 160
57.2 -79.2 31.6 159 162 161
58.0 -79.4 31.6 157 157 157
143.3 -313.5 126.1 163 163 163
147.2 -315.6 127.0 163 163 163
143.4 -301.4 121.3 163 163 163
147.1 -303.4 122.0 163 163 163
159.2 -322.1 129.6 163 163 163
149.9 -297.6 119.7 163 163 163
171.8 -328.8 132.3 163 163 163
94.4 -155.7 62.6 156 159 158
90.8 -147.4 59.3 156 159 158
93.3 -149.3 60.1 156 159 158
96.9 -152.7 61.4 157 160 159
97.4 -151.2 60.8 157 160 159
99.1 -151.7 61.0 156 159 158
96.8 -146.0 58.7 156 159 158
54.7 -77.1 31.0 158 161 160
55.2 -76.8 30.9 158 161 160
56.2 -77.2 31.1 159 162 161
57.2 -77.6 31.2 159 162 161
123.7 -285.8 116.1 162 162 162
117.1 -264.7 107.5 163 163 163
125.7 -272.4 110.6 163 163 163
117.9 -250.4 101.7 163 163 163
121.6 -253.2 102.8 163 163 163
122.0 -249.1 101.2 163 163 163
136.7 -274.0 111.3 163 163 163
121.5 -238.9 97.0 163 163 163
83.7 -134.6 54.7 161 161 161
87.0 -137.8 56.0 161 161 161
116.6 -182.0 73.9 162 162 162
118.3 -182.0 73.9 162 162 162
119.5 -181.3 73.6 158 161 160
54.5 -76.1 30.9 158 161 160
55.1 -76.0 30.9 158 161 160
55.9 -76.0 30.9 159 162 161
56.9 -76.4 31.0 159 162 161
57.5 -76.2 31.0 160 163 162
58.0 -76.0 30.9 160 163 162
58.4 -38.5 15.6 176 176 176
57.7 -37.8 15.3 163 166 165
87.1 -176.1 72.2 163 163 163
85.5 -169.6 69.5 163 163 163
103.9 -202.4 83.0 163 163 163
89.7 -171.5 70.3 163 163 163
85.3 -160.2 65.7 163 163 163
114.2 -210.7 86.4 163 163 163
67.4 -107.3 44.0 164 164 164
67.1 -105.3 43.2 164 164 164
130.9 -202.4 83.0 165 165 165
133.4 -203.3 83.3 165 165 165
55.5 -75.8 31.1 160 163 162
56.5 -76.1 31.2 159 162 161
57.2 -76.1 31.2 159 162 161
57.8 -75.9 31.1 160 163 162
58.2 -75.5 31.0 160 163 162
57.6 -37.6 15.4 209 209 209
57.5 -37.3 15.3 212 213 212
57.5 -37.0 15.2 204 204 204
67.8 -144.2 59.7 163 163 163
68.3 -142.4 58.9 165 165 165
69.9 -142.8 59.1 166 166 166
71.7 -143.7 59.5 166 166 166
72.6 -142.8 59.1 166 166 166
70.7 -136.4 56.5 166 166 166
76.4 -144.6 59.9 166 166 166
75.6 -140.6 58.2 166 166 166
58.0 -90.1 37.3 161 161 161
135.0 -206.8 85.6 165 165 165
137.0 -206.8 85.6 162 162 162
134.7 -200.5 83.0 166 166 166
56.1 -76.8 31.8 165 165 165
56.1 -75.9 31.4 165 165 165
58.1 -77.6 32.1 161 164 163
59.1 -77.9 32.2 161 164 163
59.1 -76.9 31.8 162 165 164
60.1 -77.2 32.0 160 163 162
64.3 -44.6 18.5 93 93 93
57.4 -37.1 15.4 174 174 174
57.1 -36.7 15.2 209 209 209
56.1 -35.8 14.8 174 174 174
56.2 -35.6 14.7 216 216 216
57.1 -36.0 14.9 216 216 216
55.9 -113.2 47.3 168 168 168
57.0 -113.2 47.3 169 169 169
59.5 -115.8 48.4 169 169 169
59.2 -113.2 47.3 169 169 169
57.0 -107.0 44.7 169 169 169
63.5 -117.0 48.9 169 169 169
60.8 -110.1 46.0 169 169 169
52.9 -81.4 34.0 170 171 170
53.3 -80.8 33.8 172 172 172
136.4 -203.9 85.2 168 168 168
135.9 -200.3 83.7 172 172 172
56.0 -74.9 31.3 168 168 168
59.3 -78.4 32.8 169 169 169
59.9 -78.2 32.7 166 166 166
59.6 -76.8 32.1 167 167 167
61.5 -41.9 17.5 93 93 93
60.6 -41.1 17.2 89 89 89
54.0 -33.9 14.2 216 216 216
24.7 -81.6 34.5 166 166 166
28.0 -81.8 34.5 167 167 167
28.7 -81.6 34.5 167 167 167
29.6 -81.9 34.6 167 167 167
30.4 -81.9 34.6 167 167 167
31.3 -82.1 34.6 164 164 164
32.1 -82.1 34.6 169 171 170
32.6 -81.3 34.3 168 168 168
33.4 -81.2 34.3 168 168 168
34.2 -81.3 34.3 168 168 168
35.1 -81.6 34.5 169 171 170
36.0 -81.8 34.5 168 168 168
36.9 -81.9 34.6 169 171 170
37.7 -82.1 34.6 168 168 168
38.0 -80.9 34.1 168 168 168
39.1 -81.5 34.4 170 172 172
41.8 -82.2 34.7 169 169 169
42.4 -81.8 34.5 170 172 172
43.1 -81.5 34.4 170 172 172
44.3 -82.2 34.7 170 172 172
45.1 -82.2 34.7 173 175 175
45.5 -81.5 34.4 173 175 175
57.4 -101.2 42.7 170 172 172
53.3 -81.2 34.3 171 173 173
54.0 -81.1 34.2 172 174 174
54.5 -80.6 34.0 172 174 174
55.3 -74.3 31.4 174 174 174
55.5 -73.6 31.1 172 172 172
58.6 -76.8 32.4 175 175 175
59.1 -76.4 32.2 175 175 175
58.0 -74.0 31.2 173 173 173
33.8 -27.1 11.5 112 114 113
60.9 -41.1 17.4 93 93 93
59.8 -40.2 17.0 96 96 96
59.5 -39.7 16.7 93 93 93
26.6 -79.3 33.8 167 167 167
27.5 -79.7 34.0 169 171 170
28.2 -79.4 33.8 169 171 170
29.2 -79.8 34.0 169 171 170
29.9 -79.7 34.0 169 171 170
30.6 -79.4 33.8 169 171 170
31.4 -79.5 33.9 169 171 170
32.1 -79.4 33.8 169 171 170
33.8 -79.5 33.9 169 171 170
34.5 -79.4 33.8 172 174 174
35.4 -79.5 33.9 169 171 170
36.1 -79.4 33.8 173 175 175
36.9 -79.5 33.9 173 175 175
37.6 -79.3 33.8 173 175 175
38.4 -79.4 33.8 173 175 175
39.3 -79.5 33.9 178 178 178
40.6 -80.6 34.3 178 178 178
40.9 -79.7 34.0 173 175 175
41.6 -79.4 33.8 170 172 172
42.2 -79.1 33.7 178 178 178
43.1 -79.3 33.8 178 178 178
43.9 -79.4 33.8 178 178 178
44.5 -79.0 33.7 178 178 178
45.5 -79.4 33.8 173 175 175
47.1 -80.7 34.4 178 178 178
48.1 -81.1 34.6 174 176 176
48.7 -80.7 34.4 179 179 179
48.9 -79.8 34.0 179 179 179
49.5 -79.4 33.8 181 181 181
50.2 -79.4 33.8 179 179 179
51.8 -79.4 33.8 174 176 176
52.4 -79.1 33.7 179 179 179
53.3 -79.3 33.8 182 182 182
53.9 -79.0 33.7 172 174 174
54.9 -79.3 33.8 172 174 174
55.0 -73.1 31.2 175 177 177
55.7 -73.1 31.2 175 177 177
59.0 -76.5 32.6 175 177 177
59.0 -75.5 32.2 175 175 175
57.8 -73.0 31.1 176 179 178
63.1 -42.5 18.1 96 96 96
61.1 -40.9 17.4 93 93 93
58.9 -38.9 16.6 93 93 93
42.9 -26.9 11.5 209 209 209
43.1 -26.9 11.5 216 216 216
24.7 -70.6 30.4 177 177 177
25.3 -70.4 30.3 167 167 167
34.5 -70.5 30.4 190 190 190
40.7 -71.6 30.8 200 200 200
46.2 -78.5 33.8 194 194 194
47.3 -79.0 34.0 197 197 197
48.1 -78.9 34.0 197 197 197
45.7 -71.5 30.8 200 200 200
52.1 -76.7 33.0 202 202 202
53.0 -77.0 33.1 198 198 198
54.4 -77.8 33.5 195 195 195
168.1 -233.7 100.6 199 199 199
59.2 -75.0 32.3 199 199 199
58.0 -72.5 31.2 203 203 203
41.9 -26.2 11.3 197 200 199
42.1 -26.2 11.3 205 205 205
41.8 -25.8 11.1 196 196 196
41.9 -25.7 11.1 212 213 212
43.0 -26.2 11.3 216 216 216
43.2 -26.2 11.3 218 218 218
24.6 -69.8 30.4 205 205 205
25.3 -69.7 30.3 202 202 202
34.3 -70.9 30.8 204 204 204
34.4 -69.7 30.3 204 204 204
38.8 -69.9 30.4 204 204 204
39.6 -70.2 30.5 204 204 204
40.7 -70.7 30.8 204 204 204
44.7 -75.1 32.7 204 204 204
45.9 -75.8 33.0 200 200 200
46.6 -75.8 33.0 204 204 204
45.5 -71.6 31.1 204 204 204
45.3 -70.2 30.5 204 204 204
140.9 -199.6 86.8 205 205 205
152.8 -213.3 92.7 205 205 205
161.2 -222.0 96.5 203 203 203
154.8 -210.2 91.4 203 203 203
59.9 -75.1 32.7 205 205 205
57.9 -71.7 31.2 206 206 206
169.9 -124.7 54.2 112 114 113
39.9 -24.7 10.7 197 200 199
40.1 -24.5 10.6 180 183 182
39.7 -24.1 10.5 179 179 179
40.6 -24.5 10.7 216 216 216
24.6 -69.0 30.3 205 205 205
25.3 -69.0 30.3 207 207 207
34.4 -70.4 30.9 204 204 204
34.4 -68.9 30.3 204 204 204
38.8 -70.5 31.0 204 204 204
38.9 -69.5 30.5 204 204 204
39.6 -69.5 30.5 204 204 204
40.4 -69.6 30.6 204 204 204
42.3 -71.5 31.4 204 204 204
43.5 -72.4 31.8 204 204 204
46.1 -74.1 32.6 204 204 204
45.7 -72.4 31.8 204 204 204
45.5 -70.8 31.1 204 204 204
45.0 -69.0 30.3 204 204 204
44.8 -67.7 29.7 204 204 204
139.0 -194.9 85.6 202 202 202
149.8 -207.0 90.9 205 205 205
155.7 -212.1 93.2 206 206 206
154.0 -207.0 90.9 206 206 206
26.5 -34.2 15.0 207 207 207
57.8 -70.8 31.1 206 206 206
167.5 -121.7 53.4 112 114 113
38.8 -23.2 10.2 218 218 218
22.9 -69.5 30.9 205 205 205
23.3 -68.9 30.6 205 205 205
24.7 -68.6 30.5 205 205 205
25.4 -68.6 30.5 205 205 205
26.2 -68.9 30.6 205 205 205
27.2 -69.5 30.9 205 205 205
27.7 -69.1 30.7 205 205 205
28.5 -69.3 30.8 207 207 207
29.4 -69.6 30.9 207 207 207
31.5 -69.6 30.9 207 207 207
32.2 -69.6 30.9 205 205 205
32.8 -69.3 30.8 205 205 205
33.5 -69.3 30.8 204 204 204
34.3 -69.4 30.8 204 204 204
34.6 -68.6 30.5 204 204 204
35.5 -69.1 30.7 204 204 204
36.5 -69.6 30.9 204 204 204
37.5 -70.1 31.1 204 204 204
38.2 -70.1 31.1 204 204 204
38.5 -69.3 30.8 204 204 204
39.1 -69.1 30.7 204 204 204
39.8 -69.1 30.7 206 206 206
40.5 -69.1 30.7 206 206 206
42.0 -70.3 31.2 206 206 206
42.9 -70.7 31.4 206 206 206
43.7 -70.7 31.4 206 206 206
45.3 -72.1 32.0 206 206 206
45.2 -70.8 31.4 206 206 206
45.3 -69.9 31.0 204 204 204
45.2 -68.6 30.5 204 204 204
45.5 -68.0 30.2 204 204 204
49.9 -70.2 31.2 205 205 205
137.2 -190.3 84.4 205 205 205
156.4 -211.0 93.6 206 206 206
157.1 -208.9 92.7 206 206 206
26.8 -34.3 15.2 207 207 207
26.7 -33.7 15.0 207 207 207
22.7 -68.3 30.6 206 206 206
23.2 -67.7 30.4 206 206 206
23.9 -67.8 30.4 206 206 206
24.6 -67.6 30.3 206 206 206
25.3 -67.6 30.3 206 206 206
26.0 -67.7 30.4 206 206 206
26.9 -68.0 30.5 206 206 206
31.1 -67.9 30.5 206 206 206
31.9 -68.2 30.6 206 206 206
32.5 -68.0 30.5 206 206 206
33.2 -67.9 30.5 206 206 206
34.0 -68.2 30.6 206 206 206
34.4 -67.6 30.3 206 206 206
36.1 -68.0 30.5 206 206 206
37.4 -69.2 31.0 206 206 206
37.9 -68.8 30.9 206 206 206
38.1 -67.9 30.5 206 206 206
38.9 -67.9 30.5 206 206 206
39.6 -68.0 30.5 206 206 206
40.1 -67.7 30.4 206 206 206
41.9 -69.4 31.1 206 206 206
42.7 -69.6 31.2 206 206 206
43.3 -69.4 31.1 206 206 206
45.0 -69.7 31.3 206 206 206
45.1 -68.8 30.9 206 206 206
45.0 -67.6 30.3 206 206 206
45.2 -66.9 30.0 206 206 206
46.4 -67.6 30.3 206 206 206
48.6 -68.7 30.8 206 206 206
49.7 -69.3 31.1 204 204 204
164.6 -219.7 98.5 205 205 205
162.6 -214.1 96.0 206 206 206
28.5 -37.0 16.6 206 206 206
28.1 -36.1 16.2 206 206 206
27.0 -34.2 15.3 207 207 207
26.8 -33.5 15.0 207 207 207
-19.2 -23.0 10.4 115 115 115
38.2 -68.5 31.1 205 205 205
40.0 -68.0 30.8 205 205 205
47.3 -73.8 33.4 205 205 205
45.3 -68.4 31.0 205 205 205
45.2 -67.1 30.4 205 205 205
45.4 -66.5 30.1 205 205 205
43.0 -62.0 28.1 205 205 205
48.9 -68.4 31.0 206 206 206
50.0 -68.9 31.2 206 206 206
134.2 -182.3 82.6 206 206 206
160.2 -208.7 94.6 205 205 205
28.2 -36.3 16.4 205 205 205
28.2 -35.7 16.2 206 206 206
26.9 -33.2 15.0 206 206 206
-20.4 -22.3 10.2 105 105 105
-20.2 -22.3 10.2 105 105 105
-16.8 -22.2 10.2 118 120 119
-16.5 -22.7 10.4 117 119 118
-14.2 -22.2 10.2 129 129 129
-13.9 -22.1 10.1 129 129 129
-12.3 -22.1 10.1 137 139 138
7.9 -22.7 10.4 208 208 208
40.3 -67.7 31.0 205 205 205
47.6 -73.5 33.7 205 205 205
47.4 -72.0 33.0 205 205 205
45.5 -68.0 31.2 205 205 205
45.7 -67.3 30.8 202 202 202
45.6 -66.0 30.2 205 205 205
46.5 -66.3 30.4 205 205 205
49.2 -68.0 31.2 205 205 205
50.3 -68.6 31.4 205 205 205
109.3 -144.9 66.4 206 206 206
28.3 -35.5 16.3 205 205 205
27.5 -34.0 15.6 205 205 205
27.1 -33.1 15.2 206 206 206
-29.1 -22.4 10.3 46 46 44
-29.0 -22.4 10.4 46 46 44
-28.7 -22.4 10.4 46 46 44
-28.5 -22.4 10.4 42 43 42
-28.3 -22.4 10.4 42 43 42
-28.0 -22.4 10.4 46 46 44
-27.8 -22.4 10.4 46 46 44
-27.5 -22.4 10.4 46 46 44
-27.3 -22.4 10.4 46 45 43
-27.0 -22.4 10.4 46 45 43
-26.7 -22.4 10.4 46 45 43
-26.5 -22.4 10.4 46 45 43
-26.2 -22.4 10.3 46 45 43
-26.1 -22.4 10.4 46 45 43
-25.9 -22.4 10.4 46 45 43
-25.6 -22.5 10.4 42 43 42
-25.4 -22.4 10.4 42 43 42
-25.1 -22.4 10.4 42 43 42
-24.9 -22.4 10.4 40 40 40
-24.6 -22.4 10.4 40 40 40
-24.4 -22.4 10.4 37 38 37
-24.2 -22.5 10.4 37 38 37
-23.9 -22.5 10.4 37 38 37
-23.6 -22.4 10.4 40 40 40
-23.4 -22.4 10.4 40 40 40
-21.5 -22.4 10.4 78 78 78
-21.2 -22.4 10.4 85 87 87
-20.9 -22.3 10.3 90 90 90
-20.6 -22.3 10.3 95 95 95
-20.4 -22.3 10.3 95 98 97
-20.2 -22.4 10.3 101 101 101
-19.4 -22.5 10.4 108 110 110
-19.1 -22.4 10.4 107 109 109
-18.8 -22.4 10.4 107 109 109
-18.5 -22.3 10.3 107 109 109
-18.3 -22.3 10.3 109 111 111
-18.0 -22.3 10.3 109 111 111
-17.8 -22.3 10.3 112 112 112
-17.6 -22.4 10.4 112 112 112
-17.3 -22.3 10.3 115 114 114
-16.4 -22.4 10.4 117 117 117
-16.1 -22.3 10.3 118 120 119
-15.9 -22.3 10.3 118 120 119
-15.6 -22.3 10.3 118 120 119
-15.4 -22.4 10.4 119 121 120
-15.3 -22.5 10.4 123 123 123
-9.2 -22.5 10.4 138 140 139
-9.0 -22.6 10.4 139 138 137
-8.7 -22.4 10.4 139 139 139
-8.4 -22.3 10.3 139 139 139
-8.0 -22.5 10.4 138 140 139
-7.8 -22.5 10.4 136 138 137
-7.5 -22.5 10.4 136 138 137
-7.3 -22.4 10.4 137 137 137
-7.0 -22.4 10.4 139 139 139
-6.8 -22.4 10.4 141 143 142
-2.7 -22.5 10.4 165 165 165
-1.2 -22.5 10.4 171 173 173
6.3 -22.5 10.4 208 208 208
6.5 -22.4 10.4 208 208 208
6.7 -22.4 10.4 208 208 208
7.0 -22.4 10.4 208 208 208
7.2 -22.4 10.4 208 208 208
7.4 -22.4 10.3 208 208 208
7.9 -22.4 10.4 208 208 208
8.1 -22.4 10.3 208 208 208
8.4 -22.4 10.4 208 208 208
8.6 -22.3 10.3 208 208 208
9.4 -22.4 10.4 208 208 208
9.6 -22.4 10.4 208 208 208
9.9 -22.4 10.4 208 208 208
39.9 -66.3 30.7 207 207 207
47.9 -73.1 33.8 207 207 207
45.5 -67.2 31.1 207 207 207
45.3 -65.9 30.5 204 204 204
45.5 -65.2 30.2 207 207 207
46.3 -65.3 30.2 207 207 207
48.1 -66.9 31.0 204 204 204
48.8 -66.8 30.9 205 205 205
50.2 -67.8 31.4 205 205 205
52.1 -69.3 32.1 205 205 205
109.0 -142.9 66.1 205 205 205
27.9 -34.2 15.8 207 207 207
27.4 -33.1 15.3 205 205 205
-29.7 -22.6 10.6 46 46 44
-29.7 -22.8 10.7 46 46 44
-29.5 -22.7 10.6 46 46 44
-29.2 -22.8 10.7 46 46 44
-29.0 -22.7 10.6 46 46 44
-28.7 -22.8 10.7 46 46 44
-28.5 -22.7 10.6 46 46 44
-28.2 -22.7 10.6 48 48 48
-28.0 -22.7 10.6 46 46 44
-27.8 -22.8 10.7 43 43 43
-27.5 -22.8 10.7 46 46 44
-27.3 -22.8 10.7 46 46 44
-27.0 -22.7 10.6 46 46 44
-26.8 -22.7 10.6 46 46 44
-26.3 -22.7 10.6 43 43 43
-26.0 -22.7 10.6 41 41 41
-25.0 -23.0 10.8 41 41 41
-24.8 -23.0 10.8 38 38 38
-24.2 -22.7 10.6 38 38 38
-21.5 -22.7 10.6 59 59 59
-21.3 -23.0 10.8 87 89 88
-20.8 -22.7 10.6 90 90 90
-19.8 -22.8 10.7 102 102 102
-19.6 -22.7 10.6 108 108 108
-18.8 -22.7 10.6 107 107 107
-18.6 -22.7 10.6 108 110 110
-16.8 -22.7 10.6 115 114 114
-16.6 -22.7 10.6 115 114 114
-16.4 -22.7 10.6 116 116 116
-16.1 -22.8 10.7 118 118 118
-15.9 -22.8 10.7 119 121 120
-9.6 -22.6 10.6 134 134 134
-9.4 -22.8 10.7 137 139 138
-9.3 -22.9 10.7 136 138 137
-8.9 -22.6 10.6 140 140 140
-7.8 -23.0 10.8 139 139 139
-7.5 -22.9 10.7 139 139 139
-2.8 -22.7 10.6 171 173 173
6.7 -22.8 10.7 208 208 208
6.9 -22.7 10.6 208 208 208
7.1 -22.7 10.6 208 208 208
7.4 -22.7 10.6 208 208 208
7.7 -23.0 10.8 208 208 208
7.9 -22.7 10.6 207 207 207
8.6 -22.8 10.7 207 207 207
9.0 -23.0 10.8 207 207 207
9.3 -23.1 10.8 207 207 207
9.8 -23.1 10.8 207 207 207
9.9 -22.8 10.7 207 207 207
10.2 -22.9 10.7 207 207 207
47.8 -72.2 33.8 207 207 207
47.7 -70.9 33.2 207 207 207
45.7 -66.8 31.3 207 207 207
45.4 -65.3 30.6 207 207 207
45.5 -64.5 30.2 206 206 206
45.9 -64.1 30.0 209 209 209
45.0 -61.9 29.0 207 207 207
48.5 -65.7 30.8 204 204 204
50.3 -67.2 31.4 207 207 207
52.7 -69.3 32.4 204 204 204
28.4 -34.9 16.3 206 206 206
28.0 -33.9 15.9 206 206 206
27.3 -32.7 15.3 204 204 204
27.5 -32.4 15.2 204 204 204
-30.8 -23.1 10.9 47 46 45
-30.7 -23.2 11.0 47 46 45
-30.4 -23.2 11.0 47 46 45
-30.2 -23.2 11.0 47 46 45
-29.9 -23.2 11.0 47 46 45
-29.7 -23.2 11.0 47 46 45
-29.4 -23.2 11.0 47 46 45
-29.1 -23.2 11.0 49 49 49
-28.9 -23.3 11.0 49 49 49
-28.7 -23.3 11.0 47 46 45
-28.4 -23.2 11.0 49 49 49
-28.1 -23.2 11.0 47 46 45
-27.9 -23.2 11.0 47 46 45
-27.6 -23.2 11.0 47 46 45
-27.4 -23.2 11.0 43 43 43
-27.1 -23.2 11.0 43 43 43
-26.9 -23.3 11.0 43 43 43
-26.6 -23.2 11.0 43 43 43
-26.5 -23.4 11.1 42 42 42
-26.1 -23.3 11.0 43 43 43
-25.9 -23.2 11.0 42 42 42
-25.6 -23.2 11.0 42 42 42
-25.3 -23.2 11.0 39 39 39
-25.0 -23.2 11.0 42 42 42
-25.0 -23.4 11.1 42 42 42
-24.2 -23.4 11.1 39 39 39
-23.8 -23.2 11.0 39 39 39
-23.5 -23.2 11.0 42 42 42
-23.2 -23.2 11.0 42 42 42
-23.0 -23.2 11.0 43 43 43
-22.9 -23.3 11.0 43 43 43
-22.6 -23.4 11.0 43 43 43
-22.3 -23.2 11.0 47 46 45
-22.0 -23.2 11.0 50 50 50
-21.7 -23.2 11.0 47 46 45
-21.5 -23.2 11.0 72 71 69
-21.1 -23.3 11.0 95 95 95
-20.8 -23.3 11.0 93 93 93
-20.5 -23.3 11.0 97 100 99
-20.2 -23.2 11.0 99 101 101
-19.7 -23.2 11.0 103 103 103
-19.4 -23.2 11.0 103 103 103
-19.2 -23.2 11.0 105 105 105
-18.9 -23.2 11.0 104 104 104
-17.7 -23.2 11.0 109 111 111
-17.4 -23.2 11.0 108 110 110
-17.1 -23.2 11.0 108 110 110
-16.9 -23.2 11.0 111 113 112
-16.6 -23.2 11.0 110 112 111
-16.3 -23.2 11.0 115 114 114
-14.3 -23.6 11.2 120 122 121
-10.9 -23.5 11.1 124 127 126
-10.0 -23.1 10.9 131 133 132
-9.7 -23.2 11.0 134 134 134
-9.5 -23.2 11.0 135 135 135
-9.2 -23.2 11.0 134 137 136
-8.9 -23.2 11.0 138 138 138
-8.7 -23.2 11.0 140 142 141
-8.5 -23.3 11.0 144 144 144
-8.2 -23.2 11.0 144 144 144
-7.9 -23.2 11.0 144 144 144
-7.7 -23.2 11.0 144 144 144
-4.1 -23.4 11.1 175 177 177
-3.9 -23.4 11.1 174 176 176
-3.6 -23.3 11.0 177 177 177
-3.4 -23.3 11.0 177 177 177
-3.1 -23.4 11.1 183 183 183
-2.9 -23.4 11.1 182 182 182
-2.6 -23.4 11.1 179 179 179
-2.3 -23.4 11.1 179 179 179
-2.1 -23.4 11.1 179 179 179
-1.6 -23.3 11.0 179 179 179
-1.3 -23.4 11.1 179 179 179
-1.1 -23.4 11.1 182 182 182
6.6 -23.3 11.0 207 207 207
6.9 -23.4 11.1 207 207 207
7.2 -23.4 11.1 207 207 207
7.4 -23.2 11.0 207 207 207
7.6 -23.2 11.0 207 207 207
8.6 -23.2 11.0 207 207 207
8.9 -23.2 11.0 207 207 207
9.4 -23.2 11.0 207 207 207
9.7 -23.2 11.0 207 207 207
9.9 -23.2 11.0 207 207 207
10.2 -23.2 11.0 207 207 207
47.7 -71.3 33.7 206 206 206
47.6 -70.0 33.1 206 206 206
46.7 -67.5 32.0 206 206 206
46.0 -65.4 31.0 206 206 206
46.0 -64.5 30.5 206 206 206
46.3 -64.0 30.3 206 206 206
44.7 -60.8 28.7 206 206 206
49.4 -66.2 31.3 203 203 203
50.8 -67.1 31.7 207 207 207
52.6 -68.5 32.4 207 207 207
28.2 -34.3 16.2 205 205 205
28.2 -33.7 16.0 205 205 205
27.5 -32.5 15.4 206 206 206
27.4 -32.0 15.1 204 204 204
-26.6 -27.7 13.3 44 44 44
-26.0 -27.5 13.2 45 45 45
-21.1 -23.7 11.3 91 93 92
-23.7 -27.7 13.2 94 94 94
-23.1 -27.3 13.1 96 96 96
-17.8 -23.8 11.4 106 106 106
-17.5 -23.8 11.4 109 109 109
-17.2 -23.8 11.4 109 109 109
-17.0 -23.8 11.4 109 109 109
-15.0 -24.0 11.5 119 119 119
-14.5 -23.6 11.3 119 119 119
-9.9 -23.3 11.1 126 126 126
47.8 -70.6 33.8 206 206 206
48.3 -70.2 33.6 206 206 206
46.5 -66.6 31.8 205 205 205
43.4 -58.3 27.9 206 206 206
50.7 -66.2 31.7 206 206 206
-28.3 -28.9 14.0 42 42 42
-26.9 -27.8 13.4 42 42 42
-26.6 -27.8 13.4 42 42 42
-25.3 -28.8 13.9 83 83 83
-24.1 -27.8 13.5 91 93 92
-23.5 -27.4 13.3 91 94 93
-15.2 -24.1 11.7 114 116 115
-13.4 -27.7 13.4 109 111 111
-13.1 -27.7 13.4 108 110 110
10.7 -24.4 11.8 206 206 206
13.8 -24.5 11.9 205 205 205
43.4 -58.5 28.3 205 205 205
42.9 -57.0 27.6 205 205 205
42.3 -55.4 26.8 205 205 205
42.7 -55.2 26.7 205 205 205
43.2 -55.0 26.6 206 206 206
44.0 -55.2 26.7 206 206 206
27.1 -29.1 14.1 204 204 204
90.8 -49.9 24.1 110 110 110
91.0 -49.7 24.0 105 104 102
-29.6 -29.5 14.4 42 43 42
-28.5 -28.8 14.1 42 43 42
-28.2 -28.8 14.1 41 41 41
-28.5 -29.5 14.4 41 41 41
-27.6 -28.9 14.1 41 41 41
-26.8 -29.8 14.6 47 47 47
-25.7 -29.0 14.2 46 46 46
-25.2 -28.8 14.1 53 53 53
-14.5 -28.9 14.1 102 104 104
-14.1 -28.7 14.1 91 94 93
-13.8 -28.7 14.0 72 71 69
-13.4 -28.7 14.0 71 70 69
-10.3 -24.5 12.0 19 23 20
-4.8 -24.7 12.1 198 198 198
-4.5 -24.6 12.0 197 197 197
-4.2 -24.6 12.0 191 191 191
-4.0 -24.6 12.0 196 196 196
-3.7 -24.6 12.0 196 196 196
-2.8 -24.6 12.0 193 193 193
-2.6 -24.6 12.1 193 193 193
-2.3 -24.6 12.0 193 193 193
-1.7 -24.6 12.0 190 190 190
-1.4 -24.6 12.0 190 190 190
4.2 -24.7 12.1 180 180 180
4.7 -24.6 12.0 177 177 177
5.0 -24.4 12.0 177 177 177
5.6 -24.6 12.0 200 200 200
5.8 -24.6 12.0 206 206 206
6.1 -24.7 12.1 203 203 203
6.4 -24.6 12.0 206 206 206
6.6 -24.4 11.9 209 209 209
7.0 -24.6 12.0 209 209 209
7.2 -24.6 12.0 209 209 209
7.5 -24.6 12.0 209 209 209
8.1 -24.6 12.1 209 209 209
8.4 -24.6 12.0 209 209 209
8.9 -24.6 12.0 206 206 206
9.2 -24.5 12.0 205 205 205
9.5 -24.6 12.0 208 208 208
9.7 -24.6 12.0 208 208 208
10.1 -24.7 12.1 208 208 208
10.3 -24.6 12.0 208 208 208
10.6 -24.5 12.0 208 208 208
10.9 -24.6 12.0 208 208 208
11.2 -24.6 12.0 205 205 205
11.4 -24.6 12.0 205 205 205
11.7 -24.6 12.1 205 205 205
11.9 -24.5 12.0 205 205 205
12.3 -24.6 12.0 205 205 205
13.8 -24.9 12.2 205 205 205
14.0 -24.7 12.1 205 205 205
14.1 -24.5 12.0 208 208 208
43.2 -57.7 28.2 204 204 204
43.0 -56.5 27.7 205 205 205
42.9 -55.6 27.2 205 205 205
43.0 -54.9 26.9 205 205 205
43.6 -54.9 26.9 205 205 205
44.2 -54.8 26.8 205 205 205
45.0 -55.1 26.9 206 206 206
27.4 -29.4 14.4 205 205 205
27.6 -29.3 14.3 203 203 203
89.5 -48.6 23.8 114 116 115
89.5 -48.3 23.6 111 113 112
88.4 -47.4 23.2 105 105 105
-42.7 -30.7 15.2 54 54 54
-42.3 -30.6 15.2 54 54 54
-42.0 -30.7 15.2 54 54 54
-41.2 -30.6 15.1 56 56 56
-40.8 -30.6 15.1 54 54 54
-33.3 -30.8 15.2 47 47 47
-32.8 -30.7 15.2 46 46 46
-32.5 -30.6 15.2 46 46 46
-32.1 -30.6 15.1 46 46 46
-32.0 -30.9 15.3 47 48 47
-31.5 -30.7 15.2 47 48 47
-30.9 -30.5 15.1 46 46 46
-30.8 -30.7 15.2 43 43 43
-30.1 -30.4 15.1 43 43 43
-28.7 -30.8 15.2 40 40 40
-28.3 -30.7 15.2 42 43 42
-27.6 -30.4 15.0 42 43 42
-27.4 -30.5 15.1 48 48 48
-27.2 -30.7 15.2 40 40 40
-26.9 -30.7 15.2 45 45 45
-26.4 -30.5 15.1 59 59 59
-15.9 -30.7 15.2 26 26 26
-15.3 -30.2 15.0 26 26 26
-14.9 -30.1 14.9 29 31 29
-10.4 -24.4 12.1 27 29 27
3.9 -24.7 12.2 182 182 182
4.2 -24.6 12.2 179 179 179
4.7 -24.5 12.1 179 179 179
6.2 -24.7 12.2 205 205 205
6.4 -24.5 12.1 208 208 208
6.7 -24.4 12.1 208 208 208
7.0 -24.6 12.2 208 208 208
7.3 -24.6 12.2 208 208 208
8.2 -24.6 12.2 208 208 208
8.4 -24.6 12.2 208 208 208
8.8 -24.6 12.2 208 208 208
9.0 -24.5 12.1 208 208 208
9.3 -24.5 12.1 205 205 205
9.6 -24.6 12.2 205 205 205
9.9 -24.6 12.2 208 208 208
10.2 -24.6 12.2 208 208 208
10.4 -24.6 12.1 208 208 208
10.7 -24.5 12.1 208 208 208
11.0 -24.6 12.2 208 208 208
11.3 -24.6 12.2 205 205 205
11.6 -24.6 12.2 205 205 205
11.9 -24.6 12.2 205 205 205
12.1 -24.5 12.1 205 205 205
14.0 -24.9 12.3 207 207 207
14.1 -24.6 12.1 204 204 204
14.3 -24.4 12.1 207 207 207
43.3 -58.0 28.7 204 204 204
43.1 -56.9 28.1 204 204 204
43.1 -56.1 27.7 204 204 204
44.2 -56.6 28.0 204 204 204
43.4 -54.8 27.1 204 204 204
44.3 -55.2 27.3 205 205 205
44.5 -54.5 27.0 205 205 205
45.5 -55.0 27.2 205 205 205
65.1 -76.6 37.9 205 205 205
27.7 -29.4 14.6 204 204 204
145.0 -77.4 38.3 114 116 115
139.1 -73.8 36.5 110 110 110
-43.9 -31.2 15.6 59 60 58
-43.1 -31.1 15.6 54 54 54
-42.8 -31.1 15.6 54 54 54
-43.0 -31.5 15.8 57 57 57
-42.1 -31.2 15.6 59 60 58
-34.3 -31.3 15.7 46 46 46
-33.8 -31.2 15.6 43 43 43
-33.4 -31.1 15.6 47 47 47
-33.8 -31.9 16.0 48 48 48
-32.9 -31.4 15.7 48 48 48
-32.2 -31.1 15.6 47 47 47
-31.7 -31.3 15.6 44 44 44
-31.5 -31.5 15.8 44 44 44
-30.1 -31.9 16.0 41 41 41
-29.1 -31.3 15.6 41 41 41
-27.8 -30.6 15.3 43 43 43
-27.9 -31.1 15.6 42 42 42
-27.6 -31.2 15.6 42 42 42
-27.5 -31.5 15.8 44 44 44
-26.8 -31.1 15.6 46 46 46
-15.0 -23.0 11.5 32 33 31
-14.4 -22.4 11.2 17 17 17
-16.3 -31.1 15.6 27 27 27
-15.6 -30.4 15.2 26 26 26
-15.2 -30.3 15.2 26 26 26
-10.5 -24.3 12.2 30 29 28
14.1 -24.9 12.4 207 207 207
42.8 -57.6 28.8 206 206 206
43.5 -57.6 28.8 203 203 203
43.4 -56.6 28.3 203 203 203
43.5 -55.9 28.0 203 203 203
44.8 -56.7 28.4 204 204 204
44.7 -55.0 27.5 204 204 204
44.6 -54.1 27.1 204 204 204
45.5 -54.5 27.3 204 204 204
66.5 -78.4 39.2 205 205 205
65.5 -76.2 38.1 205 205 205
27.9 -29.6 14.8 206 206 206
27.9 -29.3 14.7 204 204 204
28.2 -29.2 14.6 204 204 204
143.5 -75.7 37.9 114 116 115
135.9 -71.3 35.7 110 110 110
-33.7 -23.6 12.0 55 55 55
-33.4 -23.7 12.0 55 55 55
-33.2 -23.7 12.0 55 55 55
-32.9 -23.7 12.0 57 57 57
-32.6 -23.7 12.0 57 57 57
-32.3 -23.7 12.0 55 55 55
-32.1 -23.7 12.0 55 55 55
-31.9 -23.7 12.0 58 58 58
-31.5 -23.7 12.0 58 58 58
-31.2 -23.6 12.0 58 58 58
-30.9 -23.7 12.0 58 58 58
-30.7 -23.7 12.0 59 61 59
-30.4 -23.7 12.0 58 58 58
-30.1 -23.6 12.0 56 56 56
-29.8 -23.7 12.0 56 56 56
-29.6 -23.7 12.0 53 53 53
-29.3 -23.6 12.0 52 52 50
-29.0 -23.7 12.0 52 52 50
-28.9 -23.8 12.0 48 48 48
-28.6 -23.8 12.0 48 48 48
-28.3 -23.8 12.0 48 48 48
-28.1 -23.8 12.1 48 48 48
-27.8 -23.8 12.0 48 48 48
-27.5 -23.8 12.0 48 48 48
-27.0 -23.7 12.0 48 48 48
-26.8 -23.7 12.0 48 48 48
-26.5 -23.7 12.0 48 48 48
-26.2 -23.7 12.0 49 49 49
-25.9 -23.7 12.0 47 48 47
-25.6 -23.6 12.0 49 49 49
-25.5 -23.7 12.0 47 48 47
-25.3 -23.8 12.1 47 48 47
-25.0 -23.8 12.1 47 48 47
-24.7 -23.8 12.0 47 48 47
-24.4 -23.8 12.0 45 45 45
-24.0 -23.7 12.0 45 45 45
-23.6 -23.8 12.1 46 46 46
-23.1 -23.6 12.0 44 44 44
-22.8 -23.6 12.0 44 44 44
-22.6 -23.6 12.0 42 42 42
-29.8 -31.6 16.0 42 42 42
-21.8 -23.7 12.0 42 42 42
-21.5 -23.6 12.0 41 41 39
-21.3 -23.7 12.0 41 41 39
-21.0 -23.8 12.0 41 41 39
-20.6 -23.6 11.9 39 39 39
-20.3 -23.8 12.1 43 43 43
-19.8 -23.7 12.0 40 40 40
-19.5 -23.6 12.0 43 43 43
-19.2 -23.6 12.0 47 48 47
-18.9 -23.6 12.0 97 97 97
-18.7 -23.7 12.0 73 73 73
-18.4 -23.7 12.0 67 69 67
-18.1 -23.6 12.0 64 64 64
-17.8 -23.6 12.0 22 25 23
-17.3 -23.6 12.0 20 20 20
-15.9 -23.6 11.9 21 24 22
-15.4 -23.3 11.8 21 21 21
-14.6 -23.8 12.0 21 24 22
-14.0 -23.8 12.1 22 25 23
-16.7 -31.4 15.9 27 27 27
-15.9 -30.7 15.5 27 27 27
-12.1 -23.8 12.1 29 29 29
-10.7 -23.8 12.1 31 30 29
-10.4 -23.8 12.1 33 33 33
-10.2 -23.9 12.1 34 34 34
-10.0 -24.1 12.2 38 38 38
-9.5 -23.7 12.0 155 155 155
-4.5 -23.7 12.0 210 210 210
-4.2 -23.7 12.0 207 207 207
-3.6 -23.6 12.0 205 205 205
1.4 -23.8 12.1 192 192 192
4.2 -23.8 12.0 181 181 181
4.7 -23.7 12.0 181 181 181
6.4 -23.7 12.0 207 207 207
7.2 -23.7 12.0 207 207 207
7.5 -23.6 12.0 207 207 207
7.8 -23.7 12.0 207 207 207
8.1 -23.8 12.0 207 207 207
8.3 -23.7 12.0 207 207 207
8.6 -23.7 12.0 207 207 207
8.9 -23.7 12.0 207 207 207
9.2 -23.7 12.0 207 207 207
9.5 -23.7 12.0 207 207 207
9.7 -23.7 12.0 207 207 207
10.0 -23.7 12.0 207 207 207
10.3 -23.7 12.0 207 207 207
10.5 -23.6 12.0 207 207 207
10.8 -23.7 12.0 207 207 207
11.1 -23.7 12.0 207 207 207
11.4 -23.7 12.0 207 207 207
11.7 -23.7 12.0 204 204 204
11.9 -23.6 12.0 204 204 204
12.2 -23.7 12.0 207 207 207
12.5 -23.7 12.0 204 204 204
12.8 -23.7 12.0 203 203 203
13.1 -23.7 12.0 206 206 206
13.9 -23.7 12.0 206 206 206
14.1 -23.6 11.9 206 206 206
14.5 -23.7 12.0 203 203 203
14.8 -23.7 12.0 206 206 206
15.0 -23.6 12.0 206 206 206
42.9 -57.1 28.9 206 206 206
43.6 -57.1 28.9 206 206 206
43.9 -56.6 28.7 203 203 203
43.9 -55.7 28.2 203 203 203
45.2 -56.6 28.7 206 206 206
46.0 -56.8 28.7 203 203 203
45.8 -55.7 28.2 203 203 203
46.0 -55.1 27.9 204 204 204
46.6 -55.1 27.9 204 204 204
48.4 -56.4 28.6 204 204 204
28.6 -29.3 14.8 203 203 203
29.1 -29.5 14.9 204 204 204
29.8 -29.9 15.1 204 204 204
30.0 -29.7 15.0 204 204 204
137.2 -71.1 36.0 109 109 109
-34.2 -23.7 12.2 58 58 58
-34.1 -23.8 12.2 60 62 60
-33.8 -23.8 12.2 60 62 60
-33.5 -23.8 12.2 58 58 58
-33.2 -23.8 12.2 56 56 56
-32.9 -23.8 12.2 58 58 58
-32.6 -23.8 12.2 58 58 58
-32.4 -23.8 12.2 58 58 58
-32.1 -23.8 12.2 58 59 59
-31.8 -23.8 12.2 58 59 59
-31.5 -23.8 12.2 58 59 59
-31.2 -23.8 12.2 60 62 60
-30.9 -23.8 12.2 58 59 59
-30.6 -23.8 12.2 57 57 57
-30.3 -23.8 12.2 57 57 57
-30.1 -23.8 12.2 52 52 50
-29.8 -23.8 12.2 53 52 51
-29.5 -23.8 12.2 53 52 51
-29.2 -23.8 12.2 49 49 49
-29.0 -23.8 12.2 49 49 49
-28.7 -23.8 12.2 49 49 49
-28.4 -23.8 12.2 49 49 49
-28.1 -23.8 12.2 49 49 49
-27.8 -23.8 12.2 53 52 51
-27.6 -23.8 12.2 53 52 51
-27.3 -23.8 12.2 49 49 49
-27.0 -23.8 12.2 50 50 50
-26.7 -23.8 12.2 50 50 50
-26.4 -23.8 12.2 50 50 50
-26.1 -23.8 12.2 50 50 50
-25.8 -23.8 12.2 48 48 48
-25.6 -23.8 12.2 46 46 46
-25.3 -23.8 12.2 46 46 46
-25.0 -23.8 12.2 48 48 48
-24.7 -23.8 12.2 46 46 46
-24.4 -23.8 12.2 47 47 47
-24.3 -23.9 12.3 47 47 47
-23.9 -23.8 12.2 47 47 47
-23.5 -23.8 12.2 47 47 47
-23.3 -23.8 12.2 47 47 47
-22.9 -23.7 12.2 45 45 45
-22.7 -23.8 12.2 42 43 42
-22.4 -23.8 12.2 42 43 42
-22.1 -23.8 12.2 42 42 40
-21.9 -23.8 12.2 42 42 40
-21.7 -23.9 12.2 42 42 40
-21.3 -23.8 12.2 40 40 40
-21.0 -23.7 12.2 38 40 40
-20.8 -23.9 12.2 38 40 40
-20.5 -23.9 12.2 39 41 41
-20.2 -23.8 12.2 41 41 41
-19.8 -23.8 12.2 41 41 41
-19.6 -23.8 12.2 39 41 41
-19.3 -23.8 12.2 35 35 35
-19.0 -23.8 12.2 20 20 20
-18.7 -23.8 12.2 20 20 20
-18.3 -23.6 12.1 20 20 20
-17.6 -23.7 12.2 21 21 21
-17.3 -23.8 12.2 21 21 21
-17.1 -23.9 12.3 21 21 21
-16.8 -23.8 12.2 21 21 21
-16.5 -23.8 12.2 19 19 19
-16.0 -23.5 12.1 21 21 21
-15.1 -23.8 12.2 22 25 23
-14.8 -23.8 12.2 22 25 23
-14.6 -23.9 12.3 22 25 23
-14.2 -23.8 12.2 22 25 23
-14.0 -23.8 12.2 29 29 29
-13.7 -24.0 12.3 28 28 28
-12.2 -23.8 12.2 29 29 29
-12.9 -25.8 13.2 30 31 30
-11.1 -23.8 12.2 29 31 29
-10.8 -23.8 12.2 32 31 30
-10.5 -23.8 12.2 32 32 32
-10.2 -23.8 12.2 33 33 33
-10.0 -23.9 12.2 43 43 43
-9.7 -23.8 12.2 157 157 157
-9.4 -23.9 12.2 184 184 184
-9.1 -23.8 12.2 184 187 186
-8.8 -23.8 12.2 189 189 189
-4.9 -23.8 12.2 213 215 215
-4.6 -23.8 12.2 212 214 214
-4.3 -23.8 12.2 209 212 211
-4.0 -23.8 12.2 209 212 211
-3.7 -23.8 12.2 209 212 211
-3.2 -23.9 12.2 206 206 206
-2.9 -23.8 12.2 206 206 206
-2.6 -23.8 12.2 206 206 206
-2.3 -23.8 12.2 202 202 202
-2.0 -23.8 12.2 202 202 202
-1.7 -23.8 12.2 202 202 202
-1.5 -23.8 12.2 202 202 202
-1.2 -23.8 12.2 199 199 199
-0.9 -23.9 12.3 199 199 199
1.1 -23.8 12.2 197 197 197
1.4 -23.8 12.2 197 197 197
1.7 -23.8 12.2 194 194 194
2.0 -23.8 12.2 194 194 194
2.2 -23.8 12.2 191 191 191
2.5 -23.8 12.2 191 191 191
2.8 -24.0 12.3 192 192 192
3.7 -24.0 12.3 185 185 185
3.9 -23.9 12.2 182 182 182
4.2 -23.8 12.2 182 182 182
4.5 -23.8 12.2 183 183 183
4.8 -23.7 12.2 180 180 180
5.1 -23.9 12.2 180 180 180
5.4 -23.8 12.2 180 180 180
5.6 -23.8 12.2 200 200 200
5.9 -23.8 12.2 204 204 204
6.2 -23.9 12.2 208 208 208
6.5 -23.7 12.2 207 207 207
7.1 -23.8 12.2 207 207 207
7.3 -23.8 12.2 207 207 207
7.6 -23.8 12.2 207 207 207
7.9 -23.8 12.2 207 207 207
8.2 -23.8 12.2 207 207 207
8.5 -23.8 12.2 207 207 207
8.8 -23.8 12.2 207 207 207
9.0 -23.8 12.2 207 207 207
9.3 -23.8 12.2 206 206 206
9.6 -23.8 12.2 206 206 206
9.9 -23.8 12.2 206 206 206
10.2 -23.8 12.2 206 206 206
10.4 -23.8 12.2 206 206 206
10.7 -23.8 12.2 206 206 206
11.0 -23.8 12.2 206 206 206
11.3 -23.8 12.2 206 206 206
11.6 -23.8 12.2 206 206 206
11.9 -23.8 12.2 206 206 206
12.1 -23.8 12.2 206 206 206
12.4 -23.8 12.2 206 206 206
12.7 -23.8 12.2 206 206 206
13.0 -23.8 12.2 206 206 206
13.3 -23.8 12.2 206 206 206
13.6 -23.9 12.2 206 206 206
14.0 -24.0 12.3 206 206 206
14.1 -23.8 12.2 206 206 206
14.4 -23.7 12.1 206 206 206
14.7 -23.8 12.2 206 206 206
15.0 -23.8 12.2 206 206 206
15.3 -23.8 12.2 206 206 206
15.6 -23.8 12.2 206 206 206
15.9 -23.9 12.2 206 206 206
43.1 -56.7 29.1 205 205 205
43.7 -56.5 29.0 205 205 205
44.0 -56.0 28.7 205 205 205
44.0 -55.2 28.3 205 205 205
45.0 -55.7 28.5 205 205 205
46.2 -56.3 28.8 203 203 203
46.1 -55.3 28.4 203 203 203
46.2 -54.7 28.0 206 206 206
46.7 -54.5 27.9 206 206 206
48.0 -55.3 28.4 203 203 203
49.0 -55.7 28.5 206 206 206
28.8 -29.2 14.9 203 203 203
29.2 -29.2 15.0 203 203 203
30.0 -29.7 15.2 206 206 206
30.2 -29.6 15.1 203 203 203
-34.7 -23.7 12.3 58 59 59
-35.1 -24.2 12.6 60 62 60
-34.8 -24.2 12.6 60 62 60
-34.6 -24.3 12.6 58 59 59
-34.2 -24.2 12.6 58 59 59
-33.9 -24.2 12.6 61 63 61
-33.3 -24.2 12.6 61 63 61
-32.8 -24.0 12.5 58 59 59
-32.5 -24.1 12.5 59 59 59
-32.5 -24.2 12.6 59 59 59
-32.2 -24.2 12.6 59 59 59
-31.6 -24.0 12.5 59 59 59
-31.6 -24.2 12.6 54 54 54
-31.3 -24.2 12.6 55 55 55
-30.7 -24.0 12.5 55 55 55
-29.9 -24.2 12.6 50 50 50
-29.6 -24.2 12.6 50 50 50
-29.3 -24.2 12.6 50 50 50
-29.1 -24.3 12.6 54 53 52
-28.5 -24.1 12.5 54 53 52
-28.4 -24.2 12.6 54 53 52
-28.1 -24.3 12.6 51 51 51
-27.6 -24.0 12.5 51 51 51
-27.5 -24.2 12.6 51 51 51
-26.9 -24.0 12.4 51 51 51
-26.6 -23.9 12.4 51 51 51
-26.3 -24.0 12.4 51 51 51
-26.3 -24.2 12.6 51 51 51
-26.1 -24.3 12.6 49 49 49
-25.7 -24.2 12.6 50 50 50
-25.2 -24.0 12.4 50 50 50
-25.1 -24.4 12.7 47 48 47
-23.7 -24.0 12.4 46 46 46
-22.8 -24.2 12.6 43 42 41
-22.5 -24.2 12.6 43 42 41
-22.3 -24.3 12.6 43 42 41
-21.7 -24.0 12.5 44 43 42
-21.5 -24.4 12.7 39 41 41
-21.0 -24.1 12.5 40 42 42
-20.5 -24.0 12.4 40 42 42
-20.3 -24.0 12.4 40 40 40
-20.0 -24.0 12.5 38 38 38
-20.0 -24.3 12.6 28 28 28
-19.5 -24.0 12.5 20 20 20
-19.1 -23.9 12.4 17 17 17
-17.6 -24.3 12.6 19 19 19
-17.1 -23.9 12.4 20 20 20
-16.8 -23.9 12.4 21 21 21
-16.2 -23.5 12.2 22 25 23
-14.4 -21.7 11.3 22 25 23
-14.5 -24.0 12.4 29 29 29
-13.8 -23.8 12.3 29 29 29
-13.5 -23.7 12.3 29 29 29
-12.2 -24.5 12.7 30 31 30
-11.5 -23.9 12.4 29 31 29
-11.3 -23.9 12.4 29 31 29
-10.9 -23.8 12.3 29 31 29
-10.6 -23.6 12.3 32 31 30
-10.3 -23.7 12.3 36 38 37
-10.3 -24.3 12.6 41 41 41
-10.1 -24.5 12.7 168 170 169
-9.7 -24.3 12.6 186 188 187
-9.3 -24.1 12.5 184 187 186
6.3 -23.8 12.3 206 206 206
8.9 -23.8 12.3 206 206 206
9.4 -23.7 12.3 206 206 206
9.7 -23.7 12.3 206 206 206
10.0 -23.8 12.4 206 206 206
10.3 -23.8 12.3 206 206 206
10.8 -23.7 12.3 206 206 206
14.1 -24.0 12.4 205 205 205
14.3 -23.7 12.3 205 205 205
14.5 -23.6 12.3 205 205 205
43.8 -54.3 28.1 205 205 205
44.5 -54.4 28.2 205 205 205
46.0 -54.6 28.3 205 205 205
46.0 -53.9 27.9 205 205 205
46.0 -53.1 27.5 206 206 206
47.5 -54.0 28.0 203 203 203
48.5 -54.4 28.2 203 203 203
49.0 -54.3 28.1 203 203 203
30.8 -30.1 15.6 205 205 205
91.0 -46.6 24.2 119 119 119
89.5 -45.6 23.6 113 115 114
87.8 -44.4 23.0 111 113 112
87.1 -43.8 22.7 109 109 109
-35.8 -24.2 12.7 58 59 59
-33.8 -24.3 12.8 65 65 65
-29.3 -24.2 12.7 51 51 51
-29.0 -24.2 12.7 55 54 53
-25.3 -24.3 12.8 51 51 51
-22.7 -24.5 12.9 45 44 43
-14.4 -21.4 11.3 23 26 24
-12.8 -25.0 13.1 31 32 30
-12.3 -24.5 12.9 29 29 29
-10.8 -22.0 11.6 30 31 30
-10.7 -24.3 12.8 36 36 36
-10.5 -24.4 12.8 42 43 42
-10.2 -24.5 12.9 183 183 183
-9.8 -24.3 12.8 184 187 186
44.0 -53.9 28.3 204 204 204
44.7 -53.9 28.3 204 204 204
43.1 -51.3 26.9 205 205 205
46.4 -53.7 28.2 205 205 205
46.0 -52.4 27.5 205 205 205
46.8 -52.7 27.7 205 205 205
48.6 -53.9 28.3 205 205 205
48.8 -53.4 28.0 205 205 205
31.0 -29.9 15.7 204 204 204
31.4 -29.9 15.7 205 205 205
553.9 -313.3 164.5 178 181 180
90.8 -46.0 24.1 122 122 122
89.9 -45.2 23.7 113 115 114
86.3 -43.1 22.7 113 115 114
85.8 -42.6 22.4 110 112 111
-36.6 -24.5 13.0 62 64 61
-36.4 -24.5 13.0 62 64 61
-36.0 -24.5 13.0 62 64 61
-35.7 -24.5 13.0 62 64 61
-35.5 -24.5 13.0 62 64 61
-35.2 -24.5 13.0 66 66 66
-34.9 -24.5 13.0 66 66 66
-34.5 -24.5 13.0 62 64 61
-34.2 -24.5 13.0 63 64 62
-34.0 -24.5 13.0 63 64 62
-33.7 -24.5 13.0 60 60 60
-33.3 -24.5 13.0 60 60 60
-33.1 -24.5 13.0 61 61 61
-31.0 -24.6 13.1 57 57 57
-30.6 -24.5 13.0 56 55 54
-30.3 -24.5 13.0 56 55 54
-30.0 -24.5 13.0 56 55 54
-29.7 -24.5 13.0 56 55 54
-28.8 -24.5 13.0 53 52 52
-26.3 -24.7 13.1 52 52 52
-25.7 -24.4 13.0 53 52 52
-23.5 -24.6 13.1 42 42 42
-23.0 -24.4 13.0 42 43 42
-22.7 -24.5 13.0 42 43 42
-22.1 -24.5 13.0 43 43 43
-20.7 -24.6 13.1 26 26 26
-14.9 -21.4 11.4 24 27 25
-14.4 -21.2 11.3 24 27 25
-15.9 -24.7 13.1 28 28 28
-13.3 -24.9 13.2 32 33 31
-12.9 -24.8 13.2 26 26 26
-12.4 -24.4 13.0 44 44 44
-10.9 -24.4 13.0 36 39 38
-10.6 -24.4 12.9 50 50 50
-10.3 -24.4 12.9 186 188 187
-10.0 -24.4 13.0 183 186 185
-9.7 -24.4 13.0 188 188 188
44.4 -53.8 28.6 204 204 204
45.1 -53.8 28.6 204 204 204
43.0 -50.5 26.8 204 204 204
47.4 -54.1 28.7 204 204 204
46.7 -52.6 28.0 204 204 204
47.6 -52.9 28.1 205 205 205
48.7 -53.4 28.4 205 205 205
48.8 -52.8 28.1 205 205 205
30.2 -28.5 15.1 204 204 204
86.0 -42.5 22.6 113 115 114
85.2 -41.8 22.2 110 112 111
-36.9 -24.4 13.1 62 64 61
-36.7 -24.4 13.1 63 64 62
-36.4 -24.4 13.2 67 67 67
-36.1 -24.4 13.1 67 67 67
-35.8 -24.4 13.1 67 67 67
-35.5 -24.4 13.1 67 67 67
-35.2 -24.4 13.1 67 67 67
-34.8 -24.4 13.1 67 67 67
-34.5 -24.4 13.1 63 64 62
-34.3 -24.4 13.1 64 65 63
-33.9 -24.4 13.1 64 65 63
-33.6 -24.4 13.1 64 65 63
-33.3 -24.4 13.1 61 61 61
-33.0 -24.4 13.1 62 62 62
-32.7 -24.4 13.1 59 59 59
-32.4 -24.4 13.1 59 59 59
-32.1 -24.4 13.1 60 60 60
-31.8 -24.4 13.1 58 58 58
-31.5 -24.4 13.1 58 58 58
-31.2 -24.5 13.2 58 58 58
-30.9 -24.4 13.1 58 58 58
-30.5 -24.4 13.1 58 58 58
-30.2 -24.4 13.1 58 58 58
-30.0 -24.4 13.1 57 56 55
-29.7 -24.4 13.1 57 56 55
-29.3 -24.4 13.1 57 57 55
-29.0 -24.4 13.1 57 57 55
-28.7 -24.4 13.1 58 59 59
-28.4 -24.4 13.1 57 57 55
-28.2 -24.5 13.2 53 53 53
-27.9 -24.5 13.2 53 53 53
-27.5 -24.4 13.1 54 54 54
-27.2 -24.4 13.1 54 54 54
-26.9 -24.4 13.1 53 52 52
-26.8 -24.6 13.3 50 50 50
-26.4 -24.5 13.2 53 53 53
-26.0 -24.4 13.1 50 50 50
-25.7 -24.4 13.1 51 51 51
-25.4 -24.4 13.2 49 49 49
-25.0 -24.6 13.2 49 49 49
-24.5 -24.4 13.1 47 47 47
-24.2 -24.4 13.1 47 47 47
-23.9 -24.5 13.2 47 47 47
-23.7 -24.5 13.2 46 46 44
-23.1 -24.3 13.1 46 46 44
-22.9 -24.3 13.1 43 43 43
-22.7 -24.5 13.2 46 46 44
-22.3 -24.4 13.1 43 45 44
-22.0 -24.4 13.1 43 45 44
-21.7 -24.4 13.1 43 45 44
-21.4 -24.4 13.1 40 40 40
-21.2 -24.5 13.2 36 35 34
-20.8 -24.4 13.1 27 27 27
-20.4 -24.3 13.1 20 20 20
-15.0 -21.4 11.5 29 29 29
-14.4 -20.8 11.2 23 26 24
-16.6 -24.5 13.2 23 23 23
-16.4 -24.7 13.3 21 21 21
-16.0 -24.5 13.2 23 23 23
-15.6 -24.4 13.1 35 36 34
-15.3 -24.4 13.1 79 81 79
-15.0 -24.4 13.1 85 85 85
-13.8 -24.4 13.2 110 110 110
-13.5 -24.5 13.2 104 106 106
-13.3 -24.7 13.3 67 69 67
-13.0 -24.6 13.2 91 91 91
-12.5 -24.2 13.0 62 62 62
-11.4 -24.5 13.2 90 90 90
-11.0 -24.3 13.1 20 23 21
-10.6 -24.1 13.0 44 44 44
-10.3 -24.1 13.0 184 184 184
-10.0 -24.2 13.0 183 186 185
-9.8 -24.3 13.1 181 184 183
43.8 -52.3 28.1 203 203 203
44.6 -52.5 28.3 203 203 203
42.2 -49.0 26.3 203 203 203
47.1 -52.4 28.2 204 204 204
47.4 -52.0 28.0 204 204 204
48.4 -52.4 28.2 204 204 204
48.6 -51.8 27.9 204 204 204
48.3 -50.9 27.4 204 204 204
29.8 -27.8 15.0 200 200 200
30.2 -27.8 15.0 204 204 204
-37.3 -24.3 13.3 63 64 62
-37.1 -24.4 13.3 67 67 67
-36.8 -24.4 13.3 67 67 67
-36.5 -24.4 13.3 67 67 67
-36.1 -24.4 13.3 67 67 67
-35.8 -24.4 13.3 67 67 67
-35.5 -24.4 13.3 67 67 67
-35.2 -24.4 13.3 67 67 67
-34.9 -24.3 13.3 67 67 67
-34.6 -24.4 13.3 67 67 67
-34.3 -24.4 13.3 64 65 63
-34.0 -24.3 13.3 65 66 64
-33.7 -24.4 13.3 65 66 64
-33.4 -24.4 13.3 65 66 64
-33.0 -24.3 13.3 63 63 63
-32.7 -24.3 13.3 63 63 63
-32.5 -24.4 13.3 60 60 60
-32.1 -24.3 13.3 58 59 59
-31.8 -24.4 13.3 58 59 59
-31.5 -24.4 13.3 58 59 59
-31.1 -24.3 13.2 58 59 59
-30.8 -24.3 13.2 57 57 55
-30.6 -24.3 13.3 58 59 59
-30.3 -24.4 13.3 57 57 55
-30.0 -24.4 13.3 57 57 55
-29.6 -24.3 13.3 58 58 56
-29.4 -24.4 13.3 58 58 56
-29.0 -24.3 13.3 58 58 56
-28.7 -24.3 13.3 58 58 56
-28.4 -24.4 13.3 54 54 54
-28.1 -24.4 13.3 55 55 55
-27.8 -24.4 13.3 59 59 57
-27.5 -24.3 13.3 55 55 55
-27.2 -24.4 13.3 55 55 55
-27.0 -24.5 13.3 54 54 54
-26.6 -24.4 13.3 54 54 54
-26.2 -24.3 13.3 54 54 54
-26.0 -24.4 13.3 52 52 52
-25.6 -24.4 13.3 50 50 50
-25.4 -24.4 13.3 50 50 50
-25.1 -24.4 13.3 50 50 50
-24.7 -24.4 13.3 50 50 50
-24.4 -24.4 13.3 47 48 47
-24.2 -24.4 13.3 48 48 48
-23.8 -24.4 13.3 44 44 44
-23.4 -24.2 13.2 44 44 44
-23.1 -24.3 13.2 44 44 44
-22.9 -24.3 13.3 44 44 44
-22.5 -24.3 13.3 43 45 45
-22.2 -24.3 13.3 43 45 45
-21.9 -24.4 13.3 43 45 45
-21.6 -24.3 13.3 43 43 43
-21.3 -24.4 13.3 36 36 34
-21.0 -24.3 13.2 23 26 24
-20.6 -24.3 13.2 18 18 18
-15.0 -21.1 11.5 34 34 34
-14.3 -20.5 11.2 30 29 29
-16.7 -24.4 13.3 23 26 24
-16.5 -24.5 13.3 25 28 25
-16.1 -24.3 13.3 31 31 31
-15.8 -24.4 13.3 31 31 31
-15.4 -24.3 13.2 112 112 112
-15.1 -24.3 13.2 24 27 25
-14.0 -24.4 13.3 33 34 32
-13.6 -24.4 13.3 85 84 82
-13.4 -24.4 13.3 86 86 86
-13.0 -24.3 13.3 29 29 29
-12.6 -24.1 13.2 30 30 30
-11.8 -24.4 13.3 45 45 45
-11.5 -24.4 13.3 75 76 76
-11.1 -24.3 13.2 21 24 22
-10.7 -24.1 13.1 47 47 47
-10.4 -24.0 13.1 183 186 185
-10.1 -24.2 13.2 182 185 184
-9.9 -24.3 13.3 181 184 183
-9.3 -24.5 13.3 232 232 232
44.5 -54.2 29.5 205 205 205
44.1 -52.8 28.8 205 205 205
43.7 -51.6 28.1 203 203 203
44.5 -51.7 28.2 203 203 203
42.0 -48.1 26.2 203 203 203
48.2 -52.9 28.8 206 206 206
47.5 -51.4 28.0 203 203 203
48.4 -51.7 28.2 204 204 204
48.3 -51.0 27.8 204 204 204
48.4 -50.4 27.5 204 204 204
29.9 -27.5 15.0 203 203 203
30.1 -27.4 14.9 203 203 203
-37.6 -24.2 13.3 64 65 63
-37.4 -24.3 13.4 67 67 67
-37.1 -24.3 13.4 67 67 67
-36.8 -24.3 13.4 64 65 63
-36.5 -24.3 13.4 67 67 67
-36.1 -24.2 13.4 65 66 64
-35.8 -24.2 13.4 68 68 68
-35.5 -24.3 13.4 68 68 68
-35.2 -24.3 13.4 68 68 68
-34.9 -24.3 13.4 68 68 68
-34.6 -24.3 13.4 65 66 64
-34.2 -24.2 13.4 66 67 65
-34.0 -24.3 13.4 66 67 65
-33.7 -24.3 13.4 61 61 61
-33.3 -24.2 13.4 61 61 61
-33.0 -24.2 13.4 64 64 64
-32.7 -24.3 13.4 64 64 64
-32.4 -24.3 13.4 59 59 59
-32.2 -24.3 13.4 59 59 59
-31.8 -24.3 13.4 59 59 59
-31.3 -24.2 13.3 59 59 59
-31.1 -24.2 13.4 54 54 54
-30.8 -24.3 13.4 58 58 56
-30.5 -24.3 13.4 58 58 56
-30.2 -24.2 13.4 58 58 56
-29.9 -24.2 13.4 55 55 55
-27.2 -24.4 13.4 55 55 55
-26.8 -24.3 13.4 52 52 52
-26.5 -24.2 13.4 55 55 55
-26.2 -24.3 13.4 55 55 55
-25.9 -24.3 13.4 53 52 52
-25.6 -24.3 13.4 53 52 52
-25.3 -24.3 13.4 51 51 51
-24.0 -24.3 13.4 48 47 46
-23.5 -24.1 13.3 43 45 45
-23.3 -24.2 13.3 45 45 45
-23.0 -24.2 13.3 49 48 47
-21.1 -24.2 13.3 28 28 28
-16.6 -24.3 13.4 24 27 25
-16.1 -24.1 13.3 32 32 32
-13.8 -24.3 13.4 90 90 90
-13.4 -24.3 13.4 95 95 95
-13.0 -24.1 13.3 23 26 24
-11.8 -24.2 13.3 88 88 88
-11.5 -24.1 13.3 67 67 67
-10.5 -23.9 13.2 183 186 185
-10.2 -24.1 13.3 181 184 183
-10.0 -24.2 13.4 181 184 183
-9.4 -24.3 13.4 232 232 232
43.8 -51.0 28.1 205 205 205
41.9 -47.4 26.2 205 205 205
48.0 -51.3 28.3 206 206 206
48.7 -51.4 28.4 206 206 206
48.8 -50.8 28.0 203 203 203
48.1 -49.5 27.3 203 203 203
29.9 -27.2 15.0 205 205 205
30.0 -26.9 14.9 202 202 202
33.5 -29.7 16.4 205 205 205
-38.1 -24.2 13.5 65 66 64
-38.1 -24.4 13.6 68 68 68
-37.7 -24.4 13.6 68 68 68
-37.4 -24.4 13.6 68 68 68
-37.1 -24.4 13.6 68 68 68
-36.8 -24.4 13.6 68 68 68
-36.4 -24.4 13.6 69 69 69
-36.1 -24.4 13.6 69 69 69
-35.8 -24.4 13.6 69 69 69
-35.6 -24.4 13.6 69 69 69
-35.2 -24.4 13.6 69 69 69
-34.3 -24.4 13.6 67 68 66
-32.7 -24.4 13.7 63 63 63
-32.4 -24.4 13.6 60 60 60
-32.1 -24.4 13.6 60 60 60
-31.7 -24.4 13.6 59 59 57
-31.4 -24.3 13.6 60 60 60
-27.8 -24.5 13.7 58 58 58
-27.2 -24.3 13.6 56 56 56
-26.9 -24.4 13.6 58 58 58
-26.7 -24.4 13.7 58 59 59
-24.4 -24.3 13.6 49 48 47
-16.8 -24.3 13.6 33 33 33
-13.1 -23.9 13.3 33 34 32
-11.6 -23.9 13.4 43 42 41
-10.6 -23.9 13.4 182 185 184
-10.4 -24.0 13.4 181 184 183
-10.1 -24.2 13.6 179 182 181
-9.9 -24.4 13.6 185 185 185
-9.5 -24.2 13.6 229 228 226
43.6 -50.2 28.1 204 204 204
41.5 -46.4 25.9 205 205 205
48.8 -50.8 28.4 205 205 205
47.8 -49.2 27.5 205 205 205
33.6 -29.4 16.4 202 202 202
-27.2 -24.2 13.7 59 59 59
-26.9 -24.2 13.7 59 59 59
-10.4 -23.9 13.6 180 183 182
-10.2 -24.2 13.7 184 184 184
-9.6 -24.3 13.7 224 226 226
8.2 -17.8 10.1 205 205 205
43.4 -49.3 27.9 204 204 204
41.5 -45.7 25.9 204 204 204
48.9 -49.6 28.1 205 205 205
48.5 -48.5 27.5 205 205 205
35.9 -33.3 18.8 203 203 203
36.0 -33.0 18.7 203 203 203
-10.8 -20.2 11.6 38 38 38
-10.4 -19.8 11.4 35 34 33
-10.6 -23.9 13.7 179 182 181
-10.4 -24.3 13.9 183 183 183
-2.2 -17.7 10.2 216 216 216
3.0 -17.6 10.1 158 161 160
3.2 -17.5 10.1 186 186 186
8.0 -17.6 10.1 204 204 204
8.2 -17.7 10.1 204 204 204
8.4 -17.6 10.1 204 204 204
10.5 -17.5 10.0 204 204 204
10.7 -17.5 10.0 204 204 204
10.9 -17.5 10.0 204 204 204
12.7 -17.7 10.2 204 204 204
12.9 -17.6 10.1 204 204 204
13.0 -17.4 10.0 204 204 204
42.1 -45.8 26.3 204 204 204
73.8 -77.0 44.2 204 204 204
49.0 -49.0 28.1 204 204 204
36.2 -33.2 19.0 205 205 205
36.2 -32.7 18.8 205 205 205
-41.1 -25.1 14.6 70 70 70
-40.9 -25.2 14.6 70 70 70
-40.4 -25.1 14.6 70 70 70
-40.1 -25.1 14.6 70 70 70
-39.7 -25.1 14.6 70 70 70
-39.5 -25.1 14.6 73 74 72
-10.3 -19.5 11.4 74 74 74
-10.5 -24.2 14.1 179 182 181
-10.6 -25.2 14.7 177 180 179
-10.2 -25.1 14.6 206 206 206
-2.2 -17.5 10.2 210 210 210
2.8 -17.6 10.3 183 183 183
3.0 -17.5 10.2 137 139 138
3.2 -17.3 10.1 181 181 181
8.2 -17.5 10.2 204 204 204
8.5 -17.5 10.2 204 204 204
8.6 -17.2 10.0 204 204 204
8.8 -17.2 10.0 207 207 207
9.1 -17.2 10.0 207 207 207
9.5 -17.2 10.0 204 204 204
9.8 -17.2 10.0 204 204 204
10.0 -17.2 10.0 204 204 204
10.5 -17.2 10.0 204 204 204
10.7 -17.2 10.0 203 203 203
10.9 -17.2 10.0 203 203 203
11.1 -17.2 10.0 203 203 203
12.1 -17.2 10.0 206 206 206
12.8 -17.5 10.2 208 211 210
12.8 -17.3 10.1 203 203 203
13.0 -17.2 10.0 203 203 203
13.3 -17.2 10.0 203 203 203
72.5 -74.6 43.4 207 207 207
36.7 -33.1 19.3 205 205 205
36.6 -32.6 19.0 205 205 205
37.7 -33.2 19.3 205 205 205
38.8 -33.8 19.7 205 205 205
-41.5 -25.0 14.8 71 72 70
-40.6 -25.1 14.8 75 76 76
-10.3 -19.3 11.4 35 34 33
-10.7 -25.1 14.8 177 180 179
-10.3 -25.0 14.7 189 189 189
-5.8 -17.5 10.3 204 204 204
-2.2 -17.4 10.3 209 209 209
0.2 -17.5 10.3 199 199 199
2.6 -17.6 10.4 184 184 184
2.8 -17.5 10.3 135 135 135
3.1 -17.4 10.3 115 114 114
4.3 -17.6 10.4 177 177 177
7.9 -17.5 10.3 204 204 204
8.1 -17.5 10.3 207 207 207
8.3 -17.4 10.3 207 207 207
8.5 -17.4 10.2 207 207 207
9.6 -17.6 10.4 206 206 206
9.8 -17.5 10.3 206 206 206
10.3 -17.5 10.3 203 203 203
10.5 -17.5 10.3 203 203 203
10.8 -17.5 10.3 203 203 203
11.0 -17.5 10.3 203 203 203
11.2 -17.4 10.3 203 203 203
12.7 -17.5 10.3 206 206 206
12.9 -17.5 10.3 206 206 206
13.0 -17.3 10.2 203 203 203
13.1 -17.1 10.1 203 203 203
13.9 -17.5 10.3 206 206 206
74.2 -75.3 44.4 206 206 206
70.7 -70.8 41.8 207 207 207
67.4 -66.5 39.2 207 207 207
38.1 -33.9 20.0 205 205 205
37.4 -32.9 19.4 205 205 205
38.8 -33.8 19.9 205 205 205
39.4 -33.8 20.0 205 205 205
-25.3 -17.9 10.7 67 67 67
-25.2 -17.9 10.7 67 67 67
-16.0 -18.0 10.7 97 100 99
-10.3 -18.9 11.3 39 39 39
-11.1 -24.8 14.8 182 185 184
-10.7 -24.7 14.8 179 182 181
-10.3 -24.6 14.7 175 175 175
-5.8 -17.2 10.3 192 192 192
3.3 -17.2 10.3 183 183 183
7.4 -17.2 10.3 207 207 207
8.3 -17.2 10.3 207 207 207
82.0 -83.2 49.8 206 206 206
78.0 -78.1 46.7 206 206 206
72.2 -71.2 42.6 203 203 203
67.7 -65.9 39.4 206 206 206
63.4 -60.9 36.4 207 207 207
38.1 -33.5 20.0 208 208 208
39.1 -33.5 20.0 205 205 205
39.4 -33.4 20.0 205 205 205
40.0 -33.5 20.0 205 205 205
68.7 -33.0 19.7 176 176 176
-30.5 -17.9 10.8 44 43 42
-30.3 -17.9 10.8 52 52 52
-30.0 -17.9 10.8 54 54 54
-29.8 -17.9 10.8 59 59 59
-29.5 -17.9 10.8 62 62 62
-29.3 -17.9 10.8 67 68 66
-29.0 -17.9 10.8 70 70 70
-28.8 -17.9 10.8 72 73 71
-28.0 -17.9 10.8 71 71 71
-27.7 -17.8 10.8 73 74 72
-27.4 -17.8 10.8 73 74 72
-27.2 -17.8 10.8 71 71 71
-26.9 -17.8 10.8 71 71 71
-26.7 -17.8 10.8 71 71 71
-26.5 -17.9 10.8 72 72 72
-26.3 -17.9 10.8 72 72 72
-26.0 -17.9 10.8 72 72 72
-25.7 -17.8 10.8 74 75 73
-25.4 -17.8 10.8 74 75 73
-25.2 -17.9 10.8 72 72 72
-25.0 -17.9 10.8 73 73 73
-24.7 -17.8 10.8 67 67 67
-16.1 -17.8 10.8 93 95 93
-10.2 -18.6 11.3 110 110 110
-11.2 -24.7 15.0 181 184 183
-10.8 -24.6 14.9 176 176 176
85.8 -85.9 52.1 207 210 209
75.4 -73.4 44.5 208 211 210
67.5 -64.9 39.3 208 211 210
62.8 -59.5 36.1 206 206 206
39.1 -33.0 20.0 208 208 208
39.2 -32.8 19.9 208 208 208
39.3 -32.5 19.7 208 208 208
69.7 -33.0 20.0 177 177 177
-27.6 -17.7 10.9 73 74 72
-25.5 -17.6 10.8 77 77 77
-25.3 -17.7 10.9 62 62 62
-16.1 -17.6 10.8 100 100 100
-11.3 -26.2 16.1 156 159 158
86.1 -85.0 52.3 207 210 209
82.1 -79.9 49.1 207 210 209
74.2 -71.2 43.8 207 210 209
70.6 -66.9 41.1 208 211 210
39.0 -32.2 19.8 208 208 208
70.5 -33.8 20.8 179 179 179
68.8 -32.8 20.2 179 179 179
70.6 -33.0 20.3 179 179 179
71.1 -33.0 20.3 179 179 179
-10.3 -18.2 11.3 126 128 127
-11.7 -25.8 16.1 177 177 177
-11.4 -26.0 16.3 160 163 162
-11.0 -26.1 16.3 156 159 158
90.1 -88.9 55.5 207 210 209
87.3 -84.9 53.0 207 210 209
82.7 -79.4 49.5 207 210 209
73.8 -69.8 43.6 207 210 209
70.3 -33.2 20.7 180 180 180
68.8 -32.3 20.1 180 180 180
71.2 -32.7 20.4 180 180 180
71.3 -32.6 20.3 180 180 180
-10.3 -17.9 11.4 113 115 114
-11.7 -25.6 16.2 180 180 180
-11.5 -25.8 16.4 167 167 167
-11.1 -26.0 16.4 160 163 162
-10.8 -26.1 16.5 156 159 158
87.8 -84.2 53.3 206 209 208
84.3 -79.7 50.4 207 210 209
74.2 -69.2 43.8 207 210 209
67.5 -31.2 19.8 181 181 181
71.2 -32.1 20.3 181 181 181
70.3 -31.4 19.9 181 181 181
-10.3 -17.7 11.4 39 39 39
92.0 -88.1 56.6 206 209 208
87.5 -82.7 53.1 206 209 208
76.3 -70.1 45.0 206 209 208
67.1 -30.6 19.6 185 185 185
65.7 -29.7 19.1 185 185 185
71.5 -31.7 20.4 182 182 182
69.6 -30.7 19.7 182 182 182
-14.4 -17.3 11.3 33 33 33
-10.3 -17.4 11.3 33 32 30
-13.1 -28.7 18.7 174 174 174
87.8 -81.7 53.3 206 209 208
85.4 -78.4 51.1 204 204 204
96.7 -86.3 56.3 206 209 208
90.2 -79.4 51.8 205 205 205
74.0 -32.4 21.1 183 183 183
-25.8 -15.8 10.5 40 42 42
-25.5 -15.7 10.4 36 36 36
-24.9 -15.8 10.5 42 42 42
-40.1 -28.9 19.2 57 57 57
-36.7 -28.6 19.0 62 61 60
-35.9 -28.4 18.8 65 65 65
-16.7 -15.7 10.4 33 34 32
-14.5 -17.0 11.3 32 32 32
-10.3 -17.1 11.4 33 32 30
-13.6 -28.4 18.8 177 180 179
-13.2 -28.5 18.9 175 175 175
-13.0 -28.9 19.1 172 172 172
88.5 -81.1 53.7 208 211 210
105.7 -94.2 62.4 208 211 210
101.8 -89.5 59.3 208 211 210
62.3 -25.5 16.9 156 156 156
935.7 -370.8 245.7 131 133 132
-41.1 -28.8 19.4 26 26 26
-40.5 -28.7 19.3 41 43 42
-40.2 -28.9 19.4 42 44 43
-39.7 -28.8 19.4 55 55 55
-39.0 -28.6 19.2 57 57 57
-38.1 -28.6 19.2 71 71 71
-37.6 -28.6 19.2 73 74 72
-37.2 -28.6 19.2 67 67 67
-10.3 -16.9 11.4 41 41 41
-13.8 -28.3 19.0 178 181 180
-13.3 -28.2 19.0 177 180 179
-13.1 -28.7 19.3 173 173 173
106.1 -91.9 61.8 208 211 210
107.2 -91.6 61.6 208 211 210
108.3 -91.3 61.4 208 211 210
109.7 -91.3 61.4 209 212 211
78.4 -33.7 22.7 189 189 189
77.9 -33.2 22.4 185 185 185
81.3 -34.5 23.2 185 185 185
62.1 -25.3 17.0 168 168 168
61.9 -25.1 16.9 162 162 162
62.0 -25.0 16.8 156 156 156
-13.6 -28.4 19.4 178 178 178
-13.4 -28.9 19.7 175 175 175
-13.0 -29.0 19.8 165 168 167
-12.4 -28.8 19.7 168 168 168
133.1 -113.4 77.5 208 211 210
131.2 -110.3 75.4 208 211 210
111.5 -91.3 62.4 208 211 210
77.6 -32.8 22.4 190 190 190
78.6 -33.0 22.6 186 186 186
80.4 -33.5 22.9 186 186 186
80.7 -33.5 22.9 186 186 186
62.4 -25.0 17.1 164 167 166
61.1 -24.4 16.7 161 161 161
61.6 -24.4 16.7 156 156 156
61.8 -24.3 16.6 150 152 152
-13.8 -28.4 19.7 173 173 173
-13.6 -28.9 20.1 174 174 174
-13.2 -29.0 20.1 145 145 144
-12.6 -28.9 20.0 30 29 29
15.6 -15.3 10.7 206 209 208
133.5 -113.5 78.8 207 210 209
126.9 -106.4 73.9 207 210 209
127.1 -105.2 73.0 208 211 210
123.1 -100.5 69.8 208 211 210
133.7 -106.4 73.9 208 211 210
150.1 -116.4 80.8 209 212 211
77.5 -32.2 22.4 188 188 188
78.2 -32.3 22.4 188 188 188
79.9 -32.8 22.8 188 188 188
80.6 -32.9 22.8 191 191 191
79.8 -32.3 22.5 188 188 188
62.1 -24.4 16.9 161 161 161
62.0 -24.2 16.8 155 155 155
61.3 -23.8 16.5 150 150 150
67.1 -25.5 17.7 134 134 134
66.0 -25.0 17.3 131 133 132
-14.0 -29.3 20.7 159 159 159
-13.5 -29.2 20.6 127 127 127
-13.0 -29.2 20.6 42 42 42
120.3 -99.2 70.1 207 210 209
121.0 -98.5 69.5 207 210 209
120.9 -97.1 68.5 208 211 210
111.5 -88.4 62.4 208 211 210
126.3 -98.9 69.8 208 211 210
77.5 -31.5 22.3 192 192 192
78.4 -31.7 22.4 189 189 189
79.9 -32.1 22.6 189 189 189
79.4 -31.6 22.3 189 189 189
79.8 -31.6 22.3 186 186 186
62.6 -24.2 17.1 161 161 161
62.2 -23.9 16.8 153 155 155
62.0 -23.6 16.7 149 149 149
66.8 -25.0 17.6 132 135 134
65.5 -24.4 17.2 126 126 126
-14.5 -29.9 21.4 182 185 184
-14.0 -29.9 21.5 171 173 173
176.0 -137.3 98.5 208 211 210
194.5 -149.8 107.5 208 211 210
183.5 -139.5 100.1 208 211 210
177.4 -133.1 95.5 208 211 210
77.0 -31.2 22.4 193 193 193
77.2 -31.1 22.3 193 193 193
77.8 -31.1 22.3 193 193 193
78.8 -31.3 22.5 193 193 193
80.3 -31.7 22.7 190 190 190
80.2 -31.5 22.6 190 190 190
80.1 -31.2 22.4 185 185 185
62.5 -23.6 16.9 153 153 153
62.6 -23.5 16.9 146 148 148
66.9 -24.6 17.7 129 132 131
66.2 -24.2 17.4 128 131 130
-15.1 -30.5 22.3 180 180 180
184.7 -141.6 103.4 207 210 209
219.5 -166.1 121.3 208 211 210
200.5 -149.8 109.3 208 211 210
188.8 -139.3 101.7 208 211 210
77.4 -30.6 22.4 194 194 194
78.1 -30.7 22.4 194 194 194
81.3 -31.6 23.0 191 191 191
80.8 -31.2 22.7 189 189 189
80.9 -31.0 22.6 189 189 189
63.5 -23.6 17.2 148 150 150
63.8 -23.5 17.2 139 141 140
65.2 -23.9 17.4 132 135 134
68.0 -24.8 18.1 131 133 132
67.4 -24.4 17.8 131 133 132
66.8 -24.0 17.5 128 128 128
-16.5 -31.8 23.6 184 184 184
-15.3 -30.4 22.6 178 178 178
-14.9 -30.6 22.7 172 174 174
-15.0 -32.0 23.7 171 173 173
231.3 -172.1 127.8 207 210 209
216.7 -159.2 118.2 208 211 210
218.1 -158.2 117.5 208 211 210
248.7 -178.2 132.3 208 211 210
82.2 -31.4 23.3 196 199 198
81.9 -31.0 23.0 192 192 192
81.5 -30.7 22.8 182 185 184
68.0 -24.4 18.1 133 133 133
67.9 -24.2 17.9 133 133 133
68.1 -24.1 17.9 133 133 133
-18.2 -33.3 25.1 184 184 184
-16.9 -31.9 24.1 182 182 182
-15.2 -30.7 23.2 164 167 166
-15.3 -32.0 24.2 156 156 156
-14.9 -32.6 24.6 24 25 23
232.9 -170.3 128.7 211 211 211
218.1 -157.5 119.0 207 210 209
271.4 -191.1 144.4 208 211 210
755.1 -500.8 378.3 209 212 211
190.6 -86.9 65.7 189 191 191
83.4 -31.3 23.6 181 184 183
82.9 -30.7 23.2 177 177 177
85.5 -31.5 23.8 173 173 173
85.6 -31.3 23.6 166 166 166
67.7 -24.1 18.2 134 134 134
69.0 -24.4 18.5 134 134 134
68.5 -24.1 18.2 132 132 132
68.3 -23.9 18.0 132 132 132
68.7 -23.9 18.0 132 132 132
-61.2 -32.9 25.3 179 182 181
-60.8 -33.0 25.4 97 96 94
-60.0 -32.9 25.3 45 45 45
-59.4 -32.8 25.3 34 34 34
-58.1 -32.8 25.2 20 23 21
-57.5 -32.8 25.2 27 27 27
-57.0 -32.8 25.3 24 24 24
-56.6 -32.9 25.3 25 25 25
-56.4 -33.2 25.5 34 34 34
-18.4 -33.2 25.5 188 188 188
-16.6 -34.2 26.3 89 91 90
-15.3 -34.2 26.3 46 46 46
14.2 -13.2 10.2 209 209 209
14.2 -13.0 10.0 209 209 209
271.7 -195.2 150.1 211 211 211
262.7 -186.3 143.3 212 213 212
323.3 -223.6 172.0 208 211 210
572.1 -372.7 286.6 214 214 214
167.2 -74.3 57.1 194 197 196
86.4 -31.2 24.0 150 150 150
86.8 -31.1 23.9 139 141 140
68.8 -24.1 18.5 133 133 133
69.3 -24.1 18.5 129 132 131
69.2 -23.9 18.4 129 132 131
68.9 -23.7 18.2 133 133 133
69.4 -23.7 18.2 129 132 131
-18.2 -34.3 26.9 139 138 137
-17.5 -34.2 26.8 91 93 92
-16.9 -34.2 26.8 87 87 87
-16.3 -34.3 26.8 57 59 59
-15.6 -34.2 26.8 115 114 114
14.2 -13.0 10.2 209 209 209
375.6 -268.4 210.2 211 211 211
297.7 -210.1 164.5 211 211 211
275.2 -191.7 150.1 211 211 211
408.4 -280.9 220.0 215 215 215
345.2 -234.5 183.7 216 216 216
395.6 -265.5 207.9 212 213 212
662.4 -423.8 331.9 214 214 214
48.9 -17.4 13.6 131 134 133
49.1 -17.3 13.6 129 132 131
70.2 -24.0 18.8 129 129 129
69.8 -23.7 18.6 129 129 129
69.7 -23.5 18.4 129 129 129
-17.9 -34.4 27.5 91 93 92
-17.2 -34.3 27.3 90 92 91
-16.7 -34.5 27.5 75 77 77
-15.9 -34.1 27.2 115 114 114
444.7 -312.1 248.9 211 211 211
376.3 -260.6 207.9 211 211 211
49.4 -17.2 13.7 113 114 113
49.6 -17.2 13.7 116 118 117
71.3 -23.9 19.1 121 121 121
70.7 -23.6 18.8 121 121 121
70.4 -23.3 18.6 127 127 127
50.0 -17.0 13.8 109 111 111
71.7 -23.5 19.1 112 112 112
-20.6 -39.5 32.7 91 93 92
50.5 -16.8 13.9 108 108 108
73.3 -23.5 19.5 100 102 102
-21.1 -38.2 32.3 95 95 95
-20.6 -38.8 32.7 94 94 94
-19.7 -40.0 33.8 39 39 39
51.4 -16.7 14.1 103 105 105
51.9 -16.7 14.1 103 105 105
52.2 -16.7 14.1 101 103 103
-41.6 -21.4 18.4 97 97 97
-21.6 -38.4 33.1 95 95 95
-20.7 -38.2 32.9 96 96 96
-19.7 -39.2 33.8 93 93 93
45.7 -21.8 18.8 190 190 190
45.9 -21.6 18.6 179 179 179
52.2 -16.5 14.2 98 98 98
52.6 -16.5 14.2 90 90 90
-42.1 -21.0 18.5 138 140 139
-41.3 -20.8 18.3 116 118 117
-22.2 -38.6 34.0 95 95 95
-21.5 -38.8 34.1 95 95 95
-20.6 -38.5 33.8 83 83 83
45.0 -20.8 18.3 190 190 190
51.9 -16.1 14.1 81 84 83
52.3 -16.1 14.2 74 74 74
-36.2 -17.3 15.5 176 179 178
-35.7 -17.3 15.5 190 190 190
-35.4 -17.3 15.5 148 148 148
-35.1 -17.3 15.5 26 26 26
-34.3 -17.1 15.4 2 7 3
-34.1 -17.2 15.4 6 11 7
-34.0 -17.3 15.6 28 28 28
-28.3 -17.4 15.6 150 152 152
-27.8 -17.3 15.5 163 163 163
-27.5 -17.4 15.6 84 84 84
-27.2 -17.4 15.6 72 72 72
-26.8 -17.4 15.6 90 90 90
-26.5 -17.4 15.6 138 138 138
-26.2 -17.4 15.6 156 156 156
-25.8 -17.4 15.6 177 177 177
-25.3 -17.3 15.5 229 229 229
-24.9 -17.3 15.5 228 228 228
-24.5 -17.3 15.5 230 230 230
-24.2 -17.3 15.5 229 229 229
-23.2 -39.6 35.6 96 96 96
-22.6 -39.9 35.8 95 95 95
-21.6 -39.6 35.6 110 110 110
16.2 -11.2 10.1 215 215 215
44.4 -20.3 18.2 195 195 195
44.5 -20.2 18.1 185 185 185
51.8 -15.7 14.1 78 78 78
51.8 -15.6 14.0 72 72 72
51.7 -15.5 13.9 74 74 74
-28.7 -17.2 15.8 72 72 72
-26.6 -17.3 15.9 208 211 210
-26.1 -17.2 15.8 232 232 232
-25.8 -17.2 15.8 232 232 232
-26.3 -42.4 38.8 115 114 114
-23.4 -40.5 37.1 96 99 98
-22.6 -40.6 37.2 102 104 104
-22.9 -42.8 39.2 13 17 14
44.0 -19.7 18.1 195 195 195
44.2 -19.6 18.0 195 195 195
50.6 -15.2 13.9 110 110 110
51.2 -15.2 13.9 81 84 83
51.4 -15.2 13.9 75 76 76
51.5 -15.1 13.8 75 76 76
51.4 -15.0 13.8 78 78 78
-23.9 -42.1 39.4 107 107 107
44.2 -19.2 18.0 190 190 190
42.8 -18.4 17.2 117 119 118
51.7 -15.0 14.1 90 90 90
51.8 -15.0 14.0 79 79 79
51.7 -14.9 13.9 79 79 79
53.0 -15.0 14.1 80 83 82
43.0 -18.1 17.3 113 114 113
43.5 -18.1 17.4 81 81 81
51.8 -14.7 14.1 92 92 92
52.0 -14.7 14.1 80 83 82
52.2 -14.7 14.0 79 79 79
53.3 -14.9 14.2 79 79 79
53.4 -14.8 14.2 82 84 84
-33.3 -56.0 54.8 109 109 109
-32.1 -56.2 55.0 31 33 33
-29.8 -56.7 55.5 108 108 106
43.0 -17.7 17.3 115 114 114
43.5 -17.7 17.3 82 82 82
53.2 -14.5 14.2 80 83 82
53.3 -14.5 14.2 80 83 82
52.7 -14.2 13.9 82 84 84
-37.1 -56.7 56.8 94 97 96
-35.5 -56.2 56.3 100 100 100
-34.2 -56.2 56.3 112 112 112
-33.1 -56.5 56.6 46 47 45
-30.1 -55.9 56.0 159 159 159
-28.7 -55.7 55.8 178 178 178
42.8 -17.2 17.2 115 115 115
52.5 -13.9 13.9 88 88 88
-35.1 -56.4 57.8 110 110 110
-34.4 -57.5 58.9 46 46 46
-35.4 -61.5 63.1 13 17 14
203.0 -92.7 95.1 200 200 200
-41.6 -62.7 65.9 101 101 101
-38.5 -60.4 63.5 111 111 109
-37.8 -61.7 64.8 32 34 33
-36.7 -62.3 65.5 20 20 20
-33.6 -59.4 62.4 166 166 166
192.4 -85.7 90.1 198 198 198
166.7 -73.5 77.2 200 200 200
-33.8 -15.5 16.7 118 118 118
-46.8 -68.9 74.2 100 100 100
-41.6 -63.6 68.5 109 109 109
-41.1 -65.3 70.3 21 21 21
-38.9 -64.3 69.3 22 22 22
-35.3 -61.0 65.7 170 172 172
-36.0 -65.0 70.1 182 182 182
233.7 -102.7 110.6 186 186 186
191.4 -83.2 89.7 198 198 198
166.7 -71.7 77.2 200 200 200
-33.9 -15.2 16.8 115 115 115
-33.3 -15.1 16.6 61 61 61
-46.0 -71.3 78.8 29 29 29
-42.8 -69.0 76.3 22 22 22
237.8 -101.9 112.6 180 180 180
194.2 -82.3 90.9 195 195 195
168.7 -70.8 78.2 200 200 200
143.3 -59.5 65.7 200 200 200
-35.5 -15.3 17.3 143 143 142
-33.9 -14.8 16.7 129 132 131
-54.7 -86.0 97.5 31 33 33
233.7 -97.6 110.6 168 168 168
196.1 -81.0 91.8 197 197 197
166.0 -67.8 76.9 200 200 200
123.4 -49.4 56.0 200 200 200
28.7 -8.9 10.0 107 107 107
210.9 -55.2 62.6 70 69 68
-37.8 -15.7 18.2 128 128 128
-36.1 -15.1 17.6 161 161 161
-34.1 -14.4 16.8 148 150 150
-85.5 -131.0 152.6 22 22 22
-88.4 -141.3 164.5 168 170 169
-84.6 -141.3 164.5 180 183 182
176.4 -70.9 82.6 195 195 195
164.7 -65.5 76.3 200 200 200
134.9 -53.1 61.8 200 200 200
121.6 -47.4 55.1 200 200 200
-40.4 -16.1 19.3 147 147 147
-34.2 -14.1 16.9 121 123 122
-38.1 -16.1 19.3 62 61 60
-37.7 -16.1 19.3 58 58 58
-94.7 -141.1 168.9 23 24 23
-90.8 -141.1 168.9 175 175 175
182.8 -71.5 85.6 193 193 193
143.8 -55.6 66.6 197 197 197
135.8 -52.0 62.2 200 200 200
120.6 -45.7 54.7 200 200 200
-52.0 -19.3 23.8 79 79 79
-41.5 -15.9 19.6 147 149 149
-40.4 -15.7 19.3 134 134 134
-35.8 -14.2 17.5 174 174 174
-38.3 -15.7 19.3 58 58 58
-37.9 -15.7 19.4 62 61 60
-37.7 -15.8 19.5 58 59 59
-208.4 -289.9 356.9 29 29 29
-158.3 -229.3 282.3 29 29 29
16.9 -9.1 11.2 218 221 220
17.1 -9.1 11.2 218 221 220
143.8 -54.1 66.6 195 195 195
135.8 -50.5 62.2 197 197 197
120.2 -44.3 54.5 200 200 200
-53.6 -19.3 24.5 79 79 79
-41.8 -15.6 19.7 168 168 168
-40.4 -15.2 19.3 121 123 122
-38.3 -15.3 19.4 58 59 59
-37.9 -15.3 19.4 63 62 61
-37.8 -15.5 19.6 58 59 59
-36.6 -15.1 19.2 49 49 49
134.0 -48.5 61.4 197 197 197
124.5 -44.6 56.5 197 197 197
-55.4 -19.2 25.1 75 76 74
-53.9 -18.9 24.6 80 80 80
-42.4 -15.3 20.0 151 151 151
-40.6 -14.8 19.4 120 120 120
-73.1 -27.0 35.3 126 126 126
-8.0 -7.7 10.1 195 195 195
16.7 -8.0 10.4 219 222 221
-57.6 -19.3 26.1 75 76 74
-54.8 -18.6 25.1 75 77 75
-8.0 -7.5 10.1 194 194 194
-7.8 -7.5 10.1 189 189 189
16.6 -7.7 10.4 219 222 221
162.0 -55.7 75.1 181 181 181
140.4 -47.8 64.3 193 193 193
-60.4 -19.4 27.0 72 72 72
-58.3 -19.0 26.3 73 73 73
-8.0 -7.3 10.1 194 194 194
-7.8 -7.3 10.1 191 191 191
156.5 -52.1 72.5 189 189 189
140.9 -46.4 64.6 193 193 193
-60.3 -18.8 27.0 73 73 73
-58.1 -18.3 26.3 73 73 73
-8.0 -7.0 10.1 193 193 193
-7.8 -7.0 10.1 190 190 190
158.3 -51.0 73.3 181 181 181
138.5 -44.2 63.5 194 194 194
175.0 -51.4 73.9 202 202 202
-141.4 -47.0 69.8 48 47 46
-139.2 -46.8 69.5 74 74 74
-110.5 -46.3 68.8 29 29 29
17.2 -7.5 11.2 219 222 221
193.3 -60.9 90.5 155 155 155
169.4 -52.8 78.5 175 177 177
137.1 -42.3 62.8 193 193 193
119.5 -36.5 54.2 194 194 194
182.8 -51.9 77.2 204 204 204
-175.2 -40.4 62.2 42 43 42
-176.6 -41.1 63.3 39 38 37
-174.6 -41.0 63.1 36 37 36
-173.1 -41.0 63.1 40 39 38
-172.2 -41.1 63.3 35 35 35
-174.9 -42.1 64.8 27 28 26
-173.9 -42.2 65.0 27 29 27
-167.3 -41.0 63.1 27 29 27
-166.4 -41.1 63.3 27 29 27
-154.1 -41.0 63.1 29 31 29
-153.1 -41.1 63.3 29 31 29
-152.2 -41.2 63.5 30 31 30
-146.7 -40.2 61.8 28 28 28
-144.8 -40.0 61.6 27 27 27
-147.3 -41.9 64.6 179 179 179
-141.4 -40.7 62.6 16 16 16
-145.2 -42.2 65.0 25 25 25
-143.7 -42.2 65.0 25 25 25
-136.6 -40.6 62.4 29 29 29
-135.1 -40.6 62.4 25 25 25
-130.2 -40.8 62.8 37 38 37
-134.1 -42.5 65.5 36 36 36
-133.5 -42.8 65.9 149 149 149
-130.6 -42.4 65.2 59 59 59
-123.5 -40.6 62.4 150 150 150
-122.5 -40.7 62.6 120 120 120
-103.5 -41.2 63.5 29 29 29
-100.0 -40.4 62.2 29 29 29
-103.3 -42.4 65.2 36 35 34
-99.4 -41.4 63.7 40 40 40
-95.3 -41.5 63.9 147 147 147
-91.3 -40.4 62.2 162 165 164
16.6 -6.7 10.4 220 223 222
137.1 -40.8 62.8 190 190 190
122.0 -35.9 55.3 193 193 193
181.3 -49.7 76.6 202 202 202
-173.5 -38.6 61.6 62 64 61
-176.1 -39.5 63.1 60 60 60
-260.1 -67.3 107.5 58 59 59
-152.2 -39.8 63.5 54 54 54
-145.8 -38.5 61.4 54 54 54
-271.3 -74.5 119.0 105 105 105
-257.3 -71.4 114.0 35 35 35
-223.6 -62.7 100.1 34 33 32
-303.1 -85.9 137.1 30 29 29
-277.8 -79.5 127.0 29 29 29
-234.7 -70.9 113.3 22 25 23
-133.9 -41.4 66.1 109 109 107
-131.0 -41.0 65.5 20 23 21
-99.0 -39.8 63.5 47 47 47
138.5 -39.8 63.5 189 189 189
177.7 -47.0 75.1 203 203 203
178.1 -46.6 74.5 206 206 206
-260.1 -64.8 107.5 70 72 69
-260.4 -69.6 115.3 74 75 73
-329.3 -89.8 148.9 61 60 59
-315.9 -87.1 144.4 57 57 57
-236.1 -68.7 114.0 63 63 63
-158.6 -65.2 108.1 38 38 38
715.5 -211.3 350.3 218 218 218
179.6 -46.2 76.6 203 203 203
179.9 -45.8 76.0 203 203 203
179.5 -45.3 75.1 205 205 205
-321.0 -76.2 131.4 75 75 75
-308.2 -78.3 135.1 75 76 76
-268.6 -69.0 119.0 67 69 67
-234.8 -60.9 105.1 71 71 71
-331.9 -87.0 150.1 72 72 72
-243.4 -68.1 117.5 72 72 72
-208.9 -81.2 140.1 36 36 34
16.8 -5.9 10.2 221 221 221
743.0 -210.9 363.8 222 222 222
178.1 -44.0 76.0 203 203 203
181.3 -44.4 76.6 203 203 203
180.9 -43.9 75.7 205 205 205
16.8 -5.7 10.2 221 221 221
18.9 -5.7 10.3 222 222 222
772.7 -210.6 378.3 223 225 225
179.2 -42.1 75.7 203 203 203
176.0 -40.0 75.1 203 203 203
178.5 -40.2 75.4 203 203 203
178.8 -39.9 74.8 204 204 204
179.8 -39.7 74.5 195 195 195
173.9 -37.8 74.2 204 204 204
175.7 -37.8 74.2 204 204 204
178.1 -38.0 74.5 206 206 206
178.4 -37.7 73.9 200 200 200
177.4 -36.8 75.7 204 204 204
178.5 -36.7 75.4 204 204 204
179.5 -36.5 75.1 204 204 204
22.2 -5.6 12.1 221 221 221
179.9 -35.2 76.0 204 204 204
180.9 -35.1 75.7 204 204 204
22.4 -3.4 12.4 227 227 227
31.0 -4.7 16.9 225 225 225
22.1 -3.1 12.2 225 225 225
22.2 -3.1 12.1 225 225 225
22.0 -2.8 12.2 226 226 226
22.1 -2.5 12.2 222 222 222
19.5 -2.3 12.7 219 222 221
19.8 -2.4 12.7 219 222 221
20.3 -2.4 12.9 219 222 221
20.4 -2.4 12.8 224 224 224
25.4 -2.3 12.7 224 224 224
26.0 -2.4 12.7 219 222 221
19.2 -2.1 12.7 217 220 219
19.5 -2.1 12.7 220 223 222
19.8 -2.1 12.7 220 223 222
20.3 -2.1 12.8 220 223 222
20.4 -2.1 12.7 220 223 222
20.7 -2.1 12.7 220 223 222
20.8 -2.0 12.6 220 223 222
24.5 -2.1 12.7 227 227 227
24.8 -2.1 12.7 224 224 224
25.2 -2.1 12.8 224 224 224
25.4 -2.1 12.7 224 224 224
25.7 -2.1 12.7 224 224 224
25.9 -2.0 12.7 224 224 224
26.2 -2.0 12.7 219 222 221
20.4 -1.8 12.9 220 223 222
20.4 -1.8 12.8 220 223 222
20.7 -1.8 12.7 220 223 222
20.7 -1.7 12.5 220 223 222
20.8 -1.1 11.8 222 224 224
22.6 -0.8 11.5 223 225 225
22.3 -0.5 11.2 223 225 225
21.9 -0.5 10.7 223 225 225
21.6 -0.5 10.5 223 225 225
19.0 -0.2 10.9 224 226 226
22.2 -0.2 11.3 224 226 226
22.0 -0.2 10.8 223 225 225
21.6 -0.2 10.5 220 220 220
81.7 0.5 22.1 88 88 88
92.6 0.6 24.8 86 86 86
82.0 1.1 22.2 89 89 89
91.3 1.2 24.4 85 84 82
83.7 1.0 22.0 168 170 169
86.4 1.7 23.6 94 97 96
82.2 1.6 22.3 87 87 87
89.5 1.7 23.9 86 85 83
87.3 1.6 23.2 87 87 87
83.4 1.6 21.9 168 170 169
19.3 1.2 12.4 179 182 181
25.6 1.2 13.0 225 225 225
25.9 1.2 13.0 225 225 225
26.2 1.2 13.0 225 225 225
81.6 2.1 22.1 88 88 88
89.0 2.2 23.8 86 85 83
85.5 2.1 22.7 88 88 88
84.1 2.1 22.2 86 85 83
22.2 1.4 12.1 224 224 224
25.7 1.5 13.0 225 225 225
25.9 1.5 13.0 225 225 225
26.2 1.5 13.0 225 225 225
82.0 2.6 22.2 89 89 89
89.6 2.8 24.0 87 86 84
85.4 2.7 22.7 92 92 92
84.3 2.6 22.3 90 90 90
25.7 1.8 13.0 225 225 225
25.9 1.8 13.0 224 224 224
26.2 1.8 13.0 224 224 224
82.7 3.2 22.4 89 89 89
85.7 3.2 22.8 90 90 90
85.0 3.2 22.5 89 89 89
25.6 2.1 13.0 225 225 225
494.6 31.3 148.9 155 155 155
177.7 199.6 295.6 74 75 73
-636.1 244.7 350.3 123 123 123
-595.4 244.7 350.3 123 123 123
-528.5 220.2 315.3 123 123 123
-559.1 254.1 363.8 236 236 236
-550.7 254.1 363.8 235 235 235
-473.9 249.3 356.9 102 104 104
-336.8 240.3 343.9 152 154 154
124.7 209.8 300.3 67 69 67
218.7 275.3 394.1 15 15 15
202.5 244.7 350.3 67 67 67
172.4 200.2 286.6 75 77 75
-1065.1 273.1 378.3 87 86 84
-1015.7 262.6 363.8 84 84 84
-1007.3 262.6 363.8 87 86 84
-998.8 262.6 363.8 90 90 90
-990.4 262.6 363.8 95 98 97
-1021.2 273.1 378.3 115 115 115
-1012.4 273.1 378.3 121 123 122
-1003.6 273.1 378.3 119 121 120
-994.8 273.1 378.3 120 122 121
-986.0 273.1 378.3 119 119 119
-977.2 273.1 378.3 119 119 119
-931.2 262.6 363.8 121 123 122
-940.8 267.7 370.9 121 123 122
-914.3 262.6 363.8 123 125 124
-905.8 262.6 363.8 124 126 125
-897.3 262.6 363.8 124 126 125
-906.3 267.7 370.9 124 126 125
-915.7 273.1 378.3 127 127 127
-889.1 267.7 370.9 124 127 126
-880.5 267.7 370.9 124 126 125
-855.1 262.6 363.8 135 135 135
-863.2 267.7 370.9 136 136 136
-854.6 267.7 370.9 177 180 179
-846.0 267.7 370.9 126 129 128
-837.3 267.7 370.9 120 120 120
-828.7 267.7 370.9 119 119 119
-804.3 262.6 363.8 119 119 119
-795.9 262.6 363.8 123 123 123
-787.4 262.6 363.8 126 129 128
-834.7 284.5 394.1 133 133 133
-762.1 262.6 363.8 133 133 133
-753.6 262.6 363.8 135 135 135
-745.1 262.6 363.8 137 137 137
-736.7 262.6 363.8 137 137 137
-728.2 262.6 363.8 139 141 140
-719.8 262.6 363.8 137 137 137
-711.3 262.6 363.8 139 141 140
-716.7 267.7 370.9 135 135 135
-694.4 262.6 363.8 133 133 133
-686.0 262.6 363.8 133 133 133
-677.5 262.6 363.8 126 128 127
-669.0 262.6 363.8 124 124 124
-636.1 252.9 350.3 126 128 127
-664.9 267.7 370.9 126 128 127
-683.1 278.7 386.0 126 128 127
-635.2 262.6 363.8 122 122 122
-614.9 257.6 356.9 122 122 122
-606.6 257.6 356.9 119 119 119
-546.8 235.4 326.1 115 117 116
-539.2 235.4 326.1 114 116 115
-629.3 278.7 386.0 114 116 115
-620.3 278.7 386.0 114 116 115
-587.3 267.7 370.9 98 97 95
-567.6 262.6 363.8 139 141 140
-559.1 262.6 363.8 215 215 215
-530.3 252.9 350.3 230 233 232
-557.5 278.7 386.0 171 170 169
-516.9 262.6 363.8 137 139 138
-508.4 262.6 363.8 159 159 159
-499.9 262.6 363.8 188 190 190
-491.5 262.6 363.8 147 147 147
-473.9 257.6 356.9 149 151 151
-465.6 257.6 356.9 149 149 149
-475.3 267.7 370.9 149 151 151
-466.6 267.7 370.9 148 148 148
-449.2 262.6 363.8 160 160 160
-458.4 273.1 378.3 77 80 79
-408.7 248.3 343.9 22 25 23
-367.3 227.6 315.3 28 28 28
-423.2 273.1 378.3 21 24 22
-406.3 267.7 370.9 13 17 14
-397.7 267.7 370.9 24 24 24
-396.8 273.1 378.3 33 36 35
-396.0 278.7 386.0 84 84 84
-387.0 278.7 386.0 154 154 154
-336.8 248.3 343.9 160 160 160
-360.1 278.7 386.0 84 84 84
-337.3 267.7 370.9 176 176 176
-328.7 267.7 370.9 167 167 167
-313.9 262.6 363.8 134 134 134
-299.7 257.6 356.9 106 108 108
-297.0 262.6 363.8 102 104 104
-261.4 278.7 386.0 90 90 90
-247.3 273.1 378.3 91 93 92
-238.5 273.1 378.3 116 116 116
-234.4 278.7 386.0 154 153 151
-221.0 273.1 378.3 152 151 149
-208.0 267.7 370.9 149 149 147
-195.5 262.6 363.8 158 161 160
-185.8 273.1 378.3 162 162 162
-177.0 273.1 378.3 191 191 191
-168.2 273.1 378.3 191 194 193
-159.4 273.1 378.3 204 207 206
-150.6 273.1 378.3 203 205 205
-141.8 273.1 378.3 203 205 205
-127.9 262.6 363.8 199 199 199
-124.2 273.1 378.3 193 193 193
-115.4 273.1 378.3 204 207 206
-106.6 273.1 378.3 216 216 216
-97.8 273.1 378.3 216 216 216
-85.6 262.6 363.8 219 219 219
-55.0 278.7 386.0 231 231 231
-36.3 273.1 378.3 231 231 231
-27.0 267.7 370.9 214 214 214
-10.1 278.7 386.0 217 217 217
-1.1 278.7 386.0 217 217 217
24.3 262.6 363.8 193 193 193
124.7 216.7 300.3 65 66 64
129.7 213.3 295.6 73 73 73
209.9 273.1 378.3 27 27 27
210.3 262.6 363.8 66 67 65
177.7 213.3 295.6 77 79 77
222.9 257.6 356.9 77 78 76
245.1 273.1 378.3 77 78 76
172.9 293.6 394.1 75 75 75
223.1 276.3 370.9 79 81 79
-74.4 366.9 394.1 167 167 167
-220.2 118.9 108.7 67 67 67
-217.6 118.9 108.7 67 67 67
-215.1 118.9 108.7 65 66 64
-210.2 117.6 107.5 70 70 70
-204.2 115.6 105.7 70 70 70
-205.2 117.6 107.5 70 70 70
-199.3 115.6 105.7 72 72 72
-195.2 117.6 107.5 65 66 64
-192.7 117.6 107.5 67 67 67
-202.4 128.5 117.5 16 20 17
-185.9 119.6 109.3 14 14 14
-180.2 117.6 107.5 11 11 11
-179.4 123.9 113.3 2 7 3
-167.7 117.6 107.5 8 9 8
-162.4 115.6 105.7 14 14 14
-160.0 115.6 105.7 8 9 8
-162.0 118.9 108.7 37 37 35
-154.2 114.9 105.1 75 76 74
-179.2 137.9 126.1 95 94 93
-153.7 120.3 110.0 95 94 93
-146.1 116.2 106.3 95 94 93
-145.2 117.6 107.5 90 90 90
-145.2 119.6 109.3 84 86 86
-144.3 121.0 110.6 77 78 76
-138.5 118.2 108.1 92 91 90
-131.7 118.9 108.7 200 200 200
-119.6 110.0 100.6 33 35 33
-120.2 117.6 107.5 83 83 83
-113.0 129.3 118.2 174 176 176
-92.4 120.3 110.0 155 158 157
-82.6 110.6 101.2 149 149 149
-79.0 108.9 99.6 151 153 153
-2.8 116.2 106.3 204 207 206
2.2 116.2 106.3 206 209 208
4.6 115.6 105.7 206 209 208
7.2 117.6 107.5 207 207 207
2.2 120.0 107.5 205 208 207
4.6 118.0 105.7 206 209 208
