ply
format ascii 1.0
element vertex 2584
property float x
property float y
property float z
property uchar red
property uchar green
property uchar blue
end_header
122.8 -741.6 295.6 155 158 157
127.7 -730.2 291.0 155 158 157
134.4 -730.2 291.0 152 154 154
141.2 -730.2 291.0 154 156 156
148.0 -730.2 291.0 159 159 159
154.7 -730.2 291.0 159 159 159
161.5 -730.2 291.0 158 158 158
168.2 -730.2 291.0 161 161 161
175.0 -730.2 291.0 161 161 161
181.8 -730.2 291.0 161 161 161
188.5 -730.2 291.0 161 161 161
195.3 -730.2 291.0 161 161 161
202.1 -730.2 291.0 162 162 162
208.8 -730.2 291.0 164 164 164
215.6 -730.2 291.0 164 164 164
222.4 -730.2 291.0 164 164 164
229.1 -730.2 291.0 164 164 164
235.9 -730.2 291.0 164 164 164
242.7 -730.2 291.0 164 164 164
249.4 -730.2 291.0 164 164 164
256.2 -730.2 291.0 164 164 164
262.9 -730.2 291.0 165 165 165
269.7 -730.2 291.0 165 165 165
276.5 -730.2 291.0 165 165 165
283.2 -730.2 291.0 165 165 165
290.0 -730.2 291.0 165 165 165
296.8 -730.2 291.0 168 168 168
303.5 -730.2 291.0 165 165 165
310.3 -730.2 291.0 164 164 164
317.1 -730.2 291.0 164 164 164
323.8 -730.2 291.0 164 164 164
330.6 -730.2 291.0 164 164 164
332.2 -719.1 286.6 164 164 164
338.9 -719.1 286.6 161 161 161
350.9 -730.2 291.0 161 161 161
352.2 -719.1 286.6 161 161 161
364.4 -730.2 291.0 162 162 162
371.2 -730.2 291.0 162 162 162
377.9 -730.2 291.0 162 162 162
390.7 -741.6 295.6 157 160 159
397.6 -741.6 295.6 157 160 159
404.5 -741.6 295.6 157 160 159
405.0 -730.2 291.0 157 160 159
405.5 -719.1 286.6 157 160 159
406.0 -708.4 282.3 162 162 162
104.6 -171.3 68.3 155 158 157
106.1 -171.3 68.3 155 158 157
108.1 -172.0 68.5 156 159 158
109.3 -171.3 68.3 156 159 158
110.9 -171.3 68.3 156 159 158
53.0 -75.3 30.0 159 162 161
53.6 -75.2 30.0 159 162 161
54.3 -75.3 30.0 160 163 162
55.0 -75.3 30.0 159 159 159
55.7 -75.2 30.0 159 159 159
89.8 -419.8 168.9 162 162 162
93.7 -419.8 168.9 161 161 161
97.6 -419.8 168.9 161 161 161
101.6 -419.8 168.9 158 158 158
105.5 -419.8 168.9 161 161 161
109.4 -419.8 168.9 161 161 161
113.3 -419.8 168.9 161 161 161
117.3 -419.8 168.9 164 164 164
121.2 -419.8 168.9 164 164 164
125.1 -419.8 168.9 164 164 164
112.9 -367.4 147.8 164 164 164
116.4 -367.4 147.8 164 164 164
119.8 -367.4 147.8 164 164 164
123.2 -367.4 147.8 164 164 164
126.7 -367.4 147.8 164 164 164
130.1 -367.4 147.8 164 164 164
133.5 -367.4 147.8 165 165 165
137.0 -367.4 147.8 165 165 165
142.6 -373.2 150.1 165 165 165
143.8 -367.4 147.8 165 165 165
146.1 -364.5 146.6 165 165 165
172.2 -419.8 168.9 163 163 163
154.1 -367.4 147.8 163 163 163
157.6 -367.4 147.8 164 164 164
161.0 -367.4 147.8 164 164 164
164.4 -367.4 147.8 164 164 164
167.9 -367.4 147.8 164 164 164
171.3 -367.4 147.8 164 164 164
176.1 -370.3 148.9 164 164 164
179.6 -370.3 148.9 164 164 164
177.5 -358.9 144.4 164 164 164
178.1 -353.5 142.2 164 164 164
190.0 -370.3 148.9 165 165 165
191.9 -367.4 147.8 162 162 162
208.4 -391.8 157.6 162 162 162
223.2 -412.5 165.9 162 162 162
219.4 -398.5 160.3 162 162 162
210.6 -376.2 151.3 162 162 162
239.0 -419.8 168.9 157 160 159
242.9 -419.8 168.9 162 162 162
108.1 -170.4 68.5 159 162 161
108.5 -168.5 67.8 159 162 161
53.5 -75.5 30.4 159 162 161
54.2 -75.4 30.3 159 162 161
57.0 -77.3 31.1 160 163 162
38.1 -193.3 78.5 159 159 159
39.6 -191.7 77.8 162 162 162
41.7 -193.3 78.5 162 162 162
43.2 -191.7 77.8 161 161 161
44.8 -190.9 77.5 163 163 163
47.0 -192.5 78.2 163 163 163
48.8 -192.5 78.2 163 163 163
50.6 -192.5 78.2 163 163 163
52.5 -192.5 78.2 163 163 163
54.3 -192.5 78.2 166 166 166
56.1 -192.5 78.2 167 167 167
57.9 -192.5 78.2 167 167 167
59.7 -192.5 78.2 167 167 167
61.5 -192.5 78.2 167 167 167
63.4 -192.5 78.2 167 167 167
65.2 -192.5 78.2 169 171 170
67.0 -192.5 78.2 167 167 167
68.8 -192.5 78.2 164 164 164
70.6 -192.5 78.2 165 165 165
72.4 -192.5 78.2 165 165 165
73.7 -190.9 77.5 165 165 165
75.8 -191.7 77.8 168 168 168
78.2 -193.3 78.5 165 165 165
78.7 -190.1 77.2 163 163 163
80.5 -190.1 77.2 163 163 163
83.0 -191.7 77.8 164 164 164
85.2 -192.5 78.2 164 164 164
87.3 -193.3 78.5 164 164 164
88.8 -192.5 78.2 164 164 164
90.6 -192.5 78.2 164 164 164
92.8 -193.3 78.5 164 164 164
94.2 -192.5 78.2 164 164 164
95.3 -190.9 77.5 164 164 164
96.7 -190.1 77.2 164 164 164
100.5 -194.1 78.8 165 165 165
101.9 -193.3 78.5 162 162 162
102.9 -191.7 77.8 162 162 162
106.9 -195.7 79.5 162 162 162
114.0 -205.2 83.3 165 165 165
114.5 -202.5 82.2 165 165 165
112.0 -194.9 79.1 162 162 162
114.8 -196.5 79.8 162 162 162
116.2 -195.7 79.5 163 163 163
117.5 -194.9 79.1 163 163 163
116.9 -190.9 77.5 163 163 163
116.3 -187.1 76.0 163 163 163
118.9 -185.6 75.4 159 162 161
123.1 -189.4 76.9 159 162 161
115.9 -175.8 71.4 160 163 162
54.5 -76.1 30.9 159 162 161
55.0 -75.9 30.8 159 162 161
56.5 -76.9 31.2 160 163 162
57.0 -76.6 31.1 160 163 162
137.3 -104.0 42.2 105 104 102
56.7 -38.5 15.6 194 194 194
56.8 -38.4 15.6 151 153 153
56.9 -38.2 15.5 197 200 199
57.1 -38.1 15.5 196 196 196
57.8 -38.3 15.5 207 207 207
58.2 -38.3 15.6 163 163 163
58.4 -38.2 15.5 163 166 165
58.6 -38.1 15.5 212 213 212
58.7 -38.0 15.4 191 191 191
58.9 -37.9 15.4 196 196 196
42.2 -178.2 73.0 163 163 163
42.6 -172.8 70.8 161 161 161
45.8 -178.8 73.3 163 163 163
49.4 -179.5 73.6 166 166 166
51.1 -179.5 73.6 166 166 166
52.8 -179.5 73.6 167 167 167
54.5 -179.5 73.6 167 167 167
54.5 -174.1 71.4 167 167 167
56.2 -174.1 71.4 167 167 167
57.9 -174.1 71.4 167 167 167
59.5 -174.1 71.4 164 164 164
61.2 -174.1 71.4 164 164 164
62.8 -174.1 71.4 164 164 164
64.3 -173.5 71.1 165 165 165
66.7 -175.4 71.9 165 165 165
67.6 -173.5 71.1 165 165 165
68.2 -170.9 70.1 165 165 165
70.6 -172.8 70.8 163 163 163
72.2 -172.8 70.8 163 163 163
73.3 -171.5 70.3 163 163 163
75.3 -172.2 70.6 164 164 164
78.4 -175.4 71.9 164 164 164
80.3 -176.1 72.2 164 164 164
81.4 -174.8 71.7 164 164 164
81.8 -172.2 70.6 164 164 164
85.0 -175.4 71.9 164 164 164
86.7 -175.4 71.9 164 164 164
86.1 -170.9 70.1 164 164 164
87.1 -169.6 69.5 164 164 164
92.1 -176.1 72.2 165 165 165
93.8 -176.1 72.2 165 165 165
93.7 -172.8 70.8 165 165 165
100.2 -181.7 74.5 165 165 165
102.7 -183.1 75.1 165 165 165
104.9 -183.8 75.4 165 165 165
103.3 -178.2 73.0 165 165 165
103.8 -176.1 72.2 166 166 166
108.4 -181.0 74.2 166 166 166
111.0 -182.4 74.8 166 166 166
109.3 -176.8 72.5 166 166 166
111.4 -177.5 72.8 166 166 166
116.6 -180.2 73.9 164 164 164
119.2 -181.7 74.5 164 164 164
115.1 -172.8 70.8 164 164 164
107.5 -159.1 65.2 165 165 165
56.0 -76.4 31.3 162 165 164
74.1 -96.1 39.4 161 164 163
74.4 -95.3 39.1 161 164 163
71.2 -90.1 36.9 160 160 160
69.3 -86.7 35.6 161 161 161
131.1 -98.4 40.3 105 104 102
123.4 -91.9 37.7 105 104 102
71.1 -50.1 20.5 96 96 96
71.4 -50.0 20.5 93 93 93
72.0 -50.1 20.5 91 91 91
56.5 -37.8 15.5 151 153 153
55.9 -37.2 15.2 197 200 199
55.0 -36.4 14.9 196 196 196
57.5 -37.5 15.4 212 213 212
56.9 -36.9 15.1 212 213 212
56.7 -36.5 15.0 200 202 202
56.4 -36.1 14.8 196 196 196
56.4 -35.9 14.7 216 216 216
28.7 -130.6 54.0 164 164 164
29.8 -129.8 53.7 164 164 164
31.1 -129.8 53.7 166 166 166
34.0 -131.3 54.4 166 166 166
34.7 -129.5 53.6 168 170 169
36.1 -129.8 53.7 168 170 169
37.6 -131.0 54.2 169 171 170
38.7 -130.2 53.9 167 167 167
39.9 -130.2 53.9 167 167 167
41.2 -130.2 53.9 167 167 167
42.4 -130.2 53.9 167 167 167
43.7 -130.2 53.9 164 164 164
44.9 -130.2 53.9 164 164 164
46.2 -130.2 53.9 164 164 164
47.4 -130.2 53.9 164 164 164
48.7 -130.2 53.9 165 165 165
49.9 -130.2 53.9 165 165 165
51.2 -130.2 53.9 165 165 165
52.6 -130.6 54.0 165 165 165
53.6 -129.8 53.7 163 163 163
54.8 -129.8 53.7 163 163 163
56.2 -130.2 53.9 163 163 163
57.3 -129.8 53.7 164 164 164
58.7 -130.2 53.9 164 164 164
60.1 -130.6 54.0 166 166 166
61.4 -130.6 54.0 166 166 166
62.7 -130.6 54.0 166 166 166
63.9 -130.6 54.0 166 166 166
65.2 -130.6 54.0 166 166 166
66.4 -130.6 54.0 166 166 166
67.3 -129.8 53.7 166 166 166
68.5 -129.8 53.7 167 167 167
70.0 -130.2 53.9 167 167 167
70.8 -129.5 53.6 167 167 167
73.5 -132.1 54.7 167 167 167
74.8 -132.1 54.7 167 167 167
75.6 -131.3 54.4 167 167 167
78.7 -134.4 55.6 167 167 167
80.0 -134.4 55.6 168 168 168
137.0 -222.9 92.3 168 168 168
82.5 -130.2 53.9 163 163 163
133.2 -204.0 84.4 167 167 167
134.0 -202.2 83.7 167 167 167
129.1 -192.0 79.5 167 167 167
74.9 -96.2 39.8 161 164 163
74.5 -94.6 39.2 161 164 163
68.2 -84.5 35.0 161 161 161
128.4 -95.4 39.5 105 104 102
120.3 -88.7 36.7 105 104 102
70.2 -49.0 20.3 93 93 93
69.7 -48.4 20.0 93 93 93
69.9 -48.2 19.9 91 91 91
69.8 -47.8 19.8 93 93 93
54.8 -36.1 14.9 191 191 191
53.7 -35.2 14.6 196 196 196
55.6 -35.7 14.8 205 205 205
55.3 -35.3 14.6 180 183 182
55.1 -34.9 14.5 218 218 218
55.0 -34.7 14.4 212 213 212
26.2 -113.2 47.3 166 166 166
27.3 -113.2 47.3 166 166 166
28.4 -112.9 47.2 166 166 166
29.4 -112.6 47.1 168 170 169
30.6 -113.2 47.3 168 170 169
31.6 -112.6 47.1 168 170 169
33.2 -114.3 47.8 169 171 170
33.9 -113.2 47.3 167 167 167
35.0 -113.2 47.3 167 167 167
36.1 -113.2 47.3 167 167 167
37.2 -113.2 47.3 167 167 167
38.3 -113.2 47.3 167 167 167
39.4 -113.2 47.3 164 164 164
40.5 -113.2 47.3 164 164 164
41.6 -113.2 47.3 164 164 164
42.7 -113.2 47.3 165 165 165
43.8 -113.2 47.3 165 165 165
44.9 -113.2 47.3 165 165 165
46.0 -113.2 47.3 165 165 165
47.1 -113.2 47.3 165 165 165
48.7 -114.3 47.8 165 165 165
49.3 -113.2 47.3 165 165 165
50.4 -113.2 47.3 166 166 166
51.5 -113.2 47.3 166 166 166
52.6 -113.2 47.3 166 166 166
53.7 -113.2 47.3 166 166 166
54.8 -113.2 47.3 166 166 166
55.9 -113.2 47.3 169 169 169
57.0 -113.2 47.3 169 169 169
58.1 -113.2 47.3 169 169 169
59.4 -113.4 47.4 170 171 170
60.3 -113.2 47.3 170 171 170
61.4 -113.2 47.3 170 171 170
62.4 -112.9 47.2 170 171 170
64.1 -114.0 47.6 170 171 170
65.4 -114.3 47.8 170 171 170
66.0 -113.4 47.4 170 171 170
68.1 -115.2 48.1 170 171 170
68.4 -113.7 47.5 170 171 170
142.6 -229.8 96.0 172 172 172
133.3 -211.5 88.4 172 172 172
128.2 -200.3 83.7 172 172 172
133.2 -202.1 84.4 169 169 169
135.8 -203.0 84.8 169 169 169
132.4 -195.1 81.5 169 169 169
39.7 -50.5 21.1 169 169 169
40.2 -50.5 21.1 164 167 166
40.4 -50.2 21.0 161 164 163
116.0 -84.8 35.4 105 104 102
107.5 -78.0 32.6 105 104 102
69.3 -47.9 20.0 93 93 93
68.8 -47.2 19.7 93 93 93
68.5 -46.8 19.5 93 93 93
68.3 -46.3 19.4 93 93 93
54.5 -34.4 14.4 218 218 218
54.1 -34.0 14.2 218 218 218
53.9 -33.7 14.1 216 216 216
43.2 -100.3 42.3 170 172 172
44.0 -100.1 42.2 165 165 165
45.2 -100.5 42.4 168 168 168
46.0 -100.1 42.2 169 169 169
39.5 -84.1 35.5 171 173 173
49.9 -100.1 42.2 169 169 169
50.8 -99.8 42.1 171 173 173
55.3 -104.7 44.2 171 173 173
53.9 -100.1 42.2 172 174 174
57.1 -104.2 44.0 172 174 174
59.0 -105.7 44.6 172 174 174
62.2 -106.0 44.7 172 174 174
61.1 -102.3 43.2 172 174 174
60.7 -100.1 42.2 170 171 170
160.5 -256.1 108.1 173 175 175
139.1 -218.7 92.3 173 175 175
54.9 -82.4 34.8 174 176 176
136.4 -201.9 85.2 174 176 176
144.5 -186.8 78.8 172 172 172
68.4 -46.5 19.6 93 93 93
67.3 -45.5 19.2 93 93 93
66.3 -44.5 18.8 91 91 91
51.4 -31.8 13.4 216 216 216
41.2 -80.1 34.1 179 179 179
41.2 -77.2 32.9 179 179 179
44.8 -81.0 34.5 175 177 177
43.3 -76.8 32.7 182 182 182
43.3 -75.6 32.2 175 177 177
49.0 -81.3 34.6 182 182 182
49.6 -80.8 34.5 181 181 181
188.5 -284.5 121.3 176 179 178
53.3 -79.3 33.8 177 180 179
52.6 -77.1 32.8 177 180 179
53.6 -77.5 33.0 177 180 179
28.2 -38.0 16.2 176 179 178
58.0 -75.2 32.1 177 180 179
55.9 -71.6 30.5 180 183 182
42.2 -26.3 11.2 212 213 212
42.3 -26.2 11.2 218 218 218
42.5 -26.2 11.2 218 218 218
43.0 -26.3 11.2 218 218 218
40.6 -70.1 30.2 198 198 198
41.0 -69.6 30.0 196 196 196
46.5 -76.3 32.8 202 202 202
47.1 -76.2 32.8 198 198 198
47.0 -74.7 32.2 198 198 198
182.2 -276.4 119.0 202 202 202
189.7 -283.5 122.0 198 198 198
50.9 -75.0 32.3 197 197 197
51.5 -74.7 32.2 197 197 197
53.1 -75.9 32.7 197 197 197
27.8 -37.6 16.2 200 200 200
27.8 -37.1 16.0 202 202 202
58.8 -75.5 32.5 203 203 203
56.4 -71.5 30.8 200 200 200
67.8 -46.5 20.0 97 100 99
66.9 -45.5 19.6 99 101 101
39.4 -68.5 29.8 205 205 205
40.1 -68.5 29.8 205 205 205
40.3 -67.7 29.4 202 202 202
44.6 -71.3 31.0 202 202 202
44.4 -69.8 30.4 205 205 205
44.7 -69.3 30.1 205 205 205
191.8 -288.1 125.3 205 205 205
188.5 -278.9 121.3 205 205 205
48.1 -70.1 30.5 206 206 206
49.8 -71.6 31.1 206 206 206
52.2 -74.0 32.2 206 206 206
27.4 -36.3 15.8 205 205 205
59.3 -75.4 32.8 209 209 209
57.9 -72.6 31.6 206 206 206
67.5 -46.1 20.0 99 101 101
67.4 -45.7 19.9 99 101 101
38.1 -23.0 10.0 212 213 212
38.4 -67.4 29.6 205 205 205
39.6 -67.1 29.5 205 205 205
39.6 -65.9 29.0 205 205 205
44.2 -68.8 30.2 205 205 205
43.9 -67.3 29.6 205 205 205
187.3 -274.3 120.5 205 205 205
47.8 -69.0 30.3 203 203 203
48.5 -69.0 30.3 203 203 203
27.2 -36.1 15.8 207 207 207
27.3 -35.7 15.7 208 208 208
26.5 -33.7 14.8 208 208 208
60.0 -75.4 33.1 206 206 206
58.4 -72.5 31.8 206 206 206
66.1 -44.7 19.6 107 107 107
34.2 -56.3 25.0 205 205 205
34.8 -56.3 25.0 205 205 205
43.9 -70.0 31.1 205 205 205
44.5 -69.6 30.9 208 208 208
44.6 -68.7 30.5 205 205 205
43.8 -66.5 29.5 205 205 205
53.1 -73.6 32.7 206 206 206
55.4 -75.8 33.7 207 207 207
27.5 -35.6 15.8 208 208 208
27.0 -34.5 15.3 208 208 208
26.5 -33.4 14.8 208 208 208
65.5 -43.8 19.4 109 109 109
63.8 -42.4 18.8 107 107 107
44.0 -69.4 31.1 208 208 208
44.5 -69.0 31.0 208 208 208
43.9 -67.1 30.1 208 208 208
43.8 -65.8 29.5 208 208 208
47.7 -67.5 30.3 208 208 208
53.5 -73.5 33.0 209 209 209
55.7 -75.5 33.8 206 206 206
56.4 -75.3 33.8 206 206 206
27.5 -35.7 16.0 210 210 210
27.6 -35.4 15.9 207 207 207
27.1 -34.2 15.3 207 207 207
26.6 -33.2 14.9 208 208 208
24.2 -25.3 11.3 161 161 161
70.6 -47.1 21.1 112 112 112
66.5 -44.0 19.7 109 109 109
44.2 -68.9 31.2 207 207 207
44.7 -68.5 31.1 207 207 207
44.7 -67.4 30.6 207 207 207
40.2 -58.9 26.7 207 207 207
40.5 -58.3 26.4 207 207 207
47.7 -66.8 30.3 207 207 207
56.9 -76.2 34.5 208 208 208
58.5 -77.3 35.0 206 206 206
27.5 -35.4 16.0 206 206 206
27.7 -35.1 15.9 207 207 207
27.1 -33.9 15.4 207 207 207
26.5 -32.7 14.8 207 207 207
39.8 -57.7 26.4 206 206 206
40.1 -57.2 26.2 206 206 206
47.0 -65.0 29.8 207 207 207
54.8 -73.6 33.7 207 207 207
57.1 -75.7 34.6 207 207 207
59.0 -77.1 35.3 208 208 208
68.2 -87.9 40.2 205 205 205
27.5 -35.0 16.0 206 206 206
27.7 -34.8 15.9 206 206 206
27.1 -33.6 15.4 206 206 206
26.5 -32.4 14.8 206 206 206
26.5 -26.8 12.3 164 167 166
-7.1 -22.0 10.2 134 136 135
40.2 -56.7 26.2 206 206 206
39.9 -55.5 25.7 206 206 206
46.6 -63.9 29.6 206 206 206
52.2 -70.5 32.6 206 206 206
53.7 -71.4 33.1 207 207 207
27.6 -34.3 15.9 205 205 205
27.1 -33.2 15.4 205 205 205
26.5 -32.1 14.8 206 206 206
-29.3 -22.3 10.4 43 43 43
-29.2 -22.3 10.5 46 46 44
-29.0 -22.3 10.5 46 46 44
-28.7 -22.3 10.5 46 46 44
-28.5 -22.3 10.5 46 46 44
-28.2 -22.3 10.5 43 43 43
-28.0 -22.3 10.5 46 46 44
-27.7 -22.3 10.5 46 46 44
-27.5 -22.3 10.5 46 46 44
-27.2 -22.3 10.5 50 50 50
-27.0 -22.3 10.5 48 48 48
-26.8 -22.3 10.5 46 46 44
-26.5 -22.3 10.4 46 46 44
-26.3 -22.3 10.5 42 43 42
-26.0 -22.3 10.5 42 43 42
-25.8 -22.3 10.5 42 43 42
-25.5 -22.3 10.5 42 43 42
-25.3 -22.3 10.5 42 43 42
-25.1 -22.3 10.5 41 41 41
-24.8 -22.3 10.5 38 38 38
-24.6 -22.3 10.5 38 38 38
-24.3 -22.4 10.5 38 38 38
-24.1 -22.4 10.5 38 38 38
-23.9 -22.4 10.5 38 38 38
-23.6 -22.4 10.5 38 38 38
-23.4 -22.3 10.5 38 38 38
-23.1 -22.3 10.5 38 38 38
-22.9 -22.3 10.5 41 41 41
-22.6 -22.3 10.5 42 43 42
-22.4 -22.3 10.5 42 43 42
-22.1 -22.3 10.5 46 45 43
-21.9 -22.3 10.5 46 45 43
-21.7 -22.3 10.5 49 49 49
-21.4 -22.3 10.5 52 54 52
-21.2 -22.3 10.5 62 62 62
-20.9 -22.3 10.4 80 83 82
-20.7 -22.4 10.5 85 85 85
-20.2 -22.4 10.5 95 95 95
-20.0 -22.3 10.5 98 100 100
-19.7 -22.3 10.4 104 104 104
-19.5 -22.3 10.4 106 106 106
-19.2 -22.3 10.5 104 104 104
-19.0 -22.3 10.5 106 106 106
-18.8 -22.4 10.5 106 106 106
-18.6 -22.4 10.5 106 106 106
-18.3 -22.4 10.5 107 107 107
-18.0 -22.3 10.5 108 110 110
-17.8 -22.4 10.5 108 110 110
-17.5 -22.4 10.5 110 112 111
-17.3 -22.3 10.4 110 112 111
-17.0 -22.3 10.4 110 112 111
-16.8 -22.3 10.4 113 114 113
-16.6 -22.4 10.5 115 115 115
-16.3 -22.4 10.5 115 115 115
-16.1 -22.3 10.5 117 117 117
-14.6 -22.4 10.5 119 121 120
-14.4 -22.4 10.5 119 121 120
-14.2 -22.4 10.5 120 122 121
-13.8 -22.2 10.4 120 122 121
-10.3 -22.5 10.5 131 131 131
-10.0 -22.4 10.5 131 131 131
-9.8 -22.4 10.5 132 135 134
-9.5 -22.3 10.4 135 135 135
-9.3 -22.3 10.5 137 137 137
-9.0 -22.4 10.5 137 139 138
-8.8 -22.5 10.5 140 140 140
-8.5 -22.3 10.5 140 140 140
-8.3 -22.3 10.4 139 141 140
-8.1 -22.4 10.5 138 140 139
-7.8 -22.3 10.5 138 140 139
-7.5 -22.3 10.4 139 139 139
-7.3 -22.4 10.5 140 140 140
-7.1 -22.5 10.5 143 143 142
-6.8 -22.4 10.5 141 143 142
-6.6 -22.3 10.5 144 144 144
-5.4 -22.4 10.5 165 165 165
-5.1 -22.3 10.5 164 167 166
-4.9 -22.3 10.5 163 166 165
-4.6 -22.3 10.5 161 164 163
-4.4 -22.4 10.5 167 167 167
-4.2 -22.4 10.5 168 168 168
-3.9 -22.4 10.5 170 171 170
-3.7 -22.4 10.5 168 168 168
-3.4 -22.3 10.5 169 169 169
-3.2 -22.3 10.5 171 173 173
-3.0 -22.4 10.5 169 169 169
-2.7 -22.4 10.5 171 173 173
-2.5 -22.4 10.5 171 173 173
-2.2 -22.3 10.4 171 173 173
-2.0 -22.4 10.5 174 176 176
-1.7 -22.4 10.5 173 175 175
40.6 -55.8 26.1 205 205 205
46.3 -62.7 29.3 206 206 206
47.0 -62.8 29.4 206 206 206
53.2 -70.1 32.8 206 206 206
27.5 -33.8 15.8 204 204 204
27.1 -32.8 15.4 205 205 205
26.5 -31.7 14.8 205 205 205
26.5 -31.3 14.7 205 205 205
-30.5 -22.9 10.8 47 46 45
-30.4 -23.0 10.9 47 46 45
-30.1 -23.0 10.9 47 46 45
-29.4 -23.0 10.9 51 51 51
-29.1 -23.0 10.9 51 51 51
-28.9 -23.0 10.9 51 51 51
-28.3 -23.0 10.9 51 51 51
-27.1 -23.0 10.9 47 46 45
-26.1 -23.0 10.9 42 42 42
-25.8 -23.0 10.9 42 42 42
-25.3 -22.9 10.9 43 43 43
-25.0 -22.9 10.8 42 42 42
-24.7 -22.9 10.8 39 39 39
-22.8 -23.0 10.9 42 42 42
-22.6 -23.0 10.9 42 42 42
-22.3 -23.0 10.9 42 43 42
-22.0 -22.9 10.8 46 46 44
-21.6 -23.1 10.9 46 46 44
-21.3 -23.0 10.9 66 68 67
-21.0 -23.0 10.9 87 87 87
-19.8 -23.0 10.9 99 101 101
-19.5 -23.0 10.9 103 103 103
-19.2 -22.9 10.8 103 103 103
-18.5 -23.0 10.9 105 105 105
-18.2 -23.0 10.9 107 107 107
-17.2 -22.9 10.8 109 111 111
-14.4 -22.5 10.7 119 119 119
-10.7 -23.0 10.9 126 128 127
-10.4 -23.0 10.9 128 128 128
-9.7 -22.5 10.7 131 134 133
-9.5 -22.6 10.7 134 134 134
-9.5 -23.2 11.0 135 135 135
-9.1 -22.9 10.8 134 137 136
42.6 -59.7 28.2 207 207 207
41.9 -57.8 27.3 207 207 207
41.8 -56.9 26.9 205 205 205
46.2 -61.9 29.3 205 205 205
46.8 -61.8 29.2 205 205 205
27.1 -32.5 15.4 207 207 207
26.6 -31.5 14.9 207 207 207
26.7 -31.1 14.7 207 207 207
-35.8 -26.6 12.7 50 50 50
-35.6 -26.6 12.7 50 50 50
-35.3 -26.6 12.7 50 50 50
-35.0 -26.6 12.7 50 50 50
-34.7 -26.6 12.7 50 50 50
-34.4 -26.6 12.7 52 52 52
-34.1 -26.6 12.7 52 52 52
-33.8 -26.6 12.7 50 50 50
-33.5 -26.6 12.7 50 50 50
-33.2 -26.6 12.7 52 52 52
-32.9 -26.6 12.7 50 50 50
-32.6 -26.6 12.7 50 50 50
-32.3 -26.6 12.7 48 47 46
-32.0 -26.6 12.7 52 52 52
-31.7 -26.6 12.7 50 50 50
-31.4 -26.6 12.7 48 47 46
-31.1 -26.6 12.7 44 44 44
-30.8 -26.6 12.7 44 44 44
-30.6 -26.7 12.8 42 43 42
-30.2 -26.6 12.7 42 43 42
-29.9 -26.6 12.7 42 43 42
-29.6 -26.6 12.7 42 43 42
-29.3 -26.6 12.7 42 43 42
-29.1 -26.6 12.7 42 43 42
-28.8 -26.6 12.7 42 43 42
-28.6 -26.8 12.8 40 40 40
-28.2 -26.6 12.7 42 43 42
-27.9 -26.6 12.7 42 43 42
-27.6 -26.6 12.7 42 43 42
-27.3 -26.6 12.7 40 40 40
-26.9 -26.6 12.7 41 41 41
-26.7 -26.7 12.8 41 41 41
-26.6 -26.9 12.9 41 41 41
-26.1 -26.7 12.8 41 41 41
-25.8 -26.6 12.7 43 43 43
-25.5 -26.6 12.7 43 43 43
-25.2 -26.6 12.7 45 45 45
-24.9 -26.6 12.7 49 49 49
-24.7 -26.7 12.8 45 45 45
-24.3 -26.7 12.8 48 47 46
-24.0 -26.6 12.7 81 81 81
-23.7 -26.6 12.7 93 93 93
-23.5 -26.7 12.8 95 95 95
-23.1 -26.6 12.7 95 95 95
-23.0 -26.8 12.8 97 97 97
-22.6 -26.6 12.7 99 101 101
-22.2 -26.6 12.7 99 101 101
-21.9 -26.6 12.7 99 101 101
-21.6 -26.6 12.7 99 101 101
-21.3 -26.6 12.7 101 103 103
-21.1 -26.6 12.7 105 105 105
-20.9 -26.8 12.8 105 105 105
-20.6 -26.8 12.8 105 105 105
-13.5 -26.9 12.9 121 121 121
-13.1 -26.7 12.8 117 117 117
-12.8 -26.8 12.8 121 121 121
-12.5 -26.8 12.8 122 121 120
-10.7 -26.7 12.8 126 129 128
-9.2 -26.6 12.7 152 152 152
-9.0 -26.8 12.8 151 151 151
-8.6 -26.7 12.8 154 156 156
-8.4 -26.7 12.8 152 154 154
-8.1 -26.8 12.8 164 164 164
-7.8 -26.8 12.8 169 169 169
-7.5 -26.8 12.8 169 171 170
-7.2 -26.8 12.8 170 172 172
-6.9 -26.8 12.8 177 177 177
-6.6 -26.8 12.8 177 177 177
-6.3 -26.8 12.8 177 180 179
-6.0 -26.8 12.8 176 179 178
-5.7 -26.8 12.8 186 186 186
-5.4 -26.8 12.8 185 185 185
-5.1 -26.8 12.8 190 190 190
-4.8 -26.8 12.8 190 190 190
-4.5 -26.8 12.8 189 189 189
-4.2 -26.8 12.8 188 188 188
-3.9 -26.8 12.8 188 188 188
-3.6 -26.8 12.8 188 188 188
-3.3 -26.8 12.8 188 188 188
-3.0 -26.8 12.8 188 188 188
-2.7 -26.7 12.8 188 188 188
-0.6 -26.8 12.8 180 180 180
-0.3 -26.8 12.8 183 183 183
-0.0 -26.8 12.8 183 183 183
0.3 -26.7 12.8 182 182 182
0.6 -26.9 12.9 182 182 182
0.9 -27.0 12.9 182 182 182
1.2 -26.8 12.8 182 182 182
1.5 -26.8 12.8 182 182 182
1.7 -26.8 12.8 182 182 182
2.0 -26.8 12.8 182 182 182
2.6 -26.8 12.8 182 182 182
2.9 -26.8 12.8 182 182 182
3.2 -26.8 12.8 182 182 182
3.5 -26.6 12.7 181 181 181
5.3 -26.6 12.7 176 176 176
5.6 -26.7 12.8 181 181 181
6.5 -26.8 12.8 207 207 207
6.8 -26.6 12.7 207 207 207
7.1 -26.6 12.7 207 207 207
7.4 -26.8 12.8 207 207 207
7.7 -26.8 12.8 207 207 207
8.0 -26.8 12.8 207 207 207
8.3 -26.8 12.8 207 207 207
8.9 -26.9 12.9 207 207 207
9.2 -26.9 12.9 207 207 207
9.5 -26.8 12.8 207 207 207
9.8 -26.7 12.8 207 207 207
10.0 -26.7 12.8 207 207 207
10.4 -26.9 12.9 207 207 207
10.7 -26.8 12.8 207 207 207
11.0 -26.8 12.8 207 207 207
11.2 -26.6 12.7 207 207 207
11.5 -26.6 12.7 207 207 207
11.9 -26.8 12.8 207 207 207
12.2 -26.8 12.8 207 207 207
12.4 -26.7 12.8 207 207 207
12.8 -26.8 12.8 207 207 207
13.4 -26.8 12.8 207 207 207
13.6 -26.7 12.8 207 207 207
14.3 -26.9 12.9 207 207 207
14.5 -26.6 12.7 207 207 207
14.7 -26.6 12.7 207 207 207
15.1 -26.8 12.8 207 207 207
15.5 -26.8 12.8 207 207 207
15.8 -26.8 12.8 207 207 207
16.0 -26.8 12.8 207 207 207
16.3 -26.7 12.8 207 207 207
41.2 -57.1 27.3 207 207 207
41.3 -56.3 26.9 207 207 207
41.5 -55.9 26.7 207 207 207
41.9 -55.5 26.6 204 204 204
-36.5 -26.8 13.0 50 50 50
-36.3 -26.9 13.0 50 50 50
-36.0 -26.9 13.0 50 50 50
-35.7 -26.9 13.0 50 50 50
-35.4 -26.9 13.0 50 50 50
-35.1 -26.9 13.0 50 50 50
-34.8 -26.9 13.0 53 52 52
-34.5 -26.9 13.0 53 52 52
-34.2 -26.9 13.0 50 50 50
-33.9 -26.9 13.0 50 50 50
-33.6 -26.9 13.0 50 50 50
-33.3 -26.9 13.0 50 50 50
-33.0 -26.9 13.0 50 50 50
-32.7 -26.9 13.0 53 52 52
-32.4 -26.9 13.0 50 50 50
-32.0 -26.9 13.0 49 48 47
-31.7 -26.9 13.0 49 48 47
-31.4 -26.9 13.0 45 45 45
-31.1 -26.9 13.0 45 45 45
-30.9 -26.9 13.0 43 43 43
-30.6 -26.9 13.0 43 43 43
-30.3 -26.9 13.0 45 45 45
-30.0 -26.9 13.0 43 43 43
-29.7 -26.9 13.0 43 43 43
-29.4 -26.9 13.0 43 43 43
-29.1 -26.9 13.0 41 41 41
-28.8 -26.9 13.0 43 43 43
-28.5 -26.9 13.0 43 43 43
-28.2 -26.9 13.0 43 43 43
-27.9 -26.9 13.0 42 42 42
-27.5 -26.9 13.0 42 42 42
-27.2 -26.9 13.0 42 42 42
-27.0 -27.0 13.0 42 42 42
-26.7 -26.9 13.0 39 39 39
-26.3 -26.9 13.0 39 39 39
-26.0 -26.9 13.0 42 42 42
-25.7 -26.9 13.0 42 42 42
-25.5 -26.9 13.0 42 43 42
-25.2 -27.0 13.0 44 44 44
-24.9 -27.0 13.0 46 46 46
-24.6 -27.0 13.0 49 48 47
-24.2 -26.9 13.0 47 47 47
-23.9 -26.9 13.0 66 66 66
-23.6 -26.9 13.0 83 85 85
-23.3 -26.9 13.0 92 95 94
-23.0 -26.9 13.0 91 93 92
-22.7 -26.9 13.0 92 95 94
-22.4 -26.9 13.0 97 97 97
-22.1 -26.9 13.0 99 99 99
-21.7 -26.8 13.0 100 100 100
-13.4 -27.1 13.1 111 113 112
-13.1 -27.0 13.1 111 113 112
-12.7 -26.9 13.0 115 114 114
-12.4 -26.8 13.0 108 110 110
-11.2 -26.7 12.9 111 111 111
-10.9 -26.8 13.0 110 110 110
-9.7 -27.0 13.0 167 167 167
-8.8 -26.9 13.0 162 165 164
-8.2 -26.9 13.0 179 179 179
-7.9 -26.9 13.0 177 177 177
-7.6 -26.9 13.0 180 183 182
-7.3 -26.9 13.0 189 189 189
-7.0 -26.9 13.0 192 192 192
-6.7 -26.9 13.0 193 193 193
-6.4 -26.9 13.0 193 193 193
-6.1 -26.9 13.0 192 192 192
-5.8 -26.9 13.0 193 193 193
-5.5 -26.9 13.0 193 193 193
-5.2 -26.9 13.0 194 194 194
-4.9 -26.9 13.0 193 193 193
-4.6 -26.9 13.0 192 192 192
-4.3 -26.9 13.0 189 189 189
-4.0 -26.9 13.0 189 189 189
-3.7 -26.9 13.0 192 192 192
-3.4 -26.9 13.0 189 189 189
-3.1 -26.9 13.0 189 189 189
-2.8 -26.9 13.0 189 189 189
-2.5 -26.9 13.0 189 189 189
-2.2 -26.9 13.0 185 185 185
-1.6 -26.9 13.0 185 185 185
-1.2 -26.9 13.0 185 185 185
-0.9 -27.0 13.0 185 185 185
-0.6 -26.9 13.0 185 185 185
-0.3 -26.9 13.0 185 185 185
-0.0 -26.9 13.0 185 185 185
0.3 -26.9 13.0 185 185 185
0.6 -26.9 13.0 185 185 185
0.9 -27.0 13.0 185 185 185
1.2 -26.9 13.0 185 185 185
1.5 -26.9 13.0 185 185 185
1.8 -26.9 13.0 184 184 184
2.1 -26.9 13.0 184 184 184
2.4 -26.9 13.0 184 184 184
2.7 -26.8 13.0 184 184 184
3.3 -27.0 13.0 181 181 181
3.6 -26.8 13.0 181 181 181
3.9 -26.9 13.0 181 181 181
4.2 -26.9 13.0 180 180 180
4.5 -26.9 13.0 180 180 180
5.4 -26.9 13.0 177 177 177
5.7 -26.8 13.0 175 175 175
6.3 -26.9 13.0 206 206 206
6.6 -26.9 13.0 206 206 206
6.9 -26.9 13.0 206 206 206
7.2 -27.0 13.0 206 206 206
7.5 -26.9 13.0 206 206 206
7.8 -26.9 13.0 206 206 206
8.1 -26.9 13.0 206 206 206
8.4 -26.9 13.0 206 206 206
8.7 -26.9 13.0 206 206 206
9.0 -26.9 13.0 206 206 206
9.3 -26.9 13.0 206 206 206
9.6 -26.9 13.0 206 206 206
9.9 -26.9 13.0 206 206 206
10.3 -26.9 13.0 206 206 206
10.6 -26.9 13.0 206 206 206
10.9 -26.9 13.0 206 206 206
11.2 -27.0 13.0 206 206 206
11.5 -26.9 13.0 206 206 206
11.7 -26.9 13.0 206 206 206
12.1 -27.0 13.0 206 206 206
12.4 -26.9 13.0 206 206 206
12.7 -26.9 13.0 206 206 206
13.0 -26.9 13.0 206 206 206
13.3 -26.9 13.0 206 206 206
13.6 -26.9 13.0 206 206 206
14.3 -27.1 13.1 206 206 206
14.5 -26.9 13.0 206 206 206
14.8 -26.9 13.0 206 206 206
15.1 -26.9 13.0 206 206 206
15.4 -26.9 13.0 206 206 206
15.7 -26.9 13.0 206 206 206
16.0 -26.9 13.0 206 206 206
16.3 -26.9 13.0 206 206 206
41.2 -56.5 27.3 206 206 206
41.2 -55.6 26.9 206 206 206
41.5 -55.2 26.7 206 206 206
41.9 -54.8 26.5 209 209 209
42.6 -54.2 26.2 207 207 207
27.2 -30.2 14.6 206 206 206
-43.2 -31.3 15.3 51 51 51
-43.4 -31.7 15.5 53 53 53
-43.0 -31.7 15.5 51 51 51
-42.6 -31.7 15.5 51 51 51
-42.3 -31.7 15.5 51 51 51
-41.9 -31.7 15.5 51 51 51
-41.1 -31.4 15.4 53 53 53
-41.2 -31.7 15.5 53 53 53
-40.9 -31.8 15.5 53 53 53
-40.5 -31.8 15.5 53 53 53
-40.1 -31.7 15.5 53 53 53
-39.8 -31.7 15.5 53 53 53
-39.0 -31.7 15.5 51 51 51
-36.9 -31.8 15.5 46 46 46
-36.5 -31.7 15.5 46 46 46
-35.4 -31.7 15.5 44 44 44
-35.1 -31.8 15.5 44 44 44
-33.3 -31.8 15.6 45 45 45
-32.4 -31.3 15.3 42 43 42
-32.1 -31.4 15.3 40 40 40
-31.9 -31.5 15.4 42 43 42
-31.1 -31.7 15.5 42 43 42
-29.7 -31.0 15.2 41 41 41
-29.7 -31.4 15.4 41 41 41
-29.1 -31.1 15.2 43 43 43
-27.1 -31.7 15.5 94 97 96
-26.5 -31.8 15.6 93 96 95
-12.8 -26.7 13.1 73 73 73
11.5 -31.8 15.6 206 206 206
11.9 -31.8 15.6 206 206 206
12.1 -31.4 15.4 206 206 206
12.6 -31.7 15.5 206 206 206
13.0 -31.8 15.6 206 206 206
13.2 -31.4 15.4 209 209 209
15.9 -31.8 15.5 206 206 206
17.5 -31.4 15.4 206 206 206
17.9 -31.6 15.5 206 206 206
18.3 -31.7 15.5 206 206 206
19.1 -31.8 15.6 206 206 206
22.3 -31.7 15.5 206 206 206
41.3 -55.1 26.9 206 206 206
41.6 -54.8 26.8 206 206 206
41.2 -51.8 25.4 206 206 206
27.2 -29.9 14.6 206 206 206
-45.2 -32.4 16.0 53 53 53
-45.0 -32.6 16.1 53 53 53
-44.6 -32.5 16.1 53 53 53
-44.2 -32.5 16.1 52 52 52
-43.9 -32.6 16.1 52 52 52
-43.5 -32.6 16.1 52 52 52
-43.1 -32.6 16.1 53 53 53
-42.7 -32.6 16.1 56 56 56
-42.4 -32.6 16.1 56 56 56
-42.0 -32.6 16.1 56 56 56
-41.6 -32.6 16.1 54 54 54
-41.2 -32.5 16.1 54 54 54
-40.8 -32.5 16.1 56 56 56
-40.5 -32.6 16.1 52 52 52
-40.2 -32.6 16.1 52 52 52
-39.7 -32.6 16.1 50 49 48
-39.4 -32.6 16.1 51 50 48
-39.0 -32.6 16.1 47 47 47
-38.6 -32.6 16.1 47 47 47
-38.2 -32.6 16.1 47 47 47
-37.9 -32.6 16.1 47 47 47
-37.5 -32.6 16.1 47 48 47
-37.1 -32.6 16.1 47 48 47
-36.7 -32.6 16.1 47 48 47
-36.4 -32.6 16.1 45 45 45
-35.9 -32.5 16.1 45 45 45
-35.6 -32.5 16.1 45 45 45
-35.4 -32.7 16.2 47 48 47
-34.9 -32.6 16.1 47 48 47
-34.5 -32.5 16.1 46 46 46
-34.1 -32.5 16.1 46 46 46
-33.8 -32.6 16.1 46 46 46
-33.4 -32.5 16.1 46 46 46
-33.0 -32.5 16.1 43 43 43
-32.7 -32.6 16.1 46 46 46
-32.3 -32.6 16.1 44 44 44
-31.9 -32.6 16.1 44 44 44
-31.5 -32.6 16.1 42 42 42
-31.1 -32.5 16.1 42 42 42
-30.7 -32.5 16.1 40 40 40
-30.4 -32.5 16.1 40 40 40
-30.0 -32.6 16.1 40 40 40
-29.8 -32.7 16.2 45 45 45
-29.3 -32.6 16.2 45 45 45
-28.9 -32.6 16.1 43 43 43
-28.5 -32.6 16.1 43 43 43
-28.2 -32.6 16.1 47 48 47
-27.9 -32.7 16.2 49 49 49
-27.3 -32.5 16.1 88 88 88
-16.8 -32.4 16.0 25 25 25
-16.5 -32.5 16.1 21 24 22
-10.1 -24.4 12.1 32 32 32
10.1 -32.5 16.1 205 205 205
10.4 -32.6 16.1 205 205 205
10.8 -32.6 16.1 205 205 205
11.2 -32.6 16.1 208 208 208
11.6 -32.5 16.1 208 208 208
11.9 -32.5 16.1 205 205 205
12.3 -32.5 16.1 205 205 205
12.7 -32.5 16.1 205 205 205
13.0 -32.5 16.1 205 205 205
13.4 -32.5 16.1 205 205 205
13.8 -32.5 16.1 205 205 205
14.2 -32.6 16.1 205 205 205
16.1 -32.7 16.2 205 205 205
16.4 -32.5 16.1 205 205 205
16.8 -32.5 16.1 205 205 205
17.2 -32.5 16.1 205 205 205
17.6 -32.6 16.1 205 205 205
17.9 -32.6 16.1 205 205 205
18.3 -32.5 16.1 205 205 205
19.0 -32.5 16.1 205 205 205
19.5 -32.6 16.1 205 205 205
19.8 -32.6 16.1 205 205 205
20.2 -32.6 16.1 205 205 205
20.6 -32.6 16.1 205 205 205
20.9 -32.5 16.1 205 205 205
21.3 -32.6 16.1 205 205 205
21.7 -32.6 16.1 205 205 205
22.1 -32.6 16.1 205 205 205
22.5 -32.7 16.2 205 205 205
22.9 -32.7 16.2 205 205 205
23.2 -32.6 16.1 205 205 205
23.6 -32.7 16.2 205 205 205
23.9 -32.6 16.1 205 205 205
42.4 -56.8 28.1 205 205 205
41.5 -54.8 27.1 205 205 205
42.1 -54.7 27.1 205 205 205
41.1 -51.1 25.3 206 206 206
27.4 -29.8 14.8 205 205 205
27.2 -29.3 14.5 205 205 205
-46.0 -32.6 16.3 54 54 54
-46.1 -33.0 16.5 54 54 54
-45.7 -33.0 16.5 53 52 52
-45.7 -33.3 16.7 54 54 54
-44.9 -33.0 16.5 54 54 54
-44.6 -33.0 16.5 53 52 52
-44.2 -33.0 16.5 54 54 54
-43.8 -33.0 16.5 57 57 57
-43.4 -33.0 16.5 57 57 57
-43.0 -33.0 16.5 59 60 58
-42.7 -33.1 16.5 57 57 57
-42.4 -33.1 16.6 53 52 52
-41.9 -33.0 16.5 55 55 55
-41.6 -33.1 16.6 55 55 55
-41.4 -33.2 16.6 53 52 52
-41.0 -33.2 16.6 55 55 55
-40.3 -33.0 16.5 53 52 52
-40.0 -33.0 16.5 51 51 49
-39.6 -33.0 16.5 47 48 47
-39.2 -33.0 16.5 47 48 47
-38.8 -33.0 16.5 47 48 47
-38.8 -33.3 16.7 48 48 48
-38.0 -33.0 16.5 48 48 48
-37.9 -33.2 16.6 48 48 48
-37.6 -33.2 16.6 46 46 46
-36.7 -32.8 16.4 46 46 46
-36.3 -33.1 16.6 46 46 46
-35.8 -33.0 16.5 48 48 48
-35.3 -33.0 16.5 47 47 47
-35.1 -33.1 16.6 47 47 47
-34.7 -33.1 16.5 47 47 47
-34.1 -32.9 16.5 44 44 44
-33.9 -33.0 16.5 49 49 49
-33.5 -33.1 16.6 47 47 47
-33.2 -33.1 16.6 45 45 45
-32.8 -33.1 16.6 45 45 45
-32.2 -32.9 16.5 42 43 42
-31.6 -32.7 16.4 41 41 41
-31.5 -32.9 16.5 41 41 41
-31.4 -33.2 16.6 41 41 41
-30.9 -33.2 16.6 41 41 41
-30.5 -33.2 16.6 41 41 41
-29.9 -32.9 16.5 44 44 44
-29.5 -32.8 16.4 42 42 42
-29.0 -32.7 16.4 41 40 38
-28.7 -32.8 16.4 44 44 44
-28.4 -32.9 16.5 47 47 47
-17.1 -32.7 16.3 27 27 27
-16.8 -32.6 16.3 27 27 27
-16.4 -32.7 16.3 27 27 27
-10.1 -24.0 12.0 31 31 31
7.3 -24.1 12.1 205 205 205
10.9 -32.4 16.2 208 208 208
9.5 -24.1 12.0 205 205 205
10.3 -24.1 12.0 205 205 205
10.6 -24.1 12.1 205 205 205
10.9 -24.1 12.1 205 205 205
11.2 -24.0 12.0 205 205 205
11.4 -24.1 12.0 205 205 205
11.7 -24.1 12.1 205 205 205
16.2 -32.5 16.3 205 205 205
18.2 -32.6 16.3 205 205 205
14.0 -24.1 12.0 207 207 207
14.2 -24.0 12.0 204 204 204
19.6 -32.4 16.2 204 204 204
20.0 -32.5 16.3 204 204 204
20.4 -32.5 16.3 207 207 207
15.3 -24.0 12.0 207 207 207
22.8 -32.7 16.4 207 207 207
23.2 -32.7 16.4 204 204 204
23.5 -32.7 16.3 200 200 200
24.0 -32.8 16.4 204 204 204
24.2 -32.6 16.3 204 204 204
43.0 -57.0 28.5 200 200 200
42.2 -55.1 27.6 204 204 204
43.0 -55.3 27.7 204 204 204
45.1 -57.2 28.6 205 205 205
27.8 -29.9 15.0 204 204 204
28.2 -30.0 15.0 204 204 204
29.9 -29.9 15.0 205 205 205
29.9 -29.6 14.8 203 203 203
-34.2 -24.0 12.1 58 58 58
-47.3 -33.4 16.9 58 58 58
-46.9 -33.4 16.9 55 55 55
-46.2 -33.5 17.0 55 55 55
-44.5 -33.4 16.9 58 58 58
-43.2 -33.3 16.9 58 58 58
-30.8 -24.0 12.1 58 58 58
-42.6 -33.5 17.0 56 56 56
-42.1 -33.4 16.9 56 56 56
-41.7 -33.4 16.9 56 56 56
-29.4 -24.0 12.2 51 51 49
-38.6 -33.4 16.9 49 49 49
-27.1 -24.0 12.1 49 49 49
-26.9 -24.0 12.2 49 49 49
-37.1 -33.5 17.0 49 49 49
-36.6 -33.4 16.9 49 49 49
-36.3 -33.5 17.0 47 48 47
-36.1 -33.7 17.1 47 48 47
-35.5 -33.5 17.0 47 48 47
-35.4 -33.7 17.1 45 45 45
-35.2 -33.9 17.2 46 46 46
-34.9 -34.0 17.2 46 46 46
-33.9 -33.4 16.9 46 46 46
-34.1 -34.0 17.2 46 46 46
-33.4 -33.7 17.1 44 44 44
-31.4 -33.7 17.1 42 43 42
-30.5 -33.1 16.8 41 41 39
-30.0 -33.0 16.7 41 41 39
-29.5 -32.9 16.7 41 41 39
-21.3 -24.0 12.2 41 41 39
-20.9 -24.0 12.2 39 39 39
-20.6 -23.9 12.1 42 42 40
-20.5 -24.1 12.2 43 43 43
-20.2 -24.1 12.2 46 46 46
-19.8 -24.0 12.1 52 52 52
-19.2 -24.0 12.1 90 90 90
-18.7 -24.0 12.1 67 68 66
-10.8 -24.1 12.2 31 30 29
-10.4 -23.9 12.1 32 32 32
-10.1 -23.8 12.1 35 35 35
-6.5 -24.0 12.1 220 220 220
-6.2 -24.0 12.1 216 219 218
-6.0 -24.0 12.1 216 219 218
-5.7 -24.0 12.2 215 218 217
-5.1 -24.1 12.2 211 211 211
-4.8 -23.9 12.1 208 208 208
-4.5 -23.9 12.1 210 210 210
-3.7 -23.9 12.1 205 205 205
-3.4 -23.9 12.1 206 206 206
-2.6 -23.9 12.1 200 200 200
-2.3 -23.8 12.1 197 197 197
-2.0 -23.8 12.1 197 197 197
2.8 -23.9 12.1 190 190 190
3.0 -23.8 12.1 186 186 186
3.3 -23.8 12.1 186 186 186
3.6 -23.8 12.1 186 186 186
3.9 -23.8 12.1 181 181 181
7.1 -24.2 12.2 207 207 207
7.3 -24.0 12.1 209 209 209
7.6 -23.9 12.1 209 209 209
7.9 -24.1 12.2 207 207 207
8.1 -23.9 12.1 207 207 207
8.4 -23.8 12.1 207 207 207
8.7 -23.9 12.1 207 207 207
9.0 -24.1 12.2 207 207 207
9.3 -23.9 12.1 207 207 207
9.5 -23.9 12.1 207 207 207
9.8 -23.8 12.1 207 207 207
10.1 -24.0 12.1 204 204 204
10.4 -23.9 12.1 207 207 207
10.7 -24.0 12.1 207 207 207
10.9 -23.9 12.1 207 207 207
11.2 -23.9 12.1 204 204 204
11.5 -23.9 12.1 204 204 204
11.8 -23.9 12.1 204 204 204
12.0 -23.8 12.1 204 204 204
12.3 -23.8 12.1 204 204 204
12.6 -23.9 12.1 204 204 204
12.9 -23.9 12.1 204 204 204
13.2 -23.8 12.1 204 204 204
13.6 -24.2 12.3 204 204 204
13.9 -24.1 12.2 204 204 204
14.0 -23.9 12.1 207 207 207
14.3 -23.9 12.1 204 204 204
14.6 -23.9 12.1 204 204 204
15.1 -24.3 12.3 204 204 204
15.2 -24.0 12.2 207 207 207
15.4 -23.9 12.1 206 206 206
15.7 -23.8 12.1 206 206 206
16.0 -23.9 12.1 204 204 204
16.4 -24.0 12.2 204 204 204
16.6 -23.9 12.1 206 206 206
16.8 -23.9 12.1 206 206 206
43.2 -56.6 28.7 204 204 204
42.9 -55.3 28.0 204 204 204
43.4 -55.1 27.9 204 204 204
45.3 -56.7 28.7 204 204 204
46.2 -56.9 28.8 204 204 204
51.3 -61.4 31.1 204 204 204
28.1 -29.8 15.1 203 203 203
30.1 -30.2 15.3 204 204 204
30.2 -29.9 15.1 205 205 205
30.2 -29.5 15.0 202 202 202
30.6 -29.5 15.0 203 203 203
-35.0 -24.3 12.4 58 58 58
-32.9 -24.2 12.4 58 59 59
-32.1 -24.3 12.4 56 56 56
-31.8 -24.3 12.4 60 62 60
-31.2 -24.3 12.4 58 59 59
-28.3 -24.2 12.4 53 52 51
-28.1 -24.3 12.4 50 50 50
-27.8 -24.3 12.4 50 50 50
-27.5 -24.3 12.4 50 50 50
-27.2 -24.3 12.4 50 50 50
-26.9 -24.2 12.4 50 50 50
-26.3 -24.2 12.4 48 48 48
-25.5 -24.3 12.4 47 47 47
-25.2 -24.3 12.5 47 47 47
-24.9 -24.3 12.4 47 47 47
-23.1 -24.3 12.4 43 43 43
-21.4 -24.3 12.4 40 40 40
-21.1 -24.2 12.4 41 41 41
-20.3 -24.0 12.3 41 41 41
-19.9 -23.8 12.2 44 43 42
-20.0 -24.3 12.4 42 42 42
-19.3 -23.8 12.2 32 33 31
-18.3 -23.6 12.1 19 19 19
-13.1 -24.3 12.4 30 29 29
-12.6 -24.0 12.3 30 29 29
-11.9 -24.4 12.5 29 29 29
-11.3 -24.3 12.4 32 31 30
-11.0 -24.2 12.4 32 31 30
-10.5 -23.7 12.1 34 34 34
-10.2 -23.6 12.1 35 37 36
7.2 -24.3 12.4 207 207 207
7.3 -23.8 12.2 207 207 207
8.1 -24.3 12.4 207 207 207
9.6 -23.8 12.2 207 207 207
11.0 -24.3 12.4 206 206 206
11.1 -24.0 12.3 204 204 204
11.3 -23.8 12.2 204 204 204
13.3 -24.3 12.4 200 200 200
13.3 -23.7 12.2 203 203 203
13.9 -24.3 12.5 203 203 203
14.1 -24.2 12.4 203 203 203
14.4 -24.2 12.4 206 206 206
15.3 -24.3 12.4 206 206 206
15.5 -24.2 12.4 206 206 206
15.6 -23.8 12.2 206 206 206
17.4 -24.3 12.5 206 206 206
45.4 -56.2 28.8 203 203 203
50.5 -60.7 31.1 204 204 204
51.0 -60.4 31.0 204 204 204
50.3 -58.8 30.1 204 204 204
28.1 -30.0 15.4 205 205 205
30.5 -29.8 15.3 204 204 204
30.0 -29.0 14.9 204 204 204
-35.3 -24.2 12.5 60 62 60
-35.1 -24.2 12.6 60 62 60
-34.8 -24.2 12.6 60 62 60
-34.5 -24.2 12.6 58 59 59
-34.2 -24.2 12.6 58 59 59
-33.9 -24.2 12.6 58 59 59
-33.7 -24.2 12.6 59 59 59
-33.4 -24.2 12.6 59 59 59
-33.0 -24.2 12.6 61 63 61
-32.8 -24.2 12.6 61 63 61
-32.5 -24.2 12.6 59 59 59
-32.2 -24.2 12.6 57 57 57
-31.9 -24.2 12.6 57 57 57
-31.6 -24.2 12.6 57 57 57
-31.3 -24.2 12.6 55 55 55
-31.0 -24.2 12.6 55 55 55
-30.7 -24.2 12.6 55 55 55
-30.4 -24.2 12.6 53 52 51
-30.0 -24.2 12.5 54 53 52
-29.8 -24.2 12.6 54 53 52
-29.6 -24.3 12.6 51 51 51
-29.3 -24.2 12.6 51 51 51
-29.0 -24.2 12.6 51 51 51
-28.7 -24.2 12.6 51 51 51
-28.4 -24.3 12.6 48 48 48
-28.1 -24.2 12.6 51 51 51
-27.8 -24.2 12.6 51 51 51
-27.5 -24.2 12.6 51 51 51
-27.2 -24.2 12.6 51 51 51
-26.9 -24.2 12.6 52 52 52
-26.6 -24.2 12.6 52 52 52
-26.3 -24.2 12.5 49 49 49
-26.0 -24.2 12.6 50 50 50
-25.8 -24.3 12.6 50 50 50
-25.5 -24.3 12.6 47 48 47
-25.2 -24.2 12.6 47 48 47
-24.9 -24.2 12.6 48 48 48
-24.5 -24.2 12.6 46 46 46
-24.5 -24.5 12.7 46 46 46
-24.0 -24.3 12.6 43 43 43
-23.7 -24.3 12.6 43 43 43
-23.4 -24.2 12.6 42 42 40
-23.1 -24.2 12.6 43 42 41
-22.8 -24.2 12.6 43 42 41
-22.5 -24.2 12.6 43 42 41
-22.3 -24.3 12.6 43 42 41
-22.0 -24.2 12.6 41 41 41
-21.6 -24.2 12.6 41 41 41
-21.4 -24.2 12.6 42 42 42
-21.2 -24.3 12.6 40 42 42
-20.8 -24.2 12.6 40 42 42
-20.4 -24.2 12.5 41 43 42
-13.2 -24.2 12.6 30 30 30
-12.9 -24.2 12.6 32 33 31
-12.9 -24.8 12.9 31 32 30
-12.6 -24.7 12.8 30 29 29
-12.1 -24.3 12.6 29 29 29
-11.5 -24.4 12.7 30 31 30
-11.1 -24.2 12.5 29 31 29
-10.7 -24.0 12.5 32 31 30
-10.5 -24.0 12.4 36 36 36
-10.2 -24.0 12.4 45 45 45
7.3 -24.3 12.6 206 206 206
7.5 -24.2 12.5 206 206 206
7.9 -24.2 12.6 206 206 206
8.1 -24.1 12.5 206 206 206
8.4 -24.1 12.5 206 206 206
9.6 -24.3 12.6 206 206 206
9.9 -24.2 12.5 206 206 206
11.4 -24.2 12.6 206 206 206
14.3 -24.2 12.6 206 206 206
14.5 -24.1 12.5 206 206 206
14.8 -24.2 12.5 206 206 206
15.2 -24.3 12.6 205 205 205
15.5 -24.4 12.6 205 205 205
15.8 -24.3 12.6 205 205 205
16.0 -24.2 12.5 205 205 205
17.6 -24.4 12.7 205 205 205
17.9 -24.3 12.6 205 205 205
45.4 -55.4 28.7 205 205 205
51.6 -61.3 31.8 206 206 206
51.5 -60.3 31.3 203 203 203
52.0 -60.0 31.1 203 203 203
53.9 -61.3 31.8 204 204 204
27.8 -27.9 14.5 205 205 205
28.0 -27.7 14.4 203 203 203
29.9 -28.5 14.8 203 203 203
-35.9 -24.3 12.7 61 63 61
-33.5 -24.3 12.7 62 64 61
-29.4 -24.3 12.8 52 52 52
-29.2 -24.3 12.8 52 52 52
-28.8 -24.3 12.8 52 52 52
-28.5 -24.3 12.8 52 52 52
-25.9 -24.3 12.8 48 48 48
-24.7 -24.4 12.8 44 44 44
-24.1 -24.4 12.8 45 45 45
-23.7 -24.3 12.7 45 45 45
-21.9 -24.2 12.7 45 44 43
-21.5 -24.4 12.8 41 43 42
-21.0 -24.2 12.7 41 41 41
-13.3 -24.2 12.7 30 30 30
-12.6 -24.5 12.9 28 28 28
-12.2 -24.3 12.8 31 32 30
-11.6 -24.4 12.8 30 31 30
-11.2 -24.1 12.7 30 31 30
-10.9 -24.1 12.6 29 31 29
-10.6 -24.0 12.6 36 37 36
-10.2 -23.8 12.5 46 46 46
15.7 -24.3 12.7 205 205 205
45.6 -55.0 28.9 205 205 205
52.5 -61.6 32.3 205 205 205
52.8 -61.1 32.1 205 205 205
50.5 -57.6 30.2 205 205 205
27.9 -27.3 14.3 205 205 205
27.9 -27.0 14.2 202 202 202
30.0 -28.3 14.9 203 203 203
29.7 -27.7 14.6 205 205 205
-12.7 -24.5 13.0 32 33 31
-11.7 -24.2 12.9 49 49 49
-11.3 -24.0 12.7 54 54 54
-11.0 -24.1 12.8 65 67 66
-10.7 -23.9 12.7 36 39 38
-10.3 -23.8 12.7 48 47 46
53.2 -61.7 32.8 205 205 205
54.0 -61.7 32.8 205 205 205
53.2 -59.9 31.8 205 205 205
53.9 -59.8 31.8 205 205 205
28.2 -26.9 14.3 204 204 204
30.1 -28.0 14.9 202 202 202
30.0 -27.7 14.7 205 205 205
25.0 -22.5 12.0 181 181 181
-12.8 -24.2 13.0 90 90 90
-11.7 -23.9 12.9 50 50 50
-11.3 -23.8 12.8 28 28 28
-11.2 -24.1 13.0 89 89 89
-10.8 -23.8 12.8 27 27 27
-10.4 -23.7 12.7 50 50 50
52.8 -60.4 32.5 204 204 204
53.7 -60.6 32.6 204 204 204
53.2 -59.2 31.8 204 204 204
53.4 -58.6 31.5 204 204 204
28.4 -26.7 14.4 204 204 204
29.9 -27.5 14.8 204 204 204
29.8 -27.1 14.6 198 198 198
25.0 -22.2 12.0 180 180 180
25.5 -22.4 12.1 186 186 186
-13.4 -24.5 13.3 84 83 81
-12.7 -23.8 13.0 22 25 23
-12.2 -23.4 12.8 39 39 39
-11.6 -23.4 12.8 47 48 47
-11.2 -23.3 12.7 50 50 50
-10.4 -23.3 12.7 54 54 54
-10.1 -23.5 12.8 183 186 185
-9.9 -23.6 12.9 182 185 184
52.3 -59.1 32.2 203 203 203
53.5 -59.6 32.5 203 203 203
53.4 -58.6 32.0 204 204 204
53.2 -57.7 31.4 204 204 204
55.1 -58.0 31.6 204 204 204
56.2 -58.4 31.8 204 204 204
31.0 -28.5 15.5 203 203 203
30.7 -27.9 15.2 203 203 203
30.0 -27.0 14.7 200 200 200
25.4 -22.1 12.0 185 185 185
-10.3 -23.6 13.0 183 183 183
53.1 -59.2 32.7 203 203 203
54.1 -59.5 32.8 203 203 203
54.1 -58.7 32.4 203 203 203
53.6 -57.3 31.6 203 203 203
55.0 -57.2 31.6 204 204 204
31.0 -27.8 15.3 205 205 205
30.6 -27.1 15.0 205 205 205
25.0 -21.7 12.0 181 181 181
25.6 -21.7 12.0 185 185 185
-10.4 -24.3 13.6 181 184 183
-10.1 -24.1 13.5 181 184 183
53.2 -58.5 32.7 205 205 205
54.5 -59.1 33.1 205 205 205
54.5 -58.3 32.6 205 205 205
53.8 -56.8 31.7 205 205 205
53.8 -56.0 31.3 203 203 203
54.7 -56.2 31.4 203 203 203
56.3 -57.1 31.9 203 203 203
25.8 -21.6 12.1 184 184 184
37.2 -18.2 10.2 160 163 162
-13.5 -23.7 13.4 126 126 126
-10.6 -24.2 13.7 180 183 182
-10.2 -24.2 13.7 184 184 184
53.3 -58.0 32.8 204 204 204
54.7 -58.6 33.2 205 205 205
54.6 -57.7 32.7 205 205 205
54.1 -56.4 32.0 205 205 205
54.3 -55.8 31.6 205 205 205
54.6 -55.4 31.4 205 205 205
55.2 -55.3 31.3 205 205 205
25.9 -21.4 12.1 183 183 183
25.7 -21.0 11.9 183 183 183
-11.0 -24.3 13.9 181 184 183
-10.7 -24.2 13.9 179 182 181
-10.4 -24.2 13.9 178 181 180
53.5 -57.4 33.0 204 204 204
55.2 -58.3 33.5 204 204 204
53.9 -56.2 32.3 204 204 204
54.1 -55.7 32.0 204 204 204
55.0 -55.8 32.0 205 205 205
55.1 -55.1 31.6 205 205 205
55.5 -54.8 31.5 205 205 205
-10.9 -24.4 14.2 179 182 181
-10.9 -25.1 14.6 177 180 179
12.6 -17.3 10.1 204 204 204
13.7 -17.2 10.0 203 203 203
53.3 -56.4 32.8 207 207 207
55.3 -57.6 33.5 207 207 207
53.3 -54.8 31.9 207 207 207
53.6 -54.4 31.6 207 207 207
55.3 -55.4 32.2 207 207 207
55.4 -54.7 31.8 204 204 204
55.8 -54.4 31.6 204 204 204
55.0 -53.0 30.8 205 205 205
-28.4 -17.1 10.1 69 69 69
-28.2 -17.1 10.1 70 70 70
-28.0 -17.1 10.1 70 70 70
-27.7 -17.1 10.1 72 73 71
-27.0 -17.1 10.1 70 70 70
-26.8 -17.1 10.1 73 74 72
-26.1 -17.1 10.1 71 71 71
-25.6 -17.1 10.1 72 72 72
-25.4 -17.1 10.1 72 72 72
-25.0 -17.2 10.1 72 72 72
-24.7 -17.1 10.1 72 72 72
-24.4 -17.1 10.1 67 67 67
-24.2 -17.1 10.1 67 67 67
-24.0 -17.1 10.1 67 67 67
-16.7 -17.2 10.1 47 50 49
-16.5 -17.1 10.1 45 45 45
-16.2 -17.1 10.1 36 37 35
-15.8 -17.0 10.0 24 27 25
-13.1 -17.1 10.1 118 117 116
-11.9 -17.0 10.0 34 34 34
-10.4 -17.1 10.1 136 136 136
-11.1 -25.2 14.8 181 184 183
13.9 -17.0 10.0 203 203 203
55.3 -57.0 33.6 206 206 206
54.4 -55.2 32.6 207 207 207
64.0 -64.0 37.8 207 207 207
55.8 -54.4 32.1 204 204 204
56.0 -53.8 31.7 204 204 204
55.6 -52.8 31.1 207 207 207
-28.4 -16.9 10.1 64 64 64
-28.2 -16.9 10.1 69 69 69
-28.0 -16.9 10.1 70 70 70
-27.7 -16.9 10.1 72 73 71
-27.5 -16.9 10.1 72 73 71
-27.3 -16.9 10.1 70 70 70
-27.0 -16.9 10.1 73 74 72
-26.8 -16.9 10.1 70 70 70
-26.6 -16.9 10.1 71 71 71
-26.3 -16.9 10.1 71 71 71
-26.1 -16.9 10.1 71 71 71
-25.9 -16.9 10.1 71 71 71
-25.6 -16.9 10.1 71 71 71
-25.4 -16.9 10.1 71 71 71
-25.1 -16.9 10.1 72 72 72
-24.9 -16.9 10.1 72 72 72
-24.7 -16.9 10.1 68 70 68
-24.4 -16.9 10.1 68 70 68
-24.2 -16.9 10.1 67 67 67
-24.0 -16.9 10.1 67 67 67
-23.7 -16.9 10.1 67 67 67
-16.7 -16.9 10.1 47 50 49
-16.5 -16.9 10.1 45 45 45
-16.2 -16.9 10.1 34 34 34
-13.5 -17.0 10.2 44 44 44
-13.1 -16.9 10.1 86 87 85
-11.9 -16.8 10.0 47 47 47
-10.4 -16.9 10.1 39 39 39
-11.3 -25.3 15.2 178 178 178
8.7 -17.5 10.5 207 207 207
9.0 -17.5 10.5 207 207 207
9.2 -17.5 10.5 206 206 206
10.2 -17.4 10.4 206 206 206
13.1 -17.4 10.4 206 206 206
13.2 -17.4 10.4 206 206 206
14.3 -17.4 10.4 206 206 206
55.7 -56.6 33.8 206 206 206
54.7 -54.7 32.7 203 203 203
64.2 -63.4 37.9 203 203 203
63.2 -61.5 36.8 207 207 207
57.2 -54.9 32.8 207 207 207
56.7 -53.8 32.2 207 207 207
56.9 -53.3 31.8 207 207 207
51.4 -42.6 25.5 206 206 206
-11.4 -25.2 15.3 181 184 183
-11.2 -25.6 15.5 176 176 176
55.8 -55.9 33.9 206 206 206
64.1 -62.4 37.8 206 206 206
62.3 -59.9 36.3 206 206 206
57.6 -53.9 32.7 207 207 207
57.5 -53.0 32.2 207 207 207
51.5 -42.0 25.5 209 209 209
-11.5 -25.1 15.4 183 186 185
-11.3 -25.3 15.6 176 176 176
56.6 -55.8 34.3 206 209 208
64.9 -62.3 38.3 207 210 209
62.8 -59.5 36.6 210 213 212
62.0 -57.9 35.6 207 210 209
60.7 -55.9 34.4 206 206 206
58.6 -53.3 32.8 207 207 207
52.2 -42.5 26.2 208 208 208
51.7 -41.6 25.6 208 208 208
51.1 -40.7 25.0 209 209 209
-11.6 -24.9 15.6 184 187 186
-11.3 -25.1 15.6 178 178 178
-11.1 -25.4 15.9 160 163 162
55.6 -54.1 33.8 206 209 208
66.2 -62.6 39.1 206 209 208
63.4 -59.2 36.9 207 210 209
64.9 -59.8 37.3 207 210 209
58.7 -52.6 32.8 206 206 206
52.2 -41.4 25.8 208 208 208
51.5 -40.4 25.2 203 203 203
-11.5 -25.2 15.9 179 179 179
-11.2 -25.3 16.0 164 164 164
55.6 -53.3 33.8 206 209 208
67.2 -62.6 39.7 206 209 208
64.2 -59.0 37.4 206 209 208
66.0 -59.9 37.9 207 210 209
71.9 -64.4 40.8 207 210 209
72.7 -64.2 40.7 207 210 209
-27.3 -17.2 11.1 16 16 16
-18.4 -17.3 11.1 47 47 47
-15.9 -15.6 10.0 22 25 23
-13.1 -15.6 10.0 34 34 34
69.1 -63.4 40.8 206 209 208
75.1 -66.3 42.6 206 209 208
76.5 -66.6 42.8 207 210 209
709.2 -566.0 363.8 207 207 207
-52.3 -28.5 18.6 58 59 59
-48.9 -28.5 18.6 82 83 81
-46.5 -28.3 18.5 69 69 69
-46.2 -28.5 18.6 53 53 53
-45.7 -28.4 18.5 37 38 37
-45.0 -28.2 18.4 36 36 36
-44.7 -28.3 18.5 29 31 29
-44.3 -28.3 18.5 28 28 28
-44.0 -28.4 18.5 29 31 29
-43.6 -28.5 18.6 29 31 29
-43.3 -28.5 18.6 30 31 30
-43.1 -28.7 18.7 37 38 37
-42.5 -28.6 18.7 41 43 42
-40.6 -28.5 18.6 62 62 62
-40.2 -28.5 18.6 60 59 58
-39.8 -28.5 18.6 62 62 62
-39.1 -28.3 18.5 64 64 64
-38.8 -28.4 18.5 67 67 67
-38.4 -28.7 18.7 63 63 63
-37.8 -28.6 18.7 61 60 59
-37.2 -28.5 18.6 58 59 59
-36.5 -28.3 18.5 62 61 60
-36.4 -28.6 18.6 64 64 64
-23.1 -28.7 18.7 31 31 31
-13.0 -28.4 18.5 174 174 174
-12.6 -28.5 18.6 169 169 169
-4.7 -15.4 10.0 82 84 84
-4.5 -15.4 10.0 107 107 107
-3.5 -15.4 10.1 165 165 165
-3.3 -15.4 10.1 169 169 169
-3.1 -15.4 10.0 171 173 173
-2.8 -15.4 10.0 176 176 176
-2.6 -15.4 10.1 180 180 180
-2.4 -15.4 10.1 185 185 185
-2.1 -15.4 10.1 186 186 186
-1.9 -15.4 10.1 191 191 191
-1.7 -15.4 10.1 195 195 195
-1.4 -15.4 10.1 197 197 197
-1.2 -15.4 10.1 197 197 197
-1.0 -15.4 10.1 199 199 199
-0.7 -15.4 10.0 204 204 204
-0.5 -15.4 10.1 206 206 206
0.2 -15.4 10.0 213 215 215
0.4 -15.4 10.1 213 215 215
0.7 -15.4 10.1 213 215 215
0.9 -15.4 10.0 218 218 218
1.1 -15.4 10.1 217 217 217
1.4 -15.4 10.1 217 217 217
1.6 -15.4 10.1 217 217 217
7.5 -15.4 10.1 208 211 210
7.7 -15.4 10.0 208 211 210
7.9 -15.4 10.0 206 206 206
8.1 -15.4 10.0 208 211 210
8.4 -15.5 10.1 207 210 209
8.7 -15.5 10.1 207 210 209
8.9 -15.4 10.1 207 210 209
9.1 -15.4 10.1 207 210 209
9.3 -15.4 10.1 207 210 209
9.6 -15.5 10.1 207 210 209
9.8 -15.5 10.1 207 210 209
10.0 -15.4 10.0 207 210 209
10.2 -15.4 10.0 207 210 209
10.5 -15.4 10.0 206 209 208
10.7 -15.4 10.1 206 209 208
10.9 -15.3 10.0 206 209 208
11.9 -15.5 10.1 206 209 208
12.1 -15.3 10.0 206 209 208
12.7 -15.5 10.1 205 208 207
12.8 -15.4 10.1 205 208 207
13.0 -15.4 10.0 205 208 207
13.3 -15.4 10.0 205 208 207
13.8 -15.5 10.1 205 208 207
13.9 -15.3 10.0 205 208 207
14.2 -15.4 10.0 205 208 207
14.4 -15.4 10.0 205 208 207
15.3 -15.5 10.1 204 207 206
15.4 -15.4 10.1 204 207 206
15.7 -15.5 10.1 204 207 206
15.8 -15.4 10.0 204 207 206
60.8 -25.2 16.5 156 156 156
-52.9 -28.4 18.8 58 59 59
-52.8 -28.6 18.9 68 68 68
-52.5 -28.6 19.0 70 72 69
-52.1 -28.6 19.0 74 74 74
-51.5 -28.6 18.9 68 68 68
-51.2 -28.6 19.0 64 64 64
-50.6 -28.5 18.9 66 67 65
-50.1 -28.5 18.9 84 85 83
-49.5 -28.4 18.8 120 120 120
-49.2 -28.5 18.9 150 150 150
-48.7 -28.4 18.8 6 6 6
-48.3 -28.5 18.9 16 16 16
-48.2 -28.7 19.0 34 34 34
-47.7 -28.6 19.0 46 46 46
-47.1 -28.5 18.9 48 48 48
-46.6 -28.5 18.9 40 42 42
-46.1 -28.5 18.9 34 34 34
-45.8 -28.6 18.9 40 42 42
-45.3 -28.5 18.9 48 48 48
-44.8 -28.5 18.9 47 47 47
-44.5 -28.6 18.9 37 38 37
-44.3 -28.8 19.0 29 31 29
-43.8 -28.7 19.0 30 31 30
-43.0 -28.4 18.8 30 31 30
-43.0 -28.8 19.1 30 31 30
-42.7 -28.8 19.1 19 23 20
-42.1 -28.7 19.0 40 40 40
-41.4 -28.6 18.9 41 43 42
-41.1 -28.6 19.0 41 43 42
-40.4 -28.5 18.9 55 55 55
-39.9 -28.4 18.8 55 55 55
-39.5 -28.5 18.9 57 57 57
-39.5 -28.8 19.1 58 58 58
-39.0 -28.8 19.0 62 62 62
-38.5 -28.7 19.0 61 60 59
-38.0 -28.7 19.0 63 63 63
-37.5 -28.6 18.9 63 63 63
-14.6 -15.8 10.5 32 32 32
-14.4 -15.8 10.5 24 27 25
-24.0 -28.8 19.1 30 30 30
-23.2 -28.4 18.8 32 32 32
-14.6 -28.7 19.0 179 179 179
-14.0 -28.4 18.8 177 177 177
-13.6 -28.4 18.8 177 180 179
-13.2 -28.4 18.8 175 175 175
-12.8 -28.6 19.0 172 172 172
-12.6 -29.1 19.3 170 171 170
-1.9 -15.2 10.1 193 193 193
9.9 -15.4 10.2 207 210 209
60.8 -25.0 16.6 160 160 160
61.1 -25.0 16.5 155 155 155
-54.8 -29.2 19.6 68 68 68
-54.3 -29.2 19.6 70 72 69
-53.3 -29.1 19.6 63 63 63
-52.8 -29.1 19.6 54 54 54
-52.3 -29.1 19.6 59 59 59
-51.7 -29.0 19.5 147 147 147
-51.6 -29.2 19.6 54 54 54
-51.4 -29.3 19.7 19 23 20
-50.6 -29.1 19.6 19 23 20
-50.4 -29.3 19.7 26 26 26
-49.8 -29.2 19.6 28 28 28
-49.3 -29.1 19.6 29 31 29
-48.8 -29.1 19.6 17 17 17
-48.3 -29.1 19.6 26 26 26
-47.6 -29.0 19.5 26 26 26
-47.3 -29.0 19.5 37 38 37
-46.9 -29.1 19.6 55 55 55
-46.6 -29.2 19.6 60 60 60
-46.2 -29.2 19.6 60 60 60
-45.7 -29.2 19.6 53 53 53
-44.8 -28.9 19.4 40 42 42
-44.8 -29.2 19.7 37 38 37
-44.7 -29.4 19.8 42 42 42
-43.9 -29.2 19.7 115 117 116
-43.1 -29.0 19.5 149 149 149
-42.7 -29.0 19.5 15 15 15
-42.2 -29.0 19.5 26 26 26
-41.6 -28.9 19.4 19 23 20
-41.1 -28.9 19.4 30 31 30
-40.8 -28.9 19.5 30 31 30
-40.8 -29.3 19.7 42 44 43
-40.2 -29.2 19.6 55 55 55
-39.5 -29.0 19.5 61 60 59
-39.0 -28.9 19.5 71 71 71
-38.8 -29.2 19.6 71 71 71
-35.7 -29.6 19.9 58 59 59
-14.6 -15.6 10.5 21 24 22
-14.4 -15.6 10.5 27 27 27
-24.6 -29.1 19.6 32 32 32
-23.7 -28.5 19.2 32 32 32
-14.5 -28.9 19.4 179 182 181
-14.0 -28.8 19.4 178 178 178
-13.6 -28.8 19.4 177 180 179
-13.3 -29.3 19.7 173 173 173
-12.9 -29.3 19.7 170 171 170
-12.3 -29.0 19.5 161 164 163
60.9 -24.8 16.7 166 166 166
60.9 -24.7 16.6 161 161 161
61.1 -24.6 16.5 153 153 153
60.2 -24.1 16.2 148 150 150
-56.1 -29.2 19.9 53 53 53
-55.7 -29.2 20.0 68 68 68
-55.2 -29.2 19.9 75 76 76
-54.7 -29.2 19.9 82 83 81
-54.3 -29.2 20.0 41 41 41
-53.8 -29.2 19.9 129 129 129
-53.3 -29.2 19.9 129 132 131
-53.0 -29.2 20.0 17 17 17
-52.5 -29.2 20.0 9 14 10
-51.9 -29.1 19.9 24 24 24
-51.4 -29.1 19.9 28 28 28
-51.1 -29.2 20.0 34 34 34
-50.6 -29.2 20.0 42 42 42
-50.1 -29.2 20.0 19 23 20
-49.6 -29.2 19.9 28 28 28
-49.2 -29.2 20.0 28 28 28
-48.8 -29.2 20.0 26 26 26
-48.2 -29.2 19.9 28 28 28
-47.8 -29.2 19.9 55 55 55
-47.3 -29.2 19.9 71 72 70
-46.9 -29.2 20.0 71 72 70
-46.4 -29.2 19.9 67 68 66
-45.9 -29.1 19.9 49 49 49
-45.5 -29.2 20.0 62 62 62
-45.2 -29.3 20.0 67 68 66
-44.5 -29.1 19.9 128 128 128
-43.9 -29.0 19.8 98 98 98
-43.6 -29.2 19.9 124 126 125
-43.1 -29.2 19.9 169 169 169
-42.7 -29.2 19.9 70 70 70
-42.1 -29.1 19.9 29 29 29
-41.7 -29.1 19.9 30 31 30
-41.2 -29.1 19.9 15 15 15
-40.8 -29.2 19.9 19 23 20
-40.3 -29.1 19.9 25 25 25
-39.9 -29.2 19.9 37 38 37
-39.5 -29.2 20.0 57 57 57
-39.1 -29.3 20.0 51 51 51
-38.6 -29.3 20.0 58 58 58
-38.1 -29.2 19.9 72 73 71
-37.7 -29.3 20.0 67 69 67
-37.2 -29.3 20.0 77 77 77
-36.7 -29.2 20.0 65 65 65
-36.2 -29.2 20.0 71 71 71
-35.8 -29.2 20.0 73 74 72
-33.9 -29.2 20.0 139 139 139
-33.5 -29.2 20.0 182 185 184
-33.1 -29.3 20.0 175 175 175
-32.6 -29.2 20.0 132 132 132
-31.9 -29.0 19.8 20 20 20
-31.5 -29.1 19.9 36 35 34
-31.2 -29.3 20.0 30 30 30
-30.5 -29.0 19.8 29 29 29
-30.0 -28.9 19.8 20 23 21
-29.7 -29.2 19.9 26 26 26
-27.9 -29.2 20.0 29 29 29
-27.0 -29.2 20.0 36 36 34
-25.5 -29.2 19.9 150 152 152
-25.1 -29.2 19.9 53 52 52
-24.6 -29.2 20.0 42 43 42
-24.3 -29.3 20.0 77 79 77
-23.8 -29.3 20.0 108 108 106
-23.1 -29.0 19.8 131 131 131
-14.8 -29.0 19.8 180 180 180
-14.3 -28.8 19.7 179 179 179
-13.7 -28.7 19.6 178 178 178
-13.5 -29.2 19.9 175 175 175
-13.1 -29.3 20.0 172 172 172
81.7 -34.3 23.4 186 186 186
80.6 -33.6 23.0 186 186 186
62.6 -25.1 17.2 163 166 165
61.8 -24.6 16.8 160 160 160
61.1 -24.2 16.5 155 155 155
60.9 -24.0 16.4 150 152 152
61.5 -24.0 16.4 145 145 144
-56.1 -28.7 19.9 36 37 36
-55.8 -28.8 20.0 52 52 52
-54.4 -28.8 20.0 151 151 151
-53.9 -28.8 20.0 33 32 30
-53.4 -28.7 20.0 28 28 28
-53.0 -28.8 20.0 21 24 22
-52.6 -28.8 20.0 24 24 24
-52.0 -28.7 20.0 29 31 29
-51.5 -28.7 19.9 34 34 34
-51.3 -28.9 20.0 53 52 52
-50.8 -28.9 20.0 150 150 150
-49.7 -28.8 20.0 54 54 54
-49.3 -28.8 20.0 151 151 151
-48.8 -28.8 20.0 183 183 183
-48.3 -28.8 20.0 177 180 179
-47.9 -28.8 20.0 130 130 130
-47.4 -28.8 20.0 68 68 68
-47.0 -28.8 20.0 74 74 74
-46.5 -28.8 20.0 82 83 81
-46.0 -28.7 20.0 136 136 136
-45.6 -28.8 20.0 172 174 174
-45.2 -28.8 20.0 178 178 178
-44.6 -28.7 20.0 165 165 165
-44.1 -28.7 19.9 189 189 189
-43.4 -28.9 20.0 206 206 206
-42.7 -28.7 20.0 189 189 189
-42.3 -28.7 20.0 200 202 202
-41.8 -28.7 20.0 212 213 212
-41.3 -28.7 20.0 200 200 200
-40.9 -28.8 20.0 179 179 179
-40.4 -28.7 20.0 167 167 167
-40.0 -28.8 20.0 158 157 155
-39.5 -28.8 20.0 135 135 135
-39.1 -28.8 20.0 175 177 177
-38.6 -28.8 20.0 213 215 215
-38.1 -28.7 20.0 205 208 207
-37.2 -28.8 20.0 176 179 178
-36.7 -28.8 20.0 205 208 207
-36.3 -28.8 20.0 225 225 225
-35.8 -28.8 20.0 186 186 186
-34.1 -28.9 20.0 188 188 188
-33.5 -28.8 20.0 180 180 180
-33.1 -28.8 20.0 219 219 219
-32.5 -28.7 20.0 210 210 210
-32.0 -28.6 19.9 209 209 209
-31.6 -28.7 20.0 136 138 137
-31.2 -28.8 20.0 30 30 30
-30.6 -28.7 19.9 44 46 46
-30.0 -28.5 19.8 66 66 66
-29.9 -28.9 20.0 85 85 85
-27.9 -28.8 20.0 20 23 21
-26.5 -28.8 20.0 20 23 21
-26.1 -28.8 20.0 26 26 26
-25.6 -28.8 20.0 38 38 38
-25.1 -28.8 20.0 91 94 93
-24.7 -28.8 20.0 45 47 46
-24.3 -28.9 20.0 78 80 78
-23.8 -28.9 20.0 30 30 30
-23.2 -28.7 19.9 114 116 115
-14.9 -28.8 20.0 195 198 197
-14.4 -28.7 19.9 166 166 166
-13.8 -28.4 19.7 176 176 176
-13.5 -28.7 20.0 176 176 176
-13.1 -28.8 20.0 136 136 136
-12.5 -28.6 19.9 33 33 33
81.3 -33.6 23.3 188 188 188
80.6 -33.1 23.0 188 188 188
62.7 -24.6 17.1 160 160 160
61.6 -24.0 16.7 155 155 155
61.0 -23.6 16.4 149 149 149
-32.7 -18.8 13.3 149 149 149
-49.2 -28.5 20.1 178 181 180
-48.7 -28.5 20.1 177 176 174
-48.2 -28.5 20.1 162 162 162
-47.8 -28.5 20.1 141 143 142
-31.1 -18.8 13.2 139 139 139
-46.8 -28.5 20.1 74 74 74
-46.3 -28.5 20.1 75 76 76
-42.6 -28.5 20.1 97 96 94
-41.7 -28.5 20.1 78 80 78
-41.2 -28.5 20.1 67 68 66
-40.2 -28.8 20.3 42 44 43
-23.5 -18.8 13.3 147 147 147
-31.7 -28.8 20.3 130 130 130
-31.0 -28.6 20.2 67 69 67
-19.5 -18.8 13.3 30 30 30
-19.1 -18.8 13.3 32 33 31
-18.8 -18.8 13.2 107 107 107
-26.7 -28.5 20.1 22 25 23
-26.3 -28.5 20.1 113 114 113
-25.3 -28.5 20.1 66 66 66
-24.8 -28.5 20.1 44 46 46
-24.5 -28.7 20.3 69 69 69
-24.2 -28.9 20.4 38 38 38
-13.9 -28.1 19.9 166 166 166
-13.6 -28.5 20.1 163 163 163
-13.2 -28.7 20.2 128 131 130
81.4 -33.1 23.4 189 189 189
81.2 -32.8 23.2 189 189 189
84.0 -33.5 23.6 186 186 186
63.8 -24.6 17.4 160 160 160
61.3 -23.4 16.5 149 149 149
61.8 -23.4 16.5 142 144 143
-33.1 -18.5 13.3 156 159 158
-32.7 -18.5 13.3 153 153 153
-32.5 -18.5 13.3 172 172 172
-32.1 -18.5 13.3 174 174 174
-31.8 -18.5 13.2 131 134 133
-31.5 -18.5 13.3 104 103 101
-31.2 -18.5 13.3 201 203 203
-30.9 -18.5 13.3 200 200 200
-30.5 -18.5 13.3 50 50 50
-30.2 -18.5 13.3 39 39 39
-29.9 -18.5 13.2 132 132 132
-29.6 -18.5 13.2 115 117 116
-29.3 -18.5 13.3 95 94 93
-28.4 -18.5 13.3 124 124 124
-28.2 -18.5 13.3 34 34 34
-27.9 -18.6 13.3 53 53 53
-27.6 -18.5 13.3 60 60 60
-27.2 -18.5 13.3 68 68 68
-26.8 -18.5 13.2 68 68 68
-26.5 -18.5 13.2 69 69 69
-26.2 -18.5 13.2 66 67 65
-25.3 -18.5 13.3 67 68 66
-25.0 -18.5 13.3 71 72 70
-24.4 -18.5 13.3 80 82 79
-24.1 -18.5 13.3 183 186 185
-23.8 -18.5 13.3 224 224 224
-23.5 -18.5 13.3 224 224 224
-23.2 -18.5 13.3 221 221 221
-22.9 -18.5 13.3 188 188 188
-22.5 -18.5 13.3 123 125 124
-22.2 -18.5 13.3 122 122 122
-21.9 -18.5 13.2 200 202 202
-21.6 -18.5 13.2 203 203 203
-21.3 -18.5 13.2 224 224 224
-21.0 -18.5 13.2 214 216 216
-20.7 -18.5 13.3 210 210 210
-20.3 -18.4 13.2 2 7 3
-20.1 -18.5 13.2 67 67 67
-19.8 -18.5 13.3 125 125 125
-19.5 -18.5 13.3 116 118 117
-19.2 -18.5 13.3 126 126 126
-18.8 -18.5 13.2 95 95 95
-18.4 -18.4 13.2 65 65 65
-17.6 -18.5 13.3 82 83 81
-17.3 -18.5 13.2 44 46 46
-17.0 -18.5 13.2 25 25 25
-16.7 -18.5 13.3 32 33 31
-16.4 -18.5 13.3 44 46 46
-16.1 -18.5 13.3 70 72 69
-15.7 -18.5 13.2 27 27 27
-15.4 -18.5 13.2 136 136 136
-15.1 -18.5 13.3 59 59 57
-14.1 -29.0 20.8 182 185 184
-13.8 -29.4 21.1 178 178 178
176.5 -132.4 95.1 208 211 210
31.9 -19.1 13.7 196 196 196
32.5 -19.1 13.7 199 199 199
32.9 -19.2 13.7 203 203 203
83.6 -33.7 24.2 190 190 190
81.9 -32.7 23.5 188 188 188
81.4 -32.3 23.2 190 190 190
85.8 -33.9 24.3 190 190 190
84.4 -33.1 23.8 190 190 190
62.2 -23.3 16.7 146 148 148
62.3 -23.2 16.7 139 139 139
-33.0 -18.3 13.4 124 127 126
-32.8 -18.4 13.4 124 126 125
-32.3 -18.3 13.3 169 171 170
-31.8 -18.2 13.3 201 203 203
-31.6 -18.2 13.3 107 109 109
-31.3 -18.2 13.3 67 67 67
-30.9 -18.2 13.3 54 54 54
-30.6 -18.2 13.3 44 43 42
-30.3 -18.2 13.3 59 59 59
-30.0 -18.2 13.3 107 109 109
-29.7 -18.2 13.3 105 105 105
-23.5 -18.2 13.3 178 178 178
-23.2 -18.2 13.3 215 218 217
-22.9 -18.2 13.3 216 219 218
-22.6 -18.2 13.3 222 222 222
-22.0 -18.2 13.3 221 221 221
-20.8 -18.2 13.3 210 210 210
-20.0 -18.4 13.4 31 32 30
-19.6 -18.3 13.3 21 24 22
-19.2 -18.2 13.3 34 33 32
-18.8 -18.2 13.3 34 33 32
-18.4 -18.1 13.2 100 100 100
-17.3 -18.2 13.3 43 45 45
-17.0 -18.2 13.3 35 34 33
-16.5 -18.3 13.3 45 45 45
-16.1 -18.2 13.3 79 81 79
-14.6 -30.7 22.4 170 172 172
198.2 -148.1 108.1 208 211 210
194.0 -143.2 104.5 208 211 210
241.6 -173.9 127.0 209 212 211
33.0 -19.3 14.1 197 197 197
32.8 -19.0 13.9 199 199 199
33.2 -19.0 13.9 199 199 199
81.1 -31.9 23.3 194 194 194
84.1 -32.4 23.7 189 189 189
85.9 -32.9 24.0 185 185 185
85.1 -32.4 23.6 179 182 181
62.8 -23.0 16.8 128 128 128
71.8 -26.2 19.1 132 135 134
-58.4 -32.5 24.1 157 156 154
-58.1 -32.7 24.3 107 107 107
-57.6 -32.7 24.3 67 67 67
-56.9 -32.6 24.2 63 63 63
-56.5 -32.7 24.3 40 42 42
-55.7 -32.5 24.2 29 31 29
-55.2 -32.6 24.2 86 86 86
-23.2 -17.9 13.3 177 180 179
-22.9 -17.9 13.3 176 176 176
-19.6 -18.0 13.4 74 74 74
-19.2 -17.9 13.3 116 118 117
-18.9 -17.9 13.3 101 101 101
-15.2 -32.5 24.2 165 165 165
-14.5 -32.2 23.9 25 26 24
17.0 -15.4 11.4 205 208 207
219.5 -161.2 119.7 208 211 210
222.3 -161.2 119.7 208 211 210
386.5 -276.9 205.6 208 211 210
250.0 -176.9 131.4 208 211 210
777.4 -530.8 394.1 209 212 211
524.4 -353.9 262.7 215 215 215
33.3 -19.1 14.2 197 197 197
33.2 -18.9 14.0 199 199 199
33.5 -18.9 14.0 197 197 197
81.4 -31.5 23.4 192 192 192
84.4 -32.0 23.8 186 186 186
85.1 -32.0 23.8 182 185 184
85.1 -31.8 23.6 175 175 175
73.0 -26.1 19.4 134 136 135
72.6 -25.8 19.2 134 136 135
-60.0 -32.5 24.5 117 119 118
-59.3 -32.4 24.5 165 165 165
-58.7 -32.4 24.5 105 105 105
-30.1 -16.8 12.7 44 43 42
-57.7 -32.5 24.5 44 43 42
-57.1 -32.5 24.5 28 28 28
-56.4 -32.4 24.5 24 24 24
-28.8 -16.7 12.6 8 9 8
-28.5 -16.7 12.6 124 124 124
-28.2 -16.7 12.6 147 149 149
-27.9 -16.7 12.6 67 67 67
-22.1 -16.8 12.7 177 180 179
-21.7 -16.7 12.6 184 187 186
-20.9 -16.7 12.6 207 210 209
-20.0 -16.7 12.6 200 202 202
-19.7 -16.7 12.6 164 163 161
-19.3 -16.7 12.6 20 23 21
-19.1 -16.7 12.6 28 28 28
-18.8 -16.7 12.6 24 24 24
-18.3 -16.8 12.7 33 33 31
-18.0 -16.7 12.6 93 93 93
-15.9 -32.1 24.3 173 175 175
-15.4 -32.4 24.5 154 154 154
348.6 -245.5 185.5 208 211 210
268.6 -186.8 141.2 208 211 210
761.6 -511.0 386.0 209 212 211
609.0 -403.8 305.1 209 212 211
335.1 -219.6 165.9 210 213 212
274.0 -177.6 134.2 210 213 212
144.5 -65.4 49.4 190 192 192
82.7 -31.4 23.7 183 186 185
85.6 -31.9 24.1 181 181 181
85.9 -31.8 24.0 177 177 177
85.8 -31.5 23.8 168 168 168
85.8 -31.3 23.7 160 163 162
74.1 -26.1 19.7 134 134 134
-31.0 -16.5 12.7 170 172 172
-30.7 -16.5 12.7 179 182 181
-30.5 -16.5 12.7 98 98 98
-30.1 -16.5 12.7 47 48 47
-29.7 -16.5 12.7 29 31 29
-29.5 -16.5 12.7 20 23 21
-29.1 -16.4 12.6 18 22 19
-28.9 -16.5 12.7 24 24 24
-28.6 -16.5 12.7 25 25 25
-28.3 -16.5 12.7 18 22 19
-23.0 -16.5 12.7 55 55 55
-22.7 -16.5 12.7 55 55 55
-22.4 -16.5 12.7 55 55 55
-22.1 -16.5 12.7 41 43 42
-21.8 -16.5 12.7 163 162 160
-21.5 -16.5 12.7 198 198 198
-21.3 -16.5 12.7 202 204 204
-20.9 -16.5 12.7 206 206 206
-20.6 -16.4 12.6 215 215 215
-20.3 -16.4 12.6 206 209 208
-20.0 -16.5 12.7 153 155 155
-19.7 -16.5 12.7 84 84 84
-19.4 -16.5 12.7 17 17 17
-19.1 -16.4 12.6 26 26 26
-18.8 -16.4 12.6 77 79 77
-18.6 -16.5 12.7 103 103 103
-18.3 -16.5 12.7 116 118 117
-18.0 -16.5 12.7 85 86 84
-17.7 -16.5 12.7 116 118 117
-17.3 -16.4 12.6 33 33 31
-14.2 -16.5 12.7 119 121 120
-13.9 -16.5 12.7 35 35 35
-13.5 -16.4 12.6 26 26 26
-13.2 -16.4 12.6 26 26 26
-12.9 -16.4 12.6 27 29 27
-16.9 -32.5 25.0 154 154 154
-16.1 -32.1 24.7 88 88 88
-15.8 -32.5 25.0 89 91 90
722.5 -512.5 394.1 212 213 212
355.6 -246.0 189.2 208 211 210
285.7 -195.2 150.1 208 211 210
712.4 -464.1 356.9 215 215 215
338.0 -217.7 167.4 209 212 211
274.0 -174.5 134.2 215 215 215
86.6 -31.5 24.2 158 158 158
86.6 -31.3 24.1 149 149 149
86.5 -31.1 23.9 138 138 138
74.1 -25.6 19.7 129 132 131
73.4 -25.2 19.4 129 132 131
-30.6 -16.3 12.8 39 41 41
-30.1 -16.2 12.7 49 49 49
-29.8 -16.2 12.7 29 31 29
-22.8 -16.2 12.7 54 54 54
-22.2 -16.2 12.7 54 54 54
-21.9 -16.2 12.7 50 50 50
-21.6 -16.2 12.7 48 48 48
-21.3 -16.2 12.7 40 40 40
-21.0 -16.2 12.7 47 47 47
-20.5 -16.1 12.6 64 65 63
-14.0 -16.3 12.7 90 90 90
-17.7 -33.4 26.1 133 133 133
-16.5 -32.2 25.2 91 93 92
-16.0 -32.4 25.4 87 87 87
-15.5 -32.6 25.5 55 55 55
716.7 -493.0 386.0 212 213 212
382.3 -259.8 203.4 212 213 212
712.4 -455.8 356.9 215 215 215
353.7 -223.7 175.2 215 215 215
88.6 -31.6 24.8 146 146 146
88.0 -31.2 24.4 131 134 133
88.4 -31.2 24.4 131 134 133
73.6 -25.0 19.6 128 128 128
72.1 -24.3 19.0 129 129 129
-30.2 -15.9 12.7 38 38 38
-29.9 -15.9 12.7 33 32 30
-22.9 -16.0 12.8 54 54 54
-22.5 -16.0 12.7 54 54 54
-22.2 -15.9 12.7 54 54 54
-21.9 -16.0 12.7 54 54 54
-21.7 -16.0 12.8 54 54 54
-21.0 -16.0 12.7 53 52 52
-14.0 -16.0 12.8 132 135 134
-18.5 -34.3 27.3 128 131 130
-16.6 -33.0 26.3 90 92 91
15.8 -12.7 10.2 208 208 208
688.6 -465.1 370.9 215 215 215
386.5 -257.8 205.6 212 213 212
321.4 -211.8 168.9 212 213 212
674.2 -423.5 337.8 215 215 215
374.5 -232.5 185.5 215 215 215
90.3 -31.7 25.3 106 108 108
89.8 -31.1 24.8 119 119 119
73.8 -24.6 19.6 121 121 121
72.6 -24.0 19.2 127 127 127
73.6 -24.2 19.3 130 129 128
-25.5 -13.5 11.0 17 21 18
-22.5 -15.8 12.9 53 53 53
-22.2 -15.9 12.9 52 52 52
-22.0 -15.9 12.9 49 49 49
-14.7 -16.1 13.1 100 99 97
-14.1 -15.9 12.9 58 58 58
-19.6 -35.5 28.9 136 138 137
15.8 -12.5 10.2 211 211 211
688.6 -456.5 370.9 212 213 212
395.1 -258.7 210.2 212 213 212
290.3 -187.7 152.6 212 213 212
662.4 -408.4 331.9 215 215 215
389.8 -237.5 193.0 215 215 215
74.4 -24.3 19.8 112 112 112
73.4 -23.9 19.4 117 119 118
-22.3 -15.8 13.1 52 52 52
-14.8 -16.0 13.2 105 107 107
-14.3 -15.8 13.1 137 137 137
-20.5 -36.5 30.2 129 132 131
15.3 -12.4 10.3 210 210 210
15.9 -12.4 10.2 210 210 210
382.3 -245.6 203.4 216 216 216
315.8 -200.3 165.9 216 216 216
755.1 -456.8 378.3 215 215 215
382.0 -228.4 189.2 215 215 215
44.2 -21.7 18.0 163 166 165
44.3 -21.5 17.8 106 108 108
43.6 -21.0 17.4 66 66 64
74.8 -24.0 19.9 106 106 106
73.8 -23.5 19.5 90 90 90
75.8 -24.0 19.9 155 155 155
-22.3 -15.6 13.1 53 53 53
-20.5 -37.1 31.3 96 96 96
-19.7 -37.0 31.3 94 94 94
-18.9 -36.9 31.2 79 79 79
-18.2 -36.8 31.1 34 34 34
16.9 -13.5 11.4 210 210 210
17.0 -13.3 11.3 210 210 210
15.7 -12.0 10.1 210 210 210
44.1 -21.2 17.9 169 169 169
44.0 -21.0 17.7 108 108 108
43.2 -20.4 17.2 65 65 63
74.8 -23.5 19.9 70 69 68
73.4 -23.0 19.4 67 67 65
73.8 -23.0 19.4 155 155 155
-21.4 -38.1 32.8 96 96 96
-20.5 -37.8 32.6 97 100 99
16.8 -13.1 11.3 210 210 210
16.8 -13.0 11.2 210 210 210
18.5 -13.0 11.2 211 211 211
18.7 -13.0 11.2 212 213 212
15.8 -11.6 10.2 210 210 210
-26.5 -48.6 43.6 103 103 103
46.1 -22.3 20.0 200 200 200
44.8 -21.5 19.3 204 204 204
-26.5 -47.6 43.6 110 110 110
-25.7 -48.0 44.0 19 19 19
42.4 -19.8 18.1 204 204 204
-28.9 -49.0 45.9 100 100 100
-27.3 -48.0 44.9 113 112 111
-26.6 -48.6 45.5 27 27 27
42.0 -19.1 17.9 204 204 204
40.8 -18.4 17.2 204 204 204
-30.8 -51.1 48.9 102 102 102
-28.7 -49.4 47.3 112 112 112
-28.3 -50.5 48.4 8 9 8
814.1 -411.7 394.1 217 217 217
589.8 -294.9 282.3 179 179 179
524.6 -256.6 245.7 200 200 200
41.9 -18.7 17.9 204 204 204
40.4 -17.8 17.1 204 204 204
-32.8 -53.1 52.0 101 101 101
-31.4 -52.8 51.7 119 119 119
673.7 -333.1 326.1 219 219 219
403.6 -195.2 191.1 195 195 195
425.2 -203.4 199.1 200 200 200
-33.4 -52.9 53.0 100 100 100
-32.0 -52.6 52.7 115 114 114
362.8 -192.7 193.0 220 220 220
363.2 -171.7 172.0 194 194 194
399.9 -187.0 187.3 200 200 200
40.2 -16.9 17.0 204 204 204
39.3 -16.4 16.4 204 204 204
-113.2 -52.1 53.4 117 117 117
-32.5 -50.3 51.5 101 103 103
-31.4 -50.4 51.7 110 110 110
42.0 -17.4 17.9 203 203 203
40.8 -16.8 17.2 204 204 204
-126.6 -56.3 59.1 105 105 103
-126.8 -57.0 59.9 135 135 135
-128.9 -59.2 62.2 137 137 137
-33.8 -51.0 53.6 101 101 101
620.2 -285.8 300.3 219 219 219
627.2 -285.8 300.3 182 182 182
416.4 -185.6 195.0 197 197 197
40.4 -16.2 17.0 203 203 203
-140.6 -61.0 65.7 143 143 142
-138.2 -60.6 65.2 138 140 139
-135.0 -61.2 65.9 135 135 135
-44.9 -68.6 73.9 109 109 109
-41.1 -65.3 70.3 23 24 23
-36.7 -60.8 65.5 23 24 23
74.8 -158.2 170.4 166 169 168
15.3 -9.6 10.3 218 218 218
15.5 -9.5 10.3 218 218 218
40.9 -16.1 17.3 203 203 203
39.3 -15.2 16.4 204 204 204
-231.0 -93.6 103.4 46 45 43
-219.0 -89.7 99.0 49 49 49
-219.0 -90.6 100.1 47 48 47
-207.8 -86.9 96.0 94 94 94
-48.7 -72.6 80.2 112 112 112
-43.5 -67.4 74.5 30 30 30
-59.9 -96.7 106.9 20 20 20
157.2 -342.5 378.3 147 147 147
15.4 -9.4 10.3 218 218 218
814.1 -356.7 394.1 221 221 221
420.8 -178.4 197.0 195 195 195
41.0 -15.7 17.3 203 203 203
39.3 -14.9 16.4 205 205 205
-250.1 -98.7 111.9 59 59 57
-244.6 -97.6 110.6 57 57 57
-239.2 -96.4 109.3 60 59 58
-231.3 -94.3 106.9 71 71 71
-9.6 -9.4 10.6 37 38 37
-66.7 -104.9 119.0 31 31 31
-69.2 -113.5 128.7 171 173 173
39.3 -14.5 16.4 205 205 205
-30.3 -9.2 10.8 135 135 135
-9.7 -9.1 10.7 37 38 37
-9.4 -9.1 10.6 37 40 39
-78.8 -125.9 146.6 181 181 181
-86.1 -143.8 167.4 180 180 180
601.2 -249.9 291.0 221 221 221
39.3 -14.1 16.4 205 205 205
-9.6 -8.8 10.5 38 40 40
-9.3 -8.8 10.5 37 38 37
-173.9 -259.1 310.1 23 24 23
-166.7 -259.1 310.1 170 172 172
154.1 -309.9 370.9 156 156 156
39.3 -13.7 16.4 206 206 206
-30.4 -12.2 15.0 103 103 103
-29.9 -12.1 15.0 49 49 49
-29.6 -12.1 14.9 58 59 59
-17.1 -12.2 15.0 30 31 30
-14.7 -10.7 13.1 30 31 30
-14.2 -10.6 13.0 33 33 31
156.2 -219.5 270.2 224 224 224
630.3 -247.8 305.1 221 221 221
39.2 -13.3 16.4 205 205 205
-30.4 -11.8 15.0 112 112 112
-29.9 -11.8 14.9 52 52 52
-14.7 -10.3 13.1 30 31 30
-14.3 -10.3 13.0 33 33 31
156.2 -213.2 270.2 224 224 224
39.2 -12.9 16.4 205 205 205
-29.9 -11.4 14.9 64 64 64
-15.0 -10.3 13.4 30 31 30
145.8 -193.1 252.2 224 224 224
673.7 -249.7 326.1 220 220 220
-29.2 -11.0 14.8 54 54 54
-15.0 -10.0 13.4 31 32 30
145.8 -187.3 252.2 224 224 224
20.5 -8.8 11.8 219 222 221
147.4 -29.1 39.2 84 86 86
-38.4 -12.9 17.9 75 77 75
-37.9 -12.9 17.9 79 79 79
-37.6 -12.9 17.9 43 45 44
-37.1 -12.9 17.9 59 59 59
143.9 -179.0 248.9 222 222 222
-34.7 -11.3 16.2 75 75 75
-33.9 -11.1 16.0 67 67 67
-33.9 -11.3 16.2 59 59 59
-33.5 -11.2 16.2 57 57 57
-32.9 -11.2 16.1 55 55 55
-32.4 -11.1 16.0 58 58 58
142.0 -171.0 245.7 222 222 222
68.4 -21.1 30.4 197 197 197
-202.9 -62.4 92.7 59 59 59
-195.9 -60.9 90.5 65 65 65
-105.5 -33.1 49.3 65 65 65
21.0 -7.8 11.6 219 222 221
67.1 -20.0 29.8 195 195 195
-164.0 -48.2 74.2 20 23 21
-162.3 -48.2 74.2 30 30 30
-154.6 -46.9 72.2 38 38 38
-145.2 -44.5 68.5 38 38 38
19.4 -7.5 11.6 219 222 221
20.4 -7.6 11.7 219 222 221
20.6 -7.6 11.7 219 222 221
21.0 -7.5 11.6 223 225 225
21.0 -7.5 11.5 220 223 222
67.1 -19.3 29.8 195 195 195
20.2 -7.4 11.8 220 223 222
20.4 -7.3 11.7 220 223 222
20.6 -7.3 11.7 220 223 222
20.9 -7.1 11.4 220 223 222
21.9 -7.4 11.8 220 223 222
22.2 -7.4 11.8 220 223 222
219.5 -61.7 98.5 193 193 193
205.8 -57.2 91.4 195 195 195
143.1 -37.5 59.9 205 205 205
220.6 -57.2 91.4 199 199 199
18.7 -6.9 11.4 220 223 222
20.4 -7.1 11.7 220 223 222
20.6 -7.1 11.7 220 223 222
20.8 -6.8 11.3 221 221 221
224.2 -60.7 100.6 193 193 193
164.7 -41.9 69.5 202 202 202
143.1 -36.1 59.9 205 205 205
20.4 -6.8 11.7 221 221 221
164.7 -40.3 69.5 202 202 202
144.5 -35.0 60.4 205 205 205
20.4 -6.5 11.7 221 221 221
17.7 -5.6 10.0 221 221 221
204.8 -50.6 90.9 194 194 194
139.6 -32.5 58.4 205 205 205
44.8 -9.0 16.2 77 77 77
44.6 -8.9 16.0 79 79 79
20.4 -6.2 11.7 222 222 222
141.3 -31.5 59.1 205 205 205
44.8 -8.6 16.2 77 77 77
44.5 -8.5 16.0 80 80 80
20.4 -6.0 11.7 222 222 222
142.2 -30.3 59.5 206 206 206
44.9 -8.3 16.3 77 77 77
147.3 -30.0 61.6 204 204 204
72.6 -8.8 19.1 102 104 104
74.8 -8.7 19.7 87 89 88
73.8 -8.5 19.4 101 101 101
22.8 -4.7 11.9 225 225 225
23.0 -4.6 11.8 225 225 225
23.3 -4.7 11.8 225 225 225
23.5 -4.6 11.8 225 225 225
71.0 -7.4 18.7 88 90 89
22.8 -4.5 12.1 225 225 225
23.1 -4.5 12.1 225 225 225
23.5 -4.1 11.8 222 222 222
23.4 -3.8 11.9 222 222 222
23.6 -3.8 11.8 222 222 222
347.0 -36.7 132.3 59 59 59
23.7 -2.1 11.3 161 164 163
512.3 -38.8 210.2 230 230 230
490.0 -36.8 199.1 216 216 216
714.5 -52.1 282.3 66 68 67
706.5 -50.6 274.1 73 73 73
455.4 -32.3 175.2 77 77 77
359.6 -25.3 137.1 68 71 70
23.5 -1.8 11.3 160 160 160
569.3 -37.7 233.5 225 225 225
554.2 -36.4 225.2 216 216 216
701.3 -45.6 282.3 97 100 99
752.9 -48.5 300.3 79 81 80
736.5 -47.0 291.0 63 65 65
792.0 -50.1 310.1 64 66 66
727.6 -45.6 282.3 74 74 74
447.2 -27.8 172.0 78 78 78
863.2 -52.7 326.1 61 61 61
794.3 -41.8 259.1 56 55 54
872.0 -45.6 282.3 52 52 52
859.7 -43.6 270.2 75 75 75
23.6 -1.6 11.3 168 168 168
591.2 -33.5 242.5 217 220 219
581.9 -32.7 236.5 208 208 208
722.9 -40.2 291.0 107 107 107
759.8 -41.5 300.3 64 66 66
738.6 -39.6 286.6 74 74 74
565.4 -30.0 217.4 68 71 70
912.8 -40.8 295.6 50 50 50
934.3 -41.5 300.3 42 42 42
926.6 -40.8 295.6 139 141 140
878.5 -38.4 278.2 82 82 82
940.3 -40.8 295.6 75 76 76
962.2 -41.5 300.3 67 67 67
22.9 -1.2 10.9 182 182 182
23.4 -1.0 11.2 175 177 177
23.0 -1.0 10.9 185 185 185
22.8 -1.0 10.7 189 189 189
23.7 -0.8 11.3 175 177 177
23.0 -0.7 10.9 192 192 192
22.8 -0.7 10.7 195 195 195
23.5 -0.5 11.3 176 179 178
23.0 -0.5 10.9 193 193 193
22.9 -0.5 10.7 198 198 198
23.7 -0.2 11.3 176 179 178
22.9 -0.2 10.7 199 199 199
23.5 0.0 11.3 177 180 179
23.3 0.0 11.0 194 194 194
22.9 0.0 10.7 197 197 197
76.6 0.0 21.6 84 83 81
76.9 0.0 21.5 84 83 81
77.6 0.0 21.5 206 206 206
78.0 0.0 21.5 116 116 116
78.3 0.0 21.5 139 141 140
81.8 0.0 21.9 85 85 85
23.5 0.3 11.4 224 226 226
23.5 0.3 11.2 184 184 184
23.3 0.3 11.0 195 195 195
22.9 0.3 10.7 198 198 198
78.6 0.5 22.1 82 81 79
78.2 0.5 21.9 103 103 103
78.6 0.5 21.8 205 205 205
79.0 0.5 21.8 108 110 110
79.3 0.5 21.7 135 135 135
81.9 0.5 21.9 85 84 82
81.8 0.5 21.7 88 88 88
83.0 0.5 21.9 92 92 92
83.5 0.5 21.9 173 175 175
23.5 0.5 11.4 220 220 220
78.8 1.0 21.9 205 205 205
79.2 1.0 21.9 96 99 98
83.9 1.1 22.0 172 172 172
23.6 0.8 11.4 224 224 224
80.4 1.5 21.1 169 169 169
80.0 2.0 21.0 170 171 170
78.4 1.9 20.5 124 126 125
80.3 2.5 21.1 163 163 163
79.7 2.4 20.8 124 127 126
83.0 3.1 21.9 93 93 93
111.7 19.8 120.5 185 185 185
112.3 19.4 118.2 88 90 89
114.4 19.3 117.5 49 49 49
299.5 20.5 125.3 202 202 202
292.8 19.9 121.3 198 198 198
309.5 20.8 127.0 198 198 198
295.5 19.5 119.0 56 56 56
291.0 19.0 116.1 35 36 34
346.4 21.8 133.2 80 80 80
308.2 19.3 117.5 63 62 61
336.0 20.8 127.0 64 63 61
402.2 20.1 122.8 92 92 92
364.8 18.1 110.6 107 107 107
292.8 22.7 121.3 199 199 199
304.5 21.7 116.1 159 159 159
399.6 22.8 122.0 51 51 51
342.7 19.5 103.9 54 57 56
13.3 117.0 147.8 204 204 204
-75.4 119.5 146.6 151 151 151
12.8 115.9 142.2 205 205 205
272.3 120.5 105.7 110 110 110
277.0 125.0 107.5 92 95 94
19.9 16.6 10.2 59 59 59
19.9 16.8 10.2 152 154 154
20.1 16.8 10.2 159 159 159
37.9 17.3 10.5 108 108 108
37.4 16.8 10.2 110 112 111
