ply
format ascii 1.0
element vertex 2224
property float x
property float y
property float z
property uchar red
property uchar green
property uchar blue
end_header
117.7 -608.5 242.5 158 158 158
123.3 -608.5 242.5 160 160 160
128.9 -608.5 242.5 160 160 160
134.6 -608.5 242.5 157 157 157
140.2 -608.5 242.5 159 159 159
145.8 -608.5 242.5 159 159 159
151.5 -608.5 242.5 162 162 162
157.1 -608.5 242.5 162 162 162
162.8 -608.5 242.5 162 162 162
168.4 -608.5 242.5 160 160 160
174.0 -608.5 242.5 163 163 163
179.7 -608.5 242.5 163 163 163
185.3 -608.5 242.5 166 166 166
190.9 -608.5 242.5 166 166 166
196.6 -608.5 242.5 166 166 166
202.2 -608.5 242.5 166 166 166
207.9 -608.5 242.5 166 166 166
213.5 -608.5 242.5 164 164 164
219.1 -608.5 242.5 164 164 164
224.8 -608.5 242.5 166 166 166
230.4 -608.5 242.5 166 166 166
239.1 -616.4 245.7 164 164 164
241.7 -608.5 242.5 164 164 164
247.3 -608.5 242.5 164 164 164
249.7 -600.8 239.4 164 164 164
258.6 -608.5 242.5 164 164 164
264.2 -608.5 242.5 162 162 162
269.9 -608.5 242.5 159 159 159
279.1 -616.4 245.7 162 162 162
281.1 -608.5 242.5 162 162 162
283.1 -600.8 239.4 162 162 162
288.7 -600.8 239.4 162 162 162
294.3 -600.8 239.4 162 162 162
303.7 -608.5 242.5 162 162 162
313.3 -616.4 245.7 163 163 163
315.0 -608.5 242.5 163 163 163
324.8 -616.4 245.7 160 160 160
334.8 -624.5 248.9 160 160 160
340.6 -624.5 248.9 160 160 160
341.9 -616.4 245.7 160 160 160
343.1 -608.5 242.5 160 160 160
348.8 -608.5 242.5 156 159 158
354.4 -608.5 242.5 156 159 158
111.0 -181.8 72.5 161 161 161
111.4 -179.8 71.7 156 159 158
114.3 -181.8 72.5 157 160 159
116.0 -181.8 72.5 157 160 159
52.6 -74.9 29.8 157 160 159
53.1 -74.6 29.7 157 160 159
54.3 -75.2 30.0 158 161 160
55.0 -75.2 30.0 158 161 160
55.4 -74.9 29.8 158 158 158
56.4 -75.2 30.0 158 158 158
57.0 -75.2 30.0 158 158 158
57.8 -75.3 30.0 159 159 159
58.5 -75.3 30.0 159 159 159
58.9 -74.9 29.8 157 157 157
124.6 -95.5 38.1 108 108 108
124.3 -94.5 37.7 105 105 105
123.9 -93.6 37.3 104 103 101
102.0 -522.5 210.2 160 160 160
106.9 -522.5 210.2 160 160 160
111.7 -522.5 210.2 160 160 160
116.6 -522.5 210.2 160 160 160
121.5 -522.5 210.2 159 159 159
126.4 -522.5 210.2 162 162 162
131.3 -522.5 210.2 162 162 162
136.2 -522.5 210.2 162 162 162
141.1 -522.5 210.2 162 162 162
145.9 -522.5 210.2 162 162 162
150.8 -522.5 210.2 166 166 166
155.7 -522.5 210.2 166 166 166
160.6 -522.5 210.2 166 166 166
165.5 -522.5 210.2 166 166 166
170.4 -522.5 210.2 166 166 166
175.3 -522.5 210.2 166 166 166
180.1 -522.5 210.2 166 166 166
185.0 -522.5 210.2 166 166 166
189.9 -522.5 210.2 166 166 166
194.8 -522.5 210.2 168 170 169
199.7 -522.5 210.2 166 166 166
211.6 -540.5 217.4 164 164 164
211.8 -528.3 212.5 164 164 164
209.7 -511.1 205.6 164 164 164
212.1 -505.6 203.4 164 164 164
219.2 -511.1 205.6 164 164 164
229.0 -522.5 210.2 165 165 165
236.5 -528.3 212.5 162 162 162
241.4 -528.3 212.5 162 162 162
246.4 -528.3 212.5 162 162 162
243.1 -511.1 205.6 162 162 162
242.6 -500.2 201.2 162 162 162
242.2 -489.8 197.0 162 162 162
266.1 -528.3 212.5 162 162 162
277.3 -540.5 217.4 163 163 163
273.0 -522.5 210.2 163 163 163
294.2 -553.2 222.5 163 163 163
310.3 -573.4 230.7 163 163 163
301.0 -546.8 220.0 163 163 163
292.5 -522.5 210.2 163 163 163
307.6 -540.5 217.4 160 160 160
316.3 -546.8 220.0 160 160 160
317.7 -540.5 217.4 161 161 161
112.3 -182.3 73.3 156 159 158
112.2 -179.5 72.2 156 159 158
115.7 -182.3 73.3 157 160 159
117.8 -183.0 73.6 157 160 159
117.3 -179.5 72.2 158 161 160
53.0 -74.8 30.1 157 160 159
53.5 -74.4 29.9 157 160 159
54.7 -75.1 30.2 158 161 160
55.3 -75.0 30.2 158 161 160
55.8 -74.8 30.1 159 162 161
56.8 -75.1 30.2 159 162 161
57.3 -74.9 30.1 159 162 161
58.2 -75.1 30.2 159 159 159
59.1 -75.4 30.3 159 159 159
59.3 -74.8 30.1 160 160 160
124.6 -94.6 38.1 105 105 105
118.1 -89.1 35.8 104 103 101
117.9 -88.2 35.5 104 103 101
59.9 -39.8 16.0 163 166 165
45.0 -191.7 77.8 162 162 162
46.8 -191.7 77.8 165 165 165
48.6 -191.7 77.8 165 165 165
50.4 -191.7 77.8 165 165 165
52.2 -191.7 77.8 165 165 165
54.1 -191.7 77.8 165 165 165
55.6 -190.9 77.5 166 166 166
57.4 -190.9 77.5 166 166 166
59.2 -190.9 77.5 166 166 166
61.0 -190.9 77.5 166 166 166
62.8 -190.9 77.5 166 166 166
64.6 -190.9 77.5 166 166 166
66.4 -190.9 77.5 166 166 166
68.2 -190.9 77.5 166 166 166
70.0 -190.9 77.5 166 166 166
71.9 -190.9 77.5 164 164 164
73.7 -190.9 77.5 164 164 164
75.8 -191.7 77.8 164 164 164
78.2 -193.3 78.5 164 164 164
80.4 -194.1 78.8 164 164 164
80.9 -190.9 77.5 164 164 164
81.3 -187.8 76.3 164 164 164
83.4 -188.6 76.6 165 165 165
85.2 -188.6 76.6 165 165 165
88.4 -191.7 77.8 165 165 165
89.9 -190.9 77.5 165 165 165
90.9 -189.4 76.9 162 162 162
92.7 -189.4 76.9 162 162 162
96.5 -193.3 78.5 162 162 162
100.4 -197.4 80.2 162 162 162
97.3 -187.8 76.3 163 163 163
106.0 -197.4 80.2 160 160 160
114.0 -201.7 81.9 163 163 163
112.0 -194.9 79.1 160 160 160
112.9 -193.3 78.5 164 164 164
119.5 -198.2 80.5 164 164 164
121.4 -198.2 80.5 161 161 161
118.7 -190.9 77.5 156 159 158
115.3 -182.7 74.2 161 161 161
120.3 -187.8 76.3 162 162 162
125.1 -192.5 78.2 162 162 162
120.0 -182.0 73.9 163 163 163
53.7 -74.1 30.1 157 160 159
54.9 -74.7 30.3 158 161 160
55.6 -74.7 30.3 158 161 160
55.8 -74.1 30.1 159 162 161
57.0 -74.7 30.3 159 162 161
57.0 -73.8 30.0 159 162 161
59.2 -73.9 30.0 160 160 160
121.4 -91.3 37.1 105 105 105
114.7 -85.6 34.8 104 103 101
57.3 -39.5 16.0 95 95 95
57.7 -39.4 16.0 95 95 95
57.9 -39.4 16.0 193 193 193
58.1 -39.2 15.9 162 162 162
56.7 -38.0 15.4 197 200 199
59.8 -39.6 16.1 212 213 212
59.7 -39.3 16.0 165 168 167
58.5 -38.3 15.6 159 159 159
45.7 -126.8 52.0 166 166 166
47.0 -126.8 52.0 166 166 166
48.2 -126.8 52.0 166 166 166
49.4 -126.8 52.0 166 166 166
56.7 -135.7 55.6 164 164 164
58.0 -135.7 55.6 164 164 164
56.0 -128.2 52.5 164 164 164
56.6 -126.8 52.0 165 165 165
57.2 -125.4 51.4 165 165 165
61.4 -131.8 54.0 165 165 165
60.4 -127.1 52.1 165 165 165
61.5 -126.8 52.0 165 165 165
62.7 -126.8 52.0 162 162 162
64.0 -127.1 52.1 162 162 162
64.0 -124.7 51.1 162 162 162
64.5 -123.4 50.6 166 166 166
71.8 -134.9 55.3 166 166 166
68.0 -125.4 51.4 166 166 166
80.4 -138.6 56.8 166 166 166
425.3 -709.9 291.0 164 164 164
130.1 -204.2 83.7 164 164 164
131.5 -203.3 83.3 165 165 165
134.0 -204.2 83.7 165 165 165
128.5 -193.1 79.1 166 166 166
53.8 -74.4 30.5 160 163 162
54.3 -74.2 30.4 160 163 162
56.0 -75.5 31.0 161 164 163
56.6 -75.3 30.9 158 161 160
57.5 -75.5 31.0 159 162 161
58.2 -75.5 31.0 159 162 161
57.5 -73.7 30.2 159 162 161
103.3 -75.9 31.1 104 103 101
56.6 -37.9 15.5 154 154 154
56.2 -37.4 15.3 197 200 199
59.2 -38.8 15.9 205 205 205
58.1 -37.9 15.5 215 215 215
57.7 -37.4 15.3 212 213 212
57.4 -37.0 15.2 204 204 204
21.0 -109.6 45.4 161 161 161
22.0 -109.6 45.4 163 163 163
23.1 -109.6 45.4 163 163 163
24.1 -109.6 45.4 163 163 163
25.2 -109.6 45.4 163 163 163
26.2 -109.6 45.4 165 165 165
27.3 -109.6 45.4 165 165 165
28.3 -109.6 45.4 166 169 168
29.4 -109.6 45.4 166 169 168
30.4 -109.6 45.4 166 169 168
31.5 -109.6 45.4 166 169 168
32.6 -109.6 45.4 166 169 168
33.6 -109.6 45.4 168 170 169
34.7 -109.6 45.4 168 170 169
35.7 -109.6 45.4 168 170 169
36.8 -109.6 45.4 166 166 166
37.8 -109.6 45.4 166 166 166
38.9 -109.6 45.4 166 166 166
39.9 -109.6 45.4 166 166 166
41.0 -109.6 45.4 166 166 166
42.0 -109.6 45.4 166 166 166
43.1 -109.6 45.4 164 164 164
44.2 -109.6 45.4 164 164 164
45.3 -109.9 45.5 164 164 164
46.4 -109.9 45.5 164 164 164
47.4 -109.9 45.5 164 164 164
48.5 -109.9 45.5 164 164 164
49.5 -109.9 45.5 165 165 165
50.4 -109.3 45.3 165 165 165
51.3 -109.1 45.1 165 165 165
52.7 -109.9 45.5 165 165 165
53.8 -109.9 45.5 162 162 162
54.7 -109.6 45.4 168 168 168
55.9 -109.9 45.5 165 165 165
56.9 -109.9 45.5 166 166 166
57.2 -108.3 44.8 166 166 166
61.1 -113.7 47.1 166 166 166
61.9 -113.1 46.8 166 166 166
60.9 -109.3 45.3 168 168 168
62.2 -109.9 45.5 168 168 168
418.8 -692.5 286.6 167 167 167
132.6 -203.1 84.1 168 168 168
136.4 -205.9 85.2 168 168 168
126.9 -188.9 78.2 168 168 168
55.3 -74.8 31.0 165 165 165
57.4 -76.7 31.7 166 166 166
58.3 -76.8 31.8 161 164 163
59.3 -77.2 32.0 162 165 164
59.9 -76.9 31.8 159 162 161
58.6 -74.4 30.8 159 162 161
95.0 -68.6 28.4 104 103 101
55.7 -36.7 15.2 196 196 196
57.2 -37.0 15.3 179 179 179
56.3 -36.1 15.0 209 209 209
55.7 -35.6 14.7 182 185 184
53.9 -34.2 14.1 215 215 215
31.0 -94.3 39.4 166 166 166
31.9 -94.3 39.4 166 166 166
36.5 -94.3 39.4 166 166 166
37.4 -94.3 39.4 166 166 166
38.4 -94.3 39.4 167 167 167
42.1 -94.5 39.5 167 167 167
47.3 -103.8 43.4 167 167 167
43.9 -94.3 39.4 167 167 167
44.6 -93.9 39.2 167 167 167
45.7 -94.3 39.4 167 167 167
51.3 -103.8 43.4 168 168 168
47.6 -94.5 39.5 170 172 172
48.6 -94.7 39.6 170 172 172
54.2 -103.6 43.3 168 168 168
50.3 -94.3 39.4 170 172 172
50.3 -92.8 38.8 170 172 172
58.5 -104.1 43.5 170 172 172
60.8 -104.5 43.7 168 168 168
62.8 -106.3 44.4 168 168 168
63.7 -106.0 44.3 169 169 169
292.5 -471.5 197.0 169 169 169
123.3 -187.0 78.2 170 171 170
128.3 -191.8 80.2 170 171 170
126.9 -187.0 78.2 170 171 170
106.7 -155.0 64.8 172 172 172
55.2 -74.0 30.9 172 172 172
57.7 -76.3 31.9 168 168 168
58.6 -76.5 32.0 169 169 169
61.0 -78.6 32.8 167 167 167
61.7 -78.6 32.8 167 167 167
88.0 -62.5 26.1 98 100 100
55.4 -35.3 14.7 205 205 205
54.2 -34.3 14.3 215 215 215
52.1 -32.5 13.6 218 218 218
39.0 -86.7 36.6 169 171 170
46.1 -87.2 36.8 170 172 172
46.8 -87.0 36.7 170 172 172
50.6 -87.5 36.9 170 172 172
50.7 -86.4 36.4 170 172 172
52.1 -87.2 36.8 171 173 173
52.6 -86.7 36.6 173 175 175
183.3 -283.7 119.7 171 173 173
167.1 -254.7 107.5 171 173 173
126.9 -185.2 78.2 172 174 174
54.0 -73.5 31.0 173 173 173
53.0 -71.1 30.0 172 172 172
54.1 -71.7 30.3 174 174 174
56.1 -73.5 31.0 174 174 174
56.5 -73.0 30.8 175 175 175
111.5 -140.5 59.3 174 174 174
51.9 -32.3 13.6 218 218 218
51.5 -31.9 13.4 218 218 218
46.1 -77.7 33.1 181 181 181
47.1 -78.1 33.3 181 181 181
47.4 -77.3 33.0 179 179 179
48.3 -77.6 33.1 174 176 176
191.8 -293.9 125.3 182 182 182
167.1 -252.2 107.5 182 182 182
143.5 -213.4 90.9 172 174 174
142.8 -209.4 89.2 180 180 180
137.2 -198.1 84.4 180 180 180
175.1 -249.3 106.3 176 179 178
28.5 -38.4 16.4 177 180 179
54.2 -71.1 30.3 178 181 180
56.8 -72.6 31.0 178 181 180
55.7 -70.5 30.0 176 179 178
44.5 -27.9 11.9 209 209 209
43.7 -71.8 30.9 197 197 197
45.2 -71.9 31.0 204 204 204
183.3 -278.1 119.7 200 200 200
157.2 -235.0 101.2 200 200 200
141.4 -208.3 89.7 205 205 205
139.5 -202.5 87.2 202 202 202
133.6 -191.1 82.2 202 202 202
164.0 -231.3 99.6 203 203 203
156.4 -217.5 93.6 199 199 199
27.5 -36.7 15.8 200 200 200
27.6 -36.3 15.6 204 204 204
57.1 -72.4 31.2 205 205 205
48.2 -31.3 13.5 95 98 97
48.4 -31.2 13.4 98 100 100
49.1 -31.5 13.5 108 108 108
49.3 -31.4 13.5 200 202 202
42.3 -26.1 11.2 180 183 182
43.2 -70.2 30.5 204 204 204
45.2 -71.2 31.0 204 204 204
45.0 -69.7 30.3 204 204 204
147.8 -218.6 95.1 204 204 204
136.9 -199.6 86.8 205 205 205
136.4 -196.0 85.2 205 205 205
130.2 -184.3 80.2 205 205 205
152.8 -213.3 92.7 205 205 205
149.1 -205.2 89.2 206 206 206
137.5 -186.7 81.2 206 206 206
27.1 -35.4 15.4 204 204 204
48.1 -30.9 13.5 95 98 97
48.3 -30.9 13.4 98 100 100
39.7 -24.2 10.5 182 185 184
47.2 -74.8 32.8 207 207 207
46.0 -71.7 31.5 207 207 207
44.2 -67.7 29.7 207 207 207
42.6 -64.4 28.3 207 207 207
133.2 -192.3 84.4 205 205 205
132.2 -188.1 82.6 205 205 205
126.4 -177.2 77.8 205 205 205
135.5 -187.2 82.2 205 205 205
141.7 -193.1 84.8 206 206 206
133.5 -179.4 78.8 206 206 206
27.1 -35.0 15.4 207 207 207
26.8 -34.2 15.0 207 207 207
43.2 -68.9 30.6 207 207 207
48.0 -75.2 33.4 209 209 209
46.2 -71.2 31.6 207 207 207
44.6 -67.7 30.0 207 207 207
123.7 -164.6 73.0 206 206 206
112.4 -147.5 65.5 206 206 206
107.6 -139.3 61.8 207 207 207
26.9 -33.9 15.1 207 207 207
280.1 -205.9 91.4 124 124 124
43.4 -68.4 30.7 208 208 208
50.1 -77.7 34.8 209 209 209
46.6 -71.1 31.9 206 206 206
45.0 -67.6 30.3 206 206 206
44.5 -65.8 29.5 207 207 207
117.8 -155.1 69.5 208 208 208
28.0 -35.9 16.1 209 209 209
27.3 -34.5 15.5 209 209 209
27.1 -33.8 15.2 207 207 207
50.1 -76.9 34.8 208 208 208
45.2 -67.1 30.4 208 208 208
44.4 -65.0 29.5 208 208 208
44.4 -63.9 29.0 208 208 208
27.7 -35.2 15.9 208 208 208
27.4 -34.3 15.5 208 208 208
26.9 -33.3 15.1 209 209 209
-22.5 -22.2 10.2 47 47 47
-16.4 -22.3 10.2 117 119 118
42.9 -66.2 30.3 207 207 207
45.2 -66.5 30.5 208 208 208
44.8 -64.8 29.7 208 208 208
45.1 -64.3 29.5 208 208 208
27.5 -34.1 15.6 208 208 208
27.0 -33.0 15.1 208 208 208
-29.0 -22.2 10.3 46 45 43
-29.0 -22.4 10.4 46 45 43
-28.5 -22.2 10.3 47 48 47
-28.5 -22.4 10.4 47 47 47
-28.0 -22.2 10.3 46 45 43
-27.8 -22.2 10.3 47 47 47
-27.5 -22.2 10.3 47 47 47
-27.5 -22.4 10.4 49 49 49
-27.2 -22.4 10.3 47 47 47
-27.0 -22.4 10.4 47 47 47
-26.6 -22.2 10.3 47 47 47
-26.6 -22.4 10.4 45 44 43
-26.3 -22.4 10.4 45 44 43
-25.9 -22.2 10.3 45 44 43
-25.6 -22.2 10.3 45 44 43
-25.4 -22.2 10.3 41 41 41
-25.1 -22.2 10.3 41 41 41
-25.1 -22.4 10.4 41 41 41
-24.9 -22.4 10.4 41 41 41
-24.4 -22.2 10.3 41 41 41
-24.4 -22.4 10.4 39 39 39
-24.1 -22.4 10.4 39 39 39
-23.9 -22.4 10.4 39 39 39
-23.5 -22.2 10.3 38 38 38
-23.2 -22.2 10.3 38 38 38
-23.0 -22.2 10.3 38 38 38
-22.6 -22.1 10.2 38 38 38
-20.9 -22.3 10.3 88 88 88
-20.6 -22.2 10.3 93 96 95
-20.4 -22.2 10.3 95 98 97
-20.2 -22.4 10.4 101 101 101
-19.8 -22.4 10.4 105 105 105
-19.0 -22.4 10.4 105 107 107
-18.5 -22.3 10.3 107 109 109
-18.2 -22.2 10.3 111 111 111
-16.6 -22.3 10.3 115 115 115
-16.3 -22.2 10.3 117 119 118
-15.3 -22.2 10.3 121 121 121
-15.1 -22.2 10.3 123 123 123
-14.9 -22.3 10.3 121 121 121
-14.7 -22.4 10.3 123 123 123
-14.2 -22.0 10.2 123 123 123
-9.2 -22.4 10.4 137 139 138
43.1 -65.8 30.5 207 207 207
45.6 -66.3 30.7 207 207 207
45.3 -64.9 30.0 207 207 207
45.3 -64.0 29.6 207 207 207
27.6 -33.9 15.7 207 207 207
27.0 -32.6 15.1 207 207 207
26.6 -31.8 14.7 208 208 208
-30.5 -23.2 10.8 47 48 47
-29.5 -23.2 10.8 50 50 50
-27.5 -23.2 10.8 47 48 47
-25.7 -23.2 10.8 42 42 42
-24.7 -23.1 10.8 40 40 40
-23.0 -23.2 10.9 42 42 42
-22.4 -23.4 11.0 50 50 50
-21.9 -23.2 10.8 59 60 58
-21.7 -23.2 10.8 78 78 78
-21.5 -23.2 10.9 85 87 87
-21.3 -23.3 10.9 94 94 94
-19.8 -23.3 10.9 106 106 106
-19.4 -23.1 10.8 107 109 109
-19.4 -23.4 11.0 106 108 108
-18.1 -23.4 11.0 108 110 110
-17.7 -23.2 10.8 113 114 113
-16.6 -23.1 10.8 117 117 117
-16.3 -23.0 10.8 118 120 119
-16.2 -23.2 10.8 118 120 119
-16.0 -23.2 10.9 117 119 118
-15.6 -23.0 10.8 117 119 118
-15.3 -22.9 10.7 117 119 118
-9.8 -23.1 10.8 136 136 136
-9.5 -23.5 11.0 139 138 137
-9.1 -23.1 10.8 139 139 139
-8.9 -23.3 10.9 140 142 141
43.2 -65.3 30.6 206 206 206
48.9 -71.6 33.5 209 209 209
46.0 -66.3 31.0 206 206 206
45.5 -64.5 30.2 206 206 206
45.2 -63.1 29.5 206 206 206
52.2 -71.8 33.6 207 207 207
53.3 -72.2 33.8 207 207 207
55.3 -73.8 34.5 207 207 207
27.7 -33.6 15.7 208 208 208
27.0 -32.3 15.1 207 207 207
26.6 -31.4 14.7 207 207 207
-31.1 -23.3 11.0 48 48 48
-30.9 -23.4 11.0 48 48 48
-30.6 -23.4 11.0 48 48 48
-30.3 -23.3 11.0 48 48 48
-30.1 -23.4 11.0 50 50 50
-29.8 -23.4 11.0 50 50 50
-29.5 -23.3 11.0 50 50 50
-29.3 -23.3 11.0 53 52 52
-29.1 -23.4 11.0 50 50 50
-28.8 -23.4 11.0 50 50 50
-28.5 -23.3 11.0 48 48 48
-28.3 -23.4 11.0 48 48 48
-28.0 -23.4 11.0 47 48 47
-27.8 -23.4 11.0 47 48 47
-27.5 -23.3 11.0 47 48 47
-27.2 -23.3 11.0 46 46 44
-27.0 -23.3 11.0 46 46 44
-26.7 -23.3 11.0 46 46 44
-26.5 -23.4 11.0 42 43 42
-26.2 -23.3 11.0 42 43 42
-26.0 -23.4 11.0 41 41 41
-25.7 -23.4 11.0 41 41 41
-25.4 -23.3 11.0 41 41 41
-25.1 -23.3 11.0 41 41 41
-24.9 -23.3 11.0 41 41 41
-24.7 -23.4 11.0 40 40 40
-24.4 -23.4 11.0 40 40 40
-24.2 -23.3 11.0 37 38 37
-23.9 -23.4 11.0 38 38 38
-23.7 -23.4 11.0 38 38 38
-23.3 -23.3 11.0 41 41 41
-23.1 -23.4 11.0 41 41 41
-22.9 -23.4 11.0 42 43 42
-22.6 -23.3 11.0 46 45 43
-22.4 -23.3 11.0 46 45 43
-22.1 -23.3 11.0 49 49 49
-21.9 -23.4 11.0 52 53 51
-21.6 -23.3 11.0 68 68 68
-21.3 -23.3 11.0 85 85 85
-21.1 -23.4 11.0 87 89 88
-20.8 -23.3 11.0 90 90 90
-20.6 -23.4 11.0 96 99 98
-20.3 -23.4 11.0 102 102 102
-20.0 -23.3 11.0 97 100 99
-19.8 -23.3 11.0 101 101 101
-19.5 -23.3 11.0 103 103 103
-19.3 -23.4 11.0 105 105 105
-19.0 -23.3 11.0 107 107 107
-18.8 -23.3 11.0 105 105 105
-18.5 -23.4 11.0 108 110 110
-18.2 -23.3 11.0 107 109 109
-18.0 -23.3 11.0 110 112 111
-17.7 -23.3 11.0 107 109 109
-17.5 -23.3 11.0 107 109 109
-17.2 -23.3 11.0 109 111 111
-16.9 -23.2 11.0 112 112 112
-16.5 -23.4 11.0 115 114 114
-16.2 -23.3 11.0 116 116 116
-15.7 -23.0 10.9 116 116 116
-10.3 -23.4 11.1 132 135 134
-9.8 -23.4 11.0 135 135 135
-9.5 -23.4 11.0 134 137 136
-9.2 -23.2 11.0 138 137 136
-9.0 -23.3 11.0 139 139 139
-8.7 -23.3 11.0 140 142 141
-4.4 -23.4 11.1 173 175 175
-4.1 -23.4 11.1 172 174 174
-3.9 -23.4 11.1 178 178 178
-3.6 -23.4 11.0 177 177 177
-3.4 -23.4 11.1 180 180 180
-3.1 -23.4 11.1 180 180 180
-2.3 -23.4 11.1 181 181 181
-2.1 -23.4 11.0 181 181 181
-1.8 -23.4 11.0 181 181 181
-1.3 -23.4 11.1 181 181 181
-1.1 -23.4 11.1 181 181 181
-0.8 -23.4 11.0 181 181 181
-0.5 -23.4 11.0 180 180 180
-0.3 -23.4 11.0 180 180 180
-0.0 -23.4 11.0 180 180 180
0.2 -23.4 11.0 180 180 180
0.5 -23.4 11.1 180 180 180
0.7 -23.4 11.1 180 180 180
1.0 -23.4 11.0 180 180 180
6.9 -23.4 11.1 209 209 209
7.2 -23.4 11.0 209 209 209
7.9 -23.3 11.0 209 209 209
8.2 -23.3 11.0 209 209 209
8.4 -23.4 11.0 209 209 209
8.7 -23.3 11.0 209 209 209
9.0 -23.4 11.0 209 209 209
9.2 -23.4 11.0 209 209 209
9.5 -23.3 11.0 209 209 209
9.7 -23.3 11.0 209 209 209
10.0 -23.3 11.0 209 209 209
10.2 -23.4 11.0 209 209 209
10.5 -23.3 11.0 209 209 209
10.8 -23.4 11.1 209 209 209
11.0 -23.4 11.0 209 209 209
11.3 -23.4 11.0 209 209 209
11.5 -23.3 11.0 209 209 209
11.8 -23.3 11.0 209 209 209
12.0 -23.4 11.1 209 209 209
12.3 -23.3 11.0 209 209 209
12.6 -23.4 11.0 209 209 209
12.8 -23.4 11.0 209 209 209
13.1 -23.4 11.0 209 209 209
13.3 -23.3 11.0 209 209 209
13.6 -23.4 11.0 209 209 209
13.8 -23.3 11.0 209 209 209
14.6 -23.4 11.0 209 209 209
14.9 -23.4 11.0 209 209 209
49.8 -73.2 34.6 209 209 209
49.0 -70.9 33.5 209 209 209
47.3 -67.3 31.8 209 209 209
46.5 -65.1 30.8 209 209 209
45.5 -62.8 29.7 209 209 209
53.0 -71.0 33.6 206 206 206
54.5 -71.9 34.0 207 207 207
54.4 -70.8 33.5 207 207 207
27.9 -33.9 16.0 208 208 208
27.9 -33.4 15.8 208 208 208
27.0 -31.9 15.1 206 206 206
26.6 -31.0 14.7 206 206 206
493.7 -353.9 167.4 166 166 166
-38.0 -28.2 13.5 49 49 49
-37.8 -28.3 13.5 51 51 51
-37.4 -28.3 13.5 51 51 51
-37.3 -28.4 13.6 51 51 51
-36.9 -28.3 13.6 49 49 49
-36.7 -28.4 13.6 51 51 51
-36.2 -28.3 13.5 53 53 53
-35.9 -28.3 13.5 53 53 53
-35.6 -28.3 13.5 51 51 51
-35.2 -28.3 13.5 51 51 51
-35.0 -28.3 13.6 51 51 51
-34.8 -28.4 13.6 51 51 51
-34.3 -28.3 13.5 51 51 51
-34.0 -28.3 13.5 53 52 52
-33.7 -28.3 13.5 51 51 51
-33.4 -28.3 13.5 48 48 48
-33.2 -28.4 13.6 48 48 48
-32.9 -28.4 13.6 47 46 45
-32.5 -28.3 13.5 47 46 45
-32.1 -28.3 13.5 47 46 45
-29.4 -28.3 13.6 39 39 39
-29.0 -28.3 13.5 39 39 39
-28.7 -28.3 13.5 42 42 42
-28.4 -28.4 13.6 39 39 39
-28.1 -28.3 13.6 42 42 42
-27.7 -28.3 13.5 42 42 42
-27.4 -28.2 13.5 42 42 42
-27.1 -28.3 13.5 43 43 43
-26.7 -28.2 13.5 43 43 43
-26.5 -28.3 13.6 47 46 45
-26.2 -28.3 13.5 50 50 50
-25.9 -28.3 13.6 42 43 42
-25.6 -28.4 13.6 81 81 81
-25.3 -28.4 13.6 94 94 94
-24.8 -28.2 13.5 95 95 95
-24.4 -28.4 13.6 97 97 97
-23.2 -28.2 13.5 99 101 101
-16.5 -22.5 10.8 108 108 108
-15.9 -22.7 10.9 109 111 111
-15.5 -22.5 10.8 111 113 112
-14.3 -28.4 13.6 119 119 119
-13.8 -28.1 13.5 119 119 119
-13.5 -28.2 13.5 118 118 118
-9.9 -23.3 11.1 128 130 129
-9.6 -23.2 11.1 128 130 129
-11.1 -28.4 13.6 139 139 139
-10.7 -28.3 13.6 137 137 137
-3.2 -28.2 13.5 186 186 186
-2.9 -28.3 13.5 186 186 186
-2.6 -28.3 13.5 183 183 183
-2.2 -28.3 13.5 183 183 183
-1.9 -28.3 13.5 183 183 183
0.7 -23.3 11.1 182 182 182
1.0 -23.2 11.1 182 182 182
8.8 -28.4 13.6 208 208 208
9.1 -28.4 13.6 208 208 208
9.4 -28.4 13.6 208 208 208
9.7 -28.3 13.5 208 208 208
10.0 -28.2 13.5 208 208 208
10.3 -28.3 13.5 208 208 208
10.7 -28.3 13.5 208 208 208
11.0 -28.3 13.5 208 208 208
11.9 -28.3 13.6 208 208 208
12.3 -28.3 13.6 208 208 208
12.6 -28.3 13.6 208 208 208
13.2 -28.2 13.5 208 208 208
13.4 -23.3 11.1 208 208 208
16.9 -28.2 13.5 208 208 208
17.3 -28.3 13.5 208 208 208
17.5 -28.2 13.5 208 208 208
17.9 -28.3 13.6 208 208 208
18.1 -28.2 13.5 208 208 208
18.4 -28.2 13.5 208 208 208
48.8 -69.9 33.4 208 208 208
47.8 -67.4 32.2 208 208 208
45.0 -61.4 29.4 208 208 208
52.3 -69.3 33.1 206 206 206
53.7 -70.1 33.5 206 206 206
53.2 -68.4 32.7 206 206 206
54.4 -69.0 33.0 206 206 206
27.8 -33.0 15.8 210 210 210
27.1 -31.7 15.2 207 207 207
-39.0 -28.7 13.9 52 52 52
-38.0 -29.1 14.1 54 54 54
-35.9 -29.0 14.0 53 53 53
-33.9 -29.0 14.0 48 47 46
-33.0 -28.7 13.9 44 44 44
-29.8 -28.8 13.9 42 43 42
-29.2 -28.8 13.9 40 40 40
-28.8 -28.7 13.9 40 40 40
-28.5 -28.8 13.9 42 43 42
-27.2 -28.8 13.9 45 45 45
-26.5 -29.1 14.1 45 45 45
-26.0 -28.8 13.9 48 47 46
-25.4 -28.9 14.0 89 89 89
-25.0 -28.9 14.0 90 90 90
-14.2 -28.7 13.9 110 112 111
-13.8 -28.5 13.8 109 109 109
-11.0 -28.8 13.9 150 150 150
9.1 -29.1 14.1 208 208 208
9.4 -28.8 13.9 208 208 208
9.7 -28.8 13.9 208 208 208
12.4 -29.1 14.1 208 208 208
12.7 -29.1 14.1 208 208 208
12.1 -24.4 11.8 208 208 208
17.2 -28.9 14.0 208 208 208
17.9 -29.0 14.0 208 208 208
19.1 -30.5 14.7 208 208 208
18.4 -28.8 13.9 208 208 208
49.1 -69.5 33.6 208 208 208
48.7 -67.8 32.8 208 208 208
44.2 -59.6 28.8 208 208 208
42.8 -56.9 27.5 208 208 208
52.3 -68.5 33.1 208 208 208
53.3 -68.9 33.3 208 208 208
53.1 -67.5 32.7 208 208 208
54.7 -68.6 33.2 206 206 206
27.1 -31.4 15.2 207 207 207
25.0 -26.8 13.0 206 206 206
-21.5 -20.9 10.2 43 43 43
-27.8 -30.1 14.7 44 44 44
-27.5 -30.6 15.0 47 47 47
-15.5 -30.2 14.8 92 95 94
-15.0 -29.9 14.6 100 100 100
-12.5 -30.5 14.9 25 25 25
-12.0 -30.1 14.7 36 35 34
8.6 -30.2 14.8 208 208 208
10.9 -31.0 15.2 207 207 207
11.1 -30.6 15.0 204 204 204
11.4 -30.6 15.0 207 207 207
11.8 -30.5 14.9 207 207 207
12.2 -30.8 15.0 207 207 207
12.6 -30.9 15.1 207 207 207
12.9 -30.8 15.1 207 207 207
13.3 -30.8 15.1 204 204 204
13.4 -30.3 14.8 207 207 207
13.7 -30.3 14.8 207 207 207
14.4 -31.1 15.2 207 207 207
14.6 -30.6 15.0 207 207 207
14.8 -30.3 14.8 207 207 207
15.5 -31.0 15.2 207 207 207
15.5 -30.4 14.9 207 207 207
15.8 -30.3 14.8 207 207 207
16.3 -30.5 14.9 207 207 207
16.5 -30.4 14.8 207 207 207
17.9 -30.9 15.1 207 207 207
18.1 -30.7 15.0 207 207 207
18.6 -30.9 15.1 207 207 207
18.7 -30.6 15.0 207 207 207
19.0 -30.5 14.9 207 207 207
19.3 -30.4 14.9 207 207 207
20.0 -30.9 15.1 207 207 207
49.3 -67.8 33.2 207 207 207
43.7 -58.3 28.5 207 207 207
42.9 -56.4 27.6 207 207 207
43.4 -56.3 27.5 208 208 208
44.0 -56.2 27.5 208 208 208
25.1 -26.9 13.2 207 207 207
25.1 -26.6 13.0 205 205 205
25.5 -26.7 13.1 206 206 206
26.1 -27.1 13.2 206 206 206
-10.6 -24.8 12.3 27 29 27
-8.0 -24.8 12.3 215 215 215
-7.8 -24.9 12.3 214 214 214
-7.5 -24.9 12.3 214 214 214
-5.5 -24.8 12.3 204 204 204
-5.2 -24.8 12.3 203 203 203
-4.9 -24.9 12.3 203 203 203
-4.6 -24.8 12.3 202 202 202
-4.3 -24.9 12.3 200 200 200
-4.0 -24.8 12.3 197 197 197
-2.3 -24.9 12.3 194 194 194
-2.0 -24.9 12.3 196 196 196
-1.8 -24.9 12.3 196 196 196
-1.5 -24.8 12.3 194 194 194
-1.2 -24.8 12.3 196 196 196
-0.9 -24.8 12.3 194 194 194
-0.6 -24.9 12.3 194 194 194
-0.3 -24.9 12.3 191 191 191
-0.0 -24.8 12.3 191 191 191
0.2 -24.8 12.3 191 191 191
0.5 -24.9 12.3 191 191 191
0.8 -24.9 12.3 188 188 188
1.4 -24.9 12.3 188 188 188
2.3 -24.9 12.3 185 185 185
2.5 -24.8 12.3 185 185 185
2.8 -24.7 12.2 185 185 185
3.1 -24.9 12.3 182 182 182
4.8 -24.9 12.3 178 178 178
5.1 -24.8 12.3 178 178 178
5.7 -24.9 12.3 204 204 204
6.0 -24.9 12.3 207 207 207
6.8 -24.8 12.3 210 210 210
7.1 -24.8 12.3 210 210 210
7.4 -24.8 12.3 210 210 210
7.7 -24.8 12.3 210 210 210
8.0 -24.9 12.3 207 207 207
11.2 -31.4 15.5 210 210 210
9.1 -24.9 12.3 207 207 207
9.4 -24.9 12.3 209 209 209
9.7 -24.8 12.3 207 207 207
10.0 -24.9 12.3 207 207 207
13.3 -31.5 15.6 211 211 211
11.4 -24.8 12.3 207 207 207
11.6 -24.8 12.3 207 207 207
12.0 -24.9 12.3 207 207 207
12.3 -24.9 12.3 207 207 207
12.5 -24.8 12.3 207 207 207
12.8 -24.8 12.3 207 207 207
13.1 -24.8 12.3 207 207 207
13.4 -24.8 12.3 207 207 207
13.7 -24.8 12.3 207 207 207
14.0 -24.8 12.3 207 207 207
14.2 -24.8 12.3 207 207 207
14.5 -24.8 12.3 207 207 207
19.1 -31.5 15.6 207 207 207
19.8 -32.0 15.8 207 207 207
16.3 -24.9 12.3 207 207 207
16.5 -24.8 12.3 207 207 207
16.8 -24.9 12.3 207 207 207
17.1 -24.9 12.3 207 207 207
17.4 -24.9 12.3 207 207 207
43.6 -57.6 28.5 207 207 207
43.1 -56.1 27.7 207 207 207
44.0 -56.4 27.9 207 207 207
44.9 -56.6 28.0 207 207 207
45.9 -57.1 28.2 207 207 207
46.4 -57.0 28.2 208 208 208
25.8 -26.7 13.2 205 205 205
26.2 -26.8 13.3 205 205 205
26.5 -26.8 13.3 205 205 205
-16.7 -32.6 16.3 26 26 26
-16.2 -32.3 16.2 28 28 28
-15.9 -32.5 16.3 27 27 27
-15.7 -32.8 16.4 29 30 28
-15.1 -32.4 16.2 29 30 28
-10.4 -24.7 12.4 32 32 32
-8.1 -24.7 12.4 218 221 220
-7.8 -24.7 12.4 218 221 220
-7.5 -24.7 12.4 218 221 220
-7.2 -24.7 12.3 217 220 219
-6.9 -24.7 12.3 217 220 219
-6.4 -24.7 12.4 215 218 217
-6.0 -24.6 12.3 214 214 214
-5.8 -24.7 12.3 211 211 211
-5.5 -24.6 12.3 209 209 209
-5.2 -24.7 12.3 210 210 210
-4.9 -24.7 12.3 208 208 208
-4.6 -24.6 12.3 205 205 205
-4.3 -24.7 12.4 205 205 205
-4.1 -24.7 12.3 202 202 202
-3.8 -24.7 12.3 202 202 202
-3.5 -24.7 12.4 202 202 202
-3.2 -24.7 12.4 202 202 202
-2.9 -24.7 12.4 198 198 198
-2.6 -24.7 12.4 198 198 198
-2.3 -24.7 12.4 198 198 198
-2.0 -24.7 12.4 195 195 195
-1.8 -24.7 12.4 195 195 195
-1.5 -24.7 12.4 198 198 198
-1.2 -24.7 12.3 198 198 198
-0.9 -24.7 12.4 198 198 198
-0.6 -24.7 12.4 195 195 195
-0.3 -24.7 12.4 195 195 195
-0.0 -24.7 12.3 195 195 195
0.3 -24.7 12.3 195 195 195
0.5 -24.7 12.4 192 192 192
1.4 -24.7 12.3 190 190 190
1.7 -24.7 12.3 190 190 190
2.0 -24.7 12.3 190 190 190
2.3 -24.7 12.3 186 186 186
2.5 -24.6 12.3 186 186 186
2.8 -24.6 12.3 184 184 184
3.1 -24.7 12.4 186 186 186
4.9 -24.8 12.4 178 178 178
5.1 -24.7 12.3 178 178 178
5.4 -24.6 12.3 175 175 175
5.7 -24.8 12.4 204 204 204
6.0 -24.7 12.4 207 207 207
6.3 -24.7 12.4 209 209 209
6.8 -24.6 12.3 209 209 209
7.1 -24.7 12.3 209 209 209
7.4 -24.7 12.3 209 209 209
7.7 -24.6 12.3 209 209 209
8.0 -24.8 12.4 209 209 209
8.3 -24.8 12.4 209 209 209
8.6 -24.7 12.4 209 209 209
8.9 -24.7 12.3 209 209 209
9.2 -24.7 12.4 209 209 209
9.5 -24.7 12.4 209 209 209
9.7 -24.7 12.3 209 209 209
10.0 -24.7 12.4 209 209 209
10.3 -24.6 12.3 209 209 209
10.6 -24.7 12.3 209 209 209
10.9 -24.7 12.4 209 209 209
11.2 -24.7 12.4 209 209 209
11.4 -24.6 12.3 207 207 207
11.7 -24.6 12.3 207 207 207
12.0 -24.7 12.3 207 207 207
12.3 -24.7 12.4 207 207 207
12.6 -24.7 12.4 207 207 207
12.9 -24.7 12.4 206 206 206
13.1 -24.6 12.3 206 206 206
13.4 -24.7 12.3 206 206 206
13.7 -24.7 12.3 206 206 206
14.0 -24.7 12.3 206 206 206
14.3 -24.7 12.4 206 206 206
14.6 -24.7 12.3 206 206 206
20.3 -32.3 16.2 206 206 206
20.6 -32.3 16.2 206 206 206
16.4 -24.7 12.4 206 206 206
16.6 -24.7 12.3 206 206 206
16.9 -24.7 12.4 206 206 206
17.5 -24.7 12.4 206 206 206
17.8 -24.7 12.4 206 206 206
18.1 -24.7 12.4 206 206 206
46.6 -61.7 30.9 206 206 206
43.8 -57.2 28.6 206 206 206
43.3 -55.7 27.9 206 206 206
46.5 -57.3 28.7 207 207 207
46.6 -56.5 28.3 207 207 207
47.7 -57.1 28.6 207 207 207
26.2 -26.5 13.3 204 204 204
26.5 -26.5 13.3 205 205 205
38.3 -20.3 10.2 119 119 119
-46.8 -33.3 16.9 57 57 57
-46.4 -33.3 16.9 59 60 58
-45.9 -33.3 16.9 59 60 58
-36.2 -33.4 16.9 48 48 48
-17.1 -32.9 16.7 30 31 30
-16.5 -32.6 16.5 28 28 28
-16.3 -33.6 17.0 29 31 29
-10.3 -24.3 12.3 34 36 36
2.5 -24.2 12.3 189 189 189
5.1 -24.4 12.3 180 180 180
7.4 -24.4 12.3 209 209 209
7.7 -24.4 12.3 209 209 209
8.1 -24.6 12.4 209 209 209
8.3 -24.5 12.4 209 209 209
8.9 -24.4 12.3 209 209 209
9.2 -24.5 12.4 209 209 209
9.5 -24.5 12.4 209 209 209
9.7 -24.4 12.3 209 209 209
10.0 -24.4 12.4 209 209 209
10.2 -24.3 12.3 209 209 209
11.2 -24.4 12.4 208 208 208
11.3 -24.1 12.2 206 206 206
11.6 -24.1 12.2 206 206 206
12.0 -24.4 12.3 206 206 206
12.3 -24.4 12.4 206 206 206
12.6 -24.5 12.4 206 206 206
12.9 -24.4 12.4 206 206 206
13.0 -24.1 12.2 206 206 206
13.7 -24.4 12.4 206 206 206
14.5 -24.3 12.3 206 206 206
14.9 -24.4 12.4 206 206 206
15.2 -24.5 12.4 206 206 206
15.8 -24.5 12.4 208 208 208
16.1 -24.5 12.4 208 208 208
16.4 -24.5 12.4 206 206 206
16.5 -24.2 12.3 206 206 206
16.9 -24.4 12.3 206 206 206
17.3 -24.5 12.4 206 206 206
17.6 -24.5 12.4 206 206 206
17.8 -24.4 12.4 208 208 208
18.0 -24.4 12.3 208 208 208
46.5 -60.9 30.9 206 206 206
44.1 -56.8 28.8 206 206 206
43.4 -55.2 27.9 206 206 206
47.0 -57.2 29.0 206 206 206
47.1 -56.4 28.6 206 206 206
48.1 -56.8 28.8 207 207 207
26.1 -26.1 13.2 204 204 204
26.2 -25.9 13.1 204 204 204
37.0 -19.8 10.0 140 140 140
37.3 -19.8 10.0 128 131 130
38.2 -20.2 10.2 126 126 126
38.1 -20.0 10.1 118 118 118
-34.3 -23.8 12.2 59 61 59
-34.0 -23.8 12.2 59 61 59
-31.2 -23.8 12.2 58 58 58
-30.9 -23.8 12.2 59 61 59
-30.6 -23.8 12.2 58 58 58
-30.4 -23.8 12.2 58 58 58
-30.1 -23.8 12.2 55 55 55
-29.8 -23.8 12.2 56 56 56
-29.5 -23.8 12.2 56 56 56
-27.6 -23.8 12.2 49 49 49
-27.3 -23.8 12.2 49 49 49
-26.9 -23.8 12.2 49 49 49
-26.4 -23.8 12.2 49 49 49
-26.2 -23.8 12.2 49 49 49
-25.8 -23.8 12.2 47 48 47
-25.6 -23.8 12.2 47 48 47
-25.3 -23.8 12.2 50 50 50
-25.0 -23.8 12.2 50 50 50
-24.7 -23.8 12.2 47 48 47
-22.1 -23.8 12.2 42 43 42
-21.8 -23.8 12.2 42 43 42
-21.6 -23.8 12.2 43 43 43
-20.8 -23.9 12.3 43 43 43
-20.4 -23.8 12.2 44 44 44
-20.1 -23.7 12.2 43 42 41
-11.4 -23.8 12.2 29 31 29
-11.0 -23.7 12.1 32 31 30
-10.8 -23.8 12.2 32 32 32
-10.5 -23.8 12.2 33 33 33
-10.3 -23.9 12.2 35 35 35
-10.0 -23.8 12.2 43 43 43
-9.7 -23.8 12.2 160 163 162
-6.3 -23.8 12.2 221 221 221
-6.0 -23.7 12.2 220 220 220
-5.7 -23.8 12.2 219 219 219
-5.4 -23.8 12.2 217 217 217
-5.1 -23.8 12.2 213 215 215
-4.9 -23.8 12.2 213 215 215
-4.6 -23.8 12.2 212 214 214
-4.3 -23.8 12.2 212 214 214
-4.0 -23.8 12.2 209 212 211
-3.7 -23.8 12.2 208 208 208
-3.4 -23.8 12.2 208 208 208
-3.2 -23.8 12.2 206 206 206
-2.9 -23.8 12.2 206 206 206
-2.6 -23.8 12.2 206 206 206
-2.3 -23.8 12.2 204 204 204
-2.0 -23.8 12.2 202 202 202
-1.7 -23.8 12.2 204 204 204
-1.5 -23.8 12.2 202 202 202
-1.2 -23.8 12.2 198 198 198
-0.9 -23.8 12.2 198 198 198
-0.6 -23.8 12.2 198 198 198
-0.3 -23.8 12.2 198 198 198
-0.0 -23.8 12.2 198 198 198
0.2 -23.8 12.2 198 198 198
0.5 -23.8 12.2 196 196 196
1.4 -23.8 12.2 196 196 196
1.7 -23.8 12.2 193 193 193
1.9 -23.8 12.2 193 193 193
2.2 -23.8 12.2 193 193 193
2.5 -23.8 12.2 190 190 190
2.8 -23.7 12.2 190 190 190
3.1 -23.8 12.2 188 188 188
3.6 -23.8 12.2 185 185 185
3.9 -23.8 12.2 185 185 185
5.1 -23.8 12.2 179 179 179
5.3 -23.8 12.2 179 179 179
5.6 -23.8 12.2 206 206 206
5.9 -23.8 12.2 206 206 206
6.2 -23.8 12.2 208 208 208
6.5 -23.8 12.2 208 208 208
6.8 -23.8 12.2 208 208 208
7.0 -23.8 12.2 208 208 208
7.3 -23.8 12.2 208 208 208
7.6 -23.8 12.2 208 208 208
8.5 -23.8 12.2 208 208 208
8.7 -23.7 12.2 208 208 208
9.1 -23.8 12.2 208 208 208
9.3 -23.9 12.2 208 208 208
9.6 -23.8 12.2 208 208 208
9.9 -23.8 12.2 208 208 208
10.2 -23.8 12.2 208 208 208
10.4 -23.8 12.2 208 208 208
10.7 -23.8 12.2 208 208 208
11.0 -23.8 12.2 208 208 208
11.3 -23.8 12.2 206 206 206
11.6 -23.8 12.2 208 208 208
11.9 -23.8 12.2 208 208 208
12.2 -23.8 12.2 208 208 208
12.4 -23.8 12.2 206 206 206
12.7 -23.8 12.2 206 206 206
13.0 -23.7 12.2 208 208 208
13.3 -23.8 12.2 208 208 208
13.6 -23.8 12.2 208 208 208
13.9 -23.8 12.2 208 208 208
14.1 -23.8 12.2 208 208 208
14.4 -23.8 12.2 205 205 205
14.7 -23.8 12.2 205 205 205
15.0 -23.8 12.2 205 205 205
15.3 -23.8 12.2 208 208 208
15.6 -23.8 12.2 208 208 208
15.9 -23.8 12.2 208 208 208
16.1 -23.8 12.2 208 208 208
16.4 -23.8 12.2 208 208 208
16.7 -23.8 12.2 205 205 205
17.0 -23.8 12.2 207 207 207
17.3 -23.8 12.2 207 207 207
17.6 -23.8 12.2 207 207 207
17.8 -23.8 12.2 207 207 207
18.1 -23.8 12.2 207 207 207
44.5 -57.6 29.5 205 205 205
43.7 -55.7 28.5 205 205 205
42.7 -53.6 27.5 205 205 205
47.0 -56.4 28.9 206 206 206
46.2 -54.8 28.1 206 206 206
46.7 -54.6 28.0 206 206 206
46.8 -53.9 27.6 206 206 206
47.6 -54.0 27.7 206 206 206
37.3 -19.7 10.1 140 140 140
39.1 -20.4 10.4 126 126 126
38.4 -19.9 10.2 121 121 121
-20.4 -23.5 12.2 42 42 42
-11.0 -23.3 12.1 29 31 29
-10.7 -24.0 12.4 32 32 32
-10.4 -23.9 12.4 36 36 36
8.1 -24.2 12.6 208 208 208
8.4 -24.2 12.6 208 208 208
11.4 -24.2 12.6 208 208 208
16.5 -24.4 12.7 207 207 207
16.7 -24.3 12.6 207 207 207
17.0 -24.3 12.6 207 207 207
17.2 -24.2 12.6 207 207 207
17.5 -24.2 12.6 207 207 207
17.8 -24.3 12.6 207 207 207
18.1 -24.3 12.6 207 207 207
43.2 -54.4 28.2 205 205 205
42.2 -52.3 27.1 205 205 205
53.5 -65.4 33.9 205 205 205
45.6 -53.3 27.7 205 205 205
45.6 -52.6 27.3 205 205 205
46.4 -52.8 27.4 206 206 206
47.1 -52.9 27.5 206 206 206
47.4 -52.5 27.2 206 206 206
48.1 -52.5 27.3 206 206 206
39.1 -20.1 10.4 126 126 126
-10.2 -21.3 11.2 27 27 27
-11.4 -24.5 12.9 34 34 34
-10.5 -23.8 12.5 34 34 34
-10.5 -25.1 13.2 187 189 189
18.6 -24.6 12.9 207 207 207
43.8 -54.4 28.6 206 206 206
42.5 -52.1 27.3 207 207 207
54.4 -65.6 34.5 207 207 207
46.5 -53.8 28.2 205 205 205
46.8 -53.4 28.0 205 205 205
46.6 -52.4 27.5 205 205 205
47.3 -52.5 27.6 205 205 205
47.6 -52.1 27.3 205 205 205
1219.2 -735.3 386.0 182 182 182
-14.1 -19.0 10.1 20 20 20
-11.4 -24.2 12.9 60 62 60
-10.9 -23.7 12.6 69 69 69
-10.5 -23.6 12.5 36 37 36
-10.5 -24.9 13.2 185 185 185
44.2 -54.3 28.8 206 206 206
42.9 -51.9 27.6 206 206 206
52.6 -61.8 32.8 206 206 206
51.6 -59.8 31.8 206 206 206
48.4 -55.3 29.4 207 207 207
48.2 -54.3 28.8 207 207 207
46.9 -52.1 27.7 207 207 207
47.6 -52.2 27.7 207 207 207
47.8 -51.7 27.5 205 205 205
-10.1 -20.7 11.1 38 40 40
-11.3 -23.8 12.8 36 37 36
-10.8 -23.4 12.6 90 90 90
-10.5 -23.3 12.5 25 25 25
-10.3 -23.4 12.6 47 47 47
44.2 -53.6 28.8 206 206 206
42.7 -51.1 27.5 206 206 206
52.8 -61.3 33.0 206 206 206
51.8 -59.3 31.9 206 206 206
48.3 -54.5 29.3 206 206 206
48.0 -53.3 28.7 206 206 206
46.8 -51.3 27.6 206 206 206
47.4 -51.3 27.6 207 207 207
47.6 -50.8 27.3 204 204 204
-10.1 -20.5 11.2 46 46 46
-11.4 -23.6 12.9 40 40 40
-10.9 -23.1 12.6 78 78 78
-10.9 -24.4 13.3 51 51 51
-10.5 -24.3 13.3 183 186 185
44.2 -52.9 28.8 205 205 205
42.7 -50.4 27.5 205 205 205
41.6 -48.4 26.4 208 208 208
50.6 -57.2 31.2 208 208 208
48.5 -54.0 29.4 206 206 206
48.2 -53.0 28.9 206 206 206
46.9 -50.8 27.7 206 206 206
47.4 -50.7 27.6 206 206 206
47.5 -50.1 27.3 206 206 206
47.9 -49.9 27.2 209 209 209
-31.7 -24.0 13.2 61 61 61
-11.5 -23.6 13.0 89 89 89
-11.0 -24.3 13.4 51 51 51
-10.6 -24.2 13.3 183 186 185
-10.2 -24.1 13.3 181 184 183
-10.1 -24.6 13.6 181 184 183
44.2 -52.3 28.9 207 207 207
42.9 -50.0 27.6 207 207 207
48.8 -53.6 29.6 208 208 208
49.0 -53.1 29.3 205 205 205
47.5 -50.8 28.0 205 205 205
47.7 -50.3 27.8 208 208 208
47.8 -49.7 27.5 206 206 206
48.1 -49.4 27.3 206 206 206
32.3 -28.4 15.7 166 166 166
37.0 -18.2 10.0 146 146 146
-33.2 -24.1 13.5 69 69 69
-32.9 -24.1 13.5 69 69 69
-32.6 -24.1 13.5 66 67 65
-32.2 -24.0 13.4 64 64 64
-31.9 -24.0 13.4 59 59 59
-17.1 -18.7 10.5 45 45 45
-11.7 -23.7 13.2 35 35 35
-11.0 -24.0 13.4 52 52 52
-10.6 -23.9 13.4 182 185 184
-10.3 -23.8 13.3 181 184 183
43.5 -50.0 28.0 207 207 207
49.4 -52.9 29.6 208 208 208
47.8 -49.8 27.8 205 205 205
47.6 -49.0 27.4 205 205 205
48.2 -48.9 27.3 205 205 205
32.7 -28.6 16.0 204 204 204
32.5 -28.1 15.7 168 168 168
37.0 -17.9 10.0 145 145 144
-33.7 -24.1 13.6 70 70 70
-33.4 -24.1 13.7 67 68 66
-33.1 -24.1 13.7 67 68 66
-32.6 -24.0 13.6 62 62 62
-32.4 -24.1 13.6 63 63 63
-11.0 -23.9 13.5 57 57 57
-10.7 -23.8 13.5 181 184 183
-10.4 -23.8 13.5 180 183 182
-10.2 -24.0 13.6 178 181 180
50.1 -52.3 29.6 207 207 207
48.2 -49.5 28.1 207 207 207
48.7 -49.4 28.0 208 208 208
48.4 -48.5 27.5 208 208 208
39.1 -37.1 21.0 205 205 205
40.1 -37.6 21.3 205 205 205
33.7 -29.4 16.7 206 206 206
33.2 -28.7 16.3 197 197 197
32.8 -28.0 15.9 168 170 169
-10.9 -23.8 13.7 182 185 184
-10.6 -24.0 13.8 179 182 181
-10.4 -24.2 13.9 179 182 181
-10.2 -24.6 14.1 176 179 178
51.1 -52.6 30.2 207 207 207
48.4 -49.1 28.2 207 207 207
49.8 -49.9 28.6 207 207 207
39.2 -36.8 21.1 208 208 208
40.2 -37.2 21.4 205 205 205
40.8 -37.4 21.4 208 208 208
34.1 -29.4 16.9 205 205 205
33.6 -28.7 16.5 206 206 206
51.8 -53.3 31.0 212 214 214
52.3 -53.0 30.9 208 211 210
39.4 -36.4 21.2 207 207 207
40.3 -36.8 21.4 207 207 207
40.9 -36.9 21.5 208 208 208
34.9 -30.0 17.5 205 205 205
34.3 -29.2 17.0 205 205 205
-11.2 -26.2 15.4 179 182 181
-10.7 -26.0 15.3 191 191 191
42.4 -39.2 23.1 207 207 207
40.7 -37.2 21.9 207 207 207
41.7 -37.1 21.9 207 207 207
42.9 -37.8 22.3 207 207 207
-11.6 -26.0 15.6 180 183 182
-11.2 -25.8 15.4 179 182 181
-10.8 -25.7 15.4 170 171 170
7.5 -16.9 10.1 208 211 210
9.1 -16.9 10.1 208 211 210
9.4 -16.9 10.1 208 211 210
9.6 -16.9 10.1 208 211 210
11.5 -17.0 10.2 207 210 209
12.4 -16.9 10.1 207 210 209
12.9 -16.9 10.1 207 210 209
13.1 -16.9 10.1 207 210 209
41.7 -36.7 21.9 207 207 207
42.7 -37.0 22.2 205 205 205
-11.2 -25.4 15.4 176 176 176
-10.7 -25.2 15.3 160 160 160
9.4 -16.7 10.1 208 211 210
11.5 -16.7 10.1 207 210 209
42.0 -36.9 22.4 208 211 210
42.3 -36.6 22.2 208 211 210
42.8 -36.6 22.2 208 211 210
-25.4 -16.4 10.1 70 70 70
-24.8 -16.3 10.0 80 80 80
-24.5 -16.3 10.0 84 85 83
-23.8 -16.3 10.0 78 78 78
-23.8 -16.4 10.1 71 71 71
-21.0 -16.3 10.0 141 141 141
-10.6 -16.4 10.1 36 36 34
-10.4 -16.4 10.1 37 38 37
-11.8 -25.7 15.8 183 186 185
-11.3 -25.3 15.6 177 177 177
-10.8 -25.1 15.5 156 159 158
-10.6 -25.5 15.7 155 158 157
36.1 -26.6 16.4 188 188 188
35.7 -26.0 16.0 188 188 188
37.4 -26.7 16.4 188 188 188
37.2 -26.3 16.2 188 188 188
78.6 -37.4 23.0 180 180 180
78.1 -36.9 22.7 180 180 180
76.1 -35.8 22.0 180 180 180
-12.0 -25.7 16.0 184 187 186
-11.4 -25.3 15.8 179 179 179
-11.2 -25.6 15.9 159 162 161
-10.9 -25.8 16.1 156 159 158
37.8 -27.8 17.3 191 191 191
36.3 -26.4 16.5 188 188 188
77.4 -36.3 22.7 181 181 181
77.2 -36.0 22.5 181 181 181
76.1 -35.2 22.0 181 181 181
-12.6 -25.9 16.4 187 189 189
-12.2 -25.7 16.3 186 188 187
-11.7 -25.5 16.1 178 178 178
-11.4 -25.6 16.2 166 166 166
-11.1 -25.9 16.4 163 163 163
39.6 -27.8 17.6 189 189 189
77.1 -35.4 22.4 182 182 182
76.6 -34.9 22.1 182 182 182
-14.1 -15.7 10.1 63 63 63
-12.3 -25.6 16.4 186 186 186
-11.7 -25.3 16.2 179 179 179
-11.5 -25.5 16.4 169 169 169
75.3 -65.6 42.1 206 209 208
77.8 -35.2 22.6 183 183 183
77.0 -34.6 22.3 183 183 183
76.7 -34.3 22.0 183 183 183
-14.6 -15.8 10.3 34 36 34
-14.1 -15.5 10.1 45 45 45
-11.5 -25.2 16.4 174 176 176
76.9 -66.8 43.6 208 211 210
77.7 -66.7 43.5 208 211 210
78.0 -66.0 43.1 206 209 208
78.1 -34.8 22.7 184 184 184
77.2 -34.2 22.3 184 184 184
76.8 -33.8 22.0 184 184 184
61.3 -25.6 16.7 161 161 161
-15.0 -15.7 10.4 36 36 34
-14.7 -15.6 10.3 30 29 29
-14.2 -15.3 10.1 33 35 33
-13.5 -29.2 19.3 175 177 177
-13.1 -29.2 19.3 173 173 173
-12.6 -29.1 19.3 169 169 169
81.4 -69.6 46.1 208 211 210
80.5 -68.0 45.0 208 211 210
80.0 -66.7 44.2 208 211 210
78.8 -34.6 22.9 185 185 185
77.4 -33.8 22.4 185 185 185
76.6 -33.2 22.0 185 185 185
61.4 -25.6 16.9 177 177 177
61.6 -25.3 16.8 159 162 161
62.1 -25.4 16.8 156 156 156
-46.1 -28.9 19.4 61 61 61
-15.1 -15.5 10.4 29 29 29
-14.7 -15.4 10.4 29 29 29
-14.2 -15.1 10.2 22 25 23
-13.6 -28.9 19.4 176 179 178
-13.3 -29.1 19.6 175 175 175
-12.7 -28.9 19.4 174 176 176
86.0 -73.4 49.4 207 210 209
86.9 -73.2 49.3 208 211 210
84.3 -70.1 47.2 208 211 210
77.5 -33.3 22.4 186 186 186
77.3 -33.0 22.2 186 186 186
78.6 -33.3 22.4 186 186 186
61.6 -25.1 16.9 172 174 174
61.8 -25.0 16.8 161 164 163
62.3 -25.1 16.9 156 156 156
-55.2 -28.7 19.6 56 55 54
-54.7 -28.7 19.6 67 67 67
-54.2 -28.6 19.6 77 77 77
-53.8 -28.7 19.6 67 67 67
-53.4 -28.7 19.6 39 41 41
-53.0 -28.7 19.6 128 128 128
-52.5 -28.7 19.6 138 140 139
-52.1 -28.7 19.6 17 17 17
-51.5 -28.7 19.6 18 18 18
-51.0 -28.6 19.6 24 24 24
-50.6 -28.6 19.6 28 28 28
-50.1 -28.6 19.6 29 31 29
-49.8 -28.7 19.6 26 26 26
-49.3 -28.7 19.6 19 23 20
-48.9 -28.7 19.6 28 28 28
-48.4 -28.7 19.6 19 23 20
-47.9 -28.7 19.6 26 26 26
-47.4 -28.7 19.6 29 31 29
-47.0 -28.7 19.6 59 59 59
-46.5 -28.7 19.6 70 72 69
-46.1 -28.7 19.6 74 74 74
-45.5 -28.6 19.6 61 61 61
-45.2 -28.7 19.6 50 50 50
-44.8 -28.7 19.6 61 61 61
-44.3 -28.7 19.6 58 58 56
-43.8 -28.7 19.6 124 126 125
-43.4 -28.7 19.6 92 92 92
-43.0 -28.8 19.7 121 121 121
-42.6 -28.8 19.7 165 168 167
-42.0 -28.7 19.6 58 58 56
-41.5 -28.7 19.6 9 14 10
-41.0 -28.6 19.6 20 23 21
-40.6 -28.7 19.6 17 17 17
-40.2 -28.7 19.6 18 18 18
-39.7 -28.6 19.6 27 27 27
-39.2 -28.6 19.6 36 37 36
-38.7 -28.6 19.6 50 50 50
-38.4 -28.7 19.6 63 63 63
-37.9 -28.7 19.6 53 52 52
-37.4 -28.6 19.6 72 73 71
-37.0 -28.7 19.6 63 63 63
-36.5 -28.7 19.6 77 77 77
-36.1 -28.7 19.6 77 77 77
-35.6 -28.7 19.6 67 67 67
-35.1 -28.7 19.6 67 67 67
-34.6 -28.6 19.6 72 73 71
-34.2 -28.7 19.6 71 71 71
-33.8 -28.7 19.6 90 92 91
-33.4 -28.7 19.6 156 156 156
-32.9 -28.7 19.6 181 181 181
-32.4 -28.7 19.6 181 181 181
-32.0 -28.7 19.6 126 128 127
-31.5 -28.7 19.6 28 28 28
-31.1 -28.7 19.6 35 34 33
-30.6 -28.7 19.6 30 30 30
-30.2 -28.7 19.6 28 28 28
-29.7 -28.7 19.6 20 23 21
-29.2 -28.7 19.6 28 28 28
-28.8 -28.7 19.6 33 34 32
-28.4 -28.7 19.6 30 30 30
-27.9 -28.7 19.6 30 30 30
-27.5 -28.7 19.6 26 26 26
-27.0 -28.7 19.6 20 23 21
-26.5 -28.7 19.6 29 29 29
-26.0 -28.6 19.6 99 99 99
-25.4 -28.5 19.5 140 142 141
-25.1 -28.6 19.6 148 148 148
-24.6 -28.6 19.6 59 59 59
-24.2 -28.6 19.6 40 40 40
-23.8 -28.7 19.6 80 82 79
-23.3 -28.7 19.6 107 107 105
-22.7 -28.5 19.5 124 127 126
-22.3 -28.6 19.5 20 23 21
-22.0 -28.7 19.6 111 113 112
-21.5 -28.6 19.6 42 44 43
-14.2 -28.6 19.6 178 178 178
-13.6 -28.5 19.5 178 181 180
-13.3 -28.7 19.6 176 176 176
-12.8 -28.7 19.6 170 171 170
-12.3 -28.5 19.5 167 167 167
234.1 -205.0 140.1 206 209 208
224.1 -193.5 132.3 207 210 209
87.8 -71.9 49.1 207 210 209
539.4 -395.4 270.2 209 212 211
321.0 -232.6 159.0 210 213 212
78.2 -33.1 22.6 188 188 188
78.6 -33.0 22.6 188 188 188
78.9 -32.9 22.5 188 188 188
78.7 -32.6 22.3 188 188 188
61.7 -24.8 16.9 170 171 170
61.4 -24.5 16.7 162 162 162
62.0 -24.6 16.8 156 156 156
62.0 -24.4 16.7 152 152 152
62.3 -24.4 16.7 147 147 147
-56.2 -28.7 20.0 34 34 34
-55.4 -28.5 19.8 48 48 48
-54.8 -28.5 19.8 75 75 75
-54.4 -28.5 19.8 83 84 82
-54.1 -28.6 19.9 154 156 156
-53.6 -28.6 19.9 36 36 36
-53.1 -28.5 19.8 29 31 29
-52.5 -28.5 19.8 19 23 20
-52.1 -28.5 19.8 20 23 21
-51.6 -28.5 19.8 28 28 28
-51.2 -28.5 19.8 36 37 36
-50.7 -28.5 19.8 47 48 47
-50.2 -28.5 19.8 152 152 152
-49.8 -28.5 19.8 136 136 136
-49.3 -28.5 19.8 53 53 53
-48.9 -28.5 19.8 161 161 161
-48.5 -28.5 19.8 177 177 177
-48.0 -28.5 19.8 156 159 158
-47.5 -28.5 19.8 121 121 121
-47.1 -28.5 19.8 75 76 76
-46.6 -28.5 19.8 85 85 85
-46.0 -28.5 19.8 59 59 59
-45.7 -28.5 19.8 129 129 129
-45.2 -28.5 19.8 165 168 167
-44.7 -28.5 19.8 180 183 182
-44.3 -28.5 19.8 181 184 183
-43.8 -28.5 19.8 181 184 183
-43.7 -28.7 20.0 207 210 209
-43.1 -28.7 19.9 214 214 214
-42.5 -28.5 19.8 195 195 195
-42.0 -28.5 19.8 205 205 205
-41.5 -28.5 19.8 206 209 208
-41.1 -28.5 19.8 206 209 208
-40.6 -28.5 19.8 195 195 195
-40.1 -28.5 19.8 165 168 167
-39.7 -28.5 19.8 166 169 168
-39.2 -28.5 19.8 133 133 133
-38.7 -28.5 19.8 159 159 159
-38.3 -28.5 19.8 213 215 215
-37.8 -28.5 19.8 212 213 212
-37.4 -28.5 19.8 182 185 184
-36.9 -28.5 19.8 182 185 184
-36.4 -28.5 19.8 205 208 207
-36.0 -28.5 19.8 224 224 224
-35.5 -28.5 19.8 175 177 177
-35.0 -28.5 19.8 122 124 123
-34.6 -28.5 19.8 155 155 155
-34.1 -28.5 19.8 191 191 191
-33.7 -28.5 19.8 195 195 195
-33.2 -28.5 19.8 181 181 181
-32.7 -28.5 19.8 210 210 210
-32.3 -28.5 19.8 217 217 217
-31.8 -28.5 19.8 209 209 209
-31.4 -28.6 19.8 138 138 138
-30.9 -28.5 19.8 35 34 33
-30.4 -28.5 19.8 45 45 45
-30.0 -28.5 19.8 71 71 71
-29.5 -28.5 19.8 81 83 80
-29.1 -28.5 19.8 91 93 92
-28.6 -28.5 19.8 112 112 112
-28.2 -28.6 19.8 107 107 107
-27.7 -28.5 19.8 28 28 28
-27.3 -28.5 19.8 44 46 46
-26.8 -28.5 19.8 83 84 82
-26.3 -28.5 19.8 9 14 10
-25.8 -28.5 19.8 28 28 28
-25.4 -28.5 19.8 39 39 39
-24.9 -28.5 19.8 102 101 99
-24.5 -28.5 19.8 53 53 53
-24.0 -28.5 19.8 75 76 76
-23.5 -28.5 19.8 35 34 33
-23.0 -28.4 19.7 105 105 103
-22.6 -28.5 19.8 62 62 62
-22.2 -28.6 19.9 77 78 76
-21.7 -28.5 19.8 122 122 122
-14.3 -28.5 19.8 168 168 168
-13.8 -28.3 19.7 173 173 173
-13.4 -28.4 19.7 174 174 174
-12.9 -28.5 19.8 139 141 140
-12.4 -28.4 19.7 23 23 23
227.2 -193.2 134.2 206 209 208
699.2 -504.4 350.3 209 212 211
357.0 -254.5 176.8 210 213 212
77.3 -32.2 22.3 189 189 189
78.1 -32.3 22.4 189 189 189
78.6 -32.3 22.4 189 189 189
78.6 -32.0 22.3 186 186 186
61.6 -24.2 16.8 161 161 161
61.7 -24.1 16.7 155 155 155
61.5 -23.8 16.5 150 152 152
61.3 -23.6 16.4 148 148 148
-56.5 -28.4 20.1 28 28 28
-56.1 -28.5 20.1 29 31 29
-55.7 -28.5 20.1 80 82 79
-55.3 -28.5 20.1 154 156 156
-54.8 -28.5 20.1 20 23 21
-54.3 -28.5 20.1 26 26 26
-53.8 -28.5 20.1 28 28 28
-53.3 -28.5 20.1 24 24 24
-52.9 -28.5 20.1 24 24 24
-52.4 -28.5 20.1 28 28 28
-52.0 -28.5 20.1 35 35 35
-51.5 -28.5 20.1 64 65 63
-50.9 -28.4 20.1 168 168 168
-50.5 -28.5 20.1 185 185 185
-50.1 -28.5 20.1 172 174 174
-49.6 -28.5 20.1 148 148 148
-49.2 -28.5 20.1 180 183 182
-48.7 -28.5 20.1 177 177 177
-48.2 -28.5 20.1 156 159 158
-47.8 -28.5 20.1 148 148 148
-47.3 -28.5 20.1 150 150 150
-46.8 -28.5 20.1 77 77 77
-46.4 -28.5 20.1 77 77 77
-45.8 -28.5 20.1 196 199 198
-45.4 -28.5 20.1 197 197 197
-44.9 -28.5 20.1 157 157 157
-44.5 -28.5 20.1 88 90 89
-44.1 -28.6 20.2 88 90 89
-43.7 -28.6 20.2 149 149 149
-43.0 -28.5 20.1 124 126 125
-42.6 -28.5 20.1 92 92 92
-42.2 -28.5 20.1 61 61 61
-41.7 -28.5 20.1 64 64 64
-41.2 -28.5 20.1 80 82 79
-40.7 -28.5 20.1 73 73 73
-40.2 -28.5 20.1 56 56 56
-39.8 -28.5 20.1 46 45 43
-39.3 -28.5 20.1 117 117 117
-38.8 -28.5 20.1 162 165 164
-38.4 -28.5 20.1 145 145 144
-37.9 -28.5 20.1 173 173 173
-37.4 -28.5 20.1 111 113 112
-36.0 -28.5 20.1 141 143 142
-35.6 -28.5 20.1 148 148 148
-35.1 -28.5 20.1 194 194 194
-34.6 -28.5 20.1 227 227 227
-34.2 -28.5 20.1 214 216 216
-33.7 -28.5 20.1 238 241 240
-33.2 -28.5 20.1 214 216 216
-32.8 -28.5 20.1 227 227 227
-32.3 -28.5 20.1 217 217 217
-31.9 -28.5 20.1 214 216 216
-31.4 -28.5 20.1 132 132 132
-30.9 -28.5 20.1 75 75 75
-30.4 -28.5 20.1 34 33 32
-30.0 -28.5 20.1 19 23 20
-29.5 -28.5 20.1 21 24 22
-29.0 -28.5 20.1 32 33 31
-28.6 -28.5 20.1 118 120 119
-28.1 -28.5 20.1 36 37 36
-27.7 -28.5 20.1 101 100 98
-25.8 -28.5 20.1 149 151 151
-25.3 -28.5 20.1 67 67 67
-24.8 -28.5 20.1 43 45 45
-24.4 -28.5 20.1 78 80 78
-23.9 -28.4 20.1 37 38 37
-14.5 -28.5 20.1 169 169 169
-14.0 -28.3 20.0 168 168 168
-13.5 -28.3 20.0 159 162 161
-13.1 -28.4 20.0 137 139 138
-12.6 -28.4 20.0 44 43 42
639.9 -454.2 320.6 209 212 211
77.7 -31.6 22.3 190 190 190
78.5 -31.7 22.4 190 190 190
78.4 -31.5 22.2 188 188 188
77.8 -31.0 21.9 188 188 188
61.9 -23.9 16.9 161 161 161
61.5 -23.6 16.7 156 156 156
61.0 -23.3 16.4 150 150 150
60.6 -22.9 16.2 142 144 143
-32.4 -18.3 13.1 151 151 151
-32.1 -18.3 13.1 164 164 164
-31.8 -18.3 13.1 174 176 176
-31.5 -18.3 13.1 132 135 134
-31.2 -18.3 13.1 99 99 99
-30.6 -18.3 13.1 197 197 197
-25.7 -18.3 13.1 68 68 68
-14.2 -28.2 20.3 179 179 179
-13.7 -28.1 20.2 180 180 180
-13.2 -28.2 20.2 178 178 178
-12.7 -28.1 20.2 115 115 115
-12.4 -28.4 20.4 27 26 25
11.7 -14.7 10.5 207 210 209
15.8 -15.1 10.8 204 207 206
740.3 -516.8 370.9 214 214 214
78.2 -31.1 22.3 191 191 191
78.5 -31.0 22.2 191 191 191
78.7 -30.9 22.2 189 189 189
63.9 -24.2 17.4 157 157 157
-31.5 -18.2 13.3 107 109 109
-31.0 -18.1 13.2 85 85 85
11.4 -14.4 10.5 206 209 208
11.6 -14.3 10.5 206 209 208
13.7 -14.4 10.5 209 209 209
15.7 -15.0 10.9 208 208 208
15.8 -14.9 10.8 208 208 208
565.4 -439.3 320.6 210 210 210
637.7 -489.0 356.9 211 211 211
713.3 -539.9 394.1 211 211 211
646.5 -471.2 343.9 207 210 209
740.3 -508.2 370.9 209 212 211
79.3 -30.6 22.3 190 190 190
-32.5 -18.3 13.6 107 109 109
-31.9 -18.1 13.4 62 62 62
-16.4 -33.7 25.1 180 180 180
12.8 -14.6 10.8 210 210 210
15.9 -14.9 11.0 208 208 208
15.9 -14.6 10.9 208 208 208
556.0 -424.6 315.3 210 210 210
554.1 -417.7 310.1 210 210 210
592.6 -424.6 315.3 211 211 211
619.0 -417.7 310.1 214 214 214
79.7 -30.2 22.4 189 189 189
79.3 -29.9 22.2 181 184 183
71.2 -25.6 19.0 134 137 136
70.7 -25.3 18.8 132 135 134
-17.1 -33.3 25.2 175 177 177
-16.6 -33.5 25.3 168 168 168
15.9 -14.4 10.9 207 207 207
654.1 -490.9 370.9 210 210 210
704.2 -521.6 394.1 210 210 210
623.8 -439.3 331.9 211 211 211
639.9 -424.4 320.6 214 214 214
74.0 -26.4 19.9 136 138 137
71.2 -25.2 19.0 134 134 134
70.4 -24.8 18.7 134 134 134
-63.3 -34.0 26.2 183 183 183
-62.5 -33.9 26.1 100 100 100
-61.7 -33.8 26.0 47 47 47
-61.2 -33.9 26.1 33 32 30
-60.6 -33.8 26.0 20 23 21
-59.7 -33.7 25.9 18 22 19
-59.8 -34.1 26.2 17 17 17
-58.8 -33.9 26.1 6 11 7
-57.7 -33.6 25.8 25 25 25
-56.9 -33.5 25.7 35 35 35
-17.4 -33.3 25.6 157 157 157
-16.8 -33.4 25.7 90 90 90
-16.6 -34.2 26.3 89 91 90
740.8 -512.5 394.1 211 211 211
699.2 -455.5 350.3 214 214 214
93.6 -33.6 25.8 138 140 139
74.1 -25.9 19.9 135 135 135
71.5 -24.9 19.1 133 133 133
70.5 -24.4 18.7 132 132 132
-60.1 -34.0 26.6 163 166 165
-19.3 -35.2 27.5 177 180 179
-18.1 -34.2 26.8 130 130 130
-17.5 -34.1 26.7 89 89 89
-17.2 -34.9 27.3 88 88 88
-16.8 -35.3 27.6 57 59 59
-16.1 -35.3 27.6 111 111 111
786.6 -503.3 394.1 212 213 212
93.1 -32.8 25.7 131 134 133
74.4 -25.6 20.0 128 131 130
72.1 -24.6 19.3 129 129 129
70.8 -24.0 18.8 129 129 129
-20.2 -36.1 28.8 178 181 180
-18.4 -35.3 28.2 90 90 90
-17.8 -35.3 28.2 89 91 90
-17.4 -35.9 28.7 80 80 80
-16.5 -35.5 28.3 111 111 111
93.8 -32.4 25.9 122 122 122
92.6 -31.8 25.4 122 122 122
72.5 -24.3 19.4 122 122 122
71.6 -23.9 19.0 123 123 123
-25.1 -13.6 11.0 19 23 20
-24.9 -13.6 11.0 154 154 154
-19.6 -38.2 31.1 93 93 93
-18.9 -38.2 31.1 77 77 77
94.8 -32.2 26.2 112 112 112
93.2 -31.5 25.6 112 112 112
73.4 -24.1 19.6 112 112 112
71.5 -23.4 19.0 113 114 113
-25.0 -13.2 10.9 25 25 25
-19.6 -37.6 31.1 90 92 91
-18.9 -37.5 31.1 67 67 67
695.0 -475.8 394.1 211 211 211
623.8 -400.7 331.9 214 214 214
94.1 -31.2 25.8 108 110 110
71.9 -23.1 19.1 104 104 104
71.3 -22.7 18.8 88 88 88
45.5 -14.4 11.9 155 155 155
-25.0 -12.6 10.6 24 24 24
-24.8 -12.6 10.7 25 25 25
-24.5 -12.6 10.7 24 24 24
-24.3 -12.6 10.7 17 21 18
-24.1 -12.6 10.7 105 105 105
-23.8 -12.6 10.7 153 153 153
-23.6 -12.6 10.7 147 149 149
-23.3 -12.6 10.6 145 145 144
-19.8 -37.2 31.4 94 94 94
-19.1 -37.1 31.4 86 86 86
24.1 -17.3 14.6 214 214 214
582.9 -367.2 310.1 214 214 214
46.2 -14.4 12.1 155 155 155
-22.8 -39.1 33.7 125 125 125
-21.7 -38.5 33.1 90 92 91
-20.3 -37.3 32.2 96 96 96
-20.1 -39.9 34.4 99 99 99
-19.3 -39.9 34.3 125 125 125
22.6 -17.2 14.8 211 211 211
22.7 -17.0 14.6 211 211 211
19.1 -13.6 11.7 212 213 212
24.0 -16.9 14.6 214 214 214
47.2 -14.6 12.6 66 66 64
47.5 -14.6 12.6 77 77 77
46.9 -14.3 12.3 152 154 154
-24.2 -39.3 34.6 162 162 162
-23.5 -39.6 34.8 126 126 126
-22.4 -38.9 34.2 97 100 99
-21.5 -38.7 34.0 96 99 98
-21.5 -40.3 35.4 85 85 85
-20.7 -40.2 35.4 113 112 111
-19.7 -39.9 35.1 117 117 117
22.6 -17.1 15.0 211 211 211
23.0 -17.1 15.0 211 211 211
23.0 -16.8 14.8 212 213 212
19.2 -13.6 12.0 212 213 212
24.0 -16.5 14.5 217 217 217
48.0 -14.4 12.7 70 69 68
47.5 -14.2 12.5 158 158 158
48.3 -14.3 12.6 121 123 122
-24.3 -39.9 35.8 123 125 124
-23.8 -42.0 37.7 95 98 97
-22.3 -40.9 36.7 112 112 112
-21.1 -40.2 36.1 22 22 22
-20.2 -40.2 36.1 25 25 23
22.8 -16.9 15.1 209 209 209
23.1 -16.8 15.1 215 215 215
19.1 -13.3 11.9 216 216 216
47.6 -13.9 12.5 158 158 158
48.2 -14.0 12.6 129 129 129
-24.8 -43.0 39.4 96 99 98
-22.9 -41.2 37.8 108 108 108
-21.8 -40.7 37.3 20 20 20
18.8 -12.6 11.6 217 217 217
23.8 -15.7 14.4 217 217 217
-25.5 -43.3 40.5 102 102 102
-23.7 -41.7 39.1 107 107 107
-22.7 -41.6 38.9 11 11 11
18.8 -12.4 11.6 217 217 217
23.7 -15.4 14.4 217 217 217
1218.4 -381.2 356.9 43 45 45
-8.2 -10.5 10.0 210 210 210
-33.4 -51.5 49.3 119 121 120
-30.6 -48.9 46.8 95 98 97
18.8 -12.1 11.6 217 217 217
23.6 -14.9 14.3 217 217 217
23.4 -14.6 14.0 217 217 217
-8.2 -10.2 10.0 204 204 204
-34.5 -52.1 51.0 119 121 120
23.2 -14.4 14.1 214 214 214
23.2 -14.2 13.9 214 214 214
711.2 -386.4 378.3 219 219 219
526.9 -257.6 252.2 179 179 179
17.0 -11.8 11.9 216 216 216
19.3 -12.0 12.0 217 220 219
19.1 -11.8 11.8 218 221 220
23.3 -13.9 14.0 217 217 217
573.5 -304.6 305.1 219 219 219
513.2 -245.2 245.7 184 184 184
-44.2 -76.8 78.8 18 18 18
-42.4 -76.8 78.8 169 169 169
16.9 -11.5 11.8 216 216 216
19.0 -11.4 11.7 218 221 220
23.0 -13.4 13.8 218 221 220
22.7 -13.1 13.4 218 221 220
547.1 -283.7 291.0 219 219 219
470.4 -219.6 225.2 188 188 188
-45.8 -74.7 78.5 29 29 29
-44.8 -79.3 83.3 165 165 165
-42.9 -79.3 83.3 180 180 180
162.2 -222.3 233.5 223 225 225
18.9 -11.1 11.6 218 221 220
23.3 -13.2 13.9 218 221 220
22.5 -12.6 13.3 218 221 220
711.2 -360.1 378.3 219 219 219
513.2 -233.8 245.7 188 188 188
-47.6 -75.7 81.5 26 25 24
-45.4 -78.4 84.4 165 165 165
-44.6 -80.6 86.8 182 182 182
18.8 -10.8 11.6 218 221 220
23.5 -13.2 14.2 218 221 220
23.2 -12.9 13.9 218 221 220
-11.9 -11.3 12.5 36 36 36
-11.6 -11.2 12.4 36 37 36
-11.0 -10.9 12.0 36 37 36
-52.0 -77.5 85.6 108 108 108
-53.1 -82.3 90.9 30 30 30
-51.0 -82.3 90.9 20 20 20
-45.8 -77.1 85.2 168 168 168
-47.2 -83.1 91.8 181 181 181
22.9 -13.7 15.2 217 220 219
23.6 -12.9 14.3 218 221 220
23.2 -12.6 13.9 218 221 220
213.7 -91.6 101.2 179 179 179
-18.0 -11.0 12.4 37 38 37
-11.6 -11.0 12.4 36 37 36
-55.5 -80.6 91.4 97 97 97
-55.8 -84.3 95.5 32 34 33
-52.3 -82.2 93.2 35 34 33
-48.2 -79.1 89.7 163 163 163
-47.2 -81.0 91.8 180 180 180
22.9 -13.2 15.0 217 220 219
22.9 -13.0 14.7 217 220 219
23.6 -12.6 14.3 217 217 217
23.3 -12.3 13.9 218 221 220
208.1 -86.9 98.5 172 172 172
170.4 -70.4 79.8 197 197 197
-63.5 -89.7 104.5 86 86 86
-60.4 -88.8 103.4 29 29 29
-57.0 -87.3 101.7 23 24 23
-51.6 -82.5 96.0 180 180 180
-50.7 -84.6 98.5 180 183 182
158.2 -195.7 227.9 222 224 224
22.9 -12.9 15.0 220 223 222
22.9 -12.7 14.8 220 223 222
23.2 -11.9 13.9 220 223 222
201.8 -82.0 95.5 176 176 176
189.6 -76.3 88.8 195 195 195
109.5 -42.6 49.6 200 200 200
220.6 -80.0 93.2 203 203 203
-65.0 -93.0 111.3 26 25 24
-62.4 -93.0 111.3 23 24 23
-57.4 -89.3 106.9 173 173 173
-121.6 -197.6 236.5 179 182 181
-109.3 -185.9 222.5 181 184 183
151.0 -181.7 217.4 222 224 224
23.0 -12.5 15.0 220 223 222
23.0 -12.3 14.8 220 223 222
22.2 -10.8 13.0 222 224 224
195.9 -77.5 92.7 175 177 177
189.6 -74.2 88.8 193 193 193
108.9 -41.3 49.4 200 200 200
205.9 -75.6 90.5 200 200 200
212.2 -75.6 90.5 202 202 202
216.4 -76.4 91.4 205 205 205
209.4 -73.2 87.6 205 205 205
-660.6 -284.5 350.3 19 23 20
-533.8 -232.8 286.6 47 46 45
-204.0 -295.5 363.8 26 25 24
-164.0 -247.8 305.1 169 171 170
-167.7 -264.9 326.1 179 182 181
-145.1 -240.1 295.6 180 183 182
22.9 -12.3 15.2 218 221 220
23.0 -12.2 15.0 220 223 222
22.7 -11.9 14.6 220 223 222
23.4 -11.6 14.2 222 224 224
22.3 -10.5 13.0 222 224 224
200.8 -77.2 95.1 179 179 179
189.6 -72.1 88.8 191 191 191
205.8 -74.2 91.4 198 198 198
206.9 -73.9 90.9 200 200 200
213.2 -73.9 90.9 202 202 202
219.6 -75.3 92.7 202 202 202
211.4 -71.8 88.4 205 205 205
-8.2 -7.9 10.0 208 208 208
22.9 -12.0 15.2 218 221 220
23.4 -11.2 14.2 222 224 224
22.5 -10.5 13.3 222 224 224
207.0 -77.3 98.0 170 172 172
130.2 -47.1 59.7 197 197 197
219.5 -77.7 98.5 198 198 198
218.4 -76.5 97.0 198 198 198
229.8 -77.3 98.0 202 202 202
229.7 -76.5 97.0 202 202 202
217.5 -71.8 90.9 205 205 205
-8.2 -7.7 10.1 200 202 202
22.9 -11.7 15.2 218 221 220
23.4 -10.9 14.2 222 224 224
22.5 -10.2 13.3 222 224 224
134.3 -47.6 62.2 197 197 197
129.4 -45.4 59.3 195 195 195
233.3 -75.4 98.5 202 202 202
217.5 -69.6 90.9 205 205 205
-8.2 -7.5 10.1 197 200 199
23.4 -10.6 14.2 222 224 224
23.0 -10.2 13.8 222 224 224
22.5 -9.9 13.3 222 224 224
22.4 -9.5 12.9 222 224 224
136.1 -46.8 63.1 186 186 186
129.8 -44.2 59.5 195 195 195
230.9 -72.4 97.5 204 204 204
-8.2 -7.3 10.1 196 196 196
23.5 -10.3 14.3 222 224 224
23.0 -9.9 13.7 222 224 224
22.5 -9.6 13.3 222 224 224
22.3 -9.2 12.8 222 224 224
151.2 -50.4 70.1 188 188 188
134.4 -44.3 61.6 193 193 193
23.4 -9.9 14.2 222 224 224
23.0 -9.6 13.8 222 224 224
22.5 -9.2 13.3 222 224 224
22.3 -9.0 13.0 223 225 225
129.4 -41.3 59.3 193 193 193
158.2 -153.3 227.9 220 220 220
23.4 -9.6 14.2 222 224 224
22.7 -9.0 13.4 223 225 225
22.2 -8.7 12.9 223 225 225
133.9 -41.7 62.0 175 177 177
127.0 -39.2 58.2 190 190 190
123.8 -37.8 56.1 194 194 194
264.5 -256.0 394.1 220 220 220
21.0 -7.7 11.9 219 222 221
190.3 -51.2 78.8 199 199 199
183.0 -48.8 75.1 225 227 227
-306.6 -81.7 130.5 55 55 55
20.9 -7.4 11.9 220 223 222
233.3 -61.7 98.5 204 204 204
208.4 -54.6 87.2 205 205 205
195.2 -50.6 80.8 199 199 199
189.0 -48.6 77.5 230 229 227
181.8 -46.3 73.9 234 236 236
18.7 -6.3 10.5 220 223 222
213.3 -54.3 90.1 202 202 202
205.6 -51.9 86.0 205 205 205
187.9 -46.9 77.8 202 202 202
183.0 -45.3 75.1 231 231 231
179.7 -44.0 73.0 236 236 236
-729.1 -171.4 295.6 80 82 79
-722.2 -171.4 295.6 75 75 75
-726.7 -174.1 300.3 75 76 76
-690.8 -168.7 291.0 77 77 77
-626.2 -154.5 266.4 78 78 78
23.1 -8.0 13.8 220 223 222
18.9 -6.2 10.7 222 224 224
18.7 -6.1 10.5 222 224 224
214.3 -52.5 90.5 202 202 202
204.7 -49.6 85.6 205 205 205
178.4 -42.8 73.9 199 199 199
180.1 -42.8 73.9 236 236 236
177.0 -41.7 71.9 236 236 236
23.1 -7.7 13.8 222 224 224
18.9 -6.0 10.7 222 224 224
18.7 -5.8 10.5 222 224 224
18.6 -5.7 10.3 221 221 221
233.3 -54.8 98.5 202 202 202
217.5 -50.6 90.9 203 203 203
23.0 -7.4 13.8 222 224 224
18.7 -5.6 10.5 223 225 225
270.4 -61.5 115.3 202 202 202
247.5 -55.7 104.5 203 203 203
235.6 -52.5 98.5 205 205 205
235.6 -50.3 98.5 203 203 203
133.6 -29.8 61.2 186 186 186
155.6 -30.5 62.6 119 119 119
23.0 -6.4 13.8 224 224 224
22.8 -6.2 13.5 224 224 224
25.5 -6.3 13.6 224 224 224
25.5 -6.2 13.4 224 224 224
23.1 -6.1 13.8 225 225 225
22.5 -5.8 13.3 225 225 225
22.7 -5.8 13.2 225 225 225
25.5 -6.0 13.6 225 225 225
25.4 -5.9 13.4 225 225 225
25.3 -5.8 13.1 225 225 225
25.5 -5.7 13.6 225 225 225
960.6 -100.3 394.1 232 234 234
22.4 -3.1 13.4 221 221 221
22.8 -3.1 13.4 224 224 224
23.1 -3.1 13.4 224 224 224
23.6 -3.1 13.4 227 227 227
24.0 -3.1 13.4 224 224 224
24.3 -3.1 13.4 224 224 224
27.8 -3.1 13.4 217 220 219
27.9 -3.1 13.3 152 152 152
960.6 -91.1 394.1 232 234 234
22.2 -2.8 13.5 222 222 222
22.5 -2.8 13.5 222 222 222
23.0 -2.8 13.6 222 222 222
23.7 -2.8 13.4 225 225 225
24.3 -2.8 13.6 221 221 221
24.3 -2.6 12.3 224 224 224
28.1 -2.9 13.7 227 227 227
28.1 -2.8 13.6 227 227 227
28.0 -2.8 13.4 160 160 160
22.3 -2.5 13.6 225 225 225
22.7 -2.5 13.6 222 222 222
23.1 -2.5 13.6 222 222 222
23.5 -2.5 13.7 225 225 225
23.9 -2.5 13.6 222 222 222
24.4 -2.5 13.6 222 222 222
24.2 -2.3 12.3 222 222 222
28.1 -2.5 13.7 222 222 222
28.2 -2.5 13.6 222 222 222
22.5 -2.2 13.5 224 224 224
22.8 -2.2 13.5 224 224 224
23.3 -2.2 13.6 224 224 224
23.7 -2.2 13.4 224 224 224
24.2 -2.2 13.5 224 224 224
24.4 -2.0 12.4 222 222 222
23.9 -1.9 11.8 222 222 222
28.0 -2.2 13.5 218 221 220
24.4 -1.7 12.4 224 224 224
26.6 -1.7 12.6 178 178 178
26.2 -1.7 12.3 156 156 156
22.0 -1.3 11.4 224 224 224
24.8 -1.4 12.6 224 224 224
26.7 -1.5 12.6 183 183 183
22.6 -1.2 13.0 220 223 222
21.9 -1.1 11.5 225 225 225
22.0 -1.0 11.4 225 225 225
25.3 -1.2 13.0 227 227 227
27.4 -1.2 13.1 173 173 173
26.9 -1.2 12.7 191 191 191
27.5 -1.2 12.9 191 191 191
22.7 -0.9 13.0 222 224 224
22.0 -0.8 11.7 220 223 222
22.0 -0.8 11.5 220 223 222
25.3 -0.9 13.0 220 223 222
27.4 -0.9 13.1 174 176 176
27.6 -0.9 12.9 191 191 191
22.9 -0.6 13.1 222 224 224
21.9 -0.5 11.7 222 224 224
22.0 -0.5 11.6 222 224 224
22.1 -0.5 11.5 222 224 224
27.5 -0.6 13.2 175 177 177
21.8 -0.3 13.3 217 217 217
22.2 -0.3 13.3 220 223 222
22.5 -0.3 13.3 220 223 222
22.7 -0.3 13.2 220 223 222
23.0 -0.3 13.2 223 225 225
23.4 -0.3 13.3 223 225 225
22.0 -0.3 11.7 223 225 225
25.5 -0.3 13.2 223 225 225
25.7 -0.3 13.2 223 225 225
27.4 -0.3 13.3 222 224 224
27.6 -0.3 13.2 175 177 177
28.0 -0.3 13.3 193 193 193
28.2 -0.3 13.2 198 198 198
23.3 0.0 13.2 224 226 226
22.8 0.0 11.2 227 227 227
27.4 0.0 13.2 217 217 217
27.5 0.0 13.1 178 181 180
22.8 0.3 11.2 222 224 224
27.7 0.3 13.3 188 188 188
26.9 0.3 12.7 194 194 194
84.5 1.1 22.3 93 96 95
85.0 1.1 22.3 166 169 168
82.9 1.6 21.9 89 89 89
81.0 1.5 21.3 169 169 169
80.9 1.5 21.1 133 133 133
81.9 2.0 21.6 90 90 90
80.5 2.0 21.1 164 164 164
79.9 2.0 20.9 131 131 131
82.6 2.6 21.9 92 92 92
82.7 2.6 21.8 94 94 94
81.9 2.5 21.5 163 163 163
83.9 3.1 22.2 96 99 98
82.9 3.1 21.8 138 140 139
-123.3 23.5 43.8 52 52 52
-111.6 23.4 43.6 131 134 133
-86.8 23.5 43.9 75 77 77
-84.4 23.4 43.7 76 78 77
-82.4 23.1 43.2 75 76 74
-82.8 23.5 43.9 74 74 74
-81.2 23.4 43.6 75 76 74
-58.1 23.5 43.8 120 122 121
-56.2 23.1 43.1 122 124 123
-56.1 23.5 43.8 120 122 121
-55.2 23.5 43.9 239 239 239
-53.8 23.4 43.6 229 232 231
-53.3 23.6 44.0 228 231 230
-48.3 23.1 43.2 226 229 228
-92.5 26.4 47.3 82 82 82
-87.9 25.4 45.5 82 82 82
-66.3 26.5 47.4 111 113 112
-59.1 25.8 46.1 128 128 128
-57.1 25.4 45.4 239 239 239
-55.5 25.1 44.9 226 226 226
-58.2 26.8 48.0 219 222 221
-104.2 52.1 93.2 99 101 101
-230.4 64.0 110.0 99 101 101
-183.1 51.5 88.4 109 111 111
-180.7 70.6 121.3 120 122 121
-165.2 65.6 112.6 127 127 127
-143.8 58.0 99.6 125 125 125
-129.8 53.2 91.4 121 123 122
-129.6 54.0 92.7 93 93 93
-110.7 53.2 91.4 224 224 224
-113.0 55.4 95.1 126 129 128
-111.3 55.6 95.5 49 49 49
-109.6 57.1 98.0 71 72 70
-99.1 52.7 90.5 69 71 69
-578.3 171.0 282.3 122 124 123
-584.6 208.3 343.9 112 114 113
-440.5 173.6 286.6 140 140 140
-392.3 156.9 259.1 143 143 142
-396.5 163.7 270.2 143 143 142
-400.6 173.6 286.6 85 85 85
-433.3 190.9 315.3 67 69 67
-344.4 179.0 295.6 34 34 34
-337.5 179.0 295.6 69 69 69
-330.6 179.0 295.6 67 67 67
-387.0 269.7 386.0 161 161 161
-319.4 227.8 326.1 151 153 153
23.7 15.7 10.1 80 83 82
30.3 15.8 10.1 105 105 105
35.7 15.7 10.1 104 104 104
36.9 15.8 10.1 108 110 110
37.0 15.7 10.1 115 115 115
23.5 16.0 10.1 215 215 215
23.7 16.0 10.1 75 76 76
27.2 16.0 10.1 106 106 106
30.3 16.0 10.1 105 105 105
30.5 16.0 10.1 105 105 105
30.8 16.0 10.1 99 101 101
31.0 16.0 10.1 97 100 99
33.8 16.0 10.1 94 93 92
34.0 16.0 10.1 85 85 85
34.3 16.0 10.1 79 78 77
34.5 16.0 10.1 83 83 83
34.7 16.0 10.1 95 94 93
35.0 16.0 10.1 95 94 93
35.1 16.0 10.1 102 102 102
35.7 16.0 10.1 104 104 104
35.9 16.0 10.1 107 107 107
36.2 16.0 10.1 107 107 107
36.4 16.0 10.1 107 107 107
36.7 16.0 10.1 108 110 110
36.9 16.0 10.1 108 110 110
37.1 16.0 10.1 111 113 112
37.2 15.9 10.1 126 128 127
37.5 16.0 10.1 123 123 123
37.8 16.0 10.1 86 86 86
23.8 16.3 10.1 128 130 129
35.9 16.3 10.2 102 102 102
36.0 16.3 10.1 102 102 102
36.3 16.3 10.1 104 104 104
36.5 16.3 10.1 107 107 107
37.1 16.3 10.2 108 110 110
37.2 16.3 10.1 111 113 112
37.3 16.2 10.1 123 123 123
37.7 16.3 10.1 121 121 121
37.5 16.9 10.4 107 107 107
