ply
format ascii 1.0
element vertex 2489
property float x
property float y
property float z
property uchar red
property uchar green
property uchar blue
end_header
164.2 -593.3 236.5 161 161 161
169.7 -593.3 236.5 162 162 162
175.2 -593.3 236.5 162 162 162
180.7 -593.3 236.5 164 164 164
186.2 -593.3 236.5 164 164 164
191.7 -593.3 236.5 164 164 164
197.2 -593.3 236.5 164 164 164
202.7 -593.3 236.5 164 164 164
208.2 -593.3 236.5 164 164 164
213.6 -593.3 236.5 165 165 165
219.1 -593.3 236.5 165 165 165
224.6 -593.3 236.5 165 165 165
230.1 -593.3 236.5 165 165 165
235.6 -593.3 236.5 165 165 165
241.1 -593.3 236.5 163 163 163
243.6 -585.9 233.5 163 163 163
249.0 -585.9 233.5 163 163 163
257.6 -593.3 236.5 163 163 163
263.1 -593.3 236.5 163 163 163
265.3 -585.9 233.5 163 163 163
274.1 -593.3 236.5 163 163 163
279.6 -593.3 236.5 160 160 160
281.6 -585.9 233.5 161 161 161
290.6 -593.3 236.5 161 161 161
296.1 -593.3 236.5 161 161 161
301.6 -593.3 236.5 161 161 161
303.3 -585.9 233.5 161 161 161
312.6 -593.3 236.5 156 159 158
326.2 -608.5 242.5 156 159 158
323.6 -593.3 236.5 156 159 158
91.9 -150.7 60.1 155 158 157
95.2 -153.6 61.2 155 158 157
98.2 -156.1 62.2 156 159 158
124.6 -95.5 38.1 105 104 102
124.3 -94.5 37.7 105 104 102
124.1 -93.8 37.4 99 101 101
125.0 -93.8 37.4 105 104 102
161.4 -376.2 151.3 163 163 163
85.9 -195.9 78.8 163 163 163
221.6 -495.0 199.1 163 163 163
171.9 -376.2 151.3 163 163 163
172.7 -370.3 148.9 163 163 163
228.2 -479.8 193.0 164 164 164
181.0 -373.2 150.1 164 164 164
186.0 -376.2 151.3 164 164 164
100.4 -199.2 80.2 164 164 164
246.2 -479.8 193.0 161 161 161
219.3 -419.8 168.9 161 161 161
299.4 -553.2 222.5 161 161 161
115.8 -185.1 74.5 157 160 159
118.0 -185.9 74.8 158 161 160
124.1 -192.7 77.5 156 159 158
115.1 -176.1 70.8 156 159 158
122.2 -92.7 37.3 105 104 102
118.8 -89.6 36.0 105 104 102
118.5 -88.7 35.7 99 101 101
59.8 -40.7 16.4 165 168 167
59.5 -40.3 16.2 197 200 199
59.2 -39.8 16.0 196 196 196
61.1 -40.6 16.3 155 155 155
61.1 -40.4 16.3 197 200 199
61.1 -40.1 16.1 207 207 207
61.0 -39.8 16.0 209 209 209
48.5 -171.9 69.8 164 164 164
50.1 -171.9 69.8 164 164 164
51.7 -171.9 69.8 164 164 164
53.3 -171.9 69.8 164 164 164
55.0 -171.9 69.8 164 164 164
56.6 -171.9 69.8 167 167 167
58.2 -171.9 69.8 167 167 167
59.8 -171.9 69.8 164 164 164
61.4 -171.9 69.8 164 164 164
63.1 -171.9 69.8 165 165 165
64.7 -171.9 69.8 168 168 168
66.3 -171.9 69.8 165 165 165
70.1 -173.2 70.3 163 163 163
70.9 -171.3 69.5 163 163 163
73.6 -173.8 70.6 163 163 163
75.5 -174.5 70.8 163 163 163
74.1 -167.6 68.0 163 163 163
77.4 -171.3 69.5 163 163 163
79.3 -171.9 69.8 163 163 163
81.2 -172.5 70.1 163 163 163
81.3 -169.4 68.8 164 164 164
82.0 -167.6 68.0 164 164 164
83.9 -168.2 68.3 164 164 164
87.1 -171.3 69.5 164 164 164
88.7 -171.3 69.5 164 164 164
91.3 -173.2 70.3 164 164 164
90.3 -168.2 68.3 164 164 164
93.9 -171.9 69.8 164 164 164
110.5 -175.1 71.1 162 162 162
111.4 -173.8 70.6 163 163 163
113.8 -175.1 71.1 158 161 160
112.1 -170.0 69.0 158 161 160
120.0 -90.3 36.7 105 104 102
114.2 -85.3 34.6 99 101 101
109.8 -81.4 33.1 99 101 101
58.7 -39.4 16.0 200 202 202
58.8 -39.2 15.9 196 196 196
60.0 -39.7 16.1 207 207 207
60.3 -39.7 16.1 170 171 170
60.1 -39.3 16.0 160 160 160
60.3 -39.2 15.9 212 213 212
60.0 -38.8 15.8 183 186 185
59.4 -38.2 15.5 191 191 191
57.7 -126.4 51.8 163 163 163
63.9 -126.8 52.0 164 164 164
64.7 -126.1 51.7 164 164 164
63.2 -120.8 49.5 164 164 164
64.5 -121.1 49.6 164 164 164
67.8 -125.0 51.3 164 164 164
131.5 -203.3 83.3 163 163 163
134.6 -205.1 84.1 163 163 163
92.7 -137.3 56.3 164 164 164
85.4 -124.7 51.1 164 164 164
100.8 -74.1 30.4 99 101 101
97.0 -70.8 29.0 99 101 101
57.1 -37.7 15.5 196 196 196
57.6 -37.8 15.5 197 200 199
59.4 -38.7 15.9 212 213 212
58.7 -38.1 15.6 212 213 212
58.9 -37.9 15.6 197 200 199
59.1 -37.8 15.5 200 202 202
59.0 -37.5 15.4 216 216 216
26.2 -105.1 43.5 166 166 166
27.2 -105.1 43.5 166 166 166
28.2 -105.1 43.5 166 166 166
29.2 -105.1 43.5 166 166 166
30.2 -105.1 43.5 168 170 169
31.2 -105.1 43.5 167 167 167
32.2 -105.1 43.5 167 167 167
33.2 -105.1 43.5 167 167 167
34.2 -105.1 43.5 167 167 167
35.2 -105.1 43.5 167 167 167
36.3 -105.1 43.5 167 167 167
37.3 -105.1 43.5 164 164 164
38.3 -105.1 43.5 164 164 164
39.3 -105.1 43.5 165 165 165
40.3 -105.1 43.5 165 165 165
41.3 -105.1 43.5 165 165 165
50.4 -109.3 45.3 166 166 166
49.5 -105.3 43.6 166 166 166
52.1 -106.5 44.1 166 166 166
53.5 -107.3 44.4 166 166 166
55.2 -108.6 44.9 166 166 166
56.7 -109.3 45.3 166 166 166
56.1 -106.3 44.0 167 167 167
55.3 -102.9 42.6 167 167 167
57.2 -104.6 43.3 167 167 167
59.6 -107.0 44.3 167 167 167
134.0 -202.2 83.7 166 166 166
125.4 -186.5 77.2 166 166 166
92.9 -67.1 27.8 99 101 101
89.7 -64.4 26.6 99 101 101
65.2 -45.2 18.7 93 93 93
63.9 -44.0 18.2 91 91 91
56.9 -37.2 15.4 197 200 199
58.4 -37.7 15.6 165 168 167
58.5 -37.6 15.5 212 213 212
58.8 -37.5 15.5 183 186 185
59.0 -37.4 15.5 216 216 216
58.8 -37.1 15.4 216 216 216
19.8 -88.9 37.2 167 167 167
20.6 -88.9 37.2 166 166 166
21.5 -88.9 37.2 166 166 166
22.3 -88.9 37.2 168 170 169
23.2 -88.9 37.2 168 170 169
24.1 -88.9 37.2 168 170 169
24.9 -88.9 37.2 166 166 166
25.8 -88.9 37.2 166 166 166
26.7 -88.9 37.2 167 167 167
27.5 -88.9 37.2 167 167 167
28.4 -88.9 37.2 167 167 167
29.3 -88.9 37.2 164 164 164
30.1 -88.9 37.2 167 167 167
31.0 -88.9 37.2 167 167 167
31.9 -88.9 37.2 167 167 167
32.7 -88.9 37.2 168 168 168
33.6 -88.9 37.2 165 165 165
34.4 -88.9 37.2 165 165 165
35.3 -88.9 37.2 165 165 165
36.2 -88.9 37.2 168 168 168
37.0 -88.9 37.2 165 165 165
37.9 -88.9 37.2 165 165 165
38.8 -88.9 37.2 165 165 165
41.2 -88.6 37.0 166 166 166
43.2 -89.1 37.2 166 166 166
43.7 -88.4 36.9 169 169 169
44.7 -88.8 37.1 169 169 169
45.5 -88.6 37.0 169 169 169
46.4 -88.6 37.0 170 171 170
49.0 -90.3 37.8 170 171 170
48.8 -88.4 36.9 170 171 170
49.7 -88.4 36.9 170 171 170
51.6 -88.8 37.1 170 171 170
61.6 -97.8 40.9 172 172 172
57.4 -88.4 36.9 172 172 172
127.5 -187.8 78.5 173 173 173
111.3 -161.7 67.6 170 171 170
87.3 -62.0 25.9 99 101 101
84.6 -59.7 25.0 96 99 98
64.3 -44.2 18.5 93 93 93
62.7 -42.8 17.9 91 91 91
16.1 -82.7 34.9 164 164 164
16.9 -82.7 34.9 167 167 167
17.7 -82.7 34.9 167 167 167
18.6 -82.7 34.9 167 167 167
19.4 -82.7 34.9 168 170 169
20.2 -82.7 34.9 168 170 169
21.0 -82.7 34.9 168 170 169
21.8 -82.7 34.9 168 170 169
22.6 -82.7 34.9 166 166 166
23.4 -82.7 34.9 166 166 166
24.2 -82.7 34.9 166 166 166
25.0 -82.7 34.9 167 167 167
25.9 -82.7 34.9 164 164 164
26.7 -82.7 34.9 167 167 167
27.5 -82.7 34.9 167 167 167
28.3 -82.7 34.9 167 167 167
29.1 -82.7 34.9 167 167 167
29.9 -82.7 34.9 167 167 167
30.7 -82.7 34.9 168 168 168
31.5 -82.7 34.9 168 168 168
32.3 -82.7 34.9 169 171 170
33.2 -82.7 34.9 168 168 168
34.0 -82.7 34.9 170 172 172
34.8 -82.7 34.9 168 168 168
35.6 -82.7 34.9 165 165 165
36.4 -82.7 34.9 168 168 168
37.2 -82.7 34.9 166 166 166
38.3 -83.3 35.2 169 169 169
38.9 -82.9 35.0 170 172 172
39.7 -82.9 35.0 170 172 172
40.8 -83.3 35.2 170 172 172
41.2 -82.5 34.8 171 173 173
41.9 -82.4 34.8 171 173 173
42.8 -82.5 34.8 171 173 173
43.5 -82.4 34.8 171 173 173
44.9 -83.5 35.2 170 171 170
45.7 -83.5 35.2 171 173 173
46.1 -82.7 34.9 171 173 173
46.7 -82.2 34.7 174 176 176
47.9 -83.0 35.0 171 173 173
48.7 -82.9 35.0 171 173 173
49.9 -83.6 35.3 171 173 173
51.3 -84.6 35.7 172 174 174
52.2 -84.6 35.7 172 174 174
52.9 -84.4 35.6 172 174 174
54.1 -85.1 35.9 172 174 174
54.9 -84.9 35.8 172 174 174
55.2 -84.1 35.5 172 174 174
54.7 -82.1 34.6 173 175 175
55.1 -81.5 34.4 173 175 175
134.7 -196.6 83.0 173 175 175
79.8 -55.8 23.5 96 99 98
77.2 -53.6 22.6 96 99 98
64.5 -43.9 18.5 93 93 93
59.7 -40.1 16.9 91 91 91
58.7 -39.1 16.5 91 91 91
60.5 -39.6 16.7 180 183 182
60.8 -39.5 16.7 160 160 160
15.6 -79.1 33.7 168 168 168
16.4 -79.1 33.7 167 167 167
17.1 -79.1 33.7 169 171 170
17.9 -79.1 33.7 169 171 170
18.7 -79.1 33.7 168 170 169
19.5 -79.1 33.7 168 170 169
20.3 -79.1 33.7 168 170 169
21.1 -79.1 33.7 168 170 169
21.8 -79.1 33.7 168 170 169
22.6 -79.1 33.7 166 166 166
23.4 -79.1 33.7 166 166 166
24.2 -79.1 33.7 167 167 167
25.0 -79.1 33.7 167 167 167
25.8 -79.1 33.7 167 167 167
26.5 -79.1 33.7 169 171 170
27.3 -79.1 33.7 169 171 170
28.1 -79.1 33.7 169 171 170
28.9 -79.1 33.7 169 171 170
29.7 -79.1 33.7 169 171 170
30.5 -79.1 33.7 169 171 170
31.3 -79.1 33.7 169 171 170
32.0 -79.1 33.7 169 171 170
32.8 -79.1 33.7 170 172 172
33.6 -79.1 33.7 170 172 172
34.4 -79.1 33.7 173 175 175
35.2 -79.1 33.7 173 175 175
36.0 -79.3 33.8 170 172 172
36.9 -79.4 33.8 173 175 175
37.5 -79.1 33.7 170 172 172
38.2 -78.8 33.6 173 175 175
39.2 -79.4 33.8 178 178 178
39.9 -79.3 33.8 179 179 179
40.4 -78.7 33.5 174 176 176
41.2 -78.7 33.5 174 176 176
42.1 -79.0 33.7 174 176 176
43.1 -79.3 33.8 179 179 179
44.0 -79.5 33.9 174 176 176
44.7 -79.3 33.8 174 176 176
44.8 -78.1 33.3 179 179 179
46.0 -78.8 33.6 174 176 176
47.0 -79.3 33.8 179 179 179
48.0 -79.5 33.9 179 179 179
49.3 -80.4 34.3 182 182 182
49.8 -80.0 34.1 175 177 177
50.6 -80.0 34.1 180 180 180
51.4 -80.0 34.1 175 177 177
53.1 -81.4 34.7 180 180 180
53.9 -81.3 34.6 180 180 180
53.0 -78.8 33.6 176 179 178
53.6 -78.6 33.5 176 179 178
54.7 -79.0 33.7 176 179 178
165.8 -236.1 100.6 177 180 179
73.5 -50.5 21.5 96 99 98
56.4 -37.0 15.8 96 96 96
56.7 -37.0 15.8 96 99 98
26.6 -76.2 32.8 169 171 170
27.3 -76.2 32.8 169 171 170
28.9 -76.2 32.8 177 177 177
29.3 -75.2 32.4 172 174 174
30.0 -75.2 32.4 169 171 170
30.8 -75.2 32.4 177 177 177
34.3 -76.3 32.8 189 189 189
34.7 -75.6 32.6 182 182 182
35.6 -75.9 32.7 189 189 189
36.2 -75.6 32.6 190 190 190
36.7 -75.0 32.3 190 190 190
38.1 -76.4 32.9 197 197 197
38.6 -75.9 32.7 200 200 200
38.6 -74.4 32.0 197 197 197
39.3 -74.2 32.0 195 195 195
40.6 -75.4 32.4 195 195 195
41.1 -74.9 32.2 197 197 197
41.7 -74.6 32.1 200 200 200
43.3 -76.2 32.8 197 197 197
42.5 -73.4 31.6 195 195 195
45.5 -76.0 32.7 197 197 197
48.1 -76.4 32.9 197 197 197
48.5 -75.9 32.7 200 200 200
49.6 -76.4 32.9 195 195 195
52.3 -79.3 34.1 195 195 195
53.7 -80.2 34.5 195 195 195
51.0 -75.1 32.3 202 202 202
52.1 -75.6 32.6 198 198 198
53.6 -76.7 33.0 196 196 196
163.1 -230.1 99.0 197 197 197
161.2 -224.2 96.5 199 199 199
14.3 -71.3 31.0 172 174 174
15.0 -71.3 31.0 172 174 174
15.8 -71.3 31.0 172 174 174
16.5 -71.3 31.0 179 179 179
17.2 -71.3 31.0 178 178 178
17.9 -71.3 31.0 189 189 189
18.6 -71.3 31.0 184 184 184
19.4 -71.3 31.0 191 191 191
20.1 -71.3 31.0 191 191 191
20.8 -71.3 31.0 195 195 195
21.5 -71.3 31.0 195 195 195
22.3 -71.3 31.0 198 198 198
23.0 -71.3 31.0 198 198 198
23.7 -71.2 31.0 195 195 195
24.4 -71.3 31.0 198 198 198
25.2 -71.4 31.1 205 205 205
25.9 -71.3 31.0 198 198 198
26.6 -71.3 31.0 202 202 202
27.3 -71.4 31.1 202 202 202
28.1 -71.4 31.1 198 198 198
28.7 -71.3 31.0 198 198 198
29.5 -71.3 31.0 205 205 205
30.2 -71.3 31.0 202 202 202
30.9 -71.3 31.0 202 202 202
31.6 -71.3 31.0 205 205 205
32.4 -71.4 31.1 205 205 205
33.2 -71.6 31.1 200 200 200
33.9 -71.6 31.1 204 204 204
34.6 -71.6 31.1 200 200 200
35.3 -71.4 31.1 200 200 200
35.9 -71.2 31.0 204 204 204
36.8 -71.6 31.1 204 204 204
37.5 -71.6 31.1 204 204 204
38.1 -71.3 31.0 204 204 204
39.0 -71.6 31.1 204 204 204
39.6 -71.4 31.1 204 204 204
40.1 -71.1 30.9 204 204 204
41.0 -71.3 31.0 204 204 204
41.6 -71.1 30.9 200 200 200
43.3 -71.6 31.1 204 204 204
43.8 -71.2 31.0 200 200 200
46.2 -72.7 31.6 200 200 200
46.3 -71.8 31.2 204 204 204
47.4 -72.3 31.4 204 204 204
49.4 -72.0 31.3 205 205 205
49.9 -71.7 31.2 205 205 205
121.3 -87.7 38.1 111 113 112
20.2 -71.1 31.2 205 205 205
20.9 -71.1 31.2 205 205 205
21.7 -71.1 31.2 205 205 205
22.4 -71.1 31.2 202 202 202
35.5 -71.1 31.2 200 200 200
37.6 -71.1 31.2 204 204 204
38.4 -71.1 31.2 204 204 204
39.2 -71.2 31.3 204 204 204
39.7 -70.9 31.2 204 204 204
40.4 -70.8 31.1 204 204 204
41.9 -70.8 31.1 204 204 204
42.4 -70.6 31.0 204 204 204
44.2 -71.1 31.2 204 204 204
48.7 -77.0 33.8 204 204 204
46.4 -71.2 31.3 204 204 204
50.4 -76.1 33.4 204 204 204
52.9 -78.7 34.6 204 204 204
49.5 -71.4 31.4 202 202 202
50.1 -71.2 31.3 202 202 202
54.9 -76.9 33.8 205 205 205
57.0 -78.7 34.6 206 206 206
301.3 -225.5 99.0 117 117 117
116.0 -83.0 36.4 113 115 114
110.2 -78.3 34.4 111 113 112
44.9 -76.5 34.0 204 204 204
42.6 -71.3 31.6 204 204 204
49.3 -76.0 33.7 204 204 204
47.3 -71.8 31.8 204 204 204
50.7 -75.7 33.6 204 204 204
53.7 -79.1 35.1 204 204 204
55.2 -80.0 35.5 204 204 204
50.6 -72.2 32.1 205 205 205
50.9 -71.6 31.8 205 205 205
54.9 -76.1 33.8 205 205 205
57.5 -78.6 34.9 206 206 206
27.3 -35.3 15.7 207 207 207
26.8 -34.2 15.2 207 207 207
26.6 -33.6 14.9 208 208 208
326.9 -242.2 107.5 125 125 125
117.5 -83.3 36.9 115 117 116
42.6 -70.5 31.6 207 207 207
49.8 -77.3 34.6 207 207 207
49.0 -74.8 33.5 207 207 207
47.2 -70.9 31.8 207 207 207
48.2 -71.3 32.0 207 207 207
52.8 -76.8 34.5 207 207 207
55.2 -79.1 35.5 204 204 204
50.4 -71.3 32.0 207 207 207
50.7 -70.7 31.7 205 205 205
51.4 -70.5 31.6 205 205 205
57.2 -77.4 34.7 205 205 205
27.5 -35.2 15.8 206 206 206
26.8 -33.9 15.2 207 207 207
26.6 -33.2 14.9 207 207 207
40.4 -65.1 29.5 206 206 206
48.8 -74.9 34.0 206 206 206
47.1 -70.0 31.7 206 206 206
47.9 -70.0 31.7 206 206 206
51.7 -74.5 33.8 206 206 206
54.0 -76.7 34.8 206 206 206
50.4 -70.5 32.0 207 207 207
50.1 -69.1 31.3 207 207 207
50.5 -68.7 31.1 207 207 207
26.9 -33.6 15.2 206 206 206
-19.8 -22.1 10.1 108 110 110
-19.5 -22.1 10.1 107 109 109
-14.4 -22.1 10.1 128 128 128
50.0 -75.9 34.8 205 205 205
49.5 -74.0 33.9 205 205 205
47.8 -70.2 32.2 205 205 205
48.4 -70.1 32.1 205 205 205
52.0 -74.2 34.0 205 205 205
54.4 -76.5 35.0 206 206 206
53.2 -73.6 33.7 206 206 206
51.1 -69.7 31.9 206 206 206
50.8 -68.3 31.3 206 206 206
57.1 -75.7 34.6 207 207 207
58.0 -75.8 34.7 207 207 207
27.0 -33.4 15.3 205 205 205
-29.2 -22.4 10.4 46 46 44
-20.8 -22.4 10.4 90 90 90
-20.5 -22.4 10.4 95 98 97
-20.2 -22.3 10.3 101 101 101
-19.4 -22.5 10.4 108 110 110
-14.4 -21.9 10.2 123 123 123
-9.0 -22.4 10.4 140 139 138
-4.1 -22.5 10.4 161 164 163
3.4 -22.5 10.4 183 183 183
50.5 -75.8 35.1 208 208 208
47.4 -69.0 32.0 205 205 205
47.8 -68.5 31.7 205 205 205
50.7 -71.6 33.1 205 205 205
54.4 -75.7 35.0 205 205 205
53.6 -73.4 34.0 205 205 205
50.3 -67.9 31.4 206 206 206
50.5 -67.2 31.1 206 206 206
56.6 -74.2 34.3 206 206 206
27.5 -33.7 15.6 205 205 205
26.4 -32.0 14.8 205 205 205
-29.5 -22.4 10.5 46 46 44
-29.4 -22.5 10.5 48 48 48
-29.1 -22.5 10.5 46 46 44
-28.9 -22.5 10.5 46 46 44
-28.6 -22.5 10.5 46 46 44
-28.4 -22.5 10.5 47 48 47
-28.2 -22.5 10.5 46 46 44
-27.9 -22.5 10.5 43 43 43
-27.7 -22.5 10.5 46 46 44
-27.4 -22.5 10.5 43 43 43
-27.2 -22.5 10.5 46 46 44
-26.9 -22.5 10.5 46 46 44
-26.7 -22.5 10.5 46 46 44
-26.4 -22.5 10.5 47 48 47
-26.2 -22.5 10.5 46 46 44
-25.9 -22.5 10.5 43 43 43
-25.7 -22.5 10.5 43 43 43
-25.4 -22.5 10.5 43 43 43
-25.2 -22.5 10.5 41 41 41
-25.0 -22.5 10.5 41 41 41
-24.7 -22.5 10.5 38 38 38
-24.5 -22.5 10.5 38 38 38
-24.2 -22.5 10.5 38 38 38
-24.0 -22.5 10.5 41 41 41
-23.7 -22.5 10.5 41 41 41
-23.5 -22.4 10.5 38 38 38
-23.2 -22.5 10.5 43 43 43
-23.0 -22.5 10.5 41 41 41
-22.8 -22.5 10.5 43 43 43
-22.5 -22.5 10.5 43 43 43
-22.3 -22.5 10.5 43 43 43
-22.0 -22.4 10.5 46 46 44
-21.8 -22.5 10.5 47 48 47
-21.6 -22.5 10.5 55 55 55
-21.3 -22.5 10.5 64 64 64
-21.0 -22.4 10.5 80 83 82
-20.8 -22.4 10.5 92 92 92
-20.5 -22.4 10.5 93 93 93
-20.3 -22.4 10.5 96 99 98
-20.1 -22.5 10.5 96 99 98
-19.9 -22.5 10.5 96 99 98
-19.6 -22.5 10.5 104 104 104
-19.3 -22.5 10.5 106 106 106
-19.1 -22.5 10.5 108 108 108
-18.9 -22.5 10.5 108 108 108
-18.6 -22.5 10.5 108 108 108
-18.3 -22.4 10.5 108 110 110
-18.1 -22.5 10.5 107 107 107
-17.9 -22.5 10.6 108 110 110
-17.7 -22.5 10.5 110 112 111
-17.4 -22.5 10.5 108 110 110
-17.1 -22.4 10.5 110 112 111
-16.9 -22.4 10.5 113 114 113
-16.7 -22.5 10.5 115 115 115
-16.4 -22.5 10.5 115 115 115
-16.1 -22.4 10.5 117 117 117
-15.9 -22.4 10.5 119 119 119
-15.7 -22.4 10.5 118 118 118
-15.4 -22.5 10.5 120 122 121
-9.5 -22.4 10.5 136 136 136
-9.3 -22.4 10.5 137 137 137
-9.1 -22.5 10.5 137 139 138
-8.8 -22.4 10.5 140 140 140
-8.6 -22.4 10.5 141 143 142
-7.6 -22.5 10.5 139 139 139
-7.4 -22.5 10.5 140 140 140
-7.1 -22.4 10.5 143 143 142
-6.8 -22.4 10.5 141 143 142
-6.6 -22.4 10.5 148 148 148
-6.4 -22.5 10.5 150 150 150
-6.1 -22.5 10.5 158 158 158
-5.9 -22.5 10.5 158 161 160
-5.7 -22.5 10.5 162 162 162
-5.4 -22.5 10.5 163 163 163
-5.2 -22.5 10.5 164 164 164
-4.9 -22.5 10.5 164 167 166
-4.7 -22.5 10.5 164 167 166
-4.4 -22.5 10.5 163 166 165
-4.2 -22.5 10.5 168 168 168
-3.9 -22.5 10.5 167 167 167
-3.7 -22.5 10.5 168 168 168
-3.5 -22.5 10.5 171 173 173
-3.2 -22.5 10.5 171 173 173
-3.0 -22.5 10.5 171 173 173
-2.7 -22.5 10.5 171 173 173
-2.5 -22.5 10.5 171 173 173
-2.2 -22.5 10.5 171 173 173
-2.0 -22.5 10.5 173 175 175
-1.7 -22.5 10.5 173 175 175
-1.5 -22.5 10.5 173 175 175
-1.3 -22.6 10.6 178 178 178
-1.0 -22.6 10.6 178 178 178
-0.5 -22.4 10.5 178 178 178
-0.3 -22.4 10.5 177 177 177
-0.0 -22.6 10.6 179 179 179
0.2 -22.5 10.5 179 179 179
0.5 -22.5 10.5 179 179 179
0.7 -22.5 10.5 179 179 179
0.9 -22.5 10.5 179 179 179
1.2 -22.5 10.5 179 179 179
1.4 -22.5 10.5 181 181 181
1.9 -22.5 10.5 178 178 178
2.2 -22.6 10.6 181 181 181
2.4 -22.5 10.5 183 183 183
2.6 -22.4 10.5 183 183 183
2.9 -22.5 10.5 183 183 183
3.2 -22.5 10.5 183 183 183
3.4 -22.3 10.5 183 183 183
47.2 -67.9 31.8 207 207 207
47.1 -66.8 31.3 207 207 207
54.0 -74.2 34.7 205 205 205
50.5 -68.4 32.0 205 205 205
50.0 -66.7 31.2 205 205 205
50.0 -65.7 30.8 205 205 205
51.0 -66.2 31.0 205 205 205
52.3 -66.9 31.3 206 206 206
52.8 -66.6 31.2 206 206 206
26.5 -31.7 14.8 204 204 204
26.8 -31.7 14.8 205 205 205
-22.1 -22.8 10.8 42 42 42
-21.7 -22.7 10.7 47 46 45
-19.0 -22.7 10.7 103 103 103
-18.5 -23.0 10.9 107 107 107
-16.0 -22.7 10.8 115 114 114
-10.2 -23.1 10.9 132 132 132
-9.7 -22.5 10.7 131 134 133
-9.4 -22.5 10.6 134 134 134
-9.2 -22.5 10.7 136 138 137
3.2 -22.5 10.7 182 182 182
39.7 -59.2 28.0 207 207 207
47.4 -67.4 31.9 207 207 207
47.0 -65.9 31.2 204 204 204
47.2 -65.2 30.9 207 207 207
50.7 -67.9 32.1 207 207 207
50.0 -66.0 31.2 204 204 204
49.2 -64.0 30.3 205 205 205
49.9 -64.1 30.3 205 205 205
26.5 -31.4 14.8 206 206 206
26.9 -31.4 14.8 204 204 204
-22.6 -22.8 10.9 40 40 40
-25.9 -27.4 13.1 45 45 45
-23.5 -27.7 13.3 99 101 101
-10.2 -22.9 10.9 124 127 126
-9.9 -22.7 10.8 124 126 125
-9.5 -22.5 10.7 126 126 126
-9.3 -22.5 10.8 128 130 129
-10.4 -27.4 13.1 138 138 138
11.3 -27.6 13.2 207 207 207
12.2 -27.5 13.2 206 206 206
12.5 -27.4 13.1 206 206 206
13.5 -27.7 13.2 206 206 206
14.5 -27.8 13.3 206 206 206
14.4 -27.1 12.9 206 206 206
14.6 -26.8 12.8 206 206 206
47.4 -66.8 32.0 206 206 206
47.6 -66.0 31.6 206 206 206
43.0 -57.8 27.7 206 206 206
50.6 -67.0 32.1 206 206 206
50.2 -65.6 31.4 204 204 204
49.4 -63.6 30.4 204 204 204
26.7 -31.3 15.0 206 206 206
27.1 -31.3 15.0 206 206 206
-37.5 -27.5 13.3 49 48 47
-37.2 -27.5 13.3 50 50 50
-36.2 -27.5 13.3 50 50 50
-35.9 -27.5 13.3 53 52 52
-35.6 -27.5 13.3 53 52 52
-35.3 -27.5 13.3 53 52 52
-35.0 -27.5 13.3 50 50 50
-34.7 -27.5 13.3 53 52 52
-34.4 -27.5 13.3 50 50 50
-34.1 -27.5 13.3 50 50 50
-33.7 -27.5 13.3 50 50 50
-33.4 -27.5 13.3 50 50 50
-33.1 -27.5 13.3 49 48 47
-32.8 -27.5 13.3 49 48 47
-32.5 -27.5 13.3 49 48 47
-32.2 -27.5 13.3 46 46 46
-30.3 -27.5 13.3 43 43 43
-29.4 -27.5 13.3 43 43 43
-28.9 -27.6 13.4 43 43 43
-28.5 -27.5 13.3 41 41 41
-28.2 -27.5 13.3 41 41 41
-27.7 -27.6 13.3 39 39 39
-26.7 -27.5 13.3 40 40 40
-26.3 -27.5 13.3 42 42 42
-26.0 -27.5 13.3 42 42 42
-25.7 -27.5 13.3 42 42 42
-23.9 -27.6 13.3 95 95 95
-23.6 -27.5 13.3 92 95 94
-23.2 -27.5 13.3 95 95 95
-22.9 -27.5 13.3 97 97 97
-13.6 -27.5 13.3 110 110 110
-13.3 -27.4 13.3 110 112 111
-13.0 -27.4 13.2 113 114 113
-12.7 -27.4 13.3 108 110 110
-12.4 -27.5 13.3 112 112 112
-11.5 -27.5 13.3 111 111 111
-11.2 -27.5 13.3 114 113 112
-10.8 -27.5 13.3 117 119 118
-10.5 -27.4 13.2 141 143 142
-10.2 -27.4 13.2 165 165 165
-6.8 -27.5 13.3 194 194 194
-6.5 -27.5 13.3 193 193 193
-6.2 -27.5 13.3 192 192 192
-5.9 -27.5 13.3 193 193 193
-5.6 -27.5 13.3 190 190 190
-5.3 -27.5 13.3 192 192 192
-5.0 -27.5 13.3 193 193 193
-4.7 -27.5 13.3 193 193 193
-4.4 -27.5 13.3 189 189 189
-4.1 -27.5 13.3 189 189 189
-3.7 -27.5 13.3 189 189 189
-3.4 -27.5 13.3 189 189 189
0.9 -27.5 13.3 185 185 185
1.2 -27.5 13.3 185 185 185
1.5 -27.5 13.3 185 185 185
1.8 -27.5 13.3 185 185 185
2.1 -27.6 13.3 185 185 185
2.4 -27.4 13.2 184 184 184
2.7 -27.2 13.1 184 184 184
3.0 -27.5 13.3 184 184 184
3.4 -27.5 13.3 184 184 184
3.7 -27.5 13.3 181 181 181
8.0 -27.5 13.3 206 206 206
8.3 -27.5 13.3 206 206 206
8.6 -27.5 13.3 206 206 206
8.9 -27.5 13.3 206 206 206
9.2 -27.5 13.3 206 206 206
9.9 -27.6 13.3 206 206 206
10.2 -27.5 13.3 209 209 209
10.5 -27.5 13.3 206 206 206
10.8 -27.6 13.3 206 206 206
11.1 -27.5 13.3 206 206 206
11.4 -27.5 13.3 206 206 206
11.7 -27.5 13.3 206 206 206
12.0 -27.5 13.3 206 206 206
12.3 -27.5 13.3 206 206 206
12.6 -27.5 13.3 206 206 206
12.9 -27.5 13.3 206 206 206
13.3 -27.5 13.3 206 206 206
13.6 -27.5 13.3 206 206 206
13.9 -27.5 13.3 206 206 206
14.3 -27.7 13.4 206 206 206
14.5 -27.5 13.3 206 206 206
14.7 -27.3 13.2 206 206 206
15.1 -27.4 13.3 206 206 206
38.3 -56.0 27.1 206 206 206
47.4 -65.9 31.9 206 206 206
42.7 -56.8 27.5 206 206 206
49.7 -65.1 31.5 206 206 206
49.8 -64.3 31.1 206 206 206
48.7 -62.0 30.0 206 206 206
48.8 -61.2 29.6 206 206 206
26.8 -31.0 15.0 205 205 205
27.2 -31.0 15.0 205 205 205
-37.8 -27.4 13.4 50 50 50
-37.6 -27.5 13.5 51 51 51
-37.3 -27.6 13.5 51 51 51
-37.0 -27.5 13.5 51 51 51
-36.7 -27.5 13.5 53 53 53
-36.4 -27.5 13.5 53 53 53
-36.1 -27.5 13.5 53 53 53
-35.7 -27.5 13.5 53 53 53
-35.4 -27.5 13.5 53 53 53
-35.1 -27.5 13.5 51 51 51
-34.8 -27.5 13.5 53 53 53
-34.5 -27.5 13.5 53 53 53
-34.2 -27.5 13.5 53 53 53
-33.9 -27.5 13.5 53 53 53
-33.5 -27.5 13.5 51 51 51
-33.2 -27.5 13.5 50 49 48
-32.9 -27.5 13.5 46 46 46
-32.6 -27.5 13.5 46 46 46
-32.2 -27.5 13.5 47 47 47
-30.7 -27.5 13.5 47 47 47
-30.4 -27.5 13.5 47 47 47
-30.1 -27.5 13.5 47 47 47
-29.7 -27.5 13.5 47 47 47
-29.2 -27.6 13.5 47 47 47
-28.8 -27.5 13.5 45 45 45
-28.5 -27.5 13.4 42 42 42
-28.4 -27.7 13.6 42 43 42
-28.0 -27.6 13.5 40 40 40
-27.0 -27.5 13.5 42 43 42
-26.6 -27.5 13.4 41 41 41
-26.3 -27.5 13.5 41 41 41
-26.0 -27.5 13.5 41 41 41
-24.2 -27.5 13.5 55 55 55
-23.9 -27.6 13.5 77 77 77
-23.7 -27.7 13.6 91 91 91
-23.4 -27.8 13.6 92 95 94
-13.8 -27.6 13.5 102 102 102
-13.5 -27.5 13.4 87 87 87
-13.1 -27.4 13.4 72 71 69
-12.9 -27.5 13.4 67 67 67
-9.8 -23.8 11.7 17 17 17
-9.5 -23.8 11.6 33 35 34
-10.2 -27.1 13.3 186 186 186
-8.7 -23.9 11.7 176 176 176
-6.8 -23.9 11.7 206 206 206
-6.9 -27.5 13.5 207 207 207
-6.6 -27.6 13.5 204 204 204
-2.7 -23.8 11.7 193 193 193
-2.5 -23.8 11.7 190 190 190
-2.2 -23.8 11.7 193 193 193
-1.9 -23.8 11.7 190 190 190
-1.7 -23.8 11.6 190 190 190
1.5 -27.6 13.5 184 184 184
2.1 -27.5 13.4 184 184 184
2.4 -27.2 13.3 184 184 184
4.6 -24.0 11.7 179 179 179
4.9 -23.9 11.7 177 177 177
5.1 -23.7 11.6 173 173 173
8.1 -27.5 13.5 206 206 206
10.0 -27.7 13.5 206 206 206
10.3 -27.6 13.5 209 209 209
10.6 -27.5 13.5 209 209 209
10.9 -27.5 13.5 206 206 206
11.2 -27.4 13.4 206 206 206
11.5 -27.4 13.4 206 206 206
11.9 -27.6 13.5 205 205 205
12.1 -27.5 13.4 205 205 205
12.4 -27.4 13.4 205 205 205
12.7 -27.4 13.4 205 205 205
13.0 -27.4 13.4 205 205 205
13.4 -27.5 13.4 205 205 205
13.8 -27.7 13.5 205 205 205
14.1 -27.6 13.5 205 205 205
14.4 -27.6 13.5 205 205 205
14.6 -27.5 13.4 205 205 205
14.8 -27.3 13.3 205 205 205
38.5 -55.6 27.2 205 205 205
42.8 -57.1 27.9 205 205 205
42.7 -56.2 27.5 205 205 205
43.1 -55.8 27.3 205 205 205
46.2 -58.1 28.4 206 206 206
70.4 -81.6 39.9 204 204 204
27.4 -31.0 15.2 205 205 205
-30.7 -28.4 14.1 47 48 47
-30.2 -28.2 14.0 46 46 46
-32.4 -30.6 15.1 46 46 46
-28.8 -28.1 13.9 46 46 46
-24.6 -28.5 14.1 49 49 49
-23.9 -28.1 13.9 59 59 59
-13.9 -28.1 13.9 28 28 28
-13.3 -27.4 13.6 28 28 28
-13.1 -27.6 13.7 29 30 28
-10.0 -23.5 11.6 30 29 28
-9.8 -23.5 11.6 32 32 32
-9.5 -23.4 11.6 35 35 35
-9.2 -23.5 11.6 115 115 115
-8.9 -23.5 11.6 185 185 185
-8.7 -23.6 11.7 177 180 179
-8.4 -23.5 11.6 184 184 184
-7.6 -23.5 11.6 215 215 215
-7.3 -23.5 11.6 214 214 214
-7.1 -23.6 11.7 211 211 211
-6.8 -23.6 11.7 211 211 211
-6.5 -23.5 11.6 210 210 210
-6.2 -23.4 11.6 210 210 210
-5.4 -23.5 11.6 206 206 206
-5.2 -23.5 11.6 204 204 204
-4.9 -23.5 11.6 203 203 203
-4.6 -23.5 11.6 203 203 203
-4.3 -23.4 11.6 202 202 202
-4.1 -23.5 11.6 200 200 200
-3.8 -23.5 11.6 200 200 200
-3.5 -23.5 11.6 197 197 197
-3.3 -23.5 11.6 197 197 197
-3.0 -23.5 11.6 197 197 197
-2.7 -23.5 11.6 195 195 195
-2.5 -23.5 11.6 195 195 195
-2.2 -23.4 11.6 195 195 195
-1.9 -23.5 11.6 195 195 195
-1.6 -23.4 11.6 197 197 197
-1.4 -23.4 11.6 197 197 197
-1.1 -23.5 11.6 194 194 194
1.6 -23.5 11.6 189 189 189
1.8 -23.4 11.6 185 185 185
2.1 -23.4 11.6 185 185 185
2.4 -23.4 11.6 183 183 183
4.6 -23.7 11.7 179 179 179
4.8 -23.6 11.7 176 176 176
5.1 -23.3 11.5 179 179 179
5.3 -23.3 11.5 202 202 202
7.3 -23.6 11.7 208 208 208
7.5 -23.5 11.6 208 208 208
7.8 -23.5 11.6 208 208 208
8.1 -23.5 11.6 208 208 208
8.3 -23.4 11.6 208 208 208
8.6 -23.4 11.6 205 205 205
8.9 -23.4 11.6 205 205 205
9.1 -23.5 11.6 208 208 208
9.4 -23.5 11.6 208 208 208
9.7 -23.5 11.6 208 208 208
9.9 -23.5 11.6 208 208 208
10.2 -23.4 11.6 208 208 208
10.5 -23.5 11.6 205 205 205
10.8 -23.5 11.6 205 205 205
11.0 -23.4 11.6 205 205 205
11.3 -23.4 11.6 205 205 205
11.6 -23.4 11.6 205 205 205
11.8 -23.4 11.6 205 205 205
12.1 -23.4 11.6 205 205 205
12.9 -23.5 11.6 205 205 205
13.3 -23.6 11.7 205 205 205
13.5 -23.5 11.6 205 205 205
13.6 -23.3 11.5 205 205 205
14.5 -23.5 11.6 208 208 208
14.8 -23.5 11.6 208 208 208
38.7 -55.2 27.3 204 204 204
42.9 -56.6 28.0 204 204 204
43.0 -56.0 27.7 205 205 205
43.4 -55.6 27.5 205 205 205
46.2 -57.5 28.4 205 205 205
46.5 -57.1 28.2 205 205 205
46.7 -56.5 27.9 205 205 205
64.8 -75.3 37.2 203 203 203
70.2 -80.5 39.8 204 204 204
72.2 -81.7 40.4 204 204 204
27.5 -29.2 14.5 205 205 205
28.0 -29.3 14.5 205 205 205
28.1 -29.2 14.4 205 205 205
-33.3 -23.6 11.8 54 54 54
-42.4 -30.3 15.2 54 54 54
-42.0 -30.3 15.2 57 57 57
-41.7 -30.3 15.2 57 57 57
-41.3 -30.3 15.2 57 57 57
-41.0 -30.3 15.2 57 57 57
-40.6 -30.3 15.2 57 57 57
-40.3 -30.3 15.2 57 57 57
-39.9 -30.3 15.2 59 60 58
-39.6 -30.3 15.2 57 57 57
-39.2 -30.3 15.2 57 57 57
-38.9 -30.3 15.2 57 57 57
-38.5 -30.3 15.2 55 55 55
-38.2 -30.3 15.2 55 55 55
-37.8 -30.3 15.2 53 52 52
-37.4 -30.3 15.2 53 52 52
-37.0 -30.3 15.2 53 52 52
-36.7 -30.3 15.2 51 51 49
-34.7 -30.4 15.2 48 48 48
-34.3 -30.4 15.2 48 48 48
-33.9 -30.3 15.2 48 48 48
-33.6 -30.3 15.2 46 46 46
-33.1 -30.2 15.1 48 48 48
-32.5 -30.4 15.2 47 47 47
-32.1 -30.3 15.2 47 47 47
-31.7 -30.3 15.1 44 44 44
-31.5 -30.3 15.2 47 47 47
-31.0 -30.3 15.1 49 49 49
-29.4 -30.4 15.2 41 41 41
-28.9 -30.2 15.1 41 41 41
-28.4 -30.5 15.3 41 41 41
-28.2 -30.6 15.3 41 41 41
-27.8 -30.6 15.3 44 44 44
-27.2 -30.3 15.2 42 42 42
-26.5 -30.0 15.0 42 42 42
-15.9 -30.4 15.2 27 27 27
-15.5 -30.2 15.1 25 25 25
-15.1 -30.2 15.1 27 27 27
-10.1 -23.4 11.7 31 30 29
-9.9 -23.5 11.8 34 36 36
-9.6 -23.5 11.8 34 34 34
-9.3 -23.4 11.7 143 145 144
-9.1 -23.6 11.8 179 182 181
-8.8 -23.6 11.8 186 186 186
-8.0 -23.6 11.8 219 222 221
-7.7 -23.6 11.8 222 222 222
-7.5 -23.6 11.8 218 221 220
-7.2 -23.6 11.8 218 221 220
-6.9 -23.6 11.8 217 220 219
-6.6 -23.6 11.8 215 218 217
-6.4 -23.6 11.8 215 215 215
-5.5 -23.6 11.8 211 211 211
-5.2 -23.6 11.8 209 209 209
-5.0 -23.6 11.8 210 210 210
-4.7 -23.6 11.8 206 206 206
-4.4 -23.5 11.8 205 205 205
-4.1 -23.6 11.8 202 202 202
-3.9 -23.6 11.8 202 202 202
-3.6 -23.6 11.8 202 202 202
-3.3 -23.6 11.8 199 199 199
-3.1 -23.6 11.8 199 199 199
-2.8 -23.6 11.8 199 199 199
-2.5 -23.6 11.8 199 199 199
-2.2 -23.5 11.8 196 196 196
-2.0 -23.6 11.8 196 196 196
-1.7 -23.6 11.8 199 199 199
-1.4 -23.6 11.8 199 199 199
-1.1 -23.5 11.8 196 196 196
-0.9 -23.6 11.8 199 199 199
-0.6 -23.6 11.8 196 196 196
-0.3 -23.6 11.8 196 196 196
-0.0 -23.7 11.8 196 196 196
0.8 -23.7 11.9 193 193 193
1.1 -23.7 11.9 190 190 190
1.3 -23.6 11.8 190 190 190
1.6 -23.5 11.7 188 188 188
1.9 -23.5 11.8 188 188 188
2.4 -23.6 11.8 188 188 188
3.0 -23.6 11.8 184 184 184
4.6 -23.6 11.8 181 181 181
4.9 -23.5 11.8 178 178 178
5.2 -23.5 11.8 178 178 178
7.1 -23.7 11.9 208 208 208
7.4 -23.6 11.8 208 208 208
7.7 -23.6 11.8 208 208 208
8.0 -23.7 11.9 205 205 205
8.7 -23.5 11.7 205 205 205
9.0 -23.5 11.8 205 205 205
9.3 -23.6 11.8 208 208 208
9.6 -23.6 11.8 208 208 208
9.8 -23.6 11.8 208 208 208
10.1 -23.5 11.8 207 207 207
10.4 -23.5 11.8 207 207 207
10.7 -23.6 11.8 204 204 204
10.9 -23.5 11.8 204 204 204
11.2 -23.5 11.8 204 204 204
11.5 -23.5 11.8 204 204 204
11.8 -23.6 11.8 204 204 204
12.0 -23.5 11.8 204 204 204
12.3 -23.6 11.8 204 204 204
12.6 -23.6 11.8 204 204 204
12.9 -23.6 11.8 204 204 204
13.1 -23.6 11.8 204 204 204
13.5 -23.7 11.9 207 207 207
13.6 -23.5 11.8 207 207 207
14.0 -23.6 11.8 204 204 204
14.8 -23.6 11.8 207 207 207
15.1 -23.6 11.8 207 207 207
15.6 -23.6 11.8 204 204 204
38.7 -54.6 27.3 204 204 204
43.4 -55.8 27.9 204 204 204
43.6 -55.2 27.7 204 204 204
47.5 -59.2 29.6 204 204 204
47.1 -58.0 29.0 204 204 204
48.2 -58.4 29.2 205 205 205
65.9 -76.7 38.4 205 205 205
65.6 -75.3 37.7 205 205 205
67.9 -77.0 38.5 203 203 203
71.2 -79.6 39.8 203 203 203
27.5 -28.9 14.5 204 204 204
27.9 -29.0 14.5 204 204 204
28.1 -28.8 14.4 205 205 205
-33.6 -23.6 11.9 55 55 55
-33.6 -23.7 12.0 55 55 55
-33.3 -23.7 12.0 58 58 58
-33.0 -23.7 12.0 58 58 58
-32.8 -23.8 12.0 58 58 58
-32.5 -23.8 12.0 58 58 58
-32.2 -23.8 12.0 58 58 58
-31.9 -23.8 12.0 59 61 59
-31.6 -23.8 12.0 59 61 59
-31.4 -23.8 12.0 58 58 58
-31.1 -23.8 12.0 58 58 58
-30.8 -23.8 12.0 58 58 58
-30.5 -23.8 12.0 58 58 58
-30.2 -23.8 12.0 56 56 56
-30.0 -23.8 12.0 53 53 53
-29.7 -23.8 12.0 53 53 53
-29.4 -23.8 12.0 53 53 53
-29.1 -23.8 12.0 52 52 50
-28.8 -23.8 12.0 48 48 48
-28.6 -23.8 12.0 48 48 48
-28.3 -23.8 12.0 48 48 48
-28.0 -23.7 12.0 49 49 49
-27.7 -23.8 12.0 49 49 49
-27.5 -23.8 12.0 49 49 49
-27.2 -23.8 12.0 49 49 49
-26.9 -23.7 12.0 49 49 49
-26.6 -23.7 12.0 49 49 49
-26.3 -23.7 12.0 49 49 49
-25.9 -23.7 12.0 49 49 49
-25.7 -23.7 12.0 49 49 49
-25.5 -23.8 12.0 47 48 47
-25.2 -23.7 12.0 50 50 50
-24.9 -23.7 12.0 45 45 45
-24.6 -23.7 12.0 45 45 45
-24.4 -23.8 12.0 43 43 43
-24.1 -23.7 12.0 45 45 45
-23.9 -23.8 12.1 46 46 46
-23.6 -23.8 12.1 44 44 44
-23.2 -23.7 12.0 42 42 42
-22.9 -23.7 12.0 42 42 42
-22.7 -23.8 12.0 41 40 38
-22.4 -23.8 12.0 42 42 42
-22.2 -23.8 12.1 41 41 39
-21.9 -23.8 12.1 41 41 39
-21.6 -23.8 12.0 41 41 39
-21.3 -23.7 12.0 41 41 39
-21.0 -23.7 12.0 42 42 40
-20.7 -23.8 12.0 42 42 40
-20.4 -23.7 12.0 43 43 43
-20.2 -23.8 12.0 43 43 43
-19.9 -23.8 12.1 46 46 46
-19.6 -23.8 12.0 44 44 44
-19.3 -23.7 12.0 43 42 41
-19.0 -23.7 12.0 90 90 90
-18.7 -23.7 12.0 68 70 68
-18.4 -23.7 12.0 62 64 61
-18.1 -23.7 12.0 58 59 59
-17.9 -23.7 12.0 32 33 31
-17.7 -23.8 12.0 9 14 10
-17.3 -23.6 12.0 16 16 16
-16.5 -23.7 12.0 21 21 21
-16.3 -23.8 12.1 22 25 23
-14.7 -24.0 12.1 22 25 23
-14.3 -23.7 12.0 22 25 23
-12.5 -24.0 12.1 27 27 27
-12.2 -24.0 12.1 29 29 29
-11.8 -23.8 12.0 29 29 29
-11.5 -23.8 12.0 29 31 29
-10.8 -23.5 11.9 29 31 29
-10.6 -23.7 12.0 31 30 29
-10.3 -23.6 11.9 32 32 32
-10.1 -23.6 12.0 34 34 34
-9.8 -23.6 12.0 42 43 42
-9.5 -23.6 11.9 155 155 155
-9.3 -23.8 12.0 182 182 182
-9.0 -23.7 12.0 186 188 187
-8.4 -23.8 12.1 224 224 224
-8.1 -23.7 12.0 226 226 226
-7.9 -23.9 12.1 226 226 226
-7.6 -23.8 12.0 224 224 224
-7.3 -23.7 12.0 224 224 224
-7.0 -23.7 12.0 224 224 224
-6.7 -23.7 12.0 220 220 220
-6.2 -23.8 12.1 215 218 217
-5.9 -23.8 12.1 215 218 217
-5.6 -23.7 12.0 215 218 217
-5.3 -23.7 12.0 213 215 215
-5.1 -23.8 12.0 212 214 214
-4.8 -23.8 12.0 210 210 210
-4.5 -23.8 12.0 208 208 208
-4.2 -23.8 12.0 207 207 207
-4.0 -23.8 12.0 207 207 207
-3.7 -23.7 12.0 205 205 205
-3.4 -23.8 12.0 203 203 203
-3.1 -23.8 12.0 199 199 199
-2.8 -23.8 12.0 203 203 203
-2.5 -23.7 12.0 199 199 199
-2.3 -23.8 12.0 200 200 200
-2.0 -23.7 12.0 197 197 197
-1.7 -23.7 12.0 197 197 197
-1.4 -23.7 12.0 197 197 197
-0.6 -23.7 12.0 197 197 197
-0.3 -23.7 12.0 197 197 197
0.5 -23.8 12.0 198 198 198
0.8 -23.8 12.0 195 195 195
1.1 -23.8 12.1 192 192 192
1.4 -23.8 12.0 192 192 192
1.6 -23.6 12.0 192 192 192
2.2 -23.8 12.0 189 189 189
2.5 -23.8 12.0 189 189 189
2.8 -23.8 12.1 189 189 189
3.0 -23.7 12.0 186 186 186
4.7 -23.8 12.0 181 181 181
5.0 -23.5 11.9 181 181 181
6.7 -23.7 12.0 207 207 207
7.3 -23.8 12.1 207 207 207
7.5 -23.8 12.0 207 207 207
7.9 -24.2 12.2 207 207 207
8.1 -23.9 12.1 207 207 207
8.3 -23.7 12.0 207 207 207
8.6 -23.6 12.0 207 207 207
8.9 -23.7 12.0 207 207 207
9.2 -23.8 12.0 207 207 207
9.5 -23.8 12.0 207 207 207
9.7 -23.7 12.0 207 207 207
10.0 -23.7 12.0 207 207 207
10.3 -23.7 12.0 207 207 207
10.6 -23.8 12.0 207 207 207
10.9 -23.8 12.0 204 204 204
11.1 -23.7 12.0 204 204 204
11.4 -23.8 12.0 204 204 204
11.7 -23.8 12.0 204 204 204
12.0 -23.7 12.0 204 204 204
12.3 -23.7 12.0 204 204 204
12.6 -23.8 12.0 204 204 204
12.9 -23.8 12.1 204 204 204
13.1 -23.8 12.1 204 204 204
13.4 -23.8 12.0 204 204 204
13.7 -23.8 12.0 207 207 207
13.9 -23.7 12.0 207 207 207
14.8 -23.8 12.0 207 207 207
15.1 -23.8 12.0 207 207 207
15.3 -23.7 12.0 206 206 206
15.6 -23.8 12.0 206 206 206
15.9 -23.8 12.0 206 206 206
16.2 -23.7 12.0 206 206 206
16.5 -23.8 12.0 206 206 206
16.8 -23.8 12.1 203 203 203
38.6 -53.8 27.3 203 203 203
17.6 -23.8 12.0 206 206 206
43.5 -55.2 28.0 203 203 203
43.7 -54.7 27.7 204 204 204
47.0 -58.0 29.4 204 204 204
46.9 -57.0 28.9 204 204 204
47.6 -57.0 28.9 204 204 204
47.3 -55.9 28.3 204 204 204
68.2 -76.4 38.7 205 205 205
70.9 -78.3 39.7 205 205 205
27.5 -28.5 14.5 204 204 204
27.8 -28.5 14.4 204 204 204
28.1 -28.4 14.4 204 204 204
28.2 -28.2 14.3 204 204 204
29.0 -28.7 14.5 204 204 204
-34.6 -24.0 12.3 58 58 58
-34.7 -24.3 12.4 58 58 58
-34.3 -24.2 12.4 58 58 58
-34.1 -24.3 12.4 58 58 58
-33.8 -24.2 12.4 58 59 59
-33.5 -24.2 12.4 60 62 60
-33.2 -24.2 12.4 58 59 59
-32.9 -24.2 12.4 60 62 60
-32.6 -24.2 12.4 60 62 60
-32.3 -24.2 12.4 58 59 59
-32.0 -24.2 12.4 58 59 59
-31.8 -24.2 12.4 58 59 59
-31.5 -24.2 12.4 58 59 59
-31.2 -24.3 12.4 56 56 56
-30.9 -24.3 12.4 52 52 50
-30.7 -24.3 12.4 54 54 54
-30.4 -24.3 12.4 54 54 54
-30.1 -24.3 12.4 53 52 51
-29.8 -24.3 12.4 53 52 51
-29.5 -24.3 12.4 49 49 49
-29.2 -24.2 12.4 49 49 49
-28.9 -24.3 12.4 49 49 49
-28.6 -24.3 12.4 50 50 50
-28.3 -24.2 12.4 50 50 50
-28.0 -24.2 12.4 50 50 50
-27.7 -24.2 12.4 50 50 50
-27.4 -24.2 12.4 50 50 50
-27.2 -24.2 12.4 50 50 50
-26.9 -24.3 12.4 50 50 50
-26.6 -24.2 12.4 50 50 50
-26.2 -24.2 12.4 48 48 48
-26.0 -24.2 12.4 46 46 46
-25.7 -24.2 12.4 46 46 46
-25.4 -24.2 12.4 49 49 49
-25.2 -24.2 12.4 46 46 46
-24.9 -24.3 12.4 49 49 49
-24.6 -24.3 12.4 47 47 47
-24.3 -24.2 12.4 47 47 47
-23.7 -24.3 12.4 42 43 42
-23.4 -24.3 12.4 42 43 42
-23.2 -24.3 12.4 43 43 43
-22.8 -24.2 12.4 43 43 43
-22.5 -24.2 12.4 43 43 43
-22.1 -24.1 12.3 42 42 40
-22.0 -24.2 12.4 40 40 40
-21.7 -24.2 12.4 38 40 40
-21.4 -24.3 12.4 40 40 40
-21.1 -24.2 12.4 41 41 41
-20.8 -24.3 12.4 41 41 41
-20.5 -24.2 12.4 41 41 41
-20.0 -24.0 12.3 41 41 41
-19.6 -23.8 12.2 40 42 42
-19.7 -24.3 12.4 32 33 31
-18.1 -24.1 12.3 21 21 21
-17.4 -24.3 12.4 20 20 20
-16.9 -24.1 12.3 22 22 22
-15.1 -24.3 12.4 22 25 23
-12.8 -24.3 12.5 30 29 29
-12.5 -24.3 12.5 29 29 29
-12.2 -24.3 12.4 30 31 30
-11.6 -24.2 12.4 30 31 30
-11.3 -24.2 12.4 29 31 29
-10.9 -24.0 12.3 29 31 29
-10.5 -23.8 12.2 31 30 29
-10.2 -23.8 12.2 36 37 36
-9.6 -24.4 12.5 184 184 184
-9.3 -24.3 12.4 186 188 187
-7.0 -24.3 12.4 224 226 226
-6.4 -24.3 12.4 221 221 221
-6.1 -24.2 12.4 220 220 220
-5.8 -24.3 12.4 218 218 218
-5.5 -24.3 12.4 217 217 217
-5.2 -24.3 12.4 213 215 215
-4.9 -24.3 12.4 213 215 215
-4.7 -24.3 12.4 209 212 211
-4.4 -24.3 12.4 209 212 211
-4.1 -24.2 12.4 209 212 211
-3.8 -24.3 12.4 208 208 208
-3.5 -24.3 12.4 209 212 211
-3.2 -24.3 12.4 208 208 208
-2.9 -24.2 12.4 206 206 206
-2.3 -24.2 12.4 204 204 204
-2.1 -24.2 12.4 202 202 202
1.1 -24.3 12.5 197 197 197
1.4 -24.2 12.4 197 197 197
1.7 -24.3 12.4 194 194 194
2.9 -24.3 12.4 191 191 191
4.6 -24.3 12.5 183 183 183
7.2 -24.3 12.4 207 207 207
7.4 -24.1 12.4 207 207 207
7.8 -24.3 12.4 207 207 207
8.0 -24.2 12.4 207 207 207
8.3 -24.1 12.3 207 207 207
8.6 -24.2 12.4 207 207 207
9.2 -24.2 12.4 207 207 207
9.5 -24.3 12.4 207 207 207
9.8 -24.3 12.4 207 207 207
10.1 -24.2 12.4 207 207 207
10.3 -24.2 12.4 206 206 206
10.6 -24.2 12.4 206 206 206
10.9 -24.2 12.4 206 206 206
11.2 -24.2 12.4 203 203 203
11.5 -24.2 12.4 206 206 206
11.7 -24.1 12.4 203 203 203
12.0 -24.1 12.3 203 203 203
12.3 -24.1 12.4 203 203 203
12.6 -24.2 12.4 203 203 203
13.0 -24.3 12.4 203 203 203
13.3 -24.3 12.4 203 203 203
13.5 -24.2 12.4 203 203 203
13.8 -24.3 12.4 203 203 203
14.1 -24.2 12.4 206 206 206
14.2 -23.8 12.2 206 206 206
15.5 -24.2 12.4 206 206 206
15.8 -24.2 12.4 206 206 206
16.2 -24.3 12.4 206 206 206
16.4 -24.3 12.4 206 206 206
16.7 -24.3 12.4 206 206 206
17.0 -24.2 12.4 206 206 206
17.3 -24.2 12.4 206 206 206
18.2 -24.3 12.4 206 206 206
43.3 -53.6 27.5 203 203 203
47.0 -57.3 29.4 203 203 203
47.0 -56.4 28.9 199 199 199
47.9 -56.7 29.1 203 203 203
47.2 -55.2 28.3 204 204 204
47.6 -54.8 28.1 204 204 204
69.1 -76.4 39.2 204 204 204
71.2 -77.7 39.8 205 205 205
28.2 -28.2 14.5 203 203 203
28.5 -28.2 14.5 204 204 204
29.3 -28.6 14.7 204 204 204
-35.1 -24.0 12.5 58 59 59
-34.8 -24.0 12.5 58 59 59
-34.5 -24.0 12.5 58 59 59
-34.2 -24.0 12.5 58 59 59
-33.9 -24.0 12.5 60 62 60
-33.6 -24.0 12.5 58 59 59
-33.3 -24.0 12.5 57 57 57
-33.1 -24.0 12.5 61 63 61
-32.8 -24.0 12.5 61 63 61
-32.5 -24.0 12.5 61 63 61
-32.2 -24.0 12.5 59 59 59
-31.9 -24.0 12.5 54 54 54
-31.6 -24.0 12.5 57 57 57
-31.3 -24.0 12.5 57 57 57
-31.0 -24.0 12.5 54 54 54
-30.7 -24.0 12.5 55 55 55
-30.4 -24.0 12.5 55 55 55
-30.2 -24.0 12.5 54 53 52
-29.9 -24.0 12.5 54 53 52
-29.6 -24.0 12.5 50 50 50
-29.3 -24.0 12.4 50 50 50
-29.0 -24.0 12.5 50 50 50
-28.7 -24.0 12.5 51 51 51
-28.4 -24.0 12.5 51 51 51
-28.1 -24.0 12.5 51 51 51
-27.8 -24.0 12.5 51 51 51
-27.6 -24.0 12.5 51 51 51
-27.3 -24.0 12.5 51 51 51
-27.0 -24.0 12.5 51 51 51
-26.7 -24.0 12.5 51 51 51
-26.4 -24.0 12.4 49 49 49
-26.1 -24.0 12.4 49 49 49
-25.8 -24.0 12.5 50 50 50
-25.5 -24.0 12.5 50 50 50
-25.2 -24.0 12.4 47 48 47
-25.0 -24.1 12.5 47 48 47
-24.7 -24.1 12.5 47 48 47
-24.4 -24.0 12.5 47 48 47
-24.0 -24.0 12.4 46 46 46
-23.8 -24.0 12.5 42 42 40
-23.5 -24.0 12.5 42 42 40
-23.2 -24.0 12.5 43 42 41
-22.9 -24.1 12.5 44 44 44
-22.6 -24.0 12.4 43 42 41
-22.3 -24.0 12.4 43 42 41
-22.0 -24.0 12.4 41 41 41
-21.7 -24.0 12.5 41 41 41
-21.5 -24.0 12.5 41 41 41
-21.2 -24.0 12.4 42 42 42
-20.9 -24.1 12.5 40 42 42
-20.6 -24.0 12.5 40 42 42
-20.2 -23.9 12.4 41 43 42
-19.9 -23.9 12.4 38 38 38
-19.7 -24.0 12.5 28 28 28
-19.4 -24.0 12.4 21 21 21
-19.1 -24.0 12.4 18 18 18
-18.9 -24.0 12.5 11 16 13
-18.5 -24.0 12.4 16 16 16
-18.2 -23.9 12.4 18 18 18
-17.9 -23.9 12.4 18 18 18
-17.4 -24.0 12.5 18 18 18
-17.1 -23.9 12.4 20 20 20
-15.4 -24.1 12.5 24 27 25
-15.1 -24.0 12.4 24 27 25
-14.8 -24.0 12.4 27 27 27
-14.5 -24.0 12.5 30 29 29
-12.9 -24.2 12.5 28 28 28
-12.5 -24.1 12.5 30 29 29
-12.2 -24.1 12.5 30 29 29
-12.0 -24.2 12.5 29 29 29
-11.6 -24.0 12.4 30 31 30
-11.3 -24.0 12.4 30 31 30
-11.0 -23.9 12.4 28 28 28
-10.7 -23.9 12.4 29 31 29
-10.4 -23.9 12.4 34 34 34
-10.1 -23.9 12.4 45 45 45
-9.9 -24.0 12.4 166 169 168
-9.6 -24.1 12.5 186 188 187
-9.3 -24.1 12.5 184 187 186
-9.0 -24.0 12.4 189 189 189
-7.6 -24.0 12.4 225 227 227
-7.3 -24.0 12.4 225 227 227
-7.0 -24.0 12.5 225 227 227
-6.7 -24.0 12.5 223 225 225
-6.4 -24.0 12.5 225 227 227
-6.1 -24.0 12.5 222 222 222
-5.8 -24.0 12.5 222 222 222
-5.5 -24.1 12.5 220 220 220
-5.3 -24.0 12.5 219 219 219
-5.0 -24.0 12.5 218 218 218
-4.7 -24.0 12.5 216 216 216
-4.4 -24.0 12.5 210 213 212
-4.1 -24.0 12.4 210 213 212
-3.8 -24.0 12.5 210 213 212
-3.5 -24.0 12.5 210 213 212
-3.2 -24.0 12.5 210 213 212
-2.9 -24.0 12.4 208 211 210
-2.6 -24.0 12.4 207 207 207
-2.3 -24.0 12.4 207 207 207
-2.1 -24.0 12.4 205 205 205
1.1 -24.1 12.5 196 196 196
1.4 -24.0 12.4 196 196 196
1.7 -24.0 12.5 196 196 196
2.0 -24.1 12.5 196 196 196
2.6 -24.2 12.5 193 193 193
2.9 -24.0 12.5 190 190 190
4.6 -24.1 12.5 182 182 182
7.0 -24.2 12.6 206 206 206
7.2 -24.1 12.5 206 206 206
7.5 -24.0 12.4 206 206 206
7.8 -24.1 12.5 206 206 206
8.1 -24.0 12.4 206 206 206
8.3 -23.9 12.4 206 206 206
8.6 -24.0 12.4 206 206 206
8.9 -24.0 12.5 206 206 206
9.2 -24.0 12.5 206 206 206
9.5 -24.1 12.5 206 206 206
9.8 -24.0 12.5 206 206 206
10.1 -24.0 12.5 206 206 206
10.4 -24.0 12.5 206 206 206
10.7 -24.0 12.5 206 206 206
11.0 -24.0 12.5 206 206 206
11.2 -24.0 12.4 206 206 206
11.5 -24.0 12.4 206 206 206
11.8 -24.0 12.4 203 203 203
12.1 -24.0 12.4 206 206 206
12.4 -24.0 12.5 206 206 206
12.7 -24.0 12.5 206 206 206
13.0 -24.1 12.5 206 206 206
13.3 -24.0 12.5 207 207 207
13.6 -24.0 12.5 207 207 207
13.9 -24.1 12.5 206 206 206
14.1 -24.0 12.4 206 206 206
14.4 -23.9 12.4 206 206 206
15.9 -24.0 12.5 205 205 205
16.2 -24.0 12.5 205 205 205
16.5 -24.0 12.5 205 205 205
16.8 -24.0 12.5 205 205 205
17.1 -24.0 12.5 205 205 205
17.4 -24.0 12.5 205 205 205
17.9 -24.1 12.5 205 205 205
18.2 -24.0 12.4 205 205 205
43.8 -54.3 28.1 205 205 205
44.3 -54.2 28.1 205 205 205
47.2 -56.9 29.5 206 206 206
47.3 -56.1 29.1 203 203 203
48.2 -56.5 29.3 206 206 206
48.2 -55.6 28.8 206 206 206
47.7 -54.3 28.1 206 206 206
46.7 -52.5 27.2 203 203 203
72.4 -78.1 40.5 204 204 204
28.2 -27.9 14.5 205 205 205
28.5 -27.9 14.5 203 203 203
-35.0 -23.7 12.4 59 59 59
-34.8 -23.8 12.5 59 59 59
-34.5 -23.8 12.5 61 63 61
-34.3 -23.8 12.5 61 63 61
-34.0 -23.8 12.5 59 59 59
-33.7 -23.8 12.5 61 63 61
-33.4 -23.8 12.5 59 59 59
-33.1 -23.8 12.5 61 63 61
-32.8 -23.8 12.5 62 64 61
-32.5 -23.8 12.5 62 64 61
-32.2 -23.8 12.5 60 60 60
-31.9 -23.8 12.5 60 60 60
-31.6 -23.8 12.5 60 60 60
-31.4 -23.8 12.5 58 58 58
-31.1 -23.8 12.5 55 55 55
-30.8 -23.8 12.5 55 55 55
-30.5 -23.8 12.5 54 53 52
-30.2 -23.8 12.5 55 54 53
-29.9 -23.8 12.5 51 51 51
-29.6 -23.8 12.5 51 51 51
-29.3 -23.7 12.5 51 51 51
-29.1 -23.8 12.5 51 51 51
-28.8 -23.8 12.5 52 52 52
-28.5 -23.8 12.5 52 52 52
-28.2 -23.8 12.5 52 52 52
-27.9 -23.8 12.5 52 52 52
-27.6 -23.8 12.5 52 52 52
-27.3 -23.8 12.5 52 52 52
-27.0 -23.8 12.5 52 52 52
-26.7 -23.8 12.5 52 52 52
-26.4 -23.7 12.5 50 50 50
-26.1 -23.7 12.5 47 48 47
-25.8 -23.8 12.5 51 51 51
-25.6 -23.8 12.5 51 51 51
-25.1 -23.8 12.5 51 51 51
-24.8 -23.8 12.5 51 51 51
-24.4 -23.8 12.5 52 52 52
-24.1 -23.7 12.5 49 49 49
-23.8 -23.8 12.5 44 44 44
-23.5 -23.8 12.5 44 43 42
-23.3 -23.8 12.5 44 43 42
-23.0 -23.8 12.5 44 43 42
-22.6 -23.7 12.4 45 45 45
-22.3 -23.7 12.4 45 44 43
-22.0 -23.7 12.5 42 42 42
-21.8 -23.8 12.5 42 42 42
-21.5 -23.8 12.5 45 44 43
-21.2 -23.8 12.5 41 43 42
-21.0 -23.9 12.5 41 43 42
-20.7 -23.8 12.5 41 43 42
-19.9 -23.5 12.4 38 38 38
-12.9 -23.9 12.6 32 33 31
-12.6 -23.9 12.5 32 33 31
-12.3 -23.9 12.6 30 29 29
-12.0 -24.0 12.6 30 29 29
-11.6 -23.7 12.4 33 33 31
-11.0 -23.7 12.4 27 27 27
-10.7 -23.7 12.4 32 31 30
-10.4 -23.6 12.4 34 34 34
-10.1 -23.6 12.4 42 42 42
-9.9 -23.7 12.4 176 176 176
-9.7 -23.9 12.5 183 183 183
-9.3 -23.8 12.5 183 186 185
-9.0 -23.7 12.4 188 188 188
-7.0 -23.7 12.5 229 228 226
-6.7 -23.8 12.5 229 228 226
7.2 -23.8 12.5 206 206 206
7.5 -23.7 12.4 206 206 206
7.8 -23.8 12.5 206 206 206
8.1 -23.7 12.4 206 206 206
8.3 -23.6 12.4 206 206 206
9.2 -23.7 12.4 206 206 206
9.5 -23.8 12.5 206 206 206
9.8 -23.8 12.5 206 206 206
10.1 -23.8 12.5 205 205 205
10.7 -23.8 12.5 205 205 205
11.0 -23.8 12.5 205 205 205
11.3 -23.7 12.5 205 205 205
11.5 -23.7 12.4 205 205 205
11.8 -23.7 12.4 205 205 205
12.4 -23.7 12.4 205 205 205
13.0 -23.8 12.5 205 205 205
13.3 -23.8 12.5 205 205 205
13.9 -23.8 12.5 205 205 205
14.1 -23.7 12.4 205 205 205
16.2 -23.7 12.5 205 205 205
16.8 -23.7 12.5 205 205 205
17.1 -23.8 12.5 205 205 205
17.4 -23.8 12.5 205 205 205
18.0 -23.8 12.5 205 205 205
18.2 -23.7 12.4 205 205 205
45.1 -54.5 28.6 205 205 205
47.5 -56.5 29.6 205 205 205
47.6 -55.8 29.3 205 205 205
48.5 -56.1 29.5 205 205 205
49.0 -55.9 29.3 205 205 205
48.0 -53.9 28.3 206 206 206
47.0 -52.1 27.4 206 206 206
72.4 -77.2 40.5 203 203 203
28.4 -27.8 14.6 207 207 207
28.9 -27.9 14.6 205 205 205
-28.7 -23.7 12.6 53 52 52
-28.4 -23.7 12.6 53 52 52
-26.7 -23.7 12.6 53 53 53
-25.1 -23.9 12.7 53 52 52
-24.7 -23.8 12.7 53 52 52
-13.0 -23.9 12.7 36 36 36
-12.3 -24.2 12.8 35 35 35
-11.2 -23.7 12.6 55 55 55
-10.9 -23.7 12.6 63 63 63
-10.6 -23.7 12.6 36 37 36
-10.2 -23.5 12.5 46 46 46
-9.8 -23.9 12.7 184 187 186
-9.4 -23.7 12.6 184 187 186
8.1 -23.5 12.5 205 205 205
45.2 -53.9 28.7 204 204 204
47.4 -55.7 29.6 204 204 204
47.3 -54.8 29.1 205 205 205
48.5 -55.4 29.5 205 205 205
49.0 -55.2 29.3 205 205 205
48.0 -53.4 28.4 205 205 205
47.1 -51.6 27.4 205 205 205
72.1 -75.9 40.3 203 203 203
28.6 -27.6 14.7 204 204 204
29.1 -27.8 14.8 204 204 204
29.5 -27.8 14.8 204 204 204
-11.0 -23.6 12.7 83 83 83
-10.7 -23.6 12.7 27 27 27
-10.4 -23.6 12.7 47 47 47
-10.3 -24.0 12.9 182 182 182
-9.9 -23.8 12.8 183 186 185
-9.5 -23.6 12.7 181 184 183
42.7 -51.8 27.9 203 203 203
42.9 -51.2 27.6 203 203 203
44.1 -52.0 28.0 204 204 204
47.3 -54.9 29.6 204 204 204
46.9 -53.7 28.9 204 204 204
48.3 -54.5 29.3 204 204 204
47.6 -52.2 28.1 204 204 204
46.9 -50.7 27.3 205 205 205
47.6 -50.9 27.4 205 205 205
48.3 -50.9 27.4 205 205 205
73.2 -75.1 40.4 205 205 205
29.7 -27.7 14.9 204 204 204
30.6 -28.2 15.2 204 204 204
-13.0 -24.3 13.2 22 22 22
-12.6 -24.2 13.2 37 38 37
-10.3 -23.9 13.0 184 184 184
-10.0 -23.8 13.0 182 185 184
-9.6 -23.6 12.8 182 185 184
46.6 -52.7 28.7 203 203 203
47.5 -51.4 28.0 204 204 204
46.6 -49.8 27.1 204 204 204
47.4 -49.9 27.2 204 204 204
47.8 -49.7 27.1 204 204 204
29.5 -27.1 14.8 203 203 203
30.6 -27.8 15.1 203 203 203
-13.0 -24.0 13.3 22 25 23
-12.6 -23.9 13.2 136 136 136
-10.4 -23.8 13.1 183 186 185
-10.0 -23.6 13.0 181 184 183
47.6 -50.9 28.1 203 203 203
47.0 -49.6 27.4 203 203 203
48.4 -50.4 27.8 204 204 204
48.2 -49.5 27.3 204 204 204
29.5 -26.8 14.8 202 202 202
30.2 -27.1 15.0 202 202 202
-13.1 -23.8 13.3 39 39 39
-12.7 -23.8 13.3 131 131 131
-10.5 -23.6 13.2 182 185 184
-10.1 -23.5 13.1 181 184 183
48.4 -52.5 29.4 208 208 208
47.7 -50.3 28.1 203 203 203
47.4 -49.4 27.6 203 203 203
48.8 -50.2 28.1 203 203 203
48.6 -49.3 27.6 203 203 203
29.5 -26.5 14.8 205 205 205
-13.2 -23.7 13.4 33 35 33
-10.6 -23.5 13.3 181 181 181
-10.2 -23.4 13.3 180 183 182
48.5 -51.9 29.4 204 204 204
47.8 -49.8 28.2 205 205 205
48.0 -49.3 27.9 205 205 205
49.4 -50.1 28.4 205 205 205
49.2 -49.3 27.9 205 205 205
-13.4 -23.9 13.7 42 42 42
47.8 -49.2 28.2 204 204 204
47.9 -48.6 27.9 204 204 204
49.7 -49.8 28.6 204 204 204
49.1 -48.5 27.9 205 205 205
77.8 -83.6 48.6 203 203 203
79.5 -82.9 48.3 207 207 207
42.9 -46.8 27.6 206 206 206
43.4 -46.6 27.5 206 206 206
77.8 -82.4 48.6 206 206 206
80.2 -83.7 49.4 206 206 206
80.9 -83.3 49.1 206 206 206
-11.1 -24.9 14.9 180 183 182
-10.9 -25.1 15.0 178 178 178
-10.5 -25.0 14.9 175 175 175
78.9 -82.4 49.3 206 206 206
36.5 -31.4 18.7 208 208 208
37.0 -31.4 18.7 205 205 205
37.4 -31.4 18.7 205 205 205
-11.5 -24.7 15.0 183 186 185
-11.1 -24.6 14.9 181 184 183
-10.8 -24.7 15.0 176 176 176
-10.4 -24.6 14.9 157 160 159
95.4 -92.8 56.3 208 211 210
37.6 -31.4 19.1 208 208 208
-11.8 -24.9 15.3 184 187 186
-11.3 -24.6 15.1 183 183 183
-10.9 -24.6 15.1 178 178 178
-10.5 -24.4 15.0 156 159 158
97.2 -94.6 58.2 207 210 209
94.8 -91.0 56.0 207 210 209
96.7 -91.5 56.3 208 211 210
38.1 -31.4 19.3 207 207 207
38.0 -30.9 19.0 208 208 208
-11.5 -24.6 15.4 184 187 186
-11.0 -24.4 15.2 179 179 179
-10.6 -24.3 15.2 158 161 160
-10.4 -24.6 15.4 156 159 158
-10.1 -24.9 15.5 155 155 155
98.1 -94.1 58.7 207 210 209
95.9 -90.8 56.6 207 210 209
97.2 -90.8 56.6 207 210 209
38.2 -31.1 19.4 207 207 207
38.2 -30.7 19.1 207 207 207
38.4 -29.1 18.2 185 185 185
38.8 -29.1 18.2 189 189 189
66.8 -28.8 18.0 145 145 144
65.3 -28.0 17.5 138 140 139
-11.6 -24.6 15.6 186 188 187
-11.2 -24.5 15.5 181 181 181
-10.9 -24.5 15.5 167 167 167
-10.5 -24.5 15.5 163 163 163
-10.3 -24.8 15.7 156 159 158
101.5 -97.3 61.6 206 209 208
100.0 -94.5 59.9 207 210 209
97.7 -91.1 57.7 207 210 209
99.3 -91.4 57.8 207 210 209
38.6 -28.9 18.3 185 185 185
39.1 -28.9 18.3 189 189 189
40.2 -29.4 18.6 189 189 189
40.8 -29.5 18.7 189 189 189
40.8 -29.2 18.5 189 189 189
66.9 -28.4 18.0 145 145 144
64.8 -27.4 17.3 140 142 141
94.8 -87.1 56.0 206 209 208
95.5 -86.6 55.6 207 210 209
38.6 -28.5 18.3 186 186 186
39.4 -28.7 18.4 189 189 189
40.3 -29.1 18.7 189 189 189
40.9 -29.1 18.7 189 189 189
58.2 -24.8 15.9 170 172 172
62.5 -25.8 16.6 136 136 136
-12.3 -26.9 17.5 174 174 174
-12.2 -27.6 18.0 169 169 169
200.3 -181.2 118.2 206 209 208
302.3 -237.7 155.1 208 211 210
38.7 -28.1 18.3 186 186 186
39.4 -28.3 18.5 186 186 186
40.4 -28.7 18.7 189 189 189
40.9 -28.8 18.8 190 190 190
81.7 -35.9 23.4 185 185 185
60.3 -25.5 16.6 178 178 178
58.9 -24.7 16.1 171 173 173
64.4 -26.4 17.2 143 143 142
-13.0 -27.1 17.9 177 180 179
-12.7 -27.4 18.1 175 175 175
-12.4 -27.8 18.4 172 172 172
552.1 -432.7 286.6 208 211 210
326.3 -252.7 167.4 208 211 210
39.4 -27.9 18.5 190 190 190
59.1 -41.3 27.4 190 190 190
81.4 -35.3 23.4 186 186 186
80.2 -34.5 22.9 186 186 186
60.9 -25.4 16.8 174 176 176
64.4 -26.0 17.2 143 143 142
62.9 -25.2 16.7 134 137 136
-12.9 -27.5 18.5 177 180 179
-12.6 -27.8 18.7 173 173 173
257.8 -223.1 150.1 206 209 208
88.2 -73.4 49.4 204 204 204
87.3 -71.7 48.3 207 210 209
750.0 -585.7 394.1 208 211 210
569.3 -439.3 295.6 208 211 210
341.5 -260.3 175.2 208 211 210
81.8 -34.9 23.5 188 188 188
80.4 -34.1 22.9 185 185 185
59.7 -24.3 16.4 167 167 167
59.7 -24.2 16.3 159 159 159
60.1 -24.2 16.3 155 155 155
62.1 -24.5 16.5 137 139 138
-13.0 -27.2 18.6 176 176 176
-12.6 -27.3 18.7 175 175 175
93.8 -78.8 53.9 208 211 210
87.8 -71.9 49.1 206 209 208
86.9 -70.2 48.0 206 209 208
90.8 -72.4 49.5 207 210 209
91.5 -72.1 49.3 207 210 209
720.0 -553.5 378.3 207 210 209
578.4 -439.3 300.3 208 211 210
731.7 -542.7 370.9 208 211 210
580.9 -425.8 291.0 208 211 210
80.9 -33.8 23.1 186 186 186
79.2 -32.8 22.4 186 186 186
60.0 -23.9 16.4 159 159 159
60.1 -23.8 16.3 155 155 155
61.0 -24.0 16.4 149 151 151
62.6 -24.3 16.6 138 140 139
-48.1 -28.0 19.5 148 148 148
-47.6 -28.0 19.5 179 182 181
-47.1 -28.0 19.5 178 181 180
-45.8 -27.5 19.1 126 126 126
-45.4 -27.5 19.1 78 80 78
-45.7 -28.0 19.5 74 74 74
-13.2 -27.1 18.8 170 172 172
-12.7 -27.1 18.8 174 174 174
433.2 -358.4 248.9 208 211 210
695.0 -567.4 394.1 208 211 210
88.2 -71.1 49.4 208 211 210
88.0 -70.0 48.6 208 211 210
94.2 -74.0 51.4 209 212 211
92.4 -71.7 49.8 209 212 211
674.8 -504.4 350.3 209 212 211
547.2 -394.7 274.1 210 213 212
65.0 -43.9 30.5 190 190 190
63.7 -42.5 29.5 192 192 192
81.3 -33.4 23.2 188 188 188
79.0 -32.2 22.4 191 191 191
77.8 -31.5 21.9 188 188 188
60.8 -23.8 16.6 161 161 161
60.7 -23.7 16.4 155 155 155
61.2 -23.7 16.5 151 153 153
64.9 -25.0 17.4 145 145 144
64.7 -24.8 17.2 140 142 141
-52.1 -28.3 20.0 26 26 26
-51.1 -28.3 20.0 68 68 68
-50.6 -28.2 19.9 161 161 161
-50.1 -28.3 20.0 186 188 187
-49.7 -28.3 20.0 176 175 173
-49.2 -28.3 20.0 154 154 154
-48.8 -28.3 20.0 183 183 183
-48.3 -28.3 20.0 171 173 173
-47.8 -28.3 20.0 164 164 164
-47.4 -28.3 20.0 140 140 140
-46.9 -28.3 20.0 148 148 148
-46.0 -28.0 19.8 68 68 68
-45.6 -28.0 19.8 80 82 79
-41.8 -28.3 20.0 69 69 69
-41.5 -28.4 20.0 80 82 79
-41.0 -28.4 20.0 70 72 69
-40.4 -28.3 20.0 69 69 69
-39.9 -28.3 20.0 56 56 56
-39.5 -28.3 20.0 41 41 41
-39.0 -28.3 20.0 118 120 119
-38.6 -28.3 20.0 165 165 165
-37.8 -28.4 20.0 167 167 167
-37.3 -28.4 20.0 126 126 126
-36.8 -28.4 20.0 77 77 77
-29.4 -28.4 20.0 19 23 20
-28.8 -28.2 19.9 19 23 20
-28.3 -28.2 19.9 113 114 113
-27.9 -28.2 19.9 28 28 28
-27.5 -28.3 20.0 97 97 97
-27.0 -28.3 20.0 26 26 26
-26.5 -28.3 20.0 26 26 26
-26.0 -28.3 20.0 115 114 114
-25.6 -28.3 20.0 149 151 151
-25.1 -28.2 19.9 66 66 66
-13.4 -27.1 19.2 169 169 169
-12.9 -27.1 19.1 162 162 162
-13.1 -28.4 20.0 124 126 125
-12.7 -28.4 20.1 48 48 48
416.4 -343.5 242.5 207 210 209
401.5 -326.8 230.7 207 210 209
476.6 -382.8 270.2 208 211 210
88.2 -70.0 49.4 208 211 210
87.8 -68.7 48.5 208 211 210
65.7 -43.6 30.8 192 192 192
65.4 -42.9 30.3 195 195 195
80.1 -32.4 22.8 189 189 189
79.1 -31.7 22.4 189 189 189
78.9 -31.5 22.2 189 189 189
61.8 -23.9 16.8 160 160 160
61.4 -23.6 16.6 153 155 155
61.8 -23.5 16.6 149 149 149
64.7 -24.5 17.3 142 144 143
65.1 -24.5 17.3 137 137 137
-13.5 -28.7 20.6 171 173 173
-13.1 -28.9 20.7 115 115 115
296.6 -237.4 170.4 207 210 209
65.7 -42.9 30.8 195 195 195
65.4 -42.2 30.3 195 195 195
70.3 -44.9 32.2 195 195 195
79.0 -31.6 22.7 194 197 196
79.6 -31.6 22.7 194 197 196
79.2 -31.3 22.4 190 190 190
79.4 -31.1 22.3 190 190 190
79.9 -31.1 22.3 188 188 188
62.1 -23.4 16.8 154 154 154
62.6 -23.5 16.8 144 146 146
64.2 -23.9 17.2 141 141 141
64.9 -24.0 17.2 134 134 134
-14.8 -30.0 21.9 183 183 183
-14.0 -29.3 21.4 180 180 180
283.8 -223.4 163.1 207 210 209
281.5 -197.8 144.4 209 212 211
65.8 -42.2 30.8 195 195 195
74.1 -47.0 34.3 195 195 195
71.4 -44.8 32.7 195 195 195
79.6 -31.3 22.8 194 194 194
79.5 -31.1 22.7 194 194 194
79.3 -30.8 22.5 191 191 191
79.5 -30.7 22.4 189 189 189
80.1 -30.7 22.4 189 189 189
63.4 -23.4 17.1 137 139 138
64.5 -23.6 17.3 131 134 133
65.1 -23.7 17.3 132 135 134
68.9 -24.9 18.2 131 131 131
-9.3 -13.8 10.2 136 136 136
382.8 -296.2 220.0 207 210 209
427.7 -326.6 242.5 207 210 209
456.8 -344.3 255.6 207 210 209
66.2 -41.8 31.0 195 195 195
80.3 -31.0 23.0 192 192 192
79.3 -30.4 22.6 195 195 195
79.1 -30.2 22.4 195 195 195
79.8 -30.3 22.5 186 186 186
80.4 -30.3 22.5 186 186 186
79.7 -29.8 22.2 174 174 174
65.2 -23.5 17.4 134 134 134
65.5 -23.5 17.4 134 134 134
69.5 -24.7 18.4 132 132 132
69.3 -24.5 18.2 130 130 130
-9.3 -13.6 10.3 119 121 120
-16.6 -33.7 25.5 173 175 175
-16.2 -34.0 25.7 140 142 141
80.7 -30.6 23.2 183 186 185
79.5 -30.0 22.7 181 184 183
78.7 -29.5 22.3 183 186 185
80.4 -29.9 22.6 181 184 183
80.7 -29.9 22.6 179 179 179
79.7 -29.3 22.2 166 166 166
79.0 -28.9 21.8 163 163 163
66.8 -23.6 17.9 134 134 134
67.7 -23.8 18.0 134 134 134
69.8 -24.4 18.4 132 132 132
70.2 -24.4 18.4 132 132 132
-16.0 -13.5 10.4 29 31 29
-9.8 -13.6 10.5 125 125 125
-9.4 -13.5 10.4 119 121 120
-17.2 -34.2 26.3 88 88 88
81.5 -30.4 23.4 180 180 180
79.8 -29.6 22.8 180 180 180
78.7 -29.0 22.3 173 175 175
80.5 -29.5 22.7 166 166 166
81.1 -29.5 22.7 153 155 155
80.4 -29.0 22.3 151 151 151
68.0 -23.7 18.2 133 133 133
68.9 -23.8 18.3 129 132 131
69.8 -24.0 18.4 129 132 131
70.4 -24.0 18.5 129 132 131
-16.0 -13.3 10.4 25 25 25
-16.0 -14.3 11.2 25 25 25
-11.8 -13.5 10.6 48 48 48
-9.8 -13.4 10.5 66 67 65
-9.4 -13.2 10.3 101 103 103
-18.9 -34.4 26.9 185 185 185
-18.1 -34.2 26.8 136 138 137
-17.5 -34.1 26.7 91 93 92
-17.2 -34.8 27.2 89 89 89
-16.5 -34.7 27.2 57 59 59
-15.8 -34.6 27.1 116 118 117
82.0 -30.0 23.5 181 181 181
81.0 -29.5 23.1 182 182 182
80.4 -28.9 22.6 161 161 161
81.4 -29.1 22.8 141 143 142
90.7 -32.0 25.0 128 131 130
69.2 -23.6 18.5 129 129 129
69.6 -23.6 18.5 129 129 129
70.1 -23.6 18.5 129 129 129
70.6 -23.7 18.5 128 128 128
-24.8 -13.3 10.6 34 34 34
-24.6 -13.2 10.6 25 25 25
-24.3 -13.2 10.6 20 23 21
-23.8 -13.2 10.5 157 157 157
-23.6 -13.2 10.6 174 174 174
-23.3 -13.2 10.6 183 186 185
-23.1 -13.2 10.6 161 161 161
-22.8 -13.2 10.6 147 149 149
-16.5 -13.2 10.5 86 88 88
-16.0 -13.1 10.4 27 27 27
-15.8 -13.1 10.4 54 54 54
-15.1 -13.1 10.5 58 59 59
-15.9 -14.0 11.2 32 31 30
-12.1 -13.2 10.6 85 85 85
-11.8 -13.2 10.5 34 34 34
-11.5 -13.1 10.5 132 135 134
-11.3 -13.3 10.6 30 29 28
-10.1 -13.3 10.6 121 121 121
-9.8 -13.1 10.5 108 108 108
-9.4 -13.0 10.4 36 38 37
-17.6 -33.8 26.9 91 94 93
-17.4 -34.5 27.5 89 91 90
-16.7 -34.5 27.5 78 78 78
-16.0 -34.3 27.3 108 108 108
15.4 -12.8 10.2 208 208 208
91.4 -31.6 25.2 114 116 115
91.8 -31.6 25.2 121 121 121
70.5 -23.5 18.7 122 122 122
70.8 -23.4 18.7 124 124 124
70.9 -23.3 18.6 126 126 126
-24.6 -13.0 10.6 17 21 18
-24.4 -13.0 10.6 17 21 18
-24.1 -13.0 10.6 24 24 24
-23.8 -13.0 10.6 134 137 136
-23.6 -13.0 10.6 157 157 157
-23.2 -13.0 10.6 153 153 153
-22.9 -13.0 10.6 133 133 133
-22.6 -13.0 10.6 195 198 197
-22.4 -13.0 10.6 178 181 180
-16.5 -13.0 10.6 84 86 86
-16.0 -12.8 10.4 14 14 14
-15.8 -12.8 10.4 25 25 25
-15.5 -13.0 10.6 70 70 70
-12.1 -13.0 10.6 38 40 40
-11.8 -13.0 10.5 103 103 103
-11.5 -12.9 10.5 58 58 58
-9.8 -12.9 10.5 99 99 99
-9.4 -12.8 10.4 124 124 124
-18.0 -33.9 27.5 89 89 89
-19.1 -37.2 30.3 93 93 93
-16.1 -33.9 27.5 82 82 82
14.2 -12.3 10.0 208 208 208
15.1 -12.4 10.0 208 208 208
15.4 -12.4 10.0 207 207 207
80.4 -27.8 22.6 65 65 65
81.3 -28.0 22.7 104 104 104
91.5 -31.1 25.3 108 110 110
92.8 -31.3 25.5 112 112 112
92.2 -30.9 25.1 112 112 112
71.6 -23.4 19.0 113 114 113
71.3 -23.2 18.8 116 118 117
71.5 -23.1 18.8 131 130 129
-18.4 -33.9 28.1 91 94 93
-19.1 -36.5 30.3 89 91 90
15.1 -12.1 10.0 207 207 207
15.4 -12.1 10.0 210 210 210
401.9 -275.2 227.9 214 214 214
537.3 -340.9 282.3 216 216 216
80.1 -27.2 22.5 57 56 55
81.0 -27.4 22.7 98 98 98
95.3 -31.4 26.0 107 107 107
72.7 -23.3 19.3 106 106 106
71.8 -22.9 19.0 88 88 88
71.3 -22.6 18.7 138 140 139
-18.8 -13.7 11.6 39 41 41
-18.5 -13.6 11.5 27 29 27
-17.8 -13.3 11.3 25 25 25
-19.2 -36.1 30.5 92 92 92
411.9 -276.5 233.5 214 214 214
562.5 -350.0 295.6 216 216 216
80.2 -26.7 22.6 42 44 43
81.0 -26.8 22.7 91 94 93
50.9 -16.5 14.0 102 104 104
51.4 -16.5 13.9 101 103 103
72.5 -22.7 19.1 65 65 65
71.1 -22.1 18.7 156 156 156
-19.1 -13.4 11.6 53 53 53
-18.9 -13.4 11.6 45 45 45
-18.6 -13.4 11.6 35 35 35
-20.1 -37.0 31.9 93 93 93
-21.3 -42.3 36.4 86 88 88
411.9 -271.1 233.5 214 214 214
80.2 -26.2 22.6 41 42 40
80.9 -26.3 22.6 90 90 90
50.9 -16.2 14.0 101 101 101
51.5 -16.3 14.0 97 97 97
51.7 -16.3 14.0 89 89 89
-18.9 -13.2 11.6 172 172 172
-18.6 -13.2 11.6 228 228 228
-22.8 -42.8 37.6 83 83 83
-21.8 -42.4 37.3 115 114 114
-20.9 -42.4 37.3 113 115 114
80.8 -25.7 22.6 89 89 89
51.2 -16.0 14.0 91 94 93
51.6 -16.0 14.1 81 84 83
-17.8 -12.5 11.2 230 230 230
-22.9 -42.0 37.7 103 105 105
-22.1 -42.1 37.8 15 19 16
51.2 -15.7 14.1 85 85 85
51.7 -15.7 14.1 79 82 81
-25.0 -43.2 39.6 96 99 98
-23.2 -41.6 38.1 112 112 112
-22.4 -41.8 38.3 21 21 21
-22.0 -42.7 39.2 28 28 28
51.5 -15.3 14.0 79 82 81
51.8 -15.2 13.9 77 77 77
-24.0 -42.2 39.5 113 112 111
-23.4 -42.8 40.1 22 22 22
51.2 -14.9 14.0 88 88 88
51.6 -14.9 14.0 79 79 79
51.8 -14.9 13.9 79 79 79
52.0 -14.9 13.9 79 79 79
-24.8 -42.6 40.8 112 111 110
15.6 -10.6 10.2 216 216 216
51.7 -14.5 13.9 79 79 79
52.0 -14.5 13.9 79 79 79
15.4 -10.3 10.1 216 216 216
-36.6 -62.5 62.6 45 45 45
-33.2 -59.0 59.1 20 20 20
127.7 -196.7 197.0 221 221 221
-39.7 -66.3 68.0 45 45 45
122.6 -184.4 189.2 224 224 224
17.8 -10.6 10.8 218 218 218
372.8 -174.0 178.5 182 182 182
317.1 -146.4 150.1 195 195 195
313.1 -143.0 146.6 200 200 200
-44.9 -70.3 73.9 111 111 111
-40.5 -65.9 69.3 30 29 29
-39.0 -66.2 69.5 23 24 23
123.8 -181.8 191.1 224 224 224
369.3 -168.3 176.8 180 180 180
302.7 -136.4 143.3 191 191 191
234.9 -104.7 110.0 197 197 197
233.3 -102.9 108.1 200 200 200
-49.7 -76.0 81.9 108 108 108
-41.7 -66.3 71.4 22 22 22
-40.3 -66.8 71.9 20 20 20
-58.1 -100.4 108.1 169 169 169
131.8 -188.9 203.4 224 224 224
352.8 -156.8 168.9 186 186 186
264.6 -116.3 125.3 191 191 191
218.4 -94.9 102.3 197 197 197
229.4 -98.7 106.3 200 200 200
158.1 -67.3 72.5 200 200 200
-66.6 -95.7 105.7 98 98 98
-52.2 -77.8 86.0 105 105 105
-58.4 -98.4 108.7 169 169 169
-55.3 -97.3 107.5 181 181 181
231.0 -99.0 109.3 180 180 180
211.5 -89.7 99.0 195 195 195
209.4 -87.8 97.0 200 200 200
167.1 -69.3 76.6 200 200 200
177.5 -71.3 78.8 202 202 202
-72.7 -101.7 115.3 99 99 99
-58.3 -84.7 96.0 103 103 103
-60.6 -95.3 108.1 33 33 33
-61.3 -100.5 114.0 171 173 173
-60.1 -103.0 116.8 181 181 181
-52.2 -93.7 106.3 183 186 185
212.5 -88.7 100.6 172 172 172
209.3 -86.4 98.0 199 199 199
162.5 -65.7 74.5 200 200 200
173.8 -69.5 78.8 200 200 200
172.4 -67.5 76.6 202 202 202
169.4 -65.7 74.5 202 202 202
-79.5 -108.3 126.1 97 97 97
-65.9 -100.9 117.5 20 20 20
-65.2 -104.1 121.3 170 172 172
-63.6 -106.2 123.6 180 183 182
211.4 -85.9 100.1 174 176 176
205.0 -82.5 96.0 197 197 197
162.5 -64.0 74.5 200 200 200
171.7 -66.8 77.8 200 200 200
174.2 -67.1 78.2 200 200 200
167.7 -64.0 74.5 202 202 202
168.1 -63.5 73.9 198 198 198
-89.9 -133.9 160.3 27 27 27
-73.2 -113.7 136.1 160 160 160
-72.1 -117.1 140.1 179 179 179
202.0 -79.0 94.6 193 193 193
182.3 -70.6 84.4 197 197 197
158.7 -60.8 72.8 200 200 200
156.1 -58.5 70.1 200 200 200
158.9 -59.0 70.6 198 198 198
159.4 -58.5 70.1 198 198 198
-164.9 -229.3 282.3 29 29 29
-180.2 -284.5 350.3 178 178 178
151.7 -56.5 69.5 197 197 197
-20.8 -8.4 10.7 63 62 61
-230.2 -310.9 394.1 32 34 33
731.8 -276.4 350.3 185 185 185
-26.3 -9.7 12.7 122 124 123
-21.1 -8.2 10.8 55 55 55
-27.6 -9.8 13.2 120 120 120
-26.3 -9.4 12.7 118 118 118
-26.3 -9.1 12.7 59 59 59
209.3 -70.5 98.0 146 148 148
-26.3 -8.8 12.7 55 55 55
211.5 -68.9 99.0 150 150 150
211.6 -68.2 98.0 179 179 179
246.2 -265.1 394.1 222 222 222
211.5 -66.6 99.0 155 155 155
209.4 -65.3 97.0 175 177 177
199.4 -61.5 91.4 192 192 192
211.0 -61.8 91.8 197 197 197
211.1 -61.2 90.9 202 202 202
217.4 -62.4 92.7 202 202 202
232.1 -65.9 98.0 202 202 202
229.6 -64.6 96.0 204 204 204
125.1 -125.4 193.0 224 226 226
18.9 -7.2 11.2 219 222 221
213.7 -65.0 100.1 158 158 158
209.4 -63.0 97.0 174 176 176
213.1 -60.2 92.7 198 198 198
214.2 -59.9 92.3 202 202 202
232.1 -63.7 98.0 202 202 202
232.0 -63.0 97.0 204 204 204
110.4 -106.7 170.4 224 224 224
18.7 -6.9 11.0 220 223 222
214.9 -63.0 100.6 162 162 162
212.7 -61.7 98.5 174 176 176
125.1 -116.4 193.0 221 221 221
19.9 -6.4 10.6 222 224 224
224.4 -63.4 105.1 162 162 162
18.1 -5.9 10.2 220 220 220
20.0 -6.2 10.7 221 221 221
19.8 -6.1 10.6 221 221 221
283.4 -77.8 134.2 86 86 86
246.3 -66.9 115.3 149 149 149
240.2 -64.5 111.3 174 176 176
18.0 -5.7 10.2 221 221 221
18.1 -5.6 10.1 221 221 221
19.7 -5.8 10.5 221 221 221
283.4 -74.7 134.2 68 68 68
18.0 -5.4 10.2 221 221 221
18.0 -5.4 10.1 221 221 221
19.9 -5.7 10.7 222 222 222
307.3 -77.6 145.5 111 111 111
25.3 -7.2 14.2 222 222 222
20.0 -5.5 10.8 222 222 222
20.0 -5.4 10.6 222 222 222
279.4 -67.5 132.3 64 63 61
241.1 -187.9 386.0 221 221 221
25.1 -6.8 14.1 221 221 221
229.5 -52.3 107.5 143 143 142
174.6 -36.3 74.5 200 200 200
25.0 -6.5 14.0 221 221 221
25.1 -6.2 14.0 222 222 222
25.8 -5.4 14.6 221 221 221
26.2 -5.4 14.7 221 221 221
26.5 -5.4 14.6 221 221 221
25.4 -5.1 14.6 222 222 222
25.8 -5.1 14.6 222 222 222
26.5 -5.1 14.6 222 222 222
26.9 -5.1 14.7 222 222 222
25.1 -4.7 14.4 222 222 222
25.4 -4.7 14.4 222 222 222
25.8 -4.7 14.5 222 222 222
26.2 -4.7 14.5 222 222 222
26.2 -4.4 14.7 224 224 224
26.5 -4.4 14.6 224 224 224
26.4 -4.1 14.8 225 225 225
26.7 -4.1 14.8 225 225 225
423.8 -34.5 165.9 60 60 60
319.4 -25.5 122.8 67 69 68
283.6 -22.5 108.1 66 68 67
435.2 -31.5 170.4 61 61 61
341.6 -24.3 131.4 78 78 78
266.8 -18.8 101.7 66 68 67
423.8 -26.8 165.9 64 66 66
393.1 -24.6 152.6 75 76 76
268.3 -16.5 102.3 66 68 67
420.1 -22.7 164.5 65 67 66
386.9 -20.7 150.1 74 74 74
339.2 -18.0 130.5 68 70 69
299.0 -15.7 114.0 64 64 64
22.4 -1.1 11.5 222 224 224
22.6 -1.1 11.5 222 224 224
22.3 -0.8 11.5 223 225 225
22.5 -0.7 10.9 222 224 224
22.4 -0.5 10.9 223 225 225
22.6 -0.5 10.9 223 225 225
82.9 1.6 21.9 84 83 81
85.5 2.2 22.9 88 88 88
83.8 2.1 22.3 94 94 94
83.0 2.1 21.9 92 92 92
86.7 2.7 23.2 87 86 84
84.5 2.6 22.5 88 88 88
83.4 2.6 22.0 90 90 90
86.6 3.2 23.0 87 87 85
84.6 3.1 22.4 93 93 93
-12.3 6.9 12.3 92 95 94
-11.2 6.9 12.3 7 13 9
-10.0 6.9 12.3 136 136 136
-9.7 7.0 12.6 117 117 117
-9.3 6.9 12.4 110 112 111
-5.0 7.0 12.4 207 210 209
-110.9 40.2 69.0 131 134 133
-100.2 36.8 63.3 127 127 127
-12.3 7.2 12.3 66 68 67
-308.9 92.4 152.6 128 128 128
-115.6 43.6 71.9 134 137 136
-12.6 7.5 12.3 67 69 68
-12.3 7.4 12.2 59 61 59
-11.9 7.4 12.2 63 64 62
-232.6 51.9 82.6 42 43 42
-230.6 51.9 82.6 40 40 40
-228.7 51.9 82.6 38 38 38
-226.8 51.9 82.6 34 33 32
-224.9 51.9 82.6 38 38 38
-223.0 51.9 82.6 124 124 124
-221.0 51.9 82.6 136 136 136
-219.1 51.9 82.6 133 133 133
-218.2 52.2 83.0 125 125 125
-216.2 52.2 83.0 118 120 119
-212.4 51.7 82.2 115 115 115
-211.4 51.9 82.6 117 119 118
-209.5 51.9 82.6 119 121 120
-207.6 51.9 82.6 122 122 122
-206.6 52.2 83.0 119 121 120
-203.8 51.9 82.6 118 120 119
-201.8 51.9 82.6 119 121 120
-199.9 51.9 82.6 121 123 122
-198.0 51.9 82.6 120 122 121
-196.1 51.9 82.6 117 117 117
-195.9 52.4 83.3 111 113 112
-193.9 52.4 83.3 127 127 127
-190.3 51.9 82.6 149 151 151
-188.4 51.9 82.6 100 102 102
-186.5 51.9 82.6 95 95 95
-184.6 51.9 82.6 90 90 90
-182.6 51.9 82.6 94 93 92
-180.7 51.9 82.6 96 96 96
-178.8 51.9 82.6 99 99 99
-176.9 51.9 82.6 102 104 104
-175.7 52.2 83.0 108 108 108
-173.8 52.2 83.0 108 108 108
-171.1 51.9 82.6 110 110 110
-169.2 51.9 82.6 112 114 113
-167.3 51.9 82.6 112 114 113
-165.4 51.9 82.6 134 137 136
-163.4 51.9 82.6 141 141 141
-161.5 51.9 82.6 129 129 129
-158.9 51.7 82.2 116 116 116
-157.7 51.9 82.6 102 104 104
-156.4 52.2 83.0 102 104 104
-157.3 53.1 84.4 108 108 108
-153.3 52.4 83.3 107 107 107
-150.0 51.9 82.6 102 104 104
-147.4 51.7 82.2 102 104 104
-146.2 51.9 82.6 103 105 105
-144.2 51.9 82.6 103 105 105
-142.3 51.9 82.6 103 105 105
-142.9 53.6 85.2 118 118 118
-137.8 52.4 83.3 127 127 127
-134.6 51.9 82.6 134 136 135
-130.0 52.4 83.3 145 145 144
-127.5 52.2 83.0 147 147 147
-119.3 51.9 82.6 147 147 147
-117.4 51.9 82.6 141 141 141
-115.4 51.9 82.6 113 115 114
-113.5 51.9 82.6 102 104 104
-111.6 51.9 82.6 80 83 82
-109.7 51.9 82.6 67 67 67
-107.8 51.9 82.6 70 72 69
-105.4 51.7 82.2 80 83 82
-103.9 51.9 82.6 85 85 85
-101.6 51.7 82.2 71 72 70
-100.1 51.9 82.6 65 65 65
-98.2 51.9 82.6 47 48 47
-96.2 51.9 82.6 29 31 29
-94.3 51.9 82.6 62 62 62
-90.5 51.9 82.6 55 56 54
-88.6 51.9 82.6 59 61 59
-86.6 51.9 82.6 58 58 58
-84.7 51.9 82.6 54 54 54
-82.8 51.9 82.6 46 46 46
-79.0 51.9 82.6 159 159 159
-77.0 51.9 82.6 124 127 126
-75.1 51.9 82.6 131 131 131
-73.2 51.9 82.6 153 153 153
-71.3 51.9 82.6 163 166 165
-71.9 53.8 85.6 151 153 153
-69.6 53.6 85.2 140 142 141
-64.1 50.8 80.8 122 122 122
-60.8 52.9 84.1 103 103 103
-59.9 53.8 85.6 92 95 94
-59.6 55.3 88.0 91 93 92
-50.1 50.0 79.5 134 134 134
-48.3 50.0 79.5 159 162 161
-44.4 51.9 82.6 169 169 169
-42.5 51.9 82.6 182 182 182
-27.1 51.9 82.6 232 232 232
-4.2 52.9 84.1 226 226 226
-2.2 52.4 83.3 221 221 221
5.5 51.9 82.6 177 177 177
42.0 57.2 90.9 73 74 72
40.6 52.6 83.7 74 75 73
42.3 50.0 79.5 67 69 67
44.1 50.0 79.5 26 26 26
-248.0 57.9 88.8 43 43 43
-247.1 58.2 89.2 41 41 41
-245.0 58.2 89.2 43 43 43
-242.9 58.2 89.2 31 33 33
-240.8 58.2 89.2 80 80 80
-238.8 58.2 89.2 126 129 128
-236.7 58.2 89.2 126 126 126
-234.6 58.2 89.2 118 120 119
-232.5 58.2 89.2 115 114 114
-228.3 57.6 88.4 113 114 113
-228.4 58.2 89.2 115 115 115
-225.3 57.9 88.8 117 117 117
-224.3 58.2 89.2 117 117 117
-222.2 58.2 89.2 118 118 118
-217.0 57.9 88.8 120 122 121
-214.9 57.9 88.8 120 122 121
-212.9 57.9 88.8 121 123 122
-211.8 58.2 89.2 118 118 118
-208.6 58.5 89.7 148 150 150
-205.6 58.2 89.2 174 176 176
-203.5 58.2 89.2 106 106 106
-201.4 58.2 89.2 97 97 97
-199.4 58.2 89.2 96 96 96
-197.3 58.2 89.2 103 105 105
-195.2 58.2 89.2 112 112 112
-192.2 57.9 88.8 118 118 118
-191.1 58.2 89.2 119 119 119
-186.9 58.2 89.2 131 131 131
-184.8 58.2 89.2 151 153 153
-182.8 58.2 89.2 150 152 152
-180.7 58.2 89.2 168 168 168
-178.6 58.2 89.2 173 173 173
-176.5 58.2 89.2 176 176 176
-174.5 58.2 89.2 153 155 155
-172.4 58.2 89.2 145 145 144
-169.5 57.9 88.8 143 143 142
-169.1 58.5 89.7 126 128 127
-163.3 57.9 88.8 122 122 122
-161.3 57.9 88.8 119 119 119
-159.2 57.9 88.8 117 117 117
-157.9 58.2 89.2 114 116 115
-155.8 58.2 89.2 112 112 112
-153.7 58.2 89.2 111 111 111
-147.5 58.2 89.2 124 126 125
-139.2 58.2 89.2 148 150 150
-130.2 56.1 86.0 170 171 170
-128.8 58.2 89.2 161 161 161
-126.8 58.2 89.2 140 140 140
-124.7 58.2 89.2 134 136 135
-122.6 58.2 89.2 123 125 124
-120.6 58.2 89.2 120 120 120
-118.5 58.2 89.2 109 109 109
-116.4 58.2 89.2 90 90 90
-114.3 58.2 89.2 90 90 90
-112.3 58.2 89.2 99 98 96
-110.2 58.2 89.2 98 97 95
-108.1 58.2 89.2 83 83 83
-106.0 58.2 89.2 38 40 40
-104.0 58.2 89.2 28 28 28
-101.9 58.2 89.2 112 112 112
-99.8 58.2 89.2 124 126 125
-97.7 58.2 89.2 124 126 125
-95.7 58.2 89.2 136 138 137
-93.6 58.2 89.2 134 136 135
-91.5 58.2 89.2 124 124 124
-89.4 58.2 89.2 109 109 109
-87.4 58.2 89.2 153 155 155
-85.3 58.2 89.2 140 140 140
-83.2 58.2 89.2 138 138 138
-81.1 58.2 89.2 115 114 114
-79.1 58.2 89.2 163 163 163
-72.9 58.2 89.2 87 87 87
-69.8 57.4 88.0 143 143 142
-62.8 58.5 89.7 92 95 94
-60.4 58.2 89.2 89 89 89
-58.9 58.7 90.1 67 67 67
-51.5 55.3 84.8 159 162 161
-52.1 58.2 89.2 163 163 163
-50.0 58.2 89.2 165 165 165
-48.0 58.2 89.2 166 166 166
-45.9 58.2 89.2 197 200 199
-38.4 56.3 86.4 214 214 214
-29.3 58.2 89.2 225 225 225
-2.3 56.1 86.0 221 221 221
58.4 86.9 133.2 69 69 69
42.8 60.5 92.7 73 73 73
41.9 56.3 86.4 75 77 75
45.6 58.5 89.7 75 76 76
44.5 54.6 83.7 69 71 69
-177.7 99.0 146.6 86 85 83
-174.3 99.0 146.6 35 35 35
-170.9 99.0 146.6 29 31 29
-157.2 99.0 146.6 119 119 119
-153.8 99.0 146.6 107 107 107
-136.8 99.0 146.6 126 128 127
-78.5 103.0 152.6 219 219 219
66.6 108.3 160.3 63 64 62
56.8 87.5 129.6 69 69 69
81.4 99.0 146.6 24 24 24
53.2 84.7 121.3 73 73 73
61.6 84.7 121.3 77 77 77
73.4 92.4 132.3 16 16 16
70.6 105.0 145.5 77 77 77
75.1 106.7 147.8 77 77 77
85.3 111.0 153.8 27 27 27
-93.6 88.7 69.3 153 155 155
