ply
format ascii 1.0
element vertex 2195
property float x
property float y
property float z
property uchar red
property uchar green
property uchar blue
end_header
226.8 -402.2 160.3 156 159 158
93.8 -156.1 62.2 157 160 159
93.7 -153.6 61.2 157 160 159
96.1 -155.1 61.8 154 156 156
98.5 -156.6 62.4 155 158 157
99.6 -156.1 62.2 155 158 157
101.1 -156.1 62.2 156 159 158
100.5 -153.1 61.0 156 159 158
54.3 -292.1 117.5 159 159 159
57.4 -293.9 118.2 158 158 158
60.1 -293.9 118.2 158 158 158
62.9 -293.9 118.2 161 161 161
65.6 -293.9 118.2 160 160 160
68.4 -293.9 118.2 160 160 160
70.7 -292.1 117.5 157 157 157
72.5 -288.5 116.1 160 160 160
87.6 -293.9 118.2 164 164 164
90.3 -293.9 118.2 164 164 164
93.1 -293.9 118.2 164 164 164
95.8 -293.9 118.2 164 164 164
98.6 -293.9 118.2 164 164 164
101.3 -293.9 118.2 164 164 164
104.1 -293.9 118.2 164 164 164
106.8 -293.9 118.2 164 164 164
109.6 -293.9 118.2 164 164 164
112.3 -293.9 118.2 164 164 164
115.1 -293.9 118.2 165 165 165
117.8 -293.9 118.2 162 162 162
119.1 -290.3 116.8 162 162 162
121.0 -288.5 116.1 159 159 159
126.1 -293.9 118.2 162 162 162
130.4 -297.6 119.7 163 163 163
131.6 -293.9 118.2 163 163 163
134.3 -293.9 118.2 163 163 163
137.1 -293.9 118.2 163 163 163
138.1 -290.3 116.8 163 163 163
144.4 -297.6 119.7 163 163 163
136.7 -276.6 111.3 160 160 160
145.3 -288.5 116.1 160 160 160
150.8 -293.9 118.2 161 161 161
153.5 -293.9 118.2 161 161 161
153.4 -288.5 116.1 161 161 161
164.5 -293.9 118.2 156 159 158
168.3 -295.7 119.0 156 159 158
165.9 -286.7 115.3 157 160 159
169.6 -288.5 116.1 157 160 159
175.5 -293.9 118.2 157 160 159
115.7 -182.3 73.3 158 161 160
118.3 -183.7 73.9 158 161 160
107.4 -164.4 66.1 159 162 161
30.3 -25.6 10.3 112 114 113
61.5 -40.9 16.4 148 148 148
61.0 -40.3 16.2 196 199 198
32.1 -190.1 77.2 152 154 154
33.7 -189.4 76.9 159 159 159
35.5 -189.4 76.9 159 159 159
36.7 -186.3 75.7 158 158 158
38.8 -187.8 76.3 161 161 161
40.6 -187.8 76.3 161 161 161
42.3 -187.8 76.3 158 158 158
44.1 -187.8 76.3 160 160 160
45.9 -187.8 76.3 163 163 163
47.6 -187.8 76.3 163 163 163
48.8 -185.6 75.4 160 160 160
50.6 -185.6 75.4 163 163 163
52.5 -186.3 75.7 163 163 163
55.2 -189.4 76.9 164 164 164
57.0 -189.4 76.9 167 167 167
58.3 -187.8 76.3 167 167 167
60.1 -187.8 76.3 167 167 167
61.8 -187.8 76.3 167 167 167
63.6 -187.8 76.3 167 167 167
65.4 -187.8 76.3 164 164 164
67.1 -187.8 76.3 164 164 164
68.9 -187.8 76.3 164 164 164
70.4 -187.1 76.0 164 164 164
73.1 -189.4 76.9 164 164 164
75.1 -190.1 77.2 159 159 159
75.4 -186.3 75.7 162 162 162
78.1 -188.6 76.6 162 162 162
79.6 -187.8 76.3 162 162 162
80.7 -186.3 75.7 162 162 162
82.8 -187.1 76.0 163 163 163
84.5 -187.1 76.0 163 163 163
86.0 -186.3 75.7 163 163 163
88.4 -187.8 76.3 163 163 163
90.9 -189.4 76.9 160 160 160
91.6 -187.1 76.0 163 163 163
94.5 -189.4 76.9 163 163 163
97.1 -190.9 77.5 164 164 164
95.7 -184.8 75.1 164 164 164
98.3 -186.3 75.7 164 164 164
102.1 -190.1 77.2 164 164 164
103.4 -189.4 76.9 164 164 164
108.3 -194.9 79.1 164 164 164
112.5 -199.1 80.8 161 161 161
110.6 -192.5 78.2 161 161 161
110.6 -189.4 76.9 162 162 162
113.8 -191.7 77.8 162 162 162
116.5 -193.3 78.5 162 162 162
114.1 -186.3 75.7 162 162 162
115.9 -186.3 75.7 162 162 162
116.2 -184.1 74.8 162 162 162
116.6 -182.0 73.9 163 163 163
119.7 -184.1 74.8 163 163 163
118.6 -179.9 73.0 159 162 161
78.4 -101.5 41.2 160 163 162
78.0 -99.7 40.5 159 159 159
85.2 -61.9 25.1 98 100 100
81.3 -58.7 23.8 98 100 100
80.1 -57.4 23.3 96 99 98
57.2 -39.1 15.9 88 88 88
56.5 -38.4 15.6 191 191 191
56.6 -38.2 15.5 148 148 148
59.8 -39.4 16.0 165 168 167
59.9 -39.2 15.9 165 168 167
59.0 -38.4 15.6 212 213 212
59.3 -38.3 15.6 193 193 193
32.4 -180.2 73.9 159 159 159
34.1 -180.2 73.9 159 159 159
35.7 -179.5 73.6 161 161 161
37.4 -179.5 73.6 161 161 161
39.1 -179.5 73.6 161 161 161
40.8 -179.5 73.6 160 160 160
42.6 -179.5 73.6 163 163 163
44.3 -179.5 73.6 163 163 163
46.0 -179.5 73.6 163 163 163
47.5 -178.8 73.3 163 163 163
48.8 -177.5 72.8 166 166 166
50.5 -177.5 72.8 166 166 166
52.8 -179.5 73.6 166 166 166
54.7 -180.2 73.9 167 167 167
56.2 -179.5 73.6 167 167 167
58.0 -179.5 73.6 167 167 167
56.8 -170.9 70.1 167 167 167
58.4 -170.9 70.1 167 167 167
59.8 -170.3 69.8 164 164 164
61.7 -170.9 70.1 164 164 164
63.3 -170.9 70.1 164 164 164
68.0 -178.8 73.3 164 164 164
66.8 -171.5 70.3 164 164 164
71.9 -180.2 73.9 162 162 162
70.3 -172.2 70.6 162 162 162
71.4 -170.9 70.1 162 162 162
77.1 -180.2 73.9 162 162 162
78.2 -178.8 73.3 162 162 162
80.2 -179.5 73.6 163 163 163
81.6 -178.8 73.3 163 163 163
83.0 -178.2 73.0 163 163 163
85.0 -178.8 73.3 163 163 163
87.4 -180.2 73.9 163 163 163
89.1 -180.2 73.9 163 163 163
91.2 -181.0 74.2 163 163 163
90.1 -175.4 71.9 160 160 160
87.7 -167.8 68.8 161 161 161
94.9 -178.2 73.0 164 164 164
98.1 -181.0 74.2 164 164 164
99.8 -181.0 74.2 161 161 161
103.1 -183.8 75.4 161 161 161
107.0 -187.6 76.9 164 164 164
105.0 -181.0 74.2 164 164 164
110.6 -178.8 73.3 165 165 165
114.4 -179.5 73.6 165 165 165
113.0 -174.8 71.7 166 166 166
115.1 -175.4 71.9 166 166 166
113.4 -170.3 69.8 164 164 164
108.2 -160.2 65.7 164 164 164
80.2 -102.8 42.1 160 163 162
84.3 -60.6 24.9 98 100 100
80.5 -57.5 23.6 96 99 98
55.8 -37.5 15.4 196 199 198
55.8 -37.3 15.3 143 143 142
60.0 -38.9 15.9 208 208 208
58.6 -37.7 15.5 200 202 202
58.1 -37.2 15.3 196 199 198
15.9 -92.3 38.2 155 158 157
27.3 -124.2 51.4 164 164 164
29.6 -123.5 51.1 163 163 163
30.7 -123.5 51.1 166 166 166
31.8 -123.2 51.0 166 166 166
33.1 -123.5 51.1 166 166 166
34.4 -123.9 51.3 166 166 166
35.7 -124.2 51.4 166 166 166
36.9 -124.2 51.4 166 166 166
37.9 -123.5 51.1 167 167 167
39.3 -124.2 51.4 167 167 167
39.2 -120.3 49.8 164 164 164
40.0 -119.3 49.4 167 167 167
41.1 -119.0 49.3 164 164 164
43.6 -122.9 50.9 164 164 164
43.4 -119.0 49.3 164 164 164
45.9 -122.9 50.9 164 164 164
47.4 -123.5 51.1 164 164 164
48.4 -123.2 51.0 164 164 164
47.9 -119.0 49.3 165 165 165
50.1 -121.5 50.3 165 165 165
52.0 -123.2 51.0 162 162 162
51.1 -118.4 49.0 162 162 162
54.2 -122.9 50.9 162 162 162
55.6 -123.2 51.0 163 163 163
42.4 -92.1 38.1 163 163 163
58.4 -124.2 51.4 163 163 163
58.9 -122.9 50.9 165 165 165
59.0 -120.6 49.9 166 166 166
46.2 -92.5 38.3 166 166 166
63.2 -124.2 51.4 166 166 166
64.2 -123.9 51.3 166 166 166
63.3 -120.0 49.6 166 166 166
64.0 -119.0 49.3 166 166 166
58.0 -91.6 37.9 167 167 167
58.1 -90.3 37.4 165 165 165
56.8 -87.1 36.0 166 166 166
70.0 -99.8 41.3 165 165 165
65.4 -92.0 38.1 168 168 168
64.2 -89.1 36.9 165 165 165
64.8 -88.7 36.7 166 166 166
69.0 -92.1 38.1 166 166 166
67.7 -89.3 36.9 162 165 164
66.6 -86.7 35.9 163 166 165
67.2 -86.4 35.8 160 163 162
72.3 -90.7 37.5 161 164 163
78.9 -55.9 23.1 95 95 95
55.3 -36.9 15.3 180 183 182
59.5 -38.2 15.8 207 207 207
58.0 -37.0 15.3 180 183 182
57.4 -36.4 15.1 215 215 215
56.1 -35.3 14.6 215 215 215
15.7 -90.3 37.8 159 159 159
16.4 -89.3 37.3 162 162 162
17.6 -91.1 38.1 162 162 162
18.4 -90.9 38.0 161 161 161
19.2 -90.2 37.7 164 164 164
20.0 -90.2 37.7 167 167 167
20.8 -89.6 37.5 166 166 166
21.6 -89.5 37.4 166 166 166
22.7 -90.3 37.8 168 170 169
23.5 -90.0 37.6 168 170 169
24.5 -90.5 37.8 168 170 169
25.5 -90.9 38.0 166 166 166
26.3 -90.7 37.9 166 166 166
27.2 -90.7 37.9 166 166 166
27.9 -90.0 37.6 164 164 164
28.5 -89.3 37.3 167 167 167
29.4 -89.3 37.3 167 167 167
30.8 -90.9 38.0 167 167 167
31.6 -90.7 37.9 167 167 167
32.3 -90.2 37.7 167 167 167
33.2 -90.2 37.7 164 164 164
34.0 -90.2 37.7 164 164 164
35.0 -90.3 37.8 164 164 164
35.5 -89.5 37.4 164 164 164
36.8 -90.5 37.8 165 165 165
37.8 -90.7 37.9 165 165 165
38.5 -90.3 37.8 165 165 165
39.7 -91.1 38.1 165 165 165
40.4 -90.7 37.9 165 165 165
40.5 -88.9 37.2 165 165 165
41.5 -89.3 37.3 165 165 165
42.8 -90.2 37.7 168 168 168
43.6 -90.0 37.6 168 168 168
44.6 -90.3 37.8 168 168 168
45.6 -90.5 37.8 169 169 169
46.0 -89.6 37.5 169 169 169
47.3 -90.3 37.8 169 169 169
48.3 -90.7 37.9 169 169 169
48.8 -90.0 37.6 169 169 169
49.2 -89.1 37.2 169 169 169
50.7 -90.2 37.7 169 169 169
52.1 -91.1 38.1 169 169 169
53.2 -91.4 38.2 171 173 173
54.1 -91.4 38.2 170 171 170
54.3 -90.3 37.8 170 171 170
57.1 -89.3 37.3 170 171 170
58.1 -89.5 37.4 170 171 170
57.6 -87.4 36.5 168 168 168
59.4 -88.8 37.1 168 168 168
61.0 -89.8 37.5 168 168 168
66.0 -92.0 38.4 170 171 170
65.6 -90.2 37.7 168 168 168
67.0 -90.9 38.0 169 169 169
66.7 -88.2 36.9 170 171 170
68.5 -89.5 37.4 167 167 167
67.7 -87.2 36.4 167 167 167
73.5 -91.3 38.1 161 164 163
72.7 -89.3 37.3 161 164 163
56.8 -35.9 15.0 215 215 215
56.2 -35.3 14.8 215 215 215
55.7 -34.8 14.5 215 215 215
14.9 -84.7 35.8 162 162 162
15.2 -82.2 34.7 162 162 162
16.1 -82.4 34.8 164 164 164
17.0 -83.0 35.0 164 164 164
17.8 -83.0 35.0 167 167 167
18.7 -83.2 35.1 167 167 167
19.5 -83.3 35.2 168 170 169
20.3 -83.0 35.0 168 170 169
21.0 -82.7 34.9 168 170 169
21.7 -82.4 34.8 168 170 169
22.5 -82.4 34.8 168 170 169
23.5 -82.9 35.0 166 166 166
24.6 -83.8 35.4 166 166 166
25.3 -83.5 35.2 166 166 166
25.9 -82.9 35.0 167 167 167
26.6 -82.4 34.8 167 167 167
27.2 -81.9 34.6 164 164 164
28.2 -82.5 34.8 167 167 167
29.2 -83.0 35.0 167 167 167
29.8 -82.4 34.8 167 167 167
30.7 -82.7 34.9 167 167 167
31.5 -82.5 34.8 167 167 167
32.3 -82.5 34.8 167 167 167
33.0 -82.4 34.8 168 168 168
33.8 -82.4 34.8 165 165 165
35.2 -83.8 35.4 168 168 168
35.5 -82.4 34.8 168 168 168
36.3 -82.4 34.8 170 172 172
37.7 -83.8 35.4 170 172 172
38.0 -82.7 34.9 170 172 172
38.6 -82.1 34.6 168 168 168
39.6 -82.5 34.8 170 172 172
40.2 -82.2 34.7 170 172 172
41.0 -82.1 34.6 168 168 168
42.1 -82.7 34.9 171 173 173
42.7 -82.4 34.8 171 173 173
43.4 -82.1 34.6 171 173 173
44.5 -82.7 34.9 171 173 173
45.5 -83.0 35.0 171 173 173
46.1 -82.5 34.8 171 173 173
46.9 -82.7 34.9 171 173 173
48.4 -83.8 35.4 171 173 173
49.2 -83.8 35.4 171 173 173
49.7 -83.3 35.2 170 171 170
50.2 -82.7 34.9 172 174 174
206.7 -324.8 137.1 175 177 177
185.7 -287.3 121.3 172 174 174
55.0 -83.8 35.4 172 174 174
55.1 -82.7 34.9 173 175 175
56.3 -83.3 35.2 173 175 175
58.2 -84.9 35.8 173 175 175
63.9 -83.6 35.3 175 175 175
64.1 -82.9 35.0 173 173 173
44.8 -79.5 33.9 174 176 176
42.1 -73.5 31.3 179 179 179
47.0 -80.6 34.3 179 179 179
45.2 -73.7 31.4 175 177 177
202.3 -314.8 134.2 175 177 177
186.9 -286.3 122.0 175 177 177
204.2 -308.2 131.4 172 174 174
54.1 -80.4 34.3 173 175 175
55.7 -81.6 34.8 173 175 175
39.6 -68.3 29.4 200 200 200
38.6 -65.5 28.2 197 197 197
41.5 -67.0 28.8 192 192 192
41.4 -65.8 28.3 197 197 197
205.2 -316.1 136.1 197 197 197
204.2 -305.2 131.4 200 200 200
143.5 -208.3 89.7 198 198 198
40.2 -63.2 27.5 204 204 204
40.6 -62.9 27.3 204 204 204
222.8 -339.9 147.8 200 200 200
208.5 -308.5 134.2 204 204 204
139.5 -200.5 87.2 205 205 205
135.9 -192.5 83.7 205 205 205
175.7 -129.9 56.5 112 114 113
39.8 -61.0 26.8 204 204 204
136.4 -194.0 85.2 202 202 202
129.1 -180.9 79.5 205 205 205
1011.8 -769.0 337.8 124 124 124
175.2 -128.2 56.3 114 116 115
159.0 -115.5 50.7 112 114 113
37.6 -55.3 24.5 207 207 207
130.5 -183.7 81.5 205 205 205
123.9 -171.9 76.3 205 205 205
123.7 -169.1 75.1 206 206 206
139.2 -187.8 83.3 206 206 206
26.4 -34.2 15.2 207 207 207
21.4 -25.3 11.2 209 209 209
164.4 -119.1 52.8 120 120 120
154.4 -111.0 49.3 118 118 118
38.5 -56.1 25.2 207 207 207
121.4 -166.7 74.8 205 205 205
111.7 -151.2 67.8 205 205 205
26.4 -33.8 15.2 206 206 206
21.6 -25.0 11.2 209 209 209
21.9 -25.0 11.2 206 206 206
22.1 -25.0 11.2 207 207 207
24.2 -25.2 11.3 160 160 160
24.3 -25.2 11.3 161 161 161
24.4 -24.9 11.2 161 161 161
26.7 -33.8 15.3 206 206 206
26.7 -33.4 15.1 206 206 206
26.7 -32.9 14.9 206 206 206
22.1 -25.0 11.3 209 209 209
22.2 -24.8 11.3 206 206 206
24.7 -25.5 11.6 160 160 160
24.5 -25.1 11.4 160 160 160
26.6 -33.4 15.3 205 205 205
26.8 -33.1 15.2 205 205 205
26.6 -32.5 14.9 206 206 206
26.5 -32.0 14.7 206 206 206
24.9 -25.5 11.7 162 162 162
-9.1 -22.2 10.3 138 140 139
-0.5 -21.6 10.0 171 173 173
26.6 -33.0 15.3 207 207 207
26.8 -32.9 15.2 205 205 205
26.7 -32.3 15.0 205 205 205
26.6 -31.8 14.7 205 205 205
-29.4 -22.3 10.4 42 43 42
-29.4 -22.5 10.5 46 46 44
-29.1 -22.5 10.5 46 46 44
-28.9 -22.5 10.5 42 43 42
-28.7 -22.5 10.5 46 46 44
-28.4 -22.5 10.5 47 48 47
-28.2 -22.5 10.5 47 48 47
-27.9 -22.5 10.5 47 48 47
-27.7 -22.5 10.5 47 48 47
-27.4 -22.5 10.5 47 48 47
-27.2 -22.5 10.5 47 48 47
-26.9 -22.5 10.5 46 46 44
-26.7 -22.5 10.5 47 48 47
-26.5 -22.5 10.5 46 46 44
-26.2 -22.5 10.5 42 43 42
-26.0 -22.5 10.5 42 43 42
-25.7 -22.5 10.5 42 43 42
-25.5 -22.5 10.5 42 43 42
-25.2 -22.5 10.5 42 43 42
-25.0 -22.5 10.5 41 41 41
-24.7 -22.5 10.5 41 41 41
-24.5 -22.5 10.5 41 41 41
-24.2 -22.5 10.5 38 38 38
-24.0 -22.5 10.5 41 41 41
-23.8 -22.5 10.5 38 38 38
-23.5 -22.5 10.5 38 38 38
-23.1 -22.4 10.5 38 38 38
-22.8 -22.5 10.5 41 41 41
-22.5 -22.5 10.5 41 41 41
-22.3 -22.5 10.5 42 43 42
-22.1 -22.5 10.5 42 43 42
-21.8 -22.5 10.5 47 48 47
-21.6 -22.5 10.5 54 54 54
-21.3 -22.5 10.5 59 60 58
-21.0 -22.5 10.5 85 85 85
-20.8 -22.5 10.5 87 89 88
-20.6 -22.5 10.5 91 91 91
-20.3 -22.5 10.5 95 95 95
-20.1 -22.5 10.5 106 106 106
-19.6 -22.5 10.5 104 104 104
-19.4 -22.6 10.6 105 105 105
-19.2 -22.6 10.6 107 107 107
-18.9 -22.5 10.5 107 107 107
-18.6 -22.5 10.5 108 110 110
-18.4 -22.5 10.5 107 109 109
-18.2 -22.6 10.6 107 109 109
-17.7 -22.6 10.6 109 111 111
-17.4 -22.5 10.5 109 111 111
-17.1 -22.5 10.5 113 114 113
-16.9 -22.5 10.5 113 114 113
-16.7 -22.5 10.5 112 112 112
-16.4 -22.4 10.5 115 114 114
-16.0 -22.5 10.5 118 118 118
-15.7 -22.5 10.5 119 121 120
-15.4 -22.5 10.5 119 121 120
-15.2 -22.5 10.5 119 121 120
-14.9 -22.4 10.5 119 121 120
-14.7 -22.4 10.5 118 120 119
-14.4 -22.4 10.5 120 122 121
-14.1 -22.3 10.4 120 122 121
-9.5 -22.3 10.5 135 135 135
-9.7 -23.4 10.9 136 136 136
-7.7 -22.7 10.6 139 139 139
-7.4 -22.5 10.6 141 141 141
26.3 -32.7 15.3 206 206 206
26.5 -32.6 15.2 206 206 206
26.8 -32.4 15.2 207 207 207
26.8 -32.1 15.0 204 204 204
26.7 -31.5 14.8 205 205 205
27.3 -31.4 14.7 205 205 205
-30.6 -23.0 10.9 47 46 45
-34.9 -28.5 13.5 48 48 48
-34.5 -28.5 13.5 43 43 43
-27.6 -23.0 10.9 46 46 44
-27.4 -23.0 10.9 46 46 44
-27.1 -23.0 10.9 43 43 43
-26.9 -23.0 10.9 43 43 43
-26.7 -23.1 10.9 43 43 43
-26.4 -23.0 10.9 43 43 43
-26.1 -23.0 10.9 43 43 43
-25.8 -23.0 10.9 42 42 42
-31.7 -28.5 13.5 42 42 42
-30.9 -28.0 13.3 42 42 42
-28.3 -28.5 13.5 42 42 42
-28.0 -28.5 13.5 42 42 42
-27.7 -28.5 13.5 43 43 43
-27.3 -28.5 13.5 48 48 48
-21.9 -23.1 10.9 50 50 50
-26.0 -28.1 13.3 65 67 66
-25.1 -28.1 13.3 95 95 95
-24.7 -28.4 13.5 97 100 99
-23.9 -28.6 13.5 99 101 101
-23.2 -28.1 13.3 102 102 102
-18.8 -23.1 10.9 105 105 105
-18.5 -23.1 10.9 106 106 106
-18.2 -23.0 10.9 106 106 106
-17.9 -22.9 10.9 108 108 108
-17.7 -22.9 10.8 108 108 108
-17.5 -23.0 10.9 108 108 108
-16.2 -22.9 10.8 115 114 114
-15.8 -23.1 10.9 118 118 118
-15.5 -23.0 10.9 117 117 117
-15.2 -23.0 10.9 117 117 117
-9.7 -23.2 11.0 136 136 136
-9.4 -23.1 10.9 135 135 135
16.4 -31.2 14.8 207 207 207
26.4 -32.1 15.2 206 206 206
26.8 -32.1 15.2 206 206 206
26.7 -31.6 15.0 206 206 206
26.7 -31.2 14.7 204 204 204
26.8 -30.9 14.6 204 204 204
27.1 -30.8 14.6 205 205 205
27.1 -30.5 14.4 205 205 205
-39.6 -29.4 14.1 47 46 45
-39.4 -29.5 14.1 47 46 45
-39.0 -29.5 14.1 47 46 45
-38.7 -29.5 14.1 44 44 44
-38.4 -29.5 14.1 49 49 49
-38.0 -29.5 14.1 49 49 49
-37.7 -29.5 14.1 52 52 52
-37.4 -29.5 14.1 52 52 52
-37.1 -29.5 14.1 49 49 49
-36.7 -29.5 14.1 49 49 49
-36.4 -29.4 14.1 49 49 49
-32.1 -29.5 14.1 42 43 42
-31.8 -29.5 14.1 42 43 42
-31.5 -29.5 14.1 42 43 42
-29.9 -29.5 14.1 40 40 40
-29.5 -29.5 14.1 40 40 40
-29.2 -29.5 14.1 40 40 40
-28.8 -29.4 14.1 40 40 40
-28.6 -29.5 14.1 41 41 41
-28.2 -29.5 14.1 43 43 43
-27.8 -29.4 14.1 45 45 45
-27.6 -29.5 14.1 47 46 45
-27.3 -29.5 14.1 45 45 45
-26.9 -29.5 14.1 51 51 51
-26.7 -29.6 14.1 79 79 79
-26.2 -29.4 14.1 96 96 96
-25.8 -29.3 14.0 96 96 96
-25.7 -29.6 14.1 93 93 93
-25.3 -29.5 14.1 96 96 96
-24.9 -29.4 14.1 98 98 98
-24.6 -29.4 14.1 98 98 98
-24.4 -29.6 14.2 101 103 103
-24.1 -29.7 14.2 101 103 103
-0.0 -29.8 14.2 182 182 182
0.3 -29.7 14.2 182 182 182
0.6 -29.5 14.1 182 182 182
0.9 -29.5 14.1 182 182 182
1.3 -29.5 14.1 182 182 182
1.6 -29.6 14.1 182 182 182
1.9 -29.5 14.1 179 179 179
8.2 -29.5 14.1 207 207 207
8.5 -29.5 14.1 207 207 207
8.8 -29.5 14.1 207 207 207
9.1 -29.5 14.1 207 207 207
9.5 -29.5 14.1 207 207 207
10.5 -30.5 14.6 207 207 207
10.5 -29.7 14.2 207 207 207
10.8 -29.4 14.1 207 207 207
11.1 -29.4 14.1 207 207 207
11.4 -29.4 14.1 207 207 207
11.8 -29.6 14.1 207 207 207
12.1 -29.5 14.1 207 207 207
12.8 -29.6 14.2 207 207 207
13.1 -29.5 14.1 206 206 206
13.4 -29.4 14.1 206 206 206
13.7 -29.4 14.1 206 206 206
14.4 -29.6 14.1 206 206 206
14.8 -29.6 14.2 206 206 206
15.1 -29.6 14.1 206 206 206
15.8 -29.7 14.2 206 206 206
16.1 -29.6 14.1 206 206 206
16.3 -29.4 14.1 206 206 206
16.6 -29.4 14.1 206 206 206
17.0 -29.4 14.1 206 206 206
18.5 -29.7 14.2 206 206 206
18.5 -29.2 14.0 206 206 206
19.3 -29.6 14.1 206 206 206
20.1 -29.7 14.2 206 206 206
20.4 -29.6 14.2 206 206 206
26.5 -31.8 15.2 205 205 205
26.8 -31.7 15.2 205 205 205
26.7 -31.2 14.9 206 206 206
26.6 -30.8 14.7 206 206 206
25.8 -29.4 14.1 206 206 206
26.4 -29.7 14.2 206 206 206
26.5 -29.5 14.1 204 204 204
26.7 -29.3 14.0 204 204 204
-29.1 -30.8 14.9 44 44 44
-28.0 -30.7 14.8 50 50 50
-26.5 -30.6 14.8 91 93 92
-14.2 -30.6 14.8 113 114 113
-13.8 -30.6 14.8 105 107 107
-12.4 -30.6 14.8 110 110 110
-0.0 -30.5 14.8 184 184 184
7.9 -30.8 14.9 206 206 206
8.2 -30.5 14.8 206 206 206
10.3 -30.6 14.8 206 206 206
10.6 -30.6 14.8 206 206 206
11.0 -30.6 14.8 206 206 206
11.3 -30.7 14.8 206 206 206
12.3 -30.6 14.8 209 209 209
12.7 -30.5 14.8 206 206 206
13.0 -30.6 14.8 206 206 206
13.3 -30.5 14.8 206 206 206
13.8 -30.7 14.8 206 206 206
14.1 -30.6 14.8 206 206 206
14.9 -30.8 14.9 206 206 206
15.1 -30.7 14.8 206 206 206
15.5 -30.7 14.8 206 206 206
15.7 -30.5 14.7 206 206 206
16.2 -30.7 14.8 206 206 206
16.4 -30.5 14.8 206 206 206
16.8 -30.5 14.8 206 206 206
17.3 -30.2 14.6 206 206 206
17.9 -30.7 14.8 206 206 206
19.0 -30.8 14.9 206 206 206
20.0 -30.8 14.9 206 206 206
20.2 -30.6 14.8 206 206 206
20.8 -30.8 14.9 206 206 206
21.0 -30.6 14.8 206 206 206
21.3 -30.6 14.8 206 206 206
21.7 -30.7 14.9 206 206 206
22.0 -30.6 14.8 206 206 206
26.3 -31.6 15.3 204 204 204
26.3 -31.2 15.1 204 204 204
26.6 -31.2 15.1 205 205 205
26.8 -31.0 15.0 205 205 205
26.7 -30.6 14.8 205 205 205
26.7 -30.2 14.6 205 205 205
26.8 -29.8 14.4 206 206 206
26.5 -28.8 13.9 204 204 204
-30.5 -31.1 15.2 42 43 42
-30.1 -31.1 15.2 42 43 42
-29.7 -31.0 15.2 42 43 42
-29.4 -31.1 15.2 42 43 42
-29.0 -31.1 15.2 41 41 41
-28.6 -31.0 15.2 43 43 43
-27.6 -31.1 15.2 47 47 47
-27.3 -31.1 15.2 50 49 48
-14.7 -21.2 10.4 105 107 107
-14.4 -21.4 10.5 105 107 107
-15.9 -31.0 15.2 100 100 100
-14.8 -30.9 15.1 72 71 69
-14.5 -31.0 15.2 71 70 69
-14.1 -31.0 15.2 58 60 59
-13.8 -31.1 15.2 45 44 43
-13.5 -31.1 15.2 20 23 21
-13.1 -31.0 15.2 25 25 25
-12.8 -31.1 15.2 25 25 25
-12.4 -31.1 15.2 33 35 34
-12.0 -31.0 15.2 105 105 105
-11.7 -31.0 15.2 179 182 181
-0.4 -31.1 15.2 186 186 186
-0.0 -31.0 15.1 186 186 186
0.3 -31.0 15.2 186 186 186
0.7 -31.0 15.2 186 186 186
1.0 -31.0 15.2 186 186 186
1.4 -31.0 15.2 183 183 183
1.7 -31.0 15.2 183 183 183
2.1 -31.0 15.2 183 183 183
2.4 -31.0 15.2 183 183 183
2.8 -31.1 15.2 183 183 183
3.1 -31.0 15.2 183 183 183
3.8 -31.0 15.2 183 183 183
7.7 -31.1 15.2 206 206 206
8.1 -31.0 15.2 206 206 206
8.4 -31.0 15.1 206 206 206
8.8 -31.0 15.2 206 206 206
9.1 -31.0 15.2 206 206 206
9.5 -31.0 15.2 206 206 206
9.8 -30.9 15.1 206 206 206
10.2 -31.0 15.2 206 206 206
10.6 -31.2 15.2 206 206 206
10.9 -30.9 15.1 209 209 209
11.2 -30.9 15.1 209 209 209
11.6 -30.9 15.1 206 206 206
11.9 -31.0 15.2 206 206 206
12.3 -31.1 15.2 209 209 209
12.6 -31.0 15.2 210 210 210
13.0 -31.0 15.2 209 209 209
13.3 -31.0 15.2 205 205 205
13.7 -31.0 15.1 205 205 205
14.0 -31.0 15.2 205 205 205
14.4 -31.0 15.2 205 205 205
14.8 -31.0 15.2 205 205 205
15.1 -31.0 15.2 205 205 205
15.5 -31.1 15.2 205 205 205
15.8 -31.0 15.2 205 205 205
16.1 -31.0 15.1 205 205 205
16.6 -31.1 15.2 205 205 205
16.8 -30.9 15.1 205 205 205
17.2 -30.9 15.1 205 205 205
17.6 -31.0 15.1 205 205 205
17.9 -31.0 15.2 205 205 205
18.2 -30.9 15.1 205 205 205
19.2 -31.3 15.3 205 205 205
19.3 -30.9 15.1 205 205 205
19.7 -31.0 15.2 205 205 205
20.2 -31.3 15.3 205 205 205
20.4 -31.0 15.2 205 205 205
20.9 -31.2 15.2 205 205 205
21.2 -31.2 15.3 205 205 205
21.4 -31.0 15.1 205 205 205
21.8 -31.0 15.2 205 205 205
22.2 -31.0 15.2 205 205 205
22.4 -30.9 15.1 205 205 205
22.8 -31.0 15.1 205 205 205
26.3 -31.3 15.3 209 209 209
26.4 -31.1 15.2 207 207 207
26.8 -31.1 15.2 204 204 204
27.2 -31.1 15.2 204 204 204
27.3 -30.9 15.1 204 204 204
26.5 -28.8 14.1 205 205 205
26.6 -28.6 14.0 205 205 205
38.9 -20.8 10.2 97 100 99
-16.9 -21.3 10.5 95 98 97
-16.7 -21.2 10.5 95 98 97
-15.2 -21.3 10.5 101 101 101
-14.8 -21.0 10.4 101 101 101
-14.4 -21.2 10.5 105 105 105
-16.1 -31.0 15.3 17 17 17
-15.6 -30.7 15.2 19 23 20
-15.2 -30.7 15.2 29 30 28
-14.8 -30.6 15.2 26 26 26
-14.6 -30.9 15.3 26 26 26
-14.3 -31.0 15.3 27 29 27
-14.0 -31.0 15.4 27 27 27
-13.2 -30.9 15.3 27 29 27
-12.9 -31.0 15.4 32 32 32
-12.5 -30.9 15.3 33 36 35
-0.4 -31.0 15.3 191 191 191
2.1 -31.0 15.3 185 185 185
2.8 -31.0 15.4 185 185 185
7.8 -31.0 15.3 205 205 205
8.1 -30.9 15.3 208 208 208
8.5 -31.0 15.3 208 208 208
9.6 -31.0 15.3 208 208 208
9.9 -30.9 15.3 205 205 205
10.3 -31.0 15.3 208 208 208
10.7 -31.0 15.3 208 208 208
10.9 -30.8 15.2 208 208 208
11.2 -30.7 15.2 208 208 208
11.6 -30.7 15.2 208 208 208
12.1 -31.0 15.3 208 208 208
12.4 -31.0 15.3 205 205 205
12.8 -30.9 15.3 205 205 205
13.1 -30.9 15.3 208 208 208
13.5 -30.9 15.3 205 205 205
13.8 -30.9 15.3 205 205 205
14.2 -31.0 15.3 205 205 205
14.5 -30.9 15.3 205 205 205
14.9 -31.0 15.3 205 205 205
15.3 -31.0 15.3 205 205 205
15.6 -31.0 15.3 205 205 205
16.0 -30.9 15.3 205 205 205
16.3 -30.9 15.3 205 205 205
16.7 -31.0 15.3 205 205 205
17.0 -30.9 15.3 205 205 205
17.3 -30.9 15.3 205 205 205
17.7 -30.9 15.3 205 205 205
18.1 -31.0 15.3 205 205 205
18.3 -30.8 15.2 205 205 205
19.3 -31.1 15.4 205 205 205
19.4 -30.7 15.2 205 205 205
20.3 -31.0 15.3 205 205 205
20.6 -30.9 15.3 205 205 205
21.0 -31.0 15.4 205 205 205
21.3 -31.0 15.3 207 207 207
21.6 -30.9 15.3 204 204 204
22.0 -31.0 15.3 204 204 204
22.3 -30.8 15.3 204 204 204
22.4 -30.5 15.1 204 204 204
26.3 -31.0 15.3 206 206 206
26.6 -30.9 15.3 206 206 206
26.9 -30.8 15.3 206 206 206
27.3 -30.9 15.3 204 204 204
27.5 -30.7 15.2 204 204 204
27.5 -30.3 15.0 204 204 204
27.5 -29.9 14.8 204 204 204
38.8 -20.5 10.1 105 105 105
-17.2 -21.1 10.5 90 92 91
-16.8 -20.9 10.5 90 92 91
-16.6 -20.9 10.5 90 92 91
-16.1 -20.6 10.3 94 94 94
-15.8 -20.6 10.3 90 92 91
-15.2 -21.0 10.5 94 94 94
-14.7 -20.7 10.4 103 103 103
-14.4 -20.9 10.5 98 100 100
-14.0 -20.7 10.3 79 78 77
-16.5 -31.4 15.7 27 27 27
-16.0 -31.1 15.6 27 27 27
-15.6 -31.1 15.6 27 27 27
-15.3 -31.2 15.6 26 26 26
-15.0 -31.3 15.7 26 26 26
-14.7 -31.4 15.7 27 27 27
-14.3 -31.5 15.8 27 27 27
-13.2 -31.5 15.8 33 33 33
-0.4 -31.5 15.8 196 196 196
0.3 -31.5 15.8 195 195 195
0.7 -31.5 15.8 193 193 193
1.1 -31.5 15.8 190 190 190
1.4 -31.5 15.8 190 190 190
1.8 -31.6 15.8 190 190 190
2.2 -31.6 15.8 190 190 190
2.5 -31.8 15.9 190 190 190
2.9 -31.4 15.7 190 190 190
3.2 -31.1 15.6 188 188 188
7.6 -31.5 15.8 202 202 202
8.4 -31.5 15.8 208 208 208
8.7 -31.4 15.7 208 208 208
9.5 -31.4 15.7 208 208 208
9.8 -31.4 15.7 208 208 208
10.9 -31.5 15.8 205 205 205
11.3 -31.4 15.7 208 208 208
11.6 -31.3 15.7 208 208 208
12.1 -31.6 15.8 208 208 208
12.5 -31.7 15.9 208 208 208
12.8 -31.5 15.8 208 208 208
13.1 -31.5 15.8 205 205 205
13.5 -31.5 15.8 200 200 200
13.8 -31.2 15.6 204 204 204
14.2 -31.5 15.8 204 204 204
14.6 -31.5 15.8 204 204 204
14.9 -31.4 15.7 204 204 204
15.3 -31.5 15.8 204 204 204
15.7 -31.5 15.8 204 204 204
17.1 -31.4 15.7 204 204 204
17.4 -31.3 15.6 204 204 204
17.9 -31.4 15.7 207 207 207
18.2 -31.4 15.7 204 204 204
18.6 -31.4 15.7 204 204 204
18.8 -31.2 15.6 204 204 204
19.7 -31.5 15.8 207 207 207
20.0 -31.4 15.7 207 207 207
20.8 -31.9 16.0 207 207 207
20.9 -31.6 15.8 204 204 204
21.0 -31.2 15.6 207 207 207
21.7 -31.7 15.9 204 204 204
21.9 -31.5 15.8 204 204 204
22.3 -31.5 15.8 204 204 204
22.7 -31.5 15.8 200 200 200
22.7 -31.1 15.6 204 204 204
23.2 -31.2 15.6 204 204 204
27.0 -31.9 15.9 205 205 205
26.9 -31.3 15.7 205 205 205
27.0 -31.0 15.5 205 205 205
27.1 -30.7 15.4 206 206 206
27.4 -30.6 15.3 206 206 206
28.1 -29.2 14.6 204 204 204
30.8 -31.5 15.8 204 204 204
39.1 -20.4 10.2 107 107 107
-16.8 -20.6 10.4 43 42 41
-16.5 -20.6 10.4 86 86 86
-16.1 -20.4 10.3 72 72 72
-15.1 -20.7 10.5 10 15 11
-14.7 -20.5 10.4 21 21 21
-14.4 -20.7 10.5 22 25 23
-14.0 -20.5 10.4 21 24 22
-17.0 -32.0 16.2 28 28 28
-16.5 -31.8 16.1 27 27 27
-16.1 -31.7 16.0 27 27 27
-16.1 -32.4 16.4 28 28 28
-15.7 -32.4 16.4 28 28 28
12.8 -32.0 16.2 207 207 207
13.1 -31.9 16.2 207 207 207
13.3 -31.6 16.0 207 207 207
21.0 -32.0 16.2 206 206 206
22.8 -31.8 16.1 206 206 206
23.0 -31.5 16.0 203 203 203
26.8 -30.9 15.6 205 205 205
27.0 -30.6 15.5 205 205 205
26.9 -30.2 15.3 205 205 205
27.2 -30.1 15.2 205 205 205
27.7 -28.7 14.5 203 203 203
28.1 -28.8 14.6 204 204 204
30.7 -31.1 15.8 204 204 204
30.8 -30.8 15.6 204 204 204
-33.9 -23.5 12.1 58 58 58
-33.7 -23.6 12.1 55 55 55
-33.4 -23.6 12.1 58 58 58
-33.1 -23.6 12.1 58 58 58
-32.9 -23.6 12.1 58 58 58
-32.6 -23.6 12.1 58 58 58
-32.3 -23.6 12.1 56 56 56
-32.0 -23.6 12.1 60 62 60
-31.7 -23.6 12.1 58 58 58
-31.5 -23.6 12.1 60 62 60
-31.2 -23.6 12.1 58 58 58
-30.9 -23.6 12.1 56 56 56
-30.6 -23.6 12.1 58 59 59
-30.3 -23.6 12.1 58 59 59
-30.0 -23.5 12.1 56 56 56
-29.8 -23.5 12.1 56 56 56
-29.5 -23.5 12.1 54 54 54
-22.5 -23.6 12.1 41 41 39
-22.2 -23.6 12.1 41 41 39
-22.6 -24.3 12.4 41 41 39
-22.3 -24.3 12.4 42 42 40
-21.4 -23.6 12.1 42 42 40
-21.1 -23.6 12.1 42 42 40
-20.8 -23.5 12.1 40 40 40
-20.3 -23.6 12.1 41 41 41
-20.0 -23.6 12.1 41 41 41
-14.5 -20.6 10.5 21 21 21
-11.0 -23.6 12.1 29 31 29
-10.4 -23.6 12.1 31 30 29
-10.1 -23.5 12.0 35 37 36
10.1 -23.6 12.1 206 206 206
10.3 -23.5 12.1 206 206 206
14.8 -23.5 12.1 206 206 206
15.1 -23.5 12.1 206 206 206
15.4 -23.5 12.1 206 206 206
26.5 -29.7 15.2 204 204 204
26.8 -29.6 15.2 204 204 204
27.4 -29.6 15.2 205 205 205
27.8 -29.6 15.1 205 205 205
28.7 -29.8 15.3 205 205 205
28.9 -29.6 15.2 205 205 205
28.6 -29.0 14.8 203 203 203
29.0 -29.0 14.9 203 203 203
30.2 -29.8 15.3 203 203 203
30.3 -29.6 15.2 203 203 203
39.2 -20.1 10.3 111 113 112
38.9 -19.8 10.1 107 107 107
-28.9 -24.2 12.6 50 50 50
-22.4 -24.1 12.5 43 42 41
-11.0 -23.9 12.4 29 31 29
-10.6 -23.6 12.2 32 31 30
-10.2 -23.5 12.2 34 34 34
-10.0 -23.5 12.2 42 42 42
10.2 -23.6 12.2 206 206 206
14.8 -23.7 12.3 205 205 205
15.0 -23.6 12.2 205 205 205
15.3 -23.6 12.2 205 205 205
26.5 -29.8 15.4 203 203 203
26.6 -29.5 15.3 204 204 204
26.9 -29.4 15.3 204 204 204
27.6 -29.4 15.3 204 204 204
28.0 -29.5 15.3 204 204 204
28.8 -29.9 15.5 204 204 204
28.9 -29.6 15.4 205 205 205
29.0 -29.4 15.3 205 205 205
28.8 -28.9 15.0 205 205 205
30.3 -29.6 15.4 203 203 203
30.5 -29.4 15.3 203 203 203
30.7 -29.3 15.2 203 203 203
31.3 -29.5 15.3 203 203 203
39.0 -19.6 10.2 107 107 107
-33.7 -24.2 12.7 61 63 61
-33.4 -24.2 12.7 62 64 61
-33.1 -24.2 12.7 59 59 59
-32.8 -24.2 12.7 59 59 59
-32.5 -24.2 12.7 59 59 59
-32.2 -24.2 12.7 59 59 59
-31.9 -24.2 12.7 58 58 58
-31.7 -24.2 12.7 55 55 55
-29.8 -24.4 12.8 51 51 51
-29.2 -24.1 12.7 51 51 51
-28.7 -24.0 12.6 51 51 51
-28.5 -24.1 12.6 51 51 51
-28.4 -24.2 12.7 51 51 51
-28.1 -24.2 12.7 52 52 52
-27.8 -24.2 12.7 52 52 52
-27.4 -24.1 12.6 52 52 52
-27.1 -24.1 12.6 55 54 53
-26.6 -24.2 12.7 50 50 50
-26.3 -24.2 12.7 50 50 50
-26.0 -24.2 12.7 53 52 52
-25.7 -24.2 12.7 51 51 51
-25.3 -24.1 12.6 48 48 48
-24.9 -24.3 12.7 46 46 46
-23.5 -24.0 12.6 45 45 45
-23.2 -24.0 12.6 45 45 45
-23.0 -24.1 12.7 44 43 42
-22.6 -24.0 12.6 44 43 42
-22.4 -24.2 12.7 44 43 42
-22.0 -24.0 12.6 44 43 42
-21.5 -24.1 12.7 41 43 42
-21.3 -24.2 12.7 41 43 42
-11.8 -24.2 12.7 34 34 34
-11.3 -23.8 12.5 29 31 29
-11.1 -23.9 12.5 34 34 34
-10.7 -23.6 12.4 33 33 33
-10.3 -23.4 12.3 34 34 34
26.5 -29.4 15.4 203 203 203
26.6 -29.2 15.3 203 203 203
26.9 -29.1 15.3 203 203 203
27.3 -29.1 15.3 203 203 203
27.7 -29.1 15.3 203 203 203
28.0 -29.1 15.3 204 204 204
28.9 -29.6 15.5 204 204 204
29.0 -29.4 15.4 204 204 204
29.1 -29.2 15.3 204 204 204
28.9 -28.6 15.0 204 204 204
29.1 -28.4 14.9 204 204 204
30.2 -29.2 15.3 202 202 202
30.5 -29.1 15.3 199 199 199
30.8 -29.1 15.3 202 202 202
-34.1 -24.2 12.9 62 64 61
-33.8 -24.2 12.8 62 64 61
-33.5 -24.2 12.8 63 64 62
-33.2 -24.2 12.8 60 60 60
-32.9 -24.2 12.8 60 60 60
-32.6 -24.2 12.8 60 60 60
-30.2 -24.2 12.9 52 52 52
-30.0 -24.3 12.9 55 54 53
-29.6 -24.1 12.8 55 54 53
-29.2 -24.1 12.8 55 54 53
-29.0 -24.2 12.9 52 52 52
-28.7 -24.2 12.9 53 52 52
-28.4 -24.2 12.9 53 52 52
-28.1 -24.2 12.9 53 52 52
-27.8 -24.2 12.8 53 52 52
-27.5 -24.2 12.9 53 52 52
-26.9 -24.2 12.9 53 53 53
-26.6 -24.2 12.9 53 53 53
-26.3 -24.2 12.9 53 53 53
-26.0 -24.2 12.9 52 52 52
-25.4 -24.2 12.9 49 49 49
-25.1 -24.2 12.9 47 48 47
-24.8 -24.2 12.9 45 45 45
-24.6 -24.2 12.9 45 45 45
-24.3 -24.2 12.9 45 45 45
-23.7 -24.2 12.9 46 46 46
-23.3 -24.1 12.8 46 46 46
-23.0 -24.1 12.8 45 44 43
-22.7 -24.2 12.9 42 43 42
-22.2 -24.2 12.9 42 43 42
-11.3 -24.0 12.7 57 57 57
-10.9 -23.7 12.6 64 66 66
-10.8 -24.2 12.9 36 37 36
26.7 -29.3 15.6 205 205 205
26.6 -28.8 15.3 202 202 202
26.9 -28.7 15.2 203 203 203
27.2 -28.7 15.2 203 203 203
27.5 -28.5 15.2 203 203 203
27.8 -28.6 15.2 203 203 203
29.7 -29.7 15.8 203 203 203
29.2 -28.9 15.4 204 204 204
28.7 -28.0 14.9 204 204 204
28.9 -27.9 14.8 204 204 204
29.8 -28.4 15.1 204 204 204
30.3 -28.5 15.2 204 204 204
25.2 -22.7 12.0 181 181 181
25.7 -22.7 12.1 186 186 186
-29.9 -24.1 13.0 56 55 54
-11.4 -23.9 12.8 36 37 36
-10.9 -24.2 13.0 27 27 27
-10.6 -24.0 12.9 48 48 48
-10.3 -24.2 13.0 184 184 184
-10.1 -24.3 13.1 183 186 185
-9.7 -24.2 13.0 183 186 185
27.0 -29.2 15.7 204 204 204
26.7 -28.5 15.3 205 205 205
26.9 -28.4 15.3 205 205 205
27.5 -28.3 15.2 205 205 205
29.0 -27.9 15.0 203 203 203
29.8 -28.1 15.1 203 203 203
30.3 -28.2 15.2 204 204 204
31.7 -28.9 15.5 200 200 200
24.9 -22.4 12.1 166 166 166
25.2 -22.4 12.1 180 180 180
25.7 -22.4 12.1 185 185 185
-29.8 -19.4 10.6 60 60 60
-29.3 -19.4 10.6 63 64 62
-28.8 -19.4 10.6 67 67 67
-28.5 -19.4 10.6 67 67 67
-28.2 -19.4 10.6 67 67 67
-28.0 -19.4 10.6 67 67 67
-27.3 -19.4 10.6 64 65 63
-25.1 -19.4 10.6 58 59 59
-24.8 -19.3 10.5 58 59 59
-24.6 -19.4 10.6 57 56 55
-24.3 -19.4 10.6 57 56 55
-24.1 -19.4 10.6 57 56 55
-23.8 -19.4 10.6 57 57 55
-23.6 -19.4 10.6 54 54 54
-22.1 -19.4 10.6 55 55 55
-21.9 -19.4 10.6 55 55 55
-21.6 -19.4 10.6 55 55 55
-20.7 -19.4 10.6 52 52 52
-19.2 -19.4 10.6 48 48 48
-18.9 -19.4 10.6 46 46 44
-17.8 -19.5 10.6 43 45 45
-17.6 -19.5 10.6 43 45 45
-17.3 -19.4 10.6 41 41 41
-17.0 -19.4 10.6 33 35 33
-16.7 -19.4 10.6 24 27 25
-15.3 -19.4 10.6 21 21 21
-14.9 -19.3 10.5 19 19 19
-14.7 -19.3 10.5 21 21 21
-14.4 -19.3 10.5 23 26 24
-11.1 -19.3 10.5 33 34 32
-11.5 -23.8 13.0 43 43 43
-11.3 -24.1 13.1 79 79 79
-11.1 -24.3 13.2 30 31 30
-10.7 -24.1 13.1 50 49 48
-10.4 -24.2 13.2 183 186 185
-10.1 -24.2 13.2 182 185 184
-9.9 -24.2 13.2 182 185 184
30.0 -29.3 16.0 205 205 205
30.3 -29.2 15.9 205 205 205
30.2 -28.1 15.3 203 203 203
30.4 -27.9 15.2 203 203 203
31.8 -28.5 15.6 203 203 203
24.9 -22.1 12.0 169 171 170
25.7 -22.1 12.0 185 185 185
37.4 -18.6 10.1 144 144 144
-38.1 -24.5 13.6 64 65 63
-37.9 -24.6 13.6 64 65 63
-37.6 -24.6 13.6 64 65 63
-37.3 -24.6 13.6 67 67 67
-37.0 -24.6 13.6 67 67 67
-36.7 -24.6 13.6 67 67 67
-36.4 -24.6 13.6 67 67 67
-36.1 -24.6 13.6 67 67 67
-35.8 -24.7 13.6 67 67 67
-35.4 -24.6 13.6 65 66 64
-35.1 -24.6 13.6 67 67 67
-32.6 -24.6 13.6 59 59 59
-32.3 -24.6 13.6 62 62 62
-31.9 -24.6 13.6 59 59 59
-31.5 -24.5 13.5 57 57 55
-31.3 -24.6 13.6 59 59 59
-31.0 -24.6 13.6 57 57 55
-30.7 -24.6 13.6 58 58 56
-30.4 -24.6 13.6 55 55 55
-29.7 -24.6 13.6 55 55 55
-29.4 -24.6 13.6 55 55 55
-28.5 -24.7 13.6 56 56 56
-28.2 -24.6 13.6 56 56 56
-27.9 -24.6 13.6 56 56 56
-27.5 -24.6 13.6 57 57 57
-27.3 -24.7 13.6 54 54 54
-26.9 -24.6 13.6 53 52 52
-26.6 -24.6 13.6 53 52 52
-26.3 -24.6 13.6 53 52 52
-25.9 -24.6 13.6 53 52 52
-25.6 -24.6 13.6 51 51 51
-25.3 -24.6 13.6 51 51 51
-25.0 -24.6 13.6 51 51 51
-24.4 -24.7 13.6 47 46 45
-24.1 -24.7 13.6 48 47 46
-23.7 -24.6 13.6 48 47 46
-11.4 -24.5 13.5 49 49 49
-11.1 -24.5 13.5 54 54 54
-10.6 -24.3 13.4 184 187 186
-10.5 -24.6 13.6 181 184 183
30.4 -29.3 16.2 204 204 204
30.6 -29.2 16.1 204 204 204
31.2 -29.3 16.2 204 204 204
30.6 -28.1 15.5 205 205 205
32.2 -28.9 15.9 202 202 202
32.2 -28.6 15.8 203 203 203
25.0 -21.9 12.1 164 164 164
25.6 -22.0 12.1 184 184 184
25.8 -21.9 12.1 184 184 184
26.0 -21.8 12.0 184 184 184
37.2 -18.2 10.1 147 147 147
1461.5 -699.4 386.0 115 117 116
-38.3 -24.3 13.6 65 66 64
-38.0 -24.3 13.6 65 66 64
-37.7 -24.3 13.6 67 67 67
-37.3 -24.3 13.6 67 67 67
-37.0 -24.3 13.6 67 67 67
-36.7 -24.3 13.6 67 67 67
-36.4 -24.3 13.6 68 68 68
-36.1 -24.3 13.6 68 68 68
-35.8 -24.3 13.6 68 68 68
-35.4 -24.3 13.6 68 68 68
-35.1 -24.3 13.6 68 68 68
-32.6 -24.3 13.6 60 60 60
-32.3 -24.3 13.6 63 63 63
-31.9 -24.3 13.6 60 60 60
-31.5 -24.2 13.6 60 60 60
-31.3 -24.3 13.6 60 60 60
-31.0 -24.3 13.6 60 60 60
-30.7 -24.3 13.6 59 59 57
-30.4 -24.3 13.6 59 59 57
-30.1 -24.3 13.6 59 59 57
-29.8 -24.3 13.6 59 59 57
-29.4 -24.3 13.6 56 56 56
-28.5 -24.4 13.6 57 57 57
-28.2 -24.4 13.6 57 57 57
-27.9 -24.3 13.6 58 58 58
-27.5 -24.3 13.6 55 55 55
-26.9 -24.3 13.6 56 56 56
-26.6 -24.4 13.6 53 53 53
-26.3 -24.3 13.6 53 53 53
-26.0 -24.3 13.6 54 54 54
-25.6 -24.3 13.6 54 54 54
-25.0 -24.3 13.6 53 52 52
-24.4 -24.4 13.6 50 50 50
-24.1 -24.3 13.6 49 48 47
-23.8 -24.3 13.6 49 48 47
-11.4 -24.2 13.6 50 50 50
-11.1 -24.3 13.6 56 57 55
-10.7 -24.2 13.5 184 187 186
-10.4 -24.2 13.6 181 184 183
49.5 -51.6 28.8 205 205 205
30.7 -29.2 16.3 204 204 204
31.4 -28.1 15.7 204 204 204
32.7 -29.0 16.2 204 204 204
26.0 -21.7 12.2 183 183 183
37.9 -18.5 10.3 155 155 155
37.6 -18.2 10.2 147 147 147
948.0 -445.1 248.9 112 114 113
-11.4 -24.1 13.6 49 49 49
-11.2 -24.2 13.7 52 52 52
-10.8 -24.1 13.6 181 184 183
-10.5 -24.0 13.6 180 183 182
9.4 -17.8 10.1 205 205 205
48.4 -47.8 27.1 202 202 202
32.2 -29.6 16.7 203 203 203
33.5 -29.3 16.6 200 200 200
-11.6 -24.0 13.8 48 48 48
-11.3 -24.1 13.8 58 58 58
-11.0 -24.1 13.8 181 184 183
-10.6 -23.9 13.7 179 182 181
-10.3 -23.9 13.7 179 182 181
9.4 -17.6 10.1 205 205 205
9.6 -17.6 10.1 205 205 205
10.5 -17.6 10.1 204 204 204
12.6 -17.6 10.1 204 204 204
13.3 -17.5 10.1 204 204 204
51.9 -52.6 30.2 204 204 204
52.3 -52.4 30.1 204 204 204
51.7 -51.1 29.3 208 208 208
49.9 -48.6 27.9 208 208 208
-24.6 -17.8 10.4 62 62 62
-14.7 -17.8 10.4 41 41 39
-10.7 -17.6 10.2 40 40 40
-10.0 -17.2 10.0 133 133 133
9.6 -17.4 10.1 204 204 204
10.3 -17.4 10.1 204 204 204
10.5 -17.4 10.1 204 204 204
12.7 -17.4 10.1 204 204 204
12.9 -17.3 10.1 203 203 203
13.1 -17.3 10.1 203 203 203
13.3 -17.3 10.1 203 203 203
13.5 -17.2 10.0 203 203 203
13.8 -17.3 10.1 203 203 203
54.5 -53.8 31.3 204 204 204
54.1 -52.7 30.7 204 204 204
-25.7 -17.5 10.3 71 71 71
-24.6 -17.6 10.4 65 65 65
-24.2 -17.4 10.3 65 65 65
-23.8 -17.4 10.2 65 65 65
-15.0 -17.3 10.2 23 23 23
-14.7 -17.6 10.4 24 27 25
-14.3 -17.7 10.4 30 30 30
-13.8 -17.4 10.2 96 98 95
-11.7 -17.0 10.0 75 75 75
-10.7 -17.3 10.2 91 91 91
-10.4 -17.3 10.2 128 128 128
-10.2 -17.2 10.1 135 135 135
4.1 -17.6 10.4 179 179 179
12.9 -17.5 10.3 203 203 203
13.1 -17.1 10.1 203 203 203
13.5 -17.0 10.0 203 203 203
13.9 -17.0 10.0 206 206 206
55.1 -55.1 32.5 206 206 206
56.4 -54.9 32.4 207 207 207
54.9 -52.8 31.1 207 207 207
-26.0 -17.8 10.7 68 70 68
-25.7 -18.0 10.7 67 67 67
-24.9 -17.5 10.5 67 67 67
-24.6 -17.5 10.5 67 67 67
-15.3 -17.7 10.6 24 27 25
-14.8 -17.5 10.4 24 27 25
-14.6 -17.5 10.5 26 30 27
-14.4 -17.5 10.5 36 38 36
-10.8 -17.2 10.3 23 26 24
-10.1 -16.8 10.1 128 131 130
-5.5 -17.2 10.3 193 193 193
-5.3 -17.2 10.3 192 192 192
-5.1 -17.2 10.3 194 194 194
-4.8 -17.2 10.3 195 195 195
-4.6 -17.2 10.3 196 196 196
1.4 -17.2 10.3 193 193 193
2.1 -17.2 10.3 191 191 191
4.1 -17.3 10.4 180 180 180
4.3 -17.2 10.3 180 180 180
8.1 -17.2 10.3 207 207 207
8.8 -17.2 10.3 206 206 206
9.8 -17.2 10.3 206 206 206
10.0 -17.2 10.3 206 206 206
12.9 -17.2 10.3 206 206 206
13.1 -17.2 10.3 206 206 206
13.4 -17.2 10.3 206 206 206
13.6 -17.2 10.3 206 206 206
13.9 -17.2 10.3 205 205 205
14.0 -17.2 10.3 205 205 205
55.2 -54.5 32.6 206 206 206
55.2 -52.4 31.3 207 207 207
58.7 -54.9 32.8 207 207 207
56.9 -52.5 31.4 207 207 207
43.3 -38.0 22.7 207 207 207
43.8 -38.1 22.8 205 205 205
-26.7 -17.7 10.7 70 70 70
-26.7 -18.0 10.9 68 70 68
-26.4 -18.0 10.9 68 70 68
-26.0 -17.9 10.9 68 70 68
-15.4 -17.6 10.6 23 26 24
-11.5 -26.2 15.9 180 183 182
-5.8 -17.0 10.3 178 178 178
-5.5 -17.0 10.3 177 177 177
-5.3 -17.0 10.3 180 180 180
-5.1 -17.1 10.4 181 181 181
-4.8 -17.0 10.3 180 180 180
-4.6 -17.0 10.3 183 183 183
-4.3 -17.0 10.3 188 188 188
-3.9 -17.1 10.3 191 191 191
-3.4 -17.0 10.3 189 189 189
-3.1 -17.0 10.3 191 191 191
-2.9 -17.0 10.3 191 191 191
-2.7 -17.0 10.3 192 192 192
-2.4 -17.0 10.3 192 192 192
-2.2 -17.0 10.3 192 192 192
-1.9 -17.0 10.3 195 195 195
-1.7 -17.0 10.3 195 195 195
-1.5 -17.0 10.3 195 195 195
-1.2 -17.0 10.3 195 195 195
-1.0 -17.0 10.3 195 195 195
-0.7 -17.0 10.3 195 195 195
-0.5 -17.0 10.3 193 193 193
-0.3 -17.0 10.3 193 193 193
-0.0 -17.0 10.3 196 196 196
0.2 -17.0 10.3 196 196 196
0.4 -17.0 10.3 193 193 193
0.7 -17.0 10.3 193 193 193
0.9 -17.0 10.3 191 191 191
1.2 -17.0 10.3 191 191 191
1.4 -17.0 10.3 191 191 191
1.6 -17.0 10.3 191 191 191
1.9 -17.1 10.3 192 192 192
2.1 -17.0 10.3 189 189 189
2.4 -17.0 10.3 200 200 200
2.6 -17.0 10.3 186 186 186
2.8 -17.0 10.3 181 181 181
3.1 -17.0 10.3 162 165 164
3.3 -17.0 10.3 186 186 186
3.6 -17.0 10.3 184 184 184
3.8 -17.0 10.3 181 181 181
4.1 -17.1 10.4 179 179 179
4.3 -17.0 10.3 179 179 179
4.8 -17.0 10.3 204 204 204
5.0 -17.0 10.3 206 206 206
5.2 -17.0 10.3 208 211 210
5.5 -17.0 10.3 209 212 211
5.7 -17.0 10.3 209 212 211
6.0 -17.0 10.3 209 212 211
6.2 -17.0 10.3 209 212 211
6.4 -17.0 10.3 209 212 211
6.7 -17.0 10.3 207 207 207
6.9 -17.0 10.3 207 207 207
7.2 -17.0 10.3 207 207 207
7.4 -17.0 10.3 207 207 207
7.6 -17.0 10.3 207 207 207
7.9 -17.0 10.3 207 207 207
8.1 -17.0 10.3 207 207 207
8.4 -17.0 10.3 206 206 206
8.6 -17.0 10.3 206 206 206
8.8 -17.0 10.3 206 206 206
9.6 -17.1 10.4 206 206 206
9.8 -17.0 10.3 206 206 206
10.0 -17.0 10.3 206 206 206
10.3 -17.0 10.3 206 206 206
10.5 -17.0 10.3 206 206 206
10.7 -17.0 10.3 206 206 206
11.0 -17.0 10.3 206 206 206
11.2 -17.0 10.3 206 206 206
11.5 -17.0 10.3 206 206 206
11.7 -17.0 10.3 206 206 206
11.9 -17.0 10.3 206 206 206
12.2 -17.0 10.3 206 206 206
12.4 -17.0 10.3 206 206 206
12.7 -17.1 10.3 205 205 205
12.9 -17.0 10.3 205 205 205
13.1 -17.0 10.3 205 205 205
13.4 -17.0 10.3 205 205 205
13.6 -17.0 10.3 205 205 205
13.9 -17.0 10.3 205 205 205
14.1 -17.0 10.3 205 205 205
14.3 -16.9 10.3 205 205 205
14.6 -17.0 10.3 205 205 205
15.1 -17.1 10.4 205 205 205
15.3 -17.0 10.3 205 205 205
15.5 -17.0 10.3 205 205 205
15.7 -17.0 10.3 205 205 205
55.4 -54.0 32.7 208 211 210
56.4 -54.2 32.8 206 206 206
56.5 -52.9 32.1 206 206 206
58.8 -54.2 32.9 206 206 206
57.4 -52.3 31.7 207 207 207
43.7 -37.9 23.0 207 207 207
44.0 -37.7 22.8 207 207 207
-26.1 -17.7 10.9 78 78 78
-11.2 -24.4 15.0 183 186 185
-11.4 -25.6 15.8 180 180 180
-5.8 -16.9 10.4 159 162 161
-5.3 -16.8 10.4 165 165 165
-4.9 -16.9 10.4 168 170 169
-4.6 -16.9 10.4 168 170 169
-3.9 -16.9 10.4 173 173 173
-3.4 -16.9 10.4 176 176 176
-3.2 -16.8 10.4 179 179 179
-2.9 -16.9 10.4 183 183 183
-2.7 -16.9 10.4 183 183 183
-2.4 -16.9 10.4 186 186 186
-2.2 -16.8 10.4 183 183 183
-1.5 -16.9 10.4 189 189 189
-1.2 -16.9 10.4 192 192 192
-1.0 -16.9 10.4 192 192 192
-0.8 -16.9 10.4 192 192 192
-0.5 -16.9 10.4 192 192 192
-0.3 -16.9 10.4 192 192 192
-0.0 -16.9 10.4 192 192 192
0.2 -16.9 10.4 192 192 192
0.5 -16.9 10.4 192 192 192
0.9 -16.9 10.4 192 192 192
1.2 -16.9 10.4 192 192 192
1.4 -16.9 10.4 190 190 190
1.7 -16.9 10.4 190 190 190
2.1 -16.9 10.4 215 215 215
2.4 -16.9 10.4 219 219 219
3.6 -16.9 10.4 180 180 180
4.1 -17.0 10.5 177 177 177
4.3 -16.8 10.4 180 180 180
5.5 -16.9 10.4 209 212 211
5.8 -16.9 10.4 209 212 211
6.0 -16.9 10.4 209 212 211
7.2 -16.9 10.4 207 207 207
7.4 -16.8 10.4 205 205 205
7.7 -16.9 10.4 205 205 205
7.9 -16.9 10.4 205 205 205
8.2 -16.9 10.4 206 206 206
8.7 -16.9 10.4 206 206 206
8.9 -16.8 10.4 204 204 204
9.7 -16.9 10.4 206 206 206
9.9 -16.9 10.4 206 206 206
10.1 -16.9 10.4 206 206 206
10.3 -16.9 10.4 206 206 206
10.6 -16.9 10.4 206 206 206
10.8 -16.9 10.4 206 206 206
11.1 -16.9 10.4 206 206 206
11.3 -16.9 10.4 206 206 206
11.5 -16.9 10.4 206 206 206
12.0 -16.9 10.4 205 205 205
12.3 -16.9 10.4 205 205 205
12.5 -16.9 10.4 205 205 205
12.9 -17.0 10.5 205 205 205
13.0 -16.9 10.4 205 205 205
13.2 -16.8 10.3 205 205 205
13.5 -16.9 10.4 205 205 205
13.8 -16.9 10.4 205 205 205
14.0 -16.9 10.4 205 205 205
14.2 -16.8 10.3 205 205 205
15.4 -16.9 10.4 204 204 204
15.7 -16.9 10.4 202 202 202
15.9 -16.9 10.4 204 204 204
16.1 -16.9 10.4 206 209 208
57.3 -54.2 33.4 208 211 210
56.8 -53.0 32.6 208 211 210
57.4 -52.9 32.6 203 203 203
59.5 -54.1 33.3 204 204 204
58.0 -52.1 32.1 206 206 206
46.2 -40.0 24.6 207 207 207
-12.7 -25.6 16.0 187 189 189
-11.8 -24.6 15.4 186 188 187
-11.4 -25.2 15.7 177 177 177
57.7 -53.8 33.6 207 210 209
57.1 -52.5 32.8 207 210 209
63.2 -57.4 35.8 206 206 206
60.5 -54.2 33.8 206 206 206
58.0 -51.4 32.1 206 206 206
47.8 -40.7 25.4 207 207 207
-11.5 -25.2 15.9 175 177 177
-11.2 -25.3 16.0 167 167 167
58.0 -53.3 33.8 207 210 209
57.2 -51.9 32.8 207 210 209
64.8 -58.0 36.7 207 210 209
62.1 -54.9 34.8 207 210 209
59.7 -52.0 33.0 208 211 210
48.6 -40.8 25.8 204 204 204
-26.0 -16.9 10.9 40 42 42
-12.6 -26.2 16.9 188 188 188
-12.1 -26.0 16.7 180 180 180
-11.6 -25.8 16.6 169 169 169
57.6 -51.5 33.1 207 210 209
67.3 -59.3 38.1 207 210 209
66.3 -57.7 37.1 207 210 209
52.0 -43.5 28.0 206 206 206
50.1 -41.5 26.6 206 206 206
61.3 -26.2 16.8 168 168 168
61.3 -26.0 16.7 162 162 162
4.2 -15.6 10.2 207 207 207
4.4 -15.4 10.1 209 212 211
9.5 -15.7 10.3 207 210 209
9.7 -15.6 10.2 207 210 209
9.9 -15.5 10.1 207 210 209
10.1 -15.5 10.1 207 210 209
10.4 -15.6 10.2 207 210 209
10.6 -15.6 10.2 207 210 209
10.8 -15.6 10.2 207 210 209
12.8 -15.7 10.3 206 209 208
12.9 -15.5 10.1 206 209 208
13.1 -15.5 10.1 204 204 204
13.4 -15.5 10.1 206 209 208
13.6 -15.5 10.1 206 209 208
13.9 -15.6 10.2 205 208 207
14.0 -15.4 10.1 205 208 207
15.5 -15.6 10.2 205 208 207
71.6 -62.2 40.6 207 210 209
74.8 -64.1 41.9 207 210 209
73.8 -62.5 40.8 207 210 209
81.9 -35.8 23.4 186 186 186
62.8 -26.6 17.3 174 176 176
62.1 -26.1 17.0 168 168 168
61.9 -25.8 16.9 159 159 159
515.2 -208.6 136.1 131 133 132
12.9 -15.2 10.1 206 209 208
13.2 -15.1 10.0 205 208 207
78.1 -65.9 43.7 207 210 209
79.3 -66.1 43.8 207 210 209
80.8 -66.6 44.1 207 210 209
90.2 -69.8 46.3 208 211 210
97.9 -74.9 49.6 208 211 210
82.4 -35.7 23.6 188 188 188
82.5 -35.5 23.5 188 188 188
63.2 -26.3 17.4 175 177 177
62.8 -26.0 17.2 169 169 169
62.4 -25.7 17.0 161 161 161
-14.7 -15.4 10.4 30 29 29
-11.7 -14.9 10.0 53 52 52
78.4 -65.2 43.9 206 209 208
81.7 -67.1 45.1 206 209 208
528.1 -407.5 274.1 208 211 210
92.2 -70.3 47.3 208 211 210
98.5 -74.2 49.9 208 211 210
97.3 -72.5 48.8 208 211 210
83.5 -35.9 24.1 186 186 186
82.7 -35.3 23.7 186 186 186
82.9 -35.1 23.6 186 186 186
63.9 -26.2 17.6 173 175 175
63.3 -25.8 17.4 168 168 168
62.6 -25.4 17.1 162 162 162
-26.8 -15.9 10.8 26 26 26
-26.4 -15.8 10.8 26 26 26
-26.2 -15.8 10.8 29 31 29
-25.9 -15.8 10.8 54 54 54
-25.7 -15.8 10.8 74 74 74
-22.5 -15.9 10.9 7 13 9
-22.2 -15.9 10.8 10 10 10
-22.0 -15.9 10.9 30 31 30
-21.5 -15.9 10.8 64 64 64
-19.3 -15.9 10.9 71 71 71
-19.0 -15.9 10.9 65 65 65
-16.3 -16.0 10.9 29 29 29
-16.0 -15.9 10.9 29 29 29
-15.7 -15.9 10.8 29 29 29
-15.4 -15.9 10.9 26 26 26
-15.2 -15.9 10.8 29 29 29
-14.1 -15.9 10.8 131 133 132
-13.1 -15.9 10.8 74 74 74
-12.8 -15.8 10.8 97 96 94
-12.6 -15.9 10.8 131 131 131
-11.7 -15.9 10.9 81 84 83
-10.1 -15.9 10.8 54 53 52
76.3 -63.3 43.3 208 211 210
77.3 -63.3 43.3 208 211 210
78.9 -63.8 43.6 206 209 208
77.4 -61.8 42.2 206 209 208
94.3 -70.8 48.4 208 211 210
95.0 -70.4 48.1 208 211 210
94.4 -69.2 47.3 208 211 210
82.9 -34.8 23.8 188 188 188
82.9 -34.6 23.6 188 188 188
83.1 -34.4 23.5 188 188 188
63.5 -25.5 17.4 167 167 167
62.9 -25.1 17.1 161 161 161
62.6 -24.8 17.0 156 156 156
-30.7 -15.7 10.9 38 38 38
-30.5 -15.7 10.9 53 53 53
-30.3 -15.7 10.9 83 84 82
-30.0 -15.7 10.9 89 90 88
-29.8 -15.7 10.9 151 151 151
-29.5 -15.7 10.9 36 37 36
-29.3 -15.7 10.9 27 27 27
-29.0 -15.7 10.9 21 24 22
-28.8 -15.7 10.9 20 23 21
-28.5 -15.7 10.9 27 27 27
-28.3 -15.8 10.9 34 34 34
-28.0 -15.7 10.9 61 61 61
-27.7 -15.7 10.9 154 154 154
-27.5 -15.7 10.9 136 136 136
-27.2 -15.7 10.9 52 52 52
-27.0 -15.7 10.9 156 159 158
-26.7 -15.7 10.9 178 181 180
-26.5 -15.7 10.9 177 180 179
-26.2 -15.7 10.9 126 126 126
-26.0 -15.7 10.9 75 76 76
-25.7 -15.7 10.9 68 68 68
-25.4 -15.7 10.9 88 90 89
-25.2 -15.7 10.9 130 130 130
-24.9 -15.7 10.9 170 171 170
-24.7 -15.7 10.9 177 177 177
-24.4 -15.7 10.9 164 167 166
-24.2 -15.7 10.9 178 178 178
-24.0 -15.8 10.9 213 215 215
-23.7 -15.8 10.9 210 210 210
-23.4 -15.8 10.9 189 189 189
-23.2 -15.8 10.9 206 209 208
-22.9 -15.8 11.0 214 214 214
-22.7 -15.8 10.9 194 194 194
-22.4 -15.8 10.9 178 178 178
-22.2 -15.8 10.9 168 170 169
-21.9 -15.7 10.9 152 152 152
-21.6 -15.7 10.9 132 132 132
-21.4 -15.7 10.9 158 157 155
-20.6 -15.8 10.9 181 184 183
-20.4 -15.8 10.9 180 180 180
-20.1 -15.8 10.9 205 208 207
-19.9 -15.7 10.9 219 219 219
-19.6 -15.8 10.9 181 184 183
-19.4 -15.8 10.9 134 134 134
-19.1 -15.8 10.9 161 160 158
-18.9 -15.8 10.9 181 184 183
-16.6 -15.7 10.9 68 70 68
-16.3 -15.8 10.9 85 85 85
-16.1 -15.8 10.9 89 90 88
-15.8 -15.7 10.9 106 106 106
-15.6 -15.8 10.9 103 103 103
-15.3 -15.7 10.9 20 23 21
-15.0 -15.8 10.9 46 46 46
-14.8 -15.7 10.9 81 83 80
-14.5 -15.7 10.9 16 16 16
-14.3 -15.8 10.9 22 25 23
-14.0 -15.8 10.9 33 34 32
-13.8 -15.8 10.9 95 95 95
-13.5 -15.7 10.9 33 34 32
-13.2 -15.7 10.9 77 77 77
-13.0 -15.7 10.9 26 26 26
-12.7 -15.7 10.9 98 98 98
-12.5 -15.8 10.9 64 64 64
-12.2 -15.8 10.9 72 72 72
-12.0 -15.8 10.9 116 116 116
-11.7 -15.8 10.9 21 24 22
-11.5 -15.8 10.9 29 29 29
-10.5 -15.8 10.9 39 39 39
-10.2 -15.7 10.9 128 128 128
76.3 -62.3 43.3 208 211 210
77.2 -62.2 43.2 208 211 210
78.4 -62.3 43.3 208 211 210
78.1 -61.3 42.6 209 212 211
78.7 -61.1 42.4 209 212 211
85.9 -65.0 45.1 209 212 211
92.9 -68.6 47.6 210 213 212
93.3 -68.1 47.3 208 211 210
90.5 -65.3 45.4 206 206 206
88.2 -62.9 43.7 208 211 210
83.6 -34.6 24.0 185 185 185
82.9 -34.0 23.6 189 189 189
82.8 -33.8 23.5 189 189 189
80.3 -32.5 22.6 189 189 189
64.1 -25.3 17.6 165 165 165
63.2 -24.8 17.2 161 161 161
62.5 -24.4 16.9 156 156 156
62.0 -24.0 16.7 151 153 153
-15.8 -15.5 10.9 35 34 33
-15.7 -15.6 11.0 109 109 107
79.2 -63.6 44.9 208 211 210
79.9 -63.3 44.7 208 211 210
81.3 -63.6 44.9 208 211 210
82.6 -63.8 45.0 208 211 210
84.6 -64.6 45.6 209 212 211
99.4 -72.2 51.0 209 212 211
97.4 -70.0 49.4 210 213 212
82.9 -33.7 23.8 190 190 190
82.9 -33.5 23.6 190 190 190
82.6 -33.2 23.4 190 190 190
80.8 -32.2 22.7 190 190 190
63.4 -24.5 17.3 159 159 159
62.6 -24.0 17.0 153 155 155
61.9 -23.6 16.7 148 148 148
-26.5 -14.8 10.6 154 153 151
-26.2 -14.8 10.6 152 152 152
-26.0 -14.8 10.6 170 171 170
-25.7 -14.8 10.6 170 171 170
-25.5 -14.8 10.6 123 125 124
-25.2 -14.8 10.6 103 102 100
-25.0 -14.8 10.6 201 203 203
-24.7 -14.8 10.6 194 194 194
-24.5 -14.8 10.6 46 46 46
-24.3 -14.8 10.6 48 48 48
-24.0 -14.8 10.6 132 135 134
-23.8 -14.8 10.6 112 112 112
80.9 -63.1 45.3 208 211 210
81.9 -63.1 45.3 208 211 210
136.2 -101.0 72.5 209 212 211
103.6 -74.0 53.1 209 212 211
100.6 -71.0 51.0 210 213 212
34.1 -20.3 14.5 197 197 197
34.1 -20.1 14.4 197 197 197
84.1 -33.6 24.1 193 193 193
83.1 -33.0 23.7 193 193 193
82.7 -32.7 23.4 191 191 191
81.2 -31.8 22.8 191 191 191
63.7 -24.2 17.4 155 158 157
62.7 -23.7 17.0 155 155 155
62.3 -23.4 16.8 145 147 147
-25.5 -14.5 10.6 162 162 162
-25.3 -14.5 10.6 194 194 194
-25.0 -14.5 10.6 112 112 112
81.3 -61.6 44.9 208 211 210
83.2 -62.2 45.4 208 211 210
635.8 -446.8 326.1 209 212 211
34.1 -20.2 14.7 197 197 197
34.2 -20.0 14.6 197 197 197
34.3 -19.8 14.5 199 199 199
83.8 -33.0 24.1 194 194 194
83.3 -32.6 23.8 194 194 194
83.5 -32.4 23.6 192 192 192
82.0 -31.6 23.1 192 192 192
-16.5 -15.9 11.8 124 124 124
161.6 -115.8 86.0 208 211 210
709.2 -490.0 363.8 209 212 211
34.3 -19.9 14.8 197 197 197
34.4 -19.7 14.7 199 199 199
34.6 -19.7 14.6 199 199 199
83.3 -32.2 23.9 197 200 199
83.8 -32.2 23.9 193 193 193
84.0 -32.0 23.8 195 195 195
82.7 -31.3 23.3 190 190 190
85.5 -32.2 23.9 188 188 188
85.7 -32.0 23.8 175 175 175
85.6 -31.8 23.6 169 169 169
-16.9 -33.1 25.0 175 177 177
-16.5 -33.4 25.2 175 177 177
156.6 -110.3 83.3 208 211 210
83.6 -31.8 24.0 189 189 189
84.0 -31.7 23.9 184 187 186
84.2 -31.6 23.9 184 187 186
83.7 -31.2 23.6 181 181 181
86.4 -32.0 24.2 180 180 180
86.9 -31.9 24.1 169 169 169
86.9 -31.7 24.0 160 163 162
68.6 -24.5 18.5 136 136 136
-17.3 -33.2 25.5 154 154 154
-16.9 -33.6 25.8 90 90 90
-16.6 -34.3 26.3 87 87 87
173.9 -121.8 93.6 207 210 209
171.0 -118.3 90.9 208 211 210
85.2 -32.0 24.6 182 182 182
84.1 -31.4 24.1 181 181 181
84.0 -31.1 23.9 177 177 177
84.5 -31.1 23.9 174 176 176
88.0 -31.8 24.4 151 151 151
87.4 -31.4 24.1 141 143 142
69.5 -24.3 18.7 135 135 135
-17.7 -33.5 26.2 133 133 133
-17.4 -34.0 26.6 88 88 88
-17.3 -35.0 27.4 88 88 88
174.3 -118.4 92.7 212 213 212
759.1 -503.3 394.1 214 214 214
550.4 -360.6 282.3 214 214 214
622.0 -402.6 315.3 209 212 211
580.9 -371.7 291.0 215 215 215
276.8 -175.1 137.1 215 215 215
71.0 -24.4 19.1 130 130 130
69.8 -23.8 18.7 129 129 129
-20.5 -15.1 12.1 54 54 54
-18.1 -34.6 27.6 91 94 93
194.0 -131.0 104.5 212 213 212
558.7 -359.4 286.6 214 214 214
777.4 -494.1 394.1 214 214 214
276.8 -171.9 137.1 215 215 215
203.3 -124.8 99.6 209 212 211
178.4 -108.3 86.4 216 216 216
51.2 -17.6 14.0 121 121 121
70.8 -23.7 18.9 120 120 120
43.5 -14.4 11.5 125 125 125
-28.7 -20.2 16.4 52 52 52
-28.2 -20.2 16.4 52 52 52
-20.6 -14.9 12.1 50 50 50
-18.8 -35.4 28.8 91 94 93
-18.3 -35.6 29.0 90 92 91
191.9 -127.2 103.4 212 213 212
658.5 -415.7 337.8 214 214 214
510.2 -314.6 255.6 215 215 215
202.3 -121.9 99.0 215 215 215
176.8 -105.3 85.6 216 216 216
51.2 -17.3 14.0 112 112 112
44.2 -14.5 11.7 113 114 113
43.9 -14.3 11.6 116 116 116
44.2 -14.3 11.6 131 130 129
-21.3 -14.9 12.3 53 53 53
-19.8 -14.3 11.8 49 49 49
-18.6 -35.7 29.6 90 92 91
175.2 -102.4 84.8 218 218 218
51.5 -17.2 14.2 108 108 108
51.4 -17.0 14.1 109 109 109
44.6 -14.3 11.9 105 105 105
44.6 -14.2 11.8 92 95 94
44.6 -14.2 11.7 136 136 136
-20.8 -13.9 11.7 53 53 53
-20.5 -13.9 11.7 53 53 53
-20.2 -13.9 11.7 51 51 51
-20.1 -14.0 11.8 49 49 49
-19.7 -13.9 11.8 49 49 49
-19.1 -13.9 11.7 39 41 41
-18.9 -13.9 11.7 34 34 34
-19.1 -36.0 30.4 90 92 91
51.8 -16.8 14.2 103 105 105
44.9 -14.1 11.9 63 63 63
45.0 -14.0 11.8 153 155 155
-17.1 -12.1 10.5 57 56 55
-22.0 -39.1 33.7 95 95 95
44.5 -20.8 17.9 108 108 108
52.1 -16.6 14.3 99 99 99
45.0 -13.7 11.8 157 157 157
-17.0 -11.9 10.5 181 181 181
-16.8 -11.9 10.4 231 231 231
-22.9 -39.8 35.0 97 97 97
43.8 -20.1 17.6 115 115 115
52.7 -16.4 14.5 93 96 95
52.3 -16.2 14.3 86 86 86
-26.8 -17.8 16.0 147 147 147
-26.1 -17.6 15.8 182 181 179
-25.1 -17.2 15.4 228 228 228
-16.8 -11.6 10.4 230 230 230
-22.8 -40.2 36.1 96 99 98
43.3 -19.4 17.4 117 117 117
52.3 -15.9 14.2 79 82 81
-27.2 -17.7 16.2 211 211 211
-26.2 -17.3 15.8 227 227 227
-17.1 -11.4 10.5 232 232 232
-29.1 -52.3 47.9 115 114 114
-27.8 -52.0 47.6 19 19 19
43.4 -19.1 17.5 117 119 118
-27.5 -17.3 16.2 96 96 96
-27.1 -17.2 16.1 108 108 108
-26.3 -17.0 15.9 206 209 208
-17.0 -11.2 10.5 231 231 231
-16.7 -11.1 10.4 234 236 236
-29.5 -51.8 48.5 111 111 111
-28.3 -51.8 48.5 15 19 16
43.5 -18.7 17.5 110 112 111
-27.2 -16.7 16.0 73 73 73
-26.9 -16.7 16.0 86 88 88
-26.3 -16.6 15.9 216 216 216
-30.6 -52.7 50.4 116 118 117
-30.0 -53.7 51.4 15 19 16
-30.2 -56.3 53.9 20 20 20
321.3 -160.7 153.8 181 181 181
281.4 -139.2 133.2 194 194 194
43.3 -18.2 17.4 109 111 111
-21.5 -12.6 12.3 217 217 217
-21.2 -12.6 12.3 207 210 209
-20.8 -12.5 12.2 52 52 52
-31.6 -53.1 52.0 111 111 111
-31.4 -54.9 53.7 33 33 33
-31.3 -57.0 55.8 22 22 22
275.6 -149.8 146.6 218 218 218
332.1 -162.4 159.0 181 181 181
283.4 -137.0 134.2 194 194 194
43.2 -17.8 17.4 117 119 118
-21.5 -12.3 12.3 220 220 220
-21.2 -12.3 12.3 216 216 216
-20.7 -12.2 12.2 182 185 184
-35.1 -55.5 55.6 99 99 99
-31.6 -51.9 52.0 112 111 110
-31.4 -53.6 53.7 46 47 45
-30.7 -54.7 54.8 19 19 19
16.5 -10.2 10.2 218 218 218
337.7 -161.4 161.7 182 182 182
275.6 -130.2 130.5 194 194 194
-32.6 -52.4 53.7 112 112 112
-31.7 -52.8 54.2 43 43 43
-30.7 -53.3 54.7 13 17 14
349.7 -163.2 167.4 186 186 186
159.5 -72.0 73.9 200 200 200
-34.1 -55.6 58.4 28 28 28
-31.6 -53.6 56.3 20 20 20
174.9 -77.9 81.9 198 198 198
158.9 -70.1 73.6 200 200 200
-11.0 -10.2 10.9 34 34 34
-10.7 -10.1 10.9 34 34 34
-10.8 -11.3 12.2 36 39 38
176.4 -76.7 82.6 197 197 197
135.3 -57.6 62.0 200 200 200
162.9 -68.6 73.9 202 202 202
-11.0 -9.9 10.9 36 37 36
-10.6 -9.8 10.8 36 36 36
-10.8 -11.0 12.2 36 37 36
-10.1 -10.6 11.7 42 42 42
139.8 -58.6 64.8 198 198 198
133.1 -55.2 61.0 200 200 200
124.9 -51.3 56.6 202 202 202
-10.9 -9.6 10.9 36 37 36
-10.2 -9.4 10.6 36 36 36
-10.8 -10.7 12.1 37 40 39
133.1 -53.8 61.0 200 200 200
124.5 -49.8 56.5 200 200 200
-10.8 -10.5 12.2 37 40 39
-77.2 -128.9 150.1 180 183 182
-69.3 -121.2 141.2 182 185 184
16.3 -8.6 10.0 219 222 221
135.8 -53.4 62.2 200 200 200
-10.8 -10.2 12.2 37 40 39
-90.0 -139.9 167.4 166 169 168
-83.9 -136.2 163.1 180 183 182
-74.9 -127.5 152.6 181 184 183
16.4 -8.4 10.1 219 222 221
135.8 -52.0 62.2 200 200 200
-192.9 -279.4 343.9 29 29 29
-135.6 -204.9 252.2 164 164 164
-207.5 -304.6 386.0 161 161 161
39.8 -12.9 16.3 230 230 230
-47.7 -18.5 24.1 59 59 59
-47.4 -18.5 24.2 54 54 54
39.9 -12.5 16.4 230 230 230
-48.9 -15.7 21.2 73 74 72
-40.1 -15.4 20.7 50 50 50
-38.8 -15.1 20.3 49 48 47
-11.7 -8.4 11.4 41 41 41
-11.0 -8.1 10.9 41 43 42
40.6 -12.6 17.0 205 205 205
41.7 -12.8 17.3 203 203 203
40.5 -12.3 16.6 225 227 227
-59.4 -15.2 21.1 67 67 67
-58.9 -15.2 21.1 61 61 61
-58.5 -15.2 21.1 75 77 75
-58.0 -15.2 21.1 74 75 73
-57.5 -15.2 21.1 79 81 79
-57.0 -15.2 21.1 75 76 74
-49.4 -15.3 21.2 67 69 67
-48.6 -15.2 21.1 73 74 72
-48.2 -15.2 21.1 79 79 79
-47.7 -15.2 21.1 74 75 73
-47.2 -15.2 21.1 75 76 74
-46.7 -15.2 21.1 75 77 75
-46.2 -15.2 21.1 75 77 75
-45.8 -15.2 21.2 84 84 84
-40.5 -15.1 20.9 49 48 47
-39.6 -14.9 20.7 42 43 42
-10.9 -7.8 10.9 41 43 42
40.6 -12.2 17.0 204 204 204
41.3 -12.3 17.1 199 199 199
-39.5 -14.4 20.7 51 51 51
-10.9 -7.6 10.9 42 44 43
-10.5 -7.5 10.8 45 44 43
-10.2 -7.4 10.7 46 46 46
209.5 -274.3 394.1 224 226 226
229.7 -215.8 310.1 219 219 219
40.8 -11.9 17.1 206 206 206
41.5 -12.0 17.2 203 203 203
-10.5 -7.2 10.8 42 43 42
250.2 -227.3 337.8 219 219 219
40.7 -11.5 17.0 204 204 204
-339.7 -96.7 148.9 170 171 170
-309.5 -89.0 137.1 17 17 17
-238.8 -69.4 106.9 28 28 28
-302.5 -93.8 144.4 30 30 30
-283.1 -97.5 150.1 29 29 29
16.5 -6.5 10.0 220 223 222
17.1 -6.6 10.1 220 223 222
20.5 -7.6 11.6 220 223 222
21.4 -7.6 11.7 220 223 222
-376.8 -94.8 151.3 185 185 185
-367.4 -93.3 148.9 58 59 59
-361.1 -92.6 147.8 63 63 63
-357.7 -92.6 147.8 57 57 55
-354.2 -92.6 147.8 59 59 59
-350.8 -92.6 147.8 60 60 60
-342.0 -91.1 145.5 55 55 55
-343.9 -92.6 147.8 78 78 78
-345.9 -94.0 150.1 162 162 162
-353.6 -97.1 155.1 96 96 96
-326.0 -90.4 144.4 36 36 36
-344.1 -99.6 159.0 29 29 29
-316.5 -92.6 147.8 22 25 23
-315.5 -93.3 148.9 22 25 23
-312.0 -93.3 148.9 25 25 25
-289.1 -90.4 144.4 20 23 21
-286.7 -91.8 146.6 53 52 52
-322.4 -105.8 168.9 19 19 19
-297.2 -98.7 157.6 36 35 34
-271.0 -91.1 145.5 60 60 60
-271.8 -92.6 147.8 66 66 66
16.7 -6.4 10.3 220 223 222
16.5 -6.3 10.0 220 223 222
16.9 -6.3 10.1 220 223 222
17.1 -6.3 10.1 220 223 222
20.6 -7.3 11.7 220 220 220
21.5 -7.3 11.7 220 220 220
-444.4 -108.6 180.2 69 71 69
-428.0 -105.6 175.2 70 72 69
-427.9 -106.6 176.8 70 72 69
-423.8 -106.6 176.8 71 72 70
-380.5 -96.7 160.3 71 72 70
-355.7 -91.3 151.3 77 77 77
-396.6 -102.8 170.4 90 90 90
-435.8 -114.1 189.2 171 173 173
-388.7 -102.8 170.4 140 140 140
-331.0 -88.4 146.6 72 72 72
-375.7 -104.7 173.5 58 58 58
-349.2 -98.3 163.1 58 59 59
-399.0 -118.8 197.0 144 146 146
-323.7 -97.5 161.7 65 65 65
-343.4 -104.7 173.5 163 163 163
-300.7 -92.7 153.8 102 102 102
-368.5 -116.4 193.0 50 50 50
-318.5 -101.9 168.9 58 58 58
-285.2 -93.5 155.1 67 67 67
16.6 -6.1 10.1 222 224 224
16.9 -6.1 10.1 223 225 225
20.9 -7.2 12.0 222 224 224
20.9 -7.2 11.9 222 224 224
21.3 -7.2 11.9 220 220 220
21.6 -7.2 11.9 220 220 220
21.7 -7.2 11.9 221 221 221
22.1 -7.2 11.9 222 224 224
22.4 -7.2 11.9 222 224 224
-481.5 -114.3 197.0 75 75 75
-481.9 -115.5 199.1 74 74 74
-467.7 -114.3 197.0 75 75 75
-862.9 -219.4 378.3 63 63 63
-149.9 -39.7 68.5 73 73 73
-147.8 -39.6 68.3 69 71 69
-808.7 -223.8 386.0 66 66 66
-788.9 -228.5 394.1 75 76 74
-445.6 -130.6 225.2 64 64 64
16.7 -6.0 10.3 222 224 224
17.1 -5.9 10.2 222 224 224
20.2 -6.9 11.9 221 221 221
21.0 -7.0 12.0 221 221 221
21.5 -7.0 12.0 221 221 221
21.7 -6.9 12.0 221 221 221
21.9 -6.9 11.9 221 221 221
22.1 -6.9 11.9 221 221 221
22.4 -6.9 11.9 221 221 221
23.1 -7.0 12.0 223 225 225
-174.4 -40.5 72.8 74 74 74
-170.1 -39.9 71.7 75 75 75
-160.8 -38.8 69.8 75 76 76
-165.1 -41.1 73.9 74 75 73
-124.3 -32.3 58.0 67 67 67
16.7 -5.7 10.3 223 225 225
16.9 -5.7 10.3 221 221 221
21.1 -6.7 12.1 221 221 221
21.8 -6.8 12.2 221 221 221
22.0 -6.8 12.1 221 221 221
22.3 -6.8 12.1 221 221 221
22.5 -6.7 12.1 222 222 222
22.8 -6.7 12.1 222 222 222
23.3 -6.7 12.1 222 222 222
23.7 -6.8 12.1 223 225 225
16.8 -5.5 10.3 222 222 222
21.2 -6.5 12.2 222 222 222
22.0 -6.6 12.3 222 222 222
22.1 -6.5 12.2 222 222 222
22.4 -6.5 12.2 222 222 222
22.6 -6.5 12.2 222 222 222
22.9 -6.5 12.2 222 222 222
23.2 -6.5 12.2 222 222 222
23.5 -6.5 12.2 222 222 222
23.7 -6.5 12.2 222 222 222
24.0 -6.5 12.2 222 222 222
158.0 -34.9 65.5 198 198 198
132.1 -28.9 54.2 235 235 235
17.1 -5.2 10.1 222 222 222
21.2 -6.2 12.2 222 222 222
22.1 -6.3 12.4 222 222 222
22.2 -6.3 12.3 222 222 222
22.5 -6.3 12.3 222 222 222
22.9 -6.3 12.3 222 222 222
23.2 -6.3 12.3 224 224 224
23.6 -6.3 12.4 224 224 224
23.8 -6.2 12.2 224 226 226
153.3 -32.4 63.5 200 200 200
133.7 -28.0 54.8 227 230 229
21.0 -5.9 12.1 224 224 224
22.2 -6.0 12.4 221 221 221
23.5 -5.9 12.1 224 224 224
156.9 -31.6 65.0 198 198 198
135.6 -27.1 55.6 219 219 219
16.7 -4.8 10.3 221 221 221
21.0 -5.6 12.1 221 221 221
23.5 -5.6 12.1 222 222 222
16.7 -4.5 10.3 222 222 222
21.1 -5.3 12.1 222 222 222
20.6 -4.9 11.8 222 222 222
20.8 -4.9 11.8 220 220 220
23.6 -3.0 11.7 225 225 225
23.7 -2.7 11.7 222 222 222
23.8 -2.5 11.8 222 222 222
23.9 -2.4 11.7 226 226 226
23.9 -2.4 11.5 160 160 160
23.7 -2.2 11.7 224 224 224
23.7 -2.1 11.3 165 165 165
533.4 -31.2 168.9 93 93 93
23.6 -1.8 11.3 167 167 167
546.2 -37.2 230.7 197 197 197
544.0 -34.7 215.0 63 65 65
667.2 -38.7 239.4 77 77 77
640.3 -36.8 227.9 81 81 81
669.8 -38.2 236.5 87 89 88
661.4 -35.9 222.5 109 109 109
724.8 -38.2 236.5 53 52 51
721.3 -37.7 233.5 50 50 50
750.6 -38.7 239.4 70 69 68
615.9 -31.5 195.0 82 84 84
633.5 -32.1 199.1 75 75 75
739.3 -37.2 230.7 59 59 57
768.7 -38.2 236.5 33 33 33
746.3 -36.8 227.9 32 32 32
23.9 -1.6 11.6 225 225 225
24.0 -1.6 11.5 169 169 169
24.7 -1.6 11.6 154 156 156
693.0 -40.8 295.6 195 195 195
539.7 -31.5 227.9 200 200 200
531.9 -29.0 210.2 64 66 66
693.5 -34.4 248.9 77 77 77
648.1 -31.9 230.7 81 81 81
1138.4 -53.3 386.0 103 105 105
669.3 -31.1 225.2 110 110 110
724.8 -32.7 236.5 56 55 54
712.5 -31.9 230.7 50 50 50
919.7 -40.8 295.6 43 44 43
912.3 -40.2 291.0 152 152 152
597.4 -26.1 189.2 90 90 90
626.9 -27.2 197.0 78 78 78
757.8 -32.7 236.5 73 72 70
1017.7 -43.6 315.3 30 29 29
809.2 -34.4 248.9 32 32 32
755.4 -31.9 230.7 44 44 44
22.8 -1.3 11.6 220 223 222
23.1 -1.3 11.6 220 223 222
23.7 -1.3 11.7 220 223 222
23.8 -1.3 11.7 225 225 225
24.0 -1.3 11.6 220 223 222
24.7 -1.3 11.6 175 177 177
792.0 -38.8 337.8 198 198 198
810.9 -33.5 291.0 74 76 75
768.7 -28.6 248.9 51 51 51
1070.2 -39.5 343.9 36 37 36
1078.2 -39.5 343.9 188 188 188
558.3 -20.3 176.8 97 100 99
573.1 -20.7 180.2 83 83 83
1152.1 -41.0 356.9 30 30 30
991.9 -35.1 305.1 41 42 40
22.8 -1.1 11.6 222 224 224
23.1 -1.1 11.6 222 224 224
23.6 -1.1 11.7 222 224 224
23.8 -1.1 11.7 222 224 224
24.0 -1.1 11.6 222 224 224
24.7 -1.1 11.6 184 184 184
24.3 -1.0 11.3 186 186 186
1098.0 -36.1 394.1 79 79 79
1226.3 -36.1 394.1 33 35 33
23.8 -0.8 11.8 222 224 224
24.1 -0.8 11.2 194 194 194
24.0 -0.5 11.1 197 197 197
22.3 -0.2 10.5 198 198 198
79.0 1.0 20.7 173 173 173
80.1 2.0 21.2 90 90 90
78.5 1.9 20.6 165 168 167
81.7 2.5 21.6 90 90 90
79.0 2.4 20.7 161 161 161
87.4 3.3 23.2 91 91 91
83.0 3.1 21.9 93 93 93
18.1 1.7 10.5 212 213 212
18.0 1.7 10.4 216 216 216
87.5 3.8 23.3 88 88 86
18.1 2.0 10.7 206 206 206
18.1 2.0 10.5 211 211 211
18.0 1.9 10.4 217 217 217
-222.2 95.8 164.5 87 87 85
-189.8 84.7 145.5 78 78 78
36.1 16.5 10.2 100 100 100
35.9 16.9 10.2 98 97 95
36.0 16.8 10.2 100 100 100
36.2 16.8 10.2 100 100 100
36.4 16.8 10.2 103 103 103
