ply
format ascii 1.0
element vertex 2123
property float x
property float y
property float z
property uchar red
property uchar green
property uchar blue
end_header
196.6 -608.5 242.5 164 164 164
202.2 -608.5 242.5 164 164 164
207.9 -608.5 242.5 164 164 164
213.5 -608.5 242.5 164 164 164
219.1 -608.5 242.5 164 164 164
224.8 -608.5 242.5 164 164 164
230.4 -608.5 242.5 164 164 164
233.0 -600.8 239.4 167 167 167
238.6 -600.8 239.4 164 164 164
247.3 -608.5 242.5 164 164 164
249.7 -600.8 239.4 164 164 164
255.3 -600.8 239.4 164 164 164
264.2 -608.5 242.5 162 162 162
277.0 -624.5 248.9 159 159 159
275.5 -608.5 242.5 162 162 162
274.1 -593.3 236.5 162 162 162
283.1 -600.8 239.4 162 162 162
292.4 -608.5 242.5 162 162 162
290.6 -593.3 236.5 162 162 162
299.8 -600.8 239.4 162 162 162
317.5 -624.5 248.9 159 159 159
311.0 -600.8 239.4 159 159 159
337.9 -641.4 255.6 159 159 159
368.8 -687.8 274.1 159 159 159
103.4 -169.5 67.6 156 159 158
105.4 -170.1 67.8 156 159 158
107.7 -171.3 68.3 157 160 159
109.3 -171.3 68.3 154 156 156
110.1 -170.1 67.8 155 158 157
50.8 -209.9 84.4 163 163 163
52.7 -209.9 84.4 163 163 163
72.4 -209.9 84.4 167 167 167
74.3 -209.9 84.4 167 167 167
76.3 -209.9 84.4 167 167 167
78.3 -209.9 84.4 169 171 170
84.9 -211.8 85.2 164 164 164
85.7 -209.0 84.1 164 164 164
90.4 -210.9 84.8 162 162 162
90.8 -207.1 83.3 162 162 162
101.7 -213.7 86.0 162 162 162
101.8 -209.9 84.4 162 162 162
200.4 -405.4 163.1 162 162 162
108.2 -214.7 86.4 162 162 162
106.3 -207.1 83.3 162 162 162
129.7 -213.7 86.0 160 160 160
134.4 -211.8 85.2 157 160 159
134.0 -208.1 83.7 157 160 159
111.0 -83.7 33.7 105 104 102
62.8 -42.0 16.9 200 202 202
34.4 -193.3 78.5 159 159 159
36.3 -193.3 78.5 162 162 162
38.2 -194.1 78.8 158 158 158
40.1 -194.1 78.8 161 161 161
41.7 -193.3 78.5 164 164 164
43.6 -193.3 78.5 164 164 164
45.4 -193.3 78.5 163 163 163
47.2 -193.3 78.5 160 160 160
49.0 -193.3 78.5 163 163 163
50.9 -193.3 78.5 160 160 160
52.7 -193.3 78.5 163 163 163
54.5 -193.3 78.5 166 166 166
56.3 -193.3 78.5 166 166 166
58.1 -193.3 78.5 163 163 163
60.0 -193.3 78.5 167 167 167
61.8 -193.3 78.5 167 167 167
63.6 -193.3 78.5 167 167 167
65.4 -193.3 78.5 167 167 167
67.3 -193.3 78.5 167 167 167
69.1 -193.3 78.5 167 167 167
70.9 -193.3 78.5 167 167 167
72.7 -193.3 78.5 164 164 164
74.3 -192.5 78.2 164 164 164
76.4 -193.3 78.5 164 164 164
78.5 -194.1 78.8 164 164 164
79.7 -192.5 78.2 164 164 164
81.5 -192.5 78.2 164 164 164
83.7 -193.3 78.5 164 164 164
84.8 -191.7 77.8 165 165 165
87.0 -192.5 78.2 162 162 162
89.5 -194.1 78.8 162 162 162
91.7 -194.9 79.1 159 159 159
93.2 -194.1 78.8 162 162 162
94.2 -192.5 78.2 162 162 162
96.5 -193.3 78.5 162 162 162
99.5 -195.7 79.5 162 162 162
98.1 -189.4 76.9 162 162 162
101.1 -191.7 77.8 162 162 162
104.6 -194.9 79.1 162 162 162
112.0 -194.9 79.1 163 163 163
111.0 -190.1 77.2 163 163 163
127.1 -210.8 85.6 163 163 163
119.8 -195.7 79.5 163 163 163
119.2 -191.7 77.8 163 163 163
117.6 -186.3 75.7 160 160 160
124.3 -194.1 78.8 161 161 161
127.8 -196.5 79.8 161 161 161
123.4 -187.1 76.0 162 162 162
100.8 -74.8 30.4 105 104 102
95.8 -70.6 28.7 99 101 101
73.9 -52.9 21.5 99 101 101
59.8 -39.9 16.2 197 200 199
60.0 -39.5 16.1 172 172 172
59.6 -39.0 15.8 163 166 165
59.1 -38.4 15.6 212 213 212
69.6 -166.6 68.3 164 164 164
79.5 -167.2 68.5 162 162 162
81.0 -167.2 68.5 162 162 162
81.7 -165.4 67.8 165 165 165
82.4 -163.6 67.1 165 165 165
86.4 -168.4 69.0 162 162 162
85.3 -163.0 66.8 162 162 162
87.1 -163.6 67.1 165 165 165
91.9 -169.6 69.5 165 165 165
98.0 -169.0 69.3 163 163 163
108.5 -170.3 69.8 163 163 163
126.2 -192.3 78.8 164 164 164
113.4 -170.3 69.8 165 165 165
105.6 -156.4 64.1 165 165 165
91.9 -67.1 27.5 99 101 101
70.7 -50.2 20.6 96 99 98
70.2 -49.5 20.3 96 96 96
59.3 -38.9 15.9 204 204 204
59.4 -38.7 15.9 205 205 205
59.2 -38.4 15.7 215 215 215
59.0 -38.0 15.6 197 197 197
59.4 -38.1 15.6 197 197 197
59.9 -38.1 15.6 218 218 218
70.8 -141.9 58.7 165 165 165
66.2 -130.2 53.9 165 165 165
66.2 -127.7 52.8 165 165 165
66.8 -126.6 52.4 165 165 165
68.6 -127.7 52.8 168 168 168
88.3 -150.8 62.4 166 166 166
80.5 -135.2 56.0 166 166 166
53.4 -82.9 34.3 166 166 166
123.3 -188.9 78.2 167 167 167
127.8 -192.8 79.8 167 167 167
100.8 -147.9 61.2 165 165 165
89.6 -64.7 26.8 105 104 102
86.5 -62.1 25.7 99 101 101
68.3 -47.7 19.7 96 96 96
66.9 -46.1 19.1 96 96 96
58.6 -37.9 15.7 172 172 172
58.3 -37.4 15.5 209 209 209
57.8 -36.9 15.3 181 184 183
57.9 -36.7 15.2 218 218 218
58.2 -36.7 15.2 215 215 215
60.4 -117.6 49.1 168 168 168
59.5 -113.7 47.5 168 168 168
59.3 -111.2 46.5 168 168 168
63.2 -116.4 48.6 168 168 168
61.4 -111.2 46.5 168 168 168
76.2 -126.8 53.0 169 169 169
51.9 -81.1 33.9 169 169 169
51.5 -79.3 33.1 169 169 169
51.7 -78.4 32.8 170 171 170
120.0 -176.8 73.9 170 171 170
106.4 -154.5 64.6 172 172 172
87.9 -62.9 26.3 105 104 102
84.7 -60.2 25.2 99 101 101
63.5 -43.6 18.2 96 96 96
64.5 -44.0 18.4 96 96 96
63.1 -42.7 17.9 96 96 96
55.8 -35.3 14.7 212 213 212
55.0 -34.6 14.4 218 218 218
55.2 -34.5 14.4 218 218 218
21.8 -79.8 33.7 168 170 169
22.6 -79.8 33.7 168 170 169
23.4 -79.8 33.7 168 170 169
24.2 -79.8 33.7 166 166 166
24.9 -79.8 33.7 166 166 166
25.7 -79.6 33.6 167 167 167
26.5 -79.6 33.6 169 171 170
27.3 -79.9 33.7 169 171 170
28.1 -79.9 33.7 164 164 164
28.8 -79.6 33.6 167 167 167
29.6 -79.8 33.7 169 171 170
30.4 -79.8 33.7 169 171 170
31.2 -79.8 33.7 169 171 170
32.0 -79.8 33.7 169 171 170
32.8 -79.9 33.7 169 171 170
33.7 -80.0 33.8 169 171 170
34.4 -79.9 33.7 169 171 170
35.1 -79.8 33.7 169 171 170
35.8 -79.6 33.6 169 171 170
36.6 -79.6 33.6 170 172 172
37.6 -80.0 33.8 170 172 172
38.3 -79.9 33.7 172 174 174
38.9 -79.6 33.6 172 174 174
40.1 -80.3 33.9 170 172 172
40.7 -79.9 33.7 170 172 172
41.3 -79.6 33.6 170 172 172
42.2 -79.9 33.7 170 172 172
43.2 -80.2 33.8 170 172 172
43.9 -80.0 33.8 170 172 172
44.3 -79.3 33.5 170 172 172
45.0 -79.3 33.5 170 172 172
46.2 -80.0 33.8 170 172 172
47.0 -80.0 33.8 171 173 173
47.8 -80.0 33.8 171 173 173
49.3 -79.9 33.7 171 173 173
52.0 -80.5 34.0 173 175 175
51.9 -79.1 33.4 171 173 173
51.8 -77.8 32.8 172 174 174
53.1 -78.6 33.2 172 174 174
82.5 -58.1 24.5 99 101 101
80.2 -56.0 23.6 99 101 101
63.8 -43.1 18.2 96 96 96
62.2 -41.8 17.6 96 96 96
53.2 -33.1 14.0 215 215 215
53.5 -33.1 14.0 218 218 218
21.8 -78.8 33.6 168 170 169
22.5 -78.8 33.6 168 170 169
23.3 -78.8 33.6 168 170 169
24.1 -78.8 33.6 168 170 169
24.9 -78.8 33.6 168 170 169
25.6 -78.7 33.5 169 171 170
26.5 -78.8 33.6 169 171 170
27.3 -79.0 33.7 169 171 170
28.1 -79.0 33.7 169 171 170
28.7 -78.7 33.5 169 171 170
29.6 -78.8 33.6 169 171 170
30.4 -78.8 33.6 171 173 173
31.1 -78.8 33.6 169 171 170
32.0 -79.0 33.7 169 171 170
32.8 -79.0 33.7 171 173 173
33.7 -79.3 33.8 169 171 170
34.4 -79.1 33.7 171 173 173
35.0 -78.8 33.6 171 173 173
35.8 -78.7 33.5 169 171 170
36.6 -78.8 33.6 177 177 177
37.6 -79.3 33.8 177 177 177
38.3 -79.1 33.7 177 177 177
38.8 -78.6 33.5 172 174 174
40.0 -79.4 33.8 172 174 174
40.7 -79.1 33.7 180 180 180
41.1 -78.6 33.5 180 180 180
42.3 -79.3 33.8 180 180 180
43.3 -79.7 34.0 177 177 177
43.7 -79.0 33.7 177 177 177
44.2 -78.4 33.4 180 180 180
45.0 -78.6 33.5 177 177 177
46.2 -79.3 33.8 180 180 180
47.0 -79.3 33.8 181 181 181
47.8 -79.3 33.8 181 181 181
48.6 -79.3 33.8 181 181 181
49.3 -79.1 33.7 173 175 175
49.9 -78.8 33.6 173 175 175
50.6 -78.7 33.5 178 178 178
51.9 -79.5 33.9 178 178 178
51.6 -77.9 33.2 178 178 178
50.8 -75.6 32.2 179 179 179
53.0 -77.7 33.1 174 176 176
117.7 -170.1 72.5 172 174 174
78.2 -54.1 23.1 99 101 101
74.7 -51.3 21.9 96 96 96
71.6 -48.9 20.8 96 99 98
42.4 -26.6 11.3 207 207 207
42.5 -26.5 11.3 212 213 212
42.7 -26.5 11.3 219 219 219
25.3 -76.8 33.1 171 173 173
28.3 -76.7 33.0 176 176 176
29.9 -77.0 33.1 176 176 176
30.6 -76.8 33.1 169 171 170
31.5 -77.0 33.1 176 176 176
34.5 -76.8 33.1 184 184 184
37.2 -76.2 32.8 194 194 194
40.3 -77.6 33.4 192 192 192
39.5 -74.7 32.2 194 194 194
42.6 -77.6 33.4 196 196 196
42.8 -76.6 33.0 199 199 199
42.8 -75.2 32.4 203 203 203
43.3 -74.9 32.2 203 203 203
45.0 -76.4 32.9 196 196 196
46.1 -77.0 33.1 199 199 199
47.4 -77.8 33.5 196 196 196
47.7 -77.1 33.2 196 196 196
48.1 -76.4 32.9 196 196 196
48.3 -75.6 32.6 203 203 203
166.5 -252.6 108.7 199 199 199
50.7 -75.8 32.6 199 199 199
49.0 -72.2 31.1 195 195 195
51.9 -75.4 32.4 195 195 195
119.1 -170.3 73.3 197 197 197
72.3 -49.2 21.2 99 101 101
69.7 -47.1 20.3 99 101 101
42.4 -26.3 11.3 204 204 204
42.2 -26.1 11.2 191 191 191
42.4 -26.0 11.2 209 209 209
41.4 -25.3 10.9 218 218 218
41.1 -24.9 10.7 218 218 218
37.3 -69.7 30.3 203 203 203
36.8 -67.7 29.4 203 203 203
39.7 -69.1 30.0 203 203 203
39.1 -66.9 29.1 203 203 203
44.2 -73.1 31.8 203 203 203
45.6 -72.9 31.7 203 203 203
45.8 -72.1 31.4 203 203 203
44.7 -69.3 30.1 203 203 203
44.3 -67.6 29.4 203 203 203
40.5 -24.3 10.6 218 218 218
24.9 -66.1 29.0 203 203 203
25.4 -65.7 28.9 203 203 203
26.2 -65.9 29.0 203 203 203
26.8 -65.9 29.0 206 206 206
27.5 -65.9 29.0 206 206 206
28.2 -66.1 29.0 203 203 203
28.9 -65.9 29.0 203 203 203
29.5 -65.7 28.9 206 206 206
36.2 -67.1 29.5 203 203 203
38.9 -67.0 29.4 206 206 206
38.9 -65.8 28.9 206 206 206
40.1 -66.7 29.3 203 203 203
41.1 -67.3 29.6 203 203 203
42.0 -67.6 29.7 203 203 203
43.9 -67.3 29.6 203 203 203
43.7 -66.1 29.0 203 203 203
44.2 -65.7 28.9 203 203 203
48.6 -70.1 30.8 204 204 204
40.5 -69.0 30.6 206 206 206
40.8 -68.4 30.4 206 206 206
42.9 -69.4 30.8 206 206 206
43.4 -69.1 30.7 206 206 206
47.2 -72.7 32.3 206 206 206
45.3 -68.7 30.5 206 206 206
44.8 -67.0 29.7 206 206 206
45.1 -66.4 29.5 206 206 206
49.3 -71.4 31.7 206 206 206
47.8 -68.3 30.3 207 207 207
47.3 -66.6 29.6 207 207 207
26.6 -34.0 15.1 206 206 206
172.1 -124.6 55.3 120 120 120
50.8 -78.9 35.4 209 209 209
49.5 -75.5 33.8 206 206 206
47.0 -70.5 31.6 209 209 209
46.0 -68.0 30.5 206 206 206
50.3 -73.2 32.8 206 206 206
49.8 -71.5 32.1 206 206 206
48.4 -68.5 30.7 206 206 206
51.0 -71.0 31.8 206 206 206
27.9 -35.7 16.0 205 205 205
26.8 -33.8 15.2 206 206 206
46.0 -74.1 33.6 208 208 208
46.7 -74.0 33.5 208 208 208
51.0 -78.3 35.5 208 208 208
50.0 -75.5 34.2 208 208 208
48.8 -72.5 32.8 205 205 205
45.9 -67.2 30.5 205 205 205
50.4 -72.6 32.9 205 205 205
50.5 -71.7 32.5 205 205 205
48.3 -67.5 30.6 209 209 209
52.7 -72.6 32.9 206 206 206
53.6 -72.9 33.0 206 206 206
27.9 -35.4 16.0 205 205 205
27.0 -33.8 15.3 205 205 205
26.6 -32.9 14.9 206 206 206
40.0 -66.1 30.3 208 208 208
40.2 -65.3 29.9 208 208 208
45.3 -72.3 33.1 208 208 208
42.6 -65.8 30.1 208 208 208
49.5 -73.9 33.8 208 208 208
48.8 -71.7 32.8 208 208 208
45.7 -66.2 30.3 208 208 208
45.7 -65.2 29.8 208 208 208
49.9 -70.1 32.1 208 208 208
48.0 -66.4 30.4 210 210 210
47.5 -64.8 29.7 208 208 208
53.3 -71.7 32.8 206 206 206
49.2 -65.2 29.8 206 206 206
50.0 -65.4 29.9 206 206 206
27.9 -35.0 16.0 207 207 207
27.3 -33.8 15.5 207 207 207
26.6 -32.5 14.9 207 207 207
-9.5 -22.6 10.5 136 136 136
-9.3 -22.6 10.5 137 139 138
40.1 -65.6 30.4 207 207 207
41.2 -66.2 30.7 207 207 207
42.1 -66.4 30.8 207 207 207
42.7 -66.2 30.7 207 207 207
42.9 -65.5 30.3 207 207 207
48.0 -69.9 32.3 207 207 207
46.6 -66.8 30.9 207 207 207
46.5 -65.6 30.4 207 207 207
49.2 -68.3 31.6 207 207 207
48.1 -65.9 30.5 207 207 207
47.6 -64.3 29.7 208 208 208
53.1 -70.6 32.7 208 208 208
49.6 -65.1 30.1 210 210 210
50.6 -65.4 30.3 208 208 208
27.5 -34.1 15.8 206 206 206
27.1 -33.2 15.4 207 207 207
-30.2 -22.9 10.7 46 46 44
-30.1 -23.0 10.8 46 46 44
-29.8 -23.0 10.8 46 46 44
-29.6 -23.0 10.8 47 48 47
-29.3 -23.0 10.8 47 48 47
-29.1 -23.0 10.8 49 49 49
-28.8 -23.0 10.8 47 48 47
-28.6 -23.0 10.8 47 48 47
-28.3 -23.0 10.8 47 48 47
-28.1 -23.0 10.8 49 49 49
-27.8 -23.0 10.8 47 48 47
-27.6 -23.0 10.8 46 45 43
-27.3 -23.0 10.8 47 48 47
-27.1 -23.0 10.8 46 45 43
-26.9 -23.1 10.8 46 45 43
-26.6 -23.0 10.8 42 43 42
-26.3 -23.0 10.8 42 42 42
-26.1 -23.0 10.8 42 42 42
-25.8 -23.0 10.8 42 42 42
-25.6 -23.0 10.8 42 42 42
-25.3 -23.0 10.8 40 40 40
-25.1 -23.0 10.8 42 42 42
-24.8 -23.0 10.8 40 40 40
-24.6 -23.0 10.8 40 40 40
-24.3 -23.0 10.8 40 40 40
-24.1 -23.0 10.8 42 42 42
-22.3 -23.0 10.7 47 47 47
-21.9 -22.9 10.7 47 47 47
-21.8 -23.0 10.7 59 61 59
-20.8 -23.0 10.8 92 92 92
-20.6 -23.0 10.8 96 99 98
-20.3 -23.0 10.8 103 103 103
-19.7 -23.2 10.9 104 104 104
-19.3 -23.0 10.8 106 106 106
-19.1 -23.0 10.8 107 109 109
-18.6 -23.0 10.8 106 108 108
-18.3 -23.1 10.8 106 108 108
-18.0 -22.9 10.7 112 112 112
-17.7 -22.9 10.7 112 112 112
-17.5 -23.0 10.7 112 112 112
-15.4 -22.8 10.7 117 119 118
-10.0 -22.9 10.7 131 134 133
-9.7 -22.7 10.6 135 135 135
-9.5 -23.0 10.7 137 139 138
-9.3 -23.0 10.8 139 138 137
-5.5 -22.9 10.7 165 165 165
-4.5 -23.0 10.8 167 167 167
-3.8 -23.0 10.7 170 171 170
-3.5 -22.9 10.7 167 167 167
41.9 -66.6 31.2 207 207 207
44.3 -66.9 31.3 207 207 207
48.8 -71.3 33.4 206 206 206
48.6 -69.9 32.7 206 206 206
47.8 -67.7 31.7 206 206 206
49.2 -68.6 32.1 206 206 206
49.5 -68.1 31.8 207 207 207
48.7 -65.9 30.9 207 207 207
50.1 -66.8 31.3 207 207 207
53.3 -70.2 32.8 207 207 207
50.8 -65.9 30.9 207 207 207
52.1 -66.6 31.2 208 208 208
55.1 -69.6 32.6 205 205 205
27.3 -33.1 15.5 206 206 206
-30.5 -22.9 10.8 48 48 48
-30.3 -22.9 10.8 48 48 48
-30.0 -22.9 10.8 46 46 44
-29.7 -22.9 10.8 48 48 48
-29.5 -22.9 10.8 50 50 50
-29.2 -22.9 10.8 50 50 50
-29.0 -22.9 10.8 48 48 48
-28.7 -22.9 10.8 48 48 48
-28.5 -22.9 10.8 48 48 48
-28.2 -22.9 10.8 50 50 50
-28.0 -22.9 10.8 50 50 50
-27.8 -23.0 10.9 48 48 48
-27.5 -22.9 10.8 47 48 47
-27.2 -22.9 10.8 47 48 47
-27.0 -22.9 10.8 46 46 44
-26.7 -22.9 10.8 42 43 42
-26.5 -22.9 10.8 42 43 42
-26.2 -22.9 10.8 42 43 42
-26.0 -22.9 10.8 42 43 42
-25.7 -22.9 10.8 42 43 42
-25.2 -22.9 10.8 42 43 42
-25.0 -22.9 10.8 41 41 41
-24.7 -22.9 10.8 41 41 41
-24.5 -22.9 10.8 41 41 41
-24.2 -22.9 10.8 41 41 41
-23.5 -22.9 10.8 41 41 41
-23.2 -22.9 10.8 41 41 41
-23.0 -22.9 10.8 41 41 41
-22.7 -23.0 10.9 41 41 41
-22.4 -22.9 10.8 42 43 42
-22.1 -22.8 10.8 42 43 42
-21.9 -22.9 10.8 46 45 43
-21.7 -22.9 10.8 42 43 42
-21.4 -22.9 10.8 43 43 43
-21.2 -22.9 10.8 69 69 69
-20.9 -22.9 10.8 87 87 87
-20.7 -22.9 10.8 88 90 89
-20.4 -22.9 10.8 91 91 91
-20.2 -23.2 11.0 98 100 100
-19.8 -23.0 10.9 98 100 100
-19.4 -22.9 10.8 102 102 102
-19.1 -22.9 10.8 102 102 102
-18.9 -22.9 10.8 103 103 103
-18.7 -22.9 10.8 105 105 105
-18.4 -22.9 10.9 105 105 105
-18.1 -22.9 10.8 107 107 107
-17.8 -22.7 10.8 108 110 110
-17.6 -22.8 10.8 108 110 110
-16.7 -23.0 10.9 109 111 111
-16.5 -23.0 10.9 112 112 112
-16.2 -22.9 10.8 115 115 115
-15.8 -22.7 10.8 116 116 116
-15.5 -22.7 10.7 119 119 119
-10.4 -22.9 10.9 131 131 131
-10.1 -22.9 10.8 130 130 130
-9.7 -22.6 10.7 131 133 132
-9.6 -22.8 10.8 133 133 133
-9.4 -23.0 10.9 134 137 136
-9.1 -22.8 10.8 138 138 138
-8.9 -22.9 10.9 139 139 139
45.4 -68.9 32.6 208 208 208
45.4 -67.9 32.1 206 206 206
49.8 -72.0 34.1 206 206 206
48.8 -69.4 32.8 206 206 206
48.4 -67.9 32.1 206 206 206
49.9 -68.8 32.6 206 206 206
49.9 -67.9 32.1 206 206 206
49.0 -65.7 31.1 206 206 206
51.2 -67.5 32.0 207 207 207
53.7 -69.9 33.1 207 207 207
53.6 -68.8 32.6 207 207 207
54.3 -68.7 32.5 207 207 207
55.0 -68.6 32.4 207 207 207
55.6 -68.5 32.4 208 208 208
27.1 -31.2 14.8 206 206 206
-36.4 -27.0 12.9 48 48 48
-32.2 -27.0 12.9 47 46 45
-23.1 -23.1 11.0 42 43 42
-22.7 -22.9 11.0 42 43 42
-26.2 -27.0 12.9 44 44 44
-25.8 -26.9 12.9 44 44 44
-20.1 -23.1 11.0 97 97 97
-19.7 -23.0 11.0 95 95 95
-22.5 -27.0 12.9 98 100 100
-18.8 -23.1 11.0 99 101 101
-15.5 -22.5 10.8 109 111 111
-12.9 -27.0 12.9 120 120 120
-12.7 -27.0 12.9 121 120 119
-10.5 -22.9 11.0 124 124 124
-9.5 -23.1 11.1 128 130 129
-9.3 -23.1 11.1 133 133 133
50.4 -72.2 34.5 205 205 205
48.6 -68.4 32.7 205 205 205
48.6 -67.4 32.2 205 205 205
49.9 -68.1 32.6 205 205 205
49.8 -67.0 32.1 206 206 206
48.8 -64.7 31.0 206 206 206
50.1 -65.5 31.3 206 206 206
54.3 -69.9 33.4 206 206 206
54.4 -69.0 33.0 206 206 206
54.8 -68.5 32.8 207 207 207
55.1 -68.0 32.5 207 207 207
55.2 -67.3 32.2 207 207 207
56.5 -67.8 32.4 204 204 204
27.5 -32.6 15.6 205 205 205
26.8 -30.1 14.4 206 206 206
26.8 -29.8 14.3 206 206 206
-29.5 -21.6 10.5 49 49 49
-29.2 -21.6 10.5 52 52 52
-29.0 -21.6 10.5 52 52 52
-28.7 -21.6 10.5 54 54 54
-28.5 -21.6 10.5 54 54 54
-28.2 -21.6 10.5 52 52 52
-28.0 -21.6 10.5 52 52 52
-27.8 -21.6 10.5 52 52 52
-27.5 -21.6 10.5 52 52 52
-27.3 -21.6 10.5 52 52 52
-27.0 -21.6 10.5 54 54 54
-26.8 -21.6 10.5 54 54 54
-26.3 -21.6 10.5 52 52 52
-26.1 -21.6 10.5 49 49 49
-25.8 -21.6 10.5 48 47 46
-25.6 -21.6 10.5 48 47 46
-25.3 -21.6 10.5 44 44 44
-22.0 -21.7 10.5 43 43 43
-21.7 -21.7 10.5 38 38 38
-21.4 -21.6 10.5 43 43 43
-15.1 -21.6 10.5 111 111 111
-14.8 -29.2 14.1 112 112 112
9.7 -29.9 14.4 208 208 208
15.1 -29.2 14.1 208 208 208
15.3 -29.1 14.1 208 208 208
49.7 -70.3 34.0 207 207 207
49.1 -68.4 33.1 205 205 205
49.5 -67.9 32.8 205 205 205
50.4 -68.0 32.9 207 207 207
50.5 -67.2 32.5 205 205 205
48.6 -63.7 30.8 205 205 205
54.6 -69.5 33.6 206 206 206
55.7 -70.0 33.8 206 206 206
56.6 -70.1 33.9 206 206 206
56.2 -68.6 33.2 206 206 206
56.5 -68.0 32.9 206 206 206
57.6 -68.4 33.1 207 207 207
26.8 -29.9 14.5 205 205 205
27.0 -29.7 14.4 205 205 205
-15.1 -21.4 10.5 108 108 108
-14.6 -21.0 10.3 108 108 108
-14.9 -29.1 14.2 99 99 99
-14.6 -29.0 14.2 102 104 104
-14.2 -29.0 14.2 82 84 84
-13.9 -29.1 14.2 74 74 74
-13.7 -29.2 14.3 71 70 69
8.3 -29.3 14.3 208 208 208
9.5 -29.9 14.6 207 207 207
9.7 -29.5 14.5 207 207 207
10.1 -29.6 14.5 207 207 207
10.4 -29.8 14.6 207 207 207
10.7 -29.6 14.5 207 207 207
11.1 -29.8 14.6 207 207 207
12.0 -29.5 14.4 207 207 207
12.3 -29.4 14.4 207 207 207
12.7 -29.4 14.4 207 207 207
13.0 -29.5 14.4 207 207 207
13.4 -29.5 14.4 207 207 207
13.7 -29.5 14.4 207 207 207
14.1 -29.6 14.5 207 207 207
14.4 -29.5 14.4 207 207 207
14.7 -29.5 14.4 207 207 207
15.0 -29.5 14.4 207 207 207
15.3 -29.3 14.3 207 207 207
16.2 -29.8 14.6 207 207 207
18.4 -30.0 14.7 207 207 207
50.0 -69.9 34.2 207 207 207
49.5 -68.2 33.4 207 207 207
51.4 -68.7 33.6 204 204 204
50.1 -65.9 32.2 205 205 205
47.2 -60.2 29.5 205 205 205
54.9 -69.0 33.8 205 205 205
56.1 -69.7 34.1 202 202 202
57.7 -70.6 34.5 205 205 205
57.2 -69.0 33.8 206 206 206
57.4 -68.3 33.4 206 206 206
58.6 -68.8 33.7 206 206 206
59.9 -69.4 34.0 206 206 206
26.8 -29.5 14.5 204 204 204
27.0 -29.4 14.4 205 205 205
39.1 -21.6 10.6 129 132 131
-15.1 -21.2 10.5 103 103 103
-14.6 -20.8 10.3 103 103 103
-15.1 -29.1 14.4 21 24 22
-14.7 -29.0 14.4 21 24 22
-14.3 -28.9 14.3 28 28 28
-14.1 -29.0 14.4 27 27 27
-13.8 -29.1 14.4 27 27 27
8.0 -29.2 14.4 207 207 207
9.3 -31.4 15.5 207 207 207
9.7 -31.3 15.5 207 207 207
10.0 -31.1 15.4 207 207 207
9.8 -29.4 14.5 207 207 207
10.7 -31.1 15.4 210 210 210
11.1 -31.2 15.4 207 207 207
11.4 -31.2 15.4 207 207 207
11.8 -31.2 15.4 207 207 207
12.1 -31.1 15.4 210 210 210
12.5 -31.2 15.4 207 207 207
13.6 -31.3 15.5 207 207 207
13.1 -29.4 14.5 207 207 207
13.4 -29.3 14.5 207 207 207
14.2 -29.4 14.6 207 207 207
14.5 -29.3 14.5 207 207 207
14.8 -29.3 14.5 207 207 207
16.1 -31.2 15.4 207 207 207
16.3 -29.5 14.6 207 207 207
16.5 -29.3 14.5 207 207 207
19.8 -33.1 16.4 207 207 207
19.7 -31.2 15.4 206 206 206
20.5 -31.3 15.5 206 206 206
51.4 -67.8 33.5 206 206 206
49.6 -64.5 31.9 206 206 206
47.5 -60.9 30.1 207 207 207
46.5 -58.7 29.1 207 207 207
45.7 -56.9 28.1 205 205 205
45.6 -56.0 27.7 205 205 205
57.9 -70.0 34.6 207 207 207
57.8 -69.0 34.1 205 205 205
27.5 -29.2 14.5 204 204 204
27.8 -29.1 14.4 204 204 204
28.1 -29.2 14.4 205 205 205
1235.4 -796.4 394.1 184 184 184
1335.8 -780.2 386.0 175 175 175
-33.4 -23.7 11.9 53 53 53
-20.3 -23.6 11.8 46 46 46
-14.6 -20.5 10.3 97 97 97
-15.7 -32.8 16.4 28 28 28
-15.3 -32.8 16.4 25 25 25
-10.4 -24.0 12.0 30 29 28
-13.4 -32.8 16.4 40 40 40
3.4 -24.5 12.3 184 184 184
9.7 -31.0 15.5 210 210 210
10.0 -30.7 15.4 210 210 210
10.3 -30.7 15.4 207 207 207
10.7 -30.7 15.4 207 207 207
11.1 -30.8 15.4 207 207 207
11.4 -30.8 15.4 207 207 207
11.8 -30.8 15.4 207 207 207
12.1 -30.8 15.4 207 207 207
13.7 -32.7 16.4 206 206 206
14.0 -32.7 16.4 206 206 206
13.6 -30.9 15.5 206 206 206
14.8 -32.8 16.4 206 206 206
15.2 -32.7 16.4 206 206 206
15.5 -32.7 16.3 206 206 206
15.0 -30.8 15.4 206 206 206
15.3 -30.7 15.4 206 206 206
17.4 -32.7 16.4 206 206 206
16.8 -30.8 15.4 206 206 206
17.1 -30.7 15.4 206 206 206
18.6 -32.7 16.4 206 206 206
14.5 -24.5 12.3 206 206 206
19.7 -32.7 16.4 206 206 206
19.4 -30.9 15.5 206 206 206
19.6 -30.7 15.4 206 206 206
49.9 -65.0 32.6 206 206 206
49.4 -63.5 31.8 206 206 206
47.4 -60.1 30.1 206 206 206
46.2 -57.7 28.9 206 206 206
45.2 -55.7 27.9 206 206 206
45.3 -54.9 27.5 207 207 207
45.2 -54.1 27.1 207 207 207
27.5 -28.9 14.5 206 206 206
27.8 -28.9 14.5 204 204 204
28.1 -28.8 14.4 204 204 204
1118.9 -713.0 356.9 184 184 184
1109.4 -640.5 320.6 175 175 175
39.2 -21.2 10.6 138 138 138
-33.7 -23.7 12.0 56 56 56
-33.6 -23.8 12.0 57 57 57
-33.4 -23.8 12.0 59 60 58
-33.1 -23.8 12.0 59 60 58
-32.8 -23.8 12.0 59 60 58
-32.5 -23.8 12.0 59 60 58
-32.2 -23.8 12.0 57 57 57
-32.0 -23.8 12.0 59 60 58
-31.6 -23.8 12.0 59 60 58
-31.4 -23.8 12.0 59 60 58
-31.1 -23.8 12.1 62 62 62
-30.9 -23.8 12.1 59 60 58
-30.6 -23.8 12.0 59 60 58
-30.3 -23.8 12.0 57 57 57
-30.0 -23.8 12.0 57 57 57
-29.7 -23.8 12.0 54 54 54
-29.4 -23.8 12.0 53 52 52
-29.1 -23.8 12.0 53 52 52
-28.8 -23.7 12.0 51 51 49
-28.6 -23.8 12.0 47 48 47
-28.3 -23.8 12.0 47 48 47
-28.0 -23.8 12.0 47 48 47
-27.8 -23.8 12.0 47 48 47
-27.5 -23.8 12.1 47 48 47
-27.2 -23.8 12.0 47 48 47
-26.9 -23.8 12.0 47 48 47
-26.6 -23.8 12.0 47 48 47
-26.4 -23.8 12.1 48 48 48
-26.1 -23.8 12.0 48 48 48
-25.8 -23.8 12.0 48 48 48
-25.5 -23.8 12.0 47 47 47
-25.2 -23.8 12.0 47 47 47
-24.9 -23.8 12.0 47 47 47
-24.7 -23.8 12.1 48 48 48
-24.4 -23.8 12.1 49 49 49
-24.2 -23.8 12.1 47 48 47
-23.8 -23.8 12.0 45 45 45
-23.5 -23.8 12.0 45 45 45
-23.2 -23.7 12.0 43 43 43
-23.0 -23.8 12.1 43 43 43
-22.8 -23.9 12.1 41 41 41
-22.5 -23.8 12.1 41 41 41
-22.1 -23.7 12.0 42 42 42
-21.9 -23.8 12.0 42 42 42
-21.6 -23.8 12.0 42 42 42
-21.3 -23.8 12.1 41 41 39
-21.1 -23.8 12.1 41 41 39
-20.7 -23.7 12.0 41 41 39
-20.5 -23.8 12.0 42 43 42
-20.2 -23.8 12.0 47 47 47
-12.3 -23.7 12.0 27 27 27
-11.8 -23.8 12.1 29 31 29
-11.5 -23.8 12.1 29 31 29
-11.3 -23.9 12.1 29 30 28
-11.0 -23.9 12.1 29 30 28
-10.6 -23.6 12.0 29 30 28
-10.4 -23.9 12.1 31 31 31
-10.1 -23.8 12.1 33 33 33
-9.8 -23.7 12.0 43 43 43
-9.6 -23.9 12.1 155 155 155
-9.3 -23.9 12.1 182 182 182
-9.0 -23.8 12.1 186 188 187
-8.7 -23.8 12.0 184 187 186
-8.2 -23.8 12.0 225 225 225
-7.9 -23.8 12.0 225 225 225
-7.6 -23.8 12.0 224 224 224
-7.3 -23.8 12.1 224 224 224
-7.0 -23.8 12.0 222 222 222
-6.8 -23.8 12.1 220 220 220
-6.5 -23.8 12.1 220 220 220
-6.2 -23.8 12.1 215 218 217
-5.9 -23.7 12.0 215 218 217
-5.6 -23.8 12.0 215 218 217
-5.4 -23.9 12.1 214 216 216
-5.1 -23.9 12.1 211 211 211
-4.8 -23.9 12.1 211 211 211
-4.5 -23.8 12.1 210 210 210
-4.2 -23.8 12.0 207 207 207
-4.0 -23.8 12.0 207 207 207
-3.7 -23.8 12.1 207 207 207
-3.4 -23.8 12.1 205 205 205
-3.1 -23.7 12.0 203 203 203
-2.8 -23.7 12.0 203 203 203
-2.6 -23.9 12.1 199 199 199
-2.3 -23.8 12.1 199 199 199
-2.0 -23.8 12.0 197 197 197
-1.7 -23.8 12.0 197 197 197
-1.4 -23.8 12.0 197 197 197
-1.2 -23.8 12.1 197 197 197
-0.9 -23.8 12.0 197 197 197
-0.6 -23.7 12.0 197 197 197
-0.3 -23.8 12.0 197 197 197
-0.0 -23.8 12.0 197 197 197
0.2 -23.8 12.1 197 197 197
0.5 -23.7 12.0 197 197 197
0.8 -23.8 12.0 194 194 194
1.1 -23.9 12.1 194 194 194
1.4 -23.8 12.0 192 192 192
1.6 -23.8 12.0 192 192 192
1.9 -23.8 12.0 189 189 189
2.2 -23.7 12.0 189 189 189
2.5 -23.8 12.0 189 189 189
3.1 -24.0 12.2 186 186 186
3.3 -23.9 12.1 186 186 186
3.6 -23.6 12.0 184 184 184
5.9 -23.9 12.1 206 206 206
6.1 -23.8 12.1 211 211 211
6.4 -23.8 12.0 211 211 211
6.7 -23.7 12.0 209 209 209
7.3 -24.0 12.1 209 209 209
7.6 -24.0 12.1 209 209 209
7.8 -23.8 12.1 211 211 211
8.1 -23.8 12.1 211 211 211
8.4 -23.8 12.1 209 209 209
8.6 -23.8 12.0 209 209 209
8.9 -23.8 12.0 209 209 209
9.2 -23.7 12.0 209 209 209
9.5 -23.8 12.0 206 206 206
9.8 -23.8 12.0 209 209 209
10.0 -23.8 12.0 209 209 209
10.3 -23.8 12.1 209 209 209
10.6 -23.8 12.1 209 209 209
10.9 -23.8 12.1 206 206 206
11.2 -23.8 12.1 206 206 206
11.4 -23.8 12.0 206 206 206
11.7 -23.7 12.0 206 206 206
12.0 -23.7 12.0 206 206 206
12.3 -23.8 12.0 206 206 206
12.6 -23.8 12.1 206 206 206
12.9 -23.9 12.1 206 206 206
13.1 -23.8 12.1 206 206 206
13.4 -23.8 12.0 206 206 206
13.7 -23.8 12.0 206 206 206
14.0 -23.8 12.1 206 206 206
14.3 -23.8 12.1 206 206 206
14.5 -23.7 12.0 206 206 206
14.8 -23.8 12.1 206 206 206
15.1 -23.8 12.1 206 206 206
15.4 -23.8 12.0 206 206 206
15.6 -23.8 12.0 206 206 206
49.5 -63.8 32.3 205 205 205
49.1 -62.4 31.6 205 205 205
47.7 -59.7 30.2 206 206 206
46.4 -57.2 29.0 206 206 206
45.7 -55.6 28.1 206 206 206
45.3 -54.3 27.5 206 206 206
44.9 -53.1 26.9 206 206 206
45.8 -53.4 27.0 206 206 206
53.7 -61.7 31.3 207 207 207
28.0 -28.7 14.5 206 206 206
28.3 -28.7 14.5 206 206 206
28.7 -28.7 14.5 203 203 203
39.5 -21.1 10.7 138 138 138
-34.3 -23.8 12.2 57 57 57
-34.1 -23.8 12.2 59 61 59
-33.8 -23.8 12.2 59 61 59
-33.5 -23.8 12.2 62 62 62
-33.2 -23.8 12.2 57 57 57
-33.0 -23.8 12.2 59 61 59
-32.7 -23.8 12.2 58 58 58
-32.4 -23.8 12.2 55 55 55
-32.1 -23.8 12.2 59 61 59
-31.8 -23.8 12.2 59 61 59
-31.5 -23.8 12.2 63 63 63
-31.3 -23.8 12.2 63 63 63
-31.0 -23.8 12.2 59 61 59
-30.7 -23.8 12.2 59 61 59
-30.4 -23.8 12.2 58 58 58
-30.1 -23.8 12.2 53 53 53
-29.8 -23.8 12.2 55 55 55
-29.5 -23.8 12.2 53 53 53
-29.2 -23.8 12.2 52 52 50
-29.0 -23.8 12.2 52 52 50
-28.7 -23.8 12.2 48 48 48
-28.4 -23.8 12.2 53 53 53
-28.1 -23.8 12.2 52 52 50
-27.9 -23.8 12.2 48 48 48
-27.6 -23.8 12.2 48 48 48
-27.3 -23.8 12.2 48 48 48
-27.0 -23.8 12.2 49 49 49
-26.7 -23.8 12.2 49 49 49
-26.4 -23.8 12.2 49 49 49
-26.1 -23.8 12.2 49 49 49
-25.8 -23.8 12.2 49 49 49
-25.6 -23.8 12.2 49 49 49
-25.3 -23.8 12.2 47 48 47
-25.0 -23.8 12.2 50 50 50
-24.7 -23.8 12.2 48 48 48
-24.5 -23.9 12.2 50 50 50
-24.1 -23.8 12.2 48 48 48
-23.8 -23.8 12.2 46 46 46
-23.6 -23.8 12.2 46 46 46
-23.4 -23.9 12.3 44 44 44
-23.1 -23.9 12.2 47 47 47
-22.7 -23.8 12.2 42 43 42
-22.4 -23.8 12.2 42 43 42
-22.2 -23.8 12.2 41 41 39
-21.9 -23.8 12.2 41 41 39
-21.6 -23.8 12.2 42 42 40
-21.3 -23.8 12.2 42 42 40
-21.0 -23.8 12.2 40 40 40
-20.7 -23.8 12.2 40 40 40
-20.4 -23.8 12.2 43 42 41
-12.5 -23.8 12.2 30 31 30
-12.2 -24.8 12.7 29 31 29
-11.4 -23.8 12.2 33 33 33
-11.1 -23.8 12.2 29 31 29
-10.9 -23.9 12.2 32 32 32
-10.5 -23.8 12.2 33 33 33
-10.2 -23.8 12.2 35 37 36
-10.0 -23.8 12.2 34 36 36
-9.7 -23.9 12.2 158 158 158
-9.4 -23.8 12.2 187 189 189
-9.1 -23.8 12.2 186 188 187
-8.8 -23.8 12.2 190 190 190
-8.3 -23.9 12.3 226 229 228
-8.0 -23.8 12.2 226 229 228
-7.7 -23.8 12.2 226 229 228
-7.4 -23.8 12.2 224 226 226
-7.1 -23.8 12.2 224 226 226
-6.9 -23.8 12.2 225 225 225
-6.6 -23.8 12.2 224 224 224
-4.6 -23.8 12.2 212 214 214
-4.3 -23.8 12.2 209 212 211
-4.0 -23.8 12.2 212 214 214
-3.7 -23.8 12.2 209 212 211
-3.4 -23.8 12.2 209 209 209
-3.2 -23.8 12.2 209 209 209
-2.3 -23.8 12.2 205 205 205
-2.0 -23.8 12.2 205 205 205
-1.7 -23.8 12.2 202 202 202
-1.5 -23.8 12.2 202 202 202
-1.2 -23.8 12.2 198 198 198
-0.9 -23.8 12.2 198 198 198
-0.6 -23.8 12.2 198 198 198
-0.3 -23.8 12.2 199 199 199
-0.0 -23.8 12.2 199 199 199
0.2 -23.8 12.2 199 199 199
0.5 -23.8 12.2 196 196 196
1.7 -23.8 12.2 194 194 194
1.9 -23.8 12.2 194 194 194
2.2 -23.8 12.2 191 191 191
3.4 -23.8 12.2 189 189 189
3.6 -23.7 12.1 185 185 185
6.2 -23.9 12.2 209 209 209
6.5 -23.8 12.2 209 209 209
6.8 -23.8 12.2 209 209 209
7.7 -23.9 12.3 209 209 209
7.9 -23.9 12.2 209 209 209
8.2 -23.8 12.2 209 209 209
8.5 -23.8 12.2 209 209 209
8.8 -23.8 12.2 209 209 209
9.0 -23.8 12.2 209 209 209
9.3 -23.8 12.2 209 209 209
9.6 -23.8 12.2 208 208 208
9.9 -23.8 12.2 208 208 208
10.2 -23.8 12.2 208 208 208
10.5 -23.8 12.2 208 208 208
10.8 -23.8 12.2 208 208 208
11.0 -23.8 12.2 208 208 208
11.3 -23.8 12.2 206 206 206
11.6 -23.8 12.2 205 205 205
11.9 -23.8 12.2 205 205 205
12.2 -23.8 12.2 205 205 205
12.4 -23.8 12.2 205 205 205
12.8 -23.9 12.2 205 205 205
13.0 -23.8 12.2 205 205 205
13.3 -23.8 12.2 205 205 205
13.6 -23.8 12.2 203 203 203
13.9 -23.8 12.2 205 205 205
14.2 -23.9 12.2 208 208 208
14.4 -23.8 12.2 205 205 205
14.7 -23.8 12.2 205 205 205
15.0 -23.8 12.2 205 205 205
15.3 -23.8 12.2 207 207 207
15.6 -23.8 12.2 207 207 207
15.8 -23.8 12.2 207 207 207
49.4 -63.0 32.3 205 205 205
49.3 -61.9 31.7 205 205 205
47.6 -58.9 30.2 205 205 205
46.9 -57.1 29.3 205 205 205
46.8 -56.2 28.8 205 205 205
46.6 -55.3 28.3 206 206 206
44.9 -52.4 26.9 206 206 206
45.6 -52.6 26.9 206 206 206
52.5 -59.6 30.6 206 206 206
52.8 -59.1 30.3 206 206 206
71.7 -79.4 40.7 206 206 206
28.3 -28.7 14.7 205 205 205
29.5 -28.9 14.8 203 203 203
39.4 -20.8 10.7 138 138 138
39.7 -20.9 10.7 129 132 131
-34.6 -23.9 12.4 59 61 59
-34.3 -23.9 12.4 59 61 59
-34.1 -23.9 12.4 63 63 63
-31.8 -23.9 12.4 60 62 60
-31.5 -23.9 12.4 58 59 59
-30.6 -23.9 12.4 56 56 56
-27.1 -23.9 12.4 50 50 50
-26.7 -23.8 12.4 53 52 51
-26.2 -23.9 12.4 50 50 50
-23.2 -24.0 12.4 43 43 43
-22.2 -23.9 12.4 43 42 41
-12.2 -24.6 12.7 30 31 30
-11.2 -24.4 12.7 32 31 30
-10.7 -23.9 12.4 32 32 32
-10.3 -23.7 12.3 36 38 37
3.2 -24.5 12.7 190 190 190
6.4 -24.3 12.6 208 208 208
6.6 -24.0 12.4 208 208 208
8.4 -24.2 12.5 208 208 208
8.7 -24.2 12.6 208 208 208
9.0 -24.3 12.6 208 208 208
9.7 -24.5 12.7 208 208 208
10.0 -24.4 12.7 208 208 208
10.3 -24.4 12.7 208 208 208
10.9 -24.4 12.7 208 208 208
11.2 -24.4 12.7 208 208 208
11.4 -24.4 12.6 208 208 208
11.7 -24.4 12.7 205 205 205
12.1 -24.5 12.7 205 205 205
12.4 -24.5 12.7 205 205 205
13.2 -24.4 12.7 205 205 205
13.5 -24.4 12.7 205 205 205
13.8 -24.3 12.6 205 205 205
14.0 -24.3 12.6 205 205 205
14.7 -24.4 12.7 207 207 207
14.9 -24.2 12.6 207 207 207
15.3 -24.5 12.7 205 205 205
15.6 -24.5 12.7 207 207 207
15.9 -24.4 12.7 207 207 207
49.3 -61.1 31.7 204 204 204
47.7 -58.4 30.3 205 205 205
47.3 -57.0 29.6 205 205 205
47.6 -56.5 29.3 205 205 205
46.9 -54.8 28.4 205 205 205
52.2 -58.6 30.4 206 206 206
52.3 -57.9 30.0 206 206 206
27.8 -28.5 14.8 204 204 204
27.9 -28.3 14.7 204 204 204
28.2 -28.2 14.6 204 204 204
29.5 -28.5 14.8 205 205 205
29.4 -28.1 14.6 203 203 203
39.4 -20.6 10.7 138 138 138
-11.2 -24.0 12.6 36 39 38
-10.8 -23.8 12.5 28 28 28
-10.4 -23.6 12.4 34 34 34
-10.2 -23.9 12.5 42 43 42
3.2 -24.2 12.7 192 192 192
11.2 -24.1 12.7 207 207 207
11.4 -23.9 12.6 207 207 207
49.1 -60.1 31.6 204 204 204
48.5 -58.6 30.8 204 204 204
48.5 -57.7 30.3 204 204 204
48.2 -56.5 29.6 204 204 204
47.5 -54.9 28.8 205 205 205
46.6 -52.4 27.5 205 205 205
52.2 -57.9 30.4 205 205 205
52.2 -57.1 30.0 205 205 205
27.6 -27.9 14.7 204 204 204
27.8 -27.8 14.6 204 204 204
28.1 -27.8 14.6 200 200 200
28.4 -27.8 14.6 204 204 204
29.2 -27.9 14.6 207 207 207
29.3 -27.7 14.5 204 204 204
-11.5 -23.7 12.6 48 48 48
-11.2 -23.7 12.6 58 58 58
-10.8 -23.6 12.6 65 67 66
-10.5 -23.6 12.5 36 39 38
-10.3 -23.7 12.6 45 45 45
48.8 -59.1 31.4 205 205 205
46.9 -53.5 28.4 206 206 206
46.5 -51.0 27.1 204 204 204
69.6 -74.3 39.5 205 205 205
27.9 -27.5 14.6 206 206 206
28.5 -27.5 14.6 206 206 206
28.9 -27.6 14.7 204 204 204
29.2 -27.6 14.7 204 204 204
29.4 -27.4 14.6 204 204 204
-11.2 -23.5 12.6 27 27 27
-10.9 -23.4 12.6 99 101 101
-10.6 -23.4 12.6 26 26 26
-10.3 -23.5 12.6 42 43 42
-10.8 -25.2 13.6 184 184 184
-10.4 -25.1 13.5 183 186 185
45.8 -50.2 27.0 204 204 204
46.3 -50.1 26.9 204 204 204
46.8 -49.9 26.9 204 204 204
28.3 -27.3 14.7 205 205 205
28.9 -27.2 14.7 203 203 203
29.2 -27.2 14.7 203 203 203
-11.3 -23.3 12.7 38 40 40
-11.0 -23.3 12.7 84 84 84
-10.5 -23.5 12.8 50 49 48
-10.8 -24.9 13.6 183 183 183
-10.4 -24.8 13.5 182 185 184
45.5 -49.3 26.9 205 205 205
45.7 -48.8 26.6 206 206 206
46.4 -49.0 26.7 206 206 206
46.3 -48.2 26.3 204 204 204
45.2 -45.8 25.0 204 204 204
28.8 -27.1 14.8 205 205 205
29.4 -27.0 14.7 205 205 205
-11.3 -23.2 12.8 87 87 87
-10.4 -24.4 13.5 181 184 183
45.4 -48.6 26.8 205 205 205
45.9 -48.4 26.7 205 205 205
46.8 -48.7 26.9 205 205 205
46.5 -47.8 26.4 205 205 205
45.6 -46.2 25.5 206 206 206
45.2 -45.3 25.0 206 206 206
-10.7 -24.1 13.5 182 185 184
-10.4 -24.0 13.4 181 184 183
-10.1 -24.1 13.5 184 184 184
45.9 -48.5 27.1 204 204 204
46.3 -48.2 26.9 205 205 205
47.1 -47.8 26.7 205 205 205
45.9 -46.0 25.7 205 205 205
900.6 -422.9 236.5 114 116 115
-10.8 -24.0 13.6 181 184 183
-10.4 -23.9 13.5 180 183 182
-10.1 -23.9 13.6 178 181 180
46.4 -48.4 27.4 207 207 207
47.8 -47.8 27.1 204 204 204
45.8 -45.2 25.6 205 205 205
45.1 -44.0 24.9 205 205 205
43.1 -41.5 23.5 205 205 205
35.9 -32.1 18.2 203 203 203
36.3 -32.1 18.2 206 206 206
36.7 -32.1 18.2 204 204 204
1143.7 -530.0 300.3 114 116 115
-10.5 -23.7 13.6 179 182 181
-10.2 -23.7 13.6 179 182 181
53.4 -54.2 31.1 207 207 207
52.1 -52.1 29.9 207 207 207
46.6 -45.4 26.1 204 204 204
42.7 -40.6 23.3 204 204 204
36.2 -32.0 18.3 208 208 208
36.4 -31.8 18.3 205 205 205
37.0 -32.0 18.3 206 206 206
-10.6 -23.6 13.7 179 182 181
-10.3 -23.8 13.9 177 180 179
54.5 -54.6 31.7 206 206 206
43.3 -40.6 23.6 207 207 207
-11.1 -26.1 15.4 179 182 181
-11.2 -25.8 15.4 175 175 175
63.5 -59.5 35.6 206 206 206
-11.1 -25.4 15.4 180 180 180
-10.7 -25.2 15.3 162 162 162
63.5 -58.6 35.6 207 210 209
56.7 -51.6 31.3 207 210 209
47.0 -21.1 12.8 163 163 163
46.8 -20.9 12.7 151 153 153
46.6 -20.7 12.5 145 145 144
-11.1 -25.0 15.4 175 175 175
-10.7 -24.7 15.2 158 161 160
65.9 -62.4 38.4 206 209 208
63.4 -59.3 36.4 207 210 209
65.0 -59.9 36.9 207 210 209
64.3 -58.5 36.0 207 210 209
36.2 -26.7 16.4 188 188 188
47.1 -20.9 12.8 161 161 161
46.9 -20.6 12.7 151 151 151
46.5 -20.4 12.5 147 147 147
-11.6 -25.0 15.6 184 184 184
-11.2 -24.8 15.5 179 179 179
-10.8 -24.6 15.4 159 162 161
68.0 -63.4 39.6 206 209 208
64.3 -59.2 36.9 206 209 208
66.6 -60.5 37.8 207 210 209
65.4 -58.6 36.6 207 210 209
40.5 -30.0 18.7 185 185 185
40.9 -30.0 18.7 189 189 189
47.5 -20.6 12.9 153 153 153
47.2 -20.4 12.7 146 146 146
-11.8 -25.0 15.8 185 185 185
-11.3 -24.7 15.6 182 182 182
-11.2 -25.3 16.0 166 166 166
-10.9 -25.5 16.1 159 162 161
69.1 -63.6 40.2 204 204 204
69.5 -62.2 39.4 206 209 208
66.3 -58.6 37.1 206 209 208
41.8 -30.6 19.4 191 191 191
42.2 -30.5 19.3 191 191 191
42.8 -30.6 19.4 189 189 189
44.0 -30.8 19.5 189 189 189
43.3 -30.1 19.0 189 189 189
81.4 -37.4 23.7 183 183 183
48.4 -20.7 13.1 154 154 154
-11.5 -25.6 16.4 169 169 169
-11.2 -25.7 16.5 166 166 166
69.9 -63.3 40.7 205 208 207
71.0 -62.6 40.2 206 209 208
293.9 -237.4 152.6 207 210 209
358.0 -285.8 183.7 207 210 209
41.5 -29.9 19.2 191 191 191
42.2 -30.1 19.3 192 192 192
42.7 -30.2 19.4 189 189 189
44.0 -30.4 19.5 189 189 189
81.3 -36.8 23.6 184 184 184
80.1 -36.0 23.2 184 184 184
-11.8 -25.8 16.8 174 174 174
237.9 -221.3 144.4 207 210 209
196.3 -180.1 117.5 207 210 209
184.1 -166.6 108.7 208 211 210
193.3 -172.6 112.6 208 211 210
271.9 -216.4 141.2 206 206 206
290.4 -228.3 148.9 207 210 209
278.5 -216.4 141.2 207 210 209
223.4 -171.6 111.9 207 207 207
41.7 -29.6 19.3 192 192 192
42.4 -29.8 19.4 189 189 189
42.7 -29.7 19.4 189 189 189
81.3 -36.2 23.6 185 185 185
80.2 -35.5 23.2 185 185 185
61.6 -25.9 16.9 170 172 172
181.6 -164.1 108.7 207 210 209
167.8 -149.5 99.0 207 210 209
177.5 -156.0 103.4 208 211 210
179.9 -156.0 103.4 208 211 210
271.9 -213.1 141.2 209 212 211
214.5 -162.2 107.5 207 210 209
44.6 -30.9 20.5 192 192 192
81.0 -35.6 23.6 186 186 186
80.2 -35.0 23.2 186 186 186
78.9 -34.2 22.7 186 186 186
62.0 -25.8 17.1 173 175 175
61.5 -25.5 16.9 170 171 170
61.1 -25.1 16.7 160 163 162
61.7 -25.2 16.7 157 157 157
179.6 -159.7 107.5 207 210 209
157.8 -138.5 93.2 207 210 209
159.2 -137.8 92.7 207 210 209
165.4 -141.3 95.1 207 210 209
180.3 -152.0 102.3 208 211 210
284.7 -219.7 147.8 209 212 211
376.3 -286.9 193.0 209 212 211
292.7 -217.9 146.6 210 213 212
80.8 -34.9 23.5 188 188 188
80.0 -34.4 23.1 188 188 188
77.1 -32.9 22.1 188 188 188
60.5 -24.6 16.6 172 172 172
59.7 -24.2 16.3 161 164 163
60.3 -24.3 16.3 156 156 156
60.2 -24.1 16.2 153 153 153
-13.3 -28.7 19.6 174 174 174
190.4 -166.7 114.0 206 209 208
159.4 -137.7 94.1 207 210 209
162.4 -138.4 94.6 207 210 209
166.3 -139.8 95.5 207 210 209
497.9 -413.1 282.3 207 210 209
422.5 -345.9 236.5 207 210 209
750.0 -576.6 394.1 209 212 211
485.8 -369.0 252.2 209 212 211
542.3 -407.0 278.2 209 212 211
478.4 -354.8 242.5 209 212 211
406.0 -297.6 203.4 209 212 211
60.7 -24.3 16.6 168 168 168
59.6 -23.8 16.3 162 162 162
59.8 -23.7 16.2 156 156 156
60.0 -23.6 16.2 149 151 151
60.1 -23.5 16.1 146 146 146
-31.7 -18.5 12.9 152 151 149
-31.4 -18.5 12.9 184 187 186
-31.1 -18.5 12.9 177 180 179
-30.8 -18.5 12.9 126 126 126
-30.5 -18.5 12.9 78 80 78
-30.2 -18.5 12.9 87 88 86
-29.9 -18.5 12.9 78 80 78
-13.4 -28.4 19.7 174 174 174
427.5 -353.7 245.7 207 210 209
433.2 -353.7 245.7 207 210 209
417.3 -336.2 233.5 207 210 209
417.6 -332.1 230.7 207 210 209
408.0 -320.4 222.5 208 211 210
506.1 -378.3 262.7 209 212 211
594.8 -439.3 305.1 209 212 211
466.5 -340.5 236.5 207 210 209
449.5 -324.2 225.2 209 212 211
1171.3 -567.4 394.1 202 202 202
602.8 -289.7 201.2 200 200 200
77.7 -32.1 22.3 190 190 190
78.3 -32.2 22.3 190 190 190
78.6 -32.0 22.3 190 190 190
77.7 -31.5 21.9 186 186 186
60.7 -23.8 16.5 162 162 162
60.5 -23.6 16.4 156 156 156
60.3 -23.4 16.2 150 150 150
61.0 -23.5 16.3 145 145 144
-29.2 -16.7 11.8 153 152 150
-29.1 -16.8 11.9 186 188 187
-13.5 -28.3 20.0 162 162 162
-13.2 -28.7 20.3 138 140 139
433.2 -352.6 248.9 206 209 208
427.7 -343.5 242.5 207 210 209
422.5 -335.0 236.5 207 210 209
594.8 -432.2 305.1 214 214 214
466.5 -335.0 236.5 209 212 211
444.1 -311.6 220.0 209 212 211
75.8 -31.0 21.9 191 191 191
76.7 -31.2 22.0 191 191 191
77.9 -31.5 22.2 191 191 191
78.4 -31.5 22.2 191 191 191
78.0 -31.1 21.9 188 188 188
61.2 -23.6 16.7 159 159 159
60.8 -23.3 16.5 153 155 155
60.9 -23.2 16.4 150 150 150
61.7 -23.4 16.5 143 145 144
64.1 -24.1 17.0 138 138 138
64.8 -24.3 17.1 134 136 135
64.4 -24.0 16.9 128 130 129
-33.2 -18.8 13.5 151 151 151
-32.9 -18.7 13.5 168 168 168
-32.6 -18.7 13.5 169 169 169
-32.2 -18.7 13.5 141 143 142
-31.9 -18.7 13.5 97 97 97
-31.6 -18.7 13.5 193 193 193
-31.3 -18.7 13.5 196 196 196
-31.0 -18.7 13.5 33 32 30
-30.7 -18.7 13.5 39 41 41
-30.4 -18.7 13.5 129 129 129
-30.1 -18.8 13.5 113 114 113
-13.7 -28.1 20.2 181 184 183
417.0 -329.5 236.5 206 209 208
412.2 -321.4 230.7 207 210 209
428.0 -329.5 236.5 207 210 209
529.4 -387.6 278.2 208 211 210
449.8 -325.4 233.5 208 211 210
542.3 -387.6 278.2 208 211 210
460.7 -325.4 233.5 209 212 211
76.4 -31.0 22.2 193 196 195
75.9 -30.6 21.9 192 192 192
77.3 -30.9 22.2 192 192 192
78.2 -31.1 22.3 192 192 192
78.7 -31.1 22.3 192 192 192
78.6 -30.8 22.1 189 189 189
77.9 -30.4 21.8 186 186 186
61.8 -23.5 16.8 160 160 160
61.4 -23.2 16.6 154 154 154
61.5 -23.1 16.5 146 148 148
62.4 -23.2 16.7 141 141 141
63.8 -23.6 17.0 135 135 135
64.9 -23.9 17.1 129 132 131
64.6 -23.6 17.0 127 127 127
-17.5 -15.8 11.6 70 72 69
-17.1 -15.7 11.5 24 24 24
-16.4 -15.3 11.2 29 29 29
-13.9 -28.2 20.6 180 180 180
14.7 -14.4 10.5 209 209 209
383.4 -297.9 217.4 210 210 210
375.6 -288.0 210.2 206 209 208
393.6 -297.9 217.4 206 209 208
381.1 -284.8 207.9 207 210 209
455.7 -328.1 239.4 208 211 210
400.4 -284.8 207.9 208 211 210
428.9 -297.9 217.4 208 211 210
77.3 -30.6 22.3 194 197 196
77.7 -30.6 22.3 193 193 193
79.4 -31.0 22.7 193 193 193
79.9 -31.0 22.6 193 193 193
79.3 -30.6 22.3 190 190 190
79.1 -30.3 22.1 185 185 185
62.0 -22.9 16.7 139 141 140
63.8 -23.4 17.1 132 135 134
64.6 -23.5 17.2 132 135 134
65.8 -23.8 17.4 131 134 133
65.8 -23.7 17.3 129 129 129
-17.9 -16.0 11.9 75 77 75
-17.1 -15.5 11.5 43 43 43
-14.3 -28.5 21.2 179 179 179
13.7 -13.7 10.2 209 209 209
14.8 -14.3 10.6 208 208 208
15.0 -14.3 10.6 208 208 208
15.5 -14.3 10.6 208 208 208
365.8 -283.1 210.2 210 210 210
397.1 -303.3 225.2 210 210 210
412.2 -310.7 230.7 206 209 208
444.7 -330.9 245.7 206 209 208
456.3 -335.2 248.9 206 209 208
692.3 -490.0 363.8 207 210 209
455.5 -318.5 236.5 208 211 210
695.8 -480.7 356.9 208 211 210
484.6 -330.9 245.7 208 211 210
78.7 -30.6 22.7 195 198 197
78.6 -30.4 22.6 195 198 197
81.3 -31.0 23.0 191 191 191
79.7 -30.2 22.4 191 191 191
80.7 -30.4 22.6 186 186 186
81.8 -30.6 22.7 177 177 177
65.1 -23.5 17.4 134 137 136
65.7 -23.5 17.5 134 137 136
-28.9 -15.8 11.9 169 171 170
-28.6 -15.8 11.9 108 110 110
-28.3 -15.8 11.9 51 51 51
-28.0 -15.8 11.9 49 49 49
-18.0 -15.8 11.9 25 25 25
-17.1 -15.2 11.5 25 25 25
13.7 -13.5 10.2 208 208 208
401.9 -301.7 227.9 210 210 210
777.4 -521.6 394.1 212 213 212
81.7 -31.3 23.6 190 190 190
81.0 -30.8 23.2 182 185 184
82.3 -31.1 23.5 190 190 190
82.1 -30.8 23.3 188 188 188
84.7 -31.1 23.5 169 169 169
85.2 -31.1 23.5 168 168 168
67.6 -24.1 18.2 136 136 136
66.0 -23.4 17.6 134 134 134
66.5 -23.4 17.7 136 136 136
67.9 -23.8 17.9 134 134 134
-28.3 -15.2 11.7 183 183 183
-28.0 -15.2 11.7 98 98 98
-27.7 -15.2 11.7 45 45 45
-27.5 -15.2 11.7 29 31 29
-17.7 -15.2 11.7 29 31 29
-17.2 -15.0 11.5 85 87 87
433.2 -319.5 245.7 210 210 210
699.2 -455.5 350.3 214 214 214
86.5 -31.3 24.0 150 150 150
87.2 -31.3 24.1 140 142 141
67.9 -23.6 18.2 133 133 133
67.0 -23.2 17.8 129 132 131
68.3 -23.5 18.0 129 132 131
-28.6 -15.2 11.9 40 40 40
-28.6 -15.4 12.0 47 47 47
-28.3 -15.4 12.0 29 31 29
-18.0 -15.2 11.9 57 57 55
-18.1 -35.3 27.7 88 88 88
-17.5 -35.4 27.7 86 86 86
-16.7 -35.1 27.5 47 49 47
411.5 -302.0 236.5 209 209 209
401.9 -291.1 227.9 209 209 209
427.8 -305.8 239.4 210 210 210
716.7 -493.0 386.0 211 211 211
687.5 -455.8 356.9 211 211 211
768.3 -503.3 394.1 212 213 212
731.7 -473.7 370.9 212 213 212
563.5 -360.6 282.3 212 213 212
444.1 -280.9 220.0 214 214 214
87.9 -31.2 24.4 131 134 133
88.9 -31.3 24.5 131 134 133
69.5 -23.4 18.3 129 129 129
-29.0 -15.5 12.3 36 36 36
-29.9 -17.2 13.7 153 153 153
-29.3 -17.0 13.5 144 144 144
-19.1 -15.5 12.4 35 35 35
-18.2 -34.9 27.9 91 93 92
-17.5 -34.8 27.7 89 91 90
-16.7 -34.5 27.5 70 69 68
14.7 -13.3 10.6 202 204 204
15.0 -13.3 10.6 202 204 204
366.6 -260.6 207.9 212 213 212
371.4 -260.6 207.9 212 213 212
688.6 -465.1 370.9 214 214 214
750.0 -494.1 394.1 215 215 215
695.8 -447.5 356.9 212 213 212
601.9 -382.6 305.1 212 213 212
547.2 -343.7 274.1 212 213 212
449.4 -279.0 222.5 214 214 214
90.9 -31.5 25.1 116 118 117
92.2 -31.7 25.3 121 121 121
71.7 -24.1 19.2 122 122 122
70.9 -23.6 18.8 123 123 123
72.6 -24.1 19.2 124 124 124
73.7 -24.3 19.3 127 127 127
-29.9 -16.8 13.7 146 148 148
-19.6 -35.6 28.9 128 130 129
-18.3 -34.5 28.0 91 93 92
-17.7 -34.5 28.1 89 91 90
-17.1 -34.6 28.1 87 89 88
-17.1 -36.0 29.3 85 85 85
13.5 -12.6 10.2 210 210 210
13.7 -12.5 10.2 210 210 210
366.6 -255.8 207.9 212 213 212
678.5 -423.3 343.9 216 216 216
92.7 -31.5 25.6 112 112 112
93.6 -31.6 25.7 112 112 112
94.2 -31.6 25.7 113 114 113
71.7 -23.5 19.1 115 115 115
73.2 -23.8 19.3 118 120 119
74.1 -23.9 19.5 132 132 132
-30.2 -16.5 13.6 114 116 115
-29.8 -16.4 13.6 147 149 149
-29.3 -16.3 13.5 136 138 137
-28.9 -16.3 13.5 187 189 189
-20.6 -36.7 30.4 133 133 133
-18.5 -34.2 28.3 90 90 90
-17.8 -34.1 28.3 90 92 91
-17.5 -34.9 28.9 67 67 67
-17.3 -35.7 29.6 55 57 57
13.5 -12.3 10.2 210 210 210
13.7 -12.3 10.2 210 210 210
387.9 -265.6 220.0 212 213 212
93.7 -31.0 25.7 109 111 111
93.5 -30.8 25.5 109 111 111
73.8 -23.5 19.5 90 90 90
74.8 -23.7 19.6 144 144 144
-30.0 -16.2 13.7 147 149 149
-29.4 -16.1 13.6 149 151 151
-21.0 -36.7 31.0 123 125 124
-19.1 -34.7 29.3 94 94 94
-18.2 -34.1 28.8 93 93 93
-17.7 -36.0 30.4 37 38 37
406.8 -273.2 230.7 211 211 211
73.9 -23.1 19.5 65 65 65
74.9 -23.3 19.7 152 154 154
-23.4 -38.9 33.5 170 171 170
-22.2 -38.1 32.8 123 125 124
-21.6 -39.8 34.3 93 93 93
-20.1 -38.4 33.1 99 99 99
-19.2 -38.2 32.9 100 100 100
-24.0 -38.9 34.2 165 165 165
-22.8 -39.7 34.9 97 97 97
-22.0 -39.6 34.8 95 95 95
-21.2 -39.6 34.8 84 84 84
-20.4 -39.7 34.9 115 114 114
-19.5 -39.6 34.8 115 117 116
-22.2 -39.2 35.2 94 94 94
-21.4 -39.2 35.2 107 107 107
-20.8 -39.6 35.6 20 20 20
-19.8 -39.4 35.4 13 17 14
-21.8 -39.2 35.9 106 106 106
-25.0 -42.3 39.6 99 99 99
498.8 -306.1 286.6 218 218 218
438.9 -265.8 248.9 218 218 218
433.2 -260.0 248.9 218 218 218
397.1 -235.3 225.2 218 218 218
633.4 -324.0 310.1 218 218 218
718.5 -359.3 343.9 181 181 181
475.7 -235.3 225.2 196 196 196
348.2 -170.4 163.1 202 202 202
-33.2 -58.0 56.8 26 25 24
-32.0 -58.2 57.0 22 22 22
-29.0 -55.0 53.9 105 105 105
18.8 -11.7 11.4 217 217 217
396.6 -232.8 227.9 218 218 218
362.6 -210.0 205.6 218 218 218
666.1 -333.1 326.1 221 221 221
352.0 -174.1 170.4 218 218 218
718.5 -351.3 343.9 181 181 181
429.6 -207.8 203.4 196 196 196
339.5 -162.4 159.0 202 202 202
-32.6 -53.6 53.7 109 109 109
-33.1 -56.5 56.6 45 45 45
-31.7 -56.4 56.5 20 20 20
-29.1 -53.9 54.0 159 159 159
366.6 -207.5 207.9 219 222 221
443.9 -209.8 210.2 196 196 196
313.1 -146.4 146.6 200 200 200
247.5 -114.4 114.6 202 202 202
-33.7 -54.1 55.5 113 114 113
-33.6 -56.1 57.5 43 44 43
-31.6 -54.9 56.3 23 24 23
-28.9 -52.4 53.7 146 146 146
579.1 -267.3 274.1 194 194 194
308.4 -140.8 144.4 200 200 200
244.5 -110.4 113.3 202 202 202
-37.4 -58.6 61.6 110 110 108
-36.1 -58.8 61.8 30 29 29
-33.0 -56.1 58.9 20 20 20
-30.1 -53.3 56.0 165 165 165
464.6 -209.3 220.0 195 195 195
318.1 -141.8 148.9 200 200 200
-40.2 -61.4 66.1 112 112 112
-38.4 -61.0 65.7 30 29 29
-35.0 -58.0 62.4 22 22 22
454.0 -199.6 215.0 194 194 194
323.2 -140.5 151.3 198 198 198
-42.2 -65.4 72.2 27 27 27
643.9 -285.4 315.3 220 220 220
459.3 -196.8 217.4 179 179 179
320.6 -135.9 150.1 198 198 198
475.7 -198.6 225.2 174 174 174
315.6 -130.3 147.8 197 197 197
-89.1 -131.0 152.6 27 27 27
-81.0 -124.0 144.4 28 28 28
-82.0 -131.0 152.6 166 169 168
-76.6 -127.9 148.9 180 183 182
-72.6 -126.9 147.8 182 185 184
464.6 -188.9 220.0 176 179 178
308.4 -124.0 144.4 195 195 195
255.2 -101.5 118.2 200 200 200
-98.6 -141.1 168.9 31 33 33
-89.9 -133.9 160.3 30 30 30
-82.0 -127.5 152.6 166 169 168
-79.1 -128.5 153.8 179 182 181
470.1 -185.9 222.5 186 186 186
318.1 -124.4 148.9 193 193 193
258.4 -100.0 119.7 197 197 197
-164.1 -219.5 270.2 67 67 67
-130.0 -180.8 222.5 27 27 27
-124.8 -180.8 222.5 20 20 20
-109.3 -165.2 203.4 163 163 163
-102.4 -161.7 199.1 178 181 180
104.8 -284.5 350.3 152 152 152
336.6 -128.0 157.6 191 191 191
253.6 -95.4 117.5 195 195 195
-238.5 -298.5 378.3 93 93 93
-239.3 -310.9 394.1 53 56 55
-225.5 -304.6 386.0 36 37 36
-182.9 -257.3 326.1 27 27 27
-139.3 -204.5 259.1 158 158 158
106.8 -281.6 356.9 152 152 152
339.5 -125.4 159.0 186 186 186
249.0 -91.0 115.3 202 202 202
182.0 -301.8 394.1 222 222 222
454.0 -164.6 215.0 133 133 133
315.6 -113.2 147.8 157 157 157
320.6 -111.5 150.1 155 155 155
23.9 -9.6 13.7 219 222 221
25.4 -9.5 13.7 219 222 221
132.7 -37.2 53.4 91 91 91
24.2 -9.3 13.9 219 222 221
25.4 -9.6 14.2 219 222 221
24.8 -9.2 13.7 219 222 221
25.5 -9.2 13.7 219 222 221
132.4 -35.8 53.3 91 91 91
24.1 -9.0 13.9 219 222 221
25.1 -9.1 14.0 219 222 221
24.6 -8.8 13.6 219 222 221
25.5 -9.0 13.9 220 223 222
25.4 -8.9 13.7 220 223 222
130.5 -34.1 52.5 102 104 104
23.7 -8.4 13.5 220 223 222
24.5 -8.5 13.5 220 223 222
24.7 -8.4 13.5 220 223 222
25.2 -8.5 13.6 220 223 222
25.2 -8.4 13.4 220 223 222
128.7 -32.5 51.8 106 106 106
131.3 -32.2 51.4 72 72 72
23.8 -8.3 13.7 220 223 222
23.6 -8.1 13.4 220 223 222
24.4 -8.2 13.7 220 223 222
24.5 -8.2 13.6 220 223 222
25.2 -8.2 13.6 220 223 222
131.3 -31.9 52.8 112 114 113
23.4 -7.7 13.3 222 224 224
26.1 -8.5 14.6 222 224 224
24.6 -7.9 13.6 222 224 224
147.8 -36.2 62.4 203 203 203
131.3 -30.6 52.8 106 106 106
25.9 -8.2 14.7 222 224 224
26.1 -8.1 14.6 222 224 224
525.7 -138.5 248.9 75 76 76
299.2 -78.0 140.1 139 141 140
147.8 -34.7 62.4 203 203 203
140.5 -32.7 58.7 205 205 205
137.6 -31.7 57.0 197 197 197
143.2 -32.4 58.2 235 238 237
132.4 -29.7 53.3 109 109 109
142.9 -31.4 56.5 67 67 67
470.1 -118.7 222.5 108 108 108
308.4 -77.0 144.4 144 144 144
258.4 -63.9 119.7 167 167 167
146.9 -33.1 62.0 203 203 203
141.3 -31.5 59.1 205 205 205
139.7 -30.9 57.8 197 197 197
153.1 -33.2 62.2 236 239 238
138.6 -29.8 55.8 122 122 122
128.5 -27.3 51.3 73 75 75
147.3 -31.0 58.2 67 67 67
20.9 -5.6 11.0 223 225 225
459.3 -110.9 217.4 67 67 67
351.3 -83.9 164.5 143 143 142
256.8 -60.7 119.0 175 175 175
144.0 -30.7 60.2 205 205 205
25.2 -6.6 13.6 224 224 224
21.0 -5.4 11.2 224 224 224
20.9 -5.3 11.0 220 220 220
448.9 -103.5 212.5 77 77 77
315.6 -71.9 147.8 144 146 146
256.8 -57.9 119.0 168 170 169
144.5 -29.4 60.4 205 205 205
182.0 -182.7 394.1 222 222 222
20.9 -5.2 11.1 224 224 224
315.6 -68.5 147.8 122 122 122
174.8 -166.6 378.3 224 224 224
21.0 -4.9 11.2 225 225 225
21.1 -4.7 11.2 225 225 225
21.2 -4.7 11.2 225 225 225
413.3 -33.1 159.0 65 67 66
21.6 -1.9 10.4 217 220 219
423.0 -32.1 173.5 230 233 232
435.0 -32.6 176.8 222 222 222
419.7 -30.9 167.4 87 89 88
455.6 -32.6 176.8 70 70 70
413.3 -29.4 159.0 74 74 74
443.1 -31.2 168.9 66 68 67
21.6 -1.7 10.6 226 226 226
21.6 -1.7 10.5 218 221 220
21.6 -1.7 10.3 166 166 166
456.5 -30.2 187.3 222 222 222
484.9 -31.8 197.0 226 226 226
489.5 -31.8 197.0 101 101 101
423.5 -27.3 168.9 82 82 82
530.9 -33.6 207.9 64 66 66
473.3 -29.6 183.7 75 76 76
416.9 -25.9 160.3 75 76 76
447.1 -27.5 170.4 66 68 67
616.8 -32.5 201.2 55 54 53
642.0 -33.6 207.9 51 51 51
613.1 -31.8 197.0 54 53 52
554.2 -28.5 176.8 69 68 67
21.6 -1.5 10.6 227 227 227
21.6 -1.4 10.5 218 221 220
21.5 -1.4 10.3 168 168 168
570.9 -32.7 236.5 215 218 217
555.5 -31.5 227.9 215 215 215
567.7 -31.9 230.7 215 218 217
587.4 -32.7 236.5 104 104 104
603.9 -32.7 236.5 64 66 66
609.4 -32.7 236.5 74 74 74
427.7 -22.7 164.5 72 72 72
707.1 -31.9 230.7 55 54 53
695.5 -31.1 225.2 50 50 50
709.2 -31.5 227.9 44 46 46
20.5 -1.2 10.2 224 224 224
21.6 -1.2 10.6 219 222 221
21.6 -1.2 10.5 219 222 221
21.3 -1.2 10.2 167 167 167
581.9 -27.2 236.5 191 191 191
618.3 -28.6 248.9 98 100 100
733.9 -27.5 239.4 54 53 52
749.0 -27.9 242.5 50 50 50
840.9 -31.1 270.2 36 36 36
21.5 -1.0 10.4 220 223 222
24.0 -1.0 11.4 190 190 190
22.1 -0.7 10.9 220 223 222
22.0 -0.7 10.7 220 223 222
21.8 -0.7 10.6 220 223 222
24.0 -0.8 11.4 191 191 191
22.1 -0.5 10.9 222 224 224
22.0 -0.5 10.7 222 224 224
21.9 -0.5 10.6 222 224 224
24.1 -0.5 11.4 192 192 192
23.4 -0.5 10.9 194 194 194
23.4 -0.5 10.8 197 197 197
22.1 -0.2 10.9 222 224 224
21.9 -0.2 10.7 222 224 224
21.9 -0.2 10.6 219 222 221
23.9 -0.2 11.3 192 192 192
23.4 -0.2 11.0 195 195 195
23.3 -0.2 10.8 197 197 197
21.8 0.0 10.7 223 225 225
21.7 0.0 10.5 223 225 225
23.4 0.0 11.0 196 196 196
23.1 0.0 10.7 198 198 198
21.8 0.3 10.7 224 226 226
21.7 0.3 10.5 223 225 225
23.0 0.3 10.7 199 199 199
-199.6 3.8 80.2 60 60 60
-195.9 4.0 83.3 57 57 57
-178.4 4.0 83.3 56 57 55
-169.1 3.8 79.8 52 52 52
-160.5 3.8 80.2 52 52 52
21.9 0.5 10.7 224 226 226
23.3 0.5 10.9 197 197 197
23.2 0.5 10.7 199 199 199
88.7 1.1 23.7 86 86 86
85.5 1.1 22.7 86 86 86
-237.8 6.0 84.4 59 59 59
-240.1 6.1 86.0 59 59 59
-238.1 6.1 86.0 59 59 59
-236.1 6.1 86.0 62 62 62
-233.0 6.1 85.6 60 60 60
-232.1 6.1 86.0 60 60 60
-230.1 6.1 86.0 60 60 60
-228.1 6.1 86.0 61 61 61
-224.1 6.0 85.2 61 61 61
-222.1 6.0 85.2 61 61 61
-221.1 6.1 85.6 61 61 61
-218.1 6.0 85.2 59 59 59
-216.1 6.0 85.2 59 59 59
-214.1 6.0 85.2 59 59 59
-210.3 6.0 84.4 60 60 60
-202.3 6.0 85.2 57 57 57
-200.3 6.0 85.2 57 57 57
-197.4 6.0 84.8 57 57 57
-207.5 6.4 90.1 53 55 53
-198.8 6.2 87.2 54 56 54
-206.3 6.5 91.4 54 56 54
-203.2 6.5 90.9 54 56 54
-196.9 6.5 90.9 53 53 53
-181.6 6.0 84.8 53 53 53
-177.3 5.9 83.7 52 52 52
-186.3 6.5 90.9 51 51 51
-174.1 6.1 86.0 51 51 51
-169.1 6.0 84.4 52 52 52
-171.2 6.2 87.6 51 50 48
-179.6 6.7 94.1 48 48 48
-162.9 6.1 86.4 49 49 49
-159.4 6.1 85.6 49 49 49
-116.3 6.2 87.6 33 35 33
-114.2 6.2 87.6 45 47 46
-113.3 6.3 88.4 217 220 219
-111.2 6.3 88.4 52 52 52
-109.2 6.3 88.4 75 75 75
-107.1 6.3 88.4 73 73 73
22.0 0.8 10.9 223 225 225
22.0 0.8 10.8 220 220 220
21.6 0.7 10.5 222 222 222
23.9 0.8 11.3 195 195 195
23.3 0.8 10.9 195 195 195
23.3 0.8 10.8 198 198 198
82.5 1.6 21.9 89 89 89
81.3 1.5 21.5 90 90 90
-252.4 8.4 89.7 59 59 59
-250.3 8.4 89.7 59 59 59
-249.4 8.5 90.1 59 59 59
-246.2 8.4 89.7 59 59 59
-244.1 8.4 89.7 62 62 62
-242.0 8.4 89.7 63 63 63
-239.9 8.4 89.7 60 60 60
-237.8 8.4 89.7 60 60 60
-233.5 8.4 88.8 60 60 60
-232.7 8.5 90.1 58 59 59
-228.4 8.4 89.2 58 59 59
-228.5 8.5 90.1 59 59 59
-207.8 8.3 88.4 56 56 56
-207.7 8.4 89.2 56 56 56
-207.4 8.6 90.9 53 55 53
-206.3 8.6 91.4 53 55 53
-204.2 8.6 91.4 53 55 53
-198.8 8.7 91.8 53 52 52
-186.7 8.2 87.2 48 48 48
-180.5 8.0 85.2 49 49 49
-189.0 8.7 92.3 53 52 52
-180.7 8.4 89.2 51 51 51
-172.1 8.1 86.0 50 49 48
-179.9 8.6 90.9 50 49 48
-175.3 8.4 89.7 52 52 52
-181.5 9.0 95.1 48 48 48
-169.1 8.4 89.7 48 48 48
-166.2 8.4 89.2 52 52 50
-164.1 8.4 89.2 49 49 49
-162.0 8.4 89.2 53 52 51
-119.0 8.4 89.7 33 34 32
-117.5 8.5 90.1 44 44 44
-115.4 8.5 90.1 204 207 206
-113.3 8.5 90.1 60 60 60
-111.2 8.5 90.1 55 55 55
-109.1 8.5 90.1 54 54 54
-107.0 8.5 90.1 64 64 64
-105.0 8.5 90.1 59 59 57
-102.9 8.5 90.1 59 59 59
21.8 1.0 10.7 224 226 226
21.6 1.0 10.5 225 227 227
23.3 1.0 10.9 198 198 198
23.2 1.0 10.8 198 198 198
81.5 2.1 21.8 86 85 83
82.0 2.1 21.8 86 85 83
80.8 2.0 21.4 88 88 88
-173.5 7.2 61.6 58 59 59
-172.6 7.3 61.8 58 59 59
-171.2 7.3 61.8 59 59 59
-169.7 7.3 61.8 59 59 59
-167.7 7.2 61.6 59 59 59
-166.9 7.3 61.8 59 59 59
-164.9 7.2 61.6 60 60 60
-164.0 7.3 61.8 60 60 60
-162.5 7.3 61.8 60 60 60
-160.6 7.2 61.6 58 58 58
-160.2 7.3 62.0 58 59 59
-159.3 7.3 62.2 58 59 59
-158.4 7.3 62.4 58 59 59
-154.9 7.2 61.6 61 61 61
-152.4 7.2 61.2 58 59 59
-140.5 7.3 62.2 52 54 52
-136.3 7.2 61.0 53 55 53
-132.2 7.3 62.4 53 52 52
-127.0 7.1 60.6 53 53 53
-122.7 7.3 62.0 51 51 51
-117.5 7.1 60.8 47 48 47
-113.2 7.0 59.3 47 48 47
-77.8 7.3 61.8 70 70 70
21.6 1.2 10.5 225 225 225
23.3 1.3 10.9 199 199 199
23.2 1.3 10.7 199 199 199
22.6 1.2 10.4 202 202 202
83.1 2.6 22.2 87 86 84
82.7 2.6 22.0 88 88 88
82.8 2.6 21.9 90 90 90
84.8 3.2 22.7 87 87 85
83.8 3.1 22.3 90 90 90
84.2 3.1 22.2 92 92 92
23.6 1.8 11.0 200 200 200
61.8 2.7 16.4 91 91 91
887.4 92.1 394.1 200 200 200
716.2 68.0 291.0 71 73 73
681.0 64.1 274.1 184 187 186
985.9 90.2 386.0 194 194 194
975.0 88.4 378.3 195 195 195
975.0 97.2 378.3 195 195 195
157.4 20.8 59.5 48 48 48
333.9 60.4 129.6 185 185 185
338.5 64.3 131.4 186 186 186
-35.9 7.7 13.2 41 41 41
-35.5 7.7 13.2 148 148 148
-35.2 7.7 13.2 146 146 146
-34.9 7.7 13.1 141 141 141
-34.6 7.7 13.2 133 133 133
-34.3 7.7 13.2 124 127 126
-34.0 7.7 13.2 123 125 124
-33.1 7.7 13.2 137 139 138
-32.8 7.7 13.2 140 142 141
-32.5 7.7 13.2 138 140 139
-32.2 7.7 13.2 139 141 140
-31.9 7.7 13.2 141 143 142
-31.6 7.7 13.2 140 142 141
-31.2 7.7 13.2 135 135 135
-30.9 7.7 13.2 128 130 129
68.8 69.3 119.0 53 55 53
154.1 267.7 370.9 65 66 64
-426.1 140.9 151.3 130 130 130
-425.9 142.0 152.6 137 139 138
-422.4 142.0 152.6 145 145 144
-418.9 142.0 152.6 151 151 151
-405.0 140.9 151.3 154 156 156
-397.6 142.0 152.6 161 161 161
-394.0 142.0 152.6 158 161 160
-383.4 142.0 152.6 172 172 172
-379.9 142.0 152.6 168 168 168
-365.7 142.0 152.6 97 97 97
-362.1 142.0 152.6 102 102 102
-355.0 142.0 152.6 61 63 61
-348.7 140.9 151.3 59 59 59
-345.2 140.9 151.3 60 60 60
-344.4 142.0 152.6 60 60 60
-333.8 142.0 152.6 63 64 62
-325.0 139.8 150.1 59 60 58
-321.5 139.8 150.1 28 31 29
-319.6 142.0 152.6 26 26 26
-316.0 142.0 152.6 29 32 30
-312.5 142.0 152.6 27 30 28
-301.6 138.7 148.9 54 54 54
-293.6 136.5 146.6 92 92 92
-294.8 142.0 152.6 116 116 116
-266.4 142.0 152.6 112 112 112
-262.8 142.0 152.6 68 68 68
-246.7 140.9 151.3 24 24 24
-237.5 137.6 147.8 40 40 40
-220.3 142.0 152.6 67 67 67
-201.2 138.7 148.9 72 73 71
-196.2 137.6 147.8 75 75 75
-195.1 144.4 155.1 65 65 65
-189.9 143.2 153.8 65 65 65
-183.4 140.9 151.3 58 59 57
-128.5 138.7 148.9 166 166 166
114.2 153.1 164.5 22 22 22
-426.1 144.4 151.3 122 124 123
-463.3 158.3 165.9 130 130 130
-459.5 158.3 165.9 137 139 138
-455.6 158.3 165.9 144 144 144
-451.7 158.3 165.9 147 147 147
-447.9 158.3 165.9 152 152 152
-436.4 155.6 163.1 153 155 155
-436.3 158.3 165.9 155 158 157
-432.5 158.3 165.9 155 158 157
-428.6 158.3 165.9 157 160 159
-417.0 158.3 165.9 163 163 163
-412.9 159.7 167.4 160 163 162
-397.7 158.3 165.9 103 105 105
-397.4 159.7 167.4 97 96 94
-373.6 151.7 159.0 87 87 87
-363.8 149.2 156.3 75 76 76
-357.2 148.0 155.1 67 67 67
-375.2 157.0 164.5 60 60 60
-377.9 159.7 167.4 60 60 60
-370.7 158.3 165.9 62 64 61
-348.5 150.4 157.6 67 67 67
-363.0 158.3 165.9 68 68 68
-332.9 146.8 153.8 61 61 61
-329.3 146.8 153.8 45 45 45
-324.8 148.0 155.1 23 23 23
-346.8 159.7 167.4 24 24 24
-322.9 150.4 157.6 27 30 28
-308.9 145.6 152.6 27 30 28
-295.8 141.0 147.8 15 19 16
-297.1 146.8 153.8 17 21 18
-314.0 157.0 164.5 11 11 11
-299.7 151.7 159.0 27 30 28
-287.2 157.0 164.5 25 25 25
-285.9 158.3 165.9 13 13 13
-248.7 145.6 152.6 23 23 23
-243.1 144.4 151.3 36 37 36
-227.6 150.4 157.6 63 63 63
-232.1 161.2 168.9 68 70 68
-200.9 144.4 151.3 70 72 69
-197.4 144.4 151.3 72 73 71
-201.7 153.0 160.3 81 84 83
-196.3 151.7 159.0 152 154 154
-186.3 146.8 153.8 133 133 133
-149.7 161.2 168.9 115 117 116
-130.6 144.4 151.3 151 153 153
115.2 158.3 165.9 26 30 27
120.1 159.7 167.4 13 17 14
219.5 99.2 103.9 199 199 199
226.9 100.3 105.1 199 199 199
221.9 97.0 101.7 199 199 199
224.3 97.0 101.7 199 199 199
234.2 100.3 105.1 200 202 202
242.0 102.6 107.5 200 202 202
136.8 192.6 197.0 24 24 24
216.0 99.9 102.3 198 198 198
228.2 104.5 106.9 198 198 198
226.9 102.7 105.1 197 197 197
217.2 97.3 99.6 197 197 197
224.3 99.4 101.7 199 199 199
231.6 101.6 103.9 201 203 203
-587.4 394.4 394.1 55 55 55
211.6 315.5 315.3 83 83 83
-1086.9 395.3 386.0 22 22 22
-1100.4 403.5 394.1 23 23 23
-1091.2 403.5 394.1 24 24 24
-1082.0 403.5 394.1 30 30 30
-1072.9 403.5 394.1 38 38 36
-1063.7 403.5 394.1 66 66 66
-1054.6 403.5 394.1 88 88 86
-1045.4 403.5 394.1 126 128 127
-1036.2 403.5 394.1 139 141 140
-1027.1 403.5 394.1 139 141 140
-1017.9 403.5 394.1 154 156 156
-1008.8 403.5 394.1 154 154 154
-999.6 403.5 394.1 155 155 155
-990.4 403.5 394.1 156 156 156
-961.3 395.3 386.0 156 156 156
-952.3 395.3 386.0 143 145 144
-963.0 403.5 394.1 143 143 142
-953.8 403.5 394.1 131 133 132
-944.6 403.5 394.1 118 120 119
-935.5 403.5 394.1 101 101 101
-926.3 403.5 394.1 97 96 94
-898.4 395.3 386.0 91 91 91
-908.0 403.5 394.1 77 80 79
-898.8 403.5 394.1 55 55 55
-889.7 403.5 394.1 50 50 50
-880.5 403.5 394.1 53 52 51
-871.4 403.5 394.1 54 54 54
-844.6 395.3 386.0 56 56 56
-835.6 395.3 386.0 59 61 59
-843.9 403.5 394.1 62 62 62
-834.7 403.5 394.1 62 62 62
-634.3 387.4 378.3 14 14 14
-625.5 387.4 378.3 14 14 14
-629.3 395.3 386.0 16 20 17
-587.4 403.5 394.1 68 68 68
-566.4 395.3 386.0 69 69 69
-569.1 403.5 394.1 70 72 69
-505.0 403.5 394.1 67 67 67
-495.8 403.5 394.1 77 77 77
-476.7 395.3 386.0 236 236 236
-477.5 403.5 394.1 54 54 54
-458.8 395.3 386.0 30 29 29
-432.2 379.8 370.9 43 43 43
208.1 317.5 310.1 93 93 93
135.4 199.7 195.0 31 31 31
-660.7 412.7 394.1 14 14 14
-578.2 412.7 394.1 71 72 70
211.6 330.2 315.3 80 80 80
125.1 188.7 180.2 39 38 37
-132.4 80.0 66.1 86 87 85
36.7 15.6 10.2 108 110 110
36.8 15.6 10.2 108 110 110
31.0 17.0 10.8 104 104 104
38.7 17.0 10.8 107 107 107
39.5 17.0 10.8 115 115 115
31.1 17.3 10.8 101 101 101
37.9 17.4 10.8 99 99 99
38.7 17.4 10.8 104 104 104
38.8 17.3 10.8 107 107 107
39.5 17.4 10.8 108 110 110
39.6 17.3 10.8 115 115 115
39.9 17.4 10.8 123 123 123
40.2 17.4 10.8 126 128 127
31.3 17.9 11.0 106 108 108
31.1 17.6 10.8 101 101 101
37.3 17.5 10.8 95 94 93
37.6 17.6 10.8 97 96 94
37.9 17.6 10.8 102 102 102
38.7 17.6 10.8 107 107 107
38.8 17.5 10.8 107 107 107
39.6 17.7 10.9 107 107 107
39.7 17.6 10.8 111 113 112
40.2 17.6 10.8 121 121 121
31.0 17.8 10.8 112 112 112
30.8 17.5 10.6 64 63 61
37.1 17.6 10.6 97 96 94
37.4 17.6 10.7 99 99 99
37.6 17.6 10.7 99 99 99
38.2 17.6 10.7 104 104 104
38.3 17.6 10.6 107 107 107
39.1 17.6 10.6 108 110 110
39.3 17.6 10.6 115 115 115
