ply
format ascii 1.0
element vertex 2350
property float x
property float y
property float z
property uchar red
property uchar green
property uchar blue
end_header
100.2 -164.2 65.5 158 158 158
106.1 -171.3 68.3 158 158 158
111.4 -177.1 70.6 154 156 156
111.3 -174.5 69.5 159 159 159
112.1 -173.2 69.0 154 156 156
59.5 -85.8 34.2 153 155 155
60.0 -85.4 34.0 154 156 156
61.0 -85.7 34.1 154 156 156
62.4 -86.5 34.5 154 156 156
36.4 -195.9 78.8 159 159 159
38.2 -195.9 78.8 161 161 161
40.1 -195.9 78.8 161 161 161
41.9 -195.9 78.8 161 161 161
43.7 -195.9 78.8 161 161 161
45.6 -195.9 78.8 163 163 163
47.4 -195.9 78.8 163 163 163
49.2 -195.9 78.8 163 163 163
51.1 -195.9 78.8 163 163 163
52.9 -195.9 78.8 163 163 163
54.7 -195.9 78.8 163 163 163
56.6 -195.9 78.8 164 167 166
58.4 -195.9 78.8 164 167 166
60.2 -195.9 78.8 165 168 167
62.1 -195.9 78.8 165 168 167
63.9 -195.9 78.8 165 168 167
65.7 -195.9 78.8 165 168 167
67.6 -195.9 78.8 165 168 167
69.4 -195.9 78.8 165 168 167
71.2 -195.9 78.8 165 168 167
73.0 -195.9 78.8 165 168 167
74.9 -195.9 78.8 165 168 167
76.7 -195.9 78.8 165 165 165
78.2 -195.1 78.5 165 168 167
80.0 -195.1 78.5 165 165 165
82.2 -195.9 78.8 165 165 165
84.4 -196.7 79.1 165 165 165
85.9 -195.9 78.8 165 165 165
87.0 -194.3 78.2 162 162 162
88.8 -194.3 78.2 162 162 162
91.0 -195.1 78.5 162 162 162
93.2 -195.9 78.8 162 162 162
95.0 -195.9 78.8 163 163 163
96.9 -195.9 78.8 163 163 163
98.3 -195.1 78.5 163 163 163
98.9 -192.7 77.5 163 163 163
102.4 -195.9 78.8 160 160 160
105.1 -197.6 79.5 160 160 160
385.5 -712.5 286.6 160 160 160
112.5 -197.6 79.5 160 160 160
114.3 -197.6 79.5 161 161 161
117.1 -199.2 80.2 161 161 161
117.5 -196.7 79.1 161 161 161
115.0 -189.6 76.3 161 161 161
122.5 -195.9 78.8 161 161 161
124.3 -195.9 78.8 159 159 159
126.7 -196.7 79.1 162 162 162
125.9 -192.7 77.5 159 159 159
60.5 -85.3 34.3 157 160 159
61.5 -85.5 34.4 154 156 156
63.3 -86.9 35.0 154 156 156
64.8 -87.9 35.4 155 158 157
65.3 -87.4 35.2 155 158 157
34.5 -184.1 74.8 162 162 162
36.3 -184.1 74.8 161 161 161
38.0 -184.1 74.8 161 161 161
39.8 -184.1 74.8 161 161 161
41.5 -184.1 74.8 164 164 164
43.2 -184.1 74.8 163 163 163
45.0 -184.1 74.8 163 163 163
46.7 -184.1 74.8 163 163 163
48.4 -184.1 74.8 164 167 166
50.2 -184.1 74.8 164 167 166
51.9 -184.1 74.8 163 163 163
53.7 -184.1 74.8 164 167 166
55.4 -184.1 74.8 164 167 166
57.1 -184.1 74.8 165 168 167
58.0 -181.3 73.6 165 168 167
59.7 -181.3 73.6 165 168 167
61.4 -181.3 73.6 169 171 170
63.1 -181.3 73.6 165 168 167
64.8 -181.3 73.6 165 168 167
66.8 -182.0 73.9 165 168 167
68.5 -182.0 73.9 164 164 164
70.2 -182.0 73.9 164 164 164
71.6 -181.3 73.6 165 165 165
73.3 -181.3 73.6 165 165 165
76.2 -184.1 74.8 165 165 165
77.1 -182.0 73.9 165 165 165
79.1 -182.7 74.2 165 165 165
80.5 -182.0 73.9 165 165 165
81.6 -180.6 73.3 162 162 162
83.3 -180.6 73.3 162 162 162
86.3 -183.4 74.5 162 162 162
87.4 -182.0 73.9 162 162 162
89.1 -182.0 73.9 163 163 163
91.2 -182.7 74.2 163 163 163
92.2 -181.3 73.6 163 163 163
93.5 -180.6 73.3 163 163 163
96.3 -182.7 74.2 163 163 163
98.4 -183.4 74.5 163 163 163
99.4 -182.0 73.9 163 163 163
102.7 -184.8 75.1 163 163 163
107.0 -189.4 76.9 163 163 163
106.2 -184.8 75.1 164 164 164
108.4 -185.6 75.4 164 164 164
108.4 -182.7 74.2 161 161 161
110.6 -183.4 74.5 161 161 161
108.5 -177.1 71.9 161 161 161
119.5 -189.4 76.9 161 161 161
118.9 -185.6 75.4 162 162 162
121.1 -186.3 75.7 159 159 159
121.4 -184.1 74.8 162 162 162
118.9 -177.8 72.2 163 163 163
59.0 -82.4 33.5 157 160 159
59.3 -81.7 33.2 157 160 159
59.9 -81.4 33.1 158 161 160
64.5 -86.6 35.2 158 161 160
64.2 -85.2 34.6 158 161 160
62.5 -80.9 32.8 156 159 158
121.0 -91.0 36.9 105 105 105
118.4 -88.4 35.9 105 105 105
114.8 -85.2 34.6 103 103 103
59.9 -40.4 16.4 154 154 154
59.1 -39.7 16.1 194 197 196
64.1 -41.2 16.7 194 197 196
80.0 -155.9 63.9 166 166 166
74.5 -142.4 58.4 166 166 166
70.0 -131.5 53.9 166 166 166
100.9 -176.8 72.5 166 166 166
91.7 -158.0 64.8 166 166 166
90.1 -152.8 62.6 164 164 164
92.6 -149.8 61.4 164 164 164
82.0 -130.7 53.6 164 164 164
114.8 -177.5 72.8 165 165 165
117.3 -176.1 72.2 162 162 162
107.5 -159.1 65.2 163 163 163
97.5 -142.4 58.4 163 163 163
59.5 -82.3 33.7 162 162 162
59.7 -81.5 33.4 162 162 162
60.0 -80.8 33.1 162 162 162
62.4 -83.0 34.0 158 161 160
63.4 -83.3 34.1 158 161 160
63.2 -82.0 33.6 159 162 161
62.9 -80.7 33.1 159 162 161
63.6 -80.5 33.0 156 159 158
111.6 -82.5 33.8 105 105 105
108.5 -79.7 32.7 103 103 103
104.4 -76.1 31.2 103 103 103
58.1 -39.1 16.0 191 191 191
58.3 -39.0 16.0 157 157 157
58.4 -38.8 15.9 194 197 196
57.9 -38.3 15.7 194 197 196
61.4 -40.1 16.4 210 210 210
60.3 -39.1 16.0 212 213 212
60.4 -38.9 16.0 206 206 206
62.9 -40.0 16.4 218 218 218
43.0 -136.0 56.3 165 168 167
44.3 -136.0 56.3 165 168 167
45.6 -136.0 56.3 165 168 167
46.9 -136.0 56.3 165 168 167
48.3 -136.0 56.3 165 168 167
49.6 -136.0 56.3 165 168 167
50.9 -136.0 56.3 165 168 167
52.3 -136.4 56.5 165 168 167
53.8 -136.8 56.6 164 164 164
54.6 -135.6 56.1 165 165 165
61.3 -136.0 56.3 162 162 162
62.3 -135.2 56.0 162 162 162
72.0 -136.4 56.5 166 169 168
78.8 -141.5 58.6 166 166 166
78.9 -139.3 57.7 166 166 166
81.3 -141.1 58.4 166 166 166
83.4 -142.4 58.9 166 166 166
83.4 -140.2 58.0 168 170 169
68.1 -105.8 43.8 164 164 164
124.9 -191.2 79.1 168 168 168
135.2 -204.0 84.4 165 165 165
130.7 -194.5 80.5 165 165 165
96.9 -140.2 58.0 166 166 166
60.1 -82.3 34.1 164 164 164
60.6 -81.9 33.9 165 165 165
61.1 -81.6 33.8 165 165 165
63.5 -83.7 34.6 163 163 163
64.3 -83.7 34.6 163 163 163
64.9 -83.4 34.5 159 162 161
65.6 -83.2 34.5 159 162 161
85.1 -106.8 44.2 156 159 158
105.6 -76.8 31.8 103 103 103
100.7 -72.8 30.1 103 103 103
57.5 -38.1 15.8 154 154 154
57.7 -38.0 15.7 194 194 194
57.4 -37.6 15.6 197 200 199
59.3 -38.1 15.8 210 210 210
59.1 -37.7 15.6 180 183 182
59.7 -37.9 15.7 218 218 218
60.6 -38.2 15.8 216 216 216
27.4 -91.4 38.2 164 167 166
28.3 -91.4 38.2 164 167 166
29.2 -91.4 38.2 165 168 167
30.1 -91.4 38.2 165 168 167
31.0 -91.4 38.2 165 168 167
31.9 -91.4 38.2 165 168 167
32.8 -91.4 38.2 165 168 167
33.6 -91.4 38.2 165 168 167
34.5 -91.4 38.2 165 168 167
35.4 -91.4 38.2 165 168 167
36.3 -91.4 38.2 165 168 167
37.2 -91.4 38.2 165 168 167
38.1 -91.4 38.2 165 168 167
38.9 -91.3 38.1 165 168 167
39.9 -91.6 38.3 165 168 167
40.8 -91.6 38.3 166 169 168
41.6 -91.4 38.2 166 169 168
42.5 -91.4 38.2 166 169 168
43.3 -91.3 38.1 166 169 168
44.2 -91.3 38.1 166 169 168
51.6 -93.3 39.0 170 172 172
50.9 -90.5 37.8 170 172 172
55.8 -91.4 38.2 168 170 169
60.9 -92.4 38.6 169 171 170
60.1 -81.6 34.1 170 171 170
60.4 -80.8 33.8 168 168 168
61.1 -80.8 33.8 168 168 168
63.2 -82.4 34.5 166 166 166
64.0 -82.4 34.5 166 166 166
96.7 -69.2 28.9 105 105 105
53.8 -34.7 14.5 180 183 182
52.7 -33.7 14.1 188 188 188
56.7 -35.8 15.0 218 218 218
55.9 -35.1 14.7 218 218 218
56.4 -35.2 14.7 216 216 216
48.8 -87.5 36.9 170 172 172
48.3 -85.1 35.9 175 175 175
48.7 -84.4 35.6 170 172 172
51.3 -87.4 36.9 175 175 175
52.2 -87.4 36.9 175 175 175
53.2 -87.7 37.0 176 176 176
52.4 -84.9 35.8 171 173 173
59.0 -90.0 38.0 168 170 169
59.6 -89.5 37.8 177 177 177
59.7 -88.4 37.3 172 174 174
29.9 -41.9 17.7 170 172 172
60.1 -81.8 34.5 171 173 173
60.4 -79.1 33.4 172 174 174
61.8 -79.9 33.7 172 172 172
53.1 -33.9 14.3 194 197 196
49.2 -30.8 13.0 218 218 218
54.7 -34.0 14.4 218 218 218
53.9 -33.3 14.1 218 218 218
21.6 -81.1 34.6 168 170 169
22.4 -81.3 34.6 164 167 166
23.3 -81.3 34.6 164 167 166
23.8 -80.6 34.3 164 167 166
25.0 -81.6 34.8 164 167 166
25.6 -81.1 34.6 168 170 169
26.4 -81.1 34.6 169 171 170
27.2 -81.1 34.6 165 168 167
28.0 -81.1 34.6 169 171 170
28.8 -81.1 34.6 169 171 170
29.7 -81.3 34.6 169 171 170
30.4 -81.0 34.5 165 168 167
31.3 -81.3 34.6 169 171 170
32.1 -81.1 34.6 173 173 173
32.8 -81.0 34.5 173 173 173
33.7 -81.1 34.6 169 171 170
34.6 -81.4 34.7 174 174 174
35.5 -81.6 34.8 174 174 174
36.3 -81.6 34.8 174 174 174
37.0 -81.4 34.7 174 174 174
37.5 -80.8 34.5 177 177 177
38.3 -80.7 34.4 174 174 174
39.1 -80.8 34.5 174 174 174
39.9 -80.7 34.4 174 174 174
40.9 -81.1 34.6 175 175 175
41.6 -81.0 34.5 180 180 180
42.4 -81.0 34.5 180 180 180
43.1 -80.7 34.4 180 180 180
47.1 -83.6 35.6 175 175 175
47.1 -82.2 35.0 180 180 180
47.0 -80.6 34.3 178 178 178
48.7 -82.0 35.0 178 178 178
49.4 -81.9 34.9 179 179 179
50.0 -81.6 34.8 181 181 181
50.4 -80.8 34.5 179 179 179
56.8 -85.7 36.5 176 176 176
54.8 -81.4 34.7 177 177 177
28.6 -39.6 16.9 178 178 178
28.9 -39.5 16.8 178 178 178
29.2 -39.4 16.8 179 179 179
59.1 -78.7 33.5 182 182 182
59.9 -78.7 33.5 174 176 176
61.0 -79.1 33.7 175 177 177
61.9 -79.3 33.8 172 174 174
61.6 -77.9 33.2 173 175 175
48.3 -29.9 12.8 218 218 218
23.7 -79.2 34.1 175 175 175
25.4 -79.8 34.3 176 176 176
46.2 -79.8 34.3 200 200 200
46.5 -78.9 34.0 197 197 197
48.0 -80.2 34.5 200 200 200
48.6 -79.8 34.3 197 197 197
49.1 -79.3 34.1 200 200 200
49.5 -78.8 33.9 200 200 200
28.4 -38.9 16.7 199 199 199
28.2 -38.2 16.4 200 200 200
28.6 -38.2 16.4 200 200 200
28.8 -38.0 16.3 200 200 200
61.7 -79.2 34.1 202 202 202
239.4 -180.1 77.5 115 114 114
229.0 -171.0 73.6 111 113 112
70.6 -48.3 20.8 103 103 103
44.0 -69.3 30.1 203 203 203
43.0 -66.6 29.0 203 203 203
125.4 -182.8 79.5 202 202 202
253.3 -353.7 153.8 203 203 203
27.9 -37.3 16.2 203 203 203
28.1 -37.1 16.1 204 204 204
28.4 -37.1 16.1 204 204 204
230.9 -172.0 74.8 117 117 117
70.1 -47.9 20.8 105 105 105
69.0 -46.8 20.4 103 103 103
68.4 -46.1 20.0 103 103 103
40.2 -65.7 28.9 203 203 203
45.4 -73.0 32.1 203 203 203
46.0 -72.9 32.0 203 203 203
44.3 -69.0 30.3 203 203 203
42.4 -65.1 28.6 203 203 203
42.4 -64.1 28.1 203 203 203
124.3 -179.4 78.8 204 204 204
154.5 -219.7 96.5 204 204 204
150.6 -211.1 92.7 204 204 204
264.1 -365.0 160.3 205 205 205
27.8 -36.9 16.2 206 206 206
27.9 -36.5 16.0 206 206 206
28.2 -36.4 16.0 206 206 206
260.0 -193.1 84.8 121 121 121
227.3 -167.6 73.6 119 119 119
207.3 -151.6 66.6 119 119 119
195.7 -142.1 62.4 117 117 117
70.6 -47.7 21.0 108 108 108
69.8 -46.9 20.6 105 105 105
41.7 -69.9 31.0 206 206 206
42.0 -69.1 30.7 206 206 206
42.3 -68.5 30.4 206 206 206
44.0 -70.1 31.1 206 206 206
44.7 -70.1 31.1 206 206 206
44.3 -68.3 30.3 206 206 206
44.6 -67.7 30.0 206 206 206
152.2 -214.2 95.1 207 207 207
143.6 -199.2 88.4 207 207 207
253.3 -346.5 153.8 205 205 205
27.6 -36.8 16.3 205 205 205
27.9 -36.6 16.3 206 206 206
28.1 -36.4 16.2 206 206 206
28.3 -36.2 16.0 206 206 206
278.8 -204.9 90.9 123 125 124
248.6 -181.4 80.5 124 126 125
216.4 -156.7 69.5 124 126 125
81.6 -55.8 24.8 111 113 112
77.2 -52.4 23.2 111 113 112
71.9 -48.1 21.4 109 111 111
71.0 -47.2 20.9 109 111 111
68.6 -45.2 20.1 108 108 108
40.6 -67.3 30.2 209 209 209
40.6 -66.2 29.7 209 209 209
41.1 -65.8 29.5 209 209 209
43.8 -67.9 30.5 209 209 209
43.5 -66.3 29.7 209 209 209
43.5 -65.3 29.3 209 209 209
38.5 -56.0 25.1 206 206 206
154.5 -215.2 96.5 207 207 207
143.6 -197.1 88.4 207 207 207
27.7 -36.4 16.3 208 208 208
27.9 -36.3 16.3 208 208 208
28.2 -36.1 16.2 206 206 206
28.4 -35.9 16.1 206 206 206
40.6 -65.4 29.6 208 208 208
38.3 -60.7 27.5 208 208 208
40.9 -60.9 27.6 208 208 208
38.2 -55.9 25.3 208 208 208
38.3 -55.1 25.0 208 208 208
147.7 -200.7 90.9 206 206 206
27.6 -36.0 16.3 207 207 207
27.9 -35.8 16.2 207 207 207
28.1 -35.6 16.2 208 208 208
28.2 -35.3 16.0 205 205 205
28.1 -34.7 15.7 208 208 208
37.7 -60.1 27.5 208 208 208
38.1 -59.8 27.4 208 208 208
40.1 -58.9 27.0 208 208 208
38.0 -55.0 25.2 208 208 208
356.3 -486.0 222.5 208 208 208
150.6 -202.5 92.7 209 209 209
27.5 -35.4 16.2 204 204 204
27.7 -35.3 16.2 207 207 207
27.9 -35.1 16.1 207 207 207
28.1 -34.8 15.9 210 210 210
27.8 -34.0 15.6 208 208 208
-27.0 -23.0 10.7 45 45 45
-23.4 -23.1 10.7 43 42 41
-22.1 -23.1 10.7 77 77 77
-21.9 -23.1 10.7 83 85 85
-21.3 -23.0 10.7 98 98 98
-21.0 -23.2 10.7 101 101 101
-20.7 -23.1 10.7 104 106 106
-17.1 -23.0 10.7 114 116 115
-16.9 -23.0 10.7 114 116 115
-9.3 -23.2 10.8 139 139 139
35.7 -50.3 23.3 207 207 207
27.5 -35.0 16.2 206 206 206
27.6 -34.8 16.1 206 206 206
27.9 -34.6 16.0 207 207 207
28.1 -34.4 15.9 207 207 207
27.8 -33.6 15.6 207 207 207
-30.4 -23.0 10.8 47 47 47
-30.2 -23.1 10.8 49 49 49
-30.0 -23.1 10.8 49 49 49
-29.7 -23.1 10.8 49 49 49
-29.5 -23.1 10.8 51 51 51
-29.2 -23.1 10.8 51 51 51
-29.0 -23.1 10.8 52 54 52
-28.7 -23.1 10.8 50 50 50
-28.4 -23.1 10.8 50 50 50
-28.2 -23.1 10.8 48 48 48
-28.0 -23.1 10.8 48 48 48
-27.7 -23.1 10.8 48 48 48
-27.4 -23.1 10.8 46 46 46
-27.2 -23.1 10.8 46 46 46
-26.9 -23.1 10.8 46 46 46
-26.7 -23.1 10.8 46 46 46
-26.4 -23.1 10.8 46 46 46
-26.2 -23.1 10.8 44 43 42
-25.9 -23.1 10.8 41 41 41
-25.7 -23.1 10.8 41 41 41
-25.4 -23.1 10.8 38 38 38
-25.2 -23.1 10.8 41 41 41
-24.9 -23.1 10.8 41 41 41
-24.7 -23.1 10.8 41 41 41
-24.4 -23.1 10.8 41 41 41
-24.2 -23.2 10.8 38 38 38
-24.0 -23.2 10.8 41 41 41
-23.7 -23.1 10.8 41 41 41
-23.5 -23.2 10.8 41 41 41
-23.2 -23.1 10.8 41 41 41
-23.0 -23.2 10.8 44 43 42
-22.7 -23.2 10.8 45 45 45
-22.4 -23.1 10.8 47 48 47
-22.2 -23.2 10.8 44 43 42
-22.0 -23.2 10.9 64 65 63
-21.6 -23.1 10.8 79 82 81
-21.3 -23.0 10.8 84 86 86
-21.2 -23.2 10.9 101 101 101
-20.9 -23.2 10.8 94 97 96
-20.6 -23.0 10.8 100 100 100
-20.4 -23.2 10.8 106 108 108
-20.2 -23.2 10.8 104 104 104
-19.9 -23.1 10.8 105 107 107
-19.6 -23.1 10.8 105 107 107
-19.4 -23.1 10.8 105 107 107
-19.1 -23.1 10.8 104 106 106
-18.9 -23.1 10.8 104 106 106
-18.6 -23.1 10.8 106 108 108
-18.4 -23.1 10.8 110 110 110
-18.1 -23.1 10.8 112 112 112
-18.0 -23.2 10.9 112 112 112
-17.7 -23.2 10.8 113 114 113
-17.4 -23.1 10.8 112 112 112
-17.1 -23.0 10.8 115 115 115
-16.9 -23.1 10.8 115 114 114
-16.3 -23.1 10.8 117 119 118
-16.1 -23.1 10.8 121 121 121
-15.9 -23.2 10.8 121 121 121
-9.8 -23.1 10.8 137 139 138
-9.6 -23.1 10.8 140 139 138
-9.4 -23.2 10.9 140 140 140
-9.1 -23.0 10.8 140 142 141
-8.8 -23.0 10.8 140 142 141
-8.6 -23.1 10.8 144 144 144
-8.3 -23.0 10.8 143 143 142
-8.0 -23.0 10.8 146 146 146
-7.8 -23.0 10.8 144 144 144
-7.6 -23.1 10.8 143 145 144
-7.3 -23.2 10.8 147 147 147
-7.1 -23.2 10.8 148 148 148
-6.8 -23.1 10.8 150 150 150
-6.6 -23.1 10.8 156 156 156
-6.3 -23.0 10.8 156 159 158
-6.1 -23.1 10.8 160 160 160
-5.8 -23.1 10.8 163 163 163
-5.6 -23.1 10.8 164 167 166
-5.3 -23.1 10.8 162 165 164
-5.1 -23.1 10.8 164 167 166
-4.8 -23.1 10.8 167 167 167
-4.6 -23.1 10.8 161 164 163
-4.1 -23.1 10.8 168 168 168
-3.8 -23.1 10.8 167 167 167
-3.3 -23.1 10.8 169 171 170
-3.0 -23.1 10.8 172 174 174
-2.8 -23.1 10.8 172 174 174
-2.5 -23.1 10.8 176 176 176
-2.3 -23.1 10.8 176 176 176
-2.0 -23.1 10.8 176 176 176
-1.8 -23.1 10.8 175 175 175
-1.5 -23.1 10.8 178 178 178
-1.3 -23.1 10.8 178 178 178
-1.0 -23.1 10.8 178 178 178
-0.8 -23.1 10.8 178 178 178
-0.5 -23.1 10.8 177 177 177
-0.3 -23.1 10.8 180 180 180
-0.0 -23.1 10.8 180 180 180
0.2 -23.2 10.9 180 180 180
0.5 -23.2 10.8 180 180 180
0.7 -23.2 10.8 182 182 182
1.0 -23.2 10.8 182 182 182
1.2 -23.0 10.8 181 181 181
1.5 -23.0 10.8 181 181 181
27.2 -33.9 15.8 206 206 206
27.7 -34.0 15.9 206 206 206
28.0 -33.9 15.9 206 206 206
27.7 -33.1 15.5 207 207 207
27.1 -32.0 15.0 207 207 207
-31.8 -23.9 11.3 47 48 47
-31.6 -24.0 11.3 49 49 49
-31.4 -24.0 11.3 49 49 49
-31.1 -24.0 11.3 51 51 51
-30.9 -24.0 11.3 51 51 51
-30.6 -24.0 11.3 51 51 51
-30.3 -23.9 11.3 51 51 51
-30.1 -24.0 11.3 51 51 51
-29.8 -24.0 11.3 51 51 51
-29.5 -24.0 11.3 53 55 53
-29.3 -24.0 11.3 51 51 51
-29.0 -23.9 11.3 49 49 49
-28.7 -24.0 11.3 49 49 49
-28.5 -24.0 11.3 49 49 49
-28.2 -24.0 11.3 47 47 47
-28.0 -24.0 11.3 45 44 43
-27.7 -24.0 11.3 45 44 43
-27.4 -24.0 11.3 45 44 43
-27.2 -24.0 11.3 42 42 42
-26.9 -24.0 11.3 42 42 42
-26.6 -24.0 11.3 42 42 42
-26.4 -24.0 11.3 42 42 42
-26.1 -24.0 11.3 42 42 42
-25.8 -23.9 11.3 42 42 42
-25.6 -24.0 11.3 42 42 42
-25.3 -24.0 11.3 42 42 42
-25.0 -23.9 11.3 42 42 42
-24.7 -23.9 11.3 39 39 39
-24.5 -24.0 11.3 42 42 42
-24.3 -24.0 11.3 42 42 42
-24.0 -24.0 11.3 42 42 42
-23.8 -24.0 11.3 42 42 42
-23.5 -23.9 11.3 42 42 42
-23.2 -24.0 11.3 46 46 46
-22.9 -23.9 11.3 46 46 46
-22.6 -23.9 11.3 48 48 48
-22.4 -23.9 11.3 57 57 57
-22.1 -23.9 11.3 65 67 66
-21.6 -23.9 11.3 90 90 90
-21.4 -23.9 11.3 94 97 96
-21.1 -24.0 11.3 96 99 98
-20.8 -24.0 11.3 101 101 101
-20.6 -23.9 11.3 101 101 101
-20.3 -24.0 11.3 103 103 103
-20.1 -24.0 11.3 103 103 103
-19.8 -24.0 11.3 105 105 105
-19.6 -24.0 11.3 105 105 105
-19.3 -24.0 11.3 106 108 108
-19.0 -24.0 11.3 106 108 108
-18.7 -23.9 11.3 105 107 107
-18.5 -23.9 11.3 107 109 109
-18.1 -23.8 11.3 107 109 109
-17.2 -24.0 11.3 115 114 114
-16.9 -24.0 11.3 116 116 116
-16.6 -24.0 11.3 117 119 118
-10.5 -23.9 11.3 134 134 134
-9.1 -23.0 10.9 138 138 138
-7.9 -23.9 11.3 148 148 148
-7.7 -23.9 11.3 150 150 150
-7.4 -23.9 11.3 152 154 154
-7.1 -23.9 11.3 157 157 157
-6.6 -24.0 11.3 165 165 165
-6.4 -23.9 11.3 165 165 165
-6.1 -24.0 11.3 164 167 166
-5.8 -24.0 11.3 170 171 170
-5.6 -23.9 11.3 170 171 170
-2.7 -24.0 11.3 183 183 183
-2.4 -24.0 11.3 182 182 182
-2.1 -24.0 11.3 182 182 182
-1.6 -24.0 11.3 182 182 182
-1.4 -24.0 11.3 182 182 182
-1.1 -24.0 11.3 182 182 182
-0.8 -24.0 11.3 182 182 182
-0.6 -24.0 11.3 179 179 179
-0.3 -24.0 11.3 181 181 181
-0.0 -24.0 11.3 184 184 184
29.0 -36.7 17.4 207 207 207
27.8 -33.7 16.0 208 208 208
28.1 -33.7 15.9 206 206 206
28.1 -33.3 15.8 206 206 206
27.2 -31.8 15.0 206 206 206
27.9 -31.8 15.0 207 207 207
28.5 -32.0 15.2 207 207 207
-32.0 -23.8 11.4 50 50 50
-24.1 -23.8 11.4 42 43 42
-23.9 -23.8 11.4 43 43 43
-23.4 -23.9 11.4 41 41 41
-23.1 -23.9 11.4 43 43 43
-22.8 -23.8 11.4 43 43 43
-18.5 -23.8 11.4 106 106 106
22.0 -33.0 15.8 209 209 209
22.3 -32.9 15.7 209 209 209
27.8 -34.4 16.4 207 207 207
28.2 -33.4 16.0 208 208 208
28.0 -32.8 15.7 205 205 205
27.8 -32.1 15.4 206 206 206
28.4 -32.4 15.5 206 206 206
28.4 -31.9 15.3 206 206 206
-23.7 -23.9 11.6 42 42 42
-13.3 -31.8 15.4 109 109 109
-12.9 -31.8 15.4 117 119 118
-12.6 -31.9 15.4 119 119 119
-12.2 -31.8 15.4 144 144 144
-11.8 -31.8 15.4 167 167 167
-10.4 -31.9 15.4 168 168 168
-10.1 -31.9 15.4 171 173 173
-9.7 -31.8 15.4 179 179 179
-8.0 -32.1 15.5 192 192 192
-7.2 -31.8 15.4 195 195 195
-6.1 -31.9 15.4 193 193 193
-5.8 -31.9 15.4 194 194 194
-5.4 -31.8 15.4 191 191 191
-5.1 -31.9 15.4 193 193 193
-4.7 -31.9 15.4 190 190 190
-4.3 -31.9 15.4 193 193 193
-4.0 -31.9 15.4 190 190 190
-3.6 -31.9 15.4 190 190 190
-3.3 -31.8 15.4 190 190 190
-2.9 -31.9 15.4 190 190 190
-2.2 -31.9 15.4 190 190 190
-1.8 -31.8 15.4 189 189 189
-1.5 -31.9 15.4 189 189 189
-1.1 -31.8 15.4 186 186 186
-0.8 -31.8 15.4 185 185 185
-0.4 -31.7 15.3 185 185 185
-0.0 -31.8 15.4 185 185 185
0.7 -31.8 15.4 185 185 185
1.0 -31.9 15.4 185 185 185
1.4 -31.9 15.4 185 185 185
6.8 -32.0 15.5 172 172 172
7.2 -32.0 15.5 206 206 206
7.5 -32.0 15.5 208 208 208
8.2 -31.8 15.4 211 211 211
8.6 -31.9 15.4 211 211 211
8.9 -31.8 15.4 211 211 211
9.2 -31.8 15.4 211 211 211
10.0 -32.0 15.5 208 208 208
10.3 -31.9 15.4 208 208 208
10.7 -32.0 15.5 208 208 208
11.1 -32.0 15.5 211 211 211
11.4 -31.9 15.4 208 208 208
11.7 -31.8 15.4 208 208 208
12.1 -31.8 15.4 211 211 211
12.9 -32.0 15.5 208 208 208
13.2 -31.8 15.4 208 208 208
13.6 -31.9 15.4 208 208 208
14.0 -32.0 15.5 208 208 208
14.3 -32.0 15.5 208 208 208
14.6 -31.8 15.4 208 208 208
15.0 -31.9 15.4 208 208 208
15.4 -31.9 15.4 208 208 208
15.7 -31.8 15.4 208 208 208
16.1 -31.9 15.4 208 208 208
16.4 -31.8 15.4 208 208 208
16.7 -31.8 15.4 208 208 208
17.2 -31.9 15.4 208 208 208
17.6 -32.0 15.5 208 208 208
18.0 -32.0 15.5 208 208 208
18.2 -31.8 15.4 208 208 208
19.1 -32.1 15.5 208 208 208
19.4 -32.0 15.5 208 208 208
19.6 -31.8 15.4 208 208 208
20.1 -32.0 15.5 208 208 208
20.4 -31.8 15.4 208 208 208
20.7 -31.8 15.4 208 208 208
21.2 -32.0 15.5 208 208 208
21.6 -32.1 15.5 208 208 208
21.9 -32.0 15.5 208 208 208
22.1 -31.8 15.4 208 208 208
22.5 -31.8 15.4 208 208 208
23.0 -32.0 15.5 210 210 210
23.3 -32.0 15.5 210 210 210
23.7 -32.0 15.5 208 208 208
24.0 -32.0 15.5 205 205 205
24.6 -31.8 15.4 206 206 206
25.0 -31.8 15.4 209 209 209
25.5 -32.0 15.5 206 206 206
25.9 -32.0 15.5 206 206 206
26.3 -32.2 15.6 207 207 207
26.7 -32.2 15.6 207 207 207
27.7 -32.5 15.7 207 207 207
27.8 -32.2 15.6 207 207 207
27.9 -31.9 15.4 205 205 205
28.4 -32.0 15.5 205 205 205
28.5 -31.7 15.4 206 206 206
28.9 -31.8 15.4 206 206 206
29.2 -31.7 15.3 206 206 206
29.5 -31.7 15.3 206 206 206
-43.8 -31.8 15.5 53 53 53
-14.8 -31.7 15.5 73 75 75
-14.5 -31.9 15.6 67 67 67
-14.1 -31.8 15.6 42 43 42
-13.8 -31.9 15.6 18 22 19
-13.4 -31.7 15.5 23 23 23
-13.1 -31.8 15.5 31 31 31
-12.7 -31.8 15.6 33 35 34
-12.3 -31.7 15.5 96 96 96
-12.0 -31.7 15.5 189 189 189
-11.3 -31.8 15.6 175 177 177
-10.9 -31.8 15.6 173 175 175
-10.5 -31.8 15.6 181 181 181
-10.2 -31.8 15.5 196 196 196
-9.8 -31.8 15.5 200 200 200
-8.4 -31.8 15.6 204 204 204
-8.0 -31.9 15.6 205 205 205
-7.6 -31.8 15.6 203 203 203
-7.3 -31.7 15.5 204 204 204
-6.9 -31.8 15.6 200 200 200
-6.6 -31.9 15.6 197 197 197
-6.2 -31.8 15.6 196 196 196
-5.8 -31.8 15.6 196 196 196
-5.5 -31.8 15.6 195 195 195
-5.1 -31.8 15.6 194 194 194
-4.7 -31.8 15.6 194 194 194
-4.4 -31.8 15.6 194 194 194
-4.0 -31.8 15.6 194 194 194
-3.7 -31.8 15.6 194 194 194
-3.3 -31.8 15.6 194 194 194
-2.9 -31.8 15.6 194 194 194
-2.6 -31.8 15.6 194 194 194
-2.2 -31.8 15.5 193 193 193
-1.9 -31.8 15.5 193 193 193
-1.5 -31.8 15.5 193 193 193
-1.1 -31.7 15.5 193 193 193
-0.8 -31.7 15.5 193 193 193
-0.4 -31.7 15.5 191 191 191
-0.0 -31.7 15.5 188 188 188
0.3 -31.8 15.5 184 184 184
0.7 -31.7 15.5 188 188 188
1.0 -31.8 15.5 188 188 188
1.4 -31.8 15.6 184 184 184
1.8 -31.8 15.6 188 188 188
6.8 -31.9 15.6 172 172 172
7.2 -31.9 15.6 205 205 205
7.5 -31.8 15.6 208 208 208
7.9 -31.8 15.5 211 211 211
8.3 -31.8 15.6 211 211 211
8.6 -31.8 15.6 211 211 211
9.0 -31.7 15.5 211 211 211
9.3 -31.8 15.5 211 211 211
9.7 -31.8 15.6 211 211 211
10.1 -31.8 15.6 211 211 211
10.4 -31.8 15.6 211 211 211
10.8 -31.8 15.6 211 211 211
11.2 -31.8 15.6 211 211 211
11.5 -31.8 15.6 211 211 211
11.9 -31.7 15.5 211 211 211
12.2 -31.7 15.5 211 211 211
12.6 -31.8 15.5 210 210 210
13.0 -31.9 15.6 210 210 210
13.3 -31.8 15.6 210 210 210
13.7 -31.8 15.6 210 210 210
14.1 -31.8 15.6 208 208 208
14.4 -31.8 15.6 208 208 208
14.8 -31.8 15.5 208 208 208
15.1 -31.8 15.6 208 208 208
15.5 -31.8 15.6 208 208 208
15.8 -31.7 15.5 208 208 208
16.2 -31.8 15.6 208 208 208
16.6 -31.8 15.6 208 208 208
16.9 -31.7 15.5 208 208 208
17.3 -31.8 15.6 208 208 208
17.7 -31.8 15.6 208 208 208
18.1 -31.9 15.6 208 208 208
18.3 -31.7 15.5 208 208 208
18.9 -32.0 15.7 208 208 208
19.3 -32.1 15.7 208 208 208
19.5 -31.8 15.6 208 208 208
19.8 -31.7 15.5 208 208 208
20.2 -31.8 15.6 208 208 208
20.5 -31.8 15.5 208 208 208
20.9 -31.8 15.5 208 208 208
21.4 -32.0 15.6 208 208 208
21.7 -31.9 15.6 208 208 208
22.0 -31.9 15.6 208 208 208
22.3 -31.7 15.5 208 208 208
22.7 -31.8 15.5 208 208 208
23.2 -32.0 15.6 208 208 208
23.5 -31.9 15.6 208 208 208
23.8 -31.8 15.6 208 208 208
24.2 -31.8 15.6 208 208 208
24.6 -31.8 15.6 208 208 208
25.2 -31.8 15.5 208 208 208
25.7 -31.9 15.6 209 209 209
26.0 -31.9 15.6 209 209 209
26.7 -32.2 15.8 206 206 206
27.0 -32.2 15.7 206 206 206
27.7 -32.6 15.9 207 207 207
28.0 -32.5 15.9 207 207 207
27.9 -32.0 15.6 207 207 207
28.2 -31.8 15.6 207 207 207
28.6 -31.9 15.6 207 207 207
28.6 -31.5 15.4 208 208 208
29.0 -31.5 15.4 205 205 205
29.3 -31.5 15.4 205 205 205
29.6 -31.4 15.4 206 206 206
-44.1 -31.7 15.7 56 57 55
-43.8 -31.7 15.7 56 57 55
-43.5 -31.8 15.7 59 59 59
-43.2 -31.8 15.7 59 59 59
-42.8 -31.8 15.7 56 57 55
-41.3 -31.8 15.7 59 59 59
-40.6 -31.8 15.7 57 58 56
-40.2 -31.7 15.7 57 58 56
-39.8 -31.7 15.7 57 58 56
-39.5 -31.8 15.7 57 58 56
-39.1 -31.8 15.7 54 54 54
-38.8 -31.8 15.7 54 54 54
-38.4 -31.8 15.7 53 52 52
-38.0 -31.8 15.7 53 52 52
-16.5 -31.8 15.8 15 15 15
-16.0 -31.5 15.6 27 27 27
-15.6 -31.4 15.5 29 30 28
-15.2 -31.4 15.6 31 30 29
-15.0 -31.8 15.7 27 29 27
-14.7 -31.8 15.7 26 26 26
-12.8 -31.8 15.7 34 34 34
-9.9 -31.7 15.7 215 215 215
-9.5 -31.6 15.6 215 215 215
-8.1 -31.9 15.8 208 208 208
-5.9 -31.8 15.7 199 199 199
-5.2 -31.8 15.7 198 198 198
-4.8 -31.8 15.7 198 198 198
-3.0 -31.8 15.7 195 195 195
-2.6 -31.8 15.7 195 195 195
-1.5 -31.7 15.7 195 195 195
-0.4 -31.6 15.6 192 192 192
6.9 -31.8 15.8 174 174 174
7.3 -31.8 15.7 207 207 207
8.4 -31.8 15.7 210 210 210
8.7 -31.7 15.7 210 210 210
9.0 -31.5 15.6 210 210 210
9.8 -31.8 15.7 210 210 210
10.2 -31.8 15.7 210 210 210
10.5 -31.7 15.7 210 210 210
10.9 -31.7 15.7 210 210 210
11.3 -31.7 15.7 210 210 210
11.6 -31.7 15.7 210 210 210
12.0 -31.6 15.7 210 210 210
12.3 -31.6 15.6 210 210 210
12.7 -31.7 15.7 210 210 210
13.1 -31.8 15.7 210 210 210
13.4 -31.7 15.7 210 210 210
13.8 -31.8 15.7 210 210 210
14.2 -31.7 15.7 210 210 210
14.5 -31.6 15.6 207 207 207
14.9 -31.7 15.7 207 207 207
15.3 -31.7 15.7 207 207 207
15.6 -31.6 15.6 207 207 207
15.9 -31.5 15.6 207 207 207
16.4 -31.7 15.7 207 207 207
16.7 -31.7 15.7 207 207 207
17.1 -31.7 15.7 207 207 207
17.5 -31.8 15.7 207 207 207
17.8 -31.8 15.7 207 207 207
18.2 -31.8 15.7 207 207 207
18.5 -31.6 15.6 207 207 207
19.0 -31.9 15.8 207 207 207
19.4 -31.9 15.8 207 207 207
19.7 -31.7 15.7 207 207 207
19.9 -31.6 15.6 207 207 207
20.4 -31.8 15.7 207 207 207
20.7 -31.6 15.6 207 207 207
21.2 -31.8 15.8 207 207 207
21.6 -31.9 15.8 207 207 207
21.9 -31.8 15.8 207 207 207
22.2 -31.8 15.7 207 207 207
22.5 -31.6 15.6 207 207 207
23.0 -31.8 15.7 207 207 207
23.4 -31.9 15.8 207 207 207
23.7 -31.8 15.7 207 207 207
24.1 -31.8 15.7 207 207 207
24.4 -31.7 15.7 207 207 207
24.8 -31.8 15.7 208 208 208
25.1 -31.7 15.7 208 208 208
25.9 -31.8 15.7 208 208 208
26.2 -31.8 15.7 208 208 208
26.8 -32.0 15.8 208 208 208
27.1 -31.9 15.8 206 206 206
27.8 -32.3 16.0 206 206 206
28.1 -32.2 15.9 206 206 206
28.1 -31.8 15.7 206 206 206
28.5 -31.9 15.8 207 207 207
28.8 -31.8 15.7 207 207 207
28.8 -31.4 15.5 207 207 207
29.0 -31.2 15.4 207 207 207
29.3 -31.1 15.4 207 207 207
29.7 -31.2 15.4 208 208 208
-17.8 -34.0 17.0 26 26 26
-17.1 -33.3 16.7 26 26 26
-16.1 -33.6 16.8 29 30 28
-15.9 -34.0 17.0 26 26 26
8.4 -30.2 15.1 210 210 210
8.7 -30.0 15.0 210 210 210
11.5 -30.1 15.1 210 210 210
12.6 -30.2 15.1 209 209 209
12.9 -30.2 15.1 209 209 209
13.3 -30.1 15.1 209 209 209
13.7 -30.2 15.1 209 209 209
14.0 -30.2 15.1 209 209 209
14.3 -30.1 15.1 207 207 207
14.7 -30.2 15.1 207 207 207
15.1 -30.2 15.1 207 207 207
15.4 -30.2 15.1 207 207 207
15.7 -30.1 15.1 207 207 207
16.1 -30.2 15.1 207 207 207
16.4 -30.1 15.1 207 207 207
17.2 -30.3 15.1 209 209 209
17.5 -30.2 15.1 209 209 209
17.9 -30.2 15.1 207 207 207
19.0 -30.3 15.1 207 207 207
19.3 -30.2 15.1 207 207 207
20.0 -30.2 15.1 207 207 207
20.2 -30.0 15.0 207 207 207
21.1 -30.3 15.2 207 207 207
21.4 -30.3 15.1 207 207 207
21.7 -30.2 15.1 207 207 207
22.0 -30.1 15.1 207 207 207
22.5 -30.3 15.2 207 207 207
22.9 -30.3 15.2 207 207 207
23.1 -30.2 15.1 207 207 207
23.4 -30.1 15.1 207 207 207
23.9 -30.2 15.1 207 207 207
24.4 -30.0 15.0 207 207 207
24.8 -30.1 15.0 208 208 208
25.2 -30.2 15.1 208 208 208
25.9 -30.2 15.1 208 208 208
28.2 -31.9 16.0 206 206 206
27.6 -30.4 15.2 206 206 206
28.1 -30.3 15.2 206 206 206
28.5 -30.3 15.2 207 207 207
28.8 -30.2 15.1 207 207 207
29.1 -30.2 15.1 207 207 207
29.5 -30.2 15.1 207 207 207
-35.4 -24.8 12.6 58 59 57
-33.0 -24.8 12.6 58 59 57
-27.8 -24.8 12.6 50 49 48
-26.3 -24.8 12.6 47 48 47
-25.0 -24.4 12.3 48 48 48
-24.4 -24.1 12.2 46 46 46
-22.3 -24.9 12.6 43 43 43
-21.5 -24.3 12.3 43 43 43
-21.2 -24.3 12.3 42 42 42
-20.9 -24.3 12.3 46 46 46
-20.6 -24.3 12.3 48 48 48
-20.4 -24.3 12.3 50 50 50
-18.2 -34.2 17.3 26 26 26
-17.6 -33.9 17.2 26 26 26
-17.2 -33.8 17.1 28 28 28
-16.0 -34.7 17.6 31 30 29
8.7 -29.7 15.0 209 209 209
19.0 -30.0 15.2 206 206 206
19.4 -30.0 15.2 206 206 206
20.0 -29.9 15.1 208 208 208
21.5 -30.0 15.2 206 206 206
21.8 -29.9 15.1 206 206 206
22.1 -29.9 15.1 206 206 206
27.6 -32.1 16.3 207 207 207
27.9 -32.1 16.2 208 208 208
28.4 -32.2 16.3 208 208 208
28.4 -31.8 16.1 208 208 208
27.9 -30.8 15.6 208 208 208
29.2 -31.9 16.1 205 205 205
29.5 -31.8 16.1 206 206 206
28.5 -30.3 15.4 206 206 206
28.6 -30.0 15.2 206 206 206
28.9 -30.0 15.2 206 206 206
29.1 -29.9 15.1 206 206 206
29.5 -29.9 15.1 207 207 207
-36.2 -25.1 12.9 59 60 58
-36.2 -25.3 13.0 61 61 61
-35.9 -25.3 13.0 62 62 62
-35.6 -25.3 13.0 62 62 62
-35.3 -25.3 13.0 62 62 62
-35.0 -25.3 13.0 62 62 62
-34.7 -25.3 13.0 62 62 62
-34.4 -25.3 13.0 59 60 58
-34.1 -25.3 13.0 62 62 62
-33.8 -25.3 13.0 62 62 62
-33.5 -25.3 13.0 62 62 62
-33.2 -25.3 13.0 62 62 62
-32.9 -25.3 13.0 59 60 58
-32.6 -25.3 13.0 59 60 58
-32.3 -25.3 13.0 56 56 56
-32.0 -25.3 13.0 56 56 56
-31.7 -25.3 13.0 57 57 57
-31.4 -25.3 13.0 55 55 55
-31.1 -25.3 13.0 55 55 55
-30.8 -25.3 13.0 53 52 52
-30.5 -25.3 13.0 51 50 48
-30.2 -25.3 13.0 51 50 48
-29.9 -25.3 13.0 51 50 48
-29.5 -25.3 12.9 51 50 48
-29.2 -25.3 13.0 51 50 48
-28.9 -25.3 13.0 53 52 52
-28.7 -25.3 13.0 51 51 49
-28.3 -25.3 13.0 53 52 52
-28.0 -25.3 13.0 51 51 49
-27.8 -25.3 13.0 51 51 49
-27.4 -25.2 12.9 48 48 48
-27.0 -25.2 12.9 48 48 48
-26.9 -25.4 13.0 48 48 48
-26.6 -25.3 13.0 49 49 49
-26.2 -25.2 12.9 49 49 49
-26.0 -25.3 13.0 49 49 49
-25.7 -25.3 13.0 47 47 47
-25.4 -25.3 13.0 49 49 49
-25.2 -25.4 13.0 47 48 47
-24.7 -25.3 13.0 45 45 45
-24.4 -25.3 12.9 45 45 45
-24.1 -25.3 13.0 46 46 46
-23.8 -25.3 13.0 44 44 44
-23.6 -25.3 13.0 44 44 44
-23.3 -25.3 13.0 44 44 44
-22.9 -25.3 12.9 44 44 44
-22.6 -25.2 12.9 42 43 42
-22.3 -25.2 12.9 42 43 42
-22.0 -25.3 13.0 42 42 40
-21.7 -25.2 12.9 43 43 43
-21.3 -25.1 12.9 43 43 43
-21.0 -25.1 12.9 43 43 43
-12.7 -25.4 13.0 32 31 30
-12.5 -25.4 13.0 33 33 33
-12.1 -25.4 13.0 32 31 30
-11.8 -25.4 13.0 31 30 29
-11.4 -25.1 12.9 32 32 32
-11.1 -25.1 12.9 33 33 33
-10.8 -25.2 12.9 35 37 36
-10.6 -25.4 13.0 42 43 42
-10.3 -25.3 13.0 168 170 169
-4.3 -25.3 13.0 210 213 212
-4.0 -25.3 13.0 210 213 212
-2.8 -25.3 13.0 205 205 205
-2.4 -25.3 13.0 205 205 205
-2.1 -25.3 13.0 203 203 203
-1.8 -25.3 12.9 203 203 203
-1.5 -25.3 13.0 203 203 203
-1.2 -25.3 13.0 203 203 203
-0.9 -25.3 13.0 200 200 200
-0.6 -25.3 12.9 200 200 200
-0.0 -25.3 13.0 200 200 200
7.8 -25.3 13.0 209 209 209
8.1 -25.3 13.0 209 209 209
8.4 -25.4 13.0 209 209 209
8.8 -25.5 13.1 210 213 212
9.0 -25.4 13.0 210 213 212
9.3 -25.3 13.0 209 209 209
19.1 -29.8 15.3 206 206 206
20.1 -29.7 15.2 208 208 208
21.5 -29.7 15.2 208 208 208
21.8 -29.6 15.2 208 208 208
27.7 -31.9 16.3 207 207 207
28.0 -31.8 16.3 207 207 207
28.5 -31.9 16.4 207 207 207
28.6 -31.6 16.2 207 207 207
28.0 -30.6 15.7 207 207 207
29.2 -31.5 16.1 208 208 208
29.6 -31.5 16.2 205 205 205
29.2 -30.7 15.7 205 205 205
28.8 -29.9 15.3 205 205 205
29.1 -29.8 15.3 206 206 206
29.2 -29.6 15.1 206 206 206
29.5 -29.6 15.1 206 206 206
-37.2 -25.5 13.2 62 62 62
-37.1 -25.6 13.3 62 62 62
-36.8 -25.6 13.3 62 62 62
-36.5 -25.6 13.3 62 62 62
-36.2 -25.6 13.3 62 62 62
-35.9 -25.6 13.3 62 62 62
-35.5 -25.6 13.3 63 63 63
-35.2 -25.6 13.3 63 63 63
-34.9 -25.6 13.3 63 63 63
-34.6 -25.6 13.3 63 63 63
-34.3 -25.6 13.3 63 63 63
-34.0 -25.6 13.3 63 63 63
-33.7 -25.6 13.3 59 61 59
-33.4 -25.6 13.3 59 61 59
-33.1 -25.6 13.3 57 57 57
-32.8 -25.6 13.3 57 57 57
-32.5 -25.6 13.3 57 57 57
-31.2 -25.6 13.3 51 51 49
-30.9 -25.6 13.3 53 53 53
-30.6 -25.6 13.3 51 51 49
-30.3 -25.6 13.3 51 51 49
-30.0 -25.6 13.3 48 48 48
-29.4 -25.7 13.3 52 52 50
-29.3 -25.8 13.4 53 53 53
-28.9 -25.8 13.4 53 53 53
-28.3 -25.5 13.2 54 54 54
-28.1 -26.1 13.6 50 50 50
-27.2 -25.6 13.3 50 50 50
-26.8 -25.5 13.2 50 50 50
-25.7 -25.6 13.3 48 48 48
-24.7 -25.6 13.3 44 44 44
-24.4 -25.6 13.3 45 45 45
-24.2 -25.6 13.3 45 45 45
-23.8 -25.6 13.3 45 45 45
-23.4 -25.5 13.2 43 43 43
-23.1 -25.5 13.2 43 43 43
-22.9 -25.6 13.3 44 44 44
-22.6 -25.6 13.3 43 42 41
-22.2 -25.5 13.2 43 42 41
-14.3 -26.3 13.6 31 32 30
-13.3 -26.2 13.6 30 31 30
-12.7 -25.6 13.3 33 32 30
-12.4 -25.6 13.3 32 31 30
-12.1 -25.6 13.3 29 31 29
-11.7 -25.5 13.2 31 30 29
-11.4 -25.4 13.2 32 32 32
-11.2 -25.6 13.3 35 37 36
-10.8 -25.5 13.2 43 43 43
-10.5 -25.4 13.2 175 177 177
8.0 -25.5 13.2 208 208 208
8.2 -25.4 13.2 208 208 208
8.6 -25.6 13.3 209 212 211
8.9 -25.7 13.3 209 212 211
9.2 -25.5 13.2 209 212 211
27.8 -31.6 16.4 206 206 206
28.1 -31.6 16.4 207 207 207
28.6 -31.7 16.4 207 207 207
28.6 -31.3 16.2 207 207 207
28.2 -30.4 15.8 207 207 207
29.3 -31.2 16.2 207 207 207
29.7 -31.3 16.2 207 207 207
29.0 -29.7 15.4 208 208 208
29.0 -29.4 15.2 205 205 205
29.1 -29.1 15.1 205 205 205
29.3 -29.0 15.0 205 205 205
32.1 -31.4 16.3 206 206 206
30.2 -28.5 14.8 204 204 204
-37.5 -25.4 13.3 63 63 63
-37.2 -25.4 13.3 63 63 63
-36.9 -25.4 13.3 63 63 63
-36.6 -25.4 13.3 63 63 63
-36.3 -25.4 13.3 63 63 63
-36.0 -25.4 13.3 63 63 63
-35.6 -25.4 13.3 63 63 63
-35.3 -25.4 13.3 63 63 63
-35.0 -25.4 13.3 64 64 64
-34.7 -25.4 13.3 64 64 64
-34.4 -25.4 13.3 64 64 64
-34.1 -25.4 13.3 64 64 64
-33.8 -25.4 13.3 60 62 60
-33.5 -25.4 13.3 60 62 60
-33.2 -25.4 13.3 58 58 58
-32.9 -25.4 13.3 60 62 60
-32.6 -25.4 13.3 58 58 58
-32.3 -25.4 13.3 57 57 57
-31.6 -25.4 13.3 52 52 50
-31.0 -25.4 13.3 54 54 54
-30.7 -25.4 13.3 54 54 54
-30.4 -25.4 13.3 54 54 54
-30.1 -25.4 13.3 52 52 50
-29.9 -25.5 13.4 50 50 50
-29.6 -25.5 13.4 53 52 51
-29.3 -25.5 13.4 54 54 54
-29.1 -25.6 13.4 55 55 55
-28.4 -25.3 13.3 55 55 55
-27.9 -25.6 13.5 54 53 52
-27.3 -25.4 13.3 54 53 52
-26.9 -25.3 13.3 51 51 51
-25.8 -25.4 13.3 47 47 47
-25.4 -25.3 13.3 47 48 47
-25.1 -25.3 13.3 45 45 45
-24.8 -25.4 13.3 47 48 47
-24.5 -25.4 13.3 46 46 46
-24.2 -25.4 13.3 46 46 46
-23.9 -25.4 13.3 47 47 47
-23.5 -25.3 13.3 44 44 44
-23.2 -25.3 13.3 44 44 44
-23.0 -25.4 13.3 45 45 45
-22.6 -25.4 13.3 44 43 42
-22.2 -25.3 13.3 45 45 45
-21.9 -25.3 13.3 44 43 42
-13.8 -25.6 13.4 31 32 30
-13.3 -25.9 13.6 33 32 30
-12.8 -25.5 13.4 33 32 30
-12.4 -25.4 13.3 33 32 30
-12.1 -25.4 13.3 33 33 33
-11.8 -25.3 13.3 33 33 33
-11.5 -25.3 13.3 34 34 34
-11.2 -25.4 13.3 34 34 34
-10.8 -25.3 13.3 42 42 42
-10.5 -25.3 13.3 183 183 183
8.0 -25.2 13.2 209 212 211
8.9 -25.4 13.3 209 212 211
9.2 -25.2 13.3 209 212 211
51.3 -59.3 31.1 208 208 208
28.1 -31.6 16.6 206 206 206
28.7 -31.4 16.5 206 206 206
29.4 -31.0 16.3 207 207 207
30.0 -31.2 16.4 207 207 207
31.0 -31.8 16.7 207 207 207
31.7 -32.1 16.9 207 207 207
29.1 -29.1 15.3 207 207 207
29.2 -28.5 15.0 202 202 202
29.0 -28.0 14.7 205 205 205
30.0 -27.9 14.7 210 210 210
29.6 -27.3 14.3 170 172 172
30.5 -27.8 14.6 185 185 185
-37.5 -25.0 13.3 64 64 64
-37.1 -25.0 13.3 64 64 64
-36.8 -25.0 13.3 64 64 64
-36.5 -25.0 13.3 66 67 65
-36.2 -25.0 13.3 64 64 64
-35.9 -25.0 13.3 64 64 64
-35.6 -25.0 13.3 64 64 64
-34.7 -25.0 13.3 64 64 64
-34.4 -25.0 13.3 65 65 65
-34.1 -25.0 13.3 65 65 65
-33.7 -25.0 13.3 61 63 61
-33.4 -25.0 13.3 61 63 61
-32.5 -25.0 13.3 61 63 61
-32.2 -25.0 13.3 58 59 59
-31.9 -25.0 13.3 58 58 58
-31.6 -25.0 13.3 58 58 58
-31.0 -25.0 13.3 55 55 55
-30.6 -25.0 13.3 55 55 55
-30.3 -25.0 13.3 55 55 55
-29.1 -25.3 13.4 56 56 56
-28.4 -25.0 13.3 56 56 56
-27.3 -25.1 13.3 52 52 52
-23.9 -25.0 13.3 47 48 47
-23.5 -25.0 13.3 45 45 45
-22.9 -25.0 13.3 45 44 43
-22.6 -25.0 13.3 45 44 43
-22.2 -24.9 13.2 42 43 42
-14.4 -25.8 13.7 32 33 31
-13.8 -25.3 13.5 36 37 36
-13.5 -25.8 13.7 31 32 30
-12.8 -25.2 13.4 43 42 41
-11.2 -25.2 13.4 37 38 37
-10.8 -25.0 13.3 46 46 46
-10.5 -25.0 13.3 184 187 186
8.9 -25.0 13.3 209 212 211
9.2 -24.9 13.3 209 212 211
12.2 -22.1 11.7 207 207 207
13.4 -22.2 11.8 207 207 207
51.3 -58.5 31.1 207 207 207
51.4 -57.9 30.8 207 207 207
29.1 -30.3 16.1 206 206 206
29.1 -28.4 15.1 207 207 207
29.2 -28.2 15.0 207 207 207
29.2 -27.8 14.8 204 204 204
30.2 -27.8 14.8 208 208 208
29.5 -26.9 14.3 169 171 170
23.9 -20.8 11.0 188 188 188
-29.3 -25.1 13.5 57 57 57
-28.6 -24.8 13.3 59 59 59
-28.2 -25.3 13.6 56 55 54
-27.4 -24.9 13.4 53 52 52
-14.4 -25.5 13.7 108 108 108
-13.5 -25.5 13.7 95 95 95
-11.4 -25.1 13.5 34 34 34
-10.9 -24.7 13.3 49 49 49
-10.6 -24.7 13.3 183 186 185
51.5 -58.1 31.3 205 205 205
52.0 -57.8 31.1 207 207 207
32.0 -35.1 18.9 205 205 205
28.3 -29.4 15.8 205 205 205
29.0 -29.8 16.0 206 206 206
29.4 -29.8 16.0 206 206 206
32.9 -32.9 17.7 206 206 206
29.5 -28.1 15.1 206 206 206
29.5 -27.8 15.0 207 207 207
24.0 -20.9 11.2 186 186 186
24.0 -20.7 11.1 186 186 186
24.5 -20.9 11.2 186 186 186
24.7 -20.8 11.2 186 186 186
-38.3 -24.9 13.6 65 65 65
-38.1 -25.0 13.6 67 68 66
-37.7 -25.0 13.6 67 68 66
-37.4 -25.0 13.6 70 70 70
-37.1 -25.0 13.6 67 69 67
-36.7 -25.0 13.6 67 69 67
-36.4 -24.9 13.6 67 69 67
-36.2 -25.0 13.6 67 69 67
-36.1 -25.2 13.7 66 66 66
-35.8 -25.2 13.7 66 66 66
-35.3 -25.0 13.6 66 66 66
-35.1 -25.2 13.7 66 66 66
-34.6 -25.1 13.7 67 67 67
-34.3 -25.0 13.6 67 67 67
-34.2 -25.2 13.7 63 64 62
-33.8 -25.2 13.7 67 67 67
-33.5 -25.2 13.7 63 64 62
-33.2 -25.2 13.7 63 64 62
-32.7 -25.1 13.7 61 61 61
-32.6 -25.2 13.7 61 61 61
-32.2 -25.1 13.7 59 59 59
-31.7 -25.0 13.6 57 57 57
-31.3 -25.0 13.6 57 57 57
-31.1 -25.0 13.6 61 61 61
-30.8 -25.0 13.6 61 61 61
-30.6 -25.1 13.7 57 57 57
-30.3 -25.1 13.7 58 58 58
-30.0 -25.2 13.7 58 58 58
-29.5 -25.0 13.6 58 58 58
-29.0 -24.8 13.5 58 58 58
-28.8 -25.2 13.7 57 56 55
-28.4 -25.1 13.7 58 59 59
-27.9 -25.0 13.6 57 56 55
-24.9 -25.1 13.7 49 49 49
-24.4 -25.0 13.6 49 49 49
-24.1 -25.0 13.6 49 49 49
-14.4 -25.2 13.7 33 34 32
-13.5 -25.2 13.7 9 14 10
-12.1 -25.0 13.6 53 53 53
-11.8 -25.1 13.7 83 83 83
-11.5 -25.0 13.6 36 36 36
-11.0 -24.7 13.4 55 56 54
-10.6 -24.5 13.4 184 187 186
51.5 -57.4 31.3 206 206 206
52.3 -57.5 31.3 208 211 210
53.0 -57.4 31.3 204 204 204
24.1 -20.7 11.3 186 186 186
24.3 -20.6 11.3 186 186 186
24.8 -20.8 11.3 186 186 186
-38.8 -24.9 13.8 66 66 66
-38.5 -25.0 13.8 66 66 66
-38.2 -25.0 13.8 67 69 67
-37.9 -25.0 13.8 67 69 67
-37.6 -25.0 13.8 71 71 71
-37.2 -25.0 13.8 67 69 67
-36.9 -25.0 13.8 67 67 67
-36.6 -25.0 13.8 67 67 67
-36.3 -25.0 13.8 67 67 67
-36.0 -25.0 13.8 68 70 68
-35.6 -25.0 13.8 68 70 68
-35.3 -25.0 13.8 68 70 68
-35.0 -25.0 13.8 67 67 67
-34.7 -25.0 13.8 67 67 67
-34.4 -25.0 13.8 67 67 67
-34.1 -25.0 13.8 67 67 67
-33.8 -25.1 13.8 67 67 67
-33.4 -25.0 13.8 64 65 63
-33.1 -25.0 13.8 62 62 62
-32.8 -25.0 13.8 60 60 60
-32.5 -25.0 13.8 60 60 60
-32.1 -25.0 13.8 60 60 60
-31.8 -25.0 13.8 60 60 60
-31.5 -25.0 13.8 60 60 60
-31.2 -25.1 13.8 60 60 60
-30.9 -25.1 13.8 58 59 59
-30.6 -25.1 13.8 58 59 59
-30.3 -25.1 13.8 61 61 61
-29.8 -24.9 13.7 58 59 59
-29.4 -24.8 13.7 58 59 59
-29.3 -25.1 13.8 61 61 61
-29.0 -25.1 13.8 59 59 59
-28.6 -25.0 13.8 59 59 59
-28.2 -24.9 13.8 58 58 56
-25.5 -25.1 13.8 52 52 52
-25.1 -25.1 13.8 53 52 52
-24.7 -25.0 13.8 50 50 50
-24.4 -24.9 13.8 51 51 51
-14.5 -25.0 13.8 41 41 41
-13.6 -25.1 13.8 29 29 29
-12.3 -25.1 13.8 96 96 96
-11.9 -25.0 13.8 67 67 67
-11.5 -24.9 13.7 48 48 48
-11.1 -24.7 13.6 58 59 59
-10.7 -24.5 13.5 184 187 186
-10.6 -25.0 13.8 180 183 182
51.3 -56.5 31.2 207 210 209
52.1 -56.5 31.2 207 210 209
52.6 -56.3 31.1 206 206 206
37.3 -18.4 10.2 157 157 157
-39.1 -24.9 13.9 68 70 68
-33.0 -24.9 13.9 63 63 63
-32.7 -24.9 13.9 63 63 63
-32.4 -24.9 13.9 63 63 63
-30.5 -25.0 14.0 62 62 62
-30.0 -24.7 13.8 59 59 59
-29.8 -25.2 14.1 60 60 60
-29.2 -25.0 14.0 60 60 60
-28.9 -24.9 13.9 60 60 60
-28.5 -24.9 13.9 59 59 57
-24.9 -24.8 13.9 53 53 53
-14.5 -24.8 13.9 124 124 124
-13.6 -24.9 13.9 37 38 37
-12.3 -24.9 13.9 33 33 31
-12.0 -24.8 13.9 43 42 41
-11.6 -24.7 13.8 51 51 49
-11.2 -24.6 13.7 56 56 56
-10.7 -24.9 13.9 182 185 184
51.7 -55.4 31.0 207 210 209
51.1 -54.0 30.2 207 210 209
50.4 -52.5 29.3 207 210 209
47.3 -42.4 23.7 207 207 207
47.0 -41.7 23.3 205 205 205
38.2 -18.7 10.5 160 163 162
-30.8 -24.9 14.1 63 63 63
-30.4 -24.8 14.1 63 63 63
-29.6 -24.9 14.1 64 64 64
-29.1 -24.8 14.1 60 59 58
-12.4 -24.8 14.0 132 132 132
-12.1 -24.7 14.0 39 41 41
-11.7 -24.6 13.9 49 49 49
-10.8 -24.8 14.1 181 184 183
-10.5 -24.9 14.1 183 183 183
51.2 -54.8 31.1 206 209 208
51.8 -54.7 31.0 206 209 208
51.3 -53.5 30.3 207 210 209
51.0 -52.4 29.7 207 210 209
51.5 -52.3 29.6 207 210 209
47.4 -41.9 23.8 207 207 207
46.8 -40.9 23.2 205 205 205
38.1 -18.5 10.5 160 163 162
37.6 -18.1 10.2 157 160 159
-30.0 -25.0 14.3 62 62 62
-29.3 -24.7 14.2 65 65 65
-10.9 -24.7 14.2 180 183 182
-10.6 -24.8 14.2 182 182 182
51.3 -54.2 31.1 206 209 208
52.0 -54.2 31.1 206 209 208
51.7 -53.1 30.5 206 209 208
51.9 -52.6 30.2 206 209 208
52.3 -52.4 30.1 206 209 208
43.4 -39.7 22.8 207 210 209
47.4 -41.3 23.7 206 206 206
46.7 -40.3 23.1 207 207 207
-31.0 -25.1 14.6 67 67 67
-30.6 -25.1 14.6 66 66 66
-11.7 -25.3 14.7 186 186 186
-11.1 -24.7 14.4 180 183 182
-10.8 -24.7 14.4 178 181 180
-4.5 -17.2 10.0 215 215 215
-0.7 -17.2 10.0 210 210 210
-0.5 -17.2 10.0 208 208 208
7.7 -17.2 10.0 209 212 211
7.9 -17.2 10.0 209 212 211
8.1 -17.2 10.0 209 212 211
10.2 -17.2 10.0 206 209 208
10.4 -17.2 10.0 205 208 207
11.8 -17.5 10.2 208 211 210
12.0 -17.4 10.1 208 211 210
12.1 -17.2 10.0 205 208 207
12.4 -17.3 10.1 205 208 207
13.7 -17.2 10.0 208 211 210
14.8 -17.4 10.1 205 208 207
14.9 -17.2 10.0 208 211 210
52.2 -54.5 31.7 204 204 204
52.5 -54.0 31.4 209 212 211
52.8 -53.6 31.2 209 212 211
53.2 -53.2 31.0 209 212 211
54.4 -53.7 31.3 206 209 208
56.9 -55.5 32.3 204 204 204
56.9 -54.7 31.8 206 209 208
43.7 -39.9 23.2 207 210 209
44.3 -40.0 23.3 207 210 209
47.9 -41.3 24.0 210 213 212
47.1 -40.1 23.3 208 211 210
-11.3 -24.8 14.7 179 182 181
-10.9 -24.7 14.6 180 183 182
7.6 -17.3 10.2 209 212 211
52.6 -54.2 32.0 208 211 210
53.0 -53.8 31.7 208 211 210
53.3 -53.4 31.5 208 211 210
53.6 -52.9 31.2 209 212 211
56.2 -54.7 32.3 209 212 211
58.3 -56.1 33.1 209 212 211
58.0 -55.0 32.4 206 209 208
44.4 -40.0 23.6 207 210 209
45.0 -40.1 23.6 207 210 209
45.5 -40.1 23.6 207 210 209
48.1 -40.9 24.1 207 210 209
47.6 -40.0 23.6 207 210 209
48.6 -40.3 23.8 207 210 209
67.1 -32.9 19.4 176 179 178
67.3 -32.8 19.3 176 179 178
-16.1 -17.1 10.2 30 30 30
-15.8 -16.9 10.1 22 25 23
-15.7 -17.1 10.2 58 59 59
-15.3 -16.9 10.1 30 30 30
-14.0 -17.0 10.2 36 37 35
-13.7 -16.9 10.1 108 108 108
-10.4 -17.0 10.2 42 42 42
-10.2 -17.0 10.2 134 134 134
53.2 -54.0 32.3 208 211 210
53.3 -53.3 31.9 205 208 207
53.6 -52.9 31.6 208 211 210
58.2 -55.9 33.4 208 211 210
59.4 -56.3 33.7 209 212 211
58.7 -54.9 32.8 209 212 211
44.7 -39.8 23.8 209 212 211
45.2 -39.7 23.7 209 212 211
45.5 -39.5 23.6 210 213 212
48.2 -40.4 24.2 206 206 206
47.7 -39.5 23.6 207 210 209
67.7 -32.7 19.6 177 180 179
67.6 -32.4 19.4 177 180 179
67.8 -32.3 19.3 177 180 179
-14.1 -16.9 10.2 36 37 35
-13.8 -16.8 10.2 95 98 97
-12.1 -26.7 16.2 182 185 184
-11.6 -26.5 16.1 177 177 177
53.7 -53.8 32.6 207 210 209
53.3 -52.6 31.9 208 211 210
62.6 -59.3 36.0 208 211 210
60.0 -56.1 34.0 208 211 210
59.5 -54.9 33.3 208 211 210
46.1 -40.4 24.5 209 212 211
45.9 -39.7 24.1 209 212 211
46.3 -39.6 24.0 209 212 211
50.4 -41.6 25.3 207 210 209
48.5 -39.6 24.0 207 210 209
68.2 -32.5 19.7 178 181 180
68.5 -32.4 19.7 178 181 180
68.9 -32.4 19.6 178 181 180
-12.3 -26.9 16.5 183 186 185
-12.2 -27.5 16.9 180 180 180
-11.8 -27.5 16.9 157 160 159
52.6 -51.9 32.0 207 210 209
52.8 -51.4 31.6 207 210 209
53.0 -50.8 31.3 207 210 209
52.4 -49.6 30.5 208 211 210
63.6 -59.4 36.5 208 211 210
62.6 -57.7 35.5 208 211 210
59.5 -54.1 33.3 208 211 210
54.7 -45.1 27.7 209 212 211
68.0 -32.0 19.7 178 178 178
69.6 -32.5 20.0 176 176 176
69.7 -32.3 19.9 178 178 178
-14.3 -16.6 10.4 98 98 98
-12.5 -26.9 16.8 183 186 185
-12.2 -27.1 16.9 180 180 180
-11.9 -27.2 17.0 162 162 162
51.6 -50.2 31.3 207 210 209
52.2 -50.1 31.3 207 210 209
52.4 -49.6 31.0 207 210 209
52.3 -48.8 30.5 207 210 209
64.0 -59.0 36.8 207 210 209
63.5 -57.7 36.0 208 211 210
59.8 -53.7 33.5 208 211 210
57.8 -51.2 32.0 208 211 210
57.0 -49.9 31.1 208 211 210
70.0 -32.2 20.1 179 179 179
70.0 -32.0 20.0 180 183 182
68.3 -31.0 19.4 180 183 182
-13.2 -27.1 17.1 186 188 187
-12.6 -26.7 16.9 184 187 186
-12.2 -26.7 16.9 179 179 179
-11.9 -26.8 17.0 165 165 165
14.5 -17.0 10.7 206 209 208
14.7 -16.9 10.7 206 209 208
52.1 -50.0 31.6 206 209 208
52.4 -49.5 31.4 207 210 209
52.4 -48.9 31.0 207 210 209
52.2 -48.0 30.4 212 213 212
64.3 -58.3 36.9 207 210 209
60.1 -53.2 33.7 207 210 209
58.2 -50.8 32.2 208 211 210
57.9 -49.9 31.6 208 211 210
70.6 -31.8 20.1 181 184 183
-35.6 -27.1 17.4 67 69 67
-35.1 -27.0 17.4 66 66 66
-23.9 -18.5 11.9 66 66 66
-12.8 -26.7 17.1 186 188 187
-12.4 -26.6 17.1 182 182 182
-12.0 -26.6 17.1 170 171 170
52.8 -49.9 32.1 206 209 208
52.8 -49.2 31.6 206 209 208
64.3 -57.5 36.9 207 210 209
63.9 -56.4 36.2 207 210 209
61.9 -53.9 34.6 207 210 209
61.0 -52.5 33.7 207 210 209
59.4 -50.4 32.4 208 211 210
71.2 -31.6 20.3 182 185 184
62.9 -26.7 17.1 164 164 164
-36.2 -27.1 17.7 67 68 66
-23.9 -18.3 11.9 65 65 65
-23.3 -18.0 11.8 66 66 66
-18.4 -15.5 10.1 145 147 147
-14.0 -15.6 10.2 87 87 87
-13.0 -26.7 17.4 188 190 190
-12.5 -26.4 17.2 182 182 182
-12.0 -26.4 17.2 172 172 172
53.6 -49.1 32.1 206 209 208
64.3 -56.6 36.9 206 209 208
64.2 -55.8 36.4 207 210 209
62.7 -53.8 35.1 207 210 209
63.3 -26.6 17.4 168 170 169
63.1 -26.4 17.2 164 164 164
63.2 -26.2 17.1 156 159 158
-24.0 -18.1 12.0 65 65 65
-23.5 -17.9 11.9 65 65 65
-18.3 -15.3 10.1 64 64 64
-10.9 -18.6 12.3 37 38 37
-13.1 -29.2 19.4 172 172 172
54.1 -49.6 32.8 210 210 210
52.1 -45.8 30.4 211 211 211
64.3 -55.8 36.9 206 209 208
63.9 -54.7 36.2 206 209 208
61.0 -51.5 34.1 207 210 209
61.1 -51.0 33.8 207 210 209
61.8 -50.9 33.7 207 210 209
79.8 -34.1 22.6 184 187 186
64.1 -26.5 17.6 169 171 170
63.7 -26.2 17.4 163 163 163
63.5 -26.0 17.2 157 157 157
-24.7 -18.1 12.2 58 58 56
-24.1 -17.9 12.0 56 56 56
-10.9 -17.9 12.0 38 40 40
-10.9 -18.3 12.3 35 35 35
-13.6 -29.0 19.5 175 177 177
-13.2 -28.9 19.4 174 174 174
54.0 -48.7 32.8 210 210 210
54.3 -48.3 32.5 210 210 210
63.3 -54.1 36.4 206 209 208
62.7 -52.8 35.6 211 211 211
61.0 -50.8 34.1 206 209 208
61.1 -50.2 33.8 206 209 208
63.3 -51.3 34.5 207 210 209
64.9 -52.0 35.0 207 210 209
1089.7 -540.7 363.8 198 198 198
80.1 -33.7 22.7 186 188 187
79.3 -33.2 22.3 184 184 184
64.5 -26.3 17.7 170 172 172
64.1 -26.0 17.5 164 164 164
64.1 -25.8 17.4 158 158 158
-31.1 -29.6 20.3 27 27 27
-14.0 -29.2 20.0 177 180 179
-13.3 -28.8 19.7 176 179 178
-12.9 -28.8 19.7 175 177 177
54.2 -48.1 32.9 209 209 209
69.9 -55.8 38.1 211 211 211
66.5 -52.4 35.8 211 211 211
64.7 -50.3 34.4 211 211 211
61.0 -46.9 32.1 207 210 209
1030.2 -503.2 343.9 198 198 198
82.8 -34.6 23.6 188 190 190
80.5 -33.3 22.8 188 190 190
79.8 -32.9 22.5 185 185 185
65.3 -26.2 17.9 169 169 169
64.5 -25.7 17.6 164 164 164
64.2 -25.4 17.4 158 158 158
64.8 -25.5 17.5 152 152 152
-52.8 -30.0 20.8 149 149 149
-52.0 -29.8 20.7 137 137 137
-51.2 -30.2 21.0 188 188 188
-50.2 -29.9 20.7 177 177 177
-49.9 -30.0 20.8 111 111 111
-49.9 -30.3 21.0 80 82 79
-49.3 -30.2 21.0 75 75 75
-48.2 -29.8 20.7 67 67 67
-48.0 -30.0 20.8 129 132 131
-47.3 -29.9 20.7 172 174 174
-31.9 -29.9 20.7 34 33 32
-31.4 -29.9 20.7 61 60 59
-31.4 -30.3 21.0 82 83 81
-30.4 -29.9 20.7 89 91 90
-15.3 -30.4 21.1 168 170 169
-14.2 -29.2 20.3 177 177 177
-13.6 -28.9 20.1 176 176 176
-13.2 -29.0 20.2 146 148 148
67.1 -54.8 38.1 210 210 210
67.7 -54.6 37.9 210 210 210
70.6 -55.5 38.5 211 211 211
68.9 -53.4 37.1 211 211 211
67.7 -51.9 36.0 211 211 211
83.1 -34.1 23.7 189 191 191
81.5 -33.3 23.1 186 186 186
80.4 -32.6 22.6 186 186 186
66.0 -26.1 18.1 169 169 169
65.1 -25.5 17.7 161 164 163
64.5 -25.1 17.5 159 159 159
65.7 -25.5 17.7 154 154 154
-53.3 -30.0 21.2 183 183 183
-51.8 -30.3 21.4 170 171 170
-50.9 -30.1 21.3 170 171 170
-50.6 -30.2 21.3 148 148 148
-50.0 -30.1 21.3 157 160 159
-49.4 -30.1 21.2 81 83 80
-49.0 -30.1 21.3 84 84 84
-32.6 -30.1 21.2 75 75 75
-32.1 -30.1 21.2 42 42 42
-31.6 -30.0 21.2 29 29 29
-31.1 -30.0 21.2 20 23 21
-15.4 -30.2 21.4 169 171 170
72.7 -56.2 39.7 210 210 210
70.7 -53.9 38.1 211 211 211
33.8 -20.4 14.4 199 199 199
80.5 -32.3 22.8 190 192 192
80.2 -32.0 22.6 188 188 188
79.5 -31.5 22.2 185 185 185
65.2 -25.2 17.8 162 162 162
65.8 -25.1 17.7 150 152 152
-52.2 -30.1 21.6 179 179 179
-51.7 -30.1 21.6 136 136 136
-51.2 -30.1 21.6 91 91 91
-50.7 -30.1 21.6 206 209 208
-12.6 -14.2 10.2 42 42 42
-15.8 -30.4 21.8 172 174 174
73.3 -57.9 41.6 211 211 211
75.4 -58.8 42.2 212 213 212
75.8 -58.3 41.9 210 210 210
74.6 -56.7 40.7 210 210 210
72.9 -54.7 39.2 210 210 210
34.0 -20.6 14.8 196 196 196
33.9 -20.3 14.6 199 199 199
33.8 -20.1 14.4 199 199 199
80.3 -31.7 22.7 191 194 193
80.4 -31.5 22.6 189 189 189
80.3 -31.3 22.4 186 186 186
65.4 -24.8 17.8 161 161 161
64.0 -24.2 17.3 156 156 156
-25.4 -14.1 10.3 131 133 132
-25.1 -14.1 10.3 131 134 133
-24.9 -14.1 10.3 165 168 167
-24.7 -14.1 10.3 202 202 202
-14.6 -14.1 10.3 41 41 41
-14.4 -14.1 10.3 102 102 102
-14.1 -14.1 10.3 35 35 35
-13.9 -14.1 10.3 39 39 39
-13.7 -14.1 10.3 136 138 137
-13.4 -14.1 10.3 30 31 30
-13.2 -14.1 10.3 28 28 28
-12.9 -14.1 10.3 30 31 30
-12.7 -14.0 10.3 42 44 43
-12.4 -14.0 10.2 80 80 80
-12.2 -14.1 10.3 41 43 42
-12.0 -14.1 10.3 82 83 81
72.8 -57.3 41.9 211 211 211
73.0 -56.7 41.4 211 211 211
74.6 -57.2 41.8 211 211 211
75.3 -57.0 41.6 212 213 212
74.4 -55.6 40.6 212 213 212
72.7 -53.7 39.2 210 210 210
89.0 -57.1 41.7 195 195 195
86.9 -55.1 40.2 195 195 195
33.9 -20.2 14.8 196 196 196
33.9 -20.0 14.6 199 199 199
34.0 -19.9 14.5 199 199 199
80.6 -31.1 22.7 190 190 190
80.2 -30.7 22.4 184 184 184
76.5 -29.1 21.3 176 179 178
-30.4 -17.1 12.7 106 108 108
-30.2 -17.1 12.7 66 66 66
-29.8 -17.1 12.7 67 67 67
-29.5 -17.1 12.7 47 47 47
-13.0 -13.9 10.3 34 34 34
-15.1 -17.1 12.7 37 38 37
-14.8 -17.1 12.7 37 38 37
-16.8 -35.9 26.7 168 168 168
13.1 -13.9 10.3 210 210 210
548.7 -398.1 295.6 212 213 212
73.2 -46.7 34.6 193 193 193
87.6 -55.3 41.0 195 195 195
83.0 -51.8 38.4 197 197 197
33.9 -19.7 14.6 199 199 199
34.0 -19.5 14.5 196 196 196
34.4 -19.6 14.5 199 199 199
81.6 -30.9 23.0 189 189 189
81.3 -30.6 22.7 189 189 189
-31.4 -17.2 13.0 174 174 174
-31.1 -17.2 13.0 103 103 103
-30.9 -17.2 13.0 48 48 48
-30.5 -17.1 13.0 50 50 50
-29.6 -16.8 12.7 29 30 28
-29.9 -17.2 13.0 17 21 18
-17.2 -36.1 27.3 165 165 165
13.1 -13.6 10.3 210 210 210
296.4 -214.0 161.7 211 211 211
68.5 -41.1 31.1 198 198 198
77.3 -27.4 20.7 136 138 137
-31.4 -17.2 13.2 48 48 48
-31.1 -17.2 13.2 34 34 34
-18.0 -35.8 27.5 89 89 89
301.6 -213.9 164.5 211 211 211
78.5 -27.5 21.1 135 135 135
77.9 -27.1 20.8 135 135 135
-33.4 -18.0 14.1 53 52 52
-33.1 -18.0 14.1 29 30 28
-33.0 -18.1 14.2 26 26 26
-32.3 -18.1 14.2 25 25 25
-31.9 -18.0 14.1 162 162 162
-17.2 -33.7 26.4 91 93 92
-18.7 -37.9 29.6 88 90 89
-17.7 -37.2 29.1 57 59 59
622.5 -439.2 343.9 214 214 214
510.0 -355.3 278.2 211 211 211
585.3 -402.6 315.3 211 211 211
646.5 -439.2 343.9 212 213 212
600.0 -402.6 315.3 212 213 212
768.3 -503.3 394.1 212 213 212
80.2 -27.5 21.6 129 132 131
79.5 -27.1 21.3 129 132 131
-33.5 -17.7 14.1 38 40 40
-33.2 -17.7 14.1 36 36 36
-33.2 -17.9 14.3 25 25 25
-33.0 -17.9 14.3 25 25 25
-32.4 -17.8 14.2 26 26 26
-32.0 -17.8 14.2 162 162 162
-19.2 -38.1 30.4 91 91 91
-18.4 -38.0 30.3 74 76 75
684.8 -474.4 378.3 214 214 214
578.0 -395.3 315.3 214 214 214
616.1 -416.1 331.9 215 215 215
683.8 -456.1 363.8 215 215 215
720.0 -474.4 378.3 215 215 215
62.5 -35.2 28.1 199 199 199
61.6 -34.3 27.3 199 199 199
80.9 -27.1 21.6 122 122 122
-34.0 -17.8 14.5 25 25 25
-33.8 -17.9 14.5 17 21 18
-33.6 -17.9 14.6 17 21 18
-32.9 -17.8 14.4 23 23 23
-32.4 -17.7 14.4 144 146 146
-32.4 -17.8 14.5 155 155 155
-20.6 -40.2 32.7 91 91 91
-21.2 -42.9 34.8 88 90 89
59.9 -32.7 26.6 199 199 199
58.5 -31.6 25.7 200 200 200
81.6 -26.9 21.8 112 112 112
81.9 -26.8 21.8 113 115 114
82.4 -26.8 21.8 115 117 116
81.3 -26.3 21.4 134 136 135
-30.8 -15.7 13.0 26 26 26
-30.5 -15.7 13.0 23 23 23
-34.2 -17.9 14.9 16 20 17
-33.8 -17.9 14.8 25 25 25
-22.7 -42.0 34.8 93 93 93
-21.1 -40.5 33.5 93 93 93
-21.0 -41.8 34.6 70 69 68
-20.8 -43.1 35.7 56 58 58
58.1 -31.2 25.8 199 199 199
57.7 -30.6 25.4 200 200 200
81.7 -26.2 21.7 104 104 104
81.7 -26.0 21.6 92 92 92
79.9 -25.3 21.0 153 153 153
-16.0 -14.0 11.8 75 77 75
-14.6 -13.2 11.2 98 98 98
-22.6 -40.9 34.5 96 96 96
-21.8 -40.9 34.5 94 94 94
-21.0 -41.0 34.6 90 90 90
-20.8 -42.3 35.7 38 38 38
-19.9 -42.0 35.5 32 32 32
58.9 -31.0 26.2 199 199 199
57.4 -29.9 25.2 200 200 200
52.9 -27.0 22.8 200 200 200
47.4 -23.7 20.0 205 205 205
53.0 -17.2 14.5 105 105 105
52.8 -17.0 14.4 106 106 106
46.4 -14.5 12.3 65 65 63
79.1 -24.6 20.8 155 155 155
-15.2 -13.3 11.4 34 34 34
-14.6 -13.0 11.2 34 34 34
-22.3 -41.1 35.4 95 95 95
-21.7 -41.5 35.8 94 97 96
-21.3 -42.3 36.4 90 90 90
18.7 -13.2 11.3 211 211 211
718.5 -399.3 343.9 180 180 180
52.8 -26.7 23.0 200 200 200
52.7 -26.3 22.7 200 200 200
53.4 -17.1 14.7 102 102 102
53.0 -16.9 14.5 102 102 102
52.9 -16.8 14.4 97 97 97
53.4 -16.8 14.5 91 93 92
46.7 -14.3 12.3 82 82 82
45.8 -14.0 12.0 156 159 158
-15.9 -13.4 11.8 37 38 37
-15.2 -13.0 11.5 34 34 34
-22.9 -42.9 37.7 81 81 81
17.7 -12.9 11.4 214 214 214
18.7 -12.9 11.3 215 215 215
519.9 -283.2 248.9 180 180 180
684.7 -364.8 320.6 198 198 198
52.1 -25.8 22.7 200 200 200
50.6 -24.8 21.8 200 200 200
49.0 -23.8 20.9 204 204 204
46.5 -22.1 19.5 205 205 205
53.3 -16.6 14.6 95 95 95
53.1 -16.5 14.5 84 84 84
53.8 -16.6 14.6 70 70 70
46.1 -13.8 12.1 156 156 156
-15.2 -12.8 11.4 34 34 34
-23.4 -41.4 37.2 95 98 97
-22.8 -41.9 37.6 106 106 106
-21.7 -41.3 37.1 23 23 22
17.8 -12.8 11.5 215 218 217
49.8 -23.9 21.4 204 204 204
48.1 -22.9 20.5 204 204 204
46.4 -21.8 19.6 204 204 204
53.1 -16.2 14.6 87 87 87
52.9 -16.1 14.4 76 78 77
53.7 -16.2 14.5 75 75 75
53.5 -16.0 14.4 73 73 73
46.7 -13.7 12.3 163 162 160
-22.4 -14.2 13.0 197 200 199
-22.2 -14.3 13.1 214 214 214
-15.2 -12.5 11.5 27 29 27
-23.1 -41.4 38.0 107 107 107
-22.1 -41.2 37.8 13 17 14
46.0 -21.2 19.4 204 204 204
52.5 -15.6 14.3 85 85 85
53.1 -15.7 14.4 76 78 77
52.9 -15.5 14.2 76 78 77
52.6 -15.3 14.1 76 78 77
-27.4 -16.3 15.3 197 197 197
-26.5 -16.0 15.0 122 122 122
-25.5 -15.6 14.6 58 59 59
52.5 -15.3 14.3 88 88 88
53.1 -15.4 14.4 77 79 78
52.8 -15.2 14.2 77 79 78
52.8 -15.1 14.1 77 79 78
-27.5 -16.0 15.4 216 219 218
-26.3 -15.5 14.9 212 213 212
-25.4 -15.2 14.6 197 200 199
-25.1 -15.2 14.6 85 86 84
52.7 -15.0 14.4 91 93 92
53.4 -15.1 14.5 79 81 80
-25.3 -14.8 14.5 215 218 217
200.0 -95.7 93.6 200 200 200
240.2 -113.7 111.3 200 200 200
52.7 -14.7 14.4 91 93 92
14.6 -10.1 10.1 216 219 218
17.7 -11.4 11.4 218 221 220
281.4 -133.0 133.2 196 196 196
277.8 -128.5 128.7 200 200 200
-26.5 -14.6 15.0 226 226 226
-25.5 -14.2 14.6 221 221 221
-15.1 -11.1 11.4 77 79 77
-45.3 -75.6 77.5 47 48 47
14.4 -9.9 10.2 216 219 218
14.5 -9.8 10.1 216 219 218
17.5 -11.0 11.3 218 221 220
18.5 -11.0 11.3 219 222 221
279.7 -126.3 129.6 200 200 200
-26.5 -14.2 15.0 219 219 219
-25.4 -13.8 14.5 214 216 216
-15.1 -10.8 11.4 18 22 19
-14.6 -10.6 11.2 42 44 43
-14.0 -10.4 10.9 120 120 120
-56.0 -87.8 92.3 111 111 111
-52.1 -84.9 89.2 30 29 29
14.4 -9.7 10.2 216 219 218
14.5 -9.6 10.1 219 222 221
-15.7 -10.8 11.6 159 158 156
-14.5 -10.3 11.1 44 44 44
-13.9 -10.1 10.9 135 135 135
-67.8 -99.8 107.5 99 101 101
-60.5 -92.4 99.6 112 112 112
-58.5 -92.9 100.1 23 23 22
-59.3 -98.1 105.7 20 20 20
-56.8 -98.1 105.7 168 168 168
-55.0 -99.2 106.9 181 184 183
161.9 -68.9 74.2 202 202 202
144.8 -61.0 65.7 202 202 202
-15.7 -10.5 11.6 158 157 155
-15.1 -10.3 11.4 91 91 91
-14.6 -10.1 11.2 47 46 45
-76.0 -109.1 120.5 98 98 98
-65.6 -97.8 108.1 105 105 105
-65.4 -101.3 111.9 28 28 28
-63.5 -102.5 113.3 17 17 17
-63.2 -106.4 117.5 163 163 163
144.3 -59.3 65.5 202 202 202
-15.1 -10.0 11.4 102 102 102
-14.7 -9.9 11.2 146 146 146
-13.9 -9.6 10.8 87 89 88
-73.2 -110.5 125.3 31 33 33
-73.7 -115.9 131.4 33 33 33
-72.6 -119.2 135.1 173 173 173
768.4 -320.8 363.8 173 173 173
602.9 -249.0 282.3 198 198 198
651.8 -260.7 295.6 202 202 202
-15.1 -9.8 11.4 135 135 135
-13.9 -9.3 10.8 127 127 127
-92.2 -141.3 164.5 26 26 26
-152.0 -253.8 295.6 181 184 183
622.6 -242.5 282.3 202 202 202
-15.2 -9.6 11.5 43 45 45
-13.9 -9.1 10.8 31 32 30
19.7 -9.9 11.8 220 223 222
19.6 -9.7 11.6 220 223 222
19.5 -9.5 11.4 220 223 222
279.4 -110.5 132.3 174 176 176
210.4 -82.3 98.5 196 196 196
230.7 -89.3 106.9 198 198 198
595.9 -225.8 270.2 198 198 198
19.8 -9.6 11.8 220 223 222
19.6 -9.4 11.6 220 223 222
19.5 -9.2 11.4 220 223 222
192.4 -73.2 90.1 193 193 193
272.2 -102.4 126.1 198 198 198
613.4 -226.0 278.2 198 198 198
19.3 -8.9 11.3 220 223 222
194.2 -71.8 90.9 184 184 184
274.1 -100.2 127.0 196 196 196
859.9 -310.9 394.1 198 198 198
622.6 -222.8 282.3 198 198 198
20.6 -10.2 13.3 220 223 222
162.5 -57.0 74.5 198 198 198
651.8 -226.3 295.6 198 198 198
20.5 -9.8 13.2 220 223 222
161.2 -54.9 73.9 196 196 196
173.2 -54.9 73.9 203 203 203
174.3 -54.7 73.6 205 205 205
176.7 -54.9 73.9 209 209 209
171.7 -52.8 71.1 200 200 200
20.4 -9.3 12.9 220 223 222
161.2 -53.1 73.9 196 196 196
178.5 -55.3 76.9 203 203 203
173.9 -53.4 74.2 203 203 203
172.9 -52.5 73.0 205 205 205
176.0 -52.9 73.6 208 208 208
168.5 -50.2 69.8 200 200 200
112.7 -38.8 55.8 223 225 225
182.6 -58.3 83.7 194 194 194
651.8 -205.7 295.6 196 196 196
125.5 -39.2 56.3 196 196 196
192.6 -57.7 83.0 203 203 203
190.0 -55.3 79.5 208 208 208
534.8 -163.2 242.5 196 196 196
386.7 -116.8 173.5 196 196 196
367.2 -109.7 163.1 198 198 198
221.8 -64.9 96.5 199 199 199
203.3 -58.9 87.6 203 203 203
216.4 -62.1 92.3 203 203 203
221.7 -63.0 93.6 205 205 205
201.9 -56.8 84.4 208 208 208
128.4 -41.8 64.3 223 225 225
127.3 -41.0 63.1 223 225 225
226.9 -68.3 105.1 179 179 179
563.7 -166.0 255.6 196 196 196
221.8 -62.7 96.5 199 199 199
216.3 -60.5 93.2 199 199 199
224.0 -62.1 95.5 203 203 203
228.5 -62.7 96.5 208 208 208
162.7 -44.2 68.0 209 209 209
154.8 -41.7 64.1 198 198 198
131.1 -41.1 65.7 223 225 225
131.7 -40.9 65.2 223 225 225
159.4 -45.7 73.0 191 191 191
213.1 -58.1 92.7 199 199 199
171.2 -45.7 73.0 203 203 203
158.3 -41.9 66.8 205 205 205
166.9 -43.7 69.8 209 209 209
160.8 -41.7 66.6 200 200 200
-770.4 -190.1 315.3 77 77 77
-683.3 -170.3 282.3 72 72 72
-872.0 -219.4 363.8 73 73 73
88.7 -72.2 119.7 223 225 225
14.7 -6.4 10.6 219 222 221
254.5 -72.7 120.5 101 103 103
244.5 -68.3 113.3 175 177 177
162.5 -44.9 74.5 190 190 190
272.0 -73.6 122.0 197 197 197
264.6 -70.9 117.5 197 197 197
248.7 -65.9 109.3 197 197 197
232.5 -61.0 101.2 199 199 199
247.5 -63.0 104.5 205 205 205
175.3 -44.2 73.3 208 208 208
173.0 -43.2 71.7 204 204 204
89.3 -69.9 120.5 220 223 222
90.9 -69.0 119.0 220 223 222
84.1 -62.0 106.9 220 223 222
14.7 -6.1 10.6 219 219 219
254.5 -69.9 120.5 97 97 97
232.0 -62.3 107.5 174 176 176
277.3 -72.2 124.4 194 194 194
266.2 -68.6 118.2 197 197 197
250.2 -63.8 110.0 197 197 197
230.0 -58.0 100.1 199 199 199
227.5 -56.8 98.0 200 200 200
234.7 -58.0 100.1 203 203 203
244.8 -59.9 103.4 205 205 205
100.1 -75.2 135.1 220 220 220
104.0 -75.7 136.1 220 220 220
14.8 -5.9 10.6 219 219 219
281.4 -74.1 133.2 68 71 70
297.0 -77.4 139.1 139 141 140
247.5 -63.8 114.6 173 173 173
299.0 -74.7 134.2 195 195 195
291.7 -72.1 129.6 192 192 192
288.8 -70.7 127.0 198 198 198
230.0 -55.7 100.1 200 200 200
226.4 -54.3 97.5 200 200 200
232.2 -55.1 99.0 204 204 204
254.5 -59.8 107.5 204 204 204
152.5 -113.4 212.5 221 221 221
131.0 -94.3 176.8 218 218 218
14.8 -5.7 10.6 217 217 217
644.9 -157.6 295.6 185 185 185
521.4 -126.1 236.5 190 190 190
434.6 -104.0 195.0 195 195 195
448.3 -106.2 199.1 195 195 195
421.9 -98.9 185.5 198 198 198
158.6 -35.0 65.7 202 202 202
169.7 -120.6 236.5 218 218 218
149.1 -102.6 201.2 218 218 218
14.7 -5.4 10.6 217 217 217
556.2 -128.7 252.2 190 190 190
501.8 -114.9 225.2 193 193 193
489.6 -110.9 217.4 195 195 195
448.3 -100.5 197.0 198 198 198
164.9 -34.8 68.3 202 202 202
14.7 -5.1 10.6 215 215 215
189.3 -38.5 79.1 206 206 206
182.7 -36.8 75.7 202 202 202
194.2 -38.1 78.2 126 125 124
29.8 -4.9 15.1 226 226 226
28.5 -4.6 15.3 226 226 226
29.6 -4.7 15.6 226 226 226
30.3 -4.6 15.4 226 226 226
22.1 -4.3 15.4 213 215 215
22.5 -4.3 15.4 218 218 218
28.1 -4.3 15.3 224 224 224
28.4 -4.2 15.3 224 224 224
28.9 -4.3 15.4 227 227 227
29.3 -4.3 15.4 227 227 227
29.6 -4.3 15.4 227 227 227
30.0 -4.3 15.4 227 227 227
30.2 -4.3 15.3 227 227 227
21.9 -3.9 15.5 213 215 215
22.1 -3.9 15.4 214 216 216
22.4 -3.9 15.3 219 219 219
22.8 -3.9 15.3 219 219 219
23.4 -3.9 15.5 219 219 219
23.6 -3.9 15.4 221 221 221
23.9 -3.9 15.4 221 221 221
24.2 -3.9 15.3 221 221 221
24.6 -3.9 15.3 225 225 225
24.9 -3.9 15.3 225 225 225
27.1 -3.9 15.4 225 225 225
27.4 -3.9 15.3 225 225 225
27.8 -3.9 15.4 225 225 225
28.1 -3.9 15.3 225 225 225
28.4 -3.9 15.3 221 221 221
28.8 -3.9 15.3 227 227 227
29.2 -3.9 15.4 227 227 227
29.6 -3.9 15.3 225 225 225
29.9 -3.9 15.3 225 225 225
30.1 -3.9 15.3 225 225 225
22.3 -3.6 15.5 214 216 216
23.5 -3.6 15.6 219 219 219
23.9 -3.6 15.6 221 221 221
28.1 -3.5 15.4 225 225 225
28.4 -3.5 15.3 221 221 221
29.5 -3.6 15.5 228 228 228
29.7 -3.6 15.4 228 228 228
30.2 -3.5 15.3 225 225 225
28.1 -2.8 15.1 226 226 226
29.9 -2.8 15.1 226 226 226
29.2 -2.7 14.6 226 226 226
27.9 -2.5 15.2 227 227 227
28.1 -2.4 15.1 227 227 227
29.4 -2.5 15.2 226 226 226
29.6 -2.5 15.2 226 226 226
29.9 -2.4 15.2 226 226 226
29.2 -2.3 14.5 226 226 226
28.1 -2.1 15.3 227 227 227
28.2 -2.1 15.2 227 227 227
29.6 -2.1 15.3 227 227 227
30.2 -2.1 15.3 227 227 227
29.5 -2.0 14.8 227 227 227
29.4 -2.0 14.6 227 227 227
502.6 -26.9 195.0 74 74 74
841.2 -44.3 320.6 64 64 64
28.0 -1.8 15.3 225 225 225
28.2 -1.7 15.2 225 225 225
30.0 -1.7 15.2 227 227 227
29.5 -1.7 14.8 227 227 227
-627.2 16.8 236.5 60 60 60
-672.2 18.1 255.6 60 60 60
-666.2 18.1 255.6 60 60 60
-634.5 17.4 245.7 60 60 60
-605.3 16.8 236.5 61 61 61
-592.4 16.6 233.5 61 61 61
-594.3 16.8 236.5 61 61 61
-588.8 16.8 236.5 59 59 59
-583.3 16.8 236.5 59 59 59
-570.6 16.6 233.5 56 57 55
-565.2 16.6 233.5 60 60 60
-574.0 17.0 239.4 60 60 60
-568.4 17.0 239.4 57 58 56
-440.4 16.8 236.5 48 48 48
-429.4 16.8 236.5 52 52 50
-413.6 16.4 230.7 53 52 51
-413.2 16.6 233.5 55 55 55
-407.8 16.6 233.5 54 53 52
-407.4 16.8 236.5 54 53 52
-407.0 17.0 239.4 52 52 52
-396.4 16.8 236.5 44 44 44
-390.9 16.8 236.5 33 32 30
-376.0 16.4 230.7 21 24 22
-81.1 6.3 53.6 27 27 27
-77.2 6.1 51.8 28 28 28
-75.4 6.0 51.4 28 28 28
-73.6 6.0 51.0 26 26 26
-74.1 6.3 53.9 29 29 29
-70.6 6.1 52.3 29 29 29
-70.4 6.2 53.0 33 34 32
-68.0 6.1 52.1 33 34 32
-66.4 6.1 51.8 169 169 169
-65.0 6.1 51.7 77 78 76
-73.4 7.0 50.0 28 28 28
-68.5 6.7 47.4 31 32 30
-64.6 7.0 49.5 33 34 32
-62.8 6.9 49.0 126 126 126
-65.5 7.4 45.4 183 183 183
-62.4 7.2 43.9 163 163 163
97.3 4.2 25.7 96 99 98
63.1 3.1 16.7 103 103 103
64.3 3.6 17.1 95 98 97
63.7 3.5 16.8 102 102 102
104.7 5.8 27.5 86 85 83
108.8 6.7 28.6 77 77 77
110.5 6.7 28.8 165 168 167
-42.7 3.9 15.2 63 64 62
-42.4 3.9 15.2 65 66 64
-41.4 3.9 15.2 70 72 69
-41.0 3.9 15.2 70 72 69
-40.6 3.9 15.2 67 67 67
-40.3 3.9 15.2 71 73 73
-39.9 3.9 15.2 63 64 62
-39.6 3.9 15.2 71 72 70
-39.2 3.9 15.2 67 67 67
-38.9 3.9 15.2 90 90 90
-38.5 3.9 15.2 151 153 153
-37.9 3.9 15.2 205 205 205
-37.5 3.9 15.2 167 167 167
-37.0 3.9 15.2 170 172 172
-36.7 3.9 15.2 171 173 173
16.6 2.6 10.1 183 186 185
109.5 7.4 28.7 179 182 181
111.0 7.4 29.0 168 168 168
-42.3 4.2 15.2 50 50 50
-41.7 4.3 15.2 90 92 91
-41.3 4.3 15.2 127 127 127
-40.9 4.3 15.2 184 184 184
-40.6 4.2 15.2 207 210 209
-40.2 4.3 15.2 203 203 203
-39.2 4.2 15.2 209 209 209
16.5 2.8 10.0 173 175 175
109.2 8.0 28.7 133 133 133
110.5 8.1 28.8 159 159 159
-302.3 69.2 185.5 17 17 17
31.3 5.6 15.0 198 198 198
31.2 5.9 14.9 196 196 196
31.2 6.3 15.0 196 196 196
31.3 6.6 15.0 197 197 197
31.7 7.1 15.2 197 197 197
30.0 7.4 15.2 222 222 222
31.5 7.4 15.1 200 200 200
29.8 7.6 14.9 226 226 226
31.6 7.8 15.1 198 198 198
29.9 8.1 15.2 221 221 221
31.3 8.0 15.0 196 196 196
-253.8 54.0 96.5 131 133 132
-240.1 53.4 95.5 146 146 146
-236.7 53.1 95.1 151 151 151
-237.0 54.2 97.0 153 153 153
-232.4 53.7 96.0 153 153 153
-227.9 53.1 95.1 152 152 152
-224.5 52.9 94.6 105 107 107
-224.6 53.4 95.5 124 127 126
-219.0 52.6 94.1 171 173 173
-222.4 54.5 97.5 115 117 116
-210.1 53.7 96.0 25 25 25
-204.7 52.9 94.6 58 58 58
-206.7 54.0 96.5 72 73 71
-203.4 53.7 96.0 84 83 81
-200.1 53.4 95.5 79 79 79
-134.2 53.7 96.0 117 117 117
-114.2 54.8 98.0 229 229 229
-109.6 53.7 96.0 195 195 195
-112.6 56.3 100.6 110 110 110
-112.6 57.5 102.8 94 97 96
-107.3 56.0 100.1 87 87 87
-97.0 55.4 99.0 108 108 108
-92.3 54.0 96.5 27 27 27
40.1 54.0 96.5 61 61 61
41.9 53.4 95.5 74 74 74
43.9 53.1 95.1 83 82 80
46.1 53.1 95.1 84 83 81
48.3 53.1 95.1 85 84 82
50.5 53.1 95.1 81 81 81
31.2 8.4 14.9 196 196 196
-270.0 56.8 97.5 40 40 40
-263.6 58.9 101.2 129 129 129
-252.9 58.6 100.6 138 140 139
-242.8 56.8 97.5 143 143 142
-244.8 58.9 101.2 146 146 146
-236.2 57.4 98.5 138 140 139
-237.6 58.3 100.1 128 130 129
-236.5 58.6 100.6 126 128 127
-280.4 70.2 120.5 155 155 155
-246.2 62.2 106.9 143 145 144
-220.1 56.8 97.5 81 80 79
-213.3 56.8 97.5 82 81 79
-213.3 57.4 98.5 88 88 88
-213.2 58.0 99.6 89 89 89
-208.7 57.4 98.5 98 100 100
-206.4 57.4 98.5 99 101 101
-137.7 57.4 98.5 102 104 104
-131.3 55.6 95.5 89 89 87
-116.6 58.3 100.1 45 45 45
-147.9 75.5 129.6 67 68 66
-124.1 66.0 113.3 74 76 75
-112.7 61.2 105.1 72 73 71
-105.8 62.9 108.1 91 93 92
-96.2 58.6 100.6 90 92 91
-85.6 53.5 91.8 120 122 121
45.3 57.1 98.0 85 84 82
50.1 57.4 98.5 88 88 88
51.3 56.2 96.5 83 83 83
29.9 8.8 15.1 219 219 219
-253.3 131.7 217.4 39 39 39
-194.1 105.1 173.5 67 68 66
-161.9 89.5 147.8 72 72 72
-195.0 120.6 199.1 72 72 72
-459.2 247.8 394.1 30 31 30
187.3 242.8 386.0 89 89 87
-415.8 257.6 356.9 30 31 30
-7.6 210.1 291.0 43 43 43
27.4 16.4 11.4 210 210 210
27.6 16.3 11.3 215 215 215
27.7 16.8 11.5 210 210 210
27.7 16.7 11.4 212 213 212
41.3 16.5 11.1 139 139 139
41.3 16.7 11.1 136 138 137
41.9 17.3 11.3 134 136 135
-28.2 17.0 10.5 198 198 198
-23.3 16.5 10.0 60 62 60
20.2 16.6 10.0 186 186 186
20.5 16.5 10.0 189 189 189
23.5 16.5 10.0 136 135 134
