ply
format ascii 1.0
element vertex 2135
property float x
property float y
property float z
property uchar red
property uchar green
property uchar blue
end_header
262.7 -949.2 378.3 161 161 161
271.5 -949.2 378.3 164 164 164
280.3 -949.2 378.3 165 165 165
295.0 -968.6 386.0 165 165 165
303.9 -968.6 386.0 165 165 165
306.7 -949.2 378.3 165 165 165
315.5 -949.2 378.3 165 165 165
324.2 -949.2 378.3 165 165 165
333.0 -949.2 378.3 165 165 165
341.8 -949.2 378.3 165 165 165
350.6 -949.2 378.3 165 165 165
359.4 -949.2 378.3 166 166 166
368.2 -949.2 378.3 166 166 166
377.0 -949.2 378.3 166 166 166
385.8 -949.2 378.3 166 166 166
386.9 -930.6 370.9 163 163 163
403.4 -949.2 378.3 163 163 163
412.2 -949.2 378.3 163 163 163
429.6 -968.6 386.0 163 163 163
438.5 -968.6 386.0 163 163 163
447.5 -968.6 386.0 163 163 163
447.4 -949.2 378.3 160 160 160
447.2 -930.6 370.9 161 161 161
464.9 -949.2 378.3 161 161 161
483.4 -968.6 386.0 161 161 161
482.5 -949.2 378.3 161 161 161
491.3 -949.2 378.3 161 161 161
510.3 -968.6 386.0 158 158 158
519.3 -968.6 386.0 158 158 158
517.7 -949.2 378.3 158 158 158
487.5 -878.9 350.3 159 159 159
535.3 -949.2 378.3 159 159 159
552.9 -949.2 378.3 154 156 156
93.8 -149.2 59.5 155 158 157
94.9 -148.8 59.3 155 158 157
53.5 -76.2 30.4 156 159 158
54.3 -76.2 30.4 156 159 158
265.1 -516.7 207.9 161 161 161
264.1 -479.8 193.0 161 161 161
78.7 -127.8 51.4 159 159 159
77.4 -123.7 49.8 159 159 159
129.7 -204.4 82.2 160 160 160
53.6 -75.6 30.4 156 159 158
54.2 -75.4 30.3 156 159 158
56.0 -77.0 31.0 156 159 158
74.5 -53.5 21.5 96 99 98
53.3 -195.7 79.5 164 164 164
55.2 -195.7 79.5 164 164 164
57.0 -195.7 79.5 164 164 164
58.9 -195.7 79.5 166 169 168
60.7 -195.7 79.5 166 169 168
62.6 -195.7 79.5 166 169 168
64.7 -196.5 79.8 166 169 168
66.6 -196.5 79.8 166 169 168
68.4 -196.5 79.8 166 169 168
70.0 -195.7 79.5 166 169 168
71.8 -195.7 79.5 165 165 165
73.7 -195.7 79.5 165 165 165
75.5 -195.7 79.5 166 166 166
77.7 -196.5 79.8 163 163 163
78.9 -194.9 79.1 163 163 163
81.1 -195.7 79.5 163 163 163
82.9 -195.7 79.5 163 163 163
84.7 -195.7 79.5 163 163 163
86.2 -194.9 79.1 163 163 163
88.1 -194.9 79.1 163 163 163
90.7 -196.5 79.8 163 163 163
92.5 -196.5 79.8 160 160 160
94.0 -195.7 79.5 160 160 160
95.8 -195.7 79.5 164 164 164
97.3 -194.9 79.1 164 164 164
99.5 -195.7 79.5 164 164 164
101.8 -196.5 79.8 161 161 161
104.1 -197.4 80.2 161 161 161
105.5 -196.5 79.8 161 161 161
108.3 -198.2 80.5 161 161 161
117.5 -208.0 84.4 159 159 159
113.9 -198.2 80.5 159 159 159
113.8 -194.9 79.1 162 162 162
116.2 -195.7 79.5 162 162 162
120.5 -199.9 81.2 162 162 162
118.8 -194.1 78.8 162 162 162
120.7 -194.1 78.8 162 162 162
123.5 -195.7 79.5 162 162 162
124.9 -194.9 79.1 163 163 163
127.8 -196.5 79.8 160 160 160
124.9 -189.4 76.9 160 160 160
53.9 -75.3 30.6 158 161 160
54.3 -74.8 30.4 158 161 160
55.9 -76.1 30.9 156 159 158
57.3 -76.0 30.9 157 160 159
71.5 -50.9 20.7 96 99 98
55.9 -38.0 15.4 185 185 185
57.8 -38.3 15.6 210 210 210
58.1 -38.3 15.5 161 164 163
59.4 -38.4 15.6 189 189 189
59.3 -38.1 15.5 192 192 192
51.0 -185.3 76.0 165 168 167
55.4 -182.4 74.8 166 169 168
57.6 -183.8 75.4 166 169 168
66.6 -184.6 75.7 166 169 168
68.1 -183.8 75.4 165 165 165
69.8 -183.8 75.4 165 165 165
71.9 -184.6 75.7 166 166 166
74.2 -181.7 74.5 163 163 163
76.5 -183.1 75.1 163 163 163
80.4 -183.8 75.4 163 163 163
81.5 -182.4 74.8 163 163 163
83.2 -182.4 74.8 163 163 163
87.0 -186.8 76.6 163 163 163
88.4 -186.1 76.3 163 163 163
89.1 -183.8 75.4 164 164 164
90.9 -183.8 75.4 164 164 164
91.2 -181.0 74.2 164 164 164
74.3 -144.6 59.3 164 164 164
75.4 -144.2 59.1 164 164 164
97.5 -183.1 75.1 164 164 164
97.7 -180.2 73.9 164 164 164
103.4 -187.6 76.9 164 164 164
107.9 -192.3 78.8 164 164 164
110.6 -193.9 79.5 164 164 164
103.3 -178.2 73.0 164 164 164
137.0 -225.1 92.3 162 162 162
127.3 -206.0 84.4 162 162 162
131.9 -206.9 84.8 162 162 162
124.9 -193.1 79.1 163 163 163
131.7 -200.6 82.2 163 163 163
122.4 -183.8 75.4 164 164 164
55.0 -76.0 31.2 163 163 163
55.0 -75.0 30.8 158 161 160
56.8 -76.5 31.4 159 162 161
58.5 -77.8 31.9 159 162 161
58.6 -77.0 31.6 160 163 162
70.2 -49.5 20.3 96 99 98
69.7 -48.8 20.0 94 97 96
54.1 -36.4 14.9 195 198 197
55.1 -36.2 14.8 202 202 202
55.6 -36.2 14.9 210 210 210
55.8 -36.2 14.8 207 207 207
56.5 -36.4 14.9 202 202 202
56.9 -36.4 14.9 195 198 197
57.5 -36.6 15.0 214 214 214
40.4 -127.7 52.8 166 169 168
41.6 -127.7 52.8 166 169 168
42.5 -126.6 52.4 166 169 168
43.6 -126.3 52.3 166 169 168
45.2 -127.3 52.7 165 165 165
47.6 -130.6 54.0 165 165 165
48.7 -130.2 53.9 165 165 165
49.8 -129.8 53.7 165 165 165
50.1 -127.3 52.7 166 166 166
52.2 -129.5 53.6 166 166 166
54.8 -129.8 53.7 163 163 163
55.1 -127.7 52.8 163 163 163
57.5 -130.2 53.9 166 166 166
58.1 -128.7 53.3 166 166 166
59.8 -129.8 53.7 163 163 163
60.2 -128.0 53.0 163 163 163
61.4 -128.0 53.0 163 163 163
62.3 -127.3 52.7 166 166 166
63.9 -128.0 53.0 167 167 167
65.7 -129.1 53.4 167 167 167
66.3 -128.0 53.0 164 164 164
66.1 -125.2 51.8 164 164 164
67.7 -125.9 52.1 164 164 164
76.6 -137.7 57.0 164 164 164
72.3 -127.7 52.8 164 164 164
74.6 -129.5 53.6 164 164 164
77.6 -132.5 54.8 164 164 164
146.3 -238.0 98.5 168 168 168
139.1 -222.9 92.3 168 168 168
152.4 -240.5 99.6 168 168 168
144.1 -224.0 92.7 165 165 165
140.1 -214.6 88.8 166 166 166
141.5 -213.6 88.4 166 166 166
137.2 -204.0 84.4 166 166 166
56.4 -77.2 32.0 166 166 166
56.5 -76.4 31.6 163 163 163
58.5 -78.1 32.3 164 164 164
60.3 -79.5 32.9 164 164 164
60.7 -78.9 32.7 160 163 162
60.5 -77.7 32.2 160 163 162
62.4 -79.2 32.8 158 161 160
71.3 -50.1 20.7 96 99 98
69.3 -48.4 20.0 96 99 98
67.9 -47.1 19.5 94 97 96
67.0 -46.2 19.1 94 97 96
53.6 -35.8 14.8 192 192 192
52.8 -35.0 14.5 152 152 152
52.7 -34.7 14.4 195 198 197
53.3 -34.9 14.4 194 194 194
53.6 -34.8 14.4 189 189 189
54.5 -35.2 14.6 172 172 172
54.4 -34.9 14.5 210 210 210
55.3 -35.3 14.6 185 185 185
56.0 -35.5 14.7 214 214 214
56.3 -35.5 14.7 214 214 214
50.9 -105.0 43.9 166 166 166
51.9 -105.0 43.9 169 171 170
53.0 -105.3 44.0 169 171 170
61.5 -117.6 49.1 169 171 170
57.3 -107.5 44.9 169 171 170
54.1 -99.7 41.7 169 171 170
53.8 -97.3 40.7 169 171 170
144.2 -218.7 91.4 171 173 173
144.9 -216.6 90.5 169 169 169
139.6 -205.7 86.0 169 169 169
60.3 -79.7 33.3 169 169 169
61.6 -80.4 33.6 167 167 167
62.7 -80.8 33.8 167 167 167
68.0 -47.1 19.7 96 99 98
66.6 -45.8 19.1 94 97 96
65.5 -44.7 18.7 94 97 96
52.0 -34.1 14.3 133 133 133
52.0 -33.9 14.2 189 189 189
52.4 -33.9 14.2 195 198 197
52.5 -33.8 14.1 181 184 183
53.1 -34.0 14.2 178 181 180
53.4 -33.9 14.2 204 204 204
53.5 -33.8 14.1 216 216 216
54.3 -34.1 14.3 216 216 216
54.5 -34.0 14.2 216 216 216
51.2 -93.4 39.4 169 171 170
47.7 -85.5 36.1 169 171 170
164.0 -246.3 103.9 178 178 178
145.6 -215.5 90.9 171 173 173
183.3 -263.7 111.3 179 179 179
55.1 -74.1 31.3 172 172 172
55.6 -73.7 31.1 174 176 176
58.8 -77.0 32.5 173 173 173
60.2 -77.8 32.8 174 176 176
61.6 -41.3 17.5 93 93 93
51.3 -32.1 13.5 216 216 216
53.1 -32.9 13.9 219 219 219
45.5 -80.7 34.4 176 176 176
43.1 -75.2 32.1 179 179 179
47.8 -82.0 35.0 176 176 176
156.2 -232.4 99.0 181 181 181
147.7 -216.5 92.3 173 175 175
151.3 -218.6 93.2 171 173 173
183.3 -261.1 111.3 182 182 182
176.5 -248.0 105.7 174 176 176
55.7 -73.1 31.2 181 181 181
59.0 -76.5 32.6 173 173 173
59.8 -76.5 32.6 177 180 179
58.6 -74.1 31.6 177 180 179
58.9 -39.2 16.7 94 97 96
57.4 -37.9 16.2 94 97 96
42.4 -73.2 31.5 195 195 195
40.2 -68.2 29.4 198 198 198
155.4 -228.9 98.5 199 199 199
147.0 -213.3 91.8 196 196 196
145.6 -208.3 89.7 203 203 203
177.1 -249.7 107.5 200 200 200
165.5 -230.1 99.0 197 197 197
154.8 -212.3 91.4 197 197 197
60.3 -76.4 32.9 203 203 203
127.8 -93.3 40.2 109 111 111
67.9 -46.6 20.0 102 101 99
67.0 -45.6 19.6 96 99 98
54.8 -35.6 15.3 96 99 98
38.7 -65.0 28.3 202 202 202
45.6 -75.4 32.8 202 202 202
47.1 -75.3 32.7 202 202 202
148.5 -216.4 94.1 203 203 203
145.6 -209.2 90.9 203 203 203
142.2 -201.4 87.6 203 203 203
162.3 -226.6 98.5 204 204 204
158.8 -218.6 95.1 204 204 204
149.7 -203.3 88.4 204 204 204
21.4 -25.5 11.1 205 205 205
21.3 -25.1 10.9 205 205 205
123.6 -89.3 38.8 111 113 112
65.6 -44.5 19.3 104 104 104
65.0 -43.8 19.0 104 104 104
46.1 -74.2 32.6 204 204 204
47.1 -74.5 32.7 204 204 204
45.7 -71.2 31.3 204 204 204
44.8 -68.7 30.2 204 204 204
143.5 -207.0 90.9 205 205 205
140.8 -200.3 88.0 203 203 203
136.5 -191.4 84.1 203 203 203
153.5 -212.1 93.2 204 204 204
152.7 -208.0 91.4 204 204 204
145.0 -194.9 85.6 204 204 204
21.6 -25.9 11.4 207 207 207
21.5 -25.4 11.2 205 205 205
21.6 -25.2 11.1 205 205 205
120.6 -86.3 37.9 111 113 112
64.5 -43.3 19.0 106 106 106
64.3 -42.9 18.8 104 104 104
63.0 -41.7 18.3 104 104 104
44.1 -73.9 32.8 207 207 207
42.6 -70.2 31.2 207 207 207
45.6 -72.6 32.2 204 204 204
46.6 -73.0 32.4 204 204 204
45.8 -70.6 31.3 204 204 204
44.8 -68.0 30.2 204 204 204
126.4 -175.4 77.8 205 205 205
147.0 -201.1 89.2 206 206 206
147.7 -199.2 88.4 206 206 206
136.3 -181.4 80.5 206 206 206
120.7 -158.5 70.3 205 205 205
21.8 -25.9 11.5 207 207 207
21.7 -25.4 11.3 208 208 208
21.8 -25.2 11.2 208 208 208
22.2 -25.4 11.3 205 205 205
122.1 -86.5 38.4 116 116 116
62.9 -41.2 18.3 106 106 106
43.2 -71.6 32.1 207 207 207
42.8 -69.7 31.3 207 207 207
43.9 -70.4 31.6 207 207 207
45.1 -71.1 31.9 207 207 207
45.7 -70.9 31.8 207 207 207
45.5 -69.4 31.1 207 207 207
44.6 -67.1 30.1 210 210 210
44.6 -65.9 29.6 207 207 207
122.9 -168.7 75.7 205 205 205
118.9 -161.0 72.2 205 205 205
134.1 -176.5 79.1 204 204 204
119.4 -155.1 69.5 206 206 206
27.8 -35.6 16.0 206 206 206
41.5 -66.9 30.3 206 206 206
41.9 -66.5 30.1 206 206 206
42.0 -65.4 29.6 206 206 206
43.8 -67.2 30.5 206 206 206
44.2 -66.7 30.2 206 206 206
43.9 -65.2 29.6 206 206 206
43.8 -64.1 29.1 206 206 206
43.9 -63.3 28.7 206 206 206
27.7 -35.1 15.9 206 206 206
27.3 -34.2 15.5 206 206 206
26.8 -33.1 15.0 207 207 207
-20.2 -22.3 10.2 105 107 107
-16.5 -22.4 10.3 120 120 120
41.5 -65.0 29.8 206 206 206
41.7 -64.3 29.5 206 206 206
42.8 -64.9 29.7 206 206 206
43.5 -65.0 29.8 206 206 206
43.8 -64.4 29.5 206 206 206
44.2 -63.9 29.3 206 206 206
44.4 -63.3 29.0 206 206 206
27.4 -34.0 15.6 206 206 206
26.8 -32.8 15.0 206 206 206
41.8 -63.9 29.6 208 208 208
45.2 -67.9 31.4 208 208 208
45.1 -66.7 30.9 205 205 205
43.9 -64.0 29.6 205 205 205
44.6 -63.9 29.6 205 205 205
44.9 -63.4 29.3 205 205 205
45.4 -63.1 29.2 205 205 205
50.3 -67.9 31.4 206 206 206
50.4 -67.0 31.0 206 206 206
48.7 -63.9 29.6 206 206 206
27.5 -33.7 15.6 205 205 205
26.9 -32.5 15.0 205 205 205
142.5 -84.4 39.1 106 106 106
139.9 -82.4 38.1 106 106 106
140.8 -82.4 38.1 102 101 99
-9.7 -23.9 11.2 139 138 137
-7.7 -24.3 11.4 142 144 143
-5.2 -23.8 11.1 164 167 166
-4.9 -23.8 11.1 163 166 165
-1.1 -23.8 11.1 179 179 179
-0.6 -24.0 11.2 176 176 176
-0.3 -24.0 11.2 178 178 178
9.3 -23.8 11.1 208 208 208
9.5 -23.8 11.1 208 208 208
10.1 -23.8 11.1 208 208 208
10.3 -23.8 11.1 208 208 208
10.6 -23.8 11.1 208 208 208
10.8 -23.8 11.1 208 208 208
44.7 -66.5 31.1 208 208 208
45.0 -65.8 30.8 208 208 208
44.5 -64.1 30.0 205 205 205
45.3 -64.3 30.1 205 205 205
45.2 -63.1 29.5 205 205 205
45.0 -61.9 29.0 205 205 205
49.9 -66.6 31.2 205 205 205
50.0 -65.7 30.8 206 206 206
49.2 -63.8 29.8 206 206 206
26.9 -32.1 15.0 207 207 207
27.0 -31.9 14.9 205 205 205
139.9 -81.5 38.1 108 108 108
140.8 -81.5 38.1 106 106 106
-33.2 -24.9 11.8 47 48 47
-27.0 -25.0 11.8 42 43 42
-24.8 -25.0 11.8 41 41 41
-23.9 -24.9 11.8 46 45 43
-23.6 -24.9 11.8 55 55 55
-21.1 -24.9 11.8 103 103 103
-20.9 -24.9 11.8 100 100 100
-20.4 -24.7 11.7 106 106 106
-11.6 -25.0 11.8 128 128 128
-11.3 -24.9 11.8 132 132 132
-10.4 -24.7 11.7 136 136 136
-10.1 -24.7 11.7 136 138 137
-9.9 -25.0 11.8 137 137 137
7.4 -24.9 11.8 207 207 207
44.8 -65.9 31.2 207 207 207
44.9 -65.0 30.8 207 207 207
44.4 -63.3 29.9 207 207 207
45.5 -63.8 30.2 207 207 207
44.9 -62.0 29.3 207 207 207
44.0 -59.9 28.3 207 207 207
50.1 -66.2 31.3 208 208 208
49.7 -64.7 30.6 208 208 208
48.7 -62.5 29.6 205 205 205
26.8 -31.8 15.0 207 207 207
27.0 -31.5 14.9 207 207 207
140.2 -80.8 38.2 109 111 111
141.1 -80.8 38.2 108 108 108
-33.6 -25.0 11.9 48 48 48
-33.4 -25.0 12.0 48 48 48
-33.2 -25.0 12.0 51 51 51
-32.6 -25.0 12.0 53 52 52
-32.3 -25.0 12.0 51 51 51
-32.1 -25.1 12.0 53 52 52
-31.8 -25.0 12.0 53 52 52
-31.5 -25.0 12.0 51 51 51
-31.2 -25.1 12.0 53 52 52
-30.9 -25.0 12.0 51 51 51
-30.7 -25.0 12.0 48 48 48
-30.1 -25.0 12.0 48 48 48
-29.8 -25.0 12.0 48 48 48
-29.5 -25.0 12.0 46 46 44
-29.3 -25.0 12.0 48 48 48
-28.7 -25.0 12.0 43 43 43
-28.4 -25.0 12.0 43 43 43
-28.1 -25.0 12.0 41 41 41
-27.9 -25.0 12.0 43 43 43
-27.3 -25.1 12.0 43 43 43
-27.0 -25.0 12.0 43 43 43
-26.2 -25.0 12.0 41 41 41
-25.8 -25.0 11.9 42 42 42
-25.5 -25.1 12.0 42 42 42
-25.1 -25.0 12.0 42 42 42
-24.8 -25.0 12.0 39 39 39
-24.5 -25.0 12.0 42 42 42
-24.2 -25.0 12.0 43 43 43
-24.0 -25.0 12.0 42 42 42
-23.4 -25.0 12.0 46 46 44
-23.2 -25.1 12.0 48 48 48
-22.9 -25.0 12.0 50 50 50
-22.6 -25.0 12.0 82 82 82
-22.3 -25.0 12.0 95 95 95
-21.8 -25.1 12.0 93 93 93
-21.4 -25.0 12.0 97 100 99
-21.2 -25.0 12.0 97 100 99
-20.9 -25.0 11.9 97 100 99
-19.5 -25.0 12.0 106 106 106
-11.8 -25.2 12.1 121 121 121
-11.4 -25.0 11.9 123 125 124
-11.1 -24.9 11.9 126 126 126
-10.8 -24.9 11.9 127 127 127
-10.5 -24.9 11.9 128 131 130
-10.1 -25.2 12.0 129 129 129
-9.8 -25.1 12.0 135 134 133
7.5 -25.0 11.9 207 207 207
7.7 -25.0 11.9 207 207 207
8.0 -25.1 12.0 210 210 210
8.4 -25.2 12.0 207 207 207
8.6 -25.1 12.0 207 207 207
8.9 -25.0 12.0 207 207 207
9.1 -25.0 12.0 207 207 207
9.4 -25.1 12.0 207 207 207
9.7 -25.0 12.0 207 207 207
10.0 -25.0 12.0 207 207 207
10.3 -25.1 12.0 204 204 204
10.5 -25.0 12.0 207 207 207
10.8 -25.0 12.0 207 207 207
11.1 -25.0 12.0 207 207 207
11.4 -25.1 12.0 207 207 207
11.7 -25.1 12.0 207 207 207
11.9 -25.0 12.0 207 207 207
12.2 -25.0 12.0 207 207 207
12.5 -25.0 12.0 207 207 207
12.8 -25.0 12.0 207 207 207
13.1 -25.1 12.0 207 207 207
43.9 -61.8 29.6 207 207 207
45.3 -62.9 30.1 207 207 207
44.2 -60.3 28.8 207 207 207
43.8 -58.9 28.2 207 207 207
44.3 -58.8 28.1 207 207 207
49.8 -65.0 31.1 207 207 207
47.7 -60.6 29.0 205 205 205
47.5 -59.5 28.4 205 205 205
-13.8 -21.1 10.2 112 114 113
-13.5 -20.9 10.1 112 114 113
8.8 -30.1 14.6 210 210 210
9.4 -29.0 14.0 210 210 210
9.7 -29.0 14.0 212 213 212
10.1 -29.1 14.1 212 213 212
11.7 -29.9 14.4 212 213 212
12.8 -29.9 14.5 209 209 209
13.4 -29.8 14.4 206 206 206
13.7 -29.9 14.4 206 206 206
14.1 -29.9 14.5 206 206 206
14.4 -29.9 14.5 206 206 206
14.7 -29.9 14.4 206 206 206
46.0 -63.1 30.5 206 206 206
44.3 -59.8 28.9 206 206 206
43.6 -58.0 28.1 206 206 206
44.0 -57.6 27.9 207 207 207
50.3 -65.0 31.4 207 207 207
47.0 -58.2 28.1 207 207 207
-21.5 -20.8 10.2 41 41 41
-21.3 -20.8 10.2 41 41 41
-13.8 -20.9 10.2 109 109 109
-13.5 -20.7 10.1 110 110 110
-15.5 -30.1 14.7 102 104 104
-14.8 -29.4 14.4 101 103 103
-14.4 -29.4 14.4 98 98 98
-14.2 -29.6 14.5 74 74 74
-13.9 -29.7 14.5 72 72 72
7.6 -22.4 11.0 209 209 209
7.9 -22.4 11.0 209 209 209
8.1 -22.4 11.0 209 209 209
8.4 -22.4 11.0 209 209 209
8.6 -22.4 10.9 209 209 209
8.9 -22.4 11.0 209 209 209
9.2 -22.5 11.0 209 209 209
9.4 -22.4 11.0 206 206 206
9.7 -22.4 11.0 203 203 203
9.9 -22.4 11.0 206 206 206
10.1 -22.4 10.9 206 206 206
10.4 -22.4 11.0 206 206 206
10.7 -22.4 11.0 206 206 206
10.9 -22.4 10.9 206 206 206
11.2 -22.4 11.0 206 206 206
11.4 -22.4 11.0 206 206 206
11.7 -22.4 11.0 206 206 206
11.9 -22.4 11.0 206 206 206
12.2 -22.4 10.9 206 206 206
44.6 -59.5 29.1 206 206 206
43.5 -57.2 28.0 206 206 206
43.9 -56.9 27.8 206 206 206
44.7 -57.1 27.9 206 206 206
46.9 -57.4 28.1 207 207 207
-15.2 -29.9 14.8 20 23 21
-14.8 -29.9 14.8 29 30 28
-14.5 -29.9 14.8 29 30 28
-14.1 -29.9 14.8 27 29 27
-13.9 -30.1 14.9 33 33 33
7.6 -22.1 10.9 209 209 209
7.8 -22.1 10.9 209 209 209
8.1 -22.1 10.9 209 209 209
8.6 -22.0 10.9 209 209 209
9.4 -22.1 10.9 209 209 209
9.6 -22.1 10.9 209 209 209
9.9 -22.1 10.9 206 206 206
10.1 -22.0 10.9 206 206 206
10.4 -22.0 10.9 206 206 206
10.6 -22.1 10.9 205 205 205
10.8 -22.0 10.9 205 205 205
11.1 -22.0 10.9 205 205 205
11.4 -22.1 10.9 205 205 205
11.7 -22.1 10.9 205 205 205
11.9 -22.1 10.9 205 205 205
12.1 -22.0 10.9 208 208 208
41.8 -59.6 29.5 205 205 205
45.3 -60.8 30.1 205 205 205
45.0 -59.4 29.4 205 205 205
43.7 -56.8 28.1 205 205 205
44.1 -56.6 28.0 206 206 206
45.1 -57.0 28.2 206 206 206
48.0 -59.7 29.6 206 206 206
47.1 -57.0 28.2 206 206 206
26.2 -26.8 13.3 204 204 204
-15.6 -31.1 15.6 27 27 27
-15.2 -31.1 15.5 29 30 28
-15.2 -31.8 15.9 29 30 28
-14.9 -31.9 16.0 27 29 27
6.4 -21.2 10.6 208 208 208
6.6 -21.2 10.6 208 208 208
6.9 -21.2 10.6 208 208 208
7.1 -21.2 10.6 208 208 208
7.4 -21.2 10.6 208 208 208
7.6 -21.2 10.6 208 208 208
7.9 -21.2 10.6 208 208 208
8.1 -21.2 10.6 208 208 208
8.4 -21.2 10.6 208 208 208
8.6 -21.2 10.6 208 208 208
8.9 -21.2 10.6 208 208 208
9.1 -21.2 10.6 208 208 208
9.3 -21.2 10.6 208 208 208
9.6 -21.2 10.6 208 208 208
9.8 -21.2 10.6 208 208 208
10.1 -21.2 10.6 205 205 205
10.3 -21.2 10.6 205 205 205
10.6 -21.2 10.6 205 205 205
10.8 -21.2 10.6 208 208 208
11.1 -21.2 10.6 208 208 208
11.3 -21.2 10.6 208 208 208
11.6 -21.2 10.6 208 208 208
11.8 -21.2 10.6 208 208 208
41.6 -58.8 29.4 205 205 205
44.2 -59.4 29.7 208 208 208
45.3 -60.0 30.0 205 205 205
44.8 -58.4 29.2 205 205 205
44.1 -56.7 28.4 205 205 205
44.5 -56.3 28.2 205 205 205
46.0 -57.3 28.7 205 205 205
47.9 -59.0 29.5 205 205 205
47.6 -57.8 28.9 206 206 206
47.4 -56.7 28.4 206 206 206
26.5 -26.9 13.4 206 206 206
27.2 -27.2 13.6 206 206 206
27.4 -27.1 13.6 204 204 204
27.5 -26.9 13.5 202 202 202
-29.8 -32.4 16.4 42 42 42
-16.1 -31.7 16.0 26 26 26
-15.8 -32.6 16.5 29 30 28
-15.3 -32.4 16.4 29 30 28
-10.6 -23.7 12.0 31 30 29
8.5 -24.1 12.2 208 208 208
8.8 -24.1 12.2 208 208 208
8.1 -20.9 10.6 208 208 208
8.3 -20.9 10.6 208 208 208
10.4 -24.0 12.2 208 208 208
10.6 -23.7 12.0 208 208 208
11.0 -24.0 12.2 208 208 208
9.8 -20.9 10.6 208 208 208
10.1 -20.9 10.6 208 208 208
11.8 -24.0 12.2 205 205 205
12.1 -24.0 12.2 205 205 205
12.4 -24.0 12.2 208 208 208
13.0 -24.0 12.2 208 208 208
13.3 -24.0 12.2 208 208 208
13.4 -23.7 12.0 207 207 207
41.1 -58.3 29.5 207 207 207
41.6 -58.0 29.4 204 204 204
41.5 -56.9 28.8 207 207 207
43.3 -58.4 29.6 207 207 207
43.9 -58.4 29.6 209 209 209
44.7 -58.5 29.6 209 209 209
44.8 -57.7 29.2 207 207 207
44.1 -56.0 28.4 207 207 207
44.4 -55.6 28.1 208 208 208
45.7 -56.4 28.6 205 205 205
47.7 -58.0 29.4 205 205 205
47.4 -56.8 28.8 205 205 205
47.4 -56.0 28.4 205 205 205
48.6 -56.7 28.7 205 205 205
26.8 -26.8 13.6 205 205 205
27.2 -26.9 13.6 205 205 205
27.6 -27.0 13.7 203 203 203
27.7 -26.8 13.6 202 202 202
-34.7 -24.0 12.3 59 60 58
-34.6 -24.2 12.4 59 60 58
-34.1 -24.0 12.3 57 57 57
-33.8 -24.0 12.3 59 60 58
-33.7 -24.2 12.4 59 60 58
-33.5 -24.2 12.4 59 60 58
-33.2 -24.2 12.4 59 60 58
-32.9 -24.2 12.4 59 60 58
-32.6 -24.2 12.4 59 60 58
-32.3 -24.2 12.4 59 60 58
-32.0 -24.2 12.4 59 60 58
-31.4 -24.2 12.4 59 61 59
-31.1 -24.2 12.4 58 58 58
-29.1 -24.2 12.4 48 48 48
-28.6 -24.0 12.3 51 51 49
-28.1 -24.0 12.3 51 51 49
-27.9 -24.1 12.4 51 51 49
-27.5 -24.0 12.3 49 49 49
-27.2 -24.0 12.3 49 49 49
-26.9 -24.0 12.3 49 49 49
-26.7 -24.1 12.3 49 49 49
-26.3 -24.2 12.4 49 49 49
-25.8 -24.0 12.3 49 49 49
-25.5 -24.0 12.3 49 49 49
-25.2 -24.0 12.3 50 50 50
-22.3 -24.0 12.3 42 43 42
-22.1 -24.1 12.3 42 43 42
-21.9 -24.2 12.4 45 45 45
-21.6 -24.2 12.4 42 42 40
-21.4 -24.3 12.4 42 42 40
-21.0 -24.1 12.4 43 43 43
-20.7 -24.1 12.3 44 44 44
-11.8 -24.0 12.3 29 31 29
-11.1 -24.5 12.5 32 32 32
-10.6 -24.0 12.3 33 33 33
-10.3 -23.9 12.3 35 35 35
-10.0 -23.8 12.2 38 38 36
8.0 -24.1 12.3 207 207 207
8.3 -24.2 12.4 207 207 207
8.6 -24.2 12.4 207 207 207
8.9 -24.1 12.3 207 207 207
9.2 -24.3 12.5 207 207 207
9.7 -24.0 12.3 207 207 207
10.4 -24.4 12.5 207 207 207
10.6 -24.0 12.3 207 207 207
10.8 -24.0 12.3 207 207 207
11.8 -24.3 12.4 207 207 207
12.1 -24.2 12.4 204 204 204
12.3 -24.0 12.3 200 200 200
12.6 -24.0 12.3 200 200 200
13.4 -24.1 12.3 207 207 207
13.7 -24.0 12.3 207 207 207
14.0 -24.0 12.3 207 207 207
14.3 -24.1 12.3 207 207 207
15.9 -24.3 12.4 207 207 207
16.1 -24.2 12.4 207 207 207
40.9 -57.3 29.4 207 207 207
41.4 -57.0 29.2 207 207 207
41.2 -55.9 28.7 207 207 207
42.5 -56.8 29.1 207 207 207
43.7 -57.4 29.4 207 207 207
44.6 -57.7 29.6 207 207 207
44.6 -56.9 29.1 209 209 209
44.1 -55.3 28.4 207 207 207
44.4 -54.9 28.1 204 204 204
45.7 -55.8 28.6 204 204 204
47.4 -57.0 29.2 204 204 204
47.3 -56.0 28.7 205 205 205
47.1 -55.0 28.2 205 205 205
48.5 -55.8 28.6 205 205 205
49.6 -56.3 28.9 205 205 205
27.4 -26.8 13.7 205 205 205
27.8 -26.8 13.7 205 205 205
27.8 -26.5 13.6 202 202 202
-35.1 -24.1 12.5 59 60 58
-34.9 -24.1 12.5 63 63 63
-34.6 -24.1 12.5 59 61 59
-34.3 -24.1 12.5 59 61 59
-34.0 -24.1 12.5 59 61 59
-33.7 -24.1 12.5 59 61 59
-33.5 -24.1 12.5 59 61 59
-33.1 -24.1 12.5 59 61 59
-32.9 -24.1 12.5 59 61 59
-32.5 -24.1 12.5 59 61 59
-32.3 -24.1 12.5 59 61 59
-32.0 -24.1 12.5 59 61 59
-31.7 -24.1 12.5 58 59 59
-31.4 -24.1 12.5 56 56 56
-31.1 -24.1 12.5 56 56 56
-30.8 -24.1 12.5 56 56 56
-29.7 -24.1 12.5 52 52 50
-29.3 -24.1 12.5 49 49 49
-29.2 -24.2 12.5 52 52 50
-28.9 -24.2 12.5 52 52 50
-28.5 -24.1 12.5 52 52 50
-28.2 -24.1 12.5 53 52 51
-28.0 -24.1 12.5 53 52 51
-27.7 -24.1 12.5 50 50 50
-27.3 -24.0 12.5 50 50 50
-27.0 -24.1 12.5 50 50 50
-26.9 -24.2 12.5 50 50 50
-26.5 -24.1 12.5 50 50 50
-26.2 -24.1 12.5 51 51 51
-25.9 -24.1 12.5 51 51 51
-25.6 -24.1 12.5 48 48 48
-25.4 -24.1 12.5 51 51 51
-25.1 -24.2 12.5 49 49 49
-24.7 -24.1 12.5 49 49 49
-23.4 -24.2 12.6 43 43 43
-23.1 -24.2 12.5 43 43 43
-22.7 -24.1 12.5 46 46 46
-22.4 -24.1 12.5 44 44 44
-22.1 -24.0 12.5 46 46 46
-21.8 -24.1 12.5 43 42 41
-21.6 -24.2 12.5 43 42 41
-21.2 -24.0 12.5 43 42 41
-11.3 -24.0 12.5 29 30 28
-11.1 -24.2 12.6 32 31 30
-10.8 -24.1 12.5 32 32 32
-10.4 -23.9 12.4 36 36 36
-10.1 -23.7 12.3 44 44 44
7.8 -24.1 12.5 209 209 209
8.1 -24.2 12.5 209 209 209
8.4 -24.2 12.5 207 207 207
8.7 -24.1 12.5 209 209 209
9.0 -24.2 12.5 207 207 207
9.3 -24.2 12.5 207 207 207
9.6 -24.2 12.5 207 207 207
9.9 -24.2 12.5 207 207 207
10.2 -24.2 12.6 207 207 207
10.5 -24.2 12.5 207 207 207
10.7 -24.1 12.5 207 207 207
11.0 -24.0 12.5 207 207 207
11.3 -24.0 12.5 207 207 207
11.6 -24.1 12.5 207 207 207
11.9 -24.2 12.5 207 207 207
12.2 -24.1 12.5 209 209 209
12.4 -24.1 12.5 207 207 207
12.7 -24.1 12.5 207 207 207
13.0 -24.1 12.5 207 207 207
13.3 -24.1 12.5 207 207 207
13.6 -24.1 12.5 207 207 207
13.9 -24.0 12.5 207 207 207
14.1 -24.0 12.4 207 207 207
14.4 -24.0 12.5 207 207 207
14.7 -24.0 12.5 207 207 207
15.1 -24.1 12.5 206 206 206
15.4 -24.2 12.5 206 206 206
15.7 -24.2 12.5 206 206 206
16.0 -24.2 12.5 206 206 206
16.2 -24.1 12.5 206 206 206
16.5 -24.1 12.5 206 206 206
16.9 -24.2 12.5 206 206 206
41.0 -55.8 29.0 206 206 206
40.6 -54.4 28.2 206 206 206
43.1 -56.0 29.1 206 206 206
44.3 -56.6 29.4 206 206 206
44.2 -55.7 28.9 206 206 206
43.8 -54.3 28.1 203 203 203
43.8 -53.5 27.7 204 204 204
44.3 -53.4 27.7 204 204 204
46.8 -55.5 28.8 204 204 204
46.7 -54.7 28.4 204 204 204
46.3 -53.5 27.7 207 207 207
47.7 -54.3 28.1 204 204 204
49.1 -55.1 28.6 205 205 205
27.4 -26.5 13.7 204 204 204
27.6 -26.4 13.7 204 204 204
-36.3 -24.5 12.9 63 63 63
-36.2 -24.7 12.9 63 63 63
-35.9 -24.7 12.9 63 63 63
-35.5 -24.7 12.9 64 64 64
-35.2 -24.7 12.9 60 62 60
-34.9 -24.7 12.9 64 64 64
-34.6 -24.7 12.9 60 62 60
-34.3 -24.7 12.9 60 62 60
-34.0 -24.7 12.9 60 62 60
-33.8 -24.7 13.0 60 62 60
-33.5 -24.7 13.0 60 62 60
-33.1 -24.6 12.9 58 59 59
-32.8 -24.6 12.9 58 59 59
-32.5 -24.7 12.9 59 59 59
-31.1 -24.7 13.0 53 52 51
-30.8 -24.7 13.0 55 55 55
-30.4 -24.7 12.9 53 52 51
-30.1 -24.6 12.9 50 50 50
-29.7 -24.5 12.9 53 52 51
-29.4 -24.5 12.9 54 53 52
-29.1 -24.6 12.9 54 53 52
-28.8 -24.6 12.9 54 53 52
-28.5 -24.5 12.9 54 53 52
-28.2 -24.6 12.9 51 51 51
-28.1 -24.7 13.0 51 51 51
-27.6 -24.6 12.9 51 51 51
-27.4 -24.7 12.9 52 52 52
-27.1 -24.7 12.9 52 52 52
-26.8 -24.7 13.0 52 52 52
-26.5 -24.6 12.9 52 52 52
-26.2 -24.6 12.9 52 52 52
-25.8 -24.6 12.9 50 50 50
-25.6 -24.6 12.9 50 50 50
-25.4 -24.7 13.0 48 48 48
-25.1 -24.7 13.0 48 48 48
-24.7 -24.7 13.0 46 46 46
-23.1 -24.5 12.9 47 47 47
-22.9 -24.7 13.0 47 48 47
-22.7 -24.7 13.0 44 43 42
-22.3 -24.6 12.9 44 43 42
-11.2 -24.2 12.7 29 30 28
-10.5 -23.8 12.5 34 34 34
-10.0 -24.8 13.0 183 186 185
12.5 -19.4 10.2 206 206 206
39.7 -52.5 27.6 206 206 206
40.1 -52.2 27.4 206 206 206
43.4 -53.9 28.3 206 206 206
43.4 -53.1 27.9 206 206 206
43.4 -52.4 27.5 206 206 206
43.4 -51.6 27.1 206 206 206
45.9 -53.8 28.2 206 206 206
46.3 -53.5 28.1 207 207 207
45.9 -52.4 27.5 207 207 207
46.8 -52.7 27.7 207 207 207
47.2 -52.4 27.5 207 207 207
27.5 -26.2 13.8 203 203 203
-36.2 -24.2 12.9 64 64 64
-36.0 -24.2 12.9 64 64 64
-35.6 -24.2 12.9 64 64 64
-35.3 -24.2 12.9 64 64 64
-35.0 -24.2 12.9 64 64 64
-34.7 -24.2 12.9 61 63 61
-34.4 -24.2 12.9 61 63 61
-34.1 -24.2 12.9 61 63 61
-33.8 -24.2 12.9 65 65 65
-33.6 -24.2 12.9 61 63 61
-32.9 -24.2 12.9 61 63 61
-32.6 -24.2 12.9 61 63 61
-30.2 -24.2 12.9 51 51 51
-30.1 -24.3 12.9 56 56 56
-29.6 -24.2 12.8 58 59 59
-29.2 -24.1 12.8 57 57 57
-29.0 -24.2 12.9 57 57 57
-28.8 -24.3 12.9 55 54 53
-28.4 -24.2 12.9 55 54 53
-27.3 -24.2 12.9 53 52 52
-26.9 -24.2 12.9 53 52 52
-26.4 -24.2 12.9 53 52 52
-26.0 -24.2 12.8 53 52 52
-25.8 -24.2 12.9 51 51 51
-25.4 -24.2 12.9 51 51 51
-25.4 -24.4 13.0 49 49 49
-25.1 -24.4 13.0 49 49 49
-23.0 -24.1 12.8 46 46 46
-22.8 -24.2 12.9 46 46 46
-22.7 -24.5 13.0 45 44 43
-22.2 -24.2 12.9 47 47 47
-11.2 -23.9 12.7 55 55 55
-11.0 -23.9 12.7 63 63 63
-10.6 -23.7 12.6 36 38 37
-10.6 -25.2 13.4 184 184 184
-9.6 -24.1 12.8 188 188 188
39.8 -52.1 27.7 205 205 205
40.2 -51.8 27.5 205 205 205
43.2 -53.1 28.2 205 205 205
43.4 -52.6 27.9 205 205 205
43.5 -51.9 27.6 206 206 206
43.8 -51.4 27.3 206 206 206
45.7 -53.0 28.1 206 206 206
46.4 -53.0 28.1 206 206 206
46.1 -52.0 27.6 206 206 206
46.9 -52.1 27.7 206 206 206
47.3 -51.9 27.6 206 206 206
48.2 -52.1 27.7 207 207 207
48.3 -51.5 27.4 204 204 204
49.0 -51.6 27.4 204 204 204
49.1 -51.0 27.1 204 204 204
-36.2 -23.9 12.9 65 65 65
-36.0 -23.9 12.9 65 65 65
-35.7 -23.9 12.9 61 63 61
-35.4 -23.9 12.9 65 65 65
-35.1 -23.9 12.9 65 65 65
-34.8 -23.9 12.9 61 63 61
-34.5 -23.9 12.9 66 66 66
-34.2 -23.9 12.9 66 66 66
-33.9 -23.9 12.9 66 66 66
-33.6 -23.9 12.9 66 66 66
-33.3 -23.9 12.9 66 66 66
-33.0 -23.9 12.9 66 66 66
-32.7 -23.9 12.9 62 64 61
-32.4 -23.9 12.9 62 64 61
-32.1 -23.9 12.9 67 67 67
-31.7 -23.9 12.9 63 64 62
-31.5 -23.9 12.9 61 61 61
-31.2 -23.9 12.9 58 59 59
-30.9 -24.0 12.9 57 57 57
-30.6 -24.0 12.9 57 57 57
-30.3 -23.9 12.9 57 57 57
-30.0 -24.0 12.9 59 59 59
-29.6 -23.9 12.9 58 58 58
-29.3 -23.9 12.9 59 59 59
-29.1 -23.9 12.9 56 55 54
-28.8 -23.9 12.9 56 55 54
-28.4 -23.9 12.9 56 55 54
-28.1 -23.9 12.9 56 55 54
-27.9 -24.0 12.9 57 56 55
-27.6 -23.9 12.9 57 56 55
-27.3 -23.9 12.9 57 56 55
-27.0 -23.9 12.9 57 56 55
-26.7 -24.0 12.9 53 53 53
-26.4 -23.9 12.9 54 54 54
-26.1 -23.9 12.9 52 52 52
-25.8 -23.9 12.9 52 52 52
-25.5 -23.9 12.9 54 54 54
-25.2 -24.0 12.9 53 52 52
-24.9 -24.0 12.9 50 50 50
-24.6 -24.0 12.9 50 50 50
-24.3 -24.0 12.9 48 48 48
-23.0 -23.9 12.9 47 47 47
-22.8 -23.9 12.9 46 45 43
-22.6 -24.1 13.0 46 45 43
-22.2 -23.9 12.9 46 45 43
-11.6 -23.7 12.8 47 48 47
-11.3 -23.6 12.7 25 25 25
-11.0 -23.7 12.8 84 86 86
-10.7 -23.6 12.7 28 28 28
-10.5 -23.8 12.8 51 51 51
-10.6 -24.8 13.3 182 182 182
-10.2 -24.6 13.2 182 185 184
-9.6 -23.9 12.9 189 189 189
-9.3 -23.9 12.9 189 189 189
40.4 -52.2 28.1 205 205 205
42.8 -53.6 28.8 207 207 207
43.8 -53.1 28.6 205 205 205
43.7 -52.2 28.1 205 205 205
43.8 -51.5 27.7 205 205 205
44.1 -51.2 27.5 205 205 205
45.9 -52.5 28.3 205 205 205
46.7 -52.7 28.4 205 205 205
46.7 -51.9 27.9 206 206 206
47.4 -52.0 28.0 206 206 206
47.9 -51.8 27.9 206 206 206
48.7 -52.0 28.0 206 206 206
48.6 -51.2 27.6 206 206 206
49.4 -51.4 27.7 206 206 206
49.7 -51.0 27.5 206 206 206
-36.0 -23.9 13.0 66 66 66
-35.7 -23.9 13.0 66 66 66
-35.5 -23.9 13.0 66 66 66
-35.1 -23.9 13.0 66 66 66
-34.8 -23.9 13.0 66 66 66
-34.6 -23.9 13.0 66 66 66
-34.2 -23.9 13.0 67 67 67
-31.2 -23.9 13.0 59 59 59
-30.9 -23.9 13.0 59 59 59
-30.6 -23.9 13.0 58 58 58
-30.3 -23.9 13.0 60 60 60
-30.0 -23.9 13.0 57 56 55
-29.8 -23.9 13.0 58 59 59
-29.4 -23.9 13.0 57 56 55
-29.1 -23.9 13.0 58 59 59
-28.7 -23.9 13.0 58 59 59
-27.6 -23.9 13.0 59 59 59
-27.3 -23.9 13.0 59 59 59
-26.7 -23.9 13.0 58 58 56
-25.7 -23.9 13.0 55 55 55
-25.5 -23.9 13.0 53 53 53
-25.2 -23.9 13.0 51 51 51
-24.9 -23.9 13.0 52 52 52
-23.3 -23.8 13.0 47 48 47
-22.8 -24.0 13.1 46 46 44
-22.4 -23.9 13.0 47 46 45
-11.3 -23.4 12.7 42 42 40
-11.1 -23.6 12.9 82 81 79
-10.9 -23.8 13.0 29 31 29
-10.6 -23.9 13.0 47 47 47
-10.6 -24.4 13.3 183 186 185
-10.1 -24.2 13.2 181 184 183
-9.7 -23.8 13.0 188 188 188
-9.4 -23.9 13.0 178 181 180
41.4 -53.7 29.3 204 204 204
41.2 -52.5 28.6 204 204 204
42.3 -53.2 29.0 204 204 204
43.1 -53.3 29.1 207 207 207
44.6 -54.2 29.6 207 207 207
44.3 -53.1 28.9 204 204 204
44.0 -52.0 28.3 204 204 204
44.2 -51.4 28.0 207 207 207
44.4 -50.9 27.7 205 205 205
46.8 -52.8 28.8 205 205 205
47.5 -52.9 28.8 207 207 207
47.3 -52.0 28.3 208 208 208
47.9 -51.9 28.3 205 205 205
48.6 -51.9 28.3 205 205 205
49.2 -51.9 28.3 206 206 206
48.8 -50.8 27.7 206 206 206
50.0 -51.3 28.0 206 206 206
32.9 -29.6 16.1 205 205 205
-37.0 -23.8 13.1 66 66 66
-36.7 -23.8 13.2 66 66 66
-36.4 -23.8 13.2 67 67 67
-36.1 -23.8 13.2 67 67 67
-35.8 -23.8 13.2 67 67 67
-35.5 -23.8 13.1 67 67 67
-35.2 -23.8 13.2 67 67 67
-34.9 -23.8 13.2 67 67 67
-34.6 -23.8 13.2 67 67 67
-34.3 -23.8 13.2 67 67 67
-34.0 -23.8 13.2 67 67 67
-33.6 -23.8 13.1 67 67 67
-33.3 -23.8 13.1 67 67 67
-33.1 -23.8 13.2 64 65 63
-32.8 -23.8 13.2 63 63 63
-32.4 -23.8 13.1 65 66 64
-32.1 -23.8 13.2 65 66 64
-31.8 -23.8 13.1 60 60 60
-31.5 -23.8 13.1 63 63 63
-31.2 -23.8 13.1 57 56 55
-30.9 -23.8 13.1 61 61 61
-30.6 -23.8 13.2 59 59 59
-30.3 -23.8 13.1 54 54 54
-30.0 -23.8 13.1 57 57 55
-29.7 -23.8 13.2 54 54 54
-29.4 -23.8 13.1 59 59 59
-29.0 -23.8 13.1 59 59 59
-28.5 -23.9 13.2 58 58 56
-28.2 -23.8 13.2 58 58 56
-27.9 -23.8 13.2 60 60 60
-27.5 -23.8 13.1 59 59 57
-27.3 -23.8 13.2 59 59 57
-26.9 -23.8 13.1 56 56 56
-26.6 -23.8 13.1 56 56 56
-26.3 -23.8 13.1 56 56 56
-26.0 -23.8 13.2 57 57 57
-25.8 -23.9 13.2 54 54 54
-25.5 -23.9 13.2 53 52 52
-25.3 -24.0 13.2 55 55 55
-23.5 -23.8 13.1 49 49 49
-23.3 -23.9 13.2 47 46 45
-23.0 -23.9 13.2 47 46 45
-22.6 -23.8 13.1 48 47 46
-11.3 -23.7 13.1 67 69 67
-11.0 -23.8 13.1 53 53 53
-10.8 -23.9 13.2 47 47 47
-10.6 -24.1 13.3 182 185 184
-10.2 -23.9 13.2 180 183 182
-9.8 -23.9 13.2 179 182 181
41.6 -53.3 29.4 207 207 207
43.4 -53.0 29.2 207 207 207
44.9 -54.0 29.8 207 207 207
44.7 -52.9 29.2 207 207 207
44.0 -51.2 28.3 207 207 207
44.0 -50.5 27.9 207 207 207
44.1 -49.9 27.5 204 204 204
46.7 -52.1 28.7 204 204 204
47.6 -52.4 28.9 205 205 205
47.4 -51.5 28.4 207 207 207
47.8 -51.2 28.2 205 205 205
48.3 -50.9 28.1 205 205 205
49.0 -51.0 28.1 205 205 205
48.5 -49.8 27.5 205 205 205
49.8 -50.5 27.9 205 205 205
33.1 -30.1 16.6 207 207 207
33.8 -30.3 16.7 204 204 204
33.6 -29.8 16.4 207 207 207
34.4 -30.2 16.7 165 165 165
94.2 -46.8 25.8 159 162 161
87.9 -43.4 23.9 156 156 156
-38.2 -24.3 13.6 67 67 67
-37.9 -24.3 13.6 67 67 67
-37.3 -24.3 13.6 69 71 69
-37.0 -24.3 13.6 69 71 69
-36.7 -24.3 13.6 67 67 67
-35.7 -24.3 13.6 67 67 67
-35.4 -24.3 13.6 68 68 68
-35.1 -24.3 13.6 68 68 68
-33.9 -24.1 13.5 68 68 68
-33.8 -24.3 13.6 68 68 68
-33.5 -24.3 13.6 66 67 65
-33.1 -24.2 13.5 66 67 65
-32.9 -24.3 13.6 66 67 65
-32.5 -24.3 13.6 64 64 64
-32.2 -24.3 13.6 64 64 64
-31.9 -24.2 13.6 62 62 62
-31.4 -24.1 13.5 60 60 60
-31.0 -24.0 13.4 62 62 62
-31.0 -24.3 13.6 62 62 62
-30.5 -24.2 13.5 60 60 60
-30.3 -24.2 13.6 60 60 60
-30.0 -24.3 13.6 61 61 61
-29.7 -24.3 13.6 61 61 61
-29.3 -24.2 13.5 61 61 61
-29.0 -24.3 13.6 59 59 57
-28.7 -24.3 13.6 60 59 58
-28.4 -24.2 13.6 62 62 62
-27.9 -24.1 13.5 60 59 58
-27.7 -24.2 13.5 57 57 57
-27.1 -24.3 13.6 58 58 58
-26.8 -24.2 13.5 55 55 55
-26.6 -24.3 13.6 56 56 56
-26.1 -24.1 13.5 56 56 56
-25.8 -24.2 13.5 56 56 56
-24.4 -24.3 13.6 53 52 52
-24.0 -24.3 13.6 48 47 46
-23.6 -24.1 13.5 49 48 47
-11.1 -22.5 12.6 36 36 36
-11.0 -24.0 13.4 46 46 46
-10.7 -24.0 13.4 181 184 183
-10.3 -23.9 13.4 180 183 182
45.3 -53.8 30.1 206 206 206
43.8 -50.3 28.1 206 206 206
43.9 -49.8 27.8 206 206 206
48.2 -52.3 29.2 204 204 204
47.3 -50.6 28.3 207 207 207
47.7 -50.3 28.1 207 207 207
47.9 -49.9 27.9 204 204 204
48.7 -50.0 28.0 205 205 205
48.4 -49.1 27.5 207 207 207
49.5 -49.5 27.7 205 205 205
49.5 -48.9 27.3 205 205 205
33.5 -30.4 17.0 206 206 206
33.9 -30.4 17.0 206 206 206
34.1 -30.2 16.9 206 206 206
34.2 -29.9 16.7 206 206 206
35.0 -30.3 16.9 167 167 167
93.5 -45.8 25.6 159 162 161
89.6 -43.7 24.4 155 155 155
-38.3 -24.0 13.6 67 67 67
-38.0 -24.0 13.6 67 67 67
-37.7 -24.0 13.6 67 67 67
-37.4 -24.1 13.6 70 72 69
-37.1 -24.0 13.6 70 72 69
-36.8 -24.0 13.6 70 72 69
-36.4 -24.0 13.6 70 72 69
-36.1 -24.0 13.6 74 74 74
-35.8 -24.0 13.6 71 72 70
-35.5 -24.0 13.6 71 72 70
-35.2 -24.0 13.6 69 69 69
-34.8 -24.0 13.6 69 69 69
-34.5 -24.0 13.6 69 69 69
-34.2 -24.0 13.6 69 69 69
-34.0 -24.1 13.6 69 69 69
-33.7 -24.1 13.6 70 70 70
-33.3 -24.1 13.6 67 68 66
-32.9 -24.0 13.6 65 65 65
-32.6 -24.0 13.6 65 65 65
-32.3 -24.0 13.6 62 62 62
-32.0 -24.1 13.6 66 66 66
-31.7 -24.0 13.6 63 63 63
-31.3 -24.0 13.6 63 63 63
-31.1 -24.0 13.6 63 63 63
-30.7 -24.0 13.6 59 59 57
-30.4 -24.0 13.6 62 62 62
-30.1 -24.0 13.6 62 62 62
-29.9 -24.1 13.6 64 64 64
-29.5 -24.1 13.6 62 62 62
-29.1 -24.0 13.6 62 62 62
-28.8 -24.0 13.6 63 63 63
-28.5 -24.0 13.6 63 63 63
-28.1 -23.9 13.6 61 60 59
-27.8 -23.9 13.6 61 60 59
-27.0 -24.1 13.6 58 59 59
-26.7 -24.1 13.6 58 59 59
-26.3 -24.0 13.6 57 57 57
-25.9 -24.0 13.6 59 59 59
-24.5 -24.1 13.7 58 59 59
-24.1 -24.1 13.6 56 56 56
-23.7 -24.0 13.6 47 47 47
-11.1 -22.2 12.6 133 133 133
-10.9 -22.2 12.6 30 31 30
-11.4 -23.9 13.6 47 48 47
-11.1 -23.9 13.5 57 57 57
-10.7 -23.9 13.5 180 183 182
-10.4 -23.8 13.5 179 182 181
-10.2 -24.0 13.6 177 180 179
45.6 -53.4 30.3 206 206 206
44.5 -51.3 29.1 206 206 206
43.8 -49.8 28.2 206 206 206
44.0 -49.3 27.9 203 203 203
43.3 -47.7 27.0 203 203 203
48.2 -51.7 29.3 206 206 206
48.9 -51.7 29.3 206 206 206
47.9 -49.9 28.3 206 206 206
48.2 -49.5 28.1 207 207 207
48.8 -49.5 28.1 207 207 207
48.3 -48.4 27.4 207 207 207
49.7 -49.1 27.8 207 207 207
48.7 -47.5 26.9 207 207 207
48.9 -47.1 26.7 205 205 205
34.2 -30.6 17.3 205 205 205
37.3 -32.6 18.5 203 203 203
37.5 -32.4 18.3 206 206 206
36.0 -30.7 17.4 173 173 173
101.1 -49.3 27.9 169 169 169
94.1 -45.6 25.8 159 162 161
90.3 -43.4 24.6 155 155 155
-11.1 -23.7 13.6 55 55 55
-10.8 -23.7 13.6 181 184 183
-10.4 -23.6 13.6 178 181 180
-10.3 -24.0 13.8 182 182 182
43.7 -51.3 29.5 205 205 205
45.6 -52.6 30.2 205 205 205
44.9 -51.1 29.3 205 205 205
43.9 -49.2 28.2 205 205 205
44.0 -48.5 27.9 206 206 206
43.3 -47.1 27.1 206 206 206
48.0 -51.5 29.6 208 211 210
48.6 -51.4 29.5 208 211 210
49.1 -51.2 29.4 208 211 210
48.8 -50.2 28.8 208 211 210
49.7 -50.4 28.9 208 211 210
49.1 -49.1 28.2 206 206 206
48.2 -47.6 27.3 206 206 206
49.7 -48.5 27.8 206 206 206
48.7 -46.9 26.9 207 207 207
48.6 -46.2 26.5 204 204 204
37.3 -32.5 18.7 205 205 205
37.6 -32.5 18.6 205 205 205
37.7 -32.1 18.4 208 208 208
88.3 -41.9 24.1 158 158 158
-11.1 -23.4 13.6 50 50 50
-10.8 -23.4 13.6 186 186 186
-10.7 -25.5 14.8 182 182 182
-10.5 -25.7 14.9 202 202 202
12.2 -17.4 10.1 207 210 209
45.7 -52.1 30.3 207 210 209
45.3 -50.9 29.6 207 210 209
44.0 -48.6 28.3 207 210 209
44.3 -48.2 28.1 207 210 209
44.1 -47.3 27.5 207 210 209
49.0 -51.1 29.7 207 210 209
49.4 -50.8 29.6 208 211 210
49.7 -50.4 29.3 208 211 210
50.4 -50.4 29.3 212 214 214
49.5 -48.9 28.4 208 211 210
48.8 -47.5 27.7 206 206 206
50.1 -48.2 28.0 206 206 206
49.8 -47.3 27.5 206 206 206
47.7 -40.6 23.6 207 207 207
-13.5 -17.0 10.0 98 100 100
-11.3 -25.6 15.1 179 182 181
-10.9 -25.6 15.1 178 181 180
-10.7 -25.8 15.2 192 192 192
-10.3 -25.8 15.2 196 196 196
45.9 -51.6 30.5 206 209 208
45.5 -50.4 29.7 206 209 208
49.7 -50.4 29.7 207 210 209
50.1 -50.1 29.6 207 210 209
52.0 -51.3 30.3 207 210 209
51.2 -49.9 29.4 207 210 209
48.5 -46.6 27.5 208 211 210
48.6 -45.5 26.8 208 211 210
47.7 -40.1 23.6 207 207 207
92.8 -57.0 33.6 191 191 191
-13.6 -16.9 10.1 112 112 112
-11.1 -25.6 15.3 177 180 179
-10.8 -25.9 15.5 172 172 172
-10.4 -25.8 15.4 175 177 177
45.6 -50.6 30.3 206 209 208
43.8 -47.1 28.1 206 209 208
43.7 -46.3 27.7 204 204 204
49.4 -49.4 29.6 210 213 212
61.5 -59.9 35.8 207 210 209
62.8 -60.4 36.1 205 205 205
48.4 -44.2 26.4 208 211 210
93.7 -56.7 33.9 191 191 191
-11.6 -25.7 15.6 182 185 184
-11.4 -25.9 15.7 175 175 175
-11.1 -26.2 15.9 162 162 162
-10.9 -26.5 16.1 163 163 163
45.9 -50.2 30.4 206 209 208
45.5 -49.0 29.7 206 209 208
50.0 -50.1 30.4 209 212 211
49.5 -48.8 29.6 209 212 211
61.8 -59.3 36.0 210 213 212
63.3 -60.0 36.4 207 210 209
64.2 -60.0 36.4 207 210 209
94.2 -56.2 34.1 192 192 192
-12.0 -26.9 16.6 178 178 178
-11.5 -26.6 16.4 161 161 161
-11.2 -26.8 16.5 153 155 155
49.5 -48.1 29.6 209 212 211
62.7 -59.4 36.5 209 212 211
65.4 -61.1 37.6 209 212 211
66.2 -61.0 37.5 209 212 211
122.3 -73.2 45.0 192 192 192
104.1 -61.8 38.0 193 193 193
96.1 -56.5 34.8 192 192 192
-12.4 -26.7 16.7 183 186 185
-12.0 -26.7 16.7 176 176 176
-11.7 -26.7 16.6 162 162 162
-11.3 -26.6 16.6 155 158 157
11.6 -16.7 10.4 204 204 204
11.8 -16.6 10.4 205 208 207
14.2 -16.7 10.4 205 208 207
64.8 -60.5 37.8 209 212 211
67.7 -62.4 38.9 209 212 211
68.9 -62.6 39.1 209 212 211
66.0 -59.2 36.9 209 212 211
118.7 -70.0 43.7 193 193 193
96.1 -55.7 34.8 194 194 194
96.0 -46.0 28.7 180 183 182
97.5 -46.4 29.0 181 184 183
98.4 -46.5 29.0 181 184 183
57.8 -25.6 15.9 173 173 173
56.7 -24.9 15.6 165 168 167
-24.4 -16.2 10.3 72 73 71
-16.5 -16.2 10.3 33 35 33
-13.7 -16.0 10.1 40 40 40
-13.4 -15.9 10.1 123 125 124
-12.9 -26.5 16.8 186 188 187
-12.5 -26.4 16.7 184 187 186
-12.1 -26.4 16.7 177 177 177
-11.7 -26.4 16.7 165 165 165
-11.3 -26.4 16.7 162 162 162
67.5 -62.1 39.3 208 211 210
70.2 -63.7 40.3 209 212 211
71.1 -63.7 40.3 209 212 211
68.7 -60.7 38.4 209 212 211
96.8 -45.4 28.7 182 185 184
97.3 -45.3 28.7 182 185 184
96.2 -44.5 28.2 181 181 181
57.3 -25.0 15.8 174 174 174
56.6 -24.5 15.5 166 169 168
57.6 -24.8 15.7 162 162 162
-26.2 -16.4 10.5 25 25 25
-25.9 -16.3 10.5 17 17 17
-24.5 -16.2 10.4 56 56 56
-16.6 -16.0 10.3 33 34 32
-14.3 -16.1 10.4 92 95 94
-13.9 -16.0 10.3 84 85 83
-13.1 -26.5 17.0 188 190 190
-12.6 -26.4 16.9 185 185 185
-12.2 -26.2 16.8 180 180 180
-11.8 -26.2 16.8 170 171 170
-11.4 -26.2 16.8 165 165 165
71.4 -63.8 41.0 208 211 210
72.4 -63.8 41.0 208 211 210
70.1 -61.1 39.2 209 212 211
95.7 -43.6 28.0 182 182 182
58.5 -25.1 16.2 175 175 175
57.0 -24.3 15.6 168 170 169
57.8 -24.5 15.8 162 162 162
-25.3 -16.3 10.6 29 31 29
-13.0 -26.6 17.4 188 190 190
-12.3 -26.1 17.0 182 182 182
-12.0 -26.2 17.1 173 175 175
-11.6 -26.2 17.1 168 168 168
-11.5 -26.9 17.5 167 167 167
73.2 -63.6 41.5 208 211 210
99.5 -45.3 29.6 184 187 186
58.7 -24.8 16.2 176 176 176
57.7 -24.3 15.8 169 171 170
59.4 -24.8 16.2 163 163 163
60.6 -25.2 16.4 156 156 156
-13.1 -28.2 18.7 174 176 176
-12.7 -28.3 18.8 173 173 173
79.3 -68.8 45.6 208 211 210
76.7 -65.6 43.5 208 211 210
99.9 -44.5 29.5 186 188 187
96.8 -42.8 28.4 186 188 187
59.5 -24.8 16.4 172 174 174
59.1 -24.5 16.2 170 172 172
60.2 -24.7 16.4 159 162 161
60.8 -24.9 16.5 156 156 156
-13.6 -15.0 10.1 29 29 29
-13.5 -28.6 19.3 176 179 178
-13.1 -28.7 19.3 174 174 174
-12.9 -29.3 19.7 174 176 176
74.8 -63.0 42.4 207 210 209
695.8 -530.5 356.9 209 212 211
100.2 -43.9 29.6 187 189 189
60.2 -24.4 16.4 160 163 162
60.7 -24.4 16.4 157 157 157
-13.6 -28.5 19.5 177 180 179
-14.0 -30.2 20.7 176 176 176
-13.5 -30.3 20.7 168 168 168
104.5 -87.9 60.1 207 210 209
104.2 -86.5 59.1 207 210 209
96.5 -41.4 28.3 188 190 190
61.6 -24.7 16.9 168 168 168
60.9 -24.3 16.6 160 160 160
60.7 -24.1 16.4 157 157 157
60.7 -23.9 16.3 151 151 151
-14.2 -30.2 21.0 177 177 177
-13.8 -30.3 21.0 143 143 142
114.4 -95.9 66.6 206 209 208
106.5 -88.1 61.2 206 209 208
104.6 -85.4 59.3 207 210 209
113.7 -48.6 33.8 189 191 191
104.5 -44.4 30.8 190 192 192
96.4 -40.7 28.2 190 192 192
61.9 -24.3 16.9 161 161 161
61.4 -24.0 16.6 157 157 157
61.0 -23.6 16.4 149 151 151
-14.2 -29.7 21.0 164 164 164
-13.8 -29.9 21.1 126 126 126
122.8 -102.7 72.5 210 210 210
118.5 -97.8 69.0 210 210 210
109.7 -89.3 63.1 210 210 210
108.7 -87.3 61.6 206 209 208
106.3 -84.3 59.5 207 210 209
114.9 -89.9 63.5 211 211 211
114.8 -88.7 62.6 211 211 211
132.2 -99.6 70.3 207 210 209
64.2 -24.9 17.6 163 163 163
62.9 -24.3 17.1 160 160 160
62.4 -23.9 16.9 155 155 155
-14.1 -29.1 20.9 180 183 182
-13.5 -28.9 20.7 177 177 177
127.7 -105.0 75.4 210 210 210
123.5 -100.2 71.9 210 210 210
123.3 -98.7 70.8 210 210 210
111.6 -88.1 63.3 210 210 210
124.3 -96.9 69.5 210 210 210
125.9 -96.9 69.5 211 211 211
128.0 -97.3 69.8 211 211 211
137.2 -103.0 73.9 211 211 211
144.5 -107.1 76.9 211 211 211
140.1 -102.6 73.6 212 213 212
140.7 -101.8 73.0 212 213 212
-26.6 -14.9 10.9 131 131 131
-32.2 -18.4 13.4 201 203 203
-14.3 -29.0 21.1 179 179 179
-13.9 -29.1 21.2 177 177 177
-13.7 -29.8 21.8 159 159 159
140.5 -113.7 83.0 209 209 209
133.7 -106.7 77.8 209 209 209
134.4 -105.8 77.2 210 210 210
126.8 -98.5 71.9 210 210 210
133.1 -102.0 74.5 210 210 210
138.6 -104.9 76.6 210 210 210
139.3 -104.1 76.0 211 211 211
147.6 -108.9 79.5 211 211 211
156.6 -114.2 83.3 211 211 211
146.9 -105.8 77.2 211 211 211
148.7 -105.8 77.2 212 213 212
68.3 -25.4 18.5 152 152 152
-26.5 -14.8 11.0 147 147 147
-26.2 -14.7 10.9 108 110 110
-28.3 -16.7 12.4 79 81 79
-16.7 -35.7 26.5 160 160 160
134.8 -105.7 78.5 212 213 212
134.9 -104.4 77.5 209 209 209
134.7 -101.5 75.4 210 210 210
140.3 -104.4 77.5 210 210 210
139.3 -102.3 76.0 210 210 210
168.0 -121.9 90.5 211 211 211
170.1 -121.9 90.5 211 211 211
149.4 -105.7 78.5 211 211 211
148.7 -104.0 77.2 211 211 211
70.2 -25.6 19.0 141 143 142
69.9 -25.3 18.8 138 138 138
69.8 -25.2 18.7 134 136 135
-17.4 -35.2 26.6 172 172 172
-16.9 -35.4 26.8 157 157 157
-16.0 -34.9 26.4 22 22 22
111.6 -83.7 63.3 209 209 209
145.1 -106.1 80.2 210 210 210
145.7 -105.2 79.5 210 210 210
197.3 -140.7 106.3 210 210 210
179.6 -126.5 95.5 211 211 211
157.2 -109.3 82.6 211 211 211
108.8 -72.2 54.5 212 213 212
220.8 -143.1 108.1 216 216 216
71.6 -25.7 19.4 137 139 138
71.2 -25.4 19.2 137 139 138
71.7 -25.4 19.2 134 137 136
-19.1 -34.4 26.4 188 188 188
-18.5 -34.3 26.4 186 186 186
-17.8 -34.2 26.3 153 153 153
-17.4 -34.6 26.6 88 88 88
-16.9 -34.8 26.8 89 91 90
-16.1 -34.5 26.5 56 57 55
157.1 -112.8 86.8 212 213 212
156.9 -111.3 85.6 210 210 210
212.8 -149.1 114.6 206 209 208
191.2 -132.2 101.7 210 210 210
385.3 -251.0 193.0 215 215 215
293.8 -189.2 145.5 212 213 212
230.0 -146.4 112.6 212 213 212
90.6 -32.7 25.2 151 153 153
90.4 -32.5 25.0 139 141 140
73.7 -25.9 20.0 136 136 136
72.3 -25.3 19.5 134 134 134
72.5 -25.2 19.4 134 134 134
74.9 -25.9 19.9 134 134 134
-19.5 -34.4 26.9 189 191 191
-18.8 -34.2 26.8 178 181 180
-18.0 -34.0 26.6 134 137 136
-17.5 -34.2 26.8 89 89 89
-16.9 -34.3 26.9 90 92 91
-16.2 -34.1 26.7 50 51 49
-15.5 -33.8 26.5 113 114 113
163.0 -115.0 90.1 212 213 212
166.7 -116.1 90.9 212 213 212
237.3 -163.2 127.8 214 214 214
195.4 -132.7 103.9 216 216 216
298.4 -188.7 147.8 216 216 216
249.3 -155.9 122.0 212 213 212
297.1 -181.6 142.2 178 178 178
56.1 -32.1 25.2 198 198 198
54.3 -30.8 24.1 198 198 198
92.4 -32.8 25.7 133 133 133
91.3 -32.2 25.2 129 132 131
76.7 -26.0 20.4 128 130 129
-19.6 -35.1 28.0 177 177 177
-18.6 -34.5 27.5 139 139 139
-17.8 -34.2 27.3 90 92 91
-17.2 -34.2 27.3 90 92 91
-16.6 -34.3 27.3 77 77 77
-16.3 -35.0 27.9 102 104 104
164.6 -114.0 90.9 212 213 212
168.3 -115.1 91.8 212 213 212
237.3 -160.3 127.8 214 214 214
199.8 -133.3 106.3 214 214 214
565.4 -359.4 286.6 215 215 215
303.1 -188.2 150.1 215 215 215
257.6 -158.1 126.1 212 213 212
322.9 -196.0 156.3 212 213 212
308.7 -185.3 147.8 179 179 179
55.8 -31.4 25.0 198 198 198
54.5 -30.3 24.2 198 198 198
94.4 -32.9 26.2 113 115 114
93.1 -32.2 25.7 121 121 121
93.7 -32.2 25.7 123 123 123
78.0 -26.0 20.7 125 125 125
79.0 -26.2 20.9 125 125 125
-20.0 -35.2 28.6 179 179 179
-19.2 -34.8 28.3 140 140 140
-18.1 -34.1 27.7 97 97 97
-17.5 -34.1 27.7 92 92 92
-17.1 -34.7 28.2 80 83 82
-16.7 -35.3 28.7 71 73 73
-15.8 -34.7 28.2 30 32 32
165.4 -112.5 91.4 215 215 215
242.2 -160.5 130.5 212 213 212
212.9 -139.4 113.3 216 216 216
339.6 -219.6 178.5 214 214 214
574.1 -358.1 291.0 215 215 215
268.3 -161.7 131.4 216 216 216
407.0 -242.5 197.0 218 218 218
340.7 -200.7 163.1 179 179 179
54.6 -29.8 24.3 198 198 198
95.4 -32.2 26.2 112 112 112
76.9 -25.2 20.5 113 114 113
78.1 -25.2 20.5 132 132 132
-17.9 -12.5 10.4 53 52 52
-19.9 -35.4 29.3 133 133 133
-18.2 -34.8 28.8 92 92 92
-17.6 -35.0 29.0 64 63 61
-17.1 -35.4 29.3 56 58 58
249.1 -162.0 134.2 216 216 216
691.1 -423.0 350.3 217 217 217
620.2 -362.5 300.3 216 216 216
500.2 -289.1 239.4 181 181 181
55.0 -29.5 24.4 202 202 202
55.6 -29.5 24.4 203 203 203
54.6 -28.7 23.8 203 203 203
45.0 -14.4 12.0 106 106 106
45.3 -14.4 12.0 93 93 93
45.5 -14.4 11.9 152 152 152
-18.0 -12.4 10.5 56 55 54
-17.5 -12.2 10.3 53 52 52
-23.6 -41.3 34.9 127 127 127
-20.9 -42.4 35.8 30 30 30
-19.6 -41.3 34.9 23 24 23
777.4 -466.7 394.1 217 217 217
54.5 -28.7 24.2 202 202 202
55.3 -28.8 24.3 203 203 203
54.3 -28.0 23.6 203 203 203
49.5 -25.0 21.1 203 203 203
51.9 -16.8 14.1 104 104 104
45.4 -14.2 12.0 66 66 64
45.5 -14.1 11.9 154 154 154
-24.4 -41.8 36.0 128 128 128
-24.0 -42.6 36.7 96 96 96
-22.8 -42.1 36.2 95 95 95
-22.3 -42.7 36.8 96 99 98
-21.7 -43.1 37.2 94 97 96
-20.2 -41.8 36.0 117 117 117
53.9 -27.2 23.5 203 203 203
49.3 -24.4 21.0 203 203 203
52.3 -16.5 14.3 98 98 98
46.1 -14.1 12.2 77 80 79
46.1 -14.0 12.1 155 155 155
-26.0 -43.7 38.4 121 121 121
-25.2 -43.9 38.6 97 100 99
-24.3 -43.8 38.5 96 99 98
-23.7 -44.4 39.0 84 84 84
-22.8 -44.4 39.0 114 116 115
-21.5 -43.7 38.4 119 119 119
14.8 -11.5 10.1 212 213 212
52.9 -16.4 14.4 84 84 84
53.9 -16.6 14.6 72 72 72
47.0 -14.0 12.3 152 154 154
47.4 -14.1 12.4 125 125 125
-32.2 -15.6 14.0 189 189 189
-31.7 -15.5 13.9 160 160 160
-31.4 -15.5 13.9 14 14 14
-27.7 -45.6 40.9 120 122 121
-26.8 -45.6 40.9 96 96 96
-24.8 -43.9 39.4 95 98 97
-24.0 -44.0 39.5 108 108 108
-23.2 -44.2 39.7 23 24 23
-22.1 -43.9 39.4 20 20 20
14.8 -11.3 10.1 212 213 212
46.8 -22.5 20.1 203 203 203
54.3 -16.4 14.7 74 74 74
54.7 -16.4 14.7 72 72 72
47.4 -13.9 12.4 163 162 160
47.7 -13.9 12.4 126 126 126
-32.7 -15.5 14.2 140 140 140
-32.2 -15.4 14.1 138 140 139
-31.9 -15.4 14.1 14 14 14
-31.7 -15.5 14.2 24 24 24
-31.4 -15.5 14.2 18 22 19
-31.2 -15.5 14.2 15 15 15
-24.6 -15.6 14.3 196 196 196
-24.2 -15.5 14.2 207 210 209
-23.8 -15.5 14.2 214 214 214
-23.5 -15.5 14.2 232 232 232
-23.1 -15.5 14.2 232 232 232
-28.6 -46.1 42.2 122 124 123
-27.6 -46.1 42.2 96 99 98
-25.2 -43.6 40.0 100 100 100
-24.1 -43.4 39.7 112 112 112
-23.5 -43.8 40.2 22 22 22
54.3 -16.0 14.7 77 77 77
54.6 -16.0 14.7 77 77 77
48.2 -13.7 12.6 119 119 119
-29.7 -46.9 43.9 123 123 123
-28.5 -46.5 43.6 96 99 98
-26.5 -44.9 42.0 100 100 100
-24.7 -43.4 40.6 111 111 111
280.9 -158.1 151.3 219 219 219
-14.9 -13.9 13.6 33 33 33
-29.8 -56.7 55.5 110 110 110
-26.7 -52.9 51.8 172 174 174
276.5 -152.1 148.9 216 216 216
-34.0 -53.8 53.9 101 103 103
-30.9 -52.9 53.0 48 48 48
-30.6 -54.4 54.5 14 18 15
-29.9 -55.5 55.6 164 164 164
-26.8 -52.0 52.1 171 173 173
247.3 -133.0 133.2 219 219 219
220.9 -117.3 117.5 220 223 222
-15.9 -13.9 14.2 69 71 69
-10.3 -13.5 13.8 202 204 204
-34.5 -57.6 59.1 43 44 43
-31.7 -55.1 56.5 18 18 18
-30.4 -55.1 56.5 159 159 159
-28.7 -54.4 55.8 180 180 180
13.6 -10.0 10.3 218 221 220
14.8 -10.0 10.3 217 220 219
207.9 -107.9 110.6 220 223 222
156.5 -70.7 72.5 202 202 202
-15.8 -13.4 14.1 32 31 30
-10.3 -13.2 13.8 189 191 191
-39.6 -64.5 67.8 27 27 27
-36.1 -61.2 64.3 18 18 18
-33.2 -58.8 61.8 157 157 157
13.4 -9.6 10.1 218 221 220
14.6 -9.7 10.2 217 220 219
14.6 -9.5 10.0 217 220 219
205.5 -104.1 109.3 219 222 221
192.4 -85.7 90.1 199 199 199
153.5 -67.7 71.1 202 202 202
-15.6 -13.0 14.0 35 35 35
-15.0 -12.7 13.7 35 35 35
-10.3 -12.8 13.8 193 193 193
-53.7 -79.1 85.2 99 101 101
-48.5 -74.1 79.8 110 110 108
-48.9 -84.4 90.9 168 168 168
177.2 -77.0 83.0 199 199 199
151.8 -65.3 70.3 199 199 199
-15.5 -12.5 13.8 36 36 36
-14.9 -12.3 13.6 35 35 35
-14.2 -12.0 13.3 35 35 35
-10.6 -12.4 13.7 197 197 197
-10.2 -12.4 13.7 188 190 190
-52.0 -77.5 85.6 105 105 105
-50.2 -77.8 86.0 30 29 29
-50.3 -84.8 93.6 169 171 170
-44.7 -82.3 90.9 181 184 183
204.9 -87.8 97.0 178 178 178
171.2 -72.6 80.2 199 199 199
157.7 -66.1 73.0 199 199 199
136.7 -56.7 62.6 199 199 199
-224.4 -81.8 92.7 75 75 75
-218.0 -80.2 90.9 69 71 69
-216.9 -80.6 91.4 54 54 54
-218.0 -81.8 92.7 18 22 19
-216.9 -82.2 93.2 17 17 17
-214.7 -82.2 93.2 19 23 20
-216.8 -83.8 95.1 40 42 42
-14.9 -12.0 13.6 33 32 30
-9.3 -10.6 12.0 196 196 196
-10.3 -12.1 13.7 194 194 194
-55.0 -79.8 90.5 96 99 98
-52.6 -79.4 90.1 29 29 29
-52.5 -82.6 93.6 30 29 29
-50.1 -82.2 93.2 174 174 174
-49.9 -85.6 97.0 180 183 182
-44.4 -79.8 90.5 180 183 182
171.2 -70.7 80.2 198 198 198
148.0 -60.4 68.5 199 199 199
140.9 -56.9 64.6 199 199 199
-24.1 -10.5 12.2 58 58 58
-23.8 -10.5 12.2 55 55 55
-9.7 -10.5 12.2 198 198 198
-9.3 -10.3 12.0 194 194 194
-65.1 -99.7 116.1 23 24 23
-75.9 -121.2 141.2 177 177 177
-70.0 -116.9 136.1 179 179 179
204.4 -93.4 108.7 222 224 224
193.3 -77.7 90.5 196 196 196
157.7 -62.7 73.0 199 199 199
137.1 -54.0 62.8 199 199 199
-25.8 -10.5 12.6 176 176 176
-25.4 -10.5 12.5 113 115 114
-25.1 -10.5 12.5 62 62 62
-24.8 -10.5 12.5 62 62 62
-9.2 -10.0 12.0 195 195 195
203.2 -90.3 108.1 222 224 224
192.4 -75.3 90.1 194 194 194
138.5 -53.0 63.5 199 199 199
226.7 -85.9 102.8 199 199 199
-11.9 -11.2 13.8 41 40 38
-11.5 -11.1 13.7 41 40 38
-145.3 -219.5 270.2 165 168 167
202.0 -87.3 107.5 222 224 224
201.0 -76.4 94.1 192 192 192
131.0 -48.8 60.1 196 196 196
221.9 -81.7 100.6 196 196 196
241.3 -84.4 103.9 200 200 200
-11.9 -10.9 13.8 43 43 43
-11.4 -10.7 13.6 42 42 42
-10.5 -10.1 12.9 197 197 197
202.0 -84.8 107.5 223 225 225
197.0 -72.8 92.3 180 180 180
134.0 -48.5 61.4 198 198 198
212.8 -76.1 96.5 199 199 199
214.3 -72.1 91.4 203 203 203
-11.3 -10.3 13.4 48 48 48
-10.5 -9.9 12.9 197 200 199
202.0 -82.3 107.5 223 225 225
193.3 -69.3 90.5 158 161 160
166.7 -59.1 77.2 196 196 196
216.1 -75.1 98.0 199 199 199
249.1 -84.7 110.6 199 199 199
228.9 -77.1 100.6 199 199 199
242.6 -80.0 104.5 199 199 199
218.5 -71.4 93.2 203 203 203
185.9 -60.1 78.5 203 203 203
-10.6 -9.7 13.0 196 196 196
206.7 -81.7 110.0 223 225 225
166.0 -57.1 76.9 192 192 192
259.7 -85.6 115.3 199 199 199
246.7 -78.9 106.3 199 199 199
217.4 -68.9 92.7 202 202 202
185.9 -58.3 78.5 203 203 203
-9.8 -8.8 12.3 195 195 195
-9.3 -8.7 12.0 190 190 190
188.8 -63.6 88.4 152 154 154
168.7 -56.2 78.2 185 185 185
201.6 -61.8 86.0 202 202 202
186.6 -56.7 78.8 202 202 202
168.8 -50.8 70.6 205 205 205
-9.8 -8.6 12.3 194 194 194
-9.3 -8.4 12.0 194 194 194
24.8 -10.5 15.0 222 224 224
25.3 -10.4 15.0 222 224 224
25.6 -10.4 14.9 222 224 224
26.5 -10.4 15.0 222 224 224
27.5 -10.5 15.0 223 225 225
188.8 -61.5 88.4 151 151 151
172.3 -55.6 79.8 180 180 180
270.2 -84.4 121.3 196 196 196
203.4 -60.4 86.8 202 202 202
188.2 -55.3 79.5 205 205 205
141.0 -25.9 37.2 94 94 94
24.7 -10.2 15.2 222 224 224
24.7 -10.1 15.0 222 224 224
25.2 -9.9 14.7 222 224 224
25.4 -9.8 14.6 223 225 225
27.1 -10.1 15.0 223 225 225
27.4 -10.1 15.0 223 225 225
26.8 -9.7 14.4 223 225 225
192.4 -60.6 90.1 159 159 159
199.6 -60.9 90.5 194 194 194
205.6 -62.1 92.3 196 196 196
226.4 -65.6 97.5 199 199 199
212.2 -60.9 90.5 202 202 202
193.1 -54.9 81.5 205 205 205
24.8 -9.9 15.3 223 225 225
24.0 -9.3 14.4 223 225 225
24.4 -9.4 14.4 223 225 225
24.8 -9.4 14.4 223 225 225
25.1 -9.4 14.4 223 225 225
25.4 -9.4 14.4 223 225 225
25.7 -9.4 14.4 223 225 225
25.9 -9.3 14.3 223 225 225
26.5 -9.3 14.3 223 225 225
134.0 -39.9 61.4 192 192 192
215.3 -59.6 91.8 202 202 202
148.8 -40.4 62.2 205 205 205
133.5 -35.9 55.3 197 197 197
25.1 -9.0 14.4 223 225 225
25.4 -9.0 14.4 223 225 225
25.7 -9.0 14.4 223 225 225
26.4 -8.9 14.2 223 225 225
28.9 -9.6 15.4 224 226 226
141.8 -41.1 65.7 174 176 176
135.8 -39.0 62.2 190 190 190
225.1 -60.1 96.0 200 200 200
150.8 -39.5 63.1 206 206 206
130.5 -33.8 54.0 200 200 200
-21.2 -6.4 10.6 74 74 74
26.8 -8.7 14.4 220 223 222
29.2 -9.3 15.4 224 226 226
601.9 -184.0 305.1 224 226 226
146.4 -40.9 67.8 175 175 175
142.8 -39.5 65.5 190 190 190
269.6 -72.2 119.7 197 197 197
213.2 -54.8 90.9 200 200 200
196.5 -50.0 83.0 206 206 206
154.9 -39.1 64.8 208 208 208
133.2 -33.3 55.1 202 202 202
-26.2 -6.3 10.8 75 75 75
-25.8 -6.2 10.8 78 78 78
-25.5 -6.2 10.7 77 77 77
-25.3 -6.2 10.8 79 79 79
-23.6 -6.3 10.8 73 73 73
-21.5 -6.2 10.7 67 67 67
-21.4 -6.3 10.8 68 68 68
200.4 -228.5 394.1 226 229 228
25.2 -9.0 15.5 224 226 226
29.3 -8.9 15.4 222 224 224
717.6 -210.9 363.8 224 226 226
271.3 -69.9 120.5 195 195 195
331.0 -84.4 145.5 197 197 197
329.3 -83.1 143.3 197 197 197
233.6 -58.3 100.6 197 197 197
216.4 -53.5 92.3 200 200 200
187.4 -45.9 79.1 203 203 203
137.1 -32.9 56.8 202 202 202
25.6 -8.9 16.0 224 226 226
25.2 -8.6 15.5 224 226 226
30.5 -9.1 16.4 222 224 224
29.3 -8.6 15.4 222 224 224
273.0 -67.5 121.3 195 195 195
310.5 -75.2 135.1 197 197 197
266.1 -63.8 114.6 200 200 200
219.6 -52.1 93.6 202 202 202
195.6 -46.0 82.6 206 206 206
284.6 -65.0 116.8 235 235 235
24.9 -8.1 15.1 222 224 224
27.6 -8.0 15.0 222 224 224
30.5 -8.7 16.4 222 224 224
29.2 -8.2 15.4 223 225 225
225.1 -51.2 96.0 202 202 202
211.3 -47.6 89.2 204 204 204
27.5 -7.7 15.0 223 225 225
607.9 -148.4 291.0 175 175 175
652.0 -146.2 286.6 196 196 196
229.8 -50.0 98.0 202 202 202
286.4 -59.9 117.5 226 229 228
598.7 -139.5 286.6 170 171 170
242.0 -52.3 107.5 193 193 193
614.8 -131.6 270.2 196 196 196
234.8 -49.2 101.2 198 198 198
227.4 -47.2 97.0 202 202 202
247.9 -49.5 101.7 220 220 220
231.0 -45.7 98.5 203 203 203
253.4 -48.2 103.9 212 214 214
896.5 -173.5 394.1 194 194 194
19.3 -3.6 12.0 225 225 225
19.5 -3.6 12.0 225 225 225
19.3 -3.3 12.0 222 222 222
19.5 -3.3 12.0 222 222 222
19.7 -3.3 11.9 226 226 226
19.9 -3.3 11.9 226 226 226
19.6 -3.1 12.0 222 222 222
19.3 -2.8 12.1 224 224 224
19.5 -2.8 12.0 224 224 224
19.4 -2.5 12.0 225 225 225
19.3 -2.2 12.1 221 221 221
19.5 -2.2 12.0 225 225 225
19.3 -1.9 12.1 222 222 222
19.5 -1.9 12.0 222 222 222
789.0 -44.3 320.6 202 202 202
783.2 -43.6 315.3 95 95 95
988.1 -54.5 394.1 76 78 77
847.5 -45.9 331.9 65 67 66
716.9 -38.4 278.2 75 75 75
941.3 -41.5 300.3 136 138 137
1027.5 -44.3 320.6 60 60 60
1034.9 -44.3 320.6 30 29 28
1138.9 -48.4 350.3 34 34 34
72.9 -2.8 20.0 141 141 141
684.6 -32.0 278.2 207 207 207
722.9 -33.5 291.0 106 106 106
765.0 -35.1 305.1 79 81 80
754.8 -34.0 295.6 66 68 67
667.8 -29.8 259.1 73 73 73
808.7 -34.5 300.3 64 64 64
865.4 -32.5 282.3 55 54 53
912.8 -34.0 295.6 51 51 51
919.7 -34.0 295.6 34 36 34
801.4 -29.4 255.6 194 194 194
904.8 -32.5 282.3 77 77 77
911.3 -32.5 282.3 27 27 27
904.4 -32.0 278.2 42 43 42
72.7 -2.3 19.9 144 144 144
854.4 -31.5 343.9 109 109 109
72.3 -1.8 19.8 145 145 144
70.2 -1.8 19.1 103 103 103
-606.4 -21.2 310.1 55 55 55
-462.6 -16.4 239.4 54 53 52
-445.8 -16.0 233.5 54 53 52
-419.6 -15.2 222.5 51 51 51
921.4 -25.4 370.9 109 109 109
69.6 -1.3 19.0 100 100 100
68.9 -1.3 18.7 89 91 90
-401.6 -9.4 207.9 53 52 51
-392.5 -9.3 205.6 54 53 52
69.3 -0.9 18.9 96 96 96
105.6 -1.3 28.2 82 82 82
-388.8 -4.4 201.2 53 52 51
-384.1 -4.4 201.2 50 50 50
770.3 -6.8 310.1 98 98 98
738.6 -6.3 286.6 56 55 54
-564.2 0.4 295.6 49 49 49
-216.0 0.2 120.5 55 54 53
-214.6 0.2 121.3 52 52 52
97.6 0.0 25.9 88 88 88
-318.1 4.3 175.2 51 51 51
-214.6 2.9 119.7 55 54 53
-211.8 2.9 119.7 52 52 52
91.1 0.6 24.1 90 90 90
-288.7 7.6 159.0 51 51 51
-217.4 5.8 121.3 54 53 52
-214.6 5.8 121.3 55 54 53
82.8 1.1 22.3 85 85 85
79.3 1.0 21.2 87 87 87
87.8 1.1 23.2 89 89 89
-214.6 8.5 119.7 54 53 52
-209.2 8.4 118.2 54 53 52
783.2 22.4 315.3 82 84 84
1143.8 25.3 356.9 220 220 220
836.4 18.4 259.1 224 224 224
82.9 1.6 22.3 85 85 85
79.3 1.5 21.2 87 87 87
87.3 1.6 23.2 90 90 90
86.3 1.6 22.8 87 87 87
1262.9 37.1 394.1 220 220 220
848.1 24.8 262.7 221 221 221
83.2 2.1 22.4 86 86 86
86.8 2.2 23.2 88 88 88
88.3 2.2 23.5 92 92 92
87.2 2.2 23.0 88 88 88
84.5 2.7 22.9 87 87 87
83.8 2.6 22.5 87 87 87
87.2 2.7 23.2 93 93 93
86.7 2.7 22.9 93 93 93
85.5 2.6 22.4 166 169 168
87.1 2.7 22.7 132 132 132
979.0 55.5 394.1 53 53 53
994.9 54.3 386.0 54 54 54
1174.2 51.2 363.8 225 225 225
84.9 3.2 23.0 89 89 89
84.3 3.2 22.7 89 89 89
85.5 3.2 22.9 87 87 87
86.8 3.2 23.1 94 97 96
86.7 3.2 22.9 89 89 89
86.4 3.2 22.7 129 129 129
87.1 3.2 22.7 180 180 180
-45.8 4.4 17.0 70 70 70
-45.4 4.4 17.0 72 74 74
-45.0 4.4 17.0 82 81 79
-44.6 4.4 17.0 58 58 58
-44.2 4.4 17.0 66 67 65
-43.8 4.4 17.0 58 58 58
-43.4 4.4 17.0 92 95 94
-43.0 4.4 17.0 152 154 154
-42.6 4.4 17.0 191 191 191
-42.2 4.4 17.0 200 200 200
-306.7 43.4 168.9 182 182 182
-224.6 32.2 125.3 187 189 189
-218.8 31.8 123.6 181 181 181
-293.6 45.3 161.7 47 47 47
-229.1 35.8 127.8 54 54 54
-226.2 35.8 127.8 53 53 53
-232.6 37.3 133.2 55 55 55
-238.8 40.4 133.2 51 51 51
-232.3 42.3 129.6 44 44 44
-226.2 41.8 127.8 42 43 42
-217.4 42.4 121.3 40 40 40
-214.6 42.4 121.3 41 41 41
-223.1 46.4 124.4 37 38 37
-215.9 45.5 122.0 38 38 38
-88.2 40.5 75.7 226 226 226
-80.6 37.8 70.6 218 221 220
-77.8 37.3 69.5 228 231 230
-76.2 37.3 69.5 171 173 173
-115.6 37.5 67.1 91 91 91
-110.5 36.3 65.0 96 95 94
-88.2 40.7 72.8 227 227 227
-79.4 38.9 69.5 185 184 182
-73.5 36.7 65.7 104 104 104
-69.8 35.6 63.7 94 94 94
-68.7 35.9 64.1 90 89 88
-68.7 36.6 65.5 88 88 86
-64.9 35.4 63.3 110 110 110
-281.6 90.3 155.1 96 96 96
-252.2 84.1 144.4 99 99 99
-119.8 40.5 69.5 101 103 103
-84.3 40.5 69.5 228 228 228
-82.6 40.5 69.5 118 120 119
-83.2 41.6 71.4 30 31 30
-79.4 40.5 69.5 64 64 64
-75.8 39.5 67.8 74 75 73
-71.1 39.5 67.8 72 74 74
-66.7 37.9 65.0 64 65 63
-62.6 36.4 62.4 74 74 74
-293.6 97.9 161.7 100 102 102
-249.8 85.5 141.2 100 102 102
-54.9 39.4 36.8 42 43 42
-53.6 39.1 36.5 52 52 52
-51.0 39.1 36.5 77 77 77
-49.5 39.2 36.7 81 84 83
-48.7 39.2 36.7 80 82 79
-42.1 39.5 36.9 30 29 29
-40.8 39.0 36.4 19 19 19
-39.2 38.3 35.8 32 31 30
-39.5 39.4 36.8 43 43 43
-165.2 107.8 98.5 13 13 13
-162.0 107.2 98.0 15 15 15
-161.4 108.3 99.0 13 13 13
-159.1 108.3 99.0 10 10 10
-156.8 108.3 99.0 3 9 5
-155.3 108.9 99.6 6 7 7
-153.0 108.9 99.6 13 13 13
-149.1 107.8 98.5 10 10 10
-147.6 108.3 99.0 42 44 43
-145.3 108.3 99.0 75 76 74
-143.0 108.3 99.0 89 89 89
-140.7 108.3 99.0 93 92 91
-138.4 108.3 99.0 93 92 91
-135.2 109.5 100.1 88 88 88
-129.5 106.6 97.5 77 77 77
-117.1 107.8 98.5 32 33 31
-114.8 107.8 98.5 31 32 30
-112.5 107.8 98.5 23 26 24
24.9 15.5 10.1 169 171 170
25.8 15.5 10.1 115 115 115
22.4 15.9 10.2 184 184 184
22.6 15.8 10.1 177 177 177
23.4 15.9 10.2 192 195 194
24.3 15.9 10.2 158 158 158
24.6 15.9 10.2 161 164 163
24.8 15.8 10.2 165 164 162
25.0 15.8 10.2 165 164 162
25.2 15.8 10.1 165 164 162
26.6 16.4 10.5 124 127 126
26.0 15.9 10.2 117 119 118
26.3 15.9 10.2 112 112 112
26.5 15.9 10.2 112 112 112
30.1 16.6 10.6 110 110 110
34.0 15.9 10.2 103 103 103
34.2 15.8 10.2 105 107 107
34.5 15.9 10.2 76 76 74
34.7 15.8 10.2 84 84 84
34.9 15.8 10.2 92 91 90
35.9 15.9 10.2 105 105 105
36.1 15.8 10.2 106 108 108
36.6 15.8 10.2 106 108 108
36.8 15.8 10.2 109 111 111
37.0 15.8 10.2 109 111 111
37.4 15.9 10.2 118 118 118
37.6 15.9 10.2 124 127 126
37.7 15.8 10.1 124 127 126
37.9 15.8 10.1 106 108 108
20.2 15.8 10.0 75 75 75
30.2 16.9 10.7 107 107 107
35.4 17.0 10.3 86 86 86
35.5 17.0 10.3 92 91 90
38.0 17.0 10.3 118 118 118
