ply
format ascii 1.0
element vertex 2650
property float x
property float y
property float z
property uchar red
property uchar green
property uchar blue
end_header
101.6 -650.2 259.1 156 159 158
106.2 -641.4 255.6 153 155 155
113.7 -650.2 259.1 156 159 158
119.7 -650.2 259.1 160 160 160
125.7 -650.2 259.1 159 159 159
131.7 -650.2 259.1 159 159 159
137.8 -650.2 259.1 162 162 162
143.8 -650.2 259.1 161 161 161
149.8 -650.2 259.1 158 158 158
155.8 -650.2 259.1 158 158 158
159.7 -641.4 255.6 158 158 158
165.6 -641.4 255.6 158 158 158
173.9 -650.2 259.1 161 161 161
177.5 -641.4 255.6 164 164 164
185.9 -650.2 259.1 164 164 164
192.0 -650.2 259.1 164 164 164
198.0 -650.2 259.1 165 165 165
204.0 -650.2 259.1 165 165 165
210.0 -650.2 259.1 165 165 165
216.1 -650.2 259.1 165 165 165
222.1 -650.2 259.1 165 165 165
231.3 -659.2 262.7 165 165 165
234.1 -650.2 259.1 165 165 165
240.2 -650.2 259.1 162 162 162
249.6 -659.2 262.7 162 162 162
248.8 -641.4 255.6 165 165 165
254.7 -641.4 255.6 165 165 165
264.2 -650.2 259.1 165 165 165
270.3 -650.2 259.1 165 165 165
276.3 -650.2 259.1 162 162 162
282.3 -650.2 259.1 163 163 163
292.3 -659.2 262.7 163 163 163
290.4 -641.4 255.6 163 163 163
296.3 -641.4 255.6 163 163 163
302.3 -641.4 255.6 163 163 163
308.2 -641.4 255.6 163 163 163
310.0 -632.8 252.2 160 160 160
324.5 -650.2 259.1 160 160 160
339.8 -668.5 266.4 160 160 160
332.0 -641.4 255.6 160 160 160
337.9 -641.4 255.6 160 160 160
358.4 -668.5 266.4 160 160 160
364.6 -668.5 266.4 160 160 160
355.7 -641.4 255.6 161 161 161
361.7 -641.4 255.6 157 160 159
372.7 -650.2 259.1 157 160 159
105.7 -173.2 69.0 157 160 159
106.9 -172.6 68.8 157 160 159
109.3 -173.9 69.3 155 158 157
110.9 -173.9 69.3 155 158 157
112.1 -173.2 69.0 156 159 158
81.2 -546.8 220.0 156 159 158
85.3 -540.5 217.4 156 159 158
81.9 -489.8 197.0 156 159 158
95.4 -540.5 217.4 160 160 160
100.4 -540.5 217.4 160 160 160
105.5 -540.5 217.4 159 159 159
110.5 -540.5 217.4 162 162 162
115.6 -540.5 217.4 162 162 162
120.6 -540.5 217.4 161 161 161
125.7 -540.5 217.4 161 161 161
130.8 -540.5 217.4 164 164 164
132.8 -528.3 212.5 164 164 164
140.9 -540.5 217.4 161 161 161
133.6 -495.0 199.1 164 164 164
151.0 -540.5 217.4 164 164 164
156.0 -540.5 217.4 164 164 164
161.1 -540.5 217.4 167 167 167
166.1 -540.5 217.4 168 168 168
171.2 -540.5 217.4 168 168 168
176.2 -540.5 217.4 168 168 168
181.3 -540.5 217.4 168 168 168
186.3 -540.5 217.4 168 168 168
193.6 -546.8 220.0 168 168 168
185.8 -511.1 205.6 168 168 168
203.9 -546.8 220.0 168 168 168
209.0 -546.8 220.0 165 165 165
191.8 -489.8 197.0 165 165 165
216.7 -540.5 217.4 165 165 165
221.7 -540.5 217.4 165 165 165
209.9 -500.2 201.2 162 162 162
216.9 -505.6 203.4 162 162 162
216.9 -495.0 199.1 163 163 163
223.9 -500.2 201.2 163 163 163
228.6 -500.2 201.2 163 163 163
228.4 -489.8 197.0 163 163 163
248.5 -522.5 210.2 163 163 163
240.1 -495.0 199.1 163 163 163
255.5 -516.7 207.9 163 163 163
257.5 -511.1 205.6 163 163 163
274.2 -534.3 215.0 163 163 163
258.6 -495.0 199.1 163 163 163
260.5 -489.8 197.0 163 163 163
285.9 -528.3 212.5 163 163 163
281.4 -511.1 205.6 163 163 163
289.3 -516.7 207.9 161 161 161
316.3 -546.8 220.0 161 161 161
317.7 -540.5 217.4 161 161 161
105.8 -169.1 68.0 157 160 159
108.9 -171.6 69.0 158 161 160
111.7 -171.0 68.8 158 161 160
88.4 -191.7 77.8 163 163 163
95.6 -199.1 80.8 163 163 163
95.0 -194.1 78.8 160 160 160
97.3 -194.9 79.1 163 163 163
97.5 -191.7 77.8 163 163 163
100.1 -193.3 78.5 163 163 163
106.0 -194.1 78.8 163 163 163
134.0 -206.1 83.7 162 162 162
125.9 -190.9 77.5 163 163 163
56.7 -37.8 15.4 197 200 199
57.2 -37.9 15.4 201 203 203
57.4 -37.8 15.3 166 169 168
57.6 -37.7 15.3 163 163 163
58.1 -37.8 15.4 212 213 212
59.5 -38.2 15.5 196 196 196
95.1 -217.7 89.2 162 162 162
92.0 -206.0 84.4 163 163 163
93.6 -205.1 84.1 163 163 163
93.8 -201.5 82.6 163 163 163
105.4 -221.8 90.9 163 163 163
99.4 -205.1 84.1 163 163 163
101.8 -206.0 84.4 163 163 163
103.8 -206.0 84.4 163 163 163
103.9 -202.4 83.0 163 163 163
108.2 -206.9 84.8 163 163 163
114.3 -214.6 88.0 163 163 163
113.7 -209.7 86.0 163 163 163
110.2 -199.8 81.9 163 163 163
128.4 -225.1 92.3 167 167 167
54.7 -85.8 35.2 164 164 164
55.0 -85.0 34.8 165 165 165
133.4 -203.3 83.3 165 165 165
60.4 -84.7 34.7 160 163 162
63.3 -84.2 34.5 159 162 161
66.2 -84.8 34.8 160 163 162
66.6 -84.4 34.6 161 164 163
56.5 -37.5 15.4 197 200 199
56.6 -37.4 15.3 196 196 196
57.0 -37.4 15.3 206 206 206
57.0 -37.2 15.3 209 209 209
58.2 -37.5 15.4 197 200 199
58.2 -37.3 15.3 197 200 199
59.1 -37.6 15.4 218 218 218
74.5 -141.1 58.4 169 169 169
89.6 -158.1 65.5 166 166 166
53.8 -83.6 34.6 167 167 167
53.5 -81.9 33.9 168 168 168
125.4 -186.5 77.2 168 168 168
59.2 -82.2 34.0 168 168 168
58.4 -80.0 33.1 165 165 165
59.3 -80.2 33.2 161 164 163
60.4 -80.6 33.4 162 165 164
61.7 -81.3 33.7 162 165 164
62.2 -80.9 33.5 160 163 162
65.7 -83.4 34.5 160 163 162
65.3 -81.9 33.9 161 164 163
64.2 -44.5 18.4 96 96 96
62.3 -42.9 17.8 93 93 93
57.0 -37.1 15.3 191 191 191
56.8 -36.7 15.2 179 179 179
58.6 -37.4 15.5 180 183 182
57.9 -36.7 15.2 216 216 216
59.5 -37.5 15.5 216 216 216
52.9 -101.0 42.2 169 169 169
59.9 -112.3 46.9 169 169 169
54.8 -101.0 42.2 169 169 169
70.4 -119.1 49.8 170 171 170
52.9 -81.4 34.0 170 171 170
52.3 -79.3 33.1 172 172 172
52.5 -78.4 32.8 172 172 172
125.4 -184.7 77.2 172 172 172
57.1 -77.5 32.4 168 168 168
57.5 -77.0 32.2 168 168 168
59.8 -79.0 33.0 169 169 169
59.9 -78.2 32.7 166 166 166
61.2 -78.9 33.0 167 167 167
65.0 -80.7 33.7 163 166 165
62.4 -76.6 32.0 164 167 166
61.1 -41.7 17.4 93 93 93
60.5 -41.0 17.1 93 93 93
55.6 -35.4 14.8 207 207 207
56.2 -35.3 14.7 218 218 218
56.1 -35.0 14.6 218 218 218
28.2 -80.2 33.8 168 168 168
28.7 -79.5 33.5 168 168 168
29.6 -79.8 33.7 168 168 168
30.5 -79.9 33.7 168 168 168
31.2 -79.8 33.7 168 168 168
32.0 -79.9 33.7 168 168 168
32.8 -79.9 33.7 170 172 172
33.7 -80.0 33.8 168 168 168
34.5 -80.2 33.8 170 172 172
35.2 -79.9 33.7 170 172 172
36.0 -79.9 33.7 171 173 173
36.7 -79.8 33.7 171 173 173
37.3 -79.5 33.5 171 173 173
38.1 -79.5 33.5 171 173 173
39.1 -79.9 33.7 171 173 173
39.9 -79.9 33.7 171 173 173
40.7 -80.0 33.8 171 173 173
41.5 -80.0 33.8 171 173 173
42.1 -79.8 33.7 171 173 173
43.1 -80.0 33.8 173 175 175
44.1 -80.5 34.0 171 173 173
44.7 -80.0 33.8 171 173 173
45.3 -79.8 33.7 173 175 175
46.1 -79.8 33.7 171 173 173
47.4 -80.8 34.1 174 176 176
48.1 -80.5 34.0 172 174 174
48.8 -80.3 33.9 172 174 174
52.8 -80.5 34.0 172 174 174
53.0 -79.6 33.6 173 175 175
52.7 -78.0 32.9 173 175 175
58.2 -75.2 31.7 175 175 175
60.3 -40.7 17.2 93 93 93
59.5 -39.9 16.8 93 93 93
28.0 -78.8 33.6 170 172 172
28.4 -77.7 33.1 170 172 172
29.2 -77.9 33.2 170 172 172
30.1 -78.3 33.4 170 172 172
30.9 -78.1 33.3 170 172 172
31.8 -78.4 33.4 172 174 174
32.5 -78.4 33.4 172 174 174
34.3 -78.8 33.6 170 172 172
34.9 -78.4 33.4 172 174 174
35.6 -78.4 33.4 173 175 175
36.3 -78.1 33.3 173 175 175
36.8 -77.6 33.1 178 178 178
37.6 -77.7 33.1 178 178 178
38.7 -78.3 33.4 171 173 173
39.5 -78.4 33.4 173 175 175
40.4 -78.6 33.5 173 175 175
41.1 -78.6 33.5 178 178 178
41.6 -78.0 33.2 173 175 175
42.5 -78.1 33.3 178 178 178
43.6 -78.8 33.6 173 175 175
44.3 -78.7 33.5 178 178 178
44.9 -78.3 33.4 181 181 181
45.3 -77.6 33.1 178 178 178
46.9 -79.1 33.7 181 181 181
47.8 -79.3 33.8 174 176 176
48.4 -79.0 33.7 174 176 176
48.9 -78.6 33.5 179 179 179
52.5 -79.3 33.8 174 176 176
52.7 -78.4 33.4 175 177 177
52.6 -77.1 32.8 175 177 177
53.4 -77.2 32.9 175 177 177
59.3 -76.9 32.8 176 179 178
57.9 -74.1 31.6 176 179 178
54.7 -69.1 29.5 176 176 176
58.9 -39.2 16.7 93 93 93
58.7 -38.7 16.5 96 96 96
43.1 -26.9 11.5 212 213 212
46.9 -28.9 12.3 218 218 218
-5.3 -25.0 10.7 136 136 136
27.4 -74.2 32.0 172 174 174
28.0 -74.0 31.8 177 177 177
33.3 -74.2 32.0 191 191 191
34.1 -74.2 32.0 189 189 189
34.9 -74.5 32.1 189 189 189
35.6 -74.2 32.0 189 189 189
36.2 -74.0 31.8 193 193 193
37.0 -74.1 31.9 197 197 197
38.4 -75.4 32.4 197 197 197
38.6 -74.4 32.0 197 197 197
39.3 -74.4 32.0 197 197 197
40.0 -74.2 32.0 197 197 197
40.7 -74.1 31.9 200 200 200
41.8 -74.7 32.2 200 200 200
42.5 -74.6 32.1 197 197 197
43.1 -74.4 32.0 200 200 200
43.5 -73.9 31.8 197 197 197
44.9 -75.0 32.3 197 197 197
46.1 -75.6 32.6 200 200 200
46.4 -75.0 32.3 200 200 200
47.0 -74.7 32.2 197 197 197
47.4 -74.2 32.0 200 200 200
51.4 -76.8 33.1 197 197 197
50.4 -74.2 32.0 198 198 198
51.3 -74.5 32.1 198 198 198
52.2 -74.7 32.2 198 198 198
177.1 -249.7 107.5 199 199 199
164.6 -228.9 98.5 203 203 203
59.7 -76.6 33.0 205 205 205
58.9 -74.6 32.1 202 202 202
41.9 -26.3 11.3 189 189 189
42.1 -26.3 11.3 197 200 199
42.5 -26.4 11.4 207 207 207
42.5 -26.2 11.3 197 200 199
42.8 -26.2 11.3 207 207 207
43.2 -26.3 11.3 218 218 218
43.6 -26.4 11.4 218 218 218
15.8 -71.4 31.1 172 174 174
16.5 -71.3 31.0 180 180 180
17.2 -71.3 31.0 182 182 182
18.0 -71.6 31.1 185 185 185
18.7 -71.6 31.1 189 189 189
19.4 -71.3 31.0 194 194 194
22.3 -71.4 31.1 196 196 196
23.0 -71.3 31.0 198 198 198
23.7 -71.3 31.0 198 198 198
24.4 -71.3 31.0 198 198 198
25.1 -71.1 30.9 202 202 202
25.9 -71.4 31.1 202 202 202
26.7 -71.6 31.1 202 202 202
27.2 -71.1 30.9 202 202 202
28.0 -71.2 31.0 204 204 204
28.7 -71.3 31.0 204 204 204
29.5 -71.3 31.0 202 202 202
30.2 -71.4 31.1 204 204 204
31.0 -71.4 31.1 204 204 204
31.7 -71.6 31.1 204 204 204
32.5 -71.6 31.1 202 202 202
33.0 -71.1 30.9 200 200 200
33.9 -71.6 31.1 200 200 200
34.6 -71.4 31.1 200 200 200
35.2 -71.2 31.0 204 204 204
35.9 -71.2 31.0 204 204 204
36.7 -71.3 31.0 200 200 200
37.5 -71.6 31.1 204 204 204
38.2 -71.4 31.1 204 204 204
39.0 -71.6 31.1 204 204 204
39.6 -71.3 31.0 204 204 204
40.4 -71.6 31.1 204 204 204
41.2 -71.7 31.2 204 204 204
41.9 -71.6 31.1 204 204 204
42.4 -71.2 31.0 204 204 204
43.2 -71.4 31.1 204 204 204
44.4 -72.1 31.4 204 204 204
45.0 -71.9 31.3 204 204 204
45.5 -71.7 31.2 204 204 204
46.1 -71.4 31.1 204 204 204
46.8 -71.4 31.1 204 204 204
50.8 -75.1 32.7 204 204 204
49.3 -71.9 31.3 205 205 205
50.1 -72.0 31.3 205 205 205
51.7 -73.2 31.8 205 205 205
52.7 -73.6 32.0 205 205 205
165.5 -227.8 99.0 206 206 206
40.5 -24.6 10.7 174 174 174
15.9 -71.1 31.2 203 203 203
16.5 -70.8 31.1 205 205 205
17.3 -70.9 31.2 202 202 202
18.0 -71.1 31.2 202 202 202
18.8 -71.1 31.2 204 204 204
19.4 -70.8 31.1 204 204 204
22.4 -70.9 31.2 204 204 204
23.0 -70.8 31.1 204 204 204
23.8 -70.8 31.1 204 204 204
24.5 -70.9 31.2 204 204 204
25.2 -70.7 31.1 204 204 204
26.0 -71.1 31.2 204 204 204
26.8 -71.1 31.2 204 204 204
27.3 -70.7 31.1 204 204 204
28.1 -70.8 31.1 204 204 204
28.8 -70.8 31.1 204 204 204
29.6 -70.8 31.1 204 204 204
30.3 -70.9 31.2 204 204 204
31.0 -70.8 31.1 204 204 204
31.8 -71.1 31.2 207 207 207
32.6 -71.2 31.3 204 204 204
33.2 -70.8 31.1 204 204 204
34.7 -71.1 31.2 204 204 204
35.3 -70.8 31.1 204 204 204
36.1 -70.8 31.1 204 204 204
36.8 -70.9 31.2 204 204 204
37.6 -71.1 31.2 204 204 204
38.4 -71.1 31.2 204 204 204
39.1 -71.1 31.2 204 204 204
39.7 -70.8 31.1 204 204 204
40.6 -71.2 31.3 204 204 204
41.3 -71.2 31.3 204 204 204
41.9 -70.8 31.1 204 204 204
42.4 -70.6 31.0 204 204 204
43.4 -70.9 31.2 204 204 204
44.8 -72.1 31.7 204 204 204
45.1 -71.4 31.4 204 204 204
45.8 -71.3 31.3 204 204 204
46.3 -70.9 31.2 204 204 204
47.1 -71.1 31.2 204 204 204
50.9 -74.5 32.7 204 204 204
49.7 -71.7 31.5 205 205 205
50.3 -71.5 31.4 205 205 205
51.8 -72.6 31.9 205 205 205
52.6 -72.7 32.0 205 205 205
156.4 -213.2 93.6 206 206 206
27.7 -36.7 16.1 204 204 204
38.5 -73.4 32.6 207 207 207
39.2 -73.2 32.5 204 204 204
39.7 -72.7 32.3 204 204 204
40.1 -72.1 32.0 207 207 207
40.5 -71.6 31.8 207 207 207
42.1 -73.1 32.4 207 207 207
42.5 -72.5 32.2 207 207 207
42.9 -71.9 31.9 207 207 207
43.5 -71.6 31.8 207 207 207
45.2 -73.1 32.4 207 207 207
46.0 -73.2 32.5 207 207 207
46.1 -72.2 32.1 207 207 207
46.9 -72.2 32.1 207 207 207
47.4 -71.9 31.9 207 207 207
48.2 -72.0 32.0 207 207 207
51.9 -75.2 33.4 204 204 204
51.0 -72.9 32.3 207 207 207
51.4 -72.4 32.1 205 205 205
52.3 -72.6 32.2 205 205 205
53.5 -73.2 32.5 205 205 205
53.9 -72.7 32.3 206 206 206
27.9 -36.7 16.3 206 206 206
27.9 -36.2 16.1 207 207 207
27.3 -34.8 15.5 207 207 207
38.8 -73.1 32.8 207 207 207
39.7 -73.4 32.9 207 207 207
40.4 -73.2 32.8 207 207 207
41.1 -73.2 32.8 207 207 207
42.6 -73.2 32.8 207 207 207
43.1 -72.7 32.6 207 207 207
45.7 -73.2 32.8 207 207 207
46.4 -73.1 32.8 207 207 207
46.7 -72.5 32.5 207 207 207
47.4 -72.4 32.4 207 207 207
47.4 -71.3 32.0 207 207 207
48.9 -72.4 32.4 207 207 207
51.9 -74.5 33.4 207 207 207
51.8 -73.2 32.8 207 207 207
51.9 -72.4 32.4 207 207 207
52.9 -72.6 32.6 208 208 208
54.0 -73.1 32.8 208 208 208
54.5 -72.7 32.6 208 208 208
28.1 -36.0 16.1 206 206 206
27.5 -34.8 15.6 207 207 207
27.1 -33.9 15.2 207 207 207
0.7 -23.7 10.7 172 172 172
39.7 -68.8 31.2 206 206 206
42.7 -72.6 32.9 206 206 206
42.9 -71.6 32.4 206 206 206
46.3 -73.4 33.2 208 208 208
46.5 -72.5 32.8 208 208 208
45.2 -69.3 31.4 206 206 206
46.2 -69.7 31.6 206 206 206
46.5 -69.1 31.3 206 206 206
47.4 -69.3 31.4 206 206 206
48.8 -70.3 31.8 206 206 206
52.2 -74.1 33.6 206 206 206
52.2 -73.0 33.1 206 206 206
51.6 -71.1 32.2 207 207 207
52.7 -71.6 32.4 207 207 207
54.1 -72.5 32.8 207 207 207
54.4 -71.9 32.6 207 207 207
27.4 -34.2 15.5 206 206 206
27.1 -33.5 15.2 206 206 206
-19.1 -22.1 10.1 108 110 110
-12.1 -21.8 10.0 139 141 140
35.1 -66.2 30.3 208 208 208
35.8 -66.2 30.3 208 208 208
36.8 -66.6 30.5 208 208 208
37.4 -66.5 30.5 208 208 208
38.1 -66.5 30.5 208 208 208
38.7 -66.2 30.3 208 208 208
39.4 -66.3 30.4 208 208 208
40.8 -67.4 30.9 208 208 208
40.8 -66.2 30.3 208 208 208
41.4 -66.0 30.2 208 208 208
42.3 -66.3 30.4 208 208 208
43.8 -67.6 31.0 208 208 208
44.2 -67.2 30.8 211 211 211
44.6 -66.6 30.5 208 208 208
45.2 -66.4 30.4 208 208 208
45.8 -66.3 30.4 208 208 208
46.4 -66.2 30.3 208 208 208
52.1 -73.2 33.5 206 206 206
50.2 -68.5 31.4 208 208 208
51.5 -69.2 31.7 206 206 206
53.5 -71.0 32.5 207 207 207
52.5 -68.6 31.4 207 207 207
28.2 -35.3 16.2 208 208 208
27.4 -33.9 15.5 210 210 210
27.1 -33.1 15.2 208 208 208
-28.8 -22.1 10.2 46 45 43
-28.6 -22.1 10.2 46 45 43
-28.3 -22.1 10.2 46 45 43
-28.1 -22.1 10.2 47 47 47
-27.8 -22.1 10.2 46 45 43
-27.6 -22.1 10.2 46 45 43
-27.4 -22.1 10.2 46 45 43
-27.1 -22.1 10.2 47 47 47
-26.9 -22.1 10.2 47 47 47
-26.7 -22.1 10.2 46 45 43
-26.4 -22.1 10.2 46 45 43
-26.2 -22.1 10.2 45 44 43
-25.9 -22.1 10.2 45 44 43
-25.7 -22.1 10.2 45 44 43
-25.5 -22.1 10.2 42 42 42
-25.2 -22.1 10.2 42 42 42
-25.1 -22.2 10.3 42 42 42
-24.9 -22.2 10.3 42 42 42
-24.6 -22.2 10.3 42 42 42
-24.3 -22.1 10.2 39 39 39
-24.2 -22.2 10.3 39 39 39
-23.9 -22.2 10.3 39 39 39
-23.7 -22.2 10.3 39 39 39
-23.3 -22.1 10.2 39 39 39
-23.1 -22.1 10.2 39 39 39
-22.9 -22.1 10.2 39 39 39
-22.6 -22.1 10.2 42 42 42
-22.5 -22.2 10.3 42 42 42
-22.2 -22.1 10.2 45 44 43
-21.9 -22.1 10.2 45 44 43
-21.8 -22.2 10.3 52 53 51
-21.4 -22.1 10.2 54 54 54
-21.2 -22.1 10.2 77 77 77
-20.9 -22.1 10.2 89 89 89
-20.8 -22.1 10.2 90 90 90
-20.5 -22.1 10.2 94 94 94
-20.2 -22.1 10.2 96 99 98
-20.0 -22.1 10.2 102 102 102
-19.8 -22.2 10.3 105 105 105
-19.6 -22.2 10.3 104 104 104
-19.3 -22.1 10.2 107 107 107
-19.0 -22.1 10.2 107 109 109
-18.8 -22.1 10.2 107 109 109
-18.3 -22.1 10.2 106 108 108
-18.1 -22.1 10.2 106 108 108
-17.8 -22.1 10.2 112 112 112
-17.6 -22.0 10.2 112 112 112
-17.3 -22.4 10.3 112 112 112
-16.9 -22.1 10.2 113 114 113
-16.7 -22.1 10.2 117 117 117
-16.5 -22.2 10.3 117 117 117
-16.2 -22.1 10.2 118 120 119
-16.0 -22.1 10.2 118 120 119
-15.7 -22.1 10.2 117 119 118
-15.5 -22.1 10.2 119 121 120
-15.3 -22.2 10.3 119 121 120
-15.1 -22.3 10.3 125 125 125
-14.7 -22.0 10.2 124 124 124
-14.4 -21.9 10.2 124 124 124
-12.7 -22.2 10.3 133 132 131
-12.3 -22.0 10.2 133 133 133
-9.1 -22.2 10.3 138 140 139
-8.9 -22.2 10.3 140 139 138
-8.1 -22.2 10.3 140 142 141
-7.9 -22.1 10.2 138 140 139
-7.6 -22.1 10.2 136 138 137
-7.4 -22.1 10.2 136 138 137
-7.2 -22.1 10.2 137 137 137
-7.0 -22.2 10.3 141 141 141
-6.7 -22.1 10.2 141 143 142
-6.4 -22.1 10.2 146 146 146
-6.2 -22.0 10.2 145 145 144
-6.0 -22.0 10.2 146 146 146
-5.7 -22.1 10.2 155 155 155
-5.3 -22.2 10.3 156 159 158
-5.1 -22.2 10.3 163 163 163
-4.8 -22.1 10.2 163 163 163
-4.5 -22.1 10.2 162 162 162
-4.3 -22.1 10.2 162 165 164
-3.9 -22.2 10.3 159 162 161
-3.6 -22.2 10.3 158 161 160
-3.4 -22.1 10.2 158 161 160
-3.1 -22.2 10.3 163 163 163
-2.9 -22.2 10.3 165 165 165
-2.7 -22.2 10.3 168 168 168
-2.4 -22.2 10.3 168 168 168
-2.2 -22.2 10.3 168 168 168
-1.9 -22.2 10.3 172 172 172
-1.7 -22.1 10.2 172 174 174
-1.5 -22.1 10.2 172 174 174
-1.2 -22.2 10.3 171 173 173
-1.0 -22.1 10.2 171 173 173
-0.7 -22.2 10.3 171 173 173
-0.5 -22.2 10.3 171 173 173
-0.3 -22.2 10.3 171 173 173
0.2 -22.1 10.2 178 178 178
0.4 -22.2 10.3 177 177 177
0.7 -22.2 10.3 180 180 180
0.9 -22.1 10.2 177 177 177
1.2 -22.1 10.2 177 177 177
1.4 -22.1 10.2 180 180 180
1.6 -22.1 10.2 180 180 180
1.9 -22.1 10.2 182 182 182
2.4 -22.2 10.3 179 179 179
2.6 -22.0 10.2 182 182 182
5.5 -22.3 10.3 208 208 208
5.7 -22.2 10.3 208 208 208
5.9 -22.1 10.2 208 208 208
6.2 -22.1 10.2 208 208 208
6.4 -22.1 10.2 208 208 208
6.6 -22.1 10.2 208 208 208
6.9 -22.2 10.3 208 208 208
7.1 -22.2 10.3 208 208 208
7.4 -22.2 10.3 208 208 208
7.6 -22.2 10.3 208 208 208
7.8 -22.1 10.2 208 208 208
9.5 -22.2 10.3 208 208 208
9.8 -22.2 10.3 208 208 208
10.0 -22.2 10.3 208 208 208
33.3 -63.4 29.3 207 207 207
35.2 -64.4 29.8 207 207 207
40.1 -65.5 30.3 207 207 207
39.9 -64.2 29.7 207 207 207
40.3 -63.7 29.5 207 207 207
43.3 -66.1 30.6 207 207 207
43.8 -65.8 30.5 207 207 207
44.2 -65.4 30.3 207 207 207
44.3 -64.5 29.8 207 207 207
44.7 -64.1 29.6 207 207 207
45.4 -64.1 29.6 207 207 207
50.2 -67.8 31.4 208 208 208
51.2 -68.1 31.5 208 208 208
52.2 -67.5 31.3 206 206 206
27.4 -33.6 15.6 207 207 207
27.1 -32.8 15.2 207 207 207
27.3 -32.6 15.1 205 205 205
-30.2 -22.9 10.7 46 45 43
-30.1 -23.0 10.8 46 45 43
-29.9 -23.0 10.8 47 48 47
-29.6 -23.1 10.8 47 48 47
-29.4 -23.1 10.8 46 45 43
-29.1 -23.0 10.8 47 48 47
-28.9 -23.0 10.8 47 48 47
-28.6 -23.0 10.8 47 48 47
-28.4 -23.0 10.8 47 48 47
-28.1 -23.0 10.8 47 48 47
-27.9 -23.0 10.8 46 45 43
-27.6 -23.0 10.8 46 45 43
-27.4 -23.0 10.8 46 45 43
-26.8 -23.0 10.8 42 43 42
-24.8 -23.0 10.8 40 40 40
-23.3 -23.0 10.8 40 40 40
-23.1 -23.0 10.8 40 40 40
-22.8 -23.0 10.8 42 43 42
-22.6 -23.0 10.8 46 45 43
-22.4 -23.1 10.8 49 49 49
-22.1 -23.0 10.8 51 51 51
-21.8 -23.0 10.8 63 63 63
-21.2 -23.2 10.9 93 93 93
-20.7 -22.9 10.7 91 91 91
-20.3 -23.0 10.8 106 106 106
-19.3 -23.0 10.8 107 107 107
-18.4 -23.1 10.8 107 109 109
-17.1 -23.0 10.8 116 116 116
-16.8 -22.9 10.7 116 116 116
-9.4 -22.7 10.6 138 140 139
-9.1 -23.1 10.8 140 140 140
-8.8 -22.9 10.7 140 142 141
-8.5 -22.9 10.7 140 142 141
-7.5 -23.0 10.8 143 143 142
-7.3 -23.0 10.8 143 145 144
-5.3 -23.0 10.8 165 168 167
-2.5 -23.0 10.8 171 173 173
-0.3 -23.1 10.8 180 180 180
0.7 -22.9 10.7 179 179 179
1.0 -23.0 10.7 182 182 182
1.2 -22.9 10.7 182 182 182
10.0 -23.0 10.8 207 207 207
10.2 -23.0 10.8 207 207 207
10.7 -23.0 10.8 207 207 207
39.7 -63.1 29.5 207 207 207
39.6 -61.9 29.0 207 207 207
43.7 -66.1 30.9 207 207 207
43.9 -65.3 30.6 207 207 207
44.4 -64.9 30.4 207 207 207
44.2 -63.6 29.7 207 207 207
44.5 -63.1 29.5 206 206 206
45.0 -62.8 29.4 206 206 206
51.4 -69.6 32.6 207 207 207
50.6 -67.6 31.6 207 207 207
51.5 -67.7 31.7 207 207 207
28.1 -34.5 16.2 206 206 206
27.5 -33.3 15.6 206 206 206
27.2 -32.5 15.2 207 207 207
27.3 -32.3 15.1 207 207 207
-31.8 -23.9 11.3 48 48 48
-31.3 -23.9 11.3 48 48 48
-23.7 -23.9 11.3 43 43 43
-23.4 -23.9 11.3 43 43 43
-23.1 -23.8 11.3 43 43 43
-22.9 -23.9 11.3 47 48 47
-22.4 -24.0 11.3 50 50 50
-21.6 -23.9 11.3 94 94 94
-21.3 -23.9 11.3 94 94 94
-20.3 -23.9 11.3 102 102 102
-19.7 -23.9 11.3 106 106 106
-19.5 -23.9 11.3 106 106 106
-19.2 -23.9 11.3 106 106 106
-18.9 -23.8 11.3 106 106 106
-18.7 -23.9 11.3 108 108 108
-18.4 -23.9 11.3 108 108 108
-17.9 -23.9 11.3 108 110 110
-17.7 -24.0 11.3 110 112 111
-17.3 -23.8 11.3 110 112 111
-10.0 -23.8 11.3 136 136 136
-9.8 -23.9 11.3 134 137 136
30.2 -55.1 26.1 206 206 206
30.6 -54.7 25.9 206 206 206
32.9 -56.6 26.8 206 206 206
33.5 -55.5 26.2 206 206 206
34.0 -55.3 26.2 206 206 206
34.1 -54.5 25.8 206 206 206
44.2 -65.0 30.8 206 206 206
44.7 -64.7 30.6 206 206 206
44.6 -62.6 29.6 206 206 206
45.1 -62.3 29.5 206 206 206
51.5 -69.1 32.7 206 206 206
50.8 -67.1 31.7 207 207 207
27.5 -32.9 15.6 206 206 206
27.3 -32.2 15.3 206 206 206
27.3 -31.9 15.1 206 206 206
-24.3 -24.2 11.6 40 40 40
-23.9 -24.1 11.5 40 40 40
-26.2 -29.0 13.9 80 80 80
-20.2 -24.2 11.6 99 101 101
-19.8 -24.1 11.5 98 100 100
-10.1 -23.9 11.4 128 128 128
-9.9 -23.9 11.4 126 129 128
-9.6 -23.9 11.4 132 132 132
4.0 -24.0 11.5 182 182 182
8.3 -24.3 11.6 210 210 210
8.6 -24.2 11.6 210 210 210
9.1 -24.3 11.6 209 209 209
9.9 -24.2 11.6 209 209 209
10.2 -24.2 11.6 209 209 209
32.4 -55.1 26.3 206 206 206
32.8 -54.7 26.2 206 206 206
33.4 -54.7 26.2 206 206 206
34.0 -54.8 26.2 206 206 206
34.2 -54.1 25.9 206 206 206
44.3 -64.4 30.8 209 209 209
44.8 -62.1 29.7 205 205 205
43.1 -58.0 27.7 206 206 206
41.9 -54.8 26.2 206 206 206
42.5 -54.7 26.2 206 206 206
27.7 -32.8 15.7 205 205 205
-29.2 -28.8 13.9 41 41 41
-27.5 -29.4 14.2 44 44 44
-27.2 -29.4 14.2 46 46 46
-26.7 -29.3 14.2 50 50 50
-25.9 -28.8 13.9 52 52 52
-10.8 -24.0 11.6 116 116 116
-10.6 -24.0 11.6 105 107 107
-10.2 -23.8 11.5 102 104 104
-9.9 -23.7 11.5 110 110 110
-9.7 -23.8 11.5 109 109 109
-6.5 -24.0 11.6 185 185 185
-6.2 -23.9 11.6 190 190 190
-6.0 -23.9 11.6 193 193 193
-5.7 -24.0 11.6 192 192 192
-5.4 -24.0 11.6 191 191 191
-5.2 -24.0 11.6 193 193 193
-4.9 -23.9 11.6 193 193 193
-4.6 -23.9 11.6 192 192 192
-4.3 -24.0 11.6 191 191 191
-4.1 -24.0 11.6 190 190 190
-3.8 -24.0 11.6 192 192 192
-3.5 -24.0 11.6 192 192 192
-3.3 -24.0 11.6 192 192 192
-3.0 -23.9 11.6 189 189 189
-2.7 -23.9 11.6 189 189 189
-2.5 -23.9 11.6 189 189 189
2.9 -24.0 11.6 184 184 184
3.2 -24.0 11.6 184 184 184
3.5 -24.0 11.6 184 184 184
3.8 -24.1 11.6 181 181 181
4.0 -23.9 11.5 181 181 181
4.2 -23.8 11.5 181 181 181
5.1 -23.9 11.6 169 171 170
5.3 -23.9 11.6 204 204 204
5.6 -23.9 11.6 206 206 206
5.9 -23.9 11.6 209 209 209
6.2 -23.9 11.6 209 209 209
6.4 -23.9 11.6 209 209 209
6.7 -23.9 11.6 209 209 209
7.0 -24.0 11.6 209 209 209
7.2 -24.0 11.6 209 209 209
7.5 -24.0 11.6 209 209 209
7.8 -24.0 11.6 209 209 209
8.1 -24.0 11.6 209 209 209
8.3 -24.0 11.6 209 209 209
8.6 -24.0 11.6 209 209 209
8.9 -24.0 11.6 209 209 209
9.1 -24.0 11.6 209 209 209
9.4 -23.9 11.6 209 209 209
9.9 -24.0 11.6 209 209 209
10.2 -24.0 11.6 209 209 209
10.5 -24.0 11.6 209 209 209
10.7 -24.0 11.6 209 209 209
11.0 -24.0 11.6 209 209 209
11.2 -23.9 11.6 209 209 209
11.6 -24.0 11.6 206 206 206
11.8 -24.0 11.6 206 206 206
12.1 -23.9 11.6 206 206 206
33.7 -54.6 26.4 205 205 205
34.3 -54.5 26.4 205 205 205
34.5 -54.0 26.1 205 205 205
43.7 -60.8 29.4 205 205 205
44.4 -60.9 29.5 205 205 205
45.1 -60.9 29.5 205 205 205
44.9 -59.7 28.9 205 205 205
42.4 -55.6 26.9 205 205 205
42.4 -54.7 26.5 205 205 205
42.8 -54.5 26.3 206 206 206
43.3 -54.3 26.3 206 206 206
43.9 -54.3 26.3 206 206 206
100.4 -54.2 26.2 88 88 88
-30.8 -29.4 14.4 44 44 44
-30.3 -29.2 14.3 44 44 44
-29.8 -29.1 14.2 42 42 42
-27.9 -29.9 14.6 42 43 42
-26.9 -29.1 14.2 42 43 42
-10.0 -23.7 11.6 25 25 25
-9.8 -23.9 11.7 25 25 25
7.2 -24.6 12.0 209 209 209
7.5 -24.6 12.0 209 209 209
7.8 -24.6 12.0 209 209 209
8.1 -24.6 12.0 209 209 209
8.3 -24.6 12.0 209 209 209
8.6 -24.6 12.0 209 209 209
9.2 -24.7 12.1 208 208 208
10.1 -24.7 12.1 208 208 208
10.3 -24.6 12.1 208 208 208
10.6 -24.6 12.0 208 208 208
10.9 -24.6 12.0 208 208 208
11.2 -24.6 12.0 208 208 208
34.3 -54.9 26.9 208 208 208
34.8 -54.8 26.8 208 208 208
43.9 -60.4 29.6 204 204 204
44.6 -60.4 29.6 204 204 204
45.3 -60.5 29.6 204 204 204
43.3 -56.1 27.5 205 205 205
43.7 -55.8 27.3 205 205 205
43.6 -54.9 26.9 205 205 205
43.7 -54.2 26.5 205 205 205
44.2 -54.1 26.5 205 205 205
71.6 -83.0 40.6 206 206 206
98.8 -52.7 25.8 99 101 101
-31.3 -29.5 14.6 45 45 45
-25.8 -24.6 12.2 45 45 45
-25.3 -24.4 12.1 47 48 47
-28.5 -30.1 14.9 39 39 39
-27.9 -29.9 14.8 42 42 42
8.4 -24.4 12.1 208 208 208
11.6 -29.9 14.8 208 208 208
10.4 -24.6 12.2 208 208 208
10.6 -24.2 12.0 208 208 208
44.6 -55.5 27.5 205 205 205
44.4 -54.5 26.9 205 205 205
44.8 -54.1 26.8 205 205 205
72.2 -82.7 40.9 206 206 206
74.4 -84.2 41.7 206 206 206
133.4 -70.8 35.0 109 109 109
132.3 -69.8 34.5 107 107 107
-33.6 -32.8 16.4 43 43 43
-13.8 -32.9 16.5 34 34 34
-13.6 -33.4 16.7 39 39 39
9.9 -22.4 11.2 207 207 207
44.4 -58.9 29.5 206 206 206
45.0 -58.8 29.4 206 206 206
44.3 -57.0 28.5 206 206 206
50.8 -64.4 32.2 207 207 207
45.2 -55.6 27.8 204 204 204
44.8 -54.3 27.2 202 202 202
44.8 -53.5 26.8 204 204 204
64.0 -73.5 36.8 205 205 205
72.4 -82.0 41.0 205 205 205
75.1 -84.0 42.0 205 205 205
25.6 -22.2 11.1 192 192 192
132.2 -69.3 34.7 111 113 112
-33.9 -23.8 12.1 56 56 56
-33.7 -23.8 12.1 57 57 57
-33.4 -23.8 12.1 59 60 58
-33.1 -23.8 12.1 59 60 58
-32.8 -23.8 12.1 59 60 58
-32.6 -23.8 12.1 59 60 58
-32.3 -23.8 12.1 57 57 57
-32.0 -23.8 12.1 57 57 57
-31.7 -23.8 12.1 57 57 57
-31.4 -23.8 12.1 59 61 59
-31.2 -23.8 12.1 57 57 57
-30.9 -23.8 12.1 59 61 59
-30.6 -23.8 12.1 58 58 58
-30.3 -23.8 12.1 58 58 58
-30.0 -23.8 12.1 53 52 52
-29.8 -23.8 12.1 53 52 52
-29.5 -23.8 12.1 53 52 52
-29.2 -23.8 12.1 51 51 49
-28.9 -23.8 12.1 48 48 48
-28.6 -23.8 12.1 51 51 49
-28.4 -23.8 12.1 48 48 48
-28.1 -23.8 12.1 48 48 48
-27.8 -23.8 12.1 52 52 50
-27.5 -23.8 12.1 52 52 50
-27.2 -23.8 12.1 52 52 50
-27.0 -23.8 12.1 48 48 48
-26.7 -23.8 12.1 48 48 48
-26.4 -23.8 12.1 49 49 49
-26.1 -23.8 12.1 49 49 49
-25.8 -23.8 12.1 47 47 47
-25.6 -23.8 12.1 47 47 47
-25.3 -23.8 12.1 47 48 47
-25.0 -23.8 12.1 47 48 47
-24.7 -23.8 12.1 47 48 47
-24.4 -23.8 12.1 45 45 45
-32.0 -32.3 16.4 45 45 45
-23.3 -23.8 12.1 43 43 43
-23.0 -23.8 12.1 41 41 41
-22.8 -23.8 12.1 42 42 42
-22.5 -23.8 12.1 42 42 42
-22.2 -23.8 12.1 42 42 42
-21.9 -23.8 12.1 42 42 42
-21.7 -23.8 12.1 41 41 39
-21.4 -23.8 12.1 41 41 39
-21.1 -23.8 12.1 41 41 39
-20.8 -23.8 12.1 42 43 42
-20.5 -23.8 12.1 42 43 42
-20.2 -23.8 12.1 42 42 40
-19.9 -23.8 12.1 47 47 47
-19.7 -23.8 12.1 47 48 47
-19.3 -23.8 12.0 50 50 50
-19.1 -23.8 12.0 92 95 94
-18.8 -23.8 12.0 72 72 72
-18.3 -23.8 12.1 52 52 52
-18.0 -23.8 12.1 36 36 36
-17.7 -23.8 12.1 16 16 16
-11.2 -23.8 12.0 29 30 28
-10.9 -23.7 12.0 29 30 28
-10.7 -23.8 12.0 31 30 29
-10.4 -23.7 12.0 33 33 33
-10.1 -23.8 12.0 34 36 36
-9.8 -23.8 12.1 39 39 39
-9.0 -23.8 12.1 186 188 187
-8.7 -23.8 12.1 184 187 186
-8.4 -23.8 12.1 224 224 224
-6.8 -23.8 12.1 221 221 221
-6.2 -23.8 12.1 216 219 218
-5.9 -23.8 12.1 216 219 218
-5.6 -23.8 12.1 213 215 215
-5.4 -23.8 12.0 213 215 215
-4.5 -23.8 12.1 210 210 210
-4.2 -23.8 12.1 207 207 207
-4.0 -23.8 12.1 207 207 207
-3.7 -23.8 12.1 205 205 205
-3.4 -23.8 12.1 206 206 206
-3.1 -23.8 12.1 206 206 206
-2.8 -23.8 12.1 203 203 203
-2.5 -23.7 12.0 199 199 199
-1.7 -23.8 12.1 200 200 200
-1.4 -23.8 12.1 197 197 197
-1.2 -23.8 12.1 200 200 200
-0.9 -23.8 12.1 197 197 197
-0.6 -23.8 12.1 197 197 197
-0.3 -23.8 12.1 197 197 197
-0.0 -23.8 12.0 197 197 197
0.2 -23.8 12.0 197 197 197
0.5 -23.8 12.0 197 197 197
0.8 -23.8 12.0 195 195 195
5.6 -23.8 12.1 204 204 204
5.9 -23.8 12.1 207 207 207
6.1 -23.8 12.1 207 207 207
6.4 -23.8 12.1 207 207 207
6.7 -23.8 12.1 207 207 207
7.0 -23.8 12.0 207 207 207
7.2 -23.8 12.0 207 207 207
7.5 -23.8 12.1 207 207 207
7.8 -23.8 12.1 207 207 207
8.1 -23.8 12.1 207 207 207
8.4 -23.8 12.0 209 209 209
8.6 -23.7 12.0 207 207 207
8.9 -23.8 12.1 207 207 207
9.2 -23.8 12.1 207 207 207
9.5 -23.8 12.0 207 207 207
9.8 -23.8 12.1 207 207 207
10.1 -23.8 12.1 207 207 207
10.3 -23.8 12.1 207 207 207
10.6 -23.8 12.0 207 207 207
10.9 -23.8 12.0 207 207 207
11.2 -23.8 12.1 207 207 207
11.5 -23.8 12.1 207 207 207
11.7 -23.8 12.1 207 207 207
12.0 -23.8 12.1 207 207 207
12.3 -23.8 12.1 207 207 207
12.6 -23.8 12.0 207 207 207
13.5 -23.9 12.1 206 206 206
13.7 -23.8 12.1 206 206 206
14.0 -23.8 12.1 206 206 206
14.2 -23.8 12.0 206 206 206
14.9 -23.9 12.1 206 206 206
15.1 -23.8 12.1 206 206 206
15.4 -23.8 12.1 206 206 206
15.7 -23.8 12.1 206 206 206
16.0 -23.8 12.1 206 206 206
44.7 -58.5 29.6 206 206 206
45.1 -58.2 29.5 206 206 206
44.7 -56.8 28.7 206 206 206
51.5 -64.4 32.6 206 206 206
50.5 -62.2 31.5 206 206 206
45.6 -54.7 27.7 204 204 204
44.6 -52.8 26.7 207 207 207
71.6 -80.1 40.6 204 204 204
75.3 -83.2 42.1 205 205 205
25.6 -22.0 11.1 191 191 191
132.7 -68.8 34.8 111 113 112
-34.4 -23.8 12.2 57 57 57
-34.4 -24.0 12.3 57 57 57
-33.9 -23.9 12.2 57 57 57
-33.6 -23.8 12.2 59 61 59
-33.3 -23.8 12.2 59 61 59
-33.0 -23.8 12.2 59 61 59
-32.7 -23.8 12.2 59 61 59
-32.4 -23.8 12.2 58 58 58
-32.2 -23.9 12.2 58 58 58
-31.8 -23.8 12.2 58 58 58
-31.8 -24.0 12.3 58 58 58
-31.3 -23.8 12.2 60 62 60
-31.2 -24.0 12.3 58 59 59
-30.9 -24.0 12.3 58 59 59
-30.6 -24.0 12.3 56 56 56
-30.4 -24.0 12.3 53 53 53
-30.1 -24.0 12.3 53 53 53
-29.8 -24.0 12.3 53 53 53
-29.2 -24.0 12.3 49 49 49
-28.9 -24.0 12.3 49 49 49
-28.6 -24.0 12.3 49 49 49
-28.4 -24.0 12.3 53 52 51
-28.1 -24.0 12.3 49 49 49
-27.6 -23.9 12.2 49 49 49
-27.3 -23.9 12.2 49 49 49
-27.0 -23.9 12.2 50 50 50
-26.8 -23.9 12.2 50 50 50
-26.5 -23.8 12.2 50 50 50
-26.4 -24.0 12.3 50 50 50
-25.9 -23.8 12.2 50 50 50
-25.5 -23.8 12.2 50 50 50
-25.3 -23.9 12.2 50 50 50
-25.0 -23.9 12.2 50 50 50
-24.7 -23.8 12.2 48 48 48
-24.4 -23.8 12.2 48 48 48
-24.4 -24.1 12.3 49 49 49
-23.8 -24.0 12.3 47 47 47
-23.2 -24.0 12.3 42 43 42
-22.9 -24.0 12.3 45 45 45
-22.4 -24.1 12.3 42 42 40
-21.9 -23.9 12.2 42 42 40
-21.6 -23.9 12.2 40 40 40
-21.3 -23.8 12.2 40 40 40
-21.2 -24.0 12.3 40 40 40
-20.9 -24.0 12.3 40 40 40
-20.5 -23.9 12.3 39 41 41
-20.2 -23.8 12.2 41 41 41
-19.9 -23.8 12.2 39 41 41
-19.5 -23.6 12.1 39 41 41
-19.3 -23.7 12.2 36 36 36
-18.1 -23.7 12.1 20 20 20
-17.9 -23.8 12.2 20 20 20
-11.3 -23.7 12.2 29 31 29
-11.0 -23.6 12.1 32 31 30
-10.7 -23.6 12.1 32 32 32
-10.5 -23.7 12.1 33 33 33
-10.2 -23.6 12.1 36 37 36
-9.6 -24.2 12.4 186 186 186
-9.1 -23.8 12.2 186 188 187
-4.3 -24.0 12.3 209 212 211
-4.0 -23.9 12.2 209 212 211
-3.8 -24.0 12.3 208 208 208
-3.5 -24.0 12.3 208 208 208
-3.2 -24.0 12.3 208 208 208
-2.9 -23.8 12.2 206 206 206
-0.3 -23.8 12.2 199 199 199
5.6 -23.8 12.2 203 203 203
7.1 -23.8 12.2 207 207 207
7.3 -23.8 12.2 207 207 207
7.6 -23.8 12.2 207 207 207
7.9 -23.8 12.2 207 207 207
8.2 -23.8 12.2 209 209 209
8.4 -23.7 12.1 207 207 207
8.7 -23.6 12.1 207 207 207
9.1 -24.1 12.3 207 207 207
9.4 -24.0 12.3 209 209 209
9.6 -23.8 12.2 206 206 206
10.0 -24.1 12.3 206 206 206
10.2 -23.9 12.2 206 206 206
10.5 -23.9 12.2 206 206 206
10.7 -23.7 12.1 206 206 206
11.0 -23.7 12.1 206 206 206
11.3 -23.9 12.2 206 206 206
11.7 -24.0 12.3 206 206 206
12.5 -24.0 12.3 206 206 206
13.7 -24.0 12.3 206 206 206
14.0 -24.0 12.3 206 206 206
14.2 -23.9 12.3 206 206 206
14.4 -23.7 12.1 206 206 206
15.0 -23.8 12.2 206 206 206
15.2 -23.7 12.2 206 206 206
15.6 -23.9 12.2 206 206 206
45.3 -58.7 30.1 205 205 205
45.5 -58.0 29.7 205 205 205
50.9 -62.0 31.8 206 206 206
50.0 -60.1 30.8 206 206 206
44.1 -51.5 26.4 206 206 206
75.8 -82.8 42.4 204 204 204
79.8 -86.0 44.1 204 204 204
25.6 -21.7 11.1 190 190 190
-34.9 -23.9 12.4 59 61 59
-34.7 -24.0 12.4 60 62 60
-34.4 -24.0 12.4 60 62 60
-34.1 -24.0 12.4 60 62 60
-33.9 -24.0 12.4 60 62 60
-33.6 -24.0 12.4 60 62 60
-33.3 -24.0 12.4 60 62 60
-33.0 -24.0 12.4 58 59 59
-32.7 -24.0 12.4 58 59 59
-32.4 -24.0 12.4 60 62 60
-32.1 -24.0 12.4 60 62 60
-31.8 -24.0 12.4 60 62 60
-31.6 -24.0 12.4 58 59 59
-31.3 -24.0 12.4 59 59 59
-31.0 -24.0 12.4 57 57 57
-30.7 -24.0 12.4 57 57 57
-30.4 -24.0 12.4 54 54 54
-30.1 -24.0 12.4 54 54 54
-29.8 -24.0 12.4 53 52 51
-29.5 -24.0 12.4 50 50 50
-29.2 -24.0 12.4 50 50 50
-28.9 -24.0 12.4 50 50 50
-28.7 -24.0 12.4 50 50 50
-28.4 -24.0 12.4 50 50 50
-28.1 -24.0 12.4 54 53 52
-27.8 -24.0 12.4 54 53 52
-27.5 -24.0 12.4 51 51 51
-27.2 -24.0 12.4 51 51 51
-26.9 -24.0 12.4 51 51 51
-26.6 -24.0 12.4 51 51 51
-26.3 -24.0 12.4 51 51 51
-26.0 -23.9 12.4 49 49 49
-25.8 -24.0 12.4 51 51 51
-25.5 -24.0 12.4 52 52 52
-25.2 -23.9 12.4 52 52 52
-24.9 -24.0 12.4 50 50 50
-24.6 -24.0 12.5 50 50 50
-24.3 -24.0 12.4 47 48 47
-24.0 -24.0 12.4 47 48 47
-23.8 -24.0 12.4 46 46 46
-23.4 -24.0 12.4 43 43 43
-23.2 -24.0 12.5 42 42 40
-22.9 -24.0 12.4 42 42 40
-22.7 -24.1 12.5 43 42 41
-22.3 -24.0 12.4 43 42 41
-22.0 -24.0 12.4 41 41 41
-21.7 -24.0 12.4 41 41 41
-21.4 -24.0 12.4 41 41 41
-21.2 -24.0 12.4 39 41 41
-20.8 -24.0 12.4 40 42 42
-20.5 -23.9 12.4 40 42 42
-20.1 -23.8 12.4 40 42 42
-19.9 -23.8 12.4 40 40 40
-19.6 -23.8 12.4 30 29 29
-18.5 -23.9 12.4 19 19 19
-18.1 -23.8 12.3 19 19 19
-11.5 -23.8 12.3 29 31 29
-11.1 -23.6 12.2 29 31 29
-10.9 -23.8 12.3 32 31 30
-10.6 -23.8 12.3 32 32 32
-10.4 -23.9 12.4 34 34 34
-10.2 -24.2 12.6 43 43 43
-9.6 -24.0 12.4 186 188 187
-4.4 -24.0 12.4 212 214 214
-4.1 -24.0 12.4 210 213 212
-3.8 -24.0 12.4 210 213 212
-3.5 -24.0 12.4 210 213 212
-3.2 -23.9 12.4 210 213 212
-2.9 -23.8 12.3 210 213 212
-2.4 -24.2 12.6 208 211 210
-2.1 -24.0 12.4 205 205 205
-1.8 -24.0 12.4 205 205 205
-1.5 -24.0 12.4 204 204 204
-1.2 -24.0 12.4 204 204 204
-0.9 -24.0 12.4 200 200 200
-0.6 -24.0 12.4 200 200 200
-0.3 -23.9 12.4 200 200 200
-0.0 -23.9 12.4 200 200 200
0.3 -23.9 12.4 202 202 202
6.0 -24.0 12.4 206 206 206
6.3 -24.0 12.4 208 208 208
6.6 -24.0 12.4 208 208 208
6.9 -24.0 12.4 210 210 210
7.2 -24.0 12.4 210 210 210
7.5 -23.9 12.4 206 206 206
7.8 -23.9 12.4 206 206 206
8.0 -23.9 12.4 208 208 208
8.3 -23.9 12.4 208 208 208
8.6 -23.8 12.4 208 208 208
8.9 -23.8 12.4 206 206 206
9.2 -24.0 12.5 208 208 208
9.5 -23.9 12.4 208 208 208
9.8 -24.0 12.4 206 206 206
10.1 -24.1 12.5 206 206 206
10.4 -24.0 12.4 206 206 206
10.6 -23.9 12.4 206 206 206
10.9 -23.8 12.3 206 206 206
11.2 -23.9 12.4 206 206 206
11.5 -23.9 12.4 206 206 206
11.8 -23.9 12.4 206 206 206
12.1 -24.0 12.4 206 206 206
12.4 -24.0 12.4 206 206 206
12.7 -24.0 12.4 206 206 206
13.6 -24.0 12.5 205 205 205
13.8 -24.0 12.4 205 205 205
14.1 -24.0 12.4 205 205 205
14.4 -23.9 12.4 205 205 205
14.8 -24.1 12.5 205 205 205
15.2 -24.3 12.6 205 205 205
15.3 -24.0 12.4 205 205 205
15.5 -23.9 12.4 205 205 205
15.9 -24.0 12.4 205 205 205
16.2 -24.0 12.5 205 205 205
16.5 -24.0 12.4 205 205 205
16.7 -24.0 12.4 205 205 205
17.1 -24.0 12.5 205 205 205
17.4 -24.1 12.5 205 205 205
17.6 -24.0 12.5 205 205 205
46.1 -59.9 31.1 205 205 205
45.6 -58.4 30.3 205 205 205
46.0 -57.9 30.0 205 205 205
51.7 -64.1 33.2 205 205 205
52.3 -63.9 33.1 205 205 205
51.2 -61.6 32.0 205 205 205
50.8 -60.3 31.3 205 205 205
52.8 -61.0 31.6 206 206 206
58.2 -64.4 33.4 206 206 206
72.2 -78.9 40.9 206 206 206
75.6 -81.6 42.3 206 206 206
-34.8 -23.5 12.3 64 64 64
-34.5 -23.5 12.4 64 64 64
-34.2 -23.5 12.4 64 64 64
-33.9 -23.5 12.4 65 65 65
-33.7 -23.5 12.4 58 59 59
-33.4 -23.5 12.4 61 63 61
-33.0 -23.5 12.3 65 65 65
-32.8 -23.5 12.3 61 63 61
-32.5 -23.5 12.4 59 59 59
-32.2 -23.5 12.3 61 63 61
-31.9 -23.5 12.3 61 63 61
-31.6 -23.5 12.3 59 59 59
-31.4 -23.6 12.4 59 59 59
-31.1 -23.5 12.4 59 59 59
-30.8 -23.5 12.4 60 60 60
-29.6 -23.5 12.4 54 53 52
-29.3 -23.5 12.4 54 53 52
-29.1 -23.5 12.4 54 53 52
-28.7 -23.5 12.3 55 54 53
-28.4 -23.5 12.3 55 54 53
-28.2 -23.5 12.4 55 54 53
-27.9 -23.5 12.4 55 54 53
-27.6 -23.5 12.3 55 54 53
-27.3 -23.5 12.3 52 52 52
-27.0 -23.5 12.4 52 52 52
-26.7 -23.5 12.3 52 52 52
-26.5 -23.6 12.4 52 52 52
-26.2 -23.5 12.3 50 50 50
-25.8 -23.5 12.3 50 50 50
-25.6 -23.5 12.4 50 50 50
-25.3 -23.5 12.4 53 52 52
-25.0 -23.5 12.3 53 52 52
-24.7 -23.5 12.4 51 51 51
-24.5 -23.6 12.4 48 48 48
-24.2 -23.5 12.4 48 48 48
-23.3 -23.5 12.4 44 44 44
-22.2 -23.6 12.4 44 43 42
-21.9 -23.5 12.4 40 42 42
-21.6 -23.5 12.4 42 42 42
-21.3 -23.5 12.3 42 42 42
-21.1 -23.6 12.4 41 43 42
-20.7 -23.5 12.3 42 43 42
-20.4 -23.5 12.3 41 43 42
-20.1 -23.5 12.3 41 43 42
-19.8 -23.4 12.3 38 38 38
-18.1 -23.5 12.3 17 17 17
-12.1 -24.1 12.7 33 32 30
-11.5 -23.5 12.3 34 34 34
-11.1 -23.2 12.2 33 32 30
-10.9 -23.5 12.3 33 33 33
-10.6 -23.5 12.3 29 31 29
-10.3 -23.5 12.3 36 36 36
-10.2 -23.8 12.5 45 45 45
-10.0 -24.0 12.6 184 184 184
-9.6 -23.7 12.4 184 187 186
-9.2 -23.5 12.3 183 186 185
-4.3 -23.5 12.4 216 216 216
-4.1 -23.5 12.4 216 216 216
-3.8 -23.5 12.4 214 214 214
-3.5 -23.5 12.4 214 214 214
-3.2 -23.5 12.3 214 214 214
-2.9 -23.5 12.3 214 214 214
-1.2 -23.5 12.4 205 205 205
-0.9 -23.5 12.4 203 203 203
-0.6 -23.5 12.4 203 203 203
-0.3 -23.5 12.3 203 203 203
-0.0 -23.5 12.3 203 203 203
0.3 -23.5 12.3 203 203 203
0.5 -23.5 12.4 203 203 203
7.4 -23.5 12.3 208 208 208
7.7 -23.5 12.3 208 208 208
8.0 -23.5 12.3 208 208 208
8.3 -23.5 12.3 208 208 208
8.6 -23.5 12.3 208 208 208
8.8 -23.5 12.3 208 208 208
9.2 -23.6 12.4 208 208 208
9.4 -23.5 12.3 208 208 208
9.8 -23.6 12.4 208 208 208
10.1 -23.7 12.4 208 208 208
10.3 -23.6 12.4 208 208 208
10.6 -23.5 12.3 208 208 208
10.8 -23.4 12.3 208 208 208
11.1 -23.5 12.3 205 205 205
11.5 -23.5 12.4 202 202 202
11.7 -23.5 12.3 205 205 205
12.0 -23.5 12.3 205 205 205
12.3 -23.5 12.4 205 205 205
12.6 -23.5 12.3 205 205 205
13.5 -23.6 12.4 205 205 205
13.8 -23.5 12.4 207 207 207
14.0 -23.5 12.3 205 205 205
14.3 -23.5 12.3 205 205 205
14.6 -23.5 12.3 205 205 205
15.2 -24.0 12.6 207 207 207
15.2 -23.5 12.4 207 207 207
15.4 -23.5 12.3 207 207 207
15.7 -23.5 12.3 207 207 207
16.4 -23.6 12.4 207 207 207
16.6 -23.5 12.4 204 204 204
17.0 -23.6 12.4 204 204 204
17.3 -23.6 12.4 204 204 204
17.5 -23.5 12.3 207 207 207
17.8 -23.5 12.3 204 204 204
18.0 -23.5 12.3 204 204 204
52.5 -64.3 33.8 204 204 204
53.4 -64.5 33.8 200 200 200
52.0 -61.9 32.5 205 205 205
51.9 -60.9 32.0 205 205 205
53.5 -61.9 32.5 205 205 205
53.3 -60.8 31.9 205 205 205
62.1 -68.0 35.7 205 205 205
66.9 -72.2 37.9 206 206 206
-28.7 -23.7 12.6 56 55 54
-28.4 -23.7 12.6 56 55 54
-28.1 -23.7 12.6 56 55 54
-27.8 -23.7 12.6 56 55 54
-12.2 -23.9 12.7 48 48 48
-10.7 -23.9 12.7 41 40 38
-10.4 -24.0 12.8 48 48 48
-10.2 -24.2 12.9 185 185 185
7.6 -21.2 11.3 208 208 208
14.2 -21.3 11.3 207 207 207
14.5 -21.3 11.3 206 206 206
52.7 -63.8 33.9 206 206 206
54.0 -63.4 33.7 206 206 206
54.3 -62.0 33.0 204 204 204
53.8 -60.6 32.2 204 204 204
62.0 -67.9 36.1 205 205 205
64.4 -69.6 37.0 205 205 205
67.8 -72.3 38.4 205 205 205
72.4 -76.2 40.5 205 205 205
-13.0 -24.1 12.9 53 52 52
-12.7 -24.1 13.0 85 85 85
-12.3 -23.8 12.8 51 51 51
-10.8 -23.8 12.8 17 17 17
-10.5 -23.9 12.9 47 47 47
-10.3 -24.1 13.0 184 187 186
54.5 -60.6 32.6 206 206 206
61.5 -66.6 35.8 204 204 204
65.6 -70.0 37.7 204 204 204
68.5 -72.2 38.8 204 204 204
72.7 -75.6 40.7 205 205 205
-10.7 -24.0 13.1 44 44 44
-10.4 -24.1 13.1 183 186 185
-10.3 -24.5 13.4 182 185 184
-9.9 -24.4 13.3 181 184 183
54.8 -60.2 32.8 206 206 206
61.1 -65.2 35.6 206 206 206
66.4 -70.0 38.1 204 204 204
68.9 -71.7 39.1 204 204 204
72.4 -74.3 40.5 204 204 204
-10.8 -23.9 13.2 53 55 53
-10.5 -23.9 13.2 183 183 183
-10.3 -24.2 13.4 181 184 183
-9.9 -24.1 13.3 180 183 182
61.0 -67.1 37.0 205 205 205
67.6 -70.4 38.8 203 203 203
68.9 -70.8 39.1 203 203 203
72.5 -73.5 40.6 203 203 203
-37.8 -24.0 13.4 67 67 67
-31.9 -24.0 13.4 62 62 62
-31.6 -24.0 13.4 60 60 60
-14.6 -18.0 10.1 124 127 126
-14.2 -17.9 10.0 50 50 50
-13.8 -24.1 13.5 128 130 129
-13.4 -23.9 13.4 118 120 119
-13.1 -23.9 13.4 33 34 32
-10.6 -23.9 13.4 190 190 190
-10.3 -24.0 13.4 181 184 183
-10.0 -23.9 13.3 181 184 183
62.7 -68.1 38.1 205 205 205
-37.8 -23.7 13.4 68 68 68
-37.6 -23.7 13.5 68 68 68
-37.3 -23.7 13.5 68 68 68
-36.9 -23.7 13.5 68 68 68
-36.6 -23.7 13.5 70 72 69
-36.3 -23.7 13.5 71 72 70
-36.0 -23.7 13.5 69 69 69
-35.7 -23.7 13.5 71 72 70
-35.4 -23.7 13.4 69 69 69
-35.1 -23.7 13.5 69 69 69
-34.8 -23.8 13.5 70 70 70
-34.4 -23.7 13.5 70 70 70
-34.1 -23.7 13.5 70 70 70
-33.8 -23.7 13.5 67 68 66
-33.5 -23.7 13.4 67 68 66
-33.2 -23.7 13.4 65 65 65
-32.9 -23.7 13.4 67 69 67
-32.5 -23.7 13.4 66 66 66
-32.2 -23.7 13.5 66 66 66
-31.9 -23.7 13.5 66 66 66
-31.6 -23.7 13.5 64 64 64
-31.3 -23.8 13.5 61 61 61
-31.0 -23.7 13.5 61 61 61
-30.7 -23.7 13.5 61 61 61
-30.4 -23.7 13.5 61 61 61
-30.1 -23.7 13.5 61 60 59
-29.8 -23.8 13.5 61 60 59
-29.4 -23.7 13.4 61 60 59
-29.1 -23.7 13.4 61 60 59
-28.8 -23.7 13.4 62 61 60
-28.5 -23.7 13.5 62 61 60
-28.2 -23.8 13.5 62 61 60
-27.8 -23.7 13.4 58 58 58
-27.6 -23.8 13.5 58 59 59
-27.4 -23.9 13.5 58 59 59
-27.0 -23.8 13.5 58 59 59
-26.6 -23.7 13.5 58 58 58
-26.3 -23.8 13.5 58 58 58
-26.0 -23.7 13.5 58 58 58
-25.8 -23.9 13.5 54 54 54
-25.7 -24.1 13.6 58 59 59
-25.1 -23.8 13.5 60 60 60
-24.7 -23.7 13.4 60 60 60
-24.1 -23.8 13.5 54 54 54
-23.8 -23.7 13.5 54 54 54
-23.5 -23.7 13.5 47 47 47
-23.1 -23.7 13.4 47 48 47
-22.8 -23.7 13.4 47 48 47
-14.6 -17.9 10.1 32 32 32
-13.9 -23.9 13.5 38 38 38
-13.4 -23.6 13.4 124 124 124
-13.1 -23.6 13.4 40 40 40
-12.8 -23.7 13.4 90 90 90
-10.6 -23.7 13.4 181 184 183
-10.3 -23.7 13.4 180 183 182
-10.0 -23.7 13.4 178 181 180
63.7 -67.3 38.1 207 207 207
60.3 -62.9 35.6 205 205 205
68.1 -68.1 38.6 205 205 205
-38.5 -23.8 13.7 68 68 68
-38.3 -23.9 13.7 69 69 69
-38.0 -23.9 13.7 69 69 69
-37.7 -23.9 13.7 71 72 70
-37.4 -23.9 13.7 71 72 70
-37.1 -23.9 13.7 71 72 70
-36.7 -23.9 13.7 70 70 70
-36.4 -23.9 13.7 70 70 70
-36.0 -23.9 13.7 70 70 70
-35.9 -24.0 13.8 70 70 70
-35.5 -23.9 13.7 71 71 71
-35.1 -23.9 13.7 71 71 71
-34.8 -23.9 13.7 71 71 71
-34.5 -23.9 13.7 67 69 67
-34.2 -23.9 13.7 71 71 71
-33.9 -24.0 13.8 72 72 72
-33.5 -23.9 13.7 72 72 72
-33.2 -23.9 13.7 67 67 67
-32.9 -23.9 13.7 67 67 67
-32.6 -23.9 13.7 67 67 67
-32.3 -23.9 13.7 65 65 65
-31.9 -23.9 13.7 65 65 65
-31.6 -23.9 13.7 65 65 65
-31.3 -23.9 13.7 65 65 65
-30.9 -23.9 13.7 63 63 63
-30.8 -24.0 13.8 63 63 63
-30.4 -23.9 13.7 63 63 63
-29.9 -23.8 13.7 63 63 63
-29.8 -24.0 13.8 63 63 63
-29.4 -23.9 13.7 63 62 61
-29.1 -23.9 13.7 63 62 61
-28.8 -23.9 13.7 63 62 61
-27.9 -24.0 13.8 59 59 59
-27.5 -23.9 13.7 58 58 58
-26.8 -23.9 13.7 58 59 59
-26.3 -24.0 13.8 72 73 71
-26.1 -24.1 13.8 67 67 67
-25.7 -24.1 13.8 73 74 72
-24.7 -24.0 13.8 77 77 77
-24.3 -23.9 13.7 62 62 62
-23.8 -23.8 13.6 58 58 58
-14.1 -23.9 13.7 115 117 116
-13.5 -23.5 13.5 129 132 131
-13.2 -23.4 13.4 30 30 30
-10.7 -23.4 13.4 181 184 183
-10.4 -23.5 13.5 179 182 181
-10.1 -23.5 13.5 178 181 180
-9.7 -24.1 13.8 213 215 215
65.2 -67.9 39.0 207 207 207
62.6 -64.4 36.9 207 207 207
67.8 -67.0 38.4 205 205 205
-13.1 -23.0 13.4 41 41 41
-10.4 -23.2 13.5 179 182 181
-10.7 -24.6 14.3 179 182 181
-10.3 -24.6 14.3 181 181 181
67.8 -69.8 40.6 204 204 204
63.1 -64.0 37.2 204 204 204
60.5 -60.5 35.2 207 207 207
66.4 -65.5 38.1 207 207 207
67.3 -65.5 38.1 207 207 207
-10.5 -23.0 13.6 180 183 182
-10.9 -24.7 14.6 179 182 181
-10.4 -24.4 14.4 179 182 181
65.3 -65.3 38.5 206 206 206
61.2 -60.4 35.6 206 206 206
66.5 -64.8 38.2 207 207 207
67.3 -64.7 38.1 207 207 207
-10.9 -24.4 14.6 180 180 180
-10.4 -24.1 14.4 179 182 181
-10.2 -24.4 14.6 170 171 170
-9.9 -24.6 14.7 176 176 176
-2.9 -17.0 10.2 200 200 200
-2.6 -16.9 10.1 200 200 200
-2.4 -16.9 10.1 202 202 202
-1.7 -16.9 10.1 202 202 202
0.2 -17.0 10.2 198 198 198
0.4 -17.0 10.1 198 198 198
0.7 -17.0 10.1 195 195 195
0.9 -16.9 10.1 195 195 195
1.1 -16.9 10.1 193 193 193
1.4 -16.9 10.1 196 196 196
1.6 -16.9 10.1 193 193 193
1.9 -17.0 10.1 196 196 196
2.1 -17.0 10.2 193 193 193
2.3 -16.9 10.1 191 191 191
2.5 -16.8 10.1 174 174 174
7.3 -17.0 10.1 209 212 211
7.5 -16.9 10.1 208 211 210
7.7 -16.9 10.1 208 211 210
8.0 -16.9 10.1 208 211 210
8.2 -16.9 10.1 208 211 210
8.4 -16.9 10.1 208 211 210
8.7 -17.0 10.2 208 211 210
8.9 -16.9 10.1 208 211 210
9.1 -16.8 10.0 208 211 210
9.4 -16.9 10.1 208 211 210
9.6 -16.9 10.1 206 206 206
9.9 -16.9 10.1 206 206 206
10.1 -16.9 10.1 206 206 206
10.3 -16.9 10.1 206 206 206
10.5 -16.9 10.1 206 206 206
10.8 -16.9 10.1 206 206 206
11.1 -17.0 10.1 206 206 206
11.3 -16.9 10.1 206 206 206
11.5 -16.9 10.1 206 206 206
11.7 -16.9 10.1 206 206 206
11.9 -16.9 10.1 206 206 206
12.2 -16.9 10.1 206 206 206
12.4 -16.9 10.1 206 206 206
12.7 -17.0 10.1 206 206 206
13.0 -17.0 10.2 206 206 206
13.1 -16.9 10.1 206 206 206
13.7 -17.0 10.1 203 203 203
13.8 -16.9 10.1 203 203 203
14.1 -17.0 10.1 205 205 205
14.4 -17.0 10.1 203 203 203
61.6 -60.0 35.9 207 210 209
67.3 -63.8 38.1 204 204 204
49.7 -22.8 13.6 162 165 164
-11.4 -24.5 14.8 183 186 185
-11.0 -24.3 14.8 181 181 181
-10.6 -24.1 14.6 178 178 178
-10.3 -24.4 14.8 160 160 160
-10.1 -24.6 14.9 164 164 164
-3.6 -16.8 10.2 190 190 190
-1.5 -16.8 10.2 192 192 192
-1.2 -16.8 10.2 195 195 195
0.2 -16.9 10.2 193 193 193
0.9 -16.8 10.2 191 191 191
1.2 -16.8 10.2 191 191 191
1.9 -16.8 10.2 192 192 192
2.1 -16.8 10.2 192 192 192
2.3 -16.8 10.2 197 197 197
2.6 -16.8 10.2 190 190 190
7.4 -16.9 10.3 208 211 210
7.6 -16.8 10.2 208 211 210
7.8 -16.8 10.2 208 211 210
8.0 -16.8 10.2 208 211 210
8.3 -16.8 10.2 208 211 210
8.5 -16.8 10.2 208 211 210
9.0 -16.8 10.2 208 211 210
9.2 -16.8 10.2 208 211 210
9.5 -16.9 10.2 208 211 210
9.7 -16.9 10.2 208 211 210
9.9 -16.8 10.2 208 211 210
10.2 -16.8 10.2 207 210 209
10.4 -16.9 10.2 206 206 206
10.6 -16.8 10.2 206 206 206
10.9 -16.8 10.2 206 206 206
11.1 -16.9 10.2 206 206 206
11.4 -16.8 10.2 206 206 206
11.6 -16.8 10.2 206 206 206
11.8 -16.8 10.2 206 206 206
12.1 -16.8 10.2 206 206 206
12.3 -16.8 10.2 206 206 206
12.6 -16.9 10.2 205 205 205
13.0 -17.1 10.4 205 205 205
13.0 -16.9 10.2 205 205 205
13.2 -16.8 10.2 205 205 205
13.5 -16.9 10.2 206 209 208
13.8 -16.9 10.3 205 205 205
14.0 -16.8 10.2 205 205 205
14.2 -16.9 10.2 206 209 208
14.4 -16.8 10.2 205 205 205
14.6 -16.8 10.2 205 205 205
67.3 -62.9 38.1 207 210 209
50.4 -22.7 13.7 158 158 158
-11.8 -24.9 15.3 184 187 186
-11.1 -24.2 14.9 183 186 185
-11.2 -25.1 15.4 176 176 176
-10.7 -24.9 15.3 156 159 158
-10.3 -24.8 15.3 155 158 157
8.9 -17.0 10.4 208 211 210
9.9 -17.0 10.4 207 210 209
13.1 -17.0 10.5 206 209 208
14.0 -16.9 10.4 206 209 208
66.9 -62.5 38.4 207 210 209
67.4 -62.1 38.2 207 210 209
50.7 -22.4 13.8 157 157 157
50.8 -22.4 13.7 152 152 152
-11.3 -25.1 15.6 173 175 175
-10.9 -24.9 15.5 159 162 161
66.9 -61.6 38.4 206 209 208
67.3 -61.1 38.1 207 210 209
78.7 -36.4 22.7 179 179 179
50.8 -22.2 13.8 158 158 158
50.6 -22.0 13.7 153 153 153
62.8 -26.6 16.6 129 129 129
-12.4 -25.5 16.2 187 189 189
-11.5 -25.0 15.8 182 182 182
-11.1 -25.0 15.8 168 168 168
68.9 -62.5 39.6 206 209 208
67.5 -60.5 38.3 205 205 205
77.6 -35.4 22.4 180 180 180
77.1 -34.9 22.1 182 182 182
51.0 -22.0 13.9 162 162 162
50.7 -21.7 13.7 155 155 155
62.9 -26.3 16.6 131 131 131
-46.9 -25.9 16.7 53 53 53
-42.6 -25.9 16.7 62 62 62
-41.5 -25.9 16.7 24 24 24
-40.7 -25.9 16.7 21 24 22
-40.3 -25.9 16.7 29 31 29
-39.9 -25.9 16.7 40 42 42
-39.6 -25.9 16.7 46 46 46
-39.2 -26.0 16.7 51 51 51
-38.8 -25.9 16.7 56 56 56
-38.4 -26.0 16.7 56 56 56
-37.7 -25.8 16.5 61 61 61
-35.3 -25.9 16.7 67 67 67
-34.7 -25.8 16.6 67 67 67
-34.1 -25.9 16.7 65 65 65
-33.6 -25.8 16.6 63 63 63
-33.4 -25.9 16.7 63 63 63
-32.9 -25.9 16.6 66 66 66
-32.4 -25.8 16.5 67 67 67
-31.9 -25.7 16.5 73 73 73
-20.1 -19.2 12.3 42 42 42
-12.7 -25.6 16.4 188 188 188
-12.4 -25.8 16.6 186 186 186
-11.5 -25.6 16.4 172 172 172
-11.3 -26.0 16.7 166 166 166
9.9 -16.3 10.5 207 210 209
10.2 -16.2 10.4 207 210 209
12.9 -16.3 10.5 205 208 207
13.1 -16.3 10.5 205 208 207
69.2 -61.1 39.2 206 209 208
41.3 -30.1 19.4 188 188 188
39.9 -28.8 18.5 191 191 191
40.3 -28.8 18.5 188 188 188
78.2 -35.2 22.6 183 183 183
77.6 -34.7 22.3 183 183 183
51.0 -21.5 13.8 156 156 156
62.4 -25.6 16.5 129 132 131
-47.6 -25.9 16.9 58 58 58
-47.9 -26.3 17.2 68 68 68
-47.5 -26.3 17.2 74 74 74
-47.1 -26.3 17.2 70 72 69
-46.6 -26.3 17.1 70 72 69
-47.3 -26.8 17.5 74 74 74
-46.8 -26.8 17.5 77 77 77
-46.3 -26.7 17.5 68 68 68
-45.9 -26.7 17.5 70 72 69
-44.7 -26.3 17.1 75 75 75
-44.3 -26.3 17.1 151 151 151
-43.9 -26.3 17.1 146 146 146
-43.5 -26.3 17.1 40 42 42
-43.1 -26.3 17.2 69 69 69
-42.8 -26.4 17.2 58 58 56
-42.3 -26.3 17.1 40 42 42
-41.8 -26.2 17.1 34 34 34
-41.4 -26.2 17.1 34 34 34
-40.9 -26.1 17.1 36 36 36
-41.0 -26.5 17.3 34 34 34
-40.3 -26.3 17.2 34 34 34
-40.2 -26.5 17.3 36 36 36
-39.6 -26.4 17.2 39 39 39
-39.0 -26.2 17.1 40 42 42
-39.7 -26.9 17.6 47 47 47
-38.9 -26.7 17.4 56 56 56
-38.8 -26.9 17.5 61 61 61
-38.1 -26.7 17.4 60 59 58
-37.1 -26.6 17.3 61 61 61
-36.2 -26.2 17.1 68 70 68
-35.7 -26.1 17.0 67 67 67
-35.0 -26.2 17.1 65 65 65
-34.8 -26.3 17.2 65 65 65
-34.4 -26.3 17.2 63 63 63
-34.0 -26.3 17.2 63 63 63
-33.4 -26.2 17.1 65 65 65
-33.7 -26.7 17.5 67 67 67
-33.4 -26.8 17.5 72 72 72
-32.3 -26.2 17.1 53 53 53
-12.7 -26.1 17.1 189 191 191
-12.3 -26.0 17.0 177 180 179
-12.2 -26.8 17.5 174 174 174
41.4 -29.7 19.4 189 189 189
40.5 -28.7 18.7 189 189 189
78.8 -34.9 22.8 184 184 184
78.7 -34.6 22.6 184 184 184
62.8 -25.4 16.6 129 132 131
-49.8 -26.7 17.7 60 60 60
-49.8 -26.9 17.8 68 68 68
-49.4 -26.9 17.8 74 74 74
-49.0 -26.9 17.8 74 74 74
-48.6 -26.9 17.8 70 72 69
-48.2 -27.0 17.9 65 66 64
-47.7 -26.9 17.8 58 59 59
-47.3 -26.9 17.8 82 83 81
-46.9 -26.9 17.8 120 120 120
-46.5 -26.9 17.8 149 149 149
-46.1 -26.9 17.8 10 15 11
-45.6 -26.9 17.8 19 23 20
-45.3 -26.9 17.8 33 32 30
-44.9 -26.9 17.8 48 48 48
-44.4 -26.9 17.8 42 42 42
-43.9 -26.9 17.8 42 42 42
-43.6 -26.9 17.8 36 37 36
-43.2 -26.9 17.8 40 42 42
-42.9 -27.0 17.9 46 46 46
-42.4 -26.9 17.8 45 44 43
-41.9 -26.9 17.8 40 42 42
-41.6 -27.0 17.9 29 31 29
-41.0 -26.9 17.8 29 31 29
-40.7 -26.9 17.8 33 32 30
-40.4 -27.0 17.9 33 33 31
-40.0 -27.0 17.9 28 28 28
-39.6 -27.0 17.9 42 42 42
-39.1 -27.0 17.9 36 37 36
-38.7 -27.0 17.9 46 45 43
-38.2 -26.9 17.8 50 50 50
-37.7 -26.9 17.8 50 50 50
-37.3 -26.9 17.8 60 59 58
-36.6 -26.9 17.8 62 62 62
-35.9 -26.8 17.7 62 62 62
-35.6 -26.8 17.8 62 62 62
-34.9 -26.7 17.7 62 62 62
-34.4 -26.6 17.6 62 62 62
-34.5 -27.0 17.9 63 63 63
-34.1 -26.9 17.8 65 65 65
-33.4 -26.8 17.7 62 61 60
-13.7 -26.9 17.8 179 182 181
-13.2 -26.7 17.7 177 177 177
-12.8 -26.8 17.7 176 176 176
-12.4 -26.8 17.7 175 175 175
-12.2 -27.1 18.0 172 172 172
218.0 -194.3 128.7 207 210 209
210.9 -185.4 122.8 208 211 210
40.5 -28.3 18.7 191 191 191
40.9 -28.3 18.8 192 192 192
79.5 -34.7 23.0 185 185 185
79.2 -34.3 22.7 185 185 185
58.6 -24.1 16.0 159 159 159
60.1 -24.4 16.2 149 149 149
63.0 -25.1 16.6 131 134 133
-52.2 -27.6 18.5 62 62 62
-51.9 -27.6 18.6 73 73 73
-51.2 -27.5 18.5 73 73 73
-50.7 -27.5 18.5 75 76 76
-50.5 -27.6 18.5 60 60 60
-49.9 -27.5 18.5 47 48 47
-49.4 -27.4 18.5 74 74 74
-49.1 -27.5 18.5 147 147 147
-46.6 -27.5 18.5 28 28 28
-45.9 -27.4 18.4 19 23 20
-45.4 -27.6 18.6 26 26 26
-45.0 -27.6 18.6 39 39 39
-44.7 -27.7 18.7 55 55 55
-43.9 -27.5 18.5 58 58 56
-43.8 -27.7 18.6 59 59 59
-43.2 -27.6 18.6 55 55 55
-42.4 -27.3 18.4 40 42 42
-42.5 -27.7 18.6 37 38 37
-42.1 -27.7 18.6 45 44 43
-41.2 -27.4 18.5 115 114 114
-40.7 -27.3 18.4 153 152 150
-39.0 -27.4 18.4 26 26 26
-37.0 -27.1 18.3 64 64 64
-36.5 -27.1 18.2 64 64 64
-13.3 -27.4 18.4 178 181 180
-12.8 -27.1 18.3 177 180 179
-12.6 -27.6 18.5 175 175 175
-4.5 -15.1 10.2 109 109 109
9.9 -15.1 10.2 209 212 211
234.1 -208.3 140.1 207 210 209
227.2 -199.4 134.2 207 210 209
215.1 -186.2 125.3 207 210 209
205.8 -175.7 118.2 207 210 209
704.1 -530.5 356.9 206 206 206
314.6 -234.3 157.6 207 210 209
276.8 -203.7 137.1 210 213 212
41.6 -29.0 19.5 192 192 192
40.3 -27.8 18.7 192 192 192
40.6 -27.7 18.6 194 194 194
79.2 -33.8 22.7 186 186 186
79.7 -33.8 22.7 186 186 186
58.6 -23.7 16.0 161 161 161
59.2 -23.8 16.0 155 155 155
60.0 -24.0 16.1 147 149 149
63.1 -24.8 16.7 134 136 135
-52.5 -27.3 18.6 58 58 58
-44.8 -27.4 18.7 53 52 52
-41.8 -27.4 18.7 131 134 133
-13.1 -27.3 18.6 177 177 177
-12.9 -28.0 19.1 175 175 175
-1.8 -16.0 10.9 146 146 146
17.7 -16.4 11.2 205 208 207
250.3 -216.2 147.8 207 210 209
208.2 -177.4 121.3 207 210 209
207.0 -174.1 119.0 207 210 209
583.1 -432.4 295.6 210 213 212
377.6 -276.8 189.2 210 213 212
296.1 -214.5 146.6 210 213 212
55.9 -38.3 26.2 192 192 192
80.6 -33.8 23.1 188 188 188
79.7 -33.3 22.7 188 188 188
59.8 -23.7 16.2 154 154 154
60.3 -23.7 16.2 148 150 150
-13.6 -28.0 19.4 175 175 175
-13.2 -28.2 19.6 174 174 174
-12.9 -28.5 19.8 146 148 148
-1.8 -15.7 10.9 152 154 154
-1.6 -15.7 10.9 152 154 154
10.6 -15.7 10.9 208 211 210
12.1 -15.7 10.9 207 210 209
12.4 -15.7 10.9 207 210 209
14.9 -15.7 10.9 206 209 208
15.2 -15.7 10.9 206 209 208
16.7 -15.7 10.9 205 208 207
16.9 -15.7 10.9 205 208 207
17.2 -15.7 10.9 205 208 207
343.5 -296.0 205.6 206 209 208
273.9 -232.8 161.7 206 209 208
228.7 -191.8 133.2 211 211 211
303.3 -247.6 172.0 207 210 209
372.9 -292.9 203.4 208 211 210
358.4 -277.9 193.0 208 211 210
382.3 -292.9 203.4 208 211 210
583.1 -425.6 295.6 209 212 211
429.1 -309.5 215.0 210 213 212
318.3 -227.0 157.6 210 213 212
81.2 -33.5 23.3 191 194 193
80.0 -32.9 22.8 190 190 190
60.5 -23.6 16.4 156 156 156
60.8 -23.5 16.3 150 150 150
61.5 -23.7 16.4 146 146 146
-14.0 -28.3 20.0 164 164 164
-13.4 -27.9 19.7 159 159 159
-13.0 -28.3 20.0 128 128 128
14.6 -15.1 10.7 205 208 207
16.5 -15.2 10.8 204 207 206
16.6 -15.1 10.7 204 207 206
16.8 -15.1 10.7 205 208 207
17.0 -15.1 10.6 205 208 207
332.6 -282.1 199.1 206 209 208
286.1 -239.3 168.9 206 209 208
332.5 -270.7 191.1 206 209 208
314.7 -252.8 178.5 207 210 209
315.9 -250.4 176.8 207 210 209
356.7 -279.1 197.0 207 210 209
365.0 -282.1 199.1 208 211 210
365.8 -279.1 197.0 208 211 210
370.4 -279.1 197.0 208 211 210
592.3 -425.3 300.3 209 212 211
429.1 -304.5 215.0 209 212 211
350.4 -245.8 173.5 207 210 209
222.3 -109.4 77.2 203 203 203
80.9 -32.7 23.1 189 189 189
78.7 -31.6 22.3 189 189 189
61.2 -23.6 16.7 160 160 160
60.7 -23.3 16.4 152 154 154
61.0 -23.2 16.4 150 150 150
61.8 -23.4 16.5 143 145 144
-13.6 -27.9 20.0 181 181 181
-13.1 -27.9 20.1 170 172 172
332.6 -277.4 199.1 205 208 207
286.1 -235.3 168.9 206 209 208
342.9 -274.6 197.0 206 209 208
330.3 -261.0 187.3 206 209 208
328.2 -255.9 183.7 207 210 209
356.7 -274.6 197.0 207 210 209
361.2 -274.6 197.0 207 210 209
365.8 -274.6 197.0 208 211 210
370.4 -274.6 197.0 208 211 210
313.0 -229.2 164.5 208 211 210
691.1 -488.1 350.3 209 212 211
434.0 -303.0 217.4 209 212 211
360.3 -248.6 178.5 209 212 211
200.4 -96.2 69.0 205 205 205
61.3 -23.1 16.6 154 156 156
61.3 -23.0 16.5 143 145 144
62.4 -23.2 16.7 141 143 142
70.5 -26.1 18.7 133 133 133
-14.8 -30.9 22.6 176 176 176
-14.1 -30.6 22.3 148 150 150
444.8 -345.6 252.2 206 209 208
482.9 -370.2 270.2 206 209 208
535.0 -405.0 295.6 207 210 209
541.9 -405.0 295.6 207 210 209
702.4 -518.3 378.3 207 210 209
444.5 -324.0 236.5 208 211 210
777.4 -539.9 394.1 209 212 211
589.9 -405.0 295.6 209 212 211
192.0 -90.6 66.1 205 205 205
63.5 -23.3 17.0 131 134 133
461.9 -166.1 121.3 129 129 129
-14.9 -30.6 22.7 177 177 177
-14.2 -30.3 22.5 156 156 156
225.1 -105.3 78.2 203 203 203
190.0 -88.2 65.5 200 200 200
169.8 -78.2 58.0 199 199 199
64.5 -23.2 17.2 132 135 134
456.0 -161.2 119.7 133 133 133
-16.0 -31.4 23.7 181 181 181
-15.2 -30.8 23.2 163 163 163
-14.9 -31.3 23.7 162 162 162
224.1 -103.0 77.8 191 194 193
187.4 -85.5 64.6 189 191 191
166.2 -75.2 56.8 190 192 192
67.4 -24.0 18.1 135 135 135
67.2 -23.8 18.0 133 133 133
67.4 -23.7 17.9 133 133 133
68.2 -23.8 18.0 133 133 133
-28.0 -15.2 11.7 99 99 99
-27.7 -15.2 11.7 49 49 49
-27.4 -15.2 11.7 33 32 30
-27.1 -15.2 11.7 26 26 26
-26.9 -15.2 11.7 18 22 19
-26.1 -15.3 11.8 39 41 41
-25.6 -15.2 11.7 91 91 91
-25.3 -15.2 11.7 134 136 135
-25.0 -15.2 11.7 162 162 162
-19.7 -15.1 11.6 199 199 199
-19.4 -15.1 11.6 203 203 203
-19.2 -15.1 11.6 206 206 206
-17.7 -15.2 11.7 29 31 29
-16.8 -15.2 11.7 104 104 104
-16.6 -15.2 11.7 88 90 89
-14.6 -15.1 11.6 33 32 30
-14.3 -15.1 11.6 36 36 36
-14.1 -15.1 11.6 113 115 114
-16.6 -31.9 24.5 145 147 147
-15.5 -30.8 23.7 91 93 92
192.6 -86.3 66.4 190 192 192
173.5 -77.1 59.3 190 190 190
68.6 -24.0 18.5 132 132 132
68.1 -23.7 18.2 129 132 131
68.7 -23.7 18.3 132 132 132
68.8 -23.6 18.2 132 132 132
-28.1 -14.8 11.6 63 64 62
-27.8 -14.8 11.6 39 41 41
-27.6 -14.8 11.6 45 45 45
-27.3 -14.8 11.6 33 32 30
-27.0 -14.8 11.6 25 25 25
-26.8 -14.8 11.6 20 23 21
-26.5 -14.8 11.6 18 22 19
-26.2 -14.8 11.6 162 162 162
-26.1 -14.9 11.7 182 185 184
-25.8 -14.9 11.7 187 186 185
-25.5 -14.9 11.6 112 112 112
-19.7 -14.8 11.6 63 63 63
-19.4 -14.8 11.6 42 42 42
-19.1 -14.8 11.6 64 65 63
-17.3 -14.8 11.6 51 51 51
-17.0 -14.8 11.6 18 22 19
-16.7 -14.8 11.6 23 23 23
-16.5 -14.8 11.6 25 25 25
-14.6 -14.8 11.6 29 30 28
-15.7 -30.6 24.0 83 85 85
174.0 -76.0 59.5 34 34 34
69.9 -23.9 18.7 129 129 129
69.6 -23.6 18.5 129 129 129
69.9 -23.6 18.5 129 129 129
70.5 -23.5 18.7 121 121 121
70.8 -23.5 18.7 124 124 124
70.7 -23.1 18.8 112 112 112
70.9 -23.0 18.7 116 118 117
71.8 -23.2 18.8 132 132 132
51.1 -16.8 13.9 107 107 107
71.4 -22.9 19.0 104 104 104
70.8 -22.6 18.7 90 90 90
71.5 -22.7 18.8 138 140 139
-8.2 -13.0 10.9 206 206 206
-21.8 -41.0 34.6 93 93 93
-20.5 -40.0 33.8 81 84 83
50.8 -16.5 13.9 105 105 105
51.5 -16.6 14.0 102 104 104
51.8 -16.6 14.0 101 103 103
-8.2 -12.7 10.9 205 205 205
-22.4 -41.3 35.6 96 96 96
-21.2 -40.5 34.9 102 102 102
-21.0 -41.7 35.9 93 96 95
-20.1 -41.5 35.8 122 124 123
51.0 -16.2 14.0 100 100 100
51.6 -16.3 14.1 97 97 97
52.1 -16.4 14.1 87 87 87
-24.3 -40.9 36.0 125 125 125
-22.7 -39.6 34.8 97 97 97
-22.4 -40.4 35.5 96 99 98
-21.6 -40.5 35.6 83 83 83
-21.1 -41.1 36.1 118 118 118
-19.8 -40.2 35.4 118 118 118
51.6 -16.0 14.1 85 85 85
52.4 -16.1 14.2 70 69 68
-21.5 -41.0 36.8 25 25 23
51.6 -15.7 14.1 79 81 80
52.1 -15.7 14.1 74 74 74
52.3 -15.7 14.1 71 71 71
-23.1 -41.4 38.0 108 108 108
-22.0 -41.1 37.7 14 14 14
51.6 -15.2 13.9 74 74 74
-25.9 -43.9 41.1 100 100 100
-23.7 -41.7 39.1 110 110 110
17.7 -12.1 11.4 216 216 216
-27.5 -16.5 15.8 196 196 196
-24.1 -41.5 39.7 108 108 108
-28.8 -51.5 49.3 19 19 19
-29.0 -56.3 53.9 6 11 7
68.9 -135.4 129.6 225 225 225
-28.7 -16.6 16.2 226 226 226
-27.6 -16.1 15.8 216 219 218
-30.4 -53.1 52.0 23 24 23
-30.1 -57.2 56.0 115 115 115
-29.5 -16.4 16.5 230 230 230
-28.7 -16.2 16.2 227 227 227
-27.6 -15.8 15.8 220 220 220
-26.8 -15.5 15.5 215 215 215
-28.9 -49.4 49.5 48 48 48
-35.1 -62.5 62.6 20 20 20
-33.1 -61.5 61.6 147 149 149
81.1 -152.3 152.6 225 225 225
118.5 -196.7 197.0 224 224 224
17.7 -10.9 10.9 217 217 217
-29.9 -16.3 16.7 228 228 228
-29.1 -16.0 16.4 225 225 225
-37.6 -65.4 67.1 20 20 20
-34.6 -62.7 64.3 158 158 158
74.5 -136.6 140.1 225 225 225
117.3 -190.1 195.0 220 220 220
15.8 -9.8 10.0 217 220 219
17.6 -10.5 10.8 217 217 217
240.7 -111.1 114.0 194 194 194
129.0 -57.6 59.1 202 202 202
-43.5 -70.9 74.5 26 25 24
-43.3 -73.5 77.2 23 24 23
-45.4 -80.4 84.4 168 168 168
74.5 -133.4 140.1 225 225 225
137.1 -216.9 227.9 224 224 224
16.0 -9.6 10.1 217 220 219
17.2 -9.9 10.4 217 217 217
17.0 -9.7 10.2 218 221 220
359.2 -181.8 191.1 219 219 219
190.3 -85.7 90.1 192 192 192
163.5 -72.9 76.6 198 198 198
135.7 -59.8 62.8 200 200 200
129.4 -56.4 59.3 200 200 200
161.1 -69.5 73.0 202 202 202
176.4 -75.3 79.1 202 202 202
177.5 -75.0 78.8 202 202 202
-10.5 -10.5 11.3 32 32 32
-11.1 -11.3 12.2 34 34 34
-44.7 -71.1 76.6 29 29 29
-44.6 -73.8 79.5 23 24 23
75.1 -131.1 141.2 224 226 226
165.7 -266.1 286.6 224 226 226
137.1 -211.6 227.9 225 227 227
16.2 -9.7 10.4 217 220 219
17.5 -10.0 10.8 218 221 220
17.2 -9.7 10.4 218 221 220
17.1 -9.5 10.2 218 221 220
366.6 -181.1 195.0 216 216 216
189.4 -83.2 89.7 190 190 190
164.2 -71.4 76.9 198 198 198
135.7 -58.3 62.8 200 200 200
132.3 -56.3 60.6 200 200 200
-22.2 -11.2 12.4 48 48 48
-10.4 -10.1 11.2 35 35 35
-11.2 -11.1 12.3 36 37 36
-46.4 -71.9 79.5 23 24 23
-44.9 -72.6 80.2 14 18 15
73.4 -125.0 138.1 224 226 226
116.1 -174.7 193.0 223 225 225
15.9 -9.1 10.1 217 220 219
17.1 -9.4 10.4 218 221 220
16.9 -9.2 10.1 218 221 220
193.0 -82.7 91.4 179 179 179
135.7 -56.9 62.8 200 200 200
131.9 -54.7 60.4 200 200 200
-25.7 -11.3 12.8 31 32 30
-22.2 -10.9 12.4 67 69 67
-11.2 -10.9 12.3 36 37 36
-47.1 -74.2 84.1 31 33 33
-57.8 -94.8 107.5 169 171 170
71.3 -118.3 134.2 224 226 226
15.8 -8.9 10.0 218 221 220
17.1 -9.1 10.4 218 221 220
160.3 -66.2 75.1 195 195 195
136.6 -55.8 63.3 200 200 200
132.7 -53.6 60.8 200 200 200
-25.8 -10.9 12.7 143 143 142
-25.4 -10.9 12.7 67 67 67
-22.2 -10.6 12.4 63 63 63
-16.2 -10.7 12.5 146 148 148
-15.8 -10.6 12.4 119 119 119
-11.2 -10.6 12.3 36 37 36
-11.0 -10.7 12.4 36 37 36
-66.2 -97.3 113.3 28 28 28
-65.1 -99.7 116.1 26 25 24
-63.2 -100.9 117.5 174 174 174
68.9 -111.3 129.6 224 226 226
17.3 -9.0 10.5 218 221 220
189.4 -77.0 89.7 179 179 179
159.0 -64.0 74.5 195 195 195
137.0 -54.5 63.5 199 199 199
-26.6 -10.4 12.4 147 149 149
-26.2 -10.3 12.3 143 143 142
-25.7 -10.6 12.7 109 109 109
-25.2 -10.5 12.6 61 60 59
-24.7 -10.4 12.5 61 60 59
-24.3 -10.4 12.4 58 59 59
-22.6 -10.4 12.5 62 61 60
-22.1 -10.3 12.4 62 61 60
-16.2 -10.4 12.4 32 33 31
-15.8 -10.3 12.3 32 33 31
-15.3 -10.3 12.4 30 29 29
-11.2 -10.3 12.3 37 40 39
-10.9 -10.3 12.4 36 37 36
-75.2 -112.1 134.2 22 22 22
-156.4 -243.1 291.0 160 160 160
17.4 -9.0 10.7 218 221 220
17.4 -8.8 10.5 218 221 220
17.1 -8.5 10.2 218 221 220
185.8 -73.5 88.0 175 175 175
169.7 -66.4 79.5 195 195 195
137.0 -53.0 63.5 199 199 199
-26.3 -10.0 12.3 147 147 147
-25.8 -9.9 12.2 148 150 150
-27.9 -11.0 13.6 175 177 177
-24.4 -10.0 12.3 58 59 59
-24.1 -10.0 12.3 64 64 64
-22.4 -10.0 12.3 62 61 60
-22.0 -10.0 12.3 62 61 60
-16.1 -10.0 12.3 19 23 20
-15.6 -9.9 12.1 42 42 42
-15.2 -10.0 12.3 32 33 31
-11.1 -9.9 12.2 37 40 39
-10.8 -9.9 12.2 37 40 39
-166.7 -251.9 310.1 166 169 168
17.5 -8.7 10.7 218 221 220
190.3 -73.2 90.1 175 177 177
138.9 -52.3 64.3 197 197 197
-26.2 -9.6 12.2 144 144 144
-28.5 -10.8 13.7 136 136 136
-27.8 -10.7 13.6 169 171 170
-27.3 -10.6 13.5 112 112 112
-22.1 -9.7 12.3 63 62 61
-15.5 -9.5 12.1 143 143 142
-11.1 -9.6 12.2 40 40 40
17.6 -8.5 10.8 222 224 224
192.1 -71.8 90.9 173 173 173
161.6 -59.7 75.7 182 182 182
141.8 -51.8 65.7 193 193 193
-39.8 -13.9 18.2 75 76 74
-38.8 -13.7 17.9 83 83 83
-37.8 -13.5 17.6 151 151 151
-37.9 -13.8 18.1 123 125 124
-37.5 -13.8 18.1 120 120 120
-37.3 -13.9 18.2 154 154 154
-36.8 -13.9 18.2 108 108 106
-36.2 -13.8 18.1 59 59 59
-35.2 -13.6 17.8 59 59 59
17.1 -7.8 10.2 222 224 224
19.5 -8.6 11.2 219 222 221
19.6 -8.5 11.1 219 222 221
224.5 -81.4 106.3 129 132 131
162.2 -58.2 76.0 158 161 160
-41.7 -14.0 18.8 75 76 74
-40.5 -13.7 18.5 79 79 79
-39.3 -13.5 18.1 75 76 74
-38.0 -13.6 18.3 115 117 116
-37.8 -13.7 18.5 128 131 130
-37.6 -13.8 18.5 102 101 99
-36.8 -13.6 18.4 67 67 67
-35.4 -13.3 17.9 57 57 57
-34.9 -13.3 17.8 43 45 44
19.6 -8.4 11.2 219 222 221
19.5 -8.2 11.1 219 222 221
166.9 -58.0 78.2 154 154 154
134.4 -45.8 61.6 195 195 195
-43.4 -14.0 19.4 75 76 74
-42.5 -13.8 19.2 75 77 75
-44.9 -16.1 22.4 54 54 54
-35.3 -12.8 17.9 50 50 50
19.7 -8.3 11.5 219 222 221
19.6 -8.1 11.3 219 222 221
19.5 -8.0 11.1 219 222 221
170.4 -57.4 79.8 146 146 146
138.9 -46.3 64.3 197 197 197
137.1 -45.2 62.8 194 194 194
-8.2 -7.7 11.0 178 178 178
120.2 -164.6 236.5 223 225 225
19.9 -8.1 11.6 219 222 221
19.6 -7.9 11.3 219 222 221
19.5 -7.7 11.1 219 222 221
160.9 -52.5 75.4 151 153 153
137.0 -44.2 63.5 183 183 183
134.9 -43.0 61.8 193 193 193
120.2 -159.1 236.5 223 225 225
19.9 -7.8 11.6 219 222 221
19.6 -7.6 11.3 219 222 221
19.5 -7.5 11.1 219 222 221
160.9 -50.7 75.4 157 157 157
135.2 -42.1 62.6 179 179 179
128.6 -39.6 58.9 190 190 190
128.2 -163.8 252.2 224 226 226
19.6 -7.3 11.3 219 222 221
19.6 -7.2 11.1 219 222 221
164.2 -49.9 76.9 163 163 163
128.6 -38.3 58.9 190 190 190
19.8 -7.2 11.5 220 223 222
19.6 -7.1 11.3 220 223 222
19.5 -6.9 11.1 220 223 222
169.7 -49.8 79.5 163 163 163
17.8 -6.7 11.1 220 223 222
17.7 -6.6 10.9 220 223 222
19.6 -6.8 11.2 220 223 222
19.5 -6.7 11.1 220 223 222
135.0 -161.3 278.2 225 225 225
120.2 -137.1 236.5 225 225 225
17.9 -6.5 11.2 220 223 222
17.6 -6.3 10.9 220 223 222
19.5 -6.5 11.2 220 223 222
19.5 -6.4 11.1 222 224 224
19.5 -6.3 10.9 222 224 224
195.6 -47.9 82.6 202 202 202
115.9 -126.8 227.9 226 226 226
89.0 -93.2 167.4 225 225 225
18.0 -6.2 11.2 222 224 224
17.7 -6.1 10.9 222 224 224
19.6 -6.3 11.2 222 224 224
19.5 -6.2 11.1 222 224 224
19.5 -6.1 10.9 221 221 221
192.2 -45.2 81.2 202 202 202
117.7 -129.3 242.5 226 226 226
106.9 -112.1 210.2 226 226 226
85.2 -85.5 160.3 226 226 226
18.1 -6.1 11.4 221 221 221
17.7 -5.8 10.9 221 221 221
19.5 -6.1 11.4 221 221 221
19.6 -6.0 11.3 221 221 221
19.5 -5.9 11.0 221 221 221
19.5 -5.8 10.9 221 221 221
198.0 -45.0 84.4 199 199 199
193.1 -43.5 81.5 203 203 203
123.3 -123.7 242.5 226 226 226
17.6 -5.5 10.8 221 221 221
17.4 -5.4 10.5 222 222 222
19.5 -5.6 11.1 222 222 222
19.3 -5.5 10.8 222 222 222
187.1 -40.7 79.8 203 203 203
186.6 -40.2 78.8 203 203 203
126.5 -121.2 248.9 222 222 222
17.5 -5.2 10.8 222 222 222
19.3 -5.2 10.8 222 222 222
153.0 -32.1 65.9 200 200 200
187.1 -38.9 79.8 200 200 200
184.3 -37.9 77.8 203 203 203
203.7 -39.2 80.5 65 65 65
120.2 -109.6 236.5 225 225 225
17.5 -5.0 10.8 224 224 224
17.2 -4.8 10.3 224 224 224
19.3 -5.0 10.8 221 221 221
22.7 -3.4 11.4 226 226 226
22.7 -3.2 11.5 224 224 224
22.8 -3.2 11.4 224 224 224
23.1 -3.2 11.5 224 224 224
23.4 -3.2 11.5 226 226 226
22.9 -2.9 11.5 225 225 225
23.2 -2.9 11.5 225 225 225
23.5 -2.9 11.5 221 221 221
23.7 -2.9 11.5 221 221 221
22.7 -2.7 11.5 225 225 225
22.9 -2.6 11.5 225 225 225
23.2 -2.7 11.5 227 227 227
23.5 -2.7 11.5 222 222 222
23.7 -2.7 11.5 217 220 219
570.9 -54.7 236.5 229 232 231
618.3 -57.5 248.9 111 113 112
603.9 -54.7 236.5 62 62 62
623.5 -47.0 203.4 56 55 54
22.8 -2.4 11.4 222 222 222
23.7 -2.4 11.5 217 220 219
563.8 -48.6 233.5 230 230 230
555.5 -47.4 227.9 232 234 234
554.2 -46.8 225.2 230 230 230
580.1 -48.6 233.5 113 114 113
600.4 -49.8 239.4 87 89 88
598.4 -49.2 236.5 69 69 69
575.1 -46.8 225.2 62 62 62
724.5 -51.1 245.7 109 109 109
719.3 -49.2 236.5 58 58 58
623.5 -42.3 203.4 56 55 54
743.0 -48.6 233.5 82 84 84
767.3 -49.8 239.4 67 67 67
782.8 -50.4 242.5 27 27 27
768.7 -49.2 236.5 99 101 101
22.8 -2.1 11.4 224 224 224
23.7 -2.1 11.5 224 224 224
557.0 -42.6 230.7 226 226 226
542.5 -41.1 222.5 230 233 232
506.0 -38.0 205.6 216 219 218
566.1 -42.1 227.9 108 108 108
608.1 -44.8 242.5 88 90 89
583.8 -42.6 230.7 65 67 66
555.3 -40.2 217.4 58 59 59
734.0 -46.0 248.9 110 110 110
737.7 -44.8 242.5 58 58 58
616.8 -37.2 201.2 53 52 51
768.7 -46.0 248.9 50 50 50
733.9 -42.6 230.7 79 79 79
767.3 -44.2 239.4 67 67 67
763.2 -43.7 236.5 29 29 29
22.8 -1.8 11.4 224 224 224
475.7 -31.8 197.0 226 226 226
439.1 -29.1 180.2 226 226 226
427.1 -28.0 173.5 207 207 207
469.9 -30.5 189.2 105 105 105
498.6 -31.8 197.0 63 65 65
492.9 -31.2 193.0 64 66 66
420.2 -26.3 163.1 75 76 76
871.6 -47.7 295.6 110 110 110
573.7 -31.2 193.0 110 110 110
871.9 -46.3 286.6 58 58 58
585.7 -30.8 191.1 56 55 54
626.9 -31.8 197.0 75 75 75
475.7 -27.2 197.0 216 219 218
435.0 -24.7 178.5 212 213 212
423.2 -23.8 172.0 215 215 215
484.4 -26.9 195.0 95 95 95
492.9 -26.7 193.0 64 64 64
885.5 -41.5 300.3 103 103 103
591.7 -26.7 193.0 54 53 52
626.9 -27.2 197.0 74 73 71
485.9 -23.1 201.2 207 207 207
503.2 -22.7 197.0 65 67 66
610.3 -22.9 199.1 52 52 52
626.9 -22.7 197.0 80 80 80
1226.3 -17.8 394.1 34 34 34
80.7 2.0 21.6 88 88 88
80.7 2.0 21.3 84 83 81
83.3 2.6 22.3 87 86 84
82.4 2.6 21.9 96 99 98
82.6 2.6 21.8 96 99 98
83.0 2.6 21.8 152 154 154
84.9 3.2 22.7 86 85 83
84.5 3.2 22.5 91 91 91
84.7 3.2 22.4 91 91 91
86.1 3.7 22.7 97 97 97
102.3 5.1 27.0 98 100 100
102.1 5.0 26.8 90 90 90
103.2 5.7 27.3 98 100 100
103.2 5.7 27.1 74 73 71
103.3 5.7 26.9 176 179 178
103.8 6.4 27.3 87 87 85
104.4 7.0 27.4 177 180 179
104.6 7.7 27.5 128 130 129
-84.1 26.6 47.5 87 87 87
-81.6 26.1 46.7 89 89 89
-364.5 86.1 147.8 139 141 140
-324.2 85.4 146.6 83 82 80
-311.2 82.8 142.2 85 85 85
-309.2 84.1 144.4 93 92 91
-312.0 86.7 148.9 105 105 105
-266.3 85.4 146.6 96 95 94
-288.5 95.0 163.1 97 97 97
-258.1 86.1 147.8 100 100 100
-250.7 89.6 153.8 134 136 135
-231.7 95.0 163.1 118 118 118
-203.4 84.7 145.5 99 99 99
-203.1 86.1 147.8 89 89 87
-195.9 87.4 150.1 80 83 82
-176.9 80.4 138.1 85 85 85
-172.5 79.8 137.1 230 233 232
-152.6 84.7 145.5 67 67 67
-120.0 88.1 151.3 122 122 122
-113.8 86.1 147.8 111 113 112
-107.0 83.5 143.3 108 110 110
-405.5 100.5 165.9 128 130 129
-399.9 105.1 173.5 139 139 139
-345.2 91.6 151.3 99 101 101
-354.6 101.4 167.4 106 106 106
-305.5 103.2 170.4 100 100 100
-312.8 107.1 176.8 100 100 100
-284.8 98.8 163.1 101 103 103
-277.8 103.2 170.4 134 137 136
-251.2 107.1 176.8 127 127 127
-224.0 97.1 160.3 89 89 87
-218.5 96.3 159.0 77 77 77
-171.7 101.4 167.4 66 67 65
-125.6 98.8 163.1 112 114 113
93.7 102.3 168.9 24 24 24
95.1 99.6 164.5 54 54 54
-825.3 192.7 295.6 42 42 42
-818.4 192.7 295.6 36 37 36
-811.5 192.7 295.6 38 38 38
-804.7 192.7 295.6 34 33 32
-797.8 192.7 295.6 85 85 85
-790.9 192.7 295.6 126 128 127
-772.0 189.8 291.0 126 126 126
-765.2 189.8 291.0 118 120 119
-758.5 189.8 291.0 115 114 114
-751.7 189.8 291.0 112 112 112
-744.9 189.8 291.0 115 114 114
-738.2 189.8 291.0 117 117 117
-747.6 195.8 300.3 119 121 120
-729.1 192.7 295.6 119 121 120
-722.2 192.7 295.6 121 123 122
-704.3 189.8 291.0 124 124 124
-708.5 192.7 295.6 120 122 121
-701.6 192.7 295.6 121 123 122
-694.7 192.7 295.6 121 123 122
-687.9 192.7 295.6 158 158 158
-670.5 189.8 291.0 164 164 164
-616.3 176.2 270.2 109 109 109
-653.5 192.7 295.6 107 107 107
-639.8 192.7 295.6 114 116 115
-643.0 195.8 300.3 117 117 117
-626.0 192.7 295.6 124 126 125
-612.3 192.7 295.6 136 138 137
-605.4 192.7 295.6 150 152 152
-598.6 192.7 295.6 172 172 172
-591.7 192.7 295.6 174 174 174
-584.8 192.7 295.6 174 174 174
-569.1 189.8 291.0 163 163 163
-562.3 189.8 291.0 141 141 141
-555.5 189.8 291.0 134 137 136
-557.3 192.7 295.6 124 127 126
-550.5 192.7 295.6 124 126 125
-536.7 192.7 295.6 118 118 118
-529.9 192.7 295.6 123 125 124
-523.0 192.7 295.6 117 117 117
-516.1 192.7 295.6 112 114 113
-509.3 192.7 295.6 110 110 110
-556.4 216.4 331.9 114 116 115
-488.6 192.7 295.6 124 127 126
-467.2 186.9 286.6 131 131 131
-467.6 189.8 291.0 134 136 135
-483.1 199.0 305.1 140 140 140
-468.5 195.8 300.3 145 145 144
-454.3 192.7 295.6 155 155 155
-454.5 195.8 300.3 173 175 175
-447.5 195.8 300.3 178 178 178
-427.0 189.8 291.0 154 154 154
-420.2 189.8 291.0 156 156 156
-419.9 192.7 295.6 134 136 135
-406.7 189.8 291.0 144 144 144
-366.2 173.7 266.4 123 125 124
-393.2 189.8 291.0 121 121 121
-433.1 212.7 326.1 108 108 108
-385.6 192.7 295.6 90 90 90
-372.9 189.8 291.0 91 91 91
-371.9 192.7 295.6 100 100 100
-365.0 192.7 295.6 97 96 94
-358.1 192.7 295.6 77 80 79
-351.2 192.7 295.6 41 41 39
-344.4 192.7 295.6 28 28 28
-337.5 192.7 295.6 103 105 105
-330.6 192.7 295.6 114 116 115
-323.8 192.7 295.6 131 131 131
-316.9 192.7 295.6 132 135 134
-310.0 192.7 295.6 132 135 134
-303.2 192.7 295.6 124 124 124
-296.3 192.7 295.6 94 97 96
-289.4 192.7 295.6 149 149 149
-282.5 192.7 295.6 143 142 141
-275.7 192.7 295.6 130 130 130
-268.8 192.7 295.6 108 110 110
-261.9 192.7 295.6 164 164 164
-255.1 192.7 295.6 164 167 166
-248.2 192.7 295.6 151 153 153
-241.3 192.7 295.6 86 86 86
-234.5 192.7 295.6 148 150 150
-227.6 192.7 295.6 111 113 112
-220.7 192.7 295.6 104 104 104
-213.8 192.7 295.6 96 99 98
-207.0 192.7 295.6 99 99 99
-176.7 176.2 270.2 68 71 70
-154.9 160.2 245.7 126 129 128
-189.4 220.3 337.8 163 163 163
-158.9 192.7 295.6 164 164 164
-147.4 186.9 286.6 168 168 168
-145.1 192.7 295.6 214 214 214
-138.3 192.7 295.6 207 210 209
-131.4 192.7 295.6 215 215 215
-124.5 192.7 295.6 212 213 212
-117.7 192.7 295.6 211 211 211
-107.4 186.9 286.6 206 209 208
-107.3 199.0 305.1 210 210 210
-101.8 202.2 310.1 220 220 220
-93.1 199.0 305.1 225 225 225
-82.0 189.8 291.0 231 231 231
-69.6 192.7 295.6 236 236 236
-60.8 186.9 286.6 236 236 236
-49.0 192.7 295.6 235 235 235
-28.4 192.7 295.6 234 234 234
-21.2 189.8 291.0 229 229 229
-14.4 189.8 291.0 229 229 229
-8.1 202.2 310.1 220 220 220
-0.9 195.8 300.3 206 209 208
5.9 189.8 291.0 204 204 204
11.9 178.8 274.1 204 204 204
89.8 195.8 300.3 53 53 53
145.5 241.9 370.9 56 56 56
117.3 184.1 282.3 61 63 61
112.1 166.7 255.6 67 67 67
164.9 202.2 310.1 67 69 67
131.2 154.2 236.5 26 26 26
120.2 135.5 207.9 59 60 58
138.7 150.4 230.7 71 72 70
184.6 192.7 295.6 70 72 69
-1003.6 255.5 378.3 119 121 120
-994.8 255.5 378.3 116 116 116
-940.8 250.5 370.9 119 121 120
-950.8 255.5 378.3 119 121 120
-981.3 266.1 394.1 120 122 121
-952.3 260.7 386.0 120 122 121
-838.2 245.7 363.8 160 160 160
-880.5 260.7 386.0 108 108 108
-853.6 260.7 386.0 113 115 114
-811.5 250.5 370.9 121 121 121
-835.6 260.7 386.0 126 129 128
-826.7 260.7 386.0 137 139 138
-801.3 255.5 378.3 137 139 138
-792.5 255.5 378.3 148 148 148
-757.4 255.5 378.3 181 181 181
-725.3 250.5 370.9 181 181 181
-695.8 255.5 378.3 143 143 142
-651.8 255.5 378.3 115 117 116
-669.8 266.1 394.1 114 116 115
-647.2 260.7 386.0 121 121 121
-638.2 260.7 386.0 124 126 125
-592.9 245.7 363.8 128 128 128
-584.5 245.7 363.8 132 132 132
-624.0 266.1 394.1 138 140 139
-614.9 266.1 394.1 204 204 204
-593.4 260.7 386.0 198 198 198
-596.6 266.1 394.1 210 210 210
-575.4 260.7 386.0 224 226 226
-544.2 250.5 370.9 235 235 235
-535.6 250.5 370.9 239 239 239
-537.5 255.5 378.3 238 238 238
-518.4 250.5 370.9 238 238 238
-481.4 236.6 350.3 230 230 230
-493.6 255.5 378.3 112 114 113
-475.3 250.5 370.9 117 117 117
-476.0 255.5 378.3 120 120 120
-467.2 255.5 378.3 126 126 126
-458.4 255.5 378.3 87 86 84
-449.6 255.5 378.3 33 32 30
-440.8 255.5 378.3 29 31 29
-432.0 255.5 378.3 147 147 147
-388.0 255.5 378.3 87 89 88
-379.2 255.5 378.3 112 112 112
-370.4 255.5 378.3 160 160 160
-361.7 255.5 378.3 138 138 138
-352.9 255.5 378.3 123 125 124
-344.1 255.5 378.3 131 131 131
-335.3 255.5 378.3 166 169 168
-326.5 255.5 378.3 165 168 167
-317.7 255.5 378.3 154 156 156
-308.9 255.5 378.3 78 78 78
-246.3 245.7 363.8 89 89 89
-257.6 266.1 394.1 85 85 85
-243.4 260.7 386.0 115 115 115
-239.3 266.1 394.1 154 154 154
-207.5 260.7 386.0 166 169 168
-190.8 250.5 370.9 194 194 194
-185.8 255.5 378.3 222 222 222
-177.0 255.5 378.3 206 206 206
-168.2 255.5 378.3 208 211 210
-159.4 255.5 378.3 211 211 211
-150.6 255.5 378.3 211 211 211
-141.8 255.5 378.3 210 210 210
-138.6 266.1 394.1 205 208 207
-129.4 266.1 394.1 215 215 215
-120.2 266.1 394.1 220 220 220
-104.5 250.5 370.9 226 226 226
-87.3 250.5 370.9 235 235 235
-77.2 245.7 363.8 234 234 234
-70.1 250.5 370.9 234 234 234
-62.7 255.5 378.3 234 234 234
-52.8 250.5 370.9 234 234 234
-26.4 245.7 363.8 227 227 227
-19.1 260.7 386.0 220 220 220
-10.3 266.1 394.1 205 208 207
15.5 241.0 356.9 206 206 206
26.3 266.1 394.1 181 184 183
35.5 266.1 394.1 189 189 189
111.0 250.5 370.9 57 58 56
142.9 232.3 343.9 63 64 62
136.0 209.4 310.1 69 69 69
191.2 266.1 394.1 75 76 76
200.4 266.1 394.1 78 80 78
205.2 260.7 386.0 75 75 75
164.0 199.6 295.6 25 25 25
189.6 212.9 315.3 73 74 72
231.7 250.5 370.9 73 74 72
39.4 17.2 11.0 108 108 108
