ply
format ascii 1.0
element vertex 2688
property float x
property float y
property float z
property uchar red
property uchar green
property uchar blue
end_header
98.4 -163.7 65.2 154 156 156
99.2 -162.5 64.8 154 156 156
101.0 -163.1 65.0 154 156 156
103.3 -164.2 65.5 155 158 157
104.8 -164.2 65.5 155 158 157
105.9 -163.7 65.2 156 159 158
73.5 -53.6 21.4 97 100 99
73.7 -53.4 21.3 97 100 99
73.7 -53.1 21.2 97 100 99
74.4 -53.2 21.2 95 98 97
75.1 -53.4 21.3 95 98 97
75.5 -53.3 21.3 95 98 97
76.0 -53.3 21.3 95 98 97
76.7 -53.4 21.3 90 90 90
77.1 -53.4 21.3 136 136 136
77.8 -53.5 21.3 175 175 175
78.2 -53.4 21.3 195 198 197
78.1 -53.1 21.2 195 198 197
309.5 -691.5 278.2 163 163 163
352.3 -770.8 310.1 163 163 163
353.7 -758.4 305.1 163 163 163
366.7 -770.8 310.1 160 160 160
330.5 -681.5 274.1 161 161 161
357.6 -723.4 291.0 161 161 161
408.4 -810.7 326.1 161 161 161
339.8 -662.3 266.4 161 161 161
361.3 -691.5 278.2 161 161 161
101.0 -161.6 65.0 159 159 159
103.3 -162.7 65.5 160 160 160
104.8 -162.7 65.5 160 160 160
129.0 -98.0 39.4 105 105 105
126.8 -95.6 38.4 105 105 105
72.9 -52.4 21.1 97 100 99
72.3 -51.6 20.7 97 100 99
73.5 -52.1 21.0 95 98 97
76.2 -52.6 21.2 95 98 97
76.5 -52.5 21.1 178 178 178
77.3 -52.7 21.2 156 156 156
64.6 -42.7 17.2 198 201 200
146.2 -310.5 126.1 163 163 163
144.3 -300.5 122.0 164 164 164
154.0 -308.5 125.3 164 164 164
150.9 -296.7 120.5 164 164 164
168.7 -325.7 132.3 164 164 164
148.9 -282.3 114.6 167 167 167
124.9 -194.9 79.1 160 160 160
124.1 -190.9 77.5 160 160 160
61.9 -78.2 31.7 159 162 161
116.4 -86.9 35.3 107 107 107
108.3 -80.3 32.6 105 105 105
70.8 -50.4 20.5 97 100 99
84.1 -59.4 24.1 97 100 99
74.1 -50.4 20.5 186 186 186
60.6 -40.9 16.6 156 156 156
64.5 -42.2 17.1 162 165 164
62.4 -40.6 16.5 211 211 211
62.1 -40.2 16.3 186 186 186
117.5 -193.1 79.1 162 162 162
118.4 -191.5 78.5 162 162 162
124.3 -192.3 78.8 163 163 163
125.7 -191.5 78.5 163 163 163
121.4 -182.4 74.8 164 164 164
55.0 -75.0 30.8 158 161 160
55.2 -74.4 30.5 158 161 160
61.9 -77.4 31.7 159 162 161
60.5 -74.8 30.7 159 162 161
103.2 -75.8 31.1 105 105 105
82.4 -59.3 24.3 103 102 100
77.9 -55.7 22.8 97 100 99
59.3 -39.9 16.4 192 192 192
59.5 -39.8 16.3 158 158 158
59.4 -39.5 16.2 195 198 197
59.2 -39.1 16.0 195 198 197
62.1 -40.2 16.5 211 211 211
61.9 -39.9 16.3 203 203 203
61.6 -39.5 16.2 195 195 195
62.4 -39.7 16.3 214 214 214
50.2 -145.6 60.2 165 168 167
51.6 -145.6 60.2 165 168 167
53.0 -145.6 60.2 164 164 164
54.1 -144.6 59.9 165 165 165
55.7 -145.1 60.1 165 165 165
57.4 -146.0 60.4 165 165 165
59.0 -146.5 60.6 165 165 165
60.2 -146.0 60.4 165 165 165
61.0 -144.6 59.9 165 165 165
63.4 -147.0 60.8 165 165 165
64.6 -146.5 60.6 166 166 166
65.6 -145.6 60.2 166 166 166
67.0 -145.6 60.2 166 166 166
68.7 -146.0 60.4 166 166 166
70.3 -146.5 60.6 166 166 166
71.2 -145.6 60.2 166 166 166
73.6 -147.4 61.0 166 166 166
75.2 -147.9 61.2 166 166 166
74.7 -144.2 59.7 166 166 166
76.8 -145.6 60.2 167 167 167
78.0 -145.1 60.1 167 167 167
83.4 -149.8 62.0 167 167 167
83.5 -147.4 61.0 167 167 167
86.3 -147.4 61.0 164 164 164
85.3 -143.3 59.3 168 168 168
91.7 -144.6 59.9 162 162 162
91.9 -142.8 59.1 162 162 162
96.0 -147.0 60.8 166 166 166
131.1 -197.8 81.9 166 166 166
56.1 -75.9 31.4 163 163 163
57.4 -76.7 31.7 166 166 166
59.0 -77.7 32.2 159 162 161
65.1 -81.6 33.8 158 161 160
63.8 -79.1 32.7 159 162 161
61.9 -75.8 31.4 159 162 161
99.9 -72.7 30.1 103 102 100
93.4 -67.5 27.9 103 102 100
78.2 -55.3 22.9 97 100 99
69.6 -48.6 20.1 97 100 99
66.5 -46.1 19.1 94 94 94
58.5 -39.0 16.1 195 198 197
58.6 -38.8 16.1 162 165 164
58.4 -38.5 15.9 198 201 200
58.0 -38.0 15.7 195 198 197
61.9 -39.8 16.5 206 206 206
60.5 -38.6 16.0 181 184 183
60.2 -38.2 15.8 217 217 217
60.4 -38.1 15.8 217 217 217
60.8 -123.0 51.4 168 170 169
63.7 -124.0 51.8 168 170 169
64.7 -123.7 51.7 169 171 170
63.2 -118.5 49.5 169 171 170
79.5 -141.4 59.1 169 171 170
71.3 -124.7 52.1 169 171 170
71.5 -123.0 51.4 169 171 170
72.7 -123.0 51.4 169 171 170
127.9 -203.0 84.8 168 168 168
130.9 -198.5 83.0 171 173 173
131.1 -195.9 81.9 169 169 169
128.0 -188.6 78.8 169 169 169
56.6 -75.8 31.7 169 169 169
59.7 -77.9 32.6 167 167 167
65.3 -80.1 33.5 161 164 163
92.8 -66.4 27.7 103 102 100
85.8 -61.0 25.5 103 102 100
83.0 -58.6 24.5 97 100 99
64.7 -44.4 18.6 97 100 99
57.5 -36.1 15.1 217 217 217
56.9 -35.6 14.9 219 219 219
58.3 -108.3 45.7 171 173 173
68.5 -118.6 50.0 171 173 173
64.4 -109.6 46.3 171 173 173
64.2 -107.5 45.4 171 173 173
138.3 -204.7 86.4 171 173 173
133.0 -194.0 81.9 173 175 175
55.5 -73.6 31.1 169 169 169
59.1 -76.4 32.2 173 173 173
62.0 -74.5 31.4 166 166 166
80.1 -56.0 23.6 97 100 99
62.2 -42.0 17.7 95 98 97
48.5 -87.7 37.4 181 181 181
47.2 -83.7 35.7 179 179 179
55.6 -92.3 39.3 171 173 173
55.2 -90.0 38.4 177 177 177
211.5 -319.3 136.1 180 180 180
179.8 -267.4 114.0 173 175 175
54.9 -73.0 31.1 180 180 180
55.7 -73.1 31.2 173 175 175
57.8 -75.0 32.0 176 179 178
59.1 -75.6 32.2 174 176 176
44.1 -77.5 33.4 198 198 198
43.0 -74.2 32.0 202 202 202
48.1 -77.8 33.5 198 198 198
47.0 -74.7 32.2 202 202 202
217.8 -330.4 142.2 202 202 202
210.0 -313.9 135.1 198 198 198
184.2 -271.3 116.8 199 199 199
147.0 -213.3 91.8 199 199 199
194.8 -274.7 118.2 200 200 200
60.1 -76.2 32.8 203 203 203
67.5 -46.6 20.0 103 102 100
67.4 -46.2 19.9 103 102 100
67.2 -45.7 19.7 97 100 99
42.7 -74.2 32.3 202 202 202
41.0 -70.2 30.5 202 202 202
40.8 -68.5 29.8 202 202 202
45.6 -73.0 31.7 202 202 202
45.5 -71.7 31.2 202 202 202
154.6 -225.4 98.0 203 203 203
142.8 -205.2 89.2 203 203 203
138.4 -196.0 85.2 203 203 203
187.7 -262.1 114.0 203 203 203
173.6 -239.0 103.9 204 204 204
150.4 -204.2 88.8 204 204 204
65.5 -44.7 19.4 105 105 105
64.9 -44.0 19.1 105 105 105
64.8 -43.6 19.0 103 102 100
64.5 -43.2 18.8 103 102 100
37.4 -65.6 28.8 204 204 204
38.7 -64.4 28.3 204 204 204
47.6 -76.6 33.7 204 204 204
44.7 -69.7 30.6 204 204 204
43.0 -65.9 29.0 204 204 204
42.5 -64.2 28.2 204 204 204
140.7 -206.1 90.5 204 204 204
137.5 -198.5 87.2 205 205 205
134.0 -190.6 83.7 205 205 205
131.9 -184.8 81.2 205 205 205
154.2 -210.1 92.3 204 204 204
144.3 -194.0 85.2 204 204 204
127.9 -169.5 74.5 204 204 204
317.9 -237.9 104.5 123 123 123
270.9 -201.2 88.4 120 120 120
63.5 -42.6 18.7 107 107 107
62.9 -42.0 18.4 105 105 105
62.5 -41.4 18.2 103 102 100
44.1 -75.2 33.4 207 207 207
40.7 -68.2 30.3 207 207 207
38.8 -63.8 28.3 207 207 207
47.0 -74.8 33.2 207 207 207
47.4 -74.3 33.0 207 207 207
44.9 -69.3 30.8 207 207 207
43.6 -66.2 29.4 207 207 207
42.4 -63.4 28.1 207 207 207
135.0 -192.9 85.6 205 205 205
129.4 -182.2 80.8 205 205 205
128.0 -177.6 78.8 205 205 205
123.2 -168.5 74.8 205 205 205
150.5 -203.0 90.1 206 206 206
143.7 -191.1 84.8 206 206 206
129.4 -169.8 75.4 206 206 206
326.9 -242.2 107.5 124 127 126
263.6 -193.7 86.0 124 127 126
63.0 -41.9 18.6 110 110 110
62.8 -41.4 18.4 110 110 110
62.5 -41.0 18.2 107 107 107
37.5 -64.4 28.9 207 207 207
39.7 -65.8 29.5 207 207 207
38.8 -63.2 28.4 207 207 207
44.7 -69.4 31.1 207 207 207
44.3 -67.6 30.3 207 207 207
43.1 -64.7 29.0 207 207 207
42.3 -62.6 28.1 207 207 207
128.9 -179.5 80.5 205 205 205
126.9 -174.3 78.2 208 208 208
151.2 -201.8 90.5 205 205 205
144.3 -190.0 85.2 206 206 206
136.5 -177.2 79.5 206 206 206
38.3 -65.1 29.5 206 206 206
40.1 -65.7 29.8 206 206 206
39.5 -63.7 28.9 206 206 206
44.0 -68.7 31.1 206 206 206
44.5 -68.2 30.9 206 206 206
44.9 -67.9 30.8 206 206 206
43.4 -64.5 29.2 206 206 206
42.7 -62.5 28.3 206 206 206
125.4 -170.4 77.2 207 207 207
25.5 -26.1 11.8 162 165 164
25.1 -25.4 11.5 162 165 164
38.6 -64.8 29.7 203 203 203
40.7 -67.2 30.8 206 206 206
40.7 -66.1 30.3 206 206 206
40.4 -64.5 29.6 209 209 209
41.5 -65.0 29.8 209 209 209
43.8 -67.6 31.0 206 206 206
44.3 -67.3 30.8 206 206 206
44.4 -66.4 30.4 206 206 206
44.2 -64.9 29.7 206 206 206
44.1 -63.8 29.2 206 206 206
45.0 -64.1 29.4 206 206 206
-28.9 -22.4 10.4 47 47 47
-28.7 -22.4 10.4 45 44 43
-28.5 -22.4 10.4 45 44 43
-28.2 -22.4 10.4 47 47 47
-28.0 -22.4 10.4 47 47 47
-27.7 -22.4 10.4 47 47 47
-27.5 -22.4 10.4 47 47 47
-27.3 -22.4 10.4 47 47 47
-27.0 -22.4 10.4 47 47 47
-26.8 -22.4 10.4 45 44 43
-26.5 -22.4 10.4 45 44 43
-26.3 -22.4 10.4 45 44 43
-26.0 -22.4 10.4 46 46 46
-25.8 -22.4 10.4 44 43 42
-25.6 -22.4 10.4 44 43 42
-25.3 -22.4 10.4 41 41 41
-25.1 -22.4 10.4 41 41 41
-24.8 -22.4 10.4 41 41 41
-24.6 -22.4 10.4 39 39 39
-24.4 -22.4 10.4 41 41 41
-24.1 -22.4 10.4 41 41 41
-23.9 -22.4 10.4 41 41 41
-23.6 -22.4 10.4 39 39 39
-23.4 -22.4 10.4 39 39 39
-23.2 -22.4 10.4 41 41 41
-22.9 -22.4 10.4 41 41 41
-22.7 -22.4 10.4 41 41 41
-22.4 -22.4 10.4 44 43 42
-22.2 -22.4 10.4 44 43 42
-22.0 -22.4 10.4 55 55 55
-21.7 -22.4 10.4 59 60 58
-21.5 -22.4 10.4 76 76 74
-21.2 -22.4 10.4 90 90 90
-20.9 -22.3 10.3 90 90 90
-20.5 -22.4 10.4 99 99 99
-20.3 -22.4 10.4 103 103 103
-20.0 -22.4 10.4 105 105 105
-19.8 -22.4 10.4 105 105 105
-19.1 -22.4 10.4 104 106 106
-18.8 -22.4 10.4 107 109 109
-18.6 -22.4 10.4 111 111 111
-18.4 -22.4 10.4 112 112 112
-18.1 -22.4 10.4 115 114 114
-17.9 -22.4 10.4 112 112 112
-17.4 -22.4 10.4 116 116 116
-17.2 -22.4 10.4 115 115 115
-16.9 -22.4 10.4 116 118 117
-16.4 -22.4 10.4 118 120 119
-16.2 -22.4 10.4 118 120 119
-14.0 -21.7 10.0 126 126 126
-14.2 -22.3 10.3 126 126 126
-13.8 -22.4 10.4 127 127 127
43.1 -70.5 32.6 211 211 211
43.0 -69.0 32.0 208 208 208
45.4 -69.4 32.1 208 208 208
45.0 -67.5 31.3 211 211 211
45.2 -66.8 30.9 211 211 211
44.9 -65.4 30.3 211 211 211
44.8 -64.2 29.7 211 211 211
45.6 -64.4 29.8 208 208 208
51.6 -68.7 31.8 206 206 206
28.4 -34.8 16.1 207 207 207
27.8 -33.6 15.6 205 205 205
24.6 -26.6 12.3 206 206 206
25.0 -26.8 12.4 206 206 206
-26.6 -23.5 11.0 42 42 42
-25.0 -23.4 11.0 40 40 40
-22.9 -23.4 10.9 45 44 43
-22.7 -23.4 10.9 51 51 51
-22.2 -23.2 10.9 55 55 55
-22.3 -23.5 11.0 65 65 65
-21.9 -23.3 10.9 85 85 85
-21.6 -23.3 10.9 85 87 87
-21.5 -23.5 11.0 95 98 97
-21.1 -23.4 10.9 93 93 93
-20.9 -23.4 11.0 104 104 104
-19.9 -23.4 11.0 106 108 108
-19.5 -23.3 10.9 106 108 108
-19.4 -23.4 10.9 106 108 108
-19.1 -23.4 10.9 108 110 110
-18.7 -23.6 11.0 112 112 112
-18.2 -23.3 10.9 112 112 112
-18.1 -23.3 10.9 113 114 113
-17.6 -23.4 11.0 115 115 115
-15.3 -23.3 10.9 124 124 124
-9.9 -23.3 10.9 137 137 137
-9.7 -23.3 10.9 138 140 139
-9.5 -23.4 11.0 139 139 139
-9.3 -23.6 11.0 141 143 142
8.7 -23.5 11.0 211 211 211
8.9 -23.4 11.0 208 208 208
9.1 -23.4 10.9 208 208 208
9.4 -23.4 11.0 211 211 211
9.7 -23.5 11.0 208 208 208
10.0 -23.6 11.0 208 208 208
10.2 -23.6 11.0 208 208 208
10.4 -23.4 10.9 208 208 208
11.2 -23.4 11.0 208 208 208
11.7 -23.4 10.9 208 208 208
44.7 -72.2 33.8 208 208 208
43.1 -68.5 32.1 208 208 208
46.9 -72.1 33.7 208 208 208
46.4 -70.1 32.8 208 208 208
45.8 -68.1 31.8 208 208 208
45.9 -67.2 31.4 208 208 208
47.9 -66.8 31.3 208 208 208
49.4 -67.9 31.8 208 208 208
52.6 -70.2 32.8 205 205 205
53.5 -70.4 33.0 206 206 206
54.7 -70.9 33.2 206 206 206
28.6 -34.6 16.2 207 207 207
27.9 -33.4 15.6 207 207 207
27.7 -32.7 15.3 205 205 205
24.9 -26.6 12.5 205 205 205
25.3 -26.8 12.5 205 205 205
-31.2 -23.4 11.1 47 48 47
-31.0 -23.5 11.1 50 50 50
-30.8 -23.5 11.1 47 48 47
-30.5 -23.5 11.1 47 48 47
-30.3 -23.5 11.1 50 50 50
-30.0 -23.5 11.1 53 52 52
-29.7 -23.5 11.1 53 52 52
-29.5 -23.5 11.1 54 56 54
-29.2 -23.5 11.1 53 52 52
-29.0 -23.5 11.1 47 48 47
-28.7 -23.5 11.1 47 48 47
-28.4 -23.5 11.1 50 50 50
-28.2 -23.5 11.1 50 50 50
-27.9 -23.5 11.1 47 48 47
-27.7 -23.5 11.1 46 45 43
-27.4 -23.5 11.1 46 45 43
-27.1 -23.5 11.1 46 45 43
-26.8 -23.4 11.1 46 45 43
-26.6 -23.5 11.1 42 43 42
-26.4 -23.5 11.1 42 43 42
-26.1 -23.5 11.1 42 43 42
-25.9 -23.5 11.1 41 41 41
-25.6 -23.5 11.1 41 41 41
-25.3 -23.5 11.1 41 41 41
-25.0 -23.5 11.1 41 41 41
-24.8 -23.5 11.1 41 41 41
-24.6 -23.5 11.1 42 43 42
-24.3 -23.5 11.1 42 43 42
-24.1 -23.5 11.1 42 43 42
-23.8 -23.5 11.1 42 43 42
-23.6 -23.5 11.1 42 43 42
-23.3 -23.5 11.1 43 43 43
-23.0 -23.4 11.1 43 43 43
-22.7 -23.4 11.1 47 48 47
-22.5 -23.5 11.1 49 49 49
-22.3 -23.5 11.1 49 49 49
-22.0 -23.5 11.1 56 56 56
-21.7 -23.4 11.1 69 69 69
-21.4 -23.4 11.1 87 89 88
-21.2 -23.5 11.1 90 90 90
-21.0 -23.5 11.1 93 93 93
-20.7 -23.5 11.1 97 100 99
-20.5 -23.5 11.1 101 101 101
-20.2 -23.5 11.1 101 101 101
-19.9 -23.4 11.1 103 103 103
-19.6 -23.4 11.1 105 105 105
-19.4 -23.4 11.1 105 105 105
-19.1 -23.5 11.1 106 106 106
-18.9 -23.5 11.1 106 106 106
-18.6 -23.5 11.1 107 109 109
-18.3 -23.4 11.1 107 109 109
-18.1 -23.5 11.1 106 108 108
-17.8 -23.4 11.1 109 111 111
-17.5 -23.4 11.0 109 111 111
-17.1 -23.6 11.2 112 112 112
-16.9 -23.5 11.1 115 114 114
-16.6 -23.5 11.1 116 116 116
-16.3 -23.4 11.1 118 118 118
-15.7 -23.4 11.0 119 121 120
-15.5 -23.4 11.1 118 120 119
-15.3 -23.5 11.1 118 120 119
-10.4 -23.5 11.1 131 134 133
-10.0 -23.4 11.0 136 136 136
-9.8 -23.4 11.1 136 136 136
-9.6 -23.4 11.1 136 138 137
-9.3 -23.5 11.1 139 139 139
-9.1 -23.5 11.1 139 141 140
8.6 -23.7 11.2 210 210 210
8.8 -23.5 11.1 212 213 212
9.0 -23.5 11.1 212 213 212
9.2 -23.4 11.1 210 210 210
9.5 -23.5 11.1 210 210 210
9.8 -23.5 11.1 207 207 207
10.0 -23.5 11.1 207 207 207
10.3 -23.5 11.1 207 207 207
10.5 -23.4 11.1 207 207 207
11.3 -23.4 11.1 207 207 207
11.5 -23.4 11.1 207 207 207
44.7 -71.4 33.8 207 207 207
43.1 -67.7 32.0 207 207 207
47.0 -71.4 33.8 207 207 207
46.3 -69.2 32.7 207 207 207
45.6 -67.0 31.7 207 207 207
45.5 -65.9 31.2 207 207 207
48.3 -67.7 32.0 207 207 207
48.0 -66.3 31.4 207 207 207
48.7 -66.2 31.3 207 207 207
52.8 -70.8 33.5 208 208 208
52.5 -69.3 32.8 208 208 208
53.8 -70.0 33.1 208 208 208
54.3 -69.7 33.0 205 205 205
28.0 -33.2 15.7 207 207 207
28.1 -32.8 15.5 204 204 204
25.5 -26.7 12.6 205 205 205
25.7 -26.6 12.6 198 198 198
-31.7 -23.8 11.4 51 51 51
-31.5 -23.8 11.4 51 51 51
-31.2 -23.8 11.4 51 51 51
-30.9 -23.8 11.4 53 53 53
-30.7 -23.8 11.4 53 53 53
-30.4 -23.8 11.4 53 53 53
-30.2 -23.8 11.4 53 53 53
-29.9 -23.8 11.4 53 53 53
-29.6 -23.8 11.4 51 51 51
-29.4 -23.8 11.4 53 53 53
-29.1 -23.8 11.4 53 53 53
-28.9 -23.8 11.4 53 53 53
-28.6 -23.8 11.4 51 51 51
-28.3 -23.8 11.4 48 48 48
-28.1 -23.8 11.4 46 46 44
-27.8 -23.8 11.4 46 46 44
-27.5 -23.8 11.4 46 46 44
-27.3 -23.8 11.4 46 46 44
-27.0 -23.8 11.4 43 43 43
-26.7 -23.8 11.4 43 43 43
-26.5 -23.8 11.4 43 43 43
-26.2 -23.8 11.4 43 43 43
-25.9 -23.8 11.4 42 42 42
-25.6 -23.8 11.4 43 43 43
-25.4 -23.8 11.4 43 43 43
-25.1 -23.8 11.4 43 43 43
-24.9 -23.8 11.4 44 44 44
-24.6 -23.8 11.4 44 44 44
-24.4 -23.8 11.4 42 42 42
-24.1 -23.8 11.4 39 39 39
-23.8 -23.8 11.4 42 42 42
-23.5 -23.7 11.3 42 43 42
-23.3 -23.8 11.4 42 43 42
-22.8 -23.8 11.4 44 44 44
-22.5 -23.8 11.4 47 46 45
-22.2 -23.7 11.3 50 50 50
-22.0 -23.8 11.4 47 46 45
-21.7 -23.8 11.4 40 40 40
-21.5 -23.8 11.4 80 79 78
-21.2 -23.8 11.4 95 95 95
-20.9 -23.8 11.4 95 95 95
-20.6 -23.7 11.3 93 93 93
-20.4 -23.8 11.4 97 100 99
-19.3 -23.8 11.4 103 103 103
-18.5 -23.8 11.4 104 104 104
-17.5 -23.8 11.4 108 110 110
-17.2 -23.8 11.4 108 110 110
-16.9 -23.7 11.3 110 112 111
-15.8 -23.7 11.3 115 115 115
-15.7 -24.0 11.5 117 117 117
-10.6 -23.8 11.4 124 126 125
-10.3 -23.7 11.3 126 126 126
-9.5 -23.7 11.4 134 136 135
8.7 -23.7 11.4 210 210 210
8.9 -23.7 11.3 210 210 210
9.2 -23.7 11.4 210 210 210
10.3 -23.8 11.4 207 207 207
12.1 -27.4 13.1 210 210 210
12.4 -27.2 13.0 207 207 207
11.1 -23.9 11.4 207 207 207
11.4 -23.9 11.4 207 207 207
11.6 -23.8 11.4 207 207 207
44.1 -69.7 33.4 207 207 207
43.0 -66.8 32.0 207 207 207
43.4 -66.2 31.7 207 207 207
45.9 -67.8 32.4 207 207 207
45.7 -66.5 31.8 207 207 207
45.6 -65.3 31.2 207 207 207
47.4 -66.7 31.9 207 207 207
48.6 -67.4 32.2 207 207 207
48.7 -66.5 31.8 207 207 207
49.2 -66.1 31.6 207 207 207
51.5 -68.2 32.6 207 207 207
51.7 -67.5 32.3 207 207 207
53.2 -68.4 32.7 207 207 207
53.8 -68.3 32.7 208 208 208
53.6 -67.0 32.1 208 208 208
55.1 -68.1 32.6 205 205 205
28.5 -33.3 15.9 206 206 206
27.8 -32.1 15.4 206 206 206
-29.9 -29.5 14.3 43 43 43
-29.5 -29.4 14.2 43 43 43
-13.9 -28.1 13.6 115 114 114
-13.3 -27.5 13.3 108 110 110
-13.0 -27.5 13.3 115 114 114
-12.8 -27.7 13.4 112 112 112
10.9 -29.6 14.3 209 209 209
12.2 -29.5 14.3 209 209 209
12.3 -27.5 13.3 209 209 209
12.6 -27.4 13.2 206 206 206
43.3 -67.8 32.8 206 206 206
42.6 -65.4 31.6 206 206 206
42.6 -64.4 31.2 206 206 206
45.5 -66.5 32.2 206 206 206
45.6 -65.5 31.7 206 206 206
45.5 -64.3 31.1 206 206 206
46.3 -64.4 31.2 206 206 206
48.3 -66.2 32.0 206 206 206
48.3 -65.2 31.5 206 206 206
48.7 -64.7 31.3 206 206 206
49.9 -65.4 31.6 207 207 207
51.2 -66.1 32.0 207 207 207
52.6 -67.0 32.4 207 207 207
53.4 -67.0 32.4 207 207 207
53.0 -65.6 31.7 207 207 207
54.5 -66.5 32.2 207 207 207
28.2 -32.2 15.6 206 206 206
-31.4 -29.1 14.2 46 46 46
-31.1 -29.1 14.2 46 46 46
-31.1 -29.4 14.4 46 46 46
-30.8 -29.4 14.4 46 46 46
-30.4 -29.3 14.4 46 46 46
-30.1 -29.4 14.4 46 46 46
-29.7 -29.3 14.4 46 46 46
-15.1 -29.4 14.4 102 104 104
-14.4 -28.8 14.1 111 113 112
-14.1 -28.8 14.1 74 74 74
-13.8 -28.9 14.1 81 81 81
-13.5 -28.9 14.1 73 73 73
-11.7 -29.2 14.3 36 35 34
-11.3 -29.1 14.3 97 100 99
-11.0 -29.1 14.2 188 188 188
7.6 -29.1 14.2 209 209 209
7.9 -29.1 14.3 209 209 209
9.0 -29.5 14.4 209 209 209
9.3 -29.5 14.4 209 209 209
9.6 -29.3 14.3 209 209 209
10.0 -29.4 14.4 209 209 209
10.4 -29.5 14.4 209 209 209
10.7 -29.5 14.4 209 209 209
11.0 -29.3 14.4 209 209 209
11.3 -29.2 14.3 209 209 209
11.5 -29.1 14.2 209 209 209
12.0 -29.4 14.4 209 209 209
14.7 -29.5 14.4 203 203 203
42.6 -64.8 31.7 209 209 209
45.1 -65.2 31.9 206 206 206
45.0 -63.9 31.3 206 206 206
45.0 -63.0 30.8 206 206 206
45.4 -62.6 30.6 209 209 209
47.4 -64.2 31.4 206 206 206
47.6 -63.6 31.1 206 206 206
47.5 -62.5 30.6 206 206 206
50.2 -64.1 31.4 206 206 206
53.0 -65.8 32.2 207 207 207
52.1 -63.7 31.2 207 207 207
53.2 -64.2 31.4 207 207 207
-31.6 -29.5 14.6 47 47 47
-31.2 -29.5 14.6 47 47 47
-30.9 -29.5 14.6 47 47 47
-30.6 -29.5 14.6 47 47 47
-13.6 -28.7 14.2 26 26 26
-10.0 -24.7 12.2 33 35 34
-11.3 -28.8 14.2 117 119 118
-9.1 -24.6 12.2 182 182 182
-8.8 -24.6 12.2 180 180 180
-8.5 -24.4 12.1 218 221 220
-8.0 -24.6 12.2 217 217 217
-7.4 -24.6 12.2 212 213 212
-7.1 -24.6 12.2 212 213 212
-1.5 -24.8 12.3 196 196 196
-1.2 -24.6 12.2 196 196 196
-0.9 -24.6 12.2 196 196 196
-0.6 -24.4 12.1 193 193 193
-0.3 -24.6 12.2 193 193 193
-0.0 -24.4 12.1 192 192 192
6.8 -24.6 12.2 211 211 211
7.0 -24.6 12.2 211 211 211
7.3 -24.6 12.2 208 208 208
9.1 -29.3 14.5 208 208 208
9.4 -29.2 14.5 208 208 208
8.1 -24.5 12.1 208 208 208
9.6 -24.7 12.2 208 208 208
9.9 -24.6 12.2 208 208 208
10.1 -24.5 12.1 208 208 208
10.4 -24.6 12.2 208 208 208
10.7 -24.6 12.2 208 208 208
11.0 -24.6 12.2 208 208 208
11.3 -24.6 12.2 208 208 208
11.6 -24.6 12.2 206 206 206
11.8 -24.6 12.2 205 205 205
12.1 -24.6 12.2 205 205 205
12.4 -24.6 12.2 205 205 205
12.7 -24.6 12.2 208 208 208
13.0 -24.6 12.2 205 205 205
13.3 -24.6 12.2 205 205 205
13.5 -24.6 12.2 208 208 208
14.4 -24.6 12.2 208 208 208
44.1 -61.0 30.2 208 208 208
44.2 -60.2 29.8 208 208 208
46.8 -62.7 31.0 208 208 208
46.6 -61.6 30.5 205 205 205
42.3 -54.2 26.8 206 206 206
43.9 -55.4 27.4 206 206 206
50.9 -60.7 30.0 206 206 206
-34.2 -33.7 16.9 46 46 46
-10.5 -24.2 12.1 31 31 31
-10.2 -24.3 12.2 33 33 33
-10.0 -24.5 12.3 37 37 35
-8.8 -24.4 12.2 191 191 191
-8.4 -24.1 12.0 219 222 221
-8.2 -24.1 12.0 222 222 222
-1.5 -24.6 12.3 197 197 197
-0.9 -24.3 12.1 197 197 197
-0.0 -24.1 12.0 194 194 194
7.8 -24.1 12.0 208 208 208
8.2 -24.3 12.1 208 208 208
8.4 -24.2 12.1 208 208 208
8.7 -24.1 12.1 208 208 208
9.0 -24.3 12.2 208 208 208
9.3 -24.4 12.2 208 208 208
9.6 -24.5 12.3 208 208 208
9.8 -24.2 12.1 208 208 208
10.1 -24.1 12.1 208 208 208
10.3 -24.1 12.0 208 208 208
10.7 -24.3 12.1 208 208 208
11.0 -24.4 12.2 208 208 208
11.3 -24.3 12.2 202 202 202
11.5 -24.3 12.2 205 205 205
11.8 -24.2 12.1 205 205 205
12.0 -24.1 12.1 205 205 205
12.3 -24.2 12.1 208 208 208
12.7 -24.2 12.1 208 208 208
12.9 -24.2 12.1 205 205 205
13.3 -24.3 12.2 205 205 205
43.8 -60.9 30.5 205 205 205
43.9 -60.1 30.1 205 205 205
44.5 -59.9 30.0 208 208 208
46.6 -61.7 30.9 208 208 208
46.5 -60.7 30.4 208 208 208
45.9 -59.0 29.6 208 208 208
44.3 -56.1 28.1 208 208 208
45.5 -56.7 28.4 205 205 205
-35.0 -24.5 12.4 58 59 57
-34.7 -24.6 12.4 58 59 57
-34.5 -24.6 12.4 59 60 58
-34.2 -24.6 12.4 62 62 62
-33.9 -24.6 12.4 57 57 57
-33.6 -24.6 12.4 57 57 57
-33.3 -24.6 12.4 57 57 57
-33.0 -24.6 12.4 59 60 58
-32.7 -24.6 12.4 59 60 58
-32.4 -24.6 12.4 62 62 62
-32.1 -24.6 12.4 62 62 62
-31.9 -24.6 12.4 62 62 62
-31.6 -24.6 12.4 59 60 58
-31.3 -24.6 12.4 59 60 58
-31.0 -24.6 12.4 58 58 58
-30.7 -24.6 12.4 55 55 55
-30.4 -24.6 12.4 53 52 52
-30.1 -24.6 12.4 53 52 52
-29.8 -24.6 12.4 51 50 48
-29.5 -24.6 12.4 51 50 48
-29.3 -24.6 12.4 47 48 47
-28.1 -24.6 12.5 51 51 49
-27.8 -24.6 12.4 48 48 48
-27.5 -24.6 12.5 48 48 48
-27.3 -24.6 12.5 51 51 49
-26.9 -24.6 12.4 48 48 48
-26.6 -24.6 12.4 48 48 48
-26.4 -24.6 12.4 48 48 48
-26.1 -24.6 12.4 49 49 49
-25.8 -24.6 12.4 47 47 47
-25.5 -24.6 12.4 47 47 47
-25.2 -24.6 12.4 47 48 47
-23.8 -24.6 12.4 43 43 43
-23.5 -24.6 12.4 41 41 41
-22.8 -24.5 12.4 42 42 42
-12.0 -24.8 12.6 29 30 28
-11.0 -24.5 12.4 32 32 32
-10.5 -24.1 12.2 34 34 34
-10.3 -24.3 12.3 34 36 36
-10.2 -24.6 12.4 39 39 39
-9.9 -24.6 12.4 150 150 150
-9.6 -24.5 12.4 183 183 183
-9.3 -24.5 12.4 186 188 187
-8.9 -24.4 12.4 186 188 187
-6.7 -24.5 12.4 220 220 220
-6.4 -24.5 12.4 219 219 219
-5.8 -24.6 12.5 214 216 216
-5.5 -24.6 12.4 212 214 214
-5.2 -24.6 12.4 212 214 214
-5.0 -24.6 12.4 209 209 209
-4.7 -24.6 12.4 209 209 209
-4.4 -24.6 12.4 207 207 207
-3.5 -24.6 12.5 204 204 204
-3.2 -24.6 12.4 202 202 202
-2.3 -24.5 12.4 198 198 198
-2.1 -24.6 12.5 198 198 198
-1.8 -24.6 12.5 198 198 198
-1.5 -24.6 12.4 198 198 198
-1.2 -24.6 12.4 196 196 196
-0.9 -24.4 12.4 196 196 196
-0.3 -24.5 12.4 196 196 196
0.5 -24.6 12.4 196 196 196
0.8 -24.6 12.4 196 196 196
1.1 -24.6 12.4 196 196 196
2.9 -24.7 12.5 190 190 190
3.1 -24.6 12.4 188 188 188
3.7 -24.6 12.4 184 184 184
4.3 -24.6 12.5 181 181 181
4.9 -24.6 12.5 179 179 179
5.2 -24.5 12.4 179 179 179
5.7 -24.6 12.4 205 205 205
6.9 -24.7 12.5 210 210 210
7.2 -24.7 12.5 210 210 210
7.5 -24.6 12.4 210 210 210
7.7 -24.5 12.4 207 207 207
8.1 -24.6 12.4 207 207 207
8.3 -24.5 12.4 207 207 207
8.6 -24.5 12.4 210 210 210
8.9 -24.6 12.4 210 210 210
9.2 -24.6 12.5 207 207 207
9.5 -24.6 12.5 207 207 207
9.8 -24.6 12.4 207 207 207
10.0 -24.3 12.3 207 207 207
10.3 -24.4 12.4 207 207 207
10.6 -24.5 12.4 207 207 207
10.9 -24.6 12.4 207 207 207
11.2 -24.6 12.4 207 207 207
11.5 -24.6 12.4 207 207 207
11.8 -24.6 12.4 207 207 207
12.1 -24.5 12.4 205 205 205
12.4 -24.6 12.4 207 207 207
12.7 -24.5 12.4 207 207 207
13.0 -24.5 12.4 207 207 207
13.3 -24.5 12.4 207 207 207
13.5 -24.5 12.4 205 205 205
13.8 -24.5 12.4 207 207 207
14.1 -24.6 12.4 207 207 207
14.4 -24.6 12.4 207 207 207
14.7 -24.5 12.4 207 207 207
15.3 -24.6 12.5 207 207 207
15.6 -24.6 12.4 207 207 207
15.9 -24.6 12.4 207 207 207
16.2 -24.6 12.5 207 207 207
43.5 -59.8 30.3 207 207 207
43.6 -58.9 29.8 207 207 207
44.2 -58.8 29.8 207 207 207
46.4 -60.7 30.8 207 207 207
46.3 -59.8 30.3 207 207 207
45.9 -58.4 29.6 207 207 207
44.7 -55.9 28.3 208 208 208
45.7 -56.3 28.5 208 208 208
47.4 -57.6 29.2 208 208 208
50.7 -59.9 30.4 205 205 205
50.4 -58.7 29.7 205 205 205
-35.0 -24.3 12.4 59 60 58
-34.8 -24.3 12.5 59 60 58
-34.5 -24.3 12.5 59 60 58
-34.2 -24.3 12.5 59 60 58
-33.9 -24.3 12.5 59 60 58
-33.6 -24.3 12.5 59 61 59
-33.3 -24.3 12.5 59 61 59
-33.1 -24.3 12.5 59 61 59
-32.7 -24.3 12.5 59 61 59
-32.5 -24.3 12.5 59 61 59
-32.2 -24.3 12.5 59 61 59
-31.9 -24.3 12.5 63 63 63
-31.6 -24.3 12.5 63 63 63
-31.3 -24.3 12.5 59 61 59
-31.0 -24.3 12.5 58 58 58
-30.7 -24.3 12.5 58 59 59
-30.4 -24.3 12.5 56 56 56
-30.2 -24.3 12.5 53 53 53
-29.9 -24.3 12.5 51 51 49
-29.6 -24.3 12.5 51 51 49
-29.3 -24.3 12.5 49 49 49
-29.0 -24.3 12.4 49 49 49
-28.7 -24.3 12.5 52 52 50
-28.5 -24.3 12.5 52 52 50
-28.2 -24.3 12.5 52 52 50
-27.9 -24.3 12.5 52 52 50
-27.6 -24.4 12.5 49 49 49
-27.3 -24.4 12.5 52 52 50
-27.0 -24.3 12.5 52 52 50
-26.7 -24.3 12.5 49 49 49
-26.4 -24.3 12.5 50 50 50
-26.1 -24.3 12.5 50 50 50
-25.8 -24.3 12.5 47 48 47
-25.5 -24.3 12.5 48 48 48
-25.2 -24.3 12.4 48 48 48
-24.9 -24.3 12.4 46 46 46
-24.6 -24.3 12.4 46 46 46
-24.1 -24.3 12.5 44 44 44
-23.8 -24.3 12.5 47 47 47
-23.5 -24.3 12.5 44 44 44
-23.1 -24.3 12.4 45 45 45
-22.9 -24.3 12.4 42 43 42
-22.6 -24.3 12.4 42 43 42
-12.4 -24.6 12.6 29 31 29
-12.0 -24.5 12.6 29 31 29
-11.6 -24.3 12.4 32 31 30
-11.0 -24.3 12.4 32 32 32
-10.6 -24.0 12.3 32 32 32
-10.4 -24.1 12.3 36 37 36
-10.2 -24.4 12.5 43 43 43
-9.9 -24.3 12.5 159 159 159
-9.6 -24.3 12.4 186 186 186
-9.3 -24.3 12.4 184 187 186
-9.0 -24.2 12.4 183 186 185
-6.7 -24.3 12.4 221 221 221
-6.4 -24.3 12.4 222 222 222
-6.1 -24.3 12.4 221 221 221
-5.8 -24.4 12.5 218 218 218
-5.5 -24.3 12.5 217 217 217
-5.3 -24.3 12.5 217 217 217
-5.0 -24.3 12.5 212 214 214
-4.7 -24.3 12.5 212 214 214
-4.4 -24.3 12.5 210 213 212
-4.1 -24.3 12.4 208 211 210
-3.8 -24.3 12.4 208 211 210
-3.5 -24.3 12.5 208 211 210
-3.2 -24.3 12.5 207 207 207
-2.9 -24.3 12.5 207 207 207
-2.4 -24.3 12.4 205 205 205
-2.1 -24.4 12.5 203 203 203
-1.8 -24.4 12.5 203 203 203
-1.5 -24.3 12.5 200 200 200
-1.2 -24.3 12.5 200 200 200
-0.9 -24.1 12.4 200 200 200
-0.3 -24.3 12.4 200 200 200
0.3 -24.3 12.5 197 197 197
0.5 -24.3 12.5 195 195 195
0.8 -24.3 12.4 197 197 197
1.1 -24.3 12.5 195 195 195
2.9 -24.5 12.5 192 192 192
3.1 -24.3 12.4 189 189 189
3.4 -24.3 12.5 186 186 186
3.7 -24.3 12.4 186 186 186
4.0 -24.3 12.5 186 186 186
4.9 -24.4 12.5 181 181 181
5.2 -24.2 12.4 181 181 181
5.8 -24.3 12.5 204 204 204
6.0 -24.3 12.4 209 209 209
6.3 -24.3 12.4 209 209 209
6.6 -24.3 12.5 209 209 209
7.0 -24.5 12.5 209 209 209
7.2 -24.5 12.5 209 209 209
7.5 -24.3 12.4 209 209 209
7.8 -24.2 12.4 209 209 209
8.1 -24.3 12.4 209 209 209
8.3 -24.3 12.4 209 209 209
8.6 -24.2 12.4 209 209 209
8.9 -24.3 12.5 209 209 209
9.2 -24.3 12.5 207 207 207
9.6 -24.4 12.5 207 207 207
9.8 -24.3 12.5 207 207 207
10.0 -24.1 12.4 207 207 207
10.3 -24.2 12.4 207 207 207
10.7 -24.3 12.5 207 207 207
11.0 -24.3 12.5 207 207 207
11.3 -24.3 12.5 207 207 207
11.6 -24.3 12.5 207 207 207
11.9 -24.4 12.5 207 207 207
12.1 -24.3 12.5 207 207 207
12.4 -24.3 12.5 207 207 207
12.7 -24.3 12.5 207 207 207
13.0 -24.3 12.5 207 207 207
13.3 -24.3 12.5 207 207 207
13.6 -24.3 12.5 207 207 207
13.8 -24.3 12.4 207 207 207
14.2 -24.3 12.5 207 207 207
14.4 -24.3 12.5 207 207 207
14.7 -24.3 12.4 207 207 207
15.0 -24.3 12.4 207 207 207
15.3 -24.3 12.5 207 207 207
15.6 -24.3 12.5 207 207 207
15.9 -24.3 12.5 207 207 207
16.2 -24.3 12.5 207 207 207
42.6 -57.8 29.6 207 207 207
42.9 -57.3 29.4 207 207 207
43.2 -56.8 29.1 207 207 207
45.5 -57.9 29.7 207 207 207
45.4 -57.0 29.2 207 207 207
44.5 -55.0 28.2 207 207 207
45.3 -55.3 28.3 207 207 207
47.0 -56.5 29.0 207 207 207
48.0 -56.9 29.1 207 207 207
49.6 -57.9 29.7 207 207 207
49.6 -57.1 29.3 205 205 205
49.5 -56.3 28.8 205 205 205
30.6 -30.3 15.5 204 204 204
30.7 -30.0 15.4 204 204 204
-35.0 -24.0 12.4 63 63 63
-34.7 -24.0 12.4 63 63 63
-34.5 -24.0 12.4 63 63 63
-34.2 -24.0 12.4 63 63 63
-33.9 -24.0 12.4 59 61 59
-33.6 -24.0 12.4 59 61 59
-33.3 -24.0 12.4 59 61 59
-33.0 -24.0 12.4 60 62 60
-32.7 -24.0 12.4 60 62 60
-32.4 -24.0 12.4 64 64 64
-32.2 -24.0 12.5 60 62 60
-31.9 -24.0 12.5 64 64 64
-31.6 -24.0 12.5 60 62 60
-31.3 -24.0 12.4 60 62 60
-31.0 -24.0 12.5 58 59 59
-30.7 -24.0 12.4 59 59 59
-30.4 -24.0 12.4 57 57 57
-30.1 -24.0 12.4 57 57 57
-29.9 -24.0 12.5 54 54 54
-29.5 -24.0 12.4 52 52 50
-29.3 -24.0 12.4 53 52 51
-28.9 -24.0 12.4 53 52 51
-28.7 -24.0 12.4 53 52 51
-28.4 -24.0 12.5 53 52 51
-28.2 -24.1 12.5 53 52 51
-27.9 -24.0 12.5 53 52 51
-27.6 -24.1 12.5 50 50 50
-27.3 -24.1 12.5 53 52 51
-27.0 -24.0 12.5 53 52 51
-26.6 -24.0 12.4 51 51 51
-26.4 -24.0 12.4 51 51 51
-26.1 -24.0 12.4 51 51 51
-25.8 -24.0 12.4 51 51 51
-25.5 -24.0 12.4 49 49 49
-25.2 -24.0 12.4 49 49 49
-24.9 -24.0 12.4 49 49 49
-24.6 -24.0 12.4 49 49 49
-24.4 -24.0 12.5 49 49 49
-24.1 -24.0 12.5 47 48 47
-23.8 -24.0 12.5 47 48 47
-23.5 -24.0 12.4 46 46 46
-23.1 -23.9 12.4 46 46 46
-22.8 -23.9 12.4 43 43 43
-22.6 -24.0 12.4 43 43 43
-22.3 -24.0 12.4 44 44 44
-22.0 -24.0 12.5 44 44 44
-21.7 -24.0 12.4 43 42 41
-21.4 -23.9 12.4 43 42 41
-21.1 -24.0 12.4 43 42 41
-12.3 -24.3 12.6 30 31 30
-12.0 -24.2 12.5 29 31 29
-11.6 -23.9 12.4 29 31 29
-11.3 -24.0 12.4 29 31 29
-11.0 -24.0 12.5 29 30 28
-10.6 -23.8 12.3 32 32 32
-10.4 -23.8 12.4 35 37 36
-10.2 -24.1 12.5 44 44 44
-9.9 -24.0 12.4 177 180 179
-9.5 -23.9 12.4 184 187 186
-9.3 -24.0 12.4 183 186 185
-9.0 -23.9 12.4 182 185 184
-6.7 -24.0 12.4 224 226 226
-6.4 -23.9 12.4 224 226 226
-6.1 -24.0 12.4 222 224 224
-5.8 -24.0 12.5 221 221 221
-5.5 -24.0 12.5 219 219 219
-5.2 -24.0 12.5 219 219 219
-5.0 -24.0 12.4 216 216 216
-4.7 -24.0 12.4 216 216 216
-4.4 -24.0 12.5 215 215 215
-4.1 -24.0 12.4 214 214 214
-3.5 -24.0 12.5 209 212 211
-3.2 -24.0 12.4 209 212 211
-2.3 -24.0 12.4 207 210 209
-2.1 -24.0 12.5 206 206 206
-1.8 -24.1 12.5 205 205 205
-1.5 -24.0 12.5 205 205 205
-1.2 -24.0 12.4 205 205 205
-0.9 -23.8 12.3 202 202 202
-0.6 -23.9 12.4 202 202 202
-0.3 -24.0 12.4 202 202 202
-0.0 -23.8 12.3 202 202 202
0.3 -24.0 12.4 202 202 202
0.5 -24.0 12.4 199 199 199
0.8 -24.0 12.4 199 199 199
1.1 -24.0 12.4 199 199 199
2.9 -24.2 12.5 191 191 191
3.1 -24.0 12.4 189 189 189
3.4 -24.0 12.4 189 189 189
3.7 -24.0 12.4 189 189 189
4.9 -24.1 12.5 180 180 180
5.2 -23.9 12.4 183 183 183
5.8 -24.0 12.5 204 204 204
6.0 -24.0 12.4 208 208 208
6.3 -23.9 12.4 209 209 209
6.6 -24.0 12.5 209 209 209
7.2 -24.2 12.5 209 209 209
7.5 -24.0 12.4 209 209 209
7.7 -23.9 12.4 209 209 209
8.1 -24.0 12.4 209 209 209
8.3 -23.9 12.4 209 209 209
8.6 -23.9 12.4 209 209 209
8.9 -24.0 12.5 209 209 209
9.2 -24.0 12.5 209 209 209
9.6 -24.1 12.5 206 206 206
9.8 -24.0 12.5 206 206 206
10.0 -23.8 12.4 209 209 209
10.3 -23.9 12.4 209 209 209
10.7 -24.0 12.4 206 206 206
11.0 -24.0 12.4 206 206 206
11.2 -24.0 12.4 206 206 206
11.5 -24.0 12.5 206 206 206
11.8 -24.0 12.5 206 206 206
12.1 -24.0 12.4 206 206 206
12.4 -24.0 12.5 206 206 206
12.7 -24.0 12.4 206 206 206
13.0 -24.0 12.4 206 206 206
13.3 -24.0 12.4 206 206 206
13.5 -24.0 12.4 206 206 206
13.8 -24.0 12.4 206 206 206
14.2 -24.0 12.5 206 206 206
14.4 -24.0 12.5 206 206 206
14.7 -24.0 12.4 206 206 206
15.0 -24.0 12.4 206 206 206
15.3 -24.0 12.5 206 206 206
15.6 -24.0 12.5 206 206 206
15.9 -24.0 12.5 206 206 206
16.2 -24.0 12.4 206 206 206
42.7 -57.3 29.7 206 206 206
43.0 -56.7 29.4 206 206 206
43.3 -56.2 29.1 206 206 206
45.6 -57.4 29.8 206 206 206
45.5 -56.5 29.3 206 206 206
44.3 -54.2 28.1 207 207 207
44.9 -54.1 28.1 207 207 207
47.3 -56.1 29.1 207 207 207
48.4 -56.6 29.4 207 207 207
49.6 -57.3 29.7 207 207 207
49.5 -56.4 29.2 207 207 207
47.8 -53.7 27.9 205 205 205
30.4 -29.7 15.4 206 206 206
30.5 -29.5 15.3 204 204 204
-35.2 -23.8 12.5 64 64 64
-35.0 -23.9 12.5 64 64 64
-34.7 -23.9 12.5 64 64 64
-34.4 -23.9 12.5 64 64 64
-34.1 -23.9 12.5 60 62 60
-33.8 -23.9 12.5 64 64 64
-33.5 -23.9 12.5 64 64 64
-33.2 -23.9 12.5 64 64 64
-32.9 -23.8 12.5 65 65 65
-32.6 -23.9 12.5 65 65 65
-32.4 -23.9 12.5 65 65 65
-32.1 -23.9 12.5 65 65 65
-31.8 -23.9 12.5 61 63 61
-31.5 -23.8 12.5 61 63 61
-31.2 -23.8 12.5 59 59 59
-30.8 -23.8 12.5 59 59 59
-30.6 -23.8 12.5 60 60 60
-30.3 -23.9 12.5 58 58 58
-30.1 -23.9 12.5 55 55 55
-29.8 -23.9 12.5 55 55 55
-29.4 -23.9 12.5 54 53 52
-29.1 -23.8 12.5 54 53 52
-28.8 -23.8 12.5 56 56 56
-28.6 -23.9 12.5 54 53 52
-28.3 -23.9 12.6 54 53 52
-28.0 -23.9 12.6 54 53 52
-27.8 -23.9 12.6 54 53 52
-27.5 -23.9 12.6 56 56 56
-27.1 -23.9 12.5 55 54 53
-26.8 -23.8 12.5 52 52 52
-26.5 -23.8 12.5 52 52 52
-26.2 -23.9 12.5 52 52 52
-26.0 -23.9 12.5 52 52 52
-25.6 -23.8 12.5 52 52 52
-25.3 -23.8 12.5 47 48 47
-25.0 -23.8 12.5 50 50 50
-24.2 -23.9 12.5 48 48 48
-24.0 -23.9 12.6 48 48 48
-23.6 -23.9 12.5 47 47 47
-22.9 -23.8 12.5 47 47 47
-22.7 -23.9 12.5 45 45 45
-12.4 -24.1 12.7 30 31 30
-12.0 -24.0 12.6 34 34 34
-11.6 -23.7 12.4 34 34 34
-11.1 -23.9 12.6 33 33 33
-10.7 -23.6 12.4 29 30 28
-10.4 -23.7 12.4 37 38 37
-10.2 -23.9 12.5 45 45 45
-9.9 -23.7 12.5 181 181 181
-9.3 -23.8 12.5 189 189 189
-9.0 -23.6 12.4 182 185 184
-6.4 -23.7 12.4 224 226 226
-1.8 -24.0 12.6 207 210 209
-0.3 -23.7 12.5 204 204 204
0.5 -23.7 12.5 204 204 204
2.9 -24.0 12.6 190 190 190
4.9 -23.9 12.6 182 182 182
5.2 -23.8 12.5 179 179 179
7.0 -24.0 12.6 208 208 208
7.3 -24.0 12.6 208 208 208
7.8 -23.7 12.5 208 208 208
8.4 -23.7 12.4 208 208 208
8.6 -23.7 12.4 208 208 208
9.6 -24.0 12.6 208 208 208
9.9 -23.9 12.5 208 208 208
11.3 -23.9 12.5 206 206 206
11.7 -24.0 12.6 206 206 206
11.9 -23.9 12.6 206 206 206
14.3 -23.9 12.6 206 206 206
14.5 -23.8 12.5 208 208 208
14.8 -23.8 12.5 206 206 206
16.0 -23.8 12.5 206 206 206
43.1 -57.1 30.0 206 206 206
43.1 -56.2 29.5 206 206 206
46.0 -57.2 30.0 206 206 206
45.9 -56.2 29.5 206 206 206
44.4 -53.6 28.1 206 206 206
44.7 -53.2 27.9 206 206 206
47.6 -55.9 29.3 206 206 206
48.8 -56.4 29.6 206 206 206
49.8 -56.7 29.8 206 206 206
49.6 -55.8 29.3 207 207 207
47.6 -52.8 27.7 207 207 207
47.6 -52.1 27.4 207 207 207
30.4 -29.0 15.2 206 206 206
30.6 -28.8 15.1 203 203 203
-35.5 -23.7 12.6 58 59 59
-35.4 -23.9 12.7 64 64 64
-35.1 -23.9 12.7 65 65 65
-34.8 -23.9 12.7 65 65 65
-34.5 -23.9 12.7 65 65 65
-34.2 -23.9 12.7 65 65 65
-33.9 -23.9 12.7 65 65 65
-33.5 -23.8 12.6 65 65 65
-33.2 -23.7 12.6 65 65 65
-33.0 -23.8 12.7 66 66 66
-32.8 -23.9 12.7 66 66 66
-32.5 -23.9 12.7 66 66 66
-32.0 -23.7 12.6 62 64 61
-31.7 -23.7 12.6 62 64 61
-31.4 -23.7 12.6 62 64 61
-31.1 -23.7 12.6 62 64 61
-29.7 -23.7 12.6 55 54 53
-29.0 -23.9 12.7 55 54 53
-28.7 -23.9 12.7 55 54 53
-28.3 -23.9 12.7 55 54 53
-28.1 -23.9 12.7 55 54 53
-27.7 -23.9 12.7 56 55 54
-27.3 -23.7 12.6 56 55 54
-27.0 -23.7 12.6 56 55 54
-22.9 -23.8 12.6 46 46 46
-12.9 -24.1 12.8 39 39 39
-12.5 -24.0 12.8 35 35 35
-12.1 -23.9 12.7 38 38 38
-11.2 -23.8 12.6 58 59 59
-10.8 -23.5 12.5 59 61 59
-10.6 -23.8 12.6 36 38 37
-10.3 -23.7 12.6 46 46 46
-9.9 -23.6 12.5 181 181 181
-9.4 -23.7 12.6 183 186 185
-9.0 -23.4 12.4 182 185 184
2.9 -24.0 12.7 192 192 192
9.7 -23.9 12.7 208 208 208
9.9 -23.7 12.6 208 208 208
14.4 -23.9 12.7 205 205 205
14.6 -23.7 12.6 208 208 208
43.5 -56.9 30.3 205 205 205
43.3 -55.8 29.6 205 205 205
46.5 -57.1 30.4 205 205 205
46.3 -56.0 29.8 205 205 205
45.1 -53.0 28.1 206 206 206
47.6 -55.2 29.3 206 206 206
49.6 -56.7 30.1 206 206 206
50.4 -56.8 30.2 206 206 206
49.7 -55.2 29.3 206 206 206
47.6 -52.2 27.7 206 206 206
47.5 -51.4 27.3 206 206 206
30.6 -28.9 15.4 205 205 205
30.7 -28.6 15.2 203 203 203
-35.8 -23.6 12.7 61 63 61
-35.5 -23.6 12.7 65 65 65
-35.2 -23.6 12.7 65 65 65
-34.9 -23.6 12.7 66 66 66
-34.6 -23.6 12.7 66 66 66
-34.3 -23.6 12.7 66 66 66
-34.1 -23.7 12.7 66 66 66
-33.7 -23.6 12.7 66 66 66
-33.4 -23.6 12.7 66 66 66
-33.2 -23.6 12.7 66 66 66
-32.9 -23.7 12.7 67 67 67
-32.6 -23.6 12.7 67 67 67
-32.2 -23.6 12.7 67 67 67
-31.9 -23.6 12.7 63 64 62
-31.7 -23.6 12.7 63 64 62
-31.4 -23.6 12.7 67 67 67
-31.1 -23.7 12.7 62 62 62
-30.8 -23.7 12.7 59 59 59
-30.5 -23.7 12.7 57 57 57
-30.2 -23.7 12.7 57 57 57
-29.9 -23.6 12.7 57 57 57
-29.6 -23.6 12.7 56 55 54
-29.3 -23.6 12.7 58 58 58
-29.1 -23.7 12.7 58 58 58
-28.8 -23.7 12.7 56 55 54
-28.4 -23.7 12.7 56 55 54
-28.2 -23.7 12.7 56 55 54
-27.9 -23.7 12.7 57 56 55
-27.5 -23.6 12.7 57 56 55
-27.2 -23.6 12.7 57 56 55
-26.9 -23.6 12.7 57 56 55
-26.7 -23.7 12.7 53 53 53
-26.4 -23.7 12.7 54 54 54
-26.1 -23.6 12.7 54 54 54
-25.7 -23.6 12.7 54 54 54
-25.4 -23.6 12.7 54 54 54
-24.6 -23.7 12.7 48 48 48
-24.3 -23.7 12.7 48 48 48
-23.9 -23.6 12.7 48 48 48
-23.4 -23.7 12.7 47 47 47
-23.1 -23.6 12.7 47 47 47
-22.9 -23.7 12.7 47 47 47
-13.0 -23.6 12.7 110 110 110
-12.9 -23.9 12.9 72 73 71
-12.5 -23.8 12.8 90 90 90
-12.2 -23.7 12.7 58 59 59
-11.2 -23.6 12.7 39 39 39
-11.0 -23.6 12.7 91 94 93
-10.7 -23.7 12.7 21 24 22
-10.4 -23.6 12.7 53 53 53
-10.0 -23.4 12.6 182 182 182
-9.7 -23.5 12.7 182 185 184
-9.5 -23.5 12.7 186 186 186
2.9 -23.7 12.7 191 191 191
9.2 -23.7 12.8 205 205 205
9.4 -23.7 12.7 205 205 205
9.7 -23.7 12.7 205 205 205
10.0 -23.6 12.7 208 208 208
43.3 -55.0 29.6 207 207 207
46.6 -56.5 30.4 205 205 205
44.7 -52.6 28.3 205 205 205
45.1 -52.3 28.1 205 205 205
47.2 -54.0 29.1 208 208 208
49.8 -56.2 30.2 205 205 205
50.5 -56.2 30.2 205 205 205
49.6 -54.4 29.3 206 206 206
47.8 -51.7 27.8 206 206 206
47.4 -50.6 27.2 206 206 206
48.5 -51.1 27.5 206 206 206
-36.3 -23.7 12.9 62 64 61
-36.1 -23.7 12.9 66 66 66
-35.8 -23.7 12.9 66 66 66
-34.6 -23.8 12.9 67 67 67
-34.3 -23.7 12.9 67 67 67
-31.0 -23.8 12.9 58 58 58
-30.7 -23.7 12.9 58 58 58
-29.3 -23.8 13.0 57 56 55
-28.9 -23.8 12.9 57 56 55
-28.6 -23.8 12.9 57 57 55
-28.3 -23.7 12.9 57 57 55
-26.8 -23.7 12.9 58 58 56
-26.5 -23.7 12.9 58 58 56
-26.1 -23.7 12.9 55 55 55
-13.0 -23.8 13.0 86 86 86
-12.7 -23.8 13.0 26 26 26
-12.4 -23.7 12.9 40 40 40
-11.3 -23.5 12.8 53 53 53
-11.1 -23.7 12.9 78 78 78
-10.8 -23.6 12.9 26 26 26
-10.5 -23.6 12.9 44 44 44
-10.1 -23.4 12.8 183 183 183
-9.8 -23.5 12.8 181 184 183
-9.6 -23.5 12.8 181 184 183
46.5 -55.7 30.4 207 207 207
44.2 -51.4 28.0 207 207 207
44.8 -51.3 28.0 207 207 207
46.5 -52.6 28.7 207 207 207
49.6 -55.3 30.1 207 207 207
50.5 -55.4 30.2 208 208 208
49.5 -53.6 29.2 205 205 205
47.2 -50.5 27.5 205 205 205
47.0 -49.5 27.0 205 205 205
48.1 -50.1 27.3 205 205 205
49.1 -50.5 27.5 206 206 206
31.9 -29.7 16.2 206 206 206
32.2 -29.6 16.2 204 204 204
32.7 -29.7 16.2 204 204 204
-37.0 -23.8 13.2 66 66 66
-36.9 -23.9 13.2 67 67 67
-36.6 -23.9 13.2 67 67 67
-36.3 -23.9 13.2 68 70 68
-36.0 -23.9 13.2 69 71 69
-35.7 -23.9 13.2 67 67 67
-35.3 -23.9 13.2 67 67 67
-35.0 -23.9 13.2 67 67 67
-34.7 -23.9 13.2 67 67 67
-34.5 -23.9 13.2 67 67 67
-34.1 -23.9 13.2 67 67 67
-33.8 -23.9 13.2 68 68 68
-33.6 -24.0 13.2 68 68 68
-33.3 -24.0 13.3 65 66 64
-32.8 -23.9 13.2 63 63 63
-32.6 -24.0 13.2 63 63 63
-32.5 -24.1 13.3 64 64 64
-32.0 -24.0 13.2 61 61 61
-31.7 -23.9 13.2 58 59 59
-31.3 -23.9 13.2 57 56 55
-31.1 -24.0 13.2 61 61 61
-30.2 -24.0 13.2 59 59 59
-29.8 -23.9 13.2 59 59 59
-29.4 -23.9 13.2 59 59 59
-29.2 -23.9 13.2 60 60 60
-28.9 -23.9 13.2 60 60 60
-27.3 -23.9 13.2 59 59 57
-27.0 -23.9 13.2 56 56 56
-26.8 -24.0 13.2 56 56 56
-25.6 -24.0 13.3 53 52 52
-13.7 -24.3 13.4 97 97 97
-13.2 -23.8 13.2 95 95 95
-12.9 -23.8 13.1 29 29 29
-12.6 -23.8 13.1 129 129 129
-11.3 -23.8 13.1 67 67 67
-10.9 -23.6 13.0 53 52 52
-10.6 -23.6 13.0 47 48 47
-10.3 -23.6 13.0 188 188 188
44.5 -50.4 27.8 207 207 207
46.8 -52.2 28.8 207 207 207
50.9 -55.2 30.5 207 207 207
49.8 -53.2 29.4 207 207 207
46.4 -49.0 27.0 207 207 207
46.0 -47.9 26.4 205 205 205
46.9 -48.1 26.6 205 205 205
32.0 -29.4 16.2 206 206 206
32.3 -29.3 16.2 206 206 206
32.7 -29.4 16.2 206 206 206
33.0 -29.3 16.2 200 200 200
-37.6 -23.9 13.3 67 67 67
-37.4 -23.9 13.4 67 67 67
-37.1 -23.9 13.4 69 71 69
-36.8 -23.9 13.4 69 71 69
-36.4 -23.9 13.4 69 71 69
-36.1 -23.9 13.4 70 72 69
-35.8 -23.9 13.4 67 67 67
-35.5 -23.9 13.4 70 72 69
-35.2 -23.9 13.4 70 72 69
-34.9 -23.9 13.4 70 72 69
-34.6 -23.9 13.4 68 68 68
-34.2 -23.9 13.4 69 69 69
-34.0 -23.9 13.4 69 69 69
-33.7 -24.0 13.4 69 69 69
-33.3 -23.9 13.4 69 69 69
-33.0 -23.9 13.4 66 67 65
-32.7 -23.9 13.4 65 65 65
-32.4 -23.9 13.4 62 62 62
-32.1 -23.9 13.4 59 59 59
-31.8 -23.9 13.4 62 62 62
-30.6 -24.0 13.4 63 63 63
-30.2 -23.9 13.4 60 60 60
-29.8 -23.9 13.4 63 63 63
-29.6 -23.9 13.4 61 61 61
-29.3 -23.9 13.4 64 64 64
-27.7 -23.9 13.4 60 59 58
-27.4 -23.9 13.4 57 57 57
-25.9 -24.0 13.4 56 56 56
-13.8 -24.0 13.4 126 128 127
-13.3 -23.8 13.3 124 127 126
-13.0 -23.7 13.3 33 34 32
-12.7 -23.7 13.3 131 131 131
-11.4 -23.6 13.2 44 44 44
-11.0 -23.5 13.1 46 46 46
-10.3 -23.9 13.4 180 183 182
44.3 -49.5 27.7 206 206 206
44.0 -45.8 25.6 207 207 207
45.5 -46.8 26.2 207 207 207
46.5 -47.1 26.3 207 207 207
46.1 -46.2 25.8 205 205 205
46.4 -45.8 25.6 207 207 207
32.4 -29.4 16.4 205 205 205
32.8 -29.4 16.4 205 205 205
33.2 -29.4 16.4 206 206 206
-37.8 -23.7 13.4 67 67 67
-37.5 -23.7 13.4 74 74 74
-37.2 -23.7 13.4 70 72 69
-36.9 -23.7 13.4 70 72 69
-36.0 -23.7 13.4 75 75 75
-32.5 -23.7 13.4 67 69 67
-32.2 -23.7 13.4 63 63 63
-31.9 -23.7 13.4 63 63 63
-30.3 -23.7 13.4 67 67 67
-30.0 -23.7 13.4 65 65 65
-29.4 -23.7 13.4 62 62 62
-27.8 -23.7 13.4 63 63 63
-27.5 -23.7 13.4 62 61 60
-27.2 -23.7 13.4 58 59 59
-26.0 -23.7 13.4 59 59 59
-25.5 -23.6 13.4 59 59 59
-13.4 -23.5 13.3 126 128 127
-13.0 -23.5 13.3 35 34 33
-12.7 -23.5 13.3 94 93 92
-11.5 -23.4 13.3 28 28 28
-10.8 -23.4 13.3 59 59 59
-10.6 -23.5 13.3 180 183 182
-10.3 -23.6 13.4 179 182 181
53.7 -57.6 32.6 206 206 206
45.7 -46.3 26.2 207 207 207
46.9 -46.9 26.6 207 207 207
46.7 -46.2 26.2 207 207 207
45.9 -44.8 25.4 207 207 207
45.7 -44.0 24.9 207 207 207
48.7 -43.1 24.4 208 208 208
1242.3 -575.7 326.1 116 116 116
-37.9 -23.5 13.5 68 68 68
-37.8 -23.6 13.5 68 68 68
-37.5 -23.6 13.5 68 68 68
-37.2 -23.6 13.5 71 72 70
-36.9 -23.6 13.5 71 72 70
-36.5 -23.6 13.5 75 75 75
-36.2 -23.6 13.5 75 76 76
-35.9 -23.6 13.5 72 73 71
-35.6 -23.6 13.6 72 73 71
-35.3 -23.6 13.5 72 73 71
-35.0 -23.6 13.5 75 76 76
-34.7 -23.6 13.6 73 74 72
-34.4 -23.7 13.6 73 74 72
-34.1 -23.6 13.6 71 71 71
-33.7 -23.6 13.5 71 71 71
-33.4 -23.6 13.6 71 71 71
-33.1 -23.6 13.6 72 72 72
-32.8 -23.6 13.6 68 70 68
-32.4 -23.6 13.5 67 67 67
-32.0 -23.5 13.5 68 70 68
-32.0 -23.7 13.6 68 70 68
-31.3 -23.7 13.6 67 67 67
-31.0 -23.7 13.6 67 67 67
-30.5 -23.5 13.5 67 67 67
-30.3 -23.7 13.6 63 63 63
-29.9 -23.6 13.5 63 63 63
-29.7 -23.6 13.6 63 63 63
-29.3 -23.6 13.5 63 63 63
-29.0 -23.6 13.6 64 64 64
-28.8 -23.7 13.6 64 64 64
-28.3 -23.6 13.5 67 67 67
-28.1 -23.6 13.5 64 64 64
-27.7 -23.6 13.5 63 62 61
-27.3 -23.5 13.5 59 59 59
-27.1 -23.6 13.5 59 59 59
-26.6 -23.7 13.6 60 60 60
-26.1 -23.5 13.5 64 63 61
-25.6 -23.4 13.4 68 68 68
-13.9 -23.7 13.6 113 114 113
-13.4 -23.4 13.4 132 132 132
-13.1 -23.3 13.4 33 35 33
-12.7 -23.2 13.3 37 38 37
-11.5 -23.2 13.3 26 26 26
-11.0 -23.4 13.4 55 55 55
-10.7 -23.4 13.4 181 184 183
-10.4 -23.4 13.5 178 181 180
-10.2 -23.8 13.6 184 184 184
45.0 -49.0 28.1 208 211 210
47.2 -50.6 29.1 208 211 210
51.6 -53.8 30.9 208 211 210
50.1 -51.5 29.6 208 211 210
46.9 -47.5 27.3 208 211 210
46.1 -46.2 26.5 206 206 206
47.8 -47.2 27.1 206 206 206
48.4 -47.1 27.1 206 206 206
46.9 -45.1 25.9 207 207 207
46.2 -43.9 25.2 207 207 207
49.2 -43.0 24.7 207 207 207
39.5 -34.1 19.6 205 205 205
39.6 -33.8 19.4 208 208 208
-39.2 -23.9 13.9 71 72 70
-34.3 -23.9 13.9 74 75 73
-34.1 -24.0 13.9 72 72 72
-33.8 -24.0 14.0 68 70 68
-33.3 -23.9 13.9 69 71 69
-33.0 -23.9 13.9 73 73 73
-32.2 -24.0 14.0 68 68 68
-10.7 -23.9 13.9 178 181 180
-10.4 -23.9 13.9 178 181 180
-10.6 -25.1 14.6 176 179 178
44.2 -51.1 29.7 207 210 209
46.0 -50.9 29.6 207 210 209
47.9 -50.7 29.5 207 210 209
51.9 -54.2 31.5 207 210 209
51.6 -53.1 30.9 207 210 209
50.1 -50.9 29.6 208 211 210
47.2 -46.6 27.1 208 211 210
48.3 -47.1 27.4 208 211 210
49.0 -47.1 27.4 206 206 206
47.5 -45.1 26.2 208 211 210
39.7 -33.8 19.7 207 207 207
44.6 -20.9 12.2 158 161 160
-11.0 -25.1 14.8 183 183 183
-10.6 -24.9 14.7 176 179 178
-10.2 -24.7 14.6 192 192 192
-9.9 -24.8 14.6 196 196 196
44.5 -51.6 30.5 206 209 208
44.7 -51.1 30.1 206 209 208
47.1 -53.0 31.3 206 209 208
47.5 -52.6 31.0 206 209 208
46.7 -50.9 30.0 207 210 209
46.6 -50.1 29.6 207 210 209
47.2 -50.0 29.5 207 210 209
52.2 -53.7 31.7 207 210 209
51.9 -52.7 31.1 207 210 209
50.9 -51.0 30.1 207 210 209
47.7 -46.5 27.4 207 210 209
49.2 -47.3 27.9 208 211 210
49.5 -47.0 27.7 208 211 210
45.1 -21.1 12.5 167 167 167
45.0 -20.9 12.3 162 165 164
45.3 -20.9 12.3 159 159 159
45.6 -20.9 12.3 147 149 149
-11.2 -25.1 15.0 180 183 182
-10.7 -24.8 14.8 179 182 181
-10.3 -24.7 14.8 176 176 176
44.9 -50.5 30.2 206 209 208
46.9 -52.0 31.1 206 209 208
47.4 -51.8 31.0 209 212 211
46.8 -50.4 30.1 209 212 211
49.2 -50.6 30.3 206 209 208
52.4 -53.2 31.8 205 205 205
51.8 -51.9 31.0 210 213 212
50.8 -50.1 30.0 210 213 212
50.4 -49.1 29.4 207 210 209
47.6 -45.8 27.4 205 205 205
50.8 -48.1 28.8 205 205 205
50.6 -47.4 28.3 207 210 209
46.4 -21.2 12.7 160 163 162
46.5 -21.1 12.6 148 150 150
47.1 -21.2 12.7 144 144 144
-15.9 -17.1 10.3 47 47 47
-15.6 -17.0 10.3 35 36 34
-15.3 -16.9 10.3 94 97 96
-11.3 -25.0 15.1 182 185 184
-10.8 -24.7 15.0 178 178 178
46.9 -51.3 31.1 205 208 207
46.1 -48.9 29.6 209 212 211
46.9 -48.3 29.3 209 212 211
48.1 -48.8 29.6 209 212 211
52.5 -52.5 31.8 209 212 211
51.7 -51.1 31.0 209 212 211
50.5 -49.2 29.8 209 212 211
47.1 -44.6 27.1 207 210 209
51.5 -47.6 28.8 207 210 209
47.1 -21.1 12.8 162 162 162
47.5 -21.2 12.9 150 152 152
47.9 -21.2 12.9 146 146 146
48.5 -21.4 13.0 136 136 136
-25.9 -17.1 10.5 70 70 70
-25.6 -17.1 10.5 80 80 80
-25.3 -17.0 10.4 78 78 78
-21.9 -17.2 10.6 144 144 144
-21.6 -17.1 10.5 140 142 141
-17.7 -17.2 10.6 54 54 54
-16.0 -16.9 10.4 43 43 43
-15.7 -16.8 10.4 32 32 32
-15.3 -16.7 10.3 90 90 90
-12.4 -16.6 10.2 62 62 62
-11.6 -26.1 16.0 180 183 182
46.9 -50.6 31.1 208 211 210
47.4 -50.3 31.0 208 211 210
46.0 -48.1 29.6 208 211 210
46.9 -47.7 29.3 208 211 210
48.1 -48.1 29.6 208 211 210
52.4 -51.7 31.8 209 212 211
51.9 -50.5 31.1 209 212 211
50.5 -48.5 29.8 209 212 211
47.2 -20.9 12.9 163 163 163
47.5 -20.9 12.9 156 156 156
47.9 -20.9 12.9 150 150 150
48.6 -21.1 13.0 138 138 138
-11.8 -27.1 16.9 159 162 161
-11.4 -26.9 16.8 156 159 158
47.1 -50.1 31.3 207 210 209
47.5 -49.7 31.0 207 210 209
47.0 -48.4 30.2 208 211 210
52.6 -51.2 32.0 208 211 210
52.0 -49.9 31.1 208 211 210
51.3 -48.5 30.3 209 212 211
93.3 -87.1 54.4 209 212 211
95.1 -87.6 54.7 209 212 211
47.4 -20.6 12.8 157 157 157
47.5 -20.5 12.8 149 149 149
-12.0 -27.0 17.1 166 166 166
-11.6 -27.1 17.1 163 163 163
47.6 -49.1 31.1 207 210 209
52.9 -50.7 32.1 208 211 210
52.1 -49.3 31.2 208 211 210
51.5 -48.0 30.4 208 211 210
94.1 -86.6 54.8 208 211 210
95.4 -86.6 54.8 208 211 210
77.1 -35.2 22.3 179 179 179
54.4 -23.6 14.9 165 168 167
54.4 -23.4 14.8 162 162 162
-12.3 -27.3 17.5 169 169 169
-11.9 -27.3 17.5 165 165 165
-11.5 -27.3 17.5 162 162 162
48.3 -49.8 32.0 207 210 209
48.0 -48.8 31.4 206 209 208
53.8 -50.8 32.7 207 210 209
52.4 -48.8 31.4 207 210 209
51.7 -47.5 30.5 208 211 210
94.7 -85.8 55.1 208 211 210
96.5 -86.3 55.5 208 211 210
77.2 -34.7 22.3 182 182 182
76.8 -34.3 22.0 180 180 180
74.4 -33.0 21.2 183 186 185
55.0 -23.5 15.1 166 169 168
54.9 -23.3 15.0 162 162 162
-12.4 -27.1 17.7 173 173 173
-11.9 -27.0 17.6 169 169 169
-11.5 -27.0 17.6 166 166 166
54.1 -50.3 32.8 207 210 209
53.7 -49.2 32.1 211 211 211
98.3 -86.6 56.5 208 211 210
62.5 -54.3 35.4 208 211 210
61.6 -52.8 34.5 208 211 210
59.8 -50.6 33.0 208 211 210
714.5 -568.5 370.9 209 212 211
78.4 -34.7 22.7 183 183 183
77.8 -34.2 22.3 184 187 186
57.0 -23.9 15.6 168 170 169
63.3 -26.4 17.2 165 165 165
63.6 -26.4 17.2 156 156 156
923.7 -371.7 242.5 128 131 130
-12.5 -27.0 17.9 175 177 177
-12.1 -27.0 17.9 173 173 173
63.4 -53.6 35.5 208 211 210
543.8 -426.2 282.3 209 212 211
558.7 -432.7 286.6 209 212 211
79.3 -34.6 22.9 184 184 184
78.0 -33.8 22.4 186 188 187
77.8 -33.5 22.2 186 188 187
63.2 -26.2 17.3 169 171 170
63.5 -26.1 17.3 165 165 165
63.9 -26.1 17.3 158 158 158
64.1 -26.0 17.2 150 150 150
-12.5 -26.5 17.8 176 179 178
-12.0 -26.4 17.7 174 174 174
444.9 -379.9 255.6 207 210 209
521.2 -439.3 295.6 207 210 209
476.1 -396.0 266.4 207 210 209
482.2 -396.0 266.4 207 210 209
562.5 -439.3 295.6 208 211 210
578.4 -446.3 300.3 208 211 210
625.0 -476.5 320.6 209 212 211
632.5 -476.5 320.6 209 212 211
589.9 -439.3 295.6 209 212 211
489.7 -360.5 242.5 209 212 211
77.8 -33.2 22.3 185 185 185
77.2 -32.7 22.0 185 185 185
63.2 -25.9 17.4 178 178 178
63.2 -25.7 17.3 169 169 169
63.4 -25.7 17.3 164 164 164
63.9 -25.7 17.3 156 156 156
64.3 -25.7 17.3 151 151 151
65.0 -25.8 17.4 146 148 148
-27.1 -27.9 19.1 32 33 31
-12.5 -26.2 17.9 177 180 179
-12.1 -26.2 17.9 176 176 176
-11.6 -26.0 17.8 175 175 175
494.6 -439.3 300.3 210 210 210
658.4 -576.6 394.1 206 209 208
534.0 -461.3 315.3 206 209 208
515.6 -439.3 300.3 206 209 208
522.5 -439.3 300.3 206 209 208
641.5 -532.2 363.8 207 210 209
545.2 -446.4 305.1 207 210 209
590.3 -477.2 326.1 207 210 209
654.3 -522.2 356.9 207 210 209
702.4 -553.5 378.3 207 210 209
761.6 -564.8 386.0 209 212 211
639.9 -469.1 320.6 209 212 211
523.2 -379.1 259.1 209 212 211
76.6 -32.4 22.2 188 188 188
77.3 -32.5 22.2 188 188 188
76.7 -32.0 21.9 188 188 188
76.5 -31.7 21.7 188 188 188
77.3 -31.8 21.7 184 184 184
63.4 -25.4 17.4 168 168 168
63.4 -25.3 17.3 160 160 160
63.8 -25.3 17.3 156 156 156
63.8 -25.1 17.2 151 151 151
67.6 -26.1 17.8 136 138 137
67.0 -25.7 17.6 134 136 135
-48.0 -28.3 19.7 179 182 181
-30.6 -28.3 19.6 31 32 30
-30.2 -28.3 19.6 49 49 49
-28.8 -28.3 19.6 90 92 91
-27.9 -28.2 19.6 101 101 101
-27.3 -28.2 19.6 28 28 28
-15.1 -28.3 19.6 206 206 206
-14.5 -28.0 19.5 194 197 196
-12.7 -26.1 18.2 174 174 174
-12.5 -26.6 18.5 173 173 173
-11.7 -25.8 17.9 146 148 148
-12.4 -28.4 19.7 25 26 24
704.2 -567.4 394.1 206 209 208
740.3 -534.0 370.9 208 211 210
578.7 -412.7 286.6 209 212 211
75.8 -31.6 21.9 189 189 189
77.1 -31.9 22.1 189 189 189
76.6 -31.5 21.8 189 189 189
76.1 -31.0 21.5 189 189 189
76.6 -31.0 21.5 185 185 185
63.3 -24.8 17.2 162 162 162
63.6 -24.8 17.2 157 157 157
63.7 -24.7 17.1 149 151 151
67.9 -25.8 17.9 135 135 135
67.3 -25.5 17.7 134 134 134
-56.1 -28.2 19.9 25 25 25
-56.1 -28.5 20.1 43 42 41
-55.7 -28.5 20.1 99 98 96
-55.3 -28.5 20.1 146 146 146
-54.7 -28.5 20.1 25 25 25
-54.3 -28.5 20.1 25 25 25
-53.7 -28.4 20.1 29 30 28
-53.8 -28.7 20.3 24 24 24
-53.3 -28.7 20.3 24 24 24
-52.4 -28.5 20.1 26 26 26
-52.0 -28.5 20.1 35 35 35
-51.6 -28.5 20.1 64 65 63
-51.0 -28.5 20.1 167 167 167
-50.5 -28.5 20.1 184 184 184
-50.1 -28.5 20.1 177 177 177
-49.7 -28.5 20.1 153 152 150
-49.1 -28.5 20.1 186 186 186
-48.5 -28.4 20.1 173 175 175
-48.1 -28.4 20.1 157 160 159
-47.8 -28.5 20.1 154 153 151
-47.4 -28.5 20.1 152 152 152
-46.8 -28.5 20.1 78 80 78
-46.3 -28.5 20.1 80 82 79
-45.8 -28.5 20.1 204 204 204
-45.8 -28.7 20.3 188 188 188
-45.3 -28.7 20.3 165 168 167
-44.8 -28.7 20.3 92 92 92
-44.0 -28.5 20.1 88 90 89
-43.6 -28.5 20.1 142 144 143
-43.0 -28.5 20.1 130 130 130
-42.6 -28.5 20.1 91 91 91
-42.2 -28.5 20.1 62 62 62
-41.6 -28.5 20.1 73 73 73
-41.2 -28.5 20.1 74 74 74
-40.7 -28.5 20.1 80 82 79
-40.2 -28.5 20.1 55 55 55
-39.8 -28.5 20.1 41 43 42
-39.3 -28.4 20.1 118 120 119
-38.8 -28.4 20.1 168 168 168
-38.4 -28.5 20.1 165 165 165
-37.8 -28.4 20.0 173 173 173
-36.7 -28.6 20.2 131 133 132
-36.2 -28.6 20.2 136 136 136
-35.6 -28.5 20.1 156 156 156
-35.2 -28.6 20.2 188 190 190
-34.8 -28.6 20.2 232 232 232
-33.7 -28.5 20.1 240 240 240
-33.2 -28.4 20.1 225 225 225
-32.8 -28.5 20.1 229 229 229
-32.3 -28.5 20.1 212 214 214
-31.9 -28.5 20.1 208 208 208
-31.4 -28.5 20.1 139 139 139
-30.9 -28.5 20.1 74 74 74
-30.5 -28.5 20.1 27 27 27
-30.0 -28.5 20.1 21 24 22
-29.5 -28.5 20.1 25 25 25
-29.1 -28.6 20.2 31 32 30
-28.5 -28.4 20.1 112 112 112
-28.0 -28.4 20.0 27 27 27
-27.5 -28.4 20.0 96 96 96
-27.2 -28.5 20.1 21 24 22
-26.7 -28.5 20.1 31 32 30
-26.3 -28.5 20.1 111 111 109
-26.0 -28.7 20.3 144 144 144
-14.6 -28.6 20.2 167 167 167
-13.2 -28.5 20.1 119 121 120
-12.6 -28.4 20.0 44 44 44
786.6 -558.3 394.1 208 211 210
76.5 -31.1 22.0 191 194 193
76.3 -30.8 21.8 190 190 190
75.5 -30.3 21.4 190 190 190
63.0 -24.3 17.2 160 160 160
63.4 -24.3 17.2 151 153 153
63.7 -24.3 17.1 150 150 150
74.1 -27.9 19.7 140 142 141
-58.0 -28.7 20.6 24 24 24
-57.5 -28.7 20.6 113 114 113
-57.1 -28.7 20.6 134 134 134
-56.5 -28.7 20.6 20 23 21
-56.0 -28.7 20.6 25 25 25
-55.6 -28.7 20.6 24 24 24
-55.1 -28.7 20.6 20 23 21
-54.7 -28.7 20.6 24 24 24
-54.2 -28.7 20.6 24 24 24
-53.8 -28.7 20.6 27 27 27
-53.3 -28.7 20.6 35 35 35
-52.7 -28.7 20.6 38 38 38
-52.2 -28.7 20.6 147 147 147
-51.8 -28.7 20.6 180 183 182
-51.4 -28.7 20.6 154 153 151
-50.9 -28.7 20.6 148 148 148
-50.4 -28.7 20.6 172 172 172
-49.8 -28.7 20.6 178 177 175
-49.3 -28.7 20.6 151 151 151
-48.9 -28.7 20.6 97 96 94
-48.5 -28.7 20.6 202 202 202
-48.0 -28.7 20.6 202 202 202
-47.5 -28.7 20.6 63 63 63
-47.0 -28.7 20.6 29 31 29
-46.5 -28.7 20.6 141 141 141
-46.0 -28.7 20.6 115 117 116
-45.7 -28.8 20.7 96 95 94
-45.1 -28.7 20.6 92 92 92
-44.5 -28.6 20.6 157 156 154
-44.1 -28.7 20.6 119 119 119
-43.7 -28.7 20.6 24 24 24
-43.2 -28.7 20.6 54 54 54
-42.7 -28.7 20.6 59 59 59
-42.2 -28.7 20.6 68 68 68
-41.7 -28.7 20.6 68 68 68
-41.3 -28.7 20.6 68 68 68
-40.8 -28.7 20.6 68 68 68
-40.2 -28.6 20.6 68 68 68
-39.8 -28.7 20.6 68 68 68
-39.3 -28.7 20.6 66 67 65
-38.6 -28.6 20.5 65 65 65
-37.6 -28.9 20.7 200 202 202
-37.0 -28.7 20.6 227 227 227
-36.5 -28.7 20.6 221 221 221
-36.1 -28.8 20.7 221 221 221
-35.7 -28.9 20.7 181 181 181
-35.1 -28.8 20.7 131 134 133
-34.5 -28.7 20.6 132 135 134
-34.0 -28.6 20.6 198 201 200
-33.6 -28.7 20.6 202 202 202
-33.1 -28.7 20.6 222 222 222
-32.7 -28.7 20.6 214 216 216
-32.2 -28.7 20.6 212 214 214
-31.7 -28.7 20.6 8 9 8
-31.2 -28.7 20.6 48 48 48
-30.7 -28.7 20.6 111 111 111
-30.3 -28.8 20.7 122 122 122
-29.8 -28.7 20.6 136 138 137
-29.1 -28.5 20.5 93 93 93
-28.6 -28.5 20.5 67 68 66
-28.1 -28.5 20.5 34 33 32
-27.8 -28.7 20.6 27 27 27
-27.4 -28.7 20.6 84 84 84
-26.9 -28.7 20.6 74 74 74
-26.4 -28.7 20.6 30 31 30
-15.0 -28.9 20.8 171 173 173
-14.4 -28.7 20.6 181 184 183
-14.0 -28.7 20.6 181 184 183
-13.4 -28.6 20.6 175 175 175
-13.0 -28.7 20.6 117 119 118
77.5 -31.0 22.3 192 195 194
77.8 -30.9 22.2 191 191 191
75.8 -29.9 21.5 192 195 194
74.2 -28.7 20.6 182 182 182
63.4 -24.1 17.3 160 160 160
63.6 -24.0 17.2 152 152 152
63.8 -23.9 17.2 144 146 146
73.8 -27.5 19.7 141 143 142
73.3 -27.1 19.5 135 135 135
-50.2 -29.3 21.4 67 67 67
-49.3 -29.0 21.2 60 60 60
-46.3 -29.0 21.2 112 112 112
-37.0 -29.1 21.2 214 216 216
-36.8 -29.3 21.4 224 224 224
-33.0 -29.0 21.1 198 201 200
-32.5 -29.0 21.1 2 7 3
-30.5 -28.9 21.1 30 31 30
-29.8 -28.8 21.0 30 31 30
-29.4 -28.8 21.0 99 98 96
-14.8 -29.0 21.2 180 180 180
-14.1 -28.5 20.8 179 179 179
-13.6 -28.6 20.9 177 177 177
160.7 -115.7 84.4 211 211 211
77.9 -30.6 22.4 193 196 195
78.3 -30.6 22.3 193 196 195
79.4 -30.6 22.3 189 189 189
79.5 -30.5 22.2 186 186 186
64.7 -24.2 17.6 155 158 157
64.2 -23.8 17.4 150 150 150
64.5 -23.8 17.4 140 139 138
69.1 -25.0 18.2 131 134 133
68.4 -24.6 17.9 129 129 129
-56.9 -29.4 21.8 75 76 76
-56.4 -29.4 21.8 47 47 47
-55.7 -29.3 21.8 141 143 142
-55.3 -29.4 21.8 166 169 168
-54.9 -29.4 21.8 149 149 149
-54.3 -29.4 21.8 182 185 184
-53.8 -29.4 21.8 179 179 179
-53.3 -29.4 21.8 203 205 205
-52.7 -29.4 21.8 153 153 153
-52.3 -29.4 21.8 112 112 112
-51.9 -29.4 21.8 67 67 67
-51.3 -29.4 21.8 64 65 63
-50.8 -29.4 21.8 39 41 41
-50.2 -29.4 21.8 29 31 29
-48.4 -29.5 21.9 78 80 78
-47.6 -29.3 21.8 105 105 105
-47.0 -29.3 21.7 108 110 110
-41.2 -30.2 22.4 45 44 43
-39.7 -29.4 21.8 64 64 64
-39.1 -29.4 21.8 59 59 59
-38.7 -29.4 21.8 163 166 165
-38.1 -29.4 21.8 175 175 175
-37.5 -29.3 21.8 178 181 180
-37.0 -29.4 21.8 181 181 181
-36.5 -29.3 21.8 189 189 189
-35.1 -29.4 21.8 213 215 215
-34.5 -29.4 21.8 208 208 208
-33.9 -29.3 21.7 204 204 204
-31.8 -29.2 21.6 78 80 78
-31.3 -29.2 21.7 112 112 112
-15.2 -29.3 21.7 179 179 179
-14.6 -29.0 21.5 183 183 183
-14.0 -28.9 21.5 170 171 170
-13.7 -29.3 21.7 167 167 167
168.0 -130.0 96.5 209 209 209
401.9 -307.0 227.9 209 209 209
341.4 -257.3 191.1 209 209 209
222.2 -159.2 118.2 210 210 210
178.2 -126.1 93.6 211 211 211
173.5 -121.3 90.1 211 211 211
78.8 -30.5 22.6 193 193 193
78.5 -30.2 22.4 193 193 193
80.6 -30.5 22.7 193 193 193
80.6 -30.4 22.5 184 184 184
82.9 -31.0 23.0 177 177 177
65.0 -23.7 17.6 140 140 140
64.8 -23.5 17.5 138 138 138
69.2 -24.9 18.5 134 136 135
70.7 -25.3 18.8 134 136 135
69.9 -24.9 18.5 134 136 135
-61.8 -31.4 23.7 164 167 166
-59.2 -32.3 24.4 167 167 167
-56.7 -31.3 23.7 107 107 107
-56.2 -31.3 23.7 49 49 49
-55.7 -31.4 23.7 53 52 52
-54.5 -32.3 24.4 141 141 141
-52.3 -31.3 23.6 78 80 78
-51.7 -31.3 23.6 78 80 78
-52.6 -32.1 24.3 29 30 28
-43.5 -31.3 23.6 40 42 42
-42.9 -31.3 23.6 57 57 55
-42.4 -31.3 23.6 58 59 59
-41.9 -31.3 23.7 75 75 75
-41.2 -31.3 23.6 178 178 178
-40.4 -32.3 24.4 206 209 208
-39.8 -32.3 24.4 209 209 209
-38.7 -32.3 24.4 204 207 206
-37.0 -31.4 23.7 160 160 160
-35.3 -31.3 23.7 41 43 42
176.0 -133.9 101.2 211 211 211
358.7 -269.2 203.4 209 209 209
301.8 -223.6 168.9 209 209 209
183.5 -132.5 100.1 212 213 212
215.5 -151.7 114.6 210 210 210
196.7 -136.8 103.4 214 214 214
189.8 -130.4 98.5 211 211 211
243.0 -157.5 119.0 208 211 210
79.4 -30.0 22.7 185 185 185
81.3 -30.3 22.9 185 185 185
81.5 -30.2 22.8 178 181 180
84.6 -31.1 23.5 167 167 167
84.5 -30.9 23.3 166 166 166
70.8 -25.1 18.9 134 136 135
71.0 -25.0 18.9 134 136 135
71.0 -24.8 18.8 133 133 133
-65.4 -32.6 25.1 77 78 76
-60.8 -32.7 25.1 186 188 187
-60.3 -32.7 25.2 104 103 101
-59.7 -32.7 25.2 47 47 47
-59.0 -32.7 25.1 32 31 30
-58.5 -32.7 25.2 25 25 25
-56.0 -32.2 24.8 18 22 19
-56.1 -32.6 25.1 27 27 27
-54.9 -32.6 25.1 90 90 90
-45.4 -32.5 25.0 53 52 52
-45.0 -32.6 25.1 57 57 55
-44.3 -32.5 25.0 54 54 54
-43.8 -32.6 25.1 53 52 52
-41.6 -32.7 25.2 210 210 210
-41.0 -32.7 25.2 210 210 210
-39.7 -32.6 25.1 159 159 159
-38.2 -32.8 25.2 23 23 23
-16.7 -34.4 26.4 89 91 90
-16.0 -34.2 26.3 57 59 59
13.1 -13.1 10.1 210 210 210
13.6 -13.1 10.1 210 210 210
13.8 -13.1 10.1 210 210 210
15.8 -13.2 10.2 209 209 209
299.1 -217.7 167.4 211 211 211
255.5 -183.6 141.2 212 213 212
195.9 -139.0 106.9 212 213 212
274.4 -192.2 147.8 212 213 212
243.5 -168.5 129.6 214 214 214
210.5 -143.8 110.6 214 214 214
378.2 -243.5 187.3 212 213 212
261.1 -166.2 127.8 212 213 212
49.2 -28.1 21.6 198 198 198
86.3 -31.2 24.0 150 150 150
86.8 -31.1 23.9 139 141 140
85.5 -30.5 23.4 139 141 140
72.5 -25.2 19.4 134 134 134
72.0 -24.9 19.1 134 134 134
71.7 -24.6 18.9 133 133 133
-17.5 -34.2 26.8 83 85 85
-17.0 -34.4 26.9 89 91 90
-16.3 -34.3 26.9 61 61 61
-15.4 -33.6 26.3 115 114 114
362.6 -262.6 205.6 211 211 211
301.8 -215.7 168.9 211 211 211
259.4 -183.0 143.3 212 213 212
199.3 -138.8 108.7 212 213 212
280.9 -193.3 151.3 212 213 212
245.2 -166.6 130.5 212 213 212
222.2 -149.1 116.8 214 214 214
651.0 -416.5 326.1 217 217 217
262.8 -164.3 128.7 215 215 215
50.1 -28.4 22.3 198 198 198
88.4 -31.4 24.6 135 135 135
89.2 -31.5 24.6 135 135 135
89.6 -31.4 24.6 135 135 135
73.7 -25.2 19.7 128 130 129
73.8 -25.0 19.6 128 130 129
72.9 -24.6 19.2 131 133 132
-43.4 -22.5 17.9 58 59 59
-42.9 -22.4 17.9 38 38 38
-42.4 -22.4 17.8 38 38 38
-41.2 -22.4 17.9 19 23 20
-40.7 -22.4 17.9 19 23 20
-40.3 -22.4 17.9 154 154 154
-39.9 -22.4 17.9 183 183 183
-29.6 -22.4 17.9 52 52 52
-29.2 -22.5 17.9 39 41 41
-28.7 -22.4 17.9 26 26 26
-28.3 -22.4 17.9 32 31 30
-28.0 -22.5 17.9 86 88 88
-27.6 -22.5 17.9 32 31 30
-27.1 -22.4 17.9 59 59 59
-26.7 -22.5 17.9 45 45 45
-26.4 -22.6 18.0 44 43 42
-26.0 -22.6 18.0 75 77 75
-17.6 -33.8 26.9 91 93 92
-17.1 -33.9 27.1 89 91 90
-16.3 -33.7 26.9 72 72 72
286.4 -201.0 160.3 211 211 211
234.5 -162.5 129.6 211 211 211
199.3 -136.3 108.7 212 213 212
256.3 -173.1 138.1 212 213 212
241.9 -161.4 128.7 212 213 212
220.8 -145.5 116.1 216 216 216
218.2 -142.0 113.3 214 214 214
599.3 -376.5 300.3 215 215 215
262.8 -161.4 128.7 215 215 215
217.1 -131.8 105.1 218 218 218
286.3 -171.9 137.1 177 177 177
292.7 -171.9 137.1 199 199 199
50.6 -28.2 22.5 198 198 198
48.3 -26.6 21.2 198 198 198
46.5 -25.4 20.2 202 202 202
90.6 -31.5 25.2 112 112 112
91.7 -31.8 25.3 119 119 119
92.8 -31.9 25.5 122 122 122
74.5 -25.0 19.9 122 122 122
74.3 -24.8 19.7 123 123 123
-40.5 -21.8 17.7 23 23 23
-39.6 -21.8 17.7 158 158 158
-29.4 -21.9 17.8 47 47 47
-17.9 -33.7 27.4 91 93 92
-17.2 -33.5 27.3 89 91 90
-16.5 -33.4 27.1 85 85 85
301.8 -207.8 168.9 211 211 211
215.3 -146.4 119.0 211 211 211
198.2 -133.0 108.1 211 211 211
225.1 -149.2 121.3 212 213 212
230.9 -151.2 122.8 216 216 216
220.8 -142.8 116.1 216 216 216
219.5 -140.2 114.0 216 216 216
231.9 -146.4 119.0 214 214 214
233.2 -145.5 118.2 214 214 214
234.5 -144.6 117.5 215 215 215
465.8 -283.9 230.7 217 217 217
261.1 -157.3 127.8 215 215 215
215.9 -128.6 104.5 216 216 216
265.2 -156.2 127.0 179 179 179
254.5 -148.3 120.5 194 194 194
260.6 -150.2 122.0 199 199 199
256.8 -146.4 119.0 199 199 199
48.4 -26.2 21.3 202 202 202
46.5 -24.9 20.3 202 202 202
93.0 -31.8 25.8 107 109 109
93.5 -31.8 25.8 111 111 111
94.9 -32.0 26.0 111 111 111
74.0 -24.2 19.7 114 116 115
73.7 -23.9 19.5 114 116 115
73.8 -23.9 19.4 132 132 132
-33.8 -17.4 14.4 19 23 20
-33.4 -17.3 14.4 17 21 18
-33.2 -17.4 14.4 17 21 18
-32.8 -17.4 14.4 25 25 25
-32.5 -17.4 14.4 131 131 131
-32.2 -17.4 14.4 154 154 154
-31.8 -17.4 14.4 112 112 112
-31.5 -17.4 14.4 147 149 149
-31.2 -17.4 14.4 133 133 133
-20.0 -35.7 29.6 126 126 126
-18.4 -34.0 28.2 96 96 96
-17.5 -33.5 27.7 89 91 90
-17.0 -33.8 28.0 64 63 61
299.1 -202.1 167.4 214 214 214
180.6 -119.0 98.5 215 215 215
262.1 -170.4 141.2 215 215 215
241.9 -155.4 128.7 216 216 216
222.2 -141.0 116.8 216 216 216
786.6 -475.8 394.1 217 217 217
587.6 -351.4 291.0 217 217 217
278.0 -164.3 136.1 221 221 221
260.6 -147.4 122.0 197 197 197
255.2 -142.7 118.2 199 199 199
45.6 -23.7 19.6 203 203 203
51.8 -17.1 14.1 107 107 107
52.1 -17.0 14.1 107 109 109
75.9 -24.5 20.3 105 105 105
74.1 -23.8 19.7 107 107 107
73.7 -23.4 19.4 155 155 155
74.3 -23.4 19.4 125 125 125
-29.0 -14.7 12.5 23 23 23
-35.0 -18.2 15.3 23 23 23
-34.3 -18.0 15.2 113 114 113
13.4 -12.3 10.4 209 209 209
13.6 -12.2 10.3 212 213 212
13.9 -12.2 10.3 209 209 209
16.1 -12.3 10.4 210 210 210
352.1 -233.3 197.0 214 214 214
292.7 -186.7 157.6 215 215 215
252.2 -158.9 134.2 216 216 216
233.8 -145.5 122.8 216 216 216
45.0 -23.0 19.4 203 203 203
49.2 -24.4 20.6 204 204 204
48.4 -23.7 20.0 197 197 197
47.7 -23.2 19.6 193 193 193
46.6 -22.4 19.0 166 166 166
51.8 -16.8 14.2 105 105 105
52.1 -16.8 14.2 104 104 104
52.5 -16.8 14.2 100 102 102
-35.3 -18.0 15.5 17 21 18
13.7 -11.8 10.2 212 213 212
13.8 -11.7 10.1 212 213 212
16.0 -11.9 10.3 208 208 208
308.1 -192.6 165.9 212 213 212
250.4 -154.6 133.2 216 216 216
45.0 -22.5 19.4 203 203 203
47.8 -23.0 19.8 197 197 197
47.1 -22.5 19.3 193 193 193
46.3 -21.9 18.8 178 178 178
52.4 -16.7 14.4 99 101 101
52.3 -16.6 14.3 99 101 101
53.2 -16.7 14.4 90 92 91
47.9 -14.6 12.6 157 157 157
-30.9 -15.0 13.1 38 40 40
-30.6 -15.0 13.1 140 140 140
-30.4 -15.0 13.2 148 150 150
-30.0 -15.0 13.2 137 139 138
-29.7 -15.0 13.2 126 129 128
-29.4 -15.0 13.1 174 174 174
-29.0 -14.9 13.1 174 174 174
-28.9 -15.0 13.2 177 180 179
-28.7 -15.1 13.3 177 180 179
-28.2 -15.0 13.2 183 186 185
-24.3 -42.3 37.2 97 97 97
-23.3 -42.1 37.0 95 95 95
-22.9 -43.0 37.8 79 81 80
-21.9 -42.6 37.5 115 114 114
246.9 -149.4 131.4 218 218 218
226.4 -135.3 119.0 219 219 219
45.2 -22.1 19.5 203 203 203
47.0 -21.9 19.3 192 192 192
46.0 -21.3 18.7 169 169 169
53.9 -16.6 14.6 68 67 66
54.4 -16.7 14.6 69 69 69
48.6 -14.4 12.7 119 121 120
-35.8 -17.3 15.5 198 198 198
-35.5 -17.3 15.5 163 163 163
-35.0 -17.3 15.5 17 17 17
-34.4 -17.3 15.5 13 13 13
-33.6 -17.3 15.5 95 94 93
-33.3 -17.3 15.5 136 138 137
-24.3 -41.4 37.2 96 99 98
-23.4 -41.3 37.1 96 99 98
-22.7 -41.7 37.5 112 112 112
-21.6 -41.3 37.0 20 20 20
-20.6 -40.9 36.7 13 17 14
265.4 -157.3 141.2 218 218 218
226.4 -132.6 119.0 219 219 219
54.4 -16.4 14.7 72 72 72
54.7 -16.4 14.7 74 74 74
48.3 -14.1 12.7 151 153 153
48.6 -14.1 12.7 123 125 124
-28.1 -13.2 12.1 87 89 88
-27.7 -13.1 12.0 140 140 140
-27.5 -13.2 12.1 140 140 140
-27.2 -13.2 12.1 29 31 29
-25.6 -42.7 39.2 95 95 95
-24.1 -41.7 38.2 96 99 98
-23.1 -41.4 38.0 112 112 112
-21.8 -40.8 37.4 11 11 11
23.7 -16.1 14.8 215 215 215
229.3 -131.5 120.5 219 219 219
54.1 -16.0 14.7 75 76 76
54.5 -16.0 14.7 75 76 76
48.5 -13.8 12.7 127 127 127
-25.5 -43.2 40.4 100 100 100
-23.8 -41.9 39.2 113 114 113
-22.7 -41.5 38.8 26 25 24
15.9 -10.8 10.1 216 219 218
23.7 -15.8 14.8 216 219 218
48.4 -13.5 12.6 128 128 128
-26.6 -44.0 42.1 101 101 101
-24.8 -42.6 40.8 111 111 111
29.5 -19.0 18.2 217 220 219
29.5 -18.7 17.9 217 220 219
48.7 -13.3 12.7 124 126 125
-11.4 -11.6 11.4 30 29 28
-12.4 -12.9 12.7 30 30 30
-12.0 -12.8 12.5 33 33 33
16.1 -10.8 10.5 216 219 218
16.1 -10.6 10.4 216 219 218
29.6 -18.6 18.2 217 220 219
356.7 -172.5 168.9 198 198 198
308.4 -147.5 144.4 198 198 198
195.2 -63.1 61.8 43 45 44
166.2 -53.4 52.3 43 45 44
48.7 -13.0 12.7 136 136 136
-12.4 -12.6 12.6 31 31 31
-11.9 -12.4 12.5 33 33 33
-11.4 -12.2 12.2 33 33 33
-11.0 -12.1 12.1 36 36 36
16.2 -10.7 10.7 216 219 218
16.1 -10.5 10.5 216 219 218
16.0 -10.3 10.3 216 219 218
16.0 -10.1 10.2 217 220 219
29.8 -18.3 18.3 217 220 219
373.4 -176.5 176.8 196 196 196
313.1 -146.4 146.6 198 198 198
189.1 -59.8 59.9 43 45 44
48.5 -12.6 12.7 128 131 130
-12.0 -12.2 12.5 33 33 33
-32.7 -54.6 56.0 46 47 45
-31.6 -54.9 56.3 20 20 20
12.8 -9.8 10.0 218 221 220
13.1 -9.8 10.1 218 221 220
13.3 -9.8 10.0 217 220 219
13.5 -9.8 10.0 217 220 219
13.7 -9.8 10.0 217 220 219
14.9 -9.8 10.0 217 220 219
16.2 -10.5 10.7 215 215 215
16.2 -10.3 10.6 216 219 218
16.0 -10.0 10.3 219 222 221
15.9 -9.8 10.1 217 220 219
29.9 -17.9 18.4 217 220 219
407.7 -188.2 193.0 192 192 192
209.4 -94.6 97.0 202 202 202
-12.2 -12.1 12.7 34 34 34
-36.5 -59.4 62.4 32 34 33
-37.0 -62.7 65.9 21 21 21
15.8 -9.5 10.0 219 222 221
29.9 -17.5 18.4 220 223 222
240.3 -121.6 127.8 219 222 221
271.1 -120.8 127.0 198 198 198
214.9 -94.8 99.6 198 198 198
162.5 -70.9 74.5 199 199 199
160.5 -48.0 50.4 52 52 50
-42.3 -67.3 72.5 23 24 23
-39.1 -64.8 69.8 23 23 22
29.8 -17.1 18.4 220 223 222
248.7 -122.8 132.3 222 224 224
272.9 -118.7 127.8 198 198 198
161.2 -68.6 73.9 199 199 199
181.0 -53.2 57.3 52 52 50
158.8 -46.3 49.9 55 55 55
168.3 -46.1 49.6 56 55 54
-50.4 -75.1 83.0 109 109 107
-46.2 -71.6 79.1 26 25 24
-44.2 -71.3 78.8 23 23 22
-44.6 -75.1 83.0 169 171 170
17.1 -9.8 10.8 220 223 222
28.5 -15.7 17.3 220 223 222
395.6 -169.5 187.3 180 180 180
269.3 -114.2 126.1 198 198 198
217.2 -91.1 100.6 198 198 198
167.1 -69.3 76.6 199 199 199
183.8 -52.7 58.2 57 57 57
158.0 -44.9 49.6 58 59 59
-52.4 -79.1 89.7 30 30 30
-51.2 -80.6 91.4 31 33 33
28.6 -15.3 17.4 220 223 222
411.6 -173.8 197.0 175 177 177
387.9 -162.0 183.7 173 173 173
269.3 -111.2 126.1 196 196 196
170.6 -68.9 78.2 198 198 198
29.3 -8.9 10.1 104 104 104
185.0 -51.7 58.6 62 62 62
160.5 -44.5 50.4 62 62 62
-69.5 -102.2 119.0 32 34 33
-63.9 -97.9 114.0 23 23 22
-199.4 -318.5 370.9 180 183 182
-183.6 -306.5 356.9 179 182 181
28.3 -14.7 17.1 220 223 222
27.7 -14.3 16.6 220 223 222
411.6 -169.2 197.0 178 178 178
366.6 -149.0 173.5 173 173 173
196.3 -78.1 90.9 198 198 198
170.6 -67.1 78.2 198 198 198
-248.5 -329.3 394.1 91 93 92
-76.9 -114.5 137.1 26 25 24
27.5 -13.7 16.4 220 223 222
395.2 -158.0 189.2 185 185 185
286.5 -112.1 134.2 194 194 194
206.2 -79.8 95.5 198 198 198
27.6 -13.4 16.5 222 224 224
277.5 -106.7 131.4 181 181 181
264.0 -100.4 123.6 192 192 192
213.8 -80.4 99.0 198 198 198
13.1 -8.0 10.1 218 221 220
13.2 -7.9 10.0 218 221 220
15.9 -8.0 10.1 220 223 222
27.8 -13.1 16.6 222 224 224
272.9 -100.8 127.8 188 188 188
228.1 -83.4 105.7 194 194 194
163.8 -59.2 75.1 198 198 198
12.8 -7.7 10.0 218 221 220
13.1 -7.7 10.1 218 221 220
13.3 -7.7 10.0 218 221 220
13.5 -7.7 10.0 218 221 220
13.7 -7.7 10.0 218 221 220
15.9 -7.7 10.1 222 224 224
16.1 -7.7 10.0 222 224 224
28.2 -13.1 17.1 222 224 224
27.7 -12.7 16.6 222 224 224
272.9 -97.9 127.8 158 161 160
208.3 -73.9 96.5 196 196 196
165.1 -57.9 75.7 196 196 196
12.8 -7.4 10.0 218 221 220
13.0 -7.4 10.0 222 224 224
13.2 -7.4 10.0 218 221 220
13.7 -7.4 10.0 218 221 220
16.5 -8.2 11.1 222 224 224
15.8 -7.5 10.0 222 224 224
29.7 -13.6 18.3 222 224 224
32.1 -13.9 18.7 222 224 224
32.2 -13.7 18.5 222 224 224
274.8 -95.5 128.7 152 152 152
167.1 -56.9 76.6 194 194 194
209.5 -64.4 86.8 198 198 198
-32.9 -11.3 15.7 47 46 45
16.5 -8.0 11.1 222 224 224
16.3 -7.7 10.7 222 224 224
29.8 -13.2 18.3 222 224 224
31.9 -13.4 18.6 222 224 224
32.1 -13.3 18.5 222 224 224
165.8 -54.6 76.0 194 194 194
191.1 -56.9 79.1 198 198 198
-32.9 -10.8 15.5 69 69 69
-32.6 -10.8 15.6 59 59 59
-31.8 -10.7 15.3 57 57 57
-31.2 -10.6 15.2 54 54 54
-10.5 -7.1 10.2 42 44 43
-10.0 -7.0 10.0 42 43 42
16.6 -7.8 11.2 222 224 224
16.3 -7.5 10.8 222 224 224
16.3 -7.4 10.7 222 224 224
29.8 -12.8 18.4 222 224 224
32.7 -13.3 19.0 222 224 224
32.8 -13.1 18.8 222 224 224
192.6 -62.1 89.2 182 182 182
162.5 -51.8 74.5 194 194 194
191.9 -55.3 79.5 200 200 200
167.1 -47.7 68.5 224 226 226
-33.0 -10.6 15.8 52 52 52
-13.9 -6.8 10.1 196 196 196
16.6 -7.5 11.2 218 221 220
16.3 -7.3 10.8 222 224 224
30.4 -12.6 18.7 222 224 224
33.3 -13.4 19.9 222 224 224
33.4 -13.3 19.7 222 224 224
186.5 -58.1 86.4 185 185 185
171.3 -52.8 78.5 192 192 192
201.9 -56.8 84.4 207 207 207
161.2 -44.5 66.1 222 224 224
207.9 -56.3 83.7 91 91 91
199.3 -53.5 79.5 77 77 77
84.3 -21.4 31.8 65 65 65
83.6 -21.1 31.3 66 66 66
16.3 -7.0 10.8 219 222 221
29.9 -12.0 18.4 223 225 225
33.6 -13.1 20.1 223 225 225
33.8 -13.0 20.0 223 225 225
34.3 -13.0 20.0 223 225 225
186.5 -56.1 86.4 176 179 178
161.9 -48.2 74.2 194 194 194
182.3 -52.1 80.2 199 199 199
165.3 -44.0 67.8 234 234 234
197.6 -51.2 78.8 75 75 75
172.8 -44.4 68.3 72 74 74
85.0 -20.9 32.1 65 65 65
84.2 -20.5 31.5 66 66 66
84.1 -20.3 31.2 67 67 67
-206.3 -57.2 91.4 41 43 42
-185.4 -52.0 83.0 34 33 32
-154.9 -43.9 70.1 31 32 30
16.2 -6.7 10.8 219 222 221
16.2 -6.6 10.6 219 222 221
29.9 -11.5 18.4 223 225 225
33.5 -12.6 20.1 223 225 225
33.8 -12.5 20.0 223 225 225
34.4 -12.6 20.0 223 225 225
192.6 -55.9 89.2 180 180 180
165.8 -47.6 76.0 190 190 190
183.1 -50.4 80.5 197 197 197
218.5 -57.8 92.3 203 203 203
201.9 -52.9 84.4 206 206 206
190.3 -49.4 78.8 198 198 198
176.0 -45.2 72.2 225 227 227
201.0 -50.2 80.2 71 73 73
85.3 -20.2 32.2 66 66 66
84.7 -19.9 31.7 66 66 66
84.5 -19.6 31.4 67 67 67
-219.0 -58.5 97.0 72 72 72
-175.4 -47.3 78.5 64 64 64
-154.3 -42.1 69.8 62 62 62
16.4 -6.7 11.0 220 223 222
16.3 -6.5 10.8 220 223 222
16.4 -6.4 10.7 220 223 222
30.2 -11.2 18.6 223 225 225
32.7 -11.5 19.0 224 226 226
32.8 -11.4 18.8 224 226 226
198.2 -55.4 91.8 174 176 176
167.8 -46.4 76.9 190 190 190
215.1 -57.6 95.5 197 197 197
192.1 -50.9 84.4 197 197 197
225.2 -58.5 97.0 200 200 200
226.2 -57.6 95.5 204 204 204
208.4 -52.6 87.2 208 208 208
197.7 -49.4 81.9 204 204 204
183.0 -45.3 75.1 232 232 232
220.6 -53.6 88.8 111 113 112
206.2 -49.6 82.2 64 64 64
84.9 -19.2 31.8 62 64 64
84.5 -18.9 31.4 69 69 69
-574.0 -138.8 239.4 78 78 78
-522.1 -127.5 220.0 73 73 73
-494.0 -121.9 210.2 77 77 77
-550.3 -137.1 236.5 71 72 70
-573.5 -144.3 248.9 80 80 80
-513.6 -130.6 225.2 70 70 70
16.4 -6.4 11.0 220 223 222
16.3 -6.3 10.8 220 223 222
30.2 -10.8 18.6 224 226 226
33.4 -11.6 20.0 224 226 226
33.2 -11.4 19.6 224 226 226
32.7 -10.9 18.8 224 226 226
247.8 -67.3 116.1 149 149 149
194.4 -52.2 90.1 175 175 175
170.6 -45.3 78.2 188 188 188
204.8 -52.7 90.9 195 195 195
190.4 -48.5 83.7 198 198 198
207.0 -52.2 90.1 200 200 200
212.1 -53.0 91.4 200 200 200
217.4 -53.2 91.8 204 204 204
207.5 -50.3 86.8 206 206 206
198.6 -47.7 82.2 199 199 199
211.6 -49.9 86.0 238 238 238
218.6 -51.0 88.0 111 113 112
206.2 -47.7 82.2 66 66 66
16.4 -6.1 11.0 220 220 220
16.2 -6.0 10.8 222 224 224
16.3 -5.9 10.7 222 224 224
30.4 -10.4 18.7 224 226 226
29.1 -9.8 17.6 222 224 224
32.9 -10.5 18.9 224 226 226
234.9 -61.2 110.0 144 144 144
199.2 -51.4 92.3 173 173 173
166.4 -42.5 76.3 188 188 188
221.8 -54.8 98.5 198 198 198
185.5 -45.4 81.5 198 198 198
228.7 -54.8 98.5 200 200 200
228.5 -53.7 96.5 204 204 204
204.7 -47.6 85.6 204 204 204
195.2 -45.0 80.8 194 194 194
206.8 -47.2 84.8 235 235 235
218.5 -49.4 88.8 235 235 235
223.8 -50.1 90.1 110 110 110
204.4 -45.4 81.5 70 72 72
193.8 -42.6 76.6 65 65 65
16.3 -5.8 10.8 221 221 221
29.6 -9.7 18.2 222 224 224
29.2 -9.4 17.7 222 224 224
210.5 -52.0 97.5 166 169 168
163.8 -40.0 75.1 186 186 186
216.2 -51.2 96.0 195 195 195
180.8 -42.4 79.5 195 195 195
226.4 -52.0 97.5 200 200 200
229.7 -51.7 97.0 204 204 204
201.9 -45.0 84.4 206 206 206
192.7 -42.6 79.8 199 199 199
175.3 -38.4 71.9 234 234 234
220.6 -47.8 89.7 238 238 238
230.3 -49.5 92.7 119 119 119
202.7 -43.1 80.8 73 75 75
16.2 -5.5 10.8 221 221 221
16.3 -5.4 10.6 221 221 221
28.6 -8.9 17.4 223 225 225
165.1 -38.6 75.7 186 186 186
180.8 -40.5 79.5 196 196 196
193.3 -41.2 80.8 202 202 202
191.9 -40.5 79.5 202 202 202
201.0 -40.9 80.2 70 70 70
16.2 -5.2 10.8 222 222 222
16.2 -5.2 10.6 222 222 222
28.6 -8.4 17.4 223 225 225
185.6 -41.9 86.0 180 180 180
161.2 -36.0 73.9 186 186 186
177.1 -37.9 77.8 196 196 196
185.6 -38.5 79.1 202 202 202
187.4 -38.5 79.1 205 205 205
188.5 -38.4 78.8 205 205 205
187.2 -37.7 77.5 202 202 202
169.5 -33.9 69.5 221 221 221
207.9 -40.7 83.7 121 121 121
197.6 -38.4 78.8 66 66 66
187.0 -36.0 73.9 68 68 68
197.5 -37.0 76.0 61 64 63
16.2 -5.0 10.8 222 222 222
16.1 -4.9 10.5 222 222 222
28.6 -8.0 17.4 222 222 222
190.0 -36.8 79.5 205 205 205
199.3 -36.8 79.5 45 44 43
192.2 -35.2 76.0 60 62 61
199.1 -35.5 76.6 61 64 63
16.2 -4.7 10.8 220 220 220
28.6 -7.6 17.4 224 224 224
633.1 -28.2 245.7 75 76 76
617.1 5.9 239.4 47 47 47
741.1 14.1 295.6 79 79 79
714.5 13.5 282.3 56 55 54
625.0 11.6 242.5 46 46 44
1062.2 16.4 343.9 46 48 47
1154.1 17.7 370.9 39 39 39
911.8 13.7 286.6 218 218 218
962.2 14.3 300.3 216 216 216
925.1 13.7 286.6 217 217 217
976.2 14.3 300.3 225 225 225
31.1 1.2 16.7 225 227 227
718.6 20.3 286.6 45 44 43
704.0 19.8 278.2 46 45 43
686.6 18.9 266.4 47 48 47
990.2 22.8 320.6 47 49 48
1154.1 26.3 370.9 109 109 109
925.9 20.7 291.0 221 221 221
947.2 21.0 295.6 221 221 221
911.3 20.0 282.3 222 222 222
976.2 21.3 300.3 224 224 224
967.8 21.0 295.6 221 221 221
27.8 1.5 15.8 224 226 226
27.7 1.4 15.3 226 229 228
30.9 1.6 16.7 226 229 228
30.8 1.5 16.4 225 227 227
27.8 1.9 15.8 224 224 224
28.0 1.8 15.7 224 226 226
27.9 1.8 15.4 224 226 226
30.6 2.0 16.7 224 226 226
31.0 2.0 16.7 224 226 226
31.1 1.9 16.5 226 229 228
28.1 2.2 15.7 224 224 224
31.2 2.4 16.8 227 230 229
31.2 2.3 16.6 224 226 226
31.2 2.8 16.8 225 227 227
132.4 8.1 34.8 71 70 69
140.7 9.6 37.4 207 207 207
139.3 9.5 36.8 226 226 226
133.7 9.0 35.1 175 177 177
142.1 10.6 37.8 110 112 111
141.2 10.5 37.3 124 127 126
136.5 10.0 35.8 133 133 133
143.5 11.6 38.1 97 97 97
143.8 11.5 38.0 124 124 124
141.6 11.2 36.9 156 156 156
148.0 12.9 39.6 87 87 85
144.7 12.6 38.4 96 96 96
145.6 12.6 38.4 133 133 133
144.1 13.4 38.3 94 94 94
147.0 13.6 38.8 150 152 152
25.7 29.6 53.0 85 84 82
26.3 29.0 51.8 87 87 87
28.0 29.5 52.7 85 84 82
30.1 34.4 59.1 87 87 85
30.1 33.0 56.6 83 83 83
-167.7 73.9 122.0 72 73 71
-161.3 74.9 123.6 75 75 75
-149.9 76.4 126.1 48 48 48
-143.1 74.4 122.8 34 33 32
-137.6 73.0 120.5 67 69 67
-127.2 73.4 121.3 68 68 68
-115.9 73.4 121.3 99 101 101
-113.8 73.9 122.0 166 166 166
-97.4 74.4 122.8 143 143 142
65.3 74.4 122.8 77 79 78
66.4 72.5 119.7 28 28 26
68.4 71.6 118.2 69 69 69
-403.3 180.4 227.9 104 106 106
30.3 18.7 12.2 168 170 169
31.2 18.7 12.2 115 115 115
30.1 18.9 12.1 164 163 161
31.1 19.0 12.2 117 119 118
31.2 18.9 12.1 113 114 113
31.6 18.9 12.1 108 110 110
31.8 18.9 12.1 107 109 109
42.1 18.9 12.1 99 99 99
45.3 18.9 12.1 105 105 105
