ply
format ascii 1.0
element vertex 2870
property float x
property float y
property float z
property uchar red
property uchar green
property uchar blue
end_header
152.6 -294.8 117.5 160 160 160
152.5 -289.4 115.3 160 160 160
51.9 -75.8 30.2 156 159 158
52.3 -75.5 30.1 157 160 159
52.7 -75.0 29.9 156 156 156
53.3 -74.9 29.8 156 156 156
54.1 -75.0 29.9 158 161 160
54.7 -74.9 29.8 157 157 157
55.5 -75.0 29.9 158 158 158
102.4 -195.9 78.8 163 163 163
103.3 -194.3 78.2 163 163 163
95.3 -176.1 70.8 163 163 163
203.8 -370.3 148.9 163 163 163
115.2 -195.9 78.8 161 161 161
117.0 -195.9 78.8 161 161 161
53.6 -76.6 30.8 157 160 159
53.4 -75.2 30.3 157 160 159
54.1 -75.2 30.3 158 161 160
55.0 -75.6 30.4 158 161 160
55.8 -75.7 30.5 159 162 161
56.5 -75.6 30.4 159 162 161
50.3 -172.5 70.1 167 167 167
51.5 -171.3 69.5 167 167 167
53.1 -171.3 69.5 167 167 167
55.0 -171.9 69.8 167 167 167
56.6 -171.9 69.8 167 167 167
58.2 -171.9 69.8 168 168 168
59.8 -171.9 69.8 168 168 168
61.4 -171.9 69.8 168 168 168
63.1 -171.9 69.8 168 168 168
64.7 -171.9 69.8 168 168 168
66.3 -171.9 69.8 165 165 165
68.2 -172.5 70.1 165 165 165
69.8 -172.5 70.1 165 165 165
70.9 -171.3 69.5 165 165 165
72.3 -170.6 69.3 165 165 165
74.2 -171.3 69.5 166 166 166
76.0 -171.9 69.8 166 166 166
77.4 -171.3 69.5 166 166 166
79.6 -172.5 70.1 163 163 163
81.8 -173.8 70.6 163 163 163
82.2 -171.3 69.5 163 163 163
83.9 -171.3 69.5 163 163 163
85.5 -171.3 69.5 163 163 163
87.4 -171.9 69.8 163 163 163
88.4 -170.6 69.3 163 163 163
91.7 -173.8 70.6 160 160 160
94.0 -175.1 71.1 160 160 160
92.5 -169.4 68.8 163 163 163
108.8 -192.5 78.2 164 164 164
104.1 -181.3 73.6 164 164 164
99.3 -170.0 69.0 164 164 164
102.8 -173.2 70.3 161 161 161
109.3 -181.3 73.6 161 161 161
104.9 -171.3 69.5 161 161 161
112.2 -175.1 71.1 162 162 162
115.1 -177.1 71.9 162 162 162
112.5 -170.6 69.3 163 163 163
54.0 -75.4 30.6 157 160 159
54.7 -75.4 30.6 158 161 160
56.2 -76.5 31.1 158 161 160
57.0 -76.6 31.1 159 162 161
57.9 -76.7 31.2 159 162 161
33.5 -121.7 49.9 167 167 167
34.7 -122.1 50.0 167 167 167
35.5 -120.8 49.5 167 167 167
36.7 -120.8 49.5 168 170 169
41.6 -121.7 49.9 168 168 168
42.6 -121.1 49.6 168 168 168
43.8 -121.4 49.8 168 168 168
45.1 -121.7 49.9 168 168 168
46.1 -121.4 49.8 165 165 165
67.8 -166.0 68.0 165 165 165
69.4 -166.0 68.0 165 165 165
52.5 -122.7 50.3 165 165 165
52.8 -120.8 49.5 166 166 166
54.1 -121.1 49.6 166 166 166
56.1 -123.0 50.4 166 166 166
57.5 -123.4 50.6 166 166 166
57.9 -121.7 49.9 163 163 163
78.8 -162.5 66.6 166 166 166
60.5 -122.4 50.2 163 163 163
60.7 -120.5 49.4 163 163 163
84.6 -164.8 67.6 163 163 163
64.9 -124.0 50.9 166 166 166
65.5 -123.0 50.4 166 166 166
68.5 -122.1 50.0 166 166 166
98.4 -169.6 69.5 164 164 164
57.4 -90.1 36.9 164 164 164
109.7 -169.6 69.5 165 165 165
119.2 -181.7 74.5 165 165 165
111.3 -167.2 68.5 166 166 166
104.2 -154.3 63.3 166 166 166
53.5 -74.1 30.4 165 165 165
54.6 -74.5 30.6 160 163 162
56.4 -76.0 31.2 161 164 163
66.1 -87.9 36.0 159 162 161
120.7 -89.9 36.9 104 103 101
114.5 -84.7 34.7 104 103 101
30.6 -114.3 47.3 168 170 169
32.1 -115.7 47.9 168 170 169
33.4 -116.3 48.1 168 170 169
34.2 -115.1 47.6 168 170 169
34.9 -113.7 47.1 168 170 169
36.0 -114.0 47.2 169 171 170
40.1 -116.3 48.1 168 168 168
39.9 -112.6 46.6 168 168 168
41.1 -112.8 46.7 168 168 168
42.1 -112.6 46.6 168 168 168
43.2 -112.6 46.6 165 165 165
49.2 -114.0 47.2 165 165 165
49.7 -112.6 46.6 162 162 162
52.3 -116.0 48.0 163 163 163
53.9 -114.5 47.4 166 166 166
54.0 -112.6 46.6 163 163 163
55.9 -114.3 47.3 166 166 166
57.2 -114.5 47.4 166 166 166
58.6 -115.1 47.6 166 166 166
60.0 -115.7 47.9 166 166 166
60.6 -114.8 47.5 166 166 166
59.9 -111.5 46.1 166 166 166
60.1 -109.9 45.5 166 166 166
66.6 -119.6 49.5 166 166 166
65.5 -115.7 47.9 166 166 166
66.5 -115.4 47.8 167 167 167
69.7 -119.0 49.3 167 167 167
54.9 -86.6 35.8 167 167 167
56.1 -87.2 36.1 167 167 167
55.8 -85.4 35.4 168 168 168
117.3 -174.4 72.2 166 166 166
100.8 -147.9 61.2 166 166 166
92.1 -133.2 55.1 166 166 166
58.0 -77.5 32.1 161 164 163
65.6 -86.4 35.8 161 164 163
64.8 -84.3 34.9 162 165 164
129.5 -96.2 39.8 104 103 101
121.0 -89.3 36.9 104 103 101
111.4 -81.6 33.8 104 103 101
67.1 -46.2 19.1 95 98 97
66.4 -44.5 18.4 86 88 88
46.6 -30.3 12.5 179 182 181
46.9 -83.4 34.8 170 172 172
63.6 -111.2 46.5 169 169 169
56.1 -86.4 36.1 169 169 169
54.9 -83.2 34.8 170 171 170
126.2 -188.6 78.8 170 171 170
103.5 -150.4 62.8 172 172 172
55.2 -74.0 30.9 168 168 168
59.5 -78.7 32.9 169 169 169
128.0 -167.0 69.8 166 166 166
124.5 -160.5 67.1 167 167 167
35.2 -28.5 11.9 112 114 113
107.5 -78.0 32.6 104 103 101
64.0 -43.4 18.1 92 92 92
64.9 -43.7 18.3 92 92 92
65.2 -43.6 18.2 95 98 97
46.6 -30.0 12.6 179 182 181
36.4 -80.9 34.1 169 171 170
37.5 -81.5 34.4 170 172 172
37.9 -80.8 34.1 170 172 172
38.6 -80.5 34.0 170 172 172
41.8 -80.6 34.0 173 175 175
42.8 -81.1 34.2 173 175 175
43.3 -80.5 34.0 170 172 172
44.9 -81.9 34.6 170 172 172
45.5 -81.5 34.4 173 175 175
45.6 -80.3 33.9 173 175 175
46.2 -80.0 33.8 173 175 175
49.2 -82.4 34.8 171 173 173
49.5 -81.5 34.4 171 173 173
202.5 -313.5 132.3 179 179 179
53.5 -81.5 34.4 171 173 173
54.5 -81.8 34.5 175 177 177
54.6 -80.8 34.1 172 174 174
52.9 -71.0 30.0 174 174 174
54.3 -71.9 30.4 172 172 172
56.5 -74.0 31.2 175 177 177
56.6 -73.1 30.9 173 173 173
35.2 -28.3 11.9 112 114 113
62.2 -41.7 17.6 92 92 92
60.7 -40.5 17.1 92 92 92
62.6 -41.2 17.4 114 116 115
46.2 -29.5 12.4 196 196 196
35.1 -79.0 33.7 169 171 170
36.8 -79.3 33.8 173 175 175
37.4 -78.8 33.6 180 180 180
42.2 -79.1 33.7 173 175 175
43.9 -79.3 33.8 181 181 181
44.7 -79.3 33.8 178 178 178
45.1 -78.7 33.5 178 178 178
45.7 -78.4 33.4 178 178 178
47.8 -80.6 34.3 181 181 181
48.2 -80.0 34.1 181 181 181
48.5 -79.1 33.7 181 181 181
48.9 -78.6 33.5 181 181 181
196.7 -306.1 130.5 179 179 179
179.9 -275.7 117.5 181 181 181
170.0 -256.6 109.3 171 173 173
53.6 -79.7 34.0 182 182 182
54.1 -79.3 33.8 180 180 180
53.2 -70.8 30.2 174 174 174
57.3 -74.2 31.6 175 177 177
57.5 -73.6 31.4 175 175 175
60.1 -39.7 16.9 92 92 92
46.0 -29.1 12.4 200 202 202
45.3 -28.5 12.1 206 206 206
44.3 -27.6 11.8 211 211 211
34.4 -70.4 30.3 195 195 195
34.3 -68.8 29.6 197 197 197
41.9 -72.4 31.2 200 200 200
41.0 -69.6 30.0 197 197 197
47.0 -75.9 32.7 200 200 200
44.6 -70.9 30.5 197 197 197
202.3 -311.7 134.2 200 200 200
181.0 -274.7 118.2 200 200 200
177.1 -264.7 114.0 197 197 197
186.5 -274.7 118.2 198 198 198
54.2 -78.6 33.8 198 198 198
125.4 -179.4 77.2 202 202 202
194.8 -274.7 118.2 199 199 199
178.5 -248.3 106.9 203 203 203
43.4 -26.8 11.5 190 190 190
43.1 -26.5 11.4 206 206 206
43.4 -26.4 11.4 218 218 218
43.8 -26.6 11.4 218 218 218
40.5 -68.1 29.6 203 203 203
46.5 -75.7 32.9 203 203 203
43.7 -68.7 29.9 203 203 203
222.8 -339.9 147.8 203 203 203
181.0 -271.9 118.2 203 203 203
168.0 -248.6 108.1 200 200 200
175.5 -255.9 111.3 204 204 204
128.3 -184.3 80.2 204 204 204
125.4 -177.6 77.2 204 204 204
190.0 -265.3 115.3 205 205 205
43.2 -26.4 11.5 190 190 190
42.8 -26.0 11.3 169 169 169
42.6 -25.7 11.2 215 215 215
42.9 -25.7 11.2 218 218 218
43.7 -69.2 30.4 206 206 206
42.7 -66.6 29.2 206 206 206
41.1 -63.0 27.7 203 203 203
184.5 -274.3 120.5 203 203 203
163.3 -239.2 105.1 203 203 203
128.9 -183.3 80.5 204 204 204
126.9 -178.0 78.2 204 204 204
163.7 -223.1 98.0 205 205 205
21.4 -25.6 11.2 208 208 208
21.4 -25.2 11.1 206 206 206
43.3 -26.2 11.5 196 199 198
41.8 -24.8 10.9 219 219 219
39.8 -60.5 26.8 209 209 209
39.6 -59.2 26.3 206 206 206
124.1 -174.7 77.5 204 204 204
119.5 -165.9 73.6 204 204 204
114.6 -156.7 69.5 205 205 205
150.5 -203.0 90.1 205 205 205
139.9 -186.1 82.6 205 205 205
21.6 -25.6 11.4 208 208 208
21.7 -25.4 11.3 209 209 209
22.0 -25.5 11.3 206 206 206
22.3 -25.4 11.3 207 207 207
37.9 -65.1 29.2 203 203 203
39.5 -64.4 28.9 206 206 206
42.6 -66.1 29.6 209 209 209
43.1 -65.8 29.5 206 206 206
43.4 -65.2 29.2 206 206 206
38.5 -56.1 25.2 206 206 206
118.8 -165.4 74.2 206 206 206
115.1 -158.0 70.8 207 207 207
111.7 -151.2 67.8 207 207 207
27.5 -35.7 16.0 205 205 205
26.8 -33.9 15.2 206 206 206
26.8 -33.5 15.0 206 206 206
22.2 -25.4 11.4 208 208 208
22.4 -25.3 11.3 209 209 209
37.6 -63.9 29.0 208 208 208
40.0 -65.6 29.7 208 208 208
39.7 -64.0 29.0 208 208 208
39.9 -63.3 28.7 208 208 208
43.4 -65.5 29.7 208 208 208
43.7 -64.9 29.4 208 208 208
43.2 -63.2 28.6 205 205 205
43.4 -62.5 28.3 205 205 205
46.6 -65.2 29.6 206 206 206
47.2 -65.1 29.5 206 206 206
117.3 -159.3 72.2 206 206 206
27.0 -34.2 15.5 205 205 205
27.0 -33.8 15.3 205 205 205
26.8 -33.1 15.0 206 206 206
38.9 -66.6 30.5 208 208 208
40.8 -66.2 30.3 208 208 208
41.1 -65.6 30.0 208 208 208
43.0 -66.4 30.4 208 208 208
43.6 -66.2 30.3 208 208 208
44.3 -66.2 30.3 208 208 208
44.8 -65.9 30.2 208 208 208
43.3 -61.7 28.3 208 208 208
46.8 -64.7 29.6 208 208 208
47.5 -64.8 29.7 208 208 208
27.2 -34.1 15.6 207 207 207
27.3 -33.8 15.5 207 207 207
26.8 -32.8 15.0 207 207 207
-29.0 -22.3 10.3 45 44 43
-28.9 -22.3 10.3 45 44 43
-28.6 -22.3 10.3 45 44 43
-28.4 -22.3 10.3 45 44 43
-28.2 -22.3 10.3 45 44 43
-27.9 -22.3 10.3 47 47 47
-27.7 -22.3 10.3 47 47 47
-27.4 -22.3 10.3 45 44 43
-27.2 -22.3 10.3 45 44 43
-27.0 -22.3 10.3 45 44 43
-26.7 -22.3 10.3 45 44 43
-26.5 -22.3 10.3 47 47 47
-26.2 -22.4 10.3 45 44 43
-25.9 -22.3 10.3 45 44 43
-25.7 -22.3 10.3 42 42 42
-25.4 -22.3 10.3 42 42 42
-25.3 -22.3 10.3 42 42 42
-25.0 -22.3 10.3 42 42 42
-24.8 -22.3 10.3 42 42 42
-15.9 -22.3 10.3 116 118 117
-15.6 -22.3 10.3 119 121 120
-15.4 -22.3 10.3 122 122 122
-15.2 -22.3 10.3 122 122 122
-14.9 -22.2 10.3 121 121 121
-14.7 -22.3 10.3 123 123 123
-8.9 -22.3 10.3 139 138 137
-6.3 -22.4 10.4 147 147 147
-5.3 -22.4 10.3 159 159 159
-5.1 -22.3 10.3 160 160 160
-4.8 -22.4 10.3 161 161 161
-4.6 -22.4 10.4 163 166 165
-4.4 -22.4 10.4 161 164 163
-4.1 -22.4 10.3 160 163 162
-3.9 -22.3 10.3 159 162 161
-3.6 -22.4 10.3 160 163 162
-3.4 -22.3 10.3 164 164 164
-3.2 -22.3 10.3 163 163 163
-2.9 -22.3 10.3 165 165 165
-2.7 -22.3 10.3 168 168 168
-2.4 -22.3 10.3 168 168 168
-2.2 -22.3 10.3 170 171 170
-2.0 -22.3 10.3 170 171 170
-1.7 -22.3 10.3 170 171 170
-1.5 -22.3 10.3 171 173 173
-1.2 -22.3 10.3 171 173 173
-1.0 -22.3 10.3 171 173 173
-0.8 -22.3 10.3 171 173 173
-0.5 -22.3 10.3 171 173 173
-0.3 -22.3 10.3 174 176 176
7.9 -22.4 10.4 208 208 208
8.2 -22.4 10.4 211 211 211
8.4 -22.3 10.3 211 211 211
8.6 -22.4 10.4 211 211 211
8.9 -22.4 10.3 208 208 208
9.1 -22.3 10.3 208 208 208
9.3 -22.3 10.3 208 208 208
9.6 -22.4 10.3 208 208 208
9.8 -22.3 10.3 208 208 208
10.1 -22.3 10.3 208 208 208
39.6 -67.0 31.0 207 207 207
39.4 -65.5 30.3 207 207 207
41.0 -67.0 31.0 207 207 207
41.3 -66.3 30.7 207 207 207
41.5 -65.5 30.3 207 207 207
43.6 -66.6 30.8 207 207 207
43.8 -65.8 30.5 207 207 207
44.6 -65.9 30.5 207 207 207
44.9 -65.3 30.2 207 207 207
47.0 -64.4 29.8 207 207 207
47.8 -64.5 29.8 208 208 208
49.6 -65.9 30.5 208 208 208
27.1 -34.1 15.8 206 206 206
27.4 -34.0 15.8 206 206 206
27.5 -33.7 15.6 207 207 207
27.1 -32.7 15.1 207 207 207
-9.5 -23.5 11.0 136 138 137
-6.2 -23.5 11.0 158 161 160
-5.9 -23.5 11.0 165 165 165
3.8 -23.5 11.0 183 183 183
8.4 -23.5 11.0 210 210 210
8.6 -23.4 11.0 210 210 210
13.3 -23.5 11.0 207 207 207
44.0 -66.5 31.1 207 207 207
44.5 -66.1 30.9 207 207 207
45.2 -66.1 30.9 207 207 207
45.0 -64.8 30.3 207 207 207
46.8 -63.5 29.7 207 207 207
47.8 -63.8 29.8 207 207 207
50.2 -66.1 30.9 207 207 207
27.1 -33.8 15.8 205 205 205
27.4 -33.7 15.8 206 206 206
27.5 -33.4 15.6 206 206 206
27.3 -32.7 15.3 206 206 206
-30.9 -23.2 11.0 48 48 48
-30.7 -23.2 11.0 48 48 48
-30.4 -23.2 11.0 46 46 44
-30.2 -23.2 11.0 46 46 44
-29.9 -23.2 11.0 48 48 48
-29.7 -23.2 11.0 51 51 51
-29.4 -23.2 11.0 51 51 51
-29.1 -23.2 11.0 51 51 51
-28.9 -23.2 11.0 51 51 51
-28.6 -23.2 11.0 51 51 51
-28.4 -23.2 11.0 48 48 48
-28.1 -23.2 11.0 48 48 48
-27.9 -23.2 11.0 46 46 44
-27.6 -23.2 11.0 46 46 44
-27.4 -23.2 11.0 43 43 43
-27.1 -23.2 11.0 46 46 44
-26.8 -23.2 11.0 43 43 43
-26.1 -23.2 11.0 43 43 43
-23.9 -23.3 11.0 38 38 38
-23.3 -23.3 11.0 41 41 41
-23.0 -23.2 11.0 41 41 41
-22.7 -23.2 11.0 43 43 43
-22.5 -23.2 11.0 43 43 43
-22.3 -23.3 11.0 43 43 43
-21.2 -23.2 11.0 86 86 86
-21.0 -23.2 11.0 94 94 94
-20.8 -23.3 11.0 96 96 96
-20.5 -23.2 11.0 96 99 98
-20.1 -23.2 11.0 102 102 102
-20.0 -23.2 11.0 102 102 102
-18.7 -23.3 11.0 105 105 105
-18.5 -23.3 11.0 107 107 107
-18.2 -23.2 11.0 107 107 107
-17.9 -23.2 11.0 108 110 110
-16.1 -23.2 11.0 117 117 117
-15.9 -23.2 11.0 119 119 119
-15.1 -23.2 11.0 119 121 120
-14.8 -23.1 10.9 119 121 120
-10.5 -23.3 11.0 131 131 131
-10.2 -23.2 11.0 131 133 132
-10.0 -23.2 11.0 131 133 132
-9.8 -23.3 11.0 133 133 133
-9.5 -23.3 11.0 134 137 136
-9.2 -23.2 11.0 138 138 138
-9.0 -23.2 11.0 139 139 139
-8.7 -23.2 11.0 140 142 141
-8.5 -23.3 11.0 146 146 146
-8.3 -23.4 11.0 146 146 146
-8.0 -23.3 11.0 146 146 146
-7.7 -23.2 11.0 144 146 146
-7.4 -23.2 11.0 149 149 149
-7.2 -23.2 11.0 153 153 153
-6.9 -23.2 11.0 151 153 153
-6.6 -23.1 10.9 158 161 160
-6.4 -23.2 11.0 164 164 164
-6.2 -23.2 11.0 169 171 170
-5.9 -23.2 11.0 166 166 166
-5.7 -23.3 11.0 165 168 167
-5.4 -23.2 11.0 166 169 168
-5.1 -23.2 11.0 172 172 172
-4.9 -23.2 11.0 175 175 175
-4.6 -23.2 11.0 175 177 177
-4.4 -23.2 11.0 173 175 175
-4.1 -23.2 11.0 175 177 177
-3.9 -23.2 11.0 178 178 178
-3.6 -23.2 11.0 173 175 175
-3.4 -23.2 11.0 180 180 180
-3.1 -23.2 11.0 182 182 182
-2.8 -23.2 11.0 182 182 182
-2.6 -23.2 11.0 182 182 182
-2.3 -23.2 11.0 182 182 182
-2.1 -23.2 11.0 180 180 180
-1.8 -23.2 11.0 179 179 179
-1.6 -23.2 11.0 179 179 179
-1.3 -23.2 11.0 181 181 181
-1.1 -23.2 11.0 181 181 181
-0.8 -23.2 11.0 181 181 181
-0.5 -23.2 11.0 181 181 181
-0.3 -23.2 11.0 181 181 181
-0.0 -23.2 11.0 181 181 181
0.2 -23.2 11.0 181 181 181
0.7 -23.3 11.0 181 181 181
1.0 -23.2 11.0 181 181 181
1.2 -23.2 11.0 180 180 180
1.5 -23.2 11.0 180 180 180
1.8 -23.2 11.0 180 180 180
2.0 -23.2 11.0 180 180 180
2.3 -23.2 11.0 182 182 182
2.5 -23.3 11.0 182 182 182
2.8 -23.2 11.0 182 182 182
3.0 -23.3 11.0 182 182 182
3.3 -23.2 11.0 182 182 182
3.6 -23.3 11.0 182 182 182
3.8 -23.3 11.0 182 182 182
4.0 -23.1 10.9 182 182 182
4.3 -23.1 10.9 182 182 182
5.1 -23.3 11.0 203 203 203
5.4 -23.3 11.0 208 208 208
5.6 -23.3 11.0 207 207 207
5.8 -23.2 11.0 207 207 207
6.1 -23.2 11.0 210 210 210
6.6 -23.2 11.0 210 210 210
6.9 -23.2 11.0 210 210 210
7.1 -23.2 11.0 210 210 210
7.4 -23.2 11.0 210 210 210
7.6 -23.2 11.0 210 210 210
7.9 -23.2 11.0 210 210 210
8.1 -23.2 11.0 210 210 210
8.4 -23.2 11.0 210 210 210
8.6 -23.2 11.0 210 210 210
8.9 -23.2 11.0 210 210 210
9.2 -23.2 11.0 210 210 210
9.4 -23.2 11.0 210 210 210
9.7 -23.2 11.0 210 210 210
9.9 -23.2 11.0 210 210 210
10.2 -23.2 11.0 210 210 210
10.4 -23.2 11.0 210 210 210
11.0 -23.2 11.0 207 207 207
11.2 -23.2 11.0 207 207 207
11.4 -23.2 11.0 207 207 207
12.7 -23.2 11.0 206 206 206
13.0 -23.3 11.0 206 206 206
13.3 -23.2 11.0 206 206 206
44.4 -64.3 30.4 206 206 206
43.9 -62.5 29.6 206 206 206
45.7 -62.1 29.4 206 206 206
46.6 -62.4 29.5 206 206 206
47.5 -62.7 29.6 207 207 207
48.9 -63.7 30.1 207 207 207
27.3 -33.2 15.7 205 205 205
27.7 -33.2 15.7 205 205 205
27.1 -32.1 15.2 206 206 206
25.6 -28.1 13.3 205 205 205
25.5 -27.7 13.1 205 205 205
-30.9 -23.0 11.0 49 49 49
-30.7 -23.0 11.0 51 51 51
-30.5 -23.0 11.0 49 49 49
-30.2 -23.0 11.0 49 49 49
-30.0 -23.0 11.0 51 51 51
-29.7 -23.0 11.0 53 53 53
-29.4 -23.0 11.0 53 53 53
-29.2 -23.0 11.0 51 51 51
-33.5 -26.9 12.9 49 49 49
-33.2 -26.9 12.9 53 53 53
-32.9 -26.9 12.9 49 49 49
-27.9 -23.0 11.0 49 49 49
-27.7 -23.0 11.0 51 51 51
-27.4 -23.0 11.0 44 44 44
-27.2 -23.0 11.0 49 49 49
-26.9 -23.0 11.0 44 44 44
-29.9 -26.9 12.9 42 42 42
-28.8 -26.9 12.9 44 44 44
-28.5 -26.9 12.9 42 42 42
-28.1 -26.9 12.9 42 42 42
-27.8 -26.8 12.8 39 39 39
-27.5 -26.9 12.9 37 38 37
-27.2 -26.9 12.9 40 40 40
-26.9 -26.8 12.8 40 40 40
-26.5 -26.8 12.8 40 40 40
-26.3 -26.9 12.9 40 40 40
-26.0 -26.8 12.8 42 43 42
-24.5 -26.9 12.9 44 44 44
-20.8 -23.1 11.0 79 78 77
-20.5 -23.0 11.0 98 98 98
-20.2 -22.9 11.0 95 95 95
-18.7 -23.1 11.0 104 104 104
-18.5 -23.1 11.0 99 101 101
-18.2 -23.0 11.0 103 103 103
-17.4 -23.0 11.0 105 105 105
-17.1 -23.0 11.0 107 107 107
-16.9 -22.9 11.0 109 109 109
-16.6 -22.9 11.0 110 112 111
-16.3 -22.9 11.0 109 111 111
-16.1 -22.9 11.0 109 111 111
-15.8 -22.9 11.0 111 113 112
-15.4 -23.1 11.0 115 114 114
-15.1 -23.0 11.0 117 117 117
-14.8 -22.9 10.9 117 117 117
-10.8 -23.1 11.0 124 124 124
-10.5 -23.1 11.0 124 126 125
-10.3 -23.1 11.0 124 127 126
-10.0 -23.0 11.0 125 125 125
-9.8 -23.0 11.0 126 126 126
-9.5 -23.0 11.0 126 128 127
-10.8 -26.8 12.8 132 132 132
-9.0 -23.0 11.0 132 135 134
-8.7 -23.0 11.0 137 137 137
-8.3 -23.1 11.1 154 154 154
-8.0 -23.1 11.0 154 154 154
-7.2 -23.0 11.0 159 159 159
-6.9 -23.0 11.0 165 165 165
-6.2 -23.0 11.0 170 172 172
-5.9 -23.0 11.0 173 173 173
-5.7 -23.0 11.0 178 181 180
-5.4 -23.0 11.0 177 180 179
-4.9 -23.0 11.0 184 184 184
-4.2 -26.9 12.9 188 188 188
-3.9 -26.9 12.9 188 188 188
-3.0 -26.9 12.9 188 188 188
-2.7 -26.8 12.8 188 188 188
-2.4 -26.8 12.8 186 186 186
-1.1 -23.0 11.0 183 183 183
-0.8 -23.0 11.0 183 183 183
-0.5 -23.0 11.0 183 183 183
-0.3 -23.0 11.0 182 182 182
-0.0 -22.9 11.0 182 182 182
1.2 -26.9 12.9 182 182 182
1.2 -23.0 11.0 182 182 182
1.5 -23.0 11.0 182 182 182
1.8 -23.0 11.0 182 182 182
2.0 -23.0 11.0 179 179 179
2.7 -26.9 12.9 182 182 182
2.9 -26.9 12.9 185 185 185
3.2 -26.8 12.8 181 181 181
3.5 -26.8 12.8 181 181 181
3.6 -23.0 11.0 181 181 181
3.8 -23.0 11.0 181 181 181
4.0 -22.9 11.0 181 181 181
5.1 -27.0 12.9 181 181 181
5.6 -23.1 11.0 210 210 210
5.9 -23.0 11.0 210 210 210
6.1 -23.0 11.0 210 210 210
6.6 -23.0 11.0 210 210 210
6.9 -23.0 11.0 210 210 210
7.1 -23.0 11.0 210 210 210
7.4 -23.0 11.0 210 210 210
8.4 -23.0 11.0 209 209 209
8.6 -23.0 11.0 209 209 209
8.9 -23.0 11.0 209 209 209
10.7 -26.9 12.9 209 209 209
11.0 -26.9 12.9 209 209 209
11.3 -26.9 12.9 209 209 209
9.9 -23.0 11.0 209 209 209
10.2 -23.0 11.0 211 211 211
10.5 -23.0 11.0 209 209 209
10.7 -23.0 11.0 203 203 203
11.0 -23.0 11.0 206 206 206
11.2 -23.0 11.0 209 209 209
11.5 -23.0 11.0 209 209 209
14.9 -26.8 12.8 209 209 209
13.1 -23.1 11.0 209 209 209
13.3 -23.0 11.0 209 209 209
43.8 -61.7 29.5 205 205 205
46.3 -63.2 30.2 205 205 205
45.9 -61.7 29.5 208 208 208
46.6 -61.7 29.5 206 206 206
47.4 -61.9 29.6 206 206 206
49.2 -63.4 30.3 206 206 206
49.0 -62.2 29.7 206 206 206
27.1 -31.7 15.2 205 205 205
25.7 -27.9 13.3 206 206 206
-40.8 -29.9 14.5 52 52 52
-40.6 -30.1 14.5 52 52 52
-40.3 -30.1 14.6 52 52 52
-39.6 -30.1 14.6 53 53 53
-39.3 -30.1 14.6 53 53 53
-39.0 -30.1 14.6 53 53 53
-38.6 -30.1 14.5 52 52 52
-38.3 -30.1 14.6 52 52 52
-37.9 -30.1 14.6 52 52 52
-37.6 -30.1 14.6 52 52 52
-37.2 -30.0 14.5 52 52 52
-33.7 -30.3 14.6 45 45 45
-33.2 -30.1 14.5 45 45 45
-32.5 -30.0 14.5 45 45 45
-32.2 -30.1 14.6 45 45 45
-31.9 -30.2 14.6 45 45 45
-31.5 -30.1 14.6 42 43 42
-31.0 -29.9 14.5 42 43 42
-30.8 -30.0 14.5 43 43 43
-30.5 -30.1 14.5 41 41 41
-29.7 -30.3 14.6 43 43 43
-29.2 -30.2 14.6 43 43 43
-28.8 -30.1 14.6 43 43 43
-28.3 -29.9 14.5 43 43 43
-28.0 -29.9 14.5 45 45 45
-27.8 -30.1 14.6 46 46 46
-26.4 -30.1 14.6 90 92 91
-26.1 -30.1 14.6 90 92 91
-15.9 -23.5 11.4 112 114 113
-15.2 -30.0 14.5 112 114 113
-14.2 -30.0 14.5 115 114 114
-14.0 -30.2 14.6 115 114 114
-12.4 -30.4 14.7 111 111 111
-12.0 -30.3 14.6 117 119 118
-11.6 -30.2 14.6 146 146 146
-11.0 -30.5 14.8 168 170 169
-10.6 -30.2 14.6 165 168 167
-7.8 -30.2 14.6 194 194 194
-7.5 -30.1 14.6 191 191 191
-7.2 -30.1 14.6 193 193 193
-6.8 -30.1 14.6 194 194 194
-6.5 -30.1 14.6 193 193 193
-6.1 -30.1 14.6 193 193 193
-5.8 -30.1 14.6 192 192 192
-5.5 -30.1 14.6 193 193 193
-5.1 -30.1 14.6 192 192 192
-4.8 -30.1 14.5 192 192 192
-4.4 -30.1 14.6 192 192 192
-4.1 -30.2 14.6 192 192 192
-3.8 -30.1 14.6 189 189 189
-3.4 -30.1 14.6 189 189 189
-3.1 -30.1 14.6 189 189 189
-2.8 -30.2 14.6 189 189 189
-2.4 -30.1 14.6 185 185 185
-2.1 -30.1 14.5 189 189 189
-1.7 -30.1 14.6 189 189 189
1.3 -30.3 14.6 185 185 185
1.7 -30.2 14.6 185 185 185
2.0 -30.1 14.5 184 184 184
2.3 -30.1 14.5 184 184 184
2.7 -30.2 14.6 184 184 184
7.8 -30.3 14.7 209 209 209
8.2 -30.4 14.7 209 209 209
8.8 -30.2 14.6 209 209 209
9.1 -30.2 14.6 209 209 209
9.5 -30.2 14.6 209 209 209
9.8 -30.2 14.6 209 209 209
10.1 -30.2 14.6 209 209 209
10.4 -30.1 14.6 209 209 209
10.8 -30.0 14.5 209 209 209
11.1 -30.1 14.6 209 209 209
11.5 -30.1 14.6 209 209 209
11.8 -30.1 14.6 209 209 209
12.1 -30.1 14.6 209 209 209
12.5 -30.1 14.5 209 209 209
12.8 -30.2 14.6 209 209 209
13.2 -30.1 14.6 209 209 209
13.5 -30.0 14.5 209 209 209
13.8 -30.0 14.5 209 209 209
14.2 -30.1 14.6 206 206 206
14.5 -30.1 14.6 208 208 208
14.8 -30.0 14.5 208 208 208
15.2 -30.2 14.6 208 208 208
15.5 -30.0 14.5 208 208 208
15.9 -30.2 14.6 208 208 208
16.2 -30.0 14.5 208 208 208
16.6 -30.2 14.6 208 208 208
17.0 -30.3 14.6 208 208 208
17.2 -30.1 14.6 208 208 208
17.5 -29.9 14.5 208 208 208
17.9 -30.2 14.6 208 208 208
18.6 -30.2 14.6 208 208 208
19.3 -30.2 14.6 208 208 208
19.6 -30.1 14.6 208 208 208
20.1 -30.4 14.7 208 208 208
20.3 -30.1 14.6 208 208 208
20.5 -29.9 14.5 208 208 208
46.1 -61.3 29.6 208 208 208
47.5 -61.3 29.6 205 205 205
50.5 -64.3 31.1 206 206 206
51.0 -64.0 31.0 206 206 206
27.2 -32.3 15.6 207 207 207
27.1 -31.3 15.2 207 207 207
27.0 -30.9 14.9 205 205 205
25.7 -27.6 13.3 206 206 206
-41.1 -29.8 14.6 53 52 52
-40.8 -29.9 14.6 53 52 52
-40.5 -29.9 14.6 53 52 52
-40.2 -29.9 14.6 54 54 54
-39.9 -29.9 14.6 54 54 54
-39.5 -30.0 14.7 54 54 54
-39.1 -29.9 14.6 54 54 54
-38.8 -29.9 14.6 54 54 54
-38.4 -29.9 14.6 54 54 54
-38.1 -29.9 14.6 54 54 54
-37.8 -29.9 14.6 54 54 54
-37.4 -29.8 14.6 53 52 52
-34.0 -30.2 14.8 46 46 46
-33.4 -29.9 14.6 46 46 46
-32.9 -29.8 14.6 46 46 46
-32.7 -29.9 14.6 46 46 46
-32.3 -30.2 14.8 46 46 46
-31.7 -29.9 14.6 46 46 46
-31.2 -29.8 14.6 46 46 46
-31.0 -29.9 14.6 44 44 44
-30.6 -29.9 14.6 42 42 42
-30.2 -29.8 14.6 44 44 44
-30.2 -30.2 14.8 46 46 46
-29.8 -30.1 14.7 44 44 44
-29.4 -30.0 14.7 42 42 42
-28.9 -29.9 14.6 42 43 42
-28.5 -29.7 14.6 42 43 42
-28.5 -30.2 14.8 42 43 42
-28.0 -30.0 14.7 42 43 42
-27.0 -30.0 14.7 47 47 47
-26.6 -29.9 14.6 47 47 47
-26.2 -29.9 14.6 42 42 42
-25.8 -29.9 14.6 83 82 80
-15.8 -23.2 11.3 110 110 110
-15.3 -29.7 14.5 105 107 107
-14.7 -29.2 14.3 102 102 102
-14.2 -29.7 14.5 74 74 74
-13.9 -29.7 14.5 73 73 73
-12.4 -30.2 14.8 23 23 23
-12.0 -30.1 14.7 33 35 34
-11.4 -30.3 14.8 179 179 179
-11.0 -30.2 14.8 179 182 181
-10.6 -30.0 14.7 176 179 178
-7.2 -29.9 14.6 204 204 204
-6.8 -29.9 14.6 200 200 200
-6.5 -29.9 14.6 199 199 199
-5.8 -29.9 14.6 198 198 198
-5.5 -29.9 14.6 197 197 197
-5.1 -29.9 14.6 197 197 197
-4.8 -29.9 14.6 196 196 196
-4.5 -29.9 14.6 196 196 196
-3.4 -29.9 14.6 193 193 193
-3.1 -29.9 14.6 193 193 193
-2.8 -30.0 14.7 193 193 193
-2.4 -29.8 14.6 193 193 193
-2.1 -29.8 14.6 193 193 193
-1.7 -29.8 14.6 196 196 196
2.0 -29.8 14.6 184 184 184
2.3 -29.8 14.6 183 183 183
2.7 -30.0 14.7 183 183 183
3.0 -29.8 14.6 183 183 183
7.9 -30.3 14.8 209 209 209
8.2 -30.2 14.8 209 209 209
8.5 -30.2 14.8 209 209 209
8.9 -30.1 14.7 209 209 209
9.2 -30.1 14.7 209 209 209
9.5 -30.1 14.7 209 209 209
10.2 -30.1 14.7 209 209 209
10.5 -29.9 14.6 209 209 209
10.8 -29.8 14.6 208 208 208
11.2 -29.9 14.6 208 208 208
11.5 -29.9 14.6 208 208 208
12.0 -30.2 14.8 208 208 208
12.2 -29.9 14.6 208 208 208
12.5 -29.9 14.6 208 208 208
12.9 -30.0 14.7 208 208 208
13.2 -29.9 14.6 208 208 208
13.5 -29.9 14.6 208 208 208
13.9 -29.9 14.6 208 208 208
14.3 -30.1 14.7 208 208 208
14.6 -30.0 14.7 208 208 208
14.9 -29.9 14.6 208 208 208
15.3 -30.1 14.7 208 208 208
15.6 -29.8 14.6 208 208 208
16.1 -30.1 14.7 208 208 208
16.3 -29.9 14.6 208 208 208
16.8 -30.2 14.8 208 208 208
17.1 -30.1 14.7 208 208 208
17.3 -29.9 14.6 208 208 208
17.6 -29.9 14.6 208 208 208
18.0 -30.0 14.7 208 208 208
19.4 -29.9 14.6 207 207 207
19.7 -29.9 14.6 207 207 207
20.3 -30.3 14.8 207 207 207
20.5 -30.1 14.7 207 207 207
20.6 -29.8 14.6 207 207 207
45.7 -60.1 29.4 205 205 205
46.3 -60.0 29.4 205 205 205
47.2 -60.3 29.5 205 205 205
49.4 -60.4 29.6 205 205 205
25.6 -27.2 13.3 205 205 205
-42.5 -30.5 15.1 53 52 52
-42.2 -30.6 15.1 53 52 52
-41.9 -30.6 15.1 55 55 55
-41.5 -30.6 15.1 55 55 55
-41.2 -30.6 15.1 55 55 55
-40.8 -30.6 15.1 58 59 57
-40.5 -30.6 15.1 58 59 57
-40.1 -30.6 15.1 58 59 57
-39.8 -30.6 15.1 55 55 55
-39.4 -30.6 15.1 55 55 55
-39.0 -30.5 15.1 55 55 55
-38.8 -30.6 15.2 58 59 57
-38.4 -30.6 15.1 55 55 55
-38.1 -30.6 15.1 53 53 53
-37.7 -30.6 15.1 53 53 53
-37.3 -30.6 15.1 51 51 51
-37.0 -30.6 15.1 49 48 47
-36.4 -30.7 15.2 46 46 46
-35.9 -30.6 15.1 47 47 47
-35.6 -30.6 15.2 47 47 47
-35.3 -30.6 15.2 47 47 47
-34.9 -30.6 15.1 47 47 47
-34.5 -30.5 15.1 47 47 47
-34.2 -30.6 15.1 47 47 47
-33.8 -30.6 15.1 47 47 47
-33.5 -30.6 15.1 47 47 47
-33.1 -30.6 15.1 47 47 47
-32.7 -30.5 15.1 47 47 47
-32.4 -30.5 15.1 45 45 45
-32.0 -30.6 15.1 45 45 45
-31.6 -30.5 15.1 45 45 45
-31.3 -30.6 15.1 45 45 45
-31.0 -30.6 15.1 42 43 42
-30.6 -30.6 15.1 42 43 42
-30.3 -30.6 15.1 43 43 43
-29.9 -30.6 15.1 43 43 43
-29.6 -30.6 15.1 41 41 41
-29.2 -30.6 15.1 42 42 42
-28.8 -30.5 15.1 42 42 42
-27.8 -30.6 15.1 42 42 42
-27.5 -30.6 15.1 48 48 48
-27.1 -30.6 15.1 44 44 44
-26.7 -30.5 15.1 40 40 40
-26.4 -30.5 15.1 48 48 48
-26.1 -30.6 15.1 59 59 59
-25.7 -30.6 15.1 85 84 82
-15.9 -23.0 11.4 103 103 103
-15.9 -30.6 15.1 18 18 18
-15.2 -30.6 15.2 27 27 27
-12.7 -30.6 15.1 31 31 31
-12.4 -30.6 15.1 33 36 35
-12.0 -30.6 15.1 127 127 127
-11.6 -30.5 15.1 185 185 185
-11.2 -30.2 15.0 182 182 182
-8.9 -30.7 15.2 214 214 214
-8.5 -30.6 15.1 210 210 210
-8.1 -30.6 15.2 210 210 210
-7.8 -30.6 15.1 209 209 209
-7.4 -30.6 15.1 207 207 207
-7.1 -30.6 15.1 204 204 204
-6.7 -30.6 15.1 204 204 204
-6.4 -30.6 15.1 203 203 203
-6.0 -30.6 15.1 203 203 203
-5.7 -30.6 15.1 202 202 202
-5.3 -30.6 15.1 200 200 200
-5.0 -30.6 15.1 197 197 197
-4.6 -30.6 15.1 197 197 197
-4.3 -30.6 15.1 197 197 197
-3.9 -30.6 15.1 197 197 197
-3.6 -30.6 15.1 197 197 197
-3.2 -30.6 15.1 195 195 195
7.7 -30.6 15.1 208 208 208
8.0 -30.6 15.1 208 208 208
8.4 -30.6 15.2 208 208 208
8.8 -30.7 15.2 208 208 208
9.1 -30.6 15.2 208 208 208
9.4 -30.5 15.1 208 208 208
9.8 -30.5 15.1 208 208 208
10.2 -30.6 15.1 208 208 208
10.5 -30.6 15.1 208 208 208
10.8 -30.5 15.1 208 208 208
11.2 -30.6 15.1 208 208 208
11.6 -30.6 15.1 208 208 208
11.9 -30.6 15.1 208 208 208
12.3 -30.6 15.1 208 208 208
12.6 -30.6 15.1 208 208 208
12.9 -30.5 15.1 208 208 208
13.3 -30.5 15.1 208 208 208
13.6 -30.5 15.1 208 208 208
14.0 -30.6 15.1 208 208 208
14.4 -30.5 15.1 208 208 208
14.7 -30.5 15.1 207 207 207
15.1 -30.5 15.1 207 207 207
15.4 -30.6 15.1 207 207 207
15.7 -30.5 15.1 207 207 207
16.1 -30.5 15.1 207 207 207
16.5 -30.6 15.1 207 207 207
16.9 -30.6 15.1 207 207 207
17.2 -30.6 15.2 207 207 207
17.5 -30.5 15.1 207 207 207
17.9 -30.5 15.1 207 207 207
18.2 -30.6 15.1 207 207 207
18.6 -30.6 15.1 207 207 207
19.0 -30.6 15.2 207 207 207
19.3 -30.6 15.1 207 207 207
19.7 -30.6 15.2 207 207 207
20.0 -30.6 15.2 207 207 207
20.4 -30.6 15.2 207 207 207
20.7 -30.6 15.2 207 207 207
21.0 -30.5 15.1 207 207 207
21.4 -30.5 15.1 207 207 207
21.8 -30.6 15.2 207 207 207
45.2 -58.8 29.1 207 207 207
46.4 -59.5 29.4 207 207 207
47.2 -59.5 29.5 207 207 207
45.6 -56.8 28.1 207 207 207
48.5 -59.5 29.5 207 207 207
48.8 -59.1 29.2 205 205 205
75.0 -85.9 42.5 206 206 206
25.6 -26.8 13.3 204 204 204
25.7 -26.6 13.2 205 205 205
25.9 -26.5 13.1 205 205 205
-44.6 -31.6 15.8 53 53 53
-44.6 -31.9 16.0 53 53 53
-44.2 -31.9 16.0 53 53 53
-43.9 -31.9 16.0 53 53 53
-43.5 -31.9 16.0 56 56 56
-43.1 -31.9 15.9 58 59 57
-42.7 -31.9 15.9 59 60 58
-42.4 -31.9 16.0 61 61 61
-42.0 -31.9 16.0 59 60 58
-41.5 -31.8 15.9 56 56 56
-41.1 -31.8 15.9 56 56 56
-40.5 -31.9 16.0 56 56 56
-40.3 -32.0 16.0 54 54 54
-40.1 -32.2 16.1 54 54 54
-39.3 -31.8 15.9 52 52 52
-38.9 -31.8 15.9 50 49 48
-38.6 -32.1 16.1 50 49 48
-37.8 -31.8 15.9 53 52 52
-37.2 -31.9 16.0 51 50 48
-36.7 -31.8 15.9 47 48 47
-36.6 -32.1 16.0 47 48 47
-36.0 -31.9 15.9 47 48 47
-35.6 -31.9 15.9 47 48 47
-35.3 -31.9 16.0 47 48 47
-34.8 -31.8 15.9 47 48 47
-34.4 -31.7 15.9 47 48 47
-34.2 -31.9 15.9 46 46 46
-33.8 -31.9 15.9 43 43 43
-33.6 -32.0 16.0 47 48 47
-33.2 -32.0 16.0 46 46 46
-32.7 -31.9 15.9 43 43 43
-32.3 -31.8 15.9 44 44 44
-31.8 -31.7 15.9 44 44 44
-31.6 -31.9 16.0 44 44 44
-31.2 -31.9 16.0 42 43 42
-30.5 -31.5 15.8 40 40 40
-29.4 -31.9 16.0 43 43 43
-29.0 -31.9 16.0 45 45 45
-28.5 -31.8 15.9 43 43 43
-15.9 -22.7 11.4 108 110 110
-16.5 -31.4 15.7 26 26 26
-16.2 -31.6 15.8 26 26 26
-16.0 -31.8 15.9 28 28 28
-9.4 -23.7 11.8 139 141 140
-9.1 -23.6 11.8 184 184 184
-5.8 -23.6 11.8 214 214 214
-5.5 -23.6 11.8 214 214 214
-4.4 -23.6 11.8 208 208 208
-3.9 -23.6 11.8 204 204 204
-3.6 -23.6 11.8 202 202 202
-3.1 -23.6 11.8 199 199 199
6.0 -23.6 11.8 208 208 208
6.8 -23.6 11.8 208 208 208
7.1 -23.6 11.8 208 208 208
7.4 -23.6 11.8 208 208 208
7.7 -23.6 11.8 208 208 208
7.9 -23.6 11.8 208 208 208
8.2 -23.6 11.8 208 208 208
8.5 -23.6 11.8 207 207 207
8.7 -23.6 11.8 207 207 207
9.0 -23.6 11.8 207 207 207
9.3 -23.6 11.8 207 207 207
9.6 -23.6 11.8 207 207 207
9.9 -23.6 11.8 207 207 207
10.1 -23.6 11.8 207 207 207
10.4 -23.6 11.8 207 207 207
10.7 -23.6 11.8 207 207 207
11.0 -23.6 11.8 207 207 207
11.2 -23.6 11.8 207 207 207
11.5 -23.6 11.8 207 207 207
11.8 -23.6 11.8 207 207 207
12.1 -23.6 11.8 207 207 207
12.3 -23.6 11.8 207 207 207
12.6 -23.6 11.8 207 207 207
13.2 -23.6 11.8 207 207 207
13.7 -23.7 11.9 207 207 207
13.9 -23.5 11.8 207 207 207
14.2 -23.6 11.8 206 206 206
15.1 -23.6 11.8 206 206 206
15.3 -23.6 11.8 206 206 206
16.4 -23.6 11.8 206 206 206
46.4 -58.8 29.4 206 206 206
47.2 -58.9 29.5 206 206 206
45.9 -56.4 28.2 206 206 206
48.5 -58.9 29.5 207 207 207
48.8 -58.4 29.2 207 207 207
82.3 -94.5 47.3 205 205 205
80.4 -91.1 45.6 205 205 205
25.8 -26.7 13.4 206 206 206
822.0 -539.8 270.2 186 186 186
-34.5 -24.2 12.3 56 56 56
-34.4 -24.3 12.3 56 56 56
-34.1 -24.3 12.3 56 56 56
-44.7 -32.1 16.3 56 56 56
-44.2 -32.1 16.3 59 60 58
-43.8 -32.1 16.2 59 60 58
-43.5 -32.1 16.3 59 60 58
-43.1 -32.1 16.3 59 60 58
-42.7 -32.1 16.2 59 60 58
-32.1 -24.3 12.3 57 57 57
-31.8 -24.3 12.3 57 57 57
-41.9 -32.3 16.4 57 57 57
-41.4 -32.3 16.3 57 57 57
-39.9 -31.9 16.2 55 55 55
-39.5 -31.9 16.2 53 52 52
-37.8 -32.1 16.2 48 48 48
-37.4 -32.1 16.3 48 48 48
-37.4 -32.3 16.4 51 51 49
-36.6 -32.0 16.2 53 53 53
-36.3 -32.1 16.3 51 51 49
-35.9 -32.1 16.3 48 48 48
-35.4 -31.9 16.2 48 48 48
-26.6 -24.3 12.3 48 48 48
-34.8 -32.1 16.2 48 48 48
-26.1 -24.3 12.3 47 47 47
-25.8 -24.4 12.3 47 47 47
-25.5 -24.3 12.3 47 47 47
-33.3 -32.1 16.3 47 48 47
-32.9 -32.1 16.3 45 45 45
-32.3 -31.9 16.1 45 45 45
-31.8 -32.1 16.3 45 45 45
-31.1 -31.7 16.1 43 43 43
-23.6 -24.4 12.3 43 43 43
-22.8 -24.4 12.4 42 42 42
-29.5 -32.0 16.2 44 44 44
-21.5 -24.3 12.3 42 43 42
-20.9 -24.2 12.3 42 43 42
-20.6 -24.3 12.3 47 48 47
-20.4 -24.4 12.3 49 49 49
-20.0 -24.3 12.3 52 52 52
-19.8 -24.3 12.3 52 52 52
-19.3 -24.1 12.2 90 90 90
-16.5 -31.8 16.1 26 26 26
-16.3 -32.1 16.3 28 28 28
-10.9 -24.2 12.3 31 30 29
-10.3 -24.1 12.2 34 36 36
-10.1 -24.3 12.3 40 40 40
-9.8 -24.3 12.3 151 151 151
-6.6 -24.3 12.3 221 221 221
-6.3 -24.3 12.3 219 219 219
-4.9 -24.3 12.3 210 210 210
-4.6 -24.3 12.3 210 210 210
-4.3 -24.3 12.3 207 207 207
-4.1 -24.4 12.3 207 207 207
-2.9 -24.3 12.3 200 200 200
-2.0 -24.3 12.3 200 200 200
-1.8 -24.3 12.3 200 200 200
-1.5 -24.4 12.3 197 197 197
-1.2 -24.3 12.3 197 197 197
1.4 -24.3 12.3 192 192 192
2.8 -24.3 12.3 190 190 190
3.1 -24.3 12.3 186 186 186
6.8 -24.4 12.3 207 207 207
7.4 -24.4 12.4 209 209 209
8.0 -24.3 12.3 207 207 207
8.3 -24.3 12.3 207 207 207
8.5 -24.1 12.2 209 209 209
9.1 -24.3 12.3 209 209 209
9.4 -24.3 12.3 209 209 209
9.7 -24.3 12.3 207 207 207
10.0 -24.3 12.3 207 207 207
10.3 -24.3 12.3 207 207 207
10.5 -24.3 12.3 207 207 207
10.8 -24.3 12.3 207 207 207
11.1 -24.3 12.3 207 207 207
11.4 -24.3 12.3 207 207 207
11.7 -24.3 12.3 206 206 206
11.9 -24.2 12.3 206 206 206
12.3 -24.3 12.3 206 206 206
12.6 -24.3 12.3 206 206 206
12.8 -24.2 12.3 206 206 206
13.4 -24.4 12.3 206 206 206
13.8 -24.6 12.4 206 206 206
14.0 -24.4 12.4 206 206 206
14.2 -24.1 12.2 206 206 206
14.5 -24.2 12.3 206 206 206
14.8 -24.3 12.3 206 206 206
15.4 -24.3 12.3 206 206 206
16.8 -24.3 12.3 206 206 206
17.4 -24.3 12.3 205 205 205
17.7 -24.3 12.3 205 205 205
45.5 -57.8 29.3 205 205 205
46.4 -58.1 29.4 206 206 206
47.1 -58.1 29.4 206 206 206
48.2 -57.7 29.2 206 206 206
48.6 -57.5 29.1 206 206 206
82.7 -93.8 47.5 204 204 204
82.0 -91.8 46.5 204 204 204
677.0 -439.4 222.5 186 186 186
649.8 -389.1 197.0 177 180 179
-34.9 -24.2 12.4 57 57 57
-35.4 -24.7 12.7 55 55 55
-35.1 -24.7 12.7 59 61 59
-34.8 -24.7 12.7 59 61 59
-34.5 -24.7 12.7 59 61 59
-34.2 -24.7 12.7 59 61 59
-33.9 -24.7 12.7 59 61 59
-33.6 -24.7 12.7 59 61 59
-33.3 -24.7 12.7 59 61 59
-33.0 -24.7 12.7 59 61 59
-32.7 -24.7 12.7 59 61 59
-32.4 -24.7 12.7 63 63 63
-32.1 -24.7 12.7 56 56 56
-31.8 -24.7 12.7 58 58 58
-30.7 -24.7 12.7 53 53 53
-30.4 -24.8 12.7 51 51 49
-30.1 -24.8 12.7 48 48 48
-29.9 -24.8 12.7 49 49 49
-29.6 -24.8 12.7 49 49 49
-29.3 -24.8 12.7 52 52 50
-28.9 -24.7 12.7 52 52 50
-28.6 -24.8 12.7 52 52 50
-28.2 -24.6 12.6 49 49 49
-27.8 -24.6 12.6 49 49 49
-27.5 -24.5 12.6 49 49 49
-27.0 -24.4 12.5 49 49 49
-27.0 -24.6 12.6 49 49 49
-26.8 -24.7 12.7 47 48 47
-26.3 -24.5 12.6 47 48 47
-25.8 -24.3 12.4 50 50 50
-25.5 -24.3 12.5 50 50 50
-25.4 -24.5 12.6 46 46 46
-25.3 -24.6 12.6 46 46 46
-24.9 -24.8 12.7 47 47 47
-24.5 -24.8 12.7 44 44 44
-24.2 -24.7 12.7 44 44 44
-23.9 -24.8 12.7 42 43 42
-23.7 -24.8 12.7 42 43 42
-23.2 -24.6 12.6 42 43 42
-22.6 -24.3 12.4 42 43 42
-22.8 -24.8 12.7 43 43 43
-22.4 -24.7 12.7 42 42 40
-22.1 -24.7 12.7 42 42 40
-21.8 -24.7 12.7 42 42 40
-21.2 -24.3 12.4 42 42 40
-21.1 -24.6 12.6 44 44 44
-20.8 -24.5 12.6 43 42 41
-20.3 -24.3 12.4 41 41 41
-20.0 -24.3 12.4 41 41 41
-19.6 -24.1 12.4 35 35 35
-19.4 -24.6 12.6 21 24 22
-18.3 -24.3 12.5 19 19 19
-18.0 -24.3 12.4 19 19 19
-17.4 -24.3 12.4 19 19 19
-12.6 -25.1 12.9 30 31 30
-11.3 -24.3 12.4 32 31 30
-10.9 -24.1 12.3 33 33 33
-10.6 -23.9 12.2 33 33 33
-10.3 -24.0 12.3 35 37 36
-10.2 -24.3 12.5 40 40 40
-10.0 -24.6 12.6 160 160 160
-5.9 -24.7 12.7 219 219 219
-5.6 -24.7 12.7 217 217 217
-5.3 -24.7 12.7 214 216 216
-4.7 -24.7 12.7 213 215 215
-3.9 -24.7 12.7 208 208 208
-3.6 -24.7 12.7 208 208 208
-3.3 -24.7 12.7 206 206 206
-2.7 -24.7 12.7 205 205 205
-2.4 -24.7 12.6 202 202 202
-2.1 -24.7 12.7 205 205 205
1.4 -24.3 12.5 197 197 197
2.3 -24.7 12.7 194 194 194
3.8 -24.7 12.7 185 185 185
6.7 -24.7 12.7 208 208 208
7.6 -24.6 12.6 208 208 208
7.9 -24.7 12.7 208 208 208
8.2 -24.7 12.7 208 208 208
8.3 -24.2 12.4 208 208 208
8.6 -24.2 12.4 208 208 208
9.1 -24.7 12.7 208 208 208
9.3 -24.6 12.6 208 208 208
9.6 -24.5 12.6 208 208 208
9.9 -24.5 12.6 208 208 208
10.2 -24.5 12.6 208 208 208
10.6 -24.7 12.7 208 208 208
10.8 -24.5 12.6 203 203 203
11.0 -24.5 12.5 206 206 206
11.4 -24.7 12.7 208 208 208
11.6 -24.3 12.5 206 206 206
12.0 -24.7 12.7 206 206 206
12.3 -24.7 12.7 206 206 206
12.6 -24.7 12.7 206 206 206
12.7 -24.4 12.5 206 206 206
13.2 -24.7 12.6 206 206 206
13.4 -24.6 12.6 206 206 206
13.6 -24.3 12.5 206 206 206
14.1 -24.7 12.7 206 206 206
14.2 -24.3 12.5 206 206 206
14.3 -24.1 12.4 205 205 205
15.0 -24.7 12.7 207 207 207
15.3 -24.8 12.7 205 205 205
15.6 -24.7 12.7 205 205 205
15.7 -24.4 12.5 203 203 203
16.1 -24.7 12.7 205 205 205
16.8 -24.8 12.7 205 205 205
16.9 -24.5 12.6 205 205 205
17.0 -24.3 12.4 205 205 205
17.6 -24.7 12.7 205 205 205
18.0 -24.8 12.7 205 205 205
18.3 -24.8 12.7 205 205 205
46.5 -57.5 29.5 205 205 205
47.2 -57.5 29.5 205 205 205
48.3 -57.2 29.3 205 205 205
48.5 -56.7 29.1 206 206 206
46.9 -54.0 27.7 206 206 206
82.3 -92.3 47.3 204 204 204
82.0 -90.7 46.5 204 204 204
-35.8 -24.5 12.7 58 58 58
-35.5 -24.5 12.7 58 58 58
-35.2 -24.5 12.7 60 62 60
-34.9 -24.5 12.7 60 62 60
-34.6 -24.5 12.7 60 62 60
-34.3 -24.5 12.7 60 62 60
-34.1 -24.5 12.7 60 62 60
-33.8 -24.5 12.7 60 62 60
-33.5 -24.5 12.7 64 64 64
-33.2 -24.5 12.7 64 64 64
-32.9 -24.5 12.7 64 64 64
-32.6 -24.5 12.7 60 62 60
-32.3 -24.5 12.7 58 59 59
-32.0 -24.5 12.7 58 59 59
-31.7 -24.5 12.7 58 59 59
-31.4 -24.5 12.7 58 59 59
-31.1 -24.5 12.7 57 57 57
-30.8 -24.5 12.7 54 54 54
-30.6 -24.6 12.7 52 52 50
-30.3 -24.6 12.7 49 49 49
-30.0 -24.6 12.8 50 50 50
-29.7 -24.6 12.8 50 50 50
-29.3 -24.6 12.7 53 52 51
-29.1 -24.6 12.7 53 52 51
-28.8 -24.6 12.7 50 50 50
-28.4 -24.5 12.7 50 50 50
-28.2 -24.6 12.7 50 50 50
-27.9 -24.5 12.7 53 52 51
-27.5 -24.5 12.7 50 50 50
-27.3 -24.5 12.7 51 51 51
-27.0 -24.6 12.7 51 51 51
-26.6 -24.5 12.7 51 51 51
-26.3 -24.5 12.7 51 51 51
-26.1 -24.5 12.7 49 49 49
-25.8 -24.5 12.7 47 47 47
-25.4 -24.5 12.7 47 47 47
-25.2 -24.6 12.8 47 48 47
-25.0 -24.7 12.8 47 48 47
-24.7 -24.6 12.8 47 48 47
-24.3 -24.6 12.7 47 48 47
-24.0 -24.6 12.7 43 43 43
-23.8 -24.7 12.8 42 42 40
-23.4 -24.5 12.7 42 42 40
-23.1 -24.5 12.7 42 42 40
-22.9 -24.6 12.8 43 42 41
-22.6 -24.6 12.7 44 44 44
-22.2 -24.5 12.7 43 42 41
-21.9 -24.5 12.7 41 41 41
-21.6 -24.5 12.7 41 41 41
-21.4 -24.6 12.7 40 42 42
-21.0 -24.5 12.7 40 42 42
-20.7 -24.5 12.7 40 42 42
-20.4 -24.4 12.7 40 40 40
-20.1 -24.5 12.7 30 29 29
-19.8 -24.5 12.7 20 20 20
-19.5 -24.5 12.7 18 18 18
-19.3 -24.6 12.8 18 18 18
-18.6 -24.4 12.7 18 18 18
-18.3 -24.5 12.7 18 18 18
-18.1 -24.5 12.7 19 19 19
-13.3 -24.5 12.7 30 29 29
-13.1 -24.6 12.7 31 32 30
-12.7 -24.9 12.9 29 29 29
-12.3 -24.8 12.9 29 29 29
-11.8 -24.5 12.7 29 31 29
-11.5 -24.4 12.7 29 31 29
-11.1 -24.2 12.6 32 31 30
-10.9 -24.2 12.6 33 33 33
-10.6 -24.3 12.6 33 33 33
-10.4 -24.4 12.7 47 48 47
-10.1 -24.6 12.8 166 169 168
-9.8 -24.7 12.8 186 188 187
-6.3 -24.6 12.7 223 225 225
-6.0 -24.6 12.7 222 222 222
-5.7 -24.5 12.7 220 220 220
-5.4 -24.5 12.7 218 218 218
-5.1 -24.5 12.7 218 218 218
-4.8 -24.6 12.7 217 217 217
-4.5 -24.5 12.7 215 215 215
-4.2 -24.5 12.7 210 213 212
-3.9 -24.6 12.7 210 213 212
-3.6 -24.6 12.7 210 213 212
-3.3 -24.5 12.7 210 213 212
-3.0 -24.5 12.7 208 211 210
-2.7 -24.5 12.7 208 211 210
-2.4 -24.5 12.7 207 207 207
-2.1 -24.5 12.7 207 207 207
-1.8 -24.5 12.7 205 205 205
-1.5 -24.5 12.7 204 204 204
1.4 -24.5 12.7 196 196 196
1.7 -24.6 12.7 196 196 196
2.0 -24.6 12.7 196 196 196
2.3 -24.6 12.7 196 196 196
3.5 -24.5 12.7 191 191 191
3.8 -24.5 12.7 188 188 188
7.1 -24.5 12.7 208 208 208
7.4 -24.5 12.7 208 208 208
7.6 -24.5 12.7 208 208 208
8.0 -24.5 12.7 208 208 208
8.2 -24.5 12.7 208 208 208
8.5 -24.5 12.7 208 208 208
8.8 -24.5 12.7 208 208 208
9.1 -24.6 12.7 208 208 208
9.4 -24.6 12.8 208 208 208
9.7 -24.6 12.7 208 208 208
10.0 -24.5 12.7 208 208 208
10.3 -24.5 12.7 208 208 208
10.6 -24.5 12.7 207 207 207
10.9 -24.5 12.7 206 206 206
11.2 -24.5 12.7 207 207 207
11.5 -24.5 12.7 207 207 207
11.8 -24.5 12.7 205 205 205
12.1 -24.6 12.7 205 205 205
12.4 -24.6 12.7 205 205 205
12.7 -24.5 12.7 205 205 205
12.9 -24.5 12.7 205 205 205
13.3 -24.5 12.7 205 205 205
13.6 -24.5 12.7 205 205 205
13.9 -24.6 12.7 205 205 205
14.2 -24.7 12.8 205 205 205
14.4 -24.4 12.7 205 205 205
14.7 -24.5 12.7 207 207 207
15.1 -24.6 12.7 207 207 207
15.4 -24.6 12.8 205 205 205
15.7 -24.6 12.8 205 205 205
15.9 -24.5 12.7 205 205 205
16.2 -24.5 12.7 207 207 207
16.5 -24.5 12.7 207 207 207
16.9 -24.7 12.8 207 207 207
17.1 -24.5 12.7 207 207 207
17.3 -24.4 12.7 204 204 204
17.7 -24.5 12.7 204 204 204
18.0 -24.5 12.7 204 204 204
18.4 -24.6 12.8 204 204 204
18.6 -24.6 12.7 204 204 204
47.1 -56.7 29.4 205 205 205
48.2 -55.7 28.9 205 205 205
46.2 -52.5 27.3 205 205 205
46.5 -52.2 27.1 207 207 207
81.8 -89.4 46.4 206 206 206
81.6 -88.1 45.7 203 203 203
-35.9 -24.3 12.8 60 62 60
-36.3 -24.7 13.0 60 62 60
-36.0 -24.7 13.0 60 62 60
-35.7 -24.7 13.0 61 63 61
-35.4 -24.7 13.0 61 63 61
-35.1 -24.7 13.0 61 63 61
-34.8 -24.7 13.0 61 63 61
-34.5 -24.8 13.0 65 65 65
-34.2 -24.8 13.0 61 63 61
-33.9 -24.7 13.0 65 65 65
-33.6 -24.7 13.0 65 65 65
-33.3 -24.7 13.0 61 63 61
-33.0 -24.7 13.0 61 63 61
-32.6 -24.7 13.0 59 59 59
-32.0 -24.7 13.0 58 58 58
-31.2 -24.8 13.0 53 52 51
-30.9 -24.8 13.0 53 52 51
-30.6 -24.8 13.0 54 53 52
-30.0 -24.6 12.9 54 53 52
-29.9 -24.7 13.0 56 56 56
-29.6 -24.7 13.0 54 53 52
-29.5 -24.8 13.0 51 51 51
-29.1 -24.8 13.0 54 53 52
-28.7 -24.8 13.0 54 53 52
-28.4 -24.7 13.0 54 53 52
-28.1 -24.7 13.0 55 54 53
-27.9 -24.8 13.0 57 57 57
-27.3 -24.5 12.9 52 52 52
-26.7 -24.3 12.7 52 52 52
-26.4 -24.3 12.7 52 52 52
-26.6 -24.7 13.0 50 50 50
-26.3 -24.7 13.0 50 50 50
-25.5 -24.2 12.7 50 50 50
-25.7 -24.8 13.0 46 46 46
-25.4 -24.7 13.0 48 48 48
-25.2 -24.8 13.0 48 48 48
-24.8 -24.8 13.0 47 47 47
-24.6 -24.8 13.0 47 47 47
-24.2 -24.7 13.0 47 47 47
-23.5 -24.3 12.8 45 45 45
-23.1 -24.2 12.7 43 42 41
-23.4 -24.8 13.0 44 43 42
-22.8 -24.5 12.9 44 43 42
-22.3 -24.4 12.8 44 43 42
-21.9 -24.2 12.7 42 42 42
-21.7 -24.3 12.7 42 42 42
-21.8 -24.7 13.0 41 43 42
-21.1 -24.3 12.7 41 43 42
-20.7 -24.2 12.7 41 43 42
-20.4 -24.2 12.7 39 39 39
-12.7 -19.6 10.3 24 27 25
-12.8 -24.9 13.1 31 32 30
-12.4 -24.7 13.0 34 34 34
-12.0 -24.4 12.8 34 34 34
-11.1 -23.9 12.6 34 34 34
-10.9 -24.0 12.6 28 28 28
-10.6 -24.1 12.6 40 39 38
-10.4 -24.2 12.7 46 46 46
-10.3 -24.8 13.0 181 181 181
-10.1 -24.9 13.1 185 185 185
-2.7 -24.3 12.7 210 213 212
-2.4 -24.2 12.7 210 213 212
9.8 -24.4 12.8 207 207 207
10.1 -24.3 12.8 207 207 207
10.3 -24.3 12.8 207 207 207
10.6 -24.3 12.8 207 207 207
10.9 -24.3 12.8 207 207 207
11.2 -24.3 12.8 207 207 207
11.5 -24.3 12.7 207 207 207
14.3 -24.5 12.9 207 207 207
14.4 -24.2 12.7 206 206 206
15.8 -24.4 12.8 204 204 204
15.9 -24.2 12.7 202 202 202
17.1 -24.7 13.0 206 206 206
17.1 -24.2 12.7 206 206 206
17.4 -24.2 12.7 206 206 206
18.5 -24.5 12.9 206 206 206
46.3 -55.9 29.4 204 204 204
46.9 -55.9 29.3 204 204 204
48.2 -54.9 28.8 204 204 204
46.9 -52.8 27.7 205 205 205
47.0 -52.1 27.4 205 205 205
-36.7 -24.5 13.0 61 63 61
-36.4 -24.5 13.0 61 63 61
-36.0 -24.5 13.0 61 63 61
-35.8 -24.5 13.0 61 63 61
-35.4 -24.5 13.0 61 63 61
-35.2 -24.5 13.0 62 64 61
-34.9 -24.5 13.0 65 65 65
-34.6 -24.5 13.0 65 65 65
-34.3 -24.5 13.0 62 64 61
-33.9 -24.5 13.0 66 66 66
-33.7 -24.5 13.0 62 64 61
-33.3 -24.5 13.0 62 64 61
-33.0 -24.5 13.0 62 64 61
-32.7 -24.5 13.0 60 60 60
-32.4 -24.5 13.0 60 60 60
-32.1 -24.5 13.0 60 60 60
-31.9 -24.6 13.1 60 60 60
-31.6 -24.6 13.1 56 56 56
-31.3 -24.6 13.1 56 56 56
-31.0 -24.6 13.1 56 56 56
-30.7 -24.6 13.1 57 57 57
-30.3 -24.5 13.0 55 54 53
-30.0 -24.5 13.0 55 54 53
-29.7 -24.5 13.0 55 54 53
-29.6 -24.6 13.1 55 54 53
-29.2 -24.6 13.1 55 54 53
-28.8 -24.5 13.0 55 54 53
-28.5 -24.5 13.0 56 55 54
-28.2 -24.5 13.0 56 55 54
-28.0 -24.6 13.1 56 55 54
-27.6 -24.5 13.0 53 52 52
-27.2 -24.4 13.0 56 55 54
-27.0 -24.5 13.0 53 53 53
-26.7 -24.5 13.0 53 53 53
-26.3 -24.5 13.0 53 53 53
-26.1 -24.5 13.0 53 53 53
-25.9 -24.6 13.1 49 49 49
-25.6 -24.6 13.1 49 49 49
-25.2 -24.6 13.1 49 49 49
-24.9 -24.5 13.0 47 48 47
-24.7 -24.6 13.1 47 48 47
-24.3 -24.6 13.1 47 48 47
-23.9 -24.4 13.0 46 46 46
-23.4 -24.6 13.1 45 44 43
-22.1 -24.5 13.0 42 43 42
-21.8 -24.5 13.0 42 44 43
-21.5 -24.4 13.0 42 44 43
-13.1 -19.5 10.4 25 28 25
-12.8 -19.5 10.4 22 25 23
-13.4 -24.5 13.0 36 36 36
-13.1 -24.5 13.0 34 33 32
-12.8 -24.7 13.1 33 33 31
-12.5 -24.5 13.0 41 41 41
-10.6 -24.4 13.0 49 49 49
-10.4 -24.7 13.1 185 185 185
-10.1 -24.7 13.1 184 187 186
13.8 -22.5 11.9 206 206 206
13.7 -21.8 11.6 206 206 206
15.9 -24.4 13.0 208 208 208
17.3 -24.2 12.9 206 206 206
16.3 -22.5 11.9 206 206 206
46.3 -55.2 29.3 206 206 206
47.0 -55.3 29.4 206 206 206
46.8 -54.2 28.8 206 206 206
48.5 -55.4 29.5 206 206 206
48.8 -54.9 29.2 206 206 206
47.7 -53.0 28.1 204 204 204
47.6 -52.1 27.7 204 204 204
48.2 -52.1 27.7 204 204 204
547.2 -312.2 165.9 176 179 178
-31.2 -24.7 13.3 56 55 54
-30.0 -24.7 13.3 56 55 54
-29.6 -24.6 13.3 56 55 54
-27.0 -23.9 12.9 57 56 55
-26.3 -24.7 13.3 50 50 50
-21.8 -24.1 13.0 43 45 44
-21.3 -23.9 12.9 43 45 44
-12.9 -24.5 13.2 91 94 93
-12.5 -24.2 13.0 58 59 59
-10.8 -23.9 12.9 22 25 23
-10.5 -24.7 13.3 183 183 183
-10.2 -24.7 13.3 183 186 185
13.8 -22.1 11.9 206 206 206
15.9 -24.0 12.9 205 205 205
16.1 -23.9 12.8 205 205 205
17.2 -24.1 13.0 205 205 205
17.3 -23.8 12.8 205 205 205
46.3 -54.6 29.4 205 205 205
47.2 -54.8 29.5 205 205 205
48.6 -54.8 29.5 205 205 205
49.1 -54.6 29.4 206 206 206
48.0 -52.7 28.4 203 203 203
47.6 -51.5 27.7 204 204 204
48.1 -51.4 27.7 204 204 204
487.3 -274.6 147.8 176 179 178
-32.2 -24.9 13.6 56 55 54
-31.8 -24.8 13.5 57 56 55
-30.7 -25.0 13.6 57 56 55
-30.4 -24.9 13.6 58 59 59
-26.9 -24.9 13.6 51 51 51
-26.6 -24.9 13.6 52 52 52
-26.3 -24.9 13.6 52 52 52
-25.6 -24.9 13.6 50 50 50
-12.8 -19.0 10.4 23 26 24
-13.0 -24.3 13.2 26 26 26
-12.6 -24.2 13.2 34 33 32
-10.6 -24.4 13.3 184 184 184
-10.2 -24.4 13.3 182 185 184
16.1 -24.1 13.1 205 205 205
17.3 -23.6 12.9 205 205 205
46.3 -53.8 29.3 205 205 205
47.0 -53.9 29.4 205 205 205
47.3 -53.4 29.1 205 205 205
48.6 -54.2 29.5 205 205 205
49.0 -53.8 29.3 205 205 205
48.1 -52.1 28.4 205 205 205
47.4 -50.7 27.6 205 205 205
47.6 -50.2 27.3 206 206 206
48.5 -50.5 27.5 203 203 203
49.1 -50.4 27.5 203 203 203
-32.9 -24.6 13.6 63 63 63
-32.6 -24.6 13.6 58 59 59
-32.2 -24.6 13.6 58 59 59
-31.9 -24.5 13.6 61 61 61
-31.3 -24.4 13.4 59 59 59
-30.7 -24.7 13.6 57 57 55
-30.4 -24.6 13.6 57 57 55
-30.0 -24.6 13.6 58 58 56
-26.9 -24.6 13.6 52 52 52
-26.6 -24.6 13.6 53 52 52
-26.3 -24.6 13.6 53 52 52
-25.9 -24.6 13.6 53 52 52
-25.6 -24.6 13.6 48 48 48
-25.1 -24.5 13.5 53 53 53
-15.0 -18.5 10.2 23 26 24
-14.7 -18.5 10.2 23 26 24
-12.7 -18.6 10.3 30 29 29
-13.0 -24.0 13.3 27 27 27
-12.6 -23.9 13.2 134 134 134
-10.9 -24.2 13.3 58 58 58
-10.6 -24.2 13.3 183 186 185
-10.3 -24.2 13.3 181 184 183
46.3 -53.1 29.3 204 204 204
46.9 -53.1 29.3 204 204 204
48.5 -53.4 29.5 205 205 205
48.9 -53.1 29.3 205 205 205
47.8 -51.2 28.2 205 205 205
47.5 -50.1 27.7 205 205 205
47.6 -49.6 27.4 205 205 205
48.3 -49.7 27.4 205 205 205
133.4 -92.1 50.9 190 190 190
125.8 -86.1 47.5 190 190 190
-32.5 -24.2 13.6 62 62 62
-32.2 -24.2 13.6 59 59 59
-31.8 -24.2 13.5 62 62 62
-31.2 -24.0 13.4 63 63 63
-31.0 -24.3 13.6 60 60 60
-30.7 -24.3 13.6 58 58 56
-30.3 -24.3 13.6 59 59 57
-27.2 -24.3 13.6 55 55 55
-26.8 -24.3 13.6 56 56 56
-26.5 -24.2 13.6 56 56 56
-26.2 -24.2 13.6 56 56 56
-25.9 -24.3 13.6 54 54 54
-25.6 -24.3 13.6 52 52 52
-25.0 -24.0 13.4 54 54 54
-15.3 -18.3 10.3 109 109 107
-14.9 -18.2 10.2 101 101 101
-13.0 -18.4 10.3 123 123 123
-12.7 -18.4 10.3 30 30 30
-13.0 -23.7 13.2 31 31 31
-12.6 -23.6 13.2 117 117 117
-10.9 -23.9 13.4 53 53 53
-10.6 -23.9 13.4 182 185 184
-10.3 -23.8 13.3 181 184 183
8.5 -18.8 10.5 205 205 205
8.7 -18.8 10.5 205 205 205
14.3 -18.7 10.5 206 206 206
46.9 -52.5 29.3 204 204 204
48.7 -52.9 29.6 204 204 204
49.0 -52.5 29.3 204 204 204
47.9 -50.6 28.3 204 204 204
47.6 -49.6 27.7 204 204 204
47.8 -49.2 27.5 205 205 205
48.3 -49.0 27.4 205 205 205
133.1 -90.7 50.7 189 189 189
126.4 -85.4 47.8 189 189 189
487.3 -264.3 147.8 176 179 178
479.5 -258.3 144.4 176 179 178
475.6 -254.4 142.2 177 180 179
497.6 -264.3 147.8 178 181 180
-10.7 -23.7 13.5 181 184 183
-10.8 -25.5 14.5 180 183 182
-10.4 -25.5 14.4 179 182 181
-4.9 -18.6 10.5 228 228 228
-4.7 -18.6 10.5 227 226 224
-4.4 -18.6 10.6 228 228 228
-4.2 -18.6 10.5 228 228 228
-3.7 -18.6 10.5 226 225 223
-3.5 -18.6 10.5 226 225 223
-3.2 -18.6 10.5 226 225 223
-3.0 -18.6 10.5 219 222 221
-2.7 -18.6 10.6 219 222 221
3.9 -18.6 10.6 147 147 147
4.1 -18.5 10.5 146 146 146
8.3 -18.6 10.6 207 207 207
8.6 -18.6 10.6 207 207 207
8.8 -18.6 10.6 207 207 207
9.0 -18.6 10.5 207 207 207
9.5 -18.6 10.6 207 207 207
9.8 -18.6 10.5 209 212 211
10.0 -18.6 10.5 207 207 207
10.5 -18.6 10.5 204 204 204
10.8 -18.6 10.6 204 204 204
11.0 -18.6 10.6 204 204 204
11.2 -18.6 10.5 204 204 204
11.5 -18.6 10.5 207 207 207
12.5 -18.6 10.6 206 206 206
12.7 -18.6 10.6 208 211 210
13.0 -18.6 10.6 206 206 206
13.2 -18.6 10.5 203 203 203
13.4 -18.6 10.5 203 203 203
13.7 -18.6 10.5 206 206 206
14.2 -18.6 10.6 206 206 206
14.4 -18.6 10.5 206 206 206
46.3 -51.8 29.3 206 206 206
47.0 -51.9 29.4 206 206 206
47.9 -52.0 29.5 206 206 206
48.8 -52.3 29.6 206 206 206
49.1 -51.9 29.4 206 206 206
48.7 -50.7 28.7 207 207 207
48.5 -49.8 28.2 207 207 207
49.6 -50.3 28.5 204 204 204
49.1 -49.1 27.8 207 207 207
48.3 -47.7 27.0 204 204 204
134.5 -90.5 51.3 188 188 188
125.8 -83.9 47.5 188 188 188
448.6 -236.8 134.2 177 180 179
478.9 -251.1 142.2 177 180 179
-14.8 -17.6 10.1 92 92 92
-12.9 -17.9 10.3 95 97 94
-11.2 -25.2 14.5 179 182 181
-10.8 -25.3 14.5 183 183 183
-10.5 -25.2 14.5 181 181 181
-10.1 -25.1 14.4 213 215 215
4.1 -18.0 10.3 179 179 179
8.5 -18.2 10.5 207 207 207
8.8 -18.4 10.6 207 207 207
9.8 -17.9 10.3 207 207 207
10.5 -17.9 10.3 206 206 206
11.0 -18.4 10.6 206 206 206
11.2 -18.4 10.5 206 206 206
11.2 -17.9 10.3 206 206 206
11.7 -17.9 10.3 206 206 206
12.9 -18.2 10.5 206 206 206
12.9 -17.9 10.3 206 206 206
13.4 -17.9 10.3 206 206 206
13.6 -17.9 10.3 206 206 206
14.2 -18.4 10.6 206 206 206
14.1 -18.0 10.3 206 206 206
46.5 -51.3 29.5 206 206 206
47.2 -51.3 29.5 206 206 206
48.0 -51.5 29.6 206 206 206
49.1 -51.9 29.8 206 206 206
49.4 -51.5 29.6 206 206 206
49.0 -50.4 28.9 206 206 206
48.7 -49.4 28.4 206 206 206
50.2 -50.2 28.8 206 206 206
49.1 -48.5 27.9 207 207 207
48.9 -47.7 27.4 207 207 207
134.9 -89.5 51.4 186 186 186
121.2 -79.8 45.8 190 190 190
-14.8 -17.4 10.1 33 33 33
-12.9 -17.7 10.3 54 54 54
-11.7 -25.4 14.8 180 183 182
-11.3 -25.2 14.7 179 182 181
-10.9 -25.1 14.6 183 183 183
-10.5 -25.0 14.6 183 183 183
-10.2 -25.1 14.6 202 202 202
-6.1 -17.3 10.1 214 214 214
-5.9 -17.3 10.0 212 213 212
-4.5 -17.3 10.1 217 217 217
-4.2 -17.3 10.1 217 217 217
-3.8 -17.4 10.1 216 216 216
-3.1 -17.3 10.1 215 215 215
-2.8 -17.3 10.0 214 214 214
-2.4 -17.3 10.1 214 214 214
-2.1 -17.2 10.0 214 214 214
-1.7 -17.3 10.1 211 211 211
-1.4 -17.3 10.1 211 211 211
-1.2 -17.4 10.1 209 209 209
-1.0 -17.4 10.1 209 209 209
-0.7 -17.2 10.0 205 208 207
-0.0 -17.4 10.1 206 209 208
0.2 -17.3 10.0 203 205 205
0.9 -17.3 10.0 196 196 196
1.6 -17.4 10.1 194 194 194
1.8 -17.4 10.1 192 192 192
2.5 -17.3 10.0 195 195 195
3.5 -17.4 10.1 181 181 181
4.0 -17.4 10.1 181 181 181
4.2 -17.3 10.1 176 176 176
4.4 -17.2 10.0 176 176 176
6.1 -17.3 10.1 209 212 211
6.5 -17.3 10.1 207 207 207
7.5 -17.4 10.1 204 204 204
7.7 -17.3 10.1 204 204 204
8.0 -17.4 10.1 207 207 207
8.2 -17.3 10.1 207 207 207
8.4 -17.3 10.1 203 203 203
8.7 -17.4 10.1 208 211 210
8.9 -17.3 10.1 203 203 203
9.1 -17.3 10.1 206 206 206
9.3 -17.3 10.1 206 206 206
9.6 -17.3 10.1 206 206 206
9.8 -17.3 10.1 206 206 206
10.0 -17.3 10.1 206 206 206
10.2 -17.3 10.1 206 206 206
10.5 -17.3 10.1 206 206 206
10.7 -17.3 10.1 206 206 206
11.0 -17.3 10.1 206 206 206
11.2 -17.3 10.0 206 206 206
11.4 -17.3 10.1 206 206 206
11.7 -17.3 10.1 206 206 206
11.9 -17.3 10.1 206 206 206
12.2 -17.3 10.1 206 206 206
12.4 -17.3 10.1 206 206 206
12.6 -17.3 10.1 206 206 206
12.8 -17.3 10.1 205 205 205
13.1 -17.3 10.1 205 205 205
13.3 -17.3 10.1 202 202 202
13.6 -17.4 10.1 205 205 205
13.8 -17.3 10.1 205 205 205
13.9 -17.2 10.0 205 205 205
14.4 -17.3 10.0 205 205 205
14.8 -17.3 10.1 205 205 205
15.0 -17.3 10.1 205 205 205
46.7 -50.9 29.6 205 205 205
47.4 -50.9 29.6 202 202 202
50.3 -52.5 30.6 206 206 206
49.8 -51.3 29.8 206 206 206
49.6 -50.3 29.3 206 206 206
49.4 -49.5 28.8 206 206 206
51.8 -51.2 29.8 206 206 206
49.2 -47.3 27.5 206 206 206
-11.9 -25.5 15.0 181 184 183
-11.5 -25.2 14.9 180 183 182
-11.0 -25.1 14.8 181 184 183
-10.7 -25.0 14.7 179 182 181
-10.5 -25.4 15.0 193 193 193
-10.1 -25.4 15.0 196 196 196
-4.4 -17.0 10.0 206 209 208
3.9 -17.0 10.0 180 180 180
4.2 -17.0 10.0 180 180 180
6.0 -17.0 10.0 209 212 211
6.3 -17.0 10.0 209 212 211
7.6 -17.0 10.0 207 207 207
12.1 -17.0 10.0 205 205 205
12.5 -17.0 10.0 205 205 205
13.7 -17.0 10.0 207 210 209
50.8 -52.3 30.9 205 205 205
50.2 -51.0 30.1 207 210 209
50.0 -50.0 29.5 207 210 209
50.4 -49.8 29.4 208 211 210
52.8 -51.4 30.3 206 206 206
53.5 -51.4 30.3 206 206 206
44.5 -39.2 23.1 207 207 207
120.5 -76.5 45.1 188 188 188
-12.0 -25.4 15.2 183 186 185
-11.5 -25.0 14.9 181 184 183
-11.1 -24.8 14.8 180 183 182
-10.7 -24.8 14.8 177 177 177
-10.6 -25.3 15.1 175 175 175
-10.2 -25.2 15.1 176 179 178
-5.9 -16.8 10.0 190 190 190
-4.2 -16.8 10.0 198 198 198
-3.1 -16.9 10.1 202 204 204
-2.8 -16.8 10.0 197 197 197
-2.1 -16.8 10.0 198 198 198
-0.7 -16.7 10.0 203 203 203
0.2 -16.8 10.0 199 199 199
0.9 -16.8 10.0 193 193 193
2.5 -16.8 10.0 170 171 170
4.2 -16.8 10.1 181 181 181
4.4 -16.7 10.0 175 175 175
8.2 -16.9 10.1 208 211 210
8.4 -16.8 10.0 208 211 210
8.6 -16.7 10.0 208 211 210
9.1 -16.8 10.0 208 211 210
9.3 -16.8 10.0 208 211 210
9.5 -16.8 10.1 206 206 206
9.8 -16.8 10.0 203 203 203
10.0 -16.8 10.0 206 206 206
10.2 -16.8 10.0 203 203 203
10.5 -16.8 10.0 203 203 203
10.7 -16.8 10.0 207 210 209
10.9 -16.8 10.0 207 210 209
11.1 -16.8 10.0 205 205 205
11.4 -16.8 10.0 205 205 205
11.6 -16.8 10.0 207 210 209
12.2 -16.9 10.1 207 210 209
12.3 -16.8 10.0 205 205 205
12.6 -16.8 10.0 202 202 202
12.8 -16.8 10.0 202 202 202
13.2 -17.0 10.2 202 202 202
13.3 -16.8 10.0 205 205 205
13.6 -16.9 10.1 207 210 209
13.8 -16.8 10.1 207 210 209
13.9 -16.7 10.0 206 209 208
14.4 -16.7 10.0 206 209 208
14.8 -17.0 10.2 206 209 208
14.9 -16.8 10.1 202 202 202
15.1 -16.7 10.0 204 204 204
50.8 -51.6 30.9 207 210 209
50.2 -50.2 30.0 207 210 209
50.1 -49.4 29.6 207 210 209
50.6 -49.3 29.5 207 210 209
53.1 -51.0 30.5 206 206 206
55.9 -53.0 31.7 206 206 206
43.2 -38.9 23.3 206 206 206
42.9 -38.2 22.8 207 207 207
43.3 -38.0 22.7 207 207 207
43.8 -38.0 22.7 207 207 207
-10.4 -18.4 11.1 116 118 117
-12.2 -25.3 15.3 184 187 186
-11.5 -24.7 15.0 183 186 185
-11.1 -24.6 14.9 182 182 182
-10.8 -24.7 15.0 176 176 176
-10.6 -25.1 15.2 157 160 159
-10.3 -25.0 15.2 163 163 163
-5.9 -16.7 10.1 174 176 176
11.0 -17.0 10.3 207 210 209
11.2 -16.9 10.3 207 210 209
11.4 -17.0 10.3 207 210 209
11.6 -16.9 10.2 205 205 205
13.1 -16.9 10.3 205 205 205
13.3 -16.9 10.3 205 205 205
13.5 -16.9 10.2 206 209 208
14.1 -17.0 10.3 206 209 208
50.5 -50.6 30.7 206 209 208
49.8 -49.2 29.8 207 210 209
49.9 -48.6 29.5 207 210 209
50.5 -48.5 29.4 207 210 209
52.9 -50.2 30.4 207 210 209
56.0 -51.6 31.3 206 206 206
56.9 -51.8 31.4 208 211 210
43.2 -37.0 22.4 207 207 207
43.0 -36.4 22.1 207 207 207
49.1 -21.9 13.3 150 150 150
48.2 -21.4 13.0 145 145 144
-30.6 -20.2 12.4 70 70 70
-10.4 -18.1 11.2 39 39 39
-12.3 -25.2 15.5 188 190 190
-11.2 -25.2 15.5 179 179 179
-10.9 -25.2 15.5 158 161 160
-10.5 -25.3 15.6 155 158 157
-5.9 -16.4 10.1 158 158 158
11.1 -17.3 10.7 207 210 209
11.0 -16.8 10.3 207 210 209
11.3 -16.8 10.3 207 210 209
14.2 -16.9 10.4 206 209 208
51.0 -50.3 31.0 206 209 208
50.1 -48.7 30.0 206 209 208
49.9 -47.9 29.5 206 209 208
50.6 -47.9 29.5 207 210 209
53.1 -49.6 30.5 207 210 209
56.6 -52.2 32.1 207 210 209
58.2 -52.9 32.6 207 210 209
58.3 -52.4 32.2 207 210 209
43.7 -36.9 22.7 208 211 210
47.9 -20.9 12.9 144 144 144
46.6 -20.3 12.5 139 139 139
-30.6 -19.9 12.4 77 77 77
-37.1 -25.8 16.1 33 33 31
-36.8 -25.8 16.1 68 70 68
-36.1 -25.6 16.0 68 70 68
-32.0 -25.6 16.0 73 73 73
-10.4 -17.8 11.1 112 112 112
-12.1 -25.9 16.2 184 187 186
-11.0 -26.0 16.2 156 159 158
10.8 -16.6 10.4 207 210 209
11.0 -16.6 10.3 207 210 209
11.2 -16.5 10.3 207 210 209
12.8 -16.7 10.4 206 209 208
14.2 -16.6 10.4 205 208 207
50.8 -49.4 30.8 206 209 208
50.2 -48.1 30.0 206 209 208
53.0 -48.8 30.5 206 209 208
57.9 -52.6 32.8 207 210 209
59.0 -52.9 33.0 207 210 209
58.7 -52.0 32.4 207 210 209
44.0 -36.6 22.8 208 211 210
64.8 -53.3 33.2 207 207 207
48.5 -20.9 13.1 146 146 146
-38.4 -26.0 16.5 73 74 72
-37.8 -25.9 16.4 70 70 70
-37.5 -25.9 16.4 70 70 70
-37.2 -26.0 16.5 67 69 67
-36.8 -26.0 16.4 71 71 71
-36.3 -26.0 16.4 71 71 71
-35.9 -25.9 16.4 66 66 66
-34.2 -26.0 16.5 69 71 69
-33.6 -25.9 16.4 67 67 67
-33.3 -25.9 16.4 69 71 69
-32.8 -25.9 16.4 67 67 67
-32.6 -26.0 16.5 69 71 69
-10.4 -17.6 11.1 107 109 109
-11.4 -25.8 16.3 166 166 166
-11.1 -25.9 16.4 163 163 163
11.1 -16.4 10.4 206 209 208
12.9 -16.5 10.5 206 209 208
52.6 -47.7 30.2 206 209 208
65.3 -58.5 37.0 206 209 208
64.4 -56.9 36.0 207 210 209
40.7 -30.1 19.1 189 189 189
77.6 -35.9 22.7 182 182 182
80.4 -36.7 23.2 182 182 182
-39.1 -26.4 17.0 60 60 60
-38.5 -26.3 16.9 60 60 60
-34.1 -26.2 16.8 63 63 63
-33.4 -26.3 16.9 65 65 65
-13.2 -16.3 10.5 159 159 159
-12.7 -16.0 10.3 150 152 152
-10.4 -17.3 11.1 47 48 47
-12.8 -26.7 17.1 188 188 188
-12.2 -26.2 16.8 180 180 180
-11.8 -26.3 16.9 169 169 169
-11.3 -26.0 16.7 166 166 166
65.9 -57.4 36.9 206 209 208
42.7 -31.8 20.4 184 184 184
41.8 -30.8 19.8 186 186 186
41.1 -29.9 19.2 189 189 189
77.6 -35.6 22.9 183 183 183
78.0 -35.5 22.8 183 183 183
79.9 -36.2 23.2 183 183 183
80.4 -36.2 23.2 183 183 183
80.5 -35.9 23.1 183 183 183
-15.0 -16.8 10.9 84 85 83
-13.3 -16.2 10.6 35 36 34
-10.3 -16.9 11.1 30 31 30
38.1 -27.0 17.6 189 189 189
37.7 -26.5 17.3 192 192 192
77.9 -35.2 23.0 184 184 184
78.2 -35.1 22.9 184 184 184
80.3 -35.8 23.4 184 184 184
80.6 -35.7 23.3 184 184 184
80.2 -35.3 23.0 184 184 184
-19.1 -18.2 12.1 26 26 26
-15.0 -16.5 10.9 32 32 32
-14.5 -16.2 10.7 23 26 24
-13.5 -16.2 10.7 32 32 32
-10.3 -16.7 11.1 29 31 29
193.6 -168.0 111.3 208 211 210
320.7 -248.3 164.5 207 210 209
253.4 -191.6 127.0 208 211 210
37.8 -26.5 17.5 192 192 192
37.2 -25.7 17.0 192 192 192
78.5 -34.7 23.0 185 185 185
81.1 -35.6 23.6 185 185 185
81.1 -35.4 23.4 185 185 185
80.5 -34.9 23.1 185 185 185
-19.1 -17.9 12.0 26 26 26
-14.7 -15.4 10.4 29 29 29
-16.0 -17.0 11.5 21 24 22
-15.0 -16.2 10.9 22 25 23
-13.1 -15.4 10.4 30 29 29
-12.7 -15.3 10.3 33 35 33
-10.4 -16.6 11.2 39 41 41
-13.4 -28.5 19.1 177 180 179
-13.0 -28.5 19.2 175 175 175
-12.7 -28.8 19.4 164 167 166
181.9 -155.3 104.5 208 211 210
289.3 -217.9 146.6 210 213 212
255.1 -190.0 127.8 210 213 212
211.0 -155.3 104.5 210 213 212
37.0 -25.2 17.0 192 192 192
77.6 -34.0 22.9 189 191 191
82.5 -35.7 24.0 186 186 186
82.2 -35.3 23.8 186 186 186
80.5 -34.3 23.1 186 186 186
59.6 -24.2 16.3 160 160 160
59.9 -24.1 16.2 156 156 156
60.3 -24.1 16.2 150 150 150
-14.3 -28.8 19.7 179 179 179
-13.6 -28.3 19.4 178 178 178
-13.1 -28.4 19.4 177 177 177
-12.9 -28.8 19.7 163 166 165
171.5 -144.1 98.5 207 210 209
172.8 -143.4 98.0 208 211 210
280.6 -208.1 142.2 210 213 212
265.9 -194.9 133.2 210 213 212
213.4 -154.6 105.7 210 213 212
191.3 -137.0 93.6 208 211 210
83.0 -35.1 24.0 188 188 188
81.8 -34.3 23.5 188 188 188
82.6 -34.5 23.6 188 188 188
83.5 -34.6 23.6 188 188 188
61.6 -24.7 16.9 168 168 168
60.9 -24.3 16.6 162 162 162
60.1 -23.8 16.3 156 156 156
60.1 -23.7 16.2 148 150 150
-18.7 -17.2 12.0 30 29 29
-14.5 -28.9 20.0 171 173 173
-13.8 -28.3 19.6 177 177 177
-13.4 -28.4 19.7 176 176 176
-13.1 -28.8 20.0 139 141 140
201.5 -171.3 119.0 207 210 209
205.6 -172.4 119.7 207 210 209
200.7 -166.1 115.3 207 210 209
267.2 -197.4 137.1 209 212 211
282.7 -206.3 143.3 209 212 211
279.7 -201.7 140.1 210 213 212
224.7 -160.2 111.3 210 213 212
81.7 -33.7 23.4 190 190 190
82.3 -33.8 23.5 190 190 190
83.3 -34.0 23.6 190 190 190
61.4 -24.1 16.7 161 161 161
60.9 -23.7 16.5 157 157 157
60.2 -23.3 16.2 150 152 152
-33.7 -17.0 12.0 26 26 26
-33.4 -17.0 12.0 29 30 28
-33.2 -17.0 12.0 87 87 87
-32.9 -17.0 12.0 151 151 151
-30.1 -16.9 12.0 183 183 183
-29.8 -17.0 12.0 175 175 175
-29.6 -17.0 12.0 148 148 148
-29.3 -17.0 12.0 184 184 184
-29.0 -17.0 12.0 178 181 180
-28.7 -16.9 12.0 157 160 159
-28.4 -17.0 12.0 140 142 141
-28.1 -17.0 12.0 145 145 144
-27.9 -17.0 12.0 77 77 77
-27.6 -16.9 12.0 85 85 85
-27.3 -17.0 12.0 198 198 198
-27.0 -16.9 12.0 201 203 203
-24.5 -17.0 12.0 60 60 60
-24.2 -17.0 12.0 85 85 85
-24.0 -17.0 12.0 47 47 47
-23.7 -17.0 12.0 41 43 42
-23.4 -17.0 12.0 109 111 111
-23.1 -17.0 12.0 166 166 166
-22.9 -17.0 12.0 145 145 144
-22.6 -17.0 12.0 170 172 172
-22.3 -17.0 12.0 120 122 121
-21.7 -17.0 12.0 138 140 139
-21.5 -17.0 12.0 145 145 144
-21.2 -17.0 12.0 135 135 135
-20.9 -17.0 12.0 195 195 195
-20.6 -17.0 12.0 231 231 231
-20.3 -17.0 12.0 210 210 210
-20.1 -17.0 12.0 244 244 244
-19.8 -17.0 12.0 219 219 219
-19.0 -17.0 12.0 214 216 216
-18.7 -16.9 12.0 144 146 146
-18.4 -16.9 11.9 70 70 70
-18.1 -16.9 12.0 40 40 40
-17.8 -17.0 12.0 28 28 28
-17.5 -16.9 12.0 25 25 25
-17.3 -16.9 11.9 35 34 33
-17.0 -17.0 12.0 111 111 111
-16.7 -17.0 12.0 35 34 33
-16.5 -17.0 12.0 99 98 96
-16.2 -17.0 12.0 32 33 31
-15.9 -17.0 12.0 35 34 33
-15.6 -17.0 12.0 118 120 119
-15.3 -17.0 12.0 148 150 150
-15.1 -17.0 12.0 71 71 71
-14.8 -17.0 12.0 39 39 39
-14.5 -17.0 12.0 69 69 69
-14.2 -17.0 12.0 36 36 36
-14.1 -28.5 20.1 171 173 173
-13.6 -28.4 20.1 163 163 163
-13.3 -28.8 20.3 126 126 126
201.7 -166.4 117.5 207 210 209
198.3 -161.4 114.0 207 210 209
189.5 -152.3 107.5 207 210 209
154.9 -121.3 85.6 207 210 209
159.1 -122.9 86.8 208 211 210
80.1 -32.8 23.2 191 191 191
80.6 -32.8 23.1 191 191 191
80.8 -32.6 23.0 191 191 191
81.1 -32.6 23.0 191 191 191
81.1 -32.3 22.8 188 188 188
80.8 -32.0 22.6 185 185 185
61.3 -23.5 16.6 152 154 154
60.7 -23.1 16.3 151 151 151
67.9 -25.7 18.2 146 146 146
70.9 -26.2 18.5 121 121 121
-25.9 -14.7 10.6 170 171 170
-25.5 -14.7 10.6 169 169 169
-25.0 -14.7 10.6 107 109 109
-24.8 -14.7 10.5 201 203 203
-14.0 -28.9 20.7 182 185 184
187.4 -148.1 106.3 207 210 209
161.0 -125.5 90.1 207 210 209
155.6 -119.8 86.0 207 210 209
162.1 -123.2 88.4 207 210 209
168.8 -126.7 90.9 208 211 210
33.1 -19.9 14.3 196 196 196
33.4 -19.8 14.2 199 199 199
34.1 -19.9 14.3 197 197 197
80.8 -32.3 23.2 192 192 192
81.5 -32.4 23.2 192 192 192
80.8 -31.7 22.7 192 192 192
61.5 -23.2 16.7 152 152 152
69.4 -25.9 18.6 140 140 140
75.4 -27.6 19.8 126 126 126
-25.6 -14.5 10.6 163 163 163
-25.1 -14.5 10.6 118 118 118
-24.8 -14.5 10.6 45 45 45
-14.1 -29.6 21.6 182 185 184
-13.5 -29.4 21.5 158 158 158
208.4 -164.0 119.7 210 210 210
192.8 -149.8 109.3 206 209 208
180.6 -135.0 98.5 207 210 209
188.8 -139.3 101.7 207 210 209
33.1 -19.5 14.3 197 197 197
33.2 -19.4 14.2 200 200 200
33.8 -19.5 14.3 200 200 200
34.1 -19.5 14.3 200 200 200
71.1 -26.0 19.0 131 134 133
71.8 -26.2 19.1 131 134 133
75.9 -27.5 20.0 131 133 132
76.0 -27.3 20.0 130 130 130
-25.8 -14.2 10.5 207 207 207
-25.5 -14.2 10.5 138 138 138
-25.1 -14.1 10.5 103 102 100
-25.0 -14.2 10.5 64 65 63
-24.7 -14.1 10.5 64 65 63
-24.4 -14.1 10.5 43 42 41
-18.3 -14.1 10.5 168 168 168
-14.3 -29.6 21.9 183 183 183
-13.6 -29.1 21.6 169 169 169
196.6 -156.3 116.1 209 209 209
205.6 -161.2 119.7 209 209 209
205.8 -159.2 118.2 210 210 210
199.8 -152.6 113.3 210 210 210
199.1 -148.1 110.0 211 211 211
195.9 -143.9 106.9 211 211 211
199.5 -144.8 107.5 211 211 211
204.4 -146.4 108.7 207 210 209
249.2 -172.1 127.8 208 211 210
33.4 -19.2 14.3 200 200 200
34.3 -19.3 14.3 200 200 200
83.2 -31.7 23.6 191 191 191
82.3 -31.2 23.2 185 185 185
82.2 -31.0 23.0 189 189 189
72.3 -26.1 19.3 134 137 136
72.7 -26.0 19.3 132 135 134
74.6 -26.5 19.7 132 135 134
74.9 -26.5 19.7 131 131 131
-25.8 -14.0 10.6 111 111 111
-25.5 -14.0 10.6 175 175 175
-25.3 -14.0 10.6 103 103 103
-25.1 -14.0 10.6 48 48 48
-24.8 -14.0 10.6 48 48 48
-25.9 -15.4 11.6 129 129 129
-18.5 -14.0 10.6 175 175 175
-18.2 -14.0 10.6 186 188 187
-18.0 -14.0 10.6 199 199 199
-17.7 -14.0 10.6 205 208 207
-17.5 -14.0 10.6 205 208 207
-17.2 -14.0 10.6 210 210 210
-15.7 -30.7 23.2 175 177 177
-14.7 -29.8 22.5 178 178 178
197.8 -154.6 116.8 209 209 209
206.9 -159.5 120.5 209 209 209
207.0 -157.5 119.0 209 209 209
201.0 -150.8 114.0 210 210 210
220.9 -163.6 123.6 210 210 210
206.3 -150.8 114.0 210 210 210
204.0 -147.3 111.3 211 211 211
206.6 -147.3 111.3 211 211 211
206.7 -145.6 110.0 211 211 211
196.7 -136.8 103.4 212 213 212
178.6 -122.7 92.7 212 213 212
250.9 -170.3 128.7 212 213 212
212.0 -142.3 107.5 212 213 212
208.7 -136.8 103.4 214 214 214
84.8 -31.8 24.0 179 182 181
84.7 -31.5 23.8 182 185 184
83.8 -31.0 23.4 178 178 178
86.1 -31.7 23.9 167 167 167
73.1 -25.7 19.4 135 135 135
74.6 -26.1 19.7 133 133 133
75.1 -26.1 19.7 131 131 131
-26.1 -15.2 11.7 33 32 30
-18.0 -15.2 11.7 28 28 28
-15.0 -29.7 22.9 89 89 89
-15.6 -33.4 25.7 57 59 59
200.3 -153.7 118.2 211 211 211
210.9 -159.7 122.8 212 213 212
209.7 -156.7 120.5 209 209 209
205.9 -151.8 116.8 210 210 210
258.0 -187.8 144.4 210 210 210
232.9 -167.3 128.7 210 210 210
216.7 -153.7 118.2 210 210 210
215.5 -150.9 116.1 211 211 211
209.2 -144.7 111.3 211 211 211
202.2 -138.2 106.3 211 211 211
188.8 -127.5 98.0 212 213 212
277.3 -184.9 142.2 212 213 212
218.2 -143.8 110.6 212 213 212
222.1 -143.0 110.0 214 214 214
201.2 -128.1 98.5 214 214 214
124.4 -54.4 41.9 190 190 190
49.2 -17.8 13.7 150 150 150
49.4 -17.7 13.6 138 140 139
74.8 -26.5 20.4 135 135 135
72.7 -25.6 19.7 135 135 135
72.8 -25.3 19.5 134 134 134
73.2 -25.3 19.5 132 132 132
74.5 -25.6 19.7 132 132 132
75.1 -25.6 19.7 129 132 131
-17.6 -35.7 27.9 87 87 87
-16.7 -35.1 27.5 57 59 59
228.6 -167.8 131.4 212 213 212
433.3 -309.7 242.5 210 210 210
398.1 -280.9 220.0 210 210 210
346.8 -241.6 189.2 210 210 210
237.3 -163.2 127.8 211 211 211
449.7 -294.6 230.7 212 213 212
121.4 -52.2 40.9 85 85 85
110.9 -47.3 37.0 95 95 95
49.5 -17.6 13.7 131 134 133
49.8 -17.6 13.7 131 134 133
49.9 -17.5 13.7 131 134 133
72.1 -24.8 19.4 129 129 129
72.2 -24.7 19.3 129 129 129
72.9 -24.8 19.4 129 129 129
74.1 -25.0 19.6 128 131 130
74.9 -25.1 19.7 129 129 129
-19.2 -36.8 29.3 90 90 90
-17.9 -35.6 28.4 89 91 90
-17.2 -35.5 28.3 78 78 78
-16.5 -35.3 28.2 112 112 112
534.5 -343.7 274.1 212 213 212
49.9 -17.4 13.9 112 112 112
50.1 -17.3 13.8 120 120 120
50.4 -17.3 13.8 122 122 122
72.3 -24.3 19.3 122 122 122
72.9 -24.3 19.4 123 123 123
74.1 -24.6 19.6 126 126 126
74.8 -24.6 19.6 129 128 127
-14.7 -12.3 10.0 67 68 66
-14.5 -12.3 10.0 39 41 41
-19.5 -36.7 29.8 90 90 90
-18.8 -36.7 29.8 89 91 90
15.4 -13.6 11.0 212 213 212
519.4 -327.9 266.4 218 218 218
50.3 -17.2 14.0 107 109 109
50.3 -17.1 13.9 112 112 112
72.8 -23.8 19.4 113 114 113
74.1 -24.1 19.6 116 118 117
74.6 -24.1 19.6 128 128 128
-21.5 -38.3 31.7 135 135 135
-20.5 -37.8 31.3 96 96 96
-19.6 -37.4 31.0 91 93 92
15.2 -13.4 11.1 209 209 209
15.4 -13.4 11.1 209 209 209
16.8 -13.1 10.8 208 208 208
576.2 -356.9 295.6 215 215 215
50.8 -16.9 14.0 107 107 107
50.6 -16.8 13.9 109 111 111
73.4 -23.5 19.5 106 106 106
74.1 -23.6 19.6 99 99 99
74.6 -23.6 19.6 147 149 149
-17.1 -13.2 11.2 16 20 17
-16.8 -13.1 11.1 53 53 53
-21.7 -39.3 33.2 96 96 96
-20.7 -41.9 35.4 33 33 33
15.3 -13.0 11.0 209 209 209
15.2 -12.5 10.6 209 209 209
-26.6 -13.3 11.5 69 69 69
-31.1 -16.2 13.9 153 153 153
-30.5 -16.0 13.8 170 171 170
-17.2 -13.0 11.2 58 58 58
-16.9 -12.9 11.1 25 25 25
-23.3 -44.5 38.3 103 105 105
-22.2 -44.1 38.0 86 88 88
16.6 -13.9 11.9 209 209 209
359.2 -121.3 104.5 42 44 43
-32.9 -16.6 14.6 112 112 112
-31.9 -16.2 14.3 172 172 172
-31.1 -16.0 14.1 174 176 176
-31.1 -16.2 14.2 190 190 190
-25.2 -16.2 14.3 66 66 66
-24.3 -16.5 14.5 69 69 69
-23.7 -16.3 14.3 66 66 66
-23.1 -16.1 14.2 177 177 177
-24.4 -44.1 38.8 95 95 95
-23.8 -44.6 39.2 80 83 82
-22.7 -44.2 38.8 110 110 110
16.6 -13.6 11.9 209 209 209
314.7 -103.5 90.9 43 45 45
-24.6 -11.7 10.5 158 158 158
-24.3 -11.7 10.5 186 185 184
-32.9 -16.1 14.4 159 159 159
-32.7 -16.2 14.5 18 22 19
-31.9 -15.9 14.3 4 4 4
-31.5 -15.9 14.3 11 11 11
-31.3 -15.9 14.3 26 26 26
-31.0 -16.0 14.3 77 79 77
-30.6 -15.9 14.3 138 140 139
-25.9 -16.1 14.5 162 161 159
-25.3 -15.9 14.3 85 87 87
-25.0 -16.0 14.3 54 54 54
-24.2 -16.1 14.5 141 143 142
-23.7 -16.0 14.3 176 179 178
-23.3 -15.9 14.3 228 228 228
-24.1 -42.7 38.3 95 98 97
-23.4 -43.0 38.6 108 108 108
-22.5 -42.8 38.4 15 19 16
-24.3 -11.4 10.4 91 91 91
-32.5 -15.7 14.4 14 14 14
-31.9 -15.6 14.3 24 24 24
-31.3 -15.6 14.3 20 23 21
-25.7 -15.6 14.3 67 69 67
-25.2 -15.6 14.3 67 67 67
-24.1 -15.7 14.4 217 220 219
-23.7 -15.6 14.3 227 227 227
-23.2 -15.5 14.2 231 231 231
-24.7 -42.7 39.2 100 100 100
-23.4 -42.1 38.6 109 109 109
-22.4 -41.9 38.4 13 13 13
-25.1 -42.4 39.7 99 99 99
-23.8 -41.9 39.2 112 112 112
-22.8 -41.7 39.0 14 14 14
-33.0 -50.9 48.8 122 124 123
-31.1 -49.7 47.5 95 98 97
-26.8 -44.4 42.5 100 100 100
-24.7 -42.4 40.6 117 119 118
-26.5 -51.5 49.3 14 14 14
16.0 -10.5 10.0 216 216 216
-34.0 -51.3 50.2 117 116 115
-32.9 -57.5 56.3 23 24 23
-30.1 -54.9 53.7 30 29 29
-27.9 -52.9 51.8 113 114 113
-26.2 -52.1 51.0 173 175 175
369.3 -180.6 176.8 182 182 182
-32.6 -53.6 53.7 114 116 115
-32.8 -56.0 56.1 46 47 45
-30.3 -53.9 54.0 22 22 22
-28.6 -53.0 53.1 147 149 149
-26.8 -52.0 52.1 178 178 178
737.3 -356.3 356.9 218 218 218
372.8 -178.1 178.5 182 182 182
-35.1 -56.4 57.8 116 118 117
-34.3 -57.3 58.7 44 45 43
-30.5 -53.0 54.4 22 22 22
-28.7 -52.1 53.4 158 158 158
-27.2 -51.5 52.8 181 181 181
635.8 -318.0 326.1 220 220 220
610.6 -288.2 295.6 222 224 224
356.0 -166.1 170.4 186 186 186
-38.0 -59.6 62.6 112 112 112
-36.3 -59.2 62.2 23 24 23
-32.6 -55.4 58.2 21 21 21
-30.0 -53.1 55.8 166 166 166
585.4 -285.8 300.3 220 220 220
558.2 -257.2 270.2 218 218 218
349.7 -159.3 167.4 186 186 186
264.6 -119.2 125.3 195 195 195
-42.2 -64.6 69.5 109 109 109
-38.4 -61.0 65.7 27 27 27
-35.0 -58.0 62.4 21 21 21
25.9 -14.4 15.5 218 221 220
710.5 -319.3 343.9 221 221 221
387.4 -172.2 185.5 183 183 183
271.8 -119.5 128.7 183 183 183
-59.5 -100.1 110.6 178 178 178
25.6 -13.9 15.3 218 221 220
25.5 -13.6 15.1 218 221 220
25.4 -13.4 14.8 218 221 220
349.7 -151.5 167.4 175 177 177
-10.2 -10.4 11.8 43 43 43
-63.2 -103.6 117.5 182 185 184
25.6 -13.5 15.3 218 221 220
25.7 -13.4 15.1 218 221 220
17.2 -8.8 10.0 218 221 220
359.2 -151.7 172.0 180 180 180
-70.6 -112.8 131.4 176 176 176
-83.7 -146.3 170.4 182 185 184
25.4 -12.9 15.0 218 221 220
17.2 -8.6 10.0 218 221 220
155.6 -37.6 43.8 37 38 37
-22.5 -15.2 18.2 31 32 30
-10.3 -10.0 11.9 46 46 46
-106.1 -158.0 189.2 26 25 24
-118.2 -183.8 220.0 156 159 158
-118.6 -192.7 230.7 179 179 179
-95.8 -162.9 195.0 179 182 181
153.1 -36.0 43.1 40 40 40
-64.5 -25.3 31.1 136 136 136
-60.5 -24.0 29.6 174 174 174
-22.4 -14.8 18.2 32 33 31
-10.3 -9.7 12.0 46 46 46
-145.3 -210.5 259.1 26 25 24
-139.3 -210.5 259.1 160 160 160
-149.7 -236.4 291.0 178 178 178
-129.0 -213.4 262.7 178 181 180
-46.7 -17.2 21.8 143 143 142
-46.4 -17.3 21.9 160 160 160
-46.1 -17.4 22.0 118 118 118
-45.3 -17.3 21.9 136 136 136
-22.4 -14.3 18.1 37 38 37
-21.0 -13.7 17.4 32 33 31
-20.3 -13.5 17.1 31 32 30
-10.2 -9.3 11.8 47 48 47
-195.5 -287.0 363.8 154 154 154
-46.1 -16.5 21.5 146 146 146
-65.9 -24.3 31.8 125 125 125
-22.4 -13.9 18.2 37 38 37
-21.3 -13.5 17.6 32 33 31
-10.2 -9.0 11.8 47 48 47
25.9 -11.9 15.5 222 224 224
17.4 -7.7 10.0 218 218 218
-65.9 -23.6 31.8 118 118 118
-10.1 -8.7 11.7 50 50 50
24.6 -11.1 14.9 222 224 224
25.3 -11.1 15.0 222 224 224
-64.8 -22.5 31.3 57 57 57
-10.2 -8.5 11.8 52 52 50
25.0 -10.8 15.0 222 224 224
25.3 -10.7 14.9 222 224 224
18.9 -7.9 11.0 222 224 224
-57.7 -19.6 28.2 55 55 55
-55.8 -19.2 27.5 50 50 50
25.6 -10.5 15.1 222 224 224
19.0 -7.7 11.1 222 224 224
17.5 -7.0 10.0 219 222 221
-57.6 -18.9 28.1 45 45 45
-55.7 -18.5 27.5 43 45 45
-56.1 -18.9 28.0 67 67 67
-55.6 -18.9 28.1 134 134 134
-10.1 -7.9 11.7 50 50 50
17.7 -6.9 10.3 219 222 221
17.5 -6.8 10.0 219 222 221
-58.6 -18.6 28.6 33 34 32
-56.1 -18.0 27.7 157 157 157
19.4 -7.4 11.5 219 222 221
19.2 -7.3 11.2 219 222 221
17.5 -6.5 10.0 219 222 221
133.2 -38.0 58.6 199 199 199
-79.9 -21.1 33.7 55 55 55
19.3 -7.1 11.4 220 223 222
18.9 -6.8 10.9 220 223 222
133.2 -36.7 58.6 194 194 194
-246.4 -62.0 102.8 70 72 69
-230.3 -58.5 97.0 75 75 75
-245.7 -63.0 104.5 77 77 77
-250.1 -64.8 107.5 91 94 93
-231.8 -60.7 100.6 173 173 171
-212.5 -56.2 93.2 134 137 136
369.3 -106.6 176.8 181 181 181
132.4 -35.1 58.2 195 195 195
391.2 -108.6 187.3 185 185 185
134.1 -34.2 58.9 195 195 195
407.4 -108.5 195.0 188 188 188
130.5 -31.6 56.8 195 195 195
193.6 -43.0 77.2 68 68 68
395.2 -100.9 189.2 173 175 175
134.5 -31.5 59.1 195 195 195
129.0 -29.9 56.1 196 196 196
196.0 -41.7 78.2 72 74 74
197.8 -41.7 78.2 67 67 67
380.0 -92.8 181.9 173 175 175
300.4 -72.5 142.2 64 63 61
129.2 -29.0 56.8 193 193 193
210.0 -42.3 83.0 69 69 69
365.9 -85.3 175.2 172 172 172
109.3 -21.2 43.6 60 63 62
211.8 -40.7 83.7 67 67 67
249.7 -54.8 118.2 91 94 93
177.5 -36.5 78.8 191 191 191
211.8 -38.8 83.7 66 66 66
211.8 -36.9 83.7 58 58 58
21.7 -4.6 11.1 222 222 222
19.0 -4.4 11.2 222 222 222
19.3 -4.4 11.3 222 222 222
19.6 -4.4 11.2 222 222 222
20.1 -4.4 11.2 222 222 222
20.3 -4.4 11.2 222 222 222
21.4 -4.4 11.2 226 226 226
21.6 -4.4 11.2 226 226 226
21.8 -4.4 11.2 226 226 226
22.0 -4.4 11.2 226 226 226
18.8 -4.2 11.3 222 222 222
19.0 -4.2 11.2 222 222 222
19.3 -4.2 11.3 222 222 222
19.6 -4.2 11.3 222 222 222
20.3 -4.2 11.2 224 224 224
21.2 -4.2 11.3 224 224 224
21.4 -4.2 11.2 224 224 224
21.6 -4.2 11.2 224 224 224
21.9 -4.2 11.2 224 224 224
22.0 -4.1 11.2 224 224 224
22.0 -2.9 11.3 222 222 222
22.3 -2.9 11.3 222 222 222
22.0 -2.6 11.3 224 224 224
23.5 -2.4 11.4 216 219 218
22.1 -2.1 11.3 225 225 225
23.5 -2.1 11.4 217 220 219
389.6 -28.2 152.6 63 65 65
22.0 -1.8 11.3 222 222 222
23.5 -1.8 11.4 217 220 219
443.2 -28.3 175.2 62 64 64
416.5 -26.3 163.1 63 65 65
416.7 -26.1 161.7 75 76 76
367.1 -22.8 141.2 77 77 77
22.8 -1.5 10.9 168 168 168
22.9 -1.5 10.8 180 180 180
409.4 -22.2 160.3 64 66 66
402.9 -21.6 156.3 73 73 73
341.6 -18.2 131.4 68 70 69
1226.3 -54.5 394.1 44 46 46
23.4 -1.3 11.3 218 221 220
389.2 -17.7 153.8 64 66 66
377.4 -17.0 147.8 67 69 68
375.0 -16.7 145.5 72 72 72
336.9 -14.9 129.6 65 65 65
-148.8 -4.9 53.7 62 62 62
-147.6 -4.9 53.7 63 63 63
-146.3 -4.9 53.7 65 65 65
-145.1 -4.9 53.7 67 68 66
-143.8 -4.9 53.7 66 66 66
-142.6 -4.9 53.7 66 66 66
-141.3 -4.9 53.7 65 65 65
-140.1 -4.9 53.7 62 62 62
-138.4 -4.9 53.6 63 63 63
24.6 -1.1 12.2 219 222 221
423.6 -15.4 167.4 67 69 68
392.8 -14.1 153.8 68 70 69
396.3 -14.1 153.8 68 71 70
84.4 2.7 22.6 88 88 88
85.1 2.7 22.6 92 92 92
86.1 2.7 22.7 90 90 90
84.8 2.6 22.3 157 157 157
86.4 3.3 23.1 87 87 85
86.3 3.2 22.9 90 90 90
87.7 3.3 23.2 96 99 98
87.5 3.2 23.0 133 133 133
88.3 3.2 23.0 177 177 177
88.4 3.9 23.6 88 88 86
88.2 3.8 23.4 90 90 90
89.3 3.9 23.6 97 100 99
90.2 3.9 23.7 110 110 110
90.4 3.9 23.6 176 176 176
93.9 4.6 24.8 97 100 99
93.3 4.6 24.5 90 90 90
215.8 25.0 82.2 134 134 134
-85.2 12.0 30.3 204 204 204
-84.4 12.0 30.2 209 209 209
-83.8 12.0 30.3 210 210 210
-83.1 12.0 30.3 214 216 216
-82.1 12.0 30.2 213 215 215
-81.4 12.0 30.2 164 164 164
-80.9 12.0 30.2 144 146 146
-80.2 12.0 30.2 126 126 126
-79.5 12.0 30.2 116 116 116
-78.8 12.0 30.2 130 130 130
-78.1 12.0 30.2 128 128 128
-77.2 12.0 30.2 137 137 137
-76.6 12.0 30.2 140 140 140
-76.1 12.0 30.3 132 132 132
-75.2 12.0 30.2 141 141 141
-84.1 12.7 30.4 88 88 88
-82.5 12.7 30.3 96 96 96
-81.8 12.7 30.3 130 130 130
-81.1 12.7 30.3 127 127 127
-80.5 12.7 30.4 130 130 130
-79.8 12.7 30.4 124 127 126
-79.0 12.7 30.3 124 126 125
-78.3 12.7 30.3 126 128 127
-195.8 38.9 69.5 53 52 52
-203.1 40.7 72.8 48 48 48
-201.5 40.7 72.8 44 43 42
-199.8 40.7 72.8 41 41 41
-198.1 40.7 72.8 53 52 52
-194.9 40.4 72.2 148 148 146
-193.0 40.7 72.8 139 139 139
-190.6 40.5 72.5 132 132 132
-182.7 41.8 74.8 150 150 150
-175.4 40.5 72.5 151 151 151
-168.6 39.3 70.3 148 148 148
-170.0 40.8 73.0 166 169 168
-153.7 38.5 68.8 25 24 23
-152.1 38.5 68.8 23 23 22
-155.0 39.6 70.8 26 26 26
-154.1 40.7 72.8 83 82 80
-149.0 39.8 71.1 80 80 80
-144.4 42.3 75.7 82 82 82
-137.7 40.8 73.0 81 81 81
-91.0 27.3 48.9 81 81 81
-134.0 41.8 74.8 87 86 84
-125.1 41.2 73.6 96 96 96
-150.4 50.8 90.9 110 112 111
-123.3 42.3 75.7 119 121 120
-118.7 41.3 73.9 117 117 117
-113.9 40.2 71.9 109 111 111
-97.9 42.0 75.1 120 122 121
-90.8 39.6 70.8 128 128 128
-88.1 39.2 70.1 238 238 238
-89.5 40.5 72.5 237 237 237
-58.9 40.4 72.2 135 135 135
-58.6 41.3 73.9 126 126 126
-56.2 40.8 73.0 118 118 118
-221.0 45.7 78.5 48 48 48
-224.8 46.9 80.5 44 43 42
-222.9 46.9 80.5 41 41 41
-221.0 46.9 80.5 41 41 41
-219.1 46.9 80.5 41 41 41
-216.4 46.7 80.2 149 149 147
-215.4 46.9 80.5 144 144 144
-214.4 47.1 80.8 141 141 141
-211.7 46.9 80.5 134 134 134
-208.0 46.5 79.8 128 128 128
-211.5 47.7 81.9 126 128 127
-208.7 47.5 81.5 131 131 131
-206.8 47.5 81.5 136 136 136
-201.4 46.7 80.2 138 140 139
-200.4 46.9 80.5 140 142 141
-204.7 48.3 83.0 140 142 141
-201.0 47.9 82.2 141 143 142
-194.8 46.9 80.5 142 144 143
-191.7 47.5 81.5 126 126 126
-186.5 46.7 80.2 142 144 143
-187.9 47.5 81.5 139 139 139
-184.4 47.1 80.8 128 128 128
-181.0 46.7 80.2 84 84 84
-177.6 46.3 79.5 81 81 81
-174.3 45.9 78.8 84 83 81
-175.4 46.7 80.2 85 84 82
-172.0 46.3 79.5 86 86 86
-172.4 46.9 80.5 94 93 92
-167.6 46.1 79.1 99 101 101
-171.1 48.1 82.6 111 113 112
-164.9 46.9 80.5 119 121 120
-761.4 229.5 394.1 117 117 117
-156.3 47.7 81.9 106 106 106
-149.9 46.3 79.5 101 103 103
-152.5 47.7 81.9 98 98 98
-146.8 46.5 79.8 96 96 96
-148.1 47.5 81.5 95 94 93
-146.2 47.5 81.5 96 96 96
-145.5 47.9 82.2 97 97 97
-146.2 48.7 83.7 100 100 100
-144.9 49.0 84.1 105 105 105
-135.7 46.5 79.8 109 109 109
-137.8 48.5 83.3 128 128 128
-132.3 47.3 81.2 131 133 132
-128.2 46.5 79.8 131 133 132
-124.3 45.7 78.5 126 126 126
-461.2 172.1 295.6 124 124 124
-116.1 49.2 84.4 88 88 86
-113.1 48.7 83.7 85 85 85
-110.7 48.5 83.3 75 76 76
-105.0 46.9 80.5 84 84 84
-100.6 45.7 78.5 84 84 84
-100.4 46.5 79.8 220 223 222
-98.6 46.5 79.8 229 229 229
-97.9 47.1 80.8 230 233 232
-94.9 46.5 79.8 113 114 113
-322.4 164.4 282.3 66 67 65
-330.6 172.1 295.6 67 67 67
-338.0 183.6 315.3 66 66 66
-86.3 47.9 82.2 67 68 66
-82.6 46.9 80.5 65 65 65
-69.1 47.9 82.2 140 142 141
-67.2 47.9 82.2 128 128 128
-65.2 47.9 82.2 122 122 122
-61.5 46.5 79.8 111 113 112
-61.7 48.1 82.6 107 109 109
43.0 47.1 80.8 69 69 69
44.3 46.5 79.8 25 25 25
-981.3 238.7 394.1 128 131 130
-844.6 233.8 386.0 93 92 91
-525.7 184.8 305.1 105 105 105
-382.7 216.1 356.9 67 67 67
-255.1 179.0 295.6 132 132 132
-226.9 163.7 270.2 101 103 103
-162.1 121.4 193.0 150 150 150
-293.7 128.5 197.0 165 165 165
-433.6 195.8 300.3 165 165 165
-320.0 199.0 305.1 130 130 130
-289.6 184.1 282.3 136 136 136
-195.5 127.2 195.0 108 108 108
-189.0 125.9 193.0 148 148 148
-287.0 195.8 300.3 150 152 152
-177.4 127.2 195.0 130 130 130
-169.0 131.2 201.2 162 165 164
-159.2 127.2 195.0 75 76 76
117.6 132.6 203.4 61 61 61
118.5 128.5 197.0 69 71 69
19.2 14.8 10.6 36 36 34
-223.8 216.5 150.1 41 43 41
-216.8 213.2 147.8 40 40 40
-213.4 213.2 147.8 30 34 31
-205.2 208.3 144.4 20 23 21
-190.8 176.6 120.5 75 77 75
-158.3 166.0 113.3 28 28 28
-144.4 154.0 105.1 41 43 41
-223.8 155.6 104.5 92 95 94
-221.4 155.6 104.5 41 42 40
-220.1 156.5 105.1 25 25 25
-216.5 155.6 104.5 30 30 30
-215.3 156.5 105.1 30 34 31
-214.0 157.3 105.7 37 38 37
-212.7 158.2 106.3 49 49 49
-185.2 160.0 107.5 207 210 209
-176.7 154.7 103.9 154 154 154
-170.5 151.4 101.7 67 67 67
-174.7 157.3 105.7 89 91 89
-173.2 158.2 106.3 67 67 67
-167.9 155.6 104.5 52 54 53
-163.7 153.9 103.4 67 67 65
-148.5 158.2 106.3 30 34 31
-137.5 149.0 100.1 41 43 41
-141.2 155.6 104.5 53 52 52
-141.1 158.2 106.3 57 57 55
-138.6 158.2 106.3 63 63 63
-133.9 155.6 104.5 68 68 68
34.9 16.1 10.2 89 89 89
36.8 16.1 10.2 108 110 110
37.0 16.1 10.2 108 110 110
37.8 16.1 10.2 123 123 123
34.7 16.4 10.2 80 80 80
35.0 16.5 10.3 80 80 80
35.2 16.4 10.2 89 89 89
35.5 16.4 10.2 95 94 93
35.7 16.4 10.2 97 96 94
35.9 16.4 10.2 99 99 99
36.3 16.5 10.3 102 102 102
36.5 16.5 10.3 104 104 104
36.5 16.4 10.2 107 107 107
36.9 16.4 10.2 107 107 107
37.1 16.4 10.2 107 107 107
37.3 16.4 10.2 107 107 107
37.6 16.4 10.2 111 113 112
38.1 16.4 10.2 120 120 120
38.3 16.5 10.3 67 67 67
38.5 16.4 10.2 60 63 62
38.9 16.5 10.3 63 65 65
39.1 16.5 10.3 78 77 76
19.1 17.0 10.4 78 78 78
34.8 16.7 10.3 86 86 86
35.0 16.7 10.3 83 83 83
35.3 16.7 10.3 86 86 86
35.6 16.7 10.3 95 94 93
35.8 16.7 10.3 97 96 94
36.0 16.7 10.3 97 96 94
36.5 16.7 10.3 102 102 102
36.9 16.7 10.3 107 107 107
37.2 16.7 10.3 107 107 107
37.4 16.7 10.3 107 107 107
38.9 16.7 10.3 78 77 76
39.1 16.7 10.3 78 77 76
35.0 16.9 10.2 86 86 86
35.7 16.9 10.2 95 94 93
35.9 16.9 10.2 97 96 94
36.5 16.9 10.3 102 102 102
36.5 16.9 10.2 104 104 104
37.1 16.9 10.2 107 107 107
37.3 16.9 10.2 107 107 107
