ply
format ascii 1.0
element vertex 2890
property float x
property float y
property float z
property uchar red
property uchar green
property uchar blue
end_header
149.4 -351.6 140.1 164 164 164
159.2 -351.6 140.1 162 162 162
161.2 -349.0 139.1 162 162 162
165.7 -351.6 140.1 162 162 162
172.8 -359.6 143.3 163 163 163
169.7 -346.4 138.1 163 163 163
172.9 -346.4 138.1 163 163 163
178.7 -351.6 140.1 160 160 160
182.0 -351.6 140.1 160 160 160
181.2 -343.9 137.1 160 160 160
202.2 -370.8 147.8 160 160 160
196.5 -354.2 141.2 160 160 160
193.9 -343.9 137.1 160 160 160
195.7 -341.4 136.1 161 161 161
198.9 -341.4 136.1 156 159 158
91.9 -150.7 60.1 156 159 158
93.9 -151.6 60.4 156 159 158
96.9 -154.1 61.4 154 156 156
98.3 -154.1 61.4 154 156 156
99.4 -153.6 61.2 158 161 160
37.9 -49.9 19.9 158 158 158
38.0 -49.5 19.7 158 158 158
38.5 -49.5 19.7 159 159 159
38.9 -49.4 19.7 159 159 159
39.4 -49.5 19.7 157 157 157
39.9 -49.5 19.7 156 156 156
54.7 -183.7 73.9 166 166 166
56.5 -183.7 73.9 166 166 166
58.2 -183.7 73.9 166 166 166
59.9 -183.7 73.9 166 166 166
61.4 -183.0 73.6 166 166 166
63.1 -183.0 73.6 166 166 166
65.0 -183.7 73.9 166 166 166
66.8 -183.7 73.9 166 166 166
68.5 -183.7 73.9 166 166 166
70.2 -183.7 73.9 166 166 166
71.9 -183.7 73.9 167 167 167
73.6 -183.7 73.9 164 164 164
75.4 -183.7 73.9 164 164 164
77.1 -183.7 73.9 164 164 164
78.8 -183.7 73.9 164 164 164
80.2 -183.0 73.6 164 164 164
81.6 -182.3 73.3 162 162 162
83.6 -183.0 73.6 162 162 162
85.7 -183.7 73.9 162 162 162
87.4 -183.7 73.9 162 162 162
88.7 -183.0 73.6 163 163 163
139.2 -281.6 113.3 163 163 163
92.5 -183.7 73.9 163 163 163
93.2 -181.6 73.0 163 163 163
95.2 -182.3 73.3 163 163 163
96.9 -182.3 73.3 163 163 163
99.0 -183.0 73.6 163 163 163
179.8 -326.5 131.4 163 163 163
165.6 -295.7 119.0 160 160 160
164.2 -288.5 116.1 160 160 160
158.2 -273.4 110.0 161 161 161
114.4 -183.0 73.6 161 161 161
116.1 -183.0 73.6 157 160 159
117.8 -183.0 73.6 157 160 159
39.7 -51.2 20.6 158 158 158
90.0 -173.8 70.6 163 163 163
100.3 -180.6 73.3 163 163 163
104.1 -184.1 74.8 163 163 163
104.1 -181.3 73.6 164 164 164
103.8 -177.8 72.2 164 164 164
108.4 -179.9 73.0 164 164 164
115.2 -179.9 73.0 162 162 162
116.5 -179.2 72.8 162 162 162
112.1 -170.0 69.0 163 163 163
80.4 -104.0 42.2 159 162 161
81.0 -103.5 42.0 160 163 162
71.9 -51.2 20.8 96 99 98
58.4 -38.9 15.8 197 200 199
58.6 -38.9 15.8 204 204 204
59.3 -39.1 15.9 163 166 165
59.4 -38.9 15.8 163 166 165
59.6 -38.8 15.7 212 213 212
59.3 -38.3 15.6 191 191 191
59.0 -37.9 15.4 197 200 199
18.6 -103.5 42.4 162 162 162
19.5 -103.2 42.3 158 158 158
20.5 -103.2 42.3 161 161 161
21.5 -103.2 42.3 163 163 163
22.5 -103.2 42.3 163 163 163
23.5 -103.2 42.3 166 166 166
24.5 -103.2 42.3 165 165 165
25.4 -103.2 42.3 165 165 165
26.4 -103.2 42.3 165 165 165
27.4 -103.2 42.3 165 165 165
28.4 -103.2 42.3 165 165 165
29.4 -103.2 42.3 165 165 165
30.4 -103.2 42.3 166 169 168
31.4 -103.2 42.3 168 170 169
32.3 -103.2 42.3 166 166 166
33.5 -103.7 42.5 166 166 166
34.4 -103.5 42.4 166 166 166
35.3 -103.2 42.3 166 166 166
36.3 -103.2 42.3 166 166 166
37.3 -103.2 42.3 166 166 166
38.2 -103.2 42.3 166 166 166
39.3 -103.5 42.4 166 166 166
40.3 -103.5 42.4 164 164 164
41.2 -103.2 42.3 164 164 164
42.2 -103.2 42.3 164 164 164
43.2 -103.2 42.3 164 164 164
44.2 -103.5 42.4 164 164 164
45.1 -103.2 42.3 164 164 164
46.2 -103.5 42.4 164 164 164
47.2 -103.5 42.4 164 164 164
48.1 -103.2 42.3 164 164 164
49.1 -103.2 42.3 164 164 164
50.0 -103.2 42.3 164 164 164
51.1 -103.5 42.4 165 165 165
52.2 -103.7 42.5 165 165 165
53.1 -103.5 42.4 165 165 165
53.9 -103.0 42.2 165 165 165
55.2 -103.7 42.5 165 165 165
55.9 -103.2 42.3 165 165 165
57.2 -103.7 42.5 163 163 163
58.0 -103.5 42.4 163 163 163
61.8 -103.2 42.3 164 164 164
66.2 -103.9 42.6 164 164 164
122.8 -189.9 77.8 165 165 165
122.6 -186.8 76.6 165 165 165
81.9 -106.3 43.6 159 162 161
82.6 -105.8 43.4 159 162 161
81.2 -102.8 42.1 160 163 162
766.2 -904.8 370.9 158 158 158
99.6 -72.7 29.8 104 103 101
69.7 -49.1 20.1 96 99 98
69.1 -48.4 19.8 95 95 95
59.1 -38.5 15.8 207 207 207
58.6 -38.0 15.6 209 209 209
59.4 -38.3 15.7 204 204 204
58.5 -37.5 15.4 197 200 199
58.4 -37.2 15.2 212 213 212
19.1 -99.8 41.3 162 162 162
20.0 -99.8 41.3 161 161 161
21.0 -99.8 41.3 163 163 163
22.0 -99.8 41.3 166 166 166
22.9 -99.8 41.3 163 163 163
23.9 -99.8 41.3 165 165 165
24.8 -99.8 41.3 165 165 165
25.8 -99.8 41.3 166 169 168
26.8 -99.8 41.3 166 169 168
27.7 -99.8 41.3 166 169 168
28.7 -99.8 41.3 166 169 168
29.6 -99.8 41.3 166 169 168
30.6 -99.8 41.3 168 170 169
31.4 -99.4 41.1 166 166 166
33.0 -101.3 41.9 166 166 166
34.0 -101.3 41.9 166 166 166
34.4 -99.8 41.3 166 166 166
35.4 -99.8 41.3 166 166 166
36.3 -99.6 41.2 166 166 166
37.2 -99.6 41.2 166 166 166
38.4 -100.0 41.4 166 166 166
39.2 -99.8 41.3 164 164 164
40.0 -99.4 41.1 167 167 167
41.1 -99.6 41.2 164 164 164
42.1 -99.8 41.3 164 164 164
43.3 -100.2 41.5 164 164 164
43.8 -99.4 41.1 164 164 164
45.0 -99.8 41.3 164 164 164
46.6 -101.1 41.9 164 164 164
47.1 -100.2 41.5 164 164 164
48.1 -100.2 41.5 162 162 162
48.7 -99.6 41.2 164 164 164
49.7 -99.6 41.2 165 165 165
50.9 -100.0 41.4 163 163 163
52.1 -100.4 41.6 165 165 165
52.7 -99.8 41.3 168 168 168
53.9 -100.2 41.5 165 165 165
54.1 -98.9 40.9 165 165 165
55.8 -100.2 41.5 168 168 168
57.0 -100.7 41.7 168 168 168
58.4 -101.3 41.9 168 168 168
60.0 -102.5 42.4 166 166 166
60.7 -102.0 42.2 166 166 166
60.2 -99.6 41.2 166 166 166
65.5 -103.4 42.8 166 166 166
65.1 -101.1 41.9 166 166 166
127.2 -192.0 79.5 167 167 167
73.8 -97.2 40.2 161 164 163
73.3 -95.4 39.5 162 165 164
81.0 -104.1 43.1 159 162 161
82.4 -104.6 43.3 159 162 161
80.8 -101.3 41.9 160 163 162
95.0 -68.6 28.4 98 100 100
90.1 -64.6 26.8 98 100 100
66.1 -45.8 19.0 95 95 95
56.4 -36.2 15.0 207 207 207
55.4 -35.3 14.6 183 186 185
55.8 -35.4 14.6 216 216 216
55.9 -35.2 14.6 216 216 216
13.7 -83.4 34.8 159 159 159
14.4 -82.7 34.6 162 162 162
16.9 -83.4 34.8 163 163 163
17.7 -83.4 34.8 166 166 166
18.5 -83.4 34.8 168 170 169
19.3 -83.4 34.8 166 169 168
20.1 -83.4 34.8 166 169 168
21.0 -83.4 34.8 166 169 168
21.8 -83.4 34.8 166 169 168
22.6 -83.4 34.8 170 172 172
23.4 -83.4 34.8 170 172 172
24.2 -83.4 34.8 166 169 168
25.0 -83.4 34.8 166 169 168
25.8 -83.4 34.8 166 166 166
26.6 -83.4 34.8 166 166 166
27.4 -83.2 34.8 166 166 166
28.3 -83.7 35.0 166 166 166
29.2 -83.7 35.0 166 166 166
29.9 -83.5 34.9 166 166 166
30.7 -83.4 34.8 166 166 166
31.4 -83.2 34.8 166 166 166
32.2 -83.2 34.8 166 166 166
33.0 -83.2 34.8 166 166 166
33.9 -83.4 34.8 167 167 167
34.7 -83.2 34.8 167 167 167
35.5 -83.2 34.8 167 167 167
36.4 -83.5 34.9 167 167 167
37.2 -83.5 34.9 167 167 167
37.9 -83.2 34.8 167 167 167
38.7 -83.2 34.8 167 167 167
39.8 -83.8 35.0 167 167 167
40.5 -83.7 35.0 167 167 167
41.3 -83.7 35.0 168 168 168
41.9 -83.2 34.8 168 168 168
42.7 -83.2 34.8 168 168 168
44.0 -84.1 35.2 168 168 168
44.8 -84.0 35.1 170 172 172
45.4 -83.7 35.0 170 172 172
46.1 -83.5 34.9 170 172 172
46.7 -83.1 34.7 170 172 172
47.1 -82.3 34.4 170 172 172
49.4 -84.9 35.5 170 172 172
50.3 -85.1 35.6 171 173 173
51.0 -84.9 35.5 169 169 169
51.0 -83.5 34.9 169 169 169
51.7 -83.4 34.8 169 169 169
55.7 -85.7 35.8 169 169 169
54.5 -82.6 34.5 170 171 170
132.2 -197.7 82.6 170 171 170
125.9 -185.5 77.5 170 171 170
86.5 -110.1 46.0 167 167 167
86.1 -108.3 45.3 162 165 164
83.6 -103.8 43.4 160 163 162
92.6 -66.3 27.7 98 100 100
87.6 -62.3 26.0 98 100 100
62.7 -42.8 17.9 95 95 95
54.0 -34.1 14.3 216 216 216
55.3 -34.5 14.4 218 218 218
15.6 -80.0 33.8 164 164 164
16.4 -80.2 33.8 166 166 166
17.2 -80.2 33.8 166 166 166
18.0 -80.2 33.8 168 170 169
18.8 -80.2 33.8 166 169 168
19.6 -80.2 33.8 166 169 168
20.4 -80.2 33.8 166 169 168
21.1 -80.2 33.8 166 169 168
21.9 -80.2 33.8 166 169 168
22.7 -80.2 33.8 166 169 168
23.5 -80.2 33.8 166 169 168
24.3 -80.2 33.8 166 166 166
25.1 -80.2 33.8 166 166 166
25.9 -80.2 33.8 166 166 166
26.6 -80.0 33.8 166 166 166
27.4 -80.2 33.8 166 166 166
28.2 -80.0 33.8 168 170 169
29.0 -80.2 33.8 168 170 169
29.7 -80.0 33.8 168 170 169
30.5 -80.0 33.8 168 170 169
31.3 -80.0 33.8 168 170 169
32.0 -79.9 33.7 169 171 170
32.9 -80.0 33.8 169 171 170
33.7 -80.0 33.8 169 171 170
34.4 -80.0 33.8 169 171 170
35.2 -80.0 33.8 169 171 170
36.0 -79.9 33.7 169 171 170
36.8 -80.0 33.8 169 171 170
37.6 -80.0 33.8 167 167 167
38.5 -80.3 33.9 169 171 170
39.2 -80.2 33.8 169 171 170
39.9 -79.9 33.7 173 175 175
40.4 -79.3 33.5 170 172 172
41.2 -79.5 33.5 170 172 172
42.3 -80.0 33.8 170 172 172
43.4 -80.6 34.0 170 172 172
44.1 -80.5 34.0 170 172 172
44.8 -80.3 33.9 170 172 172
45.3 -79.8 33.7 170 172 172
45.4 -78.6 33.2 170 172 172
47.3 -80.6 34.0 170 172 172
48.3 -80.9 34.1 173 175 175
49.3 -81.2 34.3 171 173 173
49.2 -79.8 33.7 171 173 173
50.2 -80.2 33.8 174 176 176
54.0 -82.2 34.7 171 173 173
52.9 -79.5 33.5 172 174 174
41.0 -51.1 21.6 176 176 176
40.8 -50.3 21.2 170 171 170
85.0 -59.8 25.3 98 100 100
82.0 -57.3 24.2 98 100 100
60.3 -40.5 17.1 95 95 95
59.9 -39.9 16.8 95 95 95
35.8 -71.1 30.3 177 177 177
36.4 -70.8 30.2 170 172 172
35.5 -67.9 28.9 178 178 178
36.3 -68.0 29.0 178 178 178
39.2 -70.9 30.2 178 178 178
40.3 -70.2 29.9 181 181 181
40.6 -69.7 29.7 181 181 181
39.8 -67.1 28.6 173 175 175
42.5 -70.5 30.0 181 181 181
43.6 -71.1 30.3 179 179 179
43.9 -70.6 30.1 179 179 179
136.9 -203.6 86.8 180 180 180
139.5 -204.5 87.2 175 177 177
160.0 -231.2 98.5 175 177 177
162.3 -231.2 98.5 181 181 181
151.9 -213.4 90.9 173 175 175
141.8 -196.4 83.7 173 175 175
77.6 -54.1 23.0 98 100 100
76.2 -52.4 22.3 98 100 100
56.3 -36.9 15.7 95 95 95
56.0 -36.5 15.6 92 92 92
33.9 -65.4 28.1 203 203 203
34.0 -64.3 27.7 197 197 197
38.6 -65.6 28.2 200 200 200
38.1 -63.6 27.4 203 203 203
40.0 -65.7 28.3 200 200 200
42.1 -67.0 28.8 200 200 200
41.7 -65.3 28.1 200 200 200
141.3 -214.4 92.3 200 200 200
133.2 -196.2 84.4 202 202 202
137.6 -199.7 86.0 198 198 198
135.9 -194.4 83.7 198 198 198
158.2 -223.1 96.0 199 199 199
150.5 -209.3 90.1 203 203 203
136.3 -187.0 80.5 203 203 203
24.9 -31.5 13.6 205 205 205
71.1 -49.0 21.1 98 100 100
77.1 -52.4 22.6 98 100 100
71.8 -48.6 20.9 98 100 100
68.9 -46.3 19.9 96 99 98
41.3 -25.7 11.0 205 205 205
41.2 -25.4 10.9 197 200 199
41.8 -25.7 11.0 216 216 216
37.7 -62.2 27.1 206 206 206
38.7 -62.9 27.3 203 203 203
44.3 -69.7 30.3 203 203 203
42.2 -65.4 28.4 203 203 203
41.4 -63.1 27.5 203 203 203
125.9 -183.6 79.8 204 204 204
133.4 -191.6 83.3 204 204 204
129.6 -183.6 79.8 202 202 202
151.3 -211.2 91.8 203 203 203
142.3 -196.0 85.2 205 205 205
135.2 -183.6 79.8 205 205 205
27.6 -36.9 16.1 206 206 206
24.7 -31.0 13.5 205 205 205
24.6 -30.5 13.3 205 205 205
68.9 -47.1 20.5 104 103 101
67.5 -45.8 19.9 98 100 100
69.5 -46.5 20.2 98 100 100
67.0 -44.5 19.4 98 100 100
39.7 -24.1 10.5 173 173 173
40.1 -24.2 10.5 216 216 216
40.1 -24.0 10.5 218 218 218
39.6 -65.9 29.0 206 206 206
38.8 -63.5 27.9 206 206 206
44.2 -68.9 30.3 206 206 206
42.8 -65.6 28.8 206 206 206
42.1 -63.5 27.9 203 203 203
123.8 -178.7 78.5 204 204 204
129.4 -184.0 80.8 204 204 204
128.0 -179.4 78.8 204 204 204
134.9 -186.4 81.9 205 205 205
132.8 -180.9 79.5 205 205 205
27.6 -36.6 16.1 206 206 206
27.3 -35.6 15.7 206 206 206
24.7 -30.7 13.5 207 207 207
37.2 -60.3 26.8 206 206 206
37.4 -59.5 26.4 206 206 206
42.6 -64.7 28.7 206 206 206
41.6 -62.1 27.6 206 206 206
41.0 -60.3 26.8 206 206 206
122.8 -175.4 77.8 209 209 209
127.2 -179.1 79.5 207 207 207
126.4 -175.4 77.8 207 207 207
127.2 -174.0 77.2 205 205 205
127.4 -171.9 76.3 205 205 205
27.6 -36.3 16.1 206 206 206
27.1 -35.1 15.6 206 206 206
25.2 -31.3 13.9 207 207 207
24.7 -30.4 13.5 207 207 207
223.9 -164.6 73.0 125 125 125
176.2 -127.6 56.6 120 120 120
46.0 -71.4 32.0 209 209 209
44.2 -67.4 30.2 209 209 209
42.8 -64.3 28.8 206 206 206
41.9 -62.0 27.8 206 206 206
41.0 -59.7 26.8 209 209 209
124.3 -175.8 78.8 206 206 206
128.9 -179.5 80.5 206 206 206
126.4 -173.6 77.8 207 207 207
128.8 -174.3 78.2 207 207 207
123.4 -164.8 73.9 207 207 207
27.6 -35.9 16.1 208 208 208
27.1 -34.7 15.6 208 208 208
26.8 -33.9 15.2 206 206 206
25.5 -31.4 14.1 206 206 206
24.7 -30.0 13.5 207 207 207
24.6 -29.5 13.2 210 210 210
42.6 -63.3 28.7 208 208 208
42.2 -61.8 28.0 208 208 208
359.5 -503.0 227.9 209 209 209
137.6 -189.8 86.0 206 206 206
133.6 -181.5 82.2 206 206 206
27.7 -35.6 16.2 207 207 207
27.0 -34.2 15.5 208 208 208
26.6 -33.3 15.1 208 208 208
26.1 -32.2 14.6 206 206 206
44.6 -66.6 30.5 207 207 207
42.7 -62.8 28.7 207 207 207
41.6 -60.3 27.6 208 208 208
40.3 -57.5 26.3 208 208 208
135.9 -182.8 83.7 206 206 206
27.4 -34.9 16.0 207 207 207
27.1 -34.0 15.6 207 207 207
26.8 -33.1 15.2 207 207 207
23.3 -26.1 12.0 207 207 207
-26.5 -21.6 10.0 47 48 47
-25.6 -21.6 10.0 45 44 43
-25.4 -21.6 10.0 45 44 43
-24.5 -21.6 10.0 42 42 42
42.7 -62.1 28.7 207 207 207
41.6 -59.6 27.6 207 207 207
40.5 -57.1 26.4 207 207 207
27.1 -33.6 15.6 206 206 206
27.1 -33.1 15.3 207 207 207
26.2 -31.7 14.7 207 207 207
23.4 -25.9 12.0 206 206 206
23.5 -25.8 11.9 207 207 207
-9.7 -22.8 10.7 135 135 135
-9.4 -22.7 10.6 137 139 138
-9.2 -22.8 10.7 139 138 137
-6.9 -22.7 10.6 145 145 144
-6.7 -22.7 10.6 148 148 148
44.3 -64.8 30.3 203 203 203
42.7 -61.4 28.7 206 206 206
41.6 -58.9 27.6 206 206 206
40.5 -56.5 26.4 206 206 206
27.0 -33.2 15.5 206 206 206
26.7 -32.4 15.2 206 206 206
26.2 -31.4 14.7 206 206 206
25.6 -30.2 14.1 207 207 207
23.5 -25.8 12.1 206 206 206
23.7 -25.7 12.0 206 206 206
-33.5 -27.1 12.8 48 48 48
-33.1 -27.1 12.8 48 48 48
-32.4 -27.0 12.8 48 48 48
-31.9 -27.1 12.8 48 48 48
-31.6 -27.1 12.8 46 46 44
-31.3 -27.1 12.8 46 46 44
-9.6 -23.4 11.1 134 137 136
43.7 -62.3 29.5 206 206 206
41.6 -58.3 27.6 206 206 206
40.2 -55.5 26.3 206 206 206
26.7 -32.0 15.1 208 208 208
26.3 -31.2 14.7 206 206 206
25.7 -30.0 14.2 206 206 206
23.5 -25.5 12.0 205 205 205
23.7 -25.4 12.0 205 205 205
24.1 -25.5 12.1 206 206 206
-36.2 -26.9 12.9 49 49 49
-35.7 -26.9 12.9 49 49 49
-35.3 -26.9 12.9 51 51 51
-34.8 -26.9 12.9 53 53 53
-33.7 -27.0 12.9 51 51 51
-33.2 -26.9 12.9 51 51 51
-33.0 -26.9 12.9 51 51 51
-32.6 -26.9 12.9 51 51 51
-32.3 -26.9 12.9 49 49 49
-31.5 -26.9 12.9 47 46 45
-31.2 -26.9 12.9 47 46 45
-30.9 -26.9 12.9 44 44 44
-30.6 -26.9 12.9 44 44 44
-30.3 -26.9 12.9 44 44 44
-29.7 -26.9 12.9 44 44 44
-29.4 -26.9 12.9 44 44 44
-27.9 -27.0 12.9 42 42 42
-27.6 -26.9 12.9 39 39 39
-27.3 -26.9 12.9 42 42 42
-27.0 -26.9 12.9 42 42 42
-26.7 -26.9 12.9 42 42 42
-26.4 -27.0 12.9 42 42 42
-26.1 -26.9 12.9 42 42 42
-25.7 -26.9 12.9 44 44 44
-24.1 -27.4 13.1 88 90 89
-23.3 -26.9 12.9 89 91 90
-23.0 -26.8 12.8 95 95 95
-22.8 -26.9 12.9 97 100 99
-22.5 -27.0 12.9 97 100 99
-22.1 -26.8 12.8 97 100 99
-11.1 -26.9 12.9 128 130 129
9.8 -26.9 12.9 208 208 208
41.6 -57.7 27.6 208 208 208
40.5 -55.3 26.5 208 208 208
26.7 -31.7 15.1 207 207 207
27.5 -31.3 15.0 206 206 206
26.8 -29.8 14.2 206 206 206
23.8 -24.7 11.8 205 205 205
-41.9 -30.7 14.9 52 52 52
-41.6 -30.8 14.9 50 50 50
-41.3 -30.8 14.9 50 50 50
-40.9 -30.8 14.9 54 54 54
-40.6 -30.8 14.9 54 54 54
-40.3 -30.8 14.9 54 54 54
-39.9 -30.8 14.9 54 54 54
-39.4 -30.7 14.9 54 54 54
-39.2 -30.8 14.9 54 54 54
-38.7 -30.7 14.9 54 54 54
-38.6 -30.9 14.9 54 54 54
-38.2 -30.8 14.9 52 52 52
-37.8 -30.8 14.9 52 52 52
-37.5 -30.8 14.9 50 50 50
-37.1 -30.8 14.9 50 50 50
-36.7 -30.8 14.9 50 50 50
-36.4 -30.8 14.9 48 47 46
-36.0 -30.8 14.9 48 47 46
-35.7 -30.8 14.9 45 45 45
-35.4 -30.8 14.9 45 45 45
-35.0 -30.8 14.9 45 45 45
-34.7 -30.8 14.9 45 45 45
-34.3 -30.8 14.9 45 45 45
-34.0 -30.8 14.9 45 45 45
-33.7 -30.8 14.9 45 45 45
-33.3 -30.8 14.9 45 45 45
-33.0 -30.8 14.9 45 45 45
-32.6 -30.8 14.9 45 45 45
-32.3 -30.8 14.9 45 45 45
-32.0 -30.9 14.9 42 43 42
-31.5 -30.8 14.9 42 43 42
-31.2 -30.8 14.9 42 43 42
-30.8 -30.8 14.9 42 43 42
-30.7 -30.9 15.0 42 43 42
-30.2 -30.9 14.9 42 43 42
-29.7 -30.7 14.9 41 41 41
-29.5 -30.8 14.9 41 41 41
-29.1 -30.8 14.9 41 41 41
-28.8 -30.8 14.9 45 45 45
-28.5 -30.8 14.9 48 47 46
-28.0 -30.7 14.9 46 46 46
-27.8 -30.8 14.9 42 42 42
-27.5 -30.9 15.0 67 69 68
-27.0 -30.8 14.9 87 87 87
-26.5 -30.6 14.8 98 98 98
-26.4 -30.8 14.9 90 92 91
-26.1 -30.8 14.9 95 95 95
-25.6 -30.7 14.8 97 97 97
-25.2 -30.7 14.8 99 99 99
-15.6 -30.8 14.9 111 113 112
-9.5 -22.9 11.1 112 112 112
-12.5 -30.7 14.9 111 111 111
-9.1 -23.6 11.4 146 146 146
10.4 -30.9 15.0 208 208 208
10.7 -30.9 14.9 208 208 208
11.1 -30.9 14.9 208 208 208
11.4 -30.9 14.9 208 208 208
11.8 -30.9 14.9 208 208 208
12.1 -30.9 14.9 208 208 208
12.5 -30.9 14.9 208 208 208
12.8 -30.9 14.9 208 208 208
13.1 -30.9 14.9 208 208 208
13.5 -30.9 14.9 208 208 208
13.8 -30.9 14.9 208 208 208
14.2 -30.9 14.9 208 208 208
17.3 -30.9 15.0 208 208 208
17.6 -30.8 14.9 208 208 208
18.0 -30.9 14.9 208 208 208
18.4 -30.9 15.0 208 208 208
18.7 -30.8 14.9 208 208 208
19.1 -30.9 15.0 208 208 208
19.5 -31.0 15.0 208 208 208
42.3 -57.9 28.0 208 208 208
41.3 -55.7 26.9 208 208 208
26.7 -30.9 14.9 207 207 207
27.9 -31.5 15.2 205 205 205
27.7 -30.9 14.9 205 205 205
26.8 -29.4 14.2 205 205 205
23.7 -24.6 11.9 204 204 204
23.9 -24.4 11.8 205 205 205
-43.7 -31.7 15.5 54 54 54
-41.9 -31.7 15.5 54 54 54
-39.7 -31.7 15.5 53 52 52
-39.3 -31.7 15.5 53 52 52
-39.0 -31.7 15.5 53 52 52
-34.3 -31.7 15.5 43 43 43
-33.5 -31.7 15.5 46 46 46
-33.2 -31.7 15.5 46 46 46
-32.8 -31.7 15.5 46 46 46
-32.5 -31.7 15.5 43 43 43
-32.2 -31.7 15.5 43 43 43
-31.8 -31.7 15.5 43 43 43
-31.4 -31.7 15.5 42 42 42
-28.4 -31.6 15.5 47 47 47
-28.1 -31.6 15.5 47 47 47
-26.8 -30.6 15.0 50 49 48
-16.1 -31.3 15.3 103 103 103
-15.3 -30.6 15.0 93 96 95
-9.1 -23.5 11.5 103 103 103
10.8 -31.7 15.5 204 204 204
11.1 -31.7 15.5 207 207 207
11.5 -31.7 15.5 207 207 207
11.8 -31.7 15.5 207 207 207
12.2 -31.7 15.5 207 207 207
12.6 -31.7 15.5 207 207 207
13.3 -31.7 15.5 207 207 207
13.6 -31.7 15.5 207 207 207
14.0 -31.7 15.5 207 207 207
17.9 -31.6 15.5 207 207 207
18.3 -31.6 15.5 207 207 207
18.7 -31.7 15.5 207 207 207
19.0 -31.7 15.5 207 207 207
19.4 -31.7 15.5 207 207 207
19.7 -31.5 15.4 207 207 207
22.7 -31.7 15.5 207 207 207
42.3 -57.4 28.1 207 207 207
41.7 -55.6 27.2 207 207 207
27.2 -31.5 15.4 206 206 206
27.5 -31.5 15.4 206 206 206
28.2 -31.8 15.6 207 207 207
28.3 -31.5 15.4 207 207 207
26.8 -29.1 14.2 205 205 205
27.0 -29.1 14.2 205 205 205
-43.8 -31.4 15.6 55 55 55
-43.7 -31.6 15.6 55 55 55
-43.3 -31.6 15.6 55 55 55
-43.0 -31.6 15.6 55 55 55
-42.7 -31.7 15.7 53 52 52
-42.3 -31.6 15.7 55 55 55
-41.8 -31.6 15.6 55 55 55
-41.5 -31.6 15.6 55 55 55
-41.1 -31.6 15.6 58 59 57
-40.8 -31.6 15.6 58 59 57
-40.4 -31.6 15.6 58 59 57
-40.1 -31.6 15.7 53 53 53
-39.7 -31.6 15.7 53 53 53
-39.4 -31.6 15.7 55 55 55
-39.0 -31.6 15.6 53 53 53
-38.6 -31.6 15.6 53 53 53
-38.2 -31.6 15.6 52 52 52
-37.9 -31.6 15.6 50 49 48
-37.5 -31.6 15.6 46 46 46
-37.1 -31.6 15.6 47 47 47
-36.8 -31.6 15.7 47 47 47
-36.4 -31.6 15.6 47 47 47
-36.0 -31.6 15.6 47 47 47
-35.7 -31.7 15.7 47 47 47
-35.4 -31.7 15.7 47 47 47
-35.0 -31.6 15.6 47 47 47
-34.6 -31.6 15.6 47 47 47
-34.2 -31.6 15.6 47 47 47
-33.8 -31.6 15.6 47 47 47
-33.5 -31.6 15.7 47 47 47
-33.1 -31.6 15.6 47 47 47
-32.9 -31.7 15.7 44 44 44
-32.7 -31.9 15.8 44 44 44
-32.2 -31.7 15.7 47 47 47
-31.6 -31.6 15.6 45 45 45
-31.4 -31.7 15.7 42 43 42
-30.3 -31.7 15.7 41 41 41
-29.8 -31.6 15.6 42 42 42
-29.7 -31.9 15.8 42 42 42
-29.4 -31.9 15.8 42 42 42
-28.8 -31.6 15.6 43 43 43
-28.3 -31.5 15.6 46 46 46
-28.1 -31.7 15.7 46 46 46
-27.6 -31.6 15.6 46 46 46
-16.4 -31.5 15.6 19 23 20
-16.0 -31.5 15.6 26 26 26
-15.6 -31.5 15.6 33 33 33
-15.3 -31.5 15.6 29 30 28
-15.0 -31.6 15.7 27 29 27
-14.6 -31.6 15.7 25 25 25
-13.1 -31.5 15.6 32 32 32
-12.8 -31.7 15.7 36 36 34
-12.4 -31.6 15.6 128 128 128
-12.0 -31.6 15.6 185 185 185
-10.7 -32.0 15.8 217 217 217
-10.3 -32.0 15.8 216 216 216
-8.8 -31.7 15.7 212 213 212
-8.4 -31.7 15.7 210 210 210
-8.0 -31.6 15.6 209 209 209
-7.7 -31.6 15.6 209 209 209
-7.3 -31.6 15.6 206 206 206
-4.9 -32.1 15.9 199 199 199
-4.4 -31.7 15.7 199 199 199
-4.0 -31.6 15.6 197 197 197
-3.7 -31.6 15.6 197 197 197
-3.3 -31.6 15.6 194 194 194
-3.0 -31.6 15.6 196 196 196
-2.6 -31.6 15.7 196 196 196
-2.2 -31.6 15.6 196 196 196
4.7 -31.6 15.7 182 182 182
5.0 -31.6 15.6 182 182 182
5.8 -31.7 15.7 181 181 181
7.3 -32.0 15.8 204 204 204
7.7 -32.0 15.8 207 207 207
8.7 -31.6 15.6 207 207 207
9.0 -31.6 15.6 209 209 209
9.4 -31.6 15.6 209 209 209
9.8 -31.6 15.6 209 209 209
10.2 -31.8 15.7 209 209 209
10.5 -31.7 15.7 209 209 209
10.9 -31.7 15.7 207 207 207
11.2 -31.7 15.7 209 209 209
11.6 -31.6 15.6 207 207 207
12.0 -31.6 15.7 207 207 207
12.3 -31.7 15.7 207 207 207
12.7 -31.7 15.7 207 207 207
13.1 -31.6 15.7 207 207 207
13.4 -31.6 15.6 207 207 207
13.8 -31.6 15.6 207 207 207
14.1 -31.6 15.7 207 207 207
14.5 -31.6 15.6 207 207 207
14.9 -31.6 15.6 207 207 207
15.2 -31.6 15.6 207 207 207
15.6 -31.7 15.7 207 207 207
15.9 -31.6 15.6 207 207 207
16.3 -31.6 15.6 207 207 207
16.7 -31.7 15.7 207 207 207
17.1 -31.8 15.7 207 207 207
17.5 -31.8 15.7 207 207 207
17.8 -31.7 15.7 207 207 207
18.1 -31.6 15.6 207 207 207
18.5 -31.6 15.6 207 207 207
18.9 -31.7 15.7 207 207 207
19.2 -31.6 15.6 207 207 207
19.7 -31.8 15.7 207 207 207
20.1 -31.8 15.7 207 207 207
20.3 -31.6 15.7 207 207 207
20.6 -31.5 15.6 207 207 207
21.4 -32.2 15.9 207 207 207
21.8 -32.3 16.0 207 207 207
22.0 -32.0 15.8 207 207 207
22.2 -31.7 15.7 207 207 207
22.6 -31.8 15.7 207 207 207
22.9 -31.6 15.7 207 207 207
23.2 -31.6 15.6 207 207 207
23.8 -31.9 15.8 207 207 207
24.2 -32.0 15.8 207 207 207
27.4 -31.4 15.6 206 206 206
27.8 -31.4 15.6 206 206 206
28.3 -31.6 15.6 206 206 206
28.6 -31.5 15.6 206 206 206
27.3 -28.9 14.3 207 207 207
28.1 -29.4 14.6 205 205 205
28.5 -29.5 14.6 205 205 205
-45.5 -32.3 16.2 53 53 53
-45.3 -32.4 16.2 53 53 53
-44.9 -32.4 16.2 56 56 56
-44.5 -32.4 16.2 58 59 57
-44.2 -32.4 16.2 58 59 57
-43.7 -32.4 16.2 58 59 57
-43.4 -32.4 16.2 56 56 56
-43.0 -32.4 16.2 56 56 56
-42.7 -32.4 16.2 58 59 57
-42.3 -32.4 16.2 58 59 57
-41.8 -32.4 16.2 61 61 61
-41.5 -32.4 16.2 58 59 57
-41.2 -32.4 16.2 56 56 56
-40.8 -32.4 16.2 56 56 56
-40.4 -32.4 16.2 54 54 54
-40.0 -32.4 16.2 54 54 54
-39.6 -32.4 16.2 52 52 52
-39.2 -32.4 16.2 53 52 52
-38.9 -32.4 16.2 47 47 47
-38.5 -32.4 16.2 51 50 48
-38.1 -32.4 16.2 47 48 47
-37.7 -32.4 16.2 45 45 45
-37.4 -32.4 16.2 47 48 47
-37.0 -32.4 16.2 47 48 47
-36.6 -32.4 16.2 47 48 47
-36.2 -32.4 16.2 47 48 47
-35.8 -32.4 16.2 47 48 47
-35.4 -32.4 16.2 47 48 47
-35.1 -32.4 16.2 47 48 47
-34.7 -32.4 16.2 47 48 47
-34.4 -32.4 16.2 47 48 47
-34.1 -32.5 16.3 43 43 43
-33.6 -32.4 16.2 46 46 46
-33.2 -32.4 16.2 46 46 46
-32.9 -32.4 16.2 46 46 46
-31.4 -32.5 16.3 42 43 42
-31.1 -32.6 16.3 42 43 42
-31.0 -32.8 16.4 42 43 42
-30.2 -32.4 16.2 42 43 42
-29.7 -32.3 16.2 40 40 40
-29.5 -32.5 16.3 40 40 40
-29.1 -32.4 16.2 41 41 41
-28.7 -32.4 16.2 43 43 43
-28.4 -32.5 16.3 45 45 45
-17.5 -32.5 16.3 26 26 26
-16.9 -32.3 16.2 26 26 26
-16.5 -32.2 16.1 26 26 26
-16.2 -32.3 16.2 26 26 26
-15.9 -32.4 16.2 26 26 26
-15.5 -32.4 16.2 27 27 27
-15.1 -32.4 16.2 29 30 28
-14.0 -32.4 16.2 31 31 31
-13.7 -32.5 16.3 32 32 32
-13.3 -32.5 16.3 35 35 35
-12.9 -32.4 16.2 139 141 140
-12.5 -32.4 16.2 182 182 182
-12.1 -32.4 16.2 186 186 186
-11.7 -32.4 16.2 186 188 187
-11.3 -32.3 16.2 218 221 220
-11.0 -32.4 16.2 219 222 221
-10.6 -32.4 16.2 222 222 222
-9.8 -32.4 16.2 218 221 220
-9.5 -32.4 16.2 217 220 219
-9.1 -32.3 16.2 215 218 217
-8.7 -32.4 16.2 215 218 217
-8.3 -32.4 16.2 215 218 217
-4.6 -32.3 16.2 202 202 202
-4.2 -32.4 16.2 202 202 202
-3.8 -32.4 16.2 198 198 198
-3.4 -32.4 16.2 198 198 198
-3.1 -32.4 16.2 198 198 198
-2.7 -32.4 16.2 195 195 195
-2.3 -32.2 16.1 195 195 195
4.8 -32.4 16.2 183 183 183
5.2 -32.4 16.2 181 181 181
5.6 -32.4 16.2 181 181 181
6.0 -32.4 16.2 181 181 181
6.4 -32.4 16.2 181 181 181
6.7 -32.4 16.2 181 181 181
7.1 -32.4 16.2 172 172 172
7.5 -32.4 16.2 203 203 203
7.9 -32.4 16.2 206 206 206
8.2 -32.4 16.2 206 206 206
8.6 -32.4 16.2 209 209 209
9.0 -32.4 16.2 209 209 209
9.4 -32.4 16.2 209 209 209
9.7 -32.3 16.2 209 209 209
10.1 -32.4 16.2 209 209 209
10.5 -32.4 16.2 209 209 209
10.9 -32.4 16.2 209 209 209
11.3 -32.4 16.2 209 209 209
11.6 -32.4 16.2 209 209 209
12.0 -32.4 16.2 209 209 209
12.4 -32.4 16.2 203 203 203
12.8 -32.4 16.2 206 206 206
13.1 -32.4 16.2 206 206 206
13.5 -32.4 16.2 203 203 203
13.9 -32.4 16.2 209 209 209
14.3 -32.4 16.2 209 209 209
14.7 -32.4 16.2 206 206 206
15.0 -32.4 16.2 206 206 206
15.4 -32.4 16.2 206 206 206
15.8 -32.4 16.2 206 206 206
16.2 -32.4 16.2 206 206 206
16.5 -32.4 16.2 206 206 206
16.9 -32.4 16.2 206 206 206
17.3 -32.4 16.2 206 206 206
17.7 -32.4 16.2 206 206 206
18.1 -32.4 16.2 206 206 206
18.4 -32.4 16.2 206 206 206
18.8 -32.4 16.2 206 206 206
19.2 -32.4 16.2 206 206 206
19.5 -32.4 16.2 206 206 206
19.9 -32.4 16.2 206 206 206
20.4 -32.5 16.3 206 206 206
20.7 -32.4 16.2 206 206 206
21.0 -32.4 16.2 206 206 206
21.4 -32.4 16.2 206 206 206
21.9 -32.5 16.3 206 206 206
22.3 -32.5 16.3 206 206 206
22.6 -32.5 16.3 206 206 206
23.0 -32.5 16.3 206 206 206
23.4 -32.4 16.2 206 206 206
23.5 -32.2 16.1 206 206 206
24.1 -32.4 16.2 206 206 206
24.5 -32.4 16.2 206 206 206
41.9 -54.6 27.3 206 206 206
45.4 -56.7 28.4 207 207 207
28.3 -31.6 15.8 205 205 205
28.9 -31.9 16.0 205 205 205
29.2 -31.9 15.9 206 206 206
27.4 -29.1 14.6 206 206 206
27.7 -29.0 14.5 204 204 204
28.4 -29.5 14.7 206 206 206
28.6 -29.3 14.7 206 206 206
28.8 -29.2 14.6 204 204 204
29.2 -29.2 14.6 205 205 205
29.4 -29.0 14.5 203 203 203
29.8 -29.1 14.6 203 203 203
31.2 -29.5 14.8 191 191 191
-46.5 -34.6 17.5 59 60 58
-39.5 -34.9 17.7 51 51 49
-39.0 -35.2 17.8 48 48 48
-38.6 -35.2 17.8 48 48 48
-38.3 -35.3 17.9 46 46 46
-32.6 -34.2 17.3 43 43 43
-11.5 -25.0 12.7 31 30 29
-11.2 -25.0 12.6 31 30 29
-10.9 -25.0 12.7 33 33 33
-10.7 -25.0 12.7 34 34 34
-10.4 -25.1 12.7 43 43 43
-10.1 -25.1 12.7 146 146 146
-9.5 -25.1 12.7 186 188 187
-2.4 -25.2 12.7 199 199 199
-2.1 -25.0 12.7 199 199 199
7.3 -25.1 12.7 208 208 208
7.6 -25.1 12.7 208 208 208
7.9 -25.1 12.7 208 208 208
8.2 -25.1 12.7 208 208 208
8.5 -25.1 12.7 208 208 208
8.8 -25.1 12.7 208 208 208
9.1 -25.1 12.7 208 208 208
9.7 -25.1 12.7 206 206 206
10.0 -25.1 12.7 206 206 206
10.3 -25.1 12.7 206 206 206
10.6 -25.1 12.7 206 206 206
10.9 -25.1 12.7 208 208 208
11.2 -25.1 12.7 208 208 208
11.5 -25.1 12.7 208 208 208
11.8 -25.1 12.7 206 206 206
12.1 -25.0 12.7 206 206 206
12.3 -25.0 12.7 206 206 206
12.7 -25.1 12.7 206 206 206
12.9 -25.1 12.7 206 206 206
13.2 -25.0 12.7 206 206 206
13.5 -25.0 12.7 206 206 206
13.8 -25.0 12.7 206 206 206
14.1 -25.0 12.7 206 206 206
15.6 -25.1 12.7 206 206 206
15.9 -25.1 12.7 206 206 206
16.2 -25.0 12.7 208 208 208
16.5 -25.0 12.7 206 206 206
16.8 -25.0 12.7 206 206 206
17.1 -25.0 12.7 206 206 206
17.4 -25.0 12.7 206 206 206
17.7 -25.1 12.7 206 206 206
17.9 -24.9 12.6 206 206 206
18.8 -25.1 12.7 208 208 208
19.2 -25.1 12.7 206 206 206
42.1 -54.3 27.5 206 206 206
41.7 -53.0 26.8 206 206 206
46.1 -56.8 28.8 206 206 206
45.5 -55.3 28.0 206 206 206
27.1 -29.9 15.1 207 207 207
27.8 -29.5 15.0 205 205 205
27.8 -29.2 14.8 205 205 205
28.2 -29.2 14.8 205 205 205
28.8 -29.5 14.9 206 206 206
28.9 -29.3 14.8 206 206 206
29.3 -29.3 14.8 206 206 206
29.7 -29.3 14.9 204 204 204
30.5 -29.5 14.9 204 204 204
30.9 -29.5 15.0 172 172 172
31.4 -29.6 15.0 184 184 184
31.6 -29.6 15.0 191 191 191
-35.8 -24.8 12.7 59 61 59
-35.6 -24.9 12.8 59 61 59
-35.3 -24.9 12.8 59 61 59
-35.0 -24.9 12.7 59 61 59
-34.7 -24.9 12.8 59 61 59
-34.4 -24.9 12.8 59 61 59
-34.1 -24.9 12.7 59 61 59
-33.8 -24.9 12.7 59 61 59
-33.6 -24.9 12.8 59 61 59
-33.3 -24.9 12.8 59 61 59
-32.9 -24.9 12.7 63 63 63
-32.8 -25.0 12.8 59 61 59
-32.4 -25.0 12.8 59 61 59
-32.1 -25.0 12.8 59 61 59
-31.3 -25.0 12.8 56 56 56
-30.9 -24.9 12.8 56 56 56
-30.6 -24.9 12.8 54 54 54
-30.3 -24.9 12.8 52 52 50
-30.0 -24.9 12.8 52 52 50
-29.7 -24.9 12.7 52 52 50
-29.4 -24.9 12.8 52 52 50
-29.1 -24.9 12.8 52 52 50
-28.8 -24.9 12.8 52 52 50
-28.5 -24.9 12.7 52 52 50
-28.2 -24.9 12.7 49 49 49
-27.9 -24.9 12.8 49 49 49
-27.6 -24.9 12.8 49 49 49
-27.4 -25.0 12.8 49 49 49
-27.1 -25.0 12.8 50 50 50
-26.7 -24.9 12.8 50 50 50
-26.4 -24.9 12.7 50 50 50
-26.2 -25.0 12.8 50 50 50
-25.8 -24.9 12.8 46 46 46
-25.6 -25.0 12.8 43 43 43
-25.1 -25.0 12.8 46 46 46
-23.9 -25.0 12.8 42 42 42
-23.6 -25.0 12.8 42 43 42
-23.2 -25.0 12.8 42 43 42
-22.8 -24.8 12.7 42 43 42
-22.5 -24.9 12.7 46 46 46
-22.4 -25.0 12.8 43 43 43
-22.0 -24.9 12.8 40 40 40
-21.6 -24.8 12.7 42 42 40
-21.4 -24.9 12.7 43 42 41
-21.0 -24.8 12.7 43 42 41
-20.8 -24.9 12.8 41 41 41
-20.4 -24.8 12.7 39 41 41
-19.7 -25.0 12.8 21 24 22
-18.4 -24.9 12.8 19 19 19
-17.9 -24.9 12.8 19 19 19
-17.5 -24.9 12.7 17 17 17
-14.6 -25.0 12.8 28 28 28
-12.6 -25.1 12.9 29 31 29
-11.6 -24.8 12.7 32 31 30
-11.3 -24.8 12.7 32 32 32
-11.0 -24.8 12.7 33 33 33
-10.7 -24.9 12.7 35 35 35
-10.4 -25.0 12.8 43 43 43
-10.1 -24.9 12.8 160 163 162
-9.9 -25.0 12.8 188 190 190
-9.5 -24.9 12.8 184 187 186
11.8 -24.9 12.8 205 205 205
22.1 -29.1 14.9 207 207 207
42.0 -53.5 27.4 205 205 205
41.4 -52.0 26.6 205 205 205
45.6 -54.8 28.1 206 206 206
45.0 -53.3 27.3 206 206 206
27.0 -29.5 15.1 207 207 207
27.9 -29.3 15.0 205 205 205
27.6 -28.7 14.7 205 205 205
28.0 -28.7 14.7 205 205 205
28.6 -29.0 14.9 205 205 205
28.8 -28.8 14.8 205 205 205
29.1 -28.8 14.8 205 205 205
29.5 -28.9 14.8 206 206 206
29.5 -28.5 14.6 203 203 203
30.7 -29.0 14.8 168 168 168
-36.1 -24.7 12.8 59 61 59
-35.8 -24.7 12.8 59 61 59
-35.5 -24.7 12.8 59 61 59
-35.2 -24.7 12.8 63 63 63
-34.9 -24.7 12.8 60 62 60
-34.6 -24.7 12.8 60 62 60
-34.3 -24.7 12.8 60 62 60
-34.0 -24.7 12.8 60 62 60
-33.7 -24.7 12.8 60 62 60
-33.4 -24.7 12.8 60 62 60
-33.1 -24.7 12.8 64 64 64
-32.8 -24.7 12.8 60 62 60
-32.4 -24.7 12.8 60 62 60
-32.2 -24.7 12.8 58 59 59
-31.8 -24.7 12.8 56 56 56
-31.7 -24.8 12.9 56 56 56
-31.4 -24.8 12.8 56 56 56
-31.0 -24.7 12.8 54 54 54
-30.7 -24.7 12.8 54 54 54
-30.4 -24.7 12.8 55 55 55
-30.1 -24.7 12.8 53 52 51
-29.8 -24.7 12.8 53 52 51
-29.5 -24.7 12.8 53 52 51
-29.2 -24.7 12.8 53 52 51
-28.9 -24.7 12.8 53 52 51
-28.6 -24.7 12.8 53 52 51
-28.3 -24.7 12.8 50 50 50
-28.0 -24.7 12.8 53 52 51
-27.8 -24.7 12.8 50 50 50
-27.4 -24.7 12.8 54 53 52
-27.1 -24.7 12.8 51 51 51
-26.8 -24.7 12.8 51 51 51
-26.5 -24.7 12.8 51 51 51
-26.3 -24.7 12.8 51 51 51
-26.0 -24.7 12.8 49 49 49
-25.6 -24.7 12.8 49 49 49
-25.4 -24.8 12.9 49 49 49
-25.1 -24.8 12.9 47 47 47
-24.8 -24.7 12.8 47 48 47
-24.5 -24.7 12.8 47 48 47
-24.2 -24.7 12.8 46 46 46
-23.9 -24.7 12.8 43 43 43
-23.6 -24.7 12.8 43 43 43
-23.3 -24.7 12.8 46 46 46
-22.8 -24.6 12.7 43 43 43
-22.7 -24.7 12.8 44 44 44
-22.4 -24.8 12.9 44 44 44
-22.1 -24.7 12.8 41 41 41
-21.7 -24.6 12.8 44 43 42
-21.5 -24.7 12.8 42 42 42
-21.1 -24.7 12.8 42 42 42
-20.9 -24.7 12.8 40 42 42
-20.4 -24.5 12.7 40 40 40
-20.3 -24.7 12.8 28 28 28
-20.0 -24.7 12.8 20 20 20
-19.7 -24.7 12.8 17 17 17
-18.4 -24.6 12.7 18 18 18
-18.2 -24.7 12.8 19 19 19
-17.9 -24.7 12.8 19 19 19
-17.5 -24.5 12.7 21 21 21
-17.0 -24.7 12.8 22 25 23
-16.7 -24.7 12.8 23 26 24
-16.4 -24.7 12.8 23 26 24
-16.1 -24.7 12.8 23 26 24
-15.8 -24.7 12.8 23 26 24
-15.5 -24.7 12.8 27 27 27
-15.3 -24.7 12.8 27 27 27
-15.0 -24.8 12.9 26 26 26
-14.7 -24.7 12.8 29 29 29
-14.3 -24.7 12.8 30 30 30
-14.0 -24.7 12.8 30 30 30
-13.7 -24.6 12.8 28 28 28
-13.4 -24.7 12.8 30 29 29
-13.1 -24.7 12.8 30 29 29
-12.9 -24.7 12.8 30 31 30
-12.6 -24.9 12.9 30 31 30
-12.2 -24.7 12.8 29 31 29
-11.9 -24.5 12.7 29 31 29
-11.5 -24.5 12.7 29 31 29
-11.3 -24.6 12.8 29 30 28
-11.0 -24.6 12.8 33 33 33
-10.7 -24.7 12.8 36 38 37
-10.5 -24.7 12.8 43 43 43
-10.2 -24.8 12.9 166 169 168
-9.9 -24.8 12.8 186 188 187
-9.6 -24.7 12.8 183 186 185
41.4 -52.2 27.1 205 205 205
40.8 -50.7 26.3 205 205 205
45.2 -53.7 27.9 205 205 205
44.4 -52.0 26.9 205 205 205
44.6 -51.5 26.7 205 205 205
27.3 -29.4 15.3 206 206 206
28.2 -30.0 15.6 206 206 206
28.6 -28.6 14.8 204 204 204
28.7 -28.3 14.7 205 205 205
28.8 -28.2 14.6 205 205 205
29.2 -28.2 14.7 205 205 205
29.4 -28.1 14.6 203 203 203
29.7 -28.0 14.5 203 203 203
30.2 -28.1 14.6 168 168 168
-36.2 -24.5 12.9 60 62 60
-36.1 -24.6 12.9 64 64 64
-35.7 -24.6 12.9 64 64 64
-35.4 -24.5 12.9 64 64 64
-35.1 -24.6 12.9 64 64 64
-34.8 -24.6 12.9 64 64 64
-34.6 -24.6 12.9 64 64 64
-34.4 -24.7 13.0 61 63 61
-34.1 -24.7 13.0 61 63 61
-33.7 -24.6 12.9 61 63 61
-33.5 -24.7 13.0 61 63 61
-33.2 -24.7 13.0 61 63 61
-32.7 -24.5 12.9 61 63 61
-32.3 -24.5 12.9 59 59 59
-32.0 -24.5 12.9 57 57 57
-31.7 -24.7 13.0 57 57 57
-31.4 -24.7 13.0 58 58 58
-30.9 -24.6 12.9 55 55 55
-30.7 -24.7 12.9 56 56 56
-30.4 -24.6 12.9 54 53 52
-30.1 -24.6 12.9 54 53 52
-29.7 -24.5 12.9 56 56 56
-29.3 -24.5 12.9 56 56 56
-29.1 -24.5 12.9 56 56 56
-28.8 -24.5 12.9 54 53 52
-28.5 -24.5 12.9 51 51 51
-28.2 -24.6 12.9 54 53 52
-27.9 -24.6 12.9 52 52 52
-27.6 -24.5 12.9 52 52 52
-27.3 -24.5 12.9 52 52 52
-27.0 -24.6 12.9 52 52 52
-26.7 -24.5 12.9 52 52 52
-26.5 -24.6 12.9 52 52 52
-26.1 -24.5 12.9 53 52 52
-25.8 -24.5 12.9 50 50 50
-25.7 -24.8 13.0 47 48 47
-25.4 -24.7 13.0 48 48 48
-24.9 -24.6 12.9 48 48 48
-24.2 -24.7 13.0 44 44 44
-23.8 -24.6 12.9 44 44 44
-23.4 -24.5 12.9 49 49 49
-23.0 -24.4 12.8 45 45 45
-22.8 -24.6 12.9 44 43 42
-22.6 -24.6 12.9 44 43 42
-22.1 -24.4 12.8 42 42 42
-21.8 -24.4 12.8 42 43 42
-21.6 -24.5 12.9 45 44 43
-21.3 -24.5 12.9 41 43 42
-21.1 -24.6 12.9 41 43 42
-20.5 -24.3 12.7 38 38 38
-20.1 -24.6 12.9 19 19 19
-19.8 -24.5 12.9 18 18 18
-18.5 -24.4 12.8 18 18 18
-18.3 -24.6 12.9 20 20 20
-18.0 -24.5 12.9 21 21 21
-17.6 -24.5 12.8 21 21 21
-15.1 -24.7 13.0 30 29 29
-14.8 -24.7 13.0 29 29 29
-14.4 -24.5 12.9 30 30 30
-14.1 -24.5 12.9 29 29 29
-13.0 -24.8 13.0 30 29 29
-12.7 -24.7 13.0 30 31 30
-12.3 -24.4 12.8 34 34 34
-11.9 -24.4 12.8 29 31 29
-11.6 -24.2 12.7 29 31 29
-11.4 -24.4 12.8 34 34 34
-11.1 -24.5 12.8 28 28 28
-10.8 -24.5 12.8 34 34 34
-10.5 -24.5 12.9 50 51 49
-10.3 -24.6 12.9 176 176 176
-9.9 -24.6 12.9 184 187 186
-9.6 -24.4 12.8 189 189 189
40.8 -50.0 26.2 204 204 204
45.7 -53.6 28.1 207 207 207
44.6 -51.5 27.1 207 207 207
44.3 -50.5 26.5 207 207 207
45.4 -51.1 26.8 205 205 205
47.5 -52.7 27.7 205 205 205
27.8 -29.6 15.5 206 206 206
28.3 -29.8 15.6 206 206 206
28.7 -28.0 14.7 204 204 204
28.8 -27.8 14.6 204 204 204
29.5 -27.8 14.6 204 204 204
29.8 -27.8 14.6 209 209 209
-36.6 -24.4 13.0 65 65 65
-36.4 -24.5 13.0 65 65 65
-36.1 -24.5 13.0 65 65 65
-35.7 -24.5 13.0 65 65 65
-35.5 -24.5 13.0 65 65 65
-35.2 -24.5 13.0 65 65 65
-34.9 -24.5 13.0 65 65 65
-34.7 -24.6 13.1 65 65 65
-34.4 -24.6 13.1 65 65 65
-34.0 -24.5 13.0 62 64 61
-33.8 -24.6 13.1 62 64 61
-33.4 -24.5 13.0 62 64 61
-33.0 -24.5 13.0 62 64 61
-32.7 -24.5 13.0 60 60 60
-32.2 -24.6 13.1 60 60 60
-31.9 -24.5 13.0 58 58 58
-31.6 -24.5 13.0 56 56 56
-31.2 -24.5 13.0 56 56 56
-30.9 -24.5 13.0 57 57 57
-30.6 -24.5 13.0 55 54 53
-30.3 -24.5 13.0 55 54 53
-30.0 -24.5 13.0 57 57 57
-29.6 -24.4 13.0 57 57 57
-29.4 -24.5 13.0 57 57 57
-29.1 -24.5 13.0 57 57 57
-28.8 -24.5 13.0 55 54 53
-28.5 -24.5 13.0 56 55 54
-28.2 -24.5 13.0 53 52 52
-27.8 -24.5 13.0 53 52 52
-27.6 -24.5 13.0 53 52 52
-27.3 -24.5 13.0 53 52 52
-27.0 -24.5 13.0 53 52 52
-26.7 -24.5 13.0 53 53 53
-26.4 -24.5 13.0 53 53 53
-26.0 -24.5 13.0 53 53 53
-25.9 -24.6 13.1 49 49 49
-25.6 -24.6 13.1 49 49 49
-25.2 -24.5 13.0 49 49 49
-24.9 -24.5 13.0 49 49 49
-24.4 -24.7 13.1 47 48 47
-24.0 -24.6 13.1 48 48 48
-23.6 -24.4 13.0 48 48 48
-23.2 -24.4 12.9 46 46 46
-23.1 -24.5 13.0 45 44 43
-22.7 -24.5 13.0 45 44 43
-22.3 -24.3 12.9 46 45 43
-22.0 -24.3 12.9 43 43 43
-21.8 -24.5 13.0 43 43 43
-21.5 -24.5 13.0 42 44 43
-21.2 -24.4 13.0 42 44 43
-20.6 -24.2 12.9 38 38 38
-20.3 -24.4 13.0 19 19 19
-20.0 -24.4 13.0 16 16 16
-18.5 -24.5 13.0 20 20 20
-18.2 -24.4 13.0 20 20 20
-17.8 -24.4 13.0 20 20 20
-17.6 -24.4 13.0 22 25 23
-17.0 -24.5 13.0 28 28 28
-16.6 -24.4 13.0 28 28 28
-16.3 -24.4 13.0 24 27 25
-16.1 -24.5 13.0 24 27 25
-15.4 -24.4 13.0 32 32 32
-15.3 -24.7 13.1 36 36 34
-14.9 -24.5 13.0 30 29 29
-14.6 -24.5 13.0 33 34 32
-14.3 -24.5 13.0 29 29 29
-13.7 -24.5 13.0 36 36 36
-13.1 -24.6 13.1 28 28 28
-12.8 -24.5 13.0 37 38 37
-12.3 -24.3 12.9 39 41 41
-11.6 -24.1 12.8 48 48 48
-11.5 -24.4 12.9 58 58 58
-11.2 -24.4 13.0 63 63 63
-10.9 -24.3 12.9 36 39 38
-10.6 -24.3 12.9 48 48 48
-10.0 -24.5 13.0 183 186 185
-9.7 -24.4 13.0 183 186 185
46.8 -54.2 28.8 206 206 206
45.0 -51.4 27.3 207 207 207
44.9 -50.6 26.9 207 207 207
45.7 -50.8 27.0 207 207 207
47.2 -51.7 27.5 205 205 205
47.5 -51.4 27.3 205 205 205
28.8 -27.5 14.6 204 204 204
29.2 -27.5 14.6 206 206 206
30.1 -27.7 14.7 204 204 204
-36.5 -24.1 13.0 65 65 65
-36.3 -24.1 13.0 65 65 65
-35.9 -24.1 13.0 66 66 66
-35.6 -24.1 13.0 66 66 66
-35.3 -24.1 13.0 66 66 66
-35.0 -24.1 13.0 66 66 66
-34.8 -24.1 13.0 66 66 66
-34.5 -24.2 13.0 67 69 67
-34.2 -24.2 13.0 66 66 66
-33.9 -24.1 13.0 66 66 66
-33.6 -24.2 13.0 63 64 62
-33.3 -24.1 13.0 60 60 60
-32.9 -24.1 13.0 63 64 62
-32.1 -24.2 13.0 61 61 61
-31.7 -24.1 13.0 61 61 61
-31.4 -24.1 13.0 58 59 59
-31.1 -24.1 13.0 57 57 57
-30.8 -24.1 13.0 56 55 54
-30.5 -24.1 13.0 56 55 54
-30.2 -24.1 13.0 58 58 58
-29.9 -24.1 13.0 56 55 54
-29.5 -24.1 12.9 56 55 54
-29.3 -24.1 13.0 58 58 58
-29.0 -24.1 13.0 58 58 58
-28.7 -24.1 13.0 56 55 54
-28.4 -24.1 13.0 58 59 59
-28.0 -24.1 13.0 57 56 55
-27.7 -24.1 12.9 53 53 53
-27.5 -24.1 13.0 53 53 53
-27.2 -24.1 13.0 53 53 53
-26.9 -24.1 13.0 54 54 54
-26.6 -24.1 13.0 54 54 54
-26.3 -24.1 13.0 54 54 54
-23.5 -24.0 12.9 47 47 47
-23.1 -23.9 12.9 47 47 47
-22.7 -24.1 13.0 46 46 44
-22.2 -23.9 12.9 46 46 44
-21.9 -24.0 12.9 46 46 44
-21.8 -24.1 13.0 44 44 44
-12.7 -24.2 13.0 90 90 90
-12.3 -23.9 12.9 57 58 56
-11.5 -24.0 12.9 33 32 30
-11.2 -24.1 13.0 89 89 89
-10.9 -24.0 12.9 20 23 21
-10.5 -24.0 12.9 42 43 42
-10.2 -23.9 12.9 184 187 186
-9.7 -24.0 12.9 186 186 186
44.8 -50.6 27.2 206 206 206
45.0 -50.0 26.9 206 206 206
45.4 -49.8 26.8 206 206 206
47.0 -50.9 27.4 207 207 207
46.9 -50.1 26.9 204 204 204
28.8 -27.1 14.6 205 205 205
29.0 -27.0 14.5 205 205 205
29.1 -26.8 14.4 203 203 203
30.0 -27.2 14.7 200 200 200
30.2 -27.1 14.6 169 169 169
-34.2 -24.1 13.1 67 67 67
-34.0 -24.1 13.1 67 67 67
-33.6 -24.1 13.1 67 67 67
-33.3 -24.1 13.1 64 65 63
-32.4 -24.1 13.1 62 62 62
-32.1 -24.1 13.1 62 62 62
-31.8 -24.1 13.1 59 59 59
-31.5 -24.1 13.1 58 58 58
-31.1 -24.1 13.1 58 59 59
-30.8 -24.1 13.1 58 59 59
-30.5 -24.1 13.1 58 59 59
-30.2 -24.0 13.1 57 56 55
-29.8 -24.0 13.1 57 56 55
-29.6 -24.1 13.1 58 59 59
-29.3 -24.1 13.1 58 59 59
-29.0 -24.1 13.1 57 57 55
-28.7 -24.1 13.1 57 57 55
-28.3 -24.0 13.1 57 57 55
-13.3 -24.3 13.2 75 77 77
-12.8 -24.1 13.1 10 15 11
-11.5 -23.9 13.0 40 40 40
-11.3 -24.0 13.1 81 81 81
-11.0 -24.0 13.1 21 24 22
-10.6 -23.9 13.0 58 58 58
-10.3 -23.8 13.0 183 186 185
-10.2 -24.4 13.3 182 185 184
45.0 -50.1 27.3 206 206 206
46.9 -50.2 27.3 206 206 206
46.7 -49.2 26.8 206 206 206
54.3 -55.0 30.0 207 207 207
28.8 -26.8 14.6 205 205 205
29.0 -26.7 14.5 205 205 205
29.1 -26.5 14.4 205 205 205
30.9 -27.8 15.1 203 203 203
30.5 -27.1 14.8 166 166 166
-34.6 -24.3 13.4 67 67 67
-34.1 -24.2 13.3 67 67 67
-34.0 -24.3 13.4 68 68 68
-33.2 -24.4 13.4 63 63 63
-32.6 -24.2 13.3 63 63 63
-32.3 -24.2 13.3 60 60 60
-32.0 -24.2 13.3 58 59 59
-31.7 -24.2 13.3 59 59 59
-31.4 -24.2 13.3 61 61 61
-31.0 -24.2 13.3 61 61 61
-30.7 -24.2 13.3 57 57 55
-30.4 -24.2 13.3 59 59 59
-30.1 -24.2 13.3 59 59 59
-29.8 -24.2 13.3 58 58 56
-29.5 -24.2 13.4 58 58 56
-29.2 -24.2 13.3 55 55 55
-28.9 -24.2 13.3 58 58 56
-28.5 -24.2 13.3 58 58 56
-13.0 -24.1 13.3 22 25 23
-11.4 -24.0 13.2 64 65 63
-11.2 -24.1 13.3 52 52 52
-10.8 -24.0 13.3 48 48 48
-10.6 -24.2 13.4 182 185 184
-10.3 -24.2 13.4 181 184 183
45.7 -51.0 28.1 205 205 205
45.0 -49.5 27.3 205 205 205
47.2 -49.8 27.5 206 206 206
46.7 -48.6 26.8 206 206 206
46.5 -47.7 26.3 206 206 206
46.0 -46.7 25.8 206 206 206
55.0 -55.1 30.4 206 206 206
32.0 -28.4 15.7 202 202 202
32.5 -28.5 15.7 168 168 168
34.2 -29.4 16.2 185 185 185
34.4 -29.2 16.1 185 185 185
34.8 -29.2 16.1 184 184 184
34.8 -28.9 15.9 184 184 184
-35.4 -24.5 13.7 68 68 68
-32.7 -24.4 13.6 62 62 62
-32.3 -24.3 13.6 62 62 62
-32.0 -24.3 13.6 62 62 62
-31.6 -24.3 13.6 62 62 62
-31.3 -24.3 13.6 58 58 56
-31.0 -24.3 13.6 60 60 60
-29.2 -24.4 13.6 59 59 57
-28.7 -24.3 13.6 62 62 62
-13.2 -24.0 13.4 36 37 36
-11.3 -24.0 13.4 50 50 50
-11.0 -24.0 13.4 53 53 53
-10.7 -24.0 13.4 182 185 184
-10.4 -24.1 13.5 180 183 182
46.1 -50.8 28.4 205 205 205
45.0 -48.9 27.3 205 205 205
47.8 -50.4 28.2 205 205 205
47.9 -49.9 27.9 205 205 205
47.2 -48.5 27.1 205 205 205
46.9 -47.6 26.6 205 205 205
46.2 -46.3 25.9 205 205 205
55.3 -54.0 30.2 206 206 206
33.2 -29.1 16.3 204 204 204
33.4 -28.9 16.2 168 170 169
34.4 -29.4 16.5 181 181 181
34.7 -29.1 16.3 184 184 184
35.1 -29.1 16.3 184 184 184
-36.3 -24.6 13.9 71 72 70
-36.0 -24.6 13.9 71 72 70
-35.6 -24.6 13.9 71 72 70
-34.4 -24.6 14.0 70 70 70
-34.1 -24.6 13.9 65 65 65
-33.7 -24.6 13.9 65 65 65
-33.4 -24.6 13.9 65 65 65
-33.1 -24.6 13.9 67 69 67
-32.7 -24.6 13.9 63 63 63
-32.4 -24.6 13.9 63 63 63
-32.1 -24.6 13.9 63 63 63
-31.5 -24.6 13.9 61 61 61
-31.1 -24.6 13.9 62 62 62
-30.8 -24.6 13.9 62 62 62
-30.5 -24.6 14.0 60 59 58
-30.2 -24.6 14.0 62 62 62
-29.8 -24.6 13.9 63 63 63
-29.5 -24.6 13.9 61 60 59
-29.3 -24.7 14.0 63 63 63
-28.9 -24.6 14.0 61 60 59
-28.5 -24.6 13.9 58 59 59
-28.5 -24.8 14.1 58 59 59
-28.1 -24.7 14.0 58 59 59
-10.6 -24.2 13.7 179 182 181
46.3 -50.4 28.5 206 206 206
48.3 -49.7 28.1 207 207 207
47.8 -48.5 27.5 205 205 205
47.3 -47.3 26.8 205 205 205
46.7 -46.2 26.2 205 205 205
32.9 -28.1 15.9 176 176 176
-33.9 -24.7 14.2 66 66 66
-33.6 -24.6 14.1 66 66 66
-30.7 -24.7 14.2 63 63 63
-11.5 -24.5 14.1 54 54 54
-11.2 -24.6 14.1 180 183 182
-10.7 -24.2 13.9 179 182 181
-10.5 -24.5 14.1 182 182 182
46.8 -50.2 28.8 206 206 206
49.0 -49.7 28.5 206 206 206
48.6 -48.7 27.9 206 206 206
47.6 -47.0 27.0 207 207 207
46.1 -45.0 25.8 207 207 207
32.7 -27.6 15.8 179 179 179
28.6 -23.1 13.3 185 185 185
-10.4 -17.5 10.2 123 123 123
-10.2 -17.4 10.1 136 138 137
-11.4 -24.7 14.4 181 184 183
-11.0 -24.5 14.2 178 181 180
-10.7 -24.6 14.3 177 180 179
-10.4 -24.8 14.4 175 177 177
9.1 -17.7 10.3 208 211 210
12.1 -17.6 10.3 205 205 205
47.2 -45.4 26.4 206 206 206
46.6 -44.2 25.7 204 204 204
-10.4 -17.3 10.2 129 129 129
-10.2 -17.2 10.2 140 140 140
-11.6 -24.8 14.6 182 185 184
-10.8 -24.5 14.5 178 181 180
7.7 -17.6 10.4 208 211 210
7.9 -17.6 10.4 208 211 210
8.1 -17.5 10.3 208 211 210
9.1 -17.6 10.4 207 210 209
9.3 -17.5 10.3 207 210 209
9.6 -17.5 10.3 207 210 209
9.8 -17.6 10.4 207 210 209
10.1 -17.5 10.3 207 210 209
10.3 -17.5 10.3 205 205 205
10.7 -17.4 10.3 205 205 205
11.0 -17.4 10.3 205 205 205
11.2 -17.5 10.3 205 205 205
11.5 -17.5 10.3 207 210 209
11.7 -17.5 10.3 207 210 209
12.0 -17.5 10.3 205 205 205
12.2 -17.5 10.3 207 210 209
12.4 -17.4 10.3 207 210 209
12.6 -17.4 10.3 207 210 209
13.7 -17.6 10.4 207 210 209
13.9 -17.6 10.4 207 210 209
14.1 -17.4 10.3 207 210 209
14.3 -17.4 10.3 205 205 205
14.6 -17.5 10.3 207 210 209
15.0 -17.7 10.4 207 210 209
15.0 -17.4 10.3 205 205 205
-10.2 -17.0 10.2 128 131 130
-12.2 -25.0 14.9 50 50 50
-11.8 -24.8 14.8 184 187 186
-11.0 -24.6 14.7 179 182 181
-10.8 -25.0 14.9 178 181 180
-10.4 -24.9 14.9 170 171 170
7.8 -17.5 10.5 208 211 210
9.2 -17.6 10.5 207 210 209
9.5 -17.5 10.5 207 210 209
10.0 -17.5 10.5 207 210 209
10.2 -17.5 10.5 207 210 209
10.4 -17.5 10.5 207 210 209
12.4 -17.5 10.5 207 210 209
13.9 -17.6 10.5 206 209 208
14.1 -17.5 10.5 206 209 208
14.3 -17.5 10.5 206 209 208
14.6 -17.5 10.5 206 209 208
14.8 -17.5 10.5 206 209 208
15.1 -17.5 10.5 206 209 208
60.7 -58.4 34.9 207 210 209
59.5 -56.4 33.7 208 211 210
-30.1 -17.6 10.7 40 40 40
-10.1 -16.7 10.1 114 116 115
-12.3 -24.9 15.1 43 42 41
-11.9 -24.7 15.0 183 186 185
-11.5 -24.7 15.0 182 185 184
-10.9 -24.8 15.1 178 178 178
-10.5 -24.7 15.0 160 160 160
-10.1 -24.6 14.9 162 162 162
67.1 -64.4 39.1 207 210 209
63.8 -60.5 36.7 207 210 209
61.5 -57.6 34.9 207 210 209
60.9 -56.2 34.1 207 210 209
46.7 -41.5 25.2 208 211 210
47.4 -41.6 25.2 206 206 206
-30.0 -17.3 10.6 31 30 29
-14.4 -17.1 10.5 65 65 65
-11.2 -25.1 15.5 175 175 175
-10.5 -24.4 15.0 158 161 160
-10.1 -24.4 15.0 154 156 156
66.5 -62.1 38.2 207 210 209
64.8 -59.7 36.7 207 210 209
62.2 -56.6 34.8 207 210 209
49.6 -43.4 26.7 208 211 210
48.5 -42.0 25.8 208 211 210
48.9 -41.8 25.7 208 211 210
-30.1 -17.1 10.7 38 40 40
-38.1 -25.0 15.6 83 84 82
-37.8 -25.0 15.6 99 98 96
-37.4 -25.0 15.6 155 158 157
-14.4 -16.8 10.5 99 99 99
-11.7 -25.2 15.7 183 186 185
-11.2 -24.9 15.5 176 176 176
-10.5 -24.1 15.0 159 162 161
70.9 -65.3 40.8 206 209 208
52.6 -46.0 28.7 207 210 209
50.7 -43.7 27.3 207 210 209
50.8 -43.3 27.0 208 211 210
51.2 -43.1 26.9 208 211 210
70.6 -32.2 20.1 182 182 182
55.7 -24.6 15.4 173 173 173
55.0 -24.2 15.1 165 168 167
-38.5 -24.6 15.6 149 149 149
-38.1 -24.6 15.6 154 154 154
-37.8 -24.6 15.6 53 52 52
-37.3 -24.6 15.6 65 65 65
-15.8 -17.0 10.8 47 49 48
-14.4 -16.5 10.5 116 115 114
-11.7 -17.7 11.2 32 33 31
-11.8 -25.0 15.8 186 188 187
-11.3 -24.6 15.6 182 182 182
53.4 -46.0 29.1 207 210 209
51.8 -44.1 27.9 207 210 209
51.9 -43.6 27.6 207 210 209
52.2 -43.3 27.4 207 210 209
54.1 -44.3 28.1 208 211 210
71.4 -32.2 20.4 183 183 183
56.4 -24.6 15.6 177 177 177
55.2 -23.9 15.1 166 169 168
-14.4 -16.3 10.5 98 98 98
-12.7 -29.1 18.7 166 166 166
83.4 -73.6 47.3 209 212 211
51.8 -42.9 27.6 207 210 209
71.2 -31.6 20.3 184 184 184
70.3 -31.0 19.9 184 184 184
57.4 -24.7 15.8 175 175 175
55.5 -23.7 15.2 168 170 169
-11.6 -17.0 11.1 28 28 28
-12.4 -27.1 17.7 173 173 173
-12.5 -28.3 18.5 169 169 169
93.5 -82.4 53.7 208 211 210
87.6 -76.1 49.6 209 212 211
85.6 -73.4 47.9 209 212 211
71.5 -31.2 20.4 185 185 185
70.0 -30.4 19.8 185 185 185
-45.2 -27.4 18.2 47 48 47
-44.7 -27.4 18.1 44 43 42
-44.3 -27.4 18.1 36 36 36
-43.9 -27.4 18.1 40 42 42
-41.3 -27.3 18.1 30 31 30
-40.7 -27.2 18.0 30 31 30
-37.7 -27.5 18.2 60 59 58
-36.9 -27.2 18.0 61 61 61
-33.2 -27.6 18.3 65 65 65
-16.7 -16.4 10.9 22 25 23
-15.3 -15.5 10.3 26 26 26
-15.5 -16.2 10.7 33 34 32
-13.1 -27.4 18.1 176 179 178
-12.8 -27.5 18.2 175 177 177
-12.6 -28.0 18.6 170 171 170
94.6 -82.1 54.4 208 211 210
93.2 -79.8 52.8 208 211 210
87.6 -74.0 49.0 208 211 210
72.3 -31.1 20.6 186 186 186
71.1 -30.4 20.1 186 186 186
63.0 -26.2 17.4 173 175 175
63.3 -26.2 17.4 169 169 169
-51.4 -29.3 19.7 26 26 26
-50.1 -29.1 19.6 29 31 29
-49.6 -29.1 19.6 28 28 28
-49.2 -29.1 19.6 29 31 29
-48.8 -29.1 19.6 26 26 26
-48.3 -29.1 19.6 29 31 29
-47.8 -29.1 19.6 26 26 26
-47.4 -29.1 19.6 40 42 42
-46.6 -28.9 19.5 54 54 54
-46.6 -29.2 19.6 64 64 64
-45.4 -29.3 19.7 40 42 42
-44.2 -28.8 19.4 40 42 42
-43.6 -28.7 19.3 48 48 48
-43.4 -28.9 19.4 119 119 119
-41.2 -29.3 19.7 33 33 31
-40.2 -28.9 19.4 56 56 56
-39.0 -29.7 20.0 72 73 71
-37.8 -29.1 19.6 66 66 66
-36.9 -29.1 19.6 70 70 70
-36.4 -29.0 19.5 62 62 62
-35.6 -28.8 19.4 61 60 59
-35.2 -28.8 19.4 62 62 62
-35.1 -29.1 19.6 58 59 59
-34.6 -29.1 19.6 58 59 59
-16.0 -16.2 10.9 31 31 31
-15.5 -16.0 10.7 26 26 26
-13.5 -28.6 19.3 176 179 178
-13.0 -28.5 19.2 175 175 175
98.0 -83.7 56.3 208 211 210
93.7 -79.0 53.1 208 211 210
90.6 -75.4 50.7 208 211 210
809.5 -401.7 270.2 197 197 197
73.9 -31.3 21.1 188 188 188
63.6 -25.9 17.4 169 169 169
63.0 -25.5 17.2 160 160 160
63.3 -25.5 17.1 156 156 156
-55.6 -28.9 19.7 53 52 52
-55.1 -28.9 19.7 67 67 67
-54.7 -28.9 19.7 75 75 75
-54.2 -28.9 19.7 75 75 75
-53.8 -28.9 19.7 62 62 62
-53.3 -28.9 19.7 135 135 135
-52.8 -28.9 19.7 135 135 135
-52.4 -28.9 19.7 10 15 11
-51.9 -28.9 19.7 19 23 20
-51.5 -28.9 19.7 26 26 26
-51.0 -28.9 19.7 29 31 29
-50.5 -28.9 19.7 29 31 29
-50.0 -28.8 19.7 29 31 29
-49.6 -28.9 19.7 20 23 21
-49.2 -28.9 19.7 26 26 26
-48.7 -28.9 19.7 29 31 29
-48.2 -28.9 19.7 20 23 21
-47.8 -28.9 19.7 36 36 36
-47.3 -28.9 19.7 61 61 61
-46.9 -28.9 19.7 74 74 74
-46.4 -28.9 19.7 75 76 76
-46.0 -28.9 19.7 68 68 68
-45.5 -28.9 19.7 50 50 50
-45.0 -28.9 19.7 55 55 55
-44.6 -28.9 19.7 64 64 64
-44.1 -28.9 19.7 131 133 132
-43.7 -28.9 19.7 93 93 93
-43.2 -28.9 19.7 135 135 135
-42.7 -28.9 19.7 172 172 172
-42.3 -28.9 19.7 37 38 37
-41.8 -28.9 19.7 28 28 28
-41.4 -28.9 19.7 20 23 21
-40.9 -28.9 19.7 10 10 10
-40.4 -28.9 19.7 9 14 10
-40.0 -28.9 19.7 27 27 27
-39.5 -28.9 19.7 41 43 42
-39.1 -28.9 19.7 46 45 43
-38.6 -28.9 19.7 57 57 57
-38.2 -28.9 19.7 60 59 58
-37.7 -28.9 19.7 70 70 70
-37.2 -28.9 19.7 70 70 70
-36.8 -28.9 19.7 77 77 77
-36.3 -28.9 19.7 66 66 66
-35.9 -28.9 19.7 70 70 70
-35.4 -28.9 19.7 62 62 62
-34.9 -28.9 19.7 70 70 70
-34.5 -28.9 19.7 67 69 67
-34.0 -28.9 19.7 78 78 78
-33.5 -28.8 19.7 148 150 150
-31.7 -28.9 19.7 20 23 21
-31.2 -28.8 19.7 28 28 28
-30.8 -28.9 19.7 30 30 30
-30.3 -28.9 19.7 28 28 28
-29.9 -28.9 19.7 25 25 25
-29.4 -28.9 19.7 32 33 31
-29.0 -28.9 19.7 28 28 28
-28.5 -28.9 19.7 32 33 31
-28.1 -28.9 19.7 28 28 28
-14.7 -28.7 19.6 180 183 182
-14.0 -28.4 19.4 179 182 181
-13.6 -28.4 19.4 178 181 180
-13.3 -28.7 19.6 176 176 176
-12.6 -29.3 20.0 162 165 164
102.6 -86.2 58.9 207 210 209
98.4 -81.6 55.8 208 211 210
93.1 -76.2 52.1 208 211 210
726.4 -354.8 242.5 198 198 198
852.7 -407.0 278.2 194 197 196
77.3 -32.5 22.2 189 189 189
63.5 -25.5 17.4 168 168 168
62.4 -24.9 17.0 162 162 162
62.6 -24.8 17.0 156 156 156
-48.8 -28.5 19.8 156 159 158
-48.3 -28.5 19.8 183 183 183
-47.8 -28.5 19.8 177 177 177
-47.4 -28.5 19.8 131 133 132
-46.9 -28.5 19.8 83 84 82
-46.5 -28.5 19.8 80 82 79
-46.0 -28.5 19.8 77 77 77
-45.5 -28.5 19.8 140 142 141
-31.8 -28.5 19.8 212 213 212
-31.3 -28.5 19.8 140 140 140
-30.8 -28.5 19.8 31 32 30
-15.7 -16.2 11.3 22 25 23
-15.4 -16.2 11.2 43 43 43
-15.2 -16.2 11.3 89 90 88
-14.7 -28.4 19.7 195 198 197
-13.7 -28.2 19.6 179 182 181
-13.4 -28.5 19.8 175 175 175
-12.9 -29.4 20.5 41 41 41
102.6 -84.8 58.9 207 210 209
103.6 -84.6 58.7 207 210 209
108.7 -85.4 59.3 208 211 210
33.9 -20.0 13.9 199 199 199
33.9 -19.8 13.8 199 199 199
636.7 -306.0 212.5 199 199 199
743.4 -349.2 242.5 195 198 197
76.4 -31.6 21.9 190 190 190
76.8 -31.5 21.9 190 190 190
76.2 -31.1 21.6 190 190 190
76.3 -30.9 21.5 186 186 186
63.4 -25.0 17.4 167 167 167
62.3 -24.4 17.0 161 161 161
62.4 -24.3 16.9 156 156 156
62.7 -24.3 16.9 150 152 152
-28.0 -16.1 11.4 157 160 159
-27.8 -16.1 11.4 184 184 184
-27.5 -16.1 11.4 173 175 175
-27.2 -16.1 11.4 154 153 151
-27.0 -16.1 11.4 140 142 141
-26.7 -16.1 11.4 142 144 143
-26.4 -16.1 11.4 80 82 79
-26.2 -16.1 11.4 92 92 92
-25.9 -16.1 11.4 196 196 196
-25.7 -16.1 11.4 201 203 203
-25.4 -16.1 11.4 159 162 161
-25.1 -16.1 11.4 95 94 93
-24.9 -16.1 11.4 87 87 87
-16.4 -16.1 11.3 31 32 30
-16.1 -16.1 11.3 105 105 105
-15.8 -16.0 11.3 36 37 36
-15.5 -16.0 11.3 102 102 102
-15.3 -16.1 11.3 25 25 25
-15.0 -16.0 11.3 38 38 38
-14.7 -16.0 11.3 118 120 119
-14.6 -16.1 11.4 148 150 150
-14.3 -16.1 11.4 67 67 67
-14.0 -16.1 11.4 43 45 45
-13.8 -16.1 11.4 70 72 69
-13.6 -28.4 20.0 159 159 159
-13.6 -29.4 20.8 138 140 139
-12.9 -28.9 20.4 44 44 44
109.4 -90.2 63.7 207 210 209
104.2 -84.8 59.9 207 210 209
106.2 -85.3 60.2 207 210 209
112.6 -88.1 62.2 207 210 209
109.4 -84.5 59.7 208 211 210
109.7 -83.7 59.1 208 211 210
116.6 -87.9 62.0 208 211 210
118.4 -88.1 62.2 208 211 210
33.8 -19.8 14.0 199 199 199
34.0 -19.7 13.9 199 199 199
34.1 -19.6 13.9 199 199 199
609.3 -288.1 203.4 200 200 200
75.9 -30.9 21.8 191 191 191
76.4 -30.9 21.8 191 191 191
75.7 -30.4 21.4 191 191 191
75.9 -30.3 21.4 188 188 188
62.5 -24.1 17.0 161 161 161
62.5 -24.0 16.9 156 156 156
62.5 -23.8 16.8 150 150 150
62.3 -23.6 16.7 141 143 142
-28.5 -16.0 11.5 151 151 151
-28.3 -16.0 11.5 148 148 148
-28.0 -16.0 11.5 164 164 164
-27.7 -16.0 11.5 174 176 176
-27.5 -16.0 11.5 142 144 143
-27.2 -16.0 11.5 104 103 101
-26.9 -16.0 11.5 201 203 203
-26.6 -15.9 11.4 200 200 200
-26.4 -15.9 11.4 50 50 50
-26.1 -16.0 11.5 39 41 41
-25.9 -16.0 11.5 129 129 129
-25.6 -16.0 11.5 111 111 111
-25.3 -16.0 11.5 90 90 90
-25.1 -16.0 11.5 94 93 92
-17.6 -16.0 11.5 2 7 3
-17.3 -16.0 11.5 58 58 58
-17.1 -16.0 11.5 107 107 105
-16.8 -16.0 11.5 112 112 112
-16.5 -15.9 11.4 124 124 124
-15.9 -15.9 11.4 66 66 66
-15.6 -15.8 11.4 36 36 36
-15.4 -15.9 11.4 36 36 36
-15.1 -15.9 11.4 85 85 85
-14.9 -15.9 11.4 45 45 45
-14.7 -16.0 11.5 30 29 29
-14.4 -16.0 11.5 30 29 29
-14.1 -16.0 11.5 43 45 45
-13.9 -16.0 11.5 68 68 68
-13.6 -16.0 11.5 33 33 31
-14.7 -30.3 21.7 178 178 178
-13.9 -29.7 21.3 180 183 182
-13.1 -28.9 20.7 117 119 118
104.2 -83.4 59.9 206 209 208
126.8 -97.6 70.1 211 211 211
110.4 -83.9 60.2 207 210 209
33.3 -19.4 13.9 197 197 197
33.5 -19.4 13.9 197 197 197
33.8 -19.3 13.9 200 200 200
33.9 -19.2 13.8 200 200 200
74.4 -29.4 21.1 192 192 192
72.5 -28.4 20.4 189 189 189
72.9 -28.4 20.4 186 186 186
73.4 -28.4 20.4 183 183 183
64.6 -24.7 17.7 167 167 167
62.9 -23.9 17.1 158 158 158
62.8 -23.7 17.0 154 156 156
62.8 -23.6 16.9 145 147 147
62.4 -23.2 16.7 140 140 140
-33.2 -18.6 13.6 123 125 124
-32.9 -18.6 13.6 174 174 174
-32.6 -18.6 13.6 202 204 204
-32.2 -18.6 13.6 115 114 114
-17.4 -18.6 13.6 34 33 32
-14.9 -30.2 22.0 182 182 182
-14.4 -30.1 22.0 182 185 184
-14.8 -32.2 23.5 148 148 148
310.3 -223.4 163.1 208 211 210
33.1 -18.9 13.8 200 200 200
70.3 -27.5 20.1 193 193 193
71.8 -27.9 20.3 193 193 193
71.5 -27.6 20.1 190 190 190
72.1 -27.6 20.2 184 184 184
73.0 -27.8 20.3 178 181 180
73.2 -27.7 20.2 169 171 170
63.7 -23.6 17.2 151 151 151
63.5 -23.4 17.1 142 141 140
63.3 -23.2 16.9 136 136 136
-17.0 -17.9 13.3 33 33 31
-16.6 -17.8 13.2 35 35 35
-15.4 -30.7 22.8 181 181 181
-15.2 -31.4 23.3 179 179 179
-15.2 -32.5 24.2 172 174 174
227.7 -159.2 118.2 208 211 210
158.6 -73.0 54.2 207 207 207
82.1 -30.7 22.8 175 175 175
-15.4 -32.4 24.5 158 158 158
-14.7 -32.1 24.3 27 27 27
609.0 -403.8 305.1 214 214 214
157.2 -71.1 53.7 190 192 192
84.3 -31.0 23.4 172 172 172
84.9 -31.0 23.4 163 163 163
73.4 -25.7 19.4 135 135 135
-16.1 -32.1 24.7 84 86 86
-15.5 -32.0 24.6 86 86 86
725.7 -502.0 386.0 211 211 211
726.1 -473.0 363.8 214 214 214
86.0 -31.1 23.9 149 149 149
87.1 -31.3 24.0 140 142 141
73.7 -25.6 19.7 134 134 134
73.0 -25.2 19.4 132 132 132
74.4 -25.6 19.7 134 134 134
-30.4 -16.1 12.6 61 61 61
-30.1 -16.1 12.6 41 41 41
-29.9 -16.1 12.6 47 47 47
-29.5 -16.0 12.5 29 31 29
-29.3 -16.1 12.6 25 25 25
-29.0 -16.1 12.6 24 24 24
-28.7 -16.1 12.6 24 24 24
-28.4 -16.1 12.6 163 166 165
-14.3 -16.0 12.5 106 108 108
-13.9 -15.9 12.4 47 47 47
-17.4 -32.9 25.8 138 138 138
-16.3 -31.9 25.0 90 90 90
-15.6 -31.7 24.8 87 87 87
-15.6 -32.9 25.7 65 65 65
-15.3 -33.4 26.1 115 114 114
543.5 -383.5 300.3 210 210 210
683.8 -464.6 363.8 211 211 211
699.2 -447.4 350.3 212 213 212
87.1 -30.9 24.2 134 134 134
88.8 -31.3 24.5 131 134 133
89.5 -31.3 24.5 131 134 133
74.7 -25.5 20.0 129 129 129
-35.0 -15.6 12.4 75 76 76
-34.7 -15.6 12.4 75 76 76
-34.5 -15.6 12.4 67 69 67
-34.2 -15.6 12.5 134 136 135
-33.9 -15.6 12.5 176 179 178
-33.6 -15.6 12.5 176 179 178
-33.3 -15.6 12.5 182 182 182
-33.0 -15.6 12.5 168 168 168
-32.7 -15.6 12.4 186 188 187
-32.5 -15.6 12.5 212 214 214
-32.2 -15.6 12.5 98 97 95
-31.9 -15.6 12.4 29 31 29
-31.6 -15.6 12.5 53 52 52
-30.7 -15.6 12.5 75 75 75
-30.4 -15.6 12.4 72 72 72
-30.1 -15.6 12.4 62 64 61
-29.8 -15.6 12.4 38 38 38
-29.5 -15.6 12.4 38 38 38
-29.2 -15.6 12.4 35 35 35
-29.0 -15.6 12.4 25 25 25
-28.7 -15.6 12.5 19 23 20
-28.4 -15.6 12.5 17 21 18
-28.1 -15.6 12.4 156 156 156
-27.8 -15.6 12.4 189 189 189
-27.5 -15.6 12.5 194 197 196
-27.2 -15.6 12.5 162 161 159
-27.0 -15.6 12.5 157 157 157
-26.6 -15.6 12.4 181 181 181
-14.5 -15.6 12.5 128 130 129
-14.2 -15.6 12.4 77 77 77
-13.8 -15.4 12.3 36 37 36
-16.3 -31.3 25.0 90 92 91
-15.6 -31.0 24.8 88 90 89
686.5 -431.2 343.9 212 213 212
90.3 -31.2 24.9 121 121 121
91.7 -31.5 25.2 123 123 123
75.9 -25.4 20.3 121 121 121
-27.8 -15.3 12.5 156 156 156
-27.6 -15.3 12.5 191 191 191
-26.7 -15.3 12.5 199 199 199
-14.2 -15.3 12.5 35 35 35
93.1 -31.6 25.7 111 111 111
94.1 -31.8 25.8 112 112 112
95.6 -32.1 26.1 112 112 112
-19.3 -35.6 29.5 95 95 95
50.5 -16.8 14.0 108 108 108
51.1 -16.9 14.0 109 111 111
51.4 -16.9 14.0 107 107 107
-21.1 -36.8 31.1 121 123 122
-20.0 -36.2 30.6 96 96 96
-19.1 -35.9 30.3 93 93 93
51.1 -16.6 14.0 105 105 105
51.5 -16.6 14.0 102 104 104
51.7 -16.6 14.0 100 102 102
-87.0 -35.9 30.9 143 143 142
-86.7 -36.1 31.1 70 70 70
-86.0 -36.1 31.1 65 65 65
-85.3 -36.1 31.1 119 121 120
-84.6 -36.1 31.1 204 204 204
-83.7 -36.0 31.0 145 147 147
-82.8 -35.9 31.0 143 143 142
-82.3 -36.0 31.0 188 190 190
-20.9 -35.9 30.9 116 116 116
-20.1 -35.8 30.8 97 97 97
-19.4 -35.8 30.8 95 95 95
51.2 -16.3 14.1 99 99 99
51.5 -16.3 14.0 97 97 97
52.0 -16.3 14.1 90 90 90
-27.9 -13.6 12.0 132 132 132
-26.5 -13.5 11.9 160 160 160
-26.0 -13.5 11.9 181 181 181
-7.8 -11.6 10.2 202 202 202
-22.3 -40.3 35.4 94 94 94
-20.8 -39.0 34.3 84 84 84
699.2 -398.5 350.3 218 218 218
51.3 -16.0 14.1 96 96 96
51.6 -16.0 14.1 80 83 82
-23.3 -11.1 10.0 181 184 183
-22.8 -11.2 10.0 134 134 134
-22.6 -11.2 10.0 17 21 18
-22.4 -11.1 10.0 2 7 3
-22.1 -11.2 10.0 17 21 18
-21.9 -11.2 10.0 28 28 28
-21.7 -11.2 10.0 82 82 82
-7.8 -11.3 10.1 200 200 200
-24.4 -41.7 37.4 97 100 99
-23.0 -40.7 36.5 95 98 97
-21.2 -39.0 35.0 103 105 105
-20.5 -39.1 35.1 13 17 14
602.7 -357.3 320.6 217 217 217
712.4 -397.7 356.9 216 216 216
814.1 -439.2 394.1 214 214 214
51.3 -15.7 14.1 87 87 87
51.4 -15.6 14.0 79 81 80
51.4 -15.5 13.9 71 71 71
-7.8 -11.1 10.2 200 200 200
-26.1 -43.5 39.9 96 99 98
-24.0 -41.5 38.1 99 99 99
-22.3 -40.0 36.7 115 115 115
51.2 -15.2 14.0 79 81 80
51.4 -15.2 13.9 75 76 76
51.8 -15.2 13.9 75 76 76
52.1 -15.2 13.9 75 76 76
-73.7 -46.3 43.4 92 92 92
-70.7 -46.3 43.4 232 232 232
-7.8 -10.9 10.2 199 199 199
-27.7 -45.3 42.4 95 98 97
-24.9 -42.2 39.5 101 101 101
51.2 -14.9 14.0 88 88 88
51.4 -14.9 13.9 79 82 81
51.8 -14.9 13.9 78 78 78
52.2 -14.9 14.0 79 82 81
-144.7 -53.7 51.4 38 40 40
-147.1 -55.0 52.7 75 77 75
-145.9 -55.0 52.7 116 116 116
-142.7 -54.3 52.0 117 119 118
-144.3 -55.4 53.0 88 88 88
-140.7 -54.4 52.1 78 80 78
-132.2 -54.4 52.1 167 167 167
-131.0 -54.4 52.1 129 129 129
-129.8 -54.4 52.1 75 75 75
-128.5 -54.4 52.1 79 81 79
-127.3 -54.4 52.1 67 69 67
-126.1 -54.4 52.1 144 144 144
-120.9 -54.3 52.0 100 100 100
-119.4 -54.1 51.8 136 138 137
-118.9 -54.4 52.1 175 177 177
-117.6 -54.4 52.1 2 7 3
-116.4 -54.4 52.1 36 37 36
-115.2 -54.4 52.1 45 44 43
-114.0 -54.4 52.1 25 25 25
-112.8 -54.4 52.1 18 22 19
-111.6 -54.4 52.1 118 120 119
-110.4 -54.4 52.1 121 121 121
-95.3 -54.1 51.8 226 226 226
-96.5 -55.5 53.1 222 222 222
-94.5 -55.0 52.7 218 221 220
-92.0 -54.3 52.0 209 212 211
-91.2 -54.6 52.3 198 198 198
-90.5 -54.9 52.5 82 82 82
-90.1 -55.4 53.0 68 70 68
-88.6 -55.2 52.8 84 84 84
-85.9 -54.3 52.0 211 211 211
-159.5 -57.9 56.6 94 94 94
-157.7 -57.7 56.5 137 137 137
-155.9 -57.5 56.3 59 59 59
-137.6 -57.5 56.3 84 84 84
-135.5 -57.2 56.0 132 132 132
-128.9 -57.2 56.0 122 122 122
-127.1 -57.5 56.3 42 42 42
-108.4 -59.5 58.2 229 229 229
-107.4 -59.6 58.4 230 230 230
-105.7 -59.5 58.2 231 231 231
-100.0 -57.0 55.8 228 228 228
-98.7 -57.0 55.8 225 225 225
-97.0 -57.5 56.3 212 213 212
-95.7 -57.5 56.3 40 40 40
-94.7 -57.7 56.5 71 71 71
-92.8 -57.3 56.1 117 117 117
-90.4 -56.7 55.5 194 197 196
-7.8 -10.4 10.2 200 200 200
-34.8 -56.3 55.1 102 102 102
-33.0 -55.5 54.4 112 111 110
-33.5 -58.6 57.3 31 33 33
-119.7 -65.8 65.9 237 237 237
-100.9 -56.2 56.3 230 230 230
-96.0 -56.4 56.5 181 184 183
-93.4 -56.4 56.5 56 56 56
-7.8 -10.2 10.2 199 199 199
-33.4 -54.9 55.0 112 112 112
14.7 -10.0 10.0 216 216 216
-135.9 -72.0 73.9 225 225 225
-7.8 -9.9 10.2 197 197 197
-47.0 -72.6 74.5 101 101 101
-43.8 -70.4 72.2 113 115 114
-42.0 -70.1 71.9 46 46 46
-43.8 -76.2 78.2 22 22 22
-42.0 -76.2 78.2 155 155 155
-39.9 -75.6 77.5 181 181 181
-7.8 -9.7 10.2 198 198 198
-49.9 -75.3 79.1 100 100 100
-45.8 -71.7 75.4 112 112 112
-46.8 -76.3 80.2 23 24 23
-46.5 -79.0 83.0 20 20 20
-43.5 -76.9 80.8 167 167 167
-7.8 -9.5 10.2 198 198 198
-54.2 -79.8 86.0 99 101 101
-48.7 -74.4 80.2 112 112 112
-49.5 -78.8 84.8 27 27 27
-47.8 -79.1 85.2 26 25 24
-45.0 -77.7 83.7 165 165 165
-43.2 -78.1 84.1 182 182 182
193.3 -84.0 90.5 198 198 198
152.4 -65.5 70.6 200 200 200
-7.9 -9.2 10.2 197 197 197
-53.4 -82.7 91.4 23 24 23
-49.6 -80.0 88.4 20 20 20
-46.6 -78.5 86.8 166 166 166
-48.6 -85.6 94.6 181 181 181
223.2 -95.7 105.7 179 179 179
200.0 -84.8 93.6 198 198 198
157.1 -65.9 72.8 200 200 200
-7.8 -9.0 10.2 194 194 194
-63.1 -95.3 108.1 33 33 33
-54.1 -85.1 96.5 36 37 36
-51.6 -84.7 96.0 176 176 176
14.4 -8.9 10.0 218 221 220
211.4 -88.3 100.1 172 172 172
178.7 -73.8 83.7 197 197 197
159.5 -65.2 73.9 200 200 200
178.6 -69.2 78.5 202 202 202
185.0 -71.0 80.5 202 202 202
192.6 -73.2 83.0 203 203 203
-7.9 -8.8 10.2 196 196 196
-90.5 -127.9 148.9 89 91 90
-69.9 -102.8 119.7 30 30 30
-63.5 -97.3 113.3 23 24 23
-68.2 -109.0 127.0 168 170 169
-68.5 -114.4 133.2 180 183 182
14.4 -8.6 10.0 218 221 220
207.0 -84.2 98.0 175 177 177
180.3 -72.5 84.4 195 195 195
165.3 -65.8 76.6 199 199 199
134.0 -52.7 61.4 200 200 200
83.0 -32.0 37.2 200 200 200
182.3 -68.8 80.2 202 202 202
194.1 -72.5 84.4 202 202 202
197.8 -73.2 85.2 202 202 202
192.8 -70.6 82.2 203 203 203
195.6 -70.9 82.6 203 203 203
192.5 -69.1 80.5 205 205 205
-126.3 -205.3 245.7 179 179 179
184.5 -72.2 86.4 193 193 193
129.8 -49.7 59.5 200 200 200
81.7 -30.6 36.7 200 200 200
209.0 -76.0 90.9 202 202 202
207.1 -74.5 89.2 202 202 202
199.8 -71.2 85.2 202 202 202
200.0 -70.6 84.4 205 205 205
200.1 -69.9 83.7 207 207 207
-221.0 -320.1 394.1 26 25 24
13.0 -8.1 10.0 219 222 221
14.5 -8.2 10.1 218 221 220
14.6 -8.1 10.0 218 221 220
187.9 -71.5 88.0 193 193 193
129.4 -48.2 59.3 199 199 199
117.2 -43.2 53.1 200 200 200
81.9 -29.8 36.7 200 200 200
214.2 -75.7 93.2 202 202 202
210.1 -73.5 90.5 202 202 202
198.2 -68.0 83.7 205 205 205
199.3 -67.7 83.3 207 207 207
14.6 -7.9 10.0 218 221 220
227.0 -84.8 107.5 170 172 172
203.0 -75.0 95.1 182 182 182
152.4 -55.7 70.6 199 199 199
130.2 -47.1 59.7 197 197 197
118.2 -42.3 53.6 199 199 199
120.3 -42.2 53.4 198 198 198
133.8 -45.9 58.2 200 200 200
211.1 -71.8 90.9 202 202 202
-7.8 -7.8 10.2 193 193 193
227.0 -82.3 107.5 124 124 124
150.7 -53.5 69.8 195 195 195
132.7 -46.6 60.8 195 195 195
118.2 -41.0 53.6 197 197 197
120.0 -40.8 53.3 198 198 198
142.0 -47.8 62.4 198 198 198
140.2 -46.7 61.0 198 198 198
212.1 -70.0 91.4 200 200 200
161.2 -50.6 66.1 230 230 230
150.7 -51.8 69.8 186 186 186
136.7 -46.5 62.6 195 195 195
118.2 -39.8 53.6 197 197 197
146.4 -47.8 64.3 198 198 198
161.2 -49.1 66.1 225 227 227
147.4 -49.1 68.3 186 186 186
112.7 -36.8 51.1 195 195 195
116.4 -37.2 51.7 198 198 198
147.4 -46.6 64.8 198 198 198
160.1 -47.2 65.7 231 231 231
-7.9 -7.1 10.2 190 190 190
24.5 -9.8 14.1 223 225 225
149.0 -48.1 69.0 181 181 181
117.5 -37.1 53.3 194 194 194
119.3 -36.9 53.0 197 197 197
147.4 -45.1 64.8 198 198 198
164.3 -48.8 70.1 200 200 200
161.8 -46.2 66.4 229 228 226
-203.3 -57.1 84.8 60 60 60
-207.9 -58.9 87.6 56 56 56
-198.6 -59.2 88.0 62 61 60
-196.6 -59.2 88.0 58 59 59
-187.6 -57.1 84.8 58 59 59
-190.7 -58.6 87.2 59 59 59
-180.9 -58.1 86.4 53 52 52
-178.1 -57.8 86.0 53 52 52
-167.7 -55.1 81.9 48 47 46
-159.6 -53.0 78.8 44 46 46
24.5 -9.5 14.1 223 225 225
181.1 -57.1 84.8 155 155 155
154.7 -48.2 71.7 180 180 180
119.9 -36.6 54.4 194 194 194
121.0 -36.2 53.7 195 195 195
149.4 -44.2 65.7 197 197 197
176.7 -50.7 75.4 200 200 200
185.9 -52.8 78.5 204 204 204
187.7 -52.8 78.5 204 204 204
205.7 -57.3 85.2 199 199 199
168.3 -46.4 69.0 229 228 226
-211.8 -58.0 89.2 33 33 31
-210.7 -58.2 89.7 33 33 31
-206.6 -58.2 89.7 188 188 188
-203.5 -58.0 89.2 181 184 183
-201.4 -58.0 89.2 25 25 25
-199.4 -58.0 89.2 22 25 23
-197.3 -58.0 89.2 30 29 29
-196.9 -59.1 90.9 28 28 28
-194.7 -59.1 90.9 25 25 25
-189.9 -58.2 89.7 32 33 31
-187.8 -58.2 89.7 32 33 31
-185.7 -58.2 89.7 38 38 38
24.3 -9.2 14.1 223 225 225
24.5 -9.1 14.1 223 225 225
212.5 -65.4 100.6 129 129 129
180.3 -54.9 84.4 158 158 158
162.7 -49.0 75.4 175 177 177
181.8 -50.4 77.5 200 200 200
185.1 -50.8 78.2 204 204 204
187.7 -51.0 78.5 204 204 204
203.0 -54.6 84.1 196 196 196
117.8 -29.7 45.7 73 75 75
30.9 -7.0 10.8 114 116 115
31.8 -7.0 10.8 121 121 121
-248.2 -71.8 114.6 28 28 28
-222.6 -65.1 103.9 22 25 23
24.5 -8.9 14.2 223 225 225
24.6 -8.9 14.1 220 223 222
184.5 -54.1 86.4 161 161 161
205.2 -55.4 88.4 200 200 200
191.2 -51.1 81.5 200 200 200
189.8 -50.2 80.2 202 202 202
196.7 -51.5 82.2 205 205 205
117.2 -29.5 47.2 116 116 116
110.3 -27.6 44.0 70 72 72
131.6 -32.3 51.5 71 71 71
112.8 -27.4 43.8 73 75 75
-491.2 -120.1 199.1 67 67 67
-432.0 -106.6 176.8 73 73 73
-457.8 -114.1 189.2 70 72 69
-444.5 -111.8 185.5 71 72 70
-423.6 -107.6 178.5 71 72 70
-427.5 -109.7 181.9 77 77 77
-411.4 -106.6 176.8 91 93 91
-399.9 -104.7 173.5 171 173 173
-403.2 -106.6 176.8 143 143 142
-406.7 -108.6 180.2 77 77 77
-391.3 -105.6 175.2 67 67 67
-380.2 -103.7 172.0 63 63 63
-417.4 -118.8 197.0 56 56 56
-396.3 -114.1 189.2 56 56 56
-353.0 -102.8 170.4 68 68 68
-376.2 -110.8 183.7 106 106 106
-383.1 -114.1 189.2 150 150 150
-420.8 -126.8 210.2 57 57 57
-366.9 -111.8 185.5 163 163 163
-310.8 -95.9 159.0 93 96 95
24.9 -8.7 14.5 224 226 226
24.7 -8.6 14.2 220 223 222
213.7 -61.0 101.2 104 106 106
193.3 -54.6 90.5 161 161 161
129.8 -35.9 59.5 189 189 189
114.6 -31.3 52.0 193 193 193
115.4 -30.9 51.3 198 198 198
202.0 -53.6 88.8 196 196 196
222.9 -58.5 97.0 198 198 198
211.1 -54.8 90.9 199 199 199
201.6 -51.9 86.0 202 202 202
191.4 -48.8 80.8 204 204 204
201.0 -50.7 84.1 207 207 207
214.4 -53.6 88.8 202 202 202
193.6 -46.6 77.2 59 61 60
-561.3 -137.1 236.5 77 77 77
-555.8 -137.1 236.5 79 79 79
-525.1 -132.1 227.9 83 84 82
-532.6 -135.4 233.5 70 70 70
-489.2 -135.4 233.5 67 67 67
-565.2 -163.7 282.3 67 67 67
-450.9 -132.1 227.9 67 67 67
24.5 -8.1 14.1 222 224 224
24.6 -8.1 13.9 222 224 224
27.1 -8.2 14.1 222 224 224
199.0 -54.0 93.2 146 148 148
152.4 -40.9 70.6 175 175 175
130.2 -34.6 59.7 186 186 186
118.5 -31.2 53.7 191 191 191
119.0 -30.6 52.8 194 194 194
149.9 -38.2 65.9 196 196 196
219.6 -54.8 94.6 199 199 199
173.2 -42.8 73.9 202 202 202
179.9 -44.0 76.0 202 202 202
165.9 -39.5 68.0 235 235 235
174.4 -40.3 69.5 66 66 66
168.0 -38.5 66.4 64 64 64
191.2 -43.0 74.2 61 64 63
24.5 -7.8 14.1 222 224 224
27.4 -8.4 15.1 222 224 224
27.5 -8.3 15.0 223 225 225
27.8 -8.3 15.0 223 225 225
27.2 -7.9 14.1 223 225 225
219.5 -57.8 103.9 69 72 71
156.5 -40.3 72.5 170 171 170
203.0 -49.7 89.2 199 199 199
236.3 -57.2 102.8 196 196 196
214.2 -51.4 92.3 199 199 199
183.3 -43.5 78.2 202 202 202
182.8 -43.0 77.2 205 205 205
191.7 -44.6 80.2 205 205 205
215.4 -49.7 89.2 195 195 195
180.8 -41.3 74.2 235 235 235
119.0 -26.7 47.9 98 100 100
178.3 -39.6 71.1 74 76 75
199.8 -43.1 77.5 60 62 61
24.8 -7.6 14.3 223 225 225
27.4 -8.1 15.2 221 221 221
27.7 -8.1 15.1 223 225 225
28.0 -8.0 15.1 223 225 225
28.3 -8.0 15.0 223 225 225
27.5 -7.6 14.3 223 225 225
109.2 -26.4 49.5 189 189 189
107.3 -25.7 48.1 194 194 194
109.2 -25.9 48.5 194 194 194
296.8 -69.6 130.5 196 196 196
310.5 -72.1 135.1 196 196 196
222.9 -51.2 96.0 199 199 199
227.4 -51.7 97.0 202 202 202
197.3 -44.4 83.3 203 203 203
238.1 -53.1 99.6 205 205 205
219.6 -48.5 90.9 200 200 200
185.3 -39.4 73.9 72 74 74
230.0 -48.0 90.1 66 66 66
24.8 -7.4 14.5 222 222 222
24.8 -7.3 14.3 222 222 222
25.2 -7.3 14.3 222 222 222
25.7 -7.3 14.4 222 222 222
27.4 -7.7 15.1 222 222 222
26.5 -7.4 14.5 222 222 222
26.8 -7.4 14.5 222 222 222
27.1 -7.3 14.4 224 226 226
27.3 -7.3 14.3 224 226 226
27.5 -7.3 14.3 224 226 226
305.2 -68.4 134.2 196 196 196
312.8 -69.4 136.1 197 197 197
229.8 -50.0 98.0 200 200 200
215.3 -46.4 90.9 203 203 203
232.3 -46.4 90.9 70 70 70
23.9 -7.1 14.5 222 222 222
24.1 -7.0 14.5 222 222 222
24.5 -7.0 14.5 222 222 222
24.7 -7.0 14.4 222 222 222
24.9 -7.0 14.3 222 222 222
26.0 -7.0 14.4 224 224 224
26.4 -7.0 14.4 224 224 224
26.8 -7.0 14.4 224 224 224
27.1 -7.0 14.4 224 224 224
27.3 -7.0 14.3 224 224 224
27.5 -6.9 14.3 224 224 224
27.4 -6.8 14.1 224 224 224
290.8 -62.2 127.8 195 195 195
222.9 -46.7 96.0 197 197 197
213.2 -44.3 90.9 200 200 200
202.7 -41.7 85.6 203 203 203
204.7 -41.7 85.6 205 205 205
209.5 -42.2 86.8 200 200 200
222.6 -42.4 87.2 68 68 68
223.6 -42.2 86.8 62 64 64
24.2 -6.4 13.9 224 224 224
24.4 -6.4 13.9 224 224 224
24.8 -6.4 13.9 224 224 224
26.4 -6.4 13.9 224 224 224
26.9 -6.5 13.9 224 224 224
26.8 -6.4 13.8 224 224 224
26.0 -5.7 13.0 225 225 225
14.7 -4.2 10.0 218 218 218
17.1 -4.2 10.1 225 225 225
18.4 -4.2 10.1 222 222 222
18.7 -4.2 10.1 222 222 222
18.9 -4.2 10.0 225 227 227
19.1 -4.2 10.0 225 227 227
19.4 -4.2 10.1 225 225 225
25.8 -5.5 13.1 225 225 225
14.7 -4.0 10.1 217 217 217
18.3 -4.0 10.1 222 222 222
18.5 -4.0 10.1 222 222 222
18.7 -4.0 10.1 222 222 222
19.0 -4.0 10.1 226 226 226
19.2 -4.0 10.1 226 226 226
19.5 -4.0 10.1 222 222 222
19.7 -4.0 10.1 226 226 226
19.9 -4.0 10.1 226 226 226
228.1 -36.2 91.8 120 120 120
266.5 -41.9 106.3 35 36 34
242.1 -36.3 92.3 62 64 64
244.5 -34.5 93.2 63 65 65
246.9 -32.7 94.1 63 65 65
352.6 -31.9 138.1 62 64 64
345.7 -31.0 134.2 58 59 59
266.8 -23.5 101.7 62 62 62
19.1 -2.2 10.6 222 222 222
19.5 -2.2 10.5 222 222 222
347.5 -28.3 136.1 61 61 61
340.9 -27.5 132.3 63 65 65
246.9 -19.6 94.1 65 67 66
19.4 -1.9 10.5 222 222 222
374.5 -27.1 146.6 60 60 60
366.5 -26.3 142.2 70 70 70
372.6 -26.5 143.3 77 77 77
19.6 -1.7 10.6 224 224 224
439.2 -28.0 173.5 62 64 64
380.4 -24.0 148.9 63 65 65
369.3 -23.1 143.3 75 76 76
356.4 -22.1 137.1 75 76 76
19.0 -1.5 10.6 224 224 224
19.2 -1.5 10.6 224 224 224
19.4 -1.5 10.6 224 224 224
19.6 -1.5 10.5 224 224 224
19.9 -1.5 10.6 224 224 224
20.2 -1.5 10.6 224 224 224
20.5 -1.5 10.7 224 224 224
455.9 -24.9 180.2 63 65 65
393.1 -21.1 152.6 73 73 73
351.3 -18.7 135.1 68 70 69
274.2 -14.4 104.5 63 63 63
581.4 -25.6 185.5 146 146 146
19.3 -1.2 10.5 219 222 221
20.2 -1.2 10.6 225 225 225
479.1 -22.0 191.1 77 80 79
427.4 -19.4 168.9 64 66 66
386.5 -17.4 151.3 64 66 66
353.3 -15.8 137.1 72 72 72
348.9 -15.4 134.2 66 68 67
466.9 -17.1 148.9 193 193 193
420.7 -15.3 133.2 93 93 93
19.0 -1.0 10.5 220 223 222
19.2 -1.0 10.5 220 223 222
493.5 -17.9 195.0 71 71 71
361.7 -12.8 139.1 67 69 68
502.6 -14.7 160.3 184 184 184
18.9 -0.7 10.5 220 223 222
19.1 -0.7 10.4 220 223 222
19.4 -0.7 10.5 220 223 222
503.9 -13.6 199.1 72 72 72
483.1 -13.0 189.2 68 71 70
406.5 -10.7 156.3 67 69 68
544.0 -11.9 173.5 172 174 174
503.9 -9.0 199.1 75 75 75
488.0 -8.6 191.1 65 65 65
435.3 -7.6 167.4 65 65 65
599.0 -8.6 191.1 155 155 155
77.1 1.0 21.1 137 139 138
80.1 1.0 21.5 86 86 86
81.4 1.0 21.5 93 96 95
21.2 0.8 11.3 224 226 226
21.5 0.8 11.3 224 226 226
21.9 0.8 11.4 224 226 226
77.0 1.5 21.1 124 127 126
77.2 1.5 21.0 94 97 96
78.2 1.5 21.2 89 89 89
79.4 1.5 21.4 87 87 87
79.5 1.5 21.3 87 87 87
79.7 1.5 21.2 89 89 89
80.9 1.5 21.4 89 89 89
80.4 1.5 21.1 169 169 169
21.2 1.1 11.3 225 225 225
21.9 1.1 11.4 225 225 225
77.4 2.0 21.2 124 126 125
77.5 2.0 21.1 94 97 96
79.3 2.0 21.5 88 88 88
80.2 2.0 21.6 90 90 90
80.4 2.0 21.5 88 88 88
80.9 2.0 21.5 86 85 83
81.7 2.0 21.6 90 90 90
81.3 2.0 21.4 170 171 170
81.7 2.6 22.1 88 88 88
81.9 2.6 22.0 88 88 88
81.8 2.6 21.9 88 88 88
83.0 2.6 22.0 90 90 90
83.3 2.6 22.0 94 94 94
82.9 2.6 21.8 159 159 159
85.4 3.3 23.1 89 89 89
83.9 3.2 22.6 89 89 89
83.7 3.2 22.4 89 89 89
85.0 3.2 22.6 90 90 90
85.0 3.2 22.5 92 92 92
85.0 3.1 22.3 138 140 139
18.8 1.8 10.8 217 217 217
19.0 1.8 10.8 220 220 220
19.2 1.8 10.7 222 222 222
19.4 1.8 10.7 222 222 222
19.5 1.7 10.6 221 221 221
19.6 1.7 10.6 221 221 221
20.1 1.8 10.7 225 225 225
20.4 1.8 10.7 221 221 221
20.7 1.8 10.7 224 224 224
21.0 1.8 10.8 224 224 224
21.3 1.8 10.8 224 224 224
21.4 1.8 10.7 224 224 224
22.3 1.8 10.7 190 190 190
85.4 3.8 23.0 87 87 85
87.0 3.8 23.1 91 91 91
87.0 3.8 23.0 96 96 96
87.9 3.8 23.1 96 99 98
18.6 2.0 10.8 214 214 214
18.8 2.0 10.8 218 218 218
19.0 2.0 10.8 221 221 221
19.2 2.0 10.8 221 221 221
19.5 2.0 10.8 220 220 220
19.5 2.0 10.7 222 222 222
20.2 2.0 10.7 222 222 222
20.5 2.0 10.8 222 222 222
20.7 2.0 10.8 222 222 222
21.1 2.0 10.8 225 225 225
21.3 2.0 10.8 228 228 228
21.5 2.0 10.8 225 225 225
22.3 2.0 10.7 193 193 193
87.2 4.3 23.2 96 96 96
87.4 4.3 23.1 96 96 96
19.1 2.3 10.8 219 219 219
29.6 5.0 15.2 222 222 222
29.8 4.9 15.1 225 225 225
29.6 5.3 15.2 222 222 222
29.6 5.2 15.0 222 222 222
29.9 5.2 15.0 222 222 222
29.6 5.7 15.2 224 224 224
29.6 5.6 15.0 224 224 224
-66.1 15.7 35.5 34 34 34
-66.3 16.6 35.6 41 41 41
-33.7 5.9 12.0 52 54 52
-65.0 17.1 34.9 58 59 57
-62.3 16.6 33.9 53 55 53
-61.2 16.5 33.7 50 50 50
-65.1 17.9 35.0 67 68 66
-62.2 17.3 33.8 67 69 67
70.1 90.8 144.4 74 75 73
-660.2 154.2 236.5 42 42 42
-654.7 154.2 236.5 38 38 38
-657.4 156.1 239.4 36 37 36
-651.9 156.1 239.4 34 33 32
-638.2 154.2 236.5 83 83 83
-640.7 156.1 239.4 126 128 127
-635.2 156.1 239.4 125 125 125
-621.7 154.2 236.5 116 118 117
-616.2 154.2 236.5 115 115 115
-618.5 156.1 239.4 115 114 114
-605.3 154.2 236.5 115 114 114
-599.8 154.2 236.5 117 119 118
-601.8 156.1 239.4 118 120 119
-588.8 154.2 236.5 120 122 121
-583.3 154.2 236.5 120 122 121
-577.8 154.2 236.5 124 124 124
-579.5 156.1 239.4 126 126 126
-574.0 156.1 239.4 119 121 120
-561.3 154.2 236.5 117 117 117
-555.8 154.2 236.5 110 112 111
-550.3 154.2 236.5 146 148 148
-544.8 154.2 236.5 164 164 164
-539.3 154.2 236.5 110 110 110
-533.8 154.2 236.5 99 99 99
-536.2 158.1 242.5 108 108 108
-530.6 158.1 242.5 112 114 113
-518.3 156.1 239.4 122 122 122
-527.2 162.3 248.9 123 125 124
-501.6 156.1 239.4 132 132 132
-496.0 156.1 239.4 141 141 141
-490.5 156.1 239.4 163 163 163
-478.8 154.2 236.5 170 169 168
-479.3 156.1 239.4 172 172 172
-473.8 156.1 239.4 170 169 168
-462.4 154.2 236.5 156 156 156
-456.9 154.2 236.5 134 137 136
-451.4 154.2 236.5 134 137 136
-445.9 154.2 236.5 124 126 125
-440.4 154.2 236.5 124 126 125
-434.9 154.2 236.5 120 120 120
-429.4 154.2 236.5 121 121 121
-423.9 154.2 236.5 118 118 118
-418.4 154.2 236.5 120 120 120
-412.9 154.2 236.5 111 113 112
-407.4 154.2 236.5 108 108 108
-401.9 154.2 236.5 110 110 110
-396.4 154.2 236.5 116 116 116
-411.1 164.5 252.2 132 132 132
-389.7 158.1 242.5 134 136 135
-374.4 154.2 236.5 145 145 144
-368.9 154.2 236.5 156 156 156
-363.4 154.2 236.5 147 149 149
-362.5 156.1 239.4 175 177 177
-352.4 154.2 236.5 169 169 169
-346.9 154.2 236.5 160 160 160
-341.4 154.2 236.5 173 173 173
-336.0 154.2 236.5 147 149 149
-330.5 154.2 236.5 144 144 144
-325.0 154.2 236.5 123 125 124
-315.5 152.3 233.5 123 125 124
-314.0 154.2 236.5 111 113 112
-308.5 154.2 236.5 90 90 90
-318.9 162.3 248.9 93 93 93
-326.0 169.0 259.1 99 99 99
-299.5 158.1 242.5 90 90 90
-282.6 158.1 242.5 29 31 29
-273.4 156.1 239.4 107 107 107
-264.5 154.2 236.5 124 127 126
-251.2 156.1 239.4 132 135 134
-242.5 154.2 236.5 128 128 128
-237.0 154.2 236.5 97 97 97
-225.9 150.4 230.7 160 163 162
-226.0 154.2 236.5 148 150 150
-226.2 158.1 242.5 141 140 139
-215.0 154.2 236.5 119 119 119
-212.2 156.1 239.4 165 168 167
-206.6 156.1 239.4 163 166 165
-198.6 154.2 236.5 160 163 162
-186.7 158.1 242.5 117 117 117
-112.0 156.1 239.4 217 217 217
-102.2 158.1 242.5 211 211 211
-96.5 158.1 242.5 206 209 208
-89.8 156.1 239.4 203 205 205
-83.1 154.2 236.5 219 219 219
-77.6 154.2 236.5 228 228 228
-72.1 154.2 236.5 231 231 231
-61.2 154.2 236.5 234 234 234
-12.1 160.2 245.7 220 220 220
4.8 154.2 236.5 198 198 198
104.8 164.5 252.2 62 64 61
104.0 146.8 225.2 75 76 74
85.0 114.2 175.2 77 79 78
95.2 122.1 187.3 77 79 77
147.8 173.7 266.4 27 29 27
142.0 160.2 245.7 59 60 58
142.2 154.2 236.5 72 73 71
153.4 160.2 245.7 71 72 70
-1086.9 260.7 386.0 50 50 50
-895.2 216.5 320.6 42 43 42
-873.0 212.9 315.3 46 45 43
-865.6 212.9 315.3 54 54 54
-872.9 216.5 320.6 74 74 74
-851.0 212.9 315.3 105 107 107
-857.9 216.5 320.6 118 120 119
-850.5 216.5 320.6 121 121 121
-829.0 212.9 315.3 117 119 118
-821.7 212.9 315.3 117 119 118
-828.1 216.5 320.6 117 117 117
-807.0 212.9 315.3 117 117 117
-799.7 212.9 315.3 118 120 119
-805.8 216.5 320.6 119 121 120
-798.3 216.5 320.6 121 123 122
-777.7 212.9 315.3 121 123 122
-770.4 212.9 315.3 122 124 123
-776.0 216.5 320.6 120 122 121
-768.5 216.5 320.6 120 120 120
-748.4 212.9 315.3 116 116 116
-741.1 212.9 315.3 119 119 119
-746.2 216.5 320.6 148 148 148
-726.4 212.9 315.3 162 162 162
-719.1 212.9 315.3 110 110 110
-688.8 206.0 305.1 100 102 102
-704.4 212.9 315.3 102 104 104
-733.8 224.1 331.9 115 117 116
-701.5 216.5 320.6 124 126 125
-671.2 209.4 310.1 133 133 133
-664.0 209.4 310.1 137 139 138
-715.5 228.1 337.8 139 141 140
-660.4 212.9 315.3 151 153 153
-653.1 212.9 315.3 153 155 155
-656.7 216.5 320.6 162 162 162
-649.3 216.5 320.6 176 179 178
-652.9 220.3 326.1 175 175 175
-634.4 216.5 320.6 181 181 181
-616.5 212.9 315.3 178 181 180
-609.2 212.9 315.3 171 170 169
-601.8 212.9 315.3 168 168 168
-594.5 212.9 315.3 159 159 159
-587.2 212.9 315.3 149 149 149
-579.8 212.9 315.3 149 149 149
-572.5 212.9 315.3 149 151 151
-565.2 212.9 315.3 132 132 132
-557.9 212.9 315.3 124 126 125
-550.5 212.9 315.3 118 118 118
-543.2 212.9 315.3 114 116 115
-527.1 209.4 310.1 117 117 117
-528.5 212.9 315.3 122 122 122
-579.1 236.6 350.3 124 127 126
-571.0 236.6 350.3 130 130 130
-524.0 220.3 326.1 133 133 133
-499.2 212.9 315.3 144 144 144
-500.2 216.5 320.6 198 201 200
-501.3 220.3 326.1 196 195 193
-502.4 224.1 331.9 211 211 211
-469.9 212.9 315.3 224 226 226
-470.4 216.5 320.6 232 234 234
-455.3 212.9 315.3 238 238 238
-455.5 216.5 320.6 238 238 238
-440.6 212.9 315.3 238 238 238
-433.3 212.9 315.3 229 229 229
-419.0 209.4 310.1 168 167 166
-411.8 209.4 310.1 120 120 120
-404.6 209.4 310.1 113 115 114
-457.3 241.0 356.9 116 116 116
-449.0 241.0 356.9 117 117 117
-402.7 220.3 326.1 131 134 133
-375.7 209.4 310.1 89 89 89
-381.0 216.5 320.6 39 39 39
-400.7 232.3 343.9 33 33 33
-372.4 220.3 326.1 155 155 155
-346.9 209.4 310.1 135 135 135
-345.3 212.9 315.3 133 133 133
-368.7 232.3 343.9 132 132 132
-336.3 216.5 320.6 97 100 99
-323.4 212.9 315.3 84 84 84
-316.0 212.9 315.3 115 117 116
-289.4 199.6 295.6 160 160 160
-301.4 212.9 315.3 119 119 119
-299.0 216.5 320.6 119 119 119
-291.6 216.5 320.6 134 134 134
-284.1 216.5 320.6 170 169 168
-276.7 216.5 320.6 164 167 166
-256.2 206.0 305.1 162 165 164
-242.8 212.9 315.3 112 114 113
-227.8 206.0 305.1 106 106 106
-273.7 255.5 378.3 95 98 97
-191.9 241.0 356.9 200 200 200
-164.9 216.5 320.6 218 218 218
-157.4 216.5 320.6 199 199 199
-150.0 216.5 320.6 211 211 211
-175.2 266.1 394.1 211 211 211
-166.0 266.1 394.1 210 210 210
-156.9 266.1 394.1 206 209 208
-120.2 216.5 320.6 203 205 205
-110.8 212.9 315.3 214 214 214
-100.2 206.0 305.1 218 218 218
-93.1 206.0 305.1 222 222 222
-88.9 212.9 315.3 230 230 230
-78.9 206.0 305.1 234 234 234
-71.8 206.0 305.1 234 234 234
-68.0 216.5 320.6 234 234 234
-28.6 266.1 394.1 226 226 226
-9.0 232.3 343.9 205 205 205
6.3 209.4 310.1 205 208 207
16.8 260.7 386.0 205 205 205
126.7 206.0 305.1 63 64 62
129.7 199.6 295.6 69 69 69
136.5 199.6 295.6 75 75 75
125.7 175.0 259.1 77 79 77
145.7 193.6 286.6 77 77 77
172.1 209.4 310.1 26 26 26
173.6 202.8 300.3 64 64 64
192.8 216.5 320.6 74 75 73
218.8 236.6 350.3 73 74 72
207.7 216.5 320.6 72 73 71
-245.8 116.1 146.6 102 102 102
-217.2 104.0 131.4 98 97 95
-186.9 119.8 151.3 64 64 64
-162.5 106.2 134.2 57 58 56
-159.4 106.2 134.2 34 34 34
-123.0 101.9 128.7 99 99 99
-120.0 101.9 128.7 181 181 181
-76.0 117.0 147.8 150 150 150
-34.0 114.3 144.4 203 205 205
-28.3 105.4 133.2 210 210 210
185.4 253.8 320.6 75 76 76
185.4 261.2 320.6 79 79 79
237.0 366.9 394.1 101 101 101
236.3 352.2 378.3 103 104 102
196.1 311.2 326.1 98 98 98
196.9 300.8 315.3 100 100 100
-220.3 212.2 168.9 142 144 143
23.9 16.2 10.7 168 168 168
25.1 16.2 10.7 137 137 137
25.3 16.2 10.7 194 197 196
27.0 16.3 10.8 220 223 222
27.4 16.3 10.7 103 103 103
27.7 16.3 10.7 95 98 97
40.2 16.2 10.7 134 134 134
24.0 16.5 10.8 188 188 188
24.2 16.5 10.7 198 198 198
25.0 16.5 10.8 218 221 220
25.2 16.5 10.7 75 76 76
25.4 16.5 10.7 161 161 161
25.6 16.4 10.7 168 168 168
25.9 16.5 10.7 169 169 169
26.2 16.5 10.8 169 169 169
26.4 16.5 10.7 172 174 174
27.1 16.6 10.8 165 168 167
27.2 16.5 10.8 132 132 132
27.5 16.5 10.8 115 115 115
27.7 16.5 10.8 108 108 108
28.0 16.5 10.8 105 105 105
28.3 16.5 10.8 106 106 106
28.5 16.5 10.8 106 106 106
28.7 16.5 10.8 99 101 101
29.0 16.5 10.8 100 102 102
39.8 16.5 10.8 130 130 130
40.0 16.5 10.8 134 134 134
40.2 16.5 10.7 124 127 126
40.3 16.5 10.7 76 76 74
25.2 16.6 10.7 152 152 152
25.3 16.5 10.6 159 159 159
40.1 16.8 10.8 126 129 128
39.8 16.6 10.7 102 102 102
39.7 16.5 10.6 72 72 72
40.0 16.5 10.6 70 70 70
25.0 16.7 10.6 146 146 146
25.1 16.6 10.5 152 152 152
25.3 16.6 10.5 154 154 154
38.1 16.5 10.5 108 110 110
38.4 16.5 10.5 115 115 115
39.5 16.7 10.6 90 90 90
39.5 16.6 10.5 70 70 70
39.7 16.6 10.5 67 67 67
