ply
format ascii 1.0
element vertex 2361
property float x
property float y
property float z
property uchar red
property uchar green
property uchar blue
end_header
99.0 -164.8 65.7 156 159 158
100.2 -164.2 65.5 156 159 158
102.1 -164.8 65.7 156 159 158
104.0 -165.4 65.9 155 158 157
105.9 -165.9 66.1 155 158 157
106.3 -164.2 65.5 156 159 158
135.2 -104.3 41.6 106 106 106
134.1 -102.7 40.9 106 106 106
134.7 -102.5 40.9 106 106 106
135.4 -102.3 40.8 104 103 101
136.9 -102.7 40.9 106 106 106
69.9 -49.3 19.7 93 93 93
70.4 -49.4 19.7 98 100 100
70.6 -49.2 19.6 90 90 90
71.5 -49.5 19.7 143 143 142
72.0 -49.5 19.7 173 173 173
30.7 -183.7 73.9 159 159 159
32.5 -184.4 74.2 159 159 159
34.4 -185.1 74.5 162 162 162
36.1 -185.1 74.5 161 161 161
38.0 -185.9 74.8 161 161 161
39.4 -184.4 74.2 161 161 161
41.0 -183.7 73.9 160 160 160
42.9 -184.4 74.2 160 160 160
44.8 -185.1 74.5 162 162 162
46.5 -185.1 74.5 162 162 162
48.2 -185.1 74.5 162 162 162
49.8 -184.4 74.2 162 162 162
51.7 -185.1 74.5 166 166 166
53.4 -185.1 74.5 166 166 166
54.7 -183.7 73.9 166 166 166
56.7 -184.4 74.2 166 166 166
58.4 -184.4 74.2 166 166 166
60.4 -185.1 74.5 166 166 166
62.1 -185.1 74.5 166 166 166
63.8 -185.1 74.5 166 166 166
65.6 -185.1 74.5 166 166 166
67.3 -185.1 74.5 167 167 167
68.8 -184.4 74.2 167 167 167
70.8 -185.1 74.5 167 167 167
72.5 -185.1 74.5 164 164 164
73.9 -184.4 74.2 164 164 164
75.6 -184.4 74.2 164 164 164
77.7 -185.1 74.5 164 164 164
79.4 -185.1 74.5 164 164 164
80.8 -184.4 74.2 165 165 165
82.2 -183.7 73.9 162 162 162
83.9 -183.7 73.9 162 162 162
86.0 -184.4 74.2 162 162 162
87.4 -183.7 73.9 162 162 162
89.8 -185.1 74.5 163 163 163
91.5 -185.1 74.5 163 163 163
93.6 -185.9 74.8 163 163 163
94.6 -184.4 74.2 163 163 163
96.3 -184.4 74.2 163 163 163
100.0 -188.1 75.7 163 163 163
508.9 -940.4 378.3 163 163 163
107.5 -185.9 74.8 161 161 161
111.9 -187.3 75.4 156 159 158
110.6 -182.3 73.3 156 159 158
114.9 -186.6 75.1 156 159 158
113.5 -181.6 73.0 156 159 158
116.6 -183.7 73.9 157 160 159
118.8 -184.4 74.2 157 160 159
116.8 -178.8 71.9 158 161 160
65.0 -94.0 37.8 159 162 161
65.6 -93.7 37.7 158 161 160
69.8 -97.2 39.1 158 161 160
128.2 -97.4 39.2 106 106 106
128.6 -97.0 39.0 104 103 101
130.3 -97.6 39.2 104 103 101
131.5 -97.8 39.3 104 103 101
60.6 -40.3 16.2 159 159 159
39.9 -184.8 75.1 163 163 163
41.2 -182.7 74.2 160 160 160
50.6 -185.6 75.4 165 165 165
53.6 -190.1 77.2 162 162 162
54.7 -187.8 76.3 166 166 166
55.4 -184.1 74.8 168 170 169
57.1 -184.1 74.8 166 166 166
59.3 -185.6 75.4 166 166 166
61.1 -185.6 75.4 163 163 163
62.8 -185.6 75.4 166 166 166
64.6 -185.6 75.4 166 166 166
66.3 -185.6 75.4 166 166 166
68.1 -185.6 75.4 167 167 167
69.8 -185.6 75.4 169 171 170
71.3 -184.8 75.1 164 164 164
73.6 -186.3 75.7 164 164 164
74.8 -184.8 75.1 164 164 164
76.9 -185.6 75.4 164 164 164
79.2 -187.1 76.0 164 164 164
80.7 -186.3 75.7 164 164 164
81.8 -184.8 75.1 165 165 165
83.2 -184.1 74.8 165 165 165
84.9 -184.1 74.8 159 159 159
87.4 -185.6 75.4 159 159 159
88.1 -183.4 74.5 160 160 160
91.2 -186.3 75.7 163 163 163
94.1 -188.6 76.6 163 163 163
96.3 -189.4 76.9 163 163 163
94.6 -182.7 74.2 163 163 163
98.3 -186.3 75.7 163 163 163
103.3 -192.5 78.2 163 163 163
101.0 -184.8 75.1 163 163 163
112.0 -198.2 80.5 163 163 163
110.1 -191.7 77.8 164 164 164
106.3 -182.0 73.9 164 164 164
112.8 -190.1 77.2 161 161 161
113.2 -187.8 76.3 161 161 161
118.2 -190.1 77.2 156 159 158
115.8 -183.4 74.5 156 159 158
119.4 -186.3 75.7 165 165 165
122.6 -188.6 76.6 162 162 162
117.7 -178.5 72.5 163 163 163
66.8 -95.8 38.9 159 162 161
66.5 -94.1 38.2 160 163 162
72.2 -100.8 40.9 160 163 162
72.5 -100.0 40.6 158 161 160
72.5 -98.7 40.1 159 162 161
72.2 -97.0 39.4 159 162 161
78.3 -101.3 41.1 160 163 162
76.5 -97.9 39.7 161 164 163
116.6 -87.1 35.4 106 106 106
58.6 -39.3 16.0 196 196 196
58.5 -39.0 15.8 196 196 196
59.4 -39.1 15.9 170 171 170
58.7 -38.4 15.6 162 165 164
58.9 -38.3 15.6 218 218 218
59.2 -38.3 15.5 193 193 193
59.7 -38.3 15.6 200 202 202
88.4 -169.0 69.3 163 163 163
103.3 -190.7 78.2 166 166 166
453.2 -756.4 310.1 164 164 164
351.0 -576.8 236.5 164 164 164
62.4 -99.4 40.8 164 164 164
62.2 -97.6 40.0 164 164 164
125.4 -193.9 79.5 165 165 165
129.4 -197.2 80.8 165 165 165
66.8 -94.9 38.9 164 164 164
66.8 -93.6 38.4 165 165 165
71.6 -99.0 40.6 165 165 165
72.7 -99.2 40.7 165 165 165
73.5 -99.0 40.6 161 164 163
71.8 -95.5 39.2 159 162 161
79.8 -102.3 41.9 160 163 162
76.9 -97.3 39.9 161 164 163
54.4 -36.1 14.8 196 199 198
54.4 -36.0 14.7 196 199 198
56.2 -36.4 14.9 212 213 212
56.0 -36.1 14.8 200 202 202
56.2 -36.0 14.8 196 199 198
56.5 -35.9 14.7 212 213 212
71.6 -135.6 56.1 166 166 166
55.9 -102.2 42.3 169 169 169
345.6 -571.3 236.5 167 167 167
289.5 -471.2 195.0 167 167 167
279.6 -448.1 185.5 167 167 167
130.3 -199.6 82.6 168 168 168
133.4 -201.3 83.3 168 168 168
125.4 -186.5 77.2 163 163 163
83.5 -111.5 46.1 166 166 166
99.8 -129.8 53.7 162 165 164
92.8 -119.3 49.4 160 163 162
85.9 -109.1 45.1 160 163 162
65.2 -45.2 18.7 95 95 95
63.8 -44.0 18.2 93 93 93
53.4 -35.1 14.5 196 199 198
53.4 -34.9 14.5 196 196 196
52.5 -34.1 14.1 188 188 188
52.7 -34.1 14.1 165 168 167
55.1 -35.4 14.6 209 209 209
55.0 -35.1 14.5 182 185 184
55.3 -35.1 14.5 215 215 215
55.7 -35.1 14.5 212 213 212
19.9 -85.7 35.8 166 166 166
20.6 -85.4 35.7 166 169 168
24.6 -87.7 36.7 166 169 168
41.6 -85.9 35.9 168 168 168
45.1 -86.2 36.0 168 168 168
45.8 -85.9 35.9 169 169 169
46.7 -86.1 36.0 169 169 169
48.4 -87.5 36.6 171 173 173
48.4 -86.1 36.0 171 173 173
264.1 -419.1 175.2 172 174 174
55.9 -86.1 36.0 172 174 174
55.2 -83.7 35.0 172 172 172
132.8 -198.5 83.0 172 172 172
124.9 -184.0 76.9 172 172 172
113.3 -164.6 68.8 173 173 173
85.4 -112.9 47.2 169 169 169
93.8 -119.4 49.9 167 167 167
63.5 -43.6 18.2 95 95 95
62.2 -42.4 17.7 93 93 93
51.3 -33.7 14.1 140 140 140
51.6 -33.7 14.1 193 193 193
52.1 -33.8 14.1 200 202 202
51.9 -33.4 14.0 180 183 182
52.0 -33.3 13.9 182 185 184
53.5 -33.8 14.1 212 213 212
53.6 -33.7 14.1 219 219 219
53.9 -33.6 14.1 218 218 218
18.2 -80.9 34.1 168 170 169
19.0 -81.3 34.3 166 169 168
19.7 -80.9 34.1 166 169 168
20.3 -80.0 33.8 166 169 168
22.2 -81.3 34.3 166 169 168
23.0 -81.3 34.3 166 169 168
32.3 -80.5 34.0 169 171 170
33.2 -80.8 34.1 169 171 170
34.0 -80.8 34.1 169 171 170
34.8 -80.8 34.1 169 171 170
35.5 -80.8 34.1 169 171 170
36.3 -80.6 34.0 169 171 170
37.0 -80.5 34.0 170 172 172
38.8 -82.5 34.8 170 172 172
38.7 -80.8 34.1 170 172 172
39.4 -80.5 34.0 172 174 174
40.2 -80.5 34.0 170 172 172
40.9 -80.5 34.0 170 172 172
42.2 -81.3 34.3 170 172 172
42.8 -80.9 34.1 173 175 175
43.4 -80.6 34.0 173 175 175
44.2 -80.6 34.0 173 175 175
45.4 -81.3 34.3 171 173 173
45.9 -80.9 34.1 171 173 173
47.1 -81.6 34.5 173 175 175
48.4 -82.4 34.8 173 175 175
49.0 -82.1 34.6 171 173 173
49.4 -81.3 34.3 171 173 173
50.2 -81.3 34.3 172 174 174
50.7 -80.9 34.1 172 174 174
51.3 -80.6 34.0 174 176 176
54.9 -84.9 35.8 174 176 176
54.1 -82.5 34.8 172 174 174
54.0 -81.1 34.2 175 177 177
54.1 -80.0 33.8 173 175 175
48.4 -61.7 26.1 176 176 176
46.7 -58.8 24.8 174 174 174
62.5 -42.5 17.9 95 95 95
61.3 -41.4 17.5 95 95 95
59.7 -40.1 16.9 95 95 95
50.3 -31.9 13.4 182 185 184
52.3 -32.5 13.7 218 218 218
52.3 -32.4 13.7 218 218 218
18.4 -77.9 33.2 166 169 168
19.1 -77.6 33.1 166 169 168
19.6 -76.4 32.6 166 169 168
20.5 -77.2 32.9 166 169 168
30.5 -77.2 32.9 171 173 173
31.4 -77.5 33.0 171 173 173
32.1 -77.5 33.0 172 174 174
32.9 -77.5 33.0 172 174 174
33.4 -76.9 32.8 172 174 174
34.5 -77.6 33.1 172 174 174
35.2 -77.5 33.0 169 171 170
35.9 -77.3 33.0 172 174 174
36.8 -77.6 33.1 170 172 172
37.5 -77.5 33.0 172 174 174
37.9 -76.7 32.7 177 177 177
38.9 -77.2 32.9 177 177 177
39.7 -77.3 33.0 180 180 180
40.9 -78.0 33.2 178 178 178
41.2 -77.2 32.9 178 178 178
41.7 -76.7 32.7 178 178 178
42.4 -76.7 32.7 178 178 178
43.4 -77.1 32.8 178 178 178
44.1 -76.9 32.8 181 181 181
45.3 -77.7 33.1 178 178 178
46.2 -77.9 33.2 178 178 178
46.9 -77.7 33.1 173 175 175
47.2 -77.1 32.8 179 179 179
48.0 -77.1 32.8 179 179 179
48.6 -76.8 32.7 182 182 182
49.6 -77.2 32.9 179 179 179
52.5 -79.3 33.8 179 179 179
52.2 -77.6 33.1 180 180 180
52.6 -77.1 32.8 175 177 177
53.7 -77.6 33.1 175 177 177
59.5 -39.6 16.9 95 95 95
40.8 -70.4 30.3 199 199 199
40.4 -68.7 29.6 199 199 199
44.7 -72.2 31.1 199 199 199
43.7 -69.5 29.9 199 199 199
44.2 -69.1 29.7 203 203 203
44.6 -68.8 29.6 199 199 199
50.4 -74.2 32.0 200 200 200
51.9 -75.2 32.4 198 198 198
68.7 -47.4 20.4 98 100 100
68.0 -46.6 20.1 98 100 100
37.2 -64.6 28.1 203 203 203
38.5 -64.7 28.1 203 203 203
43.7 -69.9 30.4 203 203 203
44.0 -69.3 30.1 203 203 203
44.2 -68.5 29.8 203 203 203
26.9 -35.1 15.3 206 206 206
27.0 -34.7 15.1 207 207 207
66.1 -44.8 19.5 104 103 101
44.6 -70.6 31.0 206 206 206
43.5 -65.7 28.9 206 206 206
27.5 -36.4 16.0 206 206 206
27.6 -36.1 15.8 206 206 206
27.0 -34.9 15.3 203 203 203
27.0 -34.3 15.1 204 204 204
62.8 -42.2 18.5 106 106 106
36.3 -66.5 29.5 206 206 206
36.9 -66.4 29.5 206 206 206
38.2 -66.3 29.4 206 206 206
38.8 -66.2 29.4 206 206 206
39.5 -66.2 29.4 206 206 206
43.0 -66.3 29.4 206 206 206
44.2 -66.1 29.3 206 206 206
27.6 -36.2 16.1 206 206 206
27.7 -35.9 15.9 206 206 206
27.6 -35.3 15.7 206 206 206
27.0 -34.1 15.1 207 207 207
69.5 -46.8 20.8 111 111 111
65.3 -43.7 19.4 108 108 108
62.7 -41.7 18.5 108 108 108
34.9 -65.9 29.6 208 208 208
35.5 -65.6 29.4 205 205 205
36.2 -65.6 29.4 205 205 205
36.8 -65.6 29.4 205 205 205
37.5 -65.6 29.4 205 205 205
38.1 -65.4 29.3 205 205 205
42.5 -65.9 29.6 212 213 212
42.9 -65.4 29.3 209 209 209
43.9 -65.9 29.6 206 206 206
44.4 -65.6 29.4 206 206 206
44.2 -64.3 28.8 206 206 206
27.5 -35.8 16.0 208 208 208
27.7 -35.4 15.9 206 206 206
27.2 -34.4 15.4 206 206 206
27.0 -33.7 15.1 206 206 206
27.2 -33.5 15.0 206 206 206
66.6 -44.1 19.8 111 111 111
42.3 -63.8 28.9 208 208 208
44.2 -64.7 29.3 208 208 208
43.1 -62.1 28.1 208 208 208
27.7 -35.1 15.9 207 207 207
27.5 -34.4 15.6 208 208 208
26.8 -33.2 15.0 206 206 206
27.0 -32.9 14.9 206 206 206
23.9 -24.4 11.0 162 162 162
426.2 -309.2 140.1 136 136 136
302.0 -217.4 98.5 133 133 133
301.1 -215.2 97.5 132 132 132
41.4 -61.9 28.4 207 207 207
43.8 -63.4 29.1 208 208 208
27.7 -34.8 15.9 207 207 207
27.1 -33.6 15.4 207 207 207
26.8 -32.8 15.0 207 207 207
26.9 -32.4 14.8 208 208 208
27.1 -32.3 14.8 206 206 206
302.0 -215.1 98.5 141 141 141
295.1 -208.6 95.5 139 139 139
-29.1 -22.5 10.4 45 44 43
-28.8 -22.5 10.4 46 46 46
-28.4 -22.5 10.4 45 44 43
-28.1 -22.5 10.4 45 44 43
-26.7 -22.6 10.4 45 44 43
-16.0 -22.5 10.4 118 120 119
-15.3 -22.5 10.4 124 124 124
-15.0 -22.5 10.4 123 123 123
-9.4 -22.4 10.4 137 137 137
-9.2 -22.5 10.4 138 140 139
-9.0 -22.6 10.5 139 138 137
-8.8 -22.6 10.4 140 140 140
43.5 -62.4 28.9 207 207 207
43.2 -60.9 28.2 207 207 207
27.7 -34.4 15.9 206 206 206
27.1 -33.3 15.4 206 206 206
26.8 -32.4 15.0 207 207 207
26.9 -32.1 14.8 207 207 207
27.1 -31.9 14.8 207 207 207
-15.7 -22.5 10.5 118 120 119
-15.4 -22.5 10.5 117 119 118
-15.2 -22.5 10.5 119 121 120
-9.6 -22.6 10.6 135 135 135
-9.4 -22.6 10.6 138 140 139
-8.9 -22.5 10.5 141 141 141
44.6 -63.2 29.6 206 206 206
27.1 -32.8 15.4 206 206 206
26.8 -32.1 15.0 206 206 206
27.0 -31.8 14.9 206 206 206
27.1 -31.6 14.8 207 207 207
27.7 -31.9 14.9 207 207 207
-31.2 -23.4 11.1 47 48 47
-31.1 -23.5 11.1 47 48 47
-30.8 -23.5 11.1 47 48 47
-30.6 -23.5 11.1 47 48 47
-30.3 -23.5 11.1 47 48 47
-30.1 -23.5 11.1 50 50 50
-29.8 -23.5 11.1 50 50 50
-29.5 -23.5 11.1 52 52 52
-29.3 -23.5 11.1 50 50 50
-29.1 -23.6 11.1 50 50 50
-28.8 -23.6 11.1 50 50 50
-28.5 -23.5 11.1 47 48 47
-28.2 -23.5 11.1 47 48 47
-28.0 -23.5 11.1 46 45 43
-27.7 -23.5 11.1 46 45 43
-27.5 -23.5 11.1 46 45 43
-27.2 -23.5 11.1 42 43 42
-27.0 -23.6 11.1 42 43 42
-26.7 -23.6 11.2 42 43 42
-26.4 -23.5 11.1 42 43 42
-26.2 -23.6 11.1 42 43 42
-26.0 -23.6 11.2 42 43 42
-25.7 -23.6 11.2 42 43 42
-25.5 -23.6 11.2 42 43 42
-24.9 -23.6 11.2 40 40 40
-24.6 -23.5 11.1 42 43 42
-24.4 -23.5 11.1 40 40 40
-24.1 -23.5 11.1 40 40 40
-23.9 -23.5 11.1 41 41 41
-23.6 -23.5 11.1 43 43 43
-23.3 -23.5 11.1 41 41 41
-23.1 -23.5 11.1 43 43 43
-22.8 -23.5 11.1 46 45 43
-22.6 -23.5 11.1 47 47 47
-22.3 -23.6 11.2 46 45 43
-22.0 -23.5 11.1 51 51 51
-21.7 -23.5 11.1 72 71 69
-20.8 -23.6 11.1 96 99 98
-20.5 -23.5 11.1 96 99 98
-20.2 -23.5 11.1 97 100 99
-20.0 -23.5 11.1 101 101 101
-19.7 -23.5 11.1 101 101 101
-19.5 -23.5 11.1 103 103 103
-19.2 -23.5 11.1 103 103 103
-19.0 -23.6 11.2 105 105 105
-18.7 -23.5 11.1 106 106 106
-18.4 -23.5 11.1 106 106 106
-18.1 -23.5 11.1 107 109 109
-14.8 -21.7 10.3 118 118 118
-14.5 -21.5 10.2 118 118 118
-10.4 -23.6 11.2 131 134 133
-10.1 -23.5 11.1 134 134 134
47.5 -67.7 32.0 206 206 206
45.9 -64.4 30.5 206 206 206
53.0 -68.9 32.6 207 207 207
53.8 -69.1 32.7 207 207 207
27.0 -32.3 15.3 208 208 208
26.9 -31.8 15.1 205 205 205
27.0 -31.6 14.9 206 206 206
27.3 -31.5 14.9 206 206 206
27.8 -31.7 15.0 206 206 206
-17.0 -21.5 10.3 103 103 103
-16.5 -21.5 10.3 103 103 103
-15.1 -21.6 10.3 111 113 112
-14.9 -21.5 10.3 115 115 115
48.1 -67.7 32.4 208 208 208
54.2 -69.7 33.4 206 206 206
55.1 -69.9 33.4 206 206 206
26.9 -31.9 15.3 210 210 210
27.0 -31.6 15.1 207 207 207
27.1 -31.3 15.0 205 205 205
27.4 -31.3 15.0 205 205 205
28.0 -31.5 15.1 206 206 206
18.9 -28.5 13.8 208 208 208
18.8 -28.0 13.5 208 208 208
52.3 -67.5 32.7 205 205 205
54.5 -69.3 33.5 206 206 206
55.4 -69.6 33.7 206 206 206
27.0 -31.7 15.3 207 207 207
27.1 -31.3 15.2 207 207 207
27.2 -31.1 15.0 207 207 207
27.7 -31.3 15.1 205 205 205
28.1 -31.3 15.1 205 205 205
-41.6 -31.0 15.1 54 54 54
-41.2 -31.0 15.1 54 54 54
-40.9 -31.0 15.1 54 54 54
-38.8 -31.0 15.2 50 50 50
-38.4 -30.9 15.1 50 50 50
-31.7 -30.9 15.1 46 46 46
-27.5 -30.9 15.1 50 49 48
-27.2 -31.0 15.1 47 47 47
12.0 -26.6 13.0 207 207 207
21.4 -31.0 15.1 207 207 207
21.8 -31.0 15.2 207 207 207
22.7 -31.7 15.5 207 207 207
23.0 -31.7 15.5 207 207 207
48.7 -63.1 30.9 208 208 208
51.1 -65.2 31.9 208 208 208
53.3 -67.1 32.8 205 205 205
54.1 -67.1 32.8 205 205 205
27.0 -31.3 15.3 206 206 206
27.1 -31.0 15.2 206 206 206
28.2 -31.0 15.2 207 207 207
-44.9 -32.3 16.0 50 50 50
-44.8 -32.4 16.0 53 52 52
-44.5 -32.5 16.1 55 55 55
-44.2 -32.5 16.1 55 55 55
-43.7 -32.5 16.1 55 55 55
-43.3 -32.4 16.0 57 58 56
-42.6 -32.5 16.1 55 55 55
-41.5 -32.5 16.1 55 55 55
-41.0 -32.4 16.0 55 55 55
-40.6 -32.4 16.0 53 53 53
-35.1 -32.4 16.0 47 47 47
-34.9 -32.6 16.1 47 47 47
-34.2 -32.3 16.0 47 47 47
-33.9 -32.4 16.0 47 47 47
-33.6 -32.4 16.0 47 47 47
-33.1 -32.3 16.0 47 47 47
-32.7 -32.3 16.0 45 45 45
-32.5 -32.4 16.0 42 43 42
-32.1 -32.5 16.1 45 45 45
-30.7 -32.5 16.1 41 41 41
-29.8 -32.3 16.0 42 42 42
-29.4 -32.3 16.0 43 43 43
-29.1 -32.4 16.0 47 48 47
-28.9 -32.6 16.1 46 46 46
-28.3 -32.3 16.0 44 44 44
-27.9 -32.3 16.0 56 57 55
-16.3 -31.4 15.5 19 19 19
-16.1 -32.4 16.0 29 30 28
8.5 -21.2 10.5 209 209 209
9.2 -21.2 10.5 209 209 209
9.5 -21.2 10.5 207 207 207
9.7 -21.2 10.5 207 207 207
21.9 -31.8 15.7 207 207 207
22.1 -31.5 15.6 207 207 207
23.2 -32.0 15.8 207 207 207
23.4 -31.8 15.8 207 207 207
48.1 -61.6 30.5 207 207 207
47.3 -59.7 29.6 207 207 207
53.1 -66.0 32.7 207 207 207
53.7 -65.9 32.6 208 208 208
26.9 -30.8 15.2 206 206 206
27.1 -30.6 15.2 206 206 206
28.2 -30.7 15.2 206 206 206
-45.6 -32.4 16.2 53 53 53
-45.3 -32.4 16.2 55 55 55
-45.0 -32.5 16.3 58 59 57
-44.7 -32.5 16.3 53 53 53
-44.2 -32.5 16.3 55 55 55
-43.9 -32.5 16.3 58 59 57
-43.5 -32.5 16.3 56 56 56
-43.1 -32.5 16.3 56 56 56
-42.8 -32.5 16.3 56 56 56
-42.4 -32.5 16.3 58 59 57
-42.0 -32.5 16.3 58 59 57
-41.6 -32.4 16.2 56 56 56
-41.2 -32.4 16.2 56 56 56
-40.9 -32.5 16.3 59 60 58
-40.4 -32.4 16.2 56 56 56
-37.5 -32.5 16.3 47 48 47
-37.1 -32.5 16.3 51 50 48
-36.7 -32.5 16.3 47 48 47
-36.3 -32.5 16.3 47 48 47
-35.9 -32.5 16.3 47 48 47
-35.5 -32.4 16.2 47 48 47
-35.3 -32.5 16.3 47 48 47
-34.8 -32.5 16.3 47 48 47
-34.5 -32.5 16.3 45 45 45
-34.2 -32.7 16.3 46 46 46
-33.8 -32.5 16.3 48 48 48
-33.3 -32.5 16.3 46 46 46
-32.9 -32.4 16.2 43 43 43
-32.6 -32.5 16.3 48 48 48
-32.2 -32.5 16.3 46 46 46
-31.8 -32.5 16.3 44 44 44
-31.4 -32.5 16.3 42 42 42
-31.0 -32.5 16.3 42 42 42
-30.7 -32.6 16.3 40 40 40
-30.3 -32.5 16.3 40 40 40
-29.9 -32.5 16.3 42 43 42
-29.6 -32.5 16.3 40 40 40
-29.2 -32.6 16.3 42 43 42
-28.8 -32.5 16.3 41 41 41
-28.5 -32.6 16.3 43 43 43
-28.0 -32.4 16.2 47 48 47
-27.6 -32.4 16.2 49 49 49
-16.9 -32.2 16.1 26 26 26
-16.6 -32.2 16.1 26 26 26
-16.2 -32.4 16.2 26 26 26
-15.9 -32.5 16.3 27 27 27
-15.6 -32.6 16.3 25 25 25
-15.2 -32.7 16.3 25 25 25
-13.4 -32.8 16.4 33 36 35
7.8 -23.9 12.0 209 209 209
8.6 -21.1 10.6 209 209 209
8.8 -21.1 10.6 211 211 211
9.1 -21.2 10.6 209 209 209
9.3 -21.1 10.6 209 209 209
9.6 -21.1 10.6 209 209 209
9.8 -21.1 10.6 206 206 206
14.5 -24.1 12.0 206 206 206
14.4 -23.5 11.7 206 206 206
46.7 -60.0 30.0 206 206 206
48.1 -60.9 30.5 207 207 207
50.6 -63.2 31.6 207 207 207
52.3 -64.4 32.2 207 207 207
53.1 -64.4 32.2 207 207 207
53.0 -63.4 31.7 207 207 207
-46.2 -32.4 16.4 56 56 56
-46.1 -32.6 16.5 59 60 58
-45.8 -32.7 16.5 59 60 58
-45.4 -32.7 16.5 56 56 56
-45.0 -32.6 16.5 59 60 58
-44.7 -32.7 16.5 59 60 58
-44.2 -32.6 16.5 56 56 56
-43.8 -32.6 16.5 59 60 58
-43.5 -32.9 16.7 59 60 58
-42.8 -32.7 16.6 59 60 58
-42.2 -32.6 16.5 59 60 58
-41.9 -32.6 16.5 57 57 57
-41.6 -32.7 16.5 57 57 57
-38.3 -32.8 16.6 51 51 49
-37.7 -32.7 16.5 53 52 52
-37.4 -32.7 16.5 51 51 49
-37.0 -32.7 16.5 48 48 48
-36.5 -32.6 16.5 48 48 48
-36.1 -32.6 16.5 48 48 48
-35.9 -32.8 16.6 48 48 48
-35.4 -32.6 16.5 46 46 46
-35.2 -32.8 16.6 44 44 44
-34.8 -32.8 16.6 49 49 49
-34.3 -32.7 16.6 49 49 49
-33.9 -32.7 16.6 47 47 47
-33.5 -32.7 16.5 44 44 44
-31.6 -32.7 16.6 43 43 43
-30.8 -32.6 16.5 41 41 41
-30.3 -32.6 16.5 41 41 41
-30.3 -32.9 16.7 41 40 38
-29.7 -32.7 16.6 42 42 42
-29.2 -32.5 16.5 42 42 42
-28.8 -32.6 16.5 42 42 42
-28.4 -32.6 16.5 42 43 42
-17.2 -32.3 16.4 27 27 27
-16.6 -32.0 16.2 26 26 26
-16.4 -32.3 16.4 28 28 28
-16.3 -32.8 16.6 28 28 28
-13.5 -32.7 16.6 37 37 35
7.3 -24.0 12.1 208 208 208
7.5 -23.8 12.1 208 208 208
7.8 -23.8 12.1 208 208 208
14.6 -23.8 12.1 206 206 206
14.8 -23.8 12.1 206 206 206
15.9 -24.1 12.2 206 206 206
16.2 -24.1 12.2 206 206 206
16.4 -24.1 12.2 208 208 208
16.6 -23.9 12.1 208 208 208
17.4 -24.2 12.3 210 210 210
17.5 -24.0 12.2 208 208 208
23.7 -32.1 16.2 206 206 206
46.8 -59.5 30.1 206 206 206
52.3 -62.7 31.7 206 206 206
52.3 -61.8 31.3 207 207 207
28.5 -30.3 15.4 205 205 205
-34.4 -23.8 12.2 59 60 58
-34.3 -24.0 12.3 57 57 57
-34.0 -24.0 12.3 59 61 59
-33.7 -24.0 12.3 59 61 59
-33.4 -24.0 12.3 57 57 57
-33.2 -24.0 12.3 59 61 59
-32.9 -24.0 12.3 59 61 59
-32.6 -24.0 12.3 57 57 57
-32.3 -24.0 12.3 59 61 59
-32.0 -24.0 12.3 59 61 59
-31.7 -24.0 12.3 59 61 59
-31.5 -24.0 12.3 58 58 58
-31.2 -24.0 12.3 58 58 58
-30.9 -24.0 12.3 58 58 58
-30.6 -24.0 12.3 58 58 58
-30.3 -24.0 12.3 56 56 56
-30.0 -24.0 12.3 53 53 53
-29.7 -24.0 12.3 53 53 53
-29.4 -24.0 12.3 51 51 49
-29.1 -24.0 12.3 51 51 49
-28.9 -24.0 12.3 52 52 50
-28.6 -24.0 12.3 52 52 50
-28.3 -24.0 12.3 52 52 50
-28.0 -24.0 12.3 52 52 50
-27.7 -24.0 12.3 49 49 49
-27.5 -24.0 12.3 49 49 49
-27.2 -24.0 12.3 49 49 49
-26.9 -24.0 12.3 49 49 49
-26.6 -24.0 12.3 49 49 49
-26.3 -24.0 12.3 49 49 49
-26.0 -24.0 12.3 50 50 50
-25.7 -24.0 12.3 50 50 50
-25.4 -24.0 12.3 50 50 50
-25.2 -24.0 12.3 47 48 47
-24.9 -24.0 12.3 46 46 46
-24.6 -24.0 12.3 48 48 48
-24.3 -24.0 12.3 46 46 46
-24.0 -23.9 12.3 46 46 46
-23.8 -24.0 12.3 44 44 44
-23.5 -24.0 12.3 46 46 46
-23.2 -24.0 12.3 42 42 42
-22.9 -24.0 12.3 42 42 42
-22.6 -24.0 12.3 42 43 42
-22.4 -24.1 12.3 42 43 42
-22.1 -24.1 12.3 41 41 39
-21.8 -24.0 12.3 42 42 40
-21.5 -24.0 12.3 43 43 43
-21.2 -24.0 12.3 42 42 40
-20.9 -24.0 12.3 40 40 40
-20.6 -24.0 12.3 43 42 41
-20.3 -24.0 12.3 43 42 41
-20.0 -23.9 12.3 43 42 41
-19.7 -23.9 12.3 43 42 41
-19.4 -23.9 12.3 34 34 34
-14.7 -24.1 12.3 22 25 23
-14.4 -24.1 12.3 28 28 28
-11.9 -24.2 12.4 29 31 29
-11.4 -23.8 12.2 29 30 28
-11.2 -24.0 12.3 32 31 30
-10.9 -23.9 12.3 32 32 32
-10.5 -23.8 12.2 33 33 33
-10.3 -23.9 12.2 35 37 36
-10.0 -24.0 12.3 40 40 40
-9.7 -23.9 12.2 161 161 161
-9.4 -23.8 12.2 186 186 186
-9.2 -24.1 12.3 186 188 187
-8.9 -24.1 12.4 190 190 190
6.5 -24.0 12.3 208 208 208
6.8 -24.0 12.3 208 208 208
7.1 -23.9 12.3 208 208 208
7.4 -23.9 12.3 208 208 208
7.7 -23.9 12.3 208 208 208
8.0 -24.0 12.3 208 208 208
8.2 -24.0 12.3 208 208 208
8.5 -24.0 12.3 208 208 208
8.8 -24.0 12.3 208 208 208
9.1 -24.0 12.3 208 208 208
9.4 -24.0 12.3 208 208 208
9.7 -24.0 12.3 208 208 208
10.0 -24.0 12.3 208 208 208
10.2 -24.0 12.3 208 208 208
10.5 -24.0 12.3 205 205 205
10.8 -24.0 12.3 205 205 205
11.1 -24.0 12.3 208 208 208
11.4 -24.0 12.3 205 205 205
11.7 -24.0 12.3 205 205 205
12.0 -24.0 12.3 205 205 205
12.3 -24.0 12.3 205 205 205
12.5 -23.9 12.2 208 208 208
12.8 -24.0 12.3 205 205 205
13.1 -24.0 12.3 205 205 205
13.4 -24.1 12.3 205 205 205
14.0 -24.0 12.3 208 208 208
14.3 -24.1 12.3 208 208 208
14.6 -24.1 12.3 208 208 208
14.8 -23.9 12.3 208 208 208
15.1 -24.0 12.3 205 205 205
15.4 -24.0 12.3 202 202 202
15.7 -24.0 12.3 205 205 205
16.0 -24.0 12.3 207 207 207
16.3 -24.0 12.3 207 207 207
16.6 -24.0 12.3 207 207 207
16.8 -24.0 12.3 207 207 207
17.1 -24.0 12.3 207 207 207
17.4 -24.1 12.3 207 207 207
17.7 -24.0 12.3 207 207 207
18.0 -24.0 12.3 207 207 207
18.4 -24.2 12.4 205 205 205
18.6 -24.1 12.3 207 207 207
18.9 -24.0 12.3 205 205 205
48.2 -59.6 30.6 205 205 205
51.8 -61.4 31.5 206 206 206
52.1 -60.9 31.2 206 206 206
28.5 -30.4 15.6 204 204 204
28.5 -30.0 15.4 204 204 204
28.2 -29.3 15.0 205 205 205
-35.0 -24.0 12.4 59 61 59
-34.8 -24.0 12.5 63 63 63
-34.5 -24.1 12.5 59 61 59
-34.2 -24.0 12.5 60 62 60
-33.9 -24.0 12.5 60 62 60
-33.7 -24.1 12.5 60 62 60
-33.4 -24.1 12.5 60 62 60
-33.1 -24.0 12.5 63 63 63
-32.8 -24.0 12.5 63 63 63
-32.5 -24.0 12.5 60 62 60
-32.2 -24.0 12.5 60 62 60
-31.9 -24.1 12.5 58 58 58
-31.6 -24.1 12.5 58 59 59
-31.4 -24.1 12.5 58 59 59
-31.1 -24.1 12.5 58 59 59
-30.8 -24.1 12.5 57 57 57
-30.5 -24.0 12.5 57 57 57
-30.2 -24.0 12.5 57 57 57
-29.9 -24.0 12.5 54 54 54
-29.6 -24.0 12.5 52 52 50
-29.3 -24.0 12.5 53 52 51
-29.0 -24.0 12.5 53 52 51
-28.7 -24.1 12.5 53 52 51
-28.5 -24.1 12.5 53 52 51
-28.2 -24.1 12.5 53 52 51
-27.9 -24.1 12.5 53 52 51
-27.6 -24.1 12.5 53 52 51
-27.3 -24.1 12.5 53 52 51
-27.0 -24.1 12.5 50 50 50
-26.7 -24.1 12.5 51 51 51
-26.4 -24.1 12.5 51 51 51
-26.1 -24.0 12.5 51 51 51
-25.8 -24.1 12.5 51 51 51
-25.5 -24.0 12.5 51 51 51
-25.3 -24.0 12.5 49 49 49
-25.0 -24.1 12.5 49 49 49
-24.6 -24.0 12.5 47 47 47
-24.4 -24.0 12.5 47 47 47
-24.3 -24.3 12.6 47 48 47
-24.0 -24.3 12.6 47 48 47
-23.5 -24.0 12.5 42 43 42
-23.2 -24.0 12.5 43 43 43
-23.0 -24.1 12.5 43 43 43
-22.7 -24.1 12.5 43 43 43
-22.4 -24.1 12.5 42 42 40
-22.1 -24.1 12.5 43 42 41
-21.8 -24.0 12.5 43 42 41
-21.5 -24.0 12.5 43 42 41
-21.2 -24.1 12.5 41 41 41
-20.9 -24.0 12.5 41 41 41
-20.6 -24.0 12.5 40 42 42
-20.3 -24.0 12.5 40 42 42
-20.0 -24.0 12.5 40 40 40
-14.8 -24.0 12.5 29 29 29
-14.5 -24.0 12.5 31 31 31
-12.6 -24.7 12.8 30 31 30
-12.1 -24.4 12.7 29 31 29
-11.6 -24.0 12.4 29 31 29
-11.3 -24.0 12.5 29 31 29
-11.0 -24.0 12.5 32 31 30
-10.8 -24.0 12.5 32 32 32
-10.5 -24.0 12.5 35 37 36
-10.2 -24.0 12.4 43 43 43
-9.9 -24.0 12.4 172 172 172
-9.1 -24.3 12.6 191 191 191
7.5 -24.0 12.5 207 207 207
7.8 -24.0 12.5 207 207 207
8.1 -24.0 12.5 207 207 207
8.4 -24.0 12.5 207 207 207
8.7 -24.1 12.5 207 207 207
9.0 -24.1 12.5 207 207 207
9.2 -24.1 12.5 207 207 207
9.5 -24.1 12.5 207 207 207
9.8 -24.1 12.5 207 207 207
10.7 -24.0 12.4 207 207 207
11.0 -24.0 12.4 207 207 207
11.2 -24.0 12.4 207 207 207
11.5 -24.0 12.4 205 205 205
11.8 -24.0 12.5 205 205 205
12.4 -24.1 12.5 205 205 205
13.3 -24.0 12.5 207 207 207
14.8 -24.1 12.5 207 207 207
15.0 -24.0 12.4 207 207 207
15.3 -24.0 12.5 207 207 207
15.6 -24.1 12.5 207 207 207
15.9 -24.1 12.5 209 209 209
16.2 -24.1 12.5 207 207 207
16.5 -24.1 12.5 207 207 207
16.8 -24.0 12.5 207 207 207
17.0 -24.0 12.4 207 207 207
17.7 -24.1 12.5 207 207 207
17.9 -23.9 12.4 207 207 207
18.8 -24.1 12.5 207 207 207
19.1 -24.0 12.5 205 205 205
48.1 -59.7 31.0 205 205 205
48.2 -58.9 30.6 205 205 205
52.1 -61.0 31.6 205 205 205
52.4 -60.5 31.4 205 205 205
52.8 -60.1 31.2 206 206 206
28.6 -30.1 15.6 206 206 206
28.8 -29.9 15.5 206 206 206
-35.7 -24.1 12.7 64 64 64
-35.5 -24.2 12.7 64 64 64
-35.2 -24.2 12.7 64 64 64
-34.9 -24.2 12.7 64 64 64
-34.6 -24.2 12.7 64 64 64
-34.3 -24.2 12.7 64 64 64
-34.1 -24.2 12.7 64 64 64
-33.7 -24.2 12.7 64 64 64
-33.4 -24.2 12.7 61 63 61
-33.1 -24.2 12.7 61 63 61
-32.8 -24.2 12.7 61 63 61
-32.5 -24.2 12.7 61 63 61
-32.2 -24.2 12.7 61 63 61
-31.9 -24.2 12.7 59 59 59
-31.7 -24.2 12.7 59 59 59
-31.4 -24.2 12.7 59 59 59
-31.0 -24.2 12.7 58 58 58
-30.7 -24.2 12.7 58 58 58
-30.5 -24.2 12.7 55 55 55
-30.2 -24.2 12.7 55 55 55
-29.8 -24.2 12.7 54 53 52
-29.6 -24.2 12.7 54 53 52
-29.3 -24.2 12.7 54 53 52
-29.0 -24.2 12.7 54 53 52
-28.7 -24.2 12.7 54 53 52
-28.4 -24.2 12.7 54 53 52
-28.1 -24.2 12.7 54 53 52
-27.8 -24.2 12.7 54 53 52
-27.5 -24.2 12.7 55 54 53
-27.2 -24.2 12.7 52 52 52
-26.9 -24.2 12.7 52 52 52
-26.6 -24.2 12.7 52 52 52
-26.3 -24.2 12.7 52 52 52
-26.0 -24.2 12.7 52 52 52
-25.8 -24.2 12.7 50 50 50
-25.4 -24.2 12.7 50 50 50
-25.1 -24.2 12.7 47 48 47
-24.9 -24.2 12.7 48 48 48
-24.6 -24.2 12.7 48 48 48
-24.3 -24.2 12.7 46 46 46
-23.9 -24.2 12.7 44 44 44
-23.7 -24.2 12.7 44 44 44
-23.4 -24.2 12.7 44 44 44
-23.1 -24.2 12.7 43 42 41
-22.8 -24.2 12.7 44 43 42
-22.5 -24.2 12.7 45 45 45
-22.2 -24.2 12.7 44 43 42
-21.9 -24.2 12.7 40 42 42
-21.6 -24.2 12.7 45 44 43
-21.3 -24.2 12.7 42 43 42
-21.0 -24.2 12.7 41 43 42
-20.7 -24.2 12.7 41 43 42
-15.1 -24.2 12.7 30 29 29
-14.8 -24.2 12.7 30 29 29
-13.7 -24.3 12.8 26 26 26
-13.3 -24.2 12.7 30 29 29
-13.0 -24.2 12.7 28 28 28
-12.8 -24.3 12.8 28 28 28
-12.6 -24.5 12.9 30 31 30
-12.2 -24.3 12.8 33 32 30
-11.8 -24.1 12.7 29 31 29
-11.5 -24.1 12.7 33 32 30
-11.2 -24.1 12.6 29 31 29
-10.9 -24.1 12.7 29 30 28
-10.6 -24.0 12.6 36 38 37
-10.3 -24.0 12.6 39 39 39
-10.0 -24.0 12.6 178 181 180
-9.8 -24.3 12.7 184 187 186
-9.5 -24.3 12.7 189 189 189
14.6 -24.5 12.9 207 207 207
14.8 -24.4 12.8 207 207 207
15.0 -24.2 12.7 207 207 207
15.3 -24.1 12.7 207 207 207
16.0 -24.3 12.8 207 207 207
16.2 -24.2 12.7 207 207 207
16.5 -24.2 12.7 207 207 207
16.8 -24.2 12.7 207 207 207
17.1 -24.2 12.7 207 207 207
19.1 -24.4 12.8 206 206 206
19.1 -24.1 12.7 206 206 206
19.5 -24.2 12.7 206 206 206
48.5 -58.6 30.8 204 204 204
52.4 -61.5 32.3 207 207 207
52.5 -60.7 31.8 205 205 205
52.5 -59.9 31.4 205 205 205
53.2 -59.9 31.4 205 205 205
-36.3 -24.2 12.9 64 64 64
-36.0 -24.2 12.9 64 64 64
-35.7 -24.2 12.9 65 65 65
-35.3 -24.2 12.9 65 65 65
-35.1 -24.2 12.9 65 65 65
-34.8 -24.2 12.9 65 65 65
-34.5 -24.3 12.9 65 65 65
-34.2 -24.2 12.9 65 65 65
-33.9 -24.2 12.9 65 65 65
-33.6 -24.2 12.9 65 65 65
-33.3 -24.2 12.9 65 65 65
-33.0 -24.2 12.9 62 64 61
-32.7 -24.2 12.9 62 64 61
-32.4 -24.2 12.9 62 64 61
-32.1 -24.2 12.9 63 64 62
-31.8 -24.2 12.9 63 64 62
-31.4 -24.2 12.9 60 60 60
-31.1 -24.2 12.9 58 59 59
-30.8 -24.2 12.9 56 56 56
-30.5 -24.2 12.9 54 53 52
-30.3 -24.2 12.9 55 54 53
-30.0 -24.2 12.9 56 56 56
-29.7 -24.2 12.9 55 54 53
-29.4 -24.2 12.9 55 54 53
-29.1 -24.2 12.9 57 57 57
-28.8 -24.2 12.9 57 57 57
-28.5 -24.2 12.9 55 54 53
-28.2 -24.3 12.9 56 55 54
-27.9 -24.2 12.9 56 55 54
-27.6 -24.2 12.9 56 55 54
-27.3 -24.2 12.9 53 52 52
-27.0 -24.2 12.9 53 52 52
-26.7 -24.2 12.9 53 52 52
-26.4 -24.3 12.9 53 53 53
-26.1 -24.3 12.9 53 53 53
-25.7 -24.2 12.9 53 53 53
-25.4 -24.2 12.9 51 51 51
-25.2 -24.3 12.9 49 49 49
-24.9 -24.2 12.9 49 49 49
-24.5 -24.2 12.9 47 48 47
-24.2 -24.2 12.9 45 45 45
-24.0 -24.3 12.9 45 45 45
-23.7 -24.3 12.9 45 45 45
-23.4 -24.2 12.9 44 43 42
-23.1 -24.3 12.9 45 44 43
-22.8 -24.2 12.9 45 44 43
-22.5 -24.2 12.9 42 43 42
-22.2 -24.3 12.9 42 43 42
-21.9 -24.2 12.9 46 45 43
-21.6 -24.2 12.9 43 43 43
-21.3 -24.2 12.9 42 44 43
-13.5 -24.2 12.9 35 34 33
-13.2 -24.2 12.9 30 30 30
-13.0 -24.3 12.9 30 29 29
-12.7 -24.4 13.0 30 29 29
-12.3 -24.2 12.9 43 42 41
-12.0 -24.1 12.8 46 46 46
-11.6 -24.0 12.8 48 48 48
-11.3 -24.0 12.7 52 54 52
-11.1 -24.1 12.8 73 72 70
-10.7 -24.0 12.8 36 39 38
-10.4 -23.9 12.7 46 46 46
-10.3 -24.4 13.0 184 184 184
-10.0 -24.4 13.0 184 187 186
9.2 -24.2 12.9 207 207 207
11.6 -24.2 12.9 206 206 206
11.9 -24.2 12.9 206 206 206
14.8 -24.6 13.1 206 206 206
15.0 -24.4 13.0 206 206 206
15.2 -24.2 12.9 206 206 206
16.4 -24.2 12.9 206 206 206
16.7 -24.2 12.9 206 206 206
17.1 -24.4 12.9 206 206 206
17.4 -24.3 12.9 206 206 206
18.1 -24.4 13.0 206 206 206
19.2 -24.4 13.0 206 206 206
19.4 -24.2 12.9 206 206 206
19.7 -24.3 12.9 208 208 208
47.7 -56.9 30.3 206 206 206
51.2 -60.1 32.0 206 206 206
52.8 -61.2 32.5 206 206 206
52.4 -59.8 31.8 207 207 207
52.1 -58.6 31.2 207 207 207
52.1 -57.9 30.8 207 207 207
-36.7 -24.2 13.0 65 65 65
-36.6 -24.3 13.1 65 65 65
-36.1 -24.2 13.0 65 65 65
-35.8 -24.2 13.0 65 65 65
-35.6 -24.3 13.1 66 66 66
-35.3 -24.3 13.1 66 66 66
-35.0 -24.3 13.1 66 66 66
-34.7 -24.3 13.1 66 66 66
-34.3 -24.2 13.0 66 66 66
-34.0 -24.2 13.0 66 66 66
-33.7 -24.3 13.1 66 66 66
-33.4 -24.2 13.0 63 64 62
-33.1 -24.3 13.1 63 64 62
-32.9 -24.3 13.1 63 64 62
-32.6 -24.3 13.1 64 65 63
-32.2 -24.2 13.0 64 65 63
-31.3 -24.2 13.0 59 59 59
-30.9 -24.2 13.0 59 59 59
-30.6 -24.2 13.0 56 55 54
-30.4 -24.2 13.0 58 58 58
-30.1 -24.3 13.1 56 55 54
-29.8 -24.3 13.1 58 58 58
-29.5 -24.3 13.1 60 60 60
-29.1 -24.2 13.0 58 58 58
-28.8 -24.2 13.0 56 55 54
-28.6 -24.3 13.1 57 56 55
-28.3 -24.3 13.1 57 56 55
-28.0 -24.3 13.1 57 56 55
-27.7 -24.3 13.1 57 56 55
-27.3 -24.2 13.0 57 56 55
-27.0 -24.2 13.0 54 54 54
-26.8 -24.3 13.1 54 54 54
-26.4 -24.2 13.0 52 52 52
-26.0 -24.2 13.0 54 54 54
-25.8 -24.2 13.0 53 52 52
-25.7 -24.4 13.1 53 52 52
-24.9 -24.2 13.0 50 50 50
-24.0 -24.3 13.1 47 47 47
-23.7 -24.3 13.1 47 47 47
-23.5 -24.4 13.1 47 47 47
-23.1 -24.3 13.1 46 45 43
-22.8 -24.3 13.1 43 43 43
-22.5 -24.3 13.1 46 46 44
-22.1 -24.2 13.0 44 44 44
-21.9 -24.3 13.1 43 45 44
-13.1 -24.3 13.1 69 69 69
-12.8 -24.3 13.1 85 85 85
-12.4 -24.2 13.0 49 49 49
-11.2 -24.1 12.9 84 84 84
-10.9 -24.1 12.9 19 19 19
-10.4 -24.3 13.1 184 187 186
-10.2 -24.5 13.2 183 186 185
-9.8 -24.3 13.1 181 184 183
15.1 -24.7 13.3 206 206 206
15.2 -24.4 13.1 206 206 206
46.9 -55.3 29.7 206 206 206
47.2 -54.8 29.5 206 206 206
52.3 -59.9 32.2 206 206 206
52.0 -58.7 31.6 206 206 206
51.1 -56.9 30.6 206 206 206
50.6 -55.5 29.9 206 206 206
51.6 -55.9 30.1 207 207 207
1216.5 -676.0 363.8 177 180 179
-29.8 -24.5 13.3 57 56 55
-27.6 -24.1 13.2 59 59 59
-27.8 -24.6 13.4 58 58 56
-23.5 -24.4 13.3 46 46 44
-23.2 -24.4 13.3 44 44 44
-22.6 -24.1 13.1 44 44 44
-22.3 -24.0 13.1 43 45 45
-12.8 -24.0 13.1 29 29 29
-12.5 -23.9 13.0 40 42 42
-11.2 -23.8 13.0 80 80 80
-10.5 -24.3 13.3 183 186 185
-10.2 -24.4 13.3 182 185 184
46.8 -54.4 29.6 205 205 205
52.2 -58.9 32.1 206 206 206
51.5 -57.4 31.3 206 206 206
50.9 -55.9 30.5 206 206 206
50.5 -54.7 29.8 206 206 206
51.6 -55.2 30.1 206 206 206
52.7 -55.5 30.3 206 206 206
988.4 -542.4 295.6 177 180 179
-37.8 -24.3 13.4 67 67 67
-37.5 -24.3 13.4 67 67 67
-37.2 -24.3 13.4 68 70 68
-36.9 -24.3 13.4 67 67 67
-36.6 -24.3 13.4 67 67 67
-36.3 -24.3 13.4 67 67 67
-36.0 -24.3 13.4 67 67 67
-35.6 -24.3 13.4 69 71 69
-35.3 -24.3 13.4 67 67 67
-35.0 -24.3 13.4 67 67 67
-34.7 -24.3 13.4 67 67 67
-34.4 -24.3 13.4 67 67 67
-34.1 -24.3 13.4 67 67 67
-33.8 -24.3 13.4 65 66 64
-33.5 -24.3 13.4 63 63 63
-30.6 -24.3 13.4 62 62 62
-30.3 -24.3 13.4 57 57 55
-30.0 -24.3 13.4 57 57 55
-29.7 -24.3 13.4 58 58 56
-29.4 -24.3 13.4 58 58 56
-29.1 -24.3 13.4 60 60 60
-28.8 -24.3 13.4 58 58 56
-28.4 -24.3 13.4 59 59 57
-28.1 -24.3 13.4 59 59 57
-27.8 -24.3 13.4 59 59 57
-27.5 -24.3 13.4 56 56 56
-27.1 -24.3 13.4 57 57 57
-26.8 -24.3 13.4 57 57 57
-26.6 -24.4 13.4 57 57 57
-26.3 -24.3 13.4 57 57 57
-25.9 -24.3 13.4 55 55 55
-25.6 -24.3 13.4 53 52 52
-24.1 -24.3 13.4 49 49 49
-23.7 -24.3 13.4 47 46 45
-23.4 -24.3 13.4 48 47 46
-23.0 -24.2 13.4 45 45 45
-22.8 -24.3 13.4 44 46 46
-12.9 -23.9 13.2 30 30 30
-12.7 -24.0 13.2 131 131 131
-11.2 -24.2 13.3 47 48 47
-10.9 -24.1 13.3 58 59 59
-10.6 -24.2 13.4 183 186 185
-10.3 -24.2 13.3 183 186 185
-10.1 -24.4 13.5 180 183 182
-9.7 -24.4 13.5 184 184 184
46.8 -53.7 29.6 205 205 205
52.3 -58.4 32.2 205 205 205
51.8 -56.9 31.4 205 205 205
50.9 -55.2 30.5 205 205 205
50.4 -53.9 29.7 205 205 205
51.6 -54.5 30.1 206 206 206
52.9 -55.1 30.4 206 206 206
53.6 -55.1 30.4 206 206 206
-37.8 -24.0 13.4 64 65 63
-37.5 -24.0 13.4 67 67 67
-37.1 -24.0 13.4 69 71 69
-36.9 -24.0 13.4 67 67 67
-36.3 -24.0 13.4 70 72 69
-35.9 -24.0 13.4 73 73 73
-35.6 -24.0 13.4 70 72 69
-35.3 -24.0 13.4 70 72 69
-34.7 -24.0 13.4 68 68 68
-33.8 -24.0 13.4 66 67 65
-33.5 -24.0 13.4 66 67 65
-30.6 -24.0 13.4 60 60 60
-30.3 -24.0 13.4 58 58 56
-30.0 -24.0 13.4 59 59 57
-29.7 -24.0 13.4 61 61 61
-29.1 -24.0 13.4 61 61 61
-28.8 -24.0 13.4 59 59 57
-28.4 -24.0 13.4 60 59 58
-28.1 -24.0 13.4 60 59 58
-27.8 -24.0 13.4 60 59 58
-27.5 -24.0 13.4 57 57 57
-27.1 -24.0 13.4 58 58 58
-26.8 -23.9 13.4 58 58 58
-26.6 -24.0 13.4 58 58 58
-26.3 -24.0 13.4 56 56 56
-24.1 -24.0 13.4 50 50 50
-23.7 -24.0 13.4 49 48 47
-23.4 -24.0 13.4 49 48 47
-23.0 -23.9 13.4 49 48 47
-13.0 -23.7 13.2 33 34 32
-12.7 -23.7 13.3 127 127 127
-11.2 -23.9 13.3 48 48 48
-10.9 -23.9 13.3 56 56 56
-10.6 -23.9 13.4 182 185 184
-10.3 -23.8 13.3 181 184 183
-10.0 -24.0 13.4 179 182 181
-9.7 -24.0 13.4 183 183 183
-9.4 -24.0 13.4 229 228 226
46.9 -53.2 29.7 207 207 207
52.4 -57.7 32.3 205 205 205
51.8 -56.2 31.4 205 205 205
50.9 -54.5 30.5 208 208 208
50.8 -53.6 30.0 205 205 205
51.9 -54.0 30.2 205 205 205
52.9 -54.4 30.4 205 205 205
53.7 -54.5 30.5 208 208 208
-27.5 -23.7 13.4 62 61 60
-27.1 -23.6 13.4 58 59 59
-12.9 -23.2 13.2 42 43 42
-12.6 -23.3 13.2 82 82 82
-11.2 -23.5 13.3 47 48 47
-10.6 -23.5 13.3 181 184 183
-10.2 -23.4 13.3 180 183 182
46.8 -52.4 29.7 207 207 207
52.7 -57.3 32.4 207 207 207
51.7 -55.4 31.4 207 207 207
51.1 -54.0 30.6 207 207 207
51.2 -53.3 30.2 207 207 207
52.1 -53.5 30.3 207 207 207
53.5 -54.3 30.8 208 208 208
54.1 -54.1 30.7 209 212 211
52.9 -52.3 29.6 208 208 208
-12.9 -22.9 13.2 37 38 37
53.2 -57.1 32.8 207 207 207
52.0 -55.0 31.6 207 207 207
51.6 -53.8 30.9 207 207 207
52.1 -53.6 30.8 207 207 207
52.6 -53.3 30.6 207 207 207
53.9 -53.9 31.0 207 207 207
54.5 -53.8 30.9 207 207 207
53.6 -52.2 30.0 207 207 207
53.3 -56.4 32.8 207 210 209
53.2 -54.0 31.4 208 211 210
53.2 -53.3 31.0 204 204 204
54.4 -53.7 31.3 204 204 204
55.0 -53.6 31.2 204 204 204
710.7 -318.7 185.5 112 114 113
-14.4 -17.2 10.1 23 23 23
-14.1 -17.1 10.1 24 27 25
-13.2 -17.7 10.5 43 43 43
-12.7 -17.4 10.3 123 123 123
-10.1 -17.1 10.1 131 133 132
55.3 -53.2 31.4 208 211 210
665.1 -294.2 173.5 114 116 115
-25.2 -16.8 10.0 73 74 72
-24.4 -16.9 10.1 71 71 71
-14.4 -16.9 10.1 24 27 25
-14.1 -16.9 10.1 23 23 23
-12.7 -17.1 10.2 124 127 126
-10.1 -16.9 10.1 131 133 132
13.3 -16.8 10.1 206 209 208
60.7 -58.4 34.9 207 210 209
653.1 -285.0 170.4 116 118 117
-11.2 -25.6 15.5 180 180 180
72.8 -69.9 42.4 207 210 209
62.5 -59.2 35.9 207 210 209
-11.3 -25.3 15.6 177 177 177
-10.9 -25.4 15.6 157 160 159
75.2 -71.2 43.8 206 209 208
-11.3 -25.1 15.7 179 179 179
-11.0 -25.3 15.8 160 163 162
-11.6 -27.2 17.2 163 163 163
91.5 -85.4 54.0 205 208 207
85.0 -78.2 49.5 206 209 208
79.0 -35.8 22.7 183 183 183
-12.2 -27.1 17.4 169 169 169
-11.8 -27.1 17.4 166 166 166
94.5 -86.8 55.8 208 211 210
87.5 -79.3 51.0 208 211 210
85.5 -76.5 49.1 205 208 207
105.7 -84.3 54.2 207 210 209
78.5 -35.1 22.5 184 184 184
61.0 -25.9 16.6 161 161 161
61.5 -25.9 16.7 156 156 156
-12.4 -27.3 17.8 174 176 176
-12.2 -27.6 18.0 169 169 169
100.3 -92.0 60.1 207 210 209
96.8 -87.6 57.1 208 211 210
93.3 -83.3 54.4 208 211 210
93.5 -82.4 53.7 208 211 210
108.1 -85.0 55.5 207 210 209
78.7 -34.6 22.6 185 185 185
61.6 -25.8 16.8 162 162 162
62.1 -25.8 16.8 157 157 157
-42.7 -28.6 18.9 28 28 28
-42.2 -28.5 18.9 30 31 30
-12.7 -27.4 18.2 176 179 178
-12.8 -28.6 19.0 172 172 172
-12.4 -28.7 19.0 168 168 168
101.9 -92.1 61.0 207 210 209
99.5 -88.7 58.7 207 210 209
97.0 -85.2 56.5 208 211 210
98.6 -85.5 56.6 208 211 210
107.3 -89.5 59.3 208 211 210
628.2 -492.3 326.1 209 212 211
78.8 -34.2 22.6 186 186 186
61.1 -25.3 16.8 170 171 170
61.6 -25.3 16.8 160 163 162
62.0 -25.3 16.8 156 156 156
-44.5 -29.0 19.5 40 42 42
-43.6 -28.7 19.3 45 44 43
-43.1 -28.7 19.3 129 132 131
-13.4 -28.3 19.1 177 180 179
-13.1 -28.8 19.4 175 175 175
103.6 -92.2 62.0 207 210 209
100.8 -88.4 59.5 207 210 209
108.7 -89.3 60.1 208 211 210
108.4 -87.9 59.1 208 211 210
674.8 -520.7 350.3 209 212 211
111.1 -84.7 57.0 209 212 211
77.7 -33.2 22.3 188 188 188
76.4 -32.4 21.8 188 188 188
60.7 -24.7 16.7 169 169 169
60.8 -24.6 16.6 160 160 160
61.1 -24.6 16.5 157 157 157
-49.5 -29.3 20.1 15 15 15
-49.0 -29.3 20.1 19 23 20
-48.5 -29.3 20.1 26 26 26
-48.1 -29.3 20.1 59 59 59
-47.6 -29.3 20.1 70 72 69
-47.2 -29.3 20.1 70 72 69
-46.7 -29.3 20.1 64 64 64
-46.2 -29.3 20.1 54 54 54
-45.3 -29.3 20.1 58 58 56
-44.8 -29.3 20.1 131 133 132
-13.7 -28.7 19.6 177 177 177
-13.4 -28.9 19.7 175 175 175
121.0 -101.7 69.5 207 210 209
113.9 -94.5 64.6 207 210 209
108.4 -87.6 59.9 208 211 210
105.4 -84.1 57.5 208 211 210
264.0 -208.1 142.2 208 211 210
687.5 -522.2 356.9 209 212 211
576.2 -432.4 295.6 209 212 211
632.5 -469.1 320.6 209 212 211
572.1 -419.3 286.6 209 212 211
321.0 -232.6 159.0 210 213 212
77.3 -32.7 22.3 189 189 189
77.5 -32.6 22.3 189 189 189
79.9 -33.1 22.6 189 189 189
61.6 -24.7 16.9 168 168 168
60.9 -24.3 16.6 162 162 162
60.7 -24.1 16.4 156 156 156
60.4 -23.8 16.3 149 151 151
-49.5 -29.4 20.5 169 171 170
-48.9 -29.4 20.4 124 126 125
-48.6 -29.5 20.5 78 80 78
-13.5 -27.8 19.3 175 175 175
-13.2 -28.2 19.6 176 176 176
121.0 -100.1 69.5 207 210 209
115.8 -94.6 65.7 207 210 209
101.7 -79.9 55.5 208 211 210
276.5 -214.5 148.9 212 213 212
203.2 -155.6 108.1 208 211 210
547.2 -394.7 274.1 209 212 211
76.5 -31.8 22.1 190 190 190
76.1 -31.5 21.8 190 190 190
76.4 -31.4 21.8 190 190 190
78.3 -31.9 22.2 188 188 188
78.1 -31.6 22.0 188 188 188
61.3 -24.0 16.7 160 160 160
61.0 -23.8 16.5 154 154 154
60.3 -23.4 16.2 150 150 150
60.3 -23.2 16.1 147 147 147
-48.4 -29.5 20.8 73 73 73
-13.3 -26.9 19.0 169 171 170
-13.1 -27.5 19.4 159 162 161
-13.4 -30.1 21.3 41 41 41
119.7 -97.4 68.8 206 209 208
115.8 -93.0 65.7 207 210 209
108.4 -84.8 59.9 207 210 209
100.2 -77.4 54.7 207 210 209
250.8 -191.4 135.1 208 211 210
76.2 -31.2 22.0 191 191 191
76.1 -30.9 21.8 191 191 191
76.6 -30.9 21.8 191 191 191
78.1 -31.3 22.1 189 189 189
78.2 -31.2 22.0 189 189 189
61.6 -23.8 16.8 159 159 159
61.3 -23.5 16.6 153 155 155
60.4 -23.0 16.3 150 150 150
60.5 -22.9 16.2 143 145 144
-14.2 -30.2 21.7 174 174 174
-13.6 -30.0 21.5 112 112 112
121.0 -96.9 69.5 206 209 208
117.1 -92.5 66.4 206 209 208
113.0 -88.1 63.3 207 210 209
108.0 -83.1 59.7 207 210 209
102.9 -78.2 56.1 207 210 209
287.9 -216.0 155.1 207 210 209
76.7 -30.9 22.2 193 196 195
76.2 -30.5 21.9 192 192 192
76.9 -30.5 21.9 192 192 192
78.7 -31.0 22.3 192 192 192
78.4 -30.8 22.1 190 190 190
77.9 -30.4 21.8 190 190 190
62.1 -23.6 16.9 158 158 158
61.7 -23.3 16.7 152 152 152
61.1 -22.9 16.4 149 149 149
61.3 -22.8 16.4 141 141 141
-14.9 -30.1 22.0 180 180 180
-14.3 -29.9 21.8 167 167 167
-13.7 -29.8 21.7 148 150 150
338.0 -259.2 189.2 214 214 214
412.8 -308.5 225.2 207 210 209
308.1 -227.3 165.9 207 210 209
286.8 -209.0 152.6 207 210 209
79.4 -31.6 23.1 194 197 196
78.2 -31.0 22.6 194 197 196
77.3 -30.4 22.2 193 193 193
79.8 -31.2 22.8 193 193 193
80.2 -31.1 22.7 193 193 193
79.3 -30.6 22.3 191 191 191
78.7 -30.1 22.0 188 188 188
62.6 -23.2 17.0 154 154 154
-15.3 -30.4 22.5 181 181 181
-14.4 -29.6 22.0 181 181 181
-13.9 -29.7 22.0 164 164 164
393.0 -296.2 220.0 210 210 210
428.0 -318.5 236.5 211 211 211
495.4 -364.0 270.2 211 211 211
322.2 -233.7 173.5 211 211 211
80.8 -31.6 23.5 194 194 194
79.2 -30.8 22.9 195 198 197
81.2 -31.2 23.2 194 194 194
81.5 -31.1 23.1 192 192 192
80.5 -30.5 22.7 192 192 192
80.9 -30.5 22.6 186 186 186
82.7 -31.0 23.0 179 179 179
83.0 -30.8 22.9 164 164 164
-15.7 -30.7 23.2 173 175 175
535.0 -391.2 295.6 210 210 210
559.3 -403.8 305.1 211 211 211
413.2 -294.6 222.5 211 211 211
639.9 -424.4 320.6 214 214 214
82.3 -31.7 23.9 188 188 188
80.4 -30.8 23.2 188 188 188
83.3 -31.2 23.6 188 188 188
84.9 -31.2 23.6 168 168 168
86.0 -31.4 23.7 160 163 162
-34.9 -20.1 15.5 25 25 25
671.4 -482.3 370.9 210 210 210
630.5 -447.2 343.9 210 210 210
246.6 -168.5 129.6 211 211 211
639.9 -416.9 320.6 214 214 214
-35.7 -19.0 14.9 41 41 41
-35.6 -19.1 15.0 48 48 48
-35.2 -19.1 15.0 29 31 29
-34.8 -19.1 15.0 25 25 25
-34.2 -18.9 14.8 23 23 23
-34.2 -19.3 15.1 167 167 167
-17.9 -35.1 27.5 91 94 93
-17.4 -35.2 27.6 83 85 85
15.6 -13.5 10.5 209 209 209
587.8 -409.5 320.6 210 210 210
413.2 -284.2 222.5 211 211 211
629.3 -402.6 315.3 212 213 212
-32.5 -17.9 14.2 25 25 25
-18.2 -35.0 27.9 94 94 94
-17.5 -34.8 27.7 90 92 91
-17.2 -35.5 28.3 73 75 75
241.9 -161.4 128.7 214 214 214
232.2 -153.0 122.0 215 215 215
397.9 -247.1 197.0 214 214 214
-29.1 -15.7 12.8 17 17 17
-29.0 -15.8 12.9 136 138 137
-28.7 -15.8 12.9 159 159 159
-19.1 -15.7 12.8 106 106 106
-18.8 -15.7 12.8 66 66 66
-19.6 -35.5 28.9 131 131 131
-18.5 -34.7 28.2 94 94 94
-17.7 -34.5 28.1 89 91 90
-17.3 -35.1 28.5 80 83 82
693.6 -465.6 378.3 214 214 214
243.2 -157.3 127.8 215 215 215
-31.0 -15.5 12.8 58 58 58
-30.7 -15.5 12.8 38 38 38
-30.4 -15.4 12.8 29 30 28
-30.0 -15.4 12.8 19 23 20
-29.8 -15.5 12.8 17 17 17
-29.4 -15.4 12.8 17 21 18
-29.1 -15.4 12.8 23 23 23
-29.0 -15.5 12.9 114 116 115
-28.7 -15.5 12.8 153 153 153
-28.2 -15.4 12.8 113 115 114
-20.3 -15.4 12.8 31 30 29
-19.9 -15.4 12.8 82 83 81
-19.7 -15.5 12.8 15 19 16
-19.4 -15.5 12.8 17 21 18
-19.1 -15.5 12.8 25 25 25
-18.8 -15.5 12.8 27 29 27
-20.2 -36.1 29.9 135 135 135
-18.9 -34.9 28.9 91 94 93
-18.0 -34.4 28.5 92 92 92
-17.6 -34.9 28.9 70 69 68
351.2 -228.4 189.2 214 214 214
52.0 -17.1 14.2 109 111 111
45.1 -14.5 12.0 107 107 107
-30.6 -16.1 13.6 106 108 108
-21.0 -36.7 31.0 126 126 126
-19.6 -35.5 30.0 97 97 97
-17.8 -36.1 30.5 40 40 40
654.3 -422.6 356.9 214 214 214
365.8 -233.3 197.0 214 214 214
51.9 -16.8 14.2 105 105 105
52.2 -16.9 14.2 105 105 105
45.7 -14.3 12.1 67 67 65
45.5 -14.2 11.9 158 158 158
-21.7 -37.2 32.1 125 125 125
-20.2 -35.9 30.9 96 96 96
-18.8 -35.9 30.9 103 105 105
-18.1 -36.0 31.0 92 92 92
630.5 -399.3 343.9 216 216 216
413.2 -258.4 222.5 216 216 216
594.8 -354.2 305.1 218 218 218
52.2 -16.5 14.2 99 99 99
52.5 -16.5 14.2 87 87 87
46.1 -14.1 12.2 77 77 77
-24.1 -39.1 34.4 169 169 169
-22.9 -38.4 33.8 125 125 125
-21.1 -38.1 33.5 95 95 95
-19.4 -37.8 33.2 113 114 113
15.1 -12.6 11.1 210 210 210
15.4 -12.6 11.1 212 213 212
707.7 -439.2 386.0 216 216 216
334.5 -205.0 180.2 216 216 216
246.6 -147.4 129.6 217 217 217
576.2 -336.3 295.6 218 218 218
46.2 -22.9 20.1 202 202 202
45.5 -22.3 19.6 205 205 205
52.0 -16.1 14.2 80 83 82
52.1 -16.0 14.1 73 73 73
52.0 -15.9 14.0 71 71 71
46.0 -13.7 12.1 152 152 152
46.2 -13.7 12.1 121 123 122
-24.0 -40.9 36.7 96 96 96
-22.3 -39.5 35.4 95 98 97
347.7 -208.7 187.3 216 216 216
550.4 -314.6 282.3 218 218 218
45.4 -22.0 19.8 205 205 205
44.3 -21.3 19.1 205 205 205
51.2 -15.7 14.1 85 85 85
51.7 -15.7 14.1 79 81 80
51.8 -15.6 14.0 73 73 73
51.8 -15.5 14.0 73 73 73
46.0 -13.5 12.1 161 161 161
46.0 -13.4 12.0 131 131 131
-8.1 -11.4 10.5 203 203 203
-25.8 -43.0 39.4 96 99 98
-24.1 -41.8 38.3 99 99 99
-23.8 -42.7 39.2 106 106 106
394.6 -231.9 212.5 216 216 216
317.5 -184.3 168.9 220 220 220
542.3 -303.5 278.2 220 220 220
46.3 -22.0 20.2 204 204 204
43.8 -20.6 18.9 205 205 205
43.2 -20.1 18.4 205 205 205
51.6 -15.3 14.1 81 84 83
51.7 -15.3 14.0 75 76 76
51.9 -15.2 14.0 75 76 76
46.0 -13.2 12.1 162 162 162
45.8 -13.0 12.0 123 125 124
-8.1 -11.2 10.5 199 199 199
-25.9 -43.9 41.1 101 101 101
-24.9 -43.7 40.9 108 108 108
-24.5 -44.8 41.9 13 17 14
51.6 -15.0 14.1 90 90 90
51.9 -15.0 14.1 79 82 81
52.1 -15.0 14.0 79 82 81
51.9 -14.8 13.9 78 78 78
45.9 -12.8 12.0 124 127 126
-8.1 -10.9 10.5 198 198 198
51.7 -14.7 14.1 92 92 92
52.0 -14.7 14.1 79 82 81
52.1 -14.7 14.0 79 82 81
51.8 -14.5 13.8 79 82 81
-8.0 -10.7 10.4 198 198 198
-39.3 -59.3 58.0 119 121 120
-37.9 -59.3 58.0 94 97 96
-35.0 -56.7 55.5 101 101 101
-31.6 -55.2 54.0 31 33 33
51.9 -14.2 13.9 79 82 81
-8.0 -10.4 10.5 197 197 197
-40.3 -61.5 61.6 94 97 96
-37.3 -59.0 59.1 100 100 100
-35.5 -58.3 58.4 110 110 110
-34.5 -59.0 59.1 46 46 46
-34.7 -61.7 61.8 20 20 20
-33.8 -62.7 62.8 147 147 147
-31.6 -61.3 61.4 178 178 178
-8.3 -10.2 10.5 199 199 199
-8.0 -10.2 10.4 199 199 199
-7.8 -10.2 10.4 196 196 196
-36.4 -58.4 59.9 112 112 112
-34.9 -58.2 59.7 48 50 48
-34.8 -63.2 64.8 164 164 164
-31.9 -60.5 62.0 181 181 181
226.4 -116.0 119.0 220 220 220
-8.3 -10.0 10.5 199 199 199
-8.0 -9.9 10.4 198 198 198
-7.8 -9.9 10.4 196 196 196
-34.8 -59.0 62.0 18 18 18
-34.9 -61.9 65.0 157 157 157
-32.1 -59.4 62.4 180 180 180
232.2 -116.1 122.0 219 219 219
-11.8 -12.0 13.0 36 36 36
-9.8 -10.3 11.1 38 38 38
-8.0 -9.7 10.5 198 198 198
-34.7 -57.4 61.8 23 24 23
-33.4 -57.8 62.2 170 172 172
-9.8 -10.0 11.1 38 38 38
-8.1 -9.5 10.5 197 197 197
-53.6 -83.1 91.8 32 34 33
-9.8 -9.8 11.1 36 39 38
-9.5 -9.8 11.1 42 42 42
-8.3 -9.3 10.5 197 197 197
-8.1 -9.2 10.5 194 194 194
-56.7 -85.6 97.0 32 34 33
-58.6 -92.2 104.5 31 33 33
23.8 -12.7 14.5 220 223 222
182.8 -68.1 77.2 205 205 205
274.3 -75.5 85.6 56 55 54
-8.3 -9.0 10.5 196 196 196
-8.0 -9.0 10.4 194 194 194
-7.8 -8.9 10.4 188 190 190
-66.2 -97.3 113.3 26 25 24
-65.9 -100.9 117.5 29 29 29
-70.6 -112.8 131.4 165 165 165
23.7 -12.4 14.4 220 223 222
23.8 -12.3 14.3 220 223 222
24.7 -12.5 14.6 222 224 224
25.1 -12.5 14.6 218 221 220
183.6 -66.6 77.5 205 205 205
174.6 -62.7 73.0 205 205 205
276.8 -74.2 86.4 57 57 57
-8.0 -8.7 10.4 193 193 193
24.0 -12.0 14.4 222 224 224
24.8 -12.2 14.6 222 224 224
25.1 -12.2 14.6 222 224 224
188.2 -66.4 79.5 203 203 203
25.1 -11.9 14.6 222 224 224
215.3 -74.6 91.8 203 203 203
186.6 -64.0 78.8 203 203 203
166.3 -56.5 69.5 205 205 205
208.2 -70.1 88.8 203 203 203
190.6 -63.5 80.5 205 205 205
174.6 -57.6 73.0 205 205 205
-8.3 -8.0 10.5 197 197 197
-8.0 -8.0 10.4 191 191 191
15.3 -8.3 10.8 218 221 220
198.7 -65.5 85.6 202 202 202
201.6 -65.8 86.0 202 202 202
194.7 -63.0 82.2 203 203 203
-8.1 -7.8 10.5 189 189 189
15.3 -8.0 10.8 218 221 220
198.9 -63.0 84.8 202 202 202
188.2 -59.0 79.5 203 203 203
166.9 -51.8 69.8 205 205 205
-8.1 -7.5 10.5 188 188 188
15.3 -7.8 10.8 218 221 220
18.4 -7.6 10.6 222 224 224
188.2 -57.2 79.5 202 202 202
166.3 -50.0 69.5 204 204 204
-8.3 -7.3 10.5 192 192 192
-8.1 -7.3 10.5 188 188 188
15.2 -7.5 10.7 217 217 217
15.2 -7.4 10.6 222 224 224
15.4 -7.3 10.5 218 221 220
18.3 -7.4 10.6 223 225 225
18.3 -7.3 10.5 223 225 225
193.9 -57.0 81.9 204 204 204
173.3 -50.4 72.5 204 204 204
15.2 -7.2 10.7 218 218 218
15.3 -6.9 10.3 218 221 220
15.4 -6.9 10.2 218 221 220
226.3 -64.9 96.5 202 202 202
200.9 -57.1 84.8 204 204 204
18.1 -6.7 10.3 220 223 222
228.6 -63.3 97.5 202 202 202
183.6 -50.4 77.5 202 202 202
18.1 -6.4 10.3 220 223 222
22.0 -7.4 11.8 220 223 222
22.2 -7.4 11.8 220 223 222
186.6 -49.4 78.8 202 202 202
22.1 -7.3 12.1 222 224 224
22.0 -7.1 11.8 222 224 224
22.2 -7.1 11.8 222 224 224
189.0 -48.1 79.8 203 203 203
173.3 -43.7 72.5 206 206 206
15.8 -5.8 10.0 220 223 222
17.8 -5.9 10.1 222 224 224
186.6 -45.7 78.8 203 203 203
172.0 -41.7 71.9 205 205 205
15.8 -5.6 10.0 222 224 224
17.7 -5.6 10.0 222 224 224
188.2 -44.2 79.5 203 203 203
171.3 -39.9 71.7 205 205 205
151.2 -34.9 62.6 197 197 197
17.7 -5.3 10.0 223 225 225
226.3 -51.5 96.5 203 203 203
197.3 -44.4 83.3 203 203 203
231.0 -50.3 98.5 203 203 203
200.0 -43.1 84.4 203 203 203
233.4 -48.5 99.6 200 200 200
200.0 -41.1 84.4 204 204 204
202.7 -39.7 85.6 204 204 204
21.8 -2.2 10.5 160 160 160
21.7 -2.1 10.3 168 168 168
21.6 -1.9 10.4 162 165 164
23.0 -1.8 11.2 224 224 224
22.9 -1.8 11.1 218 221 220
23.0 -1.6 11.2 218 221 220
22.8 -1.5 11.0 218 221 220
1201.3 -53.3 386.0 43 45 45
20.0 -1.4 12.5 219 222 221
20.3 -1.4 12.5 219 222 221
22.5 -1.2 10.7 173 173 173
1123.5 -41.8 363.8 48 48 48
529.5 -19.4 168.9 192 192 192
19.3 -1.1 12.4 215 215 215
19.4 -1.1 12.3 218 218 218
19.9 -1.1 12.4 218 221 220
20.0 -1.1 12.3 220 223 222
20.3 -1.1 12.3 220 223 222
21.1 -1.1 12.5 226 226 226
21.3 -1.1 12.4 226 226 226
21.7 -1.1 12.5 220 223 222
21.8 -1.1 12.4 220 223 222
23.3 -1.1 12.4 220 223 222
23.6 -1.1 12.4 227 227 227
23.8 -1.1 12.4 227 227 227
24.4 -1.1 12.5 227 227 227
24.6 -1.1 12.5 227 227 227
24.6 -1.1 12.3 225 225 225
22.4 -1.0 10.7 173 173 173
340.7 -13.9 151.3 196 196 196
346.5 -13.6 147.8 199 199 199
530.3 -15.6 170.4 35 36 34
463.3 -13.6 147.8 180 180 180
511.9 -14.3 156.3 144 146 146
19.1 -0.8 12.3 214 214 214
19.2 -0.8 12.2 215 215 215
19.8 -0.8 12.2 219 222 221
19.9 -0.8 12.1 219 222 221
21.0 -0.8 12.2 222 224 224
21.2 -0.8 12.2 222 224 224
21.5 -0.8 12.2 222 224 224
23.2 -0.8 12.2 220 223 222
23.5 -0.8 12.2 220 223 222
24.3 -0.8 12.3 220 223 222
24.4 -0.8 12.2 220 223 222
22.4 -0.7 10.7 174 174 174
520.9 -11.5 167.4 113 115 114
445.9 -9.7 142.2 172 172 172
458.8 -9.6 140.1 144 146 146
482.1 -7.0 153.8 157 160 159
21.0 -0.2 10.3 222 224 224
21.1 -0.2 10.2 220 223 222
20.9 0.0 10.3 223 225 225
21.0 0.0 10.2 223 225 225
21.2 0.0 10.1 193 193 193
21.0 0.2 10.0 185 185 185
21.3 0.2 10.1 196 196 196
21.1 0.7 10.2 222 222 222
21.2 1.0 10.3 224 226 226
82.3 2.1 21.9 93 93 93
83.0 2.6 22.1 90 90 90
82.3 2.6 21.7 94 94 94
83.9 3.1 22.3 90 90 90
84.4 3.1 22.3 92 92 92
86.4 3.7 22.8 104 104 104
-110.2 48.7 110.0 131 131 131
-99.6 45.0 101.7 138 138 138
-123.2 54.8 117.5 126 129 128
-130.2 59.2 127.0 133 133 133
-105.9 49.3 105.7 129 129 129
-98.0 46.7 100.1 133 133 133
24.7 5.8 12.5 222 222 222
24.8 5.8 12.4 222 222 222
25.0 5.8 12.4 221 221 221
-104.2 50.9 103.9 124 126 125
24.8 6.1 12.6 220 220 220
-125.2 62.6 122.0 121 121 121
-109.6 56.1 109.3 117 117 117
24.8 6.4 12.6 220 220 220
24.8 6.4 12.4 220 220 220
-121.7 62.2 116.1 99 99 99
-123.6 64.6 120.5 103 105 105
24.8 6.7 12.6 221 221 221
24.8 6.7 12.4 220 220 220
-61.4 28.9 51.7 237 237 237
-58.9 28.3 50.6 227 227 227
-56.7 27.8 49.6 177 180 179
24.8 7.0 12.6 219 219 219
-63.5 31.1 53.4 118 120 119
-60.2 30.1 51.7 40 40 40
-106.5 61.9 106.3 70 70 70
-768.4 224.6 370.9 116 116 116
-596.1 176.2 291.0 120 122 121
-404.6 187.8 310.1 74 74 74
-332.0 156.9 259.1 72 73 71
-297.5 143.2 236.5 161 161 161
-305.6 152.7 252.2 79 81 80
-139.7 80.7 133.2 66 66 66
-138.6 81.8 135.1 66 67 65
-267.6 187.8 310.1 136 136 136
-30.7 91.1 130.5 228 228 228
-447.5 114.7 159.0 86 85 83
-422.5 109.2 151.3 87 86 84
-419.0 109.2 151.3 88 88 86
-415.5 109.2 151.3 88 88 86
-412.0 109.2 151.3 94 97 96
-408.5 109.2 151.3 115 115 115
-408.2 110.1 152.6 123 123 123
-401.4 109.2 151.3 121 123 122
-397.9 109.2 151.3 119 121 120
-397.6 110.1 152.6 119 121 120
-394.0 110.1 152.6 120 122 121
-387.4 109.2 151.3 120 122 121
-383.8 109.2 151.3 123 125 124
-380.3 109.2 151.3 123 125 124
-376.8 109.2 151.3 124 126 125
-373.3 109.2 151.3 127 127 127
-369.8 109.2 151.3 127 127 127
-366.3 109.2 151.3 124 127 126
-362.7 109.2 151.3 124 127 126
-359.2 109.2 151.3 131 131 131
-358.6 110.1 152.6 133 133 133
-355.0 110.1 152.6 148 148 148
-348.7 109.2 151.3 173 173 173
-347.9 110.1 152.6 136 136 136
-344.4 110.1 152.6 120 120 120
-338.1 109.2 151.3 116 118 117
-334.6 109.2 151.3 121 121 121
-331.1 109.2 151.3 125 125 125
-325.0 108.4 150.1 126 128 127
-324.1 109.2 151.3 128 131 130
-325.7 111.0 153.8 131 131 131
-319.6 110.1 152.6 134 134 134
-313.5 109.2 151.3 137 137 137
-310.0 109.2 151.3 139 141 140
-306.5 109.2 151.3 139 141 140
-305.4 110.1 152.6 139 141 140
-301.8 110.1 152.6 138 140 139
-298.3 110.1 152.6 138 140 139
-299.6 111.9 155.1 137 137 137
-288.9 109.2 151.3 134 134 134
-283.1 108.4 150.1 133 133 133
-284.1 110.1 152.6 128 130 129
-282.8 111.0 153.8 124 127 126
-274.8 109.2 151.3 124 127 126
-271.3 109.2 151.3 124 127 126
-267.8 109.2 151.3 124 127 126
-262.2 108.4 150.1 124 127 126
-265.0 111.0 153.8 124 124 124
-261.4 111.0 153.8 120 120 120
-253.7 109.2 151.3 118 118 118
-252.2 110.1 152.6 115 117 116
-248.7 110.1 152.6 113 115 114
-241.2 108.4 150.1 112 112 112
-241.6 110.1 152.6 103 105 105
-238.0 110.1 152.6 135 135 135
-234.5 110.1 152.6 209 209 209
-230.9 110.1 152.6 230 233 232
-225.6 109.2 151.3 209 209 209
-220.3 108.4 150.1 162 162 162
-218.5 109.2 151.3 175 177 177
-216.7 110.1 152.6 167 167 167
-214.9 111.0 153.8 138 140 139
-208.0 109.2 151.3 175 175 175
-204.5 109.2 151.3 148 150 150
-200.9 109.2 151.3 157 157 157
-197.4 109.2 151.3 148 148 148
-193.9 109.2 151.3 150 152 152
-188.9 108.4 150.1 150 152 152
-188.4 110.1 152.6 159 159 159
-186.3 111.0 153.8 71 71 71
-178.4 108.4 150.1 22 25 23
-176.3 109.2 151.3 27 27 27
-174.2 110.1 152.6 92 92 92
-169.3 109.2 151.3 22 22 22
-165.8 109.2 151.3 18 18 18
-163.6 110.1 152.6 27 27 27
-160.0 110.1 152.6 30 29 28
-155.2 109.2 151.3 75 75 73
-151.7 109.2 151.3 154 156 156
-148.2 109.2 151.3 160 160 160
-143.5 108.4 150.1 172 172 172
-140.0 108.4 150.1 79 79 79
-138.7 110.1 152.6 176 176 176
-135.2 110.1 152.6 169 171 170
-130.6 109.2 151.3 130 130 130
-127.1 109.2 151.3 104 106 106
-123.6 109.2 151.3 98 98 98
-124.0 112.8 156.3 111 111 111
-119.4 111.9 155.1 131 131 131
-114.8 111.0 153.8 108 108 108
-110.4 110.1 152.6 92 92 92
-106.8 110.1 152.6 93 93 93
-103.3 110.1 152.6 88 88 88
-98.9 109.2 151.3 91 93 92
-95.4 109.2 151.3 116 116 116
-94.2 111.9 155.1 153 152 150
-90.6 111.9 155.1 150 150 148
-84.9 109.2 151.3 155 158 157
-81.3 109.2 151.3 154 154 154
-77.8 109.2 151.3 162 162 162
-74.3 109.2 151.3 148 148 148
-70.8 109.2 151.3 180 180 180
-67.3 109.2 151.3 199 199 199
-63.8 109.2 151.3 204 204 204
-60.2 109.2 151.3 204 207 206
-56.7 109.2 151.3 199 199 199
-53.2 109.2 151.3 190 192 192
-49.7 109.2 151.3 202 202 202
-46.5 110.1 152.6 214 214 214
-42.7 109.2 151.3 211 211 211
-38.5 107.5 148.9 219 219 219
-33.7 103.4 143.3 221 221 221
-28.6 109.2 151.3 230 230 230
-25.1 109.2 151.3 230 230 230
-21.6 109.2 151.3 230 230 230
-18.0 109.2 151.3 230 230 230
-14.4 108.4 150.1 205 205 205
-10.7 106.7 147.8 218 218 218
-7.3 106.7 147.8 220 220 220
-4.1 113.8 157.6 222 222 222
-0.5 113.8 157.6 179 182 181
3.0 106.7 147.8 194 197 196
6.4 106.7 147.8 196 199 198
10.0 108.4 150.1 200 200 200
13.7 110.1 152.6 195 198 197
18.0 114.7 159.0 182 185 184
22.3 117.7 163.1 181 184 183
28.6 112.8 156.3 159 159 159
30.2 105.8 146.6 40 40 40
68.3 106.7 147.8 77 77 77
71.7 106.7 147.8 79 79 79
76.3 108.4 150.1 79 79 79
80.5 109.2 151.3 73 74 72
82.0 106.7 147.8 33 33 31
77.0 96.2 133.2 67 67 67
82.4 98.9 137.1 77 79 77
92.3 106.7 147.8 77 78 76
98.8 110.1 152.6 74 75 73
-554.8 146.8 197.0 107 109 109
-528.2 140.9 189.2 105 105 105
-523.8 140.9 189.2 106 106 106
-519.4 140.9 189.2 100 100 100
-515.0 140.9 189.2 106 106 106
-510.6 140.9 189.2 118 118 118
-506.2 140.9 189.2 124 124 124
-501.8 140.9 189.2 122 124 123
-492.5 139.5 187.3 120 122 121
-493.0 140.9 189.2 121 123 122
-488.6 140.9 189.2 126 126 126
-484.2 140.9 189.2 131 131 131
-479.8 140.9 189.2 133 133 133
-475.4 140.9 189.2 131 131 131
-466.4 139.5 187.3 132 132 132
-466.6 140.9 189.2 136 138 137
-457.6 139.5 187.3 136 138 137
-448.8 138.2 185.5 137 139 138
-453.4 140.9 189.2 132 132 132
-449.0 140.9 189.2 132 132 132
-444.6 140.9 189.2 136 136 136
-440.2 140.9 189.2 138 140 139
-431.5 139.5 187.3 177 177 177
-435.8 142.4 191.1 172 172 172
-431.4 142.4 191.1 126 128 127
-418.5 139.5 187.3 126 128 127
-418.3 140.9 189.2 126 129 128
-413.9 140.9 189.2 133 133 133
-397.5 136.8 183.7 135 135 135
-413.3 143.8 193.0 135 135 135
-413.1 145.3 195.0 137 137 137
-396.3 140.9 189.2 135 135 135
-391.9 140.9 189.2 138 138 138
-383.6 139.5 187.3 138 138 138
-383.1 140.9 189.2 138 138 138
-386.4 143.8 193.0 136 136 136
-385.9 145.3 195.0 136 136 136
-389.4 148.4 199.1 134 134 134
-380.7 146.8 197.0 134 134 134
-354.0 138.2 185.5 134 134 134
-346.3 136.8 183.7 131 131 131
-363.2 145.3 195.0 128 131 130
-351.4 142.4 191.1 126 128 127
-340.1 139.5 187.3 125 125 125
-335.8 139.5 187.3 121 121 121
-328.2 138.2 185.5 119 119 119
-330.3 140.9 189.2 114 116 115
-343.1 148.4 199.1 114 116 115
-321.5 140.9 189.2 114 116 115
-317.1 140.9 189.2 110 110 110
-315.9 142.4 191.1 110 110 110
-296.5 135.5 181.9 108 108 108
-298.0 138.2 185.5 110 110 110
-305.7 143.8 193.0 114 116 115
-292.2 139.5 187.3 168 168 168
-296.7 143.8 193.0 175 175 175
-295.2 145.3 195.0 150 152 152
-279.2 139.5 187.3 146 146 146
-274.8 139.5 187.3 176 179 178
-267.8 138.2 185.5 204 204 204
-274.2 143.8 193.0 204 204 204
-267.0 142.4 191.1 210 213 212
-260.0 140.9 189.2 196 196 196
-255.6 140.9 189.2 167 167 167
-251.2 140.9 189.2 162 162 162
-246.8 140.9 189.2 166 166 166
-240.0 139.5 187.3 148 150 150
-231.1 136.8 183.7 144 144 144
-235.9 142.4 191.1 112 114 113
-226.9 139.5 187.3 83 83 83
-220.4 138.2 185.5 33 32 30
-220.4 140.9 189.2 35 35 35
-213.9 139.5 187.3 52 53 51
-207.5 138.2 185.5 13 13 13
-207.2 140.9 189.2 11 16 13
-204.9 142.4 191.1 26 26 26
-198.4 140.9 189.2 36 36 36
-196.0 142.4 191.1 146 146 146
-189.6 140.9 189.2 141 141 141
-183.4 139.5 187.3 174 176 176
-175.6 136.8 183.7 169 169 169
-173.0 138.2 185.5 70 69 68
-173.8 142.4 191.1 183 186 185
-167.6 140.9 189.2 170 172 172
-163.2 140.9 189.2 130 130 130
-154.2 136.8 183.7 115 114 114
-157.6 143.8 193.0 118 120 119
-159.6 149.9 201.2 127 127 127
-150.3 149.9 201.2 106 106 106
-138.2 142.4 191.1 91 91 91
-132.5 140.9 189.2 90 90 90
-136.2 149.9 201.2 89 89 89
-122.4 139.5 187.3 91 93 92
-120.5 142.4 191.1 98 98 98
-124.9 153.2 205.6 135 135 135
-113.9 145.3 195.0 134 134 134
-106.1 140.9 189.2 114 113 112
-101.7 140.9 189.2 128 128 128
-97.3 140.9 189.2 152 154 154
-92.9 140.9 189.2 138 140 139
-88.5 140.9 189.2 173 175 175
-84.1 140.9 189.2 197 197 197
-78.9 139.5 187.3 196 196 196
-74.6 139.5 187.3 198 198 198
-69.5 138.2 185.5 184 184 184
-66.5 140.9 189.2 187 189 189
-64.0 145.3 195.0 192 192 192
-58.9 143.8 193.0 202 204 204
-50.3 133.0 178.5 186 186 186
-43.3 124.7 167.4 211 211 211
-41.4 145.3 195.0 219 219 219
-35.4 139.5 187.3 221 221 221
-31.3 140.9 189.2 224 224 224
-26.9 140.9 189.2 220 220 220
-23.7 148.4 199.1 206 209 208
-18.3 142.4 191.1 216 216 216
-5.2 148.4 199.1 206 206 206
-0.6 145.3 195.0 193 196 195
3.5 127.0 170.4 202 202 202
7.5 128.1 172.0 207 207 207
12.5 139.5 187.3 207 207 207
17.4 143.8 193.0 205 205 205
26.3 143.8 193.0 192 192 192
35.7 145.3 195.0 179 179 179
34.8 125.8 168.9 128 128 128
79.8 122.6 164.5 79 79 79
85.9 125.8 168.9 81 81 81
94.0 131.7 176.8 75 76 74
92.1 123.6 165.9 21 24 22
106.4 127.0 170.4 78 80 78
-674.1 184.0 239.4 112 112 112
-660.2 181.7 236.5 112 112 112
-654.7 181.7 236.5 121 123 122
-649.2 181.7 236.5 131 134 133
-643.7 181.7 236.5 120 122 121
-638.2 181.7 236.5 120 122 121
-632.7 181.7 236.5 128 128 128
-627.2 181.7 236.5 130 130 130
-621.7 181.7 236.5 133 133 133
-616.2 181.7 236.5 131 131 131
-610.8 181.7 236.5 133 133 133
-605.3 181.7 236.5 145 145 144
-599.8 181.7 236.5 145 145 144
-594.3 181.7 236.5 147 147 147
-588.8 181.7 236.5 146 146 146
-583.3 181.7 236.5 144 144 144
-577.8 181.7 236.5 144 144 144
-572.3 181.7 236.5 138 140 139
-566.8 181.7 236.5 137 137 137
-568.4 184.0 239.4 120 120 120
-555.8 181.7 236.5 90 90 90
-550.3 181.7 236.5 184 184 184
-544.8 181.7 236.5 208 208 208
-539.3 181.7 236.5 177 177 177
-533.8 181.7 236.5 141 143 142
-528.3 181.7 236.5 138 138 138
-522.8 181.7 236.5 136 136 136
-517.3 181.7 236.5 137 137 137
-505.5 179.4 233.5 137 137 137
-519.3 186.3 242.5 138 138 138
-507.2 184.0 239.4 138 138 138
-495.3 181.7 236.5 138 138 138
-489.8 181.7 236.5 140 140 140
-484.3 181.7 236.5 138 138 138
-478.8 181.7 236.5 139 139 139
-485.5 186.3 242.5 137 137 137
-492.5 191.2 248.9 137 137 137
-480.4 188.7 245.7 139 139 139
-462.6 184.0 239.4 135 135 135
-440.4 177.2 230.7 129 132 131
-440.4 179.4 233.5 126 129 128
-451.7 186.3 242.5 124 124 124
-434.9 181.7 236.5 120 120 120
-429.4 181.7 236.5 115 117 116
-423.9 181.7 236.5 115 117 116
-398.5 173.0 225.2 115 117 116
-412.9 181.7 236.5 112 112 112
-434.6 193.8 252.2 115 114 114
-401.9 181.7 236.5 112 112 112
-401.4 184.0 239.4 103 103 103
-395.9 184.0 239.4 87 86 84
-367.1 173.0 225.2 102 102 102
-375.2 179.4 233.5 88 88 86
-374.4 181.7 236.5 101 101 101
-359.9 177.2 230.7 145 145 144
-358.9 179.4 233.5 186 186 186
-357.9 181.7 236.5 210 210 210
-352.4 181.7 236.5 198 201 200
-346.9 181.7 236.5 177 177 177
-341.4 181.7 236.5 171 170 169
-344.6 186.3 242.5 173 173 173
-330.5 181.7 236.5 179 182 181
-325.0 181.7 236.5 150 152 152
-319.5 181.7 236.5 152 154 154
-314.0 181.7 236.5 156 156 156
-308.5 181.7 236.5 160 160 160
-295.6 177.2 230.7 158 158 158
-297.5 181.7 236.5 112 112 112
-299.5 186.3 242.5 77 77 77
-286.5 181.7 236.5 53 53 53
-281.0 181.7 236.5 33 32 30
-282.6 186.3 242.5 32 31 30
-270.0 181.7 236.5 55 55 55
-261.2 179.4 233.5 13 13 13
-259.0 181.7 236.5 11 16 13
-253.5 181.7 236.5 21 24 22
-248.0 181.7 236.5 52 52 52
-242.5 181.7 236.5 134 136 135
-237.0 181.7 236.5 163 163 163
-225.9 177.2 230.7 155 158 157
-220.5 177.2 230.7 125 125 125
-220.5 181.7 236.5 149 149 149
-217.8 184.0 239.4 182 185 184
-209.5 181.7 236.5 166 166 166
-204.0 181.7 236.5 135 135 135
-198.6 181.7 236.5 128 128 128
-195.5 184.0 239.4 131 131 131
-187.6 181.7 236.5 132 131 130
-184.4 184.0 239.4 136 138 137
-178.8 184.0 239.4 126 126 126
-171.1 181.7 236.5 91 91 91
-167.7 184.0 239.4 90 90 90
-162.1 184.0 239.4 86 86 86
-152.7 179.4 233.5 90 90 90
-151.0 184.0 239.4 96 96 96
-149.2 188.7 245.7 81 81 81
-138.1 181.7 236.5 113 114 113
-132.6 181.7 236.5 112 112 112
-127.1 181.7 236.5 154 156 156
-121.6 181.7 236.5 153 153 153
-116.1 181.7 236.5 147 147 147
-110.6 181.7 236.5 173 175 175
-105.1 181.7 236.5 165 165 165
-99.6 181.7 236.5 190 192 192
-94.1 181.7 236.5 189 191 191
-88.6 181.7 236.5 175 177 177
-84.2 184.0 239.4 174 176 176
-79.6 186.3 242.5 188 190 190
-74.0 186.3 242.5 193 193 193
-65.0 177.2 230.7 193 193 193
-57.8 188.7 245.7 205 208 207
-49.5 179.4 233.5 215 215 215
-44.7 181.7 236.5 219 219 219
-39.7 184.0 239.4 217 217 217
-33.7 181.7 236.5 210 210 210
-28.2 181.7 236.5 212 213 212
-13.6 210.6 274.1 214 214 214
-6.4 186.3 242.5 193 196 195
-0.7 181.7 236.5 206 206 206
4.7 179.4 233.5 204 204 204
10.4 184.0 239.4 205 205 205
15.4 177.2 230.7 205 205 205
21.3 181.7 236.5 204 204 204
91.8 145.3 189.2 81 81 81
100.2 151.4 197.0 85 85 85
113.0 163.3 212.5 77 78 76
109.3 151.4 197.0 23 26 24
149.6 184.0 239.4 83 84 82
161.3 191.2 248.9 80 82 79
164.9 188.7 245.7 77 79 77
-996.6 282.5 356.9 73 73 73
-988.3 282.5 356.9 131 131 131
-980.0 282.5 356.9 162 162 162
-971.7 282.5 356.9 130 130 130
-963.4 282.5 356.9 131 131 131
-938.5 282.5 356.9 145 145 144
-948.1 287.9 363.8 136 138 137
-921.9 282.5 356.9 128 128 128
-913.6 282.5 356.9 165 165 165
-905.3 282.5 356.9 151 153 153
-897.0 282.5 356.9 162 162 162
-888.7 282.5 356.9 145 145 144
-864.1 277.3 350.3 139 141 140
-872.1 282.5 356.9 139 141 140
-863.8 282.5 356.9 140 142 141
-855.5 282.5 356.9 140 142 141
-847.2 282.5 356.9 139 139 139
-838.9 282.5 356.9 132 132 132
-830.6 282.5 356.9 176 175 173
-838.2 287.9 363.8 172 172 172
-829.7 287.9 363.8 145 147 147
-805.8 282.5 356.9 143 145 144
-797.5 282.5 356.9 139 139 139
-789.2 282.5 356.9 131 134 133
-862.2 311.9 394.1 132 135 134
-853.0 311.9 394.1 131 134 133
-770.5 287.9 363.8 138 138 138
-747.7 282.5 356.9 141 141 141
-739.4 282.5 356.9 143 145 144
-704.5 272.2 343.9 143 145 144
-722.8 282.5 356.9 143 145 144
-763.8 305.6 386.0 137 137 137
-739.8 299.5 378.3 131 133 132
-689.6 282.5 356.9 127 127 127
-622.6 258.2 326.1 121 121 121
-656.4 282.5 356.9 118 120 119
-636.1 277.3 350.3 118 120 119
-616.6 272.2 343.9 112 112 112
-539.9 241.5 305.1 106 108 108
-674.1 305.6 386.0 104 104 104
-651.8 299.5 378.3 104 106 106
-606.6 282.5 356.9 106 108 108
-625.5 299.5 378.3 98 97 95
-629.3 305.6 386.0 91 91 91
-620.3 305.6 386.0 90 90 90
-576.0 287.9 363.8 115 114 114
-548.6 282.5 356.9 186 186 186
-520.6 272.2 343.9 198 198 198
-532.0 282.5 356.9 169 169 169
-514.0 277.3 350.3 167 167 167
-498.8 282.5 356.9 164 164 164
-490.5 282.5 356.9 159 159 159
-482.2 282.5 356.9 168 168 168
-473.9 282.5 356.9 123 123 123
-465.6 282.5 356.9 88 88 86
-440.7 272.2 343.9 84 84 84
-449.0 282.5 356.9 71 72 70
-458.0 293.6 370.9 63 63 63
-432.4 282.5 356.9 57 57 57
-459.2 311.9 394.1 32 32 32
-399.3 282.5 356.9 13 13 13
-383.7 277.3 350.3 13 13 13
-382.7 282.5 356.9 25 25 25
-367.4 277.3 350.3 99 101 101
-359.3 277.3 350.3 144 144 144
-332.7 262.7 331.9 153 153 153
-370.4 299.5 378.3 162 162 162
-376.7 311.9 394.1 101 101 101
-332.9 282.5 356.9 180 180 180
-337.3 293.6 370.9 180 180 180
-316.3 282.5 356.9 160 163 162
-296.8 272.2 343.9 138 137 136
-324.2 305.6 386.0 138 138 138
-258.2 282.5 356.9 96 99 98
-208.4 282.5 356.9 140 140 140
-200.2 282.5 356.9 144 146 146
-191.9 282.5 356.9 150 150 150
-183.6 282.5 356.9 153 153 153
-175.3 282.5 356.9 154 156 156
-167.0 282.5 356.9 163 166 165
-158.7 282.5 356.9 146 146 146
-150.4 282.5 356.9 133 133 133
-142.1 282.5 356.9 169 169 169
-139.0 293.6 370.9 164 164 164
-125.5 282.5 356.9 170 171 170
-112.9 272.2 343.9 186 188 187
-103.1 267.4 337.8 179 179 179
-92.8 311.9 394.1 202 204 204
-83.6 311.9 394.1 209 209 209
-8.5 258.2 326.1 206 206 206
23.8 282.5 356.9 207 207 207
118.7 184.9 233.5 83 83 83
134.1 199.6 252.2 78 80 78
248.9 293.6 370.9 75 75 75
-390.5 138.5 152.6 177 177 177
-379.4 139.6 153.8 185 185 185
-372.8 138.5 152.6 166 166 166
-369.2 138.5 152.6 146 148 148
-343.6 139.6 153.8 47 48 47
-336.5 139.6 153.8 67 67 67
-325.0 136.3 150.1 62 64 61
-318.6 139.6 153.8 216 216 216
-312.5 138.5 152.6 218 218 218
-311.4 139.6 153.8 221 221 221
-291.2 138.5 152.6 120 122 121
-279.3 139.6 153.8 203 203 203
-271.3 137.4 151.3 185 185 185
-265.6 136.3 150.1 195 198 197
-248.7 138.5 152.6 36 37 36
-243.1 137.4 151.3 53 52 52
-248.0 144.3 159.0 62 62 62
-223.8 138.5 152.6 64 64 64
-211.4 139.6 153.8 69 71 69
-207.8 139.6 153.8 71 72 70
-204.2 139.6 153.8 74 74 74
-200.6 139.6 153.8 77 77 77
-197.1 139.6 153.8 75 76 76
-192.6 144.3 159.0 74 74 74
-156.5 138.5 152.6 184 187 186
-152.9 138.5 152.6 158 158 158
-149.4 138.5 152.6 118 120 119
-142.4 135.2 148.9 190 192 192
-82.0 138.5 152.6 154 154 154
-77.2 136.3 150.1 155 155 155
-45.8 136.3 150.1 58 58 58
-42.3 136.3 150.1 47 50 49
-38.5 135.2 148.9 199 199 199
-32.3 124.4 137.1 193 193 193
-186.3 174.3 127.0 37 38 37
-144.1 166.4 121.3 127 127 127
-186.6 183.4 131.4 20 23 21
-183.6 183.4 131.4 24 24 24
-178.1 180.9 129.6 36 36 36
-159.2 183.4 131.4 52 54 53
-151.9 178.4 127.8 68 68 68
-149.7 168.8 119.0 41 43 41
-148.8 171.0 120.5 28 28 28
-147.9 173.2 122.0 39 39 39
-143.2 171.0 120.5 53 53 53
-140.5 170.5 118.2 52 54 53
19.2 17.0 10.5 77 77 77
