ply
format ascii 1.0
element vertex 2101
property float x
property float y
property float z
property uchar red
property uchar green
property uchar blue
end_header
81.5 -327.3 130.5 160 160 160
83.4 -322.9 128.7 160 160 160
87.6 -327.3 130.5 160 160 160
90.6 -327.3 130.5 163 163 163
93.6 -327.3 130.5 164 164 164
97.3 -329.6 131.4 164 164 164
100.4 -329.6 131.4 164 164 164
103.4 -329.6 131.4 164 164 164
105.0 -325.1 129.6 164 164 164
107.3 -322.9 128.7 164 164 164
111.8 -327.3 130.5 164 164 164
114.8 -327.3 130.5 164 164 164
117.9 -327.3 130.5 164 164 164
120.9 -327.3 130.5 164 164 164
123.9 -327.3 130.5 164 164 164
127.0 -327.3 130.5 165 165 165
130.0 -327.3 130.5 165 165 165
133.0 -327.3 130.5 165 165 165
136.1 -327.3 130.5 162 162 162
142.0 -334.2 133.2 162 162 162
143.1 -329.6 131.4 163 163 163
144.2 -325.1 129.6 163 163 163
145.2 -320.7 127.8 163 163 163
152.3 -329.6 131.4 163 163 163
157.5 -334.2 133.2 160 160 160
158.4 -329.6 131.4 161 161 161
156.0 -318.5 127.0 161 161 161
166.8 -334.2 133.2 161 161 161
167.5 -329.6 131.4 161 161 161
170.6 -329.6 131.4 161 161 161
95.8 -154.6 61.6 154 156 156
98.2 -156.1 62.2 155 158 157
99.6 -156.1 62.2 155 158 157
101.1 -156.1 62.2 156 159 158
79.1 -57.3 22.8 96 99 98
79.7 -57.4 22.9 96 96 96
80.4 -57.5 22.9 93 93 93
81.0 -57.6 23.0 93 93 93
59.0 -40.1 16.0 197 200 199
59.5 -40.2 16.0 181 184 183
59.8 -40.1 16.0 181 184 183
61.1 -40.0 15.9 206 206 206
106.7 -395.1 159.0 163 163 163
111.3 -398.5 160.3 163 163 163
122.3 -423.6 170.4 164 164 164
125.1 -419.8 168.9 164 164 164
121.5 -395.1 159.0 167 167 167
121.1 -382.3 153.8 167 167 167
136.9 -419.8 168.9 167 167 167
140.8 -419.8 168.9 167 167 167
135.1 -391.8 157.6 164 164 164
138.8 -391.8 157.6 164 164 164
142.4 -391.8 157.6 164 164 164
146.1 -391.8 157.6 164 164 164
149.8 -391.8 157.6 164 164 164
153.4 -391.8 157.6 165 165 165
157.1 -391.8 157.6 165 165 165
160.8 -391.8 157.6 165 165 165
164.4 -391.8 157.6 162 162 162
170.9 -398.5 160.3 162 162 162
170.3 -388.6 156.3 163 163 163
171.1 -382.3 153.8 163 163 163
191.9 -419.8 168.9 163 163 163
190.7 -408.9 164.5 163 163 163
189.6 -398.5 160.3 163 163 163
186.9 -385.4 155.1 163 163 163
197.0 -398.5 160.3 163 163 163
191.0 -379.2 152.6 164 164 164
196.2 -382.3 153.8 164 164 164
250.7 -479.8 193.0 161 161 161
231.5 -435.4 175.2 161 161 161
227.2 -419.8 168.9 161 161 161
229.1 -416.1 167.4 161 161 161
102.4 -163.8 65.9 157 160 159
107.0 -168.5 67.8 155 158 157
113.4 -176.1 70.8 155 158 157
108.9 -166.7 67.1 156 159 158
76.3 -55.2 22.2 96 99 98
76.2 -54.7 22.0 96 96 96
77.3 -55.2 22.2 96 96 96
78.2 -55.5 22.3 93 93 93
79.2 -55.8 22.4 93 93 93
57.6 -39.0 15.7 197 197 197
58.2 -39.2 15.8 197 200 199
59.0 -39.4 15.9 197 197 197
59.2 -39.3 15.8 155 155 155
59.4 -39.2 15.8 197 200 199
59.7 -39.2 15.8 206 206 206
60.0 -39.2 15.8 212 213 212
60.4 -39.2 15.8 197 200 199
94.6 -193.3 78.5 163 163 163
88.4 -177.1 71.9 163 163 163
95.7 -184.8 75.1 164 164 164
91.7 -173.8 70.6 164 164 164
66.5 -105.4 42.8 162 162 162
125.1 -192.5 78.2 158 161 160
111.7 -169.4 68.8 158 161 160
77.6 -54.9 22.3 93 93 93
77.8 -54.6 22.2 93 93 93
57.1 -38.6 15.7 149 149 149
56.7 -38.1 15.5 197 200 199
57.3 -38.2 15.5 197 197 197
58.6 -38.8 15.8 212 213 212
58.8 -38.7 15.7 163 163 163
58.7 -38.4 15.6 155 155 155
58.9 -38.3 15.6 216 216 216
59.2 -38.3 15.5 183 186 185
59.1 -38.0 15.4 194 194 194
68.5 -144.2 59.1 163 163 163
80.3 -162.5 66.6 163 163 163
73.8 -146.5 60.1 163 163 163
73.8 -143.7 58.9 164 164 164
75.6 -144.6 59.3 164 164 164
81.3 -152.8 62.6 164 164 164
77.7 -143.3 58.7 164 164 164
102.4 -179.5 73.6 164 164 164
95.2 -164.2 67.3 164 164 164
82.2 -139.4 57.1 164 164 164
61.5 -98.0 40.2 165 165 165
58.6 -91.9 37.7 165 165 165
132.6 -205.1 84.1 163 163 163
128.9 -196.4 80.5 163 163 163
123.4 -185.3 76.0 166 166 166
78.7 -102.1 41.9 160 163 162
75.2 -96.3 39.5 160 163 162
62.3 -41.1 16.9 197 197 197
62.5 -41.1 16.8 201 203 203
62.6 -40.8 16.7 209 209 209
62.8 -40.7 16.7 212 213 212
63.3 -40.8 16.7 197 200 199
63.3 -40.5 16.6 201 203 203
69.2 -136.0 56.3 166 166 166
67.3 -129.8 53.7 166 166 166
61.4 -116.3 48.1 166 166 166
72.5 -134.8 55.8 164 164 164
71.0 -129.8 53.7 166 166 166
80.6 -137.7 57.0 166 166 166
76.6 -128.7 53.3 167 167 167
137.1 -219.7 90.9 167 167 167
52.5 -82.8 34.3 167 167 167
53.7 -83.4 34.5 165 165 165
52.3 -80.0 33.1 166 166 166
135.2 -204.0 84.4 166 166 166
126.9 -188.9 78.2 166 166 166
86.7 -112.8 46.7 159 162 161
78.3 -100.7 41.7 160 163 162
61.5 -39.7 16.4 177 177 177
61.5 -39.5 16.3 212 213 212
62.0 -39.6 16.4 183 186 185
61.1 -38.8 16.0 216 216 216
61.2 -38.6 16.0 212 213 212
58.3 -113.4 47.4 169 169 169
56.6 -106.3 44.4 169 169 169
55.0 -101.3 42.3 169 169 169
64.6 -117.0 48.9 169 169 169
61.5 -109.3 45.7 171 173 173
68.5 -114.0 47.6 170 171 170
64.0 -104.8 43.8 170 171 170
157.8 -254.3 106.3 170 171 170
147.0 -233.3 97.5 170 171 170
139.2 -217.6 90.9 170 171 170
51.0 -78.4 32.8 170 171 170
50.5 -76.6 32.0 172 172 172
146.3 -218.7 91.4 172 172 172
99.9 -130.4 54.5 167 167 167
55.3 -34.6 14.4 216 216 216
20.2 -79.6 33.6 168 170 169
21.0 -79.6 33.6 168 170 169
23.3 -79.6 33.6 168 170 169
24.1 -79.6 33.6 166 166 166
24.9 -79.6 33.6 164 164 164
25.6 -79.3 33.5 164 164 164
27.3 -79.8 33.7 167 167 167
28.0 -79.6 33.6 167 167 167
28.7 -79.3 33.5 169 171 170
29.5 -79.5 33.5 167 167 167
30.3 -79.3 33.5 167 167 167
31.0 -79.3 33.5 164 164 164
39.4 -93.8 39.6 170 172 172
40.9 -93.0 39.2 170 172 172
42.0 -93.4 39.4 168 168 168
36.5 -79.3 33.5 170 172 172
48.7 -94.0 39.7 169 169 169
42.2 -79.9 33.7 171 173 173
42.4 -78.8 33.2 171 173 173
51.5 -94.0 39.7 171 173 173
44.8 -80.3 33.9 171 173 173
45.0 -79.2 33.4 171 173 173
61.6 -99.8 42.1 170 171 170
168.2 -268.4 113.3 172 174 174
150.9 -237.2 100.1 172 174 174
51.7 -80.0 33.8 170 171 170
51.2 -78.1 33.0 172 174 174
50.6 -76.0 32.1 173 175 175
51.6 -76.4 32.2 173 175 175
163.1 -234.7 99.0 174 176 176
109.4 -141.4 59.7 173 173 173
49.8 -63.6 26.8 177 180 179
49.0 -61.7 26.1 170 171 170
34.6 -28.0 11.8 115 115 115
19.7 -76.8 32.7 168 170 169
20.4 -76.8 32.7 168 170 169
21.2 -76.8 32.7 168 170 169
22.0 -76.8 32.7 168 170 169
22.7 -76.8 32.7 166 166 166
24.3 -76.9 32.8 169 171 170
25.0 -76.7 32.7 169 171 170
25.8 -76.9 32.8 169 171 170
26.6 -77.1 32.8 169 171 170
27.3 -76.8 32.7 169 171 170
28.0 -76.7 32.7 169 171 170
28.8 -76.8 32.7 169 171 170
29.6 -76.8 32.7 169 171 170
30.3 -76.7 32.7 172 174 174
31.0 -76.7 32.7 173 175 175
31.7 -76.5 32.6 170 172 172
32.6 -76.8 32.7 170 172 172
33.5 -77.1 32.8 170 172 172
34.1 -76.7 32.7 173 175 175
34.8 -76.5 32.6 170 172 172
35.6 -76.7 32.7 173 175 175
36.4 -76.8 32.7 173 175 175
37.2 -76.8 32.7 170 172 172
38.1 -77.1 32.8 173 175 175
38.8 -77.1 32.8 178 178 178
39.6 -77.1 32.8 171 173 173
40.4 -77.1 32.8 178 178 178
41.1 -76.9 32.8 174 176 176
41.6 -76.5 32.6 179 179 179
42.6 -76.9 32.8 174 176 176
43.6 -77.3 33.0 179 179 179
43.9 -76.7 32.7 179 179 179
44.9 -77.1 32.8 174 176 176
45.7 -77.1 32.8 181 181 181
46.5 -77.1 32.8 179 179 179
47.2 -77.1 32.8 175 177 177
48.0 -77.1 32.8 180 180 180
48.6 -76.8 32.7 182 182 182
49.3 -76.7 32.7 180 180 180
50.8 -77.9 33.2 172 174 174
51.0 -76.9 32.8 175 177 177
50.7 -75.4 32.1 173 175 175
51.5 -75.5 32.2 173 175 175
52.9 -76.4 32.6 176 179 178
163.1 -232.4 99.0 181 181 181
42.7 -26.8 11.4 206 206 206
42.6 -26.5 11.3 212 213 212
42.9 -26.6 11.3 218 218 218
46.4 -28.6 12.2 218 218 218
46.7 -28.6 12.2 218 218 218
26.4 -75.8 32.6 179 179 179
27.2 -75.8 32.6 169 171 170
29.4 -75.6 32.6 172 174 174
30.1 -75.4 32.4 177 177 177
32.6 -75.9 32.7 182 182 182
33.4 -76.0 32.7 184 184 184
35.6 -75.9 32.7 189 189 189
36.4 -75.9 32.7 190 190 190
38.0 -76.2 32.8 200 200 200
38.8 -76.3 32.8 195 195 195
39.5 -76.2 32.8 197 197 197
40.4 -76.3 32.8 195 195 195
41.1 -76.2 32.8 195 195 195
41.5 -75.5 32.5 197 197 197
42.5 -76.0 32.7 194 194 194
43.7 -76.8 33.1 197 197 197
43.6 -75.4 32.4 200 200 200
44.9 -76.2 32.8 200 200 200
45.7 -76.3 32.8 197 197 197
46.5 -76.3 32.8 197 197 197
47.2 -76.3 32.8 194 194 194
47.8 -76.0 32.7 194 194 194
48.3 -75.5 32.5 197 197 197
48.3 -74.5 32.1 197 197 197
51.0 -77.4 33.3 200 200 200
50.9 -76.0 32.7 197 197 197
49.4 -72.8 31.3 198 198 198
51.2 -74.2 32.0 198 198 198
52.8 -75.5 32.5 202 202 202
160.6 -226.5 97.5 199 199 199
156.4 -217.5 93.6 203 203 203
42.0 -26.1 11.2 207 207 207
41.9 -25.9 11.1 191 191 191
42.2 -25.9 11.1 209 209 209
41.8 -25.5 11.0 218 218 218
41.8 -76.9 33.4 200 200 200
44.3 -77.0 33.5 204 204 204
43.3 -74.0 32.2 204 204 204
45.1 -75.8 33.0 204 204 204
46.1 -76.2 33.1 200 200 200
47.0 -76.5 33.2 204 204 204
47.6 -76.2 33.1 204 204 204
48.0 -75.5 32.8 204 204 204
47.1 -73.0 31.7 204 204 204
46.8 -71.4 31.1 204 204 204
51.3 -77.0 33.5 204 204 204
51.0 -75.4 32.8 204 204 204
49.1 -71.6 31.1 205 205 205
50.4 -72.4 31.5 205 205 205
52.8 -74.7 32.5 205 205 205
152.8 -213.3 92.7 206 206 206
151.2 -208.2 90.5 206 206 206
41.3 -24.9 10.8 216 216 216
41.3 -24.8 10.8 218 218 218
41.6 -74.2 32.6 204 204 204
44.5 -76.6 33.7 204 204 204
42.8 -72.4 31.8 204 204 204
43.9 -73.1 32.1 204 204 204
46.6 -76.2 33.5 204 204 204
47.8 -76.9 33.8 204 204 204
47.5 -75.2 33.0 204 204 204
46.9 -73.1 32.1 204 204 204
46.5 -71.3 31.3 204 204 204
46.9 -70.8 31.1 204 204 204
50.8 -75.6 33.2 204 204 204
50.6 -74.1 32.6 204 204 204
49.1 -70.8 31.1 205 205 205
50.3 -71.5 31.4 205 205 205
52.2 -73.1 32.1 205 205 205
55.7 -77.0 33.8 203 203 203
149.1 -203.1 89.2 206 206 206
18.8 -70.6 31.3 204 204 204
19.5 -70.5 31.3 204 204 204
20.2 -70.3 31.2 204 204 204
20.9 -70.2 31.2 204 204 204
21.7 -70.5 31.3 204 204 204
23.4 -71.3 31.6 204 204 204
23.9 -70.5 31.3 204 204 204
24.6 -70.3 31.2 204 204 204
25.3 -70.5 31.3 204 204 204
26.1 -70.5 31.3 204 204 204
26.8 -70.5 31.3 204 204 204
27.5 -70.3 31.2 204 204 204
28.7 -71.6 31.8 204 204 204
32.5 -70.2 31.2 204 204 204
33.3 -70.3 31.2 204 204 204
34.1 -70.5 31.3 204 204 204
34.7 -70.3 31.2 204 204 204
35.5 -70.5 31.3 204 204 204
40.7 -71.9 31.9 204 204 204
40.5 -70.2 31.2 204 204 204
43.0 -73.2 32.5 204 204 204
42.3 -70.8 31.4 204 204 204
43.2 -71.2 31.6 204 204 204
44.7 -72.4 32.1 204 204 204
45.5 -72.5 32.2 204 204 204
46.7 -73.1 32.4 204 204 204
46.5 -71.6 31.8 204 204 204
46.2 -70.1 31.1 204 204 204
46.5 -69.4 30.8 204 204 204
48.9 -72.0 32.0 204 204 204
49.3 -71.5 31.7 204 204 204
48.8 -69.8 31.0 205 205 205
50.1 -70.5 31.3 205 205 205
51.6 -71.6 31.8 205 205 205
18.5 -68.7 30.8 207 207 207
19.1 -68.0 30.5 207 207 207
19.7 -67.9 30.5 207 207 207
20.4 -67.9 30.5 207 207 207
21.2 -68.0 30.5 207 207 207
22.1 -68.7 30.8 207 207 207
22.7 -68.5 30.7 207 207 207
23.3 -68.0 30.5 207 207 207
24.0 -68.0 30.5 204 204 204
24.7 -68.0 30.5 207 207 207
25.4 -68.0 30.5 209 209 209
26.1 -68.0 30.5 207 207 207
26.8 -67.9 30.5 207 207 207
27.6 -68.0 30.5 207 207 207
31.8 -68.0 30.5 204 204 204
32.5 -68.0 30.5 207 207 207
33.2 -68.0 30.5 207 207 207
33.9 -68.0 30.5 207 207 207
34.7 -68.0 30.5 207 207 207
39.6 -68.0 30.5 207 207 207
41.7 -69.2 31.0 207 207 207
41.9 -68.3 30.6 207 207 207
47.0 -72.9 32.7 207 207 207
46.6 -71.1 31.9 207 207 207
45.4 -68.3 30.6 207 207 207
45.7 -67.6 30.3 207 207 207
48.5 -70.7 31.7 207 207 207
48.4 -69.4 31.1 207 207 207
48.3 -68.3 30.6 207 207 207
49.6 -69.2 31.0 207 207 207
50.9 -70.0 31.4 205 205 205
19.7 -67.1 30.4 206 206 206
20.4 -67.2 30.5 206 206 206
24.0 -67.2 30.5 206 206 206
25.4 -67.3 30.5 206 206 206
26.1 -67.3 30.5 206 206 206
26.8 -67.1 30.4 209 209 209
27.5 -67.2 30.5 209 209 209
32.5 -67.2 30.5 206 206 206
33.1 -67.1 30.4 206 206 206
33.9 -67.2 30.5 206 206 206
39.5 -67.1 30.4 206 206 206
41.9 -68.7 31.1 206 206 206
47.1 -72.2 32.7 206 206 206
46.8 -70.6 32.0 206 206 206
45.8 -68.1 30.9 206 206 206
45.7 -66.9 30.3 206 206 206
48.0 -69.1 31.3 206 206 206
48.3 -68.5 31.1 206 206 206
48.3 -67.5 30.6 206 206 206
49.8 -68.7 31.1 207 207 207
50.6 -68.8 31.2 207 207 207
54.2 -71.6 32.4 207 207 207
25.9 -67.8 31.1 208 208 208
26.6 -67.8 31.1 208 208 208
27.3 -67.7 31.0 208 208 208
40.2 -67.6 31.0 205 205 205
42.1 -68.4 31.3 205 205 205
47.3 -71.8 32.9 205 205 205
47.5 -71.0 32.5 205 205 205
46.7 -68.6 31.4 205 205 205
46.6 -67.5 30.9 205 205 205
48.3 -68.8 31.5 202 202 202
48.5 -68.2 31.2 206 206 206
48.8 -67.5 30.9 206 206 206
50.0 -68.2 31.2 206 206 206
50.7 -68.2 31.2 206 206 206
55.5 -73.6 33.7 207 207 207
56.1 -73.4 33.6 207 207 207
56.0 -72.2 33.1 207 207 207
-8.5 -22.4 10.4 139 139 139
-3.2 -22.4 10.4 163 163 163
44.6 -72.8 33.7 207 207 207
43.2 -69.4 32.1 210 210 210
47.3 -73.4 34.0 207 207 207
49.4 -74.2 34.3 205 205 205
48.0 -68.8 31.8 205 205 205
50.1 -70.7 32.7 207 207 207
50.3 -70.0 32.4 207 207 207
49.1 -67.2 31.1 205 205 205
50.5 -68.1 31.5 206 206 206
51.0 -67.9 31.4 206 206 206
56.5 -74.0 34.3 206 206 206
57.4 -74.2 34.3 206 206 206
57.2 -73.0 33.8 206 206 206
-30.4 -23.0 10.8 43 43 43
-30.1 -23.0 10.8 46 46 44
-14.5 -22.9 10.7 120 122 121
-10.3 -22.9 10.7 132 135 134
44.1 -71.3 33.4 207 207 207
44.1 -70.1 32.8 207 207 207
47.1 -73.6 34.5 207 207 207
46.8 -71.8 33.6 207 207 207
47.6 -71.9 33.7 207 207 207
48.6 -72.2 33.8 207 207 207
50.1 -72.2 33.8 207 207 207
48.5 -68.8 32.2 206 206 206
50.1 -69.9 32.7 206 206 206
50.4 -69.3 32.4 207 207 207
49.1 -66.5 31.1 205 205 205
50.6 -67.5 31.6 205 205 205
51.0 -67.2 31.4 205 205 205
56.0 -72.7 34.0 205 205 205
57.0 -73.0 34.1 206 206 206
57.1 -72.1 33.7 206 206 206
58.6 -73.0 34.1 206 206 206
-10.4 -23.0 10.9 130 130 130
43.3 -69.3 32.8 206 206 206
43.0 -67.5 32.0 206 206 206
45.7 -69.4 32.8 206 206 206
46.5 -69.4 32.8 206 206 206
47.6 -69.9 33.1 206 206 206
48.1 -67.4 31.9 206 206 206
48.7 -67.2 31.8 206 206 206
48.4 -65.8 31.1 206 206 206
48.5 -65.0 30.8 206 206 206
50.1 -66.1 31.3 204 204 204
50.9 -66.2 31.3 205 205 205
56.7 -71.8 34.0 205 205 205
56.6 -70.6 33.4 205 205 205
57.2 -70.4 33.3 205 205 205
26.3 -28.1 13.3 206 206 206
-36.9 -27.4 13.1 49 49 49
-33.9 -27.4 13.1 52 52 52
-31.8 -27.4 13.1 44 44 44
-30.9 -27.5 13.1 44 44 44
-13.1 -27.2 13.0 120 120 120
8.5 -27.5 13.2 207 207 207
8.8 -27.4 13.1 207 207 207
11.0 -27.5 13.1 206 206 206
11.3 -27.5 13.1 206 206 206
11.6 -27.4 13.1 206 206 206
11.9 -27.5 13.2 206 206 206
12.2 -27.5 13.1 206 206 206
12.5 -27.4 13.1 206 206 206
12.8 -27.5 13.1 206 206 206
13.1 -27.5 13.1 206 206 206
13.4 -27.5 13.1 206 206 206
13.7 -27.5 13.1 206 206 206
45.4 -68.2 32.6 206 206 206
47.3 -68.8 32.9 206 206 206
47.7 -66.1 31.6 205 205 205
46.9 -64.0 30.6 205 205 205
47.1 -63.4 30.3 206 206 206
47.9 -63.5 30.4 206 206 206
49.8 -65.0 31.1 206 206 206
50.5 -65.0 31.1 200 200 200
56.2 -69.4 33.2 205 205 205
56.6 -68.9 33.0 205 205 205
57.1 -68.5 32.8 205 205 205
26.4 -27.9 13.4 205 205 205
-37.4 -27.5 13.3 50 50 50
-13.8 -27.8 13.5 111 111 111
-13.3 -27.4 13.3 109 111 111
-12.9 -27.2 13.1 108 110 110
8.4 -27.9 13.5 209 209 209
8.7 -27.7 13.4 206 206 206
9.0 -27.8 13.4 206 206 206
9.6 -27.8 13.4 206 206 206
10.0 -27.9 13.5 206 206 206
10.3 -27.8 13.4 206 206 206
10.9 -27.8 13.4 209 209 209
11.2 -27.7 13.4 206 206 206
11.5 -27.7 13.4 206 206 206
11.8 -27.7 13.4 209 209 209
12.2 -27.8 13.5 206 206 206
12.4 -27.8 13.4 206 206 206
12.7 -27.7 13.4 206 206 206
13.1 -27.8 13.4 206 206 206
13.4 -27.9 13.5 206 206 206
13.8 -27.9 13.5 206 206 206
14.0 -27.8 13.4 206 206 206
14.3 -27.8 13.4 206 206 206
45.5 -67.5 32.7 205 205 205
47.2 -67.9 32.8 205 205 205
48.9 -67.1 32.4 205 205 205
46.6 -63.0 30.5 205 205 205
47.0 -62.6 30.3 205 205 205
47.9 -62.8 30.4 205 205 205
49.7 -64.2 31.1 205 205 205
50.5 -64.3 31.1 206 206 206
55.5 -69.7 33.7 206 206 206
56.7 -69.2 33.5 204 204 204
56.8 -68.4 33.1 204 204 204
57.2 -67.9 32.8 204 204 204
26.2 -27.8 13.5 204 204 204
26.4 -27.7 13.4 205 205 205
26.5 -27.5 13.3 205 205 205
-29.9 -30.1 14.7 42 42 42
-13.9 -27.7 13.5 103 105 105
-13.4 -27.4 13.4 87 87 87
-12.9 -26.9 13.2 72 71 69
-12.5 -26.7 13.1 68 68 68
8.7 -27.5 13.4 209 209 209
10.6 -30.2 14.8 209 209 209
10.3 -27.5 13.5 208 208 208
10.9 -27.5 13.5 208 208 208
11.2 -27.5 13.4 208 208 208
11.5 -27.5 13.4 208 208 208
11.8 -27.4 13.4 210 210 210
12.2 -27.6 13.5 205 205 205
12.5 -27.5 13.4 205 205 205
14.0 -30.2 14.8 205 205 205
14.4 -30.2 14.8 208 208 208
14.0 -27.5 13.5 205 205 205
14.3 -27.5 13.5 205 205 205
16.1 -30.2 14.8 205 205 205
17.5 -29.6 14.5 202 202 202
47.9 -65.0 31.8 204 204 204
46.4 -62.0 30.3 204 204 204
46.8 -61.6 30.1 205 205 205
47.8 -62.0 30.3 205 205 205
49.0 -62.6 30.6 205 205 205
50.1 -63.1 30.9 205 205 205
56.0 -69.5 34.0 205 205 205
69.2 -80.2 39.2 204 204 204
26.1 -27.4 13.4 204 204 204
26.3 -27.2 13.3 204 204 204
26.5 -27.1 13.3 204 204 204
-42.1 -30.2 15.0 51 51 51
-41.9 -30.3 15.0 51 51 51
-41.6 -30.3 15.0 53 53 53
-41.2 -30.3 15.0 53 53 53
-40.9 -30.3 15.0 56 56 56
-40.5 -30.3 15.0 56 56 56
-40.2 -30.3 15.0 53 53 53
-39.9 -30.4 15.0 53 53 53
-39.5 -30.3 15.0 56 56 56
-39.1 -30.3 15.0 53 53 53
-38.8 -30.3 15.0 53 53 53
-38.4 -30.3 15.0 51 51 51
-38.1 -30.3 15.0 53 53 53
-37.8 -30.4 15.0 51 51 51
-37.4 -30.4 15.0 51 51 51
-37.0 -30.3 15.0 50 49 48
-36.4 -30.4 15.0 50 49 48
-36.0 -30.3 15.0 47 47 47
-35.6 -30.3 15.0 47 47 47
-35.3 -30.4 15.0 47 47 47
-35.0 -30.4 15.0 47 47 47
-34.6 -30.4 15.0 47 47 47
-34.2 -30.3 15.0 45 45 45
-33.9 -30.3 15.0 47 47 47
-33.5 -30.3 15.0 47 47 47
-32.9 -30.4 15.0 47 47 47
-32.5 -30.4 15.0 47 47 47
-32.1 -30.3 15.0 45 45 45
-31.8 -30.4 15.0 45 45 45
-31.6 -30.4 15.1 45 45 45
-31.3 -30.6 15.1 45 45 45
-30.8 -30.4 15.0 46 46 46
-30.3 -30.2 15.0 42 43 42
-12.9 -26.1 12.9 19 23 20
-12.6 -26.0 12.9 27 27 27
-12.3 -26.0 12.9 29 30 28
-10.6 -24.8 12.3 27 29 27
9.7 -30.4 15.0 208 208 208
10.1 -30.4 15.0 208 208 208
10.4 -30.4 15.0 208 208 208
10.8 -30.3 15.0 208 208 208
11.1 -30.3 15.0 208 208 208
12.6 -30.5 15.1 208 208 208
12.9 -30.4 15.0 208 208 208
13.2 -30.3 15.0 209 209 209
13.6 -30.4 15.0 205 205 205
13.9 -30.4 15.0 205 205 205
14.3 -30.3 15.0 205 205 205
14.6 -30.3 15.0 205 205 205
15.0 -30.3 15.0 205 205 205
15.3 -30.3 15.0 208 208 208
16.8 -30.5 15.1 204 204 204
17.2 -30.6 15.1 207 207 207
17.4 -30.4 15.0 207 207 207
17.7 -30.3 15.0 207 207 207
18.0 -30.2 15.0 204 204 204
18.4 -30.3 15.0 207 207 207
18.8 -30.4 15.0 207 207 207
46.7 -62.6 31.0 204 204 204
46.3 -60.2 29.8 204 204 204
47.6 -61.0 30.2 207 207 207
48.8 -61.6 30.5 204 204 204
49.6 -61.7 30.5 205 205 205
50.1 -61.5 30.4 205 205 205
69.5 -79.6 39.4 206 206 206
70.7 -80.0 39.6 204 204 204
26.0 -26.9 13.3 205 205 205
26.2 -26.8 13.3 203 203 203
-44.0 -31.2 15.6 54 54 54
-40.3 -31.2 15.6 57 57 57
-40.0 -31.2 15.6 54 54 54
-35.3 -31.2 15.6 47 48 47
-34.3 -31.3 15.7 47 48 47
-33.8 -31.2 15.6 48 48 48
-33.6 -31.3 15.7 46 46 46
-32.5 -31.4 15.7 47 47 47
-31.9 -31.1 15.6 43 43 43
-30.7 -30.3 15.2 44 44 44
-26.6 -30.4 15.2 46 46 46
-20.7 -24.0 12.0 50 50 50
-15.5 -30.2 15.1 27 27 27
-12.7 -25.8 12.9 26 26 26
-10.7 -24.7 12.3 27 29 27
11.2 -30.3 15.2 208 208 208
13.0 -30.4 15.2 207 207 207
13.8 -31.3 15.7 207 207 207
14.2 -31.3 15.7 207 207 207
14.9 -31.3 15.7 204 204 204
17.8 -31.4 15.7 207 207 207
18.2 -31.3 15.7 207 207 207
17.9 -30.3 15.2 207 207 207
18.3 -30.3 15.2 207 207 207
46.5 -61.6 30.9 206 206 206
46.1 -59.2 29.6 206 206 206
47.7 -60.4 30.2 207 207 207
48.9 -61.0 30.6 207 207 207
49.6 -60.9 30.5 204 204 204
50.1 -60.8 30.4 204 204 204
69.8 -79.1 39.6 205 205 205
71.2 -79.6 39.8 205 205 205
25.8 -26.4 13.2 204 204 204
26.1 -26.4 13.2 205 205 205
-34.0 -23.8 12.1 57 57 57
-33.9 -24.0 12.1 55 55 55
-33.6 -24.0 12.1 57 57 57
-33.3 -24.0 12.1 59 60 58
-33.0 -24.0 12.1 59 61 59
-32.8 -24.0 12.1 59 61 59
-32.5 -24.0 12.1 58 58 58
-32.2 -24.0 12.1 58 58 58
-31.9 -24.0 12.1 58 58 58
-31.6 -24.0 12.1 58 58 58
-31.3 -24.0 12.1 58 58 58
-31.1 -24.0 12.1 53 52 52
-30.8 -24.0 12.1 55 55 55
-30.5 -24.0 12.1 55 55 55
-30.2 -24.0 12.1 55 55 55
-29.9 -24.0 12.1 53 52 52
-29.6 -23.9 12.1 53 52 52
-29.4 -24.0 12.2 51 51 49
-29.2 -24.0 12.2 48 48 48
-28.9 -24.0 12.2 48 48 48
-28.4 -23.9 12.1 48 48 48
-28.3 -24.0 12.2 48 48 48
-28.0 -24.0 12.2 48 48 48
-27.6 -23.9 12.1 48 48 48
-27.3 -23.9 12.1 48 48 48
-27.2 -24.0 12.2 48 48 48
-26.9 -24.0 12.2 48 48 48
-26.5 -24.0 12.1 49 49 49
-26.2 -23.9 12.1 49 49 49
-25.9 -23.9 12.1 49 49 49
-25.7 -24.0 12.1 47 48 47
-25.4 -23.9 12.1 47 48 47
-25.2 -24.0 12.1 47 48 47
-24.9 -24.0 12.1 47 48 47
-24.6 -24.0 12.1 45 45 45
-24.3 -24.0 12.1 45 45 45
-24.1 -24.0 12.2 45 45 45
-23.7 -23.9 12.1 43 43 43
-23.5 -24.0 12.1 43 43 43
-23.3 -24.1 12.2 44 44 44
-23.0 -24.0 12.2 42 42 42
-22.6 -24.0 12.1 42 42 42
-22.3 -24.0 12.1 42 42 42
-22.2 -24.1 12.2 42 42 42
-21.9 -24.1 12.2 42 43 42
-21.6 -24.0 12.2 41 41 39
-21.1 -23.9 12.1 41 41 39
-20.8 -23.8 12.1 39 39 39
-20.6 -23.9 12.1 43 43 43
-20.3 -23.9 12.1 42 42 40
-20.0 -23.9 12.1 50 50 50
-19.8 -23.9 12.1 38 40 40
-10.8 -24.1 12.2 31 30 29
-10.6 -24.1 12.2 32 32 32
-10.3 -24.3 12.3 35 37 36
-10.0 -24.1 12.2 38 38 38
-9.6 -23.9 12.1 151 151 151
-9.3 -23.8 12.1 182 182 182
2.5 -23.8 12.1 190 190 190
9.0 -24.0 12.2 207 207 207
9.2 -23.9 12.1 207 207 207
9.5 -23.9 12.1 207 207 207
9.8 -23.9 12.1 207 207 207
10.1 -23.9 12.1 207 207 207
10.4 -23.9 12.1 207 207 207
10.7 -24.0 12.2 207 207 207
11.0 -24.0 12.2 207 207 207
11.2 -24.0 12.1 207 207 207
11.5 -24.0 12.1 204 204 204
11.8 -24.0 12.1 204 204 204
12.1 -24.0 12.1 204 204 204
12.4 -24.0 12.1 204 204 204
12.7 -24.0 12.1 207 207 207
13.0 -24.0 12.1 208 208 208
13.2 -23.9 12.1 208 208 208
13.4 -23.9 12.1 206 206 206
13.7 -23.9 12.1 206 206 206
14.1 -24.0 12.2 206 206 206
14.3 -23.9 12.1 206 206 206
15.0 -24.2 12.2 206 206 206
15.3 -24.1 12.2 206 206 206
15.4 -23.9 12.1 206 206 206
45.9 -60.1 30.5 206 206 206
45.3 -58.4 29.6 206 206 206
45.9 -58.4 29.6 206 206 206
47.6 -59.6 30.2 206 206 206
48.6 -59.9 30.4 206 206 206
49.2 -59.8 30.3 206 206 206
49.8 -59.7 30.2 204 204 204
48.6 -57.5 29.1 204 204 204
48.6 -56.7 28.7 204 204 204
70.2 -78.6 39.8 205 205 205
72.2 -79.8 40.4 205 205 205
26.0 -26.1 13.2 204 204 204
26.0 -25.7 13.0 204 204 204
-34.6 -24.0 12.3 59 61 59
-34.7 -24.3 12.4 59 61 59
-34.4 -24.3 12.4 59 61 59
-34.1 -24.3 12.4 59 61 59
-33.9 -24.3 12.4 58 58 58
-33.6 -24.3 12.4 58 58 58
-33.3 -24.3 12.4 56 56 56
-33.0 -24.3 12.4 58 58 58
-32.7 -24.3 12.4 56 56 56
-32.2 -24.1 12.3 58 59 59
-32.1 -24.3 12.4 60 62 60
-31.9 -24.3 12.5 58 59 59
-31.5 -24.3 12.4 58 59 59
-31.3 -24.3 12.4 58 59 59
-31.0 -24.3 12.4 58 59 59
-28.0 -24.2 12.4 49 49 49
-27.7 -24.2 12.4 49 49 49
-27.4 -24.2 12.4 50 50 50
-27.0 -24.1 12.3 50 50 50
-26.7 -24.1 12.3 50 50 50
-26.6 -24.3 12.4 48 48 48
-26.4 -24.3 12.5 48 48 48
-26.1 -24.3 12.4 50 50 50
-25.8 -24.3 12.5 50 50 50
-25.3 -24.1 12.3 51 51 51
-25.0 -24.1 12.3 48 48 48
-24.7 -24.0 12.3 46 46 46
-24.5 -24.2 12.4 46 46 46
-23.5 -24.3 12.5 42 43 42
-22.5 -24.2 12.4 43 43 43
-22.4 -24.4 12.5 42 42 40
-22.0 -24.3 12.4 42 42 40
-21.4 -23.9 12.3 43 42 41
-20.9 -24.0 12.3 41 41 41
-20.6 -24.0 12.3 43 42 41
-20.4 -24.0 12.3 44 43 42
-12.4 -24.8 12.7 30 31 30
-12.0 -24.5 12.6 29 31 29
-11.0 -24.3 12.5 33 33 33
-10.7 -24.1 12.3 34 34 34
-10.4 -24.2 12.4 35 37 36
12.8 -24.0 12.3 206 206 206
13.1 -24.0 12.3 206 206 206
47.3 -61.2 31.4 205 205 205
45.0 -57.4 29.4 205 205 205
45.8 -57.5 29.5 205 205 205
47.7 -59.0 30.2 205 205 205
49.0 -59.7 30.6 206 206 206
49.3 -59.2 30.4 206 206 206
49.8 -59.0 30.2 203 203 203
48.8 -57.0 29.2 203 203 203
48.0 -55.3 28.3 203 203 203
25.9 -25.3 13.0 203 203 203
-34.8 -23.8 12.4 60 62 60
-34.6 -23.9 12.4 60 62 60
-34.3 -23.9 12.4 60 62 60
-34.1 -23.9 12.4 60 62 60
-33.8 -23.9 12.4 60 62 60
-33.5 -23.9 12.4 60 62 60
-33.2 -23.9 12.4 58 59 59
-32.9 -23.9 12.4 58 59 59
-32.6 -23.9 12.4 57 57 57
-32.3 -23.9 12.4 57 57 57
-32.0 -23.9 12.4 57 57 57
-31.8 -24.0 12.4 57 57 57
-31.5 -23.9 12.4 57 57 57
-31.2 -23.9 12.4 59 59 59
-30.9 -23.9 12.4 59 59 59
-30.6 -23.9 12.4 57 57 57
-29.5 -24.0 12.4 50 50 50
-28.6 -24.0 12.4 54 53 52
-28.4 -24.0 12.4 50 50 50
-28.0 -23.9 12.4 50 50 50
-27.8 -24.0 12.4 50 50 50
-27.5 -24.0 12.4 51 51 51
-27.1 -23.9 12.4 51 51 51
-26.8 -23.9 12.4 51 51 51
-26.6 -23.9 12.4 51 51 51
-26.3 -23.9 12.4 51 51 51
-26.0 -23.9 12.4 51 51 51
-25.7 -23.9 12.4 52 52 52
-25.4 -23.9 12.4 49 49 49
-25.1 -23.9 12.4 50 50 50
-24.7 -23.8 12.3 47 47 47
-24.5 -23.9 12.4 47 48 47
-23.5 -24.1 12.5 43 43 43
-22.6 -24.0 12.4 44 44 44
-22.0 -24.0 12.5 43 42 41
-21.5 -23.8 12.3 44 43 42
-21.3 -23.8 12.4 41 41 41
-21.0 -23.8 12.4 42 42 42
-20.7 -23.8 12.3 40 42 42
-13.0 -25.0 13.0 30 29 29
-12.6 -24.9 12.9 30 31 30
-11.0 -24.0 12.5 29 31 29
-10.7 -23.8 12.4 32 31 30
-10.4 -23.9 12.4 36 38 37
46.9 -60.0 31.1 205 205 205
45.6 -57.4 29.8 205 205 205
46.0 -57.1 29.6 205 205 205
47.8 -58.4 30.3 205 205 205
49.5 -59.6 30.9 205 205 205
50.0 -59.3 30.8 205 205 205
50.2 -58.7 30.5 205 205 205
49.4 -57.0 29.6 206 206 206
48.7 -55.4 28.7 206 206 206
47.4 -53.2 27.6 203 203 203
57.0 -62.3 32.3 206 206 206
-34.9 -23.6 12.4 60 62 60
-34.7 -23.6 12.4 64 64 64
-34.4 -23.6 12.4 61 63 61
-34.1 -23.6 12.4 61 63 61
-33.8 -23.6 12.4 59 59 59
-33.5 -23.6 12.4 57 57 57
-33.2 -23.6 12.4 57 57 57
-32.9 -23.6 12.4 59 59 59
-32.6 -23.6 12.4 59 59 59
-32.3 -23.6 12.4 61 63 61
-32.1 -23.6 12.4 59 59 59
-31.8 -23.7 12.4 58 58 58
-31.5 -23.6 12.4 60 60 60
-31.2 -23.6 12.4 60 60 60
-30.9 -23.6 12.4 60 60 60
-30.6 -23.6 12.4 58 58 58
-30.3 -23.6 12.4 58 58 58
-30.0 -23.6 12.4 58 58 58
-29.8 -23.7 12.4 55 55 55
-29.5 -23.6 12.4 54 53 52
-28.6 -23.7 12.4 55 54 53
-28.3 -23.6 12.4 51 51 51
-27.8 -23.7 12.4 52 52 52
-27.5 -23.7 12.4 55 54 53
-27.2 -23.6 12.4 55 54 53
-26.9 -23.6 12.4 52 52 52
-26.0 -23.6 12.4 52 52 52
-25.7 -23.7 12.4 50 50 50
-25.4 -23.6 12.4 51 51 51
-25.1 -23.6 12.4 47 48 47
-24.8 -23.6 12.4 48 48 48
-24.5 -23.6 12.4 48 48 48
-24.3 -23.6 12.4 47 47 47
-23.5 -23.7 12.4 44 44 44
-21.6 -23.5 12.4 45 44 43
-21.3 -23.6 12.4 45 44 43
-21.1 -23.6 12.4 42 43 42
-20.8 -23.6 12.4 41 43 42
-12.6 -23.5 12.3 29 29 29
-12.8 -24.8 13.0 30 29 29
-11.3 -23.7 12.5 33 32 30
-11.1 -23.8 12.5 33 32 30
-10.7 -23.6 12.4 34 34 34
-10.4 -23.7 12.4 34 34 34
-10.1 -23.7 12.4 45 45 45
47.3 -59.8 31.4 204 204 204
46.6 -57.9 30.4 204 204 204
46.8 -57.4 30.1 204 204 204
48.2 -58.2 30.6 204 204 204
49.7 -59.2 31.1 205 205 205
50.4 -59.2 31.1 205 205 205
50.9 -58.9 30.9 205 205 205
50.9 -58.0 30.5 205 205 205
49.8 -56.0 29.4 205 205 205
54.6 -60.6 31.8 205 205 205
56.8 -62.1 32.6 205 205 205
57.0 -61.6 32.3 206 206 206
-29.2 -23.9 12.7 56 55 54
-26.2 -23.8 12.7 53 53 53
-25.9 -23.8 12.7 53 53 53
-13.1 -24.7 13.1 30 30 30
-12.8 -24.6 13.1 40 42 42
-11.2 -23.8 12.7 57 57 57
-10.8 -23.5 12.5 64 65 63
-10.5 -23.5 12.5 35 35 35
-10.2 -23.5 12.5 48 47 46
13.0 -23.4 12.4 204 204 204
48.0 -59.9 31.8 204 204 204
46.8 -57.5 30.6 204 204 204
47.1 -57.0 30.3 204 204 204
48.5 -57.9 30.8 204 204 204
50.0 -58.7 31.2 204 204 204
50.9 -58.9 31.3 204 204 204
51.5 -58.8 31.3 204 204 204
51.8 -58.3 31.0 204 204 204
55.8 -61.2 32.5 205 205 205
57.3 -61.9 32.9 205 205 205
58.1 -62.0 33.0 205 205 205
-13.6 -24.6 13.2 107 107 107
-13.2 -24.5 13.2 69 69 69
-12.8 -24.3 13.1 97 97 97
-12.4 -24.1 13.0 54 53 52
-10.6 -24.2 13.0 50 50 50
-10.5 -24.7 13.3 184 187 186
-10.2 -24.7 13.3 183 186 185
-9.8 -24.4 13.1 189 189 189
-9.5 -24.3 13.1 182 185 184
49.8 -62.3 33.5 203 203 203
49.0 -60.4 32.5 203 203 203
46.7 -56.7 30.5 203 203 203
47.0 -56.2 30.3 203 203 203
48.6 -57.2 30.8 203 203 203
50.2 -58.3 31.4 203 203 203
51.0 -58.4 31.4 204 204 204
51.8 -58.4 31.4 204 204 204
52.2 -58.1 31.3 204 204 204
54.5 -59.8 32.2 204 204 204
56.3 -60.9 32.8 204 204 204
57.5 -61.3 33.0 204 204 204
58.8 -62.0 33.4 204 204 204
-13.3 -24.3 13.2 87 87 87
-12.8 -24.0 13.1 22 25 23
-12.4 -23.8 13.0 41 43 42
-10.7 -24.0 13.1 55 56 54
-10.5 -24.4 13.3 184 184 184
-10.2 -24.4 13.3 182 185 184
-9.8 -24.2 13.2 182 185 184
47.1 -57.4 31.3 203 203 203
46.6 -55.8 30.4 203 203 203
47.0 -55.5 30.3 203 203 203
48.2 -56.1 30.6 205 205 205
49.9 -57.2 31.2 206 206 206
50.8 -57.4 31.3 203 203 203
51.3 -57.2 31.2 203 203 203
51.8 -56.9 31.0 206 206 206
52.8 -57.2 31.2 203 203 203
55.3 -59.1 32.2 204 204 204
56.7 -59.7 32.6 204 204 204
57.9 -60.3 32.8 204 204 204
-31.3 -23.6 13.0 58 59 59
-30.5 -23.7 13.1 59 59 59
-13.1 -23.7 13.1 106 106 106
-12.8 -23.6 13.0 36 35 34
-12.4 -23.5 13.0 133 133 133
-10.6 -23.6 13.0 56 57 55
-10.4 -23.8 13.2 183 186 185
-10.2 -24.0 13.2 181 184 183
-9.8 -23.8 13.1 180 183 182
47.2 -56.7 31.3 205 205 205
46.6 -55.2 30.5 205 205 205
47.0 -54.8 30.3 205 205 205
48.2 -55.4 30.6 205 205 205
49.9 -56.5 31.2 205 205 205
50.9 -56.8 31.4 205 205 205
51.4 -56.6 31.2 205 205 205
52.0 -56.4 31.1 205 205 205
52.9 -56.6 31.2 206 206 206
55.0 -58.0 32.0 206 206 206
56.2 -58.5 32.3 203 203 203
56.9 -58.5 32.3 203 203 203
-36.6 -23.2 13.0 67 67 67
-36.3 -23.3 13.0 67 67 67
-36.0 -23.3 13.0 67 67 67
-35.7 -23.3 13.0 67 67 67
-35.4 -23.2 13.0 68 68 68
-35.1 -23.2 13.0 68 68 68
-34.8 -23.3 13.0 68 68 68
-34.5 -23.3 13.0 68 68 68
-34.2 -23.2 13.0 68 68 68
-33.9 -23.3 13.0 69 69 69
-33.6 -23.3 13.0 69 69 69
-33.3 -23.3 13.0 69 69 69
-33.0 -23.3 13.0 69 69 69
-32.7 -23.3 13.0 66 67 65
-32.3 -23.2 13.0 66 67 65
-32.0 -23.2 13.0 65 65 65
-31.8 -23.3 13.0 65 65 65
-31.5 -23.3 13.0 62 62 62
-31.1 -23.2 13.0 59 59 59
-30.9 -23.3 13.0 59 59 59
-30.8 -23.4 13.1 60 60 60
-30.4 -23.4 13.1 60 60 60
-29.9 -23.2 13.0 60 60 60
-13.5 -23.5 13.2 130 130 130
-13.1 -23.4 13.1 124 127 126
-12.7 -23.3 13.0 32 32 32
-12.4 -23.2 12.9 131 131 131
-10.8 -23.1 12.9 48 48 48
-10.6 -23.2 13.0 56 56 56
-10.4 -23.5 13.1 182 185 184
-10.1 -23.5 13.1 181 184 183
47.3 -56.1 31.4 204 204 204
46.4 -54.2 30.3 204 204 204
46.9 -54.0 30.2 204 204 204
48.1 -54.6 30.5 204 204 204
49.9 -55.7 31.2 205 205 205
51.0 -56.2 31.4 205 205 205
51.7 -56.1 31.4 205 205 205
52.3 -56.0 31.3 205 205 205
53.5 -56.5 31.6 205 205 205
55.2 -57.5 32.2 205 205 205
56.0 -57.5 32.2 205 205 205
56.4 -57.2 32.0 206 206 206
-10.7 -23.7 13.5 181 184 183
-10.3 -23.7 13.4 180 183 182
-10.7 -25.3 14.3 178 181 180
-10.3 -25.1 14.2 182 182 182
47.2 -55.3 31.3 204 204 204
46.3 -53.4 30.3 204 204 204
46.4 -52.7 29.8 204 204 204
48.1 -53.8 30.5 204 204 204
49.9 -55.0 31.2 204 204 204
51.1 -55.6 31.5 204 204 204
52.1 -55.8 31.6 204 204 204
53.0 -56.0 31.7 205 205 205
53.9 -56.2 31.8 205 205 205
55.7 -57.3 32.4 205 205 205
56.6 -57.4 32.5 205 205 205
56.6 -56.7 32.1 205 205 205
-38.9 -24.1 13.8 68 68 68
-38.6 -24.1 13.8 69 69 69
-38.3 -24.1 13.8 71 72 70
-38.0 -24.1 13.8 71 72 70
-37.7 -24.1 13.8 69 69 69
-37.4 -24.1 13.8 71 72 70
-37.0 -24.1 13.8 72 73 71
-36.7 -24.1 13.8 70 70 70
-36.4 -24.1 13.8 70 70 70
-36.1 -24.1 13.8 70 70 70
-35.8 -24.2 13.9 71 71 71
-35.4 -24.1 13.8 71 71 71
-35.1 -24.1 13.8 71 71 71
-34.8 -24.1 13.8 71 71 71
-34.5 -24.1 13.8 71 71 71
-34.2 -24.2 13.9 72 72 72
-33.8 -24.1 13.8 68 70 68
-33.4 -24.0 13.8 67 67 67
-33.2 -24.1 13.8 64 64 64
-33.0 -24.2 13.9 64 64 64
-32.7 -24.2 13.9 62 62 62
-32.2 -24.1 13.8 62 62 62
-32.0 -24.2 13.9 65 65 65
-31.7 -24.2 13.9 62 62 62
-31.3 -24.2 13.9 63 63 63
-30.9 -24.1 13.8 62 61 60
-30.5 -24.1 13.8 62 61 60
-30.3 -24.1 13.8 62 61 60
-29.7 -24.2 13.9 63 62 61
-29.4 -24.1 13.9 63 62 61
-29.0 -24.1 13.8 63 62 61
-28.6 -24.0 13.8 64 63 61
-28.4 -24.2 13.9 64 63 61
-28.2 -24.3 13.9 58 58 58
-27.8 -24.2 13.9 60 60 60
-27.3 -24.0 13.8 60 60 60
-10.5 -23.7 13.6 179 182 181
-10.7 -24.9 14.3 183 183 183
-10.2 -24.6 14.1 178 181 180
-9.6 -24.0 13.8 216 216 216
47.4 -54.7 31.4 203 203 203
46.3 -52.6 30.2 203 203 203
46.2 -51.8 29.7 203 203 203
48.1 -53.1 30.5 207 207 207
49.8 -54.2 31.1 207 207 207
51.2 -54.9 31.5 204 204 204
52.1 -55.1 31.6 207 207 207
53.3 -55.6 31.9 207 207 207
54.4 -55.9 32.1 204 204 204
55.9 -56.7 32.6 204 204 204
56.8 -56.8 32.6 204 204 204
56.8 -56.1 32.2 205 205 205
-24.0 -17.2 10.0 65 65 65
-12.7 -17.3 10.1 39 40 38
-10.8 -17.3 10.0 42 43 42
-11.2 -25.1 14.6 179 182 181
-10.8 -24.8 14.5 177 180 179
-10.4 -24.8 14.4 176 179 178
46.7 -51.6 30.0 206 206 206
48.1 -52.4 30.5 206 206 206
49.8 -53.5 31.1 206 206 206
51.4 -54.4 31.6 206 206 206
52.2 -54.5 31.7 207 207 207
53.4 -54.9 32.0 204 204 204
55.1 -55.9 32.5 204 204 204
56.0 -56.1 32.6 207 207 207
57.0 -56.2 32.7 204 204 204
56.7 -55.3 32.2 204 204 204
-28.5 -17.2 10.1 71 72 70
-25.2 -17.2 10.1 72 72 72
-24.9 -17.1 10.1 68 70 68
-24.2 -17.1 10.1 67 67 67
-24.0 -17.1 10.1 69 71 69
-23.7 -17.1 10.1 67 67 67
-16.0 -17.1 10.1 25 29 26
-13.0 -17.3 10.2 122 122 122
-12.7 -17.1 10.1 38 40 38
-11.3 -24.9 14.7 180 183 182
-10.9 -24.7 14.5 179 182 181
-11.1 -26.1 15.4 177 180 179
49.8 -52.8 31.1 206 206 206
51.6 -53.9 31.8 206 206 206
53.1 -54.6 32.2 206 206 206
53.4 -54.2 32.0 206 206 206
56.0 -56.1 33.1 206 206 206
56.5 -55.8 32.9 207 207 207
57.5 -56.0 33.0 207 207 207
57.2 -55.0 32.4 207 207 207
128.7 -77.7 45.8 190 190 190
119.6 -71.6 42.2 189 189 189
-14.0 -17.7 10.6 53 52 52
-11.8 -24.9 14.9 184 187 186
-11.3 -24.6 14.7 181 184 183
-10.9 -24.4 14.6 180 183 182
-11.1 -25.8 15.4 179 182 181
49.8 -52.0 31.1 206 206 206
51.0 -52.5 31.4 206 206 206
55.7 -55.0 32.9 207 210 209
56.4 -54.9 32.8 204 204 204
57.5 -55.2 33.0 204 204 204
57.5 -54.5 32.6 207 207 207
56.8 -53.2 31.8 207 207 207
133.9 -79.7 47.6 191 191 191
-14.4 -17.6 10.7 96 99 98
-14.1 -17.5 10.6 67 67 67
-11.9 -24.7 15.0 184 187 186
-11.3 -24.3 14.7 183 186 185
-10.9 -24.0 14.5 181 184 183
-11.1 -25.3 15.4 178 178 178
49.6 -51.1 31.0 206 209 208
50.8 -51.6 31.3 207 210 209
55.5 -54.1 32.8 207 210 209
56.4 -54.2 32.8 207 210 209
57.8 -54.7 33.2 206 206 206
57.9 -54.2 32.8 206 206 206
57.0 -52.6 31.9 206 206 206
39.2 -32.8 19.9 208 208 208
38.7 -32.0 19.4 208 208 208
49.5 -40.5 24.5 208 208 208
49.5 -40.0 24.3 206 206 206
130.6 -76.6 46.5 192 192 192
50.7 -22.6 13.7 151 151 151
-14.4 -17.3 10.7 34 34 34
-14.1 -17.3 10.6 55 54 53
-14.0 -17.5 10.7 126 128 127
-12.0 -24.6 15.1 188 190 190
-11.4 -24.1 14.8 184 187 186
-10.9 -23.7 14.6 183 186 185
-11.1 -25.0 15.4 177 177 177
-10.7 -24.9 15.3 156 159 158
49.6 -50.3 31.0 206 209 208
56.1 -53.1 32.7 207 210 209
57.9 -54.0 33.2 207 210 209
57.2 -52.8 32.4 207 210 209
57.1 -51.9 32.0 208 211 210
58.0 -52.1 32.1 206 206 206
38.8 -32.0 19.7 208 208 208
38.4 -31.3 19.2 209 212 211
49.9 -40.1 24.7 208 208 208
52.7 -23.4 14.4 162 162 162
50.8 -22.4 13.8 152 152 152
-14.1 -17.0 10.6 86 87 85
-11.3 -24.9 15.6 179 179 179
-10.9 -24.9 15.6 159 162 161
-10.6 -25.2 15.7 156 159 158
13.9 -16.3 10.2 204 204 204
14.1 -16.2 10.1 204 204 204
58.4 -53.7 33.5 207 210 209
60.6 -53.7 33.5 207 210 209
38.5 -30.9 19.3 208 208 208
38.6 -30.6 19.1 208 208 208
129.6 -73.9 46.1 196 196 196
55.1 -24.2 15.1 168 170 169
52.7 -23.0 14.4 162 162 162
51.5 -22.4 14.0 154 154 154
-12.7 -16.0 10.1 131 131 131
-11.4 -24.9 15.8 173 175 175
-11.2 -25.3 16.0 166 166 166
-10.8 -25.3 16.0 159 162 161
59.3 -53.8 34.1 207 210 209
68.0 -60.1 38.1 207 210 209
227.7 -186.7 118.2 208 211 210
129.0 -72.5 45.9 196 196 196
96.3 -44.9 28.4 183 183 183
70.7 -31.6 20.0 181 181 181
54.8 -23.7 15.0 169 171 170
53.5 -23.0 14.6 160 160 160
-12.7 -15.7 10.1 152 154 154
-11.9 -25.6 16.4 176 179 178
-11.5 -25.5 16.4 169 169 169
-11.1 -25.6 16.4 166 166 166
202.3 -191.1 122.8 205 208 207
215.0 -197.5 127.0 206 209 208
70.3 -61.2 39.3 207 210 209
274.8 -224.7 144.4 208 211 210
247.9 -200.2 128.7 208 211 210
312.5 -249.4 160.3 208 211 210
289.3 -228.2 146.6 207 207 207
279.7 -218.0 140.1 207 207 207
96.0 -44.1 28.3 184 184 184
94.7 -43.2 27.7 184 184 184
69.6 -30.7 19.7 184 184 184
55.1 -23.5 15.1 170 172 172
54.3 -23.0 14.8 164 164 164
56.2 -23.5 15.1 148 148 148
56.6 -23.5 15.1 142 144 143
197.5 -181.2 118.2 205 208 207
196.6 -177.9 116.1 204 204 204
190.3 -167.6 109.3 206 209 208
231.5 -198.6 129.6 206 209 208
216.7 -183.5 119.7 207 210 209
257.1 -207.1 135.1 207 210 209
218.2 -173.6 113.3 208 211 210
315.2 -247.8 161.7 208 211 210
272.4 -211.6 138.1 208 211 210
264.0 -202.8 132.3 208 211 210
126.8 -69.2 45.1 197 197 197
96.9 -43.8 28.6 185 185 185
95.1 -42.7 27.9 185 185 185
69.8 -30.3 19.8 185 185 185
58.2 -24.6 16.1 173 175 175
55.5 -23.3 15.2 170 171 170
56.3 -23.5 15.3 163 163 163
56.9 -23.6 15.4 156 156 156
56.9 -23.5 15.3 150 150 150
-14.0 -16.0 10.6 28 28 28
-13.0 -28.0 18.6 175 175 175
-12.5 -27.9 18.5 172 172 172
203.9 -184.2 122.0 208 211 210
200.3 -178.5 118.2 205 208 207
192.2 -169.0 111.9 205 208 207
192.5 -167.0 110.6 206 209 208
254.7 -218.0 144.4 209 212 211
225.3 -190.4 126.1 209 212 211
222.3 -185.4 122.8 206 209 208
216.7 -178.5 118.2 207 210 209
317.9 -246.2 163.1 208 211 210
262.8 -201.1 133.2 208 211 210
262.2 -198.3 131.4 208 211 210
97.8 -43.5 28.8 186 186 186
95.4 -42.2 27.9 186 186 186
70.3 -30.1 19.9 184 184 184
58.0 -24.2 16.0 174 176 176
56.5 -23.4 15.5 168 168 168
57.6 -23.7 15.7 160 160 160
57.6 -23.6 15.6 153 153 153
57.8 -23.5 15.5 149 149 149
-12.7 -15.0 10.1 30 30 30
-12.4 -14.9 10.0 33 35 33
-13.4 -27.5 18.5 178 181 180
-13.1 -27.7 18.6 177 180 179
-12.7 -27.9 18.8 175 175 175
-12.3 -27.9 18.8 174 174 174
224.1 -199.4 134.2 208 211 210
218.0 -191.3 128.7 208 211 210
203.0 -175.7 118.2 208 211 210
207.0 -176.8 119.0 208 211 210
262.7 -221.4 148.9 208 211 210
241.4 -200.8 135.1 209 212 211
237.8 -195.2 131.4 206 209 208
240.8 -195.2 131.4 206 209 208
243.9 -195.2 131.4 207 210 209
320.7 -244.5 164.5 207 210 209
303.4 -228.6 153.8 208 211 210
271.6 -202.3 136.1 208 211 210
265.3 -195.2 131.4 207 207 207
97.6 -42.8 28.8 188 188 188
95.7 -41.7 28.0 185 185 185
58.4 -23.6 15.9 161 161 161
58.4 -23.5 15.8 155 155 155
59.2 -23.7 15.9 148 150 150
61.0 -23.8 16.0 132 135 134
-12.7 -14.7 10.1 53 52 52
-13.1 -27.5 18.8 177 177 177
-12.8 -27.7 18.9 176 176 176
-12.4 -27.8 19.0 173 173 173
252.8 -221.4 151.3 207 210 209
224.1 -193.5 132.3 207 210 209
203.0 -173.0 118.2 208 211 210
205.8 -173.0 118.2 208 211 210
269.0 -223.2 152.6 208 211 210
262.0 -214.5 146.6 208 211 210
329.3 -247.1 168.9 207 210 209
321.7 -238.6 163.1 208 211 210
288.2 -211.3 144.4 210 213 212
261.6 -189.6 129.6 208 211 210
240.0 -171.9 117.5 208 211 210
75.3 -31.4 21.5 190 190 190
58.6 -23.4 16.0 160 160 160
58.9 -23.3 15.9 155 155 155
59.6 -23.5 16.0 150 152 152
59.9 -23.4 16.0 145 145 144
63.8 -24.7 16.9 136 138 137
63.4 -24.3 16.6 132 132 132
-13.3 -27.4 19.0 177 177 177
-12.9 -27.5 19.1 178 178 178
-12.6 -27.7 19.2 136 136 136
248.8 -214.5 148.9 207 210 209
227.2 -193.2 134.2 204 207 206
206.9 -173.5 120.5 207 210 209
218.0 -180.4 125.3 208 211 210
260.6 -212.8 147.8 208 211 210
241.4 -194.5 135.1 208 211 210
287.9 -223.2 155.1 209 212 211
261.5 -200.3 139.1 209 212 211
332.2 -245.4 170.4 210 213 212
324.5 -236.8 164.5 210 213 212
283.9 -204.8 142.2 210 213 212
263.4 -187.8 130.5 210 213 212
241.5 -170.2 118.2 212 214 214
58.4 -22.9 15.9 160 160 160
58.3 -22.7 15.8 155 155 155
58.8 -22.8 15.8 149 149 149
59.4 -22.9 15.9 145 145 144
66.5 -25.4 17.7 140 142 141
66.1 -25.1 17.5 136 136 136
-13.1 -27.4 19.4 158 158 158
-12.9 -28.0 19.8 147 149 149
-12.7 -28.5 20.1 42 43 42
289.9 -245.8 173.5 211 211 211
239.1 -200.0 141.2 207 210 209
224.0 -184.8 130.5 207 210 209
233.5 -190.0 134.2 207 210 209
287.6 -231.0 163.1 208 211 210
256.1 -203.0 143.3 208 211 210
495.4 -382.8 270.2 208 211 210
377.6 -288.1 203.4 209 212 211
388.2 -282.1 199.1 209 212 211
348.8 -250.4 176.8 210 213 212
295.0 -209.3 147.8 210 213 212
269.0 -188.7 133.2 210 213 212
57.7 -22.1 15.6 153 155 155
57.8 -22.0 15.6 151 151 151
58.2 -22.0 15.6 144 146 146
65.1 -24.4 17.2 134 136 135
64.3 -23.9 16.9 126 128 127
-15.2 -29.4 21.1 168 168 168
-14.8 -29.4 21.1 181 181 181
-14.3 -29.4 21.1 181 184 183
-13.4 -28.6 20.5 180 180 180
-13.1 -29.0 20.8 115 114 114
329.2 -274.6 197.0 206 209 208
254.3 -209.2 150.1 207 210 209
320.8 -253.4 181.9 207 210 209
277.0 -216.0 155.1 208 211 210
526.8 -405.5 291.0 212 213 212
525.4 -399.3 286.6 208 211 210
428.3 -321.4 230.7 208 211 210
378.3 -280.4 201.2 209 212 211
466.8 -333.6 239.4 209 212 211
380.8 -268.9 193.0 210 213 212
76.8 -30.1 21.6 190 190 190
77.3 -30.1 21.6 184 184 184
57.9 -21.7 15.6 146 148 148
58.1 -21.6 15.5 141 141 141
74.1 -27.5 19.7 133 133 133
64.0 -23.6 16.9 129 132 131
63.6 -23.3 16.7 127 127 127
-14.1 -29.5 21.5 176 176 176
351.1 -288.0 210.2 206 209 208
438.9 -345.6 252.2 207 210 209
374.8 -291.2 212.5 207 210 209
352.1 -270.0 197.0 207 210 209
693.6 -518.3 378.3 208 211 210
456.1 -336.6 245.7 208 211 210
439.0 -320.0 233.5 208 211 210
542.3 -381.1 278.2 214 214 214
424.1 -294.5 215.0 209 212 211
77.7 -30.0 21.9 189 189 189
78.5 -30.1 21.9 185 185 185
64.0 -23.4 17.1 132 135 134
64.3 -23.4 17.1 131 133 132
64.2 -23.2 17.0 132 132 132
64.3 -23.1 16.9 129 129 129
484.6 -330.9 245.7 209 212 211
81.2 -30.6 22.7 182 185 184
63.8 -23.1 17.2 134 137 136
64.3 -23.2 17.2 134 134 134
64.6 -23.1 17.2 134 134 134
65.2 -23.2 17.2 134 134 134
65.6 -23.2 17.2 132 132 132
-16.0 -32.4 24.5 173 175 175
46.6 -26.8 20.3 197 197 197
42.8 -24.1 18.2 200 200 200
81.6 -30.2 22.8 173 175 175
83.7 -30.8 23.2 168 168 168
65.6 -23.4 17.7 136 136 136
65.1 -23.0 17.4 134 134 134
65.4 -23.0 17.4 134 134 134
66.2 -23.2 17.5 134 134 134
66.8 -23.2 17.5 132 132 132
-16.6 -33.0 25.4 88 88 88
-16.5 -34.1 26.2 88 88 88
-16.2 -34.6 26.6 56 56 56
47.7 -27.2 20.9 198 198 198
46.6 -26.4 20.3 198 198 198
44.9 -25.1 19.3 200 200 200
42.8 -23.7 18.2 202 202 202
84.9 -30.7 23.6 150 150 150
86.1 -30.9 23.8 139 139 139
66.8 -23.2 17.9 133 133 133
66.4 -22.9 17.6 134 134 134
67.6 -23.2 17.9 133 133 133
68.4 -23.3 17.9 129 132 131
-25.9 -14.4 11.3 20 23 21
-25.5 -14.3 11.2 24 24 24
-25.4 -14.4 11.2 156 156 156
-17.7 -33.5 26.2 139 139 139
-17.4 -33.9 26.6 90 90 90
-16.9 -34.2 26.8 88 88 88
-16.6 -35.0 27.4 55 55 55
-15.7 -34.3 26.9 115 114 114
48.0 -27.0 21.1 198 198 198
46.8 -26.0 20.4 198 198 198
45.0 -24.8 19.4 202 202 202
85.7 -30.4 23.8 131 134 133
88.4 -31.2 24.4 131 134 133
89.5 -31.3 24.5 128 131 130
67.6 -22.9 18.0 128 128 128
68.9 -23.2 18.2 128 128 128
69.9 -23.4 18.3 129 129 129
-17.6 -33.7 26.9 91 93 92
-17.0 -33.8 27.0 89 91 90
-17.4 -35.9 28.7 74 76 75
320.0 -201.0 160.3 214 214 214
48.7 -26.9 21.4 196 196 196
46.9 -25.6 20.4 202 202 202
90.4 -31.3 25.0 116 118 117
91.4 -31.4 25.1 119 119 119
70.5 -23.5 18.7 122 122 122
70.3 -23.3 18.6 124 124 124
70.7 -23.3 18.6 127 127 127
-18.1 -34.1 27.7 90 90 90
-17.4 -34.0 27.6 89 91 90
-17.6 -35.7 29.0 81 84 83
-16.9 -35.5 28.9 72 72 72
50.2 -27.1 22.0 198 198 198
93.1 -31.4 25.5 112 112 112
71.5 -23.4 19.0 113 114 113
70.8 -23.0 18.7 118 120 119
70.9 -22.9 18.6 129 129 129
72.8 -23.4 19.0 126 126 126
-19.1 -36.5 30.2 89 91 90
-18.5 -36.7 30.4 64 63 61
71.3 -22.6 18.7 155 155 155
72.9 -23.0 19.0 120 122 121
-20.9 -37.8 31.9 96 96 96
-19.5 -36.7 31.0 92 92 92
-18.9 -36.8 31.1 77 77 77
-18.3 -37.0 31.3 40 40 40
50.7 -16.5 13.9 102 104 104
-21.5 -38.3 33.0 96 96 96
-20.7 -38.1 32.8 93 93 93
-19.4 -37.2 32.0 96 99 98
-18.8 -37.4 32.2 91 91 91
50.5 -16.0 13.8 98 98 98
50.3 -15.8 13.6 85 85 85
50.3 -15.7 13.5 74 74 74
45.1 -13.8 11.9 158 158 158
45.3 -13.7 11.8 120 122 121
-22.7 -39.6 34.8 96 96 96
-21.4 -38.6 34.0 96 99 98
-20.5 -38.4 33.7 79 82 81
50.6 -15.8 13.9 93 96 95
50.4 -15.6 13.7 79 82 81
50.5 -15.6 13.7 74 74 74
50.6 -15.5 13.6 71 70 69
46.0 -13.7 12.1 157 157 157
46.1 -13.7 12.0 121 123 122
-25.9 -42.6 38.2 122 124 123
-24.2 -41.2 36.9 97 100 99
-22.6 -40.0 35.9 95 98 97
12.9 -11.3 10.1 212 213 212
261.1 -137.8 123.6 195 195 195
43.7 -20.8 18.7 205 205 205
42.0 -19.8 17.7 206 206 206
50.7 -15.5 13.9 88 88 88
50.8 -15.4 13.8 79 82 81
51.0 -15.4 13.8 72 72 72
51.5 -15.5 13.9 74 74 74
46.3 -13.6 12.2 160 160 160
46.2 -13.4 12.1 128 128 128
-23.5 -40.6 37.2 96 99 98
716.7 -421.2 386.0 218 218 218
41.8 -19.3 17.6 207 207 207
50.7 -15.2 13.9 111 111 111
50.8 -15.1 13.8 79 82 81
51.0 -15.1 13.8 78 78 78
51.5 -15.1 13.8 75 76 76
46.3 -13.3 12.2 160 160 160
45.8 -13.0 12.0 126 128 127
-30.7 -58.4 54.7 26 25 24
18.4 -11.9 11.2 218 218 218
461.8 -262.4 245.7 218 218 218
42.5 -19.3 18.1 205 205 205
41.1 -18.5 17.4 207 207 207
50.4 -14.7 13.7 89 89 89
50.8 -14.7 13.7 80 83 82
51.3 -14.7 13.8 80 83 82
51.5 -14.7 13.8 79 79 79
45.7 -12.7 11.9 124 127 126
-33.3 -59.5 57.0 23 24 23
-31.8 -59.2 56.6 23 24 23
-29.6 -57.4 55.0 6 11 7
18.6 -11.8 11.3 218 218 218
42.9 -19.1 18.3 205 205 205
50.7 -14.3 13.7 80 83 82
51.2 -14.4 13.8 79 79 79
51.4 -14.4 13.7 79 79 79
50.5 -14.0 13.4 80 83 82
-34.9 -61.0 59.7 29 29 29
-33.3 -60.6 59.3 28 28 28
-31.2 -59.3 58.0 106 106 106
43.2 -18.8 18.4 205 205 205
-37.5 -57.2 57.3 96 99 98
-34.5 -59.0 59.1 47 47 47
-33.3 -59.2 59.3 20 20 20
-31.4 -58.3 58.4 165 165 165
439.0 -222.1 222.5 221 221 221
43.3 -18.4 18.5 204 204 204
50.8 -13.7 13.7 81 84 83
-12.4 -11.5 11.8 27 29 27
-12.1 -11.5 11.8 31 30 29
-11.8 -11.5 11.8 32 32 32
-11.4 -11.4 11.7 32 32 32
-38.1 -56.7 58.2 95 98 97
-35.9 -55.5 57.0 101 101 101
-34.6 -55.5 57.0 112 112 112
-34.5 -57.6 59.1 47 47 47
-33.2 -57.6 59.1 23 24 23
-31.6 -57.3 58.7 160 160 160
-30.4 -57.6 59.1 179 179 179
18.6 -11.2 11.5 218 218 218
18.5 -10.9 11.2 218 218 218
460.7 -227.7 233.5 221 221 221
188.8 -86.2 88.4 200 200 200
162.7 -73.5 75.4 202 202 202
-12.4 -11.3 11.8 32 31 30
-12.1 -11.2 11.8 34 34 34
-11.8 -11.2 11.8 34 34 34
-39.0 -56.8 59.7 98 98 98
-39.2 -59.2 62.2 99 99 99
-37.8 -59.2 62.2 109 109 109
-36.0 -58.6 61.6 27 27 27
-34.9 -59.2 62.2 26 25 24
-33.6 -59.4 62.4 160 160 160
-33.7 -62.3 65.5 180 180 180
18.4 -10.7 11.2 218 218 218
150.7 -66.4 69.8 202 202 202
-17.1 -12.2 13.1 48 47 46
-16.7 -12.1 13.0 131 134 133
-42.1 -64.3 69.3 109 109 109
-38.4 -61.0 65.7 23 24 23
-37.4 -61.8 66.6 23 24 23
-36.8 -63.6 68.5 169 169 169
-35.6 -64.3 69.3 182 182 182
150.1 -64.6 69.5 200 200 200
-16.8 -11.9 13.1 123 125 124
-38.6 -59.9 66.1 29 29 29
-37.4 -63.0 69.5 169 169 169
-17.3 -11.7 13.3 144 144 144
-10.9 -11.7 13.3 201 203 203
-84.0 -137.9 156.3 157 160 159
18.4 -9.9 11.2 218 221 220
187.9 -77.6 88.0 195 195 195
-17.2 -11.3 13.2 157 156 154
-16.8 -11.3 13.1 131 134 133
-107.2 -164.1 191.1 27 27 27
-97.8 -156.2 181.9 165 165 165
-95.4 -159.3 185.5 179 179 179
-94.8 -165.8 193.0 179 182 181
18.4 -9.6 11.2 218 221 220
18.6 -9.6 11.2 218 221 220
242.2 -98.4 114.6 173 173 173
167.4 -66.6 77.5 200 200 200
-16.7 -10.9 13.0 32 33 31
-10.7 -11.0 13.1 202 204 204
-116.3 -166.4 199.1 27 26 25
-127.8 -190.4 227.9 20 20 20
-109.3 -169.9 203.4 166 169 168
-106.9 -173.7 207.9 179 182 181
-111.9 -190.4 227.9 178 181 180
240.7 -95.2 114.0 182 182 182
164.7 -63.7 76.3 197 197 197
-28.2 -10.5 12.9 77 77 77
-27.8 -10.4 12.9 82 82 82
-27.6 -10.5 12.9 144 144 144
-27.5 -10.5 13.0 153 153 153
-17.0 -10.6 13.1 25 25 25
-16.6 -10.6 13.0 42 42 42
-11.2 -10.5 12.9 45 45 45
-10.8 -10.4 12.9 41 40 38
-10.7 -10.6 13.1 200 202 202
-163.2 -236.4 291.0 20 20 20
-122.5 -185.1 227.9 166 166 166
-139.0 -219.5 270.2 178 181 180
-152.3 -251.9 310.1 178 181 180
246.6 -94.8 116.8 175 177 177
195.1 -74.2 91.4 191 191 191
-27.8 -10.1 12.9 87 88 86
-29.0 -10.7 13.6 146 148 148
-28.6 -10.7 13.5 156 156 156
-16.8 -10.3 13.1 138 140 139
-11.4 -10.7 13.6 47 47 47
-10.9 -10.5 13.3 196 196 196
-166.7 -244.7 310.1 159 159 159
251.3 -93.9 119.0 175 177 177
-28.6 -10.3 13.5 143 143 142
-10.8 -10.2 13.3 198 201 200
252.9 -91.7 119.7 132 132 132
229.5 -82.3 107.5 152 152 152
-11.2 -9.9 13.3 51 51 51
-10.8 -9.8 13.2 195 195 195
252.9 -88.9 119.7 134 137 136
-58.3 -18.6 25.8 75 76 74
-57.8 -18.6 25.9 73 73 73
-10.8 -9.5 13.3 197 200 199
302.7 -103.1 143.3 92 95 94
-58.4 -18.0 25.9 80 80 80
-10.8 -9.2 13.2 202 202 202
455.1 -160.6 230.7 220 223 222
144.5 -42.9 61.6 202 202 202
-169.2 -47.5 70.6 63 63 63
-168.8 -47.8 71.1 63 63 63
-166.5 -47.7 70.8 54 54 54
-160.7 -46.4 69.0 89 90 88
-157.7 -47.5 70.6 58 59 59
-153.8 -46.8 69.5 58 59 59
-159.2 -48.9 72.8 59 59 59
-158.7 -49.3 73.3 63 62 61
439.0 -149.7 222.5 220 223 222
138.6 -39.8 59.1 202 202 202
-171.0 -47.3 72.8 35 35 35
-162.4 -45.3 69.8 36 37 36
-159.5 -46.4 71.4 28 28 28
-153.2 -45.0 69.3 25 25 25
154.1 -43.1 66.4 202 202 202
-175.7 -46.8 74.8 58 58 56
-206.2 -51.4 85.2 70 72 69
-203.3 -51.2 84.8 71 72 70
-200.5 -50.9 84.4 71 72 70
-186.0 -47.7 79.1 80 80 80
-197.7 -52.8 87.6 79 79 79
-181.4 -49.0 81.2 62 62 62
-175.7 -47.9 79.5 61 60 59
-182.3 -50.3 83.3 58 58 58
-177.3 -49.4 81.9 56 56 56
167.8 -44.0 73.0 196 196 196
160.9 -41.8 69.3 198 198 198
259.4 -65.5 122.8 116 116 116
214.9 -53.7 100.6 141 141 141
259.4 -62.7 122.8 67 67 67
212.6 -50.8 99.6 136 136 136
256.1 -59.0 121.3 75 76 76
213.7 -48.7 100.1 143 143 142
104.2 -20.4 41.9 116 116 116
254.3 -48.5 99.6 67 67 67
255.0 -52.5 113.3 192 192 192
179.1 -34.4 74.2 206 206 206
316.2 -58.5 126.1 45 44 43
267.4 -49.0 105.7 62 64 64
268.4 -48.7 105.1 63 65 65
273.9 -49.3 106.3 61 64 63
23.3 -3.0 11.8 225 225 225
23.5 -3.0 11.8 225 225 225
23.9 -3.0 11.7 225 225 225
23.3 -2.7 11.8 222 222 222
23.5 -2.7 11.8 222 222 222
23.4 -2.7 11.6 222 222 222
23.9 -2.7 11.7 217 220 219
22.9 -2.4 11.7 222 222 222
23.1 -2.4 11.7 222 222 222
23.4 -2.4 11.7 222 222 222
23.4 -2.4 11.6 222 222 222
23.9 -2.4 11.7 222 222 222
23.1 -2.2 11.7 224 224 224
23.2 -2.1 11.6 224 224 224
23.4 -2.1 11.6 224 224 224
23.9 -2.2 11.7 218 221 220
23.1 -1.9 11.6 224 224 224
23.6 -0.8 11.3 174 176 176
23.4 -0.5 11.2 175 177 177
23.5 -0.2 11.2 177 180 179
23.5 0.0 11.3 182 182 182
23.4 0.3 11.2 185 185 185
19.5 0.5 10.1 223 225 225
26.6 0.6 12.6 194 194 194
84.7 1.1 22.7 87 87 87
18.5 0.7 10.1 224 224 224
19.2 0.7 10.1 224 224 224
19.4 0.7 10.1 224 224 224
19.6 0.7 10.1 224 226 226
23.4 0.8 11.2 188 188 188
83.0 1.6 22.2 86 85 83
83.0 1.5 21.8 168 170 169
19.1 0.9 10.1 222 222 222
19.3 0.9 10.0 225 225 225
19.6 0.9 10.1 225 225 225
23.4 1.1 11.3 224 226 226
23.6 1.1 11.3 185 185 185
81.9 2.1 21.9 87 86 84
81.2 2.0 21.6 90 90 90
84.1 2.1 22.2 87 86 84
82.2 2.0 21.6 168 170 169
19.4 1.2 10.0 224 224 224
23.5 1.3 11.3 189 189 189
84.5 2.7 22.7 87 87 85
83.1 2.6 22.2 87 87 85
83.2 2.6 22.1 91 91 91
84.5 2.6 22.3 89 89 89
83.5 2.6 21.9 157 157 157
84.1 3.2 22.5 87 87 85
83.9 3.1 22.3 92 92 92
85.2 3.2 22.5 89 89 89
85.2 3.1 22.4 131 131 131
60.8 2.6 16.2 92 92 92
-71.8 28.7 51.4 117 117 117
-70.1 28.5 51.0 110 112 111
-68.0 28.1 50.3 116 116 116
-59.9 28.7 51.4 228 231 230
-58.4 28.6 51.1 178 181 180
-56.7 28.4 50.7 99 99 99
-56.2 28.7 51.3 89 91 90
-78.7 32.8 56.3 97 96 94
-80.0 33.9 58.2 88 88 86
-79.9 34.4 59.1 84 84 84
-77.8 34.1 58.6 77 77 77
-65.4 32.7 56.1 38 40 40
-64.7 33.0 56.6 57 57 57
-65.5 34.1 58.6 70 70 70
61.1 78.7 105.7 66 67 65
61.5 76.2 102.3 78 80 78
67.5 89.7 116.8 73 73 73
78.6 93.2 121.3 79 81 79
-366.8 104.0 131.4 69 72 71
-363.7 104.0 131.4 127 127 127
-360.7 104.0 131.4 163 166 165
-348.0 101.2 127.8 123 125 124
-345.0 101.2 127.8 121 123 122
-339.7 100.5 127.0 134 137 136
-339.0 101.2 127.8 134 137 136
-336.1 101.2 127.8 136 138 137
-333.1 101.2 127.8 138 140 139
-330.1 101.2 127.8 129 129 129
-327.2 101.2 127.8 161 161 161
-322.0 100.5 127.0 161 161 161
-321.2 101.2 127.8 152 154 154
-316.1 100.5 127.0 139 141 140
-313.2 100.5 127.0 137 137 137
-312.3 101.2 127.8 140 142 141
-309.3 101.2 127.8 140 142 141
-314.9 104.0 131.4 139 139 139
-311.8 104.0 131.4 139 139 139
-304.5 102.6 129.6 129 132 131
-303.6 103.3 130.5 177 177 177
-296.5 101.9 128.7 165 165 165
-293.5 101.9 128.7 143 145 144
-290.5 101.9 128.7 139 139 139
-283.7 100.5 127.0 135 135 135
-284.5 101.9 128.7 131 134 133
-287.4 104.0 131.4 131 133 132
-278.2 104.0 131.4 131 134 133
-275.2 104.0 131.4 140 140 140
-272.1 104.0 131.4 143 143 142
-267.9 104.7 132.3 139 139 139
-261.2 103.3 130.5 141 141 141
-254.6 101.9 128.7 135 135 135
-259.2 106.2 134.2 128 128 128
-252.5 104.7 132.3 118 120 119
-239.4 100.5 127.0 116 118 117
-244.7 104.0 131.4 116 118 117
-236.7 101.9 128.7 116 118 117
-233.7 101.9 128.7 113 114 113
-235.5 104.0 131.4 113 114 113
-232.4 104.0 131.4 110 110 110
-224.7 101.9 128.7 102 102 102
-223.2 102.6 129.6 104 106 106
-224.8 104.7 132.3 104 106 106
-220.2 104.0 131.4 101 101 101
-211.3 101.2 127.8 94 94 94
-205.6 99.8 126.1 88 88 86
-201.3 99.2 125.3 92 92 92
-208.0 104.0 131.4 104 106 106
-205.0 104.0 131.4 138 138 138
-193.8 99.8 126.1 186 186 186
-192.2 100.5 127.0 181 184 183
-188.0 99.8 126.1 166 166 166
-190.1 102.6 129.6 165 165 165
-185.8 101.9 128.7 167 167 167
-181.6 101.2 127.8 177 177 177
-182.3 103.3 130.5 160 160 160
-174.5 100.5 127.0 160 160 160
-173.9 101.9 128.7 162 162 162
-173.2 103.3 130.5 119 119 119
-170.2 103.3 130.5 83 83 83
-162.2 104.0 131.4 64 64 64
-157.0 102.6 129.6 56 56 56
-154.0 102.6 129.6 34 34 34
-147.9 100.5 127.0 36 38 37
-145.0 100.5 127.0 52 53 51
-143.0 101.2 127.8 11 11 11
-140.0 101.2 127.8 14 14 14
-137.0 101.2 127.8 30 29 28
-134.1 101.2 127.8 98 98 98
-134.7 104.0 131.4 152 151 149
-131.7 104.0 131.4 151 151 151
-128.6 104.0 131.4 166 169 168
-125.6 104.0 131.4 107 107 107
-122.5 104.0 131.4 182 182 182
-116.2 101.2 127.8 180 180 180
-113.3 101.2 127.8 159 159 159
-113.4 104.0 131.4 138 137 136
-110.3 104.0 131.4 137 137 137
-98.1 104.0 131.4 134 137 136
-95.0 104.0 131.4 96 99 98
-92.0 104.0 131.4 88 88 88
-85.9 104.0 131.4 85 85 85
-82.8 104.0 131.4 96 96 96
-77.6 101.2 127.8 123 125 124
-76.7 104.0 131.4 137 139 138
-73.7 104.0 131.4 144 144 144
-68.7 101.2 127.8 148 148 146
-65.7 101.2 127.8 151 151 151
-62.8 101.2 127.8 144 143 142
-59.8 101.2 127.8 163 166 165
-56.8 101.2 127.8 146 146 146
-53.9 101.2 127.8 111 113 112
-50.9 101.2 127.8 159 162 161
-47.9 101.2 127.8 167 167 167
-44.9 101.2 127.8 166 169 168
-42.0 101.2 127.8 178 178 178
-39.8 103.3 130.5 179 179 179
-36.3 101.9 128.7 175 177 177
-34.0 104.0 131.4 183 183 183
-30.9 104.0 131.4 199 199 199
-24.8 104.0 131.4 205 208 207
-21.8 104.0 131.4 205 208 207
-18.3 101.9 128.7 212 213 212
-15.3 101.9 128.7 206 209 208
-12.7 104.7 132.3 216 216 216
-9.6 104.7 132.3 217 217 217
-6.6 105.4 133.2 193 196 195
-3.4 101.9 128.7 204 204 204
-0.4 104.7 132.3 204 204 204
2.7 106.2 134.2 203 203 203
5.8 105.4 133.2 205 205 205
8.8 104.7 132.3 208 208 208
11.4 99.8 126.1 206 206 206
62.9 97.9 123.6 82 82 82
71.0 97.2 122.8 79 81 79
77.9 102.6 129.6 85 86 84
79.3 100.5 127.0 82 83 81
79.1 96.6 122.0 81 83 80
87.0 102.6 129.6 72 72 72
90.6 103.3 130.5 36 35 34
-412.6 120.4 147.8 24 24 24
-409.2 120.4 147.8 30 30 30
-405.8 120.4 147.8 25 27 25
-402.3 120.4 147.8 24 24 24
-398.9 120.4 147.8 32 32 32
-395.5 120.4 147.8 74 74 74
-392.0 120.4 147.8 88 88 86
-388.6 120.4 147.8 126 128 127
-385.2 120.4 147.8 149 149 149
-381.7 120.4 147.8 124 127 126
-378.3 120.4 147.8 141 143 142
-374.9 120.4 147.8 164 164 164
-371.4 120.4 147.8 140 142 141
-365.1 119.5 146.6 140 142 141
-361.7 119.5 146.6 134 134 134
-361.1 120.4 147.8 143 145 144
-357.7 120.4 147.8 148 148 148
-354.2 120.4 147.8 149 149 149
-348.1 119.5 146.6 156 156 156
-344.7 119.5 146.6 156 156 156
-346.6 121.4 148.9 180 180 180
-345.9 122.3 150.1 167 167 167
-339.7 121.4 148.9 151 151 151
-331.0 119.5 146.6 138 138 138
-330.2 120.4 147.8 132 135 134
-326.8 120.4 147.8 132 135 134
-313.5 116.8 143.3 138 138 138
-312.6 117.7 144.4 139 139 139
-314.0 119.5 146.6 139 139 139
-313.0 120.4 147.8 141 141 141
-309.6 120.4 147.8 145 147 147
-303.8 119.5 146.6 145 147 147
-300.4 119.5 146.6 138 138 138
-342.0 137.6 168.9 132 135 134
-332.2 135.2 165.9 131 133 132
-294.7 121.4 148.9 127 127 127
-286.6 122.3 150.1 119 121 120
-276.5 119.5 146.6 117 119 118
-273.1 119.5 146.6 117 119 118
-276.1 122.3 150.1 115 115 115
-266.3 119.5 146.6 115 115 115
-262.9 119.5 146.6 101 101 101
-261.5 120.4 147.8 100 100 100
-262.2 122.3 150.1 86 85 83
-256.6 121.4 148.9 98 97 95
-259.9 126.3 155.1 98 97 95
-244.3 120.4 147.8 99 98 96
-233.6 116.8 143.3 121 121 121
-225.1 114.2 140.1 129 132 131
-239.6 123.3 151.3 137 137 137
-234.2 122.3 150.1 142 144 143
-225.4 119.5 146.6 156 159 158
-222.0 119.5 146.6 172 172 172
-216.9 118.6 145.5 164 164 164
-216.8 120.4 147.8 159 159 159
-213.4 120.4 147.8 162 162 162
-206.7 118.6 145.5 170 171 170
-206.5 120.4 147.8 151 151 151
-200.0 118.6 145.5 99 98 96
-202.8 122.3 150.1 77 77 77
-194.7 119.5 146.6 78 80 78
-187.0 116.8 143.3 75 76 76
-182.5 120.4 147.8 60 60 60
-181.9 122.3 150.1 57 58 56
-177.0 121.4 148.9 34 34 34
-172.2 120.4 147.8 36 37 36
-168.8 120.4 147.8 57 57 57
-165.3 120.4 147.8 11 11 11
-161.9 120.4 147.8 13 17 14
-158.4 120.4 147.8 42 42 42
-155.0 120.4 147.8 120 120 120
-151.6 120.4 147.8 168 168 168
-148.1 120.4 147.8 156 156 156
-144.7 120.4 147.8 140 140 140
-141.3 120.4 147.8 80 80 80
-137.8 120.4 147.8 187 189 189
-134.4 120.4 147.8 181 181 181
-131.0 120.4 147.8 157 157 157
-127.5 120.4 147.8 145 147 147
-124.1 120.4 147.8 140 140 140
-120.7 120.4 147.8 140 140 140
-117.2 120.4 147.8 142 144 143
-113.8 120.4 147.8 144 144 144
-110.4 120.4 147.8 148 148 148
-106.9 120.4 147.8 91 91 91
-103.5 120.4 147.8 89 89 89
-100.1 120.4 147.8 81 84 83
-96.6 120.4 147.8 85 85 85
-93.2 120.4 147.8 90 92 91
-89.7 120.4 147.8 89 91 90
-86.3 120.4 147.8 148 150 150
-82.9 120.4 147.8 150 150 148
-79.4 120.4 147.8 153 153 153
-76.0 120.4 147.8 153 153 153
-72.6 120.4 147.8 147 147 147
-69.1 120.4 147.8 164 167 166
-65.7 120.4 147.8 150 152 152
-62.3 120.4 147.8 38 38 38
-58.8 120.4 147.8 127 127 127
-55.4 120.4 147.8 158 161 160
-52.0 120.4 147.8 154 154 154
-48.5 120.4 147.8 162 162 162
-44.4 118.6 145.5 165 168 167
-42.3 122.3 150.1 169 169 169
-38.8 122.3 150.1 166 169 168
-34.5 119.5 146.6 198 198 198
-31.1 119.5 146.6 202 204 204
-27.7 119.5 146.6 203 205 205
-24.1 118.6 145.5 205 208 207
-21.0 120.4 147.8 204 207 206
-17.9 122.3 150.1 210 210 210
-14.2 120.4 147.8 220 220 220
-12.8 144.0 176.8 212 213 212
-8.3 137.6 168.9 205 205 205
-3.9 120.4 147.8 212 213 212
-0.4 122.3 150.1 206 209 208
6.5 121.4 148.9 205 205 205
9.9 120.4 147.8 206 206 206
12.7 115.0 141.2 205 205 205
20.5 122.3 150.1 198 201 200
82.7 138.9 170.4 83 83 83
71.8 115.0 141.2 84 84 84
70.8 108.5 133.2 77 79 77
74.4 109.3 134.2 33 35 33
77.0 108.5 133.2 81 83 80
88.9 120.4 147.8 87 88 86
88.8 115.9 142.2 87 88 86
86.9 109.3 134.2 83 84 82
92.0 111.7 137.1 77 77 77
-401.9 198.2 236.5 93 93 93
-347.2 186.5 222.5 170 171 170
123.7 172.3 205.6 86 87 85
29.8 12.9 12.4 173 173 173
29.5 13.1 12.2 177 180 179
-232.0 198.2 144.4 30 29 29
-235.9 204.4 148.9 57 57 57
-232.4 204.4 148.9 38 38 38
-225.4 201.3 146.6 37 38 37
-222.0 201.3 146.6 35 35 35
-220.3 202.9 147.8 35 35 35
-239.6 211.2 151.3 183 183 183
-236.1 211.2 151.3 180 180 180
-227.1 206.3 147.8 78 78 78
-223.7 206.3 147.8 44 43 42
22.7 14.3 10.1 185 185 185
24.0 14.3 10.1 200 200 200
24.3 14.3 10.0 204 207 206
24.4 14.2 10.0 207 210 209
25.1 14.2 10.0 211 211 211
22.3 14.5 10.0 26 26 26
22.6 14.5 10.0 183 183 183
22.8 14.5 10.0 207 210 209
23.0 14.5 10.0 204 207 206
23.2 14.4 10.0 218 221 220
23.7 14.4 10.0 152 152 152
24.0 14.5 10.0 204 207 206
24.2 14.5 10.0 211 211 211
24.4 14.4 10.0 211 211 211
25.1 14.4 10.0 217 217 217
25.3 14.4 10.0 207 210 209
25.6 14.4 10.0 89 89 89
25.8 14.4 10.0 83 85 85
26.0 14.4 10.0 84 86 86
26.3 14.5 10.0 84 86 86
26.5 14.5 10.0 85 87 87
26.8 14.5 10.0 86 88 88
27.0 14.5 10.0 87 89 88
27.2 14.4 10.0 88 90 89
27.5 14.5 10.0 91 93 92
27.7 14.4 10.0 91 93 92
33.5 14.5 10.0 90 90 90
33.7 14.4 10.0 104 104 104
34.0 14.4 10.0 112 114 113
34.2 14.4 10.0 73 73 73
34.4 14.5 10.0 89 89 89
34.7 14.5 10.0 98 97 95
34.9 14.5 10.0 105 105 105
35.1 14.5 10.0 105 105 105
35.4 14.5 10.0 108 108 108
35.6 14.5 10.0 108 108 108
35.8 14.4 10.0 109 111 111
36.1 14.5 10.0 109 111 111
36.3 14.5 10.0 109 111 111
36.5 14.5 10.0 112 114 113
36.7 14.4 10.0 109 111 111
26.8 14.7 10.0 86 88 88
38.9 16.7 10.5 124 124 124
38.8 16.5 10.4 124 124 124
