ply
format ascii 1.0
element vertex 2218
property float x
property float y
property float z
property uchar red
property uchar green
property uchar blue
end_header
97.7 -157.7 62.8 156 159 158
99.8 -158.7 63.3 157 160 159
99.3 -155.6 62.0 154 156 156
100.1 -154.6 61.6 155 158 157
134.4 -465.6 187.3 166 166 166
138.8 -465.6 187.3 166 166 166
143.1 -465.6 187.3 166 166 166
147.5 -465.6 187.3 166 166 166
151.8 -465.6 187.3 166 166 166
156.2 -465.6 187.3 166 166 166
160.5 -465.6 187.3 166 166 166
164.9 -465.6 187.3 166 166 166
164.3 -452.1 181.9 167 167 167
171.9 -461.0 185.5 167 167 167
177.9 -465.6 187.3 167 167 167
186.6 -465.6 187.3 165 165 165
192.9 -470.2 189.2 165 165 165
199.3 -475.0 191.1 165 165 165
203.7 -475.0 191.1 165 165 165
206.1 -470.2 189.2 165 165 165
217.1 -465.6 187.3 162 162 162
221.5 -465.6 187.3 162 162 162
230.4 -475.0 191.1 163 163 163
230.2 -465.6 187.3 163 163 163
236.9 -470.2 189.2 163 163 163
241.3 -470.2 189.2 163 163 163
219.3 -419.8 168.9 163 163 163
225.3 -423.6 170.4 163 163 163
270.7 -500.2 201.2 163 163 163
239.7 -435.4 175.2 163 163 163
267.6 -470.2 189.2 164 164 164
249.6 -431.4 173.5 164 164 164
282.1 -479.8 193.0 161 161 161
260.0 -435.4 175.2 161 161 161
104.3 -164.4 66.1 157 160 159
100.6 -156.2 62.8 157 160 159
224.6 -175.5 70.6 109 109 109
117.9 -88.2 35.5 104 103 101
58.3 -40.5 16.3 90 90 90
58.3 -40.3 16.2 90 90 90
58.7 -40.3 16.2 180 183 182
59.3 -40.4 16.3 159 159 159
59.5 -40.3 16.2 196 196 196
60.0 -40.4 16.3 196 199 198
60.6 -40.6 16.3 209 209 209
60.5 -40.2 16.2 159 159 159
60.2 -39.8 16.0 200 202 202
51.5 -171.3 69.5 166 166 166
56.4 -171.3 69.5 166 166 166
58.0 -171.3 69.5 166 166 166
59.6 -171.3 69.5 166 166 166
61.2 -171.3 69.5 166 166 166
62.8 -171.3 69.5 167 167 167
64.2 -170.6 69.3 164 164 164
66.1 -171.3 69.5 164 164 164
67.7 -171.3 69.5 165 165 165
69.0 -170.6 69.3 165 165 165
70.4 -170.0 69.0 165 165 165
72.5 -171.3 69.5 165 165 165
74.2 -171.3 69.5 165 165 165
75.8 -171.3 69.5 165 165 165
79.3 -171.9 69.8 162 162 162
76.9 -163.4 66.4 162 162 162
82.2 -171.3 69.5 162 162 162
83.9 -171.3 69.5 163 163 163
85.5 -171.3 69.5 163 163 163
86.8 -170.6 69.3 160 160 160
84.4 -162.9 66.1 163 163 163
89.0 -168.8 68.5 163 163 163
93.0 -173.2 70.3 163 163 163
94.6 -173.2 70.3 163 163 163
95.9 -172.5 70.1 163 163 163
100.1 -177.1 71.9 163 163 163
97.3 -169.4 68.8 164 164 164
95.8 -164.0 66.6 164 164 164
107.6 -181.3 73.6 164 164 164
106.8 -177.1 71.9 167 167 167
101.5 -165.8 67.3 164 164 164
106.1 -170.6 69.3 161 161 161
108.1 -171.3 69.5 161 161 161
110.1 -171.9 69.8 165 165 165
109.7 -168.8 68.5 162 162 162
106.7 -161.7 65.7 163 163 163
232.5 -181.3 73.6 110 112 111
208.2 -161.2 65.5 107 107 107
112.2 -83.8 34.0 104 103 101
111.0 -82.3 33.4 104 103 101
76.7 -54.9 22.3 98 100 100
75.9 -54.0 21.9 95 98 97
57.3 -39.4 16.0 92 92 92
57.5 -39.3 16.0 89 89 89
57.3 -38.9 15.8 193 193 193
58.3 -39.3 16.0 149 151 151
58.6 -39.3 16.0 196 199 198
58.9 -39.3 16.0 196 196 196
59.8 -39.6 16.1 212 213 212
59.7 -39.3 16.0 162 165 164
59.3 -38.8 15.8 162 162 162
90.5 -158.6 65.0 163 163 163
88.0 -151.8 62.2 164 164 164
117.5 -181.7 74.5 165 165 165
117.4 -178.8 73.3 165 165 165
104.5 -156.9 64.3 166 166 166
96.8 -143.3 58.7 166 166 166
235.2 -181.7 74.5 109 109 109
109.1 -80.7 33.1 104 103 101
106.7 -78.3 32.1 104 103 101
104.6 -76.3 31.3 104 103 101
73.5 -51.8 21.2 95 98 97
58.7 -38.8 15.9 193 193 193
59.7 -39.2 16.1 200 202 202
59.7 -38.9 16.0 215 215 215
58.7 -38.1 15.6 212 213 212
57.8 -37.3 15.3 204 204 204
57.7 -36.9 15.1 196 196 196
28.8 -91.0 37.7 166 166 166
52.9 -98.5 40.8 169 169 169
50.3 -92.0 38.1 169 169 169
50.8 -91.2 37.8 169 169 169
244.2 -397.4 164.5 167 167 167
59.8 -92.9 38.4 167 167 167
115.7 -177.1 73.3 168 168 168
118.3 -178.5 73.9 168 168 168
111.3 -165.6 68.5 166 166 166
100.2 -147.0 60.8 166 166 166
91.3 -132.1 54.7 166 166 166
232.5 -177.8 73.6 109 109 109
206.8 -157.1 65.0 107 107 107
106.1 -77.7 32.2 104 103 101
103.8 -75.5 31.3 105 105 105
77.6 -54.9 22.7 98 100 100
75.3 -52.9 21.9 95 98 97
73.3 -51.2 21.2 95 98 97
57.2 -36.7 15.2 207 207 207
56.9 -36.3 15.0 182 185 184
56.4 -35.8 14.8 212 213 212
57.4 -36.2 15.0 212 213 212
24.9 -85.7 35.8 166 169 168
25.6 -85.2 35.6 166 169 168
26.4 -85.4 35.7 166 166 166
27.4 -85.9 35.9 166 166 166
28.8 -85.1 35.6 166 166 166
29.5 -84.8 35.4 166 166 166
30.3 -84.6 35.4 166 166 166
31.2 -84.9 35.5 166 166 166
32.2 -85.2 35.6 167 167 167
33.1 -85.6 35.8 167 167 167
34.9 -85.7 35.8 165 165 165
36.5 -85.7 35.8 167 167 167
37.1 -85.1 35.6 167 167 167
38.1 -85.6 35.8 168 168 168
38.9 -85.4 35.7 168 168 168
41.4 -85.4 35.7 168 168 168
42.6 -86.2 36.0 168 168 168
42.8 -84.9 35.5 170 172 172
43.6 -84.9 35.5 170 172 172
44.4 -84.9 35.5 170 172 172
45.3 -84.9 35.5 170 172 172
46.4 -85.6 35.8 170 172 172
47.3 -85.6 35.8 170 172 172
47.9 -85.2 35.6 170 172 172
48.5 -84.8 35.4 170 172 172
50.1 -86.2 36.0 170 172 172
51.4 -86.9 36.3 171 173 173
51.7 -86.1 36.0 171 173 173
256.0 -419.1 175.2 171 173 173
242.1 -390.2 163.1 171 173 173
56.3 -86.7 36.2 170 171 170
55.8 -84.6 35.4 172 172 172
124.6 -186.3 77.8 172 172 172
119.1 -175.4 73.3 172 172 172
88.5 -126.8 53.0 173 173 173
233.4 -176.8 73.9 110 112 111
94.4 -67.6 28.2 98 100 100
73.9 -51.4 21.5 98 100 100
71.3 -49.3 20.6 95 98 97
69.1 -47.5 19.8 95 95 95
55.6 -35.4 14.8 209 209 209
54.5 -34.4 14.4 218 218 218
54.1 -34.0 14.2 218 218 218
54.1 -33.8 14.1 218 218 218
23.6 -80.5 34.0 166 169 168
24.2 -80.0 33.8 166 166 166
25.0 -80.0 33.8 166 166 166
25.8 -79.9 33.7 166 166 166
26.5 -79.8 33.7 164 164 164
27.2 -79.6 33.6 166 166 166
28.2 -80.0 33.8 166 166 166
29.0 -80.0 33.8 166 166 166
29.7 -80.0 33.8 166 166 166
30.5 -80.0 33.8 168 170 169
31.3 -80.0 33.8 168 170 169
32.1 -80.2 33.8 169 171 170
32.9 -80.2 33.8 169 171 170
33.7 -80.2 33.8 169 171 170
34.5 -80.2 33.8 169 171 170
35.2 -80.0 33.8 169 171 170
36.0 -80.0 33.8 169 171 170
36.8 -80.0 33.8 169 171 170
37.6 -80.0 33.8 169 171 170
38.4 -80.0 33.8 169 171 170
39.2 -80.0 33.8 169 171 170
39.9 -80.0 33.8 169 171 170
40.7 -80.0 33.8 170 172 172
41.5 -80.0 33.8 173 175 175
42.3 -80.0 33.8 173 175 175
43.1 -80.0 33.8 170 172 172
43.8 -79.9 33.7 170 172 172
44.5 -79.8 33.7 170 172 172
45.2 -79.6 33.6 170 172 172
46.1 -79.9 33.7 170 172 172
47.0 -80.0 33.8 170 172 172
47.7 -79.9 33.7 171 173 173
48.6 -80.0 33.8 174 176 176
49.4 -80.0 33.8 171 173 173
160.0 -247.6 104.5 171 173 173
139.3 -212.4 89.7 171 173 173
53.6 -80.5 34.0 175 177 177
124.1 -183.7 77.5 175 177 177
121.0 -176.5 74.5 175 177 177
86.2 -60.7 25.6 98 100 100
81.4 -56.9 24.0 98 100 100
53.0 -33.0 13.9 218 218 218
43.6 -73.5 31.3 178 178 178
44.0 -73.0 31.1 179 179 179
45.0 -73.4 31.3 183 183 183
45.4 -72.9 31.1 181 181 181
238.0 -376.1 160.3 181 181 181
198.1 -308.2 131.4 181 181 181
160.9 -246.6 105.1 179 179 179
133.6 -201.7 86.0 179 179 179
122.3 -181.9 77.5 182 182 182
125.1 -183.4 78.2 175 177 177
121.4 -175.4 74.8 180 180 180
27.3 -36.4 15.5 177 180 179
42.6 -72.3 31.1 196 196 196
43.3 -72.3 31.1 196 196 196
43.8 -71.9 31.0 196 196 196
44.5 -71.9 31.0 196 196 196
45.1 -71.7 30.9 199 199 199
212.9 -327.9 141.2 199 199 199
161.8 -245.5 105.7 196 196 196
134.3 -200.7 86.4 199 199 199
124.9 -183.9 79.1 200 200 200
128.9 -187.0 80.5 197 197 197
127.5 -182.3 78.5 197 197 197
27.1 -36.2 15.6 203 203 203
27.1 -35.7 15.4 203 203 203
36.7 -60.7 26.4 203 203 203
43.0 -69.9 30.4 203 203 203
43.5 -69.6 30.3 203 203 203
39.7 -61.4 26.7 203 203 203
214.5 -327.1 142.2 203 203 203
182.2 -273.6 119.0 203 203 203
134.9 -199.6 86.8 203 203 203
125.4 -182.8 79.5 204 204 204
131.1 -188.3 81.9 204 204 204
128.5 -182.0 79.1 204 204 204
26.6 -34.7 15.1 206 206 206
26.6 -34.2 14.9 204 204 204
120.9 -88.1 38.3 112 114 113
118.2 -85.5 37.2 110 112 111
115.0 -82.6 35.9 110 112 111
41.5 -70.3 30.9 206 206 206
36.6 -59.8 26.3 206 206 206
43.0 -69.1 30.4 206 206 206
42.6 -67.4 29.6 206 206 206
42.5 -66.2 29.1 206 206 206
42.9 -65.7 28.9 206 206 206
39.3 -59.3 26.1 206 206 206
137.4 -201.2 88.4 206 206 206
123.8 -178.7 78.5 204 204 204
127.2 -180.9 79.5 204 204 204
124.9 -175.1 76.9 204 204 204
27.0 -35.4 15.5 206 206 206
26.9 -34.7 15.2 206 206 206
26.6 -33.9 14.9 207 207 207
119.0 -85.8 37.7 112 114 113
116.9 -83.6 36.7 112 114 113
114.6 -81.4 35.8 112 114 113
33.8 -67.0 29.7 206 206 206
38.4 -66.7 29.6 206 206 206
40.1 -68.3 30.3 206 206 206
40.8 -68.4 30.4 206 206 206
40.5 -66.7 29.6 206 206 206
42.3 -68.5 30.4 206 206 206
42.7 -68.0 30.2 206 206 206
42.5 -66.6 29.6 206 206 206
42.9 -66.2 29.4 206 206 206
43.4 -65.9 29.2 206 206 206
43.7 -65.3 29.0 206 206 206
122.3 -174.7 77.5 207 207 207
124.6 -175.4 77.8 207 207 207
122.9 -170.5 75.7 204 204 204
27.0 -35.5 15.7 206 206 206
27.0 -34.9 15.5 206 206 206
26.8 -34.2 15.2 206 206 206
26.7 -33.7 15.0 207 207 207
119.7 -85.4 37.9 117 117 117
116.4 -82.4 36.6 114 116 115
19.2 -66.1 29.6 208 208 208
19.8 -65.9 29.6 208 208 208
20.5 -65.9 29.6 211 211 211
21.2 -65.9 29.6 208 208 208
21.9 -65.8 29.5 206 206 206
22.5 -65.8 29.5 206 206 206
23.3 -65.9 29.6 208 208 208
23.9 -65.7 29.5 208 208 208
24.6 -65.8 29.5 208 208 208
25.3 -65.9 29.6 208 208 208
26.0 -65.9 29.6 208 208 208
26.7 -65.9 29.6 208 208 208
27.4 -65.8 29.5 208 208 208
28.0 -65.7 29.5 208 208 208
28.7 -65.7 29.5 208 208 208
29.5 -66.0 29.6 208 208 208
30.2 -66.0 29.6 208 208 208
30.9 -66.0 29.6 208 208 208
31.5 -65.8 29.5 208 208 208
32.2 -65.8 29.5 208 208 208
32.8 -65.8 29.5 206 206 206
33.5 -65.8 29.5 206 206 206
34.3 -65.9 29.6 208 208 208
34.9 -65.9 29.6 208 208 208
35.7 -66.0 29.6 208 208 208
36.4 -66.0 29.6 206 206 206
37.0 -65.9 29.6 206 206 206
37.6 -65.8 29.5 206 206 206
38.3 -65.7 29.5 206 206 206
39.3 -66.2 29.7 206 206 206
40.0 -66.3 29.7 208 208 208
40.3 -65.7 29.5 208 208 208
41.1 -65.9 29.6 208 208 208
42.0 -66.1 29.6 208 208 208
42.4 -65.7 29.5 211 211 211
42.9 -65.5 29.4 209 209 209
43.5 -65.3 29.3 206 206 206
43.8 -64.8 29.1 206 206 206
125.4 -172.2 77.2 207 207 207
27.2 -35.3 15.8 208 208 208
27.1 -34.7 15.6 206 206 206
26.8 -33.9 15.2 206 206 206
26.7 -33.4 15.0 206 206 206
24.3 -25.1 11.3 160 160 160
24.4 -25.0 11.2 158 158 158
19.1 -65.2 29.6 207 207 207
23.9 -65.0 29.5 207 207 207
35.6 -65.2 29.6 208 208 208
36.3 -65.2 29.6 208 208 208
39.8 -65.3 29.6 208 208 208
40.3 -65.0 29.5 208 208 208
41.8 -65.2 29.6 208 208 208
42.3 -64.9 29.4 208 208 208
42.9 -64.8 29.4 208 208 208
43.5 -64.6 29.3 208 208 208
43.8 -64.1 29.1 208 208 208
329.2 -453.8 205.6 206 206 206
27.3 -35.1 15.9 207 207 207
27.3 -34.6 15.7 207 207 207
27.0 -33.8 15.3 205 205 205
26.8 -33.2 15.0 206 206 206
24.5 -25.0 11.3 162 162 162
27.1 -34.5 15.8 207 207 207
27.3 -34.3 15.7 207 207 207
27.1 -33.5 15.3 207 207 207
26.8 -32.8 15.0 207 207 207
8.6 -33.5 15.5 210 210 210
26.0 -33.2 15.4 208 208 208
27.0 -34.0 15.7 206 206 206
27.3 -33.9 15.7 206 206 206
27.1 -33.2 15.4 206 206 206
26.7 -32.2 14.9 207 207 207
26.4 -31.5 14.6 207 207 207
24.9 -29.0 13.4 205 205 205
25.3 -29.0 13.4 206 206 206
25.6 -29.0 13.4 206 206 206
-28.0 -23.4 10.9 47 48 47
-27.7 -23.4 10.9 47 48 47
-27.5 -23.4 10.9 47 48 47
-27.2 -23.4 10.9 46 45 43
-27.0 -23.4 10.9 46 45 43
-22.1 -23.0 10.8 50 50 50
-22.1 -23.4 10.9 63 63 63
-21.9 -23.4 10.9 84 84 84
-19.2 -23.4 11.0 106 108 108
-15.0 -23.0 10.7 122 122 122
-14.5 -22.6 10.6 122 122 122
-10.7 -23.2 10.9 131 131 131
8.5 -32.9 15.4 209 209 209
8.9 -32.9 15.4 209 209 209
9.2 -32.9 15.4 209 209 209
16.7 -32.8 15.4 206 206 206
25.5 -32.6 15.3 208 208 208
25.9 -32.6 15.3 208 208 208
26.7 -33.2 15.5 208 208 208
27.1 -33.3 15.6 208 208 208
27.1 -32.8 15.4 206 206 206
26.8 -32.1 15.0 206 206 206
26.3 -31.1 14.5 206 206 206
25.6 -28.8 13.5 205 205 205
-31.0 -23.3 11.0 50 50 50
-38.3 -29.5 14.0 48 48 48
-38.0 -29.5 14.0 48 48 48
-37.6 -29.4 13.9 50 50 50
-37.3 -29.4 13.9 50 50 50
-37.0 -29.4 13.9 50 50 50
-36.6 -29.4 13.9 53 52 52
-36.3 -29.4 13.9 53 52 52
-36.0 -29.4 13.9 50 50 50
-35.6 -29.4 13.9 50 50 50
-35.4 -29.5 14.0 48 48 48
-29.6 -29.5 14.0 43 43 43
-29.2 -29.5 14.0 43 43 43
-28.9 -29.4 13.9 43 43 43
-28.4 -29.4 13.9 46 45 43
-28.2 -29.4 13.9 47 48 47
-26.7 -29.6 14.0 97 100 99
-26.2 -29.4 13.9 92 92 92
-25.9 -29.4 13.9 96 99 98
-24.7 -29.5 14.0 101 101 101
-24.3 -29.4 13.9 103 103 103
-18.5 -23.3 11.0 107 107 107
-14.2 -29.4 13.9 125 125 125
-11.8 -29.7 14.1 134 136 135
-11.4 -29.5 13.9 139 139 139
-11.0 -29.4 13.9 140 142 141
-7.5 -29.5 14.0 166 169 168
-6.5 -29.5 14.0 172 172 172
-4.6 -29.5 14.0 177 177 177
-3.6 -29.5 14.0 180 180 180
-3.3 -29.5 14.0 179 179 179
-2.6 -29.5 13.9 181 181 181
-2.3 -29.5 14.0 181 181 181
-2.0 -29.5 14.0 181 181 181
-1.7 -29.5 14.0 181 181 181
-1.0 -29.5 14.0 181 181 181
7.4 -29.4 13.9 209 209 209
8.8 -29.7 14.1 208 208 208
9.1 -29.6 14.0 208 208 208
9.4 -29.6 14.0 208 208 208
9.7 -29.5 14.0 208 208 208
10.0 -29.5 14.0 208 208 208
10.4 -29.5 14.0 208 208 208
10.7 -29.5 14.0 208 208 208
11.0 -29.6 14.0 208 208 208
11.3 -29.4 13.9 208 208 208
11.6 -29.5 14.0 208 208 208
12.9 -29.4 13.9 208 208 208
13.9 -29.5 14.0 208 208 208
14.9 -29.6 14.0 208 208 208
16.7 -32.5 15.4 206 206 206
15.6 -29.6 14.0 206 206 206
15.8 -29.5 14.0 208 208 208
16.1 -29.4 13.9 208 208 208
16.9 -29.6 14.0 208 208 208
18.2 -29.6 14.0 208 208 208
18.5 -29.5 14.0 208 208 208
18.8 -29.5 14.0 208 208 208
19.1 -29.5 14.0 208 208 208
20.8 -29.6 14.0 206 206 206
25.4 -32.2 15.2 207 207 207
27.1 -32.9 15.5 208 208 208
27.1 -32.5 15.4 205 205 205
26.8 -31.8 15.0 205 205 205
26.7 -29.3 13.9 205 205 205
1136.9 -784.1 370.9 160 163 162
-38.6 -29.4 14.1 51 51 51
-38.3 -29.4 14.1 51 51 51
-38.0 -29.4 14.1 51 51 51
-37.7 -29.4 14.1 49 49 49
-37.3 -29.4 14.1 51 51 51
-37.0 -29.4 14.1 51 51 51
-36.7 -29.4 14.1 53 53 53
-36.4 -29.4 14.1 53 53 53
-36.0 -29.4 14.1 51 51 51
-29.5 -29.4 14.1 44 44 44
-29.0 -29.3 14.0 42 43 42
-27.7 -30.0 14.3 48 48 48
-26.9 -29.5 14.1 50 50 50
-26.4 -29.2 14.0 80 80 80
-26.0 -29.2 14.0 94 94 94
-25.3 -29.5 14.1 98 100 100
-24.9 -29.4 14.1 98 100 100
-14.3 -29.1 13.9 116 116 116
-14.0 -29.1 13.9 119 119 119
-13.7 -29.2 14.0 121 120 119
-12.0 -30.0 14.3 133 133 133
-11.5 -29.5 14.1 136 136 136
-10.4 -29.2 14.0 152 152 152
-7.9 -29.4 14.1 176 176 176
-7.6 -29.4 14.1 177 177 177
-6.6 -29.4 14.1 178 181 180
-4.6 -29.3 14.0 188 188 188
-4.3 -29.4 14.1 188 188 188
-4.0 -29.4 14.1 186 186 186
-3.6 -29.4 14.1 186 186 186
-3.3 -29.4 14.1 186 186 186
-2.3 -29.4 14.0 183 183 183
-2.0 -29.4 14.1 183 183 183
-1.7 -29.4 14.1 183 183 183
-1.4 -29.5 14.1 183 183 183
-1.0 -29.4 14.1 182 182 182
-0.7 -29.4 14.1 182 182 182
0.6 -29.4 14.1 182 182 182
0.9 -29.4 14.1 182 182 182
1.3 -29.4 14.1 182 182 182
1.6 -29.4 14.1 182 182 182
7.5 -29.4 14.1 208 208 208
8.8 -29.6 14.1 208 208 208
9.1 -29.5 14.1 208 208 208
9.5 -29.4 14.1 208 208 208
9.8 -29.4 14.1 208 208 208
10.1 -29.4 14.1 208 208 208
10.4 -29.4 14.1 208 208 208
10.7 -29.4 14.1 208 208 208
11.1 -29.4 14.1 208 208 208
11.4 -29.4 14.1 208 208 208
11.7 -29.4 14.1 208 208 208
12.5 -29.7 14.2 208 208 208
12.8 -29.7 14.2 208 208 208
12.9 -29.1 13.9 208 208 208
14.0 -30.0 14.4 208 208 208
14.0 -29.4 14.0 208 208 208
14.8 -29.7 14.2 208 208 208
15.0 -29.5 14.1 208 208 208
15.4 -29.5 14.1 205 205 205
15.7 -29.6 14.1 208 208 208
16.0 -29.4 14.0 208 208 208
16.2 -29.2 14.0 208 208 208
17.0 -30.1 14.4 208 208 208
17.0 -29.5 14.1 208 208 208
17.3 -29.4 14.1 208 208 208
17.7 -29.5 14.1 208 208 208
18.1 -29.6 14.2 208 208 208
18.3 -29.5 14.1 208 208 208
18.6 -29.4 14.1 208 208 208
19.0 -29.5 14.1 208 208 208
19.2 -29.4 14.1 208 208 208
19.6 -29.4 14.1 208 208 208
19.9 -29.4 14.1 208 208 208
20.2 -29.4 14.1 208 208 208
20.7 -29.6 14.2 208 208 208
20.9 -29.4 14.1 208 208 208
27.0 -32.0 15.3 207 207 207
25.9 -30.0 14.3 205 205 205
25.6 -29.2 14.0 205 205 205
25.7 -29.0 13.9 206 206 206
25.9 -28.8 13.8 206 206 206
26.7 -29.0 13.9 206 206 206
-38.0 -29.6 14.3 53 53 53
-28.8 -30.8 14.9 43 43 43
-13.9 -28.7 13.9 110 112 111
-13.5 -28.5 13.8 112 112 112
-12.6 -32.0 15.5 120 120 120
-12.1 -31.6 15.3 140 142 141
8.5 -31.7 15.4 208 208 208
8.9 -31.8 15.4 208 208 208
13.1 -30.1 14.5 207 207 207
14.6 -31.7 15.4 207 207 207
15.7 -31.8 15.4 207 207 207
16.4 -31.8 15.4 207 207 207
16.7 -31.8 15.4 207 207 207
17.8 -31.7 15.3 207 207 207
22.1 -31.7 15.4 207 207 207
25.6 -31.7 15.3 206 206 206
25.9 -31.6 15.3 206 206 206
27.0 -31.7 15.3 207 207 207
27.1 -31.3 15.2 207 207 207
27.2 -31.0 15.0 207 207 207
-21.7 -24.4 11.9 50 49 48
-21.2 -24.2 11.8 51 51 51
-20.6 -23.8 11.7 79 79 79
-13.2 -27.7 13.5 73 73 73
-13.4 -32.7 16.0 25 25 25
-12.8 -32.1 15.7 30 30 30
-12.3 -31.6 15.5 98 100 100
8.4 -32.3 15.8 207 207 207
8.7 -32.2 15.7 207 207 207
9.1 -32.3 15.8 205 205 205
9.5 -32.2 15.7 210 210 210
13.0 -32.7 16.0 207 207 207
13.2 -32.3 15.8 207 207 207
13.5 -32.2 15.8 207 207 207
13.9 -32.2 15.8 207 207 207
14.7 -32.4 15.9 207 207 207
15.0 -32.2 15.8 207 207 207
15.3 -32.2 15.7 207 207 207
15.8 -32.5 15.9 207 207 207
16.1 -32.2 15.8 207 207 207
16.3 -32.0 15.6 207 207 207
16.8 -32.3 15.8 207 207 207
17.1 -32.1 15.7 207 207 207
17.6 -32.3 15.8 207 207 207
18.0 -32.4 15.8 207 207 207
18.2 -32.1 15.7 207 207 207
18.6 -32.2 15.8 207 207 207
19.4 -32.9 16.1 207 207 207
19.5 -32.4 15.8 207 207 207
19.7 -32.1 15.7 207 207 207
20.1 -32.2 15.8 207 207 207
20.8 -32.8 16.0 207 207 207
20.9 -32.3 15.8 207 207 207
21.2 -32.2 15.8 207 207 207
21.6 -32.3 15.8 207 207 207
22.0 -32.4 15.8 207 207 207
22.4 -32.3 15.8 207 207 207
22.7 -32.2 15.8 207 207 207
23.1 -32.3 15.8 207 207 207
23.4 -32.3 15.8 207 207 207
23.7 -32.2 15.7 207 207 207
26.2 -32.1 15.7 205 205 205
26.3 -31.8 15.5 206 206 206
27.0 -32.1 15.7 206 206 206
27.3 -31.7 15.5 206 206 206
27.7 -31.6 15.5 206 206 206
28.5 -32.2 15.8 206 206 206
28.8 -32.1 15.7 207 207 207
26.0 -27.6 13.5 205 205 205
26.0 -27.3 13.3 205 205 205
26.1 -27.0 13.2 205 205 205
-21.9 -24.4 12.1 46 46 46
-16.4 -31.7 15.7 19 23 20
-16.1 -31.8 15.7 26 26 26
-12.9 -31.9 15.8 34 34 34
-12.4 -31.7 15.7 123 125 124
-12.1 -31.7 15.7 186 186 186
9.5 -31.9 15.8 210 210 210
13.2 -31.9 15.8 207 207 207
13.5 -31.9 15.8 207 207 207
13.9 -31.8 15.8 207 207 207
15.0 -31.9 15.8 207 207 207
16.1 -31.9 15.8 206 206 206
16.4 -31.8 15.7 206 206 206
16.8 -31.9 15.8 206 206 206
17.2 -31.9 15.8 206 206 206
18.3 -31.8 15.8 206 206 206
18.6 -31.9 15.8 206 206 206
19.6 -32.2 15.9 206 206 206
19.7 -31.9 15.8 206 206 206
20.9 -32.0 15.8 206 206 206
21.3 -31.9 15.8 206 206 206
21.6 -32.0 15.8 206 206 206
22.7 -32.0 15.8 206 206 206
23.1 -31.9 15.8 206 206 206
23.5 -32.0 15.8 206 206 206
23.8 -31.9 15.8 206 206 206
26.3 -31.9 15.8 207 207 207
26.5 -31.6 15.7 205 205 205
27.0 -31.8 15.8 205 205 205
27.4 -31.4 15.6 206 206 206
27.8 -31.4 15.6 206 206 206
28.5 -31.9 15.8 206 206 206
28.9 -31.9 15.8 206 206 206
29.2 -31.8 15.7 206 206 206
26.1 -27.0 13.4 204 204 204
26.2 -26.8 13.3 205 205 205
-35.5 -32.7 16.4 47 48 47
-30.6 -32.8 16.4 40 40 40
-30.2 -32.8 16.4 41 41 41
-19.5 -22.3 11.1 45 45 45
-19.0 -22.0 11.0 49 49 49
-15.7 -22.0 11.0 98 100 100
-15.3 -21.8 10.9 99 101 101
-17.0 -32.4 16.2 27 27 27
-16.7 -32.5 16.3 25 25 25
-16.5 -32.8 16.4 26 26 26
-16.0 -32.7 16.4 26 26 26
-15.7 -32.8 16.4 27 27 27
-15.3 -32.8 16.4 29 30 28
-14.9 -32.7 16.3 27 29 27
-13.6 -32.5 16.3 34 34 34
-13.2 -32.4 16.2 37 37 35
17.8 -30.7 15.4 209 209 209
22.4 -31.1 15.6 206 206 206
22.5 -30.7 15.4 206 206 206
26.0 -30.7 15.4 207 207 207
27.1 -30.7 15.4 205 205 205
27.3 -30.5 15.3 205 205 205
28.0 -30.9 15.5 205 205 205
28.5 -31.1 15.6 205 205 205
28.4 -30.6 15.3 206 206 206
26.2 -27.1 13.6 206 206 206
26.2 -26.8 13.4 204 204 204
26.3 -26.6 13.3 204 204 204
26.6 -26.6 13.3 204 204 204
27.1 -26.8 13.4 203 203 203
-46.5 -32.6 16.5 56 56 56
-46.4 -32.8 16.6 59 60 58
-46.0 -32.8 16.6 59 60 58
-45.6 -32.8 16.6 59 60 58
-45.3 -32.8 16.6 59 60 58
-44.8 -32.8 16.6 59 60 58
-44.4 -32.8 16.6 59 60 58
-44.1 -32.8 16.6 59 60 58
-37.5 -32.8 16.6 51 51 49
-37.1 -32.8 16.6 48 48 48
-36.7 -32.8 16.6 48 48 48
-36.3 -32.7 16.6 51 51 49
-35.9 -32.8 16.6 48 48 48
-33.4 -32.9 16.7 47 48 47
-32.8 -32.8 16.6 45 45 45
-32.4 -32.7 16.5 45 45 45
-31.4 -32.9 16.7 41 41 41
-31.0 -32.9 16.7 42 42 42
-30.6 -32.9 16.7 42 42 42
-30.2 -32.8 16.6 42 42 42
-20.6 -23.0 11.6 41 41 39
-17.5 -33.0 16.7 27 27 27
-16.9 -32.5 16.5 27 27 27
-16.6 -32.7 16.5 28 28 28
-16.2 -32.6 16.5 28 28 28
-15.9 -32.8 16.6 29 30 28
-15.5 -32.9 16.7 29 30 28
-15.1 -32.7 16.6 29 30 28
-13.8 -32.4 16.4 34 34 34
-13.3 -32.2 16.3 36 36 36
22.3 -30.2 15.3 205 205 205
22.2 -29.6 15.0 205 205 205
22.9 -30.0 15.2 205 205 205
25.7 -30.4 15.4 206 206 206
25.9 -30.2 15.3 206 206 206
27.1 -30.4 15.4 204 204 204
27.1 -29.9 15.2 204 204 204
27.5 -30.0 15.2 205 205 205
28.3 -30.4 15.4 205 205 205
28.1 -29.8 15.1 205 205 205
26.4 -27.0 13.7 205 205 205
26.4 -26.7 13.5 206 206 206
26.5 -26.5 13.4 206 206 206
26.9 -26.6 13.5 206 206 206
27.4 -26.8 13.6 204 204 204
508.0 -324.8 164.5 184 184 184
-34.9 -24.2 12.4 59 61 59
-34.7 -24.3 12.4 62 62 62
-34.5 -24.3 12.4 59 61 59
-34.1 -24.3 12.4 59 61 59
-33.9 -24.3 12.4 59 61 59
-33.6 -24.3 12.4 59 61 59
-33.3 -24.3 12.4 59 61 59
-33.0 -24.3 12.4 59 61 59
-32.7 -24.3 12.4 59 61 59
-32.4 -24.3 12.4 58 58 58
-32.1 -24.3 12.4 59 61 59
-31.9 -24.3 12.4 60 62 60
-31.6 -24.3 12.4 60 62 60
-31.3 -24.3 12.4 58 58 58
-30.4 -24.3 12.4 53 53 53
-30.1 -24.3 12.4 53 53 53
-29.8 -24.2 12.4 51 51 49
-29.5 -24.3 12.4 48 48 48
-28.7 -24.3 12.4 52 52 50
-28.4 -24.3 12.4 52 52 50
-28.1 -24.3 12.4 52 52 50
-27.8 -24.3 12.4 52 52 50
-27.5 -24.3 12.4 49 49 49
-27.2 -24.3 12.4 52 52 50
-26.9 -24.3 12.4 49 49 49
-26.6 -24.3 12.4 49 49 49
-26.3 -24.3 12.4 50 50 50
-25.8 -24.3 12.4 50 50 50
-25.5 -24.3 12.4 50 50 50
-25.2 -24.3 12.4 50 50 50
-24.9 -24.3 12.4 48 48 48
-23.3 -24.5 12.5 42 43 42
-22.9 -24.3 12.5 42 43 42
-22.6 -24.3 12.4 45 45 45
-22.1 -24.1 12.3 42 43 42
-21.7 -24.3 12.4 40 40 40
-21.4 -24.2 12.4 40 40 40
-16.8 -32.7 16.7 29 31 29
-15.9 -33.3 17.1 29 30 28
-11.0 -24.3 12.4 31 30 29
-10.6 -24.1 12.3 32 32 32
2.6 -24.2 12.4 191 191 191
2.8 -24.2 12.4 191 191 191
9.5 -24.3 12.4 208 208 208
21.9 -29.2 15.0 207 207 207
22.2 -29.2 15.0 207 207 207
22.5 -29.2 15.0 205 205 205
24.4 -28.9 14.8 205 205 205
25.2 -29.5 15.1 206 206 206
25.7 -29.6 15.2 206 206 206
25.7 -29.2 15.0 206 206 206
26.0 -29.1 14.9 206 206 206
26.9 -29.8 15.3 206 206 206
26.9 -29.4 15.0 206 206 206
27.2 -29.4 15.0 204 204 204
27.8 -29.6 15.2 207 207 207
28.0 -29.4 15.1 207 207 207
28.2 -29.2 15.0 207 207 207
-35.8 -24.5 12.7 59 61 59
-35.5 -24.5 12.7 63 63 63
-35.2 -24.5 12.7 63 63 63
-35.0 -24.5 12.7 60 62 60
-34.7 -24.6 12.7 60 62 60
-34.4 -24.6 12.7 60 62 60
-34.1 -24.6 12.7 60 62 60
-33.8 -24.6 12.7 60 62 60
-33.5 -24.6 12.7 60 62 60
-33.2 -24.6 12.7 60 62 60
-32.9 -24.6 12.7 60 62 60
-32.6 -24.6 12.7 60 62 60
-32.3 -24.5 12.7 61 63 61
-32.0 -24.5 12.7 58 59 59
-31.7 -24.5 12.7 58 59 59
-31.4 -24.6 12.7 57 57 57
-31.1 -24.5 12.7 57 57 57
-30.6 -24.6 12.8 54 54 54
-30.2 -24.5 12.7 54 54 54
-29.9 -24.5 12.7 53 52 51
-29.6 -24.5 12.7 53 52 51
-29.3 -24.5 12.7 53 52 51
-29.0 -24.5 12.7 53 52 51
-28.7 -24.5 12.7 53 52 51
-28.5 -24.6 12.7 53 52 51
-28.2 -24.6 12.7 53 52 51
-27.9 -24.5 12.7 53 52 51
-27.6 -24.6 12.7 53 52 51
-27.3 -24.6 12.7 54 53 52
-27.0 -24.5 12.7 51 51 51
-26.7 -24.6 12.8 51 51 51
-26.4 -24.6 12.8 51 51 51
-26.1 -24.6 12.8 49 49 49
-25.8 -24.6 12.7 49 49 49
-25.5 -24.6 12.8 49 49 49
-25.2 -24.6 12.8 49 49 49
-23.9 -24.7 12.8 43 43 43
-23.4 -24.6 12.7 43 43 43
-23.1 -24.5 12.7 43 43 43
-22.9 -24.6 12.8 43 42 41
-22.6 -24.7 12.8 43 42 41
-22.3 -24.6 12.7 41 41 41
-22.0 -24.6 12.7 41 41 41
-21.6 -24.5 12.7 41 41 41
-13.4 -24.6 12.7 30 29 29
-12.6 -24.8 12.9 29 29 29
-12.2 -24.7 12.8 29 29 29
-11.9 -24.5 12.7 29 31 29
-11.6 -24.5 12.7 29 31 29
-11.3 -24.5 12.7 29 30 28
-10.7 -24.6 12.7 36 38 37
9.2 -24.8 12.9 208 208 208
9.5 -24.7 12.8 208 208 208
21.9 -28.9 15.0 207 207 207
22.1 -28.7 14.9 207 207 207
22.4 -28.7 14.9 207 207 207
24.4 -28.5 14.8 205 205 205
25.3 -29.2 15.1 205 205 205
25.7 -29.2 15.2 205 205 205
25.7 -28.8 14.9 205 205 205
26.0 -28.8 14.9 206 206 206
27.0 -29.5 15.3 206 206 206
26.8 -29.0 15.0 206 206 206
27.2 -29.0 15.0 206 206 206
27.9 -29.3 15.2 206 206 206
28.1 -29.2 15.1 204 204 204
28.2 -28.9 15.0 206 206 206
28.2 -28.6 14.8 204 204 204
-36.2 -24.5 12.9 64 64 64
-36.1 -24.6 12.9 64 64 64
-35.8 -24.6 12.9 64 64 64
-35.5 -24.6 12.9 64 64 64
-35.3 -24.7 13.0 64 64 64
-34.9 -24.6 12.9 61 63 61
-34.6 -24.6 12.9 61 63 61
-34.3 -24.6 12.9 61 63 61
-34.0 -24.6 12.9 61 63 61
-33.7 -24.7 12.9 61 63 61
-33.4 -24.6 12.9 61 63 61
-33.1 -24.6 12.9 61 63 61
-32.8 -24.6 12.9 59 59 59
-30.7 -24.6 12.9 55 55 55
-30.1 -24.6 12.9 56 56 56
-29.6 -24.5 12.9 54 53 52
-29.4 -24.5 12.9 54 53 52
-29.1 -24.6 12.9 54 53 52
-28.9 -24.7 12.9 54 53 52
-28.4 -24.5 12.9 54 53 52
-28.1 -24.5 12.9 54 53 52
-28.0 -24.7 12.9 55 54 53
-27.7 -24.6 12.9 55 54 53
-27.4 -24.6 12.9 52 52 52
-27.2 -24.7 13.0 52 52 52
-26.9 -24.7 13.0 52 52 52
-26.6 -24.7 13.0 52 52 52
-26.2 -24.6 12.9 50 50 50
-25.9 -24.6 12.9 53 52 52
-24.8 -25.1 13.2 44 44 44
-24.2 -24.7 13.0 44 44 44
-23.7 -24.6 12.9 44 44 44
-23.4 -24.5 12.9 43 42 41
-23.2 -24.7 12.9 41 41 41
-22.8 -24.5 12.9 44 43 42
-22.1 -24.5 12.9 42 42 42
-13.6 -24.7 13.0 30 29 29
-13.3 -24.7 13.0 28 28 28
-13.0 -24.7 13.0 30 29 29
-12.8 -24.8 13.0 28 28 28
-12.4 -24.7 13.0 34 34 34
-11.4 -24.5 12.9 33 33 33
-11.1 -24.5 12.9 28 28 28
9.3 -24.7 13.0 207 207 207
21.9 -28.1 14.8 206 206 206
22.2 -28.1 14.8 206 206 206
26.2 -29.5 15.5 205 205 205
27.3 -29.5 15.5 205 205 205
26.8 -28.5 15.0 205 205 205
27.2 -28.6 15.0 205 205 205
28.4 -29.5 15.5 206 206 206
28.9 -29.6 15.5 206 206 206
-30.0 -25.0 13.3 55 54 53
-29.7 -25.0 13.3 55 54 53
-27.6 -25.1 13.3 53 52 52
-25.2 -25.1 13.3 47 48 47
-24.7 -25.0 13.3 47 48 47
-13.0 -24.9 13.2 35 35 35
-12.6 -24.8 13.2 39 41 41
-11.7 -24.7 13.2 58 59 59
-11.3 -24.7 13.1 69 69 69
-10.7 -25.4 13.5 185 185 185
-10.3 -25.3 13.4 183 186 185
21.7 -27.5 14.6 206 206 206
22.0 -27.5 14.6 206 206 206
27.3 -29.1 15.5 205 205 205
26.8 -28.2 15.0 205 205 205
27.1 -28.2 15.0 205 205 205
28.7 -29.4 15.6 205 205 205
29.1 -29.5 15.7 205 205 205
29.8 -27.5 14.6 204 204 204
-37.0 -24.4 13.2 65 65 65
-36.9 -24.5 13.2 65 65 65
-36.5 -24.5 13.2 65 65 65
-36.2 -24.5 13.2 66 66 66
-36.0 -24.6 13.2 66 66 66
-35.7 -24.5 13.2 66 66 66
-35.4 -24.6 13.2 66 66 66
-35.0 -24.5 13.2 66 66 66
-34.7 -24.5 13.2 66 66 66
-34.4 -24.5 13.2 66 66 66
-34.1 -24.5 13.2 63 64 62
-33.8 -24.5 13.2 63 64 62
-33.5 -24.5 13.2 63 64 62
-33.2 -24.5 13.2 63 64 62
-33.0 -24.6 13.2 61 61 61
-32.5 -24.5 13.2 61 61 61
-31.7 -24.5 13.2 57 57 57
-31.3 -24.5 13.2 57 57 57
-31.0 -24.5 13.2 58 58 58
-30.7 -24.5 13.2 58 58 58
-30.4 -24.5 13.2 58 58 58
-30.1 -24.5 13.2 56 55 54
-29.8 -24.5 13.2 56 55 54
-29.5 -24.5 13.2 56 55 54
-29.3 -24.6 13.2 56 55 54
-29.0 -24.6 13.2 57 56 55
-28.6 -24.5 13.2 57 56 55
-28.2 -24.5 13.2 53 53 53
-28.0 -24.6 13.2 57 56 55
-27.7 -24.6 13.2 57 56 55
-27.4 -24.6 13.2 54 54 54
-27.0 -24.5 13.2 54 54 54
-26.6 -24.4 13.2 54 54 54
-26.4 -24.5 13.2 53 52 52
-26.1 -24.5 13.2 53 52 52
-25.8 -24.5 13.2 53 52 52
-25.0 -24.7 13.3 48 48 48
-24.5 -24.5 13.2 51 51 51
-24.2 -24.4 13.2 47 47 47
-23.9 -24.5 13.2 49 49 49
-23.6 -24.5 13.2 43 43 43
-23.4 -24.6 13.2 46 45 43
-23.1 -24.6 13.2 46 46 44
-13.8 -24.5 13.2 104 106 106
-13.5 -24.5 13.2 107 107 107
-13.2 -24.4 13.1 63 63 63
-12.9 -24.5 13.2 97 97 97
-12.5 -24.4 13.1 53 53 53
-11.6 -24.3 13.1 42 43 42
-11.2 -24.2 13.0 83 83 83
-10.9 -24.1 13.0 36 37 36
-10.9 -24.9 13.4 47 47 47
-10.6 -24.9 13.4 184 187 186
27.0 -28.4 15.3 207 207 207
26.8 -27.9 15.0 204 204 204
28.5 -28.2 15.2 205 205 205
28.2 -27.5 14.8 205 205 205
28.5 -27.2 14.6 205 205 205
28.7 -27.0 14.5 205 205 205
29.1 -27.1 14.6 205 205 205
29.5 -27.2 14.6 203 203 203
29.9 -27.2 14.6 199 199 199
30.2 -27.2 14.6 173 175 175
30.7 -27.3 14.7 183 183 183
-36.8 -24.0 13.1 66 66 66
-36.5 -24.0 13.1 66 66 66
-36.2 -24.0 13.1 66 66 66
-35.9 -24.0 13.1 66 66 66
-35.7 -24.0 13.1 66 66 66
-35.3 -24.0 13.1 67 67 67
-35.0 -24.0 13.1 68 70 68
-34.7 -24.0 13.1 67 67 67
-34.4 -24.0 13.1 67 67 67
-34.1 -24.0 13.1 67 67 67
-33.8 -24.0 13.1 67 67 67
-33.5 -24.0 13.1 67 67 67
-33.2 -24.0 13.1 67 67 67
-32.6 -24.0 13.1 65 66 64
-31.9 -23.9 13.0 62 62 62
-31.6 -23.9 13.0 62 62 62
-31.3 -24.0 13.1 58 58 58
-31.0 -24.0 13.1 60 60 60
-30.7 -24.0 13.1 58 59 59
-30.4 -24.0 13.1 58 59 59
-30.1 -24.0 13.1 58 59 59
-29.8 -24.0 13.1 57 56 55
-29.5 -24.0 13.1 57 56 55
-29.2 -24.0 13.1 57 56 55
-28.9 -24.0 13.1 57 57 55
-28.7 -24.1 13.1 57 57 55
-28.3 -24.0 13.1 57 57 55
-28.0 -24.0 13.1 57 57 55
-27.7 -24.0 13.1 57 57 55
-27.5 -24.1 13.1 58 58 56
-27.2 -24.1 13.1 55 55 55
-26.8 -24.0 13.1 58 58 56
-26.4 -23.9 13.0 55 55 55
-26.2 -24.0 13.1 56 56 56
-25.8 -24.0 13.1 56 56 56
-25.3 -24.0 13.1 53 53 53
-24.9 -24.3 13.2 49 49 49
-24.4 -24.0 13.1 52 52 52
-24.0 -23.9 13.0 50 50 50
-23.7 -23.9 13.0 47 48 47
-23.4 -24.0 13.1 46 46 44
-23.2 -24.1 13.1 46 46 44
-23.0 -24.1 13.2 47 46 45
-22.5 -24.0 13.1 44 44 44
-13.8 -24.1 13.1 36 35 34
-13.4 -24.0 13.1 85 84 82
-13.1 -23.9 13.0 84 84 84
-12.9 -24.1 13.1 30 30 30
-12.5 -24.0 13.1 38 38 38
-11.5 -23.9 13.0 51 51 49
-11.2 -23.8 13.0 78 78 78
-10.9 -23.8 12.9 29 31 29
-11.0 -24.7 13.4 52 52 52
-10.6 -24.5 13.3 183 186 185
-10.2 -24.3 13.3 182 185 184
-9.8 -24.1 13.1 180 183 182
28.8 -28.1 15.3 204 204 204
28.6 -27.5 15.0 204 204 204
28.9 -27.5 15.0 204 204 204
28.9 -27.2 14.8 205 205 205
28.8 -26.8 14.6 205 205 205
29.5 -27.1 14.8 205 205 205
29.9 -27.1 14.8 205 205 205
30.2 -27.1 14.8 202 202 202
30.8 -27.4 14.9 168 168 168
31.2 -27.4 15.0 182 182 182
-37.3 -24.0 13.2 67 67 67
-37.0 -24.0 13.2 67 67 67
-36.7 -24.0 13.2 67 67 67
-36.4 -24.0 13.2 67 67 67
-36.1 -24.0 13.2 67 67 67
-35.8 -24.0 13.2 69 71 69
-35.4 -24.0 13.2 67 67 67
-35.1 -24.0 13.2 67 67 67
-34.9 -24.0 13.3 67 67 67
-34.5 -24.0 13.3 67 67 67
-34.2 -24.0 13.2 67 67 67
-33.9 -24.0 13.2 67 67 67
-33.6 -24.0 13.2 67 67 67
-33.3 -24.0 13.2 68 68 68
-33.0 -24.0 13.2 66 67 65
-32.7 -24.0 13.2 66 67 65
-31.8 -24.0 13.2 61 61 61
-31.4 -24.0 13.2 61 61 61
-31.1 -24.0 13.2 57 57 55
-30.8 -24.0 13.2 59 59 59
-30.5 -24.0 13.2 59 59 59
-30.2 -24.0 13.2 57 57 55
-29.9 -24.0 13.2 57 57 55
-29.6 -24.0 13.2 57 57 55
-29.0 -24.0 13.3 60 60 60
-28.7 -24.0 13.2 58 58 56
-28.3 -24.0 13.2 58 58 56
-28.1 -24.0 13.3 59 59 57
-27.8 -24.0 13.3 56 56 56
-27.5 -24.0 13.3 59 59 57
-27.1 -23.9 13.2 56 56 56
-26.7 -23.9 13.2 57 57 57
-26.5 -24.0 13.2 57 57 57
-26.2 -24.0 13.2 54 54 54
-25.9 -24.0 13.3 54 54 54
-25.0 -24.1 13.3 51 51 51
-24.6 -23.9 13.2 51 51 51
-24.1 -24.0 13.2 52 52 52
-23.8 -24.0 13.3 52 52 52
-23.5 -24.0 13.3 49 49 49
-23.1 -24.0 13.3 48 47 46
-13.9 -24.0 13.2 36 36 34
-13.6 -23.9 13.2 93 92 91
-13.2 -23.8 13.1 94 93 92
-12.9 -23.9 13.2 29 29 29
-12.6 -23.8 13.1 133 133 133
-11.6 -23.7 13.1 88 88 88
-11.2 -23.5 13.0 62 64 61
-10.9 -23.5 13.0 46 46 46
-11.0 -24.4 13.5 51 51 51
-10.6 -24.2 13.4 182 185 184
-10.2 -24.1 13.3 181 184 183
-9.9 -24.0 13.3 181 184 183
28.9 -27.9 15.4 206 206 206
29.2 -27.8 15.3 206 206 206
29.5 -27.8 15.3 204 204 204
29.8 -27.0 14.9 204 204 204
30.7 -27.5 15.2 202 202 202
31.3 -27.8 15.3 204 204 204
31.6 -27.7 15.3 166 166 166
31.7 -27.5 15.2 181 181 181
-37.3 -23.7 13.2 67 67 67
-37.0 -23.7 13.3 67 67 67
-36.7 -23.7 13.3 67 67 67
-36.4 -23.7 13.3 67 67 67
-36.1 -23.7 13.3 70 72 69
-35.8 -23.7 13.3 70 72 69
-35.5 -23.7 13.3 70 72 69
-35.2 -23.7 13.3 70 72 69
-34.9 -23.7 13.3 68 68 68
-34.6 -23.7 13.3 68 68 68
-34.2 -23.7 13.3 71 72 70
-33.9 -23.7 13.3 68 68 68
-29.9 -23.7 13.2 58 58 56
-29.6 -23.7 13.2 61 61 61
-27.8 -23.8 13.3 62 62 62
-27.5 -23.7 13.3 57 57 57
-27.1 -23.7 13.2 57 57 57
-26.8 -23.7 13.3 58 58 58
-25.0 -23.8 13.3 56 56 56
-24.7 -23.7 13.2 54 54 54
-23.1 -23.7 13.3 49 48 47
-13.6 -23.7 13.3 131 131 131
-13.0 -23.7 13.3 31 31 31
-12.6 -23.6 13.2 120 122 121
-11.6 -23.5 13.1 39 39 39
-11.2 -24.5 13.7 59 59 59
-10.6 -24.0 13.4 182 185 184
-10.2 -23.8 13.3 180 183 182
-9.9 -23.8 13.3 181 184 183
-9.6 -23.8 13.3 185 185 185
40.1 -39.2 21.9 206 206 206
39.0 -37.6 21.0 206 206 206
29.5 -27.8 15.5 206 206 206
29.9 -27.8 15.5 206 206 206
30.9 -27.4 15.3 204 204 204
31.8 -27.6 15.4 168 168 168
32.0 -27.4 15.3 181 181 181
-11.2 -24.3 13.8 54 54 54
-10.8 -24.0 13.6 181 184 183
-10.4 -23.9 13.6 179 182 181
-10.1 -24.0 13.6 184 184 184
40.2 -38.7 21.9 205 205 205
39.3 -37.4 21.2 205 205 205
39.5 -37.1 21.0 205 205 205
1242.3 -575.7 326.1 114 116 115
-11.4 -24.3 14.0 55 56 54
-10.6 -23.9 13.7 179 182 181
-10.2 -23.8 13.7 179 182 181
56.5 -57.3 32.9 207 207 207
40.7 -38.7 22.2 205 205 205
39.8 -37.4 21.4 205 205 205
40.1 -37.1 21.3 205 205 205
923.7 -422.5 242.5 114 116 115
852.8 -387.7 222.5 111 113 112
14.0 -17.5 10.2 206 206 206
58.5 -58.6 34.1 207 207 207
55.2 -53.8 31.3 207 207 207
41.8 -39.2 22.8 207 207 207
40.4 -36.9 21.5 207 207 207
43.3 -39.1 22.8 208 208 208
43.7 -39.0 22.7 208 208 208
31.6 -25.2 14.6 184 184 184
-16.9 -17.0 10.1 52 52 50
-10.5 -17.0 10.0 85 87 87
-10.3 -17.0 10.0 129 129 129
-10.0 -18.7 11.0 29 29 29
59.7 -59.0 34.8 208 211 210
56.6 -55.1 32.5 208 211 210
55.8 -53.6 31.6 207 207 207
43.7 -39.0 23.0 207 207 207
43.9 -38.6 22.8 207 207 207
31.1 -24.5 14.4 184 184 184
31.3 -24.3 14.3 184 184 184
-16.8 -16.8 10.0 53 52 52
-10.3 -16.7 10.0 33 35 33
57.0 -54.7 32.7 208 211 210
55.8 -52.9 31.6 208 211 210
41.9 -37.3 22.3 204 204 204
43.8 -38.5 23.0 207 207 207
43.7 -38.0 22.7 207 207 207
43.5 -37.3 22.3 207 207 207
30.9 -23.9 14.3 188 188 188
31.2 -23.9 14.3 188 188 188
31.6 -23.9 14.3 185 185 185
-16.9 -16.6 10.1 55 55 55
-15.2 -17.9 10.9 30 29 29
-10.6 -16.6 10.1 36 36 34
-11.2 -18.4 11.2 112 112 112
56.9 -53.9 32.7 208 211 210
55.9 -52.3 31.7 208 211 210
54.5 -50.3 30.5 208 211 210
41.3 -36.2 21.9 209 212 211
44.0 -38.1 23.1 207 207 207
43.3 -37.1 22.5 207 207 207
42.7 -36.1 21.9 207 207 207
31.0 -23.6 14.3 188 188 188
31.2 -23.6 14.3 188 188 188
31.7 -23.7 14.4 188 188 188
57.3 -26.4 16.0 176 176 176
57.7 -26.4 16.0 174 174 174
58.0 -26.4 16.0 174 174 174
-16.9 -16.4 10.1 59 59 59
-14.3 -16.9 10.4 65 65 65
-11.3 -18.3 11.2 113 115 114
-10.8 -25.0 15.4 158 161 160
57.2 -53.4 32.8 207 210 209
56.0 -51.6 31.7 207 210 209
54.3 -49.4 30.4 208 211 210
57.6 -51.8 31.8 208 211 210
55.8 -49.4 30.4 208 211 210
44.5 -38.0 23.4 208 211 210
44.1 -37.2 22.9 209 212 211
31.0 -23.4 14.4 189 189 189
31.2 -23.2 14.3 189 189 189
31.8 -23.4 14.4 189 189 189
70.2 -33.0 20.3 181 181 181
68.6 -32.0 19.7 181 181 181
59.1 -26.7 16.4 176 176 176
57.9 -26.0 16.0 176 176 176
-14.4 -16.7 10.5 94 97 96
-10.0 -17.6 11.0 126 126 126
-11.3 -25.0 15.6 180 180 180
-10.8 -24.8 15.5 159 162 161
-10.4 -24.7 15.4 156 159 158
58.8 -54.1 33.8 207 210 209
56.0 -50.9 31.7 207 210 209
55.4 -49.7 31.0 207 210 209
57.8 -51.2 32.0 207 210 209
55.9 -48.9 30.5 208 211 210
32.2 -24.2 15.1 191 191 191
31.1 -23.1 14.4 191 191 191
31.1 -22.9 14.3 191 191 191
70.3 -32.6 20.3 182 182 182
68.5 -31.5 19.7 182 182 182
59.8 -26.6 16.6 177 177 177
58.2 -25.8 16.1 177 177 177
-15.0 -17.0 10.7 49 49 49
-14.5 -16.7 10.6 121 123 122
-10.0 -17.3 11.0 112 114 113
-11.5 -25.1 15.9 180 180 180
-11.0 -24.9 15.7 166 166 166
56.4 -50.5 32.0 207 210 209
60.4 -53.3 33.8 207 210 209
60.6 -52.9 33.5 207 210 209
32.3 -23.9 15.1 191 191 191
70.5 -32.2 20.4 183 183 183
68.6 -31.1 19.7 183 183 183
60.7 -26.6 16.9 178 178 178
59.1 -25.8 16.3 175 175 175
-15.1 -16.9 10.8 48 48 48
-10.0 -17.1 11.0 36 36 36
-12.5 -26.0 16.7 187 189 189
-11.9 -25.5 16.4 179 179 179
-11.2 -25.0 16.0 169 169 169
56.5 -49.9 32.1 206 209 208
61.3 -52.7 33.8 207 210 209
32.2 -23.5 15.1 191 191 191
31.9 -23.0 14.8 191 191 191
31.4 -22.4 14.4 191 191 191
31.8 -22.5 14.4 191 191 191
79.6 -35.5 22.8 184 184 184
59.8 -25.7 16.5 176 176 176
61.3 -26.0 16.7 163 163 163
-10.0 -16.9 11.0 34 34 34
-12.8 -26.2 17.1 189 189 189
31.9 -22.6 14.8 191 191 191
31.4 -22.0 14.4 192 192 192
31.8 -22.1 14.4 190 190 190
79.7 -35.1 22.9 185 185 185
79.3 -34.6 22.6 185 185 185
61.0 -25.8 16.8 177 177 177
61.6 -25.9 16.9 170 172 172
62.0 -25.9 16.9 162 162 162
456.0 -183.5 119.7 129 132 131
-24.2 -15.2 10.1 48 48 48
-27.1 -17.4 11.5 40 42 42
-14.9 -16.1 10.6 30 29 29
-13.7 -15.3 10.2 32 32 32
-10.5 -17.5 11.6 34 34 34
79.8 -68.3 45.3 208 211 210
81.3 -67.8 44.9 208 211 210
31.6 -21.9 14.5 192 192 192
80.4 -34.8 23.1 186 186 186
79.6 -34.3 22.7 186 186 186
62.1 -25.9 17.1 173 175 175
62.5 -25.9 17.1 170 171 170
62.9 -25.9 17.1 160 163 162
434.0 -172.0 114.0 131 134 133
-50.1 -29.9 20.1 24 24 24
-24.9 -15.0 10.1 26 26 26
-24.7 -15.0 10.1 27 27 27
-24.5 -15.0 10.1 40 42 42
-24.2 -15.0 10.1 54 54 54
-24.0 -15.0 10.1 61 61 61
-42.6 -29.9 20.1 28 28 28
-41.8 -30.0 20.2 41 43 42
-14.1 -15.3 10.3 26 26 26
-13.7 -15.1 10.1 29 29 29
-13.4 -14.9 10.1 33 34 32
-25.2 -30.3 20.4 29 29 29
-24.7 -30.3 20.4 42 42 42
-23.8 -29.8 20.0 43 43 43
82.8 -69.8 46.9 208 211 210
81.1 -67.4 45.4 208 211 210
81.3 -66.8 44.9 208 211 210
74.1 -32.0 21.5 188 188 188
80.7 -34.4 23.2 188 188 188
79.7 -33.8 22.7 188 188 188
77.5 -32.6 21.9 188 188 188
62.6 -25.5 17.2 172 172 172
62.6 -25.4 17.1 161 164 163
423.8 -165.4 111.3 131 134 133
-51.3 -29.9 20.4 16 16 16
-50.8 -29.9 20.4 27 27 27
-50.3 -29.9 20.4 27 27 27
-50.4 -30.1 20.6 26 26 26
-49.9 -30.1 20.6 36 37 36
-49.4 -30.1 20.6 57 57 55
-48.9 -30.1 20.6 74 74 74
-48.4 -30.1 20.6 75 76 76
-47.5 -29.9 20.4 69 69 69
-47.0 -29.9 20.4 46 46 46
-46.5 -29.9 20.4 58 58 56
-46.1 -29.9 20.4 55 55 55
-45.1 -29.9 20.4 97 96 94
-44.6 -29.9 20.4 129 129 129
-44.2 -29.9 20.4 173 175 175
-43.7 -29.9 20.4 62 62 62
-43.2 -29.9 20.4 26 26 26
-42.8 -29.9 20.5 19 23 20
-42.5 -30.0 20.5 7 13 9
-41.9 -29.9 20.5 7 13 9
-25.7 -29.9 20.4 58 59 59
-25.4 -30.1 20.6 36 35 34
-24.8 -30.0 20.5 79 81 79
-24.2 -29.8 20.4 107 107 105
-13.7 -28.6 19.6 178 181 180
87.6 -71.7 49.0 207 210 209
82.3 -66.5 45.5 208 211 210
76.0 -32.6 22.3 189 189 189
74.3 -31.6 21.6 189 189 189
80.7 -33.9 23.2 189 189 189
79.4 -33.1 22.7 189 189 189
77.7 -32.2 22.0 189 189 189
76.9 -31.7 21.6 189 189 189
63.1 -25.3 17.3 168 168 168
62.3 -24.8 17.0 162 162 162
62.5 -24.8 16.9 156 156 156
-30.7 -17.7 12.3 44 43 42
-30.4 -17.7 12.3 153 152 150
-30.1 -17.7 12.3 182 182 182
-29.8 -17.8 12.3 177 177 177
-29.5 -17.7 12.3 131 134 133
-29.3 -17.7 12.3 77 77 77
-29.0 -17.7 12.3 77 77 77
-28.7 -17.7 12.3 83 84 82
-28.4 -17.7 12.3 139 139 139
-28.1 -17.7 12.3 173 175 175
-17.2 -17.7 12.3 22 25 23
-16.9 -17.7 12.3 43 43 43
-16.6 -17.7 12.3 90 92 91
-16.4 -17.7 12.3 20 23 21
-16.1 -17.7 12.3 20 23 21
-15.8 -17.7 12.3 55 55 55
-15.5 -17.7 12.3 102 101 99
-15.2 -17.7 12.3 46 46 46
-14.9 -17.7 12.3 78 80 78
-13.9 -28.5 19.8 173 173 173
-13.5 -28.7 19.9 174 174 174
74.8 -31.3 21.8 190 190 190
79.3 -32.6 22.6 190 190 190
78.2 -31.9 22.2 191 194 193
77.6 -31.5 21.8 186 186 186
63.5 -25.1 17.4 164 167 166
62.9 -24.7 17.1 160 160 160
62.5 -24.4 16.9 156 156 156
62.8 -24.3 16.9 151 153 153
-14.0 -29.3 20.7 159 159 159
-13.8 -29.8 21.0 147 149 149
75.1 -30.9 21.8 192 195 194
77.9 -31.7 22.4 191 191 191
78.5 -31.7 22.4 191 191 191
78.1 -31.3 22.1 191 191 191
77.9 -31.1 21.9 188 188 188
63.1 -24.4 17.2 159 159 159
62.5 -24.0 16.9 153 155 155
62.6 -23.9 16.8 150 150 150
62.4 -23.7 16.7 143 145 144
-15.4 -30.6 22.0 182 185 184
-14.5 -29.9 21.4 181 184 183
-14.3 -30.5 21.9 176 176 176
146.3 -108.5 77.8 208 211 210
139.0 -101.8 73.0 208 211 210
75.4 -30.6 21.9 193 196 195
78.4 -31.3 22.5 192 192 192
79.2 -31.5 22.6 192 192 192
78.6 -31.0 22.3 193 196 195
78.5 -30.8 22.1 189 189 189
79.1 -30.8 22.1 186 186 186
63.7 -24.2 17.4 155 158 157
62.7 -23.7 17.0 154 154 154
62.8 -23.6 16.9 149 149 149
63.0 -23.5 16.9 144 146 146
12.5 -14.5 10.6 210 210 210
12.7 -14.4 10.5 212 213 212
13.5 -14.5 10.6 209 209 209
15.5 -14.5 10.6 204 207 206
16.1 -14.4 10.5 208 208 208
16.2 -14.2 10.4 208 208 208
165.4 -120.5 88.0 207 210 209
209.5 -147.3 107.5 208 211 210
187.5 -130.2 95.1 208 211 210
76.9 -30.6 22.4 194 197 196
79.9 -31.4 22.9 194 197 196
80.0 -31.3 22.8 193 193 193
79.7 -30.9 22.6 193 193 193
79.5 -30.6 22.4 190 190 190
81.0 -31.0 22.7 188 188 188
81.7 -31.1 22.7 178 181 180
63.4 -23.5 17.2 153 153 153
63.3 -23.3 17.0 139 141 140
63.4 -23.2 17.0 132 135 134
12.5 -14.2 10.6 210 210 210
12.6 -14.1 10.5 210 210 210
13.4 -14.2 10.5 209 209 209
13.6 -14.1 10.5 209 209 209
15.2 -14.2 10.6 208 208 208
15.4 -14.2 10.6 208 208 208
16.1 -14.2 10.5 207 207 207
181.0 -131.3 97.5 211 211 211
183.3 -131.3 97.5 211 211 211
191.4 -130.7 97.0 214 214 214
80.6 -31.1 23.1 195 198 197
80.8 -31.0 23.0 194 194 194
80.2 -30.6 22.7 191 191 191
79.5 -30.2 22.4 191 191 191
81.8 -30.8 22.9 186 186 186
82.8 -31.0 23.0 179 179 179
63.9 -23.2 17.2 136 138 137
-24.5 -13.4 10.1 166 166 166
-24.3 -13.4 10.1 107 109 109
-24.0 -13.4 10.1 44 43 42
-23.8 -13.4 10.1 47 47 47
-16.7 -13.4 10.1 205 208 207
-16.5 -13.4 10.1 211 211 211
-16.0 -13.4 10.1 203 203 203
-14.4 -13.4 10.1 98 98 98
-14.1 -13.4 10.1 133 133 133
-13.9 -13.4 10.1 33 32 30
-13.7 -13.4 10.1 47 48 47
-17.4 -33.9 25.6 175 177 177
-17.1 -34.6 26.2 172 172 172
11.8 -13.7 10.4 210 210 210
12.0 -13.7 10.4 210 210 210
12.4 -13.8 10.5 209 209 209
12.6 -13.8 10.5 209 209 209
12.7 -13.7 10.4 209 209 209
12.9 -13.6 10.3 209 209 209
13.3 -13.8 10.4 209 209 209
13.5 -13.8 10.4 209 209 209
13.6 -13.6 10.3 208 208 208
13.8 -13.5 10.2 208 208 208
14.7 -13.7 10.4 208 208 208
15.0 -13.8 10.4 208 208 208
15.3 -13.8 10.5 207 207 207
15.3 -13.7 10.3 207 207 207
16.0 -13.8 10.5 207 207 207
16.0 -13.7 10.3 207 207 207
188.8 -134.6 101.7 211 211 211
189.1 -133.2 100.6 211 211 211
569.3 -391.2 295.6 212 213 212
682.9 -463.7 350.3 212 213 212
611.8 -410.5 310.1 212 213 212
410.4 -272.1 205.6 214 214 214
270.9 -177.6 134.2 214 214 214
215.8 -139.9 105.7 209 212 211
164.2 -74.3 56.1 190 192 192
151.6 -68.0 51.4 191 191 191
81.3 -30.9 23.3 182 185 184
81.3 -30.7 23.2 188 188 188
81.3 -30.5 23.0 180 183 182
82.8 -30.6 23.2 180 180 180
84.8 -31.2 23.6 169 169 169
84.6 -30.9 23.4 164 164 164
-24.4 -13.2 10.2 96 95 94
-24.1 -13.2 10.2 47 47 47
-23.9 -13.2 10.2 35 35 35
-23.7 -13.2 10.2 23 23 23
-23.4 -13.2 10.2 20 23 21
-22.5 -13.2 10.2 47 47 47
-22.3 -13.2 10.2 91 91 91
-16.6 -13.2 10.2 211 211 211
-16.3 -13.2 10.2 215 215 215
-16.1 -13.2 10.2 151 151 151
-15.8 -13.2 10.2 85 86 84
-15.6 -13.2 10.2 25 25 25
-15.4 -13.2 10.2 25 25 25
-15.2 -13.2 10.2 77 78 76
-14.9 -13.2 10.2 105 105 103
-14.5 -13.2 10.2 86 88 88
-14.2 -13.2 10.2 120 120 120
-14.0 -13.2 10.2 40 40 40
-17.9 -34.5 26.5 145 147 147
-17.6 -34.9 26.9 90 90 90
-17.5 -36.1 27.7 89 91 90
-16.4 -35.0 26.9 57 59 59
-15.6 -34.7 26.7 40 40 40
12.7 -13.2 10.2 209 209 209
13.4 -13.2 10.1 208 208 208
13.7 -13.2 10.2 208 208 208
14.5 -13.3 10.2 207 207 207
15.3 -13.6 10.5 207 207 207
15.1 -13.3 10.2 209 209 209
15.3 -13.2 10.1 209 209 209
16.0 -13.6 10.5 209 209 209
15.9 -13.3 10.3 207 207 207
204.4 -141.4 108.7 211 211 211
768.3 -512.5 394.1 212 213 212
632.5 -416.9 320.6 212 213 212
265.3 -170.8 131.4 214 214 214
219.5 -139.8 107.5 217 217 217
81.3 -30.1 23.2 180 180 180
86.4 -31.2 24.0 152 152 152
87.3 -31.3 24.1 139 141 140
-18.1 -34.2 26.8 132 132 132
-18.1 -35.3 27.6 90 90 90
-17.5 -35.4 27.7 89 89 89
-16.5 -34.6 27.1 59 59 59
16.0 -13.4 10.5 209 209 209
15.9 -12.9 10.1 209 209 209
204.4 -138.8 108.7 211 211 211
666.4 -431.4 337.8 212 213 212
215.8 -135.0 105.7 208 211 210
-18.6 -35.6 28.4 94 94 94
-17.8 -35.3 28.2 89 91 90
-17.0 -35.1 28.0 80 83 82
15.8 -12.6 10.0 209 209 209
423.1 -285.8 227.9 214 214 214
666.4 -423.5 337.8 212 213 212
419.5 -263.5 210.2 212 213 212
272.8 -169.4 135.1 214 214 214
187.9 -114.0 90.9 214 214 214
-19.5 -36.8 29.9 91 94 93
-18.2 -35.6 28.9 90 92 91
306.5 -200.7 163.1 214 214 214
666.4 -415.7 337.8 216 216 216
272.8 -166.3 135.1 216 216 216
219.5 -132.3 107.5 214 214 214
187.0 -111.4 90.5 214 214 214
-21.5 -38.4 31.8 132 132 132
-19.9 -36.7 30.4 94 94 94
-18.6 -35.7 29.6 89 91 90
215.8 -127.6 105.7 217 217 217
185.2 -108.2 89.7 208 211 210
43.1 -22.2 18.4 206 206 206
50.9 -17.0 14.1 108 108 108
51.2 -17.0 14.1 109 111 111
51.4 -16.9 14.0 109 111 111
45.0 -14.4 12.0 101 103 103
44.8 -14.3 11.8 90 92 91
-36.6 -15.4 13.0 100 99 97
-35.4 -15.4 13.0 160 163 162
-35.1 -15.4 13.0 204 207 206
-34.8 -15.4 13.0 163 166 165
-34.4 -15.4 13.0 183 183 183
-34.2 -15.4 13.0 188 190 190
-33.9 -15.4 13.0 198 198 198
-33.6 -15.4 13.0 180 183 182
-33.3 -15.4 13.0 69 69 69
-33.0 -15.4 13.0 72 72 72
-32.7 -15.4 13.0 78 80 78
-32.3 -15.4 13.0 75 77 75
-31.1 -15.4 13.0 29 31 29
-30.8 -15.4 13.0 32 31 30
-30.5 -15.4 13.0 25 25 25
-30.2 -15.4 13.0 17 21 18
-29.9 -15.4 13.0 17 21 18
-29.6 -15.4 13.0 23 23 23
-29.4 -15.4 13.0 110 110 110
-29.0 -15.4 13.0 148 150 150
-28.7 -15.4 13.0 146 146 146
-28.1 -15.4 13.0 148 150 150
-27.8 -15.4 13.0 150 152 152
-27.5 -15.4 13.0 126 129 128
-26.3 -15.4 13.0 125 125 125
-23.9 -15.4 13.0 44 44 44
-23.6 -15.4 13.0 56 55 54
-23.3 -15.4 13.0 56 55 54
-23.0 -15.4 13.0 53 52 52
-22.7 -15.4 13.0 53 52 52
-22.4 -15.4 13.0 53 52 52
-22.1 -15.4 13.0 53 52 52
-21.8 -15.4 13.0 48 48 48
-21.5 -15.4 13.0 47 47 47
-21.2 -15.4 13.0 40 40 40
-20.9 -15.4 13.0 31 30 29
-20.6 -15.4 13.0 33 33 33
-20.3 -15.4 13.0 83 84 82
-20.0 -15.4 13.0 27 29 27
-19.7 -15.4 13.0 57 57 57
-17.9 -15.4 13.0 38 40 40
-17.6 -15.4 13.0 79 79 79
-16.9 -15.4 13.0 108 108 108
-16.7 -15.4 13.0 40 40 40
-16.4 -15.4 13.0 27 28 26
-16.0 -15.4 13.0 21 21 21
-21.8 -38.2 32.2 126 129 128
-20.4 -37.0 31.2 97 97 97
-19.0 -35.7 30.2 92 92 92
15.3 -12.4 10.5 209 209 209
15.4 -12.3 10.4 208 208 208
179.2 -102.8 86.8 217 217 217
42.5 -21.5 18.1 206 206 206
51.2 -16.6 14.0 105 105 105
51.1 -16.5 13.9 102 104 104
50.8 -16.3 13.8 100 102 102
45.3 -14.3 12.0 69 68 67
44.8 -14.0 11.8 64 64 64
-36.6 -15.1 13.0 133 133 133
-36.3 -15.1 13.0 77 78 76
-36.0 -15.1 13.0 58 58 58
-35.7 -15.1 13.0 117 119 118
-35.4 -15.1 13.0 203 203 203
-35.1 -15.1 13.0 140 140 140
-34.8 -15.1 13.0 136 138 137
-34.5 -15.1 13.0 183 183 183
-34.2 -15.1 13.0 192 192 192
-33.9 -15.1 13.0 194 197 196
-33.6 -15.1 13.0 207 210 209
-33.3 -15.1 13.0 55 54 53
-33.0 -15.1 13.0 80 82 79
-32.7 -15.1 13.0 78 80 78
-32.3 -15.1 13.0 74 74 74
-32.0 -15.1 13.0 75 77 75
-31.7 -15.1 13.0 87 89 88
-31.5 -15.1 13.0 105 105 105
-31.2 -15.1 13.0 104 104 104
-30.8 -15.1 13.0 102 101 99
-30.5 -15.1 13.0 103 103 103
-30.3 -15.1 13.0 66 66 66
-29.9 -15.1 13.0 25 25 25
-29.6 -15.1 13.0 17 21 18
-29.4 -15.1 13.0 99 99 99
-29.0 -15.1 13.0 146 146 146
-28.7 -15.1 13.0 170 172 172
-28.5 -15.1 13.0 148 150 150
-28.1 -15.1 13.0 170 172 172
-27.8 -15.1 13.0 126 128 127
-27.5 -15.1 13.0 96 96 96
-27.2 -15.1 13.0 116 118 117
-26.9 -15.1 13.0 130 130 130
-26.6 -15.1 13.0 133 133 133
-26.3 -15.1 13.0 133 133 133
-26.0 -15.1 13.0 106 108 108
-25.4 -15.1 13.0 66 66 66
-25.1 -15.1 13.0 73 73 73
-24.8 -15.1 13.0 61 61 61
-24.5 -15.1 13.0 56 55 54
-23.9 -15.1 13.0 53 52 52
-23.6 -15.1 13.0 53 52 52
-23.3 -15.1 13.0 57 57 57
-23.0 -15.1 13.0 56 55 54
-22.7 -15.1 13.0 56 55 54
-22.4 -15.1 13.0 56 55 54
-22.1 -15.1 13.0 53 52 52
-21.8 -15.1 13.0 53 52 52
-21.5 -15.1 13.0 51 51 51
-21.2 -15.1 13.0 45 45 45
-20.9 -15.1 13.0 27 29 27
-20.6 -15.1 13.0 15 15 15
-20.3 -15.1 13.0 41 41 41
-20.0 -15.1 13.0 62 64 61
-18.2 -15.1 13.0 31 30 29
-17.9 -15.1 13.0 47 48 47
-17.6 -15.1 13.0 38 38 38
-17.3 -15.1 13.0 34 34 34
-16.9 -15.1 13.0 34 34 34
-16.4 -15.1 13.0 33 33 33
-16.1 -15.1 13.0 32 32 32
-24.4 -40.5 34.9 165 165 165
15.4 -12.4 10.7 209 209 209
15.4 -12.3 10.6 209 209 209
15.4 -12.1 10.4 212 213 212
145.3 -80.7 69.5 176 179 178
42.6 -21.1 18.2 206 206 206
41.1 -20.1 17.4 206 206 206
43.1 -20.2 17.4 118 118 118
51.1 -16.3 14.0 100 100 100
50.8 -16.1 13.8 95 95 95
50.5 -15.9 13.7 90 90 90
45.3 -13.9 12.0 77 77 77
45.9 -14.0 12.0 159 159 159
-23.6 -14.8 13.0 73 73 73
-23.3 -14.8 13.0 62 64 61
-22.7 -14.8 13.0 62 64 61
-22.4 -14.8 13.0 62 64 61
-22.1 -14.8 13.0 61 61 61
-21.8 -14.8 13.0 53 53 53
-23.4 -42.3 37.2 96 99 98
-22.5 -42.2 37.1 79 82 81
15.4 -12.0 10.5 212 213 212
15.3 -11.8 10.3 212 213 212
40.9 -19.7 17.3 206 206 206
41.5 -19.0 16.7 111 113 112
51.2 -16.0 14.1 95 95 95
51.1 -15.8 13.9 85 85 85
50.6 -15.6 13.7 71 71 71
46.5 -13.9 12.2 152 152 152
-35.2 -14.2 12.7 152 152 152
-34.9 -14.2 12.7 94 94 94
-34.6 -14.2 12.7 134 136 135
-34.3 -14.2 12.7 105 105 103
-34.0 -14.2 12.7 26 26 26
-33.7 -14.2 12.7 75 77 75
-33.4 -14.2 12.7 110 112 111
-33.2 -14.2 12.7 140 140 140
-32.9 -14.2 12.7 100 100 100
-32.5 -14.2 12.7 67 68 66
-32.2 -14.2 12.7 75 75 75
-31.9 -14.2 12.7 78 80 78
-31.7 -14.2 12.7 80 82 79
-31.4 -14.2 12.7 84 84 84
-31.1 -14.2 12.7 87 88 86
-30.8 -14.2 12.7 161 160 158
-30.5 -14.2 12.7 157 157 157
-30.2 -14.2 12.7 155 155 155
-29.9 -14.2 12.7 157 157 157
-29.6 -14.2 12.7 180 180 180
-29.3 -14.2 12.7 197 197 197
-29.0 -14.2 12.7 143 143 142
-28.7 -14.2 12.7 13 13 13
-28.4 -14.2 12.7 2 7 3
-28.1 -14.2 12.7 13 13 13
-27.7 -14.1 12.7 26 26 26
-27.5 -14.1 12.7 84 84 84
-27.2 -14.2 12.7 134 134 134
-26.9 -14.2 12.7 146 146 146
-26.6 -14.1 12.7 39 39 39
-26.3 -14.2 12.7 36 37 36
-26.1 -14.2 12.7 39 41 41
-26.0 -14.3 12.8 34 34 34
-25.5 -14.2 12.7 62 62 62
-25.1 -14.1 12.7 39 41 41
-24.9 -14.2 12.7 67 67 67
-24.6 -14.2 12.7 72 72 72
-24.3 -14.2 12.7 59 59 59
-24.0 -14.2 12.7 90 90 90
-23.7 -14.2 12.7 166 169 168
-23.4 -14.2 12.7 155 155 155
-23.1 -14.2 12.7 154 154 154
-22.8 -14.2 12.7 157 157 157
-22.5 -14.2 12.7 95 94 93
-22.2 -14.2 12.7 53 53 53
-21.9 -14.2 12.7 86 88 88
-21.6 -14.2 12.7 139 139 139
-21.3 -14.2 12.7 139 139 139
-21.1 -14.2 12.7 172 174 174
-20.7 -14.2 12.7 226 226 226
-20.4 -14.1 12.7 232 232 232
-20.1 -14.2 12.7 229 229 229
-19.8 -14.2 12.7 226 226 226
-19.5 -14.2 12.7 225 225 225
-11.6 -14.2 12.7 33 33 33
-11.3 -14.2 12.7 31 31 31
-11.0 -14.1 12.7 34 36 36
-24.1 -42.7 38.3 95 98 97
-23.2 -42.6 38.2 102 104 104
15.2 -11.4 10.3 209 209 209
41.1 -19.3 17.3 206 206 206
40.9 -18.3 16.4 118 118 118
51.2 -15.7 14.0 81 84 83
51.1 -15.5 13.9 77 77 77
50.8 -15.3 13.8 74 74 74
46.9 -13.7 12.3 153 155 155
-23.3 -11.7 10.7 20 23 21
-18.1 -11.8 10.8 217 220 219
-9.7 -12.0 11.0 33 33 33
-9.4 -11.9 10.9 35 37 36
-9.0 -11.7 10.7 49 49 49
-8.8 -11.7 10.8 203 203 203
-26.9 -44.9 41.1 96 99 98
-25.1 -43.5 39.8 101 101 101
-24.0 -43.2 39.6 107 107 107
-24.1 -45.0 41.2 13 13 13
42.8 -19.9 18.3 205 205 205
41.9 -18.4 16.9 115 114 114
50.8 -15.2 13.9 109 109 109
50.9 -15.1 13.9 79 81 80
50.8 -15.0 13.7 75 76 76
51.8 -15.2 13.9 77 77 77
51.7 -15.1 13.8 77 77 77
-28.4 -46.4 43.5 96 99 98
-25.9 -43.8 41.0 101 101 101
-24.9 -43.8 41.0 110 110 110
-24.7 -45.1 42.2 7 13 9
42.2 -18.3 17.2 198 198 198
42.0 -18.0 16.9 115 115 115
50.5 -14.7 13.8 89 89 89
50.6 -14.6 13.7 79 82 81
51.5 -14.7 13.8 79 82 81
-29.6 -47.3 45.3 95 98 97
-27.5 -45.5 43.6 101 101 101
-26.3 -45.3 43.4 114 116 115
42.2 -17.9 17.2 204 204 204
41.7 -17.6 16.8 116 116 116
-39.9 -72.6 71.1 30 29 29
309.7 -149.8 146.6 194 194 194
-41.5 -71.0 71.1 46 46 46
-41.0 -72.9 73.0 20 20 20
814.1 -393.4 394.1 221 221 221
362.5 -173.2 173.5 181 181 181
314.6 -148.7 148.9 194 194 194
269.3 -125.9 126.1 200 200 200
-42.2 -67.8 69.5 112 112 112
-41.4 -69.1 70.8 47 48 47
-41.6 -72.3 74.2 20 20 20
15.4 -10.4 10.7 217 220 219
15.6 -10.4 10.7 217 220 219
376.3 -175.6 180.2 182 182 182
230.8 -105.4 108.1 198 198 198
219.5 -99.2 101.7 200 200 200
-45.2 -70.9 74.5 107 107 107
-43.2 -70.3 73.9 31 31 31
-42.9 -72.9 76.6 20 20 20
11.6 -9.5 10.0 218 218 218
15.4 -9.9 10.4 217 220 219
224.5 -101.1 106.3 196 196 196
226.9 -101.1 106.3 198 198 198
212.7 -93.8 98.5 200 200 200
-46.5 -71.1 76.6 108 108 108
-43.8 -69.7 75.1 29 29 29
-41.9 -69.4 74.8 20 20 20
-42.0 -72.6 78.2 158 158 158
159.6 -278.8 300.3 223 225 225
11.6 -9.3 10.0 219 222 221
222.0 -97.6 105.1 184 184 184
226.9 -98.7 106.3 200 200 200
-51.1 -76.1 84.1 108 108 108
-48.2 -74.8 82.6 27 27 27
-45.1 -72.9 80.5 20 20 20
90.5 -147.6 163.1 223 225 225
229.5 -97.3 107.5 198 198 198
175.7 -67.2 74.2 203 203 203
-13.2 -10.2 11.5 34 34 34
-12.4 -10.2 11.6 35 35 35
-54.7 -82.6 93.6 30 30 30
-52.8 -83.0 94.1 35 34 33
-54.1 -88.7 100.6 165 165 165
237.6 -98.1 111.3 198 198 198
-13.2 -9.9 11.6 34 34 34
-12.9 -9.9 11.5 34 34 34
-12.4 -9.9 11.6 36 36 36
-12.2 -10.0 11.6 35 35 35
240.4 -96.7 112.6 195 195 195
232.0 -92.3 107.5 199 199 199
193.9 -70.3 81.9 205 205 205
-14.8 -10.8 13.0 33 33 31
-143.5 -205.3 245.7 23 24 23
-136.0 -202.6 242.5 26 25 24
197.3 -69.6 83.3 203 203 203
-212.2 -307.3 378.3 27 27 27
216.4 -75.0 92.3 202 202 202
209.3 -71.8 88.4 202 202 202
84.0 -119.4 151.3 225 227 227
233.5 -86.3 109.3 183 183 183
227.4 -76.5 97.0 204 204 204
244.8 -87.8 114.6 166 166 166
234.7 -83.2 108.7 195 195 195
252.0 -82.3 107.5 202 202 202
252.5 -87.8 118.2 159 159 159
237.4 -81.7 110.0 189 189 189
252.0 -79.8 107.5 202 202 202
15.6 -7.7 10.7 218 221 220
237.4 -79.1 110.0 189 189 189
15.6 -7.4 10.7 218 221 220
15.5 -7.3 10.4 218 221 220
15.5 -7.2 10.3 218 221 220
18.6 -7.3 10.4 219 222 221
246.0 -79.3 114.0 181 181 181
15.5 -7.0 10.4 218 221 220
15.5 -6.9 10.3 218 221 220
16.6 -6.8 10.1 222 224 224
18.5 -7.0 10.4 219 222 221
18.4 -6.8 10.2 219 222 221
231.0 -66.3 98.5 200 200 200
359.4 -245.7 378.3 220 220 220
15.4 -6.8 10.4 219 222 221
15.4 -6.6 10.2 219 222 221
16.5 -6.5 10.0 219 222 221
18.4 -6.7 10.3 220 223 222
18.4 -6.6 10.2 220 223 222
226.3 -62.7 96.5 200 200 200
219.6 -60.2 92.7 204 204 204
201.1 -236.9 378.3 223 225 225
332.8 -219.4 350.3 218 218 218
18.3 -6.4 10.2 220 223 222
18.4 -6.4 10.2 220 223 222
214.3 -56.7 90.5 204 204 204
190.0 -49.8 79.5 205 205 205
21.4 -7.2 11.9 222 224 224
18.2 -6.1 10.0 222 224 224
20.4 -6.7 11.1 222 224 224
22.4 -7.2 11.9 222 224 224
224.0 -57.6 95.5 202 202 202
211.3 -53.8 89.2 204 204 204
196.7 -49.6 82.2 205 205 205
191.1 -47.7 79.1 202 202 202
21.3 -6.9 11.9 222 224 224
22.4 -6.9 11.9 222 224 224
216.4 -53.5 92.3 202 202 202
203.6 -49.9 86.0 202 202 202
195.8 -47.5 81.9 205 205 205
187.9 -45.1 77.8 197 197 197
18.5 -5.8 10.4 222 224 224
20.6 -6.2 11.2 223 225 225
20.4 -6.1 11.0 223 225 225
22.2 -6.6 11.8 223 225 225
217.4 -51.6 92.7 202 202 202
202.7 -47.6 85.6 202 202 202
192.5 -44.8 80.5 203 203 203
185.7 -42.8 76.9 195 195 195
234.8 -52.1 93.6 71 73 73
20.3 -5.8 10.9 222 222 222
22.1 -6.3 11.8 223 225 225
21.9 -6.1 11.5 223 225 225
226.3 -51.5 96.5 202 202 202
205.5 -46.3 86.8 203 203 203
196.7 -43.9 82.2 205 205 205
228.0 -48.5 90.9 72 74 74
19.2 -5.6 10.9 222 222 222
19.0 -5.4 10.7 222 222 222
20.4 -5.7 11.2 222 222 222
20.2 -5.6 10.9 222 222 222
22.1 -6.0 11.8 224 226 226
226.3 -49.2 96.5 203 203 203
203.6 -43.9 86.0 203 203 203
200.1 -42.7 83.7 203 203 203
177.0 -37.4 73.3 200 200 200
255.4 -52.4 102.8 124 124 124
230.2 -46.8 91.8 71 71 71
19.1 -5.3 10.9 224 224 224
18.8 -5.1 10.5 224 224 224
20.2 -5.3 10.9 224 224 224
19.9 -5.2 10.6 224 224 224
222.9 -46.3 95.1 200 200 200
200.0 -41.1 84.4 203 203 203
190.8 -38.9 79.8 203 203 203
173.0 -34.9 71.7 198 198 198
169.5 -33.9 69.5 222 222 222
225.9 -43.9 90.1 65 65 65
207.2 -39.9 81.9 60 63 62
189.4 -36.1 74.2 66 66 66
15.5 -4.8 10.5 220 220 220
16.5 -4.6 10.0 224 224 224
18.8 -4.9 10.5 224 224 224
18.4 -4.7 10.2 224 224 224
20.2 -5.0 10.9 224 224 224
215.3 -42.2 90.9 203 203 203
201.0 -39.0 84.1 203 203 203
317.5 -59.3 127.8 124 124 124
243.2 -45.0 97.0 47 48 47
15.5 -4.6 10.5 218 218 218
17.2 -4.9 11.1 220 220 220
18.4 -4.5 10.2 221 221 221
15.5 -4.4 10.5 218 218 218
23.2 -3.0 11.9 224 224 224
23.7 -3.0 11.9 226 226 226
23.1 -2.7 11.9 224 224 224
23.6 -2.7 11.8 224 224 224
23.0 -2.4 11.7 225 225 225
994.9 -71.3 386.0 70 70 70
496.9 -35.3 191.1 78 78 78
591.2 -39.2 242.5 226 226 226
696.4 -43.6 270.2 74 74 74
565.4 -35.1 217.4 74 74 74
695.5 -36.4 225.2 51 51 51
606.7 -34.4 248.9 215 215 215
696.4 -37.3 270.2 71 71 71
565.4 -30.0 217.4 72 72 72
712.5 -31.9 230.7 50 50 50
23.4 -1.3 11.6 224 224 224
542.5 -25.6 222.5 214 214 214
594.5 -26.5 230.7 72 72 72
473.0 -20.9 181.9 66 66 66
263.5 -11.4 99.6 60 60 60
628.2 -23.4 203.4 50 50 50
639.8 -23.6 205.6 36 37 36
23.7 -1.1 11.7 220 223 222
485.4 -18.3 199.1 215 215 215
334.9 -12.5 136.1 177 180 179
518.6 -18.5 201.2 68 71 70
420.4 -14.8 161.7 64 64 64
254.2 -8.8 96.0 59 59 57
616.8 -18.5 201.2 52 52 52
602.3 -17.9 195.0 48 48 48
600.6 -17.7 193.0 35 35 35
23.7 -0.8 11.7 220 223 222
363.7 -10.1 147.8 164 164 164
529.9 -14.1 205.6 75 76 76
399.9 -10.5 153.8 68 70 69
367.6 -9.6 140.1 60 60 60
267.7 -6.9 101.2 59 59 57
596.1 -13.2 193.0 112 114 113
600.6 -13.2 193.0 105 105 105
22.0 -0.5 11.0 222 224 224
22.6 -0.5 10.9 222 224 224
370.4 -6.4 141.2 61 61 61
22.0 -0.2 11.0 222 224 224
22.2 -0.2 11.0 222 224 224
22.5 -0.2 11.0 219 222 221
22.4 -0.2 10.8 219 219 219
22.3 0.0 10.8 227 227 227
919.8 0.5 356.9 49 49 49
955.9 9.1 370.9 46 46 44
1237.1 9.5 386.0 206 209 208
955.9 17.7 370.9 47 46 45
1262.9 18.8 394.1 218 218 218
93.6 1.2 24.9 88 88 88
89.1 1.1 23.5 92 92 92
496.9 13.6 191.1 51 51 51
1253.8 28.0 394.1 220 220 220
88.9 1.7 23.6 89 89 89
86.6 1.6 22.9 90 90 90
459.7 16.7 176.8 52 52 52
80.8 2.1 21.9 90 90 90
80.9 2.1 21.8 87 87 87
80.7 2.0 21.6 87 87 87
82.1 2.1 21.8 87 87 87
82.9 2.1 21.9 79 79 79
81.9 2.0 21.5 172 172 172
81.4 2.6 22.0 90 90 90
81.5 2.6 21.9 88 88 88
81.7 2.6 21.8 88 88 88
82.8 2.6 22.0 91 91 91
83.5 2.6 22.0 91 91 91
82.1 2.5 21.5 156 156 156
83.8 3.2 22.7 87 86 84
83.6 3.2 22.5 89 89 89
83.9 3.2 22.4 89 89 89
85.0 3.2 22.6 92 92 92
85.9 3.2 22.7 96 99 98
87.3 3.8 23.1 96 99 98
87.7 4.3 23.2 97 100 99
100.9 5.0 26.5 80 80 80
101.9 5.6 26.8 90 90 90
101.6 6.9 26.7 171 173 173
98.1 6.6 25.6 165 168 167
87.9 6.5 23.2 121 121 121
101.1 7.4 26.5 126 129 128
97.2 7.1 25.4 164 164 164
101.2 8.1 26.6 135 135 135
97.3 7.7 25.4 150 150 150
102.3 8.8 26.9 142 144 143
99.6 8.5 26.0 150 152 152
-17.4 4.6 11.5 18 18 18
-17.5 4.9 11.6 17 17 17
-17.1 4.8 11.5 26 26 26
-16.8 4.8 11.5 88 88 88
-17.6 5.7 11.6 17 17 17
-51.7 23.3 43.5 226 226 226
-124.2 25.7 46.0 144 144 144
-122.1 25.7 46.0 139 139 139
-117.0 25.8 46.1 137 139 138
-116.0 25.8 46.1 144 144 144
-109.0 25.7 45.9 105 107 107
-107.7 25.6 45.8 126 128 127
-106.9 25.7 45.9 169 169 169
-103.4 25.6 45.8 44 43 42
-66.3 25.7 45.9 117 117 117
-65.6 25.8 46.1 117 117 117
-65.9 26.4 47.2 113 114 113
-55.6 25.7 45.9 226 226 226
-55.4 26.0 46.6 229 232 231
-284.5 114.7 197.0 124 124 124
-246.6 101.1 173.5 120 122 121
-198.8 82.8 142.2 100 102 102
-241.3 116.0 199.1 218 221 220
-341.4 143.2 236.5 134 136 135
-277.1 118.1 195.0 125 125 125
-378.7 179.0 295.6 77 77 77
-344.9 166.0 274.1 166 166 166
-301.6 150.7 248.9 77 80 79
-559.9 266.1 394.1 238 238 238
178.3 260.7 386.0 75 75 75
-419.9 206.5 295.6 224 226 226
168.0 254.1 363.8 77 77 77
-845.4 216.7 300.3 87 86 84
-812.6 210.1 291.0 88 88 86
-805.8 210.1 291.0 88 88 86
-799.0 210.1 291.0 90 90 90
-792.3 210.1 291.0 95 98 97
-785.5 210.1 291.0 115 114 114
-778.8 210.1 291.0 120 122 121
-772.0 210.1 291.0 120 122 121
-765.2 210.1 291.0 119 121 120
-758.5 210.1 291.0 118 118 118
-751.7 210.1 291.0 119 121 120
-744.9 210.1 291.0 120 122 121
-738.2 210.1 291.0 122 124 123
-731.4 210.1 291.0 123 125 124
-724.6 210.1 291.0 126 126 126
-717.9 210.1 291.0 126 126 126
-711.1 210.1 291.0 127 127 127
-704.3 210.1 291.0 124 126 125
-697.6 210.1 291.0 124 127 126
-690.8 210.1 291.0 128 128 128
-673.7 206.9 286.6 136 138 137
-667.0 206.9 286.6 143 143 142
-660.4 206.9 286.6 177 180 179
-663.8 210.1 291.0 124 126 125
-647.0 206.9 286.6 120 120 120
-660.4 213.3 295.6 121 121 121
-663.9 216.7 300.3 121 121 121
-646.7 213.3 295.6 124 124 124
-639.8 213.3 295.6 126 128 127
-623.2 210.1 291.0 131 131 131
-607.1 206.9 286.6 133 133 133
-582.7 200.8 278.2 135 135 135
-612.3 213.3 295.6 137 137 137
-605.4 213.3 295.6 137 137 137
-589.4 210.1 291.0 139 141 140
-582.6 210.1 291.0 138 140 139
-584.8 213.3 295.6 138 140 139
-569.1 210.1 291.0 138 140 139
-562.3 210.1 291.0 136 136 136
-555.5 210.1 291.0 134 134 134
-540.5 206.9 286.6 130 130 130
-533.8 206.9 286.6 130 130 130
-543.6 213.3 295.6 124 127 126
-512.7 203.8 282.3 126 129 128
-484.4 195.1 270.2 124 127 126
-509.3 213.3 295.6 123 123 123
-494.7 210.1 291.0 120 120 120
-487.9 210.1 291.0 118 118 118
-481.1 210.1 291.0 115 117 116
-474.4 210.1 291.0 113 115 114
-467.6 210.1 291.0 113 115 114
-460.8 210.1 291.0 103 105 105
-454.1 210.1 291.0 136 138 137
-447.3 210.1 291.0 210 210 210
-440.5 210.1 291.0 230 233 232
-433.8 210.1 291.0 208 208 208
-420.5 206.9 286.6 150 152 152
-407.7 203.8 282.3 177 180 179
-389.5 197.9 274.1 150 152 152
-388.8 200.8 278.2 132 132 132
-406.2 213.3 295.6 182 182 182
-381.5 203.8 282.3 145 145 144
-380.6 206.9 286.6 143 143 142
-411.3 227.6 315.3 147 149 149
-372.9 210.1 291.0 154 154 154
-366.1 210.1 291.0 154 154 154
-365.0 213.3 295.6 154 154 154
-352.6 210.1 291.0 67 68 66
-345.8 210.1 291.0 22 25 23
-339.1 210.1 291.0 29 31 29
-332.3 210.1 291.0 93 93 93
-325.5 210.1 291.0 21 21 21
-318.8 210.1 291.0 13 17 14
-312.0 210.1 291.0 25 25 25
-314.9 216.7 300.3 27 28 26
-308.0 216.7 300.3 83 82 80
-296.3 213.3 295.6 153 153 153
-294.0 216.7 300.3 161 161 161
-282.5 213.3 295.6 173 175 175
-271.4 210.1 291.0 86 86 86
-264.7 210.1 291.0 163 163 163
-257.9 210.1 291.0 155 158 157
-251.1 210.1 291.0 128 128 128
-244.4 210.1 291.0 109 109 109
-237.6 210.1 291.0 100 100 100
-165.8 213.3 295.6 158 161 160
-156.4 210.1 291.0 156 159 158
-149.7 210.1 291.0 161 161 161
-142.9 210.1 291.0 139 141 140
-136.1 210.1 291.0 197 197 197
-129.4 210.1 291.0 203 205 205
-120.8 206.9 286.6 206 209 208
-114.1 206.9 286.6 202 204 204
-110.8 213.3 295.6 196 196 196
138.3 227.6 315.3 73 73 73
126.6 197.9 274.1 77 77 77
157.7 223.8 310.1 81 81 81
154.7 210.1 291.0 78 78 78
150.0 195.1 270.2 25 25 25
170.9 213.3 295.6 72 72 72
175.0 210.1 291.0 77 79 77
173.8 200.8 278.2 79 81 79
148.1 238.9 320.6 78 78 78
209.5 293.6 394.1 75 76 74
197.2 293.6 370.9 78 80 78
181.5 290.8 356.9 87 87 87
176.4 270.4 331.9 80 82 79
237.0 321.1 394.1 85 86 84
201.1 317.0 378.3 82 83 81
201.1 325.8 378.3 84 85 83
218.7 348.6 394.1 48 50 50
223.1 328.1 370.9 101 101 101
