ply
format ascii 1.0
element vertex 3598
property float x
property float y
property float z
property uchar red
property uchar green
property uchar blue
end_header
168.4 -608.5 242.5 161 161 161
174.0 -608.5 242.5 161 161 161
179.7 -608.5 242.5 161 161 161
185.3 -608.5 242.5 162 162 162
190.9 -608.5 242.5 164 164 164
196.6 -608.5 242.5 164 164 164
202.2 -608.5 242.5 164 164 164
207.9 -608.5 242.5 164 164 164
210.8 -600.8 239.4 164 164 164
219.1 -608.5 242.5 164 164 164
224.8 -608.5 242.5 164 164 164
227.5 -600.8 239.4 164 164 164
233.0 -600.8 239.4 165 165 165
250.5 -616.4 245.7 168 168 168
249.7 -600.8 239.4 165 165 165
258.6 -608.5 242.5 162 162 162
269.9 -608.5 242.5 163 163 163
275.5 -608.5 242.5 163 163 163
284.8 -616.4 245.7 165 165 165
286.8 -608.5 242.5 163 163 163
294.3 -600.8 239.4 160 160 160
299.8 -600.8 239.4 160 160 160
103.0 -171.3 68.3 154 156 156
103.4 -169.5 67.6 154 156 156
105.0 -169.5 67.6 154 156 156
107.7 -171.3 68.3 155 158 157
109.3 -171.3 68.3 155 158 157
110.5 -170.7 68.0 156 159 158
52.4 -74.5 29.7 158 161 160
52.9 -74.3 29.6 158 161 160
53.8 -74.6 29.7 159 162 161
54.6 -74.7 29.8 157 157 157
55.0 -74.3 29.6 158 158 158
55.7 -74.4 29.6 158 158 158
56.6 -74.6 29.7 158 158 158
57.7 -75.1 29.9 159 159 159
58.1 -74.7 29.8 154 154 154
58.3 -74.2 29.6 157 157 157
71.4 -51.4 20.5 95 95 95
71.6 -51.2 20.4 95 95 95
71.6 -50.9 20.3 93 93 93
72.3 -51.0 20.3 90 90 90
73.1 -51.3 20.5 98 100 100
73.5 -51.3 20.4 90 90 90
73.6 -51.0 20.3 135 135 135
74.0 -50.9 20.3 170 171 170
74.5 -50.9 20.3 196 196 196
273.9 -734.7 295.6 164 164 164
317.1 -723.4 291.0 163 163 163
323.8 -723.4 291.0 163 163 163
325.6 -712.5 286.6 163 163 163
327.3 -701.8 282.3 163 163 163
350.9 -723.4 291.0 163 163 163
377.0 -734.7 295.6 163 163 163
118.8 -195.9 78.8 156 159 158
108.1 -172.9 69.5 156 159 158
113.9 -179.5 72.2 157 160 159
116.0 -180.2 72.5 157 160 159
120.5 -184.4 74.2 158 161 160
53.5 -75.4 30.3 158 161 160
54.0 -75.1 30.2 158 161 160
56.1 -76.1 30.6 159 162 161
56.3 -75.4 30.3 160 163 162
57.1 -75.5 30.4 158 158 158
59.7 -76.1 30.6 157 157 157
110.0 -82.9 33.4 106 106 106
74.1 -53.6 21.6 98 100 100
74.4 -53.4 21.5 96 99 98
74.6 -53.3 21.4 95 95 95
75.0 -53.2 21.4 95 95 95
75.5 -53.2 21.4 93 93 93
76.4 -53.4 21.5 93 93 93
76.9 -53.4 21.5 93 93 93
59.7 -39.7 16.0 155 155 155
59.5 -39.3 15.8 194 194 194
59.6 -39.2 15.8 209 209 209
33.5 -187.8 76.3 160 160 160
34.8 -185.6 75.4 160 160 160
36.7 -186.3 75.7 159 159 159
38.5 -186.3 75.7 162 162 162
40.4 -187.1 76.0 162 162 162
41.8 -185.6 75.4 158 158 158
43.4 -184.8 75.1 161 161 161
45.3 -185.6 75.4 161 161 161
47.1 -185.6 75.4 161 161 161
48.6 -184.8 75.1 163 163 163
50.6 -185.6 75.4 163 163 163
52.7 -187.1 76.0 163 163 163
55.0 -188.6 76.6 166 166 166
56.5 -187.8 76.3 167 167 167
58.3 -187.8 76.3 167 167 167
60.1 -187.8 76.3 167 167 167
61.1 -185.6 75.4 167 167 167
63.9 -188.6 76.6 167 167 167
65.4 -187.8 76.3 164 164 164
66.6 -186.3 75.7 164 164 164
68.4 -186.3 75.7 164 164 164
69.6 -184.8 75.1 164 164 164
70.5 -182.7 74.2 164 164 164
72.2 -182.7 74.2 165 165 165
75.7 -187.1 76.0 165 165 165
77.2 -186.3 75.7 162 162 162
78.9 -186.3 75.7 162 162 162
81.3 -187.8 76.3 162 162 162
83.1 -187.8 76.3 163 163 163
85.2 -188.6 76.6 163 163 163
86.0 -186.3 75.7 163 163 163
87.0 -184.8 75.1 163 163 163
89.1 -185.6 75.4 163 163 163
91.2 -186.3 75.7 163 163 163
92.3 -184.8 75.1 163 163 163
94.0 -184.8 75.1 163 163 163
98.1 -189.4 76.9 163 163 163
98.7 -187.1 76.0 163 163 163
100.8 -187.8 76.3 163 163 163
103.9 -190.1 77.2 163 163 163
111.1 -196.5 79.8 164 164 164
109.2 -190.1 77.2 164 164 164
110.1 -188.6 76.6 164 164 164
116.6 -196.5 79.8 161 161 161
116.5 -193.3 78.5 164 164 164
112.7 -184.1 74.8 164 164 164
114.0 -183.4 74.5 161 161 161
116.2 -184.1 74.8 161 161 161
118.9 -185.6 75.4 162 162 162
123.6 -190.1 77.2 162 162 162
120.0 -182.0 73.9 163 163 163
54.6 -76.2 31.0 158 161 160
54.7 -75.4 30.6 158 161 160
58.4 -78.4 31.8 159 162 161
57.8 -76.6 31.1 160 163 162
61.9 -78.2 31.7 159 159 159
100.7 -74.7 30.3 98 100 100
73.4 -52.6 21.4 98 100 100
73.1 -52.0 21.1 95 95 95
74.1 -52.4 21.3 95 95 95
74.5 -52.3 21.2 93 93 93
74.7 -52.1 21.2 95 95 95
76.2 -52.5 21.3 95 95 95
59.8 -39.4 16.0 163 166 165
59.6 -39.0 15.8 162 162 162
59.7 -38.8 15.8 215 215 215
46.2 -167.8 68.8 163 163 163
47.8 -167.8 68.8 166 166 166
54.4 -168.4 69.0 167 167 167
60.3 -167.2 68.5 164 164 164
62.2 -167.8 68.8 164 164 164
63.5 -167.2 68.5 164 164 164
62.2 -159.7 65.5 164 164 164
64.1 -160.8 65.9 162 162 162
68.1 -166.6 68.3 162 162 162
70.9 -169.6 69.5 162 162 162
71.5 -167.2 68.5 162 162 162
72.6 -166.0 68.0 162 162 162
74.4 -166.6 68.3 163 163 163
76.5 -167.8 68.8 163 163 163
78.4 -168.4 69.0 163 163 163
80.0 -168.4 69.0 163 163 163
82.2 -169.6 69.5 163 163 163
81.7 -165.4 67.8 163 163 163
81.0 -160.8 65.9 163 163 163
83.1 -161.9 66.4 163 163 163
90.3 -169.6 69.5 163 163 163
89.9 -166.0 68.0 163 163 163
93.6 -169.6 69.5 163 163 163
99.2 -176.8 72.5 163 163 163
101.6 -178.2 73.0 164 164 164
96.3 -166.0 68.0 164 164 164
95.8 -162.5 66.6 164 164 164
102.6 -166.0 68.0 167 167 167
91.7 -146.0 59.9 164 164 164
115.7 -178.8 73.3 165 165 165
118.3 -180.2 73.9 165 165 165
114.2 -171.5 70.3 166 166 166
106.0 -156.9 64.3 166 166 166
98.2 -72.1 29.6 104 103 101
95.8 -69.9 28.7 98 100 100
73.3 -52.0 21.3 96 99 98
70.4 -49.6 20.3 95 95 95
75.9 -51.8 21.2 90 90 90
59.9 -39.1 16.0 212 213 212
59.6 -38.6 15.8 212 213 212
59.7 -38.5 15.8 197 200 199
58.9 -37.7 15.5 194 194 194
25.2 -131.7 54.5 162 162 162
26.6 -132.5 54.8 162 162 162
27.7 -131.7 54.5 162 162 162
29.0 -131.7 54.5 162 162 162
28.9 -125.9 52.1 164 164 164
30.0 -125.2 51.8 163 163 163
31.0 -124.5 51.5 163 163 163
32.1 -124.2 51.4 166 166 166
33.5 -124.9 51.7 166 166 166
34.7 -124.9 51.7 166 166 166
36.2 -125.9 52.1 166 166 166
37.9 -127.7 52.8 166 166 166
38.9 -127.0 52.5 167 167 167
40.0 -126.6 52.4 167 167 167
40.9 -125.6 52.0 167 167 167
42.0 -125.2 51.8 164 164 164
43.2 -125.2 51.8 164 164 164
44.2 -124.5 51.5 164 164 164
45.9 -125.9 52.1 164 164 164
47.0 -125.6 52.0 164 164 164
48.0 -125.2 51.8 164 164 164
49.1 -124.9 51.7 164 164 164
50.9 -126.3 52.3 165 165 165
51.8 -125.6 52.0 165 165 165
52.4 -124.2 51.4 165 165 165
54.4 -125.9 52.1 165 165 165
55.6 -125.9 52.1 165 165 165
56.6 -125.6 52.0 165 165 165
58.0 -125.9 52.1 163 163 163
59.4 -126.3 52.3 165 165 165
61.1 -127.3 52.7 165 165 165
62.0 -126.6 52.4 166 166 166
63.4 -127.0 52.5 166 166 166
65.3 -128.4 53.1 166 166 166
65.6 -126.6 52.4 166 166 166
64.9 -122.9 50.9 166 166 166
66.2 -123.2 51.0 166 166 166
71.2 -130.2 53.9 166 166 166
71.5 -128.4 53.1 166 166 166
72.3 -127.7 52.8 166 166 166
77.7 -134.8 55.8 166 166 166
77.4 -132.1 54.7 166 166 166
77.3 -129.8 53.7 167 167 167
127.3 -204.0 84.4 167 167 167
87.5 -138.1 57.1 167 167 167
138.7 -215.6 89.2 167 167 167
137.5 -210.6 87.2 168 168 168
140.8 -212.6 88.0 168 168 168
133.0 -197.8 81.9 166 166 166
92.2 -66.6 27.6 104 103 101
71.1 -49.9 20.7 95 95 95
59.4 -38.1 15.8 209 209 209
59.5 -38.0 15.7 180 183 182
58.4 -37.1 15.3 218 218 218
56.6 -35.7 14.8 215 215 215
26.4 -114.0 47.6 166 166 166
30.9 -110.1 46.0 166 166 166
31.8 -109.6 45.8 166 166 166
36.7 -114.9 48.0 164 164 164
36.1 -109.6 45.8 162 162 162
37.3 -110.1 46.0 164 164 164
43.8 -116.1 48.5 164 164 164
44.8 -115.8 48.4 164 164 164
46.0 -115.8 48.4 164 164 164
47.3 -116.4 48.6 165 165 165
46.5 -111.8 46.7 168 168 168
46.4 -108.8 45.5 165 165 165
47.0 -107.8 45.0 165 165 165
50.1 -110.1 46.0 165 165 165
59.2 -117.6 49.1 169 169 169
59.8 -116.4 48.6 169 169 169
59.1 -112.9 47.2 169 169 169
58.3 -109.3 45.7 169 169 169
57.4 -105.8 44.2 171 173 173
65.9 -117.3 49.0 171 173 173
67.1 -117.3 49.0 169 169 169
68.6 -117.9 49.3 169 169 169
69.7 -117.9 49.3 170 171 170
71.2 -118.5 49.5 172 174 174
145.5 -234.5 98.0 170 171 170
132.7 -210.5 88.0 170 171 170
142.7 -223.0 93.2 170 171 170
142.0 -218.7 91.4 170 171 170
144.2 -218.7 91.4 172 172 172
144.9 -216.6 90.5 172 172 172
140.9 -207.6 86.8 172 172 172
150.5 -218.7 91.4 169 169 169
92.5 -66.2 27.7 104 103 101
61.1 -41.7 17.4 93 93 93
60.9 -41.3 17.3 93 93 93
61.6 -41.4 17.3 93 93 93
61.0 -40.8 17.0 95 95 95
58.5 -38.9 16.3 106 106 106
54.7 -34.2 14.3 218 218 218
42.9 -99.6 42.0 168 168 168
41.9 -95.2 40.2 170 172 172
41.7 -92.6 39.1 168 168 168
50.6 -99.4 41.9 169 169 169
51.4 -99.2 41.9 171 173 173
54.2 -100.7 42.5 171 173 173
52.2 -95.2 40.2 173 175 175
50.7 -90.9 38.4 171 173 173
61.3 -101.0 42.6 172 174 174
159.6 -254.7 107.5 172 174 174
161.8 -250.4 105.7 172 174 174
160.7 -244.9 103.4 172 174 174
158.7 -238.4 100.6 173 175 175
149.2 -220.8 93.2 173 175 175
147.0 -214.5 90.5 173 175 175
167.5 -241.0 101.7 174 176 176
160.4 -227.5 96.0 174 176 176
60.8 -40.5 17.1 93 93 93
59.3 -39.3 16.6 95 95 95
58.6 -38.5 16.3 115 117 116
38.2 -84.1 35.8 173 175 175
48.9 -88.4 37.7 181 181 181
47.3 -83.9 35.8 178 178 178
47.3 -82.5 35.2 181 181 181
51.5 -86.9 37.0 171 173 173
59.4 -96.9 41.3 179 179 179
178.3 -277.4 118.2 182 182 182
173.4 -265.8 113.3 179 179 179
166.1 -250.8 106.9 179 179 179
164.9 -245.2 104.5 175 177 177
153.7 -225.3 96.0 173 175 175
152.1 -219.7 93.6 175 177 177
174.1 -248.0 105.7 176 179 178
162.1 -227.6 97.0 176 179 178
27.5 -37.0 15.8 177 180 179
27.1 -36.0 15.4 177 180 179
56.6 -37.6 16.0 95 95 95
58.1 -37.8 16.1 108 108 108
42.1 -26.9 11.5 163 166 165
41.8 -26.6 11.3 197 200 199
42.8 -26.8 11.4 212 213 212
42.7 -26.6 11.3 212 213 212
43.6 -26.7 11.4 219 219 219
33.7 -78.6 33.8 180 180 180
34.4 -78.5 33.8 184 184 184
35.2 -78.5 33.8 189 189 189
36.1 -78.6 33.8 189 189 189
36.5 -77.9 33.5 190 190 190
48.3 -86.3 37.2 200 200 200
45.2 -79.5 34.2 197 197 197
44.4 -76.7 33.0 200 200 200
47.2 -80.2 34.5 197 197 197
47.6 -79.5 34.2 197 197 197
48.1 -79.0 34.0 197 197 197
49.6 -80.2 34.5 197 197 197
49.5 -78.6 33.8 200 200 200
184.0 -283.5 122.0 200 200 200
161.6 -241.5 103.9 197 197 197
157.1 -231.3 99.6 202 202 202
148.4 -215.4 92.7 202 202 202
146.3 -209.3 90.1 205 205 205
172.2 -242.8 104.5 203 203 203
29.1 -39.9 17.2 199 199 199
28.3 -38.3 16.5 200 200 200
27.5 -36.7 15.8 200 200 200
41.7 -26.2 11.3 194 194 194
41.9 -26.2 11.3 197 200 199
43.0 -26.7 11.5 200 202 202
42.4 -26.2 11.3 196 196 196
42.6 -26.1 11.3 212 213 212
43.2 -26.3 11.3 218 218 218
43.4 -26.3 11.3 219 219 219
34.8 -73.5 32.0 204 204 204
45.0 -78.2 34.0 204 204 204
43.1 -73.6 32.0 204 204 204
48.4 -76.2 33.1 204 204 204
47.1 -73.0 31.7 204 204 204
186.9 -280.7 122.0 204 204 204
54.6 -77.3 33.6 205 205 205
28.9 -39.3 17.1 206 206 206
28.2 -37.8 16.4 206 206 206
27.8 -36.7 16.0 207 207 207
300.4 -225.4 98.0 113 115 114
41.1 -25.4 11.1 197 200 199
19.7 -69.3 30.5 205 205 205
20.3 -68.9 30.3 205 205 205
21.7 -68.8 30.2 205 205 205
22.3 -68.6 30.1 205 205 205
23.2 -69.1 30.4 205 205 205
32.1 -70.1 30.8 205 205 205
33.8 -70.6 31.0 204 204 204
38.7 -70.4 30.9 204 204 204
42.2 -72.6 31.9 204 204 204
41.9 -70.8 31.1 204 204 204
42.4 -70.5 31.0 204 204 204
43.5 -71.2 31.3 207 207 207
44.3 -71.3 31.3 207 207 207
44.7 -70.8 31.1 209 209 209
45.5 -70.8 31.1 207 207 207
45.8 -70.3 30.9 204 204 204
45.7 -69.0 30.3 204 204 204
28.1 -37.3 16.4 206 206 206
27.5 -36.0 15.8 207 207 207
303.7 -229.1 100.6 122 122 122
287.7 -215.3 94.6 122 122 122
282.8 -210.1 92.3 122 122 122
19.9 -66.7 29.6 205 205 205
20.5 -66.5 29.5 205 205 205
21.2 -66.6 29.6 205 205 205
21.9 -66.7 29.6 205 205 205
22.6 -66.7 29.6 205 205 205
31.7 -68.4 30.4 208 208 208
37.2 -68.2 30.3 207 207 207
37.7 -67.9 30.1 207 207 207
38.6 -68.2 30.3 207 207 207
41.1 -70.0 31.1 207 207 207
41.5 -69.5 30.9 207 207 207
41.8 -68.9 30.6 207 207 207
42.9 -69.5 30.9 207 207 207
43.9 -69.9 31.0 207 207 207
44.5 -69.6 30.9 207 207 207
45.0 -69.4 30.8 207 207 207
45.0 -68.3 30.3 207 207 207
44.7 -66.8 29.6 207 207 207
49.6 -68.9 30.6 208 208 208
27.6 -35.8 15.9 207 207 207
26.9 -34.3 15.2 207 207 207
324.4 -242.2 107.5 126 129 128
298.1 -220.9 98.0 126 129 128
289.9 -213.1 94.6 125 125 125
19.3 -66.3 29.7 208 208 208
19.9 -66.1 29.6 208 208 208
20.5 -65.9 29.6 207 207 207
21.2 -66.0 29.6 207 207 207
21.9 -66.0 29.6 207 207 207
22.6 -66.0 29.6 207 207 207
31.5 -67.4 30.2 207 207 207
33.0 -67.5 30.3 207 207 207
33.1 -66.4 29.8 207 207 207
34.2 -67.2 30.1 207 207 207
34.6 -66.5 29.8 207 207 207
35.1 -66.1 29.6 207 207 207
37.0 -67.2 30.1 207 207 207
37.6 -67.0 30.0 207 207 207
38.7 -66.4 29.8 207 207 207
40.8 -68.8 30.9 207 207 207
41.0 -68.0 30.5 209 209 209
41.5 -67.6 30.3 207 207 207
42.4 -67.9 30.5 207 207 207
43.7 -68.9 30.9 207 207 207
44.2 -68.6 30.8 204 204 204
44.4 -67.8 30.4 207 207 207
44.6 -67.0 30.0 207 207 207
44.6 -66.0 29.6 207 207 207
45.3 -65.9 29.6 207 207 207
46.0 -66.0 29.6 207 207 207
47.0 -66.4 29.8 207 207 207
47.7 -66.4 29.8 207 207 207
49.2 -67.6 30.3 208 208 208
27.6 -35.4 15.9 206 206 206
27.1 -34.3 15.4 207 207 207
21.8 -64.8 29.4 207 207 207
34.1 -69.1 31.3 207 207 207
42.1 -69.0 31.3 211 211 211
42.6 -68.7 31.1 208 208 208
44.6 -70.8 32.1 208 208 208
45.2 -70.5 32.0 208 208 208
45.0 -69.0 31.3 208 208 208
45.3 -68.4 31.0 208 208 208
44.9 -66.7 30.2 206 206 206
44.6 -65.2 29.6 208 208 208
45.2 -65.1 29.5 208 208 208
48.9 -68.4 31.0 206 206 206
51.6 -70.2 31.8 207 207 207
54.2 -71.6 32.4 207 207 207
27.9 -35.4 16.1 208 208 208
27.0 -33.8 15.3 206 206 206
9.1 -23.1 10.6 206 206 206
9.3 -23.0 10.5 208 208 208
32.6 -68.2 31.2 208 208 208
33.5 -68.6 31.4 211 211 211
34.2 -68.5 31.4 208 208 208
42.2 -69.8 32.0 208 208 208
42.3 -68.7 31.5 208 208 208
42.9 -68.5 31.4 208 208 208
44.6 -70.0 32.1 208 208 208
45.4 -70.0 32.1 208 208 208
45.2 -68.6 31.4 208 208 208
45.4 -67.8 31.1 208 208 208
44.9 -66.0 30.2 208 208 208
44.5 -64.4 29.5 208 208 208
45.3 -64.6 29.6 208 208 208
48.8 -67.5 30.9 208 208 208
52.1 -70.0 32.1 206 206 206
52.5 -69.5 31.8 207 207 207
53.5 -69.9 32.0 207 207 207
55.1 -71.0 32.5 207 207 207
27.4 -34.0 15.6 208 208 208
-29.3 -22.5 10.4 46 45 43
-29.2 -22.6 10.4 46 45 43
-28.9 -22.6 10.4 46 45 43
-28.7 -22.6 10.4 46 45 43
-28.4 -22.6 10.4 46 45 43
-28.2 -22.6 10.4 46 45 43
-27.9 -22.6 10.4 47 47 47
-27.7 -22.6 10.4 47 47 47
-27.5 -22.6 10.4 46 45 43
-27.2 -22.6 10.4 46 45 43
-27.0 -22.6 10.4 47 47 47
-26.7 -22.6 10.4 47 47 47
-26.5 -22.6 10.4 46 45 43
-26.3 -22.6 10.4 46 45 43
-26.0 -22.6 10.4 46 45 43
-25.8 -22.6 10.4 46 45 43
-25.5 -22.6 10.4 42 42 42
-25.3 -22.6 10.4 42 42 42
-25.0 -22.6 10.4 42 42 42
-24.8 -22.6 10.4 39 39 39
-24.5 -22.6 10.4 39 39 39
-24.3 -22.6 10.4 39 39 39
-24.1 -22.6 10.4 42 42 42
-23.8 -22.6 10.4 39 39 39
-23.6 -22.6 10.4 42 42 42
-23.3 -22.6 10.4 42 42 42
-23.1 -22.6 10.4 42 42 42
-22.8 -22.6 10.4 46 46 46
-22.6 -22.6 10.4 42 42 42
-22.4 -22.6 10.4 42 42 42
-22.1 -22.6 10.4 54 54 54
-21.9 -22.6 10.4 57 57 57
-21.6 -22.6 10.4 77 77 77
-21.4 -22.6 10.4 84 84 84
-21.1 -22.6 10.4 86 88 88
-20.9 -22.6 10.4 94 97 96
-20.7 -22.6 10.4 97 100 99
-20.4 -22.6 10.4 103 103 103
-20.2 -22.6 10.5 105 105 105
-19.9 -22.6 10.4 107 107 107
-19.7 -22.6 10.4 107 109 109
-19.2 -22.6 10.5 107 109 109
-18.9 -22.5 10.4 106 108 108
-18.7 -22.5 10.4 108 110 110
-18.5 -22.6 10.5 112 112 112
-17.7 -22.6 10.4 113 114 113
-17.5 -22.6 10.4 113 114 113
-17.3 -22.6 10.4 115 115 115
-17.0 -22.6 10.4 117 117 117
-16.8 -22.5 10.4 118 120 119
-16.5 -22.5 10.4 117 119 118
-15.6 -22.6 10.4 122 122 122
-15.3 -22.6 10.4 124 124 124
-14.7 -22.8 10.5 126 126 126
-14.4 -22.6 10.5 125 125 125
-14.0 -22.4 10.4 127 127 127
-9.6 -22.8 10.6 138 138 138
-9.4 -22.8 10.6 138 140 139
-9.1 -22.8 10.5 139 138 137
-8.8 -22.6 10.5 139 139 139
-8.5 -22.4 10.4 140 142 141
-8.2 -22.5 10.4 140 142 141
-4.4 -22.6 10.4 161 164 163
-4.2 -22.6 10.5 160 163 162
-3.7 -22.6 10.5 165 165 165
-2.2 -22.6 10.5 168 168 168
-2.0 -22.6 10.5 172 174 174
7.3 -22.6 10.5 208 208 208
7.5 -22.6 10.4 208 208 208
7.7 -22.5 10.4 208 208 208
7.9 -22.4 10.4 208 208 208
8.2 -22.6 10.4 208 208 208
8.5 -22.5 10.4 208 208 208
9.2 -22.6 10.4 208 208 208
9.4 -22.5 10.4 208 208 208
9.7 -22.5 10.4 208 208 208
9.9 -22.6 10.5 208 208 208
32.1 -66.6 30.8 208 208 208
32.6 -66.1 30.6 208 208 208
33.8 -67.1 31.1 208 208 208
33.6 -65.2 30.2 208 208 208
34.5 -65.7 30.4 207 207 207
35.1 -65.5 30.3 207 207 207
35.8 -65.4 30.3 207 207 207
36.6 -65.5 30.3 207 207 207
37.3 -65.5 30.3 207 207 207
38.0 -65.5 30.3 207 207 207
38.7 -65.5 30.3 207 207 207
39.3 -65.4 30.3 207 207 207
41.0 -67.0 31.0 207 207 207
41.6 -66.9 31.0 207 207 207
41.9 -66.1 30.6 207 207 207
43.6 -67.7 31.3 207 207 207
44.6 -68.1 31.5 207 207 207
44.5 -66.8 30.9 207 207 207
44.7 -66.1 30.6 207 207 207
44.6 -64.9 30.0 207 207 207
44.4 -63.7 29.5 207 207 207
45.5 -64.3 29.7 207 207 207
46.4 -64.6 29.9 207 207 207
47.5 -65.1 30.1 207 207 207
48.2 -65.1 30.1 208 208 208
51.4 -67.4 31.2 206 206 206
51.6 -66.8 30.9 206 206 206
26.8 -30.8 14.2 206 206 206
-30.0 -22.8 10.7 46 46 44
-30.6 -23.4 11.0 46 46 44
-30.4 -23.4 11.0 47 48 47
-30.1 -23.4 11.0 47 48 47
-29.8 -23.4 11.0 47 48 47
-29.6 -23.4 11.0 47 48 47
-29.3 -23.4 11.0 50 50 50
-29.1 -23.4 11.0 47 48 47
-28.8 -23.4 11.0 46 46 44
-28.6 -23.4 11.0 47 48 47
-28.3 -23.4 11.0 50 50 50
-28.1 -23.4 11.0 47 48 47
-27.8 -23.4 11.0 47 48 47
-27.6 -23.4 11.0 46 46 44
-27.3 -23.4 11.0 42 43 42
-27.1 -23.4 11.0 46 45 43
-26.8 -23.4 11.0 42 43 42
-26.5 -23.4 11.0 42 43 42
-26.3 -23.4 11.0 42 43 42
-26.0 -23.4 11.0 42 43 42
-25.8 -23.4 11.0 40 40 40
-25.5 -23.4 11.0 40 40 40
-25.3 -23.4 11.0 40 40 40
-25.0 -23.4 11.0 40 40 40
-24.8 -23.4 11.0 42 43 42
-24.5 -23.4 11.0 42 43 42
-24.2 -23.4 11.0 40 40 40
-24.0 -23.4 11.0 40 40 40
-23.7 -23.4 11.0 40 40 40
-23.5 -23.4 11.0 42 43 42
-23.2 -23.4 11.0 42 43 42
-23.0 -23.4 11.0 46 45 43
-22.7 -23.4 11.0 49 49 49
-22.5 -23.4 11.0 48 48 48
-22.2 -23.4 11.0 65 66 64
-22.0 -23.4 11.0 85 85 85
-21.7 -23.4 11.0 87 89 88
-21.4 -23.4 11.0 93 93 93
-21.2 -23.4 10.9 92 92 92
-20.9 -23.4 11.0 102 102 102
-20.7 -23.4 11.0 104 104 104
-20.2 -23.5 11.0 107 107 107
-19.9 -23.4 10.9 108 110 110
-19.7 -23.4 11.0 107 107 107
-19.4 -23.4 11.0 107 107 107
-18.6 -23.4 11.0 109 111 111
-18.4 -23.4 11.0 109 111 111
-18.1 -23.4 11.0 108 110 110
-17.9 -23.4 11.0 115 114 114
-17.6 -23.4 11.0 115 114 114
-17.3 -23.4 11.0 116 116 116
-15.9 -22.8 10.7 118 120 119
-15.7 -22.8 10.7 120 122 121
-15.6 -23.5 11.0 120 122 121
-15.0 -23.0 10.8 120 122 121
-14.7 -22.8 10.7 123 123 123
-10.8 -23.5 11.0 130 130 130
-10.2 -23.4 11.0 131 134 133
-9.7 -22.8 10.7 137 137 137
-9.5 -22.8 10.7 137 139 138
-9.5 -23.5 11.0 140 139 138
-6.4 -23.5 11.0 158 158 158
-5.9 -23.4 11.0 165 165 165
-5.6 -23.4 11.0 166 169 168
-5.1 -23.4 11.0 165 168 167
-4.9 -23.4 11.0 162 165 164
-4.6 -23.4 10.9 163 166 165
-4.4 -23.4 10.9 166 166 166
-4.1 -23.4 11.0 170 171 170
-3.9 -23.5 11.0 168 168 168
-3.6 -23.4 11.0 167 167 167
-3.3 -23.4 11.0 169 169 169
-3.1 -23.4 11.0 171 173 173
-2.8 -23.4 11.0 171 173 173
-2.6 -23.4 11.0 171 173 173
-1.3 -23.4 11.0 177 177 177
-1.1 -23.4 11.0 177 177 177
-0.8 -23.4 11.0 177 177 177
0.5 -23.4 11.0 179 179 179
8.6 -23.5 11.0 207 207 207
8.9 -23.5 11.0 207 207 207
9.4 -23.5 11.0 207 207 207
9.4 -22.8 10.7 207 207 207
10.2 -23.4 11.0 207 207 207
10.4 -23.5 11.0 207 207 207
10.7 -23.4 11.0 207 207 207
11.2 -23.4 10.9 207 207 207
33.1 -63.7 29.8 207 207 207
34.9 -64.3 30.1 207 207 207
35.5 -64.2 30.0 207 207 207
38.2 -64.1 30.0 207 207 207
38.5 -63.4 29.6 207 207 207
40.1 -64.8 30.3 207 207 207
40.8 -64.8 30.3 204 204 204
41.2 -64.4 30.1 207 207 207
42.1 -64.6 30.2 207 207 207
42.9 -64.8 30.3 207 207 207
43.6 -64.8 30.3 207 207 207
44.2 -64.7 30.3 207 207 207
43.9 -63.3 29.6 207 207 207
43.6 -61.8 28.9 206 206 206
44.4 -61.9 29.0 206 206 206
45.6 -62.7 29.3 207 207 207
47.0 -63.7 29.8 207 207 207
47.5 -63.4 29.6 207 207 207
51.1 -66.3 31.0 207 207 207
50.8 -65.0 30.4 206 206 206
51.4 -64.9 30.4 206 206 206
52.0 -64.7 30.3 206 206 206
26.7 -30.4 14.2 205 205 205
26.8 -30.1 14.1 206 206 206
-31.2 -23.4 11.1 47 46 45
-31.1 -23.5 11.1 48 48 48
-30.9 -23.6 11.1 48 48 48
-30.6 -23.6 11.1 48 48 48
-30.3 -23.5 11.1 48 48 48
-30.1 -23.5 11.1 51 51 51
-29.8 -23.6 11.1 51 51 51
-29.6 -23.6 11.1 51 51 51
-29.3 -23.6 11.1 48 48 48
-29.1 -23.6 11.1 48 48 48
-28.8 -23.6 11.1 51 51 51
-28.5 -23.6 11.1 53 53 53
-28.3 -23.6 11.1 50 50 50
-28.0 -23.6 11.1 48 48 48
-27.8 -23.6 11.1 46 46 44
-27.5 -23.6 11.1 46 46 44
-27.2 -23.6 11.1 43 43 43
-27.0 -23.6 11.1 43 43 43
-26.7 -23.6 11.1 43 43 43
-26.5 -23.6 11.1 43 43 43
-26.2 -23.6 11.1 41 41 41
-25.9 -23.6 11.1 41 41 41
-25.7 -23.6 11.1 41 41 41
-25.4 -23.6 11.1 41 41 41
-25.2 -23.6 11.1 41 41 41
-24.9 -23.6 11.1 41 41 41
-24.6 -23.6 11.1 41 41 41
-24.4 -23.6 11.1 41 41 41
-24.1 -23.6 11.1 41 41 41
-23.9 -23.6 11.1 41 41 41
-23.6 -23.6 11.1 41 41 41
-23.4 -23.6 11.1 43 43 43
-23.1 -23.6 11.1 43 43 43
-22.8 -23.6 11.1 47 48 47
-22.6 -23.6 11.1 50 50 50
-22.3 -23.6 11.1 46 46 44
-22.0 -23.5 11.1 47 48 47
-21.8 -23.5 11.1 70 70 70
-21.5 -23.5 11.1 91 91 91
-21.3 -23.6 11.1 92 92 92
-20.8 -23.6 11.2 97 100 99
-20.5 -23.5 11.1 103 103 103
-20.2 -23.5 11.1 103 103 103
-20.0 -23.6 11.1 102 102 102
-19.7 -23.6 11.1 102 102 102
-19.4 -23.4 11.1 104 104 104
-19.2 -23.6 11.1 106 106 106
-18.9 -23.6 11.1 108 108 108
-18.7 -23.6 11.1 108 108 108
-18.4 -23.5 11.1 108 108 108
-18.1 -23.5 11.1 108 110 110
-17.9 -23.5 11.1 108 110 110
-17.6 -23.5 11.1 110 112 111
-17.4 -23.5 11.1 108 110 110
-17.1 -23.5 11.1 113 114 113
-16.9 -23.5 11.1 113 114 113
-16.6 -23.5 11.1 115 115 115
-16.4 -23.6 11.2 117 117 117
-16.2 -23.7 11.2 119 119 119
-15.8 -23.6 11.2 119 119 119
-15.5 -23.4 11.1 118 118 118
-15.2 -23.4 11.1 118 118 118
-10.9 -23.6 11.2 126 129 128
-10.6 -23.5 11.1 129 129 129
-10.3 -23.4 11.1 132 135 134
-10.0 -23.4 11.0 134 134 134
-9.9 -23.6 11.1 134 134 134
-9.6 -23.5 11.1 137 139 138
-9.4 -23.5 11.1 138 137 136
-9.1 -23.6 11.2 139 139 139
-8.8 -23.4 11.1 140 142 141
-7.1 -23.8 11.3 151 153 153
-6.8 -23.6 11.2 158 161 160
-6.5 -23.5 11.1 165 165 165
-6.2 -23.5 11.1 167 167 167
-6.0 -23.5 11.1 166 169 168
-5.7 -23.6 11.1 168 170 169
-5.5 -23.6 11.1 170 171 170
-5.2 -23.6 11.1 172 172 172
-4.9 -23.5 11.1 173 173 173
-4.7 -23.5 11.1 175 177 177
-4.4 -23.5 11.1 173 175 175
-4.2 -23.5 11.1 175 177 177
-3.9 -23.5 11.1 174 176 176
-3.7 -23.6 11.1 180 180 180
-3.4 -23.6 11.1 180 180 180
-3.1 -23.6 11.1 185 185 185
-2.9 -23.6 11.1 182 182 182
-2.6 -23.5 11.1 182 182 182
-2.4 -23.5 11.1 182 182 182
-2.1 -23.5 11.1 181 181 181
-1.8 -23.5 11.1 181 181 181
-1.1 -23.6 11.2 181 181 181
-0.8 -23.6 11.1 181 181 181
-0.5 -23.5 11.1 181 181 181
-0.3 -23.6 11.2 181 181 181
0.2 -23.5 11.1 181 181 181
3.1 -23.6 11.2 182 182 182
3.3 -23.5 11.1 182 182 182
3.9 -23.6 11.2 182 182 182
4.1 -23.5 11.1 182 182 182
8.5 -23.6 11.2 207 207 207
8.8 -23.5 11.1 207 207 207
9.0 -23.5 11.1 207 207 207
9.3 -23.6 11.2 207 207 207
9.5 -23.5 11.1 207 207 207
9.8 -23.5 11.1 207 207 207
10.1 -23.6 11.2 207 207 207
10.3 -23.6 11.1 207 207 207
10.6 -23.6 11.2 207 207 207
10.9 -23.6 11.2 207 207 207
11.1 -23.5 11.1 207 207 207
11.4 -23.6 11.2 207 207 207
32.8 -62.4 29.5 206 206 206
34.3 -62.6 29.6 209 209 209
37.7 -62.5 29.6 206 206 206
40.9 -63.2 29.9 209 209 209
41.7 -63.3 29.9 206 206 206
45.3 -67.7 32.0 206 206 206
43.8 -64.4 30.5 206 206 206
44.3 -64.1 30.3 206 206 206
43.5 -61.9 29.3 206 206 206
43.2 -60.6 28.7 206 206 206
43.2 -59.6 28.2 206 206 206
44.8 -61.0 28.8 206 206 206
46.6 -62.4 29.5 206 206 206
46.6 -61.5 29.1 207 207 207
26.7 -30.0 14.2 207 207 207
26.6 -29.5 14.0 207 207 207
26.8 -29.4 13.9 205 205 205
-33.7 -25.0 12.0 49 49 49
-37.6 -28.1 13.5 49 49 49
-37.3 -28.1 13.5 51 51 51
-37.3 -28.4 13.6 49 49 49
-36.9 -28.3 13.6 51 51 51
-36.3 -28.1 13.5 51 51 51
-36.3 -28.4 13.6 51 51 51
-36.0 -28.3 13.6 51 51 51
-35.7 -28.3 13.6 51 51 51
-35.3 -28.3 13.6 53 53 53
-35.0 -28.3 13.6 51 51 51
-34.4 -28.1 13.4 51 51 51
-34.1 -28.1 13.4 49 49 49
-33.8 -28.1 13.4 49 49 49
-33.8 -28.3 13.6 49 49 49
-33.2 -28.1 13.4 47 46 45
-32.9 -28.1 13.4 47 46 45
-32.5 -28.1 13.4 47 46 45
-32.2 -28.1 13.4 44 44 44
-31.9 -28.1 13.4 44 44 44
-31.6 -28.1 13.4 44 44 44
-31.6 -28.3 13.6 44 44 44
-31.2 -28.3 13.6 42 42 42
-30.9 -28.3 13.6 39 39 39
-30.0 -28.3 13.6 42 42 42
-29.7 -28.3 13.6 42 42 42
-29.1 -28.1 13.4 42 42 42
-28.8 -28.1 13.4 39 39 39
-28.5 -28.1 13.4 42 42 42
-28.2 -28.1 13.4 42 43 42
-27.8 -28.1 13.4 42 43 42
-27.7 -28.3 13.5 42 43 42
-27.3 -28.2 13.5 44 44 44
-27.2 -28.4 13.6 44 44 44
-26.6 -28.4 13.6 45 45 45
-24.6 -28.3 13.6 94 94 94
-23.4 -28.3 13.6 98 100 100
-23.0 -28.3 13.5 100 102 102
-22.7 -28.3 13.6 104 104 104
-17.3 -25.0 12.0 111 113 112
-13.5 -28.1 13.4 119 119 119
-10.6 -25.0 11.9 128 128 128
-9.6 -23.3 11.2 128 130 129
-9.4 -23.5 11.2 134 137 136
0.2 -25.2 12.1 182 182 182
9.1 -25.0 12.0 206 206 206
12.3 -28.4 13.6 206 206 206
41.2 -62.9 30.1 209 209 209
45.4 -67.1 32.1 206 206 206
44.9 -64.3 30.8 205 205 205
43.6 -61.4 29.4 205 205 205
42.8 -59.4 28.4 205 205 205
42.5 -58.0 27.7 203 203 203
43.8 -58.9 28.1 206 206 206
46.7 -61.9 29.6 206 206 206
46.6 -60.8 29.1 206 206 206
52.0 -66.9 32.0 206 206 206
52.3 -66.4 31.7 206 206 206
53.2 -66.6 31.8 209 209 209
-39.6 -29.1 14.1 52 52 52
-39.9 -29.5 14.3 52 52 52
-39.5 -29.5 14.3 52 52 52
-39.2 -29.5 14.3 49 49 49
-38.9 -29.5 14.3 52 52 52
-38.6 -29.5 14.3 52 52 52
-38.2 -29.5 14.3 52 52 52
-37.9 -29.5 14.3 54 54 54
-37.5 -29.5 14.3 54 54 54
-37.2 -29.5 14.3 54 54 54
-36.9 -29.5 14.3 52 52 52
-36.5 -29.5 14.3 52 52 52
-36.2 -29.5 14.3 52 52 52
-35.9 -29.5 14.3 52 52 52
-35.5 -29.5 14.3 49 49 49
-35.2 -29.5 14.3 49 49 49
-34.9 -29.5 14.3 48 47 46
-34.6 -29.5 14.3 48 47 46
-34.2 -29.5 14.3 45 45 45
-33.9 -29.5 14.3 45 45 45
-33.6 -29.5 14.3 45 45 45
-33.2 -29.5 14.3 45 45 45
-31.6 -29.5 14.3 45 45 45
-31.2 -29.5 14.3 42 43 42
-30.5 -29.1 14.1 40 40 40
-30.1 -29.1 14.1 38 38 38
-29.8 -29.1 14.1 41 41 41
-29.4 -29.0 14.0 41 41 41
-29.0 -29.0 14.0 38 38 38
-29.2 -29.5 14.3 43 43 43
-28.3 -28.9 14.0 43 43 43
-28.1 -29.0 14.0 43 43 43
-28.1 -29.4 14.2 43 43 43
-27.2 -28.8 13.9 43 43 43
-27.6 -29.5 14.3 46 46 46
-27.3 -29.5 14.3 46 46 46
-26.9 -29.5 14.3 50 50 50
-26.3 -29.5 14.3 66 66 66
-25.9 -29.5 14.3 91 93 92
-25.7 -29.6 14.3 91 94 93
-25.0 -29.2 14.1 98 98 98
-24.6 -29.1 14.1 96 96 96
-24.3 -29.1 14.1 97 97 97
-23.9 -29.0 14.0 99 99 99
-23.8 -29.4 14.2 100 102 102
-14.9 -29.4 14.2 111 113 112
-14.2 -28.7 13.9 110 112 111
-13.9 -28.6 13.8 110 112 111
-13.8 -29.0 14.0 107 109 109
-9.5 -23.4 11.3 106 106 106
-9.2 -23.3 11.3 122 122 122
-8.9 -23.3 11.3 143 145 144
8.4 -23.5 11.4 206 206 206
8.6 -23.3 11.3 206 206 206
8.9 -23.3 11.3 206 206 206
9.2 -23.4 11.3 206 206 206
9.4 -23.3 11.3 206 206 206
9.7 -23.3 11.3 206 206 206
9.9 -23.3 11.3 206 206 206
10.2 -23.3 11.3 206 206 206
10.5 -23.4 11.3 206 206 206
10.7 -23.4 11.3 206 206 206
11.0 -23.3 11.3 206 206 206
11.2 -23.3 11.3 206 206 206
11.5 -23.3 11.3 206 206 206
11.8 -23.3 11.3 206 206 206
40.4 -62.1 30.0 208 208 208
40.5 -61.2 29.6 208 208 208
41.1 -61.1 29.6 208 208 208
41.8 -61.1 29.6 208 208 208
43.0 -61.8 29.9 208 208 208
44.1 -62.4 30.2 208 208 208
43.5 -60.6 29.3 208 208 208
43.0 -59.0 28.5 208 208 208
42.0 -56.8 27.5 205 205 205
42.2 -56.1 27.1 205 205 205
46.6 -61.1 29.6 205 205 205
46.7 -60.3 29.1 205 205 205
51.6 -64.7 31.3 206 206 206
-41.2 -29.9 14.6 53 52 52
-41.2 -30.2 14.8 53 52 52
-40.8 -30.1 14.7 50 50 50
-40.5 -30.1 14.7 50 50 50
-40.2 -30.2 14.8 53 52 52
-39.8 -30.2 14.8 57 58 56
-39.5 -30.2 14.8 55 55 55
-39.1 -30.2 14.8 53 52 52
-38.8 -30.2 14.8 53 52 52
-38.5 -30.2 14.8 55 55 55
-38.1 -30.2 14.8 55 55 55
-37.8 -30.2 14.8 53 52 52
-37.4 -30.2 14.8 53 52 52
-37.1 -30.2 14.8 53 52 52
-36.7 -30.2 14.8 53 52 52
-36.4 -30.2 14.8 50 50 50
-36.1 -30.2 14.8 49 48 47
-35.7 -30.2 14.8 50 50 50
-35.4 -30.2 14.8 46 46 46
-35.0 -30.2 14.8 46 46 46
-34.7 -30.2 14.8 46 46 46
-34.3 -30.2 14.8 46 46 46
-34.0 -30.2 14.8 46 46 46
-33.7 -30.2 14.8 46 46 46
-33.3 -30.2 14.8 46 46 46
-33.0 -30.2 14.8 46 46 46
-32.6 -30.2 14.8 46 46 46
-32.3 -30.2 14.8 46 46 46
-31.9 -30.2 14.8 43 43 43
-31.6 -30.2 14.8 44 44 44
-31.2 -30.1 14.7 42 42 42
-30.9 -30.1 14.7 44 44 44
-30.6 -30.2 14.8 44 44 44
-30.3 -30.2 14.8 44 44 44
-30.0 -30.2 14.8 42 42 42
-29.5 -30.1 14.7 42 42 42
-28.5 -30.2 14.8 42 43 42
-28.2 -30.2 14.8 42 43 42
-27.8 -30.2 14.8 45 45 45
-27.5 -30.2 14.8 47 47 47
-27.1 -30.2 14.8 47 47 47
-26.8 -30.2 14.8 47 47 47
-26.5 -30.2 14.8 51 51 51
-26.1 -30.2 14.8 83 82 80
-25.8 -30.2 14.8 94 97 96
-25.3 -30.1 14.7 92 92 92
-25.0 -30.0 14.7 94 97 96
-14.9 -29.7 14.5 102 104 104
-14.6 -29.7 14.5 91 94 93
-14.3 -29.8 14.6 72 71 69
-8.7 -22.5 11.0 91 94 93
-8.4 -22.4 11.0 185 185 185
8.7 -23.2 11.3 205 205 205
8.8 -22.8 11.1 208 208 208
9.3 -22.8 11.1 205 205 205
9.6 -22.8 11.2 205 205 205
11.0 -22.6 11.1 205 205 205
39.9 -60.7 29.7 208 208 208
40.4 -60.3 29.5 208 208 208
41.1 -60.3 29.5 207 207 207
41.7 -60.2 29.5 207 207 207
42.5 -60.4 29.6 207 207 207
43.3 -60.6 29.6 207 207 207
43.5 -60.0 29.3 207 207 207
43.3 -58.8 28.7 207 207 207
42.1 -56.2 27.5 207 207 207
42.4 -55.7 27.3 207 207 207
46.5 -60.2 29.5 205 205 205
46.8 -59.8 29.2 205 205 205
48.2 -60.7 29.7 205 205 205
48.9 -60.7 29.7 205 205 205
49.5 -60.5 29.6 205 205 205
50.5 -60.9 29.8 206 206 206
-43.2 -31.0 15.3 53 53 53
-43.0 -31.1 15.4 53 53 53
-42.7 -31.1 15.4 56 56 56
-42.4 -31.2 15.4 56 56 56
-41.8 -31.0 15.4 56 56 56
-41.6 -31.2 15.4 56 56 56
-41.3 -31.2 15.4 56 56 56
-40.9 -31.2 15.4 56 56 56
-40.5 -31.2 15.4 56 56 56
-40.2 -31.2 15.4 56 56 56
-39.8 -31.2 15.4 56 56 56
-39.5 -31.2 15.4 56 56 56
-39.1 -31.2 15.4 56 56 56
-38.7 -31.2 15.4 56 56 56
-38.4 -31.2 15.4 53 53 53
-38.0 -31.2 15.4 51 51 51
-37.7 -31.2 15.4 50 49 48
-37.3 -31.2 15.4 51 51 51
-37.0 -31.2 15.4 47 47 47
-36.6 -31.2 15.4 47 47 47
-36.2 -31.2 15.4 47 47 47
-35.9 -31.2 15.4 47 47 47
-35.5 -31.2 15.4 47 47 47
-35.2 -31.2 15.4 47 47 47
-34.8 -31.2 15.4 47 47 47
-34.4 -31.2 15.4 47 47 47
-34.1 -31.2 15.4 47 47 47
-33.6 -31.0 15.3 47 47 47
-33.2 -31.0 15.3 47 47 47
-32.8 -31.0 15.3 47 48 47
-32.5 -31.0 15.3 45 45 45
-32.1 -31.0 15.3 47 48 47
-31.8 -31.1 15.4 45 45 45
-31.6 -31.2 15.4 45 45 45
-31.2 -31.2 15.4 42 43 42
-30.7 -31.0 15.4 43 43 43
-29.8 -31.2 15.4 42 42 42
-29.4 -31.2 15.4 39 39 39
-29.1 -31.2 15.4 39 39 39
-28.7 -31.2 15.4 42 42 42
-28.4 -31.2 15.4 44 44 44
-27.9 -31.0 15.4 46 46 46
-27.5 -31.0 15.4 47 47 47
-27.2 -31.0 15.4 47 47 47
-26.8 -31.0 15.3 48 48 48
-26.4 -30.9 15.3 59 59 59
-26.1 -31.0 15.3 86 86 86
-25.8 -31.1 15.4 92 92 92
-25.6 -31.3 15.5 93 93 93
-16.1 -31.0 15.4 19 23 20
-15.6 -30.7 15.2 19 23 20
-15.2 -30.6 15.2 33 33 33
-14.8 -30.6 15.1 26 26 26
-14.4 -31.1 15.4 25 25 25
-8.8 -22.3 11.0 119 119 119
-8.4 -22.1 10.9 184 184 184
8.5 -23.2 11.5 205 205 205
8.7 -23.0 11.4 205 205 205
11.0 -22.3 11.0 205 205 205
43.1 -60.6 30.0 207 207 207
43.5 -59.2 29.3 207 207 207
42.5 -57.0 28.2 207 207 207
41.9 -55.2 27.3 207 207 207
42.1 -54.7 27.1 207 207 207
46.6 -59.6 29.5 207 207 207
46.2 -58.4 28.9 207 207 207
47.3 -58.8 29.1 207 207 207
26.4 -28.0 13.9 207 207 207
26.3 -27.6 13.6 205 205 205
25.8 -26.7 13.2 205 205 205
25.9 -26.5 13.1 205 205 205
-43.9 -31.1 15.6 53 53 53
-43.9 -31.4 15.7 56 56 56
-43.6 -31.5 15.8 56 56 56
-43.3 -31.5 15.8 58 59 57
-42.9 -31.5 15.8 58 59 57
-42.5 -31.5 15.8 59 60 58
-42.1 -31.5 15.8 57 57 57
-41.8 -31.5 15.8 59 60 58
-41.4 -31.5 15.8 59 60 58
-41.0 -31.5 15.8 59 60 58
-40.7 -31.5 15.8 59 60 58
-40.3 -31.5 15.8 54 54 54
-40.0 -31.5 15.8 57 57 57
-39.6 -31.5 15.8 57 57 57
-39.2 -31.5 15.8 54 54 54
-38.9 -31.5 15.8 52 52 52
-38.5 -31.5 15.8 52 52 52
-38.1 -31.5 15.8 47 48 47
-37.8 -31.5 15.8 47 48 47
-37.4 -31.5 15.8 47 48 47
-37.0 -31.5 15.8 47 48 47
-36.7 -31.5 15.8 47 48 47
-36.3 -31.5 15.8 47 48 47
-35.9 -31.5 15.8 51 50 48
-35.6 -31.5 15.8 51 50 48
-35.2 -31.5 15.8 47 48 47
-34.8 -31.5 15.8 47 48 47
-34.5 -31.5 15.8 47 48 47
-34.1 -31.5 15.8 48 48 48
-33.6 -31.4 15.7 48 48 48
-33.3 -31.4 15.7 48 48 48
-33.1 -31.5 15.8 48 48 48
-33.0 -31.9 15.9 46 46 46
-32.6 -31.8 15.9 46 46 46
-31.9 -31.5 15.8 46 46 46
-31.4 -31.4 15.7 44 44 44
-31.2 -31.5 15.8 44 44 44
-30.8 -31.5 15.8 44 44 44
-30.4 -31.5 15.8 44 44 44
-30.1 -31.5 15.8 42 43 42
-29.7 -31.5 15.8 41 41 41
-29.3 -31.5 15.8 41 41 41
-29.0 -31.5 15.8 41 41 41
-28.7 -31.6 15.8 43 43 43
-28.3 -31.5 15.8 43 43 43
-27.9 -31.5 15.8 43 43 43
-27.5 -31.4 15.7 43 43 43
-26.9 -31.2 15.6 47 48 47
-26.6 -31.3 15.7 50 50 50
-26.4 -31.5 15.8 46 46 46
-26.1 -31.5 15.8 72 74 74
-16.5 -31.3 15.7 25 25 25
-15.9 -31.0 15.5 26 26 26
-15.6 -31.1 15.6 26 26 26
-15.1 -30.8 15.4 26 26 26
-15.3 -32.0 16.0 28 28 28
-14.8 -31.6 15.8 29 30 28
9.5 -24.0 12.0 204 204 204
12.9 -31.8 15.9 207 207 207
13.1 -31.5 15.8 207 207 207
13.6 -31.7 15.9 207 207 207
13.9 -31.6 15.8 207 207 207
12.0 -24.0 12.0 204 204 204
12.4 -24.4 12.2 207 207 207
12.7 -24.4 12.2 207 207 207
12.8 -24.1 12.0 207 207 207
13.3 -24.3 12.2 204 204 204
42.8 -57.6 28.8 206 206 206
42.4 -56.2 28.1 206 206 206
41.7 -54.5 27.3 206 206 206
42.1 -54.1 27.1 206 206 206
45.6 -57.7 28.9 207 207 207
45.5 -56.8 28.4 207 207 207
45.0 -55.4 27.7 207 207 207
45.8 -55.5 27.8 207 207 207
26.4 -27.7 13.9 206 206 206
26.0 -27.0 13.5 206 206 206
25.9 -26.5 13.3 206 206 206
26.1 -26.4 13.2 204 204 204
26.7 -26.7 13.4 205 205 205
124.9 -65.5 32.8 110 112 111
119.6 -62.4 31.2 107 107 107
-34.4 -24.2 12.2 57 57 57
-44.6 -31.5 16.0 59 60 58
-44.2 -31.5 16.0 57 57 57
-43.8 -31.5 16.0 59 60 58
-43.5 -31.5 16.0 59 60 58
-43.1 -31.5 16.0 57 57 57
-42.7 -31.5 16.0 57 57 57
-42.3 -31.5 16.0 59 60 58
-42.0 -31.5 16.0 59 60 58
-41.6 -31.5 16.0 59 61 59
-41.2 -31.5 16.0 59 61 59
-40.9 -31.5 16.0 59 61 59
-40.5 -31.5 16.0 59 61 59
-40.1 -31.5 16.0 58 58 58
-39.7 -31.5 16.0 55 55 55
-39.4 -31.5 16.0 53 52 52
-39.0 -31.5 16.0 53 52 52
-38.6 -31.5 16.0 51 51 49
-38.4 -31.6 16.0 48 48 48
-38.0 -31.6 16.0 48 48 48
-37.6 -31.6 16.0 48 48 48
-37.2 -31.5 16.0 48 48 48
-36.8 -31.5 16.0 48 48 48
-36.4 -31.5 16.0 51 51 49
-36.0 -31.5 16.0 51 51 49
-35.7 -31.5 16.0 48 48 48
-35.3 -31.5 16.0 48 48 48
-34.9 -31.5 16.0 49 49 49
-34.5 -31.5 15.9 49 49 49
-34.1 -31.5 15.9 47 47 47
-33.8 -31.5 15.9 47 47 47
-33.5 -31.5 16.0 47 47 47
-33.2 -31.7 16.0 47 47 47
-32.9 -31.7 16.1 47 47 47
-32.3 -31.5 15.9 47 48 47
-31.9 -31.5 15.9 47 48 47
-31.7 -31.6 16.0 45 45 45
-31.3 -31.6 16.0 45 45 45
-30.8 -31.5 16.0 45 45 45
-30.5 -31.5 16.0 43 43 43
-30.1 -31.5 16.0 42 42 42
-29.5 -31.7 16.0 42 42 42
-29.0 -31.5 16.0 42 42 42
-28.7 -31.6 16.0 42 43 42
-28.3 -31.6 16.0 41 41 39
-27.8 -31.5 15.9 41 41 39
-27.3 -31.3 15.8 42 43 42
-27.0 -31.4 15.9 45 45 45
-16.6 -31.3 15.8 27 27 27
-16.3 -31.5 15.9 27 27 27
-15.8 -31.0 15.7 29 29 29
-15.2 -30.7 15.5 28 28 28
-9.0 -24.4 12.4 184 187 186
-8.6 -24.3 12.3 224 224 224
8.3 -24.3 12.3 207 207 207
8.5 -24.3 12.3 207 207 207
8.8 -24.3 12.3 207 207 207
9.1 -24.3 12.3 207 207 207
9.4 -24.2 12.2 207 207 207
9.7 -24.2 12.3 207 207 207
10.0 -24.3 12.3 207 207 207
10.2 -24.3 12.3 206 206 206
11.1 -24.3 12.3 206 206 206
11.4 -24.3 12.3 204 204 204
11.7 -24.3 12.3 204 204 204
11.9 -24.2 12.3 204 204 204
12.2 -24.2 12.3 206 206 206
12.6 -24.3 12.3 206 206 206
12.8 -24.3 12.3 206 206 206
13.1 -24.2 12.3 206 206 206
13.4 -24.2 12.3 206 206 206
13.6 -24.1 12.2 206 206 206
14.0 -24.3 12.3 206 206 206
40.8 -56.9 28.8 206 206 206
42.9 -57.0 28.9 206 206 206
42.6 -55.8 28.3 206 206 206
41.9 -54.1 27.4 206 206 206
42.3 -53.7 27.2 206 206 206
45.6 -57.0 28.9 206 206 206
45.8 -56.5 28.6 206 206 206
46.4 -56.4 28.6 206 206 206
48.2 -57.8 29.3 206 206 206
48.3 -57.1 28.9 207 207 207
26.1 -26.2 13.2 206 206 206
26.6 -26.3 13.3 204 204 204
27.1 -26.5 13.4 204 204 204
27.2 -26.3 13.3 202 202 202
134.1 -69.9 35.4 112 114 113
131.7 -68.3 34.6 112 114 113
-35.7 -24.8 12.7 59 61 59
-21.9 -24.8 12.7 42 42 40
-21.6 -24.8 12.7 42 42 40
-21.6 -25.2 12.9 41 41 41
-15.1 -30.0 15.4 30 31 30
-10.8 -23.8 12.2 31 30 29
-10.9 -24.7 12.7 32 32 32
-9.5 -24.7 12.7 186 188 187
-9.1 -24.5 12.6 186 188 187
8.4 -25.4 13.0 206 206 206
9.2 -25.1 12.9 206 206 206
10.1 -25.0 12.8 206 206 206
10.3 -24.7 12.7 206 206 206
11.1 -25.3 13.0 206 206 206
11.3 -25.0 12.8 206 206 206
11.7 -24.7 12.6 203 203 203
12.0 -24.6 12.6 203 203 203
12.6 -25.3 13.0 200 200 200
12.9 -25.3 13.0 203 203 203
13.0 -24.8 12.7 206 206 206
13.2 -24.7 12.7 206 206 206
13.5 -24.8 12.7 206 206 206
13.8 -24.7 12.7 206 206 206
41.2 -58.8 30.1 205 205 205
42.2 -59.1 30.3 205 205 205
43.6 -59.1 30.3 205 205 205
45.1 -60.2 30.9 205 205 205
43.9 -57.7 29.6 207 207 207
43.1 -55.8 28.6 205 205 205
42.1 -53.6 27.5 205 205 205
46.3 -57.3 29.4 205 205 205
46.3 -56.4 28.9 206 206 206
48.3 -58.0 29.7 206 206 206
49.6 -58.8 30.1 206 206 206
50.1 -58.5 30.0 206 206 206
50.8 -58.5 30.0 206 206 206
53.2 -60.4 31.0 206 206 206
27.0 -26.4 13.6 206 206 206
27.7 -26.8 13.7 203 203 203
27.7 -26.5 13.6 204 204 204
131.7 -67.5 34.6 112 114 113
123.7 -63.0 32.3 108 108 108
-36.5 -25.0 12.9 59 61 59
-36.2 -25.0 13.0 60 62 60
-35.9 -25.0 13.0 60 62 60
-35.6 -25.0 13.0 60 62 60
-35.3 -25.0 13.0 60 62 60
-35.0 -25.0 13.0 64 64 64
-34.7 -25.0 13.0 60 62 60
-34.4 -25.0 13.0 64 64 64
-34.1 -25.0 13.0 64 64 64
-33.8 -25.0 13.0 64 64 64
-33.5 -25.0 13.0 60 62 60
-33.2 -25.0 13.0 60 62 60
-32.9 -25.0 13.0 60 62 60
-32.6 -25.0 13.0 58 59 59
-32.3 -25.0 13.0 57 57 57
-32.0 -25.0 13.0 57 57 57
-31.7 -25.0 13.0 54 54 54
-31.4 -25.0 13.0 54 54 54
-31.1 -25.0 13.0 54 54 54
-30.8 -25.0 13.0 54 54 54
-30.5 -25.0 13.0 53 52 51
-30.2 -25.0 13.0 53 52 51
-29.9 -25.0 13.0 50 50 50
-29.6 -25.0 13.0 53 52 51
-29.2 -25.0 13.0 53 52 51
-28.9 -25.0 13.0 50 50 50
-28.6 -25.0 13.0 51 51 51
-28.3 -25.0 13.0 51 51 51
-28.0 -25.0 13.0 51 51 51
-27.7 -25.0 13.0 51 51 51
-27.4 -25.0 13.0 51 51 51
-27.1 -25.0 13.0 51 51 51
-26.8 -25.0 13.0 51 51 51
-26.5 -25.0 12.9 52 52 52
-26.2 -25.0 13.0 52 52 52
-26.0 -25.0 13.0 52 52 52
-25.7 -25.0 13.0 49 49 49
-25.4 -25.0 13.0 47 48 47
-25.1 -25.0 13.0 45 45 45
-24.7 -25.0 12.9 43 43 43
-24.4 -25.0 13.0 43 43 43
-24.1 -25.0 13.0 43 43 43
-23.8 -25.0 13.0 44 44 44
-23.5 -25.0 13.0 44 44 44
-23.2 -25.0 13.0 43 42 41
-22.9 -25.0 13.0 43 42 41
-22.6 -25.0 13.0 43 42 41
-22.3 -25.0 13.0 43 42 41
-22.0 -25.0 12.9 41 41 41
-21.7 -24.9 12.9 40 42 42
-21.4 -24.9 12.9 40 42 42
-21.1 -24.9 12.9 40 42 42
-20.8 -25.0 13.0 38 38 38
-20.5 -25.0 13.0 28 28 28
-20.2 -25.0 13.0 21 24 22
-19.9 -24.9 12.9 21 21 21
-12.8 -25.1 13.0 30 31 30
-12.4 -25.0 13.0 30 31 30
-12.1 -24.9 12.9 30 31 30
-11.7 -24.8 12.9 29 31 29
-11.5 -24.9 12.9 32 31 30
-11.1 -24.7 12.8 33 33 33
-10.3 -25.1 13.0 169 171 170
-10.0 -24.9 12.9 186 188 187
-9.6 -24.7 12.8 187 189 189
8.1 -25.0 13.0 206 206 206
8.4 -25.1 13.0 206 206 206
8.7 -25.0 13.0 206 206 206
9.0 -25.0 12.9 206 206 206
9.3 -24.9 12.9 206 206 206
9.6 -25.0 13.0 206 206 206
9.9 -24.9 12.9 205 205 205
10.2 -24.9 12.9 205 205 205
10.5 -25.0 12.9 205 205 205
10.8 -25.0 13.0 205 205 205
11.1 -25.0 13.0 205 205 205
12.0 -25.0 13.0 205 205 205
12.3 -25.0 13.0 205 205 205
13.2 -25.0 12.9 205 205 205
13.5 -25.0 12.9 205 205 205
13.8 -24.9 12.9 205 205 205
43.4 -62.2 32.3 205 205 205
42.0 -59.2 30.7 205 205 205
44.0 -59.0 30.6 205 205 205
45.2 -59.7 31.0 205 205 205
44.7 -58.1 30.1 205 205 205
43.5 -55.6 28.8 205 205 205
42.3 -53.2 27.6 205 205 205
48.3 -59.9 31.1 205 205 205
46.6 -57.0 29.6 205 205 205
46.9 -56.5 29.3 205 205 205
49.4 -58.6 30.4 205 205 205
51.1 -59.8 31.0 205 205 205
51.4 -59.3 30.8 206 206 206
51.5 -58.6 30.4 206 206 206
53.5 -60.1 31.2 206 206 206
53.5 -59.3 30.8 206 206 206
28.1 -26.8 13.9 205 205 205
28.1 -26.6 13.8 208 208 208
28.7 -26.8 13.9 172 174 174
131.2 -66.4 34.5 112 114 113
122.0 -61.4 31.8 110 112 111
-36.5 -24.7 13.0 64 64 64
-36.3 -24.7 13.0 58 59 59
-35.9 -24.7 13.0 58 59 59
-35.7 -24.7 13.0 58 59 59
-35.3 -24.7 13.0 64 64 64
-35.0 -24.7 13.0 64 64 64
-34.7 -24.7 13.0 65 65 65
-34.5 -24.7 13.0 65 65 65
-34.1 -24.7 13.0 65 65 65
-33.8 -24.7 13.0 65 65 65
-33.6 -24.7 13.0 65 65 65
-33.2 -24.7 13.0 59 59 59
-32.9 -24.7 13.0 61 63 61
-32.6 -24.7 13.0 59 59 59
-32.3 -24.7 13.0 59 59 59
-32.0 -24.7 13.0 58 58 58
-31.7 -24.7 13.0 55 55 55
-31.4 -24.7 13.0 58 58 58
-31.1 -24.7 13.0 55 55 55
-30.8 -24.7 13.0 54 53 52
-30.5 -24.7 13.0 54 53 52
-30.2 -24.7 13.0 54 53 52
-29.9 -24.7 13.0 54 53 52
-29.6 -24.7 13.0 54 53 52
-29.3 -24.7 13.0 54 53 52
-29.0 -24.7 13.0 55 54 53
-28.7 -24.7 13.0 52 52 52
-28.4 -24.7 13.0 52 52 52
-28.1 -24.7 13.0 52 52 52
-27.8 -24.7 13.0 55 54 53
-27.5 -24.7 13.0 52 52 52
-27.2 -24.7 13.0 52 52 52
-26.9 -24.7 13.0 53 52 52
-26.3 -24.7 13.0 53 52 52
-26.0 -24.7 13.0 53 52 52
-25.7 -24.8 13.0 51 51 51
-25.5 -24.8 13.0 48 48 48
-25.1 -24.8 13.0 48 48 48
-23.9 -24.7 13.0 47 47 47
-23.6 -24.7 13.0 45 45 45
-23.3 -24.7 13.0 45 45 45
-23.0 -24.7 13.0 44 43 42
-22.7 -24.7 13.0 44 43 42
-22.4 -24.7 13.0 45 44 43
-22.1 -24.7 13.0 41 43 42
-21.7 -24.7 13.0 42 43 42
-21.4 -24.7 13.0 41 43 42
-20.9 -24.7 13.0 39 39 39
-20.6 -24.7 13.0 30 30 30
-20.3 -24.7 13.0 21 21 21
-12.8 -24.9 13.1 30 29 29
-12.4 -24.7 13.0 29 29 29
-12.1 -24.7 13.0 30 31 30
-11.8 -24.7 13.0 33 32 30
-10.9 -24.1 12.6 33 33 33
-10.5 -23.8 12.5 36 38 37
-10.4 -24.9 13.1 184 184 184
-10.0 -24.7 13.0 184 187 186
8.7 -24.7 13.0 205 205 205
9.0 -24.7 13.0 205 205 205
9.3 -24.7 13.0 205 205 205
9.6 -24.7 13.0 205 205 205
10.3 -20.6 10.8 205 205 205
10.5 -20.6 10.8 205 205 205
11.6 -20.6 10.8 207 207 207
11.8 -20.6 10.8 205 205 205
43.9 -62.1 32.6 207 207 207
45.2 -60.9 32.0 207 207 207
45.5 -59.4 31.2 200 200 200
45.2 -58.0 30.5 206 206 206
43.5 -54.9 28.8 206 206 206
42.1 -52.4 27.5 206 206 206
48.4 -59.3 31.1 204 204 204
46.6 -56.3 29.6 200 200 200
46.9 -55.8 29.3 205 205 205
50.9 -59.7 31.3 205 205 205
51.8 -59.9 31.5 205 205 205
53.1 -60.6 31.8 205 205 205
54.0 -60.8 31.9 205 205 205
54.3 -60.3 31.6 205 205 205
54.1 -59.2 31.1 205 205 205
28.3 -26.4 13.9 205 205 205
28.9 -26.6 14.0 171 173 173
120.0 -59.7 31.3 109 111 111
-35.2 -23.5 12.5 65 65 65
-34.2 -23.6 12.6 65 65 65
-29.8 -23.6 12.6 56 56 56
-29.5 -23.6 12.6 55 54 53
-29.2 -23.6 12.6 55 54 53
-28.7 -23.4 12.4 55 54 53
-28.7 -23.6 12.6 55 54 53
-28.4 -23.6 12.6 55 54 53
-27.8 -23.4 12.4 56 55 54
-27.5 -23.4 12.4 56 55 54
-27.5 -23.6 12.6 56 55 54
-27.2 -23.6 12.6 53 52 52
-26.9 -23.6 12.6 56 55 54
-26.6 -23.6 12.6 56 55 54
-26.3 -23.6 12.6 53 53 53
-26.0 -23.6 12.6 53 53 53
-25.1 -23.6 12.6 52 52 52
-21.7 -23.6 12.6 46 45 43
-21.4 -23.7 12.6 43 43 43
-21.0 -23.6 12.5 42 44 43
-20.0 -23.7 12.6 29 29 29
-11.1 -23.6 12.6 56 57 55
-10.8 -23.6 12.5 60 62 60
-10.4 -23.3 12.4 36 39 38
-10.2 -23.6 12.5 46 46 46
-10.0 -23.6 12.6 185 185 185
-9.4 -23.6 12.6 188 188 188
-9.0 -23.4 12.4 181 184 183
10.6 -20.4 10.8 204 204 204
11.6 -20.5 10.9 204 204 204
44.2 -61.8 32.8 206 206 206
45.4 -60.3 32.1 206 206 206
45.7 -58.8 31.3 206 206 206
46.1 -58.4 31.1 206 206 206
43.4 -54.2 28.8 206 206 206
41.2 -50.6 26.9 206 206 206
46.5 -55.4 29.5 206 206 206
47.2 -55.4 29.5 206 206 206
50.6 -58.6 31.2 209 209 209
52.1 -59.5 31.6 209 209 209
53.3 -60.0 31.9 207 207 207
54.4 -60.4 32.1 207 207 207
54.8 -60.0 31.9 205 205 205
54.1 -58.5 31.1 205 205 205
-28.4 -22.9 12.3 58 58 58
-27.5 -22.9 12.3 57 56 55
-10.8 -23.4 12.6 86 88 88
-10.5 -23.1 12.4 28 28 28
-10.2 -23.3 12.6 54 54 54
-9.9 -23.3 12.5 184 187 186
-9.4 -23.4 12.6 188 188 188
10.6 -20.2 10.9 204 204 204
11.7 -20.3 10.9 200 200 200
44.5 -61.5 33.1 206 206 206
46.0 -60.4 32.5 206 206 206
46.2 -57.8 31.1 206 206 206
43.2 -53.3 28.7 206 206 206
42.2 -51.2 27.5 206 206 206
39.9 -47.8 25.7 206 206 206
46.7 -55.0 29.6 206 206 206
51.4 -58.8 31.6 206 206 206
52.8 -59.6 32.1 206 206 206
53.9 -60.0 32.3 206 206 206
55.4 -60.8 32.7 206 206 206
55.9 -60.5 32.6 207 207 207
54.4 -58.1 31.3 204 204 204
-11.4 -23.6 12.8 33 33 31
-11.0 -23.4 12.7 84 83 81
-10.7 -23.3 12.7 34 34 34
-10.4 -23.3 12.7 51 51 51
-10.1 -23.5 12.8 183 186 185
-9.8 -23.4 12.8 182 185 184
-9.5 -23.3 12.7 183 186 185
44.4 -60.6 33.0 205 205 205
46.1 -59.8 32.6 205 205 205
42.9 -52.2 28.4 205 205 205
40.1 -47.3 25.8 205 205 205
46.1 -53.6 29.2 205 205 205
52.9 -59.7 32.6 206 206 206
53.5 -59.6 32.5 206 206 206
54.4 -59.7 32.6 206 206 206
55.4 -60.1 32.7 206 206 206
56.0 -59.8 32.6 206 206 206
29.9 -27.5 15.0 205 205 205
106.4 -54.2 29.6 168 168 168
-27.6 -23.6 13.0 59 59 57
-11.5 -23.4 12.9 89 89 89
-10.8 -23.3 12.9 52 52 52
-10.5 -23.3 12.9 53 52 52
-10.3 -23.4 12.9 183 186 185
-9.9 -23.4 12.9 183 186 185
-9.6 -23.3 12.8 180 183 182
44.3 -59.7 33.0 208 208 208
43.0 -51.7 28.5 205 205 205
42.2 -50.0 27.6 205 205 205
40.4 -47.1 26.0 205 205 205
46.1 -53.0 29.2 205 205 205
53.1 -59.2 32.7 205 205 205
53.5 -58.9 32.5 205 205 205
54.3 -58.9 32.5 205 205 205
55.3 -59.2 32.7 206 206 206
55.8 -58.9 32.5 206 206 206
55.5 -57.8 31.9 206 206 206
31.8 -28.9 15.9 205 205 205
32.3 -29.0 16.0 205 205 205
33.1 -29.0 16.0 166 166 166
104.3 -52.5 29.0 163 166 165
92.1 -45.8 25.3 160 160 160
-34.6 -23.3 13.0 68 68 68
-34.2 -23.3 13.0 70 72 69
-33.9 -23.3 13.0 68 68 68
-33.7 -23.3 13.0 68 68 68
-33.3 -23.3 13.0 68 68 68
-33.1 -23.3 13.0 69 69 69
-32.7 -23.3 13.0 69 69 69
-32.4 -23.3 13.0 66 67 65
-32.2 -23.3 13.0 66 67 65
-31.9 -23.4 13.1 66 67 65
-31.5 -23.3 13.0 64 64 64
-31.2 -23.3 13.0 62 62 62
-30.9 -23.3 13.0 62 62 62
-30.6 -23.3 13.0 60 60 60
-30.3 -23.3 13.0 60 60 60
-30.0 -23.3 13.0 60 60 60
-29.1 -23.3 13.0 59 59 57
-28.8 -23.3 13.0 59 59 57
-28.5 -23.3 13.0 59 59 57
-28.1 -23.3 13.0 59 59 57
-27.9 -23.3 13.0 60 59 58
-27.7 -23.4 13.1 60 59 58
-27.4 -23.4 13.1 60 59 58
-27.0 -23.3 13.0 60 59 58
-26.6 -23.3 13.0 58 58 58
-11.5 -23.2 13.0 36 37 36
-11.1 -22.9 12.8 49 49 49
-10.3 -23.1 12.9 182 185 184
-9.9 -23.1 12.9 181 184 183
7.7 -18.1 10.1 205 205 205
44.3 -58.9 33.0 204 204 204
42.8 -50.8 28.4 204 204 204
41.6 -48.6 27.2 204 204 204
45.8 -52.0 29.1 204 204 204
46.9 -52.5 29.3 205 205 205
53.2 -58.6 32.8 205 205 205
53.6 -58.2 32.6 205 205 205
54.2 -58.0 32.4 205 205 205
55.3 -58.4 32.7 205 205 205
55.7 -58.0 32.4 205 205 205
55.0 -56.5 31.6 205 205 205
31.9 -28.9 16.2 204 204 204
32.2 -28.8 16.1 204 204 204
33.2 -29.0 16.2 200 200 200
33.4 -28.9 16.2 168 168 168
99.0 -48.9 27.3 162 165 164
90.5 -44.4 24.8 160 163 162
87.9 -42.8 23.9 154 154 154
-32.0 -23.1 13.1 67 68 66
-31.6 -23.1 13.1 67 68 66
-31.3 -23.0 13.0 67 69 67
-31.0 -23.1 13.1 63 63 63
-30.7 -23.0 13.1 63 63 63
-30.4 -23.0 13.0 61 61 61
-30.1 -23.0 13.0 63 63 63
-11.5 -22.9 13.0 132 132 132
-11.1 -22.7 12.9 35 35 35
-10.3 -23.0 13.0 181 184 183
-10.0 -22.9 13.0 180 183 182
-10.3 -24.3 13.8 178 181 180
7.7 -17.9 10.1 205 205 205
8.0 -17.8 10.1 205 205 205
45.2 -59.3 33.6 207 207 207
42.9 -51.1 28.9 207 207 207
42.6 -49.9 28.3 204 204 204
41.8 -48.2 27.3 204 204 204
41.5 -47.2 26.7 207 207 207
46.5 -51.3 29.1 207 207 207
53.5 -58.2 33.0 207 207 207
53.7 -57.6 32.6 207 207 207
54.4 -57.5 32.6 207 207 207
55.6 -57.2 32.4 207 207 207
55.1 -55.9 31.7 205 205 205
54.2 -54.2 30.7 205 205 205
47.9 -46.7 26.5 205 205 205
32.4 -29.0 16.4 206 206 206
34.4 -30.4 17.2 206 206 206
34.0 -29.7 16.8 204 204 204
33.5 -29.0 16.4 207 207 207
90.3 -43.7 24.8 160 163 162
85.5 -41.1 23.3 156 156 156
82.3 -39.3 22.3 145 145 144
-10.9 -22.1 12.7 32 33 31
-10.7 -24.3 14.0 179 182 181
-10.3 -24.1 13.8 180 183 182
-10.1 -24.2 13.9 176 179 178
42.7 -50.1 28.7 206 206 206
42.5 -49.1 28.2 206 206 206
41.9 -47.6 27.3 203 203 203
41.8 -46.8 26.9 206 206 206
76.8 -82.4 47.3 207 207 207
76.9 -81.4 46.7 207 207 207
54.2 -54.3 31.2 207 207 207
53.8 -53.1 30.5 207 207 207
51.0 -49.7 28.5 207 207 207
47.8 -46.0 26.4 207 207 207
34.6 -30.2 17.4 206 206 206
34.6 -29.8 17.1 206 206 206
90.3 -43.1 24.8 160 163 162
85.2 -40.4 23.2 156 156 156
81.5 -38.5 22.1 145 145 144
-10.8 -24.2 14.1 179 182 181
-10.4 -24.0 14.0 183 183 183
-10.2 -24.2 14.1 183 183 183
42.5 -49.2 28.6 206 206 206
42.4 -48.4 28.1 206 206 206
41.8 -46.9 27.3 203 203 203
44.4 -48.4 28.1 203 203 203
77.8 -82.3 47.9 203 203 203
77.7 -81.1 47.2 204 204 204
51.5 -49.6 28.8 207 207 207
39.3 -33.4 19.5 206 206 206
84.3 -39.5 23.0 156 156 156
80.0 -37.2 21.7 146 148 148
-11.0 -24.2 14.2 180 183 182
-10.5 -23.9 14.1 179 182 181
-10.3 -24.2 14.3 177 180 179
7.5 -17.2 10.1 204 204 204
7.7 -17.1 10.1 204 204 204
7.9 -17.0 10.0 204 204 204
8.2 -17.1 10.1 207 207 207
8.6 -17.1 10.1 204 204 204
8.9 -17.1 10.1 207 207 207
9.1 -17.1 10.1 207 207 207
9.4 -17.1 10.1 206 206 206
10.5 -17.1 10.1 203 203 203
10.7 -17.0 10.0 206 206 206
11.2 -17.1 10.1 206 206 206
11.6 -17.0 10.0 206 206 206
12.4 -17.1 10.1 206 206 206
13.1 -17.1 10.1 206 206 206
13.3 -17.0 10.0 206 206 206
42.8 -48.1 28.4 206 206 206
41.7 -46.2 27.3 205 205 205
45.3 -48.7 28.7 206 206 206
46.4 -49.1 29.0 208 211 210
80.4 -84.0 49.5 206 206 206
81.1 -83.5 49.3 206 206 206
81.9 -83.1 49.0 206 206 206
416.5 -185.4 109.3 116 118 117
-10.0 -18.3 10.9 46 45 43
-11.0 -24.7 14.8 180 183 182
-10.7 -24.7 14.8 179 179 179
7.5 -16.9 10.1 207 207 207
7.7 -16.9 10.1 207 207 207
7.9 -16.8 10.1 207 207 207
8.2 -16.9 10.1 207 207 207
8.7 -16.9 10.1 206 206 206
8.9 -16.9 10.1 206 206 206
9.1 -16.9 10.1 206 206 206
9.4 -16.9 10.1 206 206 206
10.2 -17.5 10.5 206 206 206
10.0 -16.8 10.0 206 206 206
10.7 -16.8 10.1 206 206 206
11.0 -16.8 10.1 206 206 206
11.2 -16.9 10.1 206 206 206
11.5 -16.9 10.1 206 206 206
11.7 -16.8 10.1 206 206 206
12.5 -17.7 10.6 206 206 206
12.4 -16.9 10.1 206 206 206
12.6 -16.9 10.1 206 206 206
12.9 -16.9 10.1 206 206 206
42.5 -47.1 28.2 207 210 209
41.4 -45.2 27.0 207 210 209
40.5 -43.6 26.1 207 210 209
46.2 -48.2 28.8 207 210 209
91.9 -93.3 55.8 208 211 210
89.8 -89.9 53.7 208 211 210
-27.1 -17.9 10.9 70 70 70
-26.5 -17.7 10.7 70 70 70
-26.2 -17.7 10.7 71 71 71
-9.8 -17.9 10.8 114 116 115
-11.2 -24.8 15.0 182 182 182
-11.0 -25.0 15.2 178 178 178
-5.7 -17.6 10.7 180 180 180
-5.5 -17.8 10.8 183 183 183
-5.3 -17.7 10.7 182 182 182
-4.8 -17.7 10.7 186 186 186
2.5 -17.8 10.8 203 203 203
2.7 -17.6 10.7 189 189 189
2.9 -17.5 10.6 192 192 192
6.2 -17.7 10.7 209 212 211
9.1 -17.6 10.7 206 206 206
9.3 -17.4 10.6 206 206 206
9.5 -17.4 10.6 206 206 206
9.9 -17.6 10.7 206 206 206
10.2 -17.7 10.7 206 206 206
10.4 -17.7 10.7 206 206 206
10.6 -17.6 10.6 206 206 206
10.9 -17.6 10.7 206 206 206
11.1 -17.6 10.7 206 206 206
11.4 -17.6 10.7 206 206 206
11.6 -17.6 10.7 206 206 206
11.9 -17.7 10.7 206 206 206
12.0 -17.4 10.6 206 206 206
12.4 -17.6 10.7 206 206 206
12.7 -17.7 10.7 206 206 206
12.8 -17.5 10.6 206 206 206
13.2 -17.7 10.7 205 205 205
13.4 -17.7 10.7 205 205 205
13.6 -17.6 10.7 205 205 205
13.9 -17.7 10.7 205 205 205
14.1 -17.6 10.7 207 210 209
14.3 -17.5 10.6 205 205 205
42.9 -47.6 28.9 207 210 209
42.5 -46.5 28.2 206 209 208
41.4 -44.6 27.0 206 209 208
40.7 -43.1 26.2 207 210 209
101.9 -100.6 61.0 207 210 209
43.6 -18.9 11.5 120 122 121
-12.0 -27.0 16.6 177 177 177
-5.6 -17.6 10.8 169 169 169
-5.3 -17.5 10.8 165 165 165
-4.8 -17.5 10.8 166 169 168
2.5 -17.6 10.8 217 217 217
2.7 -17.5 10.7 200 200 200
2.9 -17.3 10.7 193 193 193
5.7 -17.5 10.8 208 211 210
8.5 -17.5 10.8 206 206 206
9.0 -17.6 10.8 206 206 206
9.2 -17.5 10.7 206 206 206
9.5 -17.5 10.7 206 206 206
10.0 -17.5 10.7 206 206 206
10.2 -17.5 10.8 206 206 206
10.5 -17.5 10.8 206 206 206
11.7 -17.5 10.7 206 206 206
14.0 -17.5 10.7 207 210 209
14.2 -17.5 10.7 207 210 209
14.4 -17.4 10.7 207 210 209
14.7 -17.5 10.7 206 209 208
42.4 -45.8 28.1 206 209 208
41.6 -44.2 27.2 206 209 208
41.1 -43.0 26.5 206 209 208
108.6 -105.7 65.0 205 205 205
43.4 -18.6 11.5 128 128 128
43.2 -18.4 11.3 123 125 124
-13.5 -16.1 10.0 41 41 41
42.4 -45.1 28.1 206 209 208
41.4 -43.3 27.0 205 208 207
40.9 -42.2 26.3 206 209 208
123.7 -120.3 75.1 206 209 208
116.6 -111.9 69.8 209 212 211
112.8 -106.7 66.6 209 212 211
114.4 -106.7 66.6 207 210 209
75.9 -34.9 21.8 183 186 185
43.0 -18.2 11.4 128 128 128
43.1 -18.1 11.3 124 127 126
-25.3 -16.3 10.3 161 161 161
-24.6 -16.1 10.2 65 65 65
-24.2 -16.0 10.1 62 62 62
-13.7 -16.0 10.1 42 43 42
-13.3 -15.8 10.0 119 119 119
-12.1 -26.3 16.7 178 178 178
-11.4 -26.6 16.9 163 163 163
42.4 -44.5 28.1 205 208 207
41.3 -42.6 27.0 203 203 203
40.6 -41.3 26.1 205 208 207
123.9 -117.2 74.2 208 211 210
122.8 -114.5 72.5 206 209 208
119.0 -109.4 69.3 206 209 208
194.9 -159.8 101.2 208 211 210
154.9 -125.5 79.5 208 211 210
77.2 -35.2 22.3 183 183 183
77.1 -34.9 22.1 183 183 183
-25.5 -16.2 10.4 19 19 19
-25.0 -16.1 10.3 29 31 29
-24.9 -16.1 10.4 40 42 42
-12.1 -26.9 17.3 169 169 169
-11.5 -26.3 16.9 167 167 167
2.9 -16.4 10.6 208 211 210
3.1 -16.3 10.5 208 211 210
9.0 -16.3 10.5 208 211 210
9.2 -16.3 10.5 207 210 209
9.5 -16.3 10.5 207 210 209
9.7 -16.3 10.5 207 210 209
10.3 -16.4 10.5 207 210 209
10.5 -16.4 10.5 205 205 205
11.5 -16.1 10.4 206 209 208
12.6 -16.6 10.6 206 209 208
12.7 -16.4 10.5 206 209 208
13.4 -16.4 10.5 206 209 208
13.6 -16.3 10.5 206 209 208
14.1 -16.4 10.5 204 204 204
14.4 -16.4 10.6 205 208 207
161.5 -152.5 98.0 208 211 210
160.4 -149.4 96.0 208 211 210
125.9 -114.1 73.3 206 209 208
195.9 -158.3 101.7 208 211 210
77.6 -34.9 22.4 184 184 184
77.2 -34.5 22.2 184 184 184
-26.2 -16.3 10.6 38 38 38
-25.7 -16.1 10.5 35 35 35
-40.5 -27.0 17.6 36 36 36
-40.2 -27.3 17.8 48 48 48
-39.2 -26.9 17.6 45 44 43
-36.9 -26.7 17.4 63 63 63
-36.4 -26.6 17.4 66 66 66
-35.7 -26.4 17.2 66 66 66
-12.1 -26.6 17.3 174 174 174
-11.8 -26.6 17.4 169 169 169
2.7 -16.4 10.7 212 214 214
10.2 -16.5 10.7 207 210 209
13.5 -16.2 10.6 204 204 204
167.5 -155.9 101.7 207 210 209
171.7 -157.6 102.8 208 211 210
166.9 -151.0 98.5 208 211 210
572.4 -292.9 191.1 197 197 197
78.1 -35.1 22.9 185 185 185
77.9 -34.7 22.7 185 185 185
78.1 -34.6 22.6 185 185 185
77.9 -34.3 22.4 185 185 185
-51.8 -27.8 18.4 59 59 59
-51.2 -27.7 18.3 67 67 67
-51.0 -27.8 18.4 75 75 75
-49.7 -27.8 18.4 67 67 67
-49.2 -27.8 18.4 65 66 64
-44.9 -27.7 18.4 35 35 35
-44.1 -27.5 18.2 40 42 42
-43.9 -27.6 18.3 46 46 46
-43.5 -27.6 18.3 44 43 42
-43.0 -27.6 18.3 40 42 42
-42.8 -27.8 18.4 33 32 30
-42.6 -27.9 18.5 28 28 28
-42.3 -28.0 18.5 30 31 30
-41.3 -27.6 18.3 30 31 30
-39.2 -27.6 18.3 54 54 54
-38.6 -27.5 18.2 54 54 54
-38.0 -27.4 18.1 56 56 56
-37.4 -27.6 18.3 61 61 61
-37.3 -27.8 18.4 62 62 62
-33.5 -27.8 18.4 63 63 63
-16.0 -17.0 11.2 33 35 33
-13.1 -27.4 18.2 177 180 179
-12.3 -26.6 17.6 175 177 177
-12.1 -27.0 17.9 174 174 174
14.0 -15.4 10.2 207 210 209
77.6 -34.1 22.6 186 186 186
77.6 -33.8 22.4 186 186 186
77.5 -33.6 22.3 186 186 186
78.6 -33.6 22.3 186 186 186
62.3 -26.0 17.2 174 176 176
-52.2 -27.5 18.5 64 65 63
-51.8 -27.6 18.6 73 73 73
-52.0 -27.9 18.8 75 75 75
-51.4 -27.8 18.7 75 75 75
-50.9 -27.8 18.7 62 62 62
-50.5 -27.8 18.7 47 47 47
-50.1 -27.8 18.7 64 65 63
-49.5 -27.8 18.7 147 147 147
-49.1 -27.8 18.7 63 63 63
-48.8 -27.8 18.7 19 23 20
-48.5 -27.9 18.8 24 24 24
-48.0 -27.9 18.8 27 27 27
-47.6 -27.9 18.8 38 38 38
-47.2 -27.9 18.8 29 31 29
-46.3 -27.6 18.6 26 26 26
-45.8 -27.6 18.6 26 26 26
-45.4 -27.6 18.6 28 28 28
-44.9 -27.6 18.6 38 38 38
-44.6 -27.6 18.6 54 54 54
-44.1 -27.6 18.6 64 64 64
-43.7 -27.6 18.6 59 59 59
-43.4 -27.7 18.6 50 50 50
-43.3 -27.9 18.8 39 39 39
-43.1 -28.1 18.9 40 42 42
-41.8 -27.5 18.5 36 37 36
-41.3 -27.5 18.5 119 119 119
-41.3 -27.8 18.7 160 160 160
-40.9 -27.8 18.7 19 19 19
-40.6 -27.9 18.7 24 24 24
-39.8 -27.6 18.6 19 23 20
-39.2 -27.5 18.5 30 31 30
-39.4 -28.0 18.8 41 43 42
-38.8 -27.8 18.7 40 40 40
-38.1 -27.6 18.6 54 54 54
-37.6 -27.6 18.6 57 57 57
-37.2 -27.6 18.6 66 66 66
-35.6 -27.7 18.7 71 71 71
-35.1 -27.6 18.6 64 64 64
-34.5 -27.9 18.7 67 69 67
-33.7 -27.6 18.6 62 62 62
-33.3 -27.6 18.6 61 60 59
-32.8 -27.6 18.6 62 61 60
-16.0 -16.7 11.3 26 26 26
-23.6 -27.4 18.4 30 29 29
-14.0 -27.8 18.7 178 178 178
-13.1 -27.0 18.2 177 177 177
-12.6 -26.7 18.0 176 176 176
-12.3 -27.1 18.2 175 175 175
-12.1 -27.5 18.5 169 169 169
646.0 -530.5 356.9 208 211 210
76.5 -32.8 22.1 188 188 188
76.4 -32.6 21.9 188 188 188
76.2 -32.3 21.7 188 188 188
77.2 -32.5 21.9 188 188 188
61.3 -25.0 16.8 169 169 169
-53.6 -27.9 19.0 56 55 54
-53.2 -27.9 19.0 67 67 67
-52.7 -27.9 19.0 75 75 75
-52.3 -27.9 19.0 72 72 72
-51.9 -27.9 19.0 41 41 41
-51.4 -27.9 19.0 129 132 131
-51.0 -27.9 19.0 122 124 123
-50.5 -27.9 19.0 10 15 11
-50.1 -27.9 19.0 19 23 20
-49.6 -27.9 19.0 24 24 24
-49.2 -27.9 19.0 27 27 27
-48.8 -27.9 19.0 24 24 24
-48.3 -27.9 19.0 26 26 26
-47.9 -27.9 19.0 9 14 10
-47.4 -27.9 19.0 20 23 21
-47.0 -27.9 19.0 20 23 21
-46.5 -27.9 19.0 26 26 26
-46.1 -27.9 19.0 29 31 29
-45.7 -27.9 19.0 53 52 52
-45.2 -27.9 19.0 70 72 69
-44.8 -27.9 19.0 75 76 76
-44.4 -27.9 19.1 68 68 68
-43.9 -27.9 19.1 53 52 52
-43.5 -27.9 19.1 55 55 55
-43.0 -27.9 19.1 68 68 68
-42.6 -27.9 19.1 122 124 123
-42.1 -27.9 19.0 86 86 86
-41.7 -27.9 19.1 140 142 141
-41.2 -27.9 19.0 158 161 160
-40.8 -27.9 19.0 58 58 56
-40.3 -27.9 19.0 19 23 20
-39.9 -27.9 19.0 6 7 7
-39.5 -27.9 19.1 15 15 15
-39.1 -27.9 19.1 8 9 8
-38.6 -27.9 19.0 19 23 20
-38.1 -27.9 19.0 41 43 42
-37.7 -27.9 19.0 57 57 57
-37.2 -27.9 19.0 42 44 43
-36.8 -27.8 19.0 47 48 47
-36.3 -27.8 19.0 67 69 67
-35.8 -27.8 19.0 61 61 61
-35.4 -27.8 19.0 72 73 71
-35.1 -27.9 19.1 72 73 71
-34.6 -27.9 19.1 75 75 75
-34.2 -27.9 19.0 71 71 71
-33.7 -27.9 19.0 72 73 71
-33.5 -28.0 19.2 77 77 77
-33.0 -28.0 19.2 73 74 72
-32.6 -28.0 19.2 149 149 149
-32.2 -28.1 19.2 185 185 185
-31.7 -28.0 19.2 174 174 174
-31.2 -28.0 19.2 115 117 116
-30.8 -28.0 19.2 30 29 29
-30.2 -27.9 19.1 28 28 28
-29.9 -28.1 19.2 32 33 31
-29.4 -28.0 19.1 28 28 28
-29.0 -28.0 19.1 28 28 28
-28.6 -28.0 19.2 28 28 28
-28.1 -28.0 19.2 33 34 32
-27.7 -28.0 19.2 26 26 26
-27.2 -28.0 19.2 28 28 28
-26.8 -28.0 19.2 29 29 29
-26.3 -28.0 19.2 26 26 26
-25.9 -28.0 19.2 45 47 46
-25.4 -28.0 19.2 87 87 87
-25.0 -28.0 19.2 145 145 144
-24.4 -27.9 19.0 155 155 155
-24.1 -28.0 19.2 56 56 56
-23.5 -27.9 19.0 36 35 34
-23.1 -27.9 19.0 77 77 77
-22.8 -28.0 19.2 109 109 107
-22.3 -28.0 19.1 137 137 137
-21.8 -28.0 19.1 25 25 25
-21.3 -27.8 19.0 111 113 112
-20.8 -27.8 19.0 39 39 39
-20.5 -28.0 19.1 90 89 88
-20.0 -27.8 19.0 27 27 27
-15.2 -28.1 19.2 184 187 186
-14.8 -28.2 19.3 183 186 185
-14.2 -27.8 19.0 180 183 182
-13.6 -27.5 18.8 179 182 181
-12.7 -27.4 18.7 176 176 176
-12.4 -27.7 18.9 173 173 173
-12.0 -27.9 19.0 164 167 166
75.3 -32.1 21.9 189 189 189
76.3 -31.8 21.8 189 189 189
76.3 -31.6 21.6 189 189 189
75.9 -31.2 21.4 185 185 185
60.7 -24.4 16.7 168 168 168
60.2 -24.0 16.4 162 162 162
61.4 -24.3 16.6 156 156 156
61.6 -24.3 16.6 148 150 150
68.2 -26.2 17.9 133 133 133
-56.1 -28.7 19.9 34 34 34
-55.1 -28.4 19.7 47 47 47
-54.6 -28.4 19.7 69 71 69
-54.2 -28.4 19.7 72 72 72
-53.7 -28.4 19.7 149 149 147
-53.2 -28.4 19.7 39 41 41
-52.8 -28.4 19.7 25 25 25
-52.3 -28.4 19.7 20 23 21
-51.9 -28.4 19.7 24 24 24
-51.4 -28.4 19.7 29 31 29
-50.9 -28.4 19.7 36 37 36
-50.5 -28.4 19.7 52 52 52
-50.0 -28.4 19.7 154 154 154
-49.6 -28.4 19.7 138 138 138
-49.1 -28.4 19.7 60 60 60
-48.7 -28.4 19.7 156 159 158
-48.2 -28.4 19.7 183 183 183
-47.7 -28.4 19.7 177 177 177
-47.3 -28.4 19.7 115 117 116
-46.8 -28.4 19.7 82 83 81
-46.3 -28.4 19.7 75 76 76
-45.9 -28.4 19.7 78 80 78
-45.4 -28.4 19.7 122 124 123
-44.9 -28.4 19.7 173 173 173
-44.5 -28.4 19.7 184 184 184
-44.1 -28.4 19.7 165 168 167
-43.6 -28.4 19.7 189 189 189
-43.2 -28.4 19.7 206 209 208
-42.7 -28.4 19.7 206 209 208
-42.2 -28.4 19.7 193 193 193
-41.8 -28.4 19.7 201 203 203
-41.3 -28.4 19.7 213 215 215
-40.9 -28.4 19.7 217 217 217
-40.4 -28.4 19.7 175 177 177
-39.9 -28.4 19.7 175 177 177
-39.4 -28.4 19.7 165 165 165
-39.1 -28.4 19.7 143 143 142
-38.5 -28.4 19.7 167 167 167
-38.1 -28.4 19.7 219 219 219
-37.6 -28.4 19.7 212 213 212
-37.2 -28.4 19.7 180 183 182
-36.7 -28.4 19.7 181 184 183
-36.3 -28.4 19.7 212 213 212
-35.8 -28.4 19.7 222 222 222
-35.4 -28.4 19.7 167 167 167
-34.9 -28.4 19.7 117 117 117
-34.4 -28.4 19.7 156 156 156
-34.0 -28.4 19.7 181 181 181
-33.5 -28.4 19.7 202 202 202
-33.1 -28.4 19.7 180 179 177
-32.6 -28.4 19.7 214 216 216
-32.1 -28.4 19.7 212 213 212
-31.7 -28.4 19.7 212 214 214
-31.2 -28.4 19.7 131 131 131
-30.8 -28.4 19.7 36 36 36
-30.3 -28.4 19.7 45 45 45
-29.8 -28.4 19.7 65 65 65
-29.4 -28.4 19.7 81 83 80
-28.9 -28.4 19.7 90 92 91
-28.5 -28.4 19.7 101 100 98
-28.0 -28.4 19.7 99 98 96
-27.6 -28.4 19.7 22 25 23
-27.1 -28.4 19.7 49 48 47
-26.6 -28.4 19.7 89 89 89
-26.2 -28.4 19.7 7 13 9
-25.7 -28.4 19.7 20 23 21
-25.3 -28.4 19.7 60 60 60
-24.8 -28.4 19.7 106 106 106
-24.4 -28.4 19.7 44 46 46
-23.9 -28.4 19.7 77 77 77
-23.4 -28.4 19.7 38 38 38
-23.0 -28.4 19.7 108 108 108
-22.4 -28.3 19.6 65 66 64
-22.0 -28.3 19.6 75 76 74
-21.5 -28.3 19.6 125 125 125
-21.1 -28.3 19.7 25 25 25
-20.6 -28.3 19.7 26 26 26
-15.5 -28.2 19.6 186 188 187
-15.0 -28.0 19.5 207 207 207
-14.5 -27.9 19.4 196 199 198
-14.3 -28.4 19.7 169 171 170
-13.7 -28.3 19.6 175 175 175
-13.4 -28.5 19.8 178 178 178
-12.7 -28.0 19.4 135 135 135
755.1 -544.7 378.3 210 213 212
73.8 -30.9 21.5 190 190 190
74.6 -31.1 21.6 190 190 190
76.0 -31.4 21.8 190 190 190
75.7 -31.1 21.6 190 190 190
75.9 -31.0 21.5 190 190 190
75.5 -30.6 21.3 188 188 188
61.0 -24.1 16.7 167 167 167
60.4 -23.7 16.5 160 160 160
61.3 -23.9 16.6 156 156 156
61.6 -23.8 16.6 150 152 152
61.9 -23.8 16.5 146 146 146
67.3 -25.4 17.7 134 133 132
66.6 -25.0 17.4 124 126 125
-57.1 -28.8 20.3 25 25 25
-56.5 -28.7 20.3 36 36 36
-56.1 -28.7 20.3 94 94 94
-55.6 -28.7 20.3 152 152 152
-55.1 -28.7 20.3 20 23 21
-54.7 -28.7 20.3 25 25 25
-54.2 -28.7 20.3 25 25 25
-53.7 -28.7 20.3 24 24 24
-53.3 -28.7 20.3 20 23 21
-52.8 -28.7 20.3 27 27 27
-52.3 -28.7 20.3 38 38 38
-51.8 -28.7 20.3 60 60 60
-51.4 -28.7 20.3 170 172 172
-50.9 -28.7 20.3 186 188 187
-50.4 -28.7 20.3 178 178 178
-50.0 -28.7 20.3 153 152 150
-49.5 -28.7 20.3 187 189 189
-49.0 -28.7 20.3 177 177 177
-48.5 -28.7 20.3 157 160 159
-48.1 -28.7 20.3 146 146 146
-47.6 -28.7 20.3 154 154 154
-47.1 -28.7 20.2 78 80 78
-46.7 -28.7 20.3 80 82 79
-46.2 -28.7 20.3 206 209 208
-45.8 -28.7 20.3 201 203 203
-45.3 -28.7 20.3 175 177 177
-44.8 -28.7 20.3 92 92 92
-44.4 -28.7 20.3 84 84 84
-43.8 -28.7 20.3 150 150 150
-43.3 -28.7 20.2 134 136 135
-42.9 -28.7 20.3 97 97 97
-42.4 -28.7 20.3 70 72 69
-42.0 -28.7 20.3 68 68 68
-41.5 -28.7 20.3 68 68 68
-41.0 -28.7 20.2 75 76 76
-40.5 -28.7 20.3 68 68 68
-40.2 -28.8 20.3 37 38 37
-39.6 -28.7 20.2 113 114 113
-39.0 -28.6 20.2 168 168 168
-38.7 -28.7 20.3 141 141 141
-38.3 -28.8 20.3 175 175 175
-37.7 -28.7 20.3 112 114 113
-37.2 -28.7 20.3 61 61 61
-36.8 -28.7 20.3 134 134 134
-36.3 -28.7 20.3 146 146 146
-35.8 -28.7 20.3 163 163 163
-35.4 -28.7 20.3 198 201 200
-34.9 -28.7 20.3 236 236 236
-34.5 -28.7 20.3 213 215 215
-34.0 -28.7 20.3 238 241 240
-33.5 -28.7 20.3 219 219 219
-33.0 -28.7 20.3 229 229 229
-32.5 -28.7 20.3 219 219 219
-32.1 -28.7 20.3 220 220 220
-31.6 -28.7 20.3 143 145 144
-31.1 -28.7 20.3 53 53 53
-30.7 -28.7 20.3 43 45 45
-30.2 -28.7 20.3 19 19 19
-29.7 -28.7 20.3 19 23 20
-29.2 -28.7 20.3 35 34 33
-28.8 -28.7 20.3 112 112 112
-28.3 -28.7 20.3 32 33 31
-27.8 -28.7 20.3 107 107 107
-27.4 -28.7 20.3 32 33 31
-26.9 -28.7 20.3 35 34 33
-26.4 -28.7 20.3 105 105 105
-26.0 -28.7 20.3 144 144 144
-25.5 -28.7 20.3 66 66 66
-25.0 -28.7 20.3 42 43 42
-24.5 -28.7 20.2 75 76 76
-24.0 -28.7 20.2 31 32 30
-23.5 -28.6 20.2 138 138 138
-23.1 -28.6 20.2 89 89 89
-22.7 -28.7 20.3 51 51 51
-22.2 -28.7 20.2 90 89 88
-21.6 -28.6 20.2 28 28 28
-15.3 -28.1 19.8 206 206 206
-14.7 -28.7 20.3 168 168 168
-14.1 -28.5 20.1 169 171 170
-13.6 -28.5 20.1 162 162 162
-13.1 -28.4 20.0 137 139 138
-12.9 -29.0 20.5 44 43 42
590.2 -279.1 197.0 202 202 202
74.1 -30.6 21.6 192 195 194
74.7 -30.6 21.6 191 191 191
76.0 -30.9 21.8 191 191 191
76.2 -30.8 21.7 191 191 191
76.1 -30.5 21.5 191 191 191
76.1 -30.3 21.4 189 189 189
61.2 -23.6 16.7 159 159 159
61.8 -23.7 16.7 152 154 154
61.9 -23.6 16.7 152 152 152
62.4 -23.7 16.7 143 145 144
64.4 -24.2 17.1 138 138 138
67.0 -24.9 17.6 128 130 129
66.4 -24.6 17.3 121 121 121
-57.5 -28.4 20.4 39 41 41
-57.3 -28.6 20.5 115 114 114
-56.8 -28.6 20.5 135 135 135
-56.3 -28.6 20.5 18 18 18
-55.9 -28.6 20.5 24 24 24
-55.4 -28.6 20.5 20 23 21
-54.9 -28.6 20.5 19 23 20
-54.4 -28.6 20.5 19 23 20
-53.9 -28.6 20.5 24 24 24
-53.5 -28.6 20.5 20 23 21
-53.0 -28.6 20.5 36 37 36
-52.5 -28.6 20.5 53 53 53
-52.0 -28.6 20.5 151 151 151
-51.6 -28.6 20.5 185 185 185
-51.1 -28.6 20.5 154 154 154
-50.6 -28.6 20.5 146 146 146
-50.1 -28.6 20.5 163 166 165
-49.7 -28.6 20.5 173 173 173
-49.2 -28.6 20.5 123 125 124
-48.7 -28.6 20.5 112 112 112
-48.2 -28.6 20.5 200 200 200
-47.7 -28.6 20.5 200 200 200
-47.3 -28.6 20.5 54 54 54
-46.8 -28.6 20.5 39 39 39
-46.4 -28.6 20.5 131 134 133
-45.8 -28.6 20.5 111 111 111
-45.4 -28.6 20.5 96 95 94
-44.9 -28.6 20.5 96 95 94
-44.4 -28.6 20.5 142 144 143
-43.9 -28.6 20.5 123 125 124
-43.5 -28.6 20.5 26 26 26
-43.0 -28.6 20.5 54 54 54
-42.5 -28.6 20.5 63 63 63
-42.0 -28.6 20.5 68 68 68
-41.5 -28.6 20.5 65 66 64
-41.2 -28.6 20.6 68 68 68
-40.7 -28.6 20.6 68 68 68
-40.1 -28.6 20.5 68 68 68
-39.6 -28.6 20.5 66 67 65
-39.3 -28.7 20.6 66 67 65
-38.7 -28.6 20.5 66 67 65
-38.2 -28.6 20.5 16 16 16
-37.7 -28.6 20.5 96 95 94
-37.3 -28.6 20.5 206 209 208
-36.8 -28.6 20.5 226 226 226
-36.3 -28.6 20.5 224 224 224
-35.8 -28.6 20.5 220 220 220
-35.4 -28.6 20.5 182 182 182
-34.9 -28.6 20.6 119 119 119
-34.4 -28.6 20.5 128 128 128
-33.9 -28.6 20.5 198 201 200
-33.4 -28.6 20.5 198 201 200
-33.0 -28.6 20.5 222 222 222
-32.6 -28.6 20.6 218 218 218
-32.0 -28.6 20.5 209 209 209
-31.5 -28.6 20.5 21 24 22
-31.1 -28.6 20.5 64 64 64
-30.6 -28.6 20.5 119 119 119
-30.1 -28.6 20.5 117 119 118
-29.6 -28.6 20.5 125 125 125
-29.1 -28.6 20.5 93 93 93
-28.7 -28.6 20.5 67 69 67
-28.2 -28.6 20.5 37 38 37
-27.7 -28.6 20.5 34 33 32
-27.2 -28.6 20.5 84 84 84
-26.8 -28.6 20.5 58 59 59
-26.3 -28.6 20.5 30 29 29
-25.8 -28.6 20.5 27 27 27
-25.4 -28.6 20.5 43 45 45
-24.9 -28.6 20.5 69 69 69
-24.4 -28.6 20.5 31 32 30
-23.9 -28.5 20.5 137 137 137
-23.4 -28.5 20.5 53 53 53
-22.9 -28.6 20.5 102 101 99
-14.8 -28.5 20.5 173 175 175
-14.3 -28.5 20.4 182 185 184
-13.8 -28.4 20.4 181 184 183
-13.5 -28.7 20.6 170 172 172
-13.1 -28.9 20.7 115 115 115
75.3 -30.5 21.9 193 196 195
75.7 -30.5 21.9 192 192 192
76.6 -30.6 22.0 192 192 192
77.0 -30.6 21.9 190 190 190
76.9 -30.4 21.8 193 196 195
77.2 -30.3 21.7 190 190 190
78.6 -30.6 22.0 184 184 184
62.7 -23.8 17.1 154 156 156
62.8 -23.7 17.0 154 154 154
62.8 -23.5 16.9 145 147 147
64.0 -23.8 17.1 142 144 143
64.8 -24.0 17.2 134 134 134
65.9 -24.3 17.4 129 132 131
67.1 -24.5 17.6 129 129 129
66.7 -24.2 17.4 121 123 122
-29.7 -14.5 10.6 129 129 129
-29.0 -14.5 10.6 19 23 20
-28.8 -14.5 10.6 19 23 20
-28.5 -14.5 10.6 19 23 20
-28.3 -14.5 10.6 19 23 20
-27.8 -14.5 10.6 26 26 26
-27.5 -14.5 10.6 39 41 41
-26.1 -14.5 10.6 137 137 137
-25.8 -14.5 10.6 132 135 134
-25.6 -14.5 10.6 158 158 158
-25.3 -14.5 10.6 194 194 194
-25.1 -14.5 10.6 107 107 107
-24.8 -14.5 10.6 72 72 72
-24.6 -14.5 10.6 49 49 49
-24.3 -14.5 10.6 41 41 41
-24.1 -14.5 10.6 62 62 62
-23.8 -14.5 10.6 107 109 109
-23.6 -14.5 10.6 103 102 100
-23.4 -14.5 10.6 103 102 100
-23.1 -14.5 10.6 113 114 113
-22.9 -14.5 10.6 130 130 130
-21.6 -14.5 10.6 59 59 59
-21.4 -14.5 10.6 65 66 64
-21.1 -14.5 10.6 61 61 61
-20.9 -14.5 10.6 61 61 61
-20.7 -14.5 10.6 61 61 61
-18.2 -14.5 10.6 221 221 221
-18.0 -14.5 10.6 226 226 226
-17.2 -14.5 10.6 221 221 221
-17.0 -14.5 10.6 220 220 220
-16.7 -14.5 10.6 214 216 216
-16.5 -14.5 10.6 204 207 206
-15.7 -14.5 10.6 29 29 29
-15.5 -14.5 10.6 30 31 30
-15.3 -14.5 10.6 20 23 21
-15.0 -14.5 10.6 26 26 26
-14.8 -14.5 10.6 103 103 103
-14.5 -14.5 10.6 31 32 30
-14.3 -14.5 10.6 31 32 30
-14.0 -14.5 10.6 126 126 126
-13.8 -14.5 10.6 37 38 37
-13.5 -14.5 10.6 29 29 29
-13.3 -14.5 10.6 31 32 30
-13.1 -14.5 10.6 43 45 44
-12.8 -14.5 10.6 81 81 81
-12.5 -14.5 10.6 36 37 36
-12.3 -14.5 10.6 75 76 74
-12.1 -14.5 10.6 34 34 34
-11.8 -14.5 10.6 98 98 98
-10.6 -14.5 10.6 34 34 34
-10.3 -14.5 10.6 38 40 40
-10.1 -14.5 10.6 136 136 136
-9.9 -14.5 10.6 95 98 97
-9.6 -14.4 10.5 140 142 141
-9.4 -14.5 10.6 36 36 36
-14.4 -30.2 22.0 175 175 175
-13.9 -30.2 22.0 166 166 166
75.5 -30.1 22.0 194 197 196
75.8 -30.0 21.9 193 193 193
76.6 -30.1 22.0 194 197 196
77.1 -30.1 22.0 193 193 193
77.3 -30.0 21.9 193 193 193
77.8 -30.0 21.9 191 191 191
79.7 -30.5 22.3 185 185 185
79.8 -30.4 22.2 179 182 181
63.6 -23.6 17.2 151 151 151
63.7 -23.5 17.1 142 141 140
65.0 -23.8 17.4 132 135 134
65.5 -23.9 17.4 132 135 134
68.4 -24.8 18.1 131 133 132
67.9 -24.4 17.8 129 129 129
67.8 -24.2 17.7 124 126 125
-29.7 -14.2 10.6 115 115 115
-29.5 -14.2 10.6 53 52 52
-29.2 -14.2 10.6 25 25 25
-29.0 -14.2 10.6 19 23 20
-28.7 -14.2 10.6 19 23 20
-28.5 -14.2 10.6 20 23 21
-28.2 -14.2 10.6 19 23 20
-28.0 -14.2 10.6 27 27 27
-27.8 -14.2 10.6 41 41 41
-27.5 -14.2 10.6 71 71 71
-27.3 -14.2 10.6 74 74 74
-27.0 -14.2 10.6 147 147 147
-26.8 -14.2 10.6 165 165 165
-26.5 -14.2 10.6 155 154 152
-26.3 -14.2 10.6 181 181 181
-26.0 -14.2 10.6 175 177 177
-25.8 -14.2 10.6 205 205 205
-25.5 -14.2 10.6 153 153 153
-25.3 -14.2 10.6 107 109 109
-25.1 -14.2 10.6 68 70 68
-24.8 -14.2 10.6 64 65 63
-24.6 -14.2 10.6 41 41 41
-24.3 -14.2 10.6 29 31 29
-24.1 -14.2 10.6 78 80 78
-23.8 -14.2 10.6 88 90 89
-23.6 -14.2 10.6 88 90 89
-23.4 -14.2 10.6 83 83 83
-23.1 -14.2 10.6 106 108 108
-22.8 -14.2 10.6 111 111 111
-22.6 -14.2 10.6 106 106 106
-22.4 -14.2 10.6 14 14 14
-22.1 -14.2 10.6 20 23 21
-21.4 -14.2 10.6 58 59 59
-21.1 -14.2 10.6 57 57 55
-20.9 -14.2 10.6 58 59 59
-20.6 -14.2 10.6 54 54 54
-20.4 -14.2 10.6 57 57 55
-19.9 -14.2 10.6 50 50 50
-19.7 -14.2 10.6 24 24 24
-19.4 -14.2 10.6 48 48 48
-19.2 -14.2 10.6 63 63 63
-18.9 -14.2 10.6 59 59 59
-18.7 -14.2 10.6 164 164 164
-18.5 -14.2 10.6 182 181 179
-18.2 -14.2 10.6 183 183 183
-17.9 -14.2 10.6 181 181 181
-17.5 -14.2 10.6 200 202 202
-17.2 -14.2 10.6 205 205 205
-17.0 -14.2 10.6 214 216 216
-16.7 -14.2 10.6 211 211 211
-16.5 -14.2 10.6 202 202 202
-16.0 -14.2 10.6 70 72 69
-15.7 -14.2 10.6 42 44 43
-15.5 -14.2 10.6 74 74 74
-15.2 -14.2 10.6 112 112 112
-15.0 -14.2 10.6 102 102 102
-14.8 -14.2 10.6 115 117 116
-14.5 -14.2 10.6 36 37 36
-14.3 -14.2 10.6 46 46 44
-14.0 -14.2 10.6 136 136 136
-13.8 -14.2 10.6 36 37 36
-13.5 -14.2 10.6 36 37 36
-13.3 -14.2 10.6 36 37 36
-13.0 -14.2 10.6 41 41 41
-12.8 -14.2 10.6 109 109 109
-12.5 -14.2 10.5 36 36 36
-12.3 -14.2 10.6 36 36 36
-12.1 -14.2 10.6 93 92 91
-11.8 -14.2 10.6 17 21 18
-11.6 -14.2 10.6 27 27 27
-11.3 -14.2 10.6 25 25 25
-11.1 -14.2 10.6 27 27 27
-10.8 -14.2 10.6 26 26 26
-10.6 -14.2 10.6 36 36 36
-10.3 -14.2 10.6 108 110 110
-10.1 -14.2 10.6 114 116 115
-9.8 -14.2 10.5 101 101 101
-9.6 -14.2 10.5 138 140 139
-9.1 -14.2 10.6 44 44 44
-14.8 -30.5 22.7 173 175 175
-14.7 -31.4 23.3 161 164 163
-14.6 -32.4 24.1 15 15 15
688.6 -499.6 370.9 211 211 211
77.1 -29.8 22.1 195 198 197
77.0 -29.6 21.9 194 194 194
77.5 -29.6 21.9 192 192 192
78.2 -29.6 22.0 190 190 190
81.1 -30.5 22.7 182 185 184
82.0 -30.7 22.8 179 179 179
80.8 -30.0 22.3 170 171 170
66.0 -23.8 17.7 134 136 135
66.8 -23.9 17.7 134 137 136
69.1 -24.6 18.2 134 136 135
69.0 -24.4 18.1 131 131 131
68.8 -24.2 18.0 122 122 122
-26.4 -15.0 11.3 25 25 25
-55.6 -32.6 24.6 115 117 116
-55.0 -32.6 24.6 144 144 144
-54.4 -32.6 24.6 68 70 68
-50.5 -32.6 24.6 33 32 30
-50.6 -33.1 25.0 49 49 49
-50.0 -33.1 25.0 52 52 52
-19.7 -14.9 11.3 178 181 180
-19.5 -15.0 11.3 182 185 184
-18.7 -15.0 11.3 205 208 207
-15.2 -30.8 23.2 173 175 175
-15.5 -32.5 24.6 154 154 154
716.7 -511.0 386.0 211 211 211
77.8 -29.6 22.3 181 184 183
77.5 -29.2 22.1 191 191 191
77.7 -29.1 22.0 183 186 185
79.5 -29.6 22.4 183 186 185
81.8 -30.3 22.9 180 180 180
83.9 -30.8 23.3 169 169 169
82.8 -30.2 22.8 165 165 165
67.5 -24.0 18.2 136 136 136
66.7 -23.6 17.8 136 136 136
67.4 -23.7 17.9 136 136 136
68.9 -24.1 18.2 133 133 133
69.4 -24.1 18.2 131 131 131
69.2 -23.9 18.1 128 130 129
-72.4 -33.4 25.7 77 79 77
-72.2 -33.6 25.8 67 69 67
-71.6 -33.6 25.8 46 46 46
-71.0 -33.6 25.8 27 27 27
-70.4 -33.6 25.8 29 31 29
-69.8 -33.6 25.8 29 31 29
-69.2 -33.6 25.8 32 31 30
-68.6 -33.6 25.8 116 118 117
-68.0 -33.6 25.8 131 131 131
-67.3 -33.6 25.8 66 66 66
-66.7 -33.6 25.8 16 16 16
-66.1 -33.6 25.8 105 105 105
-65.5 -33.6 25.8 197 197 197
-64.9 -33.6 25.8 143 145 144
-64.3 -33.6 25.8 176 176 176
-63.7 -33.6 25.8 191 191 191
-63.1 -33.6 25.8 170 172 172
-62.5 -33.6 25.8 178 181 180
-61.9 -33.6 25.8 100 100 100
-61.3 -33.6 25.8 51 51 51
-60.4 -33.4 25.7 33 32 30
-60.1 -33.6 25.8 23 23 23
-59.5 -33.6 25.8 20 23 21
-58.9 -33.6 25.8 20 23 21
-57.9 -33.3 25.6 18 22 19
-57.3 -33.3 25.6 19 23 20
-56.7 -33.3 25.6 45 45 45
-56.2 -33.4 25.7 94 93 92
-55.6 -33.4 25.7 128 128 128
-55.3 -33.6 25.8 157 157 157
-54.5 -33.5 25.7 57 56 55
-53.9 -33.5 25.7 23 23 23
-53.0 -33.3 25.6 6 7 7
-52.5 -33.3 25.6 17 21 18
-52.0 -33.4 25.7 25 25 25
-51.0 -33.5 25.8 45 45 45
-45.7 -33.6 25.8 54 54 54
-19.0 -14.8 11.3 201 203 203
-18.7 -14.7 11.3 204 204 204
-42.1 -33.6 25.8 215 218 217
-41.5 -33.6 25.8 212 213 212
-40.9 -33.6 25.8 159 159 159
-40.3 -33.6 25.8 75 77 75
-39.7 -33.6 25.8 17 21 18
-39.1 -33.6 25.8 19 23 20
-38.6 -33.6 25.9 77 79 77
-37.7 -33.4 25.7 103 103 103
-37.1 -33.4 25.7 114 116 115
-36.7 -33.6 25.8 85 86 84
-35.9 -33.4 25.7 123 123 123
-35.3 -33.4 25.7 29 31 29
-34.9 -33.6 25.8 40 40 40
-34.0 -33.9 26.1 28 28 28
-32.9 -33.4 25.7 25 25 25
-18.0 -33.5 25.7 181 181 181
-17.0 -32.7 25.2 154 156 156
-16.7 -33.2 25.6 89 89 89
-16.1 -33.2 25.6 90 92 91
-15.7 -33.5 25.8 57 58 56
-15.0 -33.4 25.7 40 40 40
650.0 -473.0 363.8 210 210 210
638.5 -447.2 343.9 211 211 211
85.0 -30.9 23.8 153 155 155
86.2 -31.1 23.9 150 150 150
87.1 -31.3 24.0 138 138 138
68.0 -23.8 18.3 134 134 134
67.2 -23.4 18.0 134 134 134
67.8 -23.4 18.0 134 134 134
69.0 -23.7 18.2 132 132 132
69.5 -23.7 18.3 132 132 132
69.7 -23.7 18.2 129 132 131
-73.8 -33.5 26.2 75 76 76
-73.4 -33.6 26.3 75 75 75
-72.7 -33.6 26.3 56 56 56
-72.1 -33.6 26.3 66 66 66
-71.5 -33.6 26.3 159 162 161
-70.9 -33.6 26.3 175 177 177
-70.3 -33.6 26.3 160 163 162
-69.7 -33.6 26.3 158 158 158
-69.1 -33.6 26.3 209 212 211
-68.5 -33.6 26.3 203 203 203
-67.9 -33.6 26.3 209 209 209
-67.3 -33.6 26.3 157 157 157
-66.6 -33.6 26.3 56 55 54
-66.0 -33.6 26.3 77 78 76
-65.4 -33.6 26.3 72 72 72
-64.8 -33.6 26.3 72 72 72
-64.2 -33.6 26.3 67 69 67
-63.6 -33.6 26.3 51 51 51
-63.0 -33.6 26.3 41 41 41
-62.4 -33.6 26.3 53 52 52
-61.8 -33.6 26.3 29 31 29
-61.1 -33.6 26.3 23 23 23
-60.5 -33.6 26.3 23 23 23
-59.8 -33.5 26.2 27 27 27
-59.1 -33.5 26.2 160 159 157
-58.5 -33.5 26.2 190 190 190
-58.0 -33.5 26.2 186 185 184
-57.5 -33.6 26.3 111 111 111
-56.8 -33.5 26.2 198 198 198
-56.3 -33.6 26.3 193 196 195
-55.9 -33.7 26.4 174 176 176
-55.0 -33.6 26.3 161 161 161
-54.1 -33.3 26.1 117 119 118
-53.7 -33.5 26.2 116 118 117
-53.2 -33.6 26.3 135 135 135
-52.5 -33.5 26.2 96 96 96
-51.9 -33.5 26.2 13 13 13
-50.9 -33.6 26.3 39 39 39
-50.2 -33.6 26.3 44 43 42
-49.5 -33.6 26.3 39 41 41
-48.9 -33.6 26.3 23 23 23
-48.3 -33.6 26.3 41 41 41
-47.7 -33.6 26.3 54 54 54
-47.1 -33.6 26.3 54 54 54
-46.4 -33.5 26.2 57 56 55
-45.9 -33.6 26.3 54 54 54
-45.4 -33.6 26.3 60 60 60
-44.0 -33.6 26.3 35 35 35
-43.4 -33.5 26.2 67 69 67
-42.8 -33.5 26.2 42 42 42
-42.2 -33.6 26.3 2 7 3
-41.6 -33.6 26.3 25 25 25
-41.0 -33.6 26.3 85 87 87
-40.4 -33.6 26.3 18 22 19
-39.8 -33.6 26.3 60 60 60
-39.2 -33.6 26.3 55 55 55
-38.5 -33.6 26.3 16 20 17
-37.9 -33.6 26.3 25 25 25
-37.3 -33.6 26.3 29 30 28
-36.7 -33.5 26.2 115 117 116
-36.1 -33.5 26.2 34 34 34
-35.5 -33.6 26.3 29 30 28
-34.9 -33.6 26.3 131 131 131
-34.4 -33.6 26.3 25 25 25
-33.5 -33.4 26.2 32 31 30
-33.1 -33.6 26.3 27 27 27
-18.4 -33.6 26.3 182 182 182
-17.5 -33.0 25.8 141 141 141
-17.1 -33.3 26.1 91 93 92
-16.5 -33.3 26.1 89 91 90
-16.0 -33.6 26.3 52 53 51
-15.3 -33.6 26.3 119 119 119
704.2 -503.3 394.1 210 210 210
731.6 -503.3 394.1 211 211 211
88.2 -31.3 24.5 131 134 133
89.1 -31.4 24.6 131 134 133
68.2 -23.3 18.2 129 129 129
68.4 -23.2 18.2 129 129 129
69.7 -23.5 18.4 128 131 130
70.1 -23.5 18.4 129 129 129
70.0 -23.3 18.3 128 128 128
-75.8 -33.7 26.9 75 75 75
-76.2 -34.2 27.3 75 75 75
-75.6 -34.2 27.3 66 66 66
-74.9 -34.2 27.3 132 135 134
-74.3 -34.2 27.3 180 180 180
-73.7 -34.2 27.3 176 179 178
-73.0 -34.2 27.3 174 176 176
-72.4 -34.2 27.3 167 167 167
-71.8 -34.2 27.3 192 192 192
-71.1 -34.2 27.3 218 221 220
-70.5 -34.2 27.3 99 99 99
-69.9 -34.2 27.3 29 31 29
-69.2 -34.2 27.3 52 52 52
-68.7 -34.3 27.3 72 72 72
-68.1 -34.3 27.3 74 74 74
-67.2 -34.2 27.3 72 72 72
-66.6 -34.2 27.3 72 72 72
-65.9 -34.1 27.2 60 60 60
-65.3 -34.2 27.3 32 31 30
-64.8 -34.2 27.3 38 38 38
-64.0 -34.1 27.2 34 34 34
-63.3 -34.1 27.2 25 25 25
-62.9 -34.2 27.3 19 23 20
-61.4 -33.7 26.9 23 23 23
-61.2 -34.0 27.1 164 164 164
-60.6 -34.0 27.1 181 181 181
-60.0 -34.0 27.1 188 187 186
-59.6 -34.2 27.3 154 154 154
-59.0 -34.2 27.3 156 156 156
-60.3 -35.7 28.4 173 175 175
-56.7 -33.9 27.1 165 168 167
-55.9 -33.8 27.0 122 122 122
-55.4 -34.3 27.4 113 114 113
-49.7 -34.3 27.4 53 53 53
-48.9 -34.2 27.3 53 53 53
-48.4 -34.3 27.4 53 53 53
-47.7 -34.2 27.3 53 53 53
-47.0 -34.2 27.3 53 53 53
-46.4 -34.2 27.3 53 53 53
-45.8 -34.2 27.3 53 53 53
-45.1 -34.2 27.3 52 52 52
-44.2 -34.0 27.1 39 41 41
-43.2 -34.2 27.3 27 27 27
-42.0 -34.2 27.3 35 35 35
-41.2 -34.1 27.2 59 59 59
-40.6 -34.1 27.2 54 54 54
-40.0 -34.2 27.3 46 46 46
-39.4 -34.2 27.3 67 67 67
-40.1 -35.4 28.2 44 43 42
-35.8 -34.4 27.4 115 117 116
-17.6 -33.7 26.9 90 90 90
-16.9 -33.7 26.9 89 91 90
-16.4 -33.9 27.1 74 76 75
-15.9 -34.2 27.3 108 108 108
689.8 -484.1 386.0 212 213 212
70.9 -23.5 18.7 126 126 126
70.9 -23.3 18.6 129 128 127
-79.8 -34.9 28.4 75 75 75
-67.0 -34.7 28.2 32 31 30
-42.2 -22.1 17.9 23 23 23
-42.2 -22.3 18.1 17 21 18
-41.4 -22.1 18.0 19 23 20
-41.0 -22.1 18.0 23 23 23
-40.6 -22.1 18.0 147 149 149
-62.0 -35.6 29.0 193 196 195
-60.8 -35.3 28.7 183 186 185
-59.2 -34.8 28.3 166 166 166
-42.1 -34.7 28.2 107 107 107
-38.2 -35.4 28.8 27 29 27
-19.5 -35.5 28.8 134 137 136
-18.3 -34.4 28.0 91 93 92
-17.3 -33.8 27.5 90 92 91
-17.1 -34.6 28.1 84 84 84
-16.4 -34.6 28.1 82 82 82
650.0 -447.7 363.8 212 213 212
548.7 -363.7 295.6 214 214 214
56.4 -31.1 25.3 200 200 200
56.0 -30.6 24.9 202 202 202
55.1 -29.8 24.2 202 202 202
71.2 -23.3 18.9 112 112 112
71.0 -23.1 18.8 115 114 114
71.3 -23.0 18.7 131 131 131
71.9 -23.1 18.8 126 126 126
-19.2 -35.5 29.4 91 94 93
-18.5 -35.4 29.3 93 93 93
-17.8 -35.4 29.3 70 69 68
-17.2 -35.5 29.4 55 56 54
55.9 -30.0 24.8 202 202 202
55.5 -29.5 24.4 202 202 202
71.4 -22.8 18.9 88 88 88
71.2 -22.6 18.7 150 152 152
71.9 -22.7 18.8 124 124 124
-19.8 -35.9 30.3 96 96 96
-18.1 -35.3 29.8 87 89 88
-17.7 -35.9 30.3 30 30 30
16.6 -13.6 11.5 209 209 209
16.7 -13.5 11.4 212 213 212
17.6 -13.6 11.5 211 211 211
30.6 -22.6 19.1 212 213 212
30.8 -22.5 19.0 212 213 212
55.7 -29.3 24.7 202 202 202
55.0 -28.6 24.2 202 202 202
52.1 -16.9 14.3 105 105 105
52.1 -16.8 14.2 105 105 105
72.0 -22.5 19.0 64 64 64
70.9 -22.0 18.6 156 156 156
70.8 -21.9 18.5 121 123 122
-30.5 -15.1 13.0 95 94 93
-30.2 -15.1 13.0 60 60 60
-29.9 -15.1 13.0 25 25 25
-29.6 -15.0 13.0 6 7 7
-29.2 -15.0 13.0 101 100 98
-28.9 -15.0 13.0 147 149 149
-28.6 -15.0 13.0 169 171 170
-28.4 -15.1 13.0 134 134 134
-28.1 -15.1 13.0 174 174 174
-27.9 -15.1 13.0 126 129 128
-23.3 -15.1 13.0 58 59 59
-20.7 -36.8 31.7 97 97 97
16.4 -13.2 11.4 209 209 209
16.6 -13.2 11.4 212 213 212
17.5 -13.3 11.4 211 211 211
17.5 -13.1 11.2 211 211 211
30.3 -22.3 19.2 212 213 212
30.6 -22.2 19.1 209 209 209
30.9 -22.1 19.0 212 213 212
55.5 -28.6 24.6 202 202 202
54.4 -27.8 23.9 202 202 202
52.5 -16.7 14.4 100 100 100
52.2 -16.5 14.2 97 97 97
51.8 -16.3 14.0 90 90 90
-29.8 -14.6 12.8 153 153 153
-29.6 -14.6 12.8 148 150 150
-29.3 -14.6 12.8 140 140 140
-28.0 -14.7 12.9 189 189 187
-27.3 -14.7 12.9 181 181 181
-23.2 -14.7 12.9 58 58 58
-22.5 -14.5 12.7 66 66 66
-22.0 -14.3 12.6 63 64 62
-21.6 -14.5 12.7 69 69 69
-21.5 -14.6 12.8 63 64 62
-21.1 -14.6 12.8 57 56 55
-20.9 -14.6 12.8 176 176 176
-20.7 -38.7 34.0 84 84 84
-18.8 -36.7 32.2 113 112 111
16.3 -12.9 11.3 212 213 212
16.5 -12.9 11.3 212 213 212
30.6 -21.7 19.1 212 213 212
30.7 -21.5 18.9 212 213 212
53.1 -16.6 14.6 92 95 94
52.2 -16.2 14.2 81 84 83
51.8 -16.0 14.0 72 72 72
-29.9 -14.3 12.8 190 192 192
-29.6 -14.3 12.8 192 195 194
-29.3 -14.3 12.8 143 143 142
-29.0 -14.3 12.9 20 23 21
-28.7 -14.3 12.9 2 7 3
-28.4 -14.3 12.9 13 13 13
-28.1 -14.3 12.8 26 26 26
-28.0 -14.4 12.9 79 81 79
-27.3 -14.3 12.9 135 135 135
-26.9 -14.3 12.9 19 23 20
-26.6 -14.3 12.8 23 23 23
-26.3 -14.3 12.9 17 17 17
-23.2 -14.4 12.9 166 169 168
-22.6 -14.2 12.8 86 88 88
-22.1 -14.3 12.8 91 91 91
-21.8 -14.3 12.8 156 156 156
-21.5 -14.3 12.8 126 126 126
-21.2 -14.3 12.8 182 181 179
-20.9 -14.3 12.8 229 229 229
16.6 -12.6 11.3 212 213 212
17.2 -12.1 10.9 212 213 212
52.2 -15.9 14.2 78 78 78
51.5 -15.5 13.9 72 72 72
51.6 -15.5 13.9 72 72 72
-23.3 -14.2 13.0 67 67 67
16.4 -12.4 11.4 212 213 212
16.6 -12.4 11.4 212 213 212
17.1 -12.0 11.0 212 213 212
17.2 -11.9 10.9 212 213 212
51.4 -15.2 13.9 74 74 74
51.6 -15.1 13.9 74 74 74
52.0 -15.2 13.9 75 76 76
-27.6 -52.6 49.3 30 29 29
51.2 -14.7 13.8 79 79 79
-28.5 -49.0 46.9 114 113 112
-26.7 -47.7 45.7 21 21 21
-27.2 -50.7 48.5 28 28 28
-25.6 -49.8 47.6 13 17 14
-28.8 -48.4 47.4 115 117 116
-26.7 -46.7 45.7 32 34 33
-27.3 -49.7 48.6 31 33 33
-35.4 -56.0 56.1 103 103 103
-30.2 -49.7 49.8 110 110 110
-30.1 -53.6 53.7 15 19 16
-29.1 -53.9 54.0 159 159 159
16.3 -12.1 12.1 218 218 218
16.8 -11.8 11.9 217 217 217
16.9 -11.7 11.7 217 217 217
18.3 -12.3 12.3 216 216 216
18.4 -12.2 12.2 216 216 216
-166.4 -57.6 59.1 41 41 39
-172.0 -60.1 61.6 35 35 35
-170.6 -60.1 61.6 37 40 39
-169.2 -60.1 61.6 57 57 57
-168.3 -60.3 61.8 57 57 57
-166.9 -60.3 61.8 147 147 147
-164.9 -60.1 61.6 183 186 185
-163.5 -60.1 61.6 88 89 87
-162.5 -60.3 61.8 191 191 191
-160.1 -59.9 61.4 199 199 199
-159.2 -60.1 61.6 200 200 200
-156.7 -59.7 61.2 145 147 147
-158.4 -60.9 62.4 25 25 25
-156.9 -60.9 62.4 53 52 52
-154.4 -60.5 62.0 66 66 66
-154.5 -61.1 62.6 79 81 79
-151.1 -60.3 61.8 79 81 79
-150.1 -60.5 62.0 140 140 140
-148.2 -60.3 61.8 195 198 197
-147.2 -60.5 62.0 184 184 184
-145.3 -60.3 61.8 196 199 198
-146.3 -61.3 62.8 200 200 200
-142.4 -60.3 61.8 204 207 206
-141.5 -60.5 62.0 208 208 208
-140.9 -60.9 62.4 90 92 91
-144.2 -63.6 65.2 66 67 65
-140.3 -62.5 64.1 68 68 68
-136.0 -61.3 62.8 122 122 122
-133.2 -60.7 62.2 106 106 106
-131.8 -60.7 62.2 117 117 117
-129.5 -60.3 61.8 109 109 109
-128.7 -61.3 62.8 155 155 155
-125.6 -60.5 62.0 164 164 164
-126.2 -61.5 63.1 62 62 62
-124.8 -61.5 63.1 59 59 57
-122.5 -61.1 62.6 60 60 60
-120.6 -60.9 62.4 73 73 73
-120.4 -61.5 63.1 70 72 69
-118.5 -61.3 62.8 204 204 204
-117.4 -61.5 63.1 220 220 220
-114.4 -60.7 62.2 225 225 225
-112.6 -60.5 62.0 228 228 228
-107.9 -60.3 61.8 221 221 221
-106.5 -60.3 61.8 214 214 214
-106.5 -61.1 62.6 195 195 195
-104.5 -62.5 64.1 34 34 34
-99.7 -60.5 62.0 29 31 29
-95.4 -61.5 63.1 117 117 117
-94.3 -61.7 63.3 110 110 110
-90.7 -60.3 61.8 28 28 28
-90.2 -61.9 63.5 34 34 34
-87.5 -61.1 62.6 41 41 41
-85.0 -60.3 61.8 42 44 43
-40.8 -60.9 62.4 96 99 98
-36.9 -57.1 58.6 102 102 102
-32.7 -52.5 53.9 113 114 113
-31.9 -55.4 56.8 15 19 16
-33.3 -60.5 62.0 154 154 154
16.2 -11.8 12.1 218 218 218
16.8 -11.6 11.9 217 217 217
18.1 -11.9 12.2 216 216 216
18.1 -11.7 12.0 216 216 216
18.1 -11.5 11.8 212 213 212
689.8 -376.4 386.0 219 222 221
534.0 -249.2 255.6 182 182 182
-185.6 -62.7 65.9 178 178 178
-195.6 -66.7 70.1 36 37 36
-193.3 -66.4 69.8 48 48 48
-192.4 -66.7 70.1 92 92 92
-192.2 -67.2 70.6 173 175 175
-189.1 -66.7 70.1 37 38 37
-188.2 -66.9 70.3 66 67 65
-186.5 -66.9 70.3 67 68 66
-184.2 -66.7 70.1 191 194 193
-183.3 -66.9 70.3 198 201 200
-179.6 -66.2 69.5 165 165 165
-173.6 -64.5 67.8 145 147 147
-176.4 -66.2 69.5 204 204 204
-177.4 -67.2 70.6 199 199 199
-177.7 -67.9 71.4 105 104 102
-172.8 -66.7 70.1 75 76 76
-171.2 -66.7 70.1 71 71 71
-172.1 -67.7 71.1 74 74 74
-177.1 -70.3 73.9 80 82 79
-166.9 -66.9 70.3 72 72 72
-165.3 -66.9 70.3 18 22 19
-162.4 -66.4 69.8 18 18 18
-157.9 -65.2 68.5 20 23 21
-156.9 -65.5 68.8 46 46 46
-164.2 -69.2 72.8 68 68 68
-164.5 -70.1 73.6 70 72 69
-159.0 -68.5 71.9 66 67 65
-152.2 -66.2 69.5 64 64 64
-150.0 -65.9 69.3 93 93 93
-146.2 -65.0 68.3 108 108 108
-153.5 -69.0 72.5 141 141 141
-144.6 -66.4 69.8 137 139 138
-144.6 -67.2 70.6 118 118 118
-140.8 -66.2 69.5 67 68 66
-137.2 -65.2 68.5 69 69 69
-138.1 -66.4 69.8 59 59 57
-137.0 -66.7 70.1 60 60 60
-135.4 -66.7 70.1 69 69 69
-134.7 -67.2 70.6 70 72 69
-134.1 -67.7 71.1 96 95 94
-131.9 -67.4 70.8 187 189 189
-127.4 -65.9 69.3 203 203 203
-124.9 -65.5 68.8 207 207 207
-127.0 -67.4 70.8 221 221 221
-130.2 -70.1 73.6 220 220 220
-121.4 -66.2 69.5 215 218 217
-119.8 -66.2 69.5 207 210 209
-118.2 -66.2 69.5 183 186 185
-115.7 -65.7 69.0 57 57 57
-116.7 -67.2 70.6 50 50 50
-115.5 -67.4 70.8 33 33 31
-111.7 -66.2 69.5 26 26 26
-108.9 -65.5 68.8 30 31 30
-111.4 -69.0 72.5 173 173 173
-105.3 -66.2 69.5 112 112 112
-103.7 -66.2 69.5 69 69 69
-99.1 -64.3 67.6 42 44 43
-100.3 -67.2 70.6 30 31 30
-96.1 -65.5 68.8 39 39 39
-94.9 -65.7 69.0 53 52 52
-100.6 -70.9 74.5 156 156 156
-98.1 -70.3 73.9 15 15 15
-43.1 -62.7 65.9 96 99 98
-40.6 -61.2 64.3 102 102 102
-39.3 -69.5 73.0 165 165 165
18.2 -11.5 12.1 216 216 216
563.3 -300.0 315.3 219 222 221
470.4 -214.3 225.2 186 186 186
363.2 -163.7 172.0 194 194 194
-237.8 -78.4 84.4 148 148 148
-241.2 -80.2 86.4 178 178 178
-239.2 -80.2 86.4 182 185 184
-231.9 -78.4 84.4 158 158 158
-229.9 -78.4 84.4 44 44 44
-233.1 -80.2 86.4 71 71 71
-226.0 -78.4 84.4 77 79 77
-224.0 -78.4 84.4 99 99 99
-222.1 -78.4 84.4 198 198 198
-219.1 -78.1 84.1 191 194 193
-216.2 -77.7 83.7 113 114 113
-221.1 -80.2 86.4 79 81 79
-220.1 -80.6 86.8 150 150 150
-218.1 -80.6 86.8 184 187 186
-215.1 -80.2 86.4 192 192 192
-213.1 -80.2 86.4 29 31 29
-205.4 -78.1 84.1 57 56 55
-204.4 -78.4 84.4 58 58 58
-202.4 -78.4 84.4 58 59 59
-204.1 -79.8 86.0 49 49 49
-197.6 -78.1 84.1 26 26 26
-196.5 -78.4 84.4 18 22 19
-192.9 -77.7 83.7 20 23 21
-190.9 -77.7 83.7 40 42 42
-190.6 -78.4 84.4 53 53 53
-187.8 -78.1 84.1 58 58 56
-181.8 -76.4 82.2 60 60 60
-181.5 -77.0 83.0 67 68 66
-180.4 -77.4 83.3 101 101 101
-179.2 -77.7 83.7 147 149 149
-176.5 -77.4 83.3 134 134 134
-172.2 -78.1 84.1 141 141 141
-168.8 -77.4 83.3 123 123 123
-166.3 -78.1 84.1 57 57 57
-163.9 -78.8 84.8 67 68 66
-166.4 -80.9 87.2 67 68 66
-160.0 -78.8 84.8 38 38 38
-160.1 -79.8 86.0 55 55 55
-153.3 -77.4 83.3 105 105 103
-153.4 -78.4 84.4 198 198 198
-151.4 -78.4 84.4 207 207 207
-148.8 -78.1 84.1 206 209 208
-147.5 -78.4 84.4 205 208 207
-148.8 -80.2 86.4 189 191 191
-148.9 -81.3 87.6 105 105 103
-143.5 -79.5 85.6 60 59 58
-140.9 -79.1 85.2 48 48 48
-135.1 -78.1 84.1 26 26 26
-134.3 -78.8 84.8 30 31 30
-132.9 -79.1 85.2 39 39 39
-129.8 -78.4 84.4 167 167 167
-126.7 -77.7 83.7 116 116 116
-123.9 -78.4 84.4 39 39 39
-123.0 -79.1 85.2 33 33 31
-120.0 -78.4 84.4 30 31 30
-114.1 -78.4 84.4 159 158 156
-111.1 -77.7 83.7 30 31 30
-53.5 -78.8 84.8 101 101 101
-49.5 -78.8 84.8 28 28 28
-48.0 -79.5 85.6 23 24 23
-45.8 -79.1 85.2 168 170 169
-45.3 -81.7 88.0 177 177 177
328.6 -365.9 394.1 219 219 219
296.0 -130.1 140.1 186 186 186
-265.0 -85.2 94.1 115 114 114
-273.9 -91.1 100.6 212 213 212
-220.1 -89.2 98.5 49 49 49
-62.4 -96.7 106.9 28 28 28
-58.3 -94.1 103.9 22 22 22
262.9 -285.4 315.3 219 219 219
226.9 -96.2 106.3 197 197 197
-59.3 -93.2 105.7 32 32 32
-65.6 -107.6 122.0 176 176 176
-61.2 -104.9 119.0 178 178 178
258.6 -273.5 310.1 219 219 219
439.1 -185.4 210.2 193 193 193
244.8 -101.1 114.6 195 195 195
-69.9 -102.8 119.7 33 35 34
-65.1 -99.7 116.1 26 25 24
-64.4 -102.8 119.7 177 177 177
-62.4 -104.1 121.3 177 177 177
-62.8 -109.8 127.8 179 182 181
321.9 -331.5 386.0 219 219 219
15.4 -8.6 10.0 217 220 219
424.9 -174.7 203.4 174 174 174
296.0 -120.3 140.1 174 176 176
-79.2 -117.9 141.2 26 25 24
-72.1 -112.1 134.2 172 172 172
262.9 -263.4 315.3 219 219 219
403.2 -161.3 193.0 200 200 200
289.5 -114.5 137.1 186 186 186
258.6 -251.9 310.1 219 219 219
287.4 -110.5 136.1 180 180 180
225.7 -85.8 105.7 193 193 193
258.6 -244.7 310.1 219 219 219
420.4 -158.8 201.2 185 185 185
283.4 -105.9 134.2 170 172 172
216.0 -79.8 101.2 185 185 185
-27.7 -10.4 13.5 146 146 146
210.6 -188.1 245.7 216 216 216
411.6 -150.9 197.0 190 190 190
285.4 -103.5 135.1 137 137 137
213.7 -76.6 100.1 159 159 159
395.2 -140.5 189.2 175 175 175
285.4 -100.3 135.1 145 145 144
179.9 -61.9 83.3 194 194 194
-29.1 -9.9 13.8 74 74 74
-28.7 -9.9 13.7 45 45 45
-28.3 -9.8 13.7 75 77 75
-28.1 -9.9 13.7 58 58 58
-28.1 -10.0 13.9 50 50 50
470.4 -162.0 225.2 174 174 174
166.0 -55.3 76.9 190 190 190
148.5 -48.9 68.0 192 192 192
-28.8 -9.6 13.7 63 62 61
-28.4 -9.8 14.0 60 60 60
250.4 -209.0 300.3 217 217 217
193.2 -141.6 203.4 216 216 216
434.2 -144.7 207.9 185 185 185
312.1 -102.9 147.8 105 107 107
182.3 -58.8 84.4 185 185 185
137.6 -43.9 63.1 194 194 194
268.8 -79.8 114.6 200 200 200
258.6 -208.6 310.1 217 217 217
202.7 -159.1 236.5 213 215 215
219.2 -155.2 230.7 212 214 214
459.5 -148.0 220.0 188 188 188
223.2 -70.3 104.5 152 154 154
144.3 -44.5 66.1 192 192 192
252.7 -74.0 110.0 197 197 197
271.1 -78.6 116.8 200 200 200
265.6 -76.2 113.3 200 200 200
257.4 -73.1 108.7 200 200 200
-182.2 -53.0 81.5 28 28 28
-172.8 -50.8 78.2 22 25 23
250.4 -195.0 300.3 213 215 215
210.6 -159.6 245.7 213 215 215
365.2 -256.0 394.1 212 214 214
224.6 -153.6 236.5 212 214 214
24.2 -9.3 14.3 219 222 221
327.5 -100.7 155.1 131 131 131
166.0 -49.9 76.9 175 177 177
146.9 -43.7 67.3 188 188 188
274.5 -76.8 118.2 200 200 200
272.1 -75.4 116.1 200 200 200
-182.2 -51.1 81.5 35 34 33
-169.3 -48.0 76.6 35 34 33
-155.0 -44.4 70.8 33 34 32
70.3 -45.2 72.2 212 214 214
71.9 -45.2 72.2 212 214 214
24.2 -9.1 14.5 220 223 222
24.1 -8.9 14.2 220 223 222
24.0 -8.7 14.0 220 223 222
279.4 -82.8 132.3 112 112 112
161.4 -46.8 74.8 174 176 176
141.3 -40.6 64.8 188 188 188
172.1 -48.4 77.2 195 195 195
168.1 -46.3 73.9 198 198 198
-186.2 -50.3 83.3 67 67 67
-170.7 -46.6 77.2 66 66 66
71.1 -44.0 73.0 213 215 215
24.0 -8.5 14.1 220 223 222
24.0 -8.4 14.0 220 223 222
285.4 -81.5 135.1 108 108 108
162.0 -45.3 75.1 174 176 176
136.2 -37.6 62.4 189 189 189
173.5 -46.9 77.8 195 195 195
173.1 -46.4 76.9 198 198 198
170.1 -45.1 74.8 195 195 195
151.1 -37.0 61.4 236 236 236
-176.8 -45.9 79.1 74 75 73
-166.6 -43.7 75.4 72 72 72
68.4 -40.8 70.3 213 215 215
69.3 -40.3 69.5 225 227 227
24.0 -8.2 14.2 222 224 224
160.8 -43.2 74.5 173 173 173
137.1 -36.4 62.8 185 185 185
171.4 -44.6 76.9 193 193 193
166.4 -42.8 73.9 195 195 195
162.4 -38.6 66.6 236 236 236
154.7 -36.4 62.8 236 236 236
182.6 -41.1 70.8 61 64 63
68.2 -39.0 70.1 214 216 216
69.3 -38.7 69.5 196 196 196
70.9 -38.7 69.5 64 64 62
159.5 -41.1 73.9 170 171 170
138.0 -35.2 63.3 186 186 186
166.0 -41.5 74.5 194 194 194
166.9 -38.8 69.8 207 207 207
169.2 -39.0 70.1 197 197 197
167.7 -38.3 68.8 235 235 235
185.8 -40.5 72.8 61 64 63
183.3 -39.6 71.1 62 64 64
180.8 -38.7 69.5 63 65 65
67.7 -37.1 69.5 189 189 189
68.3 -36.6 68.5 50 50 50
19.6 -7.5 14.1 215 215 215
24.3 -7.6 14.3 223 225 225
159.5 -39.4 73.9 173 173 173
142.3 -34.8 65.2 186 186 186
164.1 -35.9 67.3 234 234 234
146.4 -31.7 59.5 236 236 236
138.6 -29.8 55.8 110 110 110
183.3 -37.9 71.1 62 64 64
180.8 -37.1 69.5 63 65 65
65.5 -33.5 65.7 64 64 62
19.3 -7.2 14.1 220 220 220
19.6 -7.2 14.1 215 215 215
23.7 -7.6 14.8 222 222 222
24.1 -7.3 14.2 222 222 222
24.2 -7.2 14.1 222 222 222
23.0 -6.6 12.9 222 222 222
27.5 -7.3 14.3 224 226 226
135.8 -31.7 62.2 183 183 183
121.3 -28.0 55.0 186 186 186
151.3 -32.3 63.3 205 205 205
155.9 -32.9 64.6 200 200 200
153.7 -32.2 63.1 227 230 229
147.8 -30.6 60.1 232 232 232
139.9 -28.7 56.3 118 118 118
188.2 -37.3 73.0 62 64 64
176.3 -34.6 67.8 63 65 65
160.6 -31.2 61.2 68 68 68
19.0 -6.9 14.1 174 176 176
19.3 -6.9 14.1 208 211 210
19.6 -6.8 14.1 210 213 212
20.0 -6.9 14.1 216 216 216
20.2 -6.8 14.1 216 216 216
23.6 -7.3 14.9 220 220 220
23.8 -7.3 14.9 222 222 222
24.1 -6.9 14.2 224 224 224
24.1 -6.8 14.0 224 224 224
23.2 -6.3 13.0 224 224 224
27.4 -6.9 14.2 224 224 224
195.1 -44.5 91.4 143 145 144
161.4 -36.4 74.8 173 173 173
136.7 -30.5 62.6 182 182 182
171.1 -34.5 70.8 200 200 200
158.5 -31.6 65.0 220 220 220
154.1 -30.5 62.6 222 222 222
190.4 -36.0 73.9 60 63 62
187.7 -35.2 72.2 61 64 63
164.3 -30.5 62.6 64 66 66
19.4 -6.6 14.2 203 203 203
19.7 -6.6 14.1 212 214 214
20.2 -6.6 14.2 212 214 214
20.4 -6.6 14.2 216 216 216
23.8 -6.9 14.9 221 221 221
24.1 -6.7 14.4 224 224 224
24.2 -6.6 14.3 221 221 221
24.3 -6.6 14.1 221 221 221
23.4 -6.1 13.1 221 221 221
27.5 -6.6 14.3 225 225 225
159.4 -30.0 64.8 218 218 218
202.1 -36.7 79.1 67 67 67
201.4 -36.2 78.2 63 65 65
196.0 -34.9 75.4 61 64 63
173.5 -30.7 66.1 62 64 64
23.3 -6.5 14.8 221 221 221
23.8 -6.5 14.8 221 221 221
24.2 -6.4 14.5 222 222 222
24.4 -6.3 14.4 222 222 222
23.2 -5.8 13.2 222 222 222
23.4 -5.8 13.1 222 222 222
28.1 -6.5 14.8 225 225 225
27.8 -6.3 14.4 225 225 225
22.4 -6.2 14.8 217 217 217
22.7 -6.2 14.8 219 219 219
23.0 -6.2 14.8 219 219 219
23.4 -6.2 14.8 219 219 219
25.1 -6.2 14.8 222 222 222
25.4 -6.2 14.8 222 222 222
26.2 -6.2 14.8 222 222 222
26.6 -6.2 14.9 222 222 222
26.9 -6.2 14.9 222 222 222
27.4 -6.1 14.7 224 224 224
27.8 -6.2 14.8 224 224 224
28.2 -6.2 14.8 224 224 224
22.0 -5.8 14.8 213 215 215
22.3 -5.8 14.8 218 218 218
22.6 -5.8 14.8 218 218 218
22.9 -5.8 14.8 220 220 220
25.0 -5.8 14.8 224 224 224
25.3 -5.8 14.7 224 224 224
25.7 -5.8 14.7 224 224 224
26.1 -5.8 14.8 220 220 220
26.6 -5.9 14.9 224 224 224
27.3 -5.8 14.7 224 224 224
27.8 -5.8 14.8 224 224 224
28.0 -5.8 14.7 224 224 224
26.1 -5.5 14.8 221 221 221
26.7 -5.5 15.0 225 225 225
26.3 -5.3 14.3 225 225 225
27.2 -5.4 14.7 225 225 225
25.5 -4.9 14.1 225 225 225
26.0 -4.9 14.2 225 225 225
20.9 -3.9 12.0 222 222 222
21.1 -3.9 12.0 222 222 222
21.8 -3.9 12.0 222 222 222
22.0 -3.9 12.0 222 222 222
22.2 -3.9 12.0 222 222 222
22.5 -3.9 11.9 222 222 222
21.0 -3.6 12.1 224 224 224
21.3 -3.6 12.1 224 224 224
21.6 -3.6 12.1 224 224 224
21.9 -3.6 12.1 224 224 224
22.1 -3.6 12.1 224 224 224
22.4 -3.6 12.1 224 224 224
23.0 -2.9 12.4 222 222 222
23.0 -2.6 12.4 224 224 224
26.0 -2.6 12.4 160 160 160
171.8 -44.2 239.4 162 162 162
182.0 -45.4 245.7 195 195 195
192.7 -46.6 252.2 195 195 195
190.9 -44.8 242.5 183 183 183
194.1 -44.2 239.4 183 183 183
199.7 -44.2 239.4 186 186 186
205.2 -44.2 239.4 194 194 194
210.8 -44.2 239.4 194 194 194
216.4 -44.2 239.4 194 194 194
221.9 -44.2 239.4 189 189 189
224.6 -43.7 236.5 176 176 176
23.2 -2.4 12.8 225 225 225
22.9 -2.3 12.3 225 225 225
25.7 -2.3 12.3 160 163 162
537.9 -43.7 236.5 195 195 195
553.0 -43.1 233.5 200 200 200
576.4 -43.7 236.5 230 233 232
547.7 -41.1 222.5 219 222 221
640.9 -47.2 255.6 87 87 87
23.2 -2.1 12.8 225 225 225
22.9 -2.0 12.3 225 225 225
25.7 -2.0 12.3 167 167 167
803.9 -51.8 320.6 79 81 80
23.3 -1.8 12.9 220 223 222
22.9 -1.7 12.3 226 226 226
26.8 -1.8 13.1 228 228 228
25.7 -1.7 12.3 165 165 165
23.0 -1.5 13.0 222 224 224
23.2 -1.5 13.0 222 224 224
23.3 -1.5 12.9 222 224 224
23.5 -1.5 12.8 222 224 224
26.8 -1.5 13.1 220 223 222
467.7 -23.6 205.6 196 196 196
480.3 -22.7 197.0 211 211 211
484.9 -22.7 197.0 192 192 192
504.6 -23.1 201.2 73 73 73
22.7 -1.2 12.9 222 224 224
23.0 -1.2 12.9 222 224 224
23.3 -1.2 12.9 222 224 224
23.4 -1.2 12.8 222 224 224
26.9 -1.2 13.2 226 226 226
26.5 -1.2 12.9 222 224 224
27.5 -1.2 12.9 191 191 191
23.2 -0.9 12.8 223 225 225
26.2 -0.9 12.7 222 224 224
25.8 -0.8 12.3 175 177 177
27.5 -0.9 12.9 192 192 192
25.9 -0.6 12.5 223 225 225
25.7 -0.6 12.3 182 182 182
25.9 -0.3 12.6 220 220 220
25.8 -0.3 12.3 178 181 180
25.8 0.0 12.3 183 183 183
1219.2 0.5 386.0 92 92 92
23.2 0.3 12.8 222 222 222
23.3 0.3 12.7 224 226 226
1244.6 9.7 394.1 208 208 208
23.2 0.6 12.8 224 224 224
23.3 0.6 12.7 224 224 224
93.9 1.2 25.1 87 87 87
90.2 1.1 24.0 87 87 87
23.4 0.9 12.9 222 222 222
84.4 1.6 22.3 87 87 87
23.4 1.2 13.1 224 224 224
23.5 1.2 13.0 224 224 224
83.8 2.1 22.1 90 90 90
86.7 2.7 23.0 90 90 90
84.0 2.6 22.2 96 99 98
87.2 3.3 23.2 94 94 94
84.5 3.1 22.3 94 94 94
99.2 4.4 27.0 94 94 94
99.4 4.4 26.9 86 85 83
100.6 4.4 27.1 86 85 83
86.1 3.7 22.7 98 100 100
99.0 5.1 27.0 95 95 95
99.2 5.0 26.9 87 86 84
100.0 5.0 26.9 87 86 84
97.8 4.9 26.2 87 86 84
100.1 5.7 27.1 87 87 85
100.1 5.7 26.9 87 87 85
-115.1 30.0 53.7 73 74 72
-110.1 29.1 52.0 78 78 78
-91.3 29.6 53.0 90 90 90
-70.5 30.2 54.0 120 122 121
-67.0 29.2 52.3 124 124 124
-65.2 29.0 51.8 227 227 227
-59.4 29.7 53.1 109 109 109
-345.8 71.5 122.8 47 48 47
-314.4 71.5 122.8 131 131 131
-261.3 71.1 122.0 90 90 90
-260.2 71.5 122.8 97 97 97
-246.2 72.5 124.4 127 127 127
-223.1 72.5 124.4 95 94 93
-101.9 34.0 58.4 99 99 99
-97.9 33.1 56.8 105 105 105
-192.9 72.0 123.6 126 126 126
-163.1 71.5 122.8 84 84 84
-73.9 33.0 56.6 86 86 86
-72.1 32.8 56.3 80 83 82
-138.5 70.6 121.3 65 66 64
-131.4 73.0 125.3 68 71 70
-124.4 70.6 121.3 68 70 69
-164.9 121.1 207.9 125 125 125
-119.4 90.3 155.1 114 116 115
-73.7 73.4 126.1 154 156 156
-33.0 34.3 58.9 153 155 155
-256.9 79.6 131.4 134 136 135
-243.0 79.0 130.5 108 108 108
-233.5 76.9 127.0 101 103 103
-235.5 79.6 131.4 98 98 98
-211.2 78.5 129.6 134 136 135
-180.5 79.6 131.4 75 75 75
-177.5 79.6 131.4 77 77 77
-175.6 80.1 132.3 70 72 69
-168.8 81.2 134.2 116 116 116
-163.3 80.1 132.3 88 88 86
-159.2 79.6 131.4 74 74 74
-147.9 78.5 129.6 65 66 64
-196.9 111.2 183.7 69 71 69
-137.8 79.6 131.4 66 66 66
-169.6 110.2 181.9 156 156 156
-100.2 81.2 134.2 111 111 111
-91.2 76.4 126.1 108 108 108
-86.0 74.4 122.8 97 100 99
-86.5 77.4 127.8 82 82 82
-77.3 80.1 132.3 160 160 160
81.0 118.1 195.0 175 177 177
57.6 79.6 131.4 167 167 167
57.9 75.9 125.3 88 90 89
60.8 75.9 125.3 90 90 90
-278.2 264.2 291.0 191 194 193
-33.8 77.0 84.8 147 149 149
212.1 268.3 295.6 189 189 189
-59.4 79.0 84.8 90 90 90
-33.9 79.3 85.2 170 171 170
-31.8 79.0 84.8 74 74 74
192.1 104.9 73.9 79 79 79
-462.6 345.4 239.4 6 11 7
-445.9 341.1 236.5 6 11 7
-434.9 336.8 233.5 15 15 15
76.2 341.1 236.5 196 196 196
-539.3 346.5 236.5 23 23 23
-520.8 338.1 230.7 29 32 30
-515.4 338.1 230.7 106 106 104
-492.1 326.2 222.5 107 107 105
-537.5 360.0 245.7 109 109 107
-538.8 364.8 248.9 104 104 104
-512.7 350.9 239.4 88 88 88
-500.8 346.5 236.5 26 26 26
-466.2 326.2 222.5 21 24 22
-461.0 326.2 222.5 21 24 22
-496.8 355.4 242.5 25 25 25
-507.6 385.1 262.7 6 11 7
-435.1 334.0 227.9 6 11 7
-457.3 355.4 242.5 13 13 13
-446.0 350.9 239.4 20 23 21
-440.4 350.9 239.4 29 33 30
-424.1 342.3 233.5 30 29 29
-423.9 346.5 236.5 28 28 28
-379.9 346.5 236.5 214 214 214
-427.9 396.1 270.2 214 214 214
-383.3 360.0 245.7 209 212 211
-363.4 346.5 236.5 209 212 211
-336.9 326.2 222.5 214 214 214
-408.6 401.8 274.1 203 203 203
-355.8 355.4 242.5 215 215 215
-325.2 330.0 225.2 236 236 236
-340.2 350.9 239.4 208 208 208
-326.4 342.3 233.5 194 197 196
-320.9 342.3 233.5 193 196 195
-319.5 346.5 236.5 99 98 96
-326.2 360.0 245.7 52 52 52
-324.7 364.8 248.9 52 52 52
-310.7 355.4 242.5 56 56 56
-297.5 346.5 236.5 55 54 53
-292.0 346.5 236.5 28 31 29
-290.1 350.9 239.4 35 35 35
-299.7 369.7 252.2 48 50 50
-293.9 369.7 252.2 34 34 34
-266.7 342.3 233.5 35 35 35
-248.9 326.2 222.5 26 30 27
-262.3 350.9 239.4 21 21 21
-266.9 364.8 248.9 21 21 21
-248.0 346.5 236.5 25 29 26
62.9 364.8 248.9 212 213 212
65.3 346.5 236.5 212 213 212
84.5 413.8 282.3 212 213 212
77.2 350.9 239.4 210 210 210
78.8 334.0 227.9 193 193 193
-625.3 408.2 274.1 18 18 18
-587.0 391.2 262.7 69 71 69
-557.7 375.5 252.2 107 107 105
-613.7 426.7 286.6 101 101 101
-580.7 408.2 274.1 41 42 40
-580.1 447.0 300.3 15 15 15
-524.6 414.2 278.2 17 21 18
-525.8 420.4 282.3 46 46 46
-505.2 414.2 278.2 36 37 36
-420.5 426.7 286.6 91 91 91
-364.2 375.5 252.2 80 82 79
-368.3 420.4 282.3 59 59 59
-367.2 426.7 286.6 61 61 61
-350.0 414.2 278.2 58 58 58
-338.5 408.2 274.1 34 34 34
-352.6 433.3 291.0 29 32 30
-351.2 440.1 295.6 48 48 48
-349.8 447.0 300.3 43 43 43
-308.6 402.3 270.2 34 34 34
-278.4 370.6 248.9 25 25 25
-302.7 420.4 282.3 14 18 15
-268.1 380.6 255.6 24 24 24
81.9 531.4 356.9 210 210 210
74.7 440.1 295.6 210 210 210
106.8 531.4 356.9 210 210 210
82.4 380.6 255.6 210 210 210
83.8 361.1 242.5 198 198 198
95.3 446.9 295.6 210 210 210
119.6 569.5 370.9 205 208 207
122.0 589.7 378.3 202 204 204
