ply
format ascii 1.0
element vertex 2423
property float x
property float y
property float z
property uchar red
property uchar green
property uchar blue
end_header
104.9 -174.5 69.5 159 159 159
105.3 -172.6 68.8 159 159 159
106.9 -172.6 68.8 154 156 156
108.9 -173.2 69.0 155 158 157
110.9 -173.9 69.3 155 158 157
110.9 -171.3 68.3 156 159 158
94.1 -67.8 27.0 98 100 100
94.8 -67.8 27.0 95 98 97
100.9 -163.8 65.9 159 159 159
98.3 -157.3 63.3 159 159 159
107.0 -168.5 67.8 160 160 160
109.7 -170.4 68.5 155 158 157
107.4 -164.4 66.1 156 159 158
75.4 -54.2 21.8 98 100 100
91.8 -65.5 26.3 98 100 100
63.3 -43.1 17.4 159 159 159
62.8 -42.6 17.1 196 199 198
63.4 -42.4 17.1 195 195 195
64.4 -42.8 17.2 148 148 148
64.5 -42.6 17.1 196 199 198
64.1 -42.1 16.9 208 208 208
225.8 -461.2 187.3 164 164 164
219.3 -439.5 178.5 161 161 161
219.3 -431.3 175.2 164 164 164
221.3 -427.4 173.5 161 161 161
221.3 -419.7 170.4 161 161 161
80.5 -129.4 52.5 162 162 162
77.6 -122.9 49.9 162 162 162
87.0 -130.1 52.8 161 161 161
82.5 -121.6 49.4 161 161 161
119.8 -90.1 36.6 105 105 105
76.7 -54.9 22.3 98 100 100
74.2 -52.8 21.4 98 100 100
73.8 -52.2 21.2 95 98 97
74.0 -52.0 21.1 94 94 94
61.5 -41.5 16.9 159 159 159
60.6 -40.6 16.5 196 199 198
60.0 -40.0 16.3 195 195 195
62.7 -41.6 16.9 206 206 206
62.2 -40.9 16.6 162 165 164
63.4 -41.5 16.9 162 165 164
62.2 -40.5 16.4 211 211 211
61.9 -40.0 16.3 193 193 193
64.7 -41.6 16.9 195 195 195
74.8 -151.3 62.0 164 164 164
136.5 -256.3 105.1 164 164 164
67.7 -106.3 43.6 162 162 162
118.0 -182.4 74.8 163 163 163
125.1 -190.7 78.2 163 163 163
121.0 -181.7 74.5 164 164 164
96.8 -143.3 58.7 164 164 164
74.7 -107.6 44.1 165 165 165
174.7 -235.4 96.5 159 162 161
123.7 -92.8 38.1 105 105 105
116.6 -86.9 35.6 105 105 105
111.4 -82.4 33.8 103 102 100
72.1 -50.8 20.8 98 100 100
72.2 -50.5 20.7 95 98 97
71.9 -50.0 20.5 94 94 94
60.0 -39.9 16.3 195 195 195
58.7 -38.8 15.9 195 195 195
61.2 -39.9 16.4 211 211 211
61.5 -39.9 16.3 211 211 211
61.5 -39.6 16.3 196 199 198
61.6 -39.4 16.2 204 204 204
62.6 -39.8 16.3 219 219 219
63.3 -124.5 51.5 166 166 166
63.8 -123.2 51.0 166 166 166
63.2 -98.3 40.7 162 162 162
127.0 -194.5 80.5 166 166 166
130.5 -197.0 81.5 166 166 166
122.9 -182.8 75.7 167 167 167
103.5 -151.8 62.8 164 164 164
151.5 -202.2 83.7 164 164 164
121.3 -90.1 37.3 107 107 107
114.1 -84.2 34.8 105 105 105
108.7 -79.6 33.0 103 102 100
68.3 -47.1 19.5 94 94 94
66.7 -45.7 18.9 94 94 94
65.8 -44.8 18.5 92 92 92
66.2 -44.7 18.5 92 92 92
54.9 -35.7 14.8 188 188 188
58.5 -37.1 15.4 217 217 217
56.7 -35.8 14.8 217 217 217
23.0 -91.4 38.2 166 169 168
23.8 -91.3 38.1 166 169 168
25.9 -92.2 38.5 166 169 168
26.6 -91.6 38.3 166 169 168
27.4 -91.4 38.2 166 169 168
28.3 -91.4 38.2 166 169 168
29.3 -91.8 38.4 166 169 168
30.1 -91.6 38.3 165 165 165
31.0 -91.4 38.2 163 163 163
31.9 -91.4 38.2 166 166 166
32.8 -91.4 38.2 166 166 166
33.6 -91.4 38.2 166 166 166
34.5 -91.4 38.2 166 166 166
35.4 -91.4 38.2 166 166 166
36.3 -91.4 38.2 166 166 166
37.3 -91.6 38.3 168 170 169
38.1 -91.4 38.2 168 170 169
39.0 -91.4 38.2 166 166 166
39.8 -91.3 38.1 166 166 166
40.7 -91.4 38.2 166 166 166
41.6 -91.4 38.2 166 166 166
42.5 -91.4 38.2 166 166 166
43.4 -91.4 38.2 166 166 166
44.4 -91.6 38.3 166 166 166
45.4 -91.8 38.4 166 166 166
46.3 -91.8 38.4 168 170 169
47.4 -92.4 38.6 168 170 169
48.7 -93.1 38.9 168 170 169
48.6 -91.3 38.1 168 170 169
49.2 -90.7 37.9 169 171 170
50.2 -90.9 38.0 169 171 170
51.6 -91.8 38.4 169 171 170
58.6 -91.6 38.3 167 167 167
60.0 -92.4 38.6 167 167 167
60.2 -91.3 38.1 170 172 172
132.8 -198.5 83.0 168 168 168
123.9 -182.5 76.3 168 168 168
111.7 -162.2 67.8 169 169 169
147.6 -195.1 81.5 167 167 167
140.4 -183.3 76.6 167 167 167
120.1 -88.4 36.9 105 105 105
111.8 -81.7 34.1 105 105 105
65.0 -44.0 18.4 94 94 94
64.0 -43.1 18.0 94 94 94
64.4 -43.1 18.0 95 98 97
63.9 -42.5 17.8 107 107 107
53.6 -34.5 14.4 179 182 181
52.6 -33.7 14.1 182 185 184
55.0 -34.5 14.4 217 217 217
55.8 -34.9 14.6 219 219 219
22.5 -88.6 37.4 166 169 168
23.0 -87.4 36.9 166 169 168
26.1 -88.9 37.5 166 169 168
26.5 -87.5 36.9 166 169 168
27.3 -87.2 36.8 166 169 168
28.3 -87.7 37.0 166 169 168
29.0 -87.2 36.8 166 169 168
29.7 -86.9 36.7 166 169 168
30.8 -87.5 36.9 166 169 168
31.7 -87.5 36.9 168 170 169
32.5 -87.5 36.9 168 170 169
33.3 -87.4 36.9 168 170 169
34.2 -87.5 36.9 168 170 169
35.1 -87.5 36.9 168 170 169
36.0 -87.7 37.0 168 170 169
36.8 -87.5 36.9 168 170 169
37.6 -87.4 36.9 171 173 173
38.5 -87.4 36.9 168 170 169
39.4 -87.5 36.9 168 170 169
40.3 -87.5 36.9 168 170 169
41.1 -87.5 36.9 171 173 173
42.6 -88.9 37.5 171 173 173
43.5 -88.9 37.5 168 170 169
43.9 -87.9 37.1 168 170 169
44.7 -87.9 37.1 168 170 169
45.8 -88.2 37.2 168 170 169
47.2 -89.3 37.7 168 170 169
47.1 -87.5 36.9 171 173 173
47.1 -85.9 36.2 171 173 173
48.3 -86.5 36.5 169 171 170
50.1 -88.2 37.2 172 174 174
51.6 -89.3 37.7 169 171 170
51.7 -88.1 37.2 169 171 170
53.5 -89.6 37.8 169 171 170
54.2 -89.3 37.7 169 171 170
53.9 -87.4 36.9 169 171 170
56.6 -87.5 36.9 167 167 167
57.7 -87.9 37.1 172 174 174
58.3 -87.5 36.9 170 172 172
59.7 -88.4 37.3 170 172 172
128.0 -186.8 78.8 173 175 175
54.1 -72.6 30.7 166 166 166
53.7 -71.1 30.0 173 175 175
57.2 -74.0 31.2 170 171 170
74.3 -51.6 21.8 98 100 100
63.2 -42.2 17.8 95 98 97
51.8 -32.8 13.9 188 188 188
20.7 -83.9 35.8 166 169 168
21.5 -83.9 35.8 166 169 168
22.3 -83.9 35.8 166 169 168
25.7 -84.1 35.8 166 169 168
26.3 -83.4 35.6 166 169 168
28.2 -84.1 35.8 166 169 168
28.8 -83.3 35.5 166 169 168
29.8 -83.7 35.7 171 173 173
31.5 -84.1 35.8 168 170 169
34.9 -84.1 35.8 171 173 173
35.7 -84.1 35.8 175 175 175
36.5 -83.9 35.8 175 175 175
37.4 -84.1 35.8 175 175 175
38.3 -84.2 35.9 171 173 173
39.0 -84.1 35.8 171 173 173
39.6 -83.6 35.6 176 176 176
40.5 -83.7 35.7 176 176 176
41.4 -83.7 35.7 168 170 169
42.4 -84.2 35.9 168 170 169
43.4 -84.5 36.0 176 176 176
44.4 -84.9 36.2 176 176 176
45.4 -85.0 36.2 176 176 176
45.8 -84.2 35.9 181 181 181
45.9 -83.0 35.4 179 179 179
47.1 -83.6 35.6 179 179 179
48.7 -85.0 36.2 176 176 176
50.2 -86.0 36.7 172 174 174
50.2 -84.7 36.1 169 171 170
52.2 -86.5 36.9 177 177 177
52.8 -86.2 36.7 179 179 179
52.0 -83.4 35.6 179 179 179
55.1 -84.4 36.0 177 177 177
55.9 -84.4 36.0 182 182 182
56.8 -84.5 36.0 180 180 180
58.7 -86.0 36.7 173 175 175
54.2 -72.2 30.8 173 175 175
54.4 -71.5 30.5 176 179 178
58.0 -75.2 32.1 173 175 175
58.1 -74.3 31.7 174 176 176
73.7 -51.4 21.9 103 102 100
76.8 -53.2 22.7 98 100 100
73.4 -50.4 21.5 98 100 100
21.1 -81.5 35.1 166 169 168
21.9 -81.5 35.1 170 172 172
22.7 -81.2 35.0 166 169 168
25.3 -81.8 35.2 174 174 174
25.9 -81.1 34.9 170 172 172
26.7 -81.2 35.0 170 172 172
27.8 -82.1 35.4 177 177 177
28.3 -81.1 34.9 175 175 175
29.2 -81.2 35.0 171 173 173
30.1 -81.5 35.1 181 181 181
30.9 -81.5 35.1 171 173 173
33.3 -81.5 35.1 181 181 181
34.3 -81.8 35.2 175 175 175
35.1 -81.8 35.2 171 173 173
35.9 -81.7 35.2 183 183 183
36.7 -81.8 35.2 186 186 186
37.7 -82.1 35.4 186 186 186
38.2 -81.5 35.1 186 186 186
38.8 -81.1 34.9 186 186 186
39.8 -81.4 35.0 191 191 191
40.5 -81.2 35.0 193 193 193
42.0 -82.6 35.6 193 193 193
43.1 -83.1 35.8 195 195 195
44.0 -83.2 35.8 195 195 195
44.9 -83.2 35.8 195 195 195
45.1 -82.1 35.4 195 195 195
45.4 -81.2 35.0 195 195 195
46.4 -81.5 35.1 198 198 198
47.9 -82.8 35.6 195 195 195
49.6 -84.2 36.2 195 195 195
49.5 -82.6 35.6 198 198 198
51.4 -84.3 36.3 198 198 198
51.7 -83.5 36.0 198 198 198
50.8 -80.8 34.8 198 198 198
51.6 -80.8 34.8 202 202 202
55.0 -83.4 35.9 192 192 192
55.3 -82.6 35.6 195 195 195
58.3 -85.8 36.9 199 199 199
58.6 -85.0 36.6 199 199 199
58.5 -83.7 36.0 203 203 203
178.1 -251.1 108.1 200 200 200
70.8 -48.8 21.0 103 102 100
70.0 -48.0 20.7 103 102 100
71.9 -48.9 21.1 98 100 100
43.1 -77.7 33.8 202 202 202
40.7 -70.9 30.8 202 202 202
45.7 -78.1 34.0 202 202 202
48.0 -79.4 34.5 202 202 202
47.6 -77.4 33.7 202 202 202
46.5 -73.2 31.8 202 202 202
45.9 -71.1 30.9 202 202 202
137.2 -194.2 84.4 203 203 203
172.2 -240.4 104.5 204 204 204
164.6 -226.6 98.5 204 204 204
151.1 -205.2 89.2 204 204 204
16.0 -68.5 30.1 204 204 204
17.2 -67.8 29.8 203 203 203
18.7 -68.2 30.0 205 205 205
19.4 -68.2 30.0 205 205 205
20.1 -68.1 29.9 203 203 203
20.6 -67.4 29.6 203 203 203
21.2 -67.2 29.5 203 203 203
22.2 -68.1 29.9 203 203 203
22.9 -68.2 30.0 203 203 203
23.5 -67.8 29.8 205 205 205
24.1 -67.8 29.8 205 205 205
25.1 -68.5 30.1 205 205 205
25.7 -68.2 30.0 205 205 205
26.3 -68.1 29.9 205 205 205
27.0 -67.9 29.8 205 205 205
27.9 -68.5 30.1 205 205 205
29.2 -68.4 30.0 205 205 205
29.9 -68.2 30.0 205 205 205
30.6 -68.2 30.0 205 205 205
31.2 -68.1 29.9 205 205 205
32.0 -68.2 30.0 205 205 205
32.5 -67.9 29.8 205 205 205
33.3 -68.0 29.9 202 202 202
33.7 -67.5 29.6 202 202 202
34.5 -67.8 29.8 205 205 205
35.6 -68.6 30.1 205 205 205
36.3 -68.5 30.1 205 205 205
37.1 -68.7 30.2 205 205 205
38.0 -69.0 30.3 205 205 205
38.4 -68.5 30.1 205 205 205
39.1 -68.6 30.1 205 205 205
39.9 -68.8 30.2 205 205 205
40.8 -69.0 30.3 205 205 205
41.4 -68.9 30.3 205 205 205
42.1 -68.9 30.3 205 205 205
43.0 -69.2 30.4 205 205 205
43.7 -69.1 30.4 205 205 205
44.3 -69.0 30.3 205 205 205
44.7 -68.6 30.1 205 205 205
44.7 -67.5 29.6 205 205 205
45.5 -67.6 29.7 205 205 205
129.2 -186.4 81.9 206 206 206
131.7 -187.2 82.2 206 206 206
129.6 -181.7 79.8 203 203 203
154.3 -213.2 93.6 204 204 204
153.4 -209.1 91.8 207 207 207
141.1 -189.7 83.3 204 204 204
107.9 -141.2 62.0 205 205 205
18.5 -66.6 29.6 208 208 208
19.1 -66.6 29.6 205 205 205
19.8 -66.6 29.6 208 208 208
20.4 -66.2 29.4 205 205 205
20.9 -65.7 29.1 205 205 205
21.8 -66.4 29.5 205 205 205
22.6 -66.6 29.6 205 205 205
23.2 -66.4 29.5 208 208 208
23.9 -66.5 29.5 208 208 208
24.7 -66.7 29.6 208 208 208
25.3 -66.6 29.6 208 208 208
26.0 -66.5 29.5 208 208 208
26.7 -66.6 29.6 208 208 208
28.8 -66.6 29.6 208 208 208
29.4 -66.5 29.5 208 208 208
30.1 -66.6 29.6 208 208 208
30.8 -66.6 29.6 208 208 208
31.5 -66.6 29.6 205 205 205
32.1 -66.4 29.5 205 205 205
32.9 -66.6 29.6 205 205 205
33.4 -66.3 29.4 205 205 205
35.1 -66.8 29.6 205 205 205
35.7 -66.8 29.6 205 205 205
36.5 -66.9 29.7 205 205 205
37.5 -67.6 30.0 205 205 205
37.8 -66.8 29.6 205 205 205
38.3 -66.5 29.5 205 205 205
39.4 -67.2 29.8 205 205 205
40.6 -68.0 30.2 207 207 207
41.0 -67.6 30.0 207 207 207
41.5 -67.1 29.8 207 207 207
42.6 -67.9 30.1 205 205 205
43.4 -68.0 30.2 205 205 205
43.8 -67.6 30.0 205 205 205
44.1 -66.9 29.7 205 205 205
44.3 -66.2 29.4 205 205 205
44.8 -66.0 29.3 205 205 205
45.8 -66.4 29.5 205 205 205
109.7 -150.1 66.6 207 207 207
114.8 -150.6 66.8 205 205 205
105.5 -136.6 60.6 205 205 205
97.5 -124.6 55.3 205 205 205
41.5 -68.8 30.9 207 207 207
41.8 -68.0 30.5 207 207 207
43.9 -69.2 31.0 207 207 207
44.0 -68.3 30.6 207 207 207
43.6 -66.5 29.8 207 207 207
43.9 -65.9 29.6 207 207 207
43.5 -64.4 28.9 207 207 207
42.3 -61.6 27.6 210 210 210
111.7 -151.2 67.8 206 206 206
105.2 -134.8 60.4 207 207 207
26.8 -33.5 15.0 208 208 208
41.6 -68.3 31.0 206 206 206
44.5 -68.2 30.9 206 206 206
44.5 -67.2 30.5 206 206 206
44.2 -65.7 29.8 206 206 206
42.0 -60.6 27.5 206 206 206
128.0 -173.9 78.8 207 207 207
27.6 -34.5 15.6 207 207 207
-19.6 -21.9 10.0 105 107 107
-19.4 -21.9 10.0 105 107 107
44.5 -67.6 31.0 206 206 206
44.2 -66.0 30.2 206 206 206
43.9 -64.5 29.6 206 206 206
44.0 -63.7 29.2 206 206 206
40.8 -57.4 26.3 206 206 206
126.9 -170.7 78.2 207 207 207
26.9 -32.8 15.0 207 207 207
-20.3 -22.4 10.4 101 101 101
-20.0 -22.3 10.3 106 106 106
-15.4 -22.4 10.4 121 121 121
-14.9 -21.9 10.1 121 121 121
-13.6 -22.2 10.3 125 125 125
-13.3 -22.0 10.2 128 128 128
-9.0 -22.4 10.4 139 138 137
44.6 -67.0 31.0 205 205 205
43.9 -63.9 29.6 205 205 205
44.2 -63.4 29.3 205 205 205
41.1 -58.0 26.9 208 208 208
40.8 -56.8 26.3 206 206 206
27.9 -34.2 15.8 206 206 206
-21.8 -22.7 10.6 48 48 48
-21.6 -22.8 10.7 64 64 64
-21.4 -22.8 10.7 84 84 84
-21.1 -22.8 10.7 90 90 90
-20.8 -22.7 10.6 90 90 90
-19.4 -22.8 10.7 106 106 106
-9.5 -23.6 11.0 139 138 137
44.6 -66.3 31.0 208 208 208
45.2 -66.2 31.0 208 208 208
44.2 -63.6 29.7 208 208 208
44.3 -62.8 29.4 205 205 205
44.0 -61.4 28.7 205 205 205
27.9 -33.9 15.8 205 205 205
-22.7 -23.7 11.2 46 45 43
-22.4 -23.7 11.2 46 45 43
-22.1 -23.6 11.2 51 51 51
-20.7 -23.8 11.2 101 101 101
-20.4 -23.7 11.2 101 101 101
-20.0 -23.6 11.2 103 103 103
-23.0 -27.5 13.0 103 103 103
-10.5 -23.7 11.2 129 132 131
-10.1 -23.6 11.1 129 132 131
-9.9 -23.6 11.2 135 135 135
-9.6 -23.6 11.2 134 137 136
-9.4 -23.6 11.2 138 137 136
-9.1 -23.7 11.2 139 139 139
-8.9 -23.7 11.2 140 142 141
-8.6 -23.6 11.2 144 144 144
-8.4 -23.6 11.2 146 146 146
-8.1 -23.7 11.2 146 146 146
-6.6 -23.8 11.2 164 164 164
-6.3 -23.7 11.2 168 170 169
-6.0 -23.6 11.2 166 169 168
-5.8 -23.7 11.2 164 167 166
-5.5 -23.6 11.2 169 169 169
-5.2 -23.7 11.2 170 171 170
-5.0 -23.8 11.2 175 175 175
-4.7 -23.7 11.2 174 176 176
-4.5 -23.7 11.2 173 175 175
-4.2 -23.7 11.2 174 176 176
-3.9 -23.7 11.2 178 178 178
-3.7 -23.7 11.2 180 180 180
-3.4 -23.7 11.2 180 180 180
-3.2 -23.7 11.2 182 182 182
-2.9 -23.6 11.2 181 181 181
-2.6 -23.6 11.2 181 181 181
-2.4 -23.6 11.2 181 181 181
-2.1 -23.7 11.2 184 184 184
-1.9 -23.7 11.2 184 184 184
-1.6 -23.7 11.2 181 181 181
-1.3 -23.7 11.2 181 181 181
-1.1 -23.7 11.2 181 181 181
-0.8 -23.7 11.2 180 180 180
-0.6 -23.7 11.2 180 180 180
-0.3 -23.6 11.2 180 180 180
-0.0 -23.6 11.2 180 180 180
0.2 -23.6 11.2 183 183 183
0.5 -23.8 11.2 183 183 183
0.8 -23.7 11.2 182 182 182
1.0 -23.7 11.2 186 186 186
46.6 -70.8 33.5 208 208 208
46.1 -68.8 32.6 208 208 208
45.3 -66.5 31.5 208 208 208
45.5 -65.9 31.2 208 208 208
44.9 -64.0 30.3 207 207 207
44.6 -62.5 29.6 207 207 207
44.5 -61.4 29.1 207 207 207
45.0 -61.1 28.9 205 205 205
51.4 -68.8 32.6 208 208 208
52.3 -69.1 32.7 208 208 208
52.5 -68.4 32.3 205 205 205
26.9 -31.8 15.0 207 207 207
-23.0 -23.7 11.3 42 42 42
-22.7 -23.7 11.3 44 44 44
-10.0 -23.5 11.2 127 127 127
-9.7 -23.4 11.2 126 129 128
-9.4 -23.5 11.3 133 133 133
-9.2 -23.6 11.3 136 135 134
-9.0 -23.6 11.3 140 142 141
-8.7 -23.5 11.3 156 156 156
-8.4 -23.5 11.3 154 154 154
-8.1 -23.5 11.3 155 155 155
9.2 -23.8 11.4 211 211 211
9.5 -23.8 11.4 211 211 211
47.0 -70.6 33.8 207 207 207
46.1 -68.2 32.6 207 207 207
46.0 -66.8 32.0 207 207 207
46.2 -66.0 31.6 207 207 207
45.1 -60.7 29.0 207 207 207
51.3 -68.0 32.5 207 207 207
52.6 -68.7 32.8 208 208 208
52.7 -67.8 32.4 208 208 208
53.1 -67.4 32.2 205 205 205
27.0 -31.6 15.1 206 206 206
-13.9 -28.7 13.9 108 110 110
-13.6 -28.6 13.8 112 112 112
-12.1 -29.7 14.4 116 118 117
-11.7 -29.5 14.3 117 119 118
-11.3 -29.5 14.3 142 144 143
-11.0 -29.6 14.3 162 162 162
-10.0 -29.5 14.3 163 166 165
-9.7 -29.5 14.3 167 167 167
-9.0 -29.6 14.3 176 176 176
-4.0 -29.7 14.4 191 191 191
-3.7 -29.6 14.3 191 191 191
-1.7 -29.6 14.3 188 188 188
-1.4 -29.6 14.3 188 188 188
-1.0 -29.5 14.3 184 184 184
-0.4 -29.7 14.4 184 184 184
7.3 -29.7 14.4 207 207 207
8.3 -29.8 14.4 210 210 210
8.6 -29.6 14.3 210 210 210
8.9 -29.6 14.3 210 210 210
9.3 -29.6 14.3 210 210 210
9.6 -29.5 14.3 210 210 210
9.9 -29.6 14.3 210 210 210
10.2 -29.5 14.3 210 210 210
10.6 -29.6 14.3 210 210 210
10.9 -29.6 14.3 207 207 207
11.3 -29.7 14.4 210 210 210
11.6 -29.6 14.3 210 210 210
11.9 -29.5 14.3 210 210 210
12.2 -29.5 14.3 210 210 210
12.6 -29.5 14.3 210 210 210
12.9 -29.5 14.3 210 210 210
13.2 -29.5 14.3 207 207 207
13.6 -29.6 14.3 207 207 207
14.0 -29.7 14.4 207 207 207
14.3 -29.6 14.3 207 207 207
14.5 -29.5 14.3 207 207 207
14.9 -29.5 14.3 207 207 207
15.3 -29.7 14.4 207 207 207
15.6 -29.6 14.3 207 207 207
46.2 -67.5 32.7 207 207 207
45.9 -65.9 31.9 207 207 207
46.4 -65.6 31.7 207 207 207
42.7 -56.8 27.5 207 207 207
53.2 -67.8 32.8 204 204 204
27.7 -32.0 15.5 206 206 206
26.1 -29.8 14.4 206 206 206
-15.2 -29.6 14.5 99 99 99
-14.8 -29.5 14.4 98 98 98
-14.4 -29.4 14.4 90 90 90
-14.0 -29.2 14.3 74 74 74
-13.7 -29.4 14.4 72 72 72
-12.1 -29.5 14.4 25 25 25
-11.8 -29.4 14.4 33 35 34
-11.1 -29.5 14.4 180 183 182
-6.1 -29.6 14.5 198 198 198
-5.8 -29.5 14.5 197 197 197
-3.7 -29.6 14.5 193 193 193
-3.4 -29.6 14.5 192 192 192
-3.1 -29.6 14.5 192 192 192
-2.7 -29.6 14.5 192 192 192
-2.4 -29.5 14.5 192 192 192
-2.1 -29.5 14.4 192 192 192
4.3 -29.5 14.4 182 182 182
5.0 -29.6 14.5 182 182 182
5.3 -29.5 14.5 178 178 178
5.7 -29.5 14.4 178 178 178
6.7 -29.6 14.5 204 204 204
8.1 -30.0 14.7 210 210 210
8.4 -29.7 14.5 210 210 210
8.7 -29.5 14.4 210 210 210
9.0 -29.5 14.5 210 210 210
9.4 -29.5 14.5 210 210 210
9.7 -29.5 14.5 210 210 210
10.0 -29.5 14.4 210 210 210
10.3 -29.5 14.4 210 210 210
10.7 -29.5 14.4 210 210 210
11.1 -29.6 14.5 210 210 210
11.4 -29.6 14.5 210 210 210
11.7 -29.6 14.5 210 210 210
12.0 -29.5 14.5 210 210 210
12.4 -29.5 14.5 210 210 210
12.7 -29.5 14.5 211 211 211
13.1 -29.5 14.5 210 210 210
13.4 -29.5 14.4 207 207 207
13.7 -29.6 14.5 206 206 206
14.1 -29.6 14.5 206 206 206
14.4 -29.5 14.4 206 206 206
14.7 -29.5 14.5 203 203 203
15.1 -29.6 14.5 206 206 206
15.4 -29.6 14.5 206 206 206
15.8 -29.6 14.5 206 206 206
16.1 -29.6 14.5 206 206 206
16.7 -29.5 14.4 206 206 206
17.5 -29.7 14.5 203 203 203
58.8 -75.1 36.7 207 207 207
27.7 -31.7 15.5 205 205 205
-13.9 -29.4 14.5 26 26 26
-10.5 -24.6 12.2 30 30 30
-9.8 -24.9 12.3 121 121 121
-9.4 -24.8 12.3 183 183 183
-4.6 -24.8 12.3 202 202 202
-4.3 -24.8 12.3 200 200 200
-4.0 -24.8 12.3 199 199 199
-3.5 -24.8 12.3 199 199 199
-3.2 -24.8 12.3 197 197 197
-2.3 -24.9 12.3 193 193 193
-2.0 -24.8 12.3 196 196 196
-1.7 -24.8 12.3 196 196 196
-1.5 -24.8 12.3 199 199 199
-1.2 -24.8 12.3 196 196 196
-0.9 -24.9 12.3 193 193 193
-0.6 -24.8 12.3 193 193 193
-0.0 -24.8 12.3 193 193 193
0.2 -24.7 12.2 191 191 191
0.5 -24.8 12.3 191 191 191
0.8 -24.7 12.2 191 191 191
6.8 -24.8 12.3 209 209 209
7.7 -24.9 12.3 209 209 209
8.0 -25.0 12.4 209 209 209
8.3 -24.9 12.3 209 209 209
8.5 -24.8 12.3 209 209 209
8.8 -24.8 12.3 209 209 209
9.1 -24.8 12.3 209 209 209
9.4 -24.7 12.2 209 209 209
9.7 -24.8 12.3 209 209 209
10.0 -24.9 12.3 209 209 209
10.3 -24.9 12.3 209 209 209
10.5 -24.8 12.3 209 209 209
10.8 -24.8 12.3 209 209 209
11.1 -24.9 12.3 209 209 209
11.4 -24.8 12.3 206 206 206
11.7 -24.8 12.3 206 206 206
11.9 -24.8 12.3 206 206 206
12.2 -24.8 12.3 206 206 206
12.5 -24.8 12.3 206 206 206
12.8 -24.9 12.3 209 209 209
13.1 -24.9 12.3 209 209 209
13.4 -24.8 12.3 206 206 206
13.7 -24.8 12.3 206 206 206
14.0 -24.9 12.3 209 209 209
14.3 -24.9 12.3 209 209 209
14.5 -24.7 12.2 209 209 209
14.8 -24.9 12.3 209 209 209
15.1 -24.9 12.3 209 209 209
43.0 -58.5 29.0 206 206 206
43.2 -57.9 28.7 206 206 206
43.3 -57.1 28.3 206 206 206
43.0 -55.9 27.7 206 206 206
42.3 -54.2 26.8 206 206 206
44.0 -55.5 27.5 206 206 206
44.6 -55.5 27.5 206 206 206
-10.5 -24.4 12.2 31 31 31
-10.3 -24.4 12.2 33 36 35
-9.7 -24.5 12.3 138 140 139
-9.4 -24.5 12.3 179 182 181
-4.3 -24.5 12.3 204 204 204
-4.0 -24.5 12.3 204 204 204
-3.7 -24.5 12.3 202 202 202
-3.5 -24.5 12.3 202 202 202
-3.2 -24.5 12.3 198 198 198
-2.3 -24.6 12.3 195 195 195
-0.9 -24.5 12.3 198 198 198
-0.6 -24.5 12.3 195 195 195
-0.3 -24.5 12.2 195 195 195
0.8 -24.4 12.2 192 192 192
7.1 -24.5 12.3 209 209 209
7.4 -24.5 12.3 209 209 209
7.7 -24.6 12.3 209 209 209
8.0 -24.7 12.3 209 209 209
8.2 -24.6 12.3 209 209 209
8.5 -24.5 12.3 209 209 209
8.8 -24.5 12.3 209 209 209
9.1 -24.5 12.2 209 209 209
9.3 -24.4 12.2 209 209 209
9.6 -24.5 12.2 209 209 209
10.0 -24.5 12.3 209 209 209
10.2 -24.5 12.3 209 209 209
10.5 -24.5 12.3 209 209 209
10.8 -24.5 12.3 209 209 209
11.1 -24.5 12.3 209 209 209
11.4 -24.5 12.3 209 209 209
11.6 -24.5 12.3 209 209 209
11.9 -24.5 12.2 209 209 209
12.2 -24.5 12.3 209 209 209
12.5 -24.5 12.3 209 209 209
12.8 -24.5 12.3 205 205 205
13.1 -24.5 12.3 205 205 205
13.4 -24.5 12.3 205 205 205
13.7 -24.5 12.3 205 205 205
14.0 -24.6 12.3 208 208 208
14.2 -24.5 12.3 208 208 208
14.5 -24.4 12.2 208 208 208
15.1 -24.6 12.3 208 208 208
15.4 -24.5 12.3 208 208 208
42.0 -59.2 29.6 208 208 208
43.4 -56.7 28.4 205 205 205
43.4 -55.8 27.9 205 205 205
45.4 -55.9 28.0 206 206 206
45.9 -55.7 27.9 206 206 206
47.7 -56.2 28.1 206 206 206
31.0 -30.3 15.2 202 202 202
-33.4 -23.6 12.0 59 60 58
-33.1 -23.6 12.0 59 60 58
-32.8 -23.6 12.0 59 60 58
-32.5 -23.6 11.9 59 60 58
-32.3 -23.6 11.9 61 61 61
-32.0 -23.6 12.0 57 57 57
-31.7 -23.6 12.0 59 60 58
-31.4 -23.6 12.0 59 60 58
-31.1 -23.6 11.9 59 60 58
-30.9 -23.6 12.0 59 60 58
-30.6 -23.6 12.0 59 60 58
-30.3 -23.6 12.0 57 57 57
-30.0 -23.6 11.9 57 57 57
-29.8 -23.6 11.9 57 57 57
-29.5 -23.6 12.0 54 54 54
-29.0 -23.6 12.0 53 52 52
-28.6 -23.6 11.9 53 52 52
-28.3 -23.6 11.9 51 50 48
-28.1 -23.6 11.9 51 51 49
-27.8 -23.6 12.0 51 51 49
-27.6 -23.6 12.0 48 48 48
-27.3 -23.6 12.0 48 48 48
-25.8 -23.6 11.9 48 48 48
-25.6 -23.6 11.9 46 46 46
-25.2 -23.5 11.9 47 47 47
-25.0 -23.6 11.9 47 47 47
-24.8 -23.6 12.0 47 47 47
-24.5 -23.6 11.9 47 47 47
-24.1 -23.5 11.9 49 49 49
-22.9 -23.6 12.0 43 43 43
-22.6 -23.6 12.0 41 41 41
-22.3 -23.7 12.0 41 41 41
-21.8 -23.4 11.9 41 41 41
-20.6 -23.6 11.9 42 43 42
-20.1 -23.6 12.0 42 43 42
-10.5 -23.9 12.1 34 34 34
-10.1 -23.7 12.0 34 36 36
-9.8 -23.6 11.9 40 40 40
8.0 -20.8 10.5 208 208 208
8.8 -20.9 10.6 208 208 208
9.0 -20.7 10.5 208 208 208
9.5 -20.8 10.5 208 208 208
10.0 -20.8 10.5 208 208 208
10.3 -20.8 10.5 208 208 208
10.5 -20.9 10.6 208 208 208
11.6 -21.0 10.6 205 205 205
41.4 -57.7 29.2 208 208 208
43.9 -57.5 29.1 208 208 208
43.4 -56.0 28.4 208 208 208
43.5 -55.2 28.0 208 208 208
45.8 -55.7 28.2 205 205 205
46.1 -55.2 28.0 206 206 206
47.2 -55.8 28.3 206 206 206
48.0 -55.9 28.3 206 206 206
48.6 -55.8 28.3 206 206 206
30.7 -30.0 15.2 204 204 204
31.2 -30.2 15.3 204 204 204
31.6 -30.2 15.3 172 172 172
32.4 -30.3 15.4 185 185 185
-34.7 -24.0 12.3 59 60 58
-33.8 -24.0 12.3 62 62 62
-30.4 -24.0 12.3 53 53 53
-30.0 -24.0 12.3 55 55 55
-28.2 -23.9 12.3 52 52 50
-27.9 -23.9 12.2 52 52 50
-27.6 -23.8 12.2 49 49 49
-27.3 -23.9 12.2 49 49 49
-27.1 -24.0 12.3 52 52 50
-26.9 -24.0 12.3 52 52 50
-26.5 -23.9 12.3 49 49 49
-26.1 -23.8 12.2 49 49 49
-25.8 -23.8 12.2 47 48 47
-25.7 -23.9 12.3 47 48 47
-25.4 -23.9 12.3 47 48 47
-25.0 -23.8 12.2 47 48 47
-24.7 -23.8 12.2 47 48 47
-23.7 -23.9 12.3 46 46 46
-23.4 -23.9 12.3 44 44 44
-23.2 -24.0 12.3 42 42 42
-22.8 -23.9 12.3 42 42 42
-22.0 -24.0 12.3 42 43 42
-21.7 -23.9 12.3 42 42 40
-21.4 -24.0 12.3 42 42 40
-21.1 -23.9 12.3 42 42 40
-20.9 -24.0 12.3 42 42 40
-20.6 -23.9 12.3 40 40 40
-14.9 -22.3 11.4 22 25 23
-10.8 -23.8 12.2 31 30 29
-10.5 -23.8 12.2 33 33 33
-10.2 -23.8 12.2 35 35 35
-10.0 -23.8 12.2 46 45 43
-9.7 -24.0 12.3 160 160 160
-9.4 -23.9 12.3 186 188 187
7.8 -20.6 10.6 210 210 210
8.0 -20.5 10.5 208 208 208
8.8 -20.7 10.6 208 208 208
10.3 -20.6 10.6 208 208 208
10.5 -20.6 10.6 208 208 208
11.0 -20.6 10.6 208 208 208
11.3 -20.6 10.6 208 208 208
11.6 -20.7 10.6 208 208 208
41.3 -57.0 29.2 207 207 207
41.8 -56.7 29.1 207 207 207
42.5 -56.7 29.1 207 207 207
43.5 -57.1 29.3 207 207 207
43.9 -56.8 29.1 207 207 207
44.1 -56.2 28.8 207 207 207
48.1 -58.6 30.0 205 205 205
46.8 -56.3 28.8 205 205 205
47.3 -56.0 28.7 205 205 205
48.1 -56.2 28.8 208 208 208
48.6 -56.0 28.7 205 205 205
49.2 -55.9 28.7 206 206 206
31.1 -29.7 15.2 212 213 212
31.4 -29.6 15.2 172 172 172
31.8 -29.7 15.2 182 182 182
32.1 -29.6 15.2 185 185 185
-28.3 -24.0 12.4 53 52 51
-28.0 -23.9 12.4 50 50 50
-27.0 -24.0 12.5 50 50 50
-26.6 -23.9 12.4 51 51 51
-26.1 -24.1 12.5 51 51 51
-25.8 -24.0 12.5 48 48 48
-22.9 -24.0 12.4 43 43 43
-21.6 -24.1 12.5 43 42 41
-11.1 -24.2 12.5 29 30 28
-10.7 -23.8 12.3 31 30 29
-10.3 -23.7 12.3 35 37 36
-10.1 -23.9 12.4 44 44 44
-9.9 -24.0 12.5 176 179 178
8.0 -20.2 10.5 207 207 207
42.0 -57.2 29.6 207 207 207
42.4 -56.8 29.5 207 207 207
43.3 -57.2 29.6 207 207 207
43.9 -57.0 29.6 207 207 207
44.2 -56.5 29.3 207 207 207
44.4 -55.8 29.0 207 207 207
45.0 -55.8 29.0 207 207 207
50.2 -61.3 31.8 207 207 207
49.1 -59.1 30.7 207 207 207
47.9 -56.8 29.5 207 207 207
47.7 -55.8 29.0 207 207 207
48.5 -56.0 29.1 205 205 205
48.9 -55.7 28.9 205 205 205
49.4 -55.4 28.7 205 205 205
31.0 -29.2 15.2 205 205 205
31.3 -29.2 15.2 167 167 167
31.7 -29.2 15.2 184 184 184
32.0 -29.2 15.2 188 188 188
-30.3 -25.0 13.1 54 53 52
-28.2 -23.5 12.3 51 51 51
-27.9 -23.5 12.3 51 51 51
-26.8 -23.5 12.4 52 52 52
-26.4 -23.5 12.3 52 52 52
-26.1 -23.5 12.3 52 52 52
-25.9 -23.5 12.3 52 52 52
-25.6 -23.5 12.3 52 52 52
-25.2 -23.5 12.3 50 50 50
-22.7 -23.5 12.4 44 44 44
-10.6 -23.5 12.3 32 31 30
-10.3 -23.4 12.3 36 38 37
-10.1 -23.5 12.3 45 45 45
-9.9 -23.7 12.4 177 180 179
-10.1 -25.1 13.2 184 187 186
-9.8 -25.0 13.1 184 187 186
44.2 -57.6 30.3 206 206 206
44.1 -56.6 29.7 206 206 206
44.5 -56.2 29.5 206 206 206
44.9 -55.9 29.3 206 206 206
50.7 -61.2 32.1 207 207 207
50.6 -60.3 31.6 207 207 207
50.5 -59.3 31.1 207 207 207
48.7 -56.3 29.6 207 207 207
50.2 -57.3 30.1 207 207 207
49.3 -55.4 29.1 207 207 207
49.5 -54.9 28.8 205 205 205
31.0 -28.9 15.2 204 204 204
31.3 -28.9 15.2 171 173 173
31.7 -28.9 15.2 181 181 181
32.0 -28.8 15.1 186 186 186
-11.4 -24.2 12.9 53 52 52
-10.3 -23.7 12.6 44 44 44
-10.4 -24.7 13.1 183 183 183
-10.2 -25.0 13.3 183 186 185
-9.8 -24.8 13.2 188 188 188
10.6 -23.9 12.7 206 206 206
14.3 -24.1 12.8 206 206 206
14.5 -24.1 12.8 209 209 209
43.9 -55.6 29.6 206 206 206
44.3 -55.3 29.4 206 206 206
44.4 -54.5 29.0 206 206 206
51.8 -61.8 32.8 206 206 206
52.7 -61.9 32.9 206 206 206
52.1 -60.3 32.1 206 206 206
48.8 -54.3 28.8 207 207 207
49.4 -54.1 28.7 207 207 207
30.6 -28.5 15.2 203 203 203
31.1 -28.6 15.2 203 203 203
31.4 -28.6 15.2 170 172 172
31.7 -28.6 15.2 183 183 183
32.0 -28.5 15.2 185 185 185
-13.7 -18.9 10.1 22 25 23
-13.5 -18.9 10.2 31 31 31
-11.5 -24.1 12.9 34 34 34
-10.4 -24.4 13.1 184 184 184
-10.2 -24.6 13.2 182 185 184
-9.8 -24.4 13.2 186 186 186
-9.5 -24.4 13.1 181 184 183
43.7 -54.7 29.4 206 206 206
44.1 -54.3 29.2 206 206 206
44.2 -53.6 28.8 206 206 206
52.6 -62.0 33.4 206 206 206
54.2 -62.9 33.8 206 206 206
54.5 -62.3 33.5 206 206 206
48.8 -53.6 28.8 206 206 206
49.3 -53.3 28.7 206 206 206
31.0 -28.5 15.4 205 205 205
31.3 -28.5 15.3 203 203 203
31.7 -28.5 15.4 171 173 173
32.0 -28.5 15.3 180 180 180
-13.7 -18.6 10.1 25 28 25
-10.4 -24.1 13.1 183 183 183
-10.2 -24.2 13.2 181 184 183
-9.8 -24.2 13.2 185 185 185
43.6 -53.9 29.4 208 208 208
44.0 -53.6 29.2 208 208 208
44.1 -52.8 28.8 208 208 208
52.8 -61.4 33.5 208 208 208
60.7 -69.6 37.9 208 208 208
48.8 -52.9 28.8 206 206 206
-37.4 -24.1 13.3 66 66 66
-37.2 -24.1 13.3 66 66 66
-36.9 -24.1 13.3 67 67 67
-31.0 -24.2 13.3 61 61 61
-30.6 -24.1 13.3 61 61 61
-29.1 -24.1 13.3 60 60 60
-13.5 -18.2 10.0 30 29 29
-13.2 -24.4 13.5 29 29 29
-12.8 -24.2 13.4 133 133 133
-11.2 -24.1 13.3 51 51 49
-10.8 -24.0 13.2 59 61 59
-10.5 -24.0 13.2 182 185 184
-10.2 -24.1 13.3 181 184 183
-9.9 -24.1 13.3 181 184 183
41.0 -47.8 26.4 207 207 207
61.1 -69.1 38.1 208 208 208
31.8 -31.0 17.1 206 206 206
32.0 -30.8 17.0 206 206 206
33.5 -30.8 17.0 204 204 204
34.1 -31.0 17.1 200 200 200
104.6 -52.6 29.1 166 166 166
99.3 -49.7 27.4 166 166 166
-37.7 -24.0 13.4 67 67 67
-37.5 -24.0 13.4 67 67 67
-37.2 -24.0 13.4 67 67 67
-36.9 -24.0 13.4 67 67 67
-36.6 -24.0 13.4 69 71 69
-36.3 -24.0 13.4 69 71 69
-36.0 -24.0 13.4 67 67 67
-35.6 -24.0 13.4 67 67 67
-35.3 -24.0 13.4 70 72 69
-35.0 -24.0 13.4 70 72 69
-34.7 -24.0 13.4 70 72 69
-34.4 -24.0 13.4 68 68 68
-34.1 -24.0 13.4 68 68 68
-33.7 -24.0 13.4 68 68 68
-33.4 -24.0 13.4 66 67 65
-33.1 -24.0 13.4 66 67 65
-32.8 -24.0 13.4 66 67 65
-32.5 -24.0 13.4 64 64 64
-32.2 -24.0 13.4 64 64 64
-31.9 -24.0 13.4 64 64 64
-31.6 -24.0 13.4 65 65 65
-31.3 -24.0 13.4 62 62 62
-31.0 -24.0 13.4 62 62 62
-30.6 -24.0 13.4 60 60 60
-30.3 -24.0 13.4 60 60 60
-30.0 -24.0 13.4 59 59 57
-29.7 -24.0 13.4 56 56 56
-29.4 -24.0 13.4 61 61 61
-29.1 -24.0 13.4 61 61 61
-28.8 -24.0 13.4 61 61 61
-28.5 -24.0 13.4 60 59 58
-28.2 -24.0 13.4 60 59 58
-27.9 -24.0 13.4 57 57 57
-27.5 -24.0 13.4 57 57 57
-27.2 -24.0 13.4 58 58 58
-26.9 -24.0 13.4 55 55 55
-26.6 -24.0 13.4 58 58 58
-26.3 -24.0 13.4 56 56 56
-26.0 -24.0 13.4 56 56 56
-25.6 -24.0 13.4 53 53 53
-25.2 -23.9 13.4 56 56 56
-24.7 -24.0 13.4 52 52 52
-24.4 -24.0 13.4 52 52 52
-24.1 -24.0 13.4 50 50 50
-23.7 -24.0 13.4 50 50 50
-23.2 -24.1 13.5 49 48 47
-22.9 -24.0 13.4 46 46 46
-13.2 -24.2 13.5 38 38 38
-12.8 -24.0 13.4 133 133 133
-11.2 -24.0 13.4 50 50 50
-10.9 -23.8 13.3 58 59 59
-10.6 -23.8 13.3 181 184 183
-10.3 -24.0 13.4 180 183 182
-10.0 -24.0 13.4 180 183 182
41.1 -48.0 26.8 207 207 207
40.8 -46.9 26.2 207 207 207
32.3 -31.1 17.4 205 205 205
32.6 -31.0 17.3 206 206 206
32.6 -30.6 17.1 206 206 206
33.1 -30.7 17.2 206 206 206
33.3 -30.6 17.1 208 208 208
33.8 -30.6 17.1 209 209 209
34.4 -30.8 17.2 204 204 204
34.7 -30.7 17.2 206 206 206
93.5 -60.5 33.8 189 189 189
92.0 -45.1 25.2 159 162 161
-38.4 -24.1 13.6 67 67 67
-38.4 -24.3 13.8 67 67 67
-38.1 -24.3 13.8 67 67 67
-37.7 -24.3 13.7 70 72 69
-37.4 -24.3 13.7 70 72 69
-37.1 -24.2 13.7 70 72 69
-36.8 -24.2 13.7 70 72 69
-36.5 -24.3 13.7 70 72 69
-36.1 -24.3 13.7 71 72 70
-35.9 -24.3 13.8 71 72 70
-35.5 -24.3 13.7 69 69 69
-35.2 -24.3 13.7 69 69 69
-34.9 -24.3 13.7 69 69 69
-34.5 -24.2 13.7 69 69 69
-34.2 -24.3 13.7 69 69 69
-34.0 -24.3 13.8 70 70 70
-33.6 -24.3 13.7 67 68 66
-33.2 -24.2 13.7 67 68 66
-33.0 -24.3 13.7 65 65 65
-32.6 -24.2 13.7 65 65 65
-32.3 -24.3 13.7 66 66 66
-32.0 -24.3 13.8 63 63 63
-31.6 -24.2 13.7 63 63 63
-31.3 -24.2 13.7 61 61 61
-30.7 -24.2 13.7 62 62 62
-30.4 -24.2 13.7 62 62 62
-30.0 -24.2 13.7 62 62 62
-29.8 -24.3 13.7 62 62 62
-29.4 -24.2 13.7 62 62 62
-29.2 -24.3 13.8 61 60 59
-28.9 -24.3 13.8 61 60 59
-28.5 -24.3 13.7 58 58 58
-28.1 -24.2 13.7 58 59 59
-27.8 -24.2 13.7 58 59 59
-27.8 -24.5 13.9 56 56 56
-27.2 -24.3 13.8 59 59 59
-26.9 -24.3 13.8 59 59 59
-26.6 -24.3 13.7 54 54 54
-26.1 -24.1 13.7 57 57 57
-25.3 -24.2 13.7 58 58 58
-25.2 -24.5 13.9 64 63 61
-24.9 -24.5 13.9 53 53 53
-24.4 -24.4 13.8 53 53 53
-24.1 -24.4 13.8 50 49 48
-23.7 -24.3 13.8 50 49 48
-23.3 -24.2 13.7 51 50 48
-13.4 -24.1 13.7 30 29 29
-13.0 -23.9 13.6 91 91 91
-11.5 -24.3 13.7 49 49 49
-11.1 -24.0 13.6 52 52 50
-10.7 -23.9 13.5 180 183 182
-10.4 -24.0 13.6 179 182 181
-10.1 -24.0 13.6 177 180 179
-9.9 -24.1 13.7 176 179 178
74.2 -80.7 45.7 204 204 204
48.0 -46.8 26.5 208 208 208
33.8 -30.2 17.1 205 205 205
34.7 -30.7 17.4 205 205 205
98.8 -48.1 27.3 169 169 169
89.8 -43.5 24.6 159 162 161
87.9 -42.3 23.9 155 155 155
1501.1 -695.7 394.1 113 115 114
-39.8 -24.6 14.1 67 67 67
-39.5 -24.7 14.2 70 72 69
-39.0 -24.6 14.1 70 72 69
-38.9 -24.7 14.2 71 72 70
-38.6 -24.7 14.2 71 72 70
-38.2 -24.7 14.2 71 72 70
-37.9 -24.7 14.2 71 72 70
-37.6 -24.7 14.2 75 75 75
-37.3 -24.7 14.2 72 73 71
-37.0 -24.7 14.2 72 73 71
-36.6 -24.7 14.2 70 70 70
-36.3 -24.7 14.2 72 73 71
-35.9 -24.6 14.1 72 73 71
-35.4 -24.5 14.1 72 73 71
-35.3 -24.7 14.2 70 70 70
-35.0 -24.7 14.2 71 71 71
-34.4 -24.5 14.1 67 69 67
-34.0 -24.5 14.1 71 71 71
-33.7 -24.5 14.1 67 69 67
-33.4 -24.5 14.1 66 66 66
-33.0 -24.7 14.2 64 64 64
-32.4 -24.5 14.1 64 64 64
-32.1 -24.8 14.2 62 62 62
-31.5 -24.6 14.1 63 63 63
-31.1 -24.5 14.1 63 63 63
-30.0 -24.7 14.2 62 61 60
-29.7 -24.7 14.2 62 61 60
-29.4 -24.7 14.2 63 62 61
-28.8 -24.5 14.1 59 59 59
-28.5 -24.8 14.2 59 59 59
-28.1 -24.7 14.2 60 60 60
-27.7 -24.6 14.1 60 60 60
-27.1 -24.4 14.0 60 60 60
-26.9 -24.6 14.1 67 67 67
-26.8 -24.8 14.2 75 76 76
-24.9 -24.8 14.2 63 63 63
-24.5 -24.8 14.2 55 55 55
-23.9 -24.4 14.0 51 51 49
-13.6 -24.1 13.9 39 39 39
-13.0 -23.7 13.6 33 34 32
-11.8 -24.4 14.0 49 49 49
-11.4 -24.2 13.9 58 58 58
-11.0 -24.2 13.9 180 183 182
-10.7 -24.1 13.8 178 181 180
-10.3 -24.0 13.8 179 182 181
-10.3 -24.8 14.2 177 180 179
-10.0 -24.8 14.3 212 214 214
-9.6 -24.7 14.2 217 217 217
-3.5 -17.5 10.0 218 221 220
-3.3 -17.4 10.0 217 220 219
-2.6 -17.4 10.0 218 221 220
-2.4 -17.4 10.0 216 219 218
-1.7 -17.4 10.0 216 216 216
-0.7 -17.4 10.0 208 208 208
-0.3 -17.4 10.0 204 207 206
-0.0 -17.4 10.0 205 208 207
1.6 -17.4 10.0 193 193 193
5.6 -17.4 10.0 210 213 212
6.7 -17.4 10.0 207 210 209
7.2 -17.5 10.0 207 210 209
7.4 -17.5 10.0 207 210 209
7.6 -17.4 10.0 207 210 209
7.9 -17.4 10.0 207 210 209
8.1 -17.4 10.0 207 210 209
8.3 -17.4 10.0 207 210 209
8.6 -17.4 10.0 207 210 209
8.8 -17.4 10.0 207 210 209
9.0 -17.4 10.0 207 210 209
9.5 -17.4 10.0 207 210 209
10.0 -17.4 10.0 206 206 206
10.2 -17.4 10.0 206 206 206
10.5 -17.5 10.0 206 206 206
10.7 -17.4 10.0 206 206 206
10.9 -17.4 10.0 206 206 206
11.8 -17.4 10.0 206 206 206
12.5 -17.4 10.0 206 206 206
12.8 -17.4 10.0 206 206 206
13.7 -17.4 10.0 207 210 209
13.9 -17.4 10.0 206 206 206
76.2 -81.8 46.9 207 207 207
74.9 -79.2 45.5 207 207 207
48.0 -46.2 26.5 207 207 207
46.2 -43.9 25.2 207 207 207
36.2 -31.6 18.1 205 205 205
89.5 -42.7 24.5 159 162 161
85.9 -40.8 23.4 158 158 158
1412.8 -646.1 370.9 117 117 117
-40.1 -24.5 14.3 68 68 68
-39.8 -24.5 14.3 71 72 70
-39.5 -24.5 14.3 71 72 70
-39.1 -24.5 14.3 71 72 70
-38.8 -24.5 14.3 71 72 70
-38.5 -24.5 14.3 72 73 71
-38.2 -24.5 14.3 72 73 71
-37.8 -24.5 14.3 75 76 76
-37.5 -24.5 14.3 75 76 76
-37.2 -24.5 14.3 72 73 71
-36.8 -24.5 14.3 73 74 72
-36.5 -24.5 14.3 77 77 77
-36.1 -24.5 14.2 73 74 72
-35.8 -24.5 14.3 71 71 71
-35.6 -24.6 14.3 71 71 71
-35.2 -24.5 14.3 71 71 71
-34.8 -24.5 14.2 71 71 71
-34.5 -24.5 14.2 68 70 68
-34.1 -24.5 14.2 67 67 67
-33.8 -24.5 14.2 67 67 67
-33.6 -24.6 14.3 67 67 67
-33.2 -24.5 14.3 67 67 67
-32.8 -24.5 14.2 67 67 67
-32.5 -24.5 14.3 67 67 67
-32.2 -24.5 14.3 65 65 65
-31.8 -24.5 14.2 63 63 63
-31.6 -24.5 14.3 66 66 66
-31.3 -24.6 14.3 64 64 64
-31.0 -24.6 14.3 64 64 64
-30.6 -24.6 14.3 64 64 64
-30.2 -24.5 14.3 65 65 65
-29.9 -24.5 14.3 65 65 65
-29.5 -24.5 14.3 63 62 61
-29.2 -24.5 14.2 60 60 60
-28.9 -24.6 14.3 60 60 60
-28.6 -24.6 14.3 64 63 61
-28.3 -24.6 14.3 61 61 61
-27.9 -24.5 14.3 68 68 68
-27.4 -24.4 14.2 75 76 76
-27.2 -24.5 14.2 89 90 88
-26.9 -24.5 14.3 103 102 100
-25.3 -24.6 14.3 107 107 107
-25.0 -24.6 14.3 67 67 65
-24.7 -24.6 14.3 58 59 59
-24.2 -24.4 14.2 48 48 48
-11.6 -24.4 14.2 44 43 42
-10.8 -24.1 14.0 178 181 180
-10.3 -24.5 14.3 181 181 181
-10.0 -24.6 14.3 205 205 205
-9.6 -24.5 14.2 208 211 210
-3.1 -17.2 10.0 214 214 214
-2.8 -17.2 10.0 215 215 215
-2.6 -17.2 10.0 215 215 215
-2.4 -17.2 10.0 212 213 212
-2.1 -17.2 10.0 209 209 209
-1.7 -17.2 10.0 210 210 210
-1.4 -17.2 10.0 210 210 210
-0.0 -17.2 10.0 204 207 206
0.2 -17.2 10.0 202 204 204
0.4 -17.2 10.0 200 200 200
0.7 -17.2 10.0 200 200 200
0.9 -17.2 10.0 197 197 197
1.6 -17.2 10.0 192 192 192
1.8 -17.2 10.0 193 193 193
4.6 -17.2 10.0 206 209 208
6.7 -17.2 10.0 210 213 212
7.8 -17.5 10.2 207 210 209
8.0 -17.5 10.2 207 210 209
8.8 -17.2 10.0 207 210 209
9.5 -17.2 10.0 207 210 209
9.7 -17.2 10.0 207 210 209
10.0 -17.2 10.0 206 206 206
10.2 -17.2 10.0 206 206 206
11.1 -17.2 10.0 207 210 209
13.0 -17.2 10.0 207 210 209
13.2 -17.2 10.0 207 210 209
13.7 -17.2 10.0 207 210 209
13.9 -17.2 10.0 207 210 209
77.0 -81.5 47.4 207 210 209
76.6 -79.9 46.5 207 210 209
76.1 -78.3 45.6 208 211 210
78.0 -79.1 46.0 208 211 210
48.6 -46.2 26.9 207 207 207
46.7 -43.8 25.5 207 207 207
108.0 -67.7 39.4 188 188 188
95.6 -59.4 34.6 189 189 189
86.0 -40.3 23.4 158 158 158
80.8 -37.6 21.9 150 150 150
-40.5 -24.4 14.4 70 72 69
-40.1 -24.4 14.4 71 72 70
-37.2 -24.4 14.4 72 73 71
-36.8 -24.4 14.4 70 70 70
-35.5 -24.4 14.4 71 71 71
-33.5 -24.4 14.4 67 67 67
-31.5 -24.4 14.4 63 63 63
-30.9 -24.5 14.5 66 66 66
-30.5 -24.4 14.4 66 66 66
-27.2 -24.4 14.4 203 205 205
-24.8 -24.4 14.4 46 48 47
-10.4 -24.3 14.4 178 181 180
-10.1 -24.3 14.4 193 193 193
41.7 -45.5 26.8 207 210 209
78.0 -81.4 48.0 207 210 209
78.1 -80.4 47.4 207 210 209
77.3 -78.4 46.3 207 210 209
76.8 -76.9 45.4 207 210 209
48.8 -45.8 27.0 207 207 207
47.5 -43.9 25.9 207 207 207
107.7 -66.7 39.3 189 189 189
95.0 -58.3 34.4 190 190 190
-10.5 -24.2 14.5 178 181 180
-10.0 -23.9 14.3 170 171 170
10.8 -16.9 10.1 206 209 208
41.5 -44.7 26.7 206 209 208
50.9 -54.0 32.3 206 209 208
79.4 -81.7 48.9 206 209 208
80.3 -81.5 48.8 207 210 209
79.0 -79.1 47.3 206 206 206
77.4 -76.4 45.7 207 210 209
49.8 -46.0 27.5 207 210 209
48.0 -43.8 26.2 208 211 210
49.0 -44.2 26.4 208 211 210
107.5 -65.6 39.2 190 190 190
93.3 -56.5 33.8 190 190 190
77.8 -38.9 23.3 177 180 179
75.2 -37.3 22.3 178 181 180
79.0 -38.7 23.2 177 177 177
79.8 -38.8 23.2 177 177 177
-11.1 -24.5 14.9 180 183 182
-11.1 -25.3 15.3 175 175 175
-10.8 -25.4 15.4 162 162 162
43.2 -46.6 28.2 209 212 211
41.5 -44.0 26.7 209 212 211
51.4 -53.7 32.6 209 212 211
81.4 -81.4 49.4 209 212 211
81.7 -80.6 48.9 209 212 211
80.1 -78.0 47.3 209 212 211
48.0 -43.1 26.2 207 210 209
48.8 -43.3 26.3 207 210 209
107.3 -64.6 39.2 190 190 190
93.2 -55.6 33.7 191 191 191
78.7 -39.1 23.7 177 180 179
78.7 -38.8 23.5 178 181 180
80.1 -38.7 23.5 178 178 178
81.1 -38.9 23.6 178 178 178
-11.5 -25.0 15.4 182 185 184
-11.2 -25.2 15.5 177 177 177
-11.0 -25.6 15.8 157 160 159
41.1 -43.0 26.5 208 211 210
53.0 -54.6 33.6 208 211 210
82.0 -80.9 49.8 209 212 211
82.3 -80.1 49.3 209 212 211
79.9 -76.7 47.2 209 212 211
48.1 -42.7 26.2 206 206 206
93.2 -54.8 33.7 191 191 191
77.6 -37.7 23.2 179 182 181
75.4 -36.4 22.4 180 183 182
76.3 -36.6 22.5 179 179 179
79.5 -37.9 23.3 179 179 179
80.9 -38.3 23.5 179 179 179
80.5 -37.8 23.3 179 179 179
-11.4 -25.3 15.8 176 176 176
-11.2 -25.7 16.0 159 162 161
42.5 -43.8 27.3 208 211 210
52.1 -52.9 33.0 208 211 210
82.5 -79.1 49.4 209 212 211
79.7 -75.4 47.1 209 212 211
49.2 -43.0 26.8 206 206 206
49.4 -42.6 26.6 207 210 209
48.5 -41.4 25.8 207 210 209
94.2 -54.6 34.1 194 194 194
86.7 -49.9 31.1 193 193 193
77.4 -37.1 23.2 180 183 182
75.1 -35.7 22.3 181 184 183
75.4 -35.6 22.2 180 180 180
79.3 -37.2 23.2 180 180 180
80.7 -37.6 23.5 180 180 180
79.9 -37.0 23.1 180 180 180
-12.3 -25.9 16.4 184 187 186
-11.7 -25.6 16.2 179 179 179
-11.4 -25.7 16.3 166 166 166
-11.1 -25.9 16.4 162 162 162
7.6 -16.8 10.7 209 212 211
51.4 -51.4 32.6 208 211 210
82.7 -78.2 49.5 208 211 210
79.3 -73.9 46.8 208 211 210
80.3 -72.9 46.1 209 212 211
49.8 -41.8 26.5 207 210 209
94.2 -53.8 34.1 195 195 195
74.4 -34.9 22.1 182 185 184
74.2 -34.6 21.9 182 185 184
80.9 -37.2 23.5 181 181 181
78.8 -35.9 22.8 181 181 181
77.7 -35.2 22.3 181 181 181
-12.6 -26.2 16.8 187 189 189
-11.9 -25.5 16.4 181 181 181
-11.5 -25.6 16.4 172 172 172
-11.3 -26.0 16.7 165 165 165
-10.9 -25.8 16.6 162 162 162
4.4 -16.4 10.6 206 206 206
7.6 -16.6 10.7 209 212 211
7.8 -16.5 10.6 209 212 211
8.1 -16.4 10.6 209 212 211
9.1 -16.5 10.6 209 212 211
14.2 -17.0 11.0 207 210 209
15.0 -16.5 10.6 207 210 209
53.3 -52.6 33.8 207 210 209
85.4 -79.6 51.1 208 211 210
79.9 -73.4 47.2 208 211 210
79.0 -71.6 46.0 208 211 210
81.1 -72.5 46.6 208 211 210
94.2 -53.0 34.1 195 195 195
74.8 -34.5 22.2 183 186 185
74.2 -34.1 21.9 183 186 185
81.0 -36.7 23.6 182 182 182
79.4 -35.7 23.0 182 182 182
78.6 -35.1 22.6 182 182 182
-12.4 -27.1 17.7 173 175 175
-12.0 -27.3 17.8 169 169 169
4.4 -16.1 10.5 204 204 204
4.5 -15.9 10.4 204 204 204
8.0 -16.0 10.5 209 212 211
15.0 -16.6 10.8 207 210 209
85.2 -78.2 51.0 207 210 209
79.9 -72.3 47.2 208 211 210
78.5 -70.0 45.7 208 211 210
81.5 -71.8 46.8 208 211 210
84.7 -73.6 48.0 208 211 210
75.1 -64.4 42.0 208 211 210
75.1 -34.2 22.3 184 187 186
74.2 -33.6 21.9 184 187 186
81.5 -36.3 23.7 183 183 183
80.2 -35.5 23.2 183 183 183
79.3 -34.9 22.8 183 183 183
-13.1 -29.3 19.4 173 173 173
-12.4 -28.7 19.0 167 167 167
4.4 -15.9 10.5 204 204 204
4.5 -15.6 10.4 195 195 195
7.6 -15.9 10.6 209 212 211
7.8 -15.9 10.5 209 212 211
8.0 -15.8 10.5 209 212 211
11.1 -15.7 10.4 208 211 210
13.3 -15.8 10.4 207 210 209
14.3 -15.8 10.5 206 209 208
14.7 -15.9 10.5 206 209 208
14.9 -15.9 10.5 206 209 208
79.9 -71.2 47.2 207 210 209
78.3 -68.8 45.6 207 210 209
82.3 -71.4 47.3 208 211 210
82.8 -70.9 46.9 208 211 210
76.3 -64.5 42.7 208 211 210
75.6 -63.0 41.8 208 211 210
75.1 -33.7 22.3 186 188 187
74.2 -33.1 21.9 186 188 187
81.8 -35.9 23.8 184 184 184
80.8 -35.3 23.4 184 184 184
79.7 -34.5 22.9 184 184 184
356.7 -141.4 93.6 131 133 132
-54.6 -28.8 19.4 64 65 63
-51.4 -28.8 19.4 147 147 147
-50.9 -28.8 19.4 63 63 63
-50.5 -28.8 19.4 19 23 20
-50.1 -28.8 19.4 20 23 21
-46.0 -28.8 19.4 59 59 59
-45.5 -28.8 19.4 61 61 61
-45.2 -28.8 19.4 58 58 56
-44.7 -28.8 19.4 40 42 42
-43.8 -28.8 19.4 46 46 46
-14.0 -28.7 19.3 177 180 179
-13.5 -28.7 19.3 176 179 178
-13.2 -28.9 19.4 175 177 177
-12.7 -28.8 19.4 168 168 168
-12.2 -28.7 19.3 167 167 167
4.4 -15.6 10.5 161 164 163
4.5 -15.3 10.3 161 164 163
9.9 -15.5 10.4 208 211 210
10.8 -15.4 10.4 207 210 209
11.0 -15.4 10.3 207 210 209
13.3 -15.4 10.4 206 209 208
13.4 -15.3 10.3 206 209 208
14.1 -15.5 10.5 206 209 208
14.2 -15.5 10.4 206 209 208
14.6 -15.6 10.5 206 209 208
14.8 -15.6 10.5 206 209 208
14.9 -15.4 10.4 206 209 208
86.9 -73.2 49.3 207 210 209
76.9 -63.2 42.5 208 211 210
74.1 -32.5 21.9 187 189 189
81.5 -35.2 23.7 185 185 185
81.2 -34.9 23.5 185 185 185
80.0 -34.1 23.0 185 185 185
61.0 -24.7 16.6 159 159 159
61.7 -24.8 16.7 155 155 155
-55.4 -28.8 19.7 56 55 54
-55.0 -28.8 19.7 67 67 67
-54.5 -28.8 19.7 75 75 75
-54.0 -28.8 19.7 72 72 72
-53.6 -28.8 19.7 41 41 41
-53.1 -28.8 19.7 128 131 130
-52.7 -28.8 19.7 127 127 127
-52.2 -28.8 19.7 16 16 16
-51.8 -28.8 19.7 19 23 20
-51.3 -28.8 19.7 24 24 24
-50.8 -28.8 19.7 27 27 27
-50.4 -28.8 19.7 29 30 28
-49.9 -28.8 19.7 24 24 24
-49.5 -28.8 19.7 16 16 16
-49.0 -28.8 19.7 26 26 26
-48.6 -28.8 19.7 26 26 26
-48.1 -28.8 19.7 20 23 21
-47.6 -28.8 19.7 29 31 29
-47.2 -28.8 19.7 48 48 48
-46.7 -28.8 19.7 68 68 68
-46.3 -28.8 19.7 70 72 69
-45.8 -28.8 19.7 64 64 64
-45.4 -28.8 19.7 53 52 52
-44.9 -28.8 19.7 55 55 55
-44.4 -28.8 19.7 59 59 59
-44.0 -28.8 19.7 126 126 126
-43.5 -28.8 19.7 88 89 87
-43.1 -28.8 19.7 139 139 139
-42.6 -28.8 19.7 168 168 168
-42.2 -28.8 19.7 69 69 69
-41.7 -28.8 19.7 20 23 21
-41.2 -28.8 19.7 17 17 17
-40.8 -28.8 19.7 7 13 9
-40.3 -28.8 19.7 8 9 8
-39.9 -28.8 19.7 19 23 20
-39.4 -28.8 19.7 40 40 40
-38.9 -28.8 19.7 63 63 63
-38.5 -28.8 19.7 47 48 47
-38.0 -28.8 19.7 54 54 54
-37.5 -28.8 19.7 70 70 70
-37.1 -28.8 19.7 67 68 66
-36.7 -28.8 19.7 70 70 70
-36.2 -28.8 19.7 62 62 62
-35.8 -28.8 19.7 79 81 79
-35.3 -28.8 19.7 67 69 67
-34.9 -28.8 19.7 62 62 62
-34.4 -28.8 19.7 71 71 71
-34.0 -28.8 19.7 81 83 80
-33.5 -28.8 19.7 141 143 142
-33.0 -28.8 19.7 181 184 183
-32.5 -28.7 19.6 169 171 170
-32.0 -28.7 19.6 112 112 112
-31.7 -28.8 19.7 35 34 33
-31.2 -28.8 19.7 28 28 28
-30.7 -28.8 19.7 28 28 28
-30.3 -28.8 19.7 28 28 28
-29.8 -28.8 19.7 22 25 23
-29.4 -28.8 19.7 28 28 28
-28.9 -28.8 19.7 32 33 31
-28.4 -28.8 19.7 28 28 28
-28.0 -28.8 19.7 30 30 30
-27.5 -28.8 19.7 28 28 28
-27.0 -28.7 19.6 29 29 29
-26.6 -28.8 19.7 26 26 26
-26.1 -28.8 19.7 89 89 89
-25.7 -28.8 19.7 138 138 138
-25.3 -28.9 19.7 148 148 148
-24.8 -28.8 19.7 47 47 47
-24.3 -28.8 19.7 44 46 46
-23.8 -28.8 19.7 77 77 77
-23.3 -28.7 19.6 113 114 113
-22.9 -28.8 19.7 132 135 134
-14.2 -28.6 19.6 178 178 178
-13.6 -28.4 19.4 177 177 177
-13.3 -28.8 19.7 176 176 176
-12.9 -28.8 19.7 173 173 173
-12.3 -28.6 19.5 167 167 167
13.2 -15.2 10.4 206 209 208
74.0 -31.9 21.8 188 190 190
80.4 -33.8 23.1 188 188 188
80.1 -33.4 22.8 188 188 188
60.9 -24.3 16.6 161 161 161
61.2 -24.3 16.6 156 156 156
61.2 -24.1 16.5 148 150 150
-55.8 -28.5 19.8 39 41 41
-49.6 -28.7 19.9 41 41 41
-48.9 -28.5 19.8 161 161 161
-48.4 -28.5 19.8 184 184 184
-47.9 -28.5 19.8 162 162 162
-47.5 -28.5 19.8 121 121 121
-47.0 -28.5 19.8 81 83 80
-46.6 -28.5 19.8 86 86 86
-46.1 -28.5 19.8 70 72 69
-45.6 -28.5 19.8 137 137 137
-45.2 -28.5 19.8 177 177 177
-44.7 -28.5 19.8 179 179 179
-44.3 -28.5 19.8 174 176 176
-44.0 -28.7 19.9 196 196 196
-39.9 -28.7 19.9 158 158 158
-39.4 -28.6 19.9 144 146 146
-38.2 -28.5 19.8 218 218 218
-37.3 -28.5 19.8 179 179 179
-35.7 -28.7 19.9 192 192 192
-35.2 -28.7 19.9 120 120 120
-33.4 -28.7 19.9 174 174 174
-32.9 -28.6 19.9 212 214 214
-32.3 -28.5 19.8 214 216 216
-31.9 -28.6 19.9 208 208 208
-31.6 -28.7 19.9 134 136 135
-31.1 -28.7 19.9 31 32 30
-30.6 -28.7 19.9 45 45 45
-30.1 -28.7 19.9 77 77 77
-29.7 -28.7 19.9 81 83 80
-29.2 -28.7 19.9 85 85 85
-28.6 -28.5 19.8 102 101 99
-28.1 -28.5 19.8 102 101 99
-27.8 -28.7 19.9 25 25 25
-27.2 -28.5 19.8 44 46 46
-26.7 -28.5 19.8 86 86 86
-26.3 -28.5 19.8 14 14 14
-25.8 -28.5 19.8 20 23 21
-25.4 -28.5 19.8 56 56 56
-24.9 -28.5 19.8 104 104 104
-24.4 -28.5 19.8 44 46 46
-24.0 -28.5 19.8 78 80 78
-14.4 -28.7 19.9 165 165 165
-13.8 -28.4 19.7 178 178 178
-13.4 -28.5 19.8 175 175 175
-13.0 -28.7 20.0 141 141 141
-12.5 -28.5 19.8 28 27 26
80.3 -33.2 23.0 189 189 189
79.7 -32.7 22.7 189 189 189
78.5 -32.0 22.2 189 189 189
77.5 -31.4 21.8 185 185 185
61.3 -24.0 16.7 163 163 163
61.5 -24.0 16.7 155 155 155
61.4 -23.8 16.5 150 152 152
-14.7 -28.9 20.4 166 166 166
-14.2 -28.8 20.3 167 167 167
-13.5 -28.3 20.0 159 162 161
-13.3 -28.9 20.4 137 139 138
-12.9 -28.9 20.4 39 39 39
99.8 -81.2 57.3 212 213 212
99.9 -80.2 56.6 211 211 211
98.3 -77.9 55.0 207 210 209
74.0 -30.9 21.8 191 194 193
80.0 -32.3 22.8 190 190 190
79.0 -31.7 22.4 190 190 190
78.1 -31.1 22.0 186 186 186
61.8 -23.9 16.8 160 160 160
61.9 -23.8 16.8 156 156 156
61.9 -23.6 16.7 151 151 151
62.4 -23.6 16.7 146 146 146
-25.7 -14.7 10.5 170 171 170
-25.5 -14.7 10.5 174 176 176
-25.2 -14.7 10.5 137 137 137
-25.0 -14.7 10.5 88 90 89
-24.7 -14.7 10.5 204 204 204
-24.5 -14.7 10.5 199 199 199
-24.2 -14.7 10.5 63 63 63
-24.0 -14.7 10.5 44 43 42
-23.8 -14.7 10.5 131 134 133
-23.5 -14.7 10.5 108 110 110
-15.0 -28.9 20.7 171 173 173
-13.7 -28.2 20.2 180 180 180
-13.5 -28.7 20.6 168 170 169
-13.1 -28.9 20.7 114 113 112
101.8 -82.6 59.3 210 210 210
104.2 -83.4 59.9 210 210 210
100.0 -78.0 56.0 211 211 211
133.5 -100.2 71.9 211 211 211
124.8 -92.5 66.4 212 213 212
74.4 -30.6 21.9 192 195 194
81.1 -32.4 23.3 191 191 191
81.2 -32.3 23.2 191 191 191
80.5 -31.8 22.8 192 195 194
79.3 -31.1 22.3 188 188 188
62.5 -23.7 17.0 159 159 159
62.5 -23.6 16.9 154 156 156
62.9 -23.6 16.9 150 150 150
63.4 -23.6 17.0 143 145 144
-15.3 -29.1 21.2 179 179 179
-14.1 -28.5 20.8 179 179 179
-13.8 -28.8 21.0 177 177 177
-13.4 -29.0 21.2 156 156 156
108.3 -85.3 62.2 210 210 210
143.9 -106.2 77.5 211 211 211
144.0 -104.9 76.6 211 211 211
32.5 -18.6 13.6 199 199 199
78.5 -32.0 23.3 194 197 196
82.2 -32.3 23.6 193 196 195
82.3 -32.2 23.5 192 192 192
82.1 -31.9 23.3 192 192 192
81.1 -31.3 22.8 189 189 189
-14.1 -29.1 21.6 171 173 173
149.4 -107.0 79.5 211 211 211
31.6 -18.3 13.6 198 198 198
31.9 -18.3 13.6 199 199 199
32.2 -18.3 13.6 202 202 202
82.4 -33.2 24.6 202 202 202
79.5 -31.8 23.6 193 196 195
84.9 -33.0 24.5 194 197 196
83.5 -31.8 23.6 190 190 190
88.1 -33.2 24.6 190 190 190
88.3 -33.0 24.5 178 178 178
70.7 -25.8 19.1 140 140 140
70.7 -25.6 19.0 138 138 138
71.7 -25.8 19.2 134 137 136
72.6 -26.0 19.3 134 137 136
73.4 -26.1 19.4 132 135 134
73.5 -26.0 19.3 133 133 133
-27.3 -14.9 11.3 161 164 163
-25.5 -14.9 11.3 129 129 129
-25.2 -14.9 11.3 134 136 135
-24.9 -14.9 11.3 68 70 68
-16.8 -34.1 25.7 172 172 172
-16.2 -34.0 25.7 161 161 161
-15.4 -33.5 25.3 27 27 27
304.2 -219.6 165.9 210 210 210
341.0 -243.1 183.7 211 211 211
323.3 -227.6 172.0 211 211 211
383.0 -266.4 201.2 211 211 211
402.1 -263.6 199.1 214 214 214
49.0 -27.9 21.1 199 199 199
81.3 -32.2 24.3 190 190 190
80.0 -31.5 23.8 185 185 185
83.0 -31.5 23.8 185 185 185
83.7 -31.4 23.7 189 189 189
87.1 -32.2 24.3 175 175 175
87.1 -32.0 24.2 170 171 170
86.8 -31.7 23.9 163 163 163
70.8 -25.2 19.0 136 138 137
73.2 -25.8 19.5 137 139 138
74.1 -25.9 19.6 136 138 137
75.0 -26.1 19.7 135 135 135
-18.3 -34.1 26.2 180 180 180
-17.5 -33.6 25.9 153 155 155
-16.9 -33.7 25.9 87 87 87
-16.5 -34.0 26.2 88 88 88
-16.0 -34.2 26.3 57 59 59
-15.3 -34.2 26.3 48 48 48
338.0 -246.0 189.2 212 213 212
317.0 -227.8 175.2 212 213 212
309.6 -219.6 168.9 214 214 214
328.2 -229.9 176.8 210 210 210
326.2 -225.7 173.5 211 211 211
352.9 -241.2 185.5 211 211 211
331.3 -223.6 172.0 211 211 211
335.2 -223.6 172.0 212 213 212
389.8 -251.0 193.0 212 213 212
49.1 -27.5 21.1 199 199 199
49.6 -27.5 21.2 202 202 202
82.6 -32.1 24.7 185 185 185
88.1 -31.8 24.5 150 152 152
87.9 -31.5 24.3 140 142 141
74.3 -25.7 19.7 136 136 136
74.8 -25.7 19.8 134 134 134
76.1 -26.0 20.0 132 132 132
-20.0 -17.7 13.9 18 22 19
-16.4 -15.2 11.9 32 31 30
-18.7 -34.2 26.8 188 188 188
-17.9 -33.8 26.5 134 137 136
-17.4 -34.0 26.6 87 87 87
-16.8 -34.1 26.7 88 88 88
-16.3 -34.2 26.8 57 59 59
-15.5 -33.8 26.5 113 114 113
352.1 -251.7 197.0 212 213 212
332.4 -234.5 183.7 212 213 212
318.2 -221.6 173.5 212 213 212
337.7 -232.3 181.9 214 214 214
329.2 -223.7 175.2 214 214 214
371.1 -249.1 195.0 211 211 211
350.4 -232.3 181.9 211 211 211
397.9 -251.7 197.0 212 213 212
333.1 -208.3 163.1 214 214 214
49.6 -27.0 21.2 202 202 202
89.8 -31.9 25.0 131 134 133
89.7 -31.6 24.8 134 134 134
74.9 -25.4 19.9 129 129 129
74.8 -25.2 19.8 128 131 130
76.3 -25.6 20.0 128 131 130
-17.3 -15.0 12.0 67 67 67
-16.7 -15.0 12.0 92 92 92
-19.1 -34.3 27.3 177 180 179
-18.2 -33.6 26.8 128 130 129
-17.5 -33.6 26.8 91 93 92
-16.9 -33.6 26.8 89 91 90
-16.4 -33.8 26.9 73 75 75
-15.7 -33.6 26.8 111 111 111
13.7 -12.6 10.0 210 210 210
363.4 -255.0 203.4 212 213 212
345.9 -239.6 191.1 212 213 212
327.2 -223.8 178.5 212 213 212
344.3 -232.5 185.5 214 214 214
323.3 -215.6 172.0 214 214 214
415.2 -257.8 205.6 215 215 215
49.6 -26.5 21.2 203 203 203
49.9 -26.4 21.1 203 203 203
49.7 -26.0 20.8 203 203 203
75.0 -25.0 19.9 126 126 126
74.8 -24.8 19.8 126 126 126
76.3 -25.1 20.0 126 126 126
-18.0 -33.9 27.5 91 94 93
-17.0 -33.1 26.9 93 93 93
-16.6 -33.5 27.3 78 78 78
349.4 -237.5 193.0 212 213 212
358.4 -237.5 193.0 212 213 212
326.2 -213.6 173.5 214 214 214
415.2 -253.0 205.6 215 215 215
49.2 -25.8 21.0 203 203 203
49.2 -25.6 20.8 203 203 203
48.2 -24.6 20.0 190 190 190
74.5 -24.4 19.8 115 114 114
74.8 -24.3 19.7 120 120 120
75.9 -24.5 19.9 133 133 133
-17.4 -33.3 27.6 89 91 90
356.7 -237.9 197.0 216 216 216
369.7 -240.4 199.1 210 210 210
335.5 -215.5 178.5 214 214 214
406.3 -243.0 201.2 215 215 215
47.7 -24.3 20.1 204 204 204
46.4 -23.4 19.4 204 204 204
46.6 -23.3 19.3 191 191 191
46.9 -23.2 19.2 194 194 194
74.8 -24.0 19.9 101 103 103
74.8 -23.8 19.7 91 94 93
75.5 -23.9 19.8 154 156 156
76.2 -24.0 19.9 124 124 124
-19.9 -40.4 34.1 40 40 40
356.7 -233.3 197.0 216 216 216
362.0 -230.9 195.0 212 213 212
45.3 -22.4 18.9 204 204 204
44.8 -21.8 18.4 191 191 191
44.8 -21.5 18.2 163 166 165
75.2 -23.5 19.9 67 67 65
75.9 -23.6 19.9 155 155 155
76.3 -23.6 19.9 123 123 123
-21.3 -39.1 33.7 94 94 94
-20.3 -40.4 34.8 94 97 96
13.2 -11.8 10.2 210 210 210
13.9 -11.8 10.1 212 213 212
14.1 -11.8 10.2 212 213 212
44.5 -21.0 18.1 172 174 174
75.7 -23.2 20.0 77 80 79
75.8 -23.1 19.9 157 157 157
-22.7 -39.6 34.8 94 94 94
-21.8 -39.4 34.6 96 99 98
-21.1 -39.6 34.8 85 87 87
-20.5 -39.9 35.1 116 118 117
13.2 -11.5 10.1 214 214 214
13.8 -11.5 10.1 212 213 212
130.2 -67.9 59.7 200 200 200
44.6 -20.8 18.3 193 193 193
44.5 -20.6 18.1 176 176 176
52.9 -16.4 14.4 80 83 82
53.2 -16.4 14.4 71 71 71
76.0 -22.7 20.0 157 157 157
-26.3 -13.4 12.0 28 28 28
-22.6 -39.9 35.8 95 98 97
-21.6 -39.6 35.6 107 107 107
178.0 -92.9 83.3 200 200 200
151.8 -78.4 70.3 200 200 200
138.5 -70.7 63.5 200 200 200
44.7 -20.3 18.2 188 188 188
52.8 -16.0 14.4 77 80 79
52.8 -15.8 14.2 73 73 73
-26.3 -13.1 12.0 18 22 19
-26.9 -50.2 46.0 23 23 22
170.4 -87.1 79.8 198 198 198
148.5 -75.1 68.8 200 200 200
136.2 -68.1 62.4 200 200 200
51.8 -15.2 13.9 77 77 77
-28.3 -49.8 46.6 111 111 111
-27.8 -50.9 47.6 13 17 14
-26.6 -50.6 47.4 23 23 22
146.9 -72.7 68.0 203 203 203
135.8 -66.5 62.2 200 200 200
43.2 -18.6 17.4 108 110 110
-138.7 -51.5 49.3 51 51 51
-87.4 -51.6 49.4 216 216 216
-73.0 -51.2 49.0 224 224 224
-28.9 -49.8 47.6 111 111 111
-28.7 -51.3 49.1 20 20 20
-27.7 -51.6 49.4 23 23 22
-26.5 -51.5 49.3 22 22 22
-25.3 -51.5 49.3 172 172 172
13.8 -10.5 10.1 216 216 216
334.5 -188.2 180.2 219 219 219
291.5 -162.0 155.1 219 219 219
249.7 -123.5 118.2 197 197 197
43.0 -18.3 17.5 202 202 202
52.2 -14.6 14.0 79 81 80
-139.4 -50.6 49.5 83 83 83
-138.6 -50.7 49.6 138 138 138
-137.5 -50.7 49.6 64 64 64
-136.3 -50.7 49.6 59 59 59
-134.8 -50.6 49.5 75 77 75
-134.0 -50.7 49.6 80 82 79
-133.2 -50.8 49.8 80 82 79
-136.0 -52.4 51.3 83 83 83
-132.6 -51.5 50.4 89 91 90
-129.4 -50.7 49.6 150 150 150
-128.2 -50.7 49.6 164 164 164
-127.8 -51.0 49.9 38 40 40
-125.9 -50.7 49.6 73 73 73
-125.1 -50.8 49.8 77 78 76
-124.3 -51.0 49.9 79 81 79
-122.5 -50.7 49.6 79 81 79
-121.6 -50.8 49.8 79 81 79
-120.2 -50.7 49.6 134 134 134
-118.4 -50.4 49.4 140 140 140
-120.4 -51.8 50.7 145 145 144
-118.6 -51.5 50.4 113 114 113
-117.4 -51.5 50.4 116 116 116
-117.8 -52.2 51.1 117 119 118
-113.8 -51.0 49.9 108 110 110
-111.8 -50.6 49.5 44 43 42
-111.8 -51.1 50.0 58 59 59
-108.0 -51.0 49.9 97 96 94
-106.5 -52.5 51.4 125 125 125
-102.0 -50.8 49.8 137 139 138
-99.8 -50.3 49.3 161 160 158
-99.4 -51.9 50.9 69 71 69
-96.2 -50.8 49.8 87 89 88
-94.0 -52.2 51.1 230 230 230
-92.8 -52.2 51.1 230 230 230
-91.4 -52.1 51.0 229 229 229
-88.1 -50.8 49.8 225 225 225
-86.0 -50.3 49.3 214 214 214
-85.3 -50.6 49.5 206 209 208
-84.8 -51.0 49.9 58 58 56
-83.9 -51.1 50.0 71 71 71
-82.5 -51.0 49.9 121 123 122
-81.1 -50.8 49.8 192 192 192
-80.0 -50.8 49.8 214 214 214
-78.4 -50.6 49.5 226 226 226
-73.4 -50.3 49.3 219 219 219
-72.8 -50.7 49.6 211 211 211
-71.3 -50.4 49.4 168 170 169
-8.1 -10.8 10.5 200 200 200
-7.8 -10.6 10.4 204 207 206
-31.1 -50.4 49.4 101 101 101
-29.4 -49.4 48.4 112 112 112
-28.8 -50.3 49.3 22 22 22
-27.8 -50.6 49.5 25 25 23
-26.5 -50.3 49.3 113 114 113
-25.4 -50.4 49.4 178 178 178
13.7 -10.3 10.0 214 214 214
273.5 -148.6 145.5 220 223 222
359.2 -175.7 172.0 183 183 183
251.3 -121.5 119.0 197 197 197
41.3 -16.7 16.3 72 74 74
41.5 -16.6 16.2 72 74 74
53.0 -14.7 14.4 79 81 80
52.3 -14.4 14.1 79 81 80
52.2 -14.3 14.0 79 81 80
-144.7 -51.3 51.4 99 99 99
-145.5 -52.0 52.1 25 25 25
-144.3 -52.0 52.1 37 40 39
-143.5 -52.2 52.3 59 59 59
-142.3 -52.2 52.3 74 74 74
-140.3 -51.9 52.0 83 83 83
-138.3 -51.6 51.7 78 80 78
-140.6 -52.9 53.0 161 164 163
-137.4 -52.2 52.3 192 192 192
-134.7 -51.6 51.7 90 92 91
-135.0 -52.2 52.3 18 22 19
-134.9 -52.6 52.7 27 27 27
-132.9 -52.3 52.4 43 42 41
-133.2 -52.9 53.0 70 70 70
-130.1 -52.2 52.3 75 75 75
-128.5 -52.0 52.1 75 76 76
-127.3 -52.0 52.1 79 81 79
-126.1 -52.0 52.1 170 172 172
-123.5 -51.5 51.5 145 147 147
-126.1 -53.0 53.1 164 167 166
-124.2 -52.7 52.8 109 111 111
-121.6 -52.2 52.3 164 167 166
-121.7 -52.7 52.8 172 172 172
-119.2 -52.2 52.3 177 177 177
-116.7 -51.6 51.7 40 42 42
-118.4 -52.9 53.0 65 66 64
-114.3 -52.2 52.3 89 90 88
-111.6 -51.5 51.5 141 141 141
-112.6 -53.6 53.7 118 120 119
-110.7 -53.3 53.4 134 134 134
-106.4 -51.9 52.0 144 144 144
-104.4 -51.5 51.5 164 164 164
-107.0 -53.3 53.4 58 58 56
-105.4 -53.2 53.3 59 59 59
-103.9 -53.0 53.1 59 59 59
-101.2 -52.3 52.4 72 72 72
-99.8 -52.2 52.3 97 97 97
-99.6 -52.7 52.8 222 222 222
-97.3 -52.2 52.3 227 227 227
-95.6 -51.9 52.0 228 228 228
-96.0 -52.7 52.8 237 237 237
-95.8 -53.3 53.4 230 230 230
-92.5 -52.2 52.3 227 227 227
-91.5 -52.3 52.4 221 221 221
-91.8 -53.2 53.3 206 209 208
-90.1 -52.9 53.0 188 188 188
-88.8 -52.9 53.0 65 65 65
-87.1 -52.6 52.7 59 59 57
-84.9 -52.0 52.1 46 45 43
-84.0 -52.2 52.3 46 45 43
-80.2 -52.9 53.0 210 210 210
-77.5 -51.9 52.0 198 198 198
-76.3 -51.9 52.0 179 182 181
-74.8 -51.7 51.8 145 145 144
-8.1 -10.5 10.5 199 199 199
-7.8 -10.4 10.4 199 199 199
-7.5 -10.4 10.4 175 175 175
-32.7 -51.7 51.8 101 101 101
-30.4 -50.0 50.0 112 112 112
-29.5 -50.4 50.4 53 52 52
-28.6 -50.9 51.0 20 20 20
-27.6 -51.2 51.3 160 160 160
-26.5 -51.5 51.5 179 179 179
25.8 -15.6 15.6 218 221 220
250.4 -133.0 133.2 220 223 222
286.3 -136.8 137.1 186 186 186
239.3 -113.1 113.3 195 195 195
211.5 -98.9 99.0 199 199 199
219.5 -101.5 101.7 203 203 203
41.0 -16.2 16.2 77 77 77
41.1 -16.1 16.1 78 78 78
346.4 -107.9 108.1 43 45 45
-150.9 -52.2 53.6 35 35 35
-31.0 -51.8 53.1 43 43 43
-29.5 -51.4 52.7 22 22 22
-28.8 -52.2 53.6 160 163 162
25.7 -15.2 15.6 218 221 220
274.4 -128.1 131.4 186 186 186
227.0 -104.8 107.5 193 193 193
201.0 -91.8 94.1 199 199 199
205.2 -92.7 95.1 203 203 203
266.6 -80.5 82.6 53 52 51
-8.6 -10.3 10.8 198 198 198
-51.4 -90.9 95.5 169 169 169
-47.9 -88.7 93.2 180 180 180
25.9 -15.0 15.7 218 221 220
227.0 -102.3 107.5 195 195 195
190.5 -84.9 89.2 199 199 199
259.8 -76.6 80.5 55 54 53
204.3 -59.8 62.8 69 68 67
-59.3 -98.1 105.7 20 20 20
-55.6 -96.0 103.4 158 158 158
-51.7 -93.4 100.6 181 181 181
25.3 -14.1 15.2 220 223 222
211.3 -60.4 65.0 77 80 79
-70.4 -109.1 120.5 23 24 23
-65.5 -105.7 116.8 22 22 22
-61.3 -103.2 114.0 171 173 173
-60.8 -107.0 118.2 180 180 180
13.8 -9.1 10.1 218 221 220
14.0 -9.1 10.0 218 221 220
26.1 -14.3 15.8 217 217 217
25.3 -13.7 15.2 217 217 217
232.3 -99.6 110.0 180 180 180
206.1 -87.4 96.5 197 197 197
-81.8 -123.6 140.1 31 31 31
-70.7 -111.2 126.1 31 31 31
-67.3 -110.5 125.3 176 176 176
-68.0 -116.7 132.3 179 179 179
13.7 -9.0 10.2 218 221 220
13.8 -8.9 10.1 218 221 220
15.6 -8.8 10.0 220 223 222
25.7 -13.8 15.6 220 223 222
227.0 -94.8 107.5 174 174 174
200.0 -82.6 93.6 197 197 197
198.2 -81.0 91.8 199 199 199
-96.9 -142.5 165.9 29 29 29
-76.9 -117.7 137.1 30 29 29
-71.1 -113.6 132.3 169 171 170
-86.9 -145.0 168.9 179 179 179
157.7 -266.3 310.1 225 227 227
13.8 -8.6 10.1 218 221 220
26.6 -14.0 16.3 220 223 222
227.0 -92.3 107.5 174 176 176
204.0 -82.0 95.5 197 197 197
207.3 -82.5 96.0 199 199 199
-113.9 -162.9 195.0 27 27 27
-94.7 -141.1 168.9 23 24 23
141.4 -232.4 278.2 225 227 227
26.6 -13.7 16.4 220 223 222
229.6 -90.8 108.7 180 180 180
204.0 -79.8 95.5 194 194 194
-23.6 -9.7 11.9 62 61 60
-23.4 -9.7 11.9 62 61 60
-22.9 -9.6 11.9 58 59 59
-160.1 -222.7 274.1 26 25 24
141.4 -226.0 278.2 225 227 227
13.7 -8.1 10.0 218 221 220
26.6 -13.3 16.3 220 223 222
493.9 -192.1 236.5 174 176 176
245.1 -94.3 116.1 180 180 180
207.2 -78.8 97.0 193 193 193
275.0 -69.2 85.2 60 60 60
-24.6 -9.5 12.0 173 173 173
-23.7 -9.4 12.0 58 59 59
-23.4 -9.4 12.0 62 61 60
-23.1 -9.4 11.9 58 59 59
-9.1 -9.1 11.5 197 197 197
-8.8 -9.0 11.4 194 194 194
152.7 -236.9 300.3 225 227 227
13.7 -7.9 10.0 218 221 220
26.6 -12.9 16.4 222 224 224
242.2 -90.5 114.6 169 171 170
213.7 -79.0 100.1 183 183 183
212.8 -51.6 65.5 63 63 63
-24.4 -9.2 12.0 103 103 103
-23.7 -9.2 12.0 58 59 59
-23.4 -9.2 11.9 58 59 59
-23.0 -9.1 11.9 57 57 57
-9.6 -9.0 11.8 200 202 202
-8.8 -8.8 11.5 193 193 193
155.1 -233.6 305.1 225 227 227
13.8 -7.7 10.1 218 221 220
26.4 -12.5 16.3 222 224 224
248.2 -90.0 117.5 134 137 136
214.9 -77.1 100.6 169 171 170
324.3 -111.4 145.5 200 200 200
213.5 -50.3 65.7 64 64 64
-25.3 -8.9 11.9 146 148 148
-24.5 -8.9 12.0 123 125 124
-24.2 -8.9 12.0 106 106 106
-23.9 -8.9 11.9 63 62 61
-23.4 -8.9 12.0 43 45 44
-23.0 -8.9 11.9 49 49 49
-9.7 -8.8 11.8 198 201 200
-9.2 -8.6 11.6 196 199 198
200.4 -292.6 394.1 225 227 227
26.7 -12.2 16.4 222 224 224
429.5 -152.7 205.6 176 179 178
251.3 -88.3 119.0 145 145 144
-23.1 -8.6 11.9 48 47 46
-9.7 -8.5 11.8 196 199 198
-9.2 -8.3 11.6 195 195 195
160.3 -226.8 315.3 224 226 226
26.7 -11.8 16.4 222 224 224
403.2 -138.8 193.0 175 177 177
277.5 -94.5 131.4 90 90 90
212.7 -70.9 98.5 192 192 192
496.6 -162.0 225.2 197 197 197
331.9 -107.1 148.9 197 197 197
316.4 -100.0 139.1 200 200 200
308.3 -96.5 134.2 200 200 200
327.7 -101.5 141.2 202 202 202
26.3 -11.3 16.2 222 224 224
424.9 -141.6 203.4 198 198 198
230.8 -75.2 108.1 152 152 152
226.9 -73.1 105.1 185 185 185
329.3 -102.9 147.8 197 197 197
333.6 -102.1 146.6 197 197 197
331.9 -100.5 144.4 200 200 200
332.7 -99.7 143.3 202 202 202
54.2 -87.8 130.5 154 156 156
78.7 -114.7 170.4 221 221 221
26.5 -11.0 16.3 222 224 224
407.4 -131.2 195.0 183 183 183
259.4 -82.6 122.8 135 135 135
252.5 -79.5 118.2 158 158 158
238.8 -74.4 110.6 182 182 182
365.9 -111.6 165.9 194 194 194
331.9 -100.2 148.9 197 197 197
336.2 -99.4 147.8 197 197 197
334.4 -97.9 145.5 200 200 200
332.7 -96.4 143.3 202 202 202
273.8 -78.6 116.8 202 202 202
301.5 -84.8 126.1 207 207 207
52.7 -82.5 127.0 147 147 147
184.9 -236.3 363.8 225 227 227
26.5 -10.6 16.3 223 225 225
259.4 -79.8 122.8 134 134 134
254.1 -77.3 119.0 157 157 157
294.8 -85.9 132.3 195 195 195
294.7 -84.2 129.6 198 198 198
304.9 -85.3 131.4 202 202 202
282.5 -78.3 120.5 202 202 202
281.9 -75.8 116.8 199 199 199
165.8 -204.3 326.1 225 227 227
179.7 -50.0 79.8 198 198 198
196.0 -50.8 81.2 203 203 203
189.8 -48.8 77.8 225 227 227
218.5 -54.6 90.5 199 199 199
181.5 -44.9 74.5 234 234 234
181.5 -206.9 356.9 226 229 228
172.9 -42.3 73.0 205 205 205
233.2 -56.5 97.5 209 209 209
178.0 -42.3 73.0 236 236 236
49.4 -66.2 119.0 148 148 148
41.1 -52.1 93.6 203 203 203
416.0 -110.8 199.1 179 179 179
270.4 -64.2 115.3 203 203 203
243.2 -56.6 101.7 205 205 205
223.9 -51.6 92.7 200 200 200
52.0 -66.8 125.3 135 135 135
41.7 -50.7 95.1 205 205 205
411.6 -105.1 197.0 181 181 181
257.8 -65.1 122.0 119 119 119
219.6 -52.0 97.5 196 196 196
313.7 -72.1 135.1 203 203 203
260.9 -59.3 111.3 203 203 203
247.2 -55.1 103.4 205 205 205
235.4 -52.0 97.5 200 200 200
427.1 -92.6 173.5 235 238 237
370.0 -79.4 148.9 110 112 111
40.7 -47.3 92.7 222 222 222
213.7 -51.1 100.1 139 141 140
211.6 -50.0 98.0 174 176 176
209.8 -47.5 93.2 194 194 194
224.1 -50.3 98.5 196 196 196
215.2 -47.8 93.6 197 197 197
249.2 -54.2 106.3 203 203 203
220.6 -47.5 93.2 205 205 205
235.6 -50.3 98.5 208 208 208
220.6 -46.6 91.4 200 200 200
447.6 -92.8 181.9 231 230 228
39.3 -43.6 89.7 226 229 228
56.3 -43.9 90.1 225 225 225
206.1 -47.0 96.5 144 146 146
199.2 -44.9 92.3 172 172 172
181.8 -40.6 83.3 186 186 186
206.6 -45.1 92.7 192 192 192
201.9 -43.6 89.7 194 194 194
209.9 -44.9 92.3 197 197 197
206.0 -43.6 89.7 197 197 197
203.3 -42.6 87.6 200 200 200
217.4 -45.1 92.7 203 203 203
208.3 -42.8 88.0 204 204 204
226.2 -46.0 94.6 206 206 206
214.4 -43.2 88.8 200 200 200
186.7 -37.3 76.6 221 221 221
41.9 -44.3 95.5 214 216 216
212.7 -45.7 98.5 149 151 151
210.9 -43.4 93.6 195 195 195
218.4 -44.5 96.0 197 197 197
217.4 -43.8 94.6 200 200 200
327.7 -65.4 141.2 200 200 200
299.7 -59.3 127.8 204 204 204
228.5 -44.7 96.5 204 204 204
235.6 -45.7 98.5 204 204 204
221.7 -42.6 91.8 208 208 208
197.9 -37.6 81.2 212 213 212
541.3 -102.0 220.0 221 221 221
19.3 -4.6 11.7 225 225 225
20.9 -4.6 11.7 225 225 225
21.2 -4.6 11.7 221 221 221
21.5 -4.6 11.7 225 225 225
21.8 -4.6 11.7 225 225 225
22.0 -4.6 11.7 225 225 225
22.3 -4.6 11.7 225 225 225
22.6 -4.6 11.7 225 225 225
-133.1 -17.5 47.3 67 67 67
-473.4 -75.4 203.4 66 66 66
-99.1 -17.0 45.8 65 66 64
19.3 -4.3 11.7 222 222 222
19.5 -4.3 11.7 222 222 222
19.8 -4.3 11.7 226 226 226
20.1 -4.3 11.7 226 229 228
20.4 -4.3 11.7 226 226 226
20.6 -4.3 11.7 226 226 226
20.9 -4.3 11.7 222 222 222
21.2 -4.3 11.7 222 222 222
21.5 -4.3 11.7 222 222 222
21.7 -4.3 11.7 226 226 226
22.0 -4.3 11.7 226 226 226
22.3 -4.3 11.7 226 226 226
22.5 -4.3 11.7 226 226 226
22.8 -4.3 11.7 226 226 226
-134.5 -16.6 47.8 64 64 64
-133.4 -16.6 47.8 65 65 65
-132.3 -16.6 47.8 65 65 65
-131.2 -16.6 47.8 67 67 67
-130.0 -16.6 47.8 68 68 68
-128.9 -16.6 47.8 68 68 68
-127.8 -16.6 47.8 69 69 69
-126.7 -16.6 47.8 69 69 69
-125.6 -16.6 47.8 67 67 67
-124.5 -16.6 47.8 68 68 68
-123.4 -16.6 47.8 68 68 68
-122.3 -16.6 47.8 69 69 69
-121.2 -16.6 47.8 69 69 69
-120.1 -16.6 47.8 70 70 70
-118.9 -16.6 47.8 70 70 70
-117.8 -16.6 47.8 71 71 71
-116.7 -16.6 47.8 68 68 68
-115.6 -16.6 47.8 69 69 69
-114.2 -16.6 47.6 67 68 66
-113.1 -16.6 47.6 70 70 70
-113.1 -16.7 48.1 67 69 67
-111.7 -16.7 48.0 65 65 65
-109.8 -16.6 47.6 66 66 66
-109.0 -16.6 47.8 66 66 66
-107.8 -16.6 47.8 67 67 67
-108.9 -16.9 48.8 63 64 62
-107.2 -16.8 48.5 64 65 63
-104.5 -16.6 47.8 64 65 63
-102.1 -16.4 47.2 65 66 64
-99.8 -16.2 46.6 65 66 64
29.0 -5.6 16.0 222 222 222
22.3 -4.1 11.7 226 226 226
-93.8 -14.2 43.8 62 62 62
-92.7 -14.2 43.8 65 66 64
903.7 -58.7 363.8 107 109 109
694.8 -39.0 282.3 191 191 191
783.2 -43.6 315.3 104 104 104
939.8 -8.3 378.3 99 101 101
968.0 -8.5 386.0 87 87 87
988.1 0.5 394.1 88 88 88
66.5 0.0 17.9 86 86 86
96.5 0.6 25.8 87 87 87
95.5 1.2 25.5 87 87 87
93.4 1.2 24.8 89 89 89
582.3 25.8 363.8 176 179 178
90.4 1.7 24.0 90 90 90
88.3 1.7 23.3 92 95 94
529.0 20.3 215.0 68 71 70
510.0 19.2 203.4 46 45 43
488.5 18.2 193.0 44 43 42
492.4 18.0 191.1 50 50 50
87.3 2.2 23.2 89 89 89
84.7 2.1 22.4 90 90 90
83.3 2.1 21.9 170 171 170
738.9 35.3 300.3 66 66 66
839.1 39.7 337.8 41 41 41
878.3 41.2 350.3 25 25 25
617.1 28.1 239.4 48 48 48
84.6 2.6 22.4 90 90 90
83.6 2.6 21.9 163 163 163
84.3 2.6 22.0 130 130 130
988.1 55.5 394.1 26 26 26
85.0 3.2 22.5 94 97 96
851.3 63.3 386.0 174 174 174
738.9 49.2 300.3 77 77 77
810.2 53.5 326.1 77 77 77
878.3 57.4 350.3 37 38 37
727.6 46.3 282.3 71 73 73
999.7 53.5 326.1 54 54 54
1230.0 62.0 378.3 119 121 120
1049.8 52.6 320.6 120 122 121
988.1 73.8 394.1 159 162 161
1264.1 72.3 386.0 52 53 51
104.1 5.1 27.5 95 98 97
104.6 5.1 27.5 85 84 82
464.8 38.7 183.7 181 184 183
524.2 42.8 203.4 196 196 196
106.3 5.9 27.9 82 82 82
108.7 6.0 28.4 171 173 173
443.2 40.9 175.2 191 191 191
507.8 46.0 197.0 195 195 195
108.5 6.7 28.5 73 73 73
110.5 6.7 28.8 164 164 164
110.5 7.4 28.8 162 162 162
-72.2 13.6 44.9 18 22 19
-122.7 14.2 43.6 205 205 205
-122.3 14.3 43.8 207 210 209
-121.2 14.3 43.8 206 206 206
-120.2 14.3 43.8 208 211 210
-119.2 14.3 43.8 209 212 211
-118.2 14.3 43.8 209 212 211
-117.2 14.3 43.8 210 213 212
-116.2 14.3 43.8 210 210 210
-115.1 14.3 43.8 212 214 214
-113.6 14.2 43.6 213 215 215
-112.3 14.2 43.5 214 216 216
-111.6 14.2 43.6 214 216 216
-111.1 14.3 43.8 215 218 217
-105.0 14.2 43.4 212 213 212
-104.2 14.2 43.5 199 199 199
-104.1 14.5 44.3 181 181 181
-101.9 14.3 43.8 190 192 192
-100.3 14.4 44.0 159 159 159
-98.9 14.3 43.8 202 202 202
-96.0 14.3 43.9 115 115 115
-94.8 14.3 43.8 88 88 88
-93.3 14.2 43.6 112 112 112
-92.1 14.2 43.5 163 163 163
-91.9 14.3 43.9 158 161 160
-93.1 14.7 44.9 77 77 77
-89.9 14.3 43.9 45 45 45
-72.9 14.4 44.1 24 24 24
-71.5 14.3 43.9 18 18 18
-71.2 14.5 44.3 18 18 18
-69.3 14.3 43.8 17 17 17
-68.5 14.3 43.9 19 19 19
-67.3 14.3 43.8 19 23 20
-66.4 14.3 43.9 19 23 20
-65.3 14.3 43.8 21 24 22
-63.5 14.1 43.3 27 27 27
-60.7 14.4 44.2 142 144 143
-59.7 14.4 44.2 146 146 146
-58.1 14.3 43.8 147 147 147
-55.1 14.3 43.8 228 231 230
-120.2 14.9 42.7 206 206 206
-93.4 14.9 42.7 48 50 48
-92.0 14.9 42.5 55 55 55
-90.4 14.8 42.2 91 90 89
-89.6 14.8 42.3 165 165 165
-90.7 15.3 43.8 84 83 81
-88.1 15.0 43.0 45 45 45
-86.7 15.0 42.8 44 43 42
-70.8 15.0 42.8 23 23 23
-69.1 14.8 42.4 17 17 17
-69.7 15.2 43.4 16 16 16
-67.5 14.9 42.6 17 17 17
-66.6 14.9 42.7 16 16 16
-65.5 14.9 42.6 19 19 19
-64.5 14.9 42.6 19 19 19
-63.2 14.8 42.4 20 23 21
-62.5 14.9 42.6 29 31 29
-59.1 14.8 42.3 142 144 143
-59.4 15.1 43.2 146 146 146
-58.2 15.1 43.1 149 149 149
-56.7 14.9 42.7 154 154 154
-55.7 14.9 42.7 158 158 158
-64.3 15.9 42.5 18 18 18
-56.1 15.8 42.2 154 154 154
-1008.8 257.0 394.1 115 114 114
-999.6 257.0 394.1 117 119 118
-963.0 257.0 394.1 120 122 121
-934.3 251.7 386.0 123 123 123
-926.3 257.0 394.1 109 111 111
-836.5 246.7 378.3 108 108 108
-862.2 257.0 394.1 111 111 111
-853.0 257.0 394.1 120 120 120
-826.7 251.7 386.0 116 116 116
-817.7 251.7 386.0 123 125 124
-808.7 251.7 386.0 132 132 132
-799.7 251.7 386.0 138 140 139
-798.1 257.0 394.1 171 170 169
-736.9 251.7 386.0 145 145 144
-728.0 251.7 386.0 134 134 134
-719.0 251.7 386.0 132 132 132
-710.0 251.7 386.0 124 126 125
-701.0 251.7 386.0 122 122 122
-692.1 251.7 386.0 121 121 121
-683.1 251.7 386.0 119 119 119
-674.1 251.7 386.0 113 115 114
-665.1 251.7 386.0 111 111 111
-656.2 251.7 386.0 112 112 112
-647.2 251.7 386.0 118 118 118
-638.2 251.7 386.0 126 128 127
-629.3 251.7 386.0 134 134 134
-633.2 257.0 394.1 138 140 139
-624.0 257.0 394.1 141 141 141
-602.3 251.7 386.0 149 151 151
-593.4 251.7 386.0 156 156 156
-572.7 246.7 378.3 168 168 168
-563.9 246.7 378.3 177 180 179
-555.1 246.7 378.3 156 156 156
-530.5 251.7 386.0 124 127 126
-459.2 257.0 394.1 33 33 31
-450.0 257.0 394.1 116 116 116
-431.8 251.7 386.0 132 135 134
-422.9 251.7 386.0 139 139 139
162.7 241.9 370.9 80 80 80
139.1 186.9 286.6 87 87 85
37.4 17.0 10.5 105 105 105
