ply
format ascii 1.0
element vertex 2848
property float x
property float y
property float z
property uchar red
property uchar green
property uchar blue
end_header
122.8 -271.2 108.1 163 163 163
126.0 -272.8 108.7 163 163 163
127.8 -271.2 108.1 160 160 160
130.3 -271.2 108.1 163 163 163
141.2 -272.8 108.7 156 159 158
142.1 -269.7 107.5 156 159 158
52.2 -74.3 29.6 158 161 160
52.7 -74.0 29.5 158 161 160
53.7 -74.4 29.6 159 162 161
54.4 -74.4 29.6 157 157 157
54.8 -74.0 29.5 158 158 158
55.7 -74.4 29.6 158 158 158
58.1 -75.7 30.2 156 156 156
58.0 -74.6 29.7 157 157 157
84.6 -62.2 24.8 98 100 100
84.8 -61.9 24.7 96 99 98
91.1 -199.2 80.2 163 163 163
81.6 -132.5 53.3 157 160 159
53.2 -75.0 30.2 158 161 160
53.7 -74.6 30.0 158 161 160
55.0 -75.5 30.4 159 162 161
55.6 -75.4 30.3 159 162 161
55.7 -74.6 30.0 160 163 162
57.2 -75.6 30.4 158 158 158
57.7 -75.4 30.3 158 158 158
59.8 -77.2 31.1 159 159 159
59.6 -76.0 30.6 159 159 159
116.9 -88.7 35.7 104 103 101
108.5 -81.8 32.9 104 103 101
83.3 -60.7 24.4 98 100 100
82.3 -59.5 23.9 96 99 98
85.8 -61.2 24.6 93 93 93
64.7 -42.0 16.9 193 193 193
48.7 -126.2 51.3 165 165 165
52.7 -127.3 51.7 162 162 162
50.9 -120.1 48.8 162 162 162
50.4 -116.5 47.3 162 162 162
54.8 -121.3 49.3 163 163 163
58.7 -127.3 51.7 163 163 163
58.5 -124.2 50.4 163 163 163
60.5 -125.9 51.1 163 163 163
58.6 -119.7 48.6 163 163 163
60.7 -121.6 49.4 163 163 163
64.4 -126.6 51.4 163 163 163
65.2 -125.9 51.1 163 163 163
66.6 -126.2 51.3 163 163 163
120.2 -224.0 90.9 163 163 163
76.2 -122.6 49.8 161 161 161
71.0 -112.5 45.7 161 161 161
53.6 -74.9 30.4 158 161 160
54.3 -74.8 30.4 158 161 160
55.3 -75.3 30.6 159 162 161
55.8 -74.9 30.4 159 162 161
56.2 -74.5 30.3 160 163 162
57.4 -75.1 30.5 160 163 162
57.9 -74.9 30.4 160 163 162
60.0 -75.7 30.8 159 159 159
104.7 -78.2 31.7 104 103 101
101.2 -75.0 30.5 104 103 101
79.0 -57.0 23.2 98 100 100
76.7 -54.9 22.3 96 99 98
77.1 -54.9 22.3 95 95 95
63.5 -44.3 18.0 93 93 93
63.7 -44.1 17.9 90 90 90
63.9 -44.0 17.9 95 95 95
64.2 -43.9 17.8 96 99 98
65.9 -44.5 18.1 154 154 154
65.9 -44.2 18.0 196 199 198
66.0 -44.0 17.9 196 199 198
68.0 -44.2 18.0 219 219 219
68.2 -44.1 17.9 188 188 188
66.7 -42.9 17.4 193 193 193
30.0 -109.1 44.7 164 164 164
31.1 -109.1 44.7 167 167 167
32.1 -109.1 44.7 167 167 167
35.2 -109.1 44.7 168 168 168
36.2 -109.1 44.7 168 168 168
37.3 -109.1 44.7 165 165 165
38.3 -109.1 44.7 165 165 165
39.4 -109.1 44.7 165 165 165
40.1 -108.3 44.4 165 165 165
41.1 -108.1 44.3 165 165 165
43.0 -110.4 45.3 165 165 165
43.1 -108.1 44.3 162 162 162
47.0 -109.9 45.0 162 162 162
46.6 -106.6 43.7 162 162 162
51.0 -111.7 45.8 163 163 163
51.7 -110.9 45.5 163 163 163
53.6 -110.7 45.4 163 163 163
53.8 -108.8 44.6 160 160 160
56.8 -110.7 45.4 160 160 160
56.5 -108.1 44.3 160 160 160
57.5 -108.1 44.3 160 160 160
58.2 -107.3 44.0 160 160 160
76.0 -121.1 49.6 164 164 164
68.1 -106.8 43.8 164 164 164
54.6 -75.5 31.0 161 164 163
55.4 -75.6 31.0 161 164 163
56.8 -76.5 31.4 162 165 164
56.7 -75.4 30.9 159 162 161
56.8 -74.7 30.6 160 163 162
58.7 -76.1 31.2 160 163 162
59.2 -75.9 31.1 160 163 162
60.7 -75.9 31.1 159 159 159
102.3 -75.6 31.0 104 103 101
98.2 -72.1 29.6 98 100 100
77.1 -55.1 22.6 96 99 98
75.6 -53.7 22.0 95 95 95
62.8 -43.1 17.7 90 90 90
62.1 -42.4 17.4 88 88 88
65.1 -43.2 17.7 196 199 198
65.9 -42.4 17.4 204 204 204
66.5 -42.6 17.5 196 196 196
66.0 -42.0 17.2 212 213 212
37.0 -104.3 43.2 165 165 165
37.9 -104.1 43.1 165 165 165
41.1 -104.6 43.3 165 165 165
45.4 -105.1 43.5 162 162 162
45.4 -102.9 42.6 162 162 162
43.3 -96.0 39.7 163 163 163
50.4 -105.1 43.5 163 163 163
51.3 -104.8 43.4 163 163 163
51.4 -102.9 42.6 166 166 166
54.5 -105.1 43.5 166 166 166
54.7 -103.6 42.9 166 166 166
55.1 -102.5 42.4 163 163 163
56.6 -103.4 42.8 163 163 163
77.5 -130.2 53.9 167 167 167
65.0 -104.1 43.1 167 167 167
66.4 -103.2 42.7 164 164 164
126.9 -188.9 78.2 166 166 166
108.2 -158.7 65.7 166 166 166
59.2 -79.1 32.7 162 165 164
58.8 -77.5 32.1 162 165 164
135.6 -176.5 73.0 162 165 164
102.6 -75.2 31.1 104 103 101
95.6 -69.6 28.8 98 100 100
76.2 -54.0 22.3 95 95 95
63.2 -43.2 17.9 90 90 90
62.4 -42.4 17.6 90 90 90
62.1 -42.0 17.4 98 100 100
64.4 -40.6 16.8 215 215 215
21.2 -99.7 41.7 162 162 162
22.2 -99.7 41.7 165 165 165
26.0 -99.5 41.6 167 167 167
26.9 -99.5 41.6 167 167 167
27.9 -99.5 41.6 167 167 167
28.9 -99.5 41.6 167 167 167
29.8 -99.5 41.6 167 167 167
30.8 -99.5 41.6 167 167 167
31.8 -99.5 41.6 168 168 168
32.7 -99.5 41.6 168 168 168
33.7 -99.5 41.6 168 168 168
34.7 -99.5 41.6 165 165 165
35.6 -99.5 41.6 165 165 165
36.5 -99.3 41.5 165 165 165
37.4 -99.0 41.4 165 165 165
38.4 -99.3 41.5 165 165 165
39.5 -99.5 41.6 165 165 165
40.4 -99.3 41.5 165 165 165
41.6 -99.9 41.8 165 165 165
42.9 -100.6 42.0 165 165 165
43.9 -100.8 42.1 165 165 165
43.6 -97.8 40.9 166 166 166
43.7 -95.9 40.1 166 166 166
46.5 -99.9 41.8 166 166 166
47.2 -99.5 41.6 166 166 166
48.4 -99.9 41.8 166 166 166
49.6 -100.4 41.9 169 169 169
50.1 -99.5 41.6 169 169 169
51.2 -99.7 41.7 169 169 169
52.6 -100.6 42.0 169 169 169
53.1 -99.7 41.7 169 169 169
53.5 -98.6 41.2 169 169 169
54.4 -98.4 41.1 169 169 169
55.9 -99.5 41.6 169 169 169
57.1 -99.9 41.8 169 169 169
61.5 -102.4 42.8 170 171 170
61.7 -101.0 42.2 170 171 170
62.7 -99.5 41.6 170 171 170
65.5 -100.8 42.1 170 171 170
123.3 -187.0 78.2 172 172 172
124.4 -183.3 76.6 168 168 168
147.6 -192.6 80.5 166 166 166
135.6 -174.8 73.0 167 167 167
102.3 -74.2 31.0 104 103 101
87.9 -62.9 26.3 98 100 100
83.2 -59.1 24.7 98 100 100
25.1 -91.7 38.7 167 167 167
26.0 -91.7 38.7 167 167 167
26.9 -91.7 38.7 167 167 167
27.8 -91.7 38.7 164 164 164
28.7 -91.7 38.7 164 164 164
29.6 -91.7 38.7 165 165 165
30.5 -91.7 38.7 168 168 168
31.4 -91.7 38.7 170 172 172
32.3 -91.7 38.7 168 168 168
33.1 -91.5 38.6 165 165 165
34.0 -91.5 38.6 165 165 165
34.9 -91.5 38.6 165 165 165
35.8 -91.5 38.6 168 168 168
36.9 -92.0 38.8 168 168 168
38.3 -91.1 38.4 168 168 168
41.1 -93.4 39.4 168 168 168
41.6 -92.4 39.0 168 168 168
39.0 -84.9 35.8 169 169 169
46.9 -92.2 38.9 171 173 173
49.2 -93.2 39.3 171 173 173
49.5 -92.0 38.8 171 173 173
50.0 -91.3 38.5 171 173 173
50.8 -91.1 38.4 171 173 173
51.9 -91.5 38.6 171 173 173
53.5 -92.6 39.1 171 173 173
53.7 -91.5 38.6 172 174 174
58.9 -91.1 38.4 172 174 174
115.8 -166.6 70.3 174 176 176
146.9 -189.9 80.2 169 169 169
47.0 -29.8 12.6 180 183 182
46.8 -29.5 12.4 212 213 212
22.0 -82.7 35.2 167 167 167
22.7 -82.3 35.1 167 167 167
23.6 -82.3 35.1 167 167 167
24.4 -82.3 35.1 169 171 170
25.2 -82.3 35.1 167 167 167
26.0 -82.3 35.1 167 167 167
26.8 -82.3 35.1 168 168 168
27.1 -80.7 34.4 168 168 168
28.0 -81.1 34.6 170 172 172
28.8 -81.1 34.6 170 172 172
29.6 -81.1 34.6 170 172 172
30.6 -81.4 34.7 170 172 172
31.4 -81.4 34.7 170 172 172
31.9 -80.7 34.4 170 172 172
33.2 -82.0 35.0 170 172 172
34.6 -81.4 34.7 170 172 172
37.8 -83.3 35.5 171 173 173
37.9 -81.6 34.8 173 175 175
37.9 -80.0 34.1 171 173 173
45.3 -83.3 35.5 173 175 175
44.9 -81.1 34.6 173 175 175
44.7 -79.4 33.8 173 175 175
47.2 -82.3 35.1 173 175 175
47.6 -81.6 34.8 178 178 178
47.9 -80.7 34.4 179 179 179
51.1 -83.4 35.6 181 181 181
51.9 -83.3 35.5 174 176 176
54.8 -83.9 35.8 179 179 179
54.6 -82.3 35.1 172 174 174
144.2 -211.4 90.1 173 175 175
132.2 -185.7 79.1 181 181 181
146.9 -188.1 80.2 176 179 178
46.0 -28.7 12.2 212 213 212
46.1 -28.6 12.2 215 215 215
46.2 -28.5 12.1 215 215 215
46.2 -28.3 12.1 220 220 220
24.1 -78.1 33.6 169 171 170
24.9 -78.1 33.6 169 171 170
25.7 -78.1 33.6 170 172 172
26.4 -77.9 33.5 170 172 172
27.3 -78.2 33.7 170 172 172
28.8 -78.2 33.7 170 172 172
29.5 -77.9 33.5 185 185 185
30.3 -77.8 33.5 172 174 174
31.1 -78.1 33.6 162 162 162
46.2 -78.5 33.8 198 198 198
46.4 -77.5 33.4 200 200 200
46.5 -76.3 32.8 197 197 197
49.0 -79.2 34.1 194 194 194
49.5 -78.6 33.8 197 197 197
54.3 -82.4 35.5 200 200 200
53.7 -80.2 34.5 197 197 197
144.2 -209.3 90.1 198 198 198
133.6 -191.1 82.2 205 205 205
132.6 -187.0 80.5 203 203 203
131.7 -183.1 78.8 203 203 203
43.7 -27.1 11.7 205 205 205
44.8 -27.5 11.8 208 208 208
44.7 -27.3 11.7 218 218 218
44.8 -27.2 11.7 218 218 218
44.5 -73.6 32.0 204 204 204
44.2 -71.9 31.3 204 204 204
48.0 -75.5 32.8 204 204 204
47.5 -73.6 32.0 204 204 204
136.5 -193.4 84.1 205 205 205
132.0 -184.3 80.2 203 203 203
129.0 -177.6 77.2 206 206 206
106.8 -143.1 62.2 206 206 206
26.4 -34.4 15.0 204 204 204
26.5 -34.1 14.8 205 205 205
119.9 -86.7 37.7 110 112 111
113.9 -81.8 35.6 110 112 111
43.4 -26.1 11.3 218 218 218
45.3 -74.1 32.6 204 204 204
45.1 -72.5 31.8 204 204 204
48.6 -75.7 33.2 204 204 204
47.5 -72.9 32.0 204 204 204
135.9 -190.6 83.7 202 202 202
130.4 -180.2 79.1 203 203 203
122.5 -166.9 73.3 203 203 203
117.8 -158.3 69.5 203 203 203
106.8 -141.7 62.2 206 206 206
26.5 -34.2 15.0 207 207 207
26.6 -33.9 14.9 207 207 207
21.8 -23.0 10.1 158 158 158
24.7 -22.8 10.0 153 155 155
116.0 -83.0 36.4 113 115 114
112.1 -79.6 35.0 113 115 114
42.7 -25.4 11.2 215 215 215
48.0 -79.1 35.1 207 207 207
46.9 -76.0 33.7 206 206 206
45.7 -72.7 32.3 206 206 206
51.1 -80.1 35.6 206 206 206
50.5 -77.9 34.6 204 204 204
48.6 -73.7 32.7 204 204 204
48.8 -73.0 32.4 204 204 204
54.5 -80.3 35.6 204 204 204
54.0 -78.4 34.8 204 204 204
135.9 -188.6 83.7 205 205 205
128.8 -176.1 78.2 205 205 205
122.5 -165.2 73.3 206 206 206
111.3 -148.0 65.7 206 206 206
106.8 -140.2 62.2 206 206 206
26.7 -34.2 15.2 207 207 207
24.8 -23.0 10.2 156 159 158
25.1 -22.9 10.2 156 159 158
116.9 -82.8 36.7 113 115 114
112.5 -79.1 35.1 113 115 114
43.9 -79.7 35.8 207 207 207
44.7 -79.6 35.7 206 206 206
46.6 -80.0 35.9 206 206 206
47.4 -79.9 35.8 206 206 206
48.0 -79.6 35.7 206 206 206
48.6 -79.1 35.5 206 206 206
48.0 -76.8 34.5 206 206 206
45.4 -71.6 32.1 206 206 206
51.1 -79.3 35.6 206 206 206
50.7 -77.4 34.7 206 206 206
48.8 -73.2 32.8 206 206 206
53.3 -78.9 35.4 206 206 206
54.6 -79.6 35.7 206 206 206
54.3 -78.0 35.0 206 206 206
161.3 -228.0 102.3 206 206 206
150.7 -209.9 94.1 206 206 206
137.8 -189.2 84.8 207 207 207
129.8 -175.8 78.8 207 207 207
119.7 -159.8 71.7 207 207 207
111.3 -146.5 65.7 206 206 206
110.9 -144.0 64.6 206 206 206
27.0 -34.2 15.3 209 209 209
47.4 -79.1 35.8 206 206 206
48.7 -78.5 35.6 206 206 206
48.0 -76.2 34.5 206 206 206
44.5 -69.3 31.4 205 205 205
50.2 -77.0 34.9 205 205 205
49.4 -74.5 33.8 205 205 205
47.7 -70.9 32.1 205 205 205
47.1 -69.0 31.3 205 205 205
54.5 -78.6 35.6 205 205 205
54.4 -77.3 35.0 205 205 205
179.8 -251.5 114.0 206 206 206
154.5 -213.0 96.5 206 206 206
141.6 -192.4 87.2 206 206 206
27.2 -34.1 15.4 206 206 206
-7.2 -22.4 10.3 134 137 136
-5.3 -22.6 10.3 154 156 156
-3.9 -22.6 10.3 160 163 162
-3.6 -22.6 10.3 158 161 160
-3.4 -22.6 10.3 157 160 159
-3.2 -22.6 10.3 157 160 159
10.1 -22.6 10.4 209 209 209
44.0 -78.2 35.8 205 205 205
44.8 -78.1 35.8 205 205 205
45.5 -77.9 35.7 205 205 205
46.5 -78.2 35.8 205 205 205
47.4 -78.2 35.8 205 205 205
48.3 -78.4 35.9 211 211 211
48.8 -77.9 35.7 208 208 208
44.7 -69.0 31.6 205 205 205
50.1 -76.1 34.8 208 208 208
47.7 -71.3 32.7 208 208 208
47.6 -70.0 32.1 208 208 208
47.6 -69.0 31.6 202 202 202
54.5 -77.8 35.6 205 205 205
54.8 -76.9 35.2 205 205 205
137.2 -184.4 84.4 206 206 206
134.3 -178.0 81.5 206 206 206
28.2 -35.4 16.2 207 207 207
27.4 -33.9 15.5 205 205 205
-28.9 -22.2 10.3 46 45 43
-28.9 -22.3 10.3 46 45 43
-28.6 -22.3 10.3 46 45 43
-28.4 -22.3 10.3 47 48 47
-28.1 -22.3 10.3 47 48 47
-27.9 -22.3 10.3 47 48 47
-27.7 -22.3 10.3 47 48 47
-27.4 -22.3 10.3 42 43 42
-27.2 -22.3 10.3 46 45 43
-26.9 -22.3 10.3 47 48 47
-26.7 -22.3 10.3 47 48 47
-26.5 -22.3 10.3 47 48 47
-26.2 -22.3 10.3 46 45 43
-26.0 -22.3 10.3 47 48 47
-25.7 -22.3 10.3 46 45 43
-25.5 -22.3 10.3 42 42 42
-25.3 -22.3 10.3 42 42 42
-25.0 -22.3 10.3 42 42 42
-24.8 -22.3 10.3 42 42 42
-24.5 -22.3 10.3 40 40 40
-24.3 -22.3 10.3 40 40 40
-24.1 -22.3 10.3 40 40 40
-23.8 -22.3 10.3 40 40 40
-23.6 -22.3 10.3 40 40 40
-23.3 -22.3 10.3 40 40 40
-23.1 -22.3 10.3 42 42 42
-22.9 -22.3 10.3 42 42 42
-22.7 -22.4 10.4 45 44 43
-22.4 -22.4 10.4 42 42 42
-22.2 -22.4 10.4 37 38 37
-21.9 -22.3 10.3 51 51 51
-21.7 -22.3 10.3 59 60 58
-21.4 -22.3 10.3 76 76 74
-21.2 -22.3 10.3 85 87 87
-20.9 -22.3 10.3 90 90 90
-20.7 -22.3 10.3 95 98 97
-20.5 -22.3 10.3 97 100 99
-20.2 -22.3 10.3 103 103 103
-20.0 -22.3 10.3 106 106 106
-19.7 -22.3 10.3 105 105 105
-19.5 -22.3 10.3 107 107 107
-19.3 -22.3 10.3 108 110 110
-19.0 -22.3 10.3 108 110 110
-18.8 -22.3 10.3 107 109 109
-18.5 -22.3 10.3 107 109 109
-18.3 -22.3 10.3 109 111 111
-18.1 -22.3 10.3 109 111 111
-17.8 -22.3 10.3 108 110 110
-17.6 -22.3 10.3 112 112 112
-17.3 -22.3 10.3 115 114 114
-17.1 -22.4 10.3 116 116 116
-16.9 -22.3 10.3 118 118 118
-16.6 -22.3 10.3 119 121 120
-16.3 -22.3 10.3 119 121 120
-16.2 -22.4 10.4 119 121 120
-15.9 -22.3 10.3 119 121 120
-15.2 -22.3 10.3 123 123 123
-15.0 -22.4 10.4 123 123 123
-14.0 -22.4 10.4 126 126 126
-13.7 -22.3 10.3 129 129 129
-8.9 -22.4 10.4 140 139 138
-8.7 -22.3 10.3 140 140 140
-7.5 -22.3 10.3 134 136 135
-7.2 -22.1 10.3 137 137 137
-5.3 -22.3 10.3 159 159 159
-5.1 -22.4 10.4 163 163 163
-4.8 -22.3 10.3 163 163 163
-4.6 -22.4 10.4 162 162 162
-4.4 -22.3 10.3 161 164 163
-4.1 -22.3 10.3 160 163 162
-3.9 -22.3 10.3 161 164 163
-3.6 -22.3 10.3 160 163 162
-3.4 -22.3 10.3 164 164 164
-3.2 -22.3 10.3 163 163 163
-2.9 -22.3 10.3 165 165 165
-2.7 -22.4 10.4 168 168 168
-2.4 -22.3 10.3 168 168 168
-2.2 -22.3 10.3 168 168 168
-2.0 -22.4 10.3 168 168 168
1.9 -22.4 10.4 182 182 182
9.6 -22.3 10.3 209 209 209
9.8 -22.4 10.4 209 209 209
10.1 -22.4 10.3 209 209 209
10.3 -22.3 10.3 209 209 209
36.3 -69.0 32.0 205 205 205
48.1 -77.3 35.8 208 208 208
48.4 -76.4 35.4 207 207 207
45.0 -68.7 31.8 207 207 207
46.0 -69.0 32.0 207 207 207
47.5 -70.2 32.5 207 207 207
47.6 -69.3 32.1 210 210 210
47.8 -68.5 31.7 207 207 207
53.9 -76.1 35.2 210 210 210
54.3 -75.5 35.0 207 207 207
55.9 -76.5 35.4 205 205 205
28.2 -35.0 16.2 206 206 206
27.5 -33.7 15.6 205 205 205
-30.0 -22.8 10.7 46 46 44
-30.0 -23.0 10.7 48 48 48
-29.7 -23.0 10.7 48 48 48
-29.5 -23.0 10.7 46 46 44
-29.2 -23.0 10.7 48 48 48
-29.0 -23.0 10.7 50 50 50
-28.7 -23.0 10.7 48 48 48
-28.5 -23.0 10.7 48 48 48
-28.2 -23.0 10.7 50 50 50
-28.0 -23.0 10.7 48 48 48
-27.7 -23.0 10.7 48 48 48
-27.5 -23.0 10.7 48 48 48
-27.2 -23.0 10.7 48 48 48
-27.0 -23.0 10.7 46 46 44
-26.7 -23.0 10.7 46 46 44
-26.5 -23.0 10.7 46 46 44
-26.2 -23.0 10.7 42 43 42
-26.0 -23.0 10.7 42 43 42
-25.7 -23.0 10.7 42 43 42
-25.5 -23.0 10.7 41 41 41
-25.2 -23.0 10.7 38 38 38
-25.0 -23.0 10.7 38 38 38
-24.7 -23.0 10.7 38 38 38
-24.5 -23.0 10.7 38 38 38
-24.3 -23.0 10.7 41 41 41
-24.0 -23.0 10.7 42 43 42
-23.8 -23.0 10.7 41 41 41
-23.5 -23.0 10.7 41 41 41
-23.3 -23.0 10.7 41 41 41
-23.0 -23.0 10.7 41 41 41
-22.8 -23.0 10.7 42 43 42
-22.5 -23.0 10.7 42 43 42
-22.3 -23.0 10.7 46 45 43
-21.8 -22.8 10.7 49 49 49
-21.6 -22.8 10.7 66 68 67
-21.3 -22.8 10.7 78 78 78
-21.1 -22.8 10.7 86 88 88
-21.0 -23.0 10.7 92 92 92
-20.8 -23.0 10.7 96 99 98
-20.5 -23.0 10.7 102 102 102
-20.3 -23.0 10.7 104 104 104
-20.0 -23.0 10.7 106 106 106
-19.8 -23.0 10.7 106 106 106
-19.5 -23.0 10.7 106 106 106
-19.3 -23.0 10.7 106 106 106
-19.0 -23.0 10.7 108 108 108
-18.8 -23.0 10.7 108 108 108
-18.5 -22.9 10.7 108 110 110
-18.3 -23.0 10.7 108 110 110
-17.8 -23.0 10.7 110 112 111
-17.5 -23.0 10.7 113 114 113
-17.2 -22.9 10.7 113 114 113
-17.0 -23.0 10.7 115 115 115
-16.8 -23.0 10.7 117 117 117
-15.8 -23.0 10.7 120 122 121
-15.1 -23.1 10.8 121 123 122
-14.8 -23.0 10.7 121 123 122
-14.5 -22.9 10.7 124 124 124
-14.3 -23.0 10.7 124 124 124
-9.7 -22.9 10.7 136 136 136
-9.4 -22.8 10.7 137 139 138
-9.2 -22.8 10.7 140 139 138
-8.9 -22.7 10.6 140 140 140
-8.8 -23.0 10.7 141 143 142
-8.3 -23.0 10.8 139 141 140
-7.5 -23.0 10.8 143 143 142
-7.3 -23.0 10.8 143 145 144
-7.0 -23.0 10.7 147 147 147
-5.8 -22.9 10.7 162 162 162
-5.5 -23.0 10.7 165 165 165
-5.3 -23.0 10.7 164 167 166
-5.0 -22.9 10.7 163 166 165
-4.8 -22.9 10.7 164 167 166
-4.3 -23.0 10.7 166 166 166
-4.0 -23.0 10.7 165 165 165
-3.8 -23.0 10.7 168 168 168
-3.5 -23.0 10.7 170 171 170
-3.3 -23.0 10.7 170 171 170
-3.0 -23.0 10.7 171 173 173
-2.8 -23.0 10.7 171 173 173
-2.5 -23.0 10.7 171 173 173
0.7 -23.0 10.7 179 179 179
1.0 -23.0 10.7 179 179 179
1.2 -23.0 10.7 179 179 179
1.5 -22.9 10.7 179 179 179
1.7 -22.9 10.7 181 181 181
2.2 -22.6 10.6 181 181 181
7.2 -23.0 10.8 209 209 209
7.9 -22.9 10.7 209 209 209
8.2 -22.9 10.7 209 209 209
8.5 -23.0 10.7 209 209 209
8.7 -22.9 10.7 208 208 208
9.5 -23.0 10.7 208 208 208
9.7 -22.9 10.7 208 208 208
9.9 -22.7 10.6 208 208 208
10.4 -22.9 10.7 208 208 208
35.7 -68.5 32.1 208 208 208
36.4 -68.4 32.0 208 208 208
37.1 -68.4 32.0 207 207 207
41.6 -69.7 32.6 207 207 207
42.5 -69.9 32.7 207 207 207
42.4 -68.5 32.1 207 207 207
43.2 -68.6 32.1 207 207 207
45.5 -71.0 33.2 207 207 207
45.5 -69.9 32.7 207 207 207
45.1 -68.2 31.9 207 207 207
46.0 -68.3 32.0 207 207 207
47.4 -69.3 32.4 207 207 207
47.8 -68.9 32.2 207 207 207
48.0 -68.1 31.8 207 207 207
49.3 -68.9 32.2 206 206 206
52.3 -71.9 33.7 204 204 204
53.5 -72.4 33.9 202 202 202
52.9 -70.7 33.1 204 204 204
52.4 -69.0 32.3 205 205 205
52.9 -68.6 32.1 205 205 205
27.1 -32.5 15.2 206 206 206
-30.9 -23.2 11.0 49 49 49
-30.8 -23.3 11.0 49 49 49
-30.5 -23.3 11.0 49 49 49
-30.2 -23.3 11.0 49 49 49
-30.0 -23.3 11.0 51 51 51
-29.7 -23.3 11.0 51 51 51
-29.5 -23.3 11.0 51 51 51
-29.2 -23.3 11.0 49 49 49
-29.0 -23.3 11.0 51 51 51
-28.7 -23.3 11.0 51 51 51
-28.5 -23.3 11.0 49 49 49
-28.2 -23.3 11.0 49 49 49
-27.9 -23.3 11.0 48 48 48
-27.7 -23.3 11.0 46 46 44
-27.4 -23.3 11.0 46 46 44
-27.2 -23.3 11.0 43 43 43
-26.9 -23.3 11.0 43 43 43
-26.7 -23.3 11.0 43 43 43
-26.4 -23.3 11.0 43 43 43
-26.1 -23.3 11.0 42 42 42
-25.9 -23.3 11.0 42 42 42
-25.6 -23.3 11.0 42 42 42
-25.4 -23.3 11.0 42 42 42
-25.1 -23.3 11.0 42 42 42
-24.9 -23.3 11.0 43 43 43
-23.7 -23.4 11.1 39 39 39
-23.3 -23.3 11.0 42 42 42
-23.1 -23.3 11.0 39 39 39
-22.8 -23.3 11.0 42 42 42
-22.6 -23.3 11.0 42 42 42
-22.3 -23.3 11.0 43 43 43
-22.1 -23.3 11.0 44 44 44
-21.8 -23.3 11.0 52 52 52
-21.5 -23.3 11.0 70 70 70
-20.3 -23.4 11.1 99 101 101
-20.0 -23.3 11.0 103 103 103
-19.8 -23.3 11.0 103 103 103
-19.5 -23.3 11.0 103 103 103
-19.0 -23.4 11.1 103 103 103
-18.8 -23.4 11.1 107 107 107
-18.5 -23.3 11.0 109 109 109
-18.2 -23.3 11.0 109 109 109
-17.9 -23.3 11.0 109 111 111
-17.7 -23.3 11.0 109 111 111
-17.4 -23.2 11.0 109 111 111
-16.3 -23.1 10.9 115 114 114
-16.0 -23.1 10.9 116 116 116
-15.7 -23.4 11.1 120 120 120
-15.3 -23.2 11.0 118 118 118
-15.0 -23.1 10.9 120 120 120
-10.3 -23.4 11.1 134 136 135
-9.7 -23.1 10.9 135 135 135
-9.4 -23.1 10.9 136 138 137
-9.0 -23.4 11.1 140 140 140
-8.7 -23.2 11.0 141 143 142
-8.4 -23.1 10.9 145 145 144
-8.3 -23.4 11.0 145 145 144
-8.0 -23.3 11.0 147 147 147
-7.5 -23.4 11.0 149 149 149
-7.2 -23.3 11.0 151 151 151
-5.4 -23.3 11.0 166 169 168
-4.6 -23.3 11.0 174 174 174
-4.4 -23.3 11.0 173 175 175
-4.1 -23.3 11.0 172 174 174
-3.9 -23.3 11.0 178 178 178
-3.6 -23.3 11.0 180 180 180
-3.4 -23.4 11.1 182 182 182
-3.1 -23.3 11.0 182 182 182
-2.8 -23.3 11.0 182 182 182
-2.6 -23.3 11.0 182 182 182
1.0 -23.4 11.1 181 181 181
1.2 -23.3 11.0 181 181 181
3.6 -23.4 11.1 182 182 182
7.2 -23.4 11.1 208 208 208
7.4 -23.3 11.0 208 208 208
7.7 -23.3 11.0 208 208 208
7.9 -23.3 11.0 208 208 208
8.7 -23.2 11.0 208 208 208
8.9 -23.3 11.0 208 208 208
9.2 -23.3 11.0 208 208 208
9.5 -23.4 11.0 208 208 208
9.7 -23.3 11.0 208 208 208
10.0 -23.4 11.0 208 208 208
10.2 -23.4 11.0 208 208 208
10.5 -23.3 11.0 207 207 207
35.5 -68.9 32.6 207 207 207
35.8 -68.0 32.2 207 207 207
36.5 -67.9 32.1 207 207 207
37.3 -68.0 32.2 207 207 207
38.2 -68.2 32.3 207 207 207
38.9 -68.1 32.2 207 207 207
40.3 -69.3 32.8 207 207 207
40.7 -68.7 32.5 207 207 207
41.5 -68.7 32.5 207 207 207
42.1 -68.6 32.4 207 207 207
42.7 -68.2 32.3 206 206 206
43.3 -68.1 32.2 206 206 206
44.7 -69.1 32.7 206 206 206
45.4 -68.9 32.6 206 206 206
45.3 -67.7 32.0 206 206 206
46.1 -67.8 32.1 206 206 206
47.5 -68.7 32.5 206 206 206
48.2 -68.6 32.4 206 206 206
48.3 -67.8 32.1 206 206 206
49.6 -68.5 32.4 206 206 206
51.2 -69.7 33.0 206 206 206
51.7 -69.3 32.8 203 203 203
52.5 -69.3 32.8 207 207 207
52.5 -68.4 32.3 204 204 204
53.2 -68.2 32.3 204 204 204
53.4 -67.5 32.0 205 205 205
54.1 -67.5 32.0 205 205 205
55.6 -68.5 32.4 205 205 205
-31.3 -23.3 11.1 47 46 45
-31.1 -23.3 11.1 49 49 49
-30.8 -23.3 11.1 49 49 49
-30.6 -23.3 11.1 47 46 45
-30.3 -23.3 11.1 52 52 52
-30.1 -23.3 11.1 52 52 52
-29.8 -23.3 11.1 53 53 53
-29.6 -23.3 11.1 52 52 52
-29.3 -23.3 11.1 52 52 52
-29.1 -23.3 11.1 52 52 52
-28.8 -23.3 11.1 52 52 52
-28.5 -23.3 11.1 52 52 52
-28.3 -23.3 11.1 49 49 49
-28.0 -23.3 11.1 49 49 49
-27.8 -23.3 11.1 47 46 45
-27.5 -23.3 11.1 47 46 45
-27.2 -23.3 11.1 44 44 44
-27.0 -23.3 11.1 42 43 42
-26.7 -23.3 11.1 44 44 44
-26.4 -23.3 11.1 44 44 44
-26.2 -23.3 11.1 44 44 44
-25.9 -23.3 11.1 40 40 40
-25.7 -23.3 11.1 44 44 44
-25.4 -23.3 11.1 44 44 44
-25.1 -23.3 11.1 44 44 44
-24.9 -23.3 11.1 42 43 42
-24.6 -23.3 11.1 42 43 42
-24.4 -23.3 11.1 42 43 42
-24.1 -23.3 11.1 44 44 44
-23.9 -23.3 11.1 40 40 40
-23.6 -23.3 11.1 40 40 40
-23.4 -23.3 11.1 40 40 40
-23.1 -23.3 11.1 40 40 40
-22.8 -23.3 11.1 41 41 41
-22.6 -23.3 11.1 42 43 42
-22.3 -23.3 11.1 43 43 43
-22.1 -23.3 11.1 45 45 45
-21.8 -23.3 11.1 45 45 45
-21.5 -23.3 11.1 49 49 49
-21.3 -23.3 11.1 54 56 54
-21.0 -23.3 11.1 80 80 80
-20.8 -23.3 11.1 91 93 92
-20.5 -23.3 11.1 97 97 97
-20.2 -23.3 11.1 91 93 92
-20.0 -23.3 11.1 98 98 98
-19.7 -23.3 11.1 98 98 98
-19.5 -23.3 11.2 99 101 101
-19.2 -23.3 11.1 99 101 101
-19.0 -23.3 11.2 99 101 101
-18.7 -23.3 11.2 105 105 105
-18.4 -23.3 11.1 105 105 105
-18.1 -23.2 11.1 105 105 105
-17.9 -23.2 11.1 104 104 104
-17.5 -23.2 11.1 106 106 106
-17.3 -23.2 11.1 106 106 106
-16.3 -23.2 11.1 111 113 112
-16.1 -23.3 11.1 113 115 114
-15.8 -23.3 11.1 113 115 114
-15.5 -23.2 11.1 112 114 113
-15.2 -23.1 11.1 112 114 113
-15.0 -23.3 11.1 118 118 118
-10.4 -23.4 11.2 124 127 126
-10.1 -23.3 11.1 128 128 128
-9.8 -23.0 11.0 129 129 129
-9.5 -23.0 11.0 128 130 129
-9.4 -23.4 11.2 133 133 133
-9.1 -23.4 11.2 134 136 135
-8.8 -23.1 11.1 141 143 142
-8.5 -23.1 11.0 158 158 158
-8.3 -23.2 11.1 155 155 155
-7.6 -23.4 11.2 154 154 154
-7.3 -23.3 11.1 156 156 156
-7.0 -23.2 11.1 167 167 167
-6.2 -23.3 11.1 174 174 174
-5.7 -23.3 11.2 176 176 176
-5.5 -23.3 11.1 177 180 179
-5.2 -23.3 11.1 176 179 178
-4.7 -23.4 11.2 188 188 188
-4.4 -23.3 11.1 190 190 190
-4.2 -23.3 11.1 185 185 185
-3.9 -23.3 11.1 188 188 188
-3.7 -23.3 11.1 188 188 188
-3.4 -23.3 11.1 188 188 188
-3.1 -23.3 11.1 186 186 186
-2.9 -23.3 11.1 186 186 186
-2.6 -23.3 11.1 186 186 186
-2.4 -23.3 11.1 186 186 186
-2.1 -23.3 11.1 186 186 186
-1.8 -23.3 11.2 183 183 183
-1.1 -23.3 11.1 183 183 183
-0.8 -23.3 11.1 183 183 183
-0.6 -23.3 11.1 183 183 183
-0.3 -23.3 11.1 183 183 183
-0.0 -23.3 11.1 183 183 183
0.2 -23.3 11.1 182 182 182
0.5 -23.3 11.1 182 182 182
0.7 -23.3 11.1 182 182 182
1.0 -23.3 11.1 182 182 182
1.3 -23.3 11.1 182 182 182
1.5 -23.2 11.1 182 182 182
2.0 -23.3 11.1 180 180 180
3.3 -23.3 11.2 182 182 182
3.6 -23.3 11.1 181 181 181
3.8 -23.2 11.1 181 181 181
4.1 -23.3 11.1 181 181 181
6.2 -23.2 11.1 208 208 208
6.4 -23.1 11.1 208 208 208
7.0 -23.4 11.2 208 208 208
7.2 -23.3 11.2 208 208 208
7.5 -23.3 11.1 208 208 208
7.7 -23.3 11.1 208 208 208
8.0 -23.3 11.1 207 207 207
8.3 -23.3 11.1 207 207 207
8.5 -23.3 11.2 207 207 207
8.8 -23.3 11.1 207 207 207
9.0 -23.3 11.1 207 207 207
9.3 -23.3 11.2 207 207 207
9.6 -23.3 11.2 207 207 207
9.8 -23.3 11.1 207 207 207
10.1 -23.3 11.1 207 207 207
10.3 -23.3 11.1 207 207 207
10.6 -23.2 11.1 207 207 207
10.8 -23.3 11.1 207 207 207
11.1 -23.3 11.1 207 207 207
11.3 -23.3 11.1 207 207 207
35.6 -68.3 32.7 207 207 207
35.9 -67.5 32.3 206 206 206
36.6 -67.4 32.2 206 206 206
37.5 -67.7 32.4 206 206 206
38.3 -67.7 32.4 206 206 206
39.1 -67.7 32.4 206 206 206
40.4 -68.7 32.8 206 206 206
40.8 -68.1 32.6 206 206 206
41.5 -68.1 32.6 206 206 206
42.4 -68.2 32.6 206 206 206
42.9 -67.8 32.4 206 206 206
43.7 -68.0 32.5 206 206 206
44.9 -68.5 32.8 206 206 206
45.4 -68.2 32.6 209 209 209
45.6 -67.4 32.2 206 206 206
46.3 -67.4 32.2 206 206 206
47.5 -68.0 32.5 206 206 206
48.3 -68.1 32.6 206 206 206
48.7 -67.5 32.3 205 205 205
49.9 -68.1 32.6 205 205 205
51.2 -68.9 33.0 206 206 206
51.7 -68.5 32.8 206 206 206
52.5 -68.5 32.8 206 206 206
52.6 -67.7 32.4 206 206 206
53.5 -67.8 32.4 206 206 206
53.7 -67.3 32.2 207 207 207
54.3 -67.0 32.1 204 204 204
55.7 -67.8 32.4 204 204 204
56.6 -68.0 32.5 205 205 205
-31.5 -23.1 11.2 53 52 52
-14.2 -28.7 13.9 111 113 112
-13.6 -28.7 13.9 109 111 111
-10.5 -23.2 11.2 118 118 118
-10.2 -23.1 11.2 112 112 112
-9.6 -22.9 11.1 110 110 110
-9.5 -23.3 11.3 111 111 111
-9.2 -23.3 11.3 115 114 114
-7.3 -23.1 11.2 172 172 172
0.3 -28.8 13.9 185 185 185
0.6 -28.7 13.9 184 184 184
7.7 -28.8 13.9 207 207 207
8.4 -28.8 13.9 207 207 207
8.7 -28.7 13.9 207 207 207
9.0 -28.7 13.9 207 207 207
9.3 -28.6 13.8 207 207 207
9.6 -28.6 13.8 207 207 207
10.0 -28.7 13.9 207 207 207
10.3 -28.8 13.9 207 207 207
10.7 -28.8 13.9 207 207 207
10.9 -28.7 13.9 207 207 207
11.9 -28.8 13.9 207 207 207
12.2 -28.7 13.9 206 206 206
12.5 -28.6 13.8 206 206 206
12.8 -28.7 13.9 206 206 206
13.2 -28.7 13.9 206 206 206
13.5 -28.7 13.9 206 206 206
13.8 -28.7 13.9 206 206 206
14.2 -28.8 13.9 206 206 206
14.9 -28.8 13.9 206 206 206
36.2 -67.2 32.5 206 206 206
36.9 -67.1 32.4 206 206 206
37.8 -67.4 32.6 206 206 206
38.6 -67.4 32.6 206 206 206
40.6 -68.3 33.0 206 206 206
41.1 -67.8 32.8 206 206 206
42.0 -68.1 33.0 206 206 206
42.8 -68.1 33.0 205 205 205
43.4 -67.9 32.8 205 205 205
45.2 -68.3 33.0 205 205 205
45.7 -67.9 32.8 205 205 205
46.1 -67.4 32.6 205 205 205
46.6 -67.0 32.4 205 205 205
47.8 -67.7 32.7 205 205 205
48.6 -67.7 32.7 205 205 205
49.2 -67.4 32.6 205 205 205
50.3 -67.9 32.8 205 205 205
51.5 -68.5 33.1 205 205 205
52.1 -68.3 33.0 205 205 205
52.6 -67.9 32.8 205 205 205
53.0 -67.4 32.6 206 206 206
53.9 -67.7 32.7 206 206 206
54.3 -67.2 32.5 206 206 206
54.6 -66.6 32.2 206 206 206
56.3 -67.8 32.8 204 204 204
57.3 -68.0 32.9 204 204 204
-15.1 -29.4 14.4 104 104 104
-14.6 -29.1 14.2 112 112 112
-14.4 -29.4 14.4 82 82 82
-14.0 -29.2 14.3 75 77 77
-13.8 -29.5 14.4 73 73 73
-13.5 -29.7 14.5 62 62 62
-11.4 -29.4 14.4 99 101 101
-11.0 -29.2 14.3 184 184 184
7.4 -29.7 14.5 207 207 207
7.6 -29.4 14.4 207 207 207
8.1 -29.7 14.5 207 207 207
8.3 -29.5 14.4 207 207 207
8.7 -29.5 14.4 207 207 207
9.0 -29.5 14.4 207 207 207
9.3 -29.5 14.4 206 206 206
9.7 -29.4 14.4 206 206 206
10.0 -29.5 14.4 206 206 206
10.4 -29.5 14.4 206 206 206
10.7 -29.5 14.4 206 206 206
11.0 -29.5 14.4 206 206 206
11.4 -29.6 14.5 206 206 206
11.7 -29.5 14.4 206 206 206
12.0 -29.5 14.4 206 206 206
12.4 -29.5 14.4 206 206 206
12.7 -29.5 14.4 206 206 206
13.0 -29.5 14.4 206 206 206
13.4 -29.5 14.4 206 206 206
13.7 -29.5 14.4 206 206 206
14.0 -29.5 14.4 206 206 206
14.4 -29.5 14.4 206 206 206
14.7 -29.5 14.5 206 206 206
37.1 -66.8 32.7 205 205 205
38.0 -67.0 32.8 202 202 202
48.1 -73.1 35.8 205 205 205
48.3 -72.1 35.3 205 205 205
48.3 -71.0 34.7 202 202 202
46.5 -67.1 32.8 207 207 207
46.7 -66.3 32.4 207 207 207
48.2 -67.4 33.0 205 205 205
49.0 -67.5 33.0 204 204 204
49.3 -66.9 32.7 204 204 204
51.1 -68.2 33.4 204 204 204
52.9 -69.5 34.0 205 205 205
54.4 -70.4 34.5 205 205 205
52.7 -67.2 32.9 205 205 205
53.0 -66.7 32.6 205 205 205
54.1 -67.1 32.8 205 205 205
54.8 -67.0 32.8 205 205 205
54.7 -66.0 32.3 206 206 206
60.4 -71.0 34.7 204 204 204
61.8 -71.6 35.0 204 204 204
-15.7 -31.8 15.7 26 26 26
-15.3 -31.7 15.7 29 30 28
-15.0 -31.7 15.7 29 30 28
-14.7 -31.8 15.8 29 30 28
-8.7 -23.4 11.6 182 182 182
-8.3 -23.3 11.5 182 182 182
8.4 -23.7 11.7 206 206 206
11.6 -31.7 15.7 206 206 206
11.9 -31.4 15.6 206 206 206
9.8 -23.7 11.7 205 205 205
48.3 -72.5 35.9 204 204 204
48.8 -72.1 35.7 204 204 204
49.1 -71.3 35.3 204 204 204
49.7 -71.1 35.2 207 207 207
50.6 -71.1 35.2 209 209 209
50.6 -70.0 34.6 207 207 207
50.1 -68.3 33.8 207 207 207
50.6 -67.8 33.5 207 207 207
53.3 -70.4 34.8 207 207 207
54.0 -70.1 34.7 204 204 204
54.8 -70.1 34.7 204 204 204
54.1 -68.3 33.8 204 204 204
62.0 -72.0 35.6 205 205 205
63.1 -72.3 35.8 206 206 206
-29.3 -32.6 16.3 42 42 42
-28.8 -32.5 16.3 42 42 42
-15.8 -31.5 15.8 27 27 27
-15.4 -31.5 15.8 28 28 28
-9.1 -23.7 11.9 186 186 186
-8.7 -23.2 11.6 187 189 189
-8.3 -23.0 11.5 186 188 187
4.9 -23.7 11.9 181 181 181
7.6 -23.6 11.8 205 205 205
8.0 -23.8 11.9 205 205 205
8.3 -23.8 11.9 205 205 205
8.5 -23.6 11.8 205 205 205
8.8 -23.6 11.8 205 205 205
9.3 -23.6 11.8 205 205 205
9.6 -23.6 11.8 205 205 205
9.8 -23.6 11.8 205 205 205
10.2 -23.8 11.9 205 205 205
10.5 -23.8 11.9 205 205 205
10.8 -23.8 11.9 205 205 205
11.0 -23.8 11.9 205 205 205
11.3 -23.7 11.9 205 205 205
48.2 -71.6 35.8 204 204 204
48.4 -70.6 35.4 204 204 204
44.1 -62.3 31.2 206 206 206
45.2 -62.8 31.4 206 206 206
48.4 -66.2 33.1 206 206 206
49.2 -66.2 33.1 206 206 206
49.3 -65.4 32.7 206 206 206
53.0 -69.2 34.6 206 206 206
53.8 -69.1 34.6 203 203 203
54.3 -68.7 34.4 204 204 204
52.6 -65.6 32.8 204 204 204
51.9 -63.8 32.0 204 204 204
51.3 -62.3 31.2 204 204 204
51.6 -61.7 30.9 204 204 204
62.3 -71.6 35.8 205 205 205
63.5 -72.0 36.0 205 205 205
-33.8 -23.7 12.0 57 57 57
-30.7 -23.7 12.0 59 61 59
-26.8 -23.7 12.0 51 51 49
-26.6 -23.7 12.0 48 48 48
-26.3 -23.7 12.0 49 49 49
-26.0 -23.7 12.0 47 47 47
-29.7 -32.3 16.3 42 43 42
-29.3 -32.2 16.3 42 43 42
-28.8 -32.2 16.3 42 43 42
-20.7 -23.7 12.0 41 41 39
-20.2 -23.5 11.9 42 42 40
-19.8 -23.3 11.8 42 42 40
-19.9 -23.7 12.0 46 46 46
-17.6 -23.6 12.0 16 16 16
-17.1 -23.3 11.8 21 24 22
-15.6 -23.2 11.8 22 25 23
-14.3 -23.8 12.0 22 25 23
-10.4 -23.8 12.0 33 33 33
-9.9 -23.3 11.8 35 35 35
-9.6 -23.2 11.8 38 38 38
-9.4 -23.4 11.8 157 157 157
-9.1 -23.5 11.9 185 185 185
-8.7 -23.0 11.7 186 188 187
-8.4 -22.8 11.6 187 189 189
3.9 -23.6 12.0 184 184 184
4.9 -23.4 11.9 181 181 181
5.2 -23.4 11.9 177 177 177
7.7 -23.3 11.8 205 205 205
8.1 -23.7 12.0 205 205 205
8.3 -23.6 12.0 204 204 204
8.6 -23.7 12.0 204 204 204
8.9 -23.6 12.0 204 204 204
9.0 -23.3 11.8 204 204 204
9.3 -23.3 11.8 207 207 207
9.6 -23.4 11.8 204 204 204
9.9 -23.4 11.9 204 204 204
10.3 -23.8 12.1 204 204 204
10.6 -23.7 12.0 206 206 206
10.8 -23.6 12.0 204 204 204
11.1 -23.7 12.0 204 204 204
11.4 -23.7 12.0 204 204 204
11.7 -23.6 12.0 204 204 204
44.2 -61.7 31.3 206 206 206
45.3 -62.2 31.5 206 206 206
47.2 -63.7 32.3 206 206 206
48.3 -64.2 32.5 206 206 206
48.7 -63.7 32.3 206 206 206
50.5 -65.1 33.0 206 206 206
53.0 -67.3 34.1 206 206 206
52.9 -66.2 33.5 206 206 206
52.0 -64.2 32.5 203 203 203
51.5 -62.6 31.7 203 203 203
51.5 -61.7 31.3 204 204 204
51.8 -61.2 31.0 204 204 204
51.5 -60.0 30.4 204 204 204
62.3 -70.7 35.8 204 204 204
-34.3 -23.8 12.2 58 58 58
-34.1 -23.9 12.2 60 62 60
-33.9 -23.9 12.2 60 62 60
-33.6 -23.9 12.2 60 62 60
-33.3 -23.9 12.2 60 62 60
-33.0 -23.9 12.2 60 62 60
-32.7 -23.9 12.2 60 62 60
-32.4 -23.9 12.2 60 62 60
-32.1 -23.8 12.2 60 62 60
-31.8 -23.8 12.2 60 62 60
-31.5 -23.8 12.2 58 58 58
-31.3 -23.8 12.2 58 58 58
-31.0 -23.8 12.2 58 59 59
-30.7 -23.9 12.2 58 59 59
-30.4 -23.9 12.2 58 59 59
-30.2 -23.9 12.2 58 59 59
-29.9 -23.9 12.2 57 57 57
-29.6 -23.8 12.2 54 54 54
-29.3 -23.8 12.2 52 52 50
-29.0 -23.8 12.2 49 49 49
-28.7 -23.9 12.2 49 49 49
-28.5 -23.9 12.2 49 49 49
-28.2 -23.9 12.2 49 49 49
-27.9 -23.9 12.2 52 52 50
-27.6 -23.9 12.2 52 52 50
-27.3 -23.9 12.2 52 52 50
-27.0 -23.9 12.2 50 50 50
-26.8 -23.9 12.2 50 50 50
-26.5 -23.9 12.2 50 50 50
-26.2 -23.9 12.2 50 50 50
-25.9 -23.9 12.2 48 48 48
-25.6 -23.9 12.2 50 50 50
-25.3 -23.9 12.2 50 50 50
-25.0 -23.9 12.2 48 48 48
-24.8 -23.9 12.2 48 48 48
-24.5 -23.9 12.2 47 47 47
-24.2 -23.9 12.2 47 47 47
-23.9 -23.9 12.2 47 47 47
-23.6 -23.9 12.2 47 47 47
-23.3 -23.9 12.2 45 45 45
-23.1 -23.9 12.2 42 43 42
-22.8 -23.9 12.2 41 41 39
-22.5 -23.9 12.2 41 41 39
-22.2 -23.9 12.2 41 41 39
-21.9 -23.9 12.2 42 42 40
-21.6 -23.8 12.2 42 42 40
-21.3 -23.8 12.2 42 42 40
-21.0 -23.8 12.2 43 42 41
-20.7 -23.8 12.2 40 40 40
-20.5 -23.8 12.2 39 41 41
-20.2 -23.9 12.2 39 41 41
-19.9 -23.8 12.2 41 41 41
-19.6 -23.8 12.2 39 41 41
-19.4 -23.8 12.2 35 35 35
-19.0 -23.8 12.2 19 19 19
-18.8 -23.9 12.2 20 20 20
-18.5 -23.9 12.2 21 21 21
-18.2 -23.8 12.2 21 21 21
-17.8 -23.7 12.2 21 21 21
-17.6 -23.8 12.2 21 21 21
-17.3 -23.7 12.2 21 21 21
-16.9 -24.0 12.3 21 21 21
-16.6 -23.9 12.3 21 21 21
-12.0 -23.9 12.3 30 31 30
-11.7 -23.8 12.2 29 31 29
-10.9 -23.9 12.3 32 31 30
-10.6 -23.9 12.2 34 34 34
-10.2 -23.8 12.2 36 37 36
-10.0 -23.8 12.2 35 35 35
-9.7 -23.9 12.2 160 160 160
-9.3 -23.7 12.1 186 186 186
-5.7 -23.9 12.2 219 219 219
-5.4 -23.8 12.2 217 217 217
-5.1 -23.8 12.2 213 215 215
-4.9 -23.8 12.2 213 215 215
-4.6 -23.9 12.3 212 214 214
-4.3 -23.9 12.2 212 214 214
-4.0 -23.8 12.2 209 212 211
-3.7 -23.8 12.2 209 212 211
-3.4 -23.8 12.2 209 212 211
-3.2 -23.8 12.2 208 208 208
-2.9 -23.9 12.2 206 206 206
-2.6 -23.9 12.2 206 206 206
-1.5 -23.9 12.3 202 202 202
-1.2 -23.8 12.2 202 202 202
-0.9 -23.9 12.2 199 199 199
-0.6 -23.9 12.2 202 202 202
-0.3 -23.8 12.2 199 199 199
-0.0 -23.8 12.2 197 197 197
0.2 -23.9 12.2 199 199 199
0.5 -23.9 12.2 197 197 197
0.8 -23.9 12.3 197 197 197
1.1 -23.9 12.2 197 197 197
3.9 -23.8 12.2 180 180 180
4.2 -23.9 12.2 183 183 183
4.5 -23.9 12.3 183 183 183
4.8 -23.8 12.2 180 180 180
5.0 -23.7 12.1 180 180 180
7.7 -23.9 12.3 206 206 206
7.9 -23.8 12.2 204 204 204
8.2 -23.9 12.3 204 204 204
8.5 -23.8 12.2 200 200 200
8.8 -23.8 12.2 206 206 206
9.0 -23.8 12.2 206 206 206
9.3 -23.9 12.2 206 206 206
9.7 -23.9 12.3 206 206 206
9.9 -23.9 12.3 204 204 204
10.2 -23.8 12.2 206 206 206
10.5 -23.9 12.2 206 206 206
10.8 -23.8 12.2 206 206 206
11.1 -23.9 12.3 206 206 206
11.3 -23.9 12.2 203 203 203
11.6 -23.9 12.2 203 203 203
11.9 -23.9 12.3 203 203 203
12.2 -23.9 12.2 203 203 203
12.5 -23.8 12.2 203 203 203
12.7 -23.8 12.2 203 203 203
13.0 -23.9 12.2 203 203 203
13.3 -23.8 12.2 203 203 203
13.6 -23.8 12.2 206 206 206
13.9 -23.9 12.2 206 206 206
14.2 -23.9 12.2 206 206 206
14.5 -23.9 12.3 206 206 206
14.8 -24.0 12.3 206 206 206
44.9 -64.1 32.8 205 205 205
45.2 -63.4 32.5 205 205 205
45.1 -62.2 31.9 205 205 205
45.9 -62.2 31.9 205 205 205
47.3 -63.2 32.4 205 205 205
48.3 -63.4 32.5 205 205 205
48.7 -63.0 32.3 205 205 205
50.1 -63.9 32.7 205 205 205
52.4 -65.8 33.7 205 205 205
52.7 -65.2 33.4 205 205 205
52.1 -63.5 32.6 206 206 206
51.9 -62.3 32.0 203 203 203
52.3 -61.9 31.7 203 203 203
52.4 -61.2 31.4 206 206 206
-34.7 -23.8 12.3 60 62 60
-34.7 -23.9 12.4 60 62 60
-34.4 -23.9 12.4 60 62 60
-34.1 -23.9 12.4 61 63 61
-33.8 -23.9 12.4 61 63 61
-33.5 -23.9 12.4 61 63 61
-33.2 -23.9 12.4 61 63 61
-32.9 -23.9 12.4 61 63 61
-32.6 -23.9 12.4 61 63 61
-32.3 -23.9 12.4 61 63 61
-32.1 -23.9 12.4 61 63 61
-31.8 -23.9 12.4 61 63 61
-31.5 -23.9 12.4 61 63 61
-31.2 -23.9 12.4 58 59 59
-30.9 -23.9 12.4 59 59 59
-30.6 -23.9 12.4 57 57 57
-30.3 -23.9 12.4 55 55 55
-30.0 -23.9 12.4 55 55 55
-29.8 -23.9 12.4 53 52 51
-29.4 -23.9 12.4 53 52 51
-29.2 -23.9 12.4 53 52 51
-28.9 -24.0 12.4 53 52 51
-28.6 -23.9 12.4 53 52 51
-28.3 -23.9 12.4 53 52 51
-28.0 -23.9 12.4 53 52 51
-27.8 -23.9 12.4 50 50 50
-27.5 -23.9 12.4 54 53 52
-27.2 -23.9 12.4 54 53 52
-26.9 -23.9 12.4 54 53 52
-26.6 -23.9 12.4 51 51 51
-26.3 -23.9 12.4 51 51 51
-26.0 -23.9 12.4 49 49 49
-25.7 -23.9 12.4 49 49 49
-25.4 -23.9 12.4 49 49 49
-25.2 -23.9 12.4 49 49 49
-24.9 -23.9 12.4 47 48 47
-24.6 -23.9 12.4 47 48 47
-24.3 -23.9 12.4 47 48 47
-24.0 -23.9 12.4 47 48 47
-23.7 -23.9 12.4 43 43 43
-23.4 -23.9 12.4 43 43 43
-23.1 -23.9 12.4 42 42 40
-22.8 -23.9 12.4 44 44 44
-22.6 -23.9 12.4 43 42 41
-22.3 -24.0 12.4 43 42 41
-21.9 -23.9 12.4 43 42 41
-21.6 -23.9 12.4 43 42 41
-21.3 -23.9 12.4 41 41 41
-21.1 -23.9 12.4 41 41 41
-20.8 -23.9 12.4 42 42 42
-20.5 -23.9 12.4 40 42 42
-20.2 -23.9 12.4 40 42 42
-17.8 -23.8 12.3 20 20 20
-17.1 -24.0 12.4 20 20 20
-16.8 -24.0 12.4 22 22 22
-12.7 -23.9 12.4 30 29 29
-12.1 -23.8 12.4 29 29 29
-11.8 -23.7 12.3 29 29 29
-11.0 -24.0 12.4 29 31 29
-10.7 -23.8 12.4 32 31 30
-10.3 -23.7 12.3 34 34 34
-10.1 -23.8 12.4 43 43 43
-9.8 -23.8 12.4 166 166 166
-5.3 -24.0 12.5 219 219 219
-5.0 -24.1 12.5 218 218 218
-4.7 -23.9 12.4 216 216 216
-4.4 -23.9 12.4 215 215 215
-4.1 -23.9 12.4 210 213 212
-3.8 -24.0 12.4 210 213 212
-3.2 -24.1 12.5 210 213 212
-1.5 -24.0 12.5 203 203 203
-1.2 -23.9 12.4 203 203 203
-0.9 -23.9 12.4 200 200 200
-0.6 -23.9 12.4 200 200 200
-0.3 -23.9 12.4 200 200 200
-0.0 -23.9 12.4 202 202 202
0.3 -23.9 12.4 202 202 202
0.5 -24.0 12.4 202 202 202
0.8 -24.2 12.5 198 198 198
1.1 -24.0 12.4 198 198 198
4.0 -24.0 12.4 185 185 185
4.6 -24.0 12.4 182 182 182
4.8 -23.8 12.3 179 179 179
7.7 -23.9 12.4 206 206 206
8.1 -24.0 12.4 203 203 203
8.4 -24.0 12.4 203 203 203
8.6 -23.9 12.4 203 203 203
8.9 -23.9 12.4 206 206 206
9.2 -23.9 12.4 206 206 206
9.5 -24.0 12.4 205 205 205
9.8 -24.0 12.4 205 205 205
10.1 -24.0 12.4 205 205 205
10.3 -23.9 12.4 205 205 205
10.6 -23.8 12.3 205 205 205
10.9 -23.8 12.3 205 205 205
11.2 -24.0 12.4 205 205 205
11.5 -23.9 12.4 205 205 205
11.8 -23.9 12.4 205 205 205
12.1 -23.9 12.4 203 203 203
12.4 -23.9 12.4 203 203 203
12.7 -23.9 12.4 203 203 203
12.9 -23.9 12.4 203 203 203
13.2 -23.9 12.4 207 207 207
13.5 -23.9 12.4 207 207 207
13.8 -24.0 12.4 205 205 205
14.1 -24.0 12.4 205 205 205
14.4 -23.9 12.4 205 205 205
14.7 -24.0 12.4 205 205 205
15.0 -24.0 12.4 205 205 205
46.8 -67.0 34.8 205 205 205
46.3 -65.2 33.8 205 205 205
46.2 -64.0 33.2 205 205 205
46.1 -62.9 32.6 205 205 205
46.0 -61.7 32.0 205 205 205
48.0 -63.3 32.8 205 205 205
48.7 -63.2 32.8 205 205 205
49.2 -62.9 32.6 205 205 205
51.4 -64.8 33.6 205 205 205
52.9 -65.6 34.0 205 205 205
53.4 -65.2 33.8 205 205 205
52.7 -63.4 32.9 205 205 205
52.3 -62.1 32.2 205 205 205
52.4 -61.3 31.8 205 205 205
52.0 -60.0 31.1 206 206 206
51.6 -57.9 30.0 206 206 206
30.8 -28.4 14.8 182 182 182
30.7 -28.1 14.6 185 185 185
-35.4 -24.0 12.6 61 63 61
-35.3 -24.1 12.6 58 59 59
-35.0 -24.1 12.6 58 59 59
-34.6 -24.0 12.6 61 63 61
-34.4 -24.1 12.6 61 63 61
-34.1 -24.1 12.6 61 63 61
-33.8 -24.1 12.6 62 64 61
-33.5 -24.0 12.6 59 59 59
-33.2 -24.0 12.6 62 64 61
-32.9 -24.0 12.6 62 64 61
-32.6 -24.0 12.6 62 64 61
-32.3 -24.0 12.6 65 65 65
-32.0 -24.0 12.6 62 64 61
-31.7 -24.1 12.6 59 59 59
-31.4 -24.1 12.6 59 59 59
-31.3 -24.2 12.7 56 56 56
-30.8 -24.0 12.6 56 56 56
-30.5 -24.0 12.6 56 56 56
-30.2 -24.0 12.6 54 53 52
-29.9 -24.0 12.6 54 53 52
-29.7 -24.0 12.6 54 53 52
-29.4 -24.1 12.6 54 53 52
-29.1 -24.1 12.6 54 53 52
-28.8 -24.1 12.6 51 51 51
-28.5 -24.1 12.6 51 51 51
-28.2 -24.1 12.6 51 51 51
-27.9 -24.1 12.6 52 52 52
-27.6 -24.1 12.6 52 52 52
-27.3 -24.1 12.6 52 52 52
-27.0 -24.1 12.6 55 54 53
-26.7 -24.1 12.6 52 52 52
-26.5 -24.1 12.6 53 52 52
-26.2 -24.1 12.6 50 50 50
-25.9 -24.1 12.6 47 48 47
-25.6 -24.1 12.6 51 51 51
-25.3 -24.1 12.6 48 48 48
-25.0 -24.1 12.6 48 48 48
-24.7 -24.1 12.6 48 48 48
-24.5 -24.1 12.7 47 47 47
-24.2 -24.1 12.7 47 47 47
-23.9 -24.1 12.7 44 44 44
-23.5 -24.1 12.6 45 45 45
-23.2 -24.1 12.6 45 45 45
-22.9 -24.1 12.6 44 43 42
-22.6 -24.0 12.6 44 43 42
-22.3 -24.0 12.6 44 43 42
-22.0 -24.0 12.6 42 42 42
-21.8 -24.1 12.6 42 42 42
-21.6 -24.2 12.7 45 44 43
-21.2 -24.1 12.6 42 43 42
-20.8 -24.0 12.6 41 43 42
-17.3 -24.0 12.6 22 22 22
-17.0 -24.0 12.6 22 25 23
-13.0 -24.1 12.7 29 29 29
-12.7 -24.1 12.7 28 28 28
-12.0 -23.9 12.5 30 31 30
-11.5 -24.1 12.7 30 31 30
-11.2 -24.0 12.6 29 31 29
-10.9 -24.0 12.6 28 28 28
-10.5 -23.8 12.5 35 35 35
-10.2 -23.8 12.5 40 39 38
-10.0 -23.9 12.6 176 179 178
-4.8 -24.2 12.7 218 218 218
-4.5 -24.2 12.7 216 216 216
-4.1 -24.0 12.6 216 216 216
-1.2 -24.1 12.7 205 205 205
0.6 -24.2 12.7 203 203 203
0.8 -24.2 12.7 203 203 203
1.1 -24.1 12.7 203 203 203
4.1 -24.2 12.7 184 184 184
4.4 -24.1 12.7 184 184 184
4.7 -24.0 12.6 186 186 186
4.9 -23.9 12.6 178 178 178
8.3 -24.3 12.7 205 205 205
8.5 -24.1 12.6 205 205 205
8.8 -24.0 12.6 205 205 205
9.1 -24.0 12.6 205 205 205
9.3 -24.0 12.6 205 205 205
9.6 -24.1 12.6 205 205 205
10.0 -24.1 12.6 205 205 205
10.2 -24.1 12.6 205 205 205
10.6 -24.1 12.7 205 205 205
10.8 -24.0 12.6 205 205 205
11.4 -24.0 12.6 205 205 205
11.7 -24.0 12.6 205 205 205
12.0 -24.0 12.6 205 205 205
12.3 -24.0 12.6 202 202 202
10.4 -19.4 10.2 202 202 202
13.4 -24.0 12.6 205 205 205
14.1 -24.2 12.7 205 205 205
14.3 -24.1 12.6 205 205 205
14.6 -24.0 12.6 205 205 205
14.9 -24.1 12.6 205 205 205
15.2 -24.1 12.6 204 204 204
15.5 -24.1 12.6 204 204 204
15.8 -24.0 12.6 204 204 204
16.2 -24.2 12.7 204 204 204
16.5 -24.2 12.7 204 204 204
46.4 -65.7 34.5 204 204 204
46.1 -64.2 33.7 204 204 204
46.7 -63.9 33.5 204 204 204
48.1 -63.8 33.5 204 204 204
48.3 -63.0 33.1 204 204 204
49.0 -62.9 33.0 204 204 204
49.5 -62.6 32.8 204 204 204
51.7 -64.3 33.8 204 204 204
52.8 -64.7 34.0 204 204 204
53.5 -64.6 33.9 204 204 204
53.1 -63.2 33.2 205 205 205
53.1 -62.2 32.7 205 205 205
53.0 -61.3 32.2 205 205 205
51.2 -58.4 30.7 205 205 205
51.5 -57.9 30.4 205 205 205
52.1 -57.7 30.3 205 205 205
31.2 -28.4 14.9 182 182 182
-36.6 -24.4 13.0 62 64 61
-36.0 -24.4 13.0 65 65 65
-35.7 -24.4 13.0 65 65 65
-34.8 -24.4 13.0 62 64 61
-34.4 -24.4 13.0 62 64 61
-34.1 -24.4 13.0 66 66 66
-33.9 -24.4 13.0 63 64 62
-33.5 -24.4 13.0 63 64 62
-33.2 -24.4 13.0 63 64 62
-32.0 -24.4 13.0 58 59 59
-31.1 -24.4 13.0 55 54 53
-30.7 -24.3 12.9 55 54 53
-30.5 -24.4 13.0 55 54 53
-30.3 -24.5 13.0 55 54 53
-30.0 -24.5 13.0 55 54 53
-29.6 -24.4 13.0 55 54 53
-29.3 -24.4 13.0 52 52 52
-29.0 -24.4 13.0 53 52 52
-28.7 -24.4 13.0 53 52 52
-28.4 -24.4 13.0 53 52 52
-28.1 -24.4 13.0 53 52 52
-27.8 -24.4 13.0 53 52 52
-27.5 -24.4 13.0 53 52 52
-27.2 -24.4 13.0 53 53 53
-26.9 -24.4 13.0 53 53 53
-26.6 -24.4 13.0 51 51 51
-25.7 -24.4 13.0 49 49 49
-23.7 -24.5 13.0 46 46 46
-23.2 -24.4 12.9 45 44 43
-23.0 -24.4 13.0 42 43 42
-22.5 -24.5 13.0 42 43 42
-22.1 -24.5 13.0 46 45 43
-21.7 -24.3 12.9 43 43 43
-21.2 -24.2 12.9 42 44 43
-13.3 -24.5 13.0 36 36 36
-13.5 -25.9 13.7 34 33 32
-11.3 -24.0 12.8 56 57 55
-11.0 -23.9 12.7 60 62 60
-10.6 -23.7 12.6 35 35 35
-10.3 -23.7 12.6 53 53 53
46.8 -65.4 34.8 204 204 204
46.3 -63.7 33.8 204 204 204
46.9 -63.4 33.7 204 204 204
47.5 -63.2 33.6 204 204 204
48.6 -63.6 33.8 204 204 204
48.8 -62.9 33.4 204 204 204
49.5 -62.8 33.4 204 204 204
50.1 -62.5 33.2 204 204 204
52.0 -63.9 34.0 204 204 204
53.0 -64.1 34.1 204 204 204
53.7 -64.0 34.0 204 204 204
53.7 -63.1 33.5 204 204 204
53.5 -62.0 33.0 204 204 204
53.6 -61.3 32.6 204 204 204
52.3 -58.9 31.3 204 204 204
52.7 -58.5 31.1 205 205 205
53.2 -58.3 31.0 205 205 205
64.4 -66.9 35.6 205 205 205
31.0 -28.6 15.2 207 207 207
31.3 -28.2 15.0 181 181 181
31.2 -27.8 14.8 183 183 183
-36.4 -24.0 12.9 62 64 61
-35.2 -24.0 12.9 66 66 66
-34.9 -24.0 12.9 66 66 66
-30.1 -24.0 12.9 56 55 54
-29.8 -24.1 12.9 56 55 54
-29.5 -24.0 12.9 56 55 54
-23.5 -24.1 13.0 47 48 47
-22.4 -24.1 13.0 43 43 43
-22.1 -24.1 13.0 44 44 44
-21.6 -23.9 12.9 43 45 44
-21.2 -23.8 12.8 43 45 44
-13.3 -24.1 13.0 109 109 109
-11.3 -23.7 12.8 38 40 40
-11.0 -23.7 12.8 91 91 91
-10.6 -23.4 12.6 28 28 28
-10.2 -23.3 12.5 50 50 50
-10.0 -23.3 12.5 183 183 183
47.1 -65.1 35.0 206 206 206
46.6 -63.2 34.0 206 206 206
47.0 -62.8 33.8 206 206 206
48.0 -63.0 33.9 203 203 203
49.4 -63.8 34.3 206 206 206
49.1 -62.4 33.6 203 203 203
49.6 -62.1 33.4 203 203 203
50.3 -62.0 33.4 203 203 203
52.5 -63.7 34.3 203 203 203
53.4 -63.8 34.3 203 203 203
54.2 -63.8 34.3 203 203 203
54.1 -62.8 33.8 203 203 203
54.2 -62.0 33.4 204 204 204
53.9 -60.8 32.7 206 206 206
52.5 -58.4 31.4 200 200 200
53.0 -58.1 31.3 204 204 204
53.4 -57.8 31.1 204 204 204
60.6 -64.7 34.8 204 204 204
66.0 -68.7 36.9 205 205 205
63.3 -65.0 35.0 205 205 205
31.9 -29.0 15.6 203 203 203
-37.0 -24.1 13.1 63 64 62
-36.8 -24.2 13.2 63 64 62
-36.5 -24.2 13.2 63 64 62
-36.2 -24.2 13.2 67 67 67
-35.9 -24.2 13.2 67 67 67
-35.6 -24.2 13.2 67 67 67
-35.3 -24.2 13.2 67 67 67
-34.9 -24.2 13.2 67 67 67
-34.7 -24.2 13.2 67 67 67
-31.2 -24.2 13.2 57 56 55
-30.8 -24.1 13.1 57 56 55
-30.7 -24.2 13.2 57 56 55
-30.3 -24.1 13.1 57 56 55
-30.1 -24.2 13.2 57 56 55
-29.8 -24.2 13.2 57 57 55
-29.5 -24.2 13.2 57 57 55
-29.2 -24.2 13.2 54 54 54
-27.9 -24.2 13.2 58 58 56
-27.6 -24.2 13.2 58 58 56
-27.3 -24.2 13.2 55 55 55
-27.0 -24.2 13.2 55 55 55
-26.7 -24.2 13.2 56 56 56
-26.4 -24.2 13.2 53 53 53
-26.1 -24.2 13.2 53 53 53
-25.8 -24.2 13.2 52 52 52
-24.3 -24.3 13.2 47 48 47
-23.9 -24.1 13.1 48 48 48
-22.3 -24.1 13.1 45 45 45
-22.0 -24.1 13.1 43 45 45
-13.3 -24.9 13.6 22 25 23
-11.4 -23.5 12.8 43 43 43
-11.0 -23.5 12.8 83 82 80
-10.3 -23.1 12.6 47 47 47
-10.0 -23.1 12.6 183 186 185
47.8 -65.2 35.6 205 205 205
47.4 -63.6 34.6 205 205 205
48.2 -60.6 33.0 203 203 203
49.1 -60.7 33.1 205 205 205
49.5 -60.3 32.8 205 205 205
52.9 -63.3 34.5 205 205 205
53.6 -63.2 34.5 205 205 205
54.5 -63.3 34.5 203 203 203
54.0 -61.9 33.7 206 206 206
53.8 -60.8 33.1 206 206 206
54.1 -60.3 32.8 206 206 206
53.3 -58.5 31.9 206 206 206
53.9 -58.3 31.8 203 203 203
53.8 -57.5 31.3 204 204 204
63.6 -64.5 35.2 204 204 204
-37.4 -24.1 13.3 64 65 63
-29.7 -24.1 13.3 58 58 56
-24.5 -24.1 13.3 49 49 49
-13.2 -24.5 13.5 23 26 24
-10.6 -24.3 13.4 184 187 186
-10.2 -24.1 13.3 181 184 183
-10.0 -24.3 13.4 185 185 185
48.5 -65.3 36.0 205 205 205
47.6 -63.0 34.8 205 205 205
48.2 -59.7 33.0 205 205 205
49.1 -59.9 33.1 205 205 205
49.7 -59.7 33.0 205 205 205
52.9 -62.5 34.5 205 205 205
53.6 -62.4 34.5 205 205 205
54.5 -62.5 34.5 205 205 205
53.8 -60.9 33.6 205 205 205
53.8 -60.0 33.1 205 205 205
54.5 -59.9 33.1 205 205 205
54.4 -59.0 32.6 205 205 205
54.9 -58.7 32.4 206 206 206
54.9 -57.9 32.0 206 206 206
67.6 -68.5 37.8 203 203 203
64.8 -64.9 35.8 206 206 206
-13.3 -24.3 13.6 33 34 32
-10.6 -24.0 13.4 182 185 184
-10.3 -23.9 13.4 181 184 183
-10.0 -24.0 13.4 180 183 182
49.7 -66.1 36.9 204 204 204
48.2 -59.0 33.0 204 204 204
49.3 -59.4 33.2 204 204 204
50.0 -59.2 33.1 204 204 204
52.8 -61.6 34.5 204 204 204
53.4 -61.4 34.3 204 204 204
54.4 -61.6 34.5 204 204 204
53.8 -60.1 33.6 205 205 205
53.8 -59.2 33.1 205 205 205
55.0 -59.7 33.4 205 205 205
55.2 -59.1 33.1 205 205 205
55.8 -58.9 33.0 205 205 205
55.9 -58.2 32.6 203 203 203
57.5 -59.0 33.0 203 203 203
69.8 -70.8 39.6 206 206 206
68.1 -68.2 38.1 206 206 206
66.6 -65.8 36.8 206 206 206
-13.4 -24.1 13.6 42 43 42
-10.7 -23.8 13.5 181 184 183
-10.4 -23.8 13.5 180 183 182
-10.1 -23.9 13.5 184 184 184
50.1 -65.7 37.2 204 204 204
48.1 -58.1 32.9 204 204 204
49.3 -58.6 33.2 204 204 204
50.1 -58.7 33.2 204 204 204
53.0 -61.2 34.6 204 204 204
53.8 -61.0 34.6 204 204 204
54.7 -61.2 34.6 204 204 204
53.9 -59.4 33.7 204 204 204
53.8 -58.5 33.1 204 204 204
55.8 -59.8 33.9 204 204 204
63.7 -67.3 38.1 205 205 205
56.2 -57.8 32.7 205 205 205
58.4 -59.2 33.5 205 205 205
72.2 -72.3 40.9 205 205 205
68.8 -68.0 38.5 205 205 205
66.2 -64.6 36.6 205 205 205
30.3 -25.3 14.3 183 183 183
98.6 -48.0 27.2 163 166 165
94.2 -45.6 25.8 159 159 159
1368.7 -642.1 363.8 121 121 121
930.0 -433.7 245.7 114 116 115
-14.1 -24.5 14.1 133 133 133
-13.5 -24.0 13.8 33 35 33
-10.8 -23.7 13.6 181 184 183
-10.5 -23.7 13.6 179 182 181
-10.2 -23.8 13.7 179 182 181
49.8 -64.5 37.0 204 204 204
49.8 -58.4 33.5 203 203 203
50.8 -58.6 33.7 206 206 206
53.1 -60.5 34.7 203 203 203
53.9 -60.4 34.6 203 203 203
54.8 -60.5 34.7 207 207 207
54.2 -58.9 33.8 207 207 207
54.1 -58.0 33.3 204 204 204
65.6 -68.4 39.2 204 204 204
64.6 -66.4 38.1 204 204 204
69.8 -68.1 39.1 205 205 205
66.9 -64.4 36.9 205 205 205
30.5 -25.2 14.5 182 182 182
98.5 -47.3 27.2 163 166 165
95.7 -45.7 26.2 160 163 162
1129.7 -523.0 300.3 121 121 121
730.7 -336.2 193.0 118 118 118
-14.8 -24.8 14.5 118 120 119
-10.9 -23.7 13.8 181 184 183
-10.5 -23.5 13.6 179 182 181
-10.5 -24.2 14.1 177 180 179
-11.1 -26.5 15.4 181 181 181
49.7 -63.5 36.9 206 206 206
48.0 -59.2 34.5 206 206 206
50.0 -57.9 33.7 206 206 206
50.8 -57.9 33.7 206 206 206
53.2 -59.8 34.8 206 206 206
54.0 -59.7 34.7 206 206 206
54.8 -59.7 34.7 206 206 206
54.2 -58.2 33.8 206 206 206
54.3 -57.4 33.4 206 206 206
64.9 -67.7 39.4 207 207 207
66.1 -68.0 39.6 207 207 207
65.4 -66.4 38.6 207 207 207
68.8 -66.2 38.5 207 207 207
67.4 -64.0 37.2 207 207 207
30.3 -24.6 14.3 182 182 182
98.2 -46.6 27.1 168 168 168
95.7 -45.1 26.2 160 163 162
-14.9 -24.7 14.6 131 134 133
-14.4 -24.4 14.4 129 129 129
-10.4 -19.4 11.5 43 43 43
-11.0 -23.6 13.9 182 185 184
-10.7 -23.6 13.9 179 182 181
49.3 -62.2 36.7 206 206 206
47.6 -59.0 34.8 206 206 206
47.9 -55.6 32.8 206 206 206
49.1 -56.1 33.1 206 206 206
50.4 -56.7 33.4 206 206 206
53.0 -58.7 34.6 206 206 206
53.8 -58.6 34.6 206 206 206
54.5 -58.5 34.5 206 206 206
54.1 -57.3 33.8 206 206 206
53.8 -56.2 33.1 206 206 206
55.6 -57.3 33.8 206 206 206
68.7 -69.7 41.1 206 206 206
68.6 -68.7 40.5 207 207 207
69.6 -68.7 40.5 207 207 207
68.3 -64.8 38.2 207 207 207
66.6 -62.4 36.8 207 207 207
30.2 -24.3 14.3 182 182 182
41.6 -18.9 11.1 129 132 131
42.0 -18.9 11.2 125 125 125
42.1 -18.9 11.1 124 124 124
-15.1 -24.5 14.7 50 49 48
-14.6 -24.4 14.6 123 125 124
-10.4 -19.1 11.4 46 46 44
-10.7 -24.8 14.8 177 180 179
-10.3 -24.7 14.8 174 174 174
48.7 -60.6 36.2 206 206 206
47.7 -58.3 34.8 206 206 206
46.0 -53.4 32.0 205 205 205
47.3 -54.2 32.4 205 205 205
48.5 -54.6 32.7 206 209 208
49.6 -55.0 32.9 205 205 205
53.0 -57.9 34.6 206 209 208
53.8 -57.8 34.6 206 209 208
54.4 -57.6 34.5 205 205 205
53.5 -55.9 33.4 206 206 206
53.1 -54.6 32.7 207 210 209
54.5 -55.3 33.1 207 210 209
70.5 -70.6 42.2 207 210 209
69.1 -68.2 40.8 207 210 209
69.6 -67.7 40.5 208 211 210
30.2 -23.9 14.3 185 185 185
68.4 -33.5 20.0 176 176 176
42.2 -18.9 11.3 136 136 136
42.4 -18.9 11.3 130 130 130
42.6 -18.8 11.3 126 126 126
42.9 -18.8 11.3 119 121 120
-15.1 -24.2 14.7 43 43 43
-11.3 -25.0 15.2 180 183 182
-10.9 -24.9 15.1 176 176 176
-10.5 -24.7 15.0 159 159 159
48.8 -59.9 36.3 205 205 205
47.6 -57.3 34.8 205 205 205
47.7 -53.8 32.6 205 205 205
48.7 -54.1 32.8 205 205 205
49.5 -54.2 32.8 205 205 205
53.1 -57.2 34.7 206 209 208
54.0 -57.3 34.8 206 209 208
54.6 -57.0 34.6 206 209 208
53.8 -55.4 33.6 206 209 208
53.3 -54.2 32.8 207 210 209
54.6 -54.6 33.1 207 210 209
68.6 -66.8 40.5 207 210 209
69.1 -66.4 40.2 207 210 209
62.9 -59.6 36.2 207 210 209
67.4 -63.0 38.2 208 211 210
65.9 -60.8 36.9 207 207 207
30.3 -23.7 14.4 185 185 185
67.5 -32.6 19.8 180 180 180
42.9 -18.8 11.4 132 132 132
42.9 -18.7 11.3 125 125 125
43.1 -18.7 11.3 119 121 120
-11.5 -25.0 15.4 180 183 182
-11.1 -25.0 15.4 175 175 175
-10.8 -25.2 15.5 154 156 156
49.7 -60.1 36.9 202 202 202
48.7 -57.8 35.6 202 202 202
50.5 -54.4 33.5 206 209 208
53.3 -56.6 34.8 205 208 207
54.1 -56.6 34.8 206 209 208
54.8 -56.4 34.7 206 209 208
54.2 -55.0 33.8 206 209 208
54.1 -54.1 33.3 206 209 208
62.7 -61.9 38.1 206 209 208
69.6 -67.7 41.7 207 210 209
69.2 -66.4 40.9 207 210 209
69.9 -66.1 40.7 207 210 209
64.4 -60.2 37.0 207 210 209
68.8 -63.4 39.0 207 210 209
66.8 -60.8 37.4 208 211 210
66.3 -31.4 19.3 182 182 182
65.0 -30.5 18.8 179 179 179
43.6 -18.6 11.5 121 123 122
-25.1 -16.9 10.6 143 143 142
-13.3 -16.0 10.0 87 88 86
-9.8 -16.1 10.0 67 67 67
-12.3 -25.6 16.0 183 186 185
-11.3 -25.0 15.6 176 176 176
-11.1 -25.4 15.8 157 160 159
-10.8 -25.6 16.0 153 155 155
53.4 -55.9 34.9 205 208 207
54.2 -55.9 34.9 205 208 207
55.0 -55.8 34.8 206 209 208
55.0 -55.0 34.3 206 209 208
66.2 -64.4 40.2 206 209 208
69.0 -66.2 41.3 206 209 208
69.7 -65.9 41.1 207 210 209
70.0 -65.3 40.8 207 210 209
69.3 -63.8 39.8 207 210 209
70.1 -63.7 39.7 207 210 209
68.0 -61.0 38.1 207 210 209
66.4 -58.7 36.7 207 210 209
35.2 -26.4 16.5 189 189 189
65.6 -30.6 19.1 180 180 180
64.9 -30.0 18.7 180 180 180
62.9 -26.6 16.6 129 129 129
-23.1 -15.8 10.0 71 71 71
-13.5 -15.8 10.0 39 38 37
-13.3 -15.8 10.0 118 118 118
-11.5 -25.0 15.9 179 179 179
-11.2 -25.3 16.0 164 164 164
53.2 -54.9 34.8 205 208 207
54.1 -55.0 34.8 205 208 207
55.0 -55.0 34.8 205 208 207
54.3 -53.5 33.9 205 208 207
54.1 -52.6 33.3 205 205 205
71.2 -66.4 42.0 206 209 208
71.4 -65.7 41.6 206 209 208
75.2 -68.2 43.2 207 210 209
72.2 -64.7 40.9 207 210 209
68.7 -60.7 38.4 207 210 209
66.9 -58.3 36.9 207 210 209
35.5 -26.5 16.8 189 189 189
41.1 -30.4 19.3 186 186 186
40.5 -29.6 18.8 189 189 189
43.6 -31.6 20.0 189 189 189
66.3 -30.5 19.3 178 178 178
65.3 -29.8 18.9 181 181 181
72.7 -32.8 20.7 184 184 184
62.9 -26.4 16.7 134 134 134
62.9 -26.3 16.6 128 130 129
-12.0 -26.6 17.1 167 167 167
-11.6 -26.6 17.1 162 162 162
54.7 -53.9 34.6 205 208 207
53.8 -52.3 33.6 205 208 207
53.3 -51.1 32.8 208 211 210
84.9 -80.2 51.5 205 208 207
82.1 -76.5 49.1 206 209 208
82.5 -73.8 47.4 206 209 208
41.2 -29.7 19.1 194 194 194
43.6 -31.1 20.0 190 190 190
42.8 -30.2 19.4 190 190 190
73.2 -32.3 20.7 185 185 185
61.7 -26.7 17.1 179 179 179
60.1 -25.8 16.6 177 177 177
58.7 -25.1 16.1 169 171 170
65.4 -27.2 17.5 142 144 143
63.5 -26.3 16.9 133 133 133
63.0 -25.9 16.6 128 130 129
-41.1 -27.1 17.7 29 31 29
-35.6 -27.2 17.8 63 63 63
-12.8 -27.0 17.6 178 178 178
-12.4 -27.0 17.6 168 168 168
-11.9 -27.0 17.6 165 165 165
-11.5 -27.0 17.6 162 162 162
54.7 -53.1 34.6 207 210 209
54.1 -51.8 33.8 208 211 210
53.2 -50.3 32.8 208 211 210
91.9 -85.5 55.8 208 211 210
89.3 -81.9 53.4 208 211 210
41.7 -29.6 19.3 191 191 191
43.1 -30.3 19.8 190 190 190
42.8 -29.8 19.4 190 190 190
73.6 -32.2 21.0 186 186 186
72.7 -31.6 20.6 187 189 189
60.3 -25.5 16.7 173 175 175
58.3 -24.5 16.0 171 173 173
65.7 -26.9 17.6 143 145 144
62.9 -25.6 16.7 136 136 136
62.8 -25.4 16.6 131 134 133
-45.0 -27.3 18.1 48 48 48
-44.4 -27.2 18.0 46 46 46
-43.1 -27.2 18.0 46 46 46
-42.8 -27.2 18.0 45 44 43
-42.2 -27.1 17.9 37 38 37
-41.6 -27.0 17.9 29 31 29
-41.3 -27.0 17.9 33 32 30
-41.0 -27.1 18.0 33 32 30
-37.0 -27.6 18.3 62 62 62
-35.9 -27.1 17.9 62 62 62
-35.1 -26.8 17.8 62 62 62
-32.3 -26.9 17.8 66 66 66
-31.8 -26.7 17.7 59 59 59
-12.9 -26.9 17.8 172 174 174
-12.5 -27.0 17.9 169 169 169
-12.1 -26.9 17.8 165 165 165
-11.7 -27.0 17.9 164 164 164
53.5 -51.9 34.4 207 210 209
54.5 -52.1 34.5 207 210 209
112.8 -100.5 66.6 208 211 210
112.8 -99.2 65.7 208 211 210
114.7 -99.5 65.9 208 211 210
35.2 -24.9 16.5 190 190 190
43.5 -30.1 20.0 192 192 192
43.2 -29.6 19.6 190 190 190
73.5 -31.4 20.8 188 188 188
60.3 -25.1 16.6 174 176 176
58.5 -24.2 16.0 170 171 170
65.1 -26.3 17.4 145 145 144
63.5 -25.5 16.9 134 137 136
62.8 -25.0 16.6 131 134 133
-47.6 -27.6 18.6 29 31 29
-46.9 -27.5 18.5 29 31 29
-46.4 -27.5 18.5 24 24 24
-46.1 -27.5 18.5 20 23 21
-45.5 -27.4 18.5 19 23 20
-45.0 -27.4 18.4 26 26 26
-44.3 -27.5 18.5 48 48 48
-43.9 -27.5 18.5 58 58 56
-43.1 -27.3 18.3 62 62 62
-42.2 -26.9 18.1 53 53 53
-42.6 -27.5 18.5 40 42 42
-40.9 -27.5 18.5 148 148 148
-38.0 -27.6 18.5 52 52 52
-37.6 -27.6 18.6 64 64 64
-36.8 -27.3 18.4 66 66 66
-35.5 -26.7 17.9 73 74 72
-32.7 -26.7 18.0 58 59 59
-32.1 -26.6 17.9 58 59 59
-13.0 -26.8 18.0 172 174 174
-12.6 -26.7 18.0 171 173 173
-12.1 -26.6 17.9 168 168 168
53.5 -51.1 34.4 207 210 209
118.5 -102.6 69.0 208 211 210
120.6 -103.0 69.3 208 211 210
120.9 -101.9 68.5 208 211 210
35.1 -24.4 16.4 192 192 192
73.5 -31.0 20.8 185 185 185
60.6 -24.9 16.7 175 177 177
59.1 -24.1 16.2 169 169 169
65.6 -26.1 17.5 144 144 144
62.6 -24.7 16.6 137 139 138
62.5 -24.5 16.5 134 137 136
-51.0 -27.2 18.6 73 73 73
-50.5 -27.2 18.6 60 60 60
-50.2 -27.2 18.6 129 129 129
-49.7 -27.2 18.6 126 126 126
-49.2 -27.1 18.5 11 11 11
-47.1 -27.2 18.6 29 31 29
-46.7 -27.2 18.6 19 23 20
-46.4 -27.2 18.6 26 26 26
-45.8 -27.2 18.6 20 23 21
-45.3 -27.1 18.5 20 23 21
-44.9 -27.2 18.6 36 36 36
-44.5 -27.2 18.6 55 55 55
-44.1 -27.2 18.6 68 68 68
-43.7 -27.2 18.6 71 72 70
-43.2 -27.2 18.6 67 68 66
-42.8 -27.2 18.6 51 51 51
-42.2 -27.1 18.5 58 58 56
-41.9 -27.5 18.8 122 124 123
-41.2 -27.3 18.7 89 91 90
-40.5 -27.1 18.5 146 146 146
-40.2 -27.2 18.6 170 171 170
-39.4 -27.2 18.6 25 25 25
-38.9 -27.2 18.6 19 23 20
-38.5 -27.2 18.6 7 13 9
-38.2 -27.3 18.6 10 15 11
-37.8 -27.3 18.7 18 18 18
-37.2 -27.2 18.6 42 44 43
-37.0 -27.4 18.7 46 46 44
-34.0 -27.1 18.5 73 74 72
-33.4 -26.9 18.4 68 70 68
-29.4 -27.2 18.6 32 33 31
-29.1 -27.3 18.7 36 35 34
-28.6 -27.3 18.6 29 29 29
-28.1 -27.1 18.5 29 29 29
-27.8 -27.3 18.6 32 33 31
-27.4 -27.3 18.7 29 29 29
-26.8 -27.2 18.6 37 38 37
-26.5 -27.3 18.7 33 34 32
-25.9 -27.2 18.6 26 26 26
-25.6 -27.3 18.7 22 25 23
-25.2 -27.3 18.7 36 36 34
-24.7 -27.3 18.6 89 89 89
-24.2 -27.1 18.5 135 135 135
-23.8 -27.1 18.5 154 154 154
-23.4 -27.2 18.6 46 48 47
-23.1 -27.3 18.7 42 42 42
-22.6 -27.3 18.7 72 73 71
-22.0 -27.1 18.5 112 112 112
-21.5 -27.0 18.5 132 135 134
-13.8 -27.1 18.5 174 176 176
-13.2 -26.7 18.3 173 173 173
-12.5 -26.1 17.8 170 171 170
-12.1 -26.2 17.9 167 167 167
149.1 -130.5 89.2 207 210 209
131.9 -113.9 77.8 207 210 209
119.4 -101.7 69.5 208 211 210
122.4 -102.9 70.3 208 211 210
122.2 -101.4 69.3 208 211 210
128.5 -105.2 71.9 208 211 210
60.3 -24.2 16.5 167 167 167
59.6 -23.8 16.3 160 160 160
61.8 -24.0 16.4 139 141 140
-17.5 -15.1 10.5 181 181 181
-27.6 -27.1 18.8 91 93 92
151.9 -130.9 90.9 207 210 209
133.5 -113.5 78.8 207 210 209
121.6 -102.0 70.8 207 210 209
126.1 -104.4 72.5 208 211 210
122.2 -99.8 69.3 208 211 210
136.8 -110.3 76.6 208 211 210
76.9 -31.4 21.8 188 188 188
75.6 -30.6 21.3 188 188 188
60.9 -24.0 16.7 164 167 166
60.1 -23.6 16.4 160 160 160
-13.5 -29.3 20.7 123 125 124
-12.9 -28.9 20.4 42 42 40
241.6 -207.7 146.6 206 209 208
77.2 -31.0 21.9 189 189 189
76.7 -30.6 21.6 189 189 189
74.3 -29.4 20.8 186 186 186
60.8 -23.5 16.6 160 160 160
60.5 -23.2 16.4 153 155 155
62.0 -23.5 16.6 142 144 143
62.0 -23.3 16.5 138 138 138
-13.6 -28.9 20.7 165 165 165
-12.9 -28.5 20.5 115 114 114
217.9 -184.3 132.3 206 209 208
197.5 -164.7 118.2 206 209 208
256.9 -195.2 140.1 208 211 210
235.7 -176.9 127.0 214 214 214
199.8 -148.1 106.3 209 212 211
186.5 -136.6 98.0 209 212 211
33.1 -19.7 14.1 198 198 198
77.8 -30.5 21.9 188 188 188
62.0 -23.5 16.9 160 160 160
61.3 -23.1 16.6 152 152 152
62.2 -23.3 16.7 146 148 148
62.4 -23.2 16.7 141 141 141
63.4 -23.5 16.9 134 134 134
-14.6 -29.5 21.5 170 171 170
-14.0 -29.3 21.4 162 165 164
217.9 -181.2 132.3 210 210 210
187.0 -153.4 111.9 210 210 210
255.0 -190.6 139.1 208 211 210
222.3 -164.0 119.7 208 211 210
203.2 -148.1 108.1 208 211 210
192.5 -138.6 101.2 209 212 211
33.1 -19.5 14.3 198 198 198
33.2 -19.4 14.2 200 200 200
33.3 -19.3 14.1 203 203 203
33.9 -19.4 14.2 202 202 202
79.2 -30.5 22.3 189 189 189
80.4 -30.8 22.5 186 186 186
81.1 -30.9 22.5 178 178 178
63.4 -23.4 17.1 139 141 140
71.6 -25.7 18.8 128 128 128
-24.1 -14.0 10.4 44 43 42
-17.1 -13.9 10.3 200 202 202
-16.5 -31.7 23.6 172 172 172
-15.7 -31.1 23.1 170 171 170
-14.5 -29.9 22.2 169 169 169
-14.7 -31.3 23.3 155 155 155
-14.3 -31.8 23.6 30 29 29
236.1 -193.0 143.3 210 210 210
508.6 -404.4 300.3 211 211 211
268.8 -197.5 146.6 208 211 210
237.3 -172.1 127.8 208 211 210
33.1 -19.2 14.3 198 198 198
33.2 -19.1 14.2 202 202 202
33.4 -19.0 14.1 202 202 202
83.0 -31.3 23.2 188 188 188
83.2 -31.1 23.1 175 175 175
42.0 -15.1 11.2 134 136 135
42.0 -15.0 11.2 132 132 132
72.2 -25.5 19.0 132 132 132
-26.7 -15.2 11.5 28 28 28
-16.1 -33.8 25.6 156 156 156
-15.5 -33.9 25.6 23 23 22
552.4 -431.7 326.1 210 210 210
243.9 -173.9 131.4 208 211 210
85.4 -31.4 23.7 169 169 169
42.2 -14.9 11.3 134 134 134
42.3 -14.9 11.2 132 132 132
73.1 -25.4 19.2 132 132 132
-26.7 -14.9 11.5 24 24 24
-18.4 -34.2 26.3 164 167 166
-17.9 -34.4 26.4 145 147 147
-17.1 -34.1 26.2 81 81 81
-16.5 -33.9 26.1 88 88 88
-16.0 -34.3 26.3 53 52 52
628.3 -482.3 370.9 210 210 210
726.1 -473.0 363.8 215 215 215
87.4 -31.6 24.3 150 150 150
42.4 -14.7 11.3 133 133 133
42.4 -14.7 11.3 131 133 132
74.7 -25.5 19.6 131 133 132
-18.8 -34.4 26.9 168 170 169
-18.2 -34.3 26.9 130 129 128
-17.5 -34.1 26.7 85 85 85
-16.8 -34.0 26.6 80 80 80
-16.4 -34.5 27.0 53 52 52
88.8 -31.5 24.7 129 132 131
89.7 -31.6 24.8 132 135 134
90.3 -31.6 24.8 132 135 134
42.6 -14.5 11.4 128 128 128
42.6 -14.5 11.3 128 128 128
72.5 -24.3 19.0 128 128 128
-19.7 -35.3 28.2 166 169 168
-18.7 -34.6 27.6 120 122 121
-17.8 -34.1 27.2 89 89 89
-17.0 -33.8 26.9 82 82 82
-17.0 -35.0 27.9 66 66 64
92.0 -31.8 25.4 121 121 121
92.2 -31.7 25.3 122 122 122
43.1 -14.4 11.5 121 121 121
43.1 -14.3 11.4 123 123 123
75.5 -25.0 20.0 123 123 123
-19.2 -35.0 28.4 123 123 123
-18.0 -33.9 27.5 84 86 86
-17.3 -33.7 27.4 84 86 86
-17.4 -35.2 28.6 74 76 75
94.3 -32.0 26.0 112 112 112
94.0 -31.7 25.8 112 112 112
94.3 -31.6 25.7 112 112 112
44.0 -14.4 11.7 115 114 114
75.5 -24.5 19.9 115 114 114
-18.4 -34.0 28.2 90 90 90
-17.7 -33.8 28.0 83 85 85
-17.7 -35.1 29.1 59 59 59
95.8 -31.7 26.3 109 109 109
96.4 -31.7 26.3 108 108 108
-18.4 -35.8 30.2 88 88 88
-17.8 -36.1 30.5 32 31 30
73.8 -23.0 19.4 156 156 156
-19.4 -37.1 32.0 96 99 98
14.2 -11.6 10.0 211 211 211
73.7 -22.5 19.4 158 158 158
-25.5 -47.7 41.9 78 78 78
-23.8 -46.4 40.8 107 109 109
-22.6 -45.8 40.2 109 109 109
51.0 -15.8 13.9 82 84 84
-26.0 -47.7 42.8 102 102 102
-24.8 -47.3 42.4 19 19 19
-23.8 -47.4 42.5 27 27 27
51.5 -15.6 14.0 79 82 81
52.5 -15.8 14.2 73 73 73
53.1 -15.9 14.3 71 70 69
-26.7 -47.9 43.9 104 104 104
-25.3 -47.2 43.3 17 17 17
-25.1 -48.8 44.7 21 22 20
326.5 -176.4 161.7 220 220 220
488.4 -258.0 236.5 218 218 218
359.2 -187.6 172.0 182 182 182
289.5 -149.6 137.1 197 197 197
51.3 -15.3 14.1 112 112 112
51.5 -15.3 14.0 79 82 81
51.8 -15.3 14.0 77 77 77
52.9 -15.5 14.2 77 77 77
-26.8 -47.1 44.1 97 100 99
-25.5 -46.7 43.7 17 17 17
-24.8 -49.3 46.1 46 47 45
308.0 -162.9 152.6 219 219 219
470.8 -243.4 227.9 220 220 220
323.9 -165.6 155.1 180 180 180
271.8 -137.4 128.7 196 196 196
51.1 -15.0 14.0 124 124 124
51.4 -15.0 14.0 87 87 87
52.2 -15.0 14.1 80 80 80
-29.7 -49.3 47.2 97 97 97
-27.4 -47.2 45.1 108 110 110
-25.9 -46.3 44.3 25 24 23
-26.8 -49.9 47.8 24 23 22
-25.4 -49.4 47.3 11 16 13
378.2 -195.7 187.3 219 219 219
476.5 -241.0 230.7 220 220 220
356.0 -178.0 170.4 181 181 181
264.6 -130.9 125.3 196 196 196
223.2 -109.2 104.5 202 202 202
50.8 -14.6 13.9 120 120 120
51.1 -14.5 13.9 93 93 93
52.1 -14.6 14.0 80 80 80
-27.6 -46.4 45.5 108 108 108
-26.4 -46.1 45.1 22 23 21
-29.6 -54.0 52.8 26 26 26
-28.4 -54.0 52.8 103 103 103
488.4 -241.5 236.5 220 220 220
387.4 -189.4 185.5 183 183 183
287.4 -139.0 136.1 196 196 196
51.0 -14.2 13.9 90 90 90
52.1 -14.3 14.0 80 83 82
-32.6 -55.7 55.8 44 45 43
-31.2 -55.5 55.6 22 23 21
-30.0 -55.7 55.8 149 149 149
501.0 -242.1 242.5 220 220 220
387.4 -185.1 185.5 181 181 181
289.5 -136.8 137.1 194 194 194
229.5 -107.3 107.5 200 200 200
51.3 -13.9 13.9 81 84 83
-34.4 -59.9 61.4 22 23 21
-33.0 -59.9 61.4 139 139 139
-32.2 -61.1 62.6 166 166 166
501.0 -236.4 242.5 219 219 219
380.0 -177.3 181.9 183 183 183
275.6 -127.2 130.5 192 192 192
205.0 -93.6 96.0 198 198 198
-42.5 -69.2 72.8 25 25 23
-37.0 -62.7 65.9 19 19 19
-35.1 -62.1 65.2 156 156 156
514.2 -236.9 248.9 219 219 219
407.4 -185.6 195.0 188 188 188
275.6 -124.2 130.5 194 194 194
-44.5 -70.8 76.3 31 33 33
-39.1 -64.8 69.8 14 18 15
212.6 -92.4 99.6 198 198 198
164.7 -70.8 76.3 200 200 200
-55.5 -82.7 91.4 108 108 108
-48.9 -75.8 83.7 26 26 26
-43.8 -70.8 78.2 21 21 21
165.3 -69.3 76.6 200 200 200
-59.8 -86.9 98.5 102 102 102
-53.1 -80.2 90.9 31 31 31
-52.7 -86.4 98.0 155 155 155
300.4 -125.4 142.2 174 176 176
204.0 -84.3 95.5 195 195 195
53.6 -20.3 23.1 203 203 203
-31.4 -12.6 14.7 110 110 110
-31.2 -12.6 14.7 128 131 130
-89.7 -122.1 142.2 95 95 95
-78.7 -111.3 129.6 96 96 96
-72.7 -111.3 129.6 26 26 26
-65.2 -104.1 121.3 168 168 168
-64.1 -112.0 130.5 170 172 172
795.8 -338.4 394.1 221 221 221
535.3 -222.5 259.1 221 221 221
411.6 -169.2 197.0 174 176 176
305.0 -124.0 144.4 174 176 176
203.0 -81.6 95.1 195 195 195
53.6 -19.8 23.1 202 202 202
-31.3 -12.2 14.6 134 134 134
-31.2 -12.3 14.7 139 141 140
-38.6 -15.4 18.4 146 146 146
-37.9 -15.3 18.3 136 136 136
-89.9 -133.9 160.3 25 25 23
-114.5 -185.9 222.5 167 167 167
-72.0 -122.5 146.6 179 179 179
38.3 -200.1 239.4 170 172 172
41.2 -188.1 225.2 170 172 172
42.9 -173.7 207.9 145 145 144
50.5 -183.8 220.0 146 146 146
59.8 -197.6 236.5 146 146 146
58.0 -175.6 210.2 147 149 149
78.8 -190.4 227.9 139 139 139
77.5 -175.6 210.2 140 140 140
85.3 -181.7 217.4 140 140 140
86.4 -173.7 207.9 149 149 149
92.2 -175.6 210.2 159 162 161
433.5 -197.6 236.5 219 222 221
488.4 -197.6 236.5 221 221 221
411.6 -164.6 197.0 176 179 178
53.1 -19.1 22.9 202 202 202
-31.8 -12.3 15.2 134 134 134
-31.7 -13.3 16.4 58 59 59
-121.1 -182.9 225.2 153 153 153
-131.5 -207.6 255.6 168 170 169
62.9 -202.2 248.9 146 146 146
61.4 -180.8 222.5 146 146 146
83.8 -197.0 242.5 139 139 139
428.1 -189.7 233.5 219 222 221
494.6 -194.5 239.4 221 221 221
407.4 -158.4 195.0 175 175 175
55.3 -19.5 24.1 202 202 202
53.2 -18.6 22.9 199 199 199
-32.0 -12.1 15.3 128 131 130
-31.3 -12.8 16.2 58 59 59
-30.5 -12.6 16.0 48 47 46
-29.1 -12.2 15.4 28 28 28
-182.9 -257.3 326.1 21 21 21
-154.1 -226.1 286.6 155 158 157
-170.7 -261.8 331.9 168 170 169
526.8 -229.6 291.0 219 222 221
514.2 -196.4 248.9 221 221 221
395.2 -149.3 189.2 186 186 186
275.6 -102.9 130.5 169 171 170
53.2 -18.1 22.9 202 202 202
-31.9 -11.7 15.2 119 119 119
-31.3 -12.4 16.2 54 54 54
-30.4 -12.2 15.9 53 52 52
-28.9 -11.7 15.3 30 29 29
558.2 -206.9 270.2 221 221 221
362.5 -132.9 173.5 176 179 178
271.8 -98.5 128.7 140 142 141
221.9 -79.6 103.9 158 158 158
751.5 -270.1 363.8 218 218 218
254.5 -89.5 120.5 143 142 141
190.5 -66.3 89.2 162 165 164
173.0 -59.5 80.2 193 193 193
-46.0 -14.7 20.4 77 77 77
-45.3 -14.6 20.3 78 78 78
795.8 -283.5 394.1 220 220 220
185.3 -62.4 86.8 147 149 149
169.4 -56.5 78.5 185 185 185
-46.5 -14.2 20.4 77 77 77
-46.2 -14.2 20.5 73 73 73
-45.1 -14.0 20.2 75 77 75
16.8 -7.1 10.2 218 221 220
16.8 -7.0 10.1 219 222 221
150.7 -48.6 69.8 185 185 185
-46.7 -13.9 20.7 61 60 59
-44.8 -13.5 20.0 58 59 59
17.0 -6.9 10.3 219 222 221
494.6 -161.1 239.4 220 220 220
165.3 -51.5 76.6 181 181 181
501.0 -157.5 242.5 221 221 221
166.0 -49.9 76.9 179 179 179
203.7 -52.3 80.5 71 73 73
494.6 -150.0 239.4 221 221 221
270.0 -80.0 127.8 127 127 127
167.4 -48.6 77.5 179 179 179
223.7 -55.9 89.2 69 69 69
204.6 -50.6 80.8 68 68 68
53.3 -49.6 82.2 220 220 220
52.5 -47.1 78.2 219 219 219
488.4 -142.6 236.5 222 224 224
387.4 -111.8 185.5 174 176 176
182.0 -51.4 85.2 162 162 162
166.0 -46.4 76.9 176 179 178
202.0 -48.1 79.8 58 60 59
193.2 -45.6 75.7 67 67 67
91.0 -87.7 151.3 221 221 221
59.2 -53.0 91.4 220 220 220
53.3 -46.1 79.5 220 220 220
501.0 -140.6 242.5 222 222 222
362.5 -100.6 173.5 181 181 181
167.4 -45.0 77.5 175 177 177
443.8 -117.9 203.4 189 189 189
413.0 -108.6 187.3 191 191 191
383.2 -99.7 172.0 193 193 193
208.1 -47.7 82.2 60 63 62
110.5 -106.3 191.1 218 221 220
54.0 -44.8 80.5 217 220 219
482.4 -130.0 233.5 224 224 224
395.2 -105.3 189.2 175 175 175
277.5 -73.1 131.4 64 63 61
448.7 -115.7 207.9 173 173 173
443.8 -113.2 203.4 186 186 186
421.4 -106.3 191.1 189 189 189
413.3 -103.2 185.5 194 194 194
425.9 -105.3 189.2 194 194 194
120.4 -27.5 49.4 232 232 232
207.2 -45.6 81.9 65 65 65
200.5 -43.7 78.5 61 64 63
117.6 -108.5 203.4 219 222 221
18.9 -5.6 10.4 222 222 222
482.4 -124.6 233.5 224 224 224
403.2 -102.9 193.0 173 173 173
254.5 -64.3 120.5 109 109 109
212.6 -53.1 99.6 139 141 140
474.8 -117.3 220.0 168 170 169
469.0 -114.6 215.0 186 186 186
430.0 -104.0 195.0 190 190 190
421.5 -100.9 189.2 191 191 191
434.6 -102.9 193.0 194 194 194
125.6 -27.5 51.5 234 234 234
301.2 -64.7 121.3 106 106 106
488.4 -120.6 236.5 221 221 221
365.9 -89.3 175.2 173 173 173
277.5 -67.0 131.4 69 69 69
203.0 -48.5 95.1 143 143 142
164.7 -38.9 76.3 165 168 167
503.3 -117.7 230.7 183 183 183
425.7 -98.5 193.0 186 186 186
379.8 -86.9 170.4 192 192 192
443.7 -100.5 197.0 194 194 194
130.5 -27.6 54.0 203 203 203
126.7 -26.5 52.0 227 230 229
242.0 -49.2 96.5 69 69 69
204.6 -41.2 80.8 67 67 67
186.5 -37.3 73.0 67 67 67
24.6 -6.4 13.2 221 221 221
184.5 -42.1 86.4 144 146 146
165.3 -37.3 76.6 173 173 173
126.2 -27.6 56.6 192 192 192
125.6 -27.2 55.8 192 192 192
127.7 -27.3 56.1 195 195 195
128.2 -27.2 55.8 197 197 197
129.9 -27.2 56.0 197 197 197
140.9 -28.7 58.9 203 203 203
133.9 -27.0 55.5 203 203 203
130.3 -26.0 53.4 224 224 224
138.6 -27.2 55.8 99 101 101
210.8 -40.9 84.1 59 61 60
207.2 -39.9 81.9 61 64 63
24.6 -6.1 13.3 222 222 222
138.0 -26.5 57.1 206 206 206
213.7 -39.2 84.4 60 62 61
25.0 -5.9 13.5 222 222 222
21.1 -5.1 12.3 225 225 225
21.7 -5.1 12.3 220 220 220
22.8 -5.1 12.3 220 220 220
24.2 -5.1 12.3 221 221 221
17.2 -4.9 12.3 210 210 210
17.5 -4.9 12.3 214 216 216
17.8 -4.9 12.3 214 216 216
18.0 -4.9 12.3 213 215 215
18.3 -4.9 12.3 218 218 218
18.6 -4.9 12.3 217 217 217
18.9 -4.9 12.3 217 217 217
19.2 -4.9 12.3 220 220 220
19.5 -4.9 12.3 220 220 220
20.1 -4.9 12.3 220 220 220
20.3 -4.9 12.3 220 220 220
20.6 -4.9 12.3 224 224 224
20.9 -4.9 12.3 224 224 224
21.2 -4.9 12.3 224 224 224
21.5 -4.9 12.3 221 221 221
21.8 -4.9 12.3 221 221 221
22.0 -4.9 12.3 221 221 221
22.4 -4.9 12.4 221 221 221
22.7 -4.9 12.4 221 221 221
22.9 -4.9 12.3 221 221 221
23.2 -4.9 12.3 221 221 221
23.6 -4.9 12.4 221 221 221
23.9 -4.9 12.4 221 221 221
24.1 -4.9 12.4 221 221 221
24.3 -4.9 12.3 221 221 221
17.5 -4.6 12.4 215 218 217
18.1 -4.6 12.4 214 216 216
18.4 -4.6 12.4 214 216 216
18.6 -4.6 12.3 218 218 218
20.1 -4.6 12.4 221 221 221
20.3 -4.6 12.3 221 221 221
20.6 -4.6 12.3 221 221 221
20.9 -4.6 12.3 221 221 221
21.2 -4.6 12.3 221 221 221
21.5 -4.6 12.4 221 221 221
21.8 -4.6 12.4 221 221 221
22.1 -4.6 12.3 221 221 221
22.4 -4.6 12.4 221 221 221
22.7 -4.6 12.4 222 222 222
22.9 -4.6 12.3 222 222 222
23.3 -4.6 12.4 222 222 222
23.7 -4.6 12.4 222 222 222
23.9 -4.6 12.4 222 222 222
24.2 -4.6 12.4 225 225 225
24.3 -4.6 12.3 222 222 222
20.3 -4.3 12.3 222 222 222
20.5 -4.3 12.3 222 222 222
21.1 -4.3 12.3 222 222 222
21.5 -4.3 12.4 222 222 222
21.7 -4.3 12.3 222 222 222
22.0 -4.3 12.3 222 222 222
22.6 -4.3 12.3 222 222 222
23.6 -4.3 12.4 222 222 222
23.8 -4.3 12.4 222 222 222
24.1 -4.3 12.4 222 222 222
24.2 -4.3 12.3 222 222 222
20.3 -4.0 12.3 219 219 219
20.5 -4.0 12.2 222 222 222
21.1 -4.0 12.3 222 222 222
21.7 -4.0 12.3 224 224 224
21.9 -4.0 12.3 224 224 224
22.3 -4.0 12.3 226 226 226
22.6 -4.0 12.3 224 224 224
22.7 -4.0 12.2 220 220 220
24.1 -4.0 12.3 220 220 220
24.2 -4.0 12.3 220 220 220
24.4 -4.0 12.2 224 224 224
22.0 -3.7 12.3 220 220 220
24.3 -3.7 12.3 221 221 221
21.4 -3.1 11.1 221 221 221
21.6 -3.1 11.1 221 221 221
21.5 -2.8 11.2 222 222 222
21.6 -2.4 11.4 219 222 221
21.7 -2.3 11.3 219 222 221
21.6 -2.1 11.5 219 222 221
21.6 -2.1 11.4 219 222 221
21.8 -2.1 11.3 219 222 221
22.1 -2.1 11.3 219 222 221
629.9 -46.0 248.9 66 68 67
21.6 -1.8 11.3 220 223 222
21.7 -1.8 11.3 220 223 222
520.3 -33.2 205.6 63 65 65
20.0 -1.5 10.8 220 223 222
20.0 -1.2 10.7 222 224 224
19.9 -1.0 10.7 223 225 225
97.7 -0.6 27.5 74 74 74
98.6 0.0 27.9 137 139 138
97.7 0.0 27.5 79 79 79
97.2 0.0 27.2 82 81 79
98.6 0.7 27.9 137 139 138
97.0 0.7 27.3 83 82 80
96.0 0.7 26.8 103 103 103
19.7 0.5 10.5 224 224 224
20.0 0.5 10.5 224 224 224
20.0 0.8 12.0 209 209 209
19.8 0.8 10.7 225 225 225
19.9 0.7 10.5 225 225 225
80.8 1.5 21.6 86 85 83
19.9 1.1 11.9 208 208 208
20.1 1.1 11.9 214 214 214
19.8 1.0 10.4 224 224 224
84.5 2.1 22.7 85 84 82
79.9 2.0 21.4 87 86 84
83.1 2.6 22.4 87 87 85
80.2 2.5 21.4 87 87 85
84.1 2.6 22.4 93 93 93
83.8 2.6 22.1 95 95 95
84.3 3.2 22.7 89 89 89
81.5 3.1 21.8 87 87 85
84.8 3.2 22.4 96 96 96
91.5 4.0 24.3 94 94 94
24.3 3.8 12.4 224 224 224
-178.1 36.8 63.3 47 47 47
-106.5 45.1 77.5 90 90 90
-99.1 42.7 73.3 85 85 85
-85.4 37.5 64.3 78 80 78
-83.9 37.5 64.3 77 77 77
-80.5 38.0 65.2 230 230 230
-79.3 38.1 65.5 230 233 232
-73.5 37.5 64.3 63 64 62
-78.7 43.7 75.1 67 69 67
-71.3 40.5 69.5 68 70 69
-63.0 36.6 62.8 65 65 65
-61.3 36.5 62.6 90 90 90
-59.5 36.2 62.2 83 85 85
-81.3 17.5 28.9 46 46 46
-81.0 17.6 29.0 42 42 42
-80.1 17.5 28.9 40 40 40
-79.7 17.6 29.0 36 36 36
-78.9 17.5 29.0 42 42 42
-78.4 17.6 29.1 124 127 126
-77.4 17.5 28.9 140 140 140
-76.7 17.5 28.9 136 138 137
-76.3 17.6 29.0 130 130 130
-75.5 17.5 29.0 123 123 123
-74.7 17.5 28.9 120 120 120
-74.0 17.5 28.9 124 124 124
-73.4 17.5 28.9 126 128 127
-72.7 17.5 28.9 132 132 132
-72.0 17.5 28.9 126 129 128
-71.8 17.6 29.1 126 129 128
-70.9 17.6 29.0 128 130 129
-69.8 17.5 28.8 128 130 129
-69.2 17.5 28.9 127 127 127
-39.5 17.7 29.2 75 76 76
-38.5 17.5 29.0 74 74 74
-38.2 17.7 29.3 74 74 74
-37.5 17.7 29.2 72 73 71
-36.6 17.6 29.1 181 184 183
-36.2 17.8 29.3 67 67 67
-35.8 17.9 29.6 72 72 72
-34.5 17.6 29.0 49 49 49
-31.3 17.7 29.2 65 65 65
-30.3 17.5 28.9 67 67 67
-29.7 17.5 28.9 64 64 64
-28.9 17.5 28.9 61 61 61
-28.5 17.6 29.1 62 62 62
-28.1 17.8 29.4 89 89 89
-27.4 17.8 29.4 153 153 153
-253.6 65.0 90.1 87 86 84
-114.3 64.4 89.2 148 150 150
-87.0 64.1 88.8 159 159 159
-85.7 64.7 89.7 169 169 169
-75.6 65.0 90.1 107 109 109
43.9 52.7 73.0 152 152 152
-94.5 71.9 96.5 179 179 179
-91.3 71.2 95.5 158 158 158
95.7 110.1 147.8 195 198 197
-204.2 118.2 153.8 151 153 153
-191.3 112.7 146.6 155 155 155
90.2 110.9 144.4 182 185 184
98.0 116.3 151.3 192 192 192
92.0 105.3 137.1 194 197 196
-228.3 136.1 172.0 126 129 128
-212.7 129.1 163.1 79 81 80
96.8 122.7 155.1 178 181 180
104.7 128.0 161.7 188 188 188
100.0 117.9 148.9 193 193 193
115.6 145.4 178.5 184 184 184
114.4 138.9 170.4 188 188 188
-63.9 162.6 170.4 193 193 193
-321.6 160.8 164.5 4 10 6
-309.7 156.7 160.3 8 9 8
-308.6 158.0 161.7 14 14 14
-310.2 160.8 164.5 15 19 16
-301.1 158.0 161.7 18 22 19
-297.4 158.0 161.7 25 25 25
-291.1 156.7 160.3 25 25 25
-286.1 158.0 161.7 39 41 41
-282.3 158.0 161.7 22 22 22
-278.6 158.0 161.7 15 19 16
-272.5 156.7 160.3 16 16 16
-273.4 159.4 163.1 14 14 14
-269.6 159.4 163.1 11 11 11
-259.1 155.4 159.0 15 19 16
-247.1 150.3 153.8 31 31 31
-245.5 151.6 155.1 36 37 36
-252.3 158.0 161.7 40 40 40
-248.5 158.0 161.7 42 42 40
-240.6 155.4 159.0 45 45 45
-235.0 154.1 157.6 49 49 49
-233.2 155.4 159.0 53 52 52
-231.5 156.7 160.3 57 58 56
-229.7 158.0 161.7 63 63 63
-222.2 155.4 159.0 65 65 65
-218.5 155.4 159.0 65 65 65
-211.2 152.8 156.3 65 65 65
-216.5 159.4 163.1 67 67 67
-210.9 158.0 161.7 65 65 65
-206.9 160.8 164.5 75 75 75
-203.1 160.8 164.5 133 133 133
-194.2 156.7 160.3 175 177 177
-188.9 155.4 159.0 64 65 63
-185.2 155.4 159.0 46 46 46
-184.6 158.0 161.7 31 30 29
-184.0 160.8 164.5 92 91 90
-181.8 162.2 165.9 169 171 170
-176.4 160.8 164.5 163 166 165
-174.0 162.2 165.9 157 157 157
-171.7 163.6 167.4 160 163 162
-160.7 156.7 160.3 139 139 139
-164.4 168.1 172.0 184 184 184
-157.5 165.1 168.9 165 168 167
-143.4 154.1 157.6 143 143 142
-138.5 152.8 156.3 119 119 119
-136.9 159.4 163.1 145 147 147
-135.5 162.2 165.9 146 148 148
-129.4 159.4 163.1 154 154 154
-125.6 159.4 163.1 155 158 157
-121.8 159.4 163.1 151 151 151
-119.0 160.8 164.5 136 138 137
-116.2 162.2 165.9 108 108 108
-108.5 156.7 160.3 86 88 88
-104.8 156.7 160.3 74 76 75
-102.8 159.4 163.1 64 66 66
-99.0 159.4 163.1 93 96 95
-94.4 158.0 161.7 100 100 100
-88.4 154.1 157.6 96 96 96
-85.4 155.4 159.0 88 88 88
-81.1 154.1 157.6 153 153 153
-68.7 159.4 163.1 176 176 176
-67.2 165.1 168.9 140 139 138
-62.2 162.2 165.9 144 144 144
-56.4 156.7 160.3 145 147 147
-53.5 159.4 163.1 163 163 163
-49.3 158.0 161.7 171 173 173
-44.8 155.4 159.0 181 184 183
-38.4 159.4 163.1 190 190 190
-34.6 159.4 163.1 193 193 193
-30.8 159.4 163.1 184 187 186
-26.6 156.7 160.3 172 172 172
-23.2 159.4 163.1 209 209 209
-11.9 159.4 163.1 212 213 212
-7.8 154.1 157.6 201 203 203
-4.2 156.7 160.3 197 200 199
3.3 160.8 164.5 206 206 206
7.0 156.7 160.3 214 214 214
10.3 150.3 153.8 215 215 215
13.6 147.9 151.3 207 207 207
18.0 155.4 159.0 212 213 212
22.5 160.8 164.5 219 219 219
26.1 159.4 163.1 208 208 208
29.3 156.7 160.3 210 210 210
106.6 160.8 164.5 208 211 210
113.3 165.1 168.9 190 190 190
-366.9 185.6 185.5 11 11 11
-359.1 183.8 183.7 8 9 8
-335.3 173.7 173.5 14 14 14
-331.3 173.7 173.5 11 11 11
-346.3 183.8 183.7 14 14 14
-329.3 176.9 176.8 15 19 16
-325.1 176.9 176.8 18 22 19
-321.0 176.9 176.8 22 22 22
-314.0 175.3 175.2 26 26 26
-315.8 178.6 178.5 36 37 36
-305.8 175.3 175.2 25 29 26
-304.6 176.9 176.8 15 19 16
-297.7 175.3 175.2 16 16 16
-296.4 176.9 176.8 14 14 14
-297.8 180.3 180.2 14 14 14
-280.3 172.1 172.0 22 22 22
-271.4 169.0 168.9 36 37 36
-279.9 176.9 176.8 43 42 41
-281.1 180.3 180.2 48 48 48
-276.9 180.3 180.2 48 48 48
-265.1 175.3 175.2 50 50 50
-263.5 176.9 176.8 53 53 53
-259.4 176.9 176.8 54 54 54
-257.7 178.6 178.5 60 60 60
-253.5 178.6 178.5 64 64 64
-244.8 175.3 175.2 64 64 64
-240.7 175.3 175.2 66 66 66
-228.2 169.0 168.9 64 64 64
-234.7 176.9 176.8 64 64 64
-230.6 176.9 176.8 65 65 65
-210.8 164.6 164.5 68 70 68
-240.4 191.2 191.1 70 72 69
-222.5 180.3 180.2 230 230 230
-212.2 175.3 175.2 53 52 52
-206.2 173.7 173.5 41 40 38
-206.0 176.9 176.8 42 43 42
-205.7 180.3 180.2 49 49 49
-209.5 187.4 187.3 125 125 125
-209.3 191.2 191.1 155 155 155
-204.9 191.2 191.1 162 162 162
-206.7 197.2 197.0 154 154 154
-194.0 189.3 189.2 150 150 150
-174.0 173.7 173.5 106 106 106
-190.3 199.3 199.1 179 182 181
-176.4 189.3 189.2 165 168 167
-155.0 170.5 170.4 144 144 144
-149.7 169.0 168.9 109 109 109
-151.1 175.3 175.2 99 99 99
-154.2 183.8 183.7 147 147 147
-152.9 187.4 187.3 147 149 149
-156.3 197.2 197.0 153 153 153
-141.4 183.8 183.7 153 155 155
-138.5 185.6 185.5 146 146 146
-145.6 201.4 201.2 136 136 136
-129.9 185.6 185.5 120 120 120
-117.5 173.7 173.5 87 89 88
-114.5 175.3 175.2 75 75 75
-124.2 197.2 197.0 63 63 63
-111.5 183.8 183.7 94 97 96
-104.2 178.6 178.5 101 101 101
-94.7 169.0 168.9 104 104 104
-91.6 170.5 170.4 103 103 103
-88.4 172.1 172.0 146 148 148
-83.7 170.5 170.4 144 146 146
-79.7 170.5 170.4 168 168 168
-86.7 195.2 195.0 163 166 165
-74.5 176.9 176.8 143 142 141
-82.8 208.0 207.9 135 135 135
-68.2 182.0 181.9 133 133 133
-60.5 172.1 172.0 130 130 130
-59.7 182.0 181.9 111 113 112
-54.4 178.6 178.5 111 113 112
-48.5 172.1 172.0 141 141 141
-44.9 173.7 173.5 144 146 146
-42.0 178.6 178.5 149 149 149
-37.9 178.6 178.5 160 160 160
-33.4 176.9 176.8 182 185 184
-28.7 173.7 173.5 206 206 206
-25.9 182.0 181.9 211 211 211
-21.9 183.8 183.7 216 216 216
-18.9 197.2 197.0 212 213 212
-13.0 178.6 178.5 210 210 210
-8.7 176.9 176.8 195 195 195
-4.6 176.9 176.8 201 203 203
-0.6 197.2 197.0 198 201 200
4.0 195.2 195.0 198 201 200
7.7 176.9 176.8 202 204 204
11.2 167.5 167.4 207 207 207
14.8 164.6 164.5 209 209 209
19.1 169.0 168.9 216 216 216
26.3 193.2 193.0 210 210 210
28.2 176.9 176.8 210 210 210
32.1 175.3 175.2 210 210 210
112.4 173.7 173.5 206 209 208
119.8 178.6 178.5 193 196 195
-468.2 245.2 239.4 35 36 34
-445.7 236.2 230.7 25 25 25
-434.8 245.2 239.4 24 24 24
-423.7 245.2 239.4 26 30 27
-418.1 245.2 239.4 22 22 22
-412.6 245.2 239.4 16 20 17
-401.9 242.1 236.5 16 16 16
-401.4 245.2 239.4 14 14 14
-395.9 245.2 239.4 14 14 14
-371.5 233.4 227.9 25 25 25
-388.3 254.9 248.9 58 58 58
-368.0 245.2 239.4 61 61 61
-353.5 239.1 233.5 62 64 61
-361.5 248.3 242.5 67 67 67
-351.3 245.2 239.4 67 67 67
-350.2 248.3 242.5 69 71 69
-349.0 251.6 245.7 71 72 70
-325.0 242.1 236.5 71 72 70
-290.3 227.9 222.5 67 67 67
-303.4 251.6 245.7 232 234 234
-293.8 248.3 242.5 53 52 52
-275.5 242.1 236.5 38 38 38
-315.8 289.1 282.3 115 115 115
-293.9 280.7 274.1 65 65 65
-296.1 289.1 282.3 58 58 58
-252.0 251.6 245.7 55 55 55
-217.8 239.1 233.5 164 164 164
-176.6 242.1 236.5 147 147 147
-177.7 251.6 245.7 137 137 137
-167.7 245.2 239.4 123 123 123
-149.2 251.6 245.7 94 94 94
-136.4 239.1 233.5 105 105 105
-115.9 298.0 291.0 77 77 77
-88.6 242.1 236.5 94 97 96
-72.1 242.1 236.5 106 106 104
-44.1 239.1 233.5 204 204 204
5.4 272.8 266.4 202 204 204
10.3 242.1 236.5 200 202 202
38.3 245.2 239.4 210 210 210
132.2 201.8 197.0 206 209 208
142.6 222.6 212.5 208 211 210
692.8 427.6 266.4 112 112 112
732.0 440.0 274.1 96 96 96
592.4 353.0 220.0 98 98 98
109.3 69.1 42.4 116 116 116
530.7 320.8 197.0 102 104 104
107.9 69.1 41.9 116 116 116
