ply
format ascii 1.0
element vertex 2929
property float x
property float y
property float z
property uchar red
property uchar green
property uchar blue
end_header
222.4 -753.4 300.3 163 163 163
229.4 -753.4 300.3 163 163 163
236.4 -753.4 300.3 163 163 163
243.4 -753.4 300.3 163 163 163
250.4 -753.4 300.3 166 166 166
257.3 -753.4 300.3 163 163 163
264.3 -753.4 300.3 164 164 164
271.3 -753.4 300.3 167 167 167
282.8 -765.5 305.1 167 167 167
289.9 -765.5 305.1 167 167 167
292.2 -753.4 300.3 167 167 167
299.2 -753.4 300.3 167 167 167
306.2 -753.4 300.3 164 164 164
313.2 -753.4 300.3 164 164 164
320.2 -753.4 300.3 164 164 164
327.1 -753.4 300.3 162 162 162
339.5 -765.5 305.1 162 162 162
341.1 -753.4 300.3 162 162 162
348.1 -753.4 300.3 162 162 162
355.0 -753.4 300.3 162 162 162
362.0 -753.4 300.3 162 162 162
369.0 -753.4 300.3 162 162 162
376.0 -753.4 300.3 162 162 162
383.0 -753.4 300.3 160 160 160
396.2 -765.5 305.1 160 160 160
106.8 -177.8 70.8 156 159 158
108.5 -177.8 70.8 156 159 158
110.5 -178.4 71.1 156 159 158
112.6 -179.1 71.4 154 156 156
113.8 -178.4 71.1 154 156 156
53.0 -75.3 30.0 157 160 159
53.6 -75.2 30.0 158 161 160
54.3 -75.3 30.0 158 161 160
55.0 -75.3 30.0 159 162 161
55.8 -75.5 30.1 159 162 161
69.0 -50.1 20.0 98 100 100
69.3 -49.9 19.9 95 98 97
69.5 -49.7 19.8 95 95 95
70.5 -50.1 20.0 92 92 92
70.8 -50.0 19.9 92 92 92
71.2 -50.0 19.9 92 92 92
71.6 -49.9 19.9 92 92 92
72.1 -49.9 19.9 134 134 134
72.7 -50.0 19.9 175 175 175
229.4 -746.4 300.3 166 166 166
257.3 -746.4 300.3 166 166 166
264.3 -746.4 300.3 166 166 166
275.7 -758.4 305.1 167 167 167
285.3 -746.4 300.3 167 167 167
287.7 -734.7 295.6 164 164 164
306.2 -746.4 300.3 164 164 164
308.3 -734.7 295.6 164 164 164
315.1 -734.7 295.6 162 162 162
332.4 -758.4 305.1 162 162 162
339.5 -758.4 305.1 162 162 162
335.8 -734.7 295.6 162 162 162
342.6 -734.7 295.6 162 162 162
355.0 -746.4 300.3 162 162 162
356.4 -734.7 295.6 162 162 162
370.1 -734.7 295.6 162 162 162
377.0 -734.7 295.6 163 163 163
472.4 -904.3 363.8 163 163 163
425.3 -723.4 291.0 161 161 161
109.7 -180.9 72.8 161 161 161
114.9 -186.6 75.1 161 161 161
114.0 -182.3 73.3 156 159 158
115.7 -182.3 73.3 157 160 159
117.8 -183.0 73.6 157 160 159
119.5 -183.0 73.6 163 163 163
53.5 -75.5 30.4 157 160 159
54.2 -75.4 30.3 158 161 160
55.1 -75.7 30.5 158 161 160
56.1 -76.1 30.6 159 162 161
57.4 -76.8 30.9 159 162 161
124.9 -94.8 38.1 105 105 105
118.6 -89.4 36.0 104 103 101
61.4 -40.8 16.4 148 148 148
49.6 -188.6 76.6 165 165 165
51.4 -188.6 76.6 165 165 165
53.2 -188.6 76.6 166 166 166
55.0 -188.6 76.6 166 166 166
56.7 -188.6 76.6 168 170 169
58.5 -188.6 76.6 166 166 166
60.1 -187.8 76.3 166 166 166
61.8 -187.8 76.3 166 166 166
63.6 -187.8 76.3 166 166 166
65.6 -188.6 76.6 166 166 166
67.4 -188.6 76.6 166 166 166
69.2 -188.6 76.6 167 167 167
71.0 -188.6 76.6 167 167 167
72.8 -188.6 76.6 164 164 164
74.5 -188.6 76.6 164 164 164
76.9 -190.1 77.2 164 164 164
77.8 -187.8 76.3 164 164 164
78.9 -186.3 75.7 164 164 164
81.7 -188.6 76.6 164 164 164
83.4 -188.6 76.6 165 165 165
85.9 -190.1 77.2 162 162 162
87.7 -190.1 77.2 159 159 159
88.8 -188.6 76.6 162 162 162
90.6 -188.6 76.6 162 162 162
91.6 -187.1 76.0 162 162 162
91.9 -184.1 74.8 162 162 162
94.0 -184.8 75.1 160 160 160
97.7 -188.6 76.6 160 160 160
99.9 -189.4 76.9 163 163 163
111.1 -193.3 78.5 163 163 163
107.5 -184.1 74.8 164 164 164
349.9 -589.6 239.4 164 164 164
116.0 -192.5 78.2 164 164 164
112.7 -184.1 74.8 161 161 161
121.2 -194.9 79.1 161 161 161
116.2 -184.1 74.8 161 161 161
118.0 -184.1 74.8 162 162 162
122.6 -188.6 76.6 162 162 162
119.5 -181.3 73.6 163 163 163
54.8 -76.5 31.1 160 163 162
55.3 -76.2 31.0 158 161 160
56.4 -76.7 31.2 158 161 160
67.1 -85.8 34.8 160 163 162
65.2 -82.3 33.4 159 159 159
120.5 -90.6 36.8 98 100 100
111.6 -83.3 33.8 104 103 101
108.9 -80.7 32.8 104 103 101
87.1 -63.3 25.7 98 100 100
83.8 -60.4 24.5 98 100 100
57.9 -39.6 16.1 95 95 95
58.2 -39.5 16.1 190 190 190
59.2 -40.0 16.2 159 159 159
59.1 -39.7 16.1 205 205 205
59.1 -39.4 16.0 193 193 193
60.2 -39.9 16.2 205 205 205
60.2 -39.6 16.1 162 165 164
59.6 -39.0 15.8 161 161 161
44.7 -151.8 62.2 166 169 168
53.3 -151.8 62.2 166 166 166
50.5 -139.8 57.3 166 166 166
51.8 -139.8 57.3 167 167 167
53.1 -139.8 57.3 164 164 164
54.6 -140.3 57.5 164 164 164
55.5 -139.0 57.0 164 164 164
61.8 -151.3 62.0 164 164 164
63.7 -152.3 62.4 164 164 164
60.0 -140.3 57.5 164 164 164
65.9 -150.8 61.8 164 164 164
63.0 -141.1 57.8 165 165 165
63.0 -138.2 56.6 168 168 168
64.9 -139.4 57.1 165 165 165
67.7 -142.4 58.4 165 165 165
69.0 -142.4 58.4 165 165 165
70.4 -142.4 58.4 165 165 165
70.2 -139.4 57.1 165 165 165
75.7 -147.4 60.4 166 166 166
78.1 -149.3 61.2 166 166 166
74.9 -140.7 57.7 163 163 163
78.1 -144.2 59.1 163 163 163
78.1 -141.5 58.0 163 163 163
94.9 -163.6 67.1 163 163 163
88.9 -150.8 61.8 164 164 164
575.9 -961.3 394.1 164 164 164
55.7 -87.4 35.8 164 164 164
121.3 -187.6 76.9 165 165 165
126.7 -193.1 79.1 165 165 165
115.1 -172.8 70.8 166 166 166
106.4 -157.5 64.6 166 166 166
56.4 -78.1 32.0 160 163 162
56.9 -77.7 31.8 160 163 162
58.2 -78.5 32.2 158 161 160
63.7 -84.8 34.8 159 162 161
64.6 -84.8 34.8 159 162 161
65.4 -84.8 34.8 159 162 161
68.2 -86.4 35.4 160 163 162
67.7 -84.7 34.7 161 164 163
108.3 -80.1 32.8 104 103 101
103.7 -76.1 31.2 104 103 101
88.5 -64.1 26.3 98 100 100
83.8 -60.3 24.7 98 100 100
81.6 -58.3 23.9 98 100 100
56.4 -38.5 15.8 92 92 92
56.9 -38.5 15.8 90 90 90
57.4 -38.7 15.9 196 199 198
58.5 -38.9 15.9 196 199 198
58.5 -38.6 15.8 195 195 195
59.4 -39.0 16.0 196 199 198
59.1 -38.5 15.8 208 208 208
58.3 -37.8 15.5 211 211 211
48.7 -123.9 51.3 164 164 164
52.9 -122.5 50.7 164 164 164
52.3 -118.4 49.0 162 162 162
58.9 -122.9 50.9 165 165 165
58.2 -119.0 49.3 162 162 162
59.4 -119.0 49.3 165 165 165
62.7 -123.2 51.0 165 165 165
61.2 -118.1 48.9 166 166 166
60.6 -114.8 47.5 166 166 166
71.4 -130.6 54.0 166 166 166
71.7 -128.7 53.3 166 166 166
67.2 -118.7 49.1 166 166 166
74.9 -125.9 52.1 164 164 164
53.2 -84.0 34.8 164 164 164
54.0 -83.9 34.7 164 164 164
53.8 -82.3 34.1 168 168 168
125.1 -188.9 78.2 165 165 165
119.1 -177.1 73.3 168 168 168
103.9 -152.3 63.1 166 166 166
59.3 -81.2 33.6 168 168 168
59.9 -81.0 33.5 168 168 168
60.6 -80.9 33.5 161 164 163
62.0 -81.8 33.8 161 164 163
63.9 -83.1 34.4 162 165 164
64.4 -82.8 34.3 162 165 164
67.1 -84.2 34.8 160 163 162
66.2 -82.1 34.0 161 164 163
109.2 -80.0 33.1 104 103 101
100.7 -73.2 30.3 98 100 100
96.0 -69.4 28.7 98 100 100
83.6 -59.6 24.7 98 100 100
78.8 -55.8 23.1 95 98 97
55.5 -37.5 15.5 90 90 90
57.8 -37.4 15.5 179 182 181
57.1 -36.7 15.2 206 206 206
55.7 -35.5 14.7 182 185 184
34.2 -104.1 43.5 168 170 169
35.3 -104.3 43.6 166 166 166
36.3 -104.3 43.6 166 166 166
37.0 -103.3 43.2 166 166 166
38.7 -105.3 44.0 166 166 166
42.5 -104.5 43.7 167 167 167
43.9 -105.5 44.1 167 167 167
45.7 -104.8 43.8 167 167 167
46.7 -104.8 43.8 164 164 164
46.6 -102.4 42.8 168 168 168
50.8 -104.8 43.8 168 168 168
51.8 -104.8 43.8 168 168 168
52.4 -104.1 43.5 168 168 168
53.4 -104.1 43.5 168 168 168
54.2 -103.6 43.3 168 168 168
54.5 -102.2 42.7 169 169 169
55.1 -101.5 42.4 170 172 172
61.0 -108.5 45.4 170 172 172
62.2 -108.8 45.5 170 172 172
413.0 -665.6 278.2 170 171 170
52.4 -80.7 33.7 170 171 170
52.2 -79.1 33.1 172 174 174
128.3 -191.8 80.2 172 172 172
119.1 -175.4 73.3 172 174 174
104.2 -151.4 63.3 173 173 173
188.8 -252.9 105.7 172 172 172
60.1 -78.4 32.8 169 169 169
62.7 -80.8 33.8 167 167 167
63.7 -81.1 33.9 167 167 167
40.1 -50.5 21.1 167 167 167
40.1 -49.8 20.8 163 166 165
97.5 -70.3 29.4 104 103 101
92.3 -66.1 27.6 98 100 100
86.8 -61.7 25.8 98 100 100
82.9 -58.5 24.4 98 100 100
58.7 -39.8 16.6 92 92 92
52.9 -34.1 14.2 188 188 188
52.0 -33.3 13.9 179 182 181
54.4 -34.4 14.4 218 218 218
53.2 -33.4 14.0 218 218 218
53.3 -33.3 13.9 218 218 218
18.3 -78.0 32.9 166 169 168
19.1 -78.1 33.0 166 169 168
19.8 -78.1 33.0 166 169 168
20.6 -78.1 33.0 166 169 168
21.4 -78.1 33.0 166 169 168
22.1 -78.1 33.0 166 169 168
22.9 -78.1 33.0 166 169 168
23.6 -78.1 33.0 166 166 166
24.4 -78.1 33.0 166 166 166
25.2 -78.1 33.0 166 166 166
25.9 -78.1 33.0 168 170 169
26.8 -78.2 33.0 168 170 169
27.6 -78.4 33.1 168 170 169
28.3 -78.2 33.0 168 170 169
29.1 -78.2 33.0 168 170 169
29.8 -78.2 33.0 168 170 169
30.6 -78.4 33.1 168 170 169
31.4 -78.2 33.0 169 171 170
32.1 -78.1 33.0 169 171 170
32.9 -78.2 33.0 169 171 170
33.7 -78.4 33.1 169 171 170
34.4 -78.2 33.0 169 171 170
35.2 -78.2 33.0 169 171 170
36.0 -78.2 33.0 169 171 170
36.9 -78.5 33.1 169 171 170
37.3 -77.8 32.8 169 171 170
38.1 -78.0 32.9 169 171 170
39.2 -78.6 33.2 169 171 170
39.8 -78.2 33.0 172 174 174
40.6 -78.4 33.1 170 172 172
41.5 -78.5 33.1 177 177 177
42.0 -78.1 33.0 170 172 172
42.7 -78.0 32.9 170 172 172
43.4 -77.8 32.8 173 175 175
412.6 -669.0 282.3 171 173 173
346.7 -553.4 233.5 174 176 176
52.2 -79.6 33.6 171 173 173
52.4 -78.6 33.2 172 174 174
52.4 -77.5 32.7 172 174 174
53.2 -77.7 32.8 175 177 177
95.2 -135.0 57.0 173 173 173
52.5 -70.5 29.7 175 177 177
191.0 -253.2 106.9 175 175 175
59.6 -77.0 32.5 175 175 175
40.0 -49.8 21.0 170 171 170
40.0 -49.2 20.8 172 172 172
84.6 -59.5 25.1 98 100 100
78.9 -55.1 23.3 98 100 100
57.9 -38.8 16.4 92 92 92
56.1 -37.4 15.8 92 92 92
52.4 -32.6 13.8 218 218 218
51.4 -31.8 13.4 218 218 218
17.4 -76.9 32.8 168 170 169
18.1 -76.7 32.7 166 169 168
18.9 -76.8 32.7 166 169 168
19.7 -76.9 32.8 166 169 168
21.2 -76.9 32.8 166 169 168
22.0 -76.9 32.8 166 169 168
22.8 -76.9 32.8 166 169 168
23.5 -76.9 32.8 166 169 168
24.3 -76.9 32.8 168 170 169
25.0 -76.9 32.8 168 170 169
25.8 -76.9 32.8 168 170 169
26.6 -76.9 32.8 168 170 169
27.4 -77.1 32.8 170 172 172
28.1 -76.9 32.8 170 172 172
28.9 -76.9 32.8 168 170 169
29.6 -76.9 32.8 171 173 173
30.4 -77.1 32.8 171 173 173
31.1 -76.9 32.8 171 173 173
31.9 -76.8 32.7 169 171 170
32.7 -77.1 32.8 171 173 173
33.5 -77.1 32.8 171 173 173
34.3 -77.1 32.8 171 173 173
35.0 -76.9 32.8 177 177 177
36.5 -77.1 32.8 172 174 174
37.1 -76.7 32.7 172 174 174
37.9 -76.8 32.7 172 174 174
38.9 -77.2 32.9 177 177 177
39.5 -76.9 32.8 177 177 177
40.3 -76.9 32.8 177 177 177
41.1 -77.1 32.8 180 180 180
41.7 -76.8 32.7 178 178 178
42.5 -76.8 32.7 178 178 178
43.2 -76.7 32.7 180 180 180
44.2 -77.1 32.8 178 178 178
45.0 -77.2 32.9 178 178 178
45.9 -77.5 33.0 180 180 180
46.7 -77.5 33.0 178 178 178
47.4 -77.3 33.0 183 183 183
47.9 -76.9 32.8 179 179 179
200.9 -312.6 133.2 181 181 181
179.9 -275.7 117.5 179 179 179
51.4 -77.6 33.1 181 181 181
51.9 -77.2 32.9 180 180 180
52.3 -76.7 32.7 180 180 180
53.0 -76.5 32.6 180 180 180
53.8 -76.7 32.7 181 181 181
28.7 -39.2 16.7 177 180 179
28.4 -38.3 16.3 182 182 182
52.5 -69.9 29.8 182 182 182
53.3 -70.0 29.8 175 177 177
55.8 -71.5 30.5 176 179 178
54.8 -69.2 29.5 176 179 178
40.0 -49.3 21.0 177 180 179
57.9 -38.5 16.4 95 98 97
55.5 -36.7 15.6 95 95 95
55.5 -36.4 15.5 95 98 97
36.5 -74.6 32.1 194 194 194
38.6 -75.8 32.6 194 194 194
38.8 -74.7 32.2 194 194 194
39.1 -74.0 31.8 194 194 194
41.1 -74.9 32.2 197 197 197
41.1 -73.5 31.6 204 204 204
41.1 -72.3 31.1 200 200 200
42.7 -73.7 31.7 200 200 200
43.9 -74.5 32.1 200 200 200
45.6 -76.2 32.8 200 200 200
46.1 -75.8 32.6 197 197 197
46.7 -75.5 32.5 200 200 200
46.5 -73.9 31.8 204 204 204
47.3 -74.0 31.8 204 204 204
154.9 -235.0 101.2 200 200 200
51.0 -76.3 32.8 200 200 200
51.1 -75.2 32.4 202 202 202
51.5 -74.7 32.2 202 202 202
52.4 -75.0 32.3 202 202 202
53.5 -75.5 32.5 199 199 199
147.7 -205.3 88.4 199 199 199
27.8 -37.1 16.0 200 200 200
27.7 -36.4 15.7 204 204 204
56.9 -72.2 31.1 205 205 205
55.7 -69.6 30.0 203 203 203
54.9 -35.6 15.3 95 98 97
20.3 -69.7 30.3 196 196 196
21.0 -69.5 30.2 194 194 194
21.7 -69.6 30.3 196 196 196
22.4 -69.6 30.3 196 196 196
23.1 -69.6 30.3 196 196 196
23.8 -69.6 30.3 199 199 199
24.5 -69.6 30.3 199 199 199
25.2 -69.5 30.2 205 205 205
25.9 -69.6 30.3 203 203 203
26.6 -69.5 30.2 199 199 199
27.2 -69.3 30.1 203 203 203
36.7 -70.1 30.5 204 204 204
37.0 -69.3 30.1 204 204 204
37.8 -69.5 30.2 204 204 204
38.7 -69.7 30.3 204 204 204
39.4 -69.8 30.4 204 204 204
39.9 -69.5 30.2 204 204 204
40.5 -69.3 30.1 204 204 204
41.6 -69.9 30.4 204 204 204
44.5 -72.3 31.4 204 204 204
43.9 -70.3 30.6 204 204 204
44.3 -69.7 30.3 204 204 204
44.7 -69.3 30.1 204 204 204
154.1 -231.4 100.6 204 204 204
139.3 -206.2 89.7 204 204 204
50.6 -72.7 31.6 205 205 205
51.8 -73.4 31.9 205 205 205
143.0 -196.9 85.6 206 206 206
138.7 -188.3 81.9 206 206 206
27.0 -34.8 15.1 207 207 207
58.5 -73.4 31.9 205 205 205
55.7 -68.9 30.0 208 208 208
39.2 -24.1 10.5 196 199 198
39.2 -24.0 10.4 178 178 178
39.2 -23.8 10.4 175 175 175
39.9 -24.1 10.5 215 215 215
-6.6 -23.8 10.5 138 138 138
18.6 -70.4 30.9 203 203 203
19.4 -70.6 31.0 203 203 203
20.1 -70.6 31.0 203 203 203
20.7 -70.3 30.9 203 203 203
22.2 -70.4 30.9 203 203 203
22.9 -70.4 30.9 203 203 203
23.6 -70.4 30.9 203 203 203
24.4 -70.5 31.0 203 203 203
25.1 -70.4 30.9 203 203 203
25.8 -70.4 30.9 203 203 203
26.5 -70.5 31.0 203 203 203
27.2 -70.4 30.9 203 203 203
36.8 -70.9 31.2 204 204 204
37.3 -70.5 31.0 204 204 204
38.6 -70.3 30.9 206 206 206
39.4 -70.4 30.9 206 206 206
40.2 -70.5 31.0 206 206 206
40.4 -69.6 30.6 206 206 206
42.5 -70.7 31.1 206 206 206
44.9 -72.3 31.7 206 206 206
44.7 -70.8 31.1 206 206 206
45.2 -70.4 30.9 206 206 206
45.1 -69.1 30.4 206 206 206
50.2 -72.4 31.8 205 205 205
50.7 -72.1 31.7 205 205 205
51.8 -72.6 31.9 205 205 205
137.3 -189.7 83.3 205 205 205
138.0 -188.1 82.6 206 206 206
134.6 -180.9 79.5 206 206 206
27.7 -36.8 16.2 206 206 206
27.7 -36.3 15.9 207 207 207
27.4 -35.4 15.6 207 207 207
27.1 -34.5 15.2 207 207 207
56.5 -69.2 30.4 208 208 208
38.5 -23.1 10.2 193 193 193
38.5 -23.0 10.1 218 218 218
20.2 -70.1 31.1 205 205 205
20.8 -69.8 31.0 205 205 205
27.3 -69.9 31.0 205 205 205
27.4 -68.3 30.3 205 205 205
37.4 -69.9 31.0 206 206 206
37.4 -68.5 30.4 206 206 206
38.7 -69.6 30.9 206 206 206
39.3 -69.4 30.8 206 206 206
40.3 -69.9 31.0 206 206 206
40.2 -68.5 30.4 206 206 206
40.8 -68.3 30.3 206 206 206
42.6 -70.1 31.1 206 206 206
45.2 -72.0 32.0 206 206 206
45.0 -70.6 31.3 206 206 206
45.3 -69.9 31.0 206 206 206
44.9 -68.2 30.3 206 206 206
45.0 -67.2 29.8 206 206 206
45.9 -67.6 30.0 206 206 206
50.3 -71.9 31.9 207 207 207
50.9 -71.6 31.8 207 207 207
51.9 -72.0 32.0 207 207 207
53.5 -73.1 32.4 207 207 207
27.4 -35.0 15.5 207 207 207
27.1 -34.2 15.2 207 207 207
26.3 -66.5 29.8 208 208 208
26.9 -66.3 29.7 208 208 208
36.6 -67.6 30.3 205 205 205
36.4 -66.0 29.6 205 205 205
39.2 -67.3 30.2 211 211 211
39.4 -66.4 29.8 208 208 208
39.8 -65.9 29.6 208 208 208
41.6 -67.8 30.4 208 208 208
43.9 -68.2 30.6 209 209 209
44.0 -67.2 30.1 206 206 206
44.1 -66.2 29.7 206 206 206
44.2 -65.3 29.3 206 206 206
44.8 -65.2 29.2 206 206 206
49.6 -70.1 31.4 209 209 209
50.4 -70.2 31.5 206 206 206
52.2 -71.7 32.2 207 207 207
53.7 -72.7 32.6 207 207 207
27.2 -34.4 15.4 207 207 207
27.1 -33.9 15.2 207 207 207
27.4 -33.8 15.1 207 207 207
33.6 -59.3 26.9 208 208 208
34.0 -58.9 26.7 208 208 208
34.7 -59.0 26.7 208 208 208
35.7 -59.6 27.0 208 208 208
36.1 -59.2 26.8 208 208 208
42.8 -65.7 29.8 208 208 208
43.1 -65.1 29.5 208 208 208
43.4 -64.5 29.2 208 208 208
42.5 -62.2 28.2 205 205 205
41.9 -60.3 27.3 205 205 205
42.0 -59.6 27.0 205 205 205
28.1 -35.6 16.1 208 208 208
27.4 -34.3 15.5 208 208 208
27.1 -33.5 15.2 206 206 206
27.2 -33.1 15.0 207 207 207
-12.2 -21.9 10.0 138 140 139
33.6 -57.6 26.4 207 207 207
34.3 -57.6 26.4 207 207 207
42.3 -64.2 29.4 207 207 207
42.8 -63.9 29.3 207 207 207
43.0 -63.3 29.0 207 207 207
43.2 -62.6 28.7 208 208 208
42.2 -60.1 27.5 208 208 208
28.2 -35.9 16.4 207 207 207
28.1 -35.2 16.1 207 207 207
27.8 -34.5 15.8 207 207 207
27.1 -33.1 15.2 208 208 208
27.2 -32.8 15.0 208 208 208
-12.2 -21.8 10.1 132 132 132
42.5 -62.8 29.1 207 207 207
42.8 -62.3 28.8 207 207 207
43.0 -61.6 28.5 207 207 207
42.9 -60.5 28.0 207 207 207
43.2 -60.0 27.8 207 207 207
28.2 -35.0 16.2 206 206 206
27.9 -34.1 15.8 207 207 207
27.2 -32.9 15.2 207 207 207
-20.1 -23.6 11.0 107 107 107
-12.2 -21.4 10.0 129 129 129
-10.3 -23.6 11.1 131 134 133
-9.8 -23.6 11.1 138 140 139
-9.5 -23.6 11.1 140 139 138
-9.3 -23.7 11.1 140 140 140
-9.0 -23.6 11.1 140 142 141
-8.8 -23.6 11.1 140 142 141
-8.5 -23.6 11.1 140 142 141
-7.8 -23.7 11.1 141 141 141
-7.5 -23.6 11.0 142 144 143
-6.5 -23.6 11.1 157 157 157
-5.7 -23.6 11.0 165 165 165
-5.2 -23.7 11.1 164 167 166
-4.9 -23.6 11.1 164 167 166
-4.7 -23.7 11.1 163 166 165
-4.4 -23.6 11.1 172 172 172
-4.1 -23.6 11.1 169 169 169
-3.9 -23.7 11.1 168 168 168
-3.6 -23.6 11.1 170 171 170
-3.4 -23.7 11.1 171 173 173
-2.6 -23.6 11.1 171 173 173
-2.4 -23.7 11.1 173 175 175
-2.1 -23.7 11.1 173 175 175
-1.8 -23.6 11.1 177 177 177
-1.6 -23.6 11.1 177 177 177
-1.3 -23.7 11.1 177 177 177
-1.1 -23.7 11.1 177 177 177
-0.8 -23.6 11.0 177 177 177
-0.5 -23.6 11.0 177 177 177
-0.3 -23.6 11.0 179 179 179
-0.0 -23.6 11.0 176 176 176
0.5 -23.6 11.1 176 176 176
0.7 -23.6 11.0 179 179 179
1.0 -23.7 11.1 181 181 181
1.3 -23.6 11.0 181 181 181
1.5 -23.6 11.1 178 178 178
1.8 -23.6 11.1 181 181 181
2.5 -23.7 11.1 183 183 183
2.8 -23.7 11.1 182 182 182
3.3 -23.7 11.1 182 182 182
6.9 -23.7 11.1 209 209 209
7.2 -23.6 11.1 209 209 209
7.4 -23.7 11.1 209 209 209
8.5 -23.7 11.1 209 209 209
9.2 -23.7 11.1 209 209 209
10.5 -23.7 11.1 209 209 209
10.7 -23.6 11.0 209 209 209
11.0 -23.6 11.1 209 209 209
42.3 -61.9 29.0 206 206 206
42.7 -61.5 28.8 206 206 206
42.9 -60.8 28.4 206 206 206
43.2 -60.2 28.2 206 206 206
43.8 -60.2 28.1 207 207 207
27.7 -33.6 15.7 206 206 206
27.3 -32.6 15.3 206 206 206
27.2 -32.1 15.0 207 207 207
-31.7 -23.8 11.3 47 48 47
-31.4 -23.8 11.3 50 50 50
-31.1 -23.8 11.2 47 48 47
-31.0 -23.8 11.3 50 50 50
-30.7 -23.8 11.3 50 50 50
-30.4 -23.8 11.2 50 50 50
-30.2 -23.8 11.3 47 48 47
-29.9 -23.8 11.3 47 48 47
-28.4 -23.9 11.3 47 48 47
-28.0 -23.8 11.2 46 46 44
-27.7 -23.8 11.2 42 43 42
-27.5 -23.8 11.3 42 43 42
-27.2 -23.8 11.3 46 46 44
-23.9 -23.8 11.3 43 43 43
-23.5 -23.7 11.2 42 42 42
-23.3 -23.7 11.2 43 43 43
-23.1 -23.8 11.3 43 43 43
-22.8 -23.8 11.2 47 48 47
-22.5 -23.7 11.2 47 48 47
-22.3 -23.9 11.3 49 49 49
-21.1 -23.9 11.3 97 100 99
-20.7 -23.8 11.3 97 100 99
-20.3 -23.6 11.2 102 102 102
-16.3 -23.8 11.3 116 116 116
-11.0 -23.8 11.3 126 129 128
-10.8 -23.8 11.3 132 132 132
-10.5 -23.8 11.3 132 135 134
-10.2 -23.6 11.2 134 134 134
-9.9 -23.6 11.2 135 135 135
-9.6 -23.6 11.2 134 137 136
-9.4 -23.7 11.2 138 137 136
-9.2 -23.7 11.2 139 139 139
-8.9 -23.8 11.3 140 142 141
-7.9 -23.8 11.2 144 146 146
-7.6 -23.6 11.2 148 148 148
-6.1 -23.9 11.3 168 170 169
-5.8 -23.8 11.2 168 170 169
-5.3 -23.7 11.2 172 172 172
-5.0 -23.8 11.2 176 176 176
-4.7 -23.8 11.3 174 176 176
-4.5 -23.8 11.2 173 175 175
-4.0 -23.8 11.3 174 176 176
-2.6 -23.7 11.2 182 182 182
-2.4 -23.8 11.2 182 182 182
-2.1 -23.8 11.2 182 182 182
-1.9 -23.8 11.3 182 182 182
-1.6 -23.8 11.2 182 182 182
-1.3 -23.7 11.2 182 182 182
-1.1 -23.7 11.2 179 179 179
-0.8 -23.7 11.2 181 181 181
-0.6 -23.7 11.2 181 181 181
-0.3 -23.7 11.2 181 181 181
-0.0 -23.7 11.2 181 181 181
0.5 -23.7 11.2 181 181 181
0.7 -23.6 11.2 180 180 180
1.0 -23.7 11.2 180 180 180
1.3 -23.7 11.2 180 180 180
1.5 -23.7 11.2 180 180 180
1.8 -23.8 11.3 182 182 182
6.0 -23.8 11.3 209 209 209
6.2 -23.8 11.2 209 209 209
6.5 -23.7 11.2 209 209 209
6.8 -23.8 11.3 208 208 208
7.0 -23.7 11.2 208 208 208
7.3 -23.7 11.2 208 208 208
7.5 -23.8 11.2 208 208 208
7.8 -23.8 11.3 208 208 208
8.4 -23.8 11.3 209 209 209
8.6 -23.8 11.2 209 209 209
8.8 -23.8 11.2 209 209 209
9.1 -23.8 11.2 209 209 209
9.4 -23.8 11.2 209 209 209
9.6 -23.7 11.2 209 209 209
10.5 -23.9 11.3 209 209 209
10.7 -23.8 11.3 209 209 209
10.9 -23.8 11.2 209 209 209
11.2 -23.7 11.2 209 209 209
11.4 -23.7 11.2 209 209 209
12.7 -23.7 11.2 209 209 209
42.3 -61.2 29.0 209 209 209
42.7 -60.9 28.8 206 206 206
43.0 -60.3 28.5 206 206 206
43.2 -59.7 28.2 206 206 206
43.8 -59.5 28.1 206 206 206
27.3 -32.3 15.3 206 206 206
27.4 -32.0 15.1 206 206 206
-30.5 -23.6 11.3 48 48 48
-30.2 -23.6 11.3 48 48 48
-27.3 -23.6 11.3 47 46 45
-23.9 -23.6 11.3 42 43 42
-23.6 -23.6 11.3 37 38 37
-23.4 -23.6 11.3 40 40 40
-23.1 -23.6 11.3 40 40 40
-22.9 -23.6 11.3 42 43 42
-22.6 -23.6 11.3 44 44 44
-20.8 -23.7 11.3 92 92 92
-20.3 -23.4 11.2 90 92 91
-20.1 -23.5 11.2 97 97 97
-18.9 -23.6 11.3 103 103 103
-16.3 -23.5 11.3 111 113 112
-15.9 -23.4 11.2 115 114 114
-11.1 -23.6 11.3 121 120 119
-10.3 -23.6 11.3 123 125 124
-9.9 -23.4 11.2 128 128 128
-9.6 -23.4 11.2 128 130 129
-9.4 -23.5 11.3 129 129 129
-9.2 -23.5 11.2 132 135 134
-9.0 -23.6 11.3 138 140 139
-7.9 -23.6 11.3 153 153 153
-7.6 -23.5 11.3 154 156 156
-1.1 -23.5 11.3 182 182 182
-0.8 -23.5 11.2 182 182 182
-0.6 -23.5 11.3 182 182 182
-0.3 -23.5 11.2 180 180 180
0.5 -23.5 11.3 182 182 182
0.8 -23.5 11.3 182 182 182
1.0 -23.5 11.3 182 182 182
1.3 -23.5 11.2 181 181 181
1.5 -23.6 11.3 181 181 181
6.0 -23.7 11.3 208 208 208
6.5 -23.5 11.3 208 208 208
6.8 -23.6 11.3 208 208 208
7.0 -23.6 11.3 208 208 208
7.3 -23.6 11.3 208 208 208
7.6 -23.6 11.3 208 208 208
8.6 -23.6 11.3 208 208 208
8.9 -23.6 11.3 208 208 208
9.2 -23.6 11.3 208 208 208
9.4 -23.6 11.3 208 208 208
9.7 -23.6 11.3 208 208 208
10.8 -23.7 11.3 208 208 208
11.0 -23.6 11.3 208 208 208
11.2 -23.6 11.3 208 208 208
11.5 -23.6 11.3 208 208 208
12.1 -23.7 11.3 208 208 208
12.8 -23.6 11.3 208 208 208
13.1 -23.6 11.3 208 208 208
13.6 -23.6 11.3 208 208 208
42.3 -60.5 28.9 208 208 208
42.6 -59.9 28.7 208 208 208
42.8 -59.3 28.4 208 208 208
43.1 -58.9 28.1 208 208 208
43.4 -58.3 27.9 206 206 206
46.5 -61.6 29.5 206 206 206
27.2 -31.8 15.2 207 207 207
27.2 -31.4 15.0 205 205 205
27.0 -30.8 14.7 206 206 206
-30.5 -22.4 10.8 49 49 49
-30.3 -22.5 10.9 52 52 52
-30.1 -22.5 10.9 52 52 52
-29.8 -22.5 10.9 52 52 52
-29.6 -22.5 10.9 52 52 52
-29.3 -22.5 10.9 54 54 54
-29.1 -22.5 10.9 54 54 54
-23.0 -22.5 10.9 41 41 41
-22.8 -22.5 10.9 41 41 41
-22.5 -22.5 10.9 43 43 43
-22.3 -22.5 10.9 41 41 41
-22.1 -22.5 10.9 41 41 41
-21.8 -22.5 10.9 43 43 43
-20.1 -22.6 10.9 66 66 66
-19.8 -22.5 10.9 88 88 88
-19.4 -22.4 10.8 91 93 92
-15.1 -29.8 14.4 111 113 112
-14.4 -29.1 14.1 110 112 111
-14.0 -28.9 14.0 115 114 114
-10.7 -23.6 11.4 111 111 111
-9.8 -23.5 11.3 110 110 110
-9.5 -23.5 11.4 111 111 111
-9.3 -23.4 11.3 117 119 118
-9.0 -23.5 11.4 140 142 141
-8.8 -23.6 11.4 167 167 167
-8.0 -23.5 11.4 163 166 165
-1.4 -23.5 11.4 185 185 185
-1.1 -23.5 11.4 184 184 184
-0.6 -23.5 11.4 184 184 184
0.5 -23.5 11.4 184 184 184
1.0 -23.5 11.3 184 184 184
1.6 -23.5 11.4 184 184 184
1.8 -23.5 11.4 184 184 184
5.8 -23.7 11.5 208 208 208
6.1 -23.5 11.4 208 208 208
6.3 -23.6 11.4 208 208 208
6.6 -23.5 11.4 208 208 208
6.8 -23.5 11.4 208 208 208
7.1 -23.5 11.4 208 208 208
7.4 -23.5 11.4 208 208 208
7.6 -23.5 11.4 208 208 208
7.9 -23.5 11.4 208 208 208
8.2 -23.5 11.4 208 208 208
8.4 -23.5 11.4 208 208 208
8.7 -23.5 11.4 208 208 208
9.0 -23.5 11.4 208 208 208
9.2 -23.5 11.4 208 208 208
9.5 -23.5 11.4 208 208 208
9.7 -23.5 11.4 208 208 208
10.0 -23.6 11.4 208 208 208
10.3 -23.6 11.4 208 208 208
10.6 -23.7 11.5 208 208 208
10.8 -23.6 11.4 208 208 208
11.1 -23.5 11.4 208 208 208
11.3 -23.5 11.4 208 208 208
11.6 -23.5 11.4 208 208 208
11.9 -23.5 11.4 208 208 208
12.1 -23.5 11.4 208 208 208
12.5 -23.7 11.4 208 208 208
12.7 -23.6 11.4 208 208 208
12.9 -23.5 11.4 208 208 208
13.2 -23.5 11.4 208 208 208
13.7 -23.5 11.4 208 208 208
14.0 -23.6 11.4 208 208 208
42.5 -61.1 29.6 208 208 208
42.2 -59.7 28.9 208 208 208
42.5 -59.2 28.6 208 208 208
42.8 -58.7 28.4 208 208 208
43.2 -58.3 28.2 208 208 208
43.5 -57.9 28.0 208 208 208
46.0 -60.3 29.1 208 208 208
27.3 -31.6 15.3 207 207 207
27.5 -31.4 15.2 207 207 207
27.4 -30.9 15.0 205 205 205
28.0 -31.1 15.1 205 205 205
28.2 -31.1 15.0 205 205 205
-22.8 -22.0 10.8 44 44 44
-22.6 -22.1 10.8 44 44 44
-22.4 -22.1 10.8 44 44 44
-22.2 -22.1 10.8 44 44 44
-21.7 -22.2 10.8 42 42 42
-19.3 -22.0 10.7 45 45 45
-14.9 -29.7 14.5 100 100 100
-14.6 -29.7 14.5 90 90 90
7.0 -24.7 12.1 207 207 207
13.0 -31.1 15.2 207 207 207
13.4 -31.1 15.2 207 207 207
12.0 -24.7 12.1 207 207 207
17.3 -31.1 15.2 207 207 207
17.6 -31.0 15.2 207 207 207
15.0 -24.9 12.2 207 207 207
42.5 -59.4 29.1 207 207 207
42.7 -58.8 28.7 207 207 207
43.2 -58.5 28.6 207 207 207
43.8 -58.5 28.6 207 207 207
44.3 -58.3 28.5 207 207 207
46.7 -60.5 29.6 208 208 208
27.4 -31.4 15.4 206 206 206
27.7 -31.3 15.3 206 206 206
27.8 -31.0 15.2 207 207 207
28.3 -31.2 15.3 207 207 207
-43.5 -31.3 15.5 55 55 55
-43.3 -31.4 15.5 55 55 55
-43.0 -31.4 15.5 53 52 52
-42.6 -31.3 15.5 53 52 52
-42.3 -31.4 15.5 55 55 55
-42.0 -31.4 15.5 55 55 55
-41.6 -31.4 15.5 55 55 55
-41.2 -31.4 15.5 57 58 56
-40.8 -31.4 15.5 57 58 56
-40.4 -31.4 15.5 58 59 57
-40.1 -31.4 15.5 58 59 57
-39.8 -31.4 15.5 55 55 55
-39.2 -31.3 15.5 55 55 55
-38.9 -31.3 15.5 56 56 56
-38.5 -31.3 15.5 56 56 56
-38.2 -31.3 15.5 53 53 53
-36.5 -31.4 15.5 46 46 46
-36.2 -31.4 15.5 46 46 46
-35.8 -31.4 15.5 47 47 47
-35.4 -31.4 15.5 47 47 47
-35.1 -31.4 15.5 47 47 47
-34.7 -31.4 15.5 47 47 47
-34.3 -31.4 15.5 47 47 47
-33.9 -31.3 15.5 47 47 47
-33.6 -31.4 15.5 47 47 47
-33.1 -31.3 15.5 47 47 47
-32.8 -31.3 15.5 47 47 47
-32.5 -31.4 15.5 47 47 47
-32.2 -31.4 15.5 45 45 45
-31.7 -31.3 15.5 47 47 47
-31.4 -31.3 15.5 46 46 46
-30.9 -31.2 15.5 46 46 46
-30.7 -31.3 15.5 43 43 43
-27.8 -31.3 15.5 44 44 44
-15.5 -31.3 15.5 34 34 34
-15.2 -31.3 15.5 29 30 28
-14.8 -31.2 15.4 29 30 28
-14.4 -31.3 15.5 26 26 26
5.3 -24.6 12.1 170 171 170
5.6 -24.4 12.1 204 204 204
5.8 -24.3 12.0 207 207 207
6.7 -24.6 12.2 207 207 207
7.0 -24.4 12.1 207 207 207
7.3 -24.4 12.1 207 207 207
7.5 -24.4 12.1 207 207 207
7.8 -24.4 12.1 207 207 207
8.1 -24.4 12.1 207 207 207
8.4 -24.4 12.1 207 207 207
8.7 -24.4 12.1 207 207 207
8.9 -24.4 12.1 210 210 210
9.2 -24.4 12.1 211 211 211
9.5 -24.4 12.1 207 207 207
9.8 -24.4 12.1 207 207 207
10.1 -24.4 12.1 209 209 209
10.3 -24.4 12.1 209 209 209
10.9 -24.4 12.1 207 207 207
11.2 -24.4 12.1 207 207 207
11.5 -24.4 12.1 207 207 207
11.7 -24.4 12.1 207 207 207
12.0 -24.4 12.1 207 207 207
12.3 -24.4 12.1 207 207 207
12.6 -24.4 12.1 207 207 207
12.9 -24.4 12.1 207 207 207
13.1 -24.4 12.1 207 207 207
13.4 -24.3 12.0 207 207 207
17.5 -31.1 15.4 207 207 207
14.6 -24.5 12.1 207 207 207
14.9 -24.5 12.1 207 207 207
15.2 -24.5 12.1 207 207 207
15.4 -24.4 12.1 207 207 207
15.7 -24.4 12.1 207 207 207
15.9 -24.4 12.1 207 207 207
16.5 -24.4 12.1 207 207 207
17.1 -24.4 12.1 207 207 207
42.9 -59.3 29.3 207 207 207
42.6 -58.0 28.7 207 207 207
43.0 -57.7 28.5 207 207 207
44.0 -58.0 28.7 207 207 207
44.1 -57.4 28.4 207 207 207
47.4 -60.7 30.0 207 207 207
48.5 -61.3 30.3 207 207 207
49.2 -61.3 30.3 207 207 207
27.5 -31.1 15.4 206 206 206
28.5 -31.0 15.3 206 206 206
-44.3 -31.4 15.7 56 56 56
-44.4 -31.8 15.9 56 56 56
-44.1 -31.8 15.9 56 56 56
-43.9 -31.9 16.0 53 53 53
-43.5 -31.9 16.0 58 59 57
-42.9 -31.8 15.9 56 56 56
-42.6 -31.8 15.9 56 56 56
-42.1 -31.7 15.9 61 61 61
-42.0 -31.9 16.0 58 59 57
-41.5 -31.8 15.9 58 59 57
-41.2 -31.9 15.9 56 56 56
-40.7 -31.8 15.9 56 56 56
-40.3 -31.8 15.9 56 56 56
-39.9 -31.7 15.9 54 54 54
-39.4 -31.6 15.8 54 54 54
-39.3 -31.8 15.9 57 57 57
-38.7 -31.9 16.0 52 52 52
-38.3 -31.9 16.0 47 47 47
-37.9 -31.9 16.0 47 47 47
-37.6 -31.9 16.0 47 47 47
-37.0 -31.8 15.9 47 47 47
-36.7 -31.9 15.9 47 48 47
-36.4 -31.9 16.0 47 48 47
-35.9 -31.8 15.9 47 48 47
-35.6 -31.8 15.9 47 48 47
-35.1 -31.7 15.9 47 48 47
-34.7 -31.6 15.8 47 48 47
-34.4 -31.8 15.9 47 48 47
-34.0 -31.8 15.9 47 48 47
-33.6 -31.7 15.9 47 48 47
-33.3 -31.8 15.9 46 46 46
-33.0 -31.8 15.9 47 47 47
-32.6 -31.8 15.9 43 43 43
-32.2 -31.8 15.9 47 47 47
-31.7 -31.7 15.9 44 44 44
-31.7 -32.0 16.0 44 44 44
-31.2 -31.9 16.0 44 44 44
-30.9 -31.9 16.0 40 40 40
-29.7 -31.9 15.9 41 41 41
-29.3 -31.8 15.9 43 43 43
-28.9 -31.8 15.9 45 45 45
-28.2 -31.4 15.7 43 43 43
-26.9 -32.1 16.0 52 52 50
-16.5 -31.4 15.7 26 26 26
-15.8 -31.4 15.7 26 26 26
-15.3 -31.2 15.6 26 26 26
-15.2 -31.7 15.9 27 27 27
-14.9 -31.8 15.9 29 30 28
5.6 -24.3 12.2 203 203 203
5.9 -24.3 12.1 206 206 206
6.8 -24.5 12.3 209 209 209
7.0 -24.3 12.2 209 209 209
7.3 -24.3 12.2 209 209 209
7.6 -24.3 12.2 206 206 206
7.9 -24.4 12.2 206 206 206
8.7 -24.3 12.2 206 206 206
9.0 -24.3 12.2 206 206 206
9.3 -24.3 12.2 209 209 209
9.6 -24.3 12.2 209 209 209
9.9 -24.4 12.2 209 209 209
10.8 -24.4 12.2 206 206 206
11.0 -24.4 12.2 206 206 206
11.3 -24.3 12.2 209 209 209
11.6 -24.3 12.2 206 206 206
11.9 -24.3 12.2 206 206 206
12.1 -24.3 12.2 206 206 206
12.4 -24.4 12.2 206 206 206
12.7 -24.4 12.2 206 206 206
13.0 -24.4 12.2 206 206 206
13.3 -24.3 12.2 206 206 206
13.5 -24.3 12.2 206 206 206
14.7 -24.4 12.2 206 206 206
15.0 -24.4 12.2 206 206 206
15.3 -24.4 12.2 206 206 206
15.5 -24.3 12.1 206 206 206
15.8 -24.3 12.2 206 206 206
16.7 -24.3 12.2 206 206 206
17.2 -24.3 12.2 206 206 206
17.6 -24.4 12.2 206 206 206
42.3 -57.9 29.0 206 206 206
42.6 -57.3 28.7 206 206 206
43.0 -56.9 28.5 206 206 206
44.0 -57.3 28.7 206 206 206
44.2 -56.8 28.4 206 206 206
47.3 -59.9 30.0 207 207 207
48.5 -60.5 30.3 207 207 207
49.0 -60.3 30.2 207 207 207
27.5 -30.7 15.4 208 208 208
27.7 -30.6 15.3 205 205 205
-35.2 -24.7 12.5 56 56 56
-44.8 -31.7 16.0 56 56 56
-44.4 -31.7 16.0 57 57 57
-44.1 -31.7 16.0 57 57 57
-43.8 -31.8 16.1 59 60 58
-43.3 -31.7 16.1 59 60 58
-42.9 -31.7 16.0 59 60 58
-42.5 -31.7 16.0 59 60 58
-42.2 -31.7 16.0 59 60 58
-41.5 -31.7 16.1 62 62 62
-41.1 -31.7 16.0 59 60 58
-40.7 -31.7 16.0 59 61 59
-40.3 -31.7 16.0 55 55 55
-39.9 -31.6 16.0 55 55 55
-39.5 -31.6 16.0 55 55 55
-39.2 -31.7 16.0 53 52 52
-38.8 -31.7 16.0 53 52 52
-37.3 -31.7 16.0 47 48 47
-36.9 -31.6 16.0 52 52 50
-36.6 -31.7 16.0 48 48 48
-36.3 -31.7 16.1 48 48 48
-35.8 -31.7 16.0 52 52 50
-35.4 -31.7 16.0 48 48 48
-35.1 -31.7 16.0 48 48 48
-34.7 -31.7 16.0 48 48 48
-34.4 -31.7 16.0 48 48 48
-34.0 -31.7 16.0 48 48 48
-33.6 -31.7 16.0 49 49 49
-33.2 -31.7 16.0 47 48 47
-32.9 -31.7 16.0 47 48 47
-32.5 -31.7 16.0 49 49 49
-32.1 -31.7 16.0 45 45 45
-31.8 -31.7 16.1 45 45 45
-30.0 -31.8 16.1 42 42 42
-29.6 -31.8 16.1 42 42 42
-29.1 -31.7 16.0 42 42 42
-28.7 -31.6 16.0 41 40 38
-26.9 -31.7 16.0 45 45 45
-16.8 -31.5 16.0 27 27 27
-16.4 -31.7 16.0 26 26 26
-16.0 -31.5 16.0 29 31 29
-10.7 -24.4 12.3 31 31 31
-10.4 -24.4 12.4 34 34 34
-10.2 -24.7 12.5 38 38 38
-9.9 -24.7 12.5 156 156 156
-9.6 -24.7 12.5 182 182 182
-9.4 -24.8 12.6 188 190 190
-9.0 -24.6 12.5 184 187 186
5.2 -24.8 12.6 180 180 180
5.5 -24.7 12.5 172 172 172
5.7 -24.5 12.4 203 203 203
6.0 -24.5 12.4 206 206 206
6.7 -24.7 12.5 209 209 209
6.9 -24.6 12.4 209 209 209
7.2 -24.5 12.4 209 209 209
7.5 -24.6 12.4 211 211 211
7.8 -24.6 12.4 209 209 209
8.1 -24.7 12.5 211 211 211
9.0 -24.7 12.5 209 209 209
9.2 -24.6 12.5 209 209 209
9.5 -24.7 12.5 209 209 209
9.8 -24.6 12.4 209 209 209
10.1 -24.7 12.5 209 209 209
10.7 -24.7 12.5 209 209 209
11.0 -24.7 12.5 208 208 208
11.3 -24.7 12.5 206 206 206
11.5 -24.6 12.5 208 208 208
11.8 -24.6 12.5 206 206 206
12.2 -24.7 12.5 206 206 206
12.5 -24.8 12.5 206 206 206
12.8 -24.8 12.5 206 206 206
13.0 -24.7 12.5 206 206 206
13.3 -24.6 12.5 206 206 206
13.5 -24.6 12.4 206 206 206
14.8 -24.8 12.6 208 208 208
15.1 -24.7 12.5 206 206 206
15.4 -24.8 12.6 206 206 206
15.6 -24.6 12.5 208 208 208
15.9 -24.6 12.4 206 206 206
16.2 -24.6 12.5 206 206 206
17.2 -24.8 12.5 206 206 206
17.4 -24.7 12.5 206 206 206
17.7 -24.6 12.5 206 206 206
17.9 -24.6 12.4 206 206 206
42.2 -57.0 28.9 206 206 206
42.6 -56.6 28.7 206 206 206
42.6 -55.7 28.2 206 206 206
43.9 -56.6 28.7 206 206 206
43.9 -55.7 28.2 206 206 206
47.1 -56.4 28.6 206 206 206
48.2 -56.9 28.8 207 207 207
48.2 -56.2 28.4 207 207 207
27.6 -30.1 15.2 205 205 205
27.8 -30.0 15.2 205 205 205
-35.4 -24.5 12.6 57 57 57
-35.1 -24.6 12.6 57 57 57
-34.9 -24.6 12.6 59 61 59
-34.6 -24.6 12.6 59 61 59
-34.3 -24.6 12.6 59 61 59
-33.9 -24.5 12.6 59 61 59
-33.7 -24.6 12.6 59 61 59
-33.4 -24.6 12.6 59 61 59
-33.1 -24.6 12.6 59 61 59
-32.9 -24.6 12.6 59 61 59
-32.6 -24.6 12.6 59 61 59
-32.2 -24.6 12.6 59 61 59
-31.9 -24.5 12.6 59 61 59
-31.6 -24.5 12.6 56 56 56
-31.5 -24.7 12.6 56 56 56
-31.1 -24.6 12.6 56 56 56
-30.8 -24.6 12.6 53 53 53
-30.5 -24.6 12.6 53 53 53
-30.2 -24.6 12.6 52 52 50
-29.9 -24.6 12.6 52 52 50
-29.6 -24.6 12.6 52 52 50
-29.3 -24.6 12.6 49 49 49
-29.0 -24.6 12.6 53 52 51
-28.7 -24.6 12.6 54 54 54
-28.4 -24.6 12.6 53 52 51
-28.1 -24.6 12.6 49 49 49
-27.8 -24.6 12.6 49 49 49
-27.5 -24.5 12.6 49 49 49
-27.2 -24.6 12.6 49 49 49
-27.0 -24.6 12.6 49 49 49
-26.7 -24.6 12.6 50 50 50
-26.3 -24.5 12.6 50 50 50
-26.1 -24.5 12.6 50 50 50
-25.7 -24.5 12.6 48 48 48
-25.5 -24.5 12.6 48 48 48
-25.2 -24.6 12.6 50 50 50
-25.0 -24.6 12.6 49 49 49
-24.7 -24.6 12.6 46 46 46
-24.5 -24.7 12.7 47 47 47
-24.1 -24.6 12.6 45 45 45
-23.7 -24.5 12.6 45 45 45
-22.9 -24.6 12.6 41 41 39
-22.6 -24.6 12.6 42 42 40
-22.4 -24.7 12.7 42 42 40
-22.0 -24.6 12.6 40 40 40
-21.7 -24.5 12.6 42 42 40
-21.3 -24.5 12.5 43 42 41
-20.2 -24.6 12.6 39 41 41
-16.2 -30.9 15.8 30 31 30
-15.8 -30.7 15.7 30 31 30
-11.1 -24.4 12.5 32 32 32
-10.6 -24.0 12.3 33 33 33
-10.5 -24.4 12.5 35 37 36
-10.3 -24.5 12.6 38 38 36
-10.0 -24.5 12.6 159 159 159
-9.7 -24.6 12.6 186 186 186
-9.5 -24.7 12.7 184 187 186
5.3 -24.7 12.7 182 182 182
5.5 -24.6 12.6 179 179 179
6.4 -24.6 12.6 208 208 208
6.7 -24.6 12.6 208 208 208
7.6 -24.5 12.6 208 208 208
8.2 -24.6 12.6 208 208 208
8.5 -24.6 12.6 208 208 208
8.7 -24.6 12.6 208 208 208
9.0 -24.6 12.6 208 208 208
9.3 -24.6 12.6 208 208 208
9.6 -24.6 12.6 208 208 208
9.9 -24.5 12.6 208 208 208
10.2 -24.5 12.6 208 208 208
10.5 -24.5 12.6 208 208 208
10.8 -24.6 12.6 208 208 208
11.1 -24.6 12.6 208 208 208
11.4 -24.6 12.6 208 208 208
11.7 -24.6 12.6 208 208 208
11.9 -24.5 12.6 208 208 208
12.2 -24.5 12.6 205 205 205
12.6 -24.6 12.6 205 205 205
12.9 -24.6 12.6 205 205 205
13.1 -24.6 12.6 205 205 205
13.4 -24.5 12.6 205 205 205
13.7 -24.5 12.6 205 205 205
14.0 -24.5 12.6 205 205 205
14.3 -24.5 12.6 208 208 208
14.6 -24.6 12.6 208 208 208
14.9 -24.6 12.6 208 208 208
15.2 -24.6 12.6 208 208 208
15.5 -24.7 12.6 208 208 208
15.7 -24.5 12.6 208 208 208
17.3 -24.6 12.6 205 205 205
17.6 -24.6 12.6 202 202 202
17.8 -24.5 12.6 205 205 205
18.1 -24.5 12.6 207 207 207
18.5 -24.7 12.7 207 207 207
18.8 -24.7 12.7 205 205 205
44.2 -56.3 28.8 205 205 205
44.1 -55.3 28.4 205 205 205
49.2 -59.1 30.3 206 206 206
48.8 -57.0 29.2 206 206 206
48.7 -56.1 28.7 206 206 206
27.6 -29.8 15.3 204 204 204
27.8 -29.6 15.2 204 204 204
-33.7 -24.1 12.5 60 62 60
-32.8 -24.1 12.5 60 62 60
-31.3 -24.0 12.5 58 59 59
-29.7 -24.1 12.5 53 52 51
-28.8 -24.1 12.5 54 53 52
-28.2 -24.1 12.5 50 50 50
-28.0 -24.2 12.5 50 50 50
-27.7 -24.2 12.5 50 50 50
-27.3 -24.1 12.5 50 50 50
-26.6 -24.2 12.5 51 51 51
-26.2 -24.1 12.5 51 51 51
-25.9 -24.1 12.5 51 51 51
-25.6 -24.1 12.5 49 49 49
-25.3 -24.1 12.5 49 49 49
-21.2 -24.0 12.5 41 41 41
-11.0 -24.0 12.4 29 31 29
-10.6 -23.7 12.3 31 30 29
-10.4 -23.9 12.4 35 37 36
-10.3 -24.2 12.6 47 47 47
-10.0 -24.2 12.6 166 169 168
9.8 -24.1 12.5 208 208 208
11.9 -24.1 12.5 208 208 208
12.2 -24.2 12.5 205 205 205
12.5 -24.2 12.6 205 205 205
12.8 -24.2 12.6 205 205 205
13.1 -24.2 12.5 205 205 205
13.4 -24.2 12.5 205 205 205
13.6 -24.0 12.5 205 205 205
13.9 -24.1 12.5 207 207 207
14.8 -24.2 12.6 207 207 207
15.1 -24.2 12.5 207 207 207
15.5 -24.3 12.6 207 207 207
15.7 -23.8 12.3 207 207 207
17.5 -24.2 12.6 205 205 205
17.7 -24.1 12.5 207 207 207
17.9 -23.9 12.4 207 207 207
18.6 -24.2 12.6 207 207 207
44.8 -55.5 28.8 205 205 205
50.2 -60.5 31.4 205 205 205
49.2 -58.4 30.3 207 207 207
49.4 -57.0 29.6 205 205 205
50.0 -56.9 29.5 206 206 206
27.7 -29.5 15.3 203 203 203
27.9 -29.4 15.2 204 204 204
26.0 -25.2 13.0 205 205 205
29.0 -27.7 14.4 205 205 205
-35.3 -23.9 12.6 60 62 60
-35.1 -23.9 12.6 58 59 59
-34.8 -23.9 12.6 60 62 60
-34.5 -23.9 12.6 60 62 60
-34.2 -23.9 12.6 60 62 60
-33.9 -23.9 12.6 61 63 61
-33.6 -23.9 12.6 61 63 61
-33.3 -23.9 12.6 65 65 65
-32.5 -24.0 12.6 59 59 59
-32.2 -23.9 12.6 59 59 59
-31.9 -23.9 12.6 61 63 61
-31.0 -24.0 12.6 59 59 59
-30.7 -23.9 12.6 58 58 58
-30.4 -23.9 12.6 55 55 55
-30.1 -23.9 12.6 55 55 55
-29.8 -23.9 12.6 54 53 52
-29.5 -23.9 12.6 54 53 52
-29.2 -23.9 12.6 56 56 56
-28.9 -23.9 12.6 55 54 53
-28.7 -23.9 12.6 51 51 51
-28.3 -23.9 12.6 55 54 53
-28.0 -23.9 12.6 51 51 51
-27.8 -23.9 12.6 51 51 51
-27.5 -23.9 12.6 51 51 51
-26.9 -24.0 12.6 52 52 52
-26.6 -24.0 12.6 52 52 52
-26.3 -23.9 12.6 52 52 52
-26.0 -23.9 12.6 52 52 52
-25.7 -23.9 12.6 52 52 52
-25.4 -23.9 12.6 51 51 51
-24.0 -24.0 12.6 47 47 47
-23.7 -23.9 12.6 47 47 47
-21.9 -23.9 12.6 44 43 42
-21.6 -23.9 12.6 46 46 46
-12.0 -24.0 12.6 30 31 30
-10.0 -21.0 11.0 27 27 27
-11.1 -23.9 12.5 29 31 29
-10.8 -23.8 12.5 32 31 30
-10.5 -23.9 12.5 36 36 36
-10.3 -24.0 12.6 44 44 44
-10.0 -24.7 13.0 184 187 186
9.6 -23.9 12.6 207 207 207
9.9 -23.9 12.6 207 207 207
11.1 -24.0 12.6 207 207 207
11.4 -24.0 12.6 207 207 207
11.6 -23.9 12.6 207 207 207
11.9 -23.9 12.6 207 207 207
12.2 -23.9 12.6 207 207 207
12.5 -24.0 12.6 207 207 207
12.8 -24.0 12.6 204 204 204
13.1 -23.9 12.6 204 204 204
13.4 -23.9 12.6 204 204 204
13.7 -23.9 12.6 207 207 207
15.2 -23.9 12.6 207 207 207
15.5 -24.0 12.6 207 207 207
15.7 -23.9 12.6 207 207 207
17.5 -24.0 12.6 207 207 207
17.8 -23.9 12.6 207 207 207
18.0 -23.9 12.5 207 207 207
18.7 -24.0 12.6 206 206 206
44.8 -54.9 28.8 207 207 207
50.8 -60.5 31.7 207 207 207
49.5 -58.0 30.5 207 207 207
49.5 -56.4 29.6 205 205 205
50.1 -56.4 29.6 205 205 205
26.3 -25.1 13.2 207 207 207
-12.9 -24.7 13.1 28 28 28
-10.0 -20.8 11.0 51 50 48
-11.1 -24.1 12.8 65 67 66
-10.7 -23.9 12.7 35 35 35
-10.6 -24.5 13.0 46 46 46
-10.5 -24.8 13.2 185 185 185
-10.1 -24.7 13.1 183 186 185
51.2 -60.1 32.0 206 206 206
51.5 -58.8 31.3 207 207 207
49.5 -55.8 29.6 207 207 207
50.3 -55.9 29.7 207 207 207
54.0 -59.1 31.4 207 207 207
26.3 -24.8 13.2 203 203 203
27.0 -25.2 13.4 203 203 203
27.1 -25.0 13.3 204 204 204
-30.6 -24.2 13.0 56 55 54
-30.3 -24.2 13.0 58 58 58
-29.3 -24.4 13.1 57 56 55
-27.7 -24.3 13.1 53 53 53
-27.4 -24.3 13.1 53 53 53
-27.2 -24.4 13.1 54 54 54
-26.8 -24.3 13.1 54 54 54
-24.8 -24.1 13.0 49 49 49
-12.8 -19.2 10.4 23 23 23
-11.4 -24.0 12.9 27 27 27
-11.2 -24.0 12.9 91 91 91
-10.8 -23.9 12.9 29 31 29
-10.6 -24.1 13.0 49 49 49
-10.4 -24.4 13.1 182 182 182
-10.1 -24.3 13.1 182 185 184
-9.7 -24.1 13.0 188 188 188
50.8 -59.0 31.7 206 206 206
50.4 -57.7 31.1 206 206 206
51.0 -57.5 31.0 206 206 206
49.6 -55.2 29.7 206 206 206
50.3 -55.2 29.7 206 206 206
53.0 -57.3 30.9 207 207 207
78.2 -81.4 43.8 204 204 204
56.3 -57.8 31.1 204 204 204
55.6 -56.3 30.3 205 205 205
26.9 -24.5 13.2 203 203 203
-37.0 -24.1 13.1 62 64 61
-36.7 -24.1 13.1 66 66 66
-36.4 -24.1 13.1 67 67 67
-36.1 -24.1 13.1 67 67 67
-35.8 -24.1 13.1 67 67 67
-35.5 -24.2 13.2 67 67 67
-35.2 -24.1 13.2 67 67 67
-34.9 -24.1 13.1 67 67 67
-34.2 -24.1 13.1 67 67 67
-34.0 -24.1 13.1 67 67 67
-33.6 -24.1 13.1 67 67 67
-32.9 -24.3 13.2 62 62 62
-32.4 -24.1 13.1 62 62 62
-32.1 -24.1 13.1 63 63 63
-31.8 -24.1 13.1 63 63 63
-31.5 -24.1 13.1 58 58 58
-31.2 -24.1 13.2 58 58 58
-30.9 -24.1 13.1 58 59 59
-30.6 -24.1 13.1 58 59 59
-30.3 -24.1 13.1 58 59 59
-30.0 -24.1 13.1 57 57 55
-29.7 -24.1 13.2 57 57 55
-29.4 -24.1 13.2 57 57 55
-29.0 -24.1 13.1 58 58 56
-28.8 -24.1 13.1 58 58 56
-28.5 -24.2 13.2 58 58 56
-28.2 -24.2 13.2 58 58 56
-27.9 -24.1 13.2 54 54 54
-27.6 -24.2 13.2 55 55 55
-27.3 -24.1 13.2 55 55 55
-26.9 -24.1 13.1 55 55 55
-26.0 -24.4 13.3 54 54 54
-25.0 -24.1 13.1 52 52 52
-24.8 -24.1 13.1 50 50 50
-13.0 -24.3 13.2 29 29 29
-12.5 -23.9 13.0 34 33 32
-10.0 -20.3 11.0 39 41 41
-11.5 -23.8 13.0 50 50 50
-10.9 -23.8 13.0 30 31 30
-10.7 -24.1 13.1 50 50 50
-10.4 -24.1 13.1 183 186 185
-10.1 -24.1 13.1 182 185 184
50.8 -58.2 31.7 205 205 205
50.9 -57.5 31.3 206 206 206
51.3 -57.2 31.2 206 206 206
50.2 -55.2 30.1 206 206 206
50.9 -55.1 30.0 206 206 206
53.0 -56.6 30.9 206 206 206
53.4 -56.3 30.7 206 206 206
54.2 -56.4 30.8 206 206 206
57.4 -58.2 31.7 207 207 207
55.8 -55.8 30.4 204 204 204
373.3 -200.6 109.3 176 176 176
105.9 -54.0 29.4 167 167 167
-37.1 -23.9 13.2 67 67 67
-36.8 -23.9 13.2 67 67 67
-36.5 -23.9 13.2 67 67 67
-36.2 -23.9 13.2 67 67 67
-35.9 -23.9 13.2 67 67 67
-35.6 -23.9 13.2 69 71 69
-35.3 -23.9 13.2 67 67 67
-35.0 -23.9 13.2 67 67 67
-34.7 -23.9 13.2 67 67 67
-34.4 -23.9 13.2 68 68 68
-34.0 -23.9 13.2 68 68 68
-33.7 -23.9 13.2 68 68 68
-33.5 -23.9 13.2 65 66 64
-33.3 -24.0 13.2 63 63 63
-32.9 -23.9 13.2 63 63 63
-32.4 -23.8 13.2 63 63 63
-32.2 -23.9 13.2 64 64 64
-31.9 -23.9 13.2 61 61 61
-31.6 -23.9 13.2 61 61 61
-31.4 -23.9 13.2 57 57 55
-31.0 -23.9 13.2 59 59 59
-30.7 -23.9 13.2 65 65 65
-30.4 -23.9 13.2 59 59 59
-30.1 -23.9 13.2 58 58 56
-29.8 -23.9 13.2 58 58 56
-29.5 -23.9 13.2 59 59 59
-29.1 -23.9 13.2 60 60 60
-28.3 -23.9 13.2 60 60 60
-28.0 -23.9 13.2 59 59 57
-27.7 -24.0 13.2 60 59 58
-27.4 -23.9 13.2 56 56 56
-27.0 -23.9 13.2 56 56 56
-26.6 -23.8 13.2 57 57 57
-26.5 -23.9 13.2 57 57 57
-26.2 -24.0 13.2 57 57 57
-25.9 -24.0 13.3 57 57 57
-25.5 -23.9 13.2 53 52 52
-13.0 -24.0 13.2 33 34 32
-10.0 -20.0 11.0 113 114 113
-11.0 -23.7 13.1 52 52 52
-10.7 -23.8 13.1 52 52 52
-10.4 -23.9 13.2 182 185 184
-10.1 -23.8 13.1 181 184 183
-9.8 -23.8 13.1 179 182 181
51.2 -57.9 32.0 205 205 205
51.6 -57.6 31.8 205 205 205
52.8 -58.1 32.1 205 205 205
51.6 -56.0 30.9 205 205 205
51.8 -55.5 30.6 205 205 205
53.5 -56.5 31.2 206 206 206
54.1 -56.3 31.1 206 206 206
55.2 -56.7 31.3 206 206 206
57.4 -56.7 31.3 206 206 206
433.4 -231.6 127.8 177 180 179
379.9 -201.6 111.3 177 180 179
112.4 -56.9 31.4 170 171 170
106.1 -53.4 29.5 166 166 166
-37.4 -23.8 13.3 67 67 67
-25.1 -18.9 10.6 65 65 65
-24.7 -18.8 10.5 60 60 60
-24.4 -18.7 10.5 60 60 60
-27.3 -23.8 13.3 57 57 57
-15.1 -20.7 11.6 19 19 19
-13.0 -23.8 13.3 31 31 31
-10.0 -19.7 11.0 38 38 38
-10.9 -23.9 13.4 53 53 53
-10.5 -23.8 13.3 184 187 186
-10.2 -23.7 13.3 180 183 182
51.4 -57.4 32.1 205 205 205
51.9 -57.1 32.0 205 205 205
53.6 -58.2 32.6 205 205 205
52.8 -56.6 31.6 205 205 205
53.4 -56.4 31.5 205 205 205
54.1 -56.4 31.5 205 205 205
54.3 -55.8 31.2 205 205 205
55.3 -56.1 31.4 205 205 205
59.9 -59.1 33.1 206 206 206
57.8 -56.4 31.5 206 206 206
436.3 -230.1 128.7 177 180 179
389.0 -203.8 114.0 177 180 179
113.3 -56.7 31.7 169 169 169
1118.9 -528.6 295.6 119 119 119
-38.8 -24.3 13.8 68 68 68
-34.3 -24.3 13.8 67 68 66
-24.6 -18.5 10.5 63 63 63
-11.0 -17.7 10.0 35 36 34
-13.3 -23.9 13.5 45 45 45
-10.2 -18.8 10.6 94 93 92
-10.0 -19.5 11.0 111 113 112
-11.1 -23.9 13.6 54 54 54
-10.7 -23.9 13.6 183 186 185
-10.4 -24.0 13.6 179 182 181
-10.4 -24.6 13.9 178 181 180
51.6 -56.9 32.2 206 206 206
51.9 -56.4 32.0 206 206 206
53.8 -57.7 32.7 206 206 206
53.9 -56.2 31.8 207 207 207
54.4 -55.9 31.7 207 207 207
54.3 -55.1 31.2 207 207 207
55.0 -55.1 31.2 205 205 205
451.8 -236.8 134.2 177 180 179
448.5 -233.5 132.3 177 180 179
401.1 -207.4 117.5 175 175 175
115.8 -57.2 32.4 169 169 169
106.2 -52.1 29.5 169 169 169
96.7 -47.1 26.7 162 165 164
-39.1 -24.2 13.9 68 68 68
-39.0 -24.3 14.0 71 72 70
-38.6 -24.3 14.0 71 72 70
-38.2 -24.3 13.9 71 72 70
-38.0 -24.3 14.0 71 72 70
-37.6 -24.3 13.9 71 72 70
-36.7 -24.3 14.0 72 73 71
-36.4 -24.3 14.0 72 73 71
-36.1 -24.3 14.0 70 70 70
-35.7 -24.3 13.9 73 74 72
-35.4 -24.3 13.9 73 74 72
-35.0 -24.3 13.9 73 74 72
-34.7 -24.3 13.9 71 71 71
-34.4 -24.3 14.0 72 72 72
-34.1 -24.3 14.0 68 70 68
-33.8 -24.4 14.0 67 67 67
-33.7 -24.5 14.0 67 67 67
-33.3 -24.4 14.0 67 67 67
-32.8 -24.3 13.9 64 64 64
-32.4 -24.3 13.9 65 65 65
-32.2 -24.3 14.0 65 65 65
-31.8 -24.3 14.0 65 65 65
-31.5 -24.3 13.9 65 65 65
-10.2 -18.6 10.7 33 35 33
-10.0 -19.2 11.0 42 44 43
-10.9 -23.9 13.7 180 183 182
-10.8 -24.4 14.0 179 182 181
-10.4 -24.3 14.0 177 180 179
-10.1 -24.3 14.0 176 179 178
-9.8 -24.3 13.9 216 216 216
9.2 -17.8 10.2 207 207 207
9.4 -17.7 10.2 207 207 207
10.2 -17.8 10.2 206 206 206
10.4 -17.7 10.2 206 206 206
10.6 -17.7 10.2 206 206 206
11.1 -17.7 10.2 206 206 206
14.1 -17.7 10.2 206 206 206
14.7 -17.8 10.2 205 205 205
14.8 -17.7 10.2 205 205 205
51.8 -56.3 32.3 206 206 206
52.0 -55.8 32.0 206 206 206
53.9 -57.0 32.7 206 206 206
54.4 -55.9 32.1 206 206 206
54.9 -55.7 32.0 206 206 206
55.0 -55.0 31.6 206 206 206
56.0 -55.3 31.7 207 207 207
448.6 -232.1 133.2 176 179 178
445.4 -228.8 131.4 177 180 179
373.3 -190.5 109.3 175 175 175
-40.2 -24.5 14.3 69 69 69
-35.5 -24.5 14.2 72 72 72
-35.2 -24.5 14.3 72 72 72
-35.1 -24.7 14.4 72 72 72
-10.1 -19.0 11.1 70 72 69
-11.4 -24.8 14.4 182 185 184
-11.0 -24.6 14.3 178 181 180
-10.6 -24.4 14.2 177 180 179
-10.4 -24.7 14.4 181 181 181
-10.0 -24.6 14.3 207 207 207
9.2 -17.5 10.2 208 211 210
9.4 -17.5 10.2 208 211 210
9.6 -17.4 10.1 206 206 206
10.1 -17.5 10.2 206 206 206
10.4 -17.5 10.2 206 206 206
10.6 -17.5 10.2 206 206 206
10.8 -17.4 10.1 206 206 206
11.1 -17.5 10.2 206 206 206
11.2 -17.4 10.1 203 203 203
12.0 -17.4 10.1 208 211 210
13.1 -17.4 10.1 203 203 203
14.1 -17.5 10.2 203 203 203
14.7 -17.5 10.2 205 205 205
14.8 -17.3 10.1 205 205 205
52.1 -55.1 32.1 205 205 205
54.1 -56.4 32.8 206 206 206
55.1 -55.2 32.1 206 206 206
55.2 -54.6 31.7 206 206 206
56.0 -54.6 31.7 206 206 206
366.9 -184.7 107.5 175 175 175
306.7 -153.4 89.2 175 175 175
-11.6 -24.8 14.6 183 186 185
-11.1 -24.4 14.4 180 183 182
-10.8 -24.4 14.4 178 181 180
-10.5 -24.6 14.5 179 182 181
-10.2 -24.7 14.6 191 191 191
-5.5 -17.4 10.3 205 205 205
9.2 -17.3 10.2 208 211 210
9.4 -17.2 10.2 208 211 210
9.6 -17.2 10.1 208 211 210
10.2 -17.3 10.2 206 206 206
10.4 -17.2 10.2 208 211 210
10.6 -17.3 10.2 206 206 206
11.1 -17.2 10.2 206 206 206
11.3 -17.2 10.1 206 206 206
13.2 -17.2 10.1 205 205 205
13.4 -17.2 10.2 205 205 205
14.3 -17.2 10.1 205 205 205
14.7 -17.3 10.2 205 205 205
14.8 -17.2 10.1 205 205 205
53.1 -55.4 32.7 207 210 209
54.3 -55.9 33.0 207 210 209
63.6 -64.5 38.1 207 210 209
62.8 -62.9 37.1 207 210 209
58.3 -57.6 34.0 207 210 209
55.6 -54.2 32.0 207 210 209
56.3 -54.1 31.9 206 206 206
-6.0 -17.0 10.2 193 193 193
-5.7 -17.1 10.2 192 192 192
-5.5 -17.2 10.3 193 193 193
-5.2 -17.0 10.2 195 195 195
-5.0 -17.0 10.2 194 194 194
9.2 -17.1 10.2 208 211 210
9.4 -17.0 10.2 208 211 210
9.7 -17.0 10.2 208 211 210
10.2 -17.1 10.2 208 211 210
10.4 -17.1 10.2 208 211 210
10.6 -17.1 10.2 207 210 209
13.2 -17.0 10.2 207 210 209
13.5 -17.0 10.2 207 210 209
14.2 -17.0 10.2 206 209 208
14.5 -17.1 10.2 206 209 208
14.7 -17.1 10.2 206 209 208
14.8 -16.9 10.1 206 209 208
55.9 -53.0 31.7 207 210 209
-24.4 -16.8 10.2 72 72 72
-11.0 -16.5 10.0 35 36 34
-5.8 -17.0 10.3 178 178 178
-5.3 -17.0 10.3 182 182 182
13.6 -17.0 10.3 206 209 208
14.3 -17.0 10.3 206 209 208
15.0 -17.2 10.4 206 209 208
68.9 -67.1 40.7 207 210 209
56.4 -52.7 32.0 205 205 205
56.1 -51.7 31.4 207 210 209
-27.7 -18.4 11.3 77 77 77
-27.3 -18.3 11.3 73 74 72
-27.0 -18.3 11.3 84 85 83
-26.7 -18.3 11.3 72 72 72
-18.0 -18.5 11.4 30 30 30
-17.6 -18.3 11.3 30 30 30
-15.0 -18.7 11.5 119 119 119
-11.0 -16.3 10.0 37 37 35
-11.4 -26.5 16.3 156 159 158
56.8 -51.7 31.8 207 210 209
81.7 -38.4 23.6 180 180 180
-28.0 -18.3 11.5 80 80 80
-27.6 -18.3 11.4 106 106 106
-27.3 -18.2 11.4 161 164 163
-26.8 -18.1 11.3 150 152 152
-18.1 -18.3 11.4 30 30 30
-17.7 -18.2 11.4 28 28 28
-15.0 -18.5 11.5 138 138 138
-11.5 -26.3 16.4 158 161 160
55.0 -49.3 30.8 206 209 208
81.2 -37.6 23.5 181 181 181
-24.9 -15.8 10.0 106 106 106
-29.1 -18.6 11.8 148 148 148
-28.9 -18.7 11.8 155 155 155
-24.4 -16.1 10.2 59 59 57
-24.0 -16.0 10.1 75 76 76
-12.3 -16.1 10.2 141 143 142
-12.3 -25.9 16.4 183 183 183
-11.9 -25.9 16.4 180 180 180
-11.5 -25.9 16.4 164 164 164
55.6 -49.1 31.1 206 209 208
56.3 -49.1 31.1 206 209 208
81.7 -37.5 23.8 182 182 182
80.4 -36.7 23.2 182 182 182
79.3 -35.9 22.8 182 182 182
-12.0 -25.9 16.7 179 179 179
-11.5 -25.6 16.5 169 169 169
104.5 -93.4 60.1 208 211 210
57.1 -49.7 32.0 206 209 208
56.8 -48.8 31.4 206 209 208
81.9 -37.1 23.8 183 183 183
80.7 -36.3 23.3 183 183 183
79.4 -35.5 22.8 183 183 183
-12.4 -26.2 17.1 182 182 182
-11.8 -25.9 16.9 174 176 176
111.3 -100.7 65.7 208 211 210
106.8 -95.4 62.2 208 211 210
106.5 -93.8 61.2 208 211 210
109.7 -95.4 62.2 208 211 210
81.5 -36.3 23.7 184 184 184
80.3 -35.6 23.2 184 184 184
79.6 -35.0 22.8 184 184 184
62.6 -26.2 17.1 161 161 161
62.6 -26.0 17.0 156 156 156
-13.3 -28.7 19.0 175 177 177
-12.8 -28.5 18.9 173 173 173
101.8 -89.5 59.3 208 211 210
100.1 -86.8 57.5 208 211 210
102.3 -87.6 58.0 208 211 210
110.5 -93.3 61.8 208 211 210
81.6 -35.8 23.7 185 185 185
80.7 -35.2 23.3 185 185 185
80.1 -34.7 23.0 185 185 185
62.3 -25.6 17.0 159 162 161
62.3 -25.5 16.9 156 156 156
62.6 -25.4 16.8 150 150 150
-13.5 -28.7 19.3 177 180 179
-13.1 -28.9 19.4 173 173 173
15.1 -15.6 10.5 206 209 208
101.5 -87.9 59.1 207 210 209
100.7 -86.0 57.8 207 210 209
102.0 -86.0 57.8 208 211 210
110.1 -91.6 61.6 208 211 210
113.8 -93.4 62.8 208 211 210
82.7 -35.8 24.1 186 186 186
81.0 -34.8 23.4 186 186 186
80.3 -34.2 23.0 186 186 186
61.5 -24.7 16.7 155 155 155
62.1 -24.8 16.7 150 150 150
-14.1 -28.5 19.5 178 178 178
-13.5 -28.3 19.3 178 181 180
-13.3 -28.6 19.6 176 176 176
-12.9 -28.8 19.7 175 175 175
-12.4 -28.8 19.7 172 172 172
14.3 -15.0 10.2 206 209 208
15.1 -15.3 10.5 205 208 207
115.2 -98.1 67.1 207 210 209
109.4 -91.9 62.8 207 210 209
111.2 -92.3 63.1 207 210 209
113.0 -92.6 63.3 207 210 209
117.3 -94.8 64.8 208 211 210
83.7 -35.6 24.3 188 188 188
82.7 -34.7 23.7 188 188 188
61.6 -24.6 16.8 161 161 161
61.2 -24.2 16.6 156 156 156
61.0 -24.0 16.4 148 150 150
64.2 -24.6 16.8 132 132 132
-14.8 -28.5 19.8 200 200 200
-14.3 -28.4 19.7 169 171 170
-13.6 -28.0 19.5 175 175 175
-13.4 -28.5 19.8 178 178 178
-13.1 -28.8 20.0 133 133 133
-12.6 -28.8 20.0 30 29 29
111.6 -92.3 64.1 207 210 209
115.8 -94.6 65.7 207 210 209
116.1 -93.6 65.0 207 210 209
67.7 -45.2 31.4 193 193 193
82.4 -33.8 23.5 189 189 189
62.4 -24.5 17.0 161 161 161
61.7 -24.1 16.7 155 155 155
61.4 -23.8 16.5 149 149 149
65.3 -24.7 17.1 133 132 131
-14.7 -28.8 20.3 165 165 165
-14.1 -28.5 20.1 169 171 170
-13.7 -28.7 20.3 159 162 161
-13.4 -28.9 20.4 138 140 139
-12.9 -29.0 20.5 42 42 42
108.3 -88.1 62.2 206 209 208
115.4 -92.7 65.5 207 210 209
115.8 -91.8 64.8 207 210 209
225.2 -174.0 122.8 207 210 209
68.9 -45.2 31.9 195 195 195
80.8 -32.8 23.2 190 190 190
81.3 -32.8 23.2 190 190 190
82.2 -33.0 23.3 190 190 190
82.4 -32.8 23.2 188 188 188
62.9 -24.3 17.1 159 159 159
62.3 -23.9 16.9 152 154 154
62.2 -23.7 16.7 150 150 150
63.1 -23.9 16.9 142 144 143
66.4 -24.8 17.5 132 135 134
65.6 -24.4 17.2 126 128 127
-14.0 -28.9 20.7 180 180 180
-13.8 -29.4 21.1 174 174 174
-13.2 -29.3 21.0 114 113 112
202.6 -156.0 111.9 207 210 209
239.2 -181.8 130.5 207 210 209
232.6 -174.5 125.3 207 210 209
69.6 -44.9 32.2 195 195 195
81.8 -32.1 23.0 189 189 189
79.2 -30.9 22.2 185 185 185
63.6 -24.1 17.3 157 157 157
62.6 -23.6 17.0 154 156 156
62.8 -23.5 16.9 143 145 144
63.7 -23.7 17.0 139 139 139
66.8 -24.6 17.6 129 132 131
66.2 -24.2 17.4 128 130 129
-14.1 -29.5 21.5 181 181 181
12.3 -13.8 10.0 210 210 210
13.1 -13.8 10.1 209 209 209
14.3 -14.1 10.3 209 209 209
14.3 -13.8 10.1 208 208 208
14.5 -13.8 10.1 208 208 208
15.4 -13.8 10.1 208 208 208
278.4 -210.7 153.8 214 214 214
270.9 -202.5 147.8 214 214 214
302.7 -223.4 163.1 211 211 211
439.0 -301.4 220.0 209 212 211
70.3 -44.6 32.6 195 195 195
79.8 -31.2 22.8 192 192 192
82.3 -31.7 23.2 190 190 190
80.4 -30.8 22.5 186 186 186
77.6 -29.6 21.6 178 181 180
63.5 -23.6 17.2 152 152 152
63.6 -23.5 17.1 138 140 139
64.4 -23.6 17.2 135 135 135
68.1 -24.5 17.9 130 130 130
-73.4 -35.1 26.1 115 115 115
-64.3 -35.1 26.1 175 177 177
-63.7 -35.1 26.1 201 203 203
-63.0 -35.0 26.0 153 153 153
-62.5 -35.1 26.1 105 105 105
-62.0 -35.2 26.1 60 60 60
-60.7 -34.8 25.8 62 62 62
-60.1 -34.8 25.8 39 41 41
-60.0 -35.0 26.0 27 27 27
-59.4 -35.1 26.1 79 81 79
-58.7 -35.0 26.0 90 90 90
-57.4 -34.6 25.7 85 85 85
-57.1 -34.8 25.8 85 85 85
-55.9 -35.1 26.1 95 95 95
-48.5 -35.1 26.1 18 22 19
-44.9 -35.1 26.1 177 177 177
-44.3 -35.1 26.1 183 183 183
-43.7 -35.1 26.1 188 188 188
-43.1 -35.1 26.1 200 202 202
-42.5 -35.1 26.1 204 204 204
-41.9 -35.1 26.1 212 213 212
-41.3 -35.1 26.1 209 209 209
-40.7 -35.1 26.1 208 208 208
-40.0 -35.1 26.1 2 7 3
-39.4 -35.1 26.1 78 80 78
-38.8 -35.1 26.1 42 44 43
-38.2 -35.1 26.1 84 84 84
-37.6 -35.1 26.1 122 122 122
-36.9 -35.0 26.0 102 102 102
-16.5 -35.2 26.2 160 160 160
12.3 -13.5 10.0 210 210 210
13.0 -13.5 10.0 209 209 209
14.2 -13.5 10.0 208 208 208
15.6 -14.0 10.4 207 207 207
306.9 -225.5 167.4 211 211 211
72.3 -45.1 33.5 196 196 196
82.8 -32.7 24.3 193 193 193
82.3 -32.2 23.9 195 198 197
82.0 -31.9 23.7 195 198 197
82.0 -31.7 23.5 195 198 197
82.2 -31.6 23.4 193 193 193
83.5 -31.8 23.6 193 193 193
83.9 -31.8 23.6 188 188 188
83.0 -31.3 23.2 181 184 183
85.3 -31.9 23.7 177 177 177
72.7 -26.0 19.3 132 135 134
-74.5 -35.0 26.5 74 74 74
-74.5 -35.3 26.7 74 74 74
-73.9 -35.3 26.7 29 31 29
-73.3 -35.3 26.7 24 24 24
-72.6 -35.3 26.7 24 24 24
-72.0 -35.3 26.7 26 26 26
-71.4 -35.3 26.7 24 24 24
-70.8 -35.3 26.7 34 34 34
-70.2 -35.3 26.7 86 86 86
-69.5 -35.3 26.7 151 151 151
-68.9 -35.3 26.7 115 114 114
-68.3 -35.3 26.7 53 52 52
-67.7 -35.3 26.7 136 136 136
-67.1 -35.3 26.7 174 174 174
-66.4 -35.3 26.7 203 203 203
-65.8 -35.3 26.7 149 149 149
-65.2 -35.3 26.7 107 107 107
-64.5 -35.3 26.6 168 170 169
-64.0 -35.3 26.7 107 109 109
-63.4 -35.4 26.7 45 45 45
-62.7 -35.3 26.7 49 49 49
-62.0 -35.3 26.6 29 31 29
-61.5 -35.3 26.7 20 23 21
-60.9 -35.3 26.7 25 25 25
-60.1 -35.3 26.6 107 109 109
-59.0 -35.0 26.4 129 129 129
-58.5 -35.0 26.5 80 82 79
-58.3 -35.3 26.6 77 78 76
-57.7 -35.3 26.6 19 23 20
-57.2 -35.4 26.7 23 23 23
-56.5 -35.3 26.7 14 14 14
-55.7 -35.2 26.6 18 22 19
-55.2 -35.3 26.6 18 22 19
-54.7 -35.3 26.7 34 34 34
-54.0 -35.3 26.7 48 48 48
-53.4 -35.3 26.7 53 52 52
-52.8 -35.3 26.7 53 52 52
-52.2 -35.3 26.7 57 57 55
-51.6 -35.3 26.7 58 59 59
-50.9 -35.3 26.7 55 55 55
-50.3 -35.3 26.7 45 44 43
-49.7 -35.3 26.7 19 23 20
-49.1 -35.3 26.7 42 42 42
-48.4 -35.3 26.7 55 55 55
-47.8 -35.3 26.7 61 61 61
-47.2 -35.3 26.7 58 58 56
-46.6 -35.3 26.7 177 177 177
-46.0 -35.3 26.7 184 187 186
-45.3 -35.3 26.7 199 199 199
-44.7 -35.3 26.7 206 206 206
-44.1 -35.3 26.7 206 209 208
-43.5 -35.3 26.7 209 209 209
-42.9 -35.3 26.7 212 213 212
-42.2 -35.3 26.7 202 202 202
-41.6 -35.3 26.7 160 160 160
-41.0 -35.3 26.7 18 22 19
-40.4 -35.3 26.7 25 25 25
-39.8 -35.3 26.7 34 34 34
-39.1 -35.3 26.7 17 17 17
-38.5 -35.3 26.7 25 25 25
-37.8 -35.2 26.6 92 92 92
-37.2 -35.2 26.6 123 123 123
-36.7 -35.3 26.7 34 34 34
-35.7 -35.0 26.4 42 44 43
-17.4 -35.3 26.6 180 180 180
-16.8 -35.3 26.6 158 158 158
-16.2 -35.4 26.7 28 28 28
13.0 -13.3 10.0 209 209 209
14.2 -13.2 10.0 208 208 208
15.5 -13.6 10.3 207 207 207
15.3 -13.3 10.0 209 209 209
312.4 -225.6 170.4 211 211 211
83.9 -32.5 24.6 182 185 184
83.4 -32.1 24.3 180 183 182
83.5 -31.9 24.1 182 185 184
82.9 -31.5 23.8 189 189 189
82.9 -31.3 23.6 182 185 184
84.1 -31.5 23.8 186 186 186
84.5 -31.5 23.8 180 183 182
86.3 -31.9 24.1 179 179 179
87.0 -32.0 24.2 167 167 167
87.0 -31.8 24.0 159 162 161
71.2 -25.4 19.2 134 137 136
73.2 -25.8 19.5 135 135 135
73.4 -25.7 19.4 135 135 135
-76.4 -35.3 27.1 75 76 76
-76.3 -35.5 27.3 67 67 67
-75.7 -35.5 27.3 48 48 48
-73.1 -35.5 27.3 36 37 36
-72.5 -35.5 27.3 124 126 125
-71.9 -35.5 27.3 130 130 130
-71.2 -35.5 27.3 67 67 67
-70.6 -35.5 27.3 24 24 24
-67.4 -35.5 27.3 181 180 178
-66.8 -35.5 27.3 170 172 172
-66.2 -35.5 27.3 183 183 183
-65.6 -35.6 27.4 106 106 106
-65.0 -35.6 27.4 49 49 49
-64.2 -35.5 27.3 29 31 29
-63.5 -35.5 27.3 23 23 23
-63.0 -35.5 27.3 18 22 19
-62.4 -35.6 27.4 19 23 20
-61.6 -35.5 27.3 35 35 35
-60.6 -35.2 27.1 23 23 23
-60.1 -35.3 27.2 35 35 35
-59.5 -35.4 27.2 90 90 90
-63.0 -38.3 29.4 145 147 147
-57.0 -35.4 27.2 23 23 23
-47.7 -35.5 27.3 51 51 51
-47.1 -35.5 27.3 164 164 164
-46.5 -35.5 27.3 199 199 199
-45.8 -35.5 27.3 205 205 205
-45.2 -35.5 27.3 207 210 209
-44.6 -35.5 27.3 207 210 209
-43.9 -35.5 27.3 206 209 208
-43.3 -35.5 27.3 150 152 152
-42.7 -35.5 27.3 81 81 81
-42.0 -35.5 27.3 17 17 17
-41.4 -35.5 27.3 23 23 23
-40.7 -35.5 27.3 75 75 75
-40.1 -35.5 27.3 105 105 103
-42.5 -38.3 29.4 113 115 114
-37.9 -35.2 27.1 124 127 126
-17.2 -34.2 26.3 84 86 86
-18.6 -38.3 29.5 94 94 94
84.1 -31.4 24.1 181 184 183
88.5 -32.0 24.6 149 149 149
88.3 -31.7 24.4 140 142 141
72.3 -25.3 19.5 135 135 135
74.0 -25.7 19.8 133 133 133
74.5 -25.8 19.8 133 133 133
74.4 -25.6 19.7 133 133 133
75.1 -25.6 19.7 132 132 132
-17.6 -34.4 26.9 91 93 92
89.7 -31.6 24.8 131 133 132
75.5 -25.8 20.2 129 129 129
76.4 -25.9 20.3 129 129 129
-68.7 -36.3 28.9 38 40 40
-67.7 -36.1 28.8 34 34 34
-67.1 -36.2 28.8 23 23 23
-66.4 -36.2 28.8 19 23 20
-65.9 -36.2 28.9 17 21 18
-65.1 -36.2 28.8 158 158 158
-64.5 -36.2 28.9 173 175 175
-64.0 -36.7 29.2 157 157 157
-64.6 -37.4 29.8 148 150 150
-63.3 -37.1 29.6 182 185 184
-61.2 -36.2 28.9 173 175 175
-49.3 -36.4 29.0 57 56 55
-48.6 -36.4 29.0 57 56 55
-48.0 -36.4 29.0 54 54 54
-47.3 -36.4 29.0 39 41 41
-46.6 -36.4 29.0 29 30 28
-45.9 -36.4 29.0 29 30 28
-43.9 -36.4 29.0 52 52 52
-43.2 -36.4 29.0 39 39 39
-18.2 -34.9 27.8 89 89 89
-18.0 -35.8 28.6 90 92 91
76.0 -25.5 20.3 121 121 121
76.8 -25.6 20.4 125 125 125
-74.2 -38.1 31.0 34 34 34
-72.1 -37.4 30.4 29 30 28
-71.1 -37.2 30.3 25 25 25
-71.2 -37.7 30.6 17 21 18
-70.6 -37.7 30.7 17 21 18
-68.9 -37.2 30.2 23 23 23
-68.2 -37.2 30.2 136 138 137
-69.5 -38.3 31.1 159 159 159
-68.6 -38.2 31.0 191 191 191
-66.5 -37.4 30.4 154 154 154
-66.5 -37.8 30.7 143 143 142
-65.1 -37.4 30.4 194 197 196
-51.4 -37.7 30.7 51 51 51
-50.7 -37.7 30.7 49 49 49
-50.0 -37.7 30.7 39 39 39
-47.1 -37.7 30.7 13 13 13
-46.4 -37.7 30.7 24 24 24
-45.7 -37.7 30.7 109 109 109
-45.4 -38.0 30.9 68 68 68
-44.1 -37.5 30.5 58 58 58
-12.7 -15.2 12.3 116 116 116
-18.4 -34.7 28.2 91 94 93
-18.5 -36.1 29.4 90 92 91
80.3 -26.1 21.2 115 117 116
-71.9 -37.0 30.6 19 23 20
-72.1 -37.4 31.0 17 17 17
-71.1 -37.3 30.9 17 21 18
-69.8 -37.0 30.6 23 23 23
-69.8 -37.3 30.9 114 116 115
-69.9 -37.8 31.3 148 150 150
-68.9 -37.6 31.2 134 134 134
-67.6 -37.7 31.2 137 139 138
-65.5 -37.0 30.6 184 184 184
-64.1 -36.5 30.3 143 143 142
-51.6 -37.2 30.8 51 51 51
-50.9 -37.1 30.8 49 49 49
-50.1 -37.1 30.8 36 37 36
-49.5 -37.2 30.8 27 29 27
-48.8 -37.2 30.8 31 30 29
-48.1 -37.2 30.8 88 88 88
-47.4 -37.2 30.8 23 23 23
-46.6 -37.1 30.8 27 29 27
-45.9 -37.2 30.8 24 24 24
-18.8 -36.0 29.8 90 92 91
-18.4 -36.5 30.3 67 67 67
80.6 -25.7 21.3 91 94 93
81.4 -25.8 21.4 153 153 153
-69.6 -36.1 30.5 19 23 20
-69.4 -36.4 30.8 106 108 108
-66.7 -36.5 30.8 147 147 147
-65.7 -36.3 30.7 161 161 161
-64.2 -35.9 30.3 126 129 128
-20.9 -14.4 12.2 53 53 53
-20.7 -14.4 12.2 53 53 53
-20.4 -14.4 12.2 53 53 53
-12.8 -14.4 12.2 30 30 30
-12.5 -14.5 12.2 21 21 21
-12.2 -14.4 12.2 31 31 31
-11.3 -14.0 11.9 90 90 90
-19.0 -35.6 30.1 94 94 94
-18.4 -35.9 30.3 88 90 89
80.4 -25.0 21.1 156 156 156
-34.3 -14.1 12.2 132 132 132
-34.1 -14.2 12.2 75 75 75
-33.8 -14.2 12.2 60 60 60
-33.5 -14.2 12.2 118 120 119
-29.0 -14.2 12.2 106 106 106
-28.6 -14.1 12.2 102 101 99
-28.3 -14.1 12.2 74 74 74
-28.0 -14.1 12.2 17 21 18
-27.8 -14.1 12.2 6 6 6
-27.5 -14.1 12.2 94 94 94
-27.2 -14.1 12.2 140 140 140
-26.9 -14.1 12.2 173 173 173
-26.7 -14.1 12.2 140 140 140
-26.4 -14.1 12.2 165 168 167
-26.1 -14.1 12.2 126 129 128
-25.8 -14.2 12.2 104 104 104
-25.6 -14.2 12.2 120 120 120
-21.6 -14.2 12.2 58 58 58
-21.2 -14.1 12.2 57 56 55
-21.0 -14.1 12.2 57 56 55
-20.7 -14.1 12.2 53 53 53
-20.4 -14.2 12.2 58 58 58
-20.1 -14.1 12.2 58 58 58
-19.8 -14.1 12.2 44 43 42
-19.6 -14.1 12.2 26 26 26
-19.3 -14.1 12.2 16 20 17
-19.0 -14.1 12.2 36 37 36
-18.7 -14.1 12.2 61 61 61
-18.4 -14.1 12.2 39 41 41
-18.2 -14.1 12.2 23 23 23
-17.9 -14.2 12.2 16 20 17
-17.6 -14.2 12.2 47 48 47
-17.3 -14.2 12.2 57 57 55
-17.0 -14.2 12.2 34 34 34
-16.8 -14.2 12.2 45 45 45
-16.5 -14.2 12.2 36 37 36
-16.2 -14.1 12.2 33 33 33
-15.9 -14.1 12.2 31 30 29
-15.6 -14.2 12.2 33 33 33
-15.3 -14.2 12.2 34 34 34
-15.1 -14.2 12.2 32 32 32
-14.8 -14.2 12.2 30 29 28
-14.5 -14.2 12.2 27 28 26
-14.2 -14.2 12.2 27 28 26
-13.9 -14.2 12.2 25 25 25
-13.6 -14.1 12.2 26 27 25
-13.1 -14.1 12.2 26 27 25
-12.8 -14.2 12.2 26 27 25
-12.6 -14.2 12.3 26 27 25
-12.3 -14.3 12.3 28 28 26
-11.9 -14.1 12.2 25 27 25
-19.7 -39.1 33.7 93 96 95
-30.2 -14.6 12.9 48 48 48
-29.9 -14.6 12.8 137 139 138
-29.6 -14.6 12.8 152 152 152
-29.4 -14.6 12.9 131 131 131
-29.1 -14.6 12.9 119 119 119
-28.8 -14.6 12.9 172 172 172
-22.1 -14.6 12.8 61 61 61
-20.9 -14.0 12.3 63 64 62
-20.6 -14.0 12.3 63 64 62
-21.3 -14.6 12.9 63 64 62
-21.0 -14.6 12.9 177 177 177
-20.7 -14.6 12.9 230 230 230
-20.4 -14.6 12.9 219 219 219
-20.1 -14.6 12.9 216 219 218
-12.0 -14.0 12.3 26 27 25
-22.2 -14.3 12.9 89 89 89
-22.7 -45.0 40.4 29 29 29
14.3 -11.5 10.3 210 210 210
14.4 -11.4 10.2 209 209 209
15.5 -11.5 10.3 216 216 216
15.6 -11.4 10.2 215 215 215
16.3 -11.5 10.3 216 216 216
-20.8 -13.3 12.2 202 204 204
-20.4 -13.3 12.2 206 209 208
-20.2 -13.3 12.2 219 219 219
-24.6 -42.6 39.0 100 100 100
-22.8 -41.0 37.6 111 111 111
-22.6 -44.0 40.3 30 30 30
13.4 -11.2 10.3 214 214 214
13.4 -11.0 10.1 214 214 214
14.3 -11.2 10.3 212 213 212
14.3 -11.1 10.1 212 213 212
14.4 -11.0 10.0 212 213 212
15.5 -11.2 10.3 216 216 216
15.5 -11.1 10.2 215 215 215
16.1 -11.3 10.4 216 216 216
16.3 -11.2 10.3 216 216 216
-20.7 -13.0 12.2 85 86 84
-20.4 -13.0 12.2 100 100 100
-20.0 -12.9 12.1 210 210 210
-19.7 -12.9 12.1 232 232 232
-19.4 -12.9 12.1 234 236 236
-25.6 -43.4 40.7 101 101 101
-23.4 -41.1 38.5 108 108 108
-23.0 -42.0 39.3 20 20 20
-23.9 -45.5 42.6 23 24 23
13.2 -10.9 10.2 214 214 214
14.3 -11.0 10.3 218 221 220
14.3 -10.8 10.1 216 216 216
15.5 -10.9 10.3 216 216 216
15.4 -10.7 10.1 216 216 216
15.6 -10.7 10.0 216 216 216
16.1 -10.9 10.2 216 216 216
-52.7 -19.5 18.7 39 39 39
-52.2 -19.5 18.7 71 71 71
-51.8 -19.5 18.7 122 122 122
-51.4 -19.5 18.7 124 126 125
-50.9 -19.5 18.7 77 79 77
-50.5 -19.5 18.7 87 87 87
-50.1 -19.5 18.7 77 79 77
-49.6 -19.5 18.7 72 72 72
-49.2 -19.5 18.7 56 56 56
-48.7 -19.5 18.7 49 49 49
-48.3 -19.5 18.7 62 64 61
-47.9 -19.5 18.7 106 106 106
-47.5 -19.5 18.7 178 181 180
-47.0 -19.5 18.7 131 131 131
-46.5 -19.5 18.7 75 75 75
-46.2 -19.6 18.7 79 81 79
-45.8 -19.6 18.7 77 78 76
-45.3 -19.6 18.7 129 129 129
-44.8 -19.5 18.7 167 167 167
-44.4 -19.5 18.7 145 145 144
-44.0 -19.5 18.7 71 71 71
-43.5 -19.5 18.7 101 101 101
-43.1 -19.5 18.7 136 138 137
-42.5 -19.5 18.7 173 173 173
-42.2 -19.5 18.7 6 7 7
-41.8 -19.5 18.7 35 35 35
-41.5 -19.6 18.7 42 42 42
-41.2 -19.7 18.8 24 24 24
-35.1 -19.7 18.8 218 221 220
-34.3 -19.5 18.7 222 222 222
-34.1 -19.6 18.8 218 221 220
-33.6 -19.6 18.8 217 220 219
-33.1 -19.6 18.7 214 214 214
-32.7 -19.6 18.7 197 200 199
-32.2 -19.5 18.7 65 66 64
-31.8 -19.5 18.7 65 66 64
-31.3 -19.5 18.7 85 86 84
-30.9 -19.5 18.7 210 210 210
-30.5 -19.5 18.7 227 227 227
-30.0 -19.5 18.7 232 232 232
-29.7 -19.6 18.7 231 231 231
-29.2 -19.5 18.7 234 234 234
-27.9 -19.5 18.7 224 224 224
-27.5 -19.5 18.7 214 216 216
-27.0 -19.5 18.7 198 198 198
-26.1 -19.5 18.7 94 93 92
-25.7 -19.5 18.7 41 43 42
-25.3 -19.5 18.7 99 99 99
-24.8 -19.5 18.7 32 31 30
-24.3 -19.5 18.7 34 34 34
-26.7 -49.7 47.5 22 22 22
-26.3 -51.1 48.9 20 20 20
-52.9 -19.2 18.8 77 78 76
-52.2 -19.3 18.9 66 67 65
-51.8 -19.3 18.9 55 55 55
-43.9 -19.3 18.9 109 111 111
-43.4 -19.2 18.8 117 119 118
-42.8 -19.2 18.8 113 114 113
-42.5 -19.2 18.8 39 39 39
-41.7 -19.5 19.0 26 26 26
-35.3 -19.4 19.0 227 227 227
-34.5 -19.2 18.8 229 229 229
-34.6 -19.5 19.1 229 229 229
-34.0 -19.4 19.0 230 230 230
-33.3 -19.2 18.8 221 221 221
-33.0 -19.3 18.9 216 219 218
-32.5 -19.2 18.8 206 206 206
-32.0 -19.2 18.8 62 62 62
-31.5 -19.2 18.8 75 76 76
-31.1 -19.2 18.8 121 123 122
-30.7 -19.2 18.8 195 195 195
-30.2 -19.2 18.8 210 210 210
-30.1 -19.4 19.0 224 224 224
-29.3 -19.2 18.8 225 225 225
-25.5 -19.3 18.9 157 157 157
-24.9 -19.1 18.7 83 83 83
-24.5 -19.2 18.8 122 122 122
-32.3 -54.3 53.1 113 114 113
-31.8 -55.7 54.5 27 27 27
-30.1 -54.7 53.6 22 22 22
-28.4 -54.0 52.8 110 110 110
-26.0 -51.7 50.6 181 181 181
-11.5 -10.9 10.9 27 29 27
-11.2 -10.9 10.9 27 28 26
-10.7 -10.9 10.9 30 29 28
-10.4 -10.9 10.9 29 29 27
-9.7 -10.9 10.9 36 38 37
-9.4 -10.8 10.9 42 43 42
-34.3 -56.4 56.5 115 114 114
-32.9 -58.6 58.7 23 24 23
-30.2 -56.0 56.1 153 153 153
-30.1 -10.4 10.7 36 37 36
-29.8 -10.4 10.7 36 37 36
-29.6 -10.4 10.7 36 37 36
-29.3 -10.4 10.7 64 64 64
-29.1 -10.4 10.7 39 39 39
-28.8 -10.4 10.7 153 153 153
-28.6 -10.4 10.7 175 177 177
-28.3 -10.4 10.7 88 89 87
-28.1 -10.4 10.7 196 196 196
-27.9 -10.4 10.7 199 199 199
-27.6 -10.4 10.7 197 197 197
-27.4 -10.4 10.7 150 150 150
-27.1 -10.4 10.7 14 14 14
-24.9 -10.4 10.7 196 199 198
-24.6 -10.4 10.7 207 207 207
-24.4 -10.4 10.7 205 205 205
-24.1 -10.4 10.7 88 89 87
-23.9 -10.4 10.7 68 68 68
-20.5 -10.5 10.7 73 73 73
-20.2 -10.5 10.7 200 200 200
-19.9 -10.4 10.7 217 220 219
-19.5 -10.4 10.7 226 226 226
-19.1 -10.4 10.7 229 229 229
-18.9 -10.4 10.7 225 225 225
-18.6 -10.4 10.7 224 224 224
-18.4 -10.4 10.7 215 218 217
-17.2 -10.5 10.7 30 31 30
-16.9 -10.4 10.7 35 35 35
-16.7 -10.4 10.7 69 69 69
-16.4 -10.4 10.7 172 172 172
-16.2 -10.4 10.7 119 119 119
-16.0 -10.5 10.7 109 109 109
-15.6 -10.4 10.7 25 25 25
-15.5 -10.4 10.7 39 39 39
-15.2 -10.4 10.7 36 37 36
-14.9 -10.4 10.7 33 33 31
-14.7 -10.4 10.7 36 37 36
-14.4 -10.4 10.7 165 168 167
-14.2 -10.4 10.7 69 69 69
-13.9 -10.4 10.7 103 103 103
-13.7 -10.4 10.7 122 122 122
-13.5 -10.4 10.7 35 35 35
-13.2 -10.5 10.7 84 86 86
-13.0 -10.4 10.7 73 74 72
-12.7 -10.4 10.7 80 80 80
-12.5 -10.4 10.7 80 82 79
-12.2 -10.4 10.7 67 67 67
-12.0 -10.4 10.7 65 66 64
-11.7 -10.4 10.7 34 34 34
-11.5 -10.5 10.7 27 29 27
-11.3 -10.5 10.7 31 30 29
-11.0 -10.4 10.7 30 29 28
-10.7 -10.4 10.7 32 32 32
-10.5 -10.5 10.7 34 34 34
-10.3 -10.5 10.7 31 31 31
-10.0 -10.4 10.7 33 33 33
-9.6 -10.5 10.8 36 38 37
-9.3 -10.5 10.7 42 43 42
-9.0 -10.5 10.7 47 47 47
-8.7 -10.4 10.7 205 208 207
-8.5 -10.4 10.7 203 203 203
-8.2 -10.4 10.7 199 199 199
-8.0 -10.4 10.7 203 205 205
-7.7 -10.4 10.7 175 175 175
-42.5 -70.9 72.8 48 48 48
-32.7 -56.9 58.4 23 24 23
-30.6 -55.5 57.0 158 158 158
-30.1 -10.2 10.7 180 183 182
-29.9 -10.2 10.7 50 50 50
-29.6 -10.2 10.7 33 33 33
-29.3 -10.2 10.7 100 100 100
-29.1 -10.2 10.7 175 177 177
-28.8 -10.2 10.7 27 27 27
-28.6 -10.2 10.7 55 55 55
-28.3 -10.2 10.7 78 80 78
-28.1 -10.2 10.7 197 197 197
-27.9 -10.2 10.7 199 199 199
-27.6 -10.2 10.7 166 169 168
-27.4 -10.2 10.7 155 155 155
-27.1 -10.2 10.7 192 195 194
-24.8 -10.2 10.7 20 23 21
-24.6 -10.2 10.7 26 26 26
-23.9 -10.2 10.7 69 69 69
-20.5 -10.2 10.7 61 61 61
-20.2 -10.2 10.7 65 65 65
-19.9 -10.2 10.7 186 188 187
-19.1 -10.1 10.7 216 219 218
-18.4 -10.1 10.7 206 206 206
-17.3 -10.2 10.7 26 26 26
-16.9 -10.2 10.7 35 35 35
-16.7 -10.2 10.7 66 66 66
-16.4 -10.2 10.7 168 170 169
-16.0 -10.2 10.7 58 58 58
-15.6 -10.1 10.7 42 44 43
-15.2 -10.2 10.7 35 35 35
-14.9 -10.2 10.7 39 39 39
-14.7 -10.2 10.7 44 44 44
-14.4 -10.2 10.7 160 160 160
-14.2 -10.2 10.7 19 23 20
-13.9 -10.2 10.7 44 44 44
-13.7 -10.1 10.7 122 122 122
-13.4 -10.2 10.7 25 25 25
-13.2 -10.2 10.7 42 44 43
-13.0 -10.2 10.7 38 38 38
-12.7 -10.2 10.7 71 71 71
-12.5 -10.2 10.7 79 79 79
-12.2 -10.2 10.7 77 77 77
-12.0 -10.2 10.7 32 31 30
-11.7 -10.2 10.7 35 35 35
-11.3 -10.2 10.7 33 33 33
-11.0 -10.2 10.7 34 34 34
-10.7 -10.1 10.7 34 34 34
-10.5 -10.2 10.7 35 35 35
-10.3 -10.2 10.7 33 33 33
-10.0 -10.2 10.7 34 34 34
-9.5 -10.3 10.8 36 36 36
-9.3 -10.2 10.7 42 43 42
-9.0 -10.2 10.7 43 43 43
-8.7 -10.2 10.7 204 207 206
-8.5 -10.2 10.7 199 199 199
-8.2 -10.2 10.7 196 196 196
-42.4 -66.4 69.8 113 115 114
-42.8 -69.8 73.3 30 29 29
-32.3 -57.2 60.1 166 166 166
14.4 -9.7 10.2 217 217 217
-304.3 -100.4 108.1 152 152 152
-305.3 -101.5 109.3 168 168 168
-304.5 -102.1 110.0 189 189 189
-302.0 -102.1 110.0 151 151 151
-296.0 -100.9 108.7 57 57 57
-291.8 -100.4 108.1 77 79 77
-289.3 -100.4 108.1 77 79 77
-288.4 -100.9 108.7 97 97 97
-290.9 -102.7 110.6 200 200 200
-291.7 -103.9 111.9 197 197 197
-289.1 -103.9 111.9 116 116 116
-281.5 -102.1 110.0 70 70 70
-274.2 -100.4 108.1 157 156 154
-273.2 -100.9 108.7 192 195 194
-278.7 -103.9 111.9 192 192 192
-276.1 -103.9 111.9 36 37 36
-262.6 -99.8 107.5 62 62 62
-263.1 -100.9 108.7 62 62 62
-259.1 -100.4 108.1 58 59 59
-259.6 -101.5 109.3 48 48 48
-261.5 -103.3 111.3 30 31 30
-253.0 -100.9 108.7 18 22 19
-261.5 -106.4 114.6 40 42 42
-245.4 -100.9 108.7 53 53 53
-221.5 -102.7 110.6 71 72 70
-216.4 -101.5 109.3 61 61 61
-212.6 -100.9 108.7 57 57 57
-212.5 -102.1 110.0 67 68 66
-208.7 -101.5 109.3 66 66 66
-214.8 -107.1 115.3 57 57 57
-203.5 -102.7 110.6 98 97 95
-197.4 -100.9 108.7 199 199 199
-194.9 -100.9 108.7 207 207 207
-196.9 -103.3 111.3 205 205 205
-196.6 -104.5 112.6 205 208 207
-197.5 -106.4 114.6 189 191 191
-188.0 -102.7 110.6 105 105 103
-181.2 -100.4 108.1 62 62 62
-11.0 -10.0 10.7 36 36 36
-9.6 -10.0 10.8 36 39 38
-9.3 -10.0 10.8 41 41 41
-45.6 -69.7 75.1 108 108 108
-44.2 -70.3 75.7 31 31 31
-57.8 -99.8 107.5 171 173 173
-55.3 -99.8 107.5 182 182 182
168.3 -73.2 78.8 200 200 200
142.3 -60.6 65.2 202 202 202
-311.4 -100.1 110.6 116 118 117
-308.9 -100.1 110.6 179 179 179
-308.1 -100.7 111.3 138 138 138
-305.5 -100.7 111.3 156 159 158
-301.2 -100.1 110.6 206 209 208
-298.6 -100.1 110.6 51 51 51
-296.0 -100.1 110.6 85 85 85
-295.2 -100.7 111.3 116 118 117
-297.8 -102.5 113.3 197 200 199
-295.2 -102.5 113.3 191 191 191
-292.6 -102.5 113.3 202 202 202
-284.8 -100.7 111.3 191 194 193
-280.6 -100.1 110.6 122 122 122
-279.7 -100.7 111.3 169 171 170
-283.7 -103.2 114.0 169 171 170
-282.8 -103.8 114.6 80 82 79
-270.3 -100.1 110.6 64 65 63
-269.3 -100.7 111.3 64 65 63
-265.2 -100.1 110.6 58 59 59
-264.1 -100.7 111.3 45 44 43
-267.9 -103.2 114.0 20 23 21
-256.0 -99.6 110.0 17 17 17
-261.5 -103.8 114.6 30 31 30
-246.8 -99.0 109.3 30 31 30
-228.1 -103.2 114.0 64 64 64
-218.9 -100.1 110.6 55 55 55
-215.1 -99.6 110.0 57 57 57
-215.0 -100.7 111.3 62 62 62
-211.2 -100.1 110.6 58 58 58
-217.5 -104.4 115.3 26 26 26
-216.1 -105.1 116.1 58 58 58
-204.7 -100.7 111.3 66 66 66
-199.7 -99.6 110.0 66 66 66
-199.5 -100.7 111.3 62 62 62
-201.6 -103.2 114.0 121 123 122
-200.2 -103.8 114.6 174 176 176
-197.5 -103.8 114.6 88 90 89
-192.5 -102.5 113.3 58 58 58
-183.3 -99.0 109.3 58 58 58
-48.2 -74.8 82.6 27 27 27
-58.1 -97.8 108.1 158 158 158
-56.2 -99.0 109.3 181 181 181
-53.4 -98.4 108.7 181 184 183
141.8 -59.5 65.7 200 200 200
140.4 -58.2 64.3 202 202 202
-39.9 -12.5 14.2 151 151 151
-39.7 -12.5 14.2 140 142 141
-39.4 -12.5 14.2 152 152 152
-39.1 -12.6 14.2 155 154 152
-38.8 -12.6 14.2 178 177 175
-38.4 -12.6 14.2 77 79 77
-38.1 -12.6 14.2 85 85 85
-37.8 -12.6 14.2 109 111 111
-37.5 -12.6 14.2 166 169 168
-37.1 -12.6 14.2 181 181 181
-36.8 -12.6 14.2 159 159 159
-36.5 -12.6 14.2 182 182 182
-36.1 -12.6 14.2 126 128 127
-35.8 -12.6 14.2 188 188 188
-293.5 -104.9 119.0 77 79 77
-278.9 -103.6 117.5 53 52 52
-28.2 -12.4 14.1 39 39 39
-27.9 -12.4 14.1 42 44 43
-27.9 -12.6 14.2 46 46 44
-27.6 -12.6 14.3 51 51 51
-210.9 -101.1 114.6 67 67 67
-206.9 -100.5 114.0 71 71 71
-209.2 -104.3 118.2 72 73 71
-206.4 -104.3 118.2 71 71 71
-58.0 -84.3 95.5 104 104 104
-51.1 -77.2 87.6 29 29 29
-52.0 -81.8 92.7 33 33 33
-56.2 -92.2 104.5 169 171 170
-55.3 -94.8 107.5 178 178 178
142.8 -58.3 66.1 200 200 200
-28.2 -12.1 14.1 67 67 67
-27.9 -12.1 14.1 53 52 52
-12.8 -13.1 15.2 36 36 36
-12.3 -13.0 15.1 201 203 203
-59.3 -90.7 105.7 23 24 23
-57.8 -92.3 107.5 170 172 172
-59.0 -98.4 114.6 180 183 182
16.7 -9.2 10.7 220 223 222
169.0 -68.0 79.1 195 195 195
141.8 -56.4 65.7 200 200 200
-27.8 -11.6 13.9 61 60 59
-12.8 -12.7 15.2 34 34 34
-12.3 -12.6 15.0 201 203 203
-96.1 -137.4 164.5 23 24 23
15.8 -8.9 10.7 218 221 220
15.9 -8.8 10.6 218 221 220
16.7 -9.0 10.7 220 223 222
16.7 -8.8 10.6 220 223 222
16.9 -8.8 10.5 220 223 222
140.8 -54.5 65.2 200 200 200
-12.7 -12.2 15.1 45 45 45
-12.2 -12.2 15.0 201 203 203
-170.0 -236.4 291.0 29 29 29
-208.0 -301.3 370.9 31 31 31
14.5 -8.5 10.4 218 221 220
15.6 -8.7 10.7 218 221 220
15.8 -8.6 10.6 218 221 220
15.9 -8.6 10.5 220 223 222
16.4 -8.7 10.7 220 223 222
16.5 -8.6 10.6 220 223 222
16.7 -8.6 10.6 220 223 222
140.3 -52.8 65.0 197 197 197
-38.5 -19.7 25.0 158 157 155
-12.7 -11.9 15.1 38 38 38
-12.2 -11.8 15.0 200 202 202
166.3 -188.9 239.4 222 224 224
14.4 -8.2 10.4 218 221 220
14.4 -8.0 10.2 218 221 220
15.7 -8.2 10.4 220 223 222
15.8 -8.2 10.3 220 223 222
16.6 -8.2 10.4 220 223 222
-52.6 -18.4 24.0 81 81 81
-66.0 -23.4 30.5 83 83 83
-38.8 -19.3 25.3 123 125 124
-12.7 -11.6 15.2 48 48 48
-12.2 -11.5 15.0 200 202 202
14.3 -7.9 10.3 218 221 220
14.4 -7.8 10.2 218 221 220
15.6 -7.9 10.4 218 221 220
16.3 -7.9 10.4 222 224 224
25.1 -11.5 15.0 222 224 224
24.9 -11.3 14.7 222 224 224
-52.1 -17.5 23.6 78 78 78
-49.8 -16.9 22.8 81 81 81
-66.6 -22.8 30.8 74 74 74
-65.2 -22.6 30.5 151 151 151
-63.4 -23.0 31.0 122 124 123
-62.6 -23.0 30.9 109 109 107
-44.7 -16.8 22.6 54 54 54
-36.0 -16.9 22.7 151 151 151
-41.3 -19.6 26.5 146 146 146
-12.7 -11.3 15.2 48 48 48
-12.3 -11.2 15.0 197 200 199
24.5 -10.7 14.5 222 224 224
24.4 -10.6 14.2 222 224 224
29.8 -12.4 16.7 219 222 221
30.2 -12.4 16.7 219 222 221
30.5 -12.4 16.7 219 222 221
206.9 -67.5 90.9 198 198 198
212.1 -68.5 92.3 202 202 202
212.1 -67.9 91.4 202 202 202
213.2 -67.5 90.9 204 204 204
-50.1 -16.3 22.7 74 74 74
-48.8 -16.0 22.3 74 74 74
-66.6 -22.4 31.1 74 74 74
-44.1 -15.8 22.0 53 52 52
-43.4 -15.8 21.9 53 52 52
-41.6 -15.3 21.3 43 45 45
-35.3 -16.0 22.3 123 125 124
-33.8 -15.6 21.7 140 140 140
29.8 -12.0 16.7 219 222 221
30.5 -12.0 16.7 219 222 221
154.4 -49.8 69.3 195 195 195
156.6 -50.0 69.5 198 198 198
209.9 -66.4 92.3 198 198 198
163.7 -50.2 69.8 202 202 202
229.7 -69.8 97.0 204 204 204
164.9 -49.1 68.3 203 203 203
-41.4 -14.7 21.2 64 63 61
-33.9 -15.1 21.7 145 145 144
23.8 -9.7 13.9 223 225 225
30.6 -12.1 17.4 223 225 225
227.4 -66.8 96.0 202 202 202
167.9 -48.4 69.5 197 197 197
149.7 -42.7 61.4 225 227 227
-190.8 -53.0 78.8 59 59 59
-191.3 -53.7 79.8 62 62 62
-187.1 -53.0 78.8 58 58 56
24.0 -9.5 14.2 223 225 225
23.9 -9.4 13.9 223 225 225
30.5 -11.7 17.3 219 222 221
191.8 -55.6 82.6 202 202 202
198.4 -55.8 83.0 204 204 204
155.9 -43.4 64.6 197 197 197
148.7 -41.1 61.0 229 228 226
205.3 -55.1 81.9 77 77 77
-191.6 -51.4 79.1 24 24 24
-192.9 -52.3 80.5 30 31 30
-190.3 -52.1 80.2 26 26 26
24.0 -9.1 14.0 219 222 221
29.7 -10.8 16.6 219 222 221
194.3 -54.4 83.7 202 202 202
154.3 -41.5 63.9 203 203 203
148.7 -39.6 61.0 225 227 227
109.5 -28.6 44.1 93 93 93
208.9 -54.1 83.3 82 82 82
206.3 -53.0 81.5 72 74 74
-181.7 -47.0 75.1 57 57 55
-175.7 -45.9 73.3 57 57 55
24.1 -8.8 14.1 223 225 225
29.4 -10.3 16.5 220 223 222
29.7 -10.3 16.4 220 223 222
196.9 -53.1 84.8 202 202 202
159.7 -41.4 66.1 203 203 203
104.0 -26.2 41.9 118 118 118
212.8 -52.7 84.1 68 68 68
-170.8 -42.6 70.6 74 74 74
-164.3 -41.3 68.5 74 74 74
24.2 -8.5 14.1 220 223 222
29.5 -9.9 16.5 220 223 222
197.8 -51.4 85.2 198 198 198
199.3 -50.3 83.3 205 205 205
148.3 -36.7 60.8 232 232 232
213.7 -50.9 84.4 60 62 61
199.6 -47.1 78.2 65 65 65
-167.7 -40.2 69.3 75 76 76
23.9 -8.1 13.9 222 224 224
29.6 -9.6 16.5 222 224 224
29.3 -9.4 16.2 222 224 224
254.5 -62.3 107.5 203 203 203
200.1 -48.5 83.7 205 205 205
151.2 -36.0 62.0 235 235 235
215.6 -49.4 85.2 60 63 62
210.0 -47.7 82.2 66 66 66
23.9 -7.7 13.9 222 224 224
29.8 -9.3 16.7 222 224 224
193.8 -47.4 85.2 197 197 197
194.5 -46.2 83.0 203 203 203
200.1 -46.6 83.7 205 205 205
208.9 -46.4 83.3 72 74 74
214.7 -47.2 84.8 65 65 65
211.0 -46.0 82.6 61 64 63
22.9 -6.8 12.7 221 221 221
23.0 -6.7 12.5 222 222 222
30.0 -8.6 16.2 223 225 225
192.1 -45.0 84.4 197 197 197
197.6 -45.9 86.0 197 197 197
199.6 -45.9 86.0 199 199 199
196.2 -44.6 83.7 203 203 203
200.1 -44.6 83.7 205 205 205
208.0 -44.2 83.0 72 74 74
213.7 -45.0 84.4 67 67 67
206.4 -43.1 80.8 66 66 66
22.8 -6.4 12.6 222 222 222
23.0 -6.4 12.5 222 222 222
30.1 -8.3 16.2 219 219 219
30.4 -8.2 16.2 222 222 222
30.8 -8.3 16.2 223 225 225
192.1 -43.1 84.4 194 194 194
196.2 -42.7 83.7 203 203 203
198.4 -42.3 83.0 204 204 204
209.9 -42.7 83.7 69 69 69
213.7 -43.1 84.4 67 67 67
203.8 -40.7 79.8 70 70 70
29.4 -8.0 16.5 222 222 222
23.0 -6.2 12.7 224 224 224
30.1 -8.0 16.4 224 224 224
30.3 -8.0 16.3 224 224 224
30.5 -7.9 16.2 224 224 224
30.9 -7.9 16.2 224 224 224
144.5 -28.9 59.3 221 221 221
211.7 -41.1 84.4 53 53 53
213.7 -41.1 84.4 66 66 66
209.1 -39.9 81.9 68 68 68
29.6 -7.7 16.6 224 224 224
30.3 -7.7 16.5 224 224 224
30.5 -7.6 16.4 224 224 224
30.8 -7.6 16.4 224 224 224
31.2 -7.6 16.4 224 224 224
30.0 -7.5 17.0 224 224 224
29.8 -7.3 16.7 225 225 225
30.2 -7.3 16.7 225 225 225
30.6 -7.4 16.7 225 225 225
30.6 -7.3 16.5 225 225 225
31.4 -7.3 16.5 225 225 225
32.7 -7.5 17.0 225 225 225
33.0 -7.5 16.9 225 225 225
32.4 -7.2 16.4 225 225 225
29.4 -7.0 16.7 221 221 221
30.9 -7.0 16.9 221 221 221
30.9 -6.9 16.6 222 222 222
31.2 -6.9 16.6 225 225 225
32.2 -7.0 16.7 225 225 225
32.7 -7.0 16.8 225 225 225
32.8 -6.9 16.7 225 225 225
33.3 -7.0 16.7 225 227 227
31.0 -6.7 16.9 222 222 222
30.8 -6.5 16.6 222 222 222
30.1 -6.2 15.8 226 226 226
32.5 -6.6 16.7 226 226 226
31.0 -6.3 16.9 224 224 224
30.9 -6.2 16.6 224 224 224
30.4 -6.0 16.2 224 224 224
30.5 -5.9 16.0 226 226 226
30.8 -5.8 16.8 224 224 224
30.7 -5.7 16.5 224 224 224
30.9 -5.7 16.4 224 224 224
277.0 -62.3 386.0 155 158 157
828.5 -57.6 356.9 195 195 195
933.2 -63.6 394.1 198 198 198
988.1 -63.6 394.1 84 84 84
1150.8 -61.1 378.3 58 58 58
698.6 -36.8 227.9 55 54 53
1226.3 -63.6 394.1 55 54 53
852.4 -51.3 370.9 195 195 195
655.4 -39.0 282.3 195 195 195
595.1 -34.4 248.9 196 196 196
608.9 -34.9 252.2 208 208 208
583.7 -33.1 239.4 215 215 215
589.2 -33.1 239.4 188 188 188
930.0 -51.3 370.9 77 79 78
605.9 -33.1 239.4 64 66 66
710.4 -38.4 278.2 63 63 63
609.4 -32.7 236.5 73 73 73
1010.1 -52.3 378.3 64 64 64
813.9 -38.4 278.2 140 140 140
777.6 -35.3 255.6 58 58 58
724.8 -32.7 236.5 56 55 54
1131.9 -50.3 363.8 42 42 42
878.2 -43.5 378.3 196 196 196
761.7 -34.0 295.6 72 72 72
919.8 0.5 356.9 47 48 47
1237.1 0.5 386.0 66 66 66
292.0 9.7 394.1 198 198 198
301.1 9.7 394.1 195 195 195
328.6 9.7 394.1 202 202 202
339.8 9.5 386.0 204 204 204
341.8 9.3 378.3 200 200 200
383.6 9.7 394.1 56 58 58
377.0 9.3 378.3 52 52 52
393.7 9.5 386.0 53 53 53
411.0 9.7 394.1 56 58 58
420.2 9.7 394.1 58 60 59
404.1 9.1 370.9 58 60 59
429.6 9.5 386.0 56 58 58
466.0 9.7 394.1 44 45 43
465.5 9.5 386.0 42 44 42
887.4 9.7 394.1 246 246 246
844.5 8.9 363.8 197 197 197
886.9 9.1 370.9 205 205 205
913.4 9.3 378.3 205 205 205
795.0 8.0 326.1 207 207 207
997.3 9.7 394.1 77 77 77
966.2 9.3 378.3 59 59 57
902.8 8.6 350.3 47 46 45
1198.8 9.7 394.1 58 58 56
1143.8 8.7 356.9 211 211 211
1052.8 8.0 326.1 216 216 216
1205.9 9.1 370.9 226 226 226
356.1 18.8 394.1 199 199 199
896.2 18.4 386.0 195 195 195
1006.4 18.8 394.1 43 43 43
1212.4 18.1 378.3 218 218 218
1221.2 18.1 378.3 219 219 219
79.9 1.5 21.2 91 91 91
78.6 1.5 20.8 94 97 96
74.7 1.4 19.6 170 171 170
81.5 2.0 21.7 94 94 94
74.1 1.8 19.4 172 172 172
73.4 1.8 19.2 126 128 127
83.6 2.6 22.4 88 88 88
80.6 2.5 21.4 94 94 94
78.8 2.4 20.8 95 98 97
74.9 2.3 19.7 161 161 161
74.0 2.3 19.3 126 129 128
85.0 3.2 22.7 89 89 89
81.9 3.1 21.8 90 90 90
79.6 3.0 21.0 96 99 98
88.0 3.9 23.5 87 87 85
81.9 3.6 21.8 91 91 91
79.6 3.4 21.0 97 100 99
95.2 4.8 25.6 86 85 83
123.3 7.1 33.6 95 95 95
121.3 6.9 32.8 89 89 87
128.5 8.2 35.0 87 86 84
125.6 8.0 34.0 81 81 81
125.5 7.9 33.8 87 86 84
128.8 8.1 34.5 95 95 95
128.2 8.9 34.7 85 85 85
130.7 9.0 35.0 205 208 207
-95.5 28.7 51.3 85 84 82
-95.1 28.9 51.7 85 84 82
-94.4 29.1 52.0 87 86 84
-92.1 28.7 51.4 87 86 84
-91.2 28.8 51.5 87 87 87
-91.0 29.1 52.1 90 90 90
-88.6 28.7 51.4 91 91 91
-86.2 28.4 50.7 94 93 92
-63.5 29.9 53.4 235 235 235
-61.4 29.5 52.7 226 226 226
-54.4 29.0 51.8 84 84 84
-53.2 29.0 51.8 91 94 93
-51.1 28.5 51.0 100 100 100
-80.7 38.8 66.6 220 223 222
-172.4 104.1 172.0 65 67 66
28.5 17.0 11.6 214 214 214
21.6 17.5 11.4 111 113 112
28.2 17.4 11.3 172 174 174
21.6 17.9 11.5 209 209 209
21.8 17.8 11.4 216 219 218
22.0 17.8 11.4 218 221 220
22.2 17.8 11.4 160 163 162
22.5 17.8 11.4 112 114 113
27.3 17.8 11.4 159 159 159
27.6 17.8 11.4 162 162 162
27.9 17.8 11.5 162 165 164
28.3 17.9 11.5 164 167 166
28.3 17.7 11.4 162 165 164
28.5 17.7 11.4 163 163 163
28.9 17.8 11.4 124 124 124
30.6 17.9 11.5 107 107 107
30.8 17.8 11.4 110 110 110
36.6 17.8 11.4 105 107 107
36.9 17.8 11.4 102 104 104
37.2 17.8 11.4 102 102 102
37.4 17.8 11.4 101 101 101
37.6 17.8 11.4 99 99 99
37.9 17.8 11.4 100 100 100
38.2 17.8 11.4 103 103 103
38.4 17.8 11.4 101 101 101
38.7 17.8 11.4 79 78 77
38.9 17.8 11.4 83 83 83
39.6 17.8 11.5 98 97 95
39.9 17.8 11.4 98 97 95
40.2 17.9 11.5 105 105 105
40.2 17.8 11.4 105 105 105
41.3 17.9 11.5 107 107 107
41.3 17.8 11.4 108 110 110
41.7 17.8 11.4 108 110 110
42.0 17.8 11.5 115 115 115
42.2 17.8 11.4 126 128 127
42.5 17.8 11.4 128 130 129
42.8 17.8 11.4 107 107 107
43.1 17.9 11.5 73 73 73
43.2 17.8 11.4 70 70 70
21.6 18.2 11.5 164 164 164
21.8 18.1 11.4 204 207 206
22.0 18.1 11.4 209 209 209
22.3 18.1 11.4 211 211 211
22.6 18.1 11.5 151 151 151
27.4 18.1 11.5 152 152 152
27.6 18.1 11.4 154 154 154
28.3 18.2 11.5 154 156 156
28.3 18.0 11.4 153 153 153
30.6 18.1 11.5 99 101 101
31.1 18.1 11.4 109 109 109
36.7 18.1 11.5 101 101 101
39.6 18.1 11.5 95 94 93
41.3 18.2 11.5 107 107 107
42.0 18.1 11.5 115 115 115
40.6 17.3 10.9 128 130 129
40.6 17.2 10.8 79 78 77
43.2 18.1 11.5 67 67 67
21.9 18.5 11.5 211 211 211
28.6 18.6 11.6 145 145 144
40.7 17.6 11.0 123 123 123
28.7 19.0 11.6 137 137 137
31.0 19.1 11.7 100 102 102
28.6 19.2 11.6 135 135 135
