ply
format ascii 1.0
element vertex 2826
property float x
property float y
property float z
property uchar red
property uchar green
property uchar blue
end_header
121.6 -439.5 175.2 163 163 163
125.7 -439.5 175.2 166 166 166
129.8 -439.5 175.2 166 166 166
133.8 -439.5 175.2 166 166 166
137.9 -439.5 175.2 166 166 166
142.0 -439.5 175.2 166 166 166
146.0 -439.5 175.2 166 166 166
150.1 -439.5 175.2 167 167 167
154.2 -439.5 175.2 167 167 167
159.7 -443.6 176.8 167 167 167
163.8 -443.6 176.8 167 167 167
166.4 -439.5 175.2 167 167 167
170.5 -439.5 175.2 167 167 167
174.5 -439.5 175.2 167 167 167
182.7 -439.5 175.2 167 167 167
185.0 -435.4 173.5 164 164 164
190.8 -439.5 175.2 164 164 164
194.9 -439.5 175.2 164 164 164
199.0 -439.5 175.2 161 161 161
201.2 -435.4 173.5 159 159 159
207.1 -439.5 175.2 161 161 161
211.2 -439.5 175.2 161 161 161
209.4 -427.6 170.4 161 161 161
217.3 -435.4 173.5 161 161 161
229.8 -452.0 180.2 161 161 161
225.4 -435.4 173.5 162 162 162
227.3 -431.5 172.0 159 159 159
251.9 -469.9 187.3 159 159 159
244.2 -447.7 178.5 159 159 159
248.3 -447.7 178.5 160 160 160
247.8 -439.5 175.2 160 160 160
249.6 -435.4 173.5 160 160 160
106.5 -174.5 69.5 155 158 157
108.1 -174.5 69.5 155 158 157
110.1 -175.1 69.8 156 159 158
112.2 -175.8 70.1 156 159 158
112.9 -174.5 69.5 157 160 159
52.8 -75.1 29.9 156 159 158
53.3 -74.9 29.8 157 160 159
54.4 -75.5 30.1 157 160 159
55.0 -75.3 30.0 158 161 160
55.7 -75.2 30.0 158 161 160
138.2 -106.7 42.5 107 107 107
137.9 -105.7 42.1 104 104 104
138.6 -105.5 42.0 107 107 107
139.6 -105.5 42.0 104 104 104
39.7 -194.3 78.2 161 161 161
43.6 -195.1 78.5 164 164 164
45.4 -195.1 78.5 163 163 163
47.2 -195.1 78.5 163 163 163
49.0 -195.1 78.5 163 163 163
50.9 -195.1 78.5 166 166 166
52.7 -195.1 78.5 166 166 166
54.5 -195.1 78.5 166 166 166
56.3 -195.1 78.5 166 166 166
58.1 -195.1 78.5 166 166 166
60.0 -195.1 78.5 166 166 166
61.8 -195.1 78.5 166 166 166
63.6 -195.1 78.5 166 166 166
65.4 -195.1 78.5 166 166 166
67.3 -195.1 78.5 167 167 167
69.1 -195.1 78.5 168 170 169
71.2 -195.9 78.8 167 167 167
73.0 -195.9 78.8 168 170 169
74.9 -195.9 78.8 167 167 167
76.4 -195.1 78.5 164 164 164
78.2 -195.1 78.5 164 164 164
80.0 -195.1 78.5 167 167 167
82.2 -195.9 78.8 164 164 164
84.4 -196.7 79.1 164 164 164
85.9 -195.9 78.8 164 164 164
87.0 -194.3 78.2 164 164 164
89.2 -195.1 78.5 164 164 164
91.7 -196.7 79.1 161 161 161
93.6 -196.7 79.1 161 161 161
94.6 -195.1 78.5 161 161 161
97.7 -197.6 79.5 161 161 161
99.1 -196.7 79.1 161 161 161
95.4 -185.9 74.8 161 161 161
221.3 -423.6 170.4 162 162 162
109.7 -206.2 83.0 162 162 162
114.4 -200.9 80.8 162 162 162
114.3 -197.6 79.5 160 160 160
121.8 -207.1 83.3 160 160 160
121.6 -203.6 81.9 160 160 160
116.4 -191.9 77.2 160 160 160
115.4 -187.3 75.4 160 160 160
115.8 -185.1 74.5 160 160 160
128.1 -201.8 81.2 156 159 158
128.3 -199.2 80.2 156 159 158
53.3 -75.1 30.2 156 159 158
53.7 -74.8 30.1 157 160 159
55.2 -75.8 30.5 157 160 159
55.8 -75.7 30.5 158 161 160
56.3 -75.4 30.3 158 161 160
56.8 -75.1 30.2 158 161 160
133.4 -102.0 41.0 104 104 104
132.3 -100.5 40.4 104 104 104
126.0 -95.0 38.2 104 104 104
134.8 -100.9 40.6 104 104 104
85.0 -180.6 73.3 164 164 164
87.4 -182.0 73.9 164 164 164
88.4 -180.6 73.3 159 159 159
90.8 -182.0 73.9 159 159 159
92.5 -182.0 73.9 161 161 161
84.4 -162.9 66.1 161 161 161
73.1 -138.6 56.3 159 159 159
140.5 -261.7 106.3 159 159 159
111.9 -188.6 76.6 162 162 162
111.9 -185.6 75.4 162 162 162
85.9 -138.2 56.1 160 160 160
108.1 -171.3 69.5 162 162 162
116.1 -181.3 73.6 163 163 163
119.2 -183.4 74.5 161 161 161
119.1 -180.6 73.3 164 164 164
53.8 -75.1 30.5 156 159 158
54.3 -74.8 30.4 157 160 159
56.8 -77.3 31.4 157 160 159
57.8 -76.6 31.1 158 161 160
121.4 -91.3 37.1 104 104 104
115.3 -86.1 35.0 104 104 104
115.1 -85.3 34.6 97 100 99
58.1 -39.2 15.9 162 165 164
58.1 -39.0 15.8 196 199 198
58.7 -39.1 15.9 196 199 198
59.5 -39.4 16.0 211 211 211
59.5 -39.2 15.9 169 169 169
59.2 -38.8 15.7 161 161 161
59.8 -38.9 15.8 211 211 211
60.1 -38.9 15.8 186 186 186
60.3 -38.8 15.7 196 199 198
37.4 -127.1 52.1 166 169 168
38.2 -125.7 51.5 166 169 168
36.0 -114.8 47.1 168 170 169
39.9 -113.7 46.6 167 167 167
43.7 -115.1 47.2 167 167 167
50.3 -126.1 51.7 164 164 164
51.8 -113.7 46.6 164 164 164
53.1 -113.9 46.7 164 164 164
61.1 -126.1 51.7 164 164 164
62.7 -126.8 52.0 161 161 161
63.3 -125.7 51.5 161 161 161
64.4 -125.4 51.4 164 164 164
67.4 -128.9 52.8 164 164 164
64.0 -120.2 49.3 162 162 162
60.4 -111.5 45.7 162 162 162
82.9 -134.1 55.0 162 162 162
81.4 -129.6 53.1 162 162 162
71.7 -112.5 46.1 162 162 162
132.0 -204.2 83.7 163 163 163
55.1 -75.3 30.9 159 162 161
57.6 -77.7 31.8 160 163 162
59.0 -78.5 32.2 160 163 162
59.3 -77.9 32.0 161 164 163
58.6 -76.0 31.2 158 161 160
103.3 -75.9 31.1 103 102 100
104.2 -76.0 31.2 103 102 100
57.0 -38.1 15.6 161 161 161
57.2 -38.0 15.6 198 201 200
57.7 -38.1 15.6 195 195 195
58.0 -38.1 15.6 205 205 205
58.3 -38.0 15.6 206 206 206
57.9 -37.5 15.4 211 211 211
27.5 -106.5 44.1 166 169 168
28.6 -106.8 44.2 166 166 166
29.7 -106.8 44.2 166 169 168
30.7 -106.8 44.2 170 172 172
31.6 -106.5 44.1 166 169 168
32.8 -107.0 44.3 170 172 172
34.0 -107.5 44.5 168 170 169
34.8 -106.8 44.2 168 170 169
35.8 -106.8 44.2 166 166 166
36.9 -106.8 44.2 166 166 166
37.7 -106.3 44.0 167 167 167
38.9 -106.8 44.2 167 167 167
39.9 -106.8 44.2 167 167 167
41.1 -107.0 44.3 167 167 167
42.0 -106.8 44.2 167 167 167
43.0 -106.8 44.2 167 167 167
44.0 -106.8 44.2 164 164 164
44.9 -106.3 44.0 167 167 167
46.0 -106.5 44.1 167 167 167
47.2 -107.0 44.3 167 167 167
48.3 -107.0 44.3 164 164 164
49.1 -106.5 44.1 167 167 167
50.2 -106.8 44.2 167 167 167
51.0 -106.3 44.0 167 167 167
52.3 -106.8 44.2 167 167 167
53.3 -106.8 44.2 167 167 167
54.3 -106.8 44.2 167 167 167
55.5 -107.0 44.3 167 167 167
56.5 -107.0 44.3 167 167 167
57.5 -107.0 44.3 168 168 168
58.0 -106.0 43.9 168 168 168
58.2 -104.6 43.3 168 168 168
65.6 -106.8 44.2 162 162 162
70.0 -108.8 45.0 162 162 162
135.0 -206.8 85.6 166 166 166
136.4 -205.9 85.2 163 163 163
59.5 -79.5 32.9 165 165 165
61.2 -80.6 33.4 165 165 165
61.6 -80.2 33.2 161 164 163
61.3 -78.8 32.6 161 164 163
83.5 -106.0 43.9 159 162 161
98.0 -71.3 29.5 104 104 104
53.6 -35.1 14.5 195 195 195
53.5 -34.8 14.4 186 186 186
56.3 -36.1 15.0 211 211 211
55.1 -35.2 14.6 179 182 181
54.5 -34.6 14.3 217 217 217
55.2 -34.8 14.4 214 214 214
30.3 -101.0 42.2 166 169 168
33.2 -100.8 42.1 166 166 166
34.2 -101.0 42.2 166 166 166
35.1 -100.8 42.1 166 166 166
36.0 -100.6 42.0 167 167 167
37.1 -100.8 42.1 167 167 167
38.1 -100.8 42.1 167 167 167
42.0 -100.8 42.1 167 167 167
42.9 -100.6 42.0 168 170 169
48.9 -101.0 42.2 169 171 170
49.9 -101.0 42.2 169 171 170
55.1 -103.3 43.2 167 167 167
54.8 -101.0 42.2 169 171 170
54.6 -98.8 41.3 169 171 170
54.8 -97.5 40.8 169 171 170
143.5 -217.6 90.9 171 173 173
141.5 -211.5 88.4 169 169 169
129.6 -191.0 79.8 169 169 169
263.4 -348.2 145.5 167 167 167
61.3 -80.0 33.4 168 168 168
52.7 -34.1 14.3 196 199 198
52.5 -33.8 14.1 179 182 181
53.3 -34.1 14.2 192 192 192
54.1 -34.2 14.3 211 211 211
53.6 -33.7 14.1 217 217 217
54.0 -33.7 14.1 217 217 217
52.6 -97.7 41.2 169 171 170
53.3 -97.2 41.0 169 171 170
53.7 -96.2 40.6 169 171 170
56.3 -97.4 41.1 169 171 170
119.3 -187.5 79.1 170 172 172
53.9 -82.1 34.6 173 175 175
136.3 -204.7 86.4 174 176 176
135.8 -201.0 84.8 171 173 173
129.6 -189.1 79.8 171 173 173
135.0 -191.6 80.8 175 177 177
78.5 -54.9 23.2 97 100 99
58.1 -38.7 16.3 94 94 94
45.0 -28.5 12.0 179 182 181
52.0 -32.2 13.6 219 219 219
34.5 -79.4 33.8 176 176 176
35.0 -78.7 33.5 176 176 176
35.6 -78.4 33.4 177 177 177
36.2 -78.0 33.2 177 177 177
37.6 -79.3 33.8 177 177 177
38.4 -79.3 33.8 177 177 177
38.9 -78.7 33.5 179 179 179
39.5 -78.4 33.4 177 177 177
40.3 -78.4 33.4 172 174 174
41.1 -78.6 33.5 179 179 179
41.9 -78.6 33.5 181 181 181
42.9 -79.0 33.7 177 177 177
43.9 -79.3 33.8 179 179 179
44.7 -79.3 33.8 182 182 182
45.4 -79.3 33.8 180 180 180
45.9 -78.7 33.5 177 177 177
46.8 -79.0 33.7 182 182 182
47.5 -78.7 33.5 180 180 180
48.4 -79.0 33.7 182 182 182
49.1 -78.8 33.6 178 178 178
130.2 -202.7 86.4 180 180 180
143.5 -213.4 90.9 181 181 181
137.6 -201.7 86.0 171 173 173
131.9 -190.5 81.2 174 176 176
149.1 -212.4 90.5 180 180 180
143.0 -200.8 85.6 180 180 180
73.9 -51.5 21.9 97 100 99
72.3 -49.7 21.2 97 100 99
56.6 -37.4 15.9 94 94 94
56.3 -37.0 15.8 94 94 94
44.8 -28.3 12.1 203 203 203
44.6 -28.0 11.9 208 208 208
44.8 -27.9 11.9 211 211 211
45.1 -27.9 11.9 214 214 214
45.4 -28.0 11.9 217 217 217
33.9 -73.9 31.8 181 181 181
37.1 -74.4 32.0 198 198 198
38.4 -72.6 31.3 195 195 195
39.9 -74.0 31.8 198 198 198
42.3 -74.4 32.0 202 202 202
43.1 -74.4 32.0 198 198 198
42.8 -72.6 31.3 202 202 202
44.2 -73.9 31.8 198 198 198
45.0 -73.9 31.8 198 198 198
45.6 -73.6 31.7 202 202 202
46.4 -73.7 31.7 202 202 202
46.4 -72.6 31.3 202 202 202
145.6 -214.4 92.3 203 203 203
140.8 -204.4 88.0 196 196 196
133.6 -191.1 82.2 199 199 199
149.8 -211.3 90.9 200 200 200
147.0 -204.4 88.0 204 204 204
137.5 -188.6 81.2 200 200 200
69.8 -48.1 20.7 103 102 100
68.8 -47.2 20.3 103 102 100
68.9 -46.6 20.1 97 100 99
56.6 -37.0 15.9 94 94 94
56.1 -36.5 15.7 94 94 94
43.7 -27.2 11.7 211 211 211
43.9 -27.1 11.7 196 199 198
43.7 -26.8 11.5 208 208 208
44.0 -26.9 11.6 217 217 217
44.3 -26.8 11.5 219 219 219
35.1 -69.7 30.3 202 202 202
35.2 -68.5 29.8 202 202 202
36.4 -69.5 30.2 202 202 202
39.6 -70.2 30.5 202 202 202
40.3 -70.1 30.5 202 202 202
41.1 -70.3 30.6 202 202 202
41.5 -69.7 30.3 202 202 202
42.1 -69.6 30.3 202 202 202
43.2 -70.2 30.5 202 202 202
43.9 -70.2 30.5 202 202 202
44.4 -69.9 30.4 202 202 202
44.6 -69.2 30.1 202 202 202
146.3 -213.3 92.7 203 203 203
144.2 -207.2 90.1 203 203 203
136.5 -193.4 84.1 203 203 203
147.0 -205.2 89.2 204 204 204
151.2 -208.2 90.5 204 204 204
142.4 -193.4 84.1 204 204 204
26.5 -34.5 15.0 205 205 205
26.7 -34.3 14.9 206 206 206
117.5 -84.3 36.7 110 112 111
56.1 -36.0 15.7 97 100 99
43.0 -26.1 11.3 175 175 175
42.9 -25.9 11.3 214 214 214
43.5 -26.1 11.3 217 217 217
34.3 -67.3 29.6 204 204 204
34.9 -67.3 29.6 204 204 204
35.6 -67.3 29.6 204 204 204
36.3 -67.3 29.6 204 204 204
37.1 -67.4 29.6 204 204 204
40.1 -69.1 30.4 204 204 204
40.8 -69.0 30.3 204 204 204
41.0 -68.2 30.0 204 204 204
41.3 -67.6 29.7 204 204 204
43.2 -69.6 30.6 204 204 204
43.9 -69.5 30.5 204 204 204
44.4 -69.1 30.4 204 204 204
44.2 -67.7 29.7 204 204 204
44.2 -66.8 29.3 204 204 204
149.2 -215.3 94.6 205 205 205
145.6 -207.0 90.9 205 205 205
137.2 -192.3 84.4 205 205 205
146.3 -202.2 88.8 206 206 206
151.9 -207.0 90.9 206 206 206
145.6 -195.7 86.0 204 204 204
26.4 -34.1 15.0 205 205 205
26.7 -34.0 14.9 206 206 206
117.3 -83.3 36.6 111 113 112
41.1 -70.0 31.1 204 204 204
41.6 -69.6 30.9 207 207 207
41.5 -68.3 30.3 207 207 207
41.3 -66.9 29.7 207 207 207
44.2 -70.5 31.3 204 204 204
44.5 -69.8 31.0 204 204 204
45.2 -69.8 31.0 204 204 204
45.0 -68.3 30.3 204 204 204
43.8 -65.5 29.1 204 204 204
145.6 -207.9 92.3 205 205 205
145.6 -204.9 90.9 205 205 205
135.9 -188.6 83.7 205 205 205
142.3 -194.6 86.4 206 206 206
151.2 -203.9 90.5 206 206 206
147.7 -196.4 87.2 206 206 206
27.7 -36.4 16.2 207 207 207
26.7 -34.1 15.1 205 205 205
26.7 -33.7 15.0 206 206 206
121.8 -86.3 38.3 114 116 115
36.3 -65.8 29.5 207 207 207
36.9 -65.7 29.5 207 207 207
40.5 -67.2 30.1 207 207 207
40.6 -66.1 29.6 207 207 207
40.5 -64.9 29.1 207 207 207
45.1 -71.1 31.9 207 207 207
44.0 -68.3 30.6 207 207 207
46.4 -70.8 31.7 207 207 207
45.0 -67.6 30.3 207 207 207
43.8 -64.8 29.1 207 207 207
147.0 -207.8 93.2 207 207 207
145.6 -202.8 90.9 205 205 205
135.3 -185.8 83.3 205 205 205
142.9 -193.5 86.8 205 205 205
149.8 -199.9 89.7 206 206 206
27.8 -36.1 16.2 206 206 206
27.7 -35.5 15.9 207 207 207
27.1 -34.3 15.4 207 207 207
27.8 -34.3 15.4 205 205 205
121.3 -73.2 32.8 195 195 195
121.0 -72.6 32.6 147 147 147
35.7 -64.0 29.0 206 206 206
36.1 -63.6 28.8 206 206 206
39.8 -65.2 29.6 206 206 206
39.7 -64.0 29.0 206 206 206
39.9 -63.3 28.7 206 206 206
44.4 -69.2 31.4 206 206 206
43.7 -67.0 30.4 206 206 206
45.5 -68.8 31.2 206 206 206
45.1 -67.0 30.4 206 206 206
43.7 -63.9 29.0 206 206 206
44.0 -63.4 28.7 206 206 206
147.0 -202.6 91.8 207 207 207
139.0 -188.9 85.6 207 207 207
147.7 -197.8 89.7 205 205 205
27.7 -35.2 15.9 206 206 206
27.1 -33.9 15.4 207 207 207
27.3 -33.7 15.3 207 207 207
27.8 -33.9 15.3 207 207 207
23.4 -26.5 12.0 207 207 207
885.4 -652.3 295.6 139 139 139
120.2 -71.9 32.6 156 156 156
118.7 -70.5 32.0 192 192 192
33.5 -63.1 28.9 203 203 203
34.4 -63.4 29.1 206 206 206
34.9 -63.3 29.0 206 206 206
35.5 -63.2 28.9 206 206 206
35.9 -62.7 28.7 206 206 206
36.6 -62.7 28.7 206 206 206
37.3 -62.8 28.7 209 209 209
39.6 -64.2 29.4 206 206 206
39.6 -63.3 29.0 206 206 206
39.6 -62.2 28.5 206 206 206
42.9 -65.2 29.8 203 203 203
42.9 -64.0 29.3 206 206 206
44.2 -65.0 29.8 206 206 206
43.9 -63.5 29.1 206 206 206
43.8 -62.4 28.6 206 206 206
27.7 -34.8 15.9 206 206 206
27.1 -33.6 15.4 206 206 206
27.2 -33.2 15.2 206 206 206
27.7 -33.4 15.3 207 207 207
23.7 -26.5 12.1 206 206 206
118.4 -70.0 32.1 104 104 104
118.1 -69.4 31.8 203 203 203
116.3 -67.9 31.1 190 190 190
35.4 -61.0 28.2 209 209 209
36.0 -60.9 28.2 208 208 208
36.6 -60.8 28.1 208 208 208
39.5 -63.4 29.3 208 208 208
39.1 -61.7 28.6 208 208 208
39.2 -60.8 28.1 208 208 208
42.8 -64.3 29.7 205 205 205
42.0 -62.1 28.7 208 208 208
44.1 -64.2 29.7 205 205 205
43.7 -62.7 29.0 205 205 205
43.4 -61.2 28.3 205 205 205
43.6 -60.6 28.1 205 205 205
27.3 -33.4 15.5 205 205 205
27.3 -33.0 15.3 206 206 206
27.7 -33.0 15.3 206 206 206
23.6 -26.5 12.3 205 205 205
23.7 -26.2 12.1 206 206 206
121.3 -70.9 32.8 103 102 100
120.0 -69.7 32.3 87 89 88
-9.9 -23.3 10.9 134 134 134
-9.7 -23.3 10.9 136 138 137
-9.5 -23.4 11.0 136 138 137
-9.2 -23.4 10.9 139 139 139
-8.9 -23.4 10.9 140 142 141
-8.7 -23.3 10.9 140 142 141
-8.4 -23.3 10.9 140 142 141
-8.2 -23.4 10.9 141 141 141
-7.7 -23.4 10.9 144 144 144
-7.2 -23.4 11.0 145 145 144
-6.9 -23.4 10.9 148 148 148
-6.4 -23.4 10.9 158 158 158
-6.1 -23.3 10.9 162 162 162
-5.9 -23.4 10.9 162 162 162
-5.6 -23.3 10.9 165 165 165
-5.4 -23.3 10.9 165 168 167
-5.1 -23.4 10.9 164 167 166
-4.8 -23.3 10.9 162 165 164
-4.6 -23.3 10.9 167 167 167
-4.4 -23.4 10.9 168 168 168
-4.1 -23.3 10.9 167 167 167
-3.8 -23.4 10.9 168 168 168
-3.6 -23.3 10.9 170 171 170
-3.3 -23.3 10.9 171 173 173
-3.1 -23.4 11.0 171 173 173
-2.8 -23.4 11.0 171 173 173
-2.6 -23.4 10.9 171 173 173
-2.3 -23.4 10.9 173 175 175
-2.1 -23.4 10.9 173 175 175
-1.8 -23.3 10.9 177 177 177
-1.6 -23.3 10.9 177 177 177
-1.3 -23.3 10.9 177 177 177
-1.0 -23.3 10.9 177 177 177
-0.8 -23.4 11.0 177 177 177
-0.5 -23.3 10.9 177 177 177
-0.3 -23.3 10.9 179 179 179
-0.0 -23.3 10.9 179 179 179
0.2 -23.4 10.9 179 179 179
0.5 -23.4 10.9 181 181 181
0.7 -23.4 11.0 181 181 181
1.0 -23.4 11.0 181 181 181
1.2 -23.4 10.9 181 181 181
1.5 -23.4 11.0 178 178 178
1.8 -23.4 11.0 181 181 181
2.0 -23.4 10.9 180 180 180
2.3 -23.4 11.0 183 183 183
2.5 -23.5 11.0 183 183 183
2.8 -23.4 11.0 182 182 182
3.0 -23.4 10.9 182 182 182
3.3 -23.4 11.0 182 182 182
3.8 -23.4 11.0 182 182 182
4.0 -23.4 11.0 182 182 182
5.6 -23.4 11.0 209 209 209
5.8 -23.4 10.9 209 209 209
6.1 -23.4 10.9 209 209 209
6.3 -23.4 10.9 209 209 209
6.6 -23.4 10.9 209 209 209
6.8 -23.4 11.0 209 209 209
7.1 -23.3 10.9 209 209 209
7.3 -23.3 10.9 209 209 209
7.6 -23.3 10.9 209 209 209
7.8 -23.4 10.9 209 209 209
8.1 -23.4 11.0 209 209 209
8.3 -23.3 10.9 209 209 209
8.6 -23.3 10.9 209 209 209
8.9 -23.4 10.9 209 209 209
9.1 -23.4 10.9 209 209 209
9.4 -23.3 10.9 209 209 209
9.6 -23.3 10.9 209 209 209
9.9 -23.3 10.9 208 208 208
10.1 -23.3 10.9 208 208 208
10.4 -23.3 10.9 208 208 208
44.1 -71.3 33.4 208 208 208
39.0 -59.9 28.0 208 208 208
43.8 -65.1 30.5 202 202 202
47.7 -69.7 32.6 208 208 208
45.9 -66.1 30.9 208 208 208
45.0 -63.8 29.8 205 205 205
44.2 -61.6 28.8 202 202 202
43.2 -59.5 27.8 205 205 205
27.6 -33.4 15.6 205 205 205
27.8 -33.2 15.6 205 205 205
27.7 -32.7 15.3 205 205 205
23.6 -25.8 12.1 205 205 205
25.8 -28.0 13.1 205 205 205
121.3 -70.2 32.8 107 107 107
121.0 -69.6 32.6 107 107 107
-10.0 -23.3 11.0 134 134 134
-9.8 -23.3 11.0 133 133 133
-9.5 -23.3 11.0 134 137 136
-9.3 -23.4 11.0 138 137 136
-9.0 -23.4 11.0 139 139 139
-8.8 -23.3 11.0 138 140 139
-8.5 -23.3 11.0 144 144 144
-8.2 -23.3 11.0 146 146 146
-8.0 -23.4 11.0 147 149 149
-7.8 -23.4 11.1 144 146 146
-7.5 -23.4 11.1 146 146 146
-7.2 -23.4 11.1 151 151 151
-7.0 -23.3 11.0 151 153 153
-6.7 -23.3 11.0 158 161 160
-6.4 -23.3 11.0 165 165 165
-6.2 -23.3 11.0 169 171 170
-5.9 -23.4 11.0 168 170 169
-5.7 -23.3 11.0 165 168 167
-5.4 -23.3 11.0 170 171 170
-5.2 -23.3 11.0 169 169 169
-4.9 -23.3 11.0 176 176 176
-4.7 -23.4 11.0 174 174 174
-4.4 -23.3 11.0 173 175 175
-4.1 -23.3 11.0 179 179 179
-3.9 -23.4 11.1 178 178 178
-3.6 -23.3 11.0 177 177 177
-3.4 -23.3 11.0 180 180 180
-3.1 -23.4 11.0 180 180 180
-2.9 -23.4 11.0 182 182 182
-2.6 -23.3 11.0 179 179 179
-2.3 -23.3 11.0 182 182 182
-2.1 -23.4 11.0 182 182 182
-1.8 -23.3 11.0 182 182 182
-1.6 -23.3 11.0 182 182 182
-1.3 -23.3 11.0 182 182 182
-1.1 -23.3 11.0 181 181 181
-0.8 -23.3 11.0 181 181 181
-0.5 -23.3 11.0 181 181 181
-0.3 -23.3 11.0 181 181 181
-0.0 -23.4 11.0 181 181 181
0.2 -23.3 11.0 181 181 181
0.5 -23.3 11.0 180 180 180
0.7 -23.4 11.0 180 180 180
1.0 -23.4 11.0 180 180 180
1.3 -23.3 11.0 180 180 180
1.5 -23.4 11.0 180 180 180
1.8 -23.4 11.0 182 182 182
2.0 -23.4 11.0 182 182 182
2.3 -23.3 11.0 182 182 182
2.5 -23.4 11.0 182 182 182
2.8 -23.4 11.0 182 182 182
3.0 -23.3 11.0 185 185 185
3.3 -23.4 11.0 185 185 185
3.6 -23.4 11.0 181 181 181
3.8 -23.4 11.0 185 185 185
4.1 -23.4 11.0 185 185 185
4.3 -23.3 11.0 181 181 181
4.6 -23.4 11.0 184 184 184
4.8 -23.4 11.0 169 171 170
5.6 -23.4 11.1 209 209 209
5.9 -23.4 11.0 209 209 209
6.1 -23.3 11.0 209 209 209
6.4 -23.4 11.0 209 209 209
6.6 -23.3 11.0 211 211 211
6.9 -23.3 11.0 211 211 211
7.2 -23.3 11.0 208 208 208
7.4 -23.3 11.0 208 208 208
7.7 -23.3 11.0 211 211 211
7.9 -23.3 11.0 208 208 208
8.2 -23.3 11.0 208 208 208
8.4 -23.3 11.0 211 211 211
8.7 -23.3 11.0 211 211 211
9.0 -23.4 11.0 208 208 208
9.2 -23.4 11.0 208 208 208
9.5 -23.4 11.0 208 208 208
9.7 -23.3 11.0 208 208 208
10.0 -23.3 11.0 208 208 208
10.2 -23.3 11.0 208 208 208
10.5 -23.3 11.0 208 208 208
10.8 -23.4 11.0 208 208 208
11.0 -23.4 11.0 208 208 208
43.9 -70.2 33.2 207 207 207
44.4 -69.8 33.0 207 207 207
46.8 -71.0 33.6 207 207 207
46.4 -69.3 32.8 207 207 207
48.2 -69.7 33.0 207 207 207
47.6 -67.8 32.1 207 207 207
46.2 -64.8 30.7 207 207 207
27.5 -32.1 15.2 205 205 205
27.1 -31.2 14.8 205 205 205
120.2 -68.8 32.6 109 109 109
120.0 -68.2 32.3 110 112 111
-10.0 -23.1 11.0 122 124 123
-9.7 -23.0 11.0 128 130 129
-9.5 -23.0 11.0 126 129 128
-9.3 -23.0 11.0 131 131 131
-9.0 -23.1 11.0 136 135 134
-4.4 -23.0 11.0 186 186 186
0.2 -22.9 11.0 182 182 182
0.5 -22.9 11.0 182 182 182
0.7 -23.1 11.0 182 182 182
1.5 -23.1 11.0 179 179 179
1.8 -23.1 11.0 181 181 181
47.0 -75.6 36.2 207 207 207
44.8 -70.9 33.9 207 207 207
47.4 -70.0 33.5 207 207 207
49.1 -70.2 33.6 207 207 207
48.6 -68.4 32.7 207 207 207
27.7 -31.9 15.3 204 204 204
26.2 -29.5 14.1 205 205 205
120.2 -68.1 32.6 110 112 111
-9.5 -22.8 11.0 109 109 109
10.9 -29.4 14.2 210 210 210
12.2 -29.4 14.2 207 207 207
13.5 -29.4 14.2 207 207 207
13.8 -29.4 14.2 207 207 207
14.2 -29.4 14.2 207 207 207
14.5 -29.4 14.2 207 207 207
14.8 -29.4 14.2 207 207 207
15.3 -29.6 14.3 207 207 207
15.5 -29.4 14.2 207 207 207
47.3 -75.4 36.4 207 207 207
50.0 -74.3 36.0 206 206 206
60.5 -74.9 36.2 205 205 205
64.7 -79.0 38.2 205 205 205
27.7 -31.7 15.3 208 208 208
26.3 -29.3 14.2 204 204 204
23.1 -24.2 11.7 206 206 206
23.2 -24.0 11.6 206 206 206
113.6 -61.3 29.6 87 87 87
-32.5 -30.7 15.0 46 46 46
-31.7 -30.6 15.0 43 43 43
-29.0 -33.1 16.2 47 47 47
-9.5 -22.6 11.1 27 28 26
10.4 -30.5 14.9 210 210 210
11.1 -30.6 15.0 210 210 210
11.1 -29.7 14.6 210 210 210
11.8 -30.6 15.0 210 210 210
12.2 -30.7 15.0 209 209 209
12.5 -30.6 15.0 209 209 209
12.8 -30.6 15.0 209 209 209
13.2 -30.6 15.0 209 209 209
13.6 -30.7 15.0 209 209 209
14.2 -30.6 15.0 207 207 207
14.6 -30.7 15.0 204 204 204
15.0 -30.7 15.0 207 207 207
15.3 -30.6 15.0 206 206 206
15.6 -30.6 15.0 206 206 206
15.6 -29.9 14.6 206 206 206
15.7 -29.5 14.5 206 206 206
17.4 -30.7 15.0 206 206 206
47.8 -75.2 36.8 206 206 206
50.3 -75.1 36.7 206 206 206
50.1 -73.7 36.0 206 206 206
62.1 -76.0 37.2 207 207 207
65.4 -78.9 38.6 207 207 207
27.8 -31.4 15.4 205 205 205
26.4 -29.1 14.2 206 206 206
23.3 -24.1 11.8 205 205 205
23.2 -23.8 11.6 205 205 205
113.6 -60.6 29.6 103 102 100
-43.2 -31.0 15.4 54 54 54
-43.0 -31.1 15.4 54 54 54
-42.7 -31.2 15.4 54 54 54
-42.4 -31.2 15.5 54 54 54
-41.9 -31.1 15.4 54 54 54
-41.5 -31.1 15.4 57 58 56
-41.3 -31.2 15.4 57 58 56
-41.0 -31.2 15.4 57 58 56
-40.6 -31.2 15.4 57 58 56
-40.2 -31.2 15.4 55 55 55
-39.8 -31.2 15.4 55 55 55
-39.5 -31.2 15.4 55 55 55
-39.1 -31.2 15.4 55 55 55
-38.9 -31.3 15.5 55 55 55
-38.5 -31.3 15.5 55 55 55
-38.0 -31.2 15.4 53 53 53
-37.7 -31.2 15.4 51 51 51
-37.4 -31.3 15.5 49 48 47
-36.7 -31.3 15.5 46 46 46
-36.3 -31.2 15.4 46 46 46
-35.9 -31.2 15.4 47 47 47
-35.6 -31.2 15.5 50 49 48
-35.2 -31.2 15.4 47 47 47
-34.9 -31.2 15.4 47 47 47
-34.5 -31.2 15.4 47 47 47
-34.2 -31.2 15.5 47 47 47
-33.8 -31.2 15.4 47 47 47
-33.4 -31.2 15.4 47 47 47
-33.0 -31.1 15.4 47 47 47
-32.7 -31.2 15.4 44 44 44
-32.4 -31.3 15.5 44 44 44
-32.1 -31.3 15.5 44 44 44
-31.6 -31.2 15.4 47 47 47
-31.2 -31.2 15.4 45 45 45
-30.9 -31.2 15.4 42 43 42
-30.1 -31.1 15.4 41 41 41
-29.9 -31.3 15.5 41 41 41
-29.5 -31.3 15.5 41 41 41
-29.1 -31.2 15.5 41 41 41
-28.7 -31.2 15.4 42 42 42
-28.4 -31.2 15.4 43 43 43
-28.1 -31.3 15.5 42 42 42
-27.8 -31.3 15.5 44 44 44
-27.2 -31.1 15.4 44 44 44
-26.9 -31.1 15.4 55 55 55
-9.9 -23.9 11.8 30 30 30
-12.3 -31.4 15.5 122 124 123
-11.9 -31.3 15.5 180 183 182
9.3 -31.3 15.5 209 209 209
9.6 -31.2 15.4 209 209 209
9.9 -30.9 15.3 209 209 209
10.3 -31.1 15.4 209 209 209
10.7 -31.1 15.4 209 209 209
11.1 -31.2 15.4 209 209 209
11.4 -31.1 15.4 209 209 209
11.8 -31.2 15.4 209 209 209
12.2 -31.2 15.5 209 209 209
12.5 -31.2 15.4 209 209 209
12.9 -31.2 15.4 209 209 209
13.2 -31.1 15.4 209 209 209
13.6 -31.2 15.4 209 209 209
13.9 -31.2 15.4 209 209 209
14.3 -31.2 15.4 206 206 206
14.7 -31.2 15.4 206 206 206
15.0 -31.2 15.4 209 209 209
15.4 -31.2 15.4 206 206 206
15.8 -31.3 15.5 206 206 206
16.1 -31.1 15.4 206 206 206
16.4 -31.1 15.4 211 211 211
16.8 -31.1 15.4 211 211 211
17.2 -31.3 15.5 206 206 206
17.6 -31.3 15.5 209 209 209
17.9 -31.1 15.4 209 209 209
18.3 -31.2 15.5 209 209 209
18.6 -31.2 15.5 209 209 209
19.0 -31.2 15.4 206 206 206
19.3 -31.2 15.4 206 206 206
19.7 -31.2 15.4 206 206 206
66.3 -79.1 39.2 207 207 207
27.9 -31.2 15.4 205 205 205
26.5 -28.9 14.3 205 205 205
27.4 -29.1 14.4 206 206 206
23.3 -23.9 11.8 204 204 204
23.3 -23.6 11.7 205 205 205
23.9 -24.0 11.9 205 205 205
1106.3 -707.9 350.3 184 184 184
-44.4 -31.5 15.8 55 55 55
-44.4 -31.8 15.9 55 55 55
-43.8 -31.9 16.0 55 55 55
-43.3 -31.8 15.9 55 55 55
-43.6 -32.3 16.2 58 59 57
-42.8 -31.9 16.0 58 59 57
-42.3 -31.9 16.0 61 61 61
-41.2 -31.9 16.0 55 55 55
-40.8 -31.9 15.9 59 60 58
-39.4 -31.9 16.0 54 54 54
-36.7 -31.8 15.9 47 48 47
-36.3 -31.8 15.9 47 48 47
-36.2 -32.4 16.2 47 48 47
-35.4 -32.0 16.0 47 48 47
-34.9 -31.8 15.9 47 48 47
-34.6 -31.9 16.0 47 48 47
-34.4 -32.1 16.0 47 48 47
-33.8 -31.9 16.0 47 48 47
-33.2 -31.6 15.8 46 46 46
-32.7 -31.9 16.0 46 46 46
-32.2 -31.8 15.9 46 46 46
-32.0 -31.9 16.0 42 42 42
-31.6 -31.9 16.0 42 42 42
-30.8 -31.9 16.0 42 42 42
-30.9 -32.3 16.2 40 40 40
-30.0 -31.8 15.9 40 40 40
-30.1 -32.3 16.2 40 40 40
-29.3 -31.9 15.9 40 40 40
-29.3 -32.2 16.1 42 43 42
-29.0 -32.3 16.2 42 43 42
-28.2 -31.8 15.9 43 43 43
-27.9 -32.0 16.0 45 45 45
-10.0 -23.8 11.9 31 31 31
-12.6 -31.7 15.9 146 146 146
6.3 -23.8 11.9 209 209 209
6.6 -23.8 11.9 209 209 209
6.9 -23.8 11.9 209 209 209
7.2 -23.8 11.9 209 209 209
7.5 -23.9 11.9 209 209 209
7.7 -23.8 11.9 209 209 209
8.0 -23.8 11.9 209 209 209
8.3 -23.8 11.9 209 209 209
9.7 -23.9 11.9 209 209 209
9.9 -23.8 11.9 208 208 208
10.5 -23.8 11.9 208 208 208
10.8 -23.8 11.9 208 208 208
11.1 -23.9 11.9 208 208 208
11.3 -23.8 11.9 208 208 208
11.6 -23.8 11.9 208 208 208
11.9 -23.8 11.9 208 208 208
12.2 -23.9 11.9 208 208 208
12.5 -23.9 11.9 208 208 208
13.0 -23.9 11.9 208 208 208
13.3 -23.8 11.9 208 208 208
13.6 -23.9 11.9 208 208 208
13.9 -23.9 12.0 208 208 208
14.1 -23.8 11.9 208 208 208
44.0 -62.2 31.1 208 208 208
43.6 -60.6 30.3 208 208 208
46.3 -62.3 31.2 205 205 205
46.7 -61.8 31.0 205 205 205
48.4 -62.3 31.2 205 205 205
45.9 -56.4 28.2 205 205 205
45.6 -55.3 27.7 206 206 206
27.7 -30.6 15.3 210 210 210
27.4 -29.9 15.0 204 204 204
26.8 -28.9 14.5 205 205 205
28.6 -30.4 15.2 205 205 205
28.8 -30.3 15.2 205 205 205
29.4 -30.5 15.3 205 205 205
23.4 -23.4 11.7 204 204 204
963.6 -609.5 305.1 183 183 183
113.6 -59.2 29.6 108 108 108
-46.1 -32.9 16.7 56 56 56
-44.9 -32.8 16.6 59 60 58
-44.5 -32.8 16.6 62 62 62
-44.4 -33.0 16.7 62 62 62
-43.8 -32.9 16.7 59 60 58
-43.5 -32.9 16.7 56 56 56
-43.0 -32.9 16.7 59 60 58
-41.4 -32.8 16.6 55 55 55
-39.1 -32.8 16.6 51 50 48
-38.7 -32.8 16.6 51 51 49
-38.2 -32.8 16.6 48 48 48
-37.9 -32.8 16.6 48 48 48
-37.6 -32.9 16.7 48 48 48
-37.2 -32.9 16.7 48 48 48
-36.7 -32.8 16.6 48 48 48
-36.4 -32.8 16.6 48 48 48
-36.0 -32.8 16.6 48 48 48
-35.5 -32.7 16.6 48 48 48
-35.2 -32.8 16.6 48 48 48
-34.0 -32.8 16.6 47 47 47
-33.7 -32.9 16.7 47 47 47
-33.3 -32.8 16.6 47 47 47
-31.8 -32.8 16.6 43 43 43
-31.3 -32.8 16.6 41 41 41
-30.9 -32.8 16.6 41 41 41
-30.2 -32.8 16.6 42 42 42
-29.7 -32.7 16.6 41 40 38
-29.3 -32.7 16.5 41 41 39
-10.9 -24.3 12.3 31 30 29
-9.9 -24.0 12.1 42 42 42
43.1 -60.1 30.5 207 207 207
42.6 -58.5 29.6 207 207 207
42.2 -57.0 28.9 207 207 207
45.7 -60.7 30.8 207 207 207
45.9 -60.0 30.4 204 204 204
47.3 -60.0 30.4 207 207 207
45.3 -55.1 27.9 205 205 205
44.0 -52.8 26.7 205 205 205
43.9 -51.9 26.3 205 205 205
27.8 -30.4 15.4 209 209 209
28.8 -30.3 15.3 204 204 204
29.1 -30.2 15.3 204 204 204
29.6 -30.3 15.4 205 205 205
30.0 -30.4 15.4 205 205 205
80.9 -41.7 21.1 108 108 108
-35.0 -24.3 12.4 59 60 58
-34.7 -24.3 12.4 57 57 57
-34.5 -24.3 12.4 59 61 59
-34.2 -24.3 12.5 57 57 57
-33.9 -24.3 12.4 59 61 59
-33.6 -24.3 12.4 59 61 59
-33.3 -24.3 12.4 59 61 59
-33.0 -24.3 12.5 59 61 59
-32.7 -24.3 12.4 59 61 59
-32.4 -24.3 12.4 59 61 59
-32.1 -24.3 12.4 59 61 59
-31.9 -24.3 12.5 59 61 59
-31.6 -24.3 12.5 59 61 59
-31.3 -24.3 12.4 58 58 58
-31.0 -24.3 12.5 58 58 58
-30.8 -24.3 12.5 56 56 56
-30.4 -24.3 12.5 53 53 53
-30.1 -24.3 12.4 56 56 56
-29.9 -24.3 12.5 53 53 53
-29.5 -24.3 12.4 51 51 49
-29.3 -24.3 12.4 52 52 50
-29.0 -24.3 12.4 53 53 53
-28.7 -24.3 12.4 52 52 50
-28.4 -24.3 12.4 49 49 49
-28.1 -24.3 12.4 49 49 49
-27.8 -24.3 12.4 49 49 49
-27.5 -24.3 12.5 49 49 49
-27.2 -24.3 12.5 54 54 54
-27.0 -24.3 12.5 49 49 49
-26.7 -24.3 12.5 49 49 49
-26.4 -24.3 12.5 47 48 47
-26.1 -24.3 12.5 47 48 47
-25.8 -24.3 12.5 47 48 47
-25.5 -24.3 12.5 50 50 50
-25.2 -24.3 12.5 47 48 47
-24.9 -24.3 12.5 48 48 48
-24.6 -24.2 12.4 48 48 48
-24.4 -24.3 12.5 46 46 46
-23.8 -24.3 12.5 44 44 44
-23.5 -24.3 12.4 42 42 42
-22.9 -24.3 12.5 42 43 42
-22.6 -24.3 12.5 42 43 42
-22.4 -24.3 12.5 42 43 42
-22.0 -24.3 12.4 42 42 40
-21.7 -24.3 12.4 42 42 40
-21.4 -24.3 12.4 42 42 40
-21.2 -24.3 12.5 43 43 43
-20.3 -24.3 12.5 43 42 41
-20.0 -24.3 12.4 39 41 41
-18.3 -24.3 12.5 20 20 20
-18.0 -24.3 12.5 20 20 20
-17.7 -24.3 12.4 19 19 19
-17.4 -24.3 12.5 20 20 20
-11.6 -24.3 12.4 29 30 28
-11.3 -24.2 12.4 32 31 30
-11.0 -24.3 12.4 34 34 34
-10.7 -24.2 12.4 33 33 33
-10.4 -24.1 12.4 35 37 36
-10.0 -23.9 12.2 43 43 43
-9.3 -24.3 12.4 184 187 186
-9.0 -24.3 12.4 183 186 185
14.4 -24.3 12.5 207 207 207
42.0 -57.0 29.2 207 207 207
41.9 -55.9 28.7 207 207 207
46.7 -57.0 29.2 204 204 204
46.1 -55.3 28.4 204 204 204
44.1 -52.3 26.8 207 207 207
43.9 -51.3 26.3 205 205 205
46.6 -53.6 27.5 205 205 205
29.0 -30.1 15.4 204 204 204
29.9 -30.0 15.4 204 204 204
83.2 -42.6 21.8 111 113 112
79.8 -40.6 20.8 108 108 108
-34.9 -23.9 12.4 59 61 59
-34.7 -23.9 12.4 59 61 59
-34.4 -23.9 12.4 59 61 59
-34.1 -23.9 12.4 63 63 63
-33.8 -23.9 12.4 60 62 60
-33.5 -23.9 12.4 60 62 60
-33.2 -23.9 12.4 60 62 60
-32.9 -23.9 12.4 60 62 60
-32.7 -23.9 12.4 60 62 60
-32.3 -23.9 12.4 60 62 60
-32.1 -23.9 12.4 60 62 60
-31.8 -23.9 12.4 60 62 60
-31.5 -23.9 12.4 60 62 60
-31.2 -23.9 12.4 58 59 59
-30.9 -23.9 12.4 58 59 59
-30.7 -24.0 12.4 57 57 57
-30.3 -23.9 12.4 54 54 54
-30.0 -23.9 12.4 57 57 57
-29.8 -23.9 12.4 54 54 54
-29.5 -23.9 12.4 52 52 50
-29.2 -23.9 12.4 53 52 51
-28.9 -23.9 12.4 53 52 51
-28.6 -23.9 12.4 53 52 51
-28.3 -23.9 12.4 53 52 51
-28.0 -23.9 12.4 50 50 50
-27.7 -23.9 12.4 50 50 50
-27.5 -23.9 12.4 50 50 50
-27.2 -23.9 12.4 53 52 51
-26.9 -23.9 12.4 50 50 50
-26.6 -24.0 12.4 51 51 51
-26.3 -24.0 12.4 51 51 51
-26.0 -24.0 12.4 51 51 51
-25.7 -24.0 12.4 51 51 51
-25.5 -24.0 12.4 51 51 51
-25.2 -24.0 12.4 49 49 49
-24.9 -24.0 12.4 49 49 49
-24.5 -23.9 12.4 49 49 49
-24.3 -23.9 12.4 47 47 47
-24.0 -24.0 12.4 47 48 47
-23.7 -23.9 12.4 45 45 45
-23.4 -23.9 12.4 45 45 45
-23.1 -23.9 12.4 43 43 43
-22.8 -23.9 12.4 43 43 43
-22.6 -24.0 12.4 43 43 43
-22.3 -24.0 12.4 44 44 44
-22.0 -23.9 12.4 44 44 44
-21.6 -23.9 12.4 43 42 41
-21.4 -23.9 12.4 43 42 41
-21.1 -24.0 12.4 44 43 42
-20.8 -24.0 12.4 44 43 42
-20.6 -24.0 12.4 42 42 42
-20.3 -24.0 12.4 42 42 42
-17.6 -23.9 12.4 19 19 19
-13.0 -23.9 12.4 29 29 29
-12.0 -24.1 12.5 29 31 29
-11.6 -24.0 12.4 29 31 29
-11.3 -23.9 12.4 29 31 29
-11.0 -24.0 12.4 32 31 30
-10.7 -23.9 12.4 33 33 33
-10.4 -23.8 12.4 36 36 36
-10.1 -23.7 12.3 42 42 42
-9.8 -23.8 12.3 166 169 168
-9.5 -23.8 12.3 185 185 185
-9.3 -23.9 12.4 186 188 187
-9.0 -23.9 12.4 182 185 184
14.1 -24.0 12.4 207 207 207
14.4 -23.9 12.4 207 207 207
14.7 -23.9 12.4 207 207 207
15.0 -24.0 12.4 207 207 207
42.2 -56.6 29.4 206 206 206
42.1 -55.5 28.8 206 206 206
47.1 -58.4 30.3 206 206 206
47.6 -57.3 29.7 207 207 207
46.8 -55.6 28.8 207 207 207
44.6 -52.2 27.1 207 207 207
44.6 -51.5 26.7 204 204 204
46.2 -52.6 27.3 204 204 204
25.0 -23.3 12.1 168 168 168
83.3 -42.2 21.9 111 113 112
79.9 -40.2 20.9 109 111 111
-35.0 -23.7 12.4 60 62 60
-34.8 -23.7 12.5 64 64 64
-34.5 -23.7 12.5 64 64 64
-34.2 -23.7 12.5 64 64 64
-33.9 -23.7 12.5 64 64 64
-33.6 -23.7 12.5 61 63 61
-33.3 -23.7 12.4 61 63 61
-33.1 -23.7 12.5 64 64 64
-32.8 -23.7 12.5 64 64 64
-32.5 -23.7 12.5 64 64 64
-32.2 -23.7 12.5 65 65 65
-31.9 -23.7 12.5 61 63 61
-31.6 -23.7 12.5 61 63 61
-31.3 -23.7 12.5 61 63 61
-31.0 -23.8 12.5 59 59 59
-30.8 -23.8 12.5 59 59 59
-30.4 -23.7 12.5 58 58 58
-30.1 -23.7 12.4 55 55 55
-29.9 -23.8 12.5 53 52 51
-29.6 -23.7 12.5 53 52 51
-29.3 -23.7 12.5 54 53 52
-29.0 -23.7 12.5 55 55 55
-28.7 -23.7 12.5 54 53 52
-28.4 -23.7 12.4 54 53 52
-28.1 -23.7 12.4 54 53 52
-27.8 -23.7 12.5 54 53 52
-27.6 -23.8 12.5 51 51 51
-27.3 -23.7 12.5 51 51 51
-27.0 -23.7 12.5 55 54 53
-26.7 -23.8 12.5 52 52 52
-26.6 -23.9 12.6 52 52 52
-25.9 -23.8 12.5 52 52 52
-25.6 -23.8 12.5 55 54 53
-25.3 -23.8 12.5 53 52 52
-25.0 -23.8 12.5 53 52 52
-24.6 -23.7 12.4 50 50 50
-24.5 -23.9 12.5 50 50 50
-24.1 -23.8 12.5 48 48 48
-23.8 -23.7 12.4 46 46 46
-23.5 -23.7 12.4 48 48 48
-22.9 -23.8 12.5 44 44 44
-22.6 -23.8 12.5 44 44 44
-22.4 -23.8 12.5 47 47 47
-22.0 -23.7 12.4 47 48 47
-21.7 -23.7 12.4 45 45 45
-21.5 -23.7 12.5 45 44 43
-21.2 -23.8 12.5 45 44 43
-20.9 -23.8 12.5 45 44 43
-12.0 -24.0 12.6 30 31 30
-11.6 -23.8 12.5 33 32 30
-11.3 -23.7 12.4 33 32 30
-11.0 -23.7 12.5 29 31 29
-10.7 -23.7 12.4 27 27 27
-10.4 -23.6 12.4 34 34 34
-10.1 -23.5 12.3 45 45 45
-9.8 -23.6 12.4 173 173 173
-9.3 -23.7 12.5 184 187 186
-9.0 -23.7 12.4 183 186 185
-8.7 -23.7 12.5 232 232 232
14.1 -23.6 12.4 206 206 206
43.0 -57.9 30.4 206 206 206
42.6 -56.4 29.6 206 206 206
42.4 -55.3 29.0 206 206 206
47.3 -58.0 30.5 206 206 206
48.5 -57.7 30.3 206 206 206
47.5 -55.7 29.2 206 206 206
45.0 -52.1 27.3 207 207 207
44.7 -51.0 26.8 207 207 207
46.2 -52.0 27.3 207 207 207
47.3 -52.4 27.5 207 207 207
28.4 -27.7 14.6 206 206 206
28.6 -27.6 14.5 203 203 203
24.9 -22.7 11.9 179 179 179
24.9 -22.5 11.8 183 183 183
26.0 -22.7 11.9 188 188 188
85.2 -42.6 22.4 111 113 112
80.2 -39.9 20.9 111 113 112
-35.8 -23.9 12.7 61 63 61
-35.7 -24.1 12.8 65 65 65
-35.5 -24.1 12.8 65 65 65
-35.2 -24.1 12.8 65 65 65
-34.9 -24.1 12.8 65 65 65
-34.5 -24.1 12.8 65 65 65
-34.5 -24.2 12.9 62 64 61
-34.0 -24.1 12.8 65 65 65
-33.6 -24.1 12.8 65 65 65
-33.0 -24.2 12.9 62 64 61
-32.5 -24.1 12.8 62 64 61
-32.2 -24.1 12.8 62 64 61
-31.8 -24.1 12.8 60 60 60
-31.7 -24.2 12.9 58 59 59
-31.3 -24.1 12.8 56 56 56
-31.1 -24.1 12.8 56 56 56
-30.7 -24.1 12.8 56 56 56
-30.4 -24.1 12.8 54 53 52
-30.1 -24.1 12.8 55 54 53
-29.8 -24.1 12.8 52 52 52
-29.5 -24.1 12.8 57 57 57
-29.2 -24.1 12.8 55 54 53
-28.9 -24.1 12.8 55 54 53
-28.7 -24.1 12.8 55 54 53
-28.3 -24.1 12.8 55 54 53
-28.0 -24.1 12.8 56 55 54
-27.9 -24.3 12.9 56 55 54
-27.5 -24.2 12.8 53 52 52
-27.4 -24.3 12.9 53 52 52
-26.7 -24.3 12.9 53 52 52
-26.2 -24.1 12.8 53 53 53
-25.8 -24.0 12.8 53 53 53
-25.5 -23.9 12.7 53 53 53
-25.3 -24.4 12.9 52 52 52
-24.8 -24.2 12.9 49 49 49
-23.0 -24.1 12.8 46 46 46
-22.7 -24.1 12.8 46 46 46
-22.4 -24.1 12.8 45 44 43
-21.7 -24.4 13.0 42 43 42
-12.7 -24.5 13.0 29 29 29
-12.3 -24.3 12.9 38 40 40
-11.8 -23.9 12.7 38 40 40
-11.2 -23.8 12.7 55 55 55
-11.0 -23.9 12.7 64 64 64
-10.6 -23.7 12.6 36 37 36
-9.6 -24.2 12.9 184 187 186
42.4 -55.5 29.5 205 205 205
41.3 -53.1 28.2 205 205 205
47.3 -57.2 30.4 205 205 205
48.5 -57.0 30.3 206 206 206
46.5 -53.9 28.7 206 206 206
45.1 -51.5 27.4 206 206 206
44.2 -49.8 26.5 206 206 206
46.1 -51.2 27.2 206 206 206
46.9 -51.4 27.3 206 206 206
28.8 -27.5 14.6 205 205 205
32.4 -30.5 16.2 205 205 205
24.9 -22.5 11.9 183 183 183
25.0 -22.3 11.9 186 186 186
26.0 -22.5 11.9 186 186 186
796.5 -474.5 252.2 184 184 184
80.9 -39.7 21.1 111 113 112
-36.6 -24.1 13.0 65 65 65
-36.4 -24.2 13.0 65 65 65
-36.2 -24.3 13.1 65 65 65
-35.8 -24.2 13.0 66 66 66
-35.4 -24.2 13.0 66 66 66
-35.1 -24.2 13.0 66 66 66
-35.1 -24.3 13.1 66 66 66
-34.6 -24.2 13.0 66 66 66
-34.2 -24.2 13.0 66 66 66
-34.1 -24.3 13.1 66 66 66
-33.7 -24.2 13.0 66 66 66
-33.5 -24.3 13.1 66 66 66
-33.3 -24.4 13.1 63 64 62
-32.6 -24.3 13.1 61 61 61
-32.1 -24.2 13.0 61 61 61
-31.7 -24.4 13.1 59 59 59
-31.4 -24.4 13.1 57 57 57
-31.1 -24.4 13.1 57 57 57
-30.6 -24.2 13.0 56 55 54
-30.2 -24.1 13.0 56 55 54
-29.9 -24.1 13.0 56 55 54
-29.7 -24.2 13.0 56 55 54
-29.4 -24.2 13.0 56 55 54
-29.1 -24.2 13.0 56 55 54
-28.8 -24.2 13.0 56 55 54
-28.7 -24.4 13.1 57 56 55
-28.1 -24.4 13.1 57 56 55
-27.7 -24.3 13.1 57 56 55
-27.4 -24.3 13.1 53 53 53
-27.0 -24.2 13.0 54 54 54
-26.6 -24.2 13.0 54 54 54
-26.3 -24.1 13.0 54 54 54
-26.0 -24.2 13.0 50 50 50
-26.0 -24.4 13.2 50 50 50
-25.6 -24.3 13.1 53 52 52
-25.1 -24.1 13.0 50 50 50
-23.8 -24.3 13.1 47 47 47
-23.3 -24.1 13.0 47 47 47
-23.0 -24.1 13.0 46 45 43
-22.8 -24.2 13.0 46 46 44
-22.3 -24.4 13.1 43 43 43
-21.9 -24.2 13.0 43 45 44
-21.5 -24.2 13.0 43 45 44
-13.4 -24.2 13.0 109 109 109
-13.4 -24.9 13.4 63 63 63
-12.9 -24.4 13.1 91 94 93
-12.4 -24.2 13.0 60 60 60
-12.0 -23.9 12.9 53 52 52
-11.4 -23.9 12.8 35 35 35
-11.1 -24.0 12.9 85 87 87
-10.7 -24.3 13.1 49 49 49
-10.5 -24.5 13.2 182 182 182
-10.1 -24.5 13.2 182 185 184
-9.8 -24.5 13.2 183 186 185
44.0 -49.6 26.7 205 205 205
43.9 -48.8 26.3 206 206 206
44.5 -48.8 26.3 206 206 206
45.1 -48.8 26.3 206 206 206
47.2 -49.7 26.8 206 206 206
29.1 -28.1 15.1 204 204 204
29.1 -27.7 14.9 205 205 205
32.4 -30.1 16.2 205 205 205
25.0 -22.2 12.0 182 182 182
25.2 -22.1 11.9 185 185 185
26.3 -22.2 11.9 185 185 185
765.9 -450.6 242.5 182 182 182
530.2 -303.0 163.1 177 180 179
1020.3 -566.9 305.1 177 180 179
-37.5 -24.4 13.3 66 66 66
-37.2 -24.4 13.3 66 66 66
-36.9 -24.5 13.3 66 66 66
-36.6 -24.5 13.3 66 66 66
-36.5 -24.6 13.4 66 66 66
-36.2 -24.6 13.4 67 67 67
-35.9 -24.6 13.4 67 67 67
-35.4 -24.5 13.3 67 67 67
-35.3 -24.6 13.4 67 67 67
-35.0 -24.6 13.4 67 67 67
-34.5 -24.5 13.3 67 67 67
-34.3 -24.6 13.4 67 67 67
-34.1 -24.6 13.4 64 65 63
-33.7 -24.6 13.4 64 65 63
-33.4 -24.6 13.4 64 65 63
-33.0 -24.5 13.4 62 62 62
-32.6 -24.5 13.3 62 62 62
-32.3 -24.5 13.3 60 60 60
-32.0 -24.5 13.3 60 60 60
-31.7 -24.5 13.3 60 60 60
-31.4 -24.5 13.3 58 58 58
-31.0 -24.5 13.3 58 59 59
-30.6 -24.4 13.3 58 59 59
-30.5 -24.6 13.4 58 59 59
-30.1 -24.5 13.3 58 59 59
-29.9 -24.6 13.4 57 56 55
-29.6 -24.6 13.4 57 57 55
-29.2 -24.5 13.3 57 57 55
-29.0 -24.6 13.4 57 57 55
-28.7 -24.6 13.4 57 57 55
-28.2 -24.4 13.3 57 57 55
-28.1 -24.6 13.4 55 55 55
-27.7 -24.5 13.3 55 55 55
-27.5 -24.6 13.4 55 55 55
-27.0 -24.5 13.3 55 55 55
-26.5 -24.6 13.4 53 53 53
-26.0 -24.4 13.3 53 53 53
-26.0 -24.7 13.4 51 51 51
-24.7 -24.6 13.4 50 50 50
-24.2 -24.5 13.3 50 50 50
-23.7 -24.6 13.4 46 46 44
-23.4 -24.6 13.4 47 46 45
-23.1 -24.6 13.4 44 44 44
-22.8 -24.6 13.4 44 44 44
-22.1 -24.2 13.2 45 45 45
-21.7 -24.1 13.2 43 45 45
-13.5 -24.7 13.4 84 83 81
-13.0 -24.4 13.3 32 33 31
-12.6 -24.1 13.1 36 37 36
-11.2 -23.9 13.0 83 82 80
-11.2 -24.5 13.3 28 28 28
-10.8 -24.4 13.3 52 52 52
-10.6 -24.4 13.3 183 186 185
-10.2 -24.4 13.3 182 185 184
-10.0 -24.5 13.3 182 185 184
41.7 -47.2 25.7 207 207 207
43.6 -48.6 26.5 205 205 205
43.9 -48.2 26.3 208 208 208
44.3 -48.0 26.2 205 205 205
44.7 -47.7 26.0 205 205 205
45.1 -47.5 25.9 206 206 206
46.3 -48.2 26.3 206 206 206
46.5 -47.7 26.0 206 206 206
29.6 -28.2 15.4 204 204 204
32.4 -29.7 16.2 204 204 204
25.1 -21.8 11.9 185 185 185
26.3 -21.9 11.9 184 184 184
1012.6 -588.3 320.6 181 181 181
488.1 -275.5 150.1 176 179 178
1265.2 -694.2 378.3 176 179 178
-37.9 -24.4 13.4 67 67 67
-37.6 -24.4 13.5 67 67 67
-37.3 -24.4 13.5 67 67 67
-36.9 -24.4 13.5 67 67 67
-36.6 -24.4 13.4 69 71 69
-36.3 -24.4 13.5 69 71 69
-36.0 -24.4 13.5 72 72 72
-35.7 -24.4 13.4 67 67 67
-35.4 -24.4 13.5 67 67 67
-35.1 -24.4 13.5 67 67 67
-34.8 -24.4 13.5 67 67 67
-34.5 -24.4 13.5 67 67 67
-34.2 -24.4 13.5 67 67 67
-33.9 -24.4 13.5 65 66 64
-33.5 -24.4 13.5 65 66 64
-33.1 -24.3 13.4 66 67 65
-32.9 -24.4 13.4 63 63 63
-32.6 -24.4 13.5 63 63 63
-32.2 -24.4 13.5 61 61 61
-31.9 -24.4 13.5 61 61 61
-31.6 -24.4 13.5 61 61 61
-31.3 -24.4 13.5 59 59 59
-31.0 -24.3 13.4 59 59 59
-30.7 -24.4 13.4 59 59 59
-30.4 -24.4 13.5 62 62 62
-30.0 -24.4 13.4 59 59 59
-29.7 -24.4 13.4 58 58 56
-29.4 -24.4 13.5 58 58 56
-29.1 -24.4 13.5 58 58 56
-28.8 -24.4 13.5 58 58 56
-28.5 -24.4 13.5 58 58 56
-28.2 -24.4 13.5 59 59 57
-27.9 -24.4 13.5 59 59 57
-27.6 -24.4 13.5 56 56 56
-27.2 -24.3 13.4 57 57 57
-26.9 -24.3 13.4 57 57 57
-26.6 -24.4 13.5 54 54 54
-26.3 -24.3 13.4 57 57 57
-26.0 -24.4 13.5 55 55 55
-25.7 -24.4 13.5 53 52 52
-25.4 -24.4 13.5 50 50 50
-24.8 -24.4 13.5 51 51 51
-24.4 -24.4 13.5 48 48 48
-24.1 -24.4 13.4 47 46 45
-23.8 -24.4 13.4 48 47 46
-23.5 -24.4 13.5 45 45 45
-23.2 -24.4 13.5 43 45 45
-23.0 -24.6 13.6 45 45 45
-22.5 -24.3 13.4 44 46 46
-22.0 -24.1 13.3 44 46 46
-14.1 -24.9 13.8 94 93 92
-13.5 -24.4 13.5 94 94 94
-13.1 -24.3 13.4 32 33 31
-12.7 -24.1 13.3 131 131 131
-11.3 -24.3 13.4 51 50 48
-11.0 -24.3 13.4 52 54 52
-10.6 -24.3 13.4 182 185 184
-10.3 -24.3 13.4 181 184 183
-10.1 -24.4 13.5 181 184 183
-9.8 -24.4 13.5 184 184 184
44.0 -48.3 26.7 207 207 207
44.1 -47.8 26.4 207 207 207
44.3 -47.3 26.1 207 207 207
44.3 -46.7 25.8 205 205 205
46.5 -47.8 26.4 205 205 205
46.1 -46.8 25.8 205 205 205
32.2 -29.3 16.2 204 204 204
32.7 -29.3 16.2 204 204 204
25.1 -21.6 11.9 184 184 184
26.4 -21.7 12.0 184 184 184
26.8 -21.8 12.0 184 184 184
27.2 -21.9 12.1 184 184 184
-37.9 -24.1 13.5 67 67 67
-37.6 -24.1 13.5 67 67 67
-37.3 -24.1 13.5 67 67 67
-37.0 -24.1 13.5 69 71 69
-36.6 -24.1 13.5 69 71 69
-36.4 -24.1 13.5 70 72 69
-36.1 -24.1 13.5 70 72 69
-35.7 -24.1 13.5 68 68 68
-35.4 -24.1 13.5 70 72 69
-35.1 -24.1 13.5 68 68 68
-34.8 -24.1 13.5 68 68 68
-34.5 -24.1 13.5 68 68 68
-34.2 -24.1 13.5 68 68 68
-33.9 -24.1 13.5 69 69 69
-33.5 -24.1 13.5 66 67 65
-33.1 -24.0 13.4 67 68 66
-32.9 -24.1 13.5 67 68 66
-32.6 -24.1 13.5 64 64 64
-32.3 -24.1 13.5 64 64 64
-32.0 -24.1 13.5 62 62 62
-31.6 -24.1 13.5 63 63 63
-31.3 -24.1 13.5 65 65 65
-31.0 -24.0 13.4 63 63 63
-30.7 -24.1 13.5 63 63 63
-30.4 -24.1 13.5 63 63 63
-30.1 -24.1 13.5 63 63 63
-29.8 -24.1 13.5 61 61 61
-29.5 -24.1 13.5 61 61 61
-29.2 -24.1 13.5 59 59 57
-28.9 -24.1 13.5 59 59 57
-28.6 -24.1 13.5 60 59 58
-28.3 -24.1 13.5 60 59 58
-27.9 -24.1 13.5 60 59 58
-27.6 -24.1 13.5 57 57 57
-27.2 -24.0 13.4 58 58 58
-26.9 -24.0 13.4 58 58 58
-26.6 -24.1 13.5 58 58 58
-26.3 -24.0 13.4 58 59 59
-26.0 -24.1 13.5 56 56 56
-25.8 -24.1 13.5 56 56 56
-25.4 -24.1 13.5 53 53 53
-24.4 -24.1 13.5 54 54 54
-24.1 -24.1 13.5 53 52 52
-23.8 -24.1 13.5 50 50 50
-23.5 -24.1 13.5 49 48 47
-23.3 -24.2 13.5 49 48 47
-23.0 -24.3 13.6 50 49 48
-22.5 -24.0 13.4 47 47 47
-13.5 -24.1 13.5 128 128 128
-13.1 -24.0 13.4 36 35 34
-12.7 -23.8 13.3 112 114 113
-11.3 -24.0 13.4 51 51 49
-11.0 -24.1 13.5 53 55 53
-10.6 -24.0 13.4 182 185 184
-10.3 -24.0 13.4 180 183 182
-10.1 -24.1 13.5 180 183 182
-9.8 -24.1 13.5 185 185 185
39.8 -43.8 24.5 207 207 207
44.6 -47.7 26.7 207 207 207
44.4 -46.9 26.2 207 207 207
44.6 -46.4 25.9 207 207 207
42.2 -43.4 24.3 205 205 205
44.9 -44.9 25.1 205 205 205
43.9 -43.4 24.3 205 205 205
32.3 -29.0 16.2 206 206 206
26.6 -21.6 12.1 183 183 183
26.8 -21.5 12.0 183 183 183
27.4 -21.8 12.2 185 185 185
103.5 -51.4 28.7 169 169 169
97.8 -48.3 27.0 161 164 163
-38.2 -24.0 13.6 67 67 67
-38.1 -24.1 13.6 67 67 67
-37.8 -24.1 13.6 70 72 69
-37.4 -24.1 13.6 70 72 69
-36.5 -24.1 13.6 71 72 70
-34.7 -24.2 13.7 69 69 69
-34.4 -24.2 13.7 70 70 70
-33.9 -24.0 13.6 70 70 70
-33.6 -24.1 13.6 67 69 67
-33.3 -24.1 13.6 67 69 67
-33.0 -24.1 13.6 67 69 67
-32.7 -24.1 13.6 65 65 65
-32.4 -24.1 13.6 65 65 65
-32.1 -24.1 13.7 66 66 66
-31.8 -24.1 13.6 66 66 66
-31.4 -24.1 13.6 66 66 66
-31.1 -24.1 13.6 64 64 64
-30.8 -24.1 13.6 61 61 61
-30.5 -24.1 13.6 62 62 62
-30.2 -24.1 13.7 62 62 62
-29.8 -24.1 13.6 62 62 62
-29.5 -24.1 13.6 62 62 62
-29.2 -24.1 13.6 58 58 58
-29.0 -24.2 13.7 61 60 59
-28.7 -24.2 13.7 63 63 63
-28.3 -24.1 13.7 61 60 59
-27.9 -24.1 13.6 62 61 60
-27.1 -24.2 13.7 59 59 59
-26.6 -24.0 13.6 59 59 59
-26.4 -24.1 13.7 59 59 59
-26.1 -24.1 13.7 52 52 52
-24.1 -24.0 13.6 56 56 56
-23.9 -24.2 13.7 50 49 48
-23.6 -24.2 13.7 52 52 52
-23.3 -24.2 13.7 51 50 48
-13.6 -24.0 13.6 122 122 122
-13.2 -23.7 13.5 39 39 39
-11.4 -23.9 13.5 44 44 44
-11.1 -24.0 13.6 54 54 54
-10.7 -23.9 13.5 181 184 183
-10.4 -23.9 13.5 181 184 183
-10.2 -24.1 13.7 180 183 182
-9.8 -24.0 13.6 176 179 178
40.6 -44.2 25.0 206 206 206
43.4 -45.2 25.6 206 206 206
43.2 -44.5 25.2 207 207 207
43.7 -44.3 25.1 207 207 207
45.0 -45.1 25.5 207 207 207
45.6 -45.0 25.5 207 207 207
45.2 -44.1 25.0 207 207 207
1179.6 -618.4 350.3 177 180 179
103.3 -50.7 28.7 169 169 169
98.6 -48.0 27.2 172 172 172
95.8 -46.4 26.3 159 162 161
-39.4 -24.6 14.1 68 68 68
-38.8 -24.4 14.0 71 72 70
-35.6 -24.4 14.0 70 70 70
-35.2 -24.4 14.0 70 70 70
-34.8 -24.4 14.0 71 71 71
-34.6 -24.4 14.0 71 71 71
-34.2 -24.4 14.0 71 71 71
-33.9 -24.4 14.0 68 70 68
-33.6 -24.4 14.0 66 66 66
-33.3 -24.4 14.0 66 66 66
-33.0 -24.4 14.0 67 67 67
-32.7 -24.4 14.0 67 67 67
-32.3 -24.4 14.0 67 67 67
-32.0 -24.5 14.0 65 65 65
-31.7 -24.5 14.1 65 65 65
-31.4 -24.5 14.0 63 63 63
-31.0 -24.4 14.0 63 63 63
-30.9 -24.6 14.1 66 66 66
-30.4 -24.4 14.0 63 63 63
-30.1 -24.5 14.1 64 64 64
-29.7 -24.5 14.0 64 64 64
-29.1 -24.5 14.1 64 64 64
-28.6 -24.4 14.0 65 65 65
-27.9 -24.6 14.1 60 60 60
-27.4 -24.4 14.0 60 60 60
-27.1 -24.4 14.0 64 63 61
-26.7 -24.3 14.0 72 73 71
-24.8 -24.4 14.0 62 62 62
-24.5 -24.5 14.0 58 58 58
-24.1 -24.4 14.0 53 52 52
-23.6 -24.2 13.9 51 51 49
-14.4 -24.5 14.1 112 112 112
-11.3 -24.0 13.8 60 60 60
-10.7 -24.1 13.9 179 182 181
-10.4 -24.2 13.9 177 180 179
-10.1 -24.2 13.9 176 179 178
49.1 -51.9 29.8 208 211 210
45.9 -47.8 27.5 208 211 210
44.5 -45.8 26.3 208 211 210
47.5 -46.9 26.9 206 206 206
46.9 -45.7 26.2 206 206 206
45.9 -44.2 25.4 207 207 207
1011.1 -523.0 300.3 176 179 178
97.9 -47.1 27.0 169 169 169
95.0 -45.4 26.1 159 162 161
-34.5 -24.7 14.4 67 67 67
-34.2 -24.7 14.4 67 67 67
-25.2 -24.8 14.4 53 53 53
-15.1 -24.8 14.4 45 45 45
-10.6 -24.3 14.2 178 181 180
5.6 -17.2 10.0 210 213 212
51.0 -53.2 31.0 207 210 209
49.1 -48.5 28.2 208 211 210
48.5 -47.3 27.5 203 203 203
995.3 -508.0 295.6 177 180 179
97.1 -46.1 26.8 166 166 166
93.8 -44.2 25.7 161 164 163
-31.4 -24.8 14.6 64 64 64
-15.3 -24.7 14.6 90 90 90
51.3 -52.8 31.2 207 210 209
48.2 -46.3 27.3 208 211 210
29.0 -23.3 13.7 182 182 182
29.2 -23.2 13.7 185 185 185
29.3 -23.0 13.6 184 184 184
-15.4 -24.5 14.7 22 25 23
45.9 -50.9 30.5 206 209 208
51.1 -51.9 31.0 207 210 209
68.1 -68.2 40.8 207 210 209
67.0 -66.2 39.6 207 210 209
29.0 -22.7 13.6 186 186 186
29.1 -22.5 13.5 186 186 186
30.2 -22.4 13.4 185 185 185
661.0 -290.2 173.5 121 121 121
45.9 -50.2 30.5 206 209 208
48.8 -52.5 31.8 206 209 208
48.4 -51.4 31.2 206 209 208
51.1 -51.1 31.0 206 209 208
69.1 -67.2 40.8 206 209 208
70.5 -67.7 41.0 210 213 212
49.8 -44.2 26.8 207 210 209
29.1 -22.5 13.6 186 186 186
29.1 -22.2 13.5 186 186 186
29.4 -22.2 13.5 186 186 186
42.0 -31.1 18.9 186 186 186
30.2 -22.1 13.4 186 186 186
-11.7 -25.4 15.6 182 185 184
-11.4 -25.6 15.8 177 177 177
-11.1 -25.7 15.8 156 159 158
-10.7 -25.6 15.8 155 158 157
48.6 -51.6 31.7 208 211 210
48.4 -50.6 31.1 208 211 210
51.0 -50.3 31.0 209 212 211
74.3 -71.4 43.9 209 212 211
56.3 -50.6 31.1 207 210 209
55.0 -48.8 30.0 207 210 209
49.7 -43.5 26.8 207 210 209
29.1 -21.9 13.5 189 189 189
42.3 -30.8 19.0 189 189 189
41.0 -29.6 18.2 186 186 186
-11.9 -25.5 15.9 183 186 185
-11.5 -25.5 15.9 179 179 179
-11.2 -25.7 16.1 159 162 161
-10.8 -25.6 16.0 156 159 158
48.6 -50.9 31.7 208 211 210
48.7 -50.2 31.3 208 211 210
51.4 -50.0 31.2 208 211 210
56.6 -50.1 31.3 209 212 211
54.4 -47.5 29.6 207 210 209
42.5 -30.6 19.1 186 186 186
42.2 -30.0 18.7 186 186 186
83.2 -38.8 24.2 181 181 181
83.2 -38.5 24.0 181 181 181
-11.6 -25.3 16.0 180 180 180
-11.4 -25.8 16.3 166 166 166
-11.0 -25.8 16.3 163 163 163
48.6 -50.1 31.7 207 210 209
48.7 -49.5 31.3 207 210 209
49.2 -49.2 31.2 208 211 210
51.3 -49.2 31.2 208 211 210
57.1 -49.8 31.5 209 212 211
55.8 -48.1 30.5 209 212 211
42.8 -30.3 19.2 190 190 190
44.8 -31.4 19.9 190 190 190
82.8 -38.1 24.1 182 182 182
81.5 -37.2 23.6 182 182 182
-12.3 -26.4 17.0 181 181 181
-11.6 -25.8 16.6 169 169 169
-11.4 -26.3 16.9 166 166 166
48.7 -49.5 31.8 207 210 209
48.6 -48.7 31.3 207 210 209
51.5 -48.7 31.3 208 211 210
91.8 -83.1 53.4 208 211 210
87.6 -78.3 50.3 208 211 210
52.7 -44.2 28.4 209 212 211
125.9 -100.5 64.6 207 210 209
42.0 -29.3 18.9 188 188 188
42.3 -29.2 18.8 188 188 188
43.1 -29.5 19.0 190 190 190
43.0 -29.1 18.7 190 190 190
79.7 -35.9 23.0 183 183 183
78.2 -34.9 22.4 183 183 183
-12.0 -26.3 17.1 174 176 176
-12.0 -27.2 17.7 169 169 169
94.1 -84.0 54.8 208 211 210
93.3 -82.1 53.6 208 211 210
106.3 -91.2 59.5 208 211 210
125.2 -99.6 65.0 209 212 211
121.3 -95.4 62.2 210 213 212
122.0 -94.8 61.8 210 213 212
123.4 -94.8 61.8 210 213 212
42.5 -28.3 18.5 191 191 191
80.1 -35.5 23.2 184 184 184
78.8 -34.7 22.6 184 184 184
-42.5 -27.3 18.1 40 42 42
-41.7 -27.1 17.9 29 31 29
-41.3 -27.4 18.1 27 27 27
-40.9 -27.4 18.1 28 28 28
-20.0 -16.8 11.1 68 70 68
14.5 -16.0 10.6 207 210 209
99.6 -87.6 58.0 207 210 209
95.1 -82.5 54.7 208 211 210
105.2 -90.1 59.7 208 211 210
107.3 -90.7 60.1 208 211 210
108.0 -90.1 59.7 208 211 210
125.6 -98.5 65.2 209 212 211
120.1 -93.0 61.6 209 212 211
121.2 -92.7 61.4 210 213 212
121.0 -91.5 60.6 210 213 212
80.6 -35.2 23.3 185 185 185
79.2 -34.3 22.7 185 185 185
-46.4 -27.5 18.5 27 27 27
-46.0 -27.5 18.5 29 31 29
-46.1 -27.8 18.7 27 27 27
-45.7 -27.8 18.7 26 26 26
-44.9 -27.6 18.6 38 38 38
-44.7 -27.7 18.6 50 50 50
-44.2 -27.7 18.6 62 62 62
-43.5 -27.5 18.5 59 59 59
-42.9 -27.4 18.4 55 55 55
-42.7 -27.5 18.5 42 42 42
-42.2 -27.5 18.5 40 42 42
-41.6 -27.4 18.4 45 44 43
-41.0 -27.3 18.3 122 124 123
-40.3 -27.1 18.2 150 150 150
-20.0 -16.6 11.1 61 60 59
-9.7 -16.2 10.9 37 38 37
-12.6 -27.6 18.5 175 177 177
114.6 -96.6 65.0 207 210 209
111.9 -93.1 62.6 208 211 210
129.6 -97.6 65.7 209 212 211
234.5 -174.6 117.5 209 212 211
220.8 -162.5 109.3 210 213 212
81.1 -34.8 23.4 186 186 186
79.2 -33.8 22.7 186 186 186
78.3 -33.2 22.3 186 186 186
80.9 -34.1 22.9 186 186 186
59.9 -24.3 16.3 160 163 162
61.1 -24.6 16.5 157 157 157
-13.1 -27.5 18.8 178 181 180
-12.8 -27.6 18.8 176 176 176
-12.5 -28.1 19.2 176 179 178
-12.2 -28.3 19.3 169 169 169
13.7 -15.4 10.5 206 209 208
14.0 -15.4 10.6 206 209 208
197.9 -160.0 109.3 208 211 210
197.0 -157.2 107.5 208 211 210
194.0 -152.9 104.5 208 211 210
200.9 -156.4 106.9 208 211 210
204.5 -157.2 107.5 208 211 210
207.0 -157.2 107.5 209 212 211
209.6 -155.5 106.3 209 212 211
234.5 -171.9 117.5 209 212 211
224.7 -162.8 111.3 209 212 211
215.8 -154.6 105.7 207 210 209
78.9 -33.1 22.7 188 188 188
78.6 -32.8 22.4 188 188 188
78.1 -32.4 22.1 188 188 188
60.3 -24.0 16.4 161 161 161
60.9 -24.1 16.5 157 157 157
61.6 -24.3 16.6 152 152 152
-13.6 -28.0 19.4 176 176 176
-13.2 -28.0 19.5 174 174 174
-12.8 -28.2 19.6 138 140 139
-12.3 -28.2 19.6 36 36 34
13.7 -15.2 10.6 206 209 208
14.6 -15.1 10.5 205 208 207
189.5 -154.8 107.5 207 210 209
191.0 -153.9 106.9 207 210 209
203.8 -162.1 112.6 207 210 209
201.6 -158.3 110.0 207 210 209
199.5 -154.8 107.5 208 211 210
204.4 -156.5 108.7 208 211 210
210.5 -159.3 110.6 208 211 210
211.8 -158.3 110.0 208 211 210
207.2 -153.0 106.3 209 212 211
67.2 -44.8 31.1 194 194 194
75.4 -31.4 21.8 189 189 189
77.7 -32.1 22.3 189 189 189
78.0 -32.0 22.2 189 189 189
77.3 -31.5 21.9 190 192 192
76.6 -31.0 21.5 189 189 189
60.3 -23.7 16.4 161 161 161
60.8 -23.7 16.5 157 157 157
61.3 -23.7 16.5 149 151 151
-14.6 -28.5 20.1 170 172 172
-14.0 -28.2 19.9 169 171 170
-13.4 -28.0 19.8 159 162 161
-13.0 -28.2 19.9 128 131 130
-12.6 -28.2 19.9 42 42 42
13.8 -15.1 10.6 205 208 207
14.1 -15.1 10.6 205 208 207
174.2 -138.1 97.5 207 210 209
199.1 -155.8 110.0 207 210 209
194.8 -150.5 106.3 207 210 209
185.8 -141.8 100.1 207 210 209
187.1 -141.0 99.6 208 211 210
203.6 -149.7 105.7 208 211 210
187.2 -136.0 96.0 208 211 210
66.2 -43.9 31.0 194 194 194
67.5 -44.3 31.3 194 194 194
75.8 -31.0 21.9 190 190 190
77.3 -31.4 22.2 190 190 190
78.3 -31.6 22.3 190 190 190
77.7 -31.2 22.0 190 190 190
77.2 -30.8 21.7 186 186 186
60.9 -23.5 16.6 160 160 160
61.3 -23.5 16.6 155 155 155
61.8 -23.5 16.6 151 153 153
62.3 -23.6 16.7 142 144 143
-14.3 -28.4 20.4 184 187 186
-13.6 -27.9 20.1 181 184 183
-13.2 -28.0 20.1 167 167 167
-12.7 -28.1 20.1 115 114 114
-12.4 -28.3 20.3 27 26 25
13.6 -14.8 10.6 209 209 209
13.8 -14.8 10.6 209 209 209
169.8 -132.4 95.1 206 209 208
199.1 -153.2 110.0 211 211 211
197.0 -149.8 107.5 211 211 211
187.8 -140.9 101.2 211 211 211
189.1 -140.2 100.6 207 210 209
194.9 -140.9 101.2 208 211 210
179.9 -128.6 92.3 208 211 210
194.4 -137.3 98.5 208 211 210
66.4 -43.4 31.1 194 194 194
68.5 -44.2 31.7 194 194 194
69.4 -44.3 31.8 194 194 194
77.2 -31.5 22.6 192 195 194
76.9 -31.2 22.4 192 195 194
76.6 -30.8 22.1 192 195 194
77.8 -31.1 22.3 191 191 191
79.3 -31.5 22.6 191 191 191
78.5 -31.0 22.2 192 195 194
78.3 -30.7 22.0 191 191 191
79.6 -31.0 22.3 185 185 185
62.6 -23.8 17.1 159 159 159
62.3 -23.5 16.9 153 155 155
62.6 -23.5 16.9 148 148 148
64.0 -23.8 17.1 143 145 144
13.4 -13.9 10.1 209 209 209
15.2 -13.8 10.1 208 208 208
207.2 -161.0 117.5 210 210 210
200.0 -153.4 111.9 210 210 210
215.3 -163.0 119.0 211 211 211
214.1 -160.0 116.8 211 211 211
219.5 -162.0 118.2 211 211 211
226.5 -165.1 120.5 211 211 211
236.8 -170.5 124.4 212 213 212
213.1 -151.6 110.6 212 213 212
187.2 -131.6 96.0 215 215 215
66.9 -42.9 31.3 194 194 194
70.3 -44.6 32.6 194 194 194
70.0 -43.9 32.1 197 197 197
78.3 -31.4 22.9 193 196 195
78.6 -31.3 22.9 193 196 195
77.6 -30.7 22.4 193 196 195
79.2 -31.2 22.7 193 196 195
80.2 -31.3 22.9 192 192 192
79.2 -30.7 22.4 193 196 195
79.3 -30.6 22.3 189 189 189
80.6 -30.9 22.5 184 184 184
81.5 -31.0 22.6 178 181 180
63.6 -23.5 17.1 141 140 139
-25.5 -14.2 10.6 147 147 147
-25.1 -14.3 10.6 64 65 63
-24.9 -14.2 10.6 62 62 62
-24.6 -14.3 10.6 41 41 41
-24.3 -14.2 10.6 33 32 30
-24.1 -14.2 10.6 75 76 76
-23.9 -14.2 10.6 95 94 93
-14.9 -31.9 23.7 167 167 167
-14.8 -32.9 24.4 21 21 21
13.4 -13.6 10.1 208 208 208
233.1 -175.7 130.5 210 210 210
236.1 -175.7 130.5 210 210 210
228.2 -167.6 124.4 211 211 211
243.9 -176.9 131.4 211 211 211
370.4 -265.4 197.0 211 211 211
259.0 -183.3 136.1 211 211 211
229.2 -160.2 119.0 212 213 212
72.0 -44.9 33.4 197 197 197
71.2 -43.9 32.6 197 197 197
80.4 -31.7 23.6 193 193 193
80.2 -31.4 23.3 194 197 196
79.5 -31.0 23.0 193 193 193
80.5 -31.1 23.1 190 190 190
81.2 -31.2 23.2 194 197 196
80.9 -30.9 22.9 188 188 188
81.0 -30.7 22.8 188 188 188
82.4 -31.0 23.0 188 188 188
83.3 -31.2 23.2 176 176 176
84.0 -31.2 23.2 169 169 169
68.0 -24.5 18.2 134 137 136
68.6 -24.6 18.2 134 137 136
70.8 -25.2 18.7 134 137 136
-25.5 -13.9 10.5 165 165 165
-25.1 -14.0 10.6 44 43 42
-24.8 -14.0 10.6 47 47 47
-24.6 -14.0 10.6 26 26 26
-24.3 -13.9 10.5 18 22 19
-24.0 -13.9 10.5 2 7 3
-23.8 -14.0 10.6 131 131 131
-16.1 -32.7 24.7 168 168 168
-15.6 -32.7 24.7 160 160 160
-15.2 -33.1 25.0 26 25 24
-14.7 -33.3 25.1 42 43 42
13.5 -13.8 10.4 208 208 208
13.5 -13.5 10.2 208 208 208
15.4 -13.7 10.4 210 210 210
265.4 -194.1 146.6 210 210 210
240.8 -173.9 131.4 210 210 210
280.9 -200.3 151.3 211 211 211
423.3 -298.1 225.2 211 211 211
288.0 -200.3 151.3 211 211 211
256.6 -176.3 133.2 211 211 211
583.1 -391.2 295.6 212 213 212
71.7 -43.5 32.8 197 197 197
82.2 -31.7 23.9 186 186 186
81.9 -30.9 23.4 186 186 186
84.3 -31.2 23.6 177 177 177
85.3 -31.4 23.7 171 173 173
85.7 -31.3 23.6 165 165 165
68.7 -24.3 18.4 135 135 135
69.6 -24.5 18.5 135 135 135
71.1 -24.9 18.8 135 135 135
-34.7 -17.0 13.1 131 131 131
-31.6 -17.0 13.0 184 184 184
-31.3 -17.0 13.0 99 99 99
-30.7 -17.0 13.0 33 32 30
-30.3 -17.0 13.0 20 23 21
-30.0 -17.0 13.0 18 22 19
-29.2 -17.0 13.1 25 25 25
-24.0 -17.0 13.0 42 42 42
-23.7 -16.9 13.0 53 52 52
-22.8 -17.0 13.1 46 46 46
-22.5 -17.0 13.0 157 157 157
-22.2 -17.0 13.0 197 197 197
-21.9 -17.0 13.0 201 203 203
-21.6 -17.0 13.0 206 209 208
-21.2 -17.0 13.0 215 218 217
-21.0 -17.0 13.1 216 219 218
-18.6 -17.0 13.1 92 92 92
-18.3 -17.0 13.1 119 119 119
-16.4 -16.9 13.0 34 34 34
-16.1 -17.0 13.0 41 43 42
-17.4 -33.4 25.7 162 162 162
-16.7 -33.2 25.5 89 89 89
-16.1 -33.2 25.5 90 92 91
-15.5 -33.2 25.6 55 55 55
-14.9 -33.3 25.6 48 48 48
13.5 -13.5 10.4 208 208 208
13.6 -13.4 10.3 208 208 208
15.4 -13.5 10.3 209 209 209
276.1 -198.4 152.6 210 210 210
242.5 -172.0 132.3 210 210 210
290.2 -203.3 156.3 210 210 210
418.3 -289.4 222.5 211 211 211
285.7 -195.2 150.1 211 211 211
449.5 -292.8 225.2 212 213 212
285.0 -183.6 141.2 212 213 212
237.0 -150.9 116.1 216 216 216
86.3 -31.4 24.1 159 159 159
87.3 -31.5 24.3 150 150 150
88.0 -31.6 24.3 140 142 141
70.6 -24.7 19.0 135 135 135
69.7 -24.2 18.6 134 134 134
70.4 -24.3 18.7 134 134 134
71.3 -24.5 18.8 134 134 134
-32.0 -16.9 13.2 53 52 52
-31.7 -16.9 13.2 39 41 41
-31.6 -17.0 13.3 47 47 47
-31.1 -16.9 13.2 34 34 34
-30.8 -16.9 13.2 25 25 25
-30.5 -16.9 13.2 19 23 20
-30.3 -17.0 13.3 23 23 23
-29.9 -16.9 13.2 160 159 157
-29.7 -17.0 13.3 188 188 188
-29.4 -17.0 13.3 189 191 191
-27.1 -16.9 13.2 113 114 113
-26.9 -17.0 13.3 135 135 135
-26.6 -17.0 13.3 103 102 100
-23.9 -16.8 13.2 50 50 50
-23.8 -17.0 13.3 53 53 53
-23.4 -16.9 13.2 53 53 53
-23.1 -16.9 13.2 53 53 53
-22.8 -16.9 13.2 53 53 53
-22.6 -17.0 13.3 50 50 50
-22.3 -17.0 13.3 42 42 42
-22.0 -17.0 13.3 40 42 42
-21.7 -17.0 13.3 58 59 59
-21.3 -17.0 13.3 6 7 7
-21.0 -17.0 13.3 25 25 25
-20.7 -17.0 13.3 84 85 83
-20.4 -17.0 13.3 15 15 15
-20.1 -17.0 13.3 54 54 54
-19.8 -17.0 13.3 46 46 46
-19.5 -17.0 13.3 25 25 25
-19.2 -17.0 13.3 16 20 17
-18.8 -16.9 13.2 34 34 34
-18.5 -16.9 13.2 128 128 128
-16.6 -16.8 13.2 29 30 28
-16.3 -16.8 13.2 37 38 37
-17.9 -33.8 26.5 142 144 143
-17.1 -33.4 26.1 88 88 88
-16.4 -33.2 26.0 89 89 89
-15.7 -33.0 25.8 52 53 51
-15.1 -33.1 25.9 118 118 118
13.5 -13.1 10.2 214 214 214
287.7 -203.0 159.0 216 216 216
234.3 -163.2 127.8 216 216 216
418.3 -284.2 222.5 214 214 214
285.0 -180.3 141.2 212 213 212
235.6 -147.3 115.3 208 211 210
88.4 -31.4 24.6 134 134 134
89.6 -31.6 24.7 131 134 133
90.9 -31.8 24.9 131 134 133
69.8 -23.8 18.7 128 131 130
70.6 -24.0 18.8 129 129 129
71.1 -24.0 18.8 128 131 130
71.4 -23.9 18.7 128 131 130
-37.4 -17.0 13.5 62 64 61
-36.9 -16.9 13.4 137 137 137
-36.6 -16.9 13.5 180 180 180
-36.5 -17.0 13.5 176 179 178
-36.0 -16.9 13.5 184 187 186
-35.7 -16.9 13.5 169 171 170
-35.4 -16.9 13.5 183 186 185
-35.1 -16.9 13.5 214 214 214
-34.7 -16.9 13.4 97 96 94
-34.4 -16.8 13.4 33 32 30
-34.2 -16.9 13.5 52 52 52
-33.9 -16.9 13.5 72 72 72
-33.5 -16.9 13.5 74 74 74
-33.2 -16.9 13.5 74 74 74
-32.9 -16.9 13.5 72 72 72
-32.5 -16.9 13.4 58 59 59
-32.2 -16.9 13.5 34 34 34
-32.0 -16.9 13.5 36 36 36
-31.6 -16.9 13.5 34 34 34
-31.3 -16.9 13.5 25 25 25
-31.0 -16.9 13.5 19 23 20
-30.7 -16.9 13.5 17 21 18
-30.4 -16.9 13.5 164 167 166
-30.1 -16.9 13.5 183 186 185
-29.8 -16.9 13.5 188 187 186
-29.4 -16.9 13.5 165 165 165
-29.1 -16.9 13.5 148 150 150
-28.8 -16.9 13.5 181 181 181
-28.5 -16.9 13.5 175 177 177
-28.2 -16.9 13.5 157 157 157
-27.9 -16.9 13.5 124 127 126
-27.6 -16.9 13.5 132 132 132
-27.3 -16.9 13.5 111 111 111
-27.0 -16.9 13.5 65 65 65
-26.7 -16.9 13.5 17 17 17
-26.3 -16.9 13.5 4 10 6
-26.0 -16.9 13.5 6 11 7
-25.7 -16.9 13.5 27 27 27
-25.4 -16.9 13.5 34 34 34
-25.1 -16.9 13.5 19 23 20
-24.4 -16.9 13.4 52 52 52
-24.1 -16.9 13.5 53 53 53
-23.8 -16.9 13.5 53 53 53
-23.5 -16.9 13.5 53 53 53
-23.2 -16.9 13.5 57 56 55
-22.9 -16.9 13.5 58 58 58
-22.6 -16.9 13.5 57 56 55
-22.2 -16.9 13.5 52 52 52
-21.9 -16.9 13.5 39 41 41
-21.6 -16.9 13.5 27 27 27
-21.3 -16.9 13.5 29 30 28
-21.0 -16.9 13.5 91 91 91
-20.7 -16.9 13.5 25 25 25
-20.4 -16.9 13.5 53 53 53
-20.1 -16.9 13.5 41 41 41
-19.7 -16.9 13.5 39 41 41
-19.4 -16.9 13.5 62 62 62
-19.1 -16.9 13.4 35 35 35
-18.8 -16.8 13.4 85 87 87
-18.5 -16.9 13.5 13 13 13
-18.2 -16.9 13.5 27 29 27
-17.2 -16.9 13.5 152 152 152
-16.9 -16.8 13.4 75 77 75
-16.6 -16.8 13.4 36 37 36
-17.5 -33.5 26.8 91 93 92
-16.6 -33.1 26.4 89 91 90
-16.0 -32.9 26.3 74 76 75
-15.6 -33.5 26.7 116 118 117
13.5 -12.8 10.2 210 210 210
283.0 -196.0 156.3 212 213 212
239.2 -163.6 130.5 212 213 212
319.3 -215.6 172.0 214 214 214
408.7 -272.6 217.4 214 214 214
310.3 -204.5 163.1 214 214 214
337.1 -211.8 168.9 215 215 215
298.4 -185.3 147.8 215 215 215
249.3 -153.0 122.0 212 213 212
90.7 -31.6 25.2 114 116 115
91.7 -31.8 25.3 120 120 120
92.7 -31.9 25.4 124 124 124
71.7 -23.9 19.1 121 121 121
71.9 -23.8 19.0 129 128 127
-23.1 -16.7 13.6 53 52 52
-19.4 -35.3 28.7 132 132 132
-18.1 -34.0 27.7 91 93 92
-17.0 -33.3 27.0 89 91 90
-16.4 -33.2 27.0 84 84 84
240.8 -161.7 131.4 212 213 212
439.0 -291.0 236.5 212 213 212
418.3 -273.9 222.5 217 217 217
45.1 -23.9 19.4 203 203 203
94.5 -32.1 26.1 112 112 112
95.0 -32.1 26.1 113 114 113
72.8 -23.8 19.4 113 114 113
72.6 -23.6 19.2 121 121 121
72.6 -23.4 19.0 131 131 131
-33.4 -17.0 14.1 27 27 27
-33.1 -17.0 14.1 19 23 20
-32.8 -17.0 14.1 17 21 18
-32.5 -17.0 14.1 17 21 18
-31.8 -17.0 14.1 121 121 121
-31.5 -17.0 14.1 146 148 148
-19.2 -35.5 29.4 94 94 94
455.9 -292.8 242.5 217 217 217
44.5 -22.9 19.0 203 203 203
96.2 -31.9 26.4 109 111 111
96.4 -31.7 26.3 109 111 111
73.2 -23.5 19.5 109 111 111
73.0 -23.3 19.3 90 90 90
-32.1 -16.0 13.5 29 30 28
-31.7 -16.0 13.5 27 27 27
-31.4 -16.0 13.5 25 25 25
-31.1 -16.0 13.5 25 25 25
-30.8 -16.0 13.5 25 25 25
-30.4 -16.0 13.5 110 110 110
-30.1 -16.0 13.5 154 154 154
-29.9 -16.0 13.5 147 149 149
-29.5 -16.0 13.5 145 145 144
-29.2 -16.0 13.5 147 149 149
-28.9 -16.0 13.5 147 149 149
-24.2 -16.0 13.5 53 52 52
-23.8 -15.9 13.5 53 52 52
-23.5 -16.0 13.5 53 52 52
-23.2 -16.0 13.5 53 52 52
-22.9 -16.0 13.5 53 52 52
-22.6 -16.0 13.5 53 52 52
-22.3 -16.0 13.5 48 48 48
-22.0 -16.0 13.5 38 40 40
-21.6 -15.9 13.5 33 33 33
-21.3 -16.0 13.5 27 29 27
-21.0 -15.9 13.5 79 79 79
-20.7 -15.9 13.5 38 38 38
-20.4 -16.0 13.5 57 57 57
-20.1 -16.0 13.5 93 92 91
-19.8 -16.0 13.5 131 134 133
-19.2 -38.9 32.8 40 40 40
-18.6 -39.2 33.1 30 32 32
13.3 -11.9 10.1 210 210 210
15.2 -11.9 10.1 211 211 211
45.0 -23.0 19.4 203 203 203
44.0 -22.2 18.8 203 203 203
-30.9 -15.4 13.3 55 54 53
-30.0 -15.4 13.3 97 97 97
-21.3 -39.3 33.8 94 94 94
-20.5 -39.2 33.8 102 102 102
-19.8 -39.4 34.0 84 86 86
-18.9 -39.2 33.8 121 123 122
15.3 -11.8 10.1 211 211 211
44.9 -22.5 19.3 203 203 203
44.1 -21.8 18.8 200 200 200
51.2 -16.3 14.1 101 103 103
51.3 -16.2 14.0 99 99 99
51.4 -16.2 13.9 90 90 90
-21.7 -42.2 37.1 113 114 113
15.4 -11.8 10.4 216 216 216
15.4 -11.6 10.2 215 215 215
43.9 -21.3 18.7 203 203 203
51.1 -15.8 13.9 88 88 88
51.1 -15.8 13.8 77 77 77
-23.3 -41.2 36.9 95 98 97
-22.6 -41.4 37.2 107 107 107
-22.0 -42.0 37.7 30 30 30
-20.6 -40.9 36.7 25 25 23
15.4 -11.4 10.2 215 215 215
50.6 -15.3 13.7 74 74 74
54.8 -16.4 14.7 74 74 74
-10.7 -11.1 10.2 26 27 25
-12.6 -13.4 12.3 29 29 27
-12.2 -13.3 12.2 29 29 27
-24.1 -41.8 38.3 100 100 100
-23.3 -42.0 38.4 107 107 107
-22.5 -42.1 38.6 19 19 19
55.2 -16.2 14.8 75 76 76
-12.2 -13.0 12.2 31 31 31
-24.6 -43.3 40.5 111 111 111
55.4 -15.9 14.9 79 82 81
-12.3 -12.8 12.3 31 31 31
-28.2 -50.4 48.3 13 13 13
-27.6 -51.3 49.1 20 20 20
-26.7 -51.9 49.6 13 17 14
55.0 -15.5 14.8 79 82 81
-31.3 -52.6 51.5 110 110 110
-28.9 -50.6 49.5 30 29 29
-28.7 -52.2 51.1 21 21 21
-27.6 -52.5 51.4 107 107 105
15.4 -10.4 10.2 217 220 219
-37.0 -58.6 58.7 99 99 99
-34.0 -55.9 56.0 113 114 113
-32.8 -56.0 56.1 46 46 46
-31.8 -56.5 56.6 19 19 19
-30.1 -55.9 56.0 160 160 160
13.5 -10.2 10.2 217 217 217
13.5 -10.0 10.0 217 217 217
15.3 -10.1 10.2 217 220 219
16.0 -10.1 10.1 217 220 219
-39.7 -63.8 65.5 115 117 116
-38.0 -63.4 65.0 46 46 46
13.4 -9.9 10.2 218 221 220
13.5 -9.8 10.0 218 221 220
15.3 -9.9 10.2 217 220 219
15.8 -9.9 10.2 217 220 219
16.0 -9.9 10.1 217 220 219
-40.0 -65.2 68.5 30 29 29
-44.0 -74.7 78.5 23 23 22
13.4 -9.6 10.1 218 221 220
15.3 -9.6 10.1 217 220 219
15.8 -9.7 10.2 217 220 219
15.9 -9.6 10.1 217 220 219
209.6 -101.1 106.3 220 223 222
152.9 -66.7 70.1 199 199 199
-40.6 -64.6 69.5 26 25 24
-47.4 -78.4 84.4 14 18 15
-45.6 -78.8 84.8 163 163 163
208.5 -98.1 105.7 220 223 222
159.5 -68.6 73.9 199 199 199
143.8 -61.2 65.9 199 199 199
-49.3 -79.6 88.0 23 23 22
-48.2 -81.2 89.7 171 173 173
142.3 -59.0 65.2 199 199 199
-61.0 -95.9 108.7 29 29 29
-58.8 -96.4 109.3 181 184 183
-69.0 -118.3 134.2 180 183 182
15.9 -8.9 10.1 220 223 222
147.4 -60.2 68.3 199 199 199
140.4 -56.7 64.3 199 199 199
-87.7 -128.9 150.1 31 31 31
-73.7 -112.8 131.4 27 27 27
-80.7 -128.9 150.1 163 163 163
-83.2 -138.8 161.7 179 179 179
16.0 -8.7 10.1 220 223 222
138.0 -54.3 63.3 199 199 199
-105.0 -156.5 187.3 31 33 33
16.0 -8.5 10.1 220 223 222
159.5 -61.7 73.9 199 199 199
143.3 -54.9 65.7 199 199 199
143.8 -53.5 65.9 199 199 199
148.5 -50.6 70.3 103 103 103
141.8 -46.8 65.0 194 194 194
158.5 -49.1 68.3 200 200 200
162.7 -48.9 68.0 206 206 206
149.7 -44.6 62.0 202 202 202
132.9 -39.2 54.5 234 236 236
148.5 -48.9 70.3 120 120 120
146.9 -47.4 68.0 183 183 183
141.3 -45.1 64.8 192 192 192
157.4 -47.2 67.8 200 200 200
158.7 -46.2 66.4 207 207 207
154.8 -44.6 64.1 198 198 198
134.0 -38.3 55.0 222 224 224
32.1 -46.8 69.5 221 221 221
150.8 -48.0 71.4 133 133 133
141.8 -43.7 65.0 192 192 192
160.3 -46.4 69.0 197 197 197
165.7 -46.6 69.3 207 207 207
155.9 -43.4 64.6 202 202 202
132.7 -36.0 53.4 94 94 94
33.7 -49.9 76.9 202 202 202
33.5 -47.1 72.5 221 221 221
65.0 -48.0 73.9 220 220 220
154.9 -47.6 73.3 122 122 122
158.3 -47.6 73.3 176 179 178
145.3 -43.3 66.6 190 190 190
168.5 -47.6 73.3 200 200 200
168.2 -47.1 72.5 200 200 200
173.3 -47.1 72.5 206 206 206
197.0 -50.6 77.8 73 75 75
32.4 -46.3 73.9 203 203 203
32.1 -43.6 69.5 223 225 225
39.0 -45.9 73.3 225 227 227
62.6 -45.7 73.0 220 220 220
62.1 -44.2 70.6 220 220 220
27.0 -10.4 16.7 223 225 225
153.1 -45.4 72.5 124 124 124
154.8 -45.4 72.5 163 163 163
154.1 -44.7 71.4 176 179 178
144.8 -41.6 66.4 190 190 190
141.4 -40.2 64.1 195 195 195
165.1 -45.9 73.3 195 195 195
166.1 -45.7 73.0 197 197 197
165.3 -45.0 71.9 197 197 197
163.9 -44.2 70.6 200 200 200
161.3 -43.1 68.8 200 200 200
170.0 -44.5 71.1 206 206 206
165.5 -42.9 68.5 202 202 202
169.5 -43.6 69.5 230 229 227
162.2 -41.3 65.9 237 237 237
202.8 -50.2 80.2 69 69 69
184.4 -45.2 72.2 70 70 70
-36.9 -9.8 16.2 138 138 138
-36.1 -9.6 16.0 77 77 77
-35.5 -9.6 15.9 62 62 62
32.9 -45.3 75.1 207 210 209
32.1 -41.9 69.5 224 226 226
39.4 -44.7 74.2 225 227 227
65.0 -44.6 73.9 222 224 224
56.8 -37.9 62.8 221 221 221
26.8 -9.9 16.5 223 225 225
153.1 -43.7 72.5 102 104 104
155.4 -43.9 72.8 162 165 164
152.9 -42.7 70.8 174 176 176
141.3 -39.1 64.8 190 190 190
138.1 -37.8 62.6 193 193 193
167.2 -43.9 72.8 196 196 196
162.0 -42.1 69.8 200 200 200
154.0 -39.6 65.7 202 202 202
150.3 -38.3 63.5 206 206 206
168.1 -42.4 70.3 204 204 204
160.8 -40.2 66.6 202 202 202
161.8 -40.0 66.4 234 234 234
154.1 -37.8 62.6 234 236 236
152.6 -37.0 61.4 111 111 111
207.2 -49.4 81.9 57 59 59
188.7 -44.6 73.9 64 64 64
166.9 -39.1 64.8 67 67 67
-43.3 -10.6 18.3 75 76 76
-37.1 -9.4 16.3 70 70 70
-36.4 -9.4 16.1 77 77 77
21.8 -45.7 78.8 145 145 144
23.7 -45.9 79.1 143 143 142
25.5 -45.9 79.1 143 143 142
26.9 -45.1 77.8 146 146 146
29.2 -45.9 79.1 146 146 146
30.9 -45.7 78.8 146 146 146
32.7 -45.7 78.8 144 144 144
34.7 -45.9 79.1 207 207 207
35.5 -44.6 76.9 224 226 226
41.1 -46.9 80.8 226 229 228
41.4 -45.1 77.8 226 229 228
50.1 -46.5 80.2 223 225 225
49.8 -44.6 76.9 222 222 222
62.3 -45.9 79.1 219 219 219
64.2 -45.9 79.1 219 219 219
66.6 -46.3 79.8 219 219 219
67.3 -45.5 78.5 219 219 219
68.5 -45.1 77.8 221 221 221
74.3 -45.3 78.2 215 215 215
76.7 -45.7 78.8 212 213 212
78.5 -45.7 78.8 222 224 224
80.4 -45.7 78.8 193 193 193
81.9 -45.5 78.5 83 85 85
83.3 -45.3 78.2 69 69 69
85.5 -45.5 78.5 70 70 70
87.3 -45.5 78.5 73 73 73
89.9 -45.9 79.1 70 70 70
91.7 -45.9 79.1 71 71 71
95.4 -45.9 79.1 83 83 83
96.9 -45.7 78.8 57 59 59
99.1 -45.9 79.1 57 59 59
27.5 -9.9 17.1 224 226 226
176.0 -51.7 89.2 224 226 226
161.2 -46.3 79.8 222 224 224
169.3 -46.5 80.2 82 84 84
169.7 -46.1 79.5 151 151 151
166.7 -44.8 77.2 175 175 175
136.8 -36.0 62.0 193 193 193
179.4 -46.7 80.5 193 193 193
177.5 -45.7 78.8 196 196 196
181.6 -46.3 79.8 196 196 196
181.1 -45.7 78.8 198 198 198
177.8 -44.4 76.6 202 202 202
185.6 -45.9 79.1 202 202 202
188.2 -46.1 79.5 204 204 204
178.8 -43.4 74.8 207 207 207
177.7 -42.7 73.6 199 199 199
183.0 -43.5 75.1 235 235 235
202.7 -46.9 80.8 65 65 65
205.4 -47.1 81.2 60 62 61
200.5 -45.5 78.5 60 63 62
-76.7 -17.6 31.7 75 75 75
-75.8 -17.6 31.6 75 75 75
-39.5 -9.3 16.6 75 76 76
-38.9 -9.2 16.5 75 76 76
-38.2 -9.1 16.4 77 77 77
-37.5 -9.1 16.4 80 80 80
-36.9 -9.1 16.3 77 77 77
-36.8 -9.2 16.5 77 77 77
-63.1 -16.6 29.8 72 72 72
-34.0 -9.1 16.4 73 73 73
-42.3 -17.4 31.3 30 30 30
-21.1 -9.2 16.5 33 34 32
-20.6 -9.1 16.4 33 34 32
27.8 -44.8 80.5 143 143 142
30.1 -45.4 81.5 140 140 140
32.1 -45.6 81.9 141 141 141
34.8 -46.6 83.7 141 141 141
36.2 -46.0 82.6 204 204 204
36.4 -43.9 78.8 225 227 227
41.0 -47.0 84.4 224 226 226
42.9 -47.0 84.4 224 226 226
42.8 -44.8 80.5 224 226 226
52.7 -47.0 84.4 222 222 222
51.9 -44.6 80.2 222 222 222
69.8 -50.9 91.4 219 219 219
69.8 -46.6 83.7 219 219 219
71.4 -46.4 83.3 219 219 219
70.6 -44.6 80.2 219 219 219
76.8 -45.0 80.8 216 216 216
78.7 -45.0 80.8 225 227 227
80.6 -45.0 80.8 197 197 197
84.2 -46.0 82.6 67 67 67
85.8 -45.8 82.2 72 72 72
87.3 -45.6 81.9 67 67 65
90.0 -46.0 82.6 67 67 65
91.1 -45.6 81.9 75 75 75
93.0 -45.6 81.9 75 75 75
97.0 -46.6 83.7 71 71 71
99.0 -46.6 83.7 69 68 67
100.9 -46.6 83.7 69 68 67
101.5 -46.0 82.6 70 70 70
27.5 -9.6 17.2 222 224 224
178.6 -50.4 90.5 223 225 225
167.1 -46.6 83.7 223 225 225
166.8 -46.0 82.6 223 225 225
168.7 -46.0 82.6 223 225 225
169.9 -45.8 82.2 221 221 221
174.1 -46.4 83.3 174 176 176
176.8 -46.6 83.7 80 80 80
177.2 -46.2 83.0 132 135 134
171.6 -44.2 79.5 175 175 175
184.6 -46.6 83.7 191 191 191
188.2 -47.0 84.4 193 193 193
186.8 -46.2 83.0 196 196 196
191.3 -46.8 84.1 196 196 196
189.8 -46.0 82.6 198 198 198
184.5 -44.2 79.5 198 198 198
198.0 -47.0 84.4 202 202 202
200.0 -47.0 84.4 202 202 202
185.4 -43.1 77.5 204 204 204
185.7 -42.8 76.9 203 203 203
190.5 -43.5 78.2 234 234 234
196.4 -44.4 79.8 235 238 237
200.0 -44.8 80.5 108 108 108
211.7 -47.0 84.4 71 73 73
212.8 -46.8 84.1 64 64 64
207.3 -45.2 81.2 60 63 62
-83.5 -15.8 29.6 67 67 67
-83.0 -15.9 29.7 68 68 68
-82.2 -15.8 29.7 69 69 69
-81.5 -15.8 29.7 69 69 69
-80.7 -15.8 29.6 70 70 70
-80.0 -15.8 29.6 70 70 70
-79.5 -15.8 29.7 71 71 71
-78.9 -15.9 29.7 73 74 72
-78.3 -15.9 29.8 69 69 69
-78.5 -16.1 30.1 70 70 70
-76.8 -15.9 29.7 70 70 70
-75.7 -15.9 29.8 74 74 74
-74.3 -15.8 29.6 75 75 75
-73.6 -15.8 29.6 75 75 75
-73.4 -15.9 29.7 75 76 76
-73.5 -16.0 30.1 74 74 74
-72.6 -16.0 30.0 74 74 74
-71.5 -15.9 29.8 75 75 75
-70.6 -15.9 29.7 75 75 75
-69.7 -15.8 29.6 74 74 74
-69.0 -15.8 29.6 74 74 74
-68.2 -15.8 29.6 75 75 75
-67.5 -15.8 29.6 77 77 77
-67.3 -15.9 29.8 72 73 71
-66.5 -15.9 29.7 73 74 72
-65.9 -15.9 29.8 71 71 71
-65.0 -15.8 29.7 72 72 72
-64.1 -15.8 29.6 72 72 72
-63.6 -15.8 29.7 72 72 72
-62.6 -15.8 29.6 72 72 72
-61.9 -15.8 29.6 72 72 72
-61.5 -15.8 29.7 72 72 72
-60.9 -15.9 29.7 72 72 72
-60.0 -15.8 29.6 72 72 72
-60.5 -16.1 30.2 69 71 69
-58.8 -15.9 29.7 67 67 67
-57.9 -15.8 29.6 67 67 67
-57.4 -15.8 29.7 66 66 66
-57.6 -16.1 30.2 66 66 66
-56.3 -15.9 29.8 64 64 64
-55.0 -15.8 29.6 64 64 64
-54.4 -15.8 29.6 69 71 69
-41.0 -16.2 30.3 30 30 30
-39.5 -15.9 29.7 30 30 30
-38.6 -15.8 29.6 30 29 29
-37.9 -15.8 29.6 31 31 31
-37.4 -15.9 29.7 31 31 31
-36.6 -15.8 29.6 33 34 32
-35.9 -15.8 29.6 33 34 32
-35.4 -15.9 29.8 32 33 31
35.8 -48.7 91.4 132 132 132
38.3 -49.2 92.3 134 134 134
38.8 -47.1 88.4 207 207 207
44.6 -49.0 91.8 225 227 227
46.7 -49.0 91.8 225 227 227
57.4 -49.0 91.8 224 224 224
75.8 -48.5 90.9 217 217 217
78.3 -48.7 91.4 217 217 217
92.7 -48.5 90.9 73 73 73
94.4 -48.3 90.5 57 59 59
99.1 -48.5 90.9 73 73 73
112.3 -48.7 91.4 69 68 67
27.5 -9.2 17.2 222 224 224
184.9 -48.3 90.5 223 225 225
188.5 -47.6 89.2 111 111 111
185.3 -46.3 86.8 144 144 144
180.7 -44.6 83.7 170 171 170
158.7 -38.8 72.8 186 186 186
200.5 -48.5 90.9 189 189 189
202.7 -48.5 90.9 193 193 193
204.8 -48.5 90.9 196 196 196
203.0 -47.6 89.2 196 196 196
201.3 -46.7 87.6 198 198 198
210.1 -48.3 90.5 198 198 198
237.2 -54.0 101.2 202 202 202
219.6 -49.5 92.7 203 203 203
198.4 -44.2 83.0 204 204 204
179.1 -39.6 74.2 197 197 197
223.8 -48.5 90.9 234 234 234
224.8 -48.3 90.5 116 116 116
224.8 -47.8 89.7 72 74 74
222.6 -46.9 88.0 69 69 69
217.6 -45.4 85.2 65 65 65
-83.0 -15.0 29.5 66 66 66
-72.7 -15.2 29.7 73 73 73
-71.9 -15.1 29.7 74 74 74
-70.8 -15.1 29.6 74 74 74
-69.8 -15.0 29.4 75 75 75
-68.6 -14.9 29.2 73 73 73
-67.3 -14.8 28.9 70 72 69
-66.1 -14.6 28.7 75 75 75
-65.3 -14.6 28.6 77 77 77
-63.0 -14.8 29.1 71 71 71
-58.5 -15.1 29.6 65 65 65
-56.9 -14.8 29.1 65 65 65
-40.8 -15.4 30.2 30 30 30
-39.0 -15.0 29.4 31 31 31
-37.8 -14.8 29.0 30 29 29
-36.1 -14.4 28.2 30 29 29
44.9 -55.1 108.1 120 122 121
42.1 -49.0 96.0 218 218 218
52.8 -53.0 103.9 225 227 227
27.5 -8.8 17.2 223 225 225
27.2 -8.6 16.8 223 225 225
207.9 -46.6 91.4 198 198 198
205.1 -45.5 89.2 197 197 197
256.0 -55.1 108.1 203 203 203
177.7 -37.5 73.6 203 203 203
244.7 -50.3 98.5 116 116 116
230.2 -46.8 91.8 71 71 71
222.6 -44.9 88.0 69 69 69
220.6 -44.1 86.4 67 67 67
-35.5 -13.5 27.7 30 29 29
27.1 -8.1 16.7 223 225 225
203.9 -43.6 89.7 197 197 197
131.3 -25.7 52.8 116 116 116
228.0 -44.3 90.9 65 65 65
217.6 -41.9 86.0 65 65 65
215.7 -41.1 84.4 68 68 68
109.8 -20.2 41.5 64 66 66
27.1 -7.7 16.7 222 222 222
206.3 -157.2 356.9 224 224 224
27.6 -7.6 17.2 224 224 224
27.1 -7.4 16.7 224 224 224
28.5 -7.6 17.3 224 224 224
29.4 -7.7 17.6 224 224 224
25.0 -5.9 13.3 224 224 224
24.6 -5.7 12.9 224 224 224
24.7 -5.5 13.2 225 225 225
24.9 -5.5 13.1 225 225 225
24.7 -5.1 13.0 225 225 225
24.9 -5.1 12.9 225 225 225
603.9 -93.1 236.5 55 55 55
573.5 -87.7 222.5 57 57 57
24.9 -4.9 13.3 226 226 226
25.0 -4.9 13.1 226 226 226
24.8 -4.8 12.9 226 226 226
261.6 -37.3 100.6 61 61 61
261.2 -36.9 99.6 63 65 65
25.0 -4.6 13.3 224 224 224
25.1 -4.6 13.2 226 226 226
24.8 -4.5 12.9 226 226 226
266.8 -35.3 101.7 63 65 65
25.1 -4.3 13.3 224 224 224
25.2 -4.3 13.2 227 227 227
483.1 -43.7 189.2 63 65 65
435.3 -39.0 168.9 62 62 62
387.3 -34.4 148.9 61 61 61
365.9 -34.5 165.9 160 160 160
373.0 -34.8 167.4 189 189 189
452.3 -39.3 189.2 200 200 200
404.5 -34.5 165.9 230 233 232
404.8 -34.2 164.5 226 226 226
431.3 -35.1 168.9 63 65 65
390.0 -31.5 151.3 64 66 66
378.4 -30.3 145.5 67 69 68
409.7 -29.4 159.0 73 73 73
384.3 -27.3 147.8 79 81 80
54.3 -0.3 14.6 89 89 89
81.4 0.0 21.9 87 87 87
23.3 0.3 11.7 223 225 225
80.6 0.5 21.5 87 87 87
81.0 0.5 21.5 91 91 91
82.7 0.5 21.8 90 90 90
83.1 0.5 21.8 170 171 170
80.5 1.0 21.5 85 85 85
80.9 1.0 21.5 92 95 94
82.2 1.0 21.7 92 95 94
82.6 1.0 21.7 172 172 172
79.3 1.5 20.8 168 170 169
78.1 1.9 20.5 168 170 169
77.0 1.9 20.1 133 133 133
76.4 2.3 19.9 136 136 136
99.4 3.8 27.3 132 132 132
100.1 3.8 26.9 88 88 88
99.3 4.5 27.6 191 191 191
100.3 4.5 27.7 148 148 148
101.7 4.6 27.9 116 116 116
102.7 4.6 28.0 96 99 98
103.6 4.6 28.1 87 86 84
102.5 4.5 27.6 87 86 84
103.4 4.5 27.7 89 89 89
103.9 4.5 27.6 95 95 95
104.7 4.5 27.7 96 99 98
102.8 5.3 28.2 116 116 116
103.9 5.3 28.3 95 95 95
104.6 5.3 28.3 87 87 85
103.8 5.2 27.9 87 87 85
105.6 5.3 28.2 87 87 85
105.4 5.2 28.0 95 95 95
105.8 5.2 27.9 99 101 101
105.0 6.0 28.4 87 87 85
106.5 6.7 28.8 83 83 83
107.8 6.7 28.7 94 94 94
110.0 6.7 28.9 88 88 86
110.7 6.7 28.9 171 173 173
107.1 7.5 29.0 79 79 79
108.8 7.4 28.7 209 209 209
110.8 7.5 29.1 175 175 175
111.5 7.5 29.1 163 163 163
104.5 7.7 27.6 121 121 121
109.8 8.1 28.8 139 139 139
110.8 8.1 28.9 164 164 164
104.8 8.5 27.9 94 94 94
109.8 8.7 28.8 128 130 129
110.3 8.7 28.8 156 156 156
110.7 9.5 29.1 150 150 150
110.7 9.4 28.9 152 154 154
161.9 15.9 42.5 157 157 157
164.1 17.1 43.1 163 163 163
-231.5 70.5 108.1 120 120 120
-216.4 70.5 108.1 169 169 169
-210.1 70.9 108.7 137 137 137
-207.5 70.9 108.7 128 130 129
-205.0 70.9 108.7 114 116 115
-202.5 70.9 108.7 111 111 111
-199.9 70.9 108.7 112 112 112
-197.4 70.9 108.7 112 112 112
-194.9 70.9 108.7 109 109 109
-192.4 70.9 108.7 107 107 107
-189.8 70.9 108.7 99 101 101
-187.3 70.9 108.7 98 98 98
-184.8 70.9 108.7 96 96 96
-182.3 70.9 108.7 99 101 101
-179.7 70.9 108.7 113 114 113
-177.2 70.9 108.7 119 119 119
-174.7 70.9 108.7 120 122 121
-172.1 70.9 108.7 125 125 125
-169.6 70.9 108.7 125 125 125
-167.1 70.9 108.7 147 147 147
-164.6 70.9 108.7 144 144 144
-162.0 70.9 108.7 131 134 133
-159.5 70.9 108.7 137 137 137
-157.0 70.9 108.7 139 139 139
-151.8 69.7 106.9 121 121 121
-148.6 71.7 110.0 124 124 124
-144.4 70.9 108.7 128 130 129
-140.2 70.1 107.5 128 131 130
-138.5 70.5 108.1 137 137 137
-136.8 70.9 108.7 147 147 145
-134.2 70.9 108.7 152 152 152
-131.7 70.9 108.7 146 146 144
-129.2 70.9 108.7 110 112 111
-126.7 70.9 108.7 96 99 98
-124.1 70.9 108.7 120 120 120
-121.6 70.9 108.7 149 149 149
-119.1 70.9 108.7 148 150 150
-116.6 70.9 108.7 147 147 147
-114.0 70.9 108.7 134 134 134
-111.5 70.9 108.7 118 118 118
-109.0 70.9 108.7 102 102 102
-106.5 70.9 108.7 107 109 109
-103.9 70.9 108.7 121 123 122
-101.4 70.9 108.7 126 126 126
-97.7 70.1 107.5 136 136 136
-88.8 70.9 108.7 81 84 83
-86.2 70.9 108.7 138 138 138
-68.5 70.9 108.7 143 143 142
-66.0 70.9 108.7 176 176 176
-63.5 70.9 108.7 177 177 177
-61.0 70.9 108.7 179 179 179
-58.4 70.9 108.7 179 179 179
-55.9 70.9 108.7 168 170 169
-53.4 70.9 108.7 151 151 151
-50.9 70.9 108.7 173 173 173
-48.3 70.9 108.7 184 184 184
-45.8 70.9 108.7 235 235 235
-43.3 70.9 108.7 236 236 236
-40.8 70.9 108.7 238 238 238
-38.2 70.9 108.7 239 239 239
-35.7 70.9 108.7 239 239 239
-33.2 70.9 108.7 240 243 242
-13.0 71.3 109.3 59 59 59
-8.3 74.8 114.6 62 61 60
-5.3 70.5 108.1 1 6 2
-2.8 70.1 107.5 11 11 11
2.2 70.9 108.7 23 23 22
4.8 71.3 109.3 33 33 33
53.2 79.1 121.3 74 76 75
49.4 69.7 106.9 81 81 81
48.8 65.6 100.6 85 85 85
54.3 69.7 106.9 79 82 81
53.8 66.0 101.2 75 76 76
59.6 70.1 107.5 25 25 25
63.2 71.3 109.3 65 65 65
65.4 70.9 108.7 69 71 69
-293.6 101.4 150.1 177 177 177
-287.8 100.6 148.9 169 169 169
-284.3 100.6 148.9 153 153 153
-280.9 100.6 148.9 149 149 149
-277.4 100.6 148.9 140 140 140
-273.9 100.6 148.9 140 140 140
-270.5 100.6 148.9 134 134 134
-267.0 100.6 148.9 117 117 117
-263.6 100.6 148.9 111 113 112
-260.1 100.6 148.9 108 108 108
-256.6 100.6 148.9 104 104 104
-253.2 100.6 148.9 105 105 105
-249.7 100.6 148.9 108 110 110
-246.2 100.6 148.9 110 112 111
-242.8 100.6 148.9 119 119 119
-239.3 100.6 148.9 120 122 121
-235.9 100.6 148.9 134 136 135
-232.4 100.6 148.9 191 194 193
-228.9 100.6 148.9 180 183 182
-225.5 100.6 148.9 158 161 160
-222.0 100.6 148.9 148 148 148
-218.5 100.6 148.9 218 221 220
-206.9 96.8 143.3 226 229 228
-213.2 103.0 152.6 128 131 130
-206.3 101.4 150.1 119 119 119
-199.7 99.8 147.8 121 121 121
-196.2 99.8 147.8 123 123 123
-200.6 103.9 153.8 134 134 134
-190.9 100.6 148.9 144 144 144
-187.4 100.6 148.9 146 146 144
-183.9 100.6 148.9 147 147 147
-180.5 100.6 148.9 135 135 135
-177.0 100.6 148.9 104 104 104
-173.5 100.6 148.9 119 119 119
-170.1 100.6 148.9 140 140 140
-166.6 100.6 148.9 147 147 147
-163.2 100.6 148.9 150 152 152
-159.7 100.6 148.9 146 146 146
-156.2 100.6 148.9 131 131 131
-152.8 100.6 148.9 113 114 113
-149.3 100.6 148.9 104 104 104
-145.8 100.6 148.9 101 101 101
-142.4 100.6 148.9 106 108 108
-136.3 103.9 153.8 138 138 138
-127.5 99.8 147.8 140 140 140
-123.1 99.0 146.6 131 131 131
-121.6 100.6 148.9 92 95 94
-118.1 100.6 148.9 130 130 130
-104.3 100.6 148.9 95 95 95
-100.8 100.6 148.9 95 95 95
-97.4 100.6 148.9 91 93 92
-93.9 100.6 148.9 133 133 133
-90.5 100.6 148.9 162 162 162
-87.0 100.6 148.9 171 173 173
-83.5 100.6 148.9 178 178 178
-80.1 100.6 148.9 178 178 178
-76.6 100.6 148.9 166 169 168
-73.1 100.6 148.9 141 143 142
-69.7 100.6 148.9 183 183 183
-66.2 100.6 148.9 200 202 202
-62.8 100.6 148.9 239 239 239
-59.3 100.6 148.9 237 237 237
-55.8 100.6 148.9 239 242 241
-52.4 100.6 148.9 239 242 241
-48.9 100.6 148.9 240 243 242
-45.8 101.4 150.1 240 243 242
-21.0 99.8 147.8 238 238 238
-10.3 96.1 142.2 232 232 232
3.0 99.8 147.8 23 23 22
6.1 95.3 141.2 34 34 34
70.2 114.1 168.9 68 68 68
62.9 96.8 143.3 76 78 77
54.6 79.8 118.2 79 81 80
71.7 99.8 147.8 84 84 84
72.9 96.8 143.3 79 82 81
69.8 88.7 131.4 77 77 77
82.6 100.6 148.9 24 24 24
84.8 99.0 146.6 69 71 69
93.2 104.7 155.1 71 72 70
90.2 97.5 144.4 73 74 72
-59.2 55.2 56.5 145 145 144
