ply
format ascii 1.0
element vertex 2510
property float x
property float y
property float z
property uchar red
property uchar green
property uchar blue
end_header
114.7 -275.9 110.0 164 164 164
116.6 -274.3 109.3 164 164 164
118.4 -272.8 108.7 165 165 165
121.7 -274.3 109.3 162 162 162
124.2 -274.3 109.3 162 162 162
126.0 -272.8 108.7 162 162 162
129.3 -274.3 109.3 162 162 162
131.8 -274.3 109.3 162 162 162
134.4 -274.3 109.3 162 162 162
135.4 -271.2 108.1 162 162 162
137.9 -271.2 108.1 160 160 160
154.6 -269.7 107.5 156 159 158
157.1 -269.7 107.5 156 159 158
98.2 -160.9 64.1 156 159 158
100.4 -162.0 64.6 156 159 158
102.6 -163.1 65.0 157 160 159
104.1 -163.1 65.0 154 156 156
105.2 -162.5 64.8 155 158 157
74.8 -182.3 73.3 164 164 164
80.2 -183.0 73.6 165 165 165
85.3 -183.0 73.6 162 162 162
228.2 -479.8 193.0 162 162 162
223.6 -461.0 185.5 162 162 162
180.2 -364.5 146.6 162 162 162
92.5 -183.7 73.9 162 162 162
93.5 -182.3 73.3 163 163 163
106.3 -183.7 73.9 160 160 160
112.3 -188.1 75.7 161 161 161
108.9 -179.5 72.2 161 161 161
111.8 -178.8 71.9 161 161 161
114.8 -180.9 72.8 157 160 159
116.9 -181.6 73.0 157 160 159
114.2 -174.8 70.3 158 161 160
56.6 -177.1 71.9 165 165 165
58.3 -177.1 71.9 165 165 165
65.0 -177.1 71.9 166 166 166
66.7 -177.1 71.9 166 166 166
67.8 -175.8 71.4 164 164 164
69.2 -175.1 71.1 164 164 164
72.8 -179.9 73.0 164 164 164
73.9 -178.5 72.5 164 164 164
73.6 -173.8 70.6 164 164 164
78.4 -177.1 71.9 165 165 165
82.0 -177.8 72.2 162 162 162
83.4 -177.1 71.9 162 162 162
84.1 -175.1 71.1 162 162 162
87.1 -177.8 72.2 162 162 162
89.4 -179.2 72.8 162 162 162
90.4 -177.8 72.2 160 160 160
89.7 -173.2 70.3 160 160 160
102.3 -175.1 71.1 164 164 164
107.1 -180.6 73.3 161 161 161
110.6 -183.4 74.5 164 164 164
112.2 -177.8 72.2 161 161 161
115.2 -179.9 73.0 162 162 162
117.4 -180.6 73.3 162 162 162
114.6 -173.8 70.6 158 161 160
146.1 -111.4 45.3 105 105 105
137.9 -104.4 42.4 108 108 108
59.5 -38.9 15.8 163 166 165
58.8 -38.2 15.5 212 213 212
57.0 -36.9 15.0 191 191 191
79.9 -158.6 65.0 162 162 162
80.6 -156.9 64.3 166 166 166
90.1 -152.8 62.6 166 166 166
64.5 -101.2 41.5 164 164 164
130.3 -201.5 82.6 165 165 165
131.7 -200.6 82.2 165 165 165
139.1 -105.1 43.1 105 105 105
130.8 -98.2 40.2 106 106 106
126.4 -94.2 38.6 106 106 106
70.2 -49.5 20.3 96 99 98
67.4 -47.2 19.4 96 96 96
58.3 -38.0 15.6 206 206 206
58.2 -37.8 15.5 216 216 216
58.1 -37.5 15.4 197 200 199
56.3 -36.0 14.8 197 200 199
55.7 -35.5 14.5 218 218 218
52.0 -95.0 39.3 166 166 166
50.7 -91.0 37.7 166 166 166
57.8 -89.8 37.2 167 167 167
133.2 -204.0 84.4 168 168 168
135.2 -204.0 84.4 168 168 168
131.9 -196.1 81.2 170 171 170
123.5 -91.8 38.0 106 106 106
117.3 -86.6 35.8 105 104 102
113.6 -83.2 34.5 105 104 102
65.0 -45.1 18.7 96 96 96
63.1 -43.4 18.0 96 96 96
58.2 -37.4 15.5 212 213 212
56.1 -35.8 14.8 181 184 183
55.0 -34.9 14.5 216 216 216
54.4 -34.3 14.2 212 213 212
14.4 -87.9 36.7 161 161 161
14.9 -85.7 35.8 161 161 161
15.6 -85.2 35.6 161 161 161
16.5 -85.4 35.7 164 164 164
17.3 -85.4 35.7 163 163 163
18.1 -85.4 35.7 165 165 165
19.0 -85.4 35.7 165 165 165
19.8 -85.4 35.7 166 169 168
20.6 -85.4 35.7 165 168 167
21.5 -85.4 35.7 165 168 167
22.3 -85.4 35.7 165 168 167
23.1 -85.4 35.7 165 168 167
24.0 -85.4 35.7 165 168 167
24.8 -85.4 35.7 166 169 168
25.6 -85.4 35.7 166 169 168
26.4 -85.2 35.6 166 169 168
27.3 -85.4 35.7 166 169 168
28.1 -85.4 35.7 165 165 165
29.0 -85.6 35.8 165 165 165
29.8 -85.6 35.8 165 165 165
30.6 -85.6 35.8 165 165 165
31.5 -85.6 35.8 166 166 166
32.3 -85.6 35.8 166 166 166
33.1 -85.6 35.8 166 166 166
33.8 -85.2 35.6 166 166 166
34.7 -85.4 35.7 166 166 166
35.4 -84.9 35.5 166 166 166
36.4 -85.4 35.7 166 166 166
37.8 -86.7 36.2 166 166 166
38.0 -85.2 35.6 166 166 166
39.2 -86.1 36.0 167 167 167
40.0 -86.1 36.0 167 167 167
40.4 -85.1 35.6 167 167 167
41.5 -85.6 35.8 167 167 167
42.4 -85.7 35.8 167 167 167
42.8 -84.9 35.5 167 167 167
43.9 -85.4 35.7 167 167 167
44.9 -85.7 35.8 168 168 168
45.4 -85.1 35.6 168 168 168
46.5 -85.7 35.8 168 168 168
47.5 -86.1 36.0 168 168 168
48.1 -85.6 35.8 170 172 172
49.1 -85.9 35.9 170 172 172
50.7 -87.2 36.4 170 172 172
51.1 -86.4 36.1 168 168 168
51.7 -86.1 36.0 168 168 168
53.3 -87.2 36.4 169 169 169
53.0 -85.4 35.7 169 169 169
55.8 -87.2 36.4 171 173 173
56.0 -86.2 36.0 169 169 169
55.5 -84.1 35.2 170 171 170
135.2 -202.1 84.4 170 171 170
129.1 -190.2 79.5 172 174 174
107.4 -136.7 57.1 167 167 167
106.3 -77.1 32.2 105 104 102
63.4 -43.5 18.2 96 96 96
61.8 -42.1 17.6 96 96 96
60.8 -41.2 17.2 93 93 93
54.5 -34.4 14.4 218 218 218
53.9 -33.8 14.1 219 219 219
53.8 -33.6 14.0 218 218 218
14.5 -78.1 33.0 161 161 161
15.2 -78.2 33.0 161 161 161
16.0 -78.2 33.0 165 165 165
16.8 -78.2 33.0 165 165 165
17.6 -78.2 33.0 166 169 168
18.3 -78.2 33.0 166 169 168
19.1 -78.2 33.0 165 168 167
19.9 -78.2 33.0 165 168 167
20.6 -78.2 33.0 165 168 167
21.4 -78.2 33.0 165 168 167
22.2 -78.2 33.0 165 168 167
22.9 -78.2 33.0 166 169 168
23.7 -78.2 33.0 165 165 165
24.5 -78.2 33.0 165 165 165
25.2 -78.1 33.0 166 169 168
26.0 -78.2 33.0 166 169 168
26.7 -78.1 33.0 165 165 165
27.5 -78.1 33.0 165 165 165
28.3 -78.4 33.1 166 169 168
29.1 -78.4 33.1 166 169 168
29.8 -78.2 33.0 168 170 169
30.6 -78.4 33.1 168 170 169
31.4 -78.4 33.1 168 170 169
32.1 -78.2 33.0 168 170 169
32.9 -78.2 33.0 168 170 169
33.6 -78.1 33.0 168 170 169
34.5 -78.4 33.1 168 170 169
35.3 -78.4 33.1 169 171 170
36.0 -78.2 33.0 169 171 170
37.3 -79.5 33.5 169 171 170
37.7 -78.6 33.2 169 171 170
38.1 -77.8 32.8 169 171 170
39.2 -78.5 33.1 172 174 174
39.8 -78.2 33.0 169 171 170
40.5 -78.1 33.0 169 171 170
41.6 -78.6 33.2 173 175 175
42.2 -78.4 33.1 170 172 172
42.8 -78.1 33.0 170 172 172
43.9 -78.8 33.2 173 175 175
44.5 -78.4 33.1 170 172 172
45.2 -78.2 33.0 170 172 172
46.6 -79.3 33.5 170 172 172
47.4 -79.3 33.5 170 172 172
47.9 -78.9 33.3 173 175 175
48.4 -78.5 33.1 171 173 173
49.2 -78.5 33.1 174 176 176
52.9 -80.6 34.0 171 173 173
52.9 -79.5 33.5 175 177 177
52.8 -78.1 33.0 172 174 174
126.4 -184.5 77.8 172 174 174
29.2 -40.2 17.0 174 176 176
29.2 -39.8 16.8 173 173 173
48.8 -62.3 26.3 170 171 170
46.3 -58.4 24.6 174 174 174
45.6 -56.7 23.9 170 171 170
61.1 -41.3 17.4 96 96 96
59.7 -40.1 16.9 96 96 96
14.3 -76.4 32.6 164 164 164
19.9 -74.7 31.8 165 168 167
20.6 -74.7 31.8 165 168 167
21.4 -74.7 31.8 165 168 167
22.1 -74.8 31.9 166 169 168
22.9 -75.0 32.0 166 169 168
23.6 -74.6 31.8 166 169 168
24.6 -75.5 32.2 166 169 168
25.3 -75.5 32.2 166 169 168
25.9 -75.1 32.0 166 169 168
26.6 -75.0 32.0 166 169 168
29.3 -76.1 32.4 168 170 169
30.1 -76.3 32.5 168 170 169
30.9 -76.4 32.6 171 173 173
31.6 -76.1 32.4 176 176 176
32.6 -75.0 32.0 171 173 173
35.0 -75.5 32.2 177 177 177
37.0 -76.5 32.6 172 174 174
36.5 -74.0 31.5 172 174 174
38.6 -75.1 32.0 177 177 177
39.1 -74.6 31.8 180 180 180
40.8 -76.4 32.6 173 175 175
40.5 -74.6 31.8 178 178 178
40.7 -73.5 31.3 178 178 178
43.2 -76.7 32.7 178 178 178
43.7 -76.3 32.5 178 178 178
43.8 -75.1 32.0 178 178 178
45.2 -76.1 32.4 180 180 180
45.8 -76.0 32.4 181 181 181
46.4 -75.7 32.3 183 183 183
46.7 -75.0 32.0 181 181 181
48.2 -76.1 32.4 181 181 181
48.9 -76.1 32.4 174 176 176
51.5 -77.7 33.1 174 176 176
51.7 -76.9 32.8 175 177 177
52.0 -76.3 32.5 175 177 177
52.9 -76.4 32.6 175 177 177
28.7 -39.2 16.7 174 176 176
28.8 -38.8 16.5 177 180 179
50.9 -64.3 27.4 179 182 181
47.5 -59.3 25.3 176 179 178
45.7 -56.3 24.0 176 176 176
56.8 -37.5 16.0 96 96 96
14.7 -70.5 30.4 166 169 168
15.4 -70.4 30.3 166 169 168
16.1 -70.4 30.3 166 169 168
16.8 -70.4 30.3 166 169 168
17.5 -70.4 30.3 165 168 167
18.2 -70.4 30.3 165 168 167
18.9 -70.4 30.3 165 168 167
19.6 -70.4 30.3 165 168 167
20.3 -70.4 30.3 165 168 167
21.0 -70.4 30.3 166 169 168
21.8 -70.6 30.4 170 172 172
22.5 -70.5 30.4 170 172 172
24.7 -70.9 30.5 166 169 168
25.3 -70.4 30.3 175 175 175
25.8 -70.0 30.1 170 172 172
35.2 -70.5 30.4 194 194 194
35.7 -70.1 30.2 196 196 196
36.7 -70.6 30.4 196 196 196
37.3 -70.4 30.3 196 196 196
38.1 -70.8 30.5 196 196 196
38.8 -70.6 30.4 196 196 196
39.2 -70.2 30.2 196 196 196
40.1 -70.5 30.4 199 199 199
41.5 -71.7 30.9 196 196 196
41.6 -70.6 30.4 196 196 196
42.8 -71.5 30.8 203 203 203
43.3 -71.1 30.6 199 199 199
44.0 -71.1 30.6 199 199 199
44.4 -70.6 30.4 199 199 199
45.0 -70.4 30.3 199 199 199
45.7 -70.4 30.3 199 199 199
205.4 -311.7 134.2 196 196 196
189.7 -283.5 122.0 196 196 196
187.7 -264.7 114.0 202 202 202
28.4 -37.9 16.3 199 199 199
28.0 -36.9 15.9 203 203 203
67.9 -46.6 20.0 99 101 101
66.8 -45.4 19.6 99 101 101
56.4 -36.9 15.9 93 93 93
55.7 -35.9 15.5 99 101 101
34.8 -69.1 30.0 203 203 203
38.3 -69.1 30.0 203 203 203
40.9 -69.9 30.4 203 203 203
41.1 -69.1 30.0 203 203 203
42.4 -70.1 30.5 203 203 203
42.8 -69.5 30.2 203 203 203
43.3 -69.3 30.1 203 203 203
43.9 -69.1 30.0 203 203 203
44.2 -68.4 29.7 203 203 203
205.4 -308.5 134.2 203 203 203
183.8 -271.9 118.2 203 203 203
142.1 -207.2 90.1 204 204 204
48.5 -69.7 30.3 204 204 204
177.1 -247.2 107.5 205 205 205
164.6 -226.6 98.5 205 205 205
27.7 -36.1 15.7 206 206 206
66.5 -45.1 19.6 105 104 102
65.9 -44.4 19.3 99 101 101
54.2 -35.3 15.3 96 99 98
55.2 -35.7 15.5 96 96 96
55.4 -35.4 15.4 99 101 101
42.8 -70.0 30.8 206 206 206
42.7 -68.7 30.2 206 206 206
42.9 -67.9 29.8 206 206 206
43.4 -67.6 29.7 206 206 206
40.8 -61.6 27.1 206 206 206
40.5 -60.2 26.5 206 206 206
181.5 -265.8 116.8 203 203 203
136.3 -196.6 86.4 204 204 204
134.7 -188.9 83.0 204 204 204
160.6 -222.0 97.5 205 205 205
152.7 -208.0 91.4 205 205 205
27.5 -35.5 15.6 206 206 206
27.1 -34.6 15.2 207 207 207
63.6 -42.7 18.7 106 106 106
63.5 -42.1 18.5 105 104 102
37.9 -67.0 29.7 206 206 206
41.2 -69.0 30.6 206 206 206
41.2 -67.9 30.1 206 206 206
42.8 -69.3 30.8 206 206 206
42.7 -68.0 30.2 206 206 206
42.8 -67.1 29.8 206 206 206
43.3 -66.8 29.6 206 206 206
43.7 -66.3 29.4 206 206 206
42.1 -63.0 27.9 206 206 206
41.7 -61.3 27.2 206 206 206
133.2 -190.3 84.4 204 204 204
126.9 -176.1 78.2 204 204 204
107.8 -147.5 65.5 205 205 205
27.8 -36.5 16.2 206 206 206
28.1 -36.4 16.1 206 206 206
27.6 -35.3 15.7 209 209 209
27.6 -34.8 15.4 207 207 207
65.4 -43.8 19.4 109 109 109
63.6 -42.3 18.8 109 109 109
34.6 -66.5 29.8 205 205 205
41.1 -67.0 30.0 208 208 208
42.2 -67.6 30.3 208 208 208
42.6 -67.1 30.1 208 208 208
42.7 -66.2 29.7 211 211 211
43.2 -65.9 29.6 209 209 209
43.1 -64.8 29.1 206 206 206
42.4 -62.8 28.1 206 206 206
42.6 -62.0 27.8 206 206 206
43.8 -62.9 28.2 206 206 206
48.5 -67.6 30.3 206 206 206
28.4 -36.3 16.3 208 208 208
27.6 -34.9 15.6 208 208 208
27.5 -34.3 15.4 206 206 206
27.4 -33.8 15.2 206 206 206
34.3 -65.2 29.6 208 208 208
34.8 -65.0 29.5 208 208 208
35.7 -65.4 29.6 208 208 208
36.3 -65.1 29.5 208 208 208
37.1 -65.3 29.6 208 208 208
37.5 -64.8 29.4 208 208 208
40.9 -65.9 29.9 208 208 208
42.2 -66.9 30.3 208 208 208
42.4 -66.2 30.0 208 208 208
42.6 -65.3 29.6 208 208 208
43.1 -65.1 29.5 208 208 208
43.4 -64.5 29.2 208 208 208
43.3 -63.4 28.7 208 208 208
43.2 -62.2 28.2 208 208 208
44.8 -63.5 28.8 208 208 208
48.5 -66.8 30.3 206 206 206
49.2 -66.8 30.3 209 209 209
27.6 -34.6 15.7 208 208 208
27.5 -33.9 15.4 208 208 208
27.4 -33.5 15.2 206 206 206
34.3 -64.6 29.6 207 207 207
34.8 -64.3 29.5 207 207 207
35.7 -64.7 29.6 207 207 207
37.5 -64.2 29.4 207 207 207
38.0 -63.9 29.3 207 207 207
42.7 -66.9 30.7 207 207 207
42.3 -65.3 29.9 207 207 207
42.5 -64.5 29.6 207 207 207
43.1 -64.4 29.5 207 207 207
43.5 -63.9 29.3 208 208 208
43.5 -63.1 28.9 208 208 208
43.8 -62.4 28.6 208 208 208
44.7 -62.8 28.7 208 208 208
48.5 -66.1 30.3 208 208 208
49.4 -66.4 30.4 211 211 211
27.9 -34.6 15.8 207 207 207
27.5 -33.7 15.4 207 207 207
-29.2 -22.4 10.4 45 44 43
-29.0 -22.4 10.4 45 44 43
-28.8 -22.4 10.4 45 44 43
-28.5 -22.4 10.4 45 44 43
-28.3 -22.4 10.4 45 44 43
-28.0 -22.4 10.4 45 44 43
-27.8 -22.4 10.4 47 47 47
-27.6 -22.4 10.4 47 47 47
-27.3 -22.4 10.4 47 47 47
-27.1 -22.4 10.4 49 49 49
-26.8 -22.4 10.4 47 47 47
-26.6 -22.4 10.4 46 46 46
-26.3 -22.4 10.4 45 44 43
-26.1 -22.4 10.4 45 44 43
-25.9 -22.4 10.4 41 41 41
-25.6 -22.4 10.4 41 41 41
-25.4 -22.5 10.4 41 41 41
-25.1 -22.4 10.4 41 41 41
-24.9 -22.4 10.4 41 41 41
-24.7 -22.4 10.4 39 39 39
-24.4 -22.5 10.4 39 39 39
-24.2 -22.4 10.4 39 39 39
-23.9 -22.4 10.4 39 39 39
-23.7 -22.4 10.4 39 39 39
-23.5 -22.4 10.4 39 39 39
-23.2 -22.4 10.4 41 41 41
-23.0 -22.4 10.4 41 41 41
-22.8 -22.5 10.4 41 41 41
-22.6 -22.5 10.4 39 39 39
-22.3 -22.5 10.4 41 41 41
-22.1 -22.5 10.4 54 54 54
-21.8 -22.5 10.4 53 53 53
-21.5 -22.4 10.4 76 76 74
-21.4 -22.6 10.4 84 86 86
-21.1 -22.5 10.4 93 93 93
-20.8 -22.4 10.4 95 98 97
-20.6 -22.4 10.4 99 99 99
-20.3 -22.4 10.4 102 102 102
-20.0 -22.4 10.4 103 103 103
-19.8 -22.4 10.4 106 106 106
-19.2 -22.5 10.4 106 108 108
-18.9 -22.5 10.4 105 107 107
-18.6 -22.5 10.4 105 107 107
-18.5 -22.5 10.4 107 109 109
-18.2 -22.5 10.4 112 112 112
-17.4 -22.5 10.4 115 114 114
-17.2 -22.5 10.4 112 112 112
-16.9 -22.5 10.4 115 114 114
-16.3 -22.5 10.4 116 118 117
-15.9 -22.4 10.4 118 120 119
-15.6 -22.6 10.5 122 122 122
-15.3 -22.6 10.5 123 123 123
-15.0 -22.4 10.4 123 123 123
-14.7 -22.4 10.4 123 123 123
-14.5 -22.5 10.4 123 123 123
-14.3 -22.5 10.4 122 122 122
-14.1 -22.5 10.4 125 125 125
-13.8 -22.4 10.4 126 126 126
-13.6 -22.4 10.4 129 129 129
-9.4 -22.4 10.4 137 137 137
-9.2 -22.5 10.4 138 140 139
-9.0 -22.6 10.5 140 140 140
-8.8 -22.6 10.4 139 139 139
-8.5 -22.6 10.5 139 139 139
-8.3 -22.5 10.4 140 142 141
-8.0 -22.4 10.4 138 140 139
-7.8 -22.4 10.4 136 138 137
-7.5 -22.4 10.4 132 135 134
-7.3 -22.4 10.4 137 137 137
-6.8 -22.6 10.4 141 143 142
-6.5 -22.4 10.4 145 145 144
-6.3 -22.4 10.4 145 145 144
-6.1 -22.5 10.4 148 148 148
-5.8 -22.5 10.4 155 155 155
-5.6 -22.5 10.4 155 158 157
-5.3 -22.5 10.4 162 162 162
-5.1 -22.4 10.4 163 163 163
-4.9 -22.5 10.4 163 163 163
-4.6 -22.6 10.4 163 166 165
-3.7 -22.5 10.4 160 163 162
-3.2 -22.6 10.5 166 166 166
-2.9 -22.5 10.4 168 168 168
-2.7 -22.4 10.4 168 168 168
-2.4 -22.4 10.4 168 168 168
-2.0 -22.5 10.4 170 171 170
-1.7 -22.4 10.4 171 173 173
-1.5 -22.4 10.4 171 173 173
-1.2 -22.4 10.4 171 173 173
-1.0 -22.5 10.4 171 173 173
-0.8 -22.5 10.4 171 173 173
-0.5 -22.5 10.4 171 173 173
-0.3 -22.5 10.4 170 172 172
-0.0 -22.4 10.4 173 175 175
0.2 -22.4 10.4 173 175 175
0.5 -22.4 10.4 177 177 177
0.7 -22.4 10.4 177 177 177
0.9 -22.6 10.4 179 179 179
1.2 -22.5 10.4 179 179 179
1.9 -22.6 10.5 179 179 179
2.2 -22.5 10.4 180 180 180
2.4 -22.5 10.4 180 180 180
2.6 -22.5 10.4 180 180 180
2.9 -22.5 10.4 183 183 183
3.6 -22.6 10.5 182 182 182
3.9 -22.6 10.4 182 182 182
4.1 -22.4 10.4 182 182 182
4.3 -22.5 10.4 185 185 185
6.0 -22.4 10.4 209 209 209
6.2 -22.4 10.4 209 209 209
6.5 -22.4 10.4 209 209 209
6.7 -22.5 10.4 209 209 209
7.0 -22.5 10.4 209 209 209
7.2 -22.4 10.4 209 209 209
7.5 -22.4 10.4 209 209 209
7.7 -22.4 10.4 209 209 209
7.9 -22.4 10.4 209 209 209
8.2 -22.4 10.4 209 209 209
8.4 -22.4 10.4 209 209 209
8.7 -22.4 10.4 209 209 209
9.4 -22.5 10.4 209 209 209
9.6 -22.5 10.4 209 209 209
9.9 -22.4 10.4 209 209 209
10.1 -22.4 10.4 209 209 209
10.4 -22.4 10.4 207 207 207
10.6 -22.4 10.4 207 207 207
10.8 -22.4 10.4 207 207 207
11.1 -22.5 10.4 207 207 207
34.0 -63.4 29.3 207 207 207
34.4 -62.9 29.1 207 207 207
35.5 -63.6 29.4 207 207 207
35.8 -62.9 29.1 207 207 207
37.2 -63.1 29.2 207 207 207
37.6 -62.5 28.9 207 207 207
42.6 -66.1 30.6 207 207 207
41.9 -64.0 29.6 207 207 207
42.2 -63.5 29.4 207 207 207
42.7 -63.2 29.2 207 207 207
43.1 -62.8 29.1 207 207 207
43.4 -62.2 28.8 207 207 207
43.4 -61.3 28.4 207 207 207
41.0 -57.0 26.4 207 207 207
40.9 -56.0 25.9 207 207 207
48.1 -64.9 30.0 208 208 208
48.9 -65.1 30.1 208 208 208
62.2 -80.4 37.2 208 208 208
28.4 -35.2 16.3 206 206 206
28.2 -34.5 16.0 206 206 206
27.7 -33.5 15.5 207 207 207
27.5 -32.8 15.2 207 207 207
-29.6 -22.4 10.5 47 47 47
-29.5 -22.6 10.6 47 47 47
-29.3 -22.6 10.6 47 47 47
-29.0 -22.6 10.6 47 47 47
-28.8 -22.6 10.6 47 47 47
-28.5 -22.6 10.6 47 47 47
-28.2 -22.6 10.6 47 47 47
-28.0 -22.6 10.6 47 47 47
-27.8 -22.6 10.6 47 47 47
-27.6 -22.6 10.6 47 47 47
-27.3 -22.6 10.6 47 47 47
-27.1 -22.6 10.6 47 47 47
-26.8 -22.6 10.6 47 47 47
-26.6 -22.6 10.6 46 45 43
-26.4 -22.6 10.6 42 42 42
-26.3 -22.8 10.7 46 45 43
-25.8 -22.6 10.6 42 42 42
-25.6 -22.6 10.6 46 45 43
-25.3 -22.6 10.6 42 42 42
-25.1 -22.6 10.6 37 38 37
-24.9 -22.6 10.6 40 40 40
-24.6 -22.6 10.6 40 40 40
-24.4 -22.6 10.6 37 38 37
-24.1 -22.6 10.6 40 40 40
-23.9 -22.6 10.6 40 40 40
-23.6 -22.6 10.6 40 40 40
-23.3 -22.6 10.6 40 40 40
-23.0 -22.7 10.6 40 40 40
-22.6 -22.5 10.5 42 42 42
-22.4 -22.6 10.6 46 45 43
-22.3 -22.7 10.6 42 42 42
-22.1 -22.8 10.7 51 51 51
-21.9 -22.8 10.7 49 49 49
-21.4 -22.6 10.6 63 63 63
-21.1 -22.5 10.5 79 82 81
-21.0 -22.6 10.6 85 87 87
-20.6 -22.6 10.6 92 92 92
-19.5 -22.6 10.6 107 107 107
-19.2 -22.5 10.6 106 106 106
-18.8 -22.8 10.7 106 106 106
-18.5 -22.6 10.6 106 108 108
-17.5 -22.6 10.6 107 109 109
-16.8 -22.7 10.6 115 115 115
-16.4 -22.5 10.5 115 115 115
-15.9 -22.7 10.6 118 120 119
-15.5 -22.5 10.6 117 119 118
-15.2 -22.5 10.5 117 119 118
-15.2 -22.8 10.7 119 121 120
-14.9 -22.7 10.6 119 121 120
-14.6 -22.8 10.7 119 121 120
-14.3 -22.6 10.6 122 122 122
-13.9 -22.4 10.5 124 124 124
-13.7 -22.4 10.5 124 124 124
-13.6 -22.7 10.6 124 124 124
-9.6 -22.4 10.5 137 137 137
-9.4 -22.7 10.6 137 139 138
-9.2 -22.7 10.6 140 139 138
-8.7 -22.8 10.7 140 142 141
-8.4 -22.5 10.5 140 142 141
-8.1 -22.5 10.6 138 140 139
-7.6 -22.6 10.6 141 141 141
-7.4 -22.5 10.5 141 141 141
-7.2 -22.7 10.6 143 145 144
-7.0 -22.7 10.6 147 147 147
-4.7 -22.5 10.5 161 164 163
-4.5 -22.6 10.6 167 167 167
-3.3 -22.8 10.7 169 169 169
-3.0 -22.7 10.6 171 173 173
-2.0 -22.8 10.7 178 178 178
-1.3 -22.5 10.5 177 177 177
-0.5 -22.8 10.7 177 177 177
-0.3 -22.6 10.6 179 179 179
-0.0 -22.6 10.6 179 179 179
0.2 -22.6 10.6 179 179 179
0.7 -22.7 10.6 179 179 179
1.0 -22.6 10.6 181 181 181
1.7 -22.8 10.7 180 180 180
1.9 -22.8 10.7 178 178 178
3.7 -22.8 10.7 181 181 181
3.9 -22.7 10.6 181 181 181
6.3 -22.5 10.5 208 208 208
6.6 -22.6 10.6 208 208 208
6.8 -22.5 10.6 208 208 208
7.1 -22.5 10.6 208 208 208
7.3 -22.6 10.6 208 208 208
7.6 -22.6 10.6 208 208 208
8.1 -22.6 10.6 209 209 209
8.3 -22.6 10.6 209 209 209
8.6 -22.5 10.6 209 209 209
8.8 -22.6 10.6 209 209 209
9.6 -22.6 10.6 209 209 209
9.8 -22.5 10.6 209 209 209
10.0 -22.6 10.6 209 209 209
10.3 -22.6 10.6 209 209 209
10.6 -22.7 10.6 206 206 206
41.4 -62.6 29.3 206 206 206
41.6 -61.8 28.9 206 206 206
41.6 -60.9 28.5 206 206 206
42.1 -60.6 28.4 206 206 206
42.7 -60.5 28.3 206 206 206
41.3 -57.6 26.9 206 206 206
40.7 -56.0 26.2 207 207 207
40.5 -54.9 25.7 207 207 207
47.1 -62.9 29.4 207 207 207
63.2 -80.9 37.8 208 208 208
65.0 -82.0 38.4 208 208 208
65.5 -81.5 38.1 205 205 205
28.3 -34.3 16.0 206 206 206
27.8 -33.3 15.6 206 206 206
27.7 -32.7 15.3 206 206 206
-31.8 -23.8 11.3 47 48 47
-31.6 -24.0 11.3 47 48 47
-31.4 -24.0 11.3 47 48 47
-31.1 -24.0 11.3 47 48 47
-30.8 -23.9 11.3 50 50 50
-30.6 -23.9 11.3 47 48 47
-30.3 -24.0 11.3 50 50 50
-30.1 -24.0 11.3 50 50 50
-29.8 -24.0 11.3 50 50 50
-29.5 -24.0 11.3 50 50 50
-29.3 -24.0 11.3 47 48 47
-29.0 -24.0 11.3 47 48 47
-28.7 -24.0 11.3 47 48 47
-28.5 -24.0 11.3 47 48 47
-28.2 -24.0 11.3 46 46 44
-28.0 -24.0 11.3 46 46 44
-27.7 -24.0 11.3 42 43 42
-27.4 -24.0 11.3 46 46 44
-27.2 -24.0 11.3 42 43 42
-26.9 -24.0 11.3 41 41 41
-26.6 -24.0 11.3 42 43 42
-26.4 -24.0 11.3 41 41 41
-26.1 -24.0 11.3 41 41 41
-25.9 -24.0 11.3 42 43 42
-25.6 -24.0 11.3 41 41 41
-25.3 -24.0 11.3 41 41 41
-25.0 -23.9 11.3 41 41 41
-24.8 -24.0 11.3 41 41 41
-24.5 -24.0 11.3 38 38 38
-24.3 -24.0 11.4 42 43 42
-23.8 -24.0 11.4 43 43 43
-23.5 -24.0 11.4 41 41 41
-23.1 -23.9 11.3 43 43 43
-23.0 -24.0 11.3 43 43 43
-22.6 -23.9 11.3 50 50 50
-20.8 -24.0 11.3 97 100 99
-20.6 -24.0 11.4 97 100 99
-20.3 -24.0 11.3 102 102 102
-20.1 -24.0 11.4 101 101 101
-19.9 -24.1 11.4 103 103 103
-19.6 -24.0 11.4 105 105 105
-19.3 -24.0 11.3 105 105 105
-18.7 -24.0 11.3 107 107 107
-17.3 -23.9 11.3 113 114 113
-17.0 -23.8 11.3 112 112 112
-16.7 -24.0 11.3 116 116 116
-16.4 -24.0 11.3 116 116 116
-16.1 -24.0 11.3 119 121 120
-15.7 -23.8 11.2 118 118 118
-15.1 -24.1 11.4 119 121 120
-14.7 -23.9 11.3 118 120 119
-10.8 -23.9 11.3 131 131 131
-10.0 -24.0 11.3 135 135 135
-9.8 -24.0 11.4 134 137 136
-9.5 -23.9 11.3 138 137 136
-7.9 -23.9 11.3 144 146 146
-0.8 -24.0 11.3 181 181 181
-0.6 -24.0 11.3 181 181 181
-0.3 -24.0 11.3 180 180 180
-0.0 -24.0 11.3 180 180 180
0.2 -24.0 11.3 180 180 180
0.8 -23.9 11.3 180 180 180
10.2 -23.9 11.3 208 208 208
10.5 -24.0 11.3 208 208 208
10.8 -24.0 11.3 208 208 208
11.0 -24.0 11.3 208 208 208
11.3 -24.0 11.3 208 208 208
11.6 -24.0 11.3 208 208 208
40.8 -61.0 28.8 209 209 209
41.2 -59.6 28.2 206 206 206
40.9 -58.3 27.6 206 206 206
41.6 -58.4 27.6 206 206 206
41.2 -56.9 26.9 206 206 206
40.7 -55.3 26.2 206 206 206
40.5 -54.3 25.7 206 206 206
40.9 -54.0 25.5 207 207 207
64.5 -81.6 38.6 207 207 207
66.8 -83.3 39.4 207 207 207
67.2 -82.8 39.2 205 205 205
27.3 -31.9 15.1 206 206 206
27.1 -31.3 14.8 206 206 206
24.3 -26.3 12.5 205 205 205
-32.2 -23.9 11.4 48 48 48
-32.0 -24.0 11.5 46 46 44
-31.8 -24.0 11.5 51 51 51
-31.5 -24.0 11.5 51 51 51
-31.3 -24.0 11.5 51 51 51
-31.0 -24.0 11.5 51 51 51
-30.7 -24.0 11.5 53 53 53
-30.4 -24.0 11.5 53 53 53
-30.2 -24.0 11.5 51 51 51
-29.9 -24.0 11.5 51 51 51
-29.6 -24.0 11.5 51 51 51
-29.4 -24.0 11.5 51 51 51
-29.1 -24.0 11.5 48 48 48
-28.8 -24.0 11.5 48 48 48
-28.6 -24.0 11.5 48 48 48
-28.3 -24.0 11.5 47 46 45
-28.0 -24.0 11.5 47 46 45
-27.8 -24.0 11.5 47 46 45
-27.5 -24.0 11.5 43 43 43
-27.2 -24.0 11.5 43 43 43
-27.0 -24.0 11.5 42 42 42
-26.7 -24.0 11.5 43 43 43
-26.4 -24.0 11.5 43 43 43
-26.2 -24.0 11.5 43 43 43
-24.8 -24.0 11.5 42 42 42
-24.6 -24.0 11.5 42 42 42
-24.1 -24.0 11.5 42 42 42
-23.7 -24.0 11.5 42 43 42
-23.5 -23.9 11.5 42 43 42
-23.2 -24.0 11.5 42 43 42
-22.9 -24.0 11.5 44 44 44
-22.2 -24.0 11.5 44 44 44
-20.8 -24.0 11.5 93 93 93
-20.6 -24.0 11.5 98 100 100
-20.5 -24.2 11.6 98 100 100
-20.2 -24.1 11.5 97 100 99
-19.8 -24.0 11.5 99 101 101
-19.5 -24.0 11.5 103 103 103
-19.2 -24.0 11.5 105 105 105
-19.0 -24.0 11.5 105 105 105
-18.7 -24.0 11.5 105 105 105
-18.5 -24.0 11.5 105 105 105
-18.2 -24.0 11.5 105 105 105
-17.9 -24.0 11.5 106 106 106
-17.5 -23.8 11.4 109 109 109
-17.1 -24.0 11.5 108 108 108
-16.8 -24.0 11.5 109 111 111
-16.6 -24.0 11.5 111 113 112
-16.2 -23.9 11.4 115 114 114
-15.9 -23.7 11.3 115 114 114
-15.8 -24.5 11.7 116 116 116
-15.0 -24.0 11.5 116 116 116
-10.7 -23.9 11.4 122 124 123
-10.1 -23.8 11.4 128 130 129
-9.9 -23.9 11.4 126 128 127
-9.6 -23.9 11.4 133 133 133
-9.3 -23.8 11.4 136 135 134
-9.1 -24.0 11.5 140 142 141
-8.8 -24.0 11.5 158 158 158
-8.6 -24.0 11.5 156 156 156
-8.0 -23.9 11.4 153 153 153
-7.8 -24.0 11.5 154 154 154
0.2 -24.0 11.5 182 182 182
0.5 -24.0 11.5 185 185 185
0.8 -24.0 11.5 182 182 182
1.3 -24.0 11.5 181 181 181
1.6 -23.9 11.5 181 181 181
6.6 -24.0 11.5 208 208 208
7.3 -24.3 11.6 208 208 208
7.4 -24.0 11.5 208 208 208
8.0 -24.0 11.5 208 208 208
8.2 -24.0 11.5 208 208 208
9.0 -24.0 11.5 208 208 208
9.8 -24.0 11.5 208 208 208
10.1 -24.0 11.5 208 208 208
10.4 -24.0 11.5 208 208 208
10.9 -24.0 11.5 208 208 208
11.2 -24.0 11.5 208 208 208
11.4 -24.0 11.5 208 208 208
11.7 -24.0 11.5 208 208 208
41.1 -58.9 28.1 205 205 205
40.8 -57.5 27.5 205 205 205
41.6 -57.6 27.6 205 205 205
41.4 -56.5 27.0 205 205 205
41.1 -55.2 26.4 209 209 209
40.8 -54.0 25.8 206 206 206
41.0 -53.5 25.6 206 206 206
41.6 -53.5 25.6 206 206 206
67.6 -83.4 39.9 207 207 207
27.3 -31.1 14.9 205 205 205
24.4 -26.2 12.5 206 206 206
24.5 -26.0 12.4 205 205 205
24.6 -25.8 12.3 207 207 207
-39.4 -28.9 14.0 49 49 49
-38.1 -29.0 14.0 52 52 52
-37.9 -29.0 14.0 53 53 53
-37.5 -29.0 14.0 53 53 53
-37.2 -29.0 14.0 56 57 55
-36.9 -29.0 14.0 56 57 55
-36.5 -29.0 14.0 53 53 53
-36.2 -28.9 14.0 52 52 52
-35.6 -29.0 14.0 52 52 52
-35.2 -29.0 14.0 52 52 52
-34.9 -29.0 14.0 49 49 49
-34.6 -29.0 14.0 52 52 52
-34.3 -29.0 14.0 49 49 49
-34.0 -29.0 14.0 48 47 46
-33.6 -29.0 14.0 44 44 44
-24.7 -24.1 11.7 43 43 43
-24.3 -24.0 11.6 43 43 43
-27.2 -29.1 14.1 45 45 45
-26.6 -28.9 14.0 45 45 45
-26.4 -29.0 14.0 49 48 47
-26.2 -29.0 14.0 42 42 42
-25.7 -28.9 14.0 68 71 70
-25.6 -29.2 14.1 91 93 92
-25.3 -29.2 14.1 91 93 92
-24.9 -29.1 14.1 90 92 91
-24.6 -29.1 14.1 91 93 92
-24.1 -28.9 14.0 97 97 97
-16.7 -23.9 11.6 111 111 111
-16.3 -23.8 11.5 111 111 111
-15.6 -24.2 11.7 113 115 114
-15.1 -23.9 11.5 117 117 117
-11.1 -28.9 14.0 137 137 137
7.8 -29.0 14.0 207 207 207
8.1 -29.0 14.0 207 207 207
8.5 -29.1 14.1 207 207 207
8.8 -29.2 14.1 207 207 207
9.1 -29.1 14.1 207 207 207
9.5 -29.1 14.1 207 207 207
10.1 -29.2 14.1 207 207 207
10.4 -29.0 14.0 207 207 207
10.7 -29.0 14.0 207 207 207
11.0 -28.9 14.0 207 207 207
11.4 -29.1 14.1 207 207 207
11.7 -29.0 14.0 210 210 210
12.0 -29.0 14.0 207 207 207
12.4 -29.0 14.0 207 207 207
12.7 -29.0 14.0 207 207 207
13.0 -29.0 14.0 207 207 207
13.3 -29.0 14.0 207 207 207
13.7 -29.2 14.1 207 207 207
14.1 -29.2 14.1 208 208 208
14.3 -29.0 14.0 208 208 208
14.6 -29.0 14.0 208 208 208
14.9 -28.9 14.0 208 208 208
15.3 -29.0 14.0 208 208 208
15.5 -28.9 14.0 208 208 208
40.5 -58.2 28.1 208 208 208
41.1 -58.2 28.1 208 208 208
40.9 -56.9 27.5 208 208 208
41.5 -56.9 27.5 208 208 208
41.9 -56.6 27.4 208 208 208
42.2 -56.2 27.2 208 208 208
41.5 -54.4 26.3 208 208 208
41.4 -53.5 25.9 205 205 205
42.0 -53.5 25.9 206 206 206
70.2 -86.9 42.0 206 206 206
70.7 -86.3 41.8 206 206 206
27.2 -30.7 14.8 205 205 205
27.0 -30.0 14.5 205 205 205
24.5 -26.0 12.6 206 206 206
24.6 -25.8 12.5 206 206 206
140.0 -78.4 37.9 122 122 122
142.1 -78.1 37.8 108 108 108
140.1 -76.5 37.0 105 105 105
-25.0 -23.9 11.7 44 44 44
-24.7 -23.9 11.7 44 44 44
-24.4 -23.8 11.6 44 44 44
-24.1 -23.7 11.6 44 44 44
-27.1 -29.0 14.2 45 45 45
-25.6 -29.2 14.3 50 49 48
-25.2 -29.1 14.2 77 77 77
-24.8 -29.1 14.2 91 91 91
-24.3 -28.8 14.1 92 95 94
-17.3 -23.7 11.6 102 104 104
-17.0 -23.7 11.6 102 104 104
-16.8 -23.7 11.6 108 108 108
-15.9 -24.1 11.8 110 110 110
-15.5 -23.9 11.7 114 116 115
-15.2 -23.8 11.6 112 112 112
11.8 -30.5 14.9 209 209 209
12.1 -30.4 14.9 209 209 209
12.9 -29.1 14.2 207 207 207
14.9 -30.5 14.9 207 207 207
15.1 -30.3 14.8 207 207 207
16.2 -30.3 14.8 207 207 207
40.4 -57.5 28.1 207 207 207
41.2 -57.6 28.2 207 207 207
40.8 -56.2 27.5 207 207 207
41.4 -56.1 27.5 207 207 207
41.8 -55.8 27.3 207 207 207
42.4 -55.8 27.3 207 207 207
42.3 -54.8 26.8 208 208 208
42.2 -53.9 26.3 205 205 205
43.0 -54.2 26.5 205 205 205
44.8 -55.6 27.2 205 205 205
71.5 -87.5 42.8 205 205 205
71.0 -85.7 41.9 206 206 206
27.1 -30.3 14.8 207 207 207
27.1 -29.8 14.6 207 207 207
27.4 -29.4 14.4 205 205 205
24.6 -25.2 12.3 205 205 205
140.8 -78.0 38.1 129 132 131
142.3 -78.3 38.3 125 125 125
142.3 -77.8 38.1 120 120 120
142.6 -77.5 37.9 113 115 114
141.5 -76.4 37.4 111 113 112
-44.9 -32.3 16.0 53 52 52
-27.5 -32.3 16.0 57 58 56
-26.8 -31.9 15.8 87 87 87
12.5 -30.3 15.0 209 209 209
13.5 -30.3 15.0 207 207 207
11.1 -24.1 11.9 207 207 207
11.3 -24.1 11.9 207 207 207
11.6 -24.1 11.9 207 207 207
16.2 -32.2 15.9 207 207 207
16.6 -32.2 15.9 207 207 207
17.0 -32.2 15.9 207 207 207
17.3 -32.2 15.9 207 207 207
17.8 -32.3 16.0 207 207 207
41.7 -57.7 28.5 207 207 207
41.1 -55.9 27.7 207 207 207
41.5 -55.6 27.5 207 207 207
43.2 -57.0 28.2 207 207 207
43.1 -56.1 27.7 207 207 207
42.8 -54.8 27.1 207 207 207
46.0 -58.0 28.7 207 207 207
46.7 -58.1 28.7 204 204 204
47.4 -58.1 28.7 205 205 205
74.0 -88.3 43.7 208 208 208
27.4 -29.5 14.6 204 204 204
27.5 -29.2 14.4 207 207 207
27.5 -28.9 14.3 204 204 204
142.6 -76.6 37.9 116 118 117
-45.6 -32.3 16.2 53 53 53
-46.1 -33.8 16.9 58 59 57
-45.2 -33.7 16.9 56 56 56
-44.8 -33.8 16.9 58 59 57
-29.2 -33.4 16.7 43 43 43
-28.0 -32.4 16.2 49 49 49
11.6 -32.4 16.2 206 206 206
12.8 -32.4 16.2 209 209 209
10.1 -25.0 12.5 209 209 209
12.5 -25.0 12.5 206 206 206
16.5 -32.4 16.2 206 206 206
13.1 -25.0 12.5 206 206 206
17.1 -32.0 16.0 206 206 206
17.6 -32.3 16.2 206 206 206
13.9 -25.0 12.5 206 206 206
14.5 -25.0 12.5 208 208 208
15.5 -25.1 12.6 206 206 206
15.7 -25.0 12.5 206 206 206
42.1 -57.5 28.8 206 206 206
41.2 -55.5 27.8 206 206 206
43.9 -57.3 28.7 206 206 206
43.7 -56.1 28.1 206 206 206
43.4 -54.9 27.5 207 207 207
46.4 -57.9 29.0 207 207 207
46.8 -57.6 28.8 207 207 207
47.6 -57.7 28.9 207 207 207
49.0 -58.6 29.3 207 207 207
27.7 -29.1 14.6 206 206 206
-48.4 -33.9 17.2 53 53 53
-28.0 -25.0 12.7 48 48 48
-22.8 -24.5 12.4 42 42 42
-21.6 -24.8 12.5 42 43 42
-21.2 -24.6 12.4 45 45 45
-17.3 -34.0 17.2 26 26 26
-10.6 -24.9 12.6 34 36 36
8.8 -25.0 12.7 211 211 211
9.1 -25.0 12.7 211 211 211
10.0 -25.0 12.7 208 208 208
10.2 -24.9 12.6 208 208 208
10.5 -24.8 12.6 208 208 208
10.8 -24.9 12.6 208 208 208
11.1 -24.9 12.6 208 208 208
11.5 -25.0 12.7 206 206 206
11.8 -25.0 12.7 206 206 206
12.0 -24.9 12.6 206 206 206
12.3 -25.0 12.7 206 206 206
12.6 -24.9 12.6 206 206 206
13.0 -25.1 12.7 206 206 206
13.2 -25.0 12.7 206 206 206
13.5 -25.0 12.7 206 206 206
13.8 -25.1 12.7 206 206 206
14.0 -24.9 12.6 206 206 206
14.5 -25.2 12.7 206 206 206
14.6 -24.8 12.6 208 208 208
14.7 -24.6 12.4 208 208 208
15.6 -25.1 12.7 206 206 206
15.8 -24.9 12.6 206 206 206
43.0 -59.0 29.9 206 206 206
42.5 -57.4 29.1 206 206 206
41.5 -55.2 27.9 206 206 206
44.2 -56.9 28.8 206 206 206
43.9 -55.7 28.2 206 206 206
47.2 -58.3 29.5 206 206 206
47.7 -58.0 29.4 206 206 206
48.2 -57.7 29.2 206 206 206
50.4 -59.6 30.2 207 207 207
28.2 -29.6 15.0 205 205 205
-35.1 -24.3 12.5 54 54 54
-33.6 -24.3 12.5 59 61 59
-28.3 -24.7 12.6 49 49 49
-27.9 -24.6 12.6 52 52 50
-27.6 -24.6 12.6 49 49 49
-22.4 -24.0 12.3 42 43 42
-21.7 -24.3 12.5 42 42 40
-21.5 -24.4 12.5 42 42 40
-21.2 -24.3 12.5 42 42 40
-20.7 -24.1 12.3 40 40 40
-16.9 -24.0 12.3 20 20 20
-16.5 -23.8 12.2 20 20 20
-12.7 -24.7 12.6 29 31 29
-12.5 -24.9 12.7 29 31 29
-12.1 -24.8 12.7 29 31 29
-10.9 -23.9 12.3 31 30 29
-10.6 -23.9 12.2 33 33 33
-10.5 -24.4 12.5 35 35 35
-9.8 -24.8 12.7 187 189 189
7.8 -24.3 12.5 208 208 208
8.0 -24.1 12.3 208 208 208
8.9 -24.3 12.5 208 208 208
9.2 -24.2 12.4 208 208 208
9.9 -24.6 12.6 208 208 208
10.1 -24.4 12.5 208 208 208
10.4 -24.3 12.5 208 208 208
10.7 -24.5 12.5 208 208 208
11.8 -24.3 12.5 205 205 205
12.4 -24.4 12.5 205 205 205
13.8 -24.7 12.6 208 208 208
13.9 -24.5 12.5 208 208 208
14.5 -24.5 12.5 208 208 208
14.6 -24.0 12.3 205 205 205
15.5 -24.6 12.6 208 208 208
15.7 -24.5 12.5 208 208 208
43.6 -59.1 30.3 205 205 205
43.6 -58.2 29.8 205 205 205
48.3 -58.9 30.2 206 206 206
48.5 -58.2 29.8 206 206 206
48.7 -57.7 29.6 206 206 206
51.1 -59.6 30.6 206 206 206
55.1 -63.4 32.5 206 206 206
28.4 -29.5 15.1 205 205 205
31.3 -29.6 15.2 170 171 170
31.6 -29.5 15.1 183 183 183
-35.1 -24.0 12.5 59 61 59
-34.9 -24.1 12.5 59 61 59
-34.6 -24.1 12.5 59 61 59
-34.3 -24.1 12.5 60 62 60
-34.0 -24.1 12.5 60 62 60
-33.7 -24.1 12.5 63 63 63
-33.4 -24.1 12.5 60 62 60
-33.1 -24.1 12.5 60 62 60
-32.8 -24.1 12.5 60 62 60
-32.5 -24.1 12.5 60 62 60
-32.3 -24.1 12.5 60 62 60
-32.0 -24.1 12.5 60 62 60
-31.6 -24.0 12.5 58 59 59
-31.4 -24.1 12.5 58 59 59
-31.1 -24.1 12.5 57 57 57
-30.8 -24.1 12.5 57 57 57
-30.2 -24.1 12.5 54 54 54
-29.9 -24.1 12.5 54 54 54
-29.6 -24.0 12.5 54 54 54
-29.3 -24.1 12.5 54 54 54
-29.0 -24.0 12.5 53 52 51
-28.7 -24.0 12.5 53 52 51
-28.5 -24.1 12.5 53 52 51
-28.2 -24.1 12.5 50 50 50
-28.1 -24.2 12.6 50 50 50
-27.8 -24.2 12.6 50 50 50
-27.4 -24.1 12.5 55 55 55
-27.0 -24.1 12.5 50 50 50
-26.7 -24.0 12.5 51 51 51
-26.4 -24.0 12.5 51 51 51
-26.1 -24.0 12.5 48 48 48
-23.3 -24.1 12.5 46 46 46
-22.9 -24.0 12.5 43 43 43
-22.6 -24.0 12.4 44 44 44
-22.3 -24.0 12.4 44 44 44
-22.0 -24.0 12.5 44 44 44
-21.8 -24.1 12.5 43 42 41
-21.5 -24.1 12.5 41 41 41
-21.2 -24.0 12.5 41 41 41
-20.8 -23.9 12.4 39 41 41
-17.6 -24.2 12.6 17 17 17
-17.1 -23.9 12.4 19 19 19
-16.7 -23.8 12.3 21 21 21
-12.6 -24.8 12.8 29 29 29
-11.1 -24.1 12.5 32 31 30
-10.8 -24.1 12.5 33 33 33
-10.5 -24.1 12.5 34 34 34
-10.2 -24.1 12.5 44 44 44
-9.8 -24.5 12.7 186 188 187
-9.0 -24.0 12.5 186 188 187
7.6 -24.5 12.7 207 207 207
7.8 -24.0 12.5 207 207 207
8.1 -24.0 12.4 207 207 207
8.4 -24.1 12.5 207 207 207
8.7 -24.1 12.5 207 207 207
9.0 -24.1 12.5 207 207 207
9.2 -24.0 12.5 207 207 207
9.5 -24.0 12.5 207 207 207
9.9 -24.2 12.5 207 207 207
10.1 -24.1 12.5 207 207 207
10.4 -24.1 12.5 207 207 207
10.7 -24.1 12.5 207 207 207
11.0 -24.1 12.5 207 207 207
11.3 -24.0 12.5 207 207 207
11.6 -24.0 12.5 207 207 207
11.8 -24.0 12.5 207 207 207
12.2 -24.1 12.5 205 205 205
12.4 -24.1 12.5 205 205 205
12.7 -24.1 12.5 205 205 205
13.0 -24.1 12.5 205 205 205
13.3 -24.1 12.5 207 207 207
13.7 -24.2 12.5 207 207 207
13.9 -24.1 12.5 207 207 207
14.3 -24.2 12.6 207 207 207
14.5 -24.1 12.5 207 207 207
14.7 -24.0 12.4 207 207 207
15.1 -24.1 12.5 207 207 207
15.4 -24.2 12.6 207 207 207
15.7 -24.2 12.5 207 207 207
15.9 -24.1 12.5 207 207 207
16.2 -24.1 12.5 207 207 207
16.5 -24.0 12.5 207 207 207
43.2 -57.0 29.6 205 205 205
48.5 -58.4 30.3 205 205 205
49.0 -58.2 30.2 205 205 205
49.0 -57.3 29.7 205 205 205
52.8 -61.0 31.6 205 205 205
55.4 -63.1 32.7 206 206 206
25.4 -23.7 12.3 168 168 168
32.1 -29.6 15.4 183 183 183
32.6 -29.7 15.4 189 189 189
-36.2 -24.5 12.9 63 63 63
-36.0 -24.6 12.9 63 63 63
-35.7 -24.5 12.9 60 62 60
-34.6 -24.4 12.8 64 64 64
-32.9 -24.5 12.9 59 59 59
-29.1 -24.6 12.9 51 51 51
-28.8 -24.5 12.9 51 51 51
-28.4 -24.5 12.9 51 51 51
-27.5 -24.5 12.9 52 52 52
-22.2 -24.5 12.9 44 43 42
-12.7 -24.7 13.0 30 31 30
-12.3 -24.5 12.9 30 31 30
-11.4 -24.4 12.8 36 37 36
-11.0 -24.2 12.7 34 34 34
-10.6 -24.1 12.7 34 34 34
-10.4 -24.3 12.7 50 51 49
-10.3 -24.7 13.0 176 179 178
-10.0 -24.7 13.0 186 188 187
14.7 -24.7 13.0 207 207 207
14.7 -24.2 12.7 207 207 207
16.0 -24.3 12.8 207 207 207
43.3 -56.4 29.6 204 204 204
49.4 -57.9 30.4 207 207 207
49.2 -56.8 29.8 207 207 207
53.2 -60.7 31.8 207 207 207
55.6 -62.6 32.8 205 205 205
25.5 -23.5 12.3 168 168 168
25.6 -23.3 12.3 182 182 182
-36.6 -24.4 13.0 64 64 64
-29.6 -24.7 13.1 52 52 52
-29.1 -24.5 13.0 52 52 52
-28.8 -24.5 13.0 52 52 52
-28.8 -24.8 13.2 56 55 54
-27.9 -24.5 13.0 56 55 54
-23.9 -24.5 13.0 46 46 46
-12.8 -24.6 13.1 31 32 30
-12.4 -24.5 13.0 38 40 40
-10.7 -23.9 12.7 35 35 35
-10.4 -24.0 12.7 43 43 43
-10.3 -24.5 13.0 186 188 187
-10.1 -24.7 13.1 184 187 186
49.5 -56.5 30.0 207 207 207
53.7 -60.5 32.2 207 207 207
56.0 -62.2 33.1 207 207 207
57.0 -62.4 33.2 207 207 207
62.1 -67.2 35.7 205 205 205
25.7 -23.1 12.3 183 183 183
-37.4 -24.7 13.3 65 65 65
-37.1 -24.7 13.3 65 65 65
-36.8 -24.7 13.3 65 65 65
-30.0 -24.7 13.3 56 55 54
-29.7 -24.7 13.3 57 56 55
-29.4 -24.7 13.3 53 52 52
-29.1 -24.7 13.3 57 56 55
-28.8 -24.7 13.3 57 56 55
-25.6 -24.9 13.4 51 51 51
-25.1 -24.7 13.3 48 48 48
-24.8 -24.7 13.3 48 48 48
-24.5 -24.7 13.3 47 47 47
-13.0 -24.6 13.2 91 91 91
-12.7 -24.6 13.2 54 54 54
-10.8 -23.8 12.8 26 26 26
-10.5 -23.9 12.9 45 45 45
-10.5 -24.7 13.3 183 183 183
-10.2 -24.7 13.3 183 186 185
53.3 -59.3 31.9 206 206 206
55.8 -61.2 33.0 206 206 206
57.3 -62.0 33.4 207 207 207
61.9 -66.1 35.6 204 204 204
29.7 -27.7 14.9 205 205 205
30.2 -27.8 15.0 203 203 203
-13.0 -24.3 13.2 9 14 10
-12.6 -24.3 13.2 40 42 42
-11.5 -23.9 13.0 45 45 45
-10.6 -24.6 13.4 184 187 186
-10.3 -24.6 13.4 183 186 185
51.7 -57.6 31.4 206 206 206
53.0 -58.2 31.7 206 206 206
55.6 -60.3 32.8 206 206 206
56.4 -60.3 32.8 206 206 206
60.5 -63.8 34.8 206 206 206
29.5 -27.1 14.8 205 205 205
30.2 -27.4 14.9 205 205 205
30.4 -27.3 14.9 208 208 208
92.5 -46.5 25.4 160 163 162
-13.0 -24.0 13.3 27 27 27
-10.7 -24.3 13.4 183 186 185
-10.3 -24.3 13.4 182 185 184
-10.0 -24.3 13.4 182 185 184
53.6 -58.1 32.1 205 205 205
55.4 -59.3 32.7 205 205 205
55.9 -59.0 32.6 206 206 206
29.5 -26.8 14.8 204 204 204
30.2 -27.1 15.0 204 204 204
30.5 -27.0 14.9 204 204 204
30.7 -27.0 14.9 165 165 165
98.3 -49.2 27.1 163 166 165
92.0 -45.7 25.2 160 163 162
-13.0 -23.8 13.3 33 34 32
-10.7 -24.0 13.4 182 185 184
-10.3 -24.0 13.4 181 184 183
-10.0 -24.0 13.4 181 184 183
54.2 -58.0 32.4 208 208 208
55.7 -58.8 32.9 205 205 205
56.2 -58.5 32.7 205 205 205
58.8 -60.4 33.8 205 205 205
29.6 -26.2 14.7 204 204 204
29.9 -26.2 14.7 209 209 209
30.2 -26.2 14.6 166 166 166
30.4 -26.0 14.6 181 181 181
30.7 -26.0 14.5 184 184 184
31.4 -26.3 14.7 184 184 184
100.1 -49.4 27.6 162 165 164
93.0 -45.6 25.5 159 162 161
-23.0 -17.8 10.1 64 64 64
-13.2 -23.7 13.4 42 43 42
-10.8 -24.0 13.6 183 186 185
-10.4 -23.9 13.5 180 183 182
53.9 -57.0 32.3 207 207 207
56.2 -58.6 33.2 207 207 207
56.5 -58.1 32.9 207 207 207
29.7 -25.9 14.7 203 203 203
30.0 -26.0 14.7 199 199 199
30.3 -25.9 14.7 168 170 169
30.5 -25.8 14.6 180 180 180
30.8 -25.8 14.6 183 183 183
31.4 -25.9 14.7 185 185 185
91.0 -44.1 25.0 159 162 161
-24.5 -17.6 10.1 68 70 68
-24.2 -17.6 10.1 66 66 66
-24.0 -17.6 10.1 66 66 66
-23.8 -17.6 10.1 64 64 64
-10.5 -23.9 13.7 180 183 182
-10.5 -24.4 14.0 183 183 183
-10.4 -25.1 14.4 182 182 182
7.0 -17.6 10.1 207 207 207
7.5 -17.6 10.1 207 207 207
8.7 -17.6 10.1 207 207 207
8.9 -17.6 10.1 207 207 207
9.6 -17.6 10.1 207 207 207
9.8 -17.6 10.1 207 207 207
12.5 -17.6 10.1 207 207 207
12.6 -17.6 10.1 207 207 207
13.1 -17.6 10.1 207 207 207
14.1 -17.6 10.1 206 206 206
53.8 -56.1 32.2 207 207 207
56.9 -58.5 33.6 207 207 207
57.3 -58.1 33.4 207 207 207
59.2 -59.3 34.0 207 207 207
30.0 -25.9 14.9 205 205 205
30.3 -25.9 14.8 206 206 206
30.6 -25.8 14.8 174 174 174
30.9 -25.7 14.8 179 179 179
31.9 -26.0 15.0 185 185 185
31.9 -25.7 14.8 185 185 185
90.3 -43.1 24.8 159 162 161
86.7 -41.1 23.6 156 156 156
79.8 -37.7 21.6 146 148 148
-15.4 -18.0 10.5 33 33 33
-10.8 -24.9 14.5 178 181 180
-10.5 -25.0 14.5 178 181 180
-10.2 -25.0 14.5 206 206 206
7.3 -17.5 10.2 209 212 211
7.5 -17.4 10.1 207 207 207
8.7 -17.5 10.2 208 211 210
8.9 -17.5 10.2 208 211 210
9.2 -17.5 10.2 208 211 210
9.4 -17.5 10.2 208 211 210
9.7 -17.5 10.2 207 207 207
9.9 -17.5 10.2 207 207 207
10.1 -17.5 10.2 208 211 210
10.3 -17.4 10.1 208 211 210
10.5 -17.4 10.1 206 206 206
10.8 -17.4 10.1 206 206 206
11.1 -17.5 10.2 206 206 206
11.3 -17.4 10.1 203 203 203
11.8 -17.5 10.2 208 211 210
12.5 -17.5 10.2 206 206 206
12.7 -17.4 10.1 206 206 206
12.9 -17.4 10.1 206 206 206
13.1 -17.4 10.1 206 206 206
53.8 -55.4 32.2 204 204 204
56.4 -57.2 33.3 204 204 204
57.6 -57.6 33.5 204 204 204
59.3 -58.6 34.1 204 204 204
41.2 -37.7 21.9 207 207 207
42.5 -38.4 22.3 208 208 208
30.9 -25.7 15.0 186 186 186
80.5 -37.5 21.8 151 151 151
-15.3 -17.7 10.5 23 26 24
-14.9 -17.5 10.3 30 30 30
-11.0 -25.0 14.8 181 184 183
-10.7 -25.1 14.8 183 183 183
4.2 -17.0 10.0 180 180 180
10.2 -17.0 10.0 206 206 206
10.4 -17.0 10.0 206 206 206
12.8 -17.1 10.1 206 206 206
53.7 -54.5 32.2 207 210 209
58.0 -57.3 33.8 207 210 209
59.9 -58.3 34.4 207 207 207
41.8 -37.7 22.3 207 207 207
43.0 -38.3 22.6 207 207 207
-30.5 -25.8 15.4 86 87 85
-30.0 -25.7 15.4 90 90 90
-15.3 -17.5 10.4 23 26 24
-14.7 -17.1 10.2 23 23 23
-14.4 -16.9 10.1 23 26 24
53.7 -53.8 32.2 207 210 209
76.3 -75.3 45.0 207 210 209
75.2 -73.2 43.8 207 210 209
42.9 -37.7 22.5 207 207 207
30.0 -23.0 13.8 185 185 185
-31.7 -26.1 15.8 124 124 124
-31.2 -26.0 15.8 159 159 159
-14.7 -16.8 10.2 22 25 23
-11.3 -25.9 15.7 177 177 177
84.5 -83.4 50.6 206 209 208
79.7 -77.6 47.1 207 210 209
76.2 -73.2 44.4 207 210 209
41.4 -36.4 22.0 208 211 210
42.4 -36.7 22.3 208 211 210
42.7 -36.6 22.2 207 207 207
42.8 -36.2 21.9 208 211 210
30.1 -22.7 13.8 188 188 188
30.3 -22.6 13.7 188 188 188
-32.0 -26.0 16.0 140 142 141
-31.5 -25.9 15.9 154 154 154
-31.0 -25.7 15.8 172 172 172
-14.7 -16.6 10.2 33 33 33
-11.4 -25.7 15.8 176 176 176
-11.2 -26.1 16.0 157 160 159
87.1 -84.7 52.1 206 209 208
84.1 -80.7 49.6 206 209 208
81.6 -77.3 47.5 206 209 208
42.6 -36.4 22.4 208 211 210
42.9 -36.2 22.3 208 211 210
43.3 -36.1 22.2 208 211 210
30.3 -22.6 13.9 188 188 188
30.4 -22.4 13.8 185 185 185
82.7 -39.1 24.1 180 180 180
-32.5 -26.0 16.2 73 73 73
-31.9 -25.8 16.1 70 72 69
-31.2 -25.6 16.0 84 85 83
-14.7 -16.3 10.2 109 109 109
-14.3 -16.2 10.1 138 138 138
-11.5 -25.5 15.9 179 179 179
-11.3 -26.0 16.2 159 162 161
-11.0 -26.0 16.2 156 159 158
92.6 -87.6 54.7 206 209 208
90.7 -84.7 52.8 209 212 211
43.0 -35.7 22.3 207 210 209
43.5 -35.8 22.3 208 211 210
42.2 -33.1 20.7 202 202 202
41.6 -32.2 20.1 212 214 214
47.3 -36.3 22.6 183 183 183
47.0 -35.7 22.3 189 189 189
30.3 -22.2 13.9 191 191 191
30.6 -22.2 13.9 189 189 189
-32.9 -26.0 16.4 67 67 67
-14.9 -17.1 10.8 117 117 117
-11.4 -24.9 15.8 175 177 177
-11.5 -26.0 16.4 166 166 166
95.3 -87.6 55.5 209 212 211
42.2 -32.6 20.7 208 211 210
41.3 -31.5 20.0 205 205 205
41.3 -31.2 19.8 184 184 184
45.0 -33.3 21.1 189 189 189
30.4 -22.0 13.9 191 191 191
76.9 -36.1 22.8 182 182 182
75.7 -35.3 22.3 182 182 182
81.3 -37.3 23.6 182 182 182
81.3 -37.1 23.5 182 182 182
79.4 -36.0 22.8 182 182 182
61.7 -27.1 17.1 177 177 177
97.8 -88.7 57.0 208 211 210
98.0 -87.6 56.3 208 211 210
40.8 -30.7 19.7 208 211 210
40.4 -30.1 19.4 184 184 184
46.5 -34.2 22.0 186 186 186
45.4 -33.1 21.3 189 189 189
41.7 -29.8 19.1 191 191 191
42.6 -30.0 19.3 189 189 189
43.0 -30.0 19.3 189 189 189
43.1 -29.8 19.1 189 189 189
76.7 -35.5 22.8 184 187 186
75.9 -34.8 22.4 184 187 186
77.1 -35.1 22.6 183 183 183
79.0 -35.8 23.0 183 183 183
79.6 -35.8 23.0 183 183 183
79.3 -35.4 22.8 183 183 183
61.9 -26.8 17.2 178 178 178
61.1 -26.3 16.9 176 176 176
61.4 -26.2 16.8 168 170 169
-12.5 -27.4 17.9 174 174 174
-12.3 -27.9 18.2 170 171 170
119.1 -107.8 70.3 208 211 210
112.8 -100.7 65.7 208 211 210
103.2 -90.9 59.3 205 208 207
40.7 -30.2 19.7 205 205 205
39.5 -28.7 18.7 189 189 189
42.7 -30.3 19.8 191 191 191
41.3 -29.0 18.9 192 192 192
42.3 -29.1 19.0 190 190 190
42.2 -28.7 18.7 190 190 190
42.6 -28.7 18.7 190 190 190
43.1 -28.8 18.8 192 192 192
76.7 -34.9 22.8 186 188 187
75.8 -34.3 22.4 186 188 187
76.6 -34.4 22.4 186 188 187
78.4 -35.0 22.8 184 184 184
79.6 -35.3 23.0 184 184 184
79.4 -34.9 22.8 184 184 184
79.2 -34.6 22.6 184 184 184
62.6 -26.6 17.4 179 179 179
61.5 -26.0 17.0 172 174 174
61.6 -25.9 16.9 169 171 170
-12.7 -27.4 18.2 175 175 175
-12.8 -28.6 18.9 172 172 172
-12.2 -28.2 18.7 170 171 170
276.0 -216.3 143.3 207 210 209
292.7 -226.6 150.1 207 210 209
330.2 -252.7 167.4 207 210 209
302.1 -228.4 151.3 210 213 212
41.7 -28.8 19.1 192 192 192
77.4 -34.7 23.0 187 189 189
76.1 -33.9 22.4 187 189 189
79.3 -34.8 23.1 185 185 185
80.2 -35.0 23.2 185 185 185
79.7 -34.5 22.9 185 185 185
79.1 -34.0 22.5 185 185 185
63.5 -26.6 17.6 180 180 180
62.2 -25.9 17.2 173 175 175
62.3 -25.8 17.1 169 169 169
-54.5 -28.7 19.3 59 59 59
-48.4 -28.6 19.3 27 27 27
-46.2 -28.6 19.3 47 48 47
-45.4 -28.4 19.1 59 59 59
-44.9 -28.4 19.1 62 62 62
-40.2 -28.8 19.4 49 49 49
-39.4 -28.6 19.2 59 59 57
-38.8 -28.5 19.2 70 70 70
-38.6 -28.6 19.3 60 59 58
-37.8 -28.4 19.1 61 61 61
-13.8 -28.3 19.0 177 180 179
-13.5 -28.7 19.3 176 179 178
-13.0 -28.6 19.3 175 175 175
-12.5 -28.5 19.2 169 169 169
230.4 -199.4 134.2 207 210 209
249.4 -213.0 143.3 207 210 209
260.6 -219.7 147.8 208 211 210
324.3 -253.3 170.4 209 212 211
284.7 -219.7 147.8 209 212 211
376.3 -286.9 193.0 209 212 211
388.7 -292.9 197.0 210 213 212
322.7 -240.3 161.7 210 213 212
76.4 -33.5 22.5 188 190 190
80.6 -34.6 23.3 186 186 186
79.8 -34.0 22.9 186 186 186
79.1 -33.5 22.5 186 186 186
63.1 -25.9 17.4 179 179 179
-54.9 -28.5 19.5 56 55 54
-54.5 -28.6 19.5 67 67 67
-54.1 -28.6 19.5 75 75 75
-53.6 -28.6 19.5 64 65 63
-53.1 -28.5 19.5 32 31 30
-52.6 -28.5 19.5 125 125 125
-52.2 -28.6 19.5 122 124 123
-51.7 -28.5 19.5 10 15 11
-51.3 -28.5 19.5 19 23 20
-50.8 -28.5 19.5 21 24 22
-50.4 -28.5 19.5 26 26 26
-49.9 -28.5 19.5 29 31 29
-49.6 -28.6 19.6 19 23 20
-49.0 -28.5 19.5 16 16 16
-48.6 -28.5 19.5 28 28 28
-48.1 -28.5 19.5 21 24 22
-47.7 -28.5 19.5 28 28 28
-47.2 -28.5 19.5 34 34 34
-46.7 -28.5 19.5 61 61 61
-46.3 -28.5 19.5 70 72 69
-45.8 -28.5 19.5 70 72 69
-45.6 -28.7 19.6 64 64 64
-45.2 -28.7 19.6 48 48 48
-44.7 -28.7 19.6 59 59 59
-44.3 -28.7 19.6 58 58 56
-43.8 -28.7 19.6 131 133 132
-43.4 -28.7 19.6 92 92 92
-42.9 -28.7 19.6 137 137 137
-42.5 -28.7 19.6 178 178 178
-41.8 -28.5 19.5 67 68 66
-41.3 -28.5 19.5 26 26 26
-41.1 -28.7 19.6 8 9 8
-40.4 -28.5 19.5 26 26 26
-39.9 -28.5 19.5 14 14 14
-39.5 -28.5 19.5 30 31 30
-39.0 -28.5 19.5 47 48 47
-38.6 -28.5 19.5 57 57 57
-38.1 -28.5 19.5 66 66 66
-37.7 -28.5 19.5 53 52 52
-37.5 -28.7 19.6 70 70 70
-37.0 -28.7 19.6 60 59 58
-36.5 -28.7 19.6 77 77 77
-36.1 -28.7 19.6 77 77 77
-35.6 -28.7 19.6 70 70 70
-35.2 -28.7 19.6 67 69 67
-34.7 -28.7 19.6 67 69 67
-34.3 -28.7 19.6 72 73 71
-33.8 -28.7 19.6 71 71 71
-33.4 -28.7 19.6 142 144 143
-32.8 -28.6 19.6 185 185 185
-32.4 -28.7 19.6 170 172 172
-32.1 -28.8 19.7 124 126 125
-31.5 -28.6 19.6 28 28 28
-31.0 -28.6 19.6 32 33 31
-30.6 -28.7 19.6 30 29 29
-30.0 -28.5 19.5 28 28 28
-29.7 -28.7 19.6 22 25 23
-29.2 -28.7 19.6 29 29 29
-28.8 -28.7 19.6 30 30 30
-28.2 -28.5 19.5 30 30 30
-27.9 -28.7 19.6 29 29 29
-27.5 -28.8 19.7 26 26 26
-27.0 -28.7 19.6 26 26 26
-26.4 -28.6 19.6 36 35 34
-26.0 -28.6 19.6 89 91 89
-25.6 -28.7 19.6 136 136 136
-25.1 -28.7 19.6 157 157 157
-24.7 -28.7 19.6 58 59 59
-24.1 -28.5 19.5 37 38 37
-23.8 -28.7 19.6 78 80 78
-23.3 -28.7 19.6 104 104 104
-22.7 -28.5 19.5 134 137 136
-22.2 -28.5 19.5 28 28 28
-21.9 -28.6 19.5 115 115 115
-21.4 -28.6 19.6 56 56 56
-20.9 -28.5 19.5 79 79 79
-14.5 -28.4 19.4 180 183 182
-14.0 -28.2 19.3 179 182 181
-13.6 -28.3 19.4 177 177 177
-13.1 -28.4 19.4 175 175 175
-12.8 -28.6 19.5 172 172 172
286.1 -247.1 168.9 207 210 209
282.4 -240.7 164.5 207 210 209
269.8 -226.9 155.1 207 210 209
287.6 -238.6 163.1 207 210 209
512.2 -384.4 262.7 209 212 211
466.5 -345.9 236.5 209 212 211
76.3 -32.7 22.4 188 188 188
76.5 -32.6 22.3 188 188 188
80.2 -33.9 23.2 188 188 188
79.6 -33.4 22.8 188 188 188
79.2 -33.0 22.6 188 188 188
78.6 -32.6 22.3 188 188 188
64.3 -25.8 17.6 168 168 168
-55.7 -28.5 19.8 37 38 37
-55.1 -28.4 19.7 59 59 59
-54.7 -28.5 19.8 80 82 79
-54.2 -28.4 19.7 72 72 72
-53.7 -28.4 19.7 148 148 148
-53.2 -28.4 19.7 39 41 41
-52.8 -28.4 19.7 29 31 29
-52.3 -28.4 19.7 26 26 26
-51.9 -28.4 19.7 24 24 24
-51.4 -28.4 19.7 29 31 29
-51.0 -28.4 19.7 35 35 35
-50.5 -28.4 19.7 57 56 55
-50.1 -28.5 19.8 144 144 144
-49.6 -28.4 19.7 135 135 135
-49.2 -28.4 19.7 53 53 53
-48.7 -28.4 19.7 156 159 158
-48.2 -28.4 19.7 184 187 186
-47.8 -28.4 19.7 177 180 179
-47.3 -28.4 19.7 115 114 114
-46.9 -28.4 19.7 78 80 78
-46.4 -28.4 19.7 77 77 77
-46.0 -28.4 19.7 68 68 68
-45.5 -28.4 19.7 126 126 126
-45.0 -28.4 19.7 172 174 174
-44.6 -28.4 19.7 161 161 161
-44.1 -28.4 19.7 174 176 176
-43.7 -28.4 19.7 189 189 189
-43.2 -28.4 19.7 201 203 203
-42.7 -28.4 19.7 214 216 216
-42.3 -28.4 19.7 189 191 191
-41.8 -28.4 19.7 207 207 207
-41.4 -28.4 19.7 213 215 215
-40.9 -28.4 19.7 213 215 215
-40.4 -28.4 19.7 180 180 180
-40.0 -28.4 19.7 172 172 172
-39.5 -28.4 19.7 160 160 160
-39.1 -28.4 19.7 140 140 140
-38.6 -28.4 19.7 164 164 164
-38.2 -28.4 19.7 213 215 215
-37.7 -28.4 19.7 210 210 210
-37.2 -28.4 19.7 185 185 185
-36.8 -28.4 19.7 179 178 176
-36.3 -28.4 19.7 209 209 209
-35.9 -28.4 19.7 222 222 222
-35.4 -28.4 19.7 166 166 166
-34.9 -28.4 19.7 131 134 133
-34.5 -28.4 19.7 158 158 158
-34.0 -28.4 19.7 180 180 180
-33.6 -28.4 19.7 194 194 194
-33.0 -28.4 19.7 176 179 178
-32.6 -28.4 19.7 212 214 214
-32.3 -28.5 19.8 210 210 210
-31.7 -28.4 19.7 210 210 210
-31.2 -28.4 19.7 134 136 135
-30.8 -28.4 19.7 31 32 30
-30.3 -28.4 19.7 49 49 49
-29.9 -28.4 19.7 68 70 68
-29.4 -28.4 19.7 86 86 86
-29.0 -28.4 19.7 90 92 91
-28.5 -28.4 19.7 109 109 107
-28.1 -28.4 19.7 101 100 98
-27.7 -28.5 19.8 19 23 20
-27.2 -28.5 19.8 55 55 55
-26.7 -28.5 19.8 85 85 85
-26.2 -28.4 19.7 19 19 19
-25.8 -28.4 19.7 8 9 8
-25.3 -28.4 19.7 44 46 46
-24.8 -28.4 19.7 103 103 103
-24.4 -28.4 19.7 43 43 43
-23.9 -28.4 19.7 79 81 79
-23.4 -28.4 19.7 19 23 20
-23.0 -28.4 19.7 105 105 103
-22.5 -28.4 19.7 61 61 61
-22.1 -28.4 19.7 73 73 73
-21.6 -28.4 19.7 119 121 120
-21.1 -28.4 19.7 27 27 27
-14.7 -28.3 19.6 195 198 197
-14.2 -28.2 19.6 160 163 162
-13.6 -28.0 19.5 177 177 177
-13.3 -28.2 19.6 168 170 169
-12.9 -28.4 19.7 138 140 139
-12.4 -28.4 19.7 30 29 29
288.8 -238.9 165.9 207 210 209
625.0 -461.6 320.6 206 209 208
583.1 -425.6 295.6 209 212 211
79.4 -32.8 22.8 190 190 190
78.9 -32.4 22.5 190 190 190
77.6 -31.6 22.0 190 190 190
76.6 -31.1 21.6 186 186 186
64.4 -25.4 17.7 163 166 165
-56.3 -28.3 20.0 25 25 25
-55.9 -28.4 20.0 32 31 30
-55.4 -28.4 20.0 90 92 91
-54.9 -28.3 20.0 153 153 153
-54.4 -28.3 20.0 9 14 10
-53.9 -28.3 20.0 25 25 25
-53.5 -28.3 20.0 25 25 25
-53.0 -28.3 20.0 24 24 24
-52.4 -28.2 19.9 24 24 24
-52.1 -28.3 20.0 27 27 27
-51.6 -28.3 20.0 35 35 35
-50.8 -28.4 20.0 170 172 172
-50.3 -28.3 20.0 183 183 183
-49.8 -28.3 20.0 177 180 179
-49.3 -28.3 20.0 151 151 151
-48.9 -28.3 20.0 183 183 183
-48.4 -28.3 20.0 164 167 166
-47.9 -28.3 20.0 151 151 151
-47.4 -28.3 20.0 142 144 143
-46.9 -28.2 19.9 157 157 157
-46.5 -28.3 20.0 73 73 73
-46.1 -28.3 20.0 80 82 79
-45.7 -28.4 20.0 196 199 198
-45.2 -28.4 20.0 196 196 196
-44.7 -28.3 20.0 175 177 177
-44.2 -28.3 20.0 100 100 100
-43.7 -28.3 20.0 85 85 85
-43.3 -28.3 20.0 134 136 135
-42.8 -28.3 20.0 132 135 134
-42.4 -28.3 20.0 87 89 88
-41.9 -28.3 20.0 62 62 62
-41.4 -28.3 20.0 75 75 75
-41.0 -28.3 20.0 78 80 78
-40.5 -28.3 20.0 70 72 69
-40.0 -28.3 20.0 46 45 43
-39.6 -28.3 20.0 36 37 36
-39.1 -28.3 20.0 118 120 119
-38.6 -28.3 20.0 174 174 174
-38.2 -28.3 20.0 136 136 136
-37.7 -28.3 20.0 166 166 166
-37.2 -28.3 20.0 111 113 112
-36.8 -28.3 20.0 77 77 77
-36.3 -28.3 20.0 138 138 138
-35.8 -28.3 20.0 136 136 136
-35.4 -28.3 20.0 148 150 150
-34.9 -28.3 20.0 194 194 194
-34.5 -28.3 20.0 229 229 229
-34.0 -28.3 20.0 217 217 217
-33.4 -28.2 19.9 240 240 240
-35.0 -30.0 21.2 225 225 225
-32.7 -28.4 20.0 228 228 228
-31.9 -28.1 19.9 213 215 215
-31.6 -28.3 20.0 216 216 216
-31.2 -28.3 20.0 131 131 131
-30.7 -28.3 20.0 66 66 66
-30.3 -28.3 20.0 31 32 30
-29.8 -28.3 20.0 31 32 30
-29.3 -28.3 20.0 21 24 22
-28.8 -28.2 19.9 28 28 28
-28.4 -28.3 20.0 116 118 117
-29.3 -29.7 21.0 36 37 36
-27.7 -28.5 20.1 101 100 98
-27.1 -28.4 20.0 28 28 28
-26.6 -28.3 20.0 35 34 33
-26.1 -28.3 20.0 113 114 113
-25.6 -28.3 20.0 149 151 151
-25.2 -28.3 20.0 64 64 64
-24.7 -28.3 20.0 38 38 38
-24.2 -28.3 20.0 69 69 69
-23.7 -28.3 20.0 36 36 36
-23.2 -28.2 19.9 137 137 137
-22.8 -28.3 20.0 90 90 90
-22.3 -28.3 20.0 42 43 42
-21.9 -28.3 20.0 81 84 83
-13.6 -27.5 19.4 169 171 170
-13.3 -27.8 19.6 159 159 159
-13.0 -28.1 19.8 148 150 150
-12.5 -28.1 19.8 42 42 42
632.5 -454.2 320.6 209 212 211
68.1 -45.2 31.9 193 193 193
68.3 -44.8 31.6 195 195 195
77.9 -31.5 22.2 191 191 191
76.4 -30.7 21.6 191 191 191
76.0 -30.3 21.4 188 188 188
72.4 -28.7 20.3 185 185 185
70.9 -27.9 19.7 178 181 180
-60.8 -30.1 21.6 32 31 30
-60.5 -30.2 21.7 115 114 114
-60.6 -30.5 21.9 137 137 137
-59.6 -30.3 21.7 20 23 21
-59.1 -30.3 21.7 20 23 21
-59.1 -30.5 21.9 24 24 24
-58.6 -30.5 21.9 18 22 19
-57.5 -30.2 21.7 20 23 21
-56.9 -30.4 21.8 26 26 26
-56.2 -30.3 21.8 35 35 35
-55.1 -30.3 21.7 140 142 141
-54.6 -30.3 21.7 179 179 179
-54.1 -30.3 21.7 151 151 151
-53.6 -30.3 21.7 146 146 146
-53.1 -30.3 21.7 169 169 169
-52.6 -30.3 21.7 172 174 174
-51.9 -30.2 21.6 124 126 125
-51.4 -30.2 21.6 98 98 98
-51.3 -30.4 21.8 205 205 205
-50.9 -30.5 21.9 199 199 199
-50.2 -30.4 21.8 60 60 60
-49.6 -30.3 21.8 39 41 41
-49.0 -30.3 21.7 131 131 131
-48.5 -30.3 21.7 112 112 112
-48.0 -30.3 21.7 96 95 94
-47.5 -30.3 21.7 92 92 92
-47.0 -30.3 21.7 151 151 151
-46.5 -30.3 21.7 124 126 125
-46.0 -30.3 21.7 40 42 42
-45.5 -30.3 21.7 53 52 52
-45.0 -30.3 21.7 64 64 64
-44.5 -30.3 21.7 68 68 68
-44.0 -30.3 21.7 68 68 68
-43.5 -30.3 21.7 68 68 68
-43.0 -30.3 21.7 68 68 68
-42.5 -30.3 21.7 66 67 65
-42.0 -30.3 21.7 68 68 68
-41.5 -30.3 21.7 66 67 65
-41.0 -30.3 21.7 62 62 62
-40.4 -30.3 21.7 9 14 10
-39.9 -30.3 21.7 94 94 94
-39.4 -30.3 21.7 200 200 200
-38.9 -30.3 21.7 228 228 228
-38.4 -30.3 21.7 228 228 228
-37.9 -30.3 21.7 224 224 224
-37.4 -30.3 21.7 186 186 186
-36.7 -30.1 21.6 128 128 128
-37.0 -30.7 22.0 131 134 133
-36.1 -30.4 21.8 198 201 200
-35.2 -30.1 21.6 202 202 202
-34.9 -30.3 21.7 222 222 222
-34.4 -30.3 21.7 218 218 218
-33.9 -30.3 21.7 205 208 207
-33.4 -30.3 21.7 2 7 3
-32.9 -30.3 21.7 64 64 64
-32.4 -30.3 21.7 115 117 116
-31.7 -30.1 21.6 122 122 122
-31.2 -30.1 21.6 128 130 129
-30.7 -30.1 21.6 90 92 91
-30.1 -30.1 21.6 58 59 59
-29.7 -30.1 21.6 31 32 30
-29.3 -30.3 21.7 30 29 29
-28.8 -30.3 21.7 89 91 90
-28.4 -30.4 21.8 70 70 70
-27.8 -30.3 21.7 31 32 30
-27.2 -30.1 21.6 28 28 28
-26.7 -30.1 21.6 40 40 40
-26.2 -30.1 21.6 60 59 58
-25.8 -30.3 21.7 30 31 30
-25.2 -30.2 21.6 139 139 139
-24.8 -30.3 21.7 59 59 59
-24.3 -30.2 21.7 102 101 99
-15.6 -30.1 21.6 171 173 173
-15.1 -30.1 21.6 179 179 179
-14.5 -30.9 22.2 178 178 178
-13.7 -30.3 21.8 115 115 115
541.9 -411.8 295.6 207 210 209
532.1 -399.3 286.6 207 210 209
69.3 -45.2 32.4 195 195 195
69.0 -44.5 32.0 195 195 195
68.4 -43.7 31.4 195 195 195
72.9 -28.4 20.4 186 186 186
70.6 -27.3 19.6 183 183 183
-63.9 -31.1 22.7 129 129 129
-63.7 -31.3 22.8 110 112 111
-63.0 -31.2 22.7 25 25 25
-62.4 -31.2 22.7 20 23 21
-61.9 -31.2 22.7 20 23 21
-61.3 -31.1 22.7 20 23 21
-60.8 -31.1 22.7 18 22 19
-57.1 -31.2 22.7 178 178 178
-56.6 -31.2 22.7 156 159 158
-56.1 -31.2 22.7 122 122 122
-55.6 -31.2 22.7 117 119 118
-55.0 -31.2 22.7 166 169 168
-54.4 -31.1 22.7 194 194 194
-53.6 -31.3 22.8 53 53 53
-53.0 -31.2 22.8 52 52 52
-52.4 -31.2 22.7 53 53 53
-51.9 -31.2 22.7 67 67 67
-51.3 -31.2 22.7 111 111 111
-50.8 -31.2 22.7 103 102 100
-50.3 -31.2 22.7 99 99 99
-49.7 -31.2 22.7 112 112 112
-49.2 -31.2 22.7 127 127 127
-48.2 -31.2 22.7 29 31 29
-46.6 -31.2 22.7 57 57 55
-46.0 -31.2 22.7 63 63 63
-45.5 -31.2 22.7 61 61 61
-45.0 -31.2 22.7 61 61 61
-44.5 -31.2 22.7 59 59 59
-43.9 -31.2 22.7 59 59 59
-42.3 -31.2 22.7 26 26 26
-41.8 -31.2 22.7 58 58 56
-41.3 -31.2 22.7 79 81 79
-40.8 -31.2 22.7 93 93 93
-40.2 -31.2 22.7 176 179 178
-39.7 -31.2 22.7 214 216 216
-39.2 -31.2 22.7 214 216 216
-38.2 -31.2 22.8 224 224 224
-37.4 -31.0 22.6 224 224 224
-37.0 -31.1 22.7 221 221 221
-36.5 -31.2 22.7 220 220 220
-36.0 -31.2 22.7 217 217 217
-35.5 -31.2 22.7 211 211 211
-34.9 -31.2 22.7 3 9 5
-34.4 -31.2 22.7 77 77 77
-33.8 -31.1 22.7 27 27 27
-31.2 -31.2 22.7 29 29 29
-30.7 -31.2 22.7 36 36 36
-30.2 -31.2 22.7 136 136 136
-29.7 -31.2 22.7 30 31 30
-29.1 -31.2 22.7 27 27 27
-28.7 -31.2 22.8 31 32 30
-28.1 -31.2 22.7 39 39 39
-27.6 -31.2 22.8 92 92 92
-27.0 -31.1 22.7 41 41 41
-26.5 -31.1 22.7 82 82 82
-15.4 -31.2 22.7 178 178 178
-14.7 -30.9 22.5 179 179 179
450.5 -341.0 248.9 206 209 208
433.5 -324.0 236.5 207 210 209
413.2 -304.9 222.5 207 210 209
583.1 -405.0 295.6 208 211 210
71.4 -45.3 33.1 195 195 195
72.8 -27.9 20.4 188 188 188
71.4 -27.2 19.8 177 180 179
69.3 -25.9 18.9 155 158 157
69.2 -25.7 18.7 152 152 152
74.0 -27.3 19.9 137 139 138
-59.5 -33.1 24.6 157 157 157
-59.2 -33.6 24.9 64 65 63
-57.8 -33.1 24.6 64 65 63
-42.9 -33.6 24.9 176 179 178
-42.0 -33.3 24.7 182 182 182
-39.4 -31.7 23.5 190 190 190
-40.7 -33.2 24.6 203 203 203
-33.3 -33.2 24.7 46 46 44
-32.6 -33.1 24.6 128 131 130
-30.6 -31.6 23.4 33 33 31
-29.8 -33.1 24.6 108 108 108
-15.7 -31.3 23.2 181 181 181
-14.9 -30.6 22.7 177 177 177
-14.3 -30.5 22.7 161 161 161
393.6 -292.8 217.4 211 211 211
381.1 -280.0 207.9 211 211 211
358.4 -260.0 193.0 211 211 211
355.6 -254.8 189.2 211 211 211
709.2 -490.0 363.8 212 213 212
565.4 -386.0 286.6 214 214 214
85.4 -32.0 23.7 176 176 176
73.5 -26.6 19.8 134 137 136
-60.4 -33.7 25.4 45 45 45
-59.3 -33.4 25.2 51 51 51
-58.6 -33.3 25.2 27 27 27
-44.4 -33.7 25.4 176 176 176
-43.5 -33.4 25.2 182 182 182
-42.8 -33.3 25.2 199 199 199
-41.1 -33.4 25.2 206 209 208
-40.5 -33.4 25.2 212 213 212
-39.9 -33.4 25.2 202 202 202
-39.4 -33.4 25.2 171 173 173
-36.5 -33.5 25.3 29 31 29
-35.9 -33.4 25.3 96 95 94
-15.5 -31.3 23.6 173 175 175
-16.3 -34.2 25.8 162 162 162
-15.5 -33.8 25.5 26 25 24
11.9 -14.7 11.1 211 211 211
12.9 -14.8 11.2 210 210 210
14.8 -14.8 11.2 209 209 209
14.9 -14.6 11.0 208 208 208
325.2 -231.8 175.2 211 211 211
329.2 -231.8 175.2 211 211 211
583.1 -391.2 295.6 212 213 212
351.2 -227.6 172.0 209 212 211
71.4 -43.3 32.7 198 198 198
84.3 -31.2 23.6 177 177 177
86.2 -31.7 23.9 170 171 170
86.6 -31.7 23.9 167 167 167
86.4 -31.4 23.7 146 146 146
73.6 -26.2 19.8 136 138 137
76.3 -26.8 20.3 136 138 137
-26.0 -14.7 11.3 20 23 21
-25.6 -14.6 11.2 20 23 21
-17.3 -34.4 26.4 89 89 89
-16.7 -34.5 26.5 86 86 86
-16.0 -34.2 26.3 57 58 56
15.0 -14.7 11.3 208 208 208
14.7 -14.3 11.0 208 208 208
347.7 -243.5 187.3 211 211 211
320.3 -221.6 170.4 211 211 211
611.8 -403.2 310.1 212 213 212
87.2 -31.5 24.2 150 150 150
88.0 -31.6 24.3 143 143 142
88.5 -31.6 24.3 138 140 139
73.8 -25.8 19.8 135 135 135
76.1 -26.4 20.3 133 133 133
75.8 -26.2 20.1 132 132 132
-18.1 -34.1 26.7 141 141 141
-17.5 -34.1 26.7 87 87 87
-16.9 -34.3 26.9 86 86 86
-16.2 -34.2 26.8 56 56 56
-15.6 -34.2 26.8 115 114 114
14.7 -13.9 10.9 210 210 210
14.9 -13.9 10.9 210 210 210
601.9 -389.7 305.1 212 213 212
235.4 -145.5 114.0 214 214 214
88.5 -31.4 24.6 128 131 130
89.4 -31.5 24.7 131 133 132
74.3 -25.5 20.0 129 129 129
76.5 -26.1 20.5 129 129 129
76.6 -26.0 20.4 129 129 129
-17.8 -34.1 27.2 94 94 94
-17.0 -33.8 26.9 88 90 89
-16.3 -33.6 26.8 73 73 73
14.6 -13.6 10.8 210 210 210
14.8 -13.5 10.8 210 210 210
548.8 -348.8 278.2 212 213 212
319.3 -196.0 156.3 208 211 210
49.8 -17.2 13.8 119 119 119
75.6 -25.5 20.3 120 120 120
76.4 -25.6 20.4 121 121 121
76.7 -25.6 20.4 121 121 121
-20.5 -37.2 30.3 128 130 129
-19.3 -36.3 29.5 96 96 96
-17.4 -33.9 27.5 88 90 89
14.2 -13.2 10.7 210 210 210
14.5 -13.2 10.8 210 210 210
14.7 -13.2 10.8 210 210 210
351.2 -232.8 189.2 214 214 214
550.4 -347.4 282.3 215 215 215
497.6 -310.4 252.2 216 216 216
345.0 -207.8 168.9 214 214 214
250.5 -149.2 121.3 214 214 214
50.2 -26.1 21.2 205 205 205
50.0 -17.1 13.9 107 109 109
50.1 -17.0 13.8 111 111 111
50.6 -17.1 13.9 112 112 112
51.0 -17.1 13.9 115 114 114
76.7 -25.4 20.6 115 114 114
76.1 -25.1 20.4 112 112 112
75.8 -24.8 20.1 115 114 114
74.4 -24.2 19.6 115 117 116
-33.4 -17.0 14.1 25 25 25
-33.0 -17.0 14.0 17 21 18
-32.7 -17.0 14.0 17 21 18
-32.4 -17.0 14.0 17 21 18
-32.0 -17.0 14.0 25 25 25
-31.7 -17.0 14.0 124 126 125
-30.9 -17.2 14.3 135 135 135
-30.1 -17.0 14.1 193 193 193
-19.9 -36.8 30.5 94 94 94
-19.7 -39.2 32.5 64 63 61
-19.2 -39.7 32.8 51 52 50
14.4 -12.5 10.4 209 209 209
14.7 -12.5 10.4 209 209 209
19.3 -15.2 12.6 208 208 208
576.2 -356.9 295.6 215 215 215
511.2 -312.9 259.1 216 216 216
341.9 -202.1 167.4 217 217 217
252.1 -147.4 122.0 208 211 210
49.3 -24.9 20.6 206 206 206
46.8 -23.2 19.2 193 193 193
50.4 -16.8 13.9 108 110 110
50.9 -16.8 14.0 108 110 110
51.6 -17.0 14.1 109 111 111
75.4 -24.2 20.0 105 105 105
73.8 -23.5 19.5 95 95 95
46.0 -14.6 12.1 154 154 154
-33.9 -17.1 14.4 23 23 23
-33.6 -17.1 14.4 19 23 20
-33.2 -17.1 14.4 23 23 23
-32.9 -17.1 14.4 19 23 20
-32.5 -17.1 14.4 110 110 110
-32.3 -17.1 14.4 149 151 151
-32.0 -17.1 14.5 145 145 144
-31.7 -17.2 14.5 148 148 148
-31.2 -17.1 14.4 145 145 144
-30.8 -17.0 14.4 148 148 148
-20.9 -39.2 33.1 95 95 95
-19.9 -38.8 32.8 85 85 85
-19.4 -39.4 33.2 31 33 33
-18.6 -39.2 33.1 30 32 32
377.6 -240.9 203.4 214 214 214
341.9 -215.4 181.9 214 214 214
557.0 -334.3 282.3 216 216 216
46.6 -22.9 19.3 195 195 195
46.4 -22.5 19.0 193 193 193
46.5 -22.4 18.9 168 168 168
51.3 -16.7 14.1 106 106 106
52.1 -16.8 14.2 105 105 105
52.6 -16.9 14.2 101 103 103
45.9 -14.4 12.1 67 67 65
46.0 -14.3 12.1 154 154 154
46.3 -14.3 12.1 120 122 121
-32.6 -17.1 14.7 167 167 167
-32.3 -17.1 14.7 136 138 137
-31.7 -17.0 14.7 169 171 170
-21.3 -39.3 33.8 94 94 94
-20.0 -38.3 33.0 108 108 108
-19.7 -39.2 33.8 92 92 92
45.9 -21.9 18.8 190 190 190
45.6 -21.5 18.5 186 186 186
52.5 -16.6 14.3 99 99 99
53.1 -16.7 14.4 91 93 92
46.3 -14.2 12.2 77 80 79
46.3 -14.1 12.2 152 154 154
46.6 -14.1 12.2 125 125 125
-24.0 -41.7 36.7 95 95 95
-22.1 -39.9 35.1 96 99 98
-20.6 -38.6 34.0 83 83 83
-20.2 -39.3 34.6 111 111 111
45.6 -21.3 18.7 190 190 190
45.0 -20.8 18.3 179 179 179
52.7 -16.3 14.4 80 83 82
53.3 -16.4 14.4 71 71 71
46.7 -14.0 12.3 77 77 77
46.5 -13.9 12.2 153 155 155
46.8 -13.9 12.2 123 125 124
-24.7 -42.2 37.8 95 95 95
-23.0 -40.7 36.5 94 94 94
-21.7 -39.8 35.7 103 105 105
44.6 -20.2 18.1 195 195 195
52.9 -16.1 14.4 77 80 79
53.4 -16.1 14.5 73 73 73
47.0 -13.8 12.3 159 159 159
47.2 -13.7 12.3 129 129 129
-25.9 -43.3 39.7 96 96 96
-24.0 -41.5 38.1 99 99 99
53.7 -15.9 14.6 75 76 76
-11.9 -12.6 11.8 31 31 31
-31.3 -52.6 51.5 112 111 110
-30.1 -52.6 51.5 27 27 27
-33.9 -55.7 55.8 110 110 110
-38.6 -66.0 66.1 49 50 48
-35.9 -57.6 59.1 111 111 109
-38.9 -64.9 66.6 46 47 45
-34.8 -60.5 62.0 20 20 20
-33.2 -60.3 61.8 154 154 154
-41.3 -64.8 68.0 113 115 114
-40.6 -66.2 69.5 29 29 29
-37.0 -62.7 65.9 20 20 20
-35.3 -62.5 65.7 159 159 159
-35.0 -64.8 68.0 181 181 181
-42.2 -67.0 72.2 27 27 27
-39.0 -64.6 69.5 20 20 20
-37.0 -63.9 68.8 165 165 165
-36.3 -65.5 70.6 177 177 177
-51.5 -76.8 84.8 105 105 105
-45.8 -71.1 78.5 32 34 33
-44.2 -71.3 78.8 20 20 20
-42.9 -75.4 83.3 182 185 184
-76.7 -115.9 131.4 34 34 34
454.2 -191.8 217.4 176 176 176
283.4 -118.3 134.2 169 171 170
-97.8 -143.8 167.4 26 25 24
-82.9 -126.9 147.8 22 22 22
444.0 -182.5 212.5 181 181 181
229.5 -92.3 107.5 195 195 195
-123.4 -183.8 220.0 23 24 23
-110.5 -171.8 205.6 179 179 179
454.2 -181.7 217.4 175 175 175
209.3 -81.9 98.0 193 193 193
-25.7 -9.8 12.1 148 150 150
-24.8 -9.6 11.9 135 135 135
-24.4 -9.6 11.8 137 139 138
-200.2 -289.9 356.9 23 24 23
285.4 -109.7 135.1 176 179 178
206.1 -78.4 96.5 191 191 191
-25.7 -9.6 12.2 151 151 151
-25.0 -9.4 11.9 126 126 126
-24.3 -9.2 11.7 133 133 133
-23.1 -8.9 11.3 168 170 169
285.4 -106.6 135.1 167 167 167
152.9 -55.9 70.8 191 191 191
136.7 -49.4 62.6 197 197 197
-24.5 -8.9 11.7 118 118 118
-23.9 -8.8 11.6 123 125 124
-23.1 -8.6 11.3 137 139 138
157.1 -55.7 72.8 195 195 195
171.7 -54.5 71.1 203 203 203
-24.5 -8.7 11.7 122 124 123
-22.8 -8.4 11.3 104 104 104
158.9 -54.7 73.6 189 189 189
176.3 -54.2 73.0 203 203 203
-34.0 -11.0 15.2 75 76 74
-33.2 -10.8 15.0 75 77 75
-32.6 -10.7 14.9 75 77 75
160.1 -53.4 74.2 193 193 193
157.4 -51.3 71.4 195 195 195
192.5 -57.9 80.5 206 206 206
179.8 -53.6 74.5 199 199 199
171.4 -50.6 70.3 230 230 230
-34.3 -10.7 15.3 77 77 77
-33.4 -10.5 15.1 78 78 78
-32.7 -10.4 15.0 79 79 79
157.7 -50.8 73.0 183 183 183
154.5 -48.8 70.1 195 195 195
201.9 -58.8 84.4 204 204 204
176.3 -50.8 73.0 197 197 197
166.5 -47.5 68.3 229 228 226
-34.5 -10.4 15.4 58 58 58
-33.3 -10.1 15.1 58 58 58
157.1 -48.9 72.8 182 182 182
136.7 -42.1 62.6 191 191 191
153.9 -47.0 69.8 195 195 195
201.0 -56.6 84.1 204 204 204
176.3 -49.1 73.0 199 199 199
165.3 -45.6 67.8 230 230 230
-177.7 -53.9 83.0 28 28 28
154.7 -46.5 71.7 175 177 177
135.8 -40.4 62.2 191 191 191
151.1 -44.5 68.5 193 193 193
144.9 -42.2 65.0 195 195 195
139.6 -40.3 62.0 196 196 196
175.7 -47.3 72.8 197 197 197
164.1 -43.7 67.3 230 230 230
161.6 -42.7 65.7 231 231 231
-213.3 -61.7 98.5 22 25 23
-180.0 -52.7 84.1 28 28 28
-197.7 -60.4 96.5 36 37 36
-192.5 -59.5 95.1 102 102 102
-178.2 -56.4 90.1 161 161 161
-169.7 -54.3 86.8 54 54 54
152.9 -44.4 70.8 176 176 176
141.3 -40.6 64.8 191 191 191
150.6 -42.8 68.3 193 193 193
147.4 -41.4 66.1 196 196 196
147.4 -41.0 65.5 196 196 196
161.6 -44.0 70.3 198 198 198
161.4 -43.6 69.5 202 202 202
176.0 -46.1 73.6 205 205 205
173.7 -45.0 71.9 203 203 203
168.3 -43.2 69.0 226 229 228
166.3 -42.3 67.6 235 235 235
172.8 -43.6 69.5 110 110 110
175.0 -43.7 69.8 79 79 79
167.4 -41.4 66.1 68 68 68
-225.0 -62.7 103.9 57 57 57
-184.1 -51.9 86.0 57 57 57
-215.3 -63.4 105.1 102 102 102
-191.0 -58.2 96.5 163 166 165
198.0 -55.9 92.7 157 157 157
157.1 -43.9 72.8 175 177 177
147.9 -40.9 67.8 191 191 191
153.4 -41.9 69.5 193 193 193
169.8 -44.6 73.9 198 198 198
170.9 -44.4 73.6 198 198 198
187.7 -47.3 78.5 205 205 205
177.0 -44.2 73.3 203 203 203
172.1 -42.6 70.6 232 232 232
173.0 -42.4 70.3 235 235 235
180.0 -43.7 72.5 108 108 108
182.4 -43.9 72.8 52 52 50
176.0 -41.9 69.5 60 62 61
-258.7 -68.6 118.2 69 71 69
-235.3 -63.0 108.7 69 71 69
-230.9 -66.9 115.3 73 73 73
16.9 -6.4 11.1 220 223 222
20.3 -6.4 11.1 222 224 224
194.2 -52.7 90.9 149 149 149
161.4 -43.4 74.8 176 176 176
150.1 -39.9 68.8 189 189 189
156.2 -41.1 70.8 192 192 192
182.7 -46.1 79.5 198 198 198
193.4 -48.3 83.3 199 199 199
200.1 -48.5 83.7 205 205 205
182.0 -43.7 75.4 199 199 199
177.3 -42.2 72.8 236 236 236
181.8 -42.8 73.9 236 236 236
188.0 -43.9 75.7 108 108 108
187.5 -43.4 74.8 67 67 67
187.0 -42.8 73.9 60 63 62
16.9 -6.1 11.0 222 224 224
17.2 -6.1 11.0 222 224 224
20.3 -6.1 11.0 222 224 224
203.0 -52.9 95.1 138 138 138
159.2 -40.2 72.2 189 189 189
210.9 -51.6 92.7 197 197 197
227.4 -53.4 96.0 203 203 203
210.4 -49.0 88.0 203 203 203
185.7 -42.8 76.9 200 200 200
179.4 -41.0 73.6 235 235 235
217.5 -48.7 87.6 109 109 109
195.2 -43.3 77.8 68 68 68
20.4 -6.0 11.3 223 225 225
211.5 -52.8 99.0 139 141 140
245.9 -57.6 108.1 197 197 197
255.7 -59.3 111.3 197 197 197
250.2 -56.4 105.7 203 203 203
214.4 -47.8 89.7 205 205 205
183.4 -40.5 76.0 204 204 204
175.3 -38.4 71.9 235 235 235
227.0 -48.7 91.4 111 111 111
127.1 -26.5 49.8 66 66 66
20.6 -5.8 11.4 222 222 222
135.8 -31.7 62.2 186 186 186
121.9 -27.3 53.6 197 197 197
122.1 -27.1 53.1 197 197 197
87.7 -18.9 37.0 205 205 205
161.2 -33.7 66.1 224 226 226
129.2 -25.8 50.6 68 68 68
20.8 -5.6 11.5 222 222 222
135.8 -30.3 62.2 184 184 184
133.9 -29.0 59.5 194 194 194
169.2 -34.1 70.1 200 200 200
160.7 -32.1 65.9 219 219 219
183.8 -35.7 73.3 59 61 60
164.5 -31.6 65.0 61 64 63
20.6 -5.3 11.4 224 224 224
175.7 -33.7 72.8 210 210 210
167.7 -31.9 68.8 210 210 210
171.1 -32.2 69.5 218 218 218
185.3 -34.3 73.9 48 48 48
182.7 -33.5 72.2 61 64 63
20.6 -5.0 11.4 224 224 224
23.1 -5.2 13.3 222 222 222
23.8 -5.2 13.3 222 222 222
24.1 -5.2 13.3 222 222 222
24.4 -5.2 13.3 222 222 222
24.7 -5.2 13.3 222 222 222
21.2 -4.6 12.5 222 222 222
21.6 -4.7 12.6 222 222 222
21.8 -4.7 12.6 222 222 222
22.0 -4.6 12.5 224 224 224
22.7 -4.7 12.6 224 224 224
23.0 -4.6 12.5 224 224 224
23.3 -4.6 12.5 224 224 224
23.5 -4.6 12.5 224 224 224
23.7 -4.6 12.5 224 224 224
24.0 -4.6 12.4 224 224 224
22.0 -4.3 12.5 224 224 224
23.4 -4.3 12.5 224 224 224
23.7 -4.3 12.5 224 224 224
23.9 -4.3 12.4 224 224 224
21.1 -3.1 11.2 226 226 226
21.4 -3.1 11.2 226 226 226
17.2 -2.9 11.2 220 220 220
17.4 -2.9 11.2 220 220 220
17.7 -2.9 11.2 220 220 220
18.0 -2.9 11.3 220 220 220
20.8 -2.9 11.4 222 222 222
21.0 -2.9 11.3 222 222 222
21.2 -2.9 11.3 222 222 222
21.5 -2.9 11.3 222 222 222
21.7 -2.9 11.3 222 222 222
1006.4 -100.3 394.1 65 67 66
716.9 -70.8 278.2 60 60 60
17.3 -2.6 11.3 216 219 218
17.5 -2.6 11.2 221 221 221
17.8 -2.6 11.3 221 221 221
18.1 -2.6 11.3 221 221 221
21.4 -2.6 11.4 224 224 224
21.6 -2.6 11.3 224 224 224
1006.4 -72.8 394.1 60 60 60
878.3 -55.5 343.9 63 63 63
947.2 -51.3 370.9 64 66 66
21.1 -0.7 10.2 220 223 222
21.2 -0.7 10.1 174 176 176
21.0 -0.5 10.8 222 224 224
21.1 -0.5 10.7 222 224 224
21.5 -0.5 10.8 220 223 222
21.6 -0.5 10.7 220 223 222
21.2 -0.5 10.3 220 223 222
21.3 -0.5 10.2 177 180 179
20.8 -0.2 10.8 222 224 224
21.6 -0.2 10.8 226 226 226
21.2 -0.2 10.4 222 224 224
21.2 -0.2 10.3 219 222 221
21.3 0.0 10.4 223 225 225
21.4 0.0 10.3 220 223 222
21.2 0.3 10.7 223 225 225
21.5 0.3 10.7 223 225 225
21.6 0.3 10.7 222 224 224
21.4 0.3 10.4 222 224 224
20.3 0.5 11.0 223 225 225
20.5 0.5 11.0 223 225 225
21.8 0.5 10.9 223 225 225
21.6 0.5 10.7 222 224 224
21.2 0.5 10.3 221 221 221
20.5 0.8 11.1 224 226 226
21.4 0.8 10.6 223 225 225
21.5 0.7 10.5 223 225 225
21.2 0.7 10.3 224 226 226
84.3 1.6 22.4 89 89 89
82.6 1.5 21.8 92 92 92
80.0 1.5 21.0 166 169 168
21.3 1.0 10.5 224 226 226
21.4 1.0 10.5 224 224 224
21.2 1.0 10.3 224 226 226
83.5 2.1 22.2 94 97 96
81.4 2.0 21.5 89 89 89
79.9 2.0 21.0 170 171 170
21.5 1.3 10.7 222 222 222
21.4 1.2 10.5 224 226 226
21.3 1.2 10.3 225 225 225
83.9 2.6 22.3 91 91 91
82.3 2.6 21.7 94 94 94
80.4 2.5 21.1 155 155 155
21.5 1.5 10.7 226 226 226
21.3 1.5 10.3 222 222 222
87.1 3.3 23.2 89 89 89
21.2 1.7 10.3 219 219 219
566.2 58.2 248.9 199 199 199
-98.4 30.3 54.2 85 84 82
-95.3 29.7 53.1 87 86 84
-91.7 29.0 51.8 87 86 84
-92.5 29.6 53.0 90 90 90
-91.6 29.7 53.1 94 93 92
-91.6 30.1 53.9 94 93 92
-91.1 30.4 54.4 99 101 101
-88.8 30.0 53.7 109 111 111
-70.1 31.8 56.8 232 234 234
-68.6 31.7 56.6 219 222 221
-67.3 31.7 56.6 236 236 236
-64.4 30.9 55.3 226 226 226
-63.0 30.8 55.1 182 182 182
-60.3 30.1 53.9 94 94 94
-179.5 52.2 89.7 119 121 120
-238.4 82.8 142.2 115 115 115
-154.1 77.0 132.3 38 40 40
-261.7 117.4 105.1 164 164 164
-258.2 118.0 105.7 159 162 161
-255.8 118.0 105.7 153 153 153
-251.9 117.4 105.1 144 144 144
-248.1 116.7 104.5 129 129 129
-247.0 117.4 105.1 108 110 110
-245.9 118.0 105.7 101 100 98
-242.1 117.4 105.1 95 95 95
-232.2 116.1 103.9 55 55 55
-227.5 117.4 105.1 59 59 59
-196.6 119.4 106.9 72 72 72
-179.1 116.1 103.9 17 21 18
-170.8 118.7 106.3 11 11 11
-166.4 117.4 105.1 8 9 8
-163.1 116.7 104.5 4 10 6
-159.8 116.1 103.9 34 34 34
-159.1 117.4 105.1 81 81 81
-152.5 116.1 103.9 98 98 98
-150.9 116.7 104.5 100 100 100
-149.3 117.4 105.1 102 102 102
-144.4 117.4 105.1 102 102 102
-140.4 116.1 103.9 98 98 98
-281.3 127.6 111.9 163 163 163
-275.4 126.1 110.6 164 164 164
-276.1 127.6 111.9 165 165 165
-271.9 126.9 111.3 159 162 161
-269.3 126.9 111.3 155 155 155
-265.2 126.1 110.6 144 146 146
-259.6 124.7 109.3 131 134 133
-260.0 126.1 110.6 120 120 120
-259.0 126.9 111.3 104 103 101
-254.9 126.1 110.6 98 98 98
-255.3 127.6 111.9 95 95 95
-252.7 127.6 111.9 70 70 70
-238.7 129.9 114.0 70 70 70
-233.3 128.4 112.6 72 72 72
-234.8 130.7 114.6 72 72 72
-224.0 126.1 110.6 74 75 73
-217.5 129.9 114.0 73 73 73
-216.2 130.7 114.6 74 75 73
-218.8 134.0 117.5 75 77 75
-203.5 126.1 110.6 75 77 75
-209.5 131.5 115.3 82 82 82
-197.2 125.4 110.0 82 82 82
-199.0 129.9 114.0 59 59 59
-174.7 124.0 108.7 15 15 15
-175.2 126.1 110.6 8 9 8
-170.6 124.7 109.3 46 46 46
-167.1 124.0 108.7 89 89 89
-165.5 124.7 109.3 96 95 94
-160.4 124.7 109.3 104 104 104
-158.8 125.4 110.0 107 107 105
-158.1 126.9 111.3 107 107 105
-161.2 131.5 115.3 104 104 104
-152.0 126.1 110.6 96 95 94
-144.3 126.1 110.6 89 89 89
-146.0 132.3 116.1 148 150 150
-136.6 126.1 110.6 208 207 205
