ply
format ascii 1.0
element vertex 1651
property float x
property float y
property float z
property uchar red
property uchar green
property uchar blue
end_header
116.6 -185.4 73.9 155 158 157
52.4 -74.5 29.7 158 161 160
52.8 -74.2 29.6 158 161 160
54.0 -74.9 29.8 158 161 160
57.9 -75.5 30.1 159 159 159
58.4 -75.1 29.9 155 155 155
115.3 -87.7 35.0 104 103 101
117.0 -195.9 78.8 157 160 159
120.7 -195.9 78.8 157 160 159
117.1 -187.3 75.4 157 160 159
121.8 -191.9 77.2 158 161 160
131.1 -203.6 81.9 158 161 160
123.4 -188.8 76.0 158 161 160
52.5 -73.9 29.7 158 161 160
58.5 -74.6 30.0 159 159 159
107.8 -80.7 32.4 104 103 101
106.7 -79.3 31.9 104 103 101
62.0 -41.5 16.7 200 202 202
61.6 -41.0 16.5 154 154 154
118.0 -208.9 84.8 165 165 165
111.5 -194.1 78.8 165 165 165
117.0 -194.1 78.8 157 160 159
121.0 -191.7 77.8 162 162 162
123.8 -193.3 78.5 163 163 163
128.3 -197.4 80.2 163 163 163
125.4 -190.1 77.2 158 161 160
53.4 -73.6 29.9 158 161 160
58.6 -74.1 30.1 159 159 159
106.1 -79.2 32.2 104 103 101
103.7 -76.9 31.2 104 103 101
101.9 -75.0 30.5 98 100 100
80.5 -58.1 23.6 98 100 100
77.2 -55.3 22.5 98 100 100
62.4 -41.6 16.9 196 199 198
62.6 -41.5 16.9 207 207 207
62.2 -40.9 16.6 165 168 167
60.9 -39.8 16.2 157 157 157
59.0 -214.6 88.0 167 167 167
61.1 -214.6 88.0 167 167 167
71.6 -215.6 88.4 168 168 168
74.1 -216.6 88.8 168 168 168
75.1 -213.6 87.6 165 165 165
77.8 -215.6 88.4 165 165 165
79.9 -215.6 88.4 165 165 165
83.5 -219.7 90.1 165 165 165
85.2 -218.7 89.7 165 165 165
91.4 -218.7 89.7 165 165 165
91.8 -214.6 88.0 165 165 165
95.1 -217.7 89.2 164 164 164
96.8 -216.6 88.8 164 164 164
101.4 -217.7 89.2 164 164 164
112.7 -215.6 88.4 164 164 164
112.2 -210.7 86.4 166 166 166
120.8 -211.7 86.8 165 165 165
133.6 -209.7 86.0 165 165 165
133.2 -206.0 84.4 166 166 166
138.9 -211.7 86.8 166 166 166
134.2 -201.5 82.6 164 164 164
54.2 -73.9 30.3 161 164 163
56.4 -76.0 31.2 162 165 164
58.2 -77.4 31.7 159 162 161
56.2 -73.8 30.3 159 162 161
59.7 -74.7 30.6 161 164 163
98.9 -72.7 29.8 104 103 101
96.9 -70.7 29.0 98 100 100
79.2 -56.6 23.2 98 100 100
75.7 -53.7 22.0 95 98 97
60.1 -40.7 16.7 90 90 90
60.2 -40.5 16.6 193 193 193
61.7 -40.7 16.7 196 196 196
61.9 -40.6 16.7 200 202 202
61.7 -40.3 16.5 205 205 205
61.0 -39.6 16.2 208 208 208
62.8 -40.4 16.6 200 202 202
63.6 -40.5 16.6 215 215 215
48.0 -125.2 51.8 165 165 165
109.2 -206.8 85.6 166 166 166
182.2 -287.4 119.0 167 167 167
142.8 -218.7 90.5 166 166 166
145.6 -219.7 90.9 166 166 166
59.0 -77.7 32.2 162 165 164
64.6 -81.0 33.5 160 163 162
61.9 -76.7 31.7 161 164 163
95.8 -69.7 28.8 98 100 100
92.6 -66.9 27.7 104 103 101
74.6 -52.5 21.7 95 98 97
58.1 -38.7 16.0 196 199 198
57.8 -38.3 15.8 148 148 148
57.5 -37.8 15.7 196 196 196
58.3 -38.1 15.8 196 199 198
59.5 -38.7 16.0 188 188 188
59.8 -38.7 16.0 173 173 173
59.5 -38.2 15.8 215 215 215
59.3 -37.9 15.7 182 185 184
60.0 -38.1 15.8 218 218 218
60.4 -38.1 15.8 215 215 215
44.9 -105.3 44.0 168 168 168
51.0 -78.6 32.8 170 171 170
51.2 -77.6 32.4 172 172 172
138.9 -207.6 86.8 172 172 172
134.7 -198.5 83.0 172 172 172
113.3 -164.6 68.8 173 173 173
58.8 -77.8 32.5 169 169 169
59.7 -77.9 32.6 170 171 170
130.1 -167.6 70.1 170 171 170
64.3 -79.8 33.4 163 166 165
62.6 -76.8 32.1 164 167 166
91.9 -65.8 27.5 104 103 101
81.5 -57.5 24.0 98 100 100
73.9 -51.4 21.5 95 98 97
56.6 -37.2 15.5 143 143 142
56.3 -36.7 15.4 191 191 191
55.7 -36.1 15.1 200 202 202
57.8 -36.8 15.4 205 205 205
56.8 -35.9 15.0 212 213 212
56.7 -35.6 14.9 218 218 218
57.3 -35.8 15.0 218 218 218
45.2 -105.0 44.3 165 165 165
45.9 -104.2 44.0 170 172 172
295.6 -471.8 199.1 172 174 174
254.7 -400.2 168.9 172 174 174
199.7 -309.1 130.5 172 174 174
51.0 -77.8 32.8 172 174 174
50.5 -75.8 32.0 173 175 175
142.8 -211.4 89.2 173 175 175
29.2 -40.8 17.2 169 169 169
29.1 -40.2 17.0 174 174 174
54.4 -72.2 30.5 172 172 172
57.6 -75.5 31.8 172 172 172
58.8 -76.0 32.1 173 173 173
83.5 -58.7 24.8 98 100 100
73.7 -51.2 21.6 95 98 97
68.8 -47.1 19.9 95 95 95
67.4 -45.8 19.3 95 95 95
49.2 -31.4 13.2 196 199 198
49.6 -31.2 13.2 208 208 208
53.4 -33.0 13.9 218 218 218
16.7 -81.0 34.5 168 168 168
17.5 -80.7 34.4 168 168 168
18.1 -80.0 34.1 170 172 172
19.1 -80.8 34.5 169 171 170
19.9 -80.8 34.5 169 171 170
20.7 -80.7 34.4 169 171 170
21.5 -80.7 34.4 167 167 167
22.3 -80.8 34.5 167 167 167
23.1 -80.7 34.4 167 167 167
25.0 -81.6 34.8 167 167 167
25.5 -80.7 34.4 167 167 167
26.2 -80.6 34.3 168 168 168
27.1 -80.7 34.4 170 172 172
27.9 -80.8 34.5 170 172 172
28.5 -80.1 34.1 170 172 172
29.4 -80.6 34.3 170 172 172
30.3 -80.8 34.5 170 172 172
31.1 -80.8 34.5 170 172 172
31.9 -80.8 34.5 170 172 172
32.6 -80.6 34.3 170 172 172
33.4 -80.6 34.3 173 175 175
34.3 -80.8 34.5 170 172 172
35.3 -81.1 34.6 173 175 175
36.1 -81.3 34.6 170 172 172
37.1 -81.6 34.8 173 175 175
37.5 -80.7 34.4 174 176 176
38.4 -81.0 34.5 174 176 176
39.4 -81.4 34.7 174 176 176
40.0 -81.0 34.5 174 176 176
42.6 -81.3 34.6 174 176 176
43.4 -81.3 34.6 174 176 176
44.1 -81.1 34.6 179 179 179
45.0 -81.3 34.6 179 179 179
45.7 -81.1 34.6 181 181 181
48.1 -81.1 34.6 182 182 182
49.0 -81.3 34.6 175 177 177
50.8 -81.6 34.8 180 180 180
355.5 -561.8 239.4 182 182 182
243.8 -379.3 161.7 182 182 182
204.0 -312.6 133.2 180 180 180
52.1 -78.7 33.5 182 182 182
51.8 -77.1 32.8 181 181 181
53.7 -78.7 33.5 173 175 175
28.9 -40.0 17.0 174 176 176
28.9 -39.6 16.9 175 177 177
29.4 -39.6 16.9 178 181 180
58.0 -75.2 32.1 175 175 175
58.8 -75.2 32.1 176 179 178
67.3 -45.7 19.5 95 98 97
65.4 -44.0 18.8 98 100 100
43.8 -27.5 11.7 207 207 207
43.1 -26.9 11.5 212 213 212
16.5 -79.2 34.1 170 172 172
17.3 -78.9 34.0 170 172 172
18.0 -78.6 33.8 170 172 172
19.7 -79.0 34.0 169 171 170
20.5 -79.0 34.0 169 171 170
21.3 -79.0 34.0 169 171 170
22.0 -79.0 34.0 164 164 164
22.8 -79.0 34.0 169 171 170
25.2 -79.0 34.0 169 171 170
25.9 -78.9 34.0 173 175 175
26.8 -79.0 34.0 165 165 165
27.6 -79.0 34.0 173 175 175
28.3 -78.8 33.9 170 172 172
29.1 -78.9 34.0 178 178 178
30.0 -79.2 34.1 173 175 175
30.8 -79.2 34.1 170 172 172
31.6 -79.2 34.1 170 172 172
32.3 -79.0 34.0 173 175 175
34.8 -79.2 34.1 190 190 190
35.9 -80.0 34.5 190 190 190
37.1 -79.0 34.0 183 183 183
38.0 -79.3 34.1 191 191 191
39.0 -79.8 34.3 191 191 191
43.5 -79.3 34.1 195 195 195
44.3 -79.3 34.1 194 194 194
45.0 -79.0 34.0 200 200 200
46.1 -79.6 34.3 200 200 200
47.3 -80.3 34.6 197 197 197
47.6 -79.5 34.2 197 197 197
48.2 -79.2 34.1 200 200 200
49.7 -80.3 34.6 200 200 200
50.0 -79.5 34.2 200 200 200
50.5 -79.0 34.0 200 200 200
243.8 -375.6 161.7 200 200 200
205.4 -311.7 134.2 200 200 200
51.9 -77.6 33.4 197 197 197
49.5 -72.9 31.4 198 198 198
53.7 -77.9 33.5 198 198 198
55.0 -78.6 33.8 198 198 198
222.6 -313.9 135.1 199 199 199
28.6 -39.2 16.9 203 203 203
28.6 -38.8 16.7 203 203 203
29.2 -38.9 16.8 204 204 204
59.9 -75.9 32.7 202 202 202
66.7 -44.7 19.3 95 98 97
65.6 -43.8 18.8 98 100 100
39.7 -24.4 10.5 212 213 212
43.0 -26.2 11.3 215 215 215
43.1 -26.1 11.2 219 219 219
47.1 -79.1 34.4 204 204 204
47.3 -78.1 34.0 204 204 204
48.2 -78.4 34.1 204 204 204
49.1 -78.5 34.1 204 204 204
49.3 -77.5 33.7 204 204 204
204.0 -306.4 133.2 204 204 204
51.0 -75.5 32.8 204 204 204
49.0 -71.4 31.1 205 205 205
49.0 -70.4 30.6 205 205 205
54.9 -77.7 33.8 205 205 205
216.4 -302.1 131.4 205 205 205
28.7 -39.0 17.0 206 206 206
26.5 -34.5 15.0 207 207 207
59.7 -74.9 32.6 205 205 205
64.5 -42.6 18.5 98 100 100
39.4 -24.1 10.5 182 185 184
39.2 -23.8 10.4 178 178 178
39.2 -23.6 10.3 215 215 215
41.3 -71.1 31.2 204 204 204
41.9 -70.9 31.2 206 206 206
46.1 -75.4 33.1 206 206 206
46.0 -74.0 32.5 206 206 206
47.6 -75.4 33.1 204 204 204
48.1 -74.9 32.9 204 204 204
46.7 -71.7 31.5 204 204 204
47.0 -70.9 31.2 204 204 204
50.6 -74.1 32.6 204 204 204
49.1 -70.8 31.1 205 205 205
49.3 -70.1 30.8 205 205 205
214.9 -297.0 130.5 205 205 205
203.9 -277.8 122.0 206 206 206
26.6 -34.3 15.1 207 207 207
27.0 -34.4 15.1 207 207 207
59.6 -74.0 32.5 205 205 205
56.3 -69.0 30.3 208 208 208
175.2 -128.2 56.3 117 117 117
58.2 -37.8 16.6 98 100 100
38.9 -23.4 10.3 191 191 191
38.5 -23.0 10.1 215 215 215
38.8 -23.1 10.1 219 219 219
23.2 -70.6 31.3 205 205 205
23.7 -69.9 31.0 205 205 205
24.6 -70.5 31.3 205 205 205
25.3 -70.2 31.2 205 205 205
26.0 -70.3 31.2 205 205 205
39.8 -70.3 31.2 207 207 207
40.3 -70.0 31.1 207 207 207
41.2 -70.2 31.2 206 206 206
41.9 -70.1 31.1 206 206 206
45.4 -72.2 32.1 206 206 206
50.0 -78.4 34.8 206 206 206
48.8 -75.3 33.4 206 206 206
47.2 -71.6 31.8 206 206 206
47.1 -70.3 31.2 206 206 206
47.7 -70.2 31.2 206 206 206
50.4 -73.1 32.4 206 206 206
49.0 -70.0 31.1 207 207 207
49.4 -69.5 30.9 207 207 207
50.5 -70.1 31.1 205 205 205
183.7 -247.8 110.0 208 208 208
26.8 -34.2 15.2 207 207 207
27.1 -34.2 15.2 207 207 207
57.7 -70.0 31.1 208 208 208
173.6 -125.7 55.8 120 120 120
52.7 -33.4 14.8 98 100 100
23.0 -69.3 31.1 207 207 207
23.2 -67.8 30.4 207 207 207
41.3 -73.5 33.0 206 206 206
40.9 -71.5 32.1 206 206 206
40.2 -69.0 31.0 206 206 206
42.1 -71.0 31.8 206 206 206
47.0 -75.3 33.8 206 206 206
46.9 -73.9 33.1 206 206 206
50.3 -78.0 35.0 206 206 206
49.4 -75.3 33.8 206 206 206
47.9 -72.0 32.3 206 206 206
47.7 -70.5 31.6 206 206 206
51.8 -75.5 33.8 206 206 206
50.8 -72.9 32.7 206 206 206
48.8 -69.0 31.0 206 206 206
48.8 -67.9 30.5 206 206 206
53.2 -73.0 32.7 207 207 207
26.8 -33.9 15.2 207 207 207
183.4 -131.4 58.9 125 125 125
23.0 -68.5 31.1 207 207 207
23.2 -67.1 30.4 207 207 207
40.5 -70.0 31.7 206 206 206
40.3 -68.5 31.1 208 208 208
41.2 -68.8 31.2 208 208 208
41.9 -68.7 31.1 208 208 208
45.6 -71.1 32.2 208 208 208
51.0 -78.3 35.5 208 208 208
49.6 -74.9 34.0 208 208 208
48.3 -71.7 32.5 208 208 208
47.6 -69.7 31.6 208 208 208
47.6 -68.7 31.1 208 208 208
50.7 -72.0 32.6 205 205 205
48.8 -68.3 31.0 208 208 208
48.5 -66.9 30.3 209 209 209
51.3 -69.7 31.6 206 206 206
51.7 -69.2 31.4 206 206 206
26.8 -33.5 15.2 208 208 208
39.9 -68.3 31.3 208 208 208
41.6 -67.5 30.9 208 208 208
44.8 -69.1 31.6 208 208 208
50.5 -76.6 35.1 208 208 208
50.3 -75.1 34.4 208 208 208
48.0 -70.6 32.3 208 208 208
47.5 -68.8 31.5 208 208 208
47.3 -67.5 30.9 208 208 208
50.0 -70.2 32.2 208 208 208
48.6 -67.3 30.8 208 208 208
48.0 -65.5 30.0 208 208 208
49.0 -65.9 30.2 208 208 208
51.3 -68.0 31.2 206 206 206
52.1 -68.2 31.2 206 206 206
29.1 -36.0 16.5 207 207 207
27.1 -33.1 15.2 207 207 207
41.4 -66.6 30.8 207 207 207
42.6 -67.2 31.1 207 207 207
43.8 -68.0 31.5 207 207 207
44.8 -68.5 31.7 207 207 207
49.9 -75.0 34.7 207 207 207
49.5 -73.1 33.8 207 207 207
48.3 -70.2 32.5 207 207 207
47.8 -68.5 31.7 207 207 207
46.8 -66.0 30.6 207 207 207
48.3 -66.1 30.6 207 207 207
47.7 -64.4 29.8 208 208 208
48.5 -64.6 29.9 208 208 208
51.3 -67.2 31.1 205 205 205
52.1 -67.4 31.2 206 206 206
29.0 -35.5 16.4 207 207 207
27.1 -32.8 15.2 207 207 207
41.7 -66.3 31.0 207 207 207
42.6 -66.5 31.1 207 207 207
43.5 -66.8 31.3 207 207 207
44.4 -67.0 31.4 207 207 207
49.1 -73.0 34.1 207 207 207
49.4 -72.2 33.8 207 207 207
48.8 -70.3 32.9 207 207 207
47.8 -67.7 31.7 206 206 206
47.5 -66.3 31.0 206 206 206
48.4 -65.6 30.7 207 207 207
47.5 -63.5 29.7 207 207 207
48.2 -63.4 29.6 207 207 207
51.3 -66.5 31.1 205 205 205
52.1 -66.7 31.2 205 205 205
52.5 -66.3 31.0 205 205 205
29.2 -35.4 16.5 206 206 206
27.3 -32.7 15.3 206 206 206
42.0 -66.0 31.2 206 206 206
45.2 -67.5 32.0 206 206 206
48.8 -71.7 33.9 206 206 206
49.2 -71.2 33.7 206 206 206
49.3 -70.2 33.2 206 206 206
48.8 -68.5 32.4 206 206 206
47.9 -66.1 31.3 206 206 206
48.6 -65.1 30.8 206 206 206
47.5 -62.8 29.7 207 207 207
48.0 -62.5 29.6 207 207 207
51.5 -66.1 31.3 207 207 207
54.4 -68.8 32.6 207 207 207
52.9 -66.0 31.2 207 207 207
53.7 -66.1 31.3 207 207 207
27.5 -32.5 15.4 206 206 206
45.9 -69.0 33.0 209 209 209
45.2 -66.8 32.0 209 209 209
48.9 -71.1 34.0 208 208 208
49.2 -70.4 33.7 205 205 205
49.2 -69.3 33.1 208 208 208
49.0 -68.0 32.5 208 208 208
48.7 -66.5 31.8 208 208 208
50.0 -67.3 32.2 206 206 206
47.4 -61.9 29.6 206 206 206
47.6 -61.3 29.3 206 206 206
51.3 -65.0 31.1 206 206 206
54.5 -68.2 32.6 207 207 207
53.8 -66.4 31.7 207 207 207
54.2 -66.0 31.6 210 210 210
27.3 -31.6 15.1 205 205 205
48.2 -71.6 34.6 208 208 208
48.8 -71.4 34.5 208 208 208
50.6 -72.7 35.2 208 208 208
50.0 -70.7 34.2 208 208 208
50.1 -69.7 33.7 208 208 208
50.2 -68.9 33.3 208 208 208
51.5 -69.6 33.7 208 208 208
50.8 -67.5 32.7 208 208 208
47.0 -59.8 28.9 206 206 206
47.2 -59.3 28.7 206 206 206
56.6 -70.1 33.9 206 206 206
56.5 -69.0 33.4 206 206 206
54.7 -65.8 31.8 206 206 206
27.4 -31.3 15.2 207 207 207
49.7 -73.0 35.7 207 207 207
49.7 -71.9 35.2 207 207 207
51.2 -72.8 35.6 207 207 207
50.4 -70.6 34.5 207 207 207
50.5 -69.5 34.0 207 207 207
51.0 -69.2 33.8 207 207 207
52.5 -70.1 34.3 207 207 207
51.6 -67.8 33.2 207 207 207
46.9 -60.0 29.3 205 205 205
46.7 -58.8 28.7 208 208 208
45.6 -56.6 27.7 205 205 205
59.7 -73.1 35.8 205 205 205
58.2 -70.2 34.3 206 206 206
56.7 -67.5 33.0 206 206 206
27.7 -31.3 15.3 209 209 209
25.6 -26.8 13.1 205 205 205
26.0 -26.9 13.2 205 205 205
9.1 -20.4 10.1 205 205 205
9.8 -20.4 10.1 205 205 205
10.5 -20.4 10.1 205 205 205
10.8 -20.4 10.1 207 207 207
10.9 -20.3 10.0 204 204 204
11.1 -20.2 10.0 207 207 207
13.3 -23.6 11.7 207 207 207
49.5 -66.4 32.8 207 207 207
50.5 -65.7 32.5 207 207 207
47.6 -61.0 30.2 207 207 207
46.2 -58.3 28.8 207 207 207
46.1 -57.3 28.4 207 207 207
45.6 -56.0 27.7 208 208 208
45.9 -55.6 27.5 208 208 208
25.8 -26.7 13.2 205 205 205
26.1 -26.7 13.2 205 205 205
9.5 -23.3 11.7 207 207 207
9.6 -23.1 11.5 204 204 204
9.9 -23.2 11.6 204 204 204
10.2 -23.2 11.6 207 207 207
10.5 -23.2 11.6 204 204 204
10.8 -23.3 11.7 204 204 204
11.1 -23.2 11.6 204 204 204
11.3 -23.2 11.6 207 207 207
11.6 -23.3 11.7 204 204 204
11.8 -23.2 11.6 204 204 204
12.2 -23.3 11.7 207 207 207
13.0 -23.4 11.7 207 207 207
13.2 -23.3 11.7 207 207 207
13.5 -23.2 11.6 207 207 207
13.8 -23.3 11.7 207 207 207
14.0 -23.3 11.6 207 207 207
45.2 -56.4 28.2 207 207 207
45.6 -56.1 28.1 207 207 207
45.4 -55.1 27.6 207 207 207
45.3 -54.1 27.1 207 207 207
47.5 -53.8 26.9 205 205 205
25.9 -26.2 13.1 204 204 204
25.7 -25.7 12.9 204 204 204
38.9 -20.8 10.4 122 122 122
38.8 -20.6 10.3 119 119 119
10.3 -25.0 12.7 207 207 207
9.6 -22.7 11.5 206 206 206
11.1 -25.0 12.7 204 204 204
9.9 -20.1 10.2 204 204 204
11.5 -22.8 11.5 204 204 204
11.3 -20.1 10.2 206 206 206
13.2 -22.9 11.6 206 206 206
13.4 -22.8 11.5 206 206 206
48.6 -63.6 32.2 206 206 206
48.8 -63.0 31.9 206 206 206
45.3 -55.9 28.3 206 206 206
45.2 -55.0 27.9 206 206 206
45.2 -54.2 27.5 206 206 206
45.1 -53.3 27.0 207 207 207
45.5 -53.1 26.9 207 207 207
47.5 -53.9 27.3 207 207 207
46.9 -52.5 26.6 207 207 207
25.6 -25.3 12.8 204 204 204
25.7 -25.1 12.7 204 204 204
39.2 -20.7 10.5 124 124 124
38.9 -20.4 10.3 119 119 119
6.8 -19.9 10.2 206 206 206
7.0 -19.8 10.1 206 206 206
7.2 -19.7 10.1 206 206 206
7.7 -19.7 10.1 206 206 206
9.1 -19.8 10.1 206 206 206
9.4 -19.7 10.1 206 206 206
9.7 -19.9 10.2 206 206 206
9.9 -19.8 10.1 206 206 206
10.0 -19.6 10.0 206 206 206
10.2 -19.6 10.0 206 206 206
10.6 -19.7 10.1 206 206 206
10.8 -19.7 10.1 206 206 206
11.0 -19.7 10.1 206 206 206
11.2 -19.7 10.1 206 206 206
11.5 -19.7 10.1 206 206 206
11.7 -19.7 10.1 206 206 206
11.9 -19.7 10.1 206 206 206
12.2 -19.7 10.1 206 206 206
12.5 -19.8 10.2 206 206 206
12.7 -19.7 10.1 205 205 205
47.6 -58.9 30.2 205 205 205
46.7 -57.0 29.2 206 206 206
46.1 -55.3 28.4 206 206 206
45.8 -54.2 27.8 206 206 206
46.0 -53.7 27.5 206 206 206
47.0 -54.1 27.7 206 206 206
50.5 -57.4 29.4 206 206 206
50.5 -56.6 29.0 206 206 206
47.7 -52.8 27.1 207 207 207
48.2 -52.7 27.0 204 204 204
25.7 -25.5 13.0 205 205 205
25.8 -25.2 12.9 205 205 205
39.9 -21.0 10.7 128 131 130
38.9 -20.2 10.3 119 119 119
7.0 -19.5 10.1 206 206 206
7.2 -19.4 10.0 206 206 206
9.1 -19.5 10.1 205 205 205
9.8 -19.5 10.1 205 205 205
10.5 -19.4 10.1 205 205 205
10.7 -19.4 10.1 205 205 205
10.9 -19.3 10.0 205 205 205
11.9 -19.3 10.0 205 205 205
12.1 -19.3 10.0 205 205 205
12.4 -19.4 10.1 205 205 205
12.6 -19.4 10.1 205 205 205
12.8 -19.4 10.0 205 205 205
47.9 -61.2 31.7 205 205 205
47.0 -59.2 30.7 205 205 205
49.8 -61.8 32.1 205 205 205
48.1 -58.7 30.5 205 205 205
47.1 -56.7 29.4 205 205 205
46.8 -55.6 28.8 205 205 205
47.2 -55.3 28.7 205 205 205
48.2 -55.6 28.8 205 205 205
48.9 -55.7 28.9 206 206 206
50.6 -56.8 29.5 206 206 206
51.0 -56.5 29.3 206 206 206
50.8 -55.5 28.8 206 206 206
52.2 -56.3 29.2 206 206 206
40.0 -20.7 10.8 128 131 130
39.7 -20.5 10.6 126 126 126
9.9 -19.3 10.1 205 205 205
44.5 -60.9 32.0 207 207 207
45.0 -60.6 31.8 207 207 207
48.5 -62.2 32.7 206 206 206
48.2 -60.9 32.0 206 206 206
48.0 -59.8 31.4 206 206 206
50.3 -61.6 32.3 204 204 204
49.2 -59.4 31.2 204 204 204
47.5 -56.6 29.7 205 205 205
47.6 -55.9 29.3 207 207 207
47.7 -55.2 29.0 205 205 205
49.3 -56.2 29.5 205 205 205
50.1 -56.3 29.6 205 205 205
51.9 -57.6 30.2 205 205 205
51.4 -56.3 29.6 205 205 205
9.2 -19.2 10.2 204 204 204
45.4 -60.4 32.1 206 206 206
49.8 -65.2 34.6 206 206 206
49.3 -63.4 33.7 206 206 206
49.2 -62.3 33.1 206 206 206
49.0 -61.2 32.5 206 206 206
48.9 -60.1 32.0 206 206 206
51.9 -62.8 33.4 206 206 206
49.6 -59.1 31.4 209 209 209
48.8 -55.8 29.6 209 209 209
50.1 -56.4 30.0 207 207 207
50.8 -56.4 30.0 204 204 204
53.1 -58.2 30.9 205 205 205
51.8 -56.0 29.8 205 205 205
28.4 -25.9 13.7 170 171 170
7.2 -18.6 10.0 204 204 204
8.1 -18.6 10.0 204 204 204
9.1 -18.7 10.1 204 204 204
9.8 -18.7 10.0 204 204 204
10.4 -18.6 10.0 204 204 204
10.7 -18.6 10.0 200 200 200
11.6 -18.6 10.0 206 206 206
11.8 -18.6 10.0 206 206 206
12.1 -18.6 10.0 206 206 206
12.3 -18.6 10.0 206 206 206
50.1 -64.7 34.8 206 206 206
49.5 -63.0 33.9 206 206 206
49.5 -62.0 33.4 206 206 206
49.1 -60.5 32.6 206 206 206
52.6 -63.8 34.3 206 206 206
52.5 -62.8 33.8 206 206 206
50.7 -59.7 32.1 206 206 206
56.3 -64.4 34.6 206 206 206
50.3 -56.0 30.1 206 206 206
50.8 -55.7 30.0 206 206 206
54.1 -58.6 31.5 204 204 204
52.8 -56.4 30.4 204 204 204
27.4 -24.9 13.4 206 206 206
27.9 -25.1 13.5 166 166 166
248.2 -142.9 76.9 177 180 179
231.2 -132.1 71.1 177 180 179
234.6 -133.1 71.7 176 179 178
9.2 -20.3 11.1 203 203 203
9.3 -19.8 10.8 203 203 203
50.8 -64.8 35.3 205 205 205
50.2 -63.0 34.3 205 205 205
49.9 -61.7 33.6 205 205 205
49.3 -60.1 32.7 205 205 205
53.5 -64.2 35.0 205 205 205
53.7 -63.3 34.5 205 205 205
50.4 -58.6 32.0 205 205 205
57.0 -64.4 35.1 206 206 206
57.5 -64.0 34.9 206 206 206
54.9 -58.6 32.0 209 209 209
27.5 -24.7 13.4 202 202 202
27.8 -24.7 13.5 169 169 169
28.3 -24.8 13.5 182 182 182
252.3 -143.4 78.2 176 179 178
235.6 -133.0 72.5 177 180 179
241.9 -135.6 73.9 176 179 178
9.2 -19.4 10.7 205 205 205
9.3 -18.6 10.3 203 203 203
10.1 -18.8 10.4 203 203 203
10.8 -19.1 10.6 205 205 205
11.0 -18.7 10.3 205 205 205
11.2 -18.7 10.3 205 205 205
11.4 -18.6 10.3 205 205 205
12.0 -18.5 10.2 205 205 205
12.7 -18.8 10.4 208 208 208
12.9 -18.7 10.3 205 205 205
13.8 -18.6 10.3 205 205 205
50.9 -64.2 35.4 205 205 205
49.9 -61.9 34.1 205 205 205
49.9 -60.9 33.6 205 205 205
49.5 -59.5 32.8 205 205 205
53.5 -63.3 35.0 207 207 207
53.4 -62.2 34.3 207 207 207
50.8 -58.4 32.2 208 208 208
60.4 -68.4 37.8 205 205 205
58.2 -64.9 35.8 205 205 205
58.8 -64.7 35.7 205 205 205
59.1 -64.1 35.4 205 205 205
55.0 -58.0 32.0 206 206 206
27.9 -24.4 13.5 167 167 167
28.2 -24.5 13.5 181 181 181
275.0 -154.4 85.2 176 179 178
800.7 -433.8 239.4 177 180 179
9.1 -19.0 10.7 205 205 205
9.2 -18.7 10.5 205 205 205
9.2 -18.3 10.2 205 205 205
9.5 -18.3 10.2 205 205 205
9.9 -18.7 10.4 202 202 202
9.9 -18.2 10.2 202 202 202
10.1 -18.2 10.2 202 202 202
10.7 -18.3 10.3 205 205 205
10.9 -18.3 10.2 205 205 205
11.1 -18.2 10.2 205 205 205
11.4 -18.2 10.2 205 205 205
11.6 -18.3 10.2 205 205 205
11.8 -18.2 10.2 205 205 205
12.0 -18.1 10.1 205 205 205
12.3 -18.2 10.2 205 205 205
12.6 -18.3 10.2 207 207 207
12.8 -18.3 10.2 205 205 205
13.0 -18.2 10.2 204 204 204
13.3 -18.3 10.2 204 204 204
13.7 -18.2 10.2 204 204 204
13.9 -18.2 10.2 207 207 207
50.9 -63.4 35.4 204 204 204
49.5 -60.6 33.9 204 204 204
49.3 -59.4 33.2 204 204 204
49.0 -58.1 32.5 204 204 204
48.1 -56.2 31.4 207 207 207
52.6 -60.5 33.8 207 207 207
49.2 -55.8 31.2 207 207 207
47.3 -52.9 29.6 207 207 207
59.8 -65.8 36.8 205 205 205
60.2 -65.3 36.5 205 205 205
53.1 -55.3 30.9 205 205 205
53.1 -54.6 30.5 205 205 205
28.1 -24.0 13.4 180 180 180
771.4 -412.6 230.7 177 180 179
9.1 -18.3 10.4 204 204 204
9.2 -18.0 10.2 204 204 204
9.8 -18.2 10.3 204 204 204
9.9 -17.9 10.2 204 204 204
10.1 -17.8 10.1 204 204 204
10.6 -18.0 10.2 204 204 204
10.8 -18.0 10.2 204 204 204
11.1 -17.9 10.2 204 204 204
11.3 -17.9 10.2 204 204 204
11.5 -17.9 10.2 204 204 204
11.7 -17.9 10.1 204 204 204
11.9 -17.8 10.1 204 204 204
12.2 -17.8 10.1 204 204 204
12.5 -18.0 10.2 204 204 204
12.7 -18.0 10.2 207 207 207
13.6 -17.9 10.1 207 207 207
51.2 -62.9 35.6 207 207 207
50.5 -61.0 34.6 204 204 204
49.1 -58.4 33.1 204 204 204
49.3 -57.7 32.7 204 204 204
52.5 -59.6 33.8 207 207 207
49.2 -55.0 31.2 207 207 207
46.9 -51.7 29.3 207 207 207
64.5 -70.2 39.7 207 207 207
62.7 -67.2 38.1 207 207 207
52.2 -53.7 30.4 205 205 205
51.8 -52.5 29.7 205 205 205
28.1 -23.8 13.5 180 180 180
718.8 -379.5 215.0 177 180 179
11.9 -17.6 10.1 207 207 207
12.1 -17.5 10.0 207 207 207
12.8 -17.4 10.0 204 204 204
51.3 -62.2 35.7 206 206 206
49.7 -59.3 34.0 206 206 206
49.5 -58.1 33.4 206 206 206
48.8 -56.4 32.4 206 206 206
52.1 -59.3 34.0 206 206 206
53.1 -59.5 34.1 206 206 206
49.5 -54.6 31.4 206 206 206
47.4 -51.6 29.6 207 207 207
65.1 -69.8 40.1 207 207 207
61.8 -64.5 37.0 207 207 207
9.1 -17.4 10.1 204 204 204
9.8 -17.3 10.1 204 204 204
10.5 -17.2 10.0 204 204 204
10.7 -17.3 10.0 203 203 203
11.6 -17.2 10.0 206 206 206
11.9 -17.3 10.0 206 206 206
12.1 -17.2 10.0 206 206 206
12.3 -17.2 10.0 206 206 206
13.5 -17.3 10.0 206 206 206
14.0 -17.3 10.1 206 206 206
51.5 -61.6 35.8 206 206 206
49.9 -58.7 34.1 206 206 206
49.7 -57.5 33.5 203 203 203
49.9 -54.4 31.6 208 211 210
63.5 -68.2 39.7 208 211 210
65.4 -69.2 40.2 206 206 206
51.4 -60.6 35.8 206 206 206
50.1 -58.1 34.3 206 206 206
49.3 -56.3 33.2 206 206 206
49.4 -55.6 32.8 206 206 206
49.7 -53.4 31.5 208 211 210
66.4 -69.3 40.9 208 211 210
64.3 -66.1 39.0 208 211 210
79.0 -80.2 47.3 208 211 210
45.6 -21.1 12.4 158 158 158
46.0 -21.1 12.4 149 151 151
49.2 -52.2 31.2 207 210 209
66.4 -68.3 40.9 207 210 209
92.2 -93.6 56.0 208 211 210
46.1 -21.0 12.6 160 160 160
46.4 -21.0 12.6 150 152 152
49.4 -51.6 31.3 207 210 209
95.0 -95.1 57.7 207 210 209
92.4 -91.2 55.3 207 210 209
46.6 -20.9 12.7 161 161 161
46.9 -20.9 12.7 151 153 153
47.1 -20.9 12.7 145 145 144
47.2 -20.8 12.6 137 137 137
47.6 -20.9 12.7 129 129 129
99.2 -97.9 60.2 205 205 205
46.6 -20.7 12.7 162 162 162
46.8 -20.6 12.7 151 151 151
47.1 -20.6 12.7 145 145 144
46.8 -20.4 12.5 136 138 137
47.4 -20.5 12.6 131 131 131
102.5 -99.7 62.2 206 209 208
46.8 -20.3 12.7 153 153 153
47.1 -20.2 12.6 138 140 139
47.4 -20.2 12.6 133 133 133
135.2 -126.1 79.8 208 211 210
44.3 -32.8 20.7 191 191 191
43.3 -31.7 20.1 191 191 191
60.3 -26.1 16.5 168 170 169
61.0 -26.3 16.6 164 164 164
46.9 -20.1 12.7 154 154 154
47.5 -20.0 12.7 139 141 140
149.8 -141.5 90.9 208 211 210
151.9 -141.5 90.9 208 211 210
149.7 -137.5 88.4 208 211 210
44.5 -32.8 21.1 185 185 185
44.3 -32.3 20.7 191 191 191
44.0 -31.7 20.4 191 191 191
60.0 -25.9 16.7 178 178 178
60.3 -25.9 16.6 176 176 176
60.6 -25.8 16.6 169 171 170
61.3 -26.0 16.7 163 163 163
62.1 -26.2 16.8 156 156 156
194.2 -175.7 114.6 208 211 210
44.6 -32.4 21.1 186 186 186
44.5 -31.9 20.8 191 191 191
44.0 -31.2 20.4 191 191 191
44.4 -31.2 20.4 191 191 191
62.0 -26.4 17.2 179 179 179
60.4 -25.6 16.7 177 177 177
60.7 -25.5 16.6 170 172 172
61.6 -25.7 16.8 163 163 163
62.6 -26.0 17.0 157 157 157
197.5 -178.5 118.2 207 210 209
210.8 -187.9 124.4 207 210 209
206.9 -181.9 120.5 208 211 210
306.1 -262.0 173.5 208 211 210
301.8 -255.0 168.9 208 211 210
62.4 -26.1 17.3 180 180 180
61.5 -25.6 17.0 173 175 175
61.9 -25.5 16.9 160 163 162
63.3 -25.9 17.1 157 157 157
240.9 -211.4 142.2 207 210 209
228.7 -198.0 133.2 207 210 209
259.2 -221.4 148.9 207 210 209
333.6 -281.2 189.2 208 211 210
313.0 -260.3 175.2 208 211 210
360.4 -296.0 199.1 208 211 210
583.1 -439.3 295.6 210 213 212
496.8 -369.9 248.9 210 213 212
62.6 -25.9 17.4 181 181 181
62.0 -25.4 17.1 174 176 176
61.5 -25.1 16.9 170 171 170
61.9 -25.1 16.9 160 160 160
63.3 -25.5 17.1 156 156 156
64.4 -25.7 17.3 152 152 152
250.3 -216.2 147.8 207 210 209
249.9 -212.9 145.5 207 210 209
354.9 -294.4 201.2 207 210 209
352.1 -288.3 197.0 208 211 210
746.3 -553.5 378.3 210 213 212
484.1 -354.8 242.5 210 213 212
370.8 -268.7 183.7 210 213 212
61.9 -24.8 17.0 168 168 168
62.0 -24.7 16.9 162 162 162
63.1 -25.0 17.1 156 156 156
64.3 -25.3 17.3 148 150 150
14.2 -14.4 10.0 206 209 208
303.9 -261.9 181.9 206 209 208
278.6 -236.8 164.5 206 209 208
416.4 -349.2 242.5 207 210 209
350.2 -289.7 201.2 207 210 209
358.7 -292.9 203.4 207 210 209
348.4 -280.8 195.0 207 210 209
725.7 -555.8 386.0 208 211 210
529.4 -400.5 278.2 209 212 211
531.8 -383.6 266.4 210 213 212
353.7 -252.2 175.2 210 213 212
61.9 -24.3 16.9 158 158 158
62.4 -24.3 16.9 154 154 154
63.6 -24.6 17.1 149 149 149
63.8 -24.6 17.1 146 146 146
676.7 -558.3 394.1 206 209 208
577.5 -470.1 331.9 206 209 208
497.9 -399.9 282.3 207 210 209
614.5 -487.2 343.9 207 210 209
684.8 -535.9 378.3 207 210 209
651.0 -462.0 326.1 209 212 211
523.2 -367.1 259.1 210 213 212
63.0 -24.5 17.3 164 164 164
62.0 -23.9 16.9 160 160 160
62.0 -23.8 16.8 152 154 154
62.8 -23.9 16.9 150 150 150
63.1 -23.9 16.9 143 145 144
63.4 -23.9 16.8 138 138 138
546.9 -432.1 310.1 206 209 208
62.6 -23.8 17.1 163 163 163
62.4 -23.5 16.9 154 156 156
63.1 -23.7 17.0 145 147 147
63.3 -23.6 16.9 140 140 140
63.8 -23.6 17.0 133 133 133
81.4 -31.4 22.9 191 191 191
81.0 -31.0 22.7 184 184 184
63.6 -23.6 17.2 152 152 152
64.3 -23.7 17.3 141 140 139
64.6 -23.7 17.3 135 135 135
71.4 -26.0 19.0 131 134 133
14.9 -14.5 10.7 209 209 209
15.2 -14.4 10.7 209 209 209
82.7 -31.1 23.1 185 185 185
83.2 -31.1 23.1 175 175 175
65.1 -23.6 17.5 134 137 136
65.7 -23.7 17.6 132 135 134
71.7 -25.7 19.1 134 137 136
71.8 -25.6 19.0 132 135 134
15.2 -14.2 10.7 208 208 208
15.4 -14.2 10.7 208 208 208
140.5 -63.1 47.6 191 194 193
85.2 -31.3 23.7 168 168 168
72.2 -25.4 19.2 135 135 135
72.2 -25.2 19.1 133 133 133
86.7 -31.3 24.1 150 150 150
87.4 -31.4 24.1 138 140 139
88.1 -31.4 24.2 137 137 137
72.1 -25.1 19.3 134 134 134
72.6 -25.1 19.3 135 135 135
72.2 -24.8 19.1 134 134 134
87.6 -31.1 24.3 131 133 132
88.9 -31.3 24.5 131 133 132
89.6 -31.4 24.6 131 133 132
72.5 -24.8 19.4 128 130 129
72.9 -24.8 19.4 129 129 129
72.5 -24.5 19.1 129 129 129
71.4 -23.9 18.7 129 129 129
88.8 -30.9 24.7 113 115 114
90.4 -31.3 25.0 118 118 118
91.6 -31.5 25.1 121 121 121
92.9 -31.8 25.3 121 121 121
73.6 -24.5 19.6 123 123 123
73.0 -24.2 19.3 125 125 125
15.3 -12.7 10.3 209 209 209
15.6 -12.7 10.3 209 209 209
15.7 -12.7 10.3 208 208 208
248.4 -180.5 146.6 211 211 211
321.4 -207.8 168.9 215 215 215
91.4 -31.0 25.2 111 111 111
93.2 -31.5 25.6 112 112 112
94.3 -31.6 25.7 113 114 113
73.2 -23.9 19.5 112 112 112
72.9 -23.7 19.3 115 117 116
72.3 -23.3 19.0 132 132 132
14.2 -12.1 10.0 210 210 210
14.7 -12.3 10.2 209 209 209
15.3 -12.4 10.3 209 209 209
15.4 -12.3 10.2 208 208 208
15.7 -12.4 10.2 208 208 208
91.5 -30.5 25.3 108 108 108
93.5 -30.9 25.6 108 110 110
94.6 -31.1 25.8 108 108 108
73.3 -23.5 19.5 105 105 105
72.9 -23.2 19.2 88 88 88
71.6 -22.7 18.8 137 139 138
15.4 -12.1 10.2 208 208 208
75.2 -23.7 20.0 72 72 72
72.6 -22.7 19.2 62 62 62
71.4 -22.2 18.7 156 156 156
15.3 -12.6 10.8 210 210 210
15.4 -11.8 10.2 208 208 208
15.6 -11.8 10.2 211 211 211
27.5 -19.3 16.7 214 214 214
52.2 -16.5 14.2 97 97 97
52.8 -16.6 14.3 91 94 93
15.4 -12.4 10.9 210 210 210
15.4 -11.6 10.2 212 213 212
17.5 -12.8 11.2 212 213 212
27.6 -19.0 16.7 214 214 214
52.9 -16.4 14.4 79 82 81
53.7 -16.5 14.5 75 75 75
54.1 -16.6 14.6 71 71 71
27.6 -18.6 16.7 217 217 217
54.0 -16.3 14.6 73 73 73
54.7 -16.4 14.7 71 71 71
15.6 -12.0 11.0 214 214 214
27.5 -18.2 16.7 217 217 217
54.0 -16.0 14.6 77 77 77
54.8 -16.1 14.7 77 77 77
15.2 -11.0 10.3 216 216 216
15.4 -10.9 10.2 216 216 216
27.7 -18.0 16.8 217 217 217
53.9 -15.6 14.6 79 81 80
54.8 -15.8 14.8 77 77 77
15.2 -10.7 10.3 216 216 216
15.4 -10.6 10.2 216 216 216
15.6 -10.6 10.2 216 216 216
27.4 -17.4 16.7 217 217 217
53.9 -15.3 14.6 79 82 81
13.8 -10.3 10.1 218 218 218
14.1 -10.3 10.1 217 217 217
14.3 -10.3 10.1 217 217 217
14.6 -10.3 10.1 217 217 217
15.3 -10.5 10.3 216 216 216
15.4 -10.4 10.2 216 216 216
15.5 -10.4 10.1 217 220 219
27.4 -17.0 16.7 217 217 217
573.5 -311.6 305.1 219 219 219
314.6 -152.1 148.9 194 194 194
280.5 -134.2 131.4 200 200 200
53.9 -14.9 14.6 79 82 81
13.8 -10.1 10.1 218 218 218
14.1 -10.1 10.1 218 218 218
14.3 -10.1 10.1 217 217 217
14.5 -10.1 10.1 217 217 217
15.1 -10.2 10.2 216 216 216
15.3 -10.1 10.2 216 216 216
15.5 -10.1 10.1 217 220 219
27.6 -16.7 16.7 217 217 217
356.7 -168.6 168.9 194 194 194
276.7 -129.3 129.6 200 200 200
232.0 -107.3 107.5 200 200 200
15.2 -10.0 10.2 217 220 219
15.3 -9.9 10.2 217 220 219
15.6 -9.9 10.2 217 220 219
27.6 -16.3 16.7 218 221 220
480.5 -249.2 255.6 219 219 219
556.6 -259.8 266.4 182 182 182
366.6 -169.2 173.5 194 194 194
282.5 -129.0 132.3 198 198 198
244.5 -110.4 113.3 200 200 200
15.6 -9.7 10.2 217 220 219
27.7 -16.0 16.8 218 221 220
530.7 -268.7 282.3 219 219 219
347.4 -156.5 164.5 193 193 193
284.5 -126.8 133.2 198 198 198
232.0 -102.3 107.5 200 200 200
14.3 -9.4 10.1 218 218 218
14.5 -9.4 10.1 218 221 220
15.3 -9.5 10.3 218 221 220
15.4 -9.5 10.2 217 220 219
15.6 -9.5 10.2 217 220 219
290.3 -141.6 152.6 219 219 219
327.5 -144.0 155.1 189 189 189
288.5 -125.5 135.1 197 197 197
226.9 -97.6 105.1 200 200 200
14.0 -9.1 10.1 219 222 221
14.3 -9.1 10.1 218 221 220
14.5 -9.1 10.1 218 221 220
15.1 -9.2 10.2 218 221 220
15.3 -9.2 10.2 217 220 219
15.5 -9.2 10.1 217 220 219
15.6 -9.1 10.0 217 220 219
15.9 -9.1 10.1 217 220 219
327.5 -140.4 155.1 174 176 176
274.8 -116.5 128.7 197 197 197
224.4 -94.1 103.9 200 200 200
14.3 -8.9 10.1 218 221 220
15.1 -9.0 10.2 218 221 220
15.3 -9.0 10.2 217 220 219
15.5 -9.0 10.2 217 220 219
15.9 -8.9 10.1 218 221 220
461.8 -216.7 245.7 220 223 222
272.9 -112.7 127.8 197 197 197
229.4 -93.7 106.3 199 199 199
177.1 -71.6 81.2 200 200 200
184.4 -72.2 81.9 202 202 202
180.8 -70.1 79.5 202 202 202
15.1 -9.2 10.7 219 222 221
15.3 -9.2 10.7 218 221 220
15.9 -9.0 10.5 218 221 220
16.2 -9.1 10.6 217 220 219
16.6 -9.2 10.7 217 220 219
16.9 -9.2 10.7 220 223 222
179.5 -70.6 82.2 200 200 200
186.5 -71.9 83.7 200 200 200
184.4 -70.3 81.9 200 200 200
180.1 -68.0 79.1 202 202 202
192.4 -71.9 83.7 202 202 202
195.2 -72.2 84.1 202 202 202
15.1 -8.9 10.7 219 222 221
15.5 -8.7 10.5 218 221 220
15.8 -8.8 10.5 218 221 220
16.1 -8.8 10.5 217 220 219
16.5 -8.9 10.6 218 221 220
16.8 -8.9 10.7 217 217 217
161.2 -61.7 73.9 199 199 199
184.6 -69.9 83.7 200 200 200
177.5 -65.9 78.8 200 200 200
172.1 -63.2 75.7 200 200 200
186.9 -67.3 80.5 202 202 202
15.3 -8.5 10.4 218 221 220
15.4 -8.4 10.4 218 221 220
15.8 -8.5 10.4 218 221 220
16.0 -8.5 10.4 217 220 219
16.1 -8.4 10.4 218 221 220
16.5 -8.5 10.5 218 221 220
647.8 -251.9 310.1 173 173 173
160.6 -59.8 73.6 197 197 197
176.8 -65.1 80.2 199 199 199
176.0 -63.5 78.2 200 200 200
190.8 -64.8 79.8 205 205 205
14.3 -8.0 10.1 222 224 224
16.0 -8.1 10.3 218 221 220
16.5 -8.2 10.5 220 223 222
272.9 -100.8 127.8 183 183 183
163.8 -59.2 75.1 197 197 197
175.6 -62.2 78.8 200 200 200
176.7 -61.9 78.5 198 198 198
190.0 -62.7 79.5 207 207 207
186.4 -60.9 77.2 200 200 200
-423.8 -278.6 363.8 202 202 202
13.8 -7.7 10.1 219 219 219
14.3 -7.7 10.1 219 222 221
14.4 -7.7 10.0 219 222 221
15.1 -7.8 10.2 218 221 220
15.3 -7.8 10.2 218 221 220
15.6 -7.8 10.2 218 221 220
15.7 -7.7 10.1 218 221 220
16.5 -8.0 10.5 218 221 220
16.3 -7.8 10.2 218 221 220
16.4 -7.8 10.1 218 221 220
29.0 -12.9 16.9 222 224 224
217.2 -77.1 100.6 192 192 192
168.5 -59.1 77.2 197 197 197
177.5 -60.4 78.8 197 197 197
196.7 -63.0 82.2 205 205 205
182.7 -57.9 75.7 205 205 205
13.8 -7.5 10.1 219 219 219
15.1 -7.6 10.2 218 221 220
15.3 -7.5 10.2 218 221 220
16.3 -7.6 10.2 218 221 220
27.6 -12.4 16.7 218 221 220
28.9 -12.5 16.9 222 224 224
333.0 -117.0 157.6 139 139 139
280.5 -97.5 131.4 151 153 153
183.4 -62.4 84.1 194 194 194
179.7 -59.3 79.8 197 197 197
198.4 -61.6 83.0 205 205 205
179.8 -55.3 74.5 196 196 196
26.3 -12.2 16.9 218 221 220
26.6 -12.1 16.8 222 224 224
27.5 -12.3 17.2 222 224 224
27.5 -12.2 16.9 222 224 224
27.6 -12.0 16.7 222 224 224
28.0 -12.1 16.8 222 224 224
30.5 -12.9 18.0 222 224 224
29.0 -12.2 16.9 222 224 224
29.4 -12.1 16.9 219 222 221
506.6 -174.4 242.5 185 185 185
338.6 -115.3 160.3 70 72 72
278.6 -93.8 130.5 145 147 147
237.4 -79.1 110.0 185 185 185
26.3 -11.8 16.9 218 221 220
25.9 -11.4 16.4 218 221 220
27.2 -11.8 17.0 222 224 224
27.4 -11.7 16.9 222 224 224
27.5 -11.6 16.7 222 224 224
27.7 -11.5 16.6 222 224 224
29.0 -11.9 17.1 222 224 224
28.8 -11.7 16.8 219 222 221
29.0 -11.6 16.7 219 222 221
30.7 -11.8 17.0 219 222 221
513.2 -171.0 245.7 188 188 188
350.5 -115.5 165.9 112 112 112
286.5 -93.4 134.2 154 154 154
260.1 -83.9 120.5 185 185 185
26.4 -11.4 17.0 218 221 220
25.8 -11.0 16.4 218 221 220
27.4 -11.5 17.1 218 221 220
27.4 -11.4 16.9 222 224 224
27.4 -11.2 16.7 222 224 224
27.4 -11.0 16.4 223 225 225
29.3 -11.6 17.3 219 222 221
28.7 -11.3 16.7 219 222 221
28.5 -11.0 16.4 219 222 221
28.7 -11.0 16.3 219 222 221
572.7 -184.4 274.1 175 177 177
363.2 -115.7 172.0 129 132 131
292.7 -92.2 137.1 158 158 158
16.8 -7.8 12.1 217 217 217
26.8 -11.4 17.5 219 222 221
26.3 -11.0 17.0 219 222 221
27.8 -11.3 17.3 219 222 221
28.2 -11.3 17.3 223 225 225
27.5 -10.9 16.7 219 222 221
27.8 -10.8 16.6 219 222 221
29.6 -11.3 17.5 219 222 221
29.6 -11.2 17.2 219 222 221
32.1 -11.7 18.0 223 225 225
32.0 -11.5 17.7 219 222 221
32.1 -11.4 17.5 223 225 225
589.8 -183.4 282.3 173 173 173
373.4 -114.8 176.8 126 125 124
288.5 -87.8 135.1 160 160 160
16.8 -7.6 12.1 218 218 218
26.3 -10.6 17.0 219 222 221
27.8 -10.9 17.4 219 222 221
28.2 -10.9 17.4 219 222 221
27.5 -10.5 16.7 219 222 221
27.8 -10.4 16.6 220 223 222
30.3 -11.2 17.9 220 223 222
29.5 -10.8 17.2 220 223 222
32.5 -11.4 18.2 220 223 222
32.7 -11.3 18.1 219 219 219
33.3 -11.4 18.2 220 223 222
33.5 -11.3 18.0 220 223 222
564.5 -169.2 270.2 173 173 173
380.5 -112.8 180.2 119 119 119
280.5 -82.3 131.4 162 162 162
233.3 -67.7 108.1 174 174 174
16.7 -7.3 12.0 218 218 218
26.3 -10.2 16.9 220 223 222
27.8 -10.5 17.4 220 223 222
27.4 -10.0 16.7 220 223 222
27.5 -9.9 16.5 220 223 222
30.3 -10.8 17.9 220 223 222
28.7 -10.1 16.7 220 223 222
28.7 -9.9 16.5 220 223 222
32.7 -11.0 18.3 220 220 220
32.9 -11.0 18.2 220 220 220
33.7 -11.1 18.4 220 220 220
353.6 -101.0 167.4 112 114 113
280.5 -79.2 131.4 160 160 160
226.9 -63.4 105.1 175 175 175
186.0 -49.8 82.6 195 195 195
177.1 -46.9 77.8 195 195 195
174.4 -41.9 69.5 57 59 59
14.9 -6.5 11.3 206 209 208
16.8 -7.1 12.3 216 216 216
16.7 -7.0 12.0 216 216 216
26.5 -9.9 17.1 220 223 222
27.5 -9.9 17.1 220 223 222
27.5 -9.7 16.7 220 223 222
29.9 -10.2 17.6 222 224 224
33.2 -10.6 18.4 220 220 220
33.8 -10.7 18.5 220 220 220
179.0 -46.1 79.5 195 195 195
175.6 -44.8 77.2 195 195 195
176.0 -44.4 76.6 198 198 198
197.5 -47.9 82.6 205 205 205
184.9 -44.4 76.6 197 197 197
186.5 -43.5 75.1 111 111 111
183.8 -42.5 73.3 66 66 66
-179.4 -44.2 79.5 73 74 72
26.3 -9.4 16.9 222 224 224
24.6 -8.5 15.3 222 224 224
27.5 -9.3 16.7 222 224 224
30.2 -9.9 17.8 222 224 224
27.1 -8.6 15.4 221 221 221
27.2 -8.5 15.2 221 221 221
32.8 -10.1 18.1 221 221 221
33.5 -10.2 18.3 221 221 221
33.4 -10.0 18.0 221 221 221
177.5 -43.9 78.8 196 196 196
175.6 -43.0 77.2 196 196 196
190.8 -44.4 79.8 205 205 205
184.2 -42.5 76.3 200 200 200
188.0 -42.1 75.7 112 114 113
185.3 -41.1 73.9 72 74 74
186.3 -41.0 73.6 65 65 65
-232.7 -52.3 98.0 73 73 73
-219.0 -49.7 93.2 70 72 69
-222.4 -51.5 96.5 71 72 70
-207.4 -48.5 90.9 72 73 71
-207.3 -49.0 91.8 72 73 71
14.5 -7.6 14.2 63 62 61
26.3 -9.0 16.9 221 221 221
24.4 -8.1 15.2 222 224 224
27.5 -8.9 16.7 222 224 224
27.1 -8.6 16.2 222 224 224
30.3 -9.5 17.9 222 224 224
27.1 -8.2 15.3 221 221 221
27.1 -8.1 15.1 221 221 221
32.6 -9.6 18.0 221 221 221
33.4 -9.7 18.2 221 221 221
33.3 -9.6 17.9 222 222 222
178.2 -42.2 79.1 194 194 194
176.4 -41.3 77.5 194 194 194
310.5 -72.1 135.1 196 196 196
304.9 -70.1 131.4 199 199 199
195.0 -43.5 81.5 205 205 205
183.4 -40.5 76.0 197 197 197
190.2 -40.8 76.6 111 113 112
186.0 -39.6 74.2 72 74 74
187.0 -39.4 73.9 67 67 67
189.4 -39.6 74.2 66 66 66
-218.0 -47.3 92.7 70 72 69
-204.5 -45.7 89.7 71 72 70
-206.3 -46.6 91.4 69 69 69
14.4 -7.2 14.1 45 46 44
27.4 -8.7 17.1 221 221 221
27.5 -8.6 17.0 221 221 221
27.6 -8.5 16.7 221 221 221
27.0 -8.2 16.1 222 222 222
29.3 -8.7 17.1 222 222 222
28.5 -8.4 16.4 222 222 222
28.2 -8.2 16.0 220 220 220
180.5 -40.9 80.2 194 194 194
177.1 -39.7 77.8 196 196 196
299.8 -66.5 130.5 196 196 196
290.8 -63.9 125.3 199 199 199
199.3 -42.5 83.3 205 205 205
186.4 -39.4 77.2 200 200 200
185.3 -37.7 73.9 69 69 69
187.0 -37.7 73.9 72 72 72
14.3 -6.8 14.0 64 63 61
13.8 -4.9 10.1 205 205 205
16.7 -5.8 12.0 212 214 214
27.4 -8.3 17.1 222 222 222
27.5 -8.2 16.9 222 222 222
27.6 -8.1 16.7 222 222 222
26.9 -7.8 16.1 222 222 222
29.2 -8.4 17.2 222 222 222
29.3 -8.3 17.1 222 222 222
28.6 -8.0 16.4 220 220 220
28.2 -7.8 16.0 222 222 222
183.6 -39.7 81.5 192 192 192
200.1 -40.7 83.7 203 203 203
189.5 -38.2 78.5 200 200 200
189.0 -36.7 75.4 59 61 60
235.2 -43.6 89.7 62 64 64
14.4 -6.6 14.1 70 70 70
11.8 -5.3 11.4 67 67 67
15.1 -6.6 14.2 65 65 63
14.8 -6.3 13.6 66 66 64
16.6 -5.5 11.9 212 214 214
27.4 -7.9 17.1 221 221 221
27.4 -7.8 16.9 224 224 224
27.6 -7.8 16.7 224 224 224
28.9 -7.8 16.8 224 224 224
253.1 -49.5 106.9 203 203 203
216.4 -42.0 90.5 203 203 203
198.6 -38.1 82.2 206 206 206
226.0 -42.6 91.8 222 222 222
203.4 -38.0 81.9 118 118 118
238.6 -42.2 90.9 62 64 64
-1065.1 -166.6 378.3 65 65 65
-781.8 -170.0 386.0 59 59 59
-512.6 -170.0 386.0 29 30 28
-344.4 -130.2 295.6 194 194 194
-243.4 -170.0 386.0 103 103 103
-47.0 -173.5 394.1 218 218 218
17.2 -173.5 394.1 84 84 84
145.7 -132.2 300.3 224 226 226
11.9 -5.0 11.4 69 69 69
15.0 -6.2 14.1 65 65 63
16.6 -5.3 11.9 210 213 212
18.2 -5.4 12.3 219 219 219
27.3 -7.4 16.8 219 219 219
22.2 -5.8 13.3 221 221 221
22.3 -5.8 13.2 224 224 224
28.6 -7.3 16.7 222 222 222
28.1 -7.1 16.2 222 222 222
15.0 -5.9 14.0 66 66 64
14.6 -5.5 13.1 65 65 63
18.7 -5.5 13.2 213 215 215
19.0 -5.5 13.2 213 215 215
19.3 -5.5 13.2 218 218 218
19.6 -5.5 13.2 219 219 219
19.9 -5.5 13.2 219 219 219
20.2 -5.5 13.2 219 219 219
20.5 -5.5 13.2 222 222 222
21.5 -5.5 13.2 222 222 222
22.1 -5.5 13.2 222 222 222
22.3 -5.5 13.2 222 222 222
22.6 -5.5 13.2 222 222 222
15.3 -5.6 14.3 64 64 62
14.8 -5.4 13.6 65 65 63
14.6 -5.2 13.1 65 65 63
15.4 -5.5 14.7 64 64 62
14.6 -4.9 13.1 63 63 63
22.3 -5.2 14.1 220 220 220
22.8 -5.3 14.2 221 221 221
23.2 -5.3 14.3 221 221 221
23.5 -5.3 14.3 224 224 224
24.1 -5.3 14.3 225 225 225
25.4 -5.3 14.2 221 221 221
25.8 -5.3 14.3 221 221 221
-468.3 -69.9 201.2 67 69 67
-454.6 -71.4 205.6 67 67 67
-431.1 -68.5 197.0 64 65 63
-328.0 -69.9 201.2 18 22 19
-323.3 -69.9 201.2 18 22 19
-306.5 -71.4 205.6 20 23 21
-283.2 -67.1 193.0 20 23 21
-278.7 -67.1 193.0 19 23 20
-292.1 -71.4 205.6 24 24 24
14.6 -4.5 13.1 56 58 58
18.5 -4.6 13.1 213 215 215
18.9 -4.6 13.1 215 218 217
19.1 -4.6 13.1 215 218 217
19.5 -4.6 13.1 215 218 217
19.8 -4.6 13.1 219 219 219
20.1 -4.6 13.1 219 219 219
20.4 -4.6 13.1 221 221 221
20.7 -4.6 13.1 221 221 221
21.1 -4.6 13.2 221 221 221
21.4 -4.6 13.2 221 221 221
21.6 -4.6 13.1 221 221 221
21.9 -4.6 13.1 221 221 221
22.2 -4.6 13.1 225 225 225
22.5 -4.6 13.1 225 225 225
22.8 -4.5 13.1 221 221 221
23.0 -4.5 13.0 221 221 221
13.7 -3.8 11.6 64 64 64
17.5 -4.0 12.4 214 216 216
13.7 -3.5 11.6 46 47 45
16.6 -3.5 11.6 214 216 216
16.9 -3.5 11.6 216 219 218
17.2 -3.5 11.6 216 219 218
17.4 -3.5 11.6 216 219 218
17.7 -3.5 11.5 221 221 221
18.0 -3.5 11.6 221 221 221
18.3 -3.5 11.6 221 221 221
18.5 -3.5 11.6 224 224 224
18.8 -3.5 11.6 221 221 221
19.1 -3.5 11.6 224 224 224
19.3 -3.5 11.5 224 224 224
19.6 -3.5 11.5 224 224 224
19.8 -3.5 11.6 224 224 224
20.1 -3.5 11.5 224 224 224
20.4 -3.5 11.6 224 224 224
20.7 -3.5 11.6 224 224 224
20.9 -3.5 11.6 224 224 224
21.5 -3.5 11.6 221 221 221
21.8 -3.5 11.6 224 224 224
22.0 -3.5 11.6 224 224 224
22.6 -3.5 11.6 221 221 221
22.8 -3.5 11.6 224 224 224
23.1 -3.5 11.6 224 224 224
13.7 -3.2 11.6 36 37 35
17.1 -3.3 11.7 217 220 219
17.4 -3.3 11.7 217 220 219
17.6 -3.2 11.7 216 219 218
17.8 -3.2 11.6 216 219 218
18.2 -3.3 11.7 221 221 221
18.4 -3.2 11.7 221 221 221
18.8 -3.3 11.7 221 221 221
19.1 -3.3 11.7 221 221 221
19.3 -3.3 11.7 224 224 224
19.4 -3.2 11.6 224 224 224
19.8 -3.2 11.7 224 224 224
20.0 -3.2 11.6 224 224 224
20.2 -3.2 11.6 224 224 224
20.6 -3.2 11.7 224 224 224
20.8 -3.2 11.6 224 224 224
21.0 -3.2 11.6 224 224 224
21.8 -3.3 11.7 221 221 221
22.0 -3.3 11.7 221 221 221
22.2 -3.2 11.7 221 221 221
22.8 -3.2 11.7 221 221 221
23.0 -3.2 11.7 221 221 221
23.4 -3.3 11.7 221 221 221
13.7 -2.9 11.6 35 36 34
19.3 -3.0 11.7 222 222 222
20.6 -3.0 11.7 222 222 222
20.7 -2.9 11.6 222 222 222
20.5 -2.8 11.2 222 222 222
21.8 -3.0 11.7 222 222 222
22.0 -3.0 11.7 222 222 222
22.8 -3.0 11.7 222 222 222
13.6 -2.7 11.5 39 40 38
19.0 -2.6 11.4 224 224 224
19.8 -2.6 11.4 222 222 222
20.1 -2.6 11.4 222 222 222
20.4 -2.6 11.4 222 222 222
20.5 -2.6 11.3 222 222 222
20.6 -2.6 11.3 222 222 222
22.5 -2.6 11.4 222 222 222
13.5 -2.4 11.4 39 40 38
16.3 -2.4 11.4 215 215 215
16.6 -2.4 11.4 217 220 219
16.9 -2.4 11.4 219 222 221
17.2 -2.4 11.4 219 222 221
17.4 -2.4 11.4 218 221 220
17.7 -2.4 11.4 218 221 220
17.9 -2.4 11.4 218 221 220
19.0 -2.4 11.4 224 224 224
19.3 -2.4 11.4 224 224 224
19.5 -2.4 11.4 224 224 224
19.8 -2.4 11.4 224 224 224
20.1 -2.4 11.4 224 224 224
20.3 -2.4 11.4 224 224 224
20.5 -2.3 11.3 224 224 224
20.6 -2.3 11.2 224 224 224
21.5 -2.4 11.4 224 224 224
21.6 -2.4 11.4 224 224 224
22.4 -2.4 11.4 218 221 220
22.7 -2.4 11.4 218 221 220
-154.8 -17.3 93.6 28 28 28
13.6 -2.2 11.7 39 40 38
13.5 -2.1 11.4 39 40 38
13.5 -1.9 10.0 204 204 204
14.6 -1.9 10.0 218 221 220
17.4 -2.1 11.4 219 222 221
16.0 -1.9 10.0 219 222 221
19.1 -2.1 11.4 225 225 225
19.4 -2.1 11.4 225 225 225
19.7 -2.1 11.5 225 225 225
19.9 -2.1 11.4 225 225 225
20.3 -2.1 11.5 225 225 225
20.5 -2.1 11.5 225 225 225
20.5 -2.1 11.3 227 227 227
20.5 -2.1 11.2 225 225 225
21.6 -2.1 11.5 219 222 221
21.8 -2.1 11.4 219 222 221
19.5 -1.8 10.0 219 222 221
886.5 -64.7 350.3 66 68 67
13.5 -1.6 10.1 202 202 202
13.7 -1.6 10.0 206 206 206
14.0 -1.6 10.0 209 209 209
14.7 -1.6 10.1 217 217 217
15.3 -1.6 10.2 218 221 220
15.4 -1.6 10.1 220 223 222
16.1 -1.6 10.1 220 223 222
16.8 -1.6 10.2 220 223 222
16.8 -1.6 10.1 226 226 226
17.1 -1.6 10.1 225 225 225
17.3 -1.6 10.1 225 225 225
17.9 -1.7 10.3 225 225 225
18.1 -1.7 10.3 225 225 225
18.4 -1.6 10.2 225 225 225
19.9 -1.7 10.7 220 223 222
19.7 -1.6 10.2 219 222 221
19.6 -1.6 10.0 219 222 221
20.5 -1.7 10.3 219 222 221
725.3 -46.3 286.6 63 65 65
525.1 -33.2 205.6 64 66 66
346.4 -21.5 133.2 78 78 78
13.5 -1.4 10.2 192 192 192
13.7 -1.4 10.0 207 207 207
14.8 -1.4 10.1 215 215 215
15.3 -1.4 10.2 217 217 217
16.2 -1.4 10.1 220 223 222
16.7 -1.4 10.2 226 226 226
17.0 -1.4 10.2 220 223 222
17.5 -1.4 10.2 220 223 222
18.1 -1.4 10.3 220 223 222
18.2 -1.4 10.2 220 223 222
19.6 -1.4 10.0 225 225 225
629.9 -34.4 248.9 64 66 66
503.2 -27.2 197.0 65 67 66
353.9 -18.8 136.1 68 71 70
-590.3 -43.5 378.3 19 19 19
498.0 -22.4 195.0 65 67 66
423.9 -18.9 164.5 73 73 73
369.8 -16.3 142.2 67 69 68
-624.0 -36.1 394.1 19 23 20
-546.6 -32.1 350.3 19 23 20
483.1 -17.3 189.2 66 68 67
435.3 -15.5 168.9 69 72 71
390.4 -13.8 150.1 64 64 64
18.8 -0.7 10.8 223 225 225
21.9 -0.8 11.8 223 225 225
22.0 -0.8 11.7 223 225 225
598.4 -16.2 236.5 68 71 70
513.9 -13.8 201.2 68 71 70
435.3 -11.6 168.9 74 74 74
367.1 -9.7 141.2 68 70 69
725.1 -15.6 227.9 75 75 73
739.3 -15.8 230.7 74 74 72
763.2 -16.2 236.5 44 44 44
18.4 -0.5 10.9 224 226 226
18.6 -0.5 10.9 224 226 226
18.9 -0.5 10.8 224 226 226
19.1 -0.5 10.8 222 224 224
19.4 -0.5 10.9 222 224 224
20.1 -0.5 10.8 223 225 225
20.3 -0.5 10.8 223 225 225
25.9 -0.6 12.6 219 219 219
621.7 -11.1 245.7 73 73 73
536.8 -9.5 210.2 67 69 68
348.9 -6.1 134.2 66 66 66
761.8 -10.8 239.4 77 77 77
757.8 -10.7 236.5 71 71 71
793.0 -11.1 245.7 44 44 44
768.7 -10.7 236.5 177 180 179
774.2 -10.7 236.5 131 134 133
13.4 -0.2 11.2 53 53 53
18.6 -0.2 11.0 223 225 225
18.8 -0.2 10.9 223 225 225
18.9 -0.2 10.9 224 226 226
19.3 -0.2 11.0 224 226 226
19.8 -0.2 11.1 224 226 226
20.1 -0.2 11.1 224 226 226
20.3 -0.2 11.1 222 224 224
20.2 -0.2 10.9 222 224 224
25.5 -0.3 12.4 220 220 220
16.7 0.2 10.1 211 211 211
17.0 0.2 10.0 221 221 221
17.2 0.2 10.0 222 222 222
17.7 0.2 10.0 224 226 226
17.9 0.2 10.0 224 226 226
503.2 4.8 197.0 57 57 55
451.4 4.3 175.2 47 46 45
369.8 3.5 142.2 49 49 49
16.7 0.5 10.2 166 169 168
17.0 0.5 10.2 211 211 211
17.1 0.5 10.1 217 217 217
17.3 0.5 10.1 219 219 219
18.0 0.5 10.3 222 222 222
18.0 0.5 10.1 224 224 224
18.1 0.5 10.0 224 224 224
508.5 9.5 199.1 42 42 42
431.4 8.0 167.4 48 47 46
364.4 6.7 140.1 51 51 51
73.7 0.9 19.5 90 90 90
74.4 0.9 19.4 129 129 129
16.7 0.7 10.1 212 213 212
18.0 0.7 10.1 222 222 222
18.1 0.7 10.0 224 224 224
73.1 1.4 19.4 90 90 90
73.7 1.4 19.5 90 90 90
75.1 1.4 19.6 136 136 136
75.1 1.9 19.8 88 88 88
78.9 2.0 20.7 172 172 172
83.1 3.1 22.4 86 85 83
83.4 3.1 22.3 87 87 85
83.0 3.1 22.1 91 91 91
82.7 3.1 21.8 93 93 93
84.3 3.1 22.1 130 130 130
61.8 2.7 16.4 92 92 92
61.8 3.1 16.3 100 102 102
-171.1 20.6 98.0 172 174 174
-157.9 20.1 95.5 203 203 203
-128.2 20.3 96.5 179 179 179
-162.9 23.0 98.5 204 207 206
-108.8 31.3 53.7 115 115 115
-90.0 30.4 52.3 98 100 100
-128.8 56.5 97.0 74 74 74
-150.4 32.4 53.4 46 46 46
-150.0 32.5 53.7 42 42 42
-148.8 32.5 53.7 39 39 39
-147.6 32.5 53.7 39 39 39
-146.3 32.5 53.7 34 34 34
-145.1 32.5 53.7 134 137 136
-143.8 32.5 53.7 146 146 146
-142.6 32.5 53.7 136 138 137
-141.3 32.5 53.7 129 129 129
-127.6 32.5 53.7 122 122 122
-126.0 32.5 53.6 124 124 124
-126.1 32.8 54.2 126 126 126
-121.9 32.4 53.4 107 107 107
-118.0 31.6 52.3 92 91 90
-110.7 32.7 54.0 120 122 121
-109.1 32.6 53.9 131 133 132
-107.0 32.4 53.4 137 137 137
-93.3 32.4 53.4 99 101 101
-91.6 32.2 53.1 99 101 101
-88.6 31.6 52.1 107 109 109
-163.7 60.0 99.0 125 125 125
-129.5 59.0 97.5 67 68 66
-68.9 32.0 52.8 71 71 71
-17.8 32.8 54.2 204 204 204
759.1 586.7 394.1 182 182 182
-25.6 16.1 10.0 146 146 146
-25.6 16.3 10.0 144 144 144
