ply
format ascii 1.0
element vertex 2809
property float x
property float y
property float z
property uchar red
property uchar green
property uchar blue
end_header
101.1 -168.3 67.1 155 158 157
100.9 -165.4 65.9 160 160 160
103.2 -166.5 66.4 155 158 157
107.3 -170.7 68.0 153 155 155
108.5 -170.1 67.8 153 155 155
108.9 -168.3 67.1 154 156 156
135.5 -104.5 41.7 107 107 107
133.2 -102.1 40.7 105 105 105
133.6 -101.6 40.5 105 105 105
78.8 -183.7 73.9 164 164 164
89.1 -183.7 73.9 161 161 161
90.8 -183.7 73.9 161 161 161
92.2 -183.0 73.6 161 161 161
371.2 -723.4 291.0 161 161 161
354.4 -602.8 242.5 160 160 160
108.5 -178.8 71.9 160 160 160
112.7 -180.2 72.5 155 158 157
114.8 -180.9 72.8 156 159 158
117.4 -182.3 73.3 156 159 158
115.1 -176.1 70.8 157 160 159
136.1 -104.0 41.9 107 107 107
129.0 -98.0 39.4 105 105 105
77.0 -55.7 22.4 98 100 100
75.5 -54.2 21.8 98 100 100
46.3 -182.7 74.2 162 162 162
47.9 -182.0 73.9 162 162 162
49.6 -182.0 73.9 165 165 165
51.3 -182.0 73.9 165 165 165
53.0 -182.0 73.9 165 165 165
54.7 -182.0 73.9 165 165 165
56.5 -182.0 73.9 166 166 166
58.2 -182.0 73.9 166 166 166
59.7 -181.3 73.6 166 166 166
61.6 -182.0 73.9 166 166 166
63.1 -181.3 73.6 166 166 166
64.8 -181.3 73.6 166 166 166
66.8 -182.0 73.9 166 166 166
68.5 -182.0 73.9 166 166 166
69.9 -181.3 73.6 163 163 163
71.9 -182.0 73.9 163 163 163
73.6 -182.0 73.9 163 163 163
75.1 -181.3 73.6 163 163 163
77.1 -182.0 73.9 163 163 163
78.5 -181.3 73.6 164 164 164
80.5 -182.0 73.9 164 164 164
82.2 -182.0 73.9 164 164 164
83.6 -181.3 73.6 164 164 164
85.7 -182.0 73.9 164 164 164
87.4 -182.0 73.9 164 164 164
89.1 -182.0 73.9 161 161 161
90.5 -181.3 73.6 161 161 161
92.2 -181.3 73.6 159 159 159
93.9 -181.3 73.6 159 159 159
96.0 -182.0 73.9 162 162 162
98.8 -184.1 74.8 159 159 159
100.2 -183.4 74.5 162 162 162
107.9 -190.9 77.5 162 162 162
105.8 -184.1 74.8 162 162 162
105.4 -180.6 73.3 162 162 162
108.0 -182.0 73.9 162 162 162
110.1 -182.7 74.2 162 162 162
110.1 -179.9 73.0 162 162 162
113.1 -182.0 73.9 160 160 160
114.4 -181.3 73.6 160 160 160
116.6 -182.0 73.9 163 163 163
119.2 -183.4 74.5 161 161 161
118.2 -179.2 72.8 162 162 162
112.1 -167.6 68.0 162 162 162
54.2 -74.7 30.3 157 160 159
57.3 -75.0 30.5 158 161 160
136.1 -103.1 41.9 105 105 105
128.2 -96.4 39.2 105 105 105
75.3 -53.9 21.9 98 100 100
73.6 -52.4 21.3 98 100 100
63.6 -42.2 17.1 203 203 203
64.0 -42.1 17.1 162 165 164
64.5 -42.2 17.1 156 156 156
64.5 -42.0 17.0 214 214 214
60.3 -144.2 59.1 163 163 163
61.7 -144.2 59.1 163 163 163
65.1 -148.8 61.0 164 164 164
64.2 -143.7 58.9 164 164 164
65.6 -143.7 58.9 164 164 164
66.1 -142.0 58.2 164 164 164
67.1 -141.1 57.8 164 164 164
70.8 -146.0 59.9 164 164 164
71.1 -143.7 58.9 164 164 164
71.5 -142.0 58.2 164 164 164
75.0 -146.0 59.9 164 164 164
468.5 -782.1 320.6 162 162 162
65.3 -102.5 42.0 162 162 162
127.0 -196.4 80.5 163 163 163
131.7 -200.6 82.2 163 163 163
125.9 -189.1 77.5 164 164 164
55.0 -75.0 30.8 160 163 162
56.2 -75.8 31.1 160 163 162
56.5 -75.2 30.8 158 161 160
58.9 -77.4 31.7 158 161 160
59.3 -76.9 31.5 158 161 160
58.4 -74.9 30.7 159 162 161
59.9 -75.9 31.1 159 162 161
61.3 -76.6 31.4 160 163 162
133.4 -100.1 41.0 105 105 105
125.4 -93.4 38.3 105 105 105
71.7 -50.5 20.7 95 98 97
71.0 -49.7 20.4 95 98 97
61.4 -40.1 16.4 206 206 206
63.6 -41.2 16.9 211 211 211
62.2 -40.1 16.4 196 199 198
61.7 -39.5 16.2 196 199 198
60.9 -38.7 15.9 211 211 211
53.2 -123.2 51.0 163 163 163
56.8 -125.9 52.1 164 164 164
54.4 -118.1 48.9 164 164 164
57.6 -122.5 50.7 164 164 164
56.7 -118.1 48.9 164 164 164
60.5 -123.5 51.1 164 164 164
62.1 -124.5 51.5 164 164 164
62.8 -123.5 51.1 164 164 164
65.1 -101.1 41.9 162 162 162
135.6 -207.7 86.0 166 166 166
137.6 -207.7 86.0 166 166 166
137.2 -204.0 84.4 169 169 169
92.4 -133.6 55.3 165 165 165
57.2 -77.3 32.0 164 164 164
58.4 -78.0 32.3 165 165 165
58.8 -77.5 32.1 161 164 163
60.9 -79.2 32.8 161 164 163
61.5 -79.1 32.7 161 164 163
61.4 -78.0 32.3 159 162 161
62.7 -78.7 32.6 159 162 161
63.8 -79.1 32.7 160 163 162
64.1 -78.5 32.5 160 163 162
121.7 -89.8 37.2 105 105 105
111.6 -81.8 33.8 105 105 105
72.6 -51.0 21.1 95 98 97
70.5 -49.2 20.4 94 94 94
69.1 -47.9 19.8 94 94 94
60.2 -38.0 15.7 214 214 214
27.8 -87.0 36.4 166 166 166
28.5 -86.5 36.2 166 166 166
29.3 -86.4 36.1 166 166 166
31.9 -86.7 36.2 166 166 166
32.7 -86.5 36.2 166 166 166
33.8 -87.4 36.5 168 170 169
34.6 -87.2 36.4 166 166 166
36.3 -87.0 36.4 166 166 166
39.2 -88.1 36.8 166 166 166
39.3 -86.4 36.1 167 167 167
40.0 -86.1 36.0 167 167 167
41.2 -86.7 36.2 167 167 167
41.9 -86.5 36.2 167 167 167
42.8 -86.5 36.2 167 167 167
43.7 -86.7 36.2 169 171 170
44.4 -86.4 36.1 169 171 170
45.4 -86.7 36.2 167 167 167
46.8 -87.9 36.7 167 167 167
47.2 -87.0 36.4 169 171 170
47.8 -86.5 36.2 169 171 170
48.4 -86.1 36.0 169 171 170
56.2 -87.9 36.7 170 172 172
56.9 -87.5 36.6 168 168 168
56.5 -85.7 35.8 169 169 169
135.8 -203.0 84.8 169 169 169
127.5 -187.8 78.5 169 169 169
109.3 -158.8 66.4 170 171 170
99.4 -142.3 59.5 170 171 170
59.3 -78.4 32.8 167 167 167
59.7 -77.9 32.6 168 168 168
62.5 -80.5 33.7 168 168 168
62.7 -79.8 33.4 166 166 166
65.6 -80.5 33.7 163 166 165
100.5 -72.4 30.3 103 102 100
69.4 -48.0 20.1 94 94 94
67.5 -46.4 19.4 95 98 97
65.8 -44.9 18.8 94 94 94
54.3 -34.1 14.2 217 217 217
54.5 -34.0 14.2 217 217 217
18.9 -84.1 35.5 168 170 169
19.3 -82.4 34.8 166 169 168
20.1 -82.4 34.8 166 169 168
20.9 -82.4 34.8 166 169 168
21.7 -82.4 34.8 166 169 168
22.5 -82.4 34.8 166 169 168
23.3 -82.4 34.8 166 169 168
24.1 -82.4 34.8 166 169 168
25.0 -82.4 34.8 165 165 165
25.8 -82.4 34.8 165 165 165
26.6 -82.4 34.8 166 166 166
27.5 -82.7 34.9 168 170 169
28.2 -82.5 34.8 166 166 166
29.0 -82.5 34.8 168 170 169
29.9 -82.5 34.8 168 170 169
30.7 -82.5 34.8 166 166 166
31.4 -82.4 34.8 168 170 169
32.2 -82.4 34.8 168 170 169
33.1 -82.5 34.8 168 170 169
33.9 -82.5 34.8 168 170 169
34.7 -82.5 34.8 168 170 169
35.5 -82.4 34.8 168 170 169
36.3 -82.5 34.8 168 170 169
37.4 -83.2 35.1 169 171 170
38.0 -82.5 34.8 169 171 170
38.6 -82.1 34.6 169 171 170
39.6 -82.5 34.8 169 171 170
40.4 -82.5 34.8 169 171 170
41.1 -82.4 34.8 172 174 174
41.9 -82.4 34.8 169 171 170
42.7 -82.4 34.8 169 171 170
43.5 -82.4 34.8 172 174 174
44.6 -82.9 35.0 169 171 170
45.2 -82.5 34.8 169 171 170
46.1 -82.5 34.8 169 171 170
46.4 -81.8 34.5 169 171 170
52.6 -85.2 36.0 170 172 172
54.3 -84.1 35.5 170 172 172
55.2 -84.1 35.5 170 172 172
55.0 -82.5 34.8 171 173 173
55.7 -82.4 34.8 171 173 173
114.6 -164.8 69.5 172 174 174
28.7 -39.7 16.7 173 175 175
56.1 -74.3 31.4 173 173 173
58.2 -76.2 32.2 173 173 173
58.6 -75.7 32.0 168 168 168
58.1 -74.2 31.3 174 174 174
18.0 -79.3 33.8 171 173 173
18.7 -79.1 33.7 166 169 168
19.5 -79.1 33.7 166 169 168
20.3 -79.1 33.7 166 169 168
21.1 -79.1 33.7 166 169 168
21.8 -79.1 33.7 166 169 168
22.6 -79.1 33.7 166 169 168
23.4 -79.1 33.7 166 169 168
24.2 -79.1 33.7 166 169 168
25.0 -79.1 33.7 166 169 168
25.8 -79.1 33.7 168 170 169
26.6 -79.3 33.8 168 170 169
27.4 -79.4 33.8 168 170 169
28.2 -79.3 33.8 168 170 169
28.9 -79.1 33.7 168 170 169
29.7 -79.1 33.7 168 170 169
30.5 -79.1 33.7 168 170 169
31.3 -79.1 33.7 171 173 173
32.0 -79.1 33.7 168 170 169
32.8 -79.1 33.7 171 173 173
33.6 -79.1 33.7 168 170 169
34.3 -79.0 33.7 176 176 176
35.1 -79.0 33.7 176 176 176
36.1 -79.4 33.8 176 176 176
36.8 -79.3 33.8 176 176 176
37.5 -79.0 33.7 179 179 179
38.2 -79.0 33.7 172 174 174
39.1 -79.1 33.7 169 171 170
39.8 -79.0 33.7 176 176 176
40.6 -79.0 33.7 176 176 176
41.4 -79.1 33.7 176 176 176
42.1 -79.0 33.7 176 176 176
43.1 -79.3 33.8 179 179 179
43.9 -79.3 33.8 179 179 179
44.7 -79.3 33.8 177 177 177
45.0 -78.6 33.5 179 179 179
46.2 -79.3 33.8 179 179 179
48.5 -80.4 34.3 180 180 180
48.8 -79.5 33.9 180 180 180
49.4 -79.3 33.8 177 177 177
50.0 -79.0 33.7 180 180 180
53.1 -80.1 34.1 177 177 177
53.6 -79.7 34.0 174 176 176
54.2 -79.4 33.8 174 176 176
55.1 -79.5 33.9 171 173 173
28.2 -39.1 16.7 172 174 174
28.4 -38.9 16.6 176 179 178
28.8 -38.8 16.5 176 179 178
29.0 -38.6 16.4 173 175 175
55.9 -73.4 31.3 174 176 176
58.0 -75.2 32.1 177 180 179
58.4 -74.7 31.8 174 174 174
57.4 -72.5 30.9 178 181 180
27.3 -78.3 33.7 171 173 173
28.0 -77.9 33.5 175 175 175
35.9 -78.2 33.7 192 192 192
36.6 -78.1 33.6 189 189 189
37.2 -77.6 33.4 189 189 189
43.6 -78.1 33.6 195 195 195
44.4 -78.1 33.6 198 198 198
44.6 -77.0 33.1 198 198 198
48.8 -80.2 34.5 202 202 202
48.3 -78.1 33.6 198 198 198
48.2 -76.6 33.0 198 198 198
254.7 -392.4 168.9 198 198 198
217.8 -330.4 142.2 198 198 198
53.0 -79.2 34.1 198 198 198
52.9 -77.9 33.5 199 199 199
54.0 -78.3 33.7 199 199 199
54.9 -78.5 33.8 203 203 203
191.2 -269.6 116.1 200 200 200
27.7 -38.0 16.4 198 198 198
27.9 -37.8 16.3 195 195 195
28.4 -37.9 16.3 198 198 198
28.6 -37.6 16.2 199 199 199
59.5 -75.4 32.4 204 204 204
69.4 -47.9 20.6 98 100 100
41.7 -71.3 31.0 202 202 202
49.2 -80.0 34.8 202 202 202
47.0 -75.1 32.7 202 202 202
45.7 -71.9 31.3 202 202 202
45.4 -70.4 30.6 202 202 202
165.2 -244.4 106.3 202 202 202
158.4 -224.2 97.5 203 203 203
176.1 -245.8 106.9 204 204 204
169.0 -232.6 101.2 204 204 204
27.5 -36.9 16.0 205 205 205
28.2 -36.7 16.0 205 205 205
155.9 -122.5 53.3 124 126 125
67.1 -45.8 19.9 103 102 100
65.8 -44.7 19.4 103 102 100
42.0 -73.6 32.3 205 205 205
42.1 -72.5 31.8 205 205 205
42.4 -71.8 31.5 205 205 205
47.8 -76.9 33.8 205 205 205
46.8 -74.1 32.6 205 205 205
46.5 -72.5 31.8 205 205 205
45.6 -69.9 30.7 205 205 205
45.3 -68.4 30.0 205 205 205
163.3 -239.2 105.1 202 202 202
143.5 -207.0 90.9 203 203 203
145.6 -207.0 90.9 203 203 203
149.1 -209.1 91.8 203 203 203
161.5 -223.1 98.0 204 204 204
160.4 -218.6 96.0 204 204 204
154.0 -207.0 90.9 204 204 204
27.4 -36.4 16.0 205 205 205
27.3 -34.8 15.3 206 206 206
156.3 -121.7 53.4 124 126 125
65.9 -44.5 19.6 105 105 105
65.3 -43.9 19.3 105 105 105
65.0 -43.3 19.0 103 102 100
42.0 -70.3 31.2 205 205 205
41.0 -67.6 30.0 205 205 205
47.5 -75.7 33.6 205 205 205
46.3 -72.5 32.2 208 208 208
46.2 -71.3 31.6 205 205 205
44.9 -68.2 30.3 205 205 205
44.4 -66.3 29.4 205 205 205
153.1 -222.0 98.5 205 205 205
137.5 -196.4 87.2 206 206 206
138.3 -194.6 86.4 206 206 206
138.4 -192.0 85.2 206 206 206
154.3 -211.0 93.6 207 207 207
152.7 -205.9 91.4 207 207 207
147.0 -195.5 86.8 204 204 204
27.4 -34.6 15.4 206 206 206
157.7 -121.4 53.9 133 133 133
179.5 -130.0 57.7 122 122 122
168.5 -121.1 53.7 120 120 120
66.4 -44.4 19.7 107 107 107
65.8 -43.8 19.4 107 107 107
39.8 -65.9 29.6 208 208 208
46.1 -71.5 32.1 210 210 210
45.3 -69.2 31.0 208 208 208
43.9 -66.0 29.6 205 205 205
43.2 -63.8 28.6 202 202 202
43.0 -62.6 28.1 208 208 208
145.6 -202.8 90.9 206 206 206
147.0 -201.8 90.5 206 206 206
163.1 -220.9 99.0 206 206 206
158.8 -212.0 95.1 207 207 207
154.8 -203.8 91.4 207 207 207
27.9 -36.2 16.2 207 207 207
27.8 -35.6 16.0 207 207 207
27.3 -34.1 15.3 205 205 205
27.3 -33.6 15.1 206 206 206
39.9 -65.4 29.6 207 207 207
39.8 -64.1 29.1 207 207 207
49.1 -76.6 34.7 207 207 207
45.5 -68.7 31.1 207 207 207
44.6 -66.3 30.0 209 209 209
43.5 -63.6 28.8 207 207 207
176.1 -235.9 106.9 208 208 208
27.9 -35.9 16.3 207 207 207
27.9 -35.4 16.0 207 207 207
28.2 -35.3 16.0 207 207 207
27.4 -33.9 15.3 208 208 208
23.8 -27.3 12.4 207 207 207
48.7 -75.1 34.4 207 207 207
46.2 -69.0 31.6 207 207 207
45.9 -67.5 30.9 207 207 207
44.2 -63.9 29.3 207 207 207
44.2 -63.0 28.8 207 207 207
28.1 -35.2 16.1 206 206 206
28.2 -34.9 16.0 207 207 207
27.5 -33.6 15.4 207 207 207
27.4 -33.1 15.1 207 207 207
23.9 -27.1 12.4 206 206 206
24.2 -27.1 12.4 207 207 207
-14.0 -22.4 10.4 127 127 127
-13.7 -22.4 10.4 129 129 129
48.8 -74.4 34.5 208 208 208
47.5 -71.3 33.0 208 208 208
47.0 -69.5 32.2 208 208 208
46.5 -67.7 31.3 206 206 206
51.5 -70.5 32.6 207 207 207
28.2 -34.5 16.0 206 206 206
28.0 -33.8 15.6 206 206 206
27.4 -32.7 15.1 207 207 207
24.0 -26.9 12.5 206 206 206
24.3 -26.9 12.5 206 206 206
-9.8 -23.5 11.0 138 140 139
-9.5 -23.6 11.0 140 139 138
-9.2 -23.5 11.0 141 141 141
-9.0 -23.5 11.0 140 142 141
3.0 -23.4 10.9 182 182 182
47.1 -70.1 32.8 211 211 211
46.7 -68.3 32.0 208 208 208
47.0 -66.6 31.2 206 206 206
47.6 -66.4 31.1 206 206 206
51.0 -70.1 32.8 206 206 206
50.5 -68.4 32.0 206 206 206
49.6 -66.2 31.0 206 206 206
52.3 -68.9 32.2 207 207 207
28.2 -34.2 16.0 205 205 205
28.0 -33.5 15.7 206 206 206
24.4 -26.8 12.5 205 205 205
-10.4 -23.6 11.2 132 135 134
-10.1 -23.6 11.2 136 136 136
-9.9 -23.6 11.1 135 135 135
-9.6 -23.6 11.2 137 139 138
-9.3 -23.5 11.1 138 137 136
3.1 -23.7 11.2 181 181 181
48.8 -73.0 34.5 208 208 208
47.6 -70.0 33.1 208 208 208
47.9 -66.1 31.3 205 205 205
51.1 -69.5 32.9 205 205 205
50.7 -67.9 32.1 206 206 206
49.8 -65.8 31.1 206 206 206
53.1 -69.1 32.7 206 206 206
57.2 -73.4 34.7 206 206 206
28.2 -33.9 16.0 207 207 207
27.8 -32.8 15.5 205 205 205
-38.3 -28.4 13.6 48 48 48
-38.0 -28.4 13.6 48 48 48
-37.7 -28.4 13.6 51 51 51
-37.3 -28.4 13.6 48 48 48
-37.0 -28.4 13.6 53 53 53
-36.7 -28.4 13.6 53 53 53
-35.8 -28.5 13.6 51 51 51
-35.5 -28.5 13.6 53 53 53
-35.2 -28.5 13.6 53 53 53
-34.8 -28.5 13.6 53 53 53
-34.5 -28.4 13.6 51 51 51
-34.2 -28.4 13.6 51 51 51
-33.9 -28.5 13.6 47 46 45
-33.6 -28.5 13.6 47 46 45
-33.2 -28.4 13.6 47 46 45
-32.9 -28.4 13.6 47 46 45
-32.6 -28.4 13.6 43 43 43
-32.0 -28.5 13.6 43 43 43
-31.6 -28.4 13.6 43 43 43
-31.3 -28.4 13.6 42 42 42
-31.1 -28.5 13.6 43 43 43
-30.7 -28.4 13.6 42 42 42
-28.7 -28.3 13.5 39 39 39
-24.5 -24.4 11.7 42 42 42
-28.3 -28.5 13.6 42 42 42
-27.8 -28.4 13.6 42 42 42
-27.5 -28.4 13.6 44 44 44
-27.2 -28.4 13.6 44 44 44
-26.9 -28.4 13.6 44 44 44
-26.5 -28.4 13.6 48 48 48
-25.4 -28.5 13.6 94 94 94
-24.9 -28.3 13.5 97 97 97
-23.7 -28.4 13.6 97 100 99
-23.6 -28.6 13.7 99 101 101
-23.1 -28.4 13.6 99 101 101
-18.8 -24.4 11.7 107 107 107
-18.5 -24.4 11.7 106 106 106
-13.9 -28.4 13.6 120 120 120
-9.6 -23.3 11.2 128 130 129
-9.6 -24.5 11.7 139 139 139
2.7 -24.4 11.7 185 185 185
7.9 -24.5 11.7 208 208 208
11.1 -24.5 11.7 208 208 208
11.4 -24.5 11.7 208 208 208
11.7 -24.5 11.7 208 208 208
11.9 -24.5 11.7 208 208 208
13.4 -24.7 11.8 207 207 207
13.6 -24.5 11.7 207 207 207
13.8 -24.5 11.7 207 207 207
14.1 -24.5 11.7 207 207 207
14.4 -24.5 11.7 207 207 207
48.8 -72.2 34.5 207 207 207
47.8 -69.5 33.2 207 207 207
48.0 -68.7 32.8 207 207 207
49.4 -67.5 32.3 207 207 207
51.3 -69.0 33.0 207 207 207
51.2 -67.8 32.4 207 207 207
51.1 -66.7 31.9 205 205 205
53.3 -68.7 32.8 208 208 208
57.2 -72.6 34.7 206 206 206
59.2 -74.1 35.4 206 206 206
58.5 -72.2 34.5 206 206 206
60.1 -73.2 35.0 206 206 206
28.2 -33.5 16.0 207 207 207
27.8 -32.5 15.6 207 207 207
-38.7 -28.4 13.7 52 52 52
-38.4 -28.4 13.7 52 52 52
-37.7 -28.4 13.7 52 52 52
-36.8 -28.7 13.9 52 52 52
-36.1 -28.4 13.7 54 54 54
-35.8 -28.4 13.7 54 54 54
-35.5 -28.4 13.7 54 54 54
-35.2 -28.4 13.7 54 54 54
-34.9 -28.4 13.7 56 57 55
-33.9 -28.4 13.8 49 49 49
-33.6 -28.4 13.7 49 49 49
-32.7 -28.4 13.8 44 44 44
-32.3 -28.4 13.7 44 44 44
-32.1 -28.5 13.8 44 44 44
-31.4 -28.4 13.7 44 44 44
-29.4 -28.4 13.7 42 43 42
-29.1 -28.4 13.7 42 43 42
-28.9 -28.5 13.8 40 40 40
-28.5 -28.5 13.8 40 40 40
-28.1 -28.4 13.7 42 43 42
-27.8 -28.4 13.7 42 43 42
-27.5 -28.4 13.7 43 43 43
-27.2 -28.4 13.7 41 41 41
-25.8 -28.6 13.8 43 43 43
-25.1 -28.2 13.6 64 65 63
-24.3 -28.4 13.8 94 94 94
-23.8 -28.5 13.8 97 97 97
-23.3 -28.3 13.7 100 102 102
-14.1 -28.4 13.8 110 112 111
-13.6 -28.1 13.6 109 111 111
-13.3 -28.2 13.6 115 114 114
-9.4 -23.9 11.6 117 119 118
2.6 -23.9 11.5 184 184 184
2.9 -23.7 11.4 184 184 184
7.7 -23.8 11.5 207 207 207
8.0 -23.8 11.5 207 207 207
8.5 -23.8 11.5 207 207 207
8.8 -23.8 11.5 207 207 207
9.1 -23.8 11.5 207 207 207
9.3 -23.8 11.5 207 207 207
9.6 -23.8 11.5 207 207 207
10.5 -23.9 11.6 207 207 207
10.7 -23.9 11.6 207 207 207
11.0 -24.0 11.6 207 207 207
11.2 -23.8 11.5 207 207 207
11.5 -23.8 11.5 207 207 207
11.7 -23.8 11.5 207 207 207
12.0 -23.7 11.5 207 207 207
13.4 -23.8 11.5 207 207 207
13.7 -24.0 11.6 207 207 207
14.0 -24.0 11.6 207 207 207
14.2 -23.8 11.5 207 207 207
49.0 -71.6 34.6 207 207 207
48.4 -69.6 33.7 207 207 207
50.5 -68.1 33.0 207 207 207
51.9 -69.0 33.4 207 207 207
52.4 -67.7 32.7 205 205 205
53.7 -68.4 33.1 205 205 205
57.3 -71.9 34.8 205 205 205
59.3 -73.4 35.5 208 208 208
58.7 -71.6 34.6 206 206 206
59.9 -72.2 34.9 206 206 206
60.9 -72.3 35.0 206 206 206
61.4 -72.0 34.8 206 206 206
27.8 -32.1 15.5 206 206 206
-39.6 -28.7 14.1 53 52 52
-39.3 -28.8 14.1 55 55 55
-39.0 -28.8 14.1 53 52 52
-38.6 -28.8 14.1 55 55 55
-38.3 -28.8 14.1 55 55 55
-38.0 -28.8 14.1 53 52 52
-37.7 -28.8 14.1 55 55 55
-37.4 -28.8 14.1 53 52 52
-37.0 -28.8 14.1 55 55 55
-36.7 -28.8 14.1 57 58 56
-36.4 -28.8 14.1 53 52 52
-36.0 -28.8 14.1 53 52 52
-35.7 -28.8 14.1 55 55 55
-35.4 -28.8 14.1 53 52 52
-35.1 -28.8 14.1 53 52 52
-34.7 -28.8 14.1 55 55 55
-34.4 -28.8 14.1 53 52 52
-34.1 -28.8 14.1 50 50 50
-33.8 -28.8 14.1 45 45 45
-33.5 -28.8 14.1 45 45 45
-33.1 -28.8 14.1 45 45 45
-30.1 -28.7 14.1 43 43 43
-29.7 -29.0 14.2 43 43 43
-29.1 -28.7 14.1 43 43 43
-28.8 -28.7 14.0 44 44 44
-28.5 -28.7 14.1 41 41 41
-26.2 -28.8 14.1 47 47 47
-25.3 -28.9 14.1 47 47 47
-24.9 -28.7 14.1 77 77 77
-24.6 -28.8 14.1 101 101 101
-24.2 -28.7 14.1 93 96 95
-16.3 -24.2 11.8 111 111 111
-14.5 -28.8 14.1 100 100 100
-13.5 -28.1 13.8 75 77 77
2.7 -23.9 11.7 183 183 183
2.9 -23.6 11.5 183 183 183
8.8 -24.2 11.9 207 207 207
9.1 -24.2 11.9 207 207 207
9.3 -24.1 11.8 207 207 207
10.4 -24.2 11.9 207 207 207
10.7 -24.2 11.8 207 207 207
10.9 -24.1 11.8 207 207 207
11.1 -24.0 11.7 207 207 207
11.4 -24.0 11.7 207 207 207
11.7 -24.0 11.7 207 207 207
11.9 -23.9 11.7 207 207 207
13.5 -24.3 11.9 207 207 207
13.6 -23.9 11.7 207 207 207
13.9 -24.0 11.7 206 206 206
14.1 -23.9 11.7 206 206 206
17.3 -28.7 14.0 206 206 206
17.5 -28.6 14.0 206 206 206
17.8 -28.5 14.0 206 206 206
48.6 -69.0 33.8 206 206 206
48.2 -61.6 30.1 207 207 207
53.2 -67.0 32.8 207 207 207
57.5 -71.3 34.9 207 207 207
59.6 -73.0 35.7 207 207 207
58.9 -71.1 34.8 205 205 205
62.3 -73.2 35.8 205 205 205
27.7 -31.7 15.5 206 206 206
-44.5 -31.9 15.8 55 55 55
-44.1 -31.9 15.8 55 55 55
-43.6 -31.9 15.8 55 55 55
-38.9 -31.9 15.8 53 53 53
-33.5 -31.9 15.8 44 44 44
-33.1 -31.9 15.8 44 44 44
-32.7 -31.9 15.8 45 45 45
-30.1 -31.9 15.8 42 43 42
-27.9 -31.9 15.8 47 48 47
-16.3 -24.0 11.9 104 104 104
-14.3 -28.8 14.3 32 32 32
11.7 -32.0 15.8 207 207 207
15.0 -31.9 15.8 206 206 206
13.4 -24.4 12.1 206 206 206
13.7 -24.4 12.1 206 206 206
18.7 -32.0 15.8 206 206 206
19.1 -31.9 15.8 206 206 206
45.3 -59.7 29.6 206 206 206
47.8 -60.4 29.9 206 206 206
47.5 -59.1 29.2 206 206 206
47.0 -57.7 28.5 207 207 207
46.3 -56.0 27.7 207 207 207
27.8 -31.4 15.5 205 205 205
28.0 -31.2 15.4 205 205 205
-45.5 -32.3 16.2 56 56 56
-39.4 -32.2 16.1 54 54 54
-36.8 -32.3 16.2 47 47 47
-35.1 -32.4 16.2 47 48 47
-34.6 -32.3 16.2 47 48 47
-34.1 -32.2 16.1 45 45 45
-32.8 -32.4 16.2 47 48 47
-31.4 -32.4 16.2 42 43 42
-30.2 -31.6 15.8 42 43 42
-29.8 -32.4 16.2 40 40 40
-29.1 -32.4 16.2 40 40 40
-28.3 -31.9 16.0 41 41 41
-28.3 -32.8 16.4 47 48 47
-16.3 -23.7 11.9 102 102 102
9.9 -20.4 10.2 206 206 206
10.1 -20.3 10.2 206 206 206
10.4 -20.3 10.2 206 206 206
10.6 -20.3 10.2 206 206 206
10.8 -20.3 10.2 206 206 206
11.1 -20.3 10.2 206 206 206
19.2 -32.4 16.2 206 206 206
12.5 -20.3 10.2 206 206 206
12.7 -20.3 10.2 209 209 209
44.4 -57.1 28.6 205 205 205
47.2 -58.0 29.1 206 206 206
46.7 -56.7 28.4 206 206 206
46.1 -55.1 27.6 206 206 206
47.5 -56.0 28.0 206 206 206
48.0 -55.8 27.9 207 207 207
27.9 -30.8 15.4 205 205 205
-46.0 -32.5 16.5 57 57 57
-44.3 -33.0 16.7 59 60 58
-42.7 -33.0 16.7 59 60 58
-42.3 -32.9 16.7 62 62 62
-40.8 -33.0 16.7 55 55 55
-38.3 -32.8 16.6 47 48 47
-37.4 -32.4 16.4 51 51 49
-36.9 -32.3 16.3 47 48 47
-36.7 -32.4 16.4 47 48 47
-36.4 -32.5 16.5 47 48 47
-35.5 -32.1 16.2 48 48 48
-35.4 -32.3 16.3 48 48 48
-35.2 -32.4 16.4 48 48 48
-34.8 -32.4 16.4 47 47 47
-34.0 -32.1 16.3 47 47 47
-34.1 -32.5 16.5 47 47 47
-34.0 -32.8 16.6 47 47 47
-33.5 -32.7 16.5 49 49 49
-32.2 -32.9 16.7 45 45 45
-30.9 -32.0 16.2 43 43 43
-30.2 -32.4 16.4 41 41 41
-29.8 -32.8 16.6 42 42 42
-28.5 -32.7 16.5 41 41 39
-16.4 -23.5 11.9 28 28 28
-10.7 -25.3 12.8 34 34 34
-10.5 -25.3 12.8 38 38 36
-10.2 -25.3 12.8 155 155 155
-9.9 -25.4 12.8 187 189 189
-1.8 -25.4 12.8 199 199 199
-1.5 -25.4 12.9 199 199 199
-0.6 -25.4 12.9 197 197 197
2.1 -25.4 12.9 191 191 191
6.0 -25.6 13.0 203 203 203
6.2 -25.2 12.8 206 206 206
7.7 -25.3 12.8 209 209 209
8.0 -25.4 12.9 209 209 209
8.3 -25.4 12.9 206 206 206
8.6 -25.4 12.8 209 209 209
8.9 -25.3 12.8 209 209 209
9.2 -25.3 12.8 209 209 209
9.5 -25.3 12.8 209 209 209
9.8 -25.3 12.8 209 209 209
10.1 -25.3 12.8 209 209 209
10.4 -25.4 12.9 209 209 209
10.7 -25.4 12.9 206 206 206
11.0 -25.4 12.9 209 209 209
11.3 -25.4 12.9 205 205 205
11.6 -25.4 12.8 205 205 205
11.9 -25.4 12.8 205 205 205
12.2 -25.4 12.8 205 205 205
12.5 -25.3 12.8 205 205 205
12.8 -25.4 12.9 205 205 205
13.1 -25.4 12.9 205 205 205
13.4 -25.3 12.8 205 205 205
13.7 -25.4 12.8 205 205 205
14.0 -25.3 12.8 205 205 205
14.3 -25.4 12.9 208 208 208
14.6 -25.4 12.9 205 205 205
14.9 -25.4 12.9 208 208 208
15.2 -25.4 12.9 208 208 208
15.5 -25.4 12.9 208 208 208
15.8 -25.5 12.9 208 208 208
16.1 -25.4 12.9 208 208 208
16.4 -25.4 12.9 208 208 208
16.7 -25.4 12.9 208 208 208
17.0 -25.4 12.9 208 208 208
17.3 -25.4 12.9 205 205 205
17.6 -25.4 12.9 208 208 208
17.9 -25.4 12.9 205 205 205
18.2 -25.3 12.8 205 205 205
44.6 -56.7 28.7 208 208 208
47.2 -57.4 29.1 205 205 205
47.1 -56.4 28.6 206 206 206
45.5 -53.7 27.2 206 206 206
47.4 -55.2 28.0 206 206 206
48.0 -55.2 28.0 206 206 206
27.9 -30.4 15.4 207 207 207
-35.6 -24.7 12.7 58 58 58
-35.3 -24.7 12.7 59 61 59
-35.0 -24.7 12.6 59 61 59
-34.7 -24.7 12.6 63 63 63
-34.4 -24.7 12.6 63 63 63
-34.1 -24.7 12.6 63 63 63
-33.8 -24.7 12.6 58 58 58
-33.5 -24.6 12.6 58 58 58
-33.2 -24.7 12.6 59 61 59
-33.0 -24.7 12.7 59 61 59
-32.7 -24.7 12.6 59 61 59
-32.3 -24.6 12.6 63 63 63
-32.1 -24.7 12.7 63 63 63
-31.8 -24.7 12.7 63 63 63
-31.5 -24.7 12.7 59 61 59
-31.2 -24.7 12.7 58 58 58
-30.9 -24.7 12.7 56 56 56
-30.6 -24.7 12.6 51 51 49
-30.3 -24.6 12.6 51 51 49
-30.0 -24.7 12.6 51 51 49
-29.7 -24.7 12.7 52 52 50
-29.4 -24.7 12.7 53 53 53
-29.1 -24.7 12.6 52 52 50
-28.8 -24.6 12.6 52 52 50
-28.5 -24.6 12.6 48 48 48
-28.3 -24.7 12.7 48 48 48
-28.0 -24.7 12.7 49 49 49
-27.8 -24.8 12.7 52 52 50
-27.4 -24.7 12.7 49 49 49
-26.9 -24.5 12.6 47 48 47
-26.7 -24.6 12.6 49 49 49
-26.5 -24.7 12.7 47 48 47
-26.2 -24.6 12.6 47 48 47
-26.0 -24.7 12.7 50 50 50
-25.6 -24.7 12.7 50 50 50
-25.3 -24.6 12.6 48 48 48
-25.1 -24.7 12.7 48 48 48
-24.7 -24.7 12.7 46 46 46
-24.4 -24.6 12.6 46 46 46
-24.1 -24.6 12.6 44 44 44
-23.8 -24.7 12.6 42 42 42
-23.6 -24.7 12.7 41 41 39
-23.3 -24.8 12.7 42 42 42
-22.9 -24.7 12.6 42 43 42
-22.5 -24.5 12.6 42 43 42
-22.3 -24.6 12.6 42 42 40
-22.2 -24.8 12.7 40 40 40
-21.7 -24.6 12.6 40 40 40
-21.4 -24.6 12.6 40 40 40
-21.3 -24.8 12.7 43 42 41
-20.8 -24.6 12.6 43 42 41
-20.5 -24.5 12.6 43 42 41
-20.3 -24.6 12.6 44 43 42
-20.0 -24.6 12.6 36 37 36
-19.7 -24.6 12.6 19 19 19
-19.4 -24.7 12.6 20 20 20
-19.1 -24.6 12.6 20 20 20
-18.5 -24.5 12.6 20 20 20
-18.2 -24.5 12.6 20 20 20
-18.0 -24.8 12.7 20 20 20
-17.7 -24.8 12.7 20 20 20
-17.3 -24.6 12.6 20 20 20
-15.7 -24.8 12.7 22 25 23
-15.3 -24.7 12.7 22 25 23
-15.0 -24.7 12.7 22 25 23
-14.7 -24.7 12.7 28 28 28
-14.4 -24.7 12.6 28 28 28
-12.2 -24.8 12.7 29 31 29
-11.8 -24.7 12.7 32 31 30
-11.5 -24.6 12.6 32 31 30
-11.2 -24.6 12.6 31 30 29
-10.9 -24.5 12.6 32 32 32
-10.6 -24.7 12.7 35 37 36
-10.4 -24.8 12.7 42 43 42
-10.0 -24.7 12.7 161 161 161
-9.7 -24.6 12.6 187 189 189
-9.4 -24.6 12.6 184 187 186
-9.1 -24.6 12.6 183 186 185
-8.9 -24.7 12.7 227 230 229
-8.6 -24.7 12.6 226 229 228
-2.1 -24.7 12.7 204 204 204
-1.8 -24.7 12.7 202 202 202
-1.5 -24.7 12.7 202 202 202
-1.2 -24.7 12.6 202 202 202
-0.9 -24.7 12.6 198 198 198
-0.6 -24.7 12.7 198 198 198
-0.3 -24.7 12.7 199 199 199
-0.0 -24.7 12.6 202 202 202
0.3 -24.7 12.6 199 199 199
0.6 -24.7 12.6 196 196 196
0.8 -24.7 12.7 196 196 196
1.1 -24.7 12.7 196 196 196
1.4 -24.7 12.7 196 196 196
1.7 -24.7 12.7 193 193 193
2.0 -24.7 12.7 193 193 193
2.3 -24.6 12.6 193 193 193
5.6 -24.8 12.7 180 180 180
5.9 -24.8 12.7 203 203 203
6.1 -24.7 12.6 205 205 205
7.0 -24.6 12.6 208 208 208
7.3 -24.6 12.6 208 208 208
7.6 -24.7 12.7 208 208 208
7.9 -24.6 12.6 208 208 208
8.2 -24.6 12.6 208 208 208
8.5 -24.7 12.7 208 208 208
8.8 -24.6 12.6 208 208 208
9.0 -24.6 12.6 208 208 208
9.4 -24.6 12.6 208 208 208
9.6 -24.6 12.6 208 208 208
10.0 -24.7 12.6 208 208 208
10.2 -24.7 12.6 208 208 208
10.6 -24.8 12.7 208 208 208
10.9 -24.7 12.7 208 208 208
11.1 -24.7 12.7 208 208 208
11.4 -24.7 12.6 205 205 205
11.7 -24.6 12.6 205 205 205
12.0 -24.7 12.7 205 205 205
12.3 -24.7 12.7 205 205 205
12.6 -24.7 12.7 205 205 205
12.9 -24.7 12.7 202 202 202
13.2 -24.7 12.7 205 205 205
13.5 -24.7 12.6 208 208 208
13.8 -24.6 12.6 208 208 208
14.0 -24.6 12.6 208 208 208
14.4 -24.7 12.6 208 208 208
14.6 -24.6 12.6 208 208 208
14.9 -24.6 12.6 208 208 208
15.2 -24.6 12.6 208 208 208
15.9 -24.8 12.7 208 208 208
16.2 -24.7 12.7 208 208 208
16.5 -24.7 12.7 208 208 208
16.7 -24.6 12.6 208 208 208
17.0 -24.7 12.6 208 208 208
17.3 -24.6 12.6 208 208 208
17.6 -24.7 12.7 207 207 207
17.9 -24.7 12.6 207 207 207
18.1 -24.6 12.6 207 207 207
18.8 -24.7 12.7 207 207 207
44.2 -55.5 28.4 207 207 207
46.6 -55.3 28.3 205 205 205
45.5 -53.2 27.3 205 205 205
46.8 -54.0 27.7 205 205 205
47.4 -53.9 27.6 206 206 206
48.0 -53.8 27.6 206 206 206
-36.1 -24.7 12.8 59 61 59
-35.9 -24.8 12.9 63 63 63
-35.6 -24.8 12.9 63 63 63
-35.3 -24.8 12.9 63 63 63
-35.0 -24.8 12.9 63 63 63
-34.7 -24.8 12.8 63 63 63
-34.3 -24.7 12.8 64 64 64
-34.2 -24.8 12.9 64 64 64
-33.8 -24.8 12.8 60 62 60
-33.5 -24.8 12.9 60 62 60
-33.2 -24.8 12.9 60 62 60
-32.9 -24.8 12.9 60 62 60
-32.6 -24.8 12.9 60 62 60
-32.3 -24.8 12.9 60 62 60
-32.0 -24.8 12.9 58 59 59
-31.7 -24.8 12.8 58 59 59
-31.4 -24.8 12.9 56 56 56
-31.1 -24.8 12.9 57 57 57
-30.9 -24.8 12.9 54 54 54
-30.5 -24.7 12.8 52 52 50
-30.2 -24.8 12.9 53 52 51
-29.9 -24.8 12.9 53 52 51
-29.6 -24.8 12.9 53 52 51
-29.3 -24.8 12.8 53 52 51
-29.0 -24.8 12.9 49 49 49
-28.7 -24.8 12.8 49 49 49
-28.5 -24.8 12.9 50 50 50
-28.2 -24.9 12.9 53 52 51
-27.8 -24.7 12.8 50 50 50
-27.4 -24.7 12.8 50 50 50
-27.2 -24.8 12.9 50 50 50
-26.9 -24.7 12.8 50 50 50
-26.6 -24.7 12.8 51 51 51
-26.4 -24.8 12.9 48 48 48
-26.0 -24.8 12.9 49 49 49
-25.7 -24.7 12.8 49 49 49
-25.4 -24.8 12.9 49 49 49
-25.1 -24.8 12.9 47 47 47
-24.8 -24.8 12.9 45 45 45
-24.6 -24.8 12.9 46 46 46
-24.3 -24.9 12.9 42 43 42
-23.9 -24.8 12.9 42 43 42
-23.7 -24.9 12.9 43 43 43
-23.3 -24.7 12.8 43 43 43
-22.8 -24.8 12.9 43 42 41
-22.5 -24.8 12.9 43 42 41
-22.1 -24.7 12.8 41 41 41
-21.9 -24.8 12.9 41 41 41
-21.6 -24.8 12.9 41 41 41
-21.1 -24.7 12.8 40 42 42
-20.3 -24.8 12.9 31 32 30
-20.1 -24.8 12.9 20 20 20
-19.7 -24.7 12.8 17 17 17
-19.4 -24.7 12.8 15 15 15
-18.3 -24.8 12.9 19 19 19
-17.9 -24.7 12.8 19 19 19
-17.5 -24.6 12.8 21 21 21
-15.9 -24.8 12.9 27 27 27
-15.6 -24.8 12.9 27 27 27
-15.3 -24.8 12.9 27 27 27
-15.0 -24.8 12.9 29 29 29
-12.4 -25.0 12.9 29 29 29
-11.9 -24.7 12.8 28 28 28
-11.7 -24.7 12.8 29 31 29
-11.3 -24.6 12.8 29 30 28
-11.0 -24.5 12.7 31 30 29
-10.8 -24.7 12.8 36 38 37
-10.5 -24.7 12.8 43 43 43
-10.2 -24.7 12.8 174 174 174
-9.9 -24.8 12.9 186 188 187
-9.6 -24.7 12.8 183 186 185
-9.2 -24.6 12.8 182 185 184
5.9 -24.8 12.9 205 205 205
8.3 -24.8 12.9 208 208 208
8.6 -24.7 12.8 208 208 208
13.6 -24.6 12.7 207 207 207
13.9 -24.5 12.7 207 207 207
17.9 -24.8 12.8 207 207 207
18.1 -24.7 12.8 207 207 207
46.9 -54.8 28.4 205 205 205
45.9 -53.0 27.5 205 205 205
46.9 -53.4 27.7 205 205 205
47.3 -53.2 27.6 205 205 205
47.9 -53.1 27.5 205 205 205
48.3 -52.9 27.4 205 205 205
49.1 -52.9 27.5 206 206 206
49.0 -52.2 27.1 206 206 206
-36.6 -24.8 13.0 60 62 60
-36.4 -24.8 13.0 64 64 64
-36.1 -24.8 13.0 64 64 64
-35.8 -24.8 13.0 64 64 64
-35.5 -24.8 13.0 64 64 64
-35.2 -24.8 13.0 64 64 64
-34.8 -24.7 13.0 64 64 64
-33.7 -24.8 13.0 59 59 59
-33.5 -24.9 13.1 59 59 59
-33.2 -24.9 13.1 61 63 61
-32.8 -24.9 13.1 61 63 61
-32.4 -24.8 13.0 59 59 59
-32.1 -24.8 13.0 59 59 59
-31.5 -24.8 13.0 55 55 55
-31.2 -24.8 13.0 55 55 55
-30.9 -24.8 13.0 53 52 51
-30.6 -24.8 13.0 54 53 52
-30.0 -24.8 13.0 54 53 52
-29.7 -24.8 13.0 54 53 52
-29.4 -24.8 13.0 54 53 52
-29.1 -24.8 13.0 54 53 52
-29.1 -25.0 13.1 54 53 52
-28.7 -25.0 13.1 54 53 52
-28.0 -24.7 12.9 55 54 53
-27.2 -24.7 13.0 49 49 49
-26.9 -25.0 13.1 52 52 52
-26.3 -24.8 13.0 52 52 52
-25.8 -24.8 13.0 50 50 50
-25.4 -24.8 13.0 47 48 47
-24.1 -25.0 13.1 47 47 47
-23.5 -24.6 12.9 44 44 44
-22.8 -24.8 13.0 44 43 42
-22.3 -24.7 13.0 45 45 45
-22.3 -25.0 13.1 42 42 42
-21.8 -24.8 13.0 40 42 42
-18.5 -24.8 13.0 16 16 16
-13.1 -25.4 13.3 30 31 30
-12.6 -25.0 13.1 33 32 30
-11.4 -24.5 12.9 29 31 29
-11.1 -24.5 12.9 34 34 34
-10.8 -24.5 12.9 34 34 34
-10.5 -24.5 12.9 42 43 42
-10.3 -24.7 13.0 183 183 183
6.0 -24.8 13.0 204 204 204
18.1 -24.8 13.0 207 207 207
18.2 -24.6 12.9 207 207 207
47.4 -54.8 28.8 207 207 207
45.9 -52.4 27.5 207 207 207
47.1 -53.0 27.8 207 207 207
47.3 -52.4 27.5 207 207 207
47.6 -52.1 27.3 205 205 205
47.7 -51.5 27.1 205 205 205
49.1 -51.6 27.1 205 205 205
49.6 -51.5 27.1 205 205 205
30.8 -27.8 14.6 188 188 188
-28.9 -24.8 13.2 56 55 54
-13.1 -25.2 13.4 37 38 37
-12.7 -24.9 13.2 43 43 43
-10.9 -24.3 12.9 35 35 35
-10.5 -24.2 12.9 50 50 50
-10.3 -24.5 13.0 183 183 183
46.1 -51.9 27.6 207 207 207
47.3 -52.5 27.9 207 207 207
47.3 -51.8 27.5 207 207 207
47.3 -51.1 27.2 207 207 207
47.5 -50.7 26.9 207 207 207
49.7 -51.7 27.5 205 205 205
49.9 -51.2 27.2 205 205 205
31.0 -27.6 14.7 186 186 186
31.2 -27.5 14.6 186 186 186
-22.7 -21.4 11.5 54 54 54
-13.1 -24.9 13.4 92 95 94
-12.7 -24.7 13.3 58 59 59
-10.8 -24.0 12.9 25 25 25
-10.5 -23.9 12.9 41 41 41
-10.2 -24.0 12.9 184 187 186
46.5 -51.7 27.8 206 206 206
47.3 -51.9 27.9 206 206 206
47.3 -51.2 27.6 206 206 206
47.4 -50.6 27.3 206 206 206
47.5 -50.1 26.9 207 207 207
49.5 -51.5 27.7 207 207 207
50.6 -51.2 27.6 202 202 202
31.5 -28.0 15.1 182 182 182
31.6 -27.8 15.0 185 185 185
-30.6 -20.0 10.9 66 66 66
-26.3 -20.0 10.9 59 59 59
-26.1 -19.9 10.9 63 63 63
-25.8 -19.9 10.9 60 60 60
-25.6 -20.0 10.9 58 58 58
-25.3 -19.9 10.9 58 58 58
-25.1 -20.0 10.9 57 56 55
-24.8 -20.0 10.9 58 58 58
-24.1 -20.0 10.9 57 57 55
-21.8 -20.0 10.9 55 55 55
-21.6 -20.0 10.9 55 55 55
-18.8 -20.0 10.9 44 44 44
-18.5 -20.0 10.9 44 44 44
-18.2 -20.0 10.9 43 45 45
-15.9 -19.9 10.9 20 20 20
-13.1 -24.6 13.4 21 21 21
-12.7 -24.4 13.3 40 40 40
-10.4 -20.5 11.1 42 42 42
-11.4 -24.1 13.2 77 77 77
-11.0 -24.0 13.1 34 34 34
-10.6 -23.8 13.0 56 56 56
-10.3 -23.9 13.0 183 186 185
46.5 -51.1 27.9 208 208 208
47.3 -51.2 27.9 206 206 206
47.3 -50.5 27.5 206 206 206
47.4 -49.9 27.2 206 206 206
47.4 -49.3 26.9 206 206 206
48.6 -49.9 27.2 206 206 206
50.6 -50.7 27.6 204 204 204
32.3 -29.0 15.8 202 202 202
32.1 -28.5 15.5 169 169 169
32.3 -28.4 15.5 179 179 179
-30.3 -19.5 10.8 67 67 67
-30.1 -19.5 10.8 67 67 67
-29.8 -19.5 10.8 67 67 67
-29.4 -19.5 10.8 67 67 67
-29.1 -19.5 10.8 67 67 67
-28.8 -19.5 10.8 67 67 67
-28.6 -19.5 10.8 67 67 67
-28.3 -19.5 10.8 67 67 67
-28.1 -19.5 10.8 67 67 67
-27.8 -19.5 10.8 67 67 67
-27.5 -19.5 10.8 67 67 67
-27.3 -19.5 10.8 68 68 68
-27.1 -19.5 10.8 68 68 68
-26.8 -19.5 10.8 65 66 64
-26.5 -19.5 10.7 65 66 64
-26.3 -19.5 10.8 63 63 63
-26.1 -19.5 10.8 63 63 63
-25.8 -19.5 10.8 61 61 61
-25.6 -19.5 10.8 61 61 61
-25.3 -19.5 10.8 61 61 61
-25.1 -19.5 10.8 61 61 61
-24.8 -19.5 10.8 58 59 59
-24.6 -19.5 10.8 58 59 59
-24.4 -19.5 10.8 59 59 59
-24.2 -19.6 10.8 59 59 59
-23.9 -19.6 10.8 58 58 56
-23.5 -19.5 10.8 58 58 56
-23.2 -19.4 10.7 58 58 56
-23.0 -19.5 10.7 55 55 55
-22.8 -19.5 10.8 59 59 57
-22.6 -19.5 10.8 55 55 55
-22.2 -19.6 10.8 56 56 56
-21.9 -19.6 10.8 56 56 56
-21.6 -19.6 10.8 56 56 56
-21.3 -19.5 10.8 56 56 56
-20.9 -19.6 10.8 55 55 55
-20.7 -19.6 10.8 52 52 52
-20.4 -19.6 10.8 53 52 52
-19.3 -19.5 10.8 52 52 52
-19.1 -19.5 10.8 48 48 48
-18.8 -19.5 10.8 49 49 49
-18.6 -19.6 10.8 48 47 46
-18.4 -19.6 10.8 48 47 46
-18.1 -19.6 10.8 46 46 46
-17.7 -19.4 10.7 44 46 46
-16.1 -19.6 10.8 28 28 28
-15.8 -19.5 10.8 34 36 34
-15.4 -19.3 10.7 21 21 21
-13.2 -24.4 13.5 23 26 24
-12.8 -24.3 13.4 137 137 137
-10.2 -19.8 10.9 124 124 124
-11.5 -24.1 13.3 67 67 67
-11.1 -23.9 13.2 49 49 49
-10.5 -23.9 13.2 189 189 189
-10.2 -24.0 13.3 181 184 183
47.5 -50.8 28.1 205 205 205
47.4 -50.0 27.6 205 205 205
47.4 -49.3 27.2 205 205 205
47.3 -48.5 26.8 206 206 206
47.8 -48.5 26.8 206 206 206
115.2 -58.0 32.0 166 166 166
-30.3 -19.3 10.8 67 67 67
-30.1 -19.3 10.8 67 67 67
-29.3 -19.3 10.8 67 67 67
-29.0 -19.2 10.8 67 67 67
-28.8 -19.2 10.7 69 71 69
-28.5 -19.2 10.8 70 72 69
-28.3 -19.2 10.8 68 68 68
-27.3 -19.3 10.8 70 72 69
-26.8 -19.3 10.8 69 69 69
-26.0 -19.2 10.8 66 67 65
-25.8 -19.2 10.8 62 62 62
-25.6 -19.3 10.8 62 62 62
-25.3 -19.2 10.8 59 59 59
-25.0 -19.2 10.8 62 62 62
-24.8 -19.2 10.7 62 62 62
-24.5 -19.2 10.8 62 62 62
-23.8 -19.3 10.8 60 60 60
-23.5 -19.2 10.7 60 60 60
-23.0 -19.2 10.8 59 59 57
-22.8 -19.2 10.8 61 61 61
-22.0 -19.4 10.9 57 57 57
-21.3 -19.3 10.8 58 58 58
-21.0 -19.4 10.8 56 56 56
-20.7 -19.4 10.9 53 53 53
-20.4 -19.4 10.8 53 53 53
-19.0 -19.2 10.7 50 50 50
-18.6 -19.3 10.8 49 48 47
-18.1 -19.3 10.8 50 49 48
-17.7 -19.2 10.7 45 47 46
-16.2 -19.4 10.8 106 106 106
-15.8 -19.2 10.7 105 105 105
-15.4 -19.0 10.6 116 118 117
-13.3 -24.3 13.6 33 34 32
-12.9 -24.1 13.5 128 130 129
-10.2 -19.6 11.0 42 43 42
-10.3 -24.0 13.4 180 183 182
47.3 -50.6 28.3 207 207 207
47.6 -50.3 28.1 208 208 208
47.3 -49.3 27.6 205 205 205
47.2 -48.5 27.1 205 205 205
47.3 -47.9 26.8 205 205 205
47.4 -47.4 26.5 205 205 205
46.8 -46.2 25.8 205 205 205
36.4 -33.0 18.4 209 209 209
111.3 -55.3 30.9 166 166 166
105.0 -51.8 29.0 161 164 163
-25.8 -18.5 10.5 70 70 70
-25.6 -18.5 10.5 67 68 66
-25.3 -18.5 10.5 70 70 70
-25.1 -18.5 10.5 65 65 65
-24.8 -18.5 10.5 67 69 67
-24.6 -18.5 10.5 66 66 66
-24.3 -18.5 10.5 63 63 63
-24.1 -18.5 10.5 63 63 63
-23.9 -18.5 10.5 63 63 63
-21.0 -19.5 11.0 59 59 59
-18.7 -18.4 10.4 55 55 55
-18.5 -18.5 10.5 54 54 54
-18.2 -18.4 10.5 54 54 54
-18.0 -18.4 10.4 51 51 51
-17.8 -18.5 10.5 47 48 47
-17.4 -18.6 10.5 46 48 47
-17.0 -18.4 10.4 47 49 48
-15.5 -18.7 10.6 41 41 41
-15.1 -18.5 10.5 32 32 32
-11.0 -18.5 10.5 34 36 34
-10.7 -18.5 10.5 44 46 46
-10.5 -18.4 10.4 123 123 123
-13.3 -23.9 13.6 36 35 34
-12.9 -23.8 13.5 81 81 81
-10.6 -23.7 13.4 183 186 185
-10.3 -23.7 13.4 179 182 181
51.6 -55.3 31.3 207 207 207
47.9 -50.6 28.7 207 207 207
47.7 -49.7 28.1 207 207 207
47.6 -48.9 27.7 207 207 207
47.5 -48.2 27.3 207 207 207
47.4 -47.4 26.9 207 207 207
47.8 -47.2 26.8 208 208 208
46.8 -45.7 25.9 208 208 208
36.1 -33.1 18.8 205 205 205
37.3 -33.4 18.9 205 205 205
38.0 -33.6 19.0 205 205 205
103.7 -50.5 28.6 166 166 166
-37.8 -23.8 13.6 70 72 69
-37.4 -23.8 13.6 71 72 70
-37.1 -23.7 13.6 71 72 70
-33.0 -23.7 13.6 67 69 67
-32.6 -23.7 13.6 66 66 66
-32.4 -23.8 13.6 67 67 67
-18.6 -18.1 10.4 77 79 77
-24.4 -24.0 13.8 67 67 67
-23.9 -23.8 13.7 62 62 62
-17.9 -18.1 10.4 56 56 56
-16.8 -18.0 10.3 47 50 49
-15.5 -18.4 10.6 96 99 98
-15.1 -18.2 10.5 48 48 48
-14.7 -18.0 10.3 74 74 74
-10.9 -18.1 10.4 131 131 131
-10.7 -18.1 10.4 116 118 117
-10.4 -18.1 10.4 135 135 135
-13.3 -23.6 13.6 43 45 45
-12.9 -23.5 13.5 43 45 45
-10.8 -23.6 13.6 182 185 184
-10.4 -23.5 13.5 179 182 181
-10.1 -23.6 13.6 183 183 183
51.9 -54.9 31.5 207 207 207
47.8 -49.2 28.2 207 207 207
47.8 -48.5 27.9 207 207 207
48.1 -48.1 27.6 207 207 207
47.7 -47.1 27.0 207 207 207
48.0 -46.8 26.9 207 207 207
46.6 -44.8 25.7 207 207 207
36.8 -33.3 19.1 208 208 208
38.6 -34.5 19.8 208 208 208
38.7 -34.2 19.6 205 205 205
38.6 -33.7 19.3 205 205 205
93.3 -44.6 25.6 159 162 161
88.3 -41.9 24.1 155 155 155
-41.6 -25.4 14.8 71 72 70
-41.3 -25.4 14.8 71 72 70
-40.9 -25.4 14.8 75 75 75
-40.6 -25.4 14.8 71 72 70
-40.2 -25.4 14.8 71 72 70
-39.9 -25.4 14.8 72 73 71
-39.6 -25.4 14.8 72 73 71
-39.2 -25.4 14.8 75 76 76
-38.9 -25.4 14.8 75 76 76
-38.5 -25.4 14.8 75 76 76
-38.2 -25.4 14.8 73 74 72
-37.8 -25.4 14.8 73 74 72
-37.5 -25.4 14.8 71 71 71
-37.1 -25.4 14.8 71 71 71
-36.8 -25.4 14.8 71 71 71
-36.5 -25.4 14.8 72 72 72
-36.1 -25.4 14.8 72 72 72
-35.8 -25.4 14.8 68 70 68
-35.4 -25.4 14.8 68 70 68
-35.1 -25.4 14.8 67 67 67
-34.7 -25.4 14.8 67 67 67
-34.4 -25.4 14.8 67 67 67
-34.1 -25.4 14.8 67 67 67
-33.7 -25.4 14.8 65 65 65
-33.4 -25.4 14.8 65 65 65
-33.0 -25.4 14.8 66 66 66
-32.6 -25.3 14.7 66 66 66
-26.1 -25.4 14.8 105 105 105
-15.1 -18.0 10.5 85 85 85
-13.3 -23.4 13.6 41 41 41
-10.7 -23.8 13.9 178 181 180
-10.3 -23.7 13.8 183 183 183
-10.7 -25.5 14.8 175 177 177
-10.4 -25.4 14.8 202 202 202
52.4 -54.6 31.8 207 210 209
50.8 -52.3 30.4 208 211 210
48.3 -49.0 28.5 208 211 210
47.9 -48.0 27.9 208 211 210
48.5 -46.6 27.1 207 207 207
47.0 -44.6 25.9 207 207 207
39.7 -35.0 20.4 207 207 207
39.4 -34.3 20.0 207 207 207
39.2 -33.8 19.6 209 212 211
88.1 -41.3 24.0 158 158 158
-41.7 -25.1 14.8 70 72 69
-41.6 -25.2 14.9 71 72 70
-41.2 -25.2 14.9 75 75 75
-40.7 -25.1 14.8 75 75 75
-40.4 -25.1 14.8 71 72 70
-40.2 -25.2 14.9 71 72 70
-39.8 -25.2 14.9 75 75 75
-39.5 -25.3 14.9 75 76 76
-39.1 -25.2 14.9 75 76 76
-38.8 -25.3 14.9 75 76 76
-38.4 -25.2 14.9 75 76 76
-38.0 -25.2 14.8 72 73 71
-37.7 -25.2 14.8 73 74 72
-37.4 -25.2 14.9 73 74 72
-36.9 -25.2 14.8 71 71 71
-36.6 -25.2 14.8 73 74 72
-36.3 -25.2 14.8 71 71 71
-35.9 -25.2 14.8 68 70 68
-35.6 -25.2 14.9 68 70 68
-35.2 -25.1 14.8 68 70 68
-34.8 -25.1 14.8 67 67 67
-34.7 -25.3 14.9 67 67 67
-34.3 -25.2 14.9 67 67 67
-34.0 -25.3 14.9 67 67 67
-33.6 -25.2 14.9 65 65 65
-33.0 -25.1 14.8 65 65 65
-32.7 -25.0 14.8 65 65 65
-10.7 -25.2 14.8 177 180 179
-10.4 -25.2 14.8 189 189 189
-10.0 -25.0 14.7 195 195 195
-1.7 -17.0 10.0 204 207 206
52.6 -54.2 32.0 207 210 209
51.5 -52.2 30.8 207 210 209
48.7 -48.7 28.7 207 210 209
62.3 -60.7 35.8 207 210 209
61.8 -59.4 35.0 208 211 210
40.0 -34.7 20.5 207 207 207
39.7 -34.1 20.1 207 207 207
39.8 -33.8 19.9 207 207 207
44.4 -34.5 20.3 184 184 184
-41.7 -25.0 14.9 68 68 68
-41.4 -25.0 14.9 70 72 69
-33.1 -24.8 14.8 73 73 73
-12.5 -24.8 14.8 39 41 41
-12.2 -24.9 14.9 33 32 30
-11.1 -24.8 14.8 181 184 183
-10.7 -24.8 14.8 178 178 178
-10.4 -24.8 14.8 177 177 177
-10.0 -24.7 14.8 175 177 177
-5.7 -16.9 10.1 192 192 192
-1.2 -17.1 10.2 203 205 205
3.1 -17.4 10.4 104 104 104
3.5 -16.8 10.0 182 182 182
7.5 -16.9 10.1 208 211 210
8.2 -16.9 10.1 208 211 210
9.1 -16.8 10.1 208 211 210
10.7 -16.9 10.1 207 210 209
11.2 -16.8 10.0 207 210 209
11.7 -17.3 10.3 207 210 209
12.0 -17.3 10.3 207 210 209
12.0 -16.9 10.1 207 210 209
12.2 -16.9 10.1 207 210 209
12.4 -16.9 10.1 207 210 209
12.6 -16.8 10.1 207 210 209
13.1 -17.2 10.3 207 210 209
13.0 -16.8 10.0 207 210 209
13.6 -17.2 10.3 207 210 209
13.5 -16.8 10.1 207 210 209
14.1 -17.2 10.3 206 209 208
64.4 -61.9 37.0 207 210 209
40.1 -34.4 20.6 207 207 207
39.5 -33.5 20.0 207 207 207
39.5 -33.1 19.8 207 207 207
45.2 -34.6 20.7 186 186 186
45.7 -34.7 20.7 186 186 186
-12.6 -24.8 15.1 39 41 41
-12.3 -24.8 15.0 47 47 47
-12.1 -25.1 15.2 186 188 187
-11.3 -24.9 15.1 181 184 183
-10.9 -24.9 15.1 176 176 176
-10.6 -24.9 15.1 156 159 158
-5.7 -16.9 10.2 178 178 178
3.1 -17.3 10.5 161 164 163
3.3 -17.1 10.4 183 183 183
7.5 -17.1 10.4 208 211 210
10.2 -17.2 10.4 207 210 209
10.3 -17.1 10.3 207 210 209
10.6 -17.1 10.4 207 210 209
12.1 -17.2 10.4 207 210 209
12.2 -17.0 10.3 207 210 209
12.5 -17.0 10.3 207 210 209
12.7 -17.0 10.3 207 210 209
13.3 -17.2 10.4 206 209 208
13.4 -17.0 10.3 206 209 208
13.7 -17.1 10.4 206 209 208
14.1 -17.2 10.4 206 209 208
14.3 -17.3 10.5 206 209 208
15.0 -17.2 10.4 206 209 208
64.5 -61.2 37.1 207 210 209
64.3 -60.1 36.4 207 210 209
40.0 -33.8 20.5 208 211 210
39.4 -32.9 20.0 208 211 210
39.1 -32.3 19.6 207 207 207
45.1 -34.1 20.7 186 186 186
45.5 -34.0 20.6 186 186 186
-12.5 -25.0 15.4 45 45 45
-12.4 -25.4 15.6 186 188 187
-11.9 -25.2 15.5 186 188 187
-11.5 -25.0 15.4 182 185 184
-11.1 -25.0 15.4 181 181 181
15.2 -17.2 10.6 205 205 205
69.1 -65.4 40.2 209 212 211
65.7 -61.4 37.8 206 209 208
64.5 -59.5 36.6 207 210 209
62.5 -56.8 35.0 206 206 206
39.9 -33.3 20.5 208 211 210
39.0 -32.1 19.7 208 211 210
38.5 -31.3 19.3 208 211 210
44.2 -32.6 20.0 186 186 186
-25.1 -16.5 10.3 75 76 76
-25.0 -16.5 10.3 100 100 100
-31.5 -25.5 15.9 69 71 69
-31.5 -25.8 16.1 81 81 81
-30.8 -25.5 15.9 192 195 194
-30.3 -25.5 15.9 189 191 191
-15.8 -16.5 10.3 56 56 56
-15.3 -16.9 10.6 109 109 109
-14.6 -16.4 10.3 129 129 129
-12.2 -25.4 15.8 186 188 187
-11.9 -25.5 15.9 183 186 185
-11.5 -25.5 15.9 182 182 182
-11.2 -25.7 16.0 158 161 160
70.0 -65.3 40.8 209 212 211
68.6 -63.2 39.4 209 212 211
67.7 -61.5 38.4 209 212 211
65.5 -58.7 36.7 206 209 208
38.9 -31.6 19.7 208 211 210
38.6 -31.0 19.3 208 211 210
41.5 -31.2 19.4 190 190 190
41.9 -31.1 19.4 190 190 190
43.5 -32.0 20.0 190 190 190
43.6 -31.7 19.8 188 188 188
43.4 -31.2 19.5 188 188 188
82.5 -38.2 23.9 180 180 180
57.4 -25.4 15.8 175 175 175
56.0 -24.6 15.4 168 170 169
-28.4 -18.4 11.6 163 163 163
-32.8 -25.9 16.4 69 71 69
-32.5 -25.9 16.4 69 71 69
-32.3 -26.1 16.5 72 72 72
-31.8 -26.0 16.4 134 137 136
-30.7 -25.4 16.1 177 180 179
-30.4 -26.1 16.5 206 206 206
-15.3 -16.7 10.6 33 33 33
-14.5 -16.1 10.2 103 102 100
-15.6 -18.3 11.6 33 33 33
-15.4 -18.3 11.6 116 116 116
-12.2 -16.0 10.1 148 150 150
-12.7 -26.0 16.4 187 189 189
-11.7 -25.6 16.2 180 180 180
-12.1 -27.3 17.3 166 166 166
70.2 -64.5 40.9 209 212 211
69.9 -63.4 40.2 209 212 211
69.9 -62.6 39.7 209 212 211
65.9 -58.2 36.9 209 212 211
44.0 -31.5 20.0 190 190 190
43.3 -30.7 19.4 190 190 190
43.4 -30.5 19.3 190 190 190
81.9 -37.4 23.7 181 181 181
56.2 -24.3 15.4 166 169 168
-28.6 -18.2 11.7 17 17 17
-34.2 -26.6 17.1 65 65 65
-34.0 -26.7 17.2 65 65 65
-33.5 -26.7 17.1 73 74 72
-33.0 -26.5 17.1 77 77 77
-32.3 -27.0 17.3 201 203 203
-31.6 -26.7 17.2 205 205 205
-31.4 -26.9 17.3 208 211 210
-14.5 -15.8 10.2 90 90 90
-15.7 -18.0 11.6 84 85 83
-15.4 -18.0 11.6 69 69 69
-12.2 -15.6 10.0 149 151 151
-12.3 -26.4 17.0 179 179 179
-12.0 -26.7 17.2 169 169 169
-11.7 -26.9 17.3 164 164 164
72.0 -65.3 41.9 208 211 210
70.6 -63.2 40.6 208 211 210
70.4 -62.1 39.9 209 212 211
335.2 -267.6 172.0 207 210 209
316.2 -249.4 160.3 207 210 209
44.2 -31.2 20.0 191 191 191
43.6 -30.5 19.6 191 191 191
42.9 -29.6 19.0 191 191 191
80.2 -36.1 23.2 182 182 182
79.5 -35.5 22.8 182 182 182
60.3 -26.1 16.8 177 177 177
58.5 -25.1 16.1 175 175 175
57.3 -24.5 15.7 168 170 169
-34.4 -26.6 17.4 62 62 62
-33.9 -26.6 17.3 65 65 65
-32.5 -26.7 17.4 104 104 104
-32.1 -27.1 17.7 143 143 142
-15.4 -17.7 11.6 30 29 29
-12.1 -15.4 10.0 33 35 33
-12.8 -26.3 17.2 185 185 185
-12.4 -26.3 17.1 183 183 183
-12.1 -26.5 17.3 173 173 173
-11.7 -26.6 17.3 169 169 169
-11.3 -26.5 17.3 164 164 164
241.2 -221.3 144.4 207 210 209
240.9 -218.0 142.2 208 211 210
255.8 -228.3 148.9 208 211 210
679.2 -547.1 356.9 209 212 211
513.2 -408.4 266.4 209 212 211
409.7 -322.2 210.2 210 213 212
45.4 -31.9 20.8 191 191 191
79.4 -35.7 23.3 184 187 186
79.7 -35.5 23.2 184 187 186
80.2 -35.5 23.2 183 183 183
79.7 -35.1 22.9 183 183 183
59.3 -25.1 16.4 176 176 176
57.5 -24.2 15.8 169 171 170
-38.6 -27.2 18.0 51 51 51
-32.8 -25.6 17.0 62 62 62
-34.6 -27.7 18.3 67 67 67
-33.0 -27.4 18.2 61 60 59
-14.6 -15.6 10.3 29 29 29
-16.3 -17.9 11.8 30 29 29
-15.4 -17.6 11.6 32 32 32
-12.3 -26.6 17.6 175 177 177
-11.9 -26.5 17.6 170 171 170
306.4 -269.4 178.5 207 210 209
346.5 -300.6 199.1 208 211 210
383.4 -328.2 217.4 208 211 210
397.6 -335.9 222.5 208 211 210
398.1 -332.0 220.0 208 211 210
381.1 -313.8 207.9 208 211 210
520.5 -407.9 270.2 209 212 211
449.7 -348.2 230.7 209 212 211
80.1 -35.4 23.5 186 188 187
80.2 -35.2 23.3 184 184 184
80.4 -35.1 23.2 184 184 184
80.2 -34.7 23.0 184 184 184
59.6 -24.9 16.5 172 174 174
-49.7 -26.2 17.6 62 62 62
-38.4 -26.6 17.9 20 23 21
-37.3 -26.2 17.6 39 39 39
-39.4 -28.0 18.8 37 38 37
-34.1 -25.9 17.4 75 75 75
-33.1 -26.4 17.8 64 64 64
-34.6 -28.0 18.8 61 60 59
-33.6 -27.5 18.5 61 60 59
-31.7 -26.3 17.7 58 58 58
-14.6 -15.3 10.3 29 29 29
-16.3 -17.6 11.8 27 27 27
-15.9 -17.5 11.8 29 29 29
-15.5 -17.3 11.7 38 38 38
-13.2 -20.0 13.5 33 32 30
-12.3 -26.2 17.6 176 179 178
-11.9 -26.1 17.6 175 175 175
-11.4 -26.0 17.5 169 169 169
340.9 -299.1 201.2 207 210 209
298.0 -257.9 173.5 207 210 209
350.2 -299.1 201.2 207 210 209
439.0 -360.5 242.5 208 211 210
607.3 -468.6 315.3 209 212 211
466.8 -355.9 239.4 209 212 211
80.7 -35.1 23.6 187 189 189
81.1 -35.1 23.6 185 185 185
81.1 -34.8 23.4 185 185 185
80.2 -34.2 23.0 185 185 185
80.0 -33.9 22.8 185 185 185
81.7 -34.4 23.2 187 189 189
-51.0 -26.5 18.1 56 55 54
-50.6 -26.5 18.1 68 70 68
-50.4 -26.6 18.2 75 75 75
-49.9 -26.6 18.2 72 72 72
-49.3 -26.5 18.1 53 52 52
-49.1 -26.6 18.2 115 114 114
-48.5 -26.5 18.1 128 128 128
-48.1 -26.5 18.1 6 6 6
-47.8 -26.6 18.2 18 22 19
-47.4 -26.6 18.2 24 24 24
-47.0 -26.6 18.2 27 27 27
-46.4 -26.5 18.1 35 35 35
-45.9 -26.5 18.1 29 30 28
-45.7 -26.6 18.2 18 18 18
-45.3 -26.6 18.2 25 25 25
-44.9 -26.6 18.2 27 27 27
-44.4 -26.6 18.2 20 23 21
-43.9 -26.5 18.1 29 30 28
-43.4 -26.5 18.1 54 54 54
-43.0 -26.5 18.1 69 71 69
-42.6 -26.5 18.1 75 76 76
-42.3 -26.6 18.2 68 68 68
-41.9 -26.6 18.2 44 43 42
-41.5 -26.6 18.2 53 52 52
-41.1 -26.6 18.2 68 68 68
-40.6 -26.6 18.2 122 124 123
-40.2 -26.6 18.2 88 90 89
-39.8 -26.6 18.2 125 125 125
-39.4 -26.6 18.2 168 168 168
-38.8 -26.5 18.1 69 69 69
-38.3 -26.5 18.1 14 14 14
-38.1 -26.6 18.2 6 7 7
-37.7 -26.6 18.2 8 9 8
-37.1 -26.5 18.1 18 18 18
-36.7 -26.5 18.1 18 22 19
-36.4 -26.6 18.2 47 47 47
-35.9 -26.5 18.1 42 43 42
-35.4 -26.5 18.1 70 70 70
-35.1 -26.6 18.2 88 88 88
-34.7 -26.6 18.2 70 70 70
-34.3 -26.6 18.2 70 70 70
-33.7 -26.5 18.1 67 69 67
-33.5 -26.7 18.2 70 70 70
-33.0 -26.6 18.2 70 70 70
-32.4 -26.4 18.1 66 66 66
-32.2 -26.6 18.2 72 73 71
-31.8 -26.6 18.2 77 77 77
-31.4 -26.7 18.2 79 81 79
-30.9 -26.6 18.2 146 146 146
-30.4 -26.5 18.1 191 191 191
-30.0 -26.6 18.2 176 179 178
-29.7 -26.7 18.2 123 123 123
-29.3 -26.6 18.2 28 28 28
-28.7 -26.5 18.1 35 34 33
-28.2 -26.4 18.0 30 29 29
-27.9 -26.6 18.2 28 28 28
-27.6 -26.6 18.2 25 25 25
-27.2 -26.7 18.3 22 25 23
-26.6 -26.5 18.1 28 28 28
-26.1 -26.4 18.1 30 30 30
-25.8 -26.6 18.2 28 28 28
-25.4 -26.6 18.2 26 26 26
-25.0 -26.6 18.2 28 28 28
-24.6 -26.6 18.2 33 34 32
-24.1 -26.5 18.1 91 93 92
-23.7 -26.6 18.2 147 147 147
-23.3 -26.6 18.2 145 145 144
-22.8 -26.5 18.1 56 56 56
-22.4 -26.5 18.1 43 43 43
-22.0 -26.6 18.2 84 84 84
-21.6 -26.6 18.2 108 108 106
-21.1 -26.5 18.1 130 130 130
-20.7 -26.5 18.1 30 29 29
-20.3 -26.6 18.2 111 113 112
-19.8 -26.4 18.1 31 32 30
-19.5 -26.6 18.2 87 87 87
-19.0 -26.6 18.2 25 25 25
-18.6 -26.6 18.2 29 29 29
-18.2 -26.6 18.2 29 31 29
-17.7 -26.4 18.1 28 28 28
-13.0 -26.3 18.0 179 182 181
-12.5 -26.2 17.9 178 181 180
-12.2 -26.3 18.0 176 176 176
-11.7 -26.3 18.0 168 168 168
400.5 -345.9 236.5 206 209 208
298.0 -253.9 173.5 207 210 209
382.8 -321.8 220.0 207 210 209
641.5 -532.2 363.8 207 210 209
662.5 -503.2 343.9 209 212 211
512.2 -384.4 262.7 209 212 211
466.5 -345.9 236.5 209 212 211
31.2 -19.3 13.2 195 195 195
31.4 -19.2 13.1 197 197 197
82.7 -35.2 24.1 188 188 188
81.7 -34.6 23.6 188 188 188
80.8 -33.9 23.2 188 188 188
81.3 -33.9 23.2 188 188 188
81.6 -33.8 23.1 188 188 188
-51.6 -26.4 18.3 36 36 36
-51.2 -26.4 18.3 53 52 52
-50.8 -26.4 18.3 80 82 79
-50.3 -26.4 18.3 85 85 85
-49.9 -26.4 18.3 150 150 150
-49.5 -26.4 18.3 62 62 62
-49.0 -26.4 18.3 27 27 27
-48.6 -26.4 18.3 20 23 21
-48.2 -26.4 18.3 25 25 25
-47.8 -26.4 18.3 29 30 28
-47.3 -26.4 18.3 36 36 36
-47.0 -26.4 18.3 48 48 48
-46.5 -26.4 18.3 145 145 144
-46.0 -26.4 18.3 137 137 137
-45.7 -26.4 18.4 53 53 53
-45.3 -26.4 18.4 150 150 150
-44.8 -26.4 18.3 177 177 177
-44.4 -26.4 18.3 176 176 176
-43.9 -26.4 18.3 128 128 128
-43.5 -26.4 18.3 80 82 79
-43.1 -26.4 18.3 77 77 77
-42.7 -26.4 18.3 78 80 78
-42.2 -26.4 18.3 126 126 126
-41.8 -26.4 18.3 173 173 173
-41.4 -26.4 18.3 165 168 167
-41.0 -26.4 18.3 172 174 174
-40.5 -26.4 18.3 186 186 186
-40.1 -26.4 18.3 204 204 204
-39.7 -26.4 18.3 207 210 209
-39.3 -26.4 18.3 189 191 191
-38.7 -26.3 18.3 202 202 202
-38.4 -26.4 18.3 212 213 212
-38.0 -26.4 18.3 211 211 211
-37.5 -26.4 18.3 173 175 175
-37.1 -26.4 18.3 175 177 177
-36.8 -26.4 18.4 159 159 159
-36.3 -26.4 18.4 144 146 146
-35.8 -26.4 18.3 175 177 177
-35.4 -26.4 18.3 218 218 218
-35.0 -26.4 18.3 209 209 209
-34.6 -26.4 18.3 185 185 185
-34.1 -26.4 18.3 180 183 182
-33.8 -26.5 18.4 204 207 206
-33.4 -26.5 18.4 229 229 229
-32.8 -26.3 18.3 179 179 179
-32.5 -26.4 18.3 122 124 123
-32.1 -26.4 18.4 156 156 156
-31.7 -26.5 18.4 180 183 182
-31.1 -26.4 18.3 204 207 206
-30.6 -26.3 18.2 180 180 180
-30.3 -26.4 18.3 212 214 214
-30.0 -26.5 18.4 216 216 216
-29.5 -26.4 18.4 212 214 214
-28.9 -26.3 18.3 134 137 136
-28.6 -26.4 18.3 45 45 45
-28.3 -26.5 18.4 45 45 45
-27.8 -26.5 18.4 62 61 60
-27.4 -26.5 18.4 85 85 85
-26.9 -26.4 18.3 89 90 88
-26.4 -26.4 18.3 106 106 106
-26.1 -26.5 18.4 101 100 98
-25.6 -26.4 18.3 22 25 23
-25.2 -26.4 18.3 41 41 41
-24.8 -26.4 18.3 91 94 93
-24.4 -26.4 18.4 20 23 21
-23.9 -26.4 18.3 22 25 23
-23.5 -26.4 18.4 45 47 46
-23.1 -26.4 18.3 104 104 104
-22.6 -26.4 18.3 46 46 46
-22.2 -26.4 18.3 77 79 77
-21.8 -26.4 18.3 31 32 30
-21.4 -26.4 18.3 109 109 109
-21.0 -26.4 18.4 60 60 60
-20.5 -26.4 18.3 72 72 72
-20.1 -26.4 18.4 121 121 121
-13.2 -26.2 18.2 174 174 174
-12.7 -26.1 18.1 178 178 178
-12.3 -26.3 18.2 176 176 176
-13.1 -28.9 20.0 138 140 139
457.7 -389.1 270.2 206 209 208
667.2 -544.7 378.3 207 210 209
743.6 -555.8 386.0 208 211 210
585.4 -432.3 300.3 209 212 211
678.5 -495.2 343.9 209 212 211
629.3 -453.9 315.3 209 212 211
31.9 -19.8 13.8 195 195 195
31.7 -19.3 13.4 198 198 198
83.8 -35.1 24.4 189 189 189
82.9 -34.5 23.9 189 189 189
82.1 -33.9 23.6 189 189 189
82.3 -33.8 23.5 189 189 189
83.3 -34.0 23.6 189 189 189
-39.5 -22.7 16.0 149 149 149
-39.1 -22.7 16.0 186 186 186
-38.8 -22.7 16.0 178 178 178
-38.4 -22.7 16.0 154 153 151
-38.0 -22.7 16.0 140 142 141
-37.6 -22.7 16.0 150 150 150
-37.3 -22.7 16.0 82 83 81
-36.9 -22.7 16.0 82 83 81
-36.5 -22.7 16.0 197 197 197
-36.2 -22.7 16.0 194 194 194
-35.8 -22.7 16.0 170 171 170
-28.7 -22.9 16.2 158 158 158
-22.9 -22.8 16.1 112 112 112
-22.4 -22.7 16.1 31 32 30
-13.8 -29.0 20.5 164 164 164
-13.3 -28.8 20.3 139 141 140
230.2 -187.4 132.3 206 209 208
32.2 -19.6 13.9 195 195 195
32.3 -19.5 13.8 198 198 198
32.1 -19.2 13.6 198 198 198
83.9 -34.6 24.4 191 194 193
83.2 -34.0 24.0 190 190 190
82.5 -33.5 23.7 190 190 190
82.9 -33.5 23.6 190 190 190
83.5 -33.5 23.6 190 190 190
85.6 -34.1 24.1 186 186 186
67.7 -26.1 18.4 158 158 158
-14.1 -29.0 20.8 181 184 183
-13.5 -28.9 20.7 176 176 176
257.2 -205.9 147.8 210 210 210
427.7 -337.9 242.5 210 210 210
422.5 -329.5 236.5 211 211 211
439.0 -337.9 242.5 211 211 211
32.3 -19.4 13.9 198 198 198
32.3 -19.2 13.8 198 198 198
32.4 -19.1 13.7 198 198 198
82.9 -33.6 24.1 192 195 194
82.4 -33.2 23.8 192 195 194
81.6 -32.6 23.4 191 191 191
81.8 -32.5 23.3 191 191 191
82.4 -32.5 23.4 192 195 194
84.7 -33.2 23.8 188 188 188
84.7 -33.0 23.7 188 188 188
69.7 -26.6 19.1 166 166 166
68.2 -25.9 18.6 159 159 159
259.2 -204.1 148.9 210 210 210
354.9 -275.7 201.2 210 210 210
393.0 -301.4 220.0 210 210 210
244.2 -182.5 133.2 211 211 211
32.7 -19.3 14.1 198 198 198
33.0 -19.3 14.1 199 199 199
81.4 -32.2 23.5 193 196 195
81.1 -31.9 23.3 192 192 192
81.4 -31.8 23.2 192 192 192
82.2 -31.9 23.3 192 192 192
82.3 -31.7 23.2 189 189 189
83.4 -32.0 23.3 186 186 186
68.2 -25.5 18.6 154 154 154
68.2 -25.3 18.5 152 152 152
68.6 -25.3 18.5 141 141 141
-14.5 -31.0 23.0 157 157 157
264.1 -207.1 153.8 209 209 209
249.4 -193.0 143.3 210 210 210
303.3 -231.6 172.0 210 210 210
334.6 -252.3 187.3 210 210 210
257.4 -191.6 142.2 210 210 210
226.7 -166.5 123.6 211 211 211
226.6 -164.4 122.0 211 211 211
265.4 -190.1 141.2 211 211 211
270.7 -191.6 142.2 211 211 211
33.0 -19.0 14.1 199 199 199
82.8 -32.5 24.1 194 197 196
81.8 -31.8 23.6 194 197 196
81.3 -31.4 23.3 190 190 190
81.5 -31.3 23.2 194 197 196
83.0 -31.6 23.5 190 190 190
82.7 -31.3 23.3 190 190 190
84.1 -31.7 23.5 180 183 182
83.8 -31.3 23.3 175 175 175
68.1 -24.9 18.5 140 140 140
68.4 -24.8 18.4 134 137 136
-25.1 -20.6 15.6 214 214 214
-15.6 -31.5 23.8 174 176 176
-15.0 -31.5 23.8 150 152 152
282.4 -217.7 164.5 212 213 212
257.2 -195.6 147.8 209 209 209
340.4 -255.5 193.0 210 210 210
359.6 -266.4 201.2 210 210 210
269.6 -197.1 148.9 210 210 210
237.5 -171.5 129.6 210 210 210
238.9 -170.3 128.7 211 211 211
255.8 -180.1 136.1 211 211 211
439.0 -301.7 227.9 211 211 211
455.3 -309.1 233.5 212 213 212
329.3 -215.8 163.1 214 214 214
83.2 -31.8 24.0 181 184 183
82.4 -31.3 23.6 181 184 183
82.4 -31.1 23.5 185 185 185
84.1 -31.5 23.8 185 185 185
84.7 -31.5 23.8 179 182 181
85.2 -31.5 23.8 179 179 179
85.4 -31.4 23.7 170 171 170
69.0 -24.7 18.7 137 139 138
88.9 -31.7 23.9 134 137 136
89.2 -31.6 23.9 134 134 134
-26.1 -20.8 16.0 206 209 208
-25.0 -20.2 15.5 212 213 212
-17.1 -32.8 25.3 152 152 152
-16.4 -32.7 25.2 90 90 90
-15.6 -32.2 24.7 88 88 88
-15.6 -33.5 25.7 55 55 55
284.9 -215.8 165.9 211 211 211
269.8 -201.6 155.1 209 209 209
351.2 -258.9 199.1 209 209 209
379.8 -276.4 212.5 210 210 210
290.2 -208.5 160.3 205 208 207
251.3 -178.2 137.1 206 209 208
254.5 -178.2 137.1 210 210 210
255.8 -177.0 136.1 211 211 211
528.1 -356.5 274.1 211 211 211
498.3 -332.4 255.6 212 213 212
332.1 -213.9 164.5 212 213 212
86.1 -31.3 24.1 158 158 158
86.5 -31.3 24.0 151 151 151
89.3 -31.3 24.0 136 136 136
-25.7 -20.1 15.7 16 20 17
-25.0 -19.9 15.5 2 7 3
-24.0 -19.4 15.2 18 22 19
-17.4 -32.8 25.7 134 137 136
-16.8 -32.7 25.6 90 90 90
-16.2 -32.8 25.7 89 89 89
-16.0 -33.6 26.3 57 58 56
284.9 -211.9 165.9 211 211 211
279.0 -204.7 160.3 211 211 211
314.7 -227.9 178.5 215 215 215
363.4 -259.8 203.4 216 216 216
311.3 -219.6 172.0 212 213 212
270.9 -188.7 147.8 214 214 214
274.4 -188.7 147.8 214 214 214
271.4 -184.4 144.4 214 214 214
526.8 -345.1 270.2 211 211 211
87.6 -31.1 24.3 131 133 132
83.2 -28.3 22.1 129 129 129
-25.0 -19.5 15.6 27 29 27
-23.9 -19.0 15.1 27 29 27
-17.8 -33.0 26.3 136 138 137
-17.2 -32.9 26.3 91 93 92
-16.9 -33.6 26.8 89 91 90
-16.1 -33.2 26.5 74 76 75
15.0 -12.9 10.3 209 209 209
422.5 -296.5 236.5 212 213 212
422.7 -292.8 233.5 212 213 212
306.9 -209.9 167.4 214 214 214
295.1 -199.3 159.0 214 214 214
552.1 -359.4 286.6 215 215 215
585.4 -376.5 300.3 215 215 215
83.4 -28.0 22.3 121 121 121
83.4 -27.8 22.2 122 122 122
-25.0 -19.1 15.5 27 29 27
-24.1 -18.7 15.2 33 33 33
-21.1 -16.6 13.5 95 94 93
15.0 -12.7 10.3 209 209 209
15.3 -12.7 10.3 209 209 209
512.1 -352.7 286.6 212 213 212
475.5 -323.3 262.7 212 213 212
569.3 -363.7 295.6 215 215 215
614.6 -388.0 315.3 215 215 215
83.4 -27.5 22.3 112 112 112
83.5 -27.3 22.2 112 112 112
84.1 -27.3 22.2 121 121 121
-24.0 -18.3 15.2 27 28 26
-21.0 -16.2 13.4 85 87 87
-20.4 -16.1 13.3 25 25 25
-18.9 -37.6 31.1 64 63 61
496.2 -331.0 274.1 216 216 216
614.6 -380.7 315.3 215 215 215
51.3 -17.0 14.1 108 110 110
-24.0 -17.9 15.1 31 30 29
-20.9 -15.9 13.4 83 84 82
-20.4 -15.7 13.3 40 40 40
-20.1 -37.8 32.0 94 94 94
-19.1 -37.1 31.4 86 86 86
561.3 -367.2 310.1 216 216 216
662.5 -407.3 343.9 217 217 217
682.9 -414.8 350.3 217 217 217
51.4 -16.7 14.1 105 105 105
51.7 -16.7 14.1 102 104 104
51.9 -16.6 14.1 102 104 104
46.5 -14.5 12.3 62 62 62
46.4 -14.4 12.2 155 155 155
-21.0 -15.6 13.4 47 47 47
-20.5 -15.5 13.3 77 78 76
-23.4 -41.5 35.8 88 88 88
-21.6 -39.8 34.3 93 93 93
51.4 -16.4 14.1 101 103 103
51.6 -16.3 14.1 97 97 97
47.3 -14.6 12.6 70 70 70
46.9 -14.4 12.4 77 80 79
46.5 -14.2 12.2 149 151 151
-20.9 -15.3 13.4 212 213 212
-20.5 -15.2 13.3 210 210 210
-24.4 -42.4 37.3 94 94 94
-23.0 -43.1 37.9 86 88 88
-25.6 -49.9 43.9 120 120 120
-20.6 -43.7 38.4 73 73 73
51.3 -16.0 14.1 96 96 96
51.6 -16.0 14.1 84 84 84
47.8 -14.5 12.7 75 75 75
47.2 -14.2 12.5 73 73 73
46.6 -13.9 12.2 156 156 156
46.7 -13.9 12.2 122 124 123
-20.8 -14.9 13.3 229 229 229
-24.1 -44.2 39.7 103 103 103
-26.4 -50.3 45.1 23 23 22
-23.7 -47.2 42.3 23 23 22
50.3 -15.5 13.9 112 114 113
51.1 -15.6 14.0 89 89 89
51.2 -15.6 14.0 77 80 79
51.4 -15.5 13.9 75 75 75
52.1 -15.6 14.0 73 73 73
46.6 -13.6 12.2 160 160 160
46.6 -13.5 12.1 122 124 123
-30.9 -19.3 17.7 104 103 101
-28.6 -18.6 17.1 211 211 211
-27.9 -18.4 16.9 230 230 230
-24.9 -44.8 41.0 110 110 110
-26.6 -49.7 45.6 13 17 14
-24.8 -48.2 44.2 23 23 22
50.4 -15.2 13.9 117 117 117
51.2 -15.3 14.0 109 109 109
51.4 -15.3 14.0 85 85 85
51.5 -15.2 14.0 77 77 77
52.0 -15.3 14.0 77 77 77
52.1 -15.2 13.9 77 77 77
-30.8 -18.9 17.7 53 52 52
-29.8 -18.5 17.3 77 79 77
-28.8 -18.1 16.9 90 90 90
-28.6 -18.2 17.1 110 112 111
-28.0 -18.1 16.9 216 219 218
-27.9 -49.0 45.9 113 114 113
-26.9 -49.3 46.1 18 18 18
-25.7 -49.0 45.9 25 25 23
51.2 -15.0 14.1 116 118 117
51.5 -15.0 14.0 90 90 90
51.5 -14.9 13.9 78 78 78
52.0 -15.0 14.0 78 78 78
52.0 -14.9 13.9 78 78 78
-30.1 -18.2 17.5 73 73 73
-28.5 -49.0 46.9 112 112 112
-27.3 -48.9 46.8 14 18 15
-26.5 -49.4 47.3 23 23 22
30.0 -11.0 10.5 74 76 75
51.2 -14.7 14.0 115 117 116
51.5 -14.7 14.0 92 92 92
51.3 -14.5 13.9 79 81 80
51.8 -14.6 13.9 79 81 80
-29.5 -49.7 48.6 115 114 114
-28.3 -49.4 48.4 23 23 22
-28.9 -52.6 51.5 30 30 30
-28.2 -53.7 52.5 115 114 114
17.0 -11.0 10.8 217 220 219
17.2 -11.0 10.7 217 220 219
258.8 -144.2 141.2 216 216 216
285.5 -157.1 153.8 216 216 216
30.1 -10.8 10.5 80 80 80
1255.1 -394.3 386.0 47 48 47
51.2 -14.4 14.1 123 123 123
51.5 -14.2 14.0 82 84 84
-32.7 -55.9 56.0 46 46 46
-30.8 -54.9 55.0 20 20 20
-29.5 -54.7 54.8 161 164 163
-28.9 -56.0 56.1 178 178 178
15.2 -10.2 10.2 217 220 219
17.0 -10.7 10.7 217 220 219
17.2 -10.7 10.7 217 220 219
270.9 -147.5 147.8 219 222 221
283.2 -152.3 152.6 219 219 219
51.3 -14.0 14.1 138 138 138
-36.3 -60.7 62.2 48 48 48
-32.9 -57.3 58.7 26 26 26
-31.7 -57.5 58.9 160 163 162
-32.0 -60.7 62.2 181 181 181
15.2 -10.0 10.2 217 220 219
16.9 -10.4 10.7 217 220 219
29.1 -9.9 10.1 87 87 87
-41.5 -65.0 68.3 110 110 108
-38.4 -62.5 65.7 28 28 28
-34.9 -59.2 62.2 26 26 26
-35.1 -62.1 65.2 159 159 159
-33.9 -62.7 65.9 178 178 178
15.0 -9.6 10.1 217 220 219
29.3 -9.7 10.2 90 92 91
-44.9 -68.6 73.9 112 112 112
-39.0 -62.1 66.8 30 29 29
-37.2 -64.3 69.3 170 172 172
-36.0 -65.0 70.1 179 179 179
29.3 -9.4 10.2 97 97 97
-52.2 -77.8 86.0 108 108 108
-40.6 -63.0 69.5 27 27 27
256.9 -126.8 140.1 219 222 221
268.1 -130.7 144.4 219 222 221
335.8 -143.9 159.0 175 177 177
327.6 -131.7 145.5 200 200 200
-248.0 -105.6 119.7 70 70 70
-240.7 -103.6 117.5 139 141 140
-70.1 -115.1 130.5 183 186 185
-72.1 -123.6 140.1 180 180 180
251.3 -120.9 137.1 218 218 218
250.8 -119.2 135.1 219 222 221
289.5 -120.9 137.1 174 174 174
295.8 -115.9 131.4 200 200 200
286.9 -111.2 126.1 198 198 198
-366.9 -150.4 175.2 146 148 148
-321.2 -133.1 155.1 129 132 131
-320.2 -134.2 156.3 167 167 167
-334.2 -145.0 168.9 57 57 57
-339.3 -149.0 173.5 55 55 55
-329.3 -146.3 170.4 51 51 51
-90.7 -138.8 161.7 21 21 21
-81.3 -130.0 151.3 178 178 178
-78.5 -131.0 152.6 180 183 182
251.3 -117.7 137.1 219 222 221
287.4 -116.9 136.1 174 176 176
220.7 -88.8 103.4 195 195 195
289.7 -110.5 128.7 200 200 200
251.7 -95.0 110.6 200 200 200
237.6 -88.8 103.4 202 202 202
245.3 -90.7 105.7 202 202 202
-632.9 -246.9 295.6 128 130 129
-616.4 -243.1 291.0 136 136 136
-574.3 -229.1 274.1 146 148 148
-602.9 -243.1 291.0 133 133 133
-538.2 -219.5 262.7 177 180 179
-547.3 -225.8 270.2 115 115 115
-573.8 -239.5 286.6 58 58 58
-534.7 -225.8 270.2 61 60 59
-536.1 -229.1 274.1 58 58 58
-545.5 -235.9 282.3 58 58 58
-147.3 -219.5 262.7 14 18 15
-147.4 -229.1 274.1 175 175 175
-145.2 -235.9 282.3 179 179 179
-142.9 -243.1 291.0 178 181 180
216.0 -84.5 101.2 195 195 195
243.4 -90.3 108.1 200 200 200
236.4 -86.8 103.9 200 200 200
231.2 -84.1 100.6 200 200 200
234.8 -84.5 101.2 202 202 202
-728.5 -279.4 343.9 151 151 151
-660.4 -256.1 315.3 136 136 136
-664.2 -260.4 320.6 129 132 131
-225.2 -301.3 370.9 66 66 66
-170.0 -236.4 291.0 27 27 27
-158.3 -229.3 282.3 23 23 22
-154.1 -232.8 286.6 168 170 169
-154.4 -243.9 300.3 178 178 178
-154.8 -256.1 315.3 177 180 179
-138.3 -240.1 295.6 165 168 167
210.4 -80.0 98.5 192 192 192
168.0 -63.2 77.8 197 197 197
218.4 -78.0 96.0 200 200 200
209.0 -73.9 90.9 200 200 200
27.5 -13.0 16.4 222 224 224
171.6 -62.7 79.5 192 192 192
218.4 -75.8 96.0 200 200 200
209.0 -71.8 90.9 200 200 200
27.5 -12.8 16.7 222 224 224
27.7 -12.7 16.6 222 224 224
159.5 -56.6 73.9 188 188 188
213.1 -71.0 92.7 200 200 200
27.7 -12.5 16.8 222 224 224
27.8 -12.4 16.7 222 224 224
27.4 -12.0 16.2 222 224 224
27.1 -11.7 16.3 222 224 224
27.2 -11.6 16.1 222 224 224
178.3 -59.4 82.6 188 188 188
295.8 -94.5 131.4 197 197 197
27.3 -11.2 16.1 222 224 224
300.0 -92.7 133.2 199 199 199
242.9 -73.6 105.7 200 200 200
18.3 -7.4 11.0 222 224 224
304.2 -90.9 135.1 196 196 196
277.6 -82.1 122.0 197 197 197
237.6 -69.5 103.4 199 199 199
228.7 -66.3 98.5 200 200 200
18.1 -7.0 10.9 223 225 225
17.9 -6.9 10.6 223 225 225
325.1 -93.8 144.4 199 199 199
230.0 -65.0 100.1 200 200 200
-222.6 -66.6 106.3 20 23 21
-222.7 -67.3 107.5 20 23 21
-217.7 -66.6 106.3 35 34 33
18.2 -6.8 10.9 223 225 225
19.3 -6.8 10.9 223 225 225
317.9 -88.4 141.2 197 197 197
298.8 -82.3 131.4 197 197 197
214.2 -58.4 93.2 197 197 197
18.2 -6.6 10.9 224 226 226
19.3 -6.6 10.9 220 223 222
19.2 -6.5 10.8 220 223 222
218.5 -57.3 95.1 198 198 198
184.7 -45.3 75.1 234 234 234
106.6 -95.4 164.5 221 221 221
18.2 -6.3 10.9 224 226 226
19.3 -6.3 10.9 222 224 224
225.2 -56.8 98.0 198 198 198
213.2 -53.2 91.8 202 202 202
198.0 -49.0 84.4 202 202 202
143.7 -33.2 57.3 59 61 60
241.1 -214.9 386.0 221 221 221
122.6 -105.3 189.2 221 221 221
18.4 -6.1 11.0 222 224 224
19.4 -6.1 11.0 222 224 224
239.1 -58.5 105.1 198 198 198
226.4 -54.8 98.5 198 198 198
211.1 -50.6 90.9 198 198 198
199.8 -47.4 85.2 202 202 202
216.5 -49.4 88.8 231 231 231
193.2 -43.7 78.5 236 236 236
149.6 -33.2 59.7 71 73 73
246.2 -210.2 394.1 222 222 222
18.4 -5.9 11.0 222 224 224
19.5 -5.9 11.1 223 225 225
222.9 -51.7 97.0 198 198 198
183.3 -41.7 78.2 202 202 202
192.9 -42.2 79.1 231 230 228
188.5 -40.8 76.6 234 234 234
182.8 -39.3 73.6 117 117 117
18.5 -5.6 11.0 225 227 227
19.6 -5.7 11.1 222 222 222
20.2 -5.7 11.1 223 225 225
228.8 -50.8 99.6 197 197 197
185.6 -40.4 79.1 203 203 203
190.0 -39.4 77.2 235 235 235
172.8 -35.5 69.5 124 124 124
187.5 -146.2 300.3 221 221 221
115.6 -86.9 178.5 218 218 218
18.2 -5.3 10.9 223 225 225
19.6 -5.5 11.2 222 222 222
19.5 -5.4 11.1 222 222 222
19.8 -5.4 11.1 222 222 222
187.9 -39.0 80.2 199 199 199
204.0 -38.5 79.1 62 64 64
199.1 -37.3 76.6 60 63 62
184.6 -137.0 295.6 219 219 219
103.9 -74.3 160.3 219 219 219
18.2 -5.0 10.9 224 224 224
19.5 -5.2 11.2 224 224 224
19.5 -5.1 11.0 224 224 224
19.4 -5.0 10.9 224 224 224
19.7 -5.0 10.9 224 226 226
104.7 -71.2 161.7 220 220 220
18.2 -4.8 10.9 224 224 224
19.6 -4.9 11.2 224 224 224
19.5 -4.9 11.0 224 224 224
19.4 -4.8 10.8 224 224 224
19.7 -4.8 10.9 224 224 224
19.5 -4.6 11.1 221 221 221
19.5 -4.6 10.9 221 221 221
19.6 -4.4 11.1 222 222 222
19.5 -4.3 10.9 222 222 222
19.9 -3.2 11.6 222 222 222
19.7 -3.1 11.2 222 222 222
19.9 -2.9 11.6 222 222 222
19.9 -2.9 11.4 222 222 222
19.7 -2.8 11.2 222 222 222
19.7 -2.7 11.5 224 224 224
19.9 -2.6 11.4 224 224 224
19.7 -2.6 11.2 224 224 224
19.7 -2.4 11.3 225 225 225
19.7 -2.3 11.1 225 225 225
891.8 -46.3 286.6 58 58 58
74.0 -3.4 21.0 104 106 106
73.5 -3.3 20.7 47 50 49
692.0 -39.6 286.6 210 210 210
1168.4 -52.3 378.3 50 50 50
829.0 -36.8 266.4 44 46 46
73.5 -2.9 20.8 149 151 151
713.6 -34.0 295.6 207 207 207
878.5 -32.5 282.3 35 36 34
919.7 -27.1 295.6 38 38 38
72.3 -1.9 20.3 63 62 61
905.6 -19.9 291.0 97 100 99
72.0 -1.4 20.3 69 69 69
20.0 -0.5 11.8 222 224 224
19.6 -0.5 11.1 222 224 224
19.4 -0.5 10.9 222 224 224
19.2 -0.5 10.5 222 224 224
22.0 -0.5 11.8 226 226 226
20.7 -0.5 10.4 220 223 222
24.0 -0.5 11.7 227 227 227
919.7 -13.4 295.6 30 29 29
70.2 -0.9 19.7 77 77 77
19.6 -0.2 11.1 223 225 225
19.3 -0.2 10.8 223 225 225
19.3 -0.2 10.6 223 225 225
19.3 -0.2 10.5 223 225 225
20.8 -0.2 10.6 222 224 224
20.8 -0.2 10.4 222 224 224
20.9 -0.2 10.4 222 224 224
24.0 -0.3 11.7 222 224 224
905.6 -6.4 291.0 32 32 32
19.7 0.0 11.2 223 225 225
19.4 0.0 10.8 223 225 225
19.3 0.0 10.7 222 224 224
24.0 0.0 11.7 223 225 225
672.4 0.4 295.6 179 182 181
840.5 0.4 326.1 47 48 47
919.7 0.4 295.6 33 33 33
19.6 0.3 11.3 223 225 225
19.7 0.3 11.2 224 226 226
23.4 0.3 11.3 223 225 225
1015.6 9.7 394.1 46 46 44
1226.3 9.7 394.1 41 43 41
75.3 0.5 20.0 90 90 90
76.1 1.0 20.2 84 83 81
77.2 1.0 20.4 84 83 81
77.7 1.5 20.7 91 91 91
78.1 1.5 20.6 91 91 91
79.8 2.0 21.4 86 85 83
80.0 2.0 21.3 88 88 88
79.7 2.0 21.0 97 100 99
19.8 1.3 11.4 218 218 218
19.7 1.3 11.2 220 220 220
80.8 2.5 21.6 86 85 83
81.0 2.5 21.5 86 85 83
81.4 2.5 21.5 90 90 90
81.4 2.5 21.4 148 148 148
19.8 1.6 11.4 219 219 219
19.7 1.6 11.2 219 219 219
19.6 1.5 10.9 221 221 221
83.4 3.1 22.3 87 86 84
83.3 3.1 22.2 87 86 84
84.0 3.1 22.2 92 92 92
19.6 1.8 11.3 220 220 220
19.6 1.8 11.1 222 222 222
19.4 1.8 10.9 221 221 221
19.6 1.8 10.8 221 221 221
84.1 3.6 22.2 93 93 93
82.8 3.6 21.7 111 113 112
19.6 2.1 11.2 218 218 218
19.4 2.0 10.8 222 222 222
19.5 2.0 10.8 222 222 222
82.9 4.1 21.9 97 100 99
17.4 2.3 10.9 191 191 191
17.6 2.3 10.8 194 194 194
18.4 2.3 10.8 204 204 204
18.6 2.3 10.8 214 214 214
19.4 2.3 10.8 221 221 221
19.5 2.3 10.8 221 221 221
19.9 2.3 10.8 224 224 224
20.0 2.3 10.8 224 224 224
21.8 2.3 10.9 225 225 225
22.0 2.3 10.9 225 225 225
17.4 2.5 10.9 185 185 185
17.6 2.5 10.9 184 187 186
17.9 2.5 10.8 184 187 186
18.4 2.5 10.9 202 202 202
18.6 2.5 10.9 209 209 209
19.3 2.6 10.9 222 222 222
19.4 2.5 10.8 222 222 222
19.6 2.5 10.8 222 222 222
19.9 2.5 10.9 225 225 225
20.1 2.5 10.8 222 222 222
22.0 2.5 10.9 224 224 224
22.2 2.5 10.8 226 226 226
17.7 2.8 10.9 179 179 179
17.9 2.8 10.9 185 185 185
19.8 2.9 11.4 218 218 218
19.5 2.8 11.0 218 218 218
19.4 2.8 10.9 220 220 220
19.6 2.8 10.8 220 220 220
21.9 2.8 11.0 225 225 225
22.1 2.8 10.9 225 225 225
23.9 3.8 11.7 229 229 229
-108.3 34.2 61.2 87 87 87
-102.3 32.7 58.6 89 89 89
-94.7 34.5 61.6 108 110 110
-90.3 33.4 59.7 105 105 105
-84.4 34.3 61.4 110 112 111
-82.7 34.2 61.2 118 118 118
-81.3 34.2 61.2 118 118 118
-77.4 33.2 59.3 119 121 120
-45.2 34.9 62.4 107 107 107
29.5 34.0 60.8 58 59 59
-345.4 76.5 131.4 131 131 131
-344.8 77.0 132.3 130 130 130
-339.3 76.5 131.4 128 128 128
-336.3 76.5 131.4 131 131 131
-335.5 77.0 132.3 136 138 137
-334.8 77.6 133.2 137 139 138
-348.9 81.6 140.1 139 141 140
-324.0 76.5 131.4 140 142 141
-321.0 76.5 131.4 138 140 139
-315.3 78.1 134.2 128 131 130
-312.2 78.1 134.2 150 150 150
-281.0 78.1 134.2 106 106 106
-272.1 76.5 131.4 109 111 111
-269.1 76.5 131.4 115 115 115
-266.0 76.5 131.4 124 124 124
-263.0 76.5 131.4 119 121 120
-265.5 78.1 134.2 119 121 120
-278.1 82.8 142.2 115 115 115
-291.2 88.8 152.6 109 111 111
-249.4 77.0 132.3 97 97 97
-238.3 75.5 129.6 95 94 93
-107.2 36.2 62.2 100 102 102
-242.4 85.4 146.6 127 127 127
-221.8 79.3 136.1 129 132 131
-208.2 75.5 129.6 129 132 131
-255.0 96.6 165.9 125 125 125
-210.6 81.0 139.1 121 123 122
-216.8 86.1 147.8 125 125 125
-193.7 78.1 134.2 129 129 129
-183.1 77.6 133.2 88 88 86
-177.5 76.5 131.4 84 84 84
-172.0 75.5 129.6 74 74 74
-171.4 76.5 131.4 79 82 81
-169.5 77.0 132.3 80 83 82
-165.3 76.5 131.4 215 215 215
-162.2 76.5 131.4 230 230 230
-143.2 68.8 118.2 237 237 237
-160.9 80.4 138.1 38 40 40
-149.0 76.0 130.5 64 65 63
-148.0 77.0 132.3 72 73 71
-173.3 94.2 161.7 67 67 67
-148.1 82.2 141.2 64 64 64
-140.6 79.8 137.1 65 65 65
-131.7 76.5 131.4 67 69 68
-122.5 76.5 131.4 99 101 101
-115.8 78.1 134.2 146 146 146
-119.4 82.8 142.2 138 140 139
-115.3 82.2 141.2 127 127 127
-111.1 81.6 140.1 118 118 118
-107.1 81.0 139.1 111 113 112
-101.6 79.3 136.1 108 108 108
-94.4 76.0 130.5 105 105 105
-98.5 84.7 145.5 82 84 84
-85.9 76.5 131.4 89 89 89
-89.7 86.1 147.8 151 153 153
-78.4 78.1 134.2 154 156 156
31.5 37.9 65.0 62 62 62
31.6 36.2 62.2 61 61 61
33.1 36.2 62.2 55 56 54
70.9 74.4 127.8 21 21 21
-315.9 115.7 191.1 130 130 130
81.4 112.3 185.5 124 126 125
77.3 101.4 167.4 66 68 67
443.6 118.1 195.0 197 197 197
39.3 44.4 68.0 51 51 51
-532.8 206.0 305.1 118 118 118
-525.7 206.0 305.1 113 115 114
-518.6 206.0 305.1 115 115 115
-511.5 206.0 305.1 121 121 121
-488.6 199.6 295.6 124 126 125
-481.8 199.6 295.6 130 130 130
-474.9 199.6 295.6 132 135 134
-468.0 199.6 295.6 141 141 141
-461.2 199.6 295.6 195 195 195
-454.3 199.6 295.6 195 195 195
-447.4 199.6 295.6 209 209 209
-440.6 199.6 295.6 228 228 228
-433.7 199.6 295.6 235 235 235
-426.8 199.6 295.6 238 238 238
-419.9 199.6 295.6 239 239 239
-413.1 199.6 295.6 239 239 239
-406.2 199.6 295.6 229 229 229
-399.3 199.6 295.6 157 157 157
-392.5 199.6 295.6 121 123 122
-385.6 199.6 295.6 112 114 113
-378.7 199.6 295.6 110 112 111
-371.9 199.6 295.6 120 120 120
-365.0 199.6 295.6 129 132 131
-358.1 199.6 295.6 81 81 81
-351.2 199.6 295.6 36 37 36
-344.4 199.6 295.6 25 25 25
-337.5 199.6 295.6 153 153 153
-325.5 196.5 291.0 134 137 136
-296.0 182.5 270.2 138 138 138
-281.7 177.4 262.7 128 128 128
-291.8 187.9 278.2 102 102 102
-298.5 196.5 291.0 87 89 88
-301.0 202.8 300.3 93 96 95
-294.0 202.8 300.3 154 154 154
-273.1 202.8 300.3 139 139 139
-261.9 199.6 295.6 159 162 161
-255.1 199.6 295.6 158 158 158
-248.2 199.6 295.6 156 156 156
-241.3 199.6 295.6 81 81 81
-227.3 193.6 286.6 144 146 146
-231.2 202.8 300.3 111 113 112
-199.5 206.0 305.1 84 84 84
-192.4 206.0 305.1 112 112 112
-185.3 206.0 305.1 146 146 146
-178.2 206.0 305.1 151 153 153
-171.1 206.0 305.1 159 159 159
-158.9 199.6 295.6 157 157 157
-152.0 199.6 295.6 146 148 148
-145.1 199.6 295.6 137 137 137
-138.3 199.6 295.6 165 165 165
-131.4 199.6 295.6 175 175 175
-124.5 199.6 295.6 237 237 237
-121.5 206.0 305.1 237 237 237
-76.4 199.6 295.6 189 191 191
-43.4 206.0 305.1 198 198 198
127.7 196.5 291.0 93 96 95
143.7 182.5 270.2 58 59 59
190.6 206.0 305.1 61 61 61
-948.1 254.1 363.8 118 120 119
-939.6 254.1 363.8 117 117 117
-931.2 254.1 363.8 119 121 120
-922.7 254.1 363.8 119 121 120
-855.1 254.1 363.8 122 124 123
-846.6 254.1 363.8 128 128 128
-854.6 259.1 370.9 159 159 159
-846.0 259.1 370.9 102 104 104
-837.3 259.1 370.9 112 112 112
-827.7 264.3 378.3 122 122 122
-787.4 254.1 363.8 124 127 126
-810.1 264.3 378.3 124 127 126
-736.7 254.1 363.8 146 146 146
-728.2 254.1 363.8 143 143 142
-711.3 254.1 363.8 150 152 152
-702.9 254.1 363.8 136 138 137
-694.4 254.1 363.8 147 147 147
-690.8 259.1 370.9 136 138 137
-682.2 259.1 370.9 124 126 125
-673.5 259.1 370.9 124 126 125
-652.1 254.1 363.8 126 128 127
-643.7 254.1 363.8 123 125 124
-635.2 254.1 363.8 123 125 124
-626.8 254.1 363.8 123 125 124
-618.3 254.1 363.8 123 125 124
-609.9 254.1 363.8 123 125 124
-601.4 254.1 363.8 122 122 122
-592.9 254.1 363.8 121 121 121
-584.5 254.1 363.8 121 121 121
-576.0 254.1 363.8 127 127 127
-567.6 254.1 363.8 216 216 216
-559.1 254.1 363.8 235 235 235
-550.7 254.1 363.8 238 238 238
-542.2 254.1 363.8 228 228 228
-533.8 254.1 363.8 200 202 202
-525.3 254.1 363.8 224 224 224
-516.9 254.1 363.8 232 232 232
-508.4 254.1 363.8 239 239 239
-499.9 254.1 363.8 232 234 234
-491.5 254.1 363.8 204 204 204
-456.7 240.3 343.9 107 107 107
-448.7 240.3 343.9 122 124 123
-440.7 240.3 343.9 131 134 133
-432.7 240.3 343.9 145 145 144
-424.7 240.3 343.9 136 136 136
-416.7 240.3 343.9 76 78 77
-408.7 240.3 343.9 36 37 36
-400.7 240.3 343.9 26 26 26
-392.7 240.3 343.9 137 139 138
-364.8 227.8 326.1 116 116 116
-345.3 220.2 315.3 99 99 99
-327.1 213.1 305.1 55 55 55
-330.7 220.2 315.3 31 31 31
-334.5 227.8 326.1 48 50 48
-364.7 254.1 363.8 149 149 149
-363.2 259.1 370.9 149 151 151
-347.7 254.1 363.8 148 150 150
-352.9 264.3 378.3 85 85 85
-318.6 244.7 350.3 163 166 165
-284.1 224.0 320.6 161 164 163
-276.7 224.0 320.6 153 153 153
-273.9 227.8 326.1 116 118 117
-271.0 231.8 331.9 90 90 90
-277.9 244.7 350.3 109 109 109
-259.7 259.1 370.9 92 92 92
-246.3 254.1 363.8 90 90 90
-237.8 254.1 363.8 88 88 88
-229.4 254.1 363.8 121 123 122
-220.9 254.1 363.8 144 143 142
-212.5 254.1 363.8 151 153 153
-204.0 254.1 363.8 149 151 151
-195.5 254.1 363.8 159 159 159
-187.1 254.1 363.8 148 150 150
-178.6 254.1 363.8 142 144 143
-170.2 254.1 363.8 166 166 166
-161.7 254.1 363.8 186 186 186
-156.3 259.1 370.9 238 241 240
-150.6 264.3 378.3 238 241 240
-139.0 259.1 370.9 237 240 239
-127.9 254.1 363.8 241 241 241
-85.6 254.1 363.8 176 179 178
-77.2 254.1 363.8 180 180 180
-68.7 254.1 363.8 176 179 178
-59.1 249.3 356.9 189 191 191
-46.4 227.8 326.1 196 196 196
-35.8 209.8 300.3 198 198 198
-18.0 254.1 363.8 205 208 207
16.1 259.1 370.9 228 228 228
127.7 203.3 291.0 130 130 130
167.6 220.2 315.3 58 59 59
214.2 269.7 386.0 25 25 25
214.8 240.3 343.9 63 63 63
-1027.1 284.5 394.1 119 121 120
-1017.9 284.5 394.1 120 122 121
-1008.8 284.5 394.1 120 122 121
-999.6 284.5 394.1 123 125 124
-963.0 284.5 394.1 127 127 127
-953.8 284.5 394.1 124 127 126
-926.3 284.5 394.1 136 138 137
-917.2 284.5 394.1 148 148 148
-908.0 284.5 394.1 175 177 177
-880.5 284.5 394.1 120 120 120
-862.2 284.5 394.1 125 125 125
-853.0 284.5 394.1 126 128 127
-834.7 284.5 394.1 131 131 131
-825.6 284.5 394.1 132 132 132
-798.1 284.5 394.1 138 140 139
-788.9 284.5 394.1 140 142 141
-779.8 284.5 394.1 144 144 144
-770.6 284.5 394.1 138 140 139
-752.3 284.5 394.1 134 134 134
-743.1 284.5 394.1 131 131 131
-734.0 284.5 394.1 126 129 128
-697.3 284.5 394.1 124 126 125
-688.2 284.5 394.1 124 126 125
-679.0 284.5 394.1 123 123 123
-669.8 284.5 394.1 119 119 119
-660.7 284.5 394.1 114 116 115
-651.5 284.5 394.1 114 116 115
-642.4 284.5 394.1 112 114 113
-633.2 284.5 394.1 112 114 113
-614.9 284.5 394.1 124 127 126
-605.7 284.5 394.1 210 210 210
-596.6 284.5 394.1 232 232 232
-587.4 284.5 394.1 197 197 197
-578.2 284.5 394.1 148 150 150
-569.1 284.5 394.1 169 169 169
-559.9 284.5 394.1 149 151 151
-550.8 284.5 394.1 149 151 151
-541.6 284.5 394.1 180 180 180
-532.4 284.5 394.1 162 162 162
-523.3 284.5 394.1 140 140 140
-514.1 284.5 394.1 146 148 148
-505.0 284.5 394.1 152 152 152
-495.8 284.5 394.1 145 145 144
-486.6 284.5 394.1 155 155 155
-477.5 284.5 394.1 66 67 65
-468.3 284.5 394.1 29 30 28
-459.2 284.5 394.1 32 32 32
-450.0 284.5 394.1 90 89 88
-440.8 284.5 394.1 19 19 19
-414.4 273.1 378.3 10 15 11
-405.6 273.1 378.3 25 25 25
-404.9 278.7 386.0 29 29 27
-404.2 284.5 394.1 75 75 73
-358.4 284.5 394.1 169 169 169
-349.2 284.5 394.1 162 165 164
-333.1 278.7 386.0 123 123 123
-330.9 284.5 394.1 103 105 105
-321.8 284.5 394.1 97 97 97
-312.6 284.5 394.1 100 102 102
-303.4 284.5 394.1 126 126 126
-294.3 284.5 394.1 96 99 98
-266.8 284.5 394.1 90 90 90
-257.6 284.5 394.1 91 93 92
-248.5 284.5 394.1 116 116 116
-239.3 284.5 394.1 140 142 141
-230.2 284.5 394.1 144 144 144
-221.0 284.5 394.1 141 141 141
-211.8 284.5 394.1 157 157 157
-202.7 284.5 394.1 145 147 147
-193.5 284.5 394.1 144 146 146
-184.4 284.5 394.1 168 168 168
-138.6 284.5 394.1 199 199 199
-129.4 284.5 394.1 189 191 191
-101.9 284.5 394.1 217 217 217
-92.8 284.5 394.1 148 150 150
-83.6 284.5 394.1 162 165 164
-74.4 284.5 394.1 170 171 170
-65.3 284.5 394.1 189 191 191
-55.0 278.7 386.0 188 188 188
-19.5 284.5 394.1 202 202 202
-10.3 284.5 394.1 217 217 217
-1.2 284.5 394.1 222 222 222
138.3 227.6 315.3 168 168 168
231.2 257.6 356.9 64 64 64
-87.2 125.0 116.8 181 181 181
16.5 11.4 10.5 153 155 155
-28.4 12.0 10.1 193 193 193
-27.7 12.0 10.1 65 67 66
-27.5 12.0 10.1 81 81 81
-22.1 12.0 10.1 53 53 53
-27.2 12.2 10.1 64 65 63
-22.1 12.2 10.1 67 69 67
25.1 15.8 11.2 179 182 181
25.8 14.2 10.0 82 84 84
23.0 15.2 10.6 23 23 21
23.2 15.2 10.5 153 153 153
23.4 15.2 10.5 28 28 28
23.7 15.2 10.5 184 184 184
24.0 15.2 10.5 214 214 214
24.2 15.2 10.5 210 210 210
24.5 15.2 10.6 222 224 224
24.7 15.2 10.6 218 221 220
24.9 15.2 10.5 162 165 164
25.2 15.2 10.6 207 210 209
25.5 15.2 10.6 211 211 211
25.7 15.2 10.6 211 211 211
26.0 15.2 10.6 215 215 215
26.3 15.3 10.6 211 211 211
26.4 15.2 10.5 211 211 211
26.6 15.1 10.5 207 210 209
26.9 15.2 10.5 88 88 88
27.2 15.2 10.6 82 84 84
27.4 15.2 10.6 83 85 85
27.7 15.2 10.6 84 86 86
27.9 15.2 10.6 84 86 86
28.1 15.2 10.5 85 87 87
28.4 15.2 10.5 86 88 88
28.7 15.2 10.6 87 89 88
28.9 15.2 10.5 88 90 89
29.1 15.2 10.5 91 93 92
29.4 15.2 10.6 96 96 96
29.7 15.2 10.6 92 95 94
29.9 15.2 10.6 91 93 92
30.1 15.2 10.6 91 94 93
30.4 15.2 10.6 91 94 93
30.6 15.2 10.6 88 88 88
30.9 15.2 10.6 89 89 89
31.1 15.2 10.6 87 87 87
31.6 15.2 10.6 84 83 81
31.9 15.2 10.6 70 69 68
32.1 15.2 10.6 79 79 79
32.4 15.2 10.6 87 86 84
32.6 15.2 10.6 87 86 84
32.8 15.2 10.6 70 69 68
33.1 15.2 10.6 94 94 94
33.3 15.2 10.6 100 100 100
33.6 15.2 10.6 101 101 101
33.8 15.2 10.6 99 99 99
34.1 15.2 10.6 95 95 95
34.3 15.2 10.6 91 90 89
34.6 15.2 10.6 92 91 90
34.8 15.2 10.6 87 87 87
35.1 15.2 10.6 82 82 82
35.3 15.2 10.6 91 91 91
35.5 15.2 10.5 108 110 110
35.8 15.2 10.5 109 111 111
36.0 15.2 10.5 74 74 74
36.3 15.2 10.6 90 90 90
36.5 15.2 10.5 100 100 100
36.7 15.2 10.5 105 105 105
37.0 15.2 10.5 108 108 108
37.2 15.2 10.6 108 108 108
37.5 15.2 10.6 109 111 111
37.8 15.2 10.6 109 111 111
38.0 15.2 10.6 109 111 111
38.2 15.2 10.5 109 111 111
38.4 15.2 10.5 112 114 113
38.7 15.2 10.5 122 122 122
39.0 15.2 10.6 126 129 128
39.2 15.2 10.5 144 144 144
39.4 15.2 10.5 145 145 144
39.7 15.2 10.6 126 129 128
23.4 15.4 10.5 42 42 42
23.7 15.4 10.5 202 202 202
24.8 15.5 10.6 207 210 209
24.9 15.4 10.5 178 178 178
25.5 15.5 10.6 211 211 211
25.7 15.5 10.5 211 211 211
26.3 15.5 10.6 211 211 211
26.4 15.4 10.5 215 215 215
26.8 15.4 10.5 94 94 94
38.2 15.5 10.5 109 111 111
39.0 15.5 10.6 128 131 130
39.1 15.4 10.5 143 143 142
39.7 15.5 10.5 105 105 105
40.0 15.5 10.6 87 87 87
24.7 16.3 11.0 202 202 202
24.6 16.1 10.8 207 210 209
24.9 16.1 10.8 216 216 216
25.2 16.1 10.8 226 226 226
25.2 16.0 10.8 184 184 184
25.9 16.1 10.8 200 200 200
26.1 16.1 10.8 211 211 211
26.5 16.2 10.9 211 211 211
26.8 16.2 10.9 207 210 209
26.8 16.1 10.8 215 215 215
24.9 16.7 11.1 196 199 198
27.1 16.7 11.0 215 215 215
26.7 16.2 10.7 215 215 215
25.0 17.1 11.1 196 199 198
27.2 17.0 11.1 165 168 167
26.5 16.4 10.7 173 175 175
27.1 19.0 12.2 179 182 181
25.0 17.3 11.1 191 191 191
24.7 16.9 10.9 191 191 191
27.0 17.1 11.0 163 166 165
26.4 16.4 10.5 163 163 163
25.1 17.6 11.1 179 182 181
27.1 17.4 11.0 155 155 155
26.4 16.8 10.6 155 155 155
26.5 16.7 10.6 153 153 153
29.7 19.0 11.8 128 130 129
29.9 19.0 11.8 120 122 121
29.8 18.8 11.7 116 116 116
40.9 18.7 11.7 100 100 100
28.3 18.7 11.5 136 136 136
29.6 19.3 11.8 124 124 124
29.9 19.2 11.8 118 118 118
29.9 19.0 11.7 116 116 116
29.5 18.7 11.5 117 117 117
41.1 19.2 11.8 100 100 100
41.0 19.1 11.7 100 100 100
43.6 19.2 11.8 124 124 124
42.8 18.7 11.5 61 64 63
