ply
format ascii 1.0
element vertex 2572
property float x
property float y
property float z
property uchar red
property uchar green
property uchar blue
end_header
73.4 -420.0 167.4 160 160 160
77.3 -420.0 167.4 159 159 159
81.2 -420.0 167.4 159 159 159
85.1 -420.0 167.4 159 159 159
89.0 -420.0 167.4 159 159 159
92.9 -420.0 167.4 158 158 158
96.8 -420.0 167.4 161 161 161
100.7 -420.0 167.4 161 161 161
104.6 -420.0 167.4 161 161 161
108.5 -420.0 167.4 158 158 158
112.3 -420.0 167.4 161 161 161
116.2 -420.0 167.4 161 161 161
120.1 -420.0 167.4 162 162 162
124.0 -420.0 167.4 164 164 164
127.9 -420.0 167.4 165 165 165
131.8 -420.0 167.4 165 165 165
135.7 -420.0 167.4 165 165 165
139.6 -420.0 167.4 165 165 165
143.5 -420.0 167.4 165 165 165
147.4 -420.0 167.4 165 165 165
151.3 -420.0 167.4 165 165 165
156.5 -423.8 168.9 165 165 165
157.6 -416.3 165.9 165 165 165
162.9 -420.0 167.4 165 165 165
166.8 -420.0 167.4 165 165 165
170.7 -420.0 167.4 165 165 165
174.6 -420.0 167.4 163 163 163
178.5 -420.0 167.4 163 163 163
180.8 -416.3 165.9 163 163 163
184.6 -416.3 165.9 163 163 163
190.2 -420.0 167.4 163 163 163
194.1 -420.0 167.4 163 163 163
197.9 -420.0 167.4 160 160 160
201.8 -420.0 167.4 161 161 161
203.9 -416.3 165.9 161 161 161
209.6 -420.0 167.4 161 161 161
215.4 -423.8 168.9 161 161 161
217.4 -420.0 167.4 161 161 161
219.4 -416.3 165.9 161 161 161
101.6 -166.5 66.4 157 160 159
102.8 -165.9 66.1 154 156 156
105.1 -167.1 66.6 155 158 157
106.6 -167.1 66.6 155 158 157
107.4 -165.9 66.1 156 159 158
53.1 -75.6 30.1 158 161 160
53.7 -75.3 30.0 158 161 160
54.4 -75.5 30.1 157 157 157
55.2 -75.6 30.1 157 157 157
55.7 -75.3 30.0 158 158 158
56.4 -75.3 30.0 158 158 158
57.3 -75.6 30.1 156 156 156
58.0 -75.6 30.1 154 154 154
58.6 -75.5 30.1 157 157 157
59.2 -75.3 30.0 155 155 155
62.6 -44.2 17.6 91 91 91
62.9 -44.2 17.6 94 94 94
63.2 -44.1 17.6 91 91 91
63.7 -44.1 17.6 141 141 141
64.3 -44.2 17.6 177 177 177
64.6 -44.2 17.6 195 195 195
64.9 -44.1 17.6 198 201 200
251.3 -489.8 197.0 161 161 161
210.0 -401.9 161.7 161 161 161
109.3 -174.8 70.3 157 160 159
112.2 -176.8 71.1 158 161 160
115.1 -178.8 71.9 158 161 160
113.8 -174.2 70.1 156 159 158
53.9 -76.0 30.6 158 161 160
54.3 -75.5 30.4 158 161 160
56.6 -75.8 30.5 160 163 162
64.7 -83.5 33.6 157 157 157
59.8 -75.4 30.3 158 158 158
59.9 -41.4 16.6 96 96 96
59.9 -41.1 16.5 180 180 180
60.5 -41.2 16.6 163 163 163
60.9 -41.2 16.6 198 201 200
61.0 -41.1 16.5 197 197 197
61.3 -41.0 16.5 201 203 203
61.6 -40.9 16.5 158 158 158
62.7 -41.4 16.7 197 197 197
62.3 -40.9 16.5 209 209 209
62.4 -40.7 16.4 214 214 214
31.9 -189.4 76.9 155 158 157
33.9 -190.1 77.2 160 160 160
35.7 -190.1 77.2 154 156 156
36.6 -185.6 75.4 159 159 159
38.3 -185.6 75.4 162 162 162
40.1 -185.6 75.4 162 162 162
41.8 -185.6 75.4 158 158 158
43.6 -185.6 75.4 161 161 161
45.3 -185.6 75.4 164 164 164
47.1 -185.6 75.4 164 164 164
48.8 -185.6 75.4 164 164 164
50.6 -185.6 75.4 164 164 164
52.3 -185.6 75.4 164 164 164
54.1 -185.6 75.4 166 166 166
55.8 -185.6 75.4 167 167 167
57.4 -184.8 75.1 167 167 167
59.3 -185.6 75.4 167 167 167
61.1 -185.6 75.4 167 167 167
62.8 -185.6 75.4 165 165 165
64.6 -185.6 75.4 165 165 165
66.1 -184.8 75.1 165 165 165
68.1 -185.6 75.4 165 165 165
69.8 -185.6 75.4 165 165 165
71.6 -185.6 75.4 165 165 165
73.3 -185.6 75.4 163 163 163
74.8 -184.8 75.1 163 163 163
76.5 -184.8 75.1 163 163 163
78.6 -185.6 75.4 163 163 163
80.4 -185.6 75.4 163 163 163
82.4 -186.3 75.7 163 163 163
83.5 -184.8 75.1 163 163 163
85.3 -184.8 75.1 163 163 163
87.4 -185.6 75.4 163 163 163
88.8 -184.8 75.1 164 164 164
90.1 -184.1 74.8 164 164 164
91.5 -183.4 74.5 164 164 164
95.1 -187.1 76.0 164 164 164
94.6 -182.7 74.2 164 164 164
104.6 -194.9 79.1 164 164 164
101.8 -186.3 75.7 164 164 164
112.0 -194.9 79.1 162 162 162
108.0 -184.8 75.1 162 162 162
115.7 -194.9 79.1 162 162 162
118.0 -195.7 79.5 162 162 162
112.3 -183.4 74.5 162 162 162
113.1 -182.0 73.9 162 162 162
114.9 -182.0 73.9 162 162 162
118.9 -185.6 75.4 163 163 163
121.1 -186.3 75.7 158 161 160
118.6 -179.9 73.0 158 161 160
54.9 -76.6 31.1 158 161 160
55.0 -75.7 30.8 158 161 160
56.2 -76.5 31.1 159 162 161
58.3 -78.3 31.8 159 162 161
57.5 -76.2 31.0 160 163 162
58.5 -40.0 16.3 100 102 102
57.9 -39.4 16.0 192 192 192
58.3 -39.4 16.0 150 150 150
59.0 -39.6 16.1 197 197 197
59.2 -39.5 16.0 197 197 197
59.9 -39.7 16.1 201 203 203
60.3 -39.7 16.1 175 175 175
60.3 -39.4 16.0 168 170 169
60.6 -39.4 16.0 214 214 214
60.8 -39.3 15.9 195 195 195
61.2 -39.3 16.0 189 189 189
58.7 -150.8 61.8 165 165 165
72.9 -150.3 61.6 164 164 164
79.6 -152.3 62.4 164 164 164
102.5 -189.1 77.5 164 164 164
99.0 -179.5 73.6 164 164 164
84.6 -150.8 61.8 164 164 164
90.1 -152.8 62.6 165 165 165
345.6 -576.8 236.5 165 165 165
122.8 -189.9 77.8 166 166 166
126.2 -192.3 78.8 163 163 163
122.9 -184.6 75.7 164 164 164
101.2 -149.8 61.4 164 164 164
56.3 -77.8 31.9 161 164 163
56.6 -77.3 31.7 161 164 163
58.4 -78.7 32.3 159 162 161
60.2 -80.1 32.8 159 162 161
64.1 -80.2 32.9 159 159 159
100.9 -73.6 30.2 100 102 102
94.2 -68.3 28.0 100 102 102
57.5 -38.7 15.9 192 192 192
57.6 -38.5 15.8 150 150 150
58.4 -38.8 15.9 198 201 200
58.7 -38.8 15.9 197 197 197
59.3 -38.9 15.9 201 203 203
59.5 -38.8 15.9 208 208 208
59.2 -38.4 15.7 216 216 216
59.5 -38.3 15.7 198 201 200
59.5 -38.1 15.6 192 192 192
77.3 -136.4 56.5 166 166 166
84.7 -142.4 58.9 167 167 167
257.0 -411.7 170.4 165 165 165
56.0 -85.7 35.5 166 166 166
123.6 -186.5 77.2 166 166 166
115.1 -171.2 70.8 166 166 166
91.3 -65.5 27.1 100 102 102
57.4 -36.8 15.2 208 208 208
56.7 -36.2 15.0 184 187 186
56.9 -36.1 14.9 216 216 216
57.1 -36.0 14.9 214 214 214
40.8 -85.9 35.9 166 166 166
44.9 -85.7 35.8 169 169 169
45.2 -84.8 35.4 169 169 169
46.6 -85.9 35.9 169 169 169
47.3 -85.6 35.8 169 169 169
253.0 -407.8 170.4 170 171 170
245.9 -390.2 163.1 170 171 170
55.8 -85.9 35.9 170 171 170
55.4 -84.0 35.1 172 172 172
123.6 -184.7 77.2 172 172 172
120.5 -177.5 74.2 168 168 168
83.2 -58.7 24.5 97 100 99
55.7 -35.2 14.7 216 216 216
54.4 -34.2 14.3 219 219 219
55.2 -34.5 14.4 218 218 218
37.6 -78.5 33.1 170 172 172
39.2 -80.0 33.8 168 168 168
40.2 -79.1 33.4 169 169 169
41.1 -79.3 33.5 171 173 173
41.9 -79.3 33.5 171 173 173
43.1 -80.0 33.8 171 173 173
43.0 -78.5 33.1 171 173 173
44.7 -80.0 33.8 171 173 173
45.4 -80.0 33.8 171 173 173
46.7 -80.9 34.1 171 173 173
48.0 -81.6 34.5 171 173 173
48.0 -80.3 33.9 171 173 173
49.7 -81.9 34.6 175 177 177
49.9 -80.9 34.1 172 174 174
280.8 -448.2 189.2 175 177 177
221.1 -347.5 146.6 172 174 174
148.5 -226.4 95.5 172 174 174
53.8 -80.8 34.1 173 175 175
53.7 -79.5 33.5 173 175 175
28.7 -39.6 16.7 175 177 177
80.3 -56.1 23.7 100 102 102
36.5 -76.9 32.8 170 172 172
37.1 -76.7 32.7 173 175 175
39.5 -76.8 32.7 179 179 179
40.3 -76.9 32.8 179 179 179
41.1 -76.9 32.8 179 179 179
41.7 -76.8 32.7 180 180 180
42.1 -76.0 32.4 174 176 176
43.1 -76.5 32.6 174 176 176
44.2 -77.1 32.8 179 179 179
45.1 -77.3 33.0 179 179 179
46.7 -78.7 33.5 181 181 181
46.9 -77.7 33.1 175 177 177
47.3 -77.2 32.9 180 180 180
48.1 -77.2 32.9 175 177 177
212.9 -331.2 141.2 175 177 177
185.7 -284.5 121.3 175 177 177
155.6 -234.8 100.1 172 174 174
52.3 -77.7 33.1 176 179 178
52.8 -77.5 33.0 173 175 175
53.7 -77.6 33.1 173 175 175
175.6 -246.6 105.1 177 180 179
28.0 -37.8 16.1 175 177 177
76.2 -53.1 22.6 100 102 102
78.1 -54.1 23.0 100 102 102
74.7 -51.4 21.9 97 100 99
35.7 -74.6 32.1 189 189 189
42.2 -74.2 32.0 198 198 198
43.4 -75.0 32.3 200 200 200
44.4 -75.4 32.4 198 198 198
45.9 -76.6 33.0 200 200 200
46.2 -75.9 32.7 198 198 198
46.0 -74.4 32.0 198 198 198
46.5 -74.0 31.8 198 198 198
181.0 -274.7 118.2 198 198 198
149.3 -223.1 96.0 195 195 195
51.5 -75.8 32.6 196 196 196
52.6 -76.3 32.8 196 196 196
53.4 -76.4 32.9 199 199 199
164.6 -228.9 98.5 197 197 197
27.9 -38.2 16.5 197 197 197
28.1 -38.0 16.3 198 198 198
27.9 -37.2 16.0 198 198 198
27.8 -36.6 15.7 196 196 196
72.6 -49.8 21.4 100 102 102
72.4 -49.3 21.2 97 100 99
36.4 -68.1 29.6 204 204 204
37.9 -68.4 29.7 204 204 204
38.4 -68.1 29.6 200 200 200
40.8 -68.6 29.8 204 204 204
44.7 -72.6 31.6 204 204 204
44.4 -71.0 30.9 204 204 204
43.7 -68.7 29.9 204 204 204
43.9 -68.0 29.6 204 204 204
44.5 -67.9 29.5 204 204 204
146.3 -216.4 94.1 204 204 204
130.3 -190.0 82.6 205 205 205
154.9 -213.3 92.7 206 206 206
149.7 -203.3 88.4 206 206 206
27.9 -36.8 16.0 204 204 204
27.5 -35.8 15.6 204 204 204
27.2 -35.1 15.2 205 205 205
35.7 -66.2 29.1 204 204 204
37.1 -66.3 29.1 204 204 204
40.1 -66.8 29.3 204 204 204
42.8 -67.7 29.7 204 204 204
42.8 -66.7 29.3 204 204 204
42.7 -65.4 28.7 204 204 204
41.5 -62.6 27.5 204 204 204
150.0 -219.7 96.5 204 204 204
132.0 -190.6 83.7 205 205 205
132.2 -188.1 82.6 205 205 205
128.5 -180.2 79.1 205 205 205
150.5 -208.0 91.4 206 206 206
152.7 -208.0 91.4 206 206 206
146.3 -196.6 86.4 206 206 206
28.0 -37.2 16.3 207 207 207
40.0 -65.9 29.2 207 207 207
42.6 -66.7 29.6 204 204 204
42.4 -65.4 29.0 204 204 204
42.5 -64.5 28.6 204 204 204
40.7 -60.9 27.0 204 204 204
39.7 -58.4 25.9 204 204 204
129.2 -184.5 81.9 205 205 205
127.8 -179.9 79.8 205 205 205
124.4 -172.6 76.6 205 205 205
139.7 -191.1 84.8 206 206 206
145.0 -195.5 86.8 206 206 206
143.0 -190.3 84.4 206 206 206
27.8 -36.5 16.2 207 207 207
27.9 -36.2 16.1 207 207 207
32.0 -64.1 28.7 207 207 207
32.2 -63.2 28.4 207 207 207
36.7 -63.1 28.3 207 207 207
40.4 -65.9 29.6 207 207 207
40.1 -64.3 28.8 207 207 207
42.4 -65.8 29.5 207 207 207
42.7 -65.2 29.2 207 207 207
42.9 -64.5 28.9 207 207 207
42.3 -62.6 28.1 207 207 207
122.9 -168.7 75.7 205 205 205
57.3 -77.5 34.8 205 205 205
27.9 -36.2 16.2 206 206 206
27.8 -35.7 16.0 206 206 206
27.7 -35.0 15.7 207 207 207
27.0 -33.7 15.1 207 207 207
37.4 -64.7 29.3 206 206 206
40.4 -65.2 29.6 206 206 206
42.6 -65.3 29.6 206 206 206
43.2 -65.2 29.6 206 206 206
43.4 -64.5 29.2 206 206 206
42.4 -62.0 28.1 206 206 206
39.9 -56.7 25.7 206 206 206
27.8 -35.2 16.0 206 206 206
27.4 -34.2 15.5 206 206 206
26.9 -33.3 15.1 206 206 206
32.3 -64.7 29.6 206 206 206
32.7 -64.1 29.4 206 206 206
32.8 -63.0 28.8 206 206 206
37.5 -64.2 29.4 206 206 206
40.8 -65.0 29.8 206 206 206
41.5 -65.0 29.8 206 206 206
42.6 -64.7 29.6 206 206 206
43.2 -64.5 29.6 205 205 205
43.6 -64.1 29.4 205 205 205
43.3 -62.8 28.7 205 205 205
39.9 -56.1 25.7 206 206 206
61.6 -80.5 36.9 207 207 207
27.8 -34.9 16.0 205 205 205
27.4 -33.9 15.5 205 205 205
27.0 -33.0 15.1 206 206 206
23.8 -26.6 12.2 208 208 208
23.9 -26.4 12.1 208 208 208
-21.3 -22.7 10.5 90 90 90
-21.0 -22.7 10.5 94 94 94
-18.8 -22.6 10.5 106 108 108
-18.5 -22.6 10.5 106 108 108
-17.8 -22.6 10.5 112 112 112
-17.4 -22.5 10.4 112 112 112
-14.6 -22.2 10.3 122 122 122
-14.2 -22.7 10.5 124 124 124
-13.9 -22.6 10.5 126 126 126
32.7 -64.9 30.0 205 205 205
33.0 -64.1 29.6 205 205 205
32.8 -62.4 28.9 205 205 205
37.2 -64.3 29.7 205 205 205
37.6 -63.7 29.5 205 205 205
37.5 -62.4 28.9 205 205 205
42.8 -65.3 30.2 205 205 205
43.1 -64.8 30.0 208 208 208
43.4 -64.2 29.7 205 205 205
43.7 -63.6 29.4 205 205 205
43.5 -62.3 28.8 205 205 205
39.7 -55.2 25.6 205 205 205
61.4 -79.4 36.7 206 206 206
27.9 -34.6 16.0 207 207 207
27.4 -33.6 15.6 207 207 207
26.8 -32.4 15.0 205 205 205
27.0 -32.3 14.9 205 205 205
23.7 -26.6 12.3 207 207 207
23.9 -26.5 12.3 207 207 207
24.0 -26.3 12.2 207 207 207
-29.7 -22.6 10.6 46 46 44
-27.4 -22.7 10.6 46 46 44
-21.8 -22.7 10.6 47 48 47
-21.5 -22.7 10.6 63 63 63
-21.2 -22.6 10.6 79 82 81
-20.9 -22.6 10.6 86 88 88
-19.0 -22.6 10.6 106 106 106
-18.7 -22.6 10.6 108 110 110
-18.3 -22.7 10.6 107 109 109
-18.0 -22.6 10.6 107 109 109
-14.3 -22.6 10.6 120 122 121
-14.0 -22.5 10.5 118 120 119
-10.5 -22.9 10.7 131 131 131
6.6 -22.7 10.6 208 208 208
43.5 -63.6 29.7 207 207 207
43.9 -63.3 29.6 204 204 204
43.5 -61.7 28.9 204 204 204
39.9 -54.9 25.7 205 205 205
38.2 -51.8 24.2 205 205 205
38.4 -51.3 24.0 205 205 205
61.5 -78.7 36.8 206 206 206
64.0 -80.7 37.8 206 206 206
26.7 -32.0 15.0 204 204 204
27.0 -31.9 14.9 205 205 205
27.2 -31.7 14.8 205 205 205
27.4 -31.6 14.8 205 205 205
23.8 -26.1 12.2 206 206 206
24.0 -26.0 12.2 207 207 207
-31.4 -23.6 11.1 47 46 45
-37.1 -28.1 13.3 49 49 49
-36.8 -28.1 13.3 49 49 49
-36.5 -28.1 13.3 49 49 49
-36.2 -28.1 13.3 49 49 49
-35.9 -28.1 13.3 49 49 49
-35.6 -28.1 13.3 49 49 49
-35.3 -28.1 13.3 49 49 49
-35.0 -28.1 13.3 51 51 51
-29.1 -23.6 11.1 49 49 49
-34.3 -28.1 13.3 49 49 49
-34.0 -28.1 13.3 49 49 49
-33.7 -28.1 13.3 47 46 45
-33.4 -28.1 13.3 47 46 45
-33.1 -28.1 13.3 47 46 45
-32.8 -28.1 13.3 47 46 45
-32.5 -28.1 13.3 44 44 44
-32.2 -28.1 13.3 44 44 44
-31.9 -28.1 13.3 44 44 44
-31.6 -28.1 13.3 42 42 42
-31.2 -28.1 13.3 42 42 42
-31.0 -28.1 13.3 39 39 39
-30.6 -28.1 13.3 39 39 39
-30.3 -28.1 13.3 42 42 42
-30.0 -28.1 13.3 42 42 42
-29.7 -28.1 13.3 44 44 44
-29.4 -28.1 13.3 42 42 42
-27.3 -28.1 13.3 42 42 42
-26.9 -28.1 13.3 47 46 45
-26.6 -28.1 13.3 47 46 45
-26.3 -28.1 13.3 47 46 45
-26.0 -28.1 13.3 69 69 69
-25.9 -28.3 13.4 89 91 90
-25.4 -28.2 13.3 93 93 93
-25.1 -28.2 13.3 95 95 95
-23.2 -28.1 13.3 105 105 105
-22.9 -28.1 13.3 104 104 104
7.2 -23.5 11.1 208 208 208
8.0 -23.6 11.1 208 208 208
8.3 -23.6 11.1 208 208 208
8.8 -24.3 11.5 208 208 208
9.1 -24.3 11.5 208 208 208
9.9 -24.3 11.5 208 208 208
10.1 -24.3 11.5 208 208 208
11.1 -23.6 11.1 207 207 207
11.7 -24.3 11.5 207 207 207
12.3 -24.3 11.5 207 207 207
12.5 -24.3 11.5 210 210 210
12.8 -24.3 11.5 207 207 207
41.1 -56.8 26.9 207 207 207
40.1 -54.6 25.8 207 207 207
39.1 -52.3 24.8 207 207 207
39.3 -51.9 24.6 207 207 207
62.2 -78.7 37.2 205 205 205
65.1 -81.3 38.4 205 205 205
65.5 -80.6 38.1 206 206 206
27.1 -31.7 15.0 207 207 207
27.4 -31.6 14.9 204 204 204
27.5 -31.3 14.8 205 205 205
24.0 -25.7 12.2 206 206 206
-37.5 -27.9 13.3 44 44 44
-35.5 -28.0 13.4 49 49 49
-32.1 -28.0 13.4 45 45 45
-31.8 -28.0 13.4 45 45 45
-31.4 -27.9 13.3 42 43 42
-29.4 -27.8 13.3 42 43 42
-29.0 -28.0 13.4 40 40 40
-28.7 -28.0 13.4 40 40 40
-28.4 -28.0 13.4 38 38 38
-28.0 -28.0 13.4 38 38 38
-27.6 -27.9 13.3 40 40 40
-27.4 -28.0 13.4 41 41 41
-27.1 -27.9 13.4 41 41 41
-26.8 -27.9 13.4 43 43 43
-26.5 -27.9 13.4 45 45 45
-26.2 -28.0 13.4 45 45 45
-26.0 -28.1 13.4 49 49 49
-25.6 -28.0 13.4 39 39 39
-24.6 -28.0 13.4 95 95 95
-24.2 -27.9 13.3 89 91 90
-24.1 -28.1 13.4 96 96 96
-23.7 -28.0 13.4 99 101 101
-23.4 -28.0 13.4 98 100 100
-23.0 -27.9 13.3 98 100 100
-13.6 -27.8 13.3 119 119 119
7.2 -24.0 11.5 207 207 207
7.4 -23.9 11.4 207 207 207
12.5 -29.0 13.9 207 207 207
12.0 -24.1 11.5 207 207 207
12.3 -24.1 11.5 207 207 207
12.5 -24.0 11.5 207 207 207
13.6 -24.0 11.5 207 207 207
41.3 -57.3 27.4 206 206 206
41.1 -56.1 26.8 206 206 206
40.6 -54.5 26.1 206 206 206
40.2 -53.3 25.5 206 206 206
40.3 -52.6 25.2 207 207 207
41.1 -52.9 25.3 207 207 207
63.7 -79.7 38.1 205 205 205
66.9 -82.6 39.5 205 205 205
68.0 -82.7 39.6 205 205 205
27.6 -31.4 15.0 206 206 206
27.4 -30.9 14.8 204 204 204
27.7 -30.8 14.7 204 204 204
28.4 -31.2 14.9 204 204 204
-41.4 -30.4 14.7 48 47 46
-26.6 -30.3 14.7 90 90 90
-15.3 -30.2 14.6 112 112 112
-14.3 -28.8 13.9 111 111 111
-13.9 -28.8 13.9 109 111 111
-13.6 -28.7 13.9 115 114 114
-13.3 -28.8 13.9 115 114 114
-10.5 -23.3 11.3 107 109 109
6.2 -22.0 10.7 207 207 207
6.4 -21.9 10.6 207 207 207
12.0 -28.9 14.0 206 206 206
12.3 -28.9 14.0 206 206 206
12.6 -28.8 13.9 206 206 206
12.9 -28.8 14.0 206 206 206
13.3 -29.0 14.0 206 206 206
13.6 -28.9 14.0 206 206 206
13.9 -28.8 13.9 206 206 206
14.2 -28.8 14.0 206 206 206
14.6 -28.9 14.0 206 206 206
15.5 -28.8 13.9 206 206 206
15.8 -28.8 13.9 206 206 206
16.8 -28.8 13.9 206 206 206
17.5 -28.9 14.0 206 206 206
41.6 -57.1 27.6 206 206 206
41.4 -55.9 27.1 206 206 206
41.1 -54.6 26.4 206 206 206
42.3 -53.9 26.1 206 206 206
68.9 -84.1 40.7 204 204 204
70.2 -84.5 40.9 207 207 207
73.8 -87.7 42.4 205 205 205
74.3 -87.1 42.1 205 205 205
27.3 -30.4 14.7 206 206 206
27.4 -30.2 14.6 206 206 206
28.0 -30.4 14.7 206 206 206
-42.1 -30.6 15.0 51 51 51
-42.2 -30.9 15.1 53 52 52
-41.8 -30.9 15.1 51 51 51
-41.5 -30.9 15.1 51 51 51
-41.1 -30.9 15.1 51 51 51
-40.7 -30.9 15.1 51 51 51
-40.4 -30.9 15.1 53 52 52
-40.0 -30.9 15.1 55 55 55
-39.7 -30.9 15.1 53 53 53
-39.3 -30.9 15.1 53 53 53
-39.0 -30.9 15.1 51 51 51
-38.6 -30.9 15.1 51 51 51
-38.3 -30.9 15.1 53 53 53
-37.9 -30.9 15.1 51 51 51
-37.6 -30.9 15.1 51 51 51
-37.3 -30.9 15.1 50 49 48
-36.9 -30.9 15.1 50 49 48
-36.5 -30.9 15.1 46 46 46
-36.2 -30.9 15.1 46 46 46
-35.9 -30.9 15.1 46 46 46
-35.5 -30.9 15.1 47 47 47
-35.2 -30.9 15.1 47 47 47
-34.8 -30.9 15.1 44 44 44
-34.4 -30.9 15.1 47 47 47
-34.1 -30.9 15.1 47 47 47
-33.8 -30.9 15.1 47 47 47
-33.4 -30.9 15.1 47 47 47
-33.0 -30.9 15.1 47 47 47
-32.7 -30.9 15.1 47 47 47
-32.3 -30.9 15.1 44 44 44
-32.0 -30.9 15.1 44 44 44
-31.6 -30.9 15.1 47 47 47
-31.3 -30.9 15.1 44 44 44
-30.9 -30.9 15.1 42 43 42
-30.6 -30.9 15.1 42 43 42
-30.3 -30.9 15.1 45 45 45
-29.9 -30.9 15.1 42 43 42
-29.5 -30.8 15.1 41 41 41
-29.2 -30.9 15.1 38 38 38
-28.8 -30.9 15.1 41 41 41
-28.5 -30.9 15.1 43 43 43
-28.2 -31.0 15.2 46 46 46
-27.8 -30.9 15.1 47 48 47
-27.3 -30.7 15.0 52 52 52
-27.1 -30.9 15.1 52 52 52
-26.7 -30.9 15.1 79 79 79
-26.3 -30.8 15.1 93 96 95
-26.1 -30.9 15.1 93 96 95
-25.7 -30.9 15.1 94 97 96
-15.7 -30.7 15.0 93 93 93
-15.5 -30.9 15.1 102 104 104
6.4 -21.7 10.6 208 208 208
10.3 -21.7 10.6 206 206 206
11.0 -21.6 10.6 206 206 206
13.0 -21.7 10.6 205 205 205
13.3 -21.7 10.6 205 205 205
41.9 -55.9 27.3 205 205 205
70.3 -84.8 41.5 206 206 206
70.8 -84.2 41.2 206 206 206
74.5 -87.5 42.8 207 207 207
74.1 -85.9 42.0 204 204 204
28.1 -31.3 15.3 205 205 205
27.4 -30.2 14.8 205 205 205
27.5 -29.9 14.6 205 205 205
27.9 -30.0 14.7 206 206 206
-43.4 -31.1 15.4 56 56 56
-43.3 -31.6 15.6 53 53 53
-42.9 -31.5 15.6 52 52 52
-42.5 -31.6 15.6 53 53 53
-42.2 -31.6 15.6 53 53 53
-41.8 -31.6 15.6 56 56 56
-41.5 -31.6 15.6 52 52 52
-41.1 -31.6 15.6 56 56 56
-40.7 -31.6 15.6 56 56 56
-40.3 -31.6 15.6 56 56 56
-39.7 -31.6 15.6 56 56 56
-39.3 -31.6 15.6 54 54 54
-39.2 -32.2 15.9 52 52 52
-38.2 -31.6 15.6 50 49 48
-37.8 -31.6 15.6 47 47 47
-37.4 -31.5 15.6 47 47 47
-37.1 -31.6 15.6 47 47 47
-35.5 -31.5 15.6 47 48 47
-34.9 -31.6 15.6 47 48 47
-34.6 -31.6 15.6 47 48 47
-34.3 -31.7 15.7 47 48 47
-33.8 -31.6 15.6 47 48 47
-33.5 -31.6 15.7 47 48 47
-33.2 -31.7 15.7 45 45 45
-32.7 -31.6 15.6 45 45 45
-32.4 -31.6 15.6 46 46 46
-32.0 -31.6 15.6 46 46 46
-31.7 -31.7 15.7 43 43 43
-31.3 -31.6 15.6 43 43 43
-30.9 -31.5 15.6 42 42 42
-30.7 -31.7 15.7 42 42 42
-30.2 -31.6 15.6 42 42 42
-29.7 -31.9 15.8 40 40 40
-29.2 -31.6 15.7 42 43 42
-28.5 -31.3 15.5 42 43 42
-28.2 -31.4 15.6 42 43 42
-28.1 -31.6 15.7 47 47 47
-27.7 -31.6 15.6 41 41 41
-16.2 -31.3 15.5 21 24 22
-15.8 -31.2 15.4 19 23 20
41.6 -54.9 27.2 204 204 204
39.7 -50.8 25.2 205 205 205
40.6 -51.3 25.4 205 205 205
41.6 -51.8 25.6 205 205 205
41.9 -51.5 25.5 205 205 205
74.2 -88.5 43.8 206 206 206
74.8 -88.1 43.6 206 206 206
76.6 -88.9 44.0 206 206 206
76.9 -88.1 43.6 206 206 206
78.2 -88.5 43.8 204 204 204
27.5 -30.0 14.8 204 204 204
27.6 -29.6 14.7 205 205 205
28.0 -29.7 14.7 205 205 205
28.6 -30.0 14.9 205 205 205
-36.3 -32.8 16.4 48 48 48
-35.9 -32.8 16.4 48 48 48
-34.2 -32.3 16.2 46 46 46
-34.4 -32.8 16.4 47 47 47
-34.0 -33.1 16.6 44 44 44
-33.4 -33.0 16.5 42 43 42
-32.9 -32.8 16.4 44 44 44
-31.7 -33.1 16.6 41 41 41
-31.0 -32.8 16.4 41 41 41
-16.7 -31.8 15.9 27 27 27
-16.5 -32.1 16.0 26 26 26
-16.6 -33.1 16.6 26 26 26
-16.3 -33.2 16.6 28 28 28
42.3 -55.2 27.6 204 204 204
40.0 -51.4 25.7 204 204 204
40.2 -50.9 25.5 204 204 204
41.0 -51.1 25.6 204 204 204
43.0 -52.2 26.1 205 205 205
43.9 -52.5 26.3 205 205 205
76.2 -87.5 43.8 205 205 205
75.1 -85.1 42.6 208 208 208
77.5 -86.7 43.4 206 206 206
28.0 -29.4 14.7 204 204 204
28.5 -29.6 14.8 204 204 204
29.2 -29.9 15.0 205 205 205
-34.0 -23.8 12.1 54 54 54
-45.1 -31.9 16.1 54 54 54
-44.7 -31.9 16.2 57 57 57
-44.4 -31.9 16.2 57 57 57
-43.9 -31.8 16.1 57 57 57
-43.5 -31.8 16.1 58 58 58
-43.2 -31.9 16.1 58 58 58
-42.8 -31.9 16.1 58 58 58
-42.4 -31.9 16.1 58 58 58
-42.0 -31.8 16.1 58 58 58
-41.7 -31.9 16.2 58 58 58
-41.3 -31.9 16.2 59 61 59
-40.9 -31.8 16.1 58 58 58
-40.5 -31.8 16.1 55 55 55
-40.2 -31.9 16.1 53 53 53
-39.8 -31.9 16.1 53 53 53
-27.6 -23.9 12.1 49 49 49
-36.5 -31.9 16.2 52 52 50
-36.1 -31.9 16.2 49 49 49
-35.7 -31.9 16.2 49 49 49
-35.3 -31.8 16.1 49 49 49
-34.9 -31.9 16.1 49 49 49
-34.7 -32.0 16.2 49 49 49
-34.3 -32.0 16.2 47 47 47
-33.8 -31.9 16.1 45 45 45
-33.4 -31.9 16.1 47 48 47
-33.1 -31.9 16.1 45 45 45
-32.8 -32.0 16.2 45 45 45
-32.4 -31.9 16.2 45 45 45
-30.6 -32.0 16.2 42 42 42
-30.0 -31.8 16.1 42 42 42
-22.0 -23.9 12.1 41 40 38
-29.0 -31.9 16.2 41 41 39
-28.5 -31.8 16.1 39 39 39
-27.9 -31.9 16.2 41 41 39
-20.5 -23.8 12.1 43 43 43
-20.2 -23.8 12.0 52 52 52
-19.9 -23.8 12.0 50 50 50
-16.8 -31.7 16.0 27 27 27
-16.5 -31.8 16.1 27 27 27
-16.5 -32.6 16.5 29 29 29
-13.5 -31.7 16.1 34 34 34
-13.1 -31.8 16.1 39 39 39
10.0 -21.8 11.0 207 207 207
10.2 -21.7 11.0 204 204 204
14.0 -23.8 12.0 206 206 206
14.2 -23.7 12.0 206 206 206
14.5 -23.7 12.0 206 206 206
42.1 -54.3 27.5 203 203 203
40.6 -50.8 25.7 206 206 206
41.3 -50.9 25.8 204 204 204
43.6 -53.1 26.9 204 204 204
43.9 -52.6 26.6 204 204 204
44.4 -52.5 26.6 204 204 204
27.9 -29.3 14.8 203 203 203
28.1 -29.2 14.8 204 204 204
28.6 -29.4 14.9 204 204 204
29.3 -29.7 15.0 204 204 204
29.7 -29.8 15.1 204 204 204
-16.8 -31.3 16.1 30 29 29
-16.6 -31.5 16.2 29 29 29
-16.6 -32.2 16.5 29 29 29
-12.6 -25.2 12.9 29 29 29
-12.3 -25.1 12.9 28 28 28
-11.1 -24.5 12.6 33 33 33
-10.2 -23.8 12.2 36 37 36
43.2 -55.0 28.2 203 203 203
41.5 -52.1 26.7 203 203 203
44.3 -52.5 26.9 203 203 203
44.6 -52.1 26.7 204 204 204
45.5 -52.4 26.9 204 204 204
78.2 -85.4 43.8 205 205 205
79.4 -85.6 43.9 205 205 205
28.6 -28.9 14.8 203 203 203
29.7 -29.7 15.2 203 203 203
30.1 -29.8 15.3 204 204 204
-29.3 -24.3 12.6 53 52 51
-29.0 -24.2 12.6 50 50 50
-28.7 -24.3 12.6 51 51 51
-28.4 -24.2 12.6 51 51 51
-28.2 -24.3 12.6 51 51 51
-12.7 -25.0 13.0 29 29 29
-12.4 -25.0 13.0 29 29 29
-11.2 -24.4 12.7 32 31 30
-10.9 -24.2 12.6 33 33 33
42.7 -53.8 27.9 205 205 205
41.8 -51.9 26.9 205 205 205
46.7 -54.7 28.4 208 208 208
45.1 -52.0 27.0 206 206 206
45.7 -52.0 27.0 203 203 203
76.0 -84.2 43.7 204 204 204
74.3 -81.2 42.1 204 204 204
77.3 -83.5 43.3 204 204 204
79.4 -84.6 43.9 204 204 204
28.5 -28.5 14.8 205 205 205
30.2 -29.5 15.3 203 203 203
30.6 -29.6 15.3 203 203 203
-36.3 -24.5 12.9 56 56 56
-32.4 -24.6 12.9 58 58 58
-32.1 -24.6 12.9 58 58 58
-31.2 -24.6 12.9 58 59 59
-29.3 -24.5 12.9 52 52 52
-29.0 -24.5 12.8 52 52 52
-28.9 -24.6 12.9 52 52 52
-28.6 -24.6 12.9 52 52 52
-28.3 -24.7 13.0 52 52 52
-27.6 -24.6 12.9 52 52 52
-27.1 -24.6 12.9 53 52 52
-24.1 -24.7 13.0 45 45 45
-23.5 -24.7 13.0 39 41 41
-22.3 -24.7 12.9 42 42 42
-21.9 -24.5 12.9 41 43 42
-21.4 -24.7 13.0 41 43 42
-21.0 -24.5 12.9 41 43 42
-13.1 -24.8 13.0 25 25 25
-12.7 -24.8 13.0 31 32 30
-12.4 -24.7 13.0 30 31 30
-11.7 -24.5 12.9 27 27 27
-11.4 -24.4 12.8 35 35 35
-11.0 -24.4 12.8 29 31 29
-10.8 -24.5 12.9 36 38 37
-10.4 -24.3 12.8 40 40 40
41.9 -51.3 26.9 205 205 205
44.5 -52.2 27.4 205 205 205
45.5 -51.8 27.2 205 205 205
45.9 -51.6 27.1 205 205 205
47.0 -52.1 27.4 206 206 206
75.9 -83.0 43.6 203 203 203
73.8 -79.7 41.9 203 203 203
76.1 -81.1 42.6 203 203 203
28.2 -27.9 14.6 204 204 204
28.5 -27.9 14.6 204 204 204
28.9 -27.9 14.6 202 202 202
30.9 -29.5 15.5 202 202 202
-36.3 -24.3 12.9 59 59 59
-36.0 -24.3 12.9 62 64 61
-35.7 -24.3 12.9 62 64 61
-35.4 -24.3 12.9 62 64 61
-35.1 -24.3 12.9 62 64 61
-34.8 -24.3 12.9 60 60 60
-34.5 -24.3 12.9 60 60 60
-34.2 -24.3 12.9 62 64 61
-33.9 -24.3 12.9 62 64 61
-33.6 -24.3 12.9 63 64 62
-33.3 -24.3 12.9 63 64 62
-33.0 -24.3 12.9 63 64 62
-32.7 -24.3 12.9 60 60 60
-32.4 -24.3 12.9 58 59 59
-32.1 -24.3 12.9 56 56 56
-31.8 -24.3 12.9 58 59 59
-31.5 -24.3 12.9 57 57 57
-31.2 -24.3 12.9 57 57 57
-30.9 -24.3 12.9 55 54 53
-30.6 -24.3 12.9 55 54 53
-30.3 -24.3 12.9 57 57 57
-29.9 -24.2 12.9 55 54 53
-29.6 -24.2 12.9 56 55 54
-29.3 -24.2 12.9 53 52 52
-29.0 -24.2 12.9 53 52 52
-28.8 -24.3 12.9 53 52 52
-28.5 -24.3 12.9 56 55 54
-28.2 -24.3 12.9 56 55 54
-27.9 -24.3 12.9 53 52 52
-27.6 -24.3 12.9 53 52 52
-27.3 -24.3 12.9 53 53 53
-27.0 -24.3 12.9 53 53 53
-26.7 -24.3 12.9 53 53 53
-26.4 -24.3 12.9 53 53 53
-26.1 -24.3 12.9 52 52 52
-25.8 -24.3 12.9 52 52 52
-25.5 -24.3 12.9 49 49 49
-25.2 -24.3 12.9 49 49 49
-24.1 -24.4 13.0 46 46 46
-23.8 -24.3 12.9 46 46 46
-23.5 -24.3 12.9 45 44 43
-23.1 -24.3 12.9 45 44 43
-22.9 -24.3 12.9 45 44 43
-22.6 -24.3 12.9 46 45 43
-22.3 -24.3 12.9 42 43 42
-21.9 -24.2 12.9 42 44 43
-21.6 -24.3 12.9 42 44 43
-21.4 -24.3 12.9 42 44 43
-21.0 -24.2 12.9 42 44 43
-20.6 -24.1 12.8 40 40 40
-13.5 -24.3 12.9 32 33 31
-13.2 -24.3 12.9 29 29 29
-12.7 -24.4 13.0 33 33 31
-12.4 -24.4 13.0 43 42 41
-12.0 -24.2 12.9 49 49 49
-11.7 -24.2 12.9 53 53 53
-11.4 -24.2 12.9 58 58 58
-11.1 -24.2 12.9 69 69 69
-10.8 -24.2 12.9 32 31 30
-10.5 -24.1 12.8 42 42 42
41.7 -50.5 26.8 204 204 204
45.5 -51.3 27.3 205 205 205
45.9 -51.0 27.1 205 205 205
46.8 -51.3 27.3 205 205 205
69.9 -74.6 39.7 205 205 205
74.6 -78.6 41.8 205 205 205
28.3 -27.7 14.7 204 204 204
28.6 -27.6 14.7 204 204 204
28.9 -27.5 14.6 204 204 204
30.6 -28.9 15.3 204 204 204
30.7 -28.6 15.2 202 202 202
30.2 -27.8 14.8 205 205 205
-30.9 -24.2 13.0 56 55 54
-30.0 -23.9 12.9 56 55 54
-29.4 -23.9 12.9 57 56 55
-29.0 -23.9 12.9 57 56 55
-27.2 -24.1 13.0 54 54 54
-22.7 -24.1 13.0 46 46 44
-22.4 -24.1 13.0 46 46 44
-21.9 -23.9 12.9 43 45 44
-13.1 -24.2 13.0 66 67 65
-12.8 -24.2 13.0 90 90 90
-12.4 -24.2 13.0 58 59 59
-11.4 -23.8 12.8 30 31 30
-10.9 -24.1 13.0 29 31 29
-10.5 -23.9 12.9 46 46 46
41.2 -49.2 26.5 203 203 203
44.4 -50.1 26.9 204 204 204
45.3 -50.4 27.1 204 204 204
46.1 -50.6 27.2 204 204 204
46.5 -50.3 27.1 204 204 204
69.9 -73.7 39.7 205 205 205
28.8 -27.2 14.6 203 203 203
29.2 -27.2 14.6 204 204 204
30.5 -28.1 15.1 204 204 204
30.2 -27.4 14.8 204 204 204
-12.8 -24.0 13.1 22 25 23
-11.2 -24.4 13.3 37 38 37
-10.8 -24.3 13.2 50 50 50
-10.7 -24.8 13.5 183 183 183
-10.4 -24.7 13.5 182 182 182
40.4 -47.7 26.0 203 203 203
40.3 -46.8 25.5 203 203 203
40.8 -46.7 25.5 203 203 203
44.1 -49.2 26.8 206 206 206
44.9 -49.3 26.9 206 206 206
45.9 -49.7 27.1 204 204 204
46.1 -49.3 26.9 204 204 204
29.1 -27.4 14.9 203 203 203
29.1 -27.0 14.7 203 203 203
29.5 -27.1 14.8 203 203 203
31.0 -28.2 15.4 203 203 203
30.5 -27.4 14.9 203 203 203
-11.3 -24.4 13.5 49 49 49
-11.0 -24.4 13.4 51 50 48
-10.8 -24.6 13.6 183 186 185
-10.4 -24.5 13.6 181 184 183
-10.3 -24.9 13.7 180 183 182
40.3 -46.2 25.5 205 205 205
40.7 -46.1 25.4 205 205 205
44.4 -48.8 26.9 205 205 205
44.9 -48.7 26.9 205 205 205
45.8 -49.0 27.1 203 203 203
46.1 -48.7 26.9 203 203 203
46.1 -47.3 26.1 203 203 203
45.8 -46.4 25.6 204 204 204
32.2 -28.9 15.9 202 202 202
-11.6 -24.7 13.8 50 50 50
-11.3 -24.8 13.9 56 56 56
-10.9 -24.6 13.8 182 185 184
-10.5 -24.4 13.6 181 184 183
-10.3 -24.8 13.8 179 182 181
40.8 -47.0 26.3 204 204 204
40.6 -46.0 25.7 204 204 204
41.0 -45.8 25.6 205 205 205
46.4 -49.0 27.4 205 205 205
47.2 -49.2 27.5 205 205 205
46.7 -47.3 26.5 203 203 203
46.0 -46.1 25.8 206 206 206
46.6 -46.0 25.7 203 203 203
50.4 -49.2 27.5 203 203 203
-11.7 -24.6 13.9 49 49 49
-11.4 -24.7 14.0 53 52 52
-11.0 -24.6 13.9 181 184 183
-10.7 -24.6 13.9 180 183 182
-10.4 -24.7 14.0 184 184 184
-10.2 -24.8 14.1 184 184 184
46.8 -48.7 27.6 205 205 205
50.2 -51.6 29.2 205 205 205
51.0 -51.8 29.3 205 205 205
48.8 -48.8 27.7 205 205 205
46.8 -46.2 26.2 205 205 205
-12.0 -25.0 14.3 47 47 47
-11.5 -24.6 14.1 62 62 62
-11.2 -24.5 14.1 181 184 183
-11.0 -24.8 14.2 179 182 181
-10.6 -24.7 14.2 180 183 182
-10.3 -24.9 14.3 181 181 181
-10.0 -24.9 14.3 213 215 215
-4.4 -17.4 10.0 220 223 222
-0.3 -17.5 10.0 206 209 208
-0.0 -17.5 10.0 206 209 208
1.1 -17.4 10.0 196 196 196
1.8 -17.5 10.0 192 192 192
2.8 -17.5 10.0 183 183 183
3.0 -17.5 10.0 158 161 160
3.9 -17.5 10.0 184 184 184
4.9 -17.5 10.0 203 203 203
6.7 -17.5 10.0 204 204 204
7.9 -17.4 10.0 204 204 204
9.8 -17.5 10.0 204 204 204
10.0 -17.5 10.1 204 204 204
10.9 -17.4 10.0 204 204 204
12.5 -17.4 10.0 204 204 204
13.2 -17.5 10.0 204 204 204
13.9 -17.4 10.0 203 203 203
46.6 -47.9 27.5 204 204 204
50.9 -51.6 29.6 204 204 204
52.1 -52.1 29.9 204 204 204
46.0 -44.9 25.8 205 205 205
51.2 -49.3 28.3 205 205 205
49.3 -46.9 26.9 205 205 205
-36.7 -25.1 14.6 71 71 71
-36.0 -25.1 14.6 69 71 69
-35.6 -25.0 14.6 69 71 69
-35.3 -25.1 14.6 69 71 69
-34.9 -25.0 14.6 67 67 67
-34.6 -25.1 14.6 65 65 65
-11.1 -24.8 14.4 179 182 181
-10.8 -24.8 14.4 177 180 179
-10.4 -24.8 14.4 178 181 180
-10.1 -24.8 14.4 203 203 203
-0.0 -17.3 10.1 203 205 205
1.4 -17.2 10.0 194 194 194
3.0 -17.4 10.1 141 141 141
4.9 -17.4 10.1 206 206 206
7.5 -17.4 10.1 204 204 204
7.8 -17.4 10.1 204 204 204
8.0 -17.4 10.1 204 204 204
8.7 -17.4 10.1 207 207 207
8.9 -17.3 10.1 207 207 207
9.1 -17.3 10.1 207 207 207
9.3 -17.3 10.1 207 207 207
9.6 -17.3 10.1 204 204 204
9.8 -17.4 10.1 204 204 204
10.1 -17.5 10.2 204 204 204
10.3 -17.4 10.1 204 204 204
10.5 -17.3 10.1 203 203 203
10.7 -17.3 10.1 203 203 203
11.0 -17.4 10.1 203 203 203
11.2 -17.4 10.1 203 203 203
11.6 -17.2 10.0 203 203 203
11.9 -17.3 10.1 203 203 203
12.4 -17.4 10.1 203 203 203
12.6 -17.4 10.1 203 203 203
13.1 -17.4 10.1 203 203 203
13.3 -17.3 10.1 203 203 203
14.0 -17.3 10.1 203 203 203
14.3 -17.3 10.1 203 203 203
46.7 -47.4 27.6 207 207 207
51.2 -51.2 29.8 207 207 207
52.4 -51.8 30.1 204 204 204
-36.2 -24.9 14.7 68 70 68
-35.9 -24.9 14.7 68 70 68
-35.5 -24.9 14.7 69 71 69
-35.1 -24.9 14.7 69 71 69
-11.2 -24.6 14.5 180 180 180
-10.9 -24.7 14.6 179 182 181
-5.1 -17.0 10.0 208 211 210
10.2 -17.4 10.3 203 203 203
11.8 -17.0 10.0 206 206 206
13.4 -17.4 10.3 206 206 206
14.0 -17.0 10.0 206 206 206
56.0 -55.3 32.6 207 207 207
53.2 -51.8 30.6 207 207 207
52.9 -50.8 30.0 207 207 207
-10.3 -18.9 11.3 36 36 36
-11.2 -26.7 15.9 172 172 172
4.9 -16.8 10.0 203 203 203
58.2 -57.4 34.3 206 206 206
57.2 -55.7 33.3 206 206 206
53.8 -51.7 30.9 206 206 206
58.2 -54.4 32.6 207 207 207
48.9 -41.0 24.5 205 205 205
49.7 -41.1 24.6 205 205 205
-11.6 -26.4 16.0 175 175 175
-11.2 -26.3 16.0 157 160 159
-10.8 -26.2 15.9 165 165 165
4.9 -16.6 10.0 206 206 206
12.3 -16.5 10.0 205 205 205
12.5 -16.5 10.0 205 205 205
13.3 -16.5 10.0 205 205 205
60.1 -58.5 35.5 208 211 210
57.5 -55.2 33.5 208 211 210
54.7 -51.8 31.4 206 206 206
61.2 -57.2 34.7 206 206 206
59.2 -54.6 33.1 206 206 206
50.3 -41.5 25.2 208 208 208
50.9 -41.6 25.2 205 205 205
-11.6 -26.0 16.0 178 178 178
-11.2 -26.0 16.0 158 161 160
-10.8 -25.9 15.9 155 158 157
61.0 -58.6 36.0 207 210 209
58.6 -55.5 34.1 208 211 210
61.9 -57.1 35.1 206 206 206
49.8 -44.1 27.1 206 206 206
47.3 -41.4 25.5 207 207 207
48.4 -41.8 25.7 207 207 207
48.3 -41.2 25.4 207 207 207
53.3 -43.4 26.7 208 208 208
51.9 -41.8 25.7 208 208 208
-12.4 -25.7 16.0 186 188 187
-11.9 -25.6 16.0 184 184 184
-11.7 -25.8 16.1 177 177 177
-11.2 -25.7 16.1 160 163 162
-10.8 -25.6 16.0 156 159 158
49.8 -43.5 27.1 206 206 206
50.2 -42.8 26.7 207 207 207
50.1 -42.2 26.3 207 207 207
53.7 -43.1 26.9 207 207 207
53.8 -42.7 26.6 208 208 208
56.9 -25.2 15.7 170 172 172
56.8 -24.9 15.6 166 169 168
-40.0 -25.6 16.2 145 145 144
-37.8 -25.7 16.3 71 71 71
-30.8 -25.8 16.3 190 190 190
-30.2 -25.6 16.2 197 197 197
-12.5 -25.7 16.3 187 189 189
-12.1 -25.6 16.2 185 185 185
-11.8 -25.7 16.3 179 179 179
-11.4 -25.6 16.2 167 167 167
-10.9 -25.5 16.2 163 163 163
-10.6 -25.7 16.3 156 159 158
50.7 -43.7 27.7 203 203 203
51.2 -43.0 27.3 206 206 206
51.1 -42.4 26.9 207 207 207
54.6 -44.2 28.0 207 207 207
54.4 -43.0 27.3 207 207 207
78.0 -35.8 22.7 181 181 181
57.2 -24.9 15.8 171 173 173
57.0 -24.7 15.6 168 170 169
56.3 -24.2 15.3 160 160 160
-47.7 -26.4 17.0 57 56 55
-45.4 -26.4 17.0 61 61 61
-45.0 -26.4 17.0 61 61 61
-44.6 -26.4 17.0 57 57 55
-43.9 -26.4 17.0 62 62 62
-43.0 -26.1 16.8 27 27 27
-42.6 -26.1 16.8 139 139 139
-42.3 -26.2 16.8 147 147 145
-41.9 -26.2 16.8 21 24 22
-41.4 -26.1 16.8 24 24 24
-41.0 -26.1 16.8 26 26 26
-41.0 -26.4 17.0 33 33 31
-40.3 -26.1 16.8 40 42 42
-39.8 -26.1 16.8 45 44 43
-39.6 -26.2 16.9 53 53 53
-39.1 -26.2 16.8 56 56 56
-34.3 -26.4 17.0 63 63 63
-33.4 -26.0 16.7 61 60 59
-31.7 -26.1 16.8 182 182 182
-12.8 -25.9 16.7 188 188 188
-12.5 -26.0 16.7 187 189 189
-12.0 -25.9 16.7 180 180 180
-11.6 -25.7 16.5 169 169 169
-11.1 -25.6 16.5 167 167 167
51.8 -43.9 28.2 208 211 210
51.9 -43.0 27.6 208 211 210
52.0 -42.5 27.3 208 211 210
53.9 -43.5 28.0 208 211 210
54.9 -43.8 28.1 207 207 207
54.6 -42.6 27.4 207 207 207
73.9 -32.8 21.1 182 182 182
59.1 -25.6 16.4 179 179 179
57.7 -24.8 15.9 172 174 174
57.3 -24.5 15.7 168 168 168
56.8 -24.1 15.5 157 160 159
-49.4 -26.9 17.5 58 59 59
-50.6 -27.8 18.1 68 68 68
-50.2 -27.8 18.1 74 74 74
-48.7 -27.2 17.7 74 74 74
-49.3 -27.7 18.1 74 74 74
-48.9 -27.7 18.1 74 74 74
-48.5 -27.8 18.1 71 72 70
-48.2 -27.8 18.2 66 67 65
-47.7 -27.8 18.2 77 77 77
-46.4 -27.3 17.8 75 75 75
-46.8 -27.8 18.1 140 140 140
-46.4 -27.8 18.1 150 152 152
-45.1 -27.3 17.8 55 55 55
-44.7 -27.3 17.8 71 72 70
-44.1 -27.2 17.7 55 55 55
-43.9 -27.3 17.8 39 39 39
-43.6 -27.3 17.8 36 36 36
-42.8 -27.1 17.7 33 33 31
-42.4 -27.1 17.7 33 33 31
-42.5 -27.4 17.9 30 31 30
-41.7 -27.2 17.7 30 31 30
-41.1 -27.0 17.6 28 28 28
-40.8 -27.2 17.7 36 37 36
-40.7 -27.3 17.8 41 43 42
-40.3 -27.4 17.8 47 47 47
-39.9 -27.4 17.9 54 54 54
-40.0 -27.7 18.1 61 61 61
-38.8 -27.8 18.1 61 61 61
-37.7 -27.3 17.8 64 64 64
-37.3 -27.3 17.8 64 64 64
-37.0 -27.4 17.9 62 62 62
-36.3 -27.2 17.7 62 62 62
-35.8 -27.1 17.7 65 65 65
-33.9 -27.2 17.7 72 72 72
-33.3 -27.0 17.6 52 52 52
-32.6 -27.9 18.2 91 93 92
-13.2 -27.0 17.6 189 189 189
-12.5 -26.4 17.2 181 181 181
53.9 -44.5 29.0 207 210 209
52.4 -42.7 27.9 208 211 210
51.9 -41.8 27.3 208 211 210
55.4 -43.5 28.4 208 211 210
54.5 -41.8 27.3 209 212 211
79.1 -35.5 23.2 185 185 185
79.3 -35.4 23.1 185 185 185
78.4 -34.7 22.7 185 185 185
77.3 -34.0 22.2 185 185 185
60.2 -25.6 16.7 180 180 180
58.7 -24.8 16.2 173 175 175
57.9 -24.3 15.9 169 169 169
57.8 -24.2 15.8 158 161 160
-52.6 -28.2 18.7 60 60 60
-52.6 -28.4 18.8 68 68 68
-52.3 -28.5 18.9 74 74 74
-51.9 -28.6 18.9 74 74 74
-51.3 -28.4 18.8 68 68 68
-51.5 -28.8 19.1 66 67 65
-50.6 -28.6 18.9 63 63 63
-50.1 -28.5 18.9 68 68 68
-49.7 -28.5 18.9 113 114 113
-49.2 -28.5 18.9 157 157 157
-48.8 -28.5 18.9 4 10 6
-48.4 -28.5 18.9 21 24 22
-47.9 -28.5 18.9 36 36 36
-47.4 -28.5 18.9 48 48 48
-47.0 -28.5 18.9 45 44 43
-46.5 -28.5 18.9 36 37 36
-46.2 -28.6 18.9 36 36 36
-45.9 -28.6 19.0 40 42 42
-45.5 -28.6 19.0 46 46 46
-44.8 -28.5 18.9 45 44 43
-44.1 -28.3 18.8 40 42 42
-43.9 -28.5 18.9 33 33 31
-43.5 -28.5 18.9 28 28 28
-43.2 -28.6 18.9 28 28 28
-42.7 -28.6 18.9 28 28 28
-42.1 -28.5 18.9 25 25 25
-42.1 -28.7 19.0 42 43 42
-41.3 -28.5 18.9 41 43 42
-41.0 -28.6 18.9 50 50 50
-40.5 -28.5 18.9 47 48 47
-39.9 -28.5 18.9 53 52 52
-39.7 -28.6 18.9 57 57 57
-38.9 -28.4 18.8 57 57 57
-38.4 -28.3 18.8 60 59 58
-38.3 -28.6 18.9 62 62 62
-37.8 -28.5 18.9 62 62 62
-37.3 -28.5 18.9 62 62 62
-37.3 -28.8 19.1 61 60 59
-36.3 -28.4 18.8 61 60 59
-34.4 -28.6 19.0 59 59 59
-34.0 -28.6 19.0 66 66 66
-33.4 -28.5 18.9 57 57 57
-33.3 -28.8 19.0 57 57 57
-13.9 -28.1 18.6 178 181 180
-13.6 -28.3 18.8 177 180 179
-13.2 -28.6 18.9 176 179 178
-13.1 -29.3 19.4 174 174 174
92.7 -80.4 53.3 206 209 208
81.6 -35.8 23.7 186 186 186
79.5 -34.7 23.0 184 184 184
61.4 -25.7 17.1 181 181 181
60.4 -25.2 16.7 174 176 176
-54.3 -28.7 19.3 60 60 60
-54.0 -28.7 19.3 70 72 69
-53.6 -28.8 19.4 74 74 74
-53.1 -28.7 19.3 68 68 68
-52.6 -28.7 19.3 68 68 68
-52.3 -28.8 19.4 44 43 42
-51.8 -28.8 19.4 58 59 59
-51.4 -28.8 19.4 147 147 147
-50.9 -28.8 19.4 45 45 45
-50.4 -28.7 19.3 21 24 22
-50.0 -28.7 19.3 19 23 20
-49.6 -28.8 19.4 26 26 26
-49.1 -28.7 19.3 33 32 30
-48.6 -28.7 19.3 26 26 26
-48.1 -28.7 19.3 18 18 18
-47.6 -28.7 19.3 26 26 26
-47.3 -28.8 19.4 26 26 26
-46.9 -28.8 19.4 36 36 36
-46.5 -28.8 19.4 55 55 55
-45.9 -28.7 19.3 59 59 59
-45.3 -28.6 19.3 58 58 56
-45.0 -28.7 19.3 49 49 49
-44.7 -28.8 19.4 40 42 42
-44.2 -28.8 19.4 40 40 40
-43.7 -28.8 19.4 40 40 40
-43.2 -28.7 19.3 129 132 131
-42.8 -28.7 19.3 153 152 150
-42.4 -28.8 19.4 6 7 7
-42.0 -28.8 19.4 19 19 19
-41.4 -28.7 19.3 29 29 29
-41.0 -28.7 19.3 27 27 27
-40.5 -28.7 19.3 41 43 42
-39.9 -28.6 19.3 50 50 50
-39.7 -28.8 19.4 57 57 57
-39.4 -28.9 19.5 66 66 66
-38.8 -28.8 19.4 70 70 70
-38.4 -28.9 19.4 67 69 67
-37.9 -28.8 19.4 71 71 71
-37.0 -28.5 19.2 67 67 67
-36.9 -28.7 19.3 67 67 67
-36.7 -28.9 19.4 63 63 63
-36.2 -28.9 19.4 71 71 71
-35.6 -28.8 19.4 67 67 67
-35.4 -29.0 19.5 58 59 59
-34.7 -28.7 19.3 58 59 59
-34.1 -28.7 19.3 57 57 57
-33.9 -28.9 19.4 57 57 57
-29.3 -28.8 19.4 21 24 22
-14.9 -28.7 19.3 180 183 182
-14.3 -28.5 19.2 179 182 181
-13.9 -28.5 19.2 178 181 180
-13.7 -29.1 19.6 177 180 179
-13.3 -29.1 19.6 175 175 175
-12.7 -28.9 19.4 170 171 170
93.3 -79.6 53.6 206 209 208
82.0 -35.7 24.0 188 188 188
81.8 -35.4 23.8 188 188 188
78.8 -33.6 22.6 188 188 188
63.3 -25.5 17.1 155 155 155
-55.8 -29.0 19.8 53 53 53
-55.3 -29.0 19.8 67 67 67
-54.8 -29.0 19.8 77 77 77
-54.4 -29.0 19.8 77 77 77
-53.9 -28.9 19.8 39 41 41
-53.4 -28.9 19.8 129 129 129
-52.9 -28.9 19.8 127 127 127
-52.5 -28.9 19.8 8 9 8
-52.0 -28.9 19.8 9 14 10
-51.6 -28.9 19.8 24 24 24
-51.1 -28.9 19.8 26 26 26
-50.6 -28.9 19.8 39 39 39
-50.2 -28.9 19.8 28 28 28
-49.7 -28.9 19.8 10 15 11
-49.3 -28.9 19.8 28 28 28
-48.8 -28.9 19.8 17 17 17
-48.3 -28.9 19.8 29 31 29
-47.9 -29.0 19.8 33 33 31
-47.4 -28.9 19.8 55 55 55
-47.0 -28.9 19.8 68 68 68
-46.5 -28.9 19.8 71 72 70
-46.0 -28.9 19.8 75 75 75
-45.6 -28.9 19.8 53 52 52
-45.1 -28.9 19.8 56 56 56
-44.7 -28.9 19.8 56 56 56
-44.2 -28.9 19.8 123 125 124
-43.8 -28.9 19.8 85 85 85
-43.3 -28.9 19.8 119 119 119
-42.8 -28.9 19.8 177 176 174
-42.4 -28.9 19.8 56 56 56
-41.9 -28.9 19.8 19 23 20
-41.5 -28.9 19.8 8 9 8
-41.0 -28.9 19.8 9 14 10
-40.6 -29.0 19.8 19 23 20
-40.1 -28.9 19.8 27 27 27
-39.6 -28.9 19.8 42 44 43
-39.2 -29.0 19.8 55 55 55
-38.7 -28.9 19.8 60 59 58
-38.5 -29.2 19.9 58 58 58
-37.8 -28.9 19.8 75 75 75
-37.4 -29.0 19.8 58 58 58
-37.1 -29.2 19.9 81 83 80
-36.6 -29.1 19.9 75 76 76
-36.0 -29.0 19.8 71 71 71
-35.4 -28.9 19.7 71 71 71
-35.0 -28.9 19.8 65 65 65
-34.6 -29.0 19.8 68 70 68
-34.3 -29.1 19.9 79 79 79
-33.9 -29.2 19.9 141 143 142
-33.5 -29.2 20.0 182 185 184
-33.0 -29.2 19.9 180 179 177
-32.5 -29.1 19.9 129 129 129
-32.0 -29.2 19.9 28 28 28
-31.6 -29.2 20.0 30 30 30
-31.1 -29.2 19.9 30 30 30
-30.6 -29.1 19.9 22 25 23
-30.1 -29.1 19.9 22 25 23
-29.6 -29.1 19.9 26 26 26
-29.0 -28.9 19.8 31 31 31
-28.8 -29.2 20.0 31 31 31
-28.3 -29.1 19.9 31 31 31
-27.8 -29.1 19.9 31 31 31
-27.4 -29.2 19.9 26 26 26
-26.9 -29.2 19.9 29 29 29
-26.3 -28.9 19.8 95 95 95
-25.8 -28.9 19.8 146 146 146
-25.5 -29.2 19.9 149 149 149
-25.1 -29.2 19.9 45 45 45
-24.6 -29.2 19.9 38 38 38
-24.0 -28.9 19.8 79 81 79
-23.6 -29.1 19.9 107 107 105
-23.0 -28.9 19.7 117 117 117
-22.5 -28.9 19.7 25 25 25
-22.1 -28.9 19.7 109 109 109
-14.7 -28.8 19.7 180 183 182
-14.3 -28.9 19.7 179 179 179
-13.9 -29.1 19.9 178 178 178
-13.4 -29.0 19.8 175 175 175
103.6 -85.9 58.7 208 211 210
91.8 -75.2 51.4 208 211 210
85.2 -68.8 47.1 209 212 211
82.9 -35.3 24.1 190 190 190
81.7 -34.6 23.6 186 186 186
79.7 -33.5 22.9 190 190 190
62.6 -25.1 17.2 166 166 166
62.4 -24.7 16.9 157 157 157
62.7 -24.7 16.9 149 151 151
-59.0 -30.2 21.0 38 38 38
-58.6 -30.2 21.0 51 51 51
-57.6 -30.2 21.0 87 87 87
-57.1 -30.2 21.0 148 148 148
-55.6 -30.2 21.0 21 24 22
-55.1 -30.2 21.0 26 26 26
-54.7 -30.2 21.0 26 26 26
-54.2 -30.2 21.0 34 34 34
-53.2 -30.2 21.0 154 154 154
-52.7 -30.2 21.0 136 136 136
-52.2 -30.2 21.0 53 52 52
-51.2 -29.9 20.8 154 154 154
-50.7 -29.9 20.8 176 176 176
-50.3 -29.9 20.8 170 172 172
-49.8 -29.9 20.8 121 121 121
-49.3 -29.9 20.8 80 82 79
-48.8 -29.9 20.8 80 82 79
-48.3 -29.9 20.8 68 68 68
-47.8 -29.9 20.8 126 126 126
-47.4 -29.9 20.8 163 166 165
-46.9 -29.9 20.8 177 177 177
-46.9 -30.2 21.0 172 172 172
-46.4 -30.2 21.0 180 183 182
-45.9 -30.2 21.0 212 213 212
-45.4 -30.2 21.0 206 209 208
-44.9 -30.2 21.0 188 190 190
-44.4 -30.2 21.0 201 203 203
-43.9 -30.2 21.0 212 213 212
-43.4 -30.2 21.0 213 215 215
-43.0 -30.2 21.0 179 178 176
-42.5 -30.2 21.0 165 168 167
-42.0 -30.2 21.0 158 158 158
-41.5 -30.2 21.0 136 138 137
-41.0 -30.2 21.0 175 177 177
-40.5 -30.2 21.0 217 217 217
-40.0 -30.2 21.0 204 204 204
-39.5 -30.2 21.0 180 183 182
-39.1 -30.2 21.0 181 181 181
-38.2 -29.9 20.8 209 209 209
-37.6 -29.8 20.7 225 225 225
-35.8 -30.3 21.0 182 185 184
-34.9 -30.0 20.8 180 179 177
-34.7 -30.2 21.0 214 216 216
-34.1 -30.2 20.9 211 211 211
-33.7 -30.2 21.0 212 213 212
-33.1 -30.1 20.9 134 137 136
-32.7 -30.2 20.9 38 38 38
-32.2 -30.2 20.9 28 28 28
-31.7 -30.2 21.0 64 64 64
-31.3 -30.2 21.0 79 81 79
-30.7 -30.2 20.9 86 86 86
-30.0 -29.9 20.8 109 109 107
-29.5 -29.9 20.7 100 99 97
-29.3 -30.2 21.0 20 23 21
-27.1 -29.9 20.8 33 34 32
-26.6 -29.9 20.8 58 59 59
-26.1 -29.9 20.8 103 103 103
-25.6 -29.9 20.7 42 42 42
-25.4 -30.2 20.9 77 77 77
-24.9 -30.2 20.9 28 28 28
-24.5 -30.3 21.0 113 115 114
-14.0 -28.9 20.0 175 175 175
-13.6 -28.9 20.1 172 172 172
104.2 -85.1 59.1 208 211 210
82.7 -65.8 45.7 208 211 210
68.9 -45.5 31.6 192 192 192
82.8 -34.7 24.1 191 191 191
81.2 -33.8 23.5 191 191 191
79.6 -32.9 22.8 184 184 184
81.2 -33.3 23.2 188 188 188
81.7 -33.3 23.2 188 188 188
62.6 -24.7 17.2 168 168 168
62.2 -24.4 17.0 160 160 160
62.3 -24.3 16.9 157 157 157
62.1 -24.1 16.7 151 153 153
61.7 -23.7 16.5 146 146 146
-59.3 -29.8 21.1 29 31 29
-58.8 -29.8 21.1 38 38 38
-57.9 -29.9 21.1 147 147 147
-57.4 -29.9 21.1 29 31 29
-56.9 -29.9 21.1 24 24 24
-56.4 -29.9 21.1 29 31 29
-55.9 -29.9 21.1 24 24 24
-55.5 -29.9 21.1 24 24 24
-55.0 -29.9 21.1 26 26 26
-54.5 -29.9 21.1 36 37 36
-54.0 -29.9 21.1 65 66 64
-53.5 -29.9 21.1 163 166 165
-53.0 -29.9 21.1 176 176 176
-52.5 -29.9 21.1 175 175 175
-52.0 -29.9 21.1 151 151 151
-51.5 -29.9 21.1 184 184 184
-51.0 -29.9 21.1 177 177 177
-50.5 -29.9 21.1 158 161 160
-50.1 -29.9 21.1 146 146 146
-49.6 -29.9 21.1 152 152 152
-49.1 -29.9 21.1 68 68 68
-48.6 -29.9 21.1 88 90 89
-48.1 -29.9 21.1 199 199 199
-47.6 -29.9 21.1 193 193 193
-47.1 -29.9 21.1 166 166 166
-46.6 -29.9 21.1 92 92 92
-46.1 -29.9 21.1 90 90 90
-45.6 -29.9 21.1 142 144 143
-45.2 -29.9 21.1 123 123 123
-44.7 -29.9 21.1 93 93 93
-44.2 -29.9 21.1 71 72 70
-43.7 -29.9 21.1 71 72 70
-43.2 -29.9 21.1 74 74 74
-42.7 -29.9 21.1 77 77 77
-42.2 -29.9 21.1 42 43 42
-41.7 -29.9 21.1 36 37 36
-41.2 -29.9 21.1 118 120 119
-40.7 -29.9 21.1 166 166 166
-40.3 -29.9 21.1 144 144 144
-39.8 -29.9 21.1 167 167 167
-39.2 -29.8 21.1 134 134 134
-38.5 -29.6 20.9 86 86 86
-37.7 -29.4 20.8 137 137 137
-37.7 -29.8 21.0 138 138 138
-37.2 -29.8 21.0 149 151 151
-36.5 -30.0 21.2 222 222 222
-36.1 -30.1 21.2 218 218 218
-35.5 -30.0 21.2 241 241 241
-34.8 -29.8 21.1 219 219 219
-34.3 -29.8 21.0 226 226 226
-33.9 -29.9 21.1 213 215 215
-33.4 -29.8 21.1 213 215 215
-32.9 -29.8 21.1 134 137 136
-32.4 -29.8 21.1 67 69 67
-31.9 -29.9 21.1 30 30 30
-31.5 -29.9 21.1 19 19 19
-31.0 -29.9 21.1 32 33 31
-30.4 -29.8 21.1 32 33 31
-29.9 -29.8 21.0 105 105 105
-27.0 -29.9 21.1 156 159 158
-26.5 -29.9 21.1 63 62 61
-26.0 -29.8 21.0 39 39 39
-25.5 -29.8 21.1 69 69 69
-25.1 -29.9 21.1 32 33 31
-24.7 -30.1 21.2 146 146 146
-14.3 -28.8 20.4 160 163 162
-13.8 -28.8 20.3 166 166 166
104.6 -84.0 59.3 208 211 210
98.5 -78.1 55.1 208 211 210
104.5 -80.7 57.0 208 211 210
104.5 -79.8 56.3 209 212 211
104.6 -78.8 55.6 209 212 211
70.2 -46.0 32.5 192 192 192
68.9 -44.7 31.6 195 195 195
77.2 -32.2 22.8 193 196 195
81.9 -33.7 23.8 192 192 192
80.3 -32.9 23.2 192 192 192
79.3 -32.2 22.8 189 189 189
79.9 -32.3 22.8 189 189 189
80.3 -32.2 22.7 189 189 189
82.4 -32.8 23.2 189 189 189
63.2 -24.4 17.2 160 160 160
62.5 -24.0 16.9 153 155 155
62.2 -23.7 16.7 150 150 150
62.0 -23.5 16.6 141 143 142
-53.2 -30.9 22.2 139 139 139
-52.6 -30.9 22.2 101 101 101
-52.1 -30.9 22.2 200 202 202
-37.7 -28.9 20.7 198 198 198
-14.3 -28.5 20.4 182 182 182
-13.8 -28.4 20.4 181 181 181
104.2 -82.4 59.1 207 210 209
97.1 -75.7 54.4 208 211 210
104.8 -79.6 57.1 208 211 210
105.1 -78.9 56.6 208 211 210
105.2 -78.0 56.0 209 212 211
108.4 -79.4 57.0 209 212 211
71.3 -46.0 33.0 195 195 195
70.3 -44.9 32.2 195 195 195
76.1 -31.5 22.6 193 196 195
76.5 -31.5 22.6 194 197 196
77.1 -31.5 22.6 194 197 196
79.1 -31.8 22.8 193 193 193
79.1 -31.6 22.7 193 193 193
79.7 -31.7 22.7 190 190 190
80.0 -31.6 22.7 190 190 190
80.8 -31.7 22.7 186 186 186
80.9 -31.5 22.6 186 186 186
63.2 -23.8 17.1 152 152 152
62.8 -23.6 16.9 145 147 147
62.8 -23.4 16.8 142 144 143
-55.0 -30.8 22.5 131 134 133
-54.4 -30.8 22.5 165 165 165
-53.9 -30.8 22.5 199 199 199
-53.4 -30.8 22.5 115 117 116
-52.9 -30.8 22.5 50 50 50
-51.3 -30.8 22.5 57 57 55
-37.6 -30.7 22.4 226 226 226
-37.1 -30.7 22.4 224 224 224
-36.1 -30.7 22.4 219 219 219
-35.8 -31.0 22.6 218 218 218
-35.3 -31.0 22.7 203 203 203
-34.8 -31.0 22.6 3 9 5
-34.3 -31.0 22.6 69 69 69
-33.6 -30.9 22.5 36 36 36
-33.2 -31.0 22.6 27 27 27
-14.6 -30.5 22.3 176 176 176
103.6 -80.5 58.7 207 210 209
92.3 -70.8 51.7 207 210 209
102.9 -76.9 56.1 208 211 210
103.0 -76.0 55.5 208 211 210
105.2 -76.7 56.0 208 211 210
72.8 -46.2 33.7 195 195 195
70.3 -44.2 32.2 195 195 195
76.3 -31.0 22.7 194 197 196
76.5 -30.9 22.6 195 198 197
77.2 -31.0 22.6 195 198 197
79.1 -31.5 23.0 195 198 197
79.0 -31.3 22.8 195 198 197
79.2 -31.2 22.7 194 194 194
79.8 -31.2 22.8 194 194 194
80.2 -31.1 22.7 191 191 191
80.8 -31.2 22.7 188 188 188
81.2 -31.1 22.7 188 188 188
63.9 -23.7 17.3 151 151 151
63.6 -23.5 17.1 138 140 139
63.8 -23.4 17.1 132 135 134
-15.4 -30.6 22.7 182 182 182
-14.9 -30.7 22.8 171 173 173
93.4 -70.4 52.3 207 210 209
89.6 -66.7 49.5 207 210 209
101.7 -74.7 55.5 208 211 210
101.2 -73.4 54.5 208 211 210
73.3 -45.7 34.0 195 195 195
76.6 -30.6 22.7 195 198 197
76.6 -30.4 22.6 196 199 198
80.1 -31.2 23.2 195 195 195
79.7 -30.8 22.9 196 199 198
80.5 -30.9 23.0 192 192 192
81.1 -31.0 23.0 192 192 192
81.5 -30.9 22.9 186 186 186
81.7 -30.8 22.8 182 185 184
81.6 -30.5 22.7 177 177 177
73.0 -26.0 19.3 133 133 133
72.9 -25.8 19.1 132 132 132
-16.5 -31.2 23.6 176 179 178
-15.7 -30.8 23.2 173 175 175
-15.1 -30.6 23.1 181 181 181
254.1 -188.3 142.2 207 210 209
73.4 -45.0 34.0 196 196 196
79.1 -31.3 23.6 192 192 192
81.8 -31.5 23.8 188 188 188
81.5 -31.2 23.6 188 188 188
83.5 -31.1 23.5 180 183 182
82.6 -30.6 23.1 178 178 178
84.8 -31.2 23.6 172 172 172
85.6 -31.3 23.6 163 163 163
71.0 -25.3 19.1 134 134 134
71.2 -25.2 19.0 134 134 134
71.9 -25.3 19.1 134 134 134
73.2 -25.6 19.3 132 132 132
73.6 -25.6 19.3 132 132 132
-49.6 -35.5 27.3 53 52 52
-46.9 -35.4 27.2 142 144 143
-46.3 -35.4 27.2 195 195 195
-45.4 -35.2 27.1 200 202 202
-44.7 -35.2 27.1 206 209 208
-44.1 -35.2 27.1 216 216 216
-43.5 -35.2 27.1 204 204 204
-42.9 -35.2 27.1 159 159 159
-42.2 -35.2 27.1 84 84 84
-41.7 -35.2 27.1 24 24 24
-17.7 -35.2 27.1 84 86 86
-17.0 -35.0 26.9 88 88 88
433.3 -315.4 242.5 211 211 211
428.0 -307.5 236.5 212 213 212
786.6 -512.5 394.1 215 215 215
397.9 -256.2 197.0 209 212 211
54.7 -31.6 24.3 197 197 197
80.7 -31.4 24.1 190 190 190
82.5 -30.0 23.1 151 153 153
87.4 -31.4 24.1 133 133 133
86.7 -30.9 23.8 136 136 136
71.7 -24.8 19.0 129 132 131
73.1 -25.1 19.3 129 132 131
73.6 -25.1 19.3 129 132 131
-49.9 -35.1 27.5 55 55 55
-49.0 -34.9 27.3 55 55 55
-48.2 -34.8 27.3 53 52 52
-45.2 -34.9 27.3 64 65 63
-43.3 -35.0 27.4 19 23 20
-18.6 -35.1 27.5 134 137 136
-17.9 -35.1 27.5 91 93 92
-17.3 -35.1 27.5 88 88 88
-16.7 -35.1 27.5 57 58 56
397.1 -287.6 225.2 211 211 211
417.3 -298.3 233.5 211 211 211
422.7 -298.3 233.5 211 211 211
433.5 -302.0 236.5 212 213 212
423.1 -291.1 227.9 212 213 212
418.3 -284.2 222.5 212 213 212
410.7 -259.8 203.4 215 215 215
54.6 -31.0 24.3 197 197 197
88.0 -31.2 24.4 135 135 135
89.4 -31.5 24.7 128 131 130
89.9 -31.5 24.7 128 131 130
43.6 -15.0 11.7 128 128 128
43.0 -14.7 11.5 128 128 128
72.6 -24.7 19.3 127 127 127
-65.0 -33.7 26.9 59 59 59
-64.4 -33.7 26.9 35 35 35
-63.8 -33.7 26.9 39 41 41
-63.2 -33.7 26.9 36 37 36
-62.5 -33.7 26.9 26 26 26
-61.9 -33.7 26.9 20 23 21
-60.8 -33.4 26.6 24 24 24
-59.7 -33.2 26.5 147 147 147
-58.4 -33.5 26.7 153 153 153
-58.1 -33.6 26.8 149 151 151
-57.4 -33.6 26.8 188 187 186
-56.4 -33.8 26.9 163 162 160
-49.6 -34.2 27.3 54 54 54
-48.2 -33.7 26.9 54 54 54
-47.6 -33.7 26.9 55 55 55
-45.7 -33.7 26.9 57 57 55
-45.0 -33.7 26.9 55 55 55
-44.4 -33.7 26.9 55 55 55
-43.8 -33.7 26.9 40 42 42
-43.2 -33.7 26.9 25 25 25
-42.4 -33.6 26.8 29 31 29
-41.8 -33.6 26.8 87 89 88
-17.7 -33.9 27.1 91 93 92
-17.1 -33.9 27.1 89 91 90
-16.4 -33.8 26.9 79 79 79
387.9 -275.8 220.0 211 211 211
412.2 -289.3 230.7 211 211 211
444.6 -304.1 242.5 212 213 212
418.1 -282.4 225.2 212 213 212
408.7 -272.6 217.4 212 213 212
55.4 -30.8 24.6 198 198 198
89.2 -31.1 24.8 113 114 113
91.0 -31.5 25.1 113 114 113
92.1 -31.7 25.3 119 119 119
92.6 -31.6 25.2 122 122 122
43.6 -14.6 11.7 119 119 119
-74.1 -32.4 26.3 75 76 76
-73.6 -32.4 26.3 77 79 77
-72.8 -32.4 26.3 66 66 66
-72.3 -32.4 26.3 165 165 165
-71.7 -32.4 26.3 148 148 148
-71.0 -32.4 26.3 153 153 153
-70.1 -32.5 26.4 191 191 191
-69.3 -32.4 26.3 191 191 191
-68.7 -32.4 26.3 152 152 152
-68.1 -32.4 26.3 59 59 59
-67.4 -32.4 26.3 53 53 53
-66.8 -32.4 26.3 66 66 66
-66.2 -32.4 26.3 67 69 67
-65.6 -32.4 26.3 73 73 73
-65.3 -32.6 26.5 73 73 73
-64.4 -32.4 26.3 66 66 66
-63.7 -32.4 26.3 53 53 53
-63.2 -32.4 26.3 33 32 30
-62.6 -32.5 26.4 33 32 30
-62.0 -32.5 26.4 26 26 26
-61.3 -32.4 26.3 18 22 19
-60.7 -32.4 26.3 18 22 19
-60.1 -32.4 26.3 24 24 24
-59.3 -32.3 26.3 147 147 147
-58.9 -32.4 26.3 150 152 152
-58.4 -32.5 26.4 191 190 188
-57.7 -32.5 26.4 146 146 146
-57.0 -32.4 26.3 132 132 132
-56.3 -32.3 26.3 195 198 197
-56.0 -32.5 26.4 182 182 182
-55.3 -32.5 26.4 169 171 170
-54.4 -32.3 26.2 103 102 100
-53.8 -32.3 26.3 126 129 128
-53.4 -32.4 26.3 147 147 147
-52.7 -32.4 26.3 106 106 106
-52.1 -32.4 26.3 4 10 6
-51.4 -32.4 26.3 14 14 14
-50.8 -32.4 26.3 11 11 11
-50.2 -32.3 26.3 29 31 29
-50.0 -32.6 26.5 39 39 39
-48.9 -32.3 26.3 19 23 20
-48.7 -32.6 26.5 41 41 41
-48.4 -32.8 26.7 52 52 52
-47.6 -32.6 26.5 54 54 54
-46.5 -32.3 26.3 52 52 52
-45.8 -32.3 26.2 50 50 50
-45.3 -32.4 26.3 52 52 52
-44.9 -32.5 26.4 52 52 52
-44.2 -32.5 26.4 50 50 50
-43.6 -32.4 26.3 46 46 46
-42.9 -32.4 26.3 39 39 39
-42.3 -32.4 26.3 27 27 27
-41.7 -32.4 26.3 29 30 28
-40.9 -32.3 26.2 91 91 91
-40.3 -32.3 26.2 16 20 17
-39.8 -32.3 26.3 25 25 25
-38.9 -32.1 26.1 120 120 120
-38.7 -32.4 26.3 70 70 70
-38.0 -32.4 26.3 37 38 37
-37.5 -32.5 26.4 98 98 98
-36.7 -32.3 26.3 45 44 43
-17.6 -33.1 26.9 91 94 93
-16.9 -33.1 26.9 89 91 90
-16.3 -33.1 26.9 79 79 79
450.2 -298.4 242.5 207 210 209
81.8 -28.1 22.9 102 102 102
49.8 -16.9 13.8 108 110 110
50.2 -16.9 13.8 112 112 112
44.7 -14.7 11.9 112 112 112
44.5 -14.6 11.8 112 112 112
44.8 -14.5 11.8 115 115 115
-46.1 -23.7 19.6 20 23 21
-45.7 -23.7 19.6 18 18 18
-44.9 -23.5 19.5 18 18 18
-44.2 -23.6 19.6 124 124 124
-42.4 -23.1 19.2 115 117 116
-41.9 -23.1 19.2 147 147 147
-41.7 -23.5 19.5 184 187 186
-33.7 -23.0 19.0 52 52 52
-33.3 -23.0 19.0 52 52 52
-20.0 -39.9 33.0 64 63 61
-19.1 -39.4 32.7 56 58 58
468.2 -304.5 252.2 215 215 215
55.0 -29.5 24.4 202 202 202
53.6 -28.4 23.6 202 202 202
81.0 -27.5 22.8 55 54 53
82.4 -27.8 23.0 98 98 98
86.3 -28.9 24.0 104 104 104
49.8 -16.6 13.8 108 108 108
50.3 -16.7 13.8 108 108 108
51.0 -16.8 13.9 108 108 108
45.5 -14.5 12.0 91 93 92
-37.1 -18.7 15.8 18 22 19
-36.5 -18.7 15.8 20 23 21
-35.7 -18.7 15.8 107 109 109
-35.0 -18.6 15.7 149 149 149
-34.6 -18.7 15.8 145 145 144
-34.2 -18.7 15.8 149 149 149
-29.1 -18.7 15.8 44 43 42
-34.3 -22.6 19.1 54 54 54
-33.4 -22.3 18.9 54 54 54
-26.0 -18.9 16.0 41 41 41
-21.9 -41.1 34.7 92 92 92
-20.0 -39.0 33.0 91 91 91
-19.2 -38.9 32.8 36 37 36
55.1 -29.0 24.5 202 202 202
53.9 -28.0 23.7 202 202 202
82.9 -27.5 23.2 92 95 94
86.9 -28.6 24.1 100 102 102
49.8 -16.3 13.7 105 105 105
50.1 -16.3 13.7 105 105 105
51.0 -16.5 13.9 102 104 104
51.2 -16.4 13.9 100 102 102
-37.2 -18.8 16.2 18 22 19
-37.0 -18.8 16.2 24 24 24
-36.6 -18.8 16.2 104 104 104
-36.2 -18.8 16.2 145 145 144
-35.8 -18.8 16.2 179 182 181
-27.1 -19.3 16.7 54 54 54
-26.8 -19.3 16.7 35 35 35
-26.3 -19.2 16.6 29 30 28
-23.4 -41.6 35.8 96 96 96
-22.2 -40.8 35.2 94 94 94
-20.7 -39.6 34.1 104 106 106
-19.9 -39.6 34.1 90 90 90
13.5 -12.0 10.4 204 207 206
88.0 -28.4 24.4 99 99 99
50.1 -15.9 13.7 101 101 101
50.0 -15.6 13.5 73 73 73
-38.2 -19.0 16.7 132 132 132
-37.6 -18.9 16.7 120 120 120
-37.2 -18.9 16.7 169 171 170
-29.6 -19.3 17.0 66 66 66
-28.9 -19.1 16.8 62 62 62
-28.6 -19.1 16.8 60 60 60
-27.6 -19.0 16.7 63 64 62
-27.2 -19.0 16.7 177 180 179
-26.8 -18.9 16.7 229 229 229
-26.4 -18.9 16.7 224 224 224
-25.9 -18.9 16.6 217 220 219
-24.6 -42.9 37.7 97 97 97
-23.0 -41.5 36.4 96 99 98
-21.9 -41.1 36.1 79 81 80
13.5 -11.8 10.4 212 213 212
88.9 -28.1 24.7 98 98 98
91.0 -28.6 25.1 100 100 100
49.9 -15.6 13.7 96 96 96
50.3 -15.6 13.7 81 84 83
50.4 -15.5 13.6 70 69 68
50.5 -15.5 13.6 70 69 68
-29.9 -19.1 17.1 58 59 59
-27.2 -18.6 16.7 227 227 227
-28.6 -47.1 42.2 121 121 121
-25.8 -43.9 39.4 96 96 96
-23.9 -42.2 37.8 94 94 94
-25.9 -49.5 44.4 31 31 31
91.3 -28.1 25.2 109 109 109
50.5 -15.4 13.8 90 90 90
51.0 -15.5 13.9 78 78 78
51.3 -15.5 13.9 72 72 72
-129.1 -51.7 47.4 78 80 78
-128.0 -51.7 47.4 94 94 94
-122.6 -51.3 47.1 51 51 51
-118.9 -50.2 46.0 63 64 62
-121.4 -51.7 47.4 77 78 76
-117.2 -51.9 47.5 89 91 90
-114.4 -51.1 46.8 88 89 87
-111.5 -52.3 47.9 93 93 93
-107.6 -51.0 46.7 128 130 129
-106.3 -50.8 46.6 137 139 138
-90.5 -51.7 47.4 68 70 68
-89.2 -51.6 47.3 55 55 55
-87.2 -51.7 47.4 75 77 75
-81.8 -51.1 46.8 86 88 88
-77.0 -48.8 44.7 194 194 194
-80.6 -51.7 47.4 207 210 209
-77.7 -52.0 47.6 231 231 231
-76.6 -52.0 47.6 234 234 234
-26.6 -49.6 45.5 15 19 16
91.3 -27.5 25.2 118 118 118
50.7 -15.2 13.9 105 107 107
51.1 -15.2 13.9 81 84 83
51.4 -15.2 13.9 75 76 76
52.2 -15.3 14.1 74 74 74
52.4 -15.3 14.0 75 76 76
-139.7 -53.4 50.0 49 49 49
-137.1 -52.9 49.5 72 72 72
-137.0 -53.3 49.9 90 92 91
-135.9 -53.3 49.9 140 140 140
-134.7 -53.3 49.9 109 111 111
-133.6 -53.3 49.9 77 78 76
-132.4 -53.3 49.9 47 47 47
-128.5 -52.2 48.9 53 52 52
-125.8 -51.5 48.3 53 52 52
-125.0 -51.7 48.4 71 71 71
-125.8 -52.5 49.1 77 78 76
-124.6 -52.5 49.1 67 69 67
-125.1 -53.2 49.8 77 78 76
-123.1 -53.3 49.9 184 184 184
-119.7 -52.3 49.0 89 91 90
-115.2 -52.9 49.5 145 145 144
-111.8 -51.8 48.5 144 144 144
-110.3 -51.7 48.4 144 144 144
-110.9 -52.5 49.1 13 13 13
-110.1 -52.6 49.3 26 26 26
-108.6 -52.5 49.1 24 24 24
-107.5 -52.5 49.1 19 23 20
-100.9 -52.6 49.3 108 108 108
-100.5 -53.0 49.6 132 132 132
-101.3 -54.0 50.6 135 135 135
-97.7 -52.7 49.4 105 105 105
-100.5 -54.9 51.4 61 61 61
-98.0 -54.2 50.7 91 91 91
-94.0 -52.6 49.3 87 89 88
-91.9 -52.1 48.8 67 67 67
-92.5 -53.0 49.6 164 167 166
-90.4 -52.5 49.1 200 202 202
-89.9 -52.9 49.5 203 203 203
-89.0 -53.0 49.6 192 192 192
-87.2 -52.6 49.3 124 124 124
-83.6 -51.1 47.9 58 58 56
-82.1 -50.9 47.6 83 83 83
-83.7 -52.6 49.3 92 92 92
-84.3 -53.7 50.3 104 103 101
-82.7 -53.4 50.0 229 229 229
-80.3 -52.6 49.3 231 231 231
-79.2 -52.6 49.3 234 236 236
-77.8 -52.5 49.1 240 240 240
-77.9 -53.3 49.9 234 236 236
-30.1 -51.0 47.8 99 99 99
-28.7 -50.5 47.3 111 111 111
-27.4 -50.1 46.9 23 24 23
91.4 -26.9 25.2 128 130 129
50.5 -14.8 13.8 112 112 112
51.0 -14.8 13.9 89 89 89
51.2 -14.8 13.9 80 83 82
51.8 -14.9 14.0 80 83 82
52.2 -14.9 14.0 79 79 79
51.9 -14.7 13.8 79 79 79
-28.6 -49.3 47.2 109 109 109
-27.5 -49.2 47.1 11 11 11
-34.8 -64.8 62.0 23 24 23
49.9 -14.3 13.7 125 125 125
50.6 -14.4 13.8 90 90 90
50.9 -14.4 13.8 80 83 82
52.0 -14.5 13.9 79 79 79
51.5 -14.3 13.7 79 79 79
50.9 -14.0 13.4 80 83 82
50.7 -13.9 13.3 156 159 158
-37.3 -65.3 63.9 22 22 22
-35.6 -64.8 63.5 26 26 26
16.0 -10.8 10.6 217 217 217
16.1 -10.7 10.5 216 216 216
50.6 -14.1 13.8 90 90 90
50.9 -14.1 13.8 80 83 82
-33.0 -11.7 11.7 99 98 96
-32.7 -11.7 11.7 25 25 25
-40.6 -69.4 69.5 45 45 45
-39.6 -70.5 70.6 13 17 14
-38.1 -70.7 70.8 147 149 149
-36.4 -70.7 70.8 178 178 178
-42.2 -70.4 72.2 47 48 47
-41.1 -71.5 73.3 21 21 21
-39.9 -72.3 74.2 161 164 163
-37.7 -71.5 73.3 180 180 180
-43.3 -70.6 74.2 29 29 29
-41.9 -71.2 74.8 19 19 19
-42.2 -74.7 78.5 166 166 166
-40.2 -74.4 78.2 179 179 179
27.8 -16.3 17.1 215 215 215
27.6 -15.9 16.7 218 218 218
28.2 -16.0 16.9 218 218 218
28.6 -16.1 16.9 218 218 218
28.8 -16.0 16.8 218 218 218
150.1 -66.2 69.5 200 200 200
229.8 -69.2 72.8 47 48 47
-44.4 -70.5 76.0 29 29 29
-41.4 -68.6 73.9 27 27 27
-41.8 -72.3 77.8 159 162 161
-40.7 -73.5 79.1 180 180 180
130.6 -55.6 59.9 200 200 200
228.9 -67.3 72.5 51 51 51
-229.4 -102.5 113.3 118 118 118
-217.6 -98.4 108.7 55 55 55
-212.7 -97.3 107.5 55 55 55
-46.0 -71.3 78.8 27 27 27
-42.3 -68.2 75.4 22 22 22
-41.7 -70.2 77.5 170 172 172
-41.6 -73.2 80.8 179 179 179
129.0 -53.5 59.1 200 200 200
232.5 -66.6 73.6 55 54 53
-242.5 -105.6 119.7 129 132 131
-232.3 -102.4 116.1 34 33 32
-217.6 -97.0 110.0 39 39 39
-45.0 -73.8 83.7 177 177 177
-45.7 -78.3 88.8 181 181 181
159.7 -225.5 255.6 224 224 224
149.6 -61.1 69.3 200 200 200
229.8 -64.2 72.8 60 60 60
-275.6 -116.9 136.1 156 156 156
-263.0 -112.8 131.4 58 58 58
144.1 -198.1 230.7 224 224 224
25.7 -13.0 15.2 218 221 220
150.1 -59.7 69.5 200 200 200
-172.0 -292.7 350.3 179 182 181
168.8 -225.8 270.2 224 224 224
25.7 -12.9 15.4 218 221 220
24.8 -12.2 14.6 218 221 220
150.1 -58.1 69.5 198 198 198
24.8 -11.9 14.6 218 221 220
87.1 -31.7 39.1 200 200 200
-9.2 -8.5 10.7 44 44 44
24.7 -11.5 14.6 218 221 220
24.2 -11.1 14.1 219 222 221
135.8 -49.1 62.2 198 198 198
216.2 -75.8 96.0 198 198 198
-42.2 -14.9 19.5 78 78 78
-41.5 -14.9 19.4 147 147 147
-8.9 -8.1 10.6 41 41 39
161.9 -198.4 259.1 224 224 224
24.6 -11.1 14.5 219 222 221
24.0 -10.7 14.0 219 222 221
221.8 -75.4 98.5 198 198 198
-42.8 -13.9 18.8 74 75 73
-41.8 -13.9 18.7 75 76 74
-41.5 -13.9 18.8 75 76 74
-42.0 -14.4 19.4 83 83 83
-41.1 -14.2 19.2 152 152 152
-7.9 -7.9 10.6 182 182 182
161.9 -192.4 259.1 224 224 224
24.6 -10.8 14.6 219 222 221
24.0 -10.4 14.0 219 222 221
242.0 -79.8 107.5 200 200 200
-42.9 -13.4 18.6 74 75 73
-42.5 -13.4 18.6 79 79 79
-41.9 -13.4 18.6 77 77 77
-41.4 -13.3 18.5 73 73 73
-41.2 -13.4 18.6 74 74 74
-40.7 -13.4 18.6 74 74 74
-41.2 -13.7 19.0 79 79 79
-40.2 -13.5 18.8 81 81 81
-39.2 -13.3 18.5 74 74 74
-248.8 -88.4 122.8 59 59 59
-233.8 -84.0 116.8 55 55 55
-277.0 -109.7 152.6 66 66 66
-210.6 -84.5 117.5 66 66 66
-29.7 -13.3 18.5 59 59 59
-29.3 -13.3 18.5 119 119 119
-28.9 -13.3 18.5 140 140 140
-28.8 -13.5 18.7 136 138 137
-28.0 -13.3 18.5 119 119 119
155.5 -179.0 248.9 224 224 224
24.7 -10.5 14.6 219 222 221
24.3 -10.2 14.2 219 222 221
266.4 -90.7 126.1 90 90 90
228.2 -76.9 106.9 157 157 157
242.0 -77.3 107.5 198 198 198
-41.1 -12.8 18.4 74 74 74
-40.6 -12.8 18.4 74 74 74
-253.2 -82.3 118.2 79 79 79
-242.8 -79.8 114.6 67 67 67
-243.7 -82.8 119.0 49 48 47
-235.0 -80.8 116.1 49 48 47
-221.5 -77.0 110.6 60 60 60
-206.8 -80.3 115.3 64 64 62
-175.2 -68.9 99.0 64 64 62
-29.5 -12.8 18.4 33 34 32
-28.4 -12.9 18.5 149 149 149
-27.9 -12.8 18.4 132 132 132
153.4 -171.0 245.7 224 224 224
25.7 -10.5 15.1 219 222 221
24.3 -9.8 14.1 219 222 221
210.4 -68.6 98.5 147 149 149
183.1 -59.0 84.8 183 183 183
239.3 -74.0 106.3 198 198 198
-229.5 -67.7 100.6 132 132 132
-122.4 -36.5 54.2 66 66 66
-220.1 -66.3 98.5 58 59 59
-48.3 -14.9 22.1 59 59 59
-47.7 -14.8 22.0 59 59 59
-220.1 -69.2 102.8 59 59 59
-215.4 -68.4 101.7 57 57 57
-200.1 -64.3 95.5 49 49 49
-217.7 -72.3 107.5 44 46 46
-213.9 -71.9 106.9 75 75 75
-197.2 -74.0 110.0 64 64 62
-169.9 -64.6 96.0 62 62 62
51.2 -67.7 100.6 224 224 224
157.5 -169.7 252.2 224 224 224
23.9 -9.4 13.9 219 222 221
229.6 -73.1 108.7 131 133 132
210.4 -66.3 98.5 159 159 159
230.3 -69.5 103.4 195 195 195
225.4 -67.3 100.1 195 195 195
227.7 -67.3 100.1 198 198 198
222.9 -65.3 97.0 198 198 198
229.9 -66.6 99.0 202 202 202
242.4 -69.5 103.4 202 202 202
246.1 -69.9 103.9 205 205 205
-267.9 -74.0 114.0 28 28 28
-266.8 -74.5 114.6 27 27 27
-250.5 -70.6 108.7 188 190 190
-245.1 -69.8 107.5 181 184 183
-242.6 -69.8 107.5 27 27 27
-240.1 -69.8 107.5 25 25 25
-256.4 -77.8 119.7 25 25 25
-227.7 -69.8 107.5 32 33 31
-225.2 -69.8 107.5 30 29 29
-244.0 -78.3 120.5 152 152 152
-218.9 -71.0 109.3 46 46 46
-216.4 -71.0 109.3 150 150 150
-199.5 -72.3 111.3 61 61 61
50.1 -64.0 98.5 225 225 225
52.4 -64.0 98.5 225 225 225
155.5 -161.7 248.9 220 220 220
24.4 -9.2 14.2 219 222 221
228.3 -70.2 108.1 128 130 129
210.4 -64.0 98.5 164 164 164
226.6 -66.1 101.7 196 196 196
224.2 -64.7 99.6 196 196 196
226.5 -64.7 99.6 198 198 198
222.9 -63.0 97.0 202 202 202
229.9 -64.3 99.0 202 202 202
238.5 -66.1 101.7 202 202 202
240.8 -66.1 101.7 202 202 202
240.6 -65.4 100.6 205 205 205
-312.7 -81.7 130.5 62 62 62
-314.0 -82.8 132.3 55 55 55
-306.6 -81.7 130.5 55 55 55
-301.5 -81.1 129.6 66 66 66
-296.5 -80.6 128.7 151 151 151
-287.6 -79.0 126.1 108 108 106
-296.6 -82.3 131.4 52 52 52
-293.5 -82.3 131.4 31 32 30
-288.5 -81.7 130.5 28 28 28
-287.4 -82.3 131.4 30 29 29
-284.3 -82.3 131.4 28 28 28
-281.3 -82.3 131.4 28 28 28
-270.7 -80.0 127.8 20 23 21
-269.1 -82.3 131.4 32 33 31
-262.4 -81.1 129.6 102 101 99
-250.8 -78.5 125.3 19 19 19
-244.6 -77.4 123.6 163 163 163
-217.4 -75.9 121.3 64 64 62
50.6 -62.4 99.6 225 225 225
155.5 -155.9 248.9 221 221 221
24.7 -9.1 14.6 220 223 222
211.5 -62.0 99.0 163 163 163
231.6 -65.1 103.9 194 194 194
224.2 -62.4 99.6 196 196 196
225.3 -62.0 99.0 196 196 196
221.8 -60.4 96.5 199 199 199
228.7 -61.7 98.5 202 202 202
146.9 -38.1 60.8 200 200 200
-257.6 -77.6 128.7 70 72 69
-318.1 -105.6 175.2 66 66 66
-232.3 -78.1 129.6 69 69 69
24.8 -8.8 14.6 220 223 222
198.0 -55.9 92.7 163 163 163
234.0 -62.7 103.9 194 194 194
224.1 -59.4 98.5 196 196 196
211.0 -55.4 91.8 199 199 199
219.6 -57.0 94.6 202 202 202
159.8 -40.3 66.8 205 205 205
147.3 -36.8 61.0 200 200 200
-315.1 -100.6 173.5 66 66 66
-216.0 -69.9 120.5 66 66 66
166.4 -154.5 266.4 222 222 222
251.3 -69.0 119.0 80 83 82
211.5 -57.4 99.0 149 149 149
236.8 -61.6 106.3 194 194 194
235.3 -60.6 104.5 194 194 194
170.0 -41.2 71.1 206 206 206
148.3 -35.6 61.4 203 203 203
134.8 -32.1 55.3 236 236 236
80.1 -12.3 21.2 87 89 88
95.6 -14.5 25.1 100 102 102
13.4 -5.7 10.3 161 164 163
210.4 -54.8 98.5 144 144 144
171.6 -44.2 79.5 169 171 170
229.0 -56.6 101.7 196 196 196
223.0 -54.6 98.0 197 197 197
174.6 -40.6 73.0 207 207 207
149.3 -34.4 61.8 200 200 200
80.2 -11.8 21.2 87 89 88
94.9 -13.9 24.9 115 114 114
147.7 -126.1 236.5 222 222 222
13.2 -5.5 10.4 85 85 85
13.3 -5.5 10.2 58 60 59
197.0 -49.2 92.3 143 145 144
218.4 -51.7 97.0 195 195 195
220.7 -51.7 97.0 195 195 195
213.1 -49.5 92.7 197 197 197
172.6 -38.5 72.2 206 206 206
152.7 -33.7 63.3 200 200 200
79.7 -11.2 21.1 88 90 89
76.5 -10.7 20.0 157 157 157
38.8 -34.2 67.1 224 224 224
142.4 -116.3 227.9 221 221 221
13.3 -5.2 10.2 83 82 80
387.4 -94.6 185.5 176 179 178
300.4 -72.5 142.2 66 66 66
212.6 -50.8 99.6 144 146 146
230.3 -52.7 103.4 192 192 192
225.3 -50.5 99.0 197 197 197
218.5 -48.5 95.1 199 199 199
246.7 -54.2 106.3 200 200 200
162.1 -34.6 67.8 206 206 206
154.3 -32.6 63.9 202 202 202
79.7 -10.7 21.1 88 90 89
76.2 -10.2 20.0 100 100 100
43.7 -38.4 78.8 225 225 225
144.1 -112.3 230.7 221 221 221
13.2 -5.0 10.4 60 62 61
13.3 -5.0 10.3 84 84 84
257.8 -59.4 122.0 79 79 79
198.0 -45.1 92.7 141 140 139
171.6 -38.7 79.5 176 179 178
231.6 -50.6 103.9 192 192 192
184.4 -39.9 81.9 192 192 192
223.0 -47.7 98.0 195 195 195
214.2 -45.4 93.2 197 197 197
178.8 -36.4 74.8 204 204 204
151.7 -30.6 62.8 198 198 198
179.0 -132.9 286.6 222 222 222
13.2 -4.8 10.4 59 61 60
13.4 -4.8 10.3 67 67 67
218.4 -47.4 102.3 118 118 118
182.3 -39.2 84.4 148 150 150
235.5 -49.0 105.7 190 190 190
231.5 -47.7 102.8 193 193 193
244.5 -49.8 107.5 195 195 195
227.6 -45.9 99.0 198 198 198
258.3 -51.6 111.3 198 198 198
280.7 -55.5 119.7 200 200 200
260.4 -51.0 110.0 204 204 204
118.0 -14.4 31.2 86 88 88
279.9 -52.1 118.2 204 204 204
310.2 -52.1 118.2 63 65 65
81.3 -9.5 21.5 86 88 88
81.2 -9.0 21.6 83 83 83
24.3 -3.5 12.7 225 225 225
25.0 -3.6 14.3 221 221 221
25.3 -3.6 14.3 225 225 225
25.6 -3.6 14.3 225 225 225
26.0 -3.7 14.4 221 221 221
26.4 -3.7 14.4 225 225 225
26.6 -3.6 14.3 225 225 225
27.0 -3.6 14.3 225 225 225
27.1 -3.6 14.3 225 225 225
26.8 -3.5 13.9 225 225 225
29.0 -3.7 14.4 225 225 225
29.1 -3.6 14.2 225 225 225
-159.7 -27.3 118.2 91 93 92
26.2 -3.3 14.3 222 222 222
26.3 -3.3 14.2 222 222 222
26.7 -3.2 14.0 228 228 228
26.7 -3.2 13.8 228 228 228
26.9 -3.2 13.8 226 226 226
28.7 -3.3 14.4 226 226 226
28.9 -3.3 14.3 222 222 222
29.0 -3.3 14.2 228 228 228
28.8 -3.2 13.9 229 229 229
587.3 -52.7 227.9 60 60 60
393.5 -35.0 151.3 61 61 61
-168.4 -25.1 120.5 22 25 23
-165.6 -25.1 120.5 42 42 42
-163.8 -25.2 121.3 98 98 98
-157.0 -24.6 118.2 47 50 49
-157.2 -25.1 120.5 38 38 36
28.9 -3.0 14.3 222 222 222
28.8 -2.9 13.9 228 228 228
938.6 -77.1 370.9 69 69 69
792.0 -64.5 310.1 62 62 62
677.1 -54.6 262.7 63 63 63
393.5 -31.5 151.3 67 69 68
-165.2 -21.8 118.2 27 27 27
-162.5 -21.8 118.2 30 29 29
-163.8 -22.4 121.3 34 36 34
-155.0 -21.6 116.8 42 42 42
28.8 -2.6 13.9 218 221 220
369.4 -27.7 150.1 219 222 221
784.7 -57.3 310.1 65 67 66
766.8 -55.5 300.3 58 59 59
399.9 -28.4 153.8 79 81 80
387.7 -27.3 147.8 66 68 67
966.4 -58.2 315.3 55 54 53
1005.1 -59.2 320.6 69 68 67
-111.0 -12.4 76.9 22 25 23
128.1 -28.8 178.5 160 160 160
129.8 -28.3 175.2 196 196 196
135.1 -28.5 176.8 198 198 198
139.2 -28.5 176.8 195 195 195
143.3 -28.5 176.8 195 195 195
146.0 -28.3 175.2 200 200 200
147.4 -27.8 172.0 204 204 204
157.1 -28.8 178.5 207 207 207
161.2 -28.8 178.5 204 204 204
163.8 -28.5 176.8 195 195 195
164.9 -28.0 173.5 178 178 178
170.5 -28.3 175.2 67 67 67
174.5 -28.3 175.2 40 40 40
178.6 -28.3 175.2 44 44 44
179.4 -27.8 172.0 60 62 61
28.6 -2.2 13.8 219 222 221
443.4 -29.4 181.9 227 227 227
360.9 -23.7 146.6 227 227 227
493.5 -31.5 195.0 63 65 65
478.3 -30.2 187.3 63 63 63
447.2 -28.0 173.5 74 74 74
416.9 -25.9 160.3 77 77 77
352.0 -21.7 134.2 66 68 67
490.9 -29.9 185.5 61 61 61
604.0 -31.8 197.0 56 55 54
540.9 -28.3 175.2 52 52 52
550.1 -28.5 176.8 55 54 53
544.0 -28.0 173.5 69 68 67
510.6 -26.1 161.7 81 84 83
527.9 -26.8 165.9 77 77 77
546.1 -27.5 170.4 60 60 60
560.2 -28.0 173.5 30 29 29
534.8 -26.6 164.5 32 32 32
553.0 -27.3 168.9 29 29 29
567.1 -27.8 172.0 34 34 34
-111.4 -10.3 74.8 21 21 21
-110.6 -10.4 75.4 22 25 23
-111.5 -10.7 77.2 22 25 23
-105.4 -10.3 74.2 24 27 25
-103.3 -10.2 73.9 28 28 28
-101.9 -10.3 74.2 30 29 29
779.2 -42.2 305.1 65 67 66
658.8 -35.3 255.6 74 74 74
308.2 -16.2 117.5 63 63 63
743.4 -33.5 242.5 54 53 52
947.2 -42.6 370.9 65 67 66
304.5 -13.3 116.1 59 59 59
1183.3 -44.4 386.0 55 54 53
384.3 -13.6 147.8 66 66 66
349.5 -12.2 133.2 58 58 56
578.4 -17.2 187.3 49 49 49
-668.7 -7.7 350.3 51 51 51
-542.7 -7.4 337.8 21 21 21
-571.1 0.4 295.6 50 50 50
-462.9 0.3 242.5 50 50 50
-414.8 0.3 220.0 51 51 51
-410.7 0.3 255.6 20 20 20
-293.7 0.2 185.5 20 20 20
-351.2 0.4 295.6 211 211 211
-272.1 0.3 233.5 209 209 209
-260.2 0.3 227.9 215 215 215
-522.1 6.6 270.2 49 49 49
-388.3 5.0 203.4 50 50 50
-333.4 4.3 176.8 50 50 50
-323.2 4.3 173.5 51 51 51
-379.9 5.8 236.5 20 20 20
-256.0 4.0 161.7 20 20 20
-207.8 3.8 153.8 30 29 29
-224.9 4.7 193.0 129 129 129
-194.6 4.2 170.4 61 61 61
-424.8 10.6 222.5 50 50 50
-389.7 11.6 242.5 20 23 21
-145.2 5.2 109.3 34 36 34
-146.0 5.3 111.9 46 48 47
-144.3 5.4 112.6 225 225 225
-25.3 1.3 26.4 42 42 42
17.5 0.5 10.5 211 211 211
17.7 0.5 10.5 216 216 216
81.7 1.0 21.6 83 82 80
-58.2 1.8 25.8 53 52 52
-57.4 1.8 25.7 53 53 53
-145.2 7.6 107.5 24 27 25
-141.1 7.5 106.3 33 35 33
-140.2 7.6 107.5 44 44 44
-136.9 7.6 106.9 218 221 220
-25.0 1.9 26.1 40 42 42
-24.2 1.8 25.9 29 31 29
17.4 0.7 10.4 209 209 209
17.6 0.7 10.4 212 213 212
-56.2 2.4 25.2 53 52 52
-55.4 2.4 25.1 53 52 52
-55.1 2.4 25.2 53 52 52
-54.2 2.4 25.1 53 53 53
-53.5 2.4 25.0 53 53 53
-141.1 10.0 106.3 32 32 32
-24.7 2.4 25.2 34 34 34
-24.3 2.4 25.5 29 31 29
-23.8 2.4 25.5 29 31 29
-22.8 2.4 25.1 29 30 28
17.2 1.0 10.5 203 203 203
17.4 1.0 10.4 208 208 208
17.6 1.0 10.4 214 214 214
85.2 2.1 22.7 90 90 90
83.3 2.1 22.0 93 93 93
83.4 2.1 21.9 168 170 169
-23.9 3.0 25.6 29 31 29
17.4 1.2 10.6 200 200 200
17.6 1.2 10.6 206 206 206
17.9 1.2 10.6 211 211 211
19.9 1.2 10.6 224 224 224
20.2 1.2 10.6 224 224 224
85.5 2.7 22.7 89 89 89
84.4 2.6 22.3 89 89 89
84.8 2.6 22.3 158 158 158
17.4 1.5 10.6 199 199 199
17.6 1.5 10.5 205 205 205
17.9 1.5 10.5 210 210 210
18.1 1.5 10.6 215 215 215
19.1 1.5 10.7 219 219 219
19.2 1.5 10.6 222 222 222
19.5 1.5 10.6 222 222 222
19.7 1.5 10.6 225 225 225
19.9 1.5 10.6 225 225 225
20.1 1.5 10.6 225 225 225
20.6 1.5 10.6 224 224 224
86.1 3.2 22.7 88 88 86
17.0 1.7 10.3 200 200 200
17.3 1.7 10.3 200 200 200
17.5 1.7 10.3 208 208 208
17.6 1.7 10.3 212 213 212
17.9 1.7 10.3 216 216 216
18.1 1.7 10.3 220 220 220
18.4 1.7 10.3 220 220 220
19.1 1.7 10.3 224 224 224
19.4 1.7 10.3 224 224 224
19.6 1.7 10.3 224 224 224
19.8 1.7 10.3 224 224 224
20.1 1.7 10.3 222 222 222
20.3 1.7 10.3 225 225 225
904.1 60.8 370.9 204 204 204
1183.3 63.3 386.0 49 51 51
17.0 1.9 10.3 198 198 198
17.2 1.9 10.3 202 202 202
17.4 1.9 10.3 204 204 204
19.1 1.9 10.3 221 221 221
922.2 70.8 378.3 198 198 198
1115.0 68.1 363.8 58 59 59
-35.1 6.4 12.5 52 52 52
-34.7 6.4 12.4 49 50 48
-34.4 6.4 12.4 48 48 48
-31.9 6.4 12.5 131 134 133
-31.6 6.4 12.5 139 139 139
-31.3 6.4 12.4 145 145 144
-31.0 6.4 12.5 148 148 148
-30.7 6.4 12.5 151 151 151
-30.4 6.4 12.5 155 154 152
-29.8 6.4 12.4 153 153 153
-29.0 6.4 12.4 137 139 138
-28.7 6.4 12.5 123 123 123
-28.4 6.4 12.5 91 90 89
-27.8 6.4 12.4 21 22 20
-27.5 6.4 12.4 21 22 20
-27.3 6.4 12.5 24 24 24
-27.0 6.4 12.5 25 25 25
-26.7 6.4 12.5 27 27 27
-26.4 6.4 12.4 27 27 27
-23.2 6.4 12.5 67 69 67
-22.9 6.4 12.4 65 66 64
-12.5 6.4 12.4 115 117 116
-9.6 6.4 12.5 129 129 129
-9.3 6.4 12.4 124 124 124
-35.3 6.7 12.5 52 52 52
-35.3 6.8 12.7 48 48 48
-34.9 6.8 12.6 44 44 44
-33.9 6.8 12.7 141 141 141
-32.8 6.8 12.7 128 128 128
-32.5 6.8 12.7 132 135 134
-32.2 6.8 12.7 141 141 141
-31.9 6.8 12.7 145 145 144
-31.6 6.8 12.7 148 148 148
-31.3 6.8 12.7 152 152 152
-31.0 6.8 12.7 153 153 153
-30.7 6.8 12.7 154 154 154
-30.4 6.8 12.7 150 150 150
-30.1 6.8 12.7 135 135 135
-29.9 6.8 12.7 124 124 124
-29.5 6.8 12.7 157 157 157
-29.2 6.8 12.7 123 123 123
-28.8 6.8 12.6 97 100 99
-28.6 6.8 12.7 26 26 26
-27.7 6.8 12.7 25 25 25
-27.2 6.8 12.7 28 28 28
-23.9 6.8 12.7 73 73 73
-2.4 6.8 12.7 206 206 206
-2.1 6.7 12.6 228 228 228
-305.1 146.9 242.5 184 184 184
-333.9 173.6 286.6 30 31 30
-296.7 238.0 193.0 110 110 108
-31.6 14.1 11.2 89 89 89
-313.3 245.0 195.0 47 50 49
-308.8 245.0 195.0 103 103 103
-298.1 240.1 191.1 111 111 109
-293.7 240.1 191.1 111 111 109
-31.6 14.4 11.2 59 61 60
-280.6 214.2 167.4 13 13 13
-271.9 210.5 164.5 17 21 18
-275.3 216.1 168.9 25 25 25
-271.4 216.1 168.9 47 48 47
-267.4 216.1 168.9 112 111 110
-263.5 216.1 168.9 107 107 107
-261.9 218.1 170.4 112 111 110
-31.8 14.7 11.3 95 95 95
25.5 14.5 10.1 204 204 204
25.6 14.5 10.0 84 86 86
26.1 14.5 10.1 83 85 85
25.7 14.8 10.1 90 90 90
26.2 14.8 10.1 86 88 88
18.7 16.2 10.2 109 109 109
18.9 16.1 10.2 123 125 124
18.6 16.5 10.3 93 96 95
18.8 16.4 10.2 101 103 103
18.9 16.4 10.2 113 115 114
18.9 16.6 10.2 91 91 91
18.9 16.9 10.2 91 94 93
25.8 16.7 10.1 117 117 117
26.2 16.8 10.2 117 117 117
26.4 16.8 10.2 112 114 113
