ply
format ascii 1.0
element vertex 2166
property float x
property float y
property float z
property uchar red
property uchar green
property uchar blue
end_header
256.2 -616.4 245.7 162 162 162
288.5 -624.5 248.9 163 163 163
294.3 -624.5 248.9 160 160 160
307.6 -616.4 245.7 161 161 161
313.3 -616.4 245.7 161 161 161
368.8 -687.8 274.1 157 160 159
345.1 -632.8 252.2 157 160 159
346.4 -624.5 248.9 157 160 159
347.6 -616.4 245.7 157 160 159
353.3 -616.4 245.7 162 162 162
99.9 -163.7 65.2 155 158 157
101.7 -164.2 65.5 155 158 157
103.3 -164.2 65.5 156 159 158
104.4 -163.7 65.2 156 159 158
105.6 -163.1 65.0 156 159 158
88.9 -367.4 147.8 160 160 160
113.8 -370.3 148.9 164 164 164
123.2 -367.4 147.8 167 167 167
135.6 -373.2 150.1 165 165 165
145.0 -370.3 148.9 165 165 165
147.3 -367.4 147.8 162 162 162
207.4 -505.6 203.4 162 162 162
155.4 -370.3 148.9 162 162 162
157.6 -367.4 147.8 162 162 162
221.6 -505.6 203.4 163 163 163
168.4 -376.2 151.3 163 163 163
171.9 -376.2 151.3 163 163 163
174.0 -373.2 150.1 163 163 163
174.7 -367.4 147.8 163 163 163
178.2 -367.4 147.8 163 163 163
247.3 -500.2 201.2 163 163 163
188.0 -373.2 150.1 164 164 164
187.0 -364.5 146.6 161 161 161
294.2 -553.2 222.5 161 161 161
295.9 -546.8 220.0 161 161 161
229.1 -416.1 167.4 161 161 161
207.3 -370.3 148.9 161 161 161
215.8 -379.2 152.6 162 162 162
274.8 -475.0 191.1 158 161 160
98.9 -160.5 64.6 158 161 160
100.7 -161.0 64.8 158 161 160
102.9 -162.1 65.2 156 159 158
103.4 -160.5 64.6 156 159 158
103.8 -158.9 63.9 160 163 162
101.5 -153.2 61.6 157 160 159
30.5 -171.3 69.5 160 160 160
32.1 -171.3 69.5 154 156 156
33.7 -171.3 69.5 159 159 159
35.4 -171.3 69.5 161 161 161
37.0 -171.3 69.5 161 161 161
38.6 -171.3 69.5 160 160 160
40.2 -171.3 69.5 160 160 160
41.8 -171.3 69.5 160 160 160
43.4 -171.3 69.5 160 160 160
44.9 -170.6 69.3 163 163 163
46.7 -171.3 69.5 163 163 163
48.3 -171.3 69.5 164 164 164
49.5 -170.0 69.0 167 167 167
51.1 -170.0 69.0 167 167 167
53.1 -171.3 69.5 167 167 167
54.8 -171.3 69.5 167 167 167
56.4 -171.3 69.5 167 167 167
58.2 -171.9 69.8 169 171 170
59.8 -171.9 69.8 167 167 167
61.7 -172.5 70.1 164 164 164
62.8 -171.3 69.5 165 165 165
64.5 -171.3 69.5 165 165 165
66.1 -171.3 69.5 165 165 165
67.9 -171.9 69.8 162 162 162
69.6 -171.9 69.8 162 162 162
70.9 -171.3 69.5 162 162 162
72.5 -171.3 69.5 162 162 162
74.2 -171.3 69.5 162 162 162
75.8 -171.3 69.5 163 163 163
77.4 -171.3 69.5 163 163 163
79.6 -172.5 70.1 163 163 163
80.9 -171.9 69.8 163 163 163
82.2 -171.3 69.5 160 160 160
83.5 -170.6 69.3 163 163 163
85.2 -170.6 69.3 163 163 163
87.1 -171.3 69.5 164 164 164
89.0 -171.9 69.8 164 164 164
89.7 -170.0 69.0 161 161 161
88.4 -164.6 66.8 161 161 161
149.6 -264.7 107.5 164 164 164
102.2 -177.8 72.2 162 162 162
108.4 -182.7 74.2 162 162 162
108.4 -179.9 73.0 162 162 162
104.9 -171.3 69.5 162 162 162
105.7 -170.0 69.0 162 162 162
105.4 -167.0 67.8 162 162 162
109.3 -170.6 69.3 159 162 161
111.3 -171.3 69.5 159 162 161
110.1 -167.0 67.8 160 163 162
77.7 -100.6 40.9 161 164 163
75.3 -96.2 39.1 160 160 160
124.1 -93.4 37.9 99 101 101
60.3 -39.0 15.8 181 184 183
61.7 -166.6 68.3 165 165 165
79.6 -164.2 67.3 163 163 163
79.7 -161.3 66.1 163 163 163
86.8 -166.0 68.0 164 164 164
85.6 -160.8 65.9 164 164 164
82.5 -152.3 62.4 164 164 164
102.0 -178.8 73.3 164 164 164
89.5 -154.3 63.3 164 164 164
107.6 -179.5 73.6 165 165 165
108.9 -178.8 73.3 165 165 165
104.9 -169.6 69.5 165 165 165
103.4 -164.8 67.6 165 165 165
98.7 -154.8 63.5 165 165 165
105.8 -163.6 67.1 166 166 166
110.5 -168.4 69.0 163 163 163
107.0 -160.8 65.9 164 164 164
101.8 -150.8 61.8 164 164 164
80.4 -103.0 42.2 161 164 163
76.7 -97.1 39.8 161 164 163
135.8 -101.9 41.8 105 104 102
113.8 -84.2 34.5 99 101 101
60.0 -38.5 15.8 194 194 194
59.1 -37.6 15.4 218 218 218
50.9 -117.8 48.8 162 162 162
50.9 -115.4 47.8 162 162 162
58.2 -119.0 49.3 163 163 163
58.0 -116.3 48.1 166 166 166
58.7 -115.4 47.8 166 166 166
61.9 -117.2 48.5 167 167 167
61.0 -113.4 46.9 167 167 167
65.6 -117.8 48.8 167 167 167
75.4 -128.7 53.3 167 167 167
139.0 -226.3 93.6 168 168 168
136.5 -218.7 90.5 168 168 168
64.9 -100.9 41.8 165 165 165
142.8 -218.7 90.5 166 166 166
142.2 -214.6 88.8 166 166 166
136.5 -203.1 84.1 164 164 164
90.2 -116.0 48.0 161 164 163
84.1 -106.8 44.2 161 164 163
82.3 -103.2 42.7 161 164 163
128.1 -95.2 39.4 105 104 102
117.8 -86.9 36.0 105 104 102
56.7 -37.6 15.6 150 150 150
57.1 -37.6 15.6 194 194 194
57.4 -37.6 15.6 197 200 199
57.3 -37.3 15.4 183 186 185
59.2 -38.0 15.7 209 209 209
59.5 -38.0 15.7 183 186 185
59.2 -37.6 15.5 218 218 218
58.8 -37.1 15.3 215 215 215
37.6 -107.8 45.0 164 164 164
39.6 -107.8 45.0 164 164 164
40.8 -108.0 45.1 165 165 165
42.8 -107.8 45.0 165 165 165
47.3 -108.5 45.4 165 165 165
47.9 -107.5 44.9 166 166 166
52.1 -107.5 44.9 166 166 166
53.1 -107.5 44.9 169 169 169
54.3 -107.8 45.0 169 169 169
55.2 -107.5 44.9 169 169 169
56.5 -108.0 45.1 170 171 170
57.2 -107.3 44.8 170 171 170
57.3 -105.5 44.1 170 171 170
61.5 -109.3 45.7 170 171 170
61.5 -107.5 44.9 170 171 170
63.0 -108.3 45.3 170 171 170
66.9 -113.2 47.3 170 171 170
66.8 -111.2 46.5 170 171 170
148.6 -239.5 100.1 172 172 172
144.1 -228.6 95.5 172 172 172
147.7 -224.1 93.6 173 173 173
147.0 -219.7 91.8 173 173 173
148.4 -218.7 91.4 173 173 173
155.0 -225.2 94.1 170 171 170
92.8 -118.2 49.4 164 167 166
87.4 -109.9 45.9 164 167 166
84.3 -104.8 43.8 161 164 163
107.7 -78.2 32.7 99 101 101
47.7 -31.1 13.0 194 194 194
47.6 -30.8 12.9 201 203 203
47.0 -30.2 12.6 181 184 183
38.9 -82.9 35.0 166 166 166
44.5 -87.5 36.9 171 173 173
45.4 -87.5 36.9 171 173 173
48.1 -87.7 37.0 174 176 176
46.7 -83.6 35.3 172 174 174
51.1 -88.4 37.3 172 174 174
51.9 -88.4 37.3 172 174 174
54.1 -89.1 37.6 170 171 170
175.5 -280.1 118.2 175 177 177
152.5 -239.7 101.2 173 175 175
205.6 -313.5 132.3 173 175 175
164.0 -246.3 103.9 174 176 176
153.7 -227.5 96.0 174 176 176
161.7 -235.9 99.6 174 176 176
162.3 -233.5 98.5 175 177 177
96.6 -121.8 51.4 168 168 168
47.5 -30.7 12.9 179 179 179
47.2 -30.3 12.8 197 200 199
46.6 -29.7 12.5 191 191 191
25.7 -79.0 33.7 167 167 167
26.5 -79.0 33.7 167 167 167
27.3 -79.0 33.7 169 171 170
28.0 -78.8 33.6 169 171 170
28.8 -78.8 33.6 169 171 170
29.5 -78.7 33.5 169 171 170
30.3 -78.7 33.5 170 172 172
31.1 -78.8 33.6 170 172 172
32.0 -79.1 33.7 170 172 172
34.4 -79.3 33.8 170 172 172
35.2 -79.3 33.8 170 172 172
36.0 -79.3 33.8 171 173 173
36.9 -79.5 33.9 173 175 175
37.4 -78.8 33.6 171 173 173
39.1 -79.1 33.7 171 173 173
39.7 -78.8 33.6 173 175 175
40.3 -78.4 33.4 174 176 176
41.4 -79.1 33.7 174 176 176
41.9 -78.6 33.5 174 176 176
43.1 -79.3 33.8 179 179 179
43.9 -79.3 33.8 181 181 181
44.7 -79.3 33.8 174 176 176
45.0 -78.4 33.4 174 176 176
46.5 -79.7 34.0 174 176 176
47.4 -80.0 34.1 174 176 176
47.7 -79.1 33.7 179 179 179
48.5 -79.1 33.7 182 182 182
49.3 -79.1 33.7 180 180 180
161.1 -250.8 106.9 180 180 180
211.5 -319.3 136.1 180 180 180
167.7 -249.3 106.3 183 183 183
152.9 -224.2 95.5 174 176 176
158.4 -228.8 97.5 176 179 178
160.6 -228.8 97.5 175 177 177
149.8 -210.3 89.7 177 180 179
27.8 -37.9 16.2 175 177 177
27.9 -37.5 16.0 176 179 178
27.8 -37.0 15.8 176 179 178
47.9 -30.6 13.0 160 160 160
37.8 -71.5 30.8 198 198 198
44.5 -78.2 33.7 198 198 198
41.0 -70.9 30.5 200 200 200
40.8 -69.3 29.8 198 198 198
47.0 -78.5 33.8 198 198 198
45.9 -74.1 31.9 195 195 195
44.9 -71.3 30.7 195 195 195
228.3 -357.3 153.8 200 200 200
192.7 -296.9 127.8 195 195 195
226.3 -343.3 147.8 200 200 200
221.1 -330.4 142.2 198 198 198
208.7 -307.3 132.3 196 196 196
150.7 -218.6 94.1 199 199 199
149.9 -214.4 92.3 199 199 199
153.5 -216.5 93.2 197 197 197
143.0 -198.8 85.6 200 200 200
27.5 -37.2 16.0 202 202 202
27.6 -36.9 15.9 202 202 202
27.5 -36.2 15.6 198 198 198
128.9 -94.1 40.5 108 108 108
122.2 -88.6 38.1 108 108 108
47.5 -29.9 12.9 197 200 199
37.2 -69.6 30.3 204 204 204
37.5 -68.9 30.0 200 200 200
38.0 -68.5 29.8 204 204 204
40.8 -69.7 30.3 204 204 204
40.6 -68.3 29.7 204 204 204
48.0 -79.2 34.5 204 204 204
48.1 -78.2 34.0 200 200 200
44.4 -69.9 30.4 204 204 204
44.6 -69.1 30.0 204 204 204
233.6 -350.8 152.6 204 204 204
224.4 -332.1 144.4 204 204 204
192.5 -280.7 122.0 205 205 205
181.3 -260.5 113.3 205 205 205
27.3 -36.1 15.7 204 204 204
123.7 -90.1 39.2 111 113 112
120.4 -87.0 37.8 111 113 112
116.1 -83.3 36.2 110 110 110
47.1 -29.3 12.7 160 160 160
41.9 -70.8 31.1 204 204 204
47.7 -79.3 34.8 204 204 204
48.2 -78.9 34.6 204 204 204
48.2 -77.6 34.1 204 204 204
49.0 -77.6 34.1 204 204 204
45.7 -71.2 31.3 204 204 204
45.1 -69.1 30.4 204 204 204
231.7 -344.5 151.3 204 204 204
219.4 -321.4 141.2 204 204 204
187.7 -270.8 119.0 202 202 202
172.1 -244.7 107.5 202 202 202
168.8 -236.6 103.9 205 205 205
27.2 -35.5 15.6 207 207 207
26.8 -34.6 15.2 204 204 204
115.7 -82.8 36.4 113 115 114
38.5 -70.6 31.3 204 204 204
39.1 -70.3 31.2 204 204 204
42.1 -70.5 31.3 204 204 204
48.7 -78.8 35.0 204 204 204
48.8 -77.6 34.5 204 204 204
46.0 -72.0 32.0 204 204 204
45.8 -70.7 31.4 204 204 204
45.7 -69.3 30.8 204 204 204
211.5 -306.7 136.1 204 204 204
174.5 -249.3 110.6 205 205 205
156.1 -219.7 97.5 205 205 205
152.1 -211.0 93.6 205 205 205
151.3 -206.9 91.8 206 206 206
141.1 -190.3 84.4 206 206 206
27.2 -35.2 15.6 207 207 207
26.8 -34.2 15.2 207 207 207
26.5 -33.4 14.8 208 208 208
114.2 -80.9 35.9 115 117 116
110.4 -77.6 34.5 114 116 115
42.2 -70.0 31.4 207 207 207
45.3 -70.3 31.5 207 207 207
45.5 -69.4 31.1 207 207 207
43.3 -64.0 28.7 207 207 207
229.7 -329.6 147.8 207 207 207
175.5 -248.1 111.3 207 207 207
151.4 -210.9 94.6 207 207 207
146.3 -200.9 90.1 205 205 205
149.1 -201.8 90.5 205 205 205
138.6 -185.0 83.0 205 205 205
27.6 -35.8 16.1 206 206 206
27.4 -35.1 15.8 206 206 206
26.9 -34.0 15.2 207 207 207
26.4 -32.9 14.8 207 207 207
45.0 -69.1 31.3 206 206 206
45.1 -68.1 30.9 206 206 206
44.9 -66.7 30.2 206 206 206
43.2 -63.3 28.7 206 206 206
154.5 -213.0 96.5 207 207 207
147.0 -199.7 90.5 207 207 207
151.3 -202.6 91.8 207 207 207
27.5 -35.3 16.0 205 205 205
27.5 -34.8 15.8 206 206 206
27.2 -34.1 15.4 206 206 206
26.4 -32.6 14.8 206 206 206
-12.6 -22.2 10.2 137 137 137
45.4 -69.0 31.6 205 205 205
45.2 -67.6 31.0 205 205 205
44.6 -65.6 30.0 205 205 205
44.4 -64.2 29.4 205 205 205
45.3 -64.5 29.6 205 205 205
27.5 -34.5 15.8 205 205 205
27.3 -33.8 15.5 205 205 205
-28.9 -22.2 10.3 42 43 42
-28.9 -22.3 10.3 42 43 42
-28.6 -22.3 10.3 42 43 42
-28.4 -22.3 10.3 42 43 42
-28.1 -22.3 10.3 46 46 44
-27.9 -22.3 10.3 46 46 44
-27.7 -22.4 10.3 46 46 44
-27.5 -22.4 10.4 46 46 44
-27.2 -22.3 10.3 46 45 43
-26.9 -22.3 10.3 46 45 43
-26.7 -22.4 10.3 46 45 43
-26.4 -22.3 10.3 42 43 42
-26.2 -22.3 10.3 46 45 43
-26.0 -22.4 10.4 42 43 42
-25.8 -22.4 10.4 42 43 42
-25.5 -22.3 10.3 42 43 42
-25.3 -22.4 10.4 42 43 42
-24.3 -22.4 10.3 37 38 37
-24.1 -22.3 10.3 36 36 36
-23.8 -22.3 10.3 36 36 36
-23.6 -22.3 10.3 37 38 37
-23.3 -22.3 10.3 40 40 40
-23.1 -22.4 10.3 37 38 37
-22.9 -22.4 10.4 37 38 37
-22.6 -22.4 10.3 42 43 42
-21.7 -22.3 10.3 54 54 54
-21.4 -22.3 10.3 77 77 77
-21.2 -22.3 10.3 94 94 94
-20.9 -22.3 10.3 92 92 92
-20.7 -22.4 10.4 95 98 97
-19.3 -22.4 10.4 106 106 106
-19.0 -22.4 10.4 107 109 109
-18.8 -22.3 10.3 107 109 109
-18.5 -22.3 10.3 106 108 108
-18.3 -22.3 10.3 106 108 108
-18.1 -22.3 10.3 108 110 110
-17.8 -22.3 10.3 112 112 112
-17.6 -22.3 10.3 112 112 112
-17.3 -22.3 10.3 116 116 116
-17.1 -22.4 10.4 116 116 116
-16.8 -22.3 10.3 115 115 115
-16.6 -22.4 10.3 115 115 115
-16.4 -22.3 10.3 118 120 119
-16.1 -22.4 10.3 118 120 119
-15.9 -22.3 10.3 118 120 119
-15.1 -22.3 10.3 123 123 123
-14.9 -22.2 10.3 122 122 122
-14.3 -22.4 10.4 124 124 124
-13.9 -22.2 10.3 124 124 124
-12.7 -22.3 10.3 130 130 130
-9.2 -22.4 10.3 137 139 138
8.6 -22.3 10.3 208 208 208
8.8 -22.3 10.3 208 208 208
9.1 -22.4 10.4 208 208 208
9.3 -22.3 10.3 208 208 208
9.6 -22.3 10.3 208 208 208
9.8 -22.3 10.3 208 208 208
10.1 -22.4 10.4 208 208 208
45.4 -68.2 31.6 205 205 205
45.6 -67.4 31.2 205 205 205
45.0 -65.5 30.3 208 208 208
45.0 -64.5 29.8 205 205 205
45.8 -64.6 29.9 205 205 205
27.3 -33.5 15.5 205 205 205
26.8 -32.4 15.0 205 205 205
22.7 -22.2 10.3 164 167 166
-30.2 -22.9 10.7 46 46 44
-30.0 -23.0 10.8 46 46 44
-29.6 -22.9 10.7 46 46 44
-29.4 -22.9 10.7 48 48 48
-28.3 -23.0 10.8 46 46 44
-26.8 -23.0 10.8 43 43 43
-25.1 -23.0 10.8 38 38 38
-24.8 -23.0 10.8 38 38 38
-24.4 -22.8 10.7 41 41 41
-24.0 -23.0 10.8 38 38 38
-23.8 -23.0 10.8 38 38 38
-22.3 -23.0 10.8 47 48 47
-21.9 -22.9 10.7 52 52 52
-21.7 -22.9 10.7 61 63 61
-19.9 -22.9 10.7 102 102 102
-19.6 -22.8 10.7 103 103 103
-19.6 -23.0 10.8 106 106 106
-18.9 -22.9 10.7 105 105 105
-18.7 -22.9 10.7 107 107 107
-18.4 -22.9 10.7 107 107 107
-17.7 -22.9 10.7 107 109 109
-17.5 -23.0 10.8 109 111 111
-9.6 -22.6 10.6 135 135 135
-9.4 -22.8 10.7 136 136 136
8.5 -23.0 10.8 208 208 208
8.7 -22.9 10.7 208 208 208
9.5 -23.0 10.8 208 208 208
9.7 -22.9 10.7 208 208 208
9.9 -22.9 10.7 208 208 208
10.2 -22.9 10.7 208 208 208
10.5 -23.0 10.8 208 208 208
45.4 -67.5 31.6 207 207 207
45.6 -66.7 31.2 207 207 207
45.2 -65.1 30.5 207 207 207
46.4 -64.8 30.3 204 204 204
27.5 -33.3 15.6 207 207 207
27.2 -32.5 15.2 204 204 204
-31.1 -23.3 11.0 47 46 45
-28.3 -25.0 11.8 44 44 44
-28.0 -24.9 11.8 42 42 42
-24.2 -24.7 11.7 42 42 42
-23.9 -24.7 11.7 40 40 40
-22.8 -25.0 11.8 86 86 86
-21.2 -24.7 11.7 97 100 99
-20.9 -24.7 11.7 99 101 101
-20.7 -24.7 11.7 99 101 101
-20.4 -24.7 11.7 103 103 103
-18.3 -24.4 11.5 108 110 110
-17.9 -24.3 11.5 111 113 112
-17.0 -23.3 11.0 110 112 111
-14.7 -23.4 11.1 119 119 119
-10.8 -23.2 11.0 126 129 128
-10.4 -23.6 11.1 131 133 132
-9.7 -23.2 11.0 134 134 134
45.7 -66.1 31.3 207 207 207
42.9 -58.4 27.6 204 204 204
42.5 -57.0 26.9 207 207 207
27.5 -33.0 15.6 206 206 206
27.4 -32.4 15.3 204 204 204
28.1 -32.9 15.5 207 207 207
-33.3 -24.7 11.8 48 47 46
-33.1 -24.7 11.8 49 49 49
-32.8 -24.8 11.8 49 49 49
-32.5 -24.7 11.8 49 49 49
-32.2 -24.8 11.8 49 49 49
-32.0 -24.8 11.9 52 52 52
-31.7 -24.7 11.8 49 49 49
-31.4 -24.7 11.8 48 47 46
-31.1 -24.7 11.8 52 52 52
-30.9 -24.7 11.8 52 52 52
-30.6 -24.7 11.8 49 49 49
-30.3 -24.7 11.8 48 47 46
-30.0 -24.7 11.8 45 45 45
-29.8 -24.8 11.8 45 45 45
-29.5 -24.8 11.8 45 45 45
-29.2 -24.7 11.8 48 47 46
-28.4 -24.8 11.8 42 43 42
-28.1 -24.7 11.8 42 43 42
-27.8 -24.7 11.8 42 43 42
-27.5 -24.7 11.8 42 43 42
-27.3 -24.7 11.8 42 43 42
-27.0 -24.7 11.8 45 45 45
-26.8 -24.8 11.9 42 43 42
-26.2 -24.8 11.8 42 43 42
-25.9 -24.8 11.8 42 43 42
-25.6 -24.8 11.8 40 40 40
-25.4 -24.8 11.8 40 40 40
-25.1 -24.8 11.8 40 40 40
-24.8 -24.8 11.8 40 40 40
-24.5 -24.7 11.8 41 41 41
-24.2 -24.7 11.8 43 43 43
-24.0 -24.8 11.8 43 43 43
-22.9 -24.8 11.9 49 49 49
-22.6 -24.7 11.8 48 47 46
-22.3 -24.7 11.8 79 78 77
-22.1 -24.8 11.8 95 95 95
-21.8 -24.8 11.8 93 93 93
-21.5 -24.8 11.8 95 95 95
-21.2 -24.8 11.8 93 93 93
-21.0 -24.8 11.8 99 101 101
-20.7 -24.7 11.8 99 101 101
-20.4 -24.7 11.8 101 103 103
-20.1 -24.8 11.9 99 101 101
-19.8 -24.7 11.8 98 100 100
-19.5 -24.7 11.8 104 104 104
-19.3 -24.7 11.8 104 104 104
-18.9 -24.7 11.8 106 106 106
-16.2 -24.6 11.8 112 114 113
-6.9 -24.8 11.8 169 171 170
-6.6 -24.7 11.8 173 173 173
-6.4 -24.7 11.8 177 177 177
-6.1 -24.7 11.8 177 177 177
-5.8 -24.7 11.8 177 180 179
-5.3 -24.7 11.8 183 183 183
-5.0 -24.7 11.8 188 188 188
-4.7 -24.7 11.8 186 186 186
-4.4 -24.7 11.8 189 189 189
-4.2 -24.7 11.8 188 188 188
-3.9 -24.7 11.8 188 188 188
-3.6 -24.7 11.8 188 188 188
-3.3 -24.7 11.8 186 186 186
-3.1 -24.7 11.8 186 186 186
-2.8 -24.7 11.8 186 186 186
-2.5 -24.7 11.8 186 186 186
-2.2 -24.7 11.8 186 186 186
-2.0 -24.7 11.8 183 183 183
9.9 -24.8 11.8 207 207 207
10.2 -24.8 11.8 207 207 207
10.4 -24.7 11.8 207 207 207
10.7 -24.7 11.8 207 207 207
11.0 -24.7 11.8 206 206 206
11.2 -24.7 11.8 206 206 206
11.5 -24.7 11.8 206 206 206
13.8 -24.9 11.9 206 206 206
14.4 -24.9 11.9 206 206 206
14.5 -24.7 11.8 206 206 206
45.8 -65.5 31.3 206 206 206
43.7 -58.8 28.1 206 206 206
42.3 -56.1 26.8 209 209 209
42.2 -55.2 26.4 207 207 207
28.1 -32.5 15.5 206 206 206
-38.3 -28.2 13.6 49 48 47
-37.1 -28.2 13.6 53 52 52
-28.6 -28.3 13.7 41 41 41
-28.2 -28.1 13.6 42 42 42
-27.4 -28.3 13.7 42 42 42
-25.2 -28.4 13.7 67 69 67
-24.7 -28.2 13.6 83 85 85
-23.7 -28.4 13.7 97 97 97
-6.7 -24.6 11.9 188 188 188
-6.4 -24.7 11.9 186 186 186
-6.1 -24.7 11.9 193 193 193
-5.6 -24.7 11.9 191 191 191
-5.3 -24.7 11.9 191 191 191
-5.0 -24.7 11.9 192 192 192
-4.8 -24.7 11.9 192 192 192
-4.5 -24.7 11.9 193 193 193
-4.2 -24.7 11.9 192 192 192
-3.9 -24.7 11.9 191 191 191
-3.6 -24.7 11.9 189 189 189
-3.4 -24.7 11.9 189 189 189
-3.1 -24.7 11.9 189 189 189
-2.8 -24.7 11.9 189 189 189
9.9 -24.7 11.9 206 206 206
10.2 -24.7 11.9 206 206 206
10.5 -24.6 11.9 206 206 206
10.8 -24.6 11.9 206 206 206
11.1 -24.7 11.9 206 206 206
11.6 -24.7 11.9 206 206 206
11.9 -24.7 11.9 206 206 206
13.8 -24.7 11.9 206 206 206
14.1 -24.7 11.9 206 206 206
14.4 -24.7 11.9 206 206 206
14.6 -24.5 11.9 206 206 206
45.8 -64.7 31.3 206 206 206
43.0 -56.4 27.3 206 206 206
43.2 -55.8 27.0 206 206 206
28.1 -32.1 15.5 205 205 205
28.1 -31.7 15.4 206 206 206
-24.6 -22.8 11.1 44 44 44
-24.4 -22.8 11.1 42 42 42
-24.2 -22.8 11.2 47 47 47
-23.9 -22.8 11.1 47 47 47
-23.4 -22.8 11.2 45 45 45
-23.1 -22.8 11.2 42 43 42
-22.8 -22.8 11.2 42 43 42
-20.5 -22.8 11.2 47 48 47
-20.3 -22.8 11.2 52 52 52
-20.0 -22.8 11.2 47 48 47
-19.8 -22.8 11.2 77 77 77
-13.6 -20.6 10.1 112 112 112
-6.7 -24.4 11.9 205 205 205
-6.4 -24.4 11.9 205 205 205
-2.5 -24.4 11.9 193 193 193
-2.3 -24.4 11.9 193 193 193
-2.0 -24.4 11.9 193 193 193
12.3 -30.0 14.7 206 206 206
12.6 -30.1 14.7 206 206 206
13.9 -30.0 14.7 205 205 205
15.4 -30.2 14.8 205 205 205
44.1 -56.4 27.6 205 205 205
55.1 -65.7 32.1 204 204 204
27.5 -31.5 15.4 204 204 204
28.0 -31.6 15.5 205 205 205
28.1 -31.4 15.3 205 205 205
-38.1 -31.5 15.6 51 50 48
-37.7 -31.5 15.6 47 47 47
-24.6 -22.5 11.1 47 48 47
-24.1 -22.5 11.2 47 48 47
-23.6 -22.5 11.2 46 46 46
-23.4 -22.5 11.2 46 46 46
-27.3 -31.6 15.6 53 52 52
10.6 -31.8 15.7 205 205 205
10.9 -31.8 15.7 205 205 205
11.2 -31.6 15.6 205 205 205
11.6 -31.7 15.7 205 205 205
11.9 -31.6 15.6 205 205 205
12.2 -31.4 15.5 205 205 205
12.7 -31.6 15.6 205 205 205
13.0 -31.6 15.6 205 205 205
13.4 -31.6 15.6 205 205 205
13.8 -31.6 15.6 205 205 205
14.1 -31.6 15.6 205 205 205
14.5 -31.6 15.6 205 205 205
14.9 -31.6 15.7 205 205 205
15.7 -31.9 15.8 205 205 205
15.9 -31.5 15.6 205 205 205
16.3 -31.6 15.6 205 205 205
16.6 -31.5 15.6 205 205 205
16.9 -31.4 15.5 205 205 205
18.5 -31.6 15.6 208 208 208
45.5 -57.4 28.4 205 205 205
51.8 -64.5 31.9 205 205 205
56.4 -66.4 32.8 206 206 206
58.2 -67.5 33.4 206 206 206
28.2 -31.5 15.6 204 204 204
27.3 -29.7 14.7 204 204 204
-41.8 -33.5 16.8 53 52 52
-41.5 -33.6 16.8 51 51 49
-40.8 -33.4 16.7 51 51 49
-40.2 -33.1 16.6 47 48 47
-39.9 -33.3 16.7 47 48 47
-37.1 -33.5 16.8 48 48 48
-36.4 -33.3 16.7 48 48 48
-36.0 -33.2 16.6 47 47 47
-35.6 -33.2 16.6 48 48 48
-35.3 -33.3 16.7 42 43 42
-34.9 -33.2 16.6 42 43 42
-34.6 -33.4 16.7 44 44 44
-30.6 -33.2 16.6 41 41 41
-30.5 -33.6 16.8 42 42 42
-30.2 -33.6 16.8 42 42 42
-29.5 -33.3 16.7 42 42 42
-29.1 -33.3 16.7 44 44 44
3.1 -24.5 12.3 184 184 184
8.8 -24.6 12.3 205 205 205
10.0 -24.6 12.3 208 208 208
10.3 -24.7 12.3 208 208 208
10.5 -24.6 12.3 204 204 204
10.8 -24.5 12.3 204 204 204
11.1 -24.5 12.3 204 204 204
11.4 -24.6 12.3 204 204 204
11.7 -24.6 12.3 204 204 204
12.0 -24.6 12.3 204 204 204
14.0 -24.6 12.3 204 204 204
14.7 -24.8 12.4 204 204 204
14.8 -24.5 12.2 204 204 204
51.7 -63.6 31.8 204 204 204
55.6 -67.5 33.8 205 205 205
59.4 -69.1 34.6 205 205 205
58.8 -67.5 33.8 205 205 205
28.1 -31.0 15.5 200 200 200
28.2 -30.7 15.4 204 204 204
27.9 -30.1 15.0 204 204 204
24.7 -24.4 12.2 203 203 203
-34.6 -24.3 12.3 55 55 55
-42.3 -33.8 17.1 53 53 53
-41.3 -33.3 16.9 53 53 53
-25.2 -24.3 12.3 47 48 47
-10.6 -24.3 12.3 32 32 32
-10.4 -24.5 12.4 35 35 35
-4.9 -24.3 12.3 210 210 210
-4.6 -24.3 12.3 210 210 210
-4.3 -24.3 12.3 207 207 207
-4.0 -24.3 12.3 204 204 204
-3.8 -24.3 12.3 204 204 204
-3.5 -24.3 12.3 205 205 205
-3.2 -24.3 12.3 203 203 203
-2.9 -24.3 12.3 203 203 203
-2.6 -24.3 12.3 199 199 199
-2.3 -24.3 12.3 200 200 200
2.8 -24.3 12.3 189 189 189
3.1 -24.3 12.3 186 186 186
3.4 -24.2 12.2 186 186 186
8.4 -24.6 12.4 207 207 207
8.8 -24.3 12.3 207 207 207
9.1 -24.3 12.3 207 207 207
9.7 -24.3 12.3 207 207 207
10.0 -24.3 12.3 207 207 207
10.3 -24.4 12.3 204 204 204
10.6 -24.4 12.3 204 204 204
10.8 -24.3 12.3 204 204 204
11.1 -24.3 12.3 204 204 204
11.4 -24.4 12.3 204 204 204
11.7 -24.3 12.3 204 204 204
12.0 -24.3 12.3 204 204 204
12.3 -24.3 12.3 204 204 204
12.6 -24.3 12.3 204 204 204
12.9 -24.3 12.3 204 204 204
13.1 -24.3 12.3 204 204 204
13.4 -24.4 12.3 204 204 204
14.0 -24.4 12.4 207 207 207
14.3 -24.4 12.3 207 207 207
14.6 -24.4 12.4 207 207 207
14.8 -24.2 12.3 207 207 207
15.9 -24.6 12.4 206 206 206
16.0 -24.3 12.3 206 206 206
16.3 -24.3 12.3 206 206 206
47.7 -57.2 29.0 204 204 204
60.9 -70.1 35.5 205 205 205
59.2 -67.2 34.0 205 205 205
28.1 -30.6 15.5 205 205 205
28.3 -30.4 15.4 205 205 205
28.3 -30.1 15.3 203 203 203
28.5 -29.9 15.1 203 203 203
24.8 -24.2 12.3 202 202 202
24.8 -24.0 12.2 202 202 202
-34.5 -23.9 12.3 58 58 58
-34.3 -23.9 12.3 55 55 55
-34.0 -24.0 12.3 58 59 59
-33.7 -24.0 12.3 58 59 59
-33.4 -24.0 12.3 58 59 59
-33.1 -24.0 12.3 58 59 59
-32.9 -24.0 12.3 58 59 59
-32.6 -24.0 12.3 58 59 59
-32.2 -23.9 12.3 60 62 60
-32.0 -24.0 12.3 58 59 59
-31.7 -23.9 12.3 58 59 59
-31.4 -23.9 12.3 58 59 59
-30.7 -23.8 12.2 58 59 59
-30.4 -23.8 12.2 57 57 57
-30.3 -24.0 12.3 54 54 54
-30.2 -24.1 12.3 54 54 54
-29.8 -24.0 12.3 53 52 51
-29.4 -23.9 12.3 49 49 49
-29.0 -23.8 12.2 49 49 49
-28.6 -24.0 12.3 49 49 49
-28.1 -24.0 12.3 53 52 51
-27.7 -24.0 12.3 50 50 50
-27.4 -23.9 12.3 50 50 50
-27.1 -23.9 12.3 54 53 52
-26.8 -23.9 12.2 50 50 50
-26.5 -23.9 12.2 50 50 50
-26.2 -23.9 12.2 48 48 48
-25.9 -23.9 12.2 46 46 46
-25.7 -24.0 12.3 46 46 46
-25.4 -23.9 12.3 48 48 48
-25.1 -23.9 12.3 51 51 51
-24.8 -23.9 12.3 49 49 49
-24.1 -24.0 12.3 47 47 47
-23.7 -23.9 12.3 45 45 45
-23.4 -24.0 12.3 47 48 47
-22.9 -24.0 12.3 43 43 43
-22.5 -23.9 12.3 42 42 40
-22.3 -23.9 12.3 42 42 40
-22.0 -24.0 12.3 40 40 40
-21.7 -24.0 12.3 40 40 40
-21.4 -24.0 12.3 40 40 40
-21.2 -24.0 12.3 40 40 40
-20.8 -23.9 12.3 41 41 41
-20.5 -23.9 12.2 41 41 41
-11.5 -24.0 12.3 30 31 30
-11.1 -23.8 12.2 33 32 30
-10.9 -23.9 12.3 32 31 30
-10.6 -24.0 12.3 32 32 32
-10.4 -24.2 12.4 36 37 36
-10.2 -24.3 12.4 39 39 39
3.1 -23.9 12.3 189 189 189
3.4 -23.8 12.2 189 189 189
8.5 -24.0 12.3 207 207 207
8.8 -24.0 12.3 207 207 207
9.7 -24.0 12.3 207 207 207
9.9 -23.9 12.3 207 207 207
10.3 -24.0 12.3 203 203 203
10.5 -24.0 12.3 206 206 206
10.8 -23.9 12.3 206 206 206
11.1 -23.9 12.2 206 206 206
11.4 -24.0 12.3 203 203 203
11.7 -24.0 12.3 203 203 203
11.9 -24.0 12.3 203 203 203
12.3 -24.0 12.3 203 203 203
12.5 -23.9 12.2 203 203 203
14.0 -24.1 12.3 206 206 206
14.3 -24.0 12.3 206 206 206
14.6 -24.2 12.4 206 206 206
14.7 -23.8 12.2 206 206 206
14.8 -23.5 12.1 206 206 206
15.7 -24.1 12.3 206 206 206
16.0 -24.1 12.3 206 206 206
51.3 -61.6 31.6 203 203 203
48.2 -57.1 29.3 203 203 203
57.5 -64.4 33.0 204 204 204
90.4 -98.7 50.6 205 205 205
90.3 -97.4 49.9 205 205 205
28.2 -30.0 15.4 205 205 205
24.9 -23.8 12.2 202 202 202
25.1 -23.7 12.1 166 166 166
-27.8 -24.0 12.4 51 51 51
-22.0 -24.0 12.5 41 41 41
-11.0 -24.0 12.4 29 31 29
-10.7 -24.0 12.4 32 31 30
-10.5 -24.2 12.5 36 36 36
-10.7 -25.3 13.1 44 44 44
-10.4 -25.3 13.1 168 170 169
10.0 -23.8 12.3 206 206 206
10.3 -23.9 12.4 206 206 206
14.1 -23.9 12.4 206 206 206
14.3 -23.8 12.4 206 206 206
14.7 -23.9 12.4 206 206 206
14.8 -23.6 12.3 205 205 205
51.3 -61.8 32.1 206 206 206
51.7 -61.4 31.8 206 206 206
53.4 -62.4 32.4 206 206 206
54.3 -62.7 32.5 203 203 203
57.3 -63.4 32.9 204 204 204
89.9 -98.3 51.0 204 204 204
90.6 -97.8 50.7 204 204 204
91.5 -97.5 50.6 204 204 204
24.9 -23.5 12.2 206 206 206
25.1 -23.4 12.1 162 165 164
-11.0 -25.0 13.1 32 31 30
-10.7 -25.0 13.1 40 40 40
-10.4 -25.0 13.1 177 180 179
-10.1 -25.1 13.2 184 184 184
51.7 -61.5 32.3 205 205 205
51.8 -60.8 31.9 205 205 205
54.3 -61.9 32.5 205 205 205
54.2 -61.0 32.0 203 203 203
57.6 -63.0 33.1 203 203 203
28.4 -28.4 14.9 204 204 204
25.1 -23.2 12.2 169 169 169
24.9 -22.7 11.9 182 182 182
-11.3 -24.7 13.1 64 64 64
-11.1 -24.8 13.2 33 32 30
-10.7 -24.8 13.2 47 47 47
-10.4 -24.8 13.2 186 188 187
-10.2 -24.9 13.2 183 186 185
52.1 -61.3 32.6 204 204 204
51.9 -60.1 32.0 205 205 205
53.7 -60.5 32.2 205 205 205
53.9 -59.9 31.8 205 205 205
56.8 -62.2 33.1 205 205 205
60.9 -63.3 33.7 203 203 203
60.1 -61.7 32.8 203 203 203
28.7 -28.4 15.1 204 204 204
31.1 -29.0 15.4 202 202 202
-11.4 -24.4 13.2 85 87 87
-11.1 -24.6 13.2 27 27 27
-10.7 -24.4 13.2 50 50 50
-10.4 -24.5 13.2 183 183 183
-10.2 -24.7 13.3 183 186 185
52.5 -60.9 32.8 204 204 204
52.2 -59.7 32.1 204 204 204
51.7 -58.3 31.4 204 204 204
53.1 -58.3 31.4 204 204 204
57.3 -62.0 33.4 205 205 205
58.4 -62.3 33.5 205 205 205
88.2 -91.8 49.4 205 205 205
61.1 -62.8 33.8 202 202 202
60.3 -61.1 32.9 202 202 202
28.9 -28.5 15.4 203 203 203
28.8 -28.2 15.2 203 203 203
30.1 -28.1 15.1 204 204 204
31.0 -28.5 15.4 204 204 204
-11.4 -24.3 13.2 84 83 81
-11.2 -24.4 13.3 35 35 35
-10.8 -24.2 13.2 50 49 48
-10.5 -24.3 13.2 183 186 185
-10.4 -24.7 13.5 182 185 184
-10.1 -24.9 13.6 181 184 183
52.0 -59.6 32.5 203 203 203
52.1 -58.8 32.1 203 203 203
51.8 -57.7 31.4 203 203 203
52.7 -57.1 31.1 204 204 204
56.5 -60.4 32.9 204 204 204
57.8 -60.9 33.2 204 204 204
61.1 -62.0 33.8 205 205 205
60.2 -60.3 32.8 205 205 205
29.1 -28.4 15.5 205 205 205
29.1 -28.0 15.3 205 205 205
30.3 -27.9 15.2 203 203 203
31.0 -28.2 15.4 203 203 203
31.3 -28.1 15.3 200 200 200
-10.8 -24.1 13.3 53 55 53
-10.6 -24.1 13.3 186 188 187
-10.5 -24.6 13.6 181 184 183
-10.2 -24.7 13.6 185 185 185
-9.8 -24.6 13.6 178 181 180
51.7 -58.5 32.3 205 205 205
52.1 -58.1 32.1 205 205 205
56.2 -59.3 32.7 203 203 203
56.9 -59.2 32.7 204 204 204
59.9 -59.2 32.7 204 204 204
29.3 -27.9 15.4 205 205 205
30.6 -27.8 15.4 205 205 205
31.1 -27.9 15.4 202 202 202
-17.4 -18.9 10.6 46 48 47
-10.5 -23.8 13.3 182 185 184
-10.5 -24.3 13.6 181 184 183
-10.2 -24.5 13.7 181 184 183
-9.8 -24.3 13.6 180 183 182
9.1 -19.6 10.9 205 205 205
13.8 -19.4 10.8 204 204 204
51.9 -57.9 32.4 205 205 205
52.1 -57.3 32.1 205 205 205
51.8 -56.3 31.5 205 205 205
56.8 -58.3 32.6 203 203 203
31.0 -27.5 15.4 202 202 202
-10.6 -24.2 13.7 180 183 182
-10.3 -24.3 13.8 178 181 180
-10.0 -24.3 13.8 182 182 182
8.4 -19.3 11.0 205 205 205
8.6 -19.3 10.9 205 205 205
8.9 -19.3 10.9 205 205 205
9.1 -19.3 10.9 205 205 205
13.8 -19.1 10.8 204 204 204
13.3 -18.1 10.3 204 204 204
53.0 -57.6 32.6 204 204 204
57.4 -59.0 33.4 205 205 205
48.0 -47.4 26.9 203 203 203
47.6 -46.4 26.3 199 199 199
48.0 -46.2 26.2 199 199 199
1181.2 -547.4 310.1 112 114 113
-10.7 -24.1 13.8 179 182 181
-10.3 -24.1 13.8 178 181 180
-5.5 -17.8 10.2 222 224 224
-3.8 -17.7 10.2 219 222 221
-3.6 -17.7 10.2 219 222 221
-2.4 -17.7 10.2 216 216 216
-2.2 -17.7 10.2 216 216 216
-1.9 -17.7 10.2 216 216 216
-1.7 -17.7 10.2 214 214 214
-1.4 -17.7 10.2 211 211 211
-1.2 -17.7 10.2 211 211 211
-1.0 -17.7 10.2 212 213 212
-0.7 -17.7 10.2 210 210 210
-0.5 -17.7 10.2 210 210 210
-0.3 -17.7 10.2 205 208 207
-0.0 -17.7 10.2 205 208 207
0.2 -17.7 10.2 203 205 205
0.7 -17.7 10.2 202 202 202
0.9 -17.7 10.2 199 199 199
1.2 -17.7 10.2 196 196 196
8.0 -17.7 10.2 204 204 204
8.2 -17.7 10.2 204 204 204
8.5 -17.7 10.2 204 204 204
8.7 -17.6 10.1 204 204 204
9.3 -17.9 10.3 204 204 204
9.4 -17.8 10.2 204 204 204
9.7 -17.8 10.2 204 204 204
9.9 -17.7 10.2 204 204 204
10.2 -17.8 10.2 204 204 204
10.4 -17.8 10.2 207 207 207
10.6 -17.7 10.2 207 207 207
10.8 -17.6 10.1 204 204 204
11.1 -17.7 10.2 204 204 204
11.3 -17.7 10.2 204 204 204
11.6 -17.7 10.2 204 204 204
13.3 -17.8 10.2 204 204 204
13.5 -17.7 10.2 204 204 204
13.6 -17.7 10.1 204 204 204
13.8 -17.6 10.1 204 204 204
14.2 -17.7 10.2 203 203 203
14.4 -17.7 10.2 203 203 203
53.3 -57.2 32.8 204 204 204
57.3 -58.1 33.4 204 204 204
58.0 -58.0 33.3 204 204 204
47.6 -45.8 26.3 205 205 205
37.3 -33.7 19.4 203 203 203
38.0 -33.9 19.5 203 203 203
39.9 -35.2 20.2 203 203 203
40.0 -34.9 20.0 203 203 203
39.9 -34.4 19.7 204 204 204
45.2 -21.3 12.2 146 146 146
847.7 -387.7 222.5 112 114 113
771.2 -350.6 201.2 112 114 113
-5.7 -17.4 10.1 216 216 216
-0.3 -17.5 10.2 205 208 207
0.9 -17.4 10.1 198 198 198
8.0 -17.5 10.2 204 204 204
8.5 -17.5 10.2 204 204 204
9.6 -17.8 10.4 204 204 204
9.8 -17.8 10.4 204 204 204
10.4 -17.5 10.2 204 204 204
10.6 -17.4 10.1 204 204 204
10.8 -17.4 10.1 203 203 203
11.1 -17.5 10.2 203 203 203
11.3 -17.4 10.1 203 203 203
11.5 -17.4 10.1 203 203 203
13.2 -18.2 10.6 208 211 210
13.3 -17.6 10.3 203 203 203
13.4 -17.5 10.2 203 203 203
13.6 -17.4 10.1 203 203 203
52.1 -55.1 32.1 206 206 206
57.2 -57.2 33.3 207 207 207
57.3 -56.5 32.9 204 204 204
49.3 -47.5 27.6 204 204 204
47.8 -45.4 26.4 204 204 204
48.3 -45.3 26.3 205 205 205
38.4 -34.3 19.9 205 205 205
38.5 -34.0 19.8 205 205 205
39.5 -34.4 20.0 205 205 205
40.3 -34.7 20.2 205 205 205
41.7 -35.5 20.7 203 203 203
42.3 -35.6 20.7 203 203 203
41.8 -34.8 20.3 186 186 186
46.2 -21.6 12.6 155 155 155
45.5 -21.2 12.3 146 146 146
-11.9 -25.3 14.9 182 185 184
-11.2 -25.4 15.0 179 182 181
-5.7 -17.2 10.2 204 204 204
3.6 -17.7 10.5 182 182 182
3.8 -17.6 10.4 182 182 182
9.4 -17.6 10.4 207 207 207
9.6 -17.6 10.4 206 206 206
9.9 -17.6 10.4 204 204 204
10.1 -17.6 10.4 204 204 204
10.4 -17.6 10.4 203 203 203
10.6 -17.6 10.4 203 203 203
12.8 -17.7 10.5 203 203 203
13.1 -17.7 10.4 206 206 206
13.3 -17.6 10.4 203 203 203
13.5 -17.6 10.4 203 203 203
13.7 -17.6 10.4 203 203 203
14.5 -17.7 10.4 206 206 206
56.7 -55.2 32.6 207 207 207
48.1 -45.0 26.6 207 207 207
48.5 -44.9 26.5 204 204 204
38.6 -34.0 20.1 205 205 205
38.8 -33.7 19.9 205 205 205
39.7 -34.1 20.1 205 205 205
40.3 -34.3 20.2 205 205 205
41.9 -35.2 20.7 206 206 206
42.4 -35.2 20.7 206 206 206
41.8 -34.3 20.3 191 191 191
42.7 -34.6 20.4 178 178 178
43.0 -34.5 20.4 182 182 182
99.6 -60.6 35.8 189 189 189
46.8 -21.6 12.7 154 154 154
46.0 -21.1 12.5 148 148 148
-11.9 -25.0 15.0 183 186 185
-11.5 -25.0 15.0 181 184 183
-11.2 -25.0 15.0 180 183 182
-10.5 -25.0 15.0 172 172 172
-5.7 -16.9 10.1 192 192 192
58.1 -56.6 33.8 206 206 206
57.2 -54.9 32.8 206 206 206
48.4 -44.7 26.7 207 207 207
48.9 -44.6 26.7 207 207 207
49.5 -44.6 26.6 207 207 207
39.1 -33.5 20.1 208 208 208
40.2 -34.1 20.4 205 205 205
40.4 -33.9 20.3 205 205 205
42.0 -34.8 20.8 205 205 205
42.5 -34.8 20.8 206 206 206
42.1 -34.1 20.4 197 197 197
43.1 -34.5 20.6 179 179 179
43.2 -34.2 20.5 182 182 182
99.6 -59.8 35.8 190 190 190
47.2 -21.5 12.9 158 158 158
46.5 -21.0 12.6 149 149 149
-12.0 -24.9 15.1 184 187 186
-11.3 -24.9 15.1 183 186 185
-11.0 -25.1 15.2 176 176 176
-10.5 -24.8 15.0 157 160 159
-5.7 -16.8 10.2 177 177 177
13.3 -16.9 10.3 205 205 205
57.2 -54.2 32.8 206 206 206
48.9 -44.6 27.0 207 207 207
49.4 -44.4 26.9 207 207 207
49.6 -44.1 26.7 207 207 207
40.7 -34.0 20.6 208 208 208
40.6 -33.5 20.3 208 208 208
42.6 -34.8 21.1 208 208 208
42.8 -34.6 21.0 203 203 203
44.1 -34.8 21.1 177 177 177
44.5 -34.8 21.1 184 184 184
96.5 -57.1 34.6 190 190 190
47.5 -21.3 12.9 159 159 159
-11.5 -25.0 15.4 181 181 181
-11.1 -24.9 15.3 177 177 177
-5.7 -16.6 10.2 159 162 161
87.3 -83.8 51.5 207 210 209
57.5 -53.7 33.0 208 211 210
50.3 -44.6 27.4 207 207 207
49.8 -43.6 26.8 207 207 207
40.7 -33.2 20.4 208 208 208
42.6 -34.3 21.1 208 208 208
43.0 -34.2 21.0 206 206 206
44.8 -34.5 21.2 185 185 185
105.0 -61.8 38.0 193 193 193
99.3 -57.9 35.6 194 194 194
-10.5 -18.5 11.5 126 129 128
-11.7 -26.7 16.7 160 163 162
-11.3 -26.7 16.7 156 159 158
86.1 -81.5 50.9 207 210 209
80.2 -74.8 46.7 207 210 209
49.7 -42.9 26.8 206 206 206
48.2 -41.1 25.6 207 207 207
40.9 -32.8 20.5 208 208 208
42.1 -33.4 20.8 208 208 208
42.4 -33.2 20.7 206 206 206
41.6 -32.3 20.1 208 208 208
96.9 -55.7 34.8 194 194 194
81.1 -38.1 23.8 180 180 180
80.3 -37.4 23.4 180 180 180
-12.3 -26.9 17.0 180 180 180
-11.9 -26.9 17.0 164 164 164
-11.5 -26.9 17.0 159 162 161
77.9 -71.6 45.4 207 210 209
75.2 -68.2 43.2 205 205 205
40.8 -31.2 19.8 206 206 206
41.1 -30.4 19.3 188 188 188
43.5 -31.2 19.7 189 189 189
43.9 -31.1 19.7 189 189 189
96.9 -54.9 34.8 195 195 195
89.9 -50.5 32.0 196 196 196
78.1 -35.9 22.7 181 181 181
77.4 -35.3 22.4 181 181 181
77.4 -35.1 22.2 181 181 181
60.8 -26.3 16.7 169 171 170
-12.4 -26.7 17.1 180 180 180
-12.0 -26.7 17.2 170 171 170
-11.6 -26.7 17.2 164 164 164
78.8 -71.4 45.9 207 210 209
76.0 -68.0 43.7 207 210 209
75.3 -66.4 42.7 207 210 209
75.4 -65.7 42.2 207 210 209
39.9 -29.7 19.1 183 183 183
40.4 -29.8 19.1 185 185 185
40.1 -29.2 18.8 189 189 189
40.8 -29.4 18.9 189 189 189
42.2 -30.1 19.3 189 189 189
42.5 -30.0 19.3 189 189 189
42.5 -29.7 19.1 189 189 189
43.6 -30.1 19.3 189 189 189
89.8 -49.7 32.0 196 196 196
78.1 -35.3 22.7 182 182 182
77.3 -34.8 22.3 182 182 182
77.3 -34.5 22.2 182 182 182
74.7 -33.1 21.3 182 182 182
61.6 -26.3 16.9 170 172 172
62.1 -26.4 16.9 158 161 160
62.5 -26.4 16.9 155 155 155
-13.0 -27.5 17.9 182 182 182
-12.2 -26.6 17.4 174 174 174
-11.8 -26.6 17.4 170 171 170
87.5 -79.2 51.7 206 209 208
80.8 -72.1 47.1 204 204 204
78.4 -69.0 45.0 206 209 208
77.0 -67.0 43.7 207 210 209
76.5 -65.6 42.8 207 210 209
230.0 -172.6 112.6 205 205 205
40.1 -28.8 18.8 186 186 186
40.7 -28.9 18.9 191 191 191
42.8 -29.8 19.4 189 189 189
43.2 -29.7 19.4 189 189 189
79.2 -35.3 23.0 186 186 186
78.4 -34.7 22.7 183 183 183
77.9 -34.3 22.4 183 183 183
74.5 -32.6 21.3 183 183 183
62.3 -26.2 17.1 167 167 167
62.5 -26.1 17.0 159 162 161
63.0 -26.1 17.1 156 156 156
-13.7 -15.3 10.1 30 30 30
-13.3 -27.8 18.4 177 180 179
86.1 -76.8 50.9 206 209 208
81.4 -71.6 47.4 208 211 210
80.5 -69.8 46.3 206 209 208
78.5 -67.2 44.5 206 209 208
78.4 -66.3 43.9 207 210 209
190.6 -139.3 92.3 208 208 208
43.6 -30.2 20.0 192 192 192
43.6 -29.8 19.8 190 190 190
43.9 -29.7 19.7 190 190 190
79.5 -34.9 23.1 188 188 188
78.7 -34.3 22.7 188 188 188
62.3 -26.0 17.2 172 174 174
62.5 -25.9 17.1 166 166 166
62.6 -25.7 17.1 160 160 160
63.0 -25.7 17.1 155 155 155
-13.7 -15.0 10.1 30 30 30
-10.9 -18.3 12.3 38 38 38
-13.6 -29.8 20.1 174 174 174
-5.7 -15.0 10.1 96 96 96
-4.0 -15.0 10.1 148 150 150
-3.8 -14.9 10.1 162 165 164
-3.5 -14.9 10.0 161 164 163
-3.3 -15.0 10.1 167 167 167
6.7 -14.9 10.1 212 214 214
7.2 -14.9 10.0 212 214 214
8.6 -14.9 10.0 210 213 212
9.1 -15.0 10.1 207 210 209
9.3 -14.9 10.0 207 210 209
11.1 -14.9 10.0 206 209 208
12.9 -15.0 10.1 205 208 207
13.0 -14.9 10.0 205 208 207
87.1 -76.4 51.4 208 211 210
82.0 -71.0 47.8 208 211 210
81.5 -69.6 46.8 208 211 210
274.8 -202.3 136.1 208 211 210
206.7 -148.8 100.1 204 204 204
76.2 -32.5 21.9 189 189 189
74.0 -31.4 21.1 185 185 185
62.4 -25.6 17.2 173 175 175
62.2 -25.4 17.1 167 167 167
62.2 -25.2 17.0 161 161 161
62.4 -25.1 16.9 155 155 155
-42.8 -29.9 20.4 8 9 8
-42.2 -29.8 20.4 7 13 9
-41.6 -29.7 20.3 19 23 20
-13.9 -29.1 19.9 178 178 178
-13.7 -29.7 20.3 175 175 175
-13.3 -29.7 20.3 172 172 172
-4.0 -14.8 10.1 134 134 134
-3.8 -14.8 10.1 149 151 151
-3.1 -14.7 10.1 164 167 166
-2.8 -14.7 10.0 175 175 175
-1.7 -14.8 10.1 144 144 144
-1.4 -14.7 10.1 148 150 150
-0.5 -14.7 10.1 149 151 151
-0.3 -14.8 10.1 149 151 151
-0.0 -14.8 10.1 149 151 151
0.9 -14.8 10.1 156 156 156
1.1 -14.7 10.1 152 154 154
1.6 -14.7 10.1 160 160 160
1.8 -14.7 10.1 160 160 160
2.1 -14.7 10.0 162 162 162
3.9 -14.7 10.0 159 159 159
4.4 -14.7 10.0 154 156 156
4.6 -14.7 10.1 210 213 212
5.3 -14.7 10.1 213 215 215
7.0 -14.7 10.0 212 214 214
7.4 -14.7 10.0 212 214 214
7.9 -14.8 10.1 210 213 212
8.1 -14.7 10.0 210 213 212
8.6 -14.7 10.1 210 213 212
8.8 -14.7 10.0 210 213 212
9.1 -14.8 10.1 210 213 212
9.3 -14.7 10.1 210 213 212
9.5 -14.7 10.0 209 212 211
9.8 -14.7 10.0 207 210 209
10.0 -14.7 10.1 207 210 209
10.3 -14.7 10.1 207 210 209
10.5 -14.7 10.1 206 209 208
11.0 -14.7 10.1 206 209 208
11.2 -14.7 10.1 206 209 208
12.3 -14.7 10.0 205 208 207
13.3 -14.7 10.0 205 208 207
13.5 -14.7 10.1 205 208 207
14.2 -14.7 10.0 204 207 206
14.4 -14.7 10.0 207 210 209
115.0 -95.4 65.2 208 211 210
102.4 -83.9 57.3 208 211 210
270.9 -196.3 134.2 208 211 210
237.0 -169.8 116.1 208 211 210
76.7 -32.2 22.0 190 190 190
76.8 -32.0 21.9 188 188 188
80.2 -33.2 22.7 188 188 188
79.1 -32.6 22.3 188 188 188
62.8 -25.2 17.2 166 166 166
62.7 -25.0 17.1 160 160 160
62.7 -24.8 17.0 155 155 155
66.7 -26.1 17.8 145 145 144
-41.5 -28.9 20.0 207 210 209
-40.9 -28.8 20.0 168 170 169
-13.9 -28.7 19.9 170 172 172
-13.6 -28.9 20.0 166 169 168
-13.1 -28.9 20.0 138 140 139
122.6 -100.1 69.5 208 211 210
116.1 -93.6 65.0 208 211 210
234.2 -165.1 114.6 208 211 210
34.6 -20.4 14.2 197 197 197
34.1 -19.9 13.8 197 197 197
76.9 -31.8 22.1 191 191 191
77.3 -31.7 22.0 189 189 189
79.9 -32.6 22.6 189 189 189
79.1 -32.0 22.3 185 185 185
63.7 -25.1 17.5 164 167 166
63.0 -24.7 17.2 159 159 159
63.1 -24.6 17.1 155 155 155
67.0 -25.8 17.9 142 144 143
-41.9 -28.4 20.0 65 65 65
-41.3 -28.2 19.9 70 72 69
-40.5 -28.0 19.8 70 72 69
-40.3 -28.2 19.9 60 60 60
-39.7 -28.1 19.8 41 43 42
-39.1 -28.0 19.8 41 43 42
-38.8 -28.1 19.8 101 101 101
-38.3 -28.1 19.8 167 167 167
-37.9 -28.1 19.8 166 166 166
-37.4 -28.1 19.8 177 180 179
-36.9 -28.0 19.8 111 113 112
-13.9 -28.1 19.9 169 171 170
-13.6 -28.4 20.0 159 162 161
-13.0 -28.3 20.0 129 132 131
156.0 -127.0 89.7 207 210 209
128.3 -103.1 72.8 208 211 210
118.6 -94.0 66.4 208 211 210
33.2 -19.5 13.7 199 199 199
33.8 -19.4 13.7 200 200 200
75.8 -31.0 21.9 192 192 192
76.3 -31.0 21.9 192 192 192
76.7 -31.0 21.9 190 190 190
78.7 -31.6 22.3 190 190 190
78.9 -31.5 22.2 186 186 186
77.9 -30.8 21.8 186 186 186
63.2 -24.4 17.2 158 158 158
63.1 -24.2 17.1 153 155 155
66.1 -25.0 17.7 142 144 143
-24.6 -14.0 10.1 165 165 165
-23.8 -14.0 10.0 96 95 94
-43.1 -29.0 20.8 62 62 62
-14.7 -29.3 21.0 183 186 185
-13.8 -28.4 20.4 184 187 186
126.4 -99.8 71.7 207 210 209
121.1 -94.5 67.8 208 211 210
123.2 -94.8 68.0 208 211 210
125.6 -95.5 68.5 208 211 210
128.2 -96.2 69.0 212 213 212
127.9 -94.8 68.0 209 212 211
130.4 -95.5 68.5 209 212 211
33.2 -19.3 13.9 203 203 203
33.2 -19.2 13.7 203 203 203
34.0 -19.4 14.0 197 197 197
33.8 -19.1 13.7 203 203 203
78.7 -31.0 22.3 191 191 191
79.0 -31.0 22.2 191 191 191
77.4 -30.2 21.6 184 184 184
63.2 -24.0 17.2 154 154 154
63.0 -23.8 17.1 153 153 153
63.3 -23.7 17.0 144 146 146
-24.8 -13.8 10.0 119 119 119
-24.5 -13.8 10.0 124 127 126
-24.3 -13.7 10.0 167 167 167
-24.1 -13.8 10.0 195 195 195
-23.8 -13.7 10.0 112 112 112
-23.5 -13.7 10.0 54 54 54
-23.3 -13.7 10.0 45 45 45
-23.1 -13.8 10.0 41 41 41
-13.4 -13.8 10.1 127 127 127
-13.1 -13.7 10.0 31 32 30
-12.8 -13.7 10.0 31 32 30
-12.6 -13.8 10.0 35 34 33
-12.4 -13.8 10.0 45 45 45
-12.2 -13.8 10.0 83 83 83
-11.9 -13.8 10.0 37 38 37
-14.3 -28.9 21.1 181 181 181
147.0 -115.7 84.4 207 210 209
129.8 -100.8 73.6 207 210 209
123.8 -94.9 69.3 207 210 209
126.8 -96.0 70.1 208 211 210
129.9 -97.1 70.8 208 211 210
134.0 -98.9 72.2 208 211 210
132.7 -96.7 70.6 208 211 210
134.8 -97.1 70.8 214 214 214
33.5 -19.0 13.9 198 198 198
34.1 -19.1 14.0 198 198 198
34.1 -19.0 13.9 202 202 202
74.6 -29.6 21.6 194 194 194
74.3 -29.0 21.2 194 194 194
80.1 -31.1 22.7 192 192 192
79.3 -30.6 22.3 189 189 189
78.1 -29.9 21.8 185 185 185
63.9 -23.8 17.4 155 155 155
63.4 -23.5 17.2 152 152 152
64.0 -23.6 17.2 137 137 137
65.9 -24.2 17.6 132 135 134
-28.6 -15.8 11.7 207 207 207
-28.1 -15.8 11.7 107 109 109
-27.8 -15.8 11.7 67 67 67
-27.6 -15.8 11.7 64 65 63
-27.3 -15.8 11.7 45 45 45
-27.0 -15.8 11.7 26 26 26
-26.8 -15.8 11.7 79 81 79
154.6 -119.6 88.8 207 210 209
140.2 -107.0 79.5 207 210 209
132.5 -99.9 74.2 207 210 209
150.2 -111.7 83.0 207 210 209
153.4 -112.7 83.7 208 211 210
153.4 -111.3 82.6 208 211 210
158.7 -113.7 84.4 208 211 210
163.6 -115.8 86.0 208 211 210
171.9 -120.2 89.2 209 212 211
168.4 -116.3 86.4 209 212 211
74.0 -28.4 21.1 193 193 193
81.3 -31.0 23.0 195 195 195
79.8 -30.3 22.5 190 190 190
79.1 -29.8 22.1 182 185 184
65.4 -24.0 17.8 150 152 152
64.8 -23.6 17.5 138 138 138
65.7 -23.8 17.7 134 136 135
66.4 -23.9 17.7 133 133 133
66.7 -23.9 17.7 134 136 135
80.5 -28.5 21.1 130 130 130
-28.5 -15.9 12.0 47 48 47
-18.7 -14.0 10.6 58 58 56
-18.3 -13.9 10.5 178 178 178
-18.1 -13.9 10.5 184 187 186
-17.9 -13.9 10.5 200 200 200
-16.7 -13.9 10.5 197 197 197
-15.7 -13.9 10.5 36 37 36
-16.8 -34.0 25.7 173 173 173
-16.2 -34.0 25.7 159 159 159
-15.7 -34.2 25.8 24 25 23
187.7 -144.7 109.3 210 210 210
173.3 -131.8 99.6 206 209 208
167.0 -122.1 92.3 207 210 209
176.0 -127.1 96.0 207 210 209
171.3 -122.1 92.3 208 211 210
193.3 -136.1 102.8 208 211 210
204.5 -142.3 107.5 208 211 210
203.6 -139.9 105.7 208 211 210
230.2 -152.7 115.3 209 212 211
73.8 -27.9 21.0 183 186 185
81.8 -30.7 23.2 180 183 182
78.7 -29.1 22.0 178 178 178
67.8 -24.0 18.1 132 132 132
80.5 -28.0 21.1 132 132 132
-29.5 -13.6 10.5 78 80 78
-24.9 -13.6 10.5 45 45 45
-24.6 -13.6 10.5 29 31 29
-24.4 -13.6 10.5 20 23 21
-24.1 -13.6 10.5 18 22 19
-23.9 -13.6 10.5 26 26 26
-23.7 -13.6 10.5 28 28 28
-23.4 -13.6 10.5 39 39 39
-23.2 -13.6 10.5 39 41 41
-18.6 -13.7 10.5 55 55 55
-18.3 -13.6 10.5 53 52 52
-18.0 -13.6 10.5 156 156 156
-17.8 -13.6 10.5 191 194 193
-17.5 -13.6 10.5 201 203 203
-17.3 -13.6 10.5 206 206 206
-17.1 -13.6 10.5 205 205 205
-16.8 -13.6 10.5 215 218 217
-16.6 -13.6 10.5 158 158 158
-16.3 -13.6 10.5 88 90 89
-16.1 -13.6 10.5 7 13 9
-15.8 -13.6 10.5 18 22 19
-15.7 -13.7 10.5 75 77 75
-15.4 -13.7 10.5 106 106 104
-15.2 -13.6 10.5 116 118 117
-14.9 -13.6 10.5 87 89 88
-14.6 -13.6 10.5 119 119 119
-13.7 -13.7 10.5 24 24 24
-13.5 -13.7 10.5 26 26 26
-13.2 -13.6 10.5 33 33 31
-12.9 -13.6 10.5 35 35 35
-12.7 -13.6 10.5 97 97 97
-12.5 -13.6 10.5 34 34 34
-12.2 -13.6 10.5 131 133 132
-12.0 -13.6 10.5 45 44 43
-11.7 -13.6 10.5 117 119 118
-17.9 -34.4 26.4 151 151 151
-17.2 -34.3 26.4 88 88 88
-16.7 -34.4 26.5 93 93 93
218.0 -165.1 127.0 210 210 210
201.6 -143.0 110.0 207 210 209
233.9 -161.8 124.4 208 211 210
238.4 -162.9 125.3 208 211 210
241.3 -162.9 125.3 208 211 210
704.1 -464.1 356.9 214 214 214
454.9 -296.4 227.9 214 214 214
274.8 -177.0 136.1 215 215 215
235.6 -150.0 115.3 210 213 212
209.0 -131.5 101.2 215 215 215
85.7 -30.9 23.8 149 149 149
87.3 -31.3 24.1 139 141 140
78.5 -27.0 20.7 129 132 131
77.7 -26.5 20.4 129 132 131
-29.1 -15.5 12.1 41 41 41
-28.8 -15.5 12.1 45 45 45
-28.5 -15.5 12.1 29 31 29
-18.4 -13.5 10.6 53 52 52
-18.7 -15.5 12.1 23 23 23
-16.5 -15.3 12.0 29 30 28
-18.5 -34.9 27.3 134 134 134
-17.7 -34.6 27.1 88 88 88
-17.1 -34.7 27.1 86 86 86
-16.7 -35.1 27.5 61 61 61
252.2 -171.3 134.2 212 213 212
246.6 -165.5 129.6 212 213 212
704.1 -455.8 356.9 214 214 214
496.8 -317.9 248.9 214 214 214
341.0 -215.7 168.9 215 215 215
257.6 -161.1 126.1 207 210 209
89.1 -31.4 24.6 131 134 133
89.9 -31.5 24.7 129 129 129
80.0 -27.1 21.3 128 128 128
79.6 -26.8 21.0 129 129 129
78.2 -26.2 20.5 128 128 128
-27.2 -14.4 11.5 38 38 38
-27.0 -14.4 11.5 33 32 30
-26.0 -14.3 11.4 17 21 18
-25.7 -14.3 11.4 163 162 160
-19.2 -13.6 10.8 52 52 52
-18.7 -13.6 10.8 54 54 54
-18.4 -13.6 10.8 57 56 55
-20.0 -35.8 28.6 186 186 186
-18.8 -34.8 27.7 132 132 132
-18.0 -34.5 27.5 91 93 92
-17.3 -34.5 27.5 90 92 91
-17.0 -35.1 28.0 72 72 72
-16.4 -35.2 28.1 115 114 114
284.5 -189.7 151.3 212 213 212
251.7 -165.9 132.3 212 213 212
717.6 -456.1 363.8 214 214 214
490.3 -308.0 245.7 214 214 214
357.0 -221.7 176.8 214 214 214
266.5 -163.6 130.5 215 215 215
91.0 -31.5 25.1 116 118 117
92.0 -31.6 25.2 119 119 119
77.6 -26.0 20.8 121 121 121
80.6 -26.9 21.4 121 121 121
79.9 -26.5 21.1 127 127 127
78.5 -25.8 20.6 127 127 127
-27.6 -14.2 11.5 29 31 29
-27.3 -14.2 11.5 29 31 29
-27.1 -14.2 11.5 25 25 25
-26.9 -14.2 11.5 17 21 18
-26.2 -14.2 11.5 20 23 21
-25.9 -14.1 11.5 148 150 150
-25.3 -14.2 11.6 155 155 155
-25.0 -14.2 11.6 144 144 144
-24.6 -14.1 11.5 200 200 200
-19.2 -14.1 11.5 52 52 52
-15.7 -14.3 11.6 34 34 34
-12.9 -14.2 11.5 105 105 105
-12.6 -14.2 11.5 65 65 65
-19.5 -35.5 28.8 136 138 137
-18.3 -34.5 28.1 91 93 92
-17.7 -34.6 28.1 90 92 91
-17.2 -35.0 28.4 81 81 81
16.3 -12.7 10.3 215 215 215
540.3 -358.1 291.0 211 211 211
366.6 -240.0 195.0 212 213 212
255.3 -165.1 134.2 216 216 216
262.1 -167.5 136.1 212 213 212
761.6 -475.1 386.0 214 214 214
547.2 -337.4 274.1 214 214 214
424.4 -258.7 210.2 214 214 214
247.7 -149.2 121.3 209 212 211
384.7 -221.7 180.2 199 199 199
92.7 -31.5 25.6 111 111 111
93.7 -31.6 25.7 111 111 111
80.9 -26.5 21.5 112 112 112
79.7 -25.9 21.1 116 118 117
77.6 -25.1 20.4 131 131 131
16.6 -12.9 10.7 210 210 210
16.4 -12.5 10.4 211 211 211
17.3 -12.8 10.6 211 211 211
355.6 -228.4 189.2 216 216 216
248.3 -157.5 130.5 216 216 216
249.6 -156.4 129.6 216 216 216
344.6 -213.5 176.8 216 216 216
717.6 -439.2 363.8 217 217 217
589.9 -356.9 295.6 217 217 217
374.5 -223.9 185.5 217 217 217
244.5 -144.6 119.7 209 212 211
360.7 -203.9 168.9 199 199 199
307.0 -171.7 142.2 200 200 200
51.2 -16.8 14.0 108 108 108
79.0 -25.2 20.9 80 83 82
77.1 -24.4 20.2 146 146 146
-25.5 -13.2 11.2 20 23 21
-18.4 -13.2 11.1 47 48 47
16.7 -12.9 10.9 210 210 210
16.4 -12.3 10.4 211 211 211
17.4 -12.9 10.9 211 211 211
17.2 -12.6 10.6 211 211 211
17.2 -12.4 10.4 211 211 211
355.6 -224.0 189.2 215 215 215
243.2 -151.3 127.8 216 216 216
255.2 -140.0 118.2 202 202 202
51.0 -16.7 14.1 105 105 105
51.1 -16.6 14.0 105 105 105
50.9 -16.4 13.9 102 104 104
76.2 -23.7 20.0 152 154 154
-20.7 -13.2 11.4 57 56 55
-19.7 -12.9 11.2 57 56 55
-23.3 -41.4 35.7 96 96 96
-22.1 -42.2 36.4 97 100 99
-21.1 -41.9 36.1 90 90 90
17.4 -12.6 10.9 211 211 211
17.4 -12.4 10.7 211 211 211
354.3 -192.6 165.9 199 199 199
263.4 -141.7 122.0 202 202 202
51.2 -16.3 14.0 100 100 100
50.8 -16.1 13.8 98 98 98
-23.9 -41.6 36.6 98 100 100
-23.4 -42.3 37.2 96 96 96
-22.4 -41.9 36.9 86 88 88
-21.3 -41.5 36.5 115 115 115
-20.1 -40.7 35.8 115 117 116
14.3 -11.5 10.1 211 211 211
14.5 -11.5 10.1 211 211 211
16.4 -11.8 10.4 215 215 215
17.3 -12.3 10.8 215 215 215
17.4 -12.2 10.7 215 215 215
348.2 -185.5 163.1 199 199 199
285.6 -150.5 132.3 202 202 202
51.2 -16.0 14.0 91 94 93
50.8 -15.8 13.8 81 84 83
-30.2 -14.2 12.7 138 140 139
-29.8 -14.1 12.7 165 165 165
-29.5 -14.1 12.7 183 183 183
-31.6 -15.3 13.7 182 185 184
-29.0 -14.2 12.7 149 151 151
-28.6 -14.1 12.7 7 13 9
-28.4 -14.2 12.7 6 6 6
-28.1 -14.2 12.7 14 14 14
-27.5 -14.0 12.6 29 31 29
-23.9 -42.2 37.9 95 98 97
-22.5 -41.3 37.1 103 105 105
-21.5 -41.1 36.9 27 27 27
-20.2 -40.2 36.1 25 25 23
16.2 -11.2 10.1 215 215 215
16.9 -11.4 10.2 216 216 216
16.8 -11.2 10.1 216 216 216
51.2 -15.7 14.1 78 78 78
51.0 -15.5 13.9 77 77 77
-29.6 -14.2 13.0 132 132 132
-28.7 -13.9 12.7 18 22 19
-27.5 -13.7 12.6 20 23 21
-24.8 -43.0 39.4 97 100 99
-23.2 -41.6 38.1 109 109 109
-22.2 -41.4 38.0 19 19 19
17.4 -11.7 10.7 215 215 215
51.0 -15.2 13.9 79 82 81
-29.7 -13.9 13.0 148 148 148
-28.5 -13.7 12.9 20 23 21
-28.5 -46.5 43.6 98 100 100
-25.8 -43.7 40.9 101 101 101
-25.9 -49.3 46.1 26 25 24
17.3 -11.4 10.6 218 218 218
-28.8 -51.5 49.3 19 19 19
-27.1 -50.5 48.4 21 21 21
395.6 -195.7 187.3 194 194 194
354.3 -173.3 165.9 200 200 200
-33.1 -55.7 54.5 111 111 111
-30.0 -52.5 51.4 21 21 21
360.0 -174.1 170.4 196 196 196
325.8 -155.8 152.6 200 200 200
-38.4 -60.7 60.8 101 101 101
-35.6 -58.5 58.6 112 111 110
16.8 -10.2 10.2 218 218 218
16.8 -10.0 10.0 219 219 219
363.2 -171.7 172.0 194 194 194
328.4 -153.5 153.8 200 200 200
277.8 -128.5 128.7 200 200 200
42.7 -18.2 18.2 204 204 204
-40.8 -63.2 64.8 100 100 100
-37.8 -60.7 62.2 112 112 112
-41.6 -72.3 74.2 21 21 21
-39.4 -71.5 73.3 169 169 169
-35.8 -67.8 69.5 180 180 180
16.8 -10.0 10.2 218 218 218
521.0 -245.9 252.2 219 219 219
373.4 -172.4 176.8 194 194 194
328.4 -149.9 153.8 200 200 200
272.2 -123.0 126.1 200 200 200
42.0 -17.5 17.9 203 203 203
-43.8 -66.2 69.5 100 100 100
-39.9 -62.5 65.7 112 112 112
-43.8 -74.4 78.2 27 27 27
-40.7 -72.0 75.7 166 166 166
-38.2 -70.6 74.2 181 181 181
494.6 -227.9 239.4 219 219 219
506.6 -230.8 242.5 182 182 182
373.4 -168.3 176.8 193 193 193
325.8 -145.2 152.6 198 198 198
256.8 -113.2 119.0 200 200 200
42.0 -17.0 17.9 203 203 203
-58.1 -92.4 99.6 23 24 23
-47.6 -78.8 84.8 21 21 21
-41.2 -71.1 76.6 157 157 157
16.6 -9.9 10.7 218 218 218
16.5 -9.7 10.5 218 218 218
434.2 -195.1 210.2 219 219 219
360.0 -158.2 170.4 186 186 186
315.6 -137.2 147.8 198 198 198
258.4 -111.2 119.7 200 200 200
42.1 -16.7 17.9 203 203 203
-63.1 -97.8 108.1 24 25 23
-51.0 -82.3 90.9 22 22 22
-42.7 -71.9 79.5 159 162 161
16.5 -9.6 10.6 218 221 220
16.5 -9.5 10.5 218 221 220
17.2 -9.6 10.6 218 218 218
250.0 -118.9 131.4 220 220 220
449.1 -196.8 217.4 221 221 221
356.7 -152.9 168.9 179 179 179
313.1 -132.7 146.6 195 195 195
265.2 -111.2 122.8 200 200 200
160.0 -66.4 73.3 200 200 200
43.4 -16.9 18.7 202 202 202
42.2 -16.3 18.0 203 203 203
-71.3 -107.6 122.0 28 28 28
-56.4 -88.7 100.6 35 35 35
16.5 -9.3 10.6 218 221 220
16.3 -9.1 10.3 218 221 220
17.2 -9.5 10.8 218 221 220
17.2 -9.3 10.6 218 221 220
17.0 -9.1 10.3 219 222 221
18.5 -9.1 10.4 219 219 219
356.7 -149.0 168.9 172 172 172
268.6 -109.8 124.4 199 199 199
151.7 -61.3 69.5 200 200 200
-78.9 -116.0 135.1 30 30 30
16.5 -9.2 10.8 218 221 220
16.5 -9.1 10.6 218 221 220
16.4 -8.9 10.4 218 221 220
17.2 -9.1 10.6 219 222 221
18.6 -8.9 10.4 219 219 219
308.4 -124.0 144.4 195 195 195
153.4 -60.4 70.3 200 200 200
-27.5 -11.1 13.3 131 133 132
-27.2 -11.1 13.3 178 181 180
-94.4 -135.1 161.7 27 26 25
16.4 -8.8 10.6 218 221 220
16.3 -8.7 10.4 218 221 220
17.2 -8.8 10.6 219 222 221
17.1 -8.7 10.4 219 222 221
18.6 -8.7 10.4 220 223 222
303.7 -118.8 142.2 195 195 195
274.1 -106.1 127.0 197 197 197
-28.3 -11.0 13.5 133 133 133
-27.8 -10.9 13.4 134 134 134
-27.5 -10.9 13.4 171 173 173
-189.4 -274.4 337.8 26 25 24
16.4 -8.6 10.6 218 221 220
16.3 -8.4 10.3 218 221 220
16.2 -8.2 10.1 219 222 221
17.3 -8.6 10.6 219 222 221
16.9 -8.3 10.2 219 222 221
18.4 -8.4 10.3 220 223 222
18.4 -8.3 10.2 220 223 222
318.1 -121.0 148.9 193 193 193
277.8 -104.5 128.7 197 197 197
16.6 -8.5 10.7 218 221 220
16.8 -8.1 10.2 219 222 221
16.8 -7.9 10.1 219 222 221
18.6 -8.2 10.4 220 223 222
18.4 -8.0 10.2 220 223 222
347.4 -129.8 164.5 168 168 168
315.6 -116.6 147.8 186 186 186
234.7 -85.8 108.7 195 195 195
13.1 -7.7 10.1 219 219 219
16.8 -8.4 11.0 218 221 220
16.6 -8.2 10.7 219 222 221
16.4 -8.0 10.4 219 222 221
18.6 -8.0 10.4 220 223 222
18.4 -7.8 10.2 220 223 222
228.1 -80.9 105.7 191 191 191
165.1 -57.9 75.7 195 195 195
-67.7 -22.3 30.0 77 77 77
-61.0 -20.3 27.3 77 77 77
-56.5 -19.0 25.6 78 78 78
-55.0 -18.7 25.2 75 77 75
13.1 -7.5 10.1 216 216 216
13.3 -7.4 10.0 219 219 219
16.9 -8.2 11.0 219 222 221
16.4 -7.7 10.4 219 222 221
17.2 -8.0 10.8 219 222 221
17.3 -7.9 10.7 219 222 221
18.5 -7.7 10.4 220 223 222
18.4 -7.6 10.2 220 223 222
286.5 -99.6 134.2 158 158 158
236.0 -81.2 109.3 190 190 190
-62.5 -20.1 28.0 73 73 73
16.4 -7.5 10.4 219 222 221
17.2 -7.6 10.6 219 222 221
16.9 -7.4 10.3 219 222 221
18.6 -7.5 10.4 220 223 222
317.1 -108.0 150.1 91 94 93
290.6 -97.9 136.1 151 151 151
258.4 -86.1 119.7 190 190 190
-61.4 -19.1 27.5 74 74 74
13.3 -7.0 10.0 216 216 216
16.9 -7.7 11.0 219 222 221
16.3 -7.2 10.4 219 222 221
17.1 -7.3 10.5 219 222 221
17.1 -7.2 10.4 219 222 221
18.5 -7.3 10.5 220 223 222
18.5 -7.2 10.4 220 223 222
303.7 -99.0 142.2 152 154 154
156.9 -45.2 65.0 202 202 202
-214.3 -56.3 83.7 48 48 48
-161.9 -52.6 78.2 50 50 50
-171.0 -56.8 84.4 41 41 41
-172.9 -58.1 86.4 72 73 71
-171.7 -58.4 86.8 135 135 135
-160.5 -56.6 84.1 56 56 56
-133.6 -47.7 70.8 33 34 32
13.3 -6.7 10.0 216 216 216
16.8 -7.4 11.0 219 222 221
16.4 -7.0 10.4 219 222 221
17.4 -7.3 10.9 219 222 221
17.1 -7.1 10.6 219 222 221
17.1 -7.0 10.4 219 222 221
18.6 -7.0 10.4 220 223 222
356.7 -113.6 168.9 129 132 131
158.0 -44.0 65.5 199 199 199
152.7 -42.1 62.6 225 227 227
77.6 -13.7 20.4 103 105 105
-210.7 -52.5 80.8 31 30 29
-206.2 -51.8 79.8 32 31 30
-203.3 -52.1 80.2 34 34 34
-203.2 -52.5 80.8 176 175 173
-202.2 -52.7 81.2 176 175 173
-196.9 -51.8 79.8 10 15 11
-192.6 -51.2 78.8 26 26 26
-187.6 -50.4 77.5 26 26 26
-186.6 -50.6 77.8 30 31 30
-168.5 -50.6 77.8 21 24 22
-160.7 -48.8 75.1 28 28 28
-155.9 -47.8 73.6 28 28 28
-155.4 -48.2 74.2 30 29 29
-157.4 -49.3 76.0 35 34 33
-155.0 -49.1 75.7 45 45 45
-163.0 -52.3 80.5 150 150 150
-167.1 -54.9 84.4 155 155 155
-154.1 -51.2 78.8 112 112 112
-156.3 -53.2 81.9 51 51 51
-137.7 -47.4 73.0 33 34 32
13.3 -6.5 10.0 214 214 214
18.5 -6.7 10.4 220 223 222
407.7 -125.4 193.0 129 132 131
153.3 -41.2 63.5 199 199 199
149.7 -39.9 61.4 225 227 227
76.2 -13.0 20.0 100 102 102
-181.3 -46.5 74.2 61 61 61
-176.8 -45.7 73.0 58 59 59
-176.4 -46.1 73.6 59 59 59
-160.6 -46.5 74.2 28 28 28
-158.2 -46.3 73.9 25 25 25
-151.8 -44.9 71.7 21 24 22
-152.4 -45.6 72.8 20 23 21
-153.1 -46.3 73.9 20 23 21
-151.4 -46.3 73.9 36 37 36
-136.1 -45.2 72.2 37 38 37
18.7 -6.5 10.4 220 220 220
126.2 -33.4 53.3 202 202 202
153.3 -39.8 63.5 196 196 196
148.3 -38.1 60.8 226 229 228
76.2 -12.5 20.0 100 102 102
-225.4 -55.1 91.4 70 72 69
-219.1 -54.1 89.7 70 72 69
126.5 -32.2 53.4 202 202 202
159.1 -39.7 65.9 205 205 205
145.9 -36.1 59.9 230 230 230
140.2 -34.4 57.0 236 236 236
140.3 -33.8 56.0 70 70 70
77.3 -12.2 20.3 115 114 114
-228.6 -52.7 90.9 63 64 62
-225.4 -52.5 90.5 72 72 72
-225.4 -53.0 91.4 81 83 80
-219.1 -52.0 89.7 75 76 76
17.2 -6.1 10.6 222 224 224
16.8 -5.8 10.0 222 224 224
18.6 -6.0 10.4 221 221 221
208.9 -53.2 91.8 196 196 196
283.5 -69.4 119.7 202 202 202
133.4 -31.4 54.2 236 236 236
135.1 -31.2 53.9 71 73 73
77.6 -11.8 20.4 111 111 111
17.4 -6.0 10.9 221 221 221
17.3 -5.9 10.7 221 221 221
18.7 -5.8 10.5 222 222 222
22.9 -6.8 12.2 222 222 222
206.9 -50.6 90.9 196 196 196
205.1 -49.7 89.2 196 196 196
282.5 -67.1 120.5 202 202 202
281.7 -66.2 119.0 205 205 205
224.7 -49.0 88.0 60 63 62
76.2 -11.1 20.0 101 103 103
17.4 -5.8 10.9 222 222 222
17.2 -5.7 10.6 222 222 222
208.8 -49.5 92.7 194 194 194
207.9 -48.7 91.4 197 197 197
208.0 -48.3 90.5 197 197 197
216.3 -49.7 93.2 199 199 199
282.5 -64.3 120.5 199 199 199
281.7 -63.5 119.0 203 203 203
231.3 -48.7 91.4 67 67 67
226.8 -47.4 88.8 66 66 66
75.9 -10.6 19.9 100 100 100
17.5 -5.6 10.9 222 222 222
17.2 -5.4 10.6 222 222 222
16.9 -5.2 10.1 222 222 222
18.4 -5.2 10.2 224 224 224
170.6 -39.9 78.2 186 186 186
207.8 -47.1 92.3 192 192 192
206.9 -46.4 90.9 195 195 195
207.0 -45.9 90.1 197 197 197
218.5 -48.0 94.1 200 200 200
288.0 -62.7 122.8 203 203 203
292.8 -63.1 123.6 203 203 203
220.6 -44.1 86.4 66 66 66
76.1 -10.2 20.0 95 95 95
13.3 -4.9 10.0 75 76 76
16.4 -5.1 10.4 221 221 221
17.1 -5.1 10.5 224 224 224
16.9 -5.0 10.3 224 224 224
16.9 -4.9 10.1 224 224 224
18.5 -5.1 10.4 221 221 221
18.5 -5.0 10.2 224 224 224
170.6 -38.1 78.2 182 182 182
200.7 -43.9 90.1 190 190 190
200.0 -43.2 88.8 192 192 192
193.8 -41.5 85.2 195 195 195
195.8 -41.5 85.2 197 197 197
197.8 -41.5 85.2 200 200 200
188.7 -39.2 80.5 200 200 200
209.9 -40.7 83.7 60 63 62
220.6 -42.4 87.2 60 63 62
216.6 -41.3 84.8 66 66 66
202.3 -38.2 78.5 60 63 62
75.9 -9.7 19.9 104 106 106
16.3 -4.8 10.3 221 221 221
17.1 -4.9 10.5 224 224 224
16.9 -4.8 10.3 225 225 225
18.5 -4.8 10.4 222 222 222
225.8 -41.4 89.2 61 64 63
221.6 -40.2 86.8 67 67 67
76.6 -9.3 20.1 99 99 99
16.4 -4.6 10.4 222 222 222
17.1 -4.6 10.6 219 219 219
16.9 -4.5 10.3 219 219 219
18.6 -4.6 10.5 222 222 222
18.6 -4.6 10.4 222 222 222
18.6 -4.5 10.3 222 222 222
23.2 -5.3 12.1 220 220 220
76.7 -8.9 20.1 101 101 101
23.7 -5.3 12.6 224 224 224
24.4 -5.3 12.7 224 224 224
23.4 -5.0 12.6 225 225 225
23.5 -4.9 12.5 225 225 225
23.8 -4.9 12.5 225 225 225
24.2 -4.9 12.6 225 225 225
24.6 -5.0 12.6 225 225 225
24.8 -4.9 12.6 225 225 225
25.0 -4.9 12.5 225 225 225
23.2 -4.6 12.4 225 225 225
23.4 -4.6 12.3 225 225 225
24.0 -4.6 12.5 225 225 225
24.6 -4.6 12.5 225 225 225
23.3 -4.3 12.4 226 226 226
23.4 -4.3 12.3 226 226 226
22.6 -4.0 11.4 226 226 226
22.7 -4.0 11.4 226 226 226
23.1 -4.0 11.4 226 226 226
23.3 -4.0 11.4 226 226 226
23.4 -4.0 12.5 222 222 222
23.7 -4.0 12.4 226 226 226
22.6 -3.7 11.5 222 222 222
22.8 -3.7 11.4 222 222 222
23.2 -3.7 11.5 222 222 222
23.4 -3.8 12.5 224 224 224
23.7 -3.7 12.4 224 224 224
24.1 -3.8 12.5 224 224 224
512.4 -31.8 197.0 77 77 77
312.1 -19.2 119.0 66 68 67
592.6 -31.5 227.9 72 72 72
517.8 -13.6 199.1 68 70 69
540.5 -9.4 207.9 66 66 66
528.9 -4.5 203.4 57 57 55
969.8 0.5 394.1 162 162 162
534.7 0.3 205.6 53 53 53
572.0 5.4 220.0 50 50 50
75.3 1.0 20.4 87 87 87
75.2 1.4 20.4 87 87 87
25.1 1.3 14.0 224 224 224
29.1 1.3 14.1 225 227 227
76.6 2.0 20.9 95 98 97
76.3 1.9 20.7 88 88 88
73.2 1.9 19.7 85 84 82
24.5 1.7 14.1 219 219 219
24.8 1.7 14.1 221 221 221
25.1 1.6 14.0 221 221 221
25.3 1.6 14.0 225 225 225
25.7 1.6 14.0 224 224 224
29.0 1.7 14.2 224 224 224
29.0 1.6 14.0 220 220 220
28.9 1.6 13.8 190 190 190
76.3 2.4 20.7 87 87 85
73.7 2.3 19.8 85 84 82
24.9 2.0 14.1 220 220 220
25.1 2.0 14.0 222 222 222
29.2 2.0 14.3 224 224 224
29.1 2.0 14.1 224 224 224
28.8 1.9 13.8 190 190 190
76.8 2.9 20.8 87 87 85
-78.5 26.9 48.1 119 119 119
-66.4 30.0 53.7 230 233 232
-60.3 27.8 49.8 224 224 224
-53.3 26.1 46.7 178 178 178
-55.0 31.4 56.1 99 99 99
-46.7 28.7 51.4 8 9 8
-42.9 27.0 48.4 96 99 98
-173.3 60.2 103.4 116 116 116
-170.8 61.9 106.3 132 135 134
-170.2 62.6 107.5 127 127 127
-151.6 59.2 101.7 126 126 126
-136.9 62.2 106.9 87 87 85
-135.2 62.6 107.5 226 226 226
-129.1 60.9 104.5 222 224 224
-126.6 60.9 104.5 230 233 232
-118.9 58.3 100.1 102 102 102
-121.8 60.9 104.5 42 43 42
-120.0 61.2 105.1 63 64 62
-111.4 60.5 103.9 66 66 66
-106.7 59.2 101.7 66 66 66
-104.3 59.2 101.7 63 63 63
-102.5 59.5 102.3 70 70 70
-103.5 61.5 105.7 84 86 86
-93.2 56.8 97.5 80 80 80
-91.9 57.4 98.5 86 86 86
-96.9 63.7 109.3 140 140 140
-86.8 58.6 100.6 151 151 151
-83.6 58.0 99.6 148 148 148
44.4 58.9 101.2 62 62 62
46.0 58.0 99.6 67 67 67
-237.5 89.5 147.8 136 138 137
-178.4 90.9 150.1 50 50 50
-120.6 82.4 136.1 121 123 122
-114.2 80.1 132.3 129 129 129
61.9 85.5 141.2 66 66 66
64.7 84.9 140.1 69 71 69
76.1 83.0 137.1 25 25 25
-186.6 146.7 131.4 104 104 104
-183.6 146.7 131.4 106 106 104
24.2 14.0 10.7 109 109 109
25.8 14.0 10.8 189 191 191
27.3 14.1 10.8 209 209 209
24.2 14.3 10.7 34 34 34
24.4 14.2 10.7 210 210 210
24.7 14.3 10.7 215 215 215
25.0 14.3 10.7 222 222 222
25.8 14.3 10.8 203 205 205
26.0 14.3 10.8 207 207 207
26.2 14.3 10.8 210 210 210
26.5 14.3 10.8 212 213 212
26.7 14.3 10.7 212 213 212
27.3 14.3 10.8 212 213 212
27.4 15.1 10.8 139 139 139
27.5 15.4 10.9 155 155 155
27.7 15.4 10.8 89 89 89
27.5 15.7 10.9 207 210 209
27.7 15.7 10.9 89 89 89
27.5 16.0 10.9 194 194 194
27.7 15.9 10.9 90 90 90
28.0 15.9 10.9 90 90 90
22.2 16.8 10.3 107 107 107
22.8 16.9 10.4 16 16 16
22.9 16.7 10.3 39 40 38
23.1 16.7 10.3 127 127 127
23.6 16.9 10.4 139 139 139
23.9 16.8 10.3 146 146 146
24.1 16.7 10.3 139 139 139
25.2 16.8 10.3 139 139 139
25.3 16.7 10.3 139 139 139
25.6 16.8 10.3 133 133 133
25.7 16.7 10.3 125 125 125
28.6 16.9 10.4 115 115 115
28.8 16.8 10.3 115 114 114
29.2 16.8 10.3 107 109 109
29.4 16.8 10.3 107 109 109
31.9 16.8 10.3 75 76 76
34.8 16.8 10.3 95 94 93
35.0 16.8 10.3 88 88 88
35.2 16.8 10.3 80 79 78
35.4 16.8 10.3 90 90 90
35.7 16.8 10.3 96 95 94
35.9 16.8 10.3 96 95 94
36.1 16.8 10.3 99 98 96
36.4 16.8 10.3 101 101 101
36.6 16.8 10.3 103 103 103
36.8 16.8 10.3 106 106 106
37.3 16.8 10.3 106 106 106
37.3 16.7 10.3 103 103 103
37.4 16.7 10.3 109 109 109
38.4 16.7 10.3 64 66 66
22.2 17.0 10.3 76 76 74
22.4 17.0 10.3 39 39 39
22.8 17.1 10.3 24 23 22
22.9 17.0 10.3 27 29 29
23.1 17.0 10.3 128 130 129
23.5 17.1 10.3 139 139 139
23.7 17.0 10.3 146 148 148
23.9 17.0 10.3 144 144 144
24.1 17.0 10.3 139 139 139
24.3 17.0 10.3 143 142 141
24.6 17.0 10.3 143 142 141
24.9 17.0 10.3 143 142 141
25.1 17.0 10.3 139 139 139
25.3 17.0 10.3 135 135 135
25.6 17.0 10.3 128 131 130
25.8 17.0 10.3 122 124 123
28.6 17.1 10.3 117 119 118
28.8 17.0 10.3 115 114 114
29.0 17.0 10.3 111 111 111
29.2 17.0 10.3 107 109 109
29.4 17.0 10.3 107 109 109
29.6 17.0 10.3 113 114 113
29.9 17.0 10.3 61 61 61
30.1 17.0 10.3 90 90 90
30.4 17.0 10.3 95 98 97
30.6 17.0 10.3 96 99 98
30.8 17.0 10.3 99 101 101
31.1 17.0 10.3 105 105 105
31.3 17.0 10.3 97 97 97
31.6 17.0 10.3 54 56 54
31.8 17.0 10.3 79 79 79
32.0 17.0 10.3 94 94 94
32.3 17.0 10.3 104 106 106
32.5 17.0 10.3 112 112 112
32.7 17.0 10.3 103 105 105
33.0 17.0 10.3 103 103 103
33.3 17.0 10.3 103 103 103
33.5 17.0 10.3 105 107 107
33.7 17.0 10.3 106 108 108
34.2 17.0 10.3 97 96 94
34.5 17.0 10.3 95 94 93
34.7 17.0 10.3 95 94 93
34.9 17.0 10.3 92 92 92
35.1 17.0 10.3 84 84 84
35.4 17.0 10.3 84 84 84
35.6 17.0 10.3 92 92 92
35.9 17.0 10.3 96 95 94
36.1 17.0 10.3 99 98 96
36.3 17.0 10.3 101 101 101
36.6 17.0 10.3 103 103 103
36.8 17.0 10.3 103 103 103
37.2 17.1 10.3 106 106 106
37.3 17.0 10.3 106 106 106
37.5 17.0 10.3 109 109 109
37.8 17.0 10.3 113 115 114
38.1 17.0 10.3 119 119 119
38.2 17.0 10.3 103 103 103
38.4 17.0 10.3 62 64 64
38.7 17.0 10.3 56 56 56
39.0 17.0 10.3 74 74 74
39.3 17.0 10.3 168 167 166
