ply
format ascii 1.0
element vertex 2302
property float x
property float y
property float z
property uchar red
property uchar green
property uchar blue
end_header
272.3 -545.5 217.4 161 161 161
397.6 -741.6 295.6 158 158 158
392.2 -719.1 286.6 158 158 158
108.5 -177.8 70.8 155 158 157
109.3 -176.4 70.3 155 158 157
112.2 -178.4 71.1 156 159 158
114.3 -179.1 71.4 156 159 158
115.1 -177.8 70.8 157 160 159
104.8 -489.8 197.0 160 160 160
46.7 -209.0 84.1 160 160 160
48.6 -209.0 84.1 162 162 162
50.6 -209.0 84.1 162 162 162
52.5 -209.0 84.1 162 162 162
54.5 -209.0 84.1 162 162 162
56.4 -209.0 84.1 162 162 162
58.4 -209.0 84.1 165 165 165
60.3 -209.0 84.1 165 165 165
62.3 -209.0 84.1 165 165 165
64.2 -209.0 84.1 166 166 166
66.5 -209.9 84.4 166 166 166
68.1 -209.0 84.1 166 166 166
70.1 -209.0 84.1 166 166 166
72.1 -209.0 84.1 166 166 166
74.0 -209.0 84.1 166 166 166
76.0 -209.0 84.1 166 166 166
77.6 -208.1 83.7 166 166 166
79.9 -209.0 84.1 166 166 166
82.2 -209.9 84.4 163 163 163
83.4 -208.1 83.7 163 163 163
85.4 -208.1 83.7 163 163 163
87.3 -208.1 83.7 163 163 163
89.6 -209.0 84.1 164 164 164
214.7 -489.8 197.0 161 161 161
94.0 -209.9 84.4 161 161 161
95.9 -209.9 84.4 161 161 161
97.0 -208.1 83.7 161 161 161
225.9 -475.0 191.1 161 161 161
101.8 -209.9 84.4 161 161 161
103.3 -209.0 84.1 161 161 161
104.8 -208.1 83.7 161 161 161
107.7 -209.9 84.4 161 161 161
108.7 -208.1 83.7 161 161 161
109.7 -206.2 83.0 161 161 161
299.4 -553.2 222.5 161 161 161
290.8 -528.3 212.5 161 161 161
270.4 -475.0 191.1 162 162 162
274.8 -475.0 191.1 162 162 162
282.1 -479.8 193.0 159 159 159
128.5 -211.8 85.2 159 159 159
121.2 -196.7 79.1 159 159 159
108.5 -173.5 69.8 159 159 159
130.3 -205.3 82.6 156 159 158
132.8 -206.2 83.0 156 159 158
126.4 -193.5 77.8 157 160 159
58.4 -38.1 15.3 211 211 211
54.4 -160.6 65.2 166 166 166
59.1 -161.2 65.5 166 166 166
60.7 -161.2 65.5 163 163 163
61.8 -160.1 65.0 163 163 163
76.7 -194.1 78.8 163 163 163
78.2 -193.3 78.5 163 163 163
66.7 -161.2 65.5 163 163 163
71.1 -160.6 65.2 164 164 164
87.7 -194.1 78.8 164 164 164
74.6 -161.7 65.7 164 164 164
75.6 -160.6 65.2 164 164 164
77.1 -160.6 65.2 161 161 161
78.9 -161.2 65.5 164 164 164
80.7 -161.7 65.7 161 161 161
81.4 -160.1 65.0 161 161 161
82.6 -159.5 64.8 161 161 161
85.3 -161.7 65.7 161 161 161
85.9 -160.1 65.0 161 161 161
117.5 -208.0 84.4 162 162 162
113.4 -197.4 80.2 162 162 162
93.5 -160.1 65.0 162 162 162
123.4 -208.0 84.4 162 162 162
122.6 -203.4 82.6 162 162 162
123.5 -201.7 81.9 159 159 159
120.7 -194.1 78.8 159 159 159
103.5 -164.0 66.6 159 159 159
123.3 -192.5 78.2 163 163 163
126.7 -194.9 79.1 163 163 163
121.4 -91.3 37.1 105 105 105
75.3 -53.9 21.9 98 100 100
76.0 -54.1 22.0 95 98 97
76.0 -53.7 21.8 94 94 94
76.1 -53.4 21.7 94 94 94
60.1 -39.1 15.9 215 215 215
58.6 -37.9 15.4 188 188 188
58.1 -37.3 15.2 196 199 198
31.1 -136.5 56.0 163 163 163
32.4 -136.5 56.0 165 165 165
33.7 -136.5 56.0 165 165 165
35.0 -136.5 56.0 165 165 165
36.3 -136.5 56.0 165 165 165
37.6 -136.5 56.0 165 165 165
38.9 -136.5 56.0 165 165 165
39.9 -135.7 55.6 166 169 168
41.2 -135.7 55.6 166 169 168
42.6 -136.1 55.8 166 169 168
43.9 -136.1 55.8 166 169 168
45.4 -136.5 56.0 166 166 166
46.8 -136.9 56.1 166 166 166
48.0 -136.5 56.0 166 166 166
49.1 -136.1 55.8 166 166 166
50.4 -136.1 55.8 166 166 166
52.0 -136.9 56.1 166 166 166
53.2 -136.5 56.0 166 166 166
54.5 -136.5 56.0 163 163 163
55.9 -136.9 56.1 163 163 163
57.2 -136.9 56.1 163 163 163
58.4 -136.5 56.0 163 163 163
59.3 -135.7 55.6 164 164 164
60.8 -136.1 55.8 164 164 164
62.5 -136.9 56.1 164 164 164
64.0 -137.3 56.3 164 164 164
64.9 -136.5 56.0 164 164 164
66.2 -136.5 56.0 164 164 164
66.1 -133.7 54.8 164 164 164
67.2 -133.4 54.7 164 164 164
69.7 -135.7 55.6 164 164 164
69.3 -132.6 54.4 164 164 164
72.0 -135.3 55.5 164 164 164
74.4 -137.3 56.3 164 164 164
74.8 -135.7 55.6 164 164 164
81.7 -138.6 56.8 162 162 162
121.0 -90.1 36.9 105 105 105
111.6 -82.5 33.8 103 102 100
71.2 -50.2 20.6 95 98 97
72.2 -50.2 20.6 92 92 92
72.2 -49.9 20.5 92 92 92
72.4 -49.7 20.4 92 92 92
61.1 -39.6 16.2 211 211 211
60.0 -38.7 15.9 203 203 203
58.7 -37.6 15.4 182 185 184
57.8 -36.8 15.1 211 211 211
64.4 -124.2 51.4 167 167 167
60.3 -114.3 47.3 167 167 167
58.9 -109.6 45.4 167 167 167
57.1 -104.3 43.2 167 167 167
71.1 -127.7 52.8 167 167 167
55.4 -86.1 35.6 165 165 165
56.1 -85.9 35.6 166 166 166
138.9 -209.6 86.8 166 166 166
127.6 -94.8 39.2 105 105 105
118.2 -87.2 36.1 107 107 107
104.0 -75.7 31.3 103 102 100
70.2 -49.0 20.3 94 94 94
70.0 -48.5 20.1 94 94 94
70.1 -48.3 20.0 92 92 92
70.4 -48.2 20.0 92 92 92
70.0 -47.6 19.7 92 92 92
53.3 -34.4 14.3 175 175 175
59.6 -38.0 15.7 179 182 181
57.4 -36.2 15.0 215 215 215
14.2 -86.9 36.3 161 161 161
15.0 -86.2 36.0 161 161 161
15.9 -86.7 36.2 161 161 161
16.8 -87.0 36.4 164 164 164
17.7 -87.2 36.4 166 166 166
18.4 -86.5 36.2 166 166 166
19.2 -86.5 36.2 166 166 166
20.1 -86.7 36.2 166 169 168
21.0 -86.7 36.2 165 168 167
21.8 -86.7 36.2 165 168 167
22.6 -86.7 36.2 165 168 167
23.5 -86.7 36.2 165 168 167
24.3 -86.7 36.2 165 168 167
25.2 -86.7 36.2 165 168 167
26.0 -86.7 36.2 166 169 168
26.8 -86.7 36.2 165 165 165
27.8 -87.0 36.4 166 169 168
28.7 -87.2 36.4 166 169 168
29.3 -86.5 36.2 166 169 168
30.1 -86.4 36.1 166 169 168
31.1 -86.7 36.2 166 166 166
31.9 -86.7 36.2 166 166 166
32.7 -86.7 36.2 166 166 166
33.6 -86.7 36.2 166 166 166
34.4 -86.7 36.2 166 166 166
35.3 -86.7 36.2 166 166 166
36.1 -86.7 36.2 166 166 166
37.0 -86.9 36.3 166 166 166
37.7 -86.5 36.2 166 166 166
38.6 -86.7 36.2 166 166 166
39.5 -86.7 36.2 167 167 167
40.1 -86.2 36.0 167 167 167
40.9 -86.2 36.0 167 167 167
42.1 -86.9 36.3 168 170 169
42.9 -86.7 36.2 169 171 170
43.9 -87.0 36.4 169 171 170
44.8 -87.2 36.4 169 171 170
45.5 -86.9 36.3 169 171 170
46.2 -86.7 36.2 169 171 170
47.2 -87.0 36.4 169 171 170
48.0 -86.9 36.3 169 171 170
48.4 -86.1 36.0 169 171 170
49.8 -87.0 36.4 169 171 170
50.8 -87.4 36.5 169 171 170
51.7 -87.4 36.5 169 171 170
52.4 -87.2 36.4 170 172 172
319.1 -514.4 215.0 168 168 168
55.6 -88.2 36.9 170 172 172
55.4 -86.5 36.2 170 172 172
55.7 -85.7 35.8 170 172 172
56.5 -85.7 35.8 169 169 169
137.6 -205.7 86.0 169 169 169
183.7 -246.0 102.8 167 167 167
116.0 -84.8 35.4 105 105 105
98.9 -71.3 29.8 103 102 100
66.4 -45.6 19.0 94 94 94
69.9 -47.1 19.7 92 92 92
52.9 -33.9 14.1 179 182 181
13.9 -84.3 35.6 161 161 161
14.5 -82.5 34.8 161 161 161
15.4 -83.2 35.1 164 164 164
22.8 -83.3 35.2 165 168 167
23.6 -83.3 35.2 165 168 167
24.4 -83.3 35.2 165 168 167
25.2 -83.2 35.1 165 165 165
26.0 -83.3 35.2 166 169 168
27.0 -83.8 35.4 166 169 168
27.9 -83.9 35.4 166 169 168
28.5 -83.3 35.2 166 169 168
29.3 -83.2 35.1 166 169 168
30.1 -83.2 35.1 166 169 168
31.0 -83.3 35.2 166 169 168
31.9 -83.6 35.3 166 166 166
32.6 -83.3 35.2 166 169 168
33.3 -83.2 35.1 166 166 166
34.3 -83.5 35.2 168 170 169
35.0 -83.3 35.2 168 170 169
36.1 -83.9 35.4 168 170 169
36.8 -83.6 35.3 168 170 169
37.5 -83.3 35.2 166 166 166
38.6 -83.9 35.4 168 170 169
39.0 -83.0 35.0 171 173 173
39.6 -82.5 34.8 168 170 169
41.0 -83.8 35.4 168 170 169
41.8 -83.8 35.4 169 171 170
42.8 -84.1 35.5 169 171 170
43.6 -84.1 35.5 169 171 170
44.4 -83.9 35.4 169 171 170
45.0 -83.6 35.3 169 171 170
45.7 -83.5 35.2 169 171 170
46.7 -83.6 35.3 169 171 170
47.2 -83.2 35.1 172 174 174
48.7 -84.4 35.6 172 174 174
49.5 -84.3 35.6 172 174 174
50.3 -84.3 35.6 173 175 175
50.9 -83.9 35.4 170 172 172
319.1 -509.4 215.0 170 172 172
54.3 -82.9 35.0 170 172 172
143.5 -215.5 90.9 171 173 173
141.5 -209.5 88.4 171 173 173
162.3 -233.5 98.5 172 174 174
191.0 -253.2 106.9 169 169 169
174.7 -228.7 96.5 175 177 177
156.2 -201.9 85.2 174 174 174
44.8 -28.4 12.0 188 188 188
14.1 -79.5 33.9 161 161 161
14.9 -79.8 34.0 167 167 167
15.7 -80.0 34.1 166 166 166
22.1 -80.1 34.1 165 168 167
22.9 -80.1 34.1 165 168 167
23.7 -80.1 34.1 165 168 167
24.3 -79.4 33.8 166 169 168
25.3 -80.1 34.1 166 169 168
26.2 -80.6 34.3 166 169 168
26.8 -79.8 34.0 166 169 168
27.5 -79.5 33.9 166 169 168
28.2 -79.3 33.8 170 172 172
29.0 -79.3 33.8 170 172 172
30.0 -80.0 34.1 166 169 168
30.9 -80.3 34.2 170 172 172
31.6 -80.1 34.1 170 172 172
32.3 -79.8 34.0 171 173 173
33.2 -80.0 34.1 168 170 169
34.0 -80.0 34.1 171 173 173
34.9 -80.3 34.2 175 175 175
35.4 -79.5 33.9 171 173 173
36.3 -79.8 34.0 175 175 175
37.1 -80.0 34.1 176 176 176
37.9 -79.8 34.0 179 179 179
38.5 -79.5 33.9 176 176 176
39.7 -80.4 34.3 171 173 173
40.6 -80.6 34.3 176 176 176
41.0 -79.8 34.0 172 174 174
41.7 -79.7 34.0 176 176 176
42.5 -79.7 34.0 179 179 179
43.2 -79.5 33.9 179 179 179
43.9 -79.3 33.8 176 176 176
44.7 -79.4 33.8 179 179 179
45.6 -79.5 33.9 179 179 179
46.8 -80.3 34.2 182 182 182
47.3 -79.7 34.0 177 177 177
48.1 -79.7 34.0 180 180 180
48.8 -79.5 33.9 177 177 177
49.5 -79.4 33.8 180 180 180
52.9 -79.8 34.0 173 175 175
147.0 -218.6 93.2 178 178 178
141.5 -207.4 88.4 174 176 176
137.2 -198.1 84.4 171 173 173
159.0 -226.4 96.5 175 177 177
145.0 -203.6 86.8 179 179 179
191.0 -250.8 106.9 174 176 176
173.8 -225.3 96.0 177 180 179
156.2 -199.9 85.2 174 174 174
45.3 -28.6 12.2 203 203 203
44.5 -27.9 11.9 208 208 208
43.2 -27.0 11.5 211 211 211
44.6 -27.3 11.6 219 219 219
39.1 -68.8 29.6 198 198 198
44.7 -74.6 32.1 198 198 198
145.6 -214.4 92.3 199 199 199
135.2 -196.2 84.4 199 199 199
129.1 -184.6 79.5 203 203 203
139.1 -196.2 84.4 200 200 200
136.2 -189.4 81.5 200 200 200
130.8 -179.4 77.2 198 198 198
65.9 -44.8 19.3 98 100 100
41.8 -26.1 11.3 200 202 202
42.5 -26.4 11.4 206 206 206
42.4 -26.2 11.3 196 199 198
42.4 -26.0 11.2 208 208 208
42.9 -26.2 11.3 217 217 217
43.4 -26.3 11.3 219 219 219
18.7 -66.3 28.8 196 196 196
19.4 -66.3 28.8 196 196 196
20.0 -66.3 28.8 198 198 198
20.7 -66.3 28.8 196 196 196
21.4 -66.3 28.8 202 202 202
22.1 -66.4 28.9 202 202 202
22.7 -66.3 28.8 198 198 198
23.4 -66.3 28.8 202 202 202
24.0 -66.2 28.8 198 198 198
24.7 -66.3 28.8 202 202 202
25.4 -66.4 28.9 202 202 202
26.1 -66.3 28.8 202 202 202
26.7 -66.3 28.8 202 202 202
27.4 -66.3 28.8 202 202 202
28.0 -66.2 28.8 202 202 202
28.7 -66.3 28.8 202 202 202
29.4 -66.3 28.8 202 202 202
30.0 -66.2 28.8 202 202 202
30.7 -66.3 28.8 202 202 202
31.3 -66.1 28.7 202 202 202
32.1 -66.3 28.8 202 202 202
32.9 -66.6 29.0 202 202 202
33.4 -66.3 28.8 202 202 202
33.9 -66.0 28.7 202 202 202
34.6 -66.0 28.7 202 202 202
35.7 -66.8 29.1 202 202 202
36.3 -66.7 29.0 202 202 202
36.8 -66.4 28.9 202 202 202
37.7 -66.7 29.0 202 202 202
38.1 -66.3 28.8 202 202 202
38.7 -66.2 28.8 202 202 202
39.5 -66.4 28.9 202 202 202
41.6 -67.6 29.4 202 202 202
41.8 -66.8 29.1 202 202 202
42.3 -66.6 29.0 202 202 202
42.9 -66.4 28.9 205 205 205
43.4 -66.2 28.8 202 202 202
129.4 -185.9 80.8 203 203 203
125.4 -177.6 77.2 203 203 203
128.2 -179.0 77.8 204 204 204
131.1 -180.5 78.5 204 204 204
122.3 -166.0 72.2 204 204 204
21.3 -25.4 11.1 205 205 205
21.4 -25.2 11.0 203 203 203
64.0 -43.1 18.7 98 100 100
62.4 -41.8 18.2 98 100 100
42.3 -25.5 11.1 217 217 217
42.6 -25.6 11.1 217 217 217
36.3 -66.1 29.0 205 205 205
37.7 -66.1 29.0 205 205 205
38.0 -65.4 28.7 205 205 205
38.6 -65.2 28.7 202 202 202
39.6 -65.9 29.0 202 202 202
41.4 -67.7 29.7 205 205 205
41.8 -67.3 29.6 205 205 205
41.9 -66.3 29.1 205 205 205
42.1 -65.6 28.8 205 205 205
42.6 -65.3 28.7 205 205 205
115.5 -161.9 71.1 203 203 203
113.7 -157.2 69.0 204 204 204
114.8 -154.4 67.8 204 204 204
21.5 -25.4 11.2 208 208 208
21.6 -25.2 11.1 205 205 205
64.1 -42.7 18.8 103 102 100
20.4 -66.2 29.4 205 205 205
21.1 -66.2 29.4 205 205 205
25.9 -66.3 29.4 208 208 208
33.6 -66.6 29.6 205 205 205
36.6 -67.1 29.8 205 205 205
37.0 -66.6 29.6 205 205 205
38.4 -66.7 29.6 205 205 205
38.8 -66.2 29.4 205 205 205
39.0 -65.4 29.0 205 205 205
40.4 -66.5 29.5 205 205 205
41.6 -67.3 29.9 208 208 208
42.1 -67.0 29.7 208 208 208
42.5 -66.6 29.6 205 205 205
42.9 -66.1 29.3 205 205 205
43.4 -65.9 29.2 205 205 205
43.5 -65.0 28.8 205 205 205
111.3 -154.4 68.5 203 203 203
108.2 -148.0 65.7 204 204 204
22.0 -25.4 11.3 208 208 208
22.3 -25.5 11.3 206 206 206
168.7 -122.1 54.2 119 119 119
66.4 -44.4 19.7 107 107 107
64.7 -43.0 19.1 105 105 105
63.9 -42.2 18.7 105 105 105
15.0 -65.9 29.6 206 206 206
15.7 -65.7 29.5 205 205 205
16.3 -65.7 29.5 205 205 205
17.0 -65.6 29.4 205 205 205
17.7 -65.6 29.4 208 208 208
18.4 -65.6 29.4 208 208 208
19.1 -65.6 29.4 208 208 208
19.7 -65.4 29.3 208 208 208
20.4 -65.4 29.3 208 208 208
21.0 -65.3 29.3 208 208 208
21.8 -65.5 29.4 208 208 208
22.5 -65.6 29.4 208 208 208
23.1 -65.3 29.3 208 208 208
23.9 -65.7 29.5 208 208 208
25.2 -65.6 29.4 208 208 208
25.9 -65.5 29.4 208 208 208
26.5 -65.4 29.3 208 208 208
27.3 -65.6 29.4 208 208 208
27.9 -65.4 29.3 208 208 208
28.3 -64.8 29.1 208 208 208
29.1 -65.2 29.2 208 208 208
32.9 -65.9 29.6 208 208 208
33.5 -65.8 29.5 208 208 208
34.1 -65.5 29.4 211 211 211
34.4 -64.8 29.1 208 208 208
34.9 -64.5 28.9 205 205 205
36.6 -66.3 29.7 205 205 205
37.0 -65.9 29.6 208 208 208
37.6 -65.7 29.5 208 208 208
38.4 -66.0 29.6 208 208 208
38.7 -65.3 29.3 208 208 208
39.0 -64.7 29.0 208 208 208
40.2 -65.5 29.4 208 208 208
41.6 -66.6 29.9 208 208 208
42.1 -66.3 29.7 208 208 208
42.4 -65.7 29.5 208 208 208
42.9 -65.5 29.4 208 208 208
43.5 -65.4 29.3 208 208 208
43.6 -64.5 28.9 208 208 208
44.2 -64.3 28.8 208 208 208
46.4 -65.6 29.4 208 208 208
48.7 -65.9 29.6 206 206 206
26.9 -34.0 15.3 205 205 205
26.8 -33.4 15.0 205 205 205
22.6 -25.6 11.5 208 208 208
66.6 -44.1 19.8 110 110 110
33.7 -65.4 29.6 207 207 207
34.3 -65.2 29.6 207 207 207
34.3 -63.9 29.0 207 207 207
38.8 -64.7 29.3 207 207 207
38.7 -63.5 28.8 207 207 207
42.1 -66.7 30.2 207 207 207
42.4 -66.2 30.0 207 207 207
42.4 -65.1 29.5 207 207 207
43.1 -65.0 29.5 207 207 207
43.9 -65.2 29.6 207 207 207
43.5 -63.6 28.8 207 207 207
43.6 -62.8 28.4 207 207 207
46.6 -65.2 29.6 208 208 208
47.5 -65.4 29.6 208 208 208
47.7 -64.8 29.4 208 208 208
48.5 -65.0 29.5 206 206 206
28.1 -35.6 16.1 207 207 207
27.1 -33.9 15.4 207 207 207
26.9 -33.2 15.0 205 205 205
19.6 -66.0 30.2 210 210 210
20.3 -66.0 30.2 210 210 210
21.0 -66.0 30.2 210 210 210
21.5 -65.5 30.0 210 210 210
22.3 -65.8 30.1 210 210 210
34.4 -66.1 30.3 207 207 207
34.8 -65.6 30.0 207 207 207
35.1 -64.8 29.7 207 207 207
38.0 -66.2 30.3 207 207 207
38.6 -66.1 30.3 207 207 207
39.3 -66.1 30.3 207 207 207
39.3 -64.9 29.7 207 207 207
40.1 -65.2 29.8 204 204 204
42.7 -65.9 30.2 207 207 207
42.8 -64.9 29.7 207 207 207
43.8 -65.5 30.0 207 207 207
44.6 -65.6 30.0 207 207 207
44.6 -64.6 29.6 207 207 207
44.9 -64.0 29.3 207 207 207
45.8 -64.3 29.5 207 207 207
47.4 -65.6 30.0 207 207 207
48.2 -65.8 30.1 207 207 207
48.5 -65.2 29.8 208 208 208
49.3 -65.4 29.9 208 208 208
27.3 -33.8 15.5 207 207 207
26.9 -32.9 15.1 207 207 207
20.3 -65.4 30.3 209 209 209
21.0 -65.5 30.3 209 209 209
21.6 -65.0 30.1 209 209 209
22.3 -65.0 30.1 209 209 209
34.5 -65.6 30.4 206 206 206
34.8 -64.9 30.0 206 206 206
34.9 -63.9 29.6 209 209 209
38.1 -65.7 30.4 206 206 206
38.8 -65.7 30.4 206 206 206
39.4 -65.6 30.4 209 209 209
39.2 -64.1 29.6 209 209 209
43.1 -66.9 31.0 206 206 206
42.8 -65.4 30.3 206 206 206
42.6 -64.1 29.6 206 206 206
43.6 -64.5 29.8 206 206 206
44.7 -65.1 30.1 206 206 206
44.6 -64.0 29.6 206 206 206
44.4 -62.7 29.0 206 206 206
45.2 -62.8 29.1 206 206 206
47.1 -64.6 29.9 207 207 207
48.2 -65.1 30.1 207 207 207
48.5 -64.6 29.9 207 207 207
49.1 -64.4 29.8 207 207 207
53.4 -69.0 32.0 208 208 208
27.4 -33.6 15.6 206 206 206
26.9 -32.5 15.0 206 206 206
-9.6 -23.7 11.1 139 138 137
-9.3 -23.7 11.1 137 137 137
-9.0 -23.6 11.0 139 141 140
-8.7 -23.5 11.0 140 142 141
-8.0 -23.6 11.0 144 144 144
-7.7 -23.6 11.0 144 146 146
-7.5 -23.6 11.0 142 144 143
-5.7 -23.6 11.0 165 165 165
-5.4 -23.6 11.0 164 167 166
-5.2 -23.5 11.0 163 166 165
-4.7 -23.6 11.0 163 166 165
-4.4 -23.4 10.9 165 165 165
-3.9 -23.6 11.0 168 168 168
-3.6 -23.6 11.0 167 167 167
-3.1 -23.6 11.0 171 173 173
-2.9 -23.6 11.0 171 173 173
-2.6 -23.6 11.0 171 173 173
-2.3 -23.6 11.0 178 178 178
-2.1 -23.6 11.0 173 175 175
-1.8 -23.6 11.0 173 175 175
-1.6 -23.5 11.0 177 177 177
-0.8 -23.6 11.0 177 177 177
-0.5 -23.6 11.0 179 179 179
10.2 -23.6 11.0 209 209 209
10.5 -23.6 11.0 209 209 209
10.7 -23.6 11.0 209 209 209
44.1 -68.9 32.2 206 206 206
44.8 -68.8 32.2 206 206 206
42.7 -63.5 29.7 211 211 211
44.0 -61.4 28.7 206 206 206
43.9 -60.3 28.2 206 206 206
48.6 -64.9 30.4 206 206 206
48.8 -64.2 30.0 207 207 207
55.2 -71.6 33.5 207 207 207
54.9 -70.2 32.8 207 207 207
55.8 -70.4 33.0 207 207 207
26.9 -32.1 15.0 206 206 206
26.8 -31.6 14.8 206 206 206
-10.5 -23.7 11.2 131 134 133
-10.1 -23.5 11.1 134 134 134
-9.8 -23.4 11.1 135 135 135
-9.6 -23.6 11.1 134 137 136
-9.4 -23.6 11.2 138 138 138
-9.1 -23.6 11.1 138 138 138
-8.8 -23.5 11.1 140 142 141
-8.6 -23.5 11.1 146 146 146
-8.3 -23.6 11.2 146 146 146
-8.1 -23.5 11.1 146 148 148
-7.8 -23.5 11.1 144 146 146
-7.6 -23.6 11.2 148 148 148
-7.3 -23.6 11.2 151 151 151
-7.0 -23.6 11.2 154 154 154
-6.8 -23.6 11.2 158 161 160
-6.5 -23.6 11.2 165 165 165
-6.2 -23.5 11.1 167 167 167
-6.0 -23.6 11.2 166 169 168
-5.7 -23.6 11.2 168 170 169
-5.5 -23.6 11.2 170 171 170
-5.2 -23.5 11.1 172 172 172
-5.0 -23.6 11.2 175 175 175
-4.7 -23.6 11.1 175 177 177
-4.4 -23.5 11.1 173 175 175
-4.2 -23.6 11.2 179 179 179
-3.9 -23.6 11.1 178 178 178
-3.7 -23.5 11.1 180 180 180
-3.4 -23.6 11.2 180 180 180
-3.1 -23.6 11.2 180 180 180
-2.9 -23.6 11.2 180 180 180
-2.6 -23.6 11.2 180 180 180
-2.4 -23.6 11.2 181 181 181
-2.1 -23.6 11.2 181 181 181
-1.8 -23.5 11.1 181 181 181
-1.6 -23.5 11.1 181 181 181
-1.3 -23.5 11.1 181 181 181
-1.1 -23.6 11.2 179 179 179
-0.8 -23.6 11.2 181 181 181
-0.6 -23.6 11.2 181 181 181
-0.3 -23.6 11.2 181 181 181
-0.0 -23.5 11.1 180 180 180
5.2 -23.8 11.2 203 203 203
5.4 -23.6 11.2 206 206 206
5.7 -23.6 11.2 206 206 206
5.9 -23.6 11.2 209 209 209
6.2 -23.6 11.2 209 209 209
6.4 -23.6 11.2 209 209 209
6.7 -23.6 11.2 208 208 208
7.0 -23.6 11.2 208 208 208
7.2 -23.6 11.2 208 208 208
7.5 -23.7 11.2 208 208 208
8.8 -23.5 11.1 208 208 208
9.5 -23.5 11.1 208 208 208
9.9 -23.8 11.3 208 208 208
10.1 -23.6 11.2 208 208 208
10.3 -23.6 11.2 208 208 208
10.6 -23.6 11.2 208 208 208
10.8 -23.6 11.1 208 208 208
11.1 -23.6 11.2 208 208 208
11.4 -23.6 11.2 208 208 208
11.6 -23.6 11.2 208 208 208
11.9 -23.6 11.1 211 211 211
12.2 -23.6 11.2 211 211 211
12.4 -23.6 11.2 208 208 208
12.7 -23.6 11.2 208 208 208
12.9 -23.6 11.2 208 208 208
13.2 -23.6 11.2 208 208 208
13.5 -23.6 11.2 208 208 208
13.7 -23.6 11.2 208 208 208
44.0 -68.0 32.2 208 208 208
44.7 -67.9 32.1 208 208 208
50.1 -66.2 31.3 206 206 206
50.6 -65.9 31.2 206 206 206
55.1 -70.6 33.4 206 206 206
54.6 -69.1 32.7 206 206 206
55.5 -69.3 32.8 207 207 207
26.8 -31.8 15.0 205 205 205
26.7 -31.2 14.8 205 205 205
-11.0 -23.6 11.3 122 122 122
-10.8 -23.6 11.3 123 123 123
-9.9 -23.2 11.1 125 125 125
-9.6 -23.3 11.2 126 128 127
-9.4 -23.3 11.2 131 131 131
-9.2 -23.5 11.2 131 134 133
-8.4 -23.5 11.2 154 154 154
-8.1 -23.5 11.2 154 154 154
-7.8 -23.4 11.2 154 154 154
-5.8 -23.5 11.3 176 176 176
-5.5 -23.5 11.2 177 180 179
-3.2 -23.5 11.3 188 188 188
-2.9 -23.5 11.2 188 188 188
-0.8 -23.5 11.3 182 182 182
6.0 -23.5 11.2 208 208 208
6.2 -23.5 11.2 208 208 208
6.5 -23.5 11.2 208 208 208
7.0 -23.5 11.2 208 208 208
7.3 -23.5 11.2 208 208 208
7.5 -23.5 11.2 208 208 208
8.1 -23.5 11.2 208 208 208
8.3 -23.5 11.2 208 208 208
8.6 -23.5 11.3 208 208 208
8.8 -23.4 11.2 208 208 208
9.4 -23.5 11.3 208 208 208
10.2 -23.5 11.3 208 208 208
10.4 -23.5 11.3 208 208 208
10.7 -23.5 11.2 208 208 208
10.9 -23.5 11.2 208 208 208
11.2 -23.5 11.2 208 208 208
11.5 -23.5 11.3 208 208 208
11.7 -23.5 11.2 208 208 208
12.0 -23.5 11.2 208 208 208
12.3 -23.5 11.3 208 208 208
12.5 -23.5 11.3 208 208 208
12.8 -23.5 11.3 208 208 208
13.0 -23.5 11.2 208 208 208
13.3 -23.5 11.3 208 208 208
13.6 -23.6 11.3 208 208 208
13.8 -23.5 11.2 208 208 208
36.1 -55.1 26.3 208 208 208
41.6 -60.5 28.9 208 208 208
43.7 -59.6 28.5 208 208 208
43.6 -58.6 28.0 208 208 208
44.2 -58.6 28.0 205 205 205
48.5 -63.4 30.3 202 202 202
48.0 -61.8 29.6 208 208 208
47.5 -60.3 28.8 206 206 206
27.0 -31.6 15.1 207 207 207
-9.7 -23.2 11.2 112 112 112
-9.4 -23.2 11.2 113 112 111
-9.2 -23.3 11.3 117 119 118
-8.9 -23.3 11.3 146 146 146
-8.7 -23.3 11.3 164 164 164
-8.4 -23.3 11.3 166 166 166
-8.1 -23.3 11.2 165 168 167
-7.9 -23.3 11.3 163 163 163
-7.6 -23.3 11.3 164 167 166
-7.4 -23.4 11.3 173 175 175
-7.1 -23.3 11.3 179 179 179
-6.6 -23.3 11.3 180 183 182
-6.3 -23.3 11.3 190 190 190
-5.8 -23.3 11.3 193 193 193
-5.5 -23.3 11.3 193 193 193
-5.3 -23.3 11.3 194 194 194
-5.0 -23.4 11.3 193 193 193
-4.7 -23.3 11.3 193 193 193
-4.0 -23.3 11.3 192 192 192
-3.7 -23.3 11.3 191 191 191
-3.4 -23.3 11.3 191 191 191
-3.2 -23.3 11.3 191 191 191
-2.9 -23.3 11.3 191 191 191
-2.7 -23.3 11.3 189 189 189
-2.4 -23.3 11.3 189 189 189
-2.1 -23.3 11.3 185 185 185
-1.9 -23.3 11.3 185 185 185
-1.6 -23.3 11.3 185 185 185
-0.8 -23.3 11.3 185 185 185
-0.6 -23.3 11.3 185 185 185
-0.3 -23.3 11.3 184 184 184
-0.0 -23.3 11.3 184 184 184
0.2 -23.4 11.3 184 184 184
1.0 -23.3 11.3 184 184 184
5.5 -23.3 11.3 205 205 205
5.7 -23.3 11.3 208 208 208
6.0 -23.3 11.3 208 208 208
6.3 -23.3 11.3 208 208 208
6.5 -23.3 11.3 208 208 208
6.8 -23.3 11.3 208 208 208
7.0 -23.3 11.3 208 208 208
7.3 -23.3 11.3 208 208 208
7.6 -23.3 11.3 208 208 208
7.8 -23.3 11.3 210 210 210
8.1 -23.3 11.3 210 210 210
8.4 -23.3 11.3 210 210 210
8.6 -23.3 11.3 207 207 207
8.8 -23.2 11.2 207 207 207
9.1 -23.3 11.3 207 207 207
9.4 -23.3 11.3 207 207 207
9.6 -23.3 11.3 207 207 207
10.2 -23.3 11.3 207 207 207
10.5 -23.3 11.3 207 207 207
10.7 -23.3 11.3 207 207 207
11.0 -23.3 11.3 207 207 207
11.2 -23.3 11.3 207 207 207
11.5 -23.3 11.3 207 207 207
11.8 -23.3 11.3 207 207 207
12.0 -23.3 11.3 207 207 207
12.3 -23.3 11.3 207 207 207
12.6 -23.3 11.3 207 207 207
12.8 -23.3 11.3 207 207 207
13.1 -23.3 11.3 207 207 207
13.3 -23.3 11.3 207 207 207
13.6 -23.3 11.3 207 207 207
13.8 -23.3 11.2 207 207 207
35.6 -53.8 26.0 207 207 207
40.4 -58.0 28.1 207 207 207
39.5 -55.9 27.1 207 207 207
42.7 -57.7 27.9 207 207 207
42.6 -56.7 27.4 207 207 207
42.3 -55.5 26.8 208 208 208
45.8 -58.3 28.2 205 205 205
46.2 -57.9 28.0 205 205 205
27.5 -29.8 14.4 205 205 205
27.7 -29.7 14.4 205 205 205
11.5 -29.1 14.2 209 209 209
10.4 -24.7 12.1 207 207 207
10.6 -24.6 12.0 207 207 207
35.5 -53.0 25.9 207 207 207
39.3 -54.9 26.9 207 207 207
42.0 -55.2 27.0 207 207 207
42.3 -54.8 26.8 209 209 209
42.6 -54.4 26.6 204 204 204
26.4 -29.4 14.4 206 206 206
26.7 -29.4 14.4 206 206 206
27.0 -29.4 14.4 207 207 207
27.5 -29.5 14.4 207 207 207
27.6 -29.3 14.3 205 205 205
11.7 -35.2 17.4 211 211 211
14.5 -35.0 17.3 209 209 209
10.4 -24.6 12.2 209 209 209
14.1 -24.6 12.2 209 209 209
14.7 -24.6 12.2 206 206 206
39.3 -54.3 26.9 206 206 206
25.8 -35.1 17.4 206 206 206
42.1 -55.6 27.5 206 206 206
42.5 -55.2 27.3 206 206 206
42.5 -54.5 26.9 209 209 209
42.7 -53.9 26.7 207 207 207
45.0 -55.2 27.3 207 207 207
44.7 -54.1 26.8 207 207 207
46.3 -54.5 26.9 207 207 207
27.6 -29.3 14.5 206 206 206
27.7 -29.1 14.4 206 206 206
976.9 -659.1 326.1 187 189 189
-21.9 -20.0 10.0 47 48 47
-20.8 -20.0 10.0 46 46 46
-18.8 -20.1 10.1 41 41 41
-13.3 -20.0 10.0 61 61 61
11.7 -34.9 17.5 209 209 209
12.0 -34.6 17.3 209 209 209
12.5 -34.9 17.5 209 209 209
12.9 -34.8 17.4 209 209 209
13.3 -34.7 17.4 209 209 209
13.7 -34.7 17.4 209 209 209
14.1 -34.7 17.4 209 209 209
14.5 -34.7 17.4 209 209 209
15.3 -34.7 17.4 209 209 209
17.4 -34.9 17.5 206 206 206
17.7 -34.7 17.4 206 206 206
18.1 -34.6 17.3 206 206 206
19.8 -34.7 17.4 208 208 208
25.8 -34.8 17.4 206 206 206
42.2 -55.0 27.5 206 206 206
42.8 -55.0 27.5 206 206 206
42.7 -54.1 27.1 206 206 206
42.9 -53.5 26.8 206 206 206
45.2 -55.7 27.9 206 206 206
45.2 -54.8 27.4 207 207 207
44.6 -53.4 26.7 207 207 207
45.5 -53.7 26.9 207 207 207
46.3 -53.9 27.0 207 207 207
-28.7 -24.8 12.6 48 48 48
-28.4 -24.8 12.6 51 51 49
-28.1 -24.8 12.6 51 51 49
-22.1 -19.8 10.0 48 48 48
-21.9 -19.8 10.0 48 48 48
-21.7 -19.8 10.0 48 48 48
-26.3 -24.8 12.6 47 47 47
-20.7 -19.8 10.0 47 47 47
-25.8 -24.9 12.6 49 49 49
-13.3 -19.8 10.0 22 25 23
-10.5 -24.7 12.5 34 34 34
8.2 -24.8 12.6 208 208 208
8.4 -24.8 12.6 208 208 208
9.6 -24.9 12.6 208 208 208
9.9 -24.8 12.6 208 208 208
10.2 -24.8 12.6 208 208 208
10.5 -24.8 12.6 208 208 208
10.8 -24.8 12.6 208 208 208
11.1 -24.8 12.6 208 208 208
11.4 -24.8 12.6 208 208 208
11.6 -24.8 12.6 208 208 208
11.9 -24.8 12.5 206 206 206
12.2 -24.8 12.5 206 206 206
12.5 -24.8 12.6 206 206 206
12.8 -24.8 12.6 206 206 206
13.1 -24.9 12.6 206 206 206
14.3 -24.8 12.6 208 208 208
14.5 -24.8 12.5 208 208 208
14.9 -24.8 12.6 208 208 208
15.1 -24.8 12.6 205 205 205
39.0 -52.8 26.7 205 205 205
42.1 -54.3 27.5 205 205 205
43.1 -54.8 27.7 205 205 205
43.1 -54.0 27.3 206 206 206
45.6 -55.5 28.1 206 206 206
45.4 -54.4 27.5 206 206 206
44.5 -52.6 26.6 206 206 206
45.4 -52.9 26.8 206 206 206
46.1 -53.1 26.9 206 206 206
521.6 -333.5 168.9 184 184 184
-28.9 -24.7 12.7 52 52 50
-28.5 -24.7 12.6 52 52 50
-28.1 -24.6 12.6 52 52 50
-22.2 -19.6 10.0 52 52 50
-21.9 -19.5 10.0 49 49 49
-26.4 -24.6 12.6 45 45 45
-20.8 -19.5 10.0 47 48 47
-18.7 -19.6 10.0 42 43 42
-13.3 -19.6 10.0 21 24 22
-11.2 -24.7 12.7 32 32 32
-10.8 -24.5 12.6 33 33 33
-10.5 -24.4 12.5 35 37 36
-10.2 -24.5 12.5 38 38 36
15.0 -24.7 12.6 208 208 208
38.6 -51.5 26.4 207 207 207
41.3 -52.6 26.9 205 205 205
41.6 -52.3 26.8 205 205 205
42.0 -51.9 26.6 208 208 208
45.0 -54.0 27.7 205 205 205
44.2 -52.4 26.8 205 205 205
44.1 -51.5 26.4 206 206 206
44.9 -51.7 26.5 206 206 206
45.2 -51.4 26.3 206 206 206
45.5 -51.0 26.2 206 206 206
28.6 -28.3 14.5 203 203 203
-23.0 -19.8 10.3 53 52 51
-13.4 -19.4 10.1 21 24 22
-12.2 -19.5 10.1 27 27 27
-11.3 -24.6 12.7 32 31 30
-10.9 -24.4 12.7 33 33 33
-10.6 -24.2 12.6 35 37 36
-10.3 -24.4 12.6 41 41 41
-10.1 -24.7 12.8 166 166 166
38.7 -51.1 26.5 207 207 207
41.7 -51.7 26.8 204 204 204
42.1 -51.4 26.7 205 205 205
44.3 -51.8 26.9 205 205 205
44.2 -51.0 26.5 208 208 208
45.1 -51.4 26.6 205 205 205
45.5 -51.1 26.5 205 205 205
45.7 -50.7 26.3 206 206 206
28.8 -28.2 14.6 204 204 204
29.1 -28.1 14.6 204 204 204
-13.4 -19.2 10.1 23 26 24
-12.2 -19.1 10.0 30 29 29
-11.4 -24.5 12.9 25 25 25
-11.0 -24.2 12.7 33 33 33
-10.6 -24.0 12.6 36 36 36
-10.3 -24.0 12.6 44 44 44
-9.9 -24.5 12.9 184 187 186
39.0 -50.9 26.7 206 206 206
41.6 -51.8 27.2 206 206 206
41.9 -51.4 27.0 207 207 207
42.4 -51.2 26.9 204 204 204
44.6 -51.5 27.1 207 207 207
44.6 -50.8 26.7 207 207 207
45.4 -51.1 26.8 207 207 207
45.9 -51.0 26.8 205 205 205
46.1 -50.5 26.5 205 205 205
48.1 -51.3 26.9 205 205 205
48.4 -50.9 26.7 205 205 205
49.1 -51.0 26.8 206 206 206
28.5 -27.9 14.6 206 206 206
28.8 -27.8 14.6 204 204 204
29.2 -27.9 14.6 204 204 204
-29.9 -24.4 13.0 57 57 57
-13.4 -19.0 10.1 24 27 25
-12.2 -19.0 10.1 28 28 28
-11.4 -24.3 12.9 59 61 59
-11.0 -23.9 12.7 60 62 60
-10.6 -23.7 12.6 36 38 37
-10.3 -23.8 12.6 50 50 50
39.5 -51.7 27.5 206 206 206
39.5 -50.8 27.0 206 206 206
42.2 -51.9 27.6 206 206 206
42.8 -51.8 27.5 206 206 206
43.3 -51.7 27.5 206 206 206
47.8 -56.1 29.8 206 206 206
46.4 -53.8 28.6 206 206 206
45.7 -52.2 27.7 207 207 207
45.0 -50.7 26.9 207 207 207
45.8 -50.9 27.1 207 207 207
46.5 -51.0 27.1 207 207 207
46.8 -50.6 26.9 204 204 204
48.2 -51.4 27.3 205 205 205
49.3 -51.9 27.6 205 205 205
31.1 -29.3 15.6 206 206 206
31.4 -29.3 15.6 203 203 203
-35.7 -23.5 12.7 65 65 65
-35.4 -23.6 12.7 65 65 65
-35.1 -23.6 12.7 65 65 65
-34.8 -23.6 12.7 65 65 65
-34.5 -23.6 12.7 65 65 65
-34.2 -23.6 12.7 66 66 66
-33.9 -23.6 12.7 66 66 66
-33.7 -23.6 12.7 66 66 66
-33.3 -23.5 12.7 63 64 62
-33.0 -23.5 12.7 66 66 66
-32.7 -23.6 12.7 63 64 62
-32.5 -23.6 12.7 63 64 62
-32.2 -23.6 12.7 63 64 62
-31.9 -23.6 12.7 63 64 62
-31.6 -23.6 12.7 61 61 61
-31.3 -23.6 12.7 61 61 61
-31.0 -23.6 12.7 61 61 61
-30.7 -23.6 12.7 57 57 57
-30.4 -23.6 12.7 57 57 57
-29.5 -23.6 12.7 58 58 58
-29.3 -23.6 12.7 58 58 58
-29.0 -23.6 12.7 58 58 58
-28.6 -23.6 12.7 58 58 58
-28.3 -23.6 12.7 58 58 58
-28.1 -23.6 12.7 56 55 54
-11.3 -23.6 12.7 27 27 27
-10.9 -23.5 12.7 89 89 89
-10.6 -23.4 12.6 20 20 20
-10.3 -23.4 12.6 51 51 51
-10.1 -23.6 12.7 181 181 181
39.7 -50.4 27.1 206 206 206
42.2 -51.2 27.6 206 206 206
42.8 -51.2 27.5 206 206 206
43.4 -51.1 27.5 206 206 206
48.1 -55.9 30.1 206 206 206
48.0 -54.9 29.6 206 206 206
46.0 -51.9 27.9 206 206 206
45.0 -50.1 26.9 206 206 206
45.8 -50.3 27.1 206 206 206
46.9 -50.7 27.3 206 206 206
46.8 -49.9 26.9 206 206 206
48.2 -50.8 27.3 204 204 204
49.2 -51.2 27.5 204 204 204
29.3 -27.6 14.8 205 205 205
30.9 -28.8 15.5 205 205 205
31.4 -28.9 15.6 203 203 203
32.1 -29.2 15.7 203 203 203
-11.5 -23.7 12.9 50 50 50
-11.0 -23.4 12.7 84 84 84
-10.7 -23.4 12.7 37 38 37
-10.4 -23.4 12.7 52 53 51
-10.3 -23.8 13.0 183 186 185
38.8 -48.7 26.5 205 205 205
41.6 -49.1 26.8 205 205 205
41.9 -48.7 26.5 205 205 205
45.9 -51.1 27.9 206 206 206
44.4 -48.8 26.6 206 206 206
45.3 -49.1 26.8 206 206 206
46.1 -49.3 26.9 206 206 206
46.0 -48.5 26.4 206 206 206
47.0 -48.9 26.6 206 206 206
47.8 -49.1 26.8 206 206 206
47.6 -48.2 26.3 204 204 204
31.4 -28.9 15.7 205 205 205
31.8 -28.9 15.7 205 205 205
32.4 -29.1 15.9 205 205 205
32.6 -29.0 15.8 169 169 169
602.9 -340.3 185.5 177 180 179
-13.3 -18.2 10.0 36 37 35
-11.5 -23.6 13.0 90 92 91
-10.6 -24.1 13.3 183 186 185
-10.3 -24.2 13.4 181 184 183
38.4 -47.7 26.3 205 205 205
41.5 -48.4 26.7 205 205 205
41.7 -47.9 26.4 205 205 205
46.1 -50.7 28.0 205 205 205
44.6 -48.4 26.7 207 207 207
45.3 -48.5 26.8 205 205 205
46.1 -48.7 26.9 205 205 205
46.1 -48.0 26.5 205 205 205
47.1 -48.3 26.7 206 206 206
47.5 -48.1 26.6 206 206 206
47.2 -47.2 26.1 206 206 206
31.8 -28.6 15.8 200 200 200
32.6 -28.9 16.0 202 202 202
32.8 -28.8 15.9 167 167 167
1318.0 -634.6 350.3 128 130 129
1023.0 -489.6 270.2 123 123 123
-37.8 -24.0 13.4 67 67 67
-37.4 -24.0 13.4 67 67 67
-37.2 -24.0 13.4 67 67 67
-36.9 -24.0 13.4 67 67 67
-36.0 -24.0 13.4 67 67 67
-35.5 -23.9 13.4 67 67 67
-32.9 -24.0 13.4 67 68 66
-32.4 -23.9 13.4 67 68 66
-32.2 -24.0 13.4 64 64 64
-31.9 -24.0 13.4 62 62 62
-31.6 -24.0 13.4 62 62 62
-31.3 -24.1 13.5 63 63 63
-30.9 -24.0 13.4 63 63 63
-30.5 -23.9 13.4 63 63 63
-30.3 -24.0 13.4 63 63 63
-13.2 -24.0 13.4 36 35 34
-12.8 -24.0 13.4 124 124 124
-11.6 -23.5 13.1 41 41 41
-10.6 -23.8 13.3 182 185 184
-10.3 -23.9 13.4 181 184 183
-10.0 -23.9 13.3 181 184 183
42.1 -48.4 27.1 204 204 204
41.7 -47.3 26.5 206 206 206
46.3 -50.3 28.1 207 207 207
44.8 -48.0 26.8 207 207 207
45.4 -48.0 26.8 205 205 205
46.4 -48.3 27.0 205 205 205
46.3 -47.6 26.6 205 205 205
47.4 -48.1 26.9 205 205 205
47.4 -47.4 26.5 205 205 205
46.9 -46.3 25.9 205 205 205
234.8 -123.0 68.8 176 176 176
209.1 -108.8 60.8 176 176 176
-38.2 -24.0 13.6 67 67 67
-37.9 -24.0 13.6 67 67 67
-37.6 -24.0 13.6 67 67 67
-37.3 -24.0 13.6 74 74 74
-36.7 -24.0 13.6 71 72 70
-36.3 -23.9 13.6 68 68 68
-35.9 -23.9 13.5 71 72 70
-35.7 -24.0 13.6 71 72 70
-35.5 -24.0 13.6 68 68 68
-33.5 -24.0 13.6 70 70 70
-33.2 -24.0 13.6 67 69 67
-32.9 -24.0 13.6 67 69 67
-32.6 -24.0 13.6 67 69 67
-32.3 -24.0 13.6 63 63 63
-31.9 -24.0 13.6 63 63 63
-31.7 -24.0 13.6 61 61 61
-31.3 -24.0 13.6 64 64 64
-31.0 -24.0 13.6 64 64 64
-30.6 -23.9 13.6 64 64 64
-30.1 -23.8 13.5 62 62 62
-14.0 -24.0 13.6 42 42 42
-13.6 -23.9 13.5 130 130 130
-13.3 -24.0 13.6 37 38 37
-13.0 -24.0 13.6 87 86 84
-11.1 -24.0 13.6 50 50 50
-10.7 -23.7 13.4 183 186 185
-10.4 -23.7 13.4 180 183 182
41.6 -46.6 26.4 206 206 206
44.7 -47.2 26.8 206 206 206
45.5 -47.4 26.9 206 206 206
46.6 -47.9 27.1 207 207 207
46.3 -47.0 26.6 207 207 207
47.5 -47.5 26.9 209 212 211
47.4 -46.8 26.5 207 207 207
47.0 -45.8 25.9 205 205 205
36.7 -32.8 18.6 205 205 205
38.0 -33.6 19.0 205 205 205
37.8 -33.1 18.7 206 206 206
224.2 -115.9 65.7 176 176 176
200.7 -103.1 58.4 176 176 176
-38.7 -24.0 13.8 67 67 67
-38.7 -24.1 13.8 68 68 68
-38.3 -24.1 13.8 71 72 70
-38.0 -24.1 13.8 71 72 70
-36.9 -24.1 13.8 72 73 71
-36.9 -24.2 13.9 72 73 71
-34.1 -24.1 13.8 71 71 71
-33.8 -24.1 13.8 68 70 68
-33.5 -24.1 13.8 71 71 71
-33.2 -24.1 13.8 66 66 66
-32.9 -24.1 13.8 64 64 64
-33.0 -24.5 14.0 64 64 64
-32.7 -24.5 14.1 65 65 65
-32.0 -24.2 13.9 67 67 67
-31.7 -24.2 13.9 65 65 65
-31.4 -24.2 13.9 65 65 65
-14.1 -24.0 13.8 120 120 120
-13.8 -24.0 13.8 135 135 135
-13.5 -23.9 13.7 37 38 37
-13.1 -23.9 13.7 33 34 32
-11.2 -24.0 13.8 48 48 48
-10.8 -23.8 13.6 183 186 185
-10.4 -23.6 13.6 179 182 181
44.9 -46.8 26.9 206 206 206
45.6 -46.9 26.9 206 206 206
47.1 -47.8 27.5 206 206 206
46.8 -46.8 26.9 206 206 206
47.7 -47.1 27.1 206 206 206
48.0 -46.8 26.9 206 206 206
47.3 -45.5 26.1 207 207 207
38.3 -34.3 19.7 205 205 205
38.7 -34.1 19.6 205 205 205
39.3 -34.3 19.7 205 205 205
197.0 -99.9 57.3 176 176 176
-33.2 -24.5 14.3 67 67 67
-32.9 -24.5 14.3 67 67 67
48.5 -47.3 27.5 204 204 204
48.0 -46.2 26.9 204 204 204
46.8 -44.4 25.8 206 206 206
39.7 -35.0 20.4 204 204 204
40.3 -35.1 20.4 204 204 204
40.4 -34.8 20.2 204 204 204
178.4 -88.6 51.5 176 176 176
60.4 -61.3 36.2 207 210 209
57.7 -57.8 34.1 207 210 209
46.5 -43.0 25.4 206 206 206
47.8 -41.6 24.5 207 207 207
177.9 -87.2 51.4 177 177 177
-11.1 -24.9 14.9 182 185 184
-11.3 -26.1 15.6 179 179 179
8.6 -16.8 10.1 208 211 210
9.8 -17.2 10.3 208 211 210
60.3 -60.4 36.1 207 210 209
59.0 -56.7 33.9 207 210 209
59.4 -56.3 33.7 207 210 209
58.9 -55.1 33.0 207 210 209
47.4 -40.1 24.0 207 207 207
47.4 -39.7 23.8 207 207 207
196.4 -95.6 57.1 178 178 178
177.9 -86.0 51.4 178 178 178
-36.6 -25.7 15.6 77 77 77
-36.2 -25.7 15.6 74 75 73
-11.8 -25.3 15.4 183 186 185
-11.5 -25.5 15.5 181 184 183
-11.3 -25.8 15.6 176 176 176
-10.9 -25.7 15.6 157 160 159
62.3 -62.4 37.8 206 209 208
60.2 -59.4 36.0 206 209 208
60.6 -57.4 34.8 207 210 209
60.7 -56.7 34.4 207 210 209
60.2 -55.6 33.7 207 210 209
47.6 -39.8 24.1 206 206 206
48.1 -39.7 24.1 208 211 210
200.1 -96.0 58.2 179 179 179
183.9 -87.6 53.1 179 179 179
-37.6 -25.5 15.7 67 69 67
-37.3 -25.5 15.7 84 85 83
-36.9 -25.5 15.7 52 52 52
-36.5 -25.5 15.7 64 64 64
-36.3 -25.6 15.7 115 117 116
-12.5 -25.6 15.8 188 190 190
-12.1 -25.5 15.7 184 187 186
-11.7 -25.4 15.6 183 183 183
-11.4 -25.6 15.8 177 177 177
-11.1 -25.7 15.8 158 161 160
-10.8 -25.9 15.9 155 158 157
62.8 -62.0 38.1 209 212 211
62.0 -60.3 37.1 209 212 211
63.8 -58.8 36.2 207 210 209
61.0 -55.5 34.1 207 210 209
-37.8 -25.3 15.8 162 162 162
-37.6 -25.4 15.8 145 145 144
-37.2 -25.3 15.8 151 153 153
-36.7 -25.3 15.8 59 59 57
-36.4 -25.3 15.8 41 43 42
-12.7 -25.6 16.0 189 191 191
-12.3 -25.6 16.0 186 188 187
-11.9 -25.5 15.9 184 184 184
-11.5 -25.5 15.9 179 179 179
-11.2 -25.7 16.0 159 162 161
-10.9 -25.8 16.1 156 159 158
-10.5 -25.6 16.0 154 154 154
66.6 -60.5 37.8 206 209 208
-12.6 -25.8 16.4 187 189 189
-12.1 -25.5 16.2 186 188 187
-11.7 -25.5 16.2 182 182 182
-11.4 -25.6 16.2 166 166 166
-11.1 -25.8 16.3 159 162 161
-10.6 -25.6 16.2 156 159 158
68.1 -60.2 38.1 206 209 208
38.3 -27.4 17.4 189 189 189
38.6 -27.3 17.3 189 189 189
78.2 -35.9 22.8 182 182 182
78.3 -35.7 22.6 182 182 182
-12.3 -25.7 16.5 188 188 188
-11.9 -25.6 16.4 181 181 181
-11.5 -25.6 16.4 169 169 169
-11.2 -25.8 16.5 166 166 166
10.1 -16.5 10.6 209 212 211
181.0 -166.3 106.9 208 211 210
72.5 -65.7 42.2 208 211 210
73.2 -65.4 42.0 208 211 210
72.1 -63.6 40.9 209 212 211
38.5 -26.9 17.3 189 189 189
77.9 -35.5 22.8 183 183 183
78.1 -35.4 22.7 183 183 183
78.3 -35.2 22.6 183 183 183
-43.2 -27.6 18.0 29 31 29
-42.4 -27.4 17.9 33 32 30
-41.7 -27.2 17.7 28 28 28
-41.6 -27.4 17.9 26 26 26
-13.3 -15.4 10.0 32 32 32
-11.7 -25.6 16.7 173 173 173
-12.2 -27.6 18.0 167 167 167
229.0 -210.1 137.1 205 208 207
200.3 -181.2 118.2 208 211 210
194.5 -173.6 113.3 208 211 210
41.7 -29.6 19.3 191 191 191
40.3 -28.3 18.5 192 192 192
39.6 -27.5 17.9 189 189 189
39.0 -26.8 17.5 189 189 189
-51.6 -27.9 18.5 69 71 69
-51.2 -27.9 18.5 73 73 73
-50.8 -27.9 18.5 73 73 73
-50.3 -27.9 18.5 70 72 69
-46.5 -27.9 18.5 47 48 47
-46.0 -27.9 18.5 47 48 47
-45.4 -27.8 18.4 48 48 48
-45.1 -27.8 18.4 39 39 39
-44.6 -27.8 18.4 40 42 42
-44.2 -27.8 18.4 46 46 46
-43.7 -27.8 18.4 46 46 46
-43.0 -27.6 18.3 40 42 42
-18.7 -15.1 10.0 67 67 67
-13.3 -15.1 10.0 30 29 29
-12.6 -15.4 10.2 33 34 32
-12.2 -15.2 10.0 33 34 32
-14.1 -27.7 18.4 179 182 181
-13.7 -27.6 18.3 178 181 180
-13.3 -27.8 18.4 177 180 179
-12.9 -27.8 18.4 175 175 175
-12.5 -27.9 18.5 172 172 172
205.4 -183.0 121.3 207 210 209
199.3 -175.2 116.1 208 211 210
323.5 -250.5 165.9 210 213 212
40.1 -27.8 18.4 192 192 192
48.8 -33.1 21.9 192 192 192
78.7 -34.3 22.7 185 185 185
-52.6 -27.8 18.7 64 65 63
-52.5 -27.9 18.8 73 73 73
-52.0 -27.9 18.8 75 75 75
-51.6 -27.9 18.8 81 83 80
-51.1 -27.9 18.8 65 66 64
-47.3 -27.9 18.8 28 28 28
-46.9 -28.0 18.8 24 24 24
-46.3 -27.9 18.8 24 24 24
-45.9 -27.9 18.8 28 28 28
-45.6 -28.0 18.8 36 37 36
-45.0 -27.9 18.8 50 50 50
-44.5 -27.9 18.7 64 64 64
-43.7 -27.6 18.6 64 64 64
-18.6 -14.9 10.0 71 71 71
-13.3 -14.9 10.0 42 42 42
-12.5 -15.0 10.1 40 40 40
-12.1 -14.9 10.0 44 44 44
-13.6 -27.9 18.7 178 181 180
-13.1 -27.9 18.7 177 180 179
198.1 -171.4 115.3 211 211 211
728.8 -562.3 378.3 209 212 211
396.5 -302.3 203.4 209 212 211
78.1 -33.6 22.6 186 186 186
59.3 -24.0 16.2 161 164 163
59.3 -23.9 16.1 158 158 158
59.9 -24.0 16.1 151 151 151
-48.9 -29.0 19.8 35 35 35
-48.4 -29.0 19.8 28 28 28
-47.9 -29.0 19.8 29 31 29
-47.5 -29.0 19.8 54 54 54
-28.1 -29.0 19.8 30 29 29
-27.2 -29.0 19.8 22 25 23
-26.8 -29.0 19.8 32 33 31
-14.7 -16.2 11.0 97 97 97
-14.4 -16.2 11.0 134 134 134
-14.1 -16.2 11.0 150 152 152
-13.6 -16.2 11.0 36 35 34
-13.4 -16.2 11.0 71 72 70
-13.6 -28.4 19.4 178 181 180
-13.2 -28.6 19.5 176 176 176
203.0 -173.0 118.2 207 210 209
207.0 -174.1 119.0 207 210 209
380.2 -285.3 195.0 209 212 211
77.6 -32.8 22.4 188 188 188
78.5 -33.0 22.5 188 188 188
79.4 -33.1 22.7 188 188 188
79.3 -32.9 22.5 185 185 185
61.5 -24.7 16.9 170 171 170
60.2 -24.0 16.4 162 162 162
59.8 -23.7 16.2 158 158 158
60.2 -23.7 16.2 148 150 150
-57.6 -29.4 20.5 35 35 35
-56.7 -29.2 20.3 53 52 52
-56.2 -29.2 20.3 75 75 75
-55.8 -29.3 20.3 86 86 86
-55.3 -29.3 20.3 158 158 158
-55.2 -29.4 20.5 36 37 36
-54.4 -29.3 20.3 29 31 29
-53.9 -29.3 20.3 24 24 24
-53.4 -29.3 20.3 24 24 24
-53.5 -29.5 20.5 28 28 28
-52.8 -29.4 20.4 36 37 36
-52.2 -29.4 20.4 58 59 59
-51.7 -29.3 20.4 152 152 152
-51.1 -29.3 20.3 153 153 153
-50.6 -29.3 20.3 54 54 54
-50.1 -29.2 20.3 154 156 156
-49.6 -29.3 20.3 178 181 180
-49.2 -29.3 20.3 178 181 180
-48.7 -29.2 20.3 123 125 124
-48.1 -29.2 20.3 79 81 79
-47.9 -29.3 20.4 75 76 76
-47.3 -29.3 20.3 68 68 68
-46.8 -29.3 20.3 130 130 130
-46.3 -29.3 20.3 172 172 172
-45.9 -29.3 20.3 156 159 158
-45.4 -29.3 20.3 189 191 191
-44.9 -29.3 20.3 181 184 183
-44.5 -29.3 20.3 210 210 210
-44.0 -29.3 20.3 211 211 211
-43.5 -29.3 20.3 188 188 188
-43.0 -29.3 20.3 207 210 209
-42.6 -29.3 20.3 212 213 212
-42.4 -29.4 20.5 214 216 216
-41.6 -29.2 20.3 172 172 172
-41.2 -29.3 20.3 174 174 174
-40.8 -29.3 20.4 161 164 163
-40.2 -29.3 20.3 143 143 142
-39.7 -29.2 20.3 167 167 167
-39.2 -29.2 20.3 209 209 209
-38.8 -29.3 20.3 210 210 210
-38.4 -29.3 20.4 182 185 184
-37.9 -29.3 20.3 180 183 182
-37.4 -29.3 20.3 205 208 207
-36.8 -29.2 20.3 225 225 225
-36.4 -29.2 20.3 185 185 185
-36.0 -29.3 20.3 112 112 112
-35.5 -29.3 20.3 161 161 161
-34.9 -29.2 20.3 182 185 184
-34.5 -29.2 20.3 175 175 175
-34.1 -29.3 20.3 182 185 184
-33.6 -29.3 20.3 219 219 219
-33.1 -29.3 20.3 210 210 210
-32.6 -29.3 20.3 211 211 211
-32.2 -29.3 20.3 139 139 139
-31.7 -29.3 20.3 45 45 45
-31.2 -29.3 20.3 52 52 52
-30.8 -29.3 20.3 65 65 65
-30.3 -29.3 20.3 82 83 81
-29.8 -29.3 20.3 96 96 96
-29.3 -29.3 20.3 106 106 106
-28.9 -29.3 20.3 104 104 104
-28.4 -29.3 20.3 25 25 25
-27.9 -29.3 20.3 46 46 46
-27.4 -29.2 20.3 90 92 91
-27.0 -29.3 20.3 8 9 8
-26.5 -29.2 20.3 25 25 25
-26.1 -29.3 20.4 60 60 60
-25.7 -29.4 20.5 105 105 105
-25.1 -29.3 20.4 43 43 43
-24.4 -29.0 20.1 77 78 76
-23.7 -28.7 19.9 31 32 30
-14.7 -29.3 20.4 167 167 167
-13.8 -28.5 19.8 169 171 170
-13.3 -28.4 19.7 177 177 177
-13.0 -29.8 20.7 30 29 29
204.5 -169.2 117.5 207 210 209
347.5 -283.7 197.0 207 210 209
479.4 -358.4 248.9 209 212 211
396.5 -292.9 203.4 209 212 211
77.6 -32.3 22.4 190 190 190
78.3 -32.3 22.5 190 190 190
79.6 -32.7 22.7 190 190 190
80.2 -32.7 22.7 190 190 190
79.0 -32.0 22.2 186 186 186
61.1 -24.0 16.7 161 161 161
60.1 -23.4 16.3 156 156 156
60.3 -23.4 16.2 150 152 152
-58.4 -29.4 20.7 26 26 26
-58.1 -29.5 20.8 32 31 30
-57.6 -29.5 20.8 95 95 95
-57.1 -29.5 20.8 152 152 152
-56.6 -29.4 20.8 9 14 10
-56.1 -29.4 20.8 28 28 28
-55.7 -29.5 20.8 19 23 20
-55.1 -29.4 20.8 24 24 24
-54.7 -29.5 20.8 24 24 24
-54.3 -29.5 20.8 28 28 28
-53.7 -29.4 20.8 36 37 36
-53.2 -29.4 20.8 60 60 60
-52.7 -29.4 20.8 170 171 170
-52.3 -29.5 20.8 185 185 185
-51.8 -29.4 20.8 179 182 181
-51.3 -29.5 20.8 149 149 149
-50.8 -29.4 20.8 183 183 183
-50.3 -29.4 20.8 178 181 180
-49.8 -29.4 20.8 155 158 157
-49.1 -29.6 20.9 150 150 150
-48.4 -29.5 20.8 68 68 68
-47.9 -29.4 20.8 81 83 80
-47.4 -29.4 20.8 193 193 193
-46.9 -29.4 20.8 200 200 200
-46.4 -29.4 20.8 163 163 163
-46.0 -29.4 20.8 88 90 89
-44.6 -29.5 20.8 124 126 125
-44.0 -29.4 20.8 98 98 98
-43.6 -29.5 20.8 64 64 64
-43.1 -29.4 20.8 66 67 65
-42.5 -29.4 20.8 71 72 70
-42.1 -29.5 20.8 75 76 76
-41.7 -29.5 20.8 60 60 60
-41.1 -29.4 20.8 41 43 42
-40.2 -29.4 20.8 168 168 168
-39.7 -29.4 20.8 137 139 138
-39.2 -29.5 20.8 176 179 178
-38.7 -29.4 20.8 112 114 113
-38.2 -29.4 20.8 74 74 74
-37.7 -29.4 20.8 140 142 141
-36.3 -29.5 20.8 198 198 198
-35.8 -29.4 20.8 231 231 231
-35.3 -29.4 20.8 239 239 239
-34.4 -29.4 20.8 219 219 219
-33.9 -29.4 20.8 229 229 229
-33.4 -29.4 20.8 213 215 215
-32.9 -29.4 20.8 214 216 216
-32.4 -29.4 20.8 143 145 144
-31.0 -29.4 20.8 19 23 20
-30.0 -29.4 20.8 31 32 30
-29.5 -29.4 20.8 116 118 117
-29.1 -29.4 20.8 31 32 30
-28.6 -29.4 20.8 106 106 106
-28.1 -29.4 20.8 30 29 29
-27.6 -29.5 20.8 31 32 30
-27.1 -29.4 20.8 118 120 119
-26.7 -29.5 20.8 147 147 147
-26.2 -29.5 20.8 59 59 59
-25.7 -29.4 20.8 40 40 40
-15.0 -29.4 20.8 168 168 168
-14.3 -29.0 20.5 168 168 168
-13.7 -29.7 21.0 139 141 140
-13.2 -29.6 20.9 34 34 34
520.5 -382.8 270.2 208 211 210
77.9 -32.1 22.7 192 195 194
77.6 -31.7 22.4 191 191 191
78.1 -31.7 22.4 191 191 191
79.2 -32.0 22.6 191 191 191
80.1 -32.1 22.7 191 191 191
79.5 -31.7 22.4 188 188 188
61.7 -23.8 16.8 161 161 161
60.8 -23.3 16.5 156 156 156
60.8 -23.2 16.3 152 152 152
61.6 -23.3 16.5 146 146 146
-15.3 -29.4 21.1 171 173 173
-14.5 -28.8 20.7 182 185 184
-13.9 -29.5 21.2 179 179 179
-13.3 -29.4 21.1 115 115 115
-12.7 -29.1 20.9 29 29 29
167.8 -129.2 92.7 207 210 209
77.2 -31.3 22.5 193 196 195
77.3 -31.1 22.3 192 192 192
77.7 -31.1 22.3 192 192 192
78.4 -31.2 22.4 192 192 192
80.0 -31.6 22.7 192 192 192
79.7 -31.3 22.4 192 192 192
79.4 -30.9 22.2 185 185 185
61.5 -23.2 16.7 154 154 154
61.6 -23.1 16.6 152 152 152
62.4 -23.2 16.7 141 143 142
63.5 -23.5 16.9 134 134 134
-15.8 -30.0 21.9 183 183 183
-14.2 -29.8 21.8 177 177 177
-13.6 -29.5 21.5 168 168 168
-13.1 -29.5 21.5 27 26 25
297.9 -231.4 168.9 206 209 208
270.4 -207.3 151.3 206 209 208
242.8 -183.8 134.2 206 209 208
316.4 -233.5 170.4 207 210 209
301.3 -219.6 160.3 207 210 209
78.1 -31.2 22.7 194 197 196
78.0 -30.9 22.5 194 197 196
78.2 -30.7 22.4 194 197 196
81.4 -31.6 23.1 193 193 193
80.5 -31.0 22.7 190 190 190
80.0 -30.6 22.4 186 186 186
79.7 -30.3 22.2 178 181 180
62.5 -23.0 16.8 141 140 139
63.3 -23.2 16.9 130 130 130
64.2 -23.4 17.1 132 135 134
-15.4 -30.7 22.8 179 179 179
-14.6 -30.0 22.3 173 175 175
300.5 -229.5 170.4 210 210 210
277.0 -208.8 155.1 210 210 210
237.8 -176.9 131.4 211 211 211
256.9 -188.7 140.1 211 211 211
308.1 -223.5 165.9 211 211 211
289.1 -207.1 153.8 211 211 211
333.2 -227.5 168.9 208 211 210
80.9 -31.7 23.5 195 198 197
79.6 -31.0 23.0 195 198 197
79.0 -30.5 22.7 194 194 194
79.7 -30.6 22.7 194 194 194
83.4 -31.8 23.6 195 198 197
81.3 -30.8 22.9 188 188 188
81.3 -30.6 22.7 181 184 183
81.6 -30.5 22.7 177 177 177
65.0 -23.4 17.4 134 137 136
65.5 -23.5 17.4 132 135 134
-18.2 -33.3 25.1 184 184 184
-15.8 -30.8 23.3 179 179 179
-15.1 -30.5 23.1 166 166 166
227.2 -177.6 134.2 209 209 209
227.1 -175.1 132.3 209 209 209
238.6 -181.4 137.1 209 209 209
262.0 -194.1 146.6 210 210 210
237.8 -173.9 131.4 210 210 210
240.8 -173.9 131.4 211 211 211
274.4 -195.6 147.8 211 211 211
269.4 -189.7 143.3 211 211 211
253.5 -176.3 133.2 212 213 212
338.3 -229.7 173.5 216 216 216
298.5 -200.3 151.3 212 213 212
325.5 -215.8 163.1 214 214 214
318.3 -208.6 157.6 214 214 214
286.2 -185.5 140.1 209 212 211
81.8 -31.3 23.6 180 183 182
84.5 -31.7 23.9 182 185 184
83.9 -31.3 23.6 180 183 182
85.1 -31.3 23.6 168 168 168
86.3 -31.5 23.8 165 165 165
67.1 -23.6 17.8 136 138 137
-24.0 -13.0 10.0 99 99 99
-23.8 -13.0 10.0 45 45 45
-17.4 -13.2 10.1 157 157 157
-15.0 -13.1 10.0 77 78 76
-14.7 -13.0 10.0 105 105 103
-14.5 -13.0 10.0 113 115 114
-14.2 -13.0 10.0 85 87 87
-18.4 -33.2 25.5 183 183 183
-17.7 -32.9 25.3 182 182 182
-17.1 -34.1 26.2 90 92 91
-16.5 -34.1 26.2 86 86 86
-15.8 -33.9 26.1 57 59 59
222.5 -170.8 131.4 211 211 211
221.0 -167.3 128.7 212 213 212
230.2 -172.0 132.3 209 209 209
254.1 -184.9 142.2 210 210 210
237.8 -170.8 131.4 210 210 210
235.9 -167.3 128.7 210 210 210
252.7 -177.0 136.1 211 211 211
254.0 -175.7 135.1 211 211 211
246.6 -168.5 129.6 211 211 211
326.3 -217.7 167.4 212 213 212
268.5 -177.0 136.1 212 213 212
279.7 -182.2 140.1 214 214 214
303.1 -195.2 150.1 214 214 214
270.2 -172.0 132.3 217 217 217
255.4 -160.8 123.6 209 212 211
82.5 -31.0 23.9 181 184 183
85.1 -31.3 24.1 173 173 173
86.7 -31.3 24.1 152 152 152
87.6 -31.5 24.2 138 140 139
68.5 -23.7 18.2 134 134 134
-25.2 -13.3 10.4 58 58 58
-24.9 -13.3 10.4 38 38 38
-23.8 -13.3 10.4 29 31 29
-23.5 -13.3 10.4 165 168 167
-16.3 -13.3 10.4 83 83 83
-16.0 -13.3 10.4 25 25 25
-15.8 -13.3 10.4 53 52 52
-15.5 -13.3 10.4 27 29 27
-15.3 -13.3 10.4 26 26 26
-15.1 -13.3 10.4 18 22 19
-14.8 -13.3 10.4 27 29 27
-14.5 -13.3 10.4 124 126 125
-14.3 -13.3 10.4 26 26 26
-18.9 -33.4 26.2 190 192 192
-18.4 -33.5 26.2 178 181 180
-18.0 -33.9 26.5 134 137 136
-17.3 -33.7 26.4 90 90 90
-16.8 -34.1 26.7 85 85 85
-16.2 -34.1 26.7 55 55 55
-15.3 -33.6 26.3 112 112 112
237.8 -167.8 131.4 210 210 210
240.8 -167.8 131.4 210 210 210
268.1 -184.4 144.4 211 211 211
254.0 -172.6 135.1 211 211 211
477.9 -305.8 239.4 212 213 212
341.0 -215.7 168.9 214 214 214
272.1 -170.1 133.2 214 214 214
88.4 -31.4 24.6 136 136 136
89.4 -31.5 24.7 131 134 133
70.2 -24.0 18.8 129 129 129
69.5 -23.6 18.5 129 129 129
-28.5 -14.9 11.9 38 38 38
-28.2 -14.9 11.9 39 41 41
-26.8 -14.9 11.9 163 166 165
-17.7 -14.9 11.9 35 35 35
-18.4 -32.9 26.3 178 178 178
-17.3 -33.2 26.5 94 94 94
-16.7 -33.3 26.5 88 90 89
-16.2 -33.4 26.6 73 75 75
-15.3 -32.9 26.3 115 114 114
347.7 -234.8 187.3 214 214 214
589.9 -370.6 295.6 212 213 212
415.2 -257.8 205.6 214 214 214
304.2 -186.8 148.9 208 211 210
90.3 -31.5 25.1 115 117 116
90.5 -31.3 25.0 119 119 119
91.1 -31.3 25.0 122 122 122
71.5 -24.0 19.1 122 122 122
70.7 -23.6 18.8 123 123 123
72.1 -23.9 19.0 126 126 126
71.8 -23.6 18.8 129 129 129
-28.4 -14.6 11.8 36 37 36
-28.0 -14.5 11.8 29 30 28
-27.8 -14.6 11.8 25 25 25
-27.2 -14.5 11.8 17 21 18
-26.9 -14.5 11.8 24 24 24
-26.6 -14.5 11.8 146 146 146
-64.5 -36.7 29.8 130 130 130
-17.9 -14.6 11.8 27 28 26
-17.6 -14.5 11.8 113 115 114
-17.3 -14.5 11.8 61 61 61
-17.6 -33.1 26.9 90 92 91
-16.9 -32.9 26.8 90 92 91
-16.3 -33.1 26.9 81 84 83
-15.5 -32.6 26.5 77 77 77
341.0 -226.0 183.7 214 214 214
755.1 -465.6 378.3 218 218 218
439.0 -267.6 217.4 219 219 219
49.2 -25.6 20.8 206 206 206
48.0 -24.7 20.1 206 206 206
92.4 -31.6 25.7 107 109 109
91.5 -31.1 25.3 112 112 112
92.2 -31.1 25.3 113 114 113
72.5 -23.6 19.1 117 119 118
72.6 -23.4 19.0 132 132 132
-85.3 -36.6 30.3 79 81 79
-84.6 -36.6 30.3 96 96 96
-83.9 -36.6 30.3 157 156 154
-83.1 -36.5 30.3 100 99 97
-82.5 -36.6 30.3 144 146 146
-81.8 -36.6 30.3 166 166 166
-80.9 -36.5 30.2 205 208 207
-80.0 -36.4 30.2 141 141 141
-79.7 -36.6 30.3 195 195 195
-79.0 -36.6 30.3 198 198 198
-77.9 -36.4 30.2 123 123 123
-77.3 -36.5 30.2 67 68 66
-76.6 -36.5 30.2 72 72 72
-76.2 -36.6 30.3 74 74 74
-74.3 -36.7 30.4 72 72 72
-73.3 -36.5 30.3 58 59 59
-72.4 -36.5 30.2 39 41 41
-71.8 -36.5 30.3 29 30 28
-71.1 -36.5 30.3 24 24 24
-70.7 -36.7 30.4 15 15 15
-69.8 -36.6 30.3 17 21 18
-69.1 -36.6 30.3 25 25 25
-68.1 -36.4 30.2 120 120 120
-67.5 -36.5 30.2 146 148 148
-67.2 -36.7 30.4 121 121 121
-66.4 -36.7 30.4 147 149 149
-65.1 -36.3 30.1 137 139 138
-64.9 -36.6 30.3 183 186 185
-64.2 -36.6 30.3 138 140 139
-63.3 -36.5 30.2 147 147 147
-62.6 -36.5 30.2 147 147 147
-62.0 -36.5 30.3 153 153 153
-61.5 -36.7 30.4 112 112 112
-60.7 -36.6 30.3 90 90 90
-59.8 -36.5 30.2 34 34 34
-59.4 -36.7 30.4 25 25 25
-58.5 -36.5 30.3 39 41 41
-57.8 -36.5 30.3 47 47 47
-57.1 -36.5 30.3 43 42 41
-56.4 -36.5 30.3 16 16 16
-55.8 -36.6 30.3 43 42 41
-55.0 -36.6 30.3 56 55 54
-52.3 -36.7 30.4 53 52 52
-51.6 -36.7 30.4 51 51 51
-50.9 -36.7 30.4 48 48 48
-50.0 -36.5 30.3 47 47 47
-49.3 -36.5 30.3 34 34 34
-48.8 -36.7 30.4 25 25 25
-48.1 -36.7 30.4 23 23 23
-47.2 -36.5 30.3 82 83 81
-46.7 -36.7 30.4 27 28 26
-46.0 -36.7 30.4 27 28 26
-45.3 -36.7 30.4 31 30 29
-44.5 -36.6 30.3 25 25 25
-21.1 -36.4 30.1 170 171 170
-20.1 -35.9 29.7 132 132 132
-19.3 -35.6 29.5 95 95 95
-18.8 -36.0 29.8 88 90 89
-18.2 -36.2 30.0 64 63 61
-18.0 -37.1 30.8 59 59 59
-17.1 -36.7 30.4 32 32 32
325.2 -211.5 175.2 214 214 214
755.1 -456.8 378.3 216 216 216
49.0 -25.0 20.7 206 206 206
47.9 -24.2 20.0 207 207 207
47.0 -23.5 19.5 195 195 195
94.6 -31.7 26.3 106 106 106
94.1 -31.2 25.8 109 111 111
72.6 -23.0 19.0 155 155 155
-87.0 -36.6 30.9 104 104 104
-86.9 -36.8 31.1 152 152 152
-86.1 -36.8 31.1 44 44 44
-85.4 -36.8 31.1 108 108 108
-84.7 -36.8 31.1 168 168 168
-84.0 -36.8 31.1 209 209 209
-83.1 -36.8 31.1 169 169 169
-82.3 -36.7 31.0 183 183 183
-81.8 -36.8 31.1 189 191 191
-81.1 -36.8 31.1 199 199 199
-80.2 -36.8 31.1 184 183 181
-79.5 -36.8 31.1 72 72 72
-78.8 -36.8 31.1 74 74 74
-78.1 -36.8 31.1 72 72 72
-77.5 -36.8 31.1 75 77 75
-76.9 -36.9 31.2 77 79 77
-76.0 -36.8 31.1 75 77 75
-75.3 -36.8 31.1 65 65 65
-74.5 -36.8 31.1 36 37 36
-73.9 -36.8 31.1 27 27 27
-73.1 -36.8 31.1 27 27 27
-72.4 -36.8 31.1 24 24 24
-71.7 -36.8 31.1 19 23 20
-71.0 -36.8 31.1 25 25 25
-69.9 -36.7 31.0 112 112 112
-69.3 -36.7 31.0 149 151 151
-68.9 -36.9 31.2 147 147 147
-68.1 -36.8 31.1 147 147 147
-66.9 -36.6 30.9 145 145 144
-66.7 -36.9 31.2 153 153 153
-65.9 -36.8 31.1 136 138 137
-64.7 -36.6 30.9 119 119 119
-64.2 -36.7 31.0 126 129 128
-63.6 -36.8 31.1 136 138 137
-63.0 -36.8 31.1 126 128 127
-62.3 -36.8 31.1 98 98 98
-61.5 -36.8 31.1 35 35 35
-60.8 -36.8 31.1 39 41 41
-60.1 -36.8 31.1 51 51 51
-59.4 -36.8 31.1 48 48 48
-58.6 -36.8 31.1 45 45 45
-57.9 -36.8 31.1 18 22 19
-57.2 -36.8 31.1 45 45 45
-56.5 -36.8 31.1 56 55 54
-55.8 -36.8 31.1 56 55 54
-54.7 -36.6 30.9 53 52 52
-54.3 -36.8 31.1 53 52 52
-53.6 -36.8 31.1 53 52 52
-52.9 -36.8 31.1 53 52 52
-52.2 -36.8 31.1 53 52 52
-51.4 -36.8 31.1 48 48 48
-50.7 -36.8 31.1 39 41 41
-50.0 -36.8 31.1 27 28 26
-49.3 -36.8 31.1 27 28 26
-48.5 -36.8 31.1 83 85 85
-47.8 -36.8 31.1 38 38 38
-47.1 -36.8 31.1 57 57 57
-46.4 -36.8 31.1 90 90 90
-45.6 -36.8 31.1 140 140 140
-44.9 -36.8 31.1 126 126 126
-21.4 -36.2 30.6 175 175 175
-20.5 -35.9 30.3 128 131 130
-20.3 -36.8 31.1 98 98 98
-19.4 -36.4 30.7 93 93 93
-18.7 -36.4 30.8 84 84 84
-18.2 -37.0 31.2 35 34 33
319.3 -203.6 172.0 214 214 214
639.9 -379.7 320.6 216 216 216
47.6 -23.6 19.9 207 207 207
46.7 -22.9 19.3 198 198 198
52.3 -16.9 14.2 105 105 105
-31.5 -15.1 13.0 104 103 101
-31.2 -15.1 13.0 104 103 101
-30.8 -15.1 13.0 105 105 105
-30.5 -15.1 13.0 102 101 99
-30.3 -15.1 13.0 77 79 77
-30.0 -15.1 13.0 38 38 38
-29.6 -15.1 13.0 13 13 13
-29.3 -15.1 13.0 101 100 98
-29.0 -15.2 13.1 160 160 160
-28.6 -15.2 13.1 143 143 142
-28.2 -15.1 13.0 169 171 170
-27.8 -15.1 13.0 124 127 126
-27.5 -15.1 13.0 98 98 98
-23.4 -15.2 13.1 59 59 59
-22.9 -15.0 13.0 57 56 55
-22.6 -15.0 12.9 57 56 55
-21.8 -15.1 13.0 59 59 59
-21.5 -15.1 13.0 59 59 59
-21.2 -15.1 13.0 49 49 49
-20.9 -15.1 13.0 23 23 23
-20.5 -15.1 13.0 23 23 23
-20.3 -15.1 13.0 39 41 41
-20.0 -15.1 13.0 52 52 52
-19.6 -15.1 13.0 34 34 34
-19.4 -15.1 13.0 25 25 25
-22.7 -41.7 36.0 95 95 95
328.2 -205.2 176.8 216 216 216
609.0 -354.2 305.1 221 221 221
52.7 -16.7 14.4 98 98 98
53.0 -16.7 14.4 90 90 90
-33.5 -16.4 14.4 144 144 144
-33.2 -16.4 14.4 146 146 146
-32.8 -16.4 14.4 122 122 122
-33.0 -16.6 14.6 121 121 121
-32.5 -16.6 14.6 165 168 167
-31.5 -16.2 14.2 176 179 178
-25.6 -16.5 14.5 66 66 66
-24.5 -16.4 14.4 66 66 66
-24.2 -16.4 14.4 57 56 55
-23.8 -16.4 14.4 39 41 41
-23.5 -16.4 14.4 172 174 174
-23.2 -16.4 14.4 220 220 220
-22.8 -16.4 14.4 215 218 217
-22.5 -16.4 14.4 220 220 220
-11.6 -13.8 12.1 31 31 31
-23.1 -41.7 36.7 95 95 95
-22.2 -41.6 36.6 85 85 85
362.0 -221.9 195.0 216 216 216
755.1 -430.4 378.3 218 218 218
53.1 -16.5 14.5 85 85 85
53.7 -16.5 14.5 71 71 71
-34.6 -16.1 14.4 162 165 164
-34.3 -16.1 14.5 162 162 162
-34.0 -16.1 14.5 164 164 164
-33.6 -16.1 14.4 188 188 188
-33.3 -16.1 14.4 183 186 185
-32.9 -16.1 14.4 144 144 144
-32.9 -16.2 14.6 6 11 7
-32.5 -16.2 14.6 6 6 6
-31.8 -16.0 14.4 6 11 7
-31.5 -16.1 14.4 33 32 30
-31.3 -16.1 14.5 78 80 78
-30.9 -16.1 14.4 135 135 135
-30.6 -16.1 14.5 138 140 139
-30.3 -16.1 14.5 17 21 18
-29.9 -16.1 14.5 39 39 39
-29.2 -16.1 14.4 27 27 27
-26.1 -16.2 14.5 165 168 167
-25.6 -16.1 14.5 85 87 87
-25.2 -16.1 14.4 54 54 54
-24.9 -16.1 14.4 91 91 91
-24.6 -16.1 14.5 147 147 147
-24.2 -16.1 14.5 126 126 126
-23.9 -16.1 14.5 169 169 169
-23.6 -16.1 14.5 228 228 228
-23.2 -16.1 14.5 230 230 230
-22.8 -16.1 14.4 230 230 230
-22.5 -16.1 14.4 228 228 228
-22.2 -16.1 14.5 226 226 226
-17.0 -16.3 14.6 32 32 32
-25.7 -43.8 39.3 92 92 92
-24.0 -42.4 38.1 95 98 97
-23.6 -44.9 40.3 25 25 23
369.7 -221.9 199.1 219 219 219
770.5 -430.2 386.0 218 218 218
53.1 -16.1 14.5 79 81 80
53.8 -16.2 14.6 73 73 73
54.2 -16.3 14.6 73 73 73
-34.1 -16.0 14.6 97 96 94
-32.9 -16.1 14.7 20 23 21
-32.0 -15.8 14.5 17 21 18
-26.5 -16.1 14.8 79 81 79
-26.0 -16.0 14.7 60 60 60
-25.4 -15.9 14.5 99 99 99
-25.2 -15.9 14.6 197 200 199
-24.9 -16.0 14.6 212 213 212
-24.5 -16.0 14.6 214 214 214
-23.6 -16.0 14.7 235 235 235
-23.2 -16.0 14.6 232 232 232
-17.2 -16.1 14.8 80 83 82
-12.1 -13.5 12.3 29 29 27
-26.7 -44.5 40.8 96 99 98
-24.4 -43.8 40.2 112 112 112
-23.8 -44.5 40.8 26 25 24
354.7 -208.5 191.1 219 219 219
52.7 -15.7 14.4 80 83 82
53.2 -15.7 14.4 75 76 76
53.2 -15.6 14.3 75 76 76
53.1 -15.5 14.2 77 77 77
-33.3 -15.9 14.9 29 31 29
-27.0 -16.1 15.1 190 190 190
-22.5 -13.6 12.7 128 131 130
-24.7 -15.7 14.7 105 105 105
-20.6 -13.3 12.4 206 209 208
-18.3 -16.5 15.4 77 77 77
-17.5 -16.1 15.0 53 53 53
-12.1 -13.2 12.3 30 30 30
-11.6 -13.0 12.1 30 30 30
-25.6 -46.9 43.9 14 14 14
-24.8 -47.3 44.3 25 25 23
52.5 -15.1 14.1 78 78 78
52.4 -15.0 14.0 79 82 81
-34.7 -16.1 15.4 8 9 8
-34.1 -15.9 15.3 36 36 36
-28.2 -16.2 15.5 227 227 227
-27.5 -16.0 15.4 222 222 222
-21.2 -12.7 12.2 206 206 206
-20.2 -12.7 12.2 220 220 220
-19.9 -12.7 12.2 227 227 227
-18.4 -16.2 15.5 103 103 103
-17.9 -16.0 15.3 77 77 77
-13.6 -12.7 12.2 91 91 91
-12.0 -12.8 12.2 31 31 31
-11.6 -12.7 12.1 32 32 32
-28.5 -49.0 46.9 112 111 110
-27.8 -49.8 47.6 13 17 14
25.3 -16.0 15.4 217 217 217
52.3 -14.6 14.0 79 82 81
51.8 -14.4 13.8 79 82 81
-34.7 -15.7 15.4 39 39 39
-34.0 -15.6 15.2 57 57 55
-28.1 -15.8 15.5 231 231 231
-27.5 -15.6 15.3 231 231 231
-18.4 -15.8 15.5 42 42 42
-17.8 -15.6 15.3 62 64 61
-10.0 -10.2 10.0 31 31 31
-12.0 -12.5 12.2 31 31 31
-11.5 -12.3 12.1 31 31 31
-34.5 -58.0 56.8 112 111 110
25.3 -15.7 15.3 218 221 220
365.8 -201.3 197.0 219 219 219
673.7 -333.1 326.1 218 218 218
52.2 -14.3 14.0 79 82 81
51.7 -14.0 13.7 81 84 83
-35.6 -56.4 56.5 101 101 101
-34.4 -56.5 56.6 113 114 113
25.6 -15.7 15.8 218 221 220
25.4 -15.4 15.4 218 221 220
662.3 -320.0 320.6 218 218 218
449.0 -214.6 215.0 183 183 183
-37.9 -60.9 62.4 113 114 113
-42.1 -65.9 69.3 112 112 112
-44.2 -72.0 75.7 27 27 27
-40.8 -69.2 72.8 20 20 20
-38.2 -67.7 71.1 153 153 153
25.6 -15.0 15.8 218 221 220
25.3 -14.6 15.4 218 221 220
292.9 -80.0 84.1 58 58 58
-11.4 -11.1 12.0 34 34 34
-11.0 -10.9 11.8 31 31 31
-44.9 -68.6 73.9 111 111 111
-45.8 -72.9 78.5 23 24 23
-41.9 -69.4 74.8 26 25 24
-40.0 -69.1 74.5 172 174 174
25.3 -14.2 15.3 218 221 220
814.1 -365.9 394.1 221 221 221
-10.8 -10.5 11.6 34 34 34
-49.3 -76.4 84.4 27 27 27
-45.1 -72.9 80.5 26 25 24
-43.3 -72.9 80.5 168 168 168
13.5 -9.4 10.4 218 221 220
24.8 -13.4 14.8 218 221 220
640.6 -280.7 310.1 221 221 221
-10.3 -10.0 11.3 36 37 36
-53.1 -80.2 90.9 29 29 29
24.1 -13.3 15.1 220 223 222
23.4 -12.7 14.4 218 221 220
24.4 -12.9 14.6 217 217 217
24.4 -12.7 14.4 220 223 222
651.3 -278.1 315.3 218 218 218
-10.3 -9.8 11.4 37 40 39
-198.5 -331.5 386.0 180 183 182
24.1 -12.9 15.1 220 223 222
23.5 -12.4 14.5 220 223 222
24.8 -12.9 15.1 220 223 222
24.4 -12.5 14.6 218 221 220
24.5 -12.4 14.4 222 224 224
685.5 -285.0 331.9 220 220 220
-10.3 -9.5 11.3 37 40 39
-221.0 -329.3 394.1 20 20 20
24.1 -12.6 15.0 220 223 222
23.6 -12.1 14.5 220 223 222
25.1 -12.7 15.2 220 223 222
24.6 -12.1 14.5 222 224 224
42.6 -15.0 18.0 203 203 203
24.0 -12.2 15.0 220 223 222
25.1 -12.4 15.2 222 224 224
24.8 -12.1 14.8 222 224 224
27.1 -12.6 15.5 222 224 224
673.7 -264.9 326.1 220 223 222
44.0 -15.2 18.8 203 203 203
42.3 -14.5 17.9 203 203 203
24.1 -11.9 15.1 220 223 222
25.6 -12.2 15.5 222 224 224
25.0 -11.8 14.9 222 224 224
26.5 -12.4 15.7 222 224 224
27.4 -12.6 15.9 222 224 224
27.2 -12.3 15.6 222 224 224
27.4 -12.2 15.5 222 224 224
44.0 -14.8 18.7 203 203 203
-34.7 -11.8 15.4 74 75 73
24.2 -11.6 15.1 222 224 224
25.3 -11.7 15.3 222 224 224
27.5 -12.2 16.0 222 224 224
27.2 -12.0 15.6 222 224 224
27.0 -11.7 15.3 222 224 224
182.3 -64.7 84.4 195 195 195
163.1 -57.3 74.8 195 195 195
44.0 -14.4 18.8 202 202 202
-35.0 -11.5 15.5 77 77 77
24.3 -11.3 15.2 222 224 224
23.6 -10.8 14.5 222 224 224
25.4 -11.4 15.4 222 224 224
24.7 -11.0 14.8 222 224 224
24.7 -10.8 14.6 222 224 224
27.1 -11.6 15.6 222 224 224
163.8 -55.7 75.1 193 193 193
-35.0 -11.2 15.5 77 77 77
34.1 -46.1 64.1 225 227 227
23.9 -10.7 14.9 222 224 224
23.7 -10.5 14.6 222 224 224
24.5 -10.6 14.7 222 224 224
24.7 -10.5 14.6 222 224 224
412.2 -138.8 193.0 153 155 155
180.7 -60.2 83.7 186 186 186
172.7 -56.9 79.1 193 193 193
-109.8 -32.5 46.7 70 70 70
-34.6 -10.7 15.3 72 72 72
-33.9 -10.6 15.2 75 76 74
-68.0 -21.6 31.1 77 78 76
-108.9 -35.4 50.9 77 78 76
-101.6 -33.8 48.5 57 57 57
-101.3 -34.0 48.9 57 57 57
-98.1 -33.3 47.9 63 62 61
-95.3 -32.8 47.1 50 50 50
35.5 -46.5 66.8 225 227 227
24.0 -10.4 15.0 222 224 224
24.7 -10.3 14.8 222 224 224
27.6 -11.2 16.1 223 225 225
723.6 -243.8 350.3 220 223 222
617.4 -205.7 295.6 190 190 190
181.5 -58.5 84.1 183 183 183
-149.6 -35.7 53.1 30 30 30
-146.7 -36.0 53.4 27 28 26
-145.9 -36.1 53.6 27 28 26
-144.2 -36.0 53.4 31 31 31
-125.8 -35.6 53.0 56 56 56
-114.3 -32.7 48.6 59 59 57
-34.8 -10.4 15.4 69 71 69
-67.3 -20.7 30.8 59 59 59
-112.8 -35.5 52.7 59 59 59
-111.0 -35.6 53.0 52 52 52
-107.7 -35.0 52.0 50 50 50
-106.4 -35.0 52.0 60 60 60
25.0 -10.2 15.2 222 224 224
24.9 -10.0 14.9 223 225 225
27.7 -10.8 16.1 223 225 225
737.3 -240.1 356.9 220 223 222
647.8 -208.6 310.1 176 179 178
182.3 -56.8 84.4 176 179 178
-152.2 -35.1 54.0 39 39 39
-155.3 -36.1 55.6 36 37 36
-153.2 -35.9 55.3 39 38 37
-152.8 -36.1 55.6 35 37 36
-152.4 -36.4 56.0 27 28 26
-146.7 -35.3 54.4 25 25 25
-135.4 -36.7 56.5 26 26 26
-128.7 -35.2 54.2 30 31 30
-120.9 -35.5 54.7 28 28 28
-123.5 -36.7 56.5 28 28 28
-116.4 -35.3 54.4 28 28 28
-115.2 -35.7 55.0 32 33 31
-112.0 -35.1 54.0 39 39 39
-109.8 -34.8 53.6 43 45 44
-109.1 -35.4 54.5 75 77 75
154.7 -189.0 291.0 223 225 225
723.6 -227.5 350.3 220 223 222
190.8 -57.4 88.4 175 177 177
208.1 -58.2 89.7 202 202 202
-114.9 -34.7 55.5 19 23 20
723.6 -219.4 350.3 222 224 224
228.9 -63.0 100.6 196 196 196
238.9 -65.1 103.9 198 198 198
214.2 -57.8 92.3 198 198 198
273.1 -72.2 115.3 204 204 204
24.9 -9.0 14.9 220 223 222
261.3 -70.0 116.1 193 193 193
244.5 -64.8 107.5 196 196 196
245.6 -64.5 106.9 198 198 198
257.9 -66.3 110.0 202 202 202
263.5 -67.1 111.3 203 203 203
-222.2 -52.7 90.9 77 77 77
-214.9 -51.5 88.8 75 75 75
-218.0 -52.7 90.9 75 76 76
-220.1 -53.8 92.7 77 77 77
-209.7 -51.7 89.2 77 77 77
269.0 -68.6 118.2 196 196 196
265.1 -66.9 115.3 198 198 198
277.2 -68.6 118.2 203 203 203
276.5 -67.7 116.8 203 203 203
272.5 -66.1 114.0 205 205 205
-243.3 -55.4 99.6 77 77 77
-241.0 -55.4 99.6 75 75 75
-236.3 -55.4 99.6 73 73 73
620.2 -167.1 300.3 222 222 222
349.7 -93.2 167.4 175 177 177
360.7 -94.0 168.9 144 146 146
340.7 -84.2 151.3 194 194 194
318.8 -78.0 140.1 197 197 197
304.0 -73.6 132.3 197 197 197
319.1 -75.7 136.1 203 203 203
313.2 -73.6 132.3 203 203 203
583.2 -150.6 282.3 222 222 222
416.2 -105.1 197.0 118 118 118
384.7 -96.1 180.2 142 141 140
380.3 -90.1 168.9 194 194 194
380.8 -89.3 167.4 197 197 197
396.0 -90.1 168.9 199 199 199
620.2 -153.2 300.3 224 226 226
500.2 -122.1 239.4 175 177 177
412.2 -98.5 193.0 143 143 142
443.7 -100.5 197.0 194 194 194
430.3 -96.5 189.2 197 197 197
797.5 -187.9 386.0 224 224 224
176.8 -39.9 81.9 173 173 173
175.0 -36.0 73.9 204 204 204
23.9 -2.9 12.7 224 224 224
24.0 -2.9 12.6 224 224 224
24.3 -2.9 12.6 224 224 224
23.9 -2.6 12.6 225 225 225
24.2 -2.6 12.6 225 225 225
23.5 -2.3 12.5 225 225 225
23.9 -2.3 12.5 225 225 225
24.1 -2.3 12.5 225 225 225
24.3 -2.3 12.5 228 228 228
23.9 -2.0 12.5 226 226 226
24.0 -2.0 12.5 226 226 226
30.0 -2.5 15.2 226 226 226
344.7 -25.2 156.3 156 159 158
29.7 -2.1 15.3 224 224 224
30.0 -2.1 15.2 224 224 224
31.7 -2.1 15.2 169 169 169
607.0 -38.4 278.2 160 160 160
677.4 -31.5 227.9 106 108 108
31.5 -1.7 15.1 173 173 173
28.9 -1.4 15.0 225 225 225
29.5 -1.4 15.1 225 225 225
29.6 -1.4 15.0 225 225 225
29.5 -1.4 14.8 227 227 227
29.9 -1.4 14.8 225 225 225
30.2 -1.4 14.8 225 225 225
31.3 -1.4 15.0 170 171 170
31.2 -1.4 14.8 190 190 190
31.9 -1.4 14.8 191 191 191
94.7 -2.3 25.3 85 85 85
28.9 -1.0 15.0 220 223 222
29.3 -1.0 15.0 220 223 222
29.5 -1.0 14.9 220 223 222
29.5 -1.0 14.8 225 225 225
29.8 -1.0 14.8 220 223 222
30.1 -1.0 14.7 225 225 225
31.3 -1.0 15.0 172 172 172
31.2 -1.0 14.8 191 191 191
31.9 -1.0 14.9 194 194 194
95.5 -1.7 25.5 83 83 83
92.4 -1.7 24.6 88 88 88
-605.7 -17.8 394.1 22 25 23
29.5 -0.7 15.2 226 226 226
29.8 -0.7 15.1 222 224 224
29.9 -0.7 15.0 222 224 224
31.5 -0.7 15.1 175 177 177
32.3 -0.7 15.1 197 197 197
94.8 -1.1 25.4 84 84 84
92.4 -1.1 24.6 86 86 86
29.6 -0.3 15.2 223 225 225
29.8 -0.3 15.1 222 224 224
30.0 -0.3 15.0 222 224 224
31.5 -0.3 15.1 175 177 177
32.3 -0.3 15.1 197 197 197
91.5 -0.5 24.3 85 85 85
69.0 -0.4 18.2 87 87 87
29.8 0.0 15.1 223 225 225
29.9 0.0 15.0 223 225 225
31.4 0.0 15.0 184 184 184
69.1 0.0 18.3 90 90 90
29.9 0.4 15.1 224 226 226
29.9 0.4 15.0 224 226 226
31.4 0.4 15.0 189 189 189
69.7 0.5 18.4 88 88 88
16.5 0.7 10.0 214 214 214
16.6 1.0 10.2 198 198 198
16.5 0.9 10.0 204 204 204
17.4 0.9 10.0 219 219 219
80.4 2.0 21.5 88 88 88
84.0 2.1 22.2 86 85 83
16.6 1.2 10.4 180 183 182
16.7 1.2 10.3 197 197 197
16.6 1.2 10.1 202 202 202
16.8 1.2 10.0 205 205 205
17.0 1.2 10.0 212 213 212
17.6 1.2 10.1 218 218 218
81.9 2.6 21.9 88 88 88
83.4 2.6 22.2 92 92 92
83.3 2.6 22.0 95 98 97
16.7 1.4 10.3 198 198 198
16.7 1.4 10.1 200 200 200
16.8 1.4 10.0 203 203 203
17.0 1.4 10.0 208 208 208
83.2 3.1 22.3 87 87 85
83.9 3.1 22.3 93 93 93
84.0 3.1 22.2 87 87 85
16.7 1.7 10.2 198 198 198
16.9 1.7 10.1 202 202 202
83.8 3.7 22.3 94 94 94
83.7 3.6 22.1 94 94 94
80.1 3.4 21.0 97 100 99
79.4 3.9 20.9 96 96 96
63.4 3.5 16.5 177 177 177
63.7 3.9 16.6 170 171 170
1006.4 110.4 394.1 184 187 186
870.5 94.6 337.8 198 198 198
1241.9 101.9 363.8 75 76 76
1354.5 110.4 394.1 77 77 77
-35.0 3.8 12.4 205 208 207
-34.7 3.8 12.4 205 205 205
-31.9 3.8 12.4 213 215 215
-30.7 3.8 12.4 194 194 194
-30.4 3.8 12.4 202 202 202
-30.1 3.8 12.4 184 187 186
-29.8 3.8 12.4 175 177 177
-29.5 3.8 12.4 163 163 163
17.1 6.6 14.2 64 64 64
17.1 6.5 13.9 66 66 66
17.0 6.3 13.6 70 69 68
17.1 7.0 14.2 64 64 64
17.1 6.8 13.9 66 66 66
17.1 7.3 14.2 66 66 66
17.1 7.1 13.9 69 69 69
17.0 7.0 13.6 71 70 69
17.2 7.7 14.3 67 67 67
17.0 7.3 13.6 70 70 70
16.9 7.1 13.2 73 72 70
-1.5 5.9 10.6 207 210 209
17.2 8.0 14.3 69 69 69
17.2 8.3 14.2 65 67 66
65.2 71.2 117.5 27 28 26
147.7 223.0 245.7 102 102 102
124.4 180.8 199.1 101 101 101
-32.9 14.1 11.7 98 98 98
33.6 22.4 13.9 147 147 147
28.8 19.0 11.7 137 137 137
31.2 19.9 12.2 115 115 115
44.2 19.3 11.8 60 63 62
44.2 19.1 11.7 63 65 65
25.9 18.1 10.9 143 143 142
27.5 18.1 11.0 122 122 122
31.2 20.2 12.2 115 115 115
